version 1
nodes
  0 "Bip01"  -1
  1 "Bip01 Footsteps"   0
  2 "Bip01 Pelvis"   0
  3 "Bip01 Spine"   2
  4 "Bip01 Spine1"   3
  5 "Bip01 Spine2"   4
  6 "Bip01 Spine3"   5
  7 "Bip01 Neck"   6
  8 "Bip01 Head"   7
  9 "Dummy21"   8
 10 "Bip01 L Clavicle"   7
 11 "Bip01 L UpperArm"  10
 12 "Bip01 L Forearm"  11
 13 "Bip01 L Hand"  12
 14 "Bip01 L Finger0"  13
 15 "Bip01 L Finger01"  14
 16 "Dummy06"  15
 17 "Bip01 L Finger1"  13
 18 "Bip01 L Finger11"  17
 19 "Dummy03"  18
 20 "-- L knuckle"  17
 21 "-- L knuckle_end"  20
 22 "-- L Forearm twist"  12
 23 "-- L Forearm twist_end"  22
 24 "-- L wrist"  12
 25 "-- L wrist_end"  24
 26 "-- L Elbow"  11
 27 "--L Elbow_end"  26
 28 "-- L bicep twist"  11
 29 "-- L bicep twist_end"  28
 30 "-- L shoulder outside"  10
 31 "-- L shoulder outside_end"  30
 32 "-- L Shoulder inside"  10
 33 "-- L Shoulder inside_end"  32
 34 "Bip01 R Clavicle"   7
 35 "Bip01 R UpperArm"  34
 36 "Bip01 R Forearm"  35
 37 "Bip01 R Hand"  36
 38 "Bip01 R Finger0"  37
 39 "Bip01 R Finger01"  38
 40 "Dummy01"  39
 41 "Bip01 R Finger1"  37
 42 "Bip01 R Finger11"  41
 43 "Dummy02"  42
 44 "-- R knuckle"  41
 45 "Point06"  44
 46 "flash"  37
 47 "Line02"  46
 48 "-- R wrist"  36
 49 "-- R wrist_end"  48
 50 "-- R forearm twist"  36
 51 "-- R forearm twist_end"  50
 52 "-- R Elbow"  35
 53 "--R Elbow_end"  52
 54 "-- R bicep twist"  35
 55 "-- R bicep twist_end"  54
 56 "-- R Shoulder inside"  34
 57 "-- R Shoulder inside_end"  56
 58 "-- R shoulder outside"  34
 59 "-- R shoulder outside_end"  58
 60 "-- Neck smooth"   6
 61 "-- neck smooth end"  60
 62 "-- R Butt"   2
 63 "--R Butt_end"  62
 64 "-- L butt"   2
 65 "--L butt_end"  64
 66 "GIGN01"   2
 67 "Bip01 L Thigh"   2
 68 "Bip01 L Calf"  67
 69 "Bip01 L Foot"  68
 70 "Bip01 L Toe0"  69
 71 "Dummy16"  70
 72 "-- L ankle"  68
 73 "-- L ankleend"  72
 74 "-- L Knee"  67
 75 "--L Knee_end"  74
 76 "Bip01 R Thigh"   2
 77 "Bip01 R Calf"  76
 78 "Bip01 R Foot"  77
 79 "Bip01 R Toe0"  78
 80 "Dummy11"  79
 81 "-- R Ankle"  77
 82 "-- R ankleend"  81
 83 "-- R Knee"  76
 84 "--R Knee_end"  83
end
skeleton
time 0
  0 -0.650000 0.000000 33.899605 -0.025849 0.174554 -1.569172
  1 5.685103 0.833236 -32.227173 -0.174512 -0.026131 1.569196
  2 -2.276935 0.000003 -1.238188 -1.570795 -1.570451 0.000000
  3 1.796837 0.711953 0.000951 -0.299277 0.166856 -0.147537
  4 4.118693 -0.003169 0.000844 -0.260562 -0.052202 0.041073
  5 4.118686 -0.003168 0.000844 -0.261353 -0.091624 0.051655
  6 4.118691 -0.003169 0.000843 -0.260563 -0.052224 0.040988
  7 4.118598 -0.001925 -0.002969 1.038945 0.229787 0.366936
  8 4.443596 0.000000 -0.000000 -0.065440 -0.316242 0.410660
  9 9.024062 -0.000001 0.000000 0.000000 0.000000 0.000000
 10 -0.394663 1.457661 0.855622 1.129224 -0.259681 1.673358
 11 6.384776 0.000000 0.000001 0.413666 1.138000 0.676264
 12 10.242682 -0.000001 0.000000 0.000000 0.000000 -2.086559
 13 11.375561 0.000000 0.000000 -2.843184 -0.074029 0.010132
 14 0.728681 0.023431 -1.008292 1.202975 0.409398 0.881725
 15 2.136499 0.000001 -0.000002 0.000000 -0.000000 -0.078540
 16 2.313139 0.000001 0.000000 0.000000 0.000000 0.000000
 17 3.115507 -0.886041 -0.021431 -0.166499 0.000392 0.514872
 18 2.011151 -0.000002 0.000000 -0.000000 0.000000 1.322792
 19 2.141382 -0.000001 -0.000000 0.000000 0.000000 0.000000
 20 1.734175 0.000002 -0.000001 -0.000000 -0.000000 0.660693
 21 0.000005 -4.440594 -0.000001 1.570544 -0.062990 -0.195737
 22 5.999999 0.000002 0.000001 -2.559871 0.000000 0.000000
 23 0.000001 -4.440602 0.000000 1.569944 -0.062987 0.004053
 24 11.375560 0.000001 0.000004 -2.206011 -0.044101 -0.008623
 25 -0.000002 -4.440603 -0.000001 1.570144 -0.062988 0.004040
 26 10.510130 -0.000001 -0.000001 -0.000000 -0.000000 -2.614076
 27 0.000002 -1.748402 4.999999 -0.000000 0.004007 1.602291
 28 5.500001 -0.000001 -0.000001 0.020985 -0.000000 -0.000000
 29 0.000001 -1.940598 5.000000 -0.044472 0.004003 -0.000180
 30 6.551490 0.000001 0.000000 0.035142 0.739046 0.377819
 31 -0.000003 -1.940598 5.000003 -0.027189 -0.053376 0.005295
 32 6.551490 0.000001 0.000000 -0.023311 0.344740 0.158721
 33 -0.000003 -1.940598 4.999996 -0.066572 -0.152786 -0.110311
 34 0.394663 -1.450585 -0.855621 -1.249872 2.471737 1.526257
 35 6.384776 -0.000000 -0.000001 -0.848291 -0.610397 -0.112136
 36 10.242685 -0.000000 0.000002 -0.000000 0.000000 -1.911274
 37 11.375560 -0.000002 -0.000001 1.845645 0.127692 -0.654420
 38 0.728680 0.023432 1.008292 -1.579583 -0.319038 0.212973
 39 2.136497 -0.000001 0.000000 0.000000 0.000000 1.282817
 40 2.313138 -0.000001 0.000000 0.000000 0.000000 3.141593
 41 3.115506 -0.886040 0.021432 0.420766 0.316066 0.167178
 42 2.011151 0.000000 -0.000000 -0.000000 -0.000000 2.082010
 43 2.141379 0.000000 0.000000 0.000000 0.000000 3.141593
 44 1.734172 -0.000002 -0.000003 0.000000 -0.000000 1.041748
 45 0.136316 -3.738193 2.525890 1.493698 2.759406 -1.474501
 46 29.831057 -1.859323 -2.180625 0.219518 -0.013465 1.468817
 47 -0.319470 8.644890 1.613175 -1.569415 -0.026309 0.036285
 48 11.389367 -0.000820 0.158781 1.717909 0.040651 -0.339716
 49 0.000001 -4.440598 -0.000000 1.570144 -3.078602 0.004040
 50 6.000000 -0.000001 -0.000001 1.717909 0.000000 -0.000000
 51 0.000002 -4.440600 -0.000001 1.569944 -3.078603 0.004053
 52 10.510132 0.000001 0.000001 -0.000000 0.000000 -2.526433
 53 0.000000 -1.748399 -5.000000 3.141593 0.004007 -1.539299
 54 5.500001 -0.000000 0.000001 0.243605 -0.000000 0.000000
 55 -0.000000 -0.000001 -4.999998 -0.044472 3.137589 -0.000177
 56 6.551490 -0.000001 0.000000 -0.243605 -0.228300 -0.108566
 57 -1.266843 -1.937442 -4.950559 -0.066572 -2.988806 -0.110308
 58 6.551491 -0.000001 0.000000 -0.243605 -0.228300 -0.108566
 59 0.699371 -1.944206 -5.006848 -0.027189 -3.088217 0.005298
 60 4.226148 -0.003201 -0.000000 0.506134 0.174427 0.164043
 61 0.000000 5.000000 0.000000 -0.153564 0.000087 2.718702
 62 0.000004 -0.000005 -3.713580 0.365818 2.880119 -0.191589
 63 0.000002 0.000000 5.000000 3.053196 1.558589 -0.074928
 64 -0.000007 0.000005 3.713580 -0.001619 -3.122277 -0.475127
 65 0.000002 -0.000000 -5.000000 -0.088726 1.558589 3.066335
 66 7.363602 1.646647 0.495663 3.141593 -1.570796 0.000000
 67 -0.000005 0.000006 3.619081 0.008255 -3.110080 -0.985231
 68 16.573919 0.000001 -0.000000 -0.000000 -0.000000 -1.065827
 69 15.128181 0.000000 0.000000 -0.102296 0.010178 0.114297
 70 5.758665 4.244730 0.000000 0.000000 0.000000 1.667687
 71 3.177726 0.000000 0.000000 0.000000 0.000000 3.141593
 72 15.708953 0.000001 0.000000 -0.051525 0.003996 0.061523
 73 0.275148 0.189215 -3.445208 3.130898 0.000409 -1.514604
 74 17.210192 0.000000 -0.000000 -0.000000 -0.000000 -1.893339
 75 -0.000000 -0.000000 -4.999999 -0.079433 1.546568 -1.570857
 76 0.000002 -0.000003 -3.619081 0.577895 2.675801 -0.242118
 77 16.573921 -0.000001 -0.000002 -0.000000 -0.000000 -1.163030
 78 15.128181 0.000001 0.000001 0.089479 0.309197 0.659208
 79 5.758666 4.244730 -0.000001 -0.000000 -0.000000 1.815142
 80 4.003934 -0.000000 0.000001 0.000000 0.000000 0.000000
 81 15.708953 0.000001 0.000001 0.042277 0.226871 0.443133
 82 0.273998 0.191089 3.439763 -3.130907 -0.000437 -1.508107
 83 17.210194 -0.000001 -0.000002 0.000000 -0.000000 -1.937080
 84 -0.000000 -0.000001 5.000000 -0.079319 1.595025 -1.570742
time 1
  0 -0.650000 0.000000 33.899605 -0.025849 0.174554 -1.569172
  1 5.685103 0.833236 -32.227173 -0.174512 -0.026131 1.569196
  2 -2.276935 0.000003 -1.238188 -1.570795 -1.570451 0.000000
  3 1.796875 0.711933 0.000897 -0.281766 0.165361 -0.131492
  4 4.118701 -0.003182 0.000789 -0.243058 -0.050148 0.042502
  5 4.118694 -0.003181 0.000788 -0.243751 -0.088331 0.052060
  6 4.118699 -0.003182 0.000788 -0.243059 -0.050169 0.042416
  7 4.118790 -0.001923 -0.002966 1.021819 0.187908 0.392639
  8 4.443597 0.000000 -0.000001 -0.081452 -0.305528 0.275430
  9 9.024060 0.000000 -0.000000 0.000000 0.000000 0.000000
 10 -0.323680 1.455629 0.888247 1.127381 -0.282060 1.625002
 11 6.384777 0.000001 -0.000002 0.253661 1.199933 0.464943
 12 10.242685 -0.000001 -0.000001 0.000000 0.000000 -2.031902
 13 11.375561 -0.000002 0.000001 -2.817516 -0.029346 0.016811
 14 0.728682 0.023432 -1.008292 1.202975 0.409398 0.881725
 15 2.136500 0.000000 -0.000002 -0.000000 -0.000000 -0.078540
 16 2.313138 -0.000000 0.000000 0.000000 0.000000 0.000000
 17 3.115507 -0.886039 -0.021432 -0.166499 0.000392 0.514872
 18 2.011151 0.000003 -0.000000 -0.000000 0.000000 1.322792
 19 2.141379 0.000001 -0.000000 0.000000 0.000000 0.000000
 20 1.734172 0.000003 -0.000000 -0.000000 0.000000 0.660693
 21 0.000004 -4.440593 -0.000000 1.570544 -0.062990 -0.195737
 22 6.000000 -0.000003 0.000000 -2.538740 -0.000000 -0.000000
 23 0.000001 -4.440600 0.000001 1.569944 -0.062987 0.004053
 24 11.375561 -0.000002 0.000003 -2.193730 -0.020077 0.004179
 25 -0.000000 -4.440603 0.000000 1.570144 -0.062988 0.004040
 26 10.510132 -0.000000 -0.000002 -0.000000 0.000000 -2.586747
 27 0.000001 -1.748402 5.000000 -0.000000 0.004007 1.602291
 28 5.500002 -0.000000 -0.000001 0.042921 0.000000 -0.000000
 29 -0.000004 -1.940598 5.000000 -0.044472 0.004003 -0.000180
 30 6.551491 0.000001 -0.000001 -0.023477 0.764494 0.281248
 31 -0.000000 -1.940598 5.000003 -0.027189 -0.053376 0.005295
 32 6.551491 0.000001 -0.000001 -0.040006 0.354920 0.122377
 33 -0.000001 -1.940598 4.999995 -0.066572 -0.152786 -0.110311
 34 0.323680 -1.448552 -0.888249 -1.254820 2.417838 1.486886
 35 6.384777 -0.000000 -0.000001 -0.871225 -0.604477 0.008727
 36 10.242682 -0.000001 0.000001 -0.000000 0.000000 -1.951034
 37 11.375561 -0.000000 0.000002 1.794027 0.126779 -0.650564
 38 0.728681 0.023431 1.008292 -1.579583 -0.319038 0.212973
 39 2.136498 -0.000002 -0.000001 -0.000000 0.000000 1.282817
 40 2.313140 0.000000 0.000000 0.000000 0.000000 3.141593
 41 3.115506 -0.886041 0.021431 0.420765 0.316066 0.167178
 42 2.011150 -0.000000 0.000003 -0.000000 0.000000 2.082010
 43 2.141379 -0.000000 -0.000003 0.000000 0.000000 3.141593
 44 1.734173 -0.000001 -0.000001 0.000000 -0.000000 1.041748
 45 0.136315 -3.738193 2.525890 1.493698 2.759406 -1.474501
 46 29.831055 -1.859322 -2.180627 0.219518 -0.013465 1.468817
 47 -0.319472 8.644889 1.613178 -1.569415 -0.026309 0.036285
 48 11.389366 -0.000819 0.158783 1.691735 0.045275 -0.336991
 49 0.000001 -4.440598 0.000000 1.570144 -3.078602 0.004040
 50 6.000000 0.000000 0.000001 1.691735 0.000000 -0.000000
 51 0.000001 -4.440600 0.000000 1.569944 -3.078603 0.004053
 52 10.510133 -0.000001 0.000003 -0.000000 -0.000000 -2.546313
 53 0.000000 -1.748400 -5.000000 -3.141593 0.004007 -1.539299
 54 5.500001 -0.000001 0.000001 0.254158 -0.000000 0.000000
 55 -0.000002 0.000001 -5.000000 -0.044472 3.137589 -0.000177
 56 6.551491 0.000000 -0.000003 -0.254158 -0.243927 -0.067673
 57 -1.266842 -1.937443 -4.950559 -0.066572 -2.988806 -0.110308
 58 6.551491 -0.000001 0.000001 -0.254158 -0.243927 -0.067673
 59 0.699370 -1.944208 -5.006849 -0.027189 -3.088217 0.005298
 60 4.226147 -0.003202 -0.000001 0.500164 0.155015 0.184416
 61 -0.000003 5.000001 -0.000000 -0.153564 0.000087 2.718702
 62 0.000004 -0.000005 -3.713580 0.365818 2.880119 -0.191589
 63 0.000002 0.000000 5.000000 3.053196 1.558589 -0.074928
 64 -0.000007 0.000005 3.713580 -0.001619 -3.122277 -0.475127
 65 0.000002 -0.000000 -5.000000 -0.088726 1.558589 3.066335
 66 7.363602 1.646647 0.495663 3.141593 -1.570796 0.000000
 67 -0.000005 0.000006 3.619081 0.008255 -3.110080 -0.985231
 68 16.573919 0.000001 -0.000000 -0.000000 -0.000000 -1.065827
 69 15.128181 0.000000 0.000000 -0.102296 0.010178 0.114297
 70 5.758665 4.244730 0.000000 0.000000 0.000000 1.667687
 71 3.177726 0.000000 0.000000 0.000000 0.000000 3.141593
 72 15.708953 0.000001 0.000000 -0.051525 0.003996 0.061523
 73 0.275148 0.189215 -3.445208 3.130898 0.000409 -1.514604
 74 17.210192 0.000000 -0.000000 -0.000000 -0.000000 -1.893339
 75 -0.000000 -0.000000 -4.999999 -0.079433 1.546568 -1.570857
 76 0.000002 -0.000003 -3.619081 0.577895 2.675801 -0.242118
 77 16.573921 -0.000001 -0.000002 -0.000000 -0.000000 -1.163030
 78 15.128181 0.000001 0.000001 0.089479 0.309197 0.659208
 79 5.758666 4.244730 -0.000001 -0.000000 -0.000000 1.815142
 80 4.003934 -0.000000 0.000001 0.000000 0.000000 0.000000
 81 15.708953 0.000001 0.000001 0.042277 0.226871 0.443133
 82 0.273998 0.191089 3.439763 -3.130907 -0.000437 -1.508107
 83 17.210194 -0.000001 -0.000002 0.000000 -0.000000 -1.937080
 84 -0.000000 -0.000001 5.000000 -0.079319 1.595025 -1.570742
time 2
  0 -0.650000 0.000000 33.899605 -0.025849 0.174554 -1.569172
  1 5.685103 0.833236 -32.227173 -0.174512 -0.026131 1.569196
  2 -2.276935 0.000003 -1.238188 -1.570795 -1.570451 0.000000
  3 1.796913 0.711915 0.000843 -0.264287 0.163589 -0.115480
  4 4.118711 -0.003195 0.000733 -0.225552 -0.048119 0.043966
  5 4.118707 -0.003195 0.000733 -0.226152 -0.085047 0.052523
  6 4.118709 -0.003195 0.000733 -0.225553 -0.048139 0.043880
  7 4.118977 -0.001914 -0.002952 1.003731 0.146478 0.418883
  8 4.443598 0.000000 -0.000001 -0.098678 -0.297396 0.140044
  9 9.024061 0.000001 0.000000 0.000000 0.000000 0.000000
 10 -0.252901 1.449402 0.920781 1.126662 -0.304499 1.576360
 11 6.384777 -0.000001 -0.000000 -0.038154 1.237026 0.143528
 12 10.242682 -0.000001 0.000000 -0.000000 0.000000 -1.940779
 13 11.375561 -0.000000 0.000001 -2.821908 0.031626 -0.000159
 14 0.728680 0.023430 -1.008291 1.202975 0.409398 0.881725
 15 2.136496 -0.000000 -0.000000 -0.000000 0.000000 -0.078540
 16 2.313137 -0.000000 0.000000 0.000000 0.000000 0.000000
 17 3.115506 -0.886042 -0.021431 -0.166499 0.000392 0.514872
 18 2.011149 -0.000000 -0.000000 -0.000000 -0.000000 1.322792
 19 2.141380 0.000000 -0.000000 0.000000 0.000000 0.000000
 20 1.734171 -0.000000 -0.000000 0.000000 0.000000 0.660693
 21 0.000004 -4.440594 -0.000001 1.570544 -0.062990 -0.195737
 22 5.999999 -0.000001 0.000001 -2.542389 0.000000 -0.000000
 23 0.000001 -4.440602 0.000002 1.569944 -0.062987 0.004053
 24 11.375561 -0.000004 0.000005 -2.195958 0.018016 0.005993
 25 -0.000000 -4.440604 0.000002 1.570144 -0.062988 0.004040
 26 10.510131 -0.000001 -0.000001 0.000000 -0.000000 -2.541186
 27 0.000002 -1.748402 4.999999 0.000000 0.004007 1.602291
 28 5.499999 -0.000000 0.000000 0.080085 -0.000000 0.000000
 29 -0.000001 -1.940599 4.999999 -0.044472 0.004003 -0.000180
 30 6.551490 -0.000000 -0.000000 -0.119913 0.782177 0.157473
 31 0.000003 -1.940599 5.000001 -0.027189 -0.053376 0.005295
 32 6.551490 -0.000000 -0.000000 -0.068716 0.361956 0.079108
 33 -0.000001 -1.940599 4.999998 -0.066572 -0.152786 -0.110311
 34 0.252900 -1.442325 -0.920785 -1.263115 2.323380 1.461350
 35 6.384776 0.000000 -0.000000 -0.879242 -0.610669 0.153152
 36 10.242682 -0.000001 0.000002 0.000000 0.000000 -1.995686
 37 11.375562 -0.000003 -0.000001 1.727885 0.124605 -0.622746
 38 0.728681 0.023430 1.008294 -1.579583 -0.319038 0.212973
 39 2.136496 0.000002 0.000001 0.000000 0.000000 1.282817
 40 2.313138 0.000001 -0.000000 0.000000 0.000000 3.141593
 41 3.115506 -0.886042 0.021432 0.420766 0.316066 0.167178
 42 2.011150 -0.000000 -0.000001 -0.000000 0.000000 2.082010
 43 2.141380 -0.000000 -0.000001 0.000000 0.000000 3.141593
 44 1.734172 -0.000001 -0.000003 -0.000000 -0.000000 1.041748
 45 0.136315 -3.738192 2.525891 1.493698 2.759406 -1.474501
 46 29.831055 -1.859324 -2.180626 0.219518 -0.013465 1.468817
 47 -0.319472 8.644887 1.613174 -1.569415 -0.026309 0.036285
 48 11.389367 -0.000819 0.158781 1.657688 0.051353 -0.323625
 49 0.000000 -4.440599 -0.000001 1.570144 -3.078602 0.004040
 50 6.000000 -0.000000 -0.000000 1.657688 -0.000000 0.000000
 51 0.000002 -4.440602 0.000003 1.569944 -3.078603 0.004053
 52 10.510131 -0.000001 0.000002 -0.000000 0.000000 -2.568639
 53 -0.000000 -1.748400 -5.000000 -3.141593 0.004007 -1.539299
 54 5.500000 -0.000002 0.000002 0.263210 0.000000 -0.000000
 55 -0.000001 -0.000000 -5.000000 -0.044472 3.137589 -0.000177
 56 6.551490 -0.000000 -0.000000 -0.263210 -0.255689 -0.018394
 57 -1.266843 -1.937443 -4.950558 -0.066572 -2.988806 -0.110308
 58 6.551491 -0.000000 -0.000000 -0.263210 -0.255689 -0.018394
 59 0.699370 -1.944207 -5.006848 -0.027189 -3.088217 0.005298
 60 4.226145 -0.003201 -0.000000 0.493536 0.135703 0.204461
 61 -0.000001 5.000000 -0.000000 -0.153564 0.000087 2.718701
 62 0.000004 -0.000005 -3.713580 0.365818 2.880119 -0.191589
 63 0.000002 0.000000 5.000000 3.053196 1.558589 -0.074928
 64 -0.000007 0.000005 3.713580 -0.001619 -3.122277 -0.475127
 65 0.000002 -0.000000 -5.000000 -0.088726 1.558589 3.066335
 66 7.363602 1.646647 0.495663 3.141593 -1.570796 0.000000
 67 -0.000005 0.000006 3.619081 0.008255 -3.110080 -0.985231
 68 16.573919 0.000001 -0.000000 -0.000000 -0.000000 -1.065827
 69 15.128181 0.000000 0.000000 -0.102296 0.010178 0.114297
 70 5.758665 4.244730 0.000000 0.000000 0.000000 1.667687
 71 3.177726 0.000000 0.000000 0.000000 0.000000 3.141593
 72 15.708953 0.000001 0.000000 -0.051525 0.003996 0.061523
 73 0.275148 0.189215 -3.445208 3.130898 0.000409 -1.514604
 74 17.210192 0.000000 -0.000000 -0.000000 -0.000000 -1.893339
 75 -0.000000 -0.000000 -4.999999 -0.079433 1.546568 -1.570857
 76 0.000002 -0.000003 -3.619081 0.577895 2.675801 -0.242118
 77 16.573921 -0.000001 -0.000002 -0.000000 -0.000000 -1.163030
 78 15.128181 0.000001 0.000001 0.089479 0.309197 0.659208
 79 5.758666 4.244730 -0.000001 -0.000000 -0.000000 1.815142
 80 4.003934 -0.000000 0.000001 0.000000 0.000000 0.000000
 81 15.708953 0.000001 0.000001 0.042277 0.226871 0.443133
 82 0.273998 0.191089 3.439763 -3.130907 -0.000437 -1.508107
 83 17.210194 -0.000001 -0.000002 0.000000 -0.000000 -1.937080
 84 -0.000000 -0.000001 5.000000 -0.079319 1.595025 -1.570742
time 3
  0 -0.650000 0.000000 33.899605 -0.025849 0.174554 -1.569172
  1 5.685103 0.833236 -32.227173 -0.174512 -0.026131 1.569196
  2 -2.276935 0.000003 -1.238188 -1.570795 -1.570451 0.000000
  3 1.796955 0.711898 0.000789 -0.246844 0.161542 -0.099506
  4 4.118717 -0.003207 0.000677 -0.208045 -0.046117 0.045466
  5 4.118721 -0.003208 0.000677 -0.208556 -0.081771 0.053044
  6 4.118716 -0.003206 0.000677 -0.208046 -0.046135 0.045379
  7 4.119168 -0.001901 -0.002931 0.984651 0.105536 0.445739
  8 4.443601 0.000000 -0.000001 -0.117061 -0.291920 0.004663
  9 9.024061 -0.000001 0.000000 0.000000 0.000000 0.000000
 10 -0.182525 1.438998 0.953131 1.127090 -0.326945 1.527377
 11 6.384777 -0.000001 -0.000001 -0.373513 1.240724 -0.221735
 12 10.242680 -0.000000 0.000000 -0.000000 0.000000 -1.838909
 13 11.375560 0.000002 0.000001 -2.827495 0.091301 -0.025340
 14 0.728680 0.023433 -1.008292 1.202975 0.409398 0.881725
 15 2.136496 -0.000003 0.000001 -0.000000 -0.000000 -0.078540
 16 2.313139 0.000001 -0.000001 0.000000 0.000000 0.000000
 17 3.115506 -0.886042 -0.021432 -0.166499 0.000392 0.514872
 18 2.011153 0.000002 -0.000001 0.000000 0.000000 1.322792
 19 2.141379 0.000001 -0.000001 0.000000 0.000000 0.000000
 20 1.734173 0.000002 0.000001 0.000000 -0.000000 0.660693
 21 0.000007 -4.440593 0.000000 1.570544 -0.062990 -0.195737
 22 6.000000 0.000002 0.000001 -2.546499 0.000000 -0.000000
 23 0.000002 -4.440603 0.000000 1.569944 -0.062987 0.004053
 24 11.375560 0.000003 0.000004 -2.197692 0.056903 0.002900
 25 -0.000000 -4.440604 0.000003 1.570144 -0.062988 0.004040
 26 10.510128 -0.000000 -0.000001 -0.000000 0.000000 -2.490251
 27 0.000002 -1.748402 4.999999 0.000000 0.004007 1.602291
 28 5.499999 0.000000 -0.000000 0.118277 -0.000000 0.000000
 29 -0.000001 -1.940598 5.000000 -0.044472 0.004003 -0.000180
 30 6.551492 -0.000001 -0.000003 -0.223923 0.788204 0.017943
 31 0.000001 -1.940599 5.000000 -0.027189 -0.053376 0.005295
 32 6.551492 -0.000001 -0.000003 -0.097898 0.365853 0.030536
 33 0.000001 -1.940599 4.999998 -0.066572 -0.152786 -0.110311
 34 0.182531 -1.431922 -0.953132 -1.269998 2.224069 1.438456
 35 6.384777 0.000000 0.000000 -0.883355 -0.616065 0.303203
 36 10.242682 0.000002 0.000000 0.000000 -0.000000 -2.041320
 37 11.375561 0.000000 0.000000 1.664919 0.122936 -0.599516
 38 0.728680 0.023431 1.008292 -1.579583 -0.319038 0.212973
 39 2.136498 -0.000000 -0.000000 0.000000 -0.000000 1.282817
 40 2.313139 0.000001 0.000001 0.000000 0.000000 3.141593
 41 3.115506 -0.886041 0.021431 0.420765 0.316066 0.167178
 42 2.011151 0.000001 0.000001 -0.000000 0.000000 2.082010
 43 2.141379 0.000001 0.000000 0.000000 0.000000 3.141593
 44 1.734172 -0.000001 0.000000 -0.000000 0.000000 1.041748
 45 0.136316 -3.738193 2.525889 1.493698 2.759406 -1.474501
 46 29.831055 -1.859322 -2.180625 0.219518 -0.013465 1.468817
 47 -0.319472 8.644890 1.613176 -1.569415 -0.026309 0.036285
 48 11.389367 -0.000819 0.158783 1.625514 0.056716 -0.312438
 49 0.000000 -4.440598 0.000002 1.570144 -3.078602 0.004040
 50 6.000000 0.000000 0.000001 1.625514 -0.000000 0.000000
 51 0.000002 -4.440599 -0.000000 1.569944 -3.078603 0.004053
 52 10.510132 0.000001 0.000001 0.000000 0.000000 -2.591456
 53 -0.000000 -1.748399 -5.000001 -3.141593 0.004007 -1.539299
 54 5.500000 0.000000 0.000001 0.267732 -0.000000 -0.000000
 55 -0.000000 0.000001 -5.000000 -0.044472 3.137589 -0.000177
 56 6.551491 -0.000000 0.000002 -0.267732 -0.256842 0.030688
 57 -1.266844 -1.937444 -4.950559 -0.066572 -2.988806 -0.110308
 58 6.551491 -0.000000 0.000002 -0.267732 -0.256842 0.030688
 59 0.699370 -1.944208 -5.006845 -0.027189 -3.088217 0.005298
 60 4.226146 -0.003201 0.000000 0.486288 0.116563 0.224150
 61 0.000001 5.000000 0.000000 -0.153564 0.000087 2.718702
 62 0.000004 -0.000005 -3.713580 0.365818 2.880119 -0.191589
 63 0.000002 0.000000 5.000000 3.053196 1.558589 -0.074928
 64 -0.000007 0.000005 3.713580 -0.001619 -3.122277 -0.475127
 65 0.000002 -0.000000 -5.000000 -0.088726 1.558589 3.066335
 66 7.363602 1.646647 0.495663 3.141593 -1.570796 0.000000
 67 -0.000005 0.000006 3.619081 0.008255 -3.110080 -0.985231
 68 16.573919 0.000001 -0.000000 -0.000000 -0.000000 -1.065827
 69 15.128181 0.000000 0.000000 -0.102296 0.010178 0.114297
 70 5.758665 4.244730 0.000000 0.000000 0.000000 1.667687
 71 3.177726 0.000000 0.000000 0.000000 0.000000 3.141593
 72 15.708953 0.000001 0.000000 -0.051525 0.003996 0.061523
 73 0.275148 0.189215 -3.445208 3.130898 0.000409 -1.514604
 74 17.210192 0.000000 -0.000000 -0.000000 -0.000000 -1.893339
 75 -0.000000 -0.000000 -4.999999 -0.079433 1.546568 -1.570857
 76 0.000002 -0.000003 -3.619081 0.577895 2.675801 -0.242118
 77 16.573921 -0.000001 -0.000002 -0.000000 -0.000000 -1.163030
 78 15.128181 0.000001 0.000001 0.089479 0.309197 0.659208
 79 5.758666 4.244730 -0.000001 -0.000000 -0.000000 1.815142
 80 4.003934 -0.000000 0.000001 0.000000 0.000000 0.000000
 81 15.708953 0.000001 0.000001 0.042277 0.226871 0.443133
 82 0.273998 0.191089 3.439763 -3.130907 -0.000437 -1.508107
 83 17.210194 -0.000001 -0.000002 0.000000 -0.000000 -1.937080
 84 -0.000000 -0.000001 5.000000 -0.079319 1.595025 -1.570742
time 4
  0 -0.650000 0.000000 33.899605 -0.025849 0.174554 -1.569172
  1 5.685103 0.833236 -32.227173 -0.174512 -0.026131 1.569196
  2 -2.276935 0.000003 -1.238188 -1.570795 -1.570451 0.000000
  3 1.796955 0.711898 0.000789 -0.246844 0.161542 -0.099506
  4 4.118717 -0.003207 0.000677 -0.208045 -0.046117 0.045466
  5 4.118721 -0.003208 0.000677 -0.208556 -0.081771 0.053044
  6 4.118716 -0.003206 0.000677 -0.208046 -0.046135 0.045379
  7 4.119168 -0.001901 -0.002931 0.984651 0.105536 0.445739
  8 4.443601 0.000000 -0.000001 -0.117061 -0.291920 0.004663
  9 9.024061 -0.000001 0.000000 0.000000 0.000000 0.000000
 10 -0.182525 1.438998 0.953131 1.127090 -0.326945 1.527377
 11 6.384777 -0.000001 -0.000001 -0.577542 1.239816 -0.369317
 12 10.242682 -0.000000 -0.000000 -0.000000 -0.000000 -1.768441
 13 11.375561 0.000000 0.000001 -2.846638 0.157019 -0.063629
 14 0.728681 0.023432 -1.008292 1.202975 0.409398 0.881725
 15 2.136496 -0.000001 -0.000000 0.000000 0.000000 -0.078540
 16 2.313141 0.000000 -0.000000 0.000000 0.000000 0.000000
 17 3.115506 -0.886039 -0.021432 -0.166499 0.000392 0.514872
 18 2.011149 -0.000002 -0.000002 0.000000 -0.000000 1.322792
 19 2.141380 -0.000000 0.000000 0.000000 0.000000 0.000000
 20 1.734170 -0.000000 -0.000000 0.000000 0.000000 0.660693
 21 0.000006 -4.440594 0.000000 1.570544 -0.062990 -0.195737
 22 5.999999 0.000000 0.000001 -2.561324 -0.000000 0.000000
 23 0.000002 -4.440603 0.000001 1.569944 -0.062987 0.004053
 24 11.375560 0.000000 0.000004 -2.204617 0.101393 -0.005934
 25 0.000000 -4.440603 -0.000003 1.570144 -0.062988 0.004040
 26 10.510132 -0.000000 -0.000001 -0.000000 0.000000 -2.455017
 27 -0.000001 -1.748400 5.000000 -0.000000 0.004007 1.602291
 28 5.499999 -0.000000 0.000000 0.161423 -0.000000 -0.000000
 29 -0.000004 -1.940598 5.000000 -0.044472 0.004003 -0.000180
 30 6.551492 -0.000001 -0.000003 -0.317558 0.811140 -0.010393
 31 -0.000000 -1.940599 5.000002 -0.027189 -0.053376 0.005295
 32 6.551492 -0.000001 -0.000003 -0.132601 0.372905 0.029239
 33 -0.000000 -1.940599 4.999996 -0.066572 -0.152786 -0.110311
 34 0.182531 -1.431922 -0.953132 -1.269050 2.147111 1.470640
 35 6.384777 -0.000001 0.000003 -0.847549 -0.641727 0.342659
 36 10.242682 -0.000001 0.000001 0.000000 0.000000 -2.052112
 37 11.375562 0.000000 0.000001 1.641253 0.122595 -0.546426
 38 0.728681 0.023431 1.008291 -1.579583 -0.319038 0.212973
 39 2.136497 0.000001 -0.000000 0.000000 0.000000 1.282817
 40 2.313140 0.000001 -0.000000 0.000000 0.000000 3.141593
 41 3.115506 -0.886042 0.021431 0.420766 0.316066 0.167178
 42 2.011152 -0.000001 -0.000003 0.000000 0.000000 2.082010
 43 2.141381 0.000000 0.000003 0.000000 0.000000 3.141593
 44 1.734172 -0.000001 0.000001 -0.000000 0.000000 1.041748
 45 0.136315 -3.738193 2.525891 1.493698 2.759406 -1.474501
 46 29.831057 -1.859324 -2.180630 0.219518 -0.013465 1.468817
 47 -0.319471 8.644890 1.613178 -1.569415 -0.026309 0.036285
 48 11.389368 -0.000818 0.158783 1.612747 0.059644 -0.288377
 49 0.000000 -4.440598 0.000003 1.570144 -3.078602 0.004040
 50 6.000001 0.000001 0.000001 1.612747 -0.000000 0.000000
 51 0.000003 -4.440600 0.000001 1.569944 -3.078603 0.004053
 52 10.510131 -0.000001 0.000001 -0.000000 -0.000000 -2.596852
 53 0.000000 -1.748400 -5.000001 -3.141593 0.004007 -1.539299
 54 5.500001 -0.000002 0.000001 0.257356 0.000000 -0.000000
 55 -0.000001 0.000001 -5.000000 -0.044472 3.137589 -0.000177
 56 6.551490 -0.000000 0.000003 -0.257356 -0.259162 0.040967
 57 -1.266844 -1.937444 -4.950561 -0.066572 -2.988806 -0.110308
 58 6.551491 -0.000001 0.000003 -0.257356 -0.259162 0.040967
 59 0.699370 -1.944209 -5.006845 -0.027189 -3.088217 0.005298
 60 4.226146 -0.003201 0.000000 0.486288 0.116563 0.224150
 61 0.000001 5.000000 0.000000 -0.153564 0.000087 2.718702
 62 0.000004 -0.000005 -3.713580 0.365818 2.880119 -0.191589
 63 0.000002 0.000000 5.000000 3.053196 1.558589 -0.074928
 64 -0.000007 0.000005 3.713580 -0.001619 -3.122277 -0.475127
 65 0.000002 -0.000000 -5.000000 -0.088726 1.558589 3.066335
 66 7.363602 1.646647 0.495663 3.141593 -1.570796 0.000000
 67 -0.000005 0.000006 3.619081 0.008255 -3.110080 -0.985231
 68 16.573919 0.000001 -0.000000 -0.000000 -0.000000 -1.065827
 69 15.128181 0.000000 0.000000 -0.102296 0.010178 0.114297
 70 5.758665 4.244730 0.000000 0.000000 0.000000 1.667687
 71 3.177726 0.000000 0.000000 0.000000 0.000000 3.141593
 72 15.708953 0.000001 0.000000 -0.051525 0.003996 0.061523
 73 0.275148 0.189215 -3.445208 3.130898 0.000409 -1.514604
 74 17.210192 0.000000 -0.000000 -0.000000 -0.000000 -1.893339
 75 -0.000000 -0.000000 -4.999999 -0.079433 1.546568 -1.570857
 76 0.000002 -0.000003 -3.619081 0.577895 2.675801 -0.242118
 77 16.573921 -0.000001 -0.000002 -0.000000 -0.000000 -1.163030
 78 15.128181 0.000001 0.000001 0.089479 0.309197 0.659208
 79 5.758666 4.244730 -0.000001 -0.000000 -0.000000 1.815142
 80 4.003934 -0.000000 0.000001 0.000000 0.000000 0.000000
 81 15.708953 0.000001 0.000001 0.042277 0.226871 0.443133
 82 0.273998 0.191089 3.439763 -3.130907 -0.000437 -1.508107
 83 17.210194 -0.000001 -0.000002 0.000000 -0.000000 -1.937080
 84 -0.000000 -0.000001 5.000000 -0.079319 1.595025 -1.570742
time 5
  0 -0.650000 0.000000 33.899605 -0.025849 0.174554 -1.569172
  1 5.685103 0.833236 -32.227173 -0.174512 -0.026131 1.569196
  2 -2.276935 0.000003 -1.238188 -1.570795 -1.570451 0.000000
  3 1.796955 0.711898 0.000789 -0.246844 0.161542 -0.099506
  4 4.118717 -0.003207 0.000677 -0.208045 -0.046117 0.045466
  5 4.118721 -0.003208 0.000677 -0.208556 -0.081771 0.053044
  6 4.118716 -0.003206 0.000677 -0.208046 -0.046135 0.045379
  7 4.119168 -0.001901 -0.002931 0.984651 0.105536 0.445739
  8 4.443601 0.000000 -0.000001 -0.117061 -0.291920 0.004663
  9 9.024061 -0.000001 0.000000 0.000000 0.000000 0.000000
 10 -0.182525 1.438998 0.953131 1.127090 -0.326945 1.527377
 11 6.384777 -0.000001 -0.000001 -0.749740 1.217876 -0.495857
 12 10.242684 0.000000 0.000000 -0.000000 0.000000 -1.693123
 13 11.375561 -0.000001 0.000001 -2.873361 0.208296 -0.103996
 14 0.728681 0.023433 -1.008293 1.202975 0.409398 0.881725
 15 2.136495 0.000001 0.000000 0.000000 -0.000000 -0.078540
 16 2.313139 -0.000000 -0.000000 0.000000 0.000000 0.000000
 17 3.115507 -0.886038 -0.021432 -0.166499 0.000392 0.514872
 18 2.011153 0.000002 -0.000001 -0.000000 0.000000 1.322792
 19 2.141378 0.000001 -0.000000 0.000000 0.000000 0.000000
 20 1.734175 0.000002 -0.000002 -0.000000 0.000000 0.660693
 21 0.000008 -4.440593 0.000001 1.570544 -0.062990 -0.195737
 22 6.000000 -0.000002 0.000000 -2.582373 -0.000000 0.000000
 23 0.000001 -4.440599 -0.000000 1.569944 -0.062987 0.004053
 24 11.375561 -0.000001 0.000004 -2.214541 0.137717 -0.017714
 25 -0.000000 -4.440605 0.000000 1.570144 -0.062988 0.004040
 26 10.510133 0.000000 0.000000 0.000000 -0.000000 -2.417358
 27 0.000001 -1.748401 4.999999 0.000000 0.004007 1.602291
 28 5.500002 0.000000 0.000000 0.196144 -0.000000 -0.000000
 29 -0.000004 -1.940598 5.000000 -0.044472 0.004003 -0.000180
 30 6.551492 -0.000001 -0.000003 -0.397496 0.818656 -0.048985
 31 -0.000001 -1.940599 5.000000 -0.027189 -0.053376 0.005295
 32 6.551492 -0.000001 -0.000003 -0.160143 0.374844 0.022300
 33 0.000001 -1.940599 4.999996 -0.066572 -0.152786 -0.110311
 34 0.182531 -1.431922 -0.953132 -1.263312 2.070337 1.507297
 35 6.384776 0.000000 -0.000000 -0.806947 -0.667414 0.380738
 36 10.242683 -0.000000 -0.000000 -0.000000 -0.000000 -2.061782
 37 11.375560 -0.000001 -0.000001 1.620333 0.120639 -0.495150
 38 0.728681 0.023432 1.008292 -1.579583 -0.319038 0.212973
 39 2.136495 0.000003 0.000000 -0.000000 -0.000000 1.282817
 40 2.313138 -0.000002 0.000000 0.000000 0.000000 3.141593
 41 3.115507 -0.886040 0.021431 0.420766 0.316066 0.167178
 42 2.011151 0.000000 0.000001 -0.000000 0.000000 2.082010
 43 2.141379 -0.000000 0.000000 0.000000 0.000000 3.141593
 44 1.734172 -0.000000 0.000000 0.000000 0.000000 1.041748
 45 0.136316 -3.738192 2.525892 1.493698 2.759406 -1.474501
 46 29.831057 -1.859321 -2.180628 0.219518 -0.013465 1.468817
 47 -0.319471 8.644890 1.613179 -1.569415 -0.026309 0.036285
 48 11.389367 -0.000819 0.158781 1.601404 0.061105 -0.264653
 49 0.000000 -4.440598 0.000001 1.570144 -3.078602 0.004040
 50 5.999999 -0.000001 -0.000001 1.601404 -0.000000 0.000000
 51 0.000001 -4.440600 0.000001 1.569944 -3.078603 0.004053
 52 10.510134 0.000000 0.000001 0.000000 -0.000000 -2.601687
 53 -0.000000 -1.748398 -5.000000 -3.141593 0.004007 -1.539299
 54 5.500000 0.000001 -0.000000 0.244639 0.000000 -0.000000
 55 -0.000000 -0.000001 -4.999999 -0.044472 3.137589 -0.000177
 56 6.551490 0.000000 -0.000001 -0.244639 -0.260151 0.052269
 57 -1.266843 -1.937444 -4.950561 -0.066572 -2.988806 -0.110308
 58 6.551491 0.000000 -0.000001 -0.244639 -0.260151 0.052269
 59 0.699369 -1.944207 -5.006850 -0.027189 -3.088217 0.005298
 60 4.226146 -0.003201 0.000000 0.486288 0.116563 0.224150
 61 0.000001 5.000000 0.000000 -0.153564 0.000087 2.718702
 62 0.000004 -0.000005 -3.713580 0.365818 2.880119 -0.191589
 63 0.000002 0.000000 5.000000 3.053196 1.558589 -0.074928
 64 -0.000007 0.000005 3.713580 -0.001619 -3.122277 -0.475127
 65 0.000002 -0.000000 -5.000000 -0.088726 1.558589 3.066335
 66 7.363602 1.646647 0.495663 3.141593 -1.570796 0.000000
 67 -0.000005 0.000006 3.619081 0.008255 -3.110080 -0.985231
 68 16.573919 0.000001 -0.000000 -0.000000 -0.000000 -1.065827
 69 15.128181 0.000000 0.000000 -0.102296 0.010178 0.114297
 70 5.758665 4.244730 0.000000 0.000000 0.000000 1.667687
 71 3.177726 0.000000 0.000000 0.000000 0.000000 3.141593
 72 15.708953 0.000001 0.000000 -0.051525 0.003996 0.061523
 73 0.275148 0.189215 -3.445208 3.130898 0.000409 -1.514604
 74 17.210192 0.000000 -0.000000 -0.000000 -0.000000 -1.893339
 75 -0.000000 -0.000000 -4.999999 -0.079433 1.546568 -1.570857
 76 0.000002 -0.000003 -3.619081 0.577895 2.675801 -0.242118
 77 16.573921 -0.000001 -0.000002 -0.000000 -0.000000 -1.163030
 78 15.128181 0.000001 0.000001 0.089479 0.309197 0.659208
 79 5.758666 4.244730 -0.000001 -0.000000 -0.000000 1.815142
 80 4.003934 -0.000000 0.000001 0.000000 0.000000 0.000000
 81 15.708953 0.000001 0.000001 0.042277 0.226871 0.443133
 82 0.273998 0.191089 3.439763 -3.130907 -0.000437 -1.508107
 83 17.210194 -0.000001 -0.000002 0.000000 -0.000000 -1.937080
 84 -0.000000 -0.000001 5.000000 -0.079319 1.595025 -1.570742
time 6
  0 -0.650000 0.000000 33.899605 -0.025849 0.174554 -1.569172
  1 5.685103 0.833236 -32.227173 -0.174512 -0.026131 1.569196
  2 -2.276935 0.000003 -1.238188 -1.570795 -1.570451 0.000000
  3 1.796955 0.711898 0.000789 -0.246844 0.161542 -0.099506
  4 4.118717 -0.003207 0.000677 -0.208045 -0.046117 0.045466
  5 4.118721 -0.003208 0.000677 -0.208556 -0.081771 0.053044
  6 4.118716 -0.003206 0.000677 -0.208046 -0.046135 0.045379
  7 4.119168 -0.001901 -0.002931 0.984651 0.105536 0.445739
  8 4.443601 0.000000 -0.000001 -0.117061 -0.291920 0.004663
  9 9.024061 -0.000001 0.000000 0.000000 0.000000 0.000000
 10 -0.182525 1.438998 0.953131 1.127090 -0.326945 1.527377
 11 6.384777 -0.000001 -0.000001 -0.875690 1.194910 -0.587412
 12 10.242681 -0.000000 0.000001 -0.000000 -0.000000 -1.630741
 13 11.375562 0.000002 0.000001 -2.892089 0.247491 -0.136240
 14 0.728680 0.023430 -1.008293 1.202975 0.409399 0.881725
 15 2.136496 0.000000 -0.000000 0.000000 -0.000000 -0.078540
 16 2.313138 0.000000 -0.000000 0.000000 0.000000 0.000000
 17 3.115506 -0.886041 -0.021433 -0.166499 0.000392 0.514872
 18 2.011148 -0.000001 -0.000000 -0.000000 0.000000 1.322792
 19 2.141380 0.000001 -0.000001 0.000000 0.000000 0.000000
 20 1.734171 0.000001 -0.000001 0.000000 -0.000000 0.660693
 21 0.000003 -4.440594 -0.000001 1.570544 -0.062990 -0.195737
 22 6.000000 -0.000001 0.000001 -2.596703 0.000000 -0.000000
 23 0.000003 -4.440601 -0.000000 1.569944 -0.062987 0.004053
 24 11.375561 0.000002 0.000004 -2.220458 0.165229 -0.026873
 25 0.000000 -4.440603 0.000000 1.570144 -0.062988 0.004040
 26 10.510130 -0.000000 0.000000 -0.000000 -0.000000 -2.386167
 27 0.000001 -1.748400 4.999999 0.000000 0.004007 1.602290
 28 5.500000 -0.000000 0.000000 0.221722 0.000000 0.000000
 29 -0.000001 -1.940599 5.000001 -0.044472 0.004003 -0.000180
 30 6.551492 -0.000001 -0.000003 -0.458656 0.821797 -0.083513
 31 0.000000 -1.940599 5.000002 -0.027189 -0.053376 0.005295
 32 6.551492 -0.000001 -0.000003 -0.180221 0.375664 0.015118
 33 -0.000001 -1.940599 4.999998 -0.066572 -0.152786 -0.110311
 34 0.182531 -1.431922 -0.953132 -1.253945 2.010503 1.540690
 35 6.384777 0.000000 -0.000001 -0.771702 -0.687481 0.409416
 36 10.242682 -0.000000 0.000001 -0.000000 0.000000 -2.068614
 37 11.375562 0.000001 -0.000001 1.605846 0.117812 -0.456248
 38 0.728681 0.023431 1.008291 -1.579583 -0.319038 0.212973
 39 2.136496 0.000001 0.000001 0.000000 -0.000000 1.282817
 40 2.313140 -0.000001 0.000001 0.000000 0.000000 3.141593
 41 3.115507 -0.886041 0.021430 0.420766 0.316066 0.167178
 42 2.011151 -0.000000 -0.000003 -0.000000 -0.000000 2.082010
 43 2.141379 0.000000 0.000002 0.000000 0.000000 3.141593
 44 1.734172 -0.000001 0.000001 -0.000000 0.000000 1.041748
 45 0.136315 -3.738193 2.525890 1.493698 2.759406 -1.474501
 46 29.831057 -1.859324 -2.180629 0.219518 -0.013465 1.468817
 47 -0.319471 8.644889 1.613175 -1.569415 -0.026309 0.036285
 48 11.389367 -0.000820 0.158780 1.593491 0.061180 -0.246269
 49 0.000001 -4.440598 -0.000001 1.570144 -3.078602 0.004040
 50 6.000000 -0.000000 -0.000002 1.593491 -0.000000 -0.000000
 51 0.000002 -4.440601 -0.000000 1.569944 -3.078603 0.004053
 52 10.510132 -0.000000 0.000001 -0.000000 0.000000 -2.605103
 53 0.000000 -1.748399 -5.000000 3.141593 0.004007 -1.539299
 54 5.500000 0.000000 0.000001 0.232605 0.000000 -0.000000
 55 0.000001 -0.000001 -4.999999 -0.044472 3.137589 -0.000177
 56 6.551490 0.000000 -0.000001 -0.232605 -0.259946 0.062346
 57 -1.266845 -1.937443 -4.950561 -0.066572 -2.988806 -0.110308
 58 6.551491 0.000000 -0.000001 -0.232605 -0.259946 0.062346
 59 0.699369 -1.944208 -5.006847 -0.027189 -3.088217 0.005298
 60 4.226146 -0.003201 0.000000 0.486288 0.116563 0.224150
 61 0.000001 5.000000 0.000000 -0.153564 0.000087 2.718702
 62 0.000004 -0.000005 -3.713580 0.365818 2.880119 -0.191589
 63 0.000002 0.000000 5.000000 3.053196 1.558589 -0.074928
 64 -0.000007 0.000005 3.713580 -0.001619 -3.122277 -0.475127
 65 0.000002 -0.000000 -5.000000 -0.088726 1.558589 3.066335
 66 7.363602 1.646647 0.495663 3.141593 -1.570796 0.000000
 67 -0.000005 0.000006 3.619081 0.008255 -3.110080 -0.985231
 68 16.573919 0.000001 -0.000000 -0.000000 -0.000000 -1.065827
 69 15.128181 0.000000 0.000000 -0.102296 0.010178 0.114297
 70 5.758665 4.244730 0.000000 0.000000 0.000000 1.667687
 71 3.177726 0.000000 0.000000 0.000000 0.000000 3.141593
 72 15.708953 0.000001 0.000000 -0.051525 0.003996 0.061523
 73 0.275148 0.189215 -3.445208 3.130898 0.000409 -1.514604
 74 17.210192 0.000000 -0.000000 -0.000000 -0.000000 -1.893339
 75 -0.000000 -0.000000 -4.999999 -0.079433 1.546568 -1.570857
 76 0.000002 -0.000003 -3.619081 0.577895 2.675801 -0.242118
 77 16.573921 -0.000001 -0.000002 -0.000000 -0.000000 -1.163030
 78 15.128181 0.000001 0.000001 0.089479 0.309197 0.659208
 79 5.758666 4.244730 -0.000001 -0.000000 -0.000000 1.815142
 80 4.003934 -0.000000 0.000001 0.000000 0.000000 0.000000
 81 15.708953 0.000001 0.000001 0.042277 0.226871 0.443133
 82 0.273998 0.191089 3.439763 -3.130907 -0.000437 -1.508107
 83 17.210194 -0.000001 -0.000002 0.000000 -0.000000 -1.937080
 84 -0.000000 -0.000001 5.000000 -0.079319 1.595025 -1.570742
end
