version 1
nodes
  0 "Bip01"  -1
  1 "Bip01 Footsteps"   0
  2 "Bip01 Pelvis"   0
  3 "Bip01 Spine"   2
  4 "Bip01 Spine1"   3
  5 "Bip01 Spine2"   4
  6 "Bip01 Spine3"   5
  7 "Bip01 Neck"   6
  8 "Bip01 Head"   7
  9 "Dummy21"   8
 10 "Bip01 L Clavicle"   7
 11 "Bip01 L UpperArm"  10
 12 "Bip01 L Forearm"  11
 13 "Bip01 L Hand"  12
 14 "Bip01 L Finger0"  13
 15 "Bip01 L Finger01"  14
 16 "Dummy06"  15
 17 "Bip01 L Finger1"  13
 18 "Bip01 L Finger11"  17
 19 "Dummy03"  18
 20 "-- L knuckle"  17
 21 "-- L knuckle_end"  20
 22 "-- L Forearm twist"  12
 23 "-- L Forearm twist_end"  22
 24 "-- L wrist"  12
 25 "-- L wrist_end"  24
 26 "-- L Elbow"  11
 27 "--L Elbow_end"  26
 28 "-- L bicep twist"  11
 29 "-- L bicep twist_end"  28
 30 "-- L shoulder outside"  10
 31 "-- L shoulder outside_end"  30
 32 "-- L Shoulder inside"  10
 33 "-- L Shoulder inside_end"  32
 34 "Bip01 R Clavicle"   7
 35 "Bip01 R UpperArm"  34
 36 "Bip01 R Forearm"  35
 37 "Bip01 R Hand"  36
 38 "Bip01 R Finger0"  37
 39 "Bip01 R Finger01"  38
 40 "Dummy01"  39
 41 "Bip01 R Finger1"  37
 42 "Bip01 R Finger11"  41
 43 "Dummy02"  42
 44 "-- R knuckle"  41
 45 "Point06"  44
 46 "flash"  37
 47 "Line02"  46
 48 "-- R wrist"  36
 49 "-- R wrist_end"  48
 50 "-- R forearm twist"  36
 51 "-- R forearm twist_end"  50
 52 "-- R Elbow"  35
 53 "--R Elbow_end"  52
 54 "-- R bicep twist"  35
 55 "-- R bicep twist_end"  54
 56 "-- R Shoulder inside"  34
 57 "-- R Shoulder inside_end"  56
 58 "-- R shoulder outside"  34
 59 "-- R shoulder outside_end"  58
 60 "-- Neck smooth"   6
 61 "-- neck smooth end"  60
 62 "-- R Butt"   2
 63 "--R Butt_end"  62
 64 "-- L butt"   2
 65 "--L butt_end"  64
 66 "GIGN01"   2
 67 "Bip01 L Thigh"   2
 68 "Bip01 L Calf"  67
 69 "Bip01 L Foot"  68
 70 "Bip01 L Toe0"  69
 71 "Dummy16"  70
 72 "-- L ankle"  68
 73 "-- L ankleend"  72
 74 "-- L Knee"  67
 75 "--L Knee_end"  74
 76 "Bip01 R Thigh"   2
 77 "Bip01 R Calf"  76
 78 "Bip01 R Foot"  77
 79 "Bip01 R Toe0"  78
 80 "Dummy11"  79
 81 "-- R Ankle"  77
 82 "-- R ankleend"  81
 83 "-- R Knee"  76
 84 "--R Knee_end"  83
end
skeleton
time 0
  0 -0.650000 0.000000 33.899605 -0.025849 0.174554 -1.569172
  1 5.685103 0.833236 -32.227169 -0.174512 -0.026131 1.569196
  2 -2.276935 0.000003 -1.238188 -1.570795 -1.570451 0.000000
  3 1.796615 0.711842 -0.000155 0.048647 0.288207 -0.148287
  4 4.118629 -0.003268 -0.000273 0.083470 -0.085229 0.001689
  5 4.118631 -0.003268 -0.000272 0.083963 -0.141519 -0.003038
  6 4.118629 -0.003268 -0.000273 0.083470 -0.085222 0.001601
  7 4.118662 -0.001924 -0.002969 1.033383 0.215882 0.375386
  8 4.443599 0.000000 0.000000 -0.041394 -0.429868 0.397425
  9 9.024062 -0.000001 -0.000000 0.000000 0.000000 0.000000
 10 -0.371165 1.457454 0.866421 1.022617 -0.475789 1.914643
 11 6.384775 0.000000 -0.000000 0.010534 1.229692 0.302946
 12 10.242682 -0.000000 -0.000001 0.000000 0.000000 -1.549330
 13 11.375561 -0.000002 -0.000002 -2.929446 0.079951 -0.364019
 14 0.728681 0.023431 -1.008291 1.202975 0.409398 0.881725
 15 2.136494 0.000000 0.000000 -0.000000 0.000000 -0.078540
 16 2.313140 0.000000 -0.000001 0.000000 0.000000 0.000000
 17 3.115506 -0.886042 -0.021430 -0.166499 0.000392 0.514872
 18 2.011149 0.000000 0.000000 0.000000 0.000000 1.322792
 19 2.141377 0.000001 -0.000000 0.000000 0.000000 0.000000
 20 1.734172 0.000002 -0.000001 0.000000 0.000000 0.660693
 21 0.000006 -4.440593 0.000001 1.570544 -0.062990 -0.195737
 22 6.000000 0.000000 -0.000001 -2.638079 -0.000000 0.000000
 23 0.000001 -4.440599 -0.000002 1.569944 -0.062987 0.004053
 24 11.375561 -0.000001 0.000001 -2.246069 0.119145 -0.184544
 25 -0.000002 -4.440605 0.000004 1.570144 -0.062988 0.004040
 26 10.510129 0.000000 -0.000001 0.000000 -0.000000 -2.345461
 27 -0.000001 -1.748400 4.999998 -0.000000 0.004007 1.602290
 28 5.499999 0.000000 -0.000000 0.098121 0.000000 0.000000
 29 -0.000001 -1.940599 5.000001 -0.044472 0.004003 -0.000180
 30 6.551491 0.000000 -0.000003 -0.137242 0.798620 0.238996
 31 0.000001 -1.940598 4.999999 -0.027189 -0.053376 0.005295
 32 6.551491 0.000000 -0.000003 -0.084759 0.364252 0.114401
 33 0.000001 -1.940599 4.999995 -0.066572 -0.152786 -0.110311
 34 0.371169 -1.450378 -0.866420 -1.320737 2.250902 1.508636
 35 6.384775 0.000000 -0.000002 -0.808717 -0.603574 -0.327610
 36 10.242681 0.000000 -0.000000 0.000000 -0.000000 -1.617902
 37 11.375561 0.000001 0.000001 1.877009 0.174836 -0.584265
 38 0.728681 0.023431 1.008293 -1.579583 -0.319038 0.212973
 39 2.136496 0.000002 -0.000000 -0.000000 -0.000000 1.282817
 40 2.313141 0.000002 0.000001 0.000000 0.000000 3.141593
 41 3.115507 -0.886041 0.021433 0.420766 0.316066 0.167178
 42 2.011151 0.000001 -0.000001 -0.000000 0.000000 2.082010
 43 2.141379 -0.000000 -0.000001 0.000000 0.000000 3.141593
 44 1.734172 -0.000001 -0.000001 0.000000 -0.000000 1.041748
 45 0.136315 -3.738192 2.525888 1.493698 2.759406 -1.474501
 46 29.831053 -1.859321 -2.180629 0.219518 -0.013465 1.468817
 47 -0.319471 8.644890 1.613174 -1.569415 -0.026309 0.036285
 48 11.389367 -0.000818 0.158782 1.734588 0.066327 -0.309736
 49 -0.000000 -4.440600 0.000001 1.570144 -3.078602 0.004040
 50 6.000000 -0.000001 -0.000000 1.734588 -0.000000 0.000000
 51 0.000002 -4.440601 -0.000001 1.569944 -3.078603 0.004053
 52 10.510131 -0.000001 0.000002 -0.000000 -0.000000 -2.379747
 53 0.000001 -1.748400 -5.000001 3.141593 0.004007 -1.539299
 54 5.499998 0.000000 0.000001 0.237638 0.000000 -0.000000
 55 0.000001 0.000000 -5.000000 -0.044472 3.137590 -0.000177
 56 6.551490 0.000000 -0.000002 -0.237638 -0.182042 -0.172746
 57 -1.266843 -1.937443 -4.950560 -0.066572 -2.988806 -0.110308
 58 6.551490 0.000000 -0.000002 -0.237638 -0.182042 -0.172746
 59 0.699370 -1.944208 -5.006847 -0.027189 -3.088217 0.005298
 60 4.226146 -0.003201 -0.000000 0.504233 0.167998 0.170818
 61 -0.000000 5.000000 -0.000001 -0.153564 0.000087 2.718702
 62 0.000004 -0.000005 -3.713580 0.365818 2.880119 -0.191589
 63 0.000002 0.000000 5.000000 3.053196 1.558589 -0.074928
 64 -0.000007 0.000005 3.713580 -0.001619 -3.122277 -0.475127
 65 0.000003 -0.000001 -5.000000 -0.088726 1.558589 3.066335
 66 7.363602 1.646647 0.495663 3.141593 -1.570796 0.000000
 67 -0.000005 0.000006 3.619081 0.008255 -3.110080 -0.985232
 68 16.573919 0.000001 0.000000 0.000000 0.000000 -1.065827
 69 15.128181 0.000001 0.000000 -0.102296 0.010178 0.114297
 70 5.758665 4.244730 -0.000000 0.000000 0.000000 1.667687
 71 3.177726 0.000000 -0.000000 0.000000 0.000000 3.141593
 72 15.708953 0.000001 0.000000 -0.051526 0.003996 0.061523
 73 0.275148 0.189215 -3.445208 3.130898 0.000409 -1.514604
 74 17.210194 -0.000001 0.000000 -0.000000 -0.000000 -1.893339
 75 0.000001 0.000000 -4.999999 -0.079430 1.546568 -1.570855
 76 0.000002 -0.000003 -3.619081 0.577895 2.675801 -0.242118
 77 16.573921 -0.000001 -0.000002 -0.000000 -0.000000 -1.163030
 78 15.128181 0.000001 0.000001 0.089479 0.309197 0.659208
 79 5.758666 4.244730 -0.000001 -0.000000 -0.000000 1.815142
 80 4.003934 -0.000000 0.000001 0.000000 0.000000 0.000000
 81 15.708953 0.000001 0.000001 0.042277 0.226871 0.443133
 82 0.273998 0.191089 3.439763 -3.130907 -0.000437 -1.508107
 83 17.210194 -0.000001 -0.000002 0.000000 -0.000000 -1.937080
 84 -0.000000 -0.000001 5.000000 -0.079319 1.595025 -1.570742
time 1
  0 -0.650000 0.000000 33.899605 -0.025849 0.174554 -1.569172
  1 5.685103 0.833236 -32.227169 -0.174512 -0.026131 1.569196
  2 -2.276935 0.000003 -1.238188 -1.570795 -1.570451 0.000000
  3 1.796615 0.711843 -0.000162 0.050516 0.263518 -0.149047
  4 4.118633 -0.003268 -0.000280 0.085613 -0.077750 0.002172
  5 4.118630 -0.003267 -0.000280 0.086030 -0.129040 -0.002221
  6 4.118628 -0.003268 -0.000280 0.085613 -0.077743 0.002084
  7 4.118793 -0.001922 -0.002966 1.021852 0.187984 0.392592
  8 4.443600 -0.000000 -0.000000 -0.021498 -0.436379 0.324227
  9 9.024061 0.000001 -0.000000 0.000000 0.000000 0.000000
 10 -0.323808 1.455637 0.888187 1.017142 -0.489964 1.884589
 11 6.384776 0.000000 -0.000004 -0.043327 1.228005 0.242292
 12 10.242682 -0.000000 -0.000001 0.000000 -0.000000 -1.521867
 13 11.375561 -0.000005 -0.000002 -2.940357 0.084792 -0.374685
 14 0.728681 0.023431 -1.008292 1.202975 0.409398 0.881725
 15 2.136496 -0.000001 0.000001 -0.000000 -0.000000 -0.078540
 16 2.313139 0.000001 -0.000001 0.000000 0.000000 0.000000
 17 3.115507 -0.886041 -0.021431 -0.166499 0.000392 0.514872
 18 2.011150 0.000002 -0.000002 -0.000000 0.000000 1.322792
 19 2.141380 -0.000000 0.000000 0.000000 0.000000 0.000000
 20 1.734170 0.000001 -0.000001 0.000000 -0.000000 0.660693
 21 0.000008 -4.440593 0.000000 1.570544 -0.062990 -0.195737
 22 6.000000 -0.000000 -0.000001 -2.647568 0.000000 -0.000000
 23 0.000001 -4.440602 -0.000001 1.569944 -0.062987 0.004053
 24 11.375561 -0.000000 0.000001 -2.251095 0.124382 -0.188688
 25 -0.000001 -4.440603 0.000000 1.570144 -0.062988 0.004040
 26 10.510131 0.000000 -0.000001 0.000000 0.000000 -2.331730
 27 0.000000 -1.748401 4.999999 0.000000 0.004007 1.602290
 28 5.499999 0.000000 -0.000000 0.103909 -0.000000 0.000000
 29 -0.000002 -1.940598 5.000000 -0.044472 0.004003 -0.000180
 30 6.551491 0.000000 -0.000003 -0.153252 0.796144 0.217637
 31 -0.000001 -1.940599 5.000004 -0.027189 -0.053376 0.005295
 32 6.551491 0.000000 -0.000003 -0.089191 0.363492 0.107241
 33 -0.000002 -1.940599 5.000000 -0.066572 -0.152786 -0.110311
 34 0.323811 -1.448560 -0.888189 -1.316611 2.205699 1.497322
 35 6.384775 0.000000 -0.000003 -0.805234 -0.610148 -0.290367
 36 10.242682 -0.000001 -0.000001 -0.000000 -0.000000 -1.627911
 37 11.375561 0.000001 0.000002 1.860372 0.178057 -0.569868
 38 0.728681 0.023431 1.008295 -1.579583 -0.319038 0.212973
 39 2.136497 0.000000 0.000000 -0.000000 0.000000 1.282817
 40 2.313138 -0.000000 0.000001 0.000000 0.000000 3.141593
 41 3.115507 -0.886041 0.021434 0.420765 0.316066 0.167178
 42 2.011150 0.000001 0.000000 -0.000000 0.000000 2.082010
 43 2.141379 0.000000 0.000000 0.000000 0.000000 3.141593
 44 1.734172 -0.000001 0.000000 0.000000 -0.000000 1.041748
 45 0.136316 -3.738193 2.525892 1.493698 2.759406 -1.474501
 46 29.831055 -1.859321 -2.180623 0.219518 -0.013465 1.468817
 47 -0.319471 8.644888 1.613176 -1.569415 -0.026309 0.036285
 48 11.389366 -0.000818 0.158784 1.725994 0.070282 -0.302888
 49 -0.000000 -4.440600 0.000004 1.570144 -3.078602 0.004040
 50 5.999999 -0.000001 0.000000 1.725994 -0.000000 -0.000000
 51 0.000001 -4.440601 -0.000000 1.569944 -3.078603 0.004053
 52 10.510129 -0.000001 0.000000 0.000000 0.000000 -2.384752
 53 0.000000 -1.748402 -5.000002 -3.141593 0.004007 -1.539299
 54 5.499997 -0.000000 -0.000001 0.234463 -0.000000 -0.000000
 55 -0.000001 -0.000000 -5.000001 -0.044472 3.137589 -0.000177
 56 6.551490 -0.000000 -0.000000 -0.234463 -0.193709 -0.161784
 57 -1.266843 -1.937443 -4.950559 -0.066572 -2.988806 -0.110308
 58 6.551491 0.000000 -0.000000 -0.234463 -0.193709 -0.161784
 59 0.699370 -1.944208 -5.006846 -0.027189 -3.088217 0.005298
 60 4.226147 -0.003201 -0.000000 0.500176 0.155051 0.184379
 61 0.000001 5.000000 -0.000000 -0.153564 0.000087 2.718702
 62 0.000004 -0.000005 -3.713580 0.365818 2.880119 -0.191589
 63 0.000002 0.000000 5.000000 3.053196 1.558589 -0.074928
 64 -0.000007 0.000005 3.713580 -0.001619 -3.122277 -0.475127
 65 0.000003 -0.000001 -5.000000 -0.088726 1.558589 3.066335
 66 7.363602 1.646647 0.495663 3.141593 -1.570796 0.000000
 67 -0.000005 0.000006 3.619081 0.008255 -3.110080 -0.985232
 68 16.573917 0.000001 0.000000 0.000000 -0.000000 -1.065827
 69 15.128181 0.000001 0.000000 -0.102296 0.010178 0.114297
 70 5.758665 4.244730 -0.000000 0.000000 0.000000 1.667687
 71 3.177726 0.000000 -0.000000 0.000000 0.000000 3.141593
 72 15.708953 0.000001 0.000000 -0.051525 0.003996 0.061523
 73 0.275148 0.189215 -3.445207 3.130898 0.000409 -1.514604
 74 17.210192 -0.000001 0.000000 -0.000000 -0.000000 -1.893339
 75 -0.000000 -0.000000 -4.999999 -0.079430 1.546568 -1.570856
 76 0.000002 -0.000003 -3.619081 0.577895 2.675801 -0.242118
 77 16.573921 -0.000001 -0.000002 -0.000000 -0.000000 -1.163030
 78 15.128181 0.000001 0.000001 0.089479 0.309197 0.659208
 79 5.758666 4.244730 -0.000001 -0.000000 -0.000000 1.815142
 80 4.003934 -0.000000 0.000001 0.000000 0.000000 0.000000
 81 15.708953 0.000001 0.000001 0.042277 0.226871 0.443133
 82 0.273998 0.191089 3.439763 -3.130907 -0.000437 -1.508107
 83 17.210194 -0.000001 -0.000002 0.000000 -0.000000 -1.937080
 84 -0.000000 -0.000001 5.000000 -0.079319 1.595025 -1.570742
time 2
  0 -0.650000 0.000000 33.899605 -0.025849 0.174554 -1.569172
  1 5.685103 0.833236 -32.227169 -0.174512 -0.026131 1.569196
  2 -2.276935 0.000003 -1.238188 -1.570795 -1.570451 0.000000
  3 1.796611 0.711843 -0.000169 0.052394 0.238830 -0.149850
  4 4.118633 -0.003267 -0.000286 0.087758 -0.070272 0.002671
  5 4.118631 -0.003267 -0.000287 0.088104 -0.116563 -0.001379
  6 4.118635 -0.003267 -0.000287 0.087758 -0.070264 0.002583
  7 4.118916 -0.001917 -0.002958 1.009892 0.160286 0.410039
  8 4.443599 0.000001 0.000000 -0.000923 -0.441768 0.250586
  9 9.024062 -0.000000 -0.000000 0.000000 0.000000 0.000000
 10 -0.276545 1.451952 0.909913 1.012114 -0.504278 1.854392
 11 6.384776 0.000001 0.000002 -0.097114 1.225499 0.181684
 12 10.242684 -0.000000 0.000000 -0.000000 -0.000000 -1.494371
 13 11.375562 -0.000002 0.000001 -2.951137 0.089598 -0.385424
 14 0.728680 0.023430 -1.008291 1.202975 0.409399 0.881725
 15 2.136497 -0.000001 0.000000 -0.000000 -0.000000 -0.078540
 16 2.313139 0.000000 0.000000 0.000000 0.000000 0.000000
 17 3.115506 -0.886040 -0.021433 -0.166499 0.000392 0.514872
 18 2.011150 0.000001 0.000001 0.000000 0.000000 1.322792
 19 2.141380 -0.000001 0.000000 0.000000 0.000000 0.000000
 20 1.734172 0.000001 -0.000001 0.000000 -0.000000 0.660693
 21 0.000007 -4.440594 -0.000001 1.570544 -0.062990 -0.195737
 22 6.000000 0.000003 0.000000 -2.656961 -0.000000 -0.000000
 23 0.000001 -4.440600 0.000002 1.569944 -0.062987 0.004053
 24 11.375562 0.000002 0.000003 -2.256033 0.129617 -0.192824
 25 -0.000001 -4.440602 0.000000 1.570144 -0.062988 0.004040
 26 10.510129 0.000000 0.000001 0.000000 0.000000 -2.317982
 27 -0.000001 -1.748400 4.999997 0.000000 0.004007 1.602291
 28 5.500001 0.000000 0.000000 0.109808 -0.000000 -0.000000
 29 0.000001 -1.940598 5.000000 -0.044472 0.004003 -0.000180
 30 6.551490 0.000000 0.000002 -0.169512 0.793581 0.195805
 31 -0.000001 -1.940598 5.000000 -0.027189 -0.053376 0.005295
 32 6.551490 0.000000 0.000002 -0.093709 0.362732 0.099857
 33 0.000001 -1.940599 4.999996 -0.066572 -0.152786 -0.110311
 34 0.276547 -1.444874 -0.909913 -1.310657 2.160509 1.487379
 35 6.384776 -0.000001 -0.000001 -0.802076 -0.616569 -0.252683
 36 10.242682 -0.000001 0.000000 0.000000 0.000000 -1.638282
 37 11.375561 -0.000000 0.000001 1.843943 0.181489 -0.555910
 38 0.728681 0.023431 1.008292 -1.579583 -0.319038 0.212973
 39 2.136497 -0.000002 -0.000001 0.000000 -0.000000 1.282817
 40 2.313140 -0.000000 0.000001 0.000000 0.000000 3.141593
 41 3.115507 -0.886042 0.021433 0.420765 0.316066 0.167178
 42 2.011151 0.000001 -0.000000 -0.000000 0.000000 2.082010
 43 2.141379 -0.000000 -0.000001 0.000000 0.000000 3.141593
 44 1.734172 -0.000001 -0.000000 0.000000 -0.000000 1.041748
 45 0.136315 -3.738193 2.525890 1.493698 2.759406 -1.474501
 46 29.831057 -1.859322 -2.180623 0.219518 -0.013465 1.468817
 47 -0.319472 8.644889 1.613176 -1.569415 -0.026309 0.036285
 48 11.389367 -0.000820 0.158782 1.717542 0.074243 -0.296219
 49 0.000000 -4.440600 -0.000002 1.570144 -3.078602 0.004040
 50 6.000000 -0.000001 -0.000000 1.717542 -0.000000 0.000000
 51 0.000001 -4.440602 0.000000 1.569944 -3.078603 0.004053
 52 10.510131 -0.000000 0.000001 -0.000000 -0.000000 -2.389937
 53 -0.000000 -1.748397 -5.000001 3.141593 0.004007 -1.539299
 54 5.500001 -0.000001 0.000001 0.232124 -0.000000 0.000000
 55 0.000001 -0.000001 -5.000000 -0.044472 3.137590 -0.000177
 56 6.551490 -0.000001 -0.000001 -0.232124 -0.204675 -0.150608
 57 -1.266842 -1.937443 -4.950558 -0.066572 -2.988806 -0.110308
 58 6.551491 -0.000001 -0.000001 -0.232124 -0.204675 -0.150608
 59 0.699371 -1.944209 -5.006845 -0.027189 -3.088217 0.005298
 60 4.226142 -0.003201 0.000000 0.495824 0.142148 0.197793
 61 0.000000 5.000000 -0.000000 -0.153565 0.000087 2.718702
 62 0.000004 -0.000005 -3.713580 0.365818 2.880119 -0.191589
 63 0.000002 0.000000 5.000000 3.053196 1.558589 -0.074928
 64 -0.000007 0.000005 3.713580 -0.001619 -3.122277 -0.475127
 65 0.000003 -0.000001 -5.000000 -0.088726 1.558589 3.066335
 66 7.363602 1.646647 0.495663 3.141593 -1.570796 0.000000
 67 -0.000005 0.000006 3.619081 0.008255 -3.110080 -0.985232
 68 16.573917 0.000001 -0.000000 0.000000 -0.000000 -1.065827
 69 15.128181 0.000001 0.000000 -0.102296 0.010178 0.114297
 70 5.758665 4.244730 0.000000 0.000000 0.000000 1.667687
 71 3.177726 0.000000 -0.000000 0.000000 0.000000 3.141593
 72 15.708953 0.000001 0.000000 -0.051526 0.003996 0.061523
 73 0.275148 0.189215 -3.445207 3.130898 0.000409 -1.514604
 74 17.210192 -0.000001 0.000000 0.000000 -0.000000 -1.893339
 75 -0.000000 -0.000000 -4.999999 -0.079430 1.546568 -1.570856
 76 0.000002 -0.000003 -3.619081 0.577895 2.675801 -0.242118
 77 16.573921 -0.000001 -0.000002 -0.000000 -0.000000 -1.163030
 78 15.128181 0.000001 0.000001 0.089479 0.309197 0.659208
 79 5.758666 4.244730 -0.000001 -0.000000 -0.000000 1.815142
 80 4.003934 -0.000000 0.000001 0.000000 0.000000 0.000000
 81 15.708953 0.000001 0.000001 0.042277 0.226871 0.443133
 82 0.273998 0.191089 3.439763 -3.130907 -0.000437 -1.508107
 83 17.210194 -0.000001 -0.000002 0.000000 -0.000000 -1.937080
 84 -0.000000 -0.000001 5.000000 -0.079319 1.595025 -1.570742
time 3
  0 -0.650000 0.000000 33.899605 -0.025849 0.174554 -1.569172
  1 5.685103 0.833236 -32.227169 -0.174512 -0.026131 1.569196
  2 -2.276935 0.000003 -1.238188 -1.570795 -1.570451 0.000000
  3 1.796610 0.711844 -0.000176 0.054281 0.214144 -0.150697
  4 4.118637 -0.003266 -0.000293 0.089907 -0.062795 0.003186
  5 4.118625 -0.003266 -0.000294 0.090185 -0.104087 -0.000512
  6 4.118639 -0.003266 -0.000294 0.089907 -0.062787 0.003097
  7 4.119040 -0.001910 -0.002946 0.997495 0.132800 0.427747
  8 4.443601 -0.000000 0.000000 0.020235 -0.445985 0.176558
  9 9.024061 0.000000 -0.000000 0.000000 0.000000 0.000000
 10 -0.229428 1.446403 0.931572 1.007545 -0.518720 1.824033
 11 6.384776 0.000001 0.000001 -0.150612 1.222149 0.121358
 12 10.242681 -0.000000 0.000000 -0.000000 0.000000 -1.466838
 13 11.375561 -0.000001 -0.000000 -2.961800 0.094373 -0.396238
 14 0.728680 0.023432 -1.008291 1.202975 0.409398 0.881725
 15 2.136497 0.000002 -0.000000 -0.000000 0.000000 -0.078540
 16 2.313140 -0.000000 0.000000 0.000000 0.000000 0.000000
 17 3.115507 -0.886041 -0.021431 -0.166499 0.000392 0.514872
 18 2.011150 0.000001 0.000003 0.000000 0.000000 1.322792
 19 2.141381 0.000000 -0.000001 0.000000 0.000000 0.000000
 20 1.734172 0.000001 -0.000000 0.000000 -0.000000 0.660693
 21 0.000008 -4.440595 -0.000000 1.570544 -0.062990 -0.195737
 22 6.000000 0.000000 -0.000000 -2.666270 -0.000000 -0.000000
 23 0.000001 -4.440602 -0.000001 1.569944 -0.062987 0.004053
 24 11.375561 -0.000001 0.000002 -2.260889 0.134853 -0.196947
 25 -0.000001 -4.440604 0.000001 1.570144 -0.062988 0.004040
 26 10.510132 0.000000 -0.000000 0.000000 0.000000 -2.304215
 27 -0.000001 -1.748401 4.999998 -0.000000 0.004007 1.602290
 28 5.500002 0.000000 0.000000 0.115820 0.000000 -0.000000
 29 -0.000001 -1.940598 5.000001 -0.044472 0.004003 -0.000180
 30 6.551491 0.000000 -0.000000 -0.186023 0.790887 0.173497
 31 0.000000 -1.940599 5.000001 -0.027189 -0.053376 0.005295
 32 6.551491 0.000000 -0.000000 -0.098315 0.361957 0.092245
 33 -0.000000 -1.940599 4.999999 -0.066572 -0.152786 -0.110311
 34 0.229435 -1.439327 -0.931570 -1.302499 2.115363 1.479181
 35 6.384776 -0.000001 -0.000002 -0.799263 -0.622812 -0.214541
 36 10.242682 -0.000000 0.000001 0.000000 0.000000 -1.649024
 37 11.375562 0.000002 0.000001 1.827745 0.185117 -0.542379
 38 0.728680 0.023430 1.008291 -1.579583 -0.319038 0.212973
 39 2.136497 0.000002 0.000000 -0.000000 -0.000000 1.282817
 40 2.313139 -0.000001 0.000001 0.000000 0.000000 3.141593
 41 3.115506 -0.886042 0.021432 0.420765 0.316066 0.167178
 42 2.011151 0.000000 -0.000001 -0.000000 0.000000 2.082010
 43 2.141380 0.000000 0.000001 0.000000 0.000000 3.141593
 44 1.734172 -0.000001 -0.000000 -0.000000 -0.000000 1.041748
 45 0.136314 -3.738193 2.525890 1.493698 2.759406 -1.474501
 46 29.831055 -1.859324 -2.180627 0.219518 -0.013465 1.468817
 47 -0.319471 8.644889 1.613176 -1.569415 -0.026309 0.036285
 48 11.389368 -0.000819 0.158782 1.709239 0.078201 -0.289721
 49 0.000000 -4.440600 0.000002 1.570144 -3.078602 0.004040
 50 6.000001 0.000002 0.000001 1.709239 -0.000000 0.000000
 51 0.000001 -4.440601 0.000002 1.569944 -3.078603 0.004053
 52 10.510130 0.000001 0.000000 -0.000000 -0.000000 -2.395308
 53 0.000001 -1.748401 -5.000000 -3.141593 0.004007 -1.539299
 54 5.500001 0.000000 0.000001 0.230607 -0.000000 -0.000000
 55 0.000002 -0.000001 -4.999998 -0.044472 3.137589 -0.000177
 56 6.551491 -0.000000 -0.000000 -0.230607 -0.214851 -0.139205
 57 -1.266842 -1.937443 -4.950560 -0.066572 -2.988806 -0.110308
 58 6.551492 -0.000001 -0.000000 -0.230607 -0.214851 -0.139205
 59 0.699372 -1.944208 -5.006847 -0.027189 -3.088217 0.005298
 60 4.226148 -0.003201 -0.000000 0.491191 0.129312 0.211053
 61 0.000001 5.000001 -0.000001 -0.153565 0.000087 2.718702
 62 0.000004 -0.000005 -3.713580 0.365818 2.880119 -0.191589
 63 0.000002 0.000000 5.000000 3.053196 1.558589 -0.074928
 64 -0.000007 0.000005 3.713580 -0.001619 -3.122277 -0.475127
 65 0.000002 -0.000000 -5.000000 -0.088726 1.558589 3.066335
 66 7.363602 1.646647 0.495663 3.141593 -1.570796 0.000000
 67 -0.000005 0.000006 3.619081 0.008255 -3.110080 -0.985232
 68 16.573919 0.000000 -0.000000 0.000000 -0.000000 -1.065827
 69 15.128183 0.000000 0.000000 -0.102296 0.010178 0.114297
 70 5.758665 4.244730 0.000000 0.000000 0.000000 1.667687
 71 3.177725 0.000000 -0.000000 0.000000 0.000000 3.141593
 72 15.708954 0.000001 0.000000 -0.051526 0.003996 0.061523
 73 0.275148 0.189215 -3.445207 3.130898 0.000409 -1.514604
 74 17.210194 -0.000000 0.000000 -0.000000 -0.000000 -1.893339
 75 0.000001 0.000000 -5.000000 -0.079433 1.546568 -1.570857
 76 0.000002 -0.000003 -3.619081 0.577895 2.675801 -0.242118
 77 16.573921 -0.000001 -0.000002 -0.000000 -0.000000 -1.163030
 78 15.128181 0.000001 0.000001 0.089479 0.309197 0.659208
 79 5.758666 4.244730 -0.000001 -0.000000 -0.000000 1.815142
 80 4.003934 -0.000000 0.000001 0.000000 0.000000 0.000000
 81 15.708953 0.000001 0.000001 0.042277 0.226871 0.443133
 82 0.273998 0.191089 3.439763 -3.130907 -0.000437 -1.508107
 83 17.210194 -0.000001 -0.000002 0.000000 -0.000000 -1.937080
 84 -0.000000 -0.000001 5.000000 -0.079319 1.595025 -1.570742
time 4
  0 -0.650000 0.000000 33.899605 -0.025849 0.174554 -1.569172
  1 5.685104 0.833236 -32.227173 -0.174512 -0.026131 1.569196
  2 -2.276935 0.000003 -1.238188 -1.570795 -1.570451 0.000000
  3 1.796610 0.711844 -0.000183 0.056180 0.189459 -0.151586
  4 4.118636 -0.003266 -0.000300 0.092058 -0.055319 0.003716
  5 4.118631 -0.003266 -0.000301 0.092275 -0.091614 0.000379
  6 4.118628 -0.003265 -0.000301 0.092058 -0.055311 0.003628
  7 4.119168 -0.001901 -0.002931 0.984651 0.105536 0.445739
  8 4.443598 -0.000001 0.000001 0.041873 -0.448986 0.102207
  9 9.024061 -0.000001 -0.000000 0.000000 0.000000 0.000000
 10 -0.182527 1.438997 0.953133 1.003448 -0.533276 1.793494
 11 6.384776 0.000000 -0.000003 -0.203610 1.217938 0.061546
 12 10.242682 0.000000 -0.000000 0.000000 0.000000 -1.439267
 13 11.375562 0.000000 -0.000001 -2.972355 0.099122 -0.407123
 14 0.728681 0.023431 -1.008293 1.202975 0.409398 0.881725
 15 2.136498 0.000000 -0.000000 -0.000000 -0.000000 -0.078540
 16 2.313141 0.000000 -0.000000 0.000000 0.000000 0.000000
 17 3.115506 -0.886040 -0.021430 -0.166499 0.000392 0.514872
 18 2.011151 0.000001 -0.000000 0.000000 0.000000 1.322792
 19 2.141378 0.000000 0.000000 0.000000 0.000000 0.000000
 20 1.734175 0.000003 -0.000000 -0.000000 -0.000000 0.660693
 21 0.000007 -4.440593 0.000000 1.570544 -0.062990 -0.195737
 22 5.999999 0.000001 -0.000002 -2.675504 -0.000000 -0.000000
 23 0.000001 -4.440601 -0.000001 1.569944 -0.062987 0.004053
 24 11.375561 0.000001 0.000001 -2.265669 0.140095 -0.201061
 25 -0.000001 -4.440604 0.000003 1.570144 -0.062988 0.004040
 26 10.510132 0.000001 -0.000000 0.000000 0.000000 -2.290430
 27 -0.000001 -1.748399 5.000000 -0.000000 0.004007 1.602290
 28 5.500002 0.000000 0.000000 0.121943 -0.000000 -0.000000
 29 -0.000005 -1.940598 5.000000 -0.044472 0.004003 -0.000180
 30 6.551491 0.000000 -0.000002 -0.202780 0.788018 0.150717
 31 -0.000001 -1.940598 5.000000 -0.027189 -0.053376 0.005295
 32 6.551491 0.000000 -0.000002 -0.103006 0.361154 0.084407
 33 -0.000001 -1.940599 4.999998 -0.066572 -0.152786 -0.110311
 34 0.182528 -1.431922 -0.953131 -1.291627 2.070297 1.473240
 35 6.384777 0.000000 0.000002 -0.796814 -0.628855 -0.175931
 36 10.242680 0.000000 0.000000 0.000000 0.000000 -1.660144
 37 11.375560 0.000001 -0.000000 1.811802 0.188922 -0.529257
 38 0.728680 0.023431 1.008292 -1.579583 -0.319038 0.212973
 39 2.136496 -0.000001 0.000000 -0.000000 -0.000000 1.282817
 40 2.313139 -0.000000 0.000001 0.000000 0.000000 3.141593
 41 3.115506 -0.886041 0.021431 0.420765 0.316066 0.167178
 42 2.011152 0.000000 -0.000001 -0.000000 0.000000 2.082010
 43 2.141379 0.000001 -0.000001 0.000000 0.000000 3.141593
 44 1.734173 -0.000001 0.000001 -0.000000 -0.000000 1.041748
 45 0.136314 -3.738193 2.525890 1.493698 2.759406 -1.474501
 46 29.831055 -1.859324 -2.180625 0.219518 -0.013465 1.468817
 47 -0.319470 8.644890 1.613174 -1.569415 -0.026309 0.036285
 48 11.389366 -0.000819 0.158781 1.701095 0.082149 -0.283385
 49 0.000000 -4.440601 0.000002 1.570144 -3.078602 0.004040
 50 6.000000 0.000001 0.000000 1.701095 0.000000 0.000000
 51 0.000001 -4.440602 -0.000001 1.569944 -3.078603 0.004053
 52 10.510130 -0.000001 0.000000 -0.000000 0.000000 -2.400868
 53 -0.000000 -1.748398 -5.000000 -3.141593 0.004007 -1.539299
 54 5.499998 -0.000000 -0.000000 0.229872 0.000000 0.000000
 55 0.000001 -0.000001 -4.999998 -0.044472 3.137589 -0.000177
 56 6.551491 0.000000 0.000003 -0.229873 -0.224182 -0.127549
 57 -1.266844 -1.937444 -4.950560 -0.066572 -2.988806 -0.110308
 58 6.551492 0.000000 0.000003 -0.229873 -0.224182 -0.127549
 59 0.699369 -1.944208 -5.006849 -0.027189 -3.088217 0.005298
 60 4.226148 -0.003201 0.000000 0.486288 0.116563 0.224150
 61 -0.000002 5.000000 -0.000001 -0.153564 0.000087 2.718702
 62 0.000004 -0.000005 -3.713580 0.365818 2.880119 -0.191589
 63 0.000002 0.000000 5.000000 3.053196 1.558589 -0.074928
 64 -0.000007 0.000005 3.713580 -0.001619 -3.122277 -0.475127
 65 0.000001 -0.000000 -5.000000 -0.088726 1.558589 3.066335
 66 7.363602 1.646647 0.495663 3.141593 -1.570796 0.000000
 67 -0.000005 0.000006 3.619081 0.008255 -3.110080 -0.985232
 68 16.573919 0.000000 -0.000000 -0.000000 0.000000 -1.065827
 69 15.128183 0.000000 0.000000 -0.102296 0.010178 0.114297
 70 5.758665 4.244730 0.000000 0.000000 0.000000 1.667687
 71 3.177725 0.000000 -0.000000 0.000000 0.000000 3.141593
 72 15.708954 0.000001 0.000000 -0.051526 0.003996 0.061523
 73 0.275148 0.189215 -3.445207 3.130898 0.000409 -1.514604
 74 17.210194 -0.000000 0.000000 -0.000000 -0.000000 -1.893339
 75 0.000001 0.000000 -4.999999 -0.079433 1.546568 -1.570857
 76 0.000002 -0.000003 -3.619081 0.577895 2.675801 -0.242118
 77 16.573921 -0.000001 -0.000002 -0.000000 -0.000000 -1.163030
 78 15.128181 0.000001 0.000001 0.089479 0.309197 0.659208
 79 5.758666 4.244730 -0.000001 -0.000000 -0.000000 1.815142
 80 4.003934 -0.000000 0.000001 0.000000 0.000000 0.000000
 81 15.708953 0.000001 0.000001 0.042277 0.226871 0.443133
 82 0.273998 0.191089 3.439763 -3.130907 -0.000437 -1.508107
 83 17.210194 -0.000001 -0.000002 0.000000 -0.000000 -1.937080
 84 -0.000000 -0.000001 5.000000 -0.079319 1.595025 -1.570742
time 5
  0 -0.650000 0.000000 33.899605 -0.025849 0.174554 -1.569172
  1 5.685104 0.833236 -32.227173 -0.174512 -0.026131 1.569196
  2 -2.276935 0.000003 -1.238188 -1.570795 -1.570451 0.000000
  3 1.796610 0.711844 -0.000183 0.056180 0.189459 -0.151586
  4 4.118636 -0.003266 -0.000300 0.092058 -0.055319 0.003716
  5 4.118631 -0.003266 -0.000301 0.092275 -0.091614 0.000379
  6 4.118628 -0.003265 -0.000301 0.092058 -0.055311 0.003628
  7 4.119168 -0.001901 -0.002931 0.984651 0.105536 0.445739
  8 4.443598 -0.000001 0.000001 0.041873 -0.448986 0.102207
  9 9.024061 -0.000001 -0.000000 0.000000 0.000000 0.000000
 10 -0.182527 1.438997 0.953133 1.003448 -0.533276 1.793494
 11 6.384776 0.000000 -0.000003 -0.263714 1.200825 0.009644
 12 10.242683 0.000000 -0.000001 0.000000 0.000000 -1.407552
 13 11.375561 0.000001 -0.000001 -2.991808 0.108577 -0.417994
 14 0.728680 0.023432 -1.008293 1.202975 0.409398 0.881725
 15 2.136497 0.000001 -0.000000 0.000000 -0.000000 -0.078540
 16 2.313139 -0.000001 0.000000 0.000000 0.000000 0.000000
 17 3.115506 -0.886041 -0.021431 -0.166499 0.000392 0.514872
 18 2.011150 -0.000001 0.000000 0.000000 0.000000 1.322792
 19 2.141380 0.000001 0.000000 0.000000 0.000000 0.000000
 20 1.734173 0.000001 0.000000 -0.000000 -0.000000 0.660693
 21 0.000008 -4.440594 -0.000000 1.570544 -0.062990 -0.195737
 22 6.000000 0.000000 0.000000 -2.692327 0.000000 -0.000000
 23 0.000001 -4.440599 -0.000002 1.569944 -0.062987 0.004053
 24 11.375562 0.000002 0.000002 -2.274491 0.148554 -0.203845
 25 -0.000002 -4.440603 0.000002 1.570144 -0.062988 0.004040
 26 10.510131 0.000001 -0.000002 -0.000000 0.000000 -2.274572
 27 0.000001 -1.748401 4.999998 -0.000000 0.004007 1.602291
 28 5.499999 0.000000 -0.000001 0.131798 0.000000 -0.000000
 29 -0.000001 -1.940598 5.000000 -0.044472 0.004003 -0.000180
 30 6.551491 0.000000 -0.000002 -0.225755 0.779783 0.131962
 31 -0.000000 -1.940598 4.999999 -0.027189 -0.053376 0.005295
 32 6.551491 0.000000 -0.000002 -0.110851 0.357871 0.078809
 33 -0.000001 -1.940599 4.999997 -0.066572 -0.152786 -0.110311
 34 0.182528 -1.431922 -0.953131 -1.274570 2.040288 1.505327
 35 6.384776 0.000000 -0.000001 -0.780510 -0.651742 -0.164531
 36 10.242682 -0.000002 0.000001 -0.000000 -0.000000 -1.653758
 37 11.375560 0.000000 0.000001 1.802910 0.191059 -0.511978
 38 0.728680 0.023430 1.008293 -1.579583 -0.319038 0.212973
 39 2.136496 0.000003 0.000001 -0.000000 0.000000 1.282817
 40 2.313138 -0.000001 0.000000 0.000000 0.000000 3.141593
 41 3.115506 -0.886042 0.021434 0.420765 0.316066 0.167178
 42 2.011151 0.000000 0.000000 -0.000000 0.000000 2.082010
 43 2.141379 0.000000 0.000002 0.000000 0.000000 3.141593
 44 1.734173 -0.000001 0.000000 0.000000 0.000000 1.041748
 45 0.136315 -3.738192 2.525892 1.493698 2.759406 -1.474501
 46 29.831055 -1.859322 -2.180628 0.219518 -0.013465 1.468817
 47 -0.319472 8.644887 1.613177 -1.569415 -0.026309 0.036285
 48 11.389366 -0.000818 0.158782 1.696293 0.084829 -0.275280
 49 0.000000 -4.440599 0.000001 1.570144 -3.078602 0.004040
 50 6.000000 0.000002 0.000000 1.696293 0.000000 -0.000000
 51 0.000003 -4.440600 -0.000002 1.569944 -3.078603 0.004053
 52 10.510132 -0.000002 0.000002 -0.000000 -0.000000 -2.397676
 53 0.000001 -1.748401 -5.000002 3.141593 0.004007 -1.539299
 54 5.500000 -0.000001 0.000002 0.225614 -0.000000 -0.000000
 55 0.000001 0.000001 -5.000000 -0.044472 3.137589 -0.000177
 56 6.551490 0.000000 -0.000001 -0.225614 -0.233010 -0.123605
 57 -1.266845 -1.937443 -4.950559 -0.066572 -2.988806 -0.110308
 58 6.551490 -0.000000 -0.000001 -0.225614 -0.233010 -0.123605
 59 0.699370 -1.944208 -5.006845 -0.027189 -3.088217 0.005298
 60 4.226148 -0.003201 0.000000 0.486288 0.116563 0.224150
 61 -0.000002 5.000000 -0.000001 -0.153564 0.000087 2.718702
 62 0.000004 -0.000005 -3.713580 0.365818 2.880119 -0.191589
 63 0.000002 0.000000 5.000000 3.053196 1.558589 -0.074928
 64 -0.000007 0.000005 3.713580 -0.001619 -3.122277 -0.475127
 65 0.000002 -0.000000 -5.000000 -0.088726 1.558589 3.066335
 66 7.363602 1.646647 0.495663 3.141593 -1.570796 0.000000
 67 -0.000005 0.000006 3.619081 0.008255 -3.110080 -0.985231
 68 16.573919 0.000001 -0.000000 -0.000000 -0.000000 -1.065827
 69 15.128181 0.000000 0.000000 -0.102296 0.010178 0.114297
 70 5.758665 4.244730 0.000000 0.000000 0.000000 1.667687
 71 3.177726 0.000000 0.000000 0.000000 0.000000 3.141593
 72 15.708953 0.000001 0.000000 -0.051525 0.003996 0.061523
 73 0.275148 0.189215 -3.445208 3.130898 0.000409 -1.514604
 74 17.210192 0.000000 -0.000000 -0.000000 -0.000000 -1.893339
 75 -0.000000 -0.000000 -4.999999 -0.079433 1.546568 -1.570857
 76 0.000002 -0.000003 -3.619081 0.577895 2.675801 -0.242118
 77 16.573921 -0.000001 -0.000002 -0.000000 -0.000000 -1.163030
 78 15.128181 0.000001 0.000001 0.089479 0.309197 0.659208
 79 5.758666 4.244730 -0.000001 -0.000000 -0.000000 1.815142
 80 4.003934 -0.000000 0.000001 0.000000 0.000000 0.000000
 81 15.708953 0.000001 0.000001 0.042277 0.226871 0.443133
 82 0.273998 0.191089 3.439763 -3.130907 -0.000437 -1.508107
 83 17.210194 -0.000001 -0.000002 0.000000 -0.000000 -1.937080
 84 -0.000000 -0.000001 5.000000 -0.079319 1.595025 -1.570742
time 6
  0 -0.650000 0.000000 33.899605 -0.025849 0.174554 -1.569172
  1 5.685103 0.833236 -32.227173 -0.174512 -0.026131 1.569196
  2 -2.276935 0.000003 -1.238188 -1.570795 -1.570451 0.000000
  3 1.796610 0.711844 -0.000183 0.056180 0.189459 -0.151586
  4 4.118636 -0.003266 -0.000300 0.092058 -0.055319 0.003716
  5 4.118631 -0.003266 -0.000301 0.092275 -0.091614 0.000379
  6 4.118628 -0.003265 -0.000301 0.092058 -0.055311 0.003628
  7 4.119168 -0.001901 -0.002931 0.984651 0.105536 0.445739
  8 4.443598 -0.000001 0.000001 0.041873 -0.448986 0.102207
  9 9.024061 -0.000001 -0.000000 0.000000 0.000000 0.000000
 10 -0.182527 1.438997 0.953133 1.003448 -0.533276 1.793494
 11 6.384776 0.000000 -0.000003 -0.319747 1.182712 -0.038753
 12 10.242682 0.000000 -0.000001 -0.000000 -0.000000 -1.374532
 13 11.375560 -0.000002 0.000000 -3.010789 0.117936 -0.429741
 14 0.728681 0.023430 -1.008293 1.202975 0.409398 0.881725
 15 2.136499 0.000001 0.000000 -0.000000 0.000000 -0.078540
 16 2.313137 -0.000000 0.000000 0.000000 0.000000 0.000000
 17 3.115507 -0.886040 -0.021432 -0.166499 0.000392 0.514872
 18 2.011153 -0.000001 -0.000000 0.000000 0.000000 1.322792
 19 2.141380 0.000000 -0.000000 0.000000 0.000000 0.000000
 20 1.734174 0.000001 0.000000 -0.000000 0.000000 0.660693
 21 0.000006 -4.440595 -0.000001 1.570544 -0.062990 -0.195737
 22 6.000000 0.000001 0.000000 -2.708805 0.000000 -0.000000
 23 0.000002 -4.440602 -0.000000 1.569944 -0.062987 0.004053
 24 11.375561 -0.000001 0.000003 -2.283006 0.157115 -0.206984
 25 -0.000001 -4.440603 0.000000 1.570144 -0.062988 0.004040
 26 10.510129 0.000000 -0.000000 -0.000000 0.000000 -2.258062
 27 -0.000002 -1.748401 4.999997 -0.000000 0.004007 1.602290
 28 5.499998 0.000000 -0.000000 0.141577 -0.000000 -0.000000
 29 -0.000002 -1.940598 5.000001 -0.044472 0.004003 -0.000180
 30 6.551491 0.000000 -0.000002 -0.248449 0.771417 0.112797
 31 -0.000000 -1.940599 4.999999 -0.027189 -0.053376 0.005295
 32 6.551491 0.000000 -0.000002 -0.118634 0.354592 0.072893
 33 -0.000001 -1.940599 4.999996 -0.066572 -0.152786 -0.110311
 34 0.182528 -1.431922 -0.953131 -1.253945 2.010503 1.540690
 35 6.384776 -0.000000 -0.000001 -0.763485 -0.674408 -0.153607
 36 10.242684 -0.000000 0.000000 0.000000 -0.000000 -1.646920
 37 11.375562 -0.000000 0.000001 1.794235 0.193135 -0.495474
 38 0.728681 0.023431 1.008290 -1.579583 -0.319038 0.212973
 39 2.136497 0.000000 -0.000001 -0.000000 -0.000000 1.282817
 40 2.313140 0.000001 0.000001 0.000000 0.000000 3.141593
 41 3.115506 -0.886042 0.021430 0.420766 0.316066 0.167178
 42 2.011151 0.000001 -0.000001 0.000000 -0.000000 2.082010
 43 2.141379 0.000000 -0.000002 0.000000 0.000000 3.141593
 44 1.734172 -0.000001 0.000001 -0.000000 -0.000000 1.041748
 45 0.136315 -3.738192 2.525892 1.493698 2.759406 -1.474501
 46 29.831053 -1.859323 -2.180628 0.219518 -0.013465 1.468817
 47 -0.319471 8.644888 1.613176 -1.569415 -0.026309 0.036285
 48 11.389367 -0.000820 0.158782 1.691628 0.087379 -0.267479
 49 0.000000 -4.440598 0.000001 1.570144 -3.078602 0.004040
 50 6.000001 0.000001 0.000001 1.691628 0.000000 -0.000000
 51 0.000002 -4.440601 -0.000001 1.569944 -3.078603 0.004053
 52 10.510132 -0.000000 0.000001 -0.000000 -0.000000 -2.394256
 53 0.000000 -1.748399 -5.000001 -3.141593 0.004007 -1.539299
 54 5.500000 0.000001 -0.000000 0.221375 -0.000000 0.000000
 55 0.000000 0.000001 -5.000000 -0.044472 3.137589 -0.000177
 56 6.551491 0.000000 0.000002 -0.221375 -0.241197 -0.120057
 57 -1.266844 -1.937443 -4.950562 -0.066572 -2.988806 -0.110308
 58 6.551491 -0.000000 0.000002 -0.221375 -0.241197 -0.120057
 59 0.699369 -1.944207 -5.006845 -0.027189 -3.088217 0.005298
 60 4.226148 -0.003201 0.000000 0.486288 0.116563 0.224150
 61 -0.000002 5.000000 -0.000001 -0.153564 0.000087 2.718702
 62 0.000004 -0.000005 -3.713580 0.365818 2.880119 -0.191589
 63 0.000002 0.000000 5.000000 3.053196 1.558589 -0.074928
 64 -0.000007 0.000005 3.713580 -0.001619 -3.122277 -0.475127
 65 0.000002 -0.000000 -5.000000 -0.088726 1.558589 3.066335
 66 7.363602 1.646647 0.495663 3.141593 -1.570796 0.000000
 67 -0.000005 0.000006 3.619081 0.008255 -3.110080 -0.985231
 68 16.573919 0.000001 -0.000000 -0.000000 -0.000000 -1.065827
 69 15.128181 0.000000 0.000000 -0.102296 0.010178 0.114297
 70 5.758665 4.244730 0.000000 0.000000 0.000000 1.667687
 71 3.177726 0.000000 0.000000 0.000000 0.000000 3.141593
 72 15.708953 0.000001 0.000000 -0.051525 0.003996 0.061523
 73 0.275148 0.189215 -3.445208 3.130898 0.000409 -1.514604
 74 17.210192 0.000000 -0.000000 -0.000000 -0.000000 -1.893339
 75 -0.000000 -0.000000 -4.999999 -0.079433 1.546568 -1.570857
 76 0.000002 -0.000003 -3.619081 0.577895 2.675801 -0.242118
 77 16.573921 -0.000001 -0.000002 -0.000000 -0.000000 -1.163030
 78 15.128181 0.000001 0.000001 0.089479 0.309197 0.659208
 79 5.758666 4.244730 -0.000001 -0.000000 -0.000000 1.815142
 80 4.003934 -0.000000 0.000001 0.000000 0.000000 0.000000
 81 15.708953 0.000001 0.000001 0.042277 0.226871 0.443133
 82 0.273998 0.191089 3.439763 -3.130907 -0.000437 -1.508107
 83 17.210194 -0.000001 -0.000002 0.000000 -0.000000 -1.937080
 84 -0.000000 -0.000001 5.000000 -0.079319 1.595025 -1.570742
end
