version 1
nodes
  0 "Bip01"  -1
  1 "Bip01 Footsteps"   0
  2 "Bip01 Pelvis"   0
  3 "Bip01 Spine"   2
  4 "Bip01 Spine1"   3
  5 "Bip01 Spine2"   4
  6 "Bip01 Spine3"   5
  7 "Bip01 Neck"   6
  8 "Bip01 Head"   7
  9 "Dummy21"   8
 10 "Bip01 L Clavicle"   7
 11 "Bip01 L UpperArm"  10
 12 "Bip01 L Forearm"  11
 13 "Bip01 L Hand"  12
 14 "Bip01 L Finger0"  13
 15 "Bip01 L Finger01"  14
 16 "Dummy06"  15
 17 "Bip01 L Finger1"  13
 18 "Bip01 L Finger11"  17
 19 "Dummy03"  18
 20 "-- L knuckle"  17
 21 "-- L knuckle_end"  20
 22 "-- L Forearm twist"  12
 23 "-- L Forearm twist_end"  22
 24 "-- L wrist"  12
 25 "-- L wrist_end"  24
 26 "-- L Elbow"  11
 27 "--L Elbow_end"  26
 28 "-- L bicep twist"  11
 29 "-- L bicep twist_end"  28
 30 "-- L shoulder outside"  10
 31 "-- L shoulder outside_end"  30
 32 "-- L Shoulder inside"  10
 33 "-- L Shoulder inside_end"  32
 34 "Bip01 R Clavicle"   7
 35 "Bip01 R UpperArm"  34
 36 "Bip01 R Forearm"  35
 37 "Bip01 R Hand"  36
 38 "Bip01 R Finger0"  37
 39 "Bip01 R Finger01"  38
 40 "Dummy01"  39
 41 "Bip01 R Finger1"  37
 42 "Bip01 R Finger11"  41
 43 "Dummy02"  42
 44 "-- R knuckle"  41
 45 "Point06"  44
 46 "flash"  37
 47 "Line02"  46
 48 "-- R wrist"  36
 49 "-- R wrist_end"  48
 50 "-- R forearm twist"  36
 51 "-- R forearm twist_end"  50
 52 "-- R Elbow"  35
 53 "--R Elbow_end"  52
 54 "-- R bicep twist"  35
 55 "-- R bicep twist_end"  54
 56 "-- R Shoulder inside"  34
 57 "-- R Shoulder inside_end"  56
 58 "-- R shoulder outside"  34
 59 "-- R shoulder outside_end"  58
 60 "-- Neck smooth"   6
 61 "-- neck smooth end"  60
 62 "-- R Butt"   2
 63 "--R Butt_end"  62
 64 "-- L butt"   2
 65 "--L butt_end"  64
 66 "GIGN01"   2
 67 "Bip01 L Thigh"   2
 68 "Bip01 L Calf"  67
 69 "Bip01 L Foot"  68
 70 "Bip01 L Toe0"  69
 71 "Dummy16"  70
 72 "-- L ankle"  68
 73 "-- L ankleend"  72
 74 "-- L Knee"  67
 75 "--L Knee_end"  74
 76 "Bip01 R Thigh"   2
 77 "Bip01 R Calf"  76
 78 "Bip01 R Foot"  77
 79 "Bip01 R Toe0"  78
 80 "Dummy11"  79
 81 "-- R Ankle"  77
 82 "-- R ankleend"  81
 83 "-- R Knee"  76
 84 "--R Knee_end"  83
end
skeleton
time 0
  0 -0.650000 0.000000 33.899605 -0.025849 0.174554 -1.569172
  1 5.685103 0.833236 -32.227173 -0.174512 -0.026131 1.569196
  2 -2.276935 0.000003 -1.238188 -1.570795 -1.570451 0.000000
  3 1.797128 0.711813 -0.000342 0.103638 -0.009490 -0.005969
  4 4.118758 -0.003243 -0.000457 0.139682 -0.004255 0.047903
  5 4.118760 -0.003243 -0.000457 0.139682 -0.002561 0.048168
  6 4.118765 -0.003245 -0.000457 0.139682 -0.004243 0.047816
  7 4.120250 -0.001703 -0.002626 0.845525 -0.129320 0.625650
  8 4.443599 -0.000002 0.000002 -0.566847 -0.388135 0.641466
  9 9.024062 -0.000002 0.000000 0.000000 0.000000 0.000000
 10 0.223451 1.289335 1.139788 0.990493 -0.668326 1.504563
 11 6.384775 -0.000001 -0.000003 0.351711 1.623124 0.202691
 12 10.242682 -0.000000 0.000000 -0.000000 -0.000000 -1.387932
 13 11.375562 0.000001 -0.000000 -3.081995 -0.001721 -0.300073
 14 0.728681 0.023432 -1.008292 1.202975 0.409398 0.881725
 15 2.136495 -0.000001 0.000001 0.000000 -0.000000 -0.078540
 16 2.313140 0.000001 0.000001 0.000000 0.000000 0.000000
 17 3.115507 -0.886040 -0.021431 -0.166499 0.000392 0.514872
 18 2.011150 -0.000001 0.000000 -0.000000 -0.000000 1.322792
 19 2.141380 0.000001 -0.000000 0.000000 0.000000 0.000000
 20 1.734172 0.000002 0.000000 -0.000000 -0.000000 0.660693
 21 0.000007 -4.440594 -0.000000 1.570544 -0.062990 -0.195737
 22 6.000000 0.000001 -0.000000 -2.771273 0.000000 -0.000000
 23 0.000001 -4.440600 -0.000000 1.569944 -0.062987 0.004053
 24 11.375562 0.000000 0.000003 -2.326452 0.072288 -0.169303
 25 -0.000001 -4.440603 0.000000 1.570144 -0.062988 0.004040
 26 10.510130 -0.000000 -0.000000 -0.000000 0.000000 -2.264762
 27 -0.000000 -1.748399 4.999999 -0.000000 0.004007 1.602291
 28 5.500000 -0.000001 0.000000 -0.083591 0.000000 -0.000000
 29 -0.000001 -1.940598 5.000000 -0.044472 0.004003 -0.000180
 30 6.551490 -0.000000 -0.000001 0.118784 1.178432 -0.158414
 31 0.000002 -1.940598 5.000001 -0.027189 -0.053376 0.005295
 32 6.551490 -0.000000 -0.000001 0.069633 0.485215 -0.068410
 33 -0.000001 -1.940598 4.999997 -0.066572 -0.152786 -0.110311
 34 -0.223449 -1.282261 -1.139786 2.206311 0.576978 -1.535101
 35 6.384776 0.000001 -0.000003 -0.984527 -0.647127 0.162629
 36 10.242681 -0.000002 0.000001 -0.000000 0.000000 -2.276554
 37 11.375561 -0.000000 -0.000001 1.875223 -0.079793 -0.046318
 38 0.728682 0.023431 1.008292 -1.579583 -0.319038 0.212973
 39 2.136497 0.000000 -0.000000 0.000000 0.000000 1.282817
 40 2.313142 0.000001 -0.000000 0.000000 0.000000 3.141593
 41 3.115506 -0.886041 0.021435 0.420765 0.316066 0.167178
 42 2.011149 -0.000000 -0.000000 -0.000000 0.000000 2.082010
 43 2.141380 -0.000000 -0.000001 0.000000 0.000000 3.141593
 44 1.734172 -0.000002 -0.000001 0.000000 -0.000000 1.041748
 45 0.136315 -3.738192 2.525891 1.493698 2.759406 -1.474501
 46 29.831055 -1.859327 -2.180629 0.219518 -0.013465 1.468817
 47 -0.319470 8.644889 1.613178 -1.569415 -0.026309 0.036285
 48 11.389366 -0.000820 0.158779 1.722837 -0.047107 -0.023347
 49 0.000001 -4.440599 -0.000001 1.570144 -3.078602 0.004040
 50 6.000000 0.000000 -0.000001 1.722837 -0.000000 -0.000000
 51 0.000003 -4.440601 0.000001 1.569944 -3.078603 0.004053
 52 10.510131 -0.000000 0.000001 -0.000000 -0.000000 -2.709073
 53 -0.000000 -1.748399 -5.000002 3.141593 0.004007 -1.539299
 54 5.499999 0.000001 0.000000 0.281787 -0.000000 -0.000000
 55 -0.000001 -0.000000 -5.000001 -0.044472 3.137589 -0.000177
 56 6.551490 0.000000 -0.000001 -0.281787 -0.264809 -0.023483
 57 -1.266844 -1.937442 -4.950562 -0.066572 -2.988806 -0.110308
 58 6.551490 -0.000000 -0.000001 -0.281787 -0.264809 -0.023483
 59 0.699370 -1.944208 -5.006845 -0.027189 -3.088217 0.005298
 60 4.226144 -0.003202 0.000000 0.431629 0.007137 0.336023
 61 0.000002 5.000000 0.000000 -0.153564 0.000087 2.718702
 62 0.000004 -0.000005 -3.713580 0.365818 2.880119 -0.191589
 63 0.000002 0.000000 5.000000 3.053196 1.558589 -0.074928
 64 -0.000007 0.000005 3.713580 -0.001619 -3.122277 -0.475127
 65 0.000002 -0.000000 -5.000000 -0.088726 1.558589 3.066335
 66 7.363602 1.646647 0.495663 3.141593 -1.570796 0.000000
 67 -0.000005 0.000006 3.619081 0.008255 -3.110080 -0.985231
 68 16.573919 0.000001 -0.000000 -0.000000 -0.000000 -1.065827
 69 15.128181 0.000000 0.000000 -0.102296 0.010178 0.114297
 70 5.758665 4.244730 0.000000 0.000000 0.000000 1.667687
 71 3.177726 0.000000 0.000000 0.000000 0.000000 3.141593
 72 15.708953 0.000001 0.000000 -0.051525 0.003996 0.061523
 73 0.275148 0.189215 -3.445208 3.130898 0.000409 -1.514604
 74 17.210192 0.000000 -0.000000 -0.000000 -0.000000 -1.893339
 75 -0.000000 -0.000000 -4.999999 -0.079433 1.546568 -1.570857
 76 0.000002 -0.000003 -3.619081 0.577895 2.675801 -0.242118
 77 16.573921 -0.000001 -0.000002 -0.000000 -0.000000 -1.163030
 78 15.128181 0.000001 0.000001 0.089479 0.309197 0.659208
 79 5.758666 4.244730 -0.000001 -0.000000 -0.000000 1.815142
 80 4.003934 -0.000000 0.000001 0.000000 0.000000 0.000000
 81 15.708953 0.000001 0.000001 0.042277 0.226871 0.443133
 82 0.273998 0.191089 3.439763 -3.130907 -0.000437 -1.508107
 83 17.210194 -0.000001 -0.000002 0.000000 -0.000000 -1.937080
 84 -0.000000 -0.000001 5.000000 -0.079319 1.595025 -1.570742
time 1
  0 -0.650000 0.000000 33.899605 -0.025849 0.174554 -1.569172
  1 5.685103 0.833236 -32.227173 -0.174512 -0.026131 1.569196
  2 -2.276935 0.000003 -1.238188 -1.570795 -1.570451 0.000000
  3 1.797151 0.711816 -0.000365 0.110909 -0.010382 0.001174
  4 4.118765 -0.003240 -0.000480 0.146928 -0.004908 0.049664
  5 4.118767 -0.003240 -0.000480 0.146929 -0.003215 0.049942
  6 4.118763 -0.003240 -0.000480 0.146929 -0.004895 0.049577
  7 4.120249 -0.001703 -0.002626 0.845525 -0.129320 0.625650
  8 4.443601 -0.000001 0.000001 -0.570692 -0.394841 0.588512
  9 9.024059 -0.000001 0.000000 0.000000 0.000000 0.000000
 10 0.223453 1.289336 1.139788 0.990493 -0.668326 1.504563
 11 6.384776 -0.000001 -0.000003 1.267917 1.656280 1.108961
 12 10.242684 -0.000000 0.000000 -0.000000 -0.000000 -1.304579
 13 11.375562 -0.000001 -0.000000 -3.101525 0.031179 -0.295498
 14 0.728680 0.023431 -1.008292 1.202975 0.409398 0.881725
 15 2.136496 -0.000001 0.000001 -0.000000 0.000000 -0.078540
 16 2.313140 0.000001 -0.000001 0.000000 0.000000 0.000000
 17 3.115507 -0.886039 -0.021430 -0.166499 0.000392 0.514872
 18 2.011150 0.000001 0.000000 0.000000 0.000000 1.322792
 19 2.141379 -0.000000 -0.000000 0.000000 0.000000 0.000000
 20 1.734171 -0.000000 -0.000000 0.000000 -0.000000 0.660693
 21 0.000007 -4.440593 0.000000 1.570544 -0.062990 -0.195737
 22 6.000000 -0.000001 -0.000000 -2.788147 -0.000000 0.000000
 23 -0.000000 -4.440600 -0.000001 1.569944 -0.062987 0.004053
 24 11.375562 -0.000002 0.000003 -2.334911 0.090543 -0.158834
 25 -0.000000 -4.440604 0.000002 1.570144 -0.062988 0.004040
 26 10.510133 -0.000000 -0.000000 0.000000 -0.000000 -2.223086
 27 0.000000 -1.748400 4.999999 0.000000 0.004007 1.602290
 28 5.500000 0.000000 -0.000000 -0.056780 -0.000000 -0.000000
 29 -0.000001 -1.940598 5.000000 -0.044472 0.004003 -0.000180
 30 6.551491 -0.000000 -0.000001 -0.002508 1.149948 -0.292739
 31 0.000002 -1.940599 5.000001 -0.027189 -0.053376 0.005295
 32 6.551491 -0.000000 -0.000001 0.050799 0.478461 -0.095212
 33 -0.000001 -1.940599 4.999997 -0.066572 -0.152786 -0.110311
 34 -0.223447 -1.282261 -1.139785 2.216998 0.603617 -1.525861
 35 6.384777 0.000001 -0.000000 -1.018493 -0.683085 0.210167
 36 10.242682 -0.000004 0.000001 -0.000000 0.000000 -2.265557
 37 11.375560 0.000001 -0.000000 1.867906 -0.056824 -0.002766
 38 0.728681 0.023431 1.008293 -1.579583 -0.319038 0.212973
 39 2.136497 0.000002 -0.000001 0.000000 -0.000000 1.282817
 40 2.313140 0.000000 0.000000 0.000000 0.000000 3.141593
 41 3.115507 -0.886042 0.021430 0.420766 0.316066 0.167178
 42 2.011152 -0.000000 -0.000000 0.000000 0.000000 2.082010
 43 2.141380 0.000001 0.000001 0.000000 0.000000 3.141593
 44 1.734172 -0.000000 0.000002 -0.000000 0.000000 1.041748
 45 0.136315 -3.738194 2.525889 1.493698 2.759406 -1.474501
 46 29.831055 -1.859324 -2.180633 0.219518 -0.013465 1.468817
 47 -0.319471 8.644889 1.613177 -1.569415 -0.026309 0.036285
 48 11.389365 -0.000817 0.158781 1.719542 -0.032339 0.000917
 49 0.000001 -4.440599 0.000000 1.570144 -3.078602 0.004040
 50 5.999999 0.000002 -0.000001 1.719542 0.000000 -0.000000
 51 0.000001 -4.440600 0.000002 1.569944 -3.078603 0.004053
 52 10.510131 -0.000002 0.000002 0.000000 0.000000 -2.703575
 53 0.000000 -1.748399 -5.000001 3.141593 0.004007 -1.539299
 54 5.500000 -0.000001 0.000001 0.286270 -0.000000 0.000000
 55 0.000000 -0.000001 -4.999999 -0.044472 3.137589 -0.000177
 56 6.551491 0.000001 0.000000 -0.286270 -0.274468 -0.015795
 57 -1.266843 -1.937443 -4.950559 -0.066572 -2.988806 -0.110308
 58 6.551491 0.000000 0.000000 -0.286270 -0.274468 -0.015795
 59 0.699370 -1.944207 -5.006849 -0.027189 -3.088217 0.005298
 60 4.226146 -0.003202 0.000000 0.431629 0.007137 0.336023
 61 0.000000 5.000000 0.000000 -0.153564 0.000087 2.718702
 62 0.000004 -0.000005 -3.713580 0.365818 2.880119 -0.191589
 63 0.000002 0.000000 5.000000 3.053196 1.558589 -0.074928
 64 -0.000007 0.000005 3.713580 -0.001619 -3.122277 -0.475127
 65 0.000002 -0.000000 -5.000000 -0.088726 1.558589 3.066335
 66 7.363602 1.646647 0.495663 3.141593 -1.570796 0.000000
 67 -0.000005 0.000006 3.619081 0.008255 -3.110080 -0.985231
 68 16.573919 0.000001 -0.000000 -0.000000 -0.000000 -1.065827
 69 15.128181 0.000000 0.000000 -0.102296 0.010178 0.114297
 70 5.758665 4.244730 0.000000 0.000000 0.000000 1.667687
 71 3.177726 0.000000 0.000000 0.000000 0.000000 3.141593
 72 15.708953 0.000001 0.000000 -0.051525 0.003996 0.061523
 73 0.275148 0.189215 -3.445208 3.130898 0.000409 -1.514604
 74 17.210192 0.000000 -0.000000 -0.000000 -0.000000 -1.893339
 75 -0.000000 -0.000000 -4.999999 -0.079433 1.546568 -1.570857
 76 0.000002 -0.000003 -3.619081 0.577895 2.675801 -0.242118
 77 16.573921 -0.000001 -0.000002 -0.000000 -0.000000 -1.163030
 78 15.128181 0.000001 0.000001 0.089479 0.309197 0.659208
 79 5.758666 4.244730 -0.000001 -0.000000 -0.000000 1.815142
 80 4.003934 -0.000000 0.000001 0.000000 0.000000 0.000000
 81 15.708953 0.000001 0.000001 0.042277 0.226871 0.443133
 82 0.273998 0.191089 3.439763 -3.130907 -0.000437 -1.508107
 83 17.210194 -0.000001 -0.000002 0.000000 -0.000000 -1.937080
 84 -0.000000 -0.000001 5.000000 -0.079319 1.595025 -1.570742
time 2
  0 -0.650000 0.000000 33.899605 -0.025849 0.174554 -1.569172
  1 5.685103 0.833236 -32.227173 -0.174512 -0.026131 1.569196
  2 -2.276935 0.000003 -1.238188 -1.570795 -1.570451 0.000000
  3 1.797170 0.711819 -0.000389 0.118174 -0.011327 0.008310
  4 4.118779 -0.003237 -0.000504 0.154174 -0.005573 0.051421
  5 4.118770 -0.003236 -0.000504 0.154174 -0.003883 0.051711
  6 4.118774 -0.003237 -0.000504 0.154174 -0.005559 0.051333
  7 4.120256 -0.001704 -0.002626 0.845525 -0.129320 0.625650
  8 4.443599 0.000001 -0.000001 -0.575379 -0.402664 0.536211
  9 9.024060 -0.000001 0.000000 0.000000 0.000000 0.000000
 10 0.223450 1.289339 1.139784 0.990493 -0.668326 1.504563
 11 6.384776 -0.000000 -0.000002 1.546163 1.719403 1.375572
 12 10.242683 -0.000000 0.000000 -0.000000 -0.000000 -1.213613
 13 11.375561 -0.000000 0.000000 -3.117695 0.064916 -0.296541
 14 0.728680 0.023433 -1.008292 1.202975 0.409399 0.881725
 15 2.136494 0.000001 -0.000000 -0.000000 -0.000000 -0.078540
 16 2.313140 0.000001 0.000000 0.000000 0.000000 0.000000
 17 3.115507 -0.886039 -0.021431 -0.166499 0.000392 0.514872
 18 2.011150 -0.000000 -0.000000 0.000000 0.000000 1.322792
 19 2.141381 0.000000 0.000001 0.000000 0.000000 0.000000
 20 1.734172 -0.000000 -0.000000 0.000000 0.000000 0.660693
 21 0.000004 -4.440595 0.000000 1.570544 -0.062990 -0.195737
 22 6.000000 -0.000002 0.000000 -2.802011 -0.000000 0.000000
 23 0.000002 -4.440602 0.000000 1.569944 -0.062987 0.004053
 24 11.375562 -0.000001 0.000003 -2.341316 0.110201 -0.150777
 25 -0.000001 -4.440602 -0.000001 1.570144 -0.062988 0.004040
 26 10.510130 -0.000000 -0.000000 -0.000000 -0.000000 -2.177603
 27 0.000001 -1.748403 4.999998 0.000000 0.004007 1.602291
 28 5.500001 -0.000000 -0.000000 -0.029632 0.000000 0.000000
 29 -0.000000 -1.940598 5.000000 -0.044472 0.004003 -0.000180
 30 6.551492 -0.000000 -0.000002 -0.111078 1.119308 -0.414605
 31 -0.000002 -1.940599 5.000002 -0.027189 -0.053376 0.005295
 32 6.551492 -0.000000 -0.000002 0.031436 0.471316 -0.122273
 33 0.000001 -1.940600 4.999997 -0.066572 -0.152786 -0.110311
 34 -0.223448 -1.282259 -1.139788 2.227960 0.630214 -1.516057
 35 6.384777 0.000001 -0.000002 -1.049674 -0.716990 0.258781
 36 10.242682 0.000001 -0.000000 -0.000000 0.000000 -2.252409
 37 11.375560 0.000001 -0.000000 1.864075 -0.033018 0.035555
 38 0.728680 0.023431 1.008290 -1.579583 -0.319038 0.212973
 39 2.136497 0.000000 -0.000000 -0.000000 0.000000 1.282817
 40 2.313138 0.000000 0.000000 0.000000 0.000000 3.141593
 41 3.115506 -0.886041 0.021428 0.420766 0.316066 0.167178
 42 2.011150 -0.000000 -0.000000 -0.000000 -0.000000 2.082010
 43 2.141381 0.000001 0.000000 0.000000 0.000000 3.141593
 44 1.734173 -0.000002 -0.000001 -0.000000 0.000000 1.041748
 45 0.136314 -3.738192 2.525891 1.493698 2.759406 -1.474501
 46 29.831055 -1.859324 -2.180634 0.219518 -0.013465 1.468817
 47 -0.319470 8.644889 1.613179 -1.569415 -0.026309 0.036285
 48 11.389365 -0.000818 0.158782 1.717771 -0.017283 0.022215
 49 -0.000001 -4.440599 0.000002 1.570144 -3.078602 0.004040
 50 5.999998 0.000001 0.000000 1.717771 0.000000 0.000000
 51 0.000002 -4.440602 -0.000002 1.569944 -3.078603 0.004053
 52 10.510131 0.000001 -0.000000 -0.000000 0.000000 -2.697001
 53 -0.000000 -1.748402 -5.000002 -3.141593 0.004007 -1.539299
 54 5.499999 0.000002 -0.000001 0.289363 0.000000 0.000000
 55 -0.000000 -0.000001 -5.000000 -0.044472 3.137589 -0.000177
 56 6.551491 0.000000 -0.000001 -0.289363 -0.283303 -0.009085
 57 -1.266844 -1.937444 -4.950558 -0.066572 -2.988806 -0.110308
 58 6.551491 -0.000000 -0.000001 -0.289363 -0.283303 -0.009085
 59 0.699370 -1.944209 -5.006846 -0.027189 -3.088217 0.005298
 60 4.226147 -0.003202 0.000000 0.431629 0.007137 0.336023
 61 -0.000001 5.000000 0.000000 -0.153564 0.000087 2.718702
 62 0.000004 -0.000005 -3.713580 0.365818 2.880119 -0.191589
 63 0.000002 0.000000 5.000000 3.053196 1.558589 -0.074928
 64 -0.000007 0.000005 3.713580 -0.001619 -3.122277 -0.475127
 65 0.000002 -0.000000 -5.000000 -0.088726 1.558589 3.066335
 66 7.363602 1.646647 0.495663 3.141593 -1.570796 0.000000
 67 -0.000005 0.000006 3.619081 0.008255 -3.110080 -0.985231
 68 16.573919 0.000001 -0.000000 -0.000000 -0.000000 -1.065827
 69 15.128181 0.000000 0.000000 -0.102296 0.010178 0.114297
 70 5.758665 4.244730 0.000000 0.000000 0.000000 1.667687
 71 3.177726 0.000000 0.000000 0.000000 0.000000 3.141593
 72 15.708953 0.000001 0.000000 -0.051525 0.003996 0.061523
 73 0.275148 0.189215 -3.445208 3.130898 0.000409 -1.514604
 74 17.210192 0.000000 -0.000000 -0.000000 -0.000000 -1.893339
 75 -0.000000 -0.000000 -4.999999 -0.079433 1.546568 -1.570857
 76 0.000002 -0.000003 -3.619081 0.577895 2.675801 -0.242118
 77 16.573921 -0.000001 -0.000002 -0.000000 -0.000000 -1.163030
 78 15.128181 0.000001 0.000001 0.089479 0.309197 0.659208
 79 5.758666 4.244730 -0.000001 -0.000000 -0.000000 1.815142
 80 4.003934 -0.000000 0.000001 0.000000 0.000000 0.000000
 81 15.708953 0.000001 0.000001 0.042277 0.226871 0.443133
 82 0.273998 0.191089 3.439763 -3.130907 -0.000437 -1.508107
 83 17.210194 -0.000001 -0.000002 0.000000 -0.000000 -1.937080
 84 -0.000000 -0.000001 5.000000 -0.079319 1.595025 -1.570742
time 3
  0 -0.650000 0.000000 33.899605 -0.025849 0.174554 -1.569172
  1 5.685103 0.833236 -32.227173 -0.174512 -0.026131 1.569196
  2 -2.276935 0.000003 -1.238188 -1.570795 -1.570451 0.000000
  3 1.797197 0.711822 -0.000413 0.125432 -0.012323 0.015439
  4 4.118776 -0.003232 -0.000527 0.161418 -0.006251 0.053172
  5 4.118784 -0.003234 -0.000527 0.161418 -0.004563 0.053474
  6 4.118777 -0.003232 -0.000527 0.161419 -0.006237 0.053085
  7 4.120253 -0.001704 -0.002626 0.845525 -0.129320 0.625650
  8 4.443599 -0.000000 -0.000001 -0.580816 -0.411674 0.484582
  9 9.024060 0.000002 0.000000 0.000000 0.000000 0.000000
 10 0.223449 1.289338 1.139784 0.990494 -0.668326 1.504563
 11 6.384776 -0.000000 0.000000 -1.495179 1.350478 -1.679114
 12 10.242682 -0.000000 0.000001 -0.000000 0.000000 -1.113510
 13 11.375562 -0.000001 -0.000000 -3.130697 0.099200 -0.303653
 14 0.728680 0.023430 -1.008292 1.202975 0.409399 0.881725
 15 2.136496 0.000001 -0.000001 -0.000000 0.000000 -0.078540
 16 2.313139 0.000001 0.000000 0.000000 0.000000 0.000000
 17 3.115507 -0.886044 -0.021431 -0.166499 0.000392 0.514872
 18 2.011151 0.000001 0.000001 0.000000 -0.000000 1.322792
 19 2.141378 -0.000000 -0.000000 0.000000 0.000000 0.000000
 20 1.734173 -0.000001 -0.000000 0.000000 0.000000 0.660693
 21 0.000007 -4.440594 0.000000 1.570544 -0.062990 -0.195737
 22 6.000001 0.000001 -0.000000 -2.812947 -0.000000 0.000000
 23 0.000002 -4.440603 0.000001 1.569944 -0.062987 0.004053
 24 11.375562 -0.000001 0.000003 -2.345670 0.131145 -0.145519
 25 -0.000000 -4.440603 0.000001 1.570144 -0.062988 0.004040
 26 10.510131 -0.000000 0.000000 -0.000000 0.000000 -2.127551
 27 0.000001 -1.748401 4.999999 -0.000000 0.004007 1.602290
 28 5.500001 -0.000000 0.000001 -0.002083 -0.000000 0.000000
 29 0.000001 -1.940598 5.000001 -0.044472 0.004003 -0.000180
 30 6.551491 0.000001 0.000002 -0.209837 1.087005 -0.526724
 31 0.000002 -1.940599 5.000000 -0.027189 -0.053376 0.005295
 32 6.551491 0.000001 0.000002 0.011556 0.463858 -0.149459
 33 0.000000 -1.940598 4.999998 -0.066572 -0.152786 -0.110311
 34 -0.223448 -1.282261 -1.139787 2.239239 0.656760 -1.505653
 35 6.384776 -0.000001 0.000002 -1.077799 -0.748664 0.308139
 36 10.242682 0.000002 0.000001 -0.000000 0.000000 -2.237517
 37 11.375561 -0.000001 -0.000001 1.863765 -0.008893 0.069033
 38 0.728680 0.023431 1.008289 -1.579583 -0.319038 0.212973
 39 2.136497 -0.000001 -0.000000 -0.000000 0.000000 1.282817
 40 2.313141 0.000001 -0.000001 0.000000 0.000000 3.141593
 41 3.115506 -0.886041 0.021428 0.420766 0.316066 0.167178
 42 2.011149 0.000000 0.000002 -0.000000 0.000000 2.082010
 43 2.141378 -0.000001 -0.000001 0.000000 0.000000 3.141593
 44 1.734172 -0.000000 0.000001 -0.000000 0.000000 1.041748
 45 0.136314 -3.738194 2.525891 1.493698 2.759406 -1.474501
 46 29.831055 -1.859325 -2.180632 0.219518 -0.013465 1.468817
 47 -0.319471 8.644888 1.613175 -1.569415 -0.026309 0.036285
 48 11.389367 -0.000819 0.158780 1.717576 -0.002228 0.040658
 49 -0.000000 -4.440599 0.000000 1.570144 -3.078602 0.004040
 50 6.000000 -0.000001 -0.000001 1.717576 -0.000000 0.000000
 51 0.000001 -4.440602 -0.000002 1.569944 -3.078603 0.004053
 52 10.510132 0.000001 0.000002 0.000000 0.000000 -2.689555
 53 0.000000 -1.748399 -5.000001 3.141593 0.004007 -1.539299
 54 5.500000 0.000001 0.000001 0.291171 -0.000000 0.000000
 55 -0.000000 0.000001 -4.999999 -0.044472 3.137589 -0.000177
 56 6.551490 -0.000000 0.000001 -0.291171 -0.291430 -0.003179
 57 -1.266842 -1.937444 -4.950559 -0.066572 -2.988806 -0.110308
 58 6.551491 -0.000001 0.000001 -0.291171 -0.291430 -0.003179
 59 0.699371 -1.944208 -5.006849 -0.027189 -3.088217 0.005298
 60 4.226145 -0.003202 -0.000000 0.431629 0.007137 0.336023
 61 0.000001 5.000001 -0.000001 -0.153564 0.000087 2.718702
 62 0.000004 -0.000005 -3.713580 0.365818 2.880119 -0.191589
 63 0.000002 0.000000 5.000000 3.053196 1.558589 -0.074928
 64 -0.000007 0.000005 3.713580 -0.001619 -3.122277 -0.475127
 65 0.000002 -0.000000 -5.000000 -0.088726 1.558589 3.066335
 66 7.363602 1.646647 0.495663 3.141593 -1.570796 0.000000
 67 -0.000005 0.000006 3.619081 0.008255 -3.110080 -0.985231
 68 16.573919 0.000001 -0.000000 -0.000000 -0.000000 -1.065827
 69 15.128181 0.000000 0.000000 -0.102296 0.010178 0.114297
 70 5.758665 4.244730 0.000000 0.000000 0.000000 1.667687
 71 3.177726 0.000000 0.000000 0.000000 0.000000 3.141593
 72 15.708953 0.000001 0.000000 -0.051525 0.003996 0.061523
 73 0.275148 0.189215 -3.445208 3.130898 0.000409 -1.514604
 74 17.210192 0.000000 -0.000000 -0.000000 -0.000000 -1.893339
 75 -0.000000 -0.000000 -4.999999 -0.079433 1.546568 -1.570857
 76 0.000002 -0.000003 -3.619081 0.577895 2.675801 -0.242118
 77 16.573921 -0.000001 -0.000002 -0.000000 -0.000000 -1.163030
 78 15.128181 0.000001 0.000001 0.089479 0.309197 0.659208
 79 5.758666 4.244730 -0.000001 -0.000000 -0.000000 1.815142
 80 4.003934 -0.000000 0.000001 0.000000 0.000000 0.000000
 81 15.708953 0.000001 0.000001 0.042277 0.226871 0.443133
 82 0.273998 0.191089 3.439763 -3.130907 -0.000437 -1.508107
 83 17.210194 -0.000001 -0.000002 0.000000 -0.000000 -1.937080
 84 -0.000000 -0.000001 5.000000 -0.079319 1.595025 -1.570742
time 4
  0 -0.650000 0.000000 33.899605 -0.025849 0.174554 -1.569172
  1 5.685103 0.833236 -32.227173 -0.174512 -0.026131 1.569196
  2 -2.276935 0.000003 -1.238188 -1.570795 -1.570451 0.000000
  3 1.797220 0.711826 -0.000436 0.132682 -0.013371 0.022561
  4 4.118780 -0.003227 -0.000550 0.168661 -0.006942 0.054919
  5 4.118785 -0.003229 -0.000550 0.168660 -0.005256 0.055233
  6 4.118786 -0.003228 -0.000550 0.168662 -0.006927 0.054832
  7 4.120255 -0.001703 -0.002626 0.845525 -0.129320 0.625650
  8 4.443600 -0.000001 -0.000001 -0.586908 -0.421929 0.433643
  9 9.024062 -0.000002 0.000000 0.000000 0.000000 0.000000
 10 0.223451 1.289337 1.139785 0.990493 -0.668326 1.504563
 11 6.384776 0.000000 0.000003 -1.450925 1.272461 -1.649958
 12 10.242685 0.000000 0.000000 -0.000000 -0.000000 -1.001879
 13 11.375561 0.000002 -0.000000 -3.140713 0.133788 -0.317711
 14 0.728680 0.023433 -1.008292 1.202975 0.409398 0.881725
 15 2.136497 0.000001 -0.000002 -0.000000 -0.000000 -0.078540
 16 2.313138 -0.000000 0.000001 0.000000 0.000000 0.000000
 17 3.115505 -0.886038 -0.021431 -0.166499 0.000392 0.514872
 18 2.011151 -0.000000 0.000000 0.000000 -0.000000 1.322792
 19 2.141379 -0.000000 -0.000000 0.000000 0.000000 0.000000
 20 1.734172 0.000002 -0.000000 -0.000000 -0.000000 0.660693
 21 0.000005 -4.440594 0.000000 1.570544 -0.062990 -0.195737
 22 5.999999 0.000001 -0.000000 -2.821048 0.000000 -0.000000
 23 0.000003 -4.440602 -0.000001 1.569944 -0.062987 0.004053
 24 11.375561 0.000002 0.000003 -2.347968 0.153339 -0.143615
 25 -0.000001 -4.440604 0.000000 1.570144 -0.062988 0.004040
 26 10.510133 0.000000 -0.000000 -0.000000 0.000000 -2.071736
 27 -0.000000 -1.748398 4.999999 -0.000000 0.004007 1.602290
 28 5.499999 0.000000 -0.000000 0.026143 -0.000000 0.000000
 29 -0.000002 -1.940598 5.000000 -0.044472 0.004003 -0.000180
 30 6.551491 -0.000001 -0.000000 -0.302056 1.053228 -0.632272
 31 0.000001 -1.940598 5.000001 -0.027189 -0.053376 0.005295
 32 6.551491 -0.000001 -0.000000 -0.008980 0.456135 -0.176817
 33 -0.000000 -1.940599 4.999995 -0.066572 -0.152786 -0.110311
 34 -0.223446 -1.282262 -1.139786 2.250878 0.683247 -1.494608
 35 6.384776 0.000000 0.000001 -1.102590 -0.778009 0.357824
 36 10.242681 -0.000002 0.000000 -0.000000 0.000000 -2.221254
 37 11.375559 0.000004 -0.000001 1.866942 0.015124 0.098122
 38 0.728681 0.023431 1.008289 -1.579583 -0.319038 0.212973
 39 2.136496 0.000003 -0.000000 -0.000000 0.000000 1.282817
 40 2.313138 0.000000 -0.000000 0.000000 0.000000 3.141593
 41 3.115506 -0.886041 0.021430 0.420766 0.316066 0.167178
 42 2.011151 -0.000001 -0.000001 -0.000000 0.000000 2.082010
 43 2.141381 0.000000 0.000001 0.000000 0.000000 3.141593
 44 1.734173 -0.000002 -0.000001 -0.000000 -0.000000 1.041748
 45 0.136315 -3.738193 2.525890 1.493698 2.759406 -1.474501
 46 29.831053 -1.859326 -2.180634 0.219518 -0.013465 1.468817
 47 -0.319471 8.644888 1.613176 -1.569415 -0.026309 0.036285
 48 11.389364 -0.000815 0.158781 1.718972 0.012597 0.056443
 49 0.000001 -4.440599 -0.000000 1.570144 -3.078602 0.004040
 50 5.999999 0.000004 -0.000001 1.718971 0.000000 0.000000
 51 0.000002 -4.440601 0.000001 1.569944 -3.078603 0.004053
 52 10.510130 0.000000 0.000001 0.000000 -0.000000 -2.681423
 53 -0.000000 -1.748398 -5.000001 -3.141593 0.004007 -1.539299
 54 5.500000 -0.000001 0.000001 0.291809 0.000000 -0.000000
 55 0.000001 0.000001 -5.000000 -0.044472 3.137589 -0.000177
 56 6.551490 0.000000 0.000001 -0.291809 -0.298919 0.002082
 57 -1.266844 -1.937443 -4.950561 -0.066572 -2.988806 -0.110308
 58 6.551491 -0.000000 0.000001 -0.291809 -0.298919 0.002082
 59 0.699371 -1.944209 -5.006848 -0.027189 -3.088217 0.005298
 60 4.226148 -0.003202 -0.000000 0.431629 0.007137 0.336023
 61 -0.000000 5.000001 -0.000000 -0.153564 0.000087 2.718702
 62 0.000004 -0.000005 -3.713580 0.365818 2.880119 -0.191589
 63 0.000002 0.000000 5.000000 3.053196 1.558589 -0.074928
 64 -0.000007 0.000005 3.713580 -0.001619 -3.122277 -0.475127
 65 0.000002 -0.000000 -5.000000 -0.088726 1.558589 3.066335
 66 7.363602 1.646647 0.495663 3.141593 -1.570796 0.000000
 67 -0.000005 0.000006 3.619081 0.008255 -3.110080 -0.985231
 68 16.573919 0.000001 -0.000000 -0.000000 -0.000000 -1.065827
 69 15.128181 0.000000 0.000000 -0.102296 0.010178 0.114297
 70 5.758665 4.244730 0.000000 0.000000 0.000000 1.667687
 71 3.177726 0.000000 0.000000 0.000000 0.000000 3.141593
 72 15.708953 0.000001 0.000000 -0.051525 0.003996 0.061523
 73 0.275148 0.189215 -3.445208 3.130898 0.000409 -1.514604
 74 17.210192 0.000000 -0.000000 -0.000000 -0.000000 -1.893339
 75 -0.000000 -0.000000 -4.999999 -0.079433 1.546568 -1.570857
 76 0.000002 -0.000003 -3.619081 0.577895 2.675801 -0.242118
 77 16.573921 -0.000001 -0.000002 -0.000000 -0.000000 -1.163030
 78 15.128181 0.000001 0.000001 0.089479 0.309197 0.659208
 79 5.758666 4.244730 -0.000001 -0.000000 -0.000000 1.815142
 80 4.003934 -0.000000 0.000001 0.000000 0.000000 0.000000
 81 15.708953 0.000001 0.000001 0.042277 0.226871 0.443133
 82 0.273998 0.191089 3.439763 -3.130907 -0.000437 -1.508107
 83 17.210194 -0.000001 -0.000002 0.000000 -0.000000 -1.937080
 84 -0.000000 -0.000001 5.000000 -0.079319 1.595025 -1.570742
time 5
  0 -0.650000 0.000000 33.899605 -0.025849 0.174554 -1.569172
  1 5.685103 0.833236 -32.227173 -0.174512 -0.026131 1.569196
  2 -2.276935 0.000003 -1.238188 -1.570795 -1.570451 0.000000
  3 1.797244 0.711830 -0.000460 0.139925 -0.014470 0.029676
  4 4.118786 -0.003223 -0.000574 0.175903 -0.007645 0.056661
  5 4.118791 -0.003224 -0.000574 0.175902 -0.005961 0.056987
  6 4.118789 -0.003224 -0.000574 0.175904 -0.007630 0.056573
  7 4.120256 -0.001704 -0.002626 0.845525 -0.129320 0.625650
  8 4.443598 0.000002 -0.000001 -0.610449 -0.407533 0.424775
  9 9.024062 -0.000003 -0.000000 0.000000 0.000000 0.000000
 10 0.223451 1.289339 1.139785 0.990493 -0.668326 1.504563
 11 6.384775 -0.000000 -0.000000 -1.430414 1.186845 -1.646417
 12 10.242684 0.000000 -0.000000 0.000000 -0.000000 -0.874662
 13 11.375561 0.000001 -0.000000 3.135277 0.168478 -0.340398
 14 0.728680 0.023431 -1.008292 1.202975 0.409399 0.881725
 15 2.136495 -0.000001 0.000001 0.000000 0.000000 -0.078540
 16 2.313140 0.000001 -0.000001 0.000000 0.000000 0.000000
 17 3.115507 -0.886043 -0.021431 -0.166499 0.000392 0.514872
 18 2.011152 0.000004 0.000000 -0.000000 0.000000 1.322792
 19 2.141378 0.000000 0.000000 0.000000 0.000000 0.000000
 20 1.734173 0.000002 -0.000000 -0.000000 0.000000 0.660693
 21 0.000004 -4.440593 -0.000000 1.570544 -0.062990 -0.195737
 22 6.000001 0.000001 -0.000000 -2.826416 -0.000000 -0.000000
 23 0.000001 -4.440600 -0.000001 1.569944 -0.062987 0.004053
 24 11.375564 0.000003 0.000003 -2.348176 0.176890 -0.145965
 25 -0.000001 -4.440603 -0.000000 1.570144 -0.062988 0.004040
 26 10.510133 0.000000 -0.000000 -0.000000 0.000000 -2.008127
 27 -0.000001 -1.748399 5.000000 0.000000 0.004007 1.602290
 28 5.500002 -0.000000 0.000000 0.055689 -0.000000 0.000000
 29 -0.000001 -1.940598 5.000000 -0.044472 0.004003 -0.000180
 30 6.551491 0.000000 -0.000000 -0.391718 1.017630 -0.735280
 31 0.000001 -1.940598 5.000002 -0.027189 -0.053376 0.005295
 32 6.551491 0.000000 -0.000000 -0.030572 0.448120 -0.204691
 33 0.000001 -1.940599 4.999998 -0.066572 -0.152786 -0.110311
 34 -0.223449 -1.282259 -1.139788 2.262929 0.709664 -1.482878
 35 6.384776 0.000000 0.000001 -1.123761 -0.804991 0.407344
 36 10.242682 0.000001 -0.000000 -0.000000 -0.000000 -2.203957
 37 11.375561 0.000001 -0.000000 1.873535 0.038695 0.123307
 38 0.728680 0.023431 1.008289 -1.579583 -0.319038 0.212973
 39 2.136497 0.000000 -0.000000 -0.000000 0.000000 1.282817
 40 2.313139 -0.000000 0.000000 0.000000 0.000000 3.141593
 41 3.115506 -0.886041 0.021429 0.420765 0.316066 0.167178
 42 2.011151 -0.000000 0.000000 -0.000000 0.000000 2.082010
 43 2.141382 0.000001 0.000001 0.000000 0.000000 3.141593
 44 1.734172 -0.000001 0.000001 0.000000 0.000000 1.041748
 45 0.136315 -3.738192 2.525888 1.493698 2.759406 -1.474501
 46 29.831053 -1.859323 -2.180633 0.219518 -0.013465 1.468817
 47 -0.319470 8.644890 1.613179 -1.569415 -0.026309 0.036285
 48 11.389366 -0.000819 0.158782 1.721949 0.027021 0.069824
 49 -0.000000 -4.440599 -0.000001 1.570144 -3.078602 0.004040
 50 5.999999 -0.000003 -0.000001 1.721949 -0.000000 -0.000000
 51 0.000002 -4.440601 -0.000000 1.569944 -3.078603 0.004053
 52 10.510132 -0.000001 0.000001 0.000000 0.000000 -2.672775
 53 0.000001 -1.748402 -5.000001 3.141593 0.004007 -1.539299
 54 5.500000 -0.000001 0.000000 0.291391 -0.000000 0.000000
 55 0.000000 0.000000 -4.999998 -0.044472 3.137589 -0.000177
 56 6.551490 0.000001 -0.000001 -0.291391 -0.305809 0.006843
 57 -1.266843 -1.937442 -4.950560 -0.066572 -2.988806 -0.110308
 58 6.551490 0.000001 -0.000001 -0.291391 -0.305809 0.006843
 59 0.699371 -1.944210 -5.006845 -0.027189 -3.088217 0.005298
 60 4.226146 -0.003202 0.000000 0.431629 0.007137 0.336023
 61 -0.000000 5.000000 0.000000 -0.153564 0.000087 2.718702
 62 0.000004 -0.000005 -3.713580 0.365818 2.880119 -0.191589
 63 0.000002 0.000000 5.000000 3.053196 1.558589 -0.074928
 64 -0.000007 0.000005 3.713580 -0.001619 -3.122277 -0.475127
 65 0.000002 -0.000000 -5.000000 -0.088726 1.558589 3.066335
 66 7.363602 1.646647 0.495663 3.141593 -1.570796 0.000000
 67 -0.000005 0.000006 3.619081 0.008255 -3.110080 -0.985231
 68 16.573919 0.000001 -0.000000 -0.000000 -0.000000 -1.065827
 69 15.128181 0.000000 0.000000 -0.102296 0.010178 0.114297
 70 5.758665 4.244730 0.000000 0.000000 0.000000 1.667687
 71 3.177726 0.000000 0.000000 0.000000 0.000000 3.141593
 72 15.708953 0.000001 0.000000 -0.051525 0.003996 0.061523
 73 0.275148 0.189215 -3.445208 3.130898 0.000409 -1.514604
 74 17.210192 0.000000 -0.000000 -0.000000 -0.000000 -1.893339
 75 -0.000000 -0.000000 -4.999999 -0.079433 1.546568 -1.570857
 76 0.000002 -0.000003 -3.619081 0.577895 2.675801 -0.242118
 77 16.573921 -0.000001 -0.000002 -0.000000 -0.000000 -1.163030
 78 15.128181 0.000001 0.000001 0.089479 0.309197 0.659208
 79 5.758666 4.244730 -0.000001 -0.000000 -0.000000 1.815142
 80 4.003934 -0.000000 0.000001 0.000000 0.000000 0.000000
 81 15.708953 0.000001 0.000001 0.042277 0.226871 0.443133
 82 0.273998 0.191089 3.439763 -3.130907 -0.000437 -1.508107
 83 17.210194 -0.000001 -0.000002 0.000000 -0.000000 -1.937080
 84 -0.000000 -0.000001 5.000000 -0.079319 1.595025 -1.570742
time 6
  0 -0.650000 0.000000 33.899605 -0.025849 0.174554 -1.569172
  1 5.685103 0.833236 -32.227173 -0.174512 -0.026131 1.569196
  2 -2.276935 0.000003 -1.238188 -1.570795 -1.570451 0.000000
  3 1.797267 0.711834 -0.000483 0.147161 -0.015621 0.036782
  4 4.118799 -0.003219 -0.000597 0.183143 -0.008361 0.058397
  5 4.118797 -0.003219 -0.000597 0.183142 -0.006680 0.058735
  6 4.118794 -0.003218 -0.000598 0.183144 -0.008345 0.058310
  7 4.120255 -0.001703 -0.002626 0.845525 -0.129320 0.625650
  8 4.443599 0.000000 0.000001 -0.634051 -0.393298 0.415717
  9 9.024063 -0.000001 -0.000000 0.000000 0.000000 0.000000
 10 0.223453 1.289337 1.139788 0.990493 -0.668326 1.504563
 11 6.384776 -0.000001 -0.000001 -1.428804 1.166588 -1.673414
 12 10.242683 0.000000 -0.000000 0.000000 0.000000 -0.858685
 13 11.375561 0.000002 -0.000001 3.133054 0.170813 -0.346252
 14 0.728680 0.023433 -1.008292 1.202975 0.409399 0.881725
 15 2.136497 0.000002 -0.000000 -0.000000 -0.000000 -0.078540
 16 2.313139 0.000000 -0.000000 0.000000 0.000000 0.000000
 17 3.115506 -0.886041 -0.021430 -0.166499 0.000392 0.514872
 18 2.011151 0.000005 -0.000001 -0.000000 -0.000000 1.322792
 19 2.141380 -0.000002 0.000000 0.000000 0.000000 0.000000
 20 1.734173 0.000002 -0.000000 -0.000000 0.000000 0.660693
 21 0.000004 -4.440594 0.000000 1.570544 -0.062990 -0.195737
 22 6.000001 0.000002 -0.000001 -2.828418 -0.000000 -0.000000
 23 0.000002 -4.440600 -0.000001 1.569944 -0.062987 0.004053
 24 11.375562 0.000002 0.000002 -2.348931 0.179500 -0.148275
 25 -0.000001 -4.440604 0.000001 1.570144 -0.062988 0.004040
 26 10.510132 0.000000 -0.000001 -0.000000 0.000000 -2.000139
 27 0.000001 -1.748401 4.999999 0.000000 0.004007 1.602291
 28 5.500003 0.000000 -0.000000 0.054850 -0.000000 -0.000000
 29 -0.000003 -1.940598 5.000000 -0.044472 0.004003 -0.000180
 30 6.551492 0.000000 0.000001 -0.405527 1.016640 -0.774452
 31 -0.000002 -1.940598 5.000003 -0.027189 -0.053376 0.005295
 32 6.551492 0.000000 0.000001 -0.029109 0.447191 -0.215043
 33 0.000001 -1.940599 4.999997 -0.066572 -0.152786 -0.110311
 34 -0.223448 -1.282260 -1.139786 2.262929 0.709664 -1.482878
 35 6.384777 0.000002 -0.000002 -1.166072 -0.785300 0.462322
 36 10.242682 -0.000000 -0.000001 0.000000 0.000000 -2.224871
 37 11.375562 0.000002 0.000001 1.848311 0.059062 0.115039
 38 0.728681 0.023431 1.008292 -1.579583 -0.319038 0.212973
 39 2.136497 0.000001 -0.000000 -0.000000 0.000000 1.282817
 40 2.313140 -0.000000 0.000000 0.000000 0.000000 3.141593
 41 3.115506 -0.886041 0.021432 0.420766 0.316066 0.167178
 42 2.011151 -0.000000 -0.000001 -0.000000 0.000000 2.082010
 43 2.141381 0.000001 0.000000 0.000000 0.000000 3.141593
 44 1.734172 -0.000000 -0.000000 -0.000000 -0.000000 1.041748
 45 0.136314 -3.738192 2.525889 1.493698 2.759406 -1.474501
 46 29.831055 -1.859325 -2.180632 0.219518 -0.013465 1.468817
 47 -0.319471 8.644889 1.613178 -1.569415 -0.026309 0.036285
 48 11.389367 -0.000817 0.158782 1.709129 0.037728 0.064364
 49 -0.000001 -4.440598 0.000002 1.570144 -3.078602 0.004040
 50 6.000000 0.000003 -0.000000 1.709129 0.000000 -0.000000
 51 0.000003 -4.440601 -0.000000 1.569944 -3.078603 0.004053
 52 10.510131 -0.000003 -0.000000 -0.000000 -0.000000 -2.683232
 53 -0.000000 -1.748402 -5.000000 3.141593 0.004007 -1.539299
 54 5.500000 -0.000003 0.000000 0.300772 0.000000 -0.000000
 55 0.000000 -0.000000 -5.000000 -0.044472 3.137589 -0.000177
 56 6.551491 0.000001 -0.000000 -0.300772 -0.304085 0.020586
 57 -1.266842 -1.937443 -4.950561 -0.066572 -2.988806 -0.110308
 58 6.551491 0.000001 -0.000000 -0.300772 -0.304085 0.020586
 59 0.699371 -1.944207 -5.006848 -0.027189 -3.088217 0.005298
 60 4.226146 -0.003201 -0.000000 0.431629 0.007137 0.336023
 61 0.000002 5.000000 -0.000000 -0.153564 0.000087 2.718701
 62 0.000004 -0.000005 -3.713580 0.365818 2.880119 -0.191589
 63 0.000002 0.000000 5.000000 3.053196 1.558589 -0.074928
 64 -0.000007 0.000005 3.713580 -0.001619 -3.122277 -0.475127
 65 0.000002 -0.000000 -5.000000 -0.088726 1.558589 3.066335
 66 7.363602 1.646647 0.495663 3.141593 -1.570796 0.000000
 67 -0.000005 0.000006 3.619081 0.008255 -3.110080 -0.985231
 68 16.573919 0.000001 -0.000000 -0.000000 -0.000000 -1.065827
 69 15.128181 0.000000 0.000000 -0.102296 0.010178 0.114297
 70 5.758665 4.244730 0.000000 0.000000 0.000000 1.667687
 71 3.177726 0.000000 0.000000 0.000000 0.000000 3.141593
 72 15.708953 0.000001 0.000000 -0.051525 0.003996 0.061523
 73 0.275148 0.189215 -3.445208 3.130898 0.000409 -1.514604
 74 17.210192 0.000000 -0.000000 -0.000000 -0.000000 -1.893339
 75 -0.000000 -0.000000 -4.999999 -0.079433 1.546568 -1.570857
 76 0.000002 -0.000003 -3.619081 0.577895 2.675801 -0.242118
 77 16.573921 -0.000001 -0.000002 -0.000000 -0.000000 -1.163030
 78 15.128181 0.000001 0.000001 0.089479 0.309197 0.659208
 79 5.758666 4.244730 -0.000001 -0.000000 -0.000000 1.815142
 80 4.003934 -0.000000 0.000001 0.000000 0.000000 0.000000
 81 15.708953 0.000001 0.000001 0.042277 0.226871 0.443133
 82 0.273998 0.191089 3.439763 -3.130907 -0.000437 -1.508107
 83 17.210194 -0.000001 -0.000002 0.000000 -0.000000 -1.937080
 84 -0.000000 -0.000001 5.000000 -0.079319 1.595025 -1.570742
end
