version 1
nodes
  0 "Bip01"  -1
  1 "Bip01 Footsteps"   0
  2 "Bip01 Pelvis"   0
  3 "Bip01 Spine"   2
  4 "Bip01 Spine1"   3
  5 "Bip01 Spine2"   4
  6 "Bip01 Spine3"   5
  7 "Bip01 Neck"   6
  8 "Bip01 Head"   7
  9 "Dummy21"   8
 10 "Bip01 L Clavicle"   7
 11 "Bip01 L UpperArm"  10
 12 "Bip01 L Forearm"  11
 13 "Bip01 L Hand"  12
 14 "Bip01 L Finger0"  13
 15 "Bip01 L Finger01"  14
 16 "Dummy06"  15
 17 "Bip01 L Finger1"  13
 18 "Bip01 L Finger11"  17
 19 "Dummy03"  18
 20 "-- L knuckle"  17
 21 "-- L knuckle_end"  20
 22 "-- L Forearm twist"  12
 23 "-- L Forearm twist_end"  22
 24 "-- L wrist"  12
 25 "-- L wrist_end"  24
 26 "-- L Elbow"  11
 27 "--L Elbow_end"  26
 28 "-- L bicep twist"  11
 29 "-- L bicep twist_end"  28
 30 "-- L shoulder outside"  10
 31 "-- L shoulder outside_end"  30
 32 "-- L Shoulder inside"  10
 33 "-- L Shoulder inside_end"  32
 34 "Bip01 R Clavicle"   7
 35 "Bip01 R UpperArm"  34
 36 "Bip01 R Forearm"  35
 37 "Bip01 R Hand"  36
 38 "Bip01 R Finger0"  37
 39 "Bip01 R Finger01"  38
 40 "Dummy01"  39
 41 "Bip01 R Finger1"  37
 42 "Bip01 R Finger11"  41
 43 "Dummy02"  42
 44 "-- R knuckle"  41
 45 "Point06"  44
 46 "flash"  37
 47 "Line02"  46
 48 "-- R wrist"  36
 49 "-- R wrist_end"  48
 50 "-- R forearm twist"  36
 51 "-- R forearm twist_end"  50
 52 "-- R Elbow"  35
 53 "--R Elbow_end"  52
 54 "-- R bicep twist"  35
 55 "-- R bicep twist_end"  54
 56 "-- R Shoulder inside"  34
 57 "-- R Shoulder inside_end"  56
 58 "-- R shoulder outside"  34
 59 "-- R shoulder outside_end"  58
 60 "-- Neck smooth"   6
 61 "-- neck smooth end"  60
 62 "-- R Butt"   2
 63 "--R Butt_end"  62
 64 "-- L butt"   2
 65 "--L butt_end"  64
 66 "GIGN01"   2
 67 "Bip01 L Thigh"   2
 68 "Bip01 L Calf"  67
 69 "Bip01 L Foot"  68
 70 "Bip01 L Toe0"  69
 71 "Dummy16"  70
 72 "-- L ankle"  68
 73 "-- L ankleend"  72
 74 "-- L Knee"  67
 75 "--L Knee_end"  74
 76 "Bip01 R Thigh"   2
 77 "Bip01 R Calf"  76
 78 "Bip01 R Foot"  77
 79 "Bip01 R Toe0"  78
 80 "Dummy11"  79
 81 "-- R Ankle"  77
 82 "-- R ankleend"  81
 83 "-- R Knee"  76
 84 "--R Knee_end"  83
end
skeleton
time 0
  0 -0.650000 0.000000 33.899605 -0.025849 0.174554 -1.569172
  1 5.685103 0.833236 -32.227173 -0.174512 -0.026131 1.569196
  2 -2.276935 0.000003 -1.238188 -1.570795 -1.570451 0.000000
  3 1.796616 0.711840 -0.000104 0.031421 0.173412 -0.156465
  4 4.118631 -0.003272 -0.000221 0.067708 -0.103949 0.002229
  5 4.118638 -0.003272 -0.000221 0.067431 -0.029115 0.007016
  6 4.118631 -0.003272 -0.000221 0.067994 0.118104 0.016824
  7 4.119293 -0.001517 -0.003122 1.086640 0.076327 0.569256
  8 4.443600 0.000000 0.000000 0.230838 -0.710941 -0.270780
  9 9.024062 0.000000 0.000000 0.000000 0.000000 0.000000
 10 -0.132124 1.532647 0.804172 0.888665 -0.361873 1.831981
 11 6.384777 0.000000 0.000001 -1.167836 0.847635 -0.636243
 12 10.242681 0.000002 -0.000001 -0.000000 -0.000000 -2.007721
 13 11.375561 -0.000000 -0.000001 -2.519790 0.479748 -0.048218
 14 0.728677 0.023431 -1.008287 1.202975 0.409398 0.881725
 15 2.136498 -0.000002 0.000001 0.000000 -0.000000 -0.078540
 16 2.313142 -0.000000 0.000001 0.000000 0.000000 0.000000
 17 3.115506 -0.886041 -0.021430 -0.166499 0.000392 0.514872
 18 2.011150 -0.000001 0.000002 -0.000000 -0.000000 1.322792
 19 2.141379 0.000001 -0.000001 0.000000 0.000000 0.000000
 20 1.734172 0.000000 0.000000 0.000000 -0.000000 0.660693
 21 0.000006 -4.440593 0.000001 1.570544 -0.062990 -0.195737
 22 5.999998 -0.000000 -0.000001 -2.282430 -0.000000 0.000000
 23 0.000001 -4.440600 -0.000002 1.569944 -0.062987 0.004053
 24 11.375563 -0.000002 0.000003 -2.025455 0.264021 0.039854
 25 -0.000002 -4.440603 -0.000001 1.570144 -0.062988 0.004040
 26 10.510128 0.000001 -0.000001 0.000000 -0.000000 -2.574657
 27 0.000001 -1.748401 4.999999 0.000000 0.004007 1.602291
 28 5.500000 0.000002 -0.000001 0.354609 0.000000 0.000000
 29 -0.000005 -1.940598 5.000000 -0.044472 0.004003 -0.000180
 30 6.551491 0.000001 0.000001 -0.729312 0.664464 -0.250201
 31 -0.000002 -1.940600 5.000003 -0.027189 -0.053376 0.005295
 32 6.551491 0.000001 0.000001 -0.286559 0.318528 -0.041897
 33 -0.000001 -1.940600 4.999998 -0.066572 -0.152786 -0.110311
 34 0.132128 -1.525570 -0.804171 -1.366915 2.098465 1.237736
 35 6.384776 -0.000000 -0.000000 -0.596168 -0.320976 -0.361543
 36 10.242684 -0.000001 0.000001 0.000000 0.000000 -1.994971
 37 11.375560 -0.000000 -0.000002 1.881343 0.348105 -0.576953
 38 0.728680 0.023431 1.008292 -1.579583 -0.319038 0.212973
 39 2.136494 0.000000 -0.000001 -0.000000 -0.000000 1.282817
 40 2.313139 -0.000001 -0.000001 0.000000 0.000000 3.141593
 41 3.115506 -0.886041 0.021432 0.420766 0.316066 0.167178
 42 2.011150 -0.000000 0.000001 -0.000000 0.000000 2.082010
 43 2.141379 0.000001 0.000001 0.000000 0.000000 3.141593
 44 1.734171 -0.000001 0.000001 -0.000000 -0.000000 1.041748
 45 0.136316 -3.738193 2.525892 1.493698 2.759406 -1.474501
 46 29.831055 -1.859325 -2.180629 0.219518 -0.013465 1.468817
 47 -0.319470 8.644889 1.613176 -1.569415 -0.026309 0.036285
 48 11.389366 -0.000821 0.158779 1.745668 0.156750 -0.305969
 49 0.000002 -4.440598 0.000000 1.570144 -3.078602 0.004040
 50 6.000000 -0.000001 -0.000002 1.745668 0.000000 -0.000000
 51 0.000002 -4.440600 0.000000 1.569944 -3.078603 0.004053
 52 10.510133 -0.000000 0.000001 0.000000 0.000000 -2.568282
 53 0.000000 -1.748399 -5.000000 3.141593 0.004007 -1.539299
 54 5.500002 -0.000000 0.000001 0.187034 -0.000000 -0.000000
 55 -0.000001 0.000000 -5.000000 -0.044472 3.137589 -0.000177
 56 6.551490 -0.000001 0.000000 -0.187034 -0.095458 -0.189131
 57 -1.266845 -1.937443 -4.950562 -0.066572 -2.988806 -0.110308
 58 6.551491 -0.000000 -0.000000 -0.187034 -0.095458 -0.189131
 59 0.699369 -1.944208 -5.006849 -0.027189 -3.088217 0.005298
 60 4.226147 -0.003201 0.000000 0.537611 0.124535 0.285357
 61 -0.000001 5.000001 -0.000002 -0.153564 0.000087 2.718702
 62 0.000004 -0.000005 -3.713580 0.365818 2.880119 -0.191589
 63 0.000002 0.000000 5.000000 3.053196 1.558589 -0.074928
 64 -0.000007 0.000005 3.713580 -0.001619 -3.122277 -0.475127
 65 0.000002 -0.000000 -5.000000 -0.088726 1.558589 3.066335
 66 7.363602 1.646647 0.495663 3.141593 -1.570796 0.000000
 67 -0.000005 0.000006 3.619081 0.008255 -3.110080 -0.985231
 68 16.573919 0.000001 -0.000000 -0.000000 -0.000000 -1.065827
 69 15.128181 0.000000 0.000000 -0.102296 0.010178 0.114297
 70 5.758665 4.244730 0.000000 0.000000 0.000000 1.667687
 71 3.177726 0.000000 0.000000 0.000000 0.000000 3.141593
 72 15.708953 0.000001 0.000000 -0.051525 0.003996 0.061523
 73 0.275148 0.189215 -3.445208 3.130898 0.000409 -1.514604
 74 17.210192 0.000000 -0.000000 -0.000000 -0.000000 -1.893339
 75 -0.000000 -0.000000 -4.999999 -0.079433 1.546568 -1.570857
 76 0.000002 -0.000003 -3.619081 0.577895 2.675801 -0.242118
 77 16.573921 -0.000001 -0.000002 -0.000000 -0.000000 -1.163030
 78 15.128181 0.000001 0.000001 0.089479 0.309197 0.659208
 79 5.758666 4.244730 -0.000001 -0.000000 -0.000000 1.815142
 80 4.003934 -0.000000 0.000001 0.000000 0.000000 0.000000
 81 15.708953 0.000001 0.000001 0.042277 0.226871 0.443133
 82 0.273998 0.191089 3.439763 -3.130907 -0.000437 -1.508107
 83 17.210194 -0.000001 -0.000002 0.000000 -0.000000 -1.937080
 84 -0.000000 -0.000001 5.000000 -0.079319 1.595025 -1.570742
time 1
  0 -0.650000 0.000000 33.899605 -0.025849 0.174554 -1.569172
  1 5.685103 0.833236 -32.227173 -0.174512 -0.026131 1.569196
  2 -2.276935 0.000003 -1.238188 -1.570795 -1.570451 0.000000
  3 1.796611 0.711841 -0.000123 0.037597 0.177435 -0.155285
  4 4.118636 -0.003271 -0.000240 0.073798 -0.091788 0.002490
  5 4.118631 -0.003270 -0.000241 0.073563 -0.025187 0.007129
  6 4.118632 -0.003270 -0.000241 0.074193 0.120379 0.017729
  7 4.119437 -0.001503 -0.003093 1.065855 0.044564 0.586434
  8 4.443598 0.000000 -0.000001 0.264667 -0.704148 -0.366370
  9 9.024063 0.000001 -0.000000 0.000000 0.000000 0.000000
 10 -0.077196 1.518513 0.837382 0.882985 -0.383041 1.797952
 11 6.384777 -0.000000 0.000005 -1.202322 0.837596 -0.678716
 12 10.242680 0.000001 -0.000002 0.000000 0.000000 -1.925899
 13 11.375561 -0.000000 -0.000000 -2.553029 0.473159 -0.117750
 14 0.728681 0.023431 -1.008292 1.202975 0.409398 0.881725
 15 2.136496 -0.000001 0.000000 -0.000000 0.000000 -0.078540
 16 2.313139 0.000001 0.000000 0.000000 0.000000 0.000000
 17 3.115505 -0.886041 -0.021431 -0.166499 0.000392 0.514872
 18 2.011150 -0.000002 -0.000001 0.000000 -0.000000 1.322792
 19 2.141381 0.000001 -0.000001 0.000000 0.000000 0.000000
 20 1.734172 0.000000 -0.000002 0.000000 -0.000000 0.660693
 21 0.000007 -4.440594 -0.000000 1.570544 -0.062990 -0.195737
 22 6.000001 -0.000002 0.000000 -2.308010 -0.000000 -0.000000
 23 0.000002 -4.440600 0.000000 1.569944 -0.062987 0.004053
 24 11.375563 -0.000002 0.000004 -2.038546 0.269631 0.005280
 25 -0.000001 -4.440604 -0.000002 1.570144 -0.062988 0.004040
 26 10.510130 0.000002 -0.000002 -0.000000 0.000000 -2.533746
 27 0.000001 -1.748401 4.999999 0.000000 0.004007 1.602291
 28 5.499998 0.000001 -0.000001 0.362115 -0.000000 -0.000000
 29 -0.000002 -1.940597 4.999999 -0.044472 0.004003 -0.000180
 30 6.551492 -0.000000 0.000002 -0.749000 0.661187 -0.272919
 31 0.000001 -1.940598 5.000001 -0.027189 -0.053376 0.005295
 32 6.551492 -0.000000 0.000002 -0.292093 0.318561 -0.049747
 33 -0.000000 -1.940600 4.999997 -0.066572 -0.152786 -0.110311
 34 0.077195 -1.511436 -0.837387 -1.360934 2.070595 1.219025
 35 6.384778 0.000000 -0.000001 -0.556919 -0.325922 -0.369756
 36 10.242681 -0.000001 -0.000001 -0.000000 -0.000000 -1.988676
 37 11.375560 -0.000000 0.000000 1.891075 0.330604 -0.523486
 38 0.728681 0.023430 1.008293 -1.579583 -0.319038 0.212973
 39 2.136497 -0.000001 -0.000001 0.000000 0.000000 1.282817
 40 2.313139 0.000001 0.000000 0.000000 0.000000 3.141593
 41 3.115507 -0.886042 0.021432 0.420766 0.316066 0.167178
 42 2.011151 0.000001 0.000002 -0.000000 0.000000 2.082010
 43 2.141380 -0.000001 -0.000001 0.000000 0.000000 3.141593
 44 1.734171 -0.000001 -0.000000 -0.000000 -0.000000 1.041748
 45 0.136315 -3.738192 2.525891 1.493698 2.759406 -1.474501
 46 29.831055 -1.859324 -2.180626 0.219518 -0.013465 1.468817
 47 -0.319470 8.644890 1.613173 -1.569415 -0.026309 0.036285
 48 11.389366 -0.000820 0.158781 1.747021 0.150633 -0.282602
 49 0.000000 -4.440600 0.000001 1.570144 -3.078602 0.004040
 50 5.999999 0.000001 -0.000000 1.747021 0.000000 0.000000
 51 0.000002 -4.440602 0.000000 1.569944 -3.078603 0.004053
 52 10.510129 0.000000 0.000001 -0.000000 0.000000 -2.565134
 53 0.000002 -1.748400 -5.000001 -3.141593 0.004007 -1.539299
 54 5.499998 -0.000000 0.000000 0.175727 -0.000000 -0.000000
 55 -0.000000 -0.000000 -4.999999 -0.044472 3.137590 -0.000177
 56 6.551490 0.000000 -0.000002 -0.175727 -0.099635 -0.190277
 57 -1.266844 -1.937443 -4.950560 -0.066572 -2.988806 -0.110308
 58 6.551490 0.000000 -0.000003 -0.175727 -0.099635 -0.190277
 59 0.699370 -1.944208 -5.006847 -0.027189 -3.088217 0.005298
 60 4.226143 -0.003201 -0.000000 0.529622 0.108946 0.298374
 61 0.000000 5.000001 0.000002 -0.153565 0.000087 2.718702
 62 0.000004 -0.000005 -3.713580 0.365818 2.880119 -0.191589
 63 0.000002 0.000000 5.000000 3.053196 1.558589 -0.074928
 64 -0.000007 0.000005 3.713580 -0.001619 -3.122277 -0.475127
 65 0.000002 -0.000000 -5.000000 -0.088726 1.558589 3.066335
 66 7.363602 1.646647 0.495663 3.141593 -1.570796 0.000000
 67 -0.000005 0.000006 3.619081 0.008255 -3.110080 -0.985231
 68 16.573919 0.000001 -0.000000 -0.000000 -0.000000 -1.065827
 69 15.128181 0.000000 0.000000 -0.102296 0.010178 0.114297
 70 5.758665 4.244730 0.000000 0.000000 0.000000 1.667687
 71 3.177726 0.000000 0.000000 0.000000 0.000000 3.141593
 72 15.708953 0.000001 0.000000 -0.051525 0.003996 0.061523
 73 0.275148 0.189215 -3.445208 3.130898 0.000409 -1.514604
 74 17.210192 0.000000 -0.000000 -0.000000 -0.000000 -1.893339
 75 -0.000000 -0.000000 -4.999999 -0.079433 1.546568 -1.570857
 76 0.000002 -0.000003 -3.619081 0.577895 2.675801 -0.242118
 77 16.573921 -0.000001 -0.000002 -0.000000 -0.000000 -1.163030
 78 15.128181 0.000001 0.000001 0.089479 0.309197 0.659208
 79 5.758666 4.244730 -0.000001 -0.000000 -0.000000 1.815142
 80 4.003934 -0.000000 0.000001 0.000000 0.000000 0.000000
 81 15.708953 0.000001 0.000001 0.042277 0.226871 0.443133
 82 0.273998 0.191089 3.439763 -3.130907 -0.000437 -1.508107
 83 17.210194 -0.000001 -0.000002 0.000000 -0.000000 -1.937080
 84 -0.000000 -0.000001 5.000000 -0.079319 1.595025 -1.570742
time 2
  0 -0.650000 0.000000 33.899605 -0.025849 0.174554 -1.569172
  1 5.685103 0.833236 -32.227173 -0.174512 -0.026131 1.569196
  2 -2.276935 0.000003 -1.238188 -1.570795 -1.570451 0.000000
  3 1.796611 0.711842 -0.000143 0.043781 0.181450 -0.154078
  4 4.118637 -0.003269 -0.000260 0.079885 -0.079629 0.002825
  5 4.118629 -0.003269 -0.000261 0.079694 -0.021259 0.007266
  6 4.118631 -0.003269 -0.000261 0.080396 0.122649 0.018649
  7 4.119581 -0.001486 -0.003059 1.044547 0.013169 0.604252
  8 4.443600 -0.000001 0.000001 0.297589 -0.695372 -0.461128
  9 9.024060 0.000000 0.000000 0.000000 0.000000 0.000000
 10 -0.022819 1.501684 0.870263 0.878040 -0.404377 1.763752
 11 6.384778 0.000000 -0.000001 -1.236048 0.822270 -0.722453
 12 10.242682 0.000001 -0.000002 0.000000 0.000000 -1.840407
 13 11.375561 -0.000001 -0.000001 -2.585435 0.465199 -0.185263
 14 0.728682 0.023431 -1.008292 1.202975 0.409399 0.881725
 15 2.136497 -0.000003 -0.000000 -0.000000 -0.000000 -0.078540
 16 2.313137 0.000001 -0.000001 0.000000 0.000000 0.000000
 17 3.115506 -0.886042 -0.021430 -0.166499 0.000392 0.514872
 18 2.011150 0.000001 0.000004 0.000000 0.000000 1.322792
 19 2.141381 0.000001 -0.000001 0.000000 0.000000 0.000000
 20 1.734173 0.000001 0.000001 -0.000000 0.000000 0.660693
 21 0.000007 -4.440594 -0.000001 1.570544 -0.062990 -0.195737
 22 6.000000 -0.000001 -0.000000 -2.333381 0.000000 0.000000
 23 0.000002 -4.440600 0.000001 1.569944 -0.062987 0.004053
 24 11.375561 -0.000001 0.000002 -2.051541 0.274314 -0.028470
 25 0.000001 -4.440604 0.000001 1.570144 -0.062988 0.004040
 26 10.510130 0.000001 -0.000001 0.000000 0.000000 -2.491000
 27 0.000002 -1.748401 4.999998 0.000000 0.004007 1.602291
 28 5.500000 0.000002 -0.000002 0.370240 0.000000 -0.000000
 29 -0.000003 -1.940599 5.000000 -0.044472 0.004003 -0.000180
 30 6.551492 0.000000 0.000001 -0.769562 0.654750 -0.297922
 31 0.000001 -1.940599 5.000001 -0.027189 -0.053376 0.005295
 32 6.551492 0.000000 0.000001 -0.298110 0.317595 -0.058856
 33 -0.000002 -1.940600 4.999998 -0.066572 -0.152786 -0.110311
 34 0.022822 -1.494608 -0.870263 -1.354494 2.042887 1.200418
 35 6.384777 0.000000 0.000001 -0.518020 -0.329644 -0.378127
 36 10.242682 0.000000 -0.000002 0.000000 0.000000 -1.982381
 37 11.375562 0.000000 0.000003 1.899753 0.312639 -0.470516
 38 0.728680 0.023431 1.008291 -1.579583 -0.319038 0.212973
 39 2.136497 -0.000000 0.000001 0.000000 0.000000 1.282817
 40 2.313138 0.000000 0.000001 0.000000 0.000000 3.141593
 41 3.115506 -0.886040 0.021431 0.420766 0.316066 0.167178
 42 2.011150 0.000000 0.000004 -0.000000 0.000000 2.082010
 43 2.141379 -0.000000 -0.000000 0.000000 0.000000 3.141593
 44 1.734171 -0.000002 0.000002 0.000000 -0.000000 1.041748
 45 0.136315 -3.738193 2.525892 1.493698 2.759406 -1.474501
 46 29.831053 -1.859323 -2.180625 0.219518 -0.013465 1.468817
 47 -0.319471 8.644888 1.613176 -1.569415 -0.026309 0.036285
 48 11.389366 -0.000820 0.158784 1.748241 0.144391 -0.258809
 49 0.000000 -4.440599 -0.000000 1.570144 -3.078602 0.004040
 50 6.000000 -0.000001 0.000001 1.748241 0.000000 0.000000
 51 0.000001 -4.440600 0.000000 1.569944 -3.078603 0.004053
 52 10.510131 -0.000001 -0.000001 -0.000000 -0.000000 -2.561987
 53 0.000001 -1.748401 -5.000002 3.141593 0.004007 -1.539299
 54 5.500000 -0.000000 -0.000001 0.164601 0.000000 0.000000
 55 0.000000 -0.000001 -5.000000 -0.044472 3.137590 -0.000177
 56 6.551491 0.000000 0.000001 -0.164601 -0.103174 -0.191543
 57 -1.266845 -1.937443 -4.950560 -0.066572 -2.988806 -0.110308
 58 6.551492 0.000000 0.000001 -0.164601 -0.103174 -0.191543
 59 0.699369 -1.944207 -5.006847 -0.027189 -3.088217 0.005298
 60 4.226147 -0.003201 0.000000 0.521344 0.093552 0.311244
 61 -0.000000 5.000000 -0.000001 -0.153564 0.000087 2.718702
 62 0.000004 -0.000005 -3.713580 0.365818 2.880119 -0.191589
 63 0.000002 0.000000 5.000000 3.053196 1.558589 -0.074928
 64 -0.000007 0.000005 3.713580 -0.001619 -3.122277 -0.475127
 65 0.000002 -0.000000 -5.000000 -0.088726 1.558589 3.066335
 66 7.363602 1.646647 0.495663 3.141593 -1.570796 0.000000
 67 -0.000005 0.000006 3.619081 0.008255 -3.110080 -0.985231
 68 16.573919 0.000001 -0.000000 -0.000000 -0.000000 -1.065827
 69 15.128181 0.000000 0.000000 -0.102296 0.010178 0.114297
 70 5.758665 4.244730 0.000000 0.000000 0.000000 1.667687
 71 3.177726 0.000000 0.000000 0.000000 0.000000 3.141593
 72 15.708953 0.000001 0.000000 -0.051525 0.003996 0.061523
 73 0.275148 0.189215 -3.445208 3.130898 0.000409 -1.514604
 74 17.210192 0.000000 -0.000000 -0.000000 -0.000000 -1.893339
 75 -0.000000 -0.000000 -4.999999 -0.079433 1.546568 -1.570857
 76 0.000002 -0.000003 -3.619081 0.577895 2.675801 -0.242118
 77 16.573921 -0.000001 -0.000002 -0.000000 -0.000000 -1.163030
 78 15.128181 0.000001 0.000001 0.089479 0.309197 0.659208
 79 5.758666 4.244730 -0.000001 -0.000000 -0.000000 1.815142
 80 4.003934 -0.000000 0.000001 0.000000 0.000000 0.000000
 81 15.708953 0.000001 0.000001 0.042277 0.226871 0.443133
 82 0.273998 0.191089 3.439763 -3.130907 -0.000437 -1.508107
 83 17.210194 -0.000001 -0.000002 0.000000 -0.000000 -1.937080
 84 -0.000000 -0.000001 5.000000 -0.079319 1.595025 -1.570742
time 3
  0 -0.650000 0.000000 33.899605 -0.025849 0.174554 -1.569172
  1 5.685103 0.833236 -32.227173 -0.174512 -0.026131 1.569196
  2 -2.276935 0.000003 -1.238188 -1.570795 -1.570451 0.000000
  3 1.796615 0.711843 -0.000163 0.049976 0.185459 -0.152845
  4 4.118631 -0.003267 -0.000281 0.085971 -0.067473 0.003233
  5 4.118633 -0.003267 -0.000281 0.085826 -0.017332 0.007427
  6 4.118636 -0.003267 -0.000281 0.086603 0.124913 0.019583
  7 4.119720 -0.001467 -0.003020 1.022681 -0.017834 0.622737
  8 4.443600 -0.000000 -0.000000 0.329327 -0.684702 -0.554840
  9 9.024062 0.000001 0.000000 0.000000 0.000000 0.000000
 10 0.030898 1.482193 0.902743 0.873852 -0.425857 1.729344
 11 6.384778 0.000000 0.000004 -1.268857 0.801945 -0.766884
 12 10.242683 0.000001 0.000001 -0.000000 -0.000000 -1.751066
 13 11.375561 -0.000001 -0.000001 -2.616991 0.456269 -0.251285
 14 0.728682 0.023431 -1.008292 1.202975 0.409398 0.881725
 15 2.136496 0.000000 0.000000 -0.000000 0.000000 -0.078540
 16 2.313141 0.000000 0.000001 0.000000 0.000000 0.000000
 17 3.115507 -0.886041 -0.021429 -0.166499 0.000392 0.514872
 18 2.011150 0.000001 0.000002 -0.000000 0.000000 1.322792
 19 2.141379 0.000000 -0.000002 0.000000 0.000000 0.000000
 20 1.734172 0.000001 0.000003 -0.000000 -0.000000 0.660693
 21 0.000006 -4.440594 -0.000002 1.570544 -0.062990 -0.195737
 22 5.999999 -0.000000 -0.000001 -2.358365 0.000000 0.000000
 23 0.000002 -4.440602 0.000001 1.569944 -0.062987 0.004053
 24 11.375561 -0.000000 0.000002 -2.064335 0.278344 -0.061476
 25 -0.000001 -4.440603 -0.000001 1.570144 -0.062988 0.004040
 26 10.510132 0.000002 0.000000 0.000000 -0.000000 -2.446329
 27 0.000001 -1.748401 5.000000 -0.000000 0.004007 1.602291
 28 5.500000 0.000001 0.000000 0.378937 -0.000000 0.000000
 29 -0.000001 -1.940597 5.000000 -0.044472 0.004003 -0.000180
 30 6.551492 0.000000 0.000003 -0.790826 0.645330 -0.324786
 31 0.000002 -1.940598 5.000001 -0.027189 -0.053376 0.005295
 32 6.551492 0.000000 0.000003 -0.304577 0.315685 -0.069064
 33 -0.000001 -1.940599 4.999998 -0.066572 -0.152786 -0.110311
 34 -0.030893 -1.475116 -0.902744 -1.347558 2.015357 1.181944
 35 6.384777 0.000000 -0.000001 -0.479547 -0.332154 -0.386573
 36 10.242681 -0.000000 0.000001 0.000000 0.000000 -1.976086
 37 11.375560 -0.000000 -0.000001 1.907376 0.294265 -0.418010
 38 0.728682 0.023432 1.008292 -1.579583 -0.319038 0.212973
 39 2.136498 -0.000001 -0.000001 -0.000000 0.000000 1.282817
 40 2.313139 -0.000000 -0.000000 0.000000 0.000000 3.141593
 41 3.115509 -0.886041 0.021432 0.420766 0.316066 0.167178
 42 2.011150 -0.000000 -0.000003 0.000000 0.000000 2.082010
 43 2.141379 -0.000001 0.000002 0.000000 0.000000 3.141593
 44 1.734173 -0.000001 -0.000000 0.000000 -0.000000 1.041748
 45 0.136315 -3.738194 2.525891 1.493698 2.759406 -1.474501
 46 29.831057 -1.859326 -2.180622 0.219518 -0.013465 1.468817
 47 -0.319469 8.644887 1.613174 -1.569415 -0.026309 0.036285
 48 11.389365 -0.000820 0.158781 1.749326 0.137990 -0.234475
 49 -0.000000 -4.440598 -0.000001 1.570144 -3.078602 0.004040
 50 5.999999 0.000001 0.000001 1.749326 0.000000 -0.000000
 51 0.000002 -4.440601 0.000001 1.569944 -3.078603 0.004053
 52 10.510131 -0.000000 0.000003 0.000000 0.000000 -2.558839
 53 -0.000001 -1.748400 -5.000000 -3.141593 0.004007 -1.539299
 54 5.499998 -0.000000 -0.000000 0.153647 -0.000000 -0.000000
 55 -0.000001 -0.000000 -4.999999 -0.044472 3.137590 -0.000177
 56 6.551492 -0.000000 -0.000000 -0.153647 -0.106094 -0.192910
 57 -1.266843 -1.937444 -4.950561 -0.066572 -2.988806 -0.110308
 58 6.551492 -0.000000 -0.000000 -0.153647 -0.106094 -0.192910
 59 0.699370 -1.944209 -5.006848 -0.027189 -3.088217 0.005298
 60 4.226149 -0.003202 0.000001 0.512792 0.078368 0.323976
 61 -0.000001 5.000000 0.000001 -0.153564 0.000087 2.718702
 62 0.000004 -0.000005 -3.713580 0.365818 2.880119 -0.191589
 63 0.000002 0.000000 5.000000 3.053196 1.558589 -0.074928
 64 -0.000007 0.000005 3.713580 -0.001619 -3.122277 -0.475127
 65 0.000002 -0.000000 -5.000000 -0.088726 1.558589 3.066335
 66 7.363602 1.646647 0.495663 3.141593 -1.570796 0.000000
 67 -0.000005 0.000006 3.619081 0.008255 -3.110080 -0.985231
 68 16.573919 0.000001 -0.000000 -0.000000 -0.000000 -1.065827
 69 15.128181 0.000000 0.000000 -0.102296 0.010178 0.114297
 70 5.758665 4.244730 0.000000 0.000000 0.000000 1.667687
 71 3.177726 0.000000 0.000000 0.000000 0.000000 3.141593
 72 15.708953 0.000001 0.000000 -0.051525 0.003996 0.061523
 73 0.275148 0.189215 -3.445208 3.130898 0.000409 -1.514604
 74 17.210192 0.000000 -0.000000 -0.000000 -0.000000 -1.893339
 75 -0.000000 -0.000000 -4.999999 -0.079433 1.546568 -1.570857
 76 0.000002 -0.000003 -3.619081 0.577895 2.675801 -0.242118
 77 16.573921 -0.000001 -0.000002 -0.000000 -0.000000 -1.163030
 78 15.128181 0.000001 0.000001 0.089479 0.309197 0.659208
 79 5.758666 4.244730 -0.000001 -0.000000 -0.000000 1.815142
 80 4.003934 -0.000000 0.000001 0.000000 0.000000 0.000000
 81 15.708953 0.000001 0.000001 0.042277 0.226871 0.443133
 82 0.273998 0.191089 3.439763 -3.130907 -0.000437 -1.508107
 83 17.210194 -0.000001 -0.000002 0.000000 -0.000000 -1.937080
 84 -0.000000 -0.000001 5.000000 -0.079319 1.595025 -1.570742
time 4
  0 -0.650000 0.000000 33.899605 -0.025849 0.174554 -1.569172
  1 5.685103 0.833236 -32.227173 -0.174512 -0.026131 1.569196
  2 -2.276935 0.000003 -1.238188 -1.570795 -1.570451 0.000000
  3 1.796610 0.711844 -0.000183 0.056180 0.189459 -0.151586
  4 4.118636 -0.003266 -0.000300 0.092058 -0.055319 0.003716
  5 4.118628 -0.003266 -0.000302 0.091958 -0.013407 0.007612
  6 4.118635 -0.003266 -0.000301 0.092814 0.127171 0.020531
  7 4.119862 -0.001445 -0.002975 1.000224 -0.048420 0.641914
  8 4.443596 0.000001 0.000000 0.359641 -0.672248 -0.647324
  9 9.024061 0.000001 -0.000001 0.000000 0.000000 0.000000
 10 0.083862 1.460071 0.934774 0.870444 -0.447456 1.694688
 11 6.384777 0.000000 -0.000002 -1.300609 0.776767 -0.811501
 12 10.242682 0.000002 -0.000001 0.000000 0.000000 -1.657571
 13 11.375560 -0.000001 -0.000000 -2.647730 0.446690 -0.316353
 14 0.728679 0.023431 -1.008294 1.202975 0.409398 0.881725
 15 2.136497 0.000002 0.000000 -0.000000 -0.000000 -0.078540
 16 2.313138 0.000000 0.000000 0.000000 0.000000 0.000000
 17 3.115505 -0.886041 -0.021432 -0.166499 0.000392 0.514872
 18 2.011149 -0.000000 0.000002 -0.000000 -0.000000 1.322792
 19 2.141380 0.000000 0.000000 0.000000 0.000000 0.000000
 20 1.734172 -0.000001 0.000000 -0.000000 -0.000000 0.660693
 21 0.000007 -4.440595 -0.000000 1.570544 -0.062990 -0.195737
 22 6.000000 -0.000002 0.000000 -2.382863 0.000000 -0.000000
 23 0.000002 -4.440601 0.000000 1.569944 -0.062987 0.004053
 24 11.375560 -0.000001 0.000003 -2.076853 0.281972 -0.093835
 25 0.000001 -4.440603 -0.000002 1.570144 -0.062988 0.004040
 26 10.510131 0.000003 -0.000002 -0.000000 0.000000 -2.399582
 27 0.000000 -1.748401 5.000000 -0.000000 0.004007 1.602290
 28 5.500000 0.000002 -0.000000 0.388176 0.000000 0.000000
 29 -0.000003 -1.940598 5.000000 -0.044472 0.004003 -0.000180
 30 6.551491 0.000000 -0.000002 -0.812655 0.633031 -0.353151
 31 0.000001 -1.940598 5.000002 -0.027189 -0.053376 0.005295
 32 6.551491 0.000000 -0.000002 -0.311468 0.312856 -0.080241
 33 0.000001 -1.940598 4.999995 -0.066572 -0.152786 -0.110311
 34 -0.083862 -1.452994 -0.934773 -1.340078 1.988021 1.163641
 35 6.384776 0.000000 0.000001 -0.441572 -0.333468 -0.395012
 36 10.242682 -0.000000 0.000001 -0.000000 0.000000 -1.969790
 37 11.375561 -0.000003 -0.000002 1.913945 0.275537 -0.365936
 38 0.728681 0.023431 1.008292 -1.579583 -0.319038 0.212973
 39 2.136496 0.000000 0.000001 -0.000000 0.000000 1.282817
 40 2.313138 -0.000002 -0.000001 0.000000 0.000000 3.141593
 41 3.115505 -0.886041 0.021430 0.420766 0.316066 0.167178
 42 2.011151 -0.000000 0.000003 -0.000000 0.000000 2.082010
 43 2.141379 0.000000 -0.000002 0.000000 0.000000 3.141593
 44 1.734172 -0.000001 0.000001 0.000000 -0.000000 1.041748
 45 0.136315 -3.738194 2.525893 1.493698 2.759406 -1.474501
 46 29.831053 -1.859324 -2.180628 0.219518 -0.013465 1.468817
 47 -0.319471 8.644888 1.613177 -1.569415 -0.026309 0.036285
 48 11.389366 -0.000820 0.158782 1.750267 0.131391 -0.209486
 49 0.000000 -4.440599 -0.000001 1.570144 -3.078602 0.004040
 50 6.000000 -0.000001 -0.000001 1.750268 0.000000 0.000000
 51 0.000002 -4.440601 -0.000000 1.569944 -3.078603 0.004053
 52 10.510132 -0.000000 0.000002 -0.000000 -0.000000 -2.555692
 53 -0.000001 -1.748398 -5.000001 3.141593 0.004007 -1.539299
 54 5.500001 0.000000 0.000001 0.142852 -0.000000 -0.000000
 55 0.000001 0.000000 -5.000000 -0.044472 3.137590 -0.000177
 56 6.551492 0.000000 0.000003 -0.142852 -0.108419 -0.194356
 57 -1.266845 -1.937443 -4.950562 -0.066572 -2.988806 -0.110308
 58 6.551492 0.000000 0.000002 -0.142852 -0.108419 -0.194356
 59 0.699370 -1.944208 -5.006848 -0.027189 -3.088217 0.005298
 60 4.226145 -0.003201 0.000000 0.503983 0.063404 0.336583
 61 0.000002 5.000000 -0.000000 -0.153564 0.000087 2.718702
 62 0.000004 -0.000005 -3.713580 0.365818 2.880119 -0.191589
 63 0.000002 0.000000 5.000000 3.053196 1.558589 -0.074928
 64 -0.000007 0.000005 3.713580 -0.001619 -3.122277 -0.475127
 65 0.000002 -0.000000 -5.000000 -0.088726 1.558589 3.066335
 66 7.363602 1.646647 0.495663 3.141593 -1.570796 0.000000
 67 -0.000005 0.000006 3.619081 0.008255 -3.110080 -0.985231
 68 16.573919 0.000001 -0.000000 -0.000000 -0.000000 -1.065827
 69 15.128181 0.000000 0.000000 -0.102296 0.010178 0.114297
 70 5.758665 4.244730 0.000000 0.000000 0.000000 1.667687
 71 3.177726 0.000000 0.000000 0.000000 0.000000 3.141593
 72 15.708953 0.000001 0.000000 -0.051525 0.003996 0.061523
 73 0.275148 0.189215 -3.445208 3.130898 0.000409 -1.514604
 74 17.210192 0.000000 -0.000000 -0.000000 -0.000000 -1.893339
 75 -0.000000 -0.000000 -4.999999 -0.079433 1.546568 -1.570857
 76 0.000002 -0.000003 -3.619081 0.577895 2.675801 -0.242118
 77 16.573921 -0.000001 -0.000002 -0.000000 -0.000000 -1.163030
 78 15.128181 0.000001 0.000001 0.089479 0.309197 0.659208
 79 5.758666 4.244730 -0.000001 -0.000000 -0.000000 1.815142
 80 4.003934 -0.000000 0.000001 0.000000 0.000000 0.000000
 81 15.708953 0.000001 0.000001 0.042277 0.226871 0.443133
 82 0.273998 0.191089 3.439763 -3.130907 -0.000437 -1.508107
 83 17.210194 -0.000001 -0.000002 0.000000 -0.000000 -1.937080
 84 -0.000000 -0.000001 5.000000 -0.079319 1.595025 -1.570742
time 5
  0 -0.650000 0.000000 33.899605 -0.025849 0.174554 -1.569172
  1 5.685103 0.833236 -32.227173 -0.174512 -0.026131 1.569196
  2 -2.276935 0.000003 -1.238188 -1.570795 -1.570451 0.000000
  3 1.796610 0.711844 -0.000183 0.056180 0.189459 -0.151586
  4 4.118636 -0.003266 -0.000300 0.092058 -0.055319 0.003716
  5 4.118628 -0.003266 -0.000302 0.091958 -0.013407 0.007612
  6 4.118635 -0.003266 -0.000301 0.092814 0.127171 0.020531
  7 4.119862 -0.001445 -0.002975 1.000224 -0.048420 0.641914
  8 4.443596 0.000001 0.000000 0.359641 -0.672248 -0.647324
  9 9.024061 0.000001 -0.000001 0.000000 0.000000 0.000000
 10 0.083862 1.460071 0.934774 0.870444 -0.447456 1.694688
 11 6.384777 0.000000 -0.000002 -1.313882 0.732358 -0.810843
 12 10.242682 0.000000 -0.000001 -0.000000 -0.000000 -1.608177
 13 11.375560 0.000000 -0.000001 -2.685822 0.439985 -0.341904
 14 0.728678 0.023431 -1.008290 1.202975 0.409398 0.881725
 15 2.136496 0.000003 -0.000002 0.000000 -0.000000 -0.078540
 16 2.313141 -0.000002 0.000001 0.000000 0.000000 0.000000
 17 3.115506 -0.886040 -0.021431 -0.166499 0.000392 0.514872
 18 2.011150 -0.000001 -0.000000 0.000000 -0.000000 1.322791
 19 2.141380 -0.000000 -0.000001 0.000000 0.000000 0.000000
 20 1.734173 -0.000000 -0.000001 -0.000000 -0.000000 0.660693
 21 0.000005 -4.440595 -0.000001 1.570544 -0.062990 -0.195737
 22 6.000000 -0.000001 -0.000000 -2.413636 -0.000000 -0.000000
 23 -0.000001 -4.440600 0.000001 1.569944 -0.062987 0.004053
 24 11.375563 -0.000002 0.000003 -2.094511 0.283503 -0.105340
 25 -0.000002 -4.440602 0.000001 1.570144 -0.062988 0.004040
 26 10.510130 0.000001 -0.000001 0.000000 0.000000 -2.374885
 27 -0.000000 -1.748401 4.999998 -0.000000 0.004007 1.602291
 28 5.500001 0.000002 -0.000001 0.399929 -0.000000 0.000000
 29 -0.000002 -1.940597 5.000000 -0.044472 0.004003 -0.000180
 30 6.551491 0.000000 -0.000002 -0.832692 0.607075 -0.370665
 31 0.000001 -1.940601 5.000002 -0.027189 -0.053376 0.005295
 32 6.551491 0.000000 -0.000002 -0.320892 0.303883 -0.089258
 33 0.000000 -1.940599 5.000000 -0.066572 -0.152786 -0.110311
 34 -0.083862 -1.452994 -0.934773 -1.310372 1.981022 1.201572
 35 6.384777 0.000000 0.000002 -0.397170 -0.351827 -0.432709
 36 10.242679 -0.000000 -0.000002 0.000000 0.000000 -1.963495
 37 11.375558 0.000003 -0.000002 1.919464 0.256506 -0.314258
 38 0.728679 0.023431 1.008291 -1.579583 -0.319038 0.212973
 39 2.136496 -0.000001 -0.000001 0.000000 -0.000000 1.282817
 40 2.313139 -0.000000 0.000000 0.000000 0.000000 3.141593
 41 3.115504 -0.886042 0.021431 0.420766 0.316066 0.167178
 42 2.011151 -0.000000 0.000001 -0.000000 0.000000 2.082010
 43 2.141378 -0.000001 0.000002 0.000000 0.000000 3.141593
 44 1.734173 -0.000001 0.000002 -0.000000 0.000000 1.041748
 45 0.136315 -3.738193 2.525894 1.493698 2.759406 -1.474501
 46 29.831053 -1.859329 -2.180625 0.219518 -0.013465 1.468817
 47 -0.319469 8.644890 1.613176 -1.569415 -0.026309 0.036285
 48 11.389365 -0.000819 0.158779 1.751049 0.124563 -0.183760
 49 0.000002 -4.440601 0.000000 1.570144 -3.078602 0.004040
 50 5.999999 0.000001 -0.000002 1.751049 0.000000 -0.000000
 51 0.000003 -4.440602 0.000001 1.569944 -3.078603 0.004053
 52 10.510129 -0.000000 -0.000001 -0.000000 0.000000 -2.552544
 53 0.000001 -1.748400 -5.000003 -3.141593 0.004007 -1.539299
 54 5.500000 -0.000000 0.000001 0.130969 0.000000 0.000000
 55 0.000000 -0.000000 -5.000000 -0.044472 3.137589 -0.000177
 56 6.551491 0.000000 0.000003 -0.130969 -0.113345 -0.201017
 57 -1.266843 -1.937443 -4.950556 -0.066572 -2.988806 -0.110308
 58 6.551492 0.000001 0.000002 -0.130969 -0.113345 -0.201017
 59 0.699371 -1.944208 -5.006846 -0.027189 -3.088217 0.005298
 60 4.226145 -0.003201 0.000000 0.503983 0.063404 0.336583
 61 0.000002 5.000000 -0.000000 -0.153564 0.000087 2.718702
 62 0.000004 -0.000005 -3.713580 0.365818 2.880119 -0.191589
 63 0.000002 0.000000 5.000000 3.053196 1.558589 -0.074928
 64 -0.000007 0.000005 3.713580 -0.001619 -3.122277 -0.475127
 65 0.000002 -0.000000 -5.000000 -0.088726 1.558589 3.066335
 66 7.363602 1.646647 0.495663 3.141593 -1.570796 0.000000
 67 -0.000005 0.000006 3.619081 0.008255 -3.110080 -0.985231
 68 16.573919 0.000001 -0.000000 -0.000000 -0.000000 -1.065827
 69 15.128181 0.000000 0.000000 -0.102296 0.010178 0.114297
 70 5.758665 4.244730 0.000000 0.000000 0.000000 1.667687
 71 3.177726 0.000000 0.000000 0.000000 0.000000 3.141593
 72 15.708953 0.000001 0.000000 -0.051525 0.003996 0.061523
 73 0.275148 0.189215 -3.445208 3.130898 0.000409 -1.514604
 74 17.210192 0.000000 -0.000000 -0.000000 -0.000000 -1.893339
 75 -0.000000 -0.000000 -4.999999 -0.079433 1.546568 -1.570857
 76 0.000002 -0.000003 -3.619081 0.577895 2.675801 -0.242118
 77 16.573921 -0.000001 -0.000002 -0.000000 -0.000000 -1.163030
 78 15.128181 0.000001 0.000001 0.089479 0.309197 0.659208
 79 5.758666 4.244730 -0.000001 -0.000000 -0.000000 1.815142
 80 4.003934 -0.000000 0.000001 0.000000 0.000000 0.000000
 81 15.708953 0.000001 0.000001 0.042277 0.226871 0.443133
 82 0.273998 0.191089 3.439763 -3.130907 -0.000437 -1.508107
 83 17.210194 -0.000001 -0.000002 0.000000 -0.000000 -1.937080
 84 -0.000000 -0.000001 5.000000 -0.079319 1.595025 -1.570742
time 6
  0 -0.650000 0.000000 33.899605 -0.025849 0.174554 -1.569172
  1 5.685103 0.833236 -32.227173 -0.174512 -0.026131 1.569196
  2 -2.276935 0.000003 -1.238188 -1.570795 -1.570451 0.000000
  3 1.796610 0.711844 -0.000183 0.056180 0.189459 -0.151586
  4 4.118636 -0.003266 -0.000300 0.092058 -0.055319 0.003716
  5 4.118628 -0.003266 -0.000302 0.091958 -0.013407 0.007612
  6 4.118635 -0.003266 -0.000301 0.092814 0.127171 0.020531
  7 4.119862 -0.001445 -0.002975 1.000224 -0.048420 0.641914
  8 4.443596 0.000001 0.000000 0.359641 -0.672248 -0.647324
  9 9.024061 0.000001 -0.000001 0.000000 0.000000 0.000000
 10 0.083862 1.460071 0.934774 0.870444 -0.447456 1.694688
 11 6.384777 0.000000 -0.000002 -1.326258 0.687034 -0.811348
 12 10.242683 -0.000001 0.000001 -0.000000 -0.000000 -1.557461
 13 11.375561 -0.000002 -0.000001 -2.722024 0.433007 -0.366306
 14 0.728682 0.023431 -1.008294 1.202975 0.409398 0.881725
 15 2.136498 -0.000003 0.000002 0.000000 -0.000000 -0.078540
 16 2.313138 0.000001 -0.000000 0.000000 0.000000 0.000000
 17 3.115507 -0.886041 -0.021432 -0.166499 0.000392 0.514872
 18 2.011151 0.000000 0.000000 0.000000 -0.000000 1.322792
 19 2.141380 0.000001 0.000000 0.000000 0.000000 0.000000
 20 1.734173 0.000000 -0.000001 -0.000000 0.000000 0.660693
 21 0.000007 -4.440594 -0.000002 1.570544 -0.062990 -0.195737
 22 6.000001 -0.000002 -0.000001 -2.443176 -0.000000 0.000000
 23 0.000001 -4.440601 0.000000 1.569944 -0.062987 0.004053
 24 11.375561 -0.000001 0.000002 -2.111389 0.284922 -0.116433
 25 -0.000002 -4.440603 -0.000001 1.570144 -0.062988 0.004040
 26 10.510131 0.000000 0.000000 0.000000 0.000000 -2.349527
 27 -0.000004 -1.748401 4.999999 0.000000 0.004007 1.602291
 28 5.500001 0.000000 0.000000 0.411297 0.000000 -0.000000
 29 -0.000003 -1.940601 5.000000 -0.044472 0.004003 -0.000180
 30 6.551491 0.000000 -0.000002 -0.851602 0.579991 -0.388304
 31 0.000001 -1.940599 5.000000 -0.027189 -0.053376 0.005295
 32 6.551491 0.000000 -0.000002 -0.330011 0.294503 -0.098690
 33 0.000001 -1.940598 4.999995 -0.066572 -0.152786 -0.110311
 34 -0.083862 -1.452994 -0.934773 -1.279357 1.974427 1.240665
 35 6.384776 0.000001 0.000001 -0.351485 -0.367959 -0.471269
 36 10.242682 0.000000 0.000002 -0.000000 0.000000 -1.957200
 37 11.375561 -0.000003 -0.000001 1.923937 0.237227 -0.262937
 38 0.728680 0.023430 1.008293 -1.579583 -0.319038 0.212973
 39 2.136498 -0.000001 -0.000000 -0.000000 0.000000 1.282817
 40 2.313139 -0.000001 -0.000000 0.000000 0.000000 3.141593
 41 3.115507 -0.886042 0.021433 0.420766 0.316066 0.167178
 42 2.011150 -0.000001 0.000002 -0.000000 0.000000 2.082010
 43 2.141380 0.000000 -0.000003 0.000000 0.000000 3.141593
 44 1.734172 -0.000001 0.000002 0.000000 -0.000000 1.041748
 45 0.136315 -3.738193 2.525888 1.493698 2.759406 -1.474501
 46 29.831057 -1.859328 -2.180622 0.219518 -0.013465 1.468817
 47 -0.319470 8.644890 1.613174 -1.569415 -0.026309 0.036285
 48 11.389366 -0.000821 0.158780 1.751648 0.117476 -0.157236
 49 0.000000 -4.440598 -0.000002 1.570144 -3.078602 0.004040
 50 6.000000 -0.000001 -0.000001 1.751648 0.000000 -0.000000
 51 0.000003 -4.440602 0.000000 1.569944 -3.078603 0.004053
 52 10.510131 0.000000 0.000001 0.000000 0.000000 -2.549397
 53 0.000000 -1.748400 -5.000000 -3.141593 0.004007 -1.539299
 54 5.500001 -0.000000 0.000001 0.119063 0.000000 0.000000
 55 0.000001 -0.000001 -5.000001 -0.044472 3.137589 -0.000177
 56 6.551490 0.000001 0.000000 -0.119063 -0.117809 -0.207335
 57 -1.266844 -1.937443 -4.950559 -0.066572 -2.988806 -0.110308
 58 6.551490 0.000000 0.000000 -0.119063 -0.117809 -0.207335
 59 0.699370 -1.944207 -5.006847 -0.027189 -3.088217 0.005298
 60 4.226145 -0.003201 0.000000 0.503983 0.063404 0.336583
 61 0.000002 5.000000 -0.000000 -0.153564 0.000087 2.718702
 62 0.000004 -0.000005 -3.713580 0.365818 2.880119 -0.191589
 63 0.000002 0.000000 5.000000 3.053196 1.558589 -0.074928
 64 -0.000007 0.000005 3.713580 -0.001619 -3.122277 -0.475127
 65 0.000002 -0.000000 -5.000000 -0.088726 1.558589 3.066335
 66 7.363602 1.646647 0.495663 3.141593 -1.570796 0.000000
 67 -0.000005 0.000006 3.619081 0.008255 -3.110080 -0.985231
 68 16.573919 0.000001 -0.000000 -0.000000 -0.000000 -1.065827
 69 15.128181 0.000000 0.000000 -0.102296 0.010178 0.114297
 70 5.758665 4.244730 0.000000 0.000000 0.000000 1.667687
 71 3.177726 0.000000 0.000000 0.000000 0.000000 3.141593
 72 15.708953 0.000001 0.000000 -0.051525 0.003996 0.061523
 73 0.275148 0.189215 -3.445208 3.130898 0.000409 -1.514604
 74 17.210192 0.000000 -0.000000 -0.000000 -0.000000 -1.893339
 75 -0.000000 -0.000000 -4.999999 -0.079433 1.546568 -1.570857
 76 0.000002 -0.000003 -3.619081 0.577895 2.675801 -0.242118
 77 16.573921 -0.000001 -0.000002 -0.000000 -0.000000 -1.163030
 78 15.128181 0.000001 0.000001 0.089479 0.309197 0.659208
 79 5.758666 4.244730 -0.000001 -0.000000 -0.000000 1.815142
 80 4.003934 -0.000000 0.000001 0.000000 0.000000 0.000000
 81 15.708953 0.000001 0.000001 0.042277 0.226871 0.443133
 82 0.273998 0.191089 3.439763 -3.130907 -0.000437 -1.508107
 83 17.210194 -0.000001 -0.000002 0.000000 -0.000000 -1.937080
 84 -0.000000 -0.000001 5.000000 -0.079319 1.595025 -1.570742
end
