version 1
nodes
  0 "Bip01"  -1
  1 "Bip01 Footsteps"   0
  2 "Bip01 Pelvis"   0
  3 "Bip01 Spine"   2
  4 "Bip01 Spine1"   3
  5 "Bip01 Spine2"   4
  6 "Bip01 Spine3"   5
  7 "Bip01 Neck"   6
  8 "Bip01 Head"   7
  9 "Dummy21"   8
 10 "Bip01 L Clavicle"   7
 11 "Bip01 L UpperArm"  10
 12 "Bip01 L Forearm"  11
 13 "Bip01 L Hand"  12
 14 "Bip01 L Finger0"  13
 15 "Bip01 L Finger01"  14
 16 "Dummy06"  15
 17 "Bip01 L Finger1"  13
 18 "Bip01 L Finger11"  17
 19 "Dummy03"  18
 20 "-- L knuckle"  17
 21 "-- L knuckle_end"  20
 22 "-- L Forearm twist"  12
 23 "-- L Forearm twist_end"  22
 24 "-- L wrist"  12
 25 "-- L wrist_end"  24
 26 "-- L Elbow"  11
 27 "--L Elbow_end"  26
 28 "-- L bicep twist"  11
 29 "-- L bicep twist_end"  28
 30 "-- L shoulder outside"  10
 31 "-- L shoulder outside_end"  30
 32 "-- L Shoulder inside"  10
 33 "-- L Shoulder inside_end"  32
 34 "Bip01 R Clavicle"   7
 35 "Bip01 R UpperArm"  34
 36 "Bip01 R Forearm"  35
 37 "Bip01 R Hand"  36
 38 "Bip01 R Finger0"  37
 39 "Bip01 R Finger01"  38
 40 "Dummy01"  39
 41 "Bip01 R Finger1"  37
 42 "Bip01 R Finger11"  41
 43 "Dummy02"  42
 44 "-- R knuckle"  41
 45 "Point06"  44
 46 "flash"  37
 47 "Line02"  46
 48 "-- R wrist"  36
 49 "-- R wrist_end"  48
 50 "-- R forearm twist"  36
 51 "-- R forearm twist_end"  50
 52 "-- R Elbow"  35
 53 "--R Elbow_end"  52
 54 "-- R bicep twist"  35
 55 "-- R bicep twist_end"  54
 56 "-- R Shoulder inside"  34
 57 "-- R Shoulder inside_end"  56
 58 "-- R shoulder outside"  34
 59 "-- R shoulder outside_end"  58
 60 "-- Neck smooth"   6
 61 "-- neck smooth end"  60
 62 "-- R Butt"   2
 63 "--R Butt_end"  62
 64 "-- L butt"   2
 65 "--L butt_end"  64
 66 "GIGN01"   2
 67 "Bip01 L Thigh"   2
 68 "Bip01 L Calf"  67
 69 "Bip01 L Foot"  68
 70 "Bip01 L Toe0"  69
 71 "Dummy16"  70
 72 "-- L ankle"  68
 73 "-- L ankleend"  72
 74 "-- L Knee"  67
 75 "--L Knee_end"  74
 76 "Bip01 R Thigh"   2
 77 "Bip01 R Calf"  76
 78 "Bip01 R Foot"  77
 79 "Bip01 R Toe0"  78
 80 "Dummy11"  79
 81 "-- R Ankle"  77
 82 "-- R ankleend"  81
 83 "-- R Knee"  76
 84 "--R Knee_end"  83
end
skeleton
time 0
  0 -0.650000 0.000000 33.899605 -0.025849 0.174554 -1.569172
  1 5.685103 0.833236 -32.227173 -0.174512 -0.026131 1.569196
  2 -2.276935 0.000003 -1.238188 -1.570795 -1.570451 0.000000
  3 1.797455 0.714171 0.003135 -1.323127 0.163925 -0.239515
  4 4.118679 -0.003249 0.000438 -0.134648 -0.093521 0.036912
  5 4.118684 -0.003250 0.000438 -0.135811 -0.158069 0.045790
  6 4.118682 -0.003249 0.000438 -0.134649 -0.093533 0.036825
  7 4.117694 -0.003205 -0.001192 0.392746 0.491729 -0.081931
  8 4.443599 -0.000000 0.000000 -0.306891 -0.045632 0.375540
  9 9.024060 0.000002 0.000001 0.000000 0.000000 0.000000
 10 -0.818102 0.588120 1.411131 1.071786 -0.605515 2.138459
 11 6.384776 -0.000000 0.000003 -0.805081 0.794391 -1.400696
 12 10.242682 0.000001 -0.000001 0.000000 0.000000 -1.144617
 13 11.375562 0.000002 -0.000002 -2.758926 0.263539 0.290085
 14 0.728681 0.023431 -1.008291 1.202975 0.409399 0.881725
 15 2.136493 0.000001 0.000001 0.000000 -0.000000 -0.078540
 16 2.313140 -0.000001 -0.000001 0.000000 0.000000 0.000000
 17 3.115507 -0.886040 -0.021431 -0.166499 0.000392 0.514872
 18 2.011150 -0.000002 0.000000 0.000000 -0.000000 1.322792
 19 2.141381 -0.000001 0.000001 0.000000 0.000000 0.000000
 20 1.734173 0.000002 -0.000000 -0.000000 -0.000000 0.660693
 21 0.000007 -4.440593 -0.000000 1.570544 -0.062990 -0.195737
 22 6.000000 0.000002 -0.000001 -2.492469 0.000000 0.000000
 23 0.000002 -4.440600 -0.000002 1.569944 -0.062987 0.004053
 24 11.375561 0.000002 0.000001 -2.166954 0.090084 0.205777
 25 -0.000000 -4.440604 0.000000 1.570144 -0.062988 0.004040
 26 10.510131 0.000002 -0.000002 0.000000 -0.000000 -2.143105
 27 -0.000001 -1.748401 4.999999 -0.000000 0.004007 1.602291
 28 5.499999 0.000001 -0.000000 0.072361 0.000000 -0.000000
 29 -0.000002 -1.940598 5.000000 -0.044472 0.004003 -0.000180
 30 6.551491 -0.000000 0.000000 -0.289083 0.684959 -0.793085
 31 0.000001 -1.940598 5.000001 -0.027189 -0.053376 0.005295
 32 6.551491 -0.000000 0.000000 -0.046800 0.327832 -0.302329
 33 0.000001 -1.940600 4.999997 -0.066572 -0.152786 -0.110311
 34 0.818109 -0.581043 -1.411130 -1.482854 2.543121 1.314762
 35 6.384778 0.000001 -0.000000 -1.189371 0.035650 -0.196028
 36 10.242682 -0.000001 0.000000 0.000000 0.000000 -2.266690
 37 11.375559 -0.000002 0.000001 2.189844 0.915685 -0.361424
 38 0.728680 0.023431 1.008291 -1.579583 -0.319038 0.212973
 39 2.136498 -0.000002 0.000000 -0.000000 0.000000 1.282817
 40 2.313140 0.000001 0.000000 0.000000 0.000000 3.141593
 41 3.115506 -0.886041 0.021430 0.420766 0.316066 0.167178
 42 2.011150 0.000000 0.000001 0.000000 0.000000 2.082010
 43 2.141379 -0.000000 -0.000000 0.000000 0.000000 3.141593
 44 1.734172 -0.000000 0.000001 0.000000 0.000000 1.041748
 45 0.136314 -3.738193 2.525890 1.493698 2.759406 -1.474501
 46 29.831055 -1.859325 -2.180634 0.219518 -0.013465 1.468817
 47 -0.319471 8.644889 1.613176 -1.569415 -0.026309 0.036285
 48 11.389365 -0.000820 0.158783 1.889188 0.433898 -0.233840
 49 -0.000000 -4.440599 -0.000002 1.570144 -3.078602 0.004040
 50 5.999997 -0.000002 -0.000000 1.889188 -0.000000 0.000000
 51 0.000000 -4.440601 0.000001 1.569944 -3.078603 0.004053
 52 10.510131 0.000000 0.000000 0.000000 0.000000 -2.704141
 53 -0.000001 -1.748398 -5.000000 3.141593 0.004007 -1.539299
 54 5.500000 0.000000 0.000000 0.372379 0.000000 0.000000
 55 0.000000 0.000002 -5.000003 -0.044472 3.137589 -0.000177
 56 6.551491 0.000000 -0.000004 -0.372379 0.078138 -0.116014
 57 -1.266843 -1.937444 -4.950557 -0.066572 -2.988806 -0.110308
 58 6.551493 0.000000 -0.000000 -0.372379 0.078138 -0.116014
 59 0.699370 -1.944208 -5.006845 -0.027189 -3.088217 0.005298
 60 4.226143 -0.003201 0.000001 0.197087 0.253043 -0.072926
 61 0.000000 5.000001 -0.000000 -0.153564 0.000087 2.718702
 62 0.000004 -0.000005 -3.713580 0.365818 2.880119 -0.191589
 63 0.000002 0.000000 5.000000 3.053196 1.558589 -0.074928
 64 -0.000007 0.000005 3.713580 -0.001619 -3.122277 -0.475127
 65 0.000002 -0.000000 -5.000000 -0.088726 1.558589 3.066335
 66 7.363602 1.646647 0.495663 3.141593 -1.570796 0.000000
 67 -0.000005 0.000006 3.619081 0.008255 -3.110080 -0.985231
 68 16.573919 0.000001 -0.000000 -0.000000 -0.000000 -1.065827
 69 15.128181 0.000000 0.000000 -0.102296 0.010178 0.114297
 70 5.758665 4.244730 0.000000 0.000000 0.000000 1.667687
 71 3.177726 0.000000 0.000000 0.000000 0.000000 3.141593
 72 15.708953 0.000001 0.000000 -0.051525 0.003996 0.061523
 73 0.275148 0.189215 -3.445208 3.130898 0.000409 -1.514604
 74 17.210192 0.000000 -0.000000 -0.000000 -0.000000 -1.893339
 75 -0.000000 -0.000000 -4.999999 -0.079433 1.546568 -1.570857
 76 0.000002 -0.000003 -3.619081 0.577895 2.675801 -0.242118
 77 16.573921 -0.000001 -0.000002 -0.000000 -0.000000 -1.163030
 78 15.128181 0.000001 0.000001 0.089479 0.309197 0.659208
 79 5.758666 4.244730 -0.000001 -0.000000 -0.000000 1.815142
 80 4.003934 -0.000000 0.000001 0.000000 0.000000 0.000000
 81 15.708953 0.000001 0.000001 0.042277 0.226871 0.443133
 82 0.273998 0.191089 3.439763 -3.130907 -0.000437 -1.508107
 83 17.210194 -0.000001 -0.000002 0.000000 -0.000000 -1.937080
 84 -0.000000 -0.000001 5.000000 -0.079319 1.595025 -1.570742
time 1
  0 -0.650000 0.000000 33.899605 -0.025849 0.174554 -1.569172
  1 5.685103 0.833236 -32.227173 -0.174512 -0.026131 1.569196
  2 -2.276935 0.000003 -1.238188 -1.570795 -1.570451 0.000000
  3 1.797455 0.714146 0.003127 -1.315251 0.165817 -0.238222
  4 4.118681 -0.003253 0.000412 -0.126622 -0.093820 0.036162
  5 4.118682 -0.003253 0.000412 -0.127722 -0.158436 0.044515
  6 4.118680 -0.003252 0.000412 -0.126623 -0.093831 0.036074
  7 4.118060 -0.003276 -0.001223 0.394974 0.455174 0.017037
  8 4.443595 -0.000000 -0.000000 -0.292361 -0.069069 0.213144
  9 9.024062 -0.000002 0.000000 0.000000 0.000000 0.000000
 10 -0.761740 0.602374 1.436479 1.045093 -0.642529 2.058687
 11 6.384776 0.000000 -0.000001 -0.829088 0.764590 -1.449870
 12 10.242681 0.000000 -0.000000 0.000000 -0.000000 -1.065174
 13 11.375559 0.000003 -0.000001 -2.773830 0.274231 0.241809
 14 0.728680 0.023432 -1.008294 1.202975 0.409399 0.881725
 15 2.136497 0.000000 0.000001 0.000000 -0.000000 -0.078540
 16 2.313140 -0.000000 -0.000001 0.000000 0.000000 0.000000
 17 3.115505 -0.886043 -0.021431 -0.166499 0.000392 0.514872
 18 2.011150 -0.000001 0.000001 0.000000 -0.000000 1.322792
 19 2.141379 0.000000 0.000001 0.000000 0.000000 0.000000
 20 1.734172 -0.000000 0.000001 0.000000 0.000000 0.660693
 21 0.000002 -4.440594 0.000003 1.570544 -0.062990 -0.195737
 22 6.000000 -0.000001 -0.000000 -2.502468 -0.000000 0.000000
 23 0.000001 -4.440602 0.000001 1.569944 -0.062987 0.004053
 24 11.375561 0.000000 0.000003 -2.172326 0.104480 0.182690
 25 -0.000001 -4.440605 -0.000001 1.570144 -0.062988 0.004040
 26 10.510133 0.000002 -0.000001 -0.000000 0.000000 -2.103383
 27 0.000001 -1.748401 5.000000 0.000000 0.004007 1.602291
 28 5.500000 -0.000001 0.000000 0.082954 0.000000 -0.000000
 29 -0.000002 -1.940598 5.000000 -0.044472 0.004003 -0.000180
 30 6.551490 -0.000001 -0.000001 -0.320962 0.685751 -0.838230
 31 0.000000 -1.940598 5.000000 -0.027189 -0.053376 0.005295
 32 6.551490 -0.000000 -0.000001 -0.054470 0.329392 -0.314645
 33 -0.000001 -1.940599 4.999997 -0.066572 -0.152786 -0.110311
 34 0.761734 -0.595297 -1.436480 -1.509232 2.458972 1.248908
 35 6.384777 0.000001 0.000002 -1.161510 -0.005930 -0.118416
 36 10.242682 0.000001 -0.000001 -0.000000 -0.000000 -2.258347
 37 11.375563 0.000000 0.000002 2.145307 0.905051 -0.377856
 38 0.728681 0.023431 1.008290 -1.579583 -0.319038 0.212973
 39 2.136497 -0.000003 0.000000 0.000000 -0.000000 1.282817
 40 2.313139 -0.000001 0.000000 0.000000 0.000000 3.141593
 41 3.115507 -0.886041 0.021429 0.420766 0.316066 0.167178
 42 2.011150 0.000002 0.000002 0.000000 0.000000 2.082010
 43 2.141379 -0.000000 -0.000003 0.000000 0.000000 3.141593
 44 1.734172 -0.000001 0.000000 -0.000000 -0.000000 1.041748
 45 0.136315 -3.738192 2.525891 1.493698 2.759406 -1.474501
 46 29.831053 -1.859323 -2.180627 0.219518 -0.013465 1.468817
 47 -0.319471 8.644886 1.613176 -1.569415 -0.026309 0.036285
 48 11.389369 -0.000820 0.158784 1.871835 0.429777 -0.235448
 49 0.000000 -4.440600 -0.000002 1.570144 -3.078602 0.004040
 50 6.000001 -0.000001 0.000001 1.871836 0.000000 -0.000000
 51 0.000002 -4.440601 -0.000001 1.569944 -3.078603 0.004053
 52 10.510132 -0.000000 -0.000000 0.000000 0.000000 -2.699970
 53 -0.000001 -1.748402 -5.000002 -3.141593 0.004007 -1.539299
 54 5.500000 -0.000002 0.000000 0.363949 -0.000000 0.000000
 55 0.000000 -0.000000 -5.000002 -0.044472 3.137589 -0.000177
 56 6.551491 0.000001 0.000000 -0.363948 0.038959 -0.087350
 57 -1.266844 -1.937443 -4.950558 -0.066572 -2.988806 -0.110308
 58 6.551492 0.000001 -0.000000 -0.363948 0.038959 -0.087350
 59 0.699370 -1.944207 -5.006846 -0.027189 -3.088217 0.005298
 60 4.226143 -0.003201 0.000000 0.194302 0.239360 -0.018170
 61 -0.000000 5.000001 -0.000000 -0.153564 0.000087 2.718702
 62 0.000004 -0.000005 -3.713580 0.365818 2.880119 -0.191589
 63 0.000002 0.000000 5.000000 3.053196 1.558589 -0.074928
 64 -0.000007 0.000005 3.713580 -0.001619 -3.122277 -0.475127
 65 0.000002 -0.000000 -5.000000 -0.088726 1.558589 3.066335
 66 7.363602 1.646647 0.495663 3.141593 -1.570796 0.000000
 67 -0.000005 0.000006 3.619081 0.008255 -3.110080 -0.985231
 68 16.573919 0.000001 -0.000000 -0.000000 -0.000000 -1.065827
 69 15.128181 0.000000 0.000000 -0.102296 0.010178 0.114297
 70 5.758665 4.244730 0.000000 0.000000 0.000000 1.667687
 71 3.177726 0.000000 0.000000 0.000000 0.000000 3.141593
 72 15.708953 0.000001 0.000000 -0.051525 0.003996 0.061523
 73 0.275148 0.189215 -3.445208 3.130898 0.000409 -1.514604
 74 17.210192 0.000000 -0.000000 -0.000000 -0.000000 -1.893339
 75 -0.000000 -0.000000 -4.999999 -0.079433 1.546568 -1.570857
 76 0.000002 -0.000003 -3.619081 0.577895 2.675801 -0.242118
 77 16.573921 -0.000001 -0.000002 -0.000000 -0.000000 -1.163030
 78 15.128181 0.000001 0.000001 0.089479 0.309197 0.659208
 79 5.758666 4.244730 -0.000001 -0.000000 -0.000000 1.815142
 80 4.003934 -0.000000 0.000001 0.000000 0.000000 0.000000
 81 15.708953 0.000001 0.000001 0.042277 0.226871 0.443133
 82 0.273998 0.191089 3.439763 -3.130907 -0.000437 -1.508107
 83 17.210194 -0.000001 -0.000002 0.000000 -0.000000 -1.937080
 84 -0.000000 -0.000001 5.000000 -0.079319 1.595025 -1.570742
time 2
  0 -0.650000 0.000000 33.899605 -0.025849 0.174554 -1.569172
  1 5.685103 0.833236 -32.227173 -0.174512 -0.026131 1.569196
  2 -2.276935 0.000003 -1.238188 -1.570795 -1.570451 0.000000
  3 1.797458 0.714121 0.003120 -1.307370 0.167699 -0.236914
  4 4.118676 -0.003255 0.000386 -0.118596 -0.094112 0.035409
  5 4.118686 -0.003256 0.000386 -0.119632 -0.158793 0.043237
  6 4.118682 -0.003256 0.000386 -0.118597 -0.094123 0.035321
  7 4.118428 -0.003309 -0.001237 0.393203 0.418601 0.114239
  8 4.443596 0.000000 -0.000000 -0.275450 -0.086464 0.050021
  9 9.024059 0.000000 0.000000 0.000000 0.000000 0.000000
 10 -0.704322 0.610102 1.462304 1.021487 -0.681161 1.977825
 11 6.384776 0.000000 0.000002 -0.851961 0.731331 -1.497259
 12 10.242681 0.000000 0.000001 -0.000000 -0.000000 -0.980604
 13 11.375560 0.000000 0.000000 -2.789490 0.286306 0.190468
 14 0.728681 0.023432 -1.008294 1.202975 0.409398 0.881725
 15 2.136498 0.000000 -0.000002 0.000000 -0.000000 -0.078540
 16 2.313140 0.000000 0.000001 0.000000 0.000000 0.000000
 17 3.115506 -0.886040 -0.021433 -0.166499 0.000392 0.514872
 18 2.011151 -0.000002 0.000002 0.000000 0.000000 1.322792
 19 2.141380 -0.000001 -0.000001 0.000000 0.000000 0.000000
 20 1.734173 -0.000000 0.000000 0.000000 0.000000 0.660693
 21 0.000004 -4.440594 0.000001 1.570544 -0.062990 -0.195737
 22 6.000001 -0.000003 0.000001 -2.513174 0.000000 0.000000
 23 0.000002 -4.440600 -0.000001 1.569944 -0.062987 0.004053
 24 11.375562 -0.000002 0.000004 -2.177798 0.120540 0.157782
 25 -0.000001 -4.440603 -0.000001 1.570144 -0.062988 0.004040
 26 10.510131 0.000001 0.000001 0.000000 0.000000 -2.061098
 27 0.000000 -1.748401 4.999999 0.000000 0.004007 1.602291
 28 5.500000 0.000001 0.000000 0.095046 -0.000000 -0.000000
 29 -0.000002 -1.940599 5.000000 -0.044472 0.004003 -0.000180
 30 6.551492 0.000000 0.000001 -0.356704 0.684223 -0.887776
 31 -0.000000 -1.940599 5.000002 -0.027189 -0.053376 0.005295
 32 6.551492 0.000000 0.000001 -0.063220 0.330362 -0.327836
 33 0.000001 -1.940599 4.999998 -0.066572 -0.152786 -0.110311
 34 0.704322 -0.603026 -1.462304 -1.535710 2.374004 1.180193
 35 6.384777 -0.000000 -0.000000 -1.137346 -0.052023 -0.042211
 36 10.242683 -0.000003 -0.000001 0.000000 -0.000000 -2.250005
 37 11.375561 0.000000 0.000002 2.101659 0.893984 -0.393294
 38 0.728681 0.023431 1.008294 -1.579583 -0.319038 0.212973
 39 2.136497 -0.000001 -0.000000 0.000000 0.000000 1.282817
 40 2.313140 0.000001 0.000000 0.000000 0.000000 3.141593
 41 3.115507 -0.886042 0.021431 0.420766 0.316066 0.167178
 42 2.011150 0.000001 0.000003 -0.000000 -0.000000 2.082010
 43 2.141379 -0.000000 -0.000001 0.000000 0.000000 3.141593
 44 1.734172 -0.000001 0.000002 0.000000 -0.000000 1.041748
 45 0.136314 -3.738192 2.525890 1.493698 2.759406 -1.474501
 46 29.831051 -1.859324 -2.180624 0.219518 -0.013465 1.468817
 47 -0.319470 8.644887 1.613179 -1.569415 -0.026309 0.036285
 48 11.389365 -0.000819 0.158783 1.854582 0.425541 -0.236991
 49 0.000000 -4.440598 -0.000001 1.570144 -3.078602 0.004040
 50 5.999999 0.000000 -0.000000 1.854582 -0.000000 -0.000000
 51 0.000001 -4.440602 0.000001 1.569944 -3.078603 0.004053
 52 10.510132 -0.000002 -0.000001 -0.000000 0.000000 -2.695799
 53 -0.000001 -1.748398 -5.000001 -3.141593 0.004007 -1.539299
 54 5.500000 -0.000003 0.000000 0.355676 0.000000 0.000000
 55 0.000000 -0.000001 -5.000000 -0.044472 3.137589 -0.000177
 56 6.551491 -0.000000 -0.000001 -0.355676 -0.014537 -0.044544
 57 -1.266843 -1.937443 -4.950561 -0.066572 -2.988806 -0.110308
 58 6.551491 -0.000000 -0.000001 -0.355676 -0.014537 -0.044544
 59 0.699372 -1.944209 -5.006846 -0.027189 -3.088217 0.005298
 60 4.226147 -0.003201 0.000000 0.190096 0.224631 0.037494
 61 0.000000 5.000000 0.000000 -0.153564 0.000087 2.718702
 62 0.000004 -0.000005 -3.713580 0.365818 2.880119 -0.191589
 63 0.000002 0.000000 5.000000 3.053196 1.558589 -0.074928
 64 -0.000007 0.000005 3.713580 -0.001619 -3.122277 -0.475127
 65 0.000002 -0.000000 -5.000000 -0.088726 1.558589 3.066335
 66 7.363602 1.646647 0.495663 3.141593 -1.570796 0.000000
 67 -0.000005 0.000006 3.619081 0.008255 -3.110080 -0.985231
 68 16.573919 0.000001 -0.000000 -0.000000 -0.000000 -1.065827
 69 15.128181 0.000000 0.000000 -0.102296 0.010178 0.114297
 70 5.758665 4.244730 0.000000 0.000000 0.000000 1.667687
 71 3.177726 0.000000 0.000000 0.000000 0.000000 3.141593
 72 15.708953 0.000001 0.000000 -0.051525 0.003996 0.061523
 73 0.275148 0.189215 -3.445208 3.130898 0.000409 -1.514604
 74 17.210192 0.000000 -0.000000 -0.000000 -0.000000 -1.893339
 75 -0.000000 -0.000000 -4.999999 -0.079433 1.546568 -1.570857
 76 0.000002 -0.000003 -3.619081 0.577895 2.675801 -0.242118
 77 16.573921 -0.000001 -0.000002 -0.000000 -0.000000 -1.163030
 78 15.128181 0.000001 0.000001 0.089479 0.309197 0.659208
 79 5.758666 4.244730 -0.000001 -0.000000 -0.000000 1.815142
 80 4.003934 -0.000000 0.000001 0.000000 0.000000 0.000000
 81 15.708953 0.000001 0.000001 0.042277 0.226871 0.443133
 82 0.273998 0.191089 3.439763 -3.130907 -0.000437 -1.508107
 83 17.210194 -0.000001 -0.000002 0.000000 -0.000000 -1.937080
 84 -0.000000 -0.000001 5.000000 -0.079319 1.595025 -1.570742
time 3
  0 -0.650000 0.000000 33.899605 -0.025849 0.174554 -1.569172
  1 5.685103 0.833236 -32.227173 -0.174512 -0.026131 1.569196
  2 -2.276935 0.000003 -1.238188 -1.570795 -1.570451 0.000000
  3 1.797457 0.714096 0.003112 -1.299484 0.169571 -0.235591
  4 4.118680 -0.003259 0.000360 -0.110569 -0.094399 0.034653
  5 4.118680 -0.003258 0.000360 -0.111542 -0.159140 0.041956
  6 4.118684 -0.003259 0.000360 -0.110570 -0.094408 0.034565
  7 4.118799 -0.003308 -0.001240 0.387644 0.382352 0.210023
  8 4.443597 -0.000000 -0.000000 -0.257580 -0.097570 -0.113557
  9 9.024060 0.000000 0.000000 0.000000 0.000000 0.000000
 10 -0.646487 0.611221 1.488321 1.001319 -0.721180 1.895465
 11 6.384776 0.000001 0.000003 -0.873651 0.694230 -1.543206
 12 10.242682 0.000001 -0.000001 -0.000000 -0.000000 -0.889823
 13 11.375562 -0.000001 -0.000001 -2.805949 0.299647 0.135479
 14 0.728680 0.023431 -1.008292 1.202975 0.409398 0.881725
 15 2.136496 0.000001 -0.000001 0.000000 0.000000 -0.078540
 16 2.313142 0.000000 -0.000001 0.000000 0.000000 0.000000
 17 3.115506 -0.886041 -0.021432 -0.166499 0.000392 0.514872
 18 2.011150 0.000001 0.000001 -0.000000 -0.000000 1.322792
 19 2.141379 0.000001 -0.000001 0.000000 0.000000 0.000000
 20 1.734171 0.000002 0.000002 -0.000000 -0.000000 0.660693
 21 0.000008 -4.440593 -0.000001 1.570544 -0.062990 -0.195737
 22 6.000000 -0.000002 -0.000001 -2.524677 -0.000000 -0.000000
 23 0.000000 -4.440600 -0.000001 1.569944 -0.062987 0.004053
 24 11.375561 -0.000001 0.000002 -2.183338 0.138266 0.130756
 25 -0.000001 -4.440603 -0.000002 1.570144 -0.062988 0.004040
 26 10.510131 0.000002 -0.000002 -0.000000 -0.000000 -2.015708
 27 0.000001 -1.748401 4.999999 0.000000 0.004007 1.602291
 28 5.499998 -0.000001 -0.000001 0.108753 0.000000 0.000000
 29 -0.000003 -1.940600 5.000000 -0.044472 0.004003 -0.000180
 30 6.551492 0.000001 0.000001 -0.396602 0.679727 -0.942542
 31 -0.000000 -1.940597 5.000000 -0.027189 -0.053376 0.005295
 32 6.551492 0.000001 0.000001 -0.073108 0.330560 -0.342066
 33 0.000000 -1.940599 4.999994 -0.066572 -0.152786 -0.110311
 34 0.646484 -0.604142 -1.488322 -1.563003 2.288509 1.107768
 35 6.384777 -0.000001 0.000003 -1.117096 -0.102099 0.032757
 36 10.242682 -0.000002 0.000001 0.000000 -0.000000 -2.241663
 37 11.375560 -0.000000 -0.000001 2.058886 0.882512 -0.407744
 38 0.728681 0.023431 1.008291 -1.579583 -0.319038 0.212973
 39 2.136496 0.000001 0.000000 -0.000000 0.000000 1.282817
 40 2.313138 0.000001 0.000001 0.000000 0.000000 3.141593
 41 3.115506 -0.886041 0.021430 0.420766 0.316066 0.167178
 42 2.011152 -0.000002 -0.000004 -0.000000 0.000000 2.082010
 43 2.141381 -0.000000 0.000001 0.000000 0.000000 3.141593
 44 1.734172 -0.000001 -0.000001 -0.000000 0.000000 1.041748
 45 0.136314 -3.738192 2.525887 1.493698 2.759406 -1.474501
 46 29.831051 -1.859321 -2.180628 0.219518 -0.013465 1.468817
 47 -0.319471 8.644887 1.613176 -1.569415 -0.026309 0.036285
 48 11.389366 -0.000819 0.158782 1.837423 0.421193 -0.238458
 49 0.000000 -4.440598 -0.000002 1.570144 -3.078602 0.004040
 50 6.000000 0.000001 -0.000000 1.837423 0.000000 0.000000
 51 -0.000000 -4.440602 0.000000 1.569944 -3.078603 0.004053
 52 10.510132 0.000001 0.000000 -0.000000 0.000000 -2.691628
 53 0.000000 -1.748398 -5.000000 3.141593 0.004007 -1.539299
 54 5.500000 -0.000000 -0.000000 0.349816 -0.000000 0.000000
 55 0.000000 -0.000001 -5.000001 -0.044472 3.137589 -0.000177
 56 6.551490 -0.000001 0.000001 -0.349816 -0.071580 0.004438
 57 -1.266843 -1.937442 -4.950561 -0.066572 -2.988806 -0.110308
 58 6.551491 -0.000001 0.000001 -0.349816 -0.071580 0.004438
 59 0.699371 -1.944208 -5.006846 -0.027189 -3.088217 0.005298
 60 4.226147 -0.003201 0.000000 0.184305 0.209124 0.092830
 61 -0.000001 5.000000 0.000000 -0.153564 0.000087 2.718702
 62 0.000004 -0.000005 -3.713580 0.365818 2.880119 -0.191589
 63 0.000002 0.000000 5.000000 3.053196 1.558589 -0.074928
 64 -0.000007 0.000005 3.713580 -0.001619 -3.122277 -0.475127
 65 0.000002 -0.000000 -5.000000 -0.088726 1.558589 3.066335
 66 7.363602 1.646647 0.495663 3.141593 -1.570796 0.000000
 67 -0.000005 0.000006 3.619081 0.008255 -3.110080 -0.985231
 68 16.573919 0.000001 -0.000000 -0.000000 -0.000000 -1.065827
 69 15.128181 0.000000 0.000000 -0.102296 0.010178 0.114297
 70 5.758665 4.244730 0.000000 0.000000 0.000000 1.667687
 71 3.177726 0.000000 0.000000 0.000000 0.000000 3.141593
 72 15.708953 0.000001 0.000000 -0.051525 0.003996 0.061523
 73 0.275148 0.189215 -3.445208 3.130898 0.000409 -1.514604
 74 17.210192 0.000000 -0.000000 -0.000000 -0.000000 -1.893339
 75 -0.000000 -0.000000 -4.999999 -0.079433 1.546568 -1.570857
 76 0.000002 -0.000003 -3.619081 0.577895 2.675801 -0.242118
 77 16.573921 -0.000001 -0.000002 -0.000000 -0.000000 -1.163030
 78 15.128181 0.000001 0.000001 0.089479 0.309197 0.659208
 79 5.758666 4.244730 -0.000001 -0.000000 -0.000000 1.815142
 80 4.003934 -0.000000 0.000001 0.000000 0.000000 0.000000
 81 15.708953 0.000001 0.000001 0.042277 0.226871 0.443133
 82 0.273998 0.191089 3.439763 -3.130907 -0.000437 -1.508107
 83 17.210194 -0.000001 -0.000002 0.000000 -0.000000 -1.937080
 84 -0.000000 -0.000001 5.000000 -0.079319 1.595025 -1.570742
time 4
  0 -0.650000 0.000000 33.899605 -0.025849 0.174554 -1.569172
  1 5.685103 0.833236 -32.227173 -0.174512 -0.026131 1.569196
  2 -2.276935 0.000003 -1.238188 -1.570795 -1.570451 0.000000
  3 1.797456 0.714071 0.003104 -1.291593 0.171432 -0.234252
  4 4.118682 -0.003262 0.000334 -0.102542 -0.094679 0.033895
  5 4.118681 -0.003262 0.000334 -0.103450 -0.159477 0.040673
  6 4.118679 -0.003261 0.000334 -0.102542 -0.094688 0.033807
  7 4.119160 -0.003269 -0.001228 0.378502 0.346754 0.304715
  8 4.443600 -0.000001 -0.000000 -0.240209 -0.102424 -0.277227
  9 9.024059 -0.000000 0.000000 0.000000 0.000000 0.000000
 10 -0.588856 0.605713 1.514249 0.985009 -0.762342 1.811112
 11 6.384777 0.000000 0.000002 -0.894222 0.652616 -1.588325
 12 10.242682 0.000000 -0.000001 -0.000000 0.000000 -0.791059
 13 11.375562 -0.000001 -0.000000 -2.823260 0.314133 0.075927
 14 0.728680 0.023432 -1.008291 1.202975 0.409399 0.881725
 15 2.136497 0.000000 -0.000000 -0.000000 -0.000000 -0.078540
 16 2.313139 0.000001 0.000000 0.000000 0.000000 0.000000
 17 3.115506 -0.886040 -0.021431 -0.166499 0.000392 0.514872
 18 2.011151 0.000002 0.000000 0.000000 -0.000000 1.322792
 19 2.141379 -0.000000 -0.000000 0.000000 0.000000 0.000000
 20 1.734171 -0.000001 0.000001 -0.000000 0.000000 0.660693
 21 0.000008 -4.440593 0.000000 1.570544 -0.062990 -0.195737
 22 6.000000 0.000000 0.000000 -2.537072 0.000000 0.000000
 23 0.000002 -4.440599 0.000001 1.569944 -0.062987 0.004053
 24 11.375561 -0.000000 0.000003 -2.188901 0.157667 0.101200
 25 -0.000002 -4.440602 0.000000 1.570144 -0.062988 0.004040
 26 10.510129 -0.000001 -0.000001 0.000000 0.000000 -1.966326
 27 0.000001 -1.748401 4.999999 0.000000 0.004007 1.602290
 28 5.500000 0.000000 -0.000001 0.124280 -0.000000 -0.000000
 29 -0.000001 -1.940599 5.000000 -0.044472 0.004003 -0.000180
 30 6.551492 0.000001 0.000001 -0.441089 0.671280 -1.003659
 31 0.000001 -1.940599 5.000001 -0.027189 -0.053376 0.005295
 32 6.551492 0.000001 0.000001 -0.084247 0.329700 -0.357551
 33 -0.000000 -1.940599 4.999998 -0.066572 -0.152786 -0.110311
 34 0.588865 -0.598640 -1.514248 1.549386 0.938793 -2.111194
 35 6.384777 0.000000 -0.000002 -1.100932 -0.155626 0.106767
 36 10.242682 0.000000 -0.000001 -0.000000 -0.000000 -2.233320
 37 11.375563 0.000001 0.000002 2.016969 0.870664 -0.421219
 38 0.728681 0.023430 1.008291 -1.579583 -0.319038 0.212973
 39 2.136496 -0.000001 -0.000000 0.000000 0.000000 1.282817
 40 2.313139 0.000000 0.000000 0.000000 0.000000 3.141593
 41 3.115506 -0.886042 0.021430 0.420766 0.316066 0.167178
 42 2.011152 -0.000001 -0.000001 0.000000 0.000000 2.082010
 43 2.141380 -0.000000 0.000000 0.000000 0.000000 3.141593
 44 1.734172 -0.000001 0.000001 -0.000000 -0.000000 1.041748
 45 0.136315 -3.738192 2.525892 1.493698 2.759406 -1.474501
 46 29.831055 -1.859325 -2.180627 0.219518 -0.013465 1.468817
 47 -0.319471 8.644887 1.613173 -1.569415 -0.026309 0.036285
 48 11.389367 -0.000821 0.158783 1.820355 0.416735 -0.239838
 49 -0.000000 -4.440601 0.000003 1.570144 -3.078602 0.004040
 50 6.000001 0.000001 0.000001 1.820355 0.000000 -0.000000
 51 0.000001 -4.440602 -0.000000 1.569944 -3.078603 0.004053
 52 10.510131 0.000001 -0.000001 0.000000 -0.000000 -2.687456
 53 -0.000000 -1.748403 -5.000002 3.141593 0.004007 -1.539299
 54 5.499999 0.000001 -0.000001 0.346250 0.000000 -0.000000
 55 0.000000 -0.000000 -4.999999 -0.044472 3.137589 -0.000177
 56 6.551491 -0.000000 0.000000 -0.346250 -0.116484 0.042858
 57 -1.266844 -1.937444 -4.950558 -0.066572 -2.988806 -0.110308
 58 6.551492 -0.000000 -0.000000 -0.346250 -0.116484 0.042858
 59 0.699372 -1.944209 -5.006845 -0.027189 -3.088217 0.005298
 60 4.226143 -0.003201 0.000001 0.176942 0.193281 0.146619
 61 0.000001 5.000001 0.000000 -0.153564 0.000087 2.718702
 62 0.000004 -0.000005 -3.713580 0.365818 2.880119 -0.191589
 63 0.000002 0.000000 5.000000 3.053196 1.558589 -0.074928
 64 -0.000007 0.000005 3.713580 -0.001619 -3.122277 -0.475127
 65 0.000002 -0.000000 -5.000000 -0.088726 1.558589 3.066335
 66 7.363602 1.646647 0.495663 3.141593 -1.570796 0.000000
 67 -0.000005 0.000006 3.619081 0.008255 -3.110080 -0.985231
 68 16.573919 0.000001 -0.000000 -0.000000 -0.000000 -1.065827
 69 15.128181 0.000000 0.000000 -0.102296 0.010178 0.114297
 70 5.758665 4.244730 0.000000 0.000000 0.000000 1.667687
 71 3.177726 0.000000 0.000000 0.000000 0.000000 3.141593
 72 15.708953 0.000001 0.000000 -0.051525 0.003996 0.061523
 73 0.275148 0.189215 -3.445208 3.130898 0.000409 -1.514604
 74 17.210192 0.000000 -0.000000 -0.000000 -0.000000 -1.893339
 75 -0.000000 -0.000000 -4.999999 -0.079433 1.546568 -1.570857
 76 0.000002 -0.000003 -3.619081 0.577895 2.675801 -0.242118
 77 16.573921 -0.000001 -0.000002 -0.000000 -0.000000 -1.163030
 78 15.128181 0.000001 0.000001 0.089479 0.309197 0.659208
 79 5.758666 4.244730 -0.000001 -0.000000 -0.000000 1.815142
 80 4.003934 -0.000000 0.000001 0.000000 0.000000 0.000000
 81 15.708953 0.000001 0.000001 0.042277 0.226871 0.443133
 82 0.273998 0.191089 3.439763 -3.130907 -0.000437 -1.508107
 83 17.210194 -0.000001 -0.000002 0.000000 -0.000000 -1.937080
 84 -0.000000 -0.000001 5.000000 -0.079319 1.595025 -1.570742
time 5
  0 -0.650000 0.000000 33.899605 -0.025849 0.174554 -1.569172
  1 5.685103 0.833236 -32.227173 -0.174512 -0.026131 1.569196
  2 -2.276935 0.000003 -1.238188 -1.570795 -1.570451 0.000000
  3 1.797456 0.714047 0.003096 -1.283697 0.173283 -0.232897
  4 4.118680 -0.003264 0.000308 -0.094514 -0.094953 0.033135
  5 4.118682 -0.003264 0.000308 -0.095357 -0.159803 0.039386
  6 4.118682 -0.003265 0.000308 -0.094515 -0.094962 0.033047
  7 4.119164 -0.003270 -0.001229 0.378502 0.346754 0.304715
  8 4.443597 -0.000000 -0.000000 -0.271162 -0.101437 -0.281596
  9 9.024062 0.000000 0.000000 0.000000 0.000000 0.000000
 10 -0.588861 0.605715 1.514248 0.985009 -0.762342 1.811111
 11 6.384776 0.000001 0.000000 -0.913900 0.605233 -1.633685
 12 10.242683 0.000000 -0.000001 0.000000 0.000000 -0.681208
 13 11.375561 0.000000 -0.000002 -2.841477 0.329639 0.010268
 14 0.728680 0.023432 -1.008293 1.202975 0.409398 0.881725
 15 2.136495 0.000000 0.000002 -0.000000 0.000000 -0.078540
 16 2.313140 0.000000 -0.000001 0.000000 0.000000 0.000000
 17 3.115508 -0.886041 -0.021432 -0.166499 0.000392 0.514872
 18 2.011151 -0.000002 -0.000001 0.000000 -0.000000 1.322792
 19 2.141381 -0.000000 -0.000001 0.000000 0.000000 0.000000
 20 1.734174 0.000001 0.000001 0.000000 -0.000000 0.660693
 21 0.000006 -4.440593 0.000001 1.570544 -0.062990 -0.195737
 22 6.000000 0.000001 -0.000001 -2.550449 -0.000000 -0.000000
 23 0.000001 -4.440600 -0.000001 1.569944 -0.062987 0.004053
 24 11.375561 0.000001 0.000001 -2.194413 0.178798 0.068452
 25 -0.000001 -4.440603 -0.000003 1.570144 -0.062988 0.004040
 26 10.510132 0.000001 -0.000001 -0.000000 0.000000 -1.911401
 27 -0.000000 -1.748401 4.999999 -0.000000 0.004007 1.602290
 28 5.499999 -0.000002 -0.000000 0.141989 -0.000000 -0.000000
 29 -0.000002 -1.940599 5.000000 -0.044472 0.004003 -0.000180
 30 6.551491 0.000001 -0.000000 -0.490875 0.657300 -1.072886
 31 0.000002 -1.940598 5.000001 -0.027189 -0.053376 0.005295
 32 6.551491 0.000001 -0.000000 -0.096852 0.327319 -0.374602
 33 0.000000 -1.940598 4.999997 -0.066572 -0.152786 -0.110311
 34 0.588862 -0.598639 -1.514248 1.558888 0.987963 -2.064221
 35 6.384777 -0.000000 0.000002 -1.089003 -0.212073 0.180193
 36 10.242682 0.000001 -0.000000 -0.000000 -0.000000 -2.224977
 37 11.375563 0.000002 0.000001 1.975887 0.858469 -0.433735
 38 0.728681 0.023431 1.008295 -1.579583 -0.319038 0.212973
 39 2.136495 0.000003 -0.000001 0.000000 -0.000000 1.282817
 40 2.313138 -0.000002 0.000000 0.000000 0.000000 3.141593
 41 3.115507 -0.886040 0.021434 0.420766 0.316066 0.167178
 42 2.011150 0.000001 0.000001 0.000000 0.000000 2.082010
 43 2.141379 -0.000000 -0.000000 0.000000 0.000000 3.141593
 44 1.734172 -0.000001 -0.000001 -0.000000 -0.000000 1.041748
 45 0.136315 -3.738192 2.525889 1.493698 2.759406 -1.474501
 46 29.831051 -1.859320 -2.180621 0.219518 -0.013465 1.468817
 47 -0.319471 8.644887 1.613176 -1.569415 -0.026309 0.036285
 48 11.389367 -0.000818 0.158782 1.803372 0.412170 -0.241123
 49 0.000000 -4.440599 0.000000 1.570144 -3.078602 0.004040
 50 6.000000 0.000002 -0.000000 1.803372 -0.000000 0.000000
 51 0.000003 -4.440601 0.000000 1.569944 -3.078603 0.004053
 52 10.510132 -0.000001 0.000001 0.000000 0.000000 -2.683285
 53 0.000000 -1.748403 -5.000002 -3.141593 0.004007 -1.539299
 54 5.500001 -0.000000 0.000001 0.342987 0.000000 0.000000
 55 0.000001 -0.000003 -4.999998 -0.044472 3.137590 -0.000177
 56 6.551491 -0.000000 -0.000001 -0.342987 -0.148111 0.067423
 57 -1.266842 -1.937443 -4.950558 -0.066572 -2.988806 -0.110308
 58 6.551491 -0.000000 -0.000001 -0.342987 -0.148111 0.067423
 59 0.699371 -1.944207 -5.006846 -0.027189 -3.088217 0.005298
 60 4.226146 -0.003202 -0.000000 0.176942 0.193281 0.146619
 61 0.000001 5.000000 0.000000 -0.153564 0.000087 2.718702
 62 0.000004 -0.000005 -3.713580 0.365818 2.880119 -0.191589
 63 0.000002 0.000000 5.000000 3.053196 1.558589 -0.074928
 64 -0.000007 0.000005 3.713580 -0.001619 -3.122277 -0.475127
 65 0.000002 -0.000000 -5.000000 -0.088726 1.558589 3.066335
 66 7.363602 1.646647 0.495663 3.141593 -1.570796 0.000000
 67 -0.000005 0.000006 3.619081 0.008255 -3.110080 -0.985231
 68 16.573919 0.000001 -0.000000 -0.000000 -0.000000 -1.065827
 69 15.128181 0.000000 0.000000 -0.102296 0.010178 0.114297
 70 5.758665 4.244730 0.000000 0.000000 0.000000 1.667687
 71 3.177726 0.000000 0.000000 0.000000 0.000000 3.141593
 72 15.708953 0.000001 0.000000 -0.051525 0.003996 0.061523
 73 0.275148 0.189215 -3.445208 3.130898 0.000409 -1.514604
 74 17.210192 0.000000 -0.000000 -0.000000 -0.000000 -1.893339
 75 -0.000000 -0.000000 -4.999999 -0.079433 1.546568 -1.570857
 76 0.000002 -0.000003 -3.619081 0.577895 2.675801 -0.242118
 77 16.573921 -0.000001 -0.000002 -0.000000 -0.000000 -1.163030
 78 15.128181 0.000001 0.000001 0.089479 0.309197 0.659208
 79 5.758666 4.244730 -0.000001 -0.000000 -0.000000 1.815142
 80 4.003934 -0.000000 0.000001 0.000000 0.000000 0.000000
 81 15.708953 0.000001 0.000001 0.042277 0.226871 0.443133
 82 0.273998 0.191089 3.439763 -3.130907 -0.000437 -1.508107
 83 17.210194 -0.000001 -0.000002 0.000000 -0.000000 -1.937080
 84 -0.000000 -0.000001 5.000000 -0.079319 1.595025 -1.570742
time 6
  0 -0.650000 0.000000 33.899605 -0.025849 0.174554 -1.569172
  1 5.685103 0.833236 -32.227173 -0.174512 -0.026131 1.569196
  2 -2.276935 0.000003 -1.238188 -1.570795 -1.570451 0.000000
  3 1.797455 0.714022 0.003088 -1.275795 0.175123 -0.231528
  4 4.118685 -0.003267 0.000282 -0.086486 -0.095222 0.032373
  5 4.118676 -0.003266 0.000282 -0.087264 -0.160119 0.038097
  6 4.118683 -0.003267 0.000282 -0.086486 -0.095229 0.032285
  7 4.119168 -0.003270 -0.001229 0.378502 0.346754 0.304715
  8 4.443598 0.000000 0.000000 -0.302110 -0.100582 -0.286030
  9 9.024059 -0.000000 0.000000 0.000000 0.000000 0.000000
 10 -0.588862 0.605716 1.514248 0.985009 -0.762342 1.811112
 11 6.384776 -0.000000 0.000003 -0.933208 0.549481 -1.681326
 12 10.242682 0.000003 -0.000001 0.000000 0.000000 -0.554076
 13 11.375561 0.000001 -0.000002 -2.860666 0.346033 -0.064513
 14 0.728681 0.023431 -1.008295 1.202975 0.409398 0.881725
 15 2.136497 0.000001 -0.000001 -0.000000 0.000000 -0.078540
 16 2.313141 -0.000000 -0.000000 0.000000 0.000000 0.000000
 17 3.115506 -0.886043 -0.021432 -0.166499 0.000392 0.514872
 18 2.011149 -0.000002 0.000000 0.000000 -0.000000 1.322792
 19 2.141380 0.000001 -0.000000 0.000000 0.000000 0.000000
 20 1.734173 0.000001 -0.000001 -0.000000 -0.000000 0.660693
 21 0.000005 -4.440593 0.000001 1.570544 -0.062990 -0.195737
 22 6.000000 0.000003 -0.000001 -2.564878 -0.000000 0.000000
 23 0.000000 -4.440599 0.000001 1.569944 -0.062987 0.004053
 24 11.375561 0.000002 0.000001 -2.199727 0.201885 0.031208
 25 -0.000001 -4.440602 -0.000002 1.570144 -0.062988 0.004040
 26 10.510131 0.000002 -0.000001 0.000000 -0.000000 -1.847835
 27 -0.000002 -1.748401 4.999998 -0.000000 0.004007 1.602291
 28 5.500000 0.000002 -0.000000 0.162590 0.000000 0.000000
 29 -0.000001 -1.940601 5.000000 -0.044472 0.004003 -0.000180
 30 6.551491 0.000000 0.000001 -0.547307 0.634899 -1.153398
 31 -0.000001 -1.940599 5.000002 -0.027189 -0.053376 0.005295
 32 6.551491 0.000000 0.000001 -0.111358 0.322559 -0.393745
 33 -0.000000 -1.940599 4.999995 -0.066572 -0.152786 -0.110311
 34 0.588861 -0.598638 -1.514248 -1.566457 2.104019 1.129188
 35 6.384777 0.000000 -0.000001 -1.081465 -0.270918 0.253504
 36 10.242682 -0.000001 -0.000001 -0.000000 0.000000 -2.216635
 37 11.375560 0.000001 0.000001 1.935615 0.845954 -0.445309
 38 0.728680 0.023431 1.008292 -1.579583 -0.319038 0.212973
 39 2.136497 -0.000001 0.000000 0.000000 0.000000 1.282817
 40 2.313140 0.000003 -0.000000 0.000000 0.000000 3.141593
 41 3.115506 -0.886041 0.021431 0.420766 0.316066 0.167178
 42 2.011151 -0.000001 0.000001 0.000000 0.000000 2.082010
 43 2.141379 -0.000000 0.000001 0.000000 0.000000 3.141593
 44 1.734172 -0.000000 0.000002 0.000000 0.000000 1.041748
 45 0.136316 -3.738191 2.525893 1.493698 2.759406 -1.474501
 46 29.831053 -1.859322 -2.180629 0.219518 -0.013465 1.468817
 47 -0.319471 8.644889 1.613178 -1.569415 -0.026309 0.036285
 48 11.389364 -0.000820 0.158781 1.786469 0.407503 -0.242302
 49 0.000000 -4.440598 -0.000002 1.570144 -3.078602 0.004040
 50 5.999998 -0.000000 -0.000001 1.786469 -0.000000 -0.000000
 51 0.000002 -4.440601 -0.000001 1.569944 -3.078603 0.004053
 52 10.510131 -0.000000 0.000000 -0.000000 -0.000000 -2.679114
 53 -0.000000 -1.748400 -5.000001 3.141593 0.004007 -1.539299
 54 5.499999 0.000000 -0.000000 0.339185 0.000000 -0.000000
 55 -0.000001 -0.000001 -5.000000 -0.044472 3.137589 -0.000177
 56 6.551491 0.000000 -0.000001 -0.339185 -0.171565 0.082798
 57 -1.266842 -1.937446 -4.950560 -0.066572 -2.988806 -0.110308
 58 6.551492 0.000000 -0.000001 -0.339185 -0.171565 0.082798
 59 0.699371 -1.944210 -5.006845 -0.027189 -3.088217 0.005298
 60 4.226146 -0.003201 0.000000 0.176942 0.193281 0.146619
 61 0.000000 5.000000 -0.000000 -0.153564 0.000087 2.718702
 62 0.000004 -0.000005 -3.713580 0.365818 2.880119 -0.191589
 63 0.000002 0.000000 5.000000 3.053196 1.558589 -0.074928
 64 -0.000007 0.000005 3.713580 -0.001619 -3.122277 -0.475127
 65 0.000002 -0.000000 -5.000000 -0.088726 1.558589 3.066335
 66 7.363602 1.646647 0.495663 3.141593 -1.570796 0.000000
 67 -0.000005 0.000006 3.619081 0.008255 -3.110080 -0.985231
 68 16.573919 0.000001 -0.000000 -0.000000 -0.000000 -1.065827
 69 15.128181 0.000000 0.000000 -0.102296 0.010178 0.114297
 70 5.758665 4.244730 0.000000 0.000000 0.000000 1.667687
 71 3.177726 0.000000 0.000000 0.000000 0.000000 3.141593
 72 15.708953 0.000001 0.000000 -0.051525 0.003996 0.061523
 73 0.275148 0.189215 -3.445208 3.130898 0.000409 -1.514604
 74 17.210192 0.000000 -0.000000 -0.000000 -0.000000 -1.893339
 75 -0.000000 -0.000000 -4.999999 -0.079433 1.546568 -1.570857
 76 0.000002 -0.000003 -3.619081 0.577895 2.675801 -0.242118
 77 16.573921 -0.000001 -0.000002 -0.000000 -0.000000 -1.163030
 78 15.128181 0.000001 0.000001 0.089479 0.309197 0.659208
 79 5.758666 4.244730 -0.000001 -0.000000 -0.000000 1.815142
 80 4.003934 -0.000000 0.000001 0.000000 0.000000 0.000000
 81 15.708953 0.000001 0.000001 0.042277 0.226871 0.443133
 82 0.273998 0.191089 3.439763 -3.130907 -0.000437 -1.508107
 83 17.210194 -0.000001 -0.000002 0.000000 -0.000000 -1.937080
 84 -0.000000 -0.000001 5.000000 -0.079319 1.595025 -1.570742
end
