version 1
nodes
  0 "Bip01"  -1
  1 "Bip01 Footsteps"   0
  2 "Bip01 Pelvis"   0
  3 "Bip01 Spine"   2
  4 "Bip01 Spine1"   3
  5 "Bip01 Spine2"   4
  6 "Bip01 Spine3"   5
  7 "Bip01 Neck"   6
  8 "Bip01 Head"   7
  9 "Dummy21"   8
 10 "Bip01 L Clavicle"   7
 11 "Bip01 L UpperArm"  10
 12 "Bip01 L Forearm"  11
 13 "Bip01 L Hand"  12
 14 "Bip01 L Finger0"  13
 15 "Bip01 L Finger01"  14
 16 "Dummy06"  15
 17 "Bip01 L Finger1"  13
 18 "Bip01 L Finger11"  17
 19 "Dummy03"  18
 20 "-- L knuckle"  17
 21 "-- L knuckle_end"  20
 22 "-- L Forearm twist"  12
 23 "-- L Forearm twist_end"  22
 24 "-- L wrist"  12
 25 "-- L wrist_end"  24
 26 "-- L Elbow"  11
 27 "--L Elbow_end"  26
 28 "-- L bicep twist"  11
 29 "-- L bicep twist_end"  28
 30 "-- L shoulder outside"  10
 31 "-- L shoulder outside_end"  30
 32 "-- L Shoulder inside"  10
 33 "-- L Shoulder inside_end"  32
 34 "Bip01 R Clavicle"   7
 35 "Bip01 R UpperArm"  34
 36 "Bip01 R Forearm"  35
 37 "Bip01 R Hand"  36
 38 "Bip01 R Finger0"  37
 39 "Bip01 R Finger01"  38
 40 "Dummy01"  39
 41 "Bip01 R Finger1"  37
 42 "Bip01 R Finger11"  41
 43 "Dummy02"  42
 44 "-- R knuckle"  41
 45 "Point06"  44
 46 "flash"  37
 47 "Line02"  46
 48 "-- R wrist"  36
 49 "-- R wrist_end"  48
 50 "-- R forearm twist"  36
 51 "-- R forearm twist_end"  50
 52 "-- R Elbow"  35
 53 "--R Elbow_end"  52
 54 "-- R bicep twist"  35
 55 "-- R bicep twist_end"  54
 56 "-- R Shoulder inside"  34
 57 "-- R Shoulder inside_end"  56
 58 "-- R shoulder outside"  34
 59 "-- R shoulder outside_end"  58
 60 "-- Neck smooth"   6
 61 "-- neck smooth end"  60
 62 "-- R Butt"   2
 63 "--R Butt_end"  62
 64 "-- L butt"   2
 65 "--L butt_end"  64
 66 "GIGN01"   2
 67 "Bip01 L Thigh"   2
 68 "Bip01 L Calf"  67
 69 "Bip01 L Foot"  68
 70 "Bip01 L Toe0"  69
 71 "Dummy16"  70
 72 "-- L ankle"  68
 73 "-- L ankleend"  72
 74 "-- L Knee"  67
 75 "--L Knee_end"  74
 76 "Bip01 R Thigh"   2
 77 "Bip01 R Calf"  76
 78 "Bip01 R Foot"  77
 79 "Bip01 R Toe0"  78
 80 "Dummy11"  79
 81 "-- R Ankle"  77
 82 "-- R ankleend"  81
 83 "-- R Knee"  76
 84 "--R Knee_end"  83
end
skeleton
time 0
  0 -0.650000 0.000000 33.899605 -0.025849 0.174554 -1.569172
  1 5.685103 0.833236 -32.227173 -0.174512 -0.026131 1.569196
  2 -2.276935 0.000003 -1.238188 -1.570795 -1.570451 0.000000
  3 1.797027 0.714113 0.003131 -1.273774 0.043182 -0.259183
  4 4.118571 -0.003257 0.000381 -0.116705 -0.042065 -0.003784
  5 4.118576 -0.003257 0.000382 -0.118137 -0.156160 0.009760
  6 4.118577 -0.003257 0.000381 -0.117163 -0.094078 0.002250
  7 4.118617 -0.003488 -0.000596 0.185833 0.423515 0.080927
  8 4.443595 0.000000 -0.000001 -0.083947 -0.209670 -0.180455
  9 9.024062 0.000000 -0.000000 0.000000 0.000000 0.000000
 10 -0.712095 0.295395 1.552438 1.076688 -0.816319 1.847599
 11 6.384777 0.000001 0.000002 -1.205741 0.646513 -1.451028
 12 10.242682 0.000002 -0.000001 -0.000000 0.000000 -1.177155
 13 11.375562 -0.000002 0.000001 -2.576838 0.419279 0.094660
 14 0.728681 0.023430 -1.008292 1.202975 0.409398 0.881725
 15 2.136500 -0.000003 -0.000001 0.000000 0.000000 -0.078540
 16 2.313137 0.000000 0.000001 0.000000 0.000000 0.000000
 17 3.115507 -0.886040 -0.021433 -0.166499 0.000392 0.514872
 18 2.011152 -0.000001 0.000003 -0.000000 -0.000000 1.322791
 19 2.141380 0.000001 -0.000002 0.000000 0.000000 0.000000
 20 1.734173 0.000002 0.000001 -0.000000 0.000000 0.660693
 21 0.000006 -4.440595 -0.000000 1.570544 -0.062990 -0.195737
 22 6.000000 0.000000 -0.000001 -2.332738 0.000000 -0.000000
 23 0.000001 -4.440600 0.000000 1.569944 -0.062987 0.004053
 24 11.375563 -0.000001 0.000003 -2.063403 0.213118 0.110648
 25 -0.000001 -4.440604 0.000002 1.570144 -0.062988 0.004040
 26 10.510131 0.000001 -0.000001 0.000000 0.000000 -2.159374
 27 0.000002 -1.748400 5.000000 -0.000000 0.004007 1.602290
 28 5.500000 0.000000 -0.000001 0.214154 0.000000 0.000000
 29 -0.000001 -1.940596 5.000000 -0.044472 0.004003 -0.000180
 30 6.551491 0.000001 -0.000002 -0.563073 0.618081 -0.857155
 31 0.000001 -1.940598 5.000002 -0.027189 -0.053376 0.005295
 32 6.551491 0.000001 -0.000002 -0.160769 0.322803 -0.308211
 33 -0.000000 -1.940599 4.999995 -0.066572 -0.152786 -0.110311
 34 0.712093 -0.288318 -1.552438 1.432091 1.007753 -2.029713
 35 6.384778 -0.000000 0.000002 -0.760433 -0.738146 0.193142
 36 10.242682 -0.000000 0.000001 0.000000 0.000000 -2.027011
 37 11.375561 -0.000002 0.000001 1.696697 0.195012 -0.599880
 38 0.728681 0.023430 1.008292 -1.579583 -0.319038 0.212973
 39 2.136497 -0.000001 0.000001 0.000000 -0.000000 1.282817
 40 2.313139 0.000001 -0.000001 0.000000 0.000000 3.141593
 41 3.115508 -0.886042 0.021433 0.420765 0.316066 0.167178
 42 2.011150 0.000000 0.000001 -0.000000 -0.000000 2.082010
 43 2.141379 -0.000000 -0.000000 0.000000 0.000000 3.141593
 44 1.734172 -0.000001 -0.000000 -0.000000 0.000000 1.041748
 45 0.136315 -3.738193 2.525891 1.493698 2.759406 -1.474501
 46 29.831055 -1.859324 -2.180623 0.219518 -0.013465 1.468817
 47 -0.319471 8.644889 1.613175 -1.569415 -0.026309 0.036285
 48 11.389365 -0.000820 0.158782 1.645809 0.091781 -0.312385
 49 0.000001 -4.440600 0.000002 1.570144 -3.078602 0.004040
 50 5.999999 -0.000002 0.000000 1.645809 -0.000000 0.000000
 51 0.000001 -4.440601 -0.000003 1.569944 -3.078603 0.004053
 52 10.510128 0.000000 0.000001 -0.000000 -0.000000 -2.584302
 53 0.000002 -1.748400 -5.000002 3.141593 0.004007 -1.539299
 54 5.499997 0.000000 0.000000 0.229512 0.000000 -0.000000
 55 0.000001 -0.000000 -4.999999 -0.044472 3.137589 -0.000177
 56 6.551491 -0.000000 -0.000000 -0.229512 -0.279486 -0.020048
 57 -1.266843 -1.937444 -4.950562 -0.066572 -2.988806 -0.110308
 58 6.551491 -0.000000 -0.000000 -0.229512 -0.279486 -0.020048
 59 0.699370 -1.944208 -5.006850 -0.027189 -3.088217 0.005298
 60 4.226146 -0.003201 -0.000000 0.088879 0.222615 0.032519
 61 -0.000002 5.000000 -0.000000 -0.153564 0.000087 2.718702
 62 0.000004 -0.000005 -3.713580 0.365818 2.880119 -0.191589
 63 0.000002 0.000000 5.000000 3.053196 1.558589 -0.074928
 64 -0.000007 0.000005 3.713580 -0.001619 -3.122277 -0.475127
 65 0.000002 -0.000000 -5.000000 -0.088726 1.558589 3.066335
 66 7.363602 1.646647 0.495663 3.141593 -1.570796 0.000000
 67 -0.000005 0.000006 3.619081 0.008255 -3.110080 -0.985231
 68 16.573919 0.000001 -0.000000 -0.000000 -0.000000 -1.065827
 69 15.128181 0.000000 0.000000 -0.102296 0.010178 0.114297
 70 5.758665 4.244730 0.000000 0.000000 0.000000 1.667687
 71 3.177726 0.000000 0.000000 0.000000 0.000000 3.141593
 72 15.708953 0.000001 0.000000 -0.051525 0.003996 0.061523
 73 0.275148 0.189215 -3.445208 3.130898 0.000409 -1.514604
 74 17.210192 0.000000 -0.000000 -0.000000 -0.000000 -1.893339
 75 -0.000000 -0.000000 -4.999999 -0.079433 1.546568 -1.570857
 76 0.000002 -0.000003 -3.619081 0.577895 2.675801 -0.242118
 77 16.573921 -0.000001 -0.000002 -0.000000 -0.000000 -1.163030
 78 15.128181 0.000001 0.000001 0.089479 0.309197 0.659208
 79 5.758666 4.244730 -0.000001 -0.000000 -0.000000 1.815142
 80 4.003934 -0.000000 0.000001 0.000000 0.000000 0.000000
 81 15.708953 0.000001 0.000001 0.042277 0.226871 0.443133
 82 0.273998 0.191089 3.439763 -3.130907 -0.000437 -1.508107
 83 17.210194 -0.000001 -0.000002 0.000000 -0.000000 -1.937080
 84 -0.000000 -0.000001 5.000000 -0.079319 1.595025 -1.570742
time 1
  0 -0.650000 0.000000 33.899605 -0.025849 0.174554 -1.569172
  1 5.685103 0.833236 -32.227173 -0.174512 -0.026131 1.569196
  2 -2.276935 0.000003 -1.238188 -1.570795 -1.570451 0.000000
  3 1.797026 0.714091 0.003124 -1.266842 0.045733 -0.260945
  4 4.118577 -0.003260 0.000358 -0.109485 -0.051385 -0.003234
  5 4.118575 -0.003260 0.000358 -0.110797 -0.157319 0.008717
  6 4.118574 -0.003260 0.000358 -0.109869 -0.094749 0.001624
  7 4.118706 -0.003372 -0.001067 0.332355 0.392151 0.161496
  8 4.443602 0.000000 0.000001 -0.223810 -0.225190 -0.267146
  9 9.024058 0.000000 0.000000 0.000000 0.000000 0.000000
 10 -0.662203 0.525953 1.513568 1.126457 -0.707063 1.733541
 11 6.384777 0.000000 -0.000001 -1.213493 0.600490 -1.487192
 12 10.242682 0.000001 -0.000001 -0.000000 0.000000 -1.091009
 13 11.375562 0.000000 0.000001 -2.586444 0.429257 0.055207
 14 0.728681 0.023430 -1.008293 1.202975 0.409398 0.881725
 15 2.136495 0.000002 0.000001 0.000000 -0.000000 -0.078540
 16 2.313142 -0.000000 -0.000000 0.000000 0.000000 0.000000
 17 3.115507 -0.886041 -0.021432 -0.166499 0.000392 0.514872
 18 2.011152 -0.000000 -0.000001 -0.000000 0.000000 1.322792
 19 2.141379 0.000001 -0.000001 0.000000 0.000000 0.000000
 20 1.734172 0.000001 -0.000000 0.000000 -0.000000 0.660693
 21 0.000008 -4.440593 0.000001 1.570544 -0.062990 -0.195737
 22 5.999999 -0.000000 -0.000000 -2.339004 0.000000 0.000000
 23 0.000002 -4.440600 -0.000000 1.569944 -0.062987 0.004053
 24 11.375560 -0.000000 0.000003 -2.065641 0.224224 0.091628
 25 -0.000001 -4.440602 0.000001 1.570144 -0.062988 0.004040
 26 10.510129 -0.000001 -0.000001 0.000000 0.000000 -2.116301
 27 0.000003 -1.748401 5.000000 0.000000 0.004007 1.602291
 28 5.500000 0.000001 -0.000000 0.221764 -0.000000 -0.000000
 29 -0.000002 -1.940597 5.000000 -0.044472 0.004003 -0.000180
 30 6.551491 0.000000 0.000001 -0.590110 0.611132 -0.910713
 31 0.000000 -1.940599 4.999999 -0.027189 -0.053376 0.005295
 32 6.551491 0.000000 0.000001 -0.165466 0.322237 -0.324227
 33 0.000000 -1.940599 4.999994 -0.066572 -0.152786 -0.110311
 34 0.662211 -0.518877 -1.513566 1.511052 0.922048 -2.024244
 35 6.384776 0.000000 0.000001 -0.747792 -0.767837 0.228888
 36 10.242682 -0.000001 0.000001 0.000000 -0.000000 -2.026991
 37 11.375560 -0.000003 0.000001 1.685486 0.194096 -0.598910
 38 0.728679 0.023432 1.008293 -1.579583 -0.319038 0.212973
 39 2.136496 0.000000 -0.000000 -0.000000 -0.000000 1.282817
 40 2.313139 -0.000000 -0.000000 0.000000 0.000000 3.141593
 41 3.115506 -0.886040 0.021433 0.420766 0.316066 0.167178
 42 2.011150 -0.000000 -0.000002 0.000000 0.000000 2.082010
 43 2.141379 0.000000 -0.000001 0.000000 0.000000 3.141593
 44 1.734173 -0.000002 -0.000001 -0.000000 -0.000000 1.041748
 45 0.136316 -3.738193 2.525892 1.493698 2.759406 -1.474501
 46 29.831055 -1.859321 -2.180626 0.219518 -0.013465 1.468817
 47 -0.319472 8.644887 1.613175 -1.569415 -0.026309 0.036285
 48 11.389366 -0.000821 0.158783 1.640121 0.092295 -0.311729
 49 -0.000001 -4.440599 -0.000001 1.570144 -3.078602 0.004040
 50 5.999999 0.000001 0.000001 1.640121 -0.000000 -0.000000
 51 0.000001 -4.440600 -0.000001 1.569944 -3.078603 0.004053
 52 10.510134 -0.000001 0.000001 -0.000000 0.000000 -2.584292
 53 -0.000000 -1.748400 -5.000001 -3.141593 0.004007 -1.539299
 54 5.500000 -0.000000 -0.000000 0.224852 -0.000000 -0.000000
 55 0.000000 0.000000 -4.999999 -0.044472 3.137589 -0.000177
 56 6.551490 0.000000 -0.000000 -0.224852 -0.284704 -0.012849
 57 -1.266845 -1.937443 -4.950560 -0.066572 -2.988806 -0.110308
 58 6.551490 0.000000 -0.000000 -0.224852 -0.284704 -0.012849
 59 0.699369 -1.944208 -5.006847 -0.027189 -3.088217 0.005298
 60 4.226150 -0.003201 -0.000001 0.158778 0.211267 0.069155
 61 -0.000000 5.000001 -0.000000 -0.153564 0.000087 2.718702
 62 0.000004 -0.000005 -3.713580 0.365818 2.880119 -0.191589
 63 0.000002 0.000000 5.000000 3.053196 1.558589 -0.074928
 64 -0.000007 0.000005 3.713580 -0.001619 -3.122277 -0.475127
 65 0.000002 -0.000000 -5.000000 -0.088726 1.558589 3.066335
 66 7.363602 1.646647 0.495663 3.141593 -1.570796 0.000000
 67 -0.000005 0.000006 3.619081 0.008255 -3.110080 -0.985231
 68 16.573919 0.000001 -0.000000 -0.000000 -0.000000 -1.065827
 69 15.128181 0.000000 0.000000 -0.102296 0.010178 0.114297
 70 5.758665 4.244730 0.000000 0.000000 0.000000 1.667687
 71 3.177726 0.000000 0.000000 0.000000 0.000000 3.141593
 72 15.708953 0.000001 0.000000 -0.051525 0.003996 0.061523
 73 0.275148 0.189215 -3.445208 3.130898 0.000409 -1.514604
 74 17.210192 0.000000 -0.000000 -0.000000 -0.000000 -1.893339
 75 -0.000000 -0.000000 -4.999999 -0.079433 1.546568 -1.570857
 76 0.000002 -0.000003 -3.619081 0.577895 2.675801 -0.242118
 77 16.573921 -0.000001 -0.000002 -0.000000 -0.000000 -1.163030
 78 15.128181 0.000001 0.000001 0.089479 0.309197 0.659208
 79 5.758666 4.244730 -0.000001 -0.000000 -0.000000 1.815142
 80 4.003934 -0.000000 0.000001 0.000000 0.000000 0.000000
 81 15.708953 0.000001 0.000001 0.042277 0.226871 0.443133
 82 0.273998 0.191089 3.439763 -3.130907 -0.000437 -1.508107
 83 17.210194 -0.000001 -0.000002 0.000000 -0.000000 -1.937080
 84 -0.000000 -0.000001 5.000000 -0.079319 1.595025 -1.570742
time 2
  0 -0.650000 0.000000 33.899605 -0.025849 0.174554 -1.569172
  1 5.685103 0.833236 -32.227173 -0.174512 -0.026131 1.569196
  2 -2.276935 0.000003 -1.238188 -1.570795 -1.570451 0.000000
  3 1.797026 0.714068 0.003116 -1.259915 0.048297 -0.262689
  4 4.118574 -0.003262 0.000334 -0.102267 -0.060708 -0.002751
  5 4.118577 -0.003262 0.000334 -0.103456 -0.158470 0.007666
  6 4.118577 -0.003262 0.000334 -0.102573 -0.095416 0.000993
  7 4.118798 -0.003191 -0.001515 0.473740 0.350486 0.235243
  8 4.443596 -0.000000 0.000000 -0.362200 -0.255643 -0.350900
  9 9.024062 0.000001 0.000000 0.000000 0.000000 0.000000
 10 -0.594938 0.745974 1.448157 1.156948 -0.594561 1.635356
 11 6.384776 0.000002 -0.000000 -1.220971 0.551364 -1.524245
 12 10.242681 -0.000002 -0.000001 -0.000000 0.000000 -0.997711
 13 11.375559 0.000002 -0.000001 -2.595918 0.439089 0.011962
 14 0.728680 0.023430 -1.008291 1.202975 0.409399 0.881725
 15 2.136499 -0.000000 -0.000000 0.000000 -0.000000 -0.078540
 16 2.313138 -0.000002 0.000000 0.000000 0.000000 0.000000
 17 3.115505 -0.886040 -0.021431 -0.166499 0.000392 0.514872
 18 2.011150 -0.000000 -0.000001 -0.000000 0.000000 1.322792
 19 2.141380 -0.000001 -0.000002 0.000000 0.000000 0.000000
 20 1.734172 0.000000 -0.000003 -0.000000 -0.000000 0.660693
 21 0.000005 -4.440593 0.000001 1.570544 -0.062990 -0.195737
 22 6.000000 0.000001 -0.000001 -2.345227 -0.000000 0.000000
 23 -0.000000 -4.440601 -0.000000 1.569944 -0.062987 0.004053
 24 11.375562 -0.000000 0.000002 -2.067583 0.235681 0.070692
 25 0.000001 -4.440604 0.000000 1.570144 -0.062988 0.004040
 26 10.510130 -0.000000 -0.000001 0.000000 -0.000000 -2.069651
 27 -0.000003 -1.748400 4.999998 -0.000000 0.004007 1.602291
 28 5.500000 -0.000000 -0.000001 0.231288 -0.000000 0.000000
 29 -0.000001 -1.940599 5.000000 -0.044472 0.004003 -0.000180
 30 6.551491 0.000001 0.000000 -0.622941 0.601951 -0.971286
 31 -0.000002 -1.940599 5.000003 -0.027189 -0.053376 0.005295
 32 6.551491 0.000001 0.000000 -0.171393 0.321369 -0.341281
 33 -0.000000 -1.940598 4.999996 -0.066572 -0.152786 -0.110311
 34 0.594934 -0.738897 -1.448157 -1.560572 2.306274 1.112816
 35 6.384775 -0.000001 0.000001 -0.736662 -0.796908 0.266667
 36 10.242682 -0.000001 -0.000001 -0.000000 -0.000000 -2.027399
 37 11.375561 0.000003 -0.000000 1.675423 0.193136 -0.598597
 38 0.728681 0.023430 1.008291 -1.579583 -0.319038 0.212973
 39 2.136496 -0.000000 0.000000 0.000000 0.000000 1.282817
 40 2.313139 0.000001 0.000000 0.000000 0.000000 3.141593
 41 3.115507 -0.886041 0.021431 0.420766 0.316066 0.167178
 42 2.011153 0.000000 0.000003 -0.000000 0.000000 2.082010
 43 2.141380 0.000001 -0.000001 0.000000 0.000000 3.141593
 44 1.734174 -0.000001 0.000002 -0.000000 0.000000 1.041748
 45 0.136316 -3.738192 2.525888 1.493698 2.759406 -1.474501
 46 29.831057 -1.859324 -2.180628 0.219518 -0.013465 1.468817
 47 -0.319471 8.644888 1.613176 -1.569415 -0.026309 0.036285
 48 11.389366 -0.000818 0.158781 1.635024 0.092664 -0.311394
 49 0.000000 -4.440598 -0.000000 1.570144 -3.078602 0.004040
 50 6.000000 -0.000000 -0.000001 1.635024 -0.000000 -0.000000
 51 0.000002 -4.440600 -0.000003 1.569944 -3.078603 0.004053
 52 10.510130 -0.000000 -0.000000 -0.000000 0.000000 -2.584496
 53 -0.000001 -1.748399 -5.000000 -3.141593 0.004007 -1.539299
 54 5.500001 -0.000001 -0.000000 0.219871 -0.000000 0.000000
 55 0.000002 -0.000000 -4.999999 -0.044472 3.137589 -0.000177
 56 6.551490 -0.000001 0.000002 -0.219871 -0.289332 -0.005191
 57 -1.266842 -1.937443 -4.950559 -0.066572 -2.988806 -0.110308
 58 6.551490 -0.000001 0.000002 -0.219871 -0.289332 -0.005191
 59 0.699370 -1.944208 -5.006848 -0.027189 -3.088217 0.005298
 60 4.226145 -0.003201 0.000000 0.227205 0.196992 0.104206
 61 -0.000002 5.000000 0.000000 -0.153564 0.000087 2.718702
 62 0.000004 -0.000005 -3.713580 0.365818 2.880119 -0.191589
 63 0.000002 0.000000 5.000000 3.053196 1.558589 -0.074928
 64 -0.000007 0.000005 3.713580 -0.001619 -3.122277 -0.475127
 65 0.000002 -0.000000 -5.000000 -0.088726 1.558589 3.066335
 66 7.363602 1.646647 0.495663 3.141593 -1.570796 0.000000
 67 -0.000005 0.000006 3.619081 0.008255 -3.110080 -0.985231
 68 16.573919 0.000001 -0.000000 -0.000000 -0.000000 -1.065827
 69 15.128181 0.000000 0.000000 -0.102296 0.010178 0.114297
 70 5.758665 4.244730 0.000000 0.000000 0.000000 1.667687
 71 3.177726 0.000000 0.000000 0.000000 0.000000 3.141593
 72 15.708953 0.000001 0.000000 -0.051525 0.003996 0.061523
 73 0.275148 0.189215 -3.445208 3.130898 0.000409 -1.514604
 74 17.210192 0.000000 -0.000000 -0.000000 -0.000000 -1.893339
 75 -0.000000 -0.000000 -4.999999 -0.079433 1.546568 -1.570857
 76 0.000002 -0.000003 -3.619081 0.577895 2.675801 -0.242118
 77 16.573921 -0.000001 -0.000002 -0.000000 -0.000000 -1.163030
 78 15.128181 0.000001 0.000001 0.089479 0.309197 0.659208
 79 5.758666 4.244730 -0.000001 -0.000000 -0.000000 1.815142
 80 4.003934 -0.000000 0.000001 0.000000 0.000000 0.000000
 81 15.708953 0.000001 0.000001 0.042277 0.226871 0.443133
 82 0.273998 0.191089 3.439763 -3.130907 -0.000437 -1.508107
 83 17.210194 -0.000001 -0.000002 0.000000 -0.000000 -1.937080
 84 -0.000000 -0.000001 5.000000 -0.079319 1.595025 -1.570742
time 3
  0 -0.650000 0.000000 33.899605 -0.025849 0.174554 -1.569172
  1 5.685103 0.833236 -32.227173 -0.174512 -0.026131 1.569196
  2 -2.276935 0.000003 -1.238188 -1.570795 -1.570451 0.000000
  3 1.797026 0.714045 0.003109 -1.252990 0.050873 -0.264416
  4 4.118574 -0.003265 0.000310 -0.095048 -0.070035 -0.002335
  5 4.118577 -0.003265 0.000311 -0.096111 -0.159614 0.006606
  6 4.118575 -0.003265 0.000310 -0.095276 -0.096078 0.000358
  7 4.118891 -0.002949 -0.001935 0.609438 0.299714 0.301020
  8 4.443600 -0.000000 0.000000 -0.498681 -0.300173 -0.429501
  9 9.024060 0.000000 0.000000 0.000000 0.000000 0.000000
 10 -0.511579 0.951141 1.357444 1.172907 -0.480233 1.547462
 11 6.384777 -0.000000 -0.000002 -1.228221 0.498009 -1.562549
 12 10.242682 0.000002 -0.000001 0.000000 0.000000 -0.895067
 13 11.375562 -0.000001 -0.000001 -2.605276 0.448780 -0.036097
 14 0.728682 0.023432 -1.008295 1.202975 0.409398 0.881725
 15 2.136493 0.000002 0.000000 -0.000000 0.000000 -0.078540
 16 2.313142 0.000001 -0.000000 0.000000 0.000000 0.000000
 17 3.115506 -0.886041 -0.021431 -0.166499 0.000392 0.514872
 18 2.011153 0.000001 -0.000002 -0.000000 0.000000 1.322791
 19 2.141378 0.000002 -0.000001 0.000000 0.000000 0.000000
 20 1.734172 0.000001 0.000001 -0.000000 0.000000 0.660693
 21 0.000006 -4.440594 0.000002 1.570544 -0.062990 -0.195737
 22 6.000000 0.000001 -0.000001 -2.351417 0.000000 -0.000000
 23 0.000001 -4.440599 0.000000 1.569944 -0.062987 0.004053
 24 11.375562 -0.000000 0.000002 -2.069184 0.247538 0.047389
 25 -0.000002 -4.440604 0.000001 1.570144 -0.062988 0.004040
 26 10.510131 0.000002 -0.000002 -0.000000 -0.000000 -2.018330
 27 0.000001 -1.748401 4.999999 -0.000000 0.004007 1.602290
 28 5.499999 0.000000 -0.000000 0.243025 0.000000 -0.000000
 29 -0.000002 -1.940596 5.000000 -0.044472 0.004003 -0.000180
 30 6.551492 -0.000000 -0.000000 -0.662336 0.588755 -1.040452
 31 0.000000 -1.940601 5.000003 -0.027189 -0.053376 0.005295
 32 6.551492 -0.000000 -0.000000 -0.178693 0.319678 -0.359557
 33 0.000000 -1.940599 4.999998 -0.066572 -0.152786 -0.110311
 34 0.511582 -0.944065 -1.357444 -1.496604 2.393666 1.100911
 35 6.384777 0.000001 -0.000001 -0.727231 -0.825310 0.306724
 36 10.242682 -0.000000 0.000000 -0.000000 -0.000000 -2.028206
 37 11.375561 -0.000001 0.000000 1.666586 0.192124 -0.598900
 38 0.728682 0.023431 1.008293 -1.579583 -0.319038 0.212973
 39 2.136497 -0.000000 -0.000002 -0.000000 -0.000000 1.282817
 40 2.313139 0.000000 0.000001 0.000000 0.000000 3.141593
 41 3.115509 -0.886041 0.021433 0.420766 0.316066 0.167178
 42 2.011150 0.000001 0.000003 -0.000000 0.000000 2.082010
 43 2.141380 -0.000001 -0.000001 0.000000 0.000000 3.141593
 44 1.734172 -0.000001 0.000001 0.000000 0.000000 1.041748
 45 0.136315 -3.738192 2.525890 1.493698 2.759406 -1.474501
 46 29.831057 -1.859322 -2.180621 0.219518 -0.013465 1.468817
 47 -0.319471 8.644887 1.613173 -1.569415 -0.026309 0.036285
 48 11.389365 -0.000820 0.158783 1.630553 0.092880 -0.311361
 49 0.000000 -4.440600 0.000000 1.570144 -3.078602 0.004040
 50 5.999999 0.000001 0.000001 1.630553 -0.000000 -0.000000
 51 0.000001 -4.440601 -0.000001 1.569944 -3.078603 0.004053
 52 10.510134 -0.000001 0.000002 -0.000000 -0.000000 -2.584899
 53 0.000001 -1.748399 -5.000001 -3.141593 0.004007 -1.539299
 54 5.500000 -0.000000 0.000000 0.214444 -0.000000 0.000000
 55 -0.000000 -0.000000 -5.000000 -0.044472 3.137590 -0.000177
 56 6.551491 0.000001 -0.000000 -0.214444 -0.293402 0.003135
 57 -1.266843 -1.937443 -4.950561 -0.066572 -2.988806 -0.110308
 58 6.551491 0.000001 -0.000001 -0.214444 -0.293402 0.003135
 59 0.699370 -1.944208 -5.006848 -0.027189 -3.088217 0.005298
 60 4.226145 -0.003201 -0.000001 0.294009 0.180107 0.137309
 61 0.000002 5.000001 -0.000000 -0.153565 0.000087 2.718702
 62 0.000004 -0.000005 -3.713580 0.365818 2.880119 -0.191589
 63 0.000002 0.000000 5.000000 3.053196 1.558589 -0.074928
 64 -0.000007 0.000005 3.713580 -0.001619 -3.122277 -0.475127
 65 0.000002 -0.000000 -5.000000 -0.088726 1.558589 3.066335
 66 7.363602 1.646647 0.495663 3.141593 -1.570796 0.000000
 67 -0.000005 0.000006 3.619081 0.008255 -3.110080 -0.985231
 68 16.573919 0.000001 -0.000000 -0.000000 -0.000000 -1.065827
 69 15.128181 0.000000 0.000000 -0.102296 0.010178 0.114297
 70 5.758665 4.244730 0.000000 0.000000 0.000000 1.667687
 71 3.177726 0.000000 0.000000 0.000000 0.000000 3.141593
 72 15.708953 0.000001 0.000000 -0.051525 0.003996 0.061523
 73 0.275148 0.189215 -3.445208 3.130898 0.000409 -1.514604
 74 17.210192 0.000000 -0.000000 -0.000000 -0.000000 -1.893339
 75 -0.000000 -0.000000 -4.999999 -0.079433 1.546568 -1.570857
 76 0.000002 -0.000003 -3.619081 0.577895 2.675801 -0.242118
 77 16.573921 -0.000001 -0.000002 -0.000000 -0.000000 -1.163030
 78 15.128181 0.000001 0.000001 0.089479 0.309197 0.659208
 79 5.758666 4.244730 -0.000001 -0.000000 -0.000000 1.815142
 80 4.003934 -0.000000 0.000001 0.000000 0.000000 0.000000
 81 15.708953 0.000001 0.000001 0.042277 0.226871 0.443133
 82 0.273998 0.191089 3.439763 -3.130907 -0.000437 -1.508107
 83 17.210194 -0.000001 -0.000002 0.000000 -0.000000 -1.937080
 84 -0.000000 -0.000001 5.000000 -0.079319 1.595025 -1.570742
time 4
  0 -0.650000 0.000000 33.899605 -0.025849 0.174554 -1.569172
  1 5.685103 0.833236 -32.227173 -0.174512 -0.026131 1.569196
  2 -2.276935 0.000003 -1.238188 -1.570795 -1.570451 0.000000
  3 1.797025 0.714023 0.003101 -1.246069 0.053460 -0.266125
  4 4.118576 -0.003267 0.000287 -0.087829 -0.079365 -0.001986
  5 4.118572 -0.003267 0.000287 -0.088765 -0.160749 0.005538
  6 4.118578 -0.003267 0.000286 -0.087979 -0.096736 -0.000283
  7 4.118980 -0.002648 -0.002314 0.739459 0.241117 0.358177
  8 4.443599 0.000000 0.000000 -0.633319 -0.357537 -0.500934
  9 9.024061 -0.000001 0.000000 0.000000 0.000000 0.000000
 10 -0.413750 1.137416 1.243162 1.177279 -0.365092 1.465926
 11 6.384777 -0.000000 0.000000 -1.235298 0.438582 -1.602689
 12 10.242681 -0.000001 -0.000001 -0.000000 0.000000 -0.779439
 13 11.375559 -0.000001 -0.000001 -2.614533 0.458330 -0.090675
 14 0.728681 0.023431 -1.008290 1.202975 0.409398 0.881725
 15 2.136499 -0.000002 -0.000000 0.000000 -0.000000 -0.078540
 16 2.313138 -0.000001 0.000000 0.000000 0.000000 0.000000
 17 3.115507 -0.886041 -0.021430 -0.166499 0.000392 0.514872
 18 2.011151 -0.000000 0.000002 0.000000 0.000000 1.322792
 19 2.141379 0.000002 -0.000002 0.000000 0.000000 0.000000
 20 1.734173 0.000002 0.000001 0.000000 0.000000 0.660693
 21 0.000007 -4.440593 -0.000002 1.570544 -0.062990 -0.195737
 22 5.999999 -0.000002 -0.000001 -2.357557 0.000000 -0.000000
 23 -0.000002 -4.440602 0.000002 1.569944 -0.062987 0.004053
 24 11.375561 -0.000003 0.000003 -2.070354 0.259892 0.020958
 25 -0.000002 -4.440604 0.000003 1.570144 -0.062988 0.004040
 26 10.510129 -0.000001 -0.000001 0.000000 -0.000000 -1.960516
 27 0.000003 -1.748401 4.999999 -0.000000 0.004007 1.602291
 28 5.499999 -0.000002 0.000000 0.257323 -0.000000 -0.000000
 29 -0.000002 -1.940598 5.000000 -0.044472 0.004003 -0.000180
 30 6.551491 0.000000 -0.000002 -0.708920 0.568763 -1.119859
 31 0.000001 -1.940600 5.000001 -0.027189 -0.053376 0.005295
 32 6.551491 0.000000 -0.000002 -0.187521 0.316319 -0.379125
 33 0.000001 -1.940598 4.999996 -0.066572 -0.152786 -0.110311
 34 0.413757 -1.130340 -1.243160 -1.436658 2.481439 1.083218
 35 6.384777 0.000001 0.000002 -0.719700 -0.852983 0.349310
 36 10.242681 -0.000001 -0.000001 0.000000 -0.000000 -2.029377
 37 11.375560 -0.000001 0.000002 1.659057 0.191057 -0.599776
 38 0.728681 0.023431 1.008291 -1.579583 -0.319038 0.212973
 39 2.136495 -0.000000 0.000000 0.000000 0.000000 1.282817
 40 2.313139 0.000000 0.000001 0.000000 0.000000 3.141593
 41 3.115509 -0.886042 0.021431 0.420766 0.316066 0.167178
 42 2.011148 0.000000 -0.000004 0.000000 0.000000 2.082010
 43 2.141379 -0.000002 0.000001 0.000000 0.000000 3.141593
 44 1.734172 -0.000001 0.000001 -0.000000 0.000000 1.041748
 45 0.136315 -3.738194 2.525891 1.493698 2.759406 -1.474501
 46 29.831055 -1.859321 -2.180627 0.219518 -0.013465 1.468817
 47 -0.319471 8.644888 1.613175 -1.569415 -0.026309 0.036285
 48 11.389365 -0.000820 0.158784 1.626747 0.092939 -0.311613
 49 0.000000 -4.440598 0.000000 1.570144 -3.078602 0.004040
 50 6.000000 -0.000002 0.000001 1.626747 -0.000000 -0.000000
 51 0.000001 -4.440600 0.000000 1.569944 -3.078603 0.004053
 52 10.510132 -0.000001 -0.000001 0.000000 0.000000 -2.585485
 53 -0.000001 -1.748399 -5.000001 -3.141593 0.004007 -1.539299
 54 5.500001 -0.000001 -0.000001 0.208405 0.000000 0.000000
 55 0.000001 0.000000 -5.000000 -0.044472 3.137589 -0.000177
 56 6.551490 0.000000 -0.000001 -0.208405 -0.296933 0.012376
 57 -1.266842 -1.937443 -4.950559 -0.066572 -2.988806 -0.110308
 58 6.551491 0.000000 -0.000001 -0.208405 -0.296933 0.012376
 59 0.699371 -1.944208 -5.006845 -0.027189 -3.088217 0.005298
 60 4.226144 -0.003201 -0.000000 0.359276 0.160925 0.168310
 61 0.000001 5.000001 -0.000000 -0.153564 0.000087 2.718702
 62 0.000004 -0.000005 -3.713580 0.365818 2.880119 -0.191589
 63 0.000002 0.000000 5.000000 3.053196 1.558589 -0.074928
 64 -0.000007 0.000005 3.713580 -0.001619 -3.122277 -0.475127
 65 0.000002 -0.000000 -5.000000 -0.088726 1.558589 3.066335
 66 7.363602 1.646647 0.495663 3.141593 -1.570796 0.000000
 67 -0.000005 0.000006 3.619081 0.008255 -3.110080 -0.985231
 68 16.573919 0.000001 -0.000000 -0.000000 -0.000000 -1.065827
 69 15.128181 0.000000 0.000000 -0.102296 0.010178 0.114297
 70 5.758665 4.244730 0.000000 0.000000 0.000000 1.667687
 71 3.177726 0.000000 0.000000 0.000000 0.000000 3.141593
 72 15.708953 0.000001 0.000000 -0.051525 0.003996 0.061523
 73 0.275148 0.189215 -3.445208 3.130898 0.000409 -1.514604
 74 17.210192 0.000000 -0.000000 -0.000000 -0.000000 -1.893339
 75 -0.000000 -0.000000 -4.999999 -0.079433 1.546568 -1.570857
 76 0.000002 -0.000003 -3.619081 0.577895 2.675801 -0.242118
 77 16.573921 -0.000001 -0.000002 -0.000000 -0.000000 -1.163030
 78 15.128181 0.000001 0.000001 0.089479 0.309197 0.659208
 79 5.758666 4.244730 -0.000001 -0.000000 -0.000000 1.815142
 80 4.003934 -0.000000 0.000001 0.000000 0.000000 0.000000
 81 15.708953 0.000001 0.000001 0.042277 0.226871 0.443133
 82 0.273998 0.191089 3.439763 -3.130907 -0.000437 -1.508107
 83 17.210194 -0.000001 -0.000002 0.000000 -0.000000 -1.937080
 84 -0.000000 -0.000001 5.000000 -0.079319 1.595025 -1.570742
time 5
  0 -0.650000 0.000000 33.899605 -0.025849 0.174554 -1.569172
  1 5.685103 0.833236 -32.227173 -0.174512 -0.026131 1.569196
  2 -2.276935 0.000003 -1.238188 -1.570795 -1.570451 0.000000
  3 1.797029 0.714000 0.003094 -1.239152 0.056060 -0.267816
  4 4.118573 -0.003269 0.000262 -0.080607 -0.088697 -0.001704
  5 4.118577 -0.003269 0.000263 -0.081415 -0.161877 0.004461
  6 4.118573 -0.003269 0.000263 -0.080680 -0.097389 -0.000928
  7 4.119079 -0.002297 -0.002650 0.864263 0.175979 0.406435
  8 4.443599 0.000000 0.000000 -0.766813 -0.426200 -0.563318
  9 9.024060 0.000000 0.000000 0.000000 0.000000 0.000000
 10 -0.303349 1.301117 1.107514 1.171809 -0.249935 1.387814
 11 6.384777 0.000000 0.000002 -1.242276 0.369604 -1.645762
 12 10.242681 0.000001 0.000000 -0.000000 -0.000000 -0.643919
 13 11.375559 0.000002 -0.000001 -2.623703 0.467743 -0.155035
 14 0.728680 0.023432 -1.008293 1.202975 0.409398 0.881725
 15 2.136496 0.000000 0.000000 -0.000000 -0.000000 -0.078540
 16 2.313141 0.000002 -0.000000 0.000000 0.000000 0.000000
 17 3.115506 -0.886042 -0.021429 -0.166499 0.000392 0.514872
 18 2.011149 0.000001 -0.000001 -0.000000 0.000000 1.322792
 19 2.141380 -0.000002 -0.000003 0.000000 0.000000 0.000000
 20 1.734172 0.000001 -0.000001 -0.000000 -0.000000 0.660693
 21 0.000005 -4.440594 -0.000001 1.570544 -0.062990 -0.195737
 22 6.000000 -0.000001 -0.000000 -2.363574 -0.000000 0.000000
 23 0.000001 -4.440600 -0.000000 1.569944 -0.062987 0.004053
 24 11.375561 -0.000000 0.000002 -2.070898 0.272958 -0.010079
 25 -0.000002 -4.440602 0.000001 1.570144 -0.062988 0.004040
 26 10.510129 0.000001 -0.000001 -0.000000 -0.000000 -1.892756
 27 -0.000002 -1.748401 4.999999 -0.000000 0.004007 1.602291
 28 5.499999 0.000002 -0.000000 0.274660 0.000000 -0.000000
 29 -0.000001 -1.940597 5.000000 -0.044472 0.004003 -0.000180
 30 6.551491 0.000001 0.000003 -0.763096 0.537376 -1.211360
 31 -0.000000 -1.940599 5.000001 -0.027189 -0.053376 0.005295
 32 6.551491 0.000001 0.000003 -0.198086 0.309864 -0.399883
 33 -0.000000 -1.940600 4.999999 -0.066572 -0.152786 -0.110311
 34 0.303354 -1.294041 -1.107514 -1.379331 2.569345 1.060694
 35 6.384776 -0.000000 -0.000004 -0.714279 -0.879859 0.394682
 36 10.242682 -0.000001 -0.000001 0.000000 -0.000000 -2.030866
 37 11.375561 0.000002 -0.000000 1.652914 0.189939 -0.601182
 38 0.728682 0.023431 1.008292 -1.579583 -0.319038 0.212973
 39 2.136498 -0.000001 0.000000 -0.000000 -0.000000 1.282817
 40 2.313139 -0.000002 0.000001 0.000000 0.000000 3.141593
 41 3.115506 -0.886041 0.021431 0.420766 0.316066 0.167178
 42 2.011151 0.000000 -0.000001 -0.000000 -0.000000 2.082010
 43 2.141379 0.000000 -0.000002 0.000000 0.000000 3.141593
 44 1.734172 -0.000001 -0.000002 -0.000000 -0.000000 1.041748
 45 0.136315 -3.738193 2.525890 1.493698 2.759406 -1.474501
 46 29.831053 -1.859321 -2.180626 0.219518 -0.013465 1.468817
 47 -0.319472 8.644886 1.613176 -1.569415 -0.026309 0.036285
 48 11.389366 -0.000817 0.158782 1.623644 0.092842 -0.312130
 49 -0.000001 -4.440599 0.000001 1.570144 -3.078602 0.004040
 50 5.999999 0.000002 -0.000001 1.623644 -0.000000 0.000000
 51 0.000001 -4.440600 -0.000000 1.569944 -3.078603 0.004053
 52 10.510133 -0.000001 -0.000000 0.000000 -0.000000 -2.586229
 53 -0.000000 -1.748400 -5.000001 -3.141593 0.004007 -1.539299
 54 5.500001 -0.000001 -0.000001 0.201518 -0.000000 0.000000
 55 0.000001 0.000000 -5.000000 -0.044472 3.137589 -0.000177
 56 6.551491 -0.000000 -0.000000 -0.201518 -0.299943 0.022831
 57 -1.266845 -1.937444 -4.950562 -0.066572 -2.988806 -0.110308
 58 6.551491 0.000000 -0.000000 -0.201518 -0.299943 0.022831
 59 0.699370 -1.944208 -5.006848 -0.027189 -3.088217 0.005298
 60 4.226148 -0.003201 -0.000001 0.423261 0.139690 0.197220
 61 0.000001 5.000000 -0.000000 -0.153564 0.000087 2.718702
 62 0.000004 -0.000005 -3.713580 0.365818 2.880119 -0.191589
 63 0.000002 0.000000 5.000000 3.053196 1.558589 -0.074928
 64 -0.000007 0.000005 3.713580 -0.001619 -3.122277 -0.475127
 65 0.000002 -0.000000 -5.000000 -0.088726 1.558589 3.066335
 66 7.363602 1.646647 0.495663 3.141593 -1.570796 0.000000
 67 -0.000005 0.000006 3.619081 0.008255 -3.110080 -0.985231
 68 16.573919 0.000001 -0.000000 -0.000000 -0.000000 -1.065827
 69 15.128181 0.000000 0.000000 -0.102296 0.010178 0.114297
 70 5.758665 4.244730 0.000000 0.000000 0.000000 1.667687
 71 3.177726 0.000000 0.000000 0.000000 0.000000 3.141593
 72 15.708953 0.000001 0.000000 -0.051525 0.003996 0.061523
 73 0.275148 0.189215 -3.445208 3.130898 0.000409 -1.514604
 74 17.210192 0.000000 -0.000000 -0.000000 -0.000000 -1.893339
 75 -0.000000 -0.000000 -4.999999 -0.079433 1.546568 -1.570857
 76 0.000002 -0.000003 -3.619081 0.577895 2.675801 -0.242118
 77 16.573921 -0.000001 -0.000002 -0.000000 -0.000000 -1.163030
 78 15.128181 0.000001 0.000001 0.089479 0.309197 0.659208
 79 5.758666 4.244730 -0.000001 -0.000000 -0.000000 1.815142
 80 4.003934 -0.000000 0.000001 0.000000 0.000000 0.000000
 81 15.708953 0.000001 0.000001 0.042277 0.226871 0.443133
 82 0.273998 0.191089 3.439763 -3.130907 -0.000437 -1.508107
 83 17.210194 -0.000001 -0.000002 0.000000 -0.000000 -1.937080
 84 -0.000000 -0.000001 5.000000 -0.079319 1.595025 -1.570742
time 6
  0 -0.650000 0.000000 33.899605 -0.025849 0.174554 -1.569172
  1 5.685103 0.833236 -32.227173 -0.174512 -0.026131 1.569196
  2 -2.276935 0.000003 -1.238188 -1.570795 -1.570451 0.000000
  3 1.797025 0.713978 0.003086 -1.232238 0.058671 -0.269490
  4 4.118580 -0.003271 0.000239 -0.073381 -0.098031 -0.001490
  5 4.118572 -0.003271 0.000239 -0.074063 -0.162998 0.003375
  6 4.118573 -0.003271 0.000240 -0.073381 -0.098037 -0.001578
  7 4.119171 -0.001900 -0.002932 0.984651 0.105536 0.445739
  8 4.443599 -0.000000 -0.000000 -0.900623 -0.504405 -0.614736
  9 9.024059 0.000001 0.000000 0.000000 0.000000 0.000000
 10 -0.182529 1.438998 0.953131 1.157407 -0.135467 1.310776
 11 6.384778 -0.000000 -0.000001 -1.249296 0.282658 -1.694436
 12 10.242682 -0.000001 0.000000 -0.000000 0.000000 -0.471724
 13 11.375562 0.000002 -0.000000 -2.632796 0.477022 -0.237125
 14 0.728681 0.023432 -1.008293 1.202975 0.409398 0.881725
 15 2.136494 0.000001 0.000000 0.000000 -0.000000 -0.078540
 16 2.313138 -0.000002 -0.000000 0.000000 0.000000 0.000000
 17 3.115506 -0.886041 -0.021431 -0.166499 0.000392 0.514872
 18 2.011152 0.000001 -0.000002 -0.000000 0.000000 1.322792
 19 2.141379 0.000002 -0.000002 0.000000 0.000000 0.000000
 20 1.734173 0.000000 -0.000001 -0.000000 0.000000 0.660693
 21 0.000006 -4.440593 -0.000000 1.570544 -0.062990 -0.195737
 22 6.000001 -0.000001 0.000001 -2.369230 0.000000 -0.000000
 23 -0.000000 -4.440602 0.000002 1.569944 -0.062987 0.004053
 24 11.375563 -0.000001 0.000004 -2.070319 0.287311 -0.049372
 25 -0.000002 -4.440603 -0.000001 1.570144 -0.062988 0.004040
 26 10.510130 -0.000001 0.000001 -0.000000 0.000000 -1.806658
 27 -0.000003 -1.748400 4.999998 -0.000000 0.004007 1.602291
 28 5.500000 -0.000001 0.000001 0.296104 0.000000 -0.000000
 29 -0.000002 -1.940601 5.000002 -0.044472 0.004003 -0.000180
 30 6.551492 -0.000001 -0.000000 -0.825631 0.485357 -1.318646
 31 0.000000 -1.940599 5.000004 -0.027189 -0.053376 0.005295
 32 6.551492 -0.000000 -0.000000 -0.210921 0.297451 -0.421600
 33 -0.000000 -1.940600 5.000000 -0.066572 -0.152786 -0.110311
 34 0.182528 -1.431921 -0.953132 -1.323569 2.657153 1.033898
 35 6.384777 0.000000 0.000001 -0.711181 -0.905852 0.443092
 36 10.242682 -0.000001 0.000001 0.000000 -0.000000 -2.032615
 37 11.375560 0.000001 0.000002 1.648234 0.188781 -0.603076
 38 0.728679 0.023431 1.008291 -1.579583 -0.319038 0.212973
 39 2.136494 0.000001 0.000000 -0.000000 -0.000000 1.282817
 40 2.313139 -0.000000 0.000000 0.000000 0.000000 3.141593
 41 3.115505 -0.886041 0.021431 0.420766 0.316066 0.167178
 42 2.011151 0.000000 -0.000001 -0.000000 0.000000 2.082010
 43 2.141379 -0.000001 -0.000001 0.000000 0.000000 3.141593
 44 1.734172 -0.000001 -0.000002 -0.000000 -0.000000 1.041748
 45 0.136315 -3.738192 2.525892 1.493698 2.759406 -1.474501
 46 29.831055 -1.859321 -2.180624 0.219518 -0.013465 1.468817
 47 -0.319471 8.644889 1.613173 -1.569415 -0.026309 0.036285
 48 11.389366 -0.000818 0.158784 1.621281 0.092589 -0.312893
 49 -0.000000 -4.440599 0.000000 1.570144 -3.078602 0.004040
 50 6.000000 -0.000002 0.000001 1.621281 -0.000000 -0.000000
 51 0.000001 -4.440600 -0.000001 1.569944 -3.078603 0.004053
 52 10.510132 -0.000000 0.000002 0.000000 0.000000 -2.587104
 53 0.000001 -1.748400 -5.000001 -3.141593 0.004007 -1.539299
 54 5.499999 0.000000 0.000001 0.193466 0.000000 0.000000
 55 -0.000001 -0.000000 -4.999999 -0.044472 3.137589 -0.000177
 56 6.551491 0.000000 0.000002 -0.193466 -0.302454 0.034852
 57 -1.266844 -1.937444 -4.950560 -0.066572 -2.988806 -0.110308
 58 6.551491 0.000001 0.000002 -0.193466 -0.302454 0.034852
 59 0.699372 -1.944209 -5.006844 -0.027189 -3.088217 0.005298
 60 4.226146 -0.003201 0.000000 0.486288 0.116563 0.224150
 61 0.000002 5.000000 -0.000000 -0.153564 0.000087 2.718702
 62 0.000004 -0.000005 -3.713580 0.365818 2.880119 -0.191589
 63 0.000002 0.000000 5.000000 3.053196 1.558589 -0.074928
 64 -0.000007 0.000005 3.713580 -0.001619 -3.122277 -0.475127
 65 0.000002 -0.000000 -5.000000 -0.088726 1.558589 3.066335
 66 7.363602 1.646647 0.495663 3.141593 -1.570796 0.000000
 67 -0.000005 0.000006 3.619081 0.008255 -3.110080 -0.985231
 68 16.573919 0.000001 -0.000000 -0.000000 -0.000000 -1.065827
 69 15.128181 0.000000 0.000000 -0.102296 0.010178 0.114297
 70 5.758665 4.244730 0.000000 0.000000 0.000000 1.667687
 71 3.177726 0.000000 0.000000 0.000000 0.000000 3.141593
 72 15.708953 0.000001 0.000000 -0.051525 0.003996 0.061523
 73 0.275148 0.189215 -3.445208 3.130898 0.000409 -1.514604
 74 17.210192 0.000000 -0.000000 -0.000000 -0.000000 -1.893339
 75 -0.000000 -0.000000 -4.999999 -0.079433 1.546568 -1.570857
 76 0.000002 -0.000003 -3.619081 0.577895 2.675801 -0.242118
 77 16.573921 -0.000001 -0.000002 -0.000000 -0.000000 -1.163030
 78 15.128181 0.000001 0.000001 0.089479 0.309197 0.659208
 79 5.758666 4.244730 -0.000001 -0.000000 -0.000000 1.815142
 80 4.003934 -0.000000 0.000001 0.000000 0.000000 0.000000
 81 15.708953 0.000001 0.000001 0.042277 0.226871 0.443133
 82 0.273998 0.191089 3.439763 -3.130907 -0.000437 -1.508107
 83 17.210194 -0.000001 -0.000002 0.000000 -0.000000 -1.937080
 84 -0.000000 -0.000001 5.000000 -0.079319 1.595025 -1.570742
end
