version 1
nodes
  0 "Bip01"  -1
  1 "Bip01 Footsteps"   0
  2 "Bip01 Pelvis"   0
  3 "Bip01 Spine"   2
  4 "Bip01 Spine1"   3
  5 "Bip01 Spine2"   4
  6 "Bip01 Spine3"   5
  7 "Bip01 Neck"   6
  8 "Bip01 Head"   7
  9 "Dummy21"   8
 10 "Bip01 L Clavicle"   7
 11 "Bip01 L UpperArm"  10
 12 "Bip01 L Forearm"  11
 13 "Bip01 L Hand"  12
 14 "Bip01 L Finger0"  13
 15 "Bip01 L Finger01"  14
 16 "Dummy06"  15
 17 "Bip01 L Finger1"  13
 18 "Bip01 L Finger11"  17
 19 "Dummy03"  18
 20 "-- L knuckle"  17
 21 "-- L knuckle_end"  20
 22 "-- L Forearm twist"  12
 23 "-- L Forearm twist_end"  22
 24 "-- L wrist"  12
 25 "-- L wrist_end"  24
 26 "-- L Elbow"  11
 27 "--L Elbow_end"  26
 28 "-- L bicep twist"  11
 29 "-- L bicep twist_end"  28
 30 "-- L shoulder outside"  10
 31 "-- L shoulder outside_end"  30
 32 "-- L Shoulder inside"  10
 33 "-- L Shoulder inside_end"  32
 34 "Bip01 R Clavicle"   7
 35 "Bip01 R UpperArm"  34
 36 "Bip01 R Forearm"  35
 37 "Bip01 R Hand"  36
 38 "Bip01 R Finger0"  37
 39 "Bip01 R Finger01"  38
 40 "Dummy01"  39
 41 "Bip01 R Finger1"  37
 42 "Bip01 R Finger11"  41
 43 "Dummy02"  42
 44 "-- R knuckle"  41
 45 "Point06"  44
 46 "Beretta Elite"  37
 47 "-- R wrist"  36
 48 "-- R wrist_end"  47
 49 "-- R forearm twist"  36
 50 "-- R forearm twist_end"  49
 51 "-- R Elbow"  35
 52 "--R Elbow_end"  51
 53 "-- R bicep twist"  35
 54 "-- R bicep twist_end"  53
 55 "-- R Shoulder inside"  34
 56 "-- R Shoulder inside_end"  55
 57 "-- R shoulder outside"  34
 58 "-- R shoulder outside_end"  57
 59 "-- Neck smooth"   6
 60 "-- neck smooth end"  59
 61 "-- R Butt"   2
 62 "--R Butt_end"  61
 63 "-- L butt"   2
 64 "--L butt_end"  63
 65 "GIGN01"   2
 66 "Bip01 L Thigh"   2
 67 "Bip01 L Calf"  66
 68 "Bip01 L Foot"  67
 69 "Bip01 L Toe0"  68
 70 "Dummy16"  69
 71 "-- L ankle"  67
 72 "-- L ankleend"  71
 73 "-- L Knee"  66
 74 "--L Knee_end"  73
 75 "Bip01 R Thigh"   2
 76 "Bip01 R Calf"  75
 77 "Bip01 R Foot"  76
 78 "Bip01 R Toe0"  77
 79 "Dummy11"  78
 80 "-- R Ankle"  76
 81 "-- R ankleend"  80
 82 "-- R Knee"  75
 83 "--R Knee_end"  82
end
skeleton
time 0
  0 -0.650000 0.000000 33.899605 -0.025849 0.174554 -1.569172
  1 5.685104 0.833236 -32.227173 -0.174512 -0.026131 1.569196
  2 -2.276935 0.000003 -1.238188 -1.570795 -1.570451 0.000000
  3 1.797375 0.711814 0.000248 -0.076638 -0.040070 0.074307
  4 4.119060 -0.003236 0.000258 -0.078626 -0.034646 0.143345
  5 4.119063 -0.003238 0.000257 -0.078626 -0.034645 0.143371
  6 4.119645 -0.003099 0.000268 -0.082021 -0.019907 0.325985
  7 4.118499 -0.003483 -0.000619 0.177227 0.130624 -0.007061
  8 4.443597 -0.000001 0.000000 0.288670 -0.052866 -0.266762
  9 9.024062 -0.000000 -0.000000 0.000000 0.000000 0.000000
 10 -0.225693 0.306410 1.691051 1.345281 -1.174602 1.791861
 11 6.384776 -0.000002 -0.000001 -1.011039 -0.184608 -1.097008
 12 10.242682 0.000001 0.000001 0.000000 -0.000000 -1.628820
 13 11.375563 0.000001 0.000000 -2.973542 0.469505 0.032216
 14 0.728681 0.023431 -1.008292 2.038136 0.634975 1.094199
 15 2.136494 0.000000 0.000001 -0.000000 -0.000000 0.287979
 16 2.313139 0.000000 0.000001 0.000000 0.000000 0.000000
 17 3.115508 -0.886039 -0.021433 -0.428318 0.000355 0.462512
 18 2.011150 0.000000 -0.000002 -0.000000 0.000000 0.930092
 19 2.141380 0.000001 -0.000002 0.000000 0.000000 0.000000
 20 1.734171 0.000001 -0.000001 0.000000 0.000000 0.464590
 21 0.000006 -4.440593 -0.000003 1.570544 -0.062990 -0.195737
 22 6.000000 0.000000 -0.000000 -2.654530 -0.000000 0.000000
 23 0.000004 -4.440599 -0.000000 1.569944 -0.062987 0.004053
 24 11.375564 -0.000002 0.000005 -2.248667 0.242013 0.116816
 25 -0.000000 -4.440603 0.000000 1.570144 -0.062988 0.004040
 26 10.510129 0.000001 0.000000 -0.000000 0.000000 -2.385206
 27 -0.000001 -1.748399 4.999999 0.000000 0.004007 1.602291
 28 5.500000 0.000001 0.000001 0.409359 -0.000000 -0.000000
 29 -0.000001 -1.940599 5.000001 -0.044472 0.004003 -0.000180
 30 6.551491 -0.000002 -0.000002 -0.753616 -0.027415 -0.714528
 31 -0.000002 -1.940599 5.000003 -0.027189 -0.053376 0.005295
 32 6.551491 -0.000002 -0.000002 -0.332638 0.056116 -0.314429
 33 -0.000000 -1.940599 4.999999 -0.066572 -0.152786 -0.110311
 34 0.225689 -0.299333 -1.691051 0.679948 1.228486 -2.488969
 35 6.384777 0.000001 -0.000000 -0.207652 0.839272 -1.922193
 36 10.242682 -0.000000 0.000000 -0.000000 0.000000 -1.161439
 37 11.375562 0.000002 -0.000000 -3.111119 0.332141 0.885693
 38 0.728682 0.023431 1.008291 -1.539000 -0.370199 0.101110
 39 2.136497 -0.000001 -0.000000 -0.000000 0.000000 0.287979
 40 2.313138 0.000000 -0.000000 0.000000 0.000000 3.141593
 41 3.115506 -0.886041 0.021429 0.495459 0.148146 0.639838
 42 2.011151 0.000002 0.000003 0.000000 0.000000 2.038377
 43 2.141379 -0.000001 -0.000003 0.000000 0.000000 3.141593
 44 1.734173 -0.000002 -0.000002 -0.000000 0.000000 1.019987
 45 0.136315 -3.738193 2.525893 1.493698 2.759406 -1.474501
 46 5.031116 -0.189688 1.849662 -2.967941 -0.035742 1.570790
 47 11.389365 -0.000819 0.158780 2.315349 0.354606 0.349239
 48 0.000000 -4.440597 0.000000 1.570144 -3.078602 0.004040
 49 5.999999 0.000000 -0.000002 2.315348 0.000000 0.000000
 50 0.000001 -4.440600 0.000002 1.569944 -3.078603 0.004053
 51 10.510132 0.000000 -0.000001 0.000000 0.000000 -2.151515
 52 -0.000000 -1.748400 -5.000003 -3.141593 0.004007 -1.539299
 53 5.500000 -0.000000 -0.000000 -0.102531 0.000000 -0.000000
 54 0.000001 0.000000 -5.000000 -0.044472 3.137589 -0.000177
 55 6.551491 -0.000001 0.000001 0.102531 0.226612 -0.470705
 56 -1.266843 -1.937442 -4.950561 -0.066572 -2.988806 -0.110308
 57 6.551492 -0.000001 0.000001 0.102531 0.226612 -0.470705
 58 0.699371 -1.944206 -5.006848 -0.027189 -3.088217 0.005298
 59 4.226148 -0.003203 -0.000001 0.090044 0.070130 -0.007695
 60 0.000003 5.000000 -0.000001 -0.153564 0.000087 2.718702
 61 0.000004 -0.000004 -3.713580 0.365818 2.880119 -0.191589
 62 0.000002 -0.000000 5.000000 3.053196 1.558589 -0.074928
 63 -0.000007 0.000006 3.713580 -0.001619 -3.122277 -0.475127
 64 0.000002 -0.000001 -5.000000 -0.088726 1.558589 3.066334
 65 7.363602 1.646647 0.495663 3.141593 -1.570796 0.000000
 66 -0.000005 0.000007 3.619081 0.008255 -3.110080 -0.985231
 67 16.573919 0.000002 0.000000 0.000000 -0.000000 -1.065827
 68 15.128181 0.000000 -0.000000 -0.102296 0.010178 0.114297
 69 5.758665 4.244730 0.000000 0.000000 0.000000 1.667687
 70 3.177725 0.000000 -0.000000 0.000000 0.000000 3.141593
 71 15.708953 0.000001 0.000000 -0.051525 0.003996 0.061523
 72 0.275148 0.189215 -3.445207 3.130898 0.000409 -1.514604
 73 17.210192 0.000001 0.000000 0.000000 -0.000000 -1.893339
 74 0.000001 -0.000000 -5.000000 -0.079430 1.546568 -1.570855
 75 0.000002 -0.000003 -3.619081 0.577895 2.675801 -0.242118
 76 16.573921 -0.000001 -0.000002 -0.000000 -0.000000 -1.163030
 77 15.128181 0.000001 0.000001 0.089479 0.309197 0.659208
 78 5.758666 4.244730 -0.000001 -0.000000 -0.000000 1.815142
 79 4.003934 -0.000000 0.000001 0.000000 0.000000 0.000000
 80 15.708954 0.000001 0.000002 0.042277 0.226871 0.443133
 81 0.273998 0.191089 3.439762 -3.130907 -0.000437 -1.508107
 82 17.210194 -0.000001 -0.000002 0.000000 -0.000000 -1.937080
 83 -0.000000 -0.000001 5.000000 -0.079319 1.595025 -1.570742
time 1
  0 -0.650000 0.000000 33.899605 -0.025849 0.174554 -1.569172
  1 5.685104 0.833236 -32.227173 -0.174512 -0.026131 1.569196
  2 -2.276935 0.000003 -1.238188 -1.570795 -1.570451 0.000000
  3 1.797398 0.711814 0.000235 -0.072491 -0.037355 0.080653
  4 4.119081 -0.003234 0.000244 -0.074444 -0.031919 0.149684
  5 4.119084 -0.003236 0.000243 -0.074444 -0.031918 0.149710
  6 4.119665 -0.003093 0.000254 -0.077745 -0.017158 0.332312
  7 4.118498 -0.003483 -0.000619 0.177227 0.130624 -0.007061
  8 4.443601 -0.000000 0.000000 0.275485 -0.055888 -0.312266
  9 9.024064 -0.000001 0.000000 0.000000 0.000000 0.000000
 10 -0.225688 0.306410 1.691051 1.345281 -1.174602 1.791861
 11 6.384777 -0.000002 -0.000002 -1.016534 -0.230292 -1.125446
 12 10.242684 0.000003 0.000000 -0.000000 -0.000000 -1.561573
 13 11.375563 -0.000002 0.000002 -3.011300 0.462361 0.029072
 14 0.728682 0.023431 -1.008291 2.038136 0.634975 1.094199
 15 2.136494 0.000000 -0.000000 -0.000000 0.000000 0.287979
 16 2.313141 0.000000 -0.000000 0.000000 0.000000 0.000000
 17 3.115507 -0.886041 -0.021430 -0.428318 0.000355 0.462512
 18 2.011153 0.000002 0.000000 -0.000000 0.000000 0.930092
 19 2.141379 -0.000000 0.000000 0.000000 0.000000 0.000000
 20 1.734171 0.000000 0.000002 0.000000 -0.000000 0.464590
 21 0.000004 -4.440594 -0.000001 1.570544 -0.062990 -0.195737
 22 6.000000 0.000000 0.000001 -2.687446 0.000000 -0.000000
 23 0.000002 -4.440602 0.000001 1.569944 -0.062987 0.004053
 24 11.375562 -0.000001 0.000005 -2.267376 0.238764 0.117420
 25 -0.000000 -4.440603 -0.000000 1.570144 -0.062988 0.004040
 26 10.510132 0.000001 0.000001 -0.000000 -0.000000 -2.351583
 27 0.000000 -1.748400 4.999999 0.000000 0.004007 1.602290
 28 5.500001 0.000001 0.000001 0.418881 -0.000000 0.000000
 29 -0.000001 -1.940599 5.000001 -0.044472 0.004003 -0.000180
 30 6.551491 0.000000 -0.000000 -0.772376 -0.058712 -0.737032
 31 -0.000000 -1.940598 5.000002 -0.027189 -0.053376 0.005295
 32 6.551491 0.000000 -0.000000 -0.339575 0.046579 -0.323216
 33 -0.000001 -1.940599 4.999994 -0.066572 -0.152786 -0.110311
 34 0.225693 -0.299332 -1.691051 0.744652 1.322667 -2.404680
 35 6.384777 0.000003 -0.000005 -0.121701 0.905242 -1.815643
 36 10.242682 0.000000 -0.000002 0.000000 -0.000000 -1.144824
 37 11.375562 -0.000000 0.000002 -3.111745 0.266723 0.883573
 38 0.728681 0.023431 1.008290 -1.539000 -0.370199 0.101110
 39 2.136499 0.000001 -0.000000 -0.000000 0.000000 0.287979
 40 2.313139 0.000000 -0.000000 0.000000 0.000000 3.141593
 41 3.115507 -0.886041 0.021432 0.495459 0.148146 0.639838
 42 2.011151 -0.000001 -0.000002 0.000000 0.000000 2.038377
 43 2.141380 -0.000000 0.000003 0.000000 0.000000 3.141593
 44 1.734171 -0.000001 -0.000003 0.000000 -0.000000 1.019987
 45 0.136315 -3.738192 2.525893 1.493698 2.759406 -1.474501
 46 5.031114 -0.189688 1.849662 -2.967941 -0.035742 1.570790
 47 11.389365 -0.000820 0.158783 2.328541 0.324899 0.366711
 48 0.000001 -4.440599 -0.000001 1.570144 -3.078602 0.004040
 49 6.000000 0.000000 0.000001 2.328542 0.000000 -0.000000
 50 0.000001 -4.440600 -0.000001 1.569944 -3.078603 0.004053
 51 10.510132 -0.000000 -0.000001 0.000000 -0.000000 -2.143209
 52 0.000000 -1.748399 -5.000002 3.141593 0.004007 -1.539299
 53 5.500000 -0.000000 -0.000003 -0.136920 -0.000000 -0.000000
 54 0.000001 -0.000000 -4.999997 -0.044472 3.137589 -0.000177
 55 6.551491 -0.000000 -0.000001 0.136920 0.232581 -0.454648
 56 -1.266843 -1.937445 -4.950559 -0.066572 -2.988806 -0.110308
 57 6.551491 -0.000000 -0.000001 0.136920 0.232581 -0.454648
 58 0.699371 -1.944209 -5.006847 -0.027189 -3.088217 0.005298
 59 4.226147 -0.003203 -0.000001 0.090044 0.070130 -0.007695
 60 -0.000001 5.000000 -0.000000 -0.153564 0.000087 2.718702
 61 0.000004 -0.000004 -3.713580 0.365818 2.880119 -0.191589
 62 0.000002 -0.000000 5.000000 3.053196 1.558589 -0.074928
 63 -0.000007 0.000006 3.713580 -0.001619 -3.122277 -0.475127
 64 0.000002 -0.000001 -5.000000 -0.088726 1.558589 3.066334
 65 7.363602 1.646647 0.495663 3.141593 -1.570796 0.000000
 66 -0.000005 0.000007 3.619081 0.008255 -3.110080 -0.985231
 67 16.573919 0.000002 0.000000 0.000000 -0.000000 -1.065827
 68 15.128181 0.000000 -0.000000 -0.102296 0.010178 0.114297
 69 5.758665 4.244730 0.000000 0.000000 0.000000 1.667687
 70 3.177725 0.000000 -0.000000 0.000000 0.000000 3.141593
 71 15.708953 0.000001 0.000000 -0.051525 0.003996 0.061523
 72 0.275148 0.189215 -3.445207 3.130898 0.000409 -1.514604
 73 17.210192 0.000001 0.000000 0.000000 -0.000000 -1.893339
 74 0.000001 -0.000000 -5.000000 -0.079430 1.546568 -1.570855
 75 0.000002 -0.000003 -3.619081 0.577895 2.675801 -0.242118
 76 16.573921 -0.000001 -0.000002 -0.000000 -0.000000 -1.163030
 77 15.128181 0.000001 0.000001 0.089479 0.309197 0.659208
 78 5.758666 4.244730 -0.000001 -0.000000 -0.000000 1.815142
 79 4.003934 -0.000000 0.000001 0.000000 0.000000 0.000000
 80 15.708954 0.000001 0.000002 0.042277 0.226871 0.443133
 81 0.273998 0.191089 3.439762 -3.130907 -0.000437 -1.508107
 82 17.210194 -0.000001 -0.000002 0.000000 -0.000000 -1.937080
 83 -0.000000 -0.000001 5.000000 -0.079319 1.595025 -1.570742
time 2
  0 -0.650000 0.000000 33.899605 -0.025849 0.174554 -1.569172
  1 5.685104 0.833236 -32.227173 -0.174512 -0.026131 1.569196
  2 -2.276935 0.000003 -1.238188 -1.570795 -1.570451 0.000000
  3 1.797418 0.711816 0.000221 -0.068326 -0.034666 0.087009
  4 4.119102 -0.003233 0.000230 -0.070245 -0.029218 0.156034
  5 4.119104 -0.003233 0.000230 -0.070244 -0.029217 0.156060
  6 4.119687 -0.003088 0.000240 -0.073452 -0.014437 0.338652
  7 4.118498 -0.003482 -0.000618 0.177227 0.130624 -0.007061
  8 4.443600 0.000000 0.000000 0.262864 -0.059749 -0.357885
  9 9.024060 0.000000 -0.000000 0.000000 0.000000 0.000000
 10 -0.225687 0.306410 1.691051 1.345281 -1.174602 1.791862
 11 6.384777 -0.000003 0.000000 -1.023238 -0.275206 -1.150963
 12 10.242682 -0.000000 -0.000000 -0.000000 -0.000000 -1.492343
 13 11.375561 -0.000002 0.000001 -3.050945 0.458389 0.021006
 14 0.728681 0.023433 -1.008291 2.038136 0.634975 1.094199
 15 2.136493 0.000001 -0.000000 0.000000 0.000000 0.287979
 16 2.313142 -0.000001 -0.000000 0.000000 0.000000 0.000000
 17 3.115507 -0.886040 -0.021432 -0.428318 0.000355 0.462512
 18 2.011150 -0.000001 -0.000001 -0.000000 0.000000 0.930092
 19 2.141381 0.000000 -0.000001 0.000000 0.000000 0.000000
 20 1.734174 0.000002 -0.000001 0.000000 0.000000 0.464590
 21 0.000004 -4.440594 0.000000 1.570544 -0.062990 -0.195737
 22 5.999999 0.000000 0.000000 -2.721915 0.000000 -0.000000
 23 0.000003 -4.440600 -0.000001 1.569944 -0.062987 0.004053
 24 11.375561 -0.000001 0.000004 -2.286386 0.238205 0.116169
 25 0.000001 -4.440603 -0.000001 1.570144 -0.062988 0.004040
 26 10.510131 -0.000001 0.000000 -0.000000 -0.000000 -2.316968
 27 -0.000001 -1.748401 4.999999 -0.000000 0.004007 1.602291
 28 5.500001 0.000001 -0.000001 0.428322 -0.000000 -0.000000
 29 -0.000001 -1.940598 5.000002 -0.044472 0.004003 -0.000180
 30 6.551491 -0.000001 0.000001 -0.791546 -0.091260 -0.759184
 31 -0.000001 -1.940599 5.000001 -0.027189 -0.053376 0.005295
 32 6.551491 -0.000001 0.000001 -0.346307 0.036956 -0.331437
 33 -0.000000 -1.940599 4.999995 -0.066572 -0.152786 -0.110311
 34 0.225693 -0.299332 -1.691051 0.897522 1.414772 -2.236349
 35 6.384776 0.000001 -0.000001 -0.017964 0.959494 -1.687106
 36 10.242683 0.000000 -0.000003 -0.000000 0.000000 -1.128211
 37 11.375561 0.000000 -0.000001 -3.112220 0.201303 0.881528
 38 0.728680 0.023431 1.008293 -1.539000 -0.370199 0.101110
 39 2.136499 0.000000 -0.000000 -0.000000 0.000000 0.287979
 40 2.313140 -0.000002 -0.000000 0.000000 0.000000 3.141593
 41 3.115506 -0.886041 0.021432 0.495459 0.148146 0.639838
 42 2.011152 -0.000000 0.000001 0.000000 0.000000 2.038377
 43 2.141380 0.000001 -0.000000 0.000000 0.000000 3.141593
 44 1.734172 -0.000001 -0.000001 0.000000 -0.000000 1.019987
 45 0.136315 -3.738193 2.525889 1.493698 2.759406 -1.474501
 46 5.031112 -0.189688 1.849663 -2.967941 -0.035742 1.570790
 47 11.389366 -0.000819 0.158783 2.340597 0.294572 0.383505
 48 0.000000 -4.440596 -0.000000 1.570144 -3.078602 0.004040
 49 5.999999 -0.000001 0.000001 2.340597 -0.000000 -0.000000
 50 0.000001 -4.440602 -0.000000 1.569944 -3.078603 0.004053
 51 10.510133 -0.000000 -0.000000 0.000000 0.000000 -2.134902
 52 0.000001 -1.748400 -5.000000 -3.141593 0.004007 -1.539299
 53 5.500000 0.000000 -0.000002 -0.172723 -0.000000 -0.000000
 54 -0.000000 0.000000 -4.999997 -0.044472 3.137589 -0.000177
 55 6.551490 -0.000001 0.000002 0.172723 0.235101 -0.432008
 56 -1.266843 -1.937442 -4.950560 -0.066572 -2.988806 -0.110308
 57 6.551491 -0.000001 0.000002 0.172723 0.235101 -0.432008
 58 0.699371 -1.944207 -5.006845 -0.027189 -3.088217 0.005298
 59 4.226147 -0.003202 -0.000000 0.090044 0.070130 -0.007695
 60 0.000000 5.000000 0.000000 -0.153564 0.000087 2.718702
 61 0.000004 -0.000004 -3.713580 0.365818 2.880119 -0.191589
 62 0.000002 -0.000000 5.000000 3.053196 1.558589 -0.074928
 63 -0.000007 0.000006 3.713580 -0.001619 -3.122277 -0.475127
 64 0.000002 -0.000001 -5.000000 -0.088726 1.558589 3.066334
 65 7.363602 1.646647 0.495663 3.141593 -1.570796 0.000000
 66 -0.000005 0.000007 3.619081 0.008255 -3.110080 -0.985231
 67 16.573919 0.000002 0.000000 0.000000 -0.000000 -1.065827
 68 15.128181 0.000000 -0.000000 -0.102296 0.010178 0.114297
 69 5.758665 4.244730 0.000000 0.000000 0.000000 1.667687
 70 3.177725 0.000000 -0.000000 0.000000 0.000000 3.141593
 71 15.708953 0.000001 0.000000 -0.051525 0.003996 0.061523
 72 0.275148 0.189215 -3.445207 3.130898 0.000409 -1.514604
 73 17.210192 0.000001 0.000000 0.000000 -0.000000 -1.893339
 74 0.000001 -0.000000 -5.000000 -0.079430 1.546568 -1.570855
 75 0.000002 -0.000003 -3.619081 0.577895 2.675801 -0.242118
 76 16.573921 -0.000001 -0.000002 -0.000000 -0.000000 -1.163030
 77 15.128181 0.000001 0.000001 0.089479 0.309197 0.659208
 78 5.758666 4.244730 -0.000001 -0.000000 -0.000000 1.815142
 79 4.003934 -0.000000 0.000001 0.000000 0.000000 0.000000
 80 15.708954 0.000001 0.000002 0.042277 0.226871 0.443133
 81 0.273998 0.191089 3.439762 -3.130907 -0.000437 -1.508107
 82 17.210194 -0.000001 -0.000002 0.000000 -0.000000 -1.937080
 83 -0.000000 -0.000001 5.000000 -0.079319 1.595025 -1.570742
time 3
  0 -0.650000 0.000000 33.899605 -0.025849 0.174554 -1.569172
  1 5.685104 0.833236 -32.227173 -0.174512 -0.026131 1.569196
  2 -2.276935 0.000003 -1.238188 -1.570795 -1.570451 0.000000
  3 1.797441 0.711816 0.000208 -0.064145 -0.032004 0.093376
  4 4.119123 -0.003230 0.000216 -0.066029 -0.026544 0.162395
  5 4.119129 -0.003232 0.000216 -0.066028 -0.026543 0.162421
  6 4.119705 -0.003078 0.000227 -0.069141 -0.011742 0.345002
  7 4.118496 -0.003481 -0.000618 0.177227 0.130624 -0.007061
  8 4.443597 0.000002 -0.000000 0.250847 -0.064413 -0.403607
  9 9.024058 0.000000 -0.000000 0.000000 0.000000 0.000000
 10 -0.225691 0.306414 1.691051 1.345281 -1.174602 1.791861
 11 6.384777 -0.000001 0.000002 -1.031302 -0.319469 -1.173456
 12 10.242682 -0.000000 0.000001 -0.000000 -0.000000 -1.421911
 13 11.375564 0.000001 0.000001 -3.092319 0.457656 0.008948
 14 0.728681 0.023431 -1.008294 2.038136 0.634975 1.094199
 15 2.136499 0.000000 -0.000002 0.000000 -0.000000 0.287979
 16 2.313140 -0.000001 0.000000 0.000000 0.000000 0.000000
 17 3.115507 -0.886040 -0.021434 -0.428318 0.000355 0.462512
 18 2.011148 0.000000 0.000002 -0.000000 0.000000 0.930092
 19 2.141381 -0.000001 0.000001 0.000000 0.000000 0.000000
 20 1.734170 0.000001 0.000001 -0.000000 -0.000000 0.464590
 21 0.000004 -4.440594 0.000001 1.570544 -0.062990 -0.195737
 22 6.000001 0.000000 0.000000 -2.757887 0.000000 0.000000
 23 0.000002 -4.440599 -0.000000 1.569944 -0.062987 0.004053
 24 11.375562 0.000001 0.000004 -2.305638 0.240242 0.113644
 25 -0.000002 -4.440603 -0.000000 1.570144 -0.062988 0.004040
 26 10.510132 0.000001 0.000000 0.000000 0.000000 -2.281752
 27 0.000001 -1.748400 4.999999 0.000000 0.004007 1.602291
 28 5.500000 -0.000001 0.000002 0.437453 -0.000000 -0.000000
 29 -0.000001 -1.940598 5.000000 -0.044472 0.004003 -0.000180
 30 6.551491 0.000001 0.000002 -0.810735 -0.124890 -0.780684
 31 -0.000001 -1.940597 5.000001 -0.027189 -0.053376 0.005295
 32 6.551491 0.000001 0.000002 -0.352651 0.027296 -0.338966
 33 0.000000 -1.940598 4.999998 -0.066572 -0.152786 -0.110311
 34 0.225693 -0.299332 -1.691051 1.426836 1.493652 -1.695610
 35 6.384777 0.000001 -0.000000 0.102901 0.999514 -1.537500
 36 10.242682 -0.000001 0.000002 0.000000 0.000000 -1.111596
 37 11.375560 0.000002 -0.000004 -3.112554 0.135883 0.879537
 38 0.728682 0.023431 1.008291 -1.539000 -0.370199 0.101110
 39 2.136494 0.000002 0.000000 -0.000000 0.000000 0.287979
 40 2.313138 -0.000002 -0.000000 0.000000 0.000000 3.141593
 41 3.115507 -0.886041 0.021432 0.495459 0.148146 0.639838
 42 2.011152 -0.000000 -0.000001 0.000000 -0.000000 2.038377
 43 2.141379 -0.000001 -0.000001 0.000000 0.000000 3.141593
 44 1.734172 0.000000 0.000000 0.000000 0.000000 1.019987
 45 0.136315 -3.738192 2.525891 1.493698 2.759406 -1.474501
 46 5.031114 -0.189687 1.849662 -2.967941 -0.035742 1.570790
 47 11.389366 -0.000818 0.158779 2.351545 0.263647 0.399646
 48 0.000000 -4.440601 0.000002 1.570144 -3.078602 0.004040
 49 6.000000 0.000002 -0.000003 2.351545 0.000000 0.000000
 50 0.000003 -4.440602 -0.000000 1.569944 -3.078603 0.004053
 51 10.510131 -0.000000 0.000003 -0.000000 -0.000000 -2.126594
 52 0.000001 -1.748400 -5.000000 -3.141593 0.004007 -1.539299
 53 5.500000 0.000000 0.000001 -0.206401 -0.000000 -0.000000
 54 0.000000 -0.000001 -4.999999 -0.044472 3.137589 -0.000177
 55 6.551491 0.000001 0.000001 0.206401 0.232915 -0.400999
 56 -1.266843 -1.937444 -4.950559 -0.066572 -2.988806 -0.110308
 57 6.551491 0.000001 0.000001 0.206401 0.232915 -0.400999
 58 0.699370 -1.944207 -5.006848 -0.027189 -3.088217 0.005298
 59 4.226145 -0.003200 0.000000 0.090044 0.070130 -0.007695
 60 0.000000 5.000000 0.000000 -0.153564 0.000087 2.718702
 61 0.000004 -0.000004 -3.713580 0.365818 2.880119 -0.191589
 62 0.000002 -0.000000 5.000000 3.053196 1.558589 -0.074928
 63 -0.000007 0.000006 3.713580 -0.001619 -3.122277 -0.475127
 64 0.000002 -0.000001 -5.000000 -0.088726 1.558589 3.066334
 65 7.363602 1.646647 0.495663 3.141593 -1.570796 0.000000
 66 -0.000005 0.000007 3.619081 0.008255 -3.110080 -0.985231
 67 16.573919 0.000002 0.000000 0.000000 -0.000000 -1.065827
 68 15.128181 0.000000 -0.000000 -0.102296 0.010178 0.114297
 69 5.758665 4.244730 0.000000 0.000000 0.000000 1.667687
 70 3.177725 0.000000 -0.000000 0.000000 0.000000 3.141593
 71 15.708953 0.000001 0.000000 -0.051525 0.003996 0.061523
 72 0.275148 0.189215 -3.445207 3.130898 0.000409 -1.514604
 73 17.210192 0.000001 0.000000 0.000000 -0.000000 -1.893339
 74 0.000001 -0.000000 -5.000000 -0.079430 1.546568 -1.570855
 75 0.000002 -0.000003 -3.619081 0.577895 2.675801 -0.242118
 76 16.573921 -0.000001 -0.000002 -0.000000 -0.000000 -1.163030
 77 15.128181 0.000001 0.000001 0.089479 0.309197 0.659208
 78 5.758666 4.244730 -0.000001 -0.000000 -0.000000 1.815142
 79 4.003934 -0.000000 0.000001 0.000000 0.000000 0.000000
 80 15.708954 0.000001 0.000002 0.042277 0.226871 0.443133
 81 0.273998 0.191089 3.439762 -3.130907 -0.000437 -1.508107
 82 17.210194 -0.000001 -0.000002 0.000000 -0.000000 -1.937080
 83 -0.000000 -0.000001 5.000000 -0.079319 1.595025 -1.570742
time 4
  0 -0.650000 0.000000 33.899605 -0.025849 0.174554 -1.569172
  1 5.685104 0.833236 -32.227173 -0.174512 -0.026131 1.569196
  2 -2.276935 0.000003 -1.238188 -1.570795 -1.570451 0.000000
  3 1.797460 0.711818 0.000194 -0.059947 -0.029368 0.099754
  4 4.119149 -0.003228 0.000202 -0.061796 -0.023897 0.168767
  5 4.119150 -0.003229 0.000202 -0.061796 -0.023896 0.168793
  6 4.119725 -0.003074 0.000212 -0.064814 -0.009075 0.351364
  7 4.118498 -0.003483 -0.000618 0.177227 0.130624 -0.007061
  8 4.443599 -0.000000 -0.000000 0.239476 -0.069844 -0.449423
  9 9.024058 0.000000 -0.000000 0.000000 0.000000 0.000000
 10 -0.225689 0.306409 1.691051 1.345281 -1.174602 1.791861
 11 6.384778 -0.000002 0.000000 -1.040862 -0.363189 -1.192811
 12 10.242681 -0.000003 0.000002 -0.000000 -0.000000 -1.351032
 13 11.375559 -0.000001 0.000000 -3.135286 0.460192 -0.006221
 14 0.728681 0.023431 -1.008293 2.038136 0.634975 1.094199
 15 2.136498 0.000000 -0.000001 0.000000 -0.000000 0.287979
 16 2.313137 0.000001 0.000002 0.000000 0.000000 0.000000
 17 3.115507 -0.886039 -0.021433 -0.428318 0.000355 0.462512
 18 2.011151 0.000002 -0.000002 -0.000000 0.000000 0.930092
 19 2.141380 0.000001 0.000003 0.000000 0.000000 0.000000
 20 1.734170 0.000001 -0.000001 0.000000 -0.000000 0.464590
 21 0.000008 -4.440593 0.000002 1.570544 -0.062990 -0.195737
 22 5.999999 -0.000002 0.000001 -2.795319 0.000000 0.000000
 23 0.000001 -4.440602 0.000000 1.569944 -0.062987 0.004053
 24 11.375562 -0.000002 0.000005 -2.325062 0.244741 0.110424
 25 -0.000003 -4.440602 -0.000002 1.570144 -0.062988 0.004040
 26 10.510130 -0.000001 0.000002 0.000000 -0.000000 -2.246312
 27 0.000002 -1.748401 4.999999 0.000000 0.004007 1.602291
 28 5.500000 0.000000 0.000001 0.446108 -0.000000 -0.000000
 29 -0.000001 -1.940600 5.000003 -0.044472 0.004003 -0.000180
 30 6.551491 0.000001 0.000002 -0.829656 -0.159329 -0.801166
 31 0.000001 -1.940599 5.000000 -0.027189 -0.053376 0.005295
 32 6.551491 0.000001 0.000002 -0.358480 0.017680 -0.345666
 33 -0.000000 -1.940598 4.999994 -0.066572 -0.152786 -0.110311
 34 0.225692 -0.299333 -1.691051 2.754331 1.488891 -0.360678
 35 6.384777 0.000001 -0.000001 0.236077 1.023122 -1.371868
 36 10.242682 -0.000001 -0.000001 -0.000000 0.000000 -1.094982
 37 11.375562 0.000001 -0.000004 -3.112756 0.070462 0.877581
 38 0.728681 0.023431 1.008293 -1.539000 -0.370199 0.101110
 39 2.136501 -0.000004 -0.000000 -0.000000 0.000000 0.287979
 40 2.313138 0.000001 0.000000 0.000000 0.000000 3.141593
 41 3.115507 -0.886041 0.021433 0.495459 0.148146 0.639838
 42 2.011151 -0.000000 0.000003 0.000000 -0.000000 2.038377
 43 2.141379 0.000000 -0.000002 0.000000 0.000000 3.141593
 44 1.734172 -0.000001 0.000003 0.000000 -0.000000 1.019987
 45 0.136315 -3.738194 2.525891 1.493698 2.759406 -1.474501
 46 5.031112 -0.189688 1.849662 -2.967941 -0.035742 1.570790
 47 11.389366 -0.000819 0.158778 2.361418 0.232157 0.415158
 48 0.000001 -4.440599 -0.000000 1.570144 -3.078602 0.004040
 49 5.999999 0.000000 -0.000003 2.361418 0.000000 -0.000000
 50 0.000002 -4.440604 -0.000000 1.569944 -3.078603 0.004053
 51 10.510132 -0.000000 0.000001 -0.000000 -0.000000 -2.118287
 52 -0.000001 -1.748400 -5.000000 -3.141593 0.004007 -1.539299
 53 5.500000 -0.000000 0.000001 -0.232286 0.000000 0.000000
 54 0.000000 0.000000 -5.000002 -0.044472 3.137589 -0.000177
 55 6.551491 0.000002 -0.000001 0.232286 0.226735 -0.364289
 56 -1.266843 -1.937444 -4.950562 -0.066572 -2.988806 -0.110308
 57 6.551491 0.000002 -0.000001 0.232286 0.226735 -0.364289
 58 0.699371 -1.944209 -5.006848 -0.027189 -3.088217 0.005298
 59 4.226146 -0.003201 -0.000000 0.090044 0.070130 -0.007695
 60 -0.000001 5.000001 -0.000000 -0.153564 0.000087 2.718702
 61 0.000004 -0.000004 -3.713580 0.365818 2.880119 -0.191589
 62 0.000002 -0.000000 5.000000 3.053196 1.558589 -0.074928
 63 -0.000007 0.000006 3.713580 -0.001619 -3.122277 -0.475127
 64 0.000002 -0.000001 -5.000000 -0.088726 1.558589 3.066334
 65 7.363602 1.646647 0.495663 3.141593 -1.570796 0.000000
 66 -0.000005 0.000007 3.619081 0.008255 -3.110080 -0.985231
 67 16.573919 0.000002 0.000000 0.000000 -0.000000 -1.065827
 68 15.128181 0.000000 -0.000000 -0.102296 0.010178 0.114297
 69 5.758665 4.244730 0.000000 0.000000 0.000000 1.667687
 70 3.177725 0.000000 -0.000000 0.000000 0.000000 3.141593
 71 15.708953 0.000001 0.000000 -0.051525 0.003996 0.061523
 72 0.275148 0.189215 -3.445207 3.130898 0.000409 -1.514604
 73 17.210192 0.000001 0.000000 0.000000 -0.000000 -1.893339
 74 0.000001 -0.000000 -5.000000 -0.079430 1.546568 -1.570855
 75 0.000002 -0.000003 -3.619081 0.577895 2.675801 -0.242118
 76 16.573921 -0.000001 -0.000002 -0.000000 -0.000000 -1.163030
 77 15.128181 0.000001 0.000001 0.089479 0.309197 0.659208
 78 5.758666 4.244730 -0.000001 -0.000000 -0.000000 1.815142
 79 4.003934 -0.000000 0.000001 0.000000 0.000000 0.000000
 80 15.708954 0.000001 0.000002 0.042277 0.226871 0.443133
 81 0.273998 0.191089 3.439762 -3.130907 -0.000437 -1.508107
 82 17.210194 -0.000001 -0.000002 0.000000 -0.000000 -1.937080
 83 -0.000000 -0.000001 5.000000 -0.079319 1.595025 -1.570742
time 5
  0 -0.650000 0.000000 33.899605 -0.025849 0.174554 -1.569172
  1 5.685104 0.833236 -32.227173 -0.174512 -0.026131 1.569196
  2 -2.276935 0.000003 -1.238188 -1.570795 -1.570451 0.000000
  3 1.797460 0.711818 0.000194 -0.059947 -0.029368 0.099754
  4 4.119149 -0.003228 0.000202 -0.061796 -0.023897 0.168767
  5 4.119150 -0.003229 0.000202 -0.061796 -0.023896 0.168793
  6 4.119725 -0.003074 0.000212 -0.064814 -0.009075 0.351364
  7 4.118498 -0.003483 -0.000618 0.177227 0.130624 -0.007061
  8 4.443599 -0.000000 -0.000000 0.239476 -0.069844 -0.449423
  9 9.024058 0.000000 -0.000000 0.000000 0.000000 0.000000
 10 -0.225689 0.306409 1.691051 1.345281 -1.174602 1.791861
 11 6.384778 -0.000002 0.000000 -1.040862 -0.363189 -1.192811
 12 10.242681 -0.000003 0.000002 -0.000000 -0.000000 -1.351032
 13 11.375559 -0.000001 0.000000 -3.135286 0.460192 -0.006221
 14 0.728681 0.023431 -1.008293 2.038136 0.634975 1.094199
 15 2.136498 0.000000 -0.000001 0.000000 -0.000000 0.287979
 16 2.313137 0.000001 0.000002 0.000000 0.000000 0.000000
 17 3.115507 -0.886039 -0.021433 -0.428318 0.000355 0.462512
 18 2.011151 0.000002 -0.000002 -0.000000 0.000000 0.930092
 19 2.141380 0.000001 0.000003 0.000000 0.000000 0.000000
 20 1.734170 0.000001 -0.000001 0.000000 -0.000000 0.464590
 21 0.000008 -4.440593 0.000002 1.570544 -0.062990 -0.195737
 22 5.999999 -0.000002 0.000001 -2.795319 0.000000 0.000000
 23 0.000001 -4.440602 0.000000 1.569944 -0.062987 0.004053
 24 11.375562 -0.000002 0.000005 -2.325062 0.244741 0.110424
 25 -0.000003 -4.440602 -0.000002 1.570144 -0.062988 0.004040
 26 10.510130 -0.000001 0.000002 0.000000 -0.000000 -2.246312
 27 0.000002 -1.748401 4.999999 0.000000 0.004007 1.602291
 28 5.500000 0.000000 0.000001 0.446108 -0.000000 -0.000000
 29 -0.000001 -1.940600 5.000003 -0.044472 0.004003 -0.000180
 30 6.551491 0.000001 0.000002 -0.829656 -0.159329 -0.801166
 31 0.000001 -1.940599 5.000000 -0.027189 -0.053376 0.005295
 32 6.551491 0.000001 0.000002 -0.358480 0.017680 -0.345666
 33 -0.000000 -1.940598 4.999994 -0.066572 -0.152786 -0.110311
 34 0.225692 -0.299333 -1.691051 2.754331 1.488891 -0.360678
 35 6.384777 0.000001 -0.000001 0.236077 1.023122 -1.371868
 36 10.242682 -0.000001 -0.000001 -0.000000 0.000000 -1.094982
 37 11.375562 0.000001 -0.000004 -3.112756 0.070462 0.877581
 38 0.728681 0.023431 1.008293 -1.539000 -0.370199 0.101110
 39 2.136501 -0.000004 -0.000000 -0.000000 0.000000 0.287979
 40 2.313138 0.000001 0.000000 0.000000 0.000000 3.141593
 41 3.115507 -0.886041 0.021433 0.495459 0.148146 0.639838
 42 2.011151 -0.000000 0.000003 0.000000 -0.000000 2.038377
 43 2.141379 0.000000 -0.000002 0.000000 0.000000 3.141593
 44 1.734172 -0.000001 0.000003 0.000000 -0.000000 1.019987
 45 0.136315 -3.738194 2.525891 1.493698 2.759406 -1.474501
 46 5.031112 -0.189688 1.849662 -2.967941 -0.035742 1.570790
 47 11.389366 -0.000819 0.158778 2.361418 0.232157 0.415158
 48 0.000001 -4.440599 -0.000000 1.570144 -3.078602 0.004040
 49 5.999999 0.000000 -0.000003 2.361418 0.000000 -0.000000
 50 0.000002 -4.440604 -0.000000 1.569944 -3.078603 0.004053
 51 10.510132 -0.000000 0.000001 -0.000000 -0.000000 -2.118287
 52 -0.000001 -1.748400 -5.000000 -3.141593 0.004007 -1.539299
 53 5.500000 -0.000000 0.000001 -0.232286 0.000000 0.000000
 54 0.000000 0.000000 -5.000002 -0.044472 3.137589 -0.000177
 55 6.551491 0.000002 -0.000001 0.232286 0.226735 -0.364289
 56 -1.266843 -1.937444 -4.950562 -0.066572 -2.988806 -0.110308
 57 6.551491 0.000002 -0.000001 0.232286 0.226735 -0.364289
 58 0.699371 -1.944209 -5.006848 -0.027189 -3.088217 0.005298
 59 4.226146 -0.003201 -0.000000 0.090044 0.070130 -0.007695
 60 -0.000001 5.000001 -0.000000 -0.153564 0.000087 2.718702
 61 0.000004 -0.000004 -3.713580 0.365818 2.880119 -0.191589
 62 0.000002 -0.000000 5.000000 3.053196 1.558589 -0.074928
 63 -0.000007 0.000006 3.713580 -0.001619 -3.122277 -0.475127
 64 0.000002 -0.000001 -5.000000 -0.088726 1.558589 3.066334
 65 7.363602 1.646647 0.495663 3.141593 -1.570796 0.000000
 66 -0.000005 0.000007 3.619081 0.008255 -3.110080 -0.985231
 67 16.573919 0.000002 0.000000 0.000000 -0.000000 -1.065827
 68 15.128181 0.000000 -0.000000 -0.102296 0.010178 0.114297
 69 5.758665 4.244730 0.000000 0.000000 0.000000 1.667687
 70 3.177725 0.000000 -0.000000 0.000000 0.000000 3.141593
 71 15.708953 0.000001 0.000000 -0.051525 0.003996 0.061523
 72 0.275148 0.189215 -3.445207 3.130898 0.000409 -1.514604
 73 17.210192 0.000001 0.000000 0.000000 -0.000000 -1.893339
 74 0.000001 -0.000000 -5.000000 -0.079430 1.546568 -1.570855
 75 0.000002 -0.000003 -3.619081 0.577895 2.675801 -0.242118
 76 16.573921 -0.000001 -0.000002 -0.000000 -0.000000 -1.163030
 77 15.128181 0.000001 0.000001 0.089479 0.309197 0.659208
 78 5.758666 4.244730 -0.000001 -0.000000 -0.000000 1.815142
 79 4.003934 -0.000000 0.000001 0.000000 0.000000 0.000000
 80 15.708954 0.000001 0.000002 0.042277 0.226871 0.443133
 81 0.273998 0.191089 3.439762 -3.130907 -0.000437 -1.508107
 82 17.210194 -0.000001 -0.000002 0.000000 -0.000000 -1.937080
 83 -0.000000 -0.000001 5.000000 -0.079319 1.595025 -1.570742
time 6
  0 -0.650000 0.000000 33.899605 -0.025849 0.174554 -1.569172
  1 5.685104 0.833236 -32.227173 -0.174512 -0.026131 1.569196
  2 -2.276935 0.000003 -1.238188 -1.570795 -1.570451 0.000000
  3 1.797460 0.711818 0.000194 -0.059947 -0.029368 0.099754
  4 4.119149 -0.003228 0.000202 -0.061796 -0.023897 0.168767
  5 4.119150 -0.003229 0.000202 -0.061796 -0.023896 0.168793
  6 4.119725 -0.003074 0.000212 -0.064814 -0.009075 0.351364
  7 4.118498 -0.003483 -0.000618 0.177227 0.130624 -0.007061
  8 4.443599 -0.000000 -0.000000 0.239476 -0.069844 -0.449423
  9 9.024058 0.000000 -0.000000 0.000000 0.000000 0.000000
 10 -0.225689 0.306409 1.691051 1.345281 -1.174602 1.791861
 11 6.384778 -0.000002 0.000000 -1.040862 -0.363189 -1.192811
 12 10.242681 -0.000003 0.000002 -0.000000 -0.000000 -1.351032
 13 11.375559 -0.000001 0.000000 -3.135286 0.460192 -0.006221
 14 0.728681 0.023431 -1.008293 2.038136 0.634975 1.094199
 15 2.136498 0.000000 -0.000001 0.000000 -0.000000 0.287979
 16 2.313137 0.000001 0.000002 0.000000 0.000000 0.000000
 17 3.115507 -0.886039 -0.021433 -0.428318 0.000355 0.462512
 18 2.011151 0.000002 -0.000002 -0.000000 0.000000 0.930092
 19 2.141380 0.000001 0.000003 0.000000 0.000000 0.000000
 20 1.734170 0.000001 -0.000001 0.000000 -0.000000 0.464590
 21 0.000008 -4.440593 0.000002 1.570544 -0.062990 -0.195737
 22 5.999999 -0.000002 0.000001 -2.795319 0.000000 0.000000
 23 0.000001 -4.440602 0.000000 1.569944 -0.062987 0.004053
 24 11.375562 -0.000002 0.000005 -2.325062 0.244741 0.110424
 25 -0.000003 -4.440602 -0.000002 1.570144 -0.062988 0.004040
 26 10.510130 -0.000001 0.000002 0.000000 -0.000000 -2.246312
 27 0.000002 -1.748401 4.999999 0.000000 0.004007 1.602291
 28 5.500000 0.000000 0.000001 0.446108 -0.000000 -0.000000
 29 -0.000001 -1.940600 5.000003 -0.044472 0.004003 -0.000180
 30 6.551491 0.000001 0.000002 -0.829656 -0.159329 -0.801166
 31 0.000001 -1.940599 5.000000 -0.027189 -0.053376 0.005295
 32 6.551491 0.000001 0.000002 -0.358480 0.017680 -0.345666
 33 -0.000000 -1.940598 4.999994 -0.066572 -0.152786 -0.110311
 34 0.225692 -0.299333 -1.691051 2.754331 1.488891 -0.360678
 35 6.384777 0.000001 -0.000001 0.236077 1.023122 -1.371868
 36 10.242682 -0.000001 -0.000001 -0.000000 0.000000 -1.094982
 37 11.375562 0.000001 -0.000004 -3.112756 0.070462 0.877581
 38 0.728681 0.023431 1.008293 -1.539000 -0.370199 0.101110
 39 2.136501 -0.000004 -0.000000 -0.000000 0.000000 0.287979
 40 2.313138 0.000001 0.000000 0.000000 0.000000 3.141593
 41 3.115507 -0.886041 0.021433 0.495459 0.148146 0.639838
 42 2.011151 -0.000000 0.000003 0.000000 -0.000000 2.038377
 43 2.141379 0.000000 -0.000002 0.000000 0.000000 3.141593
 44 1.734172 -0.000001 0.000003 0.000000 -0.000000 1.019987
 45 0.136315 -3.738194 2.525891 1.493698 2.759406 -1.474501
 46 5.031112 -0.189688 1.849662 -2.967941 -0.035742 1.570790
 47 11.389366 -0.000819 0.158778 2.361418 0.232157 0.415158
 48 0.000001 -4.440599 -0.000000 1.570144 -3.078602 0.004040
 49 5.999999 0.000000 -0.000003 2.361418 0.000000 -0.000000
 50 0.000002 -4.440604 -0.000000 1.569944 -3.078603 0.004053
 51 10.510132 -0.000000 0.000001 -0.000000 -0.000000 -2.118287
 52 -0.000001 -1.748400 -5.000000 -3.141593 0.004007 -1.539299
 53 5.500000 -0.000000 0.000001 -0.232286 0.000000 0.000000
 54 0.000000 0.000000 -5.000002 -0.044472 3.137589 -0.000177
 55 6.551491 0.000002 -0.000001 0.232286 0.226735 -0.364289
 56 -1.266843 -1.937444 -4.950562 -0.066572 -2.988806 -0.110308
 57 6.551491 0.000002 -0.000001 0.232286 0.226735 -0.364289
 58 0.699371 -1.944209 -5.006848 -0.027189 -3.088217 0.005298
 59 4.226146 -0.003201 -0.000000 0.090044 0.070130 -0.007695
 60 -0.000001 5.000001 -0.000000 -0.153564 0.000087 2.718702
 61 0.000004 -0.000004 -3.713580 0.365818 2.880119 -0.191589
 62 0.000002 -0.000000 5.000000 3.053196 1.558589 -0.074928
 63 -0.000007 0.000006 3.713580 -0.001619 -3.122277 -0.475127
 64 0.000002 -0.000001 -5.000000 -0.088726 1.558589 3.066334
 65 7.363602 1.646647 0.495663 3.141593 -1.570796 0.000000
 66 -0.000005 0.000007 3.619081 0.008255 -3.110080 -0.985231
 67 16.573919 0.000002 0.000000 0.000000 -0.000000 -1.065827
 68 15.128181 0.000000 -0.000000 -0.102296 0.010178 0.114297
 69 5.758665 4.244730 0.000000 0.000000 0.000000 1.667687
 70 3.177725 0.000000 -0.000000 0.000000 0.000000 3.141593
 71 15.708953 0.000001 0.000000 -0.051525 0.003996 0.061523
 72 0.275148 0.189215 -3.445207 3.130898 0.000409 -1.514604
 73 17.210192 0.000001 0.000000 0.000000 -0.000000 -1.893339
 74 0.000001 -0.000000 -5.000000 -0.079430 1.546568 -1.570855
 75 0.000002 -0.000003 -3.619081 0.577895 2.675801 -0.242118
 76 16.573921 -0.000001 -0.000002 -0.000000 -0.000000 -1.163030
 77 15.128181 0.000001 0.000001 0.089479 0.309197 0.659208
 78 5.758666 4.244730 -0.000001 -0.000000 -0.000000 1.815142
 79 4.003934 -0.000000 0.000001 0.000000 0.000000 0.000000
 80 15.708954 0.000001 0.000002 0.042277 0.226871 0.443133
 81 0.273998 0.191089 3.439762 -3.130907 -0.000437 -1.508107
 82 17.210194 -0.000001 -0.000002 0.000000 -0.000000 -1.937080
 83 -0.000000 -0.000001 5.000000 -0.079319 1.595025 -1.570742
end
