version 1
nodes
  0 "Bip01"  -1
  1 "Bip01 Footsteps"   0
  2 "Bip01 Pelvis"   0
  3 "Bip01 Spine"   2
  4 "Bip01 Spine1"   3
  5 "Bip01 Spine2"   4
  6 "Bip01 Spine3"   5
  7 "Bip01 Neck"   6
  8 "Bip01 Head"   7
  9 "Dummy21"   8
 10 "Bip01 L Clavicle"   7
 11 "Bip01 L UpperArm"  10
 12 "Bip01 L Forearm"  11
 13 "Bip01 L Hand"  12
 14 "Bip01 L Finger0"  13
 15 "Bip01 L Finger01"  14
 16 "Dummy06"  15
 17 "Bip01 L Finger1"  13
 18 "Bip01 L Finger11"  17
 19 "Dummy03"  18
 20 "-- L knuckle"  17
 21 "-- L knuckle_end"  20
 22 "-- L Forearm twist"  12
 23 "-- L Forearm twist_end"  22
 24 "-- L wrist"  12
 25 "-- L wrist_end"  24
 26 "-- L Elbow"  11
 27 "--L Elbow_end"  26
 28 "-- L bicep twist"  11
 29 "-- L bicep twist_end"  28
 30 "-- L shoulder outside"  10
 31 "-- L shoulder outside_end"  30
 32 "-- L Shoulder inside"  10
 33 "-- L Shoulder inside_end"  32
 34 "Bip01 R Clavicle"   7
 35 "Bip01 R UpperArm"  34
 36 "Bip01 R Forearm"  35
 37 "Bip01 R Hand"  36
 38 "Bip01 R Finger0"  37
 39 "Bip01 R Finger01"  38
 40 "Dummy01"  39
 41 "Bip01 R Finger1"  37
 42 "Bip01 R Finger11"  41
 43 "Dummy02"  42
 44 "-- R knuckle"  41
 45 "Point06"  44
 46 "Beretta Elite"  37
 47 "-- R wrist"  36
 48 "-- R wrist_end"  47
 49 "-- R forearm twist"  36
 50 "-- R forearm twist_end"  49
 51 "-- R Elbow"  35
 52 "--R Elbow_end"  51
 53 "-- R bicep twist"  35
 54 "-- R bicep twist_end"  53
 55 "-- R Shoulder inside"  34
 56 "-- R Shoulder inside_end"  55
 57 "-- R shoulder outside"  34
 58 "-- R shoulder outside_end"  57
 59 "-- Neck smooth"   6
 60 "-- neck smooth end"  59
 61 "-- R Butt"   2
 62 "--R Butt_end"  61
 63 "-- L butt"   2
 64 "--L butt_end"  63
 65 "GIGN01"   2
 66 "Bip01 L Thigh"   2
 67 "Bip01 L Calf"  66
 68 "Bip01 L Foot"  67
 69 "Bip01 L Toe0"  68
 70 "Dummy16"  69
 71 "-- L ankle"  67
 72 "-- L ankleend"  71
 73 "-- L Knee"  66
 74 "--L Knee_end"  73
 75 "Bip01 R Thigh"   2
 76 "Bip01 R Calf"  75
 77 "Bip01 R Foot"  76
 78 "Bip01 R Toe0"  77
 79 "Dummy11"  78
 80 "-- R Ankle"  76
 81 "-- R ankleend"  80
 82 "-- R Knee"  75
 83 "--R Knee_end"  82
end
skeleton
time 0
  0 0.233849 -2.251689 38.192150 0.000000 0.000000 -1.570795
  1 0.000000 -0.000000 -32.673866 0.000000 0.000000 1.570795
  2 -2.276935 0.000003 -1.238186 -1.570795 -1.570451 0.000000
  3 1.797630 0.711840 -0.000236 0.071601 -0.089685 0.143023
  4 4.118646 -0.003271 -0.000238 0.072633 0.032070 0.015392
  5 4.119076 -0.003238 -0.000228 0.069501 0.032002 0.147038
  6 4.119494 -0.003154 -0.000158 0.054788 -0.504528 0.248082
  7 4.118065 -0.003074 -0.001666 0.522097 0.334184 0.014352
  8 4.443601 -0.000001 0.000000 0.378226 -0.320114 0.572193
  9 9.024062 -0.000001 0.000001 0.000000 0.000000 0.000000
 10 -0.568328 0.819837 1.418795 1.214505 -0.716846 1.934590
 11 6.384778 0.000001 0.000002 -1.407501 0.989091 -0.899966
 12 10.242684 -0.000000 0.000001 -0.000000 -0.000000 -2.270459
 13 11.375563 -0.000002 -0.000001 -2.663574 0.107716 -0.074122
 14 0.728683 0.023431 -1.008292 2.038136 0.634975 1.094199
 15 2.136495 -0.000001 0.000000 -0.000000 -0.000000 0.287979
 16 2.313140 0.000001 0.000001 0.000000 0.000000 0.000000
 17 3.115508 -0.886042 -0.021431 -0.428318 0.000355 0.462512
 18 2.011152 0.000001 -0.000000 0.000000 -0.000000 0.930092
 19 2.141380 -0.000001 -0.000001 0.000000 0.000000 0.000000
 20 1.734173 0.000001 -0.000001 0.000000 0.000000 0.464590
 21 0.000004 -4.440594 0.000001 1.570544 -0.062990 -0.195737
 22 5.999998 0.000001 0.000000 -2.411395 0.000000 -0.000000
 23 0.000001 -4.440602 0.000000 1.569944 -0.062987 0.004053
 24 11.375560 0.000001 0.000002 -2.115099 0.073703 -0.025131
 25 -0.000001 -4.440603 0.000000 1.570144 -0.062988 0.004040
 26 10.510135 -0.000000 0.000000 -0.000000 0.000000 -2.706026
 27 -0.000000 -1.748400 4.999999 0.000000 0.004007 1.602291
 28 5.500000 -0.000000 0.000000 0.354301 0.000000 0.000000
 29 -0.000003 -1.940598 4.999999 -0.044472 0.004003 -0.000180
 30 6.551493 -0.000000 -0.000000 -0.786982 0.791954 -0.290855
 31 0.000002 -1.940599 5.000001 -0.027189 -0.053376 0.005295
 32 6.551493 -0.000000 -0.000000 -0.282167 0.366767 -0.032967
 33 -0.000003 -1.940598 4.999998 -0.066572 -0.152786 -0.110311
 34 0.568334 -0.812762 -1.418794 2.715432 0.767566 -0.242658
 35 6.384775 -0.000000 -0.000001 0.514010 0.099172 -1.467311
 36 10.242681 -0.000000 -0.000001 0.000000 -0.000000 -1.711842
 37 11.375561 -0.000001 0.000001 2.591188 0.166332 0.872636
 38 0.728681 0.023432 1.008291 -1.539000 -0.370199 0.101110
 39 2.136497 0.000001 0.000001 -0.000000 0.000000 0.287979
 40 2.313139 0.000003 -0.000001 0.000000 0.000000 3.141593
 41 3.115506 -0.886042 0.021432 0.495459 0.148146 0.639838
 42 2.011152 -0.000001 -0.000003 -0.000000 0.000000 2.038377
 43 2.141380 -0.000000 0.000001 0.000000 0.000000 3.141593
 44 1.734174 -0.000001 -0.000002 0.000000 0.000000 1.019987
 45 0.136315 -3.738191 2.525890 1.493698 2.759406 -1.474501
 46 5.031114 -0.189687 1.849660 -2.967941 -0.035742 1.570790
 47 11.389366 -0.000820 0.158782 2.056287 0.191616 0.411600
 48 0.000001 -4.440598 -0.000001 1.570144 -3.078602 0.004040
 49 6.000000 -0.000001 -0.000001 2.056287 0.000000 0.000000
 50 0.000001 -4.440601 0.000001 1.569944 -3.078603 0.004053
 51 10.510132 0.000000 0.000001 -0.000000 0.000000 -2.426717
 52 0.000000 -1.748400 -5.000002 -3.141593 0.004007 -1.539299
 53 5.500000 -0.000000 0.000001 -0.200751 -0.000000 -0.000000
 54 0.000000 0.000000 -4.999999 -0.044472 3.137589 -0.000177
 55 6.551489 0.000000 -0.000001 0.200751 -0.061503 -0.420441
 56 -1.266844 -1.937444 -4.950560 -0.066572 -2.988806 -0.110308
 57 6.551489 0.000000 -0.000001 0.200751 -0.061503 -0.420441
 58 0.699370 -1.944208 -5.006847 -0.027189 -3.088217 0.005298
 59 4.226144 -0.003201 -0.000000 0.258876 0.179478 -0.017808
 60 -0.000001 5.000000 0.000000 -0.153564 0.000087 2.718702
 61 0.000005 -0.000005 -3.713579 0.365818 2.880119 -0.191589
 62 0.000002 -0.000000 4.999999 3.053194 1.558589 -0.074930
 63 -0.000005 0.000005 3.713579 -0.001619 -3.122277 -0.475127
 64 -0.000000 -0.000001 -5.000000 -0.088726 1.558589 3.066335
 65 7.363605 1.646646 0.495663 3.141593 -1.570796 0.000000
 66 -0.000005 0.000007 3.619081 0.008255 -3.110080 -0.985231
 67 16.573919 0.000001 0.000000 -0.000000 0.000000 -1.065827
 68 15.128179 0.000000 0.000000 -0.102296 0.010178 0.114297
 69 5.758665 4.244730 -0.000000 0.000000 -0.000000 1.667687
 70 3.177726 -0.000000 0.000000 0.000000 0.000000 3.141593
 71 15.708952 0.000000 0.000000 -0.051525 0.003996 0.061523
 72 0.275149 0.189215 -3.445207 3.130898 0.000409 -1.514604
 73 17.210192 0.000000 0.000000 0.000000 0.000000 -1.893339
 74 -0.000001 0.000000 -5.000000 -0.079430 1.546568 -1.570856
 75 0.000005 -0.000003 -3.619081 0.577895 2.675801 -0.242118
 76 16.573919 -0.000002 -0.000001 -0.000000 -0.000000 -1.163030
 77 15.128182 0.000003 0.000001 0.089479 0.309197 0.659208
 78 5.758664 4.244730 -0.000000 -0.000000 -0.000000 1.815142
 79 4.003934 -0.000000 -0.000000 0.000000 0.000000 0.000000
 80 15.708954 0.000002 0.000001 0.042277 0.226871 0.443133
 81 0.273998 0.191089 3.439762 -3.130907 -0.000437 -1.508106
 82 17.210194 -0.000002 -0.000001 0.000000 0.000000 -1.937080
 83 0.000000 0.000000 5.000000 -0.079311 1.595025 -1.570736
time 1
  0 0.233849 -2.251689 38.192150 0.000000 0.000000 -1.570795
  1 0.000000 -0.000000 -32.673866 0.000000 0.000000 1.570795
  2 -2.276935 0.000003 -1.238186 -1.570795 -1.570451 0.000000
  3 1.797638 0.711844 -0.000272 0.082537 -0.096228 0.142659
  4 4.118641 -0.003268 -0.000273 0.083525 0.025526 0.015023
  5 4.119078 -0.003235 -0.000263 0.080394 0.025457 0.146689
  6 4.119504 -0.003146 -0.000189 0.065831 -0.511077 0.247793
  7 4.118066 -0.003075 -0.001667 0.522098 0.334184 0.014352
  8 4.443600 -0.000000 0.000000 0.371808 -0.268391 0.530728
  9 9.024061 -0.000001 0.000002 0.000000 0.000000 0.000000
 10 -0.568326 0.819836 1.418795 1.214505 -0.716846 1.934590
 11 6.384777 -0.000000 0.000001 -1.339156 0.957966 -0.899504
 12 10.242682 -0.000000 0.000001 0.000000 -0.000000 -2.172369
 13 11.375560 -0.000001 -0.000001 -2.684248 0.054661 -0.105214
 14 0.728680 0.023432 -1.008292 2.038136 0.634975 1.094199
 15 2.136496 -0.000000 0.000002 -0.000000 -0.000000 0.287979
 16 2.313138 -0.000001 -0.000001 0.000000 0.000000 0.000000
 17 3.115506 -0.886041 -0.021432 -0.428318 0.000355 0.462512
 18 2.011152 0.000001 -0.000001 0.000000 -0.000000 0.930092
 19 2.141379 0.000000 0.000001 0.000000 0.000000 0.000000
 20 1.734172 0.000001 0.000001 -0.000000 -0.000000 0.464590
 21 0.000005 -4.440594 0.000001 1.570544 -0.062990 -0.195737
 22 6.000000 0.000000 0.000000 -2.429076 -0.000000 -0.000000
 23 -0.000001 -4.440601 0.000001 1.569944 -0.062987 0.004053
 24 11.375562 -0.000001 0.000002 -2.126475 0.049377 -0.051700
 25 -0.000003 -4.440604 0.000001 1.570144 -0.062988 0.004040
 26 10.510131 0.000000 -0.000000 0.000000 -0.000000 -2.656981
 27 0.000002 -1.748402 4.999999 -0.000000 0.004007 1.602291
 28 5.500002 -0.000000 0.000000 0.349573 0.000000 -0.000000
 29 0.000001 -1.940598 5.000000 -0.044472 0.004003 -0.000180
 30 6.551490 0.000000 0.000002 -0.764928 0.756277 -0.306880
 31 0.000000 -1.940599 5.000002 -0.027189 -0.053376 0.005295
 32 6.551490 0.000000 0.000002 -0.279085 0.356431 -0.047814
 33 0.000002 -1.940599 4.999994 -0.066572 -0.152786 -0.110311
 34 0.568331 -0.812760 -1.418795 2.764300 0.765781 -0.194265
 35 6.384776 0.000000 0.000000 0.537118 0.044050 -1.406230
 36 10.242684 -0.000000 0.000005 -0.000000 -0.000000 -1.693430
 37 11.375564 -0.000001 0.000003 2.588596 0.128499 0.865104
 38 0.728681 0.023430 1.008291 -1.539000 -0.370199 0.101110
 39 2.136497 -0.000000 0.000001 -0.000000 0.000000 0.287979
 40 2.313138 -0.000001 -0.000001 0.000000 0.000000 3.141593
 41 3.115506 -0.886042 0.021429 0.495459 0.148146 0.639838
 42 2.011152 -0.000000 -0.000002 0.000000 -0.000000 2.038377
 43 2.141378 0.000001 0.000001 0.000000 0.000000 3.141593
 44 1.734173 -0.000001 -0.000001 -0.000000 -0.000000 1.019987
 45 0.136315 -3.738191 2.525889 1.493698 2.759406 -1.474501
 46 5.031112 -0.189689 1.849661 -2.967941 -0.035742 1.570790
 47 11.389365 -0.000821 0.158783 2.060731 0.172715 0.414507
 48 -0.000000 -4.440598 0.000000 1.570144 -3.078602 0.004040
 49 5.999999 -0.000001 0.000002 2.060731 0.000000 0.000000
 50 0.000001 -4.440602 0.000001 1.569944 -3.078603 0.004053
 51 10.510132 0.000000 0.000005 0.000000 -0.000000 -2.417511
 52 0.000001 -1.748401 -5.000000 3.141593 0.004007 -1.539299
 53 5.500000 0.000000 0.000003 -0.193132 -0.000000 0.000000
 54 -0.000001 0.000000 -5.000000 -0.044472 3.137589 -0.000177
 55 6.551490 0.000001 -0.000000 0.193132 -0.078136 -0.392370
 56 -1.266844 -1.937443 -4.950560 -0.066572 -2.988806 -0.110308
 57 6.551490 0.000001 -0.000000 0.193132 -0.078136 -0.392370
 58 0.699369 -1.944207 -5.006848 -0.027189 -3.088217 0.005298
 59 4.226144 -0.003201 -0.000000 0.258876 0.179478 -0.017808
 60 0.000000 5.000000 0.000001 -0.153564 0.000087 2.718702
 61 0.000005 -0.000005 -3.713579 0.365818 2.880119 -0.191589
 62 0.000002 -0.000000 4.999999 3.053194 1.558589 -0.074930
 63 -0.000005 0.000005 3.713579 -0.001619 -3.122277 -0.475127
 64 -0.000000 -0.000001 -5.000000 -0.088726 1.558589 3.066335
 65 7.363605 1.646646 0.495663 3.141593 -1.570796 0.000000
 66 -0.000005 0.000007 3.619081 0.008255 -3.110080 -0.985231
 67 16.573919 0.000001 0.000000 -0.000000 0.000000 -1.065827
 68 15.128179 0.000000 0.000000 -0.102296 0.010178 0.114297
 69 5.758665 4.244730 -0.000000 0.000000 -0.000000 1.667687
 70 3.177726 -0.000000 0.000000 0.000000 0.000000 3.141593
 71 15.708952 0.000000 0.000000 -0.051525 0.003996 0.061523
 72 0.275149 0.189215 -3.445207 3.130898 0.000409 -1.514604
 73 17.210192 0.000000 0.000000 0.000000 0.000000 -1.893339
 74 -0.000001 0.000000 -5.000000 -0.079430 1.546568 -1.570856
 75 0.000005 -0.000003 -3.619081 0.577895 2.675801 -0.242118
 76 16.573919 -0.000002 -0.000001 -0.000000 -0.000000 -1.163030
 77 15.128182 0.000003 0.000001 0.089479 0.309197 0.659208
 78 5.758664 4.244730 -0.000000 -0.000000 -0.000000 1.815142
 79 4.003934 -0.000000 -0.000000 0.000000 0.000000 0.000000
 80 15.708954 0.000002 0.000001 0.042277 0.226871 0.443133
 81 0.273998 0.191089 3.439762 -3.130907 -0.000437 -1.508106
 82 17.210194 -0.000002 -0.000001 0.000000 0.000000 -1.937080
 83 0.000000 0.000000 5.000000 -0.079311 1.595025 -1.570736
time 2
  0 0.233849 -2.251689 38.192150 0.000000 0.000000 -1.570795
  1 0.000000 -0.000000 -32.673866 0.000000 0.000000 1.570795
  2 -2.276935 0.000003 -1.238186 -1.570795 -1.570451 0.000000
  3 1.797638 0.711847 -0.000307 0.093483 -0.102768 0.142223
  4 4.118647 -0.003265 -0.000309 0.094418 0.018986 0.014583
  5 4.119070 -0.003231 -0.000299 0.091287 0.018915 0.146270
  6 4.119528 -0.003141 -0.000219 0.076917 -0.517623 0.247420
  7 4.118068 -0.003075 -0.001666 0.522097 0.334184 0.014352
  8 4.443597 -0.000000 -0.000000 0.362566 -0.217485 0.489063
  9 9.024062 0.000001 -0.000001 0.000000 0.000000 0.000000
 10 -0.568330 0.819837 1.418794 1.214505 -0.716846 1.934590
 11 6.384776 0.000001 0.000001 -1.279268 0.923002 -0.902878
 12 10.242679 -0.000000 0.000000 0.000000 0.000000 -2.074287
 13 11.375560 0.000003 -0.000001 -2.712793 0.005079 -0.132019
 14 0.728682 0.023432 -1.008293 2.038136 0.634976 1.094199
 15 2.136495 0.000001 0.000000 0.000000 -0.000000 0.287979
 16 2.313139 -0.000001 0.000001 0.000000 0.000000 0.000000
 17 3.115508 -0.886040 -0.021432 -0.428318 0.000355 0.462512
 18 2.011151 0.000001 -0.000000 0.000000 -0.000000 0.930092
 19 2.141379 -0.000001 -0.000000 0.000000 0.000000 0.000000
 20 1.734172 0.000001 0.000001 0.000000 -0.000000 0.464590
 21 0.000008 -4.440593 0.000001 1.570544 -0.062990 -0.195737
 22 6.000000 -0.000000 -0.000001 -2.452920 0.000000 0.000000
 23 0.000001 -4.440602 0.000001 1.569944 -0.062987 0.004053
 24 11.375560 0.000002 0.000002 -2.141521 0.026625 -0.075433
 25 -0.000000 -4.440605 0.000001 1.570144 -0.062988 0.004040
 26 10.510130 -0.000000 0.000000 -0.000000 0.000000 -2.607940
 27 0.000003 -1.748402 4.999999 -0.000000 0.004007 1.602291
 28 5.499998 -0.000000 -0.000000 0.344715 -0.000000 0.000000
 29 -0.000003 -1.940598 5.000000 -0.044472 0.004003 -0.000180
 30 6.551491 -0.000000 0.000001 -0.743331 0.716743 -0.327834
 31 0.000001 -1.940599 5.000001 -0.027189 -0.053376 0.005295
 32 6.551491 -0.000000 0.000000 -0.275843 0.344305 -0.065149
 33 0.000000 -1.940599 4.999997 -0.066572 -0.152786 -0.110311
 34 0.568331 -0.812761 -1.418795 2.813128 0.762214 -0.146483
 35 6.384776 -0.000002 0.000002 0.558173 -0.013362 -1.348088
 36 10.242682 -0.000000 0.000003 -0.000000 -0.000000 -1.675018
 37 11.375560 -0.000000 -0.000000 2.586302 0.090648 0.857702
 38 0.728681 0.023430 1.008291 -1.539000 -0.370199 0.101110
 39 2.136497 -0.000001 -0.000001 -0.000000 0.000000 0.287979
 40 2.313140 0.000002 -0.000001 0.000000 0.000000 3.141593
 41 3.115506 -0.886042 0.021432 0.495459 0.148146 0.639838
 42 2.011152 -0.000002 -0.000003 -0.000000 0.000000 2.038377
 43 2.141381 0.000001 0.000001 0.000000 0.000000 3.141593
 44 1.734173 -0.000001 -0.000002 -0.000000 -0.000000 1.019987
 45 0.136314 -3.738191 2.525890 1.493698 2.759406 -1.474501
 46 5.031115 -0.189689 1.849661 -2.967941 -0.035742 1.570790
 47 11.389365 -0.000820 0.158780 2.065026 0.153767 0.417220
 48 0.000000 -4.440600 -0.000000 1.570144 -3.078602 0.004040
 49 5.999999 -0.000000 -0.000002 2.065027 0.000000 0.000000
 50 0.000002 -4.440602 -0.000001 1.569944 -3.078603 0.004053
 51 10.510132 -0.000000 0.000004 -0.000000 -0.000000 -2.408305
 52 -0.000001 -1.748400 -5.000000 -3.141593 0.004007 -1.539299
 53 5.500000 0.000000 0.000002 -0.183581 -0.000000 0.000000
 54 0.000000 -0.000001 -5.000000 -0.044472 3.137589 -0.000177
 55 6.551489 -0.000001 0.000002 0.183581 -0.092941 -0.368754
 56 -1.266844 -1.937444 -4.950559 -0.066572 -2.988806 -0.110308
 57 6.551490 -0.000002 0.000003 0.183581 -0.092941 -0.368754
 58 0.699371 -1.944211 -5.006845 -0.027189 -3.088217 0.005298
 59 4.226147 -0.003202 -0.000001 0.258876 0.179478 -0.017808
 60 0.000000 5.000000 -0.000000 -0.153564 0.000087 2.718702
 61 0.000005 -0.000005 -3.713579 0.365818 2.880119 -0.191589
 62 0.000002 -0.000000 4.999999 3.053194 1.558589 -0.074930
 63 -0.000005 0.000005 3.713579 -0.001619 -3.122277 -0.475127
 64 -0.000000 -0.000001 -5.000000 -0.088726 1.558589 3.066335
 65 7.363605 1.646646 0.495663 3.141593 -1.570796 0.000000
 66 -0.000005 0.000007 3.619081 0.008255 -3.110080 -0.985231
 67 16.573919 0.000001 0.000000 -0.000000 0.000000 -1.065827
 68 15.128179 0.000000 0.000000 -0.102296 0.010178 0.114297
 69 5.758665 4.244730 -0.000000 0.000000 -0.000000 1.667687
 70 3.177726 -0.000000 0.000000 0.000000 0.000000 3.141593
 71 15.708952 0.000000 0.000000 -0.051525 0.003996 0.061523
 72 0.275149 0.189215 -3.445207 3.130898 0.000409 -1.514604
 73 17.210192 0.000000 0.000000 0.000000 0.000000 -1.893339
 74 -0.000001 0.000000 -5.000000 -0.079430 1.546568 -1.570856
 75 0.000005 -0.000003 -3.619081 0.577895 2.675801 -0.242118
 76 16.573919 -0.000002 -0.000001 -0.000000 -0.000000 -1.163030
 77 15.128182 0.000003 0.000001 0.089479 0.309197 0.659208
 78 5.758664 4.244730 -0.000000 -0.000000 -0.000000 1.815142
 79 4.003934 -0.000000 -0.000000 0.000000 0.000000 0.000000
 80 15.708954 0.000002 0.000001 0.042277 0.226871 0.443133
 81 0.273998 0.191089 3.439762 -3.130907 -0.000437 -1.508106
 82 17.210194 -0.000002 -0.000001 0.000000 0.000000 -1.937080
 83 0.000000 0.000000 5.000000 -0.079311 1.595025 -1.570736
time 3
  0 0.233849 -2.251689 38.192150 0.000000 0.000000 -1.570795
  1 0.000000 -0.000000 -32.673866 0.000000 0.000000 1.570795
  2 -2.276935 0.000003 -1.238186 -1.570795 -1.570451 0.000000
  3 1.797641 0.711851 -0.000342 0.104439 -0.109302 0.141715
  4 4.118643 -0.003261 -0.000345 0.105312 0.012451 0.014072
  5 4.119072 -0.003229 -0.000334 0.102182 0.012379 0.145779
  6 4.119542 -0.003133 -0.000251 0.088048 -0.524165 0.246961
  7 4.118068 -0.003074 -0.001667 0.522098 0.334184 0.014352
  8 4.443598 -0.000001 0.000001 0.350561 -0.167536 0.446949
  9 9.024059 0.000001 -0.000001 0.000000 0.000000 0.000000
 10 -0.568328 0.819835 1.418795 1.214505 -0.716846 1.934590
 11 6.384776 -0.000001 -0.000001 -1.225534 0.885680 -0.909602
 12 10.242682 -0.000000 0.000000 0.000000 -0.000000 -1.976844
 13 11.375561 -0.000000 -0.000001 -2.747828 -0.041435 -0.154500
 14 0.728680 0.023429 -1.008292 2.038136 0.634975 1.094199
 15 2.136497 0.000001 -0.000001 0.000000 -0.000000 0.287979
 16 2.313139 -0.000001 -0.000000 0.000000 0.000000 0.000000
 17 3.115507 -0.886042 -0.021431 -0.428318 0.000355 0.462512
 18 2.011151 0.000000 -0.000001 0.000000 -0.000000 0.930092
 19 2.141379 0.000001 -0.000000 0.000000 0.000000 0.000000
 20 1.734172 0.000001 0.000000 -0.000000 -0.000000 0.464590
 21 0.000005 -4.440596 0.000000 1.570544 -0.062990 -0.195737
 22 6.000000 0.000000 -0.000000 -2.481974 0.000000 0.000000
 23 0.000001 -4.440602 0.000002 1.569944 -0.062987 0.004053
 24 11.375562 -0.000000 0.000003 -2.159571 0.005379 -0.096431
 25 0.000000 -4.440603 -0.000001 1.570144 -0.062988 0.004040
 26 10.510133 -0.000000 0.000000 0.000000 -0.000000 -2.559219
 27 0.000001 -1.748401 4.999999 0.000000 0.004007 1.602290
 28 5.500000 -0.000000 -0.000000 0.338523 -0.000000 -0.000000
 29 -0.000001 -1.940598 5.000000 -0.044472 0.004003 -0.000180
 30 6.551491 -0.000002 -0.000002 -0.719776 0.673997 -0.353280
 31 -0.000003 -1.940599 5.000001 -0.027189 -0.053376 0.005295
 32 6.551491 -0.000002 -0.000002 -0.271478 0.330478 -0.085000
 33 0.000001 -1.940599 4.999996 -0.066572 -0.152786 -0.110311
 34 0.568328 -0.812760 -1.418795 2.861713 0.756898 -0.099521
 35 6.384777 0.000001 -0.000002 0.577319 -0.072813 -1.292673
 36 10.242680 0.000000 0.000000 -0.000000 -0.000000 -1.656605
 37 11.375562 0.000000 0.000002 2.584294 0.052781 0.850408
 38 0.728680 0.023431 1.008293 -1.539000 -0.370199 0.101110
 39 2.136497 0.000004 0.000000 -0.000000 0.000000 0.287979
 40 2.313139 0.000000 0.000000 0.000000 0.000000 3.141593
 41 3.115506 -0.886041 0.021432 0.495459 0.148146 0.639838
 42 2.011149 -0.000000 0.000001 0.000000 -0.000000 2.038377
 43 2.141378 -0.000002 0.000000 0.000000 0.000000 3.141593
 44 1.734172 -0.000001 -0.000000 0.000000 0.000000 1.019987
 45 0.136315 -3.738191 2.525889 1.493698 2.759406 -1.474501
 46 5.031114 -0.189688 1.849664 -2.967941 -0.035742 1.570790
 47 11.389367 -0.000820 0.158783 2.069177 0.134771 0.419739
 48 0.000000 -4.440598 -0.000002 1.570144 -3.078602 0.004040
 49 6.000000 -0.000000 0.000000 2.069177 0.000000 -0.000000
 50 0.000002 -4.440598 -0.000000 1.569944 -3.078603 0.004053
 51 10.510130 -0.000000 0.000003 -0.000000 0.000000 -2.399099
 52 -0.000000 -1.748399 -5.000000 3.141593 0.004007 -1.539299
 53 5.499999 -0.000000 0.000002 -0.173888 -0.000000 -0.000000
 54 -0.000002 0.000001 -5.000002 -0.044472 3.137589 -0.000177
 55 6.551491 0.000002 -0.000002 0.173888 -0.106514 -0.349229
 56 -1.266842 -1.937441 -4.950559 -0.066572 -2.988806 -0.110308
 57 6.551491 0.000002 -0.000002 0.173888 -0.106514 -0.349229
 58 0.699372 -1.944206 -5.006846 -0.027189 -3.088217 0.005298
 59 4.226145 -0.003200 -0.000000 0.258876 0.179478 -0.017808
 60 0.000002 5.000000 0.000000 -0.153565 0.000087 2.718702
 61 0.000005 -0.000005 -3.713579 0.365818 2.880119 -0.191589
 62 0.000002 -0.000000 4.999999 3.053194 1.558589 -0.074930
 63 -0.000005 0.000005 3.713579 -0.001619 -3.122277 -0.475127
 64 -0.000000 -0.000001 -5.000000 -0.088726 1.558589 3.066335
 65 7.363605 1.646646 0.495663 3.141593 -1.570796 0.000000
 66 -0.000005 0.000007 3.619081 0.008255 -3.110080 -0.985231
 67 16.573919 0.000001 0.000000 -0.000000 0.000000 -1.065827
 68 15.128179 0.000000 0.000000 -0.102296 0.010178 0.114297
 69 5.758665 4.244730 -0.000000 0.000000 -0.000000 1.667687
 70 3.177726 -0.000000 0.000000 0.000000 0.000000 3.141593
 71 15.708952 0.000000 0.000000 -0.051525 0.003996 0.061523
 72 0.275149 0.189215 -3.445207 3.130898 0.000409 -1.514604
 73 17.210192 0.000000 0.000000 0.000000 0.000000 -1.893339
 74 -0.000001 0.000000 -5.000000 -0.079430 1.546568 -1.570856
 75 0.000005 -0.000003 -3.619081 0.577895 2.675801 -0.242118
 76 16.573919 -0.000002 -0.000001 -0.000000 -0.000000 -1.163030
 77 15.128182 0.000003 0.000001 0.089479 0.309197 0.659208
 78 5.758664 4.244730 -0.000000 -0.000000 -0.000000 1.815142
 79 4.003934 -0.000000 -0.000000 0.000000 0.000000 0.000000
 80 15.708954 0.000002 0.000001 0.042277 0.226871 0.443133
 81 0.273998 0.191089 3.439762 -3.130907 -0.000437 -1.508106
 82 17.210194 -0.000002 -0.000001 0.000000 0.000000 -1.937080
 83 0.000000 0.000000 5.000000 -0.079311 1.595025 -1.570736
time 4
  0 0.233849 -2.251689 38.192150 0.000000 0.000000 -1.570795
  1 0.000000 -0.000000 -32.673866 0.000000 0.000000 1.570795
  2 -2.276935 0.000003 -1.238186 -1.570795 -1.570451 0.000000
  3 1.797645 0.711856 -0.000378 0.115407 -0.115830 0.141135
  4 4.118648 -0.003257 -0.000381 0.116210 0.005923 0.013490
  5 4.119073 -0.003225 -0.000370 0.113079 0.005849 0.145217
  6 4.119552 -0.003123 -0.000281 0.099224 -0.530702 0.246417
  7 4.118069 -0.003077 -0.001667 0.522097 0.334184 0.014352
  8 4.443597 -0.000000 0.000000 0.335832 -0.118687 0.404158
  9 9.024062 -0.000003 -0.000001 0.000000 0.000000 0.000000
 10 -0.568329 0.819836 1.418795 1.214505 -0.716846 1.934590
 11 6.384777 0.000002 -0.000000 -1.176244 0.847076 -0.919238
 12 10.242682 -0.000000 0.000000 -0.000000 0.000000 -1.880551
 13 11.375561 0.000000 -0.000000 -2.788417 -0.084976 -0.172614
 14 0.728681 0.023432 -1.008292 2.038136 0.634976 1.094199
 15 2.136494 -0.000001 -0.000000 -0.000000 -0.000000 0.287979
 16 2.313138 -0.000000 0.000000 0.000000 0.000000 0.000000
 17 3.115507 -0.886041 -0.021430 -0.428318 0.000355 0.462512
 18 2.011152 0.000000 0.000000 -0.000000 -0.000000 0.930092
 19 2.141379 0.000003 0.000000 0.000000 0.000000 0.000000
 20 1.734172 0.000001 -0.000000 -0.000000 0.000000 0.464590
 21 0.000004 -4.440595 0.000000 1.570544 -0.062990 -0.195737
 22 5.999999 0.000000 -0.000000 -2.515635 0.000000 0.000000
 23 0.000000 -4.440602 0.000002 1.569944 -0.062987 0.004053
 24 11.375561 0.000000 0.000002 -2.180166 -0.014374 -0.114793
 25 -0.000003 -4.440604 0.000001 1.570144 -0.062988 0.004040
 26 10.510131 -0.000000 0.000000 -0.000000 0.000000 -2.511072
 27 0.000002 -1.748401 4.999998 -0.000000 0.004007 1.602291
 28 5.499999 0.000000 -0.000000 0.329956 -0.000000 -0.000000
 29 -0.000004 -1.940598 5.000000 -0.044472 0.004003 -0.000180
 30 6.551491 0.000001 -0.000001 -0.692475 0.628986 -0.382869
 31 -0.000000 -1.940598 5.000000 -0.027189 -0.053376 0.005295
 32 6.551491 0.000001 -0.000001 -0.265130 0.315115 -0.107239
 33 0.000001 -1.940599 4.999996 -0.066572 -0.152786 -0.110311
 34 0.568330 -0.812761 -1.418795 2.909864 0.749878 -0.053572
 35 6.384778 0.000001 -0.000001 0.594706 -0.134067 -1.239771
 36 10.242682 -0.000001 0.000002 0.000000 0.000000 -1.638193
 37 11.375559 -0.000003 -0.000004 2.582564 0.014901 0.843199
 38 0.728680 0.023431 1.008293 -1.539000 -0.370199 0.101110
 39 2.136497 0.000001 -0.000001 -0.000000 0.000000 0.287979
 40 2.313139 -0.000001 0.000001 0.000000 0.000000 3.141593
 41 3.115508 -0.886041 0.021430 0.495459 0.148146 0.639838
 42 2.011153 -0.000001 -0.000002 -0.000000 0.000000 2.038377
 43 2.141381 0.000001 -0.000002 0.000000 0.000000 3.141593
 44 1.734173 -0.000001 -0.000002 0.000000 0.000000 1.019987
 45 0.136316 -3.738194 2.525890 1.493698 2.759406 -1.474501
 46 5.031114 -0.189688 1.849661 -2.967941 -0.035742 1.570790
 47 11.389366 -0.000820 0.158779 2.073189 0.115725 0.422060
 48 0.000001 -4.440598 -0.000001 1.570144 -3.078602 0.004040
 49 5.999999 -0.000001 -0.000003 2.073189 -0.000000 0.000000
 50 0.000001 -4.440601 0.000001 1.569944 -3.078603 0.004053
 51 10.510132 0.000000 0.000001 -0.000000 0.000000 -2.389893
 52 -0.000000 -1.748398 -5.000000 -3.141593 0.004007 -1.539299
 53 5.500000 -0.000000 0.000000 -0.164830 -0.000000 -0.000000
 54 -0.000001 0.000000 -4.999999 -0.044472 3.137590 -0.000177
 55 6.551490 0.000000 0.000001 0.164830 -0.119412 -0.332768
 56 -1.266844 -1.937444 -4.950557 -0.066572 -2.988806 -0.110308
 57 6.551491 -0.000000 0.000001 0.164830 -0.119412 -0.332768
 58 0.699371 -1.944207 -5.006845 -0.027189 -3.088217 0.005298
 59 4.226145 -0.003202 0.000000 0.258876 0.179478 -0.017808
 60 0.000001 5.000000 0.000000 -0.153565 0.000087 2.718702
 61 0.000005 -0.000005 -3.713579 0.365818 2.880119 -0.191589
 62 0.000002 -0.000000 4.999999 3.053194 1.558589 -0.074930
 63 -0.000005 0.000005 3.713579 -0.001619 -3.122277 -0.475127
 64 -0.000000 -0.000001 -5.000000 -0.088726 1.558589 3.066335
 65 7.363605 1.646646 0.495663 3.141593 -1.570796 0.000000
 66 -0.000005 0.000007 3.619081 0.008255 -3.110080 -0.985231
 67 16.573919 0.000001 0.000000 -0.000000 0.000000 -1.065827
 68 15.128179 0.000000 0.000000 -0.102296 0.010178 0.114297
 69 5.758665 4.244730 -0.000000 0.000000 -0.000000 1.667687
 70 3.177726 -0.000000 0.000000 0.000000 0.000000 3.141593
 71 15.708952 0.000000 0.000000 -0.051525 0.003996 0.061523
 72 0.275149 0.189215 -3.445207 3.130898 0.000409 -1.514604
 73 17.210192 0.000000 0.000000 0.000000 0.000000 -1.893339
 74 -0.000001 0.000000 -5.000000 -0.079430 1.546568 -1.570856
 75 0.000005 -0.000003 -3.619081 0.577895 2.675801 -0.242118
 76 16.573919 -0.000002 -0.000001 -0.000000 -0.000000 -1.163030
 77 15.128182 0.000003 0.000001 0.089479 0.309197 0.659208
 78 5.758664 4.244730 -0.000000 -0.000000 -0.000000 1.815142
 79 4.003934 -0.000000 -0.000000 0.000000 0.000000 0.000000
 80 15.708954 0.000002 0.000001 0.042277 0.226871 0.443133
 81 0.273998 0.191089 3.439762 -3.130907 -0.000437 -1.508106
 82 17.210194 -0.000002 -0.000001 0.000000 0.000000 -1.937080
 83 0.000000 0.000000 5.000000 -0.079311 1.595025 -1.570736
time 5
  0 0.233849 -2.251689 38.192150 0.000000 0.000000 -1.570795
  1 0.000000 -0.000000 -32.673866 0.000000 0.000000 1.570795
  2 -2.276935 0.000003 -1.238186 -1.570795 -1.570451 0.000000
  3 1.797645 0.711856 -0.000378 0.115407 -0.115830 0.141135
  4 4.118648 -0.003257 -0.000381 0.116210 0.005923 0.013490
  5 4.119073 -0.003225 -0.000370 0.113079 0.005849 0.145217
  6 4.119552 -0.003123 -0.000281 0.099224 -0.530702 0.246417
  7 4.118069 -0.003077 -0.001667 0.522097 0.334184 0.014352
  8 4.443597 -0.000000 0.000000 0.335832 -0.118687 0.404158
  9 9.024062 -0.000003 -0.000001 0.000000 0.000000 0.000000
 10 -0.568329 0.819836 1.418795 1.214505 -0.716846 1.934590
 11 6.384777 0.000002 -0.000000 -1.176244 0.847076 -0.919238
 12 10.242682 -0.000000 0.000000 -0.000000 0.000000 -1.880551
 13 11.375561 0.000000 -0.000000 -2.788417 -0.084976 -0.172614
 14 0.728681 0.023432 -1.008292 2.038136 0.634976 1.094199
 15 2.136494 -0.000001 -0.000000 -0.000000 -0.000000 0.287979
 16 2.313138 -0.000000 0.000000 0.000000 0.000000 0.000000
 17 3.115507 -0.886041 -0.021430 -0.428318 0.000355 0.462512
 18 2.011152 0.000000 0.000000 -0.000000 -0.000000 0.930092
 19 2.141379 0.000003 0.000000 0.000000 0.000000 0.000000
 20 1.734172 0.000001 -0.000000 -0.000000 0.000000 0.464590
 21 0.000004 -4.440595 0.000000 1.570544 -0.062990 -0.195737
 22 5.999999 0.000000 -0.000000 -2.515635 0.000000 0.000000
 23 0.000000 -4.440602 0.000002 1.569944 -0.062987 0.004053
 24 11.375561 0.000000 0.000002 -2.180166 -0.014374 -0.114793
 25 -0.000003 -4.440604 0.000001 1.570144 -0.062988 0.004040
 26 10.510131 -0.000000 0.000000 -0.000000 0.000000 -2.511072
 27 0.000002 -1.748401 4.999998 -0.000000 0.004007 1.602291
 28 5.499999 0.000000 -0.000000 0.329956 -0.000000 -0.000000
 29 -0.000004 -1.940598 5.000000 -0.044472 0.004003 -0.000180
 30 6.551491 0.000001 -0.000001 -0.692475 0.628986 -0.382869
 31 -0.000000 -1.940598 5.000000 -0.027189 -0.053376 0.005295
 32 6.551491 0.000001 -0.000001 -0.265130 0.315115 -0.107239
 33 0.000001 -1.940599 4.999996 -0.066572 -0.152786 -0.110311
 34 0.568330 -0.812761 -1.418795 2.909864 0.749878 -0.053572
 35 6.384778 0.000001 -0.000001 0.594706 -0.134067 -1.239771
 36 10.242682 -0.000001 0.000002 0.000000 0.000000 -1.638193
 37 11.375559 -0.000003 -0.000004 2.582564 0.014901 0.843199
 38 0.728680 0.023431 1.008293 -1.539000 -0.370199 0.101110
 39 2.136497 0.000001 -0.000001 -0.000000 0.000000 0.287979
 40 2.313139 -0.000001 0.000001 0.000000 0.000000 3.141593
 41 3.115508 -0.886041 0.021430 0.495459 0.148146 0.639838
 42 2.011153 -0.000001 -0.000002 -0.000000 0.000000 2.038377
 43 2.141381 0.000001 -0.000002 0.000000 0.000000 3.141593
 44 1.734173 -0.000001 -0.000002 0.000000 0.000000 1.019987
 45 0.136316 -3.738194 2.525890 1.493698 2.759406 -1.474501
 46 5.031114 -0.189688 1.849661 -2.967941 -0.035742 1.570790
 47 11.389366 -0.000820 0.158779 2.073189 0.115725 0.422060
 48 0.000001 -4.440598 -0.000001 1.570144 -3.078602 0.004040
 49 5.999999 -0.000001 -0.000003 2.073189 -0.000000 0.000000
 50 0.000001 -4.440601 0.000001 1.569944 -3.078603 0.004053
 51 10.510132 0.000000 0.000001 -0.000000 0.000000 -2.389893
 52 -0.000000 -1.748398 -5.000000 -3.141593 0.004007 -1.539299
 53 5.500000 -0.000000 0.000000 -0.164830 -0.000000 -0.000000
 54 -0.000001 0.000000 -4.999999 -0.044472 3.137590 -0.000177
 55 6.551490 0.000000 0.000001 0.164830 -0.119412 -0.332768
 56 -1.266844 -1.937444 -4.950557 -0.066572 -2.988806 -0.110308
 57 6.551491 -0.000000 0.000001 0.164830 -0.119412 -0.332768
 58 0.699371 -1.944207 -5.006845 -0.027189 -3.088217 0.005298
 59 4.226145 -0.003202 0.000000 0.258876 0.179478 -0.017808
 60 0.000001 5.000000 0.000000 -0.153565 0.000087 2.718702
 61 0.000005 -0.000005 -3.713579 0.365818 2.880119 -0.191589
 62 0.000002 -0.000000 4.999999 3.053194 1.558589 -0.074930
 63 -0.000005 0.000005 3.713579 -0.001619 -3.122277 -0.475127
 64 -0.000000 -0.000001 -5.000000 -0.088726 1.558589 3.066335
 65 7.363605 1.646646 0.495663 3.141593 -1.570796 0.000000
 66 -0.000005 0.000007 3.619081 0.008255 -3.110080 -0.985231
 67 16.573919 0.000001 0.000000 -0.000000 0.000000 -1.065827
 68 15.128179 0.000000 0.000000 -0.102296 0.010178 0.114297
 69 5.758665 4.244730 -0.000000 0.000000 -0.000000 1.667687
 70 3.177726 -0.000000 0.000000 0.000000 0.000000 3.141593
 71 15.708952 0.000000 0.000000 -0.051525 0.003996 0.061523
 72 0.275149 0.189215 -3.445207 3.130898 0.000409 -1.514604
 73 17.210192 0.000000 0.000000 0.000000 0.000000 -1.893339
 74 -0.000001 0.000000 -5.000000 -0.079430 1.546568 -1.570856
 75 0.000005 -0.000003 -3.619081 0.577895 2.675801 -0.242118
 76 16.573919 -0.000002 -0.000001 -0.000000 -0.000000 -1.163030
 77 15.128182 0.000003 0.000001 0.089479 0.309197 0.659208
 78 5.758664 4.244730 -0.000000 -0.000000 -0.000000 1.815142
 79 4.003934 -0.000000 -0.000000 0.000000 0.000000 0.000000
 80 15.708954 0.000002 0.000001 0.042277 0.226871 0.443133
 81 0.273998 0.191089 3.439762 -3.130907 -0.000437 -1.508106
 82 17.210194 -0.000002 -0.000001 0.000000 0.000000 -1.937080
 83 0.000000 0.000000 5.000000 -0.079311 1.595025 -1.570736
time 6
  0 0.233849 -2.251689 38.192150 0.000000 0.000000 -1.570795
  1 0.000000 -0.000000 -32.673866 0.000000 0.000000 1.570795
  2 -2.276935 0.000003 -1.238186 -1.570795 -1.570451 0.000000
  3 1.797645 0.711856 -0.000378 0.115407 -0.115830 0.141135
  4 4.118648 -0.003257 -0.000381 0.116210 0.005923 0.013490
  5 4.119073 -0.003225 -0.000370 0.113079 0.005849 0.145217
  6 4.119552 -0.003123 -0.000281 0.099224 -0.530702 0.246417
  7 4.118069 -0.003077 -0.001667 0.522097 0.334184 0.014352
  8 4.443597 -0.000000 0.000000 0.335832 -0.118687 0.404158
  9 9.024062 -0.000003 -0.000001 0.000000 0.000000 0.000000
 10 -0.568329 0.819836 1.418795 1.214505 -0.716846 1.934590
 11 6.384777 0.000002 -0.000000 -1.176244 0.847076 -0.919238
 12 10.242682 -0.000000 0.000000 -0.000000 0.000000 -1.880551
 13 11.375561 0.000000 -0.000000 -2.788417 -0.084976 -0.172614
 14 0.728681 0.023432 -1.008292 2.038136 0.634976 1.094199
 15 2.136494 -0.000001 -0.000000 -0.000000 -0.000000 0.287979
 16 2.313138 -0.000000 0.000000 0.000000 0.000000 0.000000
 17 3.115507 -0.886041 -0.021430 -0.428318 0.000355 0.462512
 18 2.011152 0.000000 0.000000 -0.000000 -0.000000 0.930092
 19 2.141379 0.000003 0.000000 0.000000 0.000000 0.000000
 20 1.734172 0.000001 -0.000000 -0.000000 0.000000 0.464590
 21 0.000004 -4.440595 0.000000 1.570544 -0.062990 -0.195737
 22 5.999999 0.000000 -0.000000 -2.515635 0.000000 0.000000
 23 0.000000 -4.440602 0.000002 1.569944 -0.062987 0.004053
 24 11.375561 0.000000 0.000002 -2.180166 -0.014374 -0.114793
 25 -0.000003 -4.440604 0.000001 1.570144 -0.062988 0.004040
 26 10.510131 -0.000000 0.000000 -0.000000 0.000000 -2.511072
 27 0.000002 -1.748401 4.999998 -0.000000 0.004007 1.602291
 28 5.499999 0.000000 -0.000000 0.329956 -0.000000 -0.000000
 29 -0.000004 -1.940598 5.000000 -0.044472 0.004003 -0.000180
 30 6.551491 0.000001 -0.000001 -0.692475 0.628986 -0.382869
 31 -0.000000 -1.940598 5.000000 -0.027189 -0.053376 0.005295
 32 6.551491 0.000001 -0.000001 -0.265130 0.315115 -0.107239
 33 0.000001 -1.940599 4.999996 -0.066572 -0.152786 -0.110311
 34 0.568330 -0.812761 -1.418795 2.909864 0.749878 -0.053572
 35 6.384778 0.000001 -0.000001 0.594706 -0.134067 -1.239771
 36 10.242682 -0.000001 0.000002 0.000000 0.000000 -1.638193
 37 11.375559 -0.000003 -0.000004 2.582564 0.014901 0.843199
 38 0.728680 0.023431 1.008293 -1.539000 -0.370199 0.101110
 39 2.136497 0.000001 -0.000001 -0.000000 0.000000 0.287979
 40 2.313139 -0.000001 0.000001 0.000000 0.000000 3.141593
 41 3.115508 -0.886041 0.021430 0.495459 0.148146 0.639838
 42 2.011153 -0.000001 -0.000002 -0.000000 0.000000 2.038377
 43 2.141381 0.000001 -0.000002 0.000000 0.000000 3.141593
 44 1.734173 -0.000001 -0.000002 0.000000 0.000000 1.019987
 45 0.136316 -3.738194 2.525890 1.493698 2.759406 -1.474501
 46 5.031114 -0.189688 1.849661 -2.967941 -0.035742 1.570790
 47 11.389366 -0.000820 0.158779 2.073189 0.115725 0.422060
 48 0.000001 -4.440598 -0.000001 1.570144 -3.078602 0.004040
 49 5.999999 -0.000001 -0.000003 2.073189 -0.000000 0.000000
 50 0.000001 -4.440601 0.000001 1.569944 -3.078603 0.004053
 51 10.510132 0.000000 0.000001 -0.000000 0.000000 -2.389893
 52 -0.000000 -1.748398 -5.000000 -3.141593 0.004007 -1.539299
 53 5.500000 -0.000000 0.000000 -0.164830 -0.000000 -0.000000
 54 -0.000001 0.000000 -4.999999 -0.044472 3.137590 -0.000177
 55 6.551490 0.000000 0.000001 0.164830 -0.119412 -0.332768
 56 -1.266844 -1.937444 -4.950557 -0.066572 -2.988806 -0.110308
 57 6.551491 -0.000000 0.000001 0.164830 -0.119412 -0.332768
 58 0.699371 -1.944207 -5.006845 -0.027189 -3.088217 0.005298
 59 4.226145 -0.003202 0.000000 0.258876 0.179478 -0.017808
 60 0.000001 5.000000 0.000000 -0.153565 0.000087 2.718702
 61 0.000005 -0.000005 -3.713579 0.365818 2.880119 -0.191589
 62 0.000002 -0.000000 4.999999 3.053194 1.558589 -0.074930
 63 -0.000005 0.000005 3.713579 -0.001619 -3.122277 -0.475127
 64 -0.000000 -0.000001 -5.000000 -0.088726 1.558589 3.066335
 65 7.363605 1.646646 0.495663 3.141593 -1.570796 0.000000
 66 -0.000005 0.000007 3.619081 0.008255 -3.110080 -0.985231
 67 16.573919 0.000001 0.000000 -0.000000 0.000000 -1.065827
 68 15.128179 0.000000 0.000000 -0.102296 0.010178 0.114297
 69 5.758665 4.244730 -0.000000 0.000000 -0.000000 1.667687
 70 3.177726 -0.000000 0.000000 0.000000 0.000000 3.141593
 71 15.708952 0.000000 0.000000 -0.051525 0.003996 0.061523
 72 0.275149 0.189215 -3.445207 3.130898 0.000409 -1.514604
 73 17.210192 0.000000 0.000000 0.000000 0.000000 -1.893339
 74 -0.000001 0.000000 -5.000000 -0.079430 1.546568 -1.570856
 75 0.000005 -0.000003 -3.619081 0.577895 2.675801 -0.242118
 76 16.573919 -0.000002 -0.000001 -0.000000 -0.000000 -1.163030
 77 15.128182 0.000003 0.000001 0.089479 0.309197 0.659208
 78 5.758664 4.244730 -0.000000 -0.000000 -0.000000 1.815142
 79 4.003934 -0.000000 -0.000000 0.000000 0.000000 0.000000
 80 15.708954 0.000002 0.000001 0.042277 0.226871 0.443133
 81 0.273998 0.191089 3.439762 -3.130907 -0.000437 -1.508106
 82 17.210194 -0.000002 -0.000001 0.000000 0.000000 -1.937080
 83 0.000000 0.000000 5.000000 -0.079311 1.595025 -1.570736
end
