version 1
nodes
  0 "Bip01"  -1
  1 "Bip01 Footsteps"   0
  2 "Bip01 Pelvis"   0
  3 "Bip01 Spine"   2
  4 "Bip01 Spine1"   3
  5 "Bip01 Spine2"   4
  6 "Bip01 Spine3"   5
  7 "Bip01 Neck"   6
  8 "Bip01 Head"   7
  9 "Dummy21"   8
 10 "Bip01 L Clavicle"   7
 11 "Bip01 L UpperArm"  10
 12 "Bip01 L Forearm"  11
 13 "Bip01 L Hand"  12
 14 "Bip01 L Finger0"  13
 15 "Bip01 L Finger01"  14
 16 "Dummy06"  15
 17 "Bip01 L Finger1"  13
 18 "Bip01 L Finger11"  17
 19 "Dummy03"  18
 20 "-- L knuckle"  17
 21 "-- L knuckle_end"  20
 22 "-- L Forearm twist"  12
 23 "-- L Forearm twist_end"  22
 24 "-- L wrist"  12
 25 "-- L wrist_end"  24
 26 "-- L Elbow"  11
 27 "--L Elbow_end"  26
 28 "-- L bicep twist"  11
 29 "-- L bicep twist_end"  28
 30 "-- L shoulder outside"  10
 31 "-- L shoulder outside_end"  30
 32 "-- L Shoulder inside"  10
 33 "-- L Shoulder inside_end"  32
 34 "Bip01 R Clavicle"   7
 35 "Bip01 R UpperArm"  34
 36 "Bip01 R Forearm"  35
 37 "Bip01 R Hand"  36
 38 "Bip01 R Finger0"  37
 39 "Bip01 R Finger01"  38
 40 "Dummy01"  39
 41 "Bip01 R Finger1"  37
 42 "Bip01 R Finger11"  41
 43 "Dummy02"  42
 44 "-- R knuckle"  41
 45 "Point06"  44
 46 "Beretta Elite"  37
 47 "-- R wrist"  36
 48 "-- R wrist_end"  47
 49 "-- R forearm twist"  36
 50 "-- R forearm twist_end"  49
 51 "-- R Elbow"  35
 52 "--R Elbow_end"  51
 53 "-- R bicep twist"  35
 54 "-- R bicep twist_end"  53
 55 "-- R Shoulder inside"  34
 56 "-- R Shoulder inside_end"  55
 57 "-- R shoulder outside"  34
 58 "-- R shoulder outside_end"  57
 59 "-- Neck smooth"   6
 60 "-- neck smooth end"  59
 61 "-- R Butt"   2
 62 "--R Butt_end"  61
 63 "-- L butt"   2
 64 "--L butt_end"  63
 65 "GIGN01"   2
 66 "Bip01 L Thigh"   2
 67 "Bip01 L Calf"  66
 68 "Bip01 L Foot"  67
 69 "Bip01 L Toe0"  68
 70 "Dummy16"  69
 71 "-- L ankle"  67
 72 "-- L ankleend"  71
 73 "-- L Knee"  66
 74 "--L Knee_end"  73
 75 "Bip01 R Thigh"   2
 76 "Bip01 R Calf"  75
 77 "Bip01 R Foot"  76
 78 "Bip01 R Toe0"  77
 79 "Dummy11"  78
 80 "-- R Ankle"  76
 81 "-- R ankleend"  80
 82 "-- R Knee"  75
 83 "--R Knee_end"  82
end
skeleton
time 0
  0 -0.650000 0.000000 33.899605 -0.025849 0.174554 -1.569172
  1 5.685104 0.833236 -32.227173 -0.174512 -0.026131 1.569196
  2 -2.276935 0.000003 -1.238188 -1.570795 -1.570451 0.000000
  3 1.796935 0.711823 -0.000368 0.112704 0.137672 -0.048352
  4 4.118466 -0.003256 -0.000366 0.112297 0.090452 -0.031202
  5 4.118891 -0.003247 -0.000358 0.109409 -0.011388 0.088308
  6 4.119566 -0.002720 -0.001561 0.496597 -0.005329 0.336203
  7 4.118380 -0.003492 -0.000532 0.151632 -0.098502 -0.079145
  8 4.443596 0.000001 -0.000001 0.701666 -0.031456 0.114944
  9 9.024063 -0.000000 0.000000 0.000000 0.000000 0.000000
 10 0.170398 0.263995 1.704536 -2.740722 -1.404280 -0.340005
 11 6.384775 0.000001 -0.000001 -1.427839 0.712740 -1.670724
 12 10.242681 0.000001 -0.000001 -0.000000 0.000000 -1.920202
 13 11.375562 -0.000001 -0.000000 -2.776472 0.120432 0.091556
 14 0.728680 0.023431 -1.008293 1.705251 0.347372 0.567022
 15 2.136498 -0.000000 -0.000000 -0.000000 0.000000 0.287979
 16 2.313140 0.000000 -0.000001 0.000000 0.000000 0.000000
 17 3.115506 -0.886041 -0.021433 -0.000782 0.000152 0.191986
 18 2.011152 -0.000000 0.000003 0.000000 0.000000 0.659566
 19 2.141379 -0.000001 -0.000001 0.000000 0.000000 0.000000
 20 1.734173 0.000001 0.000002 0.000000 0.000000 0.330185
 21 0.000006 -4.440593 0.000001 1.570544 -0.062990 -0.195737
 22 5.999999 0.000001 -0.000001 -2.503993 0.000000 0.000000
 23 0.000003 -4.440600 -0.000000 1.569944 -0.062987 0.004053
 24 11.375561 0.000001 0.000002 -2.172922 0.050339 0.074864
 25 -0.000002 -4.440603 0.000000 1.570144 -0.062988 0.004040
 26 10.510128 0.000001 -0.000001 0.000000 -0.000000 -2.530898
 27 0.000001 -1.748401 5.000000 -0.000000 0.004007 1.602291
 28 5.499997 0.000000 -0.000000 0.220225 -0.000000 0.000000
 29 -0.000002 -1.940598 5.000003 -0.044472 0.004003 -0.000180
 30 6.551490 0.000001 -0.000000 -0.778603 0.795051 -1.128618
 31 -0.000001 -1.940598 5.000002 -0.027189 -0.053376 0.005295
 32 6.551490 0.000001 -0.000000 -0.152512 0.398895 -0.321478
 33 -0.000000 -1.940599 4.999997 -0.066572 -0.152786 -0.110311
 34 -0.170403 -0.256917 -1.704538 3.076384 1.364462 0.000607
 35 6.384777 -0.000000 -0.000001 0.370655 0.485317 -1.872829
 36 10.242681 0.000001 0.000000 0.000000 0.000000 -0.899494
 37 11.375563 -0.000001 -0.000002 2.659353 0.328996 0.405106
 38 0.728680 0.023431 1.008293 -1.539000 -0.370199 0.101110
 39 2.136496 0.000000 -0.000000 0.000000 0.000000 0.287979
 40 2.313141 -0.000001 -0.000001 0.000000 0.000000 3.141593
 41 3.115505 -0.886041 0.021432 0.495459 0.148146 0.639838
 42 2.011151 -0.000000 0.000001 0.000000 -0.000000 2.038377
 43 2.141379 0.000001 -0.000001 0.000000 0.000000 3.141593
 44 1.734172 -0.000001 -0.000000 0.000000 -0.000000 1.019987
 45 0.136316 -3.738192 2.525891 1.493698 2.759406 -1.474501
 46 5.031113 -0.189688 1.849665 -2.967941 -0.035742 1.570790
 47 11.389366 -0.000820 0.158781 2.091183 0.234332 0.161322
 48 0.000001 -4.440600 -0.000001 1.570144 -3.078602 0.004040
 49 6.000000 -0.000001 0.000000 2.091183 0.000000 -0.000000
 50 0.000003 -4.440603 -0.000000 1.569944 -3.078603 0.004053
 51 10.510130 0.000001 0.000001 -0.000000 -0.000000 -2.020544
 52 -0.000001 -1.748398 -4.999999 -3.141593 0.004007 -1.539299
 53 5.499999 -0.000001 0.000000 -0.181904 0.000000 0.000000
 54 0.000002 0.000000 -5.000000 -0.044472 3.137589 -0.000177
 55 6.551491 0.000000 -0.000003 0.181904 0.067524 -0.498896
 56 -1.266843 -1.937443 -4.950560 -0.066572 -2.988806 -0.110308
 57 6.551492 0.000000 -0.000003 0.181904 0.067524 -0.498896
 58 0.699371 -1.944208 -5.006844 -0.027189 -3.088217 0.005298
 59 4.226146 -0.003202 -0.000000 0.076288 -0.054404 -0.043857
 60 -0.000000 5.000001 -0.000000 -0.153564 0.000087 2.718702
 61 0.000004 -0.000005 -3.713580 0.365818 2.880119 -0.191589
 62 0.000002 0.000000 5.000000 3.053196 1.558589 -0.074928
 63 -0.000007 0.000005 3.713580 -0.001619 -3.122277 -0.475127
 64 0.000002 -0.000001 -5.000000 -0.088726 1.558589 3.066334
 65 7.363602 1.646647 0.495663 3.141593 -1.570796 0.000000
 66 -0.000005 0.000006 3.619081 0.008255 -3.110080 -0.985231
 67 16.573919 -0.000000 0.000000 0.000000 -0.000000 -1.065827
 68 15.128181 0.000001 -0.000000 -0.102296 0.010178 0.114297
 69 5.758665 4.244730 0.000000 0.000000 0.000000 1.667687
 70 3.177725 0.000000 -0.000000 0.000000 0.000000 3.141593
 71 15.708953 0.000001 0.000000 -0.051525 0.003996 0.061523
 72 0.275148 0.189215 -3.445207 3.130898 0.000409 -1.514604
 73 17.210194 -0.000000 0.000000 0.000000 -0.000000 -1.893339
 74 -0.000000 0.000000 -5.000000 -0.079430 1.546568 -1.570855
 75 0.000002 -0.000003 -3.619081 0.577895 2.675801 -0.242118
 76 16.573921 -0.000001 -0.000002 -0.000000 -0.000000 -1.163030
 77 15.128181 0.000001 0.000001 0.089479 0.309197 0.659208
 78 5.758666 4.244730 -0.000001 -0.000000 -0.000000 1.815142
 79 4.003934 -0.000000 0.000001 0.000000 0.000000 0.000000
 80 15.708953 0.000001 0.000001 0.042277 0.226871 0.443133
 81 0.273998 0.191089 3.439763 -3.130907 -0.000437 -1.508107
 82 17.210194 -0.000001 -0.000002 0.000000 -0.000000 -1.937080
 83 -0.000000 -0.000001 5.000000 -0.079319 1.595025 -1.570742
time 1
  0 -0.650000 0.000000 33.899605 -0.025849 0.174554 -1.569172
  1 5.685104 0.833236 -32.227173 -0.174512 -0.026131 1.569196
  2 -2.276935 0.000003 -1.238188 -1.570795 -1.570451 0.000000
  3 1.796931 0.711824 -0.000375 0.114744 0.129002 -0.049370
  4 4.118468 -0.003255 -0.000373 0.114385 0.081782 -0.032212
  5 4.118892 -0.003246 -0.000365 0.111599 -0.020061 0.087326
  6 4.119567 -0.002717 -0.001568 0.498810 -0.012990 0.332019
  7 4.118375 -0.003490 -0.000533 0.151632 -0.098502 -0.079145
  8 4.443600 0.000000 0.000000 0.701767 0.023295 0.063741
  9 9.024059 -0.000000 -0.000001 0.000000 0.000000 0.000000
 10 0.170406 0.263994 1.704538 -2.740722 -1.404280 -0.340005
 11 6.384777 0.000001 0.000001 -1.479374 0.620942 -1.731636
 12 10.242684 0.000001 -0.000001 -0.000000 0.000000 -1.864094
 13 11.375563 -0.000002 0.000001 -2.772271 0.175887 0.152643
 14 0.728678 0.023431 -1.008292 1.705251 0.347372 0.567022
 15 2.136497 0.000001 -0.000001 -0.000000 -0.000000 0.287979
 16 2.313137 -0.000000 0.000001 0.000000 0.000000 0.000000
 17 3.115505 -0.886041 -0.021431 -0.000782 0.000152 0.191986
 18 2.011152 -0.000000 -0.000001 0.000000 0.000000 0.659566
 19 2.141382 0.000000 -0.000002 0.000000 0.000000 0.000000
 20 1.734175 0.000001 -0.000003 -0.000000 -0.000000 0.330185
 21 0.000007 -4.440593 0.000000 1.570544 -0.062990 -0.195737
 22 6.000000 -0.000000 -0.000001 -2.500421 -0.000000 -0.000000
 23 0.000003 -4.440601 -0.000000 1.569944 -0.062987 0.004053
 24 11.375562 -0.000001 0.000003 -2.170903 0.069195 0.118749
 25 -0.000002 -4.440604 0.000000 1.570144 -0.062988 0.004040
 26 10.510131 -0.000000 0.000001 0.000000 -0.000000 -2.502843
 27 -0.000000 -1.748401 4.999998 0.000000 0.004007 1.602290
 28 5.500000 -0.000000 0.000001 0.253663 -0.000000 -0.000000
 29 -0.000000 -1.940597 4.999998 -0.044472 0.004003 -0.000180
 30 6.551492 0.000001 0.000001 -0.911453 0.766856 -1.274919
 31 -0.000002 -1.940599 5.000003 -0.027189 -0.053376 0.005295
 32 6.551492 0.000001 0.000001 -0.172975 0.398339 -0.342435
 33 -0.000000 -1.940599 4.999993 -0.066572 -0.152786 -0.110311
 34 -0.170398 -0.256917 -1.704536 3.053939 1.392584 -0.021598
 35 6.384776 -0.000001 -0.000000 0.339117 0.526997 -1.928534
 36 10.242682 0.000000 0.000001 -0.000000 -0.000000 -0.800609
 37 11.375562 -0.000000 -0.000001 2.670853 0.286614 0.385476
 38 0.728680 0.023431 1.008293 -1.539000 -0.370199 0.101110
 39 2.136499 -0.000002 0.000000 0.000000 0.000000 0.287979
 40 2.313138 -0.000002 0.000000 0.000000 0.000000 3.141593
 41 3.115506 -0.886042 0.021432 0.495459 0.148146 0.639838
 42 2.011151 0.000000 -0.000001 0.000000 -0.000000 2.038377
 43 2.141380 0.000001 -0.000000 0.000000 0.000000 3.141593
 44 1.734172 -0.000000 -0.000001 0.000000 0.000000 1.019987
 45 0.136315 -3.738191 2.525890 1.493698 2.759406 -1.474501
 46 5.031112 -0.189688 1.849663 -2.967941 -0.035742 1.570790
 47 11.389366 -0.000821 0.158781 2.101715 0.211987 0.159705
 48 0.000001 -4.440599 0.000000 1.570144 -3.078602 0.004040
 49 6.000000 -0.000001 -0.000001 2.101715 -0.000000 0.000000
 50 0.000003 -4.440603 0.000001 1.569944 -3.078603 0.004053
 51 10.510131 0.000001 0.000002 0.000000 -0.000000 -1.971101
 52 -0.000000 -1.748400 -4.999999 3.141593 0.004007 -1.539299
 53 5.499999 0.000002 0.000001 -0.176749 -0.000000 -0.000000
 54 0.000001 -0.000000 -5.000003 -0.044472 3.137590 -0.000177
 55 6.551490 0.000000 -0.000002 0.176749 0.079253 -0.495796
 56 -1.266843 -1.937443 -4.950560 -0.066572 -2.988806 -0.110308
 57 6.551491 -0.000000 -0.000003 0.176749 0.079253 -0.495796
 58 0.699371 -1.944208 -5.006848 -0.027189 -3.088217 0.005298
 59 4.226146 -0.003201 0.000001 0.076288 -0.054404 -0.043857
 60 0.000002 5.000000 0.000000 -0.153564 0.000087 2.718702
 61 0.000004 -0.000005 -3.713580 0.365818 2.880119 -0.191589
 62 0.000002 0.000000 5.000000 3.053196 1.558589 -0.074928
 63 -0.000007 0.000005 3.713580 -0.001619 -3.122277 -0.475127
 64 0.000002 -0.000001 -5.000000 -0.088726 1.558589 3.066334
 65 7.363602 1.646647 0.495663 3.141593 -1.570796 0.000000
 66 -0.000005 0.000006 3.619081 0.008255 -3.110080 -0.985231
 67 16.573919 -0.000000 0.000000 0.000000 -0.000000 -1.065827
 68 15.128181 0.000001 -0.000000 -0.102296 0.010178 0.114297
 69 5.758665 4.244730 0.000000 0.000000 0.000000 1.667687
 70 3.177725 0.000000 -0.000000 0.000000 0.000000 3.141593
 71 15.708953 0.000001 0.000000 -0.051525 0.003996 0.061523
 72 0.275148 0.189215 -3.445207 3.130898 0.000409 -1.514604
 73 17.210194 -0.000000 0.000000 0.000000 -0.000000 -1.893339
 74 -0.000000 0.000000 -5.000000 -0.079430 1.546568 -1.570855
 75 0.000002 -0.000003 -3.619081 0.577895 2.675801 -0.242118
 76 16.573921 -0.000001 -0.000002 -0.000000 -0.000000 -1.163030
 77 15.128181 0.000001 0.000001 0.089479 0.309197 0.659208
 78 5.758666 4.244730 -0.000001 -0.000000 -0.000000 1.815142
 79 4.003934 -0.000000 0.000001 0.000000 0.000000 0.000000
 80 15.708953 0.000001 0.000001 0.042277 0.226871 0.443133
 81 0.273998 0.191089 3.439763 -3.130907 -0.000437 -1.508107
 82 17.210194 -0.000001 -0.000002 0.000000 -0.000000 -1.937080
 83 -0.000000 -0.000001 5.000000 -0.079319 1.595025 -1.570742
time 2
  0 -0.650000 0.000000 33.899605 -0.025849 0.174554 -1.569172
  1 5.685104 0.833236 -32.227173 -0.174512 -0.026131 1.569196
  2 -2.276935 0.000003 -1.238188 -1.570795 -1.570451 0.000000
  3 1.796931 0.711825 -0.000382 0.116790 0.120335 -0.050405
  4 4.118464 -0.003255 -0.000380 0.116480 0.073114 -0.033239
  5 4.118894 -0.003245 -0.000373 0.113798 -0.028732 0.086326
  6 4.119560 -0.002714 -0.001575 0.501055 -0.020641 0.327818
  7 4.118378 -0.003490 -0.000533 0.151632 -0.098502 -0.079145
  8 4.443599 -0.000000 0.000001 0.698517 0.077910 0.012311
  9 9.024062 0.000000 0.000001 0.000000 0.000000 0.000000
 10 0.170402 0.263995 1.704538 -2.740722 -1.404280 -0.340005
 11 6.384777 0.000001 0.000003 -1.519076 0.531664 -1.788051
 12 10.242684 0.000001 -0.000001 0.000000 -0.000000 -1.807209
 13 11.375564 -0.000002 0.000001 -2.758191 0.223323 0.214977
 14 0.728682 0.023431 -1.008291 1.705251 0.347372 0.567022
 15 2.136497 0.000002 0.000000 -0.000000 -0.000000 0.287979
 16 2.313141 0.000001 0.000000 0.000000 0.000000 0.000000
 17 3.115507 -0.886040 -0.021430 -0.000782 0.000152 0.191986
 18 2.011153 0.000001 -0.000003 0.000000 0.000000 0.659566
 19 2.141381 0.000000 0.000002 0.000000 0.000000 0.000000
 20 1.734174 0.000001 -0.000001 0.000000 0.000000 0.330185
 21 0.000007 -4.440592 -0.000001 1.570544 -0.062990 -0.195737
 22 5.999999 0.000000 0.000001 -2.489470 0.000000 -0.000000
 23 0.000002 -4.440601 -0.000002 1.569944 -0.062987 0.004053
 24 11.375560 0.000001 0.000003 -2.164609 0.083265 0.159990
 25 -0.000003 -4.440603 0.000001 1.570144 -0.062988 0.004040
 26 10.510131 0.000001 -0.000001 0.000000 0.000000 -2.474401
 27 0.000001 -1.748401 5.000000 -0.000000 0.004007 1.602291
 28 5.500001 0.000001 -0.000001 0.281971 -0.000000 0.000000
 29 0.000001 -1.940597 4.999999 -0.044472 0.004003 -0.000180
 30 6.551491 0.000000 0.000002 -1.030821 0.724119 -1.411764
 31 -0.000001 -1.940599 5.000001 -0.027189 -0.053376 0.005295
 32 6.551491 0.000000 0.000002 -0.188714 0.393113 -0.358934
 33 -0.000000 -1.940600 4.999996 -0.066572 -0.152786 -0.110311
 34 -0.170398 -0.256918 -1.704535 3.023128 1.420582 -0.052232
 35 6.384777 -0.000000 0.000002 0.303117 0.566688 -1.987800
 36 10.242682 -0.000001 -0.000004 -0.000000 -0.000000 -0.701723
 37 11.375559 -0.000001 0.000000 2.683077 0.244457 0.365569
 38 0.728682 0.023430 1.008291 -1.539000 -0.370199 0.101110
 39 2.136500 0.000000 -0.000000 -0.000000 0.000000 0.287979
 40 2.313139 -0.000001 -0.000000 0.000000 0.000000 3.141593
 41 3.115509 -0.886042 0.021431 0.495459 0.148146 0.639838
 42 2.011151 0.000001 0.000002 0.000000 0.000000 2.038377
 43 2.141380 0.000001 -0.000002 0.000000 0.000000 3.141593
 44 1.734171 -0.000001 -0.000000 -0.000000 -0.000000 1.019987
 45 0.136315 -3.738194 2.525890 1.493698 2.759406 -1.474501
 46 5.031116 -0.189688 1.849662 -2.967941 -0.035742 1.570790
 47 11.389367 -0.000820 0.158779 2.112092 0.189198 0.157670
 48 0.000001 -4.440598 -0.000002 1.570144 -3.078602 0.004040
 49 6.000000 -0.000001 -0.000001 2.112092 -0.000000 -0.000000
 50 0.000003 -4.440602 0.000001 1.569944 -3.078603 0.004053
 51 10.510131 0.000000 -0.000002 -0.000000 -0.000000 -1.921658
 52 0.000000 -1.748398 -5.000003 3.141593 0.004007 -1.539299
 53 5.499999 -0.000000 -0.000001 -0.171685 0.000000 0.000000
 54 0.000000 -0.000001 -5.000002 -0.044472 3.137589 -0.000177
 55 6.551490 0.000000 0.000001 0.171685 0.090226 -0.491663
 56 -1.266844 -1.937443 -4.950561 -0.066572 -2.988806 -0.110308
 57 6.551491 -0.000000 0.000001 0.171685 0.090226 -0.491663
 58 0.699370 -1.944208 -5.006848 -0.027189 -3.088217 0.005298
 59 4.226147 -0.003201 -0.000000 0.076288 -0.054404 -0.043857
 60 -0.000000 5.000000 -0.000000 -0.153564 0.000087 2.718702
 61 0.000004 -0.000005 -3.713580 0.365818 2.880119 -0.191589
 62 0.000002 0.000000 5.000000 3.053196 1.558589 -0.074928
 63 -0.000007 0.000005 3.713580 -0.001619 -3.122277 -0.475127
 64 0.000002 -0.000001 -5.000000 -0.088726 1.558589 3.066334
 65 7.363602 1.646647 0.495663 3.141593 -1.570796 0.000000
 66 -0.000005 0.000006 3.619081 0.008255 -3.110080 -0.985231
 67 16.573919 -0.000000 0.000000 0.000000 -0.000000 -1.065827
 68 15.128181 0.000001 -0.000000 -0.102296 0.010178 0.114297
 69 5.758665 4.244730 0.000000 0.000000 0.000000 1.667687
 70 3.177725 0.000000 -0.000000 0.000000 0.000000 3.141593
 71 15.708953 0.000001 0.000000 -0.051525 0.003996 0.061523
 72 0.275148 0.189215 -3.445207 3.130898 0.000409 -1.514604
 73 17.210194 -0.000000 0.000000 0.000000 -0.000000 -1.893339
 74 -0.000000 0.000000 -5.000000 -0.079430 1.546568 -1.570855
 75 0.000002 -0.000003 -3.619081 0.577895 2.675801 -0.242118
 76 16.573921 -0.000001 -0.000002 -0.000000 -0.000000 -1.163030
 77 15.128181 0.000001 0.000001 0.089479 0.309197 0.659208
 78 5.758666 4.244730 -0.000001 -0.000000 -0.000000 1.815142
 79 4.003934 -0.000000 0.000001 0.000000 0.000000 0.000000
 80 15.708953 0.000001 0.000001 0.042277 0.226871 0.443133
 81 0.273998 0.191089 3.439763 -3.130907 -0.000437 -1.508107
 82 17.210194 -0.000001 -0.000002 0.000000 -0.000000 -1.937080
 83 -0.000000 -0.000001 5.000000 -0.079319 1.595025 -1.570742
time 3
  0 -0.650000 0.000000 33.899605 -0.025849 0.174554 -1.569172
  1 5.685104 0.833236 -32.227173 -0.174512 -0.026131 1.569196
  2 -2.276935 0.000003 -1.238188 -1.570795 -1.570451 0.000000
  3 1.796931 0.711825 -0.000389 0.118843 0.111669 -0.051457
  4 4.118464 -0.003253 -0.000387 0.118583 0.064448 -0.034284
  5 4.118892 -0.003244 -0.000379 0.116006 -0.037400 0.085305
  6 4.119559 -0.002710 -0.001581 0.503333 -0.028282 0.323599
  7 4.118378 -0.003491 -0.000532 0.151632 -0.098502 -0.079145
  8 4.443598 0.000000 0.000000 0.691882 0.132187 -0.039705
  9 9.024061 -0.000000 -0.000000 0.000000 0.000000 0.000000
 10 0.170401 0.263995 1.704537 -2.740722 -1.404280 -0.340005
 11 6.384778 -0.000000 -0.000001 -1.549313 0.445859 -1.842077
 12 10.242682 0.000002 -0.000001 0.000000 0.000000 -1.749706
 13 11.375563 -0.000002 0.000001 -2.735663 0.261756 0.278416
 14 0.728679 0.023431 -1.008291 1.705251 0.347372 0.567022
 15 2.136499 -0.000001 -0.000001 -0.000000 0.000000 0.287979
 16 2.313140 -0.000000 0.000001 0.000000 0.000000 0.000000
 17 3.115506 -0.886040 -0.021430 -0.000782 0.000152 0.191986
 18 2.011152 0.000001 0.000001 -0.000000 0.000000 0.659566
 19 2.141379 -0.000001 0.000001 0.000000 0.000000 0.000000
 20 1.734173 0.000001 0.000002 -0.000000 0.000000 0.330185
 21 0.000006 -4.440593 0.000003 1.570544 -0.062990 -0.195737
 22 5.999999 0.000001 -0.000000 -2.472687 -0.000000 -0.000000
 23 0.000002 -4.440601 0.000000 1.569944 -0.062987 0.004053
 24 11.375563 -0.000000 0.000004 -2.154962 0.092540 0.198274
 25 -0.000001 -4.440603 -0.000002 1.570144 -0.062988 0.004040
 26 10.510128 -0.000000 -0.000000 0.000000 -0.000000 -2.445649
 27 -0.000001 -1.748401 4.999998 0.000000 0.004007 1.602291
 28 5.499999 0.000001 -0.000001 0.304504 -0.000000 -0.000000
 29 -0.000001 -1.940597 5.000000 -0.044472 0.004003 -0.000180
 30 6.551493 -0.000000 0.000000 -1.130746 0.669659 -1.531306
 31 -0.000002 -1.940599 5.000002 -0.027189 -0.053376 0.005295
 32 6.551493 -0.000000 0.000000 -0.199782 0.383485 -0.370122
 33 -0.000000 -1.940599 4.999997 -0.066572 -0.152786 -0.110311
 34 -0.170400 -0.256918 -1.704537 2.978278 1.448372 -0.096966
 35 6.384776 -0.000000 -0.000002 0.262445 0.604043 -2.050930
 36 10.242682 -0.000000 0.000001 0.000000 0.000000 -0.602837
 37 11.375559 0.000000 -0.000001 2.696039 0.202546 0.345327
 38 0.728681 0.023431 1.008293 -1.539000 -0.370199 0.101110
 39 2.136496 0.000002 0.000000 -0.000000 0.000000 0.287979
 40 2.313137 0.000001 0.000000 0.000000 0.000000 3.141593
 41 3.115506 -0.886042 0.021432 0.495459 0.148146 0.639838
 42 2.011151 0.000000 0.000002 0.000000 -0.000000 2.038377
 43 2.141380 0.000001 0.000000 0.000000 0.000000 3.141593
 44 1.734173 -0.000000 0.000003 0.000000 0.000000 1.019987
 45 0.136315 -3.738192 2.525891 1.493698 2.759406 -1.474501
 46 5.031114 -0.189688 1.849663 -2.967941 -0.035742 1.570790
 47 11.389365 -0.000820 0.158780 2.122327 0.165947 0.155192
 48 0.000002 -4.440600 0.000002 1.570144 -3.078602 0.004040
 49 5.999998 0.000000 0.000001 2.122326 -0.000000 0.000000
 50 0.000003 -4.440602 0.000002 1.569944 -3.078603 0.004053
 51 10.510130 0.000001 0.000001 -0.000000 -0.000000 -1.872215
 52 -0.000000 -1.748397 -5.000001 3.141593 0.004007 -1.539299
 53 5.499999 0.000000 0.000001 -0.166719 0.000000 -0.000000
 54 0.000000 0.000000 -4.999997 -0.044472 3.137590 -0.000177
 55 6.551491 -0.000001 0.000000 0.166719 0.100515 -0.486582
 56 -1.266843 -1.937443 -4.950562 -0.066572 -2.988806 -0.110308
 57 6.551491 -0.000001 0.000000 0.166719 0.100515 -0.486582
 58 0.699370 -1.944208 -5.006848 -0.027189 -3.088217 0.005298
 59 4.226144 -0.003201 -0.000000 0.076288 -0.054404 -0.043857
 60 -0.000001 5.000001 -0.000000 -0.153564 0.000087 2.718702
 61 0.000004 -0.000005 -3.713580 0.365818 2.880119 -0.191589
 62 0.000002 0.000000 5.000000 3.053196 1.558589 -0.074928
 63 -0.000007 0.000005 3.713580 -0.001619 -3.122277 -0.475127
 64 0.000002 -0.000001 -5.000000 -0.088726 1.558589 3.066334
 65 7.363602 1.646647 0.495663 3.141593 -1.570796 0.000000
 66 -0.000005 0.000006 3.619081 0.008255 -3.110080 -0.985231
 67 16.573919 -0.000000 0.000000 0.000000 -0.000000 -1.065827
 68 15.128181 0.000001 -0.000000 -0.102296 0.010178 0.114297
 69 5.758665 4.244730 0.000000 0.000000 0.000000 1.667687
 70 3.177725 0.000000 -0.000000 0.000000 0.000000 3.141593
 71 15.708953 0.000001 0.000000 -0.051525 0.003996 0.061523
 72 0.275148 0.189215 -3.445207 3.130898 0.000409 -1.514604
 73 17.210194 -0.000000 0.000000 0.000000 -0.000000 -1.893339
 74 -0.000000 0.000000 -5.000000 -0.079430 1.546568 -1.570855
 75 0.000002 -0.000003 -3.619081 0.577895 2.675801 -0.242118
 76 16.573921 -0.000001 -0.000002 -0.000000 -0.000000 -1.163030
 77 15.128181 0.000001 0.000001 0.089479 0.309197 0.659208
 78 5.758666 4.244730 -0.000001 -0.000000 -0.000000 1.815142
 79 4.003934 -0.000000 0.000001 0.000000 0.000000 0.000000
 80 15.708953 0.000001 0.000001 0.042277 0.226871 0.443133
 81 0.273998 0.191089 3.439763 -3.130907 -0.000437 -1.508107
 82 17.210194 -0.000001 -0.000002 0.000000 -0.000000 -1.937080
 83 -0.000000 -0.000001 5.000000 -0.079319 1.595025 -1.570742
time 4
  0 -0.650000 0.000000 33.899605 -0.025849 0.174554 -1.569172
  1 5.685104 0.833236 -32.227173 -0.174512 -0.026131 1.569196
  2 -2.276935 0.000003 -1.238188 -1.570795 -1.570451 0.000000
  3 1.796931 0.711826 -0.000396 0.120903 0.103006 -0.052526
  4 4.118463 -0.003253 -0.000394 0.120694 0.055784 -0.035347
  5 4.118896 -0.003244 -0.000387 0.118225 -0.046067 0.084266
  6 4.119555 -0.002706 -0.001587 0.505644 -0.035914 0.319361
  7 4.118378 -0.003491 -0.000532 0.151632 -0.098502 -0.079145
  8 4.443597 0.000000 0.000000 0.681794 0.185921 -0.092673
  9 9.024063 0.000000 -0.000001 0.000000 0.000000 0.000000
 10 0.170400 0.263995 1.704537 -2.740722 -1.404280 -0.340005
 11 6.384777 0.000000 0.000003 1.569794 2.777247 1.246441
 12 10.242683 0.000003 -0.000002 0.000000 -0.000000 -1.691761
 13 11.375565 -0.000002 0.000000 -2.706331 0.290473 0.342369
 14 0.728681 0.023430 -1.008294 1.705251 0.347372 0.567022
 15 2.136497 -0.000001 0.000000 -0.000000 0.000000 0.287979
 16 2.313139 -0.000001 -0.000000 0.000000 0.000000 0.000000
 17 3.115508 -0.886041 -0.021433 -0.000782 0.000152 0.191986
 18 2.011149 -0.000001 -0.000000 0.000000 0.000000 0.659566
 19 2.141379 -0.000000 -0.000001 0.000000 0.000000 0.000000
 20 1.734173 0.000002 -0.000002 0.000000 -0.000000 0.330185
 21 0.000007 -4.440594 -0.000000 1.570544 -0.062990 -0.195737
 22 5.999999 0.000001 -0.000001 -2.451538 0.000000 -0.000000
 23 0.000001 -4.440601 -0.000000 1.569944 -0.062987 0.004053
 24 11.375562 0.000001 0.000002 -2.142780 0.097205 0.233442
 25 -0.000002 -4.440604 0.000002 1.570144 -0.062988 0.004040
 26 10.510132 0.000002 -0.000003 -0.000000 -0.000000 -2.416677
 27 0.000000 -1.748401 4.999999 0.000000 0.004007 1.602291
 28 5.500001 0.000002 -0.000002 0.321216 0.000000 -0.000000
 29 -0.000002 -1.940599 5.000000 -0.044472 0.004003 -0.000180
 30 6.551491 0.000000 0.000002 -1.210429 0.607946 -1.631761
 31 -0.000000 -1.940598 4.999999 -0.027189 -0.053376 0.005295
 32 6.551491 0.000000 0.000002 -0.206602 0.370456 -0.376077
 33 -0.000000 -1.940599 4.999999 -0.066572 -0.152786 -0.110311
 34 -0.170402 -0.256918 -1.704537 2.907341 1.475771 -0.167847
 35 6.384776 -0.000001 0.000003 0.216942 0.638682 -2.118175
 36 10.242682 0.000000 -0.000001 0.000000 -0.000000 -0.503950
 37 11.375562 0.000001 -0.000004 2.709759 0.160902 0.324691
 38 0.728683 0.023431 1.008294 -1.539000 -0.370199 0.101110
 39 2.136498 0.000000 -0.000000 -0.000000 -0.000000 0.287979
 40 2.313138 -0.000001 0.000000 0.000000 0.000000 3.141593
 41 3.115508 -0.886041 0.021432 0.495459 0.148146 0.639838
 42 2.011151 0.000000 0.000004 0.000000 0.000000 2.038377
 43 2.141379 0.000000 -0.000001 0.000000 0.000000 3.141593
 44 1.734171 -0.000001 -0.000000 0.000000 0.000000 1.019987
 45 0.136314 -3.738193 2.525887 1.493698 2.759406 -1.474501
 46 5.031115 -0.189688 1.849663 -2.967941 -0.035742 1.570790
 47 11.389367 -0.000820 0.158778 2.132428 0.142225 0.152247
 48 -0.000000 -4.440599 -0.000000 1.570144 -3.078602 0.004040
 49 6.000000 -0.000000 -0.000002 2.132428 -0.000000 -0.000000
 50 0.000003 -4.440602 0.000001 1.569944 -3.078603 0.004053
 51 10.510133 0.000000 -0.000002 -0.000000 0.000000 -1.822772
 52 0.000000 -1.748397 -5.000000 3.141593 0.004007 -1.539299
 53 5.500000 0.000001 -0.000002 -0.161834 -0.000000 0.000000
 54 0.000003 -0.000001 -5.000002 -0.044472 3.137590 -0.000177
 55 6.551490 -0.000001 0.000003 0.161834 0.110178 -0.480562
 56 -1.266843 -1.937443 -4.950560 -0.066572 -2.988806 -0.110308
 57 6.551491 -0.000002 0.000003 0.161834 0.110178 -0.480562
 58 0.699371 -1.944208 -5.006848 -0.027189 -3.088217 0.005298
 59 4.226147 -0.003202 0.000001 0.076288 -0.054404 -0.043857
 60 -0.000000 5.000001 -0.000001 -0.153564 0.000087 2.718702
 61 0.000004 -0.000005 -3.713580 0.365818 2.880119 -0.191589
 62 0.000002 0.000000 5.000000 3.053196 1.558589 -0.074928
 63 -0.000007 0.000005 3.713580 -0.001619 -3.122277 -0.475127
 64 0.000002 -0.000001 -5.000000 -0.088726 1.558589 3.066334
 65 7.363602 1.646647 0.495663 3.141593 -1.570796 0.000000
 66 -0.000005 0.000006 3.619081 0.008255 -3.110080 -0.985231
 67 16.573919 -0.000000 0.000000 0.000000 -0.000000 -1.065827
 68 15.128181 0.000001 -0.000000 -0.102296 0.010178 0.114297
 69 5.758665 4.244730 0.000000 0.000000 0.000000 1.667687
 70 3.177725 0.000000 -0.000000 0.000000 0.000000 3.141593
 71 15.708953 0.000001 0.000000 -0.051525 0.003996 0.061523
 72 0.275148 0.189215 -3.445207 3.130898 0.000409 -1.514604
 73 17.210194 -0.000000 0.000000 0.000000 -0.000000 -1.893339
 74 -0.000000 0.000000 -5.000000 -0.079430 1.546568 -1.570855
 75 0.000002 -0.000003 -3.619081 0.577895 2.675801 -0.242118
 76 16.573921 -0.000001 -0.000002 -0.000000 -0.000000 -1.163030
 77 15.128181 0.000001 0.000001 0.089479 0.309197 0.659208
 78 5.758666 4.244730 -0.000001 -0.000000 -0.000000 1.815142
 79 4.003934 -0.000000 0.000001 0.000000 0.000000 0.000000
 80 15.708953 0.000001 0.000001 0.042277 0.226871 0.443133
 81 0.273998 0.191089 3.439763 -3.130907 -0.000437 -1.508107
 82 17.210194 -0.000001 -0.000002 0.000000 -0.000000 -1.937080
 83 -0.000000 -0.000001 5.000000 -0.079319 1.595025 -1.570742
time 5
  0 -0.650000 0.000000 33.899605 -0.025849 0.174554 -1.569172
  1 5.685104 0.833236 -32.227173 -0.174512 -0.026131 1.569196
  2 -2.276935 0.000003 -1.238188 -1.570795 -1.570451 0.000000
  3 1.796931 0.711826 -0.000396 0.120903 0.103006 -0.052526
  4 4.118463 -0.003253 -0.000394 0.120694 0.055784 -0.035347
  5 4.118896 -0.003244 -0.000387 0.118225 -0.046067 0.084266
  6 4.119555 -0.002706 -0.001587 0.505644 -0.035914 0.319361
  7 4.118378 -0.003491 -0.000532 0.151632 -0.098502 -0.079145
  8 4.443597 0.000000 0.000000 0.681794 0.185921 -0.092673
  9 9.024063 0.000000 -0.000001 0.000000 0.000000 0.000000
 10 0.170400 0.263995 1.704537 -2.740722 -1.404280 -0.340005
 11 6.384777 0.000000 0.000003 1.569794 2.777247 1.246441
 12 10.242683 0.000003 -0.000002 0.000000 -0.000000 -1.691761
 13 11.375565 -0.000002 0.000000 -2.706331 0.290473 0.342369
 14 0.728681 0.023430 -1.008294 1.705251 0.347372 0.567022
 15 2.136497 -0.000001 0.000000 -0.000000 0.000000 0.287979
 16 2.313139 -0.000001 -0.000000 0.000000 0.000000 0.000000
 17 3.115508 -0.886041 -0.021433 -0.000782 0.000152 0.191986
 18 2.011149 -0.000001 -0.000000 0.000000 0.000000 0.659566
 19 2.141379 -0.000000 -0.000001 0.000000 0.000000 0.000000
 20 1.734173 0.000002 -0.000002 0.000000 -0.000000 0.330185
 21 0.000007 -4.440594 -0.000000 1.570544 -0.062990 -0.195737
 22 5.999999 0.000001 -0.000001 -2.451538 0.000000 -0.000000
 23 0.000001 -4.440601 -0.000000 1.569944 -0.062987 0.004053
 24 11.375562 0.000001 0.000002 -2.142780 0.097205 0.233442
 25 -0.000002 -4.440604 0.000002 1.570144 -0.062988 0.004040
 26 10.510132 0.000002 -0.000003 -0.000000 -0.000000 -2.416677
 27 0.000000 -1.748401 4.999999 0.000000 0.004007 1.602291
 28 5.500001 0.000002 -0.000002 0.321216 0.000000 -0.000000
 29 -0.000002 -1.940599 5.000000 -0.044472 0.004003 -0.000180
 30 6.551491 0.000000 0.000002 -1.210429 0.607946 -1.631761
 31 -0.000000 -1.940598 4.999999 -0.027189 -0.053376 0.005295
 32 6.551491 0.000000 0.000002 -0.206602 0.370456 -0.376077
 33 -0.000000 -1.940599 4.999999 -0.066572 -0.152786 -0.110311
 34 -0.170402 -0.256918 -1.704537 2.907341 1.475771 -0.167847
 35 6.384776 -0.000001 0.000003 0.216942 0.638682 -2.118175
 36 10.242682 0.000000 -0.000001 0.000000 -0.000000 -0.503950
 37 11.375562 0.000001 -0.000004 2.709759 0.160902 0.324691
 38 0.728683 0.023431 1.008294 -1.539000 -0.370199 0.101110
 39 2.136498 0.000000 -0.000000 -0.000000 -0.000000 0.287979
 40 2.313138 -0.000001 0.000000 0.000000 0.000000 3.141593
 41 3.115508 -0.886041 0.021432 0.495459 0.148146 0.639838
 42 2.011151 0.000000 0.000004 0.000000 0.000000 2.038377
 43 2.141379 0.000000 -0.000001 0.000000 0.000000 3.141593
 44 1.734171 -0.000001 -0.000000 0.000000 0.000000 1.019987
 45 0.136314 -3.738193 2.525887 1.493698 2.759406 -1.474501
 46 5.031115 -0.189688 1.849663 -2.967941 -0.035742 1.570790
 47 11.389367 -0.000820 0.158778 2.132428 0.142225 0.152247
 48 -0.000000 -4.440599 -0.000000 1.570144 -3.078602 0.004040
 49 6.000000 -0.000000 -0.000002 2.132428 -0.000000 -0.000000
 50 0.000003 -4.440602 0.000001 1.569944 -3.078603 0.004053
 51 10.510133 0.000000 -0.000002 -0.000000 0.000000 -1.822772
 52 0.000000 -1.748397 -5.000000 3.141593 0.004007 -1.539299
 53 5.500000 0.000001 -0.000002 -0.161834 -0.000000 0.000000
 54 0.000003 -0.000001 -5.000002 -0.044472 3.137590 -0.000177
 55 6.551490 -0.000001 0.000003 0.161834 0.110178 -0.480562
 56 -1.266843 -1.937443 -4.950560 -0.066572 -2.988806 -0.110308
 57 6.551491 -0.000002 0.000003 0.161834 0.110178 -0.480562
 58 0.699371 -1.944208 -5.006848 -0.027189 -3.088217 0.005298
 59 4.226147 -0.003202 0.000001 0.076288 -0.054404 -0.043857
 60 -0.000000 5.000001 -0.000001 -0.153564 0.000087 2.718702
 61 0.000004 -0.000005 -3.713580 0.365818 2.880119 -0.191589
 62 0.000002 0.000000 5.000000 3.053196 1.558589 -0.074928
 63 -0.000007 0.000005 3.713580 -0.001619 -3.122277 -0.475127
 64 0.000002 -0.000001 -5.000000 -0.088726 1.558589 3.066334
 65 7.363602 1.646647 0.495663 3.141593 -1.570796 0.000000
 66 -0.000005 0.000006 3.619081 0.008255 -3.110080 -0.985231
 67 16.573919 -0.000000 0.000000 0.000000 -0.000000 -1.065827
 68 15.128181 0.000001 -0.000000 -0.102296 0.010178 0.114297
 69 5.758665 4.244730 0.000000 0.000000 0.000000 1.667687
 70 3.177725 0.000000 -0.000000 0.000000 0.000000 3.141593
 71 15.708953 0.000001 0.000000 -0.051525 0.003996 0.061523
 72 0.275148 0.189215 -3.445207 3.130898 0.000409 -1.514604
 73 17.210194 -0.000000 0.000000 0.000000 -0.000000 -1.893339
 74 -0.000000 0.000000 -5.000000 -0.079430 1.546568 -1.570855
 75 0.000002 -0.000003 -3.619081 0.577895 2.675801 -0.242118
 76 16.573921 -0.000001 -0.000002 -0.000000 -0.000000 -1.163030
 77 15.128181 0.000001 0.000001 0.089479 0.309197 0.659208
 78 5.758666 4.244730 -0.000001 -0.000000 -0.000000 1.815142
 79 4.003934 -0.000000 0.000001 0.000000 0.000000 0.000000
 80 15.708953 0.000001 0.000001 0.042277 0.226871 0.443133
 81 0.273998 0.191089 3.439763 -3.130907 -0.000437 -1.508107
 82 17.210194 -0.000001 -0.000002 0.000000 -0.000000 -1.937080
 83 -0.000000 -0.000001 5.000000 -0.079319 1.595025 -1.570742
time 6
  0 -0.650000 0.000000 33.899605 -0.025849 0.174554 -1.569172
  1 5.685104 0.833236 -32.227173 -0.174512 -0.026131 1.569196
  2 -2.276935 0.000003 -1.238188 -1.570795 -1.570451 0.000000
  3 1.796931 0.711826 -0.000396 0.120903 0.103006 -0.052526
  4 4.118463 -0.003253 -0.000394 0.120694 0.055784 -0.035347
  5 4.118896 -0.003244 -0.000387 0.118225 -0.046067 0.084266
  6 4.119555 -0.002706 -0.001587 0.505644 -0.035914 0.319361
  7 4.118378 -0.003491 -0.000532 0.151632 -0.098502 -0.079145
  8 4.443597 0.000000 0.000000 0.681794 0.185921 -0.092673
  9 9.024063 0.000000 -0.000001 0.000000 0.000000 0.000000
 10 0.170400 0.263995 1.704537 -2.740722 -1.404280 -0.340005
 11 6.384777 0.000000 0.000003 1.569794 2.777247 1.246441
 12 10.242683 0.000003 -0.000002 0.000000 -0.000000 -1.691761
 13 11.375565 -0.000002 0.000000 -2.706331 0.290473 0.342369
 14 0.728681 0.023430 -1.008294 1.705251 0.347372 0.567022
 15 2.136497 -0.000001 0.000000 -0.000000 0.000000 0.287979
 16 2.313139 -0.000001 -0.000000 0.000000 0.000000 0.000000
 17 3.115508 -0.886041 -0.021433 -0.000782 0.000152 0.191986
 18 2.011149 -0.000001 -0.000000 0.000000 0.000000 0.659566
 19 2.141379 -0.000000 -0.000001 0.000000 0.000000 0.000000
 20 1.734173 0.000002 -0.000002 0.000000 -0.000000 0.330185
 21 0.000007 -4.440594 -0.000000 1.570544 -0.062990 -0.195737
 22 5.999999 0.000001 -0.000001 -2.451538 0.000000 -0.000000
 23 0.000001 -4.440601 -0.000000 1.569944 -0.062987 0.004053
 24 11.375562 0.000001 0.000002 -2.142780 0.097205 0.233442
 25 -0.000002 -4.440604 0.000002 1.570144 -0.062988 0.004040
 26 10.510132 0.000002 -0.000003 -0.000000 -0.000000 -2.416677
 27 0.000000 -1.748401 4.999999 0.000000 0.004007 1.602291
 28 5.500001 0.000002 -0.000002 0.321216 0.000000 -0.000000
 29 -0.000002 -1.940599 5.000000 -0.044472 0.004003 -0.000180
 30 6.551491 0.000000 0.000002 -1.210429 0.607946 -1.631761
 31 -0.000000 -1.940598 4.999999 -0.027189 -0.053376 0.005295
 32 6.551491 0.000000 0.000002 -0.206602 0.370456 -0.376077
 33 -0.000000 -1.940599 4.999999 -0.066572 -0.152786 -0.110311
 34 -0.170402 -0.256918 -1.704537 2.907341 1.475771 -0.167847
 35 6.384776 -0.000001 0.000003 0.216942 0.638682 -2.118175
 36 10.242682 0.000000 -0.000001 0.000000 -0.000000 -0.503950
 37 11.375562 0.000001 -0.000004 2.709759 0.160902 0.324691
 38 0.728683 0.023431 1.008294 -1.539000 -0.370199 0.101110
 39 2.136498 0.000000 -0.000000 -0.000000 -0.000000 0.287979
 40 2.313138 -0.000001 0.000000 0.000000 0.000000 3.141593
 41 3.115508 -0.886041 0.021432 0.495459 0.148146 0.639838
 42 2.011151 0.000000 0.000004 0.000000 0.000000 2.038377
 43 2.141379 0.000000 -0.000001 0.000000 0.000000 3.141593
 44 1.734171 -0.000001 -0.000000 0.000000 0.000000 1.019987
 45 0.136314 -3.738193 2.525887 1.493698 2.759406 -1.474501
 46 5.031115 -0.189688 1.849663 -2.967941 -0.035742 1.570790
 47 11.389367 -0.000820 0.158778 2.132428 0.142225 0.152247
 48 -0.000000 -4.440599 -0.000000 1.570144 -3.078602 0.004040
 49 6.000000 -0.000000 -0.000002 2.132428 -0.000000 -0.000000
 50 0.000003 -4.440602 0.000001 1.569944 -3.078603 0.004053
 51 10.510133 0.000000 -0.000002 -0.000000 0.000000 -1.822772
 52 0.000000 -1.748397 -5.000000 3.141593 0.004007 -1.539299
 53 5.500000 0.000001 -0.000002 -0.161834 -0.000000 0.000000
 54 0.000003 -0.000001 -5.000002 -0.044472 3.137590 -0.000177
 55 6.551490 -0.000001 0.000003 0.161834 0.110178 -0.480562
 56 -1.266843 -1.937443 -4.950560 -0.066572 -2.988806 -0.110308
 57 6.551491 -0.000002 0.000003 0.161834 0.110178 -0.480562
 58 0.699371 -1.944208 -5.006848 -0.027189 -3.088217 0.005298
 59 4.226147 -0.003202 0.000001 0.076288 -0.054404 -0.043857
 60 -0.000000 5.000001 -0.000001 -0.153564 0.000087 2.718702
 61 0.000004 -0.000005 -3.713580 0.365818 2.880119 -0.191589
 62 0.000002 0.000000 5.000000 3.053196 1.558589 -0.074928
 63 -0.000007 0.000005 3.713580 -0.001619 -3.122277 -0.475127
 64 0.000002 -0.000001 -5.000000 -0.088726 1.558589 3.066334
 65 7.363602 1.646647 0.495663 3.141593 -1.570796 0.000000
 66 -0.000005 0.000006 3.619081 0.008255 -3.110080 -0.985231
 67 16.573919 -0.000000 0.000000 0.000000 -0.000000 -1.065827
 68 15.128181 0.000001 -0.000000 -0.102296 0.010178 0.114297
 69 5.758665 4.244730 0.000000 0.000000 0.000000 1.667687
 70 3.177725 0.000000 -0.000000 0.000000 0.000000 3.141593
 71 15.708953 0.000001 0.000000 -0.051525 0.003996 0.061523
 72 0.275148 0.189215 -3.445207 3.130898 0.000409 -1.514604
 73 17.210194 -0.000000 0.000000 0.000000 -0.000000 -1.893339
 74 -0.000000 0.000000 -5.000000 -0.079430 1.546568 -1.570855
 75 0.000002 -0.000003 -3.619081 0.577895 2.675801 -0.242118
 76 16.573921 -0.000001 -0.000002 -0.000000 -0.000000 -1.163030
 77 15.128181 0.000001 0.000001 0.089479 0.309197 0.659208
 78 5.758666 4.244730 -0.000001 -0.000000 -0.000000 1.815142
 79 4.003934 -0.000000 0.000001 0.000000 0.000000 0.000000
 80 15.708953 0.000001 0.000001 0.042277 0.226871 0.443133
 81 0.273998 0.191089 3.439763 -3.130907 -0.000437 -1.508107
 82 17.210194 -0.000001 -0.000002 0.000000 -0.000000 -1.937080
 83 -0.000000 -0.000001 5.000000 -0.079319 1.595025 -1.570742
end
