version 1
nodes
  0 "Bip01"  -1
  1 "Bip01 Footsteps"   0
  2 "Bip01 Pelvis"   0
  3 "Bip01 Spine"   2
  4 "Bip01 Spine1"   3
  5 "Bip01 Spine2"   4
  6 "Bip01 Spine3"   5
  7 "Bip01 Neck"   6
  8 "Bip01 Head"   7
  9 "Dummy21"   8
 10 "Bip01 L Clavicle"   7
 11 "Bip01 L UpperArm"  10
 12 "Bip01 L Forearm"  11
 13 "Bip01 L Hand"  12
 14 "Bip01 L Finger0"  13
 15 "Bip01 L Finger01"  14
 16 "Dummy06"  15
 17 "Bip01 L Finger1"  13
 18 "Bip01 L Finger11"  17
 19 "Dummy03"  18
 20 "-- L knuckle"  17
 21 "-- L knuckle_end"  20
 22 "-- L Forearm twist"  12
 23 "-- L Forearm twist_end"  22
 24 "-- L wrist"  12
 25 "-- L wrist_end"  24
 26 "-- L Elbow"  11
 27 "--L Elbow_end"  26
 28 "-- L bicep twist"  11
 29 "-- L bicep twist_end"  28
 30 "-- L shoulder outside"  10
 31 "-- L shoulder outside_end"  30
 32 "-- L Shoulder inside"  10
 33 "-- L Shoulder inside_end"  32
 34 "Bip01 R Clavicle"   7
 35 "Bip01 R UpperArm"  34
 36 "Bip01 R Forearm"  35
 37 "Bip01 R Hand"  36
 38 "Bip01 R Finger0"  37
 39 "Bip01 R Finger01"  38
 40 "Dummy01"  39
 41 "Bip01 R Finger1"  37
 42 "Bip01 R Finger11"  41
 43 "Dummy02"  42
 44 "-- R knuckle"  41
 45 "Point06"  44
 46 "Beretta Elite"  37
 47 "-- R wrist"  36
 48 "-- R wrist_end"  47
 49 "-- R forearm twist"  36
 50 "-- R forearm twist_end"  49
 51 "-- R Elbow"  35
 52 "--R Elbow_end"  51
 53 "-- R bicep twist"  35
 54 "-- R bicep twist_end"  53
 55 "-- R Shoulder inside"  34
 56 "-- R Shoulder inside_end"  55
 57 "-- R shoulder outside"  34
 58 "-- R shoulder outside_end"  57
 59 "-- Neck smooth"   6
 60 "-- neck smooth end"  59
 61 "-- R Butt"   2
 62 "--R Butt_end"  61
 63 "-- L butt"   2
 64 "--L butt_end"  63
 65 "GIGN01"   2
 66 "Bip01 L Thigh"   2
 67 "Bip01 L Calf"  66
 68 "Bip01 L Foot"  67
 69 "Bip01 L Toe0"  68
 70 "Dummy16"  69
 71 "-- L ankle"  67
 72 "-- L ankleend"  71
 73 "-- L Knee"  66
 74 "--L Knee_end"  73
 75 "Bip01 R Thigh"   2
 76 "Bip01 R Calf"  75
 77 "Bip01 R Foot"  76
 78 "Bip01 R Toe0"  77
 79 "Dummy11"  78
 80 "-- R Ankle"  76
 81 "-- R ankleend"  80
 82 "-- R Knee"  75
 83 "--R Knee_end"  82
end
skeleton
time 0
  0 -0.650000 0.000000 33.899605 -0.025849 0.174554 -1.569172
  1 5.685104 0.833236 -32.227173 -0.174512 -0.026131 1.569196
  2 -2.276935 0.000003 -1.238188 -1.570795 -1.570451 0.000000
  3 1.796692 0.711910 0.000726 -0.263329 -0.547308 -0.001967
  4 4.118953 -0.003176 0.000740 -0.229060 0.136080 0.079344
  5 4.118958 -0.003176 0.000738 -0.233224 0.232682 0.056254
  6 4.119545 -0.003056 0.000730 -0.228290 0.180034 0.257294
  7 4.117486 -0.003304 -0.000587 0.169482 0.180969 -0.296197
  8 4.443598 -0.000000 0.000000 -0.882740 0.426594 0.277240
  9 9.024060 0.000000 0.000001 0.000000 0.000000 0.000000
 10 -0.311860 0.291022 1.680005 1.916626 -1.277710 1.500467
 11 6.384775 0.000001 0.000002 -0.452909 0.244532 -1.805590
 12 10.242683 0.000001 -0.000001 -0.000000 -0.000000 -1.274919
 13 11.375560 -0.000000 0.000001 -2.924864 0.163149 -0.131078
 14 0.728681 0.023431 -1.008291 2.038136 0.634975 1.094199
 15 2.136493 0.000002 0.000000 -0.000000 -0.000000 0.287979
 16 2.313141 -0.000003 0.000001 0.000000 0.000000 0.000000
 17 3.115507 -0.886040 -0.021432 -0.896369 -0.152156 0.318147
 18 2.011151 -0.000000 -0.000001 0.000000 -0.000000 0.720653
 19 2.141379 -0.000002 0.000001 0.000000 0.000000 0.000000
 20 1.734172 -0.000002 0.000001 0.000000 -0.000000 0.360540
 21 0.000006 -4.440595 0.000001 1.570544 -0.062990 -0.195737
 22 6.000000 0.000001 -0.000001 -2.627851 -0.000000 -0.000000
 23 0.000001 -4.440601 0.000002 1.569944 -0.062987 0.004053
 24 11.375562 0.000002 0.000001 -2.242113 0.119768 -0.040825
 25 -0.000001 -4.440605 -0.000001 1.570144 -0.062988 0.004040
 26 10.510133 0.000001 -0.000001 0.000000 -0.000000 -2.208256
 27 0.000001 -1.748401 4.999999 -0.000000 0.004007 1.602291
 28 5.500001 0.000001 0.000000 0.157955 -0.000000 0.000000
 29 -0.000000 -1.940598 5.000001 -0.044472 0.004003 -0.000180
 30 6.551490 0.000000 0.000002 -0.433110 0.283355 -1.452481
 31 -0.000000 -1.940598 5.000000 -0.027189 -0.053376 0.005295
 32 6.551490 0.000000 0.000002 -0.109993 0.169140 -0.507356
 33 -0.000000 -1.940599 4.999998 -0.066572 -0.152786 -0.110311
 34 0.311861 -0.283945 -1.680005 1.756959 0.857176 -1.104939
 35 6.384775 -0.000001 0.000005 0.802863 0.149601 -1.634566
 36 10.242682 -0.000000 -0.000001 -0.000000 0.000000 -0.366668
 37 11.375561 0.000001 -0.000000 2.726094 0.480352 0.300862
 38 0.728680 0.023432 1.008296 -1.539000 -0.370199 0.101110
 39 2.136497 0.000003 -0.000001 0.000000 0.000000 0.287979
 40 2.313138 0.000000 -0.000001 0.000000 0.000000 3.141593
 41 3.115505 -0.886041 0.021431 0.495459 0.148146 0.639838
 42 2.011151 0.000001 0.000002 0.000000 -0.000000 2.038377
 43 2.141379 0.000001 0.000000 0.000000 0.000000 3.141593
 44 1.734171 -0.000001 -0.000002 0.000000 -0.000000 1.019987
 45 0.136316 -3.738193 2.525891 1.493698 2.759406 -1.474501
 46 5.031113 -0.189688 1.849663 -2.967941 -0.035742 1.570790
 47 11.389365 -0.000820 0.158778 2.110767 0.300113 0.073943
 48 -0.000001 -4.440599 -0.000001 1.570144 -3.078602 0.004040
 49 5.999999 0.000001 -0.000001 2.110767 0.000000 0.000000
 50 0.000003 -4.440603 0.000000 1.569944 -3.078603 0.004053
 51 10.510130 -0.000000 -0.000001 -0.000000 -0.000000 -1.754130
 52 0.000001 -1.748400 -5.000002 -3.141593 0.004007 -1.539299
 53 5.499999 -0.000000 -0.000001 -0.239735 0.000000 -0.000000
 54 0.000000 0.000001 -4.999998 -0.044472 3.137589 -0.000177
 55 6.551491 -0.000001 0.000002 0.239735 -0.083239 -0.475210
 56 -1.266844 -1.937444 -4.950558 -0.066572 -2.988806 -0.110308
 57 6.551491 -0.000001 0.000002 0.239735 -0.083239 -0.475210
 58 0.699370 -1.944208 -5.006848 -0.027189 -3.088217 0.005298
 59 4.226146 -0.003201 0.000000 0.090690 0.089065 -0.169442
 60 -0.000002 5.000000 0.000000 -0.153564 0.000087 2.718702
 61 0.000004 -0.000004 -3.713580 0.365818 2.880119 -0.191589
 62 0.000002 -0.000000 5.000000 3.053196 1.558589 -0.074928
 63 -0.000007 0.000006 3.713580 -0.001619 -3.122277 -0.475127
 64 0.000002 -0.000001 -5.000000 -0.088726 1.558589 3.066334
 65 7.363602 1.646647 0.495663 3.141593 -1.570796 0.000000
 66 -0.000005 0.000007 3.619081 0.008255 -3.110080 -0.985231
 67 16.573919 0.000002 0.000000 0.000000 -0.000000 -1.065827
 68 15.128181 0.000000 -0.000000 -0.102296 0.010178 0.114297
 69 5.758665 4.244730 0.000000 0.000000 0.000000 1.667687
 70 3.177725 0.000000 -0.000000 0.000000 0.000000 3.141593
 71 15.708953 0.000001 0.000000 -0.051525 0.003996 0.061523
 72 0.275148 0.189215 -3.445207 3.130898 0.000409 -1.514604
 73 17.210192 0.000001 0.000000 0.000000 -0.000000 -1.893339
 74 0.000001 -0.000000 -5.000000 -0.079430 1.546568 -1.570855
 75 0.000002 -0.000003 -3.619081 0.577895 2.675801 -0.242118
 76 16.573921 -0.000001 -0.000002 -0.000000 -0.000000 -1.163030
 77 15.128181 0.000001 0.000001 0.089479 0.309197 0.659208
 78 5.758666 4.244730 -0.000001 -0.000000 -0.000000 1.815142
 79 4.003934 -0.000000 0.000001 0.000000 0.000000 0.000000
 80 15.708954 0.000001 0.000002 0.042277 0.226871 0.443133
 81 0.273998 0.191089 3.439762 -3.130907 -0.000437 -1.508107
 82 17.210194 -0.000001 -0.000002 0.000000 -0.000000 -1.937080
 83 -0.000000 -0.000001 5.000000 -0.079319 1.595025 -1.570742
time 1
  0 -0.650000 0.000000 33.899605 -0.025849 0.174554 -1.569172
  1 5.685104 0.833236 -32.227173 -0.174512 -0.026131 1.569196
  2 -2.276935 0.000003 -1.238188 -1.570795 -1.570451 0.000000
  3 1.796740 0.711901 0.000714 -0.258211 -0.544036 0.010287
  4 4.118968 -0.003178 0.000723 -0.224602 0.136551 0.083675
  5 4.118969 -0.003178 0.000723 -0.228697 0.233253 0.061025
  6 4.119554 -0.003056 0.000717 -0.223781 0.179738 0.261821
  7 4.117483 -0.003304 -0.000587 0.169482 0.180969 -0.296197
  8 4.443598 0.000000 0.000000 -0.890412 0.439009 0.245243
  9 9.024060 0.000000 0.000000 0.000000 0.000000 0.000000
 10 -0.311857 0.291022 1.680006 1.916626 -1.277710 1.500467
 11 6.384775 -0.000001 -0.000001 -0.442011 0.196579 -1.839652
 12 10.242682 0.000001 -0.000001 0.000000 -0.000000 -1.234842
 13 11.375561 0.000000 -0.000001 -2.926403 0.163149 -0.114232
 14 0.728681 0.023431 -1.008293 2.038136 0.634975 1.094199
 15 2.136497 0.000000 0.000000 0.000000 -0.000000 0.287979
 16 2.313139 -0.000002 0.000000 0.000000 0.000000 0.000000
 17 3.115507 -0.886041 -0.021432 -0.896369 -0.152156 0.318147
 18 2.011151 0.000001 -0.000001 0.000000 -0.000000 0.720653
 19 2.141379 -0.000000 -0.000001 0.000000 0.000000 0.000000
 20 1.734172 0.000002 0.000000 0.000000 -0.000000 0.360540
 21 0.000006 -4.440596 0.000001 1.570544 -0.062990 -0.195737
 22 5.999999 0.000001 -0.000002 -2.629007 0.000000 -0.000000
 23 0.000002 -4.440600 0.000000 1.569944 -0.062987 0.004053
 24 11.375561 -0.000000 0.000003 -2.243159 0.116323 -0.031224
 25 -0.000001 -4.440602 -0.000001 1.570144 -0.062988 0.004040
 26 10.510131 0.000001 -0.000002 -0.000000 0.000000 -2.188217
 27 0.000000 -1.748401 4.999998 0.000000 0.004007 1.602291
 28 5.500000 0.000000 0.000000 0.161166 0.000000 -0.000000
 29 -0.000002 -1.940598 5.000000 -0.044472 0.004003 -0.000180
 30 6.551490 -0.000001 0.000000 -0.426938 0.232437 -1.502916
 31 0.000000 -1.940598 5.000001 -0.027189 -0.053376 0.005295
 32 6.551490 -0.000001 0.000000 -0.112546 0.148538 -0.515573
 33 0.000000 -1.940599 4.999997 -0.066572 -0.152786 -0.110311
 34 0.311860 -0.283946 -1.680005 1.765397 0.893595 -1.093985
 35 6.384775 0.000000 0.000003 0.827395 0.178213 -1.599782
 36 10.242682 -0.000002 -0.000002 0.000000 -0.000000 -0.275593
 37 11.375560 0.000002 0.000000 2.704892 0.419719 0.251494
 38 0.728680 0.023431 1.008293 -1.539000 -0.370199 0.101110
 39 2.136497 -0.000001 0.000000 -0.000000 0.000000 0.287979
 40 2.313140 0.000001 -0.000000 0.000000 0.000000 3.141593
 41 3.115506 -0.886042 0.021430 0.495459 0.148146 0.639838
 42 2.011150 0.000001 -0.000001 0.000000 0.000000 2.038377
 43 2.141379 0.000000 -0.000001 0.000000 0.000000 3.141593
 44 1.734172 -0.000002 -0.000002 0.000000 -0.000000 1.019987
 45 0.136314 -3.738193 2.525891 1.493698 2.759406 -1.474501
 46 5.031114 -0.189688 1.849664 -2.967941 -0.035742 1.570790
 47 11.389366 -0.000819 0.158779 2.110104 0.264378 0.063136
 48 0.000002 -4.440599 0.000003 1.570144 -3.078602 0.004040
 49 5.999999 0.000001 -0.000002 2.110104 0.000000 -0.000000
 50 0.000001 -4.440603 0.000003 1.569944 -3.078603 0.004053
 51 10.510131 -0.000001 0.000001 0.000000 -0.000000 -1.708593
 52 0.000001 -1.748399 -5.000000 -3.141593 0.004007 -1.539299
 53 5.500000 -0.000001 -0.000001 -0.253505 -0.000000 -0.000000
 54 0.000000 0.000000 -4.999998 -0.044472 3.137589 -0.000177
 55 6.551490 -0.000000 0.000002 0.253505 -0.072359 -0.464564
 56 -1.266843 -1.937444 -4.950562 -0.066572 -2.988806 -0.110308
 57 6.551490 -0.000000 0.000002 0.253505 -0.072359 -0.464564
 58 0.699370 -1.944208 -5.006848 -0.027189 -3.088217 0.005298
 59 4.226149 -0.003202 -0.000000 0.090690 0.089065 -0.169442
 60 0.000003 5.000000 0.000000 -0.153564 0.000087 2.718702
 61 0.000004 -0.000004 -3.713580 0.365818 2.880119 -0.191589
 62 0.000002 -0.000000 5.000000 3.053196 1.558589 -0.074928
 63 -0.000007 0.000006 3.713580 -0.001619 -3.122277 -0.475127
 64 0.000002 -0.000001 -5.000000 -0.088726 1.558589 3.066334
 65 7.363602 1.646647 0.495663 3.141593 -1.570796 0.000000
 66 -0.000005 0.000007 3.619081 0.008255 -3.110080 -0.985231
 67 16.573919 0.000002 0.000000 0.000000 -0.000000 -1.065827
 68 15.128181 0.000000 -0.000000 -0.102296 0.010178 0.114297
 69 5.758665 4.244730 0.000000 0.000000 0.000000 1.667687
 70 3.177725 0.000000 -0.000000 0.000000 0.000000 3.141593
 71 15.708953 0.000001 0.000000 -0.051525 0.003996 0.061523
 72 0.275148 0.189215 -3.445207 3.130898 0.000409 -1.514604
 73 17.210192 0.000001 0.000000 0.000000 -0.000000 -1.893339
 74 0.000001 -0.000000 -5.000000 -0.079430 1.546568 -1.570855
 75 0.000002 -0.000003 -3.619081 0.577895 2.675801 -0.242118
 76 16.573921 -0.000001 -0.000002 -0.000000 -0.000000 -1.163030
 77 15.128181 0.000001 0.000001 0.089479 0.309197 0.659208
 78 5.758666 4.244730 -0.000001 -0.000000 -0.000000 1.815142
 79 4.003934 -0.000000 0.000001 0.000000 0.000000 0.000000
 80 15.708954 0.000001 0.000002 0.042277 0.226871 0.443133
 81 0.273998 0.191089 3.439762 -3.130907 -0.000437 -1.508107
 82 17.210194 -0.000001 -0.000002 0.000000 -0.000000 -1.937080
 83 -0.000000 -0.000001 5.000000 -0.079319 1.595025 -1.570742
time 2
  0 -0.650000 0.000000 33.899605 -0.025849 0.174554 -1.569172
  1 5.685104 0.833236 -32.227173 -0.174512 -0.026131 1.569196
  2 -2.276935 0.000003 -1.238188 -1.570795 -1.570451 0.000000
  3 1.796793 0.711892 0.000701 -0.253055 -0.540817 0.022536
  4 4.118977 -0.003179 0.000712 -0.220142 0.137002 0.088009
  5 4.118984 -0.003179 0.000709 -0.224166 0.233803 0.065799
  6 4.119565 -0.003055 0.000703 -0.219274 0.179421 0.266346
  7 4.117481 -0.003305 -0.000586 0.169482 0.180969 -0.296197
  8 4.443601 0.000000 0.000000 -0.898452 0.451113 0.212943
  9 9.024062 0.000001 0.000000 0.000000 0.000000 0.000000
 10 -0.311856 0.291022 1.680005 1.916625 -1.277710 1.500468
 11 6.384776 0.000001 0.000003 -0.429285 0.149417 -1.875600
 12 10.242681 -0.000000 -0.000001 0.000000 0.000000 -1.191635
 13 11.375560 0.000001 -0.000003 -2.927412 0.163761 -0.099496
 14 0.728680 0.023431 -1.008292 2.038136 0.634975 1.094199
 15 2.136497 0.000000 0.000001 0.000000 -0.000000 0.287979
 16 2.313140 -0.000001 0.000001 0.000000 0.000000 0.000000
 17 3.115506 -0.886040 -0.021432 -0.896369 -0.152156 0.318147
 18 2.011151 0.000002 0.000000 -0.000000 -0.000000 0.720653
 19 2.141378 -0.000001 0.000001 0.000000 0.000000 0.000000
 20 1.734172 0.000001 0.000000 -0.000000 0.000000 0.360540
 21 0.000006 -4.440592 0.000000 1.570544 -0.062990 -0.195737
 22 6.000000 -0.000001 -0.000000 -2.629731 0.000000 -0.000000
 23 0.000001 -4.440600 0.000001 1.569944 -0.062987 0.004053
 24 11.375561 0.000000 0.000001 -2.243877 0.113596 -0.022666
 25 -0.000001 -4.440602 0.000002 1.570144 -0.062988 0.004040
 26 10.510129 0.000001 -0.000003 -0.000000 0.000000 -2.166614
 27 -0.000001 -1.748401 4.999999 -0.000000 0.004007 1.602291
 28 5.500000 0.000001 -0.000003 0.162144 0.000000 0.000000
 29 -0.000001 -1.940598 5.000000 -0.044472 0.004003 -0.000180
 30 6.551491 -0.000001 -0.000001 -0.415670 0.183669 -1.547942
 31 0.000000 -1.940598 5.000000 -0.027189 -0.053376 0.005295
 32 6.551491 -0.000001 -0.000001 -0.113481 0.128510 -0.521294
 33 0.000000 -1.940598 4.999994 -0.066572 -0.152786 -0.110311
 34 0.311862 -0.283945 -1.680006 1.774907 0.929949 -1.081991
 35 6.384777 -0.000000 0.000000 0.851595 0.207373 -1.564026
 36 10.242682 0.000001 0.000001 -0.000000 -0.000000 -0.184518
 37 11.375561 -0.000001 0.000001 2.687431 0.358239 0.204729
 38 0.728679 0.023431 1.008291 -1.539000 -0.370199 0.101110
 39 2.136498 -0.000001 0.000000 -0.000000 0.000000 0.287979
 40 2.313140 -0.000001 0.000000 0.000000 0.000000 3.141593
 41 3.115506 -0.886041 0.021430 0.495459 0.148146 0.639838
 42 2.011152 -0.000000 0.000002 -0.000000 0.000000 2.038377
 43 2.141379 -0.000001 0.000002 0.000000 0.000000 3.141593
 44 1.734174 -0.000001 0.000003 0.000000 -0.000000 1.019987
 45 0.136316 -3.738192 2.525891 1.493698 2.759406 -1.474501
 46 5.031115 -0.189688 1.849663 -2.967941 -0.035742 1.570790
 47 11.389365 -0.000820 0.158783 2.109535 0.227467 0.051931
 48 0.000001 -4.440600 -0.000000 1.570144 -3.078602 0.004040
 49 6.000000 -0.000002 -0.000000 2.109535 -0.000000 -0.000000
 50 0.000002 -4.440601 -0.000001 1.569944 -3.078603 0.004053
 51 10.510131 0.000000 0.000001 0.000000 0.000000 -1.663055
 52 -0.000001 -1.748400 -4.999999 -3.141593 0.004007 -1.539299
 53 5.500000 0.000001 0.000001 -0.267805 -0.000000 0.000000
 54 -0.000000 -0.000001 -5.000002 -0.044472 3.137589 -0.000177
 55 6.551491 -0.000000 -0.000001 0.267805 -0.061419 -0.452427
 56 -1.266844 -1.937443 -4.950559 -0.066572 -2.988806 -0.110308
 57 6.551492 -0.000000 -0.000001 0.267805 -0.061419 -0.452427
 58 0.699371 -1.944208 -5.006850 -0.027189 -3.088217 0.005298
 59 4.226145 -0.003202 0.000000 0.090690 0.089065 -0.169442
 60 -0.000000 5.000000 0.000001 -0.153564 0.000087 2.718702
 61 0.000004 -0.000004 -3.713580 0.365818 2.880119 -0.191589
 62 0.000002 -0.000000 5.000000 3.053196 1.558589 -0.074928
 63 -0.000007 0.000006 3.713580 -0.001619 -3.122277 -0.475127
 64 0.000002 -0.000001 -5.000000 -0.088726 1.558589 3.066334
 65 7.363602 1.646647 0.495663 3.141593 -1.570796 0.000000
 66 -0.000005 0.000007 3.619081 0.008255 -3.110080 -0.985231
 67 16.573919 0.000002 0.000000 0.000000 -0.000000 -1.065827
 68 15.128181 0.000000 -0.000000 -0.102296 0.010178 0.114297
 69 5.758665 4.244730 0.000000 0.000000 0.000000 1.667687
 70 3.177725 0.000000 -0.000000 0.000000 0.000000 3.141593
 71 15.708953 0.000001 0.000000 -0.051525 0.003996 0.061523
 72 0.275148 0.189215 -3.445207 3.130898 0.000409 -1.514604
 73 17.210192 0.000001 0.000000 0.000000 -0.000000 -1.893339
 74 0.000001 -0.000000 -5.000000 -0.079430 1.546568 -1.570855
 75 0.000002 -0.000003 -3.619081 0.577895 2.675801 -0.242118
 76 16.573921 -0.000001 -0.000002 -0.000000 -0.000000 -1.163030
 77 15.128181 0.000001 0.000001 0.089479 0.309197 0.659208
 78 5.758666 4.244730 -0.000001 -0.000000 -0.000000 1.815142
 79 4.003934 -0.000000 0.000001 0.000000 0.000000 0.000000
 80 15.708954 0.000001 0.000002 0.042277 0.226871 0.443133
 81 0.273998 0.191089 3.439762 -3.130907 -0.000437 -1.508107
 82 17.210194 -0.000001 -0.000002 0.000000 -0.000000 -1.937080
 83 -0.000000 -0.000001 5.000000 -0.079319 1.595025 -1.570742
time 3
  0 -0.650000 0.000000 33.899605 -0.025849 0.174554 -1.569172
  1 5.685104 0.833236 -32.227173 -0.174512 -0.026131 1.569196
  2 -2.276935 0.000003 -1.238188 -1.570795 -1.570451 0.000000
  3 1.796837 0.711885 0.000688 -0.247865 -0.537653 0.034782
  4 4.118995 -0.003181 0.000695 -0.215679 0.137434 0.092345
  5 4.118995 -0.003181 0.000694 -0.219633 0.234332 0.070576
  6 4.119585 -0.003055 0.000686 -0.214769 0.179085 0.270870
  7 4.117481 -0.003304 -0.000587 0.169482 0.180969 -0.296197
  8 4.443601 0.000000 -0.000000 -0.906855 0.462897 0.180339
  9 9.024060 -0.000001 0.000000 0.000000 0.000000 0.000000
 10 -0.311855 0.291022 1.680005 1.916626 -1.277710 1.500467
 11 6.384775 0.000000 -0.000001 -0.414612 0.103163 -1.913710
 12 10.242680 -0.000000 0.000004 -0.000000 -0.000000 -1.145019
 13 11.375561 0.000001 0.000000 -2.927833 0.164931 -0.087010
 14 0.728681 0.023431 -1.008294 2.038136 0.634975 1.094199
 15 2.136494 0.000001 -0.000000 0.000000 -0.000000 0.287979
 16 2.313139 -0.000002 -0.000000 0.000000 0.000000 0.000000
 17 3.115507 -0.886041 -0.021431 -0.896369 -0.152156 0.318147
 18 2.011151 0.000004 -0.000002 0.000000 -0.000000 0.720653
 19 2.141378 -0.000000 0.000001 0.000000 0.000000 0.000000
 20 1.734172 0.000001 0.000001 0.000000 -0.000000 0.360540
 21 0.000005 -4.440593 0.000000 1.570544 -0.062990 -0.195737
 22 6.000000 0.000002 -0.000001 -2.629969 -0.000000 0.000000
 23 0.000002 -4.440602 -0.000002 1.569944 -0.062987 0.004053
 24 11.375561 0.000001 0.000004 -2.244240 0.111606 -0.015264
 25 -0.000001 -4.440603 -0.000003 1.570144 -0.062988 0.004040
 26 10.510130 0.000000 0.000002 0.000000 0.000000 -2.143306
 27 0.000001 -1.748400 4.999998 0.000000 0.004007 1.602291
 28 5.500000 0.000000 0.000003 0.161351 0.000000 -0.000000
 29 -0.000002 -1.940598 5.000003 -0.044472 0.004003 -0.000180
 30 6.551490 0.000001 -0.000001 -0.400691 0.137617 -1.588231
 31 -0.000000 -1.940598 5.000002 -0.027189 -0.053376 0.005295
 32 6.551490 0.000001 -0.000001 -0.113145 0.109396 -0.524942
 33 0.000000 -1.940599 4.999995 -0.066572 -0.152786 -0.110311
 34 0.311861 -0.283946 -1.680006 1.785678 0.966227 -1.068767
 35 6.384776 -0.000000 -0.000000 0.875513 0.237040 -1.527282
 36 10.242682 -0.000001 -0.000000 -0.000000 0.000000 -0.093442
 37 11.375561 -0.000001 -0.000001 2.673354 0.296086 0.160063
 38 0.728680 0.023431 1.008294 -1.539000 -0.370199 0.101110
 39 2.136497 0.000003 -0.000001 -0.000000 0.000000 0.287979
 40 2.313140 -0.000002 0.000000 0.000000 0.000000 3.141593
 41 3.115507 -0.886041 0.021432 0.495459 0.148146 0.639838
 42 2.011150 0.000001 0.000001 0.000000 0.000000 2.038377
 43 2.141379 0.000000 0.000001 0.000000 0.000000 3.141593
 44 1.734172 -0.000001 0.000000 -0.000000 0.000000 1.019987
 45 0.136316 -3.738191 2.525891 1.493698 2.759406 -1.474501
 46 5.031113 -0.189688 1.849664 -2.967941 -0.035742 1.570790
 47 11.389364 -0.000819 0.158782 2.109056 0.189221 0.040265
 48 0.000000 -4.440600 0.000002 1.570144 -3.078602 0.004040
 49 6.000000 -0.000000 -0.000001 2.109056 -0.000000 -0.000000
 50 0.000002 -4.440602 -0.000001 1.569944 -3.078603 0.004053
 51 10.510132 -0.000001 0.000000 -0.000000 -0.000000 -1.617517
 52 -0.000001 -1.748400 -5.000000 -3.141593 0.004007 -1.539299
 53 5.500000 -0.000000 0.000001 -0.282252 0.000000 0.000000
 54 0.000000 0.000001 -5.000001 -0.044472 3.137589 -0.000177
 55 6.551490 -0.000000 0.000000 0.282252 -0.050863 -0.439335
 56 -1.266843 -1.937444 -4.950560 -0.066572 -2.988806 -0.110308
 57 6.551491 -0.000000 0.000000 0.282252 -0.050863 -0.439335
 58 0.699370 -1.944208 -5.006846 -0.027189 -3.088217 0.005298
 59 4.226148 -0.003202 -0.000000 0.090690 0.089065 -0.169442
 60 -0.000003 5.000000 -0.000000 -0.153564 0.000087 2.718702
 61 0.000004 -0.000004 -3.713580 0.365818 2.880119 -0.191589
 62 0.000002 -0.000000 5.000000 3.053196 1.558589 -0.074928
 63 -0.000007 0.000006 3.713580 -0.001619 -3.122277 -0.475127
 64 0.000002 -0.000001 -5.000000 -0.088726 1.558589 3.066334
 65 7.363602 1.646647 0.495663 3.141593 -1.570796 0.000000
 66 -0.000005 0.000007 3.619081 0.008255 -3.110080 -0.985231
 67 16.573919 0.000002 0.000000 0.000000 -0.000000 -1.065827
 68 15.128181 0.000000 -0.000000 -0.102296 0.010178 0.114297
 69 5.758665 4.244730 0.000000 0.000000 0.000000 1.667687
 70 3.177725 0.000000 -0.000000 0.000000 0.000000 3.141593
 71 15.708953 0.000001 0.000000 -0.051525 0.003996 0.061523
 72 0.275148 0.189215 -3.445207 3.130898 0.000409 -1.514604
 73 17.210192 0.000001 0.000000 0.000000 -0.000000 -1.893339
 74 0.000001 -0.000000 -5.000000 -0.079430 1.546568 -1.570855
 75 0.000002 -0.000003 -3.619081 0.577895 2.675801 -0.242118
 76 16.573921 -0.000001 -0.000002 -0.000000 -0.000000 -1.163030
 77 15.128181 0.000001 0.000001 0.089479 0.309197 0.659208
 78 5.758666 4.244730 -0.000001 -0.000000 -0.000000 1.815142
 79 4.003934 -0.000000 0.000001 0.000000 0.000000 0.000000
 80 15.708954 0.000001 0.000002 0.042277 0.226871 0.443133
 81 0.273998 0.191089 3.439762 -3.130907 -0.000437 -1.508107
 82 17.210194 -0.000001 -0.000002 0.000000 -0.000000 -1.937080
 83 -0.000000 -0.000001 5.000000 -0.079319 1.595025 -1.570742
time 4
  0 -0.650000 0.000000 33.899605 -0.025849 0.174554 -1.569172
  1 5.685104 0.833236 -32.227173 -0.174512 -0.026131 1.569196
  2 -2.276935 0.000003 -1.238188 -1.570795 -1.570451 0.000000
  3 1.796886 0.711878 0.000675 -0.242639 -0.534544 0.047023
  4 4.119008 -0.003183 0.000680 -0.211215 0.137846 0.096683
  5 4.119006 -0.003183 0.000680 -0.215096 0.234840 0.075356
  6 4.119591 -0.003053 0.000674 -0.210265 0.178728 0.275392
  7 4.117485 -0.003305 -0.000587 0.169482 0.180969 -0.296197
  8 4.443597 0.000000 0.000000 -0.915615 0.474352 0.147429
  9 9.024058 0.000000 -0.000000 0.000000 0.000000 0.000000
 10 -0.311858 0.291022 1.680006 1.916626 -1.277710 1.500467
 11 6.384776 0.000000 0.000001 -0.397853 0.057947 -1.954309
 12 10.242681 0.000000 0.000000 -0.000000 -0.000000 -1.094639
 13 11.375560 -0.000002 0.000003 -2.927613 0.166597 -0.076948
 14 0.728681 0.023431 -1.008292 2.038136 0.634976 1.094199
 15 2.136498 -0.000001 0.000000 0.000000 -0.000000 0.287979
 16 2.313139 -0.000001 0.000000 0.000000 0.000000 0.000000
 17 3.115507 -0.886041 -0.021431 -0.896369 -0.152156 0.318147
 18 2.011151 0.000001 0.000000 -0.000000 0.000000 0.720653
 19 2.141379 0.000000 0.000000 0.000000 0.000000 0.000000
 20 1.734172 0.000001 0.000000 0.000000 0.000000 0.360540
 21 0.000006 -4.440595 0.000001 1.570544 -0.062990 -0.195737
 22 6.000000 -0.000001 0.000002 -2.629672 -0.000000 0.000000
 23 0.000002 -4.440601 -0.000000 1.569944 -0.062987 0.004053
 24 11.375560 -0.000001 0.000004 -2.244222 0.110376 -0.009149
 25 -0.000001 -4.440601 0.000002 1.570144 -0.062988 0.004040
 26 10.510130 -0.000000 0.000002 0.000000 -0.000000 -2.118116
 27 0.000000 -1.748401 5.000000 0.000000 0.004007 1.602291
 28 5.500000 -0.000000 -0.000000 0.159207 -0.000000 0.000000
 29 -0.000001 -1.940599 5.000002 -0.044472 0.004003 -0.000180
 30 6.551491 -0.000000 -0.000001 -0.383135 0.094356 -1.624711
 31 -0.000000 -1.940599 5.000002 -0.027189 -0.053376 0.005295
 32 6.551491 -0.000000 -0.000001 -0.111847 0.091327 -0.526922
 33 0.000000 -1.940599 4.999996 -0.066572 -0.152786 -0.110311
 34 0.311856 -0.283945 -1.680005 1.797941 1.002414 -1.054077
 35 6.384776 -0.000001 -0.000003 0.899199 0.267177 -1.489532
 36 10.242682 -0.000000 0.000001 -0.000000 0.000000 -0.002367
 37 11.375562 0.000001 0.000002 2.662378 0.233408 0.117049
 38 0.728680 0.023431 1.008293 -1.539000 -0.370199 0.101110
 39 2.136500 -0.000001 0.000000 -0.000000 0.000000 0.287979
 40 2.313137 0.000001 -0.000000 0.000000 0.000000 3.141593
 41 3.115505 -0.886041 0.021432 0.495459 0.148146 0.639838
 42 2.011150 0.000001 0.000000 -0.000000 0.000000 2.038377
 43 2.141380 -0.000001 -0.000001 0.000000 0.000000 3.141593
 44 1.734172 -0.000002 -0.000002 0.000000 0.000000 1.019987
 45 0.136315 -3.738193 2.525889 1.493698 2.759406 -1.474501
 46 5.031112 -0.189688 1.849662 -2.967941 -0.035742 1.570790
 47 11.389365 -0.000819 0.158781 2.108670 0.149581 0.028123
 48 0.000001 -4.440598 -0.000003 1.570144 -3.078602 0.004040
 49 5.999999 0.000001 0.000001 2.108670 0.000000 0.000000
 50 0.000001 -4.440601 -0.000000 1.569944 -3.078603 0.004053
 51 10.510131 -0.000000 0.000001 -0.000000 -0.000000 -1.571980
 52 0.000001 -1.748399 -5.000001 3.141593 0.004007 -1.539299
 53 5.499999 -0.000001 0.000000 -0.296434 -0.000000 -0.000000
 54 -0.000000 -0.000001 -5.000002 -0.044472 3.137589 -0.000177
 55 6.551490 -0.000001 -0.000000 0.296434 -0.040999 -0.425954
 56 -1.266843 -1.937444 -4.950558 -0.066572 -2.988806 -0.110308
 57 6.551491 -0.000000 -0.000004 0.296434 -0.040999 -0.425954
 58 0.699371 -1.944208 -5.006847 -0.027189 -3.088217 0.005298
 59 4.226149 -0.003202 -0.000000 0.090690 0.089065 -0.169442
 60 -0.000001 5.000000 -0.000001 -0.153564 0.000087 2.718702
 61 0.000004 -0.000004 -3.713580 0.365818 2.880119 -0.191589
 62 0.000002 -0.000000 5.000000 3.053196 1.558589 -0.074928
 63 -0.000007 0.000006 3.713580 -0.001619 -3.122277 -0.475127
 64 0.000002 -0.000001 -5.000000 -0.088726 1.558589 3.066334
 65 7.363602 1.646647 0.495663 3.141593 -1.570796 0.000000
 66 -0.000005 0.000007 3.619081 0.008255 -3.110080 -0.985231
 67 16.573919 0.000002 0.000000 0.000000 -0.000000 -1.065827
 68 15.128181 0.000000 -0.000000 -0.102296 0.010178 0.114297
 69 5.758665 4.244730 0.000000 0.000000 0.000000 1.667687
 70 3.177725 0.000000 -0.000000 0.000000 0.000000 3.141593
 71 15.708953 0.000001 0.000000 -0.051525 0.003996 0.061523
 72 0.275148 0.189215 -3.445207 3.130898 0.000409 -1.514604
 73 17.210192 0.000001 0.000000 0.000000 -0.000000 -1.893339
 74 0.000001 -0.000000 -5.000000 -0.079430 1.546568 -1.570855
 75 0.000002 -0.000003 -3.619081 0.577895 2.675801 -0.242118
 76 16.573921 -0.000001 -0.000002 -0.000000 -0.000000 -1.163030
 77 15.128181 0.000001 0.000001 0.089479 0.309197 0.659208
 78 5.758666 4.244730 -0.000001 -0.000000 -0.000000 1.815142
 79 4.003934 -0.000000 0.000001 0.000000 0.000000 0.000000
 80 15.708954 0.000001 0.000002 0.042277 0.226871 0.443133
 81 0.273998 0.191089 3.439762 -3.130907 -0.000437 -1.508107
 82 17.210194 -0.000001 -0.000002 0.000000 -0.000000 -1.937080
 83 -0.000000 -0.000001 5.000000 -0.079319 1.595025 -1.570742
time 5
  0 -0.650000 0.000000 33.899605 -0.025849 0.174554 -1.569172
  1 5.685104 0.833236 -32.227173 -0.174512 -0.026131 1.569196
  2 -2.276935 0.000003 -1.238188 -1.570795 -1.570451 0.000000
  3 1.796886 0.711878 0.000675 -0.242639 -0.534544 0.047023
  4 4.119008 -0.003183 0.000680 -0.211215 0.137846 0.096683
  5 4.119006 -0.003183 0.000680 -0.215096 0.234840 0.075356
  6 4.119591 -0.003053 0.000674 -0.210265 0.178728 0.275392
  7 4.117485 -0.003305 -0.000587 0.169482 0.180969 -0.296197
  8 4.443597 0.000000 0.000000 -0.915615 0.474352 0.147429
  9 9.024058 0.000000 -0.000000 0.000000 0.000000 0.000000
 10 -0.311858 0.291022 1.680006 1.916626 -1.277710 1.500467
 11 6.384776 0.000000 0.000001 -0.397853 0.057947 -1.954309
 12 10.242681 0.000000 0.000000 -0.000000 -0.000000 -1.094639
 13 11.375560 -0.000002 0.000003 -2.927613 0.166597 -0.076948
 14 0.728681 0.023431 -1.008292 2.038136 0.634976 1.094199
 15 2.136498 -0.000001 0.000000 0.000000 -0.000000 0.287979
 16 2.313139 -0.000001 0.000000 0.000000 0.000000 0.000000
 17 3.115507 -0.886041 -0.021431 -0.896369 -0.152156 0.318147
 18 2.011151 0.000001 0.000000 -0.000000 0.000000 0.720653
 19 2.141379 0.000000 0.000000 0.000000 0.000000 0.000000
 20 1.734172 0.000001 0.000000 0.000000 0.000000 0.360540
 21 0.000006 -4.440595 0.000001 1.570544 -0.062990 -0.195737
 22 6.000000 -0.000001 0.000002 -2.629672 -0.000000 0.000000
 23 0.000002 -4.440601 -0.000000 1.569944 -0.062987 0.004053
 24 11.375560 -0.000001 0.000004 -2.244222 0.110376 -0.009149
 25 -0.000001 -4.440601 0.000002 1.570144 -0.062988 0.004040
 26 10.510130 -0.000000 0.000002 0.000000 -0.000000 -2.118116
 27 0.000000 -1.748401 5.000000 0.000000 0.004007 1.602291
 28 5.500000 -0.000000 -0.000000 0.159207 -0.000000 0.000000
 29 -0.000001 -1.940599 5.000002 -0.044472 0.004003 -0.000180
 30 6.551491 -0.000000 -0.000001 -0.383135 0.094356 -1.624711
 31 -0.000000 -1.940599 5.000002 -0.027189 -0.053376 0.005295
 32 6.551491 -0.000000 -0.000001 -0.111847 0.091327 -0.526922
 33 0.000000 -1.940599 4.999996 -0.066572 -0.152786 -0.110311
 34 0.311856 -0.283945 -1.680005 1.797941 1.002414 -1.054077
 35 6.384776 -0.000001 -0.000003 0.899199 0.267177 -1.489532
 36 10.242682 -0.000000 0.000001 -0.000000 0.000000 -0.002367
 37 11.375562 0.000001 0.000002 2.662378 0.233408 0.117049
 38 0.728680 0.023431 1.008293 -1.539000 -0.370199 0.101110
 39 2.136500 -0.000001 0.000000 -0.000000 0.000000 0.287979
 40 2.313137 0.000001 -0.000000 0.000000 0.000000 3.141593
 41 3.115505 -0.886041 0.021432 0.495459 0.148146 0.639838
 42 2.011150 0.000001 0.000000 -0.000000 0.000000 2.038377
 43 2.141380 -0.000001 -0.000001 0.000000 0.000000 3.141593
 44 1.734172 -0.000002 -0.000002 0.000000 0.000000 1.019987
 45 0.136315 -3.738193 2.525889 1.493698 2.759406 -1.474501
 46 5.031112 -0.189688 1.849662 -2.967941 -0.035742 1.570790
 47 11.389365 -0.000819 0.158781 2.108670 0.149581 0.028123
 48 0.000001 -4.440598 -0.000003 1.570144 -3.078602 0.004040
 49 5.999999 0.000001 0.000001 2.108670 0.000000 0.000000
 50 0.000001 -4.440601 -0.000000 1.569944 -3.078603 0.004053
 51 10.510131 -0.000000 0.000001 -0.000000 -0.000000 -1.571980
 52 0.000001 -1.748399 -5.000001 3.141593 0.004007 -1.539299
 53 5.499999 -0.000001 0.000000 -0.296434 -0.000000 -0.000000
 54 -0.000000 -0.000001 -5.000002 -0.044472 3.137589 -0.000177
 55 6.551490 -0.000001 -0.000000 0.296434 -0.040999 -0.425954
 56 -1.266843 -1.937444 -4.950558 -0.066572 -2.988806 -0.110308
 57 6.551491 -0.000000 -0.000004 0.296434 -0.040999 -0.425954
 58 0.699371 -1.944208 -5.006847 -0.027189 -3.088217 0.005298
 59 4.226149 -0.003202 -0.000000 0.090690 0.089065 -0.169442
 60 -0.000001 5.000000 -0.000001 -0.153564 0.000087 2.718702
 61 0.000004 -0.000004 -3.713580 0.365818 2.880119 -0.191589
 62 0.000002 -0.000000 5.000000 3.053196 1.558589 -0.074928
 63 -0.000007 0.000006 3.713580 -0.001619 -3.122277 -0.475127
 64 0.000002 -0.000001 -5.000000 -0.088726 1.558589 3.066334
 65 7.363602 1.646647 0.495663 3.141593 -1.570796 0.000000
 66 -0.000005 0.000007 3.619081 0.008255 -3.110080 -0.985231
 67 16.573919 0.000002 0.000000 0.000000 -0.000000 -1.065827
 68 15.128181 0.000000 -0.000000 -0.102296 0.010178 0.114297
 69 5.758665 4.244730 0.000000 0.000000 0.000000 1.667687
 70 3.177725 0.000000 -0.000000 0.000000 0.000000 3.141593
 71 15.708953 0.000001 0.000000 -0.051525 0.003996 0.061523
 72 0.275148 0.189215 -3.445207 3.130898 0.000409 -1.514604
 73 17.210192 0.000001 0.000000 0.000000 -0.000000 -1.893339
 74 0.000001 -0.000000 -5.000000 -0.079430 1.546568 -1.570855
 75 0.000002 -0.000003 -3.619081 0.577895 2.675801 -0.242118
 76 16.573921 -0.000001 -0.000002 -0.000000 -0.000000 -1.163030
 77 15.128181 0.000001 0.000001 0.089479 0.309197 0.659208
 78 5.758666 4.244730 -0.000001 -0.000000 -0.000000 1.815142
 79 4.003934 -0.000000 0.000001 0.000000 0.000000 0.000000
 80 15.708954 0.000001 0.000002 0.042277 0.226871 0.443133
 81 0.273998 0.191089 3.439762 -3.130907 -0.000437 -1.508107
 82 17.210194 -0.000001 -0.000002 0.000000 -0.000000 -1.937080
 83 -0.000000 -0.000001 5.000000 -0.079319 1.595025 -1.570742
time 6
  0 -0.650000 0.000000 33.899605 -0.025849 0.174554 -1.569172
  1 5.685104 0.833236 -32.227173 -0.174512 -0.026131 1.569196
  2 -2.276935 0.000003 -1.238188 -1.570795 -1.570451 0.000000
  3 1.796886 0.711878 0.000675 -0.242639 -0.534544 0.047023
  4 4.119008 -0.003183 0.000680 -0.211215 0.137846 0.096683
  5 4.119006 -0.003183 0.000680 -0.215096 0.234840 0.075356
  6 4.119591 -0.003053 0.000674 -0.210265 0.178728 0.275392
  7 4.117485 -0.003305 -0.000587 0.169482 0.180969 -0.296197
  8 4.443597 0.000000 0.000000 -0.915615 0.474352 0.147429
  9 9.024058 0.000000 -0.000000 0.000000 0.000000 0.000000
 10 -0.311858 0.291022 1.680006 1.916626 -1.277710 1.500467
 11 6.384776 0.000000 0.000001 -0.397853 0.057947 -1.954309
 12 10.242681 0.000000 0.000000 -0.000000 -0.000000 -1.094639
 13 11.375560 -0.000002 0.000003 -2.927613 0.166597 -0.076948
 14 0.728681 0.023431 -1.008292 2.038136 0.634976 1.094199
 15 2.136498 -0.000001 0.000000 0.000000 -0.000000 0.287979
 16 2.313139 -0.000001 0.000000 0.000000 0.000000 0.000000
 17 3.115507 -0.886041 -0.021431 -0.896369 -0.152156 0.318147
 18 2.011151 0.000001 0.000000 -0.000000 0.000000 0.720653
 19 2.141379 0.000000 0.000000 0.000000 0.000000 0.000000
 20 1.734172 0.000001 0.000000 0.000000 0.000000 0.360540
 21 0.000006 -4.440595 0.000001 1.570544 -0.062990 -0.195737
 22 6.000000 -0.000001 0.000002 -2.629672 -0.000000 0.000000
 23 0.000002 -4.440601 -0.000000 1.569944 -0.062987 0.004053
 24 11.375560 -0.000001 0.000004 -2.244222 0.110376 -0.009149
 25 -0.000001 -4.440601 0.000002 1.570144 -0.062988 0.004040
 26 10.510130 -0.000000 0.000002 0.000000 -0.000000 -2.118116
 27 0.000000 -1.748401 5.000000 0.000000 0.004007 1.602291
 28 5.500000 -0.000000 -0.000000 0.159207 -0.000000 0.000000
 29 -0.000001 -1.940599 5.000002 -0.044472 0.004003 -0.000180
 30 6.551491 -0.000000 -0.000001 -0.383135 0.094356 -1.624711
 31 -0.000000 -1.940599 5.000002 -0.027189 -0.053376 0.005295
 32 6.551491 -0.000000 -0.000001 -0.111847 0.091327 -0.526922
 33 0.000000 -1.940599 4.999996 -0.066572 -0.152786 -0.110311
 34 0.311856 -0.283945 -1.680005 1.797941 1.002414 -1.054077
 35 6.384776 -0.000001 -0.000003 0.899199 0.267177 -1.489532
 36 10.242682 -0.000000 0.000001 -0.000000 0.000000 -0.002367
 37 11.375562 0.000001 0.000002 2.662378 0.233408 0.117049
 38 0.728680 0.023431 1.008293 -1.539000 -0.370199 0.101110
 39 2.136500 -0.000001 0.000000 -0.000000 0.000000 0.287979
 40 2.313137 0.000001 -0.000000 0.000000 0.000000 3.141593
 41 3.115505 -0.886041 0.021432 0.495459 0.148146 0.639838
 42 2.011150 0.000001 0.000000 -0.000000 0.000000 2.038377
 43 2.141380 -0.000001 -0.000001 0.000000 0.000000 3.141593
 44 1.734172 -0.000002 -0.000002 0.000000 0.000000 1.019987
 45 0.136315 -3.738193 2.525889 1.493698 2.759406 -1.474501
 46 5.031112 -0.189688 1.849662 -2.967941 -0.035742 1.570790
 47 11.389365 -0.000819 0.158781 2.108670 0.149581 0.028123
 48 0.000001 -4.440598 -0.000003 1.570144 -3.078602 0.004040
 49 5.999999 0.000001 0.000001 2.108670 0.000000 0.000000
 50 0.000001 -4.440601 -0.000000 1.569944 -3.078603 0.004053
 51 10.510131 -0.000000 0.000001 -0.000000 -0.000000 -1.571980
 52 0.000001 -1.748399 -5.000001 3.141593 0.004007 -1.539299
 53 5.499999 -0.000001 0.000000 -0.296434 -0.000000 -0.000000
 54 -0.000000 -0.000001 -5.000002 -0.044472 3.137589 -0.000177
 55 6.551490 -0.000001 -0.000000 0.296434 -0.040999 -0.425954
 56 -1.266843 -1.937444 -4.950558 -0.066572 -2.988806 -0.110308
 57 6.551491 -0.000000 -0.000004 0.296434 -0.040999 -0.425954
 58 0.699371 -1.944208 -5.006847 -0.027189 -3.088217 0.005298
 59 4.226149 -0.003202 -0.000000 0.090690 0.089065 -0.169442
 60 -0.000001 5.000000 -0.000001 -0.153564 0.000087 2.718702
 61 0.000004 -0.000004 -3.713580 0.365818 2.880119 -0.191589
 62 0.000002 -0.000000 5.000000 3.053196 1.558589 -0.074928
 63 -0.000007 0.000006 3.713580 -0.001619 -3.122277 -0.475127
 64 0.000002 -0.000001 -5.000000 -0.088726 1.558589 3.066334
 65 7.363602 1.646647 0.495663 3.141593 -1.570796 0.000000
 66 -0.000005 0.000007 3.619081 0.008255 -3.110080 -0.985231
 67 16.573919 0.000002 0.000000 0.000000 -0.000000 -1.065827
 68 15.128181 0.000000 -0.000000 -0.102296 0.010178 0.114297
 69 5.758665 4.244730 0.000000 0.000000 0.000000 1.667687
 70 3.177725 0.000000 -0.000000 0.000000 0.000000 3.141593
 71 15.708953 0.000001 0.000000 -0.051525 0.003996 0.061523
 72 0.275148 0.189215 -3.445207 3.130898 0.000409 -1.514604
 73 17.210192 0.000001 0.000000 0.000000 -0.000000 -1.893339
 74 0.000001 -0.000000 -5.000000 -0.079430 1.546568 -1.570855
 75 0.000002 -0.000003 -3.619081 0.577895 2.675801 -0.242118
 76 16.573921 -0.000001 -0.000002 -0.000000 -0.000000 -1.163030
 77 15.128181 0.000001 0.000001 0.089479 0.309197 0.659208
 78 5.758666 4.244730 -0.000001 -0.000000 -0.000000 1.815142
 79 4.003934 -0.000000 0.000001 0.000000 0.000000 0.000000
 80 15.708954 0.000001 0.000002 0.042277 0.226871 0.443133
 81 0.273998 0.191089 3.439762 -3.130907 -0.000437 -1.508107
 82 17.210194 -0.000001 -0.000002 0.000000 -0.000000 -1.937080
 83 -0.000000 -0.000001 5.000000 -0.079319 1.595025 -1.570742
end
