version 1
nodes
  0 "Bip01"  -1
  1 "Bip01 Footsteps"   0
  2 "Bip01 Pelvis"   0
  3 "Bip01 Spine"   2
  4 "Bip01 Spine1"   3
  5 "Bip01 Spine2"   4
  6 "Bip01 Spine3"   5
  7 "Bip01 Neck"   6
  8 "Bip01 Head"   7
  9 "Dummy21"   8
 10 "Bip01 L Clavicle"   7
 11 "Bip01 L UpperArm"  10
 12 "Bip01 L Forearm"  11
 13 "Bip01 L Hand"  12
 14 "Bip01 L Finger0"  13
 15 "Bip01 L Finger01"  14
 16 "Dummy06"  15
 17 "Bip01 L Finger1"  13
 18 "Bip01 L Finger11"  17
 19 "Dummy03"  18
 20 "-- L knuckle"  17
 21 "-- L knuckle_end"  20
 22 "-- L Forearm twist"  12
 23 "-- L Forearm twist_end"  22
 24 "-- L wrist"  12
 25 "-- L wrist_end"  24
 26 "-- L Elbow"  11
 27 "--L Elbow_end"  26
 28 "-- L bicep twist"  11
 29 "-- L bicep twist_end"  28
 30 "-- L shoulder outside"  10
 31 "-- L shoulder outside_end"  30
 32 "-- L Shoulder inside"  10
 33 "-- L Shoulder inside_end"  32
 34 "Bip01 R Clavicle"   7
 35 "Bip01 R UpperArm"  34
 36 "Bip01 R Forearm"  35
 37 "Bip01 R Hand"  36
 38 "Bip01 R Finger0"  37
 39 "Bip01 R Finger01"  38
 40 "Dummy01"  39
 41 "Bip01 R Finger1"  37
 42 "Bip01 R Finger11"  41
 43 "Dummy02"  42
 44 "-- R knuckle"  41
 45 "Point06"  44
 46 "Beretta Elite"  37
 47 "-- R wrist"  36
 48 "-- R wrist_end"  47
 49 "-- R forearm twist"  36
 50 "-- R forearm twist_end"  49
 51 "-- R Elbow"  35
 52 "--R Elbow_end"  51
 53 "-- R bicep twist"  35
 54 "-- R bicep twist_end"  53
 55 "-- R Shoulder inside"  34
 56 "-- R Shoulder inside_end"  55
 57 "-- R shoulder outside"  34
 58 "-- R shoulder outside_end"  57
 59 "-- Neck smooth"   6
 60 "-- neck smooth end"  59
 61 "-- R Butt"   2
 62 "--R Butt_end"  61
 63 "-- L butt"   2
 64 "--L butt_end"  63
 65 "GIGN01"   2
 66 "Bip01 L Thigh"   2
 67 "Bip01 L Calf"  66
 68 "Bip01 L Foot"  67
 69 "Bip01 L Toe0"  68
 70 "Dummy16"  69
 71 "-- L ankle"  67
 72 "-- L ankleend"  71
 73 "-- L Knee"  66
 74 "--L Knee_end"  73
 75 "Bip01 R Thigh"   2
 76 "Bip01 R Calf"  75
 77 "Bip01 R Foot"  76
 78 "Bip01 R Toe0"  77
 79 "Dummy11"  78
 80 "-- R Ankle"  76
 81 "-- R ankleend"  80
 82 "-- R Knee"  75
 83 "--R Knee_end"  82
end
skeleton
time 0
  0 -0.650000 0.000000 33.899605 -0.025849 0.174554 -1.569172
  1 5.685104 0.833236 -32.227173 -0.174512 -0.026131 1.569196
  2 -2.276935 0.000003 -1.238188 -1.570795 -1.570451 0.000000
  3 1.796575 0.711958 0.000841 -0.260462 -0.053574 -0.165119
  4 4.118839 -0.003134 0.000939 -0.290365 0.023306 0.068432
  5 4.120441 -0.002510 0.001037 -0.347370 0.380275 0.498656
  6 4.119427 -0.003036 0.000930 -0.295704 0.235074 0.194705
  7 4.117373 -0.003250 0.000667 -0.200825 0.337935 -0.428109
  8 4.443599 -0.000001 0.000000 -0.017161 -0.016787 0.939186
  9 9.024061 -0.000002 0.000001 0.000000 0.000000 0.000000
 10 -0.574461 -0.322558 1.601866 -1.481455 -1.750615 -1.352672
 11 6.384776 0.000003 0.000002 -1.311562 0.516198 -1.680369
 12 10.242682 0.000001 -0.000000 0.000000 0.000000 -1.017110
 13 11.375561 -0.000001 -0.000002 -2.430017 0.292457 -0.035525
 14 0.728681 0.023431 -1.008292 2.038136 0.634976 1.094199
 15 2.136498 -0.000000 0.000001 0.000000 0.000000 0.287979
 16 2.313139 -0.000001 -0.000001 0.000000 0.000000 0.000000
 17 3.115506 -0.886040 -0.021430 -0.896369 -0.152156 0.318147
 18 2.011151 -0.000002 0.000000 0.000000 -0.000000 0.720653
 19 2.141380 0.000000 0.000000 0.000000 0.000000 0.000000
 20 1.734172 -0.000002 -0.000000 0.000000 0.000000 0.360540
 21 0.000005 -4.440596 0.000001 1.570544 -0.062990 -0.195737
 22 6.000000 -0.000001 -0.000001 -2.220992 -0.000000 0.000000
 23 0.000002 -4.440603 -0.000001 1.569944 -0.062987 0.004053
 24 11.375562 -0.000001 0.000002 -1.993403 0.167079 0.016890
 25 -0.000001 -4.440604 0.000000 1.570144 -0.062988 0.004040
 26 10.510131 0.000001 -0.000001 -0.000000 0.000000 -2.079351
 27 -0.000000 -1.748400 4.999999 0.000000 0.004007 1.602290
 28 5.500000 0.000000 -0.000001 0.244924 -0.000000 -0.000000
 29 -0.000001 -1.940597 5.000000 -0.044472 0.004003 -0.000180
 30 6.551491 0.000001 0.000000 -0.778301 0.663731 -1.217592
 31 -0.000000 -1.940598 5.000000 -0.027189 -0.053376 0.005295
 32 6.551491 0.000001 0.000000 -0.171526 0.354917 -0.374078
 33 0.000000 -1.940600 4.999997 -0.066572 -0.152786 -0.110311
 34 0.574468 0.329632 -1.601865 2.226438 0.789283 -0.640989
 35 6.384776 0.000001 0.000001 0.339762 -0.093113 -1.843427
 36 10.242682 0.000001 0.000003 0.000000 0.000000 -1.157035
 37 11.375562 -0.000001 -0.000002 2.955024 0.256081 0.802978
 38 0.728681 0.023431 1.008290 -1.539000 -0.370199 0.101110
 39 2.136498 -0.000001 -0.000000 -0.000000 0.000000 0.287979
 40 2.313139 0.000001 -0.000000 0.000000 0.000000 3.141593
 41 3.115505 -0.886041 0.021432 0.495459 0.148146 0.639838
 42 2.011151 -0.000001 -0.000002 0.000000 -0.000000 2.038377
 43 2.141380 -0.000000 0.000003 0.000000 0.000000 3.141593
 44 1.734172 -0.000002 -0.000001 0.000000 -0.000000 1.019987
 45 0.136315 -3.738193 2.525889 1.493698 2.759406 -1.474501
 46 5.031112 -0.189688 1.849662 -2.967941 -0.035742 1.570790
 47 11.389368 -0.000818 0.158782 2.227448 0.274186 0.344833
 48 -0.000002 -4.440599 0.000000 1.570144 -3.078602 0.004040
 49 6.000000 0.000001 -0.000000 2.227448 -0.000000 0.000000
 50 0.000002 -4.440602 -0.000001 1.569944 -3.078603 0.004053
 51 10.510129 0.000001 0.000002 -0.000000 -0.000000 -2.149314
 52 0.000000 -1.748401 -5.000003 -3.141593 0.004007 -1.539299
 53 5.500001 0.000001 0.000003 -0.102608 -0.000000 0.000000
 54 -0.000001 0.000000 -4.999998 -0.044472 3.137589 -0.000177
 55 6.551491 0.000002 -0.000001 0.102608 -0.095268 -0.527599
 56 -1.266843 -1.937445 -4.950560 -0.066572 -2.988806 -0.110308
 57 6.551492 0.000001 -0.000000 0.102608 -0.095268 -0.527599
 58 0.699371 -1.944209 -5.006847 -0.027189 -3.088217 0.005298
 59 4.226145 -0.003203 0.000000 -0.082668 0.182836 -0.218845
 60 -0.000001 5.000000 -0.000000 -0.153564 0.000087 2.718702
 61 0.000004 -0.000004 -3.713580 0.365818 2.880119 -0.191589
 62 0.000002 -0.000000 5.000000 3.053196 1.558589 -0.074928
 63 -0.000007 0.000006 3.713580 -0.001619 -3.122277 -0.475127
 64 0.000002 -0.000001 -5.000000 -0.088726 1.558589 3.066334
 65 7.363602 1.646647 0.495663 3.141593 -1.570796 0.000000
 66 -0.000005 0.000007 3.619081 0.008255 -3.110080 -0.985231
 67 16.573919 0.000002 0.000000 0.000000 -0.000000 -1.065827
 68 15.128181 0.000000 -0.000000 -0.102296 0.010178 0.114297
 69 5.758665 4.244730 0.000000 0.000000 0.000000 1.667687
 70 3.177725 0.000000 -0.000000 0.000000 0.000000 3.141593
 71 15.708953 0.000001 0.000000 -0.051525 0.003996 0.061523
 72 0.275148 0.189215 -3.445207 3.130898 0.000409 -1.514604
 73 17.210192 0.000001 0.000000 0.000000 -0.000000 -1.893339
 74 0.000001 -0.000000 -5.000000 -0.079430 1.546568 -1.570855
 75 0.000002 -0.000003 -3.619081 0.577895 2.675801 -0.242118
 76 16.573921 -0.000001 -0.000002 -0.000000 -0.000000 -1.163030
 77 15.128181 0.000001 0.000001 0.089479 0.309197 0.659208
 78 5.758666 4.244730 -0.000001 -0.000000 -0.000000 1.815142
 79 4.003934 -0.000000 0.000001 0.000000 0.000000 0.000000
 80 15.708954 0.000001 0.000002 0.042277 0.226871 0.443133
 81 0.273998 0.191089 3.439762 -3.130907 -0.000437 -1.508107
 82 17.210194 -0.000001 -0.000002 0.000000 -0.000000 -1.937080
 83 -0.000000 -0.000001 5.000000 -0.079319 1.595025 -1.570742
time 1
  0 -0.650000 0.000000 33.899605 -0.025849 0.174554 -1.569172
  1 5.685104 0.833236 -32.227173 -0.174512 -0.026131 1.569196
  2 -2.276935 0.000003 -1.238188 -1.570795 -1.570451 0.000000
  3 1.796575 0.711943 0.000786 -0.242882 -0.045214 -0.167586
  4 4.118834 -0.003150 0.000884 -0.272981 0.031586 0.065718
  5 4.120433 -0.002537 0.000987 -0.331200 0.388385 0.495220
  6 4.119502 -0.003041 0.000836 -0.266138 0.251839 0.219932
  7 4.117376 -0.003251 0.000666 -0.200825 0.337935 -0.428109
  8 4.443598 -0.000001 0.000000 -0.078471 0.012019 0.840385
  9 9.024061 0.000002 -0.000001 0.000000 0.000000 0.000000
 10 -0.574462 -0.322558 1.601866 -1.481455 -1.750615 -1.352672
 11 6.384776 -0.000000 -0.000000 -1.287048 0.389060 -1.721391
 12 10.242683 0.000002 -0.000000 -0.000000 -0.000000 -0.915165
 13 11.375562 0.000000 -0.000001 -2.430705 0.291234 -0.041691
 14 0.728680 0.023433 -1.008291 2.038137 0.634976 1.094199
 15 2.136497 -0.000000 -0.000001 0.000000 0.000000 0.287979
 16 2.313138 0.000000 -0.000000 0.000000 0.000000 0.000000
 17 3.115507 -0.886041 -0.021430 -0.896369 -0.152156 0.318147
 18 2.011151 -0.000001 -0.000000 0.000000 0.000000 0.720653
 19 2.141380 -0.000001 -0.000000 0.000000 0.000000 0.000000
 20 1.734172 0.000001 0.000001 -0.000000 0.000000 0.360540
 21 0.000006 -4.440596 -0.000001 1.570544 -0.062990 -0.195737
 22 6.000000 -0.000002 -0.000000 -2.221579 -0.000000 -0.000000
 23 0.000002 -4.440601 0.000002 1.569944 -0.062987 0.004053
 24 11.375563 0.000001 0.000002 -1.993643 0.167170 0.013351
 25 -0.000001 -4.440603 0.000001 1.570144 -0.062988 0.004040
 26 10.510131 0.000001 -0.000000 0.000000 0.000000 -2.028379
 27 0.000001 -1.748401 4.999998 -0.000000 0.004007 1.602291
 28 5.499998 0.000001 0.000000 0.272452 -0.000000 -0.000000
 29 -0.000001 -1.940599 5.000000 -0.044472 0.004003 -0.000180
 30 6.551490 -0.000002 -0.000002 -0.834592 0.581785 -1.324829
 31 0.000003 -1.940599 5.000000 -0.027189 -0.053376 0.005295
 32 6.551490 -0.000002 -0.000002 -0.190119 0.331282 -0.404723
 33 0.000000 -1.940599 4.999993 -0.066572 -0.152786 -0.110311
 34 0.574465 0.329632 -1.601866 2.242884 0.788070 -0.618754
 35 6.384775 0.000000 -0.000001 0.377996 -0.063217 -1.763306
 36 10.242684 0.000000 0.000004 -0.000000 0.000000 -1.165021
 37 11.375560 -0.000002 0.000001 2.957361 0.202466 0.813257
 38 0.728680 0.023431 1.008291 -1.539000 -0.370199 0.101110
 39 2.136496 0.000005 -0.000000 -0.000000 0.000000 0.287979
 40 2.313139 -0.000001 0.000000 0.000000 0.000000 3.141593
 41 3.115507 -0.886041 0.021428 0.495459 0.148146 0.639838
 42 2.011149 0.000001 -0.000001 0.000000 -0.000000 2.038377
 43 2.141381 -0.000000 0.000000 0.000000 0.000000 3.141593
 44 1.734172 0.000000 0.000000 -0.000000 0.000000 1.019987
 45 0.136315 -3.738192 2.525892 1.493698 2.759406 -1.474501
 46 5.031112 -0.189688 1.849663 -2.967941 -0.035742 1.570790
 47 11.389366 -0.000820 0.158783 2.236475 0.250451 0.362019
 48 0.000000 -4.440598 -0.000002 1.570144 -3.078602 0.004040
 49 6.000000 -0.000001 0.000001 2.236475 -0.000000 0.000000
 50 0.000002 -4.440602 0.000000 1.569944 -3.078603 0.004053
 51 10.510133 0.000000 0.000005 0.000000 -0.000000 -2.153307
 52 0.000000 -1.748401 -5.000001 3.141593 0.004007 -1.539299
 53 5.500000 0.000000 0.000002 -0.123439 -0.000000 -0.000000
 54 -0.000003 0.000000 -5.000000 -0.044472 3.137589 -0.000177
 55 6.551489 -0.000001 0.000001 0.123439 -0.098711 -0.518785
 56 -1.266843 -1.937440 -4.950561 -0.066572 -2.988806 -0.110308
 57 6.551489 -0.000001 0.000001 0.123439 -0.098711 -0.518785
 58 0.699371 -1.944206 -5.006847 -0.027189 -3.088217 0.005298
 59 4.226145 -0.003201 -0.000000 -0.082668 0.182836 -0.218845
 60 -0.000002 5.000001 -0.000000 -0.153564 0.000087 2.718702
 61 0.000004 -0.000004 -3.713580 0.365818 2.880119 -0.191589
 62 0.000002 -0.000000 5.000000 3.053196 1.558589 -0.074928
 63 -0.000007 0.000006 3.713580 -0.001619 -3.122277 -0.475127
 64 0.000002 -0.000001 -5.000000 -0.088726 1.558589 3.066334
 65 7.363602 1.646647 0.495663 3.141593 -1.570796 0.000000
 66 -0.000005 0.000007 3.619081 0.008255 -3.110080 -0.985231
 67 16.573919 0.000002 0.000000 0.000000 -0.000000 -1.065827
 68 15.128181 0.000000 -0.000000 -0.102296 0.010178 0.114297
 69 5.758665 4.244730 0.000000 0.000000 0.000000 1.667687
 70 3.177725 0.000000 -0.000000 0.000000 0.000000 3.141593
 71 15.708953 0.000001 0.000000 -0.051525 0.003996 0.061523
 72 0.275148 0.189215 -3.445207 3.130898 0.000409 -1.514604
 73 17.210192 0.000001 0.000000 0.000000 -0.000000 -1.893339
 74 0.000001 -0.000000 -5.000000 -0.079430 1.546568 -1.570855
 75 0.000002 -0.000003 -3.619081 0.577895 2.675801 -0.242118
 76 16.573921 -0.000001 -0.000002 -0.000000 -0.000000 -1.163030
 77 15.128181 0.000001 0.000001 0.089479 0.309197 0.659208
 78 5.758666 4.244730 -0.000001 -0.000000 -0.000000 1.815142
 79 4.003934 -0.000000 0.000001 0.000000 0.000000 0.000000
 80 15.708954 0.000001 0.000002 0.042277 0.226871 0.443133
 81 0.273998 0.191089 3.439762 -3.130907 -0.000437 -1.508107
 82 17.210194 -0.000001 -0.000002 0.000000 -0.000000 -1.937080
 83 -0.000000 -0.000001 5.000000 -0.079319 1.595025 -1.570742
time 2
  0 -0.650000 0.000000 33.899605 -0.025849 0.174554 -1.569172
  1 5.685104 0.833236 -32.227173 -0.174512 -0.026131 1.569196
  2 -2.276935 0.000003 -1.238188 -1.570795 -1.570451 0.000000
  3 1.796575 0.711930 0.000730 -0.225329 -0.036813 -0.169905
  4 4.118833 -0.003165 0.000829 -0.255614 0.039913 0.063148
  5 4.120425 -0.002564 0.000937 -0.315006 0.396546 0.491915
  6 4.119574 -0.003044 0.000740 -0.236014 0.267865 0.245772
  7 4.117375 -0.003250 0.000667 -0.200825 0.337935 -0.428109
  8 4.443600 -0.000001 0.000000 -0.141944 0.035605 0.739930
  9 9.024059 -0.000000 -0.000000 0.000000 0.000000 0.000000
 10 -0.574462 -0.322557 1.601865 -1.481455 -1.750615 -1.352673
 11 6.384777 0.000001 0.000001 -1.259783 0.257985 -1.767230
 12 10.242682 0.000002 0.000000 0.000000 0.000000 -0.802209
 13 11.375563 0.000001 0.000000 -2.430500 0.290158 -0.053363
 14 0.728681 0.023431 -1.008291 2.038136 0.634976 1.094199
 15 2.136494 0.000001 -0.000000 0.000000 0.000000 0.287979
 16 2.313139 -0.000002 -0.000000 0.000000 0.000000 0.000000
 17 3.115506 -0.886041 -0.021430 -0.896369 -0.152156 0.318147
 18 2.011150 0.000003 0.000001 -0.000000 -0.000000 0.720653
 19 2.141379 -0.000002 -0.000000 0.000000 0.000000 0.000000
 20 1.734172 0.000002 0.000001 -0.000000 0.000000 0.360540
 21 0.000006 -4.440597 -0.000002 1.570544 -0.062990 -0.195737
 22 6.000000 0.000000 0.000000 -2.221481 0.000000 0.000000
 23 0.000002 -4.440602 0.000000 1.569944 -0.062987 0.004053
 24 11.375562 0.000002 0.000002 -1.993306 0.167971 0.006746
 25 -0.000001 -4.440604 0.000004 1.570144 -0.062988 0.004040
 26 10.510134 0.000002 -0.000000 0.000000 -0.000000 -1.971901
 27 0.000001 -1.748402 5.000000 0.000000 0.004007 1.602291
 28 5.500003 0.000002 -0.000000 0.298477 0.000000 -0.000000
 29 -0.000002 -1.940598 5.000001 -0.044472 0.004003 -0.000180
 30 6.551491 -0.000002 -0.000001 -0.881389 0.481462 -1.431099
 31 0.000003 -1.940598 5.000000 -0.027189 -0.053376 0.005295
 32 6.551491 -0.000002 -0.000001 -0.207135 0.301068 -0.431349
 33 0.000000 -1.940597 4.999996 -0.066572 -0.152786 -0.110311
 34 0.574466 0.329633 -1.601866 2.259374 0.786592 -0.596588
 35 6.384776 0.000000 0.000000 0.420191 -0.036826 -1.682949
 36 10.242681 -0.000000 -0.000001 0.000000 0.000000 -1.173007
 37 11.375562 0.000001 -0.000001 2.959119 0.148830 0.823312
 38 0.728680 0.023431 1.008295 -1.539000 -0.370199 0.101110
 39 2.136497 0.000001 -0.000000 -0.000000 0.000000 0.287979
 40 2.313139 -0.000002 0.000000 0.000000 0.000000 3.141593
 41 3.115507 -0.886041 0.021433 0.495459 0.148146 0.639838
 42 2.011150 0.000000 0.000001 -0.000000 -0.000000 2.038377
 43 2.141378 -0.000001 0.000001 0.000000 0.000000 3.141593
 44 1.734172 -0.000001 0.000000 0.000000 -0.000000 1.019987
 45 0.136315 -3.738191 2.525891 1.493698 2.759406 -1.474501
 46 5.031115 -0.189688 1.849663 -2.967941 -0.035742 1.570790
 47 11.389367 -0.000819 0.158782 2.244779 0.226378 0.378694
 48 0.000001 -4.440598 -0.000003 1.570144 -3.078602 0.004040
 49 6.000000 -0.000000 -0.000001 2.244780 0.000000 -0.000000
 50 0.000002 -4.440601 0.000002 1.569944 -3.078603 0.004053
 51 10.510131 -0.000001 -0.000000 -0.000000 -0.000000 -2.157300
 52 0.000000 -1.748400 -5.000001 3.141593 0.004007 -1.539299
 53 5.499999 0.000000 -0.000002 -0.143584 -0.000000 -0.000000
 54 -0.000002 0.000001 -5.000001 -0.044472 3.137589 -0.000177
 55 6.551490 -0.000000 0.000001 0.143583 -0.101407 -0.501720
 56 -1.266844 -1.937444 -4.950561 -0.066572 -2.988806 -0.110308
 57 6.551491 -0.000000 0.000001 0.143583 -0.101407 -0.501720
 58 0.699370 -1.944208 -5.006847 -0.027189 -3.088217 0.005298
 59 4.226145 -0.003202 0.000001 -0.082668 0.182836 -0.218845
 60 -0.000001 5.000000 0.000000 -0.153564 0.000087 2.718702
 61 0.000004 -0.000004 -3.713580 0.365818 2.880119 -0.191589
 62 0.000002 -0.000000 5.000000 3.053196 1.558589 -0.074928
 63 -0.000007 0.000006 3.713580 -0.001619 -3.122277 -0.475127
 64 0.000002 -0.000001 -5.000000 -0.088726 1.558589 3.066334
 65 7.363602 1.646647 0.495663 3.141593 -1.570796 0.000000
 66 -0.000005 0.000007 3.619081 0.008255 -3.110080 -0.985231
 67 16.573919 0.000002 0.000000 0.000000 -0.000000 -1.065827
 68 15.128181 0.000000 -0.000000 -0.102296 0.010178 0.114297
 69 5.758665 4.244730 0.000000 0.000000 0.000000 1.667687
 70 3.177725 0.000000 -0.000000 0.000000 0.000000 3.141593
 71 15.708953 0.000001 0.000000 -0.051525 0.003996 0.061523
 72 0.275148 0.189215 -3.445207 3.130898 0.000409 -1.514604
 73 17.210192 0.000001 0.000000 0.000000 -0.000000 -1.893339
 74 0.000001 -0.000000 -5.000000 -0.079430 1.546568 -1.570855
 75 0.000002 -0.000003 -3.619081 0.577895 2.675801 -0.242118
 76 16.573921 -0.000001 -0.000002 -0.000000 -0.000000 -1.163030
 77 15.128181 0.000001 0.000001 0.089479 0.309197 0.659208
 78 5.758666 4.244730 -0.000001 -0.000000 -0.000000 1.815142
 79 4.003934 -0.000000 0.000001 0.000000 0.000000 0.000000
 80 15.708954 0.000001 0.000002 0.042277 0.226871 0.443133
 81 0.273998 0.191089 3.439762 -3.130907 -0.000437 -1.508107
 82 17.210194 -0.000001 -0.000002 0.000000 -0.000000 -1.937080
 83 -0.000000 -0.000001 5.000000 -0.079319 1.595025 -1.570742
time 3
  0 -0.650000 0.000000 33.899605 -0.025849 0.174554 -1.569172
  1 5.685104 0.833236 -32.227173 -0.174512 -0.026131 1.569196
  2 -2.276935 0.000003 -1.238188 -1.570795 -1.570451 0.000000
  3 1.796576 0.711917 0.000674 -0.207800 -0.028371 -0.172075
  4 4.118828 -0.003179 0.000774 -0.238263 0.048283 0.060721
  5 4.120412 -0.002589 0.000888 -0.298785 0.404756 0.488742
  6 4.119646 -0.003042 0.000642 -0.205335 0.283125 0.272218
  7 4.117375 -0.003251 0.000666 -0.200825 0.337935 -0.428109
  8 4.443598 -0.000000 0.000000 -0.207135 0.053805 0.638074
  9 9.024061 -0.000002 -0.000000 0.000000 0.000000 0.000000
 10 -0.574462 -0.322557 1.601866 -1.481456 -1.750615 -1.352672
 11 6.384777 0.000000 0.000001 -1.228515 0.120734 -1.820069
 12 10.242684 0.000002 -0.000000 0.000000 0.000000 -0.672698
 13 11.375562 0.000000 -0.000001 -2.429395 0.289140 -0.073111
 14 0.728681 0.023430 -1.008291 2.038136 0.634976 1.094199
 15 2.136496 -0.000001 -0.000001 0.000000 0.000000 0.287979
 16 2.313139 0.000002 -0.000000 0.000000 0.000000 0.000000
 17 3.115507 -0.886042 -0.021429 -0.896369 -0.152156 0.318147
 18 2.011150 -0.000000 0.000001 -0.000000 -0.000000 0.720653
 19 2.141378 -0.000001 -0.000001 0.000000 0.000000 0.000000
 20 1.734172 0.000001 0.000001 -0.000000 -0.000000 0.360540
 21 0.000006 -4.440594 -0.000000 1.570544 -0.062990 -0.195737
 22 5.999999 0.000001 -0.000001 -2.220711 0.000000 0.000000
 23 0.000002 -4.440601 -0.000000 1.569944 -0.062987 0.004053
 24 11.375560 0.000001 0.000002 -1.992333 0.169691 -0.004354
 25 -0.000000 -4.440604 0.000003 1.570144 -0.062988 0.004040
 26 10.510130 0.000001 -0.000001 0.000000 0.000000 -1.907145
 27 0.000001 -1.748401 4.999999 0.000000 0.004007 1.602291
 28 5.500000 0.000001 -0.000001 0.320310 -0.000000 -0.000000
 29 -0.000000 -1.940597 5.000001 -0.044472 0.004003 -0.000180
 30 6.551492 0.000001 0.000001 -0.912296 0.362422 -1.531870
 31 -0.000002 -1.940598 5.000002 -0.027189 -0.053376 0.005295
 32 6.551492 0.000001 0.000001 -0.220699 0.263596 -0.450837
 33 0.000001 -1.940600 4.999994 -0.066572 -0.152786 -0.110311
 34 0.574464 0.329633 -1.601866 2.275893 0.784848 -0.574506
 35 6.384777 -0.000001 0.000001 0.465991 -0.014249 -1.602357
 36 10.242682 0.000001 0.000001 -0.000000 -0.000000 -1.180993
 37 11.375562 0.000002 0.000003 2.960324 0.095180 0.833207
 38 0.728680 0.023431 1.008293 -1.539000 -0.370199 0.101110
 39 2.136495 0.000000 -0.000000 0.000000 0.000000 0.287979
 40 2.313140 0.000002 -0.000000 0.000000 0.000000 3.141593
 41 3.115506 -0.886041 0.021431 0.495459 0.148146 0.639838
 42 2.011149 0.000001 0.000001 0.000000 0.000000 2.038377
 43 2.141378 -0.000000 -0.000001 0.000000 0.000000 3.141593
 44 1.734171 -0.000001 -0.000000 -0.000000 -0.000000 1.019987
 45 0.136314 -3.738191 2.525890 1.493698 2.759406 -1.474501
 46 5.031113 -0.189688 1.849664 -2.967941 -0.035742 1.570790
 47 11.389367 -0.000818 0.158785 2.252395 0.202013 0.394872
 48 -0.000001 -4.440600 0.000000 1.570144 -3.078602 0.004040
 49 6.000001 0.000002 0.000002 2.252395 -0.000000 -0.000000
 50 0.000003 -4.440601 -0.000002 1.569944 -3.078603 0.004053
 51 10.510134 -0.000000 0.000002 -0.000000 -0.000000 -2.161293
 52 0.000000 -1.748400 -5.000001 3.141593 0.004007 -1.539299
 53 5.500002 0.000000 0.000000 -0.162392 0.000000 0.000000
 54 -0.000001 0.000001 -5.000000 -0.044472 3.137589 -0.000177
 55 6.551492 -0.000000 0.000001 0.162392 -0.100764 -0.474072
 56 -1.266844 -1.937443 -4.950560 -0.066572 -2.988806 -0.110308
 57 6.551492 -0.000001 0.000001 0.162392 -0.100764 -0.474072
 58 0.699370 -1.944207 -5.006847 -0.027189 -3.088217 0.005298
 59 4.226147 -0.003204 0.000000 -0.082668 0.182836 -0.218845
 60 0.000002 4.999999 0.000000 -0.153564 0.000087 2.718702
 61 0.000004 -0.000004 -3.713580 0.365818 2.880119 -0.191589
 62 0.000002 -0.000000 5.000000 3.053196 1.558589 -0.074928
 63 -0.000007 0.000006 3.713580 -0.001619 -3.122277 -0.475127
 64 0.000002 -0.000001 -5.000000 -0.088726 1.558589 3.066334
 65 7.363602 1.646647 0.495663 3.141593 -1.570796 0.000000
 66 -0.000005 0.000007 3.619081 0.008255 -3.110080 -0.985231
 67 16.573919 0.000002 0.000000 0.000000 -0.000000 -1.065827
 68 15.128181 0.000000 -0.000000 -0.102296 0.010178 0.114297
 69 5.758665 4.244730 0.000000 0.000000 0.000000 1.667687
 70 3.177725 0.000000 -0.000000 0.000000 0.000000 3.141593
 71 15.708953 0.000001 0.000000 -0.051525 0.003996 0.061523
 72 0.275148 0.189215 -3.445207 3.130898 0.000409 -1.514604
 73 17.210192 0.000001 0.000000 0.000000 -0.000000 -1.893339
 74 0.000001 -0.000000 -5.000000 -0.079430 1.546568 -1.570855
 75 0.000002 -0.000003 -3.619081 0.577895 2.675801 -0.242118
 76 16.573921 -0.000001 -0.000002 -0.000000 -0.000000 -1.163030
 77 15.128181 0.000001 0.000001 0.089479 0.309197 0.659208
 78 5.758666 4.244730 -0.000001 -0.000000 -0.000000 1.815142
 79 4.003934 -0.000000 0.000001 0.000000 0.000000 0.000000
 80 15.708954 0.000001 0.000002 0.042277 0.226871 0.443133
 81 0.273998 0.191089 3.439762 -3.130907 -0.000437 -1.508107
 82 17.210194 -0.000001 -0.000002 0.000000 -0.000000 -1.937080
 83 -0.000000 -0.000001 5.000000 -0.079319 1.595025 -1.570742
time 4
  0 -0.650000 0.000000 33.899605 -0.025849 0.174554 -1.569172
  1 5.685104 0.833236 -32.227173 -0.174512 -0.026131 1.569196
  2 -2.276935 0.000003 -1.238188 -1.570795 -1.570451 0.000000
  3 1.796572 0.711906 0.000618 -0.190293 -0.019893 -0.174096
  4 4.118833 -0.003192 0.000717 -0.220924 0.056693 0.058440
  5 4.120394 -0.002614 0.000838 -0.282535 0.413011 0.485704
  6 4.119716 -0.003037 0.000543 -0.174108 0.297590 0.299259
  7 4.117376 -0.003248 0.000666 -0.200825 0.337935 -0.428109
  8 4.443599 0.000000 -0.000000 -0.273552 0.066519 0.535130
  9 9.024059 -0.000001 -0.000001 0.000000 0.000000 0.000000
 10 -0.574462 -0.322556 1.601865 -1.481455 -1.750615 -1.352673
 11 6.384776 0.000001 -0.000000 -1.190979 -0.027927 -1.884318
 12 10.242680 -0.000000 0.000001 -0.000000 -0.000000 -0.514215
 13 11.375562 0.000003 -0.000001 -2.427398 0.288088 -0.106777
 14 0.728680 0.023431 -1.008293 2.038136 0.634975 1.094199
 15 2.136496 0.000001 -0.000001 0.000000 0.000000 0.287979
 16 2.313140 -0.000001 -0.000000 0.000000 0.000000 0.000000
 17 3.115506 -0.886042 -0.021431 -0.896369 -0.152156 0.318147
 18 2.011151 -0.000001 -0.000001 -0.000000 -0.000000 0.720653
 19 2.141380 0.000000 0.000001 0.000000 0.000000 0.000000
 20 1.734172 0.000001 0.000000 -0.000000 -0.000000 0.360540
 21 0.000006 -4.440593 0.000001 1.570544 -0.062990 -0.195737
 22 6.000000 -0.000000 -0.000000 -2.219303 -0.000000 -0.000000
 23 0.000002 -4.440601 -0.000000 1.569944 -0.062987 0.004053
 24 11.375563 0.000003 0.000002 -1.990582 0.172820 -0.023150
 25 -0.000002 -4.440602 -0.000002 1.570144 -0.062988 0.004040
 26 10.510132 0.000001 -0.000000 0.000000 -0.000000 -1.827904
 27 0.000002 -1.748402 4.999999 -0.000000 0.004007 1.602291
 28 5.499998 -0.000001 0.000001 0.336036 -0.000000 0.000000
 29 -0.000001 -1.940598 5.000000 -0.044472 0.004003 -0.000180
 30 6.551490 -0.000000 -0.000001 -0.925315 0.226682 -1.626501
 31 -0.000002 -1.940598 5.000002 -0.027189 -0.053376 0.005295
 32 6.551490 -0.000000 -0.000001 -0.229415 0.219653 -0.460215
 33 0.000000 -1.940599 4.999997 -0.066572 -0.152786 -0.110311
 34 0.574466 0.329634 -1.601866 2.292428 0.782836 -0.552521
 35 6.384777 0.000002 -0.000001 0.515016 0.004249 -1.521598
 36 10.242679 0.000001 0.000002 -0.000000 0.000000 -1.188980
 37 11.375562 0.000000 0.000004 2.960993 0.041520 0.843000
 38 0.728680 0.023431 1.008289 -1.539000 -0.370199 0.101110
 39 2.136496 -0.000003 0.000000 -0.000000 0.000000 0.287979
 40 2.313140 0.000002 0.000000 0.000000 0.000000 3.141593
 41 3.115506 -0.886041 0.021429 0.495459 0.148146 0.639838
 42 2.011152 -0.000001 -0.000001 0.000000 -0.000000 2.038377
 43 2.141381 0.000001 -0.000000 0.000000 0.000000 3.141593
 44 1.734172 -0.000001 -0.000001 0.000000 0.000000 1.019987
 45 0.136315 -3.738193 2.525891 1.493698 2.759406 -1.474501
 46 5.031114 -0.189687 1.849659 -2.967941 -0.035742 1.570790
 47 11.389368 -0.000819 0.158784 2.259352 0.177397 0.410575
 48 -0.000001 -4.440598 0.000002 1.570144 -3.078602 0.004040
 49 6.000001 0.000001 0.000002 2.259352 -0.000000 -0.000000
 50 0.000002 -4.440600 0.000000 1.569944 -3.078603 0.004053
 51 10.510129 0.000000 0.000002 -0.000000 0.000000 -2.165286
 52 0.000000 -1.748401 -5.000004 -3.141593 0.004007 -1.539299
 53 5.499999 0.000000 0.000002 -0.179156 0.000000 0.000000
 54 -0.000001 0.000000 -5.000000 -0.044472 3.137590 -0.000177
 55 6.551490 0.000000 -0.000000 0.179156 -0.096496 -0.438959
 56 -1.266843 -1.937443 -4.950561 -0.066572 -2.988806 -0.110308
 57 6.551491 0.000000 -0.000000 0.179156 -0.096496 -0.438959
 58 0.699371 -1.944209 -5.006847 -0.027189 -3.088217 0.005298
 59 4.226146 -0.003199 -0.000001 -0.082668 0.182836 -0.218845
 60 0.000001 5.000001 -0.000000 -0.153564 0.000087 2.718702
 61 0.000004 -0.000004 -3.713580 0.365818 2.880119 -0.191589
 62 0.000002 -0.000000 5.000000 3.053196 1.558589 -0.074928
 63 -0.000007 0.000006 3.713580 -0.001619 -3.122277 -0.475127
 64 0.000002 -0.000001 -5.000000 -0.088726 1.558589 3.066334
 65 7.363602 1.646647 0.495663 3.141593 -1.570796 0.000000
 66 -0.000005 0.000007 3.619081 0.008255 -3.110080 -0.985231
 67 16.573919 0.000002 0.000000 0.000000 -0.000000 -1.065827
 68 15.128181 0.000000 -0.000000 -0.102296 0.010178 0.114297
 69 5.758665 4.244730 0.000000 0.000000 0.000000 1.667687
 70 3.177725 0.000000 -0.000000 0.000000 0.000000 3.141593
 71 15.708953 0.000001 0.000000 -0.051525 0.003996 0.061523
 72 0.275148 0.189215 -3.445207 3.130898 0.000409 -1.514604
 73 17.210192 0.000001 0.000000 0.000000 -0.000000 -1.893339
 74 0.000001 -0.000000 -5.000000 -0.079430 1.546568 -1.570855
 75 0.000002 -0.000003 -3.619081 0.577895 2.675801 -0.242118
 76 16.573921 -0.000001 -0.000002 -0.000000 -0.000000 -1.163030
 77 15.128181 0.000001 0.000001 0.089479 0.309197 0.659208
 78 5.758666 4.244730 -0.000001 -0.000000 -0.000000 1.815142
 79 4.003934 -0.000000 0.000001 0.000000 0.000000 0.000000
 80 15.708954 0.000001 0.000002 0.042277 0.226871 0.443133
 81 0.273998 0.191089 3.439762 -3.130907 -0.000437 -1.508107
 82 17.210194 -0.000001 -0.000002 0.000000 -0.000000 -1.937080
 83 -0.000000 -0.000001 5.000000 -0.079319 1.595025 -1.570742
time 5
  0 -0.650000 0.000000 33.899605 -0.025849 0.174554 -1.569172
  1 5.685104 0.833236 -32.227173 -0.174512 -0.026131 1.569196
  2 -2.276935 0.000003 -1.238188 -1.570795 -1.570451 0.000000
  3 1.796572 0.711906 0.000618 -0.190293 -0.019893 -0.174096
  4 4.118833 -0.003192 0.000717 -0.220924 0.056693 0.058440
  5 4.120394 -0.002614 0.000838 -0.282535 0.413011 0.485704
  6 4.119716 -0.003037 0.000543 -0.174108 0.297590 0.299259
  7 4.117376 -0.003248 0.000666 -0.200825 0.337935 -0.428109
  8 4.443599 0.000000 -0.000000 -0.273552 0.066519 0.535130
  9 9.024059 -0.000001 -0.000001 0.000000 0.000000 0.000000
 10 -0.574462 -0.322556 1.601865 -1.481455 -1.750615 -1.352673
 11 6.384776 0.000001 -0.000000 -1.190979 -0.027927 -1.884318
 12 10.242680 -0.000000 0.000001 -0.000000 -0.000000 -0.514215
 13 11.375562 0.000003 -0.000001 -2.427398 0.288088 -0.106777
 14 0.728680 0.023431 -1.008293 2.038136 0.634975 1.094199
 15 2.136496 0.000001 -0.000001 0.000000 0.000000 0.287979
 16 2.313140 -0.000001 -0.000000 0.000000 0.000000 0.000000
 17 3.115506 -0.886042 -0.021431 -0.896369 -0.152156 0.318147
 18 2.011151 -0.000001 -0.000001 -0.000000 -0.000000 0.720653
 19 2.141380 0.000000 0.000001 0.000000 0.000000 0.000000
 20 1.734172 0.000001 0.000000 -0.000000 -0.000000 0.360540
 21 0.000006 -4.440593 0.000001 1.570544 -0.062990 -0.195737
 22 6.000000 -0.000000 -0.000000 -2.219303 -0.000000 -0.000000
 23 0.000002 -4.440601 -0.000000 1.569944 -0.062987 0.004053
 24 11.375563 0.000003 0.000002 -1.990582 0.172820 -0.023150
 25 -0.000002 -4.440602 -0.000002 1.570144 -0.062988 0.004040
 26 10.510132 0.000001 -0.000000 0.000000 -0.000000 -1.827904
 27 0.000002 -1.748402 4.999999 -0.000000 0.004007 1.602291
 28 5.499998 -0.000001 0.000001 0.336036 -0.000000 0.000000
 29 -0.000001 -1.940598 5.000000 -0.044472 0.004003 -0.000180
 30 6.551490 -0.000000 -0.000001 -0.925315 0.226682 -1.626501
 31 -0.000002 -1.940598 5.000002 -0.027189 -0.053376 0.005295
 32 6.551490 -0.000000 -0.000001 -0.229415 0.219653 -0.460215
 33 0.000000 -1.940599 4.999997 -0.066572 -0.152786 -0.110311
 34 0.574466 0.329634 -1.601866 2.292428 0.782836 -0.552521
 35 6.384777 0.000002 -0.000001 0.515016 0.004249 -1.521598
 36 10.242679 0.000001 0.000002 -0.000000 0.000000 -1.188980
 37 11.375562 0.000000 0.000004 2.960993 0.041520 0.843000
 38 0.728680 0.023431 1.008289 -1.539000 -0.370199 0.101110
 39 2.136496 -0.000003 0.000000 -0.000000 0.000000 0.287979
 40 2.313140 0.000002 0.000000 0.000000 0.000000 3.141593
 41 3.115506 -0.886041 0.021429 0.495459 0.148146 0.639838
 42 2.011152 -0.000001 -0.000001 0.000000 -0.000000 2.038377
 43 2.141381 0.000001 -0.000000 0.000000 0.000000 3.141593
 44 1.734172 -0.000001 -0.000001 0.000000 0.000000 1.019987
 45 0.136315 -3.738193 2.525891 1.493698 2.759406 -1.474501
 46 5.031114 -0.189687 1.849659 -2.967941 -0.035742 1.570790
 47 11.389368 -0.000819 0.158784 2.259352 0.177397 0.410575
 48 -0.000001 -4.440598 0.000002 1.570144 -3.078602 0.004040
 49 6.000001 0.000001 0.000002 2.259352 -0.000000 -0.000000
 50 0.000002 -4.440600 0.000000 1.569944 -3.078603 0.004053
 51 10.510129 0.000000 0.000002 -0.000000 0.000000 -2.165286
 52 0.000000 -1.748401 -5.000004 -3.141593 0.004007 -1.539299
 53 5.499999 0.000000 0.000002 -0.179156 0.000000 0.000000
 54 -0.000001 0.000000 -5.000000 -0.044472 3.137590 -0.000177
 55 6.551490 0.000000 -0.000000 0.179156 -0.096496 -0.438959
 56 -1.266843 -1.937443 -4.950561 -0.066572 -2.988806 -0.110308
 57 6.551491 0.000000 -0.000000 0.179156 -0.096496 -0.438959
 58 0.699371 -1.944209 -5.006847 -0.027189 -3.088217 0.005298
 59 4.226146 -0.003199 -0.000001 -0.082668 0.182836 -0.218845
 60 0.000001 5.000001 -0.000000 -0.153564 0.000087 2.718702
 61 0.000004 -0.000004 -3.713580 0.365818 2.880119 -0.191589
 62 0.000002 -0.000000 5.000000 3.053196 1.558589 -0.074928
 63 -0.000007 0.000006 3.713580 -0.001619 -3.122277 -0.475127
 64 0.000002 -0.000001 -5.000000 -0.088726 1.558589 3.066334
 65 7.363602 1.646647 0.495663 3.141593 -1.570796 0.000000
 66 -0.000005 0.000007 3.619081 0.008255 -3.110080 -0.985231
 67 16.573919 0.000002 0.000000 0.000000 -0.000000 -1.065827
 68 15.128181 0.000000 -0.000000 -0.102296 0.010178 0.114297
 69 5.758665 4.244730 0.000000 0.000000 0.000000 1.667687
 70 3.177725 0.000000 -0.000000 0.000000 0.000000 3.141593
 71 15.708953 0.000001 0.000000 -0.051525 0.003996 0.061523
 72 0.275148 0.189215 -3.445207 3.130898 0.000409 -1.514604
 73 17.210192 0.000001 0.000000 0.000000 -0.000000 -1.893339
 74 0.000001 -0.000000 -5.000000 -0.079430 1.546568 -1.570855
 75 0.000002 -0.000003 -3.619081 0.577895 2.675801 -0.242118
 76 16.573921 -0.000001 -0.000002 -0.000000 -0.000000 -1.163030
 77 15.128181 0.000001 0.000001 0.089479 0.309197 0.659208
 78 5.758666 4.244730 -0.000001 -0.000000 -0.000000 1.815142
 79 4.003934 -0.000000 0.000001 0.000000 0.000000 0.000000
 80 15.708954 0.000001 0.000002 0.042277 0.226871 0.443133
 81 0.273998 0.191089 3.439762 -3.130907 -0.000437 -1.508107
 82 17.210194 -0.000001 -0.000002 0.000000 -0.000000 -1.937080
 83 -0.000000 -0.000001 5.000000 -0.079319 1.595025 -1.570742
time 6
  0 -0.650000 0.000000 33.899605 -0.025849 0.174554 -1.569172
  1 5.685104 0.833236 -32.227173 -0.174512 -0.026131 1.569196
  2 -2.276935 0.000003 -1.238188 -1.570795 -1.570451 0.000000
  3 1.796572 0.711906 0.000618 -0.190293 -0.019893 -0.174096
  4 4.118833 -0.003192 0.000717 -0.220924 0.056693 0.058440
  5 4.120394 -0.002614 0.000838 -0.282535 0.413011 0.485704
  6 4.119716 -0.003037 0.000543 -0.174108 0.297590 0.299259
  7 4.117376 -0.003248 0.000666 -0.200825 0.337935 -0.428109
  8 4.443599 0.000000 -0.000000 -0.273552 0.066519 0.535130
  9 9.024059 -0.000001 -0.000001 0.000000 0.000000 0.000000
 10 -0.574462 -0.322556 1.601865 -1.481455 -1.750615 -1.352673
 11 6.384776 0.000001 -0.000000 -1.190979 -0.027927 -1.884318
 12 10.242680 -0.000000 0.000001 -0.000000 -0.000000 -0.514215
 13 11.375562 0.000003 -0.000001 -2.427398 0.288088 -0.106777
 14 0.728680 0.023431 -1.008293 2.038136 0.634975 1.094199
 15 2.136496 0.000001 -0.000001 0.000000 0.000000 0.287979
 16 2.313140 -0.000001 -0.000000 0.000000 0.000000 0.000000
 17 3.115506 -0.886042 -0.021431 -0.896369 -0.152156 0.318147
 18 2.011151 -0.000001 -0.000001 -0.000000 -0.000000 0.720653
 19 2.141380 0.000000 0.000001 0.000000 0.000000 0.000000
 20 1.734172 0.000001 0.000000 -0.000000 -0.000000 0.360540
 21 0.000006 -4.440593 0.000001 1.570544 -0.062990 -0.195737
 22 6.000000 -0.000000 -0.000000 -2.219303 -0.000000 -0.000000
 23 0.000002 -4.440601 -0.000000 1.569944 -0.062987 0.004053
 24 11.375563 0.000003 0.000002 -1.990582 0.172820 -0.023150
 25 -0.000002 -4.440602 -0.000002 1.570144 -0.062988 0.004040
 26 10.510132 0.000001 -0.000000 0.000000 -0.000000 -1.827904
 27 0.000002 -1.748402 4.999999 -0.000000 0.004007 1.602291
 28 5.499998 -0.000001 0.000001 0.336036 -0.000000 0.000000
 29 -0.000001 -1.940598 5.000000 -0.044472 0.004003 -0.000180
 30 6.551490 -0.000000 -0.000001 -0.925315 0.226682 -1.626501
 31 -0.000002 -1.940598 5.000002 -0.027189 -0.053376 0.005295
 32 6.551490 -0.000000 -0.000001 -0.229415 0.219653 -0.460215
 33 0.000000 -1.940599 4.999997 -0.066572 -0.152786 -0.110311
 34 0.574466 0.329634 -1.601866 2.292428 0.782836 -0.552521
 35 6.384777 0.000002 -0.000001 0.515016 0.004249 -1.521598
 36 10.242679 0.000001 0.000002 -0.000000 0.000000 -1.188980
 37 11.375562 0.000000 0.000004 2.960993 0.041520 0.843000
 38 0.728680 0.023431 1.008289 -1.539000 -0.370199 0.101110
 39 2.136496 -0.000003 0.000000 -0.000000 0.000000 0.287979
 40 2.313140 0.000002 0.000000 0.000000 0.000000 3.141593
 41 3.115506 -0.886041 0.021429 0.495459 0.148146 0.639838
 42 2.011152 -0.000001 -0.000001 0.000000 -0.000000 2.038377
 43 2.141381 0.000001 -0.000000 0.000000 0.000000 3.141593
 44 1.734172 -0.000001 -0.000001 0.000000 0.000000 1.019987
 45 0.136315 -3.738193 2.525891 1.493698 2.759406 -1.474501
 46 5.031114 -0.189687 1.849659 -2.967941 -0.035742 1.570790
 47 11.389368 -0.000819 0.158784 2.259352 0.177397 0.410575
 48 -0.000001 -4.440598 0.000002 1.570144 -3.078602 0.004040
 49 6.000001 0.000001 0.000002 2.259352 -0.000000 -0.000000
 50 0.000002 -4.440600 0.000000 1.569944 -3.078603 0.004053
 51 10.510129 0.000000 0.000002 -0.000000 0.000000 -2.165286
 52 0.000000 -1.748401 -5.000004 -3.141593 0.004007 -1.539299
 53 5.499999 0.000000 0.000002 -0.179156 0.000000 0.000000
 54 -0.000001 0.000000 -5.000000 -0.044472 3.137590 -0.000177
 55 6.551490 0.000000 -0.000000 0.179156 -0.096496 -0.438959
 56 -1.266843 -1.937443 -4.950561 -0.066572 -2.988806 -0.110308
 57 6.551491 0.000000 -0.000000 0.179156 -0.096496 -0.438959
 58 0.699371 -1.944209 -5.006847 -0.027189 -3.088217 0.005298
 59 4.226146 -0.003199 -0.000001 -0.082668 0.182836 -0.218845
 60 0.000001 5.000001 -0.000000 -0.153564 0.000087 2.718702
 61 0.000004 -0.000004 -3.713580 0.365818 2.880119 -0.191589
 62 0.000002 -0.000000 5.000000 3.053196 1.558589 -0.074928
 63 -0.000007 0.000006 3.713580 -0.001619 -3.122277 -0.475127
 64 0.000002 -0.000001 -5.000000 -0.088726 1.558589 3.066334
 65 7.363602 1.646647 0.495663 3.141593 -1.570796 0.000000
 66 -0.000005 0.000007 3.619081 0.008255 -3.110080 -0.985231
 67 16.573919 0.000002 0.000000 0.000000 -0.000000 -1.065827
 68 15.128181 0.000000 -0.000000 -0.102296 0.010178 0.114297
 69 5.758665 4.244730 0.000000 0.000000 0.000000 1.667687
 70 3.177725 0.000000 -0.000000 0.000000 0.000000 3.141593
 71 15.708953 0.000001 0.000000 -0.051525 0.003996 0.061523
 72 0.275148 0.189215 -3.445207 3.130898 0.000409 -1.514604
 73 17.210192 0.000001 0.000000 0.000000 -0.000000 -1.893339
 74 0.000001 -0.000000 -5.000000 -0.079430 1.546568 -1.570855
 75 0.000002 -0.000003 -3.619081 0.577895 2.675801 -0.242118
 76 16.573921 -0.000001 -0.000002 -0.000000 -0.000000 -1.163030
 77 15.128181 0.000001 0.000001 0.089479 0.309197 0.659208
 78 5.758666 4.244730 -0.000001 -0.000000 -0.000000 1.815142
 79 4.003934 -0.000000 0.000001 0.000000 0.000000 0.000000
 80 15.708954 0.000001 0.000002 0.042277 0.226871 0.443133
 81 0.273998 0.191089 3.439762 -3.130907 -0.000437 -1.508107
 82 17.210194 -0.000001 -0.000002 0.000000 -0.000000 -1.937080
 83 -0.000000 -0.000001 5.000000 -0.079319 1.595025 -1.570742
end
