version 1
nodes
  0 "Bip01"  -1
  1 "Bip01 Footsteps"   0
  2 "Bip01 Pelvis"   0
  3 "Bip01 Spine"   2
  4 "Bip01 Spine1"   3
  5 "Bip01 Spine2"   4
  6 "Bip01 Spine3"   5
  7 "Bip01 Neck"   6
  8 "Bip01 Head"   7
  9 "Dummy21"   8
 10 "Bip01 L Clavicle"   7
 11 "Bip01 L UpperArm"  10
 12 "Bip01 L Forearm"  11
 13 "Bip01 L Hand"  12
 14 "Bip01 L Finger0"  13
 15 "Bip01 L Finger01"  14
 16 "Dummy06"  15
 17 "Bip01 L Finger1"  13
 18 "Bip01 L Finger11"  17
 19 "Dummy03"  18
 20 "-- L knuckle"  17
 21 "-- L knuckle_end"  20
 22 "-- L Forearm twist"  12
 23 "-- L Forearm twist_end"  22
 24 "-- L wrist"  12
 25 "-- L wrist_end"  24
 26 "-- L Elbow"  11
 27 "--L Elbow_end"  26
 28 "-- L bicep twist"  11
 29 "-- L bicep twist_end"  28
 30 "-- L shoulder outside"  10
 31 "-- L shoulder outside_end"  30
 32 "-- L Shoulder inside"  10
 33 "-- L Shoulder inside_end"  32
 34 "Bip01 R Clavicle"   7
 35 "Bip01 R UpperArm"  34
 36 "Bip01 R Forearm"  35
 37 "Bip01 R Hand"  36
 38 "Bip01 R Finger0"  37
 39 "Bip01 R Finger01"  38
 40 "Dummy01"  39
 41 "Bip01 R Finger1"  37
 42 "Bip01 R Finger11"  41
 43 "Dummy02"  42
 44 "-- R knuckle"  41
 45 "Point06"  44
 46 "Beretta Elite"  37
 47 "-- R wrist"  36
 48 "-- R wrist_end"  47
 49 "-- R forearm twist"  36
 50 "-- R forearm twist_end"  49
 51 "-- R Elbow"  35
 52 "--R Elbow_end"  51
 53 "-- R bicep twist"  35
 54 "-- R bicep twist_end"  53
 55 "-- R Shoulder inside"  34
 56 "-- R Shoulder inside_end"  55
 57 "-- R shoulder outside"  34
 58 "-- R shoulder outside_end"  57
 59 "-- Neck smooth"   6
 60 "-- neck smooth end"  59
 61 "-- R Butt"   2
 62 "--R Butt_end"  61
 63 "-- L butt"   2
 64 "--L butt_end"  63
 65 "GIGN01"   2
 66 "Bip01 L Thigh"   2
 67 "Bip01 L Calf"  66
 68 "Bip01 L Foot"  67
 69 "Bip01 L Toe0"  68
 70 "Dummy16"  69
 71 "-- L ankle"  67
 72 "-- L ankleend"  71
 73 "-- L Knee"  66
 74 "--L Knee_end"  73
 75 "Bip01 R Thigh"   2
 76 "Bip01 R Calf"  75
 77 "Bip01 R Foot"  76
 78 "Bip01 R Toe0"  77
 79 "Dummy11"  78
 80 "-- R Ankle"  76
 81 "-- R ankleend"  80
 82 "-- R Knee"  75
 83 "--R Knee_end"  82
end
skeleton
time 0
  0 -0.650000 0.000000 33.899605 -0.025849 0.174554 -1.569172
  1 5.685104 0.833236 -32.227173 -0.174512 -0.026131 1.569196
  2 -2.276935 0.000003 -1.238188 -1.570795 -1.570451 0.000000
  3 1.796609 0.711922 0.000723 -0.255990 -0.506923 -0.041774
  4 4.119072 -0.003164 0.000724 -0.223402 0.130404 0.119097
  5 4.119080 -0.003167 0.000706 -0.222905 0.217763 0.099003
  6 4.119524 -0.003062 0.000731 -0.228129 0.164578 0.254157
  7 4.117612 -0.003344 -0.000594 0.188222 0.453873 -0.203973
  8 4.443598 0.000000 0.000001 -0.858267 -0.324252 -0.043563
  9 9.024062 0.000000 0.000000 0.000000 0.000000 0.000000
 10 -0.759709 0.294923 1.529791 1.065349 -1.191996 2.271739
 11 6.384776 0.000000 0.000001 -0.103448 -0.024037 -2.070086
 12 10.242682 0.000000 0.000003 -0.000000 -0.000000 -1.353295
 13 11.375560 0.000000 -0.000004 -3.108659 -0.095782 -0.044417
 14 0.728681 0.023431 -1.008292 2.038136 0.634976 1.094199
 15 2.136498 -0.000000 0.000000 0.000000 0.000000 0.287979
 16 2.313138 0.000002 0.000000 0.000000 0.000000 0.000000
 17 3.115506 -0.886041 -0.021431 -0.896369 -0.152156 0.318147
 18 2.011151 0.000002 -0.000001 0.000000 -0.000000 0.720653
 19 2.141379 -0.000001 0.000001 0.000000 0.000000 0.000000
 20 1.734173 0.000002 -0.000001 -0.000000 -0.000000 0.360540
 21 0.000007 -4.440594 0.000000 1.570544 -0.062990 -0.195737
 22 6.000000 0.000000 -0.000002 -2.789610 0.000000 -0.000000
 23 0.000001 -4.440601 -0.000000 1.569944 -0.062987 0.004053
 24 11.375561 0.000000 0.000000 -2.338890 -0.042485 -0.049988
 25 -0.000001 -4.440602 -0.000000 1.570144 -0.062988 0.004040
 26 10.510131 0.000000 0.000001 -0.000000 -0.000000 -2.247444
 27 -0.000000 -1.748401 5.000000 -0.000000 0.004007 1.602291
 28 5.500000 0.000000 0.000003 0.051663 -0.000000 -0.000000
 29 -0.000002 -1.940599 5.000001 -0.044472 0.004003 -0.000180
 30 6.551491 0.000000 0.000001 -0.107860 -0.014298 -1.721774
 31 0.000001 -1.940599 5.000003 -0.027189 -0.053376 0.005295
 32 6.551491 0.000000 0.000001 -0.036875 0.011908 -0.535321
 33 -0.000001 -1.940601 4.999995 -0.066572 -0.152786 -0.110311
 34 0.759713 -0.287846 -1.529788 1.918757 0.828133 -1.156465
 35 6.384777 -0.000000 -0.000000 0.856781 0.584572 -1.359553
 36 10.242682 -0.000001 -0.000003 0.000000 0.000000 -0.876754
 37 11.375557 0.000000 0.000002 2.378810 0.395837 0.394801
 38 0.728681 0.023431 1.008291 -1.539000 -0.370199 0.101110
 39 2.136499 -0.000000 -0.000000 -0.000000 0.000000 0.287979
 40 2.313136 0.000001 0.000000 0.000000 0.000000 3.141593
 41 3.115507 -0.886041 0.021430 0.495460 0.148146 0.639838
 42 2.011149 0.000001 -0.000002 0.000000 0.000000 2.038377
 43 2.141378 -0.000001 -0.000000 0.000000 0.000000 3.141593
 44 1.734174 -0.000001 0.000002 0.000000 -0.000000 1.019987
 45 0.136315 -3.738193 2.525892 1.493698 2.759406 -1.474501
 46 5.031118 -0.189687 1.849663 -2.967941 -0.035742 1.570790
 47 11.389365 -0.000820 0.158781 1.948296 0.247721 0.160263
 48 0.000003 -4.440600 0.000001 1.570144 -3.078602 0.004040
 49 5.999998 -0.000000 0.000001 1.948296 -0.000000 0.000000
 50 -0.000000 -4.440600 0.000000 1.569944 -3.078603 0.004053
 51 10.510132 -0.000001 -0.000001 -0.000000 0.000000 -2.009173
 52 -0.000001 -1.748401 -5.000003 -3.141593 0.004007 -1.539299
 53 5.500000 0.000000 -0.000001 -0.336086 0.000000 0.000000
 54 0.000000 0.000000 -5.000000 -0.044472 3.137589 -0.000177
 55 6.551490 -0.000000 -0.000001 0.336086 0.047763 -0.395760
 56 -1.266843 -1.937444 -4.950558 -0.066572 -2.988806 -0.110308
 57 6.551491 -0.000000 -0.000001 0.336086 0.047763 -0.395760
 58 0.699371 -1.944209 -5.006846 -0.027189 -3.088217 0.005298
 59 4.226147 -0.003201 -0.000000 0.103758 0.231263 -0.123155
 60 0.000000 5.000000 0.000001 -0.153564 0.000087 2.718702
 61 0.000004 -0.000004 -3.713580 0.365818 2.880119 -0.191589
 62 0.000002 -0.000000 5.000000 3.053196 1.558589 -0.074928
 63 -0.000007 0.000006 3.713580 -0.001619 -3.122277 -0.475127
 64 0.000002 -0.000001 -5.000000 -0.088726 1.558589 3.066334
 65 7.363602 1.646647 0.495663 3.141593 -1.570796 0.000000
 66 -0.000005 0.000007 3.619081 0.008255 -3.110080 -0.985231
 67 16.573919 0.000002 0.000000 0.000000 -0.000000 -1.065827
 68 15.128181 0.000000 -0.000000 -0.102296 0.010178 0.114297
 69 5.758665 4.244730 0.000000 0.000000 0.000000 1.667687
 70 3.177725 0.000000 -0.000000 0.000000 0.000000 3.141593
 71 15.708953 0.000001 0.000000 -0.051525 0.003996 0.061523
 72 0.275148 0.189215 -3.445207 3.130898 0.000409 -1.514604
 73 17.210192 0.000001 0.000000 0.000000 -0.000000 -1.893339
 74 0.000001 -0.000000 -5.000000 -0.079430 1.546568 -1.570855
 75 0.000002 -0.000003 -3.619081 0.577895 2.675801 -0.242118
 76 16.573921 -0.000001 -0.000002 -0.000000 -0.000000 -1.163030
 77 15.128181 0.000001 0.000001 0.089479 0.309197 0.659208
 78 5.758666 4.244730 -0.000001 -0.000000 -0.000000 1.815142
 79 4.003934 -0.000000 0.000001 0.000000 0.000000 0.000000
 80 15.708954 0.000001 0.000002 0.042277 0.226871 0.443133
 81 0.273998 0.191089 3.439762 -3.130907 -0.000437 -1.508107
 82 17.210194 -0.000001 -0.000002 0.000000 -0.000000 -1.937080
 83 -0.000000 -0.000001 5.000000 -0.079319 1.595025 -1.570742
time 1
  0 -0.650000 0.000000 33.899605 -0.025849 0.174554 -1.569172
  1 5.685104 0.833236 -32.227173 -0.174512 -0.026131 1.569196
  2 -2.276935 0.000003 -1.238188 -1.570795 -1.570451 0.000000
  3 1.796642 0.711914 0.000711 -0.249579 -0.491692 -0.036986
  4 4.119049 -0.003170 0.000712 -0.220281 0.124317 0.112427
  5 4.119051 -0.003172 0.000700 -0.220512 0.209204 0.093152
  6 4.119532 -0.003062 0.000718 -0.223540 0.160229 0.258399
  7 4.117613 -0.003344 -0.000594 0.188222 0.453873 -0.203973
  8 4.443600 -0.000000 0.000000 -0.881605 -0.312021 -0.087479
  9 9.024060 -0.000000 0.000000 0.000000 0.000000 0.000000
 10 -0.759706 0.294923 1.529789 1.065349 -1.191996 2.271739
 11 6.384775 0.000000 0.000003 -0.105003 -0.036167 -2.046058
 12 10.242682 0.000000 -0.000004 0.000000 -0.000000 -1.392107
 13 11.375561 -0.000000 -0.000000 -3.109519 -0.092999 -0.048543
 14 0.728680 0.023431 -1.008290 2.038136 0.634976 1.094199
 15 2.136497 -0.000000 0.000001 0.000000 0.000000 0.287979
 16 2.313140 0.000000 0.000001 0.000000 0.000000 0.000000
 17 3.115506 -0.886041 -0.021430 -0.896369 -0.152156 0.318147
 18 2.011151 -0.000001 0.000001 0.000000 -0.000000 0.720653
 19 2.141381 -0.000000 -0.000001 0.000000 0.000000 0.000000
 20 1.734172 0.000001 0.000001 0.000000 -0.000000 0.360540
 21 0.000006 -4.440593 -0.000001 1.570544 -0.062990 -0.195737
 22 6.000000 -0.000000 -0.000000 -2.790454 -0.000000 0.000000
 23 0.000001 -4.440600 -0.000001 1.569944 -0.062987 0.004053
 24 11.375561 -0.000000 0.000004 -2.339426 -0.039835 -0.051716
 25 -0.000001 -4.440602 -0.000001 1.570144 -0.062988 0.004040
 26 10.510129 0.000000 -0.000003 -0.000000 0.000000 -2.266850
 27 0.000000 -1.748401 5.000000 -0.000000 0.004007 1.602291
 28 5.499999 -0.000000 -0.000002 0.055597 0.000000 0.000000
 29 -0.000001 -1.940598 5.000001 -0.044472 0.004003 -0.000180
 30 6.551490 -0.000000 0.000001 -0.112008 -0.025325 -1.707825
 31 -0.000000 -1.940598 5.000000 -0.027189 -0.053376 0.005295
 32 6.551490 -0.000000 0.000001 -0.040165 0.008945 -0.536030
 33 -0.000000 -1.940598 4.999995 -0.066572 -0.152786 -0.110311
 34 0.759715 -0.287846 -1.529789 1.980821 0.835829 -1.064728
 35 6.384775 0.000000 0.000001 0.931470 0.592573 -1.280352
 36 10.242683 -0.000001 -0.000002 -0.000000 -0.000000 -0.798923
 37 11.375559 -0.000001 0.000003 2.365064 0.362460 0.357670
 38 0.728682 0.023431 1.008292 -1.539000 -0.370199 0.101110
 39 2.136493 0.000000 0.000000 -0.000000 0.000000 0.287979
 40 2.313142 0.000000 -0.000000 0.000000 0.000000 3.141593
 41 3.115506 -0.886041 0.021429 0.495459 0.148146 0.639838
 42 2.011154 -0.000001 0.000001 0.000000 -0.000000 2.038377
 43 2.141380 0.000002 0.000000 0.000000 0.000000 3.141593
 44 1.734173 -0.000001 -0.000001 -0.000000 -0.000000 1.019987
 45 0.136314 -3.738192 2.525891 1.493698 2.759406 -1.474501
 46 5.031111 -0.189688 1.849660 -2.967941 -0.035742 1.570790
 47 11.389364 -0.000820 0.158784 1.946463 0.228539 0.148011
 48 0.000001 -4.440599 0.000001 1.570144 -3.078602 0.004040
 49 6.000000 -0.000001 0.000001 1.946463 0.000000 -0.000000
 50 0.000001 -4.440602 0.000000 1.569944 -3.078603 0.004053
 51 10.510133 -0.000001 -0.000001 0.000000 0.000000 -1.970258
 52 0.000001 -1.748400 -5.000003 3.141593 0.004007 -1.539299
 53 5.500000 0.000000 -0.000000 -0.352992 0.000000 -0.000000
 54 0.000001 -0.000001 -5.000001 -0.044472 3.137590 -0.000177
 55 6.551489 0.000001 -0.000000 0.352992 0.043896 -0.377976
 56 -1.266843 -1.937443 -4.950563 -0.066572 -2.988806 -0.110308
 57 6.551490 0.000001 -0.000000 0.352992 0.043896 -0.377976
 58 0.699370 -1.944208 -5.006849 -0.027189 -3.088217 0.005298
 59 4.226147 -0.003202 -0.000000 0.103758 0.231263 -0.123155
 60 -0.000004 5.000000 0.000000 -0.153564 0.000087 2.718702
 61 0.000004 -0.000004 -3.713580 0.365818 2.880119 -0.191589
 62 0.000002 -0.000000 5.000000 3.053196 1.558589 -0.074928
 63 -0.000007 0.000006 3.713580 -0.001619 -3.122277 -0.475127
 64 0.000002 -0.000001 -5.000000 -0.088726 1.558589 3.066334
 65 7.363602 1.646647 0.495663 3.141593 -1.570796 0.000000
 66 -0.000005 0.000007 3.619081 0.008255 -3.110080 -0.985231
 67 16.573919 0.000002 0.000000 0.000000 -0.000000 -1.065827
 68 15.128181 0.000000 -0.000000 -0.102296 0.010178 0.114297
 69 5.758665 4.244730 0.000000 0.000000 0.000000 1.667687
 70 3.177725 0.000000 -0.000000 0.000000 0.000000 3.141593
 71 15.708953 0.000001 0.000000 -0.051525 0.003996 0.061523
 72 0.275148 0.189215 -3.445207 3.130898 0.000409 -1.514604
 73 17.210192 0.000001 0.000000 0.000000 -0.000000 -1.893339
 74 0.000001 -0.000000 -5.000000 -0.079430 1.546568 -1.570855
 75 0.000002 -0.000003 -3.619081 0.577895 2.675801 -0.242118
 76 16.573921 -0.000001 -0.000002 -0.000000 -0.000000 -1.163030
 77 15.128181 0.000001 0.000001 0.089479 0.309197 0.659208
 78 5.758666 4.244730 -0.000001 -0.000000 -0.000000 1.815142
 79 4.003934 -0.000000 0.000001 0.000000 0.000000 0.000000
 80 15.708954 0.000001 0.000002 0.042277 0.226871 0.443133
 81 0.273998 0.191089 3.439762 -3.130907 -0.000437 -1.508107
 82 17.210194 -0.000001 -0.000002 0.000000 -0.000000 -1.937080
 83 -0.000000 -0.000001 5.000000 -0.079319 1.595025 -1.570742
time 2
  0 -0.650000 0.000000 33.899605 -0.025849 0.174554 -1.569172
  1 5.685104 0.833236 -32.227173 -0.174512 -0.026131 1.569196
  2 -2.276935 0.000003 -1.238188 -1.570795 -1.570451 0.000000
  3 1.796675 0.711906 0.000699 -0.243136 -0.476488 -0.032126
  4 4.119027 -0.003176 0.000699 -0.217121 0.118251 0.105743
  5 4.119021 -0.003177 0.000695 -0.218073 0.200659 0.087290
  6 4.119538 -0.003063 0.000704 -0.218973 0.155861 0.262619
  7 4.117614 -0.003345 -0.000594 0.188222 0.453873 -0.203973
  8 4.443596 0.000000 0.000000 -0.905595 -0.301587 -0.131391
  9 9.024061 -0.000000 -0.000000 0.000000 0.000000 0.000000
 10 -0.759709 0.294923 1.529790 1.065349 -1.191996 2.271739
 11 6.384775 0.000002 -0.000002 -0.107762 -0.049127 -2.022569
 12 10.242682 0.000000 -0.000000 0.000000 0.000000 -1.428585
 13 11.375562 0.000000 -0.000003 -3.111596 -0.090332 -0.054571
 14 0.728680 0.023431 -1.008290 2.038137 0.634976 1.094199
 15 2.136494 -0.000000 0.000000 0.000000 0.000000 0.287979
 16 2.313139 0.000000 0.000001 0.000000 0.000000 0.000000
 17 3.115506 -0.886042 -0.021429 -0.896369 -0.152156 0.318147
 18 2.011151 0.000000 -0.000000 -0.000000 -0.000000 0.720653
 19 2.141378 -0.000000 0.000001 0.000000 0.000000 0.000000
 20 1.734172 0.000002 -0.000000 -0.000000 -0.000000 0.360540
 21 0.000005 -4.440595 -0.000000 1.570544 -0.062990 -0.195737
 22 6.000000 0.000000 -0.000002 -2.792402 -0.000000 0.000000
 23 0.000001 -4.440600 0.000001 1.569944 -0.062987 0.004053
 24 11.375562 0.000000 0.000001 -2.340585 -0.036736 -0.054599
 25 -0.000001 -4.440605 -0.000002 1.570144 -0.062988 0.004040
 26 10.510130 0.000000 -0.000002 0.000000 0.000000 -2.285089
 27 0.000000 -1.748401 4.999997 0.000000 0.004007 1.602290
 28 5.500000 -0.000000 -0.000000 0.060217 -0.000000 0.000000
 29 -0.000003 -1.940598 5.000004 -0.044472 0.004003 -0.000180
 30 6.551490 0.000001 -0.000003 -0.117438 -0.036924 -1.693548
 31 -0.000000 -1.940598 5.000000 -0.027189 -0.053376 0.005295
 32 6.551491 0.000001 -0.000003 -0.043980 0.005935 -0.536563
 33 -0.000000 -1.940598 4.999996 -0.066572 -0.152786 -0.110311
 34 0.759710 -0.287846 -1.529790 2.045865 0.839828 -0.971678
 35 6.384776 -0.000001 -0.000002 1.004927 0.593980 -1.200026
 36 10.242682 -0.000002 -0.000001 0.000000 0.000000 -0.721092
 37 11.375564 -0.000002 -0.000002 2.352801 0.328637 0.321473
 38 0.728679 0.023431 1.008291 -1.539000 -0.370199 0.101110
 39 2.136494 0.000000 0.000000 -0.000000 0.000000 0.287979
 40 2.313137 0.000000 -0.000000 0.000000 0.000000 3.141593
 41 3.115509 -0.886041 0.021433 0.495459 0.148146 0.639838
 42 2.011151 -0.000001 0.000002 0.000000 -0.000000 2.038377
 43 2.141381 -0.000001 -0.000003 0.000000 0.000000 3.141593
 44 1.734173 -0.000002 0.000003 0.000000 -0.000000 1.019987
 45 0.136315 -3.738191 2.525889 1.493698 2.759406 -1.474501
 46 5.031111 -0.189688 1.849661 -2.967941 -0.035742 1.570790
 47 11.389367 -0.000820 0.158780 1.944733 0.208918 0.135557
 48 -0.000002 -4.440599 -0.000001 1.570144 -3.078602 0.004040
 49 6.000001 -0.000001 -0.000001 1.944733 -0.000000 0.000000
 50 0.000002 -4.440603 0.000000 1.569944 -3.078603 0.004053
 51 10.510133 -0.000002 0.000000 -0.000000 0.000000 -1.931342
 52 -0.000001 -1.748399 -5.000000 -3.141593 0.004007 -1.539299
 53 5.500000 -0.000000 0.000002 -0.367722 -0.000000 -0.000000
 54 0.000000 0.000000 -5.000000 -0.044472 3.137589 -0.000177
 55 6.551490 -0.000001 0.000001 0.367722 0.039398 -0.361523
 56 -1.266843 -1.937443 -4.950559 -0.066572 -2.988806 -0.110308
 57 6.551491 -0.000001 0.000001 0.367722 0.039398 -0.361523
 58 0.699371 -1.944209 -5.006848 -0.027189 -3.088217 0.005298
 59 4.226146 -0.003202 -0.000000 0.103758 0.231263 -0.123155
 60 0.000001 4.999999 -0.000000 -0.153564 0.000087 2.718702
 61 0.000004 -0.000004 -3.713580 0.365818 2.880119 -0.191589
 62 0.000002 -0.000000 5.000000 3.053196 1.558589 -0.074928
 63 -0.000007 0.000006 3.713580 -0.001619 -3.122277 -0.475127
 64 0.000002 -0.000001 -5.000000 -0.088726 1.558589 3.066334
 65 7.363602 1.646647 0.495663 3.141593 -1.570796 0.000000
 66 -0.000005 0.000007 3.619081 0.008255 -3.110080 -0.985231
 67 16.573919 0.000002 0.000000 0.000000 -0.000000 -1.065827
 68 15.128181 0.000000 -0.000000 -0.102296 0.010178 0.114297
 69 5.758665 4.244730 0.000000 0.000000 0.000000 1.667687
 70 3.177725 0.000000 -0.000000 0.000000 0.000000 3.141593
 71 15.708953 0.000001 0.000000 -0.051525 0.003996 0.061523
 72 0.275148 0.189215 -3.445207 3.130898 0.000409 -1.514604
 73 17.210192 0.000001 0.000000 0.000000 -0.000000 -1.893339
 74 0.000001 -0.000000 -5.000000 -0.079430 1.546568 -1.570855
 75 0.000002 -0.000003 -3.619081 0.577895 2.675801 -0.242118
 76 16.573921 -0.000001 -0.000002 -0.000000 -0.000000 -1.163030
 77 15.128181 0.000001 0.000001 0.089479 0.309197 0.659208
 78 5.758666 4.244730 -0.000001 -0.000000 -0.000000 1.815142
 79 4.003934 -0.000000 0.000001 0.000000 0.000000 0.000000
 80 15.708954 0.000001 0.000002 0.042277 0.226871 0.443133
 81 0.273998 0.191089 3.439762 -3.130907 -0.000437 -1.508107
 82 17.210194 -0.000001 -0.000002 0.000000 -0.000000 -1.937080
 83 -0.000000 -0.000001 5.000000 -0.079319 1.595025 -1.570742
time 3
  0 -0.650000 0.000000 33.899605 -0.025849 0.174554 -1.569172
  1 5.685104 0.833236 -32.227173 -0.174512 -0.026131 1.569196
  2 -2.276935 0.000003 -1.238188 -1.570795 -1.570451 0.000000
  3 1.796712 0.711898 0.000686 -0.236661 -0.461312 -0.027194
  4 4.118998 -0.003182 0.000691 -0.213923 0.112206 0.099045
  5 4.118997 -0.003182 0.000689 -0.215587 0.192128 0.081417
  6 4.119550 -0.003064 0.000690 -0.214427 0.151474 0.266815
  7 4.117613 -0.003344 -0.000595 0.188222 0.453873 -0.203973
  8 4.443597 0.000000 -0.000001 -0.930127 -0.292988 -0.175287
  9 9.024060 -0.000000 0.000000 0.000000 0.000000 0.000000
 10 -0.759707 0.294923 1.529790 1.065349 -1.191996 2.271739
 11 6.384776 -0.000001 -0.000000 -0.111773 -0.062836 -1.999556
 12 10.242681 0.000000 -0.000003 -0.000000 -0.000000 -1.462765
 13 11.375559 -0.000000 0.000001 -3.114893 -0.087845 -0.062485
 14 0.728680 0.023431 -1.008293 2.038136 0.634975 1.094199
 15 2.136496 0.000001 0.000000 0.000000 -0.000000 0.287979
 16 2.313140 -0.000002 0.000001 0.000000 0.000000 0.000000
 17 3.115507 -0.886041 -0.021434 -0.896369 -0.152156 0.318147
 18 2.011150 -0.000002 -0.000001 0.000000 -0.000000 0.720653
 19 2.141381 0.000001 -0.000001 0.000000 0.000000 0.000000
 20 1.734172 -0.000001 -0.000001 -0.000000 -0.000000 0.360540
 21 0.000007 -4.440594 -0.000001 1.570544 -0.062990 -0.195737
 22 6.000000 0.000000 -0.000001 -2.795460 -0.000000 -0.000000
 23 0.000001 -4.440600 0.000002 1.569944 -0.062987 0.004053
 24 11.375562 -0.000000 0.000005 -2.342366 -0.033220 -0.058642
 25 -0.000001 -4.440604 -0.000001 1.570144 -0.062988 0.004040
 26 10.510129 -0.000000 -0.000002 0.000000 -0.000000 -2.302179
 27 -0.000000 -1.748400 5.000000 0.000000 0.004007 1.602290
 28 5.499999 0.000000 -0.000002 0.065539 0.000000 0.000000
 29 -0.000001 -1.940598 5.000000 -0.044472 0.004003 -0.000180
 30 6.551491 -0.000000 0.000003 -0.124206 -0.049022 -1.678831
 31 -0.000001 -1.940599 5.000002 -0.027189 -0.053376 0.005295
 32 6.551491 -0.000000 0.000003 -0.048335 0.002906 -0.536905
 33 -0.000001 -1.940600 4.999999 -0.066572 -0.152786 -0.110311
 34 0.759710 -0.287846 -1.529790 2.113087 0.839859 -0.878097
 35 6.384777 0.000001 -0.000001 1.075972 0.588866 -1.119758
 36 10.242683 -0.000001 -0.000001 0.000000 0.000000 -0.643261
 37 11.375557 -0.000000 0.000001 2.341958 0.294424 0.286107
 38 0.728679 0.023431 1.008291 -1.539000 -0.370199 0.101110
 39 2.136497 0.000000 -0.000000 0.000000 0.000000 0.287979
 40 2.313138 0.000001 -0.000000 0.000000 0.000000 3.141593
 41 3.115507 -0.886041 0.021433 0.495459 0.148146 0.639838
 42 2.011151 -0.000001 0.000001 0.000000 0.000000 2.038377
 43 2.141380 -0.000003 0.000003 0.000000 0.000000 3.141593
 44 1.734173 -0.000002 0.000002 -0.000000 -0.000000 1.019987
 45 0.136315 -3.738192 2.525889 1.493698 2.759406 -1.474501
 46 5.031115 -0.189687 1.849664 -2.967941 -0.035742 1.570790
 47 11.389366 -0.000820 0.158780 1.943113 0.188803 0.122860
 48 0.000001 -4.440600 0.000001 1.570144 -3.078602 0.004040
 49 6.000000 -0.000001 -0.000003 1.943113 0.000000 0.000000
 50 0.000002 -4.440601 0.000000 1.569944 -3.078603 0.004053
 51 10.510131 0.000001 0.000001 -0.000000 0.000000 -1.892427
 52 -0.000001 -1.748399 -5.000000 -3.141593 0.004007 -1.539299
 53 5.500000 -0.000000 -0.000000 -0.380549 0.000000 -0.000000
 54 -0.000000 0.000001 -5.000000 -0.044472 3.137590 -0.000177
 55 6.551491 0.000000 0.000003 0.380549 0.034466 -0.346361
 56 -1.266844 -1.937444 -4.950556 -0.066572 -2.988806 -0.110308
 57 6.551491 0.000000 0.000003 0.380549 0.034466 -0.346361
 58 0.699371 -1.944208 -5.006847 -0.027189 -3.088217 0.005298
 59 4.226144 -0.003201 -0.000000 0.103758 0.231263 -0.123155
 60 0.000001 5.000000 0.000000 -0.153564 0.000087 2.718702
 61 0.000004 -0.000004 -3.713580 0.365818 2.880119 -0.191589
 62 0.000002 -0.000000 5.000000 3.053196 1.558589 -0.074928
 63 -0.000007 0.000006 3.713580 -0.001619 -3.122277 -0.475127
 64 0.000002 -0.000001 -5.000000 -0.088726 1.558589 3.066334
 65 7.363602 1.646647 0.495663 3.141593 -1.570796 0.000000
 66 -0.000005 0.000007 3.619081 0.008255 -3.110080 -0.985231
 67 16.573919 0.000002 0.000000 0.000000 -0.000000 -1.065827
 68 15.128181 0.000000 -0.000000 -0.102296 0.010178 0.114297
 69 5.758665 4.244730 0.000000 0.000000 0.000000 1.667687
 70 3.177725 0.000000 -0.000000 0.000000 0.000000 3.141593
 71 15.708953 0.000001 0.000000 -0.051525 0.003996 0.061523
 72 0.275148 0.189215 -3.445207 3.130898 0.000409 -1.514604
 73 17.210192 0.000001 0.000000 0.000000 -0.000000 -1.893339
 74 0.000001 -0.000000 -5.000000 -0.079430 1.546568 -1.570855
 75 0.000002 -0.000003 -3.619081 0.577895 2.675801 -0.242118
 76 16.573921 -0.000001 -0.000002 -0.000000 -0.000000 -1.163030
 77 15.128181 0.000001 0.000001 0.089479 0.309197 0.659208
 78 5.758666 4.244730 -0.000001 -0.000000 -0.000000 1.815142
 79 4.003934 -0.000000 0.000001 0.000000 0.000000 0.000000
 80 15.708954 0.000001 0.000002 0.042277 0.226871 0.443133
 81 0.273998 0.191089 3.439762 -3.130907 -0.000437 -1.508107
 82 17.210194 -0.000001 -0.000002 0.000000 -0.000000 -1.937080
 83 -0.000000 -0.000001 5.000000 -0.079319 1.595025 -1.570742
time 4
  0 -0.650000 0.000000 33.899605 -0.025849 0.174554 -1.569172
  1 5.685104 0.833236 -32.227173 -0.174512 -0.026131 1.569196
  2 -2.276935 0.000003 -1.238188 -1.570795 -1.570451 0.000000
  3 1.796745 0.711891 0.000672 -0.230150 -0.446165 -0.022190
  4 4.118971 -0.003187 0.000681 -0.210686 0.106183 0.092331
  5 4.118970 -0.003187 0.000682 -0.213054 0.183612 0.075532
  6 4.119556 -0.003064 0.000676 -0.209904 0.147069 0.270988
  7 4.117616 -0.003345 -0.000595 0.188222 0.453873 -0.203973
  8 4.443597 0.000000 -0.000001 -0.955091 -0.286252 -0.219147
  9 9.024061 0.000000 -0.000000 0.000000 0.000000 0.000000
 10 -0.759713 0.294923 1.529789 1.065349 -1.191996 2.271739
 11 6.384776 0.000001 0.000003 -0.117067 -0.077207 -1.976966
 12 10.242682 0.000001 -0.000001 -0.000000 -0.000000 -1.494663
 13 11.375562 -0.000000 -0.000000 -3.119410 -0.085608 -0.072278
 14 0.728681 0.023431 -1.008292 2.038136 0.634975 1.094199
 15 2.136495 -0.000001 -0.000001 0.000000 0.000000 0.287979
 16 2.313139 0.000001 -0.000001 0.000000 0.000000 0.000000
 17 3.115506 -0.886041 -0.021429 -0.896369 -0.152156 0.318147
 18 2.011150 -0.000000 0.000000 0.000000 -0.000000 0.720653
 19 2.141378 0.000000 0.000000 0.000000 0.000000 0.000000
 20 1.734172 0.000003 -0.000002 0.000000 -0.000000 0.360540
 21 0.000004 -4.440594 -0.000001 1.570544 -0.062990 -0.195737
 22 6.000000 0.000000 -0.000003 -2.799635 -0.000000 0.000000
 23 0.000001 -4.440601 0.000001 1.569944 -0.062987 0.004053
 24 11.375561 -0.000000 0.000004 -2.344767 -0.029320 -0.063850
 25 -0.000002 -4.440602 -0.000001 1.570144 -0.062988 0.004040
 26 10.510130 0.000000 -0.000001 -0.000000 -0.000000 -2.318128
 27 0.000000 -1.748401 4.999999 0.000000 0.004007 1.602290
 28 5.500000 0.000000 0.000002 0.071576 -0.000000 0.000000
 29 -0.000002 -1.940598 5.000004 -0.044472 0.004003 -0.000180
 30 6.551490 -0.000001 -0.000001 -0.132356 -0.061534 -1.663558
 31 0.000001 -1.940598 5.000001 -0.027189 -0.053376 0.005295
 32 6.551490 -0.000001 -0.000001 -0.053241 -0.000114 -0.537040
 33 -0.000001 -1.940598 4.999996 -0.066572 -0.152786 -0.110311
 34 0.759709 -0.287846 -1.529791 2.181583 0.835726 -0.784868
 35 6.384776 -0.000001 0.000002 1.143479 0.577453 -1.040664
 36 10.242682 0.000000 -0.000000 0.000000 0.000000 -0.565430
 37 11.375561 0.000000 0.000001 2.332479 0.259870 0.251470
 38 0.728676 0.023431 1.008290 -1.539000 -0.370199 0.101110
 39 2.136490 -0.000000 0.000000 -0.000000 0.000000 0.287979
 40 2.313143 0.000001 -0.000000 0.000000 0.000000 3.141593
 41 3.115505 -0.886041 0.021432 0.495459 0.148146 0.639838
 42 2.011151 -0.000000 -0.000002 0.000000 -0.000000 2.038377
 43 2.141379 -0.000002 0.000004 0.000000 0.000000 3.141593
 44 1.734171 0.000000 -0.000002 0.000000 -0.000000 1.019987
 45 0.136314 -3.738192 2.525890 1.493698 2.759406 -1.474501
 46 5.031110 -0.189688 1.849661 -2.967941 -0.035742 1.570790
 47 11.389369 -0.000821 0.158779 1.941613 0.168152 0.109889
 48 -0.000001 -4.440598 -0.000002 1.570144 -3.078602 0.004040
 49 6.000001 -0.000001 -0.000001 1.941613 0.000000 -0.000000
 50 0.000003 -4.440602 -0.000000 1.569944 -3.078603 0.004053
 51 10.510132 -0.000001 -0.000002 0.000000 0.000000 -1.853511
 52 -0.000000 -1.748402 -5.000002 -3.141593 0.004007 -1.539299
 53 5.500000 0.000000 -0.000001 -0.391736 0.000000 -0.000000
 54 -0.000001 0.000001 -4.999997 -0.044472 3.137589 -0.000177
 55 6.551491 -0.000000 0.000001 0.391736 0.029221 -0.332338
 56 -1.266844 -1.937443 -4.950557 -0.066572 -2.988806 -0.110308
 57 6.551492 -0.000000 0.000001 0.391736 0.029221 -0.332338
 58 0.699371 -1.944208 -5.006847 -0.027189 -3.088217 0.005298
 59 4.226146 -0.003202 -0.000000 0.103758 0.231263 -0.123155
 60 0.000002 5.000000 -0.000001 -0.153564 0.000087 2.718702
 61 0.000004 -0.000004 -3.713580 0.365818 2.880119 -0.191589
 62 0.000002 -0.000000 5.000000 3.053196 1.558589 -0.074928
 63 -0.000007 0.000006 3.713580 -0.001619 -3.122277 -0.475127
 64 0.000002 -0.000001 -5.000000 -0.088726 1.558589 3.066334
 65 7.363602 1.646647 0.495663 3.141593 -1.570796 0.000000
 66 -0.000005 0.000007 3.619081 0.008255 -3.110080 -0.985231
 67 16.573919 0.000002 0.000000 0.000000 -0.000000 -1.065827
 68 15.128181 0.000000 -0.000000 -0.102296 0.010178 0.114297
 69 5.758665 4.244730 0.000000 0.000000 0.000000 1.667687
 70 3.177725 0.000000 -0.000000 0.000000 0.000000 3.141593
 71 15.708953 0.000001 0.000000 -0.051525 0.003996 0.061523
 72 0.275148 0.189215 -3.445207 3.130898 0.000409 -1.514604
 73 17.210192 0.000001 0.000000 0.000000 -0.000000 -1.893339
 74 0.000001 -0.000000 -5.000000 -0.079430 1.546568 -1.570855
 75 0.000002 -0.000003 -3.619081 0.577895 2.675801 -0.242118
 76 16.573921 -0.000001 -0.000002 -0.000000 -0.000000 -1.163030
 77 15.128181 0.000001 0.000001 0.089479 0.309197 0.659208
 78 5.758666 4.244730 -0.000001 -0.000000 -0.000000 1.815142
 79 4.003934 -0.000000 0.000001 0.000000 0.000000 0.000000
 80 15.708954 0.000001 0.000002 0.042277 0.226871 0.443133
 81 0.273998 0.191089 3.439762 -3.130907 -0.000437 -1.508107
 82 17.210194 -0.000001 -0.000002 0.000000 -0.000000 -1.937080
 83 -0.000000 -0.000001 5.000000 -0.079319 1.595025 -1.570742
time 5
  0 -0.650000 0.000000 33.899605 -0.025849 0.174554 -1.569172
  1 5.685104 0.833236 -32.227173 -0.174512 -0.026131 1.569196
  2 -2.276935 0.000003 -1.238188 -1.570795 -1.570451 0.000000
  3 1.796745 0.711891 0.000672 -0.230150 -0.446165 -0.022190
  4 4.118971 -0.003187 0.000681 -0.210686 0.106183 0.092331
  5 4.118970 -0.003187 0.000682 -0.213054 0.183612 0.075532
  6 4.119556 -0.003064 0.000676 -0.209904 0.147069 0.270988
  7 4.117616 -0.003345 -0.000595 0.188222 0.453873 -0.203973
  8 4.443597 0.000000 -0.000001 -0.955091 -0.286252 -0.219147
  9 9.024061 0.000000 -0.000000 0.000000 0.000000 0.000000
 10 -0.759713 0.294923 1.529789 1.065349 -1.191996 2.271739
 11 6.384776 0.000001 0.000003 -0.117067 -0.077207 -1.976966
 12 10.242682 0.000001 -0.000001 -0.000000 -0.000000 -1.494663
 13 11.375562 -0.000000 -0.000000 -3.119410 -0.085608 -0.072278
 14 0.728681 0.023431 -1.008292 2.038136 0.634975 1.094199
 15 2.136495 -0.000001 -0.000001 0.000000 0.000000 0.287979
 16 2.313139 0.000001 -0.000001 0.000000 0.000000 0.000000
 17 3.115506 -0.886041 -0.021429 -0.896369 -0.152156 0.318147
 18 2.011150 -0.000000 0.000000 0.000000 -0.000000 0.720653
 19 2.141378 0.000000 0.000000 0.000000 0.000000 0.000000
 20 1.734172 0.000003 -0.000002 0.000000 -0.000000 0.360540
 21 0.000004 -4.440594 -0.000001 1.570544 -0.062990 -0.195737
 22 6.000000 0.000000 -0.000003 -2.799635 -0.000000 0.000000
 23 0.000001 -4.440601 0.000001 1.569944 -0.062987 0.004053
 24 11.375561 -0.000000 0.000004 -2.344767 -0.029320 -0.063850
 25 -0.000002 -4.440602 -0.000001 1.570144 -0.062988 0.004040
 26 10.510130 0.000000 -0.000001 -0.000000 -0.000000 -2.318128
 27 0.000000 -1.748401 4.999999 0.000000 0.004007 1.602290
 28 5.500000 0.000000 0.000002 0.071576 -0.000000 0.000000
 29 -0.000002 -1.940598 5.000004 -0.044472 0.004003 -0.000180
 30 6.551490 -0.000001 -0.000001 -0.132356 -0.061534 -1.663558
 31 0.000001 -1.940598 5.000001 -0.027189 -0.053376 0.005295
 32 6.551490 -0.000001 -0.000001 -0.053241 -0.000114 -0.537040
 33 -0.000001 -1.940598 4.999996 -0.066572 -0.152786 -0.110311
 34 0.759709 -0.287846 -1.529791 2.181583 0.835726 -0.784868
 35 6.384776 -0.000001 0.000002 1.143479 0.577453 -1.040664
 36 10.242682 0.000000 -0.000000 0.000000 0.000000 -0.565430
 37 11.375561 0.000000 0.000001 2.332479 0.259870 0.251470
 38 0.728676 0.023431 1.008290 -1.539000 -0.370199 0.101110
 39 2.136490 -0.000000 0.000000 -0.000000 0.000000 0.287979
 40 2.313143 0.000001 -0.000000 0.000000 0.000000 3.141593
 41 3.115505 -0.886041 0.021432 0.495459 0.148146 0.639838
 42 2.011151 -0.000000 -0.000002 0.000000 -0.000000 2.038377
 43 2.141379 -0.000002 0.000004 0.000000 0.000000 3.141593
 44 1.734171 0.000000 -0.000002 0.000000 -0.000000 1.019987
 45 0.136314 -3.738192 2.525890 1.493698 2.759406 -1.474501
 46 5.031110 -0.189688 1.849661 -2.967941 -0.035742 1.570790
 47 11.389369 -0.000821 0.158779 1.941613 0.168152 0.109889
 48 -0.000001 -4.440598 -0.000002 1.570144 -3.078602 0.004040
 49 6.000001 -0.000001 -0.000001 1.941613 0.000000 -0.000000
 50 0.000003 -4.440602 -0.000000 1.569944 -3.078603 0.004053
 51 10.510132 -0.000001 -0.000002 0.000000 0.000000 -1.853511
 52 -0.000000 -1.748402 -5.000002 -3.141593 0.004007 -1.539299
 53 5.500000 0.000000 -0.000001 -0.391736 0.000000 -0.000000
 54 -0.000001 0.000001 -4.999997 -0.044472 3.137589 -0.000177
 55 6.551491 -0.000000 0.000001 0.391736 0.029221 -0.332338
 56 -1.266844 -1.937443 -4.950557 -0.066572 -2.988806 -0.110308
 57 6.551492 -0.000000 0.000001 0.391736 0.029221 -0.332338
 58 0.699371 -1.944208 -5.006847 -0.027189 -3.088217 0.005298
 59 4.226146 -0.003202 -0.000000 0.103758 0.231263 -0.123155
 60 0.000002 5.000000 -0.000001 -0.153564 0.000087 2.718702
 61 0.000004 -0.000004 -3.713580 0.365818 2.880119 -0.191589
 62 0.000002 -0.000000 5.000000 3.053196 1.558589 -0.074928
 63 -0.000007 0.000006 3.713580 -0.001619 -3.122277 -0.475127
 64 0.000002 -0.000001 -5.000000 -0.088726 1.558589 3.066334
 65 7.363602 1.646647 0.495663 3.141593 -1.570796 0.000000
 66 -0.000005 0.000007 3.619081 0.008255 -3.110080 -0.985231
 67 16.573919 0.000002 0.000000 0.000000 -0.000000 -1.065827
 68 15.128181 0.000000 -0.000000 -0.102296 0.010178 0.114297
 69 5.758665 4.244730 0.000000 0.000000 0.000000 1.667687
 70 3.177725 0.000000 -0.000000 0.000000 0.000000 3.141593
 71 15.708953 0.000001 0.000000 -0.051525 0.003996 0.061523
 72 0.275148 0.189215 -3.445207 3.130898 0.000409 -1.514604
 73 17.210192 0.000001 0.000000 0.000000 -0.000000 -1.893339
 74 0.000001 -0.000000 -5.000000 -0.079430 1.546568 -1.570855
 75 0.000002 -0.000003 -3.619081 0.577895 2.675801 -0.242118
 76 16.573921 -0.000001 -0.000002 -0.000000 -0.000000 -1.163030
 77 15.128181 0.000001 0.000001 0.089479 0.309197 0.659208
 78 5.758666 4.244730 -0.000001 -0.000000 -0.000000 1.815142
 79 4.003934 -0.000000 0.000001 0.000000 0.000000 0.000000
 80 15.708954 0.000001 0.000002 0.042277 0.226871 0.443133
 81 0.273998 0.191089 3.439762 -3.130907 -0.000437 -1.508107
 82 17.210194 -0.000001 -0.000002 0.000000 -0.000000 -1.937080
 83 -0.000000 -0.000001 5.000000 -0.079319 1.595025 -1.570742
time 6
  0 -0.650000 0.000000 33.899605 -0.025849 0.174554 -1.569172
  1 5.685104 0.833236 -32.227173 -0.174512 -0.026131 1.569196
  2 -2.276935 0.000003 -1.238188 -1.570795 -1.570451 0.000000
  3 1.796745 0.711891 0.000672 -0.230150 -0.446165 -0.022190
  4 4.118971 -0.003187 0.000681 -0.210686 0.106183 0.092331
  5 4.118970 -0.003187 0.000682 -0.213054 0.183612 0.075532
  6 4.119556 -0.003064 0.000676 -0.209904 0.147069 0.270988
  7 4.117616 -0.003345 -0.000595 0.188222 0.453873 -0.203973
  8 4.443597 0.000000 -0.000001 -0.955091 -0.286252 -0.219147
  9 9.024061 0.000000 -0.000000 0.000000 0.000000 0.000000
 10 -0.759713 0.294923 1.529789 1.065349 -1.191996 2.271739
 11 6.384776 0.000001 0.000003 -0.117067 -0.077207 -1.976966
 12 10.242682 0.000001 -0.000001 -0.000000 -0.000000 -1.494663
 13 11.375562 -0.000000 -0.000000 -3.119410 -0.085608 -0.072278
 14 0.728681 0.023431 -1.008292 2.038136 0.634975 1.094199
 15 2.136495 -0.000001 -0.000001 0.000000 0.000000 0.287979
 16 2.313139 0.000001 -0.000001 0.000000 0.000000 0.000000
 17 3.115506 -0.886041 -0.021429 -0.896369 -0.152156 0.318147
 18 2.011150 -0.000000 0.000000 0.000000 -0.000000 0.720653
 19 2.141378 0.000000 0.000000 0.000000 0.000000 0.000000
 20 1.734172 0.000003 -0.000002 0.000000 -0.000000 0.360540
 21 0.000004 -4.440594 -0.000001 1.570544 -0.062990 -0.195737
 22 6.000000 0.000000 -0.000003 -2.799635 -0.000000 0.000000
 23 0.000001 -4.440601 0.000001 1.569944 -0.062987 0.004053
 24 11.375561 -0.000000 0.000004 -2.344767 -0.029320 -0.063850
 25 -0.000002 -4.440602 -0.000001 1.570144 -0.062988 0.004040
 26 10.510130 0.000000 -0.000001 -0.000000 -0.000000 -2.318128
 27 0.000000 -1.748401 4.999999 0.000000 0.004007 1.602290
 28 5.500000 0.000000 0.000002 0.071576 -0.000000 0.000000
 29 -0.000002 -1.940598 5.000004 -0.044472 0.004003 -0.000180
 30 6.551490 -0.000001 -0.000001 -0.132356 -0.061534 -1.663558
 31 0.000001 -1.940598 5.000001 -0.027189 -0.053376 0.005295
 32 6.551490 -0.000001 -0.000001 -0.053241 -0.000114 -0.537040
 33 -0.000001 -1.940598 4.999996 -0.066572 -0.152786 -0.110311
 34 0.759709 -0.287846 -1.529791 2.181583 0.835726 -0.784868
 35 6.384776 -0.000001 0.000002 1.143479 0.577453 -1.040664
 36 10.242682 0.000000 -0.000000 0.000000 0.000000 -0.565430
 37 11.375561 0.000000 0.000001 2.332479 0.259870 0.251470
 38 0.728676 0.023431 1.008290 -1.539000 -0.370199 0.101110
 39 2.136490 -0.000000 0.000000 -0.000000 0.000000 0.287979
 40 2.313143 0.000001 -0.000000 0.000000 0.000000 3.141593
 41 3.115505 -0.886041 0.021432 0.495459 0.148146 0.639838
 42 2.011151 -0.000000 -0.000002 0.000000 -0.000000 2.038377
 43 2.141379 -0.000002 0.000004 0.000000 0.000000 3.141593
 44 1.734171 0.000000 -0.000002 0.000000 -0.000000 1.019987
 45 0.136314 -3.738192 2.525890 1.493698 2.759406 -1.474501
 46 5.031110 -0.189688 1.849661 -2.967941 -0.035742 1.570790
 47 11.389369 -0.000821 0.158779 1.941613 0.168152 0.109889
 48 -0.000001 -4.440598 -0.000002 1.570144 -3.078602 0.004040
 49 6.000001 -0.000001 -0.000001 1.941613 0.000000 -0.000000
 50 0.000003 -4.440602 -0.000000 1.569944 -3.078603 0.004053
 51 10.510132 -0.000001 -0.000002 0.000000 0.000000 -1.853511
 52 -0.000000 -1.748402 -5.000002 -3.141593 0.004007 -1.539299
 53 5.500000 0.000000 -0.000001 -0.391736 0.000000 -0.000000
 54 -0.000001 0.000001 -4.999997 -0.044472 3.137589 -0.000177
 55 6.551491 -0.000000 0.000001 0.391736 0.029221 -0.332338
 56 -1.266844 -1.937443 -4.950557 -0.066572 -2.988806 -0.110308
 57 6.551492 -0.000000 0.000001 0.391736 0.029221 -0.332338
 58 0.699371 -1.944208 -5.006847 -0.027189 -3.088217 0.005298
 59 4.226146 -0.003202 -0.000000 0.103758 0.231263 -0.123155
 60 0.000002 5.000000 -0.000001 -0.153564 0.000087 2.718702
 61 0.000004 -0.000004 -3.713580 0.365818 2.880119 -0.191589
 62 0.000002 -0.000000 5.000000 3.053196 1.558589 -0.074928
 63 -0.000007 0.000006 3.713580 -0.001619 -3.122277 -0.475127
 64 0.000002 -0.000001 -5.000000 -0.088726 1.558589 3.066334
 65 7.363602 1.646647 0.495663 3.141593 -1.570796 0.000000
 66 -0.000005 0.000007 3.619081 0.008255 -3.110080 -0.985231
 67 16.573919 0.000002 0.000000 0.000000 -0.000000 -1.065827
 68 15.128181 0.000000 -0.000000 -0.102296 0.010178 0.114297
 69 5.758665 4.244730 0.000000 0.000000 0.000000 1.667687
 70 3.177725 0.000000 -0.000000 0.000000 0.000000 3.141593
 71 15.708953 0.000001 0.000000 -0.051525 0.003996 0.061523
 72 0.275148 0.189215 -3.445207 3.130898 0.000409 -1.514604
 73 17.210192 0.000001 0.000000 0.000000 -0.000000 -1.893339
 74 0.000001 -0.000000 -5.000000 -0.079430 1.546568 -1.570855
 75 0.000002 -0.000003 -3.619081 0.577895 2.675801 -0.242118
 76 16.573921 -0.000001 -0.000002 -0.000000 -0.000000 -1.163030
 77 15.128181 0.000001 0.000001 0.089479 0.309197 0.659208
 78 5.758666 4.244730 -0.000001 -0.000000 -0.000000 1.815142
 79 4.003934 -0.000000 0.000001 0.000000 0.000000 0.000000
 80 15.708954 0.000001 0.000002 0.042277 0.226871 0.443133
 81 0.273998 0.191089 3.439762 -3.130907 -0.000437 -1.508107
 82 17.210194 -0.000001 -0.000002 0.000000 -0.000000 -1.937080
 83 -0.000000 -0.000001 5.000000 -0.079319 1.595025 -1.570742
end
