version 1
nodes
  0 "Bip01"  -1
  1 "Bip01 Footsteps"   0
  2 "Bip01 Pelvis"   0
  3 "Bip01 Spine"   2
  4 "Bip01 Spine1"   3
  5 "Bip01 Spine2"   4
  6 "Bip01 Spine3"   5
  7 "Bip01 Neck"   6
  8 "Bip01 Head"   7
  9 "Dummy21"   8
 10 "Bip01 L Clavicle"   7
 11 "Bip01 L UpperArm"  10
 12 "Bip01 L Forearm"  11
 13 "Bip01 L Hand"  12
 14 "Bip01 L Finger0"  13
 15 "Bip01 L Finger01"  14
 16 "Dummy06"  15
 17 "Bip01 L Finger1"  13
 18 "Bip01 L Finger11"  17
 19 "Dummy03"  18
 20 "-- L knuckle"  17
 21 "-- L knuckle_end"  20
 22 "-- L Forearm twist"  12
 23 "-- L Forearm twist_end"  22
 24 "-- L wrist"  12
 25 "-- L wrist_end"  24
 26 "-- L Elbow"  11
 27 "--L Elbow_end"  26
 28 "-- L bicep twist"  11
 29 "-- L bicep twist_end"  28
 30 "-- L shoulder outside"  10
 31 "-- L shoulder outside_end"  30
 32 "-- L Shoulder inside"  10
 33 "-- L Shoulder inside_end"  32
 34 "Bip01 R Clavicle"   7
 35 "Bip01 R UpperArm"  34
 36 "Bip01 R Forearm"  35
 37 "Bip01 R Hand"  36
 38 "Bip01 R Finger0"  37
 39 "Bip01 R Finger01"  38
 40 "Dummy01"  39
 41 "Bip01 R Finger1"  37
 42 "Bip01 R Finger11"  41
 43 "Dummy02"  42
 44 "-- R knuckle"  41
 45 "Point06"  44
 46 "Beretta Elite"  37
 47 "-- R wrist"  36
 48 "-- R wrist_end"  47
 49 "-- R forearm twist"  36
 50 "-- R forearm twist_end"  49
 51 "-- R Elbow"  35
 52 "--R Elbow_end"  51
 53 "-- R bicep twist"  35
 54 "-- R bicep twist_end"  53
 55 "-- R Shoulder inside"  34
 56 "-- R Shoulder inside_end"  55
 57 "-- R shoulder outside"  34
 58 "-- R shoulder outside_end"  57
 59 "-- Neck smooth"   6
 60 "-- neck smooth end"  59
 61 "-- R Butt"   2
 62 "--R Butt_end"  61
 63 "-- L butt"   2
 64 "--L butt_end"  63
 65 "GIGN01"   2
 66 "Bip01 L Thigh"   2
 67 "Bip01 L Calf"  66
 68 "Bip01 L Foot"  67
 69 "Bip01 L Toe0"  68
 70 "Dummy16"  69
 71 "-- L ankle"  67
 72 "-- L ankleend"  71
 73 "-- L Knee"  66
 74 "--L Knee_end"  73
 75 "Bip01 R Thigh"   2
 76 "Bip01 R Calf"  75
 77 "Bip01 R Foot"  76
 78 "Bip01 R Toe0"  77
 79 "Dummy11"  78
 80 "-- R Ankle"  76
 81 "-- R ankleend"  80
 82 "-- R Knee"  75
 83 "--R Knee_end"  82
end
skeleton
time 0
  0 -0.650000 0.000000 33.899605 -0.025849 0.174554 -1.569172
  1 5.685104 0.833236 -32.227173 -0.174512 -0.026131 1.569196
  2 -2.276935 0.000003 -1.238188 -1.570795 -1.570451 0.000000
  3 1.797460 0.711818 0.000194 -0.059947 -0.029368 0.099754
  4 4.119087 -0.003235 0.000246 -0.075108 0.007267 0.147239
  5 4.118373 -0.003264 0.000223 -0.068211 -0.005390 -0.070419
  6 4.118579 -0.003256 0.000382 -0.116929 0.066585 -0.013870
  7 4.118928 -0.003460 -0.000670 0.191511 0.099919 0.112288
  8 4.443597 0.000000 -0.000000 0.238926 0.034342 -0.323663
  9 9.024062 0.000000 0.000000 0.000000 0.000000 0.000000
 10 -0.172845 0.331699 1.692559 1.449123 -0.753096 1.529058
 11 6.384776 0.000001 0.000001 -1.313717 0.493801 -1.301757
 12 10.242683 0.000004 0.000001 -0.000000 0.000000 -2.033510
 13 11.375562 -0.000001 -0.000001 -2.348716 -0.098670 0.297847
 14 0.728683 0.023431 -1.008292 2.134854 0.825173 1.238425
 15 2.136495 -0.000002 0.000001 0.000000 0.000000 0.069813
 16 2.313138 0.000001 0.000002 0.000000 0.000000 0.000000
 17 3.115509 -0.886040 -0.021431 -0.428318 0.000355 0.462512
 18 2.011149 0.000000 0.000001 -0.000000 -0.000000 0.930092
 19 2.141381 -0.000003 -0.000001 0.000000 0.000000 0.000000
 20 1.734171 -0.000001 0.000001 -0.000000 0.000000 0.464590
 21 0.000007 -4.440595 -0.000001 1.570544 -0.062990 -0.195737
 22 5.999999 -0.000000 -0.000000 -2.163047 -0.000000 -0.000000
 23 0.000001 -4.440602 -0.000000 1.569944 -0.062987 0.004053
 24 11.375562 -0.000000 0.000003 -1.956450 -0.087203 0.155869
 25 -0.000002 -4.440603 -0.000000 1.570144 -0.062988 0.004040
 26 10.510131 0.000001 0.000001 0.000000 -0.000000 -2.587552
 27 0.000002 -1.748400 4.999998 0.000000 0.004007 1.602290
 28 5.500000 0.000001 0.000001 0.359499 -0.000000 -0.000000
 29 -0.000001 -1.940598 5.000000 -0.044472 0.004003 -0.000180
 30 6.551491 0.000000 -0.000001 -0.759084 0.447837 -0.700809
 31 -0.000001 -1.940598 5.000001 -0.027189 -0.053376 0.005295
 32 6.551491 0.000000 -0.000001 -0.284813 0.261368 -0.257068
 33 0.000002 -1.940599 4.999994 -0.066572 -0.152786 -0.110311
 34 0.172843 -0.324622 -1.692560 1.398898 1.459429 -1.849626
 35 6.384778 0.000000 -0.000002 0.187432 0.686298 -1.585315
 36 10.242683 -0.000000 -0.000001 0.000000 -0.000000 -1.216059
 37 11.375561 0.000001 -0.000001 3.028335 0.412108 0.847864
 38 0.728679 0.023431 1.008290 -1.539000 -0.370199 0.101110
 39 2.136495 0.000001 -0.000000 -0.000000 0.000000 0.287979
 40 2.313139 -0.000001 -0.000000 0.000000 0.000000 3.141593
 41 3.115508 -0.886041 0.021431 0.495459 0.148146 0.639838
 42 2.011152 0.000001 0.000002 0.000000 -0.000000 2.038377
 43 2.141378 -0.000001 0.000002 0.000000 0.000000 3.141593
 44 1.734172 0.000000 -0.000000 0.000000 0.000000 1.019987
 45 0.136315 -3.738192 2.525889 1.493698 2.759406 -1.474501
 46 5.031114 -0.189688 1.849663 -2.967941 -0.035742 1.570790
 47 11.389366 -0.000817 0.158781 2.231693 0.362520 0.319261
 48 0.000002 -4.440600 0.000001 1.570144 -3.078602 0.004040
 49 5.999999 0.000001 -0.000001 2.231693 0.000000 0.000000
 50 0.000003 -4.440601 0.000000 1.569944 -3.078603 0.004053
 51 10.510131 0.000000 0.000002 -0.000000 0.000000 -2.178826
 52 0.000000 -1.748399 -5.000004 -3.141593 0.004007 -1.539299
 53 5.500000 -0.000000 -0.000001 -0.199760 0.000000 0.000000
 54 0.000001 -0.000000 -5.000002 -0.044472 3.137589 -0.000177
 55 6.551491 0.000000 -0.000001 0.199760 0.146925 -0.452512
 56 -1.266844 -1.937444 -4.950558 -0.066572 -2.988806 -0.110308
 57 6.551492 0.000000 -0.000001 0.199760 0.146925 -0.452512
 58 0.699370 -1.944208 -5.006845 -0.027189 -3.088217 0.005298
 59 4.226148 -0.003202 0.000000 0.096117 0.056268 0.062291
 60 -0.000000 5.000000 -0.000000 -0.153564 0.000087 2.718702
 61 0.000004 -0.000004 -3.713580 0.365818 2.880119 -0.191589
 62 0.000002 -0.000000 5.000000 3.053196 1.558589 -0.074928
 63 -0.000007 0.000006 3.713580 -0.001619 -3.122277 -0.475127
 64 0.000002 -0.000001 -5.000000 -0.088726 1.558589 3.066334
 65 7.363602 1.646647 0.495663 3.141593 -1.570796 0.000000
 66 -0.000005 0.000007 3.619081 0.008255 -3.110080 -0.985231
 67 16.573919 0.000002 0.000000 0.000000 -0.000000 -1.065827
 68 15.128181 0.000000 -0.000000 -0.102296 0.010178 0.114297
 69 5.758665 4.244730 0.000000 0.000000 0.000000 1.667687
 70 3.177725 0.000000 -0.000000 0.000000 0.000000 3.141593
 71 15.708953 0.000001 0.000000 -0.051525 0.003996 0.061523
 72 0.275148 0.189215 -3.445207 3.130898 0.000409 -1.514604
 73 17.210192 0.000001 0.000000 0.000000 -0.000000 -1.893339
 74 0.000001 -0.000000 -5.000000 -0.079430 1.546568 -1.570855
 75 0.000002 -0.000003 -3.619081 0.577895 2.675801 -0.242118
 76 16.573921 -0.000001 -0.000002 -0.000000 -0.000000 -1.163030
 77 15.128181 0.000001 0.000001 0.089479 0.309197 0.659208
 78 5.758666 4.244730 -0.000001 -0.000000 -0.000000 1.815142
 79 4.003934 -0.000000 0.000001 0.000000 0.000000 0.000000
 80 15.708954 0.000001 0.000002 0.042277 0.226871 0.443133
 81 0.273998 0.191089 3.439762 -3.130907 -0.000437 -1.508107
 82 17.210194 -0.000001 -0.000002 0.000000 -0.000000 -1.937080
 83 -0.000000 -0.000001 5.000000 -0.079319 1.595025 -1.570742
time 1
  0 -0.650000 0.000000 33.899605 -0.025849 0.174554 -1.569172
  1 5.685104 0.833236 -32.227173 -0.174512 -0.026131 1.569196
  2 -2.276935 0.000003 -1.238188 -1.570795 -1.570451 0.000000
  3 1.797460 0.711818 0.000194 -0.059947 -0.029368 0.099754
  4 4.119106 -0.003235 0.000235 -0.071717 -0.000497 0.152660
  5 4.118386 -0.003265 0.000213 -0.064889 -0.013191 -0.065052
  6 4.118592 -0.003262 0.000334 -0.101968 0.042538 -0.006959
  7 4.118926 -0.003460 -0.000670 0.193443 0.170585 0.126185
  8 4.443596 0.000001 -0.000000 0.259259 0.004326 -0.360526
  9 9.024062 0.000000 -0.000000 0.000000 0.000000 0.000000
 10 -0.294148 0.331797 1.675723 1.350402 -0.753612 1.596621
 11 6.384777 0.000001 0.000002 -1.282408 0.415952 -1.318095
 12 10.242681 0.000001 0.000001 0.000000 -0.000000 -1.939525
 13 11.375558 0.000000 0.000001 -2.377106 -0.101320 0.308886
 14 0.728680 0.023432 -1.008292 2.134854 0.825173 1.238426
 15 2.136498 0.000001 0.000002 -0.000000 -0.000000 0.069813
 16 2.313138 0.000001 -0.000002 0.000000 0.000000 0.000000
 17 3.115505 -0.886042 -0.021431 -0.428318 0.000355 0.462512
 18 2.011147 -0.000001 0.000000 0.000000 0.000000 0.930092
 19 2.141381 0.000001 -0.000000 0.000000 0.000000 0.000000
 20 1.734172 0.000000 -0.000001 0.000000 -0.000000 0.464590
 21 0.000006 -4.440592 -0.000001 1.570544 -0.062990 -0.195737
 22 6.000000 0.000000 0.000001 -2.185316 -0.000000 0.000000
 23 0.000001 -4.440601 -0.000000 1.569944 -0.062987 0.004053
 24 11.375562 -0.000001 0.000003 -1.970363 -0.091007 0.160905
 25 0.000000 -4.440603 0.000000 1.570144 -0.062988 0.004040
 26 10.510130 0.000001 -0.000000 0.000000 0.000000 -2.540559
 27 0.000001 -1.748399 4.999999 -0.000000 0.004007 1.602290
 28 5.500000 0.000002 -0.000000 0.357302 0.000000 0.000000
 29 -0.000003 -1.940601 5.000001 -0.044472 0.004003 -0.000180
 30 6.551491 0.000001 0.000002 -0.744377 0.396462 -0.735112
 31 -0.000001 -1.940598 5.000004 -0.027189 -0.053376 0.005295
 32 6.551491 0.000001 0.000002 -0.283414 0.240950 -0.279348
 33 -0.000000 -1.940599 4.999997 -0.066572 -0.152786 -0.110311
 34 0.294143 -0.324717 -1.675723 2.301754 1.459730 -0.946497
 35 6.384777 0.000001 -0.000003 0.278156 0.700843 -1.479535
 36 10.242682 -0.000001 -0.000003 0.000000 0.000000 -1.217560
 37 11.375561 -0.000000 -0.000001 3.029568 0.386092 0.851035
 38 0.728681 0.023431 1.008293 -1.539000 -0.370199 0.101110
 39 2.136498 -0.000001 -0.000000 0.000000 0.000000 0.287979
 40 2.313138 -0.000002 -0.000000 0.000000 0.000000 3.141593
 41 3.115506 -0.886041 0.021433 0.495459 0.148146 0.639838
 42 2.011150 0.000001 0.000001 0.000000 -0.000000 2.038377
 43 2.141378 0.000000 0.000001 0.000000 0.000000 3.141593
 44 1.734173 -0.000001 0.000002 -0.000000 0.000000 1.019987
 45 0.136315 -3.738193 2.525893 1.493698 2.759406 -1.474501
 46 5.031113 -0.189688 1.849663 -2.967941 -0.035742 1.570790
 47 11.389366 -0.000820 0.158780 2.237507 0.351504 0.327757
 48 0.000002 -4.440597 -0.000000 1.570144 -3.078602 0.004040
 49 5.999999 -0.000001 0.000002 2.237507 0.000000 0.000000
 50 0.000002 -4.440603 0.000001 1.569944 -3.078603 0.004053
 51 10.510131 -0.000000 -0.000002 -0.000000 0.000000 -2.179576
 52 -0.000000 -1.748399 -5.000000 -3.141593 0.004007 -1.539299
 53 5.499999 -0.000000 -0.000002 -0.231570 -0.000000 0.000000
 54 0.000001 -0.000000 -4.999999 -0.044472 3.137589 -0.000177
 55 6.551491 0.000000 -0.000001 0.231570 0.134936 -0.423413
 56 -1.266844 -1.937443 -4.950560 -0.066572 -2.988806 -0.110308
 57 6.551491 -0.000000 -0.000001 0.231570 0.134936 -0.423413
 58 0.699370 -1.944208 -5.006848 -0.027189 -3.088217 0.005298
 59 4.226146 -0.003202 -0.000000 0.095852 0.094061 0.067708
 60 -0.000002 5.000001 -0.000000 -0.153564 0.000087 2.718702
 61 0.000004 -0.000004 -3.713580 0.365818 2.880119 -0.191589
 62 0.000002 -0.000000 5.000000 3.053196 1.558589 -0.074928
 63 -0.000007 0.000006 3.713580 -0.001619 -3.122277 -0.475127
 64 0.000002 -0.000001 -5.000000 -0.088726 1.558589 3.066334
 65 7.363602 1.646647 0.495663 3.141593 -1.570796 0.000000
 66 -0.000005 0.000007 3.619081 0.008255 -3.110080 -0.985231
 67 16.573919 0.000002 0.000000 0.000000 -0.000000 -1.065827
 68 15.128181 0.000000 -0.000000 -0.102296 0.010178 0.114297
 69 5.758665 4.244730 0.000000 0.000000 0.000000 1.667687
 70 3.177725 0.000000 -0.000000 0.000000 0.000000 3.141593
 71 15.708953 0.000001 0.000000 -0.051525 0.003996 0.061523
 72 0.275148 0.189215 -3.445207 3.130898 0.000409 -1.514604
 73 17.210192 0.000001 0.000000 0.000000 -0.000000 -1.893339
 74 0.000001 -0.000000 -5.000000 -0.079430 1.546568 -1.570855
 75 0.000002 -0.000003 -3.619081 0.577895 2.675801 -0.242118
 76 16.573921 -0.000001 -0.000002 -0.000000 -0.000000 -1.163030
 77 15.128181 0.000001 0.000001 0.089479 0.309197 0.659208
 78 5.758666 4.244730 -0.000001 -0.000000 -0.000000 1.815142
 79 4.003934 -0.000000 0.000001 0.000000 0.000000 0.000000
 80 15.708954 0.000001 0.000002 0.042277 0.226871 0.443133
 81 0.273998 0.191089 3.439762 -3.130907 -0.000437 -1.508107
 82 17.210194 -0.000001 -0.000002 0.000000 -0.000000 -1.937080
 83 -0.000000 -0.000001 5.000000 -0.079319 1.595025 -1.570742
time 2
  0 -0.650000 0.000000 33.899605 -0.025849 0.174554 -1.569172
  1 5.685104 0.833236 -32.227173 -0.174512 -0.026131 1.569196
  2 -2.276935 0.000003 -1.238188 -1.570795 -1.570451 0.000000
  3 1.797460 0.711818 0.000194 -0.059947 -0.029368 0.099754
  4 4.119118 -0.003232 0.000224 -0.068368 -0.008279 0.158054
  5 4.118404 -0.003268 0.000202 -0.061608 -0.021009 -0.059710
  6 4.118608 -0.003268 0.000286 -0.087184 0.018391 -0.000414
  7 4.118927 -0.003459 -0.000670 0.196414 0.241217 0.140428
  8 4.443600 -0.000001 -0.000001 0.282763 -0.024981 -0.398296
  9 9.024063 0.000000 -0.000000 0.000000 0.000000 0.000000
 10 -0.413918 0.331889 1.650205 1.252035 -0.749276 1.663805
 11 6.384776 0.000001 0.000001 -1.253696 0.342636 -1.338129
 12 10.242682 0.000000 0.000000 0.000000 0.000000 -1.844017
 13 11.375565 -0.000001 0.000000 -2.405607 -0.100236 0.314989
 14 0.728682 0.023432 -1.008292 2.134854 0.825173 1.238426
 15 2.136498 0.000001 0.000000 -0.000000 -0.000000 0.069813
 16 2.313139 -0.000000 0.000000 0.000000 0.000000 0.000000
 17 3.115507 -0.886040 -0.021431 -0.428318 0.000355 0.462512
 18 2.011148 0.000000 0.000000 0.000000 0.000000 0.930092
 19 2.141380 -0.000001 0.000000 0.000000 0.000000 0.000000
 20 1.734170 0.000000 -0.000000 -0.000000 -0.000000 0.464590
 21 0.000005 -4.440595 -0.000001 1.570544 -0.062990 -0.195737
 22 6.000002 -0.000000 0.000001 -2.207783 0.000000 -0.000000
 23 -0.000002 -4.440602 0.000001 1.569944 -0.062987 0.004053
 24 11.375565 -0.000001 0.000003 -1.984545 -0.092414 0.163786
 25 -0.000001 -4.440604 0.000001 1.570144 -0.062988 0.004040
 26 10.510129 -0.000002 0.000000 0.000000 0.000000 -2.492805
 27 -0.000001 -1.748401 5.000000 -0.000000 0.004007 1.602291
 28 5.499999 -0.000002 0.000001 0.356217 -0.000000 0.000000
 29 -0.000002 -1.940600 5.000000 -0.044472 0.004003 -0.000180
 30 6.551491 -0.000000 0.000001 -0.734776 0.351251 -0.770015
 31 -0.000001 -1.940598 5.000000 -0.027189 -0.053376 0.005295
 32 6.551491 -0.000000 0.000001 -0.282655 0.223089 -0.299651
 33 0.000001 -1.940599 4.999996 -0.066572 -0.152786 -0.110311
 34 0.413922 -0.324814 -1.650205 2.819370 1.394321 -0.427804
 35 6.384778 0.000001 -0.000002 0.371047 0.707612 -1.371498
 36 10.242682 -0.000001 0.000001 -0.000000 -0.000000 -1.219060
 37 11.375562 0.000001 0.000001 3.030699 0.360072 0.854140
 38 0.728680 0.023431 1.008292 -1.539000 -0.370199 0.101110
 39 2.136497 -0.000001 -0.000001 -0.000000 0.000000 0.287979
 40 2.313136 0.000001 -0.000000 0.000000 0.000000 3.141593
 41 3.115506 -0.886041 0.021430 0.495459 0.148146 0.639838
 42 2.011150 0.000001 -0.000002 -0.000000 0.000000 2.038377
 43 2.141379 0.000000 0.000002 0.000000 0.000000 3.141593
 44 1.734173 -0.000001 0.000000 -0.000000 -0.000000 1.019987
 45 0.136316 -3.738195 2.525893 1.493698 2.759406 -1.474501
 46 5.031114 -0.189688 1.849661 -2.967941 -0.035742 1.570790
 47 11.389365 -0.000820 0.158784 2.243133 0.340381 0.336127
 48 0.000003 -4.440601 0.000001 1.570144 -3.078602 0.004040
 49 6.000000 -0.000000 0.000002 2.243133 0.000000 0.000000
 50 0.000001 -4.440599 -0.000001 1.569944 -3.078603 0.004053
 51 10.510132 -0.000001 0.000000 0.000000 -0.000000 -2.180326
 52 -0.000000 -1.748400 -5.000000 -3.141593 0.004007 -1.539299
 53 5.500000 -0.000001 -0.000000 -0.255640 -0.000000 -0.000000
 54 -0.000000 0.000000 -5.000001 -0.044472 3.137590 -0.000177
 55 6.551491 0.000000 -0.000001 0.255640 0.121225 -0.393528
 56 -1.266843 -1.937444 -4.950558 -0.066572 -2.988806 -0.110308
 57 6.551492 0.000000 -0.000001 0.255640 0.121225 -0.393528
 58 0.699370 -1.944208 -5.006848 -0.027189 -3.088217 0.005298
 59 4.226148 -0.003201 0.000000 0.095697 0.131253 0.072890
 60 0.000002 5.000000 -0.000000 -0.153564 0.000087 2.718702
 61 0.000004 -0.000004 -3.713580 0.365818 2.880119 -0.191589
 62 0.000002 -0.000000 5.000000 3.053196 1.558589 -0.074928
 63 -0.000007 0.000006 3.713580 -0.001619 -3.122277 -0.475127
 64 0.000002 -0.000001 -5.000000 -0.088726 1.558589 3.066334
 65 7.363602 1.646647 0.495663 3.141593 -1.570796 0.000000
 66 -0.000005 0.000007 3.619081 0.008255 -3.110080 -0.985231
 67 16.573919 0.000002 0.000000 0.000000 -0.000000 -1.065827
 68 15.128181 0.000000 -0.000000 -0.102296 0.010178 0.114297
 69 5.758665 4.244730 0.000000 0.000000 0.000000 1.667687
 70 3.177725 0.000000 -0.000000 0.000000 0.000000 3.141593
 71 15.708953 0.000001 0.000000 -0.051525 0.003996 0.061523
 72 0.275148 0.189215 -3.445207 3.130898 0.000409 -1.514604
 73 17.210192 0.000001 0.000000 0.000000 -0.000000 -1.893339
 74 0.000001 -0.000000 -5.000000 -0.079430 1.546568 -1.570855
 75 0.000002 -0.000003 -3.619081 0.577895 2.675801 -0.242118
 76 16.573921 -0.000001 -0.000002 -0.000000 -0.000000 -1.163030
 77 15.128181 0.000001 0.000001 0.089479 0.309197 0.659208
 78 5.758666 4.244730 -0.000001 -0.000000 -0.000000 1.815142
 79 4.003934 -0.000000 0.000001 0.000000 0.000000 0.000000
 80 15.708954 0.000001 0.000002 0.042277 0.226871 0.443133
 81 0.273998 0.191089 3.439762 -3.130907 -0.000437 -1.508107
 82 17.210194 -0.000001 -0.000002 0.000000 -0.000000 -1.937080
 83 -0.000000 -0.000001 5.000000 -0.079319 1.595025 -1.570742
time 3
  0 -0.650000 0.000000 33.899605 -0.025849 0.174554 -1.569172
  1 5.685104 0.833236 -32.227173 -0.174512 -0.026131 1.569196
  2 -2.276935 0.000003 -1.238188 -1.570795 -1.570451 0.000000
  3 1.797460 0.711818 0.000194 -0.059947 -0.029368 0.099754
  4 4.119133 -0.003230 0.000213 -0.065061 -0.016079 0.163423
  5 4.118423 -0.003271 0.000191 -0.058368 -0.028845 -0.054392
  6 4.118616 -0.003270 0.000238 -0.072561 -0.005850 0.005773
  7 4.118924 -0.003459 -0.000671 0.200501 0.311801 0.155180
  8 4.443600 -0.000000 0.000000 0.309488 -0.053347 -0.437017
  9 9.024059 0.000000 -0.000000 0.000000 0.000000 0.000000
 10 -0.531549 0.331984 1.616137 1.154887 -0.740166 1.729677
 11 6.384777 0.000001 -0.000001 -1.226840 0.273141 -1.361589
 12 10.242682 0.000001 0.000002 -0.000000 -0.000000 -1.746922
 13 11.375559 -0.000001 0.000000 -2.433533 -0.095813 0.316824
 14 0.728683 0.023432 -1.008293 2.134854 0.825173 1.238426
 15 2.136496 -0.000000 0.000001 0.000000 0.000000 0.069813
 16 2.313141 0.000000 0.000001 0.000000 0.000000 0.000000
 17 3.115506 -0.886041 -0.021432 -0.428318 0.000355 0.462512
 18 2.011150 -0.000000 0.000001 -0.000000 -0.000000 0.930092
 19 2.141381 -0.000001 0.000000 0.000000 0.000000 0.000000
 20 1.734174 0.000000 -0.000000 0.000000 0.000000 0.464590
 21 0.000008 -4.440595 0.000000 1.570544 -0.062990 -0.195737
 22 6.000001 -0.000001 -0.000000 -2.229906 0.000000 -0.000000
 23 0.000003 -4.440601 0.000000 1.569944 -0.062987 0.004053
 24 11.375564 -0.000001 0.000004 -1.998639 -0.091626 0.164898
 25 0.000001 -4.440603 -0.000000 1.570144 -0.062988 0.004040
 26 10.510129 0.000000 0.000001 0.000000 -0.000000 -2.444257
 27 -0.000001 -1.748401 4.999998 -0.000000 0.004007 1.602291
 28 5.499999 0.000001 0.000001 0.356371 -0.000000 -0.000000
 29 -0.000001 -1.940598 5.000001 -0.044472 0.004003 -0.000180
 30 6.551491 0.000000 0.000002 -0.729854 0.310126 -0.807030
 31 0.000000 -1.940600 5.000003 -0.027189 -0.053376 0.005295
 32 6.551491 0.000000 0.000002 -0.282643 0.207216 -0.318948
 33 0.000001 -1.940599 4.999998 -0.066572 -0.152786 -0.110311
 34 0.531553 -0.324907 -1.616136 3.029264 1.308437 -0.216020
 35 6.384777 0.000000 -0.000001 0.464367 0.706471 -1.262868
 36 10.242681 -0.000001 -0.000003 0.000000 -0.000000 -1.220561
 37 11.375561 0.000002 -0.000001 3.031735 0.334049 0.857184
 38 0.728679 0.023431 1.008293 -1.539000 -0.370199 0.101110
 39 2.136495 0.000000 -0.000000 0.000000 0.000000 0.287979
 40 2.313140 0.000000 -0.000001 0.000000 0.000000 3.141593
 41 3.115506 -0.886041 0.021433 0.495459 0.148146 0.639838
 42 2.011151 0.000000 0.000003 0.000000 0.000000 2.038377
 43 2.141380 -0.000001 -0.000001 0.000000 0.000000 3.141593
 44 1.734173 -0.000001 0.000002 -0.000000 0.000000 1.019987
 45 0.136315 -3.738195 2.525892 1.493698 2.759406 -1.474501
 46 5.031111 -0.189688 1.849664 -2.967941 -0.035742 1.570790
 47 11.389366 -0.000819 0.158782 2.248574 0.329155 0.344374
 48 -0.000000 -4.440600 -0.000000 1.570144 -3.078602 0.004040
 49 6.000000 0.000001 -0.000000 2.248574 0.000000 0.000000
 50 0.000002 -4.440600 -0.000001 1.569944 -3.078603 0.004053
 51 10.510132 -0.000001 -0.000003 0.000000 0.000000 -2.181077
 52 -0.000000 -1.748400 -5.000000 -3.141593 0.004007 -1.539299
 53 5.500000 -0.000001 -0.000004 -0.272562 0.000000 -0.000000
 54 0.000001 -0.000000 -4.999998 -0.044472 3.137589 -0.000177
 55 6.551491 -0.000001 0.000002 0.272562 0.108210 -0.366858
 56 -1.266843 -1.937443 -4.950559 -0.066572 -2.988806 -0.110308
 57 6.551491 -0.000001 0.000002 0.272562 0.108210 -0.366858
 58 0.699370 -1.944208 -5.006846 -0.027189 -3.088217 0.005298
 59 4.226146 -0.003201 -0.000001 0.095617 0.167730 0.077845
 60 0.000001 5.000002 -0.000000 -0.153564 0.000087 2.718702
 61 0.000004 -0.000004 -3.713580 0.365818 2.880119 -0.191589
 62 0.000002 -0.000000 5.000000 3.053196 1.558589 -0.074928
 63 -0.000007 0.000006 3.713580 -0.001619 -3.122277 -0.475127
 64 0.000002 -0.000001 -5.000000 -0.088726 1.558589 3.066334
 65 7.363602 1.646647 0.495663 3.141593 -1.570796 0.000000
 66 -0.000005 0.000007 3.619081 0.008255 -3.110080 -0.985231
 67 16.573919 0.000002 0.000000 0.000000 -0.000000 -1.065827
 68 15.128181 0.000000 -0.000000 -0.102296 0.010178 0.114297
 69 5.758665 4.244730 0.000000 0.000000 0.000000 1.667687
 70 3.177725 0.000000 -0.000000 0.000000 0.000000 3.141593
 71 15.708953 0.000001 0.000000 -0.051525 0.003996 0.061523
 72 0.275148 0.189215 -3.445207 3.130898 0.000409 -1.514604
 73 17.210192 0.000001 0.000000 0.000000 -0.000000 -1.893339
 74 0.000001 -0.000000 -5.000000 -0.079430 1.546568 -1.570855
 75 0.000002 -0.000003 -3.619081 0.577895 2.675801 -0.242118
 76 16.573921 -0.000001 -0.000002 -0.000000 -0.000000 -1.163030
 77 15.128181 0.000001 0.000001 0.089479 0.309197 0.659208
 78 5.758666 4.244730 -0.000001 -0.000000 -0.000000 1.815142
 79 4.003934 -0.000000 0.000001 0.000000 0.000000 0.000000
 80 15.708954 0.000001 0.000002 0.042277 0.226871 0.443133
 81 0.273998 0.191089 3.439762 -3.130907 -0.000437 -1.508107
 82 17.210194 -0.000001 -0.000002 0.000000 -0.000000 -1.937080
 83 -0.000000 -0.000001 5.000000 -0.079319 1.595025 -1.570742
time 4
  0 -0.650000 0.000000 33.899605 -0.025849 0.174554 -1.569172
  1 5.685104 0.833236 -32.227173 -0.174512 -0.026131 1.569196
  2 -2.276935 0.000003 -1.238188 -1.570795 -1.570451 0.000000
  3 1.797460 0.711818 0.000194 -0.059947 -0.029368 0.099754
  4 4.119149 -0.003228 0.000202 -0.061796 -0.023897 0.168767
  5 4.118438 -0.003271 0.000180 -0.055169 -0.036698 -0.049099
  6 4.118634 -0.003273 0.000190 -0.058081 -0.030178 0.011607
  7 4.118929 -0.003460 -0.000671 0.205815 0.382316 0.170624
  8 4.443597 0.000000 -0.000001 0.339465 -0.080530 -0.476719
  9 9.024061 0.000000 0.000000 0.000000 0.000000 0.000000
 10 -0.646430 0.332078 1.573693 1.059742 -0.726448 1.793388
 11 6.384775 0.000001 0.000000 -1.201294 0.206887 -1.388332
 12 10.242682 -0.000002 -0.000000 0.000000 -0.000000 -1.648092
 13 11.375560 0.000000 0.000001 -2.460371 -0.088421 0.314862
 14 0.728680 0.023431 -1.008292 2.134854 0.825173 1.238426
 15 2.136497 0.000000 -0.000001 0.000000 -0.000000 0.069813
 16 2.313138 -0.000001 -0.000002 0.000000 0.000000 0.000000
 17 3.115506 -0.886041 -0.021431 -0.428318 0.000355 0.462512
 18 2.011152 -0.000000 -0.000001 0.000000 0.000000 0.930092
 19 2.141379 0.000000 0.000001 0.000000 0.000000 0.000000
 20 1.734172 0.000000 -0.000001 -0.000000 0.000000 0.464590
 21 0.000005 -4.440593 0.000001 1.570544 -0.062990 -0.195737
 22 5.999999 -0.000000 0.000000 -2.251261 0.000000 0.000000
 23 0.000002 -4.440602 0.000000 1.569944 -0.062987 0.004053
 24 11.375564 -0.000001 0.000003 -2.012363 -0.088810 0.164492
 25 -0.000000 -4.440603 0.000001 1.570144 -0.062988 0.004040
 26 10.510132 -0.000001 0.000000 -0.000000 0.000000 -2.394842
 27 -0.000000 -1.748399 4.999998 0.000000 0.004007 1.602290
 28 5.500000 -0.000001 -0.000000 0.357653 -0.000000 -0.000000
 29 -0.000001 -1.940599 5.000000 -0.044472 0.004003 -0.000180
 30 6.551491 0.000000 0.000000 -0.729009 0.271344 -0.847738
 31 -0.000000 -1.940599 5.000000 -0.027189 -0.053376 0.005295
 32 6.551491 0.000000 0.000000 -0.283269 0.192809 -0.338039
 33 -0.000001 -1.940600 4.999998 -0.066572 -0.152786 -0.110311
 34 0.646427 -0.324999 -1.573695 3.132075 1.216680 -0.110485
 35 6.384776 0.000000 -0.000002 0.556336 0.697508 -1.155351
 36 10.242683 -0.000001 0.000001 -0.000000 -0.000000 -1.222061
 37 11.375560 -0.000000 -0.000000 3.032679 0.308023 0.860174
 38 0.728682 0.023431 1.008293 -1.539000 -0.370199 0.101110
 39 2.136496 0.000001 -0.000000 -0.000000 0.000000 0.287979
 40 2.313140 0.000000 -0.000000 0.000000 0.000000 3.141593
 41 3.115509 -0.886041 0.021433 0.495459 0.148146 0.639838
 42 2.011152 -0.000001 -0.000001 -0.000000 0.000000 2.038377
 43 2.141380 0.000000 -0.000001 0.000000 0.000000 3.141593
 44 1.734172 -0.000001 -0.000001 -0.000000 0.000000 1.019987
 45 0.136315 -3.738193 2.525889 1.493698 2.759406 -1.474501
 46 5.031115 -0.189688 1.849662 -2.967941 -0.035742 1.570790
 47 11.389367 -0.000819 0.158781 2.253831 0.317828 0.352498
 48 0.000000 -4.440598 -0.000000 1.570144 -3.078602 0.004040
 49 6.000000 0.000000 -0.000001 2.253830 0.000000 -0.000000
 50 0.000001 -4.440599 -0.000002 1.569944 -3.078603 0.004053
 51 10.510133 -0.000001 -0.000000 0.000000 -0.000000 -2.181827
 52 -0.000000 -1.748398 -5.000002 3.141593 0.004007 -1.539299
 53 5.500001 0.000000 -0.000000 -0.284865 0.000000 0.000000
 54 0.000000 0.000000 -4.999998 -0.044472 3.137589 -0.000177
 55 6.551490 0.000000 -0.000001 0.284865 0.096982 -0.344450
 56 -1.266844 -1.937443 -4.950560 -0.066572 -2.988806 -0.110308
 57 6.551491 0.000000 -0.000001 0.284865 0.096982 -0.344450
 58 0.699371 -1.944208 -5.006845 -0.027189 -3.088217 0.005298
 59 4.226149 -0.003201 -0.000000 0.095579 0.203454 0.082600
 60 0.000000 5.000001 -0.000000 -0.153564 0.000087 2.718702
 61 0.000004 -0.000004 -3.713580 0.365818 2.880119 -0.191589
 62 0.000002 -0.000000 5.000000 3.053196 1.558589 -0.074928
 63 -0.000007 0.000006 3.713580 -0.001619 -3.122277 -0.475127
 64 0.000002 -0.000001 -5.000000 -0.088726 1.558589 3.066334
 65 7.363602 1.646647 0.495663 3.141593 -1.570796 0.000000
 66 -0.000005 0.000007 3.619081 0.008255 -3.110080 -0.985231
 67 16.573919 0.000002 0.000000 0.000000 -0.000000 -1.065827
 68 15.128181 0.000000 -0.000000 -0.102296 0.010178 0.114297
 69 5.758665 4.244730 0.000000 0.000000 0.000000 1.667687
 70 3.177725 0.000000 -0.000000 0.000000 0.000000 3.141593
 71 15.708953 0.000001 0.000000 -0.051525 0.003996 0.061523
 72 0.275148 0.189215 -3.445207 3.130898 0.000409 -1.514604
 73 17.210192 0.000001 0.000000 0.000000 -0.000000 -1.893339
 74 0.000001 -0.000000 -5.000000 -0.079430 1.546568 -1.570855
 75 0.000002 -0.000003 -3.619081 0.577895 2.675801 -0.242118
 76 16.573921 -0.000001 -0.000002 -0.000000 -0.000000 -1.163030
 77 15.128181 0.000001 0.000001 0.089479 0.309197 0.659208
 78 5.758666 4.244730 -0.000001 -0.000000 -0.000000 1.815142
 79 4.003934 -0.000000 0.000001 0.000000 0.000000 0.000000
 80 15.708954 0.000001 0.000002 0.042277 0.226871 0.443133
 81 0.273998 0.191089 3.439762 -3.130907 -0.000437 -1.508107
 82 17.210194 -0.000001 -0.000002 0.000000 -0.000000 -1.937080
 83 -0.000000 -0.000001 5.000000 -0.079319 1.595025 -1.570742
time 5
  0 -0.650000 0.000000 33.899605 -0.025849 0.174554 -1.569172
  1 5.685104 0.833236 -32.227173 -0.174512 -0.026131 1.569196
  2 -2.276935 0.000003 -1.238188 -1.570795 -1.570451 0.000000
  3 1.797460 0.711818 0.000194 -0.059947 -0.029368 0.099754
  4 4.119149 -0.003228 0.000202 -0.061796 -0.023897 0.168767
  5 4.118438 -0.003271 0.000180 -0.055169 -0.036698 -0.049099
  6 4.118634 -0.003273 0.000190 -0.058081 -0.030178 0.011607
  7 4.118929 -0.003460 -0.000671 0.205815 0.382316 0.170624
  8 4.443597 0.000000 -0.000001 0.339465 -0.080530 -0.476719
  9 9.024061 0.000000 0.000000 0.000000 0.000000 0.000000
 10 -0.646430 0.332078 1.573693 1.059742 -0.726448 1.793388
 11 6.384775 0.000001 0.000000 -1.201294 0.206887 -1.388332
 12 10.242682 -0.000002 -0.000000 0.000000 -0.000000 -1.648092
 13 11.375560 0.000000 0.000001 -2.460371 -0.088421 0.314862
 14 0.728680 0.023431 -1.008292 2.134854 0.825173 1.238426
 15 2.136497 0.000000 -0.000001 0.000000 -0.000000 0.069813
 16 2.313138 -0.000001 -0.000002 0.000000 0.000000 0.000000
 17 3.115506 -0.886041 -0.021431 -0.428318 0.000355 0.462512
 18 2.011152 -0.000000 -0.000001 0.000000 0.000000 0.930092
 19 2.141379 0.000000 0.000001 0.000000 0.000000 0.000000
 20 1.734172 0.000000 -0.000001 -0.000000 0.000000 0.464590
 21 0.000005 -4.440593 0.000001 1.570544 -0.062990 -0.195737
 22 5.999999 -0.000000 0.000000 -2.251261 0.000000 0.000000
 23 0.000002 -4.440602 0.000000 1.569944 -0.062987 0.004053
 24 11.375564 -0.000001 0.000003 -2.012363 -0.088810 0.164492
 25 -0.000000 -4.440603 0.000001 1.570144 -0.062988 0.004040
 26 10.510132 -0.000001 0.000000 -0.000000 0.000000 -2.394842
 27 -0.000000 -1.748399 4.999998 0.000000 0.004007 1.602290
 28 5.500000 -0.000001 -0.000000 0.357653 -0.000000 -0.000000
 29 -0.000001 -1.940599 5.000000 -0.044472 0.004003 -0.000180
 30 6.551491 0.000000 0.000000 -0.729009 0.271344 -0.847738
 31 -0.000000 -1.940599 5.000000 -0.027189 -0.053376 0.005295
 32 6.551491 0.000000 0.000000 -0.283269 0.192809 -0.338039
 33 -0.000001 -1.940600 4.999998 -0.066572 -0.152786 -0.110311
 34 0.646427 -0.324999 -1.573695 3.132075 1.216680 -0.110485
 35 6.384776 0.000000 -0.000002 0.556336 0.697508 -1.155351
 36 10.242683 -0.000001 0.000001 -0.000000 -0.000000 -1.222061
 37 11.375560 -0.000000 -0.000000 3.032679 0.308023 0.860174
 38 0.728682 0.023431 1.008293 -1.539000 -0.370199 0.101110
 39 2.136496 0.000001 -0.000000 -0.000000 0.000000 0.287979
 40 2.313140 0.000000 -0.000000 0.000000 0.000000 3.141593
 41 3.115509 -0.886041 0.021433 0.495459 0.148146 0.639838
 42 2.011152 -0.000001 -0.000001 -0.000000 0.000000 2.038377
 43 2.141380 0.000000 -0.000001 0.000000 0.000000 3.141593
 44 1.734172 -0.000001 -0.000001 -0.000000 0.000000 1.019987
 45 0.136315 -3.738193 2.525889 1.493698 2.759406 -1.474501
 46 5.031115 -0.189688 1.849662 -2.967941 -0.035742 1.570790
 47 11.389367 -0.000819 0.158781 2.253831 0.317828 0.352498
 48 0.000000 -4.440598 -0.000000 1.570144 -3.078602 0.004040
 49 6.000000 0.000000 -0.000001 2.253830 0.000000 -0.000000
 50 0.000001 -4.440599 -0.000002 1.569944 -3.078603 0.004053
 51 10.510133 -0.000001 -0.000000 0.000000 -0.000000 -2.181827
 52 -0.000000 -1.748398 -5.000002 3.141593 0.004007 -1.539299
 53 5.500001 0.000000 -0.000000 -0.284865 0.000000 0.000000
 54 0.000000 0.000000 -4.999998 -0.044472 3.137589 -0.000177
 55 6.551490 0.000000 -0.000001 0.284865 0.096982 -0.344450
 56 -1.266844 -1.937443 -4.950560 -0.066572 -2.988806 -0.110308
 57 6.551491 0.000000 -0.000001 0.284865 0.096982 -0.344450
 58 0.699371 -1.944208 -5.006845 -0.027189 -3.088217 0.005298
 59 4.226149 -0.003201 -0.000000 0.095579 0.203454 0.082600
 60 0.000000 5.000001 -0.000000 -0.153564 0.000087 2.718702
 61 0.000004 -0.000004 -3.713580 0.365818 2.880119 -0.191589
 62 0.000002 -0.000000 5.000000 3.053196 1.558589 -0.074928
 63 -0.000007 0.000006 3.713580 -0.001619 -3.122277 -0.475127
 64 0.000002 -0.000001 -5.000000 -0.088726 1.558589 3.066334
 65 7.363602 1.646647 0.495663 3.141593 -1.570796 0.000000
 66 -0.000005 0.000007 3.619081 0.008255 -3.110080 -0.985231
 67 16.573919 0.000002 0.000000 0.000000 -0.000000 -1.065827
 68 15.128181 0.000000 -0.000000 -0.102296 0.010178 0.114297
 69 5.758665 4.244730 0.000000 0.000000 0.000000 1.667687
 70 3.177725 0.000000 -0.000000 0.000000 0.000000 3.141593
 71 15.708953 0.000001 0.000000 -0.051525 0.003996 0.061523
 72 0.275148 0.189215 -3.445207 3.130898 0.000409 -1.514604
 73 17.210192 0.000001 0.000000 0.000000 -0.000000 -1.893339
 74 0.000001 -0.000000 -5.000000 -0.079430 1.546568 -1.570855
 75 0.000002 -0.000003 -3.619081 0.577895 2.675801 -0.242118
 76 16.573921 -0.000001 -0.000002 -0.000000 -0.000000 -1.163030
 77 15.128181 0.000001 0.000001 0.089479 0.309197 0.659208
 78 5.758666 4.244730 -0.000001 -0.000000 -0.000000 1.815142
 79 4.003934 -0.000000 0.000001 0.000000 0.000000 0.000000
 80 15.708954 0.000001 0.000002 0.042277 0.226871 0.443133
 81 0.273998 0.191089 3.439762 -3.130907 -0.000437 -1.508107
 82 17.210194 -0.000001 -0.000002 0.000000 -0.000000 -1.937080
 83 -0.000000 -0.000001 5.000000 -0.079319 1.595025 -1.570742
time 6
  0 -0.650000 0.000000 33.899605 -0.025849 0.174554 -1.569172
  1 5.685104 0.833236 -32.227173 -0.174512 -0.026131 1.569196
  2 -2.276935 0.000003 -1.238188 -1.570795 -1.570451 0.000000
  3 1.797460 0.711818 0.000194 -0.059947 -0.029368 0.099754
  4 4.119149 -0.003228 0.000202 -0.061796 -0.023897 0.168767
  5 4.118438 -0.003271 0.000180 -0.055169 -0.036698 -0.049099
  6 4.118634 -0.003273 0.000190 -0.058081 -0.030178 0.011607
  7 4.118929 -0.003460 -0.000671 0.205815 0.382316 0.170624
  8 4.443597 0.000000 -0.000001 0.339465 -0.080530 -0.476719
  9 9.024061 0.000000 0.000000 0.000000 0.000000 0.000000
 10 -0.646430 0.332078 1.573693 1.059742 -0.726448 1.793388
 11 6.384775 0.000001 0.000000 -1.201294 0.206887 -1.388332
 12 10.242682 -0.000002 -0.000000 0.000000 -0.000000 -1.648092
 13 11.375560 0.000000 0.000001 -2.460371 -0.088421 0.314862
 14 0.728680 0.023431 -1.008292 2.134854 0.825173 1.238426
 15 2.136497 0.000000 -0.000001 0.000000 -0.000000 0.069813
 16 2.313138 -0.000001 -0.000002 0.000000 0.000000 0.000000
 17 3.115506 -0.886041 -0.021431 -0.428318 0.000355 0.462512
 18 2.011152 -0.000000 -0.000001 0.000000 0.000000 0.930092
 19 2.141379 0.000000 0.000001 0.000000 0.000000 0.000000
 20 1.734172 0.000000 -0.000001 -0.000000 0.000000 0.464590
 21 0.000005 -4.440593 0.000001 1.570544 -0.062990 -0.195737
 22 5.999999 -0.000000 0.000000 -2.251261 0.000000 0.000000
 23 0.000002 -4.440602 0.000000 1.569944 -0.062987 0.004053
 24 11.375564 -0.000001 0.000003 -2.012363 -0.088810 0.164492
 25 -0.000000 -4.440603 0.000001 1.570144 -0.062988 0.004040
 26 10.510132 -0.000001 0.000000 -0.000000 0.000000 -2.394842
 27 -0.000000 -1.748399 4.999998 0.000000 0.004007 1.602290
 28 5.500000 -0.000001 -0.000000 0.357653 -0.000000 -0.000000
 29 -0.000001 -1.940599 5.000000 -0.044472 0.004003 -0.000180
 30 6.551491 0.000000 0.000000 -0.729009 0.271344 -0.847738
 31 -0.000000 -1.940599 5.000000 -0.027189 -0.053376 0.005295
 32 6.551491 0.000000 0.000000 -0.283269 0.192809 -0.338039
 33 -0.000001 -1.940600 4.999998 -0.066572 -0.152786 -0.110311
 34 0.646427 -0.324999 -1.573695 3.132075 1.216680 -0.110485
 35 6.384776 0.000000 -0.000002 0.556336 0.697508 -1.155351
 36 10.242683 -0.000001 0.000001 -0.000000 -0.000000 -1.222061
 37 11.375560 -0.000000 -0.000000 3.032679 0.308023 0.860174
 38 0.728682 0.023431 1.008293 -1.539000 -0.370199 0.101110
 39 2.136496 0.000001 -0.000000 -0.000000 0.000000 0.287979
 40 2.313140 0.000000 -0.000000 0.000000 0.000000 3.141593
 41 3.115509 -0.886041 0.021433 0.495459 0.148146 0.639838
 42 2.011152 -0.000001 -0.000001 -0.000000 0.000000 2.038377
 43 2.141380 0.000000 -0.000001 0.000000 0.000000 3.141593
 44 1.734172 -0.000001 -0.000001 -0.000000 0.000000 1.019987
 45 0.136315 -3.738193 2.525889 1.493698 2.759406 -1.474501
 46 5.031115 -0.189688 1.849662 -2.967941 -0.035742 1.570790
 47 11.389367 -0.000819 0.158781 2.253831 0.317828 0.352498
 48 0.000000 -4.440598 -0.000000 1.570144 -3.078602 0.004040
 49 6.000000 0.000000 -0.000001 2.253830 0.000000 -0.000000
 50 0.000001 -4.440599 -0.000002 1.569944 -3.078603 0.004053
 51 10.510133 -0.000001 -0.000000 0.000000 -0.000000 -2.181827
 52 -0.000000 -1.748398 -5.000002 3.141593 0.004007 -1.539299
 53 5.500001 0.000000 -0.000000 -0.284865 0.000000 0.000000
 54 0.000000 0.000000 -4.999998 -0.044472 3.137589 -0.000177
 55 6.551490 0.000000 -0.000001 0.284865 0.096982 -0.344450
 56 -1.266844 -1.937443 -4.950560 -0.066572 -2.988806 -0.110308
 57 6.551491 0.000000 -0.000001 0.284865 0.096982 -0.344450
 58 0.699371 -1.944208 -5.006845 -0.027189 -3.088217 0.005298
 59 4.226149 -0.003201 -0.000000 0.095579 0.203454 0.082600
 60 0.000000 5.000001 -0.000000 -0.153564 0.000087 2.718702
 61 0.000004 -0.000004 -3.713580 0.365818 2.880119 -0.191589
 62 0.000002 -0.000000 5.000000 3.053196 1.558589 -0.074928
 63 -0.000007 0.000006 3.713580 -0.001619 -3.122277 -0.475127
 64 0.000002 -0.000001 -5.000000 -0.088726 1.558589 3.066334
 65 7.363602 1.646647 0.495663 3.141593 -1.570796 0.000000
 66 -0.000005 0.000007 3.619081 0.008255 -3.110080 -0.985231
 67 16.573919 0.000002 0.000000 0.000000 -0.000000 -1.065827
 68 15.128181 0.000000 -0.000000 -0.102296 0.010178 0.114297
 69 5.758665 4.244730 0.000000 0.000000 0.000000 1.667687
 70 3.177725 0.000000 -0.000000 0.000000 0.000000 3.141593
 71 15.708953 0.000001 0.000000 -0.051525 0.003996 0.061523
 72 0.275148 0.189215 -3.445207 3.130898 0.000409 -1.514604
 73 17.210192 0.000001 0.000000 0.000000 -0.000000 -1.893339
 74 0.000001 -0.000000 -5.000000 -0.079430 1.546568 -1.570855
 75 0.000002 -0.000003 -3.619081 0.577895 2.675801 -0.242118
 76 16.573921 -0.000001 -0.000002 -0.000000 -0.000000 -1.163030
 77 15.128181 0.000001 0.000001 0.089479 0.309197 0.659208
 78 5.758666 4.244730 -0.000001 -0.000000 -0.000000 1.815142
 79 4.003934 -0.000000 0.000001 0.000000 0.000000 0.000000
 80 15.708954 0.000001 0.000002 0.042277 0.226871 0.443133
 81 0.273998 0.191089 3.439762 -3.130907 -0.000437 -1.508107
 82 17.210194 -0.000001 -0.000002 0.000000 -0.000000 -1.937080
 83 -0.000000 -0.000001 5.000000 -0.079319 1.595025 -1.570742
end
