version 1
nodes
  0 "Bip01"  -1
  1 "Bip01 Footsteps"   0
  2 "Bip01 Pelvis"   0
  3 "Bip01 Spine"   2
  4 "Bip01 Spine1"   3
  5 "Bip01 Spine2"   4
  6 "Bip01 Spine3"   5
  7 "Bip01 Neck"   6
  8 "Bip01 Head"   7
  9 "Dummy21"   8
 10 "Bip01 L Clavicle"   7
 11 "Bip01 L UpperArm"  10
 12 "Bip01 L Forearm"  11
 13 "Bip01 L Hand"  12
 14 "Bip01 L Finger0"  13
 15 "Bip01 L Finger01"  14
 16 "Dummy06"  15
 17 "Bip01 L Finger1"  13
 18 "Bip01 L Finger11"  17
 19 "Dummy03"  18
 20 "-- L knuckle"  17
 21 "-- L knuckle_end"  20
 22 "-- L Forearm twist"  12
 23 "-- L Forearm twist_end"  22
 24 "-- L wrist"  12
 25 "-- L wrist_end"  24
 26 "-- L Elbow"  11
 27 "--L Elbow_end"  26
 28 "-- L bicep twist"  11
 29 "-- L bicep twist_end"  28
 30 "-- L shoulder outside"  10
 31 "-- L shoulder outside_end"  30
 32 "-- L Shoulder inside"  10
 33 "-- L Shoulder inside_end"  32
 34 "Bip01 R Clavicle"   7
 35 "Bip01 R UpperArm"  34
 36 "Bip01 R Forearm"  35
 37 "Bip01 R Hand"  36
 38 "Bip01 R Finger0"  37
 39 "Bip01 R Finger01"  38
 40 "Dummy01"  39
 41 "Bip01 R Finger1"  37
 42 "Bip01 R Finger11"  41
 43 "Dummy02"  42
 44 "-- R knuckle"  41
 45 "Point06"  44
 46 "Line01"  37
 47 "-- R wrist"  36
 48 "-- R wrist_end"  47
 49 "-- R forearm twist"  36
 50 "-- R forearm twist_end"  49
 51 "-- R Elbow"  35
 52 "--R Elbow_end"  51
 53 "-- R bicep twist"  35
 54 "-- R bicep twist_end"  53
 55 "-- R Shoulder inside"  34
 56 "-- R Shoulder inside_end"  55
 57 "-- R shoulder outside"  34
 58 "-- R shoulder outside_end"  57
 59 "-- Neck smooth"   6
 60 "-- neck smooth end"  59
 61 "-- R Butt"   2
 62 "--R Butt_end"  61
 63 "-- L butt"   2
 64 "--L butt_end"  63
 65 "GIGN01"   2
 66 "Bip01 L Thigh"   2
 67 "Bip01 L Calf"  66
 68 "Bip01 L Foot"  67
 69 "Bip01 L Toe0"  68
 70 "Dummy16"  69
 71 "-- L ankle"  67
 72 "-- L ankleend"  71
 73 "-- L Knee"  66
 74 "--L Knee_end"  73
 75 "Bip01 R Thigh"   2
 76 "Bip01 R Calf"  75
 77 "Bip01 R Foot"  76
 78 "Bip01 R Toe0"  77
 79 "Dummy11"  78
 80 "-- R Ankle"  76
 81 "-- R ankleend"  80
 82 "-- R Knee"  75
 83 "--R Knee_end"  82
end
skeleton
time 0
  0 -0.650000 0.000000 33.899605 -0.025849 0.174554 -1.569172
  1 5.685104 0.833236 -32.227173 -0.174512 -0.026131 1.569196
  2 -2.276935 0.000003 -1.238188 -1.570795 -1.570451 0.000000
  3 1.797058 0.711853 0.000596 -0.189492 -0.247572 0.021258
  4 4.119884 -0.002962 0.000585 -0.180613 0.113498 0.387716
  5 4.118975 -0.003202 0.000606 -0.186873 0.104192 0.095942
  6 4.118629 -0.003219 0.000627 -0.192570 0.042479 0.000377
  7 4.118564 -0.003526 -0.000287 0.082095 -0.155035 -0.024283
  8 4.443598 -0.000001 0.000000 0.722808 -0.397401 0.502156
  9 9.024060 0.000001 -0.000000 0.000000 0.000000 0.000000
 10 0.267559 0.143915 1.706172 2.003534 -1.188509 1.176519
 11 6.384777 0.000000 -0.000002 1.173931 1.830122 1.427608
 12 10.242681 0.000000 0.000000 0.000000 0.000000 -1.045923
 13 11.375561 0.000002 0.000002 -3.140107 0.432064 -0.358087
 14 0.728680 0.023430 -1.008292 2.396606 0.246960 1.180207
 15 2.136497 -0.000000 -0.000001 -0.000000 0.000000 -0.078540
 16 2.313139 -0.000000 0.000000 0.000000 0.000000 0.000000
 17 3.115507 -0.886041 -0.021431 -0.166499 0.000392 0.514872
 18 2.011150 -0.000000 -0.000000 -0.000000 0.000000 1.322792
 19 2.141378 0.000000 0.000001 0.000000 0.000000 0.000000
 20 1.734172 -0.000000 0.000000 0.000000 -0.000000 0.660693
 21 0.000006 -4.440593 -0.000000 1.570544 -0.062990 -0.195737
 22 5.999999 -0.000001 -0.000000 -2.795730 -0.000000 -0.000000
 23 0.000002 -4.440602 0.000000 1.569944 -0.062987 0.004053
 24 11.375561 0.000001 0.000004 -2.310066 0.307698 -0.083941
 25 -0.000000 -4.440603 -0.000001 1.570144 -0.062988 0.004040
 26 10.510130 0.000000 0.000000 -0.000000 0.000000 -2.093758
 27 0.000001 -1.748400 4.999999 -0.000000 0.004007 1.602291
 28 5.499999 -0.000000 0.000001 0.231637 -0.000000 0.000000
 29 -0.000002 -1.940598 5.000000 -0.044472 0.004003 -0.000180
 30 6.551492 0.000000 -0.000003 -0.684027 1.143477 -0.307135
 31 0.000002 -1.940598 5.000000 -0.027189 -0.053376 0.005295
 32 6.551492 0.000000 -0.000003 -0.178494 0.475054 0.002671
 33 -0.000001 -1.940599 5.000000 -0.066572 -0.152786 -0.110311
 34 -0.267557 -0.136841 -1.706173 0.305187 1.306944 -2.823078
 35 6.384777 0.000002 -0.000004 -1.030711 -0.387213 -0.237729
 36 10.242682 -0.000003 0.000001 -0.000000 0.000000 -1.920180
 37 11.375562 0.000002 -0.000001 2.243158 0.470871 0.053898
 38 0.728683 0.023431 1.008291 -1.579583 -0.319038 0.212973
 39 2.136495 -0.000002 0.000000 -0.000000 0.000000 1.282817
 40 2.313139 -0.000000 0.000000 0.000000 0.000000 3.141593
 41 3.115508 -0.886041 0.021432 0.708959 0.171755 0.347804
 42 2.011152 -0.000001 0.000000 0.000000 -0.000000 2.082010
 43 2.141380 0.000001 0.000000 0.000000 0.000000 3.141593
 44 1.734172 -0.000000 0.000000 0.000000 0.000000 1.041748
 45 0.136316 -3.738194 2.525890 1.493698 2.759406 -1.474501
 46 5.613160 0.862367 3.157032 1.595152 -0.135386 0.061522
 47 11.389367 -0.000818 0.158780 1.893801 0.257686 -0.018150
 48 0.000002 -4.440599 0.000000 1.570144 -3.078602 0.004040
 49 6.000000 0.000001 -0.000001 1.893801 -0.000000 0.000000
 50 0.000004 -4.440601 -0.000000 1.569944 -3.078603 0.004053
 51 10.510131 -0.000002 0.000002 0.000000 0.000000 -2.530886
 52 0.000002 -1.748400 -5.000001 3.141593 0.004007 -1.539299
 53 5.500000 -0.000001 0.000000 0.306537 -0.000000 -0.000000
 54 -0.000000 -0.000001 -5.000000 -0.044472 3.137589 -0.000177
 55 6.551490 -0.000000 -0.000000 -0.306537 -0.105729 -0.166294
 56 -1.266843 -1.937443 -4.950558 -0.066572 -2.988806 -0.110308
 57 6.551491 -0.000001 -0.000000 -0.306537 -0.105729 -0.166294
 58 0.699371 -1.944205 -5.006847 -0.027189 -3.088217 0.005298
 59 4.226147 -0.003200 -0.000000 0.041326 -0.083383 -0.012173
 60 -0.000001 5.000001 0.000000 -0.153564 0.000087 2.718702
 61 0.000004 -0.000004 -3.713580 0.365818 2.880119 -0.191589
 62 0.000002 -0.000000 5.000000 3.053196 1.558589 -0.074928
 63 -0.000007 0.000006 3.713580 -0.001619 -3.122277 -0.475127
 64 0.000002 -0.000001 -5.000000 -0.088726 1.558589 3.066334
 65 7.363602 1.646647 0.495663 3.141593 -1.570796 0.000000
 66 -0.000005 0.000007 3.619081 0.008255 -3.110080 -0.985231
 67 16.573919 0.000002 0.000000 0.000000 -0.000000 -1.065827
 68 15.128181 0.000000 -0.000000 -0.102296 0.010178 0.114297
 69 5.758665 4.244730 0.000000 0.000000 0.000000 1.667687
 70 3.177725 0.000000 -0.000000 0.000000 0.000000 3.141593
 71 15.708953 0.000001 0.000000 -0.051525 0.003996 0.061523
 72 0.275148 0.189215 -3.445207 3.130898 0.000409 -1.514604
 73 17.210192 0.000001 0.000000 0.000000 -0.000000 -1.893339
 74 0.000001 -0.000000 -5.000000 -0.079430 1.546568 -1.570855
 75 0.000002 -0.000003 -3.619081 0.577895 2.675801 -0.242118
 76 16.573921 -0.000001 -0.000002 -0.000000 -0.000000 -1.163030
 77 15.128181 0.000001 0.000001 0.089479 0.309197 0.659208
 78 5.758666 4.244730 -0.000001 -0.000000 -0.000000 1.815142
 79 4.003934 -0.000000 0.000001 0.000000 0.000000 0.000000
 80 15.708954 0.000001 0.000002 0.042277 0.226871 0.443133
 81 0.273998 0.191089 3.439762 -3.130907 -0.000437 -1.508107
 82 17.210194 -0.000001 -0.000002 0.000000 -0.000000 -1.937080
 83 -0.000000 -0.000001 5.000000 -0.079319 1.595025 -1.570742
time 1
  0 -0.650000 0.000000 33.899605 -0.025849 0.174554 -1.569172
  1 5.685104 0.833236 -32.227173 -0.174512 -0.026131 1.569196
  2 -2.276935 0.000003 -1.238188 -1.570795 -1.570451 0.000000
  3 1.797088 0.711850 0.000585 -0.186282 -0.253364 0.031743
  4 4.119891 -0.002961 0.000575 -0.177350 0.114915 0.390164
  5 4.118988 -0.003205 0.000593 -0.183543 0.108070 0.098085
  6 4.118637 -0.003219 0.000618 -0.189226 0.045190 0.002573
  7 4.118723 -0.003526 -0.000289 0.082099 -0.158682 0.020518
  8 4.443596 -0.000000 0.000000 0.723535 -0.352533 0.413671
  9 9.024061 -0.000001 -0.000000 0.000000 0.000000 0.000000
 10 0.273797 0.143844 1.705190 1.996073 -1.182093 1.139030
 11 6.384777 0.000000 -0.000001 -1.819954 1.250311 -1.561750
 12 10.242681 -0.000000 0.000000 -0.000000 -0.000000 -0.946052
 13 11.375559 0.000001 0.000002 3.108994 0.448023 -0.431341
 14 0.728681 0.023432 -1.008293 2.396606 0.246960 1.180207
 15 2.136495 0.000000 0.000001 -0.000000 0.000000 -0.078540
 16 2.313141 -0.000000 -0.000001 0.000000 0.000000 0.000000
 17 3.115506 -0.886039 -0.021431 -0.166499 0.000392 0.514872
 18 2.011150 -0.000000 0.000000 -0.000000 0.000000 1.322792
 19 2.141380 0.000000 0.000000 0.000000 0.000000 0.000000
 20 1.734172 0.000001 0.000000 0.000000 0.000000 0.660693
 21 0.000005 -4.440593 -0.000000 1.570544 -0.062990 -0.195737
 22 5.999999 -0.000000 0.000001 -2.823058 -0.000000 0.000000
 23 0.000003 -4.440602 0.000000 1.569944 -0.062987 0.004053
 24 11.375561 0.000001 0.000005 -2.319054 0.330415 -0.112723
 25 -0.000001 -4.440604 -0.000000 1.570144 -0.062988 0.004040
 26 10.510130 -0.000000 0.000000 0.000000 0.000000 -2.043822
 27 0.000000 -1.748398 5.000000 -0.000000 0.004007 1.602291
 28 5.500000 -0.000000 0.000001 0.257879 -0.000000 -0.000000
 29 -0.000001 -1.940599 5.000001 -0.044472 0.004003 -0.000180
 30 6.551492 0.000000 -0.000002 -0.738348 1.085079 -0.360894
 31 0.000002 -1.940599 5.000001 -0.027189 -0.053376 0.005295
 32 6.551492 0.000000 -0.000002 -0.198675 0.462286 -0.016354
 33 0.000001 -1.940599 4.999998 -0.066572 -0.152786 -0.110311
 34 -0.273801 -0.136765 -1.705188 0.047299 1.305438 -3.128618
 35 6.384777 0.000000 0.000001 -1.028461 -0.418274 -0.174854
 36 10.242682 -0.000000 0.000002 -0.000000 0.000000 -1.900710
 37 11.375563 -0.000000 -0.000001 2.201278 0.498457 0.070123
 38 0.728680 0.023431 1.008292 -1.579583 -0.319038 0.212973
 39 2.136495 -0.000002 -0.000001 -0.000000 0.000000 1.282817
 40 2.313140 -0.000000 0.000000 0.000000 0.000000 3.141593
 41 3.115507 -0.886041 0.021430 0.708959 0.171755 0.347804
 42 2.011149 -0.000000 0.000001 -0.000000 0.000000 2.082010
 43 2.141380 -0.000000 -0.000001 0.000000 0.000000 3.141593
 44 1.734170 -0.000001 0.000001 0.000000 -0.000000 1.041748
 45 0.136316 -3.738190 2.525890 1.493698 2.759406 -1.474501
 46 5.613161 0.862367 3.157030 1.595152 -0.135386 0.061522
 47 11.389367 -0.000819 0.158780 1.871641 0.271501 -0.009936
 48 0.000001 -4.440598 0.000001 1.570144 -3.078602 0.004040
 49 6.000000 -0.000000 -0.000001 1.871641 -0.000000 -0.000000
 50 0.000001 -4.440601 0.000000 1.569944 -3.078603 0.004053
 51 10.510132 -0.000000 0.000002 0.000000 0.000000 -2.521151
 52 0.000001 -1.748399 -5.000001 3.141593 0.004007 -1.539299
 53 5.500000 -0.000001 0.000000 0.300398 0.000000 0.000000
 54 -0.000000 -0.000002 -4.999999 -0.044472 3.137590 -0.000177
 55 6.551491 -0.000001 0.000002 -0.300398 -0.139661 -0.140559
 56 -1.266844 -1.937443 -4.950560 -0.066572 -2.988806 -0.110308
 57 6.551491 -0.000001 0.000002 -0.300398 -0.139661 -0.140559
 58 0.699371 -1.944205 -5.006849 -0.027189 -3.088217 0.005298
 59 4.226143 -0.003200 0.000000 0.042006 -0.084894 0.013983
 60 -0.000001 4.999999 0.000000 -0.153564 0.000087 2.718702
 61 0.000004 -0.000004 -3.713580 0.365818 2.880119 -0.191589
 62 0.000002 -0.000000 5.000000 3.053196 1.558589 -0.074928
 63 -0.000007 0.000006 3.713580 -0.001619 -3.122277 -0.475127
 64 0.000002 -0.000001 -5.000000 -0.088726 1.558589 3.066334
 65 7.363602 1.646647 0.495663 3.141593 -1.570796 0.000000
 66 -0.000005 0.000007 3.619081 0.008255 -3.110080 -0.985231
 67 16.573919 0.000002 0.000000 0.000000 -0.000000 -1.065827
 68 15.128181 0.000000 -0.000000 -0.102296 0.010178 0.114297
 69 5.758665 4.244730 0.000000 0.000000 0.000000 1.667687
 70 3.177725 0.000000 -0.000000 0.000000 0.000000 3.141593
 71 15.708953 0.000001 0.000000 -0.051525 0.003996 0.061523
 72 0.275148 0.189215 -3.445207 3.130898 0.000409 -1.514604
 73 17.210192 0.000001 0.000000 0.000000 -0.000000 -1.893339
 74 0.000001 -0.000000 -5.000000 -0.079430 1.546568 -1.570855
 75 0.000002 -0.000003 -3.619081 0.577895 2.675801 -0.242118
 76 16.573921 -0.000001 -0.000002 -0.000000 -0.000000 -1.163030
 77 15.128181 0.000001 0.000001 0.089479 0.309197 0.659208
 78 5.758666 4.244730 -0.000001 -0.000000 -0.000000 1.815142
 79 4.003934 -0.000000 0.000001 0.000000 0.000000 0.000000
 80 15.708954 0.000001 0.000002 0.042277 0.226871 0.443133
 81 0.273998 0.191089 3.439762 -3.130907 -0.000437 -1.508107
 82 17.210194 -0.000001 -0.000002 0.000000 -0.000000 -1.937080
 83 -0.000000 -0.000001 5.000000 -0.079319 1.595025 -1.570742
time 2
  0 -0.650000 0.000000 33.899605 -0.025849 0.174554 -1.569172
  1 5.685104 0.833236 -32.227173 -0.174512 -0.026131 1.569196
  2 -2.276935 0.000003 -1.238188 -1.570795 -1.570451 0.000000
  3 1.797126 0.711847 0.000575 -0.183130 -0.259189 0.042226
  4 4.119901 -0.002959 0.000564 -0.174082 0.116325 0.392617
  5 4.118990 -0.003204 0.000584 -0.180203 0.111941 0.100242
  6 4.118643 -0.003222 0.000606 -0.185876 0.047894 0.004777
  7 4.118881 -0.003517 -0.000286 0.081937 -0.162326 0.065346
  8 4.443597 -0.000000 0.000001 0.722021 -0.308686 0.325203
  9 9.024060 0.000002 -0.000000 0.000000 0.000000 0.000000
 10 0.280031 0.143485 1.704207 1.988108 -1.175786 1.101991
 11 6.384778 -0.000001 -0.000001 -1.721090 1.177902 -1.459544
 12 10.242680 0.000000 -0.000000 0.000000 -0.000000 -0.834307
 13 11.375562 0.000002 0.000001 3.074889 0.462214 -0.510829
 14 0.728680 0.023430 -1.008291 2.396606 0.246960 1.180207
 15 2.136497 -0.000000 -0.000001 -0.000000 -0.000000 -0.078540
 16 2.313139 0.000000 0.000000 0.000000 0.000000 0.000000
 17 3.115506 -0.886041 -0.021432 -0.166499 0.000392 0.514872
 18 2.011151 0.000002 -0.000000 0.000000 -0.000000 1.322792
 19 2.141379 -0.000001 -0.000000 0.000000 0.000000 0.000000
 20 1.734173 0.000001 -0.000000 0.000000 0.000000 0.660693
 21 0.000006 -4.440593 -0.000000 1.570544 -0.062990 -0.195737
 22 5.999999 -0.000000 0.000000 -2.850366 -0.000000 0.000000
 23 0.000003 -4.440602 0.000000 1.569944 -0.062987 0.004053
 24 11.375561 0.000001 0.000004 -2.327250 0.353364 -0.143538
 25 -0.000001 -4.440603 -0.000000 1.570144 -0.062988 0.004040
 26 10.510129 0.000000 -0.000000 -0.000000 -0.000000 -1.987950
 27 0.000001 -1.748398 4.999999 0.000000 0.004007 1.602290
 28 5.500001 0.000000 0.000001 0.284493 0.000000 -0.000000
 29 -0.000001 -1.940599 5.000001 -0.044472 0.004003 -0.000180
 30 6.551492 -0.000000 -0.000000 -0.784934 1.022849 -0.408691
 31 0.000002 -1.940598 5.000000 -0.027189 -0.053376 0.005295
 32 6.551492 -0.000000 -0.000000 -0.219412 0.447545 -0.036961
 33 -0.000001 -1.940599 4.999997 -0.066572 -0.152786 -0.110311
 34 -0.280032 -0.136408 -1.704204 -0.193052 1.287464 2.867486
 35 6.384777 0.000001 -0.000002 -1.022071 -0.445556 -0.113233
 36 10.242682 -0.000003 0.000000 0.000000 -0.000000 -1.880619
 37 11.375560 -0.000001 -0.000000 2.161285 0.525533 0.082013
 38 0.728681 0.023431 1.008291 -1.579583 -0.319038 0.212973
 39 2.136497 -0.000001 -0.000001 -0.000000 0.000000 1.282817
 40 2.313139 -0.000000 0.000000 0.000000 0.000000 3.141593
 41 3.115507 -0.886040 0.021431 0.708959 0.171755 0.347804
 42 2.011150 0.000001 -0.000000 -0.000000 0.000000 2.082010
 43 2.141379 0.000001 -0.000000 0.000000 0.000000 3.141593
 44 1.734172 -0.000000 -0.000000 -0.000000 -0.000000 1.041748
 45 0.136316 -3.738193 2.525891 1.493698 2.759406 -1.474501
 46 5.613159 0.862367 3.157032 1.595152 -0.135386 0.061522
 47 11.389366 -0.000820 0.158781 1.850585 0.284379 -0.003845
 48 0.000000 -4.440598 -0.000001 1.570144 -3.078602 0.004040
 49 6.000000 -0.000000 -0.000000 1.850585 0.000000 0.000000
 50 0.000001 -4.440601 0.000000 1.569944 -3.078603 0.004053
 51 10.510131 -0.000000 0.000001 -0.000000 -0.000000 -2.511106
 52 -0.000000 -1.748400 -5.000001 -3.141593 0.004007 -1.539299
 53 5.500000 -0.000001 0.000000 0.295536 0.000000 0.000000
 54 0.000000 -0.000001 -4.999999 -0.044472 3.137589 -0.000177
 55 6.551491 -0.000000 -0.000002 -0.295536 -0.170132 -0.113245
 56 -1.266842 -1.937443 -4.950561 -0.066572 -2.988806 -0.110308
 57 6.551491 -0.000000 -0.000002 -0.295536 -0.170132 -0.113245
 58 0.699371 -1.944208 -5.006847 -0.027189 -3.088217 0.005298
 59 4.226147 -0.003202 0.000000 0.042621 -0.086307 0.040041
 60 0.000001 5.000000 -0.000001 -0.153564 0.000087 2.718702
 61 0.000004 -0.000004 -3.713580 0.365818 2.880119 -0.191589
 62 0.000002 -0.000000 5.000000 3.053196 1.558589 -0.074928
 63 -0.000007 0.000006 3.713580 -0.001619 -3.122277 -0.475127
 64 0.000002 -0.000001 -5.000000 -0.088726 1.558589 3.066334
 65 7.363602 1.646647 0.495663 3.141593 -1.570796 0.000000
 66 -0.000005 0.000007 3.619081 0.008255 -3.110080 -0.985231
 67 16.573919 0.000002 0.000000 0.000000 -0.000000 -1.065827
 68 15.128181 0.000000 -0.000000 -0.102296 0.010178 0.114297
 69 5.758665 4.244730 0.000000 0.000000 0.000000 1.667687
 70 3.177725 0.000000 -0.000000 0.000000 0.000000 3.141593
 71 15.708953 0.000001 0.000000 -0.051525 0.003996 0.061523
 72 0.275148 0.189215 -3.445207 3.130898 0.000409 -1.514604
 73 17.210192 0.000001 0.000000 0.000000 -0.000000 -1.893339
 74 0.000001 -0.000000 -5.000000 -0.079430 1.546568 -1.570855
 75 0.000002 -0.000003 -3.619081 0.577895 2.675801 -0.242118
 76 16.573921 -0.000001 -0.000002 -0.000000 -0.000000 -1.163030
 77 15.128181 0.000001 0.000001 0.089479 0.309197 0.659208
 78 5.758666 4.244730 -0.000001 -0.000000 -0.000000 1.815142
 79 4.003934 -0.000000 0.000001 0.000000 0.000000 0.000000
 80 15.708954 0.000001 0.000002 0.042277 0.226871 0.443133
 81 0.273998 0.191089 3.439762 -3.130907 -0.000437 -1.508107
 82 17.210194 -0.000001 -0.000002 0.000000 -0.000000 -1.937080
 83 -0.000000 -0.000001 5.000000 -0.079319 1.595025 -1.570742
time 3
  0 -0.650000 0.000000 33.899605 -0.025849 0.174554 -1.569172
  1 5.685104 0.833236 -32.227173 -0.174512 -0.026131 1.569196
  2 -2.276935 0.000003 -1.238188 -1.570795 -1.570451 0.000000
  3 1.797145 0.711846 0.000568 -0.181378 -0.264657 0.048850
  4 4.119904 -0.002958 0.000557 -0.172144 0.117757 0.393978
  5 4.118998 -0.003206 0.000577 -0.178227 0.115236 0.101355
  6 4.118651 -0.003222 0.000600 -0.183881 0.050096 0.005985
  7 4.119039 -0.003501 -0.000286 0.081610 -0.165959 0.110202
  8 4.443598 0.000001 0.000000 0.721933 -0.270893 0.241037
  9 9.024060 0.000002 -0.000000 0.000000 0.000000 0.000000
 10 0.286241 0.142846 1.703227 1.979666 -1.169596 1.065370
 11 6.384777 -0.000000 -0.000001 -1.678833 1.128478 -1.414543
 12 10.242681 -0.000000 0.000001 -0.000000 0.000000 -0.759076
 13 11.375560 0.000001 0.000000 3.054863 0.470075 -0.562204
 14 0.728680 0.023430 -1.008291 2.396606 0.246960 1.180207
 15 2.136497 0.000001 -0.000001 0.000000 -0.000000 -0.078540
 16 2.313140 -0.000000 -0.000000 0.000000 0.000000 0.000000
 17 3.115507 -0.886042 -0.021432 -0.166499 0.000392 0.514872
 18 2.011150 0.000001 0.000000 -0.000000 -0.000000 1.322792
 19 2.141379 -0.000000 0.000000 0.000000 0.000000 0.000000
 20 1.734172 0.000002 0.000001 0.000000 -0.000000 0.660693
 21 0.000007 -4.440593 0.000001 1.570544 -0.062990 -0.195737
 22 5.999999 0.000001 0.000000 -2.866345 0.000000 -0.000000
 23 0.000000 -4.440601 -0.000000 1.569944 -0.062987 0.004053
 24 11.375561 0.000001 0.000004 -2.331492 0.367468 -0.163248
 25 -0.000001 -4.440602 -0.000001 1.570144 -0.062988 0.004040
 26 10.510130 -0.000000 0.000001 -0.000000 0.000000 -1.950334
 27 0.000001 -1.748400 4.999999 0.000000 0.004007 1.602291
 28 5.499999 0.000000 0.000000 0.301271 -0.000000 0.000000
 29 -0.000000 -1.940599 5.000002 -0.044472 0.004003 -0.000180
 30 6.551491 -0.000001 -0.000002 -0.811573 0.983152 -0.435901
 31 -0.000002 -1.940599 5.000000 -0.027189 -0.053376 0.005295
 32 6.551491 -0.000001 -0.000002 -0.232604 0.437521 -0.050129
 33 0.000001 -1.940599 4.999996 -0.066572 -0.152786 -0.110311
 34 -0.286240 -0.135767 -1.703226 -0.310362 1.271215 2.704452
 35 6.384775 -0.000002 0.000002 -1.014527 -0.459670 -0.079235
 36 10.242681 -0.000000 0.000000 -0.000000 0.000000 -1.867759
 37 11.375562 0.000003 -0.000001 2.139750 0.540143 0.087547
 38 0.728682 0.023431 1.008291 -1.579583 -0.319038 0.212973
 39 2.136497 -0.000000 -0.000000 -0.000000 0.000000 1.282817
 40 2.313140 -0.000001 0.000000 0.000000 0.000000 3.141593
 41 3.115508 -0.886040 0.021430 0.708959 0.171755 0.347804
 42 2.011151 0.000000 0.000000 -0.000000 0.000000 2.082010
 43 2.141381 -0.000000 0.000001 0.000000 0.000000 3.141593
 44 1.734174 -0.000001 0.000000 -0.000000 0.000000 1.041748
 45 0.136315 -3.738192 2.525890 1.493698 2.759406 -1.474501
 46 5.613161 0.862367 3.157030 1.595152 -0.135386 0.061522
 47 11.389367 -0.000817 0.158780 1.839282 0.291130 -0.000921
 48 0.000000 -4.440599 -0.000001 1.570144 -3.078602 0.004040
 49 6.000000 0.000001 -0.000001 1.839282 0.000000 -0.000000
 50 0.000001 -4.440601 0.000001 1.569944 -3.078603 0.004053
 51 10.510130 0.000001 0.000001 0.000000 -0.000000 -2.504676
 52 -0.000000 -1.748399 -5.000001 -3.141593 0.004007 -1.539299
 53 5.499999 -0.000000 0.000001 0.292955 -0.000000 0.000000
 54 -0.000001 -0.000001 -4.999999 -0.044472 3.137589 -0.000177
 55 6.551490 -0.000001 0.000001 -0.292955 -0.185010 -0.098063
 56 -1.266843 -1.937444 -4.950560 -0.066572 -2.988806 -0.110308
 57 6.551490 -0.000001 0.000001 -0.292955 -0.185010 -0.098063
 58 0.699371 -1.944208 -5.006847 -0.027189 -3.088217 0.005298
 59 4.226143 -0.003201 0.000001 0.043181 -0.087622 0.065845
 60 0.000002 5.000001 -0.000001 -0.153564 0.000087 2.718702
 61 0.000004 -0.000004 -3.713580 0.365818 2.880119 -0.191589
 62 0.000002 -0.000000 5.000000 3.053196 1.558589 -0.074928
 63 -0.000007 0.000006 3.713580 -0.001619 -3.122277 -0.475127
 64 0.000002 -0.000001 -5.000000 -0.088726 1.558589 3.066334
 65 7.363602 1.646647 0.495663 3.141593 -1.570796 0.000000
 66 -0.000005 0.000007 3.619081 0.008255 -3.110080 -0.985231
 67 16.573919 0.000002 0.000000 0.000000 -0.000000 -1.065827
 68 15.128181 0.000000 -0.000000 -0.102296 0.010178 0.114297
 69 5.758665 4.244730 0.000000 0.000000 0.000000 1.667687
 70 3.177725 0.000000 -0.000000 0.000000 0.000000 3.141593
 71 15.708953 0.000001 0.000000 -0.051525 0.003996 0.061523
 72 0.275148 0.189215 -3.445207 3.130898 0.000409 -1.514604
 73 17.210192 0.000001 0.000000 0.000000 -0.000000 -1.893339
 74 0.000001 -0.000000 -5.000000 -0.079430 1.546568 -1.570855
 75 0.000002 -0.000003 -3.619081 0.577895 2.675801 -0.242118
 76 16.573921 -0.000001 -0.000002 -0.000000 -0.000000 -1.163030
 77 15.128181 0.000001 0.000001 0.089479 0.309197 0.659208
 78 5.758666 4.244730 -0.000001 -0.000000 -0.000000 1.815142
 79 4.003934 -0.000000 0.000001 0.000000 0.000000 0.000000
 80 15.708954 0.000001 0.000002 0.042277 0.226871 0.443133
 81 0.273998 0.191089 3.439762 -3.130907 -0.000437 -1.508107
 82 17.210194 -0.000001 -0.000002 0.000000 -0.000000 -1.937080
 83 -0.000000 -0.000001 5.000000 -0.079319 1.595025 -1.570742
time 4
  0 -0.650000 0.000000 33.899605 -0.025849 0.174554 -1.569172
  1 5.685104 0.833236 -32.227173 -0.174512 -0.026131 1.569196
  2 -2.276935 0.000003 -1.238188 -1.570795 -1.570451 0.000000
  3 1.797149 0.711846 0.000566 -0.180999 -0.269743 0.051603
  4 4.119907 -0.002959 0.000555 -0.171543 0.119217 0.394239
  5 4.118998 -0.003203 0.000576 -0.177628 0.117958 0.101411
  6 4.118653 -0.003225 0.000596 -0.183250 0.051801 0.006187
  7 4.119038 -0.003500 -0.000285 0.081610 -0.165959 0.110202
  8 4.443599 -0.000000 -0.000000 0.721876 -0.270887 0.240138
  9 9.024060 0.000001 -0.000000 0.000000 0.000000 0.000000
 10 0.286244 0.142843 1.703226 1.979666 -1.169596 1.065370
 11 6.384777 0.000001 0.000003 -1.668777 1.110379 -1.401461
 12 10.242679 -0.000000 0.000000 -0.000000 0.000000 -0.731824
 13 11.375563 0.000003 0.000001 3.048969 0.472825 -0.579623
 14 0.728681 0.023432 -1.008292 2.396606 0.246960 1.180207
 15 2.136498 -0.000000 -0.000000 -0.000000 -0.000000 -0.078540
 16 2.313140 -0.000000 0.000001 0.000000 0.000000 0.000000
 17 3.115506 -0.886040 -0.021432 -0.166499 0.000392 0.514872
 18 2.011151 0.000002 0.000001 -0.000000 0.000000 1.322792
 19 2.141379 -0.000000 0.000000 0.000000 0.000000 0.000000
 20 1.734172 0.000001 -0.000000 0.000000 0.000000 0.660693
 21 0.000006 -4.440593 -0.000000 1.570544 -0.062990 -0.195737
 22 5.999999 -0.000001 -0.000000 -2.870934 -0.000000 0.000000
 23 0.000002 -4.440600 0.000000 1.569944 -0.062987 0.004053
 24 11.375561 0.000000 0.000004 -2.332437 0.372212 -0.169854
 25 -0.000001 -4.440603 -0.000001 1.570144 -0.062988 0.004040
 26 10.510131 0.000000 0.000000 -0.000000 0.000000 -1.936708
 27 0.000001 -1.748402 4.999998 0.000000 0.004007 1.602291
 28 5.499997 -0.000000 -0.000000 0.307600 0.000000 0.000000
 29 -0.000002 -1.940599 5.000000 -0.044472 0.004003 -0.000180
 30 6.551493 0.000000 0.000001 -0.821855 0.969617 -0.444788
 31 -0.000000 -1.940599 5.000001 -0.027189 -0.053376 0.005295
 32 6.551493 0.000000 0.000001 -0.237589 0.433935 -0.054389
 33 0.000001 -1.940599 4.999996 -0.066572 -0.152786 -0.110311
 34 -0.286239 -0.135769 -1.703227 -0.351838 1.264242 2.662934
 35 6.384777 -0.000002 0.000003 -1.008979 -0.463273 -0.071832
 36 10.242682 -0.000003 0.000000 0.000000 0.000000 -1.862348
 37 11.375560 0.000001 -0.000001 2.135254 0.542779 0.089459
 38 0.728680 0.023432 1.008291 -1.579583 -0.319038 0.212973
 39 2.136497 0.000001 -0.000000 -0.000000 0.000000 1.282817
 40 2.313139 0.000000 0.000000 0.000000 0.000000 3.141593
 41 3.115505 -0.886041 0.021431 0.708959 0.171755 0.347804
 42 2.011152 -0.000001 -0.000001 0.000000 0.000000 2.082010
 43 2.141380 0.000000 0.000001 0.000000 0.000000 3.141593
 44 1.734171 -0.000001 0.000000 -0.000000 0.000000 1.041748
 45 0.136315 -3.738193 2.525890 1.493698 2.759406 -1.474501
 46 5.613158 0.862367 3.157031 1.595152 -0.135386 0.061522
 47 11.389366 -0.000818 0.158781 1.836898 0.292370 0.000131
 48 -0.000001 -4.440599 -0.000000 1.570144 -3.078602 0.004040
 49 5.999998 0.000000 -0.000001 1.836897 0.000000 0.000000
 50 -0.000001 -4.440601 -0.000000 1.569944 -3.078603 0.004053
 51 10.510132 -0.000000 0.000000 -0.000000 -0.000000 -2.501970
 52 -0.000001 -1.748401 -5.000000 -3.141593 0.004007 -1.539299
 53 5.500000 -0.000002 -0.000000 0.291456 -0.000000 -0.000000
 54 0.000001 -0.000002 -4.999999 -0.044472 3.137589 -0.000177
 55 6.551491 -0.000001 0.000002 -0.291456 -0.188430 -0.094696
 56 -1.266842 -1.937443 -4.950560 -0.066572 -2.988806 -0.110308
 57 6.551492 -0.000002 0.000002 -0.291456 -0.188430 -0.094696
 58 0.699371 -1.944207 -5.006847 -0.027189 -3.088217 0.005298
 59 4.226147 -0.003202 -0.000001 0.043181 -0.087622 0.065845
 60 0.000003 5.000001 -0.000001 -0.153564 0.000087 2.718702
 61 0.000004 -0.000004 -3.713580 0.365818 2.880119 -0.191589
 62 0.000002 -0.000000 5.000000 3.053196 1.558589 -0.074928
 63 -0.000007 0.000006 3.713580 -0.001619 -3.122277 -0.475127
 64 0.000002 -0.000001 -5.000000 -0.088726 1.558589 3.066334
 65 7.363602 1.646647 0.495663 3.141593 -1.570796 0.000000
 66 -0.000005 0.000007 3.619081 0.008255 -3.110080 -0.985231
 67 16.573919 0.000002 0.000000 0.000000 -0.000000 -1.065827
 68 15.128181 0.000000 -0.000000 -0.102296 0.010178 0.114297
 69 5.758665 4.244730 0.000000 0.000000 0.000000 1.667687
 70 3.177725 0.000000 -0.000000 0.000000 0.000000 3.141593
 71 15.708953 0.000001 0.000000 -0.051525 0.003996 0.061523
 72 0.275148 0.189215 -3.445207 3.130898 0.000409 -1.514604
 73 17.210192 0.000001 0.000000 0.000000 -0.000000 -1.893339
 74 0.000001 -0.000000 -5.000000 -0.079430 1.546568 -1.570855
 75 0.000002 -0.000003 -3.619081 0.577895 2.675801 -0.242118
 76 16.573921 -0.000001 -0.000002 -0.000000 -0.000000 -1.163030
 77 15.128181 0.000001 0.000001 0.089479 0.309197 0.659208
 78 5.758666 4.244730 -0.000001 -0.000000 -0.000000 1.815142
 79 4.003934 -0.000000 0.000001 0.000000 0.000000 0.000000
 80 15.708954 0.000001 0.000002 0.042277 0.226871 0.443133
 81 0.273998 0.191089 3.439762 -3.130907 -0.000437 -1.508107
 82 17.210194 -0.000001 -0.000002 0.000000 -0.000000 -1.937080
 83 -0.000000 -0.000001 5.000000 -0.079319 1.595025 -1.570742
time 5
  0 -0.650000 0.000000 33.899605 -0.025849 0.174554 -1.569172
  1 5.685104 0.833236 -32.227173 -0.174512 -0.026131 1.569196
  2 -2.276935 0.000003 -1.238188 -1.570795 -1.570451 0.000000
  3 1.797153 0.711846 0.000566 -0.181015 -0.274718 0.053247
  4 4.119905 -0.002958 0.000555 -0.171327 0.120685 0.394183
  5 4.118997 -0.003204 0.000575 -0.177425 0.120516 0.101162
  6 4.118657 -0.003226 0.000594 -0.183013 0.053362 0.006099
  7 4.119036 -0.003499 -0.000284 0.081610 -0.165959 0.110202
  8 4.443596 -0.000000 -0.000001 0.722822 -0.272304 0.240544
  9 9.024059 -0.000001 -0.000000 0.000000 0.000000 0.000000
 10 0.286242 0.142843 1.703225 1.979666 -1.169596 1.065370
 11 6.384778 0.000000 -0.000001 -1.666478 1.102020 -1.395984
 12 10.242681 0.000000 0.000000 -0.000000 -0.000000 -0.719500
 13 11.375562 0.000001 0.000002 3.047138 0.474203 -0.586714
 14 0.728680 0.023432 -1.008292 2.396606 0.246960 1.180207
 15 2.136497 -0.000000 0.000000 -0.000000 -0.000000 -0.078540
 16 2.313140 -0.000000 0.000000 0.000000 0.000000 0.000000
 17 3.115506 -0.886040 -0.021431 -0.166499 0.000392 0.514872
 18 2.011150 0.000000 -0.000001 0.000000 -0.000000 1.322792
 19 2.141379 -0.000000 0.000000 0.000000 0.000000 0.000000
 20 1.734172 0.000001 -0.000000 -0.000000 0.000000 0.660693
 21 0.000006 -4.440594 0.000001 1.570544 -0.062990 -0.195737
 22 5.999999 -0.000000 0.000001 -2.872240 -0.000000 0.000000
 23 0.000001 -4.440601 -0.000000 1.569944 -0.062987 0.004053
 24 11.375561 0.000001 0.000004 -2.332495 0.374200 -0.172492
 25 -0.000000 -4.440604 -0.000000 1.570144 -0.062988 0.004040
 26 10.510131 -0.000000 0.000001 -0.000000 0.000000 -1.930546
 27 -0.000000 -1.748399 4.999999 -0.000000 0.004007 1.602291
 28 5.500000 -0.000000 0.000001 0.310846 0.000000 -0.000000
 29 0.000001 -1.940599 5.000001 -0.044472 0.004003 -0.000180
 30 6.551491 0.000001 -0.000000 -0.827607 0.963956 -0.448490
 31 -0.000001 -1.940597 5.000001 -0.027189 -0.053376 0.005295
 32 6.551491 0.000001 -0.000000 -0.240139 0.432360 -0.055953
 33 0.000001 -1.940598 4.999995 -0.066572 -0.152786 -0.110311
 34 -0.286242 -0.135768 -1.703228 -0.367461 1.261395 2.647304
 35 6.384777 0.000001 -0.000004 -1.004285 -0.464070 -0.071959
 36 10.242682 0.000001 0.000001 -0.000000 0.000000 -1.859059
 37 11.375560 0.000002 -0.000002 2.135518 0.542028 0.090498
 38 0.728682 0.023430 1.008290 -1.579583 -0.319038 0.212973
 39 2.136497 -0.000000 -0.000001 -0.000000 0.000000 1.282817
 40 2.313137 0.000000 -0.000000 0.000000 0.000000 3.141593
 41 3.115508 -0.886042 0.021430 0.708959 0.171755 0.347804
 42 2.011151 -0.000001 0.000000 -0.000000 0.000000 2.082010
 43 2.141381 0.000001 -0.000000 0.000000 0.000000 3.141593
 44 1.734172 -0.000001 0.000000 -0.000000 0.000000 1.041748
 45 0.136315 -3.738191 2.525891 1.493698 2.759406 -1.474501
 46 5.613160 0.862365 3.157030 1.595152 -0.135386 0.061522
 47 11.389368 -0.000817 0.158781 1.837000 0.292073 0.000724
 48 0.000002 -4.440599 0.000000 1.570144 -3.078602 0.004040
 49 5.999999 0.000000 -0.000001 1.837000 -0.000000 0.000000
 50 0.000000 -4.440601 0.000001 1.569944 -3.078603 0.004053
 51 10.510131 0.000002 0.000002 0.000000 -0.000000 -2.500325
 52 -0.000000 -1.748402 -5.000001 -3.141593 0.004007 -1.539299
 53 5.499999 0.000002 0.000001 0.290194 -0.000000 -0.000000
 54 -0.000000 0.000000 -5.000000 -0.044472 3.137589 -0.000177
 55 6.551491 0.000001 -0.000004 -0.290194 -0.188928 -0.094623
 56 -1.266842 -1.937443 -4.950559 -0.066572 -2.988806 -0.110308
 57 6.551492 0.000001 -0.000004 -0.290194 -0.188928 -0.094623
 58 0.699372 -1.944207 -5.006848 -0.027189 -3.088217 0.005298
 59 4.226146 -0.003202 -0.000001 0.043181 -0.087622 0.065845
 60 0.000003 5.000000 -0.000001 -0.153564 0.000087 2.718702
 61 0.000004 -0.000004 -3.713580 0.365818 2.880119 -0.191589
 62 0.000002 -0.000000 5.000000 3.053196 1.558589 -0.074928
 63 -0.000007 0.000006 3.713580 -0.001619 -3.122277 -0.475127
 64 0.000002 -0.000001 -5.000000 -0.088726 1.558589 3.066334
 65 7.363602 1.646647 0.495663 3.141593 -1.570796 0.000000
 66 -0.000005 0.000007 3.619081 0.008255 -3.110080 -0.985231
 67 16.573919 0.000002 0.000000 0.000000 -0.000000 -1.065827
 68 15.128181 0.000000 -0.000000 -0.102296 0.010178 0.114297
 69 5.758665 4.244730 0.000000 0.000000 0.000000 1.667687
 70 3.177725 0.000000 -0.000000 0.000000 0.000000 3.141593
 71 15.708953 0.000001 0.000000 -0.051525 0.003996 0.061523
 72 0.275148 0.189215 -3.445207 3.130898 0.000409 -1.514604
 73 17.210192 0.000001 0.000000 0.000000 -0.000000 -1.893339
 74 0.000001 -0.000000 -5.000000 -0.079430 1.546568 -1.570855
 75 0.000002 -0.000003 -3.619081 0.577895 2.675801 -0.242118
 76 16.573921 -0.000001 -0.000002 -0.000000 -0.000000 -1.163030
 77 15.128181 0.000001 0.000001 0.089479 0.309197 0.659208
 78 5.758666 4.244730 -0.000001 -0.000000 -0.000000 1.815142
 79 4.003934 -0.000000 0.000001 0.000000 0.000000 0.000000
 80 15.708954 0.000001 0.000002 0.042277 0.226871 0.443133
 81 0.273998 0.191089 3.439762 -3.130907 -0.000437 -1.508107
 82 17.210194 -0.000001 -0.000002 0.000000 -0.000000 -1.937080
 83 -0.000000 -0.000001 5.000000 -0.079319 1.595025 -1.570742
time 6
  0 -0.650000 0.000000 33.899605 -0.025849 0.174554 -1.569172
  1 5.685104 0.833236 -32.227173 -0.174512 -0.026131 1.569196
  2 -2.276935 0.000003 -1.238188 -1.570795 -1.570451 0.000000
  3 1.797153 0.711846 0.000566 -0.181316 -0.279612 0.054083
  4 4.119905 -0.002958 0.000555 -0.171392 0.122160 0.393897
  5 4.118999 -0.003206 0.000575 -0.177512 0.122955 0.100689
  6 4.118655 -0.003225 0.000595 -0.183062 0.054820 0.005799
  7 4.119042 -0.003501 -0.000286 0.081611 -0.165959 0.110202
  8 4.443597 0.000000 0.000001 0.724486 -0.274753 0.241909
  9 9.024059 0.000002 0.000000 0.000000 0.000000 0.000000
 10 0.286239 0.142846 1.703228 1.979666 -1.169596 1.065370
 11 6.384776 0.000000 0.000002 -1.669405 1.101025 -1.395612
 12 10.242687 -0.000000 0.000001 0.000000 0.000000 -0.718531
 13 11.375561 0.000001 -0.000000 3.048264 0.474616 -0.586028
 14 0.728681 0.023431 -1.008292 2.396606 0.246960 1.180207
 15 2.136497 0.000001 -0.000001 0.000000 0.000000 -0.078540
 16 2.313139 0.000000 0.000000 0.000000 0.000000 0.000000
 17 3.115506 -0.886040 -0.021431 -0.166499 0.000392 0.514872
 18 2.011150 -0.000000 0.000000 0.000000 0.000000 1.322792
 19 2.141379 0.000001 0.000001 0.000000 0.000000 0.000000
 20 1.734172 0.000001 0.000000 0.000000 -0.000000 0.660693
 21 0.000006 -4.440594 0.000000 1.570544 -0.062990 -0.195737
 22 6.000000 0.000001 0.000000 -2.871155 0.000000 -0.000000
 23 0.000002 -4.440601 -0.000000 1.569944 -0.062987 0.004053
 24 11.375561 0.000001 0.000003 -2.331934 0.374151 -0.172144
 25 -0.000001 -4.440604 0.000001 1.570144 -0.062988 0.004040
 26 10.510133 -0.000000 0.000001 0.000000 -0.000000 -1.930062
 27 -0.000001 -1.748400 4.999999 0.000000 0.004007 1.602291
 28 5.500001 0.000000 -0.000000 0.311816 0.000000 -0.000000
 29 0.000001 -1.940598 5.000000 -0.044472 0.004003 -0.000180
 30 6.551490 -0.000000 0.000001 -0.830137 0.964174 -0.448483
 31 -0.000003 -1.940600 5.000002 -0.027189 -0.053376 0.005295
 32 6.551490 -0.000000 0.000001 -0.240884 0.432313 -0.055512
 33 -0.000001 -1.940599 4.999997 -0.066572 -0.152786 -0.110311
 34 -0.286242 -0.135767 -1.703225 -0.365247 1.261806 2.649519
 35 6.384776 -0.000002 0.000002 -1.000292 -0.462904 -0.077526
 36 10.242682 -0.000002 -0.000000 0.000000 -0.000000 -1.857294
 37 11.375562 0.000002 -0.000000 2.139220 0.538836 0.090936
 38 0.728681 0.023430 1.008293 -1.579583 -0.319038 0.212973
 39 2.136498 0.000001 -0.000001 0.000000 0.000000 1.282817
 40 2.313137 0.000000 0.000000 0.000000 0.000000 3.141593
 41 3.115507 -0.886042 0.021432 0.708959 0.171755 0.347804
 42 2.011151 -0.000000 0.000000 0.000000 0.000000 2.082010
 43 2.141377 -0.000000 -0.000000 0.000000 0.000000 3.141593
 44 1.734172 -0.000001 0.000000 -0.000000 0.000000 1.041748
 45 0.136316 -3.738192 2.525890 1.493698 2.759406 -1.474501
 46 5.613160 0.862366 3.157032 1.595152 -0.135386 0.061522
 47 11.389367 -0.000818 0.158782 1.838899 0.290672 0.001000
 48 0.000001 -4.440599 -0.000001 1.570144 -3.078602 0.004040
 49 6.000000 0.000001 -0.000000 1.838899 0.000000 0.000000
 50 0.000002 -4.440602 -0.000001 1.569944 -3.078603 0.004053
 51 10.510132 -0.000001 0.000000 0.000000 -0.000000 -2.499443
 52 0.000001 -1.748400 -5.000000 -3.141593 0.004007 -1.539299
 53 5.500000 -0.000001 -0.000000 0.289097 0.000000 0.000000
 54 -0.000001 0.000002 -4.999999 -0.044472 3.137590 -0.000177
 55 6.551490 -0.000002 0.000000 -0.289097 -0.187376 -0.096907
 56 -1.266844 -1.937443 -4.950558 -0.066572 -2.988806 -0.110308
 57 6.551490 -0.000002 0.000000 -0.289097 -0.187376 -0.096907
 58 0.699370 -1.944207 -5.006846 -0.027189 -3.088217 0.005298
 59 4.226149 -0.003202 -0.000000 0.043181 -0.087622 0.065845
 60 -0.000001 5.000000 0.000001 -0.153564 0.000087 2.718701
 61 0.000004 -0.000004 -3.713580 0.365818 2.880119 -0.191589
 62 0.000002 -0.000000 5.000000 3.053196 1.558589 -0.074928
 63 -0.000007 0.000006 3.713580 -0.001619 -3.122277 -0.475127
 64 0.000002 -0.000001 -5.000000 -0.088726 1.558589 3.066334
 65 7.363602 1.646647 0.495663 3.141593 -1.570796 0.000000
 66 -0.000005 0.000007 3.619081 0.008255 -3.110080 -0.985231
 67 16.573919 0.000002 0.000000 0.000000 -0.000000 -1.065827
 68 15.128181 0.000000 -0.000000 -0.102296 0.010178 0.114297
 69 5.758665 4.244730 0.000000 0.000000 0.000000 1.667687
 70 3.177725 0.000000 -0.000000 0.000000 0.000000 3.141593
 71 15.708953 0.000001 0.000000 -0.051525 0.003996 0.061523
 72 0.275148 0.189215 -3.445207 3.130898 0.000409 -1.514604
 73 17.210192 0.000001 0.000000 0.000000 -0.000000 -1.893339
 74 0.000001 -0.000000 -5.000000 -0.079430 1.546568 -1.570855
 75 0.000002 -0.000003 -3.619081 0.577895 2.675801 -0.242118
 76 16.573921 -0.000001 -0.000002 -0.000000 -0.000000 -1.163030
 77 15.128181 0.000001 0.000001 0.089479 0.309197 0.659208
 78 5.758666 4.244730 -0.000001 -0.000000 -0.000000 1.815142
 79 4.003934 -0.000000 0.000001 0.000000 0.000000 0.000000
 80 15.708954 0.000001 0.000002 0.042277 0.226871 0.443133
 81 0.273998 0.191089 3.439762 -3.130907 -0.000437 -1.508107
 82 17.210194 -0.000001 -0.000002 0.000000 -0.000000 -1.937080
 83 -0.000000 -0.000001 5.000000 -0.079319 1.595025 -1.570742
time 7
  0 -0.650000 0.000000 33.899605 -0.025849 0.174554 -1.569172
  1 5.685104 0.833236 -32.227173 -0.174512 -0.026131 1.569196
  2 -2.276935 0.000003 -1.238188 -1.570795 -1.570451 0.000000
  3 1.797149 0.711846 0.000567 -0.181793 -0.284453 0.054417
  4 4.119906 -0.002959 0.000555 -0.171632 0.123638 0.393466
  5 4.118998 -0.003205 0.000575 -0.177781 0.125319 0.100077
  6 4.118657 -0.003224 0.000596 -0.183290 0.056212 0.005367
  7 4.119035 -0.003499 -0.000284 0.081610 -0.165959 0.110201
  8 4.443599 -0.000000 -0.000002 0.726586 -0.277847 0.243881
  9 9.024059 0.000002 -0.000000 0.000000 0.000000 0.000000
 10 0.286246 0.142842 1.703224 1.979666 -1.169596 1.065370
 11 6.384778 -0.000000 0.000001 -1.675622 1.104630 -1.398470
 12 10.242679 -0.000000 0.000000 -0.000000 -0.000000 -0.724692
 13 11.375560 0.000002 0.000001 3.051240 0.474429 -0.580446
 14 0.728680 0.023431 -1.008293 2.396606 0.246960 1.180207
 15 2.136495 -0.000000 -0.000000 0.000000 0.000000 -0.078540
 16 2.313139 0.000000 -0.000000 0.000000 0.000000 0.000000
 17 3.115506 -0.886039 -0.021431 -0.166499 0.000392 0.514872
 18 2.011149 -0.000001 -0.000002 -0.000000 0.000000 1.322791
 19 2.141379 -0.000000 0.000001 0.000000 0.000000 0.000000
 20 1.734172 -0.000000 -0.000001 0.000000 0.000000 0.660693
 21 0.000005 -4.440593 -0.000001 1.570544 -0.062990 -0.195737
 22 6.000000 0.000001 0.000001 -2.868577 -0.000000 -0.000000
 23 0.000002 -4.440601 -0.000000 1.569944 -0.062987 0.004053
 24 11.375560 0.000001 0.000004 -2.330989 0.372826 -0.169914
 25 -0.000000 -4.440603 0.000001 1.570144 -0.062988 0.004040
 26 10.510127 -0.000000 -0.000000 0.000000 -0.000000 -1.933142
 27 0.000000 -1.748402 4.999998 0.000000 0.004007 1.602291
 28 5.499997 -0.000000 -0.000000 0.311359 0.000000 -0.000000
 29 -0.000001 -1.940599 5.000000 -0.044472 0.004003 -0.000180
 30 6.551491 0.000000 0.000001 -0.830680 0.968072 -0.446216
 31 0.000002 -1.940599 5.000001 -0.027189 -0.053376 0.005295
 32 6.551491 0.000000 0.000001 -0.240499 0.433221 -0.053834
 33 -0.000002 -1.940598 4.999998 -0.066572 -0.152786 -0.110311
 34 -0.286239 -0.135767 -1.703227 -0.351838 1.264242 2.662934
 35 6.384777 0.000002 -0.000001 -0.996734 -0.460516 -0.086487
 36 10.242682 -0.000001 0.000001 -0.000000 -0.000000 -1.856462
 37 11.375563 0.000001 -0.000000 2.145088 0.534124 0.090967
 38 0.728679 0.023430 1.008293 -1.579583 -0.319038 0.212973
 39 2.136497 0.000000 -0.000000 -0.000000 0.000000 1.282817
 40 2.313139 -0.000000 0.000000 0.000000 0.000000 3.141593
 41 3.115507 -0.886041 0.021431 0.708959 0.171755 0.347804
 42 2.011155 -0.000001 -0.000001 -0.000000 0.000000 2.082010
 43 2.141380 0.000001 0.000001 0.000000 0.000000 3.141593
 44 1.734174 -0.000001 -0.000000 -0.000000 0.000000 1.041748
 45 0.136316 -3.738192 2.525890 1.493698 2.759406 -1.474501
 46 5.613160 0.862367 3.157030 1.595152 -0.135386 0.061522
 47 11.389369 -0.000819 0.158782 1.841932 0.288578 0.001067
 48 0.000000 -4.440599 -0.000001 1.570144 -3.078602 0.004040
 49 6.000003 0.000001 -0.000000 1.841932 0.000000 0.000000
 50 0.000002 -4.440602 -0.000000 1.569944 -3.078603 0.004053
 51 10.510132 -0.000001 0.000002 -0.000000 -0.000000 -2.499027
 52 0.000001 -1.748400 -5.000001 -3.141593 0.004007 -1.539299
 53 5.500000 -0.000002 0.000001 0.288121 0.000000 -0.000000
 54 -0.000001 -0.000001 -4.999999 -0.044472 3.137589 -0.000177
 55 6.551490 0.000000 0.000001 -0.288121 -0.184494 -0.100659
 56 -1.266843 -1.937445 -4.950558 -0.066572 -2.988806 -0.110308
 57 6.551491 0.000000 0.000001 -0.288121 -0.184494 -0.100659
 58 0.699371 -1.944209 -5.006845 -0.027189 -3.088217 0.005298
 59 4.226145 -0.003201 -0.000000 0.043181 -0.087622 0.065845
 60 0.000002 5.000000 -0.000000 -0.153564 0.000087 2.718702
 61 0.000004 -0.000004 -3.713580 0.365818 2.880119 -0.191589
 62 0.000002 -0.000000 5.000000 3.053196 1.558589 -0.074928
 63 -0.000007 0.000006 3.713580 -0.001619 -3.122277 -0.475127
 64 0.000002 -0.000001 -5.000000 -0.088726 1.558589 3.066334
 65 7.363602 1.646647 0.495663 3.141593 -1.570796 0.000000
 66 -0.000005 0.000007 3.619081 0.008255 -3.110080 -0.985231
 67 16.573919 0.000002 0.000000 0.000000 -0.000000 -1.065827
 68 15.128181 0.000000 -0.000000 -0.102296 0.010178 0.114297
 69 5.758665 4.244730 0.000000 0.000000 0.000000 1.667687
 70 3.177725 0.000000 -0.000000 0.000000 0.000000 3.141593
 71 15.708953 0.000001 0.000000 -0.051525 0.003996 0.061523
 72 0.275148 0.189215 -3.445207 3.130898 0.000409 -1.514604
 73 17.210192 0.000001 0.000000 0.000000 -0.000000 -1.893339
 74 0.000001 -0.000000 -5.000000 -0.079430 1.546568 -1.570855
 75 0.000002 -0.000003 -3.619081 0.577895 2.675801 -0.242118
 76 16.573921 -0.000001 -0.000002 -0.000000 -0.000000 -1.163030
 77 15.128181 0.000001 0.000001 0.089479 0.309197 0.659208
 78 5.758666 4.244730 -0.000001 -0.000000 -0.000000 1.815142
 79 4.003934 -0.000000 0.000001 0.000000 0.000000 0.000000
 80 15.708954 0.000001 0.000002 0.042277 0.226871 0.443133
 81 0.273998 0.191089 3.439762 -3.130907 -0.000437 -1.508107
 82 17.210194 -0.000001 -0.000002 0.000000 -0.000000 -1.937080
 83 -0.000000 -0.000001 5.000000 -0.079319 1.595025 -1.570742
time 8
  0 -0.650000 0.000000 33.899605 -0.025849 0.174554 -1.569172
  1 5.685104 0.833236 -32.227173 -0.174512 -0.026131 1.569196
  2 -2.276935 0.000003 -1.238188 -1.570795 -1.570451 0.000000
  3 1.797149 0.711846 0.000567 -0.182340 -0.289275 0.054552
  4 4.119905 -0.002958 0.000557 -0.171944 0.125118 0.392976
  5 4.118995 -0.003205 0.000577 -0.178125 0.127652 0.099408
  6 4.118656 -0.003225 0.000598 -0.183590 0.057579 0.004881
  7 4.119037 -0.003499 -0.000284 0.081610 -0.165959 0.110202
  8 4.443599 -0.000000 -0.000002 0.728848 -0.281199 0.246104
  9 9.024060 0.000000 -0.000000 0.000000 0.000000 0.000000
 10 0.286242 0.142844 1.703225 1.979666 -1.169596 1.065371
 11 6.384777 -0.000000 0.000001 -1.683284 1.109987 -1.402767
 12 10.242682 -0.000000 0.000002 -0.000000 -0.000000 -0.733582
 13 11.375561 0.000000 0.000001 3.054959 0.473994 -0.572948
 14 0.728681 0.023430 -1.008292 2.396606 0.246960 1.180207
 15 2.136497 -0.000000 0.000000 0.000000 0.000000 -0.078540
 16 2.313140 -0.000000 -0.000000 0.000000 0.000000 0.000000
 17 3.115507 -0.886043 -0.021432 -0.166499 0.000392 0.514872
 18 2.011150 -0.000001 0.000000 -0.000000 0.000000 1.322791
 19 2.141379 0.000001 0.000000 0.000000 0.000000 0.000000
 20 1.734171 -0.000000 0.000000 0.000000 -0.000000 0.660693
 21 0.000004 -4.440593 -0.000000 1.570544 -0.062990 -0.195737
 22 5.999999 -0.000001 0.000001 -2.865404 -0.000000 -0.000000
 23 0.000001 -4.440600 -0.000000 1.569944 -0.062987 0.004053
 24 11.375562 -0.000000 0.000005 -2.329883 0.370997 -0.166945
 25 -0.000000 -4.440602 -0.000000 1.570144 -0.062988 0.004040
 26 10.510132 0.000000 0.000001 -0.000000 -0.000000 -1.937587
 27 -0.000000 -1.748402 4.999999 -0.000000 0.004007 1.602291
 28 5.500001 -0.000000 0.000001 0.310339 -0.000000 -0.000000
 29 0.000002 -1.940598 5.000001 -0.044472 0.004003 -0.000180
 30 6.551490 0.000000 0.000001 -0.830440 0.973399 -0.443101
 31 0.000000 -1.940597 5.000000 -0.027189 -0.053376 0.005295
 32 6.551490 0.000001 0.000001 -0.239667 0.434495 -0.051690
 33 -0.000000 -1.940599 4.999997 -0.066572 -0.152786 -0.110311
 34 -0.286240 -0.135768 -1.703228 -0.333636 1.267404 2.681150
 35 6.384776 0.000001 -0.000001 -0.993332 -0.457628 -0.096808
 36 10.242682 0.000001 0.000001 0.000000 0.000000 -1.855977
 37 11.375563 0.000001 -0.000001 2.151841 0.528804 0.090780
 38 0.728680 0.023431 1.008293 -1.579583 -0.319038 0.212973
 39 2.136496 -0.000000 -0.000000 -0.000000 0.000000 1.282817
 40 2.313139 -0.000000 0.000000 0.000000 0.000000 3.141593
 41 3.115508 -0.886040 0.021431 0.708959 0.171755 0.347804
 42 2.011147 0.000001 -0.000000 -0.000000 0.000000 2.082010
 43 2.141378 -0.000001 -0.000000 0.000000 0.000000 3.141593
 44 1.734170 -0.000001 -0.000001 -0.000000 -0.000000 1.041748
 45 0.136316 -3.738193 2.525891 1.493698 2.759406 -1.474501
 46 5.613160 0.862367 3.157032 1.595152 -0.135386 0.061522
 47 11.389369 -0.000818 0.158781 1.845432 0.286200 0.001028
 48 -0.000000 -4.440599 -0.000001 1.570144 -3.078602 0.004040
 49 6.000002 0.000001 -0.000000 1.845432 -0.000000 -0.000000
 50 0.000004 -4.440601 -0.000000 1.569944 -3.078603 0.004053
 51 10.510132 0.000000 0.000001 0.000000 0.000000 -2.498785
 52 0.000001 -1.748400 -5.000001 -3.141593 0.004007 -1.539299
 53 5.500000 -0.000000 0.000001 0.287221 0.000000 -0.000000
 54 -0.000000 -0.000002 -4.999999 -0.044472 3.137589 -0.000177
 55 6.551490 -0.000000 -0.000000 -0.287221 -0.181005 -0.104995
 56 -1.266843 -1.937443 -4.950559 -0.066572 -2.988806 -0.110308
 57 6.551490 -0.000000 -0.000000 -0.287221 -0.181005 -0.104995
 58 0.699370 -1.944208 -5.006846 -0.027189 -3.088217 0.005298
 59 4.226147 -0.003202 -0.000001 0.043181 -0.087622 0.065845
 60 -0.000001 5.000002 0.000001 -0.153564 0.000087 2.718702
 61 0.000004 -0.000004 -3.713580 0.365818 2.880119 -0.191589
 62 0.000002 -0.000000 5.000000 3.053196 1.558589 -0.074928
 63 -0.000007 0.000006 3.713580 -0.001619 -3.122277 -0.475127
 64 0.000002 -0.000001 -5.000000 -0.088726 1.558589 3.066334
 65 7.363602 1.646647 0.495663 3.141593 -1.570796 0.000000
 66 -0.000005 0.000007 3.619081 0.008255 -3.110080 -0.985231
 67 16.573919 0.000002 0.000000 0.000000 -0.000000 -1.065827
 68 15.128181 0.000000 -0.000000 -0.102296 0.010178 0.114297
 69 5.758665 4.244730 0.000000 0.000000 0.000000 1.667687
 70 3.177725 0.000000 -0.000000 0.000000 0.000000 3.141593
 71 15.708953 0.000001 0.000000 -0.051525 0.003996 0.061523
 72 0.275148 0.189215 -3.445207 3.130898 0.000409 -1.514604
 73 17.210192 0.000001 0.000000 0.000000 -0.000000 -1.893339
 74 0.000001 -0.000000 -5.000000 -0.079430 1.546568 -1.570855
 75 0.000002 -0.000003 -3.619081 0.577895 2.675801 -0.242118
 76 16.573921 -0.000001 -0.000002 -0.000000 -0.000000 -1.163030
 77 15.128181 0.000001 0.000001 0.089479 0.309197 0.659208
 78 5.758666 4.244730 -0.000001 -0.000000 -0.000000 1.815142
 79 4.003934 -0.000000 0.000001 0.000000 0.000000 0.000000
 80 15.708954 0.000001 0.000002 0.042277 0.226871 0.443133
 81 0.273998 0.191089 3.439762 -3.130907 -0.000437 -1.508107
 82 17.210194 -0.000001 -0.000002 0.000000 -0.000000 -1.937080
 83 -0.000000 -0.000001 5.000000 -0.079319 1.595025 -1.570742
time 9
  0 -0.650000 0.000000 33.899605 -0.025849 0.174554 -1.569172
  1 5.685104 0.833236 -32.227173 -0.174512 -0.026131 1.569196
  2 -2.276935 0.000003 -1.238188 -1.570795 -1.570451 0.000000
  3 1.797145 0.711846 0.000568 -0.182855 -0.294106 0.054790
  4 4.119907 -0.002959 0.000556 -0.172221 0.126596 0.392515
  5 4.118995 -0.003204 0.000578 -0.178434 0.130001 0.098766
  6 4.118655 -0.003226 0.000597 -0.183856 0.058958 0.004421
  7 4.119038 -0.003500 -0.000285 0.081611 -0.165959 0.110202
  8 4.443599 0.000000 -0.000001 0.731002 -0.284424 0.248220
  9 9.024060 0.000003 -0.000000 0.000000 0.000000 0.000000
 10 0.286243 0.142844 1.703226 1.979666 -1.169596 1.065370
 11 6.384778 -0.000000 -0.000002 -1.690388 1.114348 -1.406540
 12 10.242682 0.000000 0.000000 0.000000 0.000000 -0.740933
 13 11.375561 0.000000 0.000001 3.058313 0.473674 -0.566461
 14 0.728681 0.023430 -1.008293 2.396606 0.246960 1.180207
 15 2.136496 0.000000 -0.000001 0.000000 -0.000000 -0.078540
 16 2.313138 -0.000001 0.000001 0.000000 0.000000 0.000000
 17 3.115506 -0.886041 -0.021432 -0.166499 0.000392 0.514872
 18 2.011149 -0.000001 -0.000001 0.000000 -0.000000 1.322792
 19 2.141380 -0.000000 -0.000000 0.000000 0.000000 0.000000
 20 1.734172 0.000000 -0.000000 0.000000 -0.000000 0.660693
 21 0.000004 -4.440593 -0.000001 1.570544 -0.062990 -0.195737
 22 5.999999 -0.000001 0.000001 -2.862527 -0.000000 -0.000000
 23 0.000002 -4.440601 0.000000 1.569944 -0.062987 0.004053
 24 11.375562 0.000001 0.000005 -2.328849 0.369431 -0.164363
 25 -0.000001 -4.440604 -0.000000 1.570144 -0.062988 0.004040
 26 10.510132 0.000000 -0.000000 0.000000 -0.000000 -1.941263
 27 0.000000 -1.748401 4.999998 0.000000 0.004007 1.602291
 28 5.500002 0.000000 0.000001 0.309605 0.000000 0.000000
 29 0.000001 -1.940598 5.000001 -0.044472 0.004003 -0.000180
 30 6.551491 0.000000 -0.000002 -0.830602 0.977949 -0.440506
 31 -0.000001 -1.940598 5.000001 -0.027189 -0.053376 0.005295
 32 6.551491 0.000000 -0.000002 -0.239061 0.435562 -0.049829
 33 -0.000000 -1.940599 4.999997 -0.066572 -0.152786 -0.110311
 34 -0.286242 -0.135765 -1.703225 -0.317405 1.270088 2.697399
 35 6.384776 0.000000 -0.000001 -0.989848 -0.454982 -0.106438
 36 10.242682 0.000001 0.000001 -0.000000 -0.000000 -1.855261
 37 11.375560 0.000000 0.000000 2.158169 0.523795 0.090597
 38 0.728682 0.023430 1.008291 -1.579583 -0.319038 0.212973
 39 2.136496 -0.000000 -0.000001 -0.000000 -0.000000 1.282817
 40 2.313140 -0.000001 0.000001 0.000000 0.000000 3.141593
 41 3.115508 -0.886042 0.021430 0.708959 0.171755 0.347804
 42 2.011153 -0.000002 -0.000001 -0.000000 0.000000 2.082010
 43 2.141381 0.000001 0.000001 0.000000 0.000000 3.141593
 44 1.734175 -0.000002 -0.000001 0.000000 -0.000000 1.041748
 45 0.136315 -3.738192 2.525891 1.493698 2.759406 -1.474501
 46 5.613162 0.862366 3.157029 1.595152 -0.135386 0.061522
 47 11.389367 -0.000817 0.158782 1.848715 0.283953 0.000998
 48 0.000000 -4.440599 -0.000000 1.570144 -3.078602 0.004040
 49 5.999998 0.000000 0.000000 1.848715 0.000000 -0.000000
 50 0.000002 -4.440601 0.000001 1.569944 -3.078603 0.004053
 51 10.510132 0.000000 0.000002 0.000000 -0.000000 -2.498427
 52 -0.000000 -1.748402 -5.000001 3.141593 0.004007 -1.539299
 53 5.500001 -0.000001 0.000000 0.286334 0.000000 -0.000000
 54 -0.000001 0.000000 -5.000000 -0.044472 3.137589 -0.000177
 55 6.551490 0.000001 -0.000002 -0.286334 -0.177710 -0.109019
 56 -1.266843 -1.937441 -4.950557 -0.066572 -2.988806 -0.110308
 57 6.551491 0.000000 -0.000002 -0.286334 -0.177710 -0.109019
 58 0.699370 -1.944204 -5.006846 -0.027189 -3.088217 0.005298
 59 4.226146 -0.003202 -0.000001 0.043181 -0.087622 0.065845
 60 0.000001 5.000002 0.000001 -0.153564 0.000087 2.718702
 61 0.000004 -0.000004 -3.713580 0.365818 2.880119 -0.191589
 62 0.000002 -0.000000 5.000000 3.053196 1.558589 -0.074928
 63 -0.000007 0.000006 3.713580 -0.001619 -3.122277 -0.475127
 64 0.000002 -0.000001 -5.000000 -0.088726 1.558589 3.066334
 65 7.363602 1.646647 0.495663 3.141593 -1.570796 0.000000
 66 -0.000005 0.000007 3.619081 0.008255 -3.110080 -0.985231
 67 16.573919 0.000002 0.000000 0.000000 -0.000000 -1.065827
 68 15.128181 0.000000 -0.000000 -0.102296 0.010178 0.114297
 69 5.758665 4.244730 0.000000 0.000000 0.000000 1.667687
 70 3.177725 0.000000 -0.000000 0.000000 0.000000 3.141593
 71 15.708953 0.000001 0.000000 -0.051525 0.003996 0.061523
 72 0.275148 0.189215 -3.445207 3.130898 0.000409 -1.514604
 73 17.210192 0.000001 0.000000 0.000000 -0.000000 -1.893339
 74 0.000001 -0.000000 -5.000000 -0.079430 1.546568 -1.570855
 75 0.000002 -0.000003 -3.619081 0.577895 2.675801 -0.242118
 76 16.573921 -0.000001 -0.000002 -0.000000 -0.000000 -1.163030
 77 15.128181 0.000001 0.000001 0.089479 0.309197 0.659208
 78 5.758666 4.244730 -0.000001 -0.000000 -0.000000 1.815142
 79 4.003934 -0.000000 0.000001 0.000000 0.000000 0.000000
 80 15.708954 0.000001 0.000002 0.042277 0.226871 0.443133
 81 0.273998 0.191089 3.439762 -3.130907 -0.000437 -1.508107
 82 17.210194 -0.000001 -0.000002 0.000000 -0.000000 -1.937080
 83 -0.000000 -0.000001 5.000000 -0.079319 1.595025 -1.570742
time 10
  0 -0.650000 0.000000 33.899605 -0.025849 0.174554 -1.569172
  1 5.685104 0.833236 -32.227173 -0.174512 -0.026131 1.569196
  2 -2.276935 0.000003 -1.238188 -1.570795 -1.570451 0.000000
  3 1.797145 0.711846 0.000568 -0.183238 -0.298978 0.055436
  4 4.119901 -0.002958 0.000559 -0.172358 0.128072 0.392170
  5 4.118998 -0.003206 0.000578 -0.178599 0.132409 0.098235
  6 4.118653 -0.003224 0.000599 -0.183978 0.060390 0.004068
  7 4.119037 -0.003501 -0.000285 0.081610 -0.165959 0.110202
  8 4.443602 -0.000001 -0.000001 0.732788 -0.287131 0.249872
  9 9.024061 0.000001 -0.000000 0.000000 0.000000 0.000000
 10 0.286246 0.142843 1.703225 1.979666 -1.169596 1.065370
 11 6.384777 -0.000001 -0.000000 -1.694734 1.115084 -1.407608
 12 10.242683 0.000000 0.000001 0.000000 0.000000 -0.742642
 13 11.375561 -0.000000 -0.000001 3.060196 0.473847 -0.563846
 14 0.728681 0.023432 -1.008292 2.396606 0.246960 1.180207
 15 2.136497 0.000000 -0.000001 -0.000000 0.000000 -0.078540
 16 2.313141 -0.000001 -0.000000 0.000000 0.000000 0.000000
 17 3.115507 -0.886041 -0.021431 -0.166499 0.000392 0.514872
 18 2.011151 0.000000 -0.000001 -0.000000 0.000000 1.322792
 19 2.141379 -0.000000 0.000001 0.000000 0.000000 0.000000
 20 1.734173 0.000002 0.000000 0.000000 0.000000 0.660693
 21 0.000005 -4.440594 -0.000000 1.570544 -0.062990 -0.195737
 22 5.999999 -0.000000 -0.000001 -2.860836 -0.000000 0.000000
 23 0.000002 -4.440600 -0.000000 1.569944 -0.062987 0.004053
 24 11.375561 0.000001 0.000003 -2.328122 0.368882 -0.163270
 25 -0.000001 -4.440603 -0.000000 1.570144 -0.062988 0.004040
 26 10.510129 0.000000 -0.000000 0.000000 0.000000 -1.942118
 27 -0.000000 -1.748400 4.999999 -0.000000 0.004007 1.602291
 28 5.500000 0.000000 0.000000 0.309991 -0.000000 -0.000000
 29 -0.000001 -1.940599 5.000000 -0.044472 0.004003 -0.000180
 30 6.551490 0.000000 0.000002 -0.832337 0.979568 -0.439754
 31 -0.000001 -1.940598 5.000001 -0.027189 -0.053376 0.005295
 32 6.551490 0.000000 0.000002 -0.239341 0.435875 -0.048965
 33 0.000000 -1.940599 4.999994 -0.066572 -0.152786 -0.110311
 34 -0.286238 -0.135766 -1.703226 -0.310363 1.271215 2.704452
 35 6.384776 0.000003 -0.000002 -0.986091 -0.453344 -0.113311
 36 10.242683 -0.000001 0.000001 -0.000000 0.000000 -1.853744
 37 11.375562 0.000002 -0.000001 2.162721 0.520020 0.090678
 38 0.728681 0.023432 1.008291 -1.579583 -0.319038 0.212973
 39 2.136496 0.000002 0.000000 -0.000000 0.000000 1.282817
 40 2.313140 0.000000 -0.000000 0.000000 0.000000 3.141593
 41 3.115507 -0.886041 0.021430 0.708959 0.171755 0.347804
 42 2.011148 0.000001 0.000002 -0.000000 0.000000 2.082010
 43 2.141379 -0.000001 -0.000001 0.000000 0.000000 3.141593
 44 1.734173 -0.000001 0.000001 0.000000 -0.000000 1.041748
 45 0.136315 -3.738193 2.525891 1.493698 2.759406 -1.474501
 46 5.613161 0.862367 3.157029 1.595152 -0.135386 0.061522
 47 11.389367 -0.000818 0.158781 1.851076 0.282263 0.001111
 48 -0.000000 -4.440598 0.000001 1.570144 -3.078602 0.004040
 49 5.999999 -0.000000 -0.000001 1.851076 0.000000 0.000000
 50 0.000002 -4.440601 -0.000001 1.569944 -3.078603 0.004053
 51 10.510132 -0.000003 0.000002 -0.000000 -0.000000 -2.497668
 52 -0.000001 -1.748400 -5.000000 -3.141593 0.004007 -1.539299
 53 5.500000 -0.000002 0.000001 0.285370 0.000000 0.000000
 54 -0.000000 -0.000002 -5.000000 -0.044472 3.137590 -0.000177
 55 6.551490 0.000001 -0.000000 -0.285370 -0.175494 -0.111834
 56 -1.266843 -1.937443 -4.950560 -0.066572 -2.988806 -0.110308
 57 6.551490 0.000001 -0.000000 -0.285370 -0.175494 -0.111834
 58 0.699371 -1.944208 -5.006847 -0.027189 -3.088217 0.005298
 59 4.226146 -0.003203 -0.000001 0.043181 -0.087622 0.065845
 60 -0.000000 5.000000 0.000001 -0.153564 0.000087 2.718702
 61 0.000004 -0.000004 -3.713580 0.365818 2.880119 -0.191589
 62 0.000002 -0.000000 5.000000 3.053196 1.558589 -0.074928
 63 -0.000007 0.000006 3.713580 -0.001619 -3.122277 -0.475127
 64 0.000002 -0.000001 -5.000000 -0.088726 1.558589 3.066334
 65 7.363602 1.646647 0.495663 3.141593 -1.570796 0.000000
 66 -0.000005 0.000007 3.619081 0.008255 -3.110080 -0.985231
 67 16.573919 0.000002 0.000000 0.000000 -0.000000 -1.065827
 68 15.128181 0.000000 -0.000000 -0.102296 0.010178 0.114297
 69 5.758665 4.244730 0.000000 0.000000 0.000000 1.667687
 70 3.177725 0.000000 -0.000000 0.000000 0.000000 3.141593
 71 15.708953 0.000001 0.000000 -0.051525 0.003996 0.061523
 72 0.275148 0.189215 -3.445207 3.130898 0.000409 -1.514604
 73 17.210192 0.000001 0.000000 0.000000 -0.000000 -1.893339
 74 0.000001 -0.000000 -5.000000 -0.079430 1.546568 -1.570855
 75 0.000002 -0.000003 -3.619081 0.577895 2.675801 -0.242118
 76 16.573921 -0.000001 -0.000002 -0.000000 -0.000000 -1.163030
 77 15.128181 0.000001 0.000001 0.089479 0.309197 0.659208
 78 5.758666 4.244730 -0.000001 -0.000000 -0.000000 1.815142
 79 4.003934 -0.000000 0.000001 0.000000 0.000000 0.000000
 80 15.708954 0.000001 0.000002 0.042277 0.226871 0.443133
 81 0.273998 0.191089 3.439762 -3.130907 -0.000437 -1.508107
 82 17.210194 -0.000001 -0.000002 0.000000 -0.000000 -1.937080
 83 -0.000000 -0.000001 5.000000 -0.079319 1.595025 -1.570742
end
