version 1
nodes
  0 "Bip01"  -1
  1 "Bip01 Footsteps"   0
  2 "Bip01 Pelvis"   0
  3 "Bip01 Spine"   2
  4 "Bip01 Spine1"   3
  5 "Bip01 Spine2"   4
  6 "Bip01 Spine3"   5
  7 "Bip01 Neck"   6
  8 "Bip01 Head"   7
  9 "Dummy21"   8
 10 "Bip01 L Clavicle"   7
 11 "Bip01 L UpperArm"  10
 12 "Bip01 L Forearm"  11
 13 "Bip01 L Hand"  12
 14 "Bip01 L Finger0"  13
 15 "Bip01 L Finger01"  14
 16 "Dummy06"  15
 17 "Bip01 L Finger1"  13
 18 "Bip01 L Finger11"  17
 19 "Dummy03"  18
 20 "-- L knuckle"  17
 21 "-- L knuckle_end"  20
 22 "-- L Forearm twist"  12
 23 "-- L Forearm twist_end"  22
 24 "-- L wrist"  12
 25 "-- L wrist_end"  24
 26 "-- L Elbow"  11
 27 "--L Elbow_end"  26
 28 "-- L bicep twist"  11
 29 "-- L bicep twist_end"  28
 30 "-- L shoulder outside"  10
 31 "-- L shoulder outside_end"  30
 32 "-- L Shoulder inside"  10
 33 "-- L Shoulder inside_end"  32
 34 "Bip01 R Clavicle"   7
 35 "Bip01 R UpperArm"  34
 36 "Bip01 R Forearm"  35
 37 "Bip01 R Hand"  36
 38 "Bip01 R Finger0"  37
 39 "Bip01 R Finger01"  38
 40 "Dummy01"  39
 41 "Bip01 R Finger1"  37
 42 "Bip01 R Finger11"  41
 43 "Dummy02"  42
 44 "-- R knuckle"  41
 45 "Point06"  44
 46 "Line01"  37
 47 "-- R wrist"  36
 48 "-- R wrist_end"  47
 49 "-- R forearm twist"  36
 50 "-- R forearm twist_end"  49
 51 "-- R Elbow"  35
 52 "--R Elbow_end"  51
 53 "-- R bicep twist"  35
 54 "-- R bicep twist_end"  53
 55 "-- R Shoulder inside"  34
 56 "-- R Shoulder inside_end"  55
 57 "-- R shoulder outside"  34
 58 "-- R shoulder outside_end"  57
 59 "-- Neck smooth"   6
 60 "-- neck smooth end"  59
 61 "-- R Butt"   2
 62 "--R Butt_end"  61
 63 "-- L butt"   2
 64 "--L butt_end"  63
 65 "GIGN01"   2
 66 "Bip01 L Thigh"   2
 67 "Bip01 L Calf"  66
 68 "Bip01 L Foot"  67
 69 "Bip01 L Toe0"  68
 70 "Dummy16"  69
 71 "-- L ankle"  67
 72 "-- L ankleend"  71
 73 "-- L Knee"  66
 74 "--L Knee_end"  73
 75 "Bip01 R Thigh"   2
 76 "Bip01 R Calf"  75
 77 "Bip01 R Foot"  76
 78 "Bip01 R Toe0"  77
 79 "Dummy11"  78
 80 "-- R Ankle"  76
 81 "-- R ankleend"  80
 82 "-- R Knee"  75
 83 "--R Knee_end"  82
end
skeleton
time 0
  0 -0.650000 0.000000 33.899605 -0.025849 0.174554 -1.569172
  1 5.685104 0.833236 -32.227173 -0.174512 -0.026131 1.569196
  2 -2.276935 0.000003 -1.238188 -1.570795 -1.570451 0.000000
  3 1.796133 0.712013 0.000594 -0.193659 -0.331354 -0.254775
  4 4.119662 -0.003040 0.000629 -0.193973 0.111998 0.314038
  5 4.118740 -0.003215 0.000637 -0.196729 0.105839 0.021437
  6 4.118392 -0.003207 0.000654 -0.200854 0.036987 -0.072258
  7 4.120025 -0.002640 -0.001880 0.598043 0.337512 0.715875
  8 4.443596 0.000001 -0.000001 0.236325 -0.671651 0.099085
  9 9.024061 0.000000 0.000000 0.000000 0.000000 0.000000
 10 -0.573776 0.924062 1.351198 0.657226 -0.756603 1.782718
 11 6.384777 -0.000001 0.000001 -0.453937 0.783582 -0.442746
 12 10.242683 0.000000 -0.000004 0.000000 0.000000 -1.078936
 13 11.375561 0.000001 -0.000003 2.639567 0.196629 -0.327066
 14 0.728680 0.023430 -1.008290 2.396606 0.246960 1.180207
 15 2.136496 -0.000001 0.000002 0.000000 -0.000000 -0.078540
 16 2.313141 0.000000 -0.000001 0.000000 0.000000 0.000000
 17 3.115507 -0.886042 -0.021431 -0.166499 0.000392 0.514872
 18 2.011149 -0.000002 -0.000000 0.000000 0.000000 1.322792
 19 2.141381 -0.000001 0.000000 0.000000 0.000000 0.000000
 20 1.734173 0.000003 0.000001 -0.000000 -0.000000 0.660693
 21 0.000005 -4.440595 0.000001 1.570544 -0.062990 -0.195737
 22 5.999999 -0.000000 -0.000001 2.974888 -0.000000 0.000000
 23 0.000001 -4.440601 0.000001 1.569944 -0.062987 0.004053
 24 11.375562 -0.000000 0.000002 -2.588667 0.228749 -0.106275
 25 -0.000001 -4.440604 0.000001 1.570144 -0.062988 0.004040
 26 10.510131 0.000000 -0.000005 -0.000000 0.000000 -2.110265
 27 0.000001 -1.748402 4.999999 -0.000000 0.004007 1.602290
 28 5.499998 -0.000001 -0.000002 0.134569 0.000000 0.000000
 29 -0.000002 -1.940598 5.000000 -0.044472 0.004003 -0.000180
 30 6.551491 -0.000001 0.000000 -0.274759 0.500647 -0.297108
 31 0.000000 -1.940598 5.000001 -0.027189 -0.053376 0.005295
 32 6.551491 -0.000001 0.000000 -0.109179 0.252116 -0.121492
 33 -0.000000 -1.940599 4.999996 -0.066572 -0.152786 -0.110311
 34 0.573775 -0.916984 -1.351200 3.035112 1.025162 -0.644692
 35 6.384775 -0.000000 0.000001 -0.529609 -0.924835 -0.430606
 36 10.242682 -0.000002 0.000002 0.000000 -0.000000 -1.660346
 37 11.375562 -0.000001 -0.000000 2.150141 0.346917 0.076843
 38 0.728681 0.023431 1.008291 -1.579583 -0.319038 0.212973
 39 2.136497 -0.000002 0.000000 -0.000000 0.000000 1.282817
 40 2.313142 0.000001 0.000000 0.000000 0.000000 3.141593
 41 3.115507 -0.886042 0.021432 0.708959 0.171755 0.347804
 42 2.011152 -0.000001 -0.000001 -0.000000 0.000000 2.082010
 43 2.141381 0.000000 0.000001 0.000000 0.000000 3.141593
 44 1.734173 -0.000002 -0.000000 -0.000000 -0.000000 1.041748
 45 0.136315 -3.738193 2.525890 1.493698 2.759406 -1.474501
 46 5.613160 0.862366 3.157031 1.595152 -0.135386 0.061522
 47 11.389366 -0.000821 0.158780 1.853196 0.196066 0.012417
 48 0.000000 -4.440598 -0.000001 1.570144 -3.078602 0.004040
 49 6.000000 -0.000002 -0.000001 1.853196 0.000000 0.000000
 50 0.000001 -4.440602 -0.000001 1.569944 -3.078603 0.004053
 51 10.510133 -0.000001 0.000002 -0.000000 0.000000 -2.400970
 52 -0.000000 -1.748401 -5.000001 -3.141593 0.004007 -1.539299
 53 5.499999 -0.000000 0.000000 0.174536 -0.000000 -0.000000
 54 0.000001 0.000000 -5.000000 -0.044472 3.137590 -0.000177
 55 6.551490 -0.000000 0.000000 -0.174536 -0.282784 -0.170138
 56 -1.266843 -1.937444 -4.950558 -0.066572 -2.988806 -0.110308
 57 6.551491 -0.000000 0.000000 -0.174536 -0.282784 -0.170138
 58 0.699371 -1.944209 -5.006845 -0.027189 -3.088217 0.005298
 59 4.226145 -0.003201 -0.000000 0.263371 0.217813 0.332406
 60 -0.000001 5.000001 -0.000001 -0.153564 0.000087 2.718702
 61 0.000004 -0.000004 -3.713580 0.365818 2.880119 -0.191589
 62 0.000002 -0.000000 5.000000 3.053196 1.558589 -0.074928
 63 -0.000007 0.000006 3.713580 -0.001619 -3.122277 -0.475127
 64 0.000002 -0.000001 -5.000000 -0.088726 1.558589 3.066334
 65 7.363602 1.646647 0.495663 3.141593 -1.570796 0.000000
 66 -0.000005 0.000007 3.619081 0.008255 -3.110080 -0.985231
 67 16.573919 0.000002 0.000000 0.000000 -0.000000 -1.065827
 68 15.128181 0.000000 -0.000000 -0.102296 0.010178 0.114297
 69 5.758665 4.244730 0.000000 0.000000 0.000000 1.667687
 70 3.177725 0.000000 -0.000000 0.000000 0.000000 3.141593
 71 15.708953 0.000001 0.000000 -0.051525 0.003996 0.061523
 72 0.275148 0.189215 -3.445207 3.130898 0.000409 -1.514604
 73 17.210192 0.000001 0.000000 0.000000 -0.000000 -1.893339
 74 0.000001 -0.000000 -5.000000 -0.079430 1.546568 -1.570855
 75 0.000002 -0.000003 -3.619081 0.577895 2.675801 -0.242118
 76 16.573921 -0.000001 -0.000002 -0.000000 -0.000000 -1.163030
 77 15.128181 0.000001 0.000001 0.089479 0.309197 0.659208
 78 5.758666 4.244730 -0.000001 -0.000000 -0.000000 1.815142
 79 4.003934 -0.000000 0.000001 0.000000 0.000000 0.000000
 80 15.708954 0.000001 0.000002 0.042277 0.226871 0.443133
 81 0.273998 0.191089 3.439762 -3.130907 -0.000437 -1.508107
 82 17.210194 -0.000001 -0.000002 0.000000 -0.000000 -1.937080
 83 -0.000000 -0.000001 5.000000 -0.079319 1.595025 -1.570742
time 1
  0 -0.650000 0.000000 33.899605 -0.025849 0.174554 -1.569172
  1 5.685104 0.833236 -32.227173 -0.174512 -0.026131 1.569196
  2 -2.276935 0.000003 -1.238188 -1.570795 -1.570451 0.000000
  3 1.796166 0.712001 0.000586 -0.190722 -0.328652 -0.245450
  4 4.119671 -0.003039 0.000618 -0.190598 0.111439 0.316978
  5 4.118747 -0.003216 0.000628 -0.193807 0.106110 0.023596
  6 4.118403 -0.003210 0.000643 -0.197535 0.037727 -0.069570
  7 4.120255 -0.002501 -0.001885 0.584825 0.266748 0.756094
  8 4.443599 0.000001 0.000001 0.298149 -0.621675 -0.060115
  9 9.024060 -0.000002 -0.000000 0.000000 0.000000 0.000000
 10 -0.456740 0.926260 1.393662 0.703031 -0.787418 1.679414
 11 6.384777 -0.000000 0.000001 -0.543431 0.768612 -0.503396
 12 10.242680 -0.000001 0.000001 0.000000 -0.000000 -1.036265
 13 11.375562 0.000001 0.000003 2.666142 0.239066 -0.346311
 14 0.728680 0.023430 -1.008292 2.396606 0.246960 1.180207
 15 2.136498 0.000000 -0.000001 -0.000000 -0.000000 -0.078540
 16 2.313142 0.000000 -0.000002 0.000000 0.000000 0.000000
 17 3.115506 -0.886041 -0.021430 -0.166499 0.000392 0.514872
 18 2.011150 0.000002 -0.000000 0.000000 0.000000 1.322792
 19 2.141380 -0.000000 -0.000000 0.000000 0.000000 0.000000
 20 1.734170 0.000000 0.000000 0.000000 -0.000000 0.660693
 21 0.000006 -4.440594 -0.000000 1.570544 -0.062990 -0.195737
 22 6.000000 -0.000001 0.000002 3.006093 -0.000000 -0.000000
 23 0.000002 -4.440603 -0.000000 1.569944 -0.062987 0.004053
 24 11.375560 0.000001 0.000004 -2.569142 0.252069 -0.101998
 25 -0.000001 -4.440605 0.000001 1.570144 -0.062988 0.004040
 26 10.510129 -0.000000 -0.000000 0.000000 -0.000000 -2.088928
 27 0.000001 -1.748401 5.000000 0.000000 0.004007 1.602290
 28 5.499998 -0.000000 0.000000 0.165500 0.000000 0.000000
 29 -0.000003 -1.940599 5.000001 -0.044472 0.004003 -0.000180
 30 6.551491 0.000000 0.000002 -0.332546 0.491572 -0.320686
 31 -0.000000 -1.940599 5.000002 -0.027189 -0.053376 0.005295
 32 6.551491 0.000000 0.000002 -0.134685 0.249814 -0.128811
 33 -0.000000 -1.940599 4.999994 -0.066572 -0.152786 -0.110311
 34 0.456742 -0.919179 -1.393664 3.020460 1.078588 -0.730726
 35 6.384776 0.000000 -0.000001 -0.477278 -0.925267 -0.477459
 36 10.242683 -0.000002 0.000002 -0.000000 0.000000 -1.637546
 37 11.375561 -0.000002 -0.000002 2.140571 0.351315 0.074776
 38 0.728681 0.023431 1.008293 -1.579583 -0.319038 0.212973
 39 2.136497 -0.000001 -0.000001 -0.000000 0.000000 1.282817
 40 2.313137 -0.000001 0.000000 0.000000 0.000000 3.141593
 41 3.115507 -0.886042 0.021433 0.708959 0.171755 0.347804
 42 2.011151 -0.000001 -0.000001 0.000000 0.000000 2.082010
 43 2.141381 0.000000 -0.000000 0.000000 0.000000 3.141593
 44 1.734173 -0.000003 -0.000002 0.000000 0.000000 1.041748
 45 0.136315 -3.738192 2.525891 1.493698 2.759406 -1.474501
 46 5.613160 0.862366 3.157034 1.595152 -0.135386 0.061522
 47 11.389368 -0.000821 0.158780 1.848424 0.198037 0.011335
 48 0.000001 -4.440601 0.000000 1.570144 -3.078602 0.004040
 49 6.000001 -0.000000 -0.000000 1.848424 0.000000 -0.000000
 50 0.000002 -4.440601 -0.000001 1.569944 -3.078603 0.004053
 51 10.510134 -0.000001 0.000002 0.000000 -0.000000 -2.389569
 52 0.000000 -1.748398 -5.000000 3.141593 0.004007 -1.539299
 53 5.500001 -0.000001 0.000001 0.165680 0.000000 -0.000000
 54 -0.000000 0.000000 -5.000001 -0.044472 3.137589 -0.000177
 55 6.551490 0.000000 0.000001 -0.165680 -0.281775 -0.177184
 56 -1.266843 -1.937443 -4.950561 -0.066572 -2.988806 -0.110308
 57 6.551490 0.000000 0.000001 -0.165680 -0.281775 -0.177184
 58 0.699370 -1.944208 -5.006847 -0.027189 -3.088217 0.005298
 59 4.226143 -0.003201 0.000000 0.263521 0.185382 0.358564
 60 0.000002 5.000000 -0.000000 -0.153564 0.000087 2.718702
 61 0.000004 -0.000004 -3.713580 0.365818 2.880119 -0.191589
 62 0.000002 -0.000000 5.000000 3.053196 1.558589 -0.074928
 63 -0.000007 0.000006 3.713580 -0.001619 -3.122277 -0.475127
 64 0.000002 -0.000001 -5.000000 -0.088726 1.558589 3.066334
 65 7.363602 1.646647 0.495663 3.141593 -1.570796 0.000000
 66 -0.000005 0.000007 3.619081 0.008255 -3.110080 -0.985231
 67 16.573919 0.000002 0.000000 0.000000 -0.000000 -1.065827
 68 15.128181 0.000000 -0.000000 -0.102296 0.010178 0.114297
 69 5.758665 4.244730 0.000000 0.000000 0.000000 1.667687
 70 3.177725 0.000000 -0.000000 0.000000 0.000000 3.141593
 71 15.708953 0.000001 0.000000 -0.051525 0.003996 0.061523
 72 0.275148 0.189215 -3.445207 3.130898 0.000409 -1.514604
 73 17.210192 0.000001 0.000000 0.000000 -0.000000 -1.893339
 74 0.000001 -0.000000 -5.000000 -0.079430 1.546568 -1.570855
 75 0.000002 -0.000003 -3.619081 0.577895 2.675801 -0.242118
 76 16.573921 -0.000001 -0.000002 -0.000000 -0.000000 -1.163030
 77 15.128181 0.000001 0.000001 0.089479 0.309197 0.659208
 78 5.758666 4.244730 -0.000001 -0.000000 -0.000000 1.815142
 79 4.003934 -0.000000 0.000001 0.000000 0.000000 0.000000
 80 15.708954 0.000001 0.000002 0.042277 0.226871 0.443133
 81 0.273998 0.191089 3.439762 -3.130907 -0.000437 -1.508107
 82 17.210194 -0.000001 -0.000002 0.000000 -0.000000 -1.937080
 83 -0.000000 -0.000001 5.000000 -0.079319 1.595025 -1.570742
time 2
  0 -0.650000 0.000000 33.899605 -0.025849 0.174554 -1.569172
  1 5.685104 0.833236 -32.227173 -0.174512 -0.026131 1.569196
  2 -2.276935 0.000003 -1.238188 -1.570795 -1.570451 0.000000
  3 1.796198 0.711989 0.000577 -0.187761 -0.325976 -0.236126
  4 4.119678 -0.003038 0.000608 -0.187225 0.110871 0.319915
  5 4.118757 -0.003218 0.000618 -0.190884 0.106375 0.025756
  6 4.118407 -0.003212 0.000633 -0.194213 0.038458 -0.066879
  7 4.120474 -0.002351 -0.001869 0.568955 0.196517 0.796588
  8 4.443598 0.000001 0.000000 0.346805 -0.565640 -0.209880
  9 9.024061 0.000001 0.000000 0.000000 0.000000 0.000000
 10 -0.338324 0.919073 1.431661 0.754652 -0.814573 1.570986
 11 6.384777 -0.000001 0.000000 -0.632064 0.748870 -0.564008
 12 10.242683 -0.000000 0.000000 -0.000000 -0.000000 -0.991052
 13 11.375562 -0.000000 0.000002 2.693159 0.281582 -0.365044
 14 0.728681 0.023430 -1.008292 2.396606 0.246960 1.180207
 15 2.136496 0.000000 0.000001 -0.000000 -0.000000 -0.078540
 16 2.313141 0.000000 -0.000001 0.000000 0.000000 0.000000
 17 3.115507 -0.886042 -0.021432 -0.166499 0.000392 0.514872
 18 2.011151 -0.000002 -0.000001 -0.000000 -0.000000 1.322792
 19 2.141380 -0.000000 0.000000 0.000000 0.000000 0.000000
 20 1.734173 0.000000 -0.000002 0.000000 -0.000000 0.660693
 21 0.000006 -4.440594 0.000000 1.570544 -0.062990 -0.195737
 22 5.999999 0.000001 0.000000 3.038290 -0.000000 0.000000
 23 0.000001 -4.440599 0.000001 1.569944 -0.062987 0.004053
 24 11.375561 0.000001 0.000005 -2.548758 0.274341 -0.098023
 25 -0.000001 -4.440602 -0.000003 1.570144 -0.062988 0.004040
 26 10.510131 -0.000000 -0.000000 -0.000000 0.000000 -2.066322
 27 -0.000001 -1.748399 4.999999 -0.000000 0.004007 1.602290
 28 5.500001 -0.000000 -0.000000 0.195669 0.000000 0.000000
 29 -0.000001 -1.940599 5.000000 -0.044472 0.004003 -0.000180
 30 6.551491 -0.000001 -0.000003 -0.389218 0.481852 -0.344342
 31 -0.000001 -1.940600 5.000001 -0.027189 -0.053376 0.005295
 32 6.551491 -0.000001 -0.000003 -0.159471 0.247353 -0.136211
 33 0.000001 -1.940599 4.999996 -0.066572 -0.152786 -0.110311
 34 0.338326 -0.911999 -1.431660 2.994604 1.131379 -0.827085
 35 6.384777 -0.000001 0.000001 -0.424829 -0.923545 -0.524718
 36 10.242682 0.000000 0.000001 -0.000000 0.000000 -1.614574
 37 11.375563 0.000003 0.000000 2.131202 0.355414 0.072388
 38 0.728681 0.023430 1.008294 -1.579583 -0.319038 0.212973
 39 2.136496 -0.000003 0.000000 0.000000 0.000000 1.282817
 40 2.313138 0.000001 0.000000 0.000000 0.000000 3.141593
 41 3.115507 -0.886041 0.021433 0.708959 0.171755 0.347804
 42 2.011151 -0.000000 0.000001 0.000000 0.000000 2.082010
 43 2.141380 0.000001 0.000001 0.000000 0.000000 3.141593
 44 1.734172 -0.000001 0.000001 -0.000000 0.000000 1.041748
 45 0.136315 -3.738192 2.525891 1.493698 2.759406 -1.474501
 46 5.613160 0.862366 3.157032 1.595152 -0.135386 0.061522
 47 11.389367 -0.000818 0.158781 1.843777 0.199839 0.010109
 48 0.000000 -4.440599 0.000002 1.570144 -3.078602 0.004040
 49 6.000000 0.000001 -0.000000 1.843777 0.000000 -0.000000
 50 0.000003 -4.440600 -0.000002 1.569944 -3.078603 0.004053
 51 10.510133 0.000000 0.000001 0.000000 0.000000 -2.378083
 52 0.000002 -1.748402 -5.000002 -3.141593 0.004007 -1.539299
 53 5.500002 -0.000000 0.000001 0.156851 0.000000 0.000000
 54 -0.000001 -0.000001 -5.000000 -0.044472 3.137590 -0.000177
 55 6.551491 -0.000000 -0.000001 -0.156851 -0.280505 -0.184170
 56 -1.266843 -1.937445 -4.950560 -0.066572 -2.988806 -0.110308
 57 6.551492 -0.000000 -0.000001 -0.156851 -0.280505 -0.184170
 58 0.699370 -1.944208 -5.006848 -0.027189 -3.088217 0.005298
 59 4.226146 -0.003201 0.000000 0.262739 0.152938 0.383687
 60 -0.000002 5.000002 -0.000000 -0.153565 0.000087 2.718702
 61 0.000004 -0.000004 -3.713580 0.365818 2.880119 -0.191589
 62 0.000002 -0.000000 5.000000 3.053196 1.558589 -0.074928
 63 -0.000007 0.000006 3.713580 -0.001619 -3.122277 -0.475127
 64 0.000002 -0.000001 -5.000000 -0.088726 1.558589 3.066334
 65 7.363602 1.646647 0.495663 3.141593 -1.570796 0.000000
 66 -0.000005 0.000007 3.619081 0.008255 -3.110080 -0.985231
 67 16.573919 0.000002 0.000000 0.000000 -0.000000 -1.065827
 68 15.128181 0.000000 -0.000000 -0.102296 0.010178 0.114297
 69 5.758665 4.244730 0.000000 0.000000 0.000000 1.667687
 70 3.177725 0.000000 -0.000000 0.000000 0.000000 3.141593
 71 15.708953 0.000001 0.000000 -0.051525 0.003996 0.061523
 72 0.275148 0.189215 -3.445207 3.130898 0.000409 -1.514604
 73 17.210192 0.000001 0.000000 0.000000 -0.000000 -1.893339
 74 0.000001 -0.000000 -5.000000 -0.079430 1.546568 -1.570855
 75 0.000002 -0.000003 -3.619081 0.577895 2.675801 -0.242118
 76 16.573921 -0.000001 -0.000002 -0.000000 -0.000000 -1.163030
 77 15.128181 0.000001 0.000001 0.089479 0.309197 0.659208
 78 5.758666 4.244730 -0.000001 -0.000000 -0.000000 1.815142
 79 4.003934 -0.000000 0.000001 0.000000 0.000000 0.000000
 80 15.708954 0.000001 0.000002 0.042277 0.226871 0.443133
 81 0.273998 0.191089 3.439762 -3.130907 -0.000437 -1.508107
 82 17.210194 -0.000001 -0.000002 0.000000 -0.000000 -1.937080
 83 -0.000000 -0.000001 5.000000 -0.079319 1.595025 -1.570742
time 3
  0 -0.650000 0.000000 33.899605 -0.025849 0.174554 -1.569172
  1 5.685104 0.833236 -32.227173 -0.174512 -0.026131 1.569196
  2 -2.276935 0.000003 -1.238188 -1.570795 -1.570451 0.000000
  3 1.796216 0.711983 0.000572 -0.185985 -0.324393 -0.230567
  4 4.119686 -0.003037 0.000600 -0.185215 0.110528 0.321665
  5 4.118763 -0.003219 0.000610 -0.187923 0.106889 0.029037
  6 4.118415 -0.003214 0.000626 -0.192231 0.038889 -0.065273
  7 4.120687 -0.002193 -0.001836 0.550433 0.126941 0.837726
  8 4.443600 -0.000002 0.000001 0.383521 -0.507264 -0.345359
  9 9.024059 -0.000001 -0.000000 0.000000 0.000000 0.000000
 10 -0.219364 0.902551 1.464915 0.811818 -0.837562 1.457583
 11 6.384778 0.000000 -0.000000 -0.709989 0.741207 -0.610333
 12 10.242682 0.000002 -0.000001 0.000000 0.000000 -0.963147
 13 11.375562 -0.000002 0.000002 2.724449 0.322658 -0.371335
 14 0.728681 0.023432 -1.008293 2.396606 0.246960 1.180207
 15 2.136496 0.000001 -0.000001 -0.000000 -0.000000 -0.078540
 16 2.313138 0.000000 -0.000000 0.000000 0.000000 0.000000
 17 3.115506 -0.886043 -0.021431 -0.166499 0.000392 0.514872
 18 2.011150 0.000001 0.000000 0.000000 -0.000000 1.322792
 19 2.141379 0.000000 -0.000000 0.000000 0.000000 0.000000
 20 1.734171 -0.000000 -0.000001 0.000000 -0.000000 0.660693
 21 0.000006 -4.440594 0.000000 1.570544 -0.062990 -0.195737
 22 6.000000 0.000001 0.000001 3.075193 0.000000 -0.000000
 23 0.000002 -4.440601 -0.000001 1.569944 -0.062987 0.004053
 24 11.375561 -0.000001 0.000003 -2.526628 0.291475 -0.088904
 25 -0.000000 -4.440604 0.000001 1.570144 -0.062988 0.004040
 26 10.510127 0.000001 -0.000000 -0.000000 0.000000 -2.052370
 27 0.000001 -1.748402 4.999999 -0.000000 0.004007 1.602290
 28 5.499998 0.000001 -0.000001 0.221980 -0.000000 -0.000000
 29 -0.000001 -1.940599 5.000000 -0.044472 0.004003 -0.000180
 30 6.551492 0.000000 0.000001 -0.439460 0.482268 -0.355982
 31 -0.000000 -1.940598 5.000003 -0.027189 -0.053376 0.005295
 32 6.551492 0.000000 0.000001 -0.180999 0.249025 -0.137569
 33 -0.000000 -1.940599 4.999995 -0.066572 -0.152786 -0.110311
 34 0.219368 -0.895477 -1.464914 2.957526 1.179588 -0.933485
 35 6.384777 0.000000 -0.000000 -0.392874 -0.920690 -0.552953
 36 10.242682 -0.000002 0.000003 -0.000000 -0.000000 -1.601914
 37 11.375562 -0.000001 0.000000 2.124971 0.358574 0.071283
 38 0.728680 0.023431 1.008294 -1.579583 -0.319038 0.212973
 39 2.136496 -0.000002 -0.000000 -0.000000 0.000000 1.282817
 40 2.313138 -0.000000 -0.000000 0.000000 0.000000 3.141593
 41 3.115507 -0.886041 0.021430 0.708959 0.171755 0.347804
 42 2.011151 0.000001 0.000002 -0.000000 0.000000 2.082010
 43 2.141378 0.000000 0.000001 0.000000 0.000000 3.141593
 44 1.734173 -0.000002 -0.000001 -0.000000 0.000000 1.041748
 45 0.136315 -3.738192 2.525892 1.493698 2.759406 -1.474501
 46 5.613160 0.862367 3.157032 1.595152 -0.135386 0.061522
 47 11.389367 -0.000820 0.158782 1.840657 0.201288 0.009524
 48 0.000000 -4.440599 -0.000000 1.570144 -3.078602 0.004040
 49 6.000000 -0.000001 0.000001 1.840657 0.000000 0.000000
 50 0.000002 -4.440600 0.000001 1.569944 -3.078603 0.004053
 51 10.510131 -0.000001 0.000003 0.000000 -0.000000 -2.371753
 52 0.000001 -1.748403 -5.000003 -3.141593 0.004007 -1.539299
 53 5.499999 -0.000000 0.000000 0.151409 -0.000000 0.000000
 54 -0.000003 0.000001 -5.000000 -0.044472 3.137590 -0.000177
 55 6.551491 -0.000000 0.000001 -0.151410 -0.279454 -0.188341
 56 -1.266843 -1.937444 -4.950561 -0.066572 -2.988806 -0.110308
 57 6.551492 -0.000000 0.000001 -0.151410 -0.279454 -0.188341
 58 0.699371 -1.944208 -5.006848 -0.027189 -3.088217 0.005298
 59 4.226146 -0.003201 -0.000000 0.261068 0.120478 0.408000
 60 0.000002 5.000002 0.000001 -0.153564 0.000087 2.718702
 61 0.000004 -0.000004 -3.713580 0.365818 2.880119 -0.191589
 62 0.000002 -0.000000 5.000000 3.053196 1.558589 -0.074928
 63 -0.000007 0.000006 3.713580 -0.001619 -3.122277 -0.475127
 64 0.000002 -0.000001 -5.000000 -0.088726 1.558589 3.066334
 65 7.363602 1.646647 0.495663 3.141593 -1.570796 0.000000
 66 -0.000005 0.000007 3.619081 0.008255 -3.110080 -0.985231
 67 16.573919 0.000002 0.000000 0.000000 -0.000000 -1.065827
 68 15.128181 0.000000 -0.000000 -0.102296 0.010178 0.114297
 69 5.758665 4.244730 0.000000 0.000000 0.000000 1.667687
 70 3.177725 0.000000 -0.000000 0.000000 0.000000 3.141593
 71 15.708953 0.000001 0.000000 -0.051525 0.003996 0.061523
 72 0.275148 0.189215 -3.445207 3.130898 0.000409 -1.514604
 73 17.210192 0.000001 0.000000 0.000000 -0.000000 -1.893339
 74 0.000001 -0.000000 -5.000000 -0.079430 1.546568 -1.570855
 75 0.000002 -0.000003 -3.619081 0.577895 2.675801 -0.242118
 76 16.573921 -0.000001 -0.000002 -0.000000 -0.000000 -1.163030
 77 15.128181 0.000001 0.000001 0.089479 0.309197 0.659208
 78 5.758666 4.244730 -0.000001 -0.000000 -0.000000 1.815142
 79 4.003934 -0.000000 0.000001 0.000000 0.000000 0.000000
 80 15.708954 0.000001 0.000002 0.042277 0.226871 0.443133
 81 0.273998 0.191089 3.439762 -3.130907 -0.000437 -1.508107
 82 17.210194 -0.000001 -0.000002 0.000000 -0.000000 -1.937080
 83 -0.000000 -0.000001 5.000000 -0.079319 1.595025 -1.570742
time 4
  0 -0.650000 0.000000 33.899605 -0.025849 0.174554 -1.569172
  1 5.685104 0.833236 -32.227173 -0.174512 -0.026131 1.569196
  2 -2.276935 0.000003 -1.238188 -1.570795 -1.570451 0.000000
  3 1.796220 0.711981 0.000571 -0.185415 -0.323889 -0.228789
  4 4.119691 -0.003037 0.000598 -0.184572 0.110417 0.322225
  5 4.118775 -0.003220 0.000600 -0.184920 0.107648 0.033445
  6 4.118419 -0.003215 0.000624 -0.191597 0.039026 -0.064759
  7 4.120690 -0.002193 -0.001836 0.550433 0.126941 0.837726
  8 4.443600 -0.000002 0.000001 0.383229 -0.507121 -0.353757
  9 9.024059 0.000002 -0.000000 0.000000 0.000000 0.000000
 10 -0.219365 0.902552 1.464913 0.811817 -0.837562 1.457584
 11 6.384777 -0.000001 -0.000002 -0.717050 0.729452 -0.620445
 12 10.242682 0.000001 -0.000001 0.000000 0.000000 -0.954658
 13 11.375560 -0.000000 0.000002 2.722065 0.323404 -0.377032
 14 0.728681 0.023432 -1.008293 2.396606 0.246960 1.180207
 15 2.136496 0.000000 0.000000 0.000000 -0.000000 -0.078540
 16 2.313138 0.000000 -0.000000 0.000000 0.000000 0.000000
 17 3.115507 -0.886040 -0.021433 -0.166499 0.000392 0.514872
 18 2.011149 0.000000 -0.000000 -0.000000 -0.000000 1.322791
 19 2.141378 0.000001 -0.000000 0.000000 0.000000 0.000000
 20 1.734170 0.000000 -0.000001 0.000000 -0.000000 0.660693
 21 0.000006 -4.440594 0.000001 1.570544 -0.062990 -0.195737
 22 5.999999 0.000002 -0.000001 3.072853 0.000000 0.000000
 23 0.000002 -4.440601 -0.000001 1.569944 -0.062987 0.004053
 24 11.375561 0.000000 0.000004 -2.527337 0.293542 -0.091423
 25 -0.000001 -4.440602 -0.000002 1.570144 -0.062988 0.004040
 26 10.510131 -0.000000 0.000000 0.000000 -0.000000 -2.048126
 27 0.000001 -1.748401 5.000000 0.000000 0.004007 1.602290
 28 5.500000 -0.000000 0.000000 0.224198 -0.000000 -0.000000
 29 -0.000003 -1.940598 5.000002 -0.044472 0.004003 -0.000180
 30 6.551491 -0.000000 -0.000000 -0.443370 0.474712 -0.364751
 31 -0.000002 -1.940599 5.000005 -0.027189 -0.053376 0.005295
 32 6.551491 -0.000000 -0.000000 -0.182804 0.246045 -0.141967
 33 -0.000001 -1.940600 5.000000 -0.066572 -0.152786 -0.110311
 34 0.219369 -0.895477 -1.464914 2.955625 1.181177 -0.935593
 35 6.384776 -0.000000 0.000001 -0.381378 -0.918224 -0.561977
 36 10.242684 -0.000000 0.000004 -0.000000 0.000000 -1.599773
 37 11.375562 -0.000002 -0.000002 2.121771 0.360990 0.071722
 38 0.728681 0.023431 1.008290 -1.579583 -0.319038 0.212973
 39 2.136497 0.000001 -0.000001 -0.000000 0.000000 1.282817
 40 2.313137 -0.000001 0.000000 0.000000 0.000000 3.141593
 41 3.115507 -0.886042 0.021431 0.708959 0.171755 0.347804
 42 2.011151 -0.000001 -0.000001 0.000000 0.000000 2.082010
 43 2.141380 0.000001 -0.000000 0.000000 0.000000 3.141593
 44 1.734172 -0.000001 0.000000 -0.000000 -0.000000 1.041748
 45 0.136316 -3.738192 2.525893 1.493698 2.759406 -1.474501
 46 5.613160 0.862365 3.157031 1.595152 -0.135386 0.061522
 47 11.389368 -0.000818 0.158781 1.838994 0.202494 0.009703
 48 0.000001 -4.440599 -0.000000 1.570144 -3.078602 0.004040
 49 6.000001 0.000001 -0.000001 1.838994 -0.000000 -0.000000
 50 0.000002 -4.440601 0.000001 1.569944 -3.078603 0.004053
 51 10.510130 0.000001 0.000003 0.000000 -0.000000 -2.370683
 52 0.000000 -1.748399 -5.000002 -3.141593 0.004007 -1.539299
 53 5.500000 0.000000 0.000002 0.149343 0.000000 0.000000
 54 -0.000001 -0.000000 -5.000000 -0.044472 3.137589 -0.000177
 55 6.551490 0.000001 -0.000000 -0.149343 -0.278795 -0.189738
 56 -1.266844 -1.937443 -4.950561 -0.066572 -2.988806 -0.110308
 57 6.551490 0.000000 -0.000000 -0.149343 -0.278795 -0.189738
 58 0.699369 -1.944208 -5.006851 -0.027189 -3.088217 0.005298
 59 4.226147 -0.003201 0.000000 0.261068 0.120478 0.408000
 60 -0.000002 5.000000 -0.000000 -0.153565 0.000087 2.718702
 61 0.000004 -0.000004 -3.713580 0.365818 2.880119 -0.191589
 62 0.000002 -0.000000 5.000000 3.053196 1.558589 -0.074928
 63 -0.000007 0.000006 3.713580 -0.001619 -3.122277 -0.475127
 64 0.000002 -0.000001 -5.000000 -0.088726 1.558589 3.066334
 65 7.363602 1.646647 0.495663 3.141593 -1.570796 0.000000
 66 -0.000005 0.000007 3.619081 0.008255 -3.110080 -0.985231
 67 16.573919 0.000002 0.000000 0.000000 -0.000000 -1.065827
 68 15.128181 0.000000 -0.000000 -0.102296 0.010178 0.114297
 69 5.758665 4.244730 0.000000 0.000000 0.000000 1.667687
 70 3.177725 0.000000 -0.000000 0.000000 0.000000 3.141593
 71 15.708953 0.000001 0.000000 -0.051525 0.003996 0.061523
 72 0.275148 0.189215 -3.445207 3.130898 0.000409 -1.514604
 73 17.210192 0.000001 0.000000 0.000000 -0.000000 -1.893339
 74 0.000001 -0.000000 -5.000000 -0.079430 1.546568 -1.570855
 75 0.000002 -0.000003 -3.619081 0.577895 2.675801 -0.242118
 76 16.573921 -0.000001 -0.000002 -0.000000 -0.000000 -1.163030
 77 15.128181 0.000001 0.000001 0.089479 0.309197 0.659208
 78 5.758666 4.244730 -0.000001 -0.000000 -0.000000 1.815142
 79 4.003934 -0.000000 0.000001 0.000000 0.000000 0.000000
 80 15.708954 0.000001 0.000002 0.042277 0.226871 0.443133
 81 0.273998 0.191089 3.439762 -3.130907 -0.000437 -1.508107
 82 17.210194 -0.000001 -0.000002 0.000000 -0.000000 -1.937080
 83 -0.000000 -0.000001 5.000000 -0.079319 1.595025 -1.570742
time 5
  0 -0.650000 0.000000 33.899605 -0.025849 0.174554 -1.569172
  1 5.685104 0.833236 -32.227173 -0.174512 -0.026131 1.569196
  2 -2.276935 0.000003 -1.238188 -1.570795 -1.570451 0.000000
  3 1.796224 0.711980 0.000570 -0.185193 -0.323693 -0.228097
  4 4.119688 -0.003037 0.000597 -0.184322 0.110374 0.322443
  5 4.118790 -0.003221 0.000589 -0.181901 0.108467 0.038179
  6 4.118415 -0.003214 0.000624 -0.191351 0.039080 -0.064559
  7 4.120689 -0.002193 -0.001836 0.550433 0.126941 0.837726
  8 4.443599 -0.000002 0.000001 0.383124 -0.507535 -0.360401
  9 9.024059 0.000001 -0.000000 0.000000 0.000000 0.000000
 10 -0.219366 0.902552 1.464914 0.811817 -0.837562 1.457584
 11 6.384777 0.000000 0.000002 -0.721406 0.722573 -0.626623
 12 10.242680 -0.000000 -0.000000 0.000000 -0.000000 -0.951923
 13 11.375563 0.000002 -0.000000 2.720747 0.323729 -0.379279
 14 0.728681 0.023431 -1.008293 2.396606 0.246960 1.180207
 15 2.136496 0.000000 -0.000001 -0.000000 -0.000000 -0.078540
 16 2.313140 0.000000 -0.000000 0.000000 0.000000 0.000000
 17 3.115506 -0.886042 -0.021430 -0.166499 0.000392 0.514872
 18 2.011149 0.000002 0.000001 -0.000000 -0.000000 1.322792
 19 2.141379 0.000000 -0.000001 0.000000 0.000000 0.000000
 20 1.734171 0.000003 0.000001 0.000000 0.000000 0.660693
 21 0.000006 -4.440594 -0.000000 1.570544 -0.062990 -0.195737
 22 6.000000 -0.000001 0.000001 3.071544 -0.000000 0.000000
 23 0.000001 -4.440600 -0.000000 1.569944 -0.062987 0.004053
 24 11.375562 -0.000000 0.000004 -2.527791 0.294405 -0.092367
 25 -0.000001 -4.440604 0.000001 1.570144 -0.062988 0.004040
 26 10.510127 -0.000001 -0.000000 0.000000 0.000000 -2.046758
 27 0.000001 -1.748400 5.000000 0.000000 0.004007 1.602291
 28 5.499997 -0.000001 -0.000000 0.225541 0.000000 0.000000
 29 -0.000001 -1.940598 5.000001 -0.044472 0.004003 -0.000180
 30 6.551491 0.000000 -0.000000 -0.445738 0.470305 -0.369905
 31 -0.000000 -1.940599 5.000002 -0.027189 -0.053376 0.005295
 32 6.551491 0.000000 -0.000000 -0.183896 0.244310 -0.144544
 33 0.000001 -1.940598 4.999996 -0.066572 -0.152786 -0.110311
 34 0.219369 -0.895477 -1.464913 2.954881 1.181795 -0.936418
 35 6.384776 -0.000001 0.000000 -0.375747 -0.915986 -0.565468
 36 10.242682 0.000000 0.000001 0.000000 -0.000000 -1.600681
 37 11.375561 -0.000001 -0.000001 2.119435 0.363201 0.072630
 38 0.728681 0.023431 1.008292 -1.579583 -0.319038 0.212973
 39 2.136497 -0.000004 -0.000001 -0.000000 0.000000 1.282817
 40 2.313143 0.000001 0.000001 0.000000 0.000000 3.141593
 41 3.115507 -0.886040 0.021433 0.708959 0.171755 0.347804
 42 2.011151 0.000000 0.000003 -0.000000 0.000000 2.082010
 43 2.141379 0.000000 -0.000002 0.000000 0.000000 3.141593
 44 1.734173 -0.000002 0.000001 -0.000000 -0.000000 1.041748
 45 0.136316 -3.738192 2.525892 1.493698 2.759406 -1.474501
 46 5.613160 0.862367 3.157031 1.595152 -0.135386 0.061522
 47 11.389367 -0.000821 0.158780 1.837744 0.203635 0.010113
 48 0.000000 -4.440598 0.000001 1.570144 -3.078602 0.004040
 49 6.000000 -0.000001 -0.000001 1.837744 -0.000000 -0.000000
 50 0.000001 -4.440602 0.000001 1.569944 -3.078603 0.004053
 51 10.510132 0.000001 0.000001 0.000000 0.000000 -2.371137
 52 0.000000 -1.748401 -5.000000 -3.141593 0.004007 -1.539299
 53 5.500000 0.000001 0.000001 0.148245 -0.000000 0.000000
 54 -0.000001 -0.000001 -5.000000 -0.044472 3.137589 -0.000177
 55 6.551491 -0.000001 0.000002 -0.148245 -0.278262 -0.190339
 56 -1.266844 -1.937442 -4.950562 -0.066572 -2.988806 -0.110308
 57 6.551491 -0.000001 0.000002 -0.148245 -0.278262 -0.190339
 58 0.699371 -1.944207 -5.006848 -0.027189 -3.088217 0.005298
 59 4.226146 -0.003201 0.000000 0.261068 0.120478 0.408000
 60 -0.000002 5.000000 0.000000 -0.153564 0.000087 2.718702
 61 0.000004 -0.000004 -3.713580 0.365818 2.880119 -0.191589
 62 0.000002 -0.000000 5.000000 3.053196 1.558589 -0.074928
 63 -0.000007 0.000006 3.713580 -0.001619 -3.122277 -0.475127
 64 0.000002 -0.000001 -5.000000 -0.088726 1.558589 3.066334
 65 7.363602 1.646647 0.495663 3.141593 -1.570796 0.000000
 66 -0.000005 0.000007 3.619081 0.008255 -3.110080 -0.985231
 67 16.573919 0.000002 0.000000 0.000000 -0.000000 -1.065827
 68 15.128181 0.000000 -0.000000 -0.102296 0.010178 0.114297
 69 5.758665 4.244730 0.000000 0.000000 0.000000 1.667687
 70 3.177725 0.000000 -0.000000 0.000000 0.000000 3.141593
 71 15.708953 0.000001 0.000000 -0.051525 0.003996 0.061523
 72 0.275148 0.189215 -3.445207 3.130898 0.000409 -1.514604
 73 17.210192 0.000001 0.000000 0.000000 -0.000000 -1.893339
 74 0.000001 -0.000000 -5.000000 -0.079430 1.546568 -1.570855
 75 0.000002 -0.000003 -3.619081 0.577895 2.675801 -0.242118
 76 16.573921 -0.000001 -0.000002 -0.000000 -0.000000 -1.163030
 77 15.128181 0.000001 0.000001 0.089479 0.309197 0.659208
 78 5.758666 4.244730 -0.000001 -0.000000 -0.000000 1.815142
 79 4.003934 -0.000000 0.000001 0.000000 0.000000 0.000000
 80 15.708954 0.000001 0.000002 0.042277 0.226871 0.443133
 81 0.273998 0.191089 3.439762 -3.130907 -0.000437 -1.508107
 82 17.210194 -0.000001 -0.000002 0.000000 -0.000000 -1.937080
 83 -0.000000 -0.000001 5.000000 -0.079319 1.595025 -1.570742
time 6
  0 -0.650000 0.000000 33.899605 -0.025849 0.174554 -1.569172
  1 5.685104 0.833236 -32.227173 -0.174512 -0.026131 1.569196
  2 -2.276935 0.000003 -1.238188 -1.570795 -1.570451 0.000000
  3 1.796227 0.711979 0.000570 -0.185225 -0.323721 -0.228196
  4 4.119684 -0.003038 0.000598 -0.184357 0.110380 0.322412
  5 4.118807 -0.003222 0.000580 -0.178870 0.109324 0.043151
  6 4.118418 -0.003214 0.000624 -0.191386 0.039072 -0.064588
  7 4.120689 -0.002193 -0.001836 0.550433 0.126941 0.837726
  8 4.443599 -0.000002 -0.000000 0.383154 -0.508351 -0.365771
  9 9.024058 -0.000000 -0.000000 0.000000 0.000000 0.000000
 10 -0.219367 0.902553 1.464912 0.811817 -0.837562 1.457584
 11 6.384778 -0.000000 0.000001 -0.723870 0.719278 -0.630002
 12 10.242684 0.000001 0.000000 0.000000 0.000000 -0.953423
 13 11.375561 0.000001 -0.000000 2.720203 0.323754 -0.378995
 14 0.728681 0.023433 -1.008292 2.396606 0.246960 1.180207
 15 2.136498 0.000000 -0.000000 -0.000000 -0.000000 -0.078540
 16 2.313140 -0.000000 0.000000 0.000000 0.000000 0.000000
 17 3.115507 -0.886039 -0.021431 -0.166499 0.000392 0.514872
 18 2.011152 0.000002 -0.000001 -0.000000 0.000000 1.322792
 19 2.141380 0.000001 -0.000000 0.000000 0.000000 0.000000
 20 1.734173 0.000001 -0.000001 -0.000000 0.000000 0.660693
 21 0.000003 -4.440594 0.000000 1.570544 -0.062990 -0.195737
 22 6.000000 0.000002 -0.000001 3.070987 -0.000000 -0.000000
 23 0.000002 -4.440604 0.000001 1.569944 -0.062987 0.004053
 24 11.375562 0.000002 0.000002 -2.528060 0.294390 -0.092154
 25 -0.000001 -4.440605 0.000002 1.570144 -0.062988 0.004040
 26 10.510132 0.000001 -0.000000 -0.000000 -0.000000 -2.047508
 27 0.000001 -1.748402 4.999999 0.000000 0.004007 1.602291
 28 5.500003 0.000002 -0.000001 0.226259 0.000000 0.000000
 29 -0.000003 -1.940599 5.000001 -0.044472 0.004003 -0.000180
 30 6.551491 0.000000 0.000001 -0.447030 0.468192 -0.372523
 31 -0.000001 -1.940599 5.000001 -0.027189 -0.053376 0.005295
 32 6.551491 0.000000 0.000001 -0.184479 0.243487 -0.145834
 33 0.000000 -1.940599 4.999998 -0.066572 -0.152786 -0.110311
 34 0.219368 -0.895478 -1.464914 2.954988 1.181707 -0.936300
 35 6.384777 0.000001 0.000002 -0.374356 -0.913980 -0.564950
 36 10.242682 -0.000001 0.000002 -0.000000 0.000000 -1.603793
 37 11.375561 -0.000001 -0.000001 2.117710 0.365278 0.073866
 38 0.728681 0.023431 1.008292 -1.579583 -0.319038 0.212973
 39 2.136497 0.000001 -0.000001 -0.000000 0.000000 1.282817
 40 2.313139 -0.000001 0.000001 0.000000 0.000000 3.141593
 41 3.115506 -0.886041 0.021431 0.708959 0.171755 0.347804
 42 2.011152 -0.000002 0.000000 0.000000 0.000000 2.082010
 43 2.141381 0.000001 0.000001 0.000000 0.000000 3.141593
 44 1.734172 -0.000001 0.000002 -0.000000 0.000000 1.041748
 45 0.136315 -3.738194 2.525890 1.493698 2.759406 -1.474501
 46 5.613161 0.862366 3.157033 1.595152 -0.135386 0.061522
 47 11.389367 -0.000819 0.158781 1.836786 0.204733 0.010685
 48 0.000000 -4.440599 -0.000000 1.570144 -3.078602 0.004040
 49 6.000000 -0.000002 -0.000001 1.836786 -0.000000 0.000000
 50 0.000002 -4.440600 0.000001 1.569944 -3.078603 0.004053
 51 10.510131 -0.000001 0.000003 0.000000 0.000000 -2.372693
 52 0.000001 -1.748401 -5.000001 -3.141593 0.004007 -1.539299
 53 5.499999 -0.000001 0.000001 0.147850 -0.000000 -0.000000
 54 -0.000001 -0.000000 -5.000000 -0.044472 3.137589 -0.000177
 55 6.551491 0.000000 0.000001 -0.147850 -0.277833 -0.190361
 56 -1.266844 -1.937443 -4.950560 -0.066572 -2.988806 -0.110308
 57 6.551491 0.000001 0.000001 -0.147850 -0.277833 -0.190361
 58 0.699371 -1.944208 -5.006845 -0.027189 -3.088217 0.005298
 59 4.226148 -0.003201 -0.000000 0.261068 0.120478 0.408000
 60 0.000000 5.000001 0.000000 -0.153564 0.000087 2.718702
 61 0.000004 -0.000004 -3.713580 0.365818 2.880119 -0.191589
 62 0.000002 -0.000000 5.000000 3.053196 1.558589 -0.074928
 63 -0.000007 0.000006 3.713580 -0.001619 -3.122277 -0.475127
 64 0.000002 -0.000001 -5.000000 -0.088726 1.558589 3.066334
 65 7.363602 1.646647 0.495663 3.141593 -1.570796 0.000000
 66 -0.000005 0.000007 3.619081 0.008255 -3.110080 -0.985231
 67 16.573919 0.000002 0.000000 0.000000 -0.000000 -1.065827
 68 15.128181 0.000000 -0.000000 -0.102296 0.010178 0.114297
 69 5.758665 4.244730 0.000000 0.000000 0.000000 1.667687
 70 3.177725 0.000000 -0.000000 0.000000 0.000000 3.141593
 71 15.708953 0.000001 0.000000 -0.051525 0.003996 0.061523
 72 0.275148 0.189215 -3.445207 3.130898 0.000409 -1.514604
 73 17.210192 0.000001 0.000000 0.000000 -0.000000 -1.893339
 74 0.000001 -0.000000 -5.000000 -0.079430 1.546568 -1.570855
 75 0.000002 -0.000003 -3.619081 0.577895 2.675801 -0.242118
 76 16.573921 -0.000001 -0.000002 -0.000000 -0.000000 -1.163030
 77 15.128181 0.000001 0.000001 0.089479 0.309197 0.659208
 78 5.758666 4.244730 -0.000001 -0.000000 -0.000000 1.815142
 79 4.003934 -0.000000 0.000001 0.000000 0.000000 0.000000
 80 15.708954 0.000001 0.000002 0.042277 0.226871 0.443133
 81 0.273998 0.191089 3.439762 -3.130907 -0.000437 -1.508107
 82 17.210194 -0.000001 -0.000002 0.000000 -0.000000 -1.937080
 83 -0.000000 -0.000001 5.000000 -0.079319 1.595025 -1.570742
time 7
  0 -0.650000 0.000000 33.899605 -0.025849 0.174554 -1.569172
  1 5.685104 0.833236 -32.227173 -0.174512 -0.026131 1.569196
  2 -2.276935 0.000003 -1.238188 -1.570795 -1.570451 0.000000
  3 1.796220 0.711981 0.000571 -0.185415 -0.323889 -0.228789
  4 4.119691 -0.003037 0.000597 -0.184572 0.110417 0.322225
  5 4.118827 -0.003223 0.000570 -0.175828 0.110199 0.048273
  6 4.118419 -0.003215 0.000624 -0.191597 0.039026 -0.064759
  7 4.120686 -0.002193 -0.001835 0.550433 0.126941 0.837726
  8 4.443600 -0.000002 0.000001 0.383269 -0.509414 -0.370344
  9 9.024062 0.000001 -0.000000 0.000000 0.000000 0.000000
 10 -0.219363 0.902551 1.464914 0.811817 -0.837562 1.457584
 11 6.384777 -0.000001 0.000001 -0.725185 0.718229 -0.631669
 12 10.242683 0.000001 -0.000002 0.000000 0.000000 -0.957561
 13 11.375561 -0.000004 0.000000 2.720146 0.323590 -0.377132
 14 0.728680 0.023432 -1.008292 2.396606 0.246960 1.180207
 15 2.136499 0.000000 -0.000000 0.000000 0.000000 -0.078540
 16 2.313136 -0.000000 -0.000000 0.000000 0.000000 0.000000
 17 3.115507 -0.886040 -0.021431 -0.166499 0.000392 0.514872
 18 2.011152 0.000000 -0.000001 -0.000000 0.000000 1.322792
 19 2.141379 0.000000 -0.000000 0.000000 0.000000 0.000000
 20 1.734173 -0.000000 0.000001 -0.000000 -0.000000 0.660693
 21 0.000005 -4.440594 0.000002 1.570544 -0.062990 -0.195737
 22 5.999999 -0.000000 -0.000002 3.070901 -0.000000 0.000000
 23 0.000002 -4.440602 0.000000 1.569944 -0.062987 0.004053
 24 11.375561 0.000000 0.000001 -2.528213 0.293827 -0.091220
 25 -0.000000 -4.440605 0.000002 1.570144 -0.062988 0.004040
 26 10.510131 0.000001 -0.000003 -0.000000 -0.000000 -2.049577
 27 0.000002 -1.748401 5.000000 -0.000000 0.004007 1.602290
 28 5.500000 0.000000 -0.000002 0.226592 0.000000 -0.000000
 29 -0.000001 -1.940598 5.000000 -0.044472 0.004003 -0.000180
 30 6.551491 -0.000000 0.000002 -0.447665 0.467507 -0.373597
 31 -0.000000 -1.940599 5.000000 -0.027189 -0.053376 0.005295
 32 6.551491 -0.000000 0.000002 -0.184746 0.243234 -0.146337
 33 0.000000 -1.940599 4.999995 -0.066572 -0.152786 -0.110311
 34 0.219369 -0.895477 -1.464914 2.955625 1.181178 -0.935594
 35 6.384776 0.000001 -0.000000 -0.375604 -0.912139 -0.561932
 36 10.242682 -0.000000 0.000003 -0.000000 0.000000 -1.608270
 37 11.375562 0.000001 -0.000001 2.116353 0.367276 0.075292
 38 0.728680 0.023431 1.008290 -1.579583 -0.319038 0.212973
 39 2.136497 0.000001 -0.000001 0.000000 0.000000 1.282817
 40 2.313139 0.000001 0.000001 0.000000 0.000000 3.141593
 41 3.115507 -0.886041 0.021431 0.708959 0.171755 0.347804
 42 2.011151 -0.000001 -0.000002 0.000000 0.000000 2.082010
 43 2.141378 -0.000000 0.000002 0.000000 0.000000 3.141593
 44 1.734173 -0.000002 -0.000003 -0.000000 0.000000 1.041748
 45 0.136315 -3.738193 2.525890 1.493698 2.759406 -1.474501
 46 5.613160 0.862367 3.157030 1.595152 -0.135386 0.061522
 47 11.389366 -0.000818 0.158780 1.836003 0.205806 0.011348
 48 0.000001 -4.440598 -0.000003 1.570144 -3.078602 0.004040
 49 6.000000 0.000002 -0.000000 1.836003 0.000000 0.000000
 50 0.000002 -4.440602 -0.000001 1.569944 -3.078603 0.004053
 51 10.510132 0.000000 0.000004 0.000000 0.000000 -2.374931
 52 -0.000000 -1.748397 -5.000000 -3.141593 0.004007 -1.539299
 53 5.500000 0.000000 0.000002 0.147897 0.000000 0.000000
 54 -0.000000 0.000001 -4.999999 -0.044472 3.137589 -0.000177
 55 6.551490 0.000001 0.000000 -0.147897 -0.277475 -0.190019
 56 -1.266845 -1.937442 -4.950563 -0.066572 -2.988806 -0.110308
 57 6.551491 0.000001 0.000000 -0.147897 -0.277475 -0.190019
 58 0.699369 -1.944208 -5.006849 -0.027189 -3.088217 0.005298
 59 4.226147 -0.003201 0.000000 0.261068 0.120478 0.408000
 60 -0.000004 5.000002 0.000000 -0.153564 0.000087 2.718702
 61 0.000004 -0.000004 -3.713580 0.365818 2.880119 -0.191589
 62 0.000002 -0.000000 5.000000 3.053196 1.558589 -0.074928
 63 -0.000007 0.000006 3.713580 -0.001619 -3.122277 -0.475127
 64 0.000002 -0.000001 -5.000000 -0.088726 1.558589 3.066334
 65 7.363602 1.646647 0.495663 3.141593 -1.570796 0.000000
 66 -0.000005 0.000007 3.619081 0.008255 -3.110080 -0.985231
 67 16.573919 0.000002 0.000000 0.000000 -0.000000 -1.065827
 68 15.128181 0.000000 -0.000000 -0.102296 0.010178 0.114297
 69 5.758665 4.244730 0.000000 0.000000 0.000000 1.667687
 70 3.177725 0.000000 -0.000000 0.000000 0.000000 3.141593
 71 15.708953 0.000001 0.000000 -0.051525 0.003996 0.061523
 72 0.275148 0.189215 -3.445207 3.130898 0.000409 -1.514604
 73 17.210192 0.000001 0.000000 0.000000 -0.000000 -1.893339
 74 0.000001 -0.000000 -5.000000 -0.079430 1.546568 -1.570855
 75 0.000002 -0.000003 -3.619081 0.577895 2.675801 -0.242118
 76 16.573921 -0.000001 -0.000002 -0.000000 -0.000000 -1.163030
 77 15.128181 0.000001 0.000001 0.089479 0.309197 0.659208
 78 5.758666 4.244730 -0.000001 -0.000000 -0.000000 1.815142
 79 4.003934 -0.000000 0.000001 0.000000 0.000000 0.000000
 80 15.708954 0.000001 0.000002 0.042277 0.226871 0.443133
 81 0.273998 0.191089 3.439762 -3.130907 -0.000437 -1.508107
 82 17.210194 -0.000001 -0.000002 0.000000 -0.000000 -1.937080
 83 -0.000000 -0.000001 5.000000 -0.079319 1.595025 -1.570742
time 8
  0 -0.650000 0.000000 33.899605 -0.025849 0.174554 -1.569172
  1 5.685104 0.833236 -32.227173 -0.174512 -0.026131 1.569196
  2 -2.276935 0.000003 -1.238188 -1.570795 -1.570451 0.000000
  3 1.796220 0.711981 0.000571 -0.185668 -0.324113 -0.229579
  4 4.119689 -0.003037 0.000599 -0.184857 0.110466 0.321977
  5 4.118837 -0.003223 0.000560 -0.172779 0.111072 0.053458
  6 4.118413 -0.003213 0.000626 -0.191879 0.038965 -0.064988
  7 4.120689 -0.002194 -0.001836 0.550433 0.126941 0.837726
  8 4.443599 0.000001 -0.000001 0.383419 -0.510576 -0.374599
  9 9.024059 0.000001 -0.000000 0.000000 0.000000 0.000000
 10 -0.219366 0.902555 1.464912 0.811817 -0.837562 1.457584
 11 6.384777 -0.000000 0.000002 -0.726052 0.718069 -0.632677
 12 10.242682 0.000000 -0.000001 0.000000 -0.000000 -0.962727
 13 11.375561 0.000002 0.000001 2.720285 0.323349 -0.374649
 14 0.728680 0.023432 -1.008293 2.396606 0.246960 1.180207
 15 2.136496 -0.000001 0.000001 -0.000000 -0.000000 -0.078540
 16 2.313139 -0.000000 -0.000001 0.000000 0.000000 0.000000
 17 3.115506 -0.886040 -0.021432 -0.166499 0.000392 0.514872
 18 2.011154 0.000001 -0.000001 -0.000000 0.000000 1.322792
 19 2.141380 0.000001 -0.000001 0.000000 0.000000 0.000000
 20 1.734174 -0.000000 -0.000001 -0.000000 -0.000000 0.660693
 21 0.000008 -4.440594 0.000002 1.570544 -0.062990 -0.195737
 22 6.000000 -0.000001 0.000003 3.071006 -0.000000 -0.000000
 23 0.000001 -4.440600 0.000002 1.569944 -0.062987 0.004053
 24 11.375561 -0.000001 0.000005 -2.528317 0.293046 -0.090004
 25 -0.000000 -4.440605 0.000001 1.570144 -0.062988 0.004040
 26 10.510131 0.000001 -0.000002 -0.000000 0.000000 -2.052160
 27 -0.000001 -1.748401 4.999998 -0.000000 0.004007 1.602290
 28 5.500000 -0.000000 -0.000001 0.226769 -0.000000 0.000000
 29 -0.000002 -1.940598 4.999998 -0.044472 0.004003 -0.000180
 30 6.551491 0.000000 0.000003 -0.448037 0.467384 -0.374075
 31 0.000001 -1.940598 4.999999 -0.027189 -0.053376 0.005295
 32 6.551491 0.000000 0.000003 -0.184887 0.243205 -0.146536
 33 -0.000001 -1.940599 4.999996 -0.066572 -0.152786 -0.110311
 34 0.219369 -0.895475 -1.464915 2.956472 1.180471 -0.934655
 35 6.384776 0.000000 0.000002 -0.377899 -0.910372 -0.557915
 36 10.242682 -0.000000 0.000001 0.000000 0.000000 -1.613284
 37 11.375563 0.000001 0.000000 2.115131 0.369245 0.076779
 38 0.728680 0.023431 1.008292 -1.579583 -0.319038 0.212973
 39 2.136497 -0.000000 0.000000 -0.000000 0.000000 1.282817
 40 2.313138 -0.000000 0.000000 0.000000 0.000000 3.141593
 41 3.115506 -0.886041 0.021433 0.708959 0.171755 0.347804
 42 2.011150 0.000001 0.000001 -0.000000 0.000000 2.082010
 43 2.141379 -0.000000 -0.000000 0.000000 0.000000 3.141593
 44 1.734174 -0.000002 -0.000002 -0.000000 -0.000000 1.041748
 45 0.136316 -3.738193 2.525892 1.493698 2.759406 -1.474501
 46 5.613160 0.862367 3.157031 1.595152 -0.135386 0.061522
 47 11.389367 -0.000820 0.158780 1.835284 0.206868 0.012040
 48 0.000001 -4.440600 -0.000001 1.570144 -3.078602 0.004040
 49 6.000001 -0.000000 0.000000 1.835284 0.000000 -0.000000
 50 0.000002 -4.440600 -0.000003 1.569944 -3.078603 0.004053
 51 10.510135 -0.000001 0.000002 0.000000 0.000000 -2.377438
 52 0.000000 -1.748398 -5.000001 -3.141593 0.004007 -1.539299
 53 5.500000 -0.000000 -0.000000 0.148122 -0.000000 -0.000000
 54 0.000000 0.000001 -4.999999 -0.044472 3.137590 -0.000177
 55 6.551491 -0.000000 0.000001 -0.148122 -0.277152 -0.189529
 56 -1.266842 -1.937444 -4.950557 -0.066572 -2.988806 -0.110308
 57 6.551491 -0.000000 0.000001 -0.148122 -0.277152 -0.189529
 58 0.699371 -1.944208 -5.006846 -0.027189 -3.088217 0.005298
 59 4.226146 -0.003201 -0.000000 0.261068 0.120478 0.408000
 60 -0.000002 5.000000 0.000000 -0.153564 0.000087 2.718702
 61 0.000004 -0.000004 -3.713580 0.365818 2.880119 -0.191589
 62 0.000002 -0.000000 5.000000 3.053196 1.558589 -0.074928
 63 -0.000007 0.000006 3.713580 -0.001619 -3.122277 -0.475127
 64 0.000002 -0.000001 -5.000000 -0.088726 1.558589 3.066334
 65 7.363602 1.646647 0.495663 3.141593 -1.570796 0.000000
 66 -0.000005 0.000007 3.619081 0.008255 -3.110080 -0.985231
 67 16.573919 0.000002 0.000000 0.000000 -0.000000 -1.065827
 68 15.128181 0.000000 -0.000000 -0.102296 0.010178 0.114297
 69 5.758665 4.244730 0.000000 0.000000 0.000000 1.667687
 70 3.177725 0.000000 -0.000000 0.000000 0.000000 3.141593
 71 15.708953 0.000001 0.000000 -0.051525 0.003996 0.061523
 72 0.275148 0.189215 -3.445207 3.130898 0.000409 -1.514604
 73 17.210192 0.000001 0.000000 0.000000 -0.000000 -1.893339
 74 0.000001 -0.000000 -5.000000 -0.079430 1.546568 -1.570855
 75 0.000002 -0.000003 -3.619081 0.577895 2.675801 -0.242118
 76 16.573921 -0.000001 -0.000002 -0.000000 -0.000000 -1.163030
 77 15.128181 0.000001 0.000001 0.089479 0.309197 0.659208
 78 5.758666 4.244730 -0.000001 -0.000000 -0.000000 1.815142
 79 4.003934 -0.000000 0.000001 0.000000 0.000000 0.000000
 80 15.708954 0.000001 0.000002 0.042277 0.226871 0.443133
 81 0.273998 0.191089 3.439762 -3.130907 -0.000437 -1.508107
 82 17.210194 -0.000001 -0.000002 0.000000 -0.000000 -1.937080
 83 -0.000000 -0.000001 5.000000 -0.079319 1.595025 -1.570742
time 9
  0 -0.650000 0.000000 33.899605 -0.025849 0.174554 -1.569172
  1 5.685104 0.833236 -32.227173 -0.174512 -0.026131 1.569196
  2 -2.276935 0.000003 -1.238188 -1.570795 -1.570451 0.000000
  3 1.796220 0.711982 0.000572 -0.185890 -0.324309 -0.230271
  4 4.119684 -0.003037 0.000599 -0.185107 0.110509 0.321759
  5 4.118853 -0.003223 0.000551 -0.169727 0.111922 0.058616
  6 4.118421 -0.003215 0.000626 -0.192126 0.038912 -0.065187
  7 4.120687 -0.002193 -0.001835 0.550433 0.126941 0.837726
  8 4.443598 0.000001 0.000001 0.383556 -0.511686 -0.379016
  9 9.024061 -0.000001 -0.000000 0.000000 0.000000 0.000000
 10 -0.219365 0.902554 1.464914 0.811818 -0.837562 1.457583
 11 6.384777 -0.000000 0.000003 -0.727153 0.717444 -0.634049
 12 10.242683 0.000002 -0.000000 -0.000000 -0.000000 -0.967331
 13 11.375561 -0.000001 0.000000 2.720329 0.323146 -0.372491
 14 0.728680 0.023434 -1.008293 2.396606 0.246960 1.180207
 15 2.136496 0.000001 -0.000001 -0.000000 -0.000000 -0.078540
 16 2.313141 -0.000000 0.000000 0.000000 0.000000 0.000000
 17 3.115505 -0.886040 -0.021432 -0.166499 0.000392 0.514872
 18 2.011153 0.000001 0.000001 -0.000000 -0.000000 1.322792
 19 2.141380 -0.000001 -0.000000 0.000000 0.000000 0.000000
 20 1.734173 0.000001 -0.000002 0.000000 0.000000 0.660693
 21 0.000006 -4.440594 0.000002 1.570544 -0.062990 -0.195737
 22 6.000000 0.000001 -0.000000 3.071019 -0.000000 0.000000
 23 0.000002 -4.440601 0.000001 1.569944 -0.062987 0.004053
 24 11.375561 0.000001 0.000003 -2.528444 0.292375 -0.088936
 25 -0.000000 -4.440603 -0.000001 1.570144 -0.062988 0.004040
 26 10.510133 0.000002 -0.000001 0.000000 -0.000000 -2.054462
 27 0.000001 -1.748401 4.999998 0.000000 0.004007 1.602290
 28 5.500001 0.000001 -0.000000 0.227024 -0.000000 0.000000
 29 -0.000002 -1.940599 5.000001 -0.044472 0.004003 -0.000180
 30 6.551491 -0.000000 0.000001 -0.448539 0.466965 -0.374874
 31 -0.000001 -1.940600 5.000000 -0.027189 -0.053376 0.005295
 32 6.551491 -0.000000 0.000001 -0.185090 0.243058 -0.146899
 33 -0.000000 -1.940599 4.999995 -0.066572 -0.152786 -0.110311
 34 0.219370 -0.895477 -1.464913 2.957211 1.179853 -0.933835
 35 6.384776 0.000000 0.000003 -0.379659 -0.908583 -0.554392
 36 10.242682 -0.000001 0.000001 0.000000 -0.000000 -1.618018
 37 11.375561 -0.000001 -0.000002 2.113825 0.371229 0.078212
 38 0.728681 0.023431 1.008291 -1.579583 -0.319038 0.212973
 39 2.136497 0.000001 0.000000 -0.000000 0.000000 1.282817
 40 2.313141 0.000001 0.000001 0.000000 0.000000 3.141593
 41 3.115506 -0.886040 0.021433 0.708959 0.171755 0.347804
 42 2.011151 -0.000001 -0.000002 0.000000 0.000000 2.082010
 43 2.141381 0.000000 0.000003 0.000000 0.000000 3.141593
 44 1.734171 -0.000001 -0.000000 -0.000000 -0.000000 1.041748
 45 0.136316 -3.738192 2.525891 1.493698 2.759406 -1.474501
 46 5.613160 0.862367 3.157030 1.595152 -0.135386 0.061522
 47 11.389367 -0.000819 0.158781 1.834524 0.207931 0.012706
 48 0.000000 -4.440600 0.000003 1.570144 -3.078602 0.004040
 49 6.000000 -0.000001 -0.000001 1.834524 -0.000000 0.000000
 50 0.000002 -4.440601 -0.000001 1.569944 -3.078603 0.004053
 51 10.510130 -0.000000 0.000000 -0.000000 -0.000000 -2.379805
 52 0.000000 -1.748402 -5.000001 3.141593 0.004007 -1.539299
 53 5.499999 -0.000001 -0.000000 0.148259 0.000000 -0.000000
 54 -0.000003 -0.000000 -5.000000 -0.044472 3.137589 -0.000177
 55 6.551491 0.000000 0.000002 -0.148259 -0.276820 -0.189108
 56 -1.266844 -1.937443 -4.950560 -0.066572 -2.988806 -0.110308
 57 6.551491 0.000000 0.000002 -0.148259 -0.276820 -0.189108
 58 0.699370 -1.944207 -5.006846 -0.027189 -3.088217 0.005298
 59 4.226146 -0.003201 0.000000 0.261068 0.120478 0.408000
 60 -0.000001 5.000000 0.000000 -0.153564 0.000087 2.718702
 61 0.000004 -0.000004 -3.713580 0.365818 2.880119 -0.191589
 62 0.000002 -0.000000 5.000000 3.053196 1.558589 -0.074928
 63 -0.000007 0.000006 3.713580 -0.001619 -3.122277 -0.475127
 64 0.000002 -0.000001 -5.000000 -0.088726 1.558589 3.066334
 65 7.363602 1.646647 0.495663 3.141593 -1.570796 0.000000
 66 -0.000005 0.000007 3.619081 0.008255 -3.110080 -0.985231
 67 16.573919 0.000002 0.000000 0.000000 -0.000000 -1.065827
 68 15.128181 0.000000 -0.000000 -0.102296 0.010178 0.114297
 69 5.758665 4.244730 0.000000 0.000000 0.000000 1.667687
 70 3.177725 0.000000 -0.000000 0.000000 0.000000 3.141593
 71 15.708953 0.000001 0.000000 -0.051525 0.003996 0.061523
 72 0.275148 0.189215 -3.445207 3.130898 0.000409 -1.514604
 73 17.210192 0.000001 0.000000 0.000000 -0.000000 -1.893339
 74 0.000001 -0.000000 -5.000000 -0.079430 1.546568 -1.570855
 75 0.000002 -0.000003 -3.619081 0.577895 2.675801 -0.242118
 76 16.573921 -0.000001 -0.000002 -0.000000 -0.000000 -1.163030
 77 15.128181 0.000001 0.000001 0.089479 0.309197 0.659208
 78 5.758666 4.244730 -0.000001 -0.000000 -0.000000 1.815142
 79 4.003934 -0.000000 0.000001 0.000000 0.000000 0.000000
 80 15.708954 0.000001 0.000002 0.042277 0.226871 0.443133
 81 0.273998 0.191089 3.439762 -3.130907 -0.000437 -1.508107
 82 17.210194 -0.000001 -0.000002 0.000000 -0.000000 -1.937080
 83 -0.000000 -0.000001 5.000000 -0.079319 1.595025 -1.570742
time 10
  0 -0.650000 0.000000 33.899605 -0.025849 0.174554 -1.569172
  1 5.685104 0.833236 -32.227173 -0.174512 -0.026131 1.569196
  2 -2.276935 0.000003 -1.238188 -1.570795 -1.570451 0.000000
  3 1.796216 0.711983 0.000572 -0.185985 -0.324393 -0.230567
  4 4.119686 -0.003037 0.000600 -0.185215 0.110528 0.321665
  5 4.118872 -0.003224 0.000541 -0.166675 0.112731 0.063660
  6 4.118416 -0.003214 0.000626 -0.192231 0.038889 -0.065273
  7 4.120688 -0.002193 -0.001835 0.550433 0.126941 0.837726
  8 4.443600 -0.000001 0.000000 0.383634 -0.512596 -0.384074
  9 9.024061 0.000001 -0.000000 0.000000 0.000000 0.000000
 10 -0.219364 0.902552 1.464914 0.811817 -0.837562 1.457584
 11 6.384777 0.000000 0.000001 -0.729157 0.715001 -0.636776
 12 10.242683 0.000001 -0.000001 -0.000000 -0.000000 -0.969822
 13 11.375561 -0.000001 0.000002 2.719983 0.323095 -0.371583
 14 0.728680 0.023431 -1.008292 2.396606 0.246960 1.180207
 15 2.136496 0.000000 -0.000001 -0.000000 -0.000000 -0.078540
 16 2.313138 -0.000000 0.000000 0.000000 0.000000 0.000000
 17 3.115506 -0.886037 -0.021431 -0.166499 0.000392 0.514872
 18 2.011154 0.000002 -0.000001 -0.000000 -0.000000 1.322791
 19 2.141380 0.000001 -0.000001 0.000000 0.000000 0.000000
 20 1.734173 0.000001 0.000001 -0.000000 0.000000 0.660693
 21 0.000004 -4.440594 0.000001 1.570544 -0.062990 -0.195737
 22 6.000000 -0.000000 0.000001 3.070653 -0.000000 0.000000
 23 0.000002 -4.440601 0.000002 1.569944 -0.062987 0.004053
 24 11.375561 0.000000 0.000004 -2.528664 0.292141 -0.088438
 25 -0.000000 -4.440603 -0.000001 1.570144 -0.062988 0.004040
 26 10.510133 0.000001 -0.000002 -0.000000 -0.000000 -2.055708
 27 -0.000000 -1.748400 4.999999 0.000000 0.004007 1.602290
 28 5.500003 0.000001 -0.000001 0.227586 0.000000 -0.000000
 29 -0.000000 -1.940597 4.999999 -0.044472 0.004003 -0.000180
 30 6.551492 0.000000 -0.000002 -0.449560 0.465397 -0.376891
 31 0.000001 -1.940600 5.000001 -0.027189 -0.053376 0.005295
 32 6.551492 0.000000 -0.000002 -0.185545 0.242453 -0.147885
 33 -0.000001 -1.940599 4.999998 -0.066572 -0.152786 -0.110311
 34 0.219368 -0.895476 -1.464914 2.957526 1.179588 -0.933485
 35 6.384777 0.000000 -0.000002 -0.379305 -0.906674 -0.552849
 36 10.242681 -0.000001 0.000000 0.000000 -0.000000 -1.621678
 37 11.375562 -0.000001 -0.000000 2.112222 0.373267 0.079499
 38 0.728681 0.023431 1.008290 -1.579583 -0.319038 0.212973
 39 2.136497 0.000000 0.000000 -0.000000 0.000000 1.282817
 40 2.313140 0.000000 0.000001 0.000000 0.000000 3.141593
 41 3.115507 -0.886041 0.021429 0.708959 0.171755 0.347804
 42 2.011152 -0.000001 -0.000003 0.000000 0.000000 2.082010
 43 2.141380 0.000001 0.000003 0.000000 0.000000 3.141593
 44 1.734173 -0.000002 -0.000002 0.000000 -0.000000 1.041748
 45 0.136316 -3.738192 2.525890 1.493698 2.759406 -1.474501
 46 5.613161 0.862367 3.157031 1.595152 -0.135386 0.061522
 47 11.389367 -0.000820 0.158781 1.833622 0.209006 0.013302
 48 0.000000 -4.440599 0.000002 1.570144 -3.078602 0.004040
 49 6.000000 -0.000000 -0.000000 1.833622 0.000000 -0.000000
 50 0.000002 -4.440600 0.000001 1.569944 -3.078603 0.004053
 51 10.510131 -0.000001 0.000001 -0.000000 0.000000 -2.381635
 52 0.000001 -1.748401 -5.000002 -3.141593 0.004007 -1.539299
 53 5.500000 -0.000001 0.000001 0.148040 0.000000 0.000000
 54 0.000000 -0.000001 -4.999999 -0.044472 3.137589 -0.000177
 55 6.551491 -0.000000 0.000002 -0.148040 -0.276432 -0.188975
 56 -1.266843 -1.937444 -4.950561 -0.066572 -2.988806 -0.110308
 57 6.551491 0.000000 -0.000002 -0.148040 -0.276432 -0.188975
 58 0.699370 -1.944208 -5.006849 -0.027189 -3.088217 0.005298
 59 4.226147 -0.003201 0.000000 0.261068 0.120478 0.408000
 60 0.000001 5.000000 -0.000000 -0.153564 0.000087 2.718702
 61 0.000004 -0.000004 -3.713580 0.365818 2.880119 -0.191589
 62 0.000002 -0.000000 5.000000 3.053196 1.558589 -0.074928
 63 -0.000007 0.000006 3.713580 -0.001619 -3.122277 -0.475127
 64 0.000002 -0.000001 -5.000000 -0.088726 1.558589 3.066334
 65 7.363602 1.646647 0.495663 3.141593 -1.570796 0.000000
 66 -0.000005 0.000007 3.619081 0.008255 -3.110080 -0.985231
 67 16.573919 0.000002 0.000000 0.000000 -0.000000 -1.065827
 68 15.128181 0.000000 -0.000000 -0.102296 0.010178 0.114297
 69 5.758665 4.244730 0.000000 0.000000 0.000000 1.667687
 70 3.177725 0.000000 -0.000000 0.000000 0.000000 3.141593
 71 15.708953 0.000001 0.000000 -0.051525 0.003996 0.061523
 72 0.275148 0.189215 -3.445207 3.130898 0.000409 -1.514604
 73 17.210192 0.000001 0.000000 0.000000 -0.000000 -1.893339
 74 0.000001 -0.000000 -5.000000 -0.079430 1.546568 -1.570855
 75 0.000002 -0.000003 -3.619081 0.577895 2.675801 -0.242118
 76 16.573921 -0.000001 -0.000002 -0.000000 -0.000000 -1.163030
 77 15.128181 0.000001 0.000001 0.089479 0.309197 0.659208
 78 5.758666 4.244730 -0.000001 -0.000000 -0.000000 1.815142
 79 4.003934 -0.000000 0.000001 0.000000 0.000000 0.000000
 80 15.708954 0.000001 0.000002 0.042277 0.226871 0.443133
 81 0.273998 0.191089 3.439762 -3.130907 -0.000437 -1.508107
 82 17.210194 -0.000001 -0.000002 0.000000 -0.000000 -1.937080
 83 -0.000000 -0.000001 5.000000 -0.079319 1.595025 -1.570742
end
