version 1
nodes
  0 "Bip01"  -1
  1 "Bip01 Footsteps"   0
  2 "Bip01 Pelvis"   0
  3 "Bip01 Spine"   2
  4 "Bip01 Spine1"   3
  5 "Bip01 Spine2"   4
  6 "Bip01 Spine3"   5
  7 "Bip01 Neck"   6
  8 "Bip01 Head"   7
  9 "Dummy21"   8
 10 "Bip01 L Clavicle"   7
 11 "Bip01 L UpperArm"  10
 12 "Bip01 L Forearm"  11
 13 "Bip01 L Hand"  12
 14 "Bip01 L Finger0"  13
 15 "Bip01 L Finger01"  14
 16 "Dummy06"  15
 17 "Bip01 L Finger1"  13
 18 "Bip01 L Finger11"  17
 19 "Dummy03"  18
 20 "-- L knuckle"  17
 21 "-- L knuckle_end"  20
 22 "-- L Forearm twist"  12
 23 "-- L Forearm twist_end"  22
 24 "-- L wrist"  12
 25 "-- L wrist_end"  24
 26 "-- L Elbow"  11
 27 "--L Elbow_end"  26
 28 "-- L bicep twist"  11
 29 "-- L bicep twist_end"  28
 30 "-- L shoulder outside"  10
 31 "-- L shoulder outside_end"  30
 32 "-- L Shoulder inside"  10
 33 "-- L Shoulder inside_end"  32
 34 "Bip01 R Clavicle"   7
 35 "Bip01 R UpperArm"  34
 36 "Bip01 R Forearm"  35
 37 "Bip01 R Hand"  36
 38 "Bip01 R Finger0"  37
 39 "Bip01 R Finger01"  38
 40 "Dummy01"  39
 41 "Bip01 R Finger1"  37
 42 "Bip01 R Finger11"  41
 43 "Dummy02"  42
 44 "-- R knuckle"  41
 45 "Point06"  44
 46 "Line01"  37
 47 "-- R wrist"  36
 48 "-- R wrist_end"  47
 49 "-- R forearm twist"  36
 50 "-- R forearm twist_end"  49
 51 "-- R Elbow"  35
 52 "--R Elbow_end"  51
 53 "-- R bicep twist"  35
 54 "-- R bicep twist_end"  53
 55 "-- R Shoulder inside"  34
 56 "-- R Shoulder inside_end"  55
 57 "-- R shoulder outside"  34
 58 "-- R shoulder outside_end"  57
 59 "-- Neck smooth"   6
 60 "-- neck smooth end"  59
 61 "-- R Butt"   2
 62 "--R Butt_end"  61
 63 "-- L butt"   2
 64 "--L butt_end"  63
 65 "GIGN01"   2
 66 "Bip01 L Thigh"   2
 67 "Bip01 L Calf"  66
 68 "Bip01 L Foot"  67
 69 "Bip01 L Toe0"  68
 70 "Dummy16"  69
 71 "-- L ankle"  67
 72 "-- L ankleend"  71
 73 "-- L Knee"  66
 74 "--L Knee_end"  73
 75 "Bip01 R Thigh"   2
 76 "Bip01 R Calf"  75
 77 "Bip01 R Foot"  76
 78 "Bip01 R Toe0"  77
 79 "Dummy11"  78
 80 "-- R Ankle"  76
 81 "-- R ankleend"  80
 82 "-- R Knee"  75
 83 "--R Knee_end"  82
end
skeleton
time 0
  0 -0.650000 0.000000 33.899605 -0.025849 0.174554 -1.569172
  1 5.685105 0.833237 -32.227173 -0.174512 -0.026131 1.569196
  2 -2.276935 0.000003 -1.238189 -1.570795 -1.570451 0.000000
  3 1.796325 0.711919 -0.000349 0.105840 0.036333 -0.249624
  4 4.119711 -0.003073 -0.000300 0.091936 -0.071639 0.339665
  5 4.118793 -0.003257 -0.000345 0.105505 -0.049621 0.051966
  6 4.118445 -0.003260 -0.000328 0.100208 -0.030527 -0.051521
  7 4.118911 -0.003140 -0.001602 0.495310 -0.309790 -0.065584
  8 4.443600 -0.000000 0.000000 0.630373 -0.059931 0.230745
  9 9.024060 0.000001 0.000000 0.000000 0.000000 0.000000
 10 0.528235 0.787900 1.451919 1.715198 -1.207765 1.442169
 11 6.384777 -0.000000 -0.000002 -0.775569 0.616244 -0.638223
 12 10.242682 -0.000000 -0.000001 -0.000000 -0.000000 -1.298663
 13 11.375561 -0.000001 -0.000001 2.732932 0.431352 -0.271065
 14 0.728680 0.023431 -1.008292 2.396606 0.246960 1.180207
 15 2.136498 -0.000000 -0.000002 -0.000000 -0.000000 -0.078540
 16 2.313139 -0.000000 0.000000 0.000000 0.000000 0.000000
 17 3.115507 -0.886041 -0.021432 -0.166499 0.000392 0.514872
 18 2.011151 -0.000002 -0.000001 -0.000000 0.000000 1.322792
 19 2.141378 -0.000000 0.000000 0.000000 0.000000 0.000000
 20 1.734174 0.000001 -0.000001 -0.000000 -0.000000 0.660693
 21 0.000005 -4.440594 0.000001 1.570544 -0.062990 -0.195737
 22 6.000000 -0.000002 -0.000000 3.096331 0.000000 -0.000000
 23 0.000002 -4.440600 0.000001 1.569944 -0.062987 0.004053
 24 11.375561 -0.000000 0.000001 -2.508914 0.310810 0.004823
 25 -0.000001 -4.440605 0.000002 1.570144 -0.062988 0.004040
 26 10.510130 -0.000001 -0.000001 -0.000000 0.000000 -2.220128
 27 -0.000001 -1.748401 4.999999 -0.000000 0.004007 1.602291
 28 5.499999 -0.000001 -0.000000 0.258659 0.000000 0.000000
 29 -0.000002 -1.940598 5.000000 -0.044472 0.004003 -0.000180
 30 6.551491 0.000000 -0.000001 -0.500637 0.416286 -0.396358
 31 0.000001 -1.940599 5.000001 -0.027189 -0.053376 0.005295
 32 6.551491 0.000000 -0.000001 -0.211562 0.222326 -0.157694
 33 -0.000000 -1.940599 4.999995 -0.066572 -0.152786 -0.110311
 34 -0.528231 -0.780824 -1.451919 0.458491 1.222589 -2.751361
 35 6.384777 -0.000001 0.000001 -0.343690 -0.811121 -0.718802
 36 10.242680 -0.000000 -0.000000 -0.000000 -0.000000 -1.737974
 37 11.375562 0.000002 0.000000 2.072582 0.329354 0.127908
 38 0.728681 0.023431 1.008293 -1.579583 -0.319038 0.212973
 39 2.136497 -0.000001 -0.000000 -0.000000 0.000000 1.282817
 40 2.313140 0.000001 0.000000 0.000000 0.000000 3.141593
 41 3.115506 -0.886041 0.021432 0.708959 0.171755 0.347804
 42 2.011150 0.000001 -0.000001 -0.000000 0.000000 2.082010
 43 2.141378 -0.000000 -0.000002 0.000000 0.000000 3.141593
 44 1.734172 -0.000000 0.000000 -0.000000 0.000000 1.041748
 45 0.136313 -3.738194 2.525889 1.493698 2.759406 -1.474501
 46 5.613160 0.862366 3.157030 1.595152 -0.135386 0.061522
 47 11.389367 -0.000818 0.158782 1.814138 0.188400 0.046173
 48 0.000000 -4.440600 -0.000001 1.570144 -3.078602 0.004040
 49 6.000000 0.000001 0.000000 1.814138 -0.000000 0.000000
 50 0.000001 -4.440601 -0.000001 1.569944 -3.078603 0.004053
 51 10.510131 -0.000001 0.000001 -0.000000 -0.000000 -2.439783
 52 0.000000 -1.748401 -5.000002 -3.141593 0.004007 -1.539299
 53 5.499999 -0.000001 0.000000 0.144083 0.000000 0.000000
 54 -0.000001 0.000000 -5.000000 -0.044472 3.137590 -0.000177
 55 6.551491 0.000000 -0.000001 -0.144083 -0.236305 -0.221476
 56 -1.266842 -1.937445 -4.950559 -0.066572 -2.988806 -0.110308
 57 6.551491 0.000000 -0.000001 -0.144083 -0.236305 -0.221476
 58 0.699370 -1.944208 -5.006847 -0.027189 -3.088217 0.005298
 59 4.226148 -0.003202 -0.000000 0.245065 -0.169589 -0.013834
 60 0.000000 5.000001 -0.000000 -0.153564 0.000087 2.718702
 61 0.000004 -0.000004 -3.713580 0.365818 2.880119 -0.191589
 62 0.000003 -0.000000 5.000000 3.053196 1.558589 -0.074928
 63 -0.000007 0.000006 3.713580 -0.001619 -3.122277 -0.475127
 64 0.000001 -0.000000 -5.000000 -0.088725 1.558589 3.066336
 65 7.363602 1.646647 0.495663 3.141593 -1.570796 0.000000
 66 -0.000005 0.000007 3.619081 0.008255 -3.110080 -0.985231
 67 16.573919 0.000003 0.000000 0.000000 0.000000 -1.065827
 68 15.128181 0.000001 -0.000000 -0.102296 0.010178 0.114297
 69 5.758665 4.244730 -0.000000 0.000000 -0.000000 1.667687
 70 3.177726 0.000000 0.000000 0.000000 0.000000 3.141593
 71 15.708952 0.000001 0.000000 -0.051525 0.003996 0.061523
 72 0.275148 0.189215 -3.445208 3.130898 0.000409 -1.514604
 73 17.210192 0.000002 0.000000 0.000000 0.000000 -1.893339
 74 0.000001 -0.000000 -4.999999 -0.079430 1.546568 -1.570855
 75 0.000002 -0.000003 -3.619081 0.577895 2.675801 -0.242118
 76 16.573923 -0.000001 -0.000001 0.000000 -0.000000 -1.163030
 77 15.128182 -0.000001 0.000002 0.089479 0.309197 0.659208
 78 5.758665 4.244731 -0.000000 -0.000000 0.000000 1.815142
 79 4.003934 -0.000000 -0.000000 0.000000 0.000000 0.000000
 80 15.708954 -0.000000 0.000002 0.042277 0.226871 0.443133
 81 0.273998 0.191090 3.439763 -3.130907 -0.000437 -1.508107
 82 17.210196 -0.000001 -0.000001 0.000000 -0.000000 -1.937080
 83 0.000001 -0.000001 5.000000 -0.079314 1.595025 -1.570739
time 1
  0 -0.650000 0.000000 33.899605 -0.025849 0.174554 -1.569172
  1 5.685105 0.833237 -32.227173 -0.174512 -0.026131 1.569196
  2 -2.276935 0.000003 -1.238189 -1.570795 -1.570451 0.000000
  3 1.796321 0.711921 -0.000364 0.110446 0.002041 -0.253625
  4 4.119712 -0.003071 -0.000315 0.096474 -0.062599 0.340435
  5 4.118791 -0.003254 -0.000361 0.110306 -0.032130 0.053814
  6 4.118445 -0.003258 -0.000344 0.105054 -0.019625 -0.050472
  7 4.118744 -0.003149 -0.001607 0.493432 -0.288776 -0.106352
  8 4.443599 -0.000001 -0.000000 0.636292 -0.045889 0.242960
  9 9.024060 0.000000 0.000000 0.000000 0.000000 -0.000000
 10 0.493447 0.790256 1.462842 1.719482 -1.221580 1.482415
 11 6.384776 -0.000000 0.000002 -0.798391 0.595326 -0.666036
 12 10.242682 -0.000001 0.000001 0.000000 0.000000 -1.249219
 13 11.375562 0.000002 -0.000002 2.710695 0.429759 -0.317984
 14 0.728681 0.023431 -1.008293 2.396606 0.246960 1.180207
 15 2.136497 -0.000000 -0.000001 -0.000000 -0.000000 -0.078540
 16 2.313139 0.000001 -0.000001 0.000000 0.000000 0.000000
 17 3.115505 -0.886039 -0.021432 -0.166499 0.000392 0.514872
 18 2.011152 -0.000000 0.000001 -0.000000 0.000000 1.322792
 19 2.141380 -0.000000 -0.000001 0.000000 0.000000 0.000000
 20 1.734171 -0.000001 -0.000000 -0.000000 -0.000000 0.660693
 21 0.000007 -4.440594 0.000000 1.570544 -0.062990 -0.195737
 22 6.000000 0.000002 -0.000001 3.074355 -0.000000 -0.000000
 23 0.000002 -4.440600 -0.000000 1.569944 -0.062987 0.004053
 24 11.375562 -0.000000 0.000003 -2.516442 0.324283 -0.018506
 25 -0.000002 -4.440602 -0.000001 1.570144 -0.062988 0.004040
 26 10.510134 0.000000 -0.000001 -0.000000 -0.000000 -2.195405
 27 0.000001 -1.748402 5.000000 -0.000000 0.004007 1.602291
 28 5.500003 -0.000000 0.000000 0.265095 -0.000000 -0.000000
 29 -0.000001 -1.940598 5.000000 -0.044472 0.004003 -0.000180
 30 6.551490 0.000000 0.000003 -0.512375 0.403181 -0.413646
 31 -0.000000 -1.940599 5.000003 -0.027189 -0.053376 0.005295
 32 6.551490 0.000000 0.000003 -0.216768 0.217472 -0.165932
 33 0.000001 -1.940599 4.999995 -0.066572 -0.152786 -0.110311
 34 -0.493442 -0.783181 -1.462843 0.102854 1.287511 -3.077148
 35 6.384776 0.000001 -0.000001 -0.366538 -0.845729 -0.595145
 36 10.242683 -0.000000 0.000001 0.000000 0.000000 -1.775831
 37 11.375560 -0.000001 -0.000001 2.029801 0.365856 0.154093
 38 0.728681 0.023431 1.008291 -1.579583 -0.319038 0.212973
 39 2.136496 -0.000000 -0.000000 -0.000000 0.000000 1.282817
 40 2.313142 0.000000 0.000000 0.000000 0.000000 3.141593
 41 3.115507 -0.886041 0.021431 0.708959 0.171755 0.347804
 42 2.011151 0.000002 -0.000001 -0.000000 0.000000 2.082010
 43 2.141380 -0.000000 -0.000001 0.000000 0.000000 3.141593
 44 1.734173 -0.000001 -0.000002 -0.000000 -0.000000 1.041748
 45 0.136315 -3.738193 2.525889 1.493698 2.759406 -1.474501
 46 5.613160 0.862366 3.157030 1.595152 -0.135386 0.061522
 47 11.389368 -0.000817 0.158782 1.790741 0.206957 0.059429
 48 0.000001 -4.440598 -0.000001 1.570144 -3.078602 0.004040
 49 6.000000 0.000001 -0.000000 1.790741 -0.000000 -0.000000
 50 0.000001 -4.440602 0.000002 1.569944 -3.078603 0.004053
 51 10.510135 -0.000001 0.000001 -0.000000 -0.000000 -2.458712
 52 -0.000001 -1.748399 -5.000001 3.141593 0.004007 -1.539299
 53 5.500001 -0.000000 0.000001 0.144174 0.000000 0.000000
 54 -0.000001 -0.000001 -5.000001 -0.044472 3.137590 -0.000177
 55 6.551490 0.000000 0.000000 -0.144174 -0.256482 -0.199592
 56 -1.266843 -1.937443 -4.950561 -0.066572 -2.988806 -0.110308
 57 6.551491 0.000000 -0.000000 -0.144174 -0.256482 -0.199592
 58 0.699370 -1.944207 -5.006849 -0.027189 -3.088217 0.005298
 59 4.226144 -0.003201 0.000000 0.243630 -0.160841 -0.038422
 60 0.000001 5.000001 0.000001 -0.153564 0.000087 2.718702
 61 0.000004 -0.000004 -3.713580 0.365818 2.880119 -0.191589
 62 0.000003 -0.000000 5.000000 3.053196 1.558589 -0.074928
 63 -0.000007 0.000006 3.713580 -0.001619 -3.122277 -0.475127
 64 0.000001 -0.000000 -5.000000 -0.088725 1.558589 3.066336
 65 7.363602 1.646647 0.495663 3.141593 -1.570796 0.000000
 66 -0.000005 0.000007 3.619081 0.008255 -3.110080 -0.985231
 67 16.573919 0.000003 0.000000 0.000000 0.000000 -1.065827
 68 15.128181 0.000001 -0.000000 -0.102296 0.010178 0.114297
 69 5.758665 4.244730 -0.000000 0.000000 -0.000000 1.667687
 70 3.177726 0.000000 0.000000 0.000000 0.000000 3.141593
 71 15.708952 0.000001 0.000000 -0.051525 0.003996 0.061523
 72 0.275148 0.189215 -3.445208 3.130898 0.000409 -1.514604
 73 17.210192 0.000002 0.000000 0.000000 0.000000 -1.893339
 74 0.000001 -0.000000 -4.999999 -0.079430 1.546568 -1.570855
 75 0.000002 -0.000003 -3.619081 0.577895 2.675801 -0.242118
 76 16.573923 -0.000001 -0.000001 0.000000 -0.000000 -1.163030
 77 15.128182 -0.000001 0.000002 0.089479 0.309197 0.659208
 78 5.758665 4.244731 -0.000000 -0.000000 0.000000 1.815142
 79 4.003934 -0.000000 -0.000000 0.000000 0.000000 0.000000
 80 15.708954 -0.000000 0.000002 0.042277 0.226871 0.443133
 81 0.273998 0.191090 3.439763 -3.130907 -0.000437 -1.508107
 82 17.210196 -0.000001 -0.000001 0.000000 -0.000000 -1.937080
 83 0.000001 -0.000001 5.000000 -0.079314 1.595025 -1.570739
time 2
  0 -0.650000 0.000000 33.899605 -0.025849 0.174554 -1.569172
  1 5.685105 0.833237 -32.227173 -0.174512 -0.026131 1.569196
  2 -2.276935 0.000003 -1.238189 -1.570795 -1.570451 0.000000
  3 1.796324 0.711922 -0.000379 0.115192 -0.032231 -0.257786
  4 4.119710 -0.003069 -0.000330 0.101016 -0.053563 0.341247
  5 4.118790 -0.003252 -0.000377 0.115137 -0.014648 0.055745
  6 4.118449 -0.003256 -0.000360 0.109911 -0.008728 -0.049370
  7 4.118582 -0.003151 -0.001608 0.490679 -0.267853 -0.146916
  8 4.443599 0.000000 0.000000 0.642022 -0.032317 0.255100
  9 9.024061 0.000001 0.000000 0.000000 0.000000 0.000000
 10 0.458589 0.790920 1.473787 1.722244 -1.235445 1.524075
 11 6.384778 -0.000002 -0.000003 -0.820855 0.573130 -0.693575
 12 10.242682 0.000000 -0.000001 -0.000000 0.000000 -1.198514
 13 11.375561 -0.000002 0.000000 2.688515 0.427528 -0.364984
 14 0.728680 0.023430 -1.008292 2.396606 0.246960 1.180207
 15 2.136495 -0.000001 0.000001 0.000000 -0.000000 -0.078540
 16 2.313142 0.000000 -0.000001 0.000000 0.000000 0.000000
 17 3.115506 -0.886039 -0.021430 -0.166499 0.000392 0.514872
 18 2.011152 0.000001 -0.000001 0.000000 0.000000 1.322792
 19 2.141379 -0.000000 0.000001 0.000000 0.000000 0.000000
 20 1.734174 0.000001 -0.000001 0.000000 0.000000 0.660693
 21 0.000005 -4.440595 0.000000 1.570544 -0.062990 -0.195737
 22 6.000000 -0.000002 0.000001 3.052219 0.000000 -0.000000
 23 0.000001 -4.440602 -0.000001 1.569944 -0.062987 0.004053
 24 11.375561 -0.000001 0.000003 -2.523995 0.337468 -0.041828
 25 -0.000001 -4.440604 -0.000000 1.570144 -0.062988 0.004040
 26 10.510131 -0.000000 -0.000001 -0.000000 0.000000 -2.170053
 27 -0.000001 -1.748401 4.999999 -0.000000 0.004007 1.602290
 28 5.500000 -0.000000 -0.000001 0.271615 0.000000 0.000000
 29 -0.000003 -1.940598 5.000001 -0.044472 0.004003 -0.000180
 30 6.551491 -0.000000 0.000001 -0.524128 0.389758 -0.430421
 31 -0.000001 -1.940599 5.000001 -0.027189 -0.053376 0.005295
 32 6.551491 -0.000000 0.000001 -0.222047 0.212490 -0.173956
 33 -0.000000 -1.940600 4.999995 -0.066572 -0.152786 -0.110311
 34 -0.458585 -0.783844 -1.473787 -0.360804 1.301047 2.768390
 35 6.384777 0.000001 -0.000002 -0.404819 -0.880718 -0.455952
 36 10.242682 0.000000 -0.000001 0.000000 0.000000 -1.814823
 37 11.375562 0.000001 -0.000000 1.987104 0.401040 0.174522
 38 0.728680 0.023431 1.008292 -1.579583 -0.319038 0.212973
 39 2.136497 0.000001 -0.000000 -0.000000 0.000000 1.282817
 40 2.313141 0.000000 -0.000000 0.000000 0.000000 3.141593
 41 3.115507 -0.886041 0.021433 0.708959 0.171755 0.347804
 42 2.011150 -0.000001 -0.000002 -0.000000 0.000000 2.082010
 43 2.141380 -0.000000 0.000002 0.000000 0.000000 3.141593
 44 1.734173 -0.000001 -0.000001 -0.000000 0.000000 1.041748
 45 0.136314 -3.738193 2.525889 1.493698 2.759406 -1.474501
 46 5.613161 0.862367 3.157031 1.595152 -0.135386 0.061522
 47 11.389367 -0.000821 0.158781 1.767415 0.223959 0.069890
 48 0.000000 -4.440599 0.000000 1.570144 -3.078602 0.004040
 49 6.000001 0.000001 0.000001 1.767415 -0.000000 0.000000
 50 0.000002 -4.440601 0.000001 1.569944 -3.078603 0.004053
 51 10.510134 -0.000001 -0.000000 0.000000 -0.000000 -2.478207
 52 0.000000 -1.748400 -5.000000 3.141593 0.004007 -1.539299
 53 5.500000 -0.000000 -0.000001 0.148998 0.000000 0.000000
 54 -0.000001 0.000000 -4.999999 -0.044472 3.137589 -0.000177
 55 6.551491 -0.000000 0.000002 -0.148998 -0.275485 -0.174819
 56 -1.266843 -1.937443 -4.950562 -0.066572 -2.988806 -0.110308
 57 6.551491 -0.000000 0.000002 -0.148998 -0.275485 -0.174819
 58 0.699370 -1.944207 -5.006850 -0.027189 -3.088217 0.005298
 59 4.226147 -0.003201 0.000000 0.241809 -0.151952 -0.062921
 60 -0.000001 5.000001 0.000000 -0.153564 0.000087 2.718702
 61 0.000004 -0.000004 -3.713580 0.365818 2.880119 -0.191589
 62 0.000003 -0.000000 5.000000 3.053196 1.558589 -0.074928
 63 -0.000007 0.000006 3.713580 -0.001619 -3.122277 -0.475127
 64 0.000001 -0.000000 -5.000000 -0.088725 1.558589 3.066336
 65 7.363602 1.646647 0.495663 3.141593 -1.570796 0.000000
 66 -0.000005 0.000007 3.619081 0.008255 -3.110080 -0.985231
 67 16.573919 0.000003 0.000000 0.000000 0.000000 -1.065827
 68 15.128181 0.000001 -0.000000 -0.102296 0.010178 0.114297
 69 5.758665 4.244730 -0.000000 0.000000 -0.000000 1.667687
 70 3.177726 0.000000 0.000000 0.000000 0.000000 3.141593
 71 15.708952 0.000001 0.000000 -0.051525 0.003996 0.061523
 72 0.275148 0.189215 -3.445208 3.130898 0.000409 -1.514604
 73 17.210192 0.000002 0.000000 0.000000 0.000000 -1.893339
 74 0.000001 -0.000000 -4.999999 -0.079430 1.546568 -1.570855
 75 0.000002 -0.000003 -3.619081 0.577895 2.675801 -0.242118
 76 16.573923 -0.000001 -0.000001 0.000000 -0.000000 -1.163030
 77 15.128182 -0.000001 0.000002 0.089479 0.309197 0.659208
 78 5.758665 4.244731 -0.000000 -0.000000 0.000000 1.815142
 79 4.003934 -0.000000 -0.000000 0.000000 0.000000 0.000000
 80 15.708954 -0.000000 0.000002 0.042277 0.226871 0.443133
 81 0.273998 0.191090 3.439763 -3.130907 -0.000437 -1.508107
 82 17.210196 -0.000001 -0.000001 0.000000 -0.000000 -1.937080
 83 0.000001 -0.000001 5.000000 -0.079314 1.595025 -1.570739
time 3
  0 -0.650000 0.000000 33.899605 -0.025849 0.174554 -1.569172
  1 5.685105 0.833237 -32.227173 -0.174512 -0.026131 1.569196
  2 -2.276935 0.000003 -1.238189 -1.570795 -1.570451 0.000000
  3 1.796321 0.711924 -0.000385 0.117117 -0.052913 -0.260296
  4 4.119713 -0.003069 -0.000336 0.102777 -0.047840 0.341796
  5 4.118788 -0.003251 -0.000383 0.117028 -0.004173 0.056940
  6 4.118448 -0.003256 -0.000366 0.111806 -0.002283 -0.048686
  7 4.118420 -0.003148 -0.001606 0.487069 -0.247054 -0.187318
  8 4.443597 -0.000000 -0.000000 0.654684 -0.017902 0.266796
  9 9.024061 0.000001 0.000000 0.000000 0.000000 0.000000
 10 0.423734 0.789889 1.484730 1.723290 -1.249337 1.567346
 11 6.384778 -0.000000 -0.000000 -0.833547 0.561932 -0.703182
 12 10.242683 0.000001 -0.000001 0.000000 0.000000 -1.173199
 13 11.375562 -0.000002 0.000001 2.674910 0.426002 -0.391445
 14 0.728680 0.023432 -1.008291 2.396606 0.246960 1.180207
 15 2.136496 -0.000001 0.000003 0.000000 0.000000 -0.078540
 16 2.313141 0.000000 -0.000000 0.000000 0.000000 0.000000
 17 3.115506 -0.886039 -0.021431 -0.166499 0.000392 0.514872
 18 2.011151 0.000001 0.000001 0.000000 0.000000 1.322792
 19 2.141379 0.000001 0.000001 0.000000 0.000000 0.000000
 20 1.734172 0.000002 0.000001 0.000000 0.000000 0.660693
 21 0.000006 -4.440594 -0.000001 1.570544 -0.062990 -0.195737
 22 6.000000 -0.000000 -0.000000 3.038495 0.000000 0.000000
 23 0.000002 -4.440601 -0.000001 1.569944 -0.062987 0.004053
 24 11.375563 -0.000001 0.000004 -2.528791 0.344864 -0.054767
 25 -0.000001 -4.440605 -0.000001 1.570144 -0.062988 0.004040
 26 10.510132 0.000002 -0.000003 0.000000 0.000000 -2.157396
 27 -0.000001 -1.748400 4.999998 -0.000000 0.004007 1.602290
 28 5.500000 0.000001 -0.000001 0.276319 0.000000 0.000000
 29 -0.000002 -1.940597 5.000000 -0.044472 0.004003 -0.000180
 30 6.551492 -0.000000 0.000002 -0.532572 0.384073 -0.436094
 31 -0.000000 -1.940599 5.000002 -0.027189 -0.053376 0.005295
 32 6.551493 0.000000 0.000002 -0.225891 0.210436 -0.176448
 33 -0.000000 -1.940599 5.000000 -0.066572 -0.152786 -0.110311
 34 -0.423737 -0.782813 -1.484730 -0.637944 1.277465 2.523459
 35 6.384778 0.000000 -0.000000 -0.433736 -0.900226 -0.370241
 36 10.242679 0.000000 -0.000000 0.000000 0.000000 -1.836675
 37 11.375561 0.000003 -0.000001 1.962954 0.419854 0.183803
 38 0.728680 0.023431 1.008293 -1.579583 -0.319038 0.212973
 39 2.136498 0.000002 -0.000000 -0.000000 0.000000 1.282817
 40 2.313139 0.000000 -0.000000 0.000000 0.000000 3.141593
 41 3.115507 -0.886040 0.021430 0.708959 0.171755 0.347804
 42 2.011151 -0.000000 -0.000001 0.000000 0.000000 2.082010
 43 2.141379 -0.000001 -0.000002 0.000000 0.000000 3.141593
 44 1.734173 -0.000002 -0.000002 0.000000 0.000000 1.041748
 45 0.136314 -3.738194 2.525888 1.493698 2.759406 -1.474501
 46 5.613160 0.862367 3.157030 1.595152 -0.135386 0.061522
 47 11.389367 -0.000819 0.158780 1.754288 0.232746 0.074796
 48 0.000001 -4.440599 0.000000 1.570144 -3.078602 0.004040
 49 6.000000 0.000001 -0.000001 1.754288 0.000000 0.000000
 50 0.000002 -4.440601 -0.000000 1.569944 -3.078603 0.004053
 51 10.510129 0.000001 -0.000001 -0.000000 -0.000000 -2.489133
 52 -0.000000 -1.748400 -5.000003 3.141593 0.004007 -1.539299
 53 5.500000 -0.000001 0.000001 0.153741 -0.000000 0.000000
 54 0.000001 -0.000001 -5.000000 -0.044472 3.137590 -0.000177
 55 6.551492 0.000001 -0.000003 -0.153741 -0.285630 -0.159156
 56 -1.266843 -1.937443 -4.950558 -0.066572 -2.988806 -0.110308
 57 6.551492 0.000001 -0.000003 -0.153741 -0.285630 -0.159156
 58 0.699371 -1.944208 -5.006845 -0.027189 -3.088217 0.005298
 59 4.226148 -0.003202 0.000000 0.239598 -0.142969 -0.087212
 60 0.000000 5.000001 0.000000 -0.153564 0.000087 2.718702
 61 0.000004 -0.000004 -3.713580 0.365818 2.880119 -0.191589
 62 0.000003 -0.000000 5.000000 3.053196 1.558589 -0.074928
 63 -0.000007 0.000006 3.713580 -0.001619 -3.122277 -0.475127
 64 0.000001 -0.000000 -5.000000 -0.088725 1.558589 3.066336
 65 7.363602 1.646647 0.495663 3.141593 -1.570796 0.000000
 66 -0.000005 0.000007 3.619081 0.008255 -3.110080 -0.985231
 67 16.573919 0.000003 0.000000 0.000000 0.000000 -1.065827
 68 15.128181 0.000001 -0.000000 -0.102296 0.010178 0.114297
 69 5.758665 4.244730 -0.000000 0.000000 -0.000000 1.667687
 70 3.177726 0.000000 0.000000 0.000000 0.000000 3.141593
 71 15.708952 0.000001 0.000000 -0.051525 0.003996 0.061523
 72 0.275148 0.189215 -3.445208 3.130898 0.000409 -1.514604
 73 17.210192 0.000002 0.000000 0.000000 0.000000 -1.893339
 74 0.000001 -0.000000 -4.999999 -0.079430 1.546568 -1.570855
 75 0.000002 -0.000003 -3.619081 0.577895 2.675801 -0.242118
 76 16.573923 -0.000001 -0.000001 0.000000 -0.000000 -1.163030
 77 15.128182 -0.000001 0.000002 0.089479 0.309197 0.659208
 78 5.758665 4.244731 -0.000000 -0.000000 0.000000 1.815142
 79 4.003934 -0.000000 -0.000000 0.000000 0.000000 0.000000
 80 15.708954 -0.000000 0.000002 0.042277 0.226871 0.443133
 81 0.273998 0.191090 3.439763 -3.130907 -0.000437 -1.508107
 82 17.210196 -0.000001 -0.000001 0.000000 -0.000000 -1.937080
 83 0.000001 -0.000001 5.000000 -0.079314 1.595025 -1.570739
time 4
  0 -0.650000 0.000000 33.899605 -0.025849 0.174554 -1.569172
  1 5.685105 0.833237 -32.227173 -0.174512 -0.026131 1.569196
  2 -2.276935 0.000003 -1.238189 -1.570795 -1.570451 0.000000
  3 1.796321 0.711924 -0.000382 0.116104 -0.059965 -0.261015
  4 4.119710 -0.003069 -0.000333 0.101743 -0.045439 0.342048
  5 4.118792 -0.003252 -0.000380 0.115943 -0.000724 0.057331
  6 4.118445 -0.003255 -0.000363 0.110719 -0.000302 -0.048462
  7 4.118421 -0.003148 -0.001606 0.487069 -0.247054 -0.187318
  8 4.443598 0.000000 0.000000 0.660396 -0.021458 0.264287
  9 9.024062 0.000000 0.000000 0.000000 0.000000 0.000000
 10 0.423738 0.789889 1.484730 1.723290 -1.249337 1.567346
 11 6.384778 -0.000001 -0.000000 -0.836698 0.562790 -0.694999
 12 10.242683 0.000002 -0.000001 -0.000000 0.000000 -1.174393
 13 11.375562 -0.000002 -0.000000 2.669840 0.425633 -0.397180
 14 0.728680 0.023428 -1.008292 2.396606 0.246960 1.180207
 15 2.136499 0.000000 -0.000001 -0.000000 -0.000000 -0.078540
 16 2.313138 0.000001 -0.000001 0.000000 0.000000 0.000000
 17 3.115506 -0.886044 -0.021432 -0.166499 0.000392 0.514872
 18 2.011148 0.000000 -0.000001 -0.000000 0.000000 1.322792
 19 2.141379 -0.000001 -0.000000 0.000000 0.000000 0.000000
 20 1.734171 0.000002 -0.000000 -0.000000 -0.000000 0.660693
 21 0.000006 -4.440594 0.000000 1.570544 -0.062990 -0.195737
 22 6.000000 -0.000001 -0.000000 3.033288 -0.000000 -0.000000
 23 0.000001 -4.440602 -0.000000 1.569944 -0.062987 0.004053
 24 11.375562 -0.000001 0.000002 -2.530816 0.346643 -0.057287
 25 -0.000001 -4.440603 0.000000 1.570144 -0.062988 0.004040
 26 10.510132 0.000001 -0.000001 0.000000 -0.000000 -2.157993
 27 0.000000 -1.748402 4.999999 -0.000000 0.004007 1.602290
 28 5.500003 0.000002 -0.000002 0.279088 0.000000 0.000000
 29 -0.000001 -1.940598 4.999999 -0.044472 0.004003 -0.000180
 30 6.551492 -0.000001 -0.000000 -0.537600 0.386486 -0.430946
 31 -0.000000 -1.940598 5.000003 -0.027189 -0.053376 0.005295
 32 6.551492 -0.000001 -0.000000 -0.228197 0.211446 -0.173511
 33 0.000000 -1.940599 4.999995 -0.066572 -0.152786 -0.110311
 34 -0.423736 -0.782812 -1.484729 -0.703525 1.268466 2.453189
 35 6.384777 -0.000000 -0.000002 -0.440180 -0.905326 -0.351236
 36 10.242684 0.000000 0.000001 0.000000 -0.000000 -1.840845
 37 11.375561 -0.000002 0.000002 1.957231 0.423481 0.186401
 38 0.728680 0.023431 1.008295 -1.579583 -0.319038 0.212973
 39 2.136496 -0.000002 0.000000 0.000000 0.000000 1.282817
 40 2.313138 0.000001 0.000000 0.000000 0.000000 3.141593
 41 3.115506 -0.886040 0.021430 0.708959 0.171755 0.347804
 42 2.011149 0.000002 0.000001 -0.000000 0.000000 2.082010
 43 2.141378 0.000000 0.000000 0.000000 0.000000 3.141593
 44 1.734172 -0.000001 -0.000001 0.000000 -0.000000 1.041748
 45 0.136313 -3.738194 2.525888 1.493698 2.759406 -1.474501
 46 5.613159 0.862367 3.157031 1.595152 -0.135386 0.061522
 47 11.389366 -0.000820 0.158784 1.751188 0.234414 0.076261
 48 -0.000000 -4.440600 0.000003 1.570144 -3.078602 0.004040
 49 6.000000 -0.000002 0.000001 1.751188 -0.000000 -0.000000
 50 0.000001 -4.440602 -0.000000 1.569944 -3.078603 0.004053
 51 10.510131 0.000002 0.000000 0.000000 0.000000 -2.491219
 52 -0.000000 -1.748401 -5.000002 -3.141593 0.004007 -1.539299
 53 5.500000 0.000001 0.000000 0.154882 -0.000000 -0.000000
 54 -0.000001 0.000001 -5.000001 -0.044472 3.137589 -0.000177
 55 6.551491 -0.000000 -0.000002 -0.154882 -0.287985 -0.155589
 56 -1.266844 -1.937444 -4.950560 -0.066572 -2.988806 -0.110308
 57 6.551491 -0.000000 -0.000002 -0.154882 -0.287985 -0.155589
 58 0.699370 -1.944208 -5.006849 -0.027189 -3.088217 0.005298
 59 4.226146 -0.003202 -0.000000 0.239598 -0.142969 -0.087212
 60 -0.000001 5.000001 -0.000000 -0.153564 0.000087 2.718702
 61 0.000004 -0.000004 -3.713580 0.365818 2.880119 -0.191589
 62 0.000003 -0.000000 5.000000 3.053196 1.558589 -0.074928
 63 -0.000007 0.000006 3.713580 -0.001619 -3.122277 -0.475127
 64 0.000001 -0.000000 -5.000000 -0.088725 1.558589 3.066336
 65 7.363602 1.646647 0.495663 3.141593 -1.570796 0.000000
 66 -0.000005 0.000007 3.619081 0.008255 -3.110080 -0.985231
 67 16.573919 0.000003 0.000000 0.000000 0.000000 -1.065827
 68 15.128181 0.000001 -0.000000 -0.102296 0.010178 0.114297
 69 5.758665 4.244730 -0.000000 0.000000 -0.000000 1.667687
 70 3.177726 0.000000 0.000000 0.000000 0.000000 3.141593
 71 15.708952 0.000001 0.000000 -0.051525 0.003996 0.061523
 72 0.275148 0.189215 -3.445208 3.130898 0.000409 -1.514604
 73 17.210192 0.000002 0.000000 0.000000 0.000000 -1.893339
 74 0.000001 -0.000000 -4.999999 -0.079430 1.546568 -1.570855
 75 0.000002 -0.000003 -3.619081 0.577895 2.675801 -0.242118
 76 16.573923 -0.000001 -0.000001 0.000000 -0.000000 -1.163030
 77 15.128182 -0.000001 0.000002 0.089479 0.309197 0.659208
 78 5.758665 4.244731 -0.000000 -0.000000 0.000000 1.815142
 79 4.003934 -0.000000 -0.000000 0.000000 0.000000 0.000000
 80 15.708954 -0.000000 0.000002 0.042277 0.226871 0.443133
 81 0.273998 0.191090 3.439763 -3.130907 -0.000437 -1.508107
 82 17.210196 -0.000001 -0.000001 0.000000 -0.000000 -1.937080
 83 0.000001 -0.000001 5.000000 -0.079314 1.595025 -1.570739
time 5
  0 -0.650000 0.000000 33.899605 -0.025849 0.174554 -1.569172
  1 5.685105 0.833237 -32.227173 -0.174512 -0.026131 1.569196
  2 -2.276935 0.000003 -1.238189 -1.570795 -1.570451 0.000000
  3 1.796324 0.711922 -0.000376 0.114236 -0.063101 -0.261207
  4 4.119709 -0.003070 -0.000326 0.099904 -0.043993 0.342211
  5 4.118791 -0.003253 -0.000373 0.114000 0.000706 0.057484
  6 4.118448 -0.003257 -0.000356 0.108775 0.000395 -0.048375
  7 4.118416 -0.003146 -0.001606 0.487069 -0.247054 -0.187318
  8 4.443600 -0.000000 -0.000001 0.668167 -0.024612 0.261654
  9 9.024060 0.000001 -0.000000 0.000000 0.000000 0.000000
 10 0.423737 0.789889 1.484729 1.723290 -1.249337 1.567346
 11 6.384778 -0.000000 0.000000 -0.837128 0.567167 -0.681736
 12 10.242682 0.000001 -0.000002 -0.000000 0.000000 -1.183144
 13 11.375562 -0.000003 0.000001 2.667193 0.425644 -0.397052
 14 0.728680 0.023432 -1.008292 2.396606 0.246960 1.180207
 15 2.136496 0.000000 0.000001 -0.000000 -0.000000 -0.078540
 16 2.313140 0.000000 -0.000001 0.000000 0.000000 0.000000
 17 3.115507 -0.886039 -0.021432 -0.166499 0.000392 0.514872
 18 2.011151 -0.000000 -0.000000 0.000000 0.000000 1.322792
 19 2.141383 -0.000000 -0.000001 0.000000 0.000000 0.000000
 20 1.734174 0.000001 0.000000 -0.000000 0.000000 0.660693
 21 0.000006 -4.440594 -0.000001 1.570544 -0.062990 -0.195737
 22 6.000000 0.000001 -0.000001 3.030514 0.000000 -0.000000
 23 0.000000 -4.440599 0.000001 1.569944 -0.062987 0.004053
 24 11.375563 0.000001 0.000001 -2.532046 0.346854 -0.056858
 25 -0.000001 -4.440604 -0.000002 1.570144 -0.062988 0.004040
 26 10.510131 0.000001 -0.000002 0.000000 -0.000000 -2.162369
 27 0.000000 -1.748402 4.999999 -0.000000 0.004007 1.602290
 28 5.499998 -0.000000 -0.000001 0.281273 0.000000 -0.000000
 29 -0.000001 -1.940598 5.000001 -0.044472 0.004003 -0.000180
 30 6.551492 -0.000000 -0.000001 -0.541618 0.391428 -0.422557
 31 0.000000 -1.940599 5.000003 -0.027189 -0.053376 0.005295
 32 6.551492 -0.000000 -0.000001 -0.230037 0.213403 -0.168928
 33 -0.000000 -1.940600 4.999996 -0.066572 -0.152786 -0.110311
 34 -0.423733 -0.782813 -1.484730 -0.727872 1.264614 2.426983
 35 6.384777 0.000001 -0.000001 -0.439068 -0.906451 -0.352482
 36 10.242682 -0.000000 -0.000000 -0.000000 0.000000 -1.839916
 37 11.375562 -0.000001 0.000001 1.956773 0.422845 0.187410
 38 0.728680 0.023431 1.008293 -1.579583 -0.319038 0.212973
 39 2.136497 0.000001 0.000000 -0.000000 0.000000 1.282817
 40 2.313140 -0.000000 0.000000 0.000000 0.000000 3.141593
 41 3.115507 -0.886041 0.021431 0.708959 0.171755 0.347804
 42 2.011151 -0.000000 -0.000000 0.000000 0.000000 2.082010
 43 2.141379 -0.000000 -0.000000 0.000000 0.000000 3.141593
 44 1.734173 -0.000003 -0.000001 -0.000000 -0.000000 1.041748
 45 0.136314 -3.738192 2.525889 1.493698 2.759406 -1.474501
 46 5.613160 0.862367 3.157034 1.595152 -0.135386 0.061522
 47 11.389367 -0.000820 0.158782 1.750942 0.234116 0.076891
 48 0.000000 -4.440599 -0.000000 1.570144 -3.078602 0.004040
 49 6.000000 -0.000002 -0.000001 1.750942 0.000000 -0.000000
 50 0.000001 -4.440602 -0.000001 1.569944 -3.078603 0.004053
 51 10.510131 -0.000000 0.000000 0.000000 0.000000 -2.490754
 52 -0.000000 -1.748399 -5.000001 3.141593 0.004007 -1.539299
 53 5.500000 -0.000001 0.000001 0.154723 -0.000000 -0.000000
 54 -0.000000 0.000000 -5.000000 -0.044472 3.137589 -0.000177
 55 6.551491 -0.000000 0.000002 -0.154723 -0.288210 -0.155760
 56 -1.266844 -1.937444 -4.950562 -0.066572 -2.988806 -0.110308
 57 6.551492 -0.000000 0.000002 -0.154723 -0.288210 -0.155760
 58 0.699370 -1.944206 -5.006850 -0.027189 -3.088217 0.005298
 59 4.226147 -0.003201 -0.000000 0.239598 -0.142969 -0.087212
 60 -0.000001 5.000001 -0.000001 -0.153564 0.000087 2.718702
 61 0.000004 -0.000004 -3.713580 0.365818 2.880119 -0.191589
 62 0.000003 -0.000000 5.000000 3.053196 1.558589 -0.074928
 63 -0.000007 0.000006 3.713580 -0.001619 -3.122277 -0.475127
 64 0.000001 -0.000000 -5.000000 -0.088725 1.558589 3.066336
 65 7.363602 1.646647 0.495663 3.141593 -1.570796 0.000000
 66 -0.000005 0.000007 3.619081 0.008255 -3.110080 -0.985231
 67 16.573919 0.000003 0.000000 0.000000 0.000000 -1.065827
 68 15.128181 0.000001 -0.000000 -0.102296 0.010178 0.114297
 69 5.758665 4.244730 -0.000000 0.000000 -0.000000 1.667687
 70 3.177726 0.000000 0.000000 0.000000 0.000000 3.141593
 71 15.708952 0.000001 0.000000 -0.051525 0.003996 0.061523
 72 0.275148 0.189215 -3.445208 3.130898 0.000409 -1.514604
 73 17.210192 0.000002 0.000000 0.000000 0.000000 -1.893339
 74 0.000001 -0.000000 -4.999999 -0.079430 1.546568 -1.570855
 75 0.000002 -0.000003 -3.619081 0.577895 2.675801 -0.242118
 76 16.573923 -0.000001 -0.000001 0.000000 -0.000000 -1.163030
 77 15.128182 -0.000001 0.000002 0.089479 0.309197 0.659208
 78 5.758665 4.244731 -0.000000 -0.000000 0.000000 1.815142
 79 4.003934 -0.000000 -0.000000 0.000000 0.000000 0.000000
 80 15.708954 -0.000000 0.000002 0.042277 0.226871 0.443133
 81 0.273998 0.191090 3.439763 -3.130907 -0.000437 -1.508107
 82 17.210196 -0.000001 -0.000001 0.000000 -0.000000 -1.937080
 83 0.000001 -0.000001 5.000000 -0.079314 1.595025 -1.570739
time 6
  0 -0.650000 0.000000 33.899605 -0.025849 0.174554 -1.569172
  1 5.685105 0.833237 -32.227173 -0.174512 -0.026131 1.569196
  2 -2.276935 0.000003 -1.238189 -1.570795 -1.570451 0.000000
  3 1.796321 0.711922 -0.000367 0.111744 -0.063387 -0.261019
  4 4.119713 -0.003070 -0.000319 0.097481 -0.043242 0.342309
  5 4.118793 -0.003255 -0.000365 0.111433 0.000667 0.057467
  6 4.118442 -0.003256 -0.000347 0.106207 0.000160 -0.048384
  7 4.118419 -0.003148 -0.001606 0.487069 -0.247054 -0.187318
  8 4.443599 0.000000 0.000000 0.677421 -0.027478 0.258900
  9 9.024061 0.000002 -0.000000 0.000000 0.000000 0.000000
 10 0.423738 0.789889 1.484730 1.723290 -1.249337 1.567346
 11 6.384778 0.000000 -0.000001 -0.835593 0.574057 -0.664806
 12 10.242683 0.000000 -0.000000 -0.000000 -0.000000 -1.197235
 13 11.375562 0.000001 -0.000001 2.666291 0.425957 -0.392787
 14 0.728680 0.023433 -1.008292 2.396606 0.246960 1.180207
 15 2.136495 0.000000 0.000000 -0.000000 0.000000 -0.078540
 16 2.313140 -0.000000 0.000000 0.000000 0.000000 0.000000
 17 3.115506 -0.886040 -0.021432 -0.166499 0.000392 0.514872
 18 2.011151 0.000001 -0.000000 -0.000000 0.000000 1.322792
 19 2.141379 0.000000 0.000000 0.000000 0.000000 0.000000
 20 1.734171 0.000001 0.000001 0.000000 0.000000 0.660693
 21 0.000004 -4.440594 -0.000000 1.570544 -0.062990 -0.195737
 22 6.000000 0.000002 -0.000000 3.029504 0.000000 -0.000000
 23 0.000001 -4.440602 0.000001 1.569944 -0.062987 0.004053
 24 11.375562 -0.000001 0.000003 -2.532691 0.345962 -0.054338
 25 -0.000001 -4.440603 -0.000001 1.570144 -0.062988 0.004040
 26 10.510133 0.000000 -0.000001 0.000000 -0.000000 -2.169414
 27 -0.000000 -1.748400 4.999999 -0.000000 0.004007 1.602290
 28 5.500000 -0.000001 0.000000 0.283028 -0.000000 -0.000000
 29 -0.000002 -1.940599 5.000000 -0.044472 0.004003 -0.000180
 30 6.551491 0.000001 0.000002 -0.544893 0.398360 -0.411632
 31 0.000000 -1.940599 5.000002 -0.027189 -0.053376 0.005295
 32 6.551492 0.000001 0.000002 -0.231535 0.216099 -0.163046
 33 -0.000001 -1.940599 4.999995 -0.066572 -0.152786 -0.110311
 34 -0.423735 -0.782812 -1.484729 -0.724434 1.265176 2.430688
 35 6.384777 0.000000 -0.000003 -0.432322 -0.904632 -0.368559
 36 10.242680 0.000000 -0.000001 0.000000 0.000000 -1.835301
 37 11.375561 -0.000000 0.000000 1.960116 0.419111 0.187265
 38 0.728680 0.023430 1.008292 -1.579583 -0.319038 0.212973
 39 2.136498 -0.000004 -0.000000 -0.000000 0.000000 1.282817
 40 2.313139 0.000002 -0.000000 0.000000 0.000000 3.141593
 41 3.115507 -0.886042 0.021430 0.708959 0.171755 0.347804
 42 2.011150 -0.000002 -0.000002 0.000000 -0.000000 2.082010
 43 2.141381 -0.000000 0.000002 0.000000 0.000000 3.141593
 44 1.734172 -0.000001 0.000000 0.000000 0.000000 1.041748
 45 0.136314 -3.738194 2.525889 1.493698 2.759406 -1.474501
 46 5.613160 0.862366 3.157030 1.595152 -0.135386 0.061522
 47 11.389366 -0.000821 0.158781 1.752759 0.232390 0.076918
 48 0.000000 -4.440600 -0.000000 1.570144 -3.078602 0.004040
 49 5.999999 -0.000002 -0.000001 1.752759 -0.000000 -0.000000
 50 0.000002 -4.440601 -0.000003 1.569944 -3.078603 0.004053
 51 10.510129 0.000001 -0.000000 -0.000000 -0.000000 -2.488447
 52 -0.000001 -1.748398 -5.000001 -3.141593 0.004007 -1.539299
 53 5.499997 0.000001 -0.000001 0.153599 -0.000000 -0.000000
 54 0.000002 -0.000000 -5.000000 -0.044472 3.137590 -0.000177
 55 6.551491 -0.000000 0.000000 -0.153599 -0.286885 -0.158655
 56 -1.266844 -1.937442 -4.950561 -0.066572 -2.988806 -0.110308
 57 6.551491 -0.000000 0.000000 -0.153599 -0.286885 -0.158655
 58 0.699371 -1.944207 -5.006848 -0.027189 -3.088217 0.005298
 59 4.226144 -0.003201 0.000000 0.239598 -0.142969 -0.087212
 60 -0.000002 5.000001 -0.000001 -0.153564 0.000087 2.718702
 61 0.000004 -0.000004 -3.713580 0.365818 2.880119 -0.191589
 62 0.000003 -0.000000 5.000000 3.053196 1.558589 -0.074928
 63 -0.000007 0.000006 3.713580 -0.001619 -3.122277 -0.475127
 64 0.000001 -0.000000 -5.000000 -0.088725 1.558589 3.066336
 65 7.363602 1.646647 0.495663 3.141593 -1.570796 0.000000
 66 -0.000005 0.000007 3.619081 0.008255 -3.110080 -0.985231
 67 16.573919 0.000003 0.000000 0.000000 0.000000 -1.065827
 68 15.128181 0.000001 -0.000000 -0.102296 0.010178 0.114297
 69 5.758665 4.244730 -0.000000 0.000000 -0.000000 1.667687
 70 3.177726 0.000000 0.000000 0.000000 0.000000 3.141593
 71 15.708952 0.000001 0.000000 -0.051525 0.003996 0.061523
 72 0.275148 0.189215 -3.445208 3.130898 0.000409 -1.514604
 73 17.210192 0.000002 0.000000 0.000000 0.000000 -1.893339
 74 0.000001 -0.000000 -4.999999 -0.079430 1.546568 -1.570855
 75 0.000002 -0.000003 -3.619081 0.577895 2.675801 -0.242118
 76 16.573923 -0.000001 -0.000001 0.000000 -0.000000 -1.163030
 77 15.128182 -0.000001 0.000002 0.089479 0.309197 0.659208
 78 5.758665 4.244731 -0.000000 -0.000000 0.000000 1.815142
 79 4.003934 -0.000000 -0.000000 0.000000 0.000000 0.000000
 80 15.708954 -0.000000 0.000002 0.042277 0.226871 0.443133
 81 0.273998 0.191090 3.439763 -3.130907 -0.000437 -1.508107
 82 17.210196 -0.000001 -0.000001 0.000000 -0.000000 -1.937080
 83 0.000001 -0.000001 5.000000 -0.079314 1.595025 -1.570739
time 7
  0 -0.650000 0.000000 33.899605 -0.025849 0.174554 -1.569172
  1 5.685105 0.833237 -32.227173 -0.174512 -0.026131 1.569196
  2 -2.276935 0.000003 -1.238189 -1.570795 -1.570451 0.000000
  3 1.796324 0.711920 -0.000358 0.108863 -0.061891 -0.260599
  4 4.119710 -0.003071 -0.000310 0.094692 -0.042924 0.342366
  5 4.118789 -0.003254 -0.000355 0.108475 -0.000290 0.057347
  6 4.118444 -0.003258 -0.000338 0.103248 -0.000659 -0.048451
  7 4.118418 -0.003146 -0.001606 0.487069 -0.247054 -0.187318
  8 4.443601 -0.000000 0.000000 0.687592 -0.030165 0.256034
  9 9.024060 0.000001 0.000000 0.000000 0.000000 0.000000
 10 0.423740 0.789888 1.484730 1.723290 -1.249337 1.567346
 11 6.384778 -0.000001 -0.000004 -0.832836 0.582449 -0.645604
 12 10.242682 0.000000 0.000000 0.000000 0.000000 -1.214472
 13 11.375563 0.000001 -0.000002 2.666463 0.426474 -0.386075
 14 0.728681 0.023431 -1.008292 2.396606 0.246960 1.180207
 15 2.136498 -0.000001 -0.000000 -0.000000 0.000000 -0.078540
 16 2.313140 -0.000000 -0.000000 0.000000 0.000000 0.000000
 17 3.115507 -0.886042 -0.021432 -0.166499 0.000392 0.514872
 18 2.011153 0.000000 0.000001 0.000000 0.000000 1.322792
 19 2.141380 -0.000000 -0.000000 0.000000 0.000000 0.000000
 20 1.734174 0.000002 0.000001 0.000000 -0.000000 0.660693
 21 0.000006 -4.440594 0.000002 1.570544 -0.062990 -0.195737
 22 6.000000 -0.000000 -0.000000 3.029584 0.000000 -0.000000
 23 0.000001 -4.440602 0.000001 1.569944 -0.062987 0.004053
 24 11.375563 -0.000001 0.000002 -2.532966 0.344417 -0.050569
 25 -0.000001 -4.440605 0.000000 1.570144 -0.062988 0.004040
 26 10.510130 0.000001 -0.000001 -0.000000 0.000000 -2.178032
 27 -0.000000 -1.748401 5.000000 -0.000000 0.004007 1.602291
 28 5.499999 0.000000 0.000001 0.284497 -0.000000 -0.000000
 29 -0.000001 -1.940597 5.000000 -0.044472 0.004003 -0.000180
 30 6.551492 -0.000000 -0.000001 -0.547668 0.406691 -0.398911
 31 0.000002 -1.940598 5.000001 -0.027189 -0.053376 0.005295
 32 6.551492 -0.000000 -0.000001 -0.232805 0.219302 -0.156232
 33 -0.000000 -1.940599 4.999998 -0.066572 -0.152786 -0.110311
 34 -0.423735 -0.782812 -1.484729 -0.703525 1.268466 2.453189
 35 6.384777 -0.000000 -0.000004 -0.422305 -0.900848 -0.393622
 36 10.242684 0.000000 -0.000000 -0.000000 -0.000000 -1.828401
 37 11.375563 0.000001 0.000001 1.965816 0.413402 0.186273
 38 0.728681 0.023431 1.008292 -1.579583 -0.319038 0.212973
 39 2.136495 -0.000002 0.000001 0.000000 0.000000 1.282817
 40 2.313142 0.000000 0.000000 0.000000 0.000000 3.141593
 41 3.115506 -0.886041 0.021430 0.708959 0.171755 0.347804
 42 2.011151 -0.000001 -0.000002 -0.000000 0.000000 2.082010
 43 2.141380 -0.000001 -0.000002 0.000000 0.000000 3.141593
 44 1.734172 0.000000 -0.000000 0.000000 0.000000 1.041748
 45 0.136315 -3.738192 2.525889 1.493698 2.759406 -1.474501
 46 5.613159 0.862367 3.157032 1.595152 -0.135386 0.061522
 47 11.389368 -0.000817 0.158783 1.755863 0.229742 0.076512
 48 -0.000000 -4.440598 0.000003 1.570144 -3.078602 0.004040
 49 6.000001 0.000003 0.000001 1.755863 -0.000000 -0.000000
 50 0.000001 -4.440601 -0.000001 1.569944 -3.078603 0.004053
 51 10.510132 0.000000 0.000000 -0.000000 0.000000 -2.484997
 52 -0.000001 -1.748398 -5.000001 -3.141593 0.004007 -1.539299
 53 5.500002 -0.000000 0.000000 0.151940 0.000000 -0.000000
 54 -0.000003 0.000000 -5.000001 -0.044472 3.137589 -0.000177
 55 6.551491 -0.000001 -0.000002 -0.151940 -0.284549 -0.163165
 56 -1.266842 -1.937444 -4.950560 -0.066572 -2.988806 -0.110308
 57 6.551491 -0.000001 -0.000002 -0.151940 -0.284549 -0.163165
 58 0.699371 -1.944208 -5.006849 -0.027189 -3.088217 0.005298
 59 4.226146 -0.003201 0.000000 0.239598 -0.142969 -0.087212
 60 0.000001 5.000001 0.000000 -0.153564 0.000087 2.718702
 61 0.000004 -0.000004 -3.713580 0.365818 2.880119 -0.191589
 62 0.000003 -0.000000 5.000000 3.053196 1.558589 -0.074928
 63 -0.000007 0.000006 3.713580 -0.001619 -3.122277 -0.475127
 64 0.000001 -0.000000 -5.000000 -0.088725 1.558589 3.066336
 65 7.363602 1.646647 0.495663 3.141593 -1.570796 0.000000
 66 -0.000005 0.000007 3.619081 0.008255 -3.110080 -0.985231
 67 16.573919 0.000003 0.000000 0.000000 0.000000 -1.065827
 68 15.128181 0.000001 -0.000000 -0.102296 0.010178 0.114297
 69 5.758665 4.244730 -0.000000 0.000000 -0.000000 1.667687
 70 3.177726 0.000000 0.000000 0.000000 0.000000 3.141593
 71 15.708952 0.000001 0.000000 -0.051525 0.003996 0.061523
 72 0.275148 0.189215 -3.445208 3.130898 0.000409 -1.514604
 73 17.210192 0.000002 0.000000 0.000000 0.000000 -1.893339
 74 0.000001 -0.000000 -4.999999 -0.079430 1.546568 -1.570855
 75 0.000002 -0.000003 -3.619081 0.577895 2.675801 -0.242118
 76 16.573923 -0.000001 -0.000001 0.000000 -0.000000 -1.163030
 77 15.128182 -0.000001 0.000002 0.089479 0.309197 0.659208
 78 5.758665 4.244731 -0.000000 -0.000000 0.000000 1.815142
 79 4.003934 -0.000000 -0.000000 0.000000 0.000000 0.000000
 80 15.708954 -0.000000 0.000002 0.042277 0.226871 0.443133
 81 0.273998 0.191090 3.439763 -3.130907 -0.000437 -1.508107
 82 17.210196 -0.000001 -0.000001 0.000000 -0.000000 -1.937080
 83 0.000001 -0.000001 5.000000 -0.079314 1.595025 -1.570739
time 8
  0 -0.650000 0.000000 33.899605 -0.025849 0.174554 -1.569172
  1 5.685105 0.833237 -32.227173 -0.174512 -0.026131 1.569196
  2 -2.276935 0.000003 -1.238189 -1.570795 -1.570451 0.000000
  3 1.796321 0.711920 -0.000348 0.105828 -0.059681 -0.260092
  4 4.119712 -0.003073 -0.000300 0.091756 -0.042781 0.342408
  5 4.118791 -0.003257 -0.000345 0.105362 -0.001616 0.057189
  6 4.118445 -0.003259 -0.000328 0.100134 -0.001712 -0.048539
  7 4.118416 -0.003147 -0.001606 0.487069 -0.247054 -0.187318
  8 4.443598 0.000000 -0.000000 0.698125 -0.032779 0.253079
  9 9.024063 0.000002 0.000000 0.000000 0.000000 0.000000
 10 0.423738 0.789889 1.484729 1.723290 -1.249337 1.567346
 11 6.384778 -0.000001 -0.000003 -0.829592 0.591364 -0.625514
 12 10.242684 0.000000 0.000000 0.000000 0.000000 -1.232739
 13 11.375561 -0.000001 0.000000 2.667038 0.427088 -0.378546
 14 0.728681 0.023429 -1.008292 2.396606 0.246960 1.180207
 15 2.136496 -0.000001 0.000001 -0.000000 -0.000000 -0.078540
 16 2.313139 0.000000 -0.000001 0.000000 0.000000 0.000000
 17 3.115506 -0.886042 -0.021430 -0.166499 0.000392 0.514872
 18 2.011152 0.000000 -0.000000 0.000000 0.000000 1.322792
 19 2.141377 0.000001 0.000000 0.000000 0.000000 0.000000
 20 1.734173 0.000002 -0.000000 -0.000000 0.000000 0.660693
 21 0.000003 -4.440594 -0.000000 1.570544 -0.062990 -0.195737
 22 5.999999 0.000000 -0.000001 3.030082 0.000000 0.000000
 23 0.000001 -4.440601 0.000000 1.569944 -0.062987 0.004053
 24 11.375561 -0.000000 0.000002 -2.533090 0.342656 -0.046371
 25 -0.000002 -4.440603 -0.000002 1.570144 -0.062988 0.004040
 26 10.510132 0.000000 -0.000000 0.000000 0.000000 -2.187166
 27 0.000001 -1.748402 4.999999 0.000000 0.004007 1.602290
 28 5.500000 0.000000 -0.000000 0.285811 -0.000000 -0.000000
 29 -0.000002 -1.940599 5.000000 -0.044472 0.004003 -0.000180
 30 6.551491 -0.000000 -0.000002 -0.550161 0.415770 -0.385208
 31 0.000000 -1.940598 5.000003 -0.027189 -0.053376 0.005295
 32 6.551491 -0.000000 -0.000002 -0.233950 0.222761 -0.148904
 33 -0.000002 -1.940599 4.999997 -0.066572 -0.152786 -0.110311
 34 -0.423736 -0.782812 -1.484730 -0.674901 1.272632 2.483914
 35 6.384777 0.000000 -0.000004 -0.411332 -0.896145 -0.421897
 36 10.242683 -0.000001 0.000001 -0.000000 0.000000 -1.820604
 37 11.375561 -0.000001 -0.000000 1.972442 0.406855 0.184778
 38 0.728681 0.023431 1.008294 -1.579583 -0.319038 0.212973
 39 2.136497 -0.000000 -0.000001 -0.000000 0.000000 1.282817
 40 2.313140 0.000001 0.000000 0.000000 0.000000 3.141593
 41 3.115506 -0.886042 0.021434 0.708959 0.171755 0.347804
 42 2.011152 -0.000001 -0.000003 0.000000 0.000000 2.082010
 43 2.141381 0.000000 0.000001 0.000000 0.000000 3.141593
 44 1.734173 -0.000001 -0.000002 -0.000000 -0.000000 1.041748
 45 0.136314 -3.738194 2.525892 1.493698 2.759406 -1.474501
 46 5.613160 0.862366 3.157033 1.595152 -0.135386 0.061522
 47 11.389367 -0.000820 0.158781 1.759482 0.226688 0.075857
 48 0.000001 -4.440599 -0.000001 1.570144 -3.078602 0.004040
 49 6.000000 -0.000001 -0.000001 1.759482 -0.000000 0.000000
 50 0.000001 -4.440601 0.000002 1.569944 -3.078603 0.004053
 51 10.510133 -0.000002 0.000002 -0.000000 -0.000000 -2.481098
 52 0.000001 -1.748403 -5.000001 -3.141593 0.004007 -1.539299
 53 5.500000 -0.000001 0.000001 0.150163 -0.000000 -0.000000
 54 0.000000 0.000001 -5.000000 -0.044472 3.137589 -0.000177
 55 6.551491 -0.000001 0.000001 -0.150163 -0.281761 -0.168212
 56 -1.266843 -1.937444 -4.950561 -0.066572 -2.988806 -0.110308
 57 6.551491 -0.000001 0.000001 -0.150163 -0.281761 -0.168212
 58 0.699371 -1.944209 -5.006847 -0.027189 -3.088217 0.005298
 59 4.226145 -0.003201 0.000000 0.239598 -0.142969 -0.087212
 60 -0.000000 5.000001 -0.000000 -0.153564 0.000087 2.718702
 61 0.000004 -0.000004 -3.713580 0.365818 2.880119 -0.191589
 62 0.000003 -0.000000 5.000000 3.053196 1.558589 -0.074928
 63 -0.000007 0.000006 3.713580 -0.001619 -3.122277 -0.475127
 64 0.000001 -0.000000 -5.000000 -0.088725 1.558589 3.066336
 65 7.363602 1.646647 0.495663 3.141593 -1.570796 0.000000
 66 -0.000005 0.000007 3.619081 0.008255 -3.110080 -0.985231
 67 16.573919 0.000003 0.000000 0.000000 0.000000 -1.065827
 68 15.128181 0.000001 -0.000000 -0.102296 0.010178 0.114297
 69 5.758665 4.244730 -0.000000 0.000000 -0.000000 1.667687
 70 3.177726 0.000000 0.000000 0.000000 0.000000 3.141593
 71 15.708952 0.000001 0.000000 -0.051525 0.003996 0.061523
 72 0.275148 0.189215 -3.445208 3.130898 0.000409 -1.514604
 73 17.210192 0.000002 0.000000 0.000000 0.000000 -1.893339
 74 0.000001 -0.000000 -4.999999 -0.079430 1.546568 -1.570855
 75 0.000002 -0.000003 -3.619081 0.577895 2.675801 -0.242118
 76 16.573923 -0.000001 -0.000001 0.000000 -0.000000 -1.163030
 77 15.128182 -0.000001 0.000002 0.089479 0.309197 0.659208
 78 5.758665 4.244731 -0.000000 -0.000000 0.000000 1.815142
 79 4.003934 -0.000000 -0.000000 0.000000 0.000000 0.000000
 80 15.708954 -0.000000 0.000002 0.042277 0.226871 0.443133
 81 0.273998 0.191090 3.439763 -3.130907 -0.000437 -1.508107
 82 17.210196 -0.000001 -0.000001 0.000000 -0.000000 -1.937080
 83 0.000001 -0.000001 5.000000 -0.079314 1.595025 -1.570739
time 9
  0 -0.650000 0.000000 33.899605 -0.025849 0.174554 -1.569172
  1 5.685105 0.833237 -32.227173 -0.174512 -0.026131 1.569196
  2 -2.276935 0.000003 -1.238189 -1.570795 -1.570451 0.000000
  3 1.796321 0.711919 -0.000339 0.102871 -0.057826 -0.259637
  4 4.119715 -0.003073 -0.000291 0.088894 -0.042550 0.342457
  5 4.118791 -0.003257 -0.000335 0.102327 -0.002758 0.057056
  6 4.118440 -0.003259 -0.000318 0.097098 -0.002649 -0.048613
  7 4.118421 -0.003147 -0.001606 0.487069 -0.247054 -0.187318
  8 4.443599 0.000001 0.000000 0.708471 -0.035410 0.250085
  9 9.024062 0.000002 -0.000000 0.000000 0.000000 0.000000
 10 0.423738 0.789889 1.484730 1.723290 -1.249337 1.567346
 11 6.384777 0.000000 -0.000001 -0.826598 0.599874 -0.605910
 12 10.242682 0.000001 0.000000 -0.000000 -0.000000 -1.250018
 13 11.375562 -0.000000 -0.000001 2.667349 0.427691 -0.371766
 14 0.728680 0.023430 -1.008293 2.396606 0.246960 1.180207
 15 2.136496 -0.000000 0.000000 -0.000000 0.000000 -0.078540
 16 2.313142 -0.000000 -0.000001 0.000000 0.000000 0.000000
 17 3.115506 -0.886039 -0.021431 -0.166499 0.000392 0.514872
 18 2.011150 -0.000001 0.000000 0.000000 0.000000 1.322792
 19 2.141378 0.000001 0.000001 0.000000 0.000000 0.000000
 20 1.734171 0.000000 0.000000 -0.000000 -0.000000 0.660693
 21 0.000004 -4.440593 0.000001 1.570544 -0.062990 -0.195737
 22 5.999999 0.000001 -0.000001 3.030320 0.000000 -0.000000
 23 0.000001 -4.440603 0.000001 1.569944 -0.062987 0.004053
 24 11.375562 -0.000002 0.000004 -2.533287 0.341099 -0.042532
 25 -0.000000 -4.440604 -0.000002 1.570144 -0.062988 0.004040
 26 10.510134 0.000002 -0.000001 -0.000000 0.000000 -2.195806
 27 0.000001 -1.748401 5.000000 -0.000000 0.004007 1.602290
 28 5.500002 0.000001 0.000000 0.287094 -0.000000 -0.000000
 29 -0.000004 -1.940598 5.000002 -0.044472 0.004003 -0.000180
 30 6.551492 0.000000 -0.000001 -0.552589 0.424884 -0.371443
 31 0.000001 -1.940599 5.000002 -0.027189 -0.053376 0.005295
 32 6.551492 0.000000 -0.000001 -0.235070 0.226203 -0.141535
 33 0.000000 -1.940599 4.999997 -0.066572 -0.152786 -0.110311
 34 -0.423735 -0.782812 -1.484729 -0.649166 1.276059 2.511465
 35 6.384777 0.000000 -0.000000 -0.401405 -0.891678 -0.447938
 36 10.242682 0.000000 -0.000001 -0.000000 -0.000000 -1.813287
 37 11.375560 0.000001 -0.000000 1.978569 0.400644 0.183252
 38 0.728681 0.023431 1.008291 -1.579583 -0.319038 0.212973
 39 2.136495 0.000002 0.000001 0.000000 0.000000 1.282817
 40 2.313138 -0.000000 0.000000 0.000000 0.000000 3.141593
 41 3.115507 -0.886041 0.021428 0.708959 0.171755 0.347804
 42 2.011151 -0.000000 -0.000000 -0.000000 0.000000 2.082010
 43 2.141381 -0.000000 0.000000 0.000000 0.000000 3.141593
 44 1.734172 -0.000001 -0.000000 -0.000000 -0.000000 1.041748
 45 0.136315 -3.738193 2.525891 1.493698 2.759406 -1.474501
 46 5.613160 0.862366 3.157031 1.595152 -0.135386 0.061522
 47 11.389365 -0.000818 0.158783 1.762841 0.223773 0.075197
 48 -0.000000 -4.440599 0.000003 1.570144 -3.078602 0.004040
 49 5.999999 -0.000000 -0.000001 1.762841 0.000000 -0.000000
 50 0.000001 -4.440601 -0.000001 1.569944 -3.078603 0.004053
 51 10.510132 -0.000000 0.000000 -0.000000 0.000000 -2.477440
 52 -0.000000 -1.748398 -5.000001 3.141593 0.004007 -1.539299
 53 5.499999 0.000001 -0.000001 0.148602 0.000000 -0.000000
 54 -0.000001 -0.000001 -5.000000 -0.044472 3.137589 -0.000177
 55 6.551491 -0.000000 0.000001 -0.148602 -0.279124 -0.172812
 56 -1.266844 -1.937443 -4.950560 -0.066572 -2.988806 -0.110308
 57 6.551492 -0.000000 0.000001 -0.148602 -0.279124 -0.172812
 58 0.699371 -1.944208 -5.006845 -0.027189 -3.088217 0.005298
 59 4.226146 -0.003201 0.000000 0.239598 -0.142969 -0.087212
 60 0.000001 5.000001 -0.000000 -0.153564 0.000087 2.718702
 61 0.000004 -0.000004 -3.713580 0.365818 2.880119 -0.191589
 62 0.000003 -0.000000 5.000000 3.053196 1.558589 -0.074928
 63 -0.000007 0.000006 3.713580 -0.001619 -3.122277 -0.475127
 64 0.000001 -0.000000 -5.000000 -0.088725 1.558589 3.066336
 65 7.363602 1.646647 0.495663 3.141593 -1.570796 0.000000
 66 -0.000005 0.000007 3.619081 0.008255 -3.110080 -0.985231
 67 16.573919 0.000003 0.000000 0.000000 0.000000 -1.065827
 68 15.128181 0.000001 -0.000000 -0.102296 0.010178 0.114297
 69 5.758665 4.244730 -0.000000 0.000000 -0.000000 1.667687
 70 3.177726 0.000000 0.000000 0.000000 0.000000 3.141593
 71 15.708952 0.000001 0.000000 -0.051525 0.003996 0.061523
 72 0.275148 0.189215 -3.445208 3.130898 0.000409 -1.514604
 73 17.210192 0.000002 0.000000 0.000000 0.000000 -1.893339
 74 0.000001 -0.000000 -4.999999 -0.079430 1.546568 -1.570855
 75 0.000002 -0.000003 -3.619081 0.577895 2.675801 -0.242118
 76 16.573923 -0.000001 -0.000001 0.000000 -0.000000 -1.163030
 77 15.128182 -0.000001 0.000002 0.089479 0.309197 0.659208
 78 5.758665 4.244731 -0.000000 -0.000000 0.000000 1.815142
 79 4.003934 -0.000000 -0.000000 0.000000 0.000000 0.000000
 80 15.708954 -0.000000 0.000002 0.042277 0.226871 0.443133
 81 0.273998 0.191090 3.439763 -3.130907 -0.000437 -1.508107
 82 17.210196 -0.000001 -0.000001 0.000000 -0.000000 -1.937080
 83 0.000001 -0.000001 5.000000 -0.079314 1.595025 -1.570739
time 10
  0 -0.650000 0.000000 33.899605 -0.025849 0.174554 -1.569172
  1 5.685105 0.833237 -32.227173 -0.174512 -0.026131 1.569196
  2 -2.276935 0.000003 -1.238189 -1.570795 -1.570451 0.000000
  3 1.796325 0.711917 -0.000330 0.100225 -0.057396 -0.259365
  4 4.119708 -0.003074 -0.000282 0.086325 -0.041971 0.342534
  5 4.118792 -0.003258 -0.000326 0.099604 -0.003165 0.057004
  6 4.118444 -0.003260 -0.000309 0.094373 -0.003118 -0.048639
  7 4.118418 -0.003147 -0.001606 0.487069 -0.247054 -0.187318
  8 4.443600 -0.000001 -0.000000 0.718095 -0.038141 0.247121
  9 9.024060 0.000001 0.000000 0.000000 0.000000 0.000000
 10 0.423735 0.789889 1.484730 1.723290 -1.249337 1.567346
 11 6.384776 0.000000 0.000004 -0.824587 0.607102 -0.588160
 12 10.242681 -0.000001 0.000001 -0.000000 0.000000 -1.264389
 13 11.375561 0.000002 -0.000001 2.666729 0.428171 -0.367236
 14 0.728681 0.023431 -1.008292 2.396606 0.246960 1.180207
 15 2.136498 -0.000000 0.000000 -0.000000 -0.000000 -0.078540
 16 2.313138 0.000000 0.000000 0.000000 0.000000 0.000000
 17 3.115506 -0.886040 -0.021431 -0.166499 0.000392 0.514872
 18 2.011150 -0.000001 -0.000000 -0.000000 0.000000 1.322792
 19 2.141381 0.000001 -0.000001 0.000000 0.000000 0.000000
 20 1.734170 -0.000000 0.000000 -0.000000 -0.000000 0.660693
 21 0.000005 -4.440594 -0.000000 1.570544 -0.062990 -0.195737
 22 6.000000 -0.000001 0.000001 3.029624 0.000000 0.000000
 23 0.000001 -4.440602 0.000001 1.569944 -0.062987 0.004053
 24 11.375562 -0.000000 0.000003 -2.533784 0.340157 -0.039817
 25 -0.000001 -4.440604 -0.000001 1.570144 -0.062988 0.004040
 26 10.510129 -0.000001 0.000000 -0.000000 0.000000 -2.202991
 27 0.000001 -1.748402 5.000000 0.000000 0.004007 1.602290
 28 5.500000 -0.000001 0.000000 0.288480 -0.000000 -0.000000
 29 -0.000002 -1.940598 5.000000 -0.044472 0.004003 -0.000180
 30 6.551491 -0.000000 0.000000 -0.555189 0.433267 -0.358652
 31 0.000001 -1.940599 5.000000 -0.027189 -0.053376 0.005295
 32 6.551491 -0.000000 0.000000 -0.236269 0.229342 -0.134658
 33 0.000001 -1.940599 4.999997 -0.066572 -0.152786 -0.110311
 34 -0.423733 -0.782813 -1.484730 -0.637944 1.277465 2.523459
 35 6.384778 -0.000000 -0.000002 -0.394179 -0.888705 -0.466660
 36 10.242682 -0.000001 -0.000000 -0.000000 0.000000 -1.807805
 37 11.375561 -0.000002 -0.000000 1.982786 0.395983 0.182302
 38 0.728681 0.023431 1.008296 -1.579583 -0.319038 0.212973
 39 2.136496 0.000001 -0.000000 -0.000000 0.000000 1.282817
 40 2.313141 0.000001 -0.000000 0.000000 0.000000 3.141593
 41 3.115506 -0.886041 0.021434 0.708959 0.171755 0.347804
 42 2.011150 -0.000001 0.000002 0.000000 0.000000 2.082010
 43 2.141379 0.000000 0.000000 0.000000 0.000000 3.141593
 44 1.734172 -0.000001 0.000003 -0.000000 -0.000000 1.041748
 45 0.136315 -3.738193 2.525890 1.493698 2.759406 -1.474501
 46 5.613160 0.862367 3.157033 1.595152 -0.135386 0.061522
 47 11.389366 -0.000822 0.158781 1.765163 0.221572 0.074836
 48 0.000001 -4.440600 0.000003 1.570144 -3.078602 0.004040
 49 6.000000 0.000001 0.000000 1.765163 -0.000000 0.000000
 50 0.000001 -4.440601 0.000003 1.569944 -3.078603 0.004053
 51 10.510130 -0.000000 -0.000000 0.000000 0.000000 -2.474699
 52 0.000000 -1.748403 -5.000002 3.141593 0.004007 -1.539299
 53 5.500000 -0.000001 -0.000001 0.147501 0.000000 0.000000
 54 -0.000001 0.000001 -5.000000 -0.044472 3.137590 -0.000177
 55 6.551491 -0.000000 -0.000001 -0.147501 -0.277281 -0.176070
 56 -1.266843 -1.937443 -4.950559 -0.066572 -2.988806 -0.110308
 57 6.551491 -0.000000 -0.000001 -0.147501 -0.277281 -0.176070
 58 0.699370 -1.944208 -5.006845 -0.027189 -3.088217 0.005298
 59 4.226146 -0.003201 -0.000000 0.239598 -0.142969 -0.087212
 60 -0.000002 5.000001 0.000000 -0.153564 0.000087 2.718702
 61 0.000004 -0.000004 -3.713580 0.365818 2.880119 -0.191589
 62 0.000003 -0.000000 5.000000 3.053196 1.558589 -0.074928
 63 -0.000007 0.000006 3.713580 -0.001619 -3.122277 -0.475127
 64 0.000001 -0.000000 -5.000000 -0.088725 1.558589 3.066336
 65 7.363602 1.646647 0.495663 3.141593 -1.570796 0.000000
 66 -0.000005 0.000007 3.619081 0.008255 -3.110080 -0.985231
 67 16.573919 0.000003 0.000000 0.000000 0.000000 -1.065827
 68 15.128181 0.000001 -0.000000 -0.102296 0.010178 0.114297
 69 5.758665 4.244730 -0.000000 0.000000 -0.000000 1.667687
 70 3.177726 0.000000 0.000000 0.000000 0.000000 3.141593
 71 15.708952 0.000001 0.000000 -0.051525 0.003996 0.061523
 72 0.275148 0.189215 -3.445208 3.130898 0.000409 -1.514604
 73 17.210192 0.000002 0.000000 0.000000 0.000000 -1.893339
 74 0.000001 -0.000000 -4.999999 -0.079430 1.546568 -1.570855
 75 0.000002 -0.000003 -3.619081 0.577895 2.675801 -0.242118
 76 16.573923 -0.000001 -0.000001 0.000000 -0.000000 -1.163030
 77 15.128182 -0.000001 0.000002 0.089479 0.309197 0.659208
 78 5.758665 4.244731 -0.000000 -0.000000 0.000000 1.815142
 79 4.003934 -0.000000 -0.000000 0.000000 0.000000 0.000000
 80 15.708954 -0.000000 0.000002 0.042277 0.226871 0.443133
 81 0.273998 0.191090 3.439763 -3.130907 -0.000437 -1.508107
 82 17.210196 -0.000001 -0.000001 0.000000 -0.000000 -1.937080
 83 0.000001 -0.000001 5.000000 -0.079314 1.595025 -1.570739
end
