version 1
nodes
  0 "Bip01"  -1
  1 "Bip01 Footsteps"   0
  2 "Bip01 Pelvis"   0
  3 "Bip01 Spine"   2
  4 "Bip01 Spine1"   3
  5 "Bip01 Spine2"   4
  6 "Bip01 Spine3"   5
  7 "Bip01 Neck"   6
  8 "Bip01 Head"   7
  9 "Dummy21"   8
 10 "Bip01 L Clavicle"   7
 11 "Bip01 L UpperArm"  10
 12 "Bip01 L Forearm"  11
 13 "Bip01 L Hand"  12
 14 "Bip01 L Finger0"  13
 15 "Bip01 L Finger01"  14
 16 "Dummy06"  15
 17 "Bip01 L Finger1"  13
 18 "Bip01 L Finger11"  17
 19 "Dummy03"  18
 20 "-- L knuckle"  17
 21 "-- L knuckle_end"  20
 22 "-- L Forearm twist"  12
 23 "-- L Forearm twist_end"  22
 24 "-- L wrist"  12
 25 "-- L wrist_end"  24
 26 "-- L Elbow"  11
 27 "--L Elbow_end"  26
 28 "-- L bicep twist"  11
 29 "-- L bicep twist_end"  28
 30 "-- L shoulder outside"  10
 31 "-- L shoulder outside_end"  30
 32 "-- L Shoulder inside"  10
 33 "-- L Shoulder inside_end"  32
 34 "Bip01 R Clavicle"   7
 35 "Bip01 R UpperArm"  34
 36 "Bip01 R Forearm"  35
 37 "Bip01 R Hand"  36
 38 "Bip01 R Finger0"  37
 39 "Bip01 R Finger01"  38
 40 "Dummy01"  39
 41 "Bip01 R Finger1"  37
 42 "Bip01 R Finger11"  41
 43 "Dummy02"  42
 44 "-- R knuckle"  41
 45 "Point06"  44
 46 "Line01"  37
 47 "-- R wrist"  36
 48 "-- R wrist_end"  47
 49 "-- R forearm twist"  36
 50 "-- R forearm twist_end"  49
 51 "-- R Elbow"  35
 52 "--R Elbow_end"  51
 53 "-- R bicep twist"  35
 54 "-- R bicep twist_end"  53
 55 "-- R Shoulder inside"  34
 56 "-- R Shoulder inside_end"  55
 57 "-- R shoulder outside"  34
 58 "-- R shoulder outside_end"  57
 59 "-- Neck smooth"   6
 60 "-- neck smooth end"  59
 61 "-- R Butt"   2
 62 "--R Butt_end"  61
 63 "-- L butt"   2
 64 "--L butt_end"  63
 65 "GIGN01"   2
 66 "Bip01 L Thigh"   2
 67 "Bip01 L Calf"  66
 68 "Bip01 L Foot"  67
 69 "Bip01 L Toe0"  68
 70 "Dummy16"  69
 71 "-- L ankle"  67
 72 "-- L ankleend"  71
 73 "-- L Knee"  66
 74 "--L Knee_end"  73
 75 "Bip01 R Thigh"   2
 76 "Bip01 R Calf"  75
 77 "Bip01 R Foot"  76
 78 "Bip01 R Toe0"  77
 79 "Dummy11"  78
 80 "-- R Ankle"  76
 81 "-- R ankleend"  80
 82 "-- R Knee"  75
 83 "--R Knee_end"  82
end
skeleton
time 0
  0 -0.650000 0.000000 33.899605 -0.025849 0.174554 -1.569172
  1 5.685105 0.833237 -32.227173 -0.174512 -0.026131 1.569196
  2 -2.276935 0.000003 -1.238189 -1.570795 -1.570451 0.000000
  3 1.796322 0.711907 -0.000207 0.063210 0.156558 -0.242705
  4 4.119714 -0.003083 -0.000161 0.049468 -0.096040 0.340464
  5 4.118790 -0.003268 -0.000198 0.060679 -0.112994 0.050195
  6 4.118442 -0.003270 -0.000181 0.055231 -0.072286 -0.052247
  7 4.119320 -0.003270 -0.001146 0.338234 0.216927 0.291945
  8 4.443596 0.000002 -0.000000 0.550079 -0.930838 0.402148
  9 9.024061 -0.000002 0.000000 0.000000 0.000000 0.000000
 10 -0.372936 0.565015 1.596241 0.266030 -0.987008 2.658958
 11 6.384775 0.000001 0.000001 -0.935173 1.079038 -0.819217
 12 10.242682 0.000000 0.000000 0.000000 0.000000 -0.788760
 13 11.375562 -0.000000 -0.000001 2.607907 0.364333 -0.678335
 14 0.728680 0.023432 -1.008292 2.396606 0.246960 1.180207
 15 2.136498 0.000000 -0.000002 -0.000000 0.000000 -0.078540
 16 2.313139 -0.000000 -0.000001 0.000000 0.000000 0.000000
 17 3.115507 -0.886039 -0.021431 -0.166499 0.000392 0.514872
 18 2.011151 0.000000 -0.000000 -0.000000 0.000000 1.322791
 19 2.141379 0.000001 0.000000 0.000000 0.000000 0.000000
 20 1.734172 0.000001 -0.000000 -0.000000 0.000000 0.660693
 21 0.000008 -4.440594 0.000001 1.570544 -0.062990 -0.195737
 22 5.999999 -0.000001 -0.000001 2.962854 -0.000000 -0.000000
 23 0.000002 -4.440601 -0.000000 1.569944 -0.062987 0.004053
 24 11.375561 -0.000001 0.000002 -2.554219 0.397975 -0.215208
 25 -0.000002 -4.440602 -0.000001 1.570144 -0.062988 0.004040
 26 10.510131 0.000000 -0.000001 -0.000000 0.000000 -1.965176
 27 0.000001 -1.748403 5.000000 0.000000 0.004007 1.602290
 28 5.500002 0.000000 0.000000 0.213262 0.000000 -0.000000
 29 -0.000004 -1.940598 5.000001 -0.044472 0.004003 -0.000180
 30 6.551490 0.000000 -0.000000 -0.461961 0.718064 -0.284000
 31 -0.000001 -1.940599 5.000000 -0.027189 -0.053376 0.005295
 32 6.551490 0.000000 -0.000000 -0.171278 0.346309 -0.078728
 33 -0.000001 -1.940599 4.999998 -0.066572 -0.152786 -0.110311
 34 0.372936 -0.557936 -1.596241 2.816514 1.185288 -0.554046
 35 6.384775 -0.000001 0.000003 -0.581719 -0.641457 -0.712750
 36 10.242682 0.000000 -0.000001 0.000000 0.000000 -1.913913
 37 11.375560 0.000001 -0.000000 2.235716 0.025723 0.566777
 38 0.728681 0.023431 1.008292 -1.579583 -0.319038 0.212973
 39 2.136495 -0.000001 -0.000000 -0.000000 -0.000000 1.282817
 40 2.313141 -0.000001 0.000000 0.000000 0.000000 3.141593
 41 3.115505 -0.886042 0.021432 0.708959 0.171755 0.347804
 42 2.011150 -0.000000 -0.000001 -0.000000 0.000000 2.082010
 43 2.141378 0.000001 0.000000 0.000000 0.000000 3.141593
 44 1.734172 -0.000002 -0.000001 -0.000000 -0.000000 1.041748
 45 0.136315 -3.738195 2.525891 1.493698 2.759406 -1.474501
 46 5.613161 0.862366 3.157031 1.595152 -0.135386 0.061522
 47 11.389365 -0.000820 0.158781 1.901822 0.064862 0.298095
 48 -0.000000 -4.440601 0.000001 1.570144 -3.078602 0.004040
 49 5.999999 -0.000001 -0.000002 1.901822 -0.000000 -0.000000
 50 0.000002 -4.440601 -0.000001 1.569944 -3.078603 0.004053
 51 10.510134 -0.000000 -0.000001 0.000000 0.000000 -2.527753
 52 0.000000 -1.748399 -5.000001 3.141593 0.004007 -1.539299
 53 5.500000 0.000002 -0.000002 0.208659 -0.000000 -0.000000
 54 -0.000001 0.000002 -5.000000 -0.044472 3.137589 -0.000177
 55 6.551490 0.000000 0.000000 -0.208659 -0.142851 -0.244690
 56 -1.266843 -1.937444 -4.950560 -0.066572 -2.988806 -0.110308
 57 6.551490 -0.000000 0.000000 -0.208659 -0.142851 -0.244690
 58 0.699371 -1.944209 -5.006848 -0.027189 -3.088217 0.005298
 59 4.226145 -0.003202 -0.000000 0.163390 0.125787 0.151635
 60 0.000001 5.000001 -0.000001 -0.153564 0.000087 2.718702
 61 0.000004 -0.000004 -3.713580 0.365818 2.880119 -0.191589
 62 0.000003 -0.000000 5.000000 3.053196 1.558589 -0.074928
 63 -0.000007 0.000006 3.713580 -0.001619 -3.122277 -0.475127
 64 0.000001 -0.000000 -5.000000 -0.088725 1.558589 3.066336
 65 7.363602 1.646647 0.495663 3.141593 -1.570796 0.000000
 66 -0.000005 0.000007 3.619081 0.008255 -3.110080 -0.985231
 67 16.573919 0.000003 0.000000 0.000000 0.000000 -1.065827
 68 15.128181 0.000001 -0.000000 -0.102296 0.010178 0.114297
 69 5.758665 4.244730 -0.000000 0.000000 -0.000000 1.667687
 70 3.177726 0.000000 0.000000 0.000000 0.000000 3.141593
 71 15.708952 0.000001 0.000000 -0.051525 0.003996 0.061523
 72 0.275148 0.189215 -3.445208 3.130898 0.000409 -1.514604
 73 17.210192 0.000002 0.000000 0.000000 0.000000 -1.893339
 74 0.000001 -0.000000 -4.999999 -0.079430 1.546568 -1.570855
 75 0.000002 -0.000003 -3.619081 0.577895 2.675801 -0.242118
 76 16.573923 -0.000001 -0.000001 0.000000 -0.000000 -1.163030
 77 15.128182 -0.000001 0.000002 0.089479 0.309197 0.659208
 78 5.758665 4.244731 -0.000000 -0.000000 0.000000 1.815142
 79 4.003934 -0.000000 -0.000000 0.000000 0.000000 0.000000
 80 15.708954 -0.000000 0.000002 0.042277 0.226871 0.443133
 81 0.273998 0.191090 3.439763 -3.130907 -0.000437 -1.508107
 82 17.210196 -0.000001 -0.000001 0.000000 -0.000000 -1.937080
 83 0.000001 -0.000001 5.000000 -0.079314 1.595025 -1.570739
time 1
  0 -0.650000 0.000000 33.899605 -0.025849 0.174554 -1.569172
  1 5.685105 0.833237 -32.227173 -0.174512 -0.026131 1.569196
  2 -2.276935 0.000003 -1.238189 -1.570795 -1.570451 0.000000
  3 1.796363 0.711898 -0.000225 0.068769 0.148844 -0.228982
  4 4.119726 -0.003078 -0.000178 0.054602 -0.095631 0.343458
  5 4.118801 -0.003266 -0.000216 0.066172 -0.109440 0.053200
  6 4.118454 -0.003270 -0.000199 0.060743 -0.069773 -0.049140
  7 4.119319 -0.003217 -0.001293 0.379239 0.162510 0.282243
  8 4.443599 0.000001 -0.000001 0.492231 -0.861827 0.412355
  9 9.024061 0.000000 0.000001 0.000000 0.000000 0.000000
 10 -0.280347 0.636560 1.588398 0.385524 -1.011734 2.548218
 11 6.384777 -0.000001 -0.000003 -0.994637 1.020439 -0.899169
 12 10.242682 0.000000 -0.000000 0.000000 0.000000 -0.690615
 13 11.375561 -0.000000 -0.000002 2.597615 0.372514 -0.723614
 14 0.728680 0.023433 -1.008291 2.396606 0.246960 1.180207
 15 2.136496 -0.000001 -0.000000 -0.000000 -0.000000 -0.078540
 16 2.313142 0.000000 -0.000001 0.000000 0.000000 0.000000
 17 3.115507 -0.886040 -0.021431 -0.166499 0.000392 0.514872
 18 2.011151 -0.000001 0.000001 0.000000 -0.000000 1.322792
 19 2.141379 -0.000001 -0.000000 0.000000 0.000000 0.000000
 20 1.734172 -0.000001 0.000001 0.000000 -0.000000 0.660693
 21 0.000004 -4.440594 0.000002 1.570544 -0.062990 -0.195737
 22 6.000000 0.000001 -0.000001 2.954169 0.000000 0.000000
 23 0.000001 -4.440600 -0.000000 1.569944 -0.062987 0.004053
 24 11.375562 0.000002 0.000001 -2.553732 0.413015 -0.232256
 25 -0.000001 -4.440603 0.000001 1.570144 -0.062988 0.004040
 26 10.510127 0.000000 -0.000001 0.000000 -0.000000 -1.916104
 27 -0.000000 -1.748400 5.000000 0.000000 0.004007 1.602291
 28 5.499997 -0.000000 -0.000000 0.227097 -0.000000 -0.000000
 29 -0.000000 -1.940598 5.000000 -0.044472 0.004003 -0.000180
 30 6.551491 -0.000001 -0.000002 -0.494151 0.683827 -0.349809
 31 0.000001 -1.940599 5.000001 -0.027189 -0.053376 0.005295
 32 6.551491 -0.000001 -0.000002 -0.181848 0.335364 -0.107356
 33 0.000001 -1.940599 4.999995 -0.066572 -0.152786 -0.110311
 34 0.280348 -0.629480 -1.588400 2.858337 1.288918 -0.502521
 35 6.384777 0.000001 -0.000003 -0.642696 -0.612441 -0.574690
 36 10.242681 0.000000 -0.000001 0.000000 0.000000 -1.961323
 37 11.375562 0.000001 0.000002 2.229042 0.059425 0.624347
 38 0.728679 0.023432 1.008293 -1.579583 -0.319038 0.212973
 39 2.136496 0.000001 -0.000000 -0.000000 -0.000000 1.282817
 40 2.313139 0.000000 0.000001 0.000000 0.000000 3.141593
 41 3.115507 -0.886041 0.021430 0.708959 0.171755 0.347804
 42 2.011151 -0.000000 -0.000000 -0.000000 0.000000 2.082010
 43 2.141380 0.000000 -0.000000 0.000000 0.000000 3.141593
 44 1.734172 -0.000001 -0.000000 0.000000 0.000000 1.041748
 45 0.136314 -3.738192 2.525891 1.493698 2.759406 -1.474501
 46 5.613159 0.862367 3.157031 1.595152 -0.135386 0.061522
 47 11.389368 -0.000820 0.158782 1.895661 0.085709 0.321550
 48 0.000000 -4.440599 0.000000 1.570144 -3.078602 0.004040
 49 6.000000 -0.000002 0.000000 1.895661 -0.000000 0.000000
 50 0.000002 -4.440602 -0.000000 1.569944 -3.078603 0.004053
 51 10.510131 0.000001 -0.000000 0.000000 -0.000000 -2.551458
 52 -0.000001 -1.748397 -5.000001 -3.141593 0.004007 -1.539299
 53 5.499999 0.000001 -0.000001 0.210931 -0.000000 0.000000
 54 0.000000 0.000002 -5.000001 -0.044472 3.137590 -0.000177
 55 6.551491 0.000001 -0.000001 -0.210931 -0.150780 -0.222199
 56 -1.266843 -1.937443 -4.950560 -0.066572 -2.988806 -0.110308
 57 6.551491 0.000001 -0.000001 -0.210931 -0.150780 -0.222199
 58 0.699370 -1.944207 -5.006848 -0.027189 -3.088217 0.005298
 59 4.226145 -0.003201 -0.000000 0.186264 0.099055 0.148860
 60 0.000002 4.999999 0.000000 -0.153564 0.000087 2.718702
 61 0.000004 -0.000004 -3.713580 0.365818 2.880119 -0.191589
 62 0.000003 -0.000000 5.000000 3.053196 1.558589 -0.074928
 63 -0.000007 0.000006 3.713580 -0.001619 -3.122277 -0.475127
 64 0.000001 -0.000000 -5.000000 -0.088725 1.558589 3.066336
 65 7.363602 1.646647 0.495663 3.141593 -1.570796 0.000000
 66 -0.000005 0.000007 3.619081 0.008255 -3.110080 -0.985231
 67 16.573919 0.000003 0.000000 0.000000 0.000000 -1.065827
 68 15.128181 0.000001 -0.000000 -0.102296 0.010178 0.114297
 69 5.758665 4.244730 -0.000000 0.000000 -0.000000 1.667687
 70 3.177726 0.000000 0.000000 0.000000 0.000000 3.141593
 71 15.708952 0.000001 0.000000 -0.051525 0.003996 0.061523
 72 0.275148 0.189215 -3.445208 3.130898 0.000409 -1.514604
 73 17.210192 0.000002 0.000000 0.000000 0.000000 -1.893339
 74 0.000001 -0.000000 -4.999999 -0.079430 1.546568 -1.570855
 75 0.000002 -0.000003 -3.619081 0.577895 2.675801 -0.242118
 76 16.573923 -0.000001 -0.000001 0.000000 -0.000000 -1.163030
 77 15.128182 -0.000001 0.000002 0.089479 0.309197 0.659208
 78 5.758665 4.244731 -0.000000 -0.000000 0.000000 1.815142
 79 4.003934 -0.000000 -0.000000 0.000000 0.000000 0.000000
 80 15.708954 -0.000000 0.000002 0.042277 0.226871 0.443133
 81 0.273998 0.191090 3.439763 -3.130907 -0.000437 -1.508107
 82 17.210196 -0.000001 -0.000001 0.000000 -0.000000 -1.937080
 83 0.000001 -0.000001 5.000000 -0.079314 1.595025 -1.570739
time 2
  0 -0.650000 0.000000 33.899605 -0.025849 0.174554 -1.569172
  1 5.685105 0.833237 -32.227173 -0.174512 -0.026131 1.569196
  2 -2.276935 0.000003 -1.238189 -1.570795 -1.570451 0.000000
  3 1.796407 0.711889 -0.000243 0.074214 0.141056 -0.215318
  4 4.119732 -0.003073 -0.000195 0.059736 -0.095237 0.346453
  5 4.118814 -0.003265 -0.000234 0.071673 -0.105901 0.056224
  6 4.118468 -0.003270 -0.000217 0.066263 -0.067277 -0.046019
  7 4.119312 -0.003154 -0.001436 0.420471 0.108535 0.270370
  8 4.443596 0.000001 -0.000000 0.437330 -0.793028 0.419015
  9 9.024062 0.000000 0.000001 0.000000 0.000000 0.000000
 10 -0.187693 0.706652 1.572489 0.513683 -1.028869 2.428768
 11 6.384776 0.000000 -0.000000 -1.049090 0.952547 -0.975897
 12 10.242682 -0.000000 -0.000000 0.000000 -0.000000 -0.575323
 13 11.375563 0.000001 -0.000001 2.587877 0.380477 -0.777033
 14 0.728681 0.023429 -1.008292 2.396606 0.246960 1.180207
 15 2.136496 0.000000 0.000001 -0.000000 -0.000000 -0.078540
 16 2.313140 0.000001 -0.000001 0.000000 0.000000 0.000000
 17 3.115506 -0.886042 -0.021431 -0.166499 0.000392 0.514872
 18 2.011152 -0.000001 0.000000 -0.000000 -0.000000 1.322792
 19 2.141380 0.000001 0.000000 0.000000 0.000000 0.000000
 20 1.734174 -0.000000 0.000001 -0.000000 -0.000000 0.660693
 21 0.000006 -4.440594 0.000001 1.570544 -0.062990 -0.195737
 22 6.000000 0.000001 -0.000000 2.946087 0.000000 0.000000
 23 0.000002 -4.440601 -0.000000 1.569944 -0.062987 0.004053
 24 11.375563 0.000001 0.000003 -2.552218 0.429680 -0.252911
 25 -0.000001 -4.440602 -0.000000 1.570144 -0.062988 0.004040
 26 10.510130 -0.000000 -0.000001 -0.000000 0.000000 -1.858458
 27 -0.000001 -1.748400 4.999999 0.000000 0.004007 1.602291
 28 5.500001 0.000000 -0.000000 0.241348 0.000000 -0.000000
 29 -0.000001 -1.940598 5.000000 -0.044472 0.004003 -0.000180
 30 6.551491 0.000001 0.000001 -0.525091 0.645533 -0.415659
 31 0.000002 -1.940598 5.000001 -0.027189 -0.053376 0.005295
 32 6.551491 0.000001 0.000001 -0.192811 0.322771 -0.136971
 33 0.000001 -1.940599 4.999995 -0.066572 -0.152786 -0.110311
 34 0.187691 -0.699576 -1.572489 2.953274 1.391832 -0.400130
 35 6.384776 -0.000000 -0.000001 -0.693593 -0.571854 -0.438208
 36 10.242682 -0.000000 0.000001 -0.000000 0.000000 -2.009610
 37 11.375560 -0.000002 -0.000000 2.222445 0.092785 0.675459
 38 0.728682 0.023431 1.008291 -1.579583 -0.319038 0.212973
 39 2.136498 0.000002 0.000000 -0.000000 0.000000 1.282817
 40 2.313138 -0.000000 0.000000 0.000000 0.000000 3.141593
 41 3.115507 -0.886041 0.021430 0.708959 0.171755 0.347804
 42 2.011151 -0.000000 -0.000001 -0.000000 0.000000 2.082010
 43 2.141378 -0.000002 -0.000002 0.000000 0.000000 3.141593
 44 1.734172 -0.000002 -0.000001 -0.000000 0.000000 1.041748
 45 0.136314 -3.738191 2.525890 1.493698 2.759406 -1.474501
 46 5.613161 0.862367 3.157030 1.595152 -0.135386 0.061522
 47 11.389368 -0.000818 0.158783 1.888886 0.105358 0.341623
 48 0.000001 -4.440599 -0.000001 1.570144 -3.078602 0.004040
 49 6.000000 0.000001 0.000001 1.888887 -0.000000 0.000000
 50 0.000001 -4.440601 0.000001 1.569944 -3.078603 0.004053
 51 10.510133 0.000001 0.000000 -0.000000 -0.000000 -2.575601
 52 -0.000001 -1.748398 -5.000002 3.141593 0.004007 -1.539299
 53 5.500001 -0.000000 0.000000 0.213606 0.000000 0.000000
 54 -0.000001 0.000001 -5.000001 -0.044472 3.137589 -0.000177
 55 6.551491 -0.000002 0.000001 -0.213606 -0.159590 -0.197256
 56 -1.266843 -1.937443 -4.950558 -0.066572 -2.988806 -0.110308
 57 6.551491 -0.000001 0.000001 -0.213606 -0.159590 -0.197256
 58 0.699372 -1.944209 -5.006846 -0.027189 -3.088217 0.005298
 59 4.226144 -0.003201 0.000000 0.208902 0.072065 0.145234
 60 0.000001 5.000000 -0.000000 -0.153564 0.000087 2.718702
 61 0.000004 -0.000004 -3.713580 0.365818 2.880119 -0.191589
 62 0.000003 -0.000000 5.000000 3.053196 1.558589 -0.074928
 63 -0.000007 0.000006 3.713580 -0.001619 -3.122277 -0.475127
 64 0.000001 -0.000000 -5.000000 -0.088725 1.558589 3.066336
 65 7.363602 1.646647 0.495663 3.141593 -1.570796 0.000000
 66 -0.000005 0.000007 3.619081 0.008255 -3.110080 -0.985231
 67 16.573919 0.000003 0.000000 0.000000 0.000000 -1.065827
 68 15.128181 0.000001 -0.000000 -0.102296 0.010178 0.114297
 69 5.758665 4.244730 -0.000000 0.000000 -0.000000 1.667687
 70 3.177726 0.000000 0.000000 0.000000 0.000000 3.141593
 71 15.708952 0.000001 0.000000 -0.051525 0.003996 0.061523
 72 0.275148 0.189215 -3.445208 3.130898 0.000409 -1.514604
 73 17.210192 0.000002 0.000000 0.000000 0.000000 -1.893339
 74 0.000001 -0.000000 -4.999999 -0.079430 1.546568 -1.570855
 75 0.000002 -0.000003 -3.619081 0.577895 2.675801 -0.242118
 76 16.573923 -0.000001 -0.000001 0.000000 -0.000000 -1.163030
 77 15.128182 -0.000001 0.000002 0.089479 0.309197 0.659208
 78 5.758665 4.244731 -0.000000 -0.000000 0.000000 1.815142
 79 4.003934 -0.000000 -0.000000 0.000000 0.000000 0.000000
 80 15.708954 -0.000000 0.000002 0.042277 0.226871 0.443133
 81 0.273998 0.191090 3.439763 -3.130907 -0.000437 -1.508107
 82 17.210196 -0.000001 -0.000001 0.000000 -0.000000 -1.937080
 83 0.000001 -0.000001 5.000000 -0.079314 1.595025 -1.570739
time 3
  0 -0.650000 0.000000 33.899605 -0.025849 0.174554 -1.569172
  1 5.685105 0.833237 -32.227173 -0.174512 -0.026131 1.569196
  2 -2.276935 0.000003 -1.238189 -1.570795 -1.570451 0.000000
  3 1.796433 0.711884 -0.000254 0.077664 0.137183 -0.207106
  4 4.119740 -0.003070 -0.000206 0.063036 -0.095321 0.348202
  5 4.118817 -0.003263 -0.000245 0.075211 -0.104191 0.057980
  6 4.118475 -0.003269 -0.000228 0.069809 -0.066012 -0.044185
  7 4.119326 -0.003088 -0.001576 0.462163 0.055096 0.256324
  8 4.443599 0.000002 -0.000000 0.395423 -0.724007 0.424343
  9 9.024062 0.000000 0.000001 0.000000 0.000000 0.000000
 10 -0.095420 0.774959 1.548589 0.647734 -1.037680 2.303403
 11 6.384777 -0.000001 0.000001 -1.078255 0.906945 -1.020550
 12 10.242685 0.000002 -0.000001 -0.000000 0.000000 -0.498625
 13 11.375561 -0.000001 -0.000000 2.583613 0.385130 -0.812033
 14 0.728680 0.023433 -1.008292 2.396606 0.246960 1.180207
 15 2.136496 -0.000001 0.000001 -0.000000 0.000000 -0.078540
 16 2.313140 0.000000 -0.000000 0.000000 0.000000 0.000000
 17 3.115506 -0.886039 -0.021432 -0.166499 0.000392 0.514872
 18 2.011152 -0.000000 0.000002 0.000000 0.000000 1.322792
 19 2.141378 -0.000001 -0.000001 0.000000 0.000000 0.000000
 20 1.734173 0.000000 0.000000 0.000000 -0.000000 0.660693
 21 0.000007 -4.440595 0.000000 1.570544 -0.062990 -0.195737
 22 6.000000 0.000000 -0.000000 2.942817 0.000000 0.000000
 23 0.000001 -4.440601 -0.000000 1.569944 -0.062987 0.004053
 24 11.375562 0.000000 0.000002 -2.550282 0.440053 -0.266686
 25 -0.000001 -4.440603 -0.000001 1.570144 -0.062988 0.004040
 26 10.510129 0.000000 0.000000 -0.000000 0.000000 -1.820109
 27 0.000000 -1.748402 4.999999 -0.000000 0.004007 1.602290
 28 5.500000 0.000001 -0.000000 0.249532 -0.000000 0.000000
 29 -0.000000 -1.940598 5.000000 -0.044472 0.004003 -0.000180
 30 6.551491 -0.000000 0.000001 -0.541957 0.620628 -0.455106
 31 -0.000001 -1.940599 5.000001 -0.027189 -0.053376 0.005295
 32 6.551491 -0.000000 0.000001 -0.199118 0.314396 -0.155235
 33 0.000001 -1.940600 4.999996 -0.066572 -0.152786 -0.110311
 34 0.095420 -0.767878 -1.548590 2.875541 1.465673 -0.477221
 35 6.384777 -0.000000 0.000002 -0.719837 -0.542443 -0.355277
 36 10.242683 0.000001 0.000000 0.000000 -0.000000 -2.039641
 37 11.375561 0.000001 0.000001 2.218258 0.114214 0.700763
 38 0.728680 0.023431 1.008291 -1.579583 -0.319038 0.212973
 39 2.136497 0.000003 -0.000000 -0.000000 -0.000000 1.282817
 40 2.313138 0.000000 0.000001 0.000000 0.000000 3.141593
 41 3.115505 -0.886041 0.021432 0.708959 0.171755 0.347804
 42 2.011153 -0.000001 -0.000001 -0.000000 0.000000 2.082010
 43 2.141382 0.000001 -0.000001 0.000000 0.000000 3.141593
 44 1.734172 -0.000001 -0.000000 0.000000 0.000000 1.041748
 45 0.136316 -3.738193 2.525891 1.493698 2.759406 -1.474501
 46 5.613161 0.862367 3.157030 1.595152 -0.135386 0.061522
 47 11.389367 -0.000818 0.158783 1.884311 0.117242 0.350969
 48 0.000001 -4.440599 -0.000001 1.570144 -3.078602 0.004040
 49 5.999999 0.000000 0.000000 1.884311 0.000000 -0.000000
 50 0.000001 -4.440601 0.000001 1.569944 -3.078603 0.004053
 51 10.510131 0.000003 -0.000000 0.000000 0.000000 -2.590616
 52 0.000000 -1.748402 -5.000001 3.141593 0.004007 -1.539299
 53 5.500000 0.000002 -0.000000 0.216071 -0.000000 0.000000
 54 -0.000001 -0.000002 -5.000001 -0.044472 3.137589 -0.000177
 55 6.551490 0.000000 -0.000001 -0.216071 -0.165575 -0.179704
 56 -1.266843 -1.937443 -4.950560 -0.066572 -2.988806 -0.110308
 57 6.551491 0.000000 -0.000001 -0.216071 -0.165575 -0.179704
 58 0.699371 -1.944208 -5.006847 -0.027189 -3.088217 0.005298
 59 4.226146 -0.003202 -0.000000 0.231364 0.044832 0.140728
 60 0.000000 5.000001 -0.000000 -0.153564 0.000087 2.718702
 61 0.000004 -0.000004 -3.713580 0.365818 2.880119 -0.191589
 62 0.000003 -0.000000 5.000000 3.053196 1.558589 -0.074928
 63 -0.000007 0.000006 3.713580 -0.001619 -3.122277 -0.475127
 64 0.000001 -0.000000 -5.000000 -0.088725 1.558589 3.066336
 65 7.363602 1.646647 0.495663 3.141593 -1.570796 0.000000
 66 -0.000005 0.000007 3.619081 0.008255 -3.110080 -0.985231
 67 16.573919 0.000003 0.000000 0.000000 0.000000 -1.065827
 68 15.128181 0.000001 -0.000000 -0.102296 0.010178 0.114297
 69 5.758665 4.244730 -0.000000 0.000000 -0.000000 1.667687
 70 3.177726 0.000000 0.000000 0.000000 0.000000 3.141593
 71 15.708952 0.000001 0.000000 -0.051525 0.003996 0.061523
 72 0.275148 0.189215 -3.445208 3.130898 0.000409 -1.514604
 73 17.210192 0.000002 0.000000 0.000000 0.000000 -1.893339
 74 0.000001 -0.000000 -4.999999 -0.079430 1.546568 -1.570855
 75 0.000002 -0.000003 -3.619081 0.577895 2.675801 -0.242118
 76 16.573923 -0.000001 -0.000001 0.000000 -0.000000 -1.163030
 77 15.128182 -0.000001 0.000002 0.089479 0.309197 0.659208
 78 5.758665 4.244731 -0.000000 -0.000000 0.000000 1.815142
 79 4.003934 -0.000000 -0.000000 0.000000 0.000000 0.000000
 80 15.708954 -0.000000 0.000002 0.042277 0.226871 0.443133
 81 0.273998 0.191090 3.439763 -3.130907 -0.000437 -1.508107
 82 17.210196 -0.000001 -0.000001 0.000000 -0.000000 -1.937080
 83 0.000001 -0.000001 5.000000 -0.079314 1.595025 -1.570739
time 4
  0 -0.650000 0.000000 33.899605 -0.025849 0.174554 -1.569172
  1 5.685105 0.833237 -32.227173 -0.174512 -0.026131 1.569196
  2 -2.276935 0.000003 -1.238189 -1.570795 -1.570451 0.000000
  3 1.796441 0.711883 -0.000259 0.079196 0.137292 -0.204321
  4 4.119741 -0.003069 -0.000210 0.064494 -0.095875 0.348698
  5 4.118822 -0.003263 -0.000250 0.076774 -0.104304 0.058448
  6 4.118474 -0.003268 -0.000233 0.071370 -0.065971 -0.043653
  7 4.119320 -0.003086 -0.001575 0.462162 0.055096 0.256324
  8 4.443599 -0.000001 -0.000000 0.387690 -0.721657 0.425232
  9 9.024061 -0.000000 0.000001 0.000000 0.000000 0.000000
 10 -0.095418 0.774955 1.548590 0.647734 -1.037680 2.303403
 11 6.384777 -0.000000 -0.000001 -1.084224 0.893842 -1.033235
 12 10.242684 0.000000 -0.000001 -0.000000 -0.000000 -0.480085
 13 11.375562 -0.000001 -0.000002 2.584458 0.386620 -0.819334
 14 0.728681 0.023429 -1.008292 2.396606 0.246960 1.180207
 15 2.136496 0.000001 -0.000001 -0.000000 0.000000 -0.078540
 16 2.313139 -0.000000 -0.000001 0.000000 0.000000 0.000000
 17 3.115507 -0.886042 -0.021431 -0.166499 0.000392 0.514872
 18 2.011149 -0.000001 0.000001 0.000000 0.000000 1.322791
 19 2.141381 0.000001 -0.000001 0.000000 0.000000 0.000000
 20 1.734171 -0.000000 0.000000 0.000000 0.000000 0.660693
 21 0.000008 -4.440594 0.000001 1.570544 -0.062990 -0.195737
 22 6.000000 0.000000 -0.000001 2.944067 0.000000 -0.000000
 23 0.000003 -4.440601 0.000001 1.569944 -0.062987 0.004053
 24 11.375561 -0.000000 0.000002 -2.548934 0.442144 -0.269496
 25 -0.000002 -4.440603 0.000000 1.570144 -0.062988 0.004040
 26 10.510132 0.000000 -0.000001 -0.000000 -0.000000 -1.810839
 27 0.000001 -1.748403 5.000000 0.000000 0.004007 1.602291
 28 5.500000 0.000000 -0.000001 0.250641 0.000000 0.000000
 29 0.000001 -1.940597 5.000001 -0.044472 0.004003 -0.000180
 30 6.551492 -0.000000 -0.000000 -0.544323 0.613195 -0.466951
 31 -0.000001 -1.940599 5.000001 -0.027189 -0.053376 0.005295
 32 6.551492 -0.000000 -0.000000 -0.199915 0.311841 -0.160998
 33 0.000001 -1.940599 4.999996 -0.066572 -0.152786 -0.110311
 34 0.095419 -0.767879 -1.548591 3.047930 1.478618 -0.302738
 35 6.384776 0.000001 -0.000000 -0.730059 -0.532096 -0.324397
 36 10.242682 0.000002 -0.000001 0.000000 0.000000 -2.050780
 37 11.375562 0.000002 0.000000 2.216290 0.124393 0.705243
 38 0.728681 0.023431 1.008292 -1.579583 -0.319038 0.212973
 39 2.136496 0.000001 -0.000000 -0.000000 0.000000 1.282817
 40 2.313140 -0.000000 0.000000 0.000000 0.000000 3.141593
 41 3.115506 -0.886041 0.021432 0.708959 0.171755 0.347804
 42 2.011149 0.000002 0.000001 -0.000000 0.000000 2.082010
 43 2.141378 -0.000000 -0.000002 0.000000 0.000000 3.141593
 44 1.734173 -0.000001 0.000000 -0.000000 0.000000 1.041748
 45 0.136315 -3.738194 2.525890 1.493698 2.759406 -1.474501
 46 5.613160 0.862366 3.157032 1.595152 -0.135386 0.061522
 47 11.389366 -0.000818 0.158781 1.882197 0.122332 0.352007
 48 0.000000 -4.440599 0.000001 1.570144 -3.078602 0.004040
 49 5.999999 -0.000000 -0.000001 1.882197 -0.000000 -0.000000
 50 0.000002 -4.440601 0.000002 1.569944 -3.078603 0.004053
 51 10.510131 0.000001 -0.000001 0.000000 0.000000 -2.596186
 52 -0.000000 -1.748400 -5.000001 -3.141593 0.004007 -1.539299
 53 5.500000 0.000000 -0.000001 0.217603 0.000000 0.000000
 54 -0.000000 0.000001 -5.000001 -0.044472 3.137589 -0.000177
 55 6.551491 0.000000 0.000002 -0.217603 -0.168252 -0.172464
 56 -1.266843 -1.937445 -4.950559 -0.066572 -2.988806 -0.110308
 57 6.551492 0.000000 0.000002 -0.217603 -0.168252 -0.172464
 58 0.699370 -1.944209 -5.006847 -0.027189 -3.088217 0.005298
 59 4.226145 -0.003201 0.000000 0.231364 0.044832 0.140728
 60 -0.000003 5.000002 -0.000001 -0.153564 0.000087 2.718702
 61 0.000004 -0.000004 -3.713580 0.365818 2.880119 -0.191589
 62 0.000003 -0.000000 5.000000 3.053196 1.558589 -0.074928
 63 -0.000007 0.000006 3.713580 -0.001619 -3.122277 -0.475127
 64 0.000001 -0.000000 -5.000000 -0.088725 1.558589 3.066336
 65 7.363602 1.646647 0.495663 3.141593 -1.570796 0.000000
 66 -0.000005 0.000007 3.619081 0.008255 -3.110080 -0.985231
 67 16.573919 0.000003 0.000000 0.000000 0.000000 -1.065827
 68 15.128181 0.000001 -0.000000 -0.102296 0.010178 0.114297
 69 5.758665 4.244730 -0.000000 0.000000 -0.000000 1.667687
 70 3.177726 0.000000 0.000000 0.000000 0.000000 3.141593
 71 15.708952 0.000001 0.000000 -0.051525 0.003996 0.061523
 72 0.275148 0.189215 -3.445208 3.130898 0.000409 -1.514604
 73 17.210192 0.000002 0.000000 0.000000 0.000000 -1.893339
 74 0.000001 -0.000000 -4.999999 -0.079430 1.546568 -1.570855
 75 0.000002 -0.000003 -3.619081 0.577895 2.675801 -0.242118
 76 16.573923 -0.000001 -0.000001 0.000000 -0.000000 -1.163030
 77 15.128182 -0.000001 0.000002 0.089479 0.309197 0.659208
 78 5.758665 4.244731 -0.000000 -0.000000 0.000000 1.815142
 79 4.003934 -0.000000 -0.000000 0.000000 0.000000 0.000000
 80 15.708954 -0.000000 0.000002 0.042277 0.226871 0.443133
 81 0.273998 0.191090 3.439763 -3.130907 -0.000437 -1.508107
 82 17.210196 -0.000001 -0.000001 0.000000 -0.000000 -1.937080
 83 0.000001 -0.000001 5.000000 -0.079314 1.595025 -1.570739
time 5
  0 -0.650000 0.000000 33.899605 -0.025849 0.174554 -1.569172
  1 5.685105 0.833237 -32.227173 -0.174512 -0.026131 1.569196
  2 -2.276935 0.000003 -1.238189 -1.570795 -1.570451 0.000000
  3 1.796448 0.711881 -0.000262 0.080184 0.138550 -0.203093
  4 4.119742 -0.003069 -0.000214 0.065422 -0.096563 0.348834
  5 4.118821 -0.003262 -0.000253 0.077768 -0.104941 0.058546
  6 4.118475 -0.003268 -0.000237 0.072359 -0.066281 -0.043496
  7 4.119324 -0.003086 -0.001575 0.462163 0.055096 0.256324
  8 4.443599 0.000001 -0.000001 0.383120 -0.719165 0.426512
  9 9.024061 -0.000002 0.000001 0.000000 0.000000 0.000000
 10 -0.095416 0.774956 1.548590 0.647734 -1.037680 2.303403
 11 6.384777 -0.000001 0.000001 -1.083589 0.891201 -1.036571
 12 10.242682 -0.000000 -0.000000 -0.000000 -0.000000 -0.480462
 13 11.375559 0.000000 -0.000002 2.586746 0.387215 -0.817624
 14 0.728680 0.023429 -1.008291 2.396606 0.246960 1.180207
 15 2.136498 -0.000000 -0.000002 -0.000000 -0.000000 -0.078540
 16 2.313138 -0.000000 0.000001 0.000000 0.000000 0.000000
 17 3.115507 -0.886043 -0.021432 -0.166499 0.000392 0.514872
 18 2.011150 -0.000000 -0.000000 0.000000 -0.000000 1.322792
 19 2.141381 -0.000000 0.000000 0.000000 0.000000 0.000000
 20 1.734172 0.000001 0.000001 0.000000 -0.000000 0.660693
 21 0.000004 -4.440594 0.000000 1.570544 -0.062990 -0.195737
 22 5.999998 -0.000000 -0.000001 2.946609 -0.000000 0.000000
 23 0.000002 -4.440601 -0.000000 1.569944 -0.062987 0.004053
 24 11.375562 0.000001 0.000002 -2.547858 0.441624 -0.268689
 25 -0.000001 -4.440603 0.000000 1.570144 -0.062988 0.004040
 26 10.510130 -0.000000 -0.000000 0.000000 0.000000 -1.811027
 27 0.000000 -1.748402 5.000000 -0.000000 0.004007 1.602291
 28 5.500001 0.000000 -0.000000 0.249567 0.000000 -0.000000
 29 -0.000001 -1.940598 5.000000 -0.044472 0.004003 -0.000180
 30 6.551491 -0.000000 0.000003 -0.542365 0.611218 -0.470660
 31 -0.000002 -1.940599 5.000002 -0.027189 -0.053376 0.005295
 32 6.551491 -0.000000 0.000003 -0.199006 0.311124 -0.163033
 33 -0.000000 -1.940599 4.999999 -0.066572 -0.152786 -0.110311
 34 0.095419 -0.767878 -1.548591 3.127641 1.482757 -0.222164
 35 6.384777 -0.000001 0.000001 -0.736446 -0.527805 -0.308332
 36 10.242682 -0.000001 -0.000001 0.000000 0.000000 -2.056437
 37 11.375561 -0.000003 -0.000001 2.214910 0.131428 0.704138
 38 0.728680 0.023431 1.008294 -1.579583 -0.319038 0.212973
 39 2.136497 0.000002 -0.000001 -0.000000 -0.000000 1.282817
 40 2.313139 0.000000 0.000001 0.000000 0.000000 3.141593
 41 3.115508 -0.886041 0.021431 0.708959 0.171755 0.347804
 42 2.011152 -0.000001 -0.000000 0.000000 0.000000 2.082010
 43 2.141382 0.000001 -0.000000 0.000000 0.000000 3.141593
 44 1.734172 -0.000002 0.000000 0.000000 -0.000000 1.041748
 45 0.136315 -3.738194 2.525891 1.493698 2.759406 -1.474501
 46 5.613162 0.862367 3.157032 1.595152 -0.135386 0.061522
 47 11.389367 -0.000822 0.158780 1.880789 0.125558 0.350840
 48 0.000000 -4.440598 0.000001 1.570144 -3.078602 0.004040
 49 6.000000 -0.000003 -0.000002 1.880789 -0.000000 -0.000000
 50 0.000002 -4.440600 -0.000003 1.569944 -3.078603 0.004053
 51 10.510133 -0.000000 -0.000000 0.000000 0.000000 -2.599015
 52 -0.000000 -1.748401 -5.000002 3.141593 0.004007 -1.539299
 53 5.500001 -0.000000 -0.000001 0.218781 0.000000 0.000000
 54 0.000001 -0.000002 -4.999998 -0.044472 3.137589 -0.000177
 55 6.551491 -0.000002 0.000003 -0.218781 -0.169966 -0.168498
 56 -1.266842 -1.937444 -4.950558 -0.066572 -2.988806 -0.110308
 57 6.551492 -0.000002 0.000003 -0.218781 -0.169966 -0.168498
 58 0.699371 -1.944209 -5.006845 -0.027189 -3.088217 0.005298
 59 4.226148 -0.003202 0.000000 0.231364 0.044832 0.140728
 60 0.000001 5.000000 -0.000000 -0.153564 0.000087 2.718702
 61 0.000004 -0.000004 -3.713580 0.365818 2.880119 -0.191589
 62 0.000003 -0.000000 5.000000 3.053196 1.558589 -0.074928
 63 -0.000007 0.000006 3.713580 -0.001619 -3.122277 -0.475127
 64 0.000001 -0.000000 -5.000000 -0.088725 1.558589 3.066336
 65 7.363602 1.646647 0.495663 3.141593 -1.570796 0.000000
 66 -0.000005 0.000007 3.619081 0.008255 -3.110080 -0.985231
 67 16.573919 0.000003 0.000000 0.000000 0.000000 -1.065827
 68 15.128181 0.000001 -0.000000 -0.102296 0.010178 0.114297
 69 5.758665 4.244730 -0.000000 0.000000 -0.000000 1.667687
 70 3.177726 0.000000 0.000000 0.000000 0.000000 3.141593
 71 15.708952 0.000001 0.000000 -0.051525 0.003996 0.061523
 72 0.275148 0.189215 -3.445208 3.130898 0.000409 -1.514604
 73 17.210192 0.000002 0.000000 0.000000 0.000000 -1.893339
 74 0.000001 -0.000000 -4.999999 -0.079430 1.546568 -1.570855
 75 0.000002 -0.000003 -3.619081 0.577895 2.675801 -0.242118
 76 16.573923 -0.000001 -0.000001 0.000000 -0.000000 -1.163030
 77 15.128182 -0.000001 0.000002 0.089479 0.309197 0.659208
 78 5.758665 4.244731 -0.000000 -0.000000 0.000000 1.815142
 79 4.003934 -0.000000 -0.000000 0.000000 0.000000 0.000000
 80 15.708954 -0.000000 0.000002 0.042277 0.226871 0.443133
 81 0.273998 0.191090 3.439763 -3.130907 -0.000437 -1.508107
 82 17.210196 -0.000001 -0.000001 0.000000 -0.000000 -1.937080
 83 0.000001 -0.000001 5.000000 -0.079314 1.595025 -1.570739
time 6
  0 -0.650000 0.000000 33.899605 -0.025849 0.174554 -1.569172
  1 5.685105 0.833237 -32.227173 -0.174512 -0.026131 1.569196
  2 -2.276935 0.000003 -1.238189 -1.570795 -1.570451 0.000000
  3 1.796444 0.711882 -0.000264 0.080777 0.140645 -0.202996
  4 4.119740 -0.003069 -0.000215 0.065966 -0.097348 0.348707
  5 4.118823 -0.003263 -0.000255 0.078348 -0.105957 0.058373
  6 4.118476 -0.003267 -0.000239 0.072934 -0.066845 -0.043613
  7 4.119324 -0.003086 -0.001576 0.462163 0.055096 0.256324
  8 4.443599 0.000001 -0.000000 0.380857 -0.716566 0.428078
  9 9.024062 -0.000001 0.000000 0.000000 0.000000 0.000000
 10 -0.095417 0.774956 1.548590 0.647735 -1.037680 2.303403
 11 6.384776 -0.000000 -0.000000 -1.078184 0.896213 -1.033114
 12 10.242683 0.000001 0.000000 0.000000 -0.000000 -0.494717
 13 11.375560 -0.000001 -0.000001 2.590075 0.387160 -0.809291
 14 0.728680 0.023431 -1.008292 2.396606 0.246960 1.180207
 15 2.136497 0.000000 0.000000 -0.000000 -0.000000 -0.078540
 16 2.313140 0.000000 -0.000000 0.000000 0.000000 0.000000
 17 3.115506 -0.886040 -0.021431 -0.166499 0.000392 0.514872
 18 2.011151 0.000000 0.000000 0.000000 0.000000 1.322792
 19 2.141378 0.000001 -0.000000 0.000000 0.000000 0.000000
 20 1.734172 0.000000 -0.000000 -0.000000 -0.000000 0.660693
 21 0.000005 -4.440594 0.000000 1.570544 -0.062990 -0.195737
 22 6.000000 0.000001 0.000000 2.950079 -0.000000 -0.000000
 23 0.000001 -4.440600 -0.000001 1.569944 -0.062987 0.004053
 24 11.375561 0.000001 0.000003 -2.546986 0.439197 -0.265220
 25 -0.000000 -4.440603 0.000001 1.570144 -0.062988 0.004040
 26 10.510129 0.000000 -0.000000 -0.000000 -0.000000 -1.818155
 27 0.000002 -1.748403 4.999999 0.000000 0.004007 1.602291
 28 5.499999 0.000000 0.000000 0.246909 0.000000 -0.000000
 29 -0.000004 -1.940599 5.000001 -0.044472 0.004003 -0.000180
 30 6.551490 0.000001 0.000001 -0.537278 0.613151 -0.468528
 31 -0.000002 -1.940598 5.000000 -0.027189 -0.053376 0.005295
 32 6.551490 0.000001 0.000001 -0.196857 0.311729 -0.162397
 33 -0.000002 -1.940599 4.999996 -0.066572 -0.152786 -0.110311
 34 0.095420 -0.767879 -1.548590 3.115806 1.482201 -0.234124
 35 6.384777 -0.000000 0.000000 -0.740337 -0.528125 -0.303006
 36 10.242682 -0.000002 -0.000001 0.000000 0.000000 -2.058098
 37 11.375561 0.000001 0.000001 2.213975 0.136187 0.699167
 38 0.728680 0.023432 1.008292 -1.579583 -0.319038 0.212973
 39 2.136497 -0.000001 0.000000 -0.000000 -0.000000 1.282817
 40 2.313142 -0.000000 0.000001 0.000000 0.000000 3.141593
 41 3.115505 -0.886041 0.021431 0.708959 0.171755 0.347804
 42 2.011153 -0.000000 0.000000 -0.000000 0.000000 2.082010
 43 2.141380 0.000000 -0.000000 0.000000 0.000000 3.141593
 44 1.734175 -0.000002 -0.000000 -0.000000 -0.000000 1.041748
 45 0.136315 -3.738194 2.525890 1.493698 2.759406 -1.474501
 46 5.613158 0.862367 3.157031 1.595152 -0.135386 0.061522
 47 11.389367 -0.000818 0.158783 1.879917 0.127459 0.348156
 48 -0.000001 -4.440598 0.000001 1.570144 -3.078602 0.004040
 49 6.000000 -0.000001 0.000001 1.879917 0.000000 0.000000
 50 0.000001 -4.440601 0.000002 1.569944 -3.078603 0.004053
 51 10.510133 -0.000003 -0.000001 0.000000 -0.000000 -2.599845
 52 -0.000000 -1.748400 -4.999999 3.141593 0.004007 -1.539299
 53 5.499999 -0.000001 -0.000002 0.219624 -0.000000 0.000000
 54 0.000000 0.000002 -5.000000 -0.044472 3.137589 -0.000177
 55 6.551491 -0.000001 0.000002 -0.219624 -0.170953 -0.167121
 56 -1.266843 -1.937443 -4.950560 -0.066572 -2.988806 -0.110308
 57 6.551492 -0.000001 0.000002 -0.219624 -0.170953 -0.167121
 58 0.699370 -1.944209 -5.006847 -0.027189 -3.088217 0.005298
 59 4.226146 -0.003201 -0.000000 0.231364 0.044832 0.140728
 60 0.000001 5.000001 -0.000001 -0.153564 0.000087 2.718702
 61 0.000004 -0.000004 -3.713580 0.365818 2.880119 -0.191589
 62 0.000003 -0.000000 5.000000 3.053196 1.558589 -0.074928
 63 -0.000007 0.000006 3.713580 -0.001619 -3.122277 -0.475127
 64 0.000001 -0.000000 -5.000000 -0.088725 1.558589 3.066336
 65 7.363602 1.646647 0.495663 3.141593 -1.570796 0.000000
 66 -0.000005 0.000007 3.619081 0.008255 -3.110080 -0.985231
 67 16.573919 0.000003 0.000000 0.000000 0.000000 -1.065827
 68 15.128181 0.000001 -0.000000 -0.102296 0.010178 0.114297
 69 5.758665 4.244730 -0.000000 0.000000 -0.000000 1.667687
 70 3.177726 0.000000 0.000000 0.000000 0.000000 3.141593
 71 15.708952 0.000001 0.000000 -0.051525 0.003996 0.061523
 72 0.275148 0.189215 -3.445208 3.130898 0.000409 -1.514604
 73 17.210192 0.000002 0.000000 0.000000 0.000000 -1.893339
 74 0.000001 -0.000000 -4.999999 -0.079430 1.546568 -1.570855
 75 0.000002 -0.000003 -3.619081 0.577895 2.675801 -0.242118
 76 16.573923 -0.000001 -0.000001 0.000000 -0.000000 -1.163030
 77 15.128182 -0.000001 0.000002 0.089479 0.309197 0.659208
 78 5.758665 4.244731 -0.000000 -0.000000 0.000000 1.815142
 79 4.003934 -0.000000 -0.000000 0.000000 0.000000 0.000000
 80 15.708954 -0.000000 0.000002 0.042277 0.226871 0.443133
 81 0.273998 0.191090 3.439763 -3.130907 -0.000437 -1.508107
 82 17.210196 -0.000001 -0.000001 0.000000 -0.000000 -1.937080
 83 0.000001 -0.000001 5.000000 -0.079314 1.595025 -1.570739
time 7
  0 -0.650000 0.000000 33.899605 -0.025849 0.174554 -1.569172
  1 5.685105 0.833237 -32.227173 -0.174512 -0.026131 1.569196
  2 -2.276935 0.000003 -1.238189 -1.570795 -1.570451 0.000000
  3 1.796440 0.711883 -0.000265 0.081120 0.143265 -0.203605
  4 4.119744 -0.003069 -0.000216 0.066269 -0.098194 0.348416
  5 4.118818 -0.003262 -0.000257 0.078671 -0.107211 0.058030
  6 4.118478 -0.003269 -0.000240 0.073248 -0.067569 -0.043900
  7 4.119320 -0.003086 -0.001575 0.462163 0.055096 0.256324
  8 4.443599 0.000001 -0.000001 0.380042 -0.713903 0.429822
  9 9.024061 0.000000 0.000001 0.000000 0.000000 0.000000
 10 -0.095415 0.774956 1.548590 0.647735 -1.037680 2.303403
 11 6.384776 -0.000001 -0.000001 -1.069837 0.905610 -1.025515
 12 10.242682 -0.000000 -0.000000 -0.000000 -0.000000 -0.516893
 13 11.375562 0.000000 -0.000001 2.594058 0.386699 -0.797166
 14 0.728681 0.023429 -1.008292 2.396606 0.246960 1.180207
 15 2.136498 0.000000 -0.000001 0.000000 -0.000000 -0.078540
 16 2.313139 0.000000 -0.000001 0.000000 0.000000 0.000000
 17 3.115507 -0.886044 -0.021431 -0.166499 0.000392 0.514872
 18 2.011151 -0.000001 -0.000000 0.000000 -0.000000 1.322792
 19 2.141382 0.000001 0.000000 0.000000 0.000000 0.000000
 20 1.734173 0.000001 0.000000 0.000000 0.000000 0.660693
 21 0.000006 -4.440593 0.000000 1.570544 -0.062990 -0.195737
 22 5.999998 -0.000002 -0.000000 2.954118 0.000000 0.000000
 23 0.000002 -4.440600 -0.000000 1.569944 -0.062987 0.004053
 24 11.375562 0.000001 0.000002 -2.546209 0.435662 -0.260238
 25 -0.000000 -4.440603 0.000001 1.570144 -0.062988 0.004040
 26 10.510130 -0.000000 -0.000001 0.000000 -0.000000 -1.829242
 27 0.000001 -1.748402 4.999999 -0.000000 0.004007 1.602290
 28 5.500002 0.000000 -0.000000 0.243328 -0.000000 0.000000
 29 -0.000002 -1.940598 5.000000 -0.044472 0.004003 -0.000180
 30 6.551490 -0.000000 -0.000001 -0.530338 0.617305 -0.462928
 31 0.000000 -1.940599 5.000001 -0.027189 -0.053376 0.005295
 32 6.551490 -0.000000 -0.000001 -0.193986 0.313084 -0.160189
 33 -0.000001 -1.940599 4.999998 -0.066572 -0.152786 -0.110311
 34 0.095419 -0.767877 -1.548591 3.047930 1.478618 -0.302739
 35 6.384776 -0.000001 -0.000002 -0.742691 -0.531345 -0.304399
 36 10.242682 0.000000 -0.000000 0.000000 -0.000000 -2.057260
 37 11.375562 0.000001 0.000001 2.213337 0.139501 0.691811
 38 0.728680 0.023431 1.008292 -1.579583 -0.319038 0.212973
 39 2.136497 0.000001 -0.000000 -0.000000 -0.000000 1.282817
 40 2.313141 -0.000000 0.000001 0.000000 0.000000 3.141593
 41 3.115507 -0.886041 0.021430 0.708959 0.171755 0.347804
 42 2.011151 0.000000 0.000000 0.000000 -0.000000 2.082010
 43 2.141379 -0.000001 -0.000001 0.000000 0.000000 3.141593
 44 1.734174 -0.000002 -0.000000 0.000000 -0.000000 1.041748
 45 0.136315 -3.738193 2.525890 1.493698 2.759406 -1.474501
 46 5.613160 0.862367 3.157029 1.595152 -0.135386 0.061522
 47 11.389367 -0.000819 0.158782 1.879399 0.128529 0.344537
 48 -0.000000 -4.440598 -0.000000 1.570144 -3.078602 0.004040
 49 6.000000 0.000001 -0.000001 1.879400 0.000000 0.000000
 50 0.000001 -4.440601 -0.000000 1.569944 -3.078603 0.004053
 51 10.510132 0.000002 -0.000001 0.000000 0.000000 -2.599427
 52 -0.000000 -1.748400 -5.000003 3.141593 0.004007 -1.539299
 53 5.500000 0.000001 -0.000001 0.220232 -0.000000 -0.000000
 54 0.000001 -0.000002 -5.000000 -0.044472 3.137589 -0.000177
 55 6.551490 -0.000002 0.000000 -0.220232 -0.171462 -0.167421
 56 -1.266844 -1.937441 -4.950563 -0.066572 -2.988806 -0.110308
 57 6.551491 -0.000001 0.000001 -0.220232 -0.171462 -0.167421
 58 0.699371 -1.944207 -5.006849 -0.027189 -3.088217 0.005298
 59 4.226145 -0.003202 -0.000000 0.231364 0.044832 0.140728
 60 -0.000000 5.000001 -0.000000 -0.153564 0.000087 2.718702
 61 0.000004 -0.000004 -3.713580 0.365818 2.880119 -0.191589
 62 0.000003 -0.000000 5.000000 3.053196 1.558589 -0.074928
 63 -0.000007 0.000006 3.713580 -0.001619 -3.122277 -0.475127
 64 0.000001 -0.000000 -5.000000 -0.088725 1.558589 3.066336
 65 7.363602 1.646647 0.495663 3.141593 -1.570796 0.000000
 66 -0.000005 0.000007 3.619081 0.008255 -3.110080 -0.985231
 67 16.573919 0.000003 0.000000 0.000000 0.000000 -1.065827
 68 15.128181 0.000001 -0.000000 -0.102296 0.010178 0.114297
 69 5.758665 4.244730 -0.000000 0.000000 -0.000000 1.667687
 70 3.177726 0.000000 0.000000 0.000000 0.000000 3.141593
 71 15.708952 0.000001 0.000000 -0.051525 0.003996 0.061523
 72 0.275148 0.189215 -3.445208 3.130898 0.000409 -1.514604
 73 17.210192 0.000002 0.000000 0.000000 0.000000 -1.893339
 74 0.000001 -0.000000 -4.999999 -0.079430 1.546568 -1.570855
 75 0.000002 -0.000003 -3.619081 0.577895 2.675801 -0.242118
 76 16.573923 -0.000001 -0.000001 0.000000 -0.000000 -1.163030
 77 15.128182 -0.000001 0.000002 0.089479 0.309197 0.659208
 78 5.758665 4.244731 -0.000000 -0.000000 0.000000 1.815142
 79 4.003934 -0.000000 -0.000000 0.000000 0.000000 0.000000
 80 15.708954 -0.000000 0.000002 0.042277 0.226871 0.443133
 81 0.273998 0.191090 3.439763 -3.130907 -0.000437 -1.508107
 82 17.210196 -0.000001 -0.000001 0.000000 -0.000000 -1.937080
 83 0.000001 -0.000001 5.000000 -0.079314 1.595025 -1.570739
time 8
  0 -0.650000 0.000000 33.899605 -0.025849 0.174554 -1.569172
  1 5.685105 0.833237 -32.227173 -0.174512 -0.026131 1.569196
  2 -2.276935 0.000003 -1.238189 -1.570795 -1.570451 0.000000
  3 1.796440 0.711883 -0.000266 0.081362 0.146094 -0.204498
  4 4.119737 -0.003070 -0.000217 0.066476 -0.099064 0.348060
  5 4.118822 -0.003263 -0.000257 0.078891 -0.108559 0.057620
  6 4.118472 -0.003268 -0.000240 0.073460 -0.068356 -0.044256
  7 4.119322 -0.003086 -0.001575 0.462163 0.055096 0.256324
  8 4.443598 -0.000001 0.000000 0.379815 -0.711217 0.431635
  9 9.024061 -0.000002 0.000001 0.000000 0.000000 0.000000
 10 -0.095419 0.774955 1.548590 0.647734 -1.037680 2.303403
 11 6.384778 -0.000000 -0.000000 -1.060344 0.916310 -1.016366
 12 10.242682 0.000001 -0.000001 -0.000000 -0.000000 -0.541378
 13 11.375560 -0.000002 0.000000 2.598310 0.386071 -0.783916
 14 0.728681 0.023430 -1.008292 2.396606 0.246960 1.180207
 15 2.136497 -0.000001 0.000001 -0.000000 0.000000 -0.078540
 16 2.313138 0.000000 -0.000000 0.000000 0.000000 0.000000
 17 3.115507 -0.886042 -0.021431 -0.166499 0.000392 0.514872
 18 2.011152 0.000001 0.000002 -0.000000 0.000000 1.322792
 19 2.141378 0.000001 -0.000001 0.000000 0.000000 0.000000
 20 1.734172 -0.000000 0.000001 0.000000 0.000000 0.660693
 21 0.000005 -4.440595 -0.000001 1.570544 -0.062990 -0.195737
 22 6.000000 0.000000 0.000001 2.958378 -0.000000 -0.000000
 23 0.000002 -4.440601 0.000000 1.569944 -0.062987 0.004053
 24 11.375561 -0.000000 0.000003 -2.545430 0.431777 -0.254820
 25 -0.000000 -4.440605 0.000000 1.570144 -0.062988 0.004040
 26 10.510130 0.000001 -0.000001 0.000000 0.000000 -1.841485
 27 -0.000002 -1.748400 5.000000 -0.000000 0.004007 1.602291
 28 5.499996 0.000000 -0.000000 0.239448 -0.000000 -0.000000
 29 -0.000000 -1.940598 5.000000 -0.044472 0.004003 -0.000180
 30 6.551492 -0.000000 -0.000001 -0.522762 0.622121 -0.456125
 31 -0.000000 -1.940599 5.000000 -0.027189 -0.053376 0.005295
 32 6.551492 -0.000000 -0.000001 -0.190884 0.314659 -0.157450
 33 0.000002 -1.940600 4.999996 -0.066572 -0.152786 -0.110311
 34 0.095420 -0.767881 -1.548590 2.965704 1.473231 -0.385917
 35 6.384778 0.000000 -0.000001 -0.744375 -0.535684 -0.308501
 36 10.242683 0.000002 -0.000001 -0.000000 0.000000 -2.055419
 37 11.375563 0.000002 0.000002 2.212828 0.142205 0.683479
 38 0.728682 0.023431 1.008291 -1.579583 -0.319038 0.212973
 39 2.136496 -0.000000 0.000000 -0.000000 0.000000 1.282817
 40 2.313138 -0.000000 0.000001 0.000000 0.000000 3.141593
 41 3.115506 -0.886041 0.021432 0.708959 0.171755 0.347804
 42 2.011148 0.000000 0.000001 -0.000000 0.000000 2.082010
 43 2.141380 -0.000001 0.000000 0.000000 0.000000 3.141593
 44 1.734170 -0.000000 0.000000 0.000000 -0.000000 1.041748
 45 0.136315 -3.738191 2.525891 1.493698 2.759406 -1.474501
 46 5.613161 0.862366 3.157031 1.595152 -0.135386 0.061522
 47 11.389367 -0.000819 0.158783 1.879037 0.129255 0.340530
 48 0.000000 -4.440600 0.000001 1.570144 -3.078602 0.004040
 49 6.000001 0.000001 0.000001 1.879037 -0.000000 -0.000000
 50 0.000002 -4.440602 0.000001 1.569944 -3.078603 0.004053
 51 10.510132 0.000003 -0.000001 0.000000 -0.000000 -2.598506
 52 0.000000 -1.748398 -5.000000 3.141593 0.004007 -1.539299
 53 5.500000 0.000002 -0.000001 0.220740 -0.000000 0.000000
 54 0.000001 0.000001 -5.000000 -0.044472 3.137589 -0.000177
 55 6.551492 0.000000 -0.000002 -0.220740 -0.171760 -0.168396
 56 -1.266843 -1.937444 -4.950559 -0.066572 -2.988806 -0.110308
 57 6.551492 0.000000 -0.000002 -0.220740 -0.171760 -0.168396
 58 0.699371 -1.944208 -5.006846 -0.027189 -3.088217 0.005298
 59 4.226147 -0.003201 0.000000 0.231364 0.044832 0.140728
 60 0.000000 5.000000 0.000000 -0.153564 0.000087 2.718702
 61 0.000004 -0.000004 -3.713580 0.365818 2.880119 -0.191589
 62 0.000003 -0.000000 5.000000 3.053196 1.558589 -0.074928
 63 -0.000007 0.000006 3.713580 -0.001619 -3.122277 -0.475127
 64 0.000001 -0.000000 -5.000000 -0.088725 1.558589 3.066336
 65 7.363602 1.646647 0.495663 3.141593 -1.570796 0.000000
 66 -0.000005 0.000007 3.619081 0.008255 -3.110080 -0.985231
 67 16.573919 0.000003 0.000000 0.000000 0.000000 -1.065827
 68 15.128181 0.000001 -0.000000 -0.102296 0.010178 0.114297
 69 5.758665 4.244730 -0.000000 0.000000 -0.000000 1.667687
 70 3.177726 0.000000 0.000000 0.000000 0.000000 3.141593
 71 15.708952 0.000001 0.000000 -0.051525 0.003996 0.061523
 72 0.275148 0.189215 -3.445208 3.130898 0.000409 -1.514604
 73 17.210192 0.000002 0.000000 0.000000 0.000000 -1.893339
 74 0.000001 -0.000000 -4.999999 -0.079430 1.546568 -1.570855
 75 0.000002 -0.000003 -3.619081 0.577895 2.675801 -0.242118
 76 16.573923 -0.000001 -0.000001 0.000000 -0.000000 -1.163030
 77 15.128182 -0.000001 0.000002 0.089479 0.309197 0.659208
 78 5.758665 4.244731 -0.000000 -0.000000 0.000000 1.815142
 79 4.003934 -0.000000 -0.000000 0.000000 0.000000 0.000000
 80 15.708954 -0.000000 0.000002 0.042277 0.226871 0.443133
 81 0.273998 0.191090 3.439763 -3.130907 -0.000437 -1.508107
 82 17.210196 -0.000001 -0.000001 0.000000 -0.000000 -1.937080
 83 0.000001 -0.000001 5.000000 -0.079314 1.595025 -1.570739
time 9
  0 -0.650000 0.000000 33.899605 -0.025849 0.174554 -1.569172
  1 5.685105 0.833237 -32.227173 -0.174512 -0.026131 1.569196
  2 -2.276935 0.000003 -1.238189 -1.570795 -1.570451 0.000000
  3 1.796437 0.711884 -0.000267 0.081652 0.148819 -0.205248
  4 4.119739 -0.003069 -0.000218 0.066731 -0.099921 0.347736
  5 4.118819 -0.003263 -0.000258 0.079163 -0.109860 0.057243
  6 4.118472 -0.003267 -0.000241 0.073723 -0.069111 -0.044578
  7 4.119320 -0.003086 -0.001575 0.462163 0.055096 0.256324
  8 4.443599 -0.000001 -0.000000 0.379317 -0.708544 0.433404
  9 9.024062 -0.000000 0.000001 0.000000 0.000000 0.000000
 10 -0.095416 0.774954 1.548590 0.647735 -1.037680 2.303403
 11 6.384777 -0.000000 -0.000003 -1.051479 0.925650 -1.008159
 12 10.242682 0.000001 -0.000000 -0.000000 0.000000 -0.563369
 13 11.375562 -0.000001 0.000000 2.602440 0.385525 -0.771836
 14 0.728681 0.023430 -1.008292 2.396606 0.246960 1.180207
 15 2.136497 -0.000000 0.000000 -0.000000 -0.000000 -0.078540
 16 2.313140 -0.000000 -0.000001 0.000000 0.000000 0.000000
 17 3.115506 -0.886043 -0.021432 -0.166499 0.000392 0.514872
 18 2.011150 0.000000 0.000000 -0.000000 0.000000 1.322792
 19 2.141380 0.000001 -0.000000 0.000000 0.000000 0.000000
 20 1.734172 0.000000 0.000000 -0.000000 -0.000000 0.660693
 21 0.000007 -4.440594 0.000001 1.570544 -0.062990 -0.195737
 22 6.000000 -0.000000 0.000000 2.962520 0.000000 -0.000000
 23 0.000001 -4.440601 0.000000 1.569944 -0.062987 0.004053
 24 11.375563 0.000001 0.000003 -2.544589 0.428215 -0.249882
 25 -0.000001 -4.440603 0.000000 1.570144 -0.062988 0.004040
 26 10.510131 0.000001 -0.000001 0.000000 -0.000000 -1.852481
 27 0.000001 -1.748401 5.000000 0.000000 0.004007 1.602290
 28 5.500000 0.000001 -0.000000 0.235828 0.000000 0.000000
 29 -0.000003 -1.940597 5.000000 -0.044472 0.004003 -0.000180
 30 6.551491 0.000001 -0.000002 -0.515673 0.626247 -0.450230
 31 0.000001 -1.940598 5.000000 -0.027189 -0.053376 0.005295
 32 6.551491 0.000001 -0.000002 -0.187985 0.315998 -0.155138
 33 -0.000001 -1.940600 4.999997 -0.066572 -0.152786 -0.110311
 34 0.095421 -0.767880 -1.548590 2.901190 1.468027 -0.451236
 35 6.384777 -0.000001 0.000002 -0.746340 -0.539410 -0.311276
 36 10.242682 0.000001 -0.000001 0.000000 0.000000 -2.054063
 37 11.375561 -0.000002 0.000000 2.212249 0.145166 0.675593
 38 0.728681 0.023431 1.008292 -1.579583 -0.319038 0.212973
 39 2.136496 -0.000001 -0.000000 -0.000000 0.000000 1.282817
 40 2.313136 0.000000 0.000001 0.000000 0.000000 3.141593
 41 3.115507 -0.886042 0.021431 0.708959 0.171755 0.347804
 42 2.011150 0.000000 0.000001 0.000000 0.000000 2.082010
 43 2.141380 -0.000000 -0.000001 0.000000 0.000000 3.141593
 44 1.734172 -0.000000 0.000000 0.000000 0.000000 1.041748
 45 0.136314 -3.738193 2.525890 1.493698 2.759406 -1.474501
 46 5.613161 0.862366 3.157031 1.595152 -0.135386 0.061522
 47 11.389366 -0.000822 0.158781 1.878613 0.130135 0.336691
 48 0.000001 -4.440598 -0.000000 1.570144 -3.078602 0.004040
 49 5.999999 -0.000002 0.000000 1.878613 0.000000 0.000000
 50 0.000000 -4.440602 0.000002 1.569944 -3.078603 0.004053
 51 10.510133 0.000001 -0.000001 -0.000000 0.000000 -2.597828
 52 0.000000 -1.748402 -5.000002 -3.141593 0.004007 -1.539299
 53 5.500000 0.000000 -0.000001 0.221293 0.000000 0.000000
 54 0.000001 0.000001 -4.999999 -0.044472 3.137589 -0.000177
 55 6.551491 -0.000001 0.000000 -0.221293 -0.172136 -0.169038
 56 -1.266843 -1.937443 -4.950560 -0.066572 -2.988806 -0.110308
 57 6.551491 -0.000001 0.000000 -0.221293 -0.172136 -0.169038
 58 0.699371 -1.944208 -5.006846 -0.027189 -3.088217 0.005298
 59 4.226144 -0.003201 0.000000 0.231364 0.044832 0.140728
 60 0.000002 5.000001 -0.000000 -0.153564 0.000087 2.718702
 61 0.000004 -0.000004 -3.713580 0.365818 2.880119 -0.191589
 62 0.000003 -0.000000 5.000000 3.053196 1.558589 -0.074928
 63 -0.000007 0.000006 3.713580 -0.001619 -3.122277 -0.475127
 64 0.000001 -0.000000 -5.000000 -0.088725 1.558589 3.066336
 65 7.363602 1.646647 0.495663 3.141593 -1.570796 0.000000
 66 -0.000005 0.000007 3.619081 0.008255 -3.110080 -0.985231
 67 16.573919 0.000003 0.000000 0.000000 0.000000 -1.065827
 68 15.128181 0.000001 -0.000000 -0.102296 0.010178 0.114297
 69 5.758665 4.244730 -0.000000 0.000000 -0.000000 1.667687
 70 3.177726 0.000000 0.000000 0.000000 0.000000 3.141593
 71 15.708952 0.000001 0.000000 -0.051525 0.003996 0.061523
 72 0.275148 0.189215 -3.445208 3.130898 0.000409 -1.514604
 73 17.210192 0.000002 0.000000 0.000000 0.000000 -1.893339
 74 0.000001 -0.000000 -4.999999 -0.079430 1.546568 -1.570855
 75 0.000002 -0.000003 -3.619081 0.577895 2.675801 -0.242118
 76 16.573923 -0.000001 -0.000001 0.000000 -0.000000 -1.163030
 77 15.128182 -0.000001 0.000002 0.089479 0.309197 0.659208
 78 5.758665 4.244731 -0.000000 -0.000000 0.000000 1.815142
 79 4.003934 -0.000000 -0.000000 0.000000 0.000000 0.000000
 80 15.708954 -0.000000 0.000002 0.042277 0.226871 0.443133
 81 0.273998 0.191090 3.439763 -3.130907 -0.000437 -1.508107
 82 17.210196 -0.000001 -0.000001 0.000000 -0.000000 -1.937080
 83 0.000001 -0.000001 5.000000 -0.079314 1.595025 -1.570739
time 10
  0 -0.650000 0.000000 33.899605 -0.025849 0.174554 -1.569172
  1 5.685105 0.833237 -32.227173 -0.174512 -0.026131 1.569196
  2 -2.276935 0.000003 -1.238189 -1.570795 -1.570451 0.000000
  3 1.796437 0.711884 -0.000268 0.082142 0.151125 -0.205430
  4 4.119736 -0.003069 -0.000219 0.067179 -0.100730 0.347542
  5 4.118816 -0.003262 -0.000259 0.079642 -0.110971 0.057000
  6 4.118476 -0.003269 -0.000243 0.074194 -0.069738 -0.044764
  7 4.119324 -0.003086 -0.001575 0.462163 0.055096 0.256324
  8 4.443596 0.000001 -0.000000 0.377686 -0.705913 0.435013
  9 9.024062 -0.000002 0.000001 0.000000 0.000000 0.000000
 10 -0.095419 0.774956 1.548590 0.647734 -1.037680 2.303403
 11 6.384776 0.000001 0.000003 -1.045029 0.931320 -1.003344
 12 10.242682 0.000000 -0.000000 0.000000 0.000000 -0.578725
 13 11.375562 -0.000000 -0.000001 2.606054 0.385311 -0.762916
 14 0.728680 0.023430 -1.008292 2.396606 0.246960 1.180207
 15 2.136495 -0.000000 0.000002 -0.000000 0.000000 -0.078540
 16 2.313140 0.000001 -0.000001 0.000000 0.000000 0.000000
 17 3.115507 -0.886043 -0.021432 -0.166499 0.000392 0.514872
 18 2.011150 -0.000000 -0.000000 -0.000000 0.000000 1.322792
 19 2.141380 0.000000 -0.000000 0.000000 0.000000 0.000000
 20 1.734172 0.000001 0.000001 0.000000 -0.000000 0.660693
 21 0.000006 -4.440594 -0.000000 1.570544 -0.062990 -0.195737
 22 6.000000 -0.000000 -0.000001 2.966202 -0.000000 -0.000000
 23 0.000002 -4.440601 -0.000001 1.569944 -0.062987 0.004053
 24 11.375562 0.000000 0.000002 -2.543653 0.425577 -0.246205
 25 -0.000001 -4.440604 -0.000001 1.570144 -0.062988 0.004040
 26 10.510131 0.000000 -0.000000 0.000000 -0.000000 -1.860159
 27 -0.000001 -1.748399 4.999999 -0.000000 0.004007 1.602291
 28 5.499998 -0.000000 0.000000 0.232970 -0.000000 0.000000
 29 -0.000004 -1.940598 5.000000 -0.044472 0.004003 -0.000180
 30 6.551491 0.000000 0.000001 -0.510122 0.628506 -0.447239
 31 0.000001 -1.940599 5.000002 -0.027189 -0.053376 0.005295
 32 6.551491 0.000000 0.000001 -0.185679 0.316708 -0.154144
 33 -0.000001 -1.940599 4.999996 -0.066572 -0.152786 -0.110311
 34 0.095418 -0.767879 -1.548590 2.875541 1.465673 -0.477222
 35 6.384777 -0.000000 -0.000001 -0.749631 -0.540848 -0.308657
 36 10.242682 -0.000003 0.000001 -0.000000 0.000000 -2.054675
 37 11.375561 -0.000002 -0.000000 2.211369 0.149283 0.669601
 38 0.728681 0.023431 1.008292 -1.579583 -0.319038 0.212973
 39 2.136497 0.000001 -0.000000 -0.000000 -0.000000 1.282817
 40 2.313139 0.000000 0.000000 0.000000 0.000000 3.141593
 41 3.115506 -0.886041 0.021432 0.708959 0.171755 0.347804
 42 2.011148 0.000001 0.000000 -0.000000 0.000000 2.082010
 43 2.141380 -0.000002 -0.000000 0.000000 0.000000 3.141593
 44 1.734172 -0.000002 0.000000 -0.000000 0.000000 1.041748
 45 0.136315 -3.738195 2.525890 1.493698 2.759406 -1.474501
 46 5.613159 0.862367 3.157032 1.595152 -0.135386 0.061522
 47 11.389366 -0.000822 0.158781 1.877887 0.131682 0.333586
 48 0.000001 -4.440598 -0.000000 1.570144 -3.078602 0.004040
 49 6.000000 -0.000002 -0.000000 1.877887 -0.000000 0.000000
 50 0.000001 -4.440600 0.000001 1.569944 -3.078603 0.004053
 51 10.510133 -0.000002 0.000001 0.000000 -0.000000 -2.598134
 52 -0.000001 -1.748400 -5.000000 3.141593 0.004007 -1.539299
 53 5.500000 -0.000001 -0.000000 0.222041 0.000000 0.000000
 54 -0.000001 -0.000000 -4.999999 -0.044472 3.137589 -0.000177
 55 6.551491 -0.000000 -0.000000 -0.222041 -0.172903 -0.168349
 56 -1.266843 -1.937443 -4.950558 -0.066572 -2.988806 -0.110308
 57 6.551491 -0.000000 -0.000000 -0.222041 -0.172903 -0.168349
 58 0.699370 -1.944207 -5.006848 -0.027189 -3.088217 0.005298
 59 4.226147 -0.003201 -0.000000 0.231364 0.044832 0.140728
 60 -0.000002 5.000002 -0.000000 -0.153564 0.000087 2.718702
 61 0.000004 -0.000004 -3.713580 0.365818 2.880119 -0.191589
 62 0.000003 -0.000000 5.000000 3.053196 1.558589 -0.074928
 63 -0.000007 0.000006 3.713580 -0.001619 -3.122277 -0.475127
 64 0.000001 -0.000000 -5.000000 -0.088725 1.558589 3.066336
 65 7.363602 1.646647 0.495663 3.141593 -1.570796 0.000000
 66 -0.000005 0.000007 3.619081 0.008255 -3.110080 -0.985231
 67 16.573919 0.000003 0.000000 0.000000 0.000000 -1.065827
 68 15.128181 0.000001 -0.000000 -0.102296 0.010178 0.114297
 69 5.758665 4.244730 -0.000000 0.000000 -0.000000 1.667687
 70 3.177726 0.000000 0.000000 0.000000 0.000000 3.141593
 71 15.708952 0.000001 0.000000 -0.051525 0.003996 0.061523
 72 0.275148 0.189215 -3.445208 3.130898 0.000409 -1.514604
 73 17.210192 0.000002 0.000000 0.000000 0.000000 -1.893339
 74 0.000001 -0.000000 -4.999999 -0.079430 1.546568 -1.570855
 75 0.000002 -0.000003 -3.619081 0.577895 2.675801 -0.242118
 76 16.573923 -0.000001 -0.000001 0.000000 -0.000000 -1.163030
 77 15.128182 -0.000001 0.000002 0.089479 0.309197 0.659208
 78 5.758665 4.244731 -0.000000 -0.000000 0.000000 1.815142
 79 4.003934 -0.000000 -0.000000 0.000000 0.000000 0.000000
 80 15.708954 -0.000000 0.000002 0.042277 0.226871 0.443133
 81 0.273998 0.191090 3.439763 -3.130907 -0.000437 -1.508107
 82 17.210196 -0.000001 -0.000001 0.000000 -0.000000 -1.937080
 83 0.000001 -0.000001 5.000000 -0.079314 1.595025 -1.570739
end
