version 1
nodes
  0 "Bip01"  -1
  1 "Bip01 Footsteps"   0
  2 "Bip01 Pelvis"   0
  3 "Bip01 Spine"   2
  4 "Bip01 Spine1"   3
  5 "Bip01 Spine2"   4
  6 "Bip01 Spine3"   5
  7 "Bip01 Neck"   6
  8 "Bip01 Head"   7
  9 "Dummy21"   8
 10 "Bip01 L Clavicle"   7
 11 "Bip01 L UpperArm"  10
 12 "Bip01 L Forearm"  11
 13 "Bip01 L Hand"  12
 14 "Bip01 L Finger0"  13
 15 "Bip01 L Finger01"  14
 16 "Dummy06"  15
 17 "Bip01 L Finger1"  13
 18 "Bip01 L Finger11"  17
 19 "Dummy03"  18
 20 "-- L knuckle"  17
 21 "-- L knuckle_end"  20
 22 "-- L Forearm twist"  12
 23 "-- L Forearm twist_end"  22
 24 "-- L wrist"  12
 25 "-- L wrist_end"  24
 26 "-- L Elbow"  11
 27 "--L Elbow_end"  26
 28 "-- L bicep twist"  11
 29 "-- L bicep twist_end"  28
 30 "-- L shoulder outside"  10
 31 "-- L shoulder outside_end"  30
 32 "-- L Shoulder inside"  10
 33 "-- L Shoulder inside_end"  32
 34 "Bip01 R Clavicle"   7
 35 "Bip01 R UpperArm"  34
 36 "Bip01 R Forearm"  35
 37 "Bip01 R Hand"  36
 38 "Bip01 R Finger0"  37
 39 "Bip01 R Finger01"  38
 40 "Dummy01"  39
 41 "Bip01 R Finger1"  37
 42 "Bip01 R Finger11"  41
 43 "Dummy02"  42
 44 "-- R knuckle"  41
 45 "Point06"  44
 46 "Line01"  37
 47 "-- R wrist"  36
 48 "-- R wrist_end"  47
 49 "-- R forearm twist"  36
 50 "-- R forearm twist_end"  49
 51 "-- R Elbow"  35
 52 "--R Elbow_end"  51
 53 "-- R bicep twist"  35
 54 "-- R bicep twist_end"  53
 55 "-- R Shoulder inside"  34
 56 "-- R Shoulder inside_end"  55
 57 "-- R shoulder outside"  34
 58 "-- R shoulder outside_end"  57
 59 "-- Neck smooth"   6
 60 "-- neck smooth end"  59
 61 "-- R Butt"   2
 62 "--R Butt_end"  61
 63 "-- L butt"   2
 64 "--L butt_end"  63
 65 "GIGN01"   2
 66 "Bip01 L Thigh"   2
 67 "Bip01 L Calf"  66
 68 "Bip01 L Foot"  67
 69 "Bip01 L Toe0"  68
 70 "Dummy16"  69
 71 "-- L ankle"  67
 72 "-- L ankleend"  71
 73 "-- L Knee"  66
 74 "--L Knee_end"  73
 75 "Bip01 R Thigh"   2
 76 "Bip01 R Calf"  75
 77 "Bip01 R Foot"  76
 78 "Bip01 R Toe0"  77
 79 "Dummy11"  78
 80 "-- R Ankle"  76
 81 "-- R ankleend"  80
 82 "-- R Knee"  75
 83 "--R Knee_end"  82
end
skeleton
time 0
  0 -0.650000 0.000000 33.899605 -0.025849 0.174554 -1.569172
  1 5.685105 0.833237 -32.227173 -0.174512 -0.026131 1.569196
  2 -2.276935 0.000003 -1.238189 -1.570795 -1.570451 0.000000
  3 1.795864 0.712084 -0.000410 0.126890 0.183264 -0.380205
  4 4.119599 -0.003102 -0.000385 0.118513 -0.112515 0.296575
  5 4.118669 -0.003251 -0.000431 0.132411 -0.106838 0.005848
  6 4.118324 -0.003242 -0.000412 0.126205 -0.060989 -0.093648
  7 4.119915 -0.002926 -0.001492 0.443261 -0.180964 0.337538
  8 4.443600 0.000000 -0.000000 0.528642 0.203552 -0.332012
  9 9.024061 0.000000 0.000000 0.000000 0.000000 0.000000
 10 0.311853 0.734541 1.539709 0.966682 -1.135796 1.843527
 11 6.384778 0.000000 -0.000001 -0.699308 0.412721 -0.904840
 12 10.242682 -0.000000 -0.000002 0.000000 0.000000 -1.718693
 13 11.375562 -0.000001 -0.000000 -3.012834 0.526892 0.458580
 14 0.728682 0.023432 -1.008292 2.396606 0.246960 1.180207
 15 2.136496 0.000001 -0.000000 -0.000000 -0.000000 -0.078540
 16 2.313140 0.000001 -0.000001 0.000000 0.000000 0.000000
 17 3.115508 -0.886040 -0.021430 -0.166499 0.000392 0.514872
 18 2.011153 0.000002 -0.000002 0.000000 0.000000 1.322792
 19 2.141378 0.000001 -0.000001 0.000000 0.000000 0.000000
 20 1.734172 0.000000 0.000000 0.000000 0.000000 0.660693
 21 0.000004 -4.440594 0.000001 1.570544 -0.062990 -0.195737
 22 5.999999 0.000000 -0.000002 -2.719765 -0.000000 0.000000
 23 0.000000 -4.440600 0.000001 1.569944 -0.062987 0.004053
 24 11.375562 0.000000 0.000002 -2.296723 0.174045 0.347494
 25 -0.000001 -4.440604 0.000001 1.570144 -0.062988 0.004040
 26 10.510132 -0.000000 -0.000002 -0.000000 0.000000 -2.430143
 27 0.000000 -1.748402 4.999999 0.000000 0.004007 1.602290
 28 5.500001 0.000001 -0.000002 0.205174 -0.000000 -0.000000
 29 -0.000003 -1.940598 5.000000 -0.044472 0.004003 -0.000180
 30 6.551492 0.000000 -0.000000 -0.399111 0.291070 -0.566999
 31 0.000001 -1.940598 5.000000 -0.027189 -0.053376 0.005295
 32 6.551492 0.000000 -0.000000 -0.166942 0.166320 -0.252216
 33 -0.000001 -1.940599 4.999998 -0.066572 -0.152786 -0.110311
 34 -0.311847 -0.727465 -1.539710 1.043624 1.229924 -2.502670
 35 6.384776 -0.000000 -0.000002 -0.619458 -0.792959 -0.603534
 36 10.242682 0.000001 -0.000001 -0.000000 -0.000000 -1.684343
 37 11.375562 0.000001 0.000001 1.961041 0.702222 -0.519133
 38 0.728680 0.023431 1.008291 -1.579583 -0.319038 0.212973
 39 2.136496 -0.000000 0.000000 -0.000000 0.000000 1.282817
 40 2.313138 -0.000002 0.000000 0.000000 0.000000 3.141593
 41 3.115505 -0.886041 0.021429 0.708959 0.171755 0.347804
 42 2.011150 -0.000001 0.000000 0.000000 0.000000 2.082010
 43 2.141380 -0.000002 0.000000 0.000000 0.000000 3.141593
 44 1.734173 -0.000000 0.000002 -0.000000 0.000000 1.041748
 45 0.136315 -3.738193 2.525891 1.493698 2.759406 -1.474501
 46 5.613160 0.862367 3.157031 1.595152 -0.135386 0.061522
 47 11.389367 -0.000820 0.158782 1.798194 0.332403 -0.278241
 48 0.000000 -4.440599 -0.000001 1.570144 -3.078602 0.004040
 49 6.000001 0.000001 0.000002 1.798194 -0.000000 -0.000000
 50 0.000002 -4.440601 -0.000002 1.569944 -3.078603 0.004053
 51 10.510134 -0.000001 0.000002 0.000000 0.000000 -2.412968
 52 0.000000 -1.748400 -5.000002 -3.141593 0.004007 -1.539299
 53 5.500000 0.000001 -0.000001 0.206766 0.000000 0.000000
 54 0.000000 0.000001 -5.000001 -0.044472 3.137590 -0.000177
 55 6.551491 -0.000000 0.000001 -0.206766 -0.208884 -0.214635
 56 -1.266843 -1.937444 -4.950559 -0.066572 -2.988806 -0.110308
 57 6.551491 -0.000001 0.000001 -0.206766 -0.208884 -0.214635
 58 0.699371 -1.944209 -5.006845 -0.027189 -3.088217 0.005298
 59 4.226143 -0.003201 0.000000 0.181548 -0.056333 0.156599
 60 0.000002 5.000001 0.000000 -0.153564 0.000087 2.718702
 61 0.000004 -0.000004 -3.713580 0.365818 2.880119 -0.191589
 62 0.000003 -0.000000 5.000000 3.053196 1.558589 -0.074928
 63 -0.000007 0.000006 3.713580 -0.001619 -3.122277 -0.475127
 64 0.000001 -0.000000 -5.000000 -0.088725 1.558589 3.066336
 65 7.363602 1.646647 0.495663 3.141593 -1.570796 0.000000
 66 -0.000005 0.000007 3.619081 0.008255 -3.110080 -0.985231
 67 16.573919 0.000003 0.000000 0.000000 0.000000 -1.065827
 68 15.128181 0.000001 -0.000000 -0.102296 0.010178 0.114297
 69 5.758665 4.244730 -0.000000 0.000000 -0.000000 1.667687
 70 3.177726 0.000000 0.000000 0.000000 0.000000 3.141593
 71 15.708952 0.000001 0.000000 -0.051525 0.003996 0.061523
 72 0.275148 0.189215 -3.445208 3.130898 0.000409 -1.514604
 73 17.210192 0.000002 0.000000 0.000000 0.000000 -1.893339
 74 0.000001 -0.000000 -4.999999 -0.079430 1.546568 -1.570855
 75 0.000002 -0.000003 -3.619081 0.577895 2.675801 -0.242118
 76 16.573923 -0.000001 -0.000001 0.000000 -0.000000 -1.163030
 77 15.128182 -0.000001 0.000002 0.089479 0.309197 0.659208
 78 5.758665 4.244731 -0.000000 -0.000000 0.000000 1.815142
 79 4.003934 -0.000000 -0.000000 0.000000 0.000000 0.000000
 80 15.708954 -0.000000 0.000002 0.042277 0.226871 0.443133
 81 0.273998 0.191090 3.439763 -3.130907 -0.000437 -1.508107
 82 17.210196 -0.000001 -0.000001 0.000000 -0.000000 -1.937080
 83 0.000001 -0.000001 5.000000 -0.079314 1.595025 -1.570739
time 1
  0 -0.650000 0.000000 33.899605 -0.025849 0.174554 -1.569172
  1 5.685105 0.833237 -32.227173 -0.174512 -0.026131 1.569196
  2 -2.276935 0.000003 -1.238189 -1.570795 -1.570451 0.000000
  3 1.795864 0.712085 -0.000421 0.129935 0.172097 -0.381383
  4 4.119593 -0.003101 -0.000397 0.121883 -0.109806 0.296692
  5 4.118671 -0.003250 -0.000442 0.135901 -0.100625 0.006396
  6 4.118325 -0.003240 -0.000424 0.129725 -0.056913 -0.093331
  7 4.120040 -0.002880 -0.001469 0.437219 -0.196942 0.372067
  8 4.443598 0.000002 0.000000 0.510674 0.218079 -0.403044
  9 9.024060 0.000000 -0.000000 0.000000 0.000000 0.000000
 10 0.339040 0.723027 1.539387 0.966948 -1.135366 1.805797
 11 6.384777 -0.000000 0.000004 -0.736798 0.366378 -0.943474
 12 10.242682 -0.000002 0.000002 -0.000000 -0.000000 -1.638576
 13 11.375563 0.000001 -0.000000 -3.042222 0.563684 0.374465
 14 0.728680 0.023432 -1.008292 2.396606 0.246960 1.180207
 15 2.136498 -0.000000 0.000001 -0.000000 -0.000000 -0.078540
 16 2.313141 -0.000000 0.000002 0.000000 0.000000 0.000000
 17 3.115506 -0.886041 -0.021431 -0.166499 0.000392 0.514872
 18 2.011150 -0.000000 0.000002 0.000000 -0.000000 1.322792
 19 2.141380 0.000000 -0.000000 0.000000 0.000000 0.000000
 20 1.734173 0.000001 0.000000 -0.000000 0.000000 0.660693
 21 0.000005 -4.440594 -0.000001 1.570544 -0.062990 -0.195737
 22 6.000002 0.000000 -0.000000 -2.736151 0.000000 -0.000000
 23 0.000002 -4.440601 -0.000000 1.569944 -0.062987 0.004053
 24 11.375566 -0.000000 0.000003 -2.301996 0.208132 0.317484
 25 -0.000001 -4.440602 -0.000002 1.570144 -0.062988 0.004040
 26 10.510129 -0.000002 0.000002 -0.000000 -0.000000 -2.390084
 27 0.000001 -1.748400 5.000000 0.000000 0.004007 1.602290
 28 5.499999 -0.000001 0.000001 0.222734 0.000000 0.000000
 29 -0.000000 -1.940598 5.000000 -0.044472 0.004003 -0.000180
 30 6.551491 -0.000000 0.000003 -0.428990 0.269275 -0.584717
 31 0.000001 -1.940598 5.000002 -0.027189 -0.053376 0.005295
 32 6.551491 -0.000000 0.000003 -0.181491 0.158494 -0.259902
 33 -0.000001 -1.940600 4.999997 -0.066572 -0.152786 -0.110311
 34 -0.339042 -0.715946 -1.539387 1.129497 1.327522 -2.440714
 35 6.384777 0.000000 -0.000000 -0.514931 -0.876930 -0.630234
 36 10.242683 -0.000000 -0.000001 -0.000000 -0.000000 -1.648934
 37 11.375561 -0.000002 0.000001 1.893913 0.723114 -0.535281
 38 0.728681 0.023431 1.008291 -1.579583 -0.319038 0.212973
 39 2.136495 0.000002 0.000000 -0.000000 0.000000 1.282817
 40 2.313139 -0.000001 0.000000 0.000000 0.000000 3.141593
 41 3.115508 -0.886041 0.021433 0.708959 0.171755 0.347804
 42 2.011150 -0.000000 -0.000003 0.000000 0.000000 2.082010
 43 2.141380 -0.000000 0.000002 0.000000 0.000000 3.141593
 44 1.734172 -0.000000 -0.000000 0.000000 0.000000 1.041748
 45 0.136317 -3.738192 2.525891 1.493698 2.759406 -1.474501
 46 5.613162 0.862367 3.157032 1.595152 -0.135386 0.061522
 47 11.389365 -0.000820 0.158784 1.769952 0.346030 -0.279269
 48 -0.000000 -4.440598 -0.000001 1.570144 -3.078602 0.004040
 49 5.999999 -0.000000 0.000002 1.769952 -0.000000 -0.000000
 50 0.000001 -4.440602 -0.000000 1.569944 -3.078603 0.004053
 51 10.510131 -0.000000 -0.000000 0.000000 -0.000000 -2.395263
 52 0.000001 -1.748401 -5.000001 3.141593 0.004007 -1.539299
 53 5.500001 -0.000001 -0.000000 0.181736 -0.000000 -0.000000
 54 0.000001 -0.000001 -5.000000 -0.044472 3.137589 -0.000177
 55 6.551492 0.000000 -0.000003 -0.181736 -0.246691 -0.207849
 56 -1.266843 -1.937444 -4.950560 -0.066572 -2.988806 -0.110308
 57 6.551492 -0.000000 -0.000003 -0.181736 -0.246691 -0.207849
 58 0.699370 -1.944208 -5.006849 -0.027189 -3.088217 0.005298
 59 4.226144 -0.003201 0.000000 0.180049 -0.060902 0.170530
 60 -0.000001 5.000001 0.000000 -0.153564 0.000087 2.718702
 61 0.000004 -0.000004 -3.713580 0.365818 2.880119 -0.191589
 62 0.000003 -0.000000 5.000000 3.053196 1.558589 -0.074928
 63 -0.000007 0.000006 3.713580 -0.001619 -3.122277 -0.475127
 64 0.000001 -0.000000 -5.000000 -0.088725 1.558589 3.066336
 65 7.363602 1.646647 0.495663 3.141593 -1.570796 0.000000
 66 -0.000005 0.000007 3.619081 0.008255 -3.110080 -0.985231
 67 16.573919 0.000003 0.000000 0.000000 0.000000 -1.065827
 68 15.128181 0.000001 -0.000000 -0.102296 0.010178 0.114297
 69 5.758665 4.244730 -0.000000 0.000000 -0.000000 1.667687
 70 3.177726 0.000000 0.000000 0.000000 0.000000 3.141593
 71 15.708952 0.000001 0.000000 -0.051525 0.003996 0.061523
 72 0.275148 0.189215 -3.445208 3.130898 0.000409 -1.514604
 73 17.210192 0.000002 0.000000 0.000000 0.000000 -1.893339
 74 0.000001 -0.000000 -4.999999 -0.079430 1.546568 -1.570855
 75 0.000002 -0.000003 -3.619081 0.577895 2.675801 -0.242118
 76 16.573923 -0.000001 -0.000001 0.000000 -0.000000 -1.163030
 77 15.128182 -0.000001 0.000002 0.089479 0.309197 0.659208
 78 5.758665 4.244731 -0.000000 -0.000000 0.000000 1.815142
 79 4.003934 -0.000000 -0.000000 0.000000 0.000000 0.000000
 80 15.708954 -0.000000 0.000002 0.042277 0.226871 0.443133
 81 0.273998 0.191090 3.439763 -3.130907 -0.000437 -1.508107
 82 17.210196 -0.000001 -0.000001 0.000000 -0.000000 -1.937080
 83 0.000001 -0.000001 5.000000 -0.079314 1.595025 -1.570739
time 2
  0 -0.650000 0.000000 33.899605 -0.025849 0.174554 -1.569172
  1 5.685105 0.833237 -32.227173 -0.174512 -0.026131 1.569196
  2 -2.276935 0.000003 -1.238189 -1.570795 -1.570451 0.000000
  3 1.795860 0.712087 -0.000431 0.132987 0.160934 -0.382594
  4 4.119596 -0.003099 -0.000407 0.125253 -0.107098 0.296819
  5 4.118667 -0.003247 -0.000454 0.139394 -0.094413 0.006966
  6 4.118324 -0.003239 -0.000435 0.133246 -0.052839 -0.093000
  7 4.120161 -0.002830 -0.001444 0.430597 -0.212706 0.406808
  8 4.443600 0.000000 -0.000000 0.492280 0.231568 -0.474717
  9 9.024064 -0.000000 0.000000 0.000000 0.000000 0.000000
 10 0.365789 0.710494 1.539069 0.967175 -1.134932 1.768102
 11 6.384778 0.000000 0.000000 -0.770235 0.318751 -0.981083
 12 10.242682 -0.000001 -0.000001 -0.000000 -0.000000 -1.554633
 13 11.375563 0.000001 0.000001 -3.074458 0.596376 0.285559
 14 0.728680 0.023431 -1.008293 2.396606 0.246960 1.180207
 15 2.136497 0.000000 -0.000000 0.000000 -0.000000 -0.078540
 16 2.313138 -0.000000 0.000000 0.000000 0.000000 0.000000
 17 3.115506 -0.886042 -0.021431 -0.166499 0.000392 0.514872
 18 2.011153 0.000002 -0.000000 0.000000 0.000000 1.322792
 19 2.141378 -0.000000 -0.000001 0.000000 0.000000 0.000000
 20 1.734174 0.000002 -0.000001 0.000000 0.000000 0.660693
 21 0.000008 -4.440593 -0.000002 1.570544 -0.062990 -0.195737
 22 6.000001 0.000001 0.000001 -2.754307 0.000000 -0.000000
 23 -0.000000 -4.440600 0.000002 1.569944 -0.062987 0.004053
 24 11.375565 -0.000000 0.000005 -2.307040 0.241767 0.284238
 25 -0.000002 -4.440603 -0.000001 1.570144 -0.062988 0.004040
 26 10.510131 0.000001 -0.000002 0.000000 0.000000 -2.348113
 27 -0.000001 -1.748401 4.999999 -0.000000 0.004007 1.602290
 28 5.499999 -0.000001 -0.000000 0.239509 -0.000000 0.000000
 29 -0.000003 -1.940599 5.000002 -0.044472 0.004003 -0.000180
 30 6.551492 0.000001 0.000000 -0.457605 0.247304 -0.602832
 31 0.000002 -1.940598 5.000001 -0.027189 -0.053376 0.005295
 32 6.551492 0.000001 0.000000 -0.195337 0.150682 -0.267764
 33 0.000001 -1.940599 4.999995 -0.066572 -0.152786 -0.110311
 34 -0.365782 -0.703419 -1.539070 1.339251 1.420741 -2.260190
 35 6.384778 -0.000001 0.000000 -0.402401 -0.954845 -0.664171
 36 10.242683 -0.000000 -0.000001 0.000000 0.000000 -1.615280
 37 11.375561 -0.000000 0.000001 1.826886 0.742732 -0.557361
 38 0.728682 0.023431 1.008293 -1.579583 -0.319038 0.212973
 39 2.136496 -0.000001 -0.000000 0.000000 0.000000 1.282817
 40 2.313140 0.000002 0.000000 0.000000 0.000000 3.141593
 41 3.115507 -0.886041 0.021432 0.708959 0.171755 0.347804
 42 2.011151 0.000000 0.000001 0.000000 0.000000 2.082010
 43 2.141379 -0.000000 0.000001 0.000000 0.000000 3.141593
 44 1.734172 -0.000002 -0.000000 -0.000000 0.000000 1.041748
 45 0.136315 -3.738192 2.525893 1.493698 2.759406 -1.474501
 46 5.613160 0.862367 3.157031 1.595152 -0.135386 0.061522
 47 11.389367 -0.000818 0.158783 1.742850 0.358675 -0.282591
 48 -0.000000 -4.440599 -0.000000 1.570144 -3.078602 0.004040
 49 6.000000 0.000002 0.000001 1.742850 0.000000 0.000000
 50 0.000002 -4.440602 0.000002 1.569944 -3.078603 0.004053
 51 10.510132 -0.000001 -0.000001 0.000000 0.000000 -2.378436
 52 0.000000 -1.748403 -5.000003 -3.141593 0.004007 -1.539299
 53 5.500001 -0.000001 -0.000000 0.160357 0.000000 -0.000000
 54 0.000002 -0.000000 -5.000000 -0.044472 3.137589 -0.000177
 55 6.551492 -0.000001 0.000001 -0.160357 -0.278760 -0.203969
 56 -1.266843 -1.937444 -4.950559 -0.066572 -2.988806 -0.110308
 57 6.551493 -0.000000 0.000001 -0.160357 -0.278760 -0.203969
 58 0.699371 -1.944209 -5.006844 -0.027189 -3.088217 0.005298
 59 4.226145 -0.003201 0.000000 0.178466 -0.065383 0.184153
 60 -0.000000 5.000001 0.000000 -0.153564 0.000087 2.718702
 61 0.000004 -0.000004 -3.713580 0.365818 2.880119 -0.191589
 62 0.000003 -0.000000 5.000000 3.053196 1.558589 -0.074928
 63 -0.000007 0.000006 3.713580 -0.001619 -3.122277 -0.475127
 64 0.000001 -0.000000 -5.000000 -0.088725 1.558589 3.066336
 65 7.363602 1.646647 0.495663 3.141593 -1.570796 0.000000
 66 -0.000005 0.000007 3.619081 0.008255 -3.110080 -0.985231
 67 16.573919 0.000003 0.000000 0.000000 0.000000 -1.065827
 68 15.128181 0.000001 -0.000000 -0.102296 0.010178 0.114297
 69 5.758665 4.244730 -0.000000 0.000000 -0.000000 1.667687
 70 3.177726 0.000000 0.000000 0.000000 0.000000 3.141593
 71 15.708952 0.000001 0.000000 -0.051525 0.003996 0.061523
 72 0.275148 0.189215 -3.445208 3.130898 0.000409 -1.514604
 73 17.210192 0.000002 0.000000 0.000000 0.000000 -1.893339
 74 0.000001 -0.000000 -4.999999 -0.079430 1.546568 -1.570855
 75 0.000002 -0.000003 -3.619081 0.577895 2.675801 -0.242118
 76 16.573923 -0.000001 -0.000001 0.000000 -0.000000 -1.163030
 77 15.128182 -0.000001 0.000002 0.089479 0.309197 0.659208
 78 5.758665 4.244731 -0.000000 -0.000000 0.000000 1.815142
 79 4.003934 -0.000000 -0.000000 0.000000 0.000000 0.000000
 80 15.708954 -0.000000 0.000002 0.042277 0.226871 0.443133
 81 0.273998 0.191090 3.439763 -3.130907 -0.000437 -1.508107
 82 17.210196 -0.000001 -0.000001 0.000000 -0.000000 -1.937080
 83 0.000001 -0.000001 5.000000 -0.079314 1.595025 -1.570739
time 3
  0 -0.650000 0.000000 33.899605 -0.025849 0.174554 -1.569172
  1 5.685105 0.833237 -32.227173 -0.174512 -0.026131 1.569196
  2 -2.276935 0.000003 -1.238189 -1.570795 -1.570451 0.000000
  3 1.795864 0.712087 -0.000436 0.134354 0.154840 -0.383305
  4 4.119594 -0.003099 -0.000413 0.126781 -0.105560 0.296922
  5 4.118671 -0.003247 -0.000459 0.140975 -0.091081 0.007310
  6 4.118329 -0.003238 -0.000441 0.134845 -0.050682 -0.092800
  7 4.120162 -0.002830 -0.001444 0.430597 -0.212706 0.406808
  8 4.443600 0.000000 -0.000000 0.487589 0.229722 -0.476112
  9 9.024061 0.000000 0.000001 0.000000 0.000000 0.000000
 10 0.365785 0.710496 1.539069 0.967175 -1.134932 1.768102
 11 6.384776 0.000000 0.000000 -0.789207 0.288382 -1.001847
 12 10.242682 -0.000001 0.000001 -0.000000 0.000000 -1.504854
 13 11.375563 0.000000 0.000001 -3.094018 0.614638 0.233365
 14 0.728680 0.023432 -1.008291 2.396606 0.246960 1.180207
 15 2.136499 -0.000000 0.000003 -0.000000 -0.000000 -0.078540
 16 2.313138 -0.000000 -0.000002 0.000000 0.000000 0.000000
 17 3.115506 -0.886042 -0.021430 -0.166499 0.000392 0.514872
 18 2.011149 -0.000001 0.000004 0.000000 -0.000000 1.322792
 19 2.141380 -0.000002 -0.000002 0.000000 0.000000 0.000000
 20 1.734174 0.000001 0.000000 -0.000000 0.000000 0.660693
 21 0.000005 -4.440594 -0.000002 1.570544 -0.062990 -0.195737
 22 6.000000 -0.000000 0.000000 -2.765483 0.000000 -0.000000
 23 0.000001 -4.440601 0.000000 1.569944 -0.062987 0.004053
 24 11.375562 0.000001 0.000004 -2.309763 0.261252 0.264398
 25 0.000002 -4.440604 -0.000001 1.570144 -0.062988 0.004040
 26 10.510132 0.000002 -0.000001 0.000000 0.000000 -2.323224
 27 0.000003 -1.748401 5.000000 0.000000 0.004007 1.602291
 28 5.500000 -0.000001 0.000001 0.249960 -0.000000 -0.000000
 29 -0.000002 -1.940599 5.000002 -0.044472 0.004003 -0.000180
 30 6.551491 0.000001 -0.000001 -0.475372 0.233110 -0.613483
 31 -0.000001 -1.940599 5.000003 -0.027189 -0.053376 0.005295
 32 6.551491 0.000001 -0.000001 -0.203953 0.145640 -0.272385
 33 -0.000001 -1.940600 4.999997 -0.066572 -0.152786 -0.110311
 34 -0.365782 -0.703419 -1.539070 -1.498008 1.673007 1.188176
 35 6.384776 -0.000000 0.000003 -0.329019 -0.997933 -0.691168
 36 10.242685 -0.000001 0.000001 -0.000000 0.000000 -1.596237
 37 11.375561 -0.000001 -0.000002 1.788381 0.753501 -0.572592
 38 0.728680 0.023432 1.008291 -1.579583 -0.319038 0.212973
 39 2.136498 -0.000003 -0.000000 -0.000000 -0.000000 1.282817
 40 2.313140 0.000002 0.000001 0.000000 0.000000 3.141593
 41 3.115506 -0.886040 0.021432 0.708959 0.171755 0.347804
 42 2.011151 -0.000000 -0.000001 -0.000000 0.000000 2.082010
 43 2.141380 -0.000000 0.000000 0.000000 0.000000 3.141593
 44 1.734173 0.000000 0.000001 0.000000 0.000000 1.041748
 45 0.136314 -3.738194 2.525890 1.493698 2.759406 -1.474501
 46 5.613161 0.862367 3.157033 1.595152 -0.135386 0.061522
 47 11.389367 -0.000821 0.158780 1.727764 0.365620 -0.285440
 48 -0.000000 -4.440599 -0.000002 1.570144 -3.078602 0.004040
 49 6.000000 -0.000001 -0.000001 1.727764 -0.000000 0.000000
 50 0.000001 -4.440601 0.000000 1.569944 -3.078603 0.004053
 51 10.510133 0.000000 0.000000 -0.000000 -0.000000 -2.368915
 52 0.000000 -1.748398 -5.000000 -3.141593 0.004007 -1.539299
 53 5.500001 0.000000 -0.000000 0.148910 0.000000 0.000000
 54 0.000001 -0.000000 -4.999999 -0.044472 3.137589 -0.000177
 55 6.551490 -0.000000 0.000003 -0.148910 -0.295404 -0.203035
 56 -1.266843 -1.937443 -4.950561 -0.066572 -2.988806 -0.110308
 57 6.551491 0.000000 0.000003 -0.148910 -0.295404 -0.203035
 58 0.699370 -1.944209 -5.006848 -0.027189 -3.088217 0.005298
 59 4.226147 -0.003201 0.000000 0.178466 -0.065383 0.184153
 60 0.000001 5.000001 -0.000000 -0.153564 0.000087 2.718702
 61 0.000004 -0.000004 -3.713580 0.365818 2.880119 -0.191589
 62 0.000003 -0.000000 5.000000 3.053196 1.558589 -0.074928
 63 -0.000007 0.000006 3.713580 -0.001619 -3.122277 -0.475127
 64 0.000001 -0.000000 -5.000000 -0.088725 1.558589 3.066336
 65 7.363602 1.646647 0.495663 3.141593 -1.570796 0.000000
 66 -0.000005 0.000007 3.619081 0.008255 -3.110080 -0.985231
 67 16.573919 0.000003 0.000000 0.000000 0.000000 -1.065827
 68 15.128181 0.000001 -0.000000 -0.102296 0.010178 0.114297
 69 5.758665 4.244730 -0.000000 0.000000 -0.000000 1.667687
 70 3.177726 0.000000 0.000000 0.000000 0.000000 3.141593
 71 15.708952 0.000001 0.000000 -0.051525 0.003996 0.061523
 72 0.275148 0.189215 -3.445208 3.130898 0.000409 -1.514604
 73 17.210192 0.000002 0.000000 0.000000 0.000000 -1.893339
 74 0.000001 -0.000000 -4.999999 -0.079430 1.546568 -1.570855
 75 0.000002 -0.000003 -3.619081 0.577895 2.675801 -0.242118
 76 16.573923 -0.000001 -0.000001 0.000000 -0.000000 -1.163030
 77 15.128182 -0.000001 0.000002 0.089479 0.309197 0.659208
 78 5.758665 4.244731 -0.000000 -0.000000 0.000000 1.815142
 79 4.003934 -0.000000 -0.000000 0.000000 0.000000 0.000000
 80 15.708954 -0.000000 0.000002 0.042277 0.226871 0.443133
 81 0.273998 0.191090 3.439763 -3.130907 -0.000437 -1.508107
 82 17.210196 -0.000001 -0.000001 0.000000 -0.000000 -1.937080
 83 0.000001 -0.000001 5.000000 -0.079314 1.595025 -1.570739
time 4
  0 -0.650000 0.000000 33.899605 -0.025849 0.174554 -1.569172
  1 5.685105 0.833237 -32.227173 -0.174512 -0.026131 1.569196
  2 -2.276935 0.000003 -1.238189 -1.570795 -1.570451 0.000000
  3 1.795860 0.712088 -0.000435 0.134024 0.153835 -0.383489
  4 4.119598 -0.003098 -0.000411 0.126459 -0.105199 0.296994
  5 4.118669 -0.003247 -0.000458 0.140638 -0.090638 0.007411
  6 4.118326 -0.003238 -0.000439 0.134514 -0.050447 -0.092742
  7 4.120158 -0.002830 -0.001443 0.430597 -0.212706 0.406808
  8 4.443599 -0.000000 0.000000 0.489154 0.229399 -0.476087
  9 9.024062 0.000000 0.000000 0.000000 0.000000 0.000000
 10 0.365786 0.710495 1.539070 0.967175 -1.134932 1.768102
 11 6.384776 0.000000 0.000000 -0.796333 0.276423 -1.006172
 12 10.242683 0.000001 -0.000002 0.000000 0.000000 -1.492424
 13 11.375565 -0.000002 -0.000000 -3.098856 0.621332 0.221525
 14 0.728680 0.023431 -1.008293 2.396606 0.246960 1.180207
 15 2.136496 0.000000 0.000002 0.000000 0.000000 -0.078540
 16 2.313141 -0.000000 0.000001 0.000000 0.000000 0.000000
 17 3.115506 -0.886040 -0.021432 -0.166499 0.000392 0.514872
 18 2.011152 0.000002 0.000001 0.000000 0.000000 1.322792
 19 2.141377 -0.000000 0.000001 0.000000 0.000000 0.000000
 20 1.734171 -0.000001 0.000002 0.000000 -0.000000 0.660693
 21 0.000004 -4.440594 0.000002 1.570544 -0.062990 -0.195737
 22 6.000000 0.000001 -0.000001 -2.768245 0.000000 0.000000
 23 0.000003 -4.440600 0.000000 1.569944 -0.062987 0.004053
 24 11.375564 -0.000001 0.000002 -2.310279 0.266854 0.260435
 25 -0.000000 -4.440602 0.000001 1.570144 -0.062988 0.004040
 26 10.510132 0.000002 -0.000002 0.000000 0.000000 -2.317008
 27 0.000001 -1.748402 4.999998 0.000000 0.004007 1.602290
 28 5.500001 0.000002 -0.000002 0.254447 -0.000000 -0.000000
 29 -0.000002 -1.940599 5.000001 -0.044472 0.004003 -0.000180
 30 6.551491 0.000000 -0.000002 -0.482844 0.227098 -0.616129
 31 -0.000000 -1.940599 5.000003 -0.027189 -0.053376 0.005295
 32 6.551491 0.000000 -0.000002 -0.207676 0.143446 -0.273546
 33 0.000000 -1.940599 4.999994 -0.066572 -0.152786 -0.110311
 34 -0.365781 -0.703420 -1.539069 -1.337388 1.661085 1.349185
 35 6.384776 0.000000 0.000002 -0.301116 -1.010229 -0.705826
 36 10.242683 0.000000 -0.000001 0.000000 -0.000000 -1.590458
 37 11.375562 0.000000 -0.000000 1.777932 0.756450 -0.577362
 38 0.728681 0.023431 1.008293 -1.579583 -0.319038 0.212973
 39 2.136498 -0.000001 -0.000000 0.000000 0.000000 1.282817
 40 2.313139 0.000002 -0.000000 0.000000 0.000000 3.141593
 41 3.115506 -0.886041 0.021431 0.708959 0.171755 0.347804
 42 2.011151 0.000001 -0.000001 -0.000000 0.000000 2.082010
 43 2.141379 0.000001 -0.000002 0.000000 0.000000 3.141593
 44 1.734173 -0.000000 -0.000000 -0.000000 -0.000000 1.041748
 45 0.136315 -3.738192 2.525891 1.493698 2.759406 -1.474501
 46 5.613160 0.862367 3.157032 1.595152 -0.135386 0.061522
 47 11.389367 -0.000819 0.158782 1.723769 0.367504 -0.286455
 48 0.000000 -4.440600 -0.000001 1.570144 -3.078602 0.004040
 49 6.000000 -0.000000 -0.000001 1.723769 0.000000 0.000000
 50 0.000001 -4.440602 0.000000 1.569944 -3.078603 0.004053
 51 10.510133 0.000001 -0.000000 -0.000000 0.000000 -2.366025
 52 -0.000001 -1.748399 -5.000000 -3.141593 0.004007 -1.539299
 53 5.500000 0.000001 -0.000001 0.144973 -0.000000 -0.000000
 54 0.000000 -0.000000 -5.000000 -0.044472 3.137589 -0.000177
 55 6.551490 0.000000 0.000001 -0.144973 -0.300088 -0.203599
 56 -1.266844 -1.937443 -4.950563 -0.066572 -2.988806 -0.110308
 57 6.551490 0.000000 0.000001 -0.144973 -0.300088 -0.203599
 58 0.699370 -1.944208 -5.006849 -0.027189 -3.088217 0.005298
 59 4.226144 -0.003201 0.000000 0.178466 -0.065383 0.184153
 60 0.000003 5.000001 0.000000 -0.153564 0.000087 2.718702
 61 0.000004 -0.000004 -3.713580 0.365818 2.880119 -0.191589
 62 0.000003 -0.000000 5.000000 3.053196 1.558589 -0.074928
 63 -0.000007 0.000006 3.713580 -0.001619 -3.122277 -0.475127
 64 0.000001 -0.000000 -5.000000 -0.088725 1.558589 3.066336
 65 7.363602 1.646647 0.495663 3.141593 -1.570796 0.000000
 66 -0.000005 0.000007 3.619081 0.008255 -3.110080 -0.985231
 67 16.573919 0.000003 0.000000 0.000000 0.000000 -1.065827
 68 15.128181 0.000001 -0.000000 -0.102296 0.010178 0.114297
 69 5.758665 4.244730 -0.000000 0.000000 -0.000000 1.667687
 70 3.177726 0.000000 0.000000 0.000000 0.000000 3.141593
 71 15.708952 0.000001 0.000000 -0.051525 0.003996 0.061523
 72 0.275148 0.189215 -3.445208 3.130898 0.000409 -1.514604
 73 17.210192 0.000002 0.000000 0.000000 0.000000 -1.893339
 74 0.000001 -0.000000 -4.999999 -0.079430 1.546568 -1.570855
 75 0.000002 -0.000003 -3.619081 0.577895 2.675801 -0.242118
 76 16.573923 -0.000001 -0.000001 0.000000 -0.000000 -1.163030
 77 15.128182 -0.000001 0.000002 0.089479 0.309197 0.659208
 78 5.758665 4.244731 -0.000000 -0.000000 0.000000 1.815142
 79 4.003934 -0.000000 -0.000000 0.000000 0.000000 0.000000
 80 15.708954 -0.000000 0.000002 0.042277 0.226871 0.443133
 81 0.273998 0.191090 3.439763 -3.130907 -0.000437 -1.508107
 82 17.210196 -0.000001 -0.000001 0.000000 -0.000000 -1.937080
 83 0.000001 -0.000001 5.000000 -0.079314 1.595025 -1.570739
time 5
  0 -0.650000 0.000000 33.899605 -0.025849 0.174554 -1.569172
  1 5.685105 0.833237 -32.227173 -0.174512 -0.026131 1.569196
  2 -2.276935 0.000003 -1.238189 -1.570795 -1.570451 0.000000
  3 1.795864 0.712087 -0.000432 0.133205 0.154292 -0.383520
  4 4.119598 -0.003099 -0.000409 0.125606 -0.105175 0.297057
  5 4.118666 -0.003247 -0.000455 0.139748 -0.091025 0.007442
  6 4.118325 -0.003238 -0.000436 0.133628 -0.050766 -0.092726
  7 4.120159 -0.002830 -0.001444 0.430597 -0.212706 0.406808
  8 4.443599 0.000001 -0.000000 0.492515 0.229517 -0.475653
  9 9.024061 0.000000 -0.000000 0.000000 0.000000 0.000000
 10 0.365786 0.710496 1.539069 0.967175 -1.134931 1.768102
 11 6.384776 0.000001 0.000001 -0.800273 0.269830 -1.005818
 12 10.242682 -0.000001 0.000000 0.000000 0.000000 -1.490950
 13 11.375562 0.000000 -0.000001 -3.099299 0.624936 0.221564
 14 0.728681 0.023431 -1.008291 2.396606 0.246960 1.180207
 15 2.136496 0.000001 -0.000001 -0.000000 -0.000000 -0.078540
 16 2.313138 -0.000000 -0.000000 0.000000 0.000000 0.000000
 17 3.115508 -0.886040 -0.021430 -0.166499 0.000392 0.514872
 18 2.011152 0.000001 0.000000 0.000000 0.000000 1.322792
 19 2.141379 0.000000 -0.000001 0.000000 0.000000 0.000000
 20 1.734172 -0.000001 -0.000000 0.000000 -0.000000 0.660693
 21 0.000006 -4.440594 -0.000001 1.570544 -0.062990 -0.195737
 22 6.000001 -0.000001 0.000000 -2.768471 -0.000000 -0.000000
 23 0.000000 -4.440602 0.000001 1.569944 -0.062987 0.004053
 24 11.375561 0.000001 0.000002 -2.310166 0.268502 0.261223
 25 -0.000002 -4.440603 -0.000003 1.570144 -0.062988 0.004040
 26 10.510131 0.000001 -0.000001 0.000000 0.000000 -2.316272
 27 0.000002 -1.748401 5.000000 0.000000 0.004007 1.602290
 28 5.500000 0.000001 0.000000 0.257243 -0.000000 0.000000
 29 -0.000003 -1.940599 5.000000 -0.044472 0.004003 -0.000180
 30 6.551490 0.000001 0.000000 -0.487395 0.223487 -0.616437
 31 -0.000001 -1.940599 5.000002 -0.027189 -0.053376 0.005295
 32 6.551490 0.000001 0.000000 -0.210016 0.142084 -0.273696
 33 0.000001 -1.940600 4.999999 -0.066572 -0.152786 -0.110311
 34 -0.365781 -0.703418 -1.539070 -1.263692 1.657197 1.422980
 35 6.384777 -0.000001 0.000003 -0.286818 -1.013968 -0.716479
 36 10.242683 0.000001 0.000000 -0.000000 0.000000 -1.588374
 37 11.375562 -0.000001 -0.000000 1.775476 0.757244 -0.578885
 38 0.728680 0.023431 1.008292 -1.579583 -0.319038 0.212973
 39 2.136498 -0.000002 -0.000001 0.000000 0.000000 1.282817
 40 2.313140 0.000003 0.000000 0.000000 0.000000 3.141593
 41 3.115505 -0.886041 0.021429 0.708959 0.171755 0.347804
 42 2.011151 -0.000002 -0.000003 0.000000 0.000000 2.082010
 43 2.141380 -0.000001 0.000001 0.000000 0.000000 3.141593
 44 1.734173 -0.000002 -0.000002 -0.000000 -0.000000 1.041748
 45 0.136313 -3.738192 2.525891 1.493698 2.759406 -1.474501
 46 5.613159 0.862366 3.157029 1.595152 -0.135386 0.061522
 47 11.389368 -0.000818 0.158782 1.722878 0.367982 -0.286854
 48 0.000001 -4.440600 0.000002 1.570144 -3.078602 0.004040
 49 6.000001 0.000002 0.000001 1.722878 -0.000000 0.000000
 50 0.000002 -4.440602 0.000000 1.569944 -3.078603 0.004053
 51 10.510132 0.000001 0.000001 0.000000 0.000000 -2.364983
 52 0.000000 -1.748402 -5.000001 -3.141593 0.004007 -1.539299
 53 5.500000 0.000001 0.000000 0.143015 0.000000 0.000000
 54 -0.000001 0.000001 -5.000000 -0.044472 3.137589 -0.000177
 55 6.551491 -0.000001 0.000003 -0.143014 -0.301569 -0.204523
 56 -1.266843 -1.937443 -4.950562 -0.066572 -2.988806 -0.110308
 57 6.551492 -0.000001 -0.000001 -0.143014 -0.301569 -0.204523
 58 0.699371 -1.944209 -5.006849 -0.027189 -3.088217 0.005298
 59 4.226145 -0.003201 0.000000 0.178466 -0.065383 0.184153
 60 -0.000000 5.000001 -0.000000 -0.153564 0.000087 2.718702
 61 0.000004 -0.000004 -3.713580 0.365818 2.880119 -0.191589
 62 0.000003 -0.000000 5.000000 3.053196 1.558589 -0.074928
 63 -0.000007 0.000006 3.713580 -0.001619 -3.122277 -0.475127
 64 0.000001 -0.000000 -5.000000 -0.088725 1.558589 3.066336
 65 7.363602 1.646647 0.495663 3.141593 -1.570796 0.000000
 66 -0.000005 0.000007 3.619081 0.008255 -3.110080 -0.985231
 67 16.573919 0.000003 0.000000 0.000000 0.000000 -1.065827
 68 15.128181 0.000001 -0.000000 -0.102296 0.010178 0.114297
 69 5.758665 4.244730 -0.000000 0.000000 -0.000000 1.667687
 70 3.177726 0.000000 0.000000 0.000000 0.000000 3.141593
 71 15.708952 0.000001 0.000000 -0.051525 0.003996 0.061523
 72 0.275148 0.189215 -3.445208 3.130898 0.000409 -1.514604
 73 17.210192 0.000002 0.000000 0.000000 0.000000 -1.893339
 74 0.000001 -0.000000 -4.999999 -0.079430 1.546568 -1.570855
 75 0.000002 -0.000003 -3.619081 0.577895 2.675801 -0.242118
 76 16.573923 -0.000001 -0.000001 0.000000 -0.000000 -1.163030
 77 15.128182 -0.000001 0.000002 0.089479 0.309197 0.659208
 78 5.758665 4.244731 -0.000000 -0.000000 0.000000 1.815142
 79 4.003934 -0.000000 -0.000000 0.000000 0.000000 0.000000
 80 15.708954 -0.000000 0.000002 0.042277 0.226871 0.443133
 81 0.273998 0.191090 3.439763 -3.130907 -0.000437 -1.508107
 82 17.210196 -0.000001 -0.000001 0.000000 -0.000000 -1.937080
 83 0.000001 -0.000001 5.000000 -0.079314 1.595025 -1.570739
time 6
  0 -0.650000 0.000000 33.899605 -0.025849 0.174554 -1.569172
  1 5.685105 0.833237 -32.227173 -0.174512 -0.026131 1.569196
  2 -2.276935 0.000003 -1.238189 -1.570795 -1.570451 0.000000
  3 1.795864 0.712086 -0.000429 0.132030 0.155813 -0.383442
  4 4.119591 -0.003100 -0.000405 0.124366 -0.105396 0.297114
  5 4.118673 -0.003248 -0.000451 0.138457 -0.092017 0.007422
  6 4.118318 -0.003238 -0.000432 0.132337 -0.051487 -0.092739
  7 4.120163 -0.002831 -0.001444 0.430597 -0.212706 0.406808
  8 4.443596 0.000002 0.000000 0.497183 0.229946 -0.474927
  9 9.024063 -0.000000 0.000000 0.000000 0.000000 0.000000
 10 0.365782 0.710497 1.539070 0.967175 -1.134932 1.768102
 11 6.384777 0.000000 0.000001 -0.802003 0.267113 -1.002144
 12 10.242682 -0.000001 -0.000002 0.000000 0.000000 -1.497463
 13 11.375562 -0.000003 -0.000000 -3.096496 0.626355 0.230345
 14 0.728682 0.023432 -1.008291 2.396606 0.246960 1.180207
 15 2.136495 -0.000001 -0.000001 0.000000 0.000000 -0.078540
 16 2.313140 0.000000 -0.000001 0.000000 0.000000 0.000000
 17 3.115508 -0.886040 -0.021428 -0.166499 0.000392 0.514872
 18 2.011151 0.000001 0.000000 0.000000 -0.000000 1.322792
 19 2.141379 0.000001 -0.000000 0.000000 0.000000 0.000000
 20 1.734173 0.000001 -0.000002 -0.000000 -0.000000 0.660693
 21 0.000007 -4.440595 -0.000001 1.570544 -0.062990 -0.195737
 22 5.999999 -0.000000 -0.000001 -2.766838 0.000000 -0.000000
 23 0.000002 -4.440602 0.000001 1.569944 -0.062987 0.004053
 24 11.375559 0.000000 0.000000 -2.309602 0.267295 0.265504
 25 -0.000001 -4.440604 0.000001 1.570144 -0.062988 0.004040
 26 10.510131 0.000000 -0.000002 0.000000 0.000000 -2.319528
 27 0.000000 -1.748401 4.999999 -0.000000 0.004007 1.602291
 28 5.499999 -0.000002 -0.000000 0.258837 -0.000000 0.000000
 29 -0.000002 -1.940600 5.000000 -0.044472 0.004003 -0.000180
 30 6.551492 0.000000 -0.000000 -0.489869 0.221626 -0.615069
 31 0.000000 -1.940597 5.000003 -0.027189 -0.053376 0.005295
 32 6.551492 0.000000 -0.000000 -0.211372 0.141326 -0.273121
 33 0.000002 -1.940598 4.999994 -0.066572 -0.152786 -0.110311
 34 -0.365785 -0.703418 -1.539070 -1.274618 1.657723 1.412042
 35 6.384777 0.000000 0.000001 -0.282731 -1.011631 -0.723931
 36 10.242682 -0.000000 -0.000001 0.000000 0.000000 -1.588958
 37 11.375563 0.000001 -0.000001 1.778828 0.756510 -0.577982
 38 0.728681 0.023431 1.008291 -1.579583 -0.319038 0.212973
 39 2.136497 0.000001 -0.000000 0.000000 0.000000 1.282817
 40 2.313138 -0.000002 -0.000000 0.000000 0.000000 3.141593
 41 3.115508 -0.886040 0.021430 0.708959 0.171755 0.347804
 42 2.011151 -0.000001 -0.000001 -0.000000 0.000000 2.082010
 43 2.141380 -0.000001 -0.000001 0.000000 0.000000 3.141593
 44 1.734173 -0.000001 -0.000001 -0.000000 -0.000000 1.041748
 45 0.136315 -3.738193 2.525891 1.493698 2.759406 -1.474501
 46 5.613161 0.862367 3.157031 1.595152 -0.135386 0.061522
 47 11.389366 -0.000819 0.158780 1.724234 0.367456 -0.286780
 48 0.000000 -4.440598 -0.000003 1.570144 -3.078602 0.004040
 49 5.999999 -0.000000 -0.000002 1.724234 -0.000000 -0.000000
 50 0.000001 -4.440601 -0.000003 1.569944 -3.078603 0.004053
 51 10.510132 -0.000001 0.000001 -0.000000 0.000000 -2.365275
 52 -0.000000 -1.748398 -5.000000 3.141593 0.004007 -1.539299
 53 5.500000 -0.000001 0.000000 0.142459 -0.000000 0.000000
 54 -0.000001 0.000001 -4.999999 -0.044472 3.137589 -0.000177
 55 6.551491 -0.000000 0.000002 -0.142459 -0.300774 -0.205688
 56 -1.266844 -1.937444 -4.950560 -0.066572 -2.988806 -0.110308
 57 6.551492 0.000000 0.000002 -0.142459 -0.300774 -0.205688
 58 0.699371 -1.944208 -5.006845 -0.027189 -3.088217 0.005298
 59 4.226145 -0.003202 0.000000 0.178466 -0.065383 0.184153
 60 -0.000000 5.000002 -0.000000 -0.153564 0.000087 2.718702
 61 0.000004 -0.000004 -3.713580 0.365818 2.880119 -0.191589
 62 0.000003 -0.000000 5.000000 3.053196 1.558589 -0.074928
 63 -0.000007 0.000006 3.713580 -0.001619 -3.122277 -0.475127
 64 0.000001 -0.000000 -5.000000 -0.088725 1.558589 3.066336
 65 7.363602 1.646647 0.495663 3.141593 -1.570796 0.000000
 66 -0.000005 0.000007 3.619081 0.008255 -3.110080 -0.985231
 67 16.573919 0.000003 0.000000 0.000000 0.000000 -1.065827
 68 15.128181 0.000001 -0.000000 -0.102296 0.010178 0.114297
 69 5.758665 4.244730 -0.000000 0.000000 -0.000000 1.667687
 70 3.177726 0.000000 0.000000 0.000000 0.000000 3.141593
 71 15.708952 0.000001 0.000000 -0.051525 0.003996 0.061523
 72 0.275148 0.189215 -3.445208 3.130898 0.000409 -1.514604
 73 17.210192 0.000002 0.000000 0.000000 0.000000 -1.893339
 74 0.000001 -0.000000 -4.999999 -0.079430 1.546568 -1.570855
 75 0.000002 -0.000003 -3.619081 0.577895 2.675801 -0.242118
 76 16.573923 -0.000001 -0.000001 0.000000 -0.000000 -1.163030
 77 15.128182 -0.000001 0.000002 0.089479 0.309197 0.659208
 78 5.758665 4.244731 -0.000000 -0.000000 0.000000 1.815142
 79 4.003934 -0.000000 -0.000000 0.000000 0.000000 0.000000
 80 15.708954 -0.000000 0.000002 0.042277 0.226871 0.443133
 81 0.273998 0.191090 3.439763 -3.130907 -0.000437 -1.508107
 82 17.210196 -0.000001 -0.000001 0.000000 -0.000000 -1.937080
 83 0.000001 -0.000001 5.000000 -0.079314 1.595025 -1.570739
time 7
  0 -0.650000 0.000000 33.899605 -0.025849 0.174554 -1.569172
  1 5.685105 0.833237 -32.227173 -0.174512 -0.026131 1.569196
  2 -2.276935 0.000003 -1.238189 -1.570795 -1.570451 0.000000
  3 1.795864 0.712086 -0.000424 0.130633 0.157999 -0.383298
  4 4.119596 -0.003101 -0.000400 0.122885 -0.105771 0.297166
  5 4.118666 -0.003249 -0.000446 0.136915 -0.093386 0.007374
  6 4.118322 -0.003239 -0.000427 0.130795 -0.052460 -0.092769
  7 4.120163 -0.002830 -0.001444 0.430597 -0.212706 0.406808
  8 4.443601 -0.000000 0.000000 0.502669 0.230560 -0.474022
  9 9.024064 -0.000000 0.000000 0.000000 0.000000 0.000000
 10 0.365788 0.710495 1.539070 0.967175 -1.134931 1.768102
 11 6.384776 0.000001 -0.000001 -0.802394 0.266756 -0.996473
 12 10.242682 -0.000002 0.000000 -0.000000 0.000000 -1.508887
 13 11.375566 -0.000001 -0.000001 -3.091663 0.626396 0.244595
 14 0.728680 0.023430 -1.008289 2.396606 0.246960 1.180207
 15 2.136496 0.000000 0.000000 -0.000000 -0.000000 -0.078540
 16 2.313138 0.000001 -0.000001 0.000000 0.000000 0.000000
 17 3.115507 -0.886039 -0.021431 -0.166499 0.000392 0.514872
 18 2.011150 0.000000 0.000003 -0.000000 0.000000 1.322792
 19 2.141379 -0.000001 -0.000002 0.000000 0.000000 0.000000
 20 1.734173 0.000002 0.000001 -0.000000 0.000000 0.660693
 21 0.000005 -4.440595 0.000002 1.570544 -0.062990 -0.195737
 22 6.000002 -0.000000 -0.000000 -2.764070 -0.000000 -0.000000
 23 0.000003 -4.440601 -0.000000 1.569944 -0.062987 0.004053
 24 11.375566 -0.000001 0.000002 -2.308761 0.264315 0.271943
 25 -0.000001 -4.440604 0.000003 1.570144 -0.062988 0.004040
 26 10.510130 -0.000003 0.000001 -0.000000 -0.000000 -2.325240
 27 -0.000000 -1.748401 5.000000 0.000000 0.004007 1.602290
 28 5.500000 -0.000001 0.000001 0.259701 -0.000000 -0.000000
 29 -0.000002 -1.940599 5.000001 -0.044472 0.004003 -0.000180
 30 6.551491 0.000000 -0.000003 -0.491085 0.220844 -0.612698
 31 -0.000002 -1.940601 5.000001 -0.027189 -0.053376 0.005295
 32 6.551491 0.000000 -0.000003 -0.212132 0.140944 -0.272109
 33 -0.000001 -1.940599 4.999997 -0.066572 -0.152786 -0.110311
 34 -0.365779 -0.703419 -1.539069 -1.337388 1.661085 1.349185
 35 6.384777 -0.000000 -0.000001 -0.285145 -1.005533 -0.729264
 36 10.242685 -0.000001 0.000001 -0.000000 -0.000000 -1.591225
 37 11.375560 -0.000002 -0.000002 1.785836 0.754831 -0.575570
 38 0.728680 0.023431 1.008291 -1.579583 -0.319038 0.212973
 39 2.136498 0.000001 -0.000000 0.000000 0.000000 1.282817
 40 2.313139 0.000000 -0.000000 0.000000 0.000000 3.141593
 41 3.115507 -0.886042 0.021432 0.708959 0.171755 0.347804
 42 2.011150 -0.000000 0.000000 -0.000000 0.000000 2.082010
 43 2.141379 -0.000000 -0.000002 0.000000 0.000000 3.141593
 44 1.734172 -0.000002 -0.000001 -0.000000 -0.000000 1.041748
 45 0.136314 -3.738192 2.525891 1.493698 2.759406 -1.474501
 46 5.613160 0.862366 3.157032 1.595152 -0.135386 0.061522
 47 11.389367 -0.000819 0.158781 1.727010 0.366306 -0.286412
 48 0.000001 -4.440600 0.000002 1.570144 -3.078602 0.004040
 49 6.000000 0.000000 -0.000001 1.727010 -0.000000 -0.000000
 50 0.000001 -4.440601 -0.000001 1.569944 -3.078603 0.004053
 51 10.510135 -0.000002 0.000002 0.000000 -0.000000 -2.366409
 52 -0.000000 -1.748398 -5.000001 -3.141593 0.004007 -1.539299
 53 5.500001 -0.000000 -0.000000 0.142801 -0.000000 -0.000000
 54 0.000001 -0.000000 -4.999998 -0.044472 3.137589 -0.000177
 55 6.551491 -0.000001 0.000001 -0.142801 -0.298536 -0.206997
 56 -1.266843 -1.937443 -4.950562 -0.066572 -2.988806 -0.110308
 57 6.551491 -0.000000 0.000001 -0.142801 -0.298536 -0.206997
 58 0.699371 -1.944208 -5.006845 -0.027189 -3.088217 0.005298
 59 4.226150 -0.003201 -0.000000 0.178466 -0.065383 0.184153
 60 0.000002 5.000000 0.000000 -0.153564 0.000087 2.718702
 61 0.000004 -0.000004 -3.713580 0.365818 2.880119 -0.191589
 62 0.000003 -0.000000 5.000000 3.053196 1.558589 -0.074928
 63 -0.000007 0.000006 3.713580 -0.001619 -3.122277 -0.475127
 64 0.000001 -0.000000 -5.000000 -0.088725 1.558589 3.066336
 65 7.363602 1.646647 0.495663 3.141593 -1.570796 0.000000
 66 -0.000005 0.000007 3.619081 0.008255 -3.110080 -0.985231
 67 16.573919 0.000003 0.000000 0.000000 0.000000 -1.065827
 68 15.128181 0.000001 -0.000000 -0.102296 0.010178 0.114297
 69 5.758665 4.244730 -0.000000 0.000000 -0.000000 1.667687
 70 3.177726 0.000000 0.000000 0.000000 0.000000 3.141593
 71 15.708952 0.000001 0.000000 -0.051525 0.003996 0.061523
 72 0.275148 0.189215 -3.445208 3.130898 0.000409 -1.514604
 73 17.210192 0.000002 0.000000 0.000000 0.000000 -1.893339
 74 0.000001 -0.000000 -4.999999 -0.079430 1.546568 -1.570855
 75 0.000002 -0.000003 -3.619081 0.577895 2.675801 -0.242118
 76 16.573923 -0.000001 -0.000001 0.000000 -0.000000 -1.163030
 77 15.128182 -0.000001 0.000002 0.089479 0.309197 0.659208
 78 5.758665 4.244731 -0.000000 -0.000000 0.000000 1.815142
 79 4.003934 -0.000000 -0.000000 0.000000 0.000000 0.000000
 80 15.708954 -0.000000 0.000002 0.042277 0.226871 0.443133
 81 0.273998 0.191090 3.439763 -3.130907 -0.000437 -1.508107
 82 17.210196 -0.000001 -0.000001 0.000000 -0.000000 -1.937080
 83 0.000001 -0.000001 5.000000 -0.079314 1.595025 -1.570739
time 8
  0 -0.650000 0.000000 33.899605 -0.025849 0.174554 -1.569172
  1 5.685105 0.833237 -32.227173 -0.174512 -0.026131 1.569196
  2 -2.276935 0.000003 -1.238189 -1.570795 -1.570451 0.000000
  3 1.795864 0.712085 -0.000419 0.129146 0.160451 -0.383131
  4 4.119597 -0.003101 -0.000395 0.121306 -0.106208 0.297218
  5 4.118669 -0.003249 -0.000441 0.135273 -0.094906 0.007314
  6 4.118323 -0.003240 -0.000422 0.129152 -0.053533 -0.092805
  7 4.120158 -0.002830 -0.001444 0.430597 -0.212706 0.406808
  8 4.443601 -0.000001 -0.000000 0.508482 0.231236 -0.473051
  9 9.024065 0.000000 0.000001 0.000000 0.000000 0.000000
 10 0.365786 0.710495 1.539069 0.967175 -1.134931 1.768102
 11 6.384776 0.000001 -0.000002 -0.802276 0.267268 -0.990081
 12 10.242682 -0.000000 -0.000000 -0.000000 -0.000000 -1.522165
 13 11.375564 -0.000000 -0.000000 -3.086028 0.625857 0.261012
 14 0.728681 0.023431 -1.008292 2.396606 0.246960 1.180206
 15 2.136496 0.000001 -0.000001 -0.000000 -0.000000 -0.078540
 16 2.313141 -0.000000 -0.000001 0.000000 0.000000 0.000000
 17 3.115507 -0.886039 -0.021433 -0.166499 0.000392 0.514872
 18 2.011152 0.000000 0.000001 0.000000 -0.000000 1.322792
 19 2.141381 0.000000 0.000001 0.000000 0.000000 0.000000
 20 1.734174 0.000001 0.000001 0.000000 -0.000000 0.660693
 21 0.000008 -4.440593 0.000001 1.570544 -0.062990 -0.195737
 22 6.000002 -0.000000 -0.000000 -2.760880 -0.000000 -0.000000
 23 0.000003 -4.440599 -0.000001 1.569944 -0.062987 0.004053
 24 11.375563 0.000000 0.000002 -2.307811 0.260639 0.279200
 25 -0.000003 -4.440603 -0.000001 1.570144 -0.062988 0.004040
 26 10.510133 0.000002 -0.000001 -0.000000 -0.000000 -2.331879
 27 -0.000002 -1.748402 5.000000 0.000000 0.004007 1.602290
 28 5.500000 -0.000000 0.000000 0.260291 -0.000000 0.000000
 29 -0.000001 -1.940600 5.000002 -0.044472 0.004003 -0.000180
 30 6.551490 0.000001 -0.000001 -0.491834 0.220476 -0.609978
 31 0.000000 -1.940598 5.000003 -0.027189 -0.053376 0.005295
 32 6.551490 0.000001 -0.000001 -0.212667 0.140707 -0.270942
 33 -0.000000 -1.940598 4.999995 -0.066572 -0.152786 -0.110311
 34 -0.365782 -0.703419 -1.539069 -1.413736 1.666075 1.272687
 35 6.384777 -0.000001 0.000002 -0.290214 -0.997928 -0.733687
 36 10.242682 -0.000002 0.000002 -0.000000 -0.000000 -1.594188
 37 11.375562 -0.000001 -0.000000 1.794340 0.752772 -0.572584
 38 0.728680 0.023431 1.008294 -1.579583 -0.319038 0.212973
 39 2.136499 -0.000003 -0.000000 -0.000000 0.000000 1.282817
 40 2.313140 0.000001 0.000000 0.000000 0.000000 3.141593
 41 3.115505 -0.886041 0.021433 0.708959 0.171755 0.347804
 42 2.011150 0.000001 0.000002 -0.000000 0.000000 2.082010
 43 2.141379 -0.000000 -0.000002 0.000000 0.000000 3.141593
 44 1.734171 -0.000002 -0.000000 0.000000 -0.000000 1.041748
 45 0.136315 -3.738194 2.525894 1.493698 2.759406 -1.474501
 46 5.613161 0.862367 3.157035 1.595152 -0.135386 0.061522
 47 11.389366 -0.000820 0.158782 1.730381 0.364904 -0.285938
 48 0.000000 -4.440600 0.000000 1.570144 -3.078602 0.004040
 49 6.000000 -0.000001 -0.000000 1.730381 0.000000 -0.000000
 50 0.000001 -4.440601 0.000002 1.569944 -3.078603 0.004053
 51 10.510129 -0.000001 0.000000 -0.000000 0.000000 -2.367890
 52 -0.000000 -1.748400 -5.000000 -3.141593 0.004007 -1.539299
 53 5.499998 -0.000001 0.000000 0.143535 -0.000000 0.000000
 54 0.000002 0.000001 -5.000000 -0.044472 3.137589 -0.000177
 55 6.551492 -0.000001 -0.000001 -0.143535 -0.295685 -0.208363
 56 -1.266843 -1.937443 -4.950558 -0.066572 -2.988806 -0.110308
 57 6.551492 -0.000001 -0.000001 -0.143535 -0.295685 -0.208363
 58 0.699371 -1.944208 -5.006847 -0.027189 -3.088217 0.005298
 59 4.226144 -0.003202 -0.000000 0.178466 -0.065383 0.184153
 60 -0.000003 5.000001 0.000000 -0.153564 0.000087 2.718702
 61 0.000004 -0.000004 -3.713580 0.365818 2.880119 -0.191589
 62 0.000003 -0.000000 5.000000 3.053196 1.558589 -0.074928
 63 -0.000007 0.000006 3.713580 -0.001619 -3.122277 -0.475127
 64 0.000001 -0.000000 -5.000000 -0.088725 1.558589 3.066336
 65 7.363602 1.646647 0.495663 3.141593 -1.570796 0.000000
 66 -0.000005 0.000007 3.619081 0.008255 -3.110080 -0.985231
 67 16.573919 0.000003 0.000000 0.000000 0.000000 -1.065827
 68 15.128181 0.000001 -0.000000 -0.102296 0.010178 0.114297
 69 5.758665 4.244730 -0.000000 0.000000 -0.000000 1.667687
 70 3.177726 0.000000 0.000000 0.000000 0.000000 3.141593
 71 15.708952 0.000001 0.000000 -0.051525 0.003996 0.061523
 72 0.275148 0.189215 -3.445208 3.130898 0.000409 -1.514604
 73 17.210192 0.000002 0.000000 0.000000 0.000000 -1.893339
 74 0.000001 -0.000000 -4.999999 -0.079430 1.546568 -1.570855
 75 0.000002 -0.000003 -3.619081 0.577895 2.675801 -0.242118
 76 16.573923 -0.000001 -0.000001 0.000000 -0.000000 -1.163030
 77 15.128182 -0.000001 0.000002 0.089479 0.309197 0.659208
 78 5.758665 4.244731 -0.000000 -0.000000 0.000000 1.815142
 79 4.003934 -0.000000 -0.000000 0.000000 0.000000 0.000000
 80 15.708954 -0.000000 0.000002 0.042277 0.226871 0.443133
 81 0.273998 0.191090 3.439763 -3.130907 -0.000437 -1.508107
 82 17.210196 -0.000001 -0.000001 0.000000 -0.000000 -1.937080
 83 0.000001 -0.000001 5.000000 -0.079314 1.595025 -1.570739
time 9
  0 -0.650000 0.000000 33.899605 -0.025849 0.174554 -1.569172
  1 5.685105 0.833237 -32.227173 -0.174512 -0.026131 1.569196
  2 -2.276935 0.000003 -1.238189 -1.570795 -1.570451 0.000000
  3 1.795864 0.712084 -0.000414 0.127705 0.162770 -0.382980
  4 4.119597 -0.003101 -0.000390 0.119776 -0.106614 0.297272
  5 4.118669 -0.003249 -0.000435 0.133681 -0.096351 0.007264
  6 4.118319 -0.003240 -0.000416 0.127559 -0.054555 -0.092835
  7 4.120164 -0.002830 -0.001444 0.430597 -0.212705 0.406808
  8 4.443598 -0.000000 -0.000000 0.514133 0.231857 -0.472125
  9 9.024065 0.000000 0.000000 0.000000 0.000000 0.000000
 10 0.365784 0.710495 1.539070 0.967175 -1.134932 1.768102
 11 6.384776 0.000001 -0.000001 -0.802480 0.267207 -0.984198
 12 10.242682 -0.000002 -0.000000 0.000000 0.000000 -1.534313
 13 11.375563 0.000000 -0.000001 -3.080797 0.625574 0.276321
 14 0.728680 0.023430 -1.008292 2.396606 0.246960 1.180207
 15 2.136497 0.000001 -0.000000 -0.000000 0.000000 -0.078540
 16 2.313139 0.000000 0.000000 0.000000 0.000000 0.000000
 17 3.115507 -0.886041 -0.021434 -0.166499 0.000392 0.514872
 18 2.011150 0.000001 -0.000000 0.000000 0.000000 1.322792
 19 2.141379 -0.000002 -0.000002 0.000000 0.000000 0.000000
 20 1.734172 0.000002 -0.000001 -0.000000 0.000000 0.660693
 21 0.000007 -4.440593 -0.000001 1.570544 -0.062990 -0.195737
 22 6.000001 -0.000001 -0.000000 -2.757950 -0.000000 -0.000000
 23 0.000001 -4.440602 0.000001 1.569944 -0.062987 0.004053
 24 11.375561 0.000001 0.000002 -2.306916 0.257341 0.285976
 25 -0.000004 -4.440604 0.000001 1.570144 -0.062988 0.004040
 26 10.510132 -0.000002 -0.000001 0.000000 0.000000 -2.337953
 27 -0.000001 -1.748401 4.999999 0.000000 0.004007 1.602290
 28 5.500000 -0.000002 -0.000001 0.261051 -0.000000 0.000000
 29 -0.000003 -1.940600 5.000002 -0.044472 0.004003 -0.000180
 30 6.551490 0.000001 0.000001 -0.492882 0.219875 -0.607528
 31 -0.000000 -1.940599 5.000002 -0.027189 -0.053376 0.005295
 32 6.551490 0.000001 0.000001 -0.213339 0.140392 -0.269889
 33 0.000001 -1.940599 4.999995 -0.066572 -0.152786 -0.110311
 34 -0.365783 -0.703420 -1.539070 -1.473967 1.670855 1.212295
 35 6.384777 -0.000001 -0.000002 -0.294066 -0.991067 -0.738441
 36 10.242683 0.000001 -0.000002 0.000000 0.000000 -1.596835
 37 11.375562 -0.000000 0.000000 1.802147 0.750908 -0.569930
 38 0.728680 0.023431 1.008291 -1.579583 -0.319038 0.212973
 39 2.136496 -0.000001 -0.000000 -0.000000 0.000000 1.282817
 40 2.313139 -0.000001 -0.000000 0.000000 0.000000 3.141593
 41 3.115505 -0.886041 0.021428 0.708959 0.171755 0.347804
 42 2.011150 -0.000001 -0.000002 0.000000 0.000000 2.082010
 43 2.141380 -0.000001 -0.000002 0.000000 0.000000 3.141593
 44 1.734173 0.000000 0.000001 0.000000 0.000000 1.041748
 45 0.136315 -3.738193 2.525889 1.493698 2.759406 -1.474501
 46 5.613158 0.862367 3.157029 1.595152 -0.135386 0.061522
 47 11.389367 -0.000820 0.158781 1.733493 0.363627 -0.285535
 48 -0.000000 -4.440599 -0.000001 1.570144 -3.078602 0.004040
 49 6.000001 0.000002 0.000000 1.733493 0.000000 -0.000000
 50 0.000001 -4.440602 -0.000001 1.569944 -3.078603 0.004053
 51 10.510132 0.000001 -0.000001 -0.000000 0.000000 -2.369214
 52 -0.000000 -1.748398 -5.000000 -3.141593 0.004007 -1.539299
 53 5.500002 0.000000 -0.000000 0.144124 -0.000000 0.000000
 54 -0.000002 0.000000 -5.000000 -0.044472 3.137590 -0.000177
 55 6.551491 -0.000001 -0.000001 -0.144124 -0.293086 -0.209698
 56 -1.266842 -1.937444 -4.950558 -0.066572 -2.988806 -0.110308
 57 6.551491 -0.000001 -0.000001 -0.144124 -0.293086 -0.209698
 58 0.699371 -1.944208 -5.006846 -0.027189 -3.088217 0.005298
 59 4.226148 -0.003201 0.000000 0.178466 -0.065383 0.184153
 60 0.000001 5.000000 -0.000000 -0.153564 0.000087 2.718702
 61 0.000004 -0.000004 -3.713580 0.365818 2.880119 -0.191589
 62 0.000003 -0.000000 5.000000 3.053196 1.558589 -0.074928
 63 -0.000007 0.000006 3.713580 -0.001619 -3.122277 -0.475127
 64 0.000001 -0.000000 -5.000000 -0.088725 1.558589 3.066336
 65 7.363602 1.646647 0.495663 3.141593 -1.570796 0.000000
 66 -0.000005 0.000007 3.619081 0.008255 -3.110080 -0.985231
 67 16.573919 0.000003 0.000000 0.000000 0.000000 -1.065827
 68 15.128181 0.000001 -0.000000 -0.102296 0.010178 0.114297
 69 5.758665 4.244730 -0.000000 0.000000 -0.000000 1.667687
 70 3.177726 0.000000 0.000000 0.000000 0.000000 3.141593
 71 15.708952 0.000001 0.000000 -0.051525 0.003996 0.061523
 72 0.275148 0.189215 -3.445208 3.130898 0.000409 -1.514604
 73 17.210192 0.000002 0.000000 0.000000 0.000000 -1.893339
 74 0.000001 -0.000000 -4.999999 -0.079430 1.546568 -1.570855
 75 0.000002 -0.000003 -3.619081 0.577895 2.675801 -0.242118
 76 16.573923 -0.000001 -0.000001 0.000000 -0.000000 -1.163030
 77 15.128182 -0.000001 0.000002 0.089479 0.309197 0.659208
 78 5.758665 4.244731 -0.000000 -0.000000 0.000000 1.815142
 79 4.003934 -0.000000 -0.000000 0.000000 0.000000 0.000000
 80 15.708954 -0.000000 0.000002 0.042277 0.226871 0.443133
 81 0.273998 0.191090 3.439763 -3.130907 -0.000437 -1.508107
 82 17.210196 -0.000001 -0.000001 0.000000 -0.000000 -1.937080
 83 0.000001 -0.000001 5.000000 -0.079314 1.595025 -1.570739
time 10
  0 -0.650000 0.000000 33.899605 -0.025849 0.174554 -1.569172
  1 5.685105 0.833237 -32.227173 -0.174512 -0.026131 1.569196
  2 -2.276935 0.000003 -1.238189 -1.570795 -1.570451 0.000000
  3 1.795864 0.712084 -0.000410 0.126440 0.164557 -0.382885
  4 4.119600 -0.003102 -0.000385 0.118439 -0.106896 0.297328
  5 4.118667 -0.003251 -0.000431 0.132289 -0.097494 0.007239
  6 4.118319 -0.003241 -0.000412 0.126167 -0.055377 -0.092851
  7 4.120162 -0.002830 -0.001444 0.430597 -0.212706 0.406808
  8 4.443599 0.000001 0.000000 0.519130 0.232315 -0.471350
  9 9.024062 -0.000000 0.000000 0.000000 0.000000 0.000000
 10 0.365786 0.710496 1.539069 0.967175 -1.134932 1.768102
 11 6.384777 -0.000001 0.000001 -0.803834 0.265185 -0.980000
 12 10.242683 0.000001 -0.000000 -0.000000 0.000000 -1.542424
 13 11.375564 -0.000001 -0.000001 -3.077147 0.626432 0.287276
 14 0.728682 0.023431 -1.008293 2.396606 0.246960 1.180207
 15 2.136494 0.000000 -0.000000 -0.000000 -0.000000 -0.078540
 16 2.313139 -0.000001 0.000001 0.000000 0.000000 0.000000
 17 3.115507 -0.886043 -0.021430 -0.166499 0.000392 0.514872
 18 2.011150 -0.000001 0.000001 0.000000 -0.000000 1.322792
 19 2.141381 -0.000001 0.000001 0.000000 0.000000 0.000000
 20 1.734172 0.000001 -0.000000 -0.000000 -0.000000 0.660693
 21 0.000006 -4.440594 0.000001 1.570544 -0.062990 -0.195737
 22 6.000001 -0.000001 -0.000000 -2.755920 -0.000000 -0.000000
 23 0.000003 -4.440601 -0.000001 1.569944 -0.062987 0.004053
 24 11.375563 -0.000001 0.000002 -2.306239 0.255494 0.291011
 25 -0.000001 -4.440603 0.000000 1.570144 -0.062988 0.004040
 26 10.510132 0.000001 -0.000000 0.000000 -0.000000 -2.342008
 27 -0.000001 -1.748401 4.999999 -0.000000 0.004007 1.602291
 28 5.500001 0.000001 0.000000 0.262409 0.000000 0.000000
 29 -0.000002 -1.940599 5.000002 -0.044472 0.004003 -0.000180
 30 6.551491 -0.000001 0.000002 -0.494975 0.218414 -0.605930
 31 0.000001 -1.940597 5.000002 -0.027189 -0.053376 0.005295
 32 6.551491 -0.000001 0.000002 -0.214500 0.139780 -0.269205
 33 0.000001 -1.940598 4.999997 -0.066572 -0.152786 -0.110311
 34 -0.365785 -0.703417 -1.539069 -1.498009 1.673007 1.188175
 35 6.384777 0.000001 -0.000001 -0.292821 -0.987211 -0.744781
 36 10.242683 0.000001 -0.000001 -0.000000 -0.000000 -1.598123
 37 11.375562 0.000002 0.000004 1.807033 0.749817 -0.568477
 38 0.728681 0.023430 1.008292 -1.579583 -0.319038 0.212973
 39 2.136497 -0.000000 -0.000000 0.000000 0.000000 1.282817
 40 2.313139 -0.000000 0.000000 0.000000 0.000000 3.141593
 41 3.115508 -0.886041 0.021433 0.708959 0.171755 0.347804
 42 2.011152 0.000000 0.000002 -0.000000 0.000000 2.082010
 43 2.141379 -0.000000 -0.000002 0.000000 0.000000 3.141593
 44 1.734174 -0.000001 0.000002 -0.000000 -0.000000 1.041748
 45 0.136315 -3.738191 2.525889 1.493698 2.759406 -1.474501
 46 5.613161 0.862366 3.157032 1.595152 -0.135386 0.061522
 47 11.389368 -0.000819 0.158784 1.735470 0.362856 -0.285363
 48 -0.000001 -4.440599 0.000002 1.570144 -3.078602 0.004040
 49 6.000000 -0.000001 0.000000 1.735470 0.000000 -0.000000
 50 0.000001 -4.440601 0.000000 1.569944 -3.078603 0.004053
 51 10.510135 0.000000 0.000001 0.000000 0.000000 -2.369858
 52 0.000001 -1.748400 -5.000002 3.141593 0.004007 -1.539299
 53 5.500003 0.000000 0.000001 0.143987 0.000000 0.000000
 54 0.000001 -0.000000 -5.000000 -0.044472 3.137589 -0.000177
 55 6.551491 0.000001 -0.000001 -0.143987 -0.291655 -0.210909
 56 -1.266843 -1.937444 -4.950559 -0.066572 -2.988806 -0.110308
 57 6.551492 0.000000 -0.000001 -0.143987 -0.291655 -0.210909
 58 0.699371 -1.944209 -5.006846 -0.027189 -3.088217 0.005298
 59 4.226146 -0.003201 -0.000000 0.178466 -0.065383 0.184153
 60 0.000000 5.000001 0.000000 -0.153564 0.000087 2.718702
 61 0.000004 -0.000004 -3.713580 0.365818 2.880119 -0.191589
 62 0.000003 -0.000000 5.000000 3.053196 1.558589 -0.074928
 63 -0.000007 0.000006 3.713580 -0.001619 -3.122277 -0.475127
 64 0.000001 -0.000000 -5.000000 -0.088725 1.558589 3.066336
 65 7.363602 1.646647 0.495663 3.141593 -1.570796 0.000000
 66 -0.000005 0.000007 3.619081 0.008255 -3.110080 -0.985231
 67 16.573919 0.000003 0.000000 0.000000 0.000000 -1.065827
 68 15.128181 0.000001 -0.000000 -0.102296 0.010178 0.114297
 69 5.758665 4.244730 -0.000000 0.000000 -0.000000 1.667687
 70 3.177726 0.000000 0.000000 0.000000 0.000000 3.141593
 71 15.708952 0.000001 0.000000 -0.051525 0.003996 0.061523
 72 0.275148 0.189215 -3.445208 3.130898 0.000409 -1.514604
 73 17.210192 0.000002 0.000000 0.000000 0.000000 -1.893339
 74 0.000001 -0.000000 -4.999999 -0.079430 1.546568 -1.570855
 75 0.000002 -0.000003 -3.619081 0.577895 2.675801 -0.242118
 76 16.573923 -0.000001 -0.000001 0.000000 -0.000000 -1.163030
 77 15.128182 -0.000001 0.000002 0.089479 0.309197 0.659208
 78 5.758665 4.244731 -0.000000 -0.000000 0.000000 1.815142
 79 4.003934 -0.000000 -0.000000 0.000000 0.000000 0.000000
 80 15.708954 -0.000000 0.000002 0.042277 0.226871 0.443133
 81 0.273998 0.191090 3.439763 -3.130907 -0.000437 -1.508107
 82 17.210196 -0.000001 -0.000001 0.000000 -0.000000 -1.937080
 83 0.000001 -0.000001 5.000000 -0.079314 1.595025 -1.570739
end
