version 1
nodes
  0 "Bip01"  -1
  1 "Bip01 Footsteps"   0
  2 "Bip01 Pelvis"   0
  3 "Bip01 Spine"   2
  4 "Bip01 Spine1"   3
  5 "Bip01 Spine2"   4
  6 "Bip01 Spine3"   5
  7 "Bip01 Neck"   6
  8 "Bip01 Head"   7
  9 "Dummy21"   8
 10 "Bip01 L Clavicle"   7
 11 "Bip01 L UpperArm"  10
 12 "Bip01 L Forearm"  11
 13 "Bip01 L Hand"  12
 14 "Bip01 L Finger0"  13
 15 "Bip01 L Finger01"  14
 16 "Dummy06"  15
 17 "Bip01 L Finger1"  13
 18 "Bip01 L Finger11"  17
 19 "Dummy03"  18
 20 "-- L knuckle"  17
 21 "-- L knuckle_end"  20
 22 "-- L Forearm twist"  12
 23 "-- L Forearm twist_end"  22
 24 "-- L wrist"  12
 25 "-- L wrist_end"  24
 26 "-- L Elbow"  11
 27 "--L Elbow_end"  26
 28 "-- L bicep twist"  11
 29 "-- L bicep twist_end"  28
 30 "-- L shoulder outside"  10
 31 "-- L shoulder outside_end"  30
 32 "-- L Shoulder inside"  10
 33 "-- L Shoulder inside_end"  32
 34 "Bip01 R Clavicle"   7
 35 "Bip01 R UpperArm"  34
 36 "Bip01 R Forearm"  35
 37 "Bip01 R Hand"  36
 38 "Bip01 R Finger0"  37
 39 "Bip01 R Finger01"  38
 40 "Dummy01"  39
 41 "Bip01 R Finger1"  37
 42 "Bip01 R Finger11"  41
 43 "Dummy02"  42
 44 "-- R knuckle"  41
 45 "Point06"  44
 46 "Line01"  37
 47 "-- R wrist"  36
 48 "-- R wrist_end"  47
 49 "-- R forearm twist"  36
 50 "-- R forearm twist_end"  49
 51 "-- R Elbow"  35
 52 "--R Elbow_end"  51
 53 "-- R bicep twist"  35
 54 "-- R bicep twist_end"  53
 55 "-- R Shoulder inside"  34
 56 "-- R Shoulder inside_end"  55
 57 "-- R shoulder outside"  34
 58 "-- R shoulder outside_end"  57
 59 "-- Neck smooth"   6
 60 "-- neck smooth end"  59
 61 "-- R Butt"   2
 62 "--R Butt_end"  61
 63 "-- L butt"   2
 64 "--L butt_end"  63
 65 "GIGN01"   2
 66 "Bip01 L Thigh"   2
 67 "Bip01 L Calf"  66
 68 "Bip01 L Foot"  67
 69 "Bip01 L Toe0"  68
 70 "Dummy16"  69
 71 "-- L ankle"  67
 72 "-- L ankleend"  71
 73 "-- L Knee"  66
 74 "--L Knee_end"  73
 75 "Bip01 R Thigh"   2
 76 "Bip01 R Calf"  75
 77 "Bip01 R Foot"  76
 78 "Bip01 R Toe0"  77
 79 "Dummy11"  78
 80 "-- R Ankle"  76
 81 "-- R ankleend"  80
 82 "-- R Knee"  75
 83 "--R Knee_end"  82
end
skeleton
time 0
  0 -0.650000 0.000000 33.899605 -0.025849 0.174554 -1.569172
  1 5.685104 0.833236 -32.227173 -0.174512 -0.026131 1.569196
  2 -2.276935 0.000003 -1.238188 -1.570795 -1.570451 0.000000
  3 1.797172 0.712217 0.001604 -0.522054 -0.187640 0.118009
  4 4.119912 -0.002606 0.001502 -0.489817 0.227814 0.345563
  5 4.119001 -0.002832 0.001605 -0.515392 0.122725 0.071251
  6 4.118660 -0.002845 0.001631 -0.521058 0.038137 -0.001908
  7 4.120686 -0.002851 -0.000231 0.066676 0.166244 0.642454
  8 4.443601 -0.000000 -0.000000 0.670051 -0.001788 -0.176560
  9 9.024058 0.000000 -0.000000 0.000000 0.000000 0.000000
 10 -0.286728 0.117388 1.705034 0.940808 -1.033143 1.553422
 11 6.384777 0.000000 -0.000001 -0.563605 0.505327 -0.535583
 12 10.242682 -0.000001 0.000000 -0.000000 -0.000000 -1.632695
 13 11.375561 -0.000000 -0.000000 3.107766 0.129066 0.926901
 14 0.728680 0.023431 -1.008291 2.396606 0.246960 1.180207
 15 2.136498 -0.000001 -0.000001 0.000000 0.000000 -0.078540
 16 2.313136 0.000001 0.000000 0.000000 0.000000 0.000000
 17 3.115506 -0.886039 -0.021431 -0.166499 0.000392 0.514872
 18 2.011150 0.000002 -0.000000 -0.000000 -0.000000 1.322792
 19 2.141380 0.000000 0.000000 0.000000 0.000000 0.000000
 20 1.734172 0.000002 -0.000000 0.000000 0.000000 0.660693
 21 0.000004 -4.440594 -0.000001 1.570544 -0.062990 -0.195737
 22 6.000000 0.000001 0.000001 -2.899436 0.000000 -0.000000
 23 -0.000000 -4.440601 -0.000000 1.569944 -0.062987 0.004053
 24 11.375560 -0.000000 0.000003 -2.389140 -0.145096 0.482747
 25 -0.000002 -4.440603 0.000001 1.570144 -0.062988 0.004040
 26 10.510132 0.000000 -0.000000 -0.000000 -0.000000 -2.387144
 27 -0.000002 -1.748402 5.000000 -0.000000 0.004007 1.602291
 28 5.499999 -0.000001 0.000001 0.195587 0.000000 0.000000
 29 -0.000002 -1.940597 4.999999 -0.044472 0.004003 -0.000180
 30 6.551491 -0.000000 0.000001 -0.373691 0.342066 -0.404810
 31 0.000001 -1.940598 5.000000 -0.027189 -0.053376 0.005295
 32 6.551491 -0.000000 0.000001 -0.160536 0.184256 -0.176878
 33 -0.000001 -1.940599 4.999997 -0.066572 -0.152786 -0.110311
 34 0.286734 -0.110311 -1.705034 -1.880927 1.179037 0.663543
 35 6.384777 -0.000001 -0.000003 -0.831934 -0.758730 -0.006745
 36 10.242682 -0.000000 -0.000002 0.000000 -0.000000 -2.184872
 37 11.375561 -0.000003 0.000002 2.375111 0.734038 0.309106
 38 0.728681 0.023430 1.008290 -1.579583 -0.319038 0.212973
 39 2.136497 0.000001 -0.000000 -0.000000 0.000000 1.282817
 40 2.313139 0.000001 0.000000 0.000000 0.000000 3.141593
 41 3.115506 -0.886041 0.021430 0.708959 0.171755 0.347804
 42 2.011150 -0.000001 0.000001 -0.000000 -0.000000 2.082010
 43 2.141379 -0.000000 0.000001 0.000000 0.000000 3.141593
 44 1.734172 -0.000002 -0.000000 0.000000 -0.000000 1.041748
 45 0.136314 -3.738194 2.525889 1.493698 2.759406 -1.474501
 46 5.613159 0.862366 3.157031 1.595152 -0.135386 0.061522
 47 11.389366 -0.000820 0.158784 1.915213 0.398701 0.057750
 48 -0.000000 -4.440600 -0.000001 1.570144 -3.078602 0.004040
 49 6.000000 -0.000001 0.000001 1.915213 0.000000 0.000000
 50 0.000001 -4.440601 -0.000001 1.569944 -3.078603 0.004053
 51 10.510130 -0.000000 -0.000001 -0.000000 -0.000000 -2.663232
 52 -0.000001 -1.748403 -5.000002 -3.141593 0.004007 -1.539299
 53 5.499999 -0.000000 -0.000001 0.236290 0.000000 -0.000000
 54 0.000001 -0.000002 -5.000000 -0.044472 3.137589 -0.000177
 55 6.551490 -0.000001 -0.000000 -0.236290 -0.275462 -0.082249
 56 -1.266842 -1.937442 -4.950561 -0.066572 -2.988806 -0.110308
 57 6.551491 -0.000001 -0.000000 -0.236290 -0.275462 -0.082249
 58 0.699372 -1.944207 -5.006849 -0.027189 -3.088217 0.005298
 59 4.226146 -0.003201 0.000001 0.020687 0.089510 0.328468
 60 -0.000000 5.000001 0.000000 -0.153564 0.000087 2.718702
 61 0.000004 -0.000004 -3.713580 0.365818 2.880119 -0.191589
 62 0.000002 -0.000000 5.000000 3.053196 1.558589 -0.074928
 63 -0.000007 0.000006 3.713580 -0.001619 -3.122277 -0.475127
 64 0.000002 -0.000001 -5.000000 -0.088726 1.558589 3.066334
 65 7.363602 1.646647 0.495663 3.141593 -1.570796 0.000000
 66 -0.000005 0.000007 3.619081 0.008255 -3.110080 -0.985231
 67 16.573919 0.000002 0.000000 0.000000 -0.000000 -1.065827
 68 15.128181 0.000000 -0.000000 -0.102296 0.010178 0.114297
 69 5.758665 4.244730 0.000000 0.000000 0.000000 1.667687
 70 3.177725 0.000000 -0.000000 0.000000 0.000000 3.141593
 71 15.708953 0.000001 0.000000 -0.051525 0.003996 0.061523
 72 0.275148 0.189215 -3.445207 3.130898 0.000409 -1.514604
 73 17.210192 0.000001 0.000000 0.000000 -0.000000 -1.893339
 74 0.000001 -0.000000 -5.000000 -0.079430 1.546568 -1.570855
 75 0.000002 -0.000003 -3.619081 0.577895 2.675801 -0.242118
 76 16.573921 -0.000001 -0.000002 -0.000000 -0.000000 -1.163030
 77 15.128181 0.000001 0.000001 0.089479 0.309197 0.659208
 78 5.758666 4.244730 -0.000001 -0.000000 -0.000000 1.815142
 79 4.003934 -0.000000 0.000001 0.000000 0.000000 0.000000
 80 15.708954 0.000001 0.000002 0.042277 0.226871 0.443133
 81 0.273998 0.191089 3.439762 -3.130907 -0.000437 -1.508107
 82 17.210194 -0.000001 -0.000002 0.000000 -0.000000 -1.937080
 83 -0.000000 -0.000001 5.000000 -0.079319 1.595025 -1.570742
time 1
  0 -0.650000 0.000000 33.899605 -0.025849 0.174554 -1.569172
  1 5.685104 0.833236 -32.227173 -0.174512 -0.026131 1.569196
  2 -2.276935 0.000003 -1.238188 -1.570795 -1.570451 0.000000
  3 1.797174 0.712193 0.001561 -0.507029 -0.189276 0.115364
  4 4.119912 -0.002628 0.001464 -0.475487 0.222773 0.348806
  5 4.119007 -0.002856 0.001562 -0.500469 0.121666 0.073113
  6 4.118660 -0.002869 0.001589 -0.506198 0.038173 -0.001299
  7 4.120683 -0.002851 -0.000232 0.066676 0.166244 0.642454
  8 4.443599 -0.000001 -0.000001 0.621943 0.060186 -0.216642
  9 9.024062 0.000000 0.000000 0.000000 0.000000 0.000000
 10 -0.286732 0.117389 1.705034 0.940808 -1.033143 1.553422
 11 6.384775 0.000001 0.000003 -0.589208 0.453828 -0.650264
 12 10.242681 0.000000 -0.000000 -0.000000 -0.000000 -1.474886
 13 11.375560 0.000000 0.000001 3.102948 0.153488 0.851035
 14 0.728680 0.023430 -1.008291 2.396606 0.246960 1.180207
 15 2.136496 -0.000001 -0.000001 0.000000 -0.000000 -0.078540
 16 2.313138 -0.000000 0.000001 0.000000 0.000000 0.000000
 17 3.115506 -0.886041 -0.021431 -0.166499 0.000392 0.514872
 18 2.011149 0.000000 0.000001 -0.000000 0.000000 1.322792
 19 2.141380 -0.000001 -0.000000 0.000000 0.000000 0.000000
 20 1.734172 0.000000 -0.000001 0.000000 -0.000000 0.660693
 21 0.000007 -4.440593 0.000002 1.570544 -0.062990 -0.195737
 22 6.000000 0.000000 0.000001 -2.898445 0.000000 0.000000
 23 0.000001 -4.440601 0.000002 1.569944 -0.062987 0.004053
 24 11.375563 -0.000002 0.000004 -2.391924 -0.118413 0.455563
 25 -0.000000 -4.440602 -0.000001 1.570144 -0.062988 0.004040
 26 10.510131 0.000000 -0.000000 -0.000000 0.000000 -2.308239
 27 0.000001 -1.748400 4.999998 0.000000 0.004007 1.602291
 28 5.499999 -0.000001 0.000001 0.193388 -0.000000 0.000000
 29 -0.000001 -1.940599 5.000000 -0.044472 0.004003 -0.000180
 30 6.551492 0.000001 -0.000000 -0.370172 0.304759 -0.466894
 31 0.000000 -1.940598 5.000002 -0.027189 -0.053376 0.005295
 32 6.551492 0.000001 -0.000000 -0.158418 0.168366 -0.208368
 33 0.000000 -1.940598 4.999996 -0.066572 -0.152786 -0.110311
 34 0.286734 -0.110312 -1.705036 -1.890746 1.123846 0.655633
 35 6.384777 0.000000 0.000000 -0.831054 -0.790397 0.104086
 36 10.242683 -0.000001 0.000001 -0.000000 -0.000000 -2.182778
 37 11.375561 0.000001 0.000002 2.373864 0.730269 0.312759
 38 0.728680 0.023431 1.008290 -1.579583 -0.319038 0.212973
 39 2.136496 0.000003 0.000000 0.000000 0.000000 1.282817
 40 2.313140 -0.000001 0.000000 0.000000 0.000000 3.141593
 41 3.115507 -0.886041 0.021429 0.708959 0.171755 0.347804
 42 2.011152 -0.000001 -0.000000 0.000000 -0.000000 2.082010
 43 2.141379 0.000000 0.000000 0.000000 0.000000 3.141593
 44 1.734172 -0.000001 0.000002 0.000000 0.000000 1.041748
 45 0.136315 -3.738192 2.525892 1.493698 2.759406 -1.474501
 46 5.613159 0.862366 3.157031 1.595152 -0.135386 0.061522
 47 11.389367 -0.000818 0.158784 1.914771 0.397162 0.060273
 48 -0.000001 -4.440599 0.000000 1.570144 -3.078602 0.004040
 49 5.999999 -0.000001 0.000001 1.914771 0.000000 -0.000000
 50 0.000001 -4.440601 0.000000 1.569944 -3.078603 0.004053
 51 10.510133 -0.000001 0.000002 0.000000 -0.000000 -2.662185
 52 -0.000000 -1.748401 -5.000002 -3.141593 0.004007 -1.539299
 53 5.500000 0.000002 0.000000 0.237159 -0.000000 -0.000000
 54 -0.000000 -0.000000 -4.999998 -0.044472 3.137589 -0.000177
 55 6.551492 0.000000 0.000000 -0.237159 -0.289178 -0.055104
 56 -1.266843 -1.937443 -4.950556 -0.066572 -2.988806 -0.110308
 57 6.551492 0.000000 0.000000 -0.237159 -0.289178 -0.055104
 58 0.699371 -1.944206 -5.006847 -0.027189 -3.088217 0.005298
 59 4.226142 -0.003201 -0.000000 0.020687 0.089510 0.328468
 60 -0.000002 5.000001 0.000000 -0.153564 0.000087 2.718702
 61 0.000004 -0.000004 -3.713580 0.365818 2.880119 -0.191589
 62 0.000002 -0.000000 5.000000 3.053196 1.558589 -0.074928
 63 -0.000007 0.000006 3.713580 -0.001619 -3.122277 -0.475127
 64 0.000002 -0.000001 -5.000000 -0.088726 1.558589 3.066334
 65 7.363602 1.646647 0.495663 3.141593 -1.570796 0.000000
 66 -0.000005 0.000007 3.619081 0.008255 -3.110080 -0.985231
 67 16.573919 0.000002 0.000000 0.000000 -0.000000 -1.065827
 68 15.128181 0.000000 -0.000000 -0.102296 0.010178 0.114297
 69 5.758665 4.244730 0.000000 0.000000 0.000000 1.667687
 70 3.177725 0.000000 -0.000000 0.000000 0.000000 3.141593
 71 15.708953 0.000001 0.000000 -0.051525 0.003996 0.061523
 72 0.275148 0.189215 -3.445207 3.130898 0.000409 -1.514604
 73 17.210192 0.000001 0.000000 0.000000 -0.000000 -1.893339
 74 0.000001 -0.000000 -5.000000 -0.079430 1.546568 -1.570855
 75 0.000002 -0.000003 -3.619081 0.577895 2.675801 -0.242118
 76 16.573921 -0.000001 -0.000002 -0.000000 -0.000000 -1.163030
 77 15.128181 0.000001 0.000001 0.089479 0.309197 0.659208
 78 5.758666 4.244730 -0.000001 -0.000000 -0.000000 1.815142
 79 4.003934 -0.000000 0.000001 0.000000 0.000000 0.000000
 80 15.708954 0.000001 0.000002 0.042277 0.226871 0.443133
 81 0.273998 0.191089 3.439762 -3.130907 -0.000437 -1.508107
 82 17.210194 -0.000001 -0.000002 0.000000 -0.000000 -1.937080
 83 -0.000000 -0.000001 5.000000 -0.079319 1.595025 -1.570742
time 2
  0 -0.650000 0.000000 33.899605 -0.025849 0.174554 -1.569172
  1 5.685104 0.833236 -32.227173 -0.174512 -0.026131 1.569196
  2 -2.276935 0.000003 -1.238188 -1.570795 -1.570451 0.000000
  3 1.797173 0.712171 0.001519 -0.491996 -0.190874 0.112694
  4 4.119915 -0.002649 0.001424 -0.461191 0.217687 0.351971
  5 4.119003 -0.002878 0.001521 -0.485551 0.120579 0.074958
  6 4.118661 -0.002892 0.001546 -0.491339 0.038199 -0.000689
  7 4.120692 -0.002851 -0.000233 0.066676 0.166244 0.642454
  8 4.443596 0.000001 0.000001 0.570086 0.118494 -0.261299
  9 9.024061 -0.000001 0.000000 0.000000 0.000000 0.000000
 10 -0.286734 0.117390 1.705035 0.940808 -1.033143 1.553422
 11 6.384777 0.000000 -0.000000 -0.611885 0.398043 -0.770083
 12 10.242682 0.000000 -0.000002 -0.000000 0.000000 -1.299954
 13 11.375562 -0.000001 -0.000000 3.097687 0.176610 0.765969
 14 0.728681 0.023432 -1.008292 2.396606 0.246960 1.180207
 15 2.136497 0.000000 0.000000 -0.000000 -0.000000 -0.078540
 16 2.313139 0.000000 -0.000001 0.000000 0.000000 0.000000
 17 3.115507 -0.886038 -0.021432 -0.166499 0.000392 0.514872
 18 2.011150 -0.000002 0.000001 0.000000 0.000000 1.322792
 19 2.141379 0.000000 0.000001 0.000000 0.000000 0.000000
 20 1.734171 -0.000001 0.000002 0.000000 -0.000000 0.660693
 21 0.000006 -4.440594 -0.000001 1.570544 -0.062990 -0.195737
 22 6.000001 -0.000002 -0.000000 -2.896697 0.000000 -0.000000
 23 0.000001 -4.440603 0.000001 1.569944 -0.062987 0.004053
 24 11.375562 -0.000000 0.000002 -2.393796 -0.090006 0.424688
 25 -0.000002 -4.440603 0.000002 1.570144 -0.062988 0.004040
 26 10.510128 -0.000002 -0.000002 0.000000 -0.000000 -2.220773
 27 0.000001 -1.748401 4.999999 0.000000 0.004007 1.602291
 28 5.500000 -0.000000 -0.000002 0.192506 0.000000 0.000000
 29 0.000000 -1.940596 4.999999 -0.044472 0.004003 -0.000180
 30 6.551493 0.000001 -0.000003 -0.368883 0.274522 -0.520556
 31 -0.000001 -1.940599 5.000004 -0.027189 -0.053376 0.005295
 32 6.551493 0.000001 -0.000003 -0.157420 0.155547 -0.234881
 33 0.000000 -1.940599 4.999994 -0.066572 -0.152786 -0.110311
 34 0.286731 -0.110311 -1.705035 -1.897646 1.068590 0.649624
 35 6.384776 0.000000 -0.000000 -0.837005 -0.815208 0.225654
 36 10.242682 -0.000002 -0.000001 0.000000 -0.000000 -2.181797
 37 11.375562 0.000002 0.000003 2.376626 0.722672 0.312606
 38 0.728680 0.023431 1.008289 -1.579583 -0.319038 0.212973
 39 2.136497 -0.000001 -0.000000 0.000000 -0.000000 1.282817
 40 2.313140 0.000000 0.000001 0.000000 0.000000 3.141593
 41 3.115506 -0.886041 0.021431 0.708959 0.171755 0.347804
 42 2.011151 0.000000 0.000000 -0.000000 -0.000000 2.082010
 43 2.141378 -0.000000 -0.000001 0.000000 0.000000 3.141593
 44 1.734173 -0.000001 0.000000 -0.000000 0.000000 1.041748
 45 0.136314 -3.738194 2.525889 1.493698 2.759406 -1.474501
 46 5.613160 0.862366 3.157027 1.595152 -0.135386 0.061522
 47 11.389366 -0.000820 0.158782 1.917014 0.393929 0.061313
 48 -0.000000 -4.440599 -0.000001 1.570144 -3.078602 0.004040
 49 6.000000 0.000001 0.000000 1.917014 0.000000 0.000000
 50 -0.000000 -4.440601 -0.000001 1.569944 -3.078603 0.004053
 51 10.510132 -0.000004 0.000001 0.000000 0.000000 -2.661695
 52 -0.000000 -1.748401 -5.000001 3.141593 0.004007 -1.539299
 53 5.500000 -0.000002 -0.000000 0.238428 -0.000000 0.000000
 54 -0.000001 0.000003 -5.000002 -0.044472 3.137589 -0.000177
 55 6.551490 0.000001 -0.000001 -0.238428 -0.297434 -0.026225
 56 -1.266844 -1.937443 -4.950559 -0.066572 -2.988806 -0.110308
 57 6.551491 0.000001 -0.000001 -0.238428 -0.297434 -0.026225
 58 0.699370 -1.944206 -5.006847 -0.027189 -3.088217 0.005298
 59 4.226147 -0.003201 0.000000 0.020687 0.089510 0.328468
 60 -0.000000 5.000001 -0.000000 -0.153564 0.000087 2.718702
 61 0.000004 -0.000004 -3.713580 0.365818 2.880119 -0.191589
 62 0.000002 -0.000000 5.000000 3.053196 1.558589 -0.074928
 63 -0.000007 0.000006 3.713580 -0.001619 -3.122277 -0.475127
 64 0.000002 -0.000001 -5.000000 -0.088726 1.558589 3.066334
 65 7.363602 1.646647 0.495663 3.141593 -1.570796 0.000000
 66 -0.000005 0.000007 3.619081 0.008255 -3.110080 -0.985231
 67 16.573919 0.000002 0.000000 0.000000 -0.000000 -1.065827
 68 15.128181 0.000000 -0.000000 -0.102296 0.010178 0.114297
 69 5.758665 4.244730 0.000000 0.000000 0.000000 1.667687
 70 3.177725 0.000000 -0.000000 0.000000 0.000000 3.141593
 71 15.708953 0.000001 0.000000 -0.051525 0.003996 0.061523
 72 0.275148 0.189215 -3.445207 3.130898 0.000409 -1.514604
 73 17.210192 0.000001 0.000000 0.000000 -0.000000 -1.893339
 74 0.000001 -0.000000 -5.000000 -0.079430 1.546568 -1.570855
 75 0.000002 -0.000003 -3.619081 0.577895 2.675801 -0.242118
 76 16.573921 -0.000001 -0.000002 -0.000000 -0.000000 -1.163030
 77 15.128181 0.000001 0.000001 0.089479 0.309197 0.659208
 78 5.758666 4.244730 -0.000001 -0.000000 -0.000000 1.815142
 79 4.003934 -0.000000 0.000001 0.000000 0.000000 0.000000
 80 15.708954 0.000001 0.000002 0.042277 0.226871 0.443133
 81 0.273998 0.191089 3.439762 -3.130907 -0.000437 -1.508107
 82 17.210194 -0.000001 -0.000002 0.000000 -0.000000 -1.937080
 83 -0.000000 -0.000001 5.000000 -0.079319 1.595025 -1.570742
time 3
  0 -0.650000 0.000000 33.899605 -0.025849 0.174554 -1.569172
  1 5.685104 0.833236 -32.227173 -0.174512 -0.026131 1.569196
  2 -2.276935 0.000003 -1.238188 -1.570795 -1.570451 0.000000
  3 1.797174 0.712158 0.001495 -0.483820 -0.191955 0.110795
  4 4.119913 -0.002660 0.001403 -0.453430 0.214841 0.353551
  5 4.119001 -0.002891 0.001497 -0.477422 0.119918 0.075847
  6 4.118657 -0.002903 0.001524 -0.483236 0.038152 -0.000465
  7 4.120687 -0.002851 -0.000234 0.066676 0.166244 0.642454
  8 4.443599 -0.000000 0.000000 0.536926 0.158867 -0.305788
  9 9.024060 0.000001 0.000000 0.000000 0.000000 0.000000
 10 -0.286732 0.117391 1.705035 0.940808 -1.033143 1.553422
 11 6.384775 -0.000000 0.000001 -0.624544 0.363958 -0.839600
 12 10.242682 0.000000 -0.000001 0.000000 -0.000000 -1.187400
 13 11.375560 0.000002 0.000000 3.093758 0.190432 0.708403
 14 0.728680 0.023431 -1.008291 2.396606 0.246960 1.180207
 15 2.136496 -0.000000 0.000001 0.000000 -0.000000 -0.078540
 16 2.313139 0.000000 -0.000000 0.000000 0.000000 0.000000
 17 3.115507 -0.886042 -0.021430 -0.166499 0.000392 0.514872
 18 2.011150 -0.000000 0.000000 0.000000 0.000000 1.322792
 19 2.141377 -0.000001 -0.000000 0.000000 0.000000 0.000000
 20 1.734173 0.000001 -0.000001 0.000000 -0.000000 0.660693
 21 0.000006 -4.440594 0.000002 1.570544 -0.062990 -0.195737
 22 6.000000 -0.000000 0.000001 -2.895716 -0.000000 0.000000
 23 0.000001 -4.440600 0.000000 1.569944 -0.062987 0.004053
 24 11.375562 -0.000000 0.000004 -2.394732 -0.071327 0.403484
 25 -0.000001 -4.440604 0.000000 1.570144 -0.062988 0.004040
 26 10.510132 0.000002 -0.000002 0.000000 -0.000000 -2.164496
 27 -0.000003 -1.748401 4.999998 -0.000000 0.004007 1.602291
 28 5.500001 0.000002 -0.000002 0.193614 -0.000000 -0.000000
 29 -0.000002 -1.940599 5.000000 -0.044472 0.004003 -0.000180
 30 6.551490 0.000000 -0.000000 -0.371117 0.259746 -0.549228
 31 -0.000001 -1.940600 5.000000 -0.027189 -0.053376 0.005295
 32 6.551490 0.000000 -0.000000 -0.158175 0.149499 -0.248575
 33 -0.000001 -1.940600 4.999998 -0.066572 -0.152786 -0.110311
 34 0.286734 -0.110312 -1.705034 -1.900656 1.035630 0.646654
 35 6.384776 -0.000001 -0.000000 -0.839209 -0.828934 0.295215
 36 10.242683 -0.000002 0.000001 0.000000 -0.000000 -2.178019
 37 11.375562 -0.000003 0.000000 2.381278 0.715255 0.313712
 38 0.728681 0.023431 1.008290 -1.579583 -0.319038 0.212973
 39 2.136496 -0.000001 -0.000001 -0.000000 0.000000 1.282817
 40 2.313142 0.000002 0.000001 0.000000 0.000000 3.141593
 41 3.115506 -0.886041 0.021431 0.708959 0.171755 0.347804
 42 2.011150 0.000001 0.000001 0.000000 -0.000000 2.082010
 43 2.141378 0.000000 -0.000000 0.000000 0.000000 3.141593
 44 1.734172 -0.000001 -0.000000 0.000000 -0.000000 1.041748
 45 0.136315 -3.738192 2.525889 1.493698 2.759406 -1.474501
 46 5.613160 0.862366 3.157031 1.595152 -0.135386 0.061522
 47 11.389368 -0.000819 0.158783 1.919978 0.390936 0.062710
 48 0.000000 -4.440599 -0.000001 1.570144 -3.078602 0.004040
 49 6.000000 -0.000001 0.000000 1.919978 0.000000 0.000000
 50 0.000002 -4.440601 -0.000002 1.569944 -3.078603 0.004053
 51 10.510131 -0.000003 0.000002 -0.000000 -0.000000 -2.659806
 52 -0.000000 -1.748400 -5.000002 -3.141593 0.004007 -1.539299
 53 5.499999 0.000000 -0.000000 0.237645 0.000000 0.000000
 54 0.000000 -0.000000 -5.000000 -0.044472 3.137589 -0.000177
 55 6.551490 -0.000000 -0.000001 -0.237645 -0.300273 -0.009995
 56 -1.266843 -1.937443 -4.950562 -0.066572 -2.988806 -0.110308
 57 6.551491 -0.000000 -0.000001 -0.237645 -0.300273 -0.009995
 58 0.699371 -1.944208 -5.006847 -0.027189 -3.088217 0.005298
 59 4.226143 -0.003201 -0.000000 0.020687 0.089510 0.328468
 60 0.000000 5.000000 -0.000001 -0.153564 0.000087 2.718702
 61 0.000004 -0.000004 -3.713580 0.365818 2.880119 -0.191589
 62 0.000002 -0.000000 5.000000 3.053196 1.558589 -0.074928
 63 -0.000007 0.000006 3.713580 -0.001619 -3.122277 -0.475127
 64 0.000002 -0.000001 -5.000000 -0.088726 1.558589 3.066334
 65 7.363602 1.646647 0.495663 3.141593 -1.570796 0.000000
 66 -0.000005 0.000007 3.619081 0.008255 -3.110080 -0.985231
 67 16.573919 0.000002 0.000000 0.000000 -0.000000 -1.065827
 68 15.128181 0.000000 -0.000000 -0.102296 0.010178 0.114297
 69 5.758665 4.244730 0.000000 0.000000 0.000000 1.667687
 70 3.177725 0.000000 -0.000000 0.000000 0.000000 3.141593
 71 15.708953 0.000001 0.000000 -0.051525 0.003996 0.061523
 72 0.275148 0.189215 -3.445207 3.130898 0.000409 -1.514604
 73 17.210192 0.000001 0.000000 0.000000 -0.000000 -1.893339
 74 0.000001 -0.000000 -5.000000 -0.079430 1.546568 -1.570855
 75 0.000002 -0.000003 -3.619081 0.577895 2.675801 -0.242118
 76 16.573921 -0.000001 -0.000002 -0.000000 -0.000000 -1.163030
 77 15.128181 0.000001 0.000001 0.089479 0.309197 0.659208
 78 5.758666 4.244730 -0.000001 -0.000000 -0.000000 1.815142
 79 4.003934 -0.000000 0.000001 0.000000 0.000000 0.000000
 80 15.708954 0.000001 0.000002 0.042277 0.226871 0.443133
 81 0.273998 0.191089 3.439762 -3.130907 -0.000437 -1.508107
 82 17.210194 -0.000001 -0.000002 0.000000 -0.000000 -1.937080
 83 -0.000000 -0.000001 5.000000 -0.079319 1.595025 -1.570742
time 4
  0 -0.650000 0.000000 33.899605 -0.025849 0.174554 -1.569172
  1 5.685104 0.833236 -32.227173 -0.174512 -0.026131 1.569196
  2 -2.276935 0.000003 -1.238188 -1.570795 -1.570451 0.000000
  3 1.797170 0.712156 0.001491 -0.482534 -0.192547 0.109687
  4 4.119910 -0.002662 0.001401 -0.452205 0.214275 0.353598
  5 4.119001 -0.002893 0.001492 -0.476106 0.119704 0.075789
  6 4.118662 -0.002907 0.001518 -0.481916 0.038037 -0.000630
  7 4.120686 -0.002851 -0.000232 0.066676 0.166244 0.642454
  8 4.443602 -0.000001 -0.000001 0.531652 0.160328 -0.306215
  9 9.024058 -0.000000 0.000000 0.000000 0.000000 0.000000
 10 -0.286727 0.117388 1.705033 0.940808 -1.033143 1.553422
 11 6.384776 0.000001 0.000001 -0.628914 0.356079 -0.853003
 12 10.242682 0.000001 -0.000000 0.000000 0.000000 -1.154203
 13 11.375561 -0.000001 -0.000002 3.091437 0.195693 0.687180
 14 0.728681 0.023434 -1.008293 2.396606 0.246960 1.180207
 15 2.136497 0.000000 -0.000001 -0.000000 -0.000000 -0.078540
 16 2.313141 -0.000001 -0.000001 0.000000 0.000000 0.000000
 17 3.115507 -0.886039 -0.021431 -0.166499 0.000392 0.514872
 18 2.011151 -0.000001 -0.000000 -0.000000 0.000000 1.322792
 19 2.141381 0.000000 -0.000000 0.000000 0.000000 0.000000
 20 1.734172 -0.000000 -0.000001 -0.000000 0.000000 0.660693
 21 0.000009 -4.440593 0.000000 1.570544 -0.062990 -0.195737
 22 5.999999 0.000001 -0.000002 -2.896178 0.000000 -0.000000
 23 0.000000 -4.440602 0.000001 1.569944 -0.062987 0.004053
 24 11.375561 -0.000000 0.000001 -2.395456 -0.064378 0.395708
 25 -0.000001 -4.440604 0.000002 1.570144 -0.062988 0.004040
 26 10.510129 -0.000000 -0.000001 0.000000 0.000000 -2.147898
 27 -0.000000 -1.748401 5.000000 -0.000000 0.004007 1.602290
 28 5.499999 -0.000001 -0.000000 0.194934 0.000000 0.000000
 29 -0.000002 -1.940600 5.000001 -0.044472 0.004003 -0.000180
 30 6.551490 0.000000 0.000002 -0.373443 0.256416 -0.554698
 31 0.000001 -1.940598 5.000001 -0.027189 -0.053376 0.005295
 32 6.551490 0.000000 0.000002 -0.159243 0.148219 -0.251104
 33 -0.000000 -1.940599 4.999995 -0.066572 -0.152786 -0.110311
 34 0.286737 -0.110312 -1.705036 -1.901467 1.025084 0.645778
 35 6.384776 -0.000000 0.000001 -0.832966 -0.836852 0.304841
 36 10.242683 -0.000000 0.000001 0.000000 -0.000000 -2.171044
 37 11.375561 -0.000000 0.000001 2.384429 0.711225 0.318477
 38 0.728681 0.023431 1.008295 -1.579583 -0.319038 0.212973
 39 2.136497 -0.000004 0.000000 -0.000000 -0.000000 1.282817
 40 2.313141 0.000001 0.000000 0.000000 0.000000 3.141593
 41 3.115506 -0.886041 0.021431 0.708959 0.171755 0.347804
 42 2.011151 -0.000000 -0.000000 0.000000 -0.000000 2.082010
 43 2.141380 0.000000 -0.000001 0.000000 0.000000 3.141593
 44 1.734172 -0.000001 -0.000000 0.000000 -0.000000 1.041748
 45 0.136315 -3.738194 2.525891 1.493698 2.759406 -1.474501
 46 5.613159 0.862366 3.157034 1.595152 -0.135386 0.061522
 47 11.389366 -0.000820 0.158782 1.921486 0.389562 0.065350
 48 0.000000 -4.440598 -0.000002 1.570144 -3.078602 0.004040
 49 6.000001 0.000001 0.000002 1.921486 0.000000 0.000000
 50 0.000000 -4.440602 -0.000000 1.569944 -3.078603 0.004053
 51 10.510132 -0.000000 0.000001 -0.000000 -0.000000 -2.656318
 52 -0.000000 -1.748400 -5.000002 -3.141593 0.004007 -1.539299
 53 5.500000 0.000001 -0.000000 0.235541 -0.000000 -0.000000
 54 -0.000001 0.000000 -4.999999 -0.044472 3.137589 -0.000177
 55 6.551491 -0.000000 0.000000 -0.235541 -0.301497 -0.008396
 56 -1.266844 -1.937445 -4.950560 -0.066572 -2.988806 -0.110308
 57 6.551491 -0.000001 0.000001 -0.235541 -0.301497 -0.008396
 58 0.699370 -1.944208 -5.006847 -0.027189 -3.088217 0.005298
 59 4.226147 -0.003202 -0.000001 0.020687 0.089510 0.328468
 60 0.000001 5.000000 -0.000000 -0.153564 0.000087 2.718702
 61 0.000004 -0.000004 -3.713580 0.365818 2.880119 -0.191589
 62 0.000002 -0.000000 5.000000 3.053196 1.558589 -0.074928
 63 -0.000007 0.000006 3.713580 -0.001619 -3.122277 -0.475127
 64 0.000002 -0.000001 -5.000000 -0.088726 1.558589 3.066334
 65 7.363602 1.646647 0.495663 3.141593 -1.570796 0.000000
 66 -0.000005 0.000007 3.619081 0.008255 -3.110080 -0.985231
 67 16.573919 0.000002 0.000000 0.000000 -0.000000 -1.065827
 68 15.128181 0.000000 -0.000000 -0.102296 0.010178 0.114297
 69 5.758665 4.244730 0.000000 0.000000 0.000000 1.667687
 70 3.177725 0.000000 -0.000000 0.000000 0.000000 3.141593
 71 15.708953 0.000001 0.000000 -0.051525 0.003996 0.061523
 72 0.275148 0.189215 -3.445207 3.130898 0.000409 -1.514604
 73 17.210192 0.000001 0.000000 0.000000 -0.000000 -1.893339
 74 0.000001 -0.000000 -5.000000 -0.079430 1.546568 -1.570855
 75 0.000002 -0.000003 -3.619081 0.577895 2.675801 -0.242118
 76 16.573921 -0.000001 -0.000002 -0.000000 -0.000000 -1.163030
 77 15.128181 0.000001 0.000001 0.089479 0.309197 0.659208
 78 5.758666 4.244730 -0.000001 -0.000000 -0.000000 1.815142
 79 4.003934 -0.000000 0.000001 0.000000 0.000000 0.000000
 80 15.708954 0.000001 0.000002 0.042277 0.226871 0.443133
 81 0.273998 0.191089 3.439762 -3.130907 -0.000437 -1.508107
 82 17.210194 -0.000001 -0.000002 0.000000 -0.000000 -1.937080
 83 -0.000000 -0.000001 5.000000 -0.079319 1.595025 -1.570742
time 5
  0 -0.650000 0.000000 33.899605 -0.025849 0.174554 -1.569172
  1 5.685104 0.833236 -32.227173 -0.174512 -0.026131 1.569196
  2 -2.276935 0.000003 -1.238188 -1.570795 -1.570451 0.000000
  3 1.797166 0.712157 0.001493 -0.483231 -0.193001 0.108810
  4 4.119911 -0.002662 0.001402 -0.452857 0.214367 0.353208
  5 4.119000 -0.002892 0.001495 -0.476748 0.119620 0.075460
  6 4.118659 -0.002906 0.001520 -0.482546 0.037903 -0.000905
  7 4.120687 -0.002851 -0.000232 0.066676 0.166244 0.642454
  8 4.443598 0.000000 -0.000001 0.532924 0.157806 -0.305278
  9 9.024059 0.000000 0.000000 0.000000 0.000000 0.000000
 10 -0.286731 0.117389 1.705034 0.940808 -1.033143 1.553422
 11 6.384777 0.000001 -0.000001 -0.631011 0.356208 -0.849683
 12 10.242682 0.000000 0.000001 -0.000000 0.000000 -1.145450
 13 11.375560 -0.000001 -0.000001 3.089593 0.198560 0.677221
 14 0.728681 0.023432 -1.008292 2.396606 0.246960 1.180207
 15 2.136496 0.000000 0.000001 -0.000000 0.000000 -0.078540
 16 2.313141 -0.000000 -0.000001 0.000000 0.000000 0.000000
 17 3.115506 -0.886038 -0.021430 -0.166499 0.000392 0.514872
 18 2.011149 -0.000002 -0.000000 0.000000 0.000000 1.322792
 19 2.141379 -0.000001 -0.000001 0.000000 0.000000 0.000000
 20 1.734171 0.000001 -0.000001 -0.000000 -0.000000 0.660693
 21 0.000006 -4.440594 0.000000 1.570544 -0.062990 -0.195737
 22 6.000000 -0.000002 -0.000000 -2.897113 0.000000 0.000000
 23 -0.000000 -4.440600 0.000000 1.569944 -0.062987 0.004053
 24 11.375560 -0.000000 0.000001 -2.396182 -0.060996 0.392164
 25 0.000000 -4.440604 0.000001 1.570144 -0.062988 0.004040
 26 10.510130 -0.000000 0.000000 0.000000 -0.000000 -2.143522
 27 0.000002 -1.748402 4.999999 -0.000000 0.004007 1.602291
 28 5.499999 -0.000001 0.000001 0.196135 -0.000000 0.000000
 29 -0.000002 -1.940599 5.000001 -0.044472 0.004003 -0.000180
 30 6.551492 0.000001 -0.000002 -0.375448 0.256197 -0.553366
 31 -0.000000 -1.940599 5.000001 -0.027189 -0.053376 0.005295
 32 6.551492 0.000001 -0.000002 -0.160259 0.148197 -0.250427
 33 -0.000001 -1.940600 4.999995 -0.066572 -0.152786 -0.110311
 34 0.286734 -0.110312 -1.705035 -1.901764 1.020982 0.645446
 35 6.384777 -0.000000 0.000000 -0.823909 -0.843433 0.296609
 36 10.242682 -0.000003 -0.000001 -0.000000 0.000000 -2.163107
 37 11.375562 -0.000001 0.000002 2.386829 0.708427 0.324331
 38 0.728680 0.023431 1.008290 -1.579583 -0.319038 0.212973
 39 2.136497 -0.000000 -0.000001 -0.000000 0.000000 1.282817
 40 2.313140 -0.000001 0.000001 0.000000 0.000000 3.141593
 41 3.115506 -0.886041 0.021431 0.708959 0.171755 0.347804
 42 2.011150 0.000001 -0.000002 -0.000000 -0.000000 2.082010
 43 2.141380 -0.000000 -0.000000 0.000000 0.000000 3.141593
 44 1.734173 -0.000001 -0.000002 0.000000 -0.000000 1.041748
 45 0.136315 -3.738192 2.525890 1.493698 2.759406 -1.474501
 46 5.613160 0.862366 3.157028 1.595152 -0.135386 0.061522
 47 11.389368 -0.000819 0.158784 1.922397 0.388756 0.068353
 48 0.000001 -4.440600 -0.000002 1.570144 -3.078602 0.004040
 49 6.000001 0.000001 0.000002 1.922397 0.000000 0.000000
 50 -0.000000 -4.440603 0.000002 1.569944 -3.078603 0.004053
 51 10.510131 -0.000002 -0.000001 -0.000000 0.000000 -2.652350
 52 -0.000000 -1.748400 -5.000002 3.141593 0.004007 -1.539299
 53 5.500000 -0.000004 0.000000 0.233172 0.000000 -0.000000
 54 -0.000001 0.000001 -5.000002 -0.044472 3.137589 -0.000177
 55 6.551491 0.000000 -0.000001 -0.233172 -0.302503 -0.011184
 56 -1.266842 -1.937443 -4.950561 -0.066572 -2.988806 -0.110308
 57 6.551492 0.000000 -0.000001 -0.233172 -0.302503 -0.011184
 58 0.699372 -1.944208 -5.006848 -0.027189 -3.088217 0.005298
 59 4.226145 -0.003201 -0.000000 0.020687 0.089510 0.328468
 60 -0.000000 5.000000 -0.000001 -0.153564 0.000087 2.718702
 61 0.000004 -0.000004 -3.713580 0.365818 2.880119 -0.191589
 62 0.000002 -0.000000 5.000000 3.053196 1.558589 -0.074928
 63 -0.000007 0.000006 3.713580 -0.001619 -3.122277 -0.475127
 64 0.000002 -0.000001 -5.000000 -0.088726 1.558589 3.066334
 65 7.363602 1.646647 0.495663 3.141593 -1.570796 0.000000
 66 -0.000005 0.000007 3.619081 0.008255 -3.110080 -0.985231
 67 16.573919 0.000002 0.000000 0.000000 -0.000000 -1.065827
 68 15.128181 0.000000 -0.000000 -0.102296 0.010178 0.114297
 69 5.758665 4.244730 0.000000 0.000000 0.000000 1.667687
 70 3.177725 0.000000 -0.000000 0.000000 0.000000 3.141593
 71 15.708953 0.000001 0.000000 -0.051525 0.003996 0.061523
 72 0.275148 0.189215 -3.445207 3.130898 0.000409 -1.514604
 73 17.210192 0.000001 0.000000 0.000000 -0.000000 -1.893339
 74 0.000001 -0.000000 -5.000000 -0.079430 1.546568 -1.570855
 75 0.000002 -0.000003 -3.619081 0.577895 2.675801 -0.242118
 76 16.573921 -0.000001 -0.000002 -0.000000 -0.000000 -1.163030
 77 15.128181 0.000001 0.000001 0.089479 0.309197 0.659208
 78 5.758666 4.244730 -0.000001 -0.000000 -0.000000 1.815142
 79 4.003934 -0.000000 0.000001 0.000000 0.000000 0.000000
 80 15.708954 0.000001 0.000002 0.042277 0.226871 0.443133
 81 0.273998 0.191089 3.439762 -3.130907 -0.000437 -1.508107
 82 17.210194 -0.000001 -0.000002 0.000000 -0.000000 -1.937080
 83 -0.000000 -0.000001 5.000000 -0.079319 1.595025 -1.570742
time 6
  0 -0.650000 0.000000 33.899605 -0.025849 0.174554 -1.569172
  1 5.685104 0.833236 -32.227173 -0.174512 -0.026131 1.569196
  2 -2.276935 0.000003 -1.238188 -1.570795 -1.570451 0.000000
  3 1.797159 0.712161 0.001499 -0.485368 -0.193357 0.108100
  4 4.119911 -0.002660 0.001407 -0.454875 0.214937 0.352500
  5 4.119002 -0.002890 0.001501 -0.478816 0.119630 0.074934
  6 4.118659 -0.002903 0.001526 -0.484594 0.037755 -0.001261
  7 4.120686 -0.002851 -0.000232 0.066676 0.166244 0.642454
  8 4.443601 -0.000000 -0.000000 0.538952 0.152383 -0.303380
  9 9.024060 0.000000 0.000000 0.000000 0.000000 0.000000
 10 -0.286730 0.117389 1.705035 0.940808 -1.033143 1.553422
 11 6.384774 0.000000 0.000002 -0.631425 0.362350 -0.833982
 12 10.242682 0.000000 -0.000001 -0.000000 -0.000000 -1.154819
 13 11.375560 0.000002 -0.000002 3.088122 0.199745 0.675533
 14 0.728680 0.023434 -1.008291 2.396606 0.246960 1.180207
 15 2.136494 -0.000001 -0.000000 -0.000000 -0.000000 -0.078540
 16 2.313138 0.000000 0.000000 0.000000 0.000000 0.000000
 17 3.115507 -0.886039 -0.021430 -0.166499 0.000392 0.514872
 18 2.011150 0.000002 0.000001 -0.000000 0.000000 1.322792
 19 2.141379 -0.000001 -0.000000 0.000000 0.000000 0.000000
 20 1.734172 0.000001 -0.000001 -0.000000 -0.000000 0.660693
 21 0.000004 -4.440594 0.000000 1.570544 -0.062990 -0.195737
 22 5.999999 -0.000001 -0.000001 -2.898380 -0.000000 -0.000000
 23 0.000001 -4.440598 0.000000 1.569944 -0.062987 0.004053
 24 11.375561 -0.000001 0.000002 -2.396923 -0.060225 0.391752
 25 0.000000 -4.440603 -0.000001 1.570144 -0.062988 0.004040
 26 10.510130 -0.000000 -0.000001 -0.000000 0.000000 -2.148206
 27 0.000003 -1.748400 5.000000 -0.000000 0.004007 1.602290
 28 5.500000 0.000000 -0.000000 0.197265 0.000000 -0.000000
 29 -0.000001 -1.940599 5.000002 -0.044472 0.004003 -0.000180
 30 6.551491 0.000001 -0.000002 -0.377254 0.258388 -0.546971
 31 -0.000000 -1.940599 5.000001 -0.027189 -0.053376 0.005295
 32 6.551491 0.000001 -0.000002 -0.161247 0.149154 -0.247349
 33 -0.000000 -1.940598 4.999995 -0.066572 -0.152786 -0.110311
 34 0.286737 -0.110313 -1.705035 -1.901722 1.021568 0.645493
 35 6.384777 -0.000001 -0.000000 -0.812706 -0.848978 0.275273
 36 10.242682 -0.000002 0.000000 -0.000000 -0.000000 -2.154439
 37 11.375562 0.000002 0.000001 2.388699 0.706532 0.330926
 38 0.728681 0.023431 1.008293 -1.579583 -0.319038 0.212973
 39 2.136497 -0.000001 -0.000001 -0.000000 0.000000 1.282817
 40 2.313138 0.000000 0.000001 0.000000 0.000000 3.141593
 41 3.115506 -0.886041 0.021433 0.708959 0.171755 0.347804
 42 2.011151 -0.000000 -0.000000 -0.000000 -0.000000 2.082010
 43 2.141380 0.000000 0.000000 0.000000 0.000000 3.141593
 44 1.734171 -0.000000 0.000002 0.000000 -0.000000 1.041748
 45 0.136315 -3.738193 2.525889 1.493698 2.759406 -1.474501
 46 5.613160 0.862367 3.157032 1.595152 -0.135386 0.061522
 47 11.389367 -0.000818 0.158784 1.922880 0.388362 0.071593
 48 0.000000 -4.440600 -0.000001 1.570144 -3.078602 0.004040
 49 6.000000 0.000001 0.000001 1.922880 0.000000 0.000000
 50 0.000001 -4.440601 -0.000003 1.569944 -3.078603 0.004053
 51 10.510131 -0.000001 0.000001 -0.000000 0.000000 -2.648016
 52 -0.000000 -1.748400 -5.000002 3.141593 0.004007 -1.539299
 53 5.500000 -0.000002 0.000001 0.230597 -0.000000 0.000000
 54 -0.000000 0.000002 -4.999999 -0.044472 3.137589 -0.000177
 55 6.551491 -0.000001 0.000000 -0.230597 -0.303304 -0.017151
 56 -1.266843 -1.937442 -4.950563 -0.066572 -2.988806 -0.110308
 57 6.551491 -0.000001 0.000000 -0.230597 -0.303304 -0.017151
 58 0.699371 -1.944208 -5.006847 -0.027189 -3.088217 0.005298
 59 4.226147 -0.003202 -0.000000 0.020687 0.089510 0.328468
 60 0.000003 5.000000 -0.000001 -0.153564 0.000087 2.718702
 61 0.000004 -0.000004 -3.713580 0.365818 2.880119 -0.191589
 62 0.000002 -0.000000 5.000000 3.053196 1.558589 -0.074928
 63 -0.000007 0.000006 3.713580 -0.001619 -3.122277 -0.475127
 64 0.000002 -0.000001 -5.000000 -0.088726 1.558589 3.066334
 65 7.363602 1.646647 0.495663 3.141593 -1.570796 0.000000
 66 -0.000005 0.000007 3.619081 0.008255 -3.110080 -0.985231
 67 16.573919 0.000002 0.000000 0.000000 -0.000000 -1.065827
 68 15.128181 0.000000 -0.000000 -0.102296 0.010178 0.114297
 69 5.758665 4.244730 0.000000 0.000000 0.000000 1.667687
 70 3.177725 0.000000 -0.000000 0.000000 0.000000 3.141593
 71 15.708953 0.000001 0.000000 -0.051525 0.003996 0.061523
 72 0.275148 0.189215 -3.445207 3.130898 0.000409 -1.514604
 73 17.210192 0.000001 0.000000 0.000000 -0.000000 -1.893339
 74 0.000001 -0.000000 -5.000000 -0.079430 1.546568 -1.570855
 75 0.000002 -0.000003 -3.619081 0.577895 2.675801 -0.242118
 76 16.573921 -0.000001 -0.000002 -0.000000 -0.000000 -1.163030
 77 15.128181 0.000001 0.000001 0.089479 0.309197 0.659208
 78 5.758666 4.244730 -0.000001 -0.000000 -0.000000 1.815142
 79 4.003934 -0.000000 0.000001 0.000000 0.000000 0.000000
 80 15.708954 0.000001 0.000002 0.042277 0.226871 0.443133
 81 0.273998 0.191089 3.439762 -3.130907 -0.000437 -1.508107
 82 17.210194 -0.000001 -0.000002 0.000000 -0.000000 -1.937080
 83 -0.000000 -0.000001 5.000000 -0.079319 1.595025 -1.570742
time 7
  0 -0.650000 0.000000 33.899605 -0.025849 0.174554 -1.569172
  1 5.685104 0.833236 -32.227173 -0.174512 -0.026131 1.569196
  2 -2.276935 0.000003 -1.238188 -1.570795 -1.570451 0.000000
  3 1.797156 0.712165 0.001508 -0.488407 -0.193653 0.107496
  4 4.119911 -0.002656 0.001415 -0.457748 0.215803 0.351591
  5 4.118998 -0.002885 0.001509 -0.481773 0.119696 0.074284
  6 4.118655 -0.002897 0.001536 -0.487529 0.037597 -0.001668
  7 4.120688 -0.002851 -0.000233 0.066676 0.166244 0.642454
  8 4.443598 -0.000001 0.000001 0.547937 0.145138 -0.300946
  9 9.024059 -0.000001 0.000000 0.000000 0.000000 0.000000
 10 -0.286730 0.117388 1.705034 0.940808 -1.033143 1.553422
 11 6.384777 0.000001 -0.000003 -0.630724 0.372242 -0.810571
 12 10.242682 0.000003 -0.000001 -0.000000 -0.000000 -1.175189
 13 11.375560 -0.000002 -0.000001 3.086900 0.199922 0.678759
 14 0.728680 0.023431 -1.008292 2.396606 0.246960 1.180207
 15 2.136497 0.000000 -0.000000 -0.000000 -0.000000 -0.078540
 16 2.313139 0.000000 -0.000001 0.000000 0.000000 0.000000
 17 3.115506 -0.886042 -0.021431 -0.166499 0.000392 0.514872
 18 2.011151 0.000000 0.000001 0.000000 0.000000 1.322792
 19 2.141377 0.000000 0.000001 0.000000 0.000000 0.000000
 20 1.734173 -0.000001 0.000000 0.000000 0.000000 0.660693
 21 0.000005 -4.440595 -0.000000 1.570544 -0.062990 -0.195737
 22 5.999999 -0.000000 -0.000001 -2.899822 -0.000000 0.000000
 23 0.000003 -4.440600 -0.000001 1.569944 -0.062987 0.004053
 24 11.375561 -0.000000 0.000003 -2.397663 -0.061016 0.393202
 25 0.000000 -4.440605 0.000002 1.570144 -0.062988 0.004040
 26 10.510130 0.000002 -0.000001 0.000000 -0.000000 -2.158391
 27 -0.000001 -1.748401 4.999999 -0.000000 0.004007 1.602290
 28 5.500000 0.000002 -0.000000 0.198443 -0.000000 -0.000000
 29 -0.000002 -1.940598 4.999999 -0.044472 0.004003 -0.000180
 30 6.551491 0.000001 -0.000003 -0.379128 0.262306 -0.537347
 31 -0.000000 -1.940598 5.000000 -0.027189 -0.053376 0.005295
 32 6.551491 0.000001 -0.000003 -0.162292 0.150832 -0.242701
 33 -0.000002 -1.940598 4.999998 -0.066572 -0.152786 -0.110311
 34 0.286733 -0.110313 -1.705035 -1.901467 1.025084 0.645778
 35 6.384776 0.000002 -0.000001 -0.800170 -0.853658 0.245823
 36 10.242682 0.000001 -0.000002 0.000000 -0.000000 -2.145277
 37 11.375561 0.000001 0.000001 2.390332 0.705118 0.337862
 38 0.728680 0.023431 1.008290 -1.579583 -0.319038 0.212973
 39 2.136498 -0.000005 -0.000000 -0.000000 0.000000 1.282817
 40 2.313139 0.000001 0.000001 0.000000 0.000000 3.141593
 41 3.115507 -0.886041 0.021429 0.708959 0.171755 0.347804
 42 2.011149 0.000002 0.000003 0.000000 -0.000000 2.082010
 43 2.141378 -0.000000 -0.000002 0.000000 0.000000 3.141593
 44 1.734173 -0.000001 0.000001 0.000000 -0.000000 1.041748
 45 0.136315 -3.738192 2.525889 1.493698 2.759406 -1.474501
 46 5.613159 0.862367 3.157031 1.595152 -0.135386 0.061522
 47 11.389365 -0.000821 0.158782 1.923161 0.388186 0.074929
 48 0.000000 -4.440599 0.000000 1.570144 -3.078602 0.004040
 49 5.999999 -0.000000 -0.000000 1.923161 0.000000 0.000000
 50 0.000000 -4.440601 -0.000000 1.569944 -3.078603 0.004053
 51 10.510132 -0.000000 -0.000000 -0.000000 -0.000000 -2.643435
 52 -0.000001 -1.748403 -5.000001 3.141593 0.004007 -1.539299
 53 5.500000 0.000002 -0.000002 0.227839 -0.000000 -0.000000
 54 -0.000000 -0.000000 -5.000000 -0.044472 3.137589 -0.000177
 55 6.551489 0.000001 0.000000 -0.227839 -0.303834 -0.025005
 56 -1.266844 -1.937443 -4.950561 -0.066572 -2.988806 -0.110308
 57 6.551490 0.000001 0.000001 -0.227839 -0.303834 -0.025005
 58 0.699370 -1.944208 -5.006846 -0.027189 -3.088217 0.005298
 59 4.226145 -0.003201 -0.000000 0.020687 0.089510 0.328468
 60 -0.000002 5.000000 0.000001 -0.153564 0.000087 2.718701
 61 0.000004 -0.000004 -3.713580 0.365818 2.880119 -0.191589
 62 0.000002 -0.000000 5.000000 3.053196 1.558589 -0.074928
 63 -0.000007 0.000006 3.713580 -0.001619 -3.122277 -0.475127
 64 0.000002 -0.000001 -5.000000 -0.088726 1.558589 3.066334
 65 7.363602 1.646647 0.495663 3.141593 -1.570796 0.000000
 66 -0.000005 0.000007 3.619081 0.008255 -3.110080 -0.985231
 67 16.573919 0.000002 0.000000 0.000000 -0.000000 -1.065827
 68 15.128181 0.000000 -0.000000 -0.102296 0.010178 0.114297
 69 5.758665 4.244730 0.000000 0.000000 0.000000 1.667687
 70 3.177725 0.000000 -0.000000 0.000000 0.000000 3.141593
 71 15.708953 0.000001 0.000000 -0.051525 0.003996 0.061523
 72 0.275148 0.189215 -3.445207 3.130898 0.000409 -1.514604
 73 17.210192 0.000001 0.000000 0.000000 -0.000000 -1.893339
 74 0.000001 -0.000000 -5.000000 -0.079430 1.546568 -1.570855
 75 0.000002 -0.000003 -3.619081 0.577895 2.675801 -0.242118
 76 16.573921 -0.000001 -0.000002 -0.000000 -0.000000 -1.163030
 77 15.128181 0.000001 0.000001 0.089479 0.309197 0.659208
 78 5.758666 4.244730 -0.000001 -0.000000 -0.000000 1.815142
 79 4.003934 -0.000000 0.000001 0.000000 0.000000 0.000000
 80 15.708954 0.000001 0.000002 0.042277 0.226871 0.443133
 81 0.273998 0.191089 3.439762 -3.130907 -0.000437 -1.508107
 82 17.210194 -0.000001 -0.000002 0.000000 -0.000000 -1.937080
 83 -0.000000 -0.000001 5.000000 -0.079319 1.595025 -1.570742
time 8
  0 -0.650000 0.000000 33.899605 -0.025849 0.174554 -1.569172
  1 5.685104 0.833236 -32.227173 -0.174512 -0.026131 1.569196
  2 -2.276935 0.000003 -1.238188 -1.570795 -1.570451 0.000000
  3 1.797153 0.712169 0.001517 -0.491806 -0.193926 0.106934
  4 4.119907 -0.002651 0.001425 -0.460964 0.216785 0.350598
  5 4.118998 -0.002880 0.001520 -0.485087 0.119784 0.073585
  6 4.118657 -0.002894 0.001543 -0.490819 0.037433 -0.002094
  7 4.120685 -0.002851 -0.000232 0.066676 0.166244 0.642454
  8 4.443599 0.000000 -0.000001 0.558092 0.137155 -0.298375
  9 9.024060 0.000000 0.000000 0.000000 0.000000 0.000000
 10 -0.286730 0.117389 1.705034 0.940808 -1.033143 1.553422
 11 6.384774 0.000000 -0.000000 -0.629499 0.383581 -0.784165
 12 10.242682 0.000004 -0.000002 0.000000 0.000000 -1.199458
 13 11.375563 -0.000003 0.000000 3.085788 0.199739 0.683605
 14 0.728681 0.023431 -1.008293 2.396606 0.246960 1.180207
 15 2.136496 0.000001 0.000001 -0.000000 0.000000 -0.078540
 16 2.313140 0.000000 -0.000002 0.000000 0.000000 0.000000
 17 3.115505 -0.886041 -0.021432 -0.166499 0.000392 0.514872
 18 2.011151 -0.000001 0.000001 0.000000 0.000000 1.322792
 19 2.141381 0.000000 0.000001 0.000000 0.000000 0.000000
 20 1.734173 0.000000 -0.000000 -0.000000 0.000000 0.660693
 21 0.000007 -4.440593 0.000001 1.570544 -0.062990 -0.195737
 22 6.000000 0.000000 -0.000001 -2.901297 0.000000 -0.000000
 23 0.000001 -4.440600 -0.000001 1.569944 -0.062987 0.004053
 24 11.375563 -0.000002 0.000002 -2.398388 -0.062333 0.395255
 25 -0.000002 -4.440603 -0.000002 1.570144 -0.062988 0.004040
 26 10.510129 0.000001 -0.000002 0.000000 0.000000 -2.170526
 27 -0.000000 -1.748400 4.999999 -0.000000 0.004007 1.602290
 28 5.499999 0.000001 -0.000001 0.199748 -0.000000 -0.000000
 29 -0.000004 -1.940599 5.000001 -0.044472 0.004003 -0.000180
 30 6.551490 0.000000 -0.000002 -0.381251 0.267184 -0.526334
 31 0.000000 -1.940598 4.999999 -0.027189 -0.053376 0.005295
 32 6.551490 0.000000 -0.000002 -0.163448 0.152929 -0.237331
 33 -0.000001 -1.940599 4.999992 -0.066572 -0.152786 -0.110311
 34 0.286734 -0.110312 -1.705035 -1.901115 1.029771 0.646164
 35 6.384775 -0.000001 0.000002 -0.787145 -0.857725 0.213253
 36 10.242683 -0.000002 0.000002 -0.000000 0.000000 -2.135869
 37 11.375561 -0.000000 -0.000000 2.391966 0.703789 0.344753
 38 0.728681 0.023431 1.008292 -1.579583 -0.319038 0.212973
 39 2.136497 0.000001 0.000000 0.000000 -0.000000 1.282817
 40 2.313140 0.000001 0.000000 0.000000 0.000000 3.141593
 41 3.115506 -0.886041 0.021432 0.708959 0.171755 0.347804
 42 2.011150 0.000001 0.000002 0.000000 0.000000 2.082010
 43 2.141378 -0.000000 -0.000002 0.000000 0.000000 3.141593
 44 1.734172 -0.000000 0.000001 0.000000 -0.000000 1.041748
 45 0.136314 -3.738194 2.525891 1.493698 2.759406 -1.474501
 46 5.613160 0.862367 3.157030 1.595152 -0.135386 0.061522
 47 11.389366 -0.000821 0.158780 1.923434 0.388046 0.078230
 48 -0.000000 -4.440599 0.000001 1.570144 -3.078602 0.004040
 49 6.000000 -0.000001 -0.000001 1.923434 0.000000 -0.000000
 50 0.000003 -4.440601 -0.000003 1.569944 -3.078603 0.004053
 51 10.510131 -0.000002 0.000003 0.000000 -0.000000 -2.638731
 52 0.000000 -1.748402 -5.000002 -3.141593 0.004007 -1.539299
 53 5.500000 -0.000001 0.000001 0.224960 -0.000000 -0.000000
 54 -0.000001 0.000002 -5.000000 -0.044472 3.137589 -0.000177
 55 6.551490 -0.000001 0.000002 -0.224960 -0.304079 -0.033487
 56 -1.266843 -1.937444 -4.950558 -0.066572 -2.988806 -0.110308
 57 6.551490 -0.000001 0.000002 -0.224960 -0.304079 -0.033487
 58 0.699371 -1.944209 -5.006846 -0.027189 -3.088217 0.005298
 59 4.226144 -0.003201 -0.000001 0.020687 0.089510 0.328468
 60 0.000001 5.000000 -0.000001 -0.153564 0.000087 2.718702
 61 0.000004 -0.000004 -3.713580 0.365818 2.880119 -0.191589
 62 0.000002 -0.000000 5.000000 3.053196 1.558589 -0.074928
 63 -0.000007 0.000006 3.713580 -0.001619 -3.122277 -0.475127
 64 0.000002 -0.000001 -5.000000 -0.088726 1.558589 3.066334
 65 7.363602 1.646647 0.495663 3.141593 -1.570796 0.000000
 66 -0.000005 0.000007 3.619081 0.008255 -3.110080 -0.985231
 67 16.573919 0.000002 0.000000 0.000000 -0.000000 -1.065827
 68 15.128181 0.000000 -0.000000 -0.102296 0.010178 0.114297
 69 5.758665 4.244730 0.000000 0.000000 0.000000 1.667687
 70 3.177725 0.000000 -0.000000 0.000000 0.000000 3.141593
 71 15.708953 0.000001 0.000000 -0.051525 0.003996 0.061523
 72 0.275148 0.189215 -3.445207 3.130898 0.000409 -1.514604
 73 17.210192 0.000001 0.000000 0.000000 -0.000000 -1.893339
 74 0.000001 -0.000000 -5.000000 -0.079430 1.546568 -1.570855
 75 0.000002 -0.000003 -3.619081 0.577895 2.675801 -0.242118
 76 16.573921 -0.000001 -0.000002 -0.000000 -0.000000 -1.163030
 77 15.128181 0.000001 0.000001 0.089479 0.309197 0.659208
 78 5.758666 4.244730 -0.000001 -0.000000 -0.000000 1.815142
 79 4.003934 -0.000000 0.000001 0.000000 0.000000 0.000000
 80 15.708954 0.000001 0.000002 0.042277 0.226871 0.443133
 81 0.273998 0.191089 3.439762 -3.130907 -0.000437 -1.508107
 82 17.210194 -0.000001 -0.000002 0.000000 -0.000000 -1.937080
 83 -0.000000 -0.000001 5.000000 -0.079319 1.595025 -1.570742
time 9
  0 -0.650000 0.000000 33.899605 -0.025849 0.174554 -1.569172
  1 5.685104 0.833236 -32.227173 -0.174512 -0.026131 1.569196
  2 -2.276935 0.000003 -1.238188 -1.570795 -1.570451 0.000000
  3 1.797150 0.712174 0.001526 -0.495025 -0.194213 0.106353
  4 4.119902 -0.002647 0.001434 -0.464011 0.217705 0.349643
  5 4.119000 -0.002876 0.001527 -0.488222 0.119858 0.072910
  6 4.118652 -0.002887 0.001554 -0.493931 0.037270 -0.002509
  7 4.120688 -0.002851 -0.000233 0.066676 0.166244 0.642454
  8 4.443598 -0.000001 0.000000 0.567638 0.129524 -0.296011
  9 9.024061 0.000000 -0.000000 0.000000 0.000000 0.000000
 10 -0.286730 0.117388 1.705034 0.940808 -1.033143 1.553422
 11 6.384775 -0.000000 0.000001 -0.628406 0.394125 -0.759390
 12 10.242683 0.000003 -0.000000 0.000000 -0.000000 -1.220961
 13 11.375562 -0.000001 0.000000 3.084635 0.199818 0.687065
 14 0.728681 0.023429 -1.008293 2.396606 0.246960 1.180207
 15 2.136496 -0.000001 -0.000002 -0.000000 -0.000000 -0.078540
 16 2.313140 -0.000000 -0.000000 0.000000 0.000000 0.000000
 17 3.115507 -0.886042 -0.021432 -0.166499 0.000392 0.514872
 18 2.011151 -0.000001 0.000000 -0.000000 0.000000 1.322792
 19 2.141379 0.000001 0.000000 0.000000 0.000000 0.000000
 20 1.734172 0.000000 0.000002 -0.000000 -0.000000 0.660693
 21 0.000003 -4.440593 0.000001 1.570544 -0.062990 -0.195737
 22 6.000000 0.000000 0.000000 -2.902697 -0.000000 -0.000000
 23 0.000003 -4.440600 0.000000 1.569944 -0.062987 0.004053
 24 11.375561 -0.000000 0.000004 -2.399098 -0.063218 0.396777
 25 -0.000000 -4.440603 0.000000 1.570144 -0.062988 0.004040
 26 10.510130 0.000000 0.000000 -0.000000 -0.000000 -2.181277
 27 0.000001 -1.748400 4.999999 -0.000000 0.004007 1.602290
 28 5.500000 0.000001 0.000000 0.201176 -0.000000 -0.000000
 29 -0.000001 -1.940599 5.000000 -0.044472 0.004003 -0.000180
 30 6.551491 -0.000000 -0.000001 -0.383628 0.272081 -0.515795
 31 0.000001 -1.940597 5.000000 -0.027189 -0.053376 0.005295
 32 6.551491 -0.000000 -0.000001 -0.164698 0.155055 -0.232133
 33 0.000000 -1.940599 4.999994 -0.066572 -0.152786 -0.110311
 34 0.286733 -0.110312 -1.705034 -1.900796 1.033873 0.646506
 35 6.384776 0.000001 0.000000 -0.774405 -0.861599 0.182410
 36 10.242682 -0.000002 0.000001 0.000000 -0.000000 -2.126477
 37 11.375560 -0.000000 0.000001 2.393719 0.702242 0.351278
 38 0.728680 0.023430 1.008293 -1.579583 -0.319038 0.212973
 39 2.136497 0.000000 0.000001 -0.000000 -0.000000 1.282817
 40 2.313138 -0.000001 -0.000000 0.000000 0.000000 3.141593
 41 3.115507 -0.886041 0.021431 0.708959 0.171755 0.347804
 42 2.011149 0.000002 0.000001 0.000000 -0.000000 2.082010
 43 2.141378 -0.000001 0.000000 0.000000 0.000000 3.141593
 44 1.734171 0.000001 0.000001 0.000000 0.000000 1.041748
 45 0.136314 -3.738192 2.525892 1.493698 2.759406 -1.474501
 46 5.613159 0.862367 3.157031 1.595152 -0.135386 0.061522
 47 11.389365 -0.000821 0.158781 1.923827 0.387795 0.081391
 48 0.000000 -4.440598 -0.000001 1.570144 -3.078602 0.004040
 49 5.999999 -0.000002 -0.000001 1.923827 0.000000 -0.000000
 50 0.000001 -4.440602 -0.000001 1.569944 -3.078603 0.004053
 51 10.510133 -0.000002 0.000002 0.000000 0.000000 -2.634035
 52 -0.000001 -1.748398 -5.000001 -3.141593 0.004007 -1.539299
 53 5.500000 -0.000001 0.000000 0.222074 -0.000000 -0.000000
 54 -0.000001 -0.000000 -5.000000 -0.044472 3.137589 -0.000177
 55 6.551490 0.000000 0.000002 -0.222074 -0.304154 -0.041423
 56 -1.266843 -1.937443 -4.950560 -0.066572 -2.988806 -0.110308
 57 6.551490 -0.000000 0.000003 -0.222074 -0.304154 -0.041423
 58 0.699371 -1.944208 -5.006845 -0.027189 -3.088217 0.005298
 59 4.226144 -0.003201 0.000001 0.020687 0.089510 0.328468
 60 -0.000001 5.000001 0.000001 -0.153564 0.000087 2.718702
 61 0.000004 -0.000004 -3.713580 0.365818 2.880119 -0.191589
 62 0.000002 -0.000000 5.000000 3.053196 1.558589 -0.074928
 63 -0.000007 0.000006 3.713580 -0.001619 -3.122277 -0.475127
 64 0.000002 -0.000001 -5.000000 -0.088726 1.558589 3.066334
 65 7.363602 1.646647 0.495663 3.141593 -1.570796 0.000000
 66 -0.000005 0.000007 3.619081 0.008255 -3.110080 -0.985231
 67 16.573919 0.000002 0.000000 0.000000 -0.000000 -1.065827
 68 15.128181 0.000000 -0.000000 -0.102296 0.010178 0.114297
 69 5.758665 4.244730 0.000000 0.000000 0.000000 1.667687
 70 3.177725 0.000000 -0.000000 0.000000 0.000000 3.141593
 71 15.708953 0.000001 0.000000 -0.051525 0.003996 0.061523
 72 0.275148 0.189215 -3.445207 3.130898 0.000409 -1.514604
 73 17.210192 0.000001 0.000000 0.000000 -0.000000 -1.893339
 74 0.000001 -0.000000 -5.000000 -0.079430 1.546568 -1.570855
 75 0.000002 -0.000003 -3.619081 0.577895 2.675801 -0.242118
 76 16.573921 -0.000001 -0.000002 -0.000000 -0.000000 -1.163030
 77 15.128181 0.000001 0.000001 0.089479 0.309197 0.659208
 78 5.758666 4.244730 -0.000001 -0.000000 -0.000000 1.815142
 79 4.003934 -0.000000 0.000001 0.000000 0.000000 0.000000
 80 15.708954 0.000001 0.000002 0.042277 0.226871 0.443133
 81 0.273998 0.191089 3.439762 -3.130907 -0.000437 -1.508107
 82 17.210194 -0.000001 -0.000002 0.000000 -0.000000 -1.937080
 83 -0.000000 -0.000001 5.000000 -0.079319 1.595025 -1.570742
time 10
  0 -0.650000 0.000000 33.899605 -0.025849 0.174554 -1.569172
  1 5.685104 0.833236 -32.227173 -0.174512 -0.026131 1.569196
  2 -2.276935 0.000003 -1.238188 -1.570795 -1.570451 0.000000
  3 1.797144 0.712178 0.001533 -0.497523 -0.194551 0.105688
  4 4.119902 -0.002644 0.001440 -0.466375 0.218385 0.348847
  5 4.118997 -0.002873 0.001533 -0.490645 0.119884 0.072334
  6 4.118655 -0.002884 0.001560 -0.496334 0.037114 -0.002884
  7 4.120689 -0.002851 -0.000233 0.066676 0.166244 0.642454
  8 4.443599 0.000000 0.000000 0.574804 0.123343 -0.294143
  9 9.024060 -0.000001 0.000000 0.000000 0.000000 0.000000
 10 -0.286732 0.117390 1.705035 0.940808 -1.033143 1.553422
 11 6.384776 0.000000 0.000002 -0.628167 0.401699 -0.740792
 12 10.242683 0.000001 -0.000000 0.000000 0.000000 -1.233471
 13 11.375562 -0.000002 -0.000001 3.083278 0.200758 0.686427
 14 0.728682 0.023429 -1.008292 2.396606 0.246960 1.180207
 15 2.136498 0.000000 -0.000001 -0.000000 -0.000000 -0.078540
 16 2.313141 0.000000 -0.000001 0.000000 0.000000 0.000000
 17 3.115506 -0.886041 -0.021430 -0.166499 0.000392 0.514872
 18 2.011152 0.000003 -0.000000 0.000000 0.000000 1.322792
 19 2.141376 -0.000000 -0.000000 0.000000 0.000000 0.000000
 20 1.734172 0.000003 0.000000 0.000000 0.000000 0.660693
 21 0.000004 -4.440595 0.000000 1.570544 -0.062990 -0.195737
 22 5.999999 0.000001 -0.000000 -2.903948 -0.000000 -0.000000
 23 -0.000001 -4.440601 0.000002 1.569944 -0.062987 0.004053
 24 11.375561 -0.000002 0.000002 -2.399808 -0.062792 0.396756
 25 -0.000002 -4.440604 0.000000 1.570144 -0.062988 0.004040
 26 10.510131 -0.000001 -0.000000 0.000000 -0.000000 -2.187532
 27 -0.000001 -1.748401 4.999999 -0.000000 0.004007 1.602291
 28 5.500001 0.000000 0.000000 0.202633 0.000000 -0.000000
 29 -0.000001 -1.940598 5.000000 -0.044472 0.004003 -0.000180
 30 6.551491 0.000001 0.000001 -0.386095 0.275831 -0.507709
 31 -0.000001 -1.940601 5.000004 -0.027189 -0.053376 0.005295
 32 6.551491 0.000001 0.000001 -0.165958 0.156712 -0.228095
 33 -0.000001 -1.940599 4.999996 -0.066572 -0.152786 -0.110311
 34 0.286735 -0.110313 -1.705035 -1.900656 1.035630 0.646654
 35 6.384776 -0.000001 0.000002 -0.762606 -0.865880 0.157946
 36 10.242684 0.000000 -0.000001 0.000000 -0.000000 -2.117367
 37 11.375561 -0.000002 -0.000001 2.395605 0.700272 0.357189
 38 0.728681 0.023430 1.008296 -1.579583 -0.319038 0.212973
 39 2.136496 0.000001 0.000000 0.000000 -0.000000 1.282817
 40 2.313138 -0.000001 0.000000 0.000000 0.000000 3.141593
 41 3.115506 -0.886042 0.021434 0.708959 0.171755 0.347804
 42 2.011151 -0.000001 -0.000002 0.000000 -0.000000 2.082010
 43 2.141378 -0.000000 0.000001 0.000000 0.000000 3.141593
 44 1.734172 -0.000001 -0.000001 0.000000 -0.000000 1.041748
 45 0.136315 -3.738193 2.525889 1.493698 2.759406 -1.474501
 46 5.613159 0.862366 3.157033 1.595152 -0.135386 0.061522
 47 11.389368 -0.000819 0.158783 1.924394 0.387331 0.084336
 48 -0.000001 -4.440600 0.000001 1.570144 -3.078602 0.004040
 49 6.000000 -0.000000 -0.000000 1.924394 0.000000 -0.000000
 50 -0.000000 -4.440602 -0.000000 1.569944 -3.078603 0.004053
 51 10.510132 0.000000 0.000000 -0.000000 0.000000 -2.629480
 52 -0.000001 -1.748399 -5.000001 3.141593 0.004007 -1.539299
 53 5.500000 0.000001 -0.000001 0.219330 -0.000000 -0.000000
 54 0.000001 -0.000000 -5.000000 -0.044472 3.137590 -0.000177
 55 6.551491 -0.000000 0.000000 -0.219330 -0.304302 -0.047737
 56 -1.266843 -1.937444 -4.950562 -0.066572 -2.988806 -0.110308
 57 6.551492 -0.000000 0.000000 -0.219330 -0.304302 -0.047737
 58 0.699371 -1.944209 -5.006847 -0.027189 -3.088217 0.005298
 59 4.226149 -0.003201 -0.000001 0.020687 0.089510 0.328468
 60 0.000002 5.000001 -0.000001 -0.153564 0.000087 2.718702
 61 0.000004 -0.000004 -3.713580 0.365818 2.880119 -0.191589
 62 0.000002 -0.000000 5.000000 3.053196 1.558589 -0.074928
 63 -0.000007 0.000006 3.713580 -0.001619 -3.122277 -0.475127
 64 0.000002 -0.000001 -5.000000 -0.088726 1.558589 3.066334
 65 7.363602 1.646647 0.495663 3.141593 -1.570796 0.000000
 66 -0.000005 0.000007 3.619081 0.008255 -3.110080 -0.985231
 67 16.573919 0.000002 0.000000 0.000000 -0.000000 -1.065827
 68 15.128181 0.000000 -0.000000 -0.102296 0.010178 0.114297
 69 5.758665 4.244730 0.000000 0.000000 0.000000 1.667687
 70 3.177725 0.000000 -0.000000 0.000000 0.000000 3.141593
 71 15.708953 0.000001 0.000000 -0.051525 0.003996 0.061523
 72 0.275148 0.189215 -3.445207 3.130898 0.000409 -1.514604
 73 17.210192 0.000001 0.000000 0.000000 -0.000000 -1.893339
 74 0.000001 -0.000000 -5.000000 -0.079430 1.546568 -1.570855
 75 0.000002 -0.000003 -3.619081 0.577895 2.675801 -0.242118
 76 16.573921 -0.000001 -0.000002 -0.000000 -0.000000 -1.163030
 77 15.128181 0.000001 0.000001 0.089479 0.309197 0.659208
 78 5.758666 4.244730 -0.000001 -0.000000 -0.000000 1.815142
 79 4.003934 -0.000000 0.000001 0.000000 0.000000 0.000000
 80 15.708954 0.000001 0.000002 0.042277 0.226871 0.443133
 81 0.273998 0.191089 3.439762 -3.130907 -0.000437 -1.508107
 82 17.210194 -0.000001 -0.000002 0.000000 -0.000000 -1.937080
 83 -0.000000 -0.000001 5.000000 -0.079319 1.595025 -1.570742
end
