version 1
nodes
  0 "Bip01"  -1
  1 "Bip01 Footsteps"   0
  2 "Bip01 Pelvis"   0
  3 "Bip01 Spine"   2
  4 "Bip01 Spine1"   3
  5 "Bip01 Spine2"   4
  6 "Bip01 Spine3"   5
  7 "Bip01 Neck"   6
  8 "Bip01 Head"   7
  9 "Dummy21"   8
 10 "Bip01 L Clavicle"   7
 11 "Bip01 L UpperArm"  10
 12 "Bip01 L Forearm"  11
 13 "Bip01 L Hand"  12
 14 "Bip01 L Finger0"  13
 15 "Bip01 L Finger01"  14
 16 "Dummy06"  15
 17 "Bip01 L Finger1"  13
 18 "Bip01 L Finger11"  17
 19 "Dummy03"  18
 20 "-- L knuckle"  17
 21 "-- L knuckle_end"  20
 22 "-- L Forearm twist"  12
 23 "-- L Forearm twist_end"  22
 24 "-- L wrist"  12
 25 "-- L wrist_end"  24
 26 "-- L Elbow"  11
 27 "--L Elbow_end"  26
 28 "-- L bicep twist"  11
 29 "-- L bicep twist_end"  28
 30 "-- L shoulder outside"  10
 31 "-- L shoulder outside_end"  30
 32 "-- L Shoulder inside"  10
 33 "-- L Shoulder inside_end"  32
 34 "Bip01 R Clavicle"   7
 35 "Bip01 R UpperArm"  34
 36 "Bip01 R Forearm"  35
 37 "Bip01 R Hand"  36
 38 "Bip01 R Finger0"  37
 39 "Bip01 R Finger01"  38
 40 "Dummy01"  39
 41 "Bip01 R Finger1"  37
 42 "Bip01 R Finger11"  41
 43 "Dummy02"  42
 44 "-- R knuckle"  41
 45 "Point06"  44
 46 "Line01"  37
 47 "-- R wrist"  36
 48 "-- R wrist_end"  47
 49 "-- R forearm twist"  36
 50 "-- R forearm twist_end"  49
 51 "-- R Elbow"  35
 52 "--R Elbow_end"  51
 53 "-- R bicep twist"  35
 54 "-- R bicep twist_end"  53
 55 "-- R Shoulder inside"  34
 56 "-- R Shoulder inside_end"  55
 57 "-- R shoulder outside"  34
 58 "-- R shoulder outside_end"  57
 59 "-- Neck smooth"   6
 60 "-- neck smooth end"  59
 61 "-- R Butt"   2
 62 "--R Butt_end"  61
 63 "-- L butt"   2
 64 "--L butt_end"  63
 65 "GIGN01"   2
 66 "Bip01 L Thigh"   2
 67 "Bip01 L Calf"  66
 68 "Bip01 L Foot"  67
 69 "Bip01 L Toe0"  68
 70 "Dummy16"  69
 71 "-- L ankle"  67
 72 "-- L ankleend"  71
 73 "-- L Knee"  66
 74 "--L Knee_end"  73
 75 "Bip01 R Thigh"   2
 76 "Bip01 R Calf"  75
 77 "Bip01 R Foot"  76
 78 "Bip01 R Toe0"  77
 79 "Dummy11"  78
 80 "-- R Ankle"  76
 81 "-- R ankleend"  80
 82 "-- R Knee"  75
 83 "--R Knee_end"  82
end
skeleton
time 0
  0 -0.650000 0.000000 33.899605 -0.025849 0.174554 -1.569172
  1 5.685104 0.833236 -32.227173 -0.174512 -0.026131 1.569196
  2 -2.276935 0.000003 -1.238188 -1.570795 -1.570451 0.000000
  3 1.796802 0.712161 0.001461 -0.462694 0.022825 -0.127257
  4 4.119828 -0.002704 0.001397 -0.443393 0.118774 0.368385
  5 4.118907 -0.002912 0.001476 -0.466928 -0.026767 0.118876
  6 4.119635 -0.002832 0.001295 -0.406199 0.015508 0.342393
  7 4.118929 -0.003514 -0.000288 0.081617 0.123813 0.102457
  8 4.443598 -0.000001 0.000002 0.495299 0.120717 0.514776
  9 9.024061 -0.000001 0.000000 0.000000 0.000000 0.000000
 10 -0.213985 0.143714 1.713734 1.114698 -0.956639 1.937913
 11 6.384777 0.000000 0.000000 -0.439665 0.553930 -0.613726
 12 10.242680 -0.000001 0.000000 -0.000000 0.000000 -1.039928
 13 11.375561 0.000003 -0.000001 2.952767 0.252802 0.538592
 14 0.728680 0.023430 -1.008291 2.396606 0.246960 1.180207
 15 2.136496 -0.000000 -0.000001 0.000000 -0.000000 -0.078540
 16 2.313139 0.000000 -0.000000 0.000000 0.000000 0.000000
 17 3.115505 -0.886042 -0.021431 -0.166499 0.000392 0.514872
 18 2.011151 -0.000001 0.000000 -0.000000 0.000000 1.322791
 19 2.141381 0.000001 0.000000 0.000000 0.000000 0.000000
 20 1.734172 0.000001 -0.000000 0.000000 -0.000000 0.660693
 21 0.000007 -4.440595 -0.000000 1.570544 -0.062990 -0.195737
 22 6.000000 0.000002 0.000000 -3.015411 -0.000000 0.000000
 23 0.000002 -4.440601 -0.000001 1.569944 -0.062987 0.004053
 24 11.375560 0.000001 0.000002 -2.461030 -0.017990 0.350672
 25 0.000000 -4.440604 0.000001 1.570144 -0.062988 0.004040
 26 10.510131 0.000001 -0.000000 -0.000000 0.000000 -2.090760
 27 -0.000001 -1.748400 4.999999 0.000000 0.004007 1.602290
 28 5.499999 0.000000 -0.000000 0.122737 0.000000 0.000000
 29 -0.000002 -1.940597 5.000000 -0.044472 0.004003 -0.000180
 30 6.551491 -0.000000 0.000000 -0.251585 0.362815 -0.451487
 31 -0.000000 -1.940598 5.000002 -0.027189 -0.053376 0.005295
 32 6.551491 -0.000000 0.000000 -0.099000 0.189841 -0.203741
 33 -0.000001 -1.940599 4.999997 -0.066572 -0.152786 -0.110311
 34 0.213987 -0.136637 -1.713730 -0.533148 1.501178 2.520521
 35 6.384777 0.000002 -0.000000 -0.609986 -0.768973 -0.431128
 36 10.242682 -0.000000 -0.000001 0.000000 -0.000000 -1.912614
 37 11.375562 0.000002 0.000002 2.712400 0.446947 0.620437
 38 0.728680 0.023430 1.008293 -1.579583 -0.319038 0.212973
 39 2.136496 -0.000001 0.000000 -0.000000 0.000000 1.282817
 40 2.313140 -0.000000 -0.000001 0.000000 0.000000 3.141593
 41 3.115508 -0.886042 0.021431 0.708959 0.171755 0.347804
 42 2.011148 0.000000 0.000000 0.000000 0.000000 2.082010
 43 2.141380 -0.000000 0.000000 0.000000 0.000000 3.141593
 44 1.734173 -0.000002 -0.000001 -0.000000 -0.000000 1.041748
 45 0.136315 -3.738193 2.525891 1.493698 2.759406 -1.474501
 46 5.613161 0.862366 3.157030 1.595152 -0.135386 0.061522
 47 11.389367 -0.000816 0.158783 2.089520 0.314560 0.233244
 48 -0.000002 -4.440599 0.000000 1.570144 -3.078602 0.004040
 49 5.999999 0.000001 0.000000 2.089520 0.000000 -0.000000
 50 0.000000 -4.440601 -0.000001 1.569944 -3.078603 0.004053
 51 10.510133 -0.000003 0.000000 0.000000 -0.000000 -2.527103
 52 -0.000000 -1.748400 -5.000001 3.141593 0.004007 -1.539299
 53 5.500000 -0.000000 -0.000001 0.190044 -0.000000 -0.000000
 54 -0.000001 0.000003 -5.000000 -0.044472 3.137589 -0.000177
 55 6.551490 -0.000000 0.000002 -0.190044 -0.233437 -0.180175
 56 -1.266843 -1.937442 -4.950559 -0.066572 -2.988806 -0.110308
 57 6.551490 -0.000000 0.000002 -0.190044 -0.233437 -0.180175
 58 0.699371 -1.944206 -5.006847 -0.027189 -3.088217 0.005298
 59 4.226145 -0.003202 -0.000000 0.040215 0.067336 0.058037
 60 0.000000 5.000002 0.000001 -0.153564 0.000087 2.718702
 61 0.000004 -0.000004 -3.713580 0.365818 2.880119 -0.191589
 62 0.000002 -0.000000 5.000000 3.053196 1.558589 -0.074928
 63 -0.000007 0.000006 3.713580 -0.001619 -3.122277 -0.475127
 64 0.000002 -0.000001 -5.000000 -0.088726 1.558589 3.066334
 65 7.363602 1.646647 0.495663 3.141593 -1.570796 0.000000
 66 -0.000005 0.000007 3.619081 0.008255 -3.110080 -0.985231
 67 16.573919 0.000002 0.000000 0.000000 -0.000000 -1.065827
 68 15.128181 0.000000 -0.000000 -0.102296 0.010178 0.114297
 69 5.758665 4.244730 0.000000 0.000000 0.000000 1.667687
 70 3.177725 0.000000 -0.000000 0.000000 0.000000 3.141593
 71 15.708953 0.000001 0.000000 -0.051525 0.003996 0.061523
 72 0.275148 0.189215 -3.445207 3.130898 0.000409 -1.514604
 73 17.210192 0.000001 0.000000 0.000000 -0.000000 -1.893339
 74 0.000001 -0.000000 -5.000000 -0.079430 1.546568 -1.570855
 75 0.000002 -0.000003 -3.619081 0.577895 2.675801 -0.242118
 76 16.573921 -0.000001 -0.000002 -0.000000 -0.000000 -1.163030
 77 15.128181 0.000001 0.000001 0.089479 0.309197 0.659208
 78 5.758666 4.244730 -0.000001 -0.000000 -0.000000 1.815142
 79 4.003934 -0.000000 0.000001 0.000000 0.000000 0.000000
 80 15.708954 0.000001 0.000002 0.042277 0.226871 0.443133
 81 0.273998 0.191089 3.439762 -3.130907 -0.000437 -1.508107
 82 17.210194 -0.000001 -0.000002 0.000000 -0.000000 -1.937080
 83 -0.000000 -0.000001 5.000000 -0.079319 1.595025 -1.570742
time 1
  0 -0.650000 0.000000 33.899605 -0.025849 0.174554 -1.569172
  1 5.685104 0.833236 -32.227173 -0.174512 -0.026131 1.569196
  2 -2.276935 0.000003 -1.238188 -1.570795 -1.570451 0.000000
  3 1.796802 0.712146 0.001431 -0.452645 0.034748 -0.132078
  4 4.119822 -0.002718 0.001369 -0.433583 0.111847 0.370978
  5 4.118916 -0.002929 0.001445 -0.456807 -0.033292 0.121149
  6 4.119634 -0.002846 0.001267 -0.396513 0.008784 0.343864
  7 4.119428 -0.003429 -0.000279 0.079581 0.112355 0.245250
  8 4.443599 -0.000000 -0.000001 0.492893 0.174462 0.343675
  9 9.024061 0.000000 -0.000000 0.000000 0.000000 0.000000
 10 -0.194270 0.140410 1.716346 1.104887 -0.974632 1.803719
 11 6.384778 0.000000 0.000000 -0.452998 0.503929 -0.719535
 12 10.242683 0.000000 0.000000 -0.000000 -0.000000 -0.898221
 13 11.375560 0.000003 -0.000000 2.952695 0.265216 0.480511
 14 0.728681 0.023430 -1.008292 2.396606 0.246960 1.180207
 15 2.136496 0.000000 0.000001 -0.000000 -0.000000 -0.078540
 16 2.313140 -0.000000 -0.000000 0.000000 0.000000 0.000000
 17 3.115506 -0.886042 -0.021431 -0.166499 0.000392 0.514872
 18 2.011151 -0.000001 -0.000001 -0.000000 -0.000000 1.322792
 19 2.141381 0.000001 0.000001 0.000000 0.000000 0.000000
 20 1.734173 0.000002 -0.000000 0.000000 -0.000000 0.660693
 21 0.000004 -4.440595 -0.000001 1.570544 -0.062990 -0.195737
 22 6.000000 0.000003 0.000001 -3.010227 -0.000000 -0.000000
 23 0.000002 -4.440602 0.000000 1.569944 -0.062987 0.004053
 24 11.375562 0.000002 0.000003 -2.458384 0.004311 0.328002
 25 -0.000000 -4.440605 -0.000000 1.570144 -0.062988 0.004040
 26 10.510132 0.000001 0.000000 0.000000 0.000000 -2.019907
 27 0.000000 -1.748402 4.999999 -0.000000 0.004007 1.602290
 28 5.500000 0.000000 0.000000 0.119602 0.000000 0.000000
 29 -0.000002 -1.940598 5.000000 -0.044472 0.004003 -0.000180
 30 6.551493 0.000000 0.000000 -0.246788 0.336587 -0.499749
 31 -0.000000 -1.940599 5.000001 -0.027189 -0.053376 0.005295
 32 6.551493 0.000000 0.000000 -0.096163 0.177791 -0.227621
 33 -0.000002 -1.940599 4.999995 -0.066572 -0.152786 -0.110311
 34 0.194272 -0.133334 -1.716346 -1.031672 1.449566 1.888272
 35 6.384777 0.000000 -0.000002 -0.608884 -0.794935 -0.348285
 36 10.242683 -0.000001 -0.000001 -0.000000 -0.000000 -1.900061
 37 11.375562 0.000000 0.000001 2.703777 0.474158 0.599666
 38 0.728679 0.023431 1.008294 -1.579583 -0.319038 0.212973
 39 2.136497 0.000002 -0.000000 -0.000000 0.000000 1.282817
 40 2.313140 0.000000 0.000000 0.000000 0.000000 3.141593
 41 3.115507 -0.886041 0.021431 0.708959 0.171755 0.347804
 42 2.011152 -0.000000 0.000000 -0.000000 0.000000 2.082010
 43 2.141381 0.000001 0.000000 0.000000 0.000000 3.141593
 44 1.734172 -0.000001 0.000001 -0.000000 0.000000 1.041748
 45 0.136314 -3.738192 2.525890 1.493698 2.759406 -1.474501
 46 5.613160 0.862367 3.157031 1.595152 -0.135386 0.061522
 47 11.389367 -0.000818 0.158782 2.082583 0.324531 0.217981
 48 -0.000001 -4.440600 -0.000000 1.570144 -3.078602 0.004040
 49 6.000000 -0.000000 0.000000 2.082583 -0.000000 0.000000
 50 0.000002 -4.440601 -0.000000 1.569944 -3.078603 0.004053
 51 10.510130 0.000001 -0.000000 -0.000000 0.000000 -2.520827
 52 -0.000000 -1.748402 -5.000001 3.141593 0.004007 -1.539299
 53 5.500000 0.000001 -0.000001 0.187011 0.000000 -0.000000
 54 0.000001 -0.000002 -5.000000 -0.044472 3.137589 -0.000177
 55 6.551492 -0.000000 -0.000001 -0.187011 -0.252670 -0.161728
 56 -1.266843 -1.937444 -4.950559 -0.066572 -2.988806 -0.110308
 57 6.551492 -0.000000 -0.000001 -0.187011 -0.252670 -0.161728
 58 0.699371 -1.944207 -5.006847 -0.027189 -3.088217 0.005298
 59 4.226146 -0.003201 -0.000000 0.037471 0.061837 0.138173
 60 -0.000002 5.000001 0.000001 -0.153564 0.000087 2.718702
 61 0.000004 -0.000004 -3.713580 0.365818 2.880119 -0.191589
 62 0.000002 -0.000000 5.000000 3.053196 1.558589 -0.074928
 63 -0.000007 0.000006 3.713580 -0.001619 -3.122277 -0.475127
 64 0.000002 -0.000001 -5.000000 -0.088726 1.558589 3.066334
 65 7.363602 1.646647 0.495663 3.141593 -1.570796 0.000000
 66 -0.000005 0.000007 3.619081 0.008255 -3.110080 -0.985231
 67 16.573919 0.000002 0.000000 0.000000 -0.000000 -1.065827
 68 15.128181 0.000000 -0.000000 -0.102296 0.010178 0.114297
 69 5.758665 4.244730 0.000000 0.000000 0.000000 1.667687
 70 3.177725 0.000000 -0.000000 0.000000 0.000000 3.141593
 71 15.708953 0.000001 0.000000 -0.051525 0.003996 0.061523
 72 0.275148 0.189215 -3.445207 3.130898 0.000409 -1.514604
 73 17.210192 0.000001 0.000000 0.000000 -0.000000 -1.893339
 74 0.000001 -0.000000 -5.000000 -0.079430 1.546568 -1.570855
 75 0.000002 -0.000003 -3.619081 0.577895 2.675801 -0.242118
 76 16.573921 -0.000001 -0.000002 -0.000000 -0.000000 -1.163030
 77 15.128181 0.000001 0.000001 0.089479 0.309197 0.659208
 78 5.758666 4.244730 -0.000001 -0.000000 -0.000000 1.815142
 79 4.003934 -0.000000 0.000001 0.000000 0.000000 0.000000
 80 15.708954 0.000001 0.000002 0.042277 0.226871 0.443133
 81 0.273998 0.191089 3.439762 -3.130907 -0.000437 -1.508107
 82 17.210194 -0.000001 -0.000002 0.000000 -0.000000 -1.937080
 83 -0.000000 -0.000001 5.000000 -0.079319 1.595025 -1.570742
time 2
  0 -0.650000 0.000000 33.899605 -0.025849 0.174554 -1.569172
  1 5.685104 0.833236 -32.227173 -0.174512 -0.026131 1.569196
  2 -2.276935 0.000003 -1.238188 -1.570795 -1.570451 0.000000
  3 1.796803 0.712131 0.001401 -0.442648 0.046719 -0.136780
  4 4.119824 -0.002732 0.001341 -0.423798 0.104895 0.373501
  5 4.118909 -0.002940 0.001416 -0.446699 -0.039840 0.123356
  6 4.119638 -0.002858 0.001236 -0.386838 0.002045 0.345270
  7 4.119915 -0.003279 -0.000268 0.075929 0.101301 0.387892
  8 4.443598 0.000001 0.000000 0.488350 0.230552 0.173073
  9 9.024061 -0.000000 0.000000 0.000000 0.000000 0.000000
 10 -0.175228 0.134301 1.718873 1.099303 -0.993216 1.666105
 11 6.384776 -0.000001 0.000002 -0.467232 0.450564 -0.837228
 12 10.242682 0.000001 0.000000 0.000000 -0.000000 -0.728734
 13 11.375562 0.000003 0.000000 2.952788 0.277776 0.407614
 14 0.728681 0.023432 -1.008292 2.396606 0.246960 1.180207
 15 2.136496 -0.000000 -0.000001 0.000000 -0.000000 -0.078540
 16 2.313140 0.000000 0.000000 0.000000 0.000000 0.000000
 17 3.115507 -0.886041 -0.021431 -0.166499 0.000392 0.514872
 18 2.011151 -0.000001 -0.000000 0.000000 0.000000 1.322792
 19 2.141379 0.000001 0.000001 0.000000 0.000000 0.000000
 20 1.734172 0.000001 -0.000000 -0.000000 0.000000 0.660693
 21 0.000007 -4.440594 0.000001 1.570544 -0.062990 -0.195737
 22 6.000000 0.000002 0.000001 -3.004116 -0.000000 0.000000
 23 0.000002 -4.440602 -0.000000 1.569944 -0.062987 0.004053
 24 11.375561 0.000001 0.000003 -2.454804 0.031306 0.297833
 25 0.000000 -4.440602 -0.000001 1.570144 -0.062988 0.004040
 26 10.510133 0.000002 -0.000000 -0.000000 0.000000 -1.935163
 27 0.000000 -1.748400 4.999999 -0.000000 0.004007 1.602291
 28 5.499999 0.000001 0.000000 0.118730 -0.000000 -0.000000
 29 -0.000002 -1.940598 5.000000 -0.044472 0.004003 -0.000180
 30 6.551493 -0.000001 0.000000 -0.246153 0.314523 -0.546515
 31 0.000002 -1.940598 5.000002 -0.027189 -0.053376 0.005295
 32 6.551493 -0.000001 0.000000 -0.095200 0.167819 -0.249979
 33 -0.000001 -1.940600 4.999997 -0.066572 -0.152786 -0.110311
 34 0.175228 -0.127221 -1.718871 -1.202672 1.386282 1.583211
 35 6.384776 -0.000001 0.000002 -0.608672 -0.819077 -0.262237
 36 10.242683 -0.000002 -0.000001 0.000000 -0.000000 -1.888475
 37 11.375560 -0.000002 0.000001 2.695722 0.498700 0.576203
 38 0.728681 0.023431 1.008291 -1.579583 -0.319038 0.212973
 39 2.136497 0.000001 -0.000000 -0.000000 -0.000000 1.282817
 40 2.313141 -0.000000 0.000000 0.000000 0.000000 3.141593
 41 3.115505 -0.886041 0.021431 0.708959 0.171755 0.347804
 42 2.011153 -0.000001 -0.000000 -0.000000 0.000000 2.082010
 43 2.141380 0.000001 0.000000 0.000000 0.000000 3.141593
 44 1.734172 -0.000000 0.000001 0.000000 -0.000000 1.041748
 45 0.136314 -3.738191 2.525891 1.493698 2.759406 -1.474501
 46 5.613157 0.862367 3.157031 1.595152 -0.135386 0.061522
 47 11.389364 -0.000820 0.158782 2.076562 0.333097 0.202048
 48 -0.000001 -4.440599 0.000000 1.570144 -3.078602 0.004040
 49 5.999997 -0.000000 -0.000000 2.076562 -0.000000 -0.000000
 50 -0.000001 -4.440601 -0.000000 1.569944 -3.078603 0.004053
 51 10.510132 -0.000001 -0.000000 -0.000000 0.000000 -2.515034
 52 -0.000001 -1.748398 -5.000000 3.141593 0.004007 -1.539299
 53 5.500000 0.000000 -0.000001 0.185958 0.000000 -0.000000
 54 0.000000 0.000001 -4.999999 -0.044472 3.137589 -0.000177
 55 6.551491 0.000000 0.000001 -0.185958 -0.268944 -0.142760
 56 -1.266844 -1.937443 -4.950562 -0.066572 -2.988806 -0.110308
 57 6.551492 0.000000 0.000001 -0.185958 -0.268944 -0.142760
 58 0.699370 -1.944210 -5.006849 -0.027189 -3.088217 0.005298
 59 4.226148 -0.003202 -0.000000 0.034013 0.056329 0.212153
 60 0.000002 5.000000 0.000000 -0.153564 0.000087 2.718702
 61 0.000004 -0.000004 -3.713580 0.365818 2.880119 -0.191589
 62 0.000002 -0.000000 5.000000 3.053196 1.558589 -0.074928
 63 -0.000007 0.000006 3.713580 -0.001619 -3.122277 -0.475127
 64 0.000002 -0.000001 -5.000000 -0.088726 1.558589 3.066334
 65 7.363602 1.646647 0.495663 3.141593 -1.570796 0.000000
 66 -0.000005 0.000007 3.619081 0.008255 -3.110080 -0.985231
 67 16.573919 0.000002 0.000000 0.000000 -0.000000 -1.065827
 68 15.128181 0.000000 -0.000000 -0.102296 0.010178 0.114297
 69 5.758665 4.244730 0.000000 0.000000 0.000000 1.667687
 70 3.177725 0.000000 -0.000000 0.000000 0.000000 3.141593
 71 15.708953 0.000001 0.000000 -0.051525 0.003996 0.061523
 72 0.275148 0.189215 -3.445207 3.130898 0.000409 -1.514604
 73 17.210192 0.000001 0.000000 0.000000 -0.000000 -1.893339
 74 0.000001 -0.000000 -5.000000 -0.079430 1.546568 -1.570855
 75 0.000002 -0.000003 -3.619081 0.577895 2.675801 -0.242118
 76 16.573921 -0.000001 -0.000002 -0.000000 -0.000000 -1.163030
 77 15.128181 0.000001 0.000001 0.089479 0.309197 0.659208
 78 5.758666 4.244730 -0.000001 -0.000000 -0.000000 1.815142
 79 4.003934 -0.000000 0.000001 0.000000 0.000000 0.000000
 80 15.708954 0.000001 0.000002 0.042277 0.226871 0.443133
 81 0.273998 0.191089 3.439762 -3.130907 -0.000437 -1.508107
 82 17.210194 -0.000001 -0.000002 0.000000 -0.000000 -1.937080
 83 -0.000000 -0.000001 5.000000 -0.079319 1.595025 -1.570742
time 3
  0 -0.650000 0.000000 33.899605 -0.025849 0.174554 -1.569172
  1 5.685104 0.833236 -32.227173 -0.174512 -0.026131 1.569196
  2 -2.276935 0.000003 -1.238188 -1.570795 -1.570451 0.000000
  3 1.796805 0.712123 0.001384 -0.437212 0.053808 -0.139555
  4 4.119822 -0.002739 0.001326 -0.418448 0.100923 0.374924
  5 4.118911 -0.002950 0.001399 -0.441178 -0.043691 0.124663
  6 4.119635 -0.002865 0.001220 -0.381547 -0.001807 0.346078
  7 4.120368 -0.003054 -0.000246 0.070740 0.090874 0.530427
  8 4.443600 -0.000001 -0.000001 0.489870 0.269782 0.003048
  9 9.024061 -0.000001 0.000001 0.000000 0.000000 0.000000
 10 -0.157242 0.125496 1.721253 1.098416 -1.012049 1.524588
 11 6.384777 -0.000000 -0.000001 -0.477469 0.415782 -0.913668
 12 10.242682 -0.000001 -0.000000 -0.000000 0.000000 -0.610085
 13 11.375562 0.000003 -0.000001 2.952873 0.285186 0.354450
 14 0.728680 0.023432 -1.008292 2.396606 0.246960 1.180207
 15 2.136496 -0.000000 -0.000000 -0.000000 -0.000000 -0.078540
 16 2.313140 -0.000001 -0.000000 0.000000 0.000000 0.000000
 17 3.115506 -0.886040 -0.021431 -0.166499 0.000392 0.514872
 18 2.011151 0.000001 0.000000 -0.000000 0.000000 1.322792
 19 2.141381 0.000001 -0.000000 0.000000 0.000000 0.000000
 20 1.734172 0.000001 0.000000 -0.000000 0.000000 0.660693
 21 0.000005 -4.440594 0.000000 1.570544 -0.062990 -0.195737
 22 6.000000 0.000001 -0.000000 -3.000120 0.000000 0.000000
 23 0.000001 -4.440599 -0.000000 1.569944 -0.062987 0.004053
 24 11.375562 0.000001 0.000002 -2.452138 0.050447 0.274581
 25 -0.000001 -4.440602 0.000000 1.570144 -0.062988 0.004040
 26 10.510135 0.000001 -0.000000 -0.000000 -0.000000 -1.875839
 27 0.000001 -1.748402 4.999999 -0.000000 0.004007 1.602290
 28 5.500001 0.000001 -0.000000 0.120399 -0.000000 -0.000000
 29 -0.000001 -1.940596 5.000000 -0.044472 0.004003 -0.000180
 30 6.551491 -0.000001 -0.000001 -0.249860 0.302728 -0.575725
 31 -0.000003 -1.940600 5.000001 -0.027189 -0.053376 0.005295
 32 6.551491 -0.000000 -0.000002 -0.096418 0.162767 -0.263406
 33 -0.000000 -1.940600 4.999996 -0.066572 -0.152786 -0.110311
 34 0.157248 -0.118424 -1.721256 -1.248577 1.339722 1.399563
 35 6.384777 0.000001 -0.000001 -0.607505 -0.834064 -0.210407
 36 10.242682 0.000001 -0.000001 -0.000000 -0.000000 -1.881599
 37 11.375562 -0.000001 0.000002 2.688190 0.510530 0.560254
 38 0.728681 0.023431 1.008291 -1.579583 -0.319038 0.212973
 39 2.136496 -0.000003 -0.000000 -0.000000 0.000000 1.282817
 40 2.313139 -0.000001 0.000000 0.000000 0.000000 3.141593
 41 3.115508 -0.886041 0.021429 0.708959 0.171755 0.347804
 42 2.011150 -0.000000 -0.000000 -0.000000 0.000000 2.082010
 43 2.141378 -0.000001 -0.000000 0.000000 0.000000 3.141593
 44 1.734172 -0.000001 0.000000 0.000000 -0.000000 1.041748
 45 0.136316 -3.738194 2.525891 1.493698 2.759406 -1.474501
 46 5.613161 0.862367 3.157029 1.595152 -0.135386 0.061522
 47 11.389368 -0.000819 0.158783 2.072286 0.336511 0.192540
 48 -0.000001 -4.440600 -0.000000 1.570144 -3.078602 0.004040
 49 6.000002 0.000001 0.000001 2.072286 -0.000000 -0.000000
 50 0.000003 -4.440601 -0.000001 1.569944 -3.078603 0.004053
 51 10.510132 -0.000000 0.000000 0.000000 -0.000000 -2.511596
 52 0.000000 -1.748400 -5.000001 3.141593 0.004007 -1.539299
 53 5.500000 0.000002 -0.000000 0.185758 -0.000000 -0.000000
 54 -0.000001 0.000000 -5.000000 -0.044472 3.137589 -0.000177
 55 6.551489 -0.000002 0.000003 -0.185758 -0.277561 -0.131263
 56 -1.266844 -1.937445 -4.950557 -0.066572 -2.988806 -0.110308
 57 6.551489 -0.000002 0.000003 -0.185758 -0.277561 -0.131263
 58 0.699370 -1.944209 -5.006845 -0.027189 -3.088217 0.005298
 59 4.226146 -0.003200 0.000001 0.030018 0.051190 0.279991
 60 0.000001 5.000001 0.000000 -0.153564 0.000087 2.718702
 61 0.000004 -0.000004 -3.713580 0.365818 2.880119 -0.191589
 62 0.000002 -0.000000 5.000000 3.053196 1.558589 -0.074928
 63 -0.000007 0.000006 3.713580 -0.001619 -3.122277 -0.475127
 64 0.000002 -0.000001 -5.000000 -0.088726 1.558589 3.066334
 65 7.363602 1.646647 0.495663 3.141593 -1.570796 0.000000
 66 -0.000005 0.000007 3.619081 0.008255 -3.110080 -0.985231
 67 16.573919 0.000002 0.000000 0.000000 -0.000000 -1.065827
 68 15.128181 0.000000 -0.000000 -0.102296 0.010178 0.114297
 69 5.758665 4.244730 0.000000 0.000000 0.000000 1.667687
 70 3.177725 0.000000 -0.000000 0.000000 0.000000 3.141593
 71 15.708953 0.000001 0.000000 -0.051525 0.003996 0.061523
 72 0.275148 0.189215 -3.445207 3.130898 0.000409 -1.514604
 73 17.210192 0.000001 0.000000 0.000000 -0.000000 -1.893339
 74 0.000001 -0.000000 -5.000000 -0.079430 1.546568 -1.570855
 75 0.000002 -0.000003 -3.619081 0.577895 2.675801 -0.242118
 76 16.573921 -0.000001 -0.000002 -0.000000 -0.000000 -1.163030
 77 15.128181 0.000001 0.000001 0.089479 0.309197 0.659208
 78 5.758666 4.244730 -0.000001 -0.000000 -0.000000 1.815142
 79 4.003934 -0.000000 0.000001 0.000000 0.000000 0.000000
 80 15.708954 0.000001 0.000002 0.042277 0.226871 0.443133
 81 0.273998 0.191089 3.439762 -3.130907 -0.000437 -1.508107
 82 17.210194 -0.000001 -0.000002 0.000000 -0.000000 -1.937080
 83 -0.000000 -0.000001 5.000000 -0.079319 1.595025 -1.570742
time 4
  0 -0.650000 0.000000 33.899605 -0.025849 0.174554 -1.569172
  1 5.685104 0.833236 -32.227173 -0.174512 -0.026131 1.569196
  2 -2.276935 0.000003 -1.238188 -1.570795 -1.570451 0.000000
  3 1.796804 0.712122 0.001381 -0.436318 0.055961 -0.140481
  4 4.119824 -0.002741 0.001323 -0.417530 0.099962 0.375296
  5 4.118910 -0.002951 0.001396 -0.440255 -0.044818 0.125113
  6 4.119637 -0.002866 0.001218 -0.380653 -0.002752 0.346334
  7 4.120368 -0.003056 -0.000249 0.070740 0.090874 0.530427
  8 4.443598 0.000000 -0.000001 0.488283 0.274821 0.002489
  9 9.024062 -0.000001 0.000001 0.000000 0.000000 0.000000
 10 -0.157245 0.125500 1.721254 1.098416 -1.012049 1.524588
 11 6.384776 0.000000 -0.000000 -0.481121 0.405168 -0.933651
 12 10.242682 0.000002 -0.000000 -0.000000 -0.000000 -0.575549
 13 11.375561 -0.000001 -0.000001 2.952856 0.287333 0.337949
 14 0.728682 0.023430 -1.008293 2.396606 0.246960 1.180207
 15 2.136497 -0.000000 -0.000000 0.000000 -0.000000 -0.078540
 16 2.313139 -0.000000 -0.000001 0.000000 0.000000 0.000000
 17 3.115508 -0.886042 -0.021432 -0.166499 0.000392 0.514872
 18 2.011150 -0.000002 0.000001 0.000000 0.000000 1.322792
 19 2.141381 -0.000000 -0.000001 0.000000 0.000000 0.000000
 20 1.734172 -0.000000 0.000001 -0.000000 0.000000 0.660693
 21 0.000005 -4.440592 0.000001 1.570544 -0.062990 -0.195737
 22 6.000000 -0.000000 -0.000001 -2.999007 -0.000000 -0.000000
 23 0.000002 -4.440599 -0.000001 1.569944 -0.062987 0.004053
 24 11.375562 0.000001 0.000002 -2.451328 0.056364 0.267174
 25 -0.000000 -4.440605 0.000000 1.570144 -0.062988 0.004040
 26 10.510131 0.000002 -0.000000 -0.000000 -0.000000 -1.858571
 27 -0.000000 -1.748400 4.999998 -0.000000 0.004007 1.602291
 28 5.499999 0.000001 0.000000 0.121727 -0.000000 0.000000
 29 -0.000001 -1.940597 5.000000 -0.044472 0.004003 -0.000180
 30 6.551492 -0.000000 -0.000002 -0.252305 0.298985 -0.583502
 31 0.000001 -1.940598 5.000002 -0.027189 -0.053376 0.005295
 32 6.551492 -0.000000 -0.000002 -0.097488 0.161238 -0.266924
 33 0.000001 -1.940599 4.999995 -0.066572 -0.152786 -0.110311
 34 0.157247 -0.118423 -1.721257 -1.262601 1.330745 1.387022
 35 6.384776 -0.000000 0.000000 -0.604716 -0.841183 -0.195217
 36 10.242682 -0.000002 -0.000001 -0.000000 -0.000000 -1.878878
 37 11.375562 0.000001 0.000002 2.680614 0.511649 0.553650
 38 0.728680 0.023431 1.008292 -1.579583 -0.319038 0.212973
 39 2.136497 0.000002 -0.000001 -0.000000 -0.000000 1.282817
 40 2.313138 -0.000000 0.000000 0.000000 0.000000 3.141593
 41 3.115506 -0.886041 0.021431 0.708959 0.171755 0.347804
 42 2.011148 0.000002 0.000001 0.000000 0.000000 2.082010
 43 2.141378 -0.000000 0.000001 0.000000 0.000000 3.141593
 44 1.734173 -0.000001 -0.000000 -0.000000 -0.000000 1.041748
 45 0.136315 -3.738194 2.525890 1.493698 2.759406 -1.474501
 46 5.613160 0.862367 3.157030 1.595152 -0.135386 0.061522
 47 11.389365 -0.000820 0.158782 2.069008 0.335801 0.189874
 48 0.000001 -4.440599 0.000000 1.570144 -3.078602 0.004040
 49 5.999999 -0.000000 0.000000 2.069008 -0.000000 0.000000
 50 0.000002 -4.440602 -0.000002 1.569944 -3.078603 0.004053
 51 10.510132 -0.000002 -0.000000 -0.000000 -0.000000 -2.510236
 52 -0.000000 -1.748400 -5.000000 3.141593 0.004007 -1.539299
 53 5.500000 -0.000001 -0.000000 0.185270 -0.000000 -0.000000
 54 -0.000000 -0.000001 -5.000000 -0.044472 3.137589 -0.000177
 55 6.551490 -0.000001 0.000002 -0.185270 -0.280572 -0.127843
 56 -1.266843 -1.937444 -4.950558 -0.066572 -2.988806 -0.110308
 57 6.551490 -0.000001 0.000002 -0.185270 -0.280572 -0.127843
 58 0.699371 -1.944209 -5.006845 -0.027189 -3.088217 0.005298
 59 4.226147 -0.003201 -0.000002 0.030018 0.051190 0.279991
 60 -0.000001 5.000001 -0.000000 -0.153564 0.000087 2.718702
 61 0.000004 -0.000004 -3.713580 0.365818 2.880119 -0.191589
 62 0.000002 -0.000000 5.000000 3.053196 1.558589 -0.074928
 63 -0.000007 0.000006 3.713580 -0.001619 -3.122277 -0.475127
 64 0.000002 -0.000001 -5.000000 -0.088726 1.558589 3.066334
 65 7.363602 1.646647 0.495663 3.141593 -1.570796 0.000000
 66 -0.000005 0.000007 3.619081 0.008255 -3.110080 -0.985231
 67 16.573919 0.000002 0.000000 0.000000 -0.000000 -1.065827
 68 15.128181 0.000000 -0.000000 -0.102296 0.010178 0.114297
 69 5.758665 4.244730 0.000000 0.000000 0.000000 1.667687
 70 3.177725 0.000000 -0.000000 0.000000 0.000000 3.141593
 71 15.708953 0.000001 0.000000 -0.051525 0.003996 0.061523
 72 0.275148 0.189215 -3.445207 3.130898 0.000409 -1.514604
 73 17.210192 0.000001 0.000000 0.000000 -0.000000 -1.893339
 74 0.000001 -0.000000 -5.000000 -0.079430 1.546568 -1.570855
 75 0.000002 -0.000003 -3.619081 0.577895 2.675801 -0.242118
 76 16.573921 -0.000001 -0.000002 -0.000000 -0.000000 -1.163030
 77 15.128181 0.000001 0.000001 0.089479 0.309197 0.659208
 78 5.758666 4.244730 -0.000001 -0.000000 -0.000000 1.815142
 79 4.003934 -0.000000 0.000001 0.000000 0.000000 0.000000
 80 15.708954 0.000001 0.000002 0.042277 0.226871 0.443133
 81 0.273998 0.191089 3.439762 -3.130907 -0.000437 -1.508107
 82 17.210194 -0.000001 -0.000002 0.000000 -0.000000 -1.937080
 83 -0.000000 -0.000001 5.000000 -0.079319 1.595025 -1.570742
time 5
  0 -0.650000 0.000000 33.899605 -0.025849 0.174554 -1.569172
  1 5.685104 0.833236 -32.227173 -0.174512 -0.026131 1.569196
  2 -2.276935 0.000003 -1.238188 -1.570795 -1.570451 0.000000
  3 1.796801 0.712123 0.001383 -0.436726 0.056692 -0.140882
  4 4.119827 -0.002741 0.001324 -0.417886 0.099868 0.375369
  5 4.118910 -0.002950 0.001397 -0.440653 -0.045161 0.125322
  6 4.119636 -0.002868 0.001219 -0.381021 -0.002861 0.346435
  7 4.120369 -0.003055 -0.000249 0.070740 0.090874 0.530427
  8 4.443599 -0.000001 -0.000000 0.489238 0.274318 0.002010
  9 9.024062 0.000000 0.000001 0.000000 0.000000 0.000000
 10 -0.157245 0.125500 1.721256 1.098416 -1.012049 1.524588
 11 6.384773 0.000002 0.000001 -0.482473 0.402350 -0.935440
 12 10.242683 -0.000000 0.000000 -0.000000 -0.000000 -0.569418
 13 11.375562 0.000004 -0.000000 2.952804 0.287966 0.334078
 14 0.728681 0.023428 -1.008292 2.396606 0.246960 1.180207
 15 2.136497 0.000000 0.000001 -0.000000 -0.000000 -0.078540
 16 2.313140 -0.000000 -0.000000 0.000000 0.000000 0.000000
 17 3.115507 -0.886043 -0.021432 -0.166499 0.000392 0.514872
 18 2.011151 -0.000001 0.000001 -0.000000 -0.000000 1.322792
 19 2.141378 0.000000 -0.000001 0.000000 0.000000 0.000000
 20 1.734172 -0.000002 -0.000000 0.000000 -0.000000 0.660693
 21 0.000004 -4.440593 0.000000 1.570544 -0.062990 -0.195737
 22 6.000000 0.000000 0.000001 -2.998794 -0.000000 0.000000
 23 0.000002 -4.440602 0.000000 1.569944 -0.062987 0.004053
 24 11.375562 0.000001 0.000004 -2.451156 0.057823 0.265463
 25 -0.000001 -4.440604 -0.000001 1.570144 -0.062988 0.004040
 26 10.510134 0.000001 -0.000000 -0.000000 -0.000000 -1.855505
 27 0.000002 -1.748402 4.999999 -0.000000 0.004007 1.602290
 28 5.500000 -0.000001 0.000001 0.122581 0.000000 -0.000000
 29 0.000001 -1.940597 5.000000 -0.044472 0.004003 -0.000180
 30 6.551490 0.000001 -0.000001 -0.253645 0.297484 -0.584303
 31 0.000000 -1.940599 5.000000 -0.027189 -0.053376 0.005295
 32 6.551490 0.000001 -0.000001 -0.098211 0.160629 -0.267309
 33 0.000001 -1.940598 4.999995 -0.066572 -0.152786 -0.110311
 34 0.157248 -0.118425 -1.721256 -1.267791 1.327243 1.382408
 35 6.384775 -0.000003 0.000001 -0.601403 -0.846152 -0.190755
 36 10.242683 -0.000001 -0.000001 -0.000000 0.000000 -1.877310
 37 11.375560 -0.000001 0.000001 2.672981 0.509854 0.549883
 38 0.728681 0.023430 1.008291 -1.579583 -0.319038 0.212973
 39 2.136496 -0.000000 -0.000000 -0.000000 0.000000 1.282817
 40 2.313138 0.000000 0.000000 0.000000 0.000000 3.141593
 41 3.115506 -0.886042 0.021431 0.708959 0.171755 0.347804
 42 2.011148 0.000000 0.000000 0.000000 0.000000 2.082010
 43 2.141380 -0.000000 -0.000000 0.000000 0.000000 3.141593
 44 1.734172 -0.000001 -0.000000 -0.000000 0.000000 1.041748
 45 0.136315 -3.738192 2.525891 1.493698 2.759406 -1.474501
 46 5.613159 0.862366 3.157031 1.595152 -0.135386 0.061522
 47 11.389364 -0.000820 0.158782 2.065947 0.333993 0.189203
 48 0.000002 -4.440599 -0.000000 1.570144 -3.078602 0.004040
 49 6.000000 0.000001 0.000001 2.065947 0.000000 -0.000000
 50 -0.000000 -4.440600 0.000000 1.569944 -3.078603 0.004053
 51 10.510131 0.000001 -0.000000 -0.000000 -0.000000 -2.509452
 52 0.000001 -1.748399 -5.000001 3.141593 0.004007 -1.539299
 53 5.500001 -0.000002 -0.000000 0.184631 0.000000 0.000000
 54 0.000001 0.000001 -5.000000 -0.044472 3.137589 -0.000177
 55 6.551490 -0.000001 -0.000002 -0.184631 -0.282135 -0.126801
 56 -1.266843 -1.937444 -4.950558 -0.066572 -2.988806 -0.110308
 57 6.551491 -0.000001 -0.000001 -0.184631 -0.282135 -0.126801
 58 0.699371 -1.944209 -5.006845 -0.027189 -3.088217 0.005298
 59 4.226148 -0.003201 -0.000001 0.030018 0.051190 0.279991
 60 -0.000001 5.000000 -0.000001 -0.153564 0.000087 2.718702
 61 0.000004 -0.000004 -3.713580 0.365818 2.880119 -0.191589
 62 0.000002 -0.000000 5.000000 3.053196 1.558589 -0.074928
 63 -0.000007 0.000006 3.713580 -0.001619 -3.122277 -0.475127
 64 0.000002 -0.000001 -5.000000 -0.088726 1.558589 3.066334
 65 7.363602 1.646647 0.495663 3.141593 -1.570796 0.000000
 66 -0.000005 0.000007 3.619081 0.008255 -3.110080 -0.985231
 67 16.573919 0.000002 0.000000 0.000000 -0.000000 -1.065827
 68 15.128181 0.000000 -0.000000 -0.102296 0.010178 0.114297
 69 5.758665 4.244730 0.000000 0.000000 0.000000 1.667687
 70 3.177725 0.000000 -0.000000 0.000000 0.000000 3.141593
 71 15.708953 0.000001 0.000000 -0.051525 0.003996 0.061523
 72 0.275148 0.189215 -3.445207 3.130898 0.000409 -1.514604
 73 17.210192 0.000001 0.000000 0.000000 -0.000000 -1.893339
 74 0.000001 -0.000000 -5.000000 -0.079430 1.546568 -1.570855
 75 0.000002 -0.000003 -3.619081 0.577895 2.675801 -0.242118
 76 16.573921 -0.000001 -0.000002 -0.000000 -0.000000 -1.163030
 77 15.128181 0.000001 0.000001 0.089479 0.309197 0.659208
 78 5.758666 4.244730 -0.000001 -0.000000 -0.000000 1.815142
 79 4.003934 -0.000000 0.000001 0.000000 0.000000 0.000000
 80 15.708954 0.000001 0.000002 0.042277 0.226871 0.443133
 81 0.273998 0.191089 3.439762 -3.130907 -0.000437 -1.508107
 82 17.210194 -0.000001 -0.000002 0.000000 -0.000000 -1.937080
 83 -0.000000 -0.000001 5.000000 -0.079319 1.595025 -1.570742
time 6
  0 -0.650000 0.000000 33.899605 -0.025849 0.174554 -1.569172
  1 5.685104 0.833236 -32.227173 -0.174512 -0.026131 1.569196
  2 -2.276935 0.000003 -1.238188 -1.570795 -1.570451 0.000000
  3 1.796801 0.712125 0.001387 -0.438080 0.056389 -0.140903
  4 4.119821 -0.002739 0.001328 -0.419167 0.100405 0.375225
  5 4.118918 -0.002952 0.001401 -0.442011 -0.044934 0.125355
  6 4.119627 -0.002861 0.001225 -0.382308 -0.002360 0.346424
  7 4.120369 -0.003060 -0.000252 0.070740 0.090874 0.530427
  8 4.443598 0.000001 0.000001 0.492048 0.269787 0.001579
  9 9.024061 -0.000001 0.000001 0.000000 0.000000 0.000000
 10 -0.157245 0.125504 1.721257 1.098416 -1.012049 1.524588
 11 6.384775 0.000000 -0.000001 -0.482119 0.405392 -0.923649
 12 10.242684 0.000001 -0.000001 0.000000 -0.000000 -0.584711
 13 11.375560 -0.000001 -0.000001 2.952730 0.287513 0.339759
 14 0.728682 0.023429 -1.008292 2.396606 0.246960 1.180207
 15 2.136497 0.000000 -0.000001 -0.000000 -0.000000 -0.078540
 16 2.313138 -0.000000 -0.000001 0.000000 0.000000 0.000000
 17 3.115507 -0.886043 -0.021431 -0.166499 0.000392 0.514872
 18 2.011151 -0.000001 0.000000 0.000000 0.000000 1.322792
 19 2.141381 0.000001 0.000000 0.000000 0.000000 0.000000
 20 1.734173 0.000000 -0.000000 0.000000 -0.000000 0.660693
 21 0.000005 -4.440594 0.000000 1.570544 -0.062990 -0.195737
 22 6.000000 0.000000 -0.000000 -2.999239 0.000000 -0.000000
 23 0.000002 -4.440603 0.000000 1.569944 -0.062987 0.004053
 24 11.375561 0.000001 0.000002 -2.451465 0.055927 0.268106
 25 -0.000000 -4.440604 0.000000 1.570144 -0.062988 0.004040
 26 10.510132 0.000002 -0.000001 0.000000 -0.000000 -1.863152
 27 0.000000 -1.748403 5.000000 0.000000 0.004007 1.602291
 28 5.499999 -0.000000 -0.000000 0.123044 -0.000000 0.000000
 29 -0.000002 -1.940598 5.000000 -0.044472 0.004003 -0.000180
 30 6.551491 -0.000000 -0.000002 -0.254099 0.297654 -0.579880
 31 -0.000002 -1.940599 5.000001 -0.027189 -0.053376 0.005295
 32 6.551491 0.000000 -0.000002 -0.098647 0.160697 -0.265355
 33 -0.000004 -1.940599 4.999997 -0.066572 -0.152786 -0.110311
 34 0.157246 -0.118421 -1.721254 -1.267059 1.327744 1.383059
 35 6.384775 -0.000001 -0.000002 -0.597703 -0.849585 -0.194141
 36 10.242682 -0.000003 -0.000001 -0.000000 -0.000000 -1.876553
 37 11.375560 -0.000001 0.000001 2.665305 0.505994 0.548229
 38 0.728681 0.023431 1.008291 -1.579583 -0.319038 0.212973
 39 2.136496 -0.000003 -0.000001 -0.000000 0.000000 1.282817
 40 2.313139 0.000000 0.000000 0.000000 0.000000 3.141593
 41 3.115506 -0.886042 0.021431 0.708959 0.171755 0.347804
 42 2.011150 0.000000 0.000001 -0.000000 0.000000 2.082010
 43 2.141380 0.000000 -0.000001 0.000000 0.000000 3.141593
 44 1.734171 -0.000001 0.000001 -0.000000 0.000000 1.041748
 45 0.136314 -3.738193 2.525890 1.493698 2.759406 -1.474501
 46 5.613161 0.862366 3.157030 1.595152 -0.135386 0.061522
 47 11.389365 -0.000820 0.158783 2.063022 0.331406 0.189986
 48 -0.000000 -4.440599 0.000000 1.570144 -3.078602 0.004040
 49 6.000000 -0.000000 0.000001 2.063022 0.000000 0.000000
 50 0.000001 -4.440601 -0.000001 1.569944 -3.078603 0.004053
 51 10.510130 -0.000001 -0.000000 -0.000000 0.000000 -2.509073
 52 0.000001 -1.748398 -5.000001 3.141593 0.004007 -1.539299
 53 5.499999 -0.000001 -0.000001 0.183877 0.000000 -0.000000
 54 -0.000000 0.000001 -4.999999 -0.044472 3.137589 -0.000177
 55 6.551490 0.000001 -0.000003 -0.183877 -0.282712 -0.127483
 56 -1.266844 -1.937443 -4.950560 -0.066572 -2.988806 -0.110308
 57 6.551491 0.000001 -0.000003 -0.183877 -0.282712 -0.127483
 58 0.699370 -1.944207 -5.006847 -0.027189 -3.088217 0.005298
 59 4.226144 -0.003202 -0.000001 0.030018 0.051190 0.279991
 60 0.000001 5.000000 -0.000000 -0.153564 0.000087 2.718702
 61 0.000004 -0.000004 -3.713580 0.365818 2.880119 -0.191589
 62 0.000002 -0.000000 5.000000 3.053196 1.558589 -0.074928
 63 -0.000007 0.000006 3.713580 -0.001619 -3.122277 -0.475127
 64 0.000002 -0.000001 -5.000000 -0.088726 1.558589 3.066334
 65 7.363602 1.646647 0.495663 3.141593 -1.570796 0.000000
 66 -0.000005 0.000007 3.619081 0.008255 -3.110080 -0.985231
 67 16.573919 0.000002 0.000000 0.000000 -0.000000 -1.065827
 68 15.128181 0.000000 -0.000000 -0.102296 0.010178 0.114297
 69 5.758665 4.244730 0.000000 0.000000 0.000000 1.667687
 70 3.177725 0.000000 -0.000000 0.000000 0.000000 3.141593
 71 15.708953 0.000001 0.000000 -0.051525 0.003996 0.061523
 72 0.275148 0.189215 -3.445207 3.130898 0.000409 -1.514604
 73 17.210192 0.000001 0.000000 0.000000 -0.000000 -1.893339
 74 0.000001 -0.000000 -5.000000 -0.079430 1.546568 -1.570855
 75 0.000002 -0.000003 -3.619081 0.577895 2.675801 -0.242118
 76 16.573921 -0.000001 -0.000002 -0.000000 -0.000000 -1.163030
 77 15.128181 0.000001 0.000001 0.089479 0.309197 0.659208
 78 5.758666 4.244730 -0.000001 -0.000000 -0.000000 1.815142
 79 4.003934 -0.000000 0.000001 0.000000 0.000000 0.000000
 80 15.708954 0.000001 0.000002 0.042277 0.226871 0.443133
 81 0.273998 0.191089 3.439762 -3.130907 -0.000437 -1.508107
 82 17.210194 -0.000001 -0.000002 0.000000 -0.000000 -1.937080
 83 -0.000000 -0.000001 5.000000 -0.079319 1.595025 -1.570742
time 7
  0 -0.650000 0.000000 33.899605 -0.025849 0.174554 -1.569172
  1 5.685104 0.833236 -32.227173 -0.174512 -0.026131 1.569196
  2 -2.276935 0.000003 -1.238188 -1.570795 -1.570451 0.000000
  3 1.796802 0.712127 0.001393 -0.440026 0.055439 -0.140684
  4 4.119826 -0.002736 0.001334 -0.421027 0.101335 0.374943
  5 4.118915 -0.002947 0.001407 -0.443969 -0.044349 0.125277
  6 4.119632 -0.002862 0.001230 -0.384170 -0.001480 0.346340
  7 4.120369 -0.003057 -0.000249 0.070740 0.090874 0.530427
  8 4.443599 0.000001 -0.000001 0.496013 0.262740 0.001155
  9 9.024060 -0.000002 -0.000000 0.000000 0.000000 0.000000
 10 -0.157243 0.125500 1.721254 1.098416 -1.012049 1.524588
 11 6.384776 0.000001 -0.000001 -0.480854 0.411896 -0.903882
 12 10.242682 -0.000000 0.000000 0.000000 0.000000 -0.612324
 13 11.375560 0.000000 -0.000000 2.952647 0.286396 0.350879
 14 0.728681 0.023432 -1.008291 2.396606 0.246960 1.180207
 15 2.136497 -0.000000 0.000000 -0.000000 -0.000000 -0.078540
 16 2.313139 -0.000000 -0.000001 0.000000 0.000000 0.000000
 17 3.115508 -0.886040 -0.021432 -0.166499 0.000392 0.514872
 18 2.011150 -0.000001 0.000001 0.000000 -0.000000 1.322791
 19 2.141382 0.000000 -0.000001 0.000000 0.000000 0.000000
 20 1.734172 0.000001 0.000001 -0.000000 0.000000 0.660693
 21 0.000004 -4.440593 -0.000000 1.570544 -0.062990 -0.195737
 22 6.000000 -0.000001 0.000000 -3.000072 0.000000 0.000000
 23 0.000002 -4.440602 0.000000 1.569944 -0.062987 0.004053
 24 11.375560 0.000000 0.000002 -2.452049 0.052108 0.273189
 25 -0.000001 -4.440603 -0.000001 1.570144 -0.062988 0.004040
 26 10.510130 -0.000000 -0.000000 0.000000 0.000000 -1.876958
 27 -0.000000 -1.748401 4.999999 0.000000 0.004007 1.602291
 28 5.500000 0.000001 0.000000 0.123385 -0.000000 0.000000
 29 -0.000002 -1.940597 5.000000 -0.044472 0.004003 -0.000180
 30 6.551491 0.000001 -0.000002 -0.254244 0.298913 -0.572433
 31 0.000002 -1.940599 5.000001 -0.027189 -0.053376 0.005295
 32 6.551491 0.000001 -0.000002 -0.099001 0.161228 -0.262019
 33 -0.000001 -1.940600 4.999995 -0.066572 -0.152786 -0.110311
 34 0.157248 -0.118421 -1.721255 -1.262601 1.330745 1.387022
 35 6.384777 0.000001 -0.000001 -0.593769 -0.852053 -0.202420
 36 10.242682 0.000000 0.000000 -0.000000 0.000000 -1.876287
 37 11.375564 -0.000000 0.000000 2.657624 0.500839 0.547904
 38 0.728682 0.023431 1.008293 -1.579583 -0.319038 0.212973
 39 2.136498 -0.000000 -0.000001 -0.000000 -0.000000 1.282817
 40 2.313140 -0.000000 0.000000 0.000000 0.000000 3.141593
 41 3.115508 -0.886041 0.021431 0.708959 0.171755 0.347804
 42 2.011150 -0.000001 -0.000000 0.000000 0.000000 2.082010
 43 2.141379 -0.000000 -0.000001 0.000000 0.000000 3.141593
 44 1.734173 -0.000001 0.000000 0.000000 0.000000 1.041748
 45 0.136315 -3.738194 2.525891 1.493698 2.759406 -1.474501
 46 5.613162 0.862367 3.157031 1.595152 -0.135386 0.061522
 47 11.389366 -0.000820 0.158781 2.060182 0.328329 0.191676
 48 -0.000001 -4.440600 0.000001 1.570144 -3.078602 0.004040
 49 6.000001 0.000001 0.000000 2.060182 0.000000 -0.000000
 50 0.000003 -4.440601 0.000001 1.569944 -3.078603 0.004053
 51 10.510132 -0.000002 0.000001 -0.000000 -0.000000 -2.508940
 52 0.000000 -1.748401 -5.000001 3.141593 0.004007 -1.539299
 53 5.500000 0.000001 0.000000 0.183061 0.000000 0.000000
 54 0.000001 0.000000 -5.000000 -0.044472 3.137589 -0.000177
 55 6.551490 -0.000001 0.000001 -0.183061 -0.282685 -0.129218
 56 -1.266843 -1.937443 -4.950557 -0.066572 -2.988806 -0.110308
 57 6.551491 -0.000001 0.000001 -0.183061 -0.282685 -0.129218
 58 0.699371 -1.944207 -5.006845 -0.027189 -3.088217 0.005298
 59 4.226147 -0.003202 -0.000001 0.030018 0.051190 0.279991
 60 -0.000002 5.000003 0.000001 -0.153564 0.000087 2.718702
 61 0.000004 -0.000004 -3.713580 0.365818 2.880119 -0.191589
 62 0.000002 -0.000000 5.000000 3.053196 1.558589 -0.074928
 63 -0.000007 0.000006 3.713580 -0.001619 -3.122277 -0.475127
 64 0.000002 -0.000001 -5.000000 -0.088726 1.558589 3.066334
 65 7.363602 1.646647 0.495663 3.141593 -1.570796 0.000000
 66 -0.000005 0.000007 3.619081 0.008255 -3.110080 -0.985231
 67 16.573919 0.000002 0.000000 0.000000 -0.000000 -1.065827
 68 15.128181 0.000000 -0.000000 -0.102296 0.010178 0.114297
 69 5.758665 4.244730 0.000000 0.000000 0.000000 1.667687
 70 3.177725 0.000000 -0.000000 0.000000 0.000000 3.141593
 71 15.708953 0.000001 0.000000 -0.051525 0.003996 0.061523
 72 0.275148 0.189215 -3.445207 3.130898 0.000409 -1.514604
 73 17.210192 0.000001 0.000000 0.000000 -0.000000 -1.893339
 74 0.000001 -0.000000 -5.000000 -0.079430 1.546568 -1.570855
 75 0.000002 -0.000003 -3.619081 0.577895 2.675801 -0.242118
 76 16.573921 -0.000001 -0.000002 -0.000000 -0.000000 -1.163030
 77 15.128181 0.000001 0.000001 0.089479 0.309197 0.659208
 78 5.758666 4.244730 -0.000001 -0.000000 -0.000000 1.815142
 79 4.003934 -0.000000 0.000001 0.000000 0.000000 0.000000
 80 15.708954 0.000001 0.000002 0.042277 0.226871 0.443133
 81 0.273998 0.191089 3.439762 -3.130907 -0.000437 -1.508107
 82 17.210194 -0.000001 -0.000002 0.000000 -0.000000 -1.937080
 83 -0.000000 -0.000001 5.000000 -0.079319 1.595025 -1.570742
time 8
  0 -0.650000 0.000000 33.899605 -0.025849 0.174554 -1.569172
  1 5.685104 0.833236 -32.227173 -0.174512 -0.026131 1.569196
  2 -2.276935 0.000003 -1.238188 -1.570795 -1.570451 0.000000
  3 1.796799 0.712131 0.001399 -0.442210 0.054231 -0.140367
  4 4.119834 -0.002733 0.001340 -0.423119 0.102422 0.374606
  5 4.118909 -0.002942 0.001414 -0.446168 -0.043623 0.125153
  6 4.119631 -0.002857 0.001236 -0.386261 -0.000448 0.346226
  7 4.120371 -0.003059 -0.000251 0.070740 0.090874 0.530427
  8 4.443598 -0.000001 0.000000 0.500435 0.254688 0.000705
  9 9.024061 -0.000002 0.000001 0.000000 0.000000 0.000000
 10 -0.157244 0.125499 1.721255 1.098416 -1.012049 1.524588
 11 6.384774 -0.000000 -0.000000 -0.479399 0.419538 -0.881552
 12 10.242682 0.000002 -0.000000 0.000000 -0.000000 -0.643534
 13 11.375560 0.000000 -0.000001 2.952564 0.285031 0.363510
 14 0.728681 0.023433 -1.008292 2.396606 0.246960 1.180207
 15 2.136497 -0.000000 -0.000001 -0.000000 -0.000000 -0.078540
 16 2.313139 0.000000 -0.000000 0.000000 0.000000 0.000000
 17 3.115506 -0.886041 -0.021431 -0.166499 0.000392 0.514872
 18 2.011151 0.000001 0.000000 0.000000 0.000000 1.322792
 19 2.141379 0.000000 -0.000001 0.000000 0.000000 0.000000
 20 1.734172 0.000001 -0.000000 0.000000 -0.000000 0.660693
 21 0.000006 -4.440595 0.000000 1.570544 -0.062990 -0.195737
 22 5.999999 0.000000 -0.000001 -3.001031 -0.000000 0.000000
 23 0.000001 -4.440599 -0.000000 1.569944 -0.062987 0.004053
 24 11.375562 0.000002 0.000003 -2.452708 0.047735 0.278896
 25 -0.000001 -4.440604 0.000000 1.570144 -0.062988 0.004040
 26 10.510130 -0.000000 0.000000 -0.000000 0.000000 -1.892563
 27 -0.000002 -1.748402 4.999999 -0.000000 0.004007 1.602291
 28 5.500000 0.000001 0.000000 0.123822 -0.000000 -0.000000
 29 -0.000003 -1.940600 5.000000 -0.044472 0.004003 -0.000180
 30 6.551487 -0.000001 0.000000 -0.254553 0.300665 -0.564047
 31 0.000002 -1.940598 5.000000 -0.027189 -0.053376 0.005295
 32 6.551487 -0.000001 0.000000 -0.099438 0.161989 -0.258219
 33 0.000000 -1.940598 4.999995 -0.066572 -0.152786 -0.110311
 34 0.157246 -0.118422 -1.721254 -1.256492 1.334740 1.392471
 35 6.384776 0.000000 -0.000001 -0.589753 -0.854122 -0.212638
 36 10.242682 -0.000003 -0.000001 -0.000000 0.000000 -1.876205
 37 11.375563 -0.000001 0.000001 2.649970 0.495147 0.548117
 38 0.728681 0.023431 1.008292 -1.579583 -0.319038 0.212973
 39 2.136496 0.000001 -0.000000 -0.000000 0.000000 1.282817
 40 2.313139 -0.000000 0.000000 0.000000 0.000000 3.141593
 41 3.115506 -0.886042 0.021431 0.708959 0.171755 0.347804
 42 2.011151 -0.000001 -0.000001 0.000000 0.000000 2.082010
 43 2.141380 0.000001 0.000001 0.000000 0.000000 3.141593
 44 1.734173 -0.000002 -0.000001 -0.000000 -0.000000 1.041748
 45 0.136314 -3.738191 2.525890 1.493698 2.759406 -1.474501
 46 5.613159 0.862366 3.157032 1.595152 -0.135386 0.061522
 47 11.389367 -0.000820 0.158782 2.057382 0.325044 0.193725
 48 0.000001 -4.440599 -0.000000 1.570144 -3.078602 0.004040
 49 6.000000 -0.000001 0.000000 2.057381 -0.000000 -0.000000
 50 -0.000001 -4.440601 0.000001 1.569944 -3.078603 0.004053
 51 10.510131 -0.000003 0.000000 -0.000000 0.000000 -2.508899
 52 -0.000001 -1.748400 -5.000000 3.141593 0.004007 -1.539299
 53 5.500000 -0.000003 -0.000001 0.182237 0.000000 0.000000
 54 -0.000001 0.000003 -5.000001 -0.044472 3.137589 -0.000177
 55 6.551491 0.000002 -0.000002 -0.182237 -0.282413 -0.131349
 56 -1.266843 -1.937445 -4.950561 -0.066572 -2.988806 -0.110308
 57 6.551491 0.000001 -0.000002 -0.182237 -0.282413 -0.131349
 58 0.699371 -1.944208 -5.006848 -0.027189 -3.088217 0.005298
 59 4.226148 -0.003202 -0.000001 0.030018 0.051190 0.279991
 60 -0.000001 5.000000 -0.000000 -0.153564 0.000087 2.718701
 61 0.000004 -0.000004 -3.713580 0.365818 2.880119 -0.191589
 62 0.000002 -0.000000 5.000000 3.053196 1.558589 -0.074928
 63 -0.000007 0.000006 3.713580 -0.001619 -3.122277 -0.475127
 64 0.000002 -0.000001 -5.000000 -0.088726 1.558589 3.066334
 65 7.363602 1.646647 0.495663 3.141593 -1.570796 0.000000
 66 -0.000005 0.000007 3.619081 0.008255 -3.110080 -0.985231
 67 16.573919 0.000002 0.000000 0.000000 -0.000000 -1.065827
 68 15.128181 0.000000 -0.000000 -0.102296 0.010178 0.114297
 69 5.758665 4.244730 0.000000 0.000000 0.000000 1.667687
 70 3.177725 0.000000 -0.000000 0.000000 0.000000 3.141593
 71 15.708953 0.000001 0.000000 -0.051525 0.003996 0.061523
 72 0.275148 0.189215 -3.445207 3.130898 0.000409 -1.514604
 73 17.210192 0.000001 0.000000 0.000000 -0.000000 -1.893339
 74 0.000001 -0.000000 -5.000000 -0.079430 1.546568 -1.570855
 75 0.000002 -0.000003 -3.619081 0.577895 2.675801 -0.242118
 76 16.573921 -0.000001 -0.000002 -0.000000 -0.000000 -1.163030
 77 15.128181 0.000001 0.000001 0.089479 0.309197 0.659208
 78 5.758666 4.244730 -0.000001 -0.000000 -0.000000 1.815142
 79 4.003934 -0.000000 0.000001 0.000000 0.000000 0.000000
 80 15.708954 0.000001 0.000002 0.042277 0.226871 0.443133
 81 0.273998 0.191089 3.439762 -3.130907 -0.000437 -1.508107
 82 17.210194 -0.000001 -0.000002 0.000000 -0.000000 -1.937080
 83 -0.000000 -0.000001 5.000000 -0.079319 1.595025 -1.570742
time 9
  0 -0.650000 0.000000 33.899605 -0.025849 0.174554 -1.569172
  1 5.685104 0.833236 -32.227173 -0.174512 -0.026131 1.569196
  2 -2.276935 0.000003 -1.238188 -1.570795 -1.570451 0.000000
  3 1.796803 0.712133 0.001405 -0.444274 0.053154 -0.140095
  4 4.119824 -0.002730 0.001345 -0.425096 0.103430 0.374293
  5 4.118911 -0.002941 0.001420 -0.448246 -0.042968 0.125051
  6 4.119632 -0.002856 0.001242 -0.388237 0.000508 0.346125
  7 4.120366 -0.003055 -0.000249 0.070740 0.090874 0.530427
  8 4.443598 -0.000001 -0.000000 0.504622 0.247142 0.000218
  9 9.024063 -0.000002 0.000000 0.000000 0.000000 0.000000
 10 -0.157244 0.125500 1.721254 1.098416 -1.012049 1.524588
 11 6.384776 0.000001 0.000003 -0.478308 0.426263 -0.861429
 12 10.242681 0.000001 -0.000001 -0.000000 -0.000000 -0.670990
 13 11.375561 0.000003 0.000000 2.952488 0.283823 0.374404
 14 0.728682 0.023430 -1.008292 2.396606 0.246960 1.180207
 15 2.136496 0.000000 -0.000001 0.000000 -0.000000 -0.078540
 16 2.313140 -0.000000 0.000001 0.000000 0.000000 0.000000
 17 3.115507 -0.886042 -0.021431 -0.166499 0.000392 0.514872
 18 2.011151 -0.000000 -0.000001 -0.000000 0.000000 1.322792
 19 2.141379 0.000001 -0.000000 0.000000 0.000000 0.000000
 20 1.734172 0.000001 -0.000000 -0.000000 0.000000 0.660693
 21 0.000006 -4.440595 0.000000 1.570544 -0.062990 -0.195737
 22 6.000000 0.000002 0.000001 -3.001882 0.000000 -0.000000
 23 0.000002 -4.440603 -0.000001 1.569944 -0.062987 0.004053
 24 11.375560 0.000001 0.000003 -2.453279 0.043960 0.283776
 25 -0.000001 -4.440604 0.000001 1.570144 -0.062988 0.004040
 26 10.510132 0.000002 -0.000000 0.000000 -0.000000 -1.906292
 27 0.000001 -1.748401 4.999998 0.000000 0.004007 1.602291
 28 5.499999 0.000001 -0.000001 0.124432 -0.000000 0.000000
 29 -0.000001 -1.940599 5.000000 -0.044472 0.004003 -0.000180
 30 6.551490 0.000001 0.000002 -0.255219 0.302283 -0.556512
 31 -0.000000 -1.940598 5.000000 -0.027189 -0.053376 0.005295
 32 6.551490 0.000001 0.000002 -0.100011 0.162715 -0.254769
 33 -0.000001 -1.940598 4.999997 -0.066572 -0.152786 -0.110311
 34 0.157248 -0.118426 -1.721258 -1.250986 1.338228 1.397402
 35 6.384776 0.000000 0.000000 -0.585787 -0.856379 -0.221874
 36 10.242682 0.000000 0.000000 -0.000000 0.000000 -1.876005
 37 11.375564 0.000001 0.000001 2.642356 0.489696 0.548087
 38 0.728681 0.023431 1.008291 -1.579583 -0.319038 0.212973
 39 2.136496 0.000001 -0.000001 0.000000 0.000000 1.282817
 40 2.313137 0.000000 -0.000000 0.000000 0.000000 3.141593
 41 3.115507 -0.886042 0.021430 0.708959 0.171755 0.347804
 42 2.011150 0.000000 0.000000 0.000000 0.000000 2.082010
 43 2.141381 0.000001 0.000001 0.000000 0.000000 3.141593
 44 1.734171 -0.000000 0.000001 -0.000000 -0.000000 1.041748
 45 0.136314 -3.738193 2.525890 1.493698 2.759406 -1.474501
 46 5.613161 0.862366 3.157030 1.595152 -0.135386 0.061522
 47 11.389369 -0.000817 0.158781 2.054565 0.321849 0.195590
 48 0.000001 -4.440598 0.000000 1.570144 -3.078602 0.004040
 49 6.000001 0.000001 -0.000000 2.054565 -0.000000 -0.000000
 50 0.000003 -4.440600 0.000000 1.569944 -3.078603 0.004053
 51 10.510131 -0.000000 0.000001 0.000000 0.000000 -2.508799
 52 -0.000001 -1.748400 -5.000001 3.141593 0.004007 -1.539299
 53 5.499999 0.000001 0.000000 0.181443 -0.000000 0.000000
 54 0.000000 0.000002 -5.000000 -0.044472 3.137589 -0.000177
 55 6.551491 0.000003 -0.000001 -0.181443 -0.282264 -0.133243
 56 -1.266844 -1.937444 -4.950560 -0.066572 -2.988806 -0.110308
 57 6.551492 0.000002 -0.000001 -0.181443 -0.282264 -0.133243
 58 0.699370 -1.944210 -5.006846 -0.027189 -3.088217 0.005298
 59 4.226143 -0.003200 -0.000000 0.030018 0.051190 0.279991
 60 -0.000000 5.000000 0.000000 -0.153564 0.000087 2.718701
 61 0.000004 -0.000004 -3.713580 0.365818 2.880119 -0.191589
 62 0.000002 -0.000000 5.000000 3.053196 1.558589 -0.074928
 63 -0.000007 0.000006 3.713580 -0.001619 -3.122277 -0.475127
 64 0.000002 -0.000001 -5.000000 -0.088726 1.558589 3.066334
 65 7.363602 1.646647 0.495663 3.141593 -1.570796 0.000000
 66 -0.000005 0.000007 3.619081 0.008255 -3.110080 -0.985231
 67 16.573919 0.000002 0.000000 0.000000 -0.000000 -1.065827
 68 15.128181 0.000000 -0.000000 -0.102296 0.010178 0.114297
 69 5.758665 4.244730 0.000000 0.000000 0.000000 1.667687
 70 3.177725 0.000000 -0.000000 0.000000 0.000000 3.141593
 71 15.708953 0.000001 0.000000 -0.051525 0.003996 0.061523
 72 0.275148 0.189215 -3.445207 3.130898 0.000409 -1.514604
 73 17.210192 0.000001 0.000000 0.000000 -0.000000 -1.893339
 74 0.000001 -0.000000 -5.000000 -0.079430 1.546568 -1.570855
 75 0.000002 -0.000003 -3.619081 0.577895 2.675801 -0.242118
 76 16.573921 -0.000001 -0.000002 -0.000000 -0.000000 -1.163030
 77 15.128181 0.000001 0.000001 0.089479 0.309197 0.659208
 78 5.758666 4.244730 -0.000001 -0.000000 -0.000000 1.815142
 79 4.003934 -0.000000 0.000001 0.000000 0.000000 0.000000
 80 15.708954 0.000001 0.000002 0.042277 0.226871 0.443133
 81 0.273998 0.191089 3.439762 -3.130907 -0.000437 -1.508107
 82 17.210194 -0.000001 -0.000002 0.000000 -0.000000 -1.937080
 83 -0.000000 -0.000001 5.000000 -0.079319 1.595025 -1.570742
time 10
  0 -0.650000 0.000000 33.899605 -0.025849 0.174554 -1.569172
  1 5.685104 0.833236 -32.227173 -0.174512 -0.026131 1.569196
  2 -2.276935 0.000003 -1.238188 -1.570795 -1.570451 0.000000
  3 1.796800 0.712136 0.001410 -0.445866 0.052592 -0.140015
  4 4.119827 -0.002728 0.001350 -0.426610 0.104122 0.374089
  5 4.118912 -0.002938 0.001425 -0.449844 -0.042598 0.125036
  6 4.119636 -0.002854 0.001245 -0.389754 0.001160 0.346080
  7 4.120369 -0.003058 -0.000250 0.070740 0.090874 0.530427
  8 4.443599 0.000001 -0.000000 0.507888 0.241615 -0.000295
  9 9.024061 -0.000003 0.000000 0.000000 0.000000 0.000000
 10 -0.157245 0.125502 1.721256 1.098417 -1.012049 1.524588
 11 6.384776 0.000001 0.000001 -0.478000 0.430221 -0.847751
 12 10.242684 0.000000 -0.000000 -0.000000 -0.000000 -0.688468
 13 11.375561 0.000002 -0.000001 2.952423 0.283165 0.380878
 14 0.728682 0.023431 -1.008294 2.396606 0.246960 1.180207
 15 2.136495 0.000001 -0.000001 -0.000000 -0.000000 -0.078540
 16 2.313140 0.000000 0.000000 0.000000 0.000000 0.000000
 17 3.115506 -0.886041 -0.021432 -0.166499 0.000392 0.514872
 18 2.011151 -0.000001 0.000000 0.000000 -0.000000 1.322792
 19 2.141380 0.000001 0.000000 0.000000 0.000000 0.000000
 20 1.734173 0.000000 -0.000001 -0.000000 0.000000 0.660693
 21 0.000006 -4.440594 -0.000001 1.570544 -0.062990 -0.195737
 22 6.000000 0.000002 -0.000000 -3.002415 -0.000000 0.000000
 23 0.000002 -4.440603 -0.000000 1.569944 -0.062987 0.004053
 24 11.375561 0.000002 0.000003 -2.453626 0.041752 0.286677
 25 -0.000001 -4.440603 0.000001 1.570144 -0.062988 0.004040
 26 10.510131 -0.000000 -0.000000 -0.000000 0.000000 -1.915030
 27 -0.000002 -1.748400 4.999999 0.000000 0.004007 1.602290
 28 5.500000 0.000000 -0.000000 0.125176 0.000000 0.000000
 29 -0.000000 -1.940598 5.000000 -0.044472 0.004003 -0.000180
 30 6.551489 0.000000 0.000001 -0.256208 0.303080 -0.551417
 31 -0.000000 -1.940599 5.000002 -0.027189 -0.053376 0.005295
 32 6.551489 0.000000 0.000001 -0.100679 0.163099 -0.252424
 33 -0.000001 -1.940599 4.999996 -0.066572 -0.152786 -0.110311
 34 0.157248 -0.118422 -1.721255 -1.248577 1.339722 1.399563
 35 6.384777 -0.000001 0.000000 -0.581991 -0.859432 -0.227252
 36 10.242682 0.000002 -0.000000 0.000000 -0.000000 -1.875389
 37 11.375561 -0.000001 0.000001 2.634774 0.485289 0.547050
 38 0.728681 0.023430 1.008293 -1.579583 -0.319038 0.212973
 39 2.136496 0.000001 0.000001 -0.000000 0.000000 1.282817
 40 2.313139 0.000000 0.000000 0.000000 0.000000 3.141593
 41 3.115508 -0.886041 0.021431 0.708959 0.171755 0.347804
 42 2.011151 0.000001 0.000001 0.000000 0.000000 2.082010
 43 2.141378 -0.000001 0.000000 0.000000 0.000000 3.141593
 44 1.734172 -0.000001 0.000000 0.000000 0.000000 1.041748
 45 0.136314 -3.738191 2.525890 1.493698 2.759406 -1.474501
 46 5.613161 0.862367 3.157030 1.595152 -0.135386 0.061522
 47 11.389366 -0.000820 0.158781 2.051667 0.319061 0.196734
 48 0.000000 -4.440599 -0.000000 1.570144 -3.078602 0.004040
 49 6.000000 0.000000 -0.000000 2.051667 -0.000000 -0.000000
 50 0.000001 -4.440601 -0.000001 1.569944 -3.078603 0.004053
 51 10.510132 0.000001 0.000000 -0.000000 -0.000000 -2.508491
 52 -0.000002 -1.748401 -5.000000 -3.141593 0.004007 -1.539299
 53 5.500000 -0.000000 0.000000 0.180701 0.000000 0.000000
 54 0.000001 -0.000002 -4.999999 -0.044472 3.137589 -0.000177
 55 6.551491 -0.000000 -0.000000 -0.180701 -0.282618 -0.134295
 56 -1.266843 -1.937445 -4.950558 -0.066572 -2.988806 -0.110308
 57 6.551491 -0.000001 -0.000000 -0.180701 -0.282618 -0.134295
 58 0.699371 -1.944209 -5.006845 -0.027189 -3.088217 0.005298
 59 4.226144 -0.003201 0.000001 0.030018 0.051190 0.279991
 60 0.000001 5.000000 0.000000 -0.153564 0.000087 2.718702
 61 0.000004 -0.000004 -3.713580 0.365818 2.880119 -0.191589
 62 0.000002 -0.000000 5.000000 3.053196 1.558589 -0.074928
 63 -0.000007 0.000006 3.713580 -0.001619 -3.122277 -0.475127
 64 0.000002 -0.000001 -5.000000 -0.088726 1.558589 3.066334
 65 7.363602 1.646647 0.495663 3.141593 -1.570796 0.000000
 66 -0.000005 0.000007 3.619081 0.008255 -3.110080 -0.985231
 67 16.573919 0.000002 0.000000 0.000000 -0.000000 -1.065827
 68 15.128181 0.000000 -0.000000 -0.102296 0.010178 0.114297
 69 5.758665 4.244730 0.000000 0.000000 0.000000 1.667687
 70 3.177725 0.000000 -0.000000 0.000000 0.000000 3.141593
 71 15.708953 0.000001 0.000000 -0.051525 0.003996 0.061523
 72 0.275148 0.189215 -3.445207 3.130898 0.000409 -1.514604
 73 17.210192 0.000001 0.000000 0.000000 -0.000000 -1.893339
 74 0.000001 -0.000000 -5.000000 -0.079430 1.546568 -1.570855
 75 0.000002 -0.000003 -3.619081 0.577895 2.675801 -0.242118
 76 16.573921 -0.000001 -0.000002 -0.000000 -0.000000 -1.163030
 77 15.128181 0.000001 0.000001 0.089479 0.309197 0.659208
 78 5.758666 4.244730 -0.000001 -0.000000 -0.000000 1.815142
 79 4.003934 -0.000000 0.000001 0.000000 0.000000 0.000000
 80 15.708954 0.000001 0.000002 0.042277 0.226871 0.443133
 81 0.273998 0.191089 3.439762 -3.130907 -0.000437 -1.508107
 82 17.210194 -0.000001 -0.000002 0.000000 -0.000000 -1.937080
 83 -0.000000 -0.000001 5.000000 -0.079319 1.595025 -1.570742
end
