version 1
nodes
  0 "Bip01"  -1
  1 "Bip01 Footsteps"   0
  2 "Bip01 Pelvis"   0
  3 "Bip01 Spine"   2
  4 "Bip01 Spine1"   3
  5 "Bip01 Spine2"   4
  6 "Bip01 Spine3"   5
  7 "Bip01 Neck"   6
  8 "Bip01 Head"   7
  9 "Dummy21"   8
 10 "Bip01 L Clavicle"   7
 11 "Bip01 L UpperArm"  10
 12 "Bip01 L Forearm"  11
 13 "Bip01 L Hand"  12
 14 "Bip01 L Finger0"  13
 15 "Bip01 L Finger01"  14
 16 "Dummy06"  15
 17 "Bip01 L Finger1"  13
 18 "Bip01 L Finger11"  17
 19 "Dummy03"  18
 20 "-- L knuckle"  17
 21 "-- L knuckle_end"  20
 22 "-- L Forearm twist"  12
 23 "-- L Forearm twist_end"  22
 24 "-- L wrist"  12
 25 "-- L wrist_end"  24
 26 "-- L Elbow"  11
 27 "--L Elbow_end"  26
 28 "-- L bicep twist"  11
 29 "-- L bicep twist_end"  28
 30 "-- L shoulder outside"  10
 31 "-- L shoulder outside_end"  30
 32 "-- L Shoulder inside"  10
 33 "-- L Shoulder inside_end"  32
 34 "Bip01 R Clavicle"   7
 35 "Bip01 R UpperArm"  34
 36 "Bip01 R Forearm"  35
 37 "Bip01 R Hand"  36
 38 "Bip01 R Finger0"  37
 39 "Bip01 R Finger01"  38
 40 "Dummy01"  39
 41 "Bip01 R Finger1"  37
 42 "Bip01 R Finger11"  41
 43 "Dummy02"  42
 44 "-- R knuckle"  41
 45 "Point06"  44
 46 "Line01"  37
 47 "-- R wrist"  36
 48 "-- R wrist_end"  47
 49 "-- R forearm twist"  36
 50 "-- R forearm twist_end"  49
 51 "-- R Elbow"  35
 52 "--R Elbow_end"  51
 53 "-- R bicep twist"  35
 54 "-- R bicep twist_end"  53
 55 "-- R Shoulder inside"  34
 56 "-- R Shoulder inside_end"  55
 57 "-- R shoulder outside"  34
 58 "-- R shoulder outside_end"  57
 59 "-- Neck smooth"   6
 60 "-- neck smooth end"  59
 61 "-- R Butt"   2
 62 "--R Butt_end"  61
 63 "-- L butt"   2
 64 "--L butt_end"  63
 65 "GIGN01"   2
 66 "Bip01 L Thigh"   2
 67 "Bip01 L Calf"  66
 68 "Bip01 L Foot"  67
 69 "Bip01 L Toe0"  68
 70 "Dummy16"  69
 71 "-- L ankle"  67
 72 "-- L ankleend"  71
 73 "-- L Knee"  66
 74 "--L Knee_end"  73
 75 "Bip01 R Thigh"   2
 76 "Bip01 R Calf"  75
 77 "Bip01 R Foot"  76
 78 "Bip01 R Toe0"  77
 79 "Dummy11"  78
 80 "-- R Ankle"  76
 81 "-- R ankleend"  80
 82 "-- R Knee"  75
 83 "--R Knee_end"  82
end
skeleton
time 0
  0 -0.650000 0.000000 33.899605 -0.025849 0.174554 -1.569172
  1 5.685104 0.833236 -32.227173 -0.174512 -0.026131 1.569196
  2 -2.276935 0.000003 -1.238188 -1.570795 -1.570451 0.000000
  3 1.796492 0.712191 0.001415 -0.480963 -0.363428 -0.038011
  4 4.119750 -0.002742 0.001387 -0.446867 0.210085 0.297385
  5 4.118832 -0.002931 0.001453 -0.463442 0.134406 0.011404
  6 4.118488 -0.002929 0.001472 -0.465581 0.038061 -0.058221
  7 4.119050 -0.003499 -0.000285 0.081284 0.121074 0.136315
  8 4.443597 -0.000000 0.000000 0.193150 0.106582 -0.262735
  9 9.024061 0.000000 0.000000 0.000000 0.000000 0.000000
 10 -0.209274 0.143191 1.714357 1.112016 -0.960833 1.906393
 11 6.384776 -0.000000 0.000001 -0.965940 0.446024 -1.050182
 12 10.242682 -0.000001 -0.000000 0.000000 -0.000000 -1.452232
 13 11.375562 0.000001 -0.000000 -2.701821 0.141416 0.775068
 14 0.728680 0.023431 -1.008292 2.396606 0.246960 1.180207
 15 2.136497 -0.000001 0.000001 0.000000 -0.000000 -0.078540
 16 2.313138 0.000000 0.000000 0.000000 0.000000 0.000000
 17 3.115505 -0.886041 -0.021431 -0.166499 0.000392 0.514872
 18 2.011150 0.000001 -0.000001 -0.000000 0.000000 1.322792
 19 2.141379 -0.000002 -0.000001 0.000000 0.000000 0.000000
 20 1.734171 0.000000 -0.000000 -0.000000 -0.000000 0.660693
 21 0.000006 -4.440594 -0.000001 1.570544 -0.062990 -0.195737
 22 6.000003 -0.000001 0.000000 -2.468976 0.000000 0.000000
 23 0.000001 -4.440600 0.000000 1.569944 -0.062987 0.004053
 24 11.375564 -0.000000 0.000003 -2.148495 -0.044811 0.414377
 25 -0.000000 -4.440603 0.000001 1.570144 -0.062988 0.004040
 26 10.510130 -0.000001 -0.000001 -0.000000 0.000000 -2.296912
 27 0.000001 -1.748400 5.000000 0.000000 0.004007 1.602290
 28 5.500000 -0.000002 0.000000 0.279716 0.000000 0.000000
 29 -0.000001 -1.940598 5.000000 -0.044472 0.004003 -0.000180
 30 6.551491 0.000000 0.000002 -0.549413 0.328285 -0.604871
 31 -0.000000 -1.940599 5.000000 -0.027189 -0.053376 0.005295
 32 6.551491 0.000000 0.000002 -0.226521 0.193458 -0.254367
 33 -0.000001 -1.940599 4.999997 -0.066572 -0.152786 -0.110311
 34 0.209275 -0.136114 -1.714358 -1.391771 1.310481 1.662397
 35 6.384776 0.000000 -0.000001 -0.700984 -0.807574 -0.047752
 36 10.242683 0.000001 -0.000000 -0.000000 0.000000 -2.080471
 37 11.375561 0.000003 0.000001 1.955417 0.987082 -0.028366
 38 0.728681 0.023431 1.008293 -1.579583 -0.319038 0.212973
 39 2.136499 -0.000002 -0.000000 -0.000000 0.000000 1.282817
 40 2.313139 0.000001 -0.000000 0.000000 0.000000 3.141593
 41 3.115506 -0.886041 0.021431 0.708959 0.171755 0.347804
 42 2.011150 -0.000001 -0.000002 -0.000000 0.000000 2.082010
 43 2.141380 0.000000 -0.000002 0.000000 0.000000 3.141593
 44 1.734171 -0.000001 -0.000002 -0.000000 -0.000000 1.041748
 45 0.136315 -3.738193 2.525891 1.493698 2.759406 -1.474501
 46 5.613160 0.862367 3.157031 1.595152 -0.135386 0.061522
 47 11.389366 -0.000820 0.158780 1.747497 0.486457 -0.074708
 48 -0.000000 -4.440598 -0.000002 1.570144 -3.078602 0.004040
 49 5.999999 0.000002 0.000000 1.747497 -0.000000 0.000000
 50 0.000002 -4.440601 -0.000002 1.569944 -3.078603 0.004053
 51 10.510133 0.000001 0.000001 -0.000000 -0.000000 -2.611032
 52 -0.000001 -1.748398 -5.000000 -3.141593 0.004007 -1.539299
 53 5.500002 -0.000000 0.000001 0.207085 0.000000 0.000000
 54 0.000002 -0.000001 -5.000001 -0.044472 3.137589 -0.000177
 55 6.551491 0.000000 0.000002 -0.207085 -0.283528 -0.093609
 56 -1.266844 -1.937444 -4.950558 -0.066572 -2.988806 -0.110308
 57 6.551491 0.000000 0.000002 -0.207085 -0.283528 -0.093609
 58 0.699370 -1.944208 -5.006846 -0.027189 -3.088217 0.005298
 59 4.226145 -0.003201 0.000000 0.039636 0.066061 0.077482
 60 -0.000000 5.000000 0.000000 -0.153564 0.000087 2.718702
 61 0.000004 -0.000004 -3.713580 0.365818 2.880119 -0.191589
 62 0.000002 -0.000000 5.000000 3.053196 1.558589 -0.074928
 63 -0.000007 0.000006 3.713580 -0.001619 -3.122277 -0.475127
 64 0.000002 -0.000001 -5.000000 -0.088726 1.558589 3.066334
 65 7.363602 1.646647 0.495663 3.141593 -1.570796 0.000000
 66 -0.000005 0.000007 3.619081 0.008255 -3.110080 -0.985231
 67 16.573919 0.000002 0.000000 0.000000 -0.000000 -1.065827
 68 15.128181 0.000000 -0.000000 -0.102296 0.010178 0.114297
 69 5.758665 4.244730 0.000000 0.000000 0.000000 1.667687
 70 3.177725 0.000000 -0.000000 0.000000 0.000000 3.141593
 71 15.708953 0.000001 0.000000 -0.051525 0.003996 0.061523
 72 0.275148 0.189215 -3.445207 3.130898 0.000409 -1.514604
 73 17.210192 0.000001 0.000000 0.000000 -0.000000 -1.893339
 74 0.000001 -0.000000 -5.000000 -0.079430 1.546568 -1.570855
 75 0.000002 -0.000003 -3.619081 0.577895 2.675801 -0.242118
 76 16.573921 -0.000001 -0.000002 -0.000000 -0.000000 -1.163030
 77 15.128181 0.000001 0.000001 0.089479 0.309197 0.659208
 78 5.758666 4.244730 -0.000001 -0.000000 -0.000000 1.815142
 79 4.003934 -0.000000 0.000001 0.000000 0.000000 0.000000
 80 15.708954 0.000001 0.000002 0.042277 0.226871 0.443133
 81 0.273998 0.191089 3.439762 -3.130907 -0.000437 -1.508107
 82 17.210194 -0.000001 -0.000002 0.000000 -0.000000 -1.937080
 83 -0.000000 -0.000001 5.000000 -0.079319 1.595025 -1.570742
time 1
  0 -0.650000 0.000000 33.899605 -0.025849 0.174554 -1.569172
  1 5.685104 0.833236 -32.227173 -0.174512 -0.026131 1.569196
  2 -2.276935 0.000003 -1.238188 -1.570795 -1.570451 0.000000
  3 1.796515 0.712173 0.001388 -0.468949 -0.352315 -0.038988
  4 4.119760 -0.002753 0.001357 -0.436549 0.205600 0.302236
  5 4.118840 -0.002945 0.001423 -0.453008 0.131286 0.016288
  6 4.118495 -0.002944 0.001441 -0.455508 0.037175 -0.055055
  7 4.119048 -0.003499 -0.000285 0.081284 0.121073 0.136315
  8 4.443600 0.000000 0.000000 0.147144 0.126185 -0.322127
  9 9.024062 0.000001 0.000000 0.000000 0.000000 0.000000
 10 -0.209272 0.143191 1.714358 1.112016 -0.960833 1.906393
 11 6.384778 0.000001 -0.000003 -0.977389 0.335765 -1.135446
 12 10.242682 -0.000002 -0.000001 0.000000 0.000000 -1.278228
 13 11.375561 -0.000001 -0.000003 -2.701595 0.175759 0.695860
 14 0.728679 0.023430 -1.008292 2.396606 0.246960 1.180207
 15 2.136497 0.000000 0.000000 -0.000000 -0.000000 -0.078540
 16 2.313139 -0.000000 0.000001 0.000000 0.000000 0.000000
 17 3.115505 -0.886041 -0.021431 -0.166499 0.000392 0.514872
 18 2.011149 -0.000001 0.000002 0.000000 0.000000 1.322792
 19 2.141381 -0.000001 0.000002 0.000000 0.000000 0.000000
 20 1.734171 0.000001 0.000002 -0.000000 0.000000 0.660693
 21 0.000003 -4.440594 0.000002 1.570544 -0.062990 -0.195737
 22 5.999999 0.000001 -0.000002 -2.466778 0.000000 0.000000
 23 0.000000 -4.440600 -0.000000 1.569944 -0.062987 0.004053
 24 11.375560 0.000000 0.000001 -2.149473 -0.017378 0.384361
 25 -0.000002 -4.440603 0.000001 1.570144 -0.062988 0.004040
 26 10.510131 0.000000 -0.000001 0.000000 0.000000 -2.209910
 27 -0.000001 -1.748401 4.999999 -0.000000 0.004007 1.602291
 28 5.499999 -0.000003 -0.000000 0.291075 -0.000000 -0.000000
 29 -0.000002 -1.940601 5.000003 -0.044472 0.004003 -0.000180
 30 6.551492 0.000001 -0.000000 -0.567751 0.279298 -0.661364
 31 -0.000000 -1.940597 5.000001 -0.027189 -0.053376 0.005295
 32 6.551492 0.000001 -0.000000 -0.235497 0.174914 -0.281434
 33 -0.000001 -1.940599 4.999998 -0.066572 -0.152786 -0.110311
 34 0.209276 -0.136114 -1.714358 -1.553400 1.271394 1.501635
 35 6.384778 0.000000 -0.000002 -0.621728 -0.858082 -0.017755
 36 10.242682 0.000000 -0.000001 0.000000 -0.000000 -2.068841
 37 11.375562 -0.000003 0.000001 1.958827 0.989378 -0.025502
 38 0.728680 0.023431 1.008291 -1.579583 -0.319038 0.212973
 39 2.136499 -0.000002 -0.000001 -0.000000 -0.000000 1.282817
 40 2.313140 0.000000 0.000001 0.000000 0.000000 3.141593
 41 3.115507 -0.886041 0.021432 0.708959 0.171755 0.347804
 42 2.011150 -0.000002 -0.000004 -0.000000 -0.000000 2.082010
 43 2.141380 -0.000001 0.000001 0.000000 0.000000 3.141593
 44 1.734172 -0.000002 -0.000003 0.000000 0.000000 1.041748
 45 0.136315 -3.738192 2.525889 1.493698 2.759406 -1.474501
 46 5.613160 0.862367 3.157033 1.595152 -0.135386 0.061522
 47 11.389367 -0.000821 0.158784 1.748481 0.487611 -0.074122
 48 -0.000002 -4.440598 -0.000002 1.570144 -3.078602 0.004040
 49 6.000000 -0.000002 0.000001 1.748481 0.000000 0.000000
 50 0.000001 -4.440601 -0.000000 1.569944 -3.078603 0.004053
 51 10.510131 0.000001 -0.000001 0.000000 -0.000000 -2.605217
 52 -0.000000 -1.748400 -5.000002 -3.141593 0.004007 -1.539299
 53 5.500000 0.000000 -0.000000 0.190601 -0.000000 0.000000
 54 -0.000001 -0.000000 -4.999999 -0.044472 3.137590 -0.000177
 55 6.551491 0.000000 -0.000001 -0.190601 -0.295194 -0.086947
 56 -1.266844 -1.937444 -4.950560 -0.066572 -2.988806 -0.110308
 57 6.551492 0.000000 -0.000001 -0.190601 -0.295194 -0.086947
 58 0.699371 -1.944209 -5.006846 -0.027189 -3.088217 0.005298
 59 4.226148 -0.003201 -0.000000 0.039636 0.066061 0.077482
 60 0.000000 5.000001 -0.000001 -0.153564 0.000087 2.718702
 61 0.000004 -0.000004 -3.713580 0.365818 2.880119 -0.191589
 62 0.000002 -0.000000 5.000000 3.053196 1.558589 -0.074928
 63 -0.000007 0.000006 3.713580 -0.001619 -3.122277 -0.475127
 64 0.000002 -0.000001 -5.000000 -0.088726 1.558589 3.066334
 65 7.363602 1.646647 0.495663 3.141593 -1.570796 0.000000
 66 -0.000005 0.000007 3.619081 0.008255 -3.110080 -0.985231
 67 16.573919 0.000002 0.000000 0.000000 -0.000000 -1.065827
 68 15.128181 0.000000 -0.000000 -0.102296 0.010178 0.114297
 69 5.758665 4.244730 0.000000 0.000000 0.000000 1.667687
 70 3.177725 0.000000 -0.000000 0.000000 0.000000 3.141593
 71 15.708953 0.000001 0.000000 -0.051525 0.003996 0.061523
 72 0.275148 0.189215 -3.445207 3.130898 0.000409 -1.514604
 73 17.210192 0.000001 0.000000 0.000000 -0.000000 -1.893339
 74 0.000001 -0.000000 -5.000000 -0.079430 1.546568 -1.570855
 75 0.000002 -0.000003 -3.619081 0.577895 2.675801 -0.242118
 76 16.573921 -0.000001 -0.000002 -0.000000 -0.000000 -1.163030
 77 15.128181 0.000001 0.000001 0.089479 0.309197 0.659208
 78 5.758666 4.244730 -0.000001 -0.000000 -0.000000 1.815142
 79 4.003934 -0.000000 0.000001 0.000000 0.000000 0.000000
 80 15.708954 0.000001 0.000002 0.042277 0.226871 0.443133
 81 0.273998 0.191089 3.439762 -3.130907 -0.000437 -1.508107
 82 17.210194 -0.000001 -0.000002 0.000000 -0.000000 -1.937080
 83 -0.000000 -0.000001 5.000000 -0.079319 1.595025 -1.570742
time 2
  0 -0.650000 0.000000 33.899605 -0.025849 0.174554 -1.569172
  1 5.685104 0.833236 -32.227173 -0.174512 -0.026131 1.569196
  2 -2.276935 0.000003 -1.238188 -1.570795 -1.570451 0.000000
  3 1.796538 0.712155 0.001361 -0.456994 -0.341193 -0.039819
  4 4.119767 -0.002765 0.001327 -0.426262 0.201066 0.307034
  5 4.118845 -0.002959 0.001393 -0.442593 0.128116 0.021138
  6 4.118502 -0.002958 0.001412 -0.445438 0.036257 -0.051897
  7 4.119045 -0.003499 -0.000285 0.081284 0.121073 0.136315
  8 4.443600 -0.000000 -0.000000 0.099613 0.141351 -0.382806
  9 9.024059 -0.000000 0.000000 0.000000 0.000000 0.000000
 10 -0.209274 0.143191 1.714358 1.112016 -0.960833 1.906393
 11 6.384776 0.000000 -0.000002 -0.981856 0.218689 -1.227039
 12 10.242681 0.000001 -0.000000 -0.000000 -0.000000 -1.077661
 13 11.375559 -0.000000 -0.000001 -2.701923 0.208012 0.600414
 14 0.728680 0.023431 -1.008294 2.396606 0.246960 1.180207
 15 2.136498 -0.000001 0.000000 0.000000 -0.000000 -0.078540
 16 2.313137 0.000001 -0.000001 0.000000 0.000000 0.000000
 17 3.115506 -0.886041 -0.021433 -0.166499 0.000392 0.514872
 18 2.011150 -0.000001 0.000002 0.000000 -0.000000 1.322792
 19 2.141378 -0.000002 -0.000002 0.000000 0.000000 0.000000
 20 1.734171 -0.000001 0.000002 -0.000000 -0.000000 0.660693
 21 0.000004 -4.440593 0.000001 1.570544 -0.062990 -0.195737
 22 5.999998 -0.000001 -0.000000 -2.462866 0.000000 0.000000
 23 0.000001 -4.440601 -0.000002 1.569944 -0.062987 0.004053
 24 11.375560 -0.000003 0.000003 -2.148861 0.012253 0.346067
 25 -0.000001 -4.440604 0.000002 1.570144 -0.062988 0.004040
 26 10.510129 0.000002 -0.000001 -0.000000 0.000000 -2.109627
 27 -0.000000 -1.748401 4.999999 0.000000 0.004007 1.602290
 28 5.499999 0.000000 -0.000000 0.306029 0.000000 -0.000000
 29 -0.000001 -1.940596 5.000000 -0.044472 0.004003 -0.000180
 30 6.551491 0.000001 -0.000003 -0.593953 0.227428 -0.728103
 31 -0.000001 -1.940599 5.000003 -0.027189 -0.053376 0.005295
 32 6.551491 0.000001 -0.000003 -0.247044 0.156556 -0.311119
 33 0.000000 -1.940598 4.999995 -0.066572 -0.152786 -0.110311
 34 0.209277 -0.136114 -1.714358 -1.674028 1.226247 1.380128
 35 6.384776 0.000000 0.000000 -0.547366 -0.903293 0.021112
 36 10.242682 -0.000000 0.000000 0.000000 0.000000 -2.060482
 37 11.375561 0.000001 0.000001 1.967896 0.989289 -0.020405
 38 0.728681 0.023431 1.008294 -1.579583 -0.319038 0.212973
 39 2.136496 0.000002 0.000000 -0.000000 0.000000 1.282817
 40 2.313138 -0.000001 0.000000 0.000000 0.000000 3.141593
 41 3.115506 -0.886041 0.021431 0.708959 0.171755 0.347804
 42 2.011151 -0.000001 -0.000002 -0.000000 0.000000 2.082010
 43 2.141380 -0.000001 0.000003 0.000000 0.000000 3.141593
 44 1.734172 -0.000002 -0.000002 -0.000000 0.000000 1.041748
 45 0.136315 -3.738192 2.525891 1.493698 2.759406 -1.474501
 46 5.613160 0.862367 3.157032 1.595152 -0.135386 0.061522
 47 11.389366 -0.000820 0.158780 1.751653 0.487798 -0.073209
 48 0.000001 -4.440598 -0.000000 1.570144 -3.078602 0.004040
 49 5.999999 0.000002 -0.000000 1.751653 -0.000000 0.000000
 50 0.000002 -4.440600 0.000001 1.569944 -3.078603 0.004053
 51 10.510132 -0.000001 0.000001 -0.000000 0.000000 -2.601037
 52 -0.000000 -1.748400 -5.000002 -3.141593 0.004007 -1.539299
 53 5.499998 0.000000 -0.000001 0.174774 -0.000000 0.000000
 54 -0.000001 0.000001 -4.999998 -0.044472 3.137589 -0.000177
 55 6.551491 0.000000 -0.000001 -0.174774 -0.303869 -0.077338
 56 -1.266844 -1.937443 -4.950563 -0.066572 -2.988806 -0.110308
 57 6.551491 0.000000 -0.000001 -0.174774 -0.303869 -0.077338
 58 0.699371 -1.944208 -5.006846 -0.027189 -3.088217 0.005298
 59 4.226143 -0.003201 0.000000 0.039636 0.066061 0.077482
 60 0.000002 5.000000 -0.000000 -0.153564 0.000087 2.718701
 61 0.000004 -0.000004 -3.713580 0.365818 2.880119 -0.191589
 62 0.000002 -0.000000 5.000000 3.053196 1.558589 -0.074928
 63 -0.000007 0.000006 3.713580 -0.001619 -3.122277 -0.475127
 64 0.000002 -0.000001 -5.000000 -0.088726 1.558589 3.066334
 65 7.363602 1.646647 0.495663 3.141593 -1.570796 0.000000
 66 -0.000005 0.000007 3.619081 0.008255 -3.110080 -0.985231
 67 16.573919 0.000002 0.000000 0.000000 -0.000000 -1.065827
 68 15.128181 0.000000 -0.000000 -0.102296 0.010178 0.114297
 69 5.758665 4.244730 0.000000 0.000000 0.000000 1.667687
 70 3.177725 0.000000 -0.000000 0.000000 0.000000 3.141593
 71 15.708953 0.000001 0.000000 -0.051525 0.003996 0.061523
 72 0.275148 0.189215 -3.445207 3.130898 0.000409 -1.514604
 73 17.210192 0.000001 0.000000 0.000000 -0.000000 -1.893339
 74 0.000001 -0.000000 -5.000000 -0.079430 1.546568 -1.570855
 75 0.000002 -0.000003 -3.619081 0.577895 2.675801 -0.242118
 76 16.573921 -0.000001 -0.000002 -0.000000 -0.000000 -1.163030
 77 15.128181 0.000001 0.000001 0.089479 0.309197 0.659208
 78 5.758666 4.244730 -0.000001 -0.000000 -0.000000 1.815142
 79 4.003934 -0.000000 0.000001 0.000000 0.000000 0.000000
 80 15.708954 0.000001 0.000002 0.042277 0.226871 0.443133
 81 0.273998 0.191089 3.439762 -3.130907 -0.000437 -1.508107
 82 17.210194 -0.000001 -0.000002 0.000000 -0.000000 -1.937080
 83 -0.000000 -0.000001 5.000000 -0.079319 1.595025 -1.570742
time 3
  0 -0.650000 0.000000 33.899605 -0.025849 0.174554 -1.569172
  1 5.685104 0.833236 -32.227173 -0.174512 -0.026131 1.569196
  2 -2.276935 0.000003 -1.238188 -1.570795 -1.570451 0.000000
  3 1.796548 0.712145 0.001344 -0.449858 -0.335398 -0.042088
  4 4.119765 -0.002772 0.001312 -0.420212 0.198135 0.309401
  5 4.118848 -0.002968 0.001375 -0.436399 0.125991 0.023555
  6 4.118504 -0.002967 0.001394 -0.439426 0.035481 -0.050475
  7 4.119045 -0.003499 -0.000284 0.081284 0.121074 0.136315
  8 4.443603 -0.000000 -0.000000 0.068703 0.146785 -0.433081
  9 9.024064 0.000001 0.000000 0.000000 0.000000 0.000000
 10 -0.209269 0.143190 1.714357 1.112016 -0.960833 1.906393
 11 6.384776 0.000001 -0.000003 -0.983612 0.147882 -1.284193
 12 10.242682 0.000001 -0.000000 0.000000 -0.000000 -0.944720
 13 11.375560 -0.000001 -0.000000 -2.702482 0.226612 0.534699
 14 0.728682 0.023432 -1.008295 2.396606 0.246960 1.180207
 15 2.136497 -0.000000 0.000002 0.000000 -0.000000 -0.078540
 16 2.313141 -0.000001 -0.000001 0.000000 0.000000 0.000000
 17 3.115506 -0.886040 -0.021433 -0.166499 0.000392 0.514872
 18 2.011149 -0.000001 0.000002 -0.000000 -0.000000 1.322792
 19 2.141381 -0.000002 0.000001 0.000000 0.000000 0.000000
 20 1.734172 0.000000 0.000002 0.000000 -0.000000 0.660693
 21 0.000004 -4.440594 0.000002 1.570544 -0.062990 -0.195737
 22 5.999999 -0.000001 0.000000 -2.459774 0.000000 0.000000
 23 -0.000000 -4.440600 -0.000001 1.569944 -0.062987 0.004053
 24 11.375559 0.000000 0.000003 -2.147703 0.031641 0.318404
 25 -0.000001 -4.440603 0.000002 1.570144 -0.062988 0.004040
 26 10.510129 0.000001 -0.000001 0.000000 -0.000000 -2.043156
 27 0.000000 -1.748400 4.999999 -0.000000 0.004007 1.602290
 28 5.500000 0.000002 -0.000000 0.317409 -0.000000 -0.000000
 29 -0.000002 -1.940599 5.000003 -0.044472 0.004003 -0.000180
 30 6.551490 0.000000 -0.000001 -0.615217 0.193796 -0.776103
 31 0.000000 -1.940597 5.000001 -0.027189 -0.053376 0.005295
 32 6.551490 0.000000 -0.000001 -0.255611 0.145657 -0.330871
 33 -0.000001 -1.940599 4.999999 -0.066572 -0.152786 -0.110311
 34 0.209281 -0.136114 -1.714358 -1.730826 1.197358 1.321968
 35 6.384777 -0.000000 -0.000001 -0.509863 -0.928133 0.050459
 36 10.242682 -0.000001 0.000002 0.000000 -0.000000 -2.057055
 37 11.375560 0.000000 0.000003 1.975411 0.988166 -0.014332
 38 0.728681 0.023431 1.008290 -1.579583 -0.319038 0.212973
 39 2.136496 -0.000000 -0.000000 -0.000000 0.000000 1.282817
 40 2.313139 -0.000002 0.000000 0.000000 0.000000 3.141593
 41 3.115506 -0.886041 0.021430 0.708959 0.171755 0.347804
 42 2.011150 -0.000001 -0.000003 -0.000000 -0.000000 2.082010
 43 2.141380 -0.000000 0.000001 0.000000 0.000000 3.141593
 44 1.734172 -0.000002 -0.000002 0.000000 -0.000000 1.041748
 45 0.136315 -3.738194 2.525892 1.493698 2.759406 -1.474501
 46 5.613161 0.862366 3.157031 1.595152 -0.135386 0.061522
 47 11.389366 -0.000818 0.158786 1.754055 0.487517 -0.071587
 48 0.000001 -4.440599 0.000003 1.570144 -3.078602 0.004040
 49 6.000000 -0.000000 0.000003 1.754055 -0.000000 -0.000000
 50 0.000001 -4.440602 -0.000002 1.569944 -3.078603 0.004053
 51 10.510132 -0.000001 0.000002 -0.000000 -0.000000 -2.599324
 52 0.000000 -1.748399 -5.000002 -3.141593 0.004007 -1.539299
 53 5.500000 -0.000001 0.000002 0.165878 0.000000 0.000000
 54 0.000000 0.000000 -5.000000 -0.044472 3.137589 -0.000177
 55 6.551490 -0.000000 -0.000001 -0.165878 -0.307830 -0.069477
 56 -1.266843 -1.937443 -4.950560 -0.066572 -2.988806 -0.110308
 57 6.551491 -0.000000 -0.000001 -0.165878 -0.307830 -0.069477
 58 0.699371 -1.944207 -5.006848 -0.027189 -3.088217 0.005298
 59 4.226148 -0.003201 -0.000000 0.039636 0.066061 0.077482
 60 0.000002 5.000000 -0.000000 -0.153564 0.000087 2.718702
 61 0.000004 -0.000004 -3.713580 0.365818 2.880119 -0.191589
 62 0.000002 -0.000000 5.000000 3.053196 1.558589 -0.074928
 63 -0.000007 0.000006 3.713580 -0.001619 -3.122277 -0.475127
 64 0.000002 -0.000001 -5.000000 -0.088726 1.558589 3.066334
 65 7.363602 1.646647 0.495663 3.141593 -1.570796 0.000000
 66 -0.000005 0.000007 3.619081 0.008255 -3.110080 -0.985231
 67 16.573919 0.000002 0.000000 0.000000 -0.000000 -1.065827
 68 15.128181 0.000000 -0.000000 -0.102296 0.010178 0.114297
 69 5.758665 4.244730 0.000000 0.000000 0.000000 1.667687
 70 3.177725 0.000000 -0.000000 0.000000 0.000000 3.141593
 71 15.708953 0.000001 0.000000 -0.051525 0.003996 0.061523
 72 0.275148 0.189215 -3.445207 3.130898 0.000409 -1.514604
 73 17.210192 0.000001 0.000000 0.000000 -0.000000 -1.893339
 74 0.000001 -0.000000 -5.000000 -0.079430 1.546568 -1.570855
 75 0.000002 -0.000003 -3.619081 0.577895 2.675801 -0.242118
 76 16.573921 -0.000001 -0.000002 -0.000000 -0.000000 -1.163030
 77 15.128181 0.000001 0.000001 0.089479 0.309197 0.659208
 78 5.758666 4.244730 -0.000001 -0.000000 -0.000000 1.815142
 79 4.003934 -0.000000 0.000001 0.000000 0.000000 0.000000
 80 15.708954 0.000001 0.000002 0.042277 0.226871 0.443133
 81 0.273998 0.191089 3.439762 -3.130907 -0.000437 -1.508107
 82 17.210194 -0.000001 -0.000002 0.000000 -0.000000 -1.937080
 83 -0.000000 -0.000001 5.000000 -0.079319 1.595025 -1.570742
time 4
  0 -0.650000 0.000000 33.899605 -0.025849 0.174554 -1.569172
  1 5.685104 0.833236 -32.227173 -0.174512 -0.026131 1.569196
  2 -2.276935 0.000003 -1.238188 -1.570795 -1.570451 0.000000
  3 1.796540 0.712144 0.001338 -0.447517 -0.334951 -0.045908
  4 4.119762 -0.002775 0.001307 -0.418391 0.196850 0.309366
  5 4.118845 -0.002970 0.001370 -0.434427 0.124952 0.023554
  6 4.118503 -0.002970 0.001388 -0.437485 0.034872 -0.050788
  7 4.119047 -0.003499 -0.000285 0.081284 0.121073 0.136315
  8 4.443598 0.000000 -0.000000 0.061042 0.143088 -0.433956
  9 9.024064 0.000000 0.000000 0.000000 0.000000 0.000000
 10 -0.209273 0.143191 1.714357 1.112016 -0.960833 1.906393
 11 6.384776 0.000001 0.000001 -0.988081 0.132547 -1.298405
 12 10.242682 -0.000001 -0.000001 0.000000 -0.000000 -0.908561
 13 11.375559 0.000001 0.000000 -2.702803 0.232812 0.514953
 14 0.728680 0.023433 -1.008294 2.396606 0.246960 1.180207
 15 2.136497 -0.000000 -0.000001 -0.000000 -0.000000 -0.078540
 16 2.313139 -0.000000 -0.000001 0.000000 0.000000 0.000000
 17 3.115506 -0.886042 -0.021432 -0.166499 0.000392 0.514872
 18 2.011150 0.000000 0.000002 0.000000 0.000000 1.322792
 19 2.141379 0.000002 0.000003 0.000000 0.000000 0.000000
 20 1.734171 0.000000 0.000001 -0.000000 0.000000 0.660693
 21 0.000005 -4.440594 0.000002 1.570544 -0.062990 -0.195737
 22 5.999999 0.000000 0.000000 -2.458930 -0.000000 -0.000000
 23 -0.000001 -4.440600 0.000000 1.569944 -0.062987 0.004053
 24 11.375562 -0.000001 0.000004 -2.147355 0.037907 0.310016
 25 -0.000003 -4.440603 -0.000001 1.570144 -0.062988 0.004040
 26 10.510130 -0.000001 -0.000002 -0.000000 -0.000000 -2.025077
 27 0.000001 -1.748401 4.999999 0.000000 0.004007 1.602290
 28 5.499999 -0.000002 -0.000001 0.321190 0.000000 -0.000000
 29 -0.000002 -1.940601 5.000000 -0.044472 0.004003 -0.000180
 30 6.551491 0.000001 0.000000 -0.622782 0.186410 -0.788754
 31 -0.000001 -1.940600 5.000003 -0.027189 -0.053376 0.005295
 32 6.551491 0.000001 0.000000 -0.258429 0.143684 -0.335618
 33 -0.000002 -1.940601 4.999998 -0.066572 -0.152786 -0.110311
 34 0.209277 -0.136114 -1.714358 -1.747034 1.187875 1.305191
 35 6.384777 -0.000000 -0.000000 -0.504843 -0.935849 0.062557
 36 10.242684 -0.000001 0.000002 0.000000 0.000000 -2.056636
 37 11.375562 -0.000001 -0.000002 1.976679 0.988026 -0.009450
 38 0.728681 0.023431 1.008291 -1.579583 -0.319038 0.212973
 39 2.136497 0.000001 -0.000000 -0.000000 -0.000000 1.282817
 40 2.313139 0.000001 0.000000 0.000000 0.000000 3.141593
 41 3.115508 -0.886041 0.021431 0.708959 0.171755 0.347804
 42 2.011151 0.000002 0.000003 -0.000000 0.000000 2.082010
 43 2.141379 0.000001 -0.000002 0.000000 0.000000 3.141593
 44 1.734172 0.000000 0.000002 0.000000 -0.000000 1.041748
 45 0.136315 -3.738193 2.525888 1.493698 2.759406 -1.474501
 46 5.613160 0.862367 3.157030 1.595152 -0.135386 0.061522
 47 11.389366 -0.000819 0.158779 1.753908 0.487574 -0.069675
 48 0.000001 -4.440599 0.000001 1.570144 -3.078602 0.004040
 49 6.000000 -0.000001 -0.000003 1.753908 -0.000000 -0.000000
 50 0.000001 -4.440601 0.000003 1.569944 -3.078603 0.004053
 51 10.510133 -0.000001 0.000003 0.000000 -0.000000 -2.599114
 52 0.000000 -1.748401 -5.000000 -3.141593 0.004007 -1.539299
 53 5.500000 -0.000000 0.000001 0.164278 -0.000000 -0.000000
 54 0.000001 0.000000 -5.000000 -0.044472 3.137589 -0.000177
 55 6.551491 -0.000000 -0.000000 -0.164278 -0.309151 -0.066504
 56 -1.266843 -1.937443 -4.950561 -0.066572 -2.988806 -0.110308
 57 6.551491 -0.000000 -0.000000 -0.164278 -0.309151 -0.066504
 58 0.699370 -1.944208 -5.006849 -0.027189 -3.088217 0.005298
 59 4.226145 -0.003201 0.000000 0.039636 0.066061 0.077482
 60 -0.000001 5.000000 -0.000000 -0.153564 0.000087 2.718702
 61 0.000004 -0.000004 -3.713580 0.365818 2.880119 -0.191589
 62 0.000002 -0.000000 5.000000 3.053196 1.558589 -0.074928
 63 -0.000007 0.000006 3.713580 -0.001619 -3.122277 -0.475127
 64 0.000002 -0.000001 -5.000000 -0.088726 1.558589 3.066334
 65 7.363602 1.646647 0.495663 3.141593 -1.570796 0.000000
 66 -0.000005 0.000007 3.619081 0.008255 -3.110080 -0.985231
 67 16.573919 0.000002 0.000000 0.000000 -0.000000 -1.065827
 68 15.128181 0.000000 -0.000000 -0.102296 0.010178 0.114297
 69 5.758665 4.244730 0.000000 0.000000 0.000000 1.667687
 70 3.177725 0.000000 -0.000000 0.000000 0.000000 3.141593
 71 15.708953 0.000001 0.000000 -0.051525 0.003996 0.061523
 72 0.275148 0.189215 -3.445207 3.130898 0.000409 -1.514604
 73 17.210192 0.000001 0.000000 0.000000 -0.000000 -1.893339
 74 0.000001 -0.000000 -5.000000 -0.079430 1.546568 -1.570855
 75 0.000002 -0.000003 -3.619081 0.577895 2.675801 -0.242118
 76 16.573921 -0.000001 -0.000002 -0.000000 -0.000000 -1.163030
 77 15.128181 0.000001 0.000001 0.089479 0.309197 0.659208
 78 5.758666 4.244730 -0.000001 -0.000000 -0.000000 1.815142
 79 4.003934 -0.000000 0.000001 0.000000 0.000000 0.000000
 80 15.708954 0.000001 0.000002 0.042277 0.226871 0.443133
 81 0.273998 0.191089 3.439762 -3.130907 -0.000437 -1.508107
 82 17.210194 -0.000001 -0.000002 0.000000 -0.000000 -1.937080
 83 -0.000000 -0.000001 5.000000 -0.079319 1.595025 -1.570742
time 5
  0 -0.650000 0.000000 33.899605 -0.025849 0.174554 -1.569172
  1 5.685104 0.833236 -32.227173 -0.174512 -0.026131 1.569196
  2 -2.276935 0.000003 -1.238188 -1.570795 -1.570451 0.000000
  3 1.796524 0.712145 0.001334 -0.446546 -0.336040 -0.050184
  4 4.119762 -0.002777 0.001304 -0.417784 0.196040 0.308643
  5 4.118842 -0.002971 0.001368 -0.433667 0.124229 0.022861
  6 4.118497 -0.002970 0.001386 -0.436713 0.034312 -0.051599
  7 4.119042 -0.003499 -0.000285 0.081284 0.121073 0.136315
  8 4.443601 0.000000 -0.000000 0.058510 0.137890 -0.431530
  9 9.024061 0.000001 0.000000 0.000000 0.000000 0.000000
 10 -0.209269 0.143191 1.714358 1.112016 -0.960833 1.906393
 11 6.384776 0.000000 0.000001 -0.993790 0.134307 -1.299324
 12 10.242682 0.000001 0.000000 -0.000000 0.000000 -0.903402
 13 11.375559 0.000001 -0.000001 -2.703023 0.235571 0.510095
 14 0.728680 0.023431 -1.008294 2.396606 0.246960 1.180207
 15 2.136498 -0.000000 0.000000 0.000000 -0.000000 -0.078540
 16 2.313136 0.000000 -0.000001 0.000000 0.000000 0.000000
 17 3.115506 -0.886041 -0.021432 -0.166499 0.000392 0.514872
 18 2.011149 -0.000000 0.000004 -0.000000 -0.000000 1.322792
 19 2.141381 -0.000002 -0.000002 0.000000 0.000000 0.000000
 20 1.734171 -0.000001 0.000002 -0.000000 0.000000 0.660693
 21 0.000005 -4.440593 0.000002 1.570544 -0.062990 -0.195737
 22 6.000000 -0.000000 0.000001 -2.458862 0.000000 -0.000000
 23 0.000000 -4.440602 0.000002 1.569944 -0.062987 0.004053
 24 11.375561 -0.000001 0.000004 -2.147370 0.040080 0.308104
 25 0.000000 -4.440603 0.000000 1.570144 -0.062988 0.004040
 26 10.510130 0.000000 0.000000 -0.000000 0.000000 -2.022497
 27 0.000002 -1.748400 5.000000 -0.000000 0.004007 1.602291
 28 5.499999 -0.000000 0.000001 0.322419 0.000000 -0.000000
 29 -0.000002 -1.940600 5.000001 -0.044472 0.004003 -0.000180
 30 6.551491 0.000001 0.000000 -0.625576 0.187795 -0.789057
 31 0.000000 -1.940598 5.000000 -0.027189 -0.053376 0.005295
 32 6.551491 0.000001 0.000000 -0.259363 0.144556 -0.335373
 33 -0.000000 -1.940598 4.999998 -0.066572 -0.152786 -0.110311
 34 0.209280 -0.136114 -1.714358 -1.753102 1.184160 1.298884
 35 6.384776 0.000001 -0.000004 -0.508720 -0.938901 0.068997
 36 10.242680 0.000000 -0.000002 0.000000 0.000000 -2.056944
 37 11.375561 0.000002 0.000000 1.975786 0.988349 -0.005062
 38 0.728683 0.023431 1.008293 -1.579583 -0.319038 0.212973
 39 2.136497 -0.000000 0.000000 -0.000000 0.000000 1.282817
 40 2.313139 -0.000000 0.000000 0.000000 0.000000 3.141593
 41 3.115507 -0.886041 0.021430 0.708959 0.171755 0.347804
 42 2.011152 0.000000 0.000002 -0.000000 0.000000 2.082010
 43 2.141380 -0.000001 0.000003 0.000000 0.000000 3.141593
 44 1.734173 -0.000001 0.000001 -0.000000 0.000000 1.041748
 45 0.136316 -3.738192 2.525892 1.493698 2.759406 -1.474501
 46 5.613161 0.862366 3.157032 1.595152 -0.135386 0.061522
 47 11.389366 -0.000820 0.158779 1.752883 0.487799 -0.067705
 48 0.000001 -4.440599 0.000001 1.570144 -3.078602 0.004040
 49 6.000000 -0.000001 -0.000003 1.752883 -0.000000 0.000000
 50 0.000002 -4.440601 -0.000000 1.569944 -3.078603 0.004053
 51 10.510131 0.000000 -0.000000 -0.000000 0.000000 -2.599268
 52 0.000001 -1.748400 -5.000001 -3.141593 0.004007 -1.539299
 53 5.500000 -0.000001 0.000000 0.164860 -0.000000 -0.000000
 54 0.000000 0.000000 -5.000000 -0.044472 3.137589 -0.000177
 55 6.551491 0.000001 -0.000002 -0.164860 -0.309883 -0.065270
 56 -1.266843 -1.937443 -4.950558 -0.066572 -2.988806 -0.110308
 57 6.551491 0.000001 -0.000002 -0.164860 -0.309883 -0.065270
 58 0.699371 -1.944208 -5.006847 -0.027189 -3.088217 0.005298
 59 4.226143 -0.003201 0.000000 0.039636 0.066061 0.077482
 60 -0.000002 5.000000 0.000000 -0.153564 0.000087 2.718702
 61 0.000004 -0.000004 -3.713580 0.365818 2.880119 -0.191589
 62 0.000002 -0.000000 5.000000 3.053196 1.558589 -0.074928
 63 -0.000007 0.000006 3.713580 -0.001619 -3.122277 -0.475127
 64 0.000002 -0.000001 -5.000000 -0.088726 1.558589 3.066334
 65 7.363602 1.646647 0.495663 3.141593 -1.570796 0.000000
 66 -0.000005 0.000007 3.619081 0.008255 -3.110080 -0.985231
 67 16.573919 0.000002 0.000000 0.000000 -0.000000 -1.065827
 68 15.128181 0.000000 -0.000000 -0.102296 0.010178 0.114297
 69 5.758665 4.244730 0.000000 0.000000 0.000000 1.667687
 70 3.177725 0.000000 -0.000000 0.000000 0.000000 3.141593
 71 15.708953 0.000001 0.000000 -0.051525 0.003996 0.061523
 72 0.275148 0.189215 -3.445207 3.130898 0.000409 -1.514604
 73 17.210192 0.000001 0.000000 0.000000 -0.000000 -1.893339
 74 0.000001 -0.000000 -5.000000 -0.079430 1.546568 -1.570855
 75 0.000002 -0.000003 -3.619081 0.577895 2.675801 -0.242118
 76 16.573921 -0.000001 -0.000002 -0.000000 -0.000000 -1.163030
 77 15.128181 0.000001 0.000001 0.089479 0.309197 0.659208
 78 5.758666 4.244730 -0.000001 -0.000000 -0.000000 1.815142
 79 4.003934 -0.000000 0.000001 0.000000 0.000000 0.000000
 80 15.708954 0.000001 0.000002 0.042277 0.226871 0.443133
 81 0.273998 0.191089 3.439762 -3.130907 -0.000437 -1.508107
 82 17.210194 -0.000001 -0.000002 0.000000 -0.000000 -1.937080
 83 -0.000000 -0.000001 5.000000 -0.079319 1.595025 -1.570742
time 6
  0 -0.650000 0.000000 33.899605 -0.025849 0.174554 -1.569172
  1 5.685104 0.833236 -32.227173 -0.174512 -0.026131 1.569196
  2 -2.276935 0.000003 -1.238188 -1.570795 -1.570451 0.000000
  3 1.796509 0.712148 0.001333 -0.446560 -0.338252 -0.054797
  4 4.119756 -0.002779 0.001306 -0.418059 0.195577 0.307421
  5 4.118839 -0.002972 0.001368 -0.433789 0.123735 0.021665
  6 4.118494 -0.002970 0.001386 -0.436792 0.033788 -0.052772
  7 4.119046 -0.003499 -0.000284 0.081284 0.121073 0.136315
  8 4.443601 -0.000000 -0.000000 0.059691 0.131607 -0.426734
  9 9.024063 0.000002 0.000000 0.000000 0.000000 0.000000
 10 -0.209270 0.143190 1.714357 1.112016 -0.960833 1.906393
 11 6.384777 0.000001 -0.000004 -1.000389 0.148780 -1.290589
 12 10.242682 -0.000000 -0.000002 0.000000 0.000000 -0.921170
 13 11.375562 -0.000002 -0.000001 -2.703159 0.235901 0.516224
 14 0.728679 0.023431 -1.008289 2.396606 0.246960 1.180207
 15 2.136495 -0.000000 -0.000003 -0.000000 0.000000 -0.078540
 16 2.313140 0.000001 0.000001 0.000000 0.000000 0.000000
 17 3.115506 -0.886039 -0.021430 -0.166499 0.000392 0.514872
 18 2.011151 0.000003 -0.000000 -0.000000 -0.000000 1.322792
 19 2.141379 0.000001 0.000000 0.000000 0.000000 0.000000
 20 1.734172 0.000001 0.000001 0.000000 -0.000000 0.660693
 21 0.000006 -4.440594 0.000001 1.570544 -0.062990 -0.195737
 22 5.999998 -0.000001 -0.000001 -2.459376 0.000000 -0.000000
 23 0.000003 -4.440601 -0.000002 1.569944 -0.062987 0.004053
 24 11.375560 -0.000002 0.000002 -2.147679 0.039257 0.311023
 25 -0.000001 -4.440604 0.000002 1.570144 -0.062988 0.004040
 26 10.510130 -0.000001 -0.000002 -0.000000 -0.000000 -2.031381
 27 0.000000 -1.748402 4.999999 0.000000 0.004007 1.602290
 28 5.500000 -0.000001 -0.000002 0.321782 0.000000 0.000000
 29 -0.000002 -1.940598 5.000000 -0.044472 0.004003 -0.000180
 30 6.551491 0.000001 -0.000003 -0.624875 0.195728 -0.780208
 31 -0.000000 -1.940597 5.000002 -0.027189 -0.053376 0.005295
 32 6.551491 0.000001 -0.000003 -0.258926 0.147549 -0.331428
 33 -0.000001 -1.940600 4.999995 -0.066572 -0.152786 -0.110311
 34 0.209276 -0.136114 -1.714358 -1.752243 1.184691 1.299778
 35 6.384777 0.000000 0.000000 -0.518865 -0.938654 0.071090
 36 10.242684 -0.000000 0.000002 0.000000 0.000000 -2.057776
 37 11.375562 -0.000001 0.000002 1.973286 0.989056 -0.000972
 38 0.728680 0.023431 1.008290 -1.579583 -0.319038 0.212973
 39 2.136497 0.000001 0.000000 -0.000000 0.000000 1.282817
 40 2.313138 -0.000001 0.000001 0.000000 0.000000 3.141593
 41 3.115506 -0.886041 0.021430 0.708959 0.171755 0.347804
 42 2.011149 -0.000000 0.000000 -0.000000 0.000000 2.082010
 43 2.141379 -0.000001 0.000000 0.000000 0.000000 3.141593
 44 1.734172 -0.000001 0.000001 0.000000 0.000000 1.041748
 45 0.136316 -3.738193 2.525893 1.493698 2.759406 -1.474501
 46 5.613160 0.862367 3.157032 1.595152 -0.135386 0.061522
 47 11.389367 -0.000821 0.158782 1.751189 0.488165 -0.065662
 48 0.000001 -4.440600 0.000002 1.570144 -3.078602 0.004040
 49 6.000000 -0.000000 0.000001 1.751189 0.000000 0.000000
 50 0.000002 -4.440602 0.000001 1.569944 -3.078603 0.004053
 51 10.510133 0.000000 0.000002 0.000000 0.000000 -2.599684
 52 -0.000000 -1.748401 -5.000000 -3.141593 0.004007 -1.539299
 53 5.500002 -0.000000 0.000002 0.167021 -0.000000 0.000000
 54 -0.000000 0.000000 -5.000000 -0.044472 3.137589 -0.000177
 55 6.551491 0.000000 0.000001 -0.167021 -0.310222 -0.065366
 56 -1.266844 -1.937443 -4.950560 -0.066572 -2.988806 -0.110308
 57 6.551491 0.000000 0.000001 -0.167021 -0.310222 -0.065366
 58 0.699371 -1.944208 -5.006845 -0.027189 -3.088217 0.005298
 59 4.226147 -0.003201 -0.000000 0.039636 0.066061 0.077482
 60 -0.000002 5.000000 -0.000000 -0.153564 0.000087 2.718702
 61 0.000004 -0.000004 -3.713580 0.365818 2.880119 -0.191589
 62 0.000002 -0.000000 5.000000 3.053196 1.558589 -0.074928
 63 -0.000007 0.000006 3.713580 -0.001619 -3.122277 -0.475127
 64 0.000002 -0.000001 -5.000000 -0.088726 1.558589 3.066334
 65 7.363602 1.646647 0.495663 3.141593 -1.570796 0.000000
 66 -0.000005 0.000007 3.619081 0.008255 -3.110080 -0.985231
 67 16.573919 0.000002 0.000000 0.000000 -0.000000 -1.065827
 68 15.128181 0.000000 -0.000000 -0.102296 0.010178 0.114297
 69 5.758665 4.244730 0.000000 0.000000 0.000000 1.667687
 70 3.177725 0.000000 -0.000000 0.000000 0.000000 3.141593
 71 15.708953 0.000001 0.000000 -0.051525 0.003996 0.061523
 72 0.275148 0.189215 -3.445207 3.130898 0.000409 -1.514604
 73 17.210192 0.000001 0.000000 0.000000 -0.000000 -1.893339
 74 0.000001 -0.000000 -5.000000 -0.079430 1.546568 -1.570855
 75 0.000002 -0.000003 -3.619081 0.577895 2.675801 -0.242118
 76 16.573921 -0.000001 -0.000002 -0.000000 -0.000000 -1.163030
 77 15.128181 0.000001 0.000001 0.089479 0.309197 0.659208
 78 5.758666 4.244730 -0.000001 -0.000000 -0.000000 1.815142
 79 4.003934 -0.000000 0.000001 0.000000 0.000000 0.000000
 80 15.708954 0.000001 0.000002 0.042277 0.226871 0.443133
 81 0.273998 0.191089 3.439762 -3.130907 -0.000437 -1.508107
 82 17.210194 -0.000001 -0.000002 0.000000 -0.000000 -1.937080
 83 -0.000000 -0.000001 5.000000 -0.079319 1.595025 -1.570742
time 7
  0 -0.650000 0.000000 33.899605 -0.025849 0.174554 -1.569172
  1 5.685104 0.833236 -32.227173 -0.174512 -0.026131 1.569196
  2 -2.276935 0.000003 -1.238188 -1.570795 -1.570451 0.000000
  3 1.796491 0.712152 0.001334 -0.447181 -0.341169 -0.059621
  4 4.119753 -0.002779 0.001308 -0.418884 0.195328 0.305888
  5 4.118832 -0.002971 0.001370 -0.434461 0.123383 0.020156
  6 4.118485 -0.002969 0.001389 -0.437402 0.033286 -0.054171
  7 4.119047 -0.003499 -0.000285 0.081284 0.121073 0.136315
  8 4.443598 0.000000 -0.000000 0.063170 0.124630 -0.420494
  9 9.024061 0.000002 0.000000 0.000000 0.000000 0.000000
 10 -0.209275 0.143190 1.714357 1.112016 -0.960833 1.906393
 11 6.384776 0.000001 0.000000 -1.007361 0.171002 -1.276225
 12 10.242682 -0.000000 0.000000 -0.000000 0.000000 -0.952350
 13 11.375561 0.000001 -0.000001 -2.703248 0.234760 0.528704
 14 0.728681 0.023431 -1.008291 2.396606 0.246960 1.180207
 15 2.136493 0.000000 -0.000002 0.000000 -0.000000 -0.078540
 16 2.313140 -0.000001 -0.000001 0.000000 0.000000 0.000000
 17 3.115507 -0.886042 -0.021429 -0.166499 0.000392 0.514872
 18 2.011151 -0.000000 0.000000 -0.000000 -0.000000 1.322792
 19 2.141379 -0.000001 -0.000000 0.000000 0.000000 0.000000
 20 1.734172 -0.000001 0.000000 -0.000000 0.000000 0.660693
 21 0.000008 -4.440594 -0.000001 1.570544 -0.062990 -0.195737
 22 6.000001 -0.000001 0.000000 -2.460232 -0.000000 -0.000000
 23 0.000001 -4.440600 -0.000001 1.569944 -0.062987 0.004053
 24 11.375562 -0.000002 0.000003 -2.148154 0.036684 0.316701
 25 -0.000003 -4.440603 0.000002 1.570144 -0.062988 0.004040
 26 10.510130 -0.000001 -0.000000 0.000000 -0.000000 -2.046971
 27 -0.000001 -1.748400 4.999999 -0.000000 0.004007 1.602291
 28 5.500000 -0.000000 -0.000001 0.320116 0.000000 -0.000000
 29 -0.000001 -1.940597 5.000001 -0.044472 0.004003 -0.000180
 30 6.551491 0.000000 0.000001 -0.622298 0.207403 -0.766357
 31 0.000000 -1.940600 5.000001 -0.027189 -0.053376 0.005295
 32 6.551491 0.000001 0.000001 -0.257722 0.151797 -0.325369
 33 -0.000001 -1.940599 4.999998 -0.066572 -0.152786 -0.110311
 34 0.209277 -0.136114 -1.714358 -1.747034 1.187875 1.305191
 35 6.384776 -0.000000 0.000003 -0.532879 -0.936362 0.070476
 36 10.242681 -0.000001 0.000001 0.000000 0.000000 -2.058960
 37 11.375561 -0.000000 0.000001 1.969881 0.989988 0.003058
 38 0.728679 0.023431 1.008292 -1.579583 -0.319038 0.212973
 39 2.136496 0.000000 0.000000 -0.000000 0.000000 1.282817
 40 2.313139 -0.000002 0.000000 0.000000 0.000000 3.141593
 41 3.115506 -0.886041 0.021434 0.708959 0.171755 0.347804
 42 2.011150 -0.000001 -0.000001 -0.000000 0.000000 2.082010
 43 2.141380 -0.000001 -0.000001 0.000000 0.000000 3.141593
 44 1.734172 -0.000000 0.000001 -0.000000 -0.000000 1.041748
 45 0.136316 -3.738192 2.525893 1.493698 2.759406 -1.474501
 46 5.613160 0.862366 3.157033 1.595152 -0.135386 0.061522
 47 11.389365 -0.000817 0.158784 1.749099 0.488616 -0.063528
 48 0.000001 -4.440599 0.000000 1.570144 -3.078602 0.004040
 49 6.000000 0.000001 0.000001 1.749099 0.000000 -0.000000
 50 0.000001 -4.440602 -0.000000 1.569944 -3.078603 0.004053
 51 10.510131 -0.000001 0.000001 0.000000 -0.000000 -2.600276
 52 -0.000001 -1.748399 -5.000000 3.141593 0.004007 -1.539299
 53 5.500000 -0.000001 0.000001 0.170116 0.000000 0.000000
 54 -0.000000 0.000000 -4.999999 -0.044472 3.137589 -0.000177
 55 6.551490 -0.000000 0.000001 -0.170116 -0.310299 -0.066236
 56 -1.266843 -1.937443 -4.950560 -0.066572 -2.988806 -0.110308
 57 6.551491 -0.000000 0.000001 -0.170116 -0.310299 -0.066236
 58 0.699371 -1.944208 -5.006847 -0.027189 -3.088217 0.005298
 59 4.226142 -0.003201 0.000000 0.039636 0.066061 0.077482
 60 0.000003 5.000000 -0.000001 -0.153564 0.000087 2.718702
 61 0.000004 -0.000004 -3.713580 0.365818 2.880119 -0.191589
 62 0.000002 -0.000000 5.000000 3.053196 1.558589 -0.074928
 63 -0.000007 0.000006 3.713580 -0.001619 -3.122277 -0.475127
 64 0.000002 -0.000001 -5.000000 -0.088726 1.558589 3.066334
 65 7.363602 1.646647 0.495663 3.141593 -1.570796 0.000000
 66 -0.000005 0.000007 3.619081 0.008255 -3.110080 -0.985231
 67 16.573919 0.000002 0.000000 0.000000 -0.000000 -1.065827
 68 15.128181 0.000000 -0.000000 -0.102296 0.010178 0.114297
 69 5.758665 4.244730 0.000000 0.000000 0.000000 1.667687
 70 3.177725 0.000000 -0.000000 0.000000 0.000000 3.141593
 71 15.708953 0.000001 0.000000 -0.051525 0.003996 0.061523
 72 0.275148 0.189215 -3.445207 3.130898 0.000409 -1.514604
 73 17.210192 0.000001 0.000000 0.000000 -0.000000 -1.893339
 74 0.000001 -0.000000 -5.000000 -0.079430 1.546568 -1.570855
 75 0.000002 -0.000003 -3.619081 0.577895 2.675801 -0.242118
 76 16.573921 -0.000001 -0.000002 -0.000000 -0.000000 -1.163030
 77 15.128181 0.000001 0.000001 0.089479 0.309197 0.659208
 78 5.758666 4.244730 -0.000001 -0.000000 -0.000000 1.815142
 79 4.003934 -0.000000 0.000001 0.000000 0.000000 0.000000
 80 15.708954 0.000001 0.000002 0.042277 0.226871 0.443133
 81 0.273998 0.191089 3.439762 -3.130907 -0.000437 -1.508107
 82 17.210194 -0.000001 -0.000002 0.000000 -0.000000 -1.937080
 83 -0.000000 -0.000001 5.000000 -0.079319 1.595025 -1.570742
time 8
  0 -0.650000 0.000000 33.899605 -0.025849 0.174554 -1.569172
  1 5.685104 0.833236 -32.227173 -0.174512 -0.026131 1.569196
  2 -2.276935 0.000003 -1.238188 -1.570795 -1.570451 0.000000
  3 1.796472 0.712157 0.001335 -0.448035 -0.344372 -0.064530
  4 4.119747 -0.002780 0.001312 -0.419931 0.195164 0.304230
  5 4.118829 -0.002970 0.001372 -0.435353 0.123087 0.018521
  6 4.118483 -0.002968 0.001391 -0.438224 0.032792 -0.055660
  7 4.119047 -0.003499 -0.000285 0.081284 0.121074 0.136315
  8 4.443598 -0.000000 0.000000 0.067544 0.117355 -0.413713
  9 9.024063 0.000000 0.000000 0.000000 0.000000 0.000000
 10 -0.209275 0.143191 1.714358 1.112016 -0.960833 1.906393
 11 6.384776 0.000000 0.000003 -1.014266 0.196047 -1.260071
 12 10.242681 -0.000001 0.000002 -0.000000 -0.000000 -0.987750
 13 11.375561 -0.000001 0.000001 -2.703331 0.233080 0.543087
 14 0.728681 0.023431 -1.008291 2.396606 0.246960 1.180207
 15 2.136495 -0.000000 0.000001 -0.000000 -0.000000 -0.078540
 16 2.313138 -0.000001 0.000000 0.000000 0.000000 0.000000
 17 3.115507 -0.886042 -0.021429 -0.166499 0.000392 0.514872
 18 2.011153 0.000002 -0.000001 0.000000 -0.000000 1.322792
 19 2.141378 -0.000000 -0.000000 0.000000 0.000000 0.000000
 20 1.734173 -0.000001 0.000001 -0.000000 0.000000 0.660693
 21 0.000006 -4.440593 0.000001 1.570544 -0.062990 -0.195737
 22 6.000001 -0.000001 0.000001 -2.461194 0.000000 0.000000
 23 0.000003 -4.440601 0.000001 1.569944 -0.062987 0.004053
 24 11.375561 0.000000 0.000004 -2.148672 0.033559 0.323159
 25 0.000000 -4.440603 -0.000000 1.570144 -0.062988 0.004040
 26 10.510130 0.000000 0.000001 -0.000000 -0.000000 -2.064671
 27 0.000002 -1.748401 5.000000 -0.000000 0.004007 1.602291
 28 5.500000 -0.000001 0.000001 0.318219 0.000000 -0.000000
 29 -0.000001 -1.940598 5.000000 -0.044472 0.004003 -0.000180
 30 6.551491 0.000000 0.000002 -0.619366 0.220183 -0.751307
 31 -0.000000 -1.940600 5.000002 -0.027189 -0.053376 0.005295
 32 6.551491 0.000000 0.000002 -0.256333 0.156472 -0.318689
 33 -0.000001 -1.940599 4.999997 -0.066572 -0.152786 -0.110311
 34 0.209277 -0.136114 -1.714358 -1.739939 1.192103 1.312546
 35 6.384776 0.000001 -0.000002 -0.548433 -0.933257 0.068850
 36 10.242683 0.000001 0.000001 -0.000000 0.000000 -2.060310
 37 11.375561 0.000001 0.000001 1.966254 0.990984 0.007212
 38 0.728681 0.023431 1.008290 -1.579583 -0.319038 0.212973
 39 2.136498 0.000001 -0.000000 -0.000000 0.000000 1.282817
 40 2.313138 -0.000001 0.000000 0.000000 0.000000 3.141593
 41 3.115507 -0.886041 0.021430 0.708959 0.171755 0.347804
 42 2.011152 0.000000 -0.000000 -0.000000 0.000000 2.082010
 43 2.141380 -0.000001 0.000001 0.000000 0.000000 3.141593
 44 1.734172 -0.000001 -0.000001 0.000000 0.000000 1.041748
 45 0.136316 -3.738192 2.525892 1.493698 2.759406 -1.474501
 46 5.613159 0.862366 3.157030 1.595152 -0.135386 0.061522
 47 11.389365 -0.000819 0.158782 1.746886 0.489092 -0.061307
 48 0.000001 -4.440599 -0.000001 1.570144 -3.078602 0.004040
 49 5.999999 -0.000001 0.000000 1.746886 -0.000000 0.000000
 50 0.000002 -4.440600 -0.000002 1.569944 -3.078603 0.004053
 51 10.510134 0.000001 0.000002 0.000000 -0.000000 -2.600951
 52 -0.000000 -1.748399 -5.000001 3.141593 0.004007 -1.539299
 53 5.500000 0.000001 0.000001 0.173525 0.000000 -0.000000
 54 -0.000000 0.000000 -5.000000 -0.044472 3.137590 -0.000177
 55 6.551491 0.000001 -0.000001 -0.173525 -0.310239 -0.067335
 56 -1.266844 -1.937443 -4.950561 -0.066572 -2.988806 -0.110308
 57 6.551491 0.000001 -0.000001 -0.173525 -0.310239 -0.067335
 58 0.699369 -1.944207 -5.006848 -0.027189 -3.088217 0.005298
 59 4.226147 -0.003201 -0.000000 0.039636 0.066061 0.077482
 60 -0.000001 5.000000 0.000000 -0.153564 0.000087 2.718702
 61 0.000004 -0.000004 -3.713580 0.365818 2.880119 -0.191589
 62 0.000002 -0.000000 5.000000 3.053196 1.558589 -0.074928
 63 -0.000007 0.000006 3.713580 -0.001619 -3.122277 -0.475127
 64 0.000002 -0.000001 -5.000000 -0.088726 1.558589 3.066334
 65 7.363602 1.646647 0.495663 3.141593 -1.570796 0.000000
 66 -0.000005 0.000007 3.619081 0.008255 -3.110080 -0.985231
 67 16.573919 0.000002 0.000000 0.000000 -0.000000 -1.065827
 68 15.128181 0.000000 -0.000000 -0.102296 0.010178 0.114297
 69 5.758665 4.244730 0.000000 0.000000 0.000000 1.667687
 70 3.177725 0.000000 -0.000000 0.000000 0.000000 3.141593
 71 15.708953 0.000001 0.000000 -0.051525 0.003996 0.061523
 72 0.275148 0.189215 -3.445207 3.130898 0.000409 -1.514604
 73 17.210192 0.000001 0.000000 0.000000 -0.000000 -1.893339
 74 0.000001 -0.000000 -5.000000 -0.079430 1.546568 -1.570855
 75 0.000002 -0.000003 -3.619081 0.577895 2.675801 -0.242118
 76 16.573921 -0.000001 -0.000002 -0.000000 -0.000000 -1.163030
 77 15.128181 0.000001 0.000001 0.089479 0.309197 0.659208
 78 5.758666 4.244730 -0.000001 -0.000000 -0.000000 1.815142
 79 4.003934 -0.000000 0.000001 0.000000 0.000000 0.000000
 80 15.708954 0.000001 0.000002 0.042277 0.226871 0.443133
 81 0.273998 0.191089 3.439762 -3.130907 -0.000437 -1.508107
 82 17.210194 -0.000001 -0.000002 0.000000 -0.000000 -1.937080
 83 -0.000000 -0.000001 5.000000 -0.079319 1.595025 -1.570742
time 9
  0 -0.650000 0.000000 33.899605 -0.025849 0.174554 -1.569172
  1 5.685104 0.833236 -32.227173 -0.174512 -0.026131 1.569196
  2 -2.276935 0.000003 -1.238188 -1.570795 -1.570451 0.000000
  3 1.796454 0.712162 0.001335 -0.448750 -0.347437 -0.069401
  4 4.119743 -0.002780 0.001315 -0.420866 0.194956 0.302636
  5 4.118829 -0.002970 0.001374 -0.436134 0.122761 0.016949
  6 4.118476 -0.002966 0.001393 -0.438938 0.032292 -0.057103
  7 4.119048 -0.003499 -0.000285 0.081284 0.121073 0.136315
  8 4.443598 0.000000 -0.000000 0.071427 0.110200 -0.407260
  9 9.024063 0.000000 0.000000 0.000000 0.000000 0.000000
 10 -0.209276 0.143191 1.714357 1.112016 -0.960833 1.906393
 11 6.384777 -0.000001 0.000001 -1.020849 0.219285 -1.245557
 12 10.242682 0.000000 -0.000001 -0.000000 0.000000 -1.019243
 13 11.375562 -0.000001 0.000001 -2.703442 0.231777 0.555506
 14 0.728681 0.023429 -1.008290 2.396606 0.246960 1.180207
 15 2.136495 -0.000000 0.000001 -0.000000 -0.000000 -0.078540
 16 2.313141 0.000001 0.000001 0.000000 0.000000 0.000000
 17 3.115507 -0.886042 -0.021429 -0.166499 0.000392 0.514872
 18 2.011149 0.000001 0.000003 -0.000000 -0.000000 1.322792
 19 2.141380 -0.000000 -0.000002 0.000000 0.000000 0.000000
 20 1.734172 0.000001 0.000002 0.000000 -0.000000 0.660693
 21 0.000005 -4.440595 -0.000001 1.570544 -0.062990 -0.195737
 22 5.999999 0.000002 0.000000 -2.462062 -0.000000 -0.000000
 23 -0.000001 -4.440600 0.000001 1.569944 -0.062987 0.004053
 24 11.375562 0.000000 0.000003 -2.149136 0.030955 0.328726
 25 -0.000001 -4.440603 0.000002 1.570144 -0.062988 0.004040
 26 10.510129 -0.000002 -0.000001 -0.000000 -0.000000 -2.080418
 27 -0.000001 -1.748401 4.999998 0.000000 0.004007 1.602291
 28 5.499999 -0.000001 -0.000001 0.316741 0.000000 -0.000000
 29 -0.000001 -1.940597 5.000000 -0.044472 0.004003 -0.000180
 30 6.551492 -0.000000 0.000000 -0.617278 0.231850 -0.738061
 31 0.000000 -1.940600 5.000000 -0.027189 -0.053376 0.005295
 32 6.551492 -0.000000 0.000000 -0.255246 0.160833 -0.312646
 33 -0.000000 -1.940599 4.999997 -0.066572 -0.152786 -0.110311
 34 0.209276 -0.136114 -1.714358 -1.733589 1.195785 1.319114
 35 6.384776 0.000000 0.000001 -0.563172 -0.930588 0.067809
 36 10.242683 -0.000001 0.000000 -0.000000 0.000000 -2.061608
 37 11.375562 -0.000002 -0.000001 1.962983 0.991911 0.011577
 38 0.728681 0.023431 1.008290 -1.579583 -0.319038 0.212973
 39 2.136499 -0.000002 -0.000000 -0.000000 0.000000 1.282817
 40 2.313139 -0.000001 0.000001 0.000000 0.000000 3.141593
 41 3.115508 -0.886041 0.021430 0.708959 0.171755 0.347804
 42 2.011150 0.000001 0.000001 -0.000000 -0.000000 2.082010
 43 2.141380 -0.000001 0.000001 0.000000 0.000000 3.141593
 44 1.734172 -0.000001 -0.000000 0.000000 -0.000000 1.041748
 45 0.136315 -3.738192 2.525890 1.493698 2.759406 -1.474501
 46 5.613162 0.862367 3.157031 1.595152 -0.135386 0.061522
 47 11.389366 -0.000819 0.158782 1.744792 0.489543 -0.059034
 48 0.000000 -4.440599 -0.000001 1.570144 -3.078602 0.004040
 49 6.000000 0.000002 0.000001 1.744792 0.000000 0.000000
 50 0.000002 -4.440601 0.000002 1.569944 -3.078603 0.004053
 51 10.510132 -0.000002 0.000002 0.000000 0.000000 -2.601600
 52 0.000001 -1.748401 -5.000001 -3.141593 0.004007 -1.539299
 53 5.500000 -0.000001 -0.000000 0.176679 -0.000000 -0.000000
 54 0.000000 0.000000 -4.999998 -0.044472 3.137589 -0.000177
 55 6.551491 0.000000 -0.000001 -0.176679 -0.310204 -0.068206
 56 -1.266842 -1.937444 -4.950557 -0.066572 -2.988806 -0.110308
 57 6.551491 0.000000 -0.000001 -0.176679 -0.310204 -0.068206
 58 0.699371 -1.944209 -5.006843 -0.027189 -3.088217 0.005298
 59 4.226143 -0.003201 -0.000000 0.039636 0.066061 0.077482
 60 0.000000 5.000001 0.000000 -0.153564 0.000087 2.718702
 61 0.000004 -0.000004 -3.713580 0.365818 2.880119 -0.191589
 62 0.000002 -0.000000 5.000000 3.053196 1.558589 -0.074928
 63 -0.000007 0.000006 3.713580 -0.001619 -3.122277 -0.475127
 64 0.000002 -0.000001 -5.000000 -0.088726 1.558589 3.066334
 65 7.363602 1.646647 0.495663 3.141593 -1.570796 0.000000
 66 -0.000005 0.000007 3.619081 0.008255 -3.110080 -0.985231
 67 16.573919 0.000002 0.000000 0.000000 -0.000000 -1.065827
 68 15.128181 0.000000 -0.000000 -0.102296 0.010178 0.114297
 69 5.758665 4.244730 0.000000 0.000000 0.000000 1.667687
 70 3.177725 0.000000 -0.000000 0.000000 0.000000 3.141593
 71 15.708953 0.000001 0.000000 -0.051525 0.003996 0.061523
 72 0.275148 0.189215 -3.445207 3.130898 0.000409 -1.514604
 73 17.210192 0.000001 0.000000 0.000000 -0.000000 -1.893339
 74 0.000001 -0.000000 -5.000000 -0.079430 1.546568 -1.570855
 75 0.000002 -0.000003 -3.619081 0.577895 2.675801 -0.242118
 76 16.573921 -0.000001 -0.000002 -0.000000 -0.000000 -1.163030
 77 15.128181 0.000001 0.000001 0.089479 0.309197 0.659208
 78 5.758666 4.244730 -0.000001 -0.000000 -0.000000 1.815142
 79 4.003934 -0.000000 0.000001 0.000000 0.000000 0.000000
 80 15.708954 0.000001 0.000002 0.042277 0.226871 0.443133
 81 0.273998 0.191089 3.439762 -3.130907 -0.000437 -1.508107
 82 17.210194 -0.000001 -0.000002 0.000000 -0.000000 -1.937080
 83 -0.000000 -0.000001 5.000000 -0.079319 1.595025 -1.570742
time 10
  0 -0.650000 0.000000 33.899605 -0.025849 0.174554 -1.569172
  1 5.685104 0.833236 -32.227173 -0.174512 -0.026131 1.569196
  2 -2.276935 0.000003 -1.238188 -1.570795 -1.570451 0.000000
  3 1.796439 0.712165 0.001334 -0.448960 -0.349938 -0.074111
  4 4.119736 -0.002781 0.001317 -0.421359 0.194575 0.301290
  5 4.118817 -0.002969 0.001376 -0.436474 0.122322 0.015628
  6 4.118474 -0.002966 0.001394 -0.439227 0.031775 -0.058366
  7 4.119046 -0.003499 -0.000285 0.081284 0.121073 0.136315
  8 4.443597 -0.000000 -0.000000 0.073446 0.103605 -0.401968
  9 9.024062 0.000001 0.000000 0.000000 0.000000 0.000000
 10 -0.209275 0.143191 1.714358 1.112016 -0.960833 1.906393
 11 6.384777 0.000000 0.000000 -1.027026 0.236341 -1.235772
 12 10.242682 -0.000000 -0.000001 0.000000 0.000000 -1.039647
 13 11.375560 -0.000001 -0.000001 -2.703611 0.231755 0.562632
 14 0.728681 0.023433 -1.008293 2.396606 0.246960 1.180207
 15 2.136496 -0.000000 0.000001 -0.000000 0.000000 -0.078540
 16 2.313140 0.000001 0.000001 0.000000 0.000000 0.000000
 17 3.115508 -0.886039 -0.021433 -0.166499 0.000392 0.514872
 18 2.011151 0.000002 0.000001 -0.000000 0.000000 1.322792
 19 2.141380 -0.000002 0.000001 0.000000 0.000000 0.000000
 20 1.734172 0.000001 0.000000 0.000000 0.000000 0.660693
 21 0.000008 -4.440593 0.000001 1.570544 -0.062990 -0.195737
 22 5.999997 0.000001 -0.000001 -2.462670 -0.000000 0.000000
 23 0.000002 -4.440600 0.000001 1.569944 -0.062987 0.004053
 24 11.375560 -0.000000 0.000002 -2.149482 0.029830 0.332004
 25 -0.000003 -4.440604 0.000001 1.570144 -0.062988 0.004040
 26 10.510130 -0.000003 -0.000001 0.000000 -0.000000 -2.090620
 27 0.000000 -1.748399 4.999998 0.000000 0.004007 1.602290
 28 5.499999 -0.000003 -0.000000 0.316185 -0.000000 -0.000000
 29 -0.000002 -1.940598 5.000001 -0.044472 0.004003 -0.000180
 30 6.551491 0.000000 0.000002 -0.616898 0.240470 -0.729022
 31 0.000000 -1.940598 5.000000 -0.027189 -0.053376 0.005295
 32 6.551491 0.000000 0.000002 -0.254846 0.164193 -0.308325
 33 0.000000 -1.940598 4.999998 -0.066572 -0.152786 -0.110311
 34 0.209277 -0.136114 -1.714358 -1.730827 1.197358 1.321967
 35 6.384776 0.000000 0.000003 -0.574707 -0.929638 0.068832
 36 10.242681 -0.000001 0.000001 0.000000 -0.000000 -2.062582
 37 11.375561 0.000000 0.000001 1.960527 0.992674 0.016125
 38 0.728680 0.023431 1.008294 -1.579583 -0.319038 0.212973
 39 2.136497 -0.000000 0.000000 -0.000000 0.000000 1.282817
 40 2.313138 -0.000002 0.000000 0.000000 0.000000 3.141593
 41 3.115507 -0.886041 0.021434 0.708959 0.171755 0.347804
 42 2.011150 0.000001 -0.000000 -0.000000 0.000000 2.082010
 43 2.141379 -0.000000 -0.000001 0.000000 0.000000 3.141593
 44 1.734172 -0.000001 -0.000002 0.000000 -0.000000 1.041748
 45 0.136316 -3.738192 2.525889 1.493698 2.759406 -1.474501
 46 5.613159 0.862367 3.157033 1.595152 -0.135386 0.061522
 47 11.389367 -0.000821 0.158782 1.743024 0.489932 -0.056780
 48 -0.000001 -4.440599 -0.000001 1.570144 -3.078602 0.004040
 49 6.000000 -0.000000 0.000000 1.743025 0.000000 0.000000
 50 0.000001 -4.440602 0.000002 1.569944 -3.078603 0.004053
 51 10.510132 -0.000001 0.000002 -0.000000 -0.000000 -2.602087
 52 -0.000001 -1.748399 -5.000000 -3.141593 0.004007 -1.539299
 53 5.500000 -0.000001 0.000002 0.179046 0.000000 0.000000
 54 -0.000000 0.000001 -5.000003 -0.044472 3.137589 -0.000177
 55 6.551491 0.000000 0.000002 -0.179046 -0.310392 -0.068479
 56 -1.266844 -1.937443 -4.950561 -0.066572 -2.988806 -0.110308
 57 6.551491 0.000000 0.000002 -0.179046 -0.310392 -0.068479
 58 0.699370 -1.944208 -5.006850 -0.027189 -3.088217 0.005298
 59 4.226146 -0.003201 -0.000000 0.039636 0.066061 0.077482
 60 -0.000000 5.000000 0.000000 -0.153564 0.000087 2.718702
 61 0.000004 -0.000004 -3.713580 0.365818 2.880119 -0.191589
 62 0.000002 -0.000000 5.000000 3.053196 1.558589 -0.074928
 63 -0.000007 0.000006 3.713580 -0.001619 -3.122277 -0.475127
 64 0.000002 -0.000001 -5.000000 -0.088726 1.558589 3.066334
 65 7.363602 1.646647 0.495663 3.141593 -1.570796 0.000000
 66 -0.000005 0.000007 3.619081 0.008255 -3.110080 -0.985231
 67 16.573919 0.000002 0.000000 0.000000 -0.000000 -1.065827
 68 15.128181 0.000000 -0.000000 -0.102296 0.010178 0.114297
 69 5.758665 4.244730 0.000000 0.000000 0.000000 1.667687
 70 3.177725 0.000000 -0.000000 0.000000 0.000000 3.141593
 71 15.708953 0.000001 0.000000 -0.051525 0.003996 0.061523
 72 0.275148 0.189215 -3.445207 3.130898 0.000409 -1.514604
 73 17.210192 0.000001 0.000000 0.000000 -0.000000 -1.893339
 74 0.000001 -0.000000 -5.000000 -0.079430 1.546568 -1.570855
 75 0.000002 -0.000003 -3.619081 0.577895 2.675801 -0.242118
 76 16.573921 -0.000001 -0.000002 -0.000000 -0.000000 -1.163030
 77 15.128181 0.000001 0.000001 0.089479 0.309197 0.659208
 78 5.758666 4.244730 -0.000001 -0.000000 -0.000000 1.815142
 79 4.003934 -0.000000 0.000001 0.000000 0.000000 0.000000
 80 15.708954 0.000001 0.000002 0.042277 0.226871 0.443133
 81 0.273998 0.191089 3.439762 -3.130907 -0.000437 -1.508107
 82 17.210194 -0.000001 -0.000002 0.000000 -0.000000 -1.937080
 83 -0.000000 -0.000001 5.000000 -0.079319 1.595025 -1.570742
end
