version 1
nodes
  0 "Bip01"  -1
  1 "Bip01 Footsteps"   0
  2 "Bip01 Pelvis"   0
  3 "Bip01 Spine"   2
  4 "Bip01 Spine1"   3
  5 "Bip01 Spine2"   4
  6 "Bip01 Spine3"   5
  7 "Bip01 Neck"   6
  8 "Bip01 Head"   7
  9 "Dummy21"   8
 10 "Bip01 L Clavicle"   7
 11 "Bip01 L UpperArm"  10
 12 "Bip01 L Forearm"  11
 13 "Bip01 L Hand"  12
 14 "Bip01 L Finger0"  13
 15 "Bip01 L Finger01"  14
 16 "Dummy06"  15
 17 "Bip01 L Finger1"  13
 18 "Bip01 L Finger11"  17
 19 "Dummy03"  18
 20 "-- L knuckle"  17
 21 "-- L knuckle_end"  20
 22 "-- L Forearm twist"  12
 23 "-- L Forearm twist_end"  22
 24 "-- L wrist"  12
 25 "-- L wrist_end"  24
 26 "-- L Elbow"  11
 27 "--L Elbow_end"  26
 28 "-- L bicep twist"  11
 29 "-- L bicep twist_end"  28
 30 "-- L shoulder outside"  10
 31 "-- L shoulder outside_end"  30
 32 "-- L Shoulder inside"  10
 33 "-- L Shoulder inside_end"  32
 34 "Bip01 R Clavicle"   7
 35 "Bip01 R UpperArm"  34
 36 "Bip01 R Forearm"  35
 37 "Bip01 R Hand"  36
 38 "Bip01 R Finger0"  37
 39 "Bip01 R Finger01"  38
 40 "Dummy01"  39
 41 "Bip01 R Finger1"  37
 42 "Bip01 R Finger11"  41
 43 "Dummy02"  42
 44 "-- R knuckle"  41
 45 "Point06"  44
 46 "Line01"  37
 47 "-- R wrist"  36
 48 "-- R wrist_end"  47
 49 "-- R forearm twist"  36
 50 "-- R forearm twist_end"  49
 51 "-- R Elbow"  35
 52 "--R Elbow_end"  51
 53 "-- R bicep twist"  35
 54 "-- R bicep twist_end"  53
 55 "-- R Shoulder inside"  34
 56 "-- R Shoulder inside_end"  55
 57 "-- R shoulder outside"  34
 58 "-- R shoulder outside_end"  57
 59 "-- Neck smooth"   6
 60 "-- neck smooth end"  59
 61 "-- R Butt"   2
 62 "--R Butt_end"  61
 63 "-- L butt"   2
 64 "--L butt_end"  63
 65 "GIGN01"   2
 66 "Bip01 L Thigh"   2
 67 "Bip01 L Calf"  66
 68 "Bip01 L Foot"  67
 69 "Bip01 L Toe0"  68
 70 "Dummy16"  69
 71 "-- L ankle"  67
 72 "-- L ankleend"  71
 73 "-- L Knee"  66
 74 "--L Knee_end"  73
 75 "Bip01 R Thigh"   2
 76 "Bip01 R Calf"  75
 77 "Bip01 R Foot"  76
 78 "Bip01 R Toe0"  77
 79 "Dummy11"  78
 80 "-- R Ankle"  76
 81 "-- R ankleend"  80
 82 "-- R Knee"  75
 83 "--R Knee_end"  82
end
skeleton
time 0
  0 -0.650000 0.000000 33.899605 -0.025849 0.174554 -1.569172
  1 5.685105 0.833237 -32.227173 -0.174512 -0.026131 1.569196
  2 -2.276935 0.000003 -1.238189 -1.570795 -1.570451 0.000000
  3 1.796132 0.712077 0.000858 -0.274192 -0.247824 -0.255998
  4 4.119662 -0.002973 0.000890 -0.276576 0.107267 0.312514
  5 4.118737 -0.003146 0.000915 -0.285175 0.130696 0.005195
  6 4.118768 -0.003149 0.000902 -0.280215 0.106585 0.021002
  7 4.117616 -0.003387 -0.000276 0.078104 0.031050 -0.279570
  8 4.443599 0.000000 -0.000000 1.106900 0.145599 0.141975
  9 9.024061 -0.000000 0.000000 0.000000 0.000000 0.000000
 10 -0.053789 0.138663 1.726606 1.548837 -1.216567 1.871479
 11 6.384778 0.000001 0.000003 -0.882940 1.016551 -0.248958
 12 10.242684 0.000001 -0.000000 -0.000000 -0.000000 -2.372544
 13 11.375562 -0.000001 -0.000000 -2.851436 0.468129 0.579044
 14 0.728680 0.023430 -1.008290 2.396606 0.246960 1.180206
 15 2.136500 0.000000 -0.000001 0.000000 0.000000 -0.078540
 16 2.313137 0.000001 -0.000000 0.000000 0.000000 0.000000
 17 3.115505 -0.886042 -0.021430 -0.166499 0.000392 0.514872
 18 2.011149 -0.000001 -0.000000 -0.000000 0.000000 1.322792
 19 2.141379 0.000000 0.000000 0.000000 0.000000 0.000000
 20 1.734172 0.000001 -0.000001 -0.000000 0.000000 0.660693
 21 0.000006 -4.440593 -0.000000 1.570544 -0.062990 -0.195737
 22 6.000001 -0.000001 0.000000 -2.594539 0.000000 0.000000
 23 0.000001 -4.440601 -0.000002 1.569944 -0.062987 0.004053
 24 11.375561 0.000000 0.000002 -2.229414 0.133856 0.378974
 25 -0.000002 -4.440604 0.000001 1.570144 -0.062988 0.004040
 26 10.510132 0.000001 -0.000001 0.000000 -0.000000 -2.757068
 27 0.000001 -1.748400 4.999998 -0.000000 0.004007 1.602290
 28 5.500002 0.000001 -0.000001 0.274518 0.000000 0.000000
 29 -0.000001 -1.940598 5.000001 -0.044472 0.004003 -0.000180
 30 6.551492 0.000000 -0.000001 -0.533617 0.745195 0.001260
 31 0.000002 -1.940599 5.000002 -0.027189 -0.053376 0.005295
 32 6.551492 0.000000 -0.000001 -0.225343 0.337724 0.052740
 33 0.000000 -1.940599 4.999998 -0.066572 -0.152786 -0.110311
 34 0.053795 -0.131586 -1.726606 -0.806996 1.261280 2.641134
 35 6.384777 0.000000 0.000001 -0.533400 -0.908181 -0.371227
 36 10.242682 0.000000 0.000001 -0.000000 -0.000000 -1.655391
 37 11.375563 -0.000000 -0.000001 1.746883 0.290156 -0.722178
 38 0.728679 0.023431 1.008291 -1.579583 -0.319038 0.212973
 39 2.136498 0.000000 -0.000000 -0.000000 0.000000 1.282817
 40 2.313139 -0.000001 -0.000000 0.000000 0.000000 3.141593
 41 3.115505 -0.886041 0.021430 0.708959 0.171755 0.347804
 42 2.011151 0.000000 0.000000 0.000000 0.000000 2.082010
 43 2.141380 -0.000001 0.000000 0.000000 0.000000 3.141593
 44 1.734173 -0.000000 0.000001 -0.000000 0.000000 1.041748
 45 0.136314 -3.738193 2.525891 1.493698 2.759406 -1.474501
 46 5.613159 0.862366 3.157030 1.595152 -0.135386 0.061522
 47 11.389368 -0.000816 0.158781 1.681885 0.131546 -0.365222
 48 0.000001 -4.440598 0.000001 1.570144 -3.078602 0.004040
 49 6.000000 0.000001 -0.000001 1.681885 -0.000000 0.000000
 50 0.000002 -4.440601 -0.000000 1.569944 -3.078603 0.004053
 51 10.510130 0.000000 0.000001 0.000000 0.000000 -2.398492
 52 -0.000001 -1.748399 -5.000000 -3.141593 0.004007 -1.539299
 53 5.500000 -0.000000 0.000001 0.173300 -0.000000 -0.000000
 54 -0.000000 0.000001 -5.000000 -0.044472 3.137589 -0.000177
 55 6.551491 0.000000 0.000003 -0.173300 -0.283767 -0.160374
 56 -1.266844 -1.937443 -4.950560 -0.066572 -2.988806 -0.110308
 57 6.551492 0.000000 0.000003 -0.173300 -0.283767 -0.160374
 58 0.699371 -1.944208 -5.006846 -0.027189 -3.088217 0.005298
 59 4.226146 -0.003202 -0.000000 0.053647 0.019897 -0.212748
 60 0.000000 5.000000 0.000001 -0.153564 0.000087 2.718702
 61 0.000004 -0.000004 -3.713580 0.365818 2.880119 -0.191589
 62 0.000003 -0.000000 5.000000 3.053196 1.558589 -0.074928
 63 -0.000007 0.000006 3.713580 -0.001619 -3.122277 -0.475127
 64 0.000001 -0.000000 -5.000000 -0.088725 1.558589 3.066336
 65 7.363602 1.646647 0.495663 3.141593 -1.570796 0.000000
 66 -0.000005 0.000007 3.619081 0.008255 -3.110080 -0.985231
 67 16.573919 0.000003 0.000000 0.000000 0.000000 -1.065827
 68 15.128181 0.000001 -0.000000 -0.102296 0.010178 0.114297
 69 5.758665 4.244730 -0.000000 0.000000 -0.000000 1.667687
 70 3.177726 0.000000 0.000000 0.000000 0.000000 3.141593
 71 15.708952 0.000001 0.000000 -0.051525 0.003996 0.061523
 72 0.275148 0.189215 -3.445208 3.130898 0.000409 -1.514604
 73 17.210192 0.000002 0.000000 0.000000 0.000000 -1.893339
 74 0.000001 -0.000000 -4.999999 -0.079430 1.546568 -1.570855
 75 0.000002 -0.000003 -3.619081 0.577895 2.675801 -0.242118
 76 16.573923 -0.000001 -0.000001 0.000000 -0.000000 -1.163030
 77 15.128182 -0.000001 0.000002 0.089479 0.309197 0.659208
 78 5.758665 4.244731 -0.000000 -0.000000 0.000000 1.815142
 79 4.003934 -0.000000 -0.000000 0.000000 0.000000 0.000000
 80 15.708954 -0.000000 0.000002 0.042277 0.226871 0.443133
 81 0.273998 0.191090 3.439763 -3.130907 -0.000437 -1.508107
 82 17.210196 -0.000001 -0.000001 0.000000 -0.000000 -1.937080
 83 0.000001 -0.000001 5.000000 -0.079314 1.595025 -1.570739
time 1
  0 -0.650000 0.000000 33.899605 -0.025849 0.174554 -1.569172
  1 5.685105 0.833237 -32.227173 -0.174512 -0.026131 1.569196
  2 -2.276935 0.000003 -1.238189 -1.570795 -1.570451 0.000000
  3 1.796158 0.712057 0.000818 -0.261547 -0.253069 -0.247776
  4 4.119669 -0.002983 0.000850 -0.263264 0.106798 0.315269
  5 4.118752 -0.003159 0.000871 -0.271436 0.136578 0.007775
  6 4.118774 -0.003161 0.000858 -0.266399 0.110077 0.023828
  7 4.117761 -0.003424 -0.000288 0.081476 -0.008589 -0.242178
  8 4.443600 -0.000000 -0.000000 1.052946 0.227123 0.056157
  9 9.024065 0.000001 0.000000 0.000000 0.000000 0.000000
 10 0.014884 0.144548 1.726910 -1.487479 -1.919527 -1.409402
 11 6.384778 -0.000001 0.000002 -0.975763 0.920157 -0.404605
 12 10.242682 -0.000001 0.000000 0.000000 -0.000000 -2.314329
 13 11.375562 -0.000000 0.000002 -2.841429 0.467366 0.626006
 14 0.728682 0.023433 -1.008294 2.396606 0.246960 1.180207
 15 2.136499 -0.000001 0.000001 -0.000000 -0.000000 -0.078540
 16 2.313139 -0.000001 0.000002 0.000000 0.000000 0.000000
 17 3.115507 -0.886041 -0.021431 -0.166499 0.000392 0.514872
 18 2.011152 0.000001 -0.000003 -0.000000 0.000000 1.322792
 19 2.141379 0.000000 0.000002 0.000000 0.000000 0.000000
 20 1.734171 0.000001 -0.000001 0.000000 -0.000000 0.660693
 21 0.000007 -4.440594 -0.000001 1.570544 -0.062990 -0.195737
 22 6.000000 -0.000000 0.000002 -2.591219 -0.000000 -0.000000
 23 0.000002 -4.440601 -0.000000 1.569944 -0.062987 0.004053
 24 11.375561 0.000000 0.000004 -2.228119 0.126164 0.399088
 25 -0.000001 -4.440604 0.000001 1.570144 -0.062988 0.004040
 26 10.510132 0.000000 -0.000001 0.000000 0.000000 -2.727961
 27 0.000002 -1.748400 4.999999 -0.000000 0.004007 1.602291
 28 5.500000 -0.000000 -0.000000 0.306616 0.000000 0.000000
 29 -0.000001 -1.940598 5.000000 -0.044472 0.004003 -0.000180
 30 6.551492 -0.000001 0.000002 -0.610134 0.696003 -0.110080
 31 0.000000 -1.940600 5.000002 -0.027189 -0.053376 0.005295
 32 6.551492 -0.000001 0.000002 -0.250242 0.323845 0.008924
 33 0.000001 -1.940599 4.999996 -0.066572 -0.152786 -0.110311
 34 -0.014882 -0.137471 -1.726909 -0.856319 1.242325 2.545544
 35 6.384777 0.000000 0.000001 -0.486026 -0.945348 -0.353564
 36 10.242683 0.000001 0.000002 -0.000000 -0.000000 -1.678877
 37 11.375561 -0.000001 -0.000001 1.737022 0.289341 -0.712430
 38 0.728682 0.023431 1.008294 -1.579583 -0.319038 0.212973
 39 2.136498 -0.000002 -0.000001 -0.000000 0.000000 1.282817
 40 2.313139 0.000002 0.000000 0.000000 0.000000 3.141593
 41 3.115507 -0.886041 0.021431 0.708959 0.171755 0.347804
 42 2.011151 -0.000001 -0.000000 0.000000 0.000000 2.082010
 43 2.141380 -0.000000 -0.000001 0.000000 0.000000 3.141593
 44 1.734173 -0.000001 0.000001 0.000000 0.000000 1.041748
 45 0.136316 -3.738194 2.525892 1.493698 2.759406 -1.474501
 46 5.613160 0.862366 3.157031 1.595152 -0.135386 0.061522
 47 11.389367 -0.000819 0.158781 1.676441 0.132574 -0.360712
 48 0.000001 -4.440599 0.000000 1.570144 -3.078602 0.004040
 49 6.000000 0.000002 -0.000000 1.676441 -0.000000 -0.000000
 50 0.000002 -4.440601 -0.000002 1.569944 -3.078603 0.004053
 51 10.510131 0.000000 0.000001 0.000000 -0.000000 -2.410235
 52 0.000001 -1.748402 -5.000002 3.141593 0.004007 -1.539299
 53 5.499999 0.000000 0.000000 0.164688 0.000000 0.000000
 54 0.000003 -0.000000 -5.000000 -0.044472 3.137589 -0.000177
 55 6.551491 -0.000000 0.000003 -0.164688 -0.296346 -0.155212
 56 -1.266843 -1.937443 -4.950562 -0.066572 -2.988806 -0.110308
 57 6.551491 0.000000 0.000002 -0.164688 -0.296346 -0.155212
 58 0.699371 -1.944208 -5.006850 -0.027189 -3.088217 0.005298
 59 4.226148 -0.003202 0.000000 0.055281 -0.008041 -0.185466
 60 -0.000001 5.000001 0.000000 -0.153564 0.000087 2.718702
 61 0.000004 -0.000004 -3.713580 0.365818 2.880119 -0.191589
 62 0.000003 -0.000000 5.000000 3.053196 1.558589 -0.074928
 63 -0.000007 0.000006 3.713580 -0.001619 -3.122277 -0.475127
 64 0.000001 -0.000000 -5.000000 -0.088725 1.558589 3.066336
 65 7.363602 1.646647 0.495663 3.141593 -1.570796 0.000000
 66 -0.000005 0.000007 3.619081 0.008255 -3.110080 -0.985231
 67 16.573919 0.000003 0.000000 0.000000 0.000000 -1.065827
 68 15.128181 0.000001 -0.000000 -0.102296 0.010178 0.114297
 69 5.758665 4.244730 -0.000000 0.000000 -0.000000 1.667687
 70 3.177726 0.000000 0.000000 0.000000 0.000000 3.141593
 71 15.708952 0.000001 0.000000 -0.051525 0.003996 0.061523
 72 0.275148 0.189215 -3.445208 3.130898 0.000409 -1.514604
 73 17.210192 0.000002 0.000000 0.000000 0.000000 -1.893339
 74 0.000001 -0.000000 -4.999999 -0.079430 1.546568 -1.570855
 75 0.000002 -0.000003 -3.619081 0.577895 2.675801 -0.242118
 76 16.573923 -0.000001 -0.000001 0.000000 -0.000000 -1.163030
 77 15.128182 -0.000001 0.000002 0.089479 0.309197 0.659208
 78 5.758665 4.244731 -0.000000 -0.000000 0.000000 1.815142
 79 4.003934 -0.000000 -0.000000 0.000000 0.000000 0.000000
 80 15.708954 -0.000000 0.000002 0.042277 0.226871 0.443133
 81 0.273998 0.191090 3.439763 -3.130907 -0.000437 -1.508107
 82 17.210196 -0.000001 -0.000001 0.000000 -0.000000 -1.937080
 83 0.000001 -0.000001 5.000000 -0.079314 1.595025 -1.570739
time 2
  0 -0.650000 0.000000 33.899605 -0.025849 0.174554 -1.569172
  1 5.685105 0.833237 -32.227173 -0.174512 -0.026131 1.569196
  2 -2.276935 0.000003 -1.238189 -1.570795 -1.570451 0.000000
  3 1.796189 0.712037 0.000779 -0.248930 -0.258415 -0.239611
  4 4.119676 -0.002992 0.000808 -0.249955 0.106292 0.318017
  5 4.118755 -0.003170 0.000828 -0.257670 0.142424 0.010438
  6 4.118782 -0.003172 0.000815 -0.252568 0.113529 0.026704
  7 4.117900 -0.003455 -0.000294 0.083374 -0.048355 -0.204881
  8 4.443598 0.000000 0.000000 0.991806 0.304950 -0.036529
  9 9.024061 0.000000 0.000000 0.000000 0.000000 0.000000
 10 0.083756 0.147662 1.724684 -1.380058 -1.919163 -1.550811
 11 6.384777 0.000000 -0.000002 -1.038479 0.823790 -0.529014
 12 10.242682 -0.000001 0.000001 0.000000 0.000000 -2.251785
 13 11.375562 -0.000000 0.000001 -2.831589 0.467546 0.662256
 14 0.728680 0.023431 -1.008293 2.396606 0.246960 1.180207
 15 2.136494 0.000001 0.000000 0.000000 0.000000 -0.078540
 16 2.313138 -0.000000 0.000000 0.000000 0.000000 0.000000
 17 3.115507 -0.886039 -0.021434 -0.166499 0.000392 0.514872
 18 2.011152 0.000003 -0.000003 -0.000000 0.000000 1.322792
 19 2.141379 0.000001 0.000002 0.000000 0.000000 0.000000
 20 1.734173 0.000002 -0.000002 0.000000 -0.000000 0.660693
 21 0.000006 -4.440595 0.000001 1.570544 -0.062990 -0.195737
 22 6.000000 -0.000000 0.000000 -2.586974 0.000000 0.000000
 23 0.000000 -4.440603 0.000001 1.569944 -0.062987 0.004053
 24 11.375561 -0.000000 0.000003 -2.226103 0.121048 0.414398
 25 -0.000003 -4.440604 0.000003 1.570144 -0.062988 0.004040
 26 10.510132 -0.000000 -0.000000 0.000000 -0.000000 -2.696689
 27 -0.000001 -1.748401 4.999999 -0.000000 0.004007 1.602291
 28 5.500000 0.000000 -0.000000 0.333644 0.000000 -0.000000
 29 -0.000001 -1.940598 5.000000 -0.044472 0.004003 -0.000180
 30 6.551491 0.000000 -0.000002 -0.669245 0.636847 -0.211391
 31 -0.000002 -1.940599 5.000004 -0.027189 -0.053376 0.005295
 32 6.551491 0.000000 -0.000002 -0.271314 0.306276 -0.035259
 33 -0.000001 -1.940599 4.999999 -0.066572 -0.152786 -0.110311
 34 -0.083757 -0.140586 -1.724684 -0.895381 1.223673 2.458487
 35 6.384777 0.000001 -0.000001 -0.442096 -0.981520 -0.331807
 36 10.242682 0.000001 -0.000000 -0.000000 0.000000 -1.705427
 37 11.375562 0.000001 0.000001 1.728381 0.288128 -0.702878
 38 0.728681 0.023431 1.008294 -1.579583 -0.319038 0.212973
 39 2.136495 0.000002 -0.000000 -0.000000 0.000000 1.282817
 40 2.313138 -0.000002 -0.000000 0.000000 0.000000 3.141593
 41 3.115506 -0.886041 0.021431 0.708959 0.171755 0.347804
 42 2.011149 -0.000001 -0.000003 -0.000000 0.000000 2.082010
 43 2.141380 -0.000002 0.000002 0.000000 0.000000 3.141593
 44 1.734171 -0.000002 -0.000003 -0.000000 -0.000000 1.041748
 45 0.136314 -3.738193 2.525892 1.493698 2.759406 -1.474501
 46 5.613161 0.862367 3.157033 1.595152 -0.135386 0.061522
 47 11.389366 -0.000820 0.158781 1.671603 0.133233 -0.356341
 48 0.000000 -4.440599 0.000001 1.570144 -3.078602 0.004040
 49 6.000000 0.000001 -0.000000 1.671603 -0.000000 0.000000
 50 0.000002 -4.440601 -0.000000 1.569944 -3.078603 0.004053
 51 10.510133 0.000001 0.000001 0.000000 0.000000 -2.423510
 52 0.000001 -1.748399 -5.000001 -3.141593 0.004007 -1.539299
 53 5.500000 0.000001 0.000001 0.157283 0.000000 0.000000
 54 0.000001 -0.000000 -5.000001 -0.044472 3.137589 -0.000177
 55 6.551492 0.000000 0.000002 -0.157283 -0.307621 -0.149643
 56 -1.266843 -1.937443 -4.950557 -0.066572 -2.988806 -0.110308
 57 6.551492 0.000001 0.000002 -0.157283 -0.307621 -0.149643
 58 0.699369 -1.944207 -5.006846 -0.027189 -3.088217 0.005298
 59 4.226143 -0.003201 0.000000 0.056134 -0.036212 -0.157505
 60 -0.000000 5.000000 -0.000000 -0.153564 0.000087 2.718702
 61 0.000004 -0.000004 -3.713580 0.365818 2.880119 -0.191589
 62 0.000003 -0.000000 5.000000 3.053196 1.558589 -0.074928
 63 -0.000007 0.000006 3.713580 -0.001619 -3.122277 -0.475127
 64 0.000001 -0.000000 -5.000000 -0.088725 1.558589 3.066336
 65 7.363602 1.646647 0.495663 3.141593 -1.570796 0.000000
 66 -0.000005 0.000007 3.619081 0.008255 -3.110080 -0.985231
 67 16.573919 0.000003 0.000000 0.000000 0.000000 -1.065827
 68 15.128181 0.000001 -0.000000 -0.102296 0.010178 0.114297
 69 5.758665 4.244730 -0.000000 0.000000 -0.000000 1.667687
 70 3.177726 0.000000 0.000000 0.000000 0.000000 3.141593
 71 15.708952 0.000001 0.000000 -0.051525 0.003996 0.061523
 72 0.275148 0.189215 -3.445208 3.130898 0.000409 -1.514604
 73 17.210192 0.000002 0.000000 0.000000 0.000000 -1.893339
 74 0.000001 -0.000000 -4.999999 -0.079430 1.546568 -1.570855
 75 0.000002 -0.000003 -3.619081 0.577895 2.675801 -0.242118
 76 16.573923 -0.000001 -0.000001 0.000000 -0.000000 -1.163030
 77 15.128182 -0.000001 0.000002 0.089479 0.309197 0.659208
 78 5.758665 4.244731 -0.000000 -0.000000 0.000000 1.815142
 79 4.003934 -0.000000 -0.000000 0.000000 0.000000 0.000000
 80 15.708954 -0.000000 0.000002 0.042277 0.226871 0.443133
 81 0.273998 0.191090 3.439763 -3.130907 -0.000437 -1.508107
 82 17.210196 -0.000001 -0.000001 0.000000 -0.000000 -1.937080
 83 0.000001 -0.000001 5.000000 -0.079314 1.595025 -1.570739
time 3
  0 -0.650000 0.000000 33.899605 -0.025849 0.174554 -1.569172
  1 5.685105 0.833237 -32.227173 -0.174512 -0.026131 1.569196
  2 -2.276935 0.000003 -1.238189 -1.570795 -1.570451 0.000000
  3 1.796206 0.712027 0.000758 -0.242436 -0.261883 -0.234509
  4 4.119682 -0.002996 0.000785 -0.242983 0.106291 0.319551
  5 4.118762 -0.003176 0.000804 -0.250469 0.145904 0.011918
  6 4.118782 -0.003177 0.000792 -0.245328 0.115597 0.028324
  7 4.118040 -0.003481 -0.000295 0.083794 -0.088194 -0.167560
  8 4.443598 -0.000000 0.000000 0.948571 0.379404 -0.122847
  9 9.024064 0.000000 0.000000 0.000000 0.000000 0.000000
 10 0.152616 0.147992 1.719931 1.867480 -1.217633 1.450840
 11 6.384777 -0.000000 0.000002 -1.063995 0.771487 -0.587563
 12 10.242683 0.000001 -0.000000 -0.000000 0.000000 -2.217362
 13 11.375565 -0.000001 0.000000 -2.826380 0.466921 0.680808
 14 0.728680 0.023430 -1.008293 2.396606 0.246960 1.180207
 15 2.136496 0.000001 -0.000002 -0.000000 -0.000000 -0.078540
 16 2.313139 -0.000000 0.000002 0.000000 0.000000 0.000000
 17 3.115506 -0.886042 -0.021431 -0.166499 0.000392 0.514872
 18 2.011151 0.000001 0.000001 -0.000000 0.000000 1.322791
 19 2.141378 0.000000 0.000001 0.000000 0.000000 0.000000
 20 1.734173 0.000000 0.000001 -0.000000 -0.000000 0.660693
 21 0.000006 -4.440594 0.000003 1.570544 -0.062990 -0.195737
 22 5.999998 0.000001 -0.000001 -2.584636 0.000000 0.000000
 23 0.000000 -4.440601 0.000001 1.569944 -0.062987 0.004053
 24 11.375560 0.000001 0.000002 -2.224959 0.118175 0.422088
 25 -0.000001 -4.440604 -0.000000 1.570144 -0.062988 0.004040
 26 10.510130 0.000000 0.000000 0.000000 -0.000000 -2.679477
 27 -0.000001 -1.748401 4.999998 0.000000 0.004007 1.602291
 28 5.499999 0.000000 0.000000 0.345797 0.000000 0.000000
 29 0.000001 -1.940597 5.000002 -0.044472 0.004003 -0.000180
 30 6.551491 -0.000001 -0.000002 -0.693433 0.600937 -0.261702
 31 0.000000 -1.940600 5.000002 -0.027189 -0.053376 0.005295
 32 6.551491 -0.000001 -0.000002 -0.280853 0.295074 -0.059080
 33 0.000001 -1.940599 4.999995 -0.066572 -0.152786 -0.110311
 34 -0.152616 -0.140915 -1.719931 -0.884350 1.202598 2.421811
 35 6.384777 0.000001 0.000005 -0.422031 -1.001136 -0.315008
 36 10.242682 -0.000000 -0.000001 -0.000000 -0.000000 -1.723346
 37 11.375562 -0.000002 -0.000001 1.725489 0.287084 -0.696942
 38 0.728681 0.023431 1.008293 -1.579583 -0.319038 0.212973
 39 2.136498 -0.000002 -0.000001 -0.000000 0.000000 1.282817
 40 2.313139 -0.000002 0.000001 0.000000 0.000000 3.141593
 41 3.115507 -0.886041 0.021432 0.708959 0.171755 0.347804
 42 2.011150 -0.000000 -0.000002 -0.000000 0.000000 2.082010
 43 2.141380 -0.000002 -0.000001 0.000000 0.000000 3.141593
 44 1.734173 -0.000000 0.000001 -0.000000 -0.000000 1.041748
 45 0.136315 -3.738192 2.525890 1.493698 2.759406 -1.474501
 46 5.613159 0.862367 3.157032 1.595152 -0.135386 0.061522
 47 11.389367 -0.000821 0.158781 1.669822 0.133229 -0.353714
 48 0.000001 -4.440599 0.000002 1.570144 -3.078602 0.004040
 49 6.000000 -0.000002 -0.000001 1.669822 -0.000000 -0.000000
 50 0.000002 -4.440601 0.000001 1.569944 -3.078603 0.004053
 51 10.510133 -0.000001 0.000000 -0.000000 -0.000000 -2.432469
 52 0.000000 -1.748398 -5.000000 -3.141593 0.004007 -1.539299
 53 5.500000 -0.000001 -0.000000 0.154029 -0.000000 -0.000000
 54 -0.000000 0.000000 -5.000001 -0.044472 3.137589 -0.000177
 55 6.551490 0.000001 0.000003 -0.154029 -0.313446 -0.145879
 56 -1.266844 -1.937443 -4.950559 -0.066572 -2.988806 -0.110308
 57 6.551491 0.000001 0.000003 -0.154029 -0.313446 -0.145879
 58 0.699371 -1.944209 -5.006845 -0.027189 -3.088217 0.005298
 59 4.226146 -0.003202 0.000000 0.056161 -0.064518 -0.128890
 60 0.000001 5.000001 0.000001 -0.153564 0.000087 2.718702
 61 0.000004 -0.000004 -3.713580 0.365818 2.880119 -0.191589
 62 0.000003 -0.000000 5.000000 3.053196 1.558589 -0.074928
 63 -0.000007 0.000006 3.713580 -0.001619 -3.122277 -0.475127
 64 0.000001 -0.000000 -5.000000 -0.088725 1.558589 3.066336
 65 7.363602 1.646647 0.495663 3.141593 -1.570796 0.000000
 66 -0.000005 0.000007 3.619081 0.008255 -3.110080 -0.985231
 67 16.573919 0.000003 0.000000 0.000000 0.000000 -1.065827
 68 15.128181 0.000001 -0.000000 -0.102296 0.010178 0.114297
 69 5.758665 4.244730 -0.000000 0.000000 -0.000000 1.667687
 70 3.177726 0.000000 0.000000 0.000000 0.000000 3.141593
 71 15.708952 0.000001 0.000000 -0.051525 0.003996 0.061523
 72 0.275148 0.189215 -3.445208 3.130898 0.000409 -1.514604
 73 17.210192 0.000002 0.000000 0.000000 0.000000 -1.893339
 74 0.000001 -0.000000 -4.999999 -0.079430 1.546568 -1.570855
 75 0.000002 -0.000003 -3.619081 0.577895 2.675801 -0.242118
 76 16.573923 -0.000001 -0.000001 0.000000 -0.000000 -1.163030
 77 15.128182 -0.000001 0.000002 0.089479 0.309197 0.659208
 78 5.758665 4.244731 -0.000000 -0.000000 0.000000 1.815142
 79 4.003934 -0.000000 -0.000000 0.000000 0.000000 0.000000
 80 15.708954 -0.000000 0.000002 0.042277 0.226871 0.443133
 81 0.273998 0.191090 3.439763 -3.130907 -0.000437 -1.508107
 82 17.210196 -0.000001 -0.000001 0.000000 -0.000000 -1.937080
 83 0.000001 -0.000001 5.000000 -0.079314 1.595025 -1.570739
time 4
  0 -0.650000 0.000000 33.899605 -0.025849 0.174554 -1.569172
  1 5.685105 0.833237 -32.227173 -0.174512 -0.026131 1.569196
  2 -2.276935 0.000003 -1.238189 -1.570795 -1.570451 0.000000
  3 1.796209 0.712025 0.000756 -0.242069 -0.263392 -0.232437
  4 4.119684 -0.002996 0.000782 -0.242370 0.106822 0.319870
  5 4.118761 -0.003176 0.000803 -0.249876 0.147038 0.012147
  6 4.118786 -0.003178 0.000789 -0.244717 0.116306 0.028649
  7 4.118039 -0.003480 -0.000295 0.083794 -0.088193 -0.167560
  8 4.443598 0.000000 0.000000 0.946737 0.379891 -0.125169
  9 9.024062 -0.000000 0.000000 0.000000 0.000000 0.000000
 10 0.152619 0.147992 1.719931 1.867480 -1.217633 1.450840
 11 6.384777 -0.000001 -0.000001 -1.067313 0.762333 -0.595720
 12 10.242684 0.000001 -0.000000 -0.000000 0.000000 -2.214144
 13 11.375564 -0.000001 0.000001 -2.825850 0.464890 0.688809
 14 0.728680 0.023429 -1.008290 2.396606 0.246960 1.180207
 15 2.136495 -0.000000 0.000001 -0.000000 -0.000000 -0.078540
 16 2.313140 0.000001 0.000000 0.000000 0.000000 0.000000
 17 3.115506 -0.886040 -0.021432 -0.166499 0.000392 0.514872
 18 2.011151 0.000001 -0.000002 -0.000000 0.000000 1.322792
 19 2.141377 0.000001 -0.000001 0.000000 0.000000 0.000000
 20 1.734172 0.000001 -0.000001 -0.000000 0.000000 0.660693
 21 0.000005 -4.440593 -0.000002 1.570544 -0.062990 -0.195737
 22 5.999999 0.000001 -0.000001 -2.584959 0.000000 0.000000
 23 -0.000001 -4.440601 0.000002 1.569944 -0.062987 0.004053
 24 11.375563 -0.000000 0.000003 -2.225224 0.115917 0.425296
 25 -0.000002 -4.440604 0.000000 1.570144 -0.062988 0.004040
 26 10.510131 0.000000 -0.000000 0.000000 -0.000000 -2.677869
 27 -0.000000 -1.748400 4.999998 0.000000 0.004007 1.602291
 28 5.500002 0.000001 -0.000000 0.347648 -0.000000 -0.000000
 29 -0.000000 -1.940599 5.000000 -0.044472 0.004003 -0.000180
 30 6.551491 -0.000000 -0.000000 -0.696828 0.594541 -0.269410
 31 0.000001 -1.940599 5.000002 -0.027189 -0.053376 0.005295
 32 6.551491 -0.000000 -0.000000 -0.282323 0.292994 -0.062905
 33 -0.000001 -1.940599 4.999998 -0.066572 -0.152786 -0.110311
 34 -0.152615 -0.140915 -1.719931 -0.903879 1.204148 2.401367
 35 6.384777 0.000001 0.000003 -0.422896 -1.004776 -0.306786
 36 10.242687 0.000000 -0.000000 -0.000000 -0.000000 -1.730302
 37 11.375562 -0.000001 -0.000000 1.727318 0.286511 -0.694601
 38 0.728680 0.023431 1.008293 -1.579583 -0.319038 0.212973
 39 2.136493 0.000002 0.000001 -0.000000 0.000000 1.282817
 40 2.313139 0.000000 -0.000000 0.000000 0.000000 3.141593
 41 3.115506 -0.886041 0.021432 0.708959 0.171755 0.347804
 42 2.011151 0.000000 0.000002 -0.000000 0.000000 2.082010
 43 2.141379 0.000000 0.000002 0.000000 0.000000 3.141593
 44 1.734173 -0.000000 0.000003 -0.000000 0.000000 1.041748
 45 0.136315 -3.738194 2.525888 1.493698 2.759406 -1.474501
 46 5.613160 0.862367 3.157033 1.595152 -0.135386 0.061522
 47 11.389368 -0.000818 0.158782 1.670594 0.132845 -0.352777
 48 0.000001 -4.440599 -0.000001 1.570144 -3.078602 0.004040
 49 6.000000 -0.000000 -0.000001 1.670594 -0.000000 0.000000
 50 0.000001 -4.440600 -0.000002 1.569944 -3.078603 0.004053
 51 10.510135 0.000000 0.000000 0.000000 -0.000000 -2.435947
 52 -0.000001 -1.748400 -5.000000 -3.141593 0.004007 -1.539299
 53 5.500000 0.000001 -0.000001 0.154148 0.000000 0.000000
 54 0.000001 0.000000 -5.000000 -0.044472 3.137589 -0.000177
 55 6.551491 0.000001 0.000003 -0.154148 -0.314641 -0.144394
 56 -1.266843 -1.937444 -4.950557 -0.066572 -2.988806 -0.110308
 57 6.551491 0.000000 0.000003 -0.154148 -0.314641 -0.144394
 58 0.699370 -1.944208 -5.006846 -0.027189 -3.088217 0.005298
 59 4.226147 -0.003201 0.000000 0.056161 -0.064518 -0.128890
 60 -0.000000 5.000001 0.000000 -0.153564 0.000087 2.718702
 61 0.000004 -0.000004 -3.713580 0.365818 2.880119 -0.191589
 62 0.000003 -0.000000 5.000000 3.053196 1.558589 -0.074928
 63 -0.000007 0.000006 3.713580 -0.001619 -3.122277 -0.475127
 64 0.000001 -0.000000 -5.000000 -0.088725 1.558589 3.066336
 65 7.363602 1.646647 0.495663 3.141593 -1.570796 0.000000
 66 -0.000005 0.000007 3.619081 0.008255 -3.110080 -0.985231
 67 16.573919 0.000003 0.000000 0.000000 0.000000 -1.065827
 68 15.128181 0.000001 -0.000000 -0.102296 0.010178 0.114297
 69 5.758665 4.244730 -0.000000 0.000000 -0.000000 1.667687
 70 3.177726 0.000000 0.000000 0.000000 0.000000 3.141593
 71 15.708952 0.000001 0.000000 -0.051525 0.003996 0.061523
 72 0.275148 0.189215 -3.445208 3.130898 0.000409 -1.514604
 73 17.210192 0.000002 0.000000 0.000000 0.000000 -1.893339
 74 0.000001 -0.000000 -4.999999 -0.079430 1.546568 -1.570855
 75 0.000002 -0.000003 -3.619081 0.577895 2.675801 -0.242118
 76 16.573923 -0.000001 -0.000001 0.000000 -0.000000 -1.163030
 77 15.128182 -0.000001 0.000002 0.089479 0.309197 0.659208
 78 5.758665 4.244731 -0.000000 -0.000000 0.000000 1.815142
 79 4.003934 -0.000000 -0.000000 0.000000 0.000000 0.000000
 80 15.708954 -0.000000 0.000002 0.042277 0.226871 0.443133
 81 0.273998 0.191090 3.439763 -3.130907 -0.000437 -1.508107
 82 17.210196 -0.000001 -0.000001 0.000000 -0.000000 -1.937080
 83 0.000001 -0.000001 5.000000 -0.079314 1.595025 -1.570739
time 5
  0 -0.650000 0.000000 33.899605 -0.025849 0.174554 -1.569172
  1 5.685105 0.833237 -32.227173 -0.174512 -0.026131 1.569196
  2 -2.276935 0.000003 -1.238189 -1.570795 -1.570451 0.000000
  3 1.796213 0.712025 0.000760 -0.243462 -0.264330 -0.231232
  4 4.119687 -0.002995 0.000786 -0.243587 0.107509 0.319839
  5 4.118759 -0.003175 0.000807 -0.251186 0.147498 0.012011
  6 4.118785 -0.003177 0.000794 -0.246013 0.116627 0.028597
  7 4.118044 -0.003481 -0.000295 0.083794 -0.088194 -0.167560
  8 4.443598 -0.000000 0.000000 0.952453 0.380751 -0.123358
  9 9.024063 -0.000000 0.000000 0.000000 0.000000 0.000000
 10 0.152618 0.147992 1.719931 1.867479 -1.217633 1.450840
 11 6.384778 -0.000001 -0.000001 -1.065037 0.765504 -0.590233
 12 10.242682 -0.000001 -0.000001 0.000000 -0.000000 -2.220079
 13 11.375563 -0.000000 -0.000001 -2.826667 0.462394 0.694216
 14 0.728680 0.023431 -1.008294 2.396606 0.246960 1.180207
 15 2.136493 0.000001 -0.000001 -0.000000 0.000000 -0.078540
 16 2.313139 -0.000001 -0.000000 0.000000 0.000000 0.000000
 17 3.115506 -0.886042 -0.021430 -0.166499 0.000392 0.514872
 18 2.011148 -0.000000 0.000003 -0.000000 0.000000 1.322791
 19 2.141379 -0.000001 -0.000002 0.000000 0.000000 0.000000
 20 1.734171 -0.000000 0.000002 0.000000 0.000000 0.660693
 21 0.000005 -4.440594 -0.000002 1.570544 -0.062990 -0.195737
 22 6.000001 0.000000 -0.000000 -2.586088 0.000000 0.000000
 23 0.000003 -4.440602 -0.000000 1.569944 -0.062987 0.004053
 24 11.375565 -0.000001 0.000004 -2.225922 0.113726 0.427402
 25 -0.000001 -4.440604 0.000002 1.570144 -0.062988 0.004040
 26 10.510130 -0.000001 -0.000002 0.000000 -0.000000 -2.680836
 27 0.000003 -1.748401 5.000000 0.000000 0.004007 1.602291
 28 5.499998 -0.000001 -0.000000 0.346866 -0.000000 0.000000
 29 0.000000 -1.940599 5.000000 -0.044472 0.004003 -0.000180
 30 6.551492 -0.000001 -0.000001 -0.695190 0.596951 -0.265469
 31 -0.000000 -1.940599 5.000001 -0.027189 -0.053376 0.005295
 32 6.551492 -0.000001 -0.000001 -0.281722 0.293705 -0.061050
 33 -0.000001 -1.940600 5.000000 -0.066572 -0.152786 -0.110311
 34 -0.152616 -0.140915 -1.719931 -0.911512 1.204712 2.393372
 35 6.384777 0.000000 -0.000001 -0.429396 -1.003807 -0.301440
 36 10.242683 0.000000 0.000001 0.000000 -0.000000 -1.733914
 37 11.375562 0.000002 -0.000001 1.730442 0.286088 -0.693316
 38 0.728680 0.023431 1.008292 -1.579583 -0.319038 0.212973
 39 2.136498 0.000000 -0.000000 -0.000000 0.000000 1.282817
 40 2.313140 0.000002 0.000000 0.000000 0.000000 3.141593
 41 3.115507 -0.886041 0.021432 0.708959 0.171755 0.347804
 42 2.011150 -0.000001 0.000002 -0.000000 0.000000 2.082010
 43 2.141380 -0.000000 0.000000 0.000000 0.000000 3.141593
 44 1.734172 -0.000002 0.000002 -0.000000 0.000000 1.041748
 45 0.136314 -3.738192 2.525891 1.493698 2.759406 -1.474501
 46 5.613158 0.862366 3.157029 1.595152 -0.135386 0.061522
 47 11.389367 -0.000819 0.158781 1.672071 0.132366 -0.352333
 48 -0.000000 -4.440599 0.000001 1.570144 -3.078602 0.004040
 49 6.000000 -0.000001 -0.000001 1.672071 -0.000000 0.000000
 50 0.000002 -4.440601 0.000001 1.569944 -3.078603 0.004053
 51 10.510133 0.000000 0.000002 0.000000 0.000000 -2.437753
 52 0.000000 -1.748401 -5.000002 -3.141593 0.004007 -1.539299
 53 5.500002 0.000000 0.000001 0.155169 0.000000 0.000000
 54 -0.000000 0.000000 -5.000000 -0.044472 3.137589 -0.000177
 55 6.551491 0.000000 0.000001 -0.155169 -0.314549 -0.143618
 56 -1.266843 -1.937444 -4.950561 -0.066572 -2.988806 -0.110308
 57 6.551492 0.000000 0.000001 -0.155169 -0.314549 -0.143618
 58 0.699370 -1.944209 -5.006847 -0.027189 -3.088217 0.005298
 59 4.226148 -0.003201 -0.000000 0.056161 -0.064518 -0.128890
 60 0.000001 5.000001 0.000000 -0.153564 0.000087 2.718702
 61 0.000004 -0.000004 -3.713580 0.365818 2.880119 -0.191589
 62 0.000003 -0.000000 5.000000 3.053196 1.558589 -0.074928
 63 -0.000007 0.000006 3.713580 -0.001619 -3.122277 -0.475127
 64 0.000001 -0.000000 -5.000000 -0.088725 1.558589 3.066336
 65 7.363602 1.646647 0.495663 3.141593 -1.570796 0.000000
 66 -0.000005 0.000007 3.619081 0.008255 -3.110080 -0.985231
 67 16.573919 0.000003 0.000000 0.000000 0.000000 -1.065827
 68 15.128181 0.000001 -0.000000 -0.102296 0.010178 0.114297
 69 5.758665 4.244730 -0.000000 0.000000 -0.000000 1.667687
 70 3.177726 0.000000 0.000000 0.000000 0.000000 3.141593
 71 15.708952 0.000001 0.000000 -0.051525 0.003996 0.061523
 72 0.275148 0.189215 -3.445208 3.130898 0.000409 -1.514604
 73 17.210192 0.000002 0.000000 0.000000 0.000000 -1.893339
 74 0.000001 -0.000000 -4.999999 -0.079430 1.546568 -1.570855
 75 0.000002 -0.000003 -3.619081 0.577895 2.675801 -0.242118
 76 16.573923 -0.000001 -0.000001 0.000000 -0.000000 -1.163030
 77 15.128182 -0.000001 0.000002 0.089479 0.309197 0.659208
 78 5.758665 4.244731 -0.000000 -0.000000 0.000000 1.815142
 79 4.003934 -0.000000 -0.000000 0.000000 0.000000 0.000000
 80 15.708954 -0.000000 0.000002 0.042277 0.226871 0.443133
 81 0.273998 0.191090 3.439763 -3.130907 -0.000437 -1.508107
 82 17.210196 -0.000001 -0.000001 0.000000 -0.000000 -1.937080
 83 0.000001 -0.000001 5.000000 -0.079314 1.595025 -1.570739
time 6
  0 -0.650000 0.000000 33.899605 -0.025849 0.174554 -1.569172
  1 5.685105 0.833237 -32.227173 -0.174512 -0.026131 1.569196
  2 -2.276935 0.000003 -1.238189 -1.570795 -1.570451 0.000000
  3 1.796210 0.712028 0.000769 -0.246136 -0.264853 -0.230656
  4 4.119686 -0.002993 0.000794 -0.246133 0.108308 0.319552
  5 4.118762 -0.003173 0.000815 -0.253879 0.147468 0.011609
  6 4.118789 -0.003175 0.000802 -0.248695 0.116664 0.028273
  7 4.118042 -0.003480 -0.000295 0.083794 -0.088194 -0.167560
  8 4.443600 -0.000000 -0.000000 0.963667 0.381843 -0.118532
  9 9.024062 0.000000 0.000000 0.000000 0.000000 0.000000
 10 0.152623 0.147991 1.719931 1.867479 -1.217633 1.450840
 11 6.384778 -0.000000 -0.000003 -1.058532 0.777696 -0.574696
 12 10.242679 -0.000001 0.000001 0.000000 0.000000 -2.232622
 13 11.375559 -0.000000 0.000001 -2.828424 0.459533 0.697631
 14 0.728681 0.023433 -1.008293 2.396606 0.246960 1.180207
 15 2.136495 -0.000000 0.000000 -0.000000 0.000000 -0.078540
 16 2.313139 0.000000 0.000001 0.000000 0.000000 0.000000
 17 3.115506 -0.886040 -0.021431 -0.166499 0.000392 0.514872
 18 2.011152 0.000000 -0.000000 -0.000000 0.000000 1.322792
 19 2.141377 0.000000 0.000000 0.000000 0.000000 0.000000
 20 1.734172 0.000000 0.000002 0.000000 -0.000000 0.660693
 21 0.000005 -4.440594 -0.000002 1.570544 -0.062990 -0.195737
 22 6.000001 -0.000000 0.000001 -2.587760 0.000000 0.000000
 23 0.000000 -4.440603 0.000000 1.569944 -0.062987 0.004053
 24 11.375562 -0.000000 0.000004 -2.226908 0.111585 0.428651
 25 -0.000000 -4.440603 0.000001 1.570144 -0.062988 0.004040
 26 10.510128 -0.000001 -0.000000 -0.000000 0.000000 -2.687107
 27 0.000000 -1.748401 4.999998 0.000000 0.004007 1.602291
 28 5.499999 0.000000 -0.000000 0.344085 0.000000 -0.000000
 29 -0.000000 -1.940598 5.000001 -0.044472 0.004003 -0.000180
 30 6.551492 0.000000 -0.000002 -0.689674 0.605728 -0.252924
 31 -0.000001 -1.940599 5.000002 -0.027189 -0.053376 0.005295
 32 6.551492 0.000000 -0.000002 -0.279550 0.296423 -0.055041
 33 -0.000001 -1.940599 4.999998 -0.066572 -0.152786 -0.110311
 34 -0.152615 -0.140915 -1.719931 -0.910420 1.204633 2.394515
 35 6.384777 0.000000 -0.000001 -0.439738 -0.999404 -0.298405
 36 10.242681 0.000001 -0.000000 0.000000 0.000000 -1.735085
 37 11.375561 0.000000 -0.000000 1.734546 0.285765 -0.692806
 38 0.728682 0.023431 1.008293 -1.579583 -0.319038 0.212973
 39 2.136498 -0.000001 -0.000000 -0.000000 0.000000 1.282817
 40 2.313139 0.000001 -0.000000 0.000000 0.000000 3.141593
 41 3.115507 -0.886041 0.021432 0.708959 0.171755 0.347804
 42 2.011150 0.000000 -0.000001 -0.000000 0.000000 2.082010
 43 2.141379 0.000001 -0.000001 0.000000 0.000000 3.141593
 44 1.734173 -0.000000 0.000001 -0.000000 0.000000 1.041748
 45 0.136316 -3.738194 2.525891 1.493698 2.759406 -1.474501
 46 5.613162 0.862367 3.157033 1.595152 -0.135386 0.061522
 47 11.389368 -0.000821 0.158780 1.674078 0.131809 -0.352253
 48 0.000000 -4.440600 0.000002 1.570144 -3.078602 0.004040
 49 6.000000 -0.000000 -0.000001 1.674078 -0.000000 0.000000
 50 0.000002 -4.440601 -0.000002 1.569944 -3.078603 0.004053
 51 10.510131 0.000001 0.000001 0.000000 0.000000 -2.438339
 52 0.000001 -1.748399 -5.000000 -3.141593 0.004007 -1.539299
 53 5.499998 0.000001 -0.000000 0.156815 -0.000000 0.000000
 54 0.000000 0.000000 -5.000000 -0.044472 3.137589 -0.000177
 55 6.551492 -0.000000 0.000001 -0.156815 -0.313501 -0.143383
 56 -1.266845 -1.937443 -4.950562 -0.066572 -2.988806 -0.110308
 57 6.551492 0.000000 0.000001 -0.156815 -0.313501 -0.143383
 58 0.699371 -1.944208 -5.006848 -0.027189 -3.088217 0.005298
 59 4.226149 -0.003201 0.000000 0.056161 -0.064518 -0.128890
 60 0.000001 5.000001 -0.000001 -0.153564 0.000087 2.718702
 61 0.000004 -0.000004 -3.713580 0.365818 2.880119 -0.191589
 62 0.000003 -0.000000 5.000000 3.053196 1.558589 -0.074928
 63 -0.000007 0.000006 3.713580 -0.001619 -3.122277 -0.475127
 64 0.000001 -0.000000 -5.000000 -0.088725 1.558589 3.066336
 65 7.363602 1.646647 0.495663 3.141593 -1.570796 0.000000
 66 -0.000005 0.000007 3.619081 0.008255 -3.110080 -0.985231
 67 16.573919 0.000003 0.000000 0.000000 0.000000 -1.065827
 68 15.128181 0.000001 -0.000000 -0.102296 0.010178 0.114297
 69 5.758665 4.244730 -0.000000 0.000000 -0.000000 1.667687
 70 3.177726 0.000000 0.000000 0.000000 0.000000 3.141593
 71 15.708952 0.000001 0.000000 -0.051525 0.003996 0.061523
 72 0.275148 0.189215 -3.445208 3.130898 0.000409 -1.514604
 73 17.210192 0.000002 0.000000 0.000000 0.000000 -1.893339
 74 0.000001 -0.000000 -4.999999 -0.079430 1.546568 -1.570855
 75 0.000002 -0.000003 -3.619081 0.577895 2.675801 -0.242118
 76 16.573923 -0.000001 -0.000001 0.000000 -0.000000 -1.163030
 77 15.128182 -0.000001 0.000002 0.089479 0.309197 0.659208
 78 5.758665 4.244731 -0.000000 -0.000000 0.000000 1.815142
 79 4.003934 -0.000000 -0.000000 0.000000 0.000000 0.000000
 80 15.708954 -0.000000 0.000002 0.042277 0.226871 0.443133
 81 0.273998 0.191090 3.439763 -3.130907 -0.000437 -1.508107
 82 17.210196 -0.000001 -0.000001 0.000000 -0.000000 -1.937080
 83 0.000001 -0.000001 5.000000 -0.079314 1.595025 -1.570739
time 7
  0 -0.650000 0.000000 33.899605 -0.025849 0.174554 -1.569172
  1 5.685105 0.833237 -32.227173 -0.174512 -0.026131 1.569196
  2 -2.276935 0.000003 -1.238189 -1.570795 -1.570451 0.000000
  3 1.796207 0.712031 0.000779 -0.249609 -0.265115 -0.230473
  4 4.119687 -0.002990 0.000804 -0.249512 0.109176 0.319103
  5 4.118759 -0.003170 0.000827 -0.257437 0.147130 0.011043
  6 4.118788 -0.003172 0.000813 -0.252245 0.116522 0.027777
  7 4.118039 -0.003481 -0.000295 0.083794 -0.088194 -0.167560
  8 4.443598 -0.000000 -0.000000 0.978329 0.383013 -0.111821
  9 9.024063 0.000000 0.000000 0.000000 0.000000 0.000000
 10 0.152618 0.147992 1.719931 1.867480 -1.217633 1.450840
 11 6.384777 0.000001 0.000003 -1.048901 0.795632 -0.552425
 12 10.242683 0.000001 -0.000000 0.000000 0.000000 -2.249170
 13 11.375562 -0.000001 -0.000001 -2.830725 0.456425 0.699507
 14 0.728681 0.023431 -1.008292 2.396606 0.246960 1.180207
 15 2.136497 -0.000002 0.000003 -0.000000 -0.000000 -0.078540
 16 2.313136 0.000001 -0.000002 0.000000 0.000000 0.000000
 17 3.115507 -0.886041 -0.021431 -0.166499 0.000392 0.514872
 18 2.011152 0.000001 -0.000003 0.000000 -0.000000 1.322791
 19 2.141377 0.000001 0.000002 0.000000 0.000000 0.000000
 20 1.734171 -0.000001 0.000000 -0.000000 -0.000000 0.660693
 21 0.000005 -4.440594 -0.000001 1.570544 -0.062990 -0.195737
 22 5.999998 -0.000000 -0.000001 -2.589704 -0.000000 -0.000000
 23 -0.000001 -4.440600 -0.000000 1.569944 -0.062987 0.004053
 24 11.375561 -0.000001 0.000002 -2.228032 0.109516 0.429229
 25 -0.000003 -4.440604 0.000002 1.570144 -0.062988 0.004040
 26 10.510131 0.000002 -0.000001 -0.000000 0.000000 -2.695382
 27 -0.000001 -1.748401 5.000000 -0.000000 0.004007 1.602290
 28 5.500000 0.000001 -0.000001 0.339839 -0.000000 -0.000000
 29 0.000000 -1.940599 5.000001 -0.044472 0.004003 -0.000180
 30 6.551491 0.000000 0.000001 -0.681134 0.618325 -0.234624
 31 0.000001 -1.940599 5.000001 -0.027189 -0.053376 0.005295
 32 6.551491 0.000000 0.000001 -0.276230 0.300309 -0.046385
 33 -0.000001 -1.940599 4.999998 -0.066572 -0.152786 -0.110311
 34 -0.152616 -0.140915 -1.719931 -0.903879 1.204148 2.401367
 35 6.384777 -0.000001 0.000000 -0.452319 -0.992755 -0.296923
 36 10.242680 0.000001 0.000001 -0.000000 -0.000000 -1.734774
 37 11.375563 -0.000001 0.000001 1.739333 0.285486 -0.692792
 38 0.728682 0.023431 1.008293 -1.579583 -0.319038 0.212973
 39 2.136497 0.000000 -0.000000 -0.000000 0.000000 1.282817
 40 2.313139 -0.000001 0.000000 0.000000 0.000000 3.141593
 41 3.115508 -0.886041 0.021432 0.708959 0.171755 0.347804
 42 2.011152 0.000001 0.000001 -0.000000 -0.000000 2.082010
 43 2.141379 -0.000001 -0.000001 0.000000 0.000000 3.141593
 44 1.734172 -0.000002 -0.000001 -0.000000 -0.000000 1.041748
 45 0.136313 -3.738193 2.525890 1.493698 2.759406 -1.474501
 46 5.613160 0.862366 3.157031 1.595152 -0.135386 0.061522
 47 11.389368 -0.000821 0.158782 1.676453 0.131185 -0.352410
 48 0.000000 -4.440600 -0.000001 1.570144 -3.078602 0.004040
 49 6.000000 -0.000002 -0.000000 1.676453 0.000000 0.000000
 50 0.000002 -4.440602 -0.000001 1.569944 -3.078603 0.004053
 51 10.510129 0.000000 0.000002 -0.000000 -0.000000 -2.438183
 52 0.000000 -1.748402 -5.000001 -3.141593 0.004007 -1.539299
 53 5.499998 0.000000 0.000001 0.158840 0.000000 -0.000000
 54 -0.000002 0.000000 -4.999999 -0.044472 3.137589 -0.000177
 55 6.551491 -0.000001 -0.000001 -0.158840 -0.311816 -0.143494
 56 -1.266843 -1.937443 -4.950560 -0.066572 -2.988806 -0.110308
 57 6.551491 -0.000000 -0.000001 -0.158840 -0.311816 -0.143494
 58 0.699371 -1.944209 -5.006847 -0.027189 -3.088217 0.005298
 59 4.226145 -0.003202 -0.000000 0.056161 -0.064519 -0.128890
 60 -0.000001 5.000000 -0.000001 -0.153564 0.000087 2.718702
 61 0.000004 -0.000004 -3.713580 0.365818 2.880119 -0.191589
 62 0.000003 -0.000000 5.000000 3.053196 1.558589 -0.074928
 63 -0.000007 0.000006 3.713580 -0.001619 -3.122277 -0.475127
 64 0.000001 -0.000000 -5.000000 -0.088725 1.558589 3.066336
 65 7.363602 1.646647 0.495663 3.141593 -1.570796 0.000000
 66 -0.000005 0.000007 3.619081 0.008255 -3.110080 -0.985231
 67 16.573919 0.000003 0.000000 0.000000 0.000000 -1.065827
 68 15.128181 0.000001 -0.000000 -0.102296 0.010178 0.114297
 69 5.758665 4.244730 -0.000000 0.000000 -0.000000 1.667687
 70 3.177726 0.000000 0.000000 0.000000 0.000000 3.141593
 71 15.708952 0.000001 0.000000 -0.051525 0.003996 0.061523
 72 0.275148 0.189215 -3.445208 3.130898 0.000409 -1.514604
 73 17.210192 0.000002 0.000000 0.000000 0.000000 -1.893339
 74 0.000001 -0.000000 -4.999999 -0.079430 1.546568 -1.570855
 75 0.000002 -0.000003 -3.619081 0.577895 2.675801 -0.242118
 76 16.573923 -0.000001 -0.000001 0.000000 -0.000000 -1.163030
 77 15.128182 -0.000001 0.000002 0.089479 0.309197 0.659208
 78 5.758665 4.244731 -0.000000 -0.000000 0.000000 1.815142
 79 4.003934 -0.000000 -0.000000 0.000000 0.000000 0.000000
 80 15.708954 -0.000000 0.000002 0.042277 0.226871 0.443133
 81 0.273998 0.191090 3.439763 -3.130907 -0.000437 -1.508107
 82 17.210196 -0.000001 -0.000001 0.000000 -0.000000 -1.937080
 83 0.000001 -0.000001 5.000000 -0.079314 1.595025 -1.570739
time 8
  0 -0.650000 0.000000 33.899605 -0.025849 0.174554 -1.569172
  1 5.685105 0.833237 -32.227173 -0.174512 -0.026131 1.569196
  2 -2.276935 0.000003 -1.238189 -1.570795 -1.570451 0.000000
  3 1.796208 0.712034 0.000791 -0.253401 -0.265274 -0.230448
  4 4.119682 -0.002988 0.000817 -0.253223 0.110070 0.318586
  5 4.118758 -0.003167 0.000839 -0.261340 0.146667 0.010412
  6 4.118788 -0.003169 0.000825 -0.256140 0.116308 0.027214
  7 4.118038 -0.003480 -0.000295 0.083794 -0.088194 -0.167560
  8 4.443601 0.000000 -0.000000 0.994385 0.384133 -0.104358
  9 9.024063 0.000001 0.000000 0.000000 0.000000 0.000000
 10 0.152619 0.147992 1.719931 1.867479 -1.217633 1.450840
 11 6.384778 0.000000 -0.000000 -1.037380 0.815987 -0.526851
 12 10.242680 0.000000 -0.000000 0.000000 0.000000 -2.267168
 13 11.375561 -0.000000 -0.000001 -2.833194 0.453199 0.700405
 14 0.728681 0.023431 -1.008292 2.396606 0.246960 1.180207
 15 2.136497 -0.000001 0.000001 0.000000 -0.000000 -0.078540
 16 2.313138 -0.000000 -0.000000 0.000000 0.000000 0.000000
 17 3.115505 -0.886042 -0.021429 -0.166499 0.000392 0.514872
 18 2.011150 0.000001 -0.000001 0.000000 0.000000 1.322791
 19 2.141378 0.000000 -0.000002 0.000000 0.000000 0.000000
 20 1.734171 0.000001 -0.000000 0.000000 0.000000 0.660693
 21 0.000006 -4.440594 -0.000001 1.570544 -0.062990 -0.195737
 22 6.000000 -0.000000 -0.000000 -2.591676 0.000000 -0.000000
 23 0.000001 -4.440601 0.000000 1.569944 -0.062987 0.004053
 24 11.375564 -0.000001 0.000003 -2.229160 0.107527 0.429372
 25 0.000002 -4.440604 -0.000003 1.570144 -0.062988 0.004040
 26 10.510127 -0.000000 0.000000 0.000000 0.000000 -2.704380
 27 -0.000002 -1.748401 5.000000 -0.000000 0.004007 1.602291
 28 5.499998 0.000001 -0.000001 0.334747 0.000000 0.000000
 29 -0.000003 -1.940599 5.000000 -0.044472 0.004003 -0.000180
 30 6.551491 0.000000 -0.000000 -0.670648 0.632218 -0.213573
 31 -0.000000 -1.940599 5.000000 -0.027189 -0.053376 0.005295
 32 6.551491 0.000000 -0.000000 -0.272253 0.304547 -0.036622
 33 -0.000000 -1.940600 4.999998 -0.066572 -0.152786 -0.110311
 34 -0.152615 -0.140915 -1.719931 -0.895181 1.203477 2.410475
 35 6.384776 0.000000 -0.000002 -0.465634 -0.985090 -0.296165
 36 10.242682 0.000000 0.000001 -0.000000 0.000000 -1.733920
 37 11.375562 0.000000 0.000001 1.744476 0.285204 -0.692999
 38 0.728679 0.023431 1.008291 -1.579583 -0.319038 0.212973
 39 2.136498 -0.000002 -0.000001 -0.000000 -0.000000 1.282817
 40 2.313140 0.000001 0.000000 0.000000 0.000000 3.141593
 41 3.115508 -0.886041 0.021432 0.708959 0.171755 0.347804
 42 2.011151 -0.000001 -0.000001 -0.000000 0.000000 2.082010
 43 2.141380 0.000001 -0.000003 0.000000 0.000000 3.141593
 44 1.734172 -0.000002 -0.000002 0.000000 0.000000 1.041748
 45 0.136316 -3.738194 2.525892 1.493698 2.759406 -1.474501
 46 5.613160 0.862366 3.157031 1.595152 -0.135386 0.061522
 47 11.389367 -0.000820 0.158781 1.679016 0.130512 -0.352674
 48 0.000000 -4.440600 -0.000002 1.570144 -3.078602 0.004040
 49 6.000000 -0.000001 -0.000000 1.679016 0.000000 -0.000000
 50 0.000002 -4.440601 -0.000002 1.569944 -3.078603 0.004053
 51 10.510134 -0.000000 0.000002 0.000000 0.000000 -2.437757
 52 0.000000 -1.748402 -5.000000 3.141593 0.004007 -1.539299
 53 5.500001 0.000000 0.000000 0.161009 -0.000000 -0.000000
 54 0.000001 0.000001 -5.000000 -0.044472 3.137589 -0.000177
 55 6.551490 -0.000000 -0.000001 -0.161009 -0.309826 -0.143754
 56 -1.266843 -1.937443 -4.950560 -0.066572 -2.988806 -0.110308
 57 6.551491 -0.000000 -0.000001 -0.161009 -0.309826 -0.143754
 58 0.699370 -1.944209 -5.006847 -0.027189 -3.088217 0.005298
 59 4.226146 -0.003201 0.000000 0.056161 -0.064519 -0.128890
 60 0.000003 5.000001 0.000000 -0.153564 0.000087 2.718702
 61 0.000004 -0.000004 -3.713580 0.365818 2.880119 -0.191589
 62 0.000003 -0.000000 5.000000 3.053196 1.558589 -0.074928
 63 -0.000007 0.000006 3.713580 -0.001619 -3.122277 -0.475127
 64 0.000001 -0.000000 -5.000000 -0.088725 1.558589 3.066336
 65 7.363602 1.646647 0.495663 3.141593 -1.570796 0.000000
 66 -0.000005 0.000007 3.619081 0.008255 -3.110080 -0.985231
 67 16.573919 0.000003 0.000000 0.000000 0.000000 -1.065827
 68 15.128181 0.000001 -0.000000 -0.102296 0.010178 0.114297
 69 5.758665 4.244730 -0.000000 0.000000 -0.000000 1.667687
 70 3.177726 0.000000 0.000000 0.000000 0.000000 3.141593
 71 15.708952 0.000001 0.000000 -0.051525 0.003996 0.061523
 72 0.275148 0.189215 -3.445208 3.130898 0.000409 -1.514604
 73 17.210192 0.000002 0.000000 0.000000 0.000000 -1.893339
 74 0.000001 -0.000000 -4.999999 -0.079430 1.546568 -1.570855
 75 0.000002 -0.000003 -3.619081 0.577895 2.675801 -0.242118
 76 16.573923 -0.000001 -0.000001 0.000000 -0.000000 -1.163030
 77 15.128182 -0.000001 0.000002 0.089479 0.309197 0.659208
 78 5.758665 4.244731 -0.000000 -0.000000 0.000000 1.815142
 79 4.003934 -0.000000 -0.000000 0.000000 0.000000 0.000000
 80 15.708954 -0.000000 0.000002 0.042277 0.226871 0.443133
 81 0.273998 0.191090 3.439763 -3.130907 -0.000437 -1.508107
 82 17.210196 -0.000001 -0.000001 0.000000 -0.000000 -1.937080
 83 0.000001 -0.000001 5.000000 -0.079314 1.595025 -1.570739
time 9
  0 -0.650000 0.000000 33.899605 -0.025849 0.174554 -1.569172
  1 5.685105 0.833237 -32.227173 -0.174512 -0.026131 1.569196
  2 -2.276935 0.000003 -1.238189 -1.570795 -1.570451 0.000000
  3 1.796205 0.712038 0.000802 -0.257034 -0.265484 -0.230342
  4 4.119683 -0.002985 0.000828 -0.256770 0.110949 0.318099
  5 4.118758 -0.003164 0.000851 -0.265069 0.146263 0.009816
  6 4.118783 -0.003166 0.000837 -0.259863 0.116127 0.026686
  7 4.118041 -0.003480 -0.000295 0.083794 -0.088194 -0.167560
  8 4.443599 -0.000000 -0.000000 1.009771 0.385130 -0.097268
  9 9.024064 0.000001 0.000000 0.000000 0.000000 0.000000
 10 0.152621 0.147992 1.719931 1.867480 -1.217633 1.450840
 11 6.384777 0.000000 -0.000001 -1.025610 0.835355 -0.501803
 12 10.242682 -0.000001 -0.000001 0.000000 -0.000000 -2.284160
 13 11.375565 -0.000001 -0.000000 -2.835486 0.449981 0.701128
 14 0.728681 0.023432 -1.008293 2.396606 0.246960 1.180207
 15 2.136493 0.000001 0.000001 -0.000000 -0.000000 -0.078540
 16 2.313140 0.000000 0.000001 0.000000 0.000000 0.000000
 17 3.115507 -0.886040 -0.021432 -0.166499 0.000392 0.514872
 18 2.011152 0.000000 0.000001 0.000000 0.000000 1.322792
 19 2.141380 -0.000000 0.000000 0.000000 0.000000 0.000000
 20 1.734174 0.000002 0.000001 -0.000000 0.000000 0.660693
 21 0.000008 -4.440594 -0.000001 1.570544 -0.062990 -0.195737
 22 6.000002 -0.000000 0.000000 -2.593484 -0.000000 -0.000000
 23 0.000003 -4.440601 0.000001 1.569944 -0.062987 0.004053
 24 11.375563 -0.000000 0.000003 -2.230191 0.105586 0.429422
 25 0.000000 -4.440604 0.000000 1.570144 -0.062988 0.004040
 26 10.510132 -0.000001 -0.000001 0.000000 0.000000 -2.712876
 27 -0.000000 -1.748401 4.999999 0.000000 0.004007 1.602291
 28 5.500002 0.000000 -0.000001 0.329617 -0.000000 -0.000000
 29 -0.000002 -1.940599 5.000001 -0.044472 0.004003 -0.000180
 30 6.551491 0.000000 -0.000000 -0.659815 0.645031 -0.193097
 31 0.000001 -1.940598 5.000001 -0.027189 -0.053376 0.005295
 32 6.551491 0.000000 -0.000000 -0.268253 0.308403 -0.027333
 33 -0.000001 -1.940599 4.999998 -0.066572 -0.152786 -0.110311
 34 -0.152616 -0.140915 -1.719931 -0.887594 1.202866 2.418416
 35 6.384777 -0.000000 -0.000000 -0.478226 -0.977699 -0.295291
 36 10.242685 0.000000 -0.000000 0.000000 -0.000000 -1.733406
 37 11.375562 -0.000004 -0.000001 1.749597 0.284881 -0.693151
 38 0.728680 0.023431 1.008292 -1.579583 -0.319038 0.212973
 39 2.136499 -0.000001 -0.000000 -0.000000 0.000000 1.282817
 40 2.313139 0.000002 -0.000000 0.000000 0.000000 3.141593
 41 3.115506 -0.886042 0.021431 0.708959 0.171755 0.347804
 42 2.011151 -0.000000 -0.000002 -0.000000 0.000000 2.082010
 43 2.141380 -0.000000 0.000002 0.000000 0.000000 3.141593
 44 1.734173 -0.000000 -0.000001 -0.000000 0.000000 1.041748
 45 0.136316 -3.738194 2.525889 1.493698 2.759406 -1.474501
 46 5.613161 0.862367 3.157032 1.595152 -0.135386 0.061522
 47 11.389367 -0.000820 0.158781 1.681564 0.129823 -0.352915
 48 0.000000 -4.440599 0.000001 1.570144 -3.078602 0.004040
 49 6.000000 0.000000 0.000000 1.681564 -0.000000 0.000000
 50 0.000002 -4.440602 0.000000 1.569944 -3.078603 0.004053
 51 10.510134 0.000000 -0.000000 0.000000 -0.000000 -2.437500
 52 -0.000001 -1.748400 -5.000000 -3.141593 0.004007 -1.539299
 53 5.500003 0.000000 -0.000000 0.163083 -0.000000 -0.000000
 54 -0.000002 0.000000 -5.000000 -0.044472 3.137589 -0.000177
 55 6.551491 -0.000001 0.000002 -0.163083 -0.307895 -0.143965
 56 -1.266843 -1.937443 -4.950559 -0.066572 -2.988806 -0.110308
 57 6.551492 -0.000000 0.000002 -0.163083 -0.307895 -0.143965
 58 0.699371 -1.944208 -5.006846 -0.027189 -3.088217 0.005298
 59 4.226148 -0.003201 -0.000000 0.056161 -0.064518 -0.128890
 60 -0.000003 5.000000 0.000000 -0.153564 0.000087 2.718702
 61 0.000004 -0.000004 -3.713580 0.365818 2.880119 -0.191589
 62 0.000003 -0.000000 5.000000 3.053196 1.558589 -0.074928
 63 -0.000007 0.000006 3.713580 -0.001619 -3.122277 -0.475127
 64 0.000001 -0.000000 -5.000000 -0.088725 1.558589 3.066336
 65 7.363602 1.646647 0.495663 3.141593 -1.570796 0.000000
 66 -0.000005 0.000007 3.619081 0.008255 -3.110080 -0.985231
 67 16.573919 0.000003 0.000000 0.000000 0.000000 -1.065827
 68 15.128181 0.000001 -0.000000 -0.102296 0.010178 0.114297
 69 5.758665 4.244730 -0.000000 0.000000 -0.000000 1.667687
 70 3.177726 0.000000 0.000000 0.000000 0.000000 3.141593
 71 15.708952 0.000001 0.000000 -0.051525 0.003996 0.061523
 72 0.275148 0.189215 -3.445208 3.130898 0.000409 -1.514604
 73 17.210192 0.000002 0.000000 0.000000 0.000000 -1.893339
 74 0.000001 -0.000000 -4.999999 -0.079430 1.546568 -1.570855
 75 0.000002 -0.000003 -3.619081 0.577895 2.675801 -0.242118
 76 16.573923 -0.000001 -0.000001 0.000000 -0.000000 -1.163030
 77 15.128182 -0.000001 0.000002 0.089479 0.309197 0.659208
 78 5.758665 4.244731 -0.000000 -0.000000 0.000000 1.815142
 79 4.003934 -0.000000 -0.000000 0.000000 0.000000 0.000000
 80 15.708954 -0.000000 0.000002 0.042277 0.226871 0.443133
 81 0.273998 0.191090 3.439763 -3.130907 -0.000437 -1.508107
 82 17.210196 -0.000001 -0.000001 0.000000 -0.000000 -1.937080
 83 0.000001 -0.000001 5.000000 -0.079314 1.595025 -1.570739
time 10
  0 -0.650000 0.000000 33.899605 -0.025849 0.174554 -1.569172
  1 5.685105 0.833237 -32.227173 -0.174512 -0.026131 1.569196
  2 -2.276935 0.000003 -1.238189 -1.570795 -1.570451 0.000000
  3 1.796206 0.712040 0.000811 -0.260029 -0.265899 -0.229920
  4 4.119680 -0.002982 0.000838 -0.259651 0.111771 0.317737
  5 4.118758 -0.003161 0.000859 -0.268108 0.146104 0.009352
  6 4.118781 -0.003163 0.000847 -0.262891 0.116088 0.026294
  7 4.118043 -0.003481 -0.000295 0.083794 -0.088194 -0.167560
  8 4.443599 -0.000000 0.000000 1.022412 0.385984 -0.091668
  9 9.024062 0.000001 -0.000000 0.000000 0.000000 0.000000
 10 0.152619 0.147992 1.719931 1.867480 -1.217633 1.450840
 11 6.384777 -0.000000 -0.000000 -1.015781 0.850244 -0.481655
 12 10.242681 0.000000 -0.000001 0.000000 0.000000 -2.297810
 13 11.375564 -0.000001 0.000002 -2.837297 0.446898 0.702769
 14 0.728679 0.023430 -1.008293 2.396606 0.246960 1.180207
 15 2.136494 0.000001 0.000001 -0.000000 -0.000000 -0.078540
 16 2.313141 -0.000000 0.000002 0.000000 0.000000 0.000000
 17 3.115506 -0.886041 -0.021434 -0.166499 0.000392 0.514872
 18 2.011149 -0.000000 0.000000 0.000000 0.000000 1.322791
 19 2.141380 -0.000001 -0.000000 0.000000 0.000000 0.000000
 20 1.734172 0.000002 -0.000002 -0.000000 -0.000000 0.660693
 21 0.000006 -4.440593 -0.000002 1.570544 -0.062990 -0.195737
 22 6.000000 -0.000000 0.000001 -2.594996 -0.000000 -0.000000
 23 -0.000001 -4.440600 0.000002 1.569944 -0.062987 0.004053
 24 11.375563 0.000000 0.000005 -2.231059 0.103610 0.429854
 25 0.000001 -4.440602 -0.000001 1.570144 -0.062988 0.004040
 26 10.510130 -0.000000 -0.000001 0.000000 -0.000000 -2.719701
 27 0.000001 -1.748401 5.000000 -0.000000 0.004007 1.602291
 28 5.499999 0.000000 -0.000001 0.325455 -0.000000 -0.000000
 29 -0.000001 -1.940599 5.000002 -0.044472 0.004003 -0.000180
 30 6.551491 -0.000000 -0.000002 -0.650818 0.654605 -0.176879
 31 0.000001 -1.940598 5.000001 -0.027189 -0.053376 0.005295
 32 6.551491 -0.000000 -0.000002 -0.265013 0.311240 -0.020128
 33 0.000001 -1.940599 4.999994 -0.066572 -0.152786 -0.110311
 34 -0.152614 -0.140915 -1.719931 -0.884350 1.202598 2.421811
 35 6.384777 0.000001 0.000002 -0.488684 -0.971934 -0.293452
 36 10.242683 -0.000001 0.000002 0.000000 0.000000 -1.734048
 37 11.375562 0.000000 -0.000001 1.754262 0.284498 -0.692969
 38 0.728681 0.023430 1.008292 -1.579583 -0.319038 0.212973
 39 2.136494 0.000002 0.000000 0.000000 0.000000 1.282817
 40 2.313138 0.000000 -0.000001 0.000000 0.000000 3.141593
 41 3.115507 -0.886041 0.021431 0.708959 0.171755 0.347804
 42 2.011151 0.000000 -0.000001 -0.000000 0.000000 2.082010
 43 2.141380 0.000000 -0.000002 0.000000 0.000000 3.141593
 44 1.734172 -0.000001 -0.000003 0.000000 0.000000 1.041748
 45 0.136314 -3.738193 2.525890 1.493698 2.759406 -1.474501
 46 5.613161 0.862366 3.157032 1.595152 -0.135386 0.061522
 47 11.389368 -0.000818 0.158780 1.683865 0.129162 -0.353000
 48 0.000000 -4.440599 0.000001 1.570144 -3.078602 0.004040
 49 6.000000 0.000000 -0.000001 1.683865 0.000000 -0.000000
 50 0.000002 -4.440600 0.000002 1.569944 -3.078603 0.004053
 51 10.510134 -0.000001 0.000002 -0.000000 0.000000 -2.437820
 52 0.000000 -1.748399 -5.000001 3.141593 0.004007 -1.539299
 53 5.500000 -0.000000 0.000001 0.164818 -0.000000 0.000000
 54 -0.000000 -0.000000 -5.000000 -0.044472 3.137589 -0.000177
 55 6.551491 0.000001 0.000001 -0.164818 -0.306427 -0.143927
 56 -1.266844 -1.937443 -4.950562 -0.066572 -2.988806 -0.110308
 57 6.551491 0.000001 0.000001 -0.164818 -0.306427 -0.143927
 58 0.699370 -1.944208 -5.006845 -0.027189 -3.088217 0.005298
 59 4.226146 -0.003201 0.000000 0.056161 -0.064518 -0.128890
 60 0.000001 5.000001 0.000001 -0.153565 0.000087 2.718702
 61 0.000004 -0.000004 -3.713580 0.365818 2.880119 -0.191589
 62 0.000003 -0.000000 5.000000 3.053196 1.558589 -0.074928
 63 -0.000007 0.000006 3.713580 -0.001619 -3.122277 -0.475127
 64 0.000001 -0.000000 -5.000000 -0.088725 1.558589 3.066336
 65 7.363602 1.646647 0.495663 3.141593 -1.570796 0.000000
 66 -0.000005 0.000007 3.619081 0.008255 -3.110080 -0.985231
 67 16.573919 0.000003 0.000000 0.000000 0.000000 -1.065827
 68 15.128181 0.000001 -0.000000 -0.102296 0.010178 0.114297
 69 5.758665 4.244730 -0.000000 0.000000 -0.000000 1.667687
 70 3.177726 0.000000 0.000000 0.000000 0.000000 3.141593
 71 15.708952 0.000001 0.000000 -0.051525 0.003996 0.061523
 72 0.275148 0.189215 -3.445208 3.130898 0.000409 -1.514604
 73 17.210192 0.000002 0.000000 0.000000 0.000000 -1.893339
 74 0.000001 -0.000000 -4.999999 -0.079430 1.546568 -1.570855
 75 0.000002 -0.000003 -3.619081 0.577895 2.675801 -0.242118
 76 16.573923 -0.000001 -0.000001 0.000000 -0.000000 -1.163030
 77 15.128182 -0.000001 0.000002 0.089479 0.309197 0.659208
 78 5.758665 4.244731 -0.000000 -0.000000 0.000000 1.815142
 79 4.003934 -0.000000 -0.000000 0.000000 0.000000 0.000000
 80 15.708954 -0.000000 0.000002 0.042277 0.226871 0.443133
 81 0.273998 0.191090 3.439763 -3.130907 -0.000437 -1.508107
 82 17.210196 -0.000001 -0.000001 0.000000 -0.000000 -1.937080
 83 0.000001 -0.000001 5.000000 -0.079314 1.595025 -1.570739
end
