version 1
nodes
  0 "Bip01"  -1
  1 "Bip01 Footsteps"   0
  2 "Bip01 Pelvis"   0
  3 "Bip01 Spine"   2
  4 "Bip01 Spine1"   3
  5 "Bip01 Spine2"   4
  6 "Bip01 Spine3"   5
  7 "Bip01 Neck"   6
  8 "Bip01 Head"   7
  9 "Dummy21"   8
 10 "Bip01 L Clavicle"   7
 11 "Bip01 L UpperArm"  10
 12 "Bip01 L Forearm"  11
 13 "Bip01 L Hand"  12
 14 "Bip01 L Finger0"  13
 15 "Bip01 L Finger01"  14
 16 "Dummy06"  15
 17 "Bip01 L Finger1"  13
 18 "Bip01 L Finger11"  17
 19 "Dummy03"  18
 20 "-- L knuckle"  17
 21 "-- L knuckle_end"  20
 22 "-- L Forearm twist"  12
 23 "-- L Forearm twist_end"  22
 24 "-- L wrist"  12
 25 "-- L wrist_end"  24
 26 "-- L Elbow"  11
 27 "--L Elbow_end"  26
 28 "-- L bicep twist"  11
 29 "-- L bicep twist_end"  28
 30 "-- L shoulder outside"  10
 31 "-- L shoulder outside_end"  30
 32 "-- L Shoulder inside"  10
 33 "-- L Shoulder inside_end"  32
 34 "Bip01 R Clavicle"   7
 35 "Bip01 R UpperArm"  34
 36 "Bip01 R Forearm"  35
 37 "Bip01 R Hand"  36
 38 "Bip01 R Finger0"  37
 39 "Bip01 R Finger01"  38
 40 "Dummy01"  39
 41 "Bip01 R Finger1"  37
 42 "Bip01 R Finger11"  41
 43 "Dummy02"  42
 44 "-- R knuckle"  41
 45 "Point06"  44
 46 "Line03"  37
 47 "-- R wrist"  36
 48 "-- R wrist_end"  47
 49 "-- R forearm twist"  36
 50 "-- R forearm twist_end"  49
 51 "-- R Elbow"  35
 52 "--R Elbow_end"  51
 53 "-- R bicep twist"  35
 54 "-- R bicep twist_end"  53
 55 "-- R Shoulder inside"  34
 56 "-- R Shoulder inside_end"  55
 57 "-- R shoulder outside"  34
 58 "-- R shoulder outside_end"  57
 59 "-- Neck smooth"   6
 60 "-- neck smooth end"  59
 61 "-- R Butt"   2
 62 "--R Butt_end"  61
 63 "-- L butt"   2
 64 "--L butt_end"  63
 65 "GIGN01"   2
 66 "Bip01 L Thigh"   2
 67 "Bip01 L Calf"  66
 68 "Bip01 L Foot"  67
 69 "Bip01 L Toe0"  68
 70 "Dummy16"  69
 71 "-- L ankle"  67
 72 "-- L ankleend"  71
 73 "-- L Knee"  66
 74 "--L Knee_end"  73
 75 "Bip01 R Thigh"   2
 76 "Bip01 R Calf"  75
 77 "Bip01 R Foot"  76
 78 "Bip01 R Toe0"  77
 79 "Dummy11"  78
 80 "-- R Ankle"  76
 81 "-- R ankleend"  80
 82 "-- R Knee"  75
 83 "--R Knee_end"  82
end
skeleton
time 0
  0 -0.650000 0.000000 33.899605 -0.025849 0.174554 -1.569172
  1 5.685104 0.833236 -32.227173 -0.174512 -0.026131 1.569196
  2 -2.276935 0.000003 -1.238188 -1.570795 -1.570451 0.000000
  3 1.797466 0.711889 0.000696 -0.215350 -0.080990 0.119921
  4 4.119987 -0.002896 0.000680 -0.210192 0.099327 0.424106
  5 4.119084 -0.003164 0.000719 -0.221304 0.053911 0.138589
  6 4.118741 -0.003194 0.000740 -0.227997 0.015818 0.039374
  7 4.116918 -0.002701 -0.001542 0.669931 0.792295 -0.044114
  8 4.443598 0.000001 -0.000001 -0.240412 0.070830 1.170527
  9 9.024060 -0.000000 -0.000001 0.000000 0.000000 0.000000
 10 -1.233638 0.759047 0.953762 0.863171 -0.616777 2.625409
 11 6.384778 -0.000001 0.000001 -1.166420 1.051195 -1.155011
 12 10.242682 -0.000001 0.000001 -0.000000 -0.000000 -1.927988
 13 11.375561 -0.000005 0.000002 -3.134044 0.315780 0.503498
 14 0.728681 0.023430 -1.008292 1.202975 0.409398 0.881725
 15 2.136498 -0.000001 -0.000001 -0.000000 0.000000 -0.078540
 16 2.313138 0.000000 0.000001 0.000000 0.000000 0.000000
 17 3.115507 -0.886042 -0.021431 -0.166499 0.000392 0.514872
 18 2.011152 0.000002 -0.000001 0.000000 0.000000 1.322792
 19 2.141377 -0.000000 -0.000000 0.000000 0.000000 0.000000
 20 1.734173 0.000002 -0.000000 -0.000000 0.000000 0.660693
 21 0.000004 -4.440594 -0.000001 1.570544 -0.062990 -0.195737
 22 6.000000 -0.000003 0.000001 -2.829467 -0.000000 -0.000000
 23 0.000001 -4.440602 -0.000000 1.569944 -0.062987 0.004053
 24 11.375562 -0.000002 0.000006 -2.361655 0.046461 0.338749
 25 0.000000 -4.440605 -0.000000 1.570144 -0.062988 0.004040
 26 10.510131 -0.000000 -0.000001 -0.000000 0.000000 -2.534790
 27 0.000002 -1.748400 4.999998 -0.000000 0.004007 1.602291
 28 5.500000 0.000000 -0.000000 0.203008 0.000000 -0.000000
 29 0.000001 -1.940598 5.000000 -0.044472 0.004003 -0.000180
 30 6.551493 -0.000001 0.000000 -0.494166 0.748782 -0.471725
 31 0.000003 -1.940599 5.000002 -0.027189 -0.053376 0.005295
 32 6.551493 -0.000001 0.000000 -0.158487 0.364713 -0.148789
 33 0.000001 -1.940600 4.999994 -0.066572 -0.152786 -0.110311
 34 1.233642 -0.751970 -0.953761 2.225750 0.526388 -0.614381
 35 6.384775 -0.000001 0.000000 -0.138458 -0.004159 -0.932861
 36 10.242682 -0.000000 0.000002 -0.000000 0.000000 -2.407733
 37 11.375559 0.000002 -0.000001 2.912810 0.282577 0.680865
 38 0.728679 0.023431 1.008292 -1.579583 -0.319038 0.212973
 39 2.136496 -0.000002 0.000000 0.000000 -0.000000 1.282817
 40 2.313139 0.000000 0.000000 0.000000 0.000000 3.141593
 41 3.115506 -0.886041 0.021432 0.420766 0.316066 0.167178
 42 2.011151 0.000001 -0.000001 -0.000000 0.000000 2.082010
 43 2.141379 0.000001 -0.000001 0.000000 0.000000 3.141593
 44 1.734173 -0.000001 -0.000000 0.000000 0.000000 1.041748
 45 0.136315 -3.738192 2.525889 1.493698 2.759406 -1.474501
 46 10.273804 -0.437101 1.198990 1.793563 0.004868 1.507198
 47 11.389364 -0.000819 0.158779 2.208388 0.265711 0.286879
 48 -0.000001 -4.440600 0.000000 1.570144 -3.078602 0.004040
 49 5.999999 0.000001 -0.000002 2.208388 -0.000000 -0.000000
 50 0.000002 -4.440601 0.000003 1.569944 -3.078603 0.004053
 51 10.510132 -0.000001 0.000004 -0.000000 -0.000000 -2.774663
 52 -0.000000 -1.748399 -5.000001 -3.141593 0.004007 -1.539299
 53 5.500000 0.000001 0.000002 0.047002 0.000000 0.000000
 54 -0.000001 0.000001 -5.000000 -0.044472 3.137589 -0.000177
 55 6.551492 0.000001 -0.000002 -0.047002 0.017111 -0.280153
 56 -1.266844 -1.937444 -4.950559 -0.066572 -2.988806 -0.110308
 57 6.551492 0.000000 -0.000002 -0.047002 0.017111 -0.280153
 58 0.699371 -1.944208 -5.006847 -0.027189 -3.088217 0.005298
 59 4.226147 -0.003200 0.000001 0.311798 0.399782 -0.097878
 60 -0.000000 5.000001 -0.000000 -0.153564 0.000087 2.718702
 61 0.000004 -0.000004 -3.713580 0.365818 2.880119 -0.191589
 62 0.000002 -0.000000 5.000000 3.053196 1.558589 -0.074928
 63 -0.000007 0.000006 3.713580 -0.001619 -3.122277 -0.475127
 64 0.000002 -0.000001 -5.000000 -0.088726 1.558589 3.066334
 65 7.363602 1.646647 0.495663 3.141593 -1.570796 0.000000
 66 -0.000005 0.000007 3.619081 0.008255 -3.110080 -0.985231
 67 16.573919 0.000002 0.000000 0.000000 -0.000000 -1.065827
 68 15.128181 0.000000 -0.000000 -0.102296 0.010178 0.114297
 69 5.758665 4.244730 0.000000 0.000000 0.000000 1.667687
 70 3.177725 0.000000 -0.000000 0.000000 0.000000 3.141593
 71 15.708953 0.000001 0.000000 -0.051525 0.003996 0.061523
 72 0.275148 0.189215 -3.445207 3.130898 0.000409 -1.514604
 73 17.210192 0.000001 0.000000 0.000000 -0.000000 -1.893339
 74 0.000001 -0.000000 -5.000000 -0.079430 1.546568 -1.570855
 75 0.000002 -0.000003 -3.619081 0.577895 2.675801 -0.242118
 76 16.573921 -0.000001 -0.000002 -0.000000 -0.000000 -1.163030
 77 15.128181 0.000001 0.000001 0.089479 0.309197 0.659208
 78 5.758666 4.244730 -0.000001 -0.000000 -0.000000 1.815142
 79 4.003934 -0.000000 0.000001 0.000000 0.000000 0.000000
 80 15.708954 0.000001 0.000002 0.042277 0.226871 0.443133
 81 0.273998 0.191089 3.439762 -3.130907 -0.000437 -1.508107
 82 17.210194 -0.000001 -0.000002 0.000000 -0.000000 -1.937080
 83 -0.000000 -0.000001 5.000000 -0.079319 1.595025 -1.570742
time 1
  0 -0.650000 0.000000 33.899605 -0.025849 0.174554 -1.569172
  1 5.685104 0.833236 -32.227173 -0.174512 -0.026131 1.569196
  2 -2.276935 0.000003 -1.238188 -1.570795 -1.570451 0.000000
  3 1.797482 0.711890 0.000697 -0.215692 -0.081108 0.123930
  4 4.119997 -0.002891 0.000680 -0.209812 0.099187 0.428121
  5 4.119096 -0.003162 0.000718 -0.221106 0.053816 0.142591
  6 4.118751 -0.003189 0.000742 -0.227952 0.015750 0.043372
  7 4.117030 -0.002705 -0.001649 0.703230 0.765118 0.003579
  8 4.443597 -0.000000 0.000001 -0.236939 0.054691 1.087715
  9 9.024060 -0.000001 -0.000001 0.000000 0.000000 0.000000
 10 -1.200121 0.811770 0.953307 0.862638 -0.616448 2.582237
 11 6.384775 0.000000 -0.000001 -1.171849 1.024435 -1.162613
 12 10.242685 -0.000001 0.000001 -0.000000 -0.000000 -1.917099
 13 11.375562 -0.000001 0.000001 -3.139015 0.310331 0.501335
 14 0.728680 0.023430 -1.008292 1.202975 0.409398 0.881725
 15 2.136498 -0.000001 -0.000001 0.000000 -0.000000 -0.078540
 16 2.313138 0.000001 0.000000 0.000000 0.000000 0.000000
 17 3.115506 -0.886041 -0.021431 -0.166499 0.000392 0.514872
 18 2.011152 -0.000000 0.000001 -0.000000 -0.000000 1.322791
 19 2.141379 -0.000001 -0.000001 0.000000 0.000000 0.000000
 20 1.734173 0.000000 -0.000001 0.000000 0.000000 0.660693
 21 0.000006 -4.440594 0.000000 1.570544 -0.062990 -0.195737
 22 5.999999 -0.000001 -0.000000 -2.833748 0.000000 -0.000000
 23 0.000001 -4.440602 -0.000000 1.569944 -0.062987 0.004053
 24 11.375561 -0.000002 0.000004 -2.364012 0.043610 0.336949
 25 -0.000001 -4.440604 -0.000001 1.570144 -0.062988 0.004040
 26 10.510133 -0.000000 0.000000 -0.000000 0.000000 -2.529346
 27 0.000001 -1.748402 4.999999 -0.000000 0.004007 1.602291
 28 5.500000 -0.000000 0.000000 0.210074 0.000000 -0.000000
 29 -0.000001 -1.940598 5.000000 -0.044472 0.004003 -0.000180
 30 6.551490 -0.000001 -0.000002 -0.506515 0.732159 -0.487316
 31 0.000001 -1.940598 5.000001 -0.027189 -0.053376 0.005295
 32 6.551490 -0.000001 -0.000002 -0.164179 0.359035 -0.156158
 33 0.000000 -1.940600 4.999995 -0.066572 -0.152786 -0.110311
 34 1.200120 -0.804693 -0.953306 2.224752 0.571055 -0.659048
 35 6.384777 0.000001 -0.000003 -0.124660 0.023253 -0.896008
 36 10.242681 -0.000002 0.000001 -0.000000 0.000000 -2.417643
 37 11.375558 -0.000001 -0.000001 2.914311 0.259196 0.686476
 38 0.728681 0.023431 1.008290 -1.579583 -0.319038 0.212973
 39 2.136497 0.000001 -0.000001 0.000000 0.000000 1.282817
 40 2.313137 -0.000001 0.000001 0.000000 0.000000 3.141593
 41 3.115507 -0.886041 0.021429 0.420766 0.316066 0.167178
 42 2.011152 -0.000001 -0.000001 -0.000000 0.000000 2.082010
 43 2.141381 0.000000 0.000001 0.000000 0.000000 3.141593
 44 1.734173 -0.000002 -0.000002 -0.000000 0.000000 1.041748
 45 0.136315 -3.738194 2.525890 1.493698 2.759406 -1.474501
 46 10.273803 -0.437101 1.198992 1.793563 0.004868 1.507198
 47 11.389365 -0.000818 0.158781 2.212224 0.255385 0.294920
 48 0.000001 -4.440598 -0.000002 1.570144 -3.078602 0.004040
 49 5.999999 -0.000000 -0.000000 2.212224 0.000000 -0.000000
 50 0.000002 -4.440601 0.000002 1.569944 -3.078603 0.004053
 51 10.510131 -0.000001 0.000000 0.000000 -0.000000 -2.779618
 52 -0.000001 -1.748401 -5.000001 -3.141593 0.004007 -1.539299
 53 5.500000 -0.000002 0.000000 0.039661 -0.000000 0.000000
 54 -0.000001 0.000000 -4.999999 -0.044472 3.137589 -0.000177
 55 6.551489 -0.000001 -0.000000 -0.039661 0.023330 -0.275119
 56 -1.266843 -1.937444 -4.950559 -0.066572 -2.988806 -0.110308
 57 6.551492 0.000001 -0.000003 -0.039661 0.023330 -0.275119
 58 0.699371 -1.944209 -5.006845 -0.027189 -3.088217 0.005298
 59 4.226145 -0.003201 0.000001 0.324295 0.390534 -0.076347
 60 0.000002 5.000000 0.000000 -0.153564 0.000087 2.718702
 61 0.000004 -0.000004 -3.713580 0.365818 2.880119 -0.191589
 62 0.000002 -0.000000 5.000000 3.053196 1.558589 -0.074928
 63 -0.000007 0.000006 3.713580 -0.001619 -3.122277 -0.475127
 64 0.000002 -0.000001 -5.000000 -0.088726 1.558589 3.066334
 65 7.363602 1.646647 0.495663 3.141593 -1.570796 0.000000
 66 -0.000005 0.000007 3.619081 0.008255 -3.110080 -0.985231
 67 16.573919 0.000002 0.000000 0.000000 -0.000000 -1.065827
 68 15.128181 0.000000 -0.000000 -0.102296 0.010178 0.114297
 69 5.758665 4.244730 0.000000 0.000000 0.000000 1.667687
 70 3.177725 0.000000 -0.000000 0.000000 0.000000 3.141593
 71 15.708953 0.000001 0.000000 -0.051525 0.003996 0.061523
 72 0.275148 0.189215 -3.445207 3.130898 0.000409 -1.514604
 73 17.210192 0.000001 0.000000 0.000000 -0.000000 -1.893339
 74 0.000001 -0.000000 -5.000000 -0.079430 1.546568 -1.570855
 75 0.000002 -0.000003 -3.619081 0.577895 2.675801 -0.242118
 76 16.573921 -0.000001 -0.000002 -0.000000 -0.000000 -1.163030
 77 15.128181 0.000001 0.000001 0.089479 0.309197 0.659208
 78 5.758666 4.244730 -0.000001 -0.000000 -0.000000 1.815142
 79 4.003934 -0.000000 0.000001 0.000000 0.000000 0.000000
 80 15.708954 0.000001 0.000002 0.042277 0.226871 0.443133
 81 0.273998 0.191089 3.439762 -3.130907 -0.000437 -1.508107
 82 17.210194 -0.000001 -0.000002 0.000000 -0.000000 -1.937080
 83 -0.000000 -0.000001 5.000000 -0.079319 1.595025 -1.570742
time 2
  0 -0.650000 0.000000 33.899605 -0.025849 0.174554 -1.569172
  1 5.685104 0.833236 -32.227173 -0.174512 -0.026131 1.569196
  2 -2.276935 0.000003 -1.238188 -1.570795 -1.570451 0.000000
  3 1.797490 0.711892 0.000698 -0.216035 -0.081224 0.127939
  4 4.120008 -0.002886 0.000678 -0.209432 0.099046 0.432136
  5 4.119111 -0.003162 0.000717 -0.220909 0.053720 0.146594
  6 4.118766 -0.003193 0.000740 -0.227906 0.015682 0.047369
  7 4.117138 -0.002702 -0.001754 0.733919 0.736851 0.048817
  8 4.443601 -0.000001 0.000001 -0.232626 0.038851 1.004846
  9 9.024062 -0.000001 -0.000000 0.000000 0.000000 0.000000
 10 -1.164313 0.863023 0.952876 0.862114 -0.616135 2.539043
 11 6.384776 0.000001 0.000000 -1.175828 0.998710 -1.168302
 12 10.242683 -0.000001 0.000001 -0.000000 0.000000 -1.906538
 13 11.375562 -0.000001 -0.000000 3.138832 0.305270 0.497994
 14 0.728680 0.023432 -1.008291 1.202975 0.409398 0.881725
 15 2.136497 -0.000001 0.000001 0.000000 -0.000000 -0.078540
 16 2.313138 -0.000001 0.000002 0.000000 0.000000 0.000000
 17 3.115506 -0.886041 -0.021431 -0.166499 0.000392 0.514872
 18 2.011151 -0.000003 -0.000000 0.000000 -0.000000 1.322792
 19 2.141379 -0.000001 0.000001 0.000000 0.000000 0.000000
 20 1.734173 0.000001 0.000000 0.000000 0.000000 0.660693
 21 0.000005 -4.440594 0.000001 1.570544 -0.062990 -0.195737
 22 6.000000 -0.000002 -0.000000 -2.838279 0.000000 0.000000
 23 0.000001 -4.440601 0.000000 1.569944 -0.062987 0.004053
 24 11.375562 -0.000002 0.000003 -2.366495 0.041196 0.334705
 25 -0.000000 -4.440604 0.000000 1.570144 -0.062988 0.004040
 26 10.510130 -0.000000 -0.000000 0.000000 0.000000 -2.524065
 27 0.000001 -1.748400 4.999999 -0.000000 0.004007 1.602291
 28 5.500001 -0.000000 0.000000 0.216820 0.000000 0.000000
 29 -0.000001 -1.940598 5.000000 -0.044472 0.004003 -0.000180
 30 6.551492 -0.000002 -0.000002 -0.517730 0.715915 -0.500799
 31 -0.000001 -1.940598 5.000002 -0.027189 -0.053376 0.005295
 32 6.551492 -0.000002 -0.000002 -0.169655 0.353396 -0.162792
 33 0.000000 -1.940599 4.999995 -0.066572 -0.152786 -0.110311
 34 1.164322 -0.855949 -0.952873 2.222631 0.615706 -0.703863
 35 6.384777 0.000002 -0.000002 -0.109489 0.052093 -0.859671
 36 10.242682 -0.000002 -0.000000 0.000000 0.000000 -2.427552
 37 11.375560 -0.000000 -0.000002 2.915669 0.235807 0.692018
 38 0.728679 0.023431 1.008292 -1.579583 -0.319038 0.212973
 39 2.136497 0.000001 -0.000000 -0.000000 -0.000000 1.282817
 40 2.313138 -0.000000 0.000000 0.000000 0.000000 3.141593
 41 3.115506 -0.886041 0.021430 0.420766 0.316066 0.167178
 42 2.011148 0.000001 0.000002 -0.000000 -0.000000 2.082010
 43 2.141378 -0.000001 -0.000001 0.000000 0.000000 3.141593
 44 1.734173 -0.000001 0.000001 -0.000000 -0.000000 1.041748
 45 0.136315 -3.738193 2.525890 1.493698 2.759406 -1.474501
 46 10.273803 -0.437102 1.198991 1.793563 0.004868 1.507198
 47 11.389364 -0.000819 0.158780 2.215910 0.244981 0.302864
 48 0.000000 -4.440598 -0.000001 1.570144 -3.078602 0.004040
 49 5.999999 0.000000 -0.000000 2.215910 -0.000000 -0.000000
 50 0.000002 -4.440601 0.000003 1.569944 -3.078603 0.004053
 51 10.510129 -0.000000 -0.000001 -0.000000 0.000000 -2.784572
 52 -0.000000 -1.748402 -5.000001 -3.141593 0.004007 -1.539299
 53 5.499999 -0.000002 -0.000000 0.032112 0.000000 -0.000000
 54 -0.000000 0.000001 -4.999997 -0.044472 3.137589 -0.000177
 55 6.551489 0.000000 0.000000 -0.032112 0.030279 -0.270193
 56 -1.266841 -1.937442 -4.950562 -0.066572 -2.988806 -0.110308
 57 6.551489 0.000000 0.000000 -0.032112 0.030279 -0.270193
 58 0.699372 -1.944207 -5.006849 -0.027189 -3.088217 0.005298
 59 4.226145 -0.003203 -0.000002 0.336465 0.380875 -0.054827
 60 -0.000001 5.000000 0.000000 -0.153564 0.000087 2.718702
 61 0.000004 -0.000004 -3.713580 0.365818 2.880119 -0.191589
 62 0.000002 -0.000000 5.000000 3.053196 1.558589 -0.074928
 63 -0.000007 0.000006 3.713580 -0.001619 -3.122277 -0.475127
 64 0.000002 -0.000001 -5.000000 -0.088726 1.558589 3.066334
 65 7.363602 1.646647 0.495663 3.141593 -1.570796 0.000000
 66 -0.000005 0.000007 3.619081 0.008255 -3.110080 -0.985231
 67 16.573919 0.000002 0.000000 0.000000 -0.000000 -1.065827
 68 15.128181 0.000000 -0.000000 -0.102296 0.010178 0.114297
 69 5.758665 4.244730 0.000000 0.000000 0.000000 1.667687
 70 3.177725 0.000000 -0.000000 0.000000 0.000000 3.141593
 71 15.708953 0.000001 0.000000 -0.051525 0.003996 0.061523
 72 0.275148 0.189215 -3.445207 3.130898 0.000409 -1.514604
 73 17.210192 0.000001 0.000000 0.000000 -0.000000 -1.893339
 74 0.000001 -0.000000 -5.000000 -0.079430 1.546568 -1.570855
 75 0.000002 -0.000003 -3.619081 0.577895 2.675801 -0.242118
 76 16.573921 -0.000001 -0.000002 -0.000000 -0.000000 -1.163030
 77 15.128181 0.000001 0.000001 0.089479 0.309197 0.659208
 78 5.758666 4.244730 -0.000001 -0.000000 -0.000000 1.815142
 79 4.003934 -0.000000 0.000001 0.000000 0.000000 0.000000
 80 15.708954 0.000001 0.000002 0.042277 0.226871 0.443133
 81 0.273998 0.191089 3.439762 -3.130907 -0.000437 -1.508107
 82 17.210194 -0.000001 -0.000002 0.000000 -0.000000 -1.937080
 83 -0.000000 -0.000001 5.000000 -0.079319 1.595025 -1.570742
time 3
  0 -0.650000 0.000000 33.899605 -0.025849 0.174554 -1.569172
  1 5.685104 0.833236 -32.227173 -0.174512 -0.026131 1.569196
  2 -2.276935 0.000003 -1.238188 -1.570795 -1.570451 0.000000
  3 1.797506 0.711893 0.000699 -0.216378 -0.081339 0.131949
  4 4.120018 -0.002879 0.000678 -0.209053 0.098903 0.436151
  5 4.119123 -0.003160 0.000716 -0.220712 0.053624 0.150596
  6 4.118776 -0.003188 0.000742 -0.227862 0.015614 0.051367
  7 4.117254 -0.002694 -0.001856 0.762152 0.707606 0.091771
  8 4.443600 -0.000001 0.000001 -0.227490 0.023353 0.921899
  9 9.024060 -0.000000 0.000000 0.000000 0.000000 0.000000
 10 -1.126294 0.912709 0.952463 0.861597 -0.615836 2.495828
 11 6.384778 -0.000002 -0.000001 -1.178610 0.974068 -1.172319
 12 10.242684 -0.000001 0.000001 -0.000000 -0.000000 -1.896405
 13 11.375561 -0.000004 -0.000000 3.133142 0.300597 0.493545
 14 0.728680 0.023430 -1.008292 1.202975 0.409399 0.881725
 15 2.136496 0.000001 -0.000001 0.000000 -0.000000 -0.078540
 16 2.313139 -0.000002 -0.000000 0.000000 0.000000 0.000000
 17 3.115506 -0.886042 -0.021431 -0.166499 0.000392 0.514872
 18 2.011151 0.000002 0.000001 0.000000 0.000000 1.322792
 19 2.141380 -0.000000 -0.000000 0.000000 0.000000 0.000000
 20 1.734172 0.000001 0.000000 -0.000000 0.000000 0.660693
 21 0.000004 -4.440593 0.000000 1.570544 -0.062990 -0.195737
 22 6.000000 -0.000002 0.000001 -2.843055 0.000000 0.000000
 23 0.000002 -4.440601 -0.000000 1.569944 -0.062987 0.004053
 24 11.375562 -0.000001 0.000005 -2.369105 0.039208 0.332047
 25 -0.000000 -4.440604 0.000001 1.570144 -0.062988 0.004040
 26 10.510131 0.000000 -0.000000 -0.000000 -0.000000 -2.518999
 27 0.000002 -1.748402 4.999998 -0.000000 0.004007 1.602291
 28 5.500001 -0.000000 0.000000 0.223268 -0.000000 0.000000
 29 0.000001 -1.940599 5.000001 -0.044472 0.004003 -0.000180
 30 6.551492 -0.000001 0.000001 -0.527954 0.700105 -0.512355
 31 0.000003 -1.940598 5.000000 -0.027189 -0.053376 0.005295
 32 6.551491 -0.000001 -0.000000 -0.174928 0.347825 -0.168725
 33 -0.000000 -1.940598 4.999998 -0.066572 -0.152786 -0.110311
 34 1.126298 -0.905632 -0.952462 2.219321 0.660317 -0.748919
 35 6.384778 0.000002 -0.000001 -0.092877 0.082274 -0.823815
 36 10.242681 -0.000003 0.000003 -0.000000 0.000000 -2.437461
 37 11.375562 0.000001 -0.000002 2.916887 0.212411 0.697498
 38 0.728679 0.023431 1.008294 -1.579583 -0.319038 0.212973
 39 2.136497 0.000000 -0.000001 0.000000 -0.000000 1.282817
 40 2.313140 -0.000000 0.000000 0.000000 0.000000 3.141593
 41 3.115506 -0.886041 0.021430 0.420766 0.316066 0.167178
 42 2.011149 0.000000 0.000000 -0.000000 0.000000 2.082010
 43 2.141380 -0.000000 0.000000 0.000000 0.000000 3.141593
 44 1.734173 -0.000001 -0.000001 0.000000 0.000000 1.041748
 45 0.136315 -3.738193 2.525891 1.493698 2.759406 -1.474501
 46 10.273804 -0.437101 1.198991 1.793563 0.004868 1.507198
 47 11.389368 -0.000819 0.158780 2.219448 0.234503 0.310710
 48 0.000000 -4.440600 0.000001 1.570144 -3.078602 0.004040
 49 6.000001 0.000001 -0.000001 2.219448 -0.000000 -0.000000
 50 0.000002 -4.440600 0.000003 1.569944 -3.078603 0.004053
 51 10.510130 -0.000001 0.000002 0.000000 0.000000 -2.789527
 52 0.000001 -1.748399 -5.000002 -3.141593 0.004007 -1.539299
 53 5.500000 -0.000002 0.000002 0.024337 0.000000 -0.000000
 54 -0.000000 -0.000000 -4.999997 -0.044472 3.137589 -0.000177
 55 6.551492 0.000000 0.000000 -0.024337 0.037959 -0.265305
 56 -1.266842 -1.937442 -4.950561 -0.066572 -2.988806 -0.110308
 57 6.551493 0.000001 0.000000 -0.024337 0.037959 -0.265305
 58 0.699370 -1.944207 -5.006847 -0.027189 -3.088217 0.005298
 59 4.226144 -0.003201 0.000000 0.348287 0.370794 -0.033335
 60 0.000000 5.000000 0.000000 -0.153564 0.000087 2.718702
 61 0.000004 -0.000004 -3.713580 0.365818 2.880119 -0.191589
 62 0.000002 -0.000000 5.000000 3.053196 1.558589 -0.074928
 63 -0.000007 0.000006 3.713580 -0.001619 -3.122277 -0.475127
 64 0.000002 -0.000001 -5.000000 -0.088726 1.558589 3.066334
 65 7.363602 1.646647 0.495663 3.141593 -1.570796 0.000000
 66 -0.000005 0.000007 3.619081 0.008255 -3.110080 -0.985231
 67 16.573919 0.000002 0.000000 0.000000 -0.000000 -1.065827
 68 15.128181 0.000000 -0.000000 -0.102296 0.010178 0.114297
 69 5.758665 4.244730 0.000000 0.000000 0.000000 1.667687
 70 3.177725 0.000000 -0.000000 0.000000 0.000000 3.141593
 71 15.708953 0.000001 0.000000 -0.051525 0.003996 0.061523
 72 0.275148 0.189215 -3.445207 3.130898 0.000409 -1.514604
 73 17.210192 0.000001 0.000000 0.000000 -0.000000 -1.893339
 74 0.000001 -0.000000 -5.000000 -0.079430 1.546568 -1.570855
 75 0.000002 -0.000003 -3.619081 0.577895 2.675801 -0.242118
 76 16.573921 -0.000001 -0.000002 -0.000000 -0.000000 -1.163030
 77 15.128181 0.000001 0.000001 0.089479 0.309197 0.659208
 78 5.758666 4.244730 -0.000001 -0.000000 -0.000000 1.815142
 79 4.003934 -0.000000 0.000001 0.000000 0.000000 0.000000
 80 15.708954 0.000001 0.000002 0.042277 0.226871 0.443133
 81 0.273998 0.191089 3.439762 -3.130907 -0.000437 -1.508107
 82 17.210194 -0.000001 -0.000002 0.000000 -0.000000 -1.937080
 83 -0.000000 -0.000001 5.000000 -0.079319 1.595025 -1.570742
time 4
  0 -0.650000 0.000000 33.899605 -0.025849 0.174554 -1.569172
  1 5.685104 0.833236 -32.227173 -0.174512 -0.026131 1.569196
  2 -2.276935 0.000003 -1.238188 -1.570795 -1.570451 0.000000
  3 1.797506 0.711893 0.000699 -0.216378 -0.081339 0.131949
  4 4.120018 -0.002879 0.000678 -0.209053 0.098903 0.436151
  5 4.119123 -0.003160 0.000716 -0.220712 0.053624 0.150596
  6 4.118776 -0.003188 0.000742 -0.227862 0.015614 0.051367
  7 4.117254 -0.002694 -0.001856 0.762152 0.707606 0.091771
  8 4.443600 -0.000001 0.000001 -0.227490 0.023353 0.921899
  9 9.024060 -0.000000 0.000000 0.000000 0.000000 0.000000
 10 -1.126294 0.912709 0.952463 0.861597 -0.615836 2.495828
 11 6.384778 -0.000002 -0.000001 -1.179623 0.972301 -1.176681
 12 10.242683 -0.000000 0.000000 0.000000 -0.000000 -1.881953
 13 11.375561 -0.000001 0.000001 3.127849 0.294553 0.476751
 14 0.728680 0.023429 -1.008292 1.202975 0.409398 0.881725
 15 2.136496 -0.000001 0.000000 -0.000000 -0.000000 -0.078540
 16 2.313139 0.000000 -0.000000 0.000000 0.000000 0.000000
 17 3.115506 -0.886040 -0.021432 -0.166499 0.000392 0.514872
 18 2.011152 -0.000001 0.000000 -0.000000 0.000000 1.322792
 19 2.141379 -0.000000 -0.000001 0.000000 0.000000 0.000000
 20 1.734173 -0.000001 -0.000001 0.000000 0.000000 0.660693
 21 0.000006 -4.440594 -0.000000 1.570544 -0.062990 -0.195737
 22 6.000000 -0.000003 0.000000 -2.846513 -0.000000 0.000000
 23 0.000002 -4.440600 0.000000 1.569944 -0.062987 0.004053
 24 11.375561 -0.000002 0.000004 -2.370958 0.039423 0.323467
 25 0.000001 -4.440605 -0.000000 1.570144 -0.062988 0.004040
 26 10.510134 -0.000001 0.000000 0.000000 -0.000000 -2.511773
 27 -0.000000 -1.748399 5.000000 -0.000000 0.004007 1.602290
 28 5.500003 -0.000000 0.000000 0.222175 0.000000 -0.000000
 29 -0.000002 -1.940598 5.000000 -0.044472 0.004003 -0.000180
 30 6.551492 -0.000001 0.000001 -0.526667 0.699839 -0.516552
 31 -0.000000 -1.940598 5.000001 -0.027189 -0.053376 0.005295
 32 6.551491 -0.000001 -0.000000 -0.173953 0.347806 -0.170601
 33 -0.000001 -1.940598 4.999995 -0.066572 -0.152786 -0.110311
 34 1.126298 -0.905632 -0.952462 2.214157 0.705102 -0.751179
 35 6.384776 0.000000 0.000001 -0.089270 0.109556 -0.786324
 36 10.242682 -0.000001 -0.000000 -0.000000 0.000000 -2.447371
 37 11.375560 0.000000 -0.000001 2.917969 0.189008 0.702922
 38 0.728681 0.023431 1.008293 -1.579583 -0.319038 0.212973
 39 2.136496 -0.000001 0.000000 0.000000 -0.000000 1.282817
 40 2.313139 0.000000 -0.000000 0.000000 0.000000 3.141593
 41 3.115507 -0.886041 0.021432 0.420766 0.316066 0.167178
 42 2.011149 -0.000000 -0.000001 -0.000000 0.000000 2.082010
 43 2.141379 0.000000 -0.000001 0.000000 0.000000 3.141593
 44 1.734172 -0.000001 -0.000000 -0.000000 0.000000 1.041748
 45 0.136315 -3.738194 2.525890 1.493698 2.759406 -1.474501
 46 10.273805 -0.437102 1.198992 1.793563 0.004868 1.507198
 47 11.389366 -0.000819 0.158781 2.222840 0.223957 0.318459
 48 0.000002 -4.440600 0.000002 1.570144 -3.078602 0.004040
 49 5.999999 0.000000 -0.000001 2.222840 -0.000000 0.000000
 50 -0.000000 -4.440601 -0.000000 1.569944 -3.078603 0.004053
 51 10.510131 0.000000 -0.000001 -0.000000 0.000000 -2.794482
 52 -0.000000 -1.748400 -5.000002 -3.141593 0.004007 -1.539299
 53 5.499999 0.000001 -0.000002 0.021436 0.000000 -0.000000
 54 -0.000001 0.000000 -5.000003 -0.044472 3.137589 -0.000177
 55 6.551491 0.000001 0.000001 -0.021436 0.046367 -0.260165
 56 -1.266843 -1.937444 -4.950561 -0.066572 -2.988806 -0.110308
 57 6.551492 0.000001 0.000001 -0.021436 0.046367 -0.260165
 58 0.699370 -1.944209 -5.006847 -0.027189 -3.088217 0.005298
 59 4.226144 -0.003201 0.000000 0.348287 0.370794 -0.033335
 60 0.000000 5.000000 0.000000 -0.153564 0.000087 2.718702
 61 0.000004 -0.000004 -3.713580 0.365818 2.880119 -0.191589
 62 0.000002 -0.000000 5.000000 3.053196 1.558589 -0.074928
 63 -0.000007 0.000006 3.713580 -0.001619 -3.122277 -0.475127
 64 0.000002 -0.000001 -5.000000 -0.088726 1.558589 3.066334
 65 7.363602 1.646647 0.495663 3.141593 -1.570796 0.000000
 66 -0.000005 0.000007 3.619081 0.008255 -3.110080 -0.985231
 67 16.573919 0.000002 0.000000 0.000000 -0.000000 -1.065827
 68 15.128181 0.000000 -0.000000 -0.102296 0.010178 0.114297
 69 5.758665 4.244730 0.000000 0.000000 0.000000 1.667687
 70 3.177725 0.000000 -0.000000 0.000000 0.000000 3.141593
 71 15.708953 0.000001 0.000000 -0.051525 0.003996 0.061523
 72 0.275148 0.189215 -3.445207 3.130898 0.000409 -1.514604
 73 17.210192 0.000001 0.000000 0.000000 -0.000000 -1.893339
 74 0.000001 -0.000000 -5.000000 -0.079430 1.546568 -1.570855
 75 0.000002 -0.000003 -3.619081 0.577895 2.675801 -0.242118
 76 16.573921 -0.000001 -0.000002 -0.000000 -0.000000 -1.163030
 77 15.128181 0.000001 0.000001 0.089479 0.309197 0.659208
 78 5.758666 4.244730 -0.000001 -0.000000 -0.000000 1.815142
 79 4.003934 -0.000000 0.000001 0.000000 0.000000 0.000000
 80 15.708954 0.000001 0.000002 0.042277 0.226871 0.443133
 81 0.273998 0.191089 3.439762 -3.130907 -0.000437 -1.508107
 82 17.210194 -0.000001 -0.000002 0.000000 -0.000000 -1.937080
 83 -0.000000 -0.000001 5.000000 -0.079319 1.595025 -1.570742
time 5
  0 -0.650000 0.000000 33.899605 -0.025849 0.174554 -1.569172
  1 5.685104 0.833236 -32.227173 -0.174512 -0.026131 1.569196
  2 -2.276935 0.000003 -1.238188 -1.570795 -1.570451 0.000000
  3 1.797506 0.711893 0.000699 -0.216378 -0.081339 0.131949
  4 4.120018 -0.002879 0.000678 -0.209053 0.098903 0.436151
  5 4.119123 -0.003160 0.000716 -0.220712 0.053624 0.150596
  6 4.118776 -0.003188 0.000742 -0.227862 0.015614 0.051367
  7 4.117254 -0.002694 -0.001856 0.762152 0.707606 0.091771
  8 4.443600 -0.000001 0.000001 -0.227490 0.023353 0.921899
  9 9.024060 -0.000000 0.000000 0.000000 0.000000 0.000000
 10 -1.126294 0.912709 0.952463 0.861597 -0.615836 2.495828
 11 6.384778 -0.000002 -0.000001 -1.179623 0.972301 -1.176681
 12 10.242683 -0.000000 0.000000 0.000000 -0.000000 -1.881953
 13 11.375561 -0.000001 0.000001 3.127849 0.294553 0.476751
 14 0.728680 0.023429 -1.008292 1.202975 0.409398 0.881725
 15 2.136496 -0.000001 0.000000 -0.000000 -0.000000 -0.078540
 16 2.313139 0.000000 -0.000000 0.000000 0.000000 0.000000
 17 3.115506 -0.886040 -0.021432 -0.166499 0.000392 0.514872
 18 2.011152 -0.000001 0.000000 -0.000000 0.000000 1.322792
 19 2.141379 -0.000000 -0.000001 0.000000 0.000000 0.000000
 20 1.734173 -0.000001 -0.000001 0.000000 0.000000 0.660693
 21 0.000006 -4.440594 -0.000000 1.570544 -0.062990 -0.195737
 22 6.000000 -0.000003 0.000000 -2.846513 -0.000000 0.000000
 23 0.000002 -4.440600 0.000000 1.569944 -0.062987 0.004053
 24 11.375561 -0.000002 0.000004 -2.370958 0.039423 0.323467
 25 0.000001 -4.440605 -0.000000 1.570144 -0.062988 0.004040
 26 10.510134 -0.000001 0.000000 0.000000 -0.000000 -2.511773
 27 -0.000000 -1.748399 5.000000 -0.000000 0.004007 1.602290
 28 5.500003 -0.000000 0.000000 0.222175 0.000000 -0.000000
 29 -0.000002 -1.940598 5.000000 -0.044472 0.004003 -0.000180
 30 6.551492 -0.000001 0.000001 -0.526667 0.699839 -0.516552
 31 -0.000000 -1.940598 5.000001 -0.027189 -0.053376 0.005295
 32 6.551491 -0.000001 -0.000000 -0.173953 0.347806 -0.170601
 33 -0.000001 -1.940598 4.999995 -0.066572 -0.152786 -0.110311
 34 1.126298 -0.905632 -0.952462 2.214157 0.705102 -0.751179
 35 6.384776 0.000000 0.000001 -0.089270 0.109556 -0.786324
 36 10.242682 -0.000001 -0.000000 -0.000000 0.000000 -2.447371
 37 11.375560 0.000000 -0.000001 2.917969 0.189008 0.702922
 38 0.728681 0.023431 1.008293 -1.579583 -0.319038 0.212973
 39 2.136496 -0.000001 0.000000 0.000000 -0.000000 1.282817
 40 2.313139 0.000000 -0.000000 0.000000 0.000000 3.141593
 41 3.115507 -0.886041 0.021432 0.420766 0.316066 0.167178
 42 2.011149 -0.000000 -0.000001 -0.000000 0.000000 2.082010
 43 2.141379 0.000000 -0.000001 0.000000 0.000000 3.141593
 44 1.734172 -0.000001 -0.000000 -0.000000 0.000000 1.041748
 45 0.136315 -3.738194 2.525890 1.493698 2.759406 -1.474501
 46 10.273805 -0.437102 1.198992 1.793563 0.004868 1.507198
 47 11.389366 -0.000819 0.158781 2.222840 0.223957 0.318459
 48 0.000002 -4.440600 0.000002 1.570144 -3.078602 0.004040
 49 5.999999 0.000000 -0.000001 2.222840 -0.000000 0.000000
 50 -0.000000 -4.440601 -0.000000 1.569944 -3.078603 0.004053
 51 10.510131 0.000000 -0.000001 -0.000000 0.000000 -2.794482
 52 -0.000000 -1.748400 -5.000002 -3.141593 0.004007 -1.539299
 53 5.499999 0.000001 -0.000002 0.021436 0.000000 -0.000000
 54 -0.000001 0.000000 -5.000003 -0.044472 3.137589 -0.000177
 55 6.551491 0.000001 0.000001 -0.021436 0.046367 -0.260165
 56 -1.266843 -1.937444 -4.950561 -0.066572 -2.988806 -0.110308
 57 6.551492 0.000001 0.000001 -0.021436 0.046367 -0.260165
 58 0.699370 -1.944209 -5.006847 -0.027189 -3.088217 0.005298
 59 4.226144 -0.003201 0.000000 0.348287 0.370794 -0.033335
 60 0.000000 5.000000 0.000000 -0.153564 0.000087 2.718702
 61 0.000004 -0.000004 -3.713580 0.365818 2.880119 -0.191589
 62 0.000002 -0.000000 5.000000 3.053196 1.558589 -0.074928
 63 -0.000007 0.000006 3.713580 -0.001619 -3.122277 -0.475127
 64 0.000002 -0.000001 -5.000000 -0.088726 1.558589 3.066334
 65 7.363602 1.646647 0.495663 3.141593 -1.570796 0.000000
 66 -0.000005 0.000007 3.619081 0.008255 -3.110080 -0.985231
 67 16.573919 0.000002 0.000000 0.000000 -0.000000 -1.065827
 68 15.128181 0.000000 -0.000000 -0.102296 0.010178 0.114297
 69 5.758665 4.244730 0.000000 0.000000 0.000000 1.667687
 70 3.177725 0.000000 -0.000000 0.000000 0.000000 3.141593
 71 15.708953 0.000001 0.000000 -0.051525 0.003996 0.061523
 72 0.275148 0.189215 -3.445207 3.130898 0.000409 -1.514604
 73 17.210192 0.000001 0.000000 0.000000 -0.000000 -1.893339
 74 0.000001 -0.000000 -5.000000 -0.079430 1.546568 -1.570855
 75 0.000002 -0.000003 -3.619081 0.577895 2.675801 -0.242118
 76 16.573921 -0.000001 -0.000002 -0.000000 -0.000000 -1.163030
 77 15.128181 0.000001 0.000001 0.089479 0.309197 0.659208
 78 5.758666 4.244730 -0.000001 -0.000000 -0.000000 1.815142
 79 4.003934 -0.000000 0.000001 0.000000 0.000000 0.000000
 80 15.708954 0.000001 0.000002 0.042277 0.226871 0.443133
 81 0.273998 0.191089 3.439762 -3.130907 -0.000437 -1.508107
 82 17.210194 -0.000001 -0.000002 0.000000 -0.000000 -1.937080
 83 -0.000000 -0.000001 5.000000 -0.079319 1.595025 -1.570742
end
