version 1
nodes
  0 "Bip01"  -1
  1 "Bip01 Footsteps"   0
  2 "Bip01 Pelvis"   0
  3 "Bip01 Spine"   2
  4 "Bip01 Spine1"   3
  5 "Bip01 Spine2"   4
  6 "Bip01 Spine3"   5
  7 "Bip01 Neck"   6
  8 "Bip01 Head"   7
  9 "Dummy21"   8
 10 "Bip01 L Clavicle"   7
 11 "Bip01 L UpperArm"  10
 12 "Bip01 L Forearm"  11
 13 "Bip01 L Hand"  12
 14 "Bip01 L Finger0"  13
 15 "Bip01 L Finger01"  14
 16 "Dummy06"  15
 17 "Bip01 L Finger1"  13
 18 "Bip01 L Finger11"  17
 19 "Dummy03"  18
 20 "-- L knuckle"  17
 21 "-- L knuckle_end"  20
 22 "-- L Forearm twist"  12
 23 "-- L Forearm twist_end"  22
 24 "-- L wrist"  12
 25 "-- L wrist_end"  24
 26 "-- L Elbow"  11
 27 "--L Elbow_end"  26
 28 "-- L bicep twist"  11
 29 "-- L bicep twist_end"  28
 30 "-- L shoulder outside"  10
 31 "-- L shoulder outside_end"  30
 32 "-- L Shoulder inside"  10
 33 "-- L Shoulder inside_end"  32
 34 "Bip01 R Clavicle"   7
 35 "Bip01 R UpperArm"  34
 36 "Bip01 R Forearm"  35
 37 "Bip01 R Hand"  36
 38 "Bip01 R Finger0"  37
 39 "Bip01 R Finger01"  38
 40 "Dummy01"  39
 41 "Bip01 R Finger1"  37
 42 "Bip01 R Finger11"  41
 43 "Dummy02"  42
 44 "-- R knuckle"  41
 45 "Point06"  44
 46 "Line03"  37
 47 "-- R wrist"  36
 48 "-- R wrist_end"  47
 49 "-- R forearm twist"  36
 50 "-- R forearm twist_end"  49
 51 "-- R Elbow"  35
 52 "--R Elbow_end"  51
 53 "-- R bicep twist"  35
 54 "-- R bicep twist_end"  53
 55 "-- R Shoulder inside"  34
 56 "-- R Shoulder inside_end"  55
 57 "-- R shoulder outside"  34
 58 "-- R shoulder outside_end"  57
 59 "-- Neck smooth"   6
 60 "-- neck smooth end"  59
 61 "Bip01 L Thigh"   3
 62 "Bip01 L Calf"  61
 63 "Bip01 L Foot"  62
 64 "Bip01 L Toe0"  63
 65 "Dummy16"  64
 66 "-- L ankle"  62
 67 "-- L ankleend"  66
 68 "-- L Knee"  61
 69 "--L Knee_end"  68
 70 "Bip01 R Thigh"   3
 71 "Bip01 R Calf"  70
 72 "Bip01 R Foot"  71
 73 "Bip01 R Toe0"  72
 74 "Dummy11"  73
 75 "-- R Ankle"  71
 76 "-- R ankleend"  75
 77 "-- R Knee"  70
 78 "--R Knee_end"  77
 79 "-- R Butt"   2
 80 "--R Butt_end"  79
 81 "-- L butt"   2
 82 "--L butt_end"  81
 83 "GIGN01"   2
end
skeleton
time 0
  0 -0.650000 0.000000 33.899605 -0.025849 0.174554 -1.569172
  1 5.685104 0.833236 -32.227173 -0.174512 -0.026131 1.569196
  2 -2.276935 0.000003 -1.238188 -1.570795 -1.570451 0.000000
  3 1.796469 0.711911 -0.000539 0.167077 0.179941 -0.178912
  4 4.119754 -0.003027 -0.000523 0.160660 -0.062551 0.352999
  5 4.118836 -0.003227 -0.000535 0.164655 -0.100033 0.056187
  6 4.118510 -0.003238 -0.000516 0.158249 -0.066320 -0.039928
  7 4.118210 -0.002677 -0.002280 0.745425 0.316617 0.134204
  8 4.443600 -0.000000 0.000000 -0.022095 0.098348 0.474852
  9 9.024062 -0.000000 0.000000 0.000000 0.000000 0.000000
 10 -0.539487 1.120393 1.209920 1.024967 -0.529890 2.189242
 11 6.384776 0.000000 -0.000001 -1.400362 0.373514 -1.111766
 12 10.242681 0.000001 -0.000001 0.000000 -0.000000 -1.700248
 13 11.375558 0.000002 -0.000001 2.918340 0.512392 0.261961
 14 0.728682 0.023429 -1.008292 1.105900 0.292115 0.601323
 15 2.136497 0.000000 0.000000 0.000000 0.000000 -0.078540
 16 2.313142 0.000000 0.000000 0.000000 0.000000 0.000000
 17 3.115507 -0.886043 -0.021431 -0.166499 0.000392 0.514872
 18 2.011152 -0.000001 0.000001 -0.000000 -0.000000 1.322791
 19 2.141380 0.000001 0.000002 0.000000 0.000000 0.000000
 20 1.734173 0.000001 0.000000 -0.000000 -0.000000 0.660693
 21 0.000003 -4.440594 0.000000 1.570544 -0.062990 -0.195737
 22 5.999999 -0.000000 -0.000000 -3.019058 0.000000 0.000000
 23 0.000001 -4.440601 0.000000 1.569944 -0.062987 0.004053
 24 11.375562 -0.000000 0.000003 -2.448137 0.192916 0.290471
 25 0.000000 -4.440603 0.000000 1.570144 -0.062988 0.004040
 26 10.510130 0.000001 -0.000001 -0.000000 0.000000 -2.420920
 27 -0.000001 -1.748403 4.999999 -0.000000 0.004007 1.602291
 28 5.499998 0.000000 -0.000000 0.454923 -0.000000 0.000000
 29 -0.000001 -1.940596 5.000001 -0.044472 0.004003 -0.000180
 30 6.551490 -0.000000 -0.000002 -0.923054 0.378034 -0.603202
 31 -0.000000 -1.940598 5.000001 -0.027189 -0.053376 0.005295
 32 6.551490 -0.000000 -0.000002 -0.362937 0.232242 -0.210183
 33 0.000000 -1.940599 4.999997 -0.066572 -0.152786 -0.110311
 34 0.539490 -1.113317 -1.209921 2.418126 0.831437 -0.629481
 35 6.384776 0.000000 -0.000001 0.185931 0.126670 -0.848157
 36 10.242682 0.000001 0.000001 0.000000 0.000000 -2.393023
 37 11.375561 -0.000001 -0.000001 3.091984 0.282515 1.035995
 38 0.728680 0.023431 1.008291 -1.579583 -0.319038 0.212973
 39 2.136494 0.000002 -0.000000 -0.000000 0.000000 1.282817
 40 2.313138 -0.000001 0.000000 0.000000 0.000000 3.141593
 41 3.115505 -0.886041 0.021427 0.420765 0.316066 0.167178
 42 2.011150 0.000002 0.000006 -0.000000 -0.000000 2.082010
 43 2.141378 0.000001 0.000001 0.000000 0.000000 3.141593
 44 1.734172 -0.000001 -0.000001 -0.000000 -0.000000 1.041748
 45 0.136315 -3.738192 2.525890 1.493698 2.759406 -1.474501
 46 10.273803 -0.437100 1.198991 1.793563 0.004868 1.507198
 47 11.389366 -0.000820 0.158782 2.278764 0.343427 0.433936
 48 0.000000 -4.440600 -0.000000 1.570144 -3.078602 0.004040
 49 6.000000 -0.000000 0.000003 2.278764 -0.000000 -0.000000
 50 0.000002 -4.440603 0.000001 1.569944 -3.078603 0.004053
 51 10.510132 0.000001 0.000001 0.000000 -0.000000 -2.767308
 52 0.000001 -1.748400 -5.000002 -3.141593 0.004007 -1.539299
 53 5.500000 0.000000 0.000001 -0.071773 -0.000000 0.000000
 54 -0.000001 -0.000000 -5.000000 -0.044472 3.137589 -0.000177
 55 6.551490 0.000000 0.000001 0.071773 0.019748 -0.268819
 56 -1.266843 -1.937443 -4.950560 -0.066572 -2.988806 -0.110308
 57 6.551491 -0.000000 0.000001 0.071773 0.019748 -0.268819
 58 0.699370 -1.944208 -5.006847 -0.027189 -3.088217 0.005298
 59 4.226144 -0.003201 0.000000 0.364477 0.182970 0.040050
 60 0.000002 5.000000 0.000001 -0.153564 0.000087 2.718702
 61 -2.262421 -0.462651 3.391634 -0.004296 2.928492 -0.792358
 62 16.573919 0.000002 0.000000 0.000000 -0.000000 -1.065827
 63 15.128181 0.000000 -0.000000 -0.102296 0.010178 0.114297
 64 5.758665 4.244730 0.000000 0.000000 0.000000 1.667687
 65 3.177725 0.000000 -0.000000 0.000000 0.000000 3.141593
 66 15.708953 0.000001 0.000000 -0.051525 0.003996 0.061523
 67 0.275148 0.189215 -3.445207 3.130898 0.000409 -1.514604
 68 17.210192 0.000001 0.000000 0.000000 -0.000000 -1.893339
 69 0.000001 -0.000000 -5.000000 -0.079430 1.546568 -1.570855
 70 -0.966988 -1.646936 -3.630496 0.773111 2.494995 0.055627
 71 16.573921 -0.000001 -0.000002 -0.000000 -0.000000 -1.163030
 72 15.128181 0.000001 0.000001 0.089479 0.309197 0.659208
 73 5.758666 4.244730 -0.000001 -0.000000 -0.000000 1.815142
 74 4.003934 -0.000000 0.000001 0.000000 0.000000 0.000000
 75 15.708954 0.000001 0.000002 0.042277 0.226871 0.443133
 76 0.273998 0.191089 3.439762 -3.130907 -0.000437 -1.508107
 77 17.210194 -0.000001 -0.000002 0.000000 -0.000000 -1.937080
 78 -0.000000 -0.000001 5.000000 -0.079319 1.595025 -1.570742
 79 0.000004 -0.000004 -3.713580 0.365818 2.880119 -0.191589
 80 0.000002 -0.000000 5.000000 3.053196 1.558589 -0.074928
 81 -0.000007 0.000006 3.713580 -0.001619 -3.122277 -0.475127
 82 0.000002 -0.000001 -5.000000 -0.088726 1.558589 3.066334
 83 7.363602 1.646647 0.495663 3.141593 -1.570796 0.000000
time 1
  0 -0.650000 0.000000 33.899605 -0.025849 0.174554 -1.569172
  1 5.685104 0.833236 -32.227173 -0.174512 -0.026131 1.569196
  2 -2.276935 0.000003 -1.238188 -1.570795 -1.570451 0.000000
  3 1.796469 0.711911 -0.000539 0.167077 0.179941 -0.178912
  4 4.119754 -0.003027 -0.000523 0.160660 -0.062551 0.352999
  5 4.118836 -0.003227 -0.000535 0.164655 -0.100033 0.056187
  6 4.118510 -0.003238 -0.000516 0.158249 -0.066320 -0.039928
  7 4.118591 -0.002693 -0.002294 0.732709 0.247345 0.213321
  8 4.443602 -0.000001 0.000002 -0.015398 0.084123 0.319468
  9 9.024063 -0.000000 0.000001 0.000000 0.000000 0.000000
 10 -0.424220 1.127253 1.248848 1.002952 -0.559047 2.097820
 11 6.384776 0.000000 -0.000001 -1.400591 0.373346 -1.111636
 12 10.242681 0.000002 -0.000001 -0.000000 0.000000 -1.679314
 13 11.375560 -0.000001 -0.000002 2.914784 0.510719 0.243943
 14 0.728680 0.023426 -1.008291 1.105900 0.292115 0.601323
 15 2.136501 0.000002 -0.000002 0.000000 0.000000 -0.078540
 16 2.313140 -0.000001 0.000001 0.000000 0.000000 0.000000
 17 3.115509 -0.886041 -0.021431 -0.166499 0.000392 0.514872
 18 2.011151 -0.000001 -0.000000 -0.000000 -0.000000 1.322791
 19 2.141380 -0.000002 0.000000 0.000000 0.000000 0.000000
 20 1.734174 0.000001 0.000000 -0.000000 0.000000 0.660693
 21 0.000006 -4.440596 0.000000 1.570544 -0.062990 -0.195737
 22 5.999999 0.000001 -0.000001 -3.021107 -0.000000 0.000000
 23 0.000001 -4.440602 0.000000 1.569944 -0.062987 0.004053
 24 11.375560 -0.000000 0.000001 -2.448542 0.197016 0.281764
 25 -0.000003 -4.440602 0.000000 1.570144 -0.062988 0.004040
 26 10.510129 0.000001 -0.000001 0.000000 -0.000000 -2.410454
 27 -0.000000 -1.748402 4.999999 -0.000000 0.004007 1.602291
 28 5.499998 0.000001 -0.000001 0.455043 -0.000000 -0.000000
 29 -0.000003 -1.940599 5.000002 -0.044472 0.004003 -0.000180
 30 6.551490 -0.000000 -0.000002 -0.923310 0.377994 -0.603180
 31 -0.000000 -1.940598 5.000000 -0.027189 -0.053376 0.005295
 32 6.551490 -0.000000 -0.000002 -0.363029 0.232232 -0.210150
 33 0.000000 -1.940599 4.999998 -0.066572 -0.152786 -0.110311
 34 0.424228 -1.120178 -1.248846 2.497512 0.865099 -0.660347
 35 6.384777 0.000001 -0.000003 0.180746 0.115404 -0.819530
 36 10.242682 0.000001 -0.000001 0.000000 0.000000 -2.392956
 37 11.375561 -0.000001 -0.000003 3.091984 0.282515 1.035995
 38 0.728681 0.023431 1.008293 -1.579583 -0.319038 0.212973
 39 2.136496 0.000001 -0.000000 -0.000000 -0.000000 1.282817
 40 2.313137 -0.000000 -0.000000 0.000000 0.000000 3.141593
 41 3.115506 -0.886040 0.021432 0.420766 0.316066 0.167178
 42 2.011151 -0.000001 -0.000001 0.000000 0.000000 2.082010
 43 2.141379 0.000001 0.000001 0.000000 0.000000 3.141593
 44 1.734172 -0.000001 0.000002 -0.000000 0.000000 1.041748
 45 0.136316 -3.738192 2.525890 1.493698 2.759406 -1.474501
 46 10.273804 -0.437101 1.198992 1.793563 0.004868 1.507198
 47 11.389367 -0.000820 0.158779 2.278764 0.343427 0.433936
 48 0.000001 -4.440601 0.000002 1.570144 -3.078602 0.004040
 49 6.000000 -0.000001 -0.000003 2.278764 -0.000000 -0.000000
 50 0.000001 -4.440603 0.000002 1.569944 -3.078603 0.004053
 51 10.510132 0.000001 -0.000003 -0.000000 -0.000000 -2.767274
 52 -0.000000 -1.748399 -5.000002 -3.141593 0.004007 -1.539299
 53 5.500000 0.000001 -0.000002 -0.068590 0.000000 0.000000
 54 -0.000000 0.000000 -4.999999 -0.044472 3.137589 -0.000177
 55 6.551491 0.000001 -0.000002 0.068590 0.017933 -0.265138
 56 -1.266843 -1.937443 -4.950561 -0.066572 -2.988806 -0.110308
 57 6.551491 0.000001 -0.000002 0.068590 0.017933 -0.265138
 58 0.699371 -1.944208 -5.006846 -0.027189 -3.088217 0.005298
 59 4.226144 -0.003201 0.000000 0.359543 0.153280 0.092077
 60 0.000002 5.000001 -0.000000 -0.153564 0.000087 2.718702
 61 -2.262421 -0.462651 3.391634 -0.004296 2.928492 -0.792358
 62 16.573919 0.000002 0.000000 0.000000 -0.000000 -1.065827
 63 15.128181 0.000000 -0.000000 -0.102296 0.010178 0.114297
 64 5.758665 4.244730 0.000000 0.000000 0.000000 1.667687
 65 3.177725 0.000000 -0.000000 0.000000 0.000000 3.141593
 66 15.708953 0.000001 0.000000 -0.051525 0.003996 0.061523
 67 0.275148 0.189215 -3.445207 3.130898 0.000409 -1.514604
 68 17.210192 0.000001 0.000000 0.000000 -0.000000 -1.893339
 69 0.000001 -0.000000 -5.000000 -0.079430 1.546568 -1.570855
 70 -0.966988 -1.646936 -3.630496 0.773111 2.494995 0.055627
 71 16.573921 -0.000001 -0.000002 -0.000000 -0.000000 -1.163030
 72 15.128181 0.000001 0.000001 0.089479 0.309197 0.659208
 73 5.758666 4.244730 -0.000001 -0.000000 -0.000000 1.815142
 74 4.003934 -0.000000 0.000001 0.000000 0.000000 0.000000
 75 15.708954 0.000001 0.000002 0.042277 0.226871 0.443133
 76 0.273998 0.191089 3.439762 -3.130907 -0.000437 -1.508107
 77 17.210194 -0.000001 -0.000002 0.000000 -0.000000 -1.937080
 78 -0.000000 -0.000001 5.000000 -0.079319 1.595025 -1.570742
 79 0.000004 -0.000004 -3.713580 0.365818 2.880119 -0.191589
 80 0.000002 -0.000000 5.000000 3.053196 1.558589 -0.074928
 81 -0.000007 0.000006 3.713580 -0.001619 -3.122277 -0.475127
 82 0.000002 -0.000001 -5.000000 -0.088726 1.558589 3.066334
 83 7.363602 1.646647 0.495663 3.141593 -1.570796 0.000000
time 2
  0 -0.650000 0.000000 33.899605 -0.025849 0.174554 -1.569172
  1 5.685104 0.833236 -32.227173 -0.174512 -0.026131 1.569196
  2 -2.276935 0.000003 -1.238188 -1.570795 -1.570451 0.000000
  3 1.796469 0.711911 -0.000539 0.167077 0.179941 -0.178912
  4 4.119754 -0.003027 -0.000523 0.160660 -0.062551 0.352999
  5 4.118836 -0.003227 -0.000535 0.164655 -0.100033 0.056187
  6 4.118510 -0.003238 -0.000516 0.158249 -0.066320 -0.039928
  7 4.118978 -0.002680 -0.002281 0.714660 0.179253 0.292157
  8 4.443597 0.000000 -0.000001 -0.006392 0.075450 0.163901
  9 9.024064 -0.000000 0.000001 0.000000 0.000000 0.000000
 10 -0.308936 1.120898 1.287783 0.983801 -0.589809 2.005399
 11 6.384776 0.000000 -0.000001 -1.401029 0.372706 -1.111343
 12 10.242684 0.000001 0.000000 -0.000000 -0.000000 -1.658103
 13 11.375565 -0.000002 0.000000 2.911010 0.509354 0.225986
 14 0.728676 0.023427 -1.008290 1.105900 0.292115 0.601323
 15 2.136504 0.000002 -0.000001 0.000000 -0.000000 -0.078540
 16 2.313139 -0.000000 -0.000000 0.000000 0.000000 0.000000
 17 3.115505 -0.886040 -0.021430 -0.166499 0.000392 0.514872
 18 2.011152 0.000000 0.000002 -0.000000 0.000000 1.322792
 19 2.141380 -0.000002 -0.000001 0.000000 0.000000 0.000000
 20 1.734173 0.000001 0.000001 -0.000000 -0.000000 0.660693
 21 0.000007 -4.440593 0.000001 1.570544 -0.062990 -0.195737
 22 6.000001 -0.000001 0.000000 -3.023421 0.000000 0.000000
 23 0.000001 -4.440600 0.000001 1.569944 -0.062987 0.004053
 24 11.375565 -0.000002 0.000004 -2.449040 0.201277 0.273107
 25 0.000000 -4.440603 0.000001 1.570144 -0.062988 0.004040
 26 10.510132 0.000001 -0.000000 0.000000 -0.000000 -2.399848
 27 0.000000 -1.748401 4.999999 -0.000000 0.004007 1.602291
 28 5.500000 0.000001 -0.000000 0.455327 -0.000000 -0.000000
 29 -0.000002 -1.940598 5.000000 -0.044472 0.004003 -0.000180
 30 6.551490 -0.000000 -0.000002 -0.923866 0.377703 -0.603198
 31 0.000000 -1.940598 5.000003 -0.027189 -0.053376 0.005295
 32 6.551490 -0.000000 -0.000002 -0.363249 0.232133 -0.210134
 33 -0.000001 -1.940599 4.999996 -0.066572 -0.152786 -0.110311
 34 0.308934 -1.113819 -1.287787 2.580997 0.897303 -0.686750
 35 6.384776 0.000001 -0.000000 0.175140 0.103982 -0.790996
 36 10.242682 -0.000000 -0.000000 0.000000 -0.000000 -2.392889
 37 11.375561 -0.000000 -0.000001 3.091984 0.282515 1.035995
 38 0.728681 0.023431 1.008294 -1.579583 -0.319038 0.212973
 39 2.136497 0.000000 -0.000001 -0.000000 -0.000000 1.282817
 40 2.313138 -0.000001 0.000001 0.000000 0.000000 3.141593
 41 3.115507 -0.886041 0.021433 0.420765 0.316066 0.167178
 42 2.011151 -0.000001 -0.000001 0.000000 0.000000 2.082010
 43 2.141380 -0.000000 0.000000 0.000000 0.000000 3.141593
 44 1.734172 -0.000000 0.000000 0.000000 0.000000 1.041748
 45 0.136316 -3.738192 2.525891 1.493698 2.759406 -1.474501
 46 10.273804 -0.437100 1.198994 1.793563 0.004868 1.507198
 47 11.389367 -0.000820 0.158782 2.278764 0.343427 0.433936
 48 -0.000000 -4.440600 -0.000000 1.570144 -3.078602 0.004040
 49 6.000000 -0.000000 -0.000000 2.278764 0.000000 -0.000000
 50 0.000002 -4.440599 -0.000000 1.569944 -3.078603 0.004053
 51 10.510131 -0.000000 -0.000000 -0.000000 -0.000000 -2.767241
 52 0.000001 -1.748400 -5.000003 3.141593 0.004007 -1.539299
 53 5.500000 -0.000000 0.000000 -0.065396 0.000000 0.000000
 54 0.000000 -0.000000 -4.999999 -0.044472 3.137589 -0.000177
 55 6.551490 0.000001 0.000000 0.065396 0.015982 -0.261495
 56 -1.266843 -1.937443 -4.950562 -0.066572 -2.988806 -0.110308
 57 6.551491 0.000000 0.000000 0.065396 0.015982 -0.261495
 58 0.699371 -1.944208 -5.006848 -0.027189 -3.088217 0.005298
 59 4.226144 -0.003201 0.000000 0.351928 0.123283 0.142878
 60 0.000001 5.000001 -0.000000 -0.153564 0.000087 2.718702
 61 -2.262421 -0.462651 3.391634 -0.004296 2.928492 -0.792358
 62 16.573919 0.000002 0.000000 0.000000 -0.000000 -1.065827
 63 15.128181 0.000000 -0.000000 -0.102296 0.010178 0.114297
 64 5.758665 4.244730 0.000000 0.000000 0.000000 1.667687
 65 3.177725 0.000000 -0.000000 0.000000 0.000000 3.141593
 66 15.708953 0.000001 0.000000 -0.051525 0.003996 0.061523
 67 0.275148 0.189215 -3.445207 3.130898 0.000409 -1.514604
 68 17.210192 0.000001 0.000000 0.000000 -0.000000 -1.893339
 69 0.000001 -0.000000 -5.000000 -0.079430 1.546568 -1.570855
 70 -0.966988 -1.646936 -3.630496 0.773111 2.494995 0.055627
 71 16.573921 -0.000001 -0.000002 -0.000000 -0.000000 -1.163030
 72 15.128181 0.000001 0.000001 0.089479 0.309197 0.659208
 73 5.758666 4.244730 -0.000001 -0.000000 -0.000000 1.815142
 74 4.003934 -0.000000 0.000001 0.000000 0.000000 0.000000
 75 15.708954 0.000001 0.000002 0.042277 0.226871 0.443133
 76 0.273998 0.191089 3.439762 -3.130907 -0.000437 -1.508107
 77 17.210194 -0.000001 -0.000002 0.000000 -0.000000 -1.937080
 78 -0.000000 -0.000001 5.000000 -0.079319 1.595025 -1.570742
 79 0.000004 -0.000004 -3.713580 0.365818 2.880119 -0.191589
 80 0.000002 -0.000000 5.000000 3.053196 1.558589 -0.074928
 81 -0.000007 0.000006 3.713580 -0.001619 -3.122277 -0.475127
 82 0.000002 -0.000001 -5.000000 -0.088726 1.558589 3.066334
 83 7.363602 1.646647 0.495663 3.141593 -1.570796 0.000000
time 3
  0 -0.650000 0.000000 33.899605 -0.025849 0.174554 -1.569172
  1 5.685104 0.833236 -32.227173 -0.174512 -0.026131 1.569196
  2 -2.276935 0.000003 -1.238188 -1.570795 -1.570451 0.000000
  3 1.796469 0.711911 -0.000539 0.167077 0.179941 -0.178912
  4 4.119754 -0.003027 -0.000523 0.160660 -0.062551 0.352999
  5 4.118836 -0.003227 -0.000535 0.164655 -0.100033 0.056187
  6 4.118510 -0.003238 -0.000516 0.158249 -0.066320 -0.039928
  7 4.119352 -0.002632 -0.002242 0.691452 0.112765 0.371436
  8 4.443601 -0.000001 0.000001 0.003805 0.072634 0.008228
  9 9.024062 0.000000 -0.000001 0.000000 0.000000 0.000000
 10 -0.194973 1.101396 1.326278 0.967806 -0.621931 1.911681
 11 6.384776 0.000000 -0.000001 -1.401656 0.371611 -1.110883
 12 10.242681 0.000001 -0.000002 0.000000 0.000000 -1.636637
 13 11.375561 0.000000 -0.000002 2.907016 0.508279 0.208098
 14 0.728682 0.023432 -1.008291 1.105900 0.292115 0.601323
 15 2.136500 0.000001 -0.000001 0.000000 -0.000000 -0.078540
 16 2.313140 0.000000 0.000000 0.000000 0.000000 0.000000
 17 3.115508 -0.886039 -0.021432 -0.166499 0.000392 0.514872
 18 2.011152 0.000001 -0.000000 -0.000000 -0.000000 1.322792
 19 2.141377 -0.000000 -0.000001 0.000000 0.000000 0.000000
 20 1.734174 0.000001 -0.000001 0.000000 -0.000000 0.660693
 21 0.000005 -4.440595 0.000001 1.570544 -0.062990 -0.195737
 22 6.000000 -0.000001 -0.000001 -3.025996 0.000000 -0.000000
 23 0.000003 -4.440601 -0.000000 1.569944 -0.062987 0.004053
 24 11.375561 0.000001 0.000001 -2.449631 0.205688 0.264503
 25 -0.000001 -4.440604 -0.000001 1.570144 -0.062988 0.004040
 26 10.510131 0.000001 -0.000003 -0.000000 -0.000000 -2.389115
 27 0.000000 -1.748402 4.999999 0.000000 0.004007 1.602291
 28 5.500001 -0.000000 -0.000001 0.455765 0.000000 0.000000
 29 -0.000003 -1.940598 5.000001 -0.044472 0.004003 -0.000180
 30 6.551490 -0.000000 -0.000002 -0.924703 0.377164 -0.603251
 31 0.000001 -1.940598 5.000002 -0.027189 -0.053376 0.005295
 32 6.551490 -0.000000 -0.000002 -0.363590 0.231944 -0.210136
 33 0.000000 -1.940599 5.000000 -0.066572 -0.152786 -0.110311
 34 0.194982 -1.094322 -1.326276 2.668729 0.927727 -0.708676
 35 6.384776 0.000000 0.000000 0.169105 0.092423 -0.762549
 36 10.242681 -0.000000 0.000002 0.000000 0.000000 -2.392823
 37 11.375560 -0.000000 -0.000002 3.091984 0.282515 1.035995
 38 0.728680 0.023431 1.008295 -1.579583 -0.319038 0.212973
 39 2.136497 -0.000001 0.000001 -0.000000 -0.000000 1.282817
 40 2.313139 -0.000001 -0.000001 0.000000 0.000000 3.141593
 41 3.115506 -0.886041 0.021434 0.420766 0.316066 0.167178
 42 2.011151 -0.000001 -0.000002 -0.000000 -0.000000 2.082010
 43 2.141379 0.000000 -0.000001 0.000000 0.000000 3.141593
 44 1.734172 -0.000001 0.000001 0.000000 0.000000 1.041748
 45 0.136316 -3.738191 2.525891 1.493698 2.759406 -1.474501
 46 10.273803 -0.437101 1.198993 1.793563 0.004868 1.507198
 47 11.389366 -0.000820 0.158779 2.278764 0.343427 0.433936
 48 0.000000 -4.440602 0.000001 1.570144 -3.078602 0.004040
 49 6.000000 -0.000000 -0.000003 2.278764 0.000000 -0.000000
 50 0.000002 -4.440603 0.000000 1.569944 -3.078603 0.004053
 51 10.510131 -0.000000 0.000004 -0.000000 -0.000000 -2.767208
 52 -0.000000 -1.748400 -5.000000 -3.141593 0.004007 -1.539299
 53 5.500000 -0.000000 0.000002 -0.062186 0.000000 0.000000
 54 0.000000 0.000000 -5.000002 -0.044472 3.137589 -0.000177
 55 6.551491 -0.000000 0.000001 0.062186 0.013893 -0.257870
 56 -1.266843 -1.937443 -4.950560 -0.066572 -2.988806 -0.110308
 57 6.551491 -0.000000 0.000001 0.062186 0.013893 -0.257870
 58 0.699371 -1.944208 -5.006847 -0.027189 -3.088217 0.005298
 59 4.226144 -0.003201 0.000000 0.341862 0.093686 0.191647
 60 0.000001 5.000001 -0.000000 -0.153564 0.000087 2.718702
 61 -2.262421 -0.462651 3.391634 -0.004296 2.928492 -0.792358
 62 16.573919 0.000002 0.000000 0.000000 -0.000000 -1.065827
 63 15.128181 0.000000 -0.000000 -0.102296 0.010178 0.114297
 64 5.758665 4.244730 0.000000 0.000000 0.000000 1.667687
 65 3.177725 0.000000 -0.000000 0.000000 0.000000 3.141593
 66 15.708953 0.000001 0.000000 -0.051525 0.003996 0.061523
 67 0.275148 0.189215 -3.445207 3.130898 0.000409 -1.514604
 68 17.210192 0.000001 0.000000 0.000000 -0.000000 -1.893339
 69 0.000001 -0.000000 -5.000000 -0.079430 1.546568 -1.570855
 70 -0.966988 -1.646936 -3.630496 0.773111 2.494995 0.055627
 71 16.573921 -0.000001 -0.000002 -0.000000 -0.000000 -1.163030
 72 15.128181 0.000001 0.000001 0.089479 0.309197 0.659208
 73 5.758666 4.244730 -0.000001 -0.000000 -0.000000 1.815142
 74 4.003934 -0.000000 0.000001 0.000000 0.000000 0.000000
 75 15.708954 0.000001 0.000002 0.042277 0.226871 0.443133
 76 0.273998 0.191089 3.439762 -3.130907 -0.000437 -1.508107
 77 17.210194 -0.000001 -0.000002 0.000000 -0.000000 -1.937080
 78 -0.000000 -0.000001 5.000000 -0.079319 1.595025 -1.570742
 79 0.000004 -0.000004 -3.713580 0.365818 2.880119 -0.191589
 80 0.000002 -0.000000 5.000000 3.053196 1.558589 -0.074928
 81 -0.000007 0.000006 3.713580 -0.001619 -3.122277 -0.475127
 82 0.000002 -0.000001 -5.000000 -0.088726 1.558589 3.066334
 83 7.363602 1.646647 0.495663 3.141593 -1.570796 0.000000
time 4
  0 -0.650000 0.000000 33.899605 -0.025849 0.174554 -1.569172
  1 5.685104 0.833236 -32.227173 -0.174512 -0.026131 1.569196
  2 -2.276935 0.000003 -1.238188 -1.570795 -1.570451 0.000000
  3 1.796469 0.711911 -0.000539 0.167077 0.179941 -0.178912
  4 4.119754 -0.003027 -0.000523 0.160660 -0.062551 0.352999
  5 4.118836 -0.003227 -0.000535 0.164655 -0.100033 0.056187
  6 4.118510 -0.003238 -0.000516 0.158249 -0.066320 -0.039928
  7 4.119352 -0.002632 -0.002242 0.691452 0.112765 0.371436
  8 4.443601 -0.000001 0.000001 0.003805 0.072634 0.008228
  9 9.024062 0.000000 -0.000001 0.000000 0.000000 0.000000
 10 -0.194973 1.101396 1.326278 0.967806 -0.621931 1.911681
 11 6.384776 0.000000 -0.000001 -1.402453 0.370079 -1.110253
 12 10.242682 0.000001 -0.000001 0.000000 -0.000000 -1.614937
 13 11.375562 0.000002 0.000001 2.902807 0.507476 0.190283
 14 0.728680 0.023429 -1.008292 1.105899 0.292115 0.601323
 15 2.136498 0.000001 -0.000000 0.000000 0.000000 -0.078540
 16 2.313141 -0.000000 -0.000001 0.000000 0.000000 0.000000
 17 3.115505 -0.886042 -0.021431 -0.166499 0.000392 0.514872
 18 2.011149 -0.000001 0.000001 -0.000000 -0.000000 1.322791
 19 2.141378 -0.000002 0.000001 0.000000 0.000000 0.000000
 20 1.734171 0.000000 0.000001 0.000000 -0.000000 0.660693
 21 0.000006 -4.440593 0.000001 1.570544 -0.062990 -0.195737
 22 6.000002 -0.000000 0.000001 -3.028828 0.000000 0.000000
 23 -0.000000 -4.440600 -0.000000 1.569944 -0.062987 0.004053
 24 11.375565 -0.000000 0.000004 -2.450310 0.210237 0.255953
 25 -0.000002 -4.440603 -0.000000 1.570144 -0.062988 0.004040
 26 10.510132 0.000002 -0.000001 -0.000000 -0.000000 -2.378265
 27 0.000001 -1.748401 4.999999 0.000000 0.004007 1.602291
 28 5.500000 0.000002 -0.000000 0.456349 0.000000 0.000000
 29 -0.000003 -1.940598 5.000001 -0.044472 0.004003 -0.000180
 30 6.551490 -0.000000 -0.000002 -0.925799 0.376384 -0.603335
 31 0.000001 -1.940599 5.000000 -0.027189 -0.053376 0.005295
 32 6.551490 -0.000000 -0.000002 -0.364045 0.231668 -0.210156
 33 0.000000 -1.940599 4.999995 -0.066572 -0.152786 -0.110311
 34 0.194982 -1.094322 -1.326276 2.715137 0.933902 -0.660359
 35 6.384776 0.000000 0.000002 0.162636 0.080742 -0.734178
 36 10.242682 0.000001 -0.000002 0.000000 0.000000 -2.392756
 37 11.375561 -0.000001 -0.000000 3.091984 0.282515 1.035995
 38 0.728681 0.023431 1.008293 -1.579583 -0.319038 0.212973
 39 2.136497 -0.000001 0.000000 0.000000 0.000000 1.282817
 40 2.313141 0.000002 -0.000000 0.000000 0.000000 3.141593
 41 3.115507 -0.886041 0.021431 0.420765 0.316066 0.167178
 42 2.011151 -0.000001 -0.000003 -0.000000 0.000000 2.082010
 43 2.141380 0.000000 0.000003 0.000000 0.000000 3.141593
 44 1.734172 -0.000000 0.000001 0.000000 0.000000 1.041748
 45 0.136314 -3.738192 2.525890 1.493698 2.759406 -1.474501
 46 10.273804 -0.437100 1.198990 1.793563 0.004868 1.507198
 47 11.389367 -0.000820 0.158781 2.278764 0.343427 0.433936
 48 0.000001 -4.440599 0.000000 1.570144 -3.078602 0.004040
 49 6.000000 -0.000000 -0.000003 2.278764 0.000000 -0.000000
 50 0.000001 -4.440602 -0.000001 1.569944 -3.078603 0.004053
 51 10.510131 0.000000 -0.000002 -0.000000 -0.000000 -2.767174
 52 -0.000000 -1.748399 -5.000004 3.141593 0.004007 -1.539299
 53 5.500000 0.000000 -0.000002 -0.058951 0.000000 -0.000000
 54 0.000000 0.000000 -5.000001 -0.044472 3.137589 -0.000177
 55 6.551490 -0.000000 0.000002 0.058951 0.011663 -0.254244
 56 -1.266844 -1.937444 -4.950557 -0.066572 -2.988806 -0.110308
 57 6.551491 -0.000000 0.000002 0.058951 0.011663 -0.254244
 58 0.699370 -1.944208 -5.006845 -0.027189 -3.088217 0.005298
 59 4.226144 -0.003201 0.000000 0.341862 0.093686 0.191647
 60 0.000001 5.000001 -0.000000 -0.153564 0.000087 2.718702
 61 -2.262421 -0.462651 3.391634 -0.004296 2.928492 -0.792358
 62 16.573919 0.000002 0.000000 0.000000 -0.000000 -1.065827
 63 15.128181 0.000000 -0.000000 -0.102296 0.010178 0.114297
 64 5.758665 4.244730 0.000000 0.000000 0.000000 1.667687
 65 3.177725 0.000000 -0.000000 0.000000 0.000000 3.141593
 66 15.708953 0.000001 0.000000 -0.051525 0.003996 0.061523
 67 0.275148 0.189215 -3.445207 3.130898 0.000409 -1.514604
 68 17.210192 0.000001 0.000000 0.000000 -0.000000 -1.893339
 69 0.000001 -0.000000 -5.000000 -0.079430 1.546568 -1.570855
 70 -0.966988 -1.646936 -3.630496 0.773111 2.494995 0.055627
 71 16.573921 -0.000001 -0.000002 -0.000000 -0.000000 -1.163030
 72 15.128181 0.000001 0.000001 0.089479 0.309197 0.659208
 73 5.758666 4.244730 -0.000001 -0.000000 -0.000000 1.815142
 74 4.003934 -0.000000 0.000001 0.000000 0.000000 0.000000
 75 15.708954 0.000001 0.000002 0.042277 0.226871 0.443133
 76 0.273998 0.191089 3.439762 -3.130907 -0.000437 -1.508107
 77 17.210194 -0.000001 -0.000002 0.000000 -0.000000 -1.937080
 78 -0.000000 -0.000001 5.000000 -0.079319 1.595025 -1.570742
 79 0.000004 -0.000004 -3.713580 0.365818 2.880119 -0.191589
 80 0.000002 -0.000000 5.000000 3.053196 1.558589 -0.074928
 81 -0.000007 0.000006 3.713580 -0.001619 -3.122277 -0.475127
 82 0.000002 -0.000001 -5.000000 -0.088726 1.558589 3.066334
 83 7.363602 1.646647 0.495663 3.141593 -1.570796 0.000000
time 5
  0 -0.650000 0.000000 33.899605 -0.025849 0.174554 -1.569172
  1 5.685104 0.833236 -32.227173 -0.174512 -0.026131 1.569196
  2 -2.276935 0.000003 -1.238188 -1.570795 -1.570451 0.000000
  3 1.796469 0.711911 -0.000539 0.167077 0.179941 -0.178912
  4 4.119754 -0.003027 -0.000523 0.160660 -0.062551 0.352999
  5 4.118836 -0.003227 -0.000535 0.164655 -0.100033 0.056187
  6 4.118510 -0.003238 -0.000516 0.158249 -0.066320 -0.039928
  7 4.119352 -0.002632 -0.002242 0.691452 0.112765 0.371436
  8 4.443601 -0.000001 0.000001 0.003805 0.072634 0.008228
  9 9.024062 0.000000 -0.000001 0.000000 0.000000 0.000000
 10 -0.194973 1.101396 1.326278 0.967806 -0.621931 1.911681
 11 6.384776 0.000000 -0.000001 -1.403402 0.368127 -1.109451
 12 10.242682 0.000003 -0.000000 0.000000 0.000000 -1.593024
 13 11.375562 0.000001 -0.000001 2.898386 0.506931 0.172545
 14 0.728680 0.023430 -1.008292 1.105900 0.292115 0.601323
 15 2.136498 0.000001 0.000000 0.000000 -0.000000 -0.078540
 16 2.313138 0.000001 -0.000000 0.000000 0.000000 0.000000
 17 3.115505 -0.886042 -0.021432 -0.166499 0.000392 0.514872
 18 2.011154 0.000002 -0.000001 -0.000000 -0.000000 1.322792
 19 2.141378 -0.000000 -0.000001 0.000000 0.000000 0.000000
 20 1.734174 0.000001 -0.000001 0.000000 -0.000000 0.660693
 21 0.000006 -4.440593 0.000000 1.570544 -0.062990 -0.195737
 22 6.000002 -0.000000 -0.000000 -3.031915 -0.000000 -0.000000
 23 -0.000001 -4.440599 0.000000 1.569944 -0.062987 0.004053
 24 11.375562 0.000001 0.000003 -2.451077 0.214912 0.247460
 25 0.000001 -4.440602 0.000001 1.570144 -0.062988 0.004040
 26 10.510130 0.000003 -0.000001 0.000000 0.000000 -2.367309
 27 0.000001 -1.748402 5.000000 0.000000 0.004007 1.602291
 28 5.499999 0.000002 -0.000000 0.457067 0.000000 -0.000000
 29 -0.000002 -1.940599 5.000000 -0.044472 0.004003 -0.000180
 30 6.551490 -0.000000 -0.000002 -0.927134 0.375367 -0.603446
 31 0.000000 -1.940598 5.000000 -0.027189 -0.053376 0.005295
 32 6.551490 -0.000000 -0.000002 -0.364607 0.231305 -0.210193
 33 0.000001 -1.940599 4.999995 -0.066572 -0.152786 -0.110311
 34 0.194982 -1.094322 -1.326276 2.762475 0.938698 -0.611332
 35 6.384777 0.000000 -0.000003 0.155727 0.068956 -0.705875
 36 10.242682 0.000001 -0.000002 -0.000000 -0.000000 -2.392689
 37 11.375562 -0.000001 -0.000001 3.091984 0.282515 1.035995
 38 0.728681 0.023431 1.008293 -1.579583 -0.319038 0.212973
 39 2.136497 0.000000 -0.000000 -0.000000 -0.000000 1.282817
 40 2.313139 0.000001 -0.000000 0.000000 0.000000 3.141593
 41 3.115507 -0.886040 0.021431 0.420766 0.316066 0.167178
 42 2.011151 -0.000001 -0.000003 -0.000000 0.000000 2.082010
 43 2.141380 0.000000 0.000003 0.000000 0.000000 3.141593
 44 1.734173 -0.000001 -0.000001 -0.000000 0.000000 1.041748
 45 0.136315 -3.738192 2.525889 1.493698 2.759406 -1.474501
 46 10.273804 -0.437101 1.198991 1.793563 0.004868 1.507198
 47 11.389367 -0.000820 0.158782 2.278764 0.343427 0.433936
 48 0.000000 -4.440598 -0.000001 1.570144 -3.078602 0.004040
 49 6.000000 0.000000 -0.000000 2.278764 0.000000 0.000000
 50 0.000001 -4.440602 -0.000001 1.569944 -3.078603 0.004053
 51 10.510131 0.000001 0.000001 -0.000000 0.000000 -2.767141
 52 -0.000000 -1.748400 -5.000002 3.141593 0.004007 -1.539299
 53 5.499999 0.000000 0.000000 -0.055688 -0.000000 0.000000
 54 0.000000 -0.000000 -5.000001 -0.044472 3.137589 -0.000177
 55 6.551491 -0.000000 -0.000001 0.055688 0.009289 -0.250600
 56 -1.266843 -1.937443 -4.950558 -0.066572 -2.988806 -0.110308
 57 6.551491 -0.000000 -0.000001 0.055688 0.009289 -0.250600
 58 0.699370 -1.944208 -5.006845 -0.027189 -3.088217 0.005298
 59 4.226144 -0.003201 0.000000 0.341862 0.093686 0.191647
 60 0.000001 5.000001 -0.000000 -0.153564 0.000087 2.718702
 61 -2.262421 -0.462651 3.391634 -0.004296 2.928492 -0.792358
 62 16.573919 0.000002 0.000000 0.000000 -0.000000 -1.065827
 63 15.128181 0.000000 -0.000000 -0.102296 0.010178 0.114297
 64 5.758665 4.244730 0.000000 0.000000 0.000000 1.667687
 65 3.177725 0.000000 -0.000000 0.000000 0.000000 3.141593
 66 15.708953 0.000001 0.000000 -0.051525 0.003996 0.061523
 67 0.275148 0.189215 -3.445207 3.130898 0.000409 -1.514604
 68 17.210192 0.000001 0.000000 0.000000 -0.000000 -1.893339
 69 0.000001 -0.000000 -5.000000 -0.079430 1.546568 -1.570855
 70 -0.966988 -1.646936 -3.630496 0.773111 2.494995 0.055627
 71 16.573921 -0.000001 -0.000002 -0.000000 -0.000000 -1.163030
 72 15.128181 0.000001 0.000001 0.089479 0.309197 0.659208
 73 5.758666 4.244730 -0.000001 -0.000000 -0.000000 1.815142
 74 4.003934 -0.000000 0.000001 0.000000 0.000000 0.000000
 75 15.708954 0.000001 0.000002 0.042277 0.226871 0.443133
 76 0.273998 0.191089 3.439762 -3.130907 -0.000437 -1.508107
 77 17.210194 -0.000001 -0.000002 0.000000 -0.000000 -1.937080
 78 -0.000000 -0.000001 5.000000 -0.079319 1.595025 -1.570742
 79 0.000004 -0.000004 -3.713580 0.365818 2.880119 -0.191589
 80 0.000002 -0.000000 5.000000 3.053196 1.558589 -0.074928
 81 -0.000007 0.000006 3.713580 -0.001619 -3.122277 -0.475127
 82 0.000002 -0.000001 -5.000000 -0.088726 1.558589 3.066334
 83 7.363602 1.646647 0.495663 3.141593 -1.570796 0.000000
end
