version 1
nodes
  0 "Bip01"  -1
  1 "Bip01 Footsteps"   0
  2 "Bip01 Pelvis"   0
  3 "Bip01 Spine"   2
  4 "Bip01 Spine1"   3
  5 "Bip01 Spine2"   4
  6 "Bip01 Spine3"   5
  7 "Bip01 Neck"   6
  8 "Bip01 Head"   7
  9 "Dummy21"   8
 10 "Bip01 L Clavicle"   7
 11 "Bip01 L UpperArm"  10
 12 "Bip01 L Forearm"  11
 13 "Bip01 L Hand"  12
 14 "Bip01 L Finger0"  13
 15 "Bip01 L Finger01"  14
 16 "Dummy06"  15
 17 "Bip01 L Finger1"  13
 18 "Bip01 L Finger11"  17
 19 "Dummy03"  18
 20 "-- L knuckle"  17
 21 "-- L knuckle_end"  20
 22 "-- L Forearm twist"  12
 23 "-- L Forearm twist_end"  22
 24 "-- L wrist"  12
 25 "-- L wrist_end"  24
 26 "-- L Elbow"  11
 27 "--L Elbow_end"  26
 28 "-- L bicep twist"  11
 29 "-- L bicep twist_end"  28
 30 "-- L shoulder outside"  10
 31 "-- L shoulder outside_end"  30
 32 "-- L Shoulder inside"  10
 33 "-- L Shoulder inside_end"  32
 34 "Bip01 R Clavicle"   7
 35 "Bip01 R UpperArm"  34
 36 "Bip01 R Forearm"  35
 37 "Bip01 R Hand"  36
 38 "Bip01 R Finger0"  37
 39 "Bip01 R Finger01"  38
 40 "Dummy01"  39
 41 "Bip01 R Finger1"  37
 42 "Bip01 R Finger11"  41
 43 "Dummy02"  42
 44 "-- R knuckle"  41
 45 "Point06"  44
 46 "Line03"  37
 47 "-- R wrist"  36
 48 "-- R wrist_end"  47
 49 "-- R forearm twist"  36
 50 "-- R forearm twist_end"  49
 51 "-- R Elbow"  35
 52 "--R Elbow_end"  51
 53 "-- R bicep twist"  35
 54 "-- R bicep twist_end"  53
 55 "-- R Shoulder inside"  34
 56 "-- R Shoulder inside_end"  55
 57 "-- R shoulder outside"  34
 58 "-- R shoulder outside_end"  57
 59 "-- Neck smooth"   6
 60 "-- neck smooth end"  59
 61 "-- R Butt"   2
 62 "--R Butt_end"  61
 63 "-- L butt"   2
 64 "--L butt_end"  63
 65 "GIGN01"   2
 66 "Bip01 L Thigh"   2
 67 "Bip01 L Calf"  66
 68 "Bip01 L Foot"  67
 69 "Bip01 L Toe0"  68
 70 "Dummy16"  69
 71 "-- L ankle"  67
 72 "-- L ankleend"  71
 73 "-- L Knee"  66
 74 "--L Knee_end"  73
 75 "Bip01 R Thigh"   2
 76 "Bip01 R Calf"  75
 77 "Bip01 R Foot"  76
 78 "Bip01 R Toe0"  77
 79 "Dummy11"  78
 80 "-- R Ankle"  76
 81 "-- R ankleend"  80
 82 "-- R Knee"  75
 83 "--R Knee_end"  82
end
skeleton
time 0
  0 -0.650000 0.000000 33.899605 -0.025849 0.174554 -1.569172
  1 5.685104 0.833236 -32.227173 -0.174512 -0.026131 1.569196
  2 -2.276935 0.000003 -1.238188 -1.570795 -1.570451 0.000000
  3 1.797518 0.711828 0.000259 -0.080010 0.100813 0.107253
  4 4.119086 -0.003160 -0.000733 0.231767 -0.234954 0.097046
  5 4.119030 -0.003219 -0.000462 0.146317 -0.261764 0.093435
  6 4.118702 -0.003249 -0.000446 0.138134 -0.167000 0.008084
  7 4.118913 -0.002682 -0.002285 0.709308 0.128746 0.225624
  8 4.443598 -0.000002 0.000000 -0.027583 0.326664 0.469276
  9 9.024061 -0.000001 -0.000001 0.000000 0.000000 0.000000
 10 -0.222464 1.122728 1.303932 1.076391 -0.618247 1.969583
 11 6.384777 0.000000 0.000001 -0.629089 0.777679 -0.483382
 12 10.242682 0.000000 -0.000000 0.000000 -0.000000 -1.927829
 13 11.375562 -0.000000 -0.000001 2.523841 0.114670 0.106625
 14 0.728681 0.023429 -1.008291 1.105900 0.292115 0.601323
 15 2.136497 -0.000002 0.000001 0.000000 0.000000 -0.078540
 16 2.313139 0.000000 -0.000001 0.000000 0.000000 0.000000
 17 3.115507 -0.886043 -0.021431 -0.166499 0.000392 0.514872
 18 2.011152 0.000002 0.000000 -0.000000 0.000000 1.322791
 19 2.141380 0.000001 -0.000001 0.000000 0.000000 0.000000
 20 1.734172 0.000001 -0.000000 -0.000000 0.000000 0.660693
 21 0.000006 -4.440593 -0.000000 1.570544 -0.062990 -0.195737
 22 6.000000 0.000000 -0.000001 2.848938 0.000000 -0.000000
 23 0.000001 -4.440601 -0.000001 1.569944 -0.062987 0.004053
 24 11.375561 -0.000000 0.000002 -2.664028 0.015811 0.113340
 25 -0.000001 -4.440604 -0.000000 1.570144 -0.062988 0.004040
 26 10.510129 0.000000 0.000000 0.000000 -0.000000 -2.534711
 27 0.000001 -1.748403 4.999998 -0.000000 0.004007 1.602290
 28 5.500000 -0.000000 -0.000000 0.209991 -0.000000 0.000000
 29 -0.000001 -1.940598 5.000000 -0.044472 0.004003 -0.000180
 30 6.551490 0.000000 0.000002 -0.411739 0.516952 -0.272194
 31 0.000000 -1.940599 5.000001 -0.027189 -0.053376 0.005295
 32 6.551490 0.000000 0.000002 -0.171911 0.260967 -0.098428
 33 -0.000002 -1.940599 4.999997 -0.066572 -0.152786 -0.110311
 34 0.222467 -1.115656 -1.303932 2.081338 0.547071 -1.121516
 35 6.384777 0.000002 -0.000002 0.009842 -0.052106 -1.176507
 36 10.242682 0.000002 -0.000001 0.000000 0.000000 -2.337246
 37 11.375563 -0.000002 0.000000 3.073747 0.261793 0.839306
 38 0.728681 0.023431 1.008292 -1.579583 -0.319038 0.212973
 39 2.136497 0.000001 -0.000000 0.000000 0.000000 1.282817
 40 2.313138 0.000000 0.000000 0.000000 0.000000 3.141593
 41 3.115507 -0.886042 0.021431 0.420766 0.316066 0.167178
 42 2.011147 0.000000 0.000001 -0.000000 0.000000 2.082010
 43 2.141379 -0.000000 0.000000 0.000000 0.000000 3.141593
 44 1.734170 -0.000001 -0.000000 -0.000000 0.000000 1.041748
 45 0.136315 -3.738194 2.525889 1.493698 2.759406 -1.474501
 46 10.273804 -0.437102 1.198993 1.793563 0.004868 1.507198
 47 11.389368 -0.000819 0.158781 2.283493 0.299832 0.353334
 48 -0.000002 -4.440599 -0.000000 1.570144 -3.078602 0.004040
 49 6.000000 -0.000002 -0.000002 2.283493 -0.000000 -0.000000
 50 0.000001 -4.440602 -0.000001 1.569944 -3.078603 0.004053
 51 10.510133 0.000000 0.000001 0.000000 -0.000000 -2.739419
 52 0.000000 -1.748399 -4.999999 -3.141593 0.004007 -1.539299
 53 5.500000 0.000001 0.000000 0.002989 -0.000000 -0.000000
 54 0.000001 0.000001 -5.000001 -0.044472 3.137589 -0.000177
 55 6.551491 0.000000 -0.000001 -0.002989 -0.018812 -0.316966
 56 -1.266844 -1.937443 -4.950560 -0.066572 -2.988806 -0.110308
 57 6.551491 0.000000 -0.000001 -0.002989 -0.018812 -0.316966
 58 0.699372 -1.944206 -5.006849 -0.027189 -3.088217 0.005298
 59 4.226145 -0.003201 0.000000 0.352241 0.091343 0.113429
 60 0.000001 4.999999 0.000000 -0.153564 0.000087 2.718702
 61 0.000004 -0.000004 -3.713580 0.365818 2.880119 -0.191589
 62 0.000002 -0.000000 5.000000 3.053196 1.558589 -0.074928
 63 -0.000007 0.000006 3.713580 -0.001619 -3.122277 -0.475127
 64 0.000002 -0.000001 -5.000000 -0.088726 1.558589 3.066334
 65 7.363602 1.646647 0.495663 3.141593 -1.570796 0.000000
 66 -0.000005 0.000007 3.619081 0.008255 -3.110080 -0.985231
 67 16.573919 0.000002 0.000000 0.000000 -0.000000 -1.065827
 68 15.128181 0.000000 -0.000000 -0.102296 0.010178 0.114297
 69 5.758665 4.244730 0.000000 0.000000 0.000000 1.667687
 70 3.177725 0.000000 -0.000000 0.000000 0.000000 3.141593
 71 15.708953 0.000001 0.000000 -0.051525 0.003996 0.061523
 72 0.275148 0.189215 -3.445207 3.130898 0.000409 -1.514604
 73 17.210192 0.000001 0.000000 0.000000 -0.000000 -1.893339
 74 0.000001 -0.000000 -5.000000 -0.079430 1.546568 -1.570855
 75 0.000002 -0.000003 -3.619081 0.577895 2.675801 -0.242118
 76 16.573921 -0.000001 -0.000002 -0.000000 -0.000000 -1.163030
 77 15.128181 0.000001 0.000001 0.089479 0.309197 0.659208
 78 5.758666 4.244730 -0.000001 -0.000000 -0.000000 1.815142
 79 4.003934 -0.000000 0.000001 0.000000 0.000000 0.000000
 80 15.708954 0.000001 0.000002 0.042277 0.226871 0.443133
 81 0.273998 0.191089 3.439762 -3.130907 -0.000437 -1.508107
 82 17.210194 -0.000001 -0.000002 0.000000 -0.000000 -1.937080
 83 -0.000000 -0.000001 5.000000 -0.079319 1.595025 -1.570742
time 1
  0 -0.650000 0.000000 33.899605 -0.025849 0.174554 -1.569172
  1 5.685104 0.833236 -32.227173 -0.174512 -0.026131 1.569196
  2 -2.276935 0.000003 -1.238188 -1.570795 -1.570451 0.000000
  3 1.797517 0.711827 0.000240 -0.074064 0.076991 0.109431
  4 4.119088 -0.003157 -0.000751 0.237338 -0.228748 0.097384
  5 4.119026 -0.003214 -0.000481 0.151860 -0.250825 0.093770
  6 4.118703 -0.003245 -0.000465 0.143874 -0.160152 0.008158
  7 4.119098 -0.002669 -0.002273 0.701030 0.095956 0.264400
  8 4.443598 0.000000 -0.000001 -0.044901 0.329368 0.374211
  9 9.024061 0.000001 -0.000001 0.000000 0.000000 0.000000
 10 -0.166013 1.116009 1.318018 1.070680 -0.629988 1.922326
 11 6.384777 -0.000000 0.000000 -0.629637 0.775038 -0.518207
 12 10.242681 0.000000 -0.000000 -0.000000 -0.000000 -1.882426
 13 11.375561 -0.000000 0.000000 2.519449 0.109942 0.087566
 14 0.728682 0.023432 -1.008292 1.105900 0.292115 0.601323
 15 2.136497 0.000001 0.000001 0.000000 -0.000000 -0.078540
 16 2.313138 -0.000001 0.000000 0.000000 0.000000 0.000000
 17 3.115507 -0.886042 -0.021430 -0.166499 0.000392 0.514872
 18 2.011152 0.000003 -0.000000 -0.000000 0.000000 1.322792
 19 2.141377 0.000001 -0.000001 0.000000 0.000000 0.000000
 20 1.734171 0.000002 -0.000000 -0.000000 0.000000 0.660693
 21 0.000004 -4.440593 0.000001 1.570544 -0.062990 -0.195737
 22 6.000000 0.000000 -0.000000 2.844229 0.000000 0.000000
 23 0.000001 -4.440600 0.000000 1.569944 -0.062987 0.004053
 24 11.375561 -0.000000 0.000002 -2.666022 0.021719 0.100704
 25 -0.000001 -4.440601 0.000000 1.570144 -0.062988 0.004040
 26 10.510129 0.000000 -0.000000 -0.000000 -0.000000 -2.512010
 27 0.000001 -1.748402 5.000000 0.000000 0.004007 1.602290
 28 5.500000 -0.000000 0.000000 0.202721 -0.000000 0.000000
 29 -0.000003 -1.940598 5.000001 -0.044472 0.004003 -0.000180
 30 6.551491 -0.000001 -0.000001 -0.400544 0.506480 -0.301182
 31 0.000000 -1.940598 5.000000 -0.027189 -0.053376 0.005295
 32 6.551491 -0.000001 -0.000001 -0.165610 0.257210 -0.113466
 33 -0.000001 -1.940599 4.999997 -0.066572 -0.152786 -0.110311
 34 0.166013 -1.108930 -1.318020 2.112377 0.581059 -1.141264
 35 6.384775 0.000001 -0.000000 0.009022 -0.070419 -1.145603
 36 10.242681 0.000002 -0.000002 -0.000000 0.000000 -2.338338
 37 11.375564 0.000001 -0.000001 3.079606 0.249994 0.860422
 38 0.728680 0.023431 1.008293 -1.579583 -0.319038 0.212973
 39 2.136497 0.000000 -0.000001 -0.000000 0.000000 1.282817
 40 2.313140 -0.000000 0.000000 0.000000 0.000000 3.141593
 41 3.115507 -0.886041 0.021431 0.420766 0.316066 0.167178
 42 2.011153 -0.000001 -0.000001 -0.000000 -0.000000 2.082010
 43 2.141380 -0.000000 0.000000 0.000000 0.000000 3.141593
 44 1.734175 -0.000001 -0.000001 0.000000 -0.000000 1.041748
 45 0.136315 -3.738191 2.525891 1.493698 2.759406 -1.474501
 46 10.273807 -0.437101 1.198991 1.793563 0.004868 1.507198
 47 11.389367 -0.000819 0.158779 2.287543 0.298510 0.365302
 48 0.000000 -4.440600 0.000002 1.570144 -3.078602 0.004040
 49 6.000001 0.000000 -0.000002 2.287543 0.000000 -0.000000
 50 0.000001 -4.440600 0.000001 1.569944 -3.078603 0.004053
 51 10.510132 0.000002 -0.000001 -0.000000 0.000000 -2.739965
 52 0.000000 -1.748398 -5.000001 -3.141593 0.004007 -1.539299
 53 5.500000 0.000000 0.000000 0.005353 0.000000 -0.000000
 54 -0.000001 0.000002 -5.000000 -0.044472 3.137589 -0.000177
 55 6.551491 0.000002 -0.000001 -0.005353 -0.024523 -0.311229
 56 -1.266843 -1.937442 -4.950558 -0.066572 -2.988806 -0.110308
 57 6.551491 0.000002 -0.000001 -0.005353 -0.024523 -0.311229
 58 0.699370 -1.944206 -5.006845 -0.027189 -3.088217 0.005298
 59 4.226146 -0.003202 -0.000001 0.348672 0.076948 0.137953
 60 0.000002 5.000000 -0.000000 -0.153564 0.000087 2.718702
 61 0.000004 -0.000004 -3.713580 0.365818 2.880119 -0.191589
 62 0.000002 -0.000000 5.000000 3.053196 1.558589 -0.074928
 63 -0.000007 0.000006 3.713580 -0.001619 -3.122277 -0.475127
 64 0.000002 -0.000001 -5.000000 -0.088726 1.558589 3.066334
 65 7.363602 1.646647 0.495663 3.141593 -1.570796 0.000000
 66 -0.000005 0.000007 3.619081 0.008255 -3.110080 -0.985231
 67 16.573919 0.000002 0.000000 0.000000 -0.000000 -1.065827
 68 15.128181 0.000000 -0.000000 -0.102296 0.010178 0.114297
 69 5.758665 4.244730 0.000000 0.000000 0.000000 1.667687
 70 3.177725 0.000000 -0.000000 0.000000 0.000000 3.141593
 71 15.708953 0.000001 0.000000 -0.051525 0.003996 0.061523
 72 0.275148 0.189215 -3.445207 3.130898 0.000409 -1.514604
 73 17.210192 0.000001 0.000000 0.000000 -0.000000 -1.893339
 74 0.000001 -0.000000 -5.000000 -0.079430 1.546568 -1.570855
 75 0.000002 -0.000003 -3.619081 0.577895 2.675801 -0.242118
 76 16.573921 -0.000001 -0.000002 -0.000000 -0.000000 -1.163030
 77 15.128181 0.000001 0.000001 0.089479 0.309197 0.659208
 78 5.758666 4.244730 -0.000001 -0.000000 -0.000000 1.815142
 79 4.003934 -0.000000 0.000001 0.000000 0.000000 0.000000
 80 15.708954 0.000001 0.000002 0.042277 0.226871 0.443133
 81 0.273998 0.191089 3.439762 -3.130907 -0.000437 -1.508107
 82 17.210194 -0.000001 -0.000002 0.000000 -0.000000 -1.937080
 83 -0.000000 -0.000001 5.000000 -0.079319 1.595025 -1.570742
time 2
  0 -0.650000 0.000000 33.899605 -0.025849 0.174554 -1.569172
  1 5.685104 0.833236 -32.227173 -0.174512 -0.026131 1.569196
  2 -2.276935 0.000003 -1.238188 -1.570795 -1.570451 0.000000
  3 1.797516 0.711825 0.000221 -0.068179 0.053156 0.111464
  4 4.119087 -0.003151 -0.000769 0.242902 -0.222544 0.097757
  5 4.119028 -0.003214 -0.000500 0.157391 -0.239888 0.094165
  6 4.118707 -0.003243 -0.000484 0.149608 -0.153303 0.008271
  7 4.119278 -0.002646 -0.002251 0.691506 0.063511 0.303346
  8 4.443599 -0.000002 0.000001 -0.062425 0.331537 0.278865
  9 9.024062 -0.000001 -0.000000 0.000000 0.000000 0.000000
 10 -0.109975 1.106261 1.332002 1.065617 -0.641936 1.874738
 11 6.384775 0.000001 0.000000 -0.632359 0.771613 -0.553725
 12 10.242681 0.000000 -0.000000 -0.000000 0.000000 -1.835908
 13 11.375562 0.000002 -0.000001 2.513791 0.106179 0.067618
 14 0.728681 0.023429 -1.008293 1.105900 0.292115 0.601323
 15 2.136497 0.000000 0.000000 0.000000 0.000000 -0.078540
 16 2.313140 0.000001 -0.000001 0.000000 0.000000 0.000000
 17 3.115507 -0.886043 -0.021432 -0.166499 0.000392 0.514872
 18 2.011153 0.000001 0.000002 -0.000000 0.000000 1.322792
 19 2.141378 0.000002 -0.000001 0.000000 0.000000 0.000000
 20 1.734173 0.000002 0.000002 0.000000 -0.000000 0.660693
 21 0.000005 -4.440593 0.000001 1.570544 -0.062990 -0.195737
 22 6.000000 0.000002 -0.000001 2.838071 -0.000000 0.000000
 23 0.000001 -4.440600 -0.000001 1.569944 -0.062987 0.004053
 24 11.375561 0.000002 0.000001 -2.668609 0.028651 0.087946
 25 -0.000002 -4.440604 0.000002 1.570144 -0.062988 0.004040
 26 10.510130 0.000000 -0.000001 -0.000000 0.000000 -2.488750
 27 -0.000002 -1.748400 4.999999 -0.000000 0.004007 1.602290
 28 5.500000 0.000000 -0.000000 0.195713 0.000000 0.000000
 29 -0.000004 -1.940598 5.000000 -0.044472 0.004003 -0.000180
 30 6.551490 0.000000 -0.000001 -0.389843 0.496947 -0.329136
 31 0.000002 -1.940598 5.000001 -0.027189 -0.053376 0.005295
 32 6.551490 0.000000 -0.000001 -0.159522 0.253680 -0.127882
 33 -0.000002 -1.940598 4.999996 -0.066572 -0.152786 -0.110311
 34 0.109977 -1.099185 -1.332002 2.145132 0.614321 -1.159488
 35 6.384774 0.000000 0.000000 0.007894 -0.088758 -1.114650
 36 10.242682 0.000001 -0.000001 0.000000 -0.000000 -2.339430
 37 11.375560 0.000002 0.000001 3.085191 0.238079 0.881405
 38 0.728681 0.023431 1.008292 -1.579583 -0.319038 0.212973
 39 2.136497 0.000002 -0.000001 0.000000 0.000000 1.282817
 40 2.313140 0.000000 0.000000 0.000000 0.000000 3.141593
 41 3.115508 -0.886042 0.021430 0.420765 0.316066 0.167178
 42 2.011153 -0.000000 -0.000001 0.000000 0.000000 2.082010
 43 2.141380 0.000001 -0.000001 0.000000 0.000000 3.141593
 44 1.734173 -0.000001 0.000001 0.000000 -0.000000 1.041748
 45 0.136314 -3.738194 2.525889 1.493698 2.759406 -1.474501
 46 10.273804 -0.437103 1.198990 1.793563 0.004868 1.507198
 47 11.389365 -0.000819 0.158782 2.291533 0.297149 0.377266
 48 -0.000001 -4.440600 0.000002 1.570144 -3.078602 0.004040
 49 5.999999 0.000001 0.000000 2.291533 -0.000000 -0.000000
 50 0.000002 -4.440601 -0.000000 1.569944 -3.078603 0.004053
 51 10.510133 0.000001 0.000000 0.000000 0.000000 -2.740511
 52 -0.000001 -1.748401 -5.000002 -3.141593 0.004007 -1.539299
 53 5.500000 0.000000 0.000000 0.007653 0.000000 0.000000
 54 0.000000 0.000001 -5.000001 -0.044472 3.137589 -0.000177
 55 6.551489 0.000000 -0.000000 -0.007653 -0.030230 -0.305813
 56 -1.266843 -1.937442 -4.950561 -0.066572 -2.988806 -0.110308
 57 6.551489 0.000000 -0.000000 -0.007653 -0.030230 -0.305813
 58 0.699370 -1.944207 -5.006846 -0.027189 -3.088217 0.005298
 59 4.226143 -0.003202 0.000000 0.344549 0.062700 0.161954
 60 -0.000003 5.000001 0.000000 -0.153564 0.000087 2.718702
 61 0.000004 -0.000004 -3.713580 0.365818 2.880119 -0.191589
 62 0.000002 -0.000000 5.000000 3.053196 1.558589 -0.074928
 63 -0.000007 0.000006 3.713580 -0.001619 -3.122277 -0.475127
 64 0.000002 -0.000001 -5.000000 -0.088726 1.558589 3.066334
 65 7.363602 1.646647 0.495663 3.141593 -1.570796 0.000000
 66 -0.000005 0.000007 3.619081 0.008255 -3.110080 -0.985231
 67 16.573919 0.000002 0.000000 0.000000 -0.000000 -1.065827
 68 15.128181 0.000000 -0.000000 -0.102296 0.010178 0.114297
 69 5.758665 4.244730 0.000000 0.000000 0.000000 1.667687
 70 3.177725 0.000000 -0.000000 0.000000 0.000000 3.141593
 71 15.708953 0.000001 0.000000 -0.051525 0.003996 0.061523
 72 0.275148 0.189215 -3.445207 3.130898 0.000409 -1.514604
 73 17.210192 0.000001 0.000000 0.000000 -0.000000 -1.893339
 74 0.000001 -0.000000 -5.000000 -0.079430 1.546568 -1.570855
 75 0.000002 -0.000003 -3.619081 0.577895 2.675801 -0.242118
 76 16.573921 -0.000001 -0.000002 -0.000000 -0.000000 -1.163030
 77 15.128181 0.000001 0.000001 0.089479 0.309197 0.659208
 78 5.758666 4.244730 -0.000001 -0.000000 -0.000000 1.815142
 79 4.003934 -0.000000 0.000001 0.000000 0.000000 0.000000
 80 15.708954 0.000001 0.000002 0.042277 0.226871 0.443133
 81 0.273998 0.191089 3.439762 -3.130907 -0.000437 -1.508107
 82 17.210194 -0.000001 -0.000002 0.000000 -0.000000 -1.937080
 83 -0.000000 -0.000001 5.000000 -0.079319 1.595025 -1.570742
time 3
  0 -0.650000 0.000000 33.899605 -0.025849 0.174554 -1.569172
  1 5.685104 0.833236 -32.227173 -0.174512 -0.026131 1.569196
  2 -2.276935 0.000003 -1.238188 -1.570795 -1.570451 0.000000
  3 1.797519 0.711824 0.000202 -0.062348 0.029309 0.113354
  4 4.119086 -0.003146 -0.000788 0.248462 -0.216342 0.098165
  5 4.119030 -0.003210 -0.000519 0.162913 -0.228953 0.094622
  6 4.118705 -0.003239 -0.000502 0.155336 -0.146456 0.008424
  7 4.119458 -0.002613 -0.002225 0.680741 0.031462 0.342539
  8 4.443600 -0.000003 0.000000 -0.080177 0.333165 0.183255
  9 9.024061 0.000002 0.000001 0.000000 0.000000 0.000000
 10 -0.054504 1.093512 1.345846 1.061231 -0.654064 1.826792
 11 6.384777 0.000001 -0.000001 -0.637005 0.767376 -0.589814
 12 10.242682 0.000000 -0.000000 -0.000000 -0.000000 -1.788331
 13 11.375560 -0.000002 -0.000001 2.506971 0.103280 0.046796
 14 0.728680 0.023430 -1.008292 1.105900 0.292115 0.601323
 15 2.136497 -0.000000 0.000001 -0.000000 -0.000000 -0.078540
 16 2.313138 -0.000000 0.000000 0.000000 0.000000 0.000000
 17 3.115507 -0.886041 -0.021431 -0.166499 0.000392 0.514872
 18 2.011152 -0.000001 -0.000001 0.000000 0.000000 1.322792
 19 2.141379 -0.000000 0.000000 0.000000 0.000000 0.000000
 20 1.734172 0.000000 0.000000 -0.000000 0.000000 0.660693
 21 0.000007 -4.440595 0.000000 1.570544 -0.062990 -0.195737
 22 6.000000 0.000000 -0.000000 2.830556 -0.000000 0.000000
 23 0.000002 -4.440602 -0.000000 1.569944 -0.062987 0.004053
 24 11.375562 -0.000002 0.000003 -2.671740 0.036582 0.075035
 25 -0.000000 -4.440604 0.000001 1.570144 -0.062988 0.004040
 26 10.510131 0.000000 -0.000001 -0.000000 0.000000 -2.464962
 27 0.000000 -1.748401 4.999999 -0.000000 0.004007 1.602290
 28 5.499997 0.000000 -0.000000 0.189107 -0.000000 0.000000
 29 -0.000000 -1.940598 5.000000 -0.044472 0.004003 -0.000180
 30 6.551492 0.000000 -0.000002 -0.379869 0.488486 -0.355738
 31 0.000000 -1.940599 5.000001 -0.027189 -0.053376 0.005295
 32 6.551492 0.000000 -0.000002 -0.153769 0.250460 -0.141490
 33 -0.000002 -1.940598 4.999997 -0.066572 -0.152786 -0.110311
 34 0.054511 -1.086443 -1.345845 2.179717 0.646781 -1.176103
 35 6.384775 -0.000000 -0.000001 0.006420 -0.107093 -1.083637
 36 10.242682 -0.000001 0.000001 0.000000 0.000000 -2.340522
 37 11.375562 0.000002 0.000002 3.090501 0.226052 0.902259
 38 0.728680 0.023431 1.008295 -1.579583 -0.319038 0.212973
 39 2.136496 0.000000 0.000000 -0.000000 0.000000 1.282817
 40 2.313139 -0.000000 -0.000001 0.000000 0.000000 3.141593
 41 3.115505 -0.886041 0.021434 0.420766 0.316066 0.167178
 42 2.011152 0.000001 0.000001 -0.000000 0.000000 2.082010
 43 2.141379 -0.000000 -0.000001 0.000000 0.000000 3.141593
 44 1.734174 -0.000002 0.000000 0.000000 -0.000000 1.041748
 45 0.136315 -3.738192 2.525891 1.493698 2.759406 -1.474501
 46 10.273803 -0.437102 1.198992 1.793563 0.004868 1.507198
 47 11.389367 -0.000818 0.158783 2.295465 0.295751 0.389233
 48 0.000001 -4.440599 0.000000 1.570144 -3.078602 0.004040
 49 6.000000 0.000000 0.000001 2.295465 -0.000000 -0.000000
 50 0.000003 -4.440601 -0.000003 1.569944 -3.078603 0.004053
 51 10.510131 -0.000001 0.000001 -0.000000 0.000000 -2.741057
 52 -0.000002 -1.748397 -5.000000 -3.141593 0.004007 -1.539299
 53 5.500000 -0.000002 0.000002 0.009898 -0.000000 -0.000000
 54 0.000000 0.000001 -5.000000 -0.044472 3.137589 -0.000177
 55 6.551492 0.000002 -0.000003 -0.009898 -0.035935 -0.300650
 56 -1.266843 -1.937444 -4.950560 -0.066572 -2.988806 -0.110308
 57 6.551492 0.000002 -0.000003 -0.009898 -0.035935 -0.300650
 58 0.699371 -1.944207 -5.006848 -0.027189 -3.088217 0.005298
 59 4.226147 -0.003203 -0.000000 0.339918 0.048662 0.185386
 60 -0.000002 5.000002 -0.000001 -0.153564 0.000087 2.718702
 61 0.000004 -0.000004 -3.713580 0.365818 2.880119 -0.191589
 62 0.000002 -0.000000 5.000000 3.053196 1.558589 -0.074928
 63 -0.000007 0.000006 3.713580 -0.001619 -3.122277 -0.475127
 64 0.000002 -0.000001 -5.000000 -0.088726 1.558589 3.066334
 65 7.363602 1.646647 0.495663 3.141593 -1.570796 0.000000
 66 -0.000005 0.000007 3.619081 0.008255 -3.110080 -0.985231
 67 16.573919 0.000002 0.000000 0.000000 -0.000000 -1.065827
 68 15.128181 0.000000 -0.000000 -0.102296 0.010178 0.114297
 69 5.758665 4.244730 0.000000 0.000000 0.000000 1.667687
 70 3.177725 0.000000 -0.000000 0.000000 0.000000 3.141593
 71 15.708953 0.000001 0.000000 -0.051525 0.003996 0.061523
 72 0.275148 0.189215 -3.445207 3.130898 0.000409 -1.514604
 73 17.210192 0.000001 0.000000 0.000000 -0.000000 -1.893339
 74 0.000001 -0.000000 -5.000000 -0.079430 1.546568 -1.570855
 75 0.000002 -0.000003 -3.619081 0.577895 2.675801 -0.242118
 76 16.573921 -0.000001 -0.000002 -0.000000 -0.000000 -1.163030
 77 15.128181 0.000001 0.000001 0.089479 0.309197 0.659208
 78 5.758666 4.244730 -0.000001 -0.000000 -0.000000 1.815142
 79 4.003934 -0.000000 0.000001 0.000000 0.000000 0.000000
 80 15.708954 0.000001 0.000002 0.042277 0.226871 0.443133
 81 0.273998 0.191089 3.439762 -3.130907 -0.000437 -1.508107
 82 17.210194 -0.000001 -0.000002 0.000000 -0.000000 -1.937080
 83 -0.000000 -0.000001 5.000000 -0.079319 1.595025 -1.570742
time 4
  0 -0.650000 0.000000 33.899605 -0.025849 0.174554 -1.569172
  1 5.685104 0.833236 -32.227173 -0.174512 -0.026131 1.569196
  2 -2.276935 0.000003 -1.238188 -1.570795 -1.570451 0.000000
  3 1.797519 0.711824 0.000202 -0.062348 0.029309 0.113354
  4 4.119086 -0.003146 -0.000788 0.248462 -0.216342 0.098165
  5 4.119030 -0.003210 -0.000519 0.162913 -0.228953 0.094622
  6 4.118705 -0.003239 -0.000502 0.155336 -0.146456 0.008424
  7 4.119458 -0.002613 -0.002225 0.680741 0.031462 0.342539
  8 4.443600 -0.000003 0.000000 -0.080177 0.333165 0.183255
  9 9.024061 0.000002 0.000001 0.000000 0.000000 0.000000
 10 -0.054504 1.093512 1.345846 1.061231 -0.654064 1.826792
 11 6.384777 0.000001 -0.000001 -0.627177 0.774962 -0.578177
 12 10.242682 -0.000000 0.000000 -0.000000 -0.000000 -1.777833
 13 11.375561 -0.000001 -0.000001 2.497160 0.103078 0.037603
 14 0.728680 0.023431 -1.008291 1.105900 0.292115 0.601323
 15 2.136499 0.000002 -0.000001 0.000000 -0.000000 -0.078540
 16 2.313138 0.000001 0.000001 0.000000 0.000000 0.000000
 17 3.115506 -0.886042 -0.021430 -0.166499 0.000392 0.514872
 18 2.011151 -0.000001 -0.000001 0.000000 0.000000 1.322792
 19 2.141380 -0.000001 0.000000 0.000000 0.000000 0.000000
 20 1.734172 0.000001 0.000002 -0.000000 -0.000000 0.660693
 21 0.000007 -4.440595 -0.000000 1.570544 -0.062990 -0.195737
 22 5.999999 0.000001 -0.000001 2.819609 0.000000 0.000000
 23 0.000002 -4.440602 -0.000000 1.569944 -0.062987 0.004053
 24 11.375561 -0.000001 0.000003 -2.676455 0.040620 0.070127
 25 -0.000001 -4.440603 0.000000 1.570144 -0.062988 0.004040
 26 10.510129 -0.000000 -0.000000 -0.000000 -0.000000 -2.459713
 27 0.000001 -1.748401 4.999999 -0.000000 0.004007 1.602291
 28 5.499999 0.000000 -0.000000 0.186412 -0.000000 0.000000
 29 -0.000003 -1.940598 5.000000 -0.044472 0.004003 -0.000180
 30 6.551492 0.000000 -0.000002 -0.374720 0.493337 -0.348068
 31 0.000001 -1.940598 5.000000 -0.027189 -0.053376 0.005295
 32 6.551492 0.000000 -0.000002 -0.151587 0.252299 -0.137966
 33 -0.000001 -1.940599 4.999997 -0.066572 -0.152786 -0.110311
 34 0.054511 -1.086443 -1.345845 2.209903 0.666751 -1.144373
 35 6.384776 -0.000001 0.000001 0.006794 -0.121887 -1.072537
 36 10.242682 -0.000001 -0.000000 0.000000 -0.000000 -2.341614
 37 11.375561 -0.000002 -0.000001 3.095539 0.213921 0.922991
 38 0.728680 0.023430 1.008290 -1.579583 -0.319038 0.212973
 39 2.136497 0.000001 -0.000000 -0.000000 0.000000 1.282817
 40 2.313140 0.000000 0.000000 0.000000 0.000000 3.141593
 41 3.115505 -0.886041 0.021430 0.420765 0.316066 0.167178
 42 2.011152 -0.000001 -0.000002 -0.000000 0.000000 2.082010
 43 2.141380 -0.000001 0.000000 0.000000 0.000000 3.141593
 44 1.734174 -0.000001 -0.000001 -0.000000 -0.000000 1.041748
 45 0.136315 -3.738193 2.525888 1.493698 2.759406 -1.474501
 46 10.273803 -0.437102 1.198988 1.793563 0.004868 1.507198
 47 11.389366 -0.000820 0.158781 2.299338 0.294320 0.401211
 48 0.000000 -4.440599 0.000002 1.570144 -3.078602 0.004040
 49 5.999999 -0.000000 -0.000001 2.299338 0.000000 0.000000
 50 -0.000000 -4.440601 -0.000000 1.569944 -3.078603 0.004053
 51 10.510132 -0.000000 -0.000001 -0.000000 -0.000000 -2.741603
 52 0.000000 -1.748400 -5.000002 3.141593 0.004007 -1.539299
 53 5.499999 -0.000000 -0.000001 0.011265 -0.000000 -0.000000
 54 0.000001 0.000001 -5.000001 -0.044472 3.137589 -0.000177
 55 6.551491 -0.000000 0.000000 -0.011265 -0.040817 -0.298754
 56 -1.266843 -1.937442 -4.950557 -0.066572 -2.988806 -0.110308
 57 6.551492 -0.000000 0.000000 -0.011265 -0.040817 -0.298754
 58 0.699372 -1.944208 -5.006846 -0.027189 -3.088217 0.005298
 59 4.226147 -0.003203 -0.000000 0.339918 0.048662 0.185386
 60 -0.000002 5.000002 -0.000001 -0.153564 0.000087 2.718702
 61 0.000004 -0.000004 -3.713580 0.365818 2.880119 -0.191589
 62 0.000002 -0.000000 5.000000 3.053196 1.558589 -0.074928
 63 -0.000007 0.000006 3.713580 -0.001619 -3.122277 -0.475127
 64 0.000002 -0.000001 -5.000000 -0.088726 1.558589 3.066334
 65 7.363602 1.646647 0.495663 3.141593 -1.570796 0.000000
 66 -0.000005 0.000007 3.619081 0.008255 -3.110080 -0.985231
 67 16.573919 0.000002 0.000000 0.000000 -0.000000 -1.065827
 68 15.128181 0.000000 -0.000000 -0.102296 0.010178 0.114297
 69 5.758665 4.244730 0.000000 0.000000 0.000000 1.667687
 70 3.177725 0.000000 -0.000000 0.000000 0.000000 3.141593
 71 15.708953 0.000001 0.000000 -0.051525 0.003996 0.061523
 72 0.275148 0.189215 -3.445207 3.130898 0.000409 -1.514604
 73 17.210192 0.000001 0.000000 0.000000 -0.000000 -1.893339
 74 0.000001 -0.000000 -5.000000 -0.079430 1.546568 -1.570855
 75 0.000002 -0.000003 -3.619081 0.577895 2.675801 -0.242118
 76 16.573921 -0.000001 -0.000002 -0.000000 -0.000000 -1.163030
 77 15.128181 0.000001 0.000001 0.089479 0.309197 0.659208
 78 5.758666 4.244730 -0.000001 -0.000000 -0.000000 1.815142
 79 4.003934 -0.000000 0.000001 0.000000 0.000000 0.000000
 80 15.708954 0.000001 0.000002 0.042277 0.226871 0.443133
 81 0.273998 0.191089 3.439762 -3.130907 -0.000437 -1.508107
 82 17.210194 -0.000001 -0.000002 0.000000 -0.000000 -1.937080
 83 -0.000000 -0.000001 5.000000 -0.079319 1.595025 -1.570742
time 5
  0 -0.650000 0.000000 33.899605 -0.025849 0.174554 -1.569172
  1 5.685104 0.833236 -32.227173 -0.174512 -0.026131 1.569196
  2 -2.276935 0.000003 -1.238188 -1.570795 -1.570451 0.000000
  3 1.797519 0.711824 0.000202 -0.062348 0.029309 0.113354
  4 4.119086 -0.003146 -0.000788 0.248462 -0.216342 0.098165
  5 4.119030 -0.003210 -0.000519 0.162913 -0.228953 0.094622
  6 4.118705 -0.003239 -0.000502 0.155336 -0.146456 0.008424
  7 4.119458 -0.002613 -0.002225 0.680741 0.031462 0.342539
  8 4.443600 -0.000003 0.000000 -0.080177 0.333165 0.183255
  9 9.024061 0.000002 0.000001 0.000000 0.000000 0.000000
 10 -0.054504 1.093512 1.345846 1.061231 -0.654064 1.826792
 11 6.384777 0.000001 -0.000001 -0.627177 0.774962 -0.578177
 12 10.242682 -0.000000 0.000000 -0.000000 -0.000000 -1.777833
 13 11.375561 -0.000001 -0.000001 2.497160 0.103078 0.037603
 14 0.728680 0.023431 -1.008291 1.105900 0.292115 0.601323
 15 2.136499 0.000002 -0.000001 0.000000 -0.000000 -0.078540
 16 2.313138 0.000001 0.000001 0.000000 0.000000 0.000000
 17 3.115506 -0.886042 -0.021430 -0.166499 0.000392 0.514872
 18 2.011151 -0.000001 -0.000001 0.000000 0.000000 1.322792
 19 2.141380 -0.000001 0.000000 0.000000 0.000000 0.000000
 20 1.734172 0.000001 0.000002 -0.000000 -0.000000 0.660693
 21 0.000007 -4.440595 -0.000000 1.570544 -0.062990 -0.195737
 22 5.999999 0.000001 -0.000001 2.819609 0.000000 0.000000
 23 0.000002 -4.440602 -0.000000 1.569944 -0.062987 0.004053
 24 11.375561 -0.000001 0.000003 -2.676455 0.040620 0.070127
 25 -0.000001 -4.440603 0.000000 1.570144 -0.062988 0.004040
 26 10.510129 -0.000000 -0.000000 -0.000000 -0.000000 -2.459713
 27 0.000001 -1.748401 4.999999 -0.000000 0.004007 1.602291
 28 5.499999 0.000000 -0.000000 0.186412 -0.000000 0.000000
 29 -0.000003 -1.940598 5.000000 -0.044472 0.004003 -0.000180
 30 6.551492 0.000000 -0.000002 -0.374720 0.493337 -0.348068
 31 0.000001 -1.940598 5.000000 -0.027189 -0.053376 0.005295
 32 6.551492 0.000000 -0.000002 -0.151587 0.252299 -0.137966
 33 -0.000001 -1.940599 4.999997 -0.066572 -0.152786 -0.110311
 34 0.054511 -1.086443 -1.345845 2.209903 0.666751 -1.144373
 35 6.384776 -0.000001 0.000001 0.006794 -0.121887 -1.072537
 36 10.242682 -0.000001 -0.000000 0.000000 -0.000000 -2.341614
 37 11.375561 -0.000002 -0.000001 3.095539 0.213921 0.922991
 38 0.728680 0.023430 1.008290 -1.579583 -0.319038 0.212973
 39 2.136497 0.000001 -0.000000 -0.000000 0.000000 1.282817
 40 2.313140 0.000000 0.000000 0.000000 0.000000 3.141593
 41 3.115505 -0.886041 0.021430 0.420765 0.316066 0.167178
 42 2.011152 -0.000001 -0.000002 -0.000000 0.000000 2.082010
 43 2.141380 -0.000001 0.000000 0.000000 0.000000 3.141593
 44 1.734174 -0.000001 -0.000001 -0.000000 -0.000000 1.041748
 45 0.136315 -3.738193 2.525888 1.493698 2.759406 -1.474501
 46 10.273803 -0.437102 1.198988 1.793563 0.004868 1.507198
 47 11.389366 -0.000820 0.158781 2.299338 0.294320 0.401211
 48 0.000000 -4.440599 0.000002 1.570144 -3.078602 0.004040
 49 5.999999 -0.000000 -0.000001 2.299338 0.000000 0.000000
 50 -0.000000 -4.440601 -0.000000 1.569944 -3.078603 0.004053
 51 10.510132 -0.000000 -0.000001 -0.000000 -0.000000 -2.741603
 52 0.000000 -1.748400 -5.000002 3.141593 0.004007 -1.539299
 53 5.499999 -0.000000 -0.000001 0.011265 -0.000000 -0.000000
 54 0.000001 0.000001 -5.000001 -0.044472 3.137589 -0.000177
 55 6.551491 -0.000000 0.000000 -0.011265 -0.040817 -0.298754
 56 -1.266843 -1.937442 -4.950557 -0.066572 -2.988806 -0.110308
 57 6.551492 -0.000000 0.000000 -0.011265 -0.040817 -0.298754
 58 0.699372 -1.944208 -5.006846 -0.027189 -3.088217 0.005298
 59 4.226147 -0.003203 -0.000000 0.339918 0.048662 0.185386
 60 -0.000002 5.000002 -0.000001 -0.153564 0.000087 2.718702
 61 0.000004 -0.000004 -3.713580 0.365818 2.880119 -0.191589
 62 0.000002 -0.000000 5.000000 3.053196 1.558589 -0.074928
 63 -0.000007 0.000006 3.713580 -0.001619 -3.122277 -0.475127
 64 0.000002 -0.000001 -5.000000 -0.088726 1.558589 3.066334
 65 7.363602 1.646647 0.495663 3.141593 -1.570796 0.000000
 66 -0.000005 0.000007 3.619081 0.008255 -3.110080 -0.985231
 67 16.573919 0.000002 0.000000 0.000000 -0.000000 -1.065827
 68 15.128181 0.000000 -0.000000 -0.102296 0.010178 0.114297
 69 5.758665 4.244730 0.000000 0.000000 0.000000 1.667687
 70 3.177725 0.000000 -0.000000 0.000000 0.000000 3.141593
 71 15.708953 0.000001 0.000000 -0.051525 0.003996 0.061523
 72 0.275148 0.189215 -3.445207 3.130898 0.000409 -1.514604
 73 17.210192 0.000001 0.000000 0.000000 -0.000000 -1.893339
 74 0.000001 -0.000000 -5.000000 -0.079430 1.546568 -1.570855
 75 0.000002 -0.000003 -3.619081 0.577895 2.675801 -0.242118
 76 16.573921 -0.000001 -0.000002 -0.000000 -0.000000 -1.163030
 77 15.128181 0.000001 0.000001 0.089479 0.309197 0.659208
 78 5.758666 4.244730 -0.000001 -0.000000 -0.000000 1.815142
 79 4.003934 -0.000000 0.000001 0.000000 0.000000 0.000000
 80 15.708954 0.000001 0.000002 0.042277 0.226871 0.443133
 81 0.273998 0.191089 3.439762 -3.130907 -0.000437 -1.508107
 82 17.210194 -0.000001 -0.000002 0.000000 -0.000000 -1.937080
 83 -0.000000 -0.000001 5.000000 -0.079319 1.595025 -1.570742
end
