version 1
nodes
  0 "Bip01"  -1
  1 "Bip01 Footsteps"   0
  2 "Bip01 Pelvis"   0
  3 "Bip01 Spine"   2
  4 "Bip01 Spine1"   3
  5 "Bip01 Spine2"   4
  6 "Bip01 Spine3"   5
  7 "Bip01 Neck"   6
  8 "Bip01 Head"   7
  9 "Dummy21"   8
 10 "Bip01 L Clavicle"   7
 11 "Bip01 L UpperArm"  10
 12 "Bip01 L Forearm"  11
 13 "Bip01 L Hand"  12
 14 "Bip01 L Finger0"  13
 15 "Bip01 L Finger01"  14
 16 "Dummy06"  15
 17 "Bip01 L Finger1"  13
 18 "Bip01 L Finger11"  17
 19 "Dummy03"  18
 20 "-- L knuckle"  17
 21 "-- L knuckle_end"  20
 22 "-- L Forearm twist"  12
 23 "-- L Forearm twist_end"  22
 24 "-- L wrist"  12
 25 "-- L wrist_end"  24
 26 "-- L Elbow"  11
 27 "--L Elbow_end"  26
 28 "-- L bicep twist"  11
 29 "-- L bicep twist_end"  28
 30 "-- L shoulder outside"  10
 31 "-- L shoulder outside_end"  30
 32 "-- L Shoulder inside"  10
 33 "-- L Shoulder inside_end"  32
 34 "Bip01 R Clavicle"   7
 35 "Bip01 R UpperArm"  34
 36 "Bip01 R Forearm"  35
 37 "Bip01 R Hand"  36
 38 "Bip01 R Finger0"  37
 39 "Bip01 R Finger01"  38
 40 "Dummy01"  39
 41 "Bip01 R Finger1"  37
 42 "Bip01 R Finger11"  41
 43 "Dummy02"  42
 44 "-- R knuckle"  41
 45 "Point06"  44
 46 "Line03"  37
 47 "-- R wrist"  36
 48 "-- R wrist_end"  47
 49 "-- R forearm twist"  36
 50 "-- R forearm twist_end"  49
 51 "-- R Elbow"  35
 52 "--R Elbow_end"  51
 53 "-- R bicep twist"  35
 54 "-- R bicep twist_end"  53
 55 "-- R Shoulder inside"  34
 56 "-- R Shoulder inside_end"  55
 57 "-- R shoulder outside"  34
 58 "-- R shoulder outside_end"  57
 59 "-- Neck smooth"   6
 60 "-- neck smooth end"  59
 61 "-- R Butt"   2
 62 "--R Butt_end"  61
 63 "-- L butt"   2
 64 "--L butt_end"  63
 65 "GIGN01"   2
 66 "Bip01 L Thigh"   2
 67 "Bip01 L Calf"  66
 68 "Bip01 L Foot"  67
 69 "Bip01 L Toe0"  68
 70 "Dummy16"  69
 71 "-- L ankle"  67
 72 "-- L ankleend"  71
 73 "-- L Knee"  66
 74 "--L Knee_end"  73
 75 "Bip01 R Thigh"   2
 76 "Bip01 R Calf"  75
 77 "Bip01 R Foot"  76
 78 "Bip01 R Toe0"  77
 79 "Dummy11"  78
 80 "-- R Ankle"  76
 81 "-- R ankleend"  80
 82 "-- R Knee"  75
 83 "--R Knee_end"  82
end
skeleton
time 0
  0 -0.650000 0.000000 33.899605 -0.025849 0.174554 -1.569172
  1 5.685104 0.833236 -32.227173 -0.174512 -0.026131 1.569196
  2 -2.276935 0.000003 -1.238188 -1.570795 -1.570451 0.000000
  3 1.796694 0.712675 0.002187 -0.754074 0.224447 -0.391128
  4 4.118674 -0.003271 0.000218 -0.067485 -0.122293 0.030528
  5 4.118376 -0.003033 0.001226 -0.393477 -0.221528 0.016356
  6 4.119485 -0.002946 0.001140 -0.357377 0.114073 0.249020
  7 4.119591 -0.003398 0.000057 -0.017537 0.411341 0.275847
  8 4.443601 -0.000000 0.000000 0.061346 0.259105 0.001965
  9 9.024062 0.000000 -0.000001 0.000000 0.000000 0.000000
 10 -0.692808 -0.024317 1.587941 0.522979 -1.117820 2.263943
 11 6.384776 0.000000 0.000001 1.541668 2.875717 1.296270
 12 10.242683 -0.000000 -0.000001 -0.000000 0.000000 -0.946714
 13 11.375559 0.000001 -0.000002 -2.955462 0.819369 -0.077351
 14 0.728683 0.023433 -1.008292 2.098333 -0.050480 0.642666
 15 2.136500 -0.000002 0.000001 0.000000 -0.000000 -0.078540
 16 2.313140 0.000000 -0.000001 0.000000 0.000000 0.000000
 17 3.115508 -0.886041 -0.021431 -0.162706 -0.035495 0.299633
 18 2.011151 0.000001 0.000001 0.000000 -0.000000 1.104625
 19 2.141378 0.000002 0.000001 0.000000 0.000000 0.000000
 20 1.734171 0.000001 0.000002 -0.000000 -0.000000 0.551513
 21 0.000005 -4.440594 0.000002 1.570544 -0.062990 -0.195737
 22 6.000000 -0.000000 -0.000001 -2.592398 0.000000 -0.000000
 23 0.000000 -4.440601 0.000000 1.569944 -0.062987 0.004053
 24 11.375561 0.000001 0.000002 -2.183667 0.419003 0.127847
 25 -0.000004 -4.440605 0.000003 1.570144 -0.062988 0.004040
 26 10.510130 -0.000001 -0.000001 -0.000000 0.000000 -2.044153
 27 0.000003 -1.748401 4.999999 0.000000 0.004007 1.602291
 28 5.500000 -0.000000 0.000000 0.361516 0.000000 0.000000
 29 -0.000002 -1.940600 5.000000 -0.044472 0.004003 -0.000180
 30 6.551491 0.000000 -0.000000 -1.283108 0.520907 -1.643396
 31 0.000000 -1.940596 5.000001 -0.027189 -0.053376 0.005295
 32 6.551491 0.000000 -0.000000 -0.233903 0.352215 -0.374409
 33 -0.000001 -1.940599 4.999997 -0.066572 -0.152786 -0.110311
 34 0.692812 0.031394 -1.587942 2.319768 1.108722 -1.216075
 35 6.384777 -0.000000 0.000001 0.066072 0.068426 -0.972722
 36 10.242682 0.000000 -0.000001 0.000000 0.000000 -2.265364
 37 11.375561 -0.000001 0.000001 3.005908 0.334417 1.092343
 38 0.728680 0.023432 1.008290 -1.579583 -0.319038 0.212973
 39 2.136497 0.000000 -0.000001 -0.000000 0.000000 1.282817
 40 2.313140 0.000002 -0.000000 0.000000 0.000000 3.141593
 41 3.115505 -0.886041 0.021428 0.420766 0.316066 0.167178
 42 2.011151 -0.000001 0.000000 -0.000000 0.000000 2.082010
 43 2.141381 -0.000000 0.000001 0.000000 0.000000 3.141593
 44 1.734173 -0.000001 0.000000 -0.000000 0.000000 1.041748
 45 0.136314 -3.738192 2.525889 1.493698 2.759406 -1.474501
 46 10.273803 -0.437101 1.198989 1.793563 0.004868 1.507198
 47 11.389365 -0.000820 0.158779 2.220447 0.359746 0.451645
 48 0.000001 -4.440600 0.000001 1.570144 -3.078602 0.004040
 49 6.000000 0.000000 -0.000001 2.220447 0.000000 -0.000000
 50 0.000002 -4.440602 0.000001 1.569944 -3.078603 0.004053
 51 10.510131 0.000001 -0.000001 -0.000000 0.000000 -2.703478
 52 -0.000001 -1.748400 -5.000004 3.141593 0.004007 -1.539299
 53 5.500000 0.000000 0.000001 -0.029147 0.000000 0.000000
 54 -0.000000 0.000001 -5.000001 -0.044472 3.137589 -0.000177
 55 6.551491 -0.000001 0.000002 0.029147 0.012940 -0.285116
 56 -1.266843 -1.937443 -4.950561 -0.066572 -2.988806 -0.110308
 57 6.551491 -0.000001 0.000002 0.029147 0.012940 -0.285116
 58 0.699371 -1.944209 -5.006846 -0.027189 -3.088217 0.005298
 59 4.226144 -0.003201 -0.000000 -0.022124 0.212088 0.150889
 60 0.000002 4.999999 0.000000 -0.153564 0.000087 2.718702
 61 0.000004 -0.000004 -3.713580 0.365818 2.880119 -0.191589
 62 0.000002 -0.000000 5.000000 3.053196 1.558589 -0.074928
 63 -0.000007 0.000006 3.713580 -0.001619 -3.122277 -0.475127
 64 0.000002 -0.000001 -5.000000 -0.088726 1.558589 3.066334
 65 7.363602 1.646647 0.495663 3.141593 -1.570796 0.000000
 66 -0.000005 0.000007 3.619081 0.008255 -3.110080 -0.985231
 67 16.573919 0.000002 0.000000 0.000000 -0.000000 -1.065827
 68 15.128181 0.000000 -0.000000 -0.102296 0.010178 0.114297
 69 5.758665 4.244730 0.000000 0.000000 0.000000 1.667687
 70 3.177725 0.000000 -0.000000 0.000000 0.000000 3.141593
 71 15.708953 0.000001 0.000000 -0.051525 0.003996 0.061523
 72 0.275148 0.189215 -3.445207 3.130898 0.000409 -1.514604
 73 17.210192 0.000001 0.000000 0.000000 -0.000000 -1.893339
 74 0.000001 -0.000000 -5.000000 -0.079430 1.546568 -1.570855
 75 0.000002 -0.000003 -3.619081 0.577895 2.675801 -0.242118
 76 16.573921 -0.000001 -0.000002 -0.000000 -0.000000 -1.163030
 77 15.128181 0.000001 0.000001 0.089479 0.309197 0.659208
 78 5.758666 4.244730 -0.000001 -0.000000 -0.000000 1.815142
 79 4.003934 -0.000000 0.000001 0.000000 0.000000 0.000000
 80 15.708954 0.000001 0.000002 0.042277 0.226871 0.443133
 81 0.273998 0.191089 3.439762 -3.130907 -0.000437 -1.508107
 82 17.210194 -0.000001 -0.000002 0.000000 -0.000000 -1.937080
 83 -0.000000 -0.000001 5.000000 -0.079319 1.595025 -1.570742
time 1
  0 -0.650000 0.000000 33.899605 -0.025849 0.174554 -1.569172
  1 5.685104 0.833236 -32.227173 -0.174512 -0.026131 1.569196
  2 -2.276935 0.000003 -1.238188 -1.570795 -1.570451 0.000000
  3 1.796694 0.712675 0.002187 -0.754074 0.224447 -0.391128
  4 4.118674 -0.003271 0.000218 -0.067485 -0.122293 0.030528
  5 4.118443 -0.003032 0.001241 -0.397631 -0.213682 0.035600
  6 4.119539 -0.002931 0.001134 -0.355452 0.120163 0.265489
  7 4.119592 -0.003397 0.000057 -0.017537 0.411341 0.275847
  8 4.443598 -0.000000 0.000000 0.080335 0.266010 -0.024679
  9 9.024062 -0.000001 0.000000 0.000000 0.000000 0.000000
 10 -0.692810 -0.024317 1.587942 0.522979 -1.117820 2.263943
 11 6.384776 0.000001 0.000003 1.569778 2.932196 1.307193
 12 10.242682 0.000000 -0.000000 -0.000000 0.000000 -0.900220
 13 11.375560 0.000001 -0.000002 -2.960926 0.817992 -0.092215
 14 0.728681 0.023431 -1.008290 2.098333 -0.050480 0.642666
 15 2.136497 -0.000000 -0.000000 -0.000000 0.000000 -0.078540
 16 2.313140 0.000001 -0.000000 0.000000 0.000000 0.000000
 17 3.115507 -0.886042 -0.021430 -0.162706 -0.035495 0.299633
 18 2.011147 -0.000001 0.000000 -0.000000 -0.000000 1.104625
 19 2.141382 0.000000 0.000000 0.000000 0.000000 0.000000
 20 1.734172 0.000003 0.000000 0.000000 0.000000 0.551513
 21 0.000002 -4.440593 0.000001 1.570544 -0.062990 -0.195737
 22 5.999998 0.000001 -0.000001 -2.595521 0.000000 -0.000000
 23 0.000002 -4.440599 -0.000000 1.569944 -0.062987 0.004053
 24 11.375560 0.000001 0.000001 -2.184445 0.420936 0.121335
 25 -0.000001 -4.440602 0.000001 1.570144 -0.062988 0.004040
 26 10.510129 -0.000000 -0.000001 0.000000 0.000000 -2.020906
 27 0.000000 -1.748401 4.999999 -0.000000 0.004007 1.602291
 28 5.499999 0.000000 -0.000000 0.369491 0.000000 0.000000
 29 -0.000002 -1.940597 5.000000 -0.044472 0.004003 -0.000180
 30 6.551491 -0.000000 -0.000002 -1.264832 0.471026 -1.644261
 31 0.000001 -1.940597 5.000001 -0.027189 -0.053376 0.005295
 32 6.551491 -0.000000 -0.000002 -0.240298 0.336149 -0.383324
 33 -0.000002 -1.940599 4.999997 -0.066572 -0.152786 -0.110311
 34 0.692812 0.031393 -1.587941 2.363937 1.132111 -1.163878
 35 6.384777 -0.000002 0.000001 0.097869 0.079150 -0.942762
 36 10.242682 0.000001 0.000000 0.000000 -0.000000 -2.264632
 37 11.375563 -0.000000 0.000001 3.005908 0.334417 1.092343
 38 0.728681 0.023431 1.008290 -1.579583 -0.319038 0.212973
 39 2.136497 0.000000 -0.000000 -0.000000 0.000000 1.282817
 40 2.313139 0.000001 -0.000000 0.000000 0.000000 3.141593
 41 3.115506 -0.886041 0.021431 0.420766 0.316066 0.167178
 42 2.011151 0.000000 -0.000001 -0.000000 0.000000 2.082010
 43 2.141379 -0.000000 -0.000001 0.000000 0.000000 3.141593
 44 1.734172 -0.000001 -0.000002 -0.000000 -0.000000 1.041748
 45 0.136315 -3.738192 2.525893 1.493698 2.759406 -1.474501
 46 10.273804 -0.437102 1.198990 1.793563 0.004868 1.507198
 47 11.389366 -0.000819 0.158783 2.220447 0.359746 0.451645
 48 0.000001 -4.440601 0.000002 1.570144 -3.078602 0.004040
 49 6.000000 0.000000 0.000001 2.220447 0.000000 0.000000
 50 0.000002 -4.440599 -0.000001 1.569944 -3.078603 0.004053
 51 10.510131 0.000001 -0.000001 -0.000000 -0.000000 -2.703112
 52 0.000001 -1.748400 -5.000003 3.141593 0.004007 -1.539299
 53 5.499999 0.000000 -0.000002 -0.040447 -0.000000 0.000000
 54 0.000000 0.000000 -4.999999 -0.044472 3.137589 -0.000177
 55 6.551491 -0.000000 -0.000003 0.040447 0.012552 -0.281151
 56 -1.266843 -1.937444 -4.950557 -0.066572 -2.988806 -0.110308
 57 6.551491 -0.000000 -0.000003 0.040447 0.012552 -0.281151
 58 0.699370 -1.944209 -5.006845 -0.027189 -3.088217 0.005298
 59 4.226148 -0.003202 -0.000000 -0.022124 0.212087 0.150888
 60 0.000001 5.000000 0.000000 -0.153564 0.000087 2.718702
 61 0.000004 -0.000004 -3.713580 0.365818 2.880119 -0.191589
 62 0.000002 -0.000000 5.000000 3.053196 1.558589 -0.074928
 63 -0.000007 0.000006 3.713580 -0.001619 -3.122277 -0.475127
 64 0.000002 -0.000001 -5.000000 -0.088726 1.558589 3.066334
 65 7.363602 1.646647 0.495663 3.141593 -1.570796 0.000000
 66 -0.000005 0.000007 3.619081 0.008255 -3.110080 -0.985231
 67 16.573919 0.000002 0.000000 0.000000 -0.000000 -1.065827
 68 15.128181 0.000000 -0.000000 -0.102296 0.010178 0.114297
 69 5.758665 4.244730 0.000000 0.000000 0.000000 1.667687
 70 3.177725 0.000000 -0.000000 0.000000 0.000000 3.141593
 71 15.708953 0.000001 0.000000 -0.051525 0.003996 0.061523
 72 0.275148 0.189215 -3.445207 3.130898 0.000409 -1.514604
 73 17.210192 0.000001 0.000000 0.000000 -0.000000 -1.893339
 74 0.000001 -0.000000 -5.000000 -0.079430 1.546568 -1.570855
 75 0.000002 -0.000003 -3.619081 0.577895 2.675801 -0.242118
 76 16.573921 -0.000001 -0.000002 -0.000000 -0.000000 -1.163030
 77 15.128181 0.000001 0.000001 0.089479 0.309197 0.659208
 78 5.758666 4.244730 -0.000001 -0.000000 -0.000000 1.815142
 79 4.003934 -0.000000 0.000001 0.000000 0.000000 0.000000
 80 15.708954 0.000001 0.000002 0.042277 0.226871 0.443133
 81 0.273998 0.191089 3.439762 -3.130907 -0.000437 -1.508107
 82 17.210194 -0.000001 -0.000002 0.000000 -0.000000 -1.937080
 83 -0.000000 -0.000001 5.000000 -0.079319 1.595025 -1.570742
time 2
  0 -0.650000 0.000000 33.899605 -0.025849 0.174554 -1.569172
  1 5.685104 0.833236 -32.227173 -0.174512 -0.026131 1.569196
  2 -2.276935 0.000003 -1.238188 -1.570795 -1.570451 0.000000
  3 1.796694 0.712675 0.002187 -0.754074 0.224447 -0.391128
  4 4.118674 -0.003271 0.000218 -0.067485 -0.122293 0.030528
  5 4.118507 -0.003029 0.001255 -0.401624 -0.205759 0.054777
  6 4.119596 -0.002916 0.001126 -0.353426 0.126221 0.281983
  7 4.119592 -0.003398 0.000057 -0.017537 0.411341 0.275847
  8 4.443599 0.000002 -0.000000 0.099268 0.273328 -0.051166
  9 9.024062 -0.000001 0.000001 0.000000 0.000000 0.000000
 10 -0.692807 -0.024317 1.587942 0.522979 -1.117820 2.263943
 11 6.384778 -0.000000 -0.000002 -1.544758 0.151896 -1.825389
 12 10.242681 -0.000000 -0.000001 -0.000000 -0.000000 -0.850967
 13 11.375561 -0.000001 0.000001 -2.966790 0.817172 -0.109442
 14 0.728680 0.023431 -1.008292 2.098333 -0.050480 0.642666
 15 2.136494 0.000000 -0.000000 0.000000 0.000000 -0.078540
 16 2.313139 -0.000000 -0.000001 0.000000 0.000000 0.000000
 17 3.115505 -0.886042 -0.021430 -0.162706 -0.035495 0.299633
 18 2.011151 -0.000001 -0.000001 -0.000000 0.000000 1.104625
 19 2.141383 0.000001 -0.000002 0.000000 0.000000 0.000000
 20 1.734174 0.000001 -0.000001 -0.000000 0.000000 0.551513
 21 0.000004 -4.440593 0.000001 1.570544 -0.062990 -0.195737
 22 5.999999 -0.000001 -0.000000 -2.598664 0.000000 -0.000000
 23 0.000002 -4.440600 -0.000000 1.569944 -0.062987 0.004053
 24 11.375559 -0.000002 0.000003 -2.185014 0.423510 0.113896
 25 -0.000002 -4.440602 -0.000001 1.570144 -0.062988 0.004040
 26 10.510129 -0.000000 -0.000000 -0.000000 0.000000 -1.996280
 27 -0.000000 -1.748401 4.999999 -0.000000 0.004007 1.602291
 28 5.499999 0.000001 0.000000 0.377075 -0.000000 -0.000000
 29 -0.000001 -1.940596 5.000000 -0.044472 0.004003 -0.000180
 30 6.551491 0.000001 0.000002 -1.246850 0.418855 -1.645923
 31 0.000000 -1.940600 5.000001 -0.027189 -0.053376 0.005295
 32 6.551491 0.000001 0.000002 -0.246433 0.319086 -0.391457
 33 -0.000001 -1.940599 4.999994 -0.066572 -0.152786 -0.110311
 34 0.692810 0.031396 -1.587943 2.413328 1.154413 -1.106498
 35 6.384777 -0.000001 -0.000000 0.129691 0.089970 -0.912644
 36 10.242682 0.000000 0.000003 0.000000 0.000000 -2.263899
 37 11.375563 -0.000002 -0.000003 3.005908 0.334416 1.092343
 38 0.728680 0.023431 1.008291 -1.579583 -0.319038 0.212973
 39 2.136496 0.000000 -0.000000 0.000000 -0.000000 1.282817
 40 2.313140 -0.000001 0.000000 0.000000 0.000000 3.141593
 41 3.115505 -0.886041 0.021432 0.420766 0.316066 0.167178
 42 2.011150 -0.000001 -0.000001 0.000000 0.000000 2.082010
 43 2.141380 -0.000001 -0.000000 0.000000 0.000000 3.141593
 44 1.734172 -0.000001 -0.000001 -0.000000 -0.000000 1.041748
 45 0.136315 -3.738191 2.525890 1.493698 2.759406 -1.474501
 46 10.273801 -0.437101 1.198991 1.793563 0.004868 1.507198
 47 11.389367 -0.000820 0.158780 2.220447 0.359746 0.451645
 48 0.000000 -4.440601 0.000002 1.570144 -3.078602 0.004040
 49 6.000000 -0.000000 0.000001 2.220447 0.000000 -0.000000
 50 0.000001 -4.440601 0.000001 1.569944 -3.078603 0.004053
 51 10.510132 0.000000 0.000002 0.000000 -0.000000 -2.702746
 52 0.000001 -1.748399 -4.999999 3.141593 0.004007 -1.539299
 53 5.500000 0.000000 0.000001 -0.051563 0.000000 -0.000000
 54 -0.000000 -0.000000 -4.999997 -0.044472 3.137589 -0.000177
 55 6.551490 -0.000000 0.000000 0.051563 0.012580 -0.277249
 56 -1.266844 -1.937444 -4.950558 -0.066572 -2.988806 -0.110308
 57 6.551491 -0.000001 0.000000 0.051563 0.012580 -0.277249
 58 0.699371 -1.944209 -5.006844 -0.027189 -3.088217 0.005298
 59 4.226147 -0.003202 -0.000000 -0.022124 0.212087 0.150888
 60 0.000002 5.000000 -0.000000 -0.153564 0.000087 2.718702
 61 0.000004 -0.000004 -3.713580 0.365818 2.880119 -0.191589
 62 0.000002 -0.000000 5.000000 3.053196 1.558589 -0.074928
 63 -0.000007 0.000006 3.713580 -0.001619 -3.122277 -0.475127
 64 0.000002 -0.000001 -5.000000 -0.088726 1.558589 3.066334
 65 7.363602 1.646647 0.495663 3.141593 -1.570796 0.000000
 66 -0.000005 0.000007 3.619081 0.008255 -3.110080 -0.985231
 67 16.573919 0.000002 0.000000 0.000000 -0.000000 -1.065827
 68 15.128181 0.000000 -0.000000 -0.102296 0.010178 0.114297
 69 5.758665 4.244730 0.000000 0.000000 0.000000 1.667687
 70 3.177725 0.000000 -0.000000 0.000000 0.000000 3.141593
 71 15.708953 0.000001 0.000000 -0.051525 0.003996 0.061523
 72 0.275148 0.189215 -3.445207 3.130898 0.000409 -1.514604
 73 17.210192 0.000001 0.000000 0.000000 -0.000000 -1.893339
 74 0.000001 -0.000000 -5.000000 -0.079430 1.546568 -1.570855
 75 0.000002 -0.000003 -3.619081 0.577895 2.675801 -0.242118
 76 16.573921 -0.000001 -0.000002 -0.000000 -0.000000 -1.163030
 77 15.128181 0.000001 0.000001 0.089479 0.309197 0.659208
 78 5.758666 4.244730 -0.000001 -0.000000 -0.000000 1.815142
 79 4.003934 -0.000000 0.000001 0.000000 0.000000 0.000000
 80 15.708954 0.000001 0.000002 0.042277 0.226871 0.443133
 81 0.273998 0.191089 3.439762 -3.130907 -0.000437 -1.508107
 82 17.210194 -0.000001 -0.000002 0.000000 -0.000000 -1.937080
 83 -0.000000 -0.000001 5.000000 -0.079319 1.595025 -1.570742
time 3
  0 -0.650000 0.000000 33.899605 -0.025849 0.174554 -1.569172
  1 5.685104 0.833236 -32.227173 -0.174512 -0.026131 1.569196
  2 -2.276935 0.000003 -1.238188 -1.570795 -1.570451 0.000000
  3 1.796694 0.712675 0.002187 -0.754074 0.224447 -0.391128
  4 4.118674 -0.003271 0.000218 -0.067485 -0.122293 0.030528
  5 4.118575 -0.003024 0.001268 -0.405455 -0.197763 0.073892
  6 4.119649 -0.002899 0.001119 -0.351297 0.132244 0.298501
  7 4.119592 -0.003398 0.000057 -0.017537 0.411341 0.275847
  8 4.443600 -0.000001 0.000000 0.118139 0.281055 -0.077493
  9 9.024060 -0.000000 -0.000000 0.000000 0.000000 0.000000
 10 -0.692808 -0.024318 1.587942 0.522979 -1.117820 2.263943
 11 6.384777 -0.000001 0.000000 -1.518525 0.093278 -1.818283
 12 10.242681 0.000000 -0.000001 -0.000000 -0.000000 -0.798670
 13 11.375560 -0.000001 0.000001 -2.973008 0.816865 -0.129139
 14 0.728679 0.023430 -1.008292 2.098333 -0.050480 0.642666
 15 2.136498 -0.000000 -0.000000 -0.000000 0.000000 -0.078540
 16 2.313138 0.000000 -0.000001 0.000000 0.000000 0.000000
 17 3.115505 -0.886042 -0.021431 -0.162706 -0.035495 0.299633
 18 2.011149 -0.000001 0.000002 -0.000000 0.000000 1.104625
 19 2.141381 0.000000 -0.000000 0.000000 0.000000 0.000000
 20 1.734171 -0.000000 -0.000000 0.000000 -0.000000 0.551513
 21 0.000008 -4.440593 -0.000002 1.570544 -0.062990 -0.195737
 22 5.999999 -0.000003 -0.000001 -2.601791 -0.000000 -0.000000
 23 0.000003 -4.440602 -0.000001 1.569944 -0.062987 0.004053
 24 11.375561 -0.000001 0.000003 -2.185344 0.426719 0.105485
 25 -0.000003 -4.440604 -0.000001 1.570144 -0.062988 0.004040
 26 10.510131 0.000002 0.000000 -0.000000 -0.000000 -1.970131
 27 0.000002 -1.748402 4.999999 -0.000000 0.004007 1.602290
 28 5.500000 0.000000 0.000000 0.384147 0.000000 0.000000
 29 -0.000002 -1.940599 5.000001 -0.044472 0.004003 -0.000180
 30 6.551491 0.000001 0.000003 -1.228966 0.364362 -1.648355
 31 0.000000 -1.940598 5.000001 -0.027189 -0.053376 0.005295
 32 6.551491 0.000001 0.000003 -0.252200 0.301029 -0.398701
 33 0.000000 -1.940599 4.999998 -0.066572 -0.152786 -0.110311
 34 0.692810 0.031394 -1.587942 2.468506 1.175443 -1.043369
 35 6.384777 -0.000001 0.000002 0.161543 0.100881 -0.882361
 36 10.242682 0.000001 -0.000001 -0.000000 0.000000 -2.263167
 37 11.375561 -0.000001 -0.000000 3.005908 0.334417 1.092343
 38 0.728681 0.023432 1.008290 -1.579583 -0.319038 0.212973
 39 2.136495 0.000002 0.000001 0.000000 0.000000 1.282817
 40 2.313139 -0.000000 -0.000001 0.000000 0.000000 3.141593
 41 3.115507 -0.886040 0.021431 0.420766 0.316066 0.167178
 42 2.011151 -0.000000 -0.000001 -0.000000 0.000000 2.082010
 43 2.141380 -0.000000 0.000000 0.000000 0.000000 3.141593
 44 1.734172 -0.000001 0.000001 0.000000 -0.000000 1.041748
 45 0.136315 -3.738191 2.525891 1.493698 2.759406 -1.474501
 46 10.273805 -0.437101 1.198992 1.793563 0.004868 1.507198
 47 11.389367 -0.000820 0.158778 2.220447 0.359746 0.451645
 48 0.000001 -4.440600 0.000002 1.570144 -3.078602 0.004040
 49 6.000000 -0.000000 -0.000003 2.220447 -0.000000 0.000000
 50 0.000001 -4.440601 0.000002 1.569944 -3.078603 0.004053
 51 10.510131 0.000000 0.000000 0.000000 0.000000 -2.702380
 52 0.000000 -1.748400 -5.000002 3.141593 0.004007 -1.539299
 53 5.500000 0.000000 0.000001 -0.062506 -0.000000 -0.000000
 54 -0.000000 0.000000 -5.000002 -0.044472 3.137589 -0.000177
 55 6.551491 0.000000 -0.000000 0.062506 0.012996 -0.273374
 56 -1.266842 -1.937444 -4.950560 -0.066572 -2.988806 -0.110308
 57 6.551492 -0.000000 -0.000000 0.062506 0.012996 -0.273374
 58 0.699371 -1.944209 -5.006845 -0.027189 -3.088217 0.005298
 59 4.226146 -0.003200 -0.000000 -0.022124 0.212088 0.150889
 60 0.000001 5.000002 -0.000000 -0.153564 0.000087 2.718702
 61 0.000004 -0.000004 -3.713580 0.365818 2.880119 -0.191589
 62 0.000002 -0.000000 5.000000 3.053196 1.558589 -0.074928
 63 -0.000007 0.000006 3.713580 -0.001619 -3.122277 -0.475127
 64 0.000002 -0.000001 -5.000000 -0.088726 1.558589 3.066334
 65 7.363602 1.646647 0.495663 3.141593 -1.570796 0.000000
 66 -0.000005 0.000007 3.619081 0.008255 -3.110080 -0.985231
 67 16.573919 0.000002 0.000000 0.000000 -0.000000 -1.065827
 68 15.128181 0.000000 -0.000000 -0.102296 0.010178 0.114297
 69 5.758665 4.244730 0.000000 0.000000 0.000000 1.667687
 70 3.177725 0.000000 -0.000000 0.000000 0.000000 3.141593
 71 15.708953 0.000001 0.000000 -0.051525 0.003996 0.061523
 72 0.275148 0.189215 -3.445207 3.130898 0.000409 -1.514604
 73 17.210192 0.000001 0.000000 0.000000 -0.000000 -1.893339
 74 0.000001 -0.000000 -5.000000 -0.079430 1.546568 -1.570855
 75 0.000002 -0.000003 -3.619081 0.577895 2.675801 -0.242118
 76 16.573921 -0.000001 -0.000002 -0.000000 -0.000000 -1.163030
 77 15.128181 0.000001 0.000001 0.089479 0.309197 0.659208
 78 5.758666 4.244730 -0.000001 -0.000000 -0.000000 1.815142
 79 4.003934 -0.000000 0.000001 0.000000 0.000000 0.000000
 80 15.708954 0.000001 0.000002 0.042277 0.226871 0.443133
 81 0.273998 0.191089 3.439762 -3.130907 -0.000437 -1.508107
 82 17.210194 -0.000001 -0.000002 0.000000 -0.000000 -1.937080
 83 -0.000000 -0.000001 5.000000 -0.079319 1.595025 -1.570742
time 4
  0 -0.650000 0.000000 33.899605 -0.025849 0.174554 -1.569172
  1 5.685104 0.833236 -32.227173 -0.174512 -0.026131 1.569196
  2 -2.276935 0.000003 -1.238188 -1.570795 -1.570451 0.000000
  3 1.796694 0.712675 0.002187 -0.754074 0.224447 -0.391128
  4 4.118674 -0.003271 0.000218 -0.067485 -0.122293 0.030528
  5 4.118575 -0.003024 0.001268 -0.405455 -0.197763 0.073892
  6 4.119649 -0.002899 0.001119 -0.351297 0.132244 0.298501
  7 4.119592 -0.003398 0.000057 -0.017537 0.411341 0.275847
  8 4.443600 -0.000001 0.000000 0.118139 0.281055 -0.077493
  9 9.024060 -0.000000 -0.000000 0.000000 0.000000 0.000000
 10 -0.692808 -0.024318 1.587942 0.522979 -1.117820 2.263943
 11 6.384777 -0.000001 0.000000 -1.519804 0.078032 -1.815629
 12 10.242682 0.000003 0.000000 -0.000000 -0.000000 -0.752814
 13 11.375561 -0.000001 0.000001 -2.979934 0.817518 -0.160947
 14 0.728679 0.023431 -1.008292 2.098333 -0.050480 0.642666
 15 2.136498 0.000001 -0.000000 -0.000000 0.000000 -0.078540
 16 2.313138 -0.000001 -0.000001 0.000000 0.000000 0.000000
 17 3.115505 -0.886041 -0.021431 -0.162706 -0.035495 0.299633
 18 2.011149 -0.000001 0.000002 -0.000000 0.000000 1.104625
 19 2.141381 0.000000 -0.000003 0.000000 0.000000 0.000000
 20 1.734173 0.000001 0.000001 -0.000000 -0.000000 0.551513
 21 0.000007 -4.440593 0.000001 1.570544 -0.062990 -0.195737
 22 5.999999 0.000002 0.000001 -2.604139 -0.000000 -0.000000
 23 0.000003 -4.440600 -0.000000 1.569944 -0.062987 0.004053
 24 11.375560 0.000002 0.000005 -2.184291 0.432375 0.091788
 25 -0.000001 -4.440605 0.000003 1.570144 -0.062988 0.004040
 26 10.510129 0.000000 -0.000000 -0.000000 0.000000 -1.947203
 27 0.000001 -1.748400 5.000000 -0.000000 0.004007 1.602290
 28 5.499999 0.000000 -0.000000 0.387669 0.000000 0.000000
 29 -0.000001 -1.940600 5.000001 -0.044472 0.004003 -0.000180
 30 6.551491 0.000001 0.000003 -1.234490 0.349697 -1.651206
 31 0.000001 -1.940598 5.000001 -0.027189 -0.053376 0.005295
 32 6.551491 0.000001 0.000003 -0.254432 0.297209 -0.398390
 33 -0.000001 -1.940599 4.999997 -0.066572 -0.152786 -0.110311
 34 0.692810 0.031394 -1.587942 2.530007 1.194986 -0.973949
 35 6.384776 -0.000001 0.000000 0.158020 0.101316 -0.850218
 36 10.242682 0.000001 0.000001 0.000000 0.000000 -2.262435
 37 11.375562 -0.000001 0.000001 3.005908 0.334417 1.092343
 38 0.728682 0.023431 1.008295 -1.579583 -0.319038 0.212973
 39 2.136498 0.000002 -0.000000 0.000000 -0.000000 1.282817
 40 2.313138 0.000000 0.000000 0.000000 0.000000 3.141593
 41 3.115507 -0.886040 0.021434 0.420766 0.316066 0.167178
 42 2.011151 -0.000000 0.000002 0.000000 0.000000 2.082010
 43 2.141380 0.000000 0.000002 0.000000 0.000000 3.141593
 44 1.734172 -0.000000 0.000003 -0.000000 -0.000000 1.041748
 45 0.136314 -3.738192 2.525887 1.493698 2.759406 -1.474501
 46 10.273803 -0.437101 1.198993 1.793563 0.004868 1.507198
 47 11.389367 -0.000820 0.158784 2.220447 0.359746 0.451645
 48 0.000000 -4.440599 0.000001 1.570144 -3.078602 0.004040
 49 6.000000 -0.000000 -0.000000 2.220447 0.000000 -0.000000
 50 0.000001 -4.440600 0.000002 1.569944 -3.078603 0.004053
 51 10.510132 0.000001 0.000001 -0.000000 0.000000 -2.702014
 52 -0.000001 -1.748399 -5.000001 3.141593 0.004007 -1.539299
 53 5.500000 0.000000 -0.000001 -0.060690 -0.000000 0.000000
 54 0.000000 0.000000 -5.000001 -0.044472 3.137589 -0.000177
 55 6.551491 0.000000 -0.000002 0.060690 0.014820 -0.269131
 56 -1.266843 -1.937443 -4.950559 -0.066572 -2.988806 -0.110308
 57 6.551492 -0.000000 -0.000002 0.060690 0.014820 -0.269131
 58 0.699371 -1.944208 -5.006851 -0.027189 -3.088217 0.005298
 59 4.226146 -0.003200 -0.000000 -0.022124 0.212088 0.150889
 60 0.000001 5.000002 -0.000000 -0.153564 0.000087 2.718702
 61 0.000004 -0.000004 -3.713580 0.365818 2.880119 -0.191589
 62 0.000002 -0.000000 5.000000 3.053196 1.558589 -0.074928
 63 -0.000007 0.000006 3.713580 -0.001619 -3.122277 -0.475127
 64 0.000002 -0.000001 -5.000000 -0.088726 1.558589 3.066334
 65 7.363602 1.646647 0.495663 3.141593 -1.570796 0.000000
 66 -0.000005 0.000007 3.619081 0.008255 -3.110080 -0.985231
 67 16.573919 0.000002 0.000000 0.000000 -0.000000 -1.065827
 68 15.128181 0.000000 -0.000000 -0.102296 0.010178 0.114297
 69 5.758665 4.244730 0.000000 0.000000 0.000000 1.667687
 70 3.177725 0.000000 -0.000000 0.000000 0.000000 3.141593
 71 15.708953 0.000001 0.000000 -0.051525 0.003996 0.061523
 72 0.275148 0.189215 -3.445207 3.130898 0.000409 -1.514604
 73 17.210192 0.000001 0.000000 0.000000 -0.000000 -1.893339
 74 0.000001 -0.000000 -5.000000 -0.079430 1.546568 -1.570855
 75 0.000002 -0.000003 -3.619081 0.577895 2.675801 -0.242118
 76 16.573921 -0.000001 -0.000002 -0.000000 -0.000000 -1.163030
 77 15.128181 0.000001 0.000001 0.089479 0.309197 0.659208
 78 5.758666 4.244730 -0.000001 -0.000000 -0.000000 1.815142
 79 4.003934 -0.000000 0.000001 0.000000 0.000000 0.000000
 80 15.708954 0.000001 0.000002 0.042277 0.226871 0.443133
 81 0.273998 0.191089 3.439762 -3.130907 -0.000437 -1.508107
 82 17.210194 -0.000001 -0.000002 0.000000 -0.000000 -1.937080
 83 -0.000000 -0.000001 5.000000 -0.079319 1.595025 -1.570742
time 5
  0 -0.650000 0.000000 33.899605 -0.025849 0.174554 -1.569172
  1 5.685104 0.833236 -32.227173 -0.174512 -0.026131 1.569196
  2 -2.276935 0.000003 -1.238188 -1.570795 -1.570451 0.000000
  3 1.796694 0.712675 0.002187 -0.754074 0.224447 -0.391128
  4 4.118674 -0.003271 0.000218 -0.067485 -0.122293 0.030528
  5 4.118575 -0.003024 0.001268 -0.405455 -0.197763 0.073892
  6 4.119649 -0.002899 0.001119 -0.351297 0.132244 0.298501
  7 4.119592 -0.003398 0.000057 -0.017537 0.411341 0.275847
  8 4.443600 -0.000001 0.000000 0.118139 0.281055 -0.077493
  9 9.024060 -0.000000 -0.000000 0.000000 0.000000 0.000000
 10 -0.692808 -0.024318 1.587942 0.522979 -1.117820 2.263943
 11 6.384777 -0.000001 0.000000 -1.519804 0.078032 -1.815629
 12 10.242682 0.000003 0.000000 -0.000000 -0.000000 -0.752814
 13 11.375561 -0.000001 0.000001 -2.979934 0.817518 -0.160947
 14 0.728679 0.023431 -1.008292 2.098333 -0.050480 0.642666
 15 2.136498 0.000001 -0.000000 -0.000000 0.000000 -0.078540
 16 2.313138 -0.000001 -0.000001 0.000000 0.000000 0.000000
 17 3.115505 -0.886041 -0.021431 -0.162706 -0.035495 0.299633
 18 2.011149 -0.000001 0.000002 -0.000000 0.000000 1.104625
 19 2.141381 0.000000 -0.000003 0.000000 0.000000 0.000000
 20 1.734173 0.000001 0.000001 -0.000000 -0.000000 0.551513
 21 0.000007 -4.440593 0.000001 1.570544 -0.062990 -0.195737
 22 5.999999 0.000002 0.000001 -2.604139 -0.000000 -0.000000
 23 0.000003 -4.440600 -0.000000 1.569944 -0.062987 0.004053
 24 11.375560 0.000002 0.000005 -2.184291 0.432375 0.091788
 25 -0.000001 -4.440605 0.000003 1.570144 -0.062988 0.004040
 26 10.510129 0.000000 -0.000000 -0.000000 0.000000 -1.947203
 27 0.000001 -1.748400 5.000000 -0.000000 0.004007 1.602290
 28 5.499999 0.000000 -0.000000 0.387669 0.000000 0.000000
 29 -0.000001 -1.940600 5.000001 -0.044472 0.004003 -0.000180
 30 6.551491 0.000001 0.000003 -1.234490 0.349697 -1.651206
 31 0.000001 -1.940598 5.000001 -0.027189 -0.053376 0.005295
 32 6.551491 0.000001 0.000003 -0.254432 0.297209 -0.398390
 33 -0.000001 -1.940599 4.999997 -0.066572 -0.152786 -0.110311
 34 0.692810 0.031394 -1.587942 2.530007 1.194986 -0.973949
 35 6.384776 -0.000001 0.000000 0.158020 0.101316 -0.850218
 36 10.242682 0.000001 0.000001 0.000000 0.000000 -2.262435
 37 11.375562 -0.000001 0.000001 3.005908 0.334417 1.092343
 38 0.728682 0.023431 1.008295 -1.579583 -0.319038 0.212973
 39 2.136498 0.000002 -0.000000 0.000000 -0.000000 1.282817
 40 2.313138 0.000000 0.000000 0.000000 0.000000 3.141593
 41 3.115507 -0.886040 0.021434 0.420766 0.316066 0.167178
 42 2.011151 -0.000000 0.000002 0.000000 0.000000 2.082010
 43 2.141380 0.000000 0.000002 0.000000 0.000000 3.141593
 44 1.734172 -0.000000 0.000003 -0.000000 -0.000000 1.041748
 45 0.136314 -3.738192 2.525887 1.493698 2.759406 -1.474501
 46 10.273803 -0.437101 1.198993 1.793563 0.004868 1.507198
 47 11.389367 -0.000820 0.158784 2.220447 0.359746 0.451645
 48 0.000000 -4.440599 0.000001 1.570144 -3.078602 0.004040
 49 6.000000 -0.000000 -0.000000 2.220447 0.000000 -0.000000
 50 0.000001 -4.440600 0.000002 1.569944 -3.078603 0.004053
 51 10.510132 0.000001 0.000001 -0.000000 0.000000 -2.702014
 52 -0.000001 -1.748399 -5.000001 3.141593 0.004007 -1.539299
 53 5.500000 0.000000 -0.000001 -0.060690 -0.000000 0.000000
 54 0.000000 0.000000 -5.000001 -0.044472 3.137589 -0.000177
 55 6.551491 0.000000 -0.000002 0.060690 0.014820 -0.269131
 56 -1.266843 -1.937443 -4.950559 -0.066572 -2.988806 -0.110308
 57 6.551492 -0.000000 -0.000002 0.060690 0.014820 -0.269131
 58 0.699371 -1.944208 -5.006851 -0.027189 -3.088217 0.005298
 59 4.226146 -0.003200 -0.000000 -0.022124 0.212088 0.150889
 60 0.000001 5.000002 -0.000000 -0.153564 0.000087 2.718702
 61 0.000004 -0.000004 -3.713580 0.365818 2.880119 -0.191589
 62 0.000002 -0.000000 5.000000 3.053196 1.558589 -0.074928
 63 -0.000007 0.000006 3.713580 -0.001619 -3.122277 -0.475127
 64 0.000002 -0.000001 -5.000000 -0.088726 1.558589 3.066334
 65 7.363602 1.646647 0.495663 3.141593 -1.570796 0.000000
 66 -0.000005 0.000007 3.619081 0.008255 -3.110080 -0.985231
 67 16.573919 0.000002 0.000000 0.000000 -0.000000 -1.065827
 68 15.128181 0.000000 -0.000000 -0.102296 0.010178 0.114297
 69 5.758665 4.244730 0.000000 0.000000 0.000000 1.667687
 70 3.177725 0.000000 -0.000000 0.000000 0.000000 3.141593
 71 15.708953 0.000001 0.000000 -0.051525 0.003996 0.061523
 72 0.275148 0.189215 -3.445207 3.130898 0.000409 -1.514604
 73 17.210192 0.000001 0.000000 0.000000 -0.000000 -1.893339
 74 0.000001 -0.000000 -5.000000 -0.079430 1.546568 -1.570855
 75 0.000002 -0.000003 -3.619081 0.577895 2.675801 -0.242118
 76 16.573921 -0.000001 -0.000002 -0.000000 -0.000000 -1.163030
 77 15.128181 0.000001 0.000001 0.089479 0.309197 0.659208
 78 5.758666 4.244730 -0.000001 -0.000000 -0.000000 1.815142
 79 4.003934 -0.000000 0.000001 0.000000 0.000000 0.000000
 80 15.708954 0.000001 0.000002 0.042277 0.226871 0.443133
 81 0.273998 0.191089 3.439762 -3.130907 -0.000437 -1.508107
 82 17.210194 -0.000001 -0.000002 0.000000 -0.000000 -1.937080
 83 -0.000000 -0.000001 5.000000 -0.079319 1.595025 -1.570742
end
