version 1
nodes
  0 "Bip01"  -1
  1 "Bip01 Footsteps"   0
  2 "Bip01 Pelvis"   0
  3 "Bip01 Spine"   2
  4 "Bip01 Spine1"   3
  5 "Bip01 Spine2"   4
  6 "Bip01 Spine3"   5
  7 "Bip01 Neck"   6
  8 "Bip01 Head"   7
  9 "Dummy21"   8
 10 "Bip01 L Clavicle"   7
 11 "Bip01 L UpperArm"  10
 12 "Bip01 L Forearm"  11
 13 "Bip01 L Hand"  12
 14 "Bip01 L Finger0"  13
 15 "Bip01 L Finger01"  14
 16 "Dummy06"  15
 17 "Bip01 L Finger1"  13
 18 "Bip01 L Finger11"  17
 19 "Dummy03"  18
 20 "-- L knuckle"  17
 21 "-- L knuckle_end"  20
 22 "-- L Forearm twist"  12
 23 "-- L Forearm twist_end"  22
 24 "-- L wrist"  12
 25 "-- L wrist_end"  24
 26 "-- L Elbow"  11
 27 "--L Elbow_end"  26
 28 "-- L bicep twist"  11
 29 "-- L bicep twist_end"  28
 30 "-- L shoulder outside"  10
 31 "-- L shoulder outside_end"  30
 32 "-- L Shoulder inside"  10
 33 "-- L Shoulder inside_end"  32
 34 "Bip01 R Clavicle"   7
 35 "Bip01 R UpperArm"  34
 36 "Bip01 R Forearm"  35
 37 "Bip01 R Hand"  36
 38 "Bip01 R Finger0"  37
 39 "Bip01 R Finger01"  38
 40 "Dummy01"  39
 41 "Bip01 R Finger1"  37
 42 "Bip01 R Finger11"  41
 43 "Dummy02"  42
 44 "-- R knuckle"  41
 45 "Point06"  44
 46 "Line03"  37
 47 "-- R wrist"  36
 48 "-- R wrist_end"  47
 49 "-- R forearm twist"  36
 50 "-- R forearm twist_end"  49
 51 "-- R Elbow"  35
 52 "--R Elbow_end"  51
 53 "-- R bicep twist"  35
 54 "-- R bicep twist_end"  53
 55 "-- R Shoulder inside"  34
 56 "-- R Shoulder inside_end"  55
 57 "-- R shoulder outside"  34
 58 "-- R shoulder outside_end"  57
 59 "-- Neck smooth"   6
 60 "-- neck smooth end"  59
 61 "-- R Butt"   2
 62 "--R Butt_end"  61
 63 "-- L butt"   2
 64 "--L butt_end"  63
 65 "GIGN01"   2
 66 "Bip01 L Thigh"   2
 67 "Bip01 L Calf"  66
 68 "Bip01 L Foot"  67
 69 "Bip01 L Toe0"  68
 70 "Dummy16"  69
 71 "-- L ankle"  67
 72 "-- L ankleend"  71
 73 "-- L Knee"  66
 74 "--L Knee_end"  73
 75 "Bip01 R Thigh"   2
 76 "Bip01 R Calf"  75
 77 "Bip01 R Foot"  76
 78 "Bip01 R Toe0"  77
 79 "Dummy11"  78
 80 "-- R Ankle"  76
 81 "-- R ankleend"  80
 82 "-- R Knee"  75
 83 "--R Knee_end"  82
end
skeleton
time 0
  0 -0.650000 0.000000 33.899605 -0.025849 0.174554 -1.569172
  1 5.685104 0.833236 -32.227173 -0.174512 -0.026131 1.569196
  2 -2.276935 0.000003 -1.238188 -1.570795 -1.570451 0.000000
  3 1.797312 0.712890 0.002437 -0.853673 0.162602 -0.105602
  4 4.118787 -0.003271 -0.000151 0.046220 -0.066014 0.052927
  5 4.118675 -0.003084 0.001111 -0.345959 -0.041256 0.039436
  6 4.119757 -0.002870 0.001095 -0.354492 0.275681 0.280643
  7 4.118967 -0.003520 -0.000092 0.030686 0.540379 0.118783
  8 4.443596 0.000002 -0.000001 0.002595 0.128650 0.693215
  9 9.024061 -0.000000 -0.000000 0.000000 0.000000 0.000000
 10 -0.891419 0.049122 1.485131 0.370137 -0.987328 2.585140
 11 6.384776 -0.000000 -0.000000 -1.565599 0.959029 -1.949873
 12 10.242682 0.000000 0.000001 0.000000 -0.000000 -1.391488
 13 11.375560 0.000001 0.000000 3.059275 0.545465 -0.060185
 14 0.728680 0.023431 -1.008291 2.098333 -0.050480 0.642666
 15 2.136498 0.000000 -0.000001 -0.000000 0.000000 -0.078540
 16 2.313138 0.000000 0.000001 0.000000 0.000000 0.000000
 17 3.115506 -0.886041 -0.021431 -0.162706 -0.035495 0.299633
 18 2.011152 0.000000 0.000000 0.000000 -0.000000 1.104625
 19 2.141382 -0.000001 -0.000000 0.000000 0.000000 0.000000
 20 1.734172 -0.000000 -0.000001 -0.000000 -0.000000 0.551513
 21 0.000005 -4.440595 0.000000 1.570544 -0.062990 -0.195737
 22 6.000000 0.000002 0.000001 -2.865151 0.000000 -0.000000
 23 0.000001 -4.440599 -0.000000 1.569944 -0.062987 0.004053
 24 11.375561 0.000001 0.000003 -2.352526 0.296439 0.112555
 25 -0.000001 -4.440605 0.000000 1.570144 -0.062988 0.004040
 26 10.510133 0.000000 0.000000 -0.000000 0.000000 -2.266541
 27 0.000001 -1.748401 4.999999 -0.000000 0.004007 1.602290
 28 5.500000 0.000000 -0.000000 0.109695 0.000000 -0.000000
 29 -0.000002 -1.940598 5.000001 -0.044472 0.004003 -0.000180
 30 6.551491 -0.000001 -0.000002 -0.741015 1.010573 -1.205451
 31 -0.000000 -1.940599 5.000001 -0.027189 -0.053376 0.005295
 32 6.551491 -0.000001 -0.000002 -0.062560 0.451526 -0.283026
 33 -0.000000 -1.940601 4.999994 -0.066572 -0.152786 -0.110311
 34 0.891417 -0.042042 -1.485133 2.579864 0.716121 -0.779047
 35 6.384777 0.000000 -0.000003 -0.195088 -0.354781 -0.916170
 36 10.242684 -0.000003 0.000003 0.000000 -0.000000 -2.446311
 37 11.375561 -0.000003 -0.000002 2.958072 0.329839 1.116053
 38 0.728680 0.023431 1.008290 -1.579583 -0.319038 0.212973
 39 2.136496 0.000001 0.000000 -0.000000 -0.000000 1.282817
 40 2.313137 0.000000 0.000000 0.000000 0.000000 3.141593
 41 3.115507 -0.886041 0.021428 0.420766 0.316066 0.167178
 42 2.011151 -0.000000 0.000001 -0.000000 0.000000 2.082010
 43 2.141380 0.000000 0.000001 0.000000 0.000000 3.141593
 44 1.734172 -0.000001 0.000002 0.000000 -0.000000 1.041748
 45 0.136315 -3.738193 2.525887 1.493698 2.759406 -1.474501
 46 10.273804 -0.437102 1.198989 1.793563 0.004868 1.507198
 47 11.389366 -0.000819 0.158782 2.195566 0.352559 0.467500
 48 0.000000 -4.440599 -0.000001 1.570144 -3.078602 0.004040
 49 6.000000 -0.000000 -0.000000 2.195566 0.000000 0.000000
 50 0.000000 -4.440601 -0.000001 1.569944 -3.078603 0.004053
 51 10.510131 -0.000002 0.000003 -0.000000 0.000000 -2.793952
 52 0.000000 -1.748400 -4.999999 -3.141593 0.004007 -1.539299
 53 5.500001 -0.000003 0.000003 0.093151 -0.000000 -0.000000
 54 0.000000 -0.000002 -4.999999 -0.044472 3.137589 -0.000177
 55 6.551490 -0.000000 -0.000001 -0.093151 -0.089660 -0.273366
 56 -1.266844 -1.937444 -4.950563 -0.066572 -2.988806 -0.110308
 57 6.551491 -0.000001 -0.000001 -0.093151 -0.089660 -0.273366
 58 0.699370 -1.944209 -5.006849 -0.027189 -3.088217 0.005298
 59 4.226146 -0.003202 0.000000 0.017901 0.418943 0.095973
 60 0.000000 5.000000 0.000001 -0.153564 0.000087 2.718702
 61 0.000004 -0.000004 -3.713580 0.365818 2.880119 -0.191589
 62 0.000002 -0.000000 5.000000 3.053196 1.558589 -0.074928
 63 -0.000007 0.000006 3.713580 -0.001619 -3.122277 -0.475127
 64 0.000002 -0.000001 -5.000000 -0.088726 1.558589 3.066334
 65 7.363602 1.646647 0.495663 3.141593 -1.570796 0.000000
 66 -0.000005 0.000007 3.619081 0.008255 -3.110080 -0.985231
 67 16.573919 0.000002 0.000000 0.000000 -0.000000 -1.065827
 68 15.128181 0.000000 -0.000000 -0.102296 0.010178 0.114297
 69 5.758665 4.244730 0.000000 0.000000 0.000000 1.667687
 70 3.177725 0.000000 -0.000000 0.000000 0.000000 3.141593
 71 15.708953 0.000001 0.000000 -0.051525 0.003996 0.061523
 72 0.275148 0.189215 -3.445207 3.130898 0.000409 -1.514604
 73 17.210192 0.000001 0.000000 0.000000 -0.000000 -1.893339
 74 0.000001 -0.000000 -5.000000 -0.079430 1.546568 -1.570855
 75 0.000002 -0.000003 -3.619081 0.577895 2.675801 -0.242118
 76 16.573921 -0.000001 -0.000002 -0.000000 -0.000000 -1.163030
 77 15.128181 0.000001 0.000001 0.089479 0.309197 0.659208
 78 5.758666 4.244730 -0.000001 -0.000000 -0.000000 1.815142
 79 4.003934 -0.000000 0.000001 0.000000 0.000000 0.000000
 80 15.708954 0.000001 0.000002 0.042277 0.226871 0.443133
 81 0.273998 0.191089 3.439762 -3.130907 -0.000437 -1.508107
 82 17.210194 -0.000001 -0.000002 0.000000 -0.000000 -1.937080
 83 -0.000000 -0.000001 5.000000 -0.079319 1.595025 -1.570742
time 1
  0 -0.650000 0.000000 33.899605 -0.025849 0.174554 -1.569172
  1 5.685104 0.833236 -32.227173 -0.174512 -0.026131 1.569196
  2 -2.276935 0.000003 -1.238188 -1.570795 -1.570451 0.000000
  3 1.797335 0.712869 0.002417 -0.844629 0.165305 -0.096751
  4 4.118810 -0.003268 -0.000175 0.053522 -0.059853 0.060961
  5 4.118706 -0.003092 0.001088 -0.338282 -0.030864 0.043896
  6 4.119775 -0.002874 0.001065 -0.345250 0.284476 0.285833
  7 4.119087 -0.003501 -0.000167 0.055136 0.539041 0.166266
  8 4.443600 -0.000002 0.000002 -0.001681 0.136298 0.572490
  9 9.024061 0.000002 -0.000000 0.000000 0.000000 0.000000
 10 -0.889429 0.085480 1.484764 0.369801 -0.986959 2.544668
 11 6.384776 0.000002 0.000002 -1.522836 0.870707 -1.928960
 12 10.242683 0.000000 0.000001 0.000000 -0.000000 -1.306176
 13 11.375559 -0.000002 -0.000001 3.038812 0.554135 -0.086382
 14 0.728681 0.023432 -1.008292 2.098333 -0.050480 0.642665
 15 2.136498 -0.000000 -0.000000 -0.000000 -0.000000 -0.078540
 16 2.313138 0.000001 0.000000 0.000000 0.000000 0.000000
 17 3.115506 -0.886042 -0.021432 -0.162706 -0.035495 0.299633
 18 2.011148 -0.000001 -0.000001 0.000000 0.000000 1.104625
 19 2.141381 -0.000001 0.000001 0.000000 0.000000 0.000000
 20 1.734171 0.000001 -0.000000 -0.000000 -0.000000 0.551513
 21 0.000007 -4.440594 -0.000001 1.570544 -0.062990 -0.195737
 22 6.000000 -0.000000 -0.000000 -2.881584 0.000000 0.000000
 23 0.000002 -4.440601 -0.000000 1.569944 -0.062987 0.004053
 24 11.375561 0.000001 0.000003 -2.358717 0.306582 0.103412
 25 -0.000000 -4.440604 -0.000001 1.570144 -0.062988 0.004040
 26 10.510130 -0.000000 -0.000000 0.000000 0.000000 -2.223885
 27 -0.000001 -1.748401 5.000000 0.000000 0.004007 1.602291
 28 5.500000 -0.000001 -0.000000 0.138898 0.000000 -0.000000
 29 -0.000002 -1.940599 5.000000 -0.044472 0.004003 -0.000180
 30 6.551490 0.000002 0.000001 -0.798894 0.955792 -1.274758
 31 0.000000 -1.940599 5.000001 -0.027189 -0.053376 0.005295
 32 6.551490 0.000002 0.000001 -0.083379 0.439821 -0.306327
 33 -0.000001 -1.940600 4.999997 -0.066572 -0.152786 -0.110311
 34 0.889430 -0.078405 -1.484762 2.616617 0.709064 -0.771846
 35 6.384776 -0.000001 -0.000002 -0.153708 -0.372937 -0.879802
 36 10.242682 0.000000 0.000002 0.000000 0.000000 -2.438189
 37 11.375561 -0.000001 -0.000002 2.958072 0.329839 1.116053
 38 0.728680 0.023431 1.008291 -1.579583 -0.319038 0.212973
 39 2.136497 0.000002 0.000000 0.000000 0.000000 1.282817
 40 2.313140 -0.000000 -0.000000 0.000000 0.000000 3.141593
 41 3.115506 -0.886041 0.021430 0.420766 0.316066 0.167178
 42 2.011153 -0.000001 -0.000000 -0.000000 0.000000 2.082010
 43 2.141380 0.000002 0.000001 0.000000 0.000000 3.141593
 44 1.734172 -0.000001 0.000001 0.000000 -0.000000 1.041748
 45 0.136315 -3.738192 2.525889 1.493698 2.759406 -1.474501
 46 10.273803 -0.437102 1.198989 1.793563 0.004868 1.507198
 47 11.389367 -0.000821 0.158779 2.195565 0.352559 0.467500
 48 0.000001 -4.440599 -0.000001 1.570144 -3.078602 0.004040
 49 6.000000 -0.000000 -0.000002 2.195565 0.000000 -0.000000
 50 0.000001 -4.440600 0.000003 1.569944 -3.078603 0.004053
 51 10.510133 -0.000000 0.000003 -0.000000 -0.000000 -2.789891
 52 -0.000001 -1.748399 -5.000002 -3.141593 0.004007 -1.539299
 53 5.500000 0.000000 0.000002 0.079058 -0.000000 0.000000
 54 0.000000 -0.000001 -5.000000 -0.044472 3.137589 -0.000177
 55 6.551489 -0.000002 -0.000000 -0.079058 -0.104273 -0.266801
 56 -1.266843 -1.937443 -4.950562 -0.066572 -2.988806 -0.110308
 57 6.551489 -0.000002 0.000000 -0.079058 -0.104273 -0.266801
 58 0.699372 -1.944207 -5.006849 -0.027189 -3.088217 0.005298
 59 4.226143 -0.003202 -0.000000 0.034166 0.417770 0.132960
 60 -0.000001 5.000002 -0.000001 -0.153564 0.000087 2.718702
 61 0.000004 -0.000004 -3.713580 0.365818 2.880119 -0.191589
 62 0.000002 -0.000000 5.000000 3.053196 1.558589 -0.074928
 63 -0.000007 0.000006 3.713580 -0.001619 -3.122277 -0.475127
 64 0.000002 -0.000001 -5.000000 -0.088726 1.558589 3.066334
 65 7.363602 1.646647 0.495663 3.141593 -1.570796 0.000000
 66 -0.000005 0.000007 3.619081 0.008255 -3.110080 -0.985231
 67 16.573919 0.000002 0.000000 0.000000 -0.000000 -1.065827
 68 15.128181 0.000000 -0.000000 -0.102296 0.010178 0.114297
 69 5.758665 4.244730 0.000000 0.000000 0.000000 1.667687
 70 3.177725 0.000000 -0.000000 0.000000 0.000000 3.141593
 71 15.708953 0.000001 0.000000 -0.051525 0.003996 0.061523
 72 0.275148 0.189215 -3.445207 3.130898 0.000409 -1.514604
 73 17.210192 0.000001 0.000000 0.000000 -0.000000 -1.893339
 74 0.000001 -0.000000 -5.000000 -0.079430 1.546568 -1.570855
 75 0.000002 -0.000003 -3.619081 0.577895 2.675801 -0.242118
 76 16.573921 -0.000001 -0.000002 -0.000000 -0.000000 -1.163030
 77 15.128181 0.000001 0.000001 0.089479 0.309197 0.659208
 78 5.758666 4.244730 -0.000001 -0.000000 -0.000000 1.815142
 79 4.003934 -0.000000 0.000001 0.000000 0.000000 0.000000
 80 15.708954 0.000001 0.000002 0.042277 0.226871 0.443133
 81 0.273998 0.191089 3.439762 -3.130907 -0.000437 -1.508107
 82 17.210194 -0.000001 -0.000002 0.000000 -0.000000 -1.937080
 83 -0.000000 -0.000001 5.000000 -0.079319 1.595025 -1.570742
time 2
  0 -0.650000 0.000000 33.899605 -0.025849 0.174554 -1.569172
  1 5.685104 0.833236 -32.227173 -0.174512 -0.026131 1.569196
  2 -2.276935 0.000003 -1.238188 -1.570795 -1.570451 0.000000
  3 1.797354 0.712849 0.002396 -0.835556 0.167929 -0.087872
  4 4.118839 -0.003265 -0.000199 0.060870 -0.053752 0.069037
  5 4.118731 -0.003100 0.001064 -0.330561 -0.020506 0.048435
  6 4.119794 -0.002877 0.001035 -0.335937 0.293225 0.291121
  7 4.119210 -0.003479 -0.000241 0.079476 0.536711 0.213654
  8 4.443599 -0.000001 0.000001 -0.006344 0.143357 0.451668
  9 9.024062 -0.000001 0.000001 0.000000 0.000000 0.000000
 10 -0.885962 0.121756 1.484391 0.369455 -0.986588 2.504197
 11 6.384777 0.000001 0.000001 -1.488334 0.781011 -1.916608
 12 10.242684 0.000001 0.000001 -0.000000 -0.000000 -1.214910
 13 11.375561 0.000002 0.000000 3.017913 0.563918 -0.118587
 14 0.728680 0.023430 -1.008292 2.098333 -0.050480 0.642666
 15 2.136496 -0.000001 0.000001 0.000000 0.000000 -0.078540
 16 2.313138 0.000001 -0.000000 0.000000 0.000000 0.000000
 17 3.115507 -0.886039 -0.021431 -0.162706 -0.035495 0.299633
 18 2.011153 0.000001 -0.000000 -0.000000 0.000000 1.104625
 19 2.141378 -0.000000 0.000000 0.000000 0.000000 0.000000
 20 1.734174 0.000002 0.000001 0.000000 0.000000 0.551513
 21 0.000006 -4.440593 -0.000001 1.570544 -0.062990 -0.195737
 22 6.000000 0.000001 -0.000000 -2.897981 -0.000000 -0.000000
 23 0.000002 -4.440603 -0.000000 1.569944 -0.062987 0.004053
 24 11.375561 0.000001 0.000003 -2.364268 0.318629 0.091554
 25 -0.000000 -4.440606 0.000000 1.570144 -0.062988 0.004040
 26 10.510134 0.000000 0.000000 -0.000000 0.000000 -2.178251
 27 0.000001 -1.748402 5.000000 0.000000 0.004007 1.602290
 28 5.500000 -0.000001 -0.000000 0.167093 -0.000000 0.000000
 29 0.000001 -1.940597 5.000001 -0.044472 0.004003 -0.000180
 30 6.551492 0.000002 0.000001 -0.850189 0.898931 -1.338269
 31 -0.000001 -1.940598 5.000001 -0.027189 -0.053376 0.005295
 32 6.551492 0.000002 0.000001 -0.103441 0.426997 -0.328287
 33 -0.000003 -1.940598 4.999995 -0.066572 -0.152786 -0.110311
 34 0.885963 -0.114681 -1.484390 2.653207 0.700610 -0.765492
 35 6.384775 -0.000002 0.000000 -0.113260 -0.392481 -0.844001
 36 10.242682 0.000000 0.000001 -0.000000 0.000000 -2.430068
 37 11.375562 -0.000001 0.000002 2.958072 0.329839 1.116053
 38 0.728681 0.023431 1.008289 -1.579583 -0.319038 0.212973
 39 2.136496 -0.000001 -0.000000 -0.000000 0.000000 1.282817
 40 2.313140 -0.000000 0.000000 0.000000 0.000000 3.141593
 41 3.115506 -0.886041 0.021431 0.420766 0.316066 0.167178
 42 2.011152 -0.000000 -0.000000 0.000000 0.000000 2.082010
 43 2.141380 0.000001 0.000001 0.000000 0.000000 3.141593
 44 1.734171 -0.000001 0.000001 0.000000 -0.000000 1.041748
 45 0.136315 -3.738194 2.525888 1.493698 2.759406 -1.474501
 46 10.273806 -0.437102 1.198988 1.793563 0.004868 1.507198
 47 11.389368 -0.000819 0.158784 2.195565 0.352559 0.467500
 48 0.000000 -4.440598 -0.000001 1.570144 -3.078602 0.004040
 49 6.000000 0.000000 0.000002 2.195565 -0.000000 -0.000000
 50 0.000001 -4.440601 -0.000002 1.569944 -3.078603 0.004053
 51 10.510132 0.000001 0.000002 -0.000000 0.000000 -2.785830
 52 0.000000 -1.748398 -5.000001 3.141593 0.004007 -1.539299
 53 5.500000 0.000000 0.000001 0.066201 0.000000 -0.000000
 54 0.000000 -0.000002 -4.999999 -0.044472 3.137589 -0.000177
 55 6.551490 -0.000001 -0.000001 -0.066201 -0.118048 -0.260549
 56 -1.266844 -1.937443 -4.950556 -0.066572 -2.988806 -0.110308
 57 6.551490 -0.000001 -0.000001 -0.066201 -0.118048 -0.260549
 58 0.699371 -1.944209 -5.006843 -0.027189 -3.088217 0.005298
 59 4.226146 -0.003203 -0.000000 0.050276 0.415887 0.169517
 60 0.000001 5.000000 -0.000001 -0.153564 0.000087 2.718702
 61 0.000004 -0.000004 -3.713580 0.365818 2.880119 -0.191589
 62 0.000002 -0.000000 5.000000 3.053196 1.558589 -0.074928
 63 -0.000007 0.000006 3.713580 -0.001619 -3.122277 -0.475127
 64 0.000002 -0.000001 -5.000000 -0.088726 1.558589 3.066334
 65 7.363602 1.646647 0.495663 3.141593 -1.570796 0.000000
 66 -0.000005 0.000007 3.619081 0.008255 -3.110080 -0.985231
 67 16.573919 0.000002 0.000000 0.000000 -0.000000 -1.065827
 68 15.128181 0.000000 -0.000000 -0.102296 0.010178 0.114297
 69 5.758665 4.244730 0.000000 0.000000 0.000000 1.667687
 70 3.177725 0.000000 -0.000000 0.000000 0.000000 3.141593
 71 15.708953 0.000001 0.000000 -0.051525 0.003996 0.061523
 72 0.275148 0.189215 -3.445207 3.130898 0.000409 -1.514604
 73 17.210192 0.000001 0.000000 0.000000 -0.000000 -1.893339
 74 0.000001 -0.000000 -5.000000 -0.079430 1.546568 -1.570855
 75 0.000002 -0.000003 -3.619081 0.577895 2.675801 -0.242118
 76 16.573921 -0.000001 -0.000002 -0.000000 -0.000000 -1.163030
 77 15.128181 0.000001 0.000001 0.089479 0.309197 0.659208
 78 5.758666 4.244730 -0.000001 -0.000000 -0.000000 1.815142
 79 4.003934 -0.000000 0.000001 0.000000 0.000000 0.000000
 80 15.708954 0.000001 0.000002 0.042277 0.226871 0.443133
 81 0.273998 0.191089 3.439762 -3.130907 -0.000437 -1.508107
 82 17.210194 -0.000001 -0.000002 0.000000 -0.000000 -1.937080
 83 -0.000000 -0.000001 5.000000 -0.079319 1.595025 -1.570742
time 3
  0 -0.650000 0.000000 33.899605 -0.025849 0.174554 -1.569172
  1 5.685104 0.833236 -32.227173 -0.174512 -0.026131 1.569196
  2 -2.276935 0.000003 -1.238188 -1.570795 -1.570451 0.000000
  3 1.797373 0.712829 0.002375 -0.826456 0.170473 -0.078965
  4 4.118863 -0.003261 -0.000224 0.068265 -0.047710 0.077154
  5 4.118758 -0.003106 0.001040 -0.322793 -0.010184 0.053053
  6 4.119812 -0.002881 0.001004 -0.326551 0.301926 0.296509
  7 4.119328 -0.003447 -0.000314 0.103638 0.533397 0.260892
  8 4.443601 -0.000001 0.000001 -0.011312 0.149834 0.330765
  9 9.024060 0.000001 -0.000002 0.000000 0.000000 0.000000
 10 -0.881019 0.157886 1.484014 0.369097 -0.986214 2.463726
 11 6.384776 0.000001 0.000005 -1.459486 0.689494 -1.910616
 12 10.242684 0.000001 0.000001 -0.000000 -0.000000 -1.116665
 13 11.375560 -0.000001 -0.000001 2.996653 0.574582 -0.157111
 14 0.728679 0.023432 -1.008292 2.098333 -0.050480 0.642666
 15 2.136495 -0.000000 -0.000000 -0.000000 0.000000 -0.078540
 16 2.313139 0.000000 0.000000 0.000000 0.000000 0.000000
 17 3.115506 -0.886040 -0.021432 -0.162706 -0.035495 0.299633
 18 2.011149 -0.000001 -0.000001 0.000000 0.000000 1.104625
 19 2.141380 0.000001 0.000000 0.000000 0.000000 0.000000
 20 1.734172 0.000002 0.000000 -0.000000 -0.000000 0.551513
 21 0.000002 -4.440594 0.000000 1.570544 -0.062990 -0.195737
 22 6.000000 0.000001 0.000000 -2.914227 -0.000000 -0.000000
 23 0.000002 -4.440601 -0.000000 1.569944 -0.062987 0.004053
 24 11.375561 0.000002 0.000003 -2.369080 0.332489 0.076822
 25 -0.000001 -4.440604 0.000001 1.570144 -0.062988 0.004040
 26 10.510134 0.000001 0.000000 -0.000000 -0.000000 -2.129129
 27 -0.000003 -1.748400 5.000000 0.000000 0.004007 1.602290
 28 5.500001 -0.000000 -0.000000 0.194508 0.000000 -0.000000
 29 -0.000001 -1.940597 5.000000 -0.044472 0.004003 -0.000180
 30 6.551492 -0.000000 0.000001 -0.896413 0.838775 -1.398071
 31 0.000000 -1.940599 5.000001 -0.027189 -0.053376 0.005295
 32 6.551492 -0.000000 0.000001 -0.122862 0.412711 -0.349067
 33 -0.000000 -1.940599 4.999999 -0.066572 -0.152786 -0.110311
 34 0.881027 -0.150813 -1.484012 2.689509 0.690778 -0.760110
 35 6.384777 -0.000001 -0.000002 -0.073796 -0.413279 -0.808744
 36 10.242684 -0.000001 0.000003 0.000000 -0.000000 -2.421946
 37 11.375563 -0.000002 -0.000002 2.958072 0.329839 1.116053
 38 0.728682 0.023431 1.008292 -1.579583 -0.319038 0.212973
 39 2.136496 0.000004 -0.000000 0.000000 0.000000 1.282817
 40 2.313138 -0.000000 0.000000 0.000000 0.000000 3.141593
 41 3.115507 -0.886041 0.021431 0.420766 0.316066 0.167178
 42 2.011150 -0.000000 0.000001 -0.000000 0.000000 2.082010
 43 2.141379 -0.000001 0.000001 0.000000 0.000000 3.141593
 44 1.734173 -0.000002 0.000001 -0.000000 0.000000 1.041748
 45 0.136315 -3.738194 2.525891 1.493698 2.759406 -1.474501
 46 10.273803 -0.437103 1.198991 1.793563 0.004868 1.507198
 47 11.389367 -0.000821 0.158780 2.195565 0.352559 0.467500
 48 -0.000001 -4.440599 0.000003 1.570144 -3.078602 0.004040
 49 6.000000 0.000000 -0.000001 2.195565 0.000000 -0.000000
 50 0.000001 -4.440600 0.000000 1.569944 -3.078603 0.004053
 51 10.510132 0.000001 0.000001 0.000000 0.000000 -2.781769
 52 0.000000 -1.748401 -5.000000 -3.141593 0.004007 -1.539299
 53 5.500000 0.000001 0.000001 0.054460 -0.000000 0.000000
 54 0.000001 0.000000 -4.999998 -0.044472 3.137589 -0.000177
 55 6.551491 -0.000001 -0.000002 -0.054460 -0.130884 -0.254493
 56 -1.266843 -1.937443 -4.950559 -0.066572 -2.988806 -0.110308
 57 6.551491 -0.000001 -0.000002 -0.054460 -0.130884 -0.254493
 58 0.699370 -1.944206 -5.006848 -0.027189 -3.088217 0.005298
 59 4.226146 -0.003203 0.000000 0.066184 0.413338 0.205554
 60 -0.000002 5.000003 -0.000001 -0.153564 0.000087 2.718702
 61 0.000004 -0.000004 -3.713580 0.365818 2.880119 -0.191589
 62 0.000002 -0.000000 5.000000 3.053196 1.558589 -0.074928
 63 -0.000007 0.000006 3.713580 -0.001619 -3.122277 -0.475127
 64 0.000002 -0.000001 -5.000000 -0.088726 1.558589 3.066334
 65 7.363602 1.646647 0.495663 3.141593 -1.570796 0.000000
 66 -0.000005 0.000007 3.619081 0.008255 -3.110080 -0.985231
 67 16.573919 0.000002 0.000000 0.000000 -0.000000 -1.065827
 68 15.128181 0.000000 -0.000000 -0.102296 0.010178 0.114297
 69 5.758665 4.244730 0.000000 0.000000 0.000000 1.667687
 70 3.177725 0.000000 -0.000000 0.000000 0.000000 3.141593
 71 15.708953 0.000001 0.000000 -0.051525 0.003996 0.061523
 72 0.275148 0.189215 -3.445207 3.130898 0.000409 -1.514604
 73 17.210192 0.000001 0.000000 0.000000 -0.000000 -1.893339
 74 0.000001 -0.000000 -5.000000 -0.079430 1.546568 -1.570855
 75 0.000002 -0.000003 -3.619081 0.577895 2.675801 -0.242118
 76 16.573921 -0.000001 -0.000002 -0.000000 -0.000000 -1.163030
 77 15.128181 0.000001 0.000001 0.089479 0.309197 0.659208
 78 5.758666 4.244730 -0.000001 -0.000000 -0.000000 1.815142
 79 4.003934 -0.000000 0.000001 0.000000 0.000000 0.000000
 80 15.708954 0.000001 0.000002 0.042277 0.226871 0.443133
 81 0.273998 0.191089 3.439762 -3.130907 -0.000437 -1.508107
 82 17.210194 -0.000001 -0.000002 0.000000 -0.000000 -1.937080
 83 -0.000000 -0.000001 5.000000 -0.079319 1.595025 -1.570742
time 4
  0 -0.650000 0.000000 33.899605 -0.025849 0.174554 -1.569172
  1 5.685104 0.833236 -32.227173 -0.174512 -0.026131 1.569196
  2 -2.276935 0.000003 -1.238188 -1.570795 -1.570451 0.000000
  3 1.797373 0.712829 0.002375 -0.826456 0.170473 -0.078965
  4 4.118863 -0.003261 -0.000224 0.068265 -0.047710 0.077154
  5 4.118758 -0.003106 0.001040 -0.322793 -0.010184 0.053053
  6 4.119812 -0.002881 0.001004 -0.326551 0.301926 0.296509
  7 4.119328 -0.003447 -0.000314 0.103638 0.533397 0.260892
  8 4.443601 -0.000001 0.000001 -0.011312 0.149834 0.330765
  9 9.024060 0.000001 -0.000002 0.000000 0.000000 0.000000
 10 -0.881019 0.157886 1.484014 0.369097 -0.986214 2.463726
 11 6.384776 0.000001 0.000005 -1.460672 0.669434 -1.908305
 12 10.242681 -0.000000 -0.000001 0.000000 0.000000 -1.077025
 13 11.375562 0.000003 -0.000001 2.983683 0.577046 -0.178902
 14 0.728681 0.023431 -1.008291 2.098333 -0.050480 0.642666
 15 2.136493 0.000000 0.000002 0.000000 0.000000 -0.078540
 16 2.313140 0.000001 -0.000002 0.000000 0.000000 0.000000
 17 3.115506 -0.886041 -0.021432 -0.162706 -0.035495 0.299633
 18 2.011150 -0.000001 -0.000000 -0.000000 -0.000000 1.104625
 19 2.141379 -0.000001 0.000000 0.000000 0.000000 0.000000
 20 1.734172 0.000001 -0.000001 -0.000000 0.000000 0.551513
 21 0.000007 -4.440593 -0.000000 1.570544 -0.062990 -0.195737
 22 5.999999 0.000003 -0.000001 -2.924789 0.000000 0.000000
 23 0.000001 -4.440600 -0.000000 1.569944 -0.062987 0.004053
 24 11.375560 0.000002 0.000001 -2.372760 0.338818 0.067717
 25 -0.000002 -4.440602 0.000001 1.570144 -0.062988 0.004040
 26 10.510129 0.000000 -0.000001 -0.000000 -0.000000 -2.109308
 27 -0.000002 -1.748399 4.999999 -0.000000 0.004007 1.602291
 28 5.499999 -0.000000 -0.000000 0.201910 0.000000 -0.000000
 29 -0.000002 -1.940598 5.000001 -0.044472 0.004003 -0.000180
 30 6.551492 -0.000000 0.000001 -0.911465 0.825898 -1.411658
 31 0.000002 -1.940598 5.000002 -0.027189 -0.053376 0.005295
 32 6.551492 -0.000000 0.000001 -0.128088 0.410101 -0.352531
 33 -0.000002 -1.940600 4.999999 -0.066572 -0.152786 -0.110311
 34 0.881027 -0.150813 -1.484012 2.725131 0.679963 -0.715213
 35 6.384776 -0.000001 0.000000 -0.066637 -0.437519 -0.791209
 36 10.242683 -0.000001 0.000001 -0.000000 -0.000000 -2.413824
 37 11.375562 -0.000001 0.000001 2.958072 0.329839 1.116053
 38 0.728681 0.023431 1.008292 -1.579583 -0.319038 0.212973
 39 2.136497 -0.000002 -0.000001 -0.000000 0.000000 1.282817
 40 2.313138 0.000000 0.000000 0.000000 0.000000 3.141593
 41 3.115507 -0.886041 0.021431 0.420766 0.316066 0.167178
 42 2.011153 -0.000001 -0.000001 -0.000000 0.000000 2.082010
 43 2.141382 0.000002 -0.000000 0.000000 0.000000 3.141593
 44 1.734173 -0.000001 0.000000 -0.000000 0.000000 1.041748
 45 0.136314 -3.738193 2.525890 1.493698 2.759406 -1.474501
 46 10.273804 -0.437103 1.198991 1.793563 0.004868 1.507198
 47 11.389367 -0.000819 0.158783 2.195566 0.352559 0.467500
 48 0.000001 -4.440599 -0.000002 1.570144 -3.078602 0.004040
 49 6.000000 -0.000001 0.000000 2.195566 0.000000 0.000000
 50 0.000002 -4.440601 -0.000001 1.569944 -3.078603 0.004053
 51 10.510132 0.000000 0.000000 -0.000000 0.000000 -2.777709
 52 0.000000 -1.748400 -5.000001 -3.141593 0.004007 -1.539299
 53 5.499999 0.000001 -0.000001 0.053478 0.000000 0.000000
 54 0.000000 0.000000 -4.999999 -0.044472 3.137589 -0.000177
 55 6.551491 -0.000001 -0.000001 -0.053478 -0.140189 -0.250934
 56 -1.266843 -1.937443 -4.950559 -0.066572 -2.988806 -0.110308
 57 6.551491 -0.000001 -0.000001 -0.053478 -0.140189 -0.250934
 58 0.699370 -1.944208 -5.006846 -0.027189 -3.088217 0.005298
 59 4.226146 -0.003203 0.000000 0.066184 0.413338 0.205554
 60 -0.000002 5.000003 -0.000001 -0.153564 0.000087 2.718702
 61 0.000004 -0.000004 -3.713580 0.365818 2.880119 -0.191589
 62 0.000002 -0.000000 5.000000 3.053196 1.558589 -0.074928
 63 -0.000007 0.000006 3.713580 -0.001619 -3.122277 -0.475127
 64 0.000002 -0.000001 -5.000000 -0.088726 1.558589 3.066334
 65 7.363602 1.646647 0.495663 3.141593 -1.570796 0.000000
 66 -0.000005 0.000007 3.619081 0.008255 -3.110080 -0.985231
 67 16.573919 0.000002 0.000000 0.000000 -0.000000 -1.065827
 68 15.128181 0.000000 -0.000000 -0.102296 0.010178 0.114297
 69 5.758665 4.244730 0.000000 0.000000 0.000000 1.667687
 70 3.177725 0.000000 -0.000000 0.000000 0.000000 3.141593
 71 15.708953 0.000001 0.000000 -0.051525 0.003996 0.061523
 72 0.275148 0.189215 -3.445207 3.130898 0.000409 -1.514604
 73 17.210192 0.000001 0.000000 0.000000 -0.000000 -1.893339
 74 0.000001 -0.000000 -5.000000 -0.079430 1.546568 -1.570855
 75 0.000002 -0.000003 -3.619081 0.577895 2.675801 -0.242118
 76 16.573921 -0.000001 -0.000002 -0.000000 -0.000000 -1.163030
 77 15.128181 0.000001 0.000001 0.089479 0.309197 0.659208
 78 5.758666 4.244730 -0.000001 -0.000000 -0.000000 1.815142
 79 4.003934 -0.000000 0.000001 0.000000 0.000000 0.000000
 80 15.708954 0.000001 0.000002 0.042277 0.226871 0.443133
 81 0.273998 0.191089 3.439762 -3.130907 -0.000437 -1.508107
 82 17.210194 -0.000001 -0.000002 0.000000 -0.000000 -1.937080
 83 -0.000000 -0.000001 5.000000 -0.079319 1.595025 -1.570742
time 5
  0 -0.650000 0.000000 33.899605 -0.025849 0.174554 -1.569172
  1 5.685104 0.833236 -32.227173 -0.174512 -0.026131 1.569196
  2 -2.276935 0.000003 -1.238188 -1.570795 -1.570451 0.000000
  3 1.797373 0.712829 0.002375 -0.826456 0.170473 -0.078965
  4 4.118863 -0.003261 -0.000224 0.068265 -0.047710 0.077154
  5 4.118758 -0.003106 0.001040 -0.322793 -0.010184 0.053053
  6 4.119812 -0.002881 0.001004 -0.326551 0.301926 0.296509
  7 4.119328 -0.003447 -0.000314 0.103638 0.533397 0.260892
  8 4.443601 -0.000001 0.000001 -0.011312 0.149834 0.330765
  9 9.024060 0.000001 -0.000002 0.000000 0.000000 0.000000
 10 -0.881019 0.157886 1.484014 0.369097 -0.986214 2.463726
 11 6.384776 0.000001 0.000005 -1.461739 0.649324 -1.905714
 12 10.242681 0.000002 0.000001 0.000000 -0.000000 -1.037018
 13 11.375560 0.000002 -0.000000 2.970513 0.579609 -0.201179
 14 0.728681 0.023432 -1.008291 2.098333 -0.050480 0.642666
 15 2.136496 0.000001 -0.000001 -0.000000 0.000000 -0.078540
 16 2.313139 -0.000000 0.000001 0.000000 0.000000 0.000000
 17 3.115507 -0.886039 -0.021431 -0.162706 -0.035495 0.299633
 18 2.011151 -0.000001 0.000000 0.000000 0.000000 1.104625
 19 2.141380 -0.000000 0.000001 0.000000 0.000000 0.000000
 20 1.734174 0.000000 0.000001 0.000000 -0.000000 0.551513
 21 0.000005 -4.440594 0.000000 1.570544 -0.062990 -0.195737
 22 6.000000 0.000002 0.000000 -2.935522 0.000000 0.000000
 23 0.000002 -4.440603 -0.000000 1.569944 -0.062987 0.004053
 24 11.375560 0.000001 0.000002 -2.376427 0.345309 0.058473
 25 0.000000 -4.440603 -0.000001 1.570144 -0.062988 0.004040
 26 10.510129 0.000002 -0.000001 -0.000000 0.000000 -2.089305
 27 -0.000001 -1.748401 4.999999 -0.000000 0.004007 1.602290
 28 5.500000 0.000002 0.000001 0.209270 -0.000000 0.000000
 29 -0.000001 -1.940598 5.000001 -0.044472 0.004003 -0.000180
 30 6.551492 -0.000000 0.000001 -0.925961 0.812732 -1.424599
 31 -0.000003 -1.940599 5.000002 -0.027189 -0.053376 0.005295
 32 6.551492 -0.000000 0.000001 -0.133285 0.407383 -0.355909
 33 0.000001 -1.940601 4.999994 -0.066572 -0.152786 -0.110311
 34 0.881027 -0.150813 -1.484012 2.760293 0.667854 -0.671465
 35 6.384777 0.000000 -0.000001 -0.060158 -0.462414 -0.773878
 36 10.242682 0.000001 0.000003 0.000000 0.000000 -2.405702
 37 11.375560 0.000001 -0.000001 2.958072 0.329839 1.116053
 38 0.728679 0.023431 1.008292 -1.579583 -0.319038 0.212973
 39 2.136497 -0.000001 -0.000000 0.000000 0.000000 1.282817
 40 2.313139 -0.000000 0.000001 0.000000 0.000000 3.141593
 41 3.115506 -0.886041 0.021431 0.420766 0.316066 0.167178
 42 2.011151 -0.000001 -0.000002 0.000000 0.000000 2.082010
 43 2.141381 0.000001 -0.000001 0.000000 0.000000 3.141593
 44 1.734172 -0.000001 -0.000001 0.000000 0.000000 1.041748
 45 0.136315 -3.738193 2.525889 1.493698 2.759406 -1.474501
 46 10.273804 -0.437102 1.198990 1.793563 0.004868 1.507198
 47 11.389366 -0.000818 0.158781 2.195566 0.352559 0.467500
 48 -0.000000 -4.440599 -0.000001 1.570144 -3.078602 0.004040
 49 5.999998 -0.000001 -0.000002 2.195566 -0.000000 0.000000
 50 0.000001 -4.440602 0.000003 1.569944 -3.078603 0.004053
 51 10.510131 0.000003 0.000003 -0.000000 0.000000 -2.773647
 52 -0.000000 -1.748400 -5.000003 3.141593 0.004007 -1.539299
 53 5.500000 0.000002 0.000002 0.052838 -0.000000 0.000000
 54 -0.000000 -0.000002 -4.999998 -0.044472 3.137589 -0.000177
 55 6.551490 -0.000001 0.000001 -0.052838 -0.149497 -0.247296
 56 -1.266844 -1.937444 -4.950560 -0.066572 -2.988806 -0.110308
 57 6.551490 -0.000001 0.000001 -0.052838 -0.149497 -0.247296
 58 0.699370 -1.944207 -5.006847 -0.027189 -3.088217 0.005298
 59 4.226146 -0.003203 0.000000 0.066184 0.413338 0.205554
 60 -0.000002 5.000003 -0.000001 -0.153564 0.000087 2.718702
 61 0.000004 -0.000004 -3.713580 0.365818 2.880119 -0.191589
 62 0.000002 -0.000000 5.000000 3.053196 1.558589 -0.074928
 63 -0.000007 0.000006 3.713580 -0.001619 -3.122277 -0.475127
 64 0.000002 -0.000001 -5.000000 -0.088726 1.558589 3.066334
 65 7.363602 1.646647 0.495663 3.141593 -1.570796 0.000000
 66 -0.000005 0.000007 3.619081 0.008255 -3.110080 -0.985231
 67 16.573919 0.000002 0.000000 0.000000 -0.000000 -1.065827
 68 15.128181 0.000000 -0.000000 -0.102296 0.010178 0.114297
 69 5.758665 4.244730 0.000000 0.000000 0.000000 1.667687
 70 3.177725 0.000000 -0.000000 0.000000 0.000000 3.141593
 71 15.708953 0.000001 0.000000 -0.051525 0.003996 0.061523
 72 0.275148 0.189215 -3.445207 3.130898 0.000409 -1.514604
 73 17.210192 0.000001 0.000000 0.000000 -0.000000 -1.893339
 74 0.000001 -0.000000 -5.000000 -0.079430 1.546568 -1.570855
 75 0.000002 -0.000003 -3.619081 0.577895 2.675801 -0.242118
 76 16.573921 -0.000001 -0.000002 -0.000000 -0.000000 -1.163030
 77 15.128181 0.000001 0.000001 0.089479 0.309197 0.659208
 78 5.758666 4.244730 -0.000001 -0.000000 -0.000000 1.815142
 79 4.003934 -0.000000 0.000001 0.000000 0.000000 0.000000
 80 15.708954 0.000001 0.000002 0.042277 0.226871 0.443133
 81 0.273998 0.191089 3.439762 -3.130907 -0.000437 -1.508107
 82 17.210194 -0.000001 -0.000002 0.000000 -0.000000 -1.937080
 83 -0.000000 -0.000001 5.000000 -0.079319 1.595025 -1.570742
end
