version 1
nodes
  0 "Bip01"  -1
  1 "Bip01 Footsteps"   0
  2 "Bip01 Pelvis"   0
  3 "Bip01 Spine"   2
  4 "Bip01 Spine1"   3
  5 "Bip01 Spine2"   4
  6 "Bip01 Spine3"   5
  7 "Bip01 Neck"   6
  8 "Bip01 Head"   7
  9 "Dummy21"   8
 10 "Bip01 L Clavicle"   7
 11 "Bip01 L UpperArm"  10
 12 "Bip01 L Forearm"  11
 13 "Bip01 L Hand"  12
 14 "Bip01 L Finger0"  13
 15 "Bip01 L Finger01"  14
 16 "Dummy06"  15
 17 "Bip01 L Finger1"  13
 18 "Bip01 L Finger11"  17
 19 "Dummy03"  18
 20 "-- L knuckle"  17
 21 "-- L knuckle_end"  20
 22 "-- L Forearm twist"  12
 23 "-- L Forearm twist_end"  22
 24 "-- L wrist"  12
 25 "-- L wrist_end"  24
 26 "-- L Elbow"  11
 27 "--L Elbow_end"  26
 28 "-- L bicep twist"  11
 29 "-- L bicep twist_end"  28
 30 "-- L shoulder outside"  10
 31 "-- L shoulder outside_end"  30
 32 "-- L Shoulder inside"  10
 33 "-- L Shoulder inside_end"  32
 34 "Bip01 R Clavicle"   7
 35 "Bip01 R UpperArm"  34
 36 "Bip01 R Forearm"  35
 37 "Bip01 R Hand"  36
 38 "Bip01 R Finger0"  37
 39 "Bip01 R Finger01"  38
 40 "Dummy01"  39
 41 "Bip01 R Finger1"  37
 42 "Bip01 R Finger11"  41
 43 "Dummy02"  42
 44 "-- R knuckle"  41
 45 "Point06"  44
 46 "Line03"  37
 47 "-- R wrist"  36
 48 "-- R wrist_end"  47
 49 "-- R forearm twist"  36
 50 "-- R forearm twist_end"  49
 51 "-- R Elbow"  35
 52 "--R Elbow_end"  51
 53 "-- R bicep twist"  35
 54 "-- R bicep twist_end"  53
 55 "-- R Shoulder inside"  34
 56 "-- R Shoulder inside_end"  55
 57 "-- R shoulder outside"  34
 58 "-- R shoulder outside_end"  57
 59 "-- Neck smooth"   6
 60 "-- neck smooth end"  59
 61 "-- R Butt"   2
 62 "--R Butt_end"  61
 63 "-- L butt"   2
 64 "--L butt_end"  63
 65 "GIGN01"   2
 66 "Bip01 L Thigh"   2
 67 "Bip01 L Calf"  66
 68 "Bip01 L Foot"  67
 69 "Bip01 L Toe0"  68
 70 "Dummy16"  69
 71 "-- L ankle"  67
 72 "-- L ankleend"  71
 73 "-- L Knee"  66
 74 "--L Knee_end"  73
 75 "Bip01 R Thigh"   2
 76 "Bip01 R Calf"  75
 77 "Bip01 R Foot"  76
 78 "Bip01 R Toe0"  77
 79 "Dummy11"  78
 80 "-- R Ankle"  76
 81 "-- R ankleend"  80
 82 "-- R Knee"  75
 83 "--R Knee_end"  82
end
skeleton
time 0
  0 -0.650000 0.000000 33.899605 -0.025849 0.174554 -1.569172
  1 5.685104 0.833236 -32.227173 -0.174512 -0.026131 1.569196
  2 -2.276935 0.000003 -1.238188 -1.570795 -1.570451 0.000000
  3 1.796846 0.711901 0.000765 -0.239881 -0.170135 -0.051323
  4 4.119800 -0.002952 0.000783 -0.242410 0.103569 0.359326
  5 4.118882 -0.003164 0.000811 -0.250266 0.067780 0.071684
  6 4.116826 -0.002637 0.000797 -0.245816 -0.020003 -0.588863
  7 4.116511 -0.001038 -0.002656 1.296204 0.675646 0.037410
  8 4.443597 0.000000 -0.000000 -0.457286 0.671314 0.134787
  9 9.024061 0.000000 0.000001 0.000000 0.000000 0.000000
 10 -1.083648 1.304930 0.366618 1.333819 0.131941 2.010274
 11 6.384776 0.000001 0.000001 -1.407673 0.407577 -1.086969
 12 10.242682 0.000001 0.000000 -0.000000 -0.000000 -1.780236
 13 11.375561 0.000002 0.000001 2.746530 0.270097 0.240959
 14 0.728681 0.023431 -1.008291 2.019294 0.064901 1.011221
 15 2.136499 -0.000001 0.000000 0.000000 0.000000 0.287979
 16 2.313141 -0.000001 0.000001 0.000000 0.000000 0.000000
 17 3.115511 -0.886040 -0.021431 -0.283912 -0.104375 0.544892
 18 2.011151 -0.000000 0.000000 -0.000000 -0.000000 0.799193
 19 2.141379 -0.000001 0.000000 0.000000 0.000000 0.000000
 20 1.734173 0.000000 -0.000000 0.000000 0.000000 0.399550
 21 0.000008 -4.440594 -0.000000 1.570544 -0.062990 -0.195737
 22 5.999997 0.000001 0.000001 3.086453 -0.000000 0.000000
 23 0.000004 -4.440600 -0.000000 1.569944 -0.062987 0.004053
 24 11.375561 0.000001 0.000004 -2.549679 0.062199 0.228980
 25 0.000002 -4.440602 0.000000 1.570144 -0.062988 0.004040
 26 10.510130 0.000002 -0.000001 -0.000000 -0.000000 -2.460914
 27 0.000000 -1.748402 4.999999 -0.000000 0.004007 1.602290
 28 5.500000 -0.000001 0.000000 0.454882 0.000000 -0.000000
 29 -0.000002 -1.940600 5.000001 -0.044472 0.004003 -0.000180
 30 6.551490 0.000001 0.000001 -0.927151 0.403082 -0.583450
 31 0.000000 -1.940599 5.000001 -0.027189 -0.053376 0.005295
 32 6.551490 0.000001 0.000001 -0.362851 0.240898 -0.198001
 33 -0.000001 -1.940601 4.999998 -0.066572 -0.152786 -0.110311
 34 1.083645 -1.297855 -0.366618 1.432140 0.485853 -1.604862
 35 6.384777 -0.000000 0.000000 -0.025641 0.187025 -1.115406
 36 10.242682 -0.000000 -0.000002 0.000000 -0.000000 -2.253223
 37 11.375561 -0.000000 0.000002 3.080264 0.466119 1.004872
 38 0.728679 0.023431 1.008292 -1.579583 -0.319038 0.212973
 39 2.136496 -0.000000 -0.000001 -0.000000 0.000000 1.282817
 40 2.313140 0.000002 -0.000001 0.000000 0.000000 3.141593
 41 3.115505 -0.886041 0.021432 0.420766 0.316066 0.167178
 42 2.011151 -0.000001 -0.000002 -0.000000 0.000000 2.082010
 43 2.141380 -0.000000 -0.000002 0.000000 0.000000 3.141593
 44 1.734174 -0.000001 0.000000 -0.000000 0.000000 1.041748
 45 0.136315 -3.738192 2.525890 1.493698 2.759406 -1.474501
 46 10.273806 -0.437102 1.198994 1.793563 0.004868 1.507198
 47 11.389365 -0.000820 0.158784 2.231847 0.416883 0.368523
 48 0.000003 -4.440600 0.000001 1.570144 -3.078602 0.004040
 49 5.999999 -0.000001 0.000002 2.231847 -0.000000 0.000000
 50 0.000002 -4.440600 -0.000000 1.569944 -3.078603 0.004053
 51 10.510131 0.000001 0.000001 0.000000 0.000000 -2.697408
 52 -0.000000 -1.748398 -5.000000 -3.141593 0.004007 -1.539299
 53 5.500000 0.000000 -0.000001 -0.013030 -0.000000 -0.000000
 54 -0.000001 -0.000001 -5.000000 -0.044472 3.137589 -0.000177
 55 6.551490 -0.000001 -0.000000 0.013030 0.065102 -0.304489
 56 -1.266843 -1.937443 -4.950561 -0.066572 -2.988806 -0.110308
 57 6.551491 -0.000001 -0.000000 0.013030 0.065102 -0.304489
 58 0.699371 -1.944207 -5.006847 -0.027189 -3.088217 0.005298
 59 4.226147 -0.003201 0.000000 0.597159 0.349128 -0.105559
 60 0.000003 5.000000 0.000000 -0.153564 0.000087 2.718702
 61 0.000004 -0.000004 -3.713580 0.365818 2.880119 -0.191589
 62 0.000002 -0.000000 5.000000 3.053196 1.558589 -0.074928
 63 -0.000007 0.000006 3.713580 -0.001619 -3.122277 -0.475127
 64 0.000002 -0.000001 -5.000000 -0.088726 1.558589 3.066334
 65 7.363602 1.646647 0.495663 3.141593 -1.570796 0.000000
 66 -0.000005 0.000007 3.619081 0.008255 -3.110080 -0.985231
 67 16.573919 0.000002 0.000000 0.000000 -0.000000 -1.065827
 68 15.128181 0.000000 -0.000000 -0.102296 0.010178 0.114297
 69 5.758665 4.244730 0.000000 0.000000 0.000000 1.667687
 70 3.177725 0.000000 -0.000000 0.000000 0.000000 3.141593
 71 15.708953 0.000001 0.000000 -0.051525 0.003996 0.061523
 72 0.275148 0.189215 -3.445207 3.130898 0.000409 -1.514604
 73 17.210192 0.000001 0.000000 0.000000 -0.000000 -1.893339
 74 0.000001 -0.000000 -5.000000 -0.079430 1.546568 -1.570855
 75 0.000002 -0.000003 -3.619081 0.577895 2.675801 -0.242118
 76 16.573921 -0.000001 -0.000002 -0.000000 -0.000000 -1.163030
 77 15.128181 0.000001 0.000001 0.089479 0.309197 0.659208
 78 5.758666 4.244730 -0.000001 -0.000000 -0.000000 1.815142
 79 4.003934 -0.000000 0.000001 0.000000 0.000000 0.000000
 80 15.708954 0.000001 0.000002 0.042277 0.226871 0.443133
 81 0.273998 0.191089 3.439762 -3.130907 -0.000437 -1.508107
 82 17.210194 -0.000001 -0.000002 0.000000 -0.000000 -1.937080
 83 -0.000000 -0.000001 5.000000 -0.079319 1.595025 -1.570742
time 1
  0 -0.650000 0.000000 33.899605 -0.025849 0.174554 -1.569172
  1 5.685104 0.833236 -32.227173 -0.174512 -0.026131 1.569196
  2 -2.276935 0.000003 -1.238188 -1.570795 -1.570451 0.000000
  3 1.796873 0.711898 0.000762 -0.238768 -0.173677 -0.041302
  4 4.119831 -0.002945 0.000770 -0.238574 0.100038 0.369254
  5 4.118909 -0.003164 0.000800 -0.246783 0.064328 0.081611
  6 4.116851 -0.002656 0.000788 -0.243203 -0.023494 -0.578969
  7 4.116597 -0.001026 -0.002727 1.337797 0.655747 0.101515
  8 4.443596 0.000000 -0.000000 -0.502172 0.578352 -0.003028
  9 9.024060 0.000000 0.000001 0.000000 0.000000 0.000000
 10 -1.056529 1.339770 0.317106 1.294252 0.151651 1.972764
 11 6.384776 0.000000 0.000001 -1.390514 0.324622 -1.096102
 12 10.242681 -0.000003 0.000002 -0.000000 -0.000000 -1.716720
 13 11.375559 -0.000001 -0.000001 2.742784 0.267446 0.237615
 14 0.728679 0.023430 -1.008292 2.019294 0.064901 1.011221
 15 2.136499 0.000000 0.000003 -0.000000 0.000000 0.287979
 16 2.313141 0.000000 0.000000 0.000000 0.000000 0.000000
 17 3.115503 -0.886042 -0.021429 -0.283912 -0.104375 0.544892
 18 2.011152 -0.000000 0.000001 -0.000000 0.000000 0.799193
 19 2.141379 -0.000001 0.000001 0.000000 0.000000 0.000000
 20 1.734174 0.000001 0.000001 -0.000000 0.000000 0.399550
 21 0.000009 -4.440594 -0.000000 1.570544 -0.062990 -0.195737
 22 5.999999 -0.000001 -0.000000 3.082706 0.000000 -0.000000
 23 0.000000 -4.440600 -0.000000 1.569944 -0.062987 0.004053
 24 11.375563 0.000000 0.000004 -2.551541 0.061667 0.226728
 25 -0.000001 -4.440604 -0.000001 1.570144 -0.062988 0.004040
 26 10.510130 -0.000001 0.000001 0.000000 0.000000 -2.429156
 27 0.000001 -1.748401 4.999999 0.000000 0.004007 1.602291
 28 5.500000 -0.000000 0.000001 0.460708 -0.000000 0.000000
 29 -0.000000 -1.940599 5.000002 -0.044472 0.004003 -0.000180
 30 6.551491 0.000001 -0.000003 -0.925855 0.341761 -0.608737
 31 -0.000000 -1.940598 5.000001 -0.027189 -0.053376 0.005295
 32 6.551491 0.000001 -0.000003 -0.368046 0.217850 -0.217463
 33 -0.000001 -1.940601 5.000000 -0.066572 -0.152786 -0.110311
 34 1.056529 -1.332691 -0.317106 1.479410 0.516085 -1.572833
 35 6.384777 0.000000 0.000002 0.045524 0.209937 -1.092177
 36 10.242682 -0.000002 -0.000000 0.000000 -0.000000 -2.248163
 37 11.375560 0.000000 -0.000000 3.083168 0.459459 1.011174
 38 0.728680 0.023431 1.008291 -1.579583 -0.319038 0.212973
 39 2.136501 -0.000001 -0.000001 -0.000000 0.000000 1.282817
 40 2.313140 -0.000001 0.000001 0.000000 0.000000 3.141593
 41 3.115508 -0.886041 0.021432 0.420766 0.316066 0.167178
 42 2.011152 -0.000000 0.000000 -0.000000 0.000000 2.082010
 43 2.141379 -0.000001 -0.000000 0.000000 0.000000 3.141593
 44 1.734172 -0.000001 -0.000001 0.000000 -0.000000 1.041748
 45 0.136316 -3.738194 2.525891 1.493698 2.759406 -1.474501
 46 10.273806 -0.437102 1.198995 1.793563 0.004868 1.507198
 47 11.389366 -0.000819 0.158782 2.234419 0.415488 0.373097
 48 -0.000001 -4.440598 0.000000 1.570144 -3.078602 0.004040
 49 6.000000 0.000000 -0.000001 2.234419 -0.000000 -0.000000
 50 0.000003 -4.440604 0.000001 1.569944 -3.078603 0.004053
 51 10.510131 -0.000002 0.000001 -0.000000 0.000000 -2.694878
 52 -0.000001 -1.748400 -5.000001 3.141593 0.004007 -1.539299
 53 5.500000 -0.000001 0.000001 -0.039433 -0.000000 0.000000
 54 0.000002 -0.000000 -4.999999 -0.044472 3.137589 -0.000177
 55 6.551491 -0.000000 -0.000001 0.039432 0.060170 -0.300847
 56 -1.266844 -1.937444 -4.950562 -0.066572 -2.988806 -0.110308
 57 6.551491 0.000000 -0.000001 0.039432 0.060170 -0.300847
 58 0.699371 -1.944208 -5.006847 -0.027189 -3.088217 0.005298
 59 4.226147 -0.003201 0.000001 0.613550 0.351242 -0.074117
 60 0.000001 5.000000 0.000000 -0.153564 0.000087 2.718702
 61 0.000004 -0.000004 -3.713580 0.365818 2.880119 -0.191589
 62 0.000002 -0.000000 5.000000 3.053196 1.558589 -0.074928
 63 -0.000007 0.000006 3.713580 -0.001619 -3.122277 -0.475127
 64 0.000002 -0.000001 -5.000000 -0.088726 1.558589 3.066334
 65 7.363602 1.646647 0.495663 3.141593 -1.570796 0.000000
 66 -0.000005 0.000007 3.619081 0.008255 -3.110080 -0.985231
 67 16.573919 0.000002 0.000000 0.000000 -0.000000 -1.065827
 68 15.128181 0.000000 -0.000000 -0.102296 0.010178 0.114297
 69 5.758665 4.244730 0.000000 0.000000 0.000000 1.667687
 70 3.177725 0.000000 -0.000000 0.000000 0.000000 3.141593
 71 15.708953 0.000001 0.000000 -0.051525 0.003996 0.061523
 72 0.275148 0.189215 -3.445207 3.130898 0.000409 -1.514604
 73 17.210192 0.000001 0.000000 0.000000 -0.000000 -1.893339
 74 0.000001 -0.000000 -5.000000 -0.079430 1.546568 -1.570855
 75 0.000002 -0.000003 -3.619081 0.577895 2.675801 -0.242118
 76 16.573921 -0.000001 -0.000002 -0.000000 -0.000000 -1.163030
 77 15.128181 0.000001 0.000001 0.089479 0.309197 0.659208
 78 5.758666 4.244730 -0.000001 -0.000000 -0.000000 1.815142
 79 4.003934 -0.000000 0.000001 0.000000 0.000000 0.000000
 80 15.708954 0.000001 0.000002 0.042277 0.226871 0.443133
 81 0.273998 0.191089 3.439762 -3.130907 -0.000437 -1.508107
 82 17.210194 -0.000001 -0.000002 0.000000 -0.000000 -1.937080
 83 -0.000000 -0.000001 5.000000 -0.079319 1.595025 -1.570742
time 2
  0 -0.650000 0.000000 33.899605 -0.025849 0.174554 -1.569172
  1 5.685104 0.833236 -32.227173 -0.174512 -0.026131 1.569196
  2 -2.276935 0.000003 -1.238188 -1.570795 -1.570451 0.000000
  3 1.796903 0.711895 0.000758 -0.237689 -0.177230 -0.031280
  4 4.119855 -0.002937 0.000759 -0.234773 0.096470 0.379165
  5 4.118942 -0.003165 0.000789 -0.243335 0.060842 0.091523
  6 4.116868 -0.002670 0.000781 -0.240625 -0.027011 -0.569084
  7 4.116690 -0.001007 -0.002798 1.377087 0.633835 0.163563
  8 4.443597 -0.000001 -0.000000 -0.527625 0.483514 -0.129308
  9 9.024060 -0.000001 0.000002 0.000000 0.000000 0.000000
 10 -1.026188 1.373583 0.268766 1.253820 0.169865 1.934380
 11 6.384776 0.000001 0.000001 -1.374977 0.242782 -1.106334
 12 10.242681 -0.000004 0.000001 -0.000000 -0.000000 -1.649077
 13 11.375563 0.000001 -0.000000 2.738287 0.267034 0.228780
 14 0.728681 0.023431 -1.008292 2.019294 0.064901 1.011221
 15 2.136497 -0.000001 -0.000000 0.000000 0.000000 0.287979
 16 2.313139 -0.000000 -0.000001 0.000000 0.000000 0.000000
 17 3.115503 -0.886042 -0.021431 -0.283912 -0.104375 0.544892
 18 2.011157 -0.000001 -0.000004 0.000000 0.000000 0.799193
 19 2.141378 0.000001 0.000000 0.000000 0.000000 0.000000
 20 1.734174 0.000001 -0.000002 -0.000000 -0.000000 0.399550
 21 0.000009 -4.440593 -0.000002 1.570544 -0.062990 -0.195737
 22 6.000002 0.000001 0.000001 3.078531 0.000000 0.000000
 23 0.000001 -4.440601 -0.000000 1.569944 -0.062987 0.004053
 24 11.375566 0.000002 0.000004 -2.553392 0.064295 0.222445
 25 -0.000001 -4.440604 -0.000000 1.570144 -0.062988 0.004040
 26 10.510130 -0.000003 0.000000 -0.000000 -0.000000 -2.395335
 27 0.000001 -1.748402 4.999999 -0.000000 0.004007 1.602290
 28 5.500000 -0.000001 0.000001 0.466165 0.000000 0.000000
 29 -0.000001 -1.940600 5.000000 -0.044472 0.004003 -0.000180
 30 6.551491 0.000000 0.000001 -0.925772 0.282514 -0.632933
 31 0.000000 -1.940598 5.000001 -0.027189 -0.053376 0.005295
 32 6.551491 0.000000 0.000001 -0.372789 0.195353 -0.235362
 33 -0.000000 -1.940598 4.999994 -0.066572 -0.152786 -0.110311
 34 1.026187 -1.366510 -0.268766 1.530711 0.543884 -1.536797
 35 6.384777 -0.000000 -0.000001 0.116232 0.232043 -1.065827
 36 10.242682 -0.000001 0.000001 -0.000000 0.000000 -2.243103
 37 11.375560 0.000001 -0.000000 3.086017 0.452784 1.017433
 38 0.728682 0.023431 1.008293 -1.579583 -0.319038 0.212973
 39 2.136498 0.000001 -0.000000 0.000000 -0.000000 1.282817
 40 2.313140 -0.000001 -0.000000 0.000000 0.000000 3.141593
 41 3.115508 -0.886041 0.021432 0.420766 0.316066 0.167178
 42 2.011152 0.000001 0.000002 -0.000000 0.000000 2.082010
 43 2.141378 0.000002 -0.000002 0.000000 0.000000 3.141593
 44 1.734171 -0.000001 -0.000001 -0.000000 -0.000000 1.041748
 45 0.136316 -3.738194 2.525893 1.493698 2.759406 -1.474501
 46 10.273806 -0.437101 1.198991 1.793563 0.004868 1.507198
 47 11.389365 -0.000819 0.158783 2.236978 0.414081 0.377665
 48 0.000002 -4.440598 -0.000000 1.570144 -3.078602 0.004040
 49 6.000000 0.000000 0.000001 2.236978 -0.000000 -0.000000
 50 0.000002 -4.440603 0.000000 1.569944 -3.078603 0.004053
 51 10.510131 -0.000001 0.000001 0.000000 0.000000 -2.692348
 52 0.000000 -1.748399 -4.999999 3.141593 0.004007 -1.539299
 53 5.500000 0.000000 0.000002 -0.065149 -0.000000 0.000000
 54 0.000001 -0.000001 -5.000002 -0.044472 3.137589 -0.000177
 55 6.551491 -0.000000 -0.000003 0.065149 0.055315 -0.297270
 56 -1.266843 -1.937444 -4.950561 -0.066572 -2.988806 -0.110308
 57 6.551491 -0.000000 -0.000003 0.065149 0.055315 -0.297270
 58 0.699371 -1.944208 -5.006846 -0.027189 -3.088217 0.005298
 59 4.226148 -0.003202 -0.000000 0.629843 0.352545 -0.042508
 60 0.000000 5.000000 0.000000 -0.153564 0.000087 2.718702
 61 0.000004 -0.000004 -3.713580 0.365818 2.880119 -0.191589
 62 0.000002 -0.000000 5.000000 3.053196 1.558589 -0.074928
 63 -0.000007 0.000006 3.713580 -0.001619 -3.122277 -0.475127
 64 0.000002 -0.000001 -5.000000 -0.088726 1.558589 3.066334
 65 7.363602 1.646647 0.495663 3.141593 -1.570796 0.000000
 66 -0.000005 0.000007 3.619081 0.008255 -3.110080 -0.985231
 67 16.573919 0.000002 0.000000 0.000000 -0.000000 -1.065827
 68 15.128181 0.000000 -0.000000 -0.102296 0.010178 0.114297
 69 5.758665 4.244730 0.000000 0.000000 0.000000 1.667687
 70 3.177725 0.000000 -0.000000 0.000000 0.000000 3.141593
 71 15.708953 0.000001 0.000000 -0.051525 0.003996 0.061523
 72 0.275148 0.189215 -3.445207 3.130898 0.000409 -1.514604
 73 17.210192 0.000001 0.000000 0.000000 -0.000000 -1.893339
 74 0.000001 -0.000000 -5.000000 -0.079430 1.546568 -1.570855
 75 0.000002 -0.000003 -3.619081 0.577895 2.675801 -0.242118
 76 16.573921 -0.000001 -0.000002 -0.000000 -0.000000 -1.163030
 77 15.128181 0.000001 0.000001 0.089479 0.309197 0.659208
 78 5.758666 4.244730 -0.000001 -0.000000 -0.000000 1.815142
 79 4.003934 -0.000000 0.000001 0.000000 0.000000 0.000000
 80 15.708954 0.000001 0.000002 0.042277 0.226871 0.443133
 81 0.273998 0.191089 3.439762 -3.130907 -0.000437 -1.508107
 82 17.210194 -0.000001 -0.000002 0.000000 -0.000000 -1.937080
 83 -0.000000 -0.000001 5.000000 -0.079319 1.595025 -1.570742
time 3
  0 -0.650000 0.000000 33.899605 -0.025849 0.174554 -1.569172
  1 5.685104 0.833236 -32.227173 -0.174512 -0.026131 1.569196
  2 -2.276935 0.000003 -1.238188 -1.570795 -1.570451 0.000000
  3 1.796937 0.711891 0.000754 -0.236646 -0.180794 -0.021254
  4 4.119878 -0.002928 0.000747 -0.231010 0.092864 0.389059
  5 4.118969 -0.003164 0.000778 -0.239923 0.057323 0.101421
  6 4.116890 -0.002689 0.000774 -0.238081 -0.030553 -0.559207
  7 4.116773 -0.000982 -0.002863 1.414021 0.610060 0.223531
  8 4.443597 0.000000 -0.000000 -0.536761 0.389007 -0.248301
  9 9.024059 -0.000000 -0.000001 0.000000 0.000000 0.000000
 10 -0.992704 1.406281 0.221740 1.212560 0.186523 1.895160
 11 6.384777 -0.000001 0.000001 -1.360595 0.161948 -1.117537
 12 10.242682 0.000002 0.000000 0.000000 0.000000 -1.577451
 13 11.375566 0.000001 0.000000 2.733201 0.268607 0.214728
 14 0.728682 0.023431 -1.008292 2.019294 0.064901 1.011221
 15 2.136493 0.000001 -0.000002 0.000000 -0.000000 0.287979
 16 2.313139 -0.000000 0.000003 0.000000 0.000000 0.000000
 17 3.115501 -0.886042 -0.021429 -0.283912 -0.104375 0.544892
 18 2.011158 -0.000002 -0.000003 0.000000 -0.000000 0.799193
 19 2.141378 0.000002 -0.000000 0.000000 0.000000 0.000000
 20 1.734171 0.000001 0.000001 -0.000000 -0.000000 0.399550
 21 0.000007 -4.440595 0.000001 1.570544 -0.062990 -0.195737
 22 6.000002 -0.000001 -0.000001 3.074045 0.000000 -0.000000
 23 -0.000002 -4.440599 -0.000001 1.569944 -0.062987 0.004053
 24 11.375562 0.000000 0.000003 -2.555172 0.069894 0.216151
 25 -0.000001 -4.440603 -0.000001 1.570144 -0.062988 0.004040
 26 10.510130 0.000002 -0.000000 0.000000 0.000000 -2.359522
 27 0.000002 -1.748400 4.999999 0.000000 0.004007 1.602291
 28 5.500000 0.000000 0.000000 0.471588 -0.000000 0.000000
 29 -0.000001 -1.940596 4.999999 -0.044472 0.004003 -0.000180
 30 6.551490 -0.000001 0.000001 -0.927469 0.224950 -0.656351
 31 0.000001 -1.940597 5.000001 -0.027189 -0.053376 0.005295
 32 6.551490 -0.000001 0.000001 -0.377323 0.173477 -0.251819
 33 -0.000000 -1.940601 4.999999 -0.066572 -0.152786 -0.110311
 34 0.992707 -1.399205 -0.221740 1.586069 0.568810 -1.496729
 35 6.384776 0.000000 0.000000 0.186491 0.253104 -1.036356
 36 10.242682 -0.000001 -0.000001 0.000000 -0.000000 -2.238043
 37 11.375560 0.000001 0.000001 3.088809 0.446092 1.023651
 38 0.728680 0.023431 1.008293 -1.579583 -0.319038 0.212973
 39 2.136496 0.000000 -0.000001 -0.000000 -0.000000 1.282817
 40 2.313139 -0.000002 0.000001 0.000000 0.000000 3.141593
 41 3.115508 -0.886041 0.021432 0.420765 0.316066 0.167178
 42 2.011153 0.000000 -0.000001 -0.000000 0.000000 2.082010
 43 2.141379 0.000001 -0.000002 0.000000 0.000000 3.141593
 44 1.734174 -0.000001 -0.000001 0.000000 0.000000 1.041748
 45 0.136315 -3.738192 2.525888 1.493698 2.759406 -1.474501
 46 10.273804 -0.437102 1.198992 1.793563 0.004868 1.507198
 47 11.389366 -0.000819 0.158781 2.239523 0.412661 0.382229
 48 -0.000001 -4.440599 0.000000 1.570144 -3.078602 0.004040
 49 6.000000 0.000001 -0.000002 2.239523 -0.000000 0.000000
 50 0.000003 -4.440603 -0.000000 1.569944 -3.078603 0.004053
 51 10.510130 -0.000000 0.000001 0.000000 -0.000000 -2.689818
 52 0.000000 -1.748399 -5.000001 3.141593 0.004007 -1.539299
 53 5.499999 0.000001 0.000002 -0.090002 -0.000000 0.000000
 54 0.000001 -0.000001 -5.000000 -0.044472 3.137589 -0.000177
 55 6.551491 0.000000 0.000002 0.090002 0.050775 -0.293699
 56 -1.266843 -1.937444 -4.950558 -0.066572 -2.988806 -0.110308
 57 6.551491 0.000000 0.000002 0.090002 0.050775 -0.293699
 58 0.699370 -1.944209 -5.006846 -0.027189 -3.088217 0.005298
 59 4.226145 -0.003202 0.000001 0.645958 0.353012 -0.010859
 60 0.000001 5.000000 0.000000 -0.153564 0.000087 2.718702
 61 0.000004 -0.000004 -3.713580 0.365818 2.880119 -0.191589
 62 0.000002 -0.000000 5.000000 3.053196 1.558589 -0.074928
 63 -0.000007 0.000006 3.713580 -0.001619 -3.122277 -0.475127
 64 0.000002 -0.000001 -5.000000 -0.088726 1.558589 3.066334
 65 7.363602 1.646647 0.495663 3.141593 -1.570796 0.000000
 66 -0.000005 0.000007 3.619081 0.008255 -3.110080 -0.985231
 67 16.573919 0.000002 0.000000 0.000000 -0.000000 -1.065827
 68 15.128181 0.000000 -0.000000 -0.102296 0.010178 0.114297
 69 5.758665 4.244730 0.000000 0.000000 0.000000 1.667687
 70 3.177725 0.000000 -0.000000 0.000000 0.000000 3.141593
 71 15.708953 0.000001 0.000000 -0.051525 0.003996 0.061523
 72 0.275148 0.189215 -3.445207 3.130898 0.000409 -1.514604
 73 17.210192 0.000001 0.000000 0.000000 -0.000000 -1.893339
 74 0.000001 -0.000000 -5.000000 -0.079430 1.546568 -1.570855
 75 0.000002 -0.000003 -3.619081 0.577895 2.675801 -0.242118
 76 16.573921 -0.000001 -0.000002 -0.000000 -0.000000 -1.163030
 77 15.128181 0.000001 0.000001 0.089479 0.309197 0.659208
 78 5.758666 4.244730 -0.000001 -0.000000 -0.000000 1.815142
 79 4.003934 -0.000000 0.000001 0.000000 0.000000 0.000000
 80 15.708954 0.000001 0.000002 0.042277 0.226871 0.443133
 81 0.273998 0.191089 3.439762 -3.130907 -0.000437 -1.508107
 82 17.210194 -0.000001 -0.000002 0.000000 -0.000000 -1.937080
 83 -0.000000 -0.000001 5.000000 -0.079319 1.595025 -1.570742
time 4
  0 -0.650000 0.000000 33.899605 -0.025849 0.174554 -1.569172
  1 5.685104 0.833236 -32.227173 -0.174512 -0.026131 1.569196
  2 -2.276935 0.000003 -1.238188 -1.570795 -1.570451 0.000000
  3 1.796937 0.711891 0.000754 -0.236646 -0.180794 -0.021254
  4 4.119878 -0.002928 0.000747 -0.231010 0.092864 0.389059
  5 4.118969 -0.003164 0.000778 -0.239923 0.057323 0.101421
  6 4.116890 -0.002689 0.000774 -0.238081 -0.030553 -0.559207
  7 4.116773 -0.000982 -0.002863 1.414021 0.610060 0.223531
  8 4.443597 0.000000 -0.000000 -0.536761 0.389007 -0.248301
  9 9.024059 -0.000000 -0.000001 0.000000 0.000000 0.000000
 10 -0.992704 1.406281 0.221740 1.212560 0.186523 1.895160
 11 6.384777 -0.000001 0.000001 -1.370982 0.153521 -1.108429
 12 10.242682 0.000000 0.000001 -0.000000 -0.000000 -1.556983
 13 11.375565 -0.000000 -0.000000 2.728443 0.270964 0.207181
 14 0.728683 0.023431 -1.008292 2.019294 0.064901 1.011221
 15 2.136498 0.000000 0.000001 -0.000000 0.000000 0.287979
 16 2.313140 0.000000 0.000001 0.000000 0.000000 0.000000
 17 3.115512 -0.886040 -0.021432 -0.283912 -0.104375 0.544892
 18 2.011152 -0.000000 0.000002 -0.000000 0.000000 0.799193
 19 2.141378 0.000001 0.000002 0.000000 0.000000 0.000000
 20 1.734175 0.000000 0.000002 0.000000 0.000000 0.399550
 21 0.000003 -4.440591 0.000003 1.570544 -0.062990 -0.195737
 22 6.000000 0.000000 0.000000 3.069604 -0.000000 -0.000000
 23 0.000002 -4.440601 -0.000002 1.569944 -0.062987 0.004053
 24 11.375565 0.000001 0.000004 -2.557018 0.073619 0.213415
 25 -0.000001 -4.440605 0.000000 1.570144 -0.062988 0.004040
 26 10.510131 -0.000001 0.000001 -0.000000 -0.000000 -2.349288
 27 -0.000000 -1.748399 4.999999 0.000000 0.004007 1.602290
 28 5.500000 -0.000002 0.000001 0.477261 -0.000000 0.000000
 29 -0.000001 -1.940600 5.000002 -0.044472 0.004003 -0.000180
 30 6.551490 -0.000001 0.000001 -0.939231 0.221560 -0.654016
 31 -0.000000 -1.940602 5.000001 -0.027189 -0.053376 0.005295
 32 6.551490 -0.000001 0.000001 -0.381663 0.172544 -0.250047
 33 -0.000000 -1.940601 5.000000 -0.066572 -0.152786 -0.110311
 34 0.992707 -1.399205 -0.221740 1.593131 0.597609 -1.450077
 35 6.384776 0.000001 -0.000000 0.220376 0.250181 -1.011575
 36 10.242682 -0.000000 0.000003 -0.000000 -0.000000 -2.232983
 37 11.375562 0.000002 -0.000004 3.091547 0.439385 1.029828
 38 0.728679 0.023431 1.008292 -1.579583 -0.319039 0.212973
 39 2.136498 -0.000001 -0.000001 -0.000000 -0.000000 1.282817
 40 2.313139 -0.000001 -0.000001 0.000000 0.000000 3.141593
 41 3.115506 -0.886041 0.021432 0.420766 0.316066 0.167178
 42 2.011152 -0.000000 -0.000001 -0.000000 -0.000000 2.082010
 43 2.141379 0.000003 -0.000002 0.000000 0.000000 3.141593
 44 1.734172 -0.000001 -0.000002 0.000000 -0.000000 1.041748
 45 0.136315 -3.738191 2.525887 1.493698 2.759406 -1.474501
 46 10.273805 -0.437102 1.198995 1.793563 0.004868 1.507198
 47 11.389366 -0.000818 0.158779 2.242055 0.411229 0.386789
 48 0.000002 -4.440600 0.000001 1.570144 -3.078602 0.004040
 49 5.999999 0.000000 -0.000000 2.242055 -0.000000 0.000000
 50 0.000001 -4.440602 -0.000000 1.569944 -3.078603 0.004053
 51 10.510131 -0.000001 0.000001 0.000000 -0.000000 -2.687288
 52 0.000000 -1.748400 -5.000001 -3.141593 0.004007 -1.539299
 53 5.500000 0.000000 0.000003 -0.100015 0.000000 -0.000000
 54 -0.000000 -0.000001 -5.000000 -0.044472 3.137589 -0.000177
 55 6.551491 0.000001 0.000001 0.100015 0.045366 -0.290688
 56 -1.266844 -1.937443 -4.950561 -0.066572 -2.988806 -0.110308
 57 6.551491 0.000001 0.000001 0.100015 0.045366 -0.290688
 58 0.699370 -1.944208 -5.006847 -0.027189 -3.088217 0.005298
 59 4.226145 -0.003202 0.000001 0.645958 0.353012 -0.010859
 60 0.000001 5.000000 0.000000 -0.153564 0.000087 2.718702
 61 0.000004 -0.000004 -3.713580 0.365818 2.880119 -0.191589
 62 0.000002 -0.000000 5.000000 3.053196 1.558589 -0.074928
 63 -0.000007 0.000006 3.713580 -0.001619 -3.122277 -0.475127
 64 0.000002 -0.000001 -5.000000 -0.088726 1.558589 3.066334
 65 7.363602 1.646647 0.495663 3.141593 -1.570796 0.000000
 66 -0.000005 0.000007 3.619081 0.008255 -3.110080 -0.985231
 67 16.573919 0.000002 0.000000 0.000000 -0.000000 -1.065827
 68 15.128181 0.000000 -0.000000 -0.102296 0.010178 0.114297
 69 5.758665 4.244730 0.000000 0.000000 0.000000 1.667687
 70 3.177725 0.000000 -0.000000 0.000000 0.000000 3.141593
 71 15.708953 0.000001 0.000000 -0.051525 0.003996 0.061523
 72 0.275148 0.189215 -3.445207 3.130898 0.000409 -1.514604
 73 17.210192 0.000001 0.000000 0.000000 -0.000000 -1.893339
 74 0.000001 -0.000000 -5.000000 -0.079430 1.546568 -1.570855
 75 0.000002 -0.000003 -3.619081 0.577895 2.675801 -0.242118
 76 16.573921 -0.000001 -0.000002 -0.000000 -0.000000 -1.163030
 77 15.128181 0.000001 0.000001 0.089479 0.309197 0.659208
 78 5.758666 4.244730 -0.000001 -0.000000 -0.000000 1.815142
 79 4.003934 -0.000000 0.000001 0.000000 0.000000 0.000000
 80 15.708954 0.000001 0.000002 0.042277 0.226871 0.443133
 81 0.273998 0.191089 3.439762 -3.130907 -0.000437 -1.508107
 82 17.210194 -0.000001 -0.000002 0.000000 -0.000000 -1.937080
 83 -0.000000 -0.000001 5.000000 -0.079319 1.595025 -1.570742
time 5
  0 -0.650000 0.000000 33.899605 -0.025849 0.174554 -1.569172
  1 5.685104 0.833236 -32.227173 -0.174512 -0.026131 1.569196
  2 -2.276935 0.000003 -1.238188 -1.570795 -1.570451 0.000000
  3 1.796937 0.711891 0.000754 -0.236646 -0.180794 -0.021254
  4 4.119878 -0.002928 0.000747 -0.231010 0.092864 0.389059
  5 4.118969 -0.003164 0.000778 -0.239923 0.057323 0.101421
  6 4.116890 -0.002689 0.000774 -0.238081 -0.030553 -0.559207
  7 4.116773 -0.000982 -0.002863 1.414021 0.610060 0.223531
  8 4.443597 0.000000 -0.000000 -0.536761 0.389007 -0.248301
  9 9.024059 -0.000000 -0.000001 0.000000 0.000000 0.000000
 10 -0.992704 1.406281 0.221740 1.212560 0.186523 1.895160
 11 6.384777 -0.000001 0.000001 -1.381679 0.144897 -1.098616
 12 10.242682 -0.000001 0.000001 -0.000000 0.000000 -1.536046
 13 11.375565 -0.000001 -0.000000 2.723225 0.273871 0.199163
 14 0.728680 0.023431 -1.008291 2.019294 0.064901 1.011221
 15 2.136496 0.000000 -0.000001 -0.000000 0.000000 0.287979
 16 2.313140 0.000000 -0.000001 0.000000 0.000000 0.000000
 17 3.115508 -0.886040 -0.021431 -0.283912 -0.104375 0.544892
 18 2.011152 0.000000 -0.000002 -0.000000 0.000000 0.799193
 19 2.141378 -0.000001 -0.000000 0.000000 0.000000 0.000000
 20 1.734172 0.000001 -0.000000 0.000000 0.000000 0.399550
 21 0.000007 -4.440595 -0.000002 1.570544 -0.062990 -0.195737
 22 6.000001 0.000000 0.000001 3.064719 0.000000 0.000000
 23 0.000004 -4.440600 0.000000 1.569944 -0.062987 0.004053
 24 11.375561 0.000000 0.000004 -2.559017 0.077811 0.210654
 25 0.000001 -4.440603 0.000000 1.570144 -0.062988 0.004040
 26 10.510131 -0.000003 0.000002 0.000000 0.000000 -2.338820
 27 -0.000000 -1.748401 4.999999 0.000000 0.004007 1.602290
 28 5.500000 -0.000001 0.000001 0.483004 0.000000 -0.000000
 29 -0.000001 -1.940600 4.999999 -0.044472 0.004003 -0.000180
 30 6.551490 -0.000001 0.000001 -0.951224 0.218068 -0.651590
 31 0.000000 -1.940600 5.000002 -0.027189 -0.053376 0.005295
 32 6.551490 -0.000001 0.000001 -0.386041 0.171571 -0.248221
 33 0.000000 -1.940601 4.999996 -0.066572 -0.152786 -0.110311
 34 0.992707 -1.399205 -0.221740 1.603177 0.626767 -1.402172
 35 6.384776 0.000000 -0.000000 0.253533 0.245740 -0.986391
 36 10.242681 -0.000000 0.000001 0.000000 0.000000 -2.227923
 37 11.375561 0.000001 0.000000 3.094231 0.432662 1.035966
 38 0.728679 0.023431 1.008290 -1.579583 -0.319038 0.212973
 39 2.136500 -0.000001 0.000000 -0.000000 -0.000000 1.282817
 40 2.313139 0.000000 0.000000 0.000000 0.000000 3.141593
 41 3.115505 -0.886041 0.021430 0.420766 0.316066 0.167178
 42 2.011149 -0.000000 0.000001 -0.000000 -0.000000 2.082010
 43 2.141379 0.000001 0.000002 0.000000 0.000000 3.141593
 44 1.734172 -0.000001 0.000001 0.000000 -0.000000 1.041748
 45 0.136314 -3.738193 2.525892 1.493698 2.759406 -1.474501
 46 10.273804 -0.437102 1.198993 1.793563 0.004868 1.507198
 47 11.389366 -0.000819 0.158782 2.244575 0.409785 0.391344
 48 0.000000 -4.440599 0.000000 1.570144 -3.078602 0.004040
 49 5.999999 0.000001 -0.000000 2.244575 -0.000000 0.000000
 50 0.000002 -4.440602 -0.000000 1.569944 -3.078603 0.004053
 51 10.510130 0.000000 0.000002 0.000000 0.000000 -2.684758
 52 -0.000001 -1.748399 -5.000003 3.141593 0.004007 -1.539299
 53 5.499999 0.000000 0.000001 -0.109528 -0.000000 -0.000000
 54 0.000000 -0.000000 -5.000001 -0.044472 3.137589 -0.000177
 55 6.551490 0.000000 0.000000 0.109528 0.039996 -0.287692
 56 -1.266844 -1.937444 -4.950560 -0.066572 -2.988806 -0.110308
 57 6.551491 0.000000 0.000000 0.109528 0.039996 -0.287692
 58 0.699370 -1.944209 -5.006848 -0.027189 -3.088217 0.005298
 59 4.226145 -0.003202 0.000001 0.645958 0.353012 -0.010859
 60 0.000001 5.000000 0.000000 -0.153564 0.000087 2.718702
 61 0.000004 -0.000004 -3.713580 0.365818 2.880119 -0.191589
 62 0.000002 -0.000000 5.000000 3.053196 1.558589 -0.074928
 63 -0.000007 0.000006 3.713580 -0.001619 -3.122277 -0.475127
 64 0.000002 -0.000001 -5.000000 -0.088726 1.558589 3.066334
 65 7.363602 1.646647 0.495663 3.141593 -1.570796 0.000000
 66 -0.000005 0.000007 3.619081 0.008255 -3.110080 -0.985231
 67 16.573919 0.000002 0.000000 0.000000 -0.000000 -1.065827
 68 15.128181 0.000000 -0.000000 -0.102296 0.010178 0.114297
 69 5.758665 4.244730 0.000000 0.000000 0.000000 1.667687
 70 3.177725 0.000000 -0.000000 0.000000 0.000000 3.141593
 71 15.708953 0.000001 0.000000 -0.051525 0.003996 0.061523
 72 0.275148 0.189215 -3.445207 3.130898 0.000409 -1.514604
 73 17.210192 0.000001 0.000000 0.000000 -0.000000 -1.893339
 74 0.000001 -0.000000 -5.000000 -0.079430 1.546568 -1.570855
 75 0.000002 -0.000003 -3.619081 0.577895 2.675801 -0.242118
 76 16.573921 -0.000001 -0.000002 -0.000000 -0.000000 -1.163030
 77 15.128181 0.000001 0.000001 0.089479 0.309197 0.659208
 78 5.758666 4.244730 -0.000001 -0.000000 -0.000000 1.815142
 79 4.003934 -0.000000 0.000001 0.000000 0.000000 0.000000
 80 15.708954 0.000001 0.000002 0.042277 0.226871 0.443133
 81 0.273998 0.191089 3.439762 -3.130907 -0.000437 -1.508107
 82 17.210194 -0.000001 -0.000002 0.000000 -0.000000 -1.937080
 83 -0.000000 -0.000001 5.000000 -0.079319 1.595025 -1.570742
end
