version 1
nodes
  0 "Bip01"  -1
  1 "Bip01 Footsteps"   0
  2 "Bip01 Pelvis"   0
  3 "Bip01 Spine"   2
  4 "Bip01 Spine1"   3
  5 "Bip01 Spine2"   4
  6 "Bip01 Spine3"   5
  7 "Bip01 Neck"   6
  8 "Bip01 Head"   7
  9 "Dummy21"   8
 10 "Bip01 L Clavicle"   7
 11 "Bip01 L UpperArm"  10
 12 "Bip01 L Forearm"  11
 13 "Bip01 L Hand"  12
 14 "Bip01 L Finger0"  13
 15 "Bip01 L Finger01"  14
 16 "Dummy06"  15
 17 "Bip01 L Finger1"  13
 18 "Bip01 L Finger11"  17
 19 "Dummy03"  18
 20 "-- L knuckle"  17
 21 "-- L knuckle_end"  20
 22 "-- L Forearm twist"  12
 23 "-- L Forearm twist_end"  22
 24 "-- L wrist"  12
 25 "-- L wrist_end"  24
 26 "-- L Elbow"  11
 27 "--L Elbow_end"  26
 28 "-- L bicep twist"  11
 29 "-- L bicep twist_end"  28
 30 "-- L shoulder outside"  10
 31 "-- L shoulder outside_end"  30
 32 "-- L Shoulder inside"  10
 33 "-- L Shoulder inside_end"  32
 34 "Bip01 R Clavicle"   7
 35 "Bip01 R UpperArm"  34
 36 "Bip01 R Forearm"  35
 37 "Bip01 R Hand"  36
 38 "Bip01 R Finger0"  37
 39 "Bip01 R Finger01"  38
 40 "Dummy01"  39
 41 "Bip01 R Finger1"  37
 42 "Bip01 R Finger11"  41
 43 "Dummy02"  42
 44 "-- R knuckle"  41
 45 "Point06"  44
 46 "Beretta Elite"  37
 47 "-- R wrist"  36
 48 "-- R wrist_end"  47
 49 "-- R forearm twist"  36
 50 "-- R forearm twist_end"  49
 51 "-- R Elbow"  35
 52 "--R Elbow_end"  51
 53 "-- R bicep twist"  35
 54 "-- R bicep twist_end"  53
 55 "-- R Shoulder inside"  34
 56 "-- R Shoulder inside_end"  55
 57 "-- R shoulder outside"  34
 58 "-- R shoulder outside_end"  57
 59 "-- Neck smooth"   6
 60 "-- neck smooth end"  59
 61 "-- R Butt"   2
 62 "--R Butt_end"  61
 63 "-- L butt"   2
 64 "--L butt_end"  63
 65 "GIGN01"   2
 66 "Bip01 L Thigh"   2
 67 "Bip01 L Calf"  66
 68 "Bip01 L Foot"  67
 69 "Bip01 L Toe0"  68
 70 "Dummy16"  69
 71 "-- L ankle"  67
 72 "-- L ankleend"  71
 73 "-- L Knee"  66
 74 "--L Knee_end"  73
 75 "Bip01 R Thigh"   2
 76 "Bip01 R Calf"  75
 77 "Bip01 R Foot"  76
 78 "Bip01 R Toe0"  77
 79 "Dummy11"  78
 80 "-- R Ankle"  76
 81 "-- R ankleend"  80
 82 "-- R Knee"  75
 83 "--R Knee_end"  82
end
skeleton
time 0
  0 0.500000 13.522099 26.931471 -0.243067 0.535714 -2.432935
  1 12.194226 4.944109 -19.938349 -0.544290 0.221328 2.303921
  2 -2.276934 0.000003 -1.238185 -1.570795 -1.570451 0.000000
  3 1.796910 0.712509 -0.002030 0.700961 -0.287371 -0.326309
  4 4.119468 -0.003048 0.000850 -0.262989 0.090691 0.252530
  5 4.119934 -0.002983 0.000319 -0.097880 -0.039316 0.423135
  6 4.117750 -0.002691 -0.001668 0.562173 0.302317 -0.120555
  7 4.118780 -0.002728 -0.002246 0.690528 -0.086898 -0.006296
  8 4.443598 -0.000001 0.000001 0.683265 -0.466886 0.065499
  9 9.024061 -0.000000 0.000000 0.000000 0.000000 0.000000
 10 0.150381 1.103016 1.330734 0.988411 -1.168107 2.165339
 11 6.384777 0.000002 0.000003 -1.517266 0.902219 -1.187492
 12 10.242681 0.000000 -0.000001 0.000000 0.000000 -2.395929
 13 11.375560 -0.000000 0.000001 -2.951348 -0.226353 0.273076
 14 0.728680 0.023431 -1.008291 1.267228 0.796324 -0.150945
 15 2.136494 -0.000000 0.000001 -0.000000 0.000000 -0.078540
 16 2.313140 0.000000 0.000000 0.000000 0.000000 0.000000
 17 3.115507 -0.886041 -0.021430 -0.328083 -0.231966 0.498583
 18 2.011150 -0.000000 -0.000001 0.000000 -0.000000 1.008632
 19 2.141379 0.000000 -0.000001 0.000000 0.000000 0.000000
 20 1.734173 0.000002 -0.000002 0.000000 0.000000 0.503666
 21 0.000006 -4.440593 -0.000000 1.570544 -0.062990 -0.195737
 22 5.999999 0.000000 0.000001 -2.649544 -0.000000 -0.000000
 23 0.000001 -4.440602 0.000001 1.569944 -0.062987 0.004053
 24 11.375559 0.000001 0.000003 -2.247844 -0.181822 0.103497
 25 -0.000002 -4.440603 -0.000000 1.570144 -0.062988 0.004040
 26 10.510130 0.000000 -0.000002 -0.000000 0.000000 -2.768761
 27 0.000001 -1.748400 4.999999 0.000000 0.004007 1.602290
 28 5.499999 0.000000 -0.000001 0.370662 0.000000 -0.000000
 29 0.000001 -1.940598 5.000000 -0.044472 0.004003 -0.000180
 30 6.551491 -0.000000 -0.000000 -0.863991 0.775951 -0.458879
 31 -0.000001 -1.940598 5.000000 -0.027189 -0.053376 0.005295
 32 6.551491 -0.000000 -0.000000 -0.291128 0.372714 -0.091336
 33 -0.000001 -1.940599 4.999995 -0.066572 -0.152786 -0.110311
 34 -0.150378 -1.095941 -1.330733 2.884214 1.211058 -0.286395
 35 6.384778 -0.000001 0.000003 0.050893 0.607972 -1.515586
 36 10.242682 0.000000 -0.000002 -0.000000 0.000000 -1.578878
 37 11.375561 -0.000000 0.000001 3.015612 -0.079508 0.525520
 38 0.728682 0.023431 1.008292 -1.579583 -0.319038 0.212973
 39 2.136495 0.000003 -0.000000 0.000000 0.000000 1.282817
 40 2.313139 -0.000000 0.000000 0.000000 0.000000 3.141593
 41 3.115508 -0.886041 0.021433 0.420765 0.316066 0.167178
 42 2.011151 -0.000001 -0.000003 -0.000000 -0.000000 2.082010
 43 2.141380 -0.000000 0.000002 0.000000 0.000000 3.141593
 44 1.734172 -0.000001 0.000000 -0.000000 -0.000000 1.041748
 45 0.136315 -3.738193 2.525892 1.493698 2.759406 -1.474501
 46 5.031115 -0.189688 1.849664 -2.967941 -0.035742 1.570790
 47 11.389367 -0.000820 0.158782 2.297633 0.070961 0.296418
 48 0.000001 -4.440599 0.000002 1.570144 -3.078602 0.004040
 49 6.000000 -0.000000 0.000001 2.297633 -0.000000 -0.000000
 50 0.000002 -4.440602 -0.000001 1.569944 -3.078603 0.004053
 51 10.510131 -0.000000 -0.000003 0.000000 -0.000000 -2.360235
 52 0.000000 -1.748399 -5.000001 -3.141593 0.004007 -1.539299
 53 5.500000 -0.000000 -0.000003 -0.124408 -0.000000 -0.000000
 54 0.000000 -0.000001 -5.000003 -0.044472 3.137589 -0.000177
 55 6.551491 -0.000001 0.000002 0.124408 0.167622 -0.420432
 56 -1.266843 -1.937443 -4.950561 -0.066572 -2.988806 -0.110308
 57 6.551492 -0.000001 0.000002 0.124408 0.167622 -0.420432
 58 0.699370 -1.944208 -5.006848 -0.027189 -3.088217 0.005298
 59 4.226144 -0.003201 -0.000001 0.345687 -0.048160 0.004991
 60 0.000000 5.000000 -0.000001 -0.153564 0.000087 2.718702
 61 0.000006 -0.000004 -3.713579 0.145091 2.893501 -1.053017
 62 0.000001 -0.000000 5.000001 3.053199 1.558589 -0.074925
 63 -0.000005 0.000006 3.713580 -0.210381 -2.744404 -0.929113
 64 -0.000001 0.000000 -5.000000 -0.088727 1.558589 3.066334
 65 7.363603 1.646648 0.495664 -3.141593 -1.570796 0.000000
 66 -0.000005 0.000007 3.619082 -3.139238 -0.749898 1.116121
 67 16.573919 0.000000 -0.000000 0.000000 -0.000000 -1.729274
 68 15.128181 -0.000001 0.000001 -0.011824 0.152237 0.180187
 69 5.758666 4.244731 0.000000 0.000000 -0.000000 2.033309
 70 3.177726 -0.000000 0.000000 0.000000 0.000000 3.141593
 71 15.708953 0.000000 0.000001 -0.008766 0.083938 0.095975
 72 0.275148 0.189215 -3.445207 3.130898 0.000409 -1.514604
 73 17.210192 -0.000001 0.000000 0.000000 -0.000000 -2.191890
 74 0.000000 0.000000 -4.999999 -0.079433 1.546568 -1.570859
 75 0.000007 -0.000003 -3.619079 -3.035266 0.325789 1.473451
 76 16.573921 -0.000001 0.000001 0.000000 -0.000000 -1.862701
 77 15.128183 0.000001 0.000001 0.096863 0.216184 0.492900
 78 5.758665 4.244732 0.000001 -0.000000 -0.000000 1.483530
 79 4.003935 -0.000000 -0.000000 0.000000 0.000000 0.000000
 80 15.708955 0.000001 0.000001 0.056952 0.162326 0.338827
 81 0.273997 0.191090 3.439762 -3.130907 -0.000437 -1.508107
 82 17.210194 -0.000002 -0.000001 -0.000000 0.000000 -2.251932
 83 0.000000 -0.000001 5.000000 -0.079314 1.595025 -1.570739
time 1
  0 0.500000 13.522099 26.931471 -0.243067 0.535714 -2.432935
  1 12.194226 4.944109 -19.938349 -0.544290 0.221328 2.303921
  2 -2.276934 0.000003 -1.238185 -1.570795 -1.570451 0.000000
  3 1.796910 0.712509 -0.002030 0.700961 -0.287371 -0.326309
  4 4.119468 -0.003048 0.000850 -0.262989 0.090691 0.252530
  5 4.119934 -0.002983 0.000319 -0.097880 -0.039316 0.423135
  6 4.117750 -0.002691 -0.001668 0.562173 0.302317 -0.120555
  7 4.118780 -0.002728 -0.002246 0.690528 -0.086898 -0.006296
  8 4.443598 -0.000001 0.000001 0.683265 -0.466886 0.065499
  9 9.024061 -0.000000 0.000000 0.000000 0.000000 0.000000
 10 0.150381 1.103016 1.330734 0.988411 -1.168107 2.165339
 11 6.384777 0.000002 0.000003 -1.517266 0.902219 -1.187492
 12 10.242681 0.000000 -0.000001 0.000000 0.000000 -2.395929
 13 11.375560 -0.000000 0.000001 -2.951348 -0.226353 0.273076
 14 0.728680 0.023431 -1.008291 1.267228 0.796324 -0.150945
 15 2.136494 -0.000000 0.000001 -0.000000 0.000000 -0.078540
 16 2.313140 0.000000 0.000000 0.000000 0.000000 0.000000
 17 3.115507 -0.886041 -0.021430 -0.328083 -0.231966 0.498583
 18 2.011150 -0.000000 -0.000001 0.000000 -0.000000 1.008632
 19 2.141379 0.000000 -0.000001 0.000000 0.000000 0.000000
 20 1.734173 0.000002 -0.000002 0.000000 0.000000 0.503666
 21 0.000006 -4.440593 -0.000000 1.570544 -0.062990 -0.195737
 22 5.999999 0.000000 0.000001 -2.649544 -0.000000 -0.000000
 23 0.000001 -4.440602 0.000001 1.569944 -0.062987 0.004053
 24 11.375559 0.000001 0.000003 -2.247844 -0.181822 0.103497
 25 -0.000002 -4.440603 -0.000000 1.570144 -0.062988 0.004040
 26 10.510130 0.000000 -0.000002 -0.000000 0.000000 -2.768761
 27 0.000001 -1.748400 4.999999 0.000000 0.004007 1.602290
 28 5.499999 0.000000 -0.000001 0.370662 0.000000 -0.000000
 29 0.000001 -1.940598 5.000000 -0.044472 0.004003 -0.000180
 30 6.551491 -0.000000 -0.000000 -0.863991 0.775951 -0.458879
 31 -0.000001 -1.940598 5.000000 -0.027189 -0.053376 0.005295
 32 6.551491 -0.000000 -0.000000 -0.291128 0.372714 -0.091336
 33 -0.000001 -1.940599 4.999995 -0.066572 -0.152786 -0.110311
 34 -0.150378 -1.095941 -1.330733 2.884214 1.211058 -0.286395
 35 6.384778 -0.000001 0.000003 0.050893 0.607972 -1.515586
 36 10.242682 0.000000 -0.000002 -0.000000 0.000000 -1.578878
 37 11.375561 -0.000000 0.000001 3.015612 -0.079508 0.525520
 38 0.728682 0.023431 1.008292 -1.579583 -0.319038 0.212973
 39 2.136495 0.000003 -0.000000 0.000000 0.000000 1.282817
 40 2.313139 -0.000000 0.000000 0.000000 0.000000 3.141593
 41 3.115508 -0.886041 0.021433 0.420765 0.316066 0.167178
 42 2.011151 -0.000001 -0.000003 -0.000000 -0.000000 2.082010
 43 2.141380 -0.000000 0.000002 0.000000 0.000000 3.141593
 44 1.734172 -0.000001 0.000000 -0.000000 -0.000000 1.041748
 45 0.136315 -3.738193 2.525892 1.493698 2.759406 -1.474501
 46 5.031115 -0.189688 1.849664 -2.967941 -0.035742 1.570790
 47 11.389367 -0.000820 0.158782 2.297633 0.070961 0.296418
 48 0.000001 -4.440599 0.000002 1.570144 -3.078602 0.004040
 49 6.000000 -0.000000 0.000001 2.297633 -0.000000 -0.000000
 50 0.000002 -4.440602 -0.000001 1.569944 -3.078603 0.004053
 51 10.510131 -0.000000 -0.000003 0.000000 -0.000000 -2.360235
 52 0.000000 -1.748399 -5.000001 -3.141593 0.004007 -1.539299
 53 5.500000 -0.000000 -0.000003 -0.124408 -0.000000 -0.000000
 54 0.000000 -0.000001 -5.000003 -0.044472 3.137589 -0.000177
 55 6.551491 -0.000001 0.000002 0.124408 0.167622 -0.420432
 56 -1.266843 -1.937443 -4.950561 -0.066572 -2.988806 -0.110308
 57 6.551492 -0.000001 0.000002 0.124408 0.167622 -0.420432
 58 0.699370 -1.944208 -5.006848 -0.027189 -3.088217 0.005298
 59 4.226144 -0.003201 -0.000001 0.345687 -0.048160 0.004991
 60 0.000000 5.000000 -0.000001 -0.153564 0.000087 2.718702
 61 0.000006 -0.000004 -3.713579 0.145091 2.893501 -1.053017
 62 0.000001 -0.000000 5.000001 3.053199 1.558589 -0.074925
 63 -0.000005 0.000006 3.713580 -0.210381 -2.744404 -0.929113
 64 -0.000001 0.000000 -5.000000 -0.088727 1.558589 3.066334
 65 7.363603 1.646648 0.495664 -3.141593 -1.570796 0.000000
 66 -0.000005 0.000007 3.619082 -3.139238 -0.749898 1.116121
 67 16.573919 0.000000 -0.000000 0.000000 -0.000000 -1.729274
 68 15.128181 -0.000001 0.000001 -0.011824 0.152237 0.180187
 69 5.758666 4.244731 0.000000 0.000000 -0.000000 2.033309
 70 3.177726 -0.000000 0.000000 0.000000 0.000000 3.141593
 71 15.708953 0.000000 0.000001 -0.008766 0.083938 0.095975
 72 0.275148 0.189215 -3.445207 3.130898 0.000409 -1.514604
 73 17.210192 -0.000001 0.000000 0.000000 -0.000000 -2.191890
 74 0.000000 0.000000 -4.999999 -0.079433 1.546568 -1.570859
 75 0.000007 -0.000003 -3.619079 -3.035266 0.325789 1.473451
 76 16.573921 -0.000001 0.000001 0.000000 -0.000000 -1.862701
 77 15.128183 0.000001 0.000001 0.096863 0.216184 0.492900
 78 5.758665 4.244732 0.000001 -0.000000 -0.000000 1.483530
 79 4.003935 -0.000000 -0.000000 0.000000 0.000000 0.000000
 80 15.708955 0.000001 0.000001 0.056952 0.162326 0.338827
 81 0.273997 0.191090 3.439762 -3.130907 -0.000437 -1.508107
 82 17.210194 -0.000002 -0.000001 -0.000000 0.000000 -2.251932
 83 0.000000 -0.000001 5.000000 -0.079314 1.595025 -1.570739
time 2
  0 0.500000 13.522099 26.931471 -0.243067 0.535714 -2.432935
  1 12.194226 4.944109 -19.938349 -0.544290 0.221328 2.303921
  2 -2.276934 0.000003 -1.238185 -1.570795 -1.570451 0.000000
  3 1.796910 0.712509 -0.002030 0.700961 -0.287371 -0.326309
  4 4.119468 -0.003048 0.000850 -0.262989 0.090691 0.252530
  5 4.119934 -0.002983 0.000319 -0.097880 -0.039316 0.423135
  6 4.117750 -0.002691 -0.001668 0.562173 0.302317 -0.120555
  7 4.118780 -0.002728 -0.002246 0.690528 -0.086898 -0.006296
  8 4.443598 -0.000001 0.000001 0.683265 -0.466886 0.065499
  9 9.024061 -0.000000 0.000000 0.000000 0.000000 0.000000
 10 0.150381 1.103016 1.330734 0.988411 -1.168107 2.165339
 11 6.384777 0.000002 0.000003 -1.517266 0.902219 -1.187492
 12 10.242681 0.000000 -0.000001 0.000000 0.000000 -2.395929
 13 11.375560 -0.000000 0.000001 -2.951348 -0.226353 0.273076
 14 0.728680 0.023431 -1.008291 1.267228 0.796324 -0.150945
 15 2.136494 -0.000000 0.000001 -0.000000 0.000000 -0.078540
 16 2.313140 0.000000 0.000000 0.000000 0.000000 0.000000
 17 3.115507 -0.886041 -0.021430 -0.328083 -0.231966 0.498583
 18 2.011150 -0.000000 -0.000001 0.000000 -0.000000 1.008632
 19 2.141379 0.000000 -0.000001 0.000000 0.000000 0.000000
 20 1.734173 0.000002 -0.000002 0.000000 0.000000 0.503666
 21 0.000006 -4.440593 -0.000000 1.570544 -0.062990 -0.195737
 22 5.999999 0.000000 0.000001 -2.649544 -0.000000 -0.000000
 23 0.000001 -4.440602 0.000001 1.569944 -0.062987 0.004053
 24 11.375559 0.000001 0.000003 -2.247844 -0.181822 0.103497
 25 -0.000002 -4.440603 -0.000000 1.570144 -0.062988 0.004040
 26 10.510130 0.000000 -0.000002 -0.000000 0.000000 -2.768761
 27 0.000001 -1.748400 4.999999 0.000000 0.004007 1.602290
 28 5.499999 0.000000 -0.000001 0.370662 0.000000 -0.000000
 29 0.000001 -1.940598 5.000000 -0.044472 0.004003 -0.000180
 30 6.551491 -0.000000 -0.000000 -0.863991 0.775951 -0.458879
 31 -0.000001 -1.940598 5.000000 -0.027189 -0.053376 0.005295
 32 6.551491 -0.000000 -0.000000 -0.291128 0.372714 -0.091336
 33 -0.000001 -1.940599 4.999995 -0.066572 -0.152786 -0.110311
 34 -0.150378 -1.095941 -1.330733 2.884214 1.211058 -0.286395
 35 6.384778 -0.000001 0.000003 0.050893 0.607972 -1.515586
 36 10.242682 0.000000 -0.000002 -0.000000 0.000000 -1.578878
 37 11.375561 -0.000000 0.000001 3.015612 -0.079508 0.525520
 38 0.728682 0.023431 1.008292 -1.579583 -0.319038 0.212973
 39 2.136495 0.000003 -0.000000 0.000000 0.000000 1.282817
 40 2.313139 -0.000000 0.000000 0.000000 0.000000 3.141593
 41 3.115508 -0.886041 0.021433 0.420765 0.316066 0.167178
 42 2.011151 -0.000001 -0.000003 -0.000000 -0.000000 2.082010
 43 2.141380 -0.000000 0.000002 0.000000 0.000000 3.141593
 44 1.734172 -0.000001 0.000000 -0.000000 -0.000000 1.041748
 45 0.136315 -3.738193 2.525892 1.493698 2.759406 -1.474501
 46 5.031115 -0.189688 1.849664 -2.967941 -0.035742 1.570790
 47 11.389367 -0.000820 0.158782 2.297633 0.070961 0.296418
 48 0.000001 -4.440599 0.000002 1.570144 -3.078602 0.004040
 49 6.000000 -0.000000 0.000001 2.297633 -0.000000 -0.000000
 50 0.000002 -4.440602 -0.000001 1.569944 -3.078603 0.004053
 51 10.510131 -0.000000 -0.000003 0.000000 -0.000000 -2.360235
 52 0.000000 -1.748399 -5.000001 -3.141593 0.004007 -1.539299
 53 5.500000 -0.000000 -0.000003 -0.124408 -0.000000 -0.000000
 54 0.000000 -0.000001 -5.000003 -0.044472 3.137589 -0.000177
 55 6.551491 -0.000001 0.000002 0.124408 0.167622 -0.420432
 56 -1.266843 -1.937443 -4.950561 -0.066572 -2.988806 -0.110308
 57 6.551492 -0.000001 0.000002 0.124408 0.167622 -0.420432
 58 0.699370 -1.944208 -5.006848 -0.027189 -3.088217 0.005298
 59 4.226144 -0.003201 -0.000001 0.345687 -0.048160 0.004991
 60 0.000000 5.000000 -0.000001 -0.153564 0.000087 2.718702
 61 0.000006 -0.000004 -3.713579 0.145091 2.893501 -1.053017
 62 0.000001 -0.000000 5.000001 3.053199 1.558589 -0.074925
 63 -0.000005 0.000006 3.713580 -0.210381 -2.744404 -0.929113
 64 -0.000001 0.000000 -5.000000 -0.088727 1.558589 3.066334
 65 7.363603 1.646648 0.495664 -3.141593 -1.570796 0.000000
 66 -0.000005 0.000007 3.619082 -3.139238 -0.749898 1.116121
 67 16.573919 0.000000 -0.000000 0.000000 -0.000000 -1.729274
 68 15.128181 -0.000001 0.000001 -0.011824 0.152237 0.180187
 69 5.758666 4.244731 0.000000 0.000000 -0.000000 2.033309
 70 3.177726 -0.000000 0.000000 0.000000 0.000000 3.141593
 71 15.708953 0.000000 0.000001 -0.008766 0.083938 0.095975
 72 0.275148 0.189215 -3.445207 3.130898 0.000409 -1.514604
 73 17.210192 -0.000001 0.000000 0.000000 -0.000000 -2.191890
 74 0.000000 0.000000 -4.999999 -0.079433 1.546568 -1.570859
 75 0.000007 -0.000003 -3.619079 -3.035266 0.325789 1.473451
 76 16.573921 -0.000001 0.000001 0.000000 -0.000000 -1.862701
 77 15.128183 0.000001 0.000001 0.096863 0.216184 0.492900
 78 5.758665 4.244732 0.000001 -0.000000 -0.000000 1.483530
 79 4.003935 -0.000000 -0.000000 0.000000 0.000000 0.000000
 80 15.708955 0.000001 0.000001 0.056952 0.162326 0.338827
 81 0.273997 0.191090 3.439762 -3.130907 -0.000437 -1.508107
 82 17.210194 -0.000002 -0.000001 -0.000000 0.000000 -2.251932
 83 0.000000 -0.000001 5.000000 -0.079314 1.595025 -1.570739
end
