version 1
nodes
  0 "Bip01"  -1
  1 "Bip01 Footsteps"   0
  2 "Bip01 Pelvis"   0
  3 "Bip01 Spine"   2
  4 "Bip01 Spine1"   3
  5 "Bip01 Spine2"   4
  6 "Bip01 Spine3"   5
  7 "Bip01 Neck"   6
  8 "Bip01 Head"   7
  9 "Dummy21"   8
 10 "Bip01 L Clavicle"   7
 11 "Bip01 L UpperArm"  10
 12 "Bip01 L Forearm"  11
 13 "Bip01 L Hand"  12
 14 "Bip01 L Finger0"  13
 15 "Bip01 L Finger01"  14
 16 "Dummy06"  15
 17 "Bip01 L Finger1"  13
 18 "Bip01 L Finger11"  17
 19 "Dummy03"  18
 20 "-- L knuckle"  17
 21 "-- L knuckle_end"  20
 22 "-- L Forearm twist"  12
 23 "-- L Forearm twist_end"  22
 24 "-- L wrist"  12
 25 "-- L wrist_end"  24
 26 "-- L Elbow"  11
 27 "--L Elbow_end"  26
 28 "-- L bicep twist"  11
 29 "-- L bicep twist_end"  28
 30 "-- L shoulder outside"  10
 31 "-- L shoulder outside_end"  30
 32 "-- L Shoulder inside"  10
 33 "-- L Shoulder inside_end"  32
 34 "Bip01 R Clavicle"   7
 35 "Bip01 R UpperArm"  34
 36 "Bip01 R Forearm"  35
 37 "Bip01 R Hand"  36
 38 "Bip01 R Finger0"  37
 39 "Bip01 R Finger01"  38
 40 "Dummy01"  39
 41 "Bip01 R Finger1"  37
 42 "Bip01 R Finger11"  41
 43 "Dummy02"  42
 44 "-- R knuckle"  41
 45 "Point06"  44
 46 "Beretta Elite"  37
 47 "-- R wrist"  36
 48 "-- R wrist_end"  47
 49 "-- R forearm twist"  36
 50 "-- R forearm twist_end"  49
 51 "-- R Elbow"  35
 52 "--R Elbow_end"  51
 53 "-- R bicep twist"  35
 54 "-- R bicep twist_end"  53
 55 "-- R Shoulder inside"  34
 56 "-- R Shoulder inside_end"  55
 57 "-- R shoulder outside"  34
 58 "-- R shoulder outside_end"  57
 59 "-- Neck smooth"   6
 60 "-- neck smooth end"  59
 61 "-- R Butt"   2
 62 "--R Butt_end"  61
 63 "-- L butt"   2
 64 "--L butt_end"  63
 65 "GIGN01"   2
 66 "Bip01 L Thigh"   2
 67 "Bip01 L Calf"  66
 68 "Bip01 L Foot"  67
 69 "Bip01 L Toe0"  68
 70 "Dummy16"  69
 71 "-- L ankle"  67
 72 "-- L ankleend"  71
 73 "-- L Knee"  66
 74 "--L Knee_end"  73
 75 "Bip01 R Thigh"   2
 76 "Bip01 R Calf"  75
 77 "Bip01 R Foot"  76
 78 "Bip01 R Toe0"  77
 79 "Dummy11"  78
 80 "-- R Ankle"  76
 81 "-- R ankleend"  80
 82 "-- R Knee"  75
 83 "--R Knee_end"  82
end
skeleton
time 0
  0 0.500000 13.522099 26.931471 -0.243067 0.535714 -2.432935
  1 12.194228 4.944110 -19.938351 -0.544290 0.221328 2.303921
  2 -2.276934 0.000003 -1.238185 -1.570795 -1.570451 0.000000
  3 1.796910 0.712509 -0.002030 0.700961 -0.287371 -0.326309
  4 4.119468 -0.003048 0.000850 -0.262989 0.090691 0.252530
  5 4.119693 -0.003076 -0.000361 0.110010 0.022195 0.342218
  6 4.117377 -0.002219 -0.002079 0.759563 0.400380 -0.149026
  7 4.118783 -0.002729 -0.002244 0.690528 -0.086898 -0.006296
  8 4.443597 0.000000 -0.000002 0.407181 -0.145651 -0.120334
  9 9.024064 0.000000 0.000001 0.000000 0.000000 0.000000
 10 0.150380 1.103016 1.330733 0.988411 -1.168107 2.165339
 11 6.384778 0.000000 0.000000 1.450047 2.610628 1.545823
 12 10.242682 0.000002 -0.000002 0.000000 0.000000 -1.742754
 13 11.375563 -0.000000 0.000001 -2.314389 0.498659 -0.580146
 14 0.728680 0.023432 -1.008292 1.267228 0.796324 -0.150945
 15 2.136500 -0.000000 0.000002 -0.000000 0.000000 -0.078540
 16 2.313137 0.000000 0.000001 0.000000 0.000000 0.000000
 17 3.115507 -0.886041 -0.021433 -0.328083 -0.231966 0.498583
 18 2.011150 -0.000003 -0.000001 0.000000 -0.000000 1.008632
 19 2.141380 -0.000000 0.000001 0.000000 0.000000 0.000000
 20 1.734172 -0.000001 0.000001 -0.000000 0.000000 0.503666
 21 0.000006 -4.440595 0.000000 1.570544 -0.062990 -0.195737
 22 6.000000 0.000001 -0.000001 -2.103513 -0.000000 0.000000
 23 0.000002 -4.440600 -0.000001 1.569944 -0.062987 0.004053
 24 11.375562 0.000001 0.000003 -1.892043 0.300367 -0.237369
 25 -0.000002 -4.440604 0.000001 1.570144 -0.062988 0.004040
 26 10.510131 0.000001 -0.000001 0.000000 0.000000 -2.442173
 27 -0.000001 -1.748401 4.999999 -0.000000 0.004007 1.602291
 28 5.500000 0.000001 -0.000002 0.424422 -0.000000 0.000000
 29 -0.000001 -1.940599 4.999999 -0.044472 0.004003 -0.000180
 30 6.551491 -0.000000 -0.000001 -1.220712 0.708890 -1.087802
 31 -0.000002 -1.940599 5.000001 -0.027189 -0.053376 0.005295
 32 6.551491 -0.000000 -0.000001 -0.307770 0.394045 -0.257554
 33 -0.000000 -1.940599 4.999999 -0.066572 -0.152786 -0.110311
 34 -0.150382 -1.095940 -1.330738 2.884214 1.211058 -0.286395
 35 6.384777 0.000000 0.000001 0.149293 0.484313 -1.323533
 36 10.242683 -0.000000 -0.000003 0.000000 0.000000 -1.513188
 37 11.375559 -0.000001 0.000001 3.015107 0.119639 0.500446
 38 0.728681 0.023431 1.008290 -1.579583 -0.319038 0.212973
 39 2.136501 -0.000000 -0.000000 0.000000 0.000000 1.282817
 40 2.313139 0.000003 -0.000000 0.000000 0.000000 3.141593
 41 3.115509 -0.886041 0.021432 0.420766 0.316066 0.167178
 42 2.011151 -0.000000 -0.000001 -0.000000 0.000000 2.082010
 43 2.141379 0.000001 -0.000001 0.000000 0.000000 3.141593
 44 1.734172 -0.000001 -0.000000 -0.000000 -0.000000 1.041748
 45 0.136315 -3.738194 2.525892 1.493698 2.759406 -1.474501
 46 5.031116 -0.189688 1.849662 -2.967941 -0.035742 1.570790
 47 11.389367 -0.000819 0.158780 2.283828 0.170545 0.240228
 48 -0.000001 -4.440598 -0.000000 1.570144 -3.078602 0.004040
 49 6.000000 -0.000000 -0.000000 2.283828 -0.000000 -0.000000
 50 0.000003 -4.440602 -0.000000 1.569944 -3.078603 0.004053
 51 10.510132 0.000001 -0.000000 -0.000000 0.000000 -2.327390
 52 -0.000000 -1.748398 -5.000002 3.141593 0.004007 -1.539299
 53 5.500000 0.000000 -0.000001 -0.127938 0.000000 0.000000
 54 0.000002 -0.000000 -4.999998 -0.044472 3.137589 -0.000177
 55 6.551491 0.000000 0.000001 0.127938 0.113649 -0.351928
 56 -1.266844 -1.937444 -4.950561 -0.066572 -2.988806 -0.110308
 57 6.551491 0.000000 0.000001 0.127938 0.113649 -0.351928
 58 0.699371 -1.944208 -5.006846 -0.027189 -3.088217 0.005298
 59 4.226146 -0.003201 -0.000001 0.345687 -0.048160 0.004991
 60 -0.000001 5.000000 -0.000002 -0.153564 0.000087 2.718702
 61 0.000006 -0.000004 -3.713579 0.145091 2.893501 -1.053017
 62 0.000001 -0.000001 5.000001 3.053200 1.558589 -0.074925
 63 -0.000005 0.000006 3.713580 -0.210381 -2.744404 -0.929113
 64 0.000001 0.000000 -5.000000 -0.088725 1.558589 3.066335
 65 7.363603 1.646648 0.495664 -3.141593 -1.570796 0.000000
 66 -0.000005 0.000007 3.619082 -3.139238 -0.749898 1.116121
 67 16.573921 0.000000 0.000000 -0.000000 0.000000 -1.729274
 68 15.128181 -0.000000 0.000000 -0.011824 0.152237 0.180186
 69 5.758666 4.244731 0.000000 0.000000 -0.000000 2.033309
 70 3.177726 -0.000000 0.000000 0.000000 0.000000 3.141593
 71 15.708953 0.000001 0.000000 -0.008766 0.083938 0.095975
 72 0.275149 0.189215 -3.445208 3.130898 0.000409 -1.514604
 73 17.210194 -0.000001 0.000001 0.000000 -0.000000 -2.191890
 74 0.000001 -0.000000 -4.999999 -0.079431 1.546565 -1.570855
 75 0.000007 -0.000003 -3.619079 -3.035266 0.325790 1.473451
 76 16.573921 -0.000001 0.000001 0.000000 0.000000 -1.862701
 77 15.128179 0.000001 0.000001 0.096863 0.216184 0.492900
 78 5.758665 4.244732 -0.000000 -0.000000 -0.000000 1.483530
 79 4.003935 -0.000000 0.000000 0.000000 0.000000 0.000000
 80 15.708952 0.000001 0.000000 0.056952 0.162326 0.338827
 81 0.273997 0.191090 3.439763 -3.130907 -0.000437 -1.508107
 82 17.210194 -0.000002 -0.000001 -0.000000 -0.000000 -2.251932
 83 0.000001 -0.000000 5.000000 -0.079311 1.595025 -1.570737
time 1
  0 0.500000 13.522099 26.931471 -0.243067 0.535714 -2.432935
  1 12.194228 4.944110 -19.938351 -0.544290 0.221328 2.303921
  2 -2.276934 0.000003 -1.238185 -1.570795 -1.570451 0.000000
  3 1.796910 0.712509 -0.002030 0.700961 -0.287371 -0.326309
  4 4.119468 -0.003048 0.000850 -0.262989 0.090691 0.252530
  5 4.119693 -0.003076 -0.000361 0.110010 0.022195 0.342218
  6 4.117377 -0.002219 -0.002079 0.759563 0.400380 -0.149026
  7 4.118783 -0.002729 -0.002244 0.690528 -0.086898 -0.006296
  8 4.443597 0.000000 -0.000002 0.407181 -0.145651 -0.120334
  9 9.024064 0.000000 0.000001 0.000000 0.000000 0.000000
 10 0.150380 1.103016 1.330733 0.988411 -1.168107 2.165339
 11 6.384778 0.000000 0.000000 1.450047 2.610628 1.545823
 12 10.242682 0.000002 -0.000002 0.000000 0.000000 -1.742754
 13 11.375563 -0.000000 0.000001 -2.314389 0.498659 -0.580146
 14 0.728680 0.023432 -1.008292 1.267228 0.796324 -0.150945
 15 2.136500 -0.000000 0.000002 -0.000000 0.000000 -0.078540
 16 2.313137 0.000000 0.000001 0.000000 0.000000 0.000000
 17 3.115507 -0.886041 -0.021433 -0.328083 -0.231966 0.498583
 18 2.011150 -0.000003 -0.000001 0.000000 -0.000000 1.008632
 19 2.141380 -0.000000 0.000001 0.000000 0.000000 0.000000
 20 1.734172 -0.000001 0.000001 -0.000000 0.000000 0.503666
 21 0.000006 -4.440595 0.000000 1.570544 -0.062990 -0.195737
 22 6.000000 0.000001 -0.000001 -2.103513 -0.000000 0.000000
 23 0.000002 -4.440600 -0.000001 1.569944 -0.062987 0.004053
 24 11.375562 0.000001 0.000003 -1.892043 0.300367 -0.237369
 25 -0.000002 -4.440604 0.000001 1.570144 -0.062988 0.004040
 26 10.510131 0.000001 -0.000001 0.000000 0.000000 -2.442173
 27 -0.000001 -1.748401 4.999999 -0.000000 0.004007 1.602291
 28 5.500000 0.000001 -0.000002 0.424422 -0.000000 0.000000
 29 -0.000001 -1.940599 4.999999 -0.044472 0.004003 -0.000180
 30 6.551491 -0.000000 -0.000001 -1.220712 0.708890 -1.087802
 31 -0.000002 -1.940599 5.000001 -0.027189 -0.053376 0.005295
 32 6.551491 -0.000000 -0.000001 -0.307770 0.394045 -0.257554
 33 -0.000000 -1.940599 4.999999 -0.066572 -0.152786 -0.110311
 34 -0.150382 -1.095940 -1.330738 2.884214 1.211058 -0.286395
 35 6.384777 0.000000 0.000001 0.149293 0.484313 -1.323533
 36 10.242683 -0.000000 -0.000003 0.000000 0.000000 -1.513188
 37 11.375559 -0.000001 0.000001 3.015107 0.119639 0.500446
 38 0.728681 0.023431 1.008290 -1.579583 -0.319038 0.212973
 39 2.136501 -0.000000 -0.000000 0.000000 0.000000 1.282817
 40 2.313139 0.000003 -0.000000 0.000000 0.000000 3.141593
 41 3.115509 -0.886041 0.021432 0.420766 0.316066 0.167178
 42 2.011151 -0.000000 -0.000001 -0.000000 0.000000 2.082010
 43 2.141379 0.000001 -0.000001 0.000000 0.000000 3.141593
 44 1.734172 -0.000001 -0.000000 -0.000000 -0.000000 1.041748
 45 0.136315 -3.738194 2.525892 1.493698 2.759406 -1.474501
 46 5.031116 -0.189688 1.849662 -2.967941 -0.035742 1.570790
 47 11.389367 -0.000819 0.158780 2.283828 0.170545 0.240228
 48 -0.000001 -4.440598 -0.000000 1.570144 -3.078602 0.004040
 49 6.000000 -0.000000 -0.000000 2.283828 -0.000000 -0.000000
 50 0.000003 -4.440602 -0.000000 1.569944 -3.078603 0.004053
 51 10.510132 0.000001 -0.000000 -0.000000 0.000000 -2.327390
 52 -0.000000 -1.748398 -5.000002 3.141593 0.004007 -1.539299
 53 5.500000 0.000000 -0.000001 -0.127938 0.000000 0.000000
 54 0.000002 -0.000000 -4.999998 -0.044472 3.137589 -0.000177
 55 6.551491 0.000000 0.000001 0.127938 0.113649 -0.351928
 56 -1.266844 -1.937444 -4.950561 -0.066572 -2.988806 -0.110308
 57 6.551491 0.000000 0.000001 0.127938 0.113649 -0.351928
 58 0.699371 -1.944208 -5.006846 -0.027189 -3.088217 0.005298
 59 4.226146 -0.003201 -0.000001 0.345687 -0.048160 0.004991
 60 -0.000001 5.000000 -0.000002 -0.153564 0.000087 2.718702
 61 0.000006 -0.000004 -3.713579 0.145091 2.893501 -1.053017
 62 0.000001 -0.000001 5.000001 3.053200 1.558589 -0.074925
 63 -0.000005 0.000006 3.713580 -0.210381 -2.744404 -0.929113
 64 0.000001 0.000000 -5.000000 -0.088725 1.558589 3.066335
 65 7.363603 1.646648 0.495664 -3.141593 -1.570796 0.000000
 66 -0.000005 0.000007 3.619082 -3.139238 -0.749898 1.116121
 67 16.573921 0.000000 0.000000 -0.000000 0.000000 -1.729274
 68 15.128181 -0.000000 0.000000 -0.011824 0.152237 0.180186
 69 5.758666 4.244731 0.000000 0.000000 -0.000000 2.033309
 70 3.177726 -0.000000 0.000000 0.000000 0.000000 3.141593
 71 15.708953 0.000001 0.000000 -0.008766 0.083938 0.095975
 72 0.275149 0.189215 -3.445208 3.130898 0.000409 -1.514604
 73 17.210194 -0.000001 0.000001 0.000000 -0.000000 -2.191890
 74 0.000001 -0.000000 -4.999999 -0.079431 1.546565 -1.570855
 75 0.000007 -0.000003 -3.619079 -3.035266 0.325790 1.473451
 76 16.573921 -0.000001 0.000001 0.000000 0.000000 -1.862701
 77 15.128179 0.000001 0.000001 0.096863 0.216184 0.492900
 78 5.758665 4.244732 -0.000000 -0.000000 -0.000000 1.483530
 79 4.003935 -0.000000 0.000000 0.000000 0.000000 0.000000
 80 15.708952 0.000001 0.000000 0.056952 0.162326 0.338827
 81 0.273997 0.191090 3.439763 -3.130907 -0.000437 -1.508107
 82 17.210194 -0.000002 -0.000001 -0.000000 -0.000000 -2.251932
 83 0.000001 -0.000000 5.000000 -0.079311 1.595025 -1.570737
end
