version 1
nodes
  0 "Bip01"  -1
  1 "Bip01 Footsteps"   0
  2 "Bip01 Pelvis"   0
  3 "Bip01 Spine"   2
  4 "Bip01 Spine1"   3
  5 "Bip01 Spine2"   4
  6 "Bip01 Spine3"   5
  7 "Bip01 Neck"   6
  8 "Bip01 Head"   7
  9 "Dummy21"   8
 10 "Bip01 L Clavicle"   7
 11 "Bip01 L UpperArm"  10
 12 "Bip01 L Forearm"  11
 13 "Bip01 L Hand"  12
 14 "Bip01 L Finger0"  13
 15 "Bip01 L Finger01"  14
 16 "Dummy06"  15
 17 "Bip01 L Finger1"  13
 18 "Bip01 L Finger11"  17
 19 "Dummy03"  18
 20 "-- L knuckle"  17
 21 "-- L knuckle_end"  20
 22 "-- L Forearm twist"  12
 23 "-- L Forearm twist_end"  22
 24 "-- L wrist"  12
 25 "-- L wrist_end"  24
 26 "-- L Elbow"  11
 27 "--L Elbow_end"  26
 28 "-- L bicep twist"  11
 29 "-- L bicep twist_end"  28
 30 "-- L shoulder outside"  10
 31 "-- L shoulder outside_end"  30
 32 "-- L Shoulder inside"  10
 33 "-- L Shoulder inside_end"  32
 34 "Bip01 R Clavicle"   7
 35 "Bip01 R UpperArm"  34
 36 "Bip01 R Forearm"  35
 37 "Bip01 R Hand"  36
 38 "Bip01 R Finger0"  37
 39 "Bip01 R Finger01"  38
 40 "Dummy01"  39
 41 "Bip01 R Finger1"  37
 42 "Bip01 R Finger11"  41
 43 "Dummy02"  42
 44 "-- R knuckle"  41
 45 "Point06"  44
 46 "Beretta Elite"  37
 47 "-- R wrist"  36
 48 "-- R wrist_end"  47
 49 "-- R forearm twist"  36
 50 "-- R forearm twist_end"  49
 51 "-- R Elbow"  35
 52 "--R Elbow_end"  51
 53 "-- R bicep twist"  35
 54 "-- R bicep twist_end"  53
 55 "-- R Shoulder inside"  34
 56 "-- R Shoulder inside_end"  55
 57 "-- R shoulder outside"  34
 58 "-- R shoulder outside_end"  57
 59 "-- Neck smooth"   6
 60 "-- neck smooth end"  59
 61 "-- R Butt"   2
 62 "--R Butt_end"  61
 63 "-- L butt"   2
 64 "--L butt_end"  63
 65 "GIGN01"   2
 66 "Bip01 L Thigh"   2
 67 "Bip01 L Calf"  66
 68 "Bip01 L Foot"  67
 69 "Bip01 L Toe0"  68
 70 "Dummy16"  69
 71 "-- L ankle"  67
 72 "-- L ankleend"  71
 73 "-- L Knee"  66
 74 "--L Knee_end"  73
 75 "Bip01 R Thigh"   2
 76 "Bip01 R Calf"  75
 77 "Bip01 R Foot"  76
 78 "Bip01 R Toe0"  77
 79 "Dummy11"  78
 80 "-- R Ankle"  76
 81 "-- R ankleend"  80
 82 "-- R Knee"  75
 83 "--R Knee_end"  82
end
skeleton
time 0
  0 0.500000 13.522099 26.931471 -0.243067 0.535714 -2.432935
  1 12.194224 4.944110 -19.938349 -0.544290 0.221328 2.303921
  2 -2.276936 0.000004 -1.238185 -1.570795 -1.570451 0.000000
  3 1.797462 0.711849 0.000509 -0.157086 0.101306 0.081851
  4 4.118917 -0.003225 0.000510 -0.157081 0.101322 0.081240
  5 4.118918 -0.003223 0.000511 -0.157081 0.101324 0.081267
  6 4.118917 -0.003226 0.000508 -0.157081 0.101315 0.081152
  7 4.116830 -0.002444 -0.001842 0.593453 0.371091 -0.386590
  8 4.443601 -0.000001 -0.000000 -0.683148 0.116467 -0.059804
  9 9.024063 -0.000001 0.000000 0.000000 0.000000 0.000000
 10 -0.628335 0.906563 1.338678 -1.385302 -2.322007 -1.359139
 11 6.384776 0.000002 0.000001 -0.639307 -0.045203 -1.600555
 12 10.242682 -0.000000 0.000002 -0.000000 -0.000000 -1.088056
 13 11.375561 0.000003 0.000001 2.702887 0.311094 -0.424772
 14 0.728681 0.023433 -1.008291 1.267228 0.796324 -0.150945
 15 2.136497 0.000000 0.000001 0.000000 -0.000000 -0.078540
 16 2.313141 0.000001 -0.000001 0.000000 0.000000 0.000000
 17 3.115506 -0.886041 -0.021431 -0.117598 -0.382555 -0.171683
 18 2.011153 0.000003 -0.000003 -0.000000 0.000000 0.354134
 19 2.141377 -0.000001 0.000002 0.000000 0.000000 0.000000
 20 1.734173 0.000001 -0.000002 -0.000000 -0.000000 0.177895
 21 0.000005 -4.440594 0.000001 1.570544 -0.062990 -0.195737
 22 6.000000 0.000002 0.000000 3.051707 0.000000 0.000000
 23 0.000002 -4.440602 0.000001 1.569944 -0.062987 0.004053
 24 11.375562 0.000001 0.000005 -2.536169 0.302621 -0.119257
 25 -0.000000 -4.440603 -0.000003 1.570144 -0.062988 0.004040
 26 10.510131 0.000000 0.000002 0.000000 0.000000 -2.114824
 27 0.000002 -1.748400 5.000000 -0.000000 0.004007 1.602291
 28 5.500001 0.000001 0.000000 0.262851 0.000000 -0.000000
 29 -0.000001 -1.940600 5.000003 -0.044472 0.004003 -0.000180
 30 6.551491 -0.000000 -0.000002 -0.533119 0.067887 -1.185614
 31 -0.000001 -1.940598 5.000002 -0.027189 -0.053376 0.005295
 32 6.551491 -0.000000 -0.000002 -0.203840 0.099721 -0.469205
 33 0.000000 -1.940600 4.999998 -0.066572 -0.152786 -0.110311
 34 0.628346 -0.899487 -1.338676 2.008542 1.305873 -0.611166
 35 6.384778 -0.000002 0.000000 1.397142 0.491161 -1.084099
 36 10.242682 0.000000 0.000000 0.000000 0.000000 -0.477772
 37 11.375560 0.000001 -0.000000 2.045457 0.238440 0.226858
 38 0.728678 0.023431 1.008293 -1.579583 -0.319038 0.212973
 39 2.136497 0.000001 -0.000001 -0.000000 -0.000000 1.282817
 40 2.313139 0.000001 -0.000001 0.000000 0.000000 3.141593
 41 3.115505 -0.886041 0.021432 0.420766 0.316066 0.167178
 42 2.011147 -0.000001 0.000000 0.000000 0.000000 2.082010
 43 2.141379 -0.000002 0.000000 0.000000 0.000000 3.141593
 44 1.734170 -0.000001 0.000000 -0.000000 0.000000 1.041748
 45 0.136313 -3.738191 2.525891 1.493698 2.759406 -1.474501
 46 5.031110 -0.189688 1.849661 -2.967941 -0.035742 1.570790
 47 11.389366 -0.000818 0.158781 1.801247 0.144906 0.110482
 48 -0.000000 -4.440599 0.000000 1.570144 -3.078602 0.004040
 49 6.000000 0.000000 -0.000001 1.801247 -0.000000 0.000000
 50 0.000001 -4.440600 0.000001 1.569944 -3.078603 0.004053
 51 10.510131 -0.000000 0.000000 0.000000 0.000000 -1.809682
 52 -0.000001 -1.748400 -5.000000 3.141593 0.004007 -1.539299
 53 5.500000 0.000000 -0.000000 -0.426795 -0.000000 -0.000000
 54 0.000000 -0.000001 -5.000003 -0.044472 3.137589 -0.000177
 55 6.551492 -0.000001 0.000001 0.426795 -0.014596 -0.319319
 56 -1.266843 -1.937443 -4.950558 -0.066572 -2.988806 -0.110308
 57 6.551492 -0.000001 0.000001 0.426795 -0.014596 -0.319319
 58 0.699371 -1.944208 -5.006845 -0.027189 -3.088217 0.005298
 59 4.226146 -0.003202 0.000001 0.305428 0.161650 -0.231295
 60 -0.000000 5.000003 -0.000001 -0.153564 0.000087 2.718702
 61 0.000006 -0.000006 -3.713579 0.145091 2.893501 -1.053017
 62 0.000001 0.000000 5.000001 3.053199 1.558589 -0.074925
 63 -0.000005 0.000005 3.713580 -0.210381 -2.744404 -0.929113
 64 -0.000000 0.000001 -5.000000 -0.088727 1.558589 3.066334
 65 7.363603 1.646646 0.495663 -3.141593 -1.570796 0.000000
 66 -0.000005 0.000005 3.619082 -3.139238 -0.749898 1.116121
 67 16.573919 0.000000 -0.000000 0.000000 -0.000000 -1.729274
 68 15.128181 -0.000001 0.000001 -0.011824 0.152237 0.180187
 69 5.758666 4.244731 0.000000 0.000000 -0.000000 2.033309
 70 3.177726 -0.000000 0.000000 0.000000 0.000000 3.141593
 71 15.708953 0.000000 0.000001 -0.008766 0.083938 0.095975
 72 0.275148 0.189215 -3.445207 3.130898 0.000409 -1.514604
 73 17.210192 -0.000001 0.000000 0.000000 -0.000000 -2.191890
 74 0.000000 0.000000 -4.999999 -0.079433 1.546568 -1.570859
 75 0.000007 -0.000004 -3.619079 -3.035266 0.325789 1.473451
 76 16.573921 -0.000001 0.000001 0.000000 -0.000000 -1.862701
 77 15.128182 0.000001 0.000002 0.096863 0.216184 0.492900
 78 5.758665 4.244732 0.000001 -0.000000 -0.000000 1.483530
 79 4.003935 -0.000000 0.000000 0.000000 0.000000 0.000000
 80 15.708955 0.000001 0.000001 0.056952 0.162326 0.338827
 81 0.273997 0.191090 3.439762 -3.130907 -0.000437 -1.508107
 82 17.210194 -0.000002 -0.000001 -0.000000 0.000000 -2.251932
 83 0.000000 -0.000001 5.000000 -0.079314 1.595025 -1.570739
time 1
  0 0.500000 13.522099 26.931471 -0.243067 0.535714 -2.432935
  1 12.194224 4.944110 -19.938349 -0.544290 0.221328 2.303921
  2 -2.276936 0.000004 -1.238185 -1.570795 -1.570451 0.000000
  3 1.797462 0.711849 0.000509 -0.157086 0.101306 0.081851
  4 4.118917 -0.003225 0.000510 -0.157081 0.101322 0.081240
  5 4.118918 -0.003223 0.000511 -0.157081 0.101324 0.081267
  6 4.118917 -0.003226 0.000508 -0.157081 0.101315 0.081152
  7 4.116830 -0.002444 -0.001842 0.593453 0.371091 -0.386590
  8 4.443601 -0.000001 -0.000000 -0.683148 0.116467 -0.059804
  9 9.024063 -0.000001 0.000000 0.000000 0.000000 0.000000
 10 -0.628335 0.906563 1.338678 -1.385302 -2.322007 -1.359139
 11 6.384776 0.000002 0.000001 -0.639307 -0.045203 -1.600555
 12 10.242682 -0.000000 0.000002 -0.000000 -0.000000 -1.088056
 13 11.375561 0.000003 0.000001 2.702887 0.311094 -0.424772
 14 0.728681 0.023433 -1.008291 1.267228 0.796324 -0.150945
 15 2.136497 0.000000 0.000001 0.000000 -0.000000 -0.078540
 16 2.313141 0.000001 -0.000001 0.000000 0.000000 0.000000
 17 3.115506 -0.886041 -0.021431 -0.117598 -0.382555 -0.171683
 18 2.011153 0.000003 -0.000003 -0.000000 0.000000 0.354134
 19 2.141377 -0.000001 0.000002 0.000000 0.000000 0.000000
 20 1.734173 0.000001 -0.000002 -0.000000 -0.000000 0.177895
 21 0.000005 -4.440594 0.000001 1.570544 -0.062990 -0.195737
 22 6.000000 0.000002 0.000000 3.051707 0.000000 0.000000
 23 0.000002 -4.440602 0.000001 1.569944 -0.062987 0.004053
 24 11.375562 0.000001 0.000005 -2.536169 0.302621 -0.119257
 25 -0.000000 -4.440603 -0.000003 1.570144 -0.062988 0.004040
 26 10.510131 0.000000 0.000002 0.000000 0.000000 -2.114824
 27 0.000002 -1.748400 5.000000 -0.000000 0.004007 1.602291
 28 5.500001 0.000001 0.000000 0.262851 0.000000 -0.000000
 29 -0.000001 -1.940600 5.000003 -0.044472 0.004003 -0.000180
 30 6.551491 -0.000000 -0.000002 -0.533119 0.067887 -1.185614
 31 -0.000001 -1.940598 5.000002 -0.027189 -0.053376 0.005295
 32 6.551491 -0.000000 -0.000002 -0.203840 0.099721 -0.469205
 33 0.000000 -1.940600 4.999998 -0.066572 -0.152786 -0.110311
 34 0.628346 -0.899487 -1.338676 2.008542 1.305873 -0.611166
 35 6.384778 -0.000002 0.000000 1.397142 0.491161 -1.084099
 36 10.242682 0.000000 0.000000 0.000000 0.000000 -0.477772
 37 11.375560 0.000001 -0.000000 2.045457 0.238440 0.226858
 38 0.728678 0.023431 1.008293 -1.579583 -0.319038 0.212973
 39 2.136497 0.000001 -0.000001 -0.000000 -0.000000 1.282817
 40 2.313139 0.000001 -0.000001 0.000000 0.000000 3.141593
 41 3.115505 -0.886041 0.021432 0.420766 0.316066 0.167178
 42 2.011147 -0.000001 0.000000 0.000000 0.000000 2.082010
 43 2.141379 -0.000002 0.000000 0.000000 0.000000 3.141593
 44 1.734170 -0.000001 0.000000 -0.000000 0.000000 1.041748
 45 0.136313 -3.738191 2.525891 1.493698 2.759406 -1.474501
 46 5.031110 -0.189688 1.849661 -2.967941 -0.035742 1.570790
 47 11.389366 -0.000818 0.158781 1.801247 0.144906 0.110482
 48 -0.000000 -4.440599 0.000000 1.570144 -3.078602 0.004040
 49 6.000000 0.000000 -0.000001 1.801247 -0.000000 0.000000
 50 0.000001 -4.440600 0.000001 1.569944 -3.078603 0.004053
 51 10.510131 -0.000000 0.000000 0.000000 0.000000 -1.809682
 52 -0.000001 -1.748400 -5.000000 3.141593 0.004007 -1.539299
 53 5.500000 0.000000 -0.000000 -0.426795 -0.000000 -0.000000
 54 0.000000 -0.000001 -5.000003 -0.044472 3.137589 -0.000177
 55 6.551492 -0.000001 0.000001 0.426795 -0.014596 -0.319319
 56 -1.266843 -1.937443 -4.950558 -0.066572 -2.988806 -0.110308
 57 6.551492 -0.000001 0.000001 0.426795 -0.014596 -0.319319
 58 0.699371 -1.944208 -5.006845 -0.027189 -3.088217 0.005298
 59 4.226146 -0.003202 0.000001 0.305428 0.161650 -0.231295
 60 -0.000000 5.000003 -0.000001 -0.153564 0.000087 2.718702
 61 0.000006 -0.000006 -3.713579 0.145091 2.893501 -1.053017
 62 0.000001 0.000000 5.000001 3.053199 1.558589 -0.074925
 63 -0.000005 0.000005 3.713580 -0.210381 -2.744404 -0.929113
 64 -0.000000 0.000001 -5.000000 -0.088727 1.558589 3.066334
 65 7.363603 1.646646 0.495663 -3.141593 -1.570796 0.000000
 66 -0.000005 0.000005 3.619082 -3.139238 -0.749898 1.116121
 67 16.573919 0.000000 -0.000000 0.000000 -0.000000 -1.729274
 68 15.128181 -0.000001 0.000001 -0.011824 0.152237 0.180187
 69 5.758666 4.244731 0.000000 0.000000 -0.000000 2.033309
 70 3.177726 -0.000000 0.000000 0.000000 0.000000 3.141593
 71 15.708953 0.000000 0.000001 -0.008766 0.083938 0.095975
 72 0.275148 0.189215 -3.445207 3.130898 0.000409 -1.514604
 73 17.210192 -0.000001 0.000000 0.000000 -0.000000 -2.191890
 74 0.000000 0.000000 -4.999999 -0.079433 1.546568 -1.570859
 75 0.000007 -0.000004 -3.619079 -3.035266 0.325789 1.473451
 76 16.573921 -0.000001 0.000001 0.000000 -0.000000 -1.862701
 77 15.128182 0.000001 0.000002 0.096863 0.216184 0.492900
 78 5.758665 4.244732 0.000001 -0.000000 -0.000000 1.483530
 79 4.003935 -0.000000 0.000000 0.000000 0.000000 0.000000
 80 15.708955 0.000001 0.000001 0.056952 0.162326 0.338827
 81 0.273997 0.191090 3.439762 -3.130907 -0.000437 -1.508107
 82 17.210194 -0.000002 -0.000001 -0.000000 0.000000 -2.251932
 83 0.000000 -0.000001 5.000000 -0.079314 1.595025 -1.570739
time 2
  0 0.500000 13.522099 26.931471 -0.243067 0.535714 -2.432935
  1 12.194224 4.944110 -19.938349 -0.544290 0.221328 2.303921
  2 -2.276936 0.000004 -1.238185 -1.570795 -1.570451 0.000000
  3 1.797462 0.711849 0.000509 -0.157086 0.101306 0.081851
  4 4.118917 -0.003225 0.000510 -0.157081 0.101322 0.081240
  5 4.118918 -0.003223 0.000511 -0.157081 0.101324 0.081267
  6 4.118917 -0.003226 0.000508 -0.157081 0.101315 0.081152
  7 4.116830 -0.002444 -0.001842 0.593453 0.371091 -0.386590
  8 4.443601 -0.000001 -0.000000 -0.683148 0.116467 -0.059804
  9 9.024063 -0.000001 0.000000 0.000000 0.000000 0.000000
 10 -0.628335 0.906563 1.338678 -1.385302 -2.322007 -1.359139
 11 6.384776 0.000002 0.000001 -0.639307 -0.045203 -1.600555
 12 10.242682 -0.000000 0.000002 -0.000000 -0.000000 -1.088056
 13 11.375561 0.000003 0.000001 2.702887 0.311094 -0.424772
 14 0.728681 0.023433 -1.008291 1.267228 0.796324 -0.150945
 15 2.136497 0.000000 0.000001 0.000000 -0.000000 -0.078540
 16 2.313141 0.000001 -0.000001 0.000000 0.000000 0.000000
 17 3.115506 -0.886041 -0.021431 -0.117598 -0.382555 -0.171683
 18 2.011153 0.000003 -0.000003 -0.000000 0.000000 0.354134
 19 2.141377 -0.000001 0.000002 0.000000 0.000000 0.000000
 20 1.734173 0.000001 -0.000002 -0.000000 -0.000000 0.177895
 21 0.000005 -4.440594 0.000001 1.570544 -0.062990 -0.195737
 22 6.000000 0.000002 0.000000 3.051707 0.000000 0.000000
 23 0.000002 -4.440602 0.000001 1.569944 -0.062987 0.004053
 24 11.375562 0.000001 0.000005 -2.536169 0.302621 -0.119257
 25 -0.000000 -4.440603 -0.000003 1.570144 -0.062988 0.004040
 26 10.510131 0.000000 0.000002 0.000000 0.000000 -2.114824
 27 0.000002 -1.748400 5.000000 -0.000000 0.004007 1.602291
 28 5.500001 0.000001 0.000000 0.262851 0.000000 -0.000000
 29 -0.000001 -1.940600 5.000003 -0.044472 0.004003 -0.000180
 30 6.551491 -0.000000 -0.000002 -0.533119 0.067887 -1.185614
 31 -0.000001 -1.940598 5.000002 -0.027189 -0.053376 0.005295
 32 6.551491 -0.000000 -0.000002 -0.203840 0.099721 -0.469205
 33 0.000000 -1.940600 4.999998 -0.066572 -0.152786 -0.110311
 34 0.628346 -0.899487 -1.338676 2.008542 1.305873 -0.611166
 35 6.384778 -0.000002 0.000000 1.397142 0.491161 -1.084099
 36 10.242682 0.000000 0.000000 0.000000 0.000000 -0.477772
 37 11.375560 0.000001 -0.000000 2.045457 0.238440 0.226858
 38 0.728678 0.023431 1.008293 -1.579583 -0.319038 0.212973
 39 2.136497 0.000001 -0.000001 -0.000000 -0.000000 1.282817
 40 2.313139 0.000001 -0.000001 0.000000 0.000000 3.141593
 41 3.115505 -0.886041 0.021432 0.420766 0.316066 0.167178
 42 2.011147 -0.000001 0.000000 0.000000 0.000000 2.082010
 43 2.141379 -0.000002 0.000000 0.000000 0.000000 3.141593
 44 1.734170 -0.000001 0.000000 -0.000000 0.000000 1.041748
 45 0.136313 -3.738191 2.525891 1.493698 2.759406 -1.474501
 46 5.031110 -0.189688 1.849661 -2.967941 -0.035742 1.570790
 47 11.389366 -0.000818 0.158781 1.801247 0.144906 0.110482
 48 -0.000000 -4.440599 0.000000 1.570144 -3.078602 0.004040
 49 6.000000 0.000000 -0.000001 1.801247 -0.000000 0.000000
 50 0.000001 -4.440600 0.000001 1.569944 -3.078603 0.004053
 51 10.510131 -0.000000 0.000000 0.000000 0.000000 -1.809682
 52 -0.000001 -1.748400 -5.000000 3.141593 0.004007 -1.539299
 53 5.500000 0.000000 -0.000000 -0.426795 -0.000000 -0.000000
 54 0.000000 -0.000001 -5.000003 -0.044472 3.137589 -0.000177
 55 6.551492 -0.000001 0.000001 0.426795 -0.014596 -0.319319
 56 -1.266843 -1.937443 -4.950558 -0.066572 -2.988806 -0.110308
 57 6.551492 -0.000001 0.000001 0.426795 -0.014596 -0.319319
 58 0.699371 -1.944208 -5.006845 -0.027189 -3.088217 0.005298
 59 4.226146 -0.003202 0.000001 0.305428 0.161650 -0.231295
 60 -0.000000 5.000003 -0.000001 -0.153564 0.000087 2.718702
 61 0.000006 -0.000006 -3.713579 0.145091 2.893501 -1.053017
 62 0.000001 0.000000 5.000001 3.053199 1.558589 -0.074925
 63 -0.000005 0.000005 3.713580 -0.210381 -2.744404 -0.929113
 64 -0.000000 0.000001 -5.000000 -0.088727 1.558589 3.066334
 65 7.363603 1.646646 0.495663 -3.141593 -1.570796 0.000000
 66 -0.000005 0.000005 3.619082 -3.139238 -0.749898 1.116121
 67 16.573919 0.000000 -0.000000 0.000000 -0.000000 -1.729274
 68 15.128181 -0.000001 0.000001 -0.011824 0.152237 0.180187
 69 5.758666 4.244731 0.000000 0.000000 -0.000000 2.033309
 70 3.177726 -0.000000 0.000000 0.000000 0.000000 3.141593
 71 15.708953 0.000000 0.000001 -0.008766 0.083938 0.095975
 72 0.275148 0.189215 -3.445207 3.130898 0.000409 -1.514604
 73 17.210192 -0.000001 0.000000 0.000000 -0.000000 -2.191890
 74 0.000000 0.000000 -4.999999 -0.079433 1.546568 -1.570859
 75 0.000007 -0.000004 -3.619079 -3.035266 0.325789 1.473451
 76 16.573921 -0.000001 0.000001 0.000000 -0.000000 -1.862701
 77 15.128182 0.000001 0.000002 0.096863 0.216184 0.492900
 78 5.758665 4.244732 0.000001 -0.000000 -0.000000 1.483530
 79 4.003935 -0.000000 0.000000 0.000000 0.000000 0.000000
 80 15.708955 0.000001 0.000001 0.056952 0.162326 0.338827
 81 0.273997 0.191090 3.439762 -3.130907 -0.000437 -1.508107
 82 17.210194 -0.000002 -0.000001 -0.000000 0.000000 -2.251932
 83 0.000000 -0.000001 5.000000 -0.079314 1.595025 -1.570739
end
