version 1
nodes
  0 "Bip01"  -1
  1 "Bip01 Footsteps"   0
  2 "Bip01 Pelvis"   0
  3 "Bip01 Spine"   2
  4 "Bip01 Spine1"   3
  5 "Bip01 Spine2"   4
  6 "Bip01 Spine3"   5
  7 "Bip01 Neck"   6
  8 "Bip01 Head"   7
  9 "Dummy21"   8
 10 "Bip01 L Clavicle"   7
 11 "Bip01 L UpperArm"  10
 12 "Bip01 L Forearm"  11
 13 "Bip01 L Hand"  12
 14 "Bip01 L Finger0"  13
 15 "Bip01 L Finger01"  14
 16 "Dummy06"  15
 17 "Bip01 L Finger1"  13
 18 "Bip01 L Finger11"  17
 19 "Dummy03"  18
 20 "-- L knuckle"  17
 21 "-- L knuckle_end"  20
 22 "-- L Forearm twist"  12
 23 "-- L Forearm twist_end"  22
 24 "-- L wrist"  12
 25 "-- L wrist_end"  24
 26 "-- L Elbow"  11
 27 "--L Elbow_end"  26
 28 "-- L bicep twist"  11
 29 "-- L bicep twist_end"  28
 30 "-- L shoulder outside"  10
 31 "-- L shoulder outside_end"  30
 32 "-- L Shoulder inside"  10
 33 "-- L Shoulder inside_end"  32
 34 "Bip01 R Clavicle"   7
 35 "Bip01 R UpperArm"  34
 36 "Bip01 R Forearm"  35
 37 "Bip01 R Hand"  36
 38 "Bip01 R Finger0"  37
 39 "Bip01 R Finger01"  38
 40 "Dummy01"  39
 41 "Bip01 R Finger1"  37
 42 "Bip01 R Finger11"  41
 43 "Dummy02"  42
 44 "-- R knuckle"  41
 45 "Point06"  44
 46 "Steyr Aug"  37
 47 "-- R wrist"  36
 48 "-- R wrist_end"  47
 49 "-- R forearm twist"  36
 50 "-- R forearm twist_end"  49
 51 "-- R Elbow"  35
 52 "--R Elbow_end"  51
 53 "-- R bicep twist"  35
 54 "-- R bicep twist_end"  53
 55 "-- R Shoulder inside"  34
 56 "-- R Shoulder inside_end"  55
 57 "-- R shoulder outside"  34
 58 "-- R shoulder outside_end"  57
 59 "-- Neck smooth"   6
 60 "-- neck smooth end"  59
 61 "-- R Butt"   2
 62 "--R Butt_end"  61
 63 "-- L butt"   2
 64 "--L butt_end"  63
 65 "GIGN01"   2
 66 "Bip01 L Thigh"   2
 67 "Bip01 L Calf"  66
 68 "Bip01 L Foot"  67
 69 "Bip01 L Toe0"  68
 70 "Dummy16"  69
 71 "-- L ankle"  67
 72 "-- L ankleend"  71
 73 "-- L Knee"  66
 74 "--L Knee_end"  73
 75 "Bip01 R Thigh"   2
 76 "Bip01 R Calf"  75
 77 "Bip01 R Foot"  76
 78 "Bip01 R Toe0"  77
 79 "Dummy11"  78
 80 "-- R Ankle"  76
 81 "-- R ankleend"  80
 82 "-- R Knee"  75
 83 "--R Knee_end"  82
end
skeleton
time 0
  0 0.233849 -2.251689 38.192150 -0.243067 0.535714 -2.432935
  1 14.471561 5.867448 -23.661942 -0.544290 0.221328 2.303921
  2 -0.642223 -1.239600 -2.183684 -1.570795 -1.570451 0.000000
  3 1.797348 0.711802 -0.000127 0.039499 -0.245610 0.052188
  4 4.119949 -0.002990 -0.000080 0.024521 0.025899 0.423968
  5 4.119081 -0.003220 0.000398 -0.122293 0.077859 0.138126
  6 4.116767 -0.002715 0.000086 -0.026411 0.061849 -0.596019
  7 4.119100 -0.003500 0.000104 -0.038771 0.731010 0.116344
  8 4.443601 0.000000 0.000001 1.366022 -0.376785 -0.237752
  9 9.024061 0.000000 0.000000 0.000000 0.000000 0.000000
 10 -1.156797 -0.046470 1.289043 -0.353679 -0.683296 -2.856808
 11 6.384777 -0.000000 0.000001 -1.162472 -0.016783 -1.590154
 12 10.242681 0.000001 -0.000001 0.000000 -0.000000 -1.442750
 13 11.375559 0.000001 0.000000 -1.332465 -0.459241 0.656485
 14 0.728680 0.023431 -1.008292 1.051563 0.167831 0.364467
 15 2.136496 0.000003 -0.000000 -0.000000 0.000000 -0.078540
 16 2.313139 -0.000002 0.000002 0.000000 0.000000 0.000000
 17 3.115509 -0.886041 -0.021432 -0.620285 0.000392 0.514872
 18 2.011149 -0.000000 -0.000001 0.000000 0.000000 1.322791
 19 2.141379 -0.000002 -0.000002 0.000000 0.000000 0.000000
 20 1.734171 0.000001 -0.000002 0.000000 0.000000 0.660693
 21 0.000006 -4.440594 0.000000 1.570544 -0.062990 -0.195737
 22 5.999999 0.000002 0.000000 -1.369187 0.000000 -0.000000
 23 0.000001 -4.440601 -0.000000 1.569944 -0.062987 0.004053
 24 11.375560 0.000002 0.000004 -1.419979 -0.214933 0.334787
 25 0.000001 -4.440602 -0.000003 1.570144 -0.062988 0.004040
 26 10.510130 0.000001 -0.000001 -0.000000 0.000000 -2.292171
 27 -0.000002 -1.748401 4.999999 -0.000000 0.004007 1.602291
 28 5.499999 0.000000 -0.000000 0.364356 0.000000 0.000000
 29 -0.000002 -1.940597 5.000000 -0.044472 0.004003 -0.000180
 30 6.551491 0.000001 0.000002 -0.788285 0.158081 -1.192259
 31 -0.000001 -1.940599 5.000001 -0.027189 -0.053376 0.005295
 32 6.551491 0.000001 0.000002 -0.276975 0.169570 -0.438360
 33 0.000000 -1.940600 5.000000 -0.066572 -0.152786 -0.110311
 34 1.156806 0.053546 -1.289040 -3.128049 1.174741 -0.173309
 35 6.384777 -0.000000 -0.000002 0.186304 0.131148 -1.719059
 36 10.242682 0.000001 0.000001 -0.000000 -0.000000 -1.628126
 37 11.375563 0.000000 -0.000000 2.718397 0.325213 0.543357
 38 0.728682 0.023431 1.008291 -1.579583 -0.319038 0.212973
 39 2.136495 0.000001 -0.000001 0.000000 -0.000000 1.282817
 40 2.313138 0.000000 -0.000001 0.000000 0.000000 3.141593
 41 3.115508 -0.886042 0.021431 0.420765 0.316066 0.167178
 42 2.011150 0.000000 0.000001 0.000000 0.000000 2.082010
 43 2.141379 -0.000001 -0.000000 0.000000 0.000000 3.141593
 44 1.734172 -0.000001 0.000000 -0.000000 0.000000 1.041748
 45 0.136314 -3.738192 2.525890 1.493698 2.759406 -1.474501
 46 2.209803 -0.209226 0.899083 1.570711 0.171029 -0.002271
 47 11.389366 -0.000820 0.158782 2.114120 0.250577 0.225106
 48 -0.000000 -4.440598 0.000000 1.570144 -3.078602 0.004040
 49 6.000000 0.000001 0.000001 2.114120 0.000000 0.000000
 50 0.000003 -4.440600 -0.000000 1.569944 -3.078603 0.004053
 51 10.510132 0.000001 0.000000 0.000000 0.000000 -2.384859
 52 0.000001 -1.748400 -5.000001 -3.141593 0.004007 -1.539299
 53 5.500000 0.000000 0.000001 -0.101736 0.000000 -0.000000
 54 0.000000 -0.000000 -5.000000 -0.044472 3.137589 -0.000177
 55 6.551491 0.000000 -0.000003 0.101736 0.000863 -0.523966
 56 -1.266844 -1.937443 -4.950562 -0.066572 -2.988806 -0.110308
 57 6.551491 0.000000 -0.000003 0.101736 0.000863 -0.523966
 58 0.699371 -1.944209 -5.006847 -0.027189 -3.088217 0.005298
 59 4.226146 -0.003202 -0.000001 -0.031319 0.367096 0.064180
 60 0.000003 5.000000 -0.000000 -0.153564 0.000087 2.718702
 61 0.000003 -0.000005 -3.713579 0.119535 -2.936655 -0.885276
 62 -0.000001 0.000001 5.000000 3.053195 1.558589 -0.074929
 63 -0.000005 0.000004 3.713579 -0.311487 -2.845558 -0.582080
 64 -0.000001 0.000000 -5.000000 -0.088726 1.558589 3.066335
 65 7.363604 1.646645 0.495663 -3.141593 -1.570796 0.000000
 66 -0.000004 0.000004 3.619081 -0.441735 -2.434423 -1.159240
 67 16.573919 -0.000000 0.000001 -0.000000 -0.000000 -2.011748
 68 15.128180 0.000003 0.000000 0.026832 0.026147 -0.175154
 69 5.758665 4.244730 0.000000 0.000000 -0.000000 2.033309
 70 3.177726 -0.000000 0.000000 0.000000 0.000000 3.141593
 71 15.708951 0.000002 -0.000000 0.013957 0.013894 -0.093781
 72 0.275148 0.189215 -3.445208 3.130898 0.000409 -1.514604
 73 17.210194 -0.000001 0.000002 -0.000000 0.000000 -2.319003
 74 0.000000 -0.000000 -5.000000 -0.079433 1.546568 -1.570857
 75 0.000004 -0.000004 -3.619079 0.260448 -2.945758 -1.468642
 76 16.573919 0.000001 0.000001 0.000000 0.000000 -1.562392
 77 15.128181 0.000000 0.000001 0.265624 -0.173430 0.666428
 78 5.758665 4.244730 0.000000 -0.000000 0.000000 1.483530
 79 4.003934 -0.000000 0.000000 0.000000 0.000000 0.000000
 80 15.708953 0.000000 0.000000 0.195074 -0.100553 0.460486
 81 0.273998 0.191090 3.439762 -3.130907 -0.000437 -1.508107
 82 17.210194 0.000001 0.000000 -0.000000 0.000000 -2.116793
 83 -0.000001 0.000000 5.000000 -0.079311 1.595025 -1.570737
time 1
  0 0.233849 -2.251689 38.192150 -0.243067 0.535714 -2.432935
  1 14.471561 5.867448 -23.661942 -0.544290 0.221328 2.303921
  2 -0.642223 -1.239600 -2.183684 -1.570795 -1.570451 0.000000
  3 1.797348 0.711802 -0.000127 0.039499 -0.245610 0.052188
  4 4.119949 -0.002990 -0.000080 0.024521 0.025899 0.423968
  5 4.119081 -0.003220 0.000398 -0.122293 0.077859 0.138126
  6 4.116790 -0.002729 -0.000066 0.020480 0.038898 -0.584892
  7 4.119086 -0.003500 0.000149 -0.053100 0.670319 0.104622
  8 4.443599 -0.000000 -0.000000 1.285987 -0.287607 -0.206782
  9 9.024061 0.000000 0.000001 0.000000 0.000000 0.000000
 10 -1.076426 -0.068532 1.355887 -0.385775 -0.738800 -2.824110
 11 6.384778 -0.000000 -0.000001 -1.150064 -0.052478 -1.640087
 12 10.242682 -0.000003 0.000000 -0.000000 -0.000000 -1.368534
 13 11.375560 -0.000001 -0.000000 -1.335962 -0.450433 0.629415
 14 0.728680 0.023431 -1.008292 1.051563 0.167831 0.364467
 15 2.136499 0.000002 0.000000 -0.000000 -0.000000 -0.078540
 16 2.313142 -0.000000 0.000002 0.000000 0.000000 0.000000
 17 3.115510 -0.886041 -0.021430 -0.620285 0.000392 0.514872
 18 2.011150 0.000001 0.000001 0.000000 0.000000 1.322791
 19 2.141380 0.000002 0.000000 0.000000 0.000000 0.000000
 20 1.734174 0.000001 -0.000002 0.000000 0.000000 0.660693
 21 0.000006 -4.440595 -0.000002 1.570544 -0.062990 -0.195737
 22 5.999999 -0.000000 0.000000 -1.374100 -0.000000 -0.000000
 23 0.000001 -4.440602 -0.000001 1.569944 -0.062987 0.004053
 24 11.375562 -0.000000 0.000003 -1.424039 -0.212324 0.323186
 25 -0.000000 -4.440603 -0.000001 1.570144 -0.062988 0.004040
 26 10.510129 -0.000002 -0.000001 0.000000 0.000000 -2.255063
 27 -0.000000 -1.748399 5.000000 -0.000000 0.004007 1.602291
 28 5.500000 -0.000000 -0.000001 0.360316 0.000000 -0.000000
 29 -0.000001 -1.940597 5.000002 -0.044472 0.004003 -0.000180
 30 6.551491 0.000001 0.000000 -0.799658 0.138899 -1.286415
 31 0.000001 -1.940599 5.000001 -0.027189 -0.053376 0.005295
 32 6.551491 0.000001 0.000000 -0.269625 0.167421 -0.455122
 33 -0.000000 -1.940600 4.999996 -0.066572 -0.152786 -0.110311
 34 1.076430 0.075608 -1.355887 -3.138258 1.235225 -0.171104
 35 6.384776 0.000000 -0.000002 0.204357 0.152962 -1.692309
 36 10.242681 0.000001 0.000001 0.000000 -0.000000 -1.635324
 37 11.375560 0.000001 0.000002 2.727529 0.312433 0.572081
 38 0.728682 0.023431 1.008292 -1.579583 -0.319038 0.212973
 39 2.136496 0.000000 0.000000 0.000000 -0.000000 1.282817
 40 2.313139 0.000000 0.000000 0.000000 0.000000 3.141593
 41 3.115506 -0.886041 0.021431 0.420766 0.316066 0.167178
 42 2.011149 -0.000000 -0.000002 -0.000000 -0.000000 2.082010
 43 2.141380 -0.000000 -0.000001 0.000000 0.000000 3.141593
 44 1.734172 -0.000002 -0.000002 0.000000 0.000000 1.041748
 45 0.136315 -3.738193 2.525888 1.493698 2.759406 -1.474501
 46 2.209801 -0.209226 0.899083 1.570711 0.171029 -0.002271
 47 11.389366 -0.000820 0.158781 2.118749 0.248006 0.240752
 48 -0.000000 -4.440600 0.000001 1.570144 -3.078602 0.004040
 49 5.999999 0.000000 0.000000 2.118749 -0.000000 0.000000
 50 0.000001 -4.440600 0.000000 1.569944 -3.078603 0.004053
 51 10.510131 -0.000000 0.000002 0.000000 0.000000 -2.388458
 52 0.000001 -1.748399 -5.000004 -3.141593 0.004007 -1.539299
 53 5.500000 0.000000 0.000000 -0.114169 -0.000000 0.000000
 54 0.000000 -0.000000 -4.999999 -0.044472 3.137589 -0.000177
 55 6.551491 0.000001 -0.000002 0.114169 0.003649 -0.517565
 56 -1.266843 -1.937443 -4.950561 -0.066572 -2.988806 -0.110308
 57 6.551492 0.000001 -0.000002 0.114169 0.003649 -0.517565
 58 0.699371 -1.944208 -5.006845 -0.027189 -3.088217 0.005298
 59 4.226145 -0.003200 0.000000 -0.035797 0.338667 0.060280
 60 -0.000002 5.000001 0.000001 -0.153565 0.000087 2.718702
 61 0.000003 -0.000005 -3.713579 0.123976 -2.972045 -0.870829
 62 0.000000 0.000000 5.000000 3.053199 1.558589 -0.074925
 63 -0.000005 0.000004 3.713579 -0.290572 -2.809233 -0.650002
 64 0.000001 -0.000000 -5.000000 -0.088722 1.558589 3.066339
 65 7.363604 1.646645 0.495663 -3.141593 -1.570796 0.000000
 66 -0.000004 0.000004 3.619081 -0.336597 -2.380876 -1.328841
 67 16.573919 -0.000002 0.000001 -0.000000 -0.000000 -2.016458
 68 15.128181 0.000001 0.000000 0.021498 0.024223 -0.207406
 69 5.758665 4.244732 0.000001 0.000000 -0.000000 2.033309
 70 3.177725 0.000000 0.000000 0.000000 0.000000 3.141593
 71 15.708952 0.000002 0.000000 0.011327 0.012829 -0.110742
 72 0.275148 0.189215 -3.445208 3.130898 0.000409 -1.514604
 73 17.210194 -0.000002 0.000001 0.000000 0.000000 -2.321122
 74 -0.000000 0.000001 -5.000000 -0.079430 1.546568 -1.570856
 75 0.000004 -0.000004 -3.619079 0.251674 -2.986879 -1.445871
 76 16.573921 -0.000001 0.000001 -0.000000 -0.000000 -1.579014
 77 15.128181 0.000000 0.000000 0.231377 -0.134235 0.685060
 78 5.758665 4.244730 0.000001 -0.000000 -0.000000 1.483530
 79 4.003935 0.000000 0.000000 0.000000 0.000000 0.000000
 80 15.708953 -0.000000 0.000001 0.169631 -0.074795 0.471460
 81 0.273999 0.191090 3.439763 -3.130907 -0.000437 -1.508107
 82 17.210194 -0.000001 0.000001 -0.000000 0.000000 -2.124273
 83 -0.000001 0.000001 5.000000 -0.079311 1.595025 -1.570737
time 2
  0 0.233849 -2.251689 38.192150 -0.243067 0.535714 -2.432935
  1 14.451775 5.859426 -23.629587 -0.544290 0.221328 2.303921
  2 -0.642223 -1.239600 -2.183684 -1.570795 -1.570451 0.000000
  3 1.797348 0.711802 -0.000127 0.039499 -0.245610 0.052188
  4 4.119949 -0.002990 -0.000080 0.024521 0.025899 0.423968
  5 4.119081 -0.003220 0.000398 -0.122293 0.077859 0.138126
  6 4.116821 -0.002740 -0.000218 0.067083 0.015452 -0.574859
  7 4.119069 -0.003503 0.000192 -0.065924 0.609518 0.094483
  8 4.443598 0.000000 -0.000001 1.211113 -0.194916 -0.179493
  9 9.024061 0.000000 -0.000001 0.000000 0.000000 0.000000
 10 -0.991933 -0.090058 1.417613 -0.422182 -0.793419 -2.787118
 11 6.384777 0.000001 0.000000 -1.137240 -0.088529 -1.690412
 12 10.242682 -0.000003 -0.000000 -0.000000 0.000000 -1.291711
 13 11.375562 -0.000001 -0.000000 -1.339833 -0.440791 0.600799
 14 0.728681 0.023432 -1.008288 1.051563 0.167831 0.364467
 15 2.136493 0.000002 -0.000001 -0.000000 0.000000 -0.078540
 16 2.313141 0.000001 0.000002 0.000000 0.000000 0.000000
 17 3.115507 -0.886041 -0.021428 -0.620285 0.000392 0.514872
 18 2.011151 0.000000 0.000000 -0.000000 0.000000 1.322792
 19 2.141380 0.000001 -0.000001 0.000000 0.000000 0.000000
 20 1.734173 0.000002 -0.000000 -0.000000 0.000000 0.660693
 21 0.000007 -4.440593 -0.000000 1.570544 -0.062990 -0.195737
 22 6.000001 -0.000001 -0.000000 -1.379281 0.000000 -0.000000
 23 0.000003 -4.440600 -0.000002 1.569944 -0.062987 0.004053
 24 11.375562 -0.000001 0.000002 -1.428321 -0.209382 0.310852
 25 -0.000003 -4.440603 -0.000001 1.570144 -0.062988 0.004040
 26 10.510131 0.000000 -0.000001 0.000000 0.000000 -2.216652
 27 -0.000000 -1.748400 5.000000 -0.000000 0.004007 1.602291
 28 5.500000 -0.000002 0.000000 0.356329 -0.000000 0.000000
 29 -0.000002 -1.940596 4.999999 -0.044472 0.004003 -0.000180
 30 6.551492 -0.000001 -0.000001 -0.810323 0.117345 -1.373899
 31 -0.000001 -1.940598 5.000000 -0.027189 -0.053376 0.005295
 32 6.551492 -0.000001 -0.000001 -0.262400 0.163826 -0.466462
 33 0.000000 -1.940600 4.999995 -0.066572 -0.152786 -0.110311
 34 0.991937 0.097134 -1.417613 3.133044 1.295708 -0.170704
 35 6.384776 0.000000 -0.000000 0.222753 0.174518 -1.665094
 36 10.242681 0.000001 0.000000 0.000000 -0.000000 -1.642521
 37 11.375561 0.000000 0.000001 2.736235 0.299409 0.600566
 38 0.728681 0.023431 1.008294 -1.579583 -0.319038 0.212973
 39 2.136498 0.000000 -0.000000 0.000000 0.000000 1.282817
 40 2.313139 0.000002 0.000000 0.000000 0.000000 3.141593
 41 3.115506 -0.886040 0.021433 0.420766 0.316066 0.167178
 42 2.011150 0.000001 0.000004 -0.000000 0.000000 2.082010
 43 2.141378 -0.000001 -0.000002 0.000000 0.000000 3.141593
 44 1.734172 -0.000001 0.000000 -0.000000 0.000000 1.041748
 45 0.136315 -3.738193 2.525889 1.493698 2.759406 -1.474501
 46 2.209802 -0.209225 0.899086 1.570711 0.171029 -0.002271
 47 11.389366 -0.000819 0.158783 2.123246 0.245323 0.256255
 48 -0.000001 -4.440598 -0.000000 1.570144 -3.078602 0.004040
 49 6.000000 0.000000 -0.000002 2.123246 0.000000 -0.000000
 50 0.000001 -4.440601 0.000001 1.569944 -3.078603 0.004053
 51 10.510131 0.000001 0.000001 0.000000 0.000000 -2.392057
 52 0.000000 -1.748400 -5.000000 3.141593 0.004007 -1.539299
 53 5.500000 0.000000 0.000002 -0.126730 -0.000000 0.000000
 54 0.000000 0.000000 -5.000001 -0.044472 3.137589 -0.000177
 55 6.551490 -0.000001 0.000003 0.126730 0.006402 -0.509680
 56 -1.266842 -1.937443 -4.950562 -0.066572 -2.988806 -0.110308
 57 6.551491 -0.000001 0.000003 0.126730 0.006402 -0.509680
 58 0.699371 -1.944209 -5.006848 -0.027189 -3.088217 0.005298
 59 4.226149 -0.003202 -0.000001 -0.040135 0.310015 0.056538
 60 0.000001 5.000001 -0.000001 -0.153564 0.000087 2.718702
 61 0.000003 -0.000005 -3.713579 0.087591 -3.032594 -0.828141
 62 0.000001 -0.000001 5.000000 3.053195 1.558589 -0.074929
 63 -0.000005 0.000004 3.713579 -0.271390 -2.783167 -0.729869
 64 -0.000001 0.000001 -5.000000 -0.088721 1.558589 3.066340
 65 7.363604 1.646645 0.495663 -3.141593 -1.570796 0.000000
 66 -0.000004 0.000004 3.619081 -0.230975 -2.357449 -1.527244
 67 16.573921 -0.000000 0.000001 -0.000000 0.000000 -1.964389
 68 15.128182 0.000001 -0.000001 0.000009 0.040731 -0.172478
 69 5.758666 4.244731 0.000000 0.000000 -0.000000 2.024514
 70 3.177725 0.000000 -0.000000 0.000000 0.000000 3.141593
 71 15.708953 0.000002 -0.000000 0.000717 0.022702 -0.092252
 72 0.275148 0.189215 -3.445208 3.130898 0.000409 -1.514604
 73 17.210194 -0.000002 0.000001 -0.000000 0.000000 -2.297692
 74 0.000000 -0.000001 -5.000000 -0.079429 1.546565 -1.570853
 75 0.000004 -0.000004 -3.619079 0.174013 -3.041866 -1.385115
 76 16.573921 -0.000002 0.000001 0.000000 -0.000000 -1.585591
 77 15.128181 0.000001 -0.000000 0.167127 -0.040172 0.677768
 78 5.758664 4.244730 0.000000 -0.000000 -0.000000 1.556616
 79 4.003935 0.000001 0.000000 0.000000 0.000000 0.000000
 80 15.708955 0.000001 0.000000 0.119085 -0.013424 0.464871
 81 0.273998 0.191090 3.439763 -3.130907 -0.000437 -1.508106
 82 17.210194 -0.000002 -0.000001 0.000000 -0.000000 -2.127232
 83 0.000001 -0.000000 5.000000 -0.079314 1.595025 -1.570739
time 3
  0 0.233849 -2.251689 38.192150 -0.243067 0.535714 -2.432935
  1 14.516472 5.885657 -23.735373 -0.544290 0.221328 2.303921
  2 -0.642223 -1.239600 -2.183684 -1.570795 -1.570451 0.000000
  3 1.797348 0.711802 -0.000127 0.039499 -0.245610 0.052188
  4 4.119949 -0.002990 -0.000080 0.024521 0.025899 0.423968
  5 4.119081 -0.003220 0.000398 -0.122293 0.077859 0.138126
  6 4.116858 -0.002748 -0.000370 0.113445 -0.008435 -0.565930
  7 4.119049 -0.003502 0.000236 -0.077524 0.548630 0.085657
  8 4.443599 -0.000002 -0.000001 1.140750 -0.099033 -0.155467
  9 9.024060 0.000000 0.000000 0.000000 0.000000 0.000000
 10 -0.903647 -0.110966 1.473984 -0.463778 -0.846953 -2.744950
 11 6.384778 0.000001 0.000003 -1.123856 -0.125165 -1.741361
 12 10.242683 0.000002 0.000000 -0.000000 -0.000000 -1.211824
 13 11.375561 -0.000003 -0.000000 -1.344069 -0.430378 0.570452
 14 0.728681 0.023430 -1.008293 1.051563 0.167831 0.364467
 15 2.136497 0.000001 0.000001 -0.000000 -0.000000 -0.078540
 16 2.313138 -0.000002 -0.000001 0.000000 0.000000 0.000000
 17 3.115507 -0.886041 -0.021433 -0.620285 0.000392 0.514872
 18 2.011150 0.000002 0.000001 0.000000 0.000000 1.322791
 19 2.141378 -0.000001 0.000002 0.000000 0.000000 0.000000
 20 1.734173 0.000001 0.000002 -0.000000 -0.000000 0.660693
 21 0.000006 -4.440594 0.000002 1.570544 -0.062990 -0.195737
 22 5.999998 -0.000000 0.000000 -1.384705 0.000000 0.000000
 23 0.000003 -4.440601 -0.000001 1.569944 -0.062987 0.004053
 24 11.375559 -0.000000 0.000003 -1.432811 -0.206137 0.297664
 25 -0.000004 -4.440603 -0.000000 1.570144 -0.062988 0.004040
 26 10.510131 0.000002 -0.000001 0.000000 -0.000000 -2.176708
 27 -0.000001 -1.748401 4.999998 -0.000000 0.004007 1.602291
 28 5.499999 0.000001 -0.000001 0.352569 0.000000 -0.000000
 29 -0.000002 -1.940599 5.000000 -0.044472 0.004003 -0.000180
 30 6.551493 -0.000001 0.000001 -0.819549 0.093879 -1.452225
 31 0.000002 -1.940599 5.000002 -0.027189 -0.053376 0.005295
 32 6.551493 -0.000001 0.000001 -0.255644 0.158914 -0.472901
 33 -0.000000 -1.940599 4.999994 -0.066572 -0.152786 -0.110311
 34 0.903649 0.118040 -1.473986 3.118001 1.356180 -0.173568
 35 6.384777 -0.000001 0.000002 0.241502 0.195796 -1.637389
 36 10.242681 0.000000 -0.000001 0.000000 0.000000 -1.649719
 37 11.375559 0.000001 0.000000 2.744517 0.286156 0.628818
 38 0.728680 0.023431 1.008290 -1.579583 -0.319038 0.212973
 39 2.136497 -0.000000 -0.000001 -0.000000 0.000000 1.282817
 40 2.313141 -0.000001 -0.000001 0.000000 0.000000 3.141593
 41 3.115506 -0.886041 0.021430 0.420765 0.316066 0.167178
 42 2.011150 -0.000000 0.000000 -0.000000 -0.000000 2.082010
 43 2.141380 0.000000 0.000001 0.000000 0.000000 3.141593
 44 1.734172 -0.000001 0.000000 -0.000000 0.000000 1.041748
 45 0.136315 -3.738192 2.525891 1.493698 2.759406 -1.474501
 46 2.209800 -0.209226 0.899082 1.570711 0.171029 -0.002271
 47 11.389365 -0.000820 0.158781 2.127612 0.242540 0.271620
 48 -0.000000 -4.440598 -0.000000 1.570144 -3.078602 0.004040
 49 6.000000 -0.000001 -0.000003 2.127612 -0.000000 -0.000000
 50 0.000002 -4.440601 -0.000001 1.569944 -3.078603 0.004053
 51 10.510132 -0.000001 0.000003 0.000000 0.000000 -2.395656
 52 0.000001 -1.748399 -5.000002 -3.141593 0.004007 -1.539299
 53 5.500000 -0.000000 0.000001 -0.139304 -0.000000 0.000000
 54 -0.000000 -0.000000 -4.999999 -0.044472 3.137589 -0.000177
 55 6.551492 -0.000001 0.000001 0.139304 0.009116 -0.500230
 56 -1.266843 -1.937444 -4.950562 -0.066572 -2.988806 -0.110308
 57 6.551492 -0.000000 0.000001 0.139304 0.009116 -0.500230
 58 0.699372 -1.944207 -5.006849 -0.027189 -3.088217 0.005298
 59 4.226147 -0.003200 0.000000 -0.044348 0.281040 0.052935
 60 0.000001 5.000000 0.000000 -0.153564 0.000087 2.718702
 61 0.000003 -0.000005 -3.713579 0.044702 -3.107632 -0.773881
 62 0.000000 0.000001 5.000000 3.053196 1.558589 -0.074928
 63 -0.000005 0.000004 3.713579 -0.261147 -2.772701 -0.785718
 64 -0.000001 -0.000000 -5.000000 -0.088724 1.558589 3.066336
 65 7.363604 1.646645 0.495663 -3.141593 -1.570796 0.000000
 66 -0.000004 0.000004 3.619081 2.969053 -0.782505 1.479001
 67 16.573919 -0.000002 0.000001 -0.000000 0.000000 -1.876372
 68 15.128181 0.000001 -0.000000 -0.018001 0.068546 -0.104603
 69 5.758666 4.244730 0.000000 0.000000 -0.000000 1.999874
 70 3.177726 -0.000000 -0.000000 0.000000 0.000000 3.141593
 71 15.708951 -0.000000 -0.000000 -0.008312 0.038557 -0.055958
 72 0.275149 0.189215 -3.445208 3.130898 0.000409 -1.514604
 73 17.210192 -0.000003 0.000001 0.000000 0.000000 -2.258084
 74 0.000000 -0.000001 -5.000000 -0.079430 1.546568 -1.570855
 75 0.000004 -0.000004 -3.619079 0.079930 -3.113342 -1.307657
 76 16.573921 0.000000 0.000001 0.000000 0.000000 -1.568369
 77 15.128182 0.000001 0.000000 0.081503 0.075001 0.642000
 78 5.758665 4.244731 -0.000000 -0.000000 -0.000000 1.702788
 79 4.003934 -0.000000 -0.000000 0.000000 0.000000 0.000000
 80 15.708956 0.000000 0.000001 0.052600 0.061125 0.439646
 81 0.273998 0.191090 3.439763 -3.130907 -0.000437 -1.508106
 82 17.210192 0.000000 0.000000 -0.000000 -0.000000 -2.119483
 83 0.000001 0.000002 5.000000 -0.079314 1.595025 -1.570739
time 4
  0 0.233849 -2.251689 38.192150 -0.243067 0.535714 -2.432935
  1 14.552933 5.900440 -23.794987 -0.544290 0.221328 2.303921
  2 -0.642223 -1.239600 -2.183684 -1.570795 -1.570451 0.000000
  3 1.797348 0.711802 -0.000127 0.039499 -0.245610 0.052188
  4 4.119949 -0.002990 -0.000080 0.024521 0.025899 0.423968
  5 4.119081 -0.003220 0.000398 -0.122293 0.077859 0.138126
  6 4.116902 -0.002750 -0.000519 0.159614 -0.032709 -0.558114
  7 4.119025 -0.003505 0.000274 -0.088116 0.487672 0.077934
  8 4.443596 0.000000 -0.000000 1.074283 -0.000257 -0.134361
  9 9.024061 -0.000000 -0.000000 0.000000 0.000000 0.000000
 10 -0.811905 -0.131173 1.524791 -0.511659 -0.899143 -2.696510
 11 6.384778 -0.000001 0.000002 -1.109736 -0.162679 -1.793227
 12 10.242682 0.000002 -0.000000 -0.000000 0.000000 -1.128251
 13 11.375562 -0.000001 0.000000 -1.348663 -0.419250 0.538108
 14 0.728681 0.023430 -1.008291 1.051563 0.167831 0.364467
 15 2.136496 0.000002 -0.000001 -0.000000 -0.000000 -0.078540
 16 2.313140 0.000000 0.000001 0.000000 0.000000 0.000000
 17 3.115509 -0.886042 -0.021433 -0.620285 0.000392 0.514872
 18 2.011151 -0.000001 -0.000003 -0.000000 0.000000 1.322792
 19 2.141380 -0.000000 0.000001 0.000000 0.000000 0.000000
 20 1.734172 -0.000001 0.000000 0.000000 0.000000 0.660693
 21 0.000006 -4.440594 0.000000 1.570544 -0.062990 -0.195737
 22 6.000001 -0.000000 0.000000 -1.390346 -0.000000 -0.000000
 23 0.000002 -4.440601 0.000001 1.569944 -0.062987 0.004053
 24 11.375562 -0.000001 0.000003 -1.437493 -0.202615 0.283455
 25 0.000001 -4.440604 -0.000000 1.570144 -0.062988 0.004040
 26 10.510130 0.000002 -0.000001 0.000000 0.000000 -2.134922
 27 0.000002 -1.748401 4.999998 -0.000000 0.004007 1.602291
 28 5.500000 0.000003 -0.000000 0.349157 -0.000000 0.000000
 29 -0.000003 -1.940600 5.000000 -0.044472 0.004003 -0.000180
 30 6.551491 0.000000 0.000002 -0.827298 0.068745 -1.521672
 31 0.000001 -1.940599 5.000002 -0.027189 -0.053376 0.005295
 32 6.551491 0.000000 0.000002 -0.249512 0.152924 -0.475424
 33 -0.000001 -1.940599 4.999997 -0.066572 -0.152786 -0.110311
 34 0.811902 0.138251 -1.524791 3.096011 1.416621 -0.183462
 35 6.384777 -0.000000 -0.000002 0.260616 0.216772 -1.609174
 36 10.242682 0.000000 0.000000 -0.000000 -0.000000 -1.656916
 37 11.375562 0.000000 -0.000001 2.752375 0.272684 0.656848
 38 0.728681 0.023431 1.008290 -1.579583 -0.319038 0.212973
 39 2.136496 0.000003 0.000001 -0.000000 0.000000 1.282817
 40 2.313139 -0.000001 -0.000001 0.000000 0.000000 3.141593
 41 3.115510 -0.886042 0.021432 0.420766 0.316066 0.167178
 42 2.011148 -0.000000 -0.000004 -0.000000 0.000000 2.082010
 43 2.141379 -0.000000 0.000000 0.000000 0.000000 3.141593
 44 1.734172 -0.000001 -0.000000 0.000000 0.000000 1.041748
 45 0.136315 -3.738192 2.525891 1.493698 2.759406 -1.474501
 46 2.209802 -0.209226 0.899085 1.570711 0.171029 -0.002271
 47 11.389366 -0.000819 0.158784 2.131851 0.239668 0.286854
 48 -0.000001 -4.440598 -0.000001 1.570144 -3.078602 0.004040
 49 5.999999 0.000000 0.000001 2.131851 -0.000000 -0.000000
 50 0.000002 -4.440602 0.000000 1.569944 -3.078603 0.004053
 51 10.510133 0.000001 0.000001 0.000000 -0.000000 -2.399254
 52 0.000000 -1.748400 -5.000001 -3.141593 0.004007 -1.539299
 53 5.500001 0.000000 -0.000001 -0.151724 0.000000 -0.000000
 54 0.000000 -0.000001 -5.000000 -0.044472 3.137589 -0.000177
 55 6.551490 -0.000001 -0.000001 0.151724 0.011762 -0.489262
 56 -1.266844 -1.937444 -4.950560 -0.066572 -2.988806 -0.110308
 57 6.551492 -0.000001 -0.000000 0.151724 0.011762 -0.489262
 58 0.699371 -1.944208 -5.006846 -0.027189 -3.088217 0.005298
 59 4.226145 -0.003202 -0.000000 -0.048445 0.251653 0.049453
 60 0.000000 5.000000 -0.000001 -0.153564 0.000087 2.718702
 61 0.000003 -0.000005 -3.713579 0.010699 3.106060 -0.729378
 62 0.000000 0.000000 5.000001 3.053195 1.558589 -0.074929
 63 -0.000005 0.000004 3.713579 -0.253268 -2.767493 -0.829692
 64 0.000000 0.000001 -5.000000 -0.088726 1.558589 3.066334
 65 7.363604 1.646645 0.495663 -3.141593 -1.570796 0.000000
 66 -0.000004 0.000004 3.619081 3.008548 -0.773315 1.373526
 67 16.573919 -0.000001 -0.000001 0.000000 -0.000000 -1.756202
 68 15.128180 0.000001 0.000001 -0.024444 0.100512 -0.039152
 69 5.758667 4.244730 0.000000 0.000000 -0.000000 1.964268
 70 3.177726 -0.000001 0.000000 0.000000 0.000000 3.141593
 71 15.708952 0.000000 0.000001 -0.011857 0.056262 -0.020696
 72 0.275149 0.189215 -3.445208 3.130898 0.000409 -1.514604
 73 17.210194 -0.000001 -0.000001 0.000000 -0.000000 -2.204007
 74 -0.000001 -0.000000 -5.000000 -0.079430 1.546568 -1.570856
 75 0.000004 -0.000004 -3.619079 0.000197 3.096765 -1.242343
 76 16.573921 -0.000002 0.000001 -0.000000 0.000000 -1.526718
 77 15.128181 0.000001 0.000000 -0.010800 0.166980 0.553213
 78 5.758665 4.244730 -0.000000 -0.000000 0.000000 1.775873
 79 4.003934 0.000000 0.000000 0.000000 0.000000 0.000000
 80 15.708954 0.000001 -0.000000 -0.015050 0.119918 0.381082
 81 0.273997 0.191090 3.439763 -3.130907 -0.000437 -1.508106
 82 17.210192 -0.000001 0.000001 -0.000000 0.000000 -2.100740
 83 0.000001 0.000000 5.000000 -0.079311 1.595025 -1.570737
end
