version 1
nodes
  0 "Bip01"  -1
  1 "Bip01 Footsteps"   0
  2 "Bip01 Pelvis"   0
  3 "Bip01 Spine"   2
  4 "Bip01 Spine1"   3
  5 "Bip01 Spine2"   4
  6 "Bip01 Spine3"   5
  7 "Bip01 Neck"   6
  8 "Bip01 Head"   7
  9 "Dummy21"   8
 10 "Bip01 L Clavicle"   7
 11 "Bip01 L UpperArm"  10
 12 "Bip01 L Forearm"  11
 13 "Bip01 L Hand"  12
 14 "Bip01 L Finger0"  13
 15 "Bip01 L Finger01"  14
 16 "Dummy06"  15
 17 "Bip01 L Finger1"  13
 18 "Bip01 L Finger11"  17
 19 "Dummy03"  18
 20 "-- L knuckle"  17
 21 "-- L knuckle_end"  20
 22 "-- L Forearm twist"  12
 23 "-- L Forearm twist_end"  22
 24 "-- L wrist"  12
 25 "-- L wrist_end"  24
 26 "-- L Elbow"  11
 27 "--L Elbow_end"  26
 28 "-- L bicep twist"  11
 29 "-- L bicep twist_end"  28
 30 "-- L shoulder outside"  10
 31 "-- L shoulder outside_end"  30
 32 "-- L Shoulder inside"  10
 33 "-- L Shoulder inside_end"  32
 34 "Bip01 R Clavicle"   7
 35 "Bip01 R UpperArm"  34
 36 "Bip01 R Forearm"  35
 37 "Bip01 R Hand"  36
 38 "Bip01 R Finger0"  37
 39 "Bip01 R Finger01"  38
 40 "Dummy01"  39
 41 "Bip01 R Finger1"  37
 42 "Bip01 R Finger11"  41
 43 "Dummy02"  42
 44 "-- R knuckle"  41
 45 "Point06"  44
 46 "Steyr Aug"  37
 47 "-- R wrist"  36
 48 "-- R wrist_end"  47
 49 "-- R forearm twist"  36
 50 "-- R forearm twist_end"  49
 51 "-- R Elbow"  35
 52 "--R Elbow_end"  51
 53 "-- R bicep twist"  35
 54 "-- R bicep twist_end"  53
 55 "-- R Shoulder inside"  34
 56 "-- R Shoulder inside_end"  55
 57 "-- R shoulder outside"  34
 58 "-- R shoulder outside_end"  57
 59 "-- Neck smooth"   6
 60 "-- neck smooth end"  59
 61 "-- R Butt"   2
 62 "--R Butt_end"  61
 63 "-- L butt"   2
 64 "--L butt_end"  63
 65 "GIGN01"   2
 66 "Bip01 L Thigh"   2
 67 "Bip01 L Calf"  66
 68 "Bip01 L Foot"  67
 69 "Bip01 L Toe0"  68
 70 "Dummy16"  69
 71 "-- L ankle"  67
 72 "-- L ankleend"  71
 73 "-- L Knee"  66
 74 "--L Knee_end"  73
 75 "Bip01 R Thigh"   2
 76 "Bip01 R Calf"  75
 77 "Bip01 R Foot"  76
 78 "Bip01 R Toe0"  77
 79 "Dummy11"  78
 80 "-- R Ankle"  76
 81 "-- R ankleend"  80
 82 "-- R Knee"  75
 83 "--R Knee_end"  82
end
skeleton
time 0
  0 0.233849 -2.251689 38.192150 0.000000 0.000000 -1.570795
  1 0.000000 -0.000000 -23.131363 0.000000 0.000000 1.570795
  2 -2.276935 0.000003 -1.238186 -1.570795 -1.570451 0.000000
  3 1.797470 0.711818 0.000198 -0.063141 -0.247490 0.115148
  4 4.120133 -0.002894 0.000200 -0.061208 0.024426 0.485053
  5 4.119267 -0.003210 0.000156 -0.047794 0.075531 0.199356
  6 4.117616 -0.003101 0.000403 -0.123469 0.095579 -0.318818
  7 4.119192 -0.003484 0.000192 -0.054474 0.101280 0.161971
  8 4.443602 -0.000001 -0.000000 1.162308 0.056865 0.009548
  9 9.024059 -0.000001 0.000000 0.000000 0.000000 0.000000
 10 -0.175189 -0.090326 1.721284 -0.967162 -1.230093 -2.345017
 11 6.384777 -0.000001 -0.000000 -1.297252 0.706668 -1.361645
 12 10.242682 -0.000000 0.000000 -0.000000 -0.000000 -1.887964
 13 11.375563 -0.000000 -0.000000 -1.697901 -0.649122 0.677973
 14 0.728679 0.023431 -1.008293 1.051563 0.167831 0.364467
 15 2.136498 0.000001 0.000001 -0.000000 0.000000 -0.078540
 16 2.313139 -0.000002 -0.000001 0.000000 0.000000 0.000000
 17 3.115506 -0.886040 -0.021431 -0.620285 0.000392 0.514872
 18 2.011150 0.000001 -0.000001 0.000000 0.000000 1.322791
 19 2.141380 -0.000000 -0.000003 0.000000 0.000000 0.000000
 20 1.734173 0.000002 -0.000002 0.000000 -0.000000 0.660693
 21 0.000006 -4.440594 0.000002 1.570544 -0.062990 -0.195737
 22 6.000001 0.000000 0.000000 -1.619732 0.000000 0.000000
 23 0.000001 -4.440601 0.000002 1.569944 -0.062987 0.004053
 24 11.375562 -0.000000 0.000003 -1.571608 -0.335072 0.312033
 25 -0.000002 -4.440604 0.000003 1.570144 -0.062988 0.004040
 26 10.510131 0.000001 -0.000001 -0.000000 0.000000 -2.514779
 27 -0.000001 -1.748400 4.999999 0.000000 0.004007 1.602290
 28 5.500000 0.000001 -0.000000 0.274606 -0.000000 0.000000
 29 -0.000002 -1.940598 5.000000 -0.044472 0.004003 -0.000180
 30 6.551491 -0.000000 -0.000000 -0.647252 0.604763 -0.722675
 31 -0.000002 -1.940599 5.000003 -0.027189 -0.053376 0.005295
 32 6.551491 -0.000000 -0.000000 -0.213006 0.320619 -0.252833
 33 -0.000000 -1.940599 4.999995 -0.066572 -0.152786 -0.110311
 34 0.175194 0.097401 -1.721284 -1.741345 1.217261 1.253609
 35 6.384777 -0.000000 0.000001 0.090079 0.037977 -1.340547
 36 10.242682 0.000000 0.000000 0.000000 0.000000 -1.854429
 37 11.375561 0.000001 0.000001 2.516774 0.199953 0.683968
 38 0.728680 0.023432 1.008290 -1.579583 -0.319038 0.212973
 39 2.136496 0.000002 -0.000000 0.000000 0.000000 1.282817
 40 2.313139 -0.000000 -0.000000 0.000000 0.000000 3.141593
 41 3.115506 -0.886040 0.021429 0.420766 0.316066 0.167178
 42 2.011149 0.000000 0.000003 0.000000 0.000000 2.082010
 43 2.141378 -0.000001 -0.000001 0.000000 0.000000 3.141593
 44 1.734172 -0.000001 0.000001 -0.000000 0.000000 1.041748
 45 0.136315 -3.738192 2.525892 1.493698 2.759406 -1.474501
 46 2.209801 -0.209226 0.899085 1.570711 0.171029 -0.002271
 47 11.389366 -0.000820 0.158780 2.022661 0.182952 0.324335
 48 0.000001 -4.440601 0.000001 1.570144 -3.078602 0.004040
 49 6.000000 0.000000 -0.000001 2.022661 0.000000 -0.000000
 50 0.000002 -4.440601 -0.000000 1.569944 -3.078603 0.004053
 51 10.510131 0.000000 -0.000000 0.000000 0.000000 -2.498011
 52 0.000000 -1.748399 -5.000002 -3.141593 0.004007 -1.539299
 53 5.500000 -0.000000 -0.000001 -0.043401 -0.000000 0.000000
 54 -0.000000 0.000001 -5.000000 -0.044472 3.137589 -0.000177
 55 6.551490 -0.000001 0.000002 0.043401 -0.009528 -0.358146
 56 -1.266843 -1.937443 -4.950563 -0.066572 -2.988806 -0.110308
 57 6.551491 -0.000001 0.000002 0.043401 -0.009528 -0.358146
 58 0.699370 -1.944207 -5.006850 -0.027189 -3.088217 0.005298
 59 4.226148 -0.003202 -0.000001 -0.029245 0.053034 0.094438
 60 -0.000002 5.000002 0.000000 -0.153564 0.000087 2.718702
 61 0.000005 -0.000005 -3.713579 0.119535 -2.936655 -0.885276
 62 0.000002 0.000001 5.000000 3.053197 1.558589 -0.074927
 63 -0.000005 0.000005 3.713579 -0.311487 -2.845558 -0.582080
 64 -0.000001 0.000000 -5.000000 -0.088725 1.558589 3.066336
 65 7.363605 1.646646 0.495663 3.141593 -1.570796 0.000000
 66 -0.000005 0.000007 3.619081 -0.441735 -2.434423 -1.159240
 67 16.573919 -0.000000 0.000001 -0.000000 -0.000000 -2.011748
 68 15.128177 0.000001 -0.000000 0.026832 0.026147 -0.175154
 69 5.758665 4.244732 -0.000001 0.000000 -0.000000 2.033309
 70 3.177726 -0.000000 0.000000 0.000000 0.000000 3.141593
 71 15.708950 0.000002 -0.000000 0.013957 0.013894 -0.093781
 72 0.275148 0.189215 -3.445208 3.130898 0.000409 -1.514604
 73 17.210194 -0.000001 0.000002 -0.000000 0.000000 -2.319003
 74 0.000002 0.000002 -5.000000 -0.079432 1.546568 -1.570855
 75 0.000005 -0.000003 -3.619081 0.260448 -2.945758 -1.468642
 76 16.573919 -0.000001 0.000001 0.000000 0.000000 -1.562392
 77 15.128181 -0.000002 0.000001 0.265624 -0.173430 0.666428
 78 5.758664 4.244730 -0.000001 -0.000000 -0.000000 1.483530
 79 4.003935 -0.000002 0.000001 0.000000 0.000000 0.000000
 80 15.708954 -0.000001 0.000001 0.195074 -0.100553 0.460486
 81 0.273998 0.191090 3.439761 -3.130907 -0.000437 -1.508106
 82 17.210194 -0.000001 0.000000 0.000000 -0.000000 -2.116793
 83 0.000001 -0.000001 5.000000 -0.079311 1.595025 -1.570736
time 1
  0 0.233849 -2.251689 38.192150 0.000000 0.000000 -1.570795
  1 0.000000 -0.000000 -23.131363 0.000000 0.000000 1.570795
  2 -2.276935 0.000003 -1.238186 -1.570795 -1.570451 0.000000
  3 1.797489 0.711817 0.000144 -0.046251 -0.251823 0.117489
  4 4.120141 -0.002894 0.000142 -0.043690 0.020087 0.487313
  5 4.119267 -0.003212 0.000098 -0.030164 0.071161 0.201562
  6 4.117616 -0.003109 0.000344 -0.105764 0.091389 -0.316282
  7 4.119256 -0.003473 0.000175 -0.050107 0.156828 0.178787
  8 4.443598 -0.000002 -0.000000 1.115500 -0.049116 -0.015159
  9 9.024064 -0.000000 0.000000 0.000000 0.000000 0.000000
 10 -0.270626 -0.082188 1.709308 -0.858515 -1.191048 -2.466286
 11 6.384778 -0.000001 0.000001 -1.296383 0.638565 -1.433751
 12 10.242682 0.000001 -0.000000 -0.000000 -0.000000 -1.770490
 13 11.375563 0.000000 -0.000000 -1.696284 -0.639573 0.619261
 14 0.728681 0.023432 -1.008292 1.051563 0.167831 0.364467
 15 2.136497 0.000000 0.000001 -0.000000 0.000000 -0.078540
 16 2.313139 -0.000002 -0.000002 0.000000 0.000000 0.000000
 17 3.115506 -0.886040 -0.021429 -0.620285 0.000392 0.514872
 18 2.011151 0.000000 -0.000001 -0.000000 0.000000 1.322792
 19 2.141378 0.000000 -0.000001 0.000000 0.000000 0.000000
 20 1.734173 -0.000000 0.000000 -0.000000 0.000000 0.660693
 21 0.000007 -4.440593 -0.000000 1.570544 -0.062990 -0.195737
 22 5.999999 0.000001 -0.000000 -1.623355 -0.000000 0.000000
 23 -0.000000 -4.440601 0.000001 1.569944 -0.062987 0.004053
 24 11.375563 0.000000 0.000003 -1.576915 -0.330025 0.287849
 25 -0.000003 -4.440603 -0.000000 1.570144 -0.062988 0.004040
 26 10.510130 0.000001 -0.000000 -0.000000 -0.000000 -2.456041
 27 0.000001 -1.748401 4.999999 -0.000000 0.004007 1.602290
 28 5.499999 0.000001 -0.000001 0.262290 -0.000000 -0.000000
 29 -0.000003 -1.940599 5.000000 -0.044472 0.004003 -0.000180
 30 6.551491 -0.000001 0.000001 -0.647369 0.603300 -0.823412
 31 0.000001 -1.940598 5.000003 -0.027189 -0.053376 0.005295
 32 6.551491 -0.000001 0.000001 -0.200333 0.322409 -0.289490
 33 -0.000002 -1.940598 4.999998 -0.066572 -0.152786 -0.110311
 34 0.270626 0.089264 -1.709308 -1.885774 1.198262 1.098994
 35 6.384777 0.000000 -0.000003 0.102661 0.050467 -1.284506
 36 10.242682 -0.000001 0.000004 -0.000000 -0.000000 -1.854007
 37 11.375560 -0.000001 -0.000002 2.518971 0.207590 0.694824
 38 0.728681 0.023431 1.008291 -1.579583 -0.319038 0.212973
 39 2.136497 -0.000000 -0.000001 0.000000 0.000000 1.282817
 40 2.313140 -0.000000 0.000001 0.000000 0.000000 3.141593
 41 3.115506 -0.886042 0.021432 0.420765 0.316066 0.167178
 42 2.011151 -0.000000 -0.000000 -0.000000 0.000000 2.082010
 43 2.141380 0.000000 -0.000001 0.000000 0.000000 3.141593
 44 1.734173 -0.000001 -0.000001 0.000000 -0.000000 1.041748
 45 0.136315 -3.738193 2.525890 1.493698 2.759406 -1.474501
 46 2.209801 -0.209226 0.899084 1.570711 0.171029 -0.002271
 47 11.389366 -0.000819 0.158782 2.022404 0.187718 0.327905
 48 -0.000000 -4.440601 0.000000 1.570144 -3.078602 0.004040
 49 6.000000 -0.000000 -0.000001 2.022404 0.000000 0.000000
 50 0.000001 -4.440601 -0.000001 1.569944 -3.078603 0.004053
 51 10.510132 -0.000000 0.000005 0.000000 0.000000 -2.497800
 52 0.000001 -1.748400 -5.000001 -3.141593 0.004007 -1.539299
 53 5.500000 0.000000 0.000003 -0.047933 -0.000000 0.000000
 54 0.000000 0.000000 -5.000000 -0.044472 3.137589 -0.000177
 55 6.551491 -0.000000 -0.000002 0.047933 -0.006884 -0.341981
 56 -1.266844 -1.937442 -4.950561 -0.066572 -2.988806 -0.110308
 57 6.551491 -0.000000 -0.000002 0.047933 -0.006884 -0.341981
 58 0.699370 -1.944207 -5.006845 -0.027189 -3.088217 0.005298
 59 4.226145 -0.003202 -0.000000 -0.028182 0.082358 0.103778
 60 0.000001 4.999999 -0.000000 -0.153564 0.000087 2.718702
 61 0.000005 -0.000005 -3.713579 0.123976 -2.972045 -0.870829
 62 0.000002 -0.000001 5.000000 3.053197 1.558589 -0.074927
 63 -0.000005 0.000005 3.713579 -0.290572 -2.809233 -0.650002
 64 0.000002 -0.000000 -5.000000 -0.088726 1.558589 3.066334
 65 7.363605 1.646646 0.495663 3.141593 -1.570796 0.000000
 66 -0.000005 0.000007 3.619081 -0.336597 -2.380876 -1.328841
 67 16.573921 0.000003 0.000002 -0.000000 -0.000000 -2.016458
 68 15.128184 0.000001 -0.000001 0.021498 0.024223 -0.207406
 69 5.758666 4.244730 -0.000000 0.000000 -0.000000 2.033309
 70 3.177726 -0.000000 0.000001 0.000000 0.000000 3.141593
 71 15.708952 0.000001 -0.000001 0.011327 0.012829 -0.110742
 72 0.275149 0.189215 -3.445208 3.130898 0.000409 -1.514604
 73 17.210192 0.000002 0.000001 -0.000000 0.000000 -2.321123
 74 0.000002 -0.000001 -5.000000 -0.079430 1.546568 -1.570855
 75 0.000005 -0.000003 -3.619081 0.251674 -2.986879 -1.445871
 76 16.573921 -0.000001 0.000001 -0.000000 0.000000 -1.579014
 77 15.128181 0.000001 0.000001 0.231377 -0.134235 0.685060
 78 5.758664 4.244730 0.000000 -0.000000 -0.000000 1.483530
 79 4.003935 -0.000001 0.000001 0.000000 0.000000 0.000000
 80 15.708952 0.000000 0.000001 0.169631 -0.074795 0.471460
 81 0.273997 0.191090 3.439763 -3.130907 -0.000437 -1.508107
 82 17.210194 -0.000003 0.000001 -0.000000 0.000000 -2.124273
 83 -0.000000 0.000001 5.000000 -0.079314 1.595025 -1.570739
time 2
  0 0.233849 -2.251689 38.192150 0.000000 0.000000 -1.570795
  1 0.000000 -0.000000 -23.486589 0.000000 0.000000 1.570795
  2 -2.276935 0.000003 -1.238186 -1.570795 -1.570451 0.000000
  3 1.797516 0.711818 0.000090 -0.029352 -0.256194 0.119757
  4 4.120142 -0.002893 0.000087 -0.026183 0.015708 0.489496
  5 4.119270 -0.003212 0.000041 -0.012549 0.066753 0.203690
  6 4.117617 -0.003113 0.000288 -0.088076 0.087155 -0.313823
  7 4.119323 -0.003461 0.000155 -0.044734 0.212314 0.196028
  8 4.443599 0.000000 0.000000 1.068907 -0.154612 -0.033333
  9 9.024063 -0.000001 0.000001 0.000000 0.000000 0.000000
 10 -0.365120 -0.072213 1.692119 -0.772018 -1.148031 -2.565505
 11 6.384777 -0.000001 -0.000001 -1.295438 0.569129 -1.503266
 12 10.242681 -0.000002 0.000001 -0.000000 0.000000 -1.647813
 13 11.375563 -0.000001 -0.000001 -1.695846 -0.626371 0.557228
 14 0.728681 0.023430 -1.008292 1.051563 0.167831 0.364467
 15 2.136497 0.000000 0.000000 -0.000000 0.000000 -0.078540
 16 2.313138 0.000002 0.000001 0.000000 0.000000 0.000000
 17 3.115508 -0.886041 -0.021429 -0.620285 0.000392 0.514872
 18 2.011151 0.000001 -0.000000 -0.000000 0.000000 1.322792
 19 2.141379 0.000000 0.000000 0.000000 0.000000 0.000000
 20 1.734173 0.000001 0.000000 0.000000 -0.000000 0.660693
 21 0.000007 -4.440595 0.000002 1.570544 -0.062990 -0.195737
 22 6.000001 0.000001 0.000000 -1.628407 -0.000000 -0.000000
 23 0.000003 -4.440600 -0.000002 1.569944 -0.062987 0.004053
 24 11.375564 -0.000000 0.000003 -1.583356 -0.323488 0.261880
 25 -0.000003 -4.440603 0.000000 1.570144 -0.062988 0.004040
 26 10.510132 0.000001 -0.000000 -0.000000 0.000000 -2.394703
 27 -0.000000 -1.748400 4.999999 0.000000 0.004007 1.602291
 28 5.500001 0.000000 0.000000 0.258252 -0.000000 -0.000000
 29 -0.000001 -1.940600 5.000000 -0.044472 0.004003 -0.000180
 30 6.551491 0.000001 -0.000000 -0.670956 0.604511 -0.934313
 31 -0.000000 -1.940598 5.000000 -0.027189 -0.053376 0.005295
 32 6.551492 -0.000001 -0.000004 -0.193642 0.325987 -0.323423
 33 -0.000002 -1.940599 5.000000 -0.066572 -0.152786 -0.110311
 34 0.365125 0.079289 -1.692119 -2.013345 1.171989 0.961194
 35 6.384777 0.000001 -0.000003 0.115872 0.062502 -1.228328
 36 10.242682 -0.000000 0.000000 0.000000 0.000000 -1.853584
 37 11.375561 -0.000001 0.000001 2.521256 0.215204 0.705715
 38 0.728679 0.023431 1.008293 -1.579583 -0.319038 0.212973
 39 2.136497 -0.000001 -0.000001 0.000000 0.000000 1.282817
 40 2.313141 -0.000001 -0.000001 0.000000 0.000000 3.141593
 41 3.115505 -0.886042 0.021434 0.420766 0.316066 0.167178
 42 2.011151 -0.000001 -0.000000 -0.000000 0.000000 2.082010
 43 2.141381 0.000000 0.000000 0.000000 0.000000 3.141593
 44 1.734173 -0.000001 -0.000002 -0.000000 0.000000 1.041748
 45 0.136314 -3.738193 2.525890 1.493698 2.759406 -1.474501
 46 2.209801 -0.209226 0.899085 1.570711 0.171029 -0.002271
 47 11.389366 -0.000819 0.158781 2.022149 0.192474 0.331471
 48 0.000000 -4.440598 -0.000001 1.570144 -3.078602 0.004040
 49 5.999999 -0.000000 0.000001 2.022149 0.000000 0.000000
 50 0.000002 -4.440602 0.000001 1.569944 -3.078603 0.004053
 51 10.510132 -0.000001 0.000003 0.000000 -0.000000 -2.497588
 52 -0.000001 -1.748399 -5.000002 -3.141593 0.004007 -1.539299
 53 5.500001 -0.000001 0.000003 -0.052410 -0.000000 0.000000
 54 -0.000000 0.000001 -4.999999 -0.044472 3.137589 -0.000177
 55 6.551491 0.000000 -0.000001 0.052410 -0.004133 -0.328673
 56 -1.266844 -1.937443 -4.950562 -0.066572 -2.988806 -0.110308
 57 6.551491 -0.000001 -0.000001 0.052410 -0.004133 -0.328673
 58 0.699371 -1.944208 -5.006846 -0.027189 -3.088217 0.005298
 59 4.226147 -0.003201 -0.000000 -0.026886 0.111342 0.112920
 60 -0.000000 5.000000 -0.000000 -0.153564 0.000087 2.718702
 61 0.000005 -0.000005 -3.713579 0.087591 -3.032594 -0.828141
 62 0.000002 0.000000 4.999999 3.053197 1.558589 -0.074927
 63 -0.000005 0.000005 3.713579 -0.271390 -2.783167 -0.729869
 64 -0.000001 0.000001 -5.000000 -0.088724 1.558589 3.066337
 65 7.363605 1.646646 0.495663 3.141593 -1.570796 0.000000
 66 -0.000005 0.000007 3.619081 -0.230975 -2.357449 -1.527244
 67 16.573919 0.000002 0.000001 0.000000 0.000000 -1.964389
 68 15.128181 -0.000000 -0.000001 0.000009 0.040731 -0.172478
 69 5.758665 4.244731 0.000000 0.000000 -0.000000 2.024514
 70 3.177725 -0.000000 0.000000 0.000000 0.000000 3.141593
 71 15.708954 0.000002 -0.000001 0.000717 0.022702 -0.092252
 72 0.275149 0.189215 -3.445208 3.130898 0.000409 -1.514604
 73 17.210192 0.000003 0.000001 0.000000 0.000000 -2.297692
 74 -0.000002 -0.000002 -4.999999 -0.079432 1.546568 -1.570855
 75 0.000005 -0.000003 -3.619081 0.174013 -3.041866 -1.385115
 76 16.573921 0.000000 0.000000 0.000000 0.000000 -1.585591
 77 15.128181 -0.000000 0.000000 0.167127 -0.040172 0.677768
 78 5.758664 4.244728 0.000001 -0.000000 0.000000 1.556616
 79 4.003932 -0.000001 0.000000 0.000000 0.000000 0.000000
 80 15.708954 -0.000001 0.000000 0.119085 -0.013424 0.464871
 81 0.273998 0.191089 3.439762 -3.130907 -0.000437 -1.508106
 82 17.210192 -0.000000 0.000000 0.000000 -0.000000 -2.127232
 83 0.000001 0.000001 5.000000 -0.079314 1.595025 -1.570739
time 3
  0 0.233849 -2.251689 38.192150 0.000000 0.000000 -1.570795
  1 0.000000 -0.000000 -24.594194 0.000000 0.000000 1.570795
  2 -2.276935 0.000003 -1.238186 -1.570795 -1.570451 0.000000
  3 1.797535 0.711819 0.000037 -0.012445 -0.260601 0.121950
  4 4.120150 -0.002891 0.000029 -0.008687 0.011292 0.491602
  5 4.119275 -0.003212 -0.000018 0.005051 0.062308 0.205739
  6 4.117614 -0.003120 0.000230 -0.070406 0.082878 -0.311440
  7 4.119389 -0.003449 0.000131 -0.038289 0.267720 0.213815
  8 4.443598 0.000002 0.000001 1.021118 -0.259038 -0.045011
  9 9.024060 -0.000000 0.000000 0.000000 0.000000 0.000000
 10 -0.458365 -0.060429 1.669770 -0.702962 -1.102134 -2.647403
 11 6.384777 0.000001 0.000000 -1.294169 0.497616 -1.570965
 12 10.242682 0.000000 -0.000000 0.000000 -0.000000 -1.518893
 13 11.375562 -0.000001 0.000000 -1.696488 -0.610273 0.491538
 14 0.728679 0.023431 -1.008292 1.051563 0.167831 0.364467
 15 2.136496 -0.000002 0.000001 -0.000000 0.000000 -0.078540
 16 2.313138 -0.000002 0.000000 0.000000 0.000000 0.000000
 17 3.115506 -0.886041 -0.021433 -0.620285 0.000392 0.514872
 18 2.011152 -0.000000 0.000001 -0.000000 0.000000 1.322792
 19 2.141379 0.000002 0.000001 0.000000 0.000000 0.000000
 20 1.734172 -0.000001 0.000002 0.000000 0.000000 0.660693
 21 0.000008 -4.440594 -0.000001 1.570544 -0.062990 -0.195737
 22 5.999998 0.000000 -0.000000 -1.634604 -0.000000 0.000000
 23 0.000000 -4.440600 -0.000002 1.569944 -0.062987 0.004053
 24 11.375560 -0.000002 0.000003 -1.590707 -0.315823 0.233633
 25 -0.000001 -4.440604 0.000000 1.570144 -0.062988 0.004040
 26 10.510128 0.000000 -0.000000 -0.000000 0.000000 -2.330243
 27 0.000003 -1.748401 4.999998 -0.000000 0.004007 1.602290
 28 5.499998 -0.000001 -0.000000 0.262560 -0.000000 -0.000000
 29 0.000001 -1.940597 5.000000 -0.044472 0.004003 -0.000180
 30 6.551491 0.000000 -0.000001 -0.716642 0.599295 -1.057010
 31 -0.000002 -1.940599 5.000001 -0.027189 -0.053376 0.005295
 32 6.551491 0.000000 -0.000001 -0.192924 0.328311 -0.355352
 33 -0.000000 -1.940599 4.999995 -0.066572 -0.152786 -0.110311
 34 0.458363 0.067511 -1.669769 -2.123068 1.139766 0.841183
 35 6.384776 -0.000000 -0.000001 0.129682 0.074048 -1.172002
 36 10.242682 -0.000001 -0.000001 0.000000 -0.000000 -1.853161
 37 11.375560 -0.000000 -0.000001 2.523630 0.222792 0.716642
 38 0.728680 0.023431 1.008291 -1.579583 -0.319038 0.212973
 39 2.136497 0.000002 -0.000000 0.000000 0.000000 1.282817
 40 2.313137 -0.000001 -0.000001 0.000000 0.000000 3.141593
 41 3.115506 -0.886041 0.021429 0.420765 0.316066 0.167178
 42 2.011151 -0.000000 0.000001 -0.000000 0.000000 2.082010
 43 2.141379 -0.000000 -0.000001 0.000000 0.000000 3.141593
 44 1.734172 -0.000002 0.000001 0.000000 -0.000000 1.041748
 45 0.136315 -3.738192 2.525889 1.493698 2.759406 -1.474501
 46 2.209800 -0.209226 0.899085 1.570711 0.171029 -0.002271
 47 11.389365 -0.000819 0.158780 2.021896 0.197219 0.335033
 48 0.000001 -4.440599 0.000002 1.570144 -3.078602 0.004040
 49 5.999999 -0.000001 0.000000 2.021896 0.000000 -0.000000
 50 0.000001 -4.440599 -0.000001 1.569944 -3.078603 0.004053
 51 10.510131 -0.000000 0.000000 0.000000 0.000000 -2.497377
 52 0.000000 -1.748399 -5.000001 -3.141593 0.004007 -1.539299
 53 5.500000 -0.000001 0.000000 -0.056878 0.000000 -0.000000
 54 -0.000001 0.000000 -5.000002 -0.044472 3.137589 -0.000177
 55 6.551490 -0.000001 -0.000001 0.056878 -0.001283 -0.317337
 56 -1.266843 -1.937442 -4.950557 -0.066572 -2.988806 -0.110308
 57 6.551491 -0.000001 -0.000001 0.056878 -0.001283 -0.317337
 58 0.699370 -1.944208 -5.006845 -0.027189 -3.088217 0.005298
 59 4.226145 -0.003201 -0.000000 -0.025385 0.139930 0.121878
 60 -0.000002 5.000001 0.000000 -0.153564 0.000087 2.718702
 61 0.000005 -0.000005 -3.713579 0.044702 -3.107632 -0.773881
 62 0.000001 0.000000 4.999999 3.053197 1.558589 -0.074928
 63 -0.000005 0.000005 3.713579 -0.261147 -2.772701 -0.785719
 64 0.000000 0.000000 -5.000000 -0.088725 1.558589 3.066336
 65 7.363605 1.646646 0.495663 3.141593 -1.570796 0.000000
 66 -0.000005 0.000007 3.619081 2.969053 -0.782505 1.479001
 67 16.573919 -0.000001 0.000001 -0.000000 0.000000 -1.876372
 68 15.128181 0.000000 -0.000001 -0.018001 0.068546 -0.104603
 69 5.758664 4.244731 0.000001 0.000000 -0.000000 1.999874
 70 3.177724 -0.000000 -0.000001 0.000000 0.000000 3.141593
 71 15.708953 0.000002 -0.000001 -0.008312 0.038557 -0.055958
 72 0.275149 0.189216 -3.445208 3.130898 0.000409 -1.514604
 73 17.210192 -0.000000 0.000001 0.000000 0.000000 -2.258084
 74 -0.000003 -0.000001 -5.000000 -0.079432 1.546568 -1.570856
 75 0.000005 -0.000003 -3.619081 0.079930 -3.113342 -1.307657
 76 16.573919 0.000001 0.000000 -0.000000 -0.000000 -1.568369
 77 15.128183 0.000002 0.000000 0.081503 0.075001 0.642000
 78 5.758666 4.244730 0.000000 -0.000000 0.000000 1.702787
 79 4.003936 0.000001 -0.000000 0.000000 0.000000 0.000000
 80 15.708957 0.000000 0.000000 0.052600 0.061125 0.439646
 81 0.273997 0.191089 3.439762 -3.130907 -0.000437 -1.508107
 82 17.210194 0.000002 -0.000000 0.000000 0.000000 -2.119483
 83 -0.000000 -0.000000 4.999999 -0.079314 1.595025 -1.570737
time 4
  0 0.233849 -2.251689 38.192150 0.000000 0.000000 -1.570795
  1 0.000000 -0.000000 -25.867651 0.000000 0.000000 1.570795
  2 -2.276935 0.000003 -1.238186 -1.570795 -1.570451 0.000000
  3 1.797554 0.711821 -0.000017 0.004473 -0.265043 0.124069
  4 4.120158 -0.002888 -0.000030 0.008800 0.006840 0.493630
  5 4.119275 -0.003211 -0.000074 0.022637 0.057828 0.207709
  6 4.117621 -0.003128 0.000172 -0.052751 0.078560 -0.309134
  7 4.119453 -0.003434 0.000103 -0.030690 0.323024 0.232283
  8 4.443602 -0.000002 -0.000000 0.970672 -0.361807 -0.049890
  9 9.024061 0.000000 -0.000002 0.000000 0.000000 0.000000
 10 -0.550026 -0.046884 1.642329 -0.647457 -1.054124 -2.715897
 11 6.384776 0.000001 0.000004 -1.292374 0.423073 -1.637612
 12 10.242682 -0.000000 0.000000 0.000000 0.000000 -1.382154
 13 11.375562 -0.000001 0.000000 -1.698128 -0.591863 0.421548
 14 0.728681 0.023431 -1.008293 1.051563 0.167831 0.364467
 15 2.136497 0.000002 0.000000 -0.000000 0.000000 -0.078540
 16 2.313139 0.000000 -0.000000 0.000000 0.000000 0.000000
 17 3.115507 -0.886041 -0.021431 -0.620285 0.000392 0.514872
 18 2.011150 0.000000 -0.000001 0.000000 -0.000000 1.322792
 19 2.141381 0.000001 -0.000002 0.000000 0.000000 0.000000
 20 1.734171 0.000002 -0.000002 -0.000000 -0.000000 0.660693
 21 0.000003 -4.440594 -0.000001 1.570544 -0.062990 -0.195737
 22 6.000000 0.000001 0.000000 -1.641697 -0.000000 0.000000
 23 0.000002 -4.440601 -0.000001 1.569944 -0.062987 0.004053
 24 11.375564 -0.000001 0.000003 -1.598795 -0.307290 0.202443
 25 -0.000003 -4.440603 0.000001 1.570144 -0.062988 0.004040
 26 10.510130 0.000001 0.000001 0.000000 -0.000000 -2.261873
 27 -0.000000 -1.748400 4.999998 -0.000000 0.004007 1.602291
 28 5.499999 0.000001 -0.000000 0.273240 0.000000 -0.000000
 29 -0.000002 -1.940598 5.000000 -0.044472 0.004003 -0.000180
 30 6.551491 -0.000000 0.000000 -0.777513 0.580451 -1.188172
 31 0.000002 -1.940599 5.000000 -0.027189 -0.053376 0.005295
 32 6.551491 -0.000000 0.000000 -0.196603 0.326760 -0.384616
 33 -0.000000 -1.940600 4.999995 -0.066572 -0.152786 -0.110311
 34 0.550031 0.053960 -1.642330 -2.216004 1.102816 0.737882
 35 6.384776 0.000000 -0.000000 0.144061 0.085076 -1.115521
 36 10.242682 -0.000000 0.000002 -0.000000 0.000000 -1.852739
 37 11.375559 -0.000000 -0.000005 2.526093 0.230354 0.727607
 38 0.728681 0.023431 1.008291 -1.579583 -0.319038 0.212973
 39 2.136496 0.000001 0.000002 -0.000000 -0.000000 1.282817
 40 2.313138 -0.000002 -0.000001 0.000000 0.000000 3.141593
 41 3.115507 -0.886041 0.021432 0.420766 0.316066 0.167178
 42 2.011150 0.000000 0.000002 -0.000000 0.000000 2.082010
 43 2.141380 -0.000000 -0.000000 0.000000 0.000000 3.141593
 44 1.734171 -0.000001 0.000001 -0.000000 0.000000 1.041748
 45 0.136316 -3.738193 2.525889 1.493698 2.759406 -1.474501
 46 2.209801 -0.209224 0.899082 1.570711 0.171029 -0.002271
 47 11.389366 -0.000818 0.158780 2.021646 0.201957 0.338592
 48 0.000001 -4.440599 0.000000 1.570144 -3.078602 0.004040
 49 6.000000 0.000001 -0.000001 2.021646 0.000000 0.000000
 50 0.000002 -4.440601 0.000000 1.569944 -3.078603 0.004053
 51 10.510132 -0.000000 0.000003 0.000000 -0.000000 -2.497166
 52 0.000001 -1.748400 -5.000004 -3.141593 0.004007 -1.539299
 53 5.500000 -0.000000 0.000002 -0.061359 0.000000 -0.000000
 54 -0.000001 0.000000 -5.000002 -0.044472 3.137589 -0.000177
 55 6.551491 -0.000001 -0.000000 0.061359 0.001654 -0.307364
 56 -1.266843 -1.937442 -4.950557 -0.066572 -2.988806 -0.110308
 57 6.551491 -0.000000 -0.000000 0.061359 0.001654 -0.307364
 58 0.699370 -1.944207 -5.006844 -0.027189 -3.088217 0.005298
 59 4.226147 -0.003201 0.000000 -0.023702 0.168093 0.130676
 60 -0.000002 5.000000 0.000000 -0.153564 0.000087 2.718702
 61 0.000005 -0.000005 -3.713579 0.010699 3.106060 -0.729378
 62 0.000001 -0.000001 4.999999 3.053197 1.558589 -0.074927
 63 -0.000005 0.000005 3.713579 -0.253268 -2.767493 -0.829692
 64 0.000000 0.000001 -5.000000 -0.088726 1.558589 3.066334
 65 7.363605 1.646646 0.495663 3.141593 -1.570796 0.000000
 66 -0.000005 0.000007 3.619081 3.008548 -0.773315 1.373526
 67 16.573919 0.000002 0.000000 0.000000 -0.000000 -1.756202
 68 15.128183 -0.000000 -0.000000 -0.024444 0.100512 -0.039152
 69 5.758666 4.244730 -0.000000 0.000000 -0.000000 1.964268
 70 3.177726 -0.000000 -0.000001 0.000000 0.000000 3.141593
 71 15.708955 0.000001 -0.000001 -0.011857 0.056262 -0.020696
 72 0.275148 0.189214 -3.445207 3.130898 0.000409 -1.514604
 73 17.210192 -0.000001 0.000000 -0.000000 -0.000000 -2.204007
 74 -0.000002 -0.000001 -4.999998 -0.079433 1.546568 -1.570859
 75 0.000005 -0.000003 -3.619081 0.000197 3.096765 -1.242343
 76 16.573919 0.000001 -0.000000 0.000000 0.000000 -1.526718
 77 15.128179 0.000001 -0.000000 -0.010800 0.166980 0.553213
 78 5.758665 4.244730 0.000000 -0.000000 0.000000 1.775873
 79 4.003934 0.000001 -0.000000 0.000000 0.000000 0.000000
 80 15.708953 0.000001 0.000000 -0.015050 0.119918 0.381082
 81 0.273997 0.191089 3.439762 -3.130907 -0.000437 -1.508107
 82 17.210192 0.000002 -0.000000 -0.000000 -0.000000 -2.100740
 83 -0.000001 -0.000001 4.999999 -0.079311 1.595025 -1.570736
end
