version 1
nodes
  0 "Bip01"  -1
  1 "Bip01 Footsteps"   0
  2 "Bip01 Pelvis"   0
  3 "Bip01 Spine"   2
  4 "Bip01 Spine1"   3
  5 "Bip01 Spine2"   4
  6 "Bip01 Spine3"   5
  7 "Bip01 Neck"   6
  8 "Bip01 Head"   7
  9 "Dummy21"   8
 10 "Bip01 L Clavicle"   7
 11 "Bip01 L UpperArm"  10
 12 "Bip01 L Forearm"  11
 13 "Bip01 L Hand"  12
 14 "Bip01 L Finger0"  13
 15 "Bip01 L Finger01"  14
 16 "Dummy06"  15
 17 "Bip01 L Finger1"  13
 18 "Bip01 L Finger11"  17
 19 "Dummy03"  18
 20 "-- L knuckle"  17
 21 "-- L knuckle_end"  20
 22 "-- L Forearm twist"  12
 23 "-- L Forearm twist_end"  22
 24 "-- L wrist"  12
 25 "-- L wrist_end"  24
 26 "-- L Elbow"  11
 27 "--L Elbow_end"  26
 28 "-- L bicep twist"  11
 29 "-- L bicep twist_end"  28
 30 "-- L shoulder outside"  10
 31 "-- L shoulder outside_end"  30
 32 "-- L Shoulder inside"  10
 33 "-- L Shoulder inside_end"  32
 34 "Bip01 R Clavicle"   7
 35 "Bip01 R UpperArm"  34
 36 "Bip01 R Forearm"  35
 37 "Bip01 R Hand"  36
 38 "Bip01 R Finger0"  37
 39 "Bip01 R Finger01"  38
 40 "Dummy01"  39
 41 "Bip01 R Finger1"  37
 42 "Bip01 R Finger11"  41
 43 "Dummy02"  42
 44 "-- R knuckle"  41
 45 "Point06"  44
 46 "Steyr Aug"  37
 47 "-- R wrist"  36
 48 "-- R wrist_end"  47
 49 "-- R forearm twist"  36
 50 "-- R forearm twist_end"  49
 51 "-- R Elbow"  35
 52 "--R Elbow_end"  51
 53 "-- R bicep twist"  35
 54 "-- R bicep twist_end"  53
 55 "-- R Shoulder inside"  34
 56 "-- R Shoulder inside_end"  55
 57 "-- R shoulder outside"  34
 58 "-- R shoulder outside_end"  57
 59 "-- Neck smooth"   6
 60 "-- neck smooth end"  59
 61 "-- R Butt"   2
 62 "--R Butt_end"  61
 63 "-- L butt"   2
 64 "--L butt_end"  63
 65 "GIGN01"   2
 66 "Bip01 L Thigh"   2
 67 "Bip01 L Calf"  66
 68 "Bip01 L Foot"  67
 69 "Bip01 L Toe0"  68
 70 "Dummy16"  69
 71 "-- L ankle"  67
 72 "-- L ankleend"  71
 73 "-- L Knee"  66
 74 "--L Knee_end"  73
 75 "Bip01 R Thigh"   2
 76 "Bip01 R Calf"  75
 77 "Bip01 R Foot"  76
 78 "Bip01 R Toe0"  77
 79 "Dummy11"  78
 80 "-- R Ankle"  76
 81 "-- R ankleend"  80
 82 "-- R Knee"  75
 83 "--R Knee_end"  82
end
skeleton
time 0
  0 0.500000 13.522099 26.931471 -0.243067 0.535714 -2.432935
  1 13.773750 5.584524 -22.520975 -0.544290 0.221328 2.303921
  2 -2.276936 0.000004 -1.238185 -1.570795 -1.570451 0.000000
  3 1.797779 0.711912 -0.000599 0.183258 0.038787 0.205680
  4 4.119106 -0.003074 -0.001026 0.320106 -0.102240 0.128106
  5 4.119092 -0.003075 -0.001030 0.323088 -0.150469 0.107574
  6 4.119027 -0.003097 -0.000995 0.332275 -0.376054 0.009686
  7 4.117659 -0.003410 -0.000072 0.020940 -0.131973 -0.273345
  8 4.443598 0.000001 0.000000 0.904093 -0.095046 0.261649
  9 9.024064 -0.000001 0.000001 0.000000 0.000000 0.000000
 10 0.228010 0.039500 1.717276 -0.429377 -1.011244 -2.529509
 11 6.384777 0.000002 0.000003 -0.784405 0.056193 -1.290309
 12 10.242681 0.000001 -0.000001 0.000000 -0.000000 -1.513890
 13 11.375563 0.000000 0.000002 -2.244195 -0.647733 0.685515
 14 0.728682 0.023431 -1.008293 1.051563 0.167831 0.364467
 15 2.136497 0.000001 0.000001 0.000000 -0.000000 -0.078540
 16 2.313140 -0.000001 0.000000 0.000000 0.000000 0.000000
 17 3.115507 -0.886041 -0.021433 -0.620285 0.000392 0.514872
 18 2.011152 0.000001 -0.000003 -0.000000 -0.000000 1.322792
 19 2.141379 -0.000000 0.000002 0.000000 0.000000 0.000000
 20 1.734172 -0.000000 0.000000 -0.000000 -0.000000 0.660693
 21 0.000007 -4.440593 -0.000000 1.570544 -0.062990 -0.195737
 22 6.000000 0.000001 0.000000 -2.018725 0.000000 -0.000000
 23 0.000002 -4.440600 0.000001 1.569944 -0.062987 0.004053
 24 11.375561 0.000001 0.000004 -1.824295 -0.367494 0.266890
 25 -0.000001 -4.440603 -0.000001 1.570144 -0.062988 0.004040
 26 10.510131 0.000002 -0.000003 -0.000000 0.000000 -2.327742
 27 0.000001 -1.748400 5.000000 -0.000000 0.004007 1.602291
 28 5.500000 0.000001 -0.000002 0.281101 0.000000 0.000000
 29 -0.000002 -1.940598 5.000000 -0.044472 0.004003 -0.000180
 30 6.551491 0.000001 0.000002 -0.533876 0.134976 -0.790954
 31 -0.000000 -1.940598 5.000004 -0.027189 -0.053376 0.005295
 32 6.551491 0.000001 0.000002 -0.227520 0.112847 -0.347324
 33 0.000001 -1.940599 4.999996 -0.066572 -0.152786 -0.110311
 34 -0.228010 -0.032421 -1.717277 1.804422 1.364134 -1.032890
 35 6.384777 -0.000003 0.000002 0.106705 0.405086 -1.717153
 36 10.242683 0.000001 0.000002 0.000000 -0.000000 -1.627684
 37 11.375562 -0.000000 0.000002 2.508456 0.178043 0.546560
 38 0.728681 0.023431 1.008294 -1.579583 -0.319038 0.212973
 39 2.136497 -0.000001 -0.000001 0.000000 -0.000000 1.282817
 40 2.313139 0.000002 0.000001 0.000000 0.000000 3.141593
 41 3.115507 -0.886041 0.021433 0.420766 0.316066 0.167178
 42 2.011150 -0.000000 -0.000001 -0.000000 0.000000 2.082010
 43 2.141379 -0.000000 -0.000001 0.000000 0.000000 3.141593
 44 1.734172 -0.000001 0.000002 -0.000000 0.000000 1.041748
 45 0.136315 -3.738194 2.525888 1.493698 2.759406 -1.474501
 46 2.209801 -0.209225 0.899085 1.570711 0.171029 -0.002271
 47 11.389366 -0.000819 0.158784 2.025705 0.160179 0.264750
 48 0.000001 -4.440600 0.000000 1.570144 -3.078602 0.004040
 49 6.000000 0.000000 0.000002 2.025705 -0.000000 0.000000
 50 0.000002 -4.440603 0.000002 1.569944 -3.078603 0.004053
 51 10.510132 0.000000 -0.000001 0.000000 -0.000000 -2.384638
 52 0.000000 -1.748399 -5.000003 -3.141593 0.004007 -1.539299
 53 5.500000 0.000000 0.000001 -0.119385 0.000000 0.000000
 54 -0.000000 0.000000 -5.000003 -0.044472 3.137589 -0.000177
 55 6.551490 -0.000002 0.000001 0.119385 0.094910 -0.508777
 56 -1.266843 -1.937443 -4.950559 -0.066572 -2.988806 -0.110308
 57 6.551491 -0.000002 0.000001 0.119385 0.094910 -0.508777
 58 0.699371 -1.944208 -5.006847 -0.027189 -3.088217 0.005298
 59 4.226146 -0.003202 0.000001 0.006861 -0.070287 -0.153915
 60 0.000001 5.000000 -0.000000 -0.153564 0.000087 2.718702
 61 0.000006 -0.000006 -3.713579 0.119535 -2.936655 -0.885276
 62 0.000001 0.000000 5.000000 3.053195 1.558589 -0.074929
 63 -0.000005 0.000005 3.713580 -0.311487 -2.845558 -0.582080
 64 0.000002 0.000000 -5.000000 -0.088728 1.558589 3.066333
 65 7.363603 1.646646 0.495663 -3.141593 -1.570796 0.000000
 66 -0.000005 0.000005 3.619081 -0.441735 -2.434423 -1.159240
 67 16.573921 -0.000000 0.000001 -0.000000 0.000000 -2.011748
 68 15.128181 -0.000000 -0.000000 0.026832 0.026147 -0.175154
 69 5.758666 4.244731 -0.000000 0.000000 -0.000000 2.033309
 70 3.177726 0.000001 0.000000 0.000000 0.000000 3.141593
 71 15.708952 0.000002 -0.000001 0.013957 0.013894 -0.093781
 72 0.275149 0.189215 -3.445207 3.130898 0.000409 -1.514604
 73 17.210192 -0.000001 0.000001 -0.000000 -0.000000 -2.319003
 74 0.000000 -0.000001 -5.000000 -0.079433 1.546568 -1.570857
 75 0.000007 -0.000004 -3.619079 0.260448 -2.945758 -1.468642
 76 16.573919 -0.000000 0.000001 0.000000 -0.000000 -1.562392
 77 15.128181 0.000000 0.000001 0.265624 -0.173430 0.666428
 78 5.758665 4.244731 0.000001 -0.000000 0.000000 1.483530
 79 4.003934 -0.000000 0.000000 0.000000 0.000000 0.000000
 80 15.708953 0.000000 0.000001 0.195074 -0.100553 0.460486
 81 0.273998 0.191090 3.439762 -3.130907 -0.000437 -1.508107
 82 17.210194 -0.000000 0.000000 -0.000000 -0.000000 -2.116793
 83 0.000001 0.000000 5.000000 -0.079311 1.595025 -1.570736
time 1
  0 0.500000 13.522099 26.931471 -0.243067 0.535714 -2.432935
  1 13.773750 5.584524 -22.520975 -0.544290 0.221328 2.303921
  2 -2.276936 0.000004 -1.238185 -1.570795 -1.570451 0.000000
  3 1.797779 0.711912 -0.000599 0.183258 0.038787 0.205680
  4 4.119106 -0.003074 -0.001026 0.320106 -0.102240 0.128106
  5 4.119092 -0.003075 -0.001030 0.323088 -0.150469 0.107574
  6 4.119112 -0.003087 -0.000984 0.333309 -0.411650 0.025756
  7 4.117836 -0.003454 -0.000048 0.013648 -0.128676 -0.220477
  8 4.443599 0.000000 0.000001 0.895472 -0.099000 0.150353
  9 9.024060 0.000000 -0.000000 0.000000 0.000000 0.000000
 10 0.222348 0.026987 1.718236 -0.425680 -1.007508 -2.584993
 11 6.384776 0.000000 0.000001 -0.785421 -0.014084 -1.334558
 12 10.242683 0.000002 -0.000001 -0.000000 -0.000000 -1.427217
 13 11.375562 -0.000001 0.000002 -2.256091 -0.631316 0.659419
 14 0.728680 0.023431 -1.008291 1.051563 0.167831 0.364467
 15 2.136498 -0.000001 -0.000000 -0.000000 0.000000 -0.078540
 16 2.313140 -0.000002 -0.000001 0.000000 0.000000 0.000000
 17 3.115506 -0.886041 -0.021433 -0.620285 0.000392 0.514872
 18 2.011150 -0.000001 0.000002 -0.000000 -0.000000 1.322792
 19 2.141380 -0.000000 0.000001 0.000000 0.000000 0.000000
 20 1.734172 0.000000 0.000002 -0.000000 0.000000 0.660693
 21 0.000005 -4.440594 0.000002 1.570544 -0.062990 -0.195737
 22 6.000000 -0.000001 0.000002 -2.033132 -0.000000 0.000000
 23 0.000002 -4.440603 -0.000001 1.569944 -0.062987 0.004053
 24 11.375561 0.000000 0.000004 -1.835835 -0.359764 0.256465
 25 -0.000000 -4.440603 0.000000 1.570144 -0.062988 0.004040
 26 10.510130 0.000002 -0.000000 -0.000000 -0.000000 -2.284405
 27 -0.000001 -1.748400 4.999999 -0.000000 0.004007 1.602291
 28 5.499999 0.000001 0.000001 0.299274 -0.000000 -0.000000
 29 -0.000001 -1.940598 4.999999 -0.044472 0.004003 -0.000180
 30 6.551491 0.000001 0.000002 -0.564881 0.089464 -0.835500
 31 0.000001 -1.940598 5.000001 -0.027189 -0.053376 0.005295
 32 6.551491 0.000001 0.000002 -0.241832 0.097645 -0.364498
 33 -0.000000 -1.940598 4.999997 -0.066572 -0.152786 -0.110311
 34 -0.222344 -0.019909 -1.718235 1.823122 1.362406 -1.066944
 35 6.384776 0.000001 0.000000 0.127389 0.432564 -1.728773
 36 10.242682 0.000001 0.000003 -0.000000 -0.000000 -1.580331
 37 11.375564 -0.000000 -0.000002 2.504702 0.164286 0.523848
 38 0.728682 0.023431 1.008291 -1.579583 -0.319038 0.212973
 39 2.136495 -0.000001 0.000001 -0.000000 0.000000 1.282817
 40 2.313138 -0.000003 -0.000000 0.000000 0.000000 3.141593
 41 3.115507 -0.886042 0.021432 0.420766 0.316066 0.167178
 42 2.011151 -0.000000 -0.000002 -0.000000 -0.000000 2.082010
 43 2.141380 -0.000000 0.000003 0.000000 0.000000 3.141593
 44 1.734172 -0.000001 -0.000002 -0.000000 -0.000000 1.041748
 45 0.136314 -3.738192 2.525892 1.493698 2.759406 -1.474501
 46 2.209801 -0.209226 0.899084 1.570711 0.171029 -0.002271
 47 11.389366 -0.000820 0.158780 2.025711 0.151071 0.256339
 48 -0.000000 -4.440599 -0.000001 1.570144 -3.078602 0.004040
 49 5.999999 0.000001 -0.000000 2.025711 -0.000000 0.000000
 50 0.000001 -4.440601 -0.000001 1.569944 -3.078603 0.004053
 51 10.510131 0.000001 0.000002 -0.000000 0.000000 -2.360962
 52 -0.000000 -1.748400 -5.000001 -3.141593 0.004007 -1.539299
 53 5.500000 0.000001 0.000003 -0.130722 -0.000000 0.000000
 54 -0.000001 0.000000 -5.000002 -0.044472 3.137589 -0.000177
 55 6.551490 0.000001 0.000001 0.130722 0.097448 -0.506804
 56 -1.266844 -1.937442 -4.950562 -0.066572 -2.988806 -0.110308
 57 6.551491 0.000001 0.000001 0.130722 0.097448 -0.506804
 58 0.699370 -1.944208 -5.006846 -0.027189 -3.088217 0.005298
 59 4.226147 -0.003202 -0.000000 0.004042 -0.068618 -0.125651
 60 -0.000000 5.000000 -0.000000 -0.153564 0.000087 2.718702
 61 0.000006 -0.000006 -3.713579 0.119535 -2.936655 -0.885276
 62 0.000001 0.000000 5.000000 3.053195 1.558589 -0.074929
 63 -0.000005 0.000005 3.713580 -0.311487 -2.845558 -0.582080
 64 0.000002 0.000000 -5.000000 -0.088728 1.558589 3.066333
 65 7.363603 1.646646 0.495663 -3.141593 -1.570796 0.000000
 66 -0.000005 0.000005 3.619081 -0.441735 -2.434423 -1.159240
 67 16.573921 -0.000000 0.000001 -0.000000 0.000000 -2.011748
 68 15.128181 -0.000000 -0.000000 0.026832 0.026147 -0.175154
 69 5.758666 4.244731 -0.000000 0.000000 -0.000000 2.033309
 70 3.177726 0.000001 0.000000 0.000000 0.000000 3.141593
 71 15.708952 0.000002 -0.000001 0.013957 0.013894 -0.093781
 72 0.275149 0.189215 -3.445207 3.130898 0.000409 -1.514604
 73 17.210192 -0.000001 0.000001 -0.000000 -0.000000 -2.319003
 74 0.000000 -0.000001 -5.000000 -0.079433 1.546568 -1.570857
 75 0.000007 -0.000004 -3.619079 0.260448 -2.945758 -1.468642
 76 16.573919 -0.000000 0.000001 0.000000 -0.000000 -1.562392
 77 15.128181 0.000000 0.000001 0.265624 -0.173430 0.666428
 78 5.758665 4.244731 0.000001 -0.000000 0.000000 1.483530
 79 4.003934 -0.000000 0.000000 0.000000 0.000000 0.000000
 80 15.708953 0.000000 0.000001 0.195074 -0.100553 0.460486
 81 0.273998 0.191090 3.439762 -3.130907 -0.000437 -1.508107
 82 17.210194 -0.000000 0.000000 -0.000000 -0.000000 -2.116793
 83 0.000001 0.000000 5.000000 -0.079311 1.595025 -1.570736
time 2
  0 0.500000 13.522099 26.931471 -0.243067 0.535714 -2.432935
  1 13.773750 5.584524 -22.520975 -0.544290 0.221328 2.303921
  2 -2.276936 0.000004 -1.238185 -1.570795 -1.570451 0.000000
  3 1.797779 0.711912 -0.000599 0.183258 0.038787 0.205680
  4 4.119106 -0.003074 -0.001026 0.320106 -0.102240 0.128106
  5 4.119092 -0.003075 -0.001030 0.323088 -0.150469 0.107574
  6 4.119196 -0.003076 -0.000970 0.333726 -0.447257 0.042049
  7 4.118016 -0.003490 -0.000022 0.006537 -0.124996 -0.167658
  8 4.443599 -0.000001 0.000000 0.885887 -0.104043 0.039408
  9 9.024061 0.000000 0.000000 0.000000 0.000000 0.000000
 10 0.216020 0.014773 1.719165 -0.422405 -1.003660 -2.640114
 11 6.384777 -0.000000 0.000002 -0.781946 -0.084673 -1.381488
 12 10.242682 0.000001 -0.000000 -0.000000 0.000000 -1.335515
 13 11.375561 -0.000001 -0.000000 -2.267294 -0.616026 0.629902
 14 0.728680 0.023431 -1.008292 1.051563 0.167831 0.364467
 15 2.136497 -0.000001 -0.000001 0.000000 -0.000000 -0.078540
 16 2.313140 0.000001 0.000000 0.000000 0.000000 0.000000
 17 3.115506 -0.886041 -0.021432 -0.620285 0.000392 0.514872
 18 2.011150 0.000001 -0.000001 -0.000000 -0.000000 1.322792
 19 2.141380 -0.000001 -0.000002 0.000000 0.000000 0.000000
 20 1.734173 0.000001 -0.000001 0.000000 0.000000 0.660693
 21 0.000004 -4.440594 0.000002 1.570544 -0.062990 -0.195737
 22 5.999999 -0.000000 -0.000001 -2.046970 -0.000000 -0.000000
 23 0.000001 -4.440601 -0.000001 1.569944 -0.062987 0.004053
 24 11.375561 0.000000 0.000001 -1.847042 -0.352394 0.244249
 25 -0.000002 -4.440603 0.000001 1.570144 -0.062988 0.004040
 26 10.510130 0.000001 -0.000001 -0.000000 -0.000000 -2.238554
 27 -0.000001 -1.748400 4.999998 0.000000 0.004007 1.602291
 28 5.500000 0.000001 -0.000001 0.316058 0.000000 -0.000000
 29 -0.000003 -1.940599 5.000003 -0.044472 0.004003 -0.000180
 30 6.551492 -0.000002 -0.000000 -0.593997 0.037491 -0.889925
 31 -0.000000 -1.940599 5.000004 -0.027189 -0.053376 0.005295
 32 6.551491 -0.000001 -0.000000 -0.254619 0.080845 -0.384117
 33 0.000000 -1.940598 4.999997 -0.066572 -0.152786 -0.110311
 34 -0.216018 -0.007697 -1.719165 1.841995 1.360816 -1.100839
 35 6.384776 -0.000002 0.000002 0.147173 0.461049 -1.739810
 36 10.242682 -0.000000 -0.000001 0.000000 -0.000000 -1.532978
 37 11.375560 0.000000 0.000000 2.501272 0.150448 0.501238
 38 0.728681 0.023431 1.008293 -1.579583 -0.319038 0.212973
 39 2.136495 0.000002 0.000000 -0.000000 -0.000000 1.282817
 40 2.313138 -0.000001 0.000001 0.000000 0.000000 3.141593
 41 3.115507 -0.886041 0.021433 0.420766 0.316066 0.167178
 42 2.011150 0.000001 0.000004 0.000000 0.000000 2.082010
 43 2.141379 0.000000 -0.000001 0.000000 0.000000 3.141593
 44 1.734173 -0.000001 0.000001 0.000000 0.000000 1.041748
 45 0.136315 -3.738193 2.525892 1.493698 2.759406 -1.474501
 46 2.209801 -0.209226 0.899085 1.570711 0.171029 -0.002271
 47 11.389367 -0.000820 0.158779 2.025734 0.141860 0.247840
 48 0.000000 -4.440599 0.000000 1.570144 -3.078602 0.004040
 49 6.000000 -0.000001 -0.000003 2.025734 0.000000 -0.000000
 50 0.000003 -4.440602 0.000001 1.569944 -3.078603 0.004053
 51 10.510132 -0.000000 0.000003 0.000000 0.000000 -2.337285
 52 0.000000 -1.748400 -5.000003 -3.141593 0.004007 -1.539299
 53 5.500000 -0.000001 0.000000 -0.141217 -0.000000 0.000000
 54 0.000001 -0.000000 -5.000001 -0.044472 3.137589 -0.000177
 55 6.551490 -0.000002 0.000002 0.141217 0.100428 -0.504229
 56 -1.266845 -1.937441 -4.950562 -0.066572 -2.988806 -0.110308
 57 6.551490 -0.000002 0.000002 0.141217 0.100428 -0.504229
 58 0.699369 -1.944206 -5.006848 -0.027189 -3.088217 0.005298
 59 4.226146 -0.003201 0.000000 0.001233 -0.066774 -0.096567
 60 -0.000001 5.000002 -0.000000 -0.153565 0.000087 2.718702
 61 0.000006 -0.000006 -3.713579 0.119535 -2.936655 -0.885276
 62 0.000001 0.000000 5.000000 3.053195 1.558589 -0.074929
 63 -0.000005 0.000005 3.713580 -0.311487 -2.845558 -0.582080
 64 0.000002 0.000000 -5.000000 -0.088728 1.558589 3.066333
 65 7.363603 1.646646 0.495663 -3.141593 -1.570796 0.000000
 66 -0.000005 0.000005 3.619081 -0.441735 -2.434423 -1.159240
 67 16.573921 -0.000000 0.000001 -0.000000 0.000000 -2.011748
 68 15.128181 -0.000000 -0.000000 0.026832 0.026147 -0.175154
 69 5.758666 4.244731 -0.000000 0.000000 -0.000000 2.033309
 70 3.177726 0.000001 0.000000 0.000000 0.000000 3.141593
 71 15.708952 0.000002 -0.000001 0.013957 0.013894 -0.093781
 72 0.275149 0.189215 -3.445207 3.130898 0.000409 -1.514604
 73 17.210192 -0.000001 0.000001 -0.000000 -0.000000 -2.319003
 74 0.000000 -0.000001 -5.000000 -0.079433 1.546568 -1.570857
 75 0.000007 -0.000004 -3.619079 0.260448 -2.945758 -1.468642
 76 16.573919 -0.000000 0.000001 0.000000 -0.000000 -1.562392
 77 15.128181 0.000000 0.000001 0.265624 -0.173430 0.666428
 78 5.758665 4.244731 0.000001 -0.000000 0.000000 1.483530
 79 4.003934 -0.000000 0.000000 0.000000 0.000000 0.000000
 80 15.708953 0.000000 0.000001 0.195074 -0.100553 0.460486
 81 0.273998 0.191090 3.439762 -3.130907 -0.000437 -1.508107
 82 17.210194 -0.000000 0.000000 -0.000000 -0.000000 -2.116793
 83 0.000001 0.000000 5.000000 -0.079311 1.595025 -1.570736
time 3
  0 0.500000 13.522099 26.931471 -0.243067 0.535714 -2.432935
  1 13.773750 5.584524 -22.520975 -0.544290 0.221328 2.303921
  2 -2.276936 0.000004 -1.238185 -1.570795 -1.570451 0.000000
  3 1.797779 0.711912 -0.000599 0.183258 0.038787 0.205680
  4 4.119106 -0.003074 -0.001026 0.320106 -0.102240 0.128106
  5 4.119092 -0.003075 -0.001030 0.323088 -0.150469 0.107574
  6 4.119283 -0.003067 -0.000951 0.333496 -0.482866 0.058618
  7 4.118196 -0.003514 0.000001 -0.000373 -0.120943 -0.114890
  8 4.443599 -0.000001 0.000001 0.875425 -0.110225 -0.071132
  9 9.024061 -0.000000 0.000001 0.000000 0.000000 0.000000
 10 0.209053 0.002891 1.720065 -0.419555 -0.999712 -2.694871
 11 6.384776 -0.000001 -0.000001 -0.773620 -0.155757 -1.432018
 12 10.242682 -0.000001 0.000001 -0.000000 -0.000000 -1.237862
 13 11.375562 0.000000 -0.000001 -2.277906 -0.601752 0.596668
 14 0.728679 0.023431 -1.008292 1.051563 0.167831 0.364467
 15 2.136496 0.000000 0.000001 -0.000000 0.000000 -0.078540
 16 2.313139 -0.000001 0.000000 0.000000 0.000000 0.000000
 17 3.115506 -0.886041 -0.021431 -0.620285 0.000392 0.514872
 18 2.011151 0.000001 -0.000001 -0.000000 -0.000000 1.322792
 19 2.141379 0.000001 0.000001 0.000000 0.000000 0.000000
 20 1.734172 0.000000 0.000002 -0.000000 0.000000 0.660693
 21 0.000007 -4.440593 -0.000001 1.570544 -0.062990 -0.195737
 22 5.999999 0.000000 -0.000001 -2.060323 -0.000000 -0.000000
 23 0.000002 -4.440601 -0.000001 1.569944 -0.062987 0.004053
 24 11.375561 -0.000001 0.000004 -1.857980 -0.345334 0.230084
 25 -0.000001 -4.440604 -0.000002 1.570144 -0.062988 0.004040
 26 10.510130 -0.000001 0.000001 -0.000000 -0.000000 -2.189727
 27 0.000000 -1.748401 5.000000 -0.000000 0.004007 1.602291
 28 5.500000 -0.000001 0.000000 0.329831 -0.000000 -0.000000
 29 -0.000002 -1.940599 5.000001 -0.044472 0.004003 -0.000180
 30 6.551491 -0.000000 -0.000001 -0.618286 -0.022375 -0.957011
 31 0.000001 -1.940598 5.000001 -0.027189 -0.053376 0.005295
 32 6.551491 -0.000000 -0.000001 -0.264434 0.062101 -0.406101
 33 -0.000000 -1.940598 4.999997 -0.066572 -0.152786 -0.110311
 34 -0.209049 0.004184 -1.720063 1.861018 1.359364 -1.134592
 35 6.384776 -0.000001 -0.000000 0.166060 0.490488 -1.750259
 36 10.242682 0.000001 -0.000001 -0.000000 0.000000 -1.485625
 37 11.375563 0.000000 -0.000000 2.498166 0.136537 0.478721
 38 0.728681 0.023431 1.008293 -1.579583 -0.319038 0.212973
 39 2.136498 -0.000000 -0.000000 0.000000 0.000000 1.282817
 40 2.313140 0.000001 -0.000000 0.000000 0.000000 3.141593
 41 3.115506 -0.886041 0.021432 0.420766 0.316066 0.167178
 42 2.011151 -0.000000 -0.000001 -0.000000 0.000000 2.082010
 43 2.141379 0.000000 -0.000001 0.000000 0.000000 3.141593
 44 1.734173 -0.000001 0.000001 0.000000 -0.000000 1.041748
 45 0.136316 -3.738193 2.525893 1.493698 2.759406 -1.474501
 46 2.209801 -0.209226 0.899085 1.570711 0.171029 -0.002271
 47 11.389367 -0.000819 0.158781 2.025776 0.132536 0.239244
 48 -0.000000 -4.440601 0.000002 1.570144 -3.078602 0.004040
 49 6.000000 -0.000001 -0.000002 2.025776 -0.000000 -0.000000
 50 0.000002 -4.440601 -0.000000 1.569944 -3.078602 0.004053
 51 10.510132 0.000001 0.000001 -0.000000 -0.000000 -2.313609
 52 0.000002 -1.748400 -5.000004 -3.141593 0.004007 -1.539299
 53 5.500000 0.000000 -0.000003 -0.150976 0.000000 -0.000000
 54 -0.000001 -0.000000 -5.000002 -0.044472 3.137589 -0.000177
 55 6.551490 0.000000 -0.000001 0.150976 0.103764 -0.501154
 56 -1.266844 -1.937442 -4.950560 -0.066572 -2.988806 -0.110308
 57 6.551491 0.000000 -0.000001 0.150976 0.103764 -0.501154
 58 0.699370 -1.944207 -5.006846 -0.027189 -3.088217 0.005298
 59 4.226145 -0.003201 0.000001 -0.001551 -0.064739 -0.066775
 60 -0.000002 5.000001 -0.000000 -0.153564 0.000087 2.718702
 61 0.000006 -0.000006 -3.713579 0.119535 -2.936655 -0.885276
 62 0.000001 0.000000 5.000000 3.053195 1.558589 -0.074929
 63 -0.000005 0.000005 3.713580 -0.311487 -2.845558 -0.582080
 64 0.000002 0.000000 -5.000000 -0.088728 1.558589 3.066333
 65 7.363603 1.646646 0.495663 -3.141593 -1.570796 0.000000
 66 -0.000005 0.000005 3.619081 -0.441735 -2.434423 -1.159240
 67 16.573921 -0.000000 0.000001 -0.000000 0.000000 -2.011748
 68 15.128181 -0.000000 -0.000000 0.026832 0.026147 -0.175154
 69 5.758666 4.244731 -0.000000 0.000000 -0.000000 2.033309
 70 3.177726 0.000001 0.000000 0.000000 0.000000 3.141593
 71 15.708952 0.000002 -0.000001 0.013957 0.013894 -0.093781
 72 0.275149 0.189215 -3.445207 3.130898 0.000409 -1.514604
 73 17.210192 -0.000001 0.000001 -0.000000 -0.000000 -2.319003
 74 0.000000 -0.000001 -5.000000 -0.079433 1.546568 -1.570857
 75 0.000007 -0.000004 -3.619079 0.260448 -2.945758 -1.468642
 76 16.573919 -0.000000 0.000001 0.000000 -0.000000 -1.562392
 77 15.128181 0.000000 0.000001 0.265624 -0.173430 0.666428
 78 5.758665 4.244731 0.000001 -0.000000 0.000000 1.483530
 79 4.003934 -0.000000 0.000000 0.000000 0.000000 0.000000
 80 15.708953 0.000000 0.000001 0.195074 -0.100553 0.460486
 81 0.273998 0.191090 3.439762 -3.130907 -0.000437 -1.508107
 82 17.210194 -0.000000 0.000000 -0.000000 -0.000000 -2.116793
 83 0.000001 0.000000 5.000000 -0.079311 1.595025 -1.570736
time 4
  0 0.500000 13.522099 26.931471 -0.243067 0.535714 -2.432935
  1 13.773750 5.584524 -22.520975 -0.544290 0.221328 2.303921
  2 -2.276936 0.000004 -1.238185 -1.570795 -1.570451 0.000000
  3 1.797779 0.711912 -0.000599 0.183258 0.038787 0.205680
  4 4.119106 -0.003074 -0.001026 0.320106 -0.102240 0.128106
  5 4.119092 -0.003075 -0.001030 0.323088 -0.150469 0.107574
  6 4.119365 -0.003050 -0.000931 0.332582 -0.518466 0.075523
  7 4.118381 -0.003534 0.000026 -0.007062 -0.116529 -0.062178
  8 4.443597 0.000001 0.000001 0.864169 -0.117588 -0.181213
  9 9.024060 -0.000001 0.000001 0.000000 0.000000 0.000000
 10 0.201456 -0.008619 1.720927 -0.417133 -0.995679 -2.749263
 11 6.384777 0.000001 0.000001 -0.759824 -0.227583 -1.487362
 12 10.242682 0.000001 -0.000001 0.000000 0.000000 -1.132908
 13 11.375561 -0.000003 -0.000000 -2.288013 -0.588390 0.559193
 14 0.728680 0.023431 -1.008293 1.051563 0.167831 0.364467
 15 2.136496 0.000001 0.000001 -0.000000 0.000000 -0.078540
 16 2.313139 0.000000 -0.000000 0.000000 0.000000 0.000000
 17 3.115506 -0.886041 -0.021432 -0.620285 0.000392 0.514872
 18 2.011151 0.000000 -0.000002 -0.000000 -0.000000 1.322792
 19 2.141380 0.000001 0.000003 0.000000 0.000000 0.000000
 20 1.734172 0.000001 -0.000002 0.000000 -0.000000 0.660693
 21 0.000006 -4.440593 -0.000001 1.570544 -0.062990 -0.195737
 22 5.999999 0.000001 -0.000002 -2.073252 -0.000000 -0.000000
 23 0.000001 -4.440600 -0.000001 1.569944 -0.062987 0.004053
 24 11.375561 -0.000001 0.000001 -1.868710 -0.338519 0.213696
 25 -0.000001 -4.440603 -0.000002 1.570144 -0.062988 0.004040
 26 10.510131 0.000001 -0.000002 -0.000000 -0.000000 -2.137250
 27 0.000000 -1.748402 5.000001 -0.000000 0.004007 1.602290
 28 5.500000 -0.000000 -0.000000 0.338295 -0.000000 0.000000
 29 -0.000002 -1.940598 5.000000 -0.044472 0.004003 -0.000180
 30 6.551491 -0.000000 -0.000001 -0.633263 -0.090409 -1.038741
 31 -0.000000 -1.940599 5.000004 -0.027189 -0.053376 0.005295
 32 6.551491 -0.000000 -0.000001 -0.269324 0.041389 -0.429377
 33 0.000000 -1.940599 4.999995 -0.066572 -0.152786 -0.110311
 34 -0.201455 0.015697 -1.720927 1.880178 1.358051 -1.168219
 35 6.384777 -0.000001 0.000001 0.184050 0.520831 -1.760118
 36 10.242682 -0.000000 0.000001 -0.000000 0.000000 -1.438272
 37 11.375563 -0.000001 0.000000 2.495382 0.122561 0.456289
 38 0.728681 0.023431 1.008294 -1.579583 -0.319038 0.212973
 39 2.136498 0.000001 -0.000001 -0.000000 -0.000000 1.282817
 40 2.313140 0.000001 0.000000 0.000000 0.000000 3.141593
 41 3.115506 -0.886040 0.021433 0.420765 0.316066 0.167178
 42 2.011151 -0.000000 0.000001 0.000000 -0.000000 2.082010
 43 2.141380 0.000000 0.000002 0.000000 0.000000 3.141593
 44 1.734173 -0.000001 -0.000000 -0.000000 -0.000000 1.041748
 45 0.136315 -3.738192 2.525892 1.493698 2.759406 -1.474501
 46 2.209801 -0.209225 0.899085 1.570711 0.171029 -0.002271
 47 11.389366 -0.000819 0.158783 2.025840 0.123092 0.230540
 48 -0.000000 -4.440598 -0.000000 1.570144 -3.078602 0.004040
 49 6.000001 -0.000001 -0.000001 2.025840 0.000000 0.000000
 50 0.000003 -4.440601 -0.000000 1.569944 -3.078603 0.004053
 51 10.510131 -0.000000 0.000003 0.000000 0.000000 -2.289932
 52 -0.000001 -1.748399 -5.000001 -3.141593 0.004007 -1.539299
 53 5.499999 -0.000001 0.000001 -0.160097 0.000000 -0.000000
 54 -0.000001 -0.000000 -4.999999 -0.044472 3.137590 -0.000177
 55 6.551490 -0.000001 0.000001 0.160097 0.107385 -0.497655
 56 -1.266844 -1.937443 -4.950560 -0.066572 -2.988806 -0.110308
 57 6.551491 -0.000001 0.000001 0.160097 0.107385 -0.497655
 58 0.699370 -1.944208 -5.006845 -0.027189 -3.088217 0.005298
 59 4.226145 -0.003203 0.000001 -0.004293 -0.062501 -0.036448
 60 -0.000000 5.000000 -0.000001 -0.153564 0.000087 2.718702
 61 0.000006 -0.000006 -3.713579 0.119535 -2.936655 -0.885276
 62 0.000001 0.000000 5.000000 3.053195 1.558589 -0.074929
 63 -0.000005 0.000005 3.713580 -0.311487 -2.845558 -0.582080
 64 0.000002 0.000000 -5.000000 -0.088728 1.558589 3.066333
 65 7.363603 1.646646 0.495663 -3.141593 -1.570796 0.000000
 66 -0.000005 0.000005 3.619081 -0.441735 -2.434423 -1.159240
 67 16.573921 -0.000000 0.000001 -0.000000 0.000000 -2.011748
 68 15.128181 -0.000000 -0.000000 0.026832 0.026147 -0.175154
 69 5.758666 4.244731 -0.000000 0.000000 -0.000000 2.033309
 70 3.177726 0.000001 0.000000 0.000000 0.000000 3.141593
 71 15.708952 0.000002 -0.000001 0.013957 0.013894 -0.093781
 72 0.275149 0.189215 -3.445207 3.130898 0.000409 -1.514604
 73 17.210192 -0.000001 0.000001 -0.000000 -0.000000 -2.319003
 74 0.000000 -0.000001 -5.000000 -0.079433 1.546568 -1.570857
 75 0.000007 -0.000004 -3.619079 0.260448 -2.945758 -1.468642
 76 16.573919 -0.000000 0.000001 0.000000 -0.000000 -1.562392
 77 15.128181 0.000000 0.000001 0.265624 -0.173430 0.666428
 78 5.758665 4.244731 0.000001 -0.000000 0.000000 1.483530
 79 4.003934 -0.000000 0.000000 0.000000 0.000000 0.000000
 80 15.708953 0.000000 0.000001 0.195074 -0.100553 0.460486
 81 0.273998 0.191090 3.439762 -3.130907 -0.000437 -1.508107
 82 17.210194 -0.000000 0.000000 -0.000000 -0.000000 -2.116793
 83 0.000001 0.000000 5.000000 -0.079311 1.595025 -1.570736
end
