version 1
nodes
  0 "Bip01"  -1
  1 "Bip01 Footsteps"   0
  2 "Bip01 Pelvis"   0
  3 "Bip01 Spine"   2
  4 "Bip01 Spine1"   3
  5 "Bip01 Spine2"   4
  6 "Bip01 Spine3"   5
  7 "Bip01 Neck"   6
  8 "Bip01 Head"   7
  9 "Dummy21"   8
 10 "Bip01 L Clavicle"   7
 11 "Bip01 L UpperArm"  10
 12 "Bip01 L Forearm"  11
 13 "Bip01 L Hand"  12
 14 "Bip01 L Finger0"  13
 15 "Bip01 L Finger01"  14
 16 "Dummy06"  15
 17 "Bip01 L Finger1"  13
 18 "Bip01 L Finger11"  17
 19 "Dummy03"  18
 20 "-- L knuckle"  17
 21 "-- L knuckle_end"  20
 22 "-- L Forearm twist"  12
 23 "-- L Forearm twist_end"  22
 24 "-- L wrist"  12
 25 "-- L wrist_end"  24
 26 "-- L Elbow"  11
 27 "--L Elbow_end"  26
 28 "-- L bicep twist"  11
 29 "-- L bicep twist_end"  28
 30 "-- L shoulder outside"  10
 31 "-- L shoulder outside_end"  30
 32 "-- L Shoulder inside"  10
 33 "-- L Shoulder inside_end"  32
 34 "Bip01 R Clavicle"   7
 35 "Bip01 R UpperArm"  34
 36 "Bip01 R Forearm"  35
 37 "Bip01 R Hand"  36
 38 "Bip01 R Finger0"  37
 39 "Bip01 R Finger01"  38
 40 "Dummy01"  39
 41 "Bip01 R Finger1"  37
 42 "Bip01 R Finger11"  41
 43 "Dummy02"  42
 44 "-- R knuckle"  41
 45 "Point06"  44
 46 "Steyr Aug"  37
 47 "-- R wrist"  36
 48 "-- R wrist_end"  47
 49 "-- R forearm twist"  36
 50 "-- R forearm twist_end"  49
 51 "-- R Elbow"  35
 52 "--R Elbow_end"  51
 53 "-- R bicep twist"  35
 54 "-- R bicep twist_end"  53
 55 "-- R Shoulder inside"  34
 56 "-- R Shoulder inside_end"  55
 57 "-- R shoulder outside"  34
 58 "-- R shoulder outside_end"  57
 59 "-- Neck smooth"   6
 60 "-- neck smooth end"  59
 61 "Bip01 L Thigh"   3
 62 "Bip01 L Calf"  61
 63 "Bip01 L Foot"  62
 64 "Bip01 L Toe0"  63
 65 "Dummy16"  64
 66 "-- L ankle"  62
 67 "-- L ankleend"  66
 68 "-- L Knee"  61
 69 "--L Knee_end"  68
 70 "Bip01 R Thigh"   3
 71 "Bip01 R Calf"  70
 72 "Bip01 R Foot"  71
 73 "Bip01 R Toe0"  72
 74 "Dummy11"  73
 75 "-- R Ankle"  71
 76 "-- R ankleend"  75
 77 "-- R Knee"  70
 78 "--R Knee_end"  77
 79 "-- R Butt"   2
 80 "--R Butt_end"  79
 81 "-- L butt"   2
 82 "--L butt_end"  81
 83 "GIGN01"   2
end
skeleton
time 0
  0 0.500000 13.522099 26.931471 -0.243067 0.535714 -2.432935
  1 13.773751 5.584523 -22.520975 -0.544290 0.221328 2.303921
  2 -2.276934 0.000003 -1.238185 -1.570795 -1.570451 0.000000
  3 1.797529 0.711852 -0.000469 0.150225 -0.311161 0.072413
  4 4.120014 -0.002925 -0.000460 0.140669 -0.039418 0.444217
  5 4.119108 -0.003206 -0.000497 0.151951 0.012193 0.157695
  6 4.117477 -0.003019 -0.000602 0.190378 -0.245726 -0.403379
  7 4.118098 -0.003498 -0.000081 0.023799 -0.258550 -0.148784
  8 4.443600 -0.000001 0.000000 1.044043 -0.590653 0.103286
  9 9.024061 -0.000000 0.000001 0.000000 0.000000 0.000000
 10 0.443025 0.043395 1.674653 0.715470 -1.320921 2.632114
 11 6.384778 -0.000000 0.000000 -0.509264 0.431828 -0.206956
 12 10.242681 0.000001 0.000000 0.000000 0.000000 -1.990401
 13 11.375561 0.000001 -0.000002 -2.615060 -0.549712 0.333264
 14 0.728680 0.023431 -1.008293 1.051563 0.167831 0.364467
 15 2.136496 0.000000 0.000001 -0.000000 -0.000000 -0.078540
 16 2.313139 -0.000000 -0.000000 0.000000 0.000000 0.000000
 17 3.115506 -0.886042 -0.021431 -0.620285 0.000392 0.514872
 18 2.011151 -0.000000 0.000001 -0.000000 0.000000 1.322792
 19 2.141381 0.000001 0.000001 0.000000 0.000000 0.000000
 20 1.734172 0.000001 0.000001 0.000000 -0.000000 0.660693
 21 0.000004 -4.440593 0.000002 1.570544 -0.062990 -0.195737
 22 6.000000 -0.000001 -0.000001 -2.346123 -0.000000 0.000000
 23 0.000000 -4.440602 -0.000000 1.569944 -0.062987 0.004053
 24 11.375561 0.000000 0.000001 -2.047887 -0.329992 0.083262
 25 -0.000001 -4.440603 0.000000 1.570144 -0.062988 0.004040
 26 10.510131 0.000000 -0.000001 0.000000 0.000000 -2.565997
 27 -0.000000 -1.748401 4.999999 -0.000000 0.004007 1.602291
 28 5.500000 0.000000 0.000000 0.216808 -0.000000 0.000000
 29 -0.000002 -1.940598 5.000000 -0.044472 0.004003 -0.000180
 30 6.551492 0.000001 0.000000 -0.393820 0.373783 -0.177157
 31 0.000001 -1.940597 5.000002 -0.027189 -0.053376 0.005295
 32 6.551492 0.000001 0.000000 -0.180553 0.191252 -0.066241
 33 0.000001 -1.940600 4.999997 -0.066572 -0.152786 -0.110311
 34 -0.443017 -0.036321 -1.674654 -3.085690 0.982219 0.185083
 35 6.384776 -0.000001 -0.000001 0.247711 0.258013 -1.291939
 36 10.242682 0.000000 0.000002 -0.000000 0.000000 -1.842481
 37 11.375563 0.000001 0.000000 2.644286 0.185745 0.615220
 38 0.728682 0.023431 1.008293 -1.579583 -0.319038 0.212973
 39 2.136497 -0.000000 -0.000001 -0.000000 -0.000000 1.282817
 40 2.313139 0.000000 0.000001 0.000000 0.000000 3.141593
 41 3.115506 -0.886041 0.021433 0.420765 0.316066 0.167178
 42 2.011149 -0.000000 0.000000 -0.000000 0.000000 2.082010
 43 2.141379 -0.000001 0.000000 0.000000 0.000000 3.141593
 44 1.734171 -0.000001 0.000000 0.000000 -0.000000 1.041748
 45 0.136315 -3.738192 2.525890 1.493698 2.759406 -1.474501
 46 2.209801 -0.209226 0.899086 1.570711 0.171029 -0.002271
 47 11.389366 -0.000820 0.158781 2.090171 0.182101 0.290467
 48 0.000000 -4.440599 0.000001 1.570144 -3.078602 0.004040
 49 6.000000 -0.000000 0.000000 2.090171 0.000000 -0.000000
 50 0.000002 -4.440601 -0.000000 1.569944 -3.078603 0.004053
 51 10.510134 -0.000000 0.000004 -0.000000 0.000000 -2.492037
 52 0.000001 -1.748402 -5.000003 -3.141593 0.004007 -1.539299
 53 5.500000 0.000000 0.000002 -0.136363 -0.000000 0.000000
 54 -0.000000 0.000000 -5.000000 -0.044472 3.137589 -0.000177
 55 6.551491 0.000000 -0.000000 0.136363 0.025663 -0.350400
 56 -1.266844 -1.937444 -4.950561 -0.066572 -2.988806 -0.110308
 57 6.551492 -0.000000 -0.000000 0.136363 0.025663 -0.350400
 58 0.699370 -1.944209 -5.006848 -0.027189 -3.088217 0.005298
 59 4.226147 -0.003202 0.000000 0.009408 -0.150939 -0.092441
 60 -0.000001 5.000002 -0.000000 -0.153564 0.000087 2.718701
 61 -0.647583 0.026802 4.052026 -0.017262 -2.521899 -1.519366
 62 16.573921 -0.000000 0.000001 -0.000000 0.000000 -2.011748
 63 15.128181 -0.000000 -0.000000 0.026832 0.026147 -0.175154
 64 5.758666 4.244731 -0.000000 0.000000 -0.000000 2.033309
 65 3.177726 0.000001 0.000000 0.000000 0.000000 3.141593
 66 15.708952 0.000002 -0.000001 0.013957 0.013894 -0.093781
 67 0.275149 0.189215 -3.445208 3.130898 0.000409 -1.514604
 68 17.210192 -0.000001 0.000001 -0.000000 -0.000000 -2.319003
 69 0.000000 -0.000001 -5.000000 -0.079433 1.546568 -1.570857
 70 -2.863636 -1.004455 -2.760946 -2.568741 -0.045265 1.538951
 71 16.573919 -0.000000 0.000001 0.000000 -0.000000 -1.562392
 72 15.128181 0.000000 0.000001 0.265624 -0.173430 0.666428
 73 5.758665 4.244731 0.000000 -0.000000 0.000000 1.483530
 74 4.003934 -0.000000 0.000000 0.000000 0.000000 0.000000
 75 15.708953 0.000000 0.000001 0.195074 -0.100553 0.460486
 76 0.273998 0.191090 3.439762 -3.130907 -0.000437 -1.508107
 77 17.210194 -0.000000 0.000000 -0.000000 -0.000000 -2.116793
 78 0.000001 0.000000 5.000000 -0.079311 1.595025 -1.570736
 79 0.000006 -0.000004 -3.713579 0.119535 -2.936655 -0.885276
 80 0.000003 0.000000 5.000000 3.053195 1.558589 -0.074929
 81 -0.000005 0.000006 3.713580 -0.311487 -2.845558 -0.582080
 82 0.000002 0.000000 -5.000000 -0.088728 1.558589 3.066333
 83 7.363603 1.646648 0.495664 -3.141593 -1.570796 0.000000
time 1
  0 0.500000 13.522099 26.931471 -0.243067 0.535714 -2.432935
  1 13.773751 5.584523 -22.520975 -0.544290 0.221328 2.303921
  2 -2.276934 0.000003 -1.238185 -1.570795 -1.570451 0.000000
  3 1.797543 0.711861 -0.000516 0.165890 -0.317602 0.071121
  4 4.120011 -0.002918 -0.000508 0.155984 -0.045872 0.443050
  5 4.119106 -0.003198 -0.000546 0.167206 0.005752 0.156456
  6 4.117491 -0.003013 -0.000650 0.206022 -0.252114 -0.404913
  7 4.118102 -0.003505 -0.000082 0.023799 -0.258550 -0.148784
  8 4.443599 -0.000001 0.000000 0.974177 -0.572288 0.162316
  9 9.024061 -0.000000 0.000001 0.000000 0.000000 0.000000
 10 0.443022 0.043396 1.674654 0.715470 -1.320921 2.632114
 11 6.384779 -0.000002 -0.000000 -0.489318 0.398065 -0.287816
 12 10.242682 -0.000001 0.000000 -0.000000 0.000000 -1.900681
 13 11.375562 -0.000001 -0.000001 -2.614360 -0.541817 0.290712
 14 0.728680 0.023431 -1.008293 1.051563 0.167831 0.364467
 15 2.136497 -0.000000 0.000001 -0.000000 -0.000000 -0.078540
 16 2.313139 0.000001 -0.000001 0.000000 0.000000 0.000000
 17 3.115507 -0.886041 -0.021432 -0.620285 0.000392 0.514872
 18 2.011151 0.000000 -0.000001 -0.000000 -0.000000 1.322792
 19 2.141380 0.000000 -0.000000 0.000000 0.000000 0.000000
 20 1.734173 0.000000 0.000000 -0.000000 0.000000 0.660693
 21 0.000005 -4.440594 0.000000 1.570544 -0.062990 -0.195737
 22 6.000000 -0.000000 -0.000001 -2.347507 0.000000 -0.000000
 23 0.000001 -4.440601 0.000000 1.569944 -0.062987 0.004053
 24 11.375562 0.000001 0.000002 -2.051203 -0.322357 0.064454
 25 -0.000001 -4.440604 -0.000000 1.570144 -0.062988 0.004040
 26 10.510131 -0.000001 -0.000001 -0.000000 -0.000000 -2.521137
 27 -0.000000 -1.748401 5.000000 -0.000000 0.004007 1.602291
 28 5.500000 -0.000001 -0.000000 0.203362 -0.000000 -0.000000
 29 -0.000002 -1.940598 5.000000 -0.044472 0.004003 -0.000180
 30 6.551492 0.000002 0.000001 -0.372769 0.323781 -0.271773
 31 0.000001 -1.940598 5.000002 -0.027189 -0.053376 0.005295
 32 6.551492 0.000002 0.000001 -0.168857 0.171069 -0.115959
 33 -0.000000 -1.940598 4.999997 -0.066572 -0.152786 -0.110311
 34 -0.443021 -0.036319 -1.674653 -3.085690 0.982219 0.185083
 35 6.384778 0.000003 -0.000001 0.237624 0.209494 -1.289350
 36 10.242682 0.000001 0.000001 0.000000 0.000000 -1.822006
 37 11.375561 0.000001 -0.000001 2.647616 0.195070 0.632817
 38 0.728680 0.023431 1.008294 -1.579583 -0.319038 0.212973
 39 2.136497 -0.000000 0.000000 -0.000000 0.000000 1.282817
 40 2.313140 -0.000000 0.000000 0.000000 0.000000 3.141593
 41 3.115507 -0.886040 0.021432 0.420766 0.316066 0.167178
 42 2.011151 0.000000 0.000000 -0.000000 -0.000000 2.082010
 43 2.141380 0.000001 0.000001 0.000000 0.000000 3.141593
 44 1.734173 -0.000001 0.000000 0.000000 0.000000 1.041748
 45 0.136315 -3.738191 2.525892 1.493698 2.759406 -1.474501
 46 2.209801 -0.209225 0.899086 1.570711 0.171029 -0.002271
 47 11.389367 -0.000819 0.158779 2.090188 0.188676 0.296637
 48 0.000000 -4.440599 0.000002 1.570144 -3.078602 0.004040
 49 6.000000 0.000001 -0.000001 2.090188 0.000000 0.000000
 50 0.000002 -4.440601 0.000001 1.569944 -3.078603 0.004053
 51 10.510131 0.000001 0.000002 0.000000 0.000000 -2.481799
 52 0.000001 -1.748401 -5.000002 3.141593 0.004007 -1.539299
 53 5.500001 0.000000 0.000001 -0.124817 0.000000 -0.000000
 54 -0.000001 0.000001 -5.000001 -0.044472 3.137589 -0.000177
 55 6.551491 -0.000001 0.000000 0.124817 0.013624 -0.348706
 56 -1.266844 -1.937443 -4.950560 -0.066572 -2.988806 -0.110308
 57 6.551491 -0.000001 0.000001 0.124817 0.013624 -0.348706
 58 0.699370 -1.944206 -5.006847 -0.027189 -3.088217 0.005298
 59 4.226146 -0.003203 -0.000000 0.009408 -0.150939 -0.092441
 60 0.000001 5.000000 -0.000000 -0.153564 0.000087 2.718702
 61 -0.621025 0.088558 4.055353 -3.064241 -0.601678 1.451245
 62 16.573921 -0.000001 0.000001 -0.000000 -0.000000 -2.016458
 63 15.128181 -0.000000 0.000001 0.021498 0.024223 -0.207406
 64 5.758665 4.244731 0.000001 0.000000 -0.000000 2.033309
 65 3.177726 0.000000 0.000000 0.000000 0.000000 3.141593
 66 15.708952 0.000001 0.000001 0.011327 0.012829 -0.110742
 67 0.275148 0.189215 -3.445208 3.130898 0.000409 -1.514604
 68 17.210194 -0.000002 0.000001 -0.000000 0.000000 -2.321123
 69 0.000000 0.000000 -5.000000 -0.079430 1.546568 -1.570856
 70 -2.881413 -1.046915 -2.726410 0.573646 3.139417 -1.568440
 71 16.573921 -0.000001 0.000001 -0.000000 -0.000000 -1.579014
 72 15.128181 0.000000 0.000002 0.231377 -0.134235 0.685060
 73 5.758665 4.244730 0.000000 -0.000000 -0.000000 1.483530
 74 4.003934 0.000000 0.000000 0.000000 0.000000 0.000000
 75 15.708952 0.000000 0.000001 0.169631 -0.074795 0.471460
 76 0.273998 0.191089 3.439763 -3.130907 -0.000437 -1.508107
 77 17.210194 -0.000001 0.000001 -0.000000 0.000000 -2.124273
 78 -0.000000 0.000000 5.000000 -0.079311 1.595025 -1.570737
 79 0.000006 -0.000004 -3.713579 0.123976 -2.972045 -0.870829
 80 0.000001 0.000000 4.999999 3.053199 1.558589 -0.074925
 81 -0.000005 0.000006 3.713580 -0.290572 -2.809233 -0.650002
 82 -0.000000 -0.000000 -5.000000 -0.088722 1.558589 3.066339
 83 7.363603 1.646648 0.495664 -3.141593 -1.570796 0.000000
time 2
  0 0.500000 13.522099 26.931471 -0.243067 0.535714 -2.432935
  1 13.753965 5.576500 -22.488623 -0.544290 0.221328 2.303921
  2 -2.276934 0.000003 -1.238185 -1.570795 -1.570451 0.000000
  3 1.797557 0.711870 -0.000564 0.181598 -0.324023 0.069720
  4 4.120011 -0.002908 -0.000558 0.171312 -0.052308 0.441783
  5 4.119102 -0.003187 -0.000595 0.182468 -0.000669 0.155119
  6 4.117507 -0.003011 -0.000697 0.221701 -0.258477 -0.406552
  7 4.118098 -0.003499 -0.000082 0.023799 -0.258550 -0.148784
  8 4.443599 -0.000001 0.000000 0.906464 -0.550701 0.218890
  9 9.024061 -0.000001 0.000000 0.000000 0.000000 0.000000
 10 0.443023 0.043396 1.674653 0.715470 -1.320921 2.632114
 11 6.384776 -0.000000 0.000001 -0.469369 0.367426 -0.368041
 12 10.242683 -0.000000 -0.000001 0.000000 0.000000 -1.808287
 13 11.375562 -0.000001 -0.000001 -2.615542 -0.531952 0.245170
 14 0.728681 0.023432 -1.008294 1.051563 0.167831 0.364467
 15 2.136496 0.000000 0.000000 0.000000 -0.000000 -0.078540
 16 2.313139 -0.000000 0.000000 0.000000 0.000000 0.000000
 17 3.115506 -0.886041 -0.021431 -0.620285 0.000392 0.514872
 18 2.011151 0.000001 -0.000001 0.000000 -0.000000 1.322792
 19 2.141379 -0.000000 0.000001 0.000000 0.000000 0.000000
 20 1.734172 0.000001 -0.000000 0.000000 -0.000000 0.660693
 21 0.000007 -4.440593 0.000000 1.570544 -0.062990 -0.195737
 22 6.000000 -0.000001 -0.000001 -2.350374 -0.000000 -0.000000
 23 0.000001 -4.440600 -0.000001 1.569944 -0.062987 0.004053
 24 11.375562 -0.000000 0.000002 -2.055608 -0.313277 0.044121
 25 -0.000001 -4.440604 0.000000 1.570144 -0.062988 0.004040
 26 10.510132 -0.000001 -0.000001 -0.000000 -0.000000 -2.474940
 27 0.000001 -1.748402 5.000000 -0.000000 0.004007 1.602291
 28 5.500000 -0.000000 -0.000000 0.187074 0.000000 0.000000
 29 -0.000001 -1.940597 5.000000 -0.044472 0.004003 -0.000180
 30 6.551491 -0.000001 0.000000 -0.345207 0.282302 -0.345373
 31 0.000002 -1.940598 5.000000 -0.027189 -0.053376 0.005295
 32 6.551491 -0.000001 0.000000 -0.154944 0.153009 -0.155071
 33 0.000001 -1.940599 4.999996 -0.066572 -0.152786 -0.110311
 34 -0.443020 -0.036319 -1.674653 -3.085690 0.982219 0.185082
 35 6.384776 -0.000000 -0.000001 0.229006 0.160731 -1.286584
 36 10.242682 -0.000000 0.000002 -0.000000 0.000000 -1.801531
 37 11.375560 0.000000 -0.000001 2.651120 0.204336 0.650479
 38 0.728681 0.023431 1.008292 -1.579583 -0.319038 0.212973
 39 2.136497 0.000000 0.000000 -0.000000 0.000000 1.282817
 40 2.313139 -0.000000 0.000001 0.000000 0.000000 3.141593
 41 3.115507 -0.886040 0.021431 0.420765 0.316066 0.167178
 42 2.011151 0.000000 0.000001 -0.000000 0.000000 2.082010
 43 2.141379 0.000001 0.000001 0.000000 0.000000 3.141593
 44 1.734173 -0.000001 -0.000000 0.000000 -0.000000 1.041748
 45 0.136315 -3.738194 2.525890 1.493698 2.759406 -1.474501
 46 2.209801 -0.209226 0.899084 1.570711 0.171029 -0.002271
 47 11.389367 -0.000819 0.158782 2.090215 0.195217 0.302783
 48 0.000000 -4.440599 0.000001 1.570144 -3.078602 0.004040
 49 6.000000 -0.000001 -0.000000 2.090215 -0.000000 -0.000000
 50 0.000002 -4.440601 0.000000 1.569944 -3.078603 0.004053
 51 10.510134 0.000000 0.000003 -0.000000 -0.000000 -2.471562
 52 0.000001 -1.748401 -5.000002 3.141593 0.004007 -1.539299
 53 5.500000 0.000001 0.000001 -0.113686 -0.000000 -0.000000
 54 -0.000000 -0.000001 -5.000000 -0.044472 3.137589 -0.000177
 55 6.551489 -0.000001 -0.000000 0.113686 0.001006 -0.347072
 56 -1.266843 -1.937443 -4.950559 -0.066572 -2.988806 -0.110308
 57 6.551490 -0.000002 -0.000000 0.113686 0.001006 -0.347072
 58 0.699371 -1.944209 -5.006846 -0.027189 -3.088217 0.005298
 59 4.226146 -0.003202 0.000000 0.009408 -0.150939 -0.092441
 60 -0.000000 4.999999 -0.000000 -0.153565 0.000087 2.718702
 61 -0.594459 0.150364 4.057564 -3.001928 -0.552526 1.282015
 62 16.573921 -0.000001 0.000001 -0.000000 0.000000 -1.964389
 63 15.128181 -0.000000 -0.000000 0.000009 0.040731 -0.172478
 64 5.758666 4.244731 0.000000 0.000000 -0.000000 2.024514
 65 3.177726 0.000000 0.000000 0.000000 0.000000 3.141593
 66 15.708952 0.000002 -0.000000 0.000717 0.022702 -0.092252
 67 0.275149 0.189215 -3.445208 3.130898 0.000409 -1.514604
 68 17.210194 -0.000001 0.000001 -0.000000 0.000000 -2.297692
 69 0.000000 -0.000001 -5.000000 -0.079429 1.546565 -1.570853
 70 -2.898952 -1.088843 -2.691114 0.512806 3.091956 -1.493186
 71 16.573919 -0.000002 0.000001 0.000000 -0.000000 -1.585591
 72 15.128180 0.000000 0.000001 0.167127 -0.040172 0.677768
 73 5.758665 4.244731 0.000000 -0.000000 -0.000000 1.556616
 74 4.003935 0.000000 0.000000 0.000000 0.000000 0.000000
 75 15.708954 0.000001 0.000001 0.119085 -0.013424 0.464871
 76 0.273998 0.191090 3.439762 -3.130907 -0.000437 -1.508106
 77 17.210194 -0.000001 -0.000000 0.000000 -0.000000 -2.127232
 78 0.000001 0.000001 5.000000 -0.079314 1.595025 -1.570739
 79 0.000006 -0.000004 -3.713579 0.087591 -3.032594 -0.828141
 80 0.000002 -0.000000 4.999999 3.053195 1.558589 -0.074929
 81 -0.000005 0.000006 3.713580 -0.271390 -2.783167 -0.729869
 82 0.000001 -0.000000 -4.999999 -0.088721 1.558589 3.066340
 83 7.363603 1.646648 0.495664 -3.141593 -1.570796 0.000000
time 3
  0 0.500000 13.522099 26.931471 -0.243067 0.535714 -2.432935
  1 13.818663 5.602732 -22.594406 -0.544290 0.221328 2.303921
  2 -2.276934 0.000003 -1.238185 -1.570795 -1.570451 0.000000
  3 1.797571 0.711881 -0.000610 0.197349 -0.330422 0.068209
  4 4.120010 -0.002902 -0.000608 0.186653 -0.058723 0.440417
  5 4.119100 -0.003180 -0.000644 0.197739 -0.007069 0.153684
  6 4.117521 -0.003001 -0.000745 0.237418 -0.264814 -0.408298
  7 4.118101 -0.003504 -0.000082 0.023799 -0.258550 -0.148784
  8 4.443598 0.000001 0.000000 0.841079 -0.526111 0.272810
  9 9.024061 -0.000002 -0.000000 0.000000 0.000000 0.000000
 10 0.443022 0.043399 1.674654 0.715471 -1.320921 2.632114
 11 6.384778 -0.000001 0.000000 -0.449488 0.339675 -0.448211
 12 10.242682 0.000000 -0.000002 -0.000000 -0.000000 -1.712990
 13 11.375561 -0.000001 0.000001 -2.618346 -0.520535 0.196714
 14 0.728680 0.023432 -1.008295 1.051563 0.167831 0.364467
 15 2.136496 0.000002 0.000002 -0.000000 -0.000000 -0.078540
 16 2.313139 0.000001 -0.000001 0.000000 0.000000 0.000000
 17 3.115506 -0.886041 -0.021432 -0.620285 0.000392 0.514872
 18 2.011152 -0.000000 -0.000001 0.000000 0.000000 1.322792
 19 2.141380 0.000000 0.000001 0.000000 0.000000 0.000000
 20 1.734172 0.000001 -0.000001 -0.000000 0.000000 0.660693
 21 0.000005 -4.440594 0.000001 1.570544 -0.062990 -0.195737
 22 5.999999 -0.000001 0.000001 -2.354453 -0.000000 -0.000000
 23 0.000002 -4.440601 0.000001 1.569944 -0.062987 0.004053
 24 11.375561 0.000000 0.000003 -2.060896 -0.302779 0.022129
 25 -0.000001 -4.440603 -0.000001 1.570144 -0.062988 0.004040
 26 10.510131 0.000000 -0.000001 -0.000000 0.000000 -2.427291
 27 -0.000000 -1.748401 4.999999 -0.000000 0.004007 1.602291
 28 5.500000 -0.000001 -0.000002 0.171054 0.000000 0.000000
 29 -0.000001 -1.940599 5.000000 -0.044472 0.004003 -0.000180
 30 6.551491 0.000001 0.000001 -0.317491 0.251241 -0.400345
 31 -0.000001 -1.940596 5.000001 -0.027189 -0.053376 0.005295
 32 6.551491 0.000001 0.000001 -0.141356 0.138656 -0.184210
 33 0.000000 -1.940598 4.999996 -0.066572 -0.152786 -0.110311
 34 -0.443021 -0.036316 -1.674653 -3.085690 0.982219 0.185082
 35 6.384777 0.000003 -0.000001 0.221830 0.111770 -1.283705
 36 10.242682 -0.000001 0.000001 -0.000000 0.000000 -1.781057
 37 11.375561 0.000000 -0.000001 2.654798 0.213539 0.668209
 38 0.728681 0.023431 1.008291 -1.579583 -0.319038 0.212973
 39 2.136497 0.000000 -0.000000 0.000000 0.000000 1.282817
 40 2.313139 0.000000 0.000000 0.000000 0.000000 3.141593
 41 3.115507 -0.886041 0.021431 0.420765 0.316066 0.167178
 42 2.011149 -0.000000 0.000001 0.000000 -0.000000 2.082010
 43 2.141379 -0.000000 -0.000001 0.000000 0.000000 3.141593
 44 1.734172 -0.000001 0.000001 0.000000 0.000000 1.041748
 45 0.136314 -3.738191 2.525892 1.493698 2.759406 -1.474501
 46 2.209801 -0.209226 0.899085 1.570711 0.171029 -0.002271
 47 11.389366 -0.000819 0.158781 2.090250 0.201726 0.308910
 48 0.000000 -4.440600 0.000002 1.570144 -3.078602 0.004040
 49 6.000000 0.000000 -0.000001 2.090250 0.000000 0.000000
 50 0.000002 -4.440602 0.000000 1.569944 -3.078603 0.004053
 51 10.510132 -0.000001 0.000002 0.000000 -0.000000 -2.461325
 52 0.000001 -1.748401 -5.000002 -3.141593 0.004007 -1.539299
 53 5.499999 -0.000000 -0.000000 -0.102968 -0.000000 0.000000
 54 -0.000001 0.000001 -5.000001 -0.044472 3.137589 -0.000177
 55 6.551490 0.000001 -0.000000 0.102968 -0.012150 -0.345465
 56 -1.266844 -1.937442 -4.950559 -0.066572 -2.988806 -0.110308
 57 6.551491 0.000001 0.000000 0.102968 -0.012150 -0.345465
 58 0.699369 -1.944208 -5.006845 -0.027189 -3.088217 0.005298
 59 4.226144 -0.003200 -0.000000 0.009408 -0.150939 -0.092441
 60 0.000001 5.000000 -0.000000 -0.153564 0.000087 2.718702
 61 -0.567897 0.212197 4.058655 -2.985693 -0.501522 1.178017
 62 16.573919 -0.000001 0.000002 -0.000000 0.000000 -1.876372
 63 15.128181 0.000001 0.000000 -0.018001 0.068546 -0.104603
 64 5.758664 4.244730 0.000000 0.000000 -0.000000 1.999874
 65 3.177726 0.000000 -0.000000 0.000000 0.000000 3.141593
 66 15.708953 0.000000 -0.000000 -0.008312 0.038557 -0.055958
 67 0.275148 0.189215 -3.445207 3.130898 0.000409 -1.514604
 68 17.210192 -0.000002 0.000001 0.000000 0.000000 -2.258084
 69 -0.000000 -0.000002 -4.999999 -0.079430 1.546568 -1.570855
 70 -2.916250 -1.130234 -2.655069 0.439663 3.036921 -1.394952
 71 16.573921 -0.000001 -0.000000 0.000000 0.000000 -1.568369
 72 15.128181 -0.000000 0.000001 0.081503 0.075001 0.642000
 73 5.758665 4.244731 0.000002 -0.000000 -0.000000 1.702788
 74 4.003934 -0.000000 -0.000000 0.000000 0.000000 0.000000
 75 15.708955 0.000000 0.000001 0.052600 0.061125 0.439646
 76 0.273998 0.191090 3.439763 -3.130907 -0.000437 -1.508106
 77 17.210194 -0.000000 -0.000000 -0.000000 -0.000000 -2.119483
 78 0.000000 0.000001 5.000000 -0.079314 1.595025 -1.570739
 79 0.000006 -0.000004 -3.713579 0.044702 -3.107632 -0.773881
 80 0.000001 0.000000 4.999999 3.053196 1.558589 -0.074928
 81 -0.000005 0.000006 3.713580 -0.261147 -2.772701 -0.785718
 82 -0.000000 0.000000 -5.000000 -0.088724 1.558589 3.066336
 83 7.363603 1.646648 0.495664 -3.141593 -1.570796 0.000000
time 4
  0 0.500000 13.522099 26.931471 -0.243067 0.535714 -2.432935
  1 13.855123 5.617515 -22.654022 -0.544290 0.221328 2.303921
  2 -2.276934 0.000003 -1.238185 -1.570795 -1.570451 0.000000
  3 1.797585 0.711893 -0.000656 0.213146 -0.336798 0.066588
  4 4.120010 -0.002892 -0.000657 0.202009 -0.065117 0.438952
  5 4.119096 -0.003163 -0.000693 0.213020 -0.013446 0.152151
  6 4.117538 -0.002999 -0.000792 0.253174 -0.271124 -0.410150
  7 4.118100 -0.003503 -0.000082 0.023799 -0.258550 -0.148784
  8 4.443599 -0.000001 0.000000 0.778121 -0.498745 0.323957
  9 9.024061 -0.000001 0.000002 0.000000 0.000000 0.000000
 10 0.443022 0.043397 1.674654 0.715470 -1.320921 2.632114
 11 6.384776 -0.000001 0.000002 -0.429766 0.314606 -0.528860
 12 10.242682 -0.000001 0.000000 0.000000 0.000000 -1.614443
 13 11.375560 0.000000 -0.000000 -2.622573 -0.507908 0.145325
 14 0.728680 0.023431 -1.008293 1.051563 0.167831 0.364467
 15 2.136497 -0.000002 -0.000001 0.000000 0.000000 -0.078540
 16 2.313139 0.000001 0.000000 0.000000 0.000000 0.000000
 17 3.115506 -0.886041 -0.021431 -0.620285 0.000392 0.514872
 18 2.011151 0.000001 -0.000000 0.000000 0.000000 1.322792
 19 2.141380 0.000000 -0.000001 0.000000 0.000000 0.000000
 20 1.734172 0.000002 -0.000000 0.000000 0.000000 0.660693
 21 0.000006 -4.440594 -0.000001 1.570544 -0.062990 -0.195737
 22 5.999999 0.000001 -0.000001 -2.359581 0.000000 0.000000
 23 0.000001 -4.440601 -0.000000 1.569944 -0.062987 0.004053
 24 11.375560 0.000000 0.000003 -2.066928 -0.290840 -0.001683
 25 -0.000000 -4.440603 0.000000 1.570144 -0.062988 0.004040
 26 10.510131 -0.000001 -0.000001 -0.000000 -0.000000 -2.378018
 27 -0.000000 -1.748400 4.999999 -0.000000 0.004007 1.602291
 28 5.500000 -0.000001 0.000001 0.156266 0.000000 0.000000
 29 -0.000002 -1.940598 5.000001 -0.044472 0.004003 -0.000180
 30 6.551491 -0.000000 0.000002 -0.291822 0.228790 -0.442728
 31 0.000000 -1.940597 5.000002 -0.027189 -0.053376 0.005295
 32 6.551491 -0.000000 0.000002 -0.128846 0.127754 -0.206416
 33 0.000001 -1.940598 4.999996 -0.066572 -0.152786 -0.110311
 34 -0.443020 -0.036320 -1.674653 -3.085690 0.982219 0.185082
 35 6.384776 0.000002 -0.000000 0.216079 0.062658 -1.280772
 36 10.242682 -0.000000 0.000000 0.000000 -0.000000 -1.760582
 37 11.375561 0.000000 0.000000 2.658650 0.222677 0.686010
 38 0.728681 0.023430 1.008291 -1.579583 -0.319038 0.212973
 39 2.136497 -0.000000 0.000001 -0.000000 0.000000 1.282817
 40 2.313138 0.000000 -0.000000 0.000000 0.000000 3.141593
 41 3.115507 -0.886041 0.021430 0.420766 0.316066 0.167178
 42 2.011150 0.000000 0.000001 -0.000000 0.000000 2.082010
 43 2.141379 0.000000 -0.000001 0.000000 0.000000 3.141593
 44 1.734173 -0.000001 0.000001 0.000000 0.000000 1.041748
 45 0.136315 -3.738192 2.525891 1.493698 2.759406 -1.474501
 46 2.209802 -0.209226 0.899083 1.570711 0.171029 -0.002271
 47 11.389366 -0.000818 0.158782 2.090295 0.208208 0.315023
 48 0.000000 -4.440599 0.000000 1.570144 -3.078602 0.004040
 49 6.000000 0.000001 0.000000 2.090295 0.000000 0.000000
 50 0.000003 -4.440601 -0.000001 1.569944 -3.078603 0.004053
 51 10.510131 -0.000001 0.000001 -0.000000 0.000000 -2.451087
 52 0.000000 -1.748401 -5.000003 -3.141593 0.004007 -1.539299
 53 5.500000 -0.000001 -0.000000 -0.092667 -0.000000 -0.000000
 54 -0.000001 0.000000 -5.000000 -0.044472 3.137589 -0.000177
 55 6.551491 0.000002 -0.000000 0.092667 -0.025796 -0.343852
 56 -1.266843 -1.937443 -4.950558 -0.066572 -2.988806 -0.110308
 57 6.551491 0.000002 -0.000000 0.092667 -0.025796 -0.343852
 58 0.699371 -1.944208 -5.006845 -0.027189 -3.088217 0.005298
 59 4.226146 -0.003203 0.000000 0.009408 -0.150939 -0.092441
 60 -0.000000 5.000001 0.000000 -0.153564 0.000087 2.718702
 61 -0.541342 0.274046 4.058628 -2.985140 -0.453298 1.101003
 62 16.573919 -0.000000 -0.000001 0.000000 -0.000000 -1.756202
 63 15.128180 -0.000000 0.000001 -0.024444 0.100512 -0.039152
 64 5.758666 4.244732 0.000000 0.000000 -0.000000 1.964268
 65 3.177726 -0.000000 -0.000000 0.000000 0.000000 3.141593
 66 15.708954 0.000000 0.000001 -0.011857 0.056262 -0.020696
 67 0.275148 0.189215 -3.445208 3.130898 0.000409 -1.514604
 68 17.210194 -0.000001 -0.000001 0.000000 -0.000000 -2.204007
 69 -0.000001 -0.000001 -4.999999 -0.079430 1.546568 -1.570856
 70 -2.933300 -1.171070 -2.618283 0.380977 2.978952 -1.305324
 71 16.573919 -0.000002 0.000002 -0.000000 0.000000 -1.526718
 72 15.128181 0.000001 -0.000000 -0.010800 0.166980 0.553213
 73 5.758665 4.244731 -0.000000 -0.000000 0.000000 1.775873
 74 4.003934 -0.000000 0.000001 0.000000 0.000000 0.000000
 75 15.708954 0.000001 -0.000001 -0.015050 0.119918 0.381082
 76 0.273998 0.191090 3.439763 -3.130907 -0.000437 -1.508106
 77 17.210194 -0.000002 0.000001 -0.000000 0.000000 -2.100740
 78 0.000000 -0.000000 4.999999 -0.079311 1.595025 -1.570737
 79 0.000006 -0.000004 -3.713579 0.010699 3.106060 -0.729378
 80 0.000002 0.000001 4.999999 3.053195 1.558589 -0.074929
 81 -0.000005 0.000006 3.713580 -0.253268 -2.767493 -0.829692
 82 0.000000 0.000000 -5.000000 -0.088726 1.558589 3.066334
 83 7.363603 1.646648 0.495664 -3.141593 -1.570796 0.000000
end
