version 1
nodes
  0 "Bip01"  -1
  1 "Bip01 Footsteps"   0
  2 "Bip01 Pelvis"   0
  3 "Bip01 Spine"   2
  4 "Bip01 Spine1"   3
  5 "Bip01 Spine2"   4
  6 "Bip01 Spine3"   5
  7 "Bip01 Neck"   6
  8 "Bip01 Head"   7
  9 "Dummy21"   8
 10 "Bip01 L Clavicle"   7
 11 "Bip01 L UpperArm"  10
 12 "Bip01 L Forearm"  11
 13 "Bip01 L Hand"  12
 14 "Bip01 L Finger0"  13
 15 "Bip01 L Finger01"  14
 16 "Dummy06"  15
 17 "Bip01 L Finger1"  13
 18 "Bip01 L Finger11"  17
 19 "Dummy03"  18
 20 "-- L knuckle"  17
 21 "-- L knuckle_end"  20
 22 "-- L Forearm twist"  12
 23 "-- L Forearm twist_end"  22
 24 "-- L wrist"  12
 25 "-- L wrist_end"  24
 26 "-- L Elbow"  11
 27 "--L Elbow_end"  26
 28 "-- L bicep twist"  11
 29 "-- L bicep twist_end"  28
 30 "-- L shoulder outside"  10
 31 "-- L shoulder outside_end"  30
 32 "-- L Shoulder inside"  10
 33 "-- L Shoulder inside_end"  32
 34 "Bip01 R Clavicle"   7
 35 "Bip01 R UpperArm"  34
 36 "Bip01 R Forearm"  35
 37 "Bip01 R Hand"  36
 38 "Bip01 R Finger0"  37
 39 "Bip01 R Finger01"  38
 40 "Dummy01"  39
 41 "Bip01 R Finger1"  37
 42 "Bip01 R Finger11"  41
 43 "Dummy02"  42
 44 "-- R knuckle"  41
 45 "Point06"  44
 46 "Steyr Aug"  37
 47 "-- R wrist"  36
 48 "-- R wrist_end"  47
 49 "-- R forearm twist"  36
 50 "-- R forearm twist_end"  49
 51 "-- R Elbow"  35
 52 "--R Elbow_end"  51
 53 "-- R bicep twist"  35
 54 "-- R bicep twist_end"  53
 55 "-- R Shoulder inside"  34
 56 "-- R Shoulder inside_end"  55
 57 "-- R shoulder outside"  34
 58 "-- R shoulder outside_end"  57
 59 "-- Neck smooth"   6
 60 "-- neck smooth end"  59
 61 "-- R Butt"   2
 62 "--R Butt_end"  61
 63 "-- L butt"   2
 64 "--L butt_end"  63
 65 "GIGN01"   2
 66 "Bip01 L Thigh"   2
 67 "Bip01 L Calf"  66
 68 "Bip01 L Foot"  67
 69 "Bip01 L Toe0"  68
 70 "Dummy16"  69
 71 "-- L ankle"  67
 72 "-- L ankleend"  71
 73 "-- L Knee"  66
 74 "--L Knee_end"  73
 75 "Bip01 R Thigh"   2
 76 "Bip01 R Calf"  75
 77 "Bip01 R Foot"  76
 78 "Bip01 R Toe0"  77
 79 "Dummy11"  78
 80 "-- R Ankle"  76
 81 "-- R ankleend"  80
 82 "-- R Knee"  75
 83 "--R Knee_end"  82
end
skeleton
time 0
  0 0.500000 13.522099 26.931471 -0.243067 0.535714 -2.432935
  1 13.773750 5.584524 -22.520975 -0.544290 0.221328 2.303921
  2 -2.276936 0.000004 -1.238185 -1.570795 -1.570451 0.000000
  3 1.797440 0.711935 -0.000907 0.280915 0.091609 0.120199
  4 4.118809 -0.002976 -0.001362 0.428741 -0.037859 0.050970
  5 4.119054 -0.003019 -0.001196 0.374201 -0.077955 0.118178
  6 4.119049 -0.003019 -0.001202 0.379771 -0.150193 0.087152
  7 4.117195 -0.003244 -0.000117 0.033796 -0.206621 -0.416696
  8 4.443600 -0.000001 0.000001 1.102252 0.187082 0.292265
  9 9.024062 0.000001 0.000001 0.000000 0.000000 0.000000
 10 0.355480 0.060836 1.694898 -0.548849 -1.061927 -2.287306
 11 6.384777 -0.000001 0.000001 -1.000912 -0.094305 -1.404926
 12 10.242683 -0.000000 0.000001 0.000000 0.000000 -1.497070
 13 11.375561 0.000001 0.000002 -1.763956 -0.531428 0.627097
 14 0.728680 0.023431 -1.008291 1.051563 0.167831 0.364467
 15 2.136499 -0.000001 0.000000 -0.000000 0.000000 -0.078540
 16 2.313138 -0.000000 -0.000001 0.000000 0.000000 0.000000
 17 3.115507 -0.886041 -0.021430 -0.620285 0.000392 0.514872
 18 2.011149 0.000000 -0.000001 0.000000 -0.000000 1.322791
 19 2.141379 -0.000002 0.000000 0.000000 0.000000 0.000000
 20 1.734171 0.000001 -0.000000 -0.000000 0.000000 0.660693
 21 0.000007 -4.440593 -0.000001 1.570544 -0.062990 -0.195737
 22 6.000000 0.000000 0.000002 -1.684138 0.000000 -0.000000
 23 0.000003 -4.440600 -0.000000 1.569944 -0.062987 0.004053
 24 11.375563 0.000001 0.000005 -1.620755 -0.282935 0.296180
 25 -0.000001 -4.440603 -0.000000 1.570144 -0.062988 0.004040
 26 10.510130 -0.000001 0.000001 0.000000 -0.000000 -2.319332
 27 0.000003 -1.748399 5.000001 0.000000 0.004007 1.602291
 28 5.500000 0.000000 -0.000000 0.372416 -0.000000 -0.000000
 29 -0.000001 -1.940599 5.000001 -0.044472 0.004003 -0.000180
 30 6.551491 -0.000001 -0.000001 -0.713432 0.031938 -0.921463
 31 -0.000000 -1.940600 5.000004 -0.027189 -0.053376 0.005295
 32 6.551491 -0.000001 -0.000001 -0.297195 0.093953 -0.384528
 33 -0.000000 -1.940599 4.999995 -0.066572 -0.152786 -0.110311
 34 -0.355476 -0.053761 -1.694896 1.843191 1.287345 -0.812393
 35 6.384777 0.000001 -0.000001 0.487853 0.224627 -1.971111
 36 10.242682 -0.000002 -0.000003 0.000000 -0.000000 -1.555126
 37 11.375558 0.000001 0.000001 2.279915 0.118022 0.362099
 38 0.728680 0.023431 1.008290 -1.579583 -0.319038 0.212973
 39 2.136498 -0.000001 -0.000000 0.000000 -0.000000 1.282817
 40 2.313140 0.000002 0.000000 0.000000 0.000000 3.141593
 41 3.115507 -0.886041 0.021431 0.420766 0.316066 0.167178
 42 2.011153 0.000000 0.000000 0.000000 -0.000000 2.082010
 43 2.141380 0.000001 -0.000001 0.000000 0.000000 3.141593
 44 1.734173 -0.000001 -0.000001 0.000000 0.000000 1.041748
 45 0.136317 -3.738194 2.525894 1.493698 2.759406 -1.474501
 46 2.209802 -0.209226 0.899084 1.570711 0.171029 -0.002271
 47 11.389366 -0.000819 0.158780 1.920388 0.099488 0.188342
 48 0.000002 -4.440599 0.000001 1.570144 -3.078602 0.004040
 49 6.000000 -0.000000 -0.000002 1.920388 -0.000000 -0.000000
 50 0.000002 -4.440602 0.000001 1.569944 -3.078603 0.004053
 51 10.510132 0.000001 -0.000001 -0.000000 -0.000000 -2.348359
 52 -0.000001 -1.748399 -5.000001 3.141593 0.004007 -1.539299
 53 5.500000 0.000001 -0.000001 -0.160947 -0.000000 -0.000000
 54 0.000000 0.000001 -5.000000 -0.044472 3.137589 -0.000177
 55 6.551491 0.000001 -0.000000 0.160947 -0.027783 -0.516025
 56 -1.266844 -1.937445 -4.950559 -0.066572 -2.988806 -0.110308
 57 6.551491 0.000001 -0.000000 0.160947 -0.027783 -0.516025
 58 0.699370 -1.944209 -5.006847 -0.027189 -3.088217 0.005298
 59 4.226146 -0.003202 0.000001 0.011880 -0.130311 -0.271071
 60 0.000001 5.000000 -0.000001 -0.153564 0.000087 2.718702
 61 0.000006 -0.000006 -3.713579 0.119535 -2.936655 -0.885276
 62 0.000001 0.000000 5.000000 3.053195 1.558589 -0.074929
 63 -0.000005 0.000005 3.713580 -0.311487 -2.845558 -0.582080
 64 0.000002 0.000000 -5.000000 -0.088728 1.558589 3.066333
 65 7.363603 1.646646 0.495663 -3.141593 -1.570796 0.000000
 66 -0.000005 0.000005 3.619081 -0.441735 -2.434423 -1.159240
 67 16.573921 -0.000000 0.000001 -0.000000 0.000000 -2.011748
 68 15.128181 -0.000000 -0.000000 0.026832 0.026147 -0.175154
 69 5.758666 4.244731 -0.000000 0.000000 -0.000000 2.033309
 70 3.177726 0.000001 0.000000 0.000000 0.000000 3.141593
 71 15.708952 0.000002 -0.000001 0.013957 0.013894 -0.093781
 72 0.275149 0.189215 -3.445207 3.130898 0.000409 -1.514604
 73 17.210192 -0.000001 0.000001 -0.000000 -0.000000 -2.319003
 74 0.000000 -0.000001 -5.000000 -0.079433 1.546568 -1.570857
 75 0.000007 -0.000004 -3.619079 0.260448 -2.945758 -1.468642
 76 16.573919 -0.000000 0.000001 0.000000 -0.000000 -1.562392
 77 15.128181 0.000000 0.000001 0.265624 -0.173430 0.666428
 78 5.758665 4.244731 0.000001 -0.000000 0.000000 1.483530
 79 4.003934 -0.000000 0.000000 0.000000 0.000000 0.000000
 80 15.708953 0.000000 0.000001 0.195074 -0.100553 0.460486
 81 0.273998 0.191090 3.439762 -3.130907 -0.000437 -1.508107
 82 17.210194 -0.000000 0.000000 -0.000000 -0.000000 -2.116793
 83 0.000001 0.000000 5.000000 -0.079311 1.595025 -1.570736
time 1
  0 0.500000 13.522099 26.931471 -0.243067 0.535714 -2.432935
  1 13.773750 5.584524 -22.520975 -0.544290 0.221328 2.303921
  2 -2.276936 0.000004 -1.238185 -1.570795 -1.570451 0.000000
  3 1.797440 0.711935 -0.000907 0.280915 0.091609 0.120199
  4 4.118807 -0.002963 -0.001392 0.438798 -0.049597 0.045150
  5 4.119054 -0.003006 -0.001225 0.384439 -0.089993 0.112992
  6 4.119051 -0.003007 -0.001232 0.390398 -0.162200 0.081852
  7 4.117195 -0.003243 -0.000116 0.033796 -0.206621 -0.416696
  8 4.443599 -0.000001 0.000002 1.069410 0.222256 0.281522
  9 9.024063 0.000001 0.000000 0.000000 0.000000 0.000000
 10 0.355478 0.060836 1.694898 -0.548849 -1.061927 -2.287306
 11 6.384777 -0.000001 0.000000 -0.974883 -0.138670 -1.454622
 12 10.242682 0.000001 0.000001 0.000000 -0.000000 -1.424490
 13 11.375561 0.000000 0.000002 -1.756922 -0.515894 0.595477
 14 0.728681 0.023431 -1.008292 1.051563 0.167831 0.364467
 15 2.136497 0.000001 0.000000 -0.000000 -0.000000 -0.078540
 16 2.313138 0.000000 0.000001 0.000000 0.000000 0.000000
 17 3.115506 -0.886042 -0.021431 -0.620285 0.000392 0.514872
 18 2.011151 -0.000001 0.000000 0.000000 0.000000 1.322792
 19 2.141380 0.000001 0.000001 0.000000 0.000000 0.000000
 20 1.734171 0.000000 0.000002 -0.000000 -0.000000 0.660693
 21 0.000006 -4.440595 -0.000002 1.570544 -0.062990 -0.195737
 22 6.000000 0.000000 0.000002 -1.682209 0.000000 -0.000000
 23 0.000003 -4.440603 -0.000000 1.569944 -0.062987 0.004053
 24 11.375563 -0.000000 0.000006 -1.621377 -0.274883 0.283905
 25 -0.000004 -4.440602 0.000001 1.570144 -0.062988 0.004040
 26 10.510132 0.000001 0.000001 -0.000000 -0.000000 -2.283041
 27 0.000000 -1.748400 4.999998 -0.000000 0.004007 1.602290
 28 5.500000 0.000002 0.000001 0.370362 0.000000 -0.000000
 29 -0.000001 -1.940598 5.000000 -0.044472 0.004003 -0.000180
 30 6.551492 -0.000001 0.000001 -0.712314 -0.003298 -0.987772
 31 0.000000 -1.940599 5.000005 -0.027189 -0.053376 0.005295
 32 6.551492 -0.000001 0.000001 -0.293856 0.083811 -0.405986
 33 0.000001 -1.940599 4.999999 -0.066572 -0.152786 -0.110311
 34 -0.355475 -0.053760 -1.694896 1.843191 1.287345 -0.812393
 35 6.384778 0.000001 -0.000001 0.514903 0.229713 -1.955937
 36 10.242682 -0.000001 -0.000000 -0.000000 -0.000000 -1.556131
 37 11.375561 0.000001 0.000001 2.281531 0.132904 0.375010
 38 0.728680 0.023431 1.008289 -1.579583 -0.319038 0.212973
 39 2.136498 -0.000001 -0.000000 0.000000 -0.000000 1.282817
 40 2.313138 -0.000000 -0.000000 0.000000 0.000000 3.141593
 41 3.115509 -0.886041 0.021432 0.420766 0.316066 0.167178
 42 2.011151 -0.000000 0.000000 -0.000000 0.000000 2.082010
 43 2.141379 0.000000 0.000000 0.000000 0.000000 3.141593
 44 1.734173 -0.000001 0.000001 -0.000000 0.000000 1.041748
 45 0.136314 -3.738193 2.525890 1.493698 2.759406 -1.474501
 46 2.209803 -0.209226 0.899085 1.570711 0.171029 -0.002271
 47 11.389368 -0.000819 0.158780 1.920211 0.108371 0.193173
 48 -0.000000 -4.440599 0.000000 1.570144 -3.078602 0.004040
 49 5.999999 0.000001 0.000000 1.920211 -0.000000 -0.000000
 50 -0.000000 -4.440600 -0.000000 1.569944 -3.078603 0.004053
 51 10.510131 0.000001 0.000002 -0.000000 0.000000 -2.348862
 52 -0.000001 -1.748400 -5.000000 3.141593 0.004007 -1.539299
 53 5.499999 -0.000001 -0.000000 -0.167112 0.000000 0.000000
 54 -0.000000 -0.000002 -5.000000 -0.044472 3.137589 -0.000177
 55 6.551491 -0.000001 0.000001 0.167112 -0.030766 -0.514702
 56 -1.266845 -1.937442 -4.950564 -0.066572 -2.988806 -0.110308
 57 6.551492 -0.000000 0.000001 0.167112 -0.030766 -0.514702
 58 0.699369 -1.944208 -5.006850 -0.027189 -3.088217 0.005298
 59 4.226146 -0.003201 0.000000 0.011880 -0.130310 -0.271071
 60 -0.000001 5.000001 -0.000000 -0.153564 0.000087 2.718702
 61 0.000006 -0.000006 -3.713579 0.123976 -2.972045 -0.870829
 62 0.000001 0.000000 5.000000 3.053199 1.558589 -0.074925
 63 -0.000005 0.000005 3.713580 -0.290572 -2.809233 -0.650002
 64 -0.000000 -0.000000 -5.000000 -0.088722 1.558589 3.066339
 65 7.363603 1.646646 0.495663 -3.141593 -1.570796 0.000000
 66 -0.000005 0.000005 3.619081 -0.336597 -2.380876 -1.328841
 67 16.573921 -0.000001 0.000001 -0.000000 -0.000000 -2.016458
 68 15.128181 -0.000000 0.000001 0.021498 0.024223 -0.207406
 69 5.758665 4.244731 0.000001 0.000000 -0.000000 2.033309
 70 3.177726 0.000000 0.000000 0.000000 0.000000 3.141593
 71 15.708952 0.000001 0.000001 0.011327 0.012829 -0.110742
 72 0.275148 0.189215 -3.445207 3.130898 0.000409 -1.514604
 73 17.210194 -0.000002 0.000001 -0.000000 0.000000 -2.321123
 74 0.000000 0.000000 -5.000000 -0.079430 1.546568 -1.570856
 75 0.000007 -0.000004 -3.619079 0.251674 -2.986879 -1.445871
 76 16.573921 -0.000001 0.000002 -0.000000 -0.000000 -1.579014
 77 15.128181 -0.000000 0.000001 0.231377 -0.134235 0.685060
 78 5.758665 4.244730 -0.000000 -0.000000 -0.000000 1.483530
 79 4.003935 0.000000 -0.000000 0.000000 0.000000 0.000000
 80 15.708952 -0.000000 0.000001 0.169631 -0.074795 0.471460
 81 0.273998 0.191089 3.439763 -3.130907 -0.000437 -1.508107
 82 17.210194 -0.000000 0.000002 -0.000000 0.000000 -2.124273
 83 -0.000000 0.000001 5.000000 -0.079311 1.595025 -1.570737
time 2
  0 0.500000 13.522099 26.931471 -0.243067 0.535714 -2.432935
  1 13.753963 5.576501 -22.488623 -0.544290 0.221328 2.303921
  2 -2.276936 0.000004 -1.238185 -1.570795 -1.570451 0.000000
  3 1.797440 0.711935 -0.000907 0.280915 0.091609 0.120199
  4 4.118806 -0.002947 -0.001421 0.448931 -0.061276 0.039208
  5 4.119059 -0.002998 -0.001254 0.394752 -0.101976 0.107677
  6 4.119053 -0.002992 -0.001263 0.401112 -0.174151 0.076410
  7 4.117194 -0.003244 -0.000116 0.033796 -0.206621 -0.416696
  8 4.443601 -0.000000 0.000001 1.035680 0.256866 0.269455
  9 9.024064 0.000001 0.000002 0.000000 0.000000 0.000000
 10 0.355478 0.060837 1.694896 -0.548849 -1.061927 -2.287306
 11 6.384777 -0.000000 0.000002 -0.947782 -0.181514 -1.506786
 12 10.242682 -0.000001 -0.000002 0.000000 -0.000000 -1.348631
 13 11.375562 -0.000001 0.000004 -1.749998 -0.499836 0.561165
 14 0.728682 0.023431 -1.008292 1.051563 0.167831 0.364467
 15 2.136497 -0.000001 0.000001 0.000000 -0.000000 -0.078540
 16 2.313138 -0.000000 -0.000001 0.000000 0.000000 0.000000
 17 3.115505 -0.886041 -0.021432 -0.620285 0.000392 0.514872
 18 2.011153 -0.000001 -0.000001 0.000000 -0.000000 1.322792
 19 2.141379 -0.000002 0.000000 0.000000 0.000000 0.000000
 20 1.734174 0.000000 0.000001 0.000000 0.000000 0.660693
 21 0.000007 -4.440594 -0.000000 1.570544 -0.062990 -0.195737
 22 6.000000 0.000001 0.000002 -1.680364 -0.000000 -0.000000
 23 0.000002 -4.440600 -0.000000 1.569944 -0.062987 0.004053
 24 11.375561 0.000000 0.000005 -1.622087 -0.266649 0.270233
 25 -0.000002 -4.440604 -0.000000 1.570144 -0.062988 0.004040
 26 10.510129 -0.000002 -0.000002 0.000000 0.000000 -2.245112
 27 0.000000 -1.748400 5.000001 0.000000 0.004007 1.602291
 28 5.500000 -0.000000 -0.000002 0.366085 0.000000 -0.000000
 29 -0.000002 -1.940599 5.000002 -0.044472 0.004003 -0.000180
 30 6.551491 -0.000001 0.000002 -0.708003 -0.040644 -1.064849
 31 0.000000 -1.940599 5.000005 -0.027189 -0.053376 0.005295
 32 6.551490 -0.000000 0.000002 -0.288270 0.073508 -0.427983
 33 -0.000000 -1.940599 4.999998 -0.066572 -0.152786 -0.110311
 34 -0.355472 -0.053760 -1.694896 1.843191 1.287345 -0.812393
 35 6.384777 0.000001 -0.000001 0.541859 0.234627 -1.940382
 36 10.242682 -0.000001 -0.000001 0.000000 -0.000000 -1.557136
 37 11.375560 0.000001 0.000001 2.283344 0.147763 0.387972
 38 0.728681 0.023431 1.008292 -1.579583 -0.319038 0.212973
 39 2.136496 -0.000000 -0.000001 0.000000 -0.000000 1.282817
 40 2.313139 0.000001 0.000000 0.000000 0.000000 3.141593
 41 3.115508 -0.886041 0.021432 0.420766 0.316066 0.167178
 42 2.011150 -0.000001 -0.000001 0.000000 0.000000 2.082010
 43 2.141380 0.000001 -0.000001 0.000000 0.000000 3.141593
 44 1.734173 -0.000001 -0.000000 -0.000000 -0.000000 1.041748
 45 0.136316 -3.738193 2.525891 1.493698 2.759406 -1.474501
 46 2.209802 -0.209226 0.899085 1.570711 0.171029 -0.002271
 47 11.389366 -0.000819 0.158782 1.920047 0.117172 0.197945
 48 0.000002 -4.440600 0.000001 1.570144 -3.078602 0.004040
 49 6.000001 0.000000 0.000000 1.920047 -0.000000 0.000000
 50 0.000001 -4.440600 -0.000000 1.569944 -3.078603 0.004053
 51 10.510132 0.000001 0.000001 0.000000 -0.000000 -2.349364
 52 -0.000001 -1.748399 -5.000001 3.141593 0.004007 -1.539299
 53 5.500000 -0.000001 -0.000001 -0.173167 -0.000000 -0.000000
 54 -0.000001 -0.000001 -5.000000 -0.044472 3.137589 -0.000177
 55 6.551491 0.000000 0.000000 0.173167 -0.033651 -0.513322
 56 -1.266845 -1.937443 -4.950561 -0.066572 -2.988806 -0.110308
 57 6.551491 0.000000 0.000000 0.173167 -0.033651 -0.513322
 58 0.699370 -1.944208 -5.006846 -0.027189 -3.088217 0.005298
 59 4.226147 -0.003203 0.000002 0.011880 -0.130311 -0.271071
 60 0.000001 5.000000 0.000000 -0.153564 0.000087 2.718702
 61 0.000006 -0.000006 -3.713579 0.087591 -3.032594 -0.828141
 62 0.000002 0.000000 5.000000 3.053195 1.558589 -0.074929
 63 -0.000005 0.000005 3.713580 -0.271390 -2.783167 -0.729869
 64 0.000001 -0.000000 -5.000000 -0.088721 1.558589 3.066340
 65 7.363603 1.646646 0.495663 -3.141593 -1.570796 0.000000
 66 -0.000005 0.000005 3.619081 -0.230975 -2.357449 -1.527244
 67 16.573921 -0.000001 0.000001 -0.000000 0.000000 -1.964389
 68 15.128181 -0.000000 -0.000000 0.000009 0.040731 -0.172478
 69 5.758666 4.244731 0.000000 0.000000 -0.000000 2.024514
 70 3.177726 0.000000 0.000000 0.000000 0.000000 3.141593
 71 15.708952 0.000002 -0.000000 0.000717 0.022702 -0.092252
 72 0.275149 0.189215 -3.445208 3.130898 0.000409 -1.514604
 73 17.210194 -0.000001 0.000001 -0.000000 0.000000 -2.297692
 74 0.000000 -0.000001 -5.000000 -0.079429 1.546565 -1.570853
 75 0.000007 -0.000004 -3.619079 0.174013 -3.041866 -1.385115
 76 16.573921 -0.000001 0.000001 0.000000 -0.000000 -1.585591
 77 15.128179 -0.000000 -0.000000 0.167127 -0.040172 0.677768
 78 5.758665 4.244730 0.000000 -0.000000 -0.000000 1.556616
 79 4.003935 0.000000 0.000000 0.000000 0.000000 0.000000
 80 15.708954 0.000000 0.000001 0.119085 -0.013424 0.464871
 81 0.273998 0.191090 3.439762 -3.130907 -0.000437 -1.508106
 82 17.210194 -0.000001 -0.000000 0.000000 -0.000000 -2.127232
 83 0.000001 0.000001 5.000000 -0.079314 1.595025 -1.570739
time 3
  0 0.500000 13.522099 26.931471 -0.243067 0.535714 -2.432935
  1 13.818661 5.602732 -22.594406 -0.544290 0.221328 2.303921
  2 -2.276936 0.000004 -1.238185 -1.570795 -1.570451 0.000000
  3 1.797440 0.711935 -0.000907 0.280915 0.091609 0.120199
  4 4.118806 -0.002933 -0.001449 0.459141 -0.072894 0.033143
  5 4.119058 -0.002983 -0.001284 0.405142 -0.113905 0.102231
  6 4.119057 -0.002982 -0.001289 0.411916 -0.186043 0.070828
  7 4.117194 -0.003244 -0.000119 0.033796 -0.206621 -0.416696
  8 4.443599 -0.000000 -0.000000 1.000976 0.290859 0.256017
  9 9.024061 0.000001 0.000002 0.000000 0.000000 0.000000
 10 0.355481 0.060836 1.694897 -0.548849 -1.061927 -2.287306
 11 6.384776 -0.000001 -0.000004 -0.919430 -0.223022 -1.561691
 12 10.242681 0.000000 0.000000 0.000000 -0.000000 -1.269020
 13 11.375562 0.000001 0.000001 -1.743230 -0.483305 0.524067
 14 0.728680 0.023431 -1.008293 1.051563 0.167831 0.364467
 15 2.136497 -0.000001 0.000001 0.000000 -0.000000 -0.078540
 16 2.313140 0.000001 -0.000000 0.000000 0.000000 0.000000
 17 3.115505 -0.886041 -0.021430 -0.620285 0.000392 0.514872
 18 2.011151 0.000000 -0.000001 0.000000 0.000000 1.322792
 19 2.141379 -0.000002 -0.000001 0.000000 0.000000 0.000000
 20 1.734172 0.000001 -0.000001 -0.000000 -0.000000 0.660693
 21 0.000005 -4.440594 -0.000000 1.570544 -0.062990 -0.195737
 22 6.000000 0.000001 -0.000000 -1.678598 0.000000 -0.000000
 23 0.000001 -4.440600 -0.000000 1.569944 -0.062987 0.004053
 24 11.375563 -0.000001 0.000005 -1.622877 -0.258267 0.255039
 25 -0.000001 -4.440603 -0.000000 1.570144 -0.062988 0.004040
 26 10.510131 0.000000 -0.000001 -0.000000 -0.000000 -2.205306
 27 0.000000 -1.748399 4.999998 -0.000000 0.004007 1.602291
 28 5.500000 -0.000001 0.000000 0.358990 0.000000 -0.000000
 29 -0.000001 -1.940598 5.000000 -0.044472 0.004003 -0.000180
 30 6.551491 0.000001 -0.000000 -0.698982 -0.079070 -1.150869
 31 -0.000000 -1.940598 4.999998 -0.027189 -0.053376 0.005295
 32 6.551491 0.000001 -0.000000 -0.280018 0.063110 -0.448799
 33 -0.000000 -1.940599 4.999996 -0.066572 -0.152786 -0.110311
 34 -0.355476 -0.053760 -1.694897 1.843191 1.287345 -0.812393
 35 6.384777 0.000001 -0.000000 0.568715 0.239350 -1.924444
 36 10.242681 0.000000 -0.000001 0.000000 0.000000 -1.558141
 37 11.375561 -0.000000 -0.000003 2.285357 0.162598 0.400992
 38 0.728682 0.023431 1.008293 -1.579583 -0.319038 0.212973
 39 2.136498 -0.000001 -0.000000 0.000000 -0.000000 1.282817
 40 2.313139 0.000001 -0.000000 0.000000 0.000000 3.141593
 41 3.115509 -0.886041 0.021433 0.420766 0.316066 0.167178
 42 2.011150 -0.000000 0.000002 -0.000000 -0.000000 2.082010
 43 2.141380 0.000001 0.000002 0.000000 0.000000 3.141593
 44 1.734172 -0.000001 0.000001 -0.000000 -0.000000 1.041748
 45 0.136313 -3.738193 2.525891 1.493698 2.759406 -1.474501
 46 2.209801 -0.209226 0.899084 1.570711 0.171029 -0.002271
 47 11.389365 -0.000819 0.158781 1.919894 0.125893 0.202659
 48 0.000003 -4.440600 0.000001 1.570144 -3.078602 0.004040
 49 6.000000 -0.000000 -0.000002 1.919894 -0.000000 0.000000
 50 0.000002 -4.440602 0.000001 1.569944 -3.078603 0.004053
 51 10.510132 0.000001 0.000000 0.000000 0.000000 -2.349867
 52 0.000000 -1.748400 -5.000000 -3.141593 0.004007 -1.539299
 53 5.499999 -0.000001 -0.000001 -0.179134 -0.000000 -0.000000
 54 0.000001 0.000001 -4.999999 -0.044472 3.137589 -0.000177
 55 6.551491 -0.000000 0.000001 0.179134 -0.036429 -0.511877
 56 -1.266844 -1.937442 -4.950560 -0.066572 -2.988806 -0.110308
 57 6.551492 0.000000 0.000001 0.179134 -0.036429 -0.511877
 58 0.699371 -1.944209 -5.006845 -0.027189 -3.088217 0.005298
 59 4.226147 -0.003203 0.000000 0.011880 -0.130311 -0.271071
 60 -0.000000 5.000001 -0.000001 -0.153564 0.000087 2.718702
 61 0.000006 -0.000006 -3.713579 0.044702 -3.107632 -0.773881
 62 0.000001 0.000000 4.999999 3.053196 1.558589 -0.074928
 63 -0.000005 0.000005 3.713580 -0.261147 -2.772701 -0.785718
 64 -0.000000 -0.000000 -5.000000 -0.088724 1.558589 3.066336
 65 7.363603 1.646646 0.495663 -3.141593 -1.570796 0.000000
 66 -0.000005 0.000005 3.619081 2.969053 -0.782505 1.479001
 67 16.573919 -0.000001 0.000002 -0.000000 0.000000 -1.876372
 68 15.128181 0.000001 0.000000 -0.018001 0.068546 -0.104603
 69 5.758664 4.244730 0.000000 0.000000 -0.000000 1.999874
 70 3.177726 0.000000 -0.000000 0.000000 0.000000 3.141593
 71 15.708953 0.000000 -0.000000 -0.008312 0.038557 -0.055958
 72 0.275148 0.189215 -3.445208 3.130898 0.000409 -1.514604
 73 17.210192 -0.000002 0.000001 0.000000 0.000000 -2.258084
 74 -0.000000 -0.000002 -5.000000 -0.079430 1.546568 -1.570855
 75 0.000007 -0.000004 -3.619079 0.079930 -3.113342 -1.307657
 76 16.573919 -0.000000 0.000001 0.000000 0.000000 -1.568369
 77 15.128181 0.000000 0.000002 0.081503 0.075001 0.642000
 78 5.758665 4.244731 -0.000000 -0.000000 -0.000000 1.702788
 79 4.003934 -0.000000 -0.000000 0.000000 0.000000 0.000000
 80 15.708955 0.000001 0.000001 0.052600 0.061125 0.439646
 81 0.273998 0.191090 3.439761 -3.130907 -0.000437 -1.508106
 82 17.210192 -0.000000 -0.000000 -0.000000 -0.000000 -2.119483
 83 0.000000 0.000001 5.000000 -0.079314 1.595025 -1.570739
time 4
  0 0.500000 13.522099 26.931471 -0.243067 0.535714 -2.432935
  1 13.855121 5.617515 -22.654022 -0.544290 0.221328 2.303921
  2 -2.276936 0.000004 -1.238185 -1.570795 -1.570451 0.000000
  3 1.797440 0.711935 -0.000907 0.280915 0.091609 0.120199
  4 4.118807 -0.002919 -0.001478 0.469430 -0.084450 0.026953
  5 4.119061 -0.002971 -0.001313 0.415612 -0.125776 0.096652
  6 4.119060 -0.002968 -0.001319 0.422811 -0.197875 0.065101
  7 4.117197 -0.003243 -0.000116 0.033796 -0.206621 -0.416696
  8 4.443598 0.000000 0.000000 0.965206 0.324175 0.241155
  9 9.024063 0.000001 0.000001 0.000000 0.000000 0.000000
 10 0.355477 0.060836 1.694896 -0.548849 -1.061927 -2.287306
 11 6.384777 0.000000 0.000002 -0.889605 -0.263411 -1.619701
 12 10.242682 -0.000001 0.000003 0.000000 0.000000 -1.185007
 13 11.375560 0.000001 -0.000001 -1.736660 -0.466343 0.483993
 14 0.728681 0.023432 -1.008291 1.051563 0.167831 0.364467
 15 2.136498 -0.000001 -0.000000 -0.000000 0.000000 -0.078540
 16 2.313141 -0.000001 0.000000 0.000000 0.000000 0.000000
 17 3.115509 -0.886041 -0.021433 -0.620285 0.000392 0.514872
 18 2.011148 -0.000000 -0.000001 0.000000 0.000000 1.322792
 19 2.141380 -0.000000 -0.000000 0.000000 0.000000 0.000000
 20 1.734171 0.000000 -0.000002 -0.000000 -0.000000 0.660693
 21 0.000005 -4.440593 -0.000001 1.570544 -0.062990 -0.195737
 22 6.000000 -0.000000 -0.000001 -1.676908 0.000000 -0.000000
 23 -0.000000 -4.440602 0.000001 1.569944 -0.062987 0.004053
 24 11.375562 -0.000000 0.000002 -1.623740 -0.249753 0.238135
 25 -0.000000 -4.440603 0.000001 1.570144 -0.062988 0.004040
 26 10.510130 -0.000000 0.000003 -0.000000 0.000000 -2.163300
 27 -0.000001 -1.748402 4.999997 -0.000000 0.004007 1.602291
 28 5.499999 -0.000001 0.000003 0.349212 -0.000000 0.000000
 29 -0.000001 -1.940598 5.000002 -0.044472 0.004003 -0.000180
 30 6.551491 0.000000 0.000003 -0.684720 -0.116861 -1.240977
 31 0.000000 -1.940599 5.000000 -0.027189 -0.053376 0.005295
 32 6.551491 0.000000 0.000003 -0.269402 0.052771 -0.466314
 33 -0.000001 -1.940600 4.999998 -0.066572 -0.152786 -0.110311
 34 -0.355475 -0.053760 -1.694896 1.843191 1.287345 -0.812393
 35 6.384777 -0.000001 0.000000 0.595470 0.243859 -1.908121
 36 10.242682 -0.000001 -0.000001 0.000000 0.000000 -1.559146
 37 11.375557 0.000001 0.000002 2.287570 0.177405 0.414075
 38 0.728683 0.023431 1.008293 -1.579583 -0.319038 0.212973
 39 2.136496 -0.000001 0.000000 0.000000 0.000000 1.282817
 40 2.313139 -0.000002 -0.000000 0.000000 0.000000 3.141593
 41 3.115508 -0.886041 0.021432 0.420766 0.316066 0.167178
 42 2.011150 -0.000001 0.000001 -0.000000 -0.000000 2.082010
 43 2.141380 -0.000002 0.000002 0.000000 0.000000 3.141593
 44 1.734171 -0.000002 -0.000000 0.000000 0.000000 1.041748
 45 0.136316 -3.738193 2.525891 1.493698 2.759406 -1.474501
 46 2.209801 -0.209225 0.899084 1.570711 0.171029 -0.002271
 47 11.389366 -0.000820 0.158781 1.919750 0.134535 0.207319
 48 0.000002 -4.440599 0.000001 1.570144 -3.078602 0.004040
 49 5.999999 -0.000000 0.000000 1.919751 -0.000000 0.000000
 50 0.000002 -4.440602 0.000000 1.569944 -3.078602 0.004053
 51 10.510132 -0.000001 -0.000000 0.000000 0.000000 -2.350369
 52 0.000001 -1.748399 -5.000001 -3.141593 0.004007 -1.539299
 53 5.500000 0.000001 0.000001 -0.185032 0.000000 0.000000
 54 0.000001 0.000000 -5.000000 -0.044472 3.137589 -0.000177
 55 6.551490 0.000001 -0.000002 0.185032 -0.039090 -0.510360
 56 -1.266844 -1.937443 -4.950561 -0.066572 -2.988806 -0.110308
 57 6.551491 0.000000 -0.000002 0.185032 -0.039090 -0.510360
 58 0.699371 -1.944208 -5.006848 -0.027189 -3.088217 0.005298
 59 4.226147 -0.003201 0.000001 0.011880 -0.130311 -0.271071
 60 0.000001 5.000001 -0.000000 -0.153564 0.000087 2.718702
 61 0.000006 -0.000006 -3.713579 0.010699 3.106060 -0.729378
 62 0.000003 0.000001 4.999999 3.053195 1.558589 -0.074929
 63 -0.000005 0.000005 3.713580 -0.253268 -2.767493 -0.829692
 64 0.000000 0.000000 -5.000000 -0.088726 1.558589 3.066334
 65 7.363603 1.646646 0.495663 -3.141593 -1.570796 0.000000
 66 -0.000005 0.000005 3.619081 3.008548 -0.773315 1.373526
 67 16.573919 -0.000000 -0.000001 0.000000 -0.000000 -1.756202
 68 15.128180 -0.000000 0.000001 -0.024444 0.100512 -0.039152
 69 5.758667 4.244732 0.000000 0.000000 -0.000000 1.964268
 70 3.177726 -0.000000 -0.000000 0.000000 0.000000 3.141593
 71 15.708954 0.000000 0.000001 -0.011857 0.056262 -0.020696
 72 0.275148 0.189215 -3.445208 3.130898 0.000409 -1.514604
 73 17.210194 -0.000001 -0.000001 0.000000 -0.000000 -2.204007
 74 -0.000001 -0.000001 -5.000000 -0.079430 1.546568 -1.570856
 75 0.000007 -0.000004 -3.619079 0.000197 3.096765 -1.242343
 76 16.573917 -0.000001 0.000002 -0.000000 0.000000 -1.526718
 77 15.128181 0.000001 0.000000 -0.010800 0.166980 0.553213
 78 5.758665 4.244731 -0.000000 -0.000000 0.000000 1.775873
 79 4.003934 -0.000000 0.000001 0.000000 0.000000 0.000000
 80 15.708954 0.000002 -0.000001 -0.015050 0.119918 0.381082
 81 0.273998 0.191090 3.439762 -3.130907 -0.000437 -1.508106
 82 17.210192 -0.000002 0.000002 -0.000000 0.000000 -2.100740
 83 0.000000 -0.000001 5.000000 -0.079311 1.595025 -1.570737
end
