version 1
nodes
  0 "Bip01"  -1
  1 "Bip01 Footsteps"   0
  2 "Bip01 Pelvis"   0
  3 "Bip01 Spine"   2
  4 "Bip01 Spine1"   3
  5 "Bip01 Spine2"   4
  6 "Bip01 Spine3"   5
  7 "Bip01 Neck"   6
  8 "Bip01 Head"   7
  9 "Dummy21"   8
 10 "Bip01 L Clavicle"   7
 11 "Bip01 L UpperArm"  10
 12 "Bip01 L Forearm"  11
 13 "Bip01 L Hand"  12
 14 "Bip01 L Finger0"  13
 15 "Bip01 L Finger01"  14
 16 "Dummy06"  15
 17 "Bip01 L Finger1"  13
 18 "Bip01 L Finger11"  17
 19 "Dummy03"  18
 20 "-- L knuckle"  17
 21 "-- L knuckle_end"  20
 22 "-- L Forearm twist"  12
 23 "-- L Forearm twist_end"  22
 24 "-- L wrist"  12
 25 "-- L wrist_end"  24
 26 "-- L Elbow"  11
 27 "--L Elbow_end"  26
 28 "-- L bicep twist"  11
 29 "-- L bicep twist_end"  28
 30 "-- L shoulder outside"  10
 31 "-- L shoulder outside_end"  30
 32 "-- L Shoulder inside"  10
 33 "-- L Shoulder inside_end"  32
 34 "Bip01 R Clavicle"   7
 35 "Bip01 R UpperArm"  34
 36 "Bip01 R Forearm"  35
 37 "Bip01 R Hand"  36
 38 "Bip01 R Finger0"  37
 39 "Bip01 R Finger01"  38
 40 "Dummy01"  39
 41 "Bip01 R Finger1"  37
 42 "Bip01 R Finger11"  41
 43 "Dummy02"  42
 44 "-- R knuckle"  41
 45 "Point06"  44
 46 "Steyr Aug"  37
 47 "-- R wrist"  36
 48 "-- R wrist_end"  47
 49 "-- R forearm twist"  36
 50 "-- R forearm twist_end"  49
 51 "-- R Elbow"  35
 52 "--R Elbow_end"  51
 53 "-- R bicep twist"  35
 54 "-- R bicep twist_end"  53
 55 "-- R Shoulder inside"  34
 56 "-- R Shoulder inside_end"  55
 57 "-- R shoulder outside"  34
 58 "-- R shoulder outside_end"  57
 59 "-- Neck smooth"   6
 60 "-- neck smooth end"  59
 61 "-- R Butt"   2
 62 "--R Butt_end"  61
 63 "-- L butt"   2
 64 "--L butt_end"  63
 65 "GIGN01"   2
 66 "Bip01 L Thigh"   2
 67 "Bip01 L Calf"  66
 68 "Bip01 L Foot"  67
 69 "Bip01 L Toe0"  68
 70 "Dummy16"  69
 71 "-- L ankle"  67
 72 "-- L ankleend"  71
 73 "-- L Knee"  66
 74 "--L Knee_end"  73
 75 "Bip01 R Thigh"   2
 76 "Bip01 R Calf"  75
 77 "Bip01 R Foot"  76
 78 "Bip01 R Toe0"  77
 79 "Dummy11"  78
 80 "-- R Ankle"  76
 81 "-- R ankleend"  80
 82 "-- R Knee"  75
 83 "--R Knee_end"  82
end
skeleton
time 0
  0 0.500000 13.522099 26.931471 -0.243067 0.535714 -2.432935
  1 13.773751 5.584523 -22.520975 -0.544290 0.221328 2.303921
  2 -2.276934 0.000003 -1.238185 -1.570795 -1.570451 0.000000
  3 1.796038 0.712012 0.000380 -0.117324 0.125190 -0.361846
  4 4.119705 -0.001832 -0.002486 0.872996 -0.147359 0.369795
  5 4.119311 -0.002509 0.001989 -0.652239 0.045758 0.239462
  6 4.119601 -0.002346 0.002065 -0.814126 0.522938 -0.084628
  7 4.120419 -0.002928 0.000812 -0.242669 0.300523 0.481608
  8 4.443598 0.000000 -0.000001 0.417667 0.180609 -0.670434
  9 9.024060 0.000001 0.000000 0.000000 0.000000 0.000000
 10 -0.512921 -0.394166 1.606569 -0.564477 -1.278068 -3.119280
 11 6.384777 0.000000 0.000002 0.058971 -0.374924 -1.456331
 12 10.242682 0.000000 0.000001 -0.000000 -0.000000 -0.875691
 13 11.375562 0.000002 -0.000001 -2.753328 -0.279871 0.538941
 14 0.728681 0.023431 -1.008292 1.051563 0.167831 0.364467
 15 2.136497 0.000001 0.000002 -0.000000 -0.000000 -0.078540
 16 2.313139 -0.000000 -0.000002 0.000000 0.000000 0.000000
 17 3.115506 -0.886041 -0.021433 -0.620285 0.000392 0.514872
 18 2.011151 0.000001 -0.000002 -0.000000 0.000000 1.322792
 19 2.141379 0.000001 0.000001 0.000000 0.000000 0.000000
 20 1.734171 0.000000 0.000001 0.000000 0.000000 0.660693
 21 0.000007 -4.440592 -0.000000 1.570544 -0.062990 -0.195737
 22 6.000000 -0.000001 0.000001 -2.480000 -0.000000 0.000000
 23 0.000001 -4.440602 0.000000 1.569944 -0.062987 0.004053
 24 11.375561 0.000001 0.000003 -2.136849 -0.231271 0.231141
 25 -0.000002 -4.440603 -0.000001 1.570144 -0.062988 0.004040
 26 10.510131 0.000001 -0.000000 0.000000 0.000000 -2.008641
 27 0.000001 -1.748401 5.000000 -0.000000 0.004007 1.602290
 28 5.500000 -0.000000 0.000002 0.034654 0.000000 0.000000
 29 -0.000002 -1.940599 5.000001 -0.044472 0.004003 -0.000180
 30 6.551493 -0.000000 0.000001 -0.004290 -0.304506 -0.876649
 31 -0.000001 -1.940599 5.000003 -0.027189 -0.053376 0.005295
 32 6.551493 -0.000000 0.000001 -0.034329 -0.137384 -0.392438
 33 -0.000000 -1.940599 4.999997 -0.066572 -0.152786 -0.110311
 34 0.512922 0.401244 -1.606570 -0.225691 1.218586 2.395232
 35 6.384777 -0.000002 0.000002 0.097495 -0.019955 -1.240937
 36 10.242682 0.000001 -0.000001 -0.000000 0.000000 -1.813003
 37 11.375562 -0.000000 -0.000001 2.617579 0.331293 0.775691
 38 0.728680 0.023430 1.008292 -1.579583 -0.319038 0.212973
 39 2.136497 -0.000002 0.000000 -0.000000 0.000000 1.282817
 40 2.313140 0.000000 0.000001 0.000000 0.000000 3.141593
 41 3.115506 -0.886042 0.021430 0.420765 0.316066 0.167178
 42 2.011150 -0.000000 0.000000 -0.000000 -0.000000 2.082010
 43 2.141379 -0.000000 0.000000 0.000000 0.000000 3.141593
 44 1.734173 -0.000001 0.000002 -0.000000 -0.000000 1.041748
 45 0.136315 -3.738192 2.525892 1.493698 2.759406 -1.474501
 46 2.209800 -0.209226 0.899085 1.570711 0.171029 -0.002271
 47 11.389365 -0.000820 0.158778 2.049894 0.263177 0.336294
 48 -0.000000 -4.440599 0.000002 1.570144 -3.078602 0.004040
 49 5.999999 0.000000 -0.000001 2.049894 -0.000000 0.000000
 50 0.000002 -4.440599 -0.000000 1.569944 -3.078603 0.004053
 51 10.510130 -0.000000 0.000002 0.000000 -0.000000 -2.477298
 52 0.000001 -1.748400 -4.999998 -3.141593 0.004007 -1.539299
 53 5.500000 0.000001 -0.000001 -0.034314 0.000000 -0.000000
 54 -0.000001 0.000001 -5.000002 -0.044472 3.137589 -0.000177
 55 6.551492 0.000001 -0.000002 0.034314 -0.027011 -0.330811
 56 -1.266843 -1.937444 -4.950559 -0.066572 -2.988806 -0.110308
 57 6.551492 0.000001 -0.000002 0.034314 -0.027011 -0.330811
 58 0.699371 -1.944208 -5.006848 -0.027189 -3.088217 0.005298
 59 4.226146 -0.003201 0.000000 -0.000000 -0.000000 -0.000000
 60 0.000000 5.000000 -0.000001 -0.153564 0.000087 2.718702
 61 0.000006 -0.000004 -3.713579 0.119535 -2.936655 -0.885276
 62 0.000003 0.000000 5.000000 3.053195 1.558589 -0.074929
 63 -0.000005 0.000006 3.713580 -0.311487 -2.845558 -0.582080
 64 0.000002 0.000000 -5.000000 -0.088728 1.558589 3.066333
 65 7.363603 1.646648 0.495664 -3.141593 -1.570796 0.000000
 66 -0.000005 0.000007 3.619082 -0.441735 -2.434423 -1.159240
 67 16.573921 -0.000000 0.000001 -0.000000 0.000000 -2.011748
 68 15.128181 -0.000000 -0.000000 0.026832 0.026147 -0.175154
 69 5.758666 4.244731 -0.000000 0.000000 -0.000000 2.033309
 70 3.177726 0.000001 0.000000 0.000000 0.000000 3.141593
 71 15.708952 0.000002 -0.000001 0.013957 0.013894 -0.093781
 72 0.275149 0.189215 -3.445208 3.130898 0.000409 -1.514604
 73 17.210192 -0.000001 0.000001 -0.000000 -0.000000 -2.319003
 74 0.000000 -0.000001 -5.000000 -0.079433 1.546568 -1.570857
 75 0.000007 -0.000003 -3.619079 0.260448 -2.945758 -1.468642
 76 16.573919 -0.000000 0.000001 0.000000 -0.000000 -1.562392
 77 15.128181 0.000000 0.000001 0.265624 -0.173430 0.666428
 78 5.758665 4.244731 0.000000 -0.000000 0.000000 1.483530
 79 4.003934 -0.000000 0.000000 0.000000 0.000000 0.000000
 80 15.708953 0.000000 0.000001 0.195074 -0.100553 0.460486
 81 0.273998 0.191090 3.439762 -3.130907 -0.000437 -1.508107
 82 17.210194 -0.000000 0.000000 -0.000000 -0.000000 -2.116793
 83 0.000001 0.000000 5.000000 -0.079311 1.595025 -1.570736
time 1
  0 0.605126 12.554065 27.058928 -0.242556 0.539682 -2.432187
  1 13.931220 5.586108 -22.576725 -0.547022 0.223894 2.301739
  2 -2.276935 0.000003 -1.238187 -1.570795 -1.570451 0.000000
  3 1.796035 0.712012 0.000379 -0.117324 0.125190 -0.361846
  4 4.119710 -0.001832 -0.002486 0.872996 -0.147359 0.369795
  5 4.119309 -0.002508 0.001988 -0.652240 0.045758 0.239462
  6 4.119602 -0.002345 0.002067 -0.814126 0.522938 -0.084628
  7 4.120417 -0.002926 0.000813 -0.242669 0.300523 0.481608
  8 4.443598 0.000002 0.000000 0.417667 0.180609 -0.670434
  9 9.024059 0.000001 -0.000000 0.000000 0.000000 0.000000
 10 -0.512921 -0.394167 1.606569 -0.564477 -1.278068 -3.119280
 11 6.384778 0.000000 0.000002 0.058971 -0.374924 -1.456332
 12 10.242682 0.000001 0.000002 -0.000000 -0.000000 -0.875690
 13 11.375562 0.000001 -0.000003 -2.753328 -0.279871 0.538941
 14 0.728680 0.023431 -1.008289 1.051563 0.167831 0.364467
 15 2.136498 -0.000001 -0.000000 -0.000000 -0.000000 -0.078540
 16 2.313139 0.000002 0.000001 0.000000 0.000000 0.000000
 17 3.115506 -0.886041 -0.021431 -0.620285 0.000392 0.514872
 18 2.011151 -0.000002 -0.000000 0.000000 -0.000000 1.322792
 19 2.141379 0.000000 0.000001 0.000000 0.000000 0.000000
 20 1.734173 -0.000000 0.000000 -0.000000 0.000000 0.660693
 21 0.000005 -4.440596 -0.000000 1.570544 -0.062990 -0.195737
 22 6.000000 -0.000001 -0.000001 -2.480000 0.000000 -0.000000
 23 0.000003 -4.440602 -0.000000 1.569944 -0.062987 0.004053
 24 11.375563 0.000000 0.000001 -2.136850 -0.231270 0.231141
 25 -0.000000 -4.440605 -0.000000 1.570144 -0.062988 0.004040
 26 10.510131 0.000001 0.000000 -0.000000 0.000000 -2.008641
 27 0.000001 -1.748401 5.000000 0.000000 0.004007 1.602291
 28 5.500000 -0.000000 0.000003 0.034654 0.000000 0.000000
 29 -0.000001 -1.940597 5.000001 -0.044472 0.004003 -0.000180
 30 6.551494 -0.000000 0.000001 -0.004290 -0.304507 -0.876650
 31 0.000001 -1.940599 5.000000 -0.027189 -0.053376 0.005295
 32 6.551494 -0.000000 0.000001 -0.034329 -0.137384 -0.392439
 33 0.000001 -1.940600 4.999997 -0.066572 -0.152786 -0.110311
 34 0.512922 0.401245 -1.606569 -0.225691 1.218586 2.395232
 35 6.384778 0.000000 -0.000002 0.097495 -0.019955 -1.240937
 36 10.242682 -0.000000 0.000003 -0.000000 0.000000 -1.813003
 37 11.375563 -0.000001 -0.000004 2.617579 0.331293 0.775691
 38 0.728680 0.023432 1.008292 -1.579583 -0.319038 0.212973
 39 2.136497 0.000001 -0.000000 -0.000000 0.000000 1.282817
 40 2.313140 -0.000001 0.000000 0.000000 0.000000 3.141593
 41 3.115506 -0.886040 0.021432 0.420766 0.316066 0.167178
 42 2.011149 0.000001 0.000002 -0.000000 0.000000 2.082010
 43 2.141378 -0.000001 -0.000002 0.000000 0.000000 3.141593
 44 1.734172 -0.000000 0.000002 -0.000000 0.000000 1.041748
 45 0.136316 -3.738193 2.525889 1.493698 2.759406 -1.474501
 46 2.209801 -0.209224 0.899084 1.570711 0.171029 -0.002271
 47 11.389369 -0.000819 0.158782 2.049894 0.263177 0.336294
 48 -0.000000 -4.440598 -0.000001 1.570144 -3.078602 0.004040
 49 6.000001 0.000000 0.000001 2.049894 0.000000 0.000000
 50 0.000001 -4.440602 0.000001 1.569944 -3.078603 0.004053
 51 10.510131 0.000001 0.000001 -0.000000 0.000000 -2.477298
 52 0.000000 -1.748400 -5.000001 3.141593 0.004007 -1.539299
 53 5.499999 0.000001 -0.000000 -0.034314 -0.000000 0.000000
 54 -0.000000 -0.000000 -5.000000 -0.044472 3.137590 -0.000177
 55 6.551492 -0.000001 -0.000001 0.034314 -0.027011 -0.330811
 56 -1.266844 -1.937443 -4.950563 -0.066572 -2.988806 -0.110308
 57 6.551493 -0.000001 -0.000001 0.034314 -0.027011 -0.330811
 58 0.699371 -1.944209 -5.006850 -0.027189 -3.088217 0.005298
 59 4.226146 -0.003199 0.000000 0.000000 0.000000 -0.000000
 60 0.000002 5.000000 -0.000001 -0.153564 0.000087 2.718702
 61 0.000005 -0.000004 -3.713580 0.123976 -2.972045 -0.870829
 62 0.000001 -0.000000 5.000000 3.053198 1.558589 -0.074926
 63 -0.000005 0.000006 3.713580 -0.290572 -2.809233 -0.650002
 64 0.000002 0.000000 -5.000001 -0.088725 1.558589 3.066336
 65 7.363605 1.646647 0.495663 -3.141593 -1.570796 0.000000
 66 -0.000004 0.000006 3.619081 -0.336597 -2.380876 -1.328841
 67 16.573923 0.000001 0.000002 -0.000000 -0.000000 -2.016458
 68 15.128182 -0.000003 -0.000001 0.021498 0.024223 -0.207406
 69 5.758665 4.244730 0.000000 0.000000 -0.000000 2.033309
 70 3.177726 0.000001 0.000000 0.000000 0.000000 3.141593
 71 15.708952 -0.000001 -0.000000 0.011327 0.012829 -0.110742
 72 0.275148 0.189215 -3.445208 3.130898 0.000409 -1.514604
 73 17.210196 0.000001 0.000002 -0.000000 0.000000 -2.321123
 74 0.000000 -0.000001 -5.000000 -0.079431 1.546565 -1.570855
 75 0.000005 -0.000002 -3.619079 0.251674 -2.986879 -1.445871
 76 16.573923 0.000002 0.000001 -0.000000 -0.000000 -1.579014
 77 15.128181 -0.000002 -0.000000 0.231377 -0.134235 0.685060
 78 5.758665 4.244731 -0.000001 -0.000000 -0.000000 1.483530
 79 4.003935 0.000000 -0.000001 0.000000 0.000000 0.000000
 80 15.708954 -0.000002 0.000001 0.169631 -0.074795 0.471460
 81 0.273998 0.191090 3.439762 -3.130907 -0.000437 -1.508106
 82 17.210196 0.000003 0.000000 0.000000 -0.000000 -2.124273
 83 0.000001 0.000001 5.000000 -0.079314 1.595025 -1.570739
time 2
  0 0.896432 10.049186 27.340256 -0.240916 0.545421 -2.428053
  1 14.125999 5.554108 -22.606318 -0.550978 0.226668 2.296044
  2 -2.276936 0.000003 -1.238186 -1.570795 -1.570451 0.000000
  3 1.796037 0.712010 0.000379 -0.117324 0.125190 -0.361846
  4 4.119706 -0.001832 -0.002487 0.872996 -0.147359 0.369795
  5 4.119312 -0.002511 0.001989 -0.652240 0.045758 0.239462
  6 4.119601 -0.002345 0.002066 -0.814126 0.522938 -0.084628
  7 4.120417 -0.002929 0.000813 -0.242669 0.300523 0.481608
  8 4.443598 -0.000000 0.000001 0.417667 0.180609 -0.670434
  9 9.024061 -0.000001 -0.000000 0.000000 0.000000 0.000000
 10 -0.512921 -0.394167 1.606570 -0.564477 -1.278068 -3.119280
 11 6.384779 -0.000002 -0.000001 0.058971 -0.374924 -1.456332
 12 10.242682 0.000000 0.000002 -0.000000 -0.000000 -0.875690
 13 11.375561 0.000001 -0.000001 -2.753328 -0.279871 0.538941
 14 0.728681 0.023431 -1.008292 1.051563 0.167831 0.364467
 15 2.136497 -0.000000 -0.000000 -0.000000 -0.000000 -0.078540
 16 2.313138 0.000001 0.000001 0.000000 0.000000 0.000000
 17 3.115507 -0.886041 -0.021429 -0.620285 0.000392 0.514872
 18 2.011149 -0.000000 0.000001 -0.000000 -0.000000 1.322791
 19 2.141380 -0.000001 0.000000 0.000000 0.000000 0.000000
 20 1.734173 0.000001 -0.000002 -0.000000 0.000000 0.660693
 21 0.000006 -4.440593 0.000002 1.570544 -0.062990 -0.195737
 22 6.000000 0.000001 0.000000 -2.480000 0.000000 -0.000000
 23 0.000001 -4.440600 -0.000001 1.569944 -0.062987 0.004053
 24 11.375562 0.000001 0.000003 -2.136850 -0.231270 0.231140
 25 0.000001 -4.440604 -0.000001 1.570144 -0.062988 0.004040
 26 10.510131 0.000001 -0.000000 -0.000000 0.000000 -2.008641
 27 -0.000001 -1.748401 4.999999 -0.000000 0.004007 1.602291
 28 5.500000 0.000001 -0.000000 0.034654 -0.000000 -0.000000
 29 -0.000002 -1.940599 5.000001 -0.044472 0.004003 -0.000180
 30 6.551493 -0.000002 -0.000001 -0.004290 -0.304507 -0.876650
 31 0.000001 -1.940599 5.000000 -0.027189 -0.053376 0.005295
 32 6.551493 -0.000002 -0.000001 -0.034329 -0.137384 -0.392438
 33 -0.000002 -1.940599 4.999998 -0.066572 -0.152786 -0.110311
 34 0.512921 0.401246 -1.606566 -0.225691 1.218586 2.395232
 35 6.384778 0.000000 -0.000002 0.097495 -0.019955 -1.240937
 36 10.242682 -0.000000 0.000003 -0.000000 0.000000 -1.813003
 37 11.375563 0.000000 -0.000001 2.617579 0.331293 0.775691
 38 0.728681 0.023430 1.008290 -1.579583 -0.319038 0.212973
 39 2.136499 -0.000001 0.000000 -0.000000 -0.000000 1.282817
 40 2.313140 0.000000 0.000000 0.000000 0.000000 3.141593
 41 3.115507 -0.886041 0.021428 0.420766 0.316066 0.167178
 42 2.011150 0.000001 0.000002 -0.000000 -0.000000 2.082010
 43 2.141378 0.000000 -0.000002 0.000000 0.000000 3.141593
 44 1.734172 -0.000001 0.000001 0.000000 0.000000 1.041748
 45 0.136315 -3.738193 2.525890 1.493698 2.759406 -1.474501
 46 2.209802 -0.209226 0.899082 1.570711 0.171029 -0.002271
 47 11.389367 -0.000819 0.158781 2.049894 0.263177 0.336294
 48 0.000000 -4.440599 0.000001 1.570144 -3.078602 0.004040
 49 6.000000 0.000001 -0.000000 2.049894 -0.000000 -0.000000
 50 0.000002 -4.440601 -0.000000 1.569944 -3.078603 0.004053
 51 10.510130 -0.000000 0.000002 0.000000 0.000000 -2.477298
 52 0.000001 -1.748401 -5.000001 3.141593 0.004007 -1.539299
 53 5.500000 -0.000001 0.000002 -0.034314 -0.000000 -0.000000
 54 -0.000001 0.000001 -5.000000 -0.044472 3.137589 -0.000177
 55 6.551491 0.000000 -0.000001 0.034314 -0.027011 -0.330811
 56 -1.266843 -1.937443 -4.950561 -0.066572 -2.988806 -0.110308
 57 6.551492 -0.000000 -0.000001 0.034314 -0.027011 -0.330811
 58 0.699370 -1.944208 -5.006847 -0.027189 -3.088217 0.005298
 59 4.226146 -0.003202 0.000000 0.000000 0.000000 -0.000000
 60 0.000001 5.000001 0.000000 -0.153564 0.000087 2.718702
 61 0.000004 -0.000006 -3.713580 0.087591 -3.032594 -0.828141
 62 0.000003 0.000000 5.000000 3.053197 1.558589 -0.074927
 63 -0.000005 0.000004 3.713579 -0.271390 -2.783167 -0.729869
 64 -0.000000 -0.000000 -5.000000 -0.088725 1.558589 3.066335
 65 7.363605 1.646645 0.495663 -3.141593 -1.570796 0.000000
 66 -0.000004 0.000004 3.619081 -0.230975 -2.357449 -1.527244
 67 16.573921 0.000001 0.000001 -0.000000 0.000000 -1.964389
 68 15.128181 0.000002 0.000000 0.000009 0.040731 -0.172478
 69 5.758665 4.244731 0.000000 0.000000 -0.000000 2.024514
 70 3.177726 -0.000000 0.000000 0.000000 0.000000 3.141593
 71 15.708952 0.000002 0.000000 0.000717 0.022702 -0.092252
 72 0.275149 0.189216 -3.445208 3.130898 0.000409 -1.514604
 73 17.210194 -0.000001 0.000001 -0.000000 0.000000 -2.297692
 74 0.000000 0.000000 -5.000000 -0.079430 1.546568 -1.570856
 75 0.000004 -0.000005 -3.619080 0.174013 -3.041866 -1.385115
 76 16.573921 -0.000002 -0.000000 0.000000 0.000000 -1.585591
 77 15.128181 0.000001 0.000002 0.167127 -0.040172 0.677768
 78 5.758665 4.244731 -0.000000 -0.000000 -0.000000 1.556616
 79 4.003933 0.000000 0.000000 0.000000 0.000000 0.000000
 80 15.708954 0.000001 0.000001 0.119085 -0.013424 0.464871
 81 0.273998 0.191090 3.439762 -3.130907 -0.000437 -1.508107
 82 17.210192 -0.000001 0.000000 0.000000 -0.000000 -2.127232
 83 0.000001 0.000001 5.000000 -0.079311 1.595025 -1.570737
time 3
  0 1.292292 6.956971 27.689747 -0.239090 0.551607 -2.423499
  1 14.372244 5.531480 -22.692986 -0.555267 0.229618 2.289829
  2 -2.276936 0.000003 -1.238186 -1.570795 -1.570451 0.000000
  3 1.796037 0.712011 0.000379 -0.117324 0.125190 -0.361846
  4 4.119706 -0.001832 -0.002486 0.872996 -0.147359 0.369795
  5 4.119313 -0.002513 0.001989 -0.652240 0.045758 0.239462
  6 4.119600 -0.002345 0.002066 -0.814126 0.522938 -0.084628
  7 4.120414 -0.002925 0.000814 -0.242669 0.300523 0.481608
  8 4.443600 -0.000000 -0.000001 0.417667 0.180609 -0.670434
  9 9.024059 0.000000 -0.000000 0.000000 0.000000 0.000000
 10 -0.512919 -0.394169 1.606568 -0.564477 -1.278068 -3.119280
 11 6.384778 -0.000001 0.000002 0.058971 -0.374924 -1.456332
 12 10.242682 0.000001 0.000000 -0.000000 -0.000000 -0.875690
 13 11.375561 0.000001 -0.000001 -2.753328 -0.279871 0.538941
 14 0.728680 0.023431 -1.008291 1.051563 0.167831 0.364467
 15 2.136497 0.000000 -0.000001 -0.000000 0.000000 -0.078540
 16 2.313139 -0.000001 0.000000 0.000000 0.000000 0.000000
 17 3.115506 -0.886041 -0.021433 -0.620285 0.000392 0.514872
 18 2.011150 -0.000001 0.000003 -0.000000 -0.000000 1.322792
 19 2.141380 -0.000000 -0.000001 0.000000 0.000000 0.000000
 20 1.734172 0.000001 0.000002 0.000000 -0.000000 0.660693
 21 0.000005 -4.440595 -0.000001 1.570544 -0.062990 -0.195737
 22 6.000000 -0.000000 0.000001 -2.480000 -0.000000 0.000000
 23 0.000000 -4.440601 0.000001 1.569944 -0.062987 0.004053
 24 11.375562 0.000000 0.000003 -2.136849 -0.231270 0.231141
 25 -0.000001 -4.440604 -0.000001 1.570144 -0.062988 0.004040
 26 10.510131 0.000001 -0.000001 -0.000000 -0.000000 -2.008641
 27 0.000000 -1.748400 4.999999 -0.000000 0.004007 1.602291
 28 5.500000 0.000000 0.000002 0.034654 0.000000 0.000000
 29 -0.000001 -1.940598 5.000001 -0.044472 0.004003 -0.000180
 30 6.551492 -0.000000 0.000002 -0.004289 -0.304507 -0.876651
 31 -0.000001 -1.940599 5.000000 -0.027189 -0.053376 0.005295
 32 6.551492 -0.000000 0.000002 -0.034329 -0.137384 -0.392439
 33 -0.000001 -1.940599 4.999996 -0.066572 -0.152786 -0.110311
 34 0.512924 0.401242 -1.606571 -0.225691 1.218586 2.395232
 35 6.384778 -0.000001 0.000000 0.097495 -0.019955 -1.240937
 36 10.242682 -0.000000 -0.000001 -0.000000 0.000000 -1.813003
 37 11.375563 0.000000 -0.000002 2.617579 0.331293 0.775691
 38 0.728680 0.023431 1.008293 -1.579583 -0.319038 0.212973
 39 2.136496 -0.000000 0.000000 -0.000000 -0.000000 1.282817
 40 2.313140 -0.000001 0.000001 0.000000 0.000000 3.141593
 41 3.115507 -0.886041 0.021433 0.420765 0.316066 0.167178
 42 2.011151 -0.000001 -0.000003 -0.000000 -0.000000 2.082010
 43 2.141380 -0.000000 0.000001 0.000000 0.000000 3.141593
 44 1.734173 -0.000001 -0.000003 -0.000000 -0.000000 1.041748
 45 0.136316 -3.738193 2.525891 1.493698 2.759406 -1.474501
 46 2.209801 -0.209226 0.899087 1.570711 0.171029 -0.002271
 47 11.389368 -0.000819 0.158781 2.049894 0.263177 0.336294
 48 -0.000000 -4.440599 -0.000000 1.570144 -3.078602 0.004040
 49 6.000000 -0.000000 -0.000002 2.049894 -0.000000 -0.000000
 50 0.000002 -4.440602 -0.000001 1.569944 -3.078603 0.004053
 51 10.510131 -0.000000 -0.000001 0.000000 -0.000000 -2.477298
 52 -0.000001 -1.748400 -5.000001 -3.141593 0.004007 -1.539299
 53 5.500000 -0.000001 -0.000000 -0.034314 0.000000 0.000000
 54 0.000000 -0.000000 -5.000001 -0.044472 3.137589 -0.000177
 55 6.551492 -0.000000 0.000000 0.034314 -0.027011 -0.330811
 56 -1.266843 -1.937445 -4.950559 -0.066572 -2.988806 -0.110308
 57 6.551492 -0.000000 0.000000 0.034314 -0.027011 -0.330811
 58 0.699372 -1.944208 -5.006848 -0.027189 -3.088217 0.005298
 59 4.226148 -0.003202 -0.000001 0.000000 -0.000000 0.000000
 60 0.000000 5.000001 0.000001 -0.153564 0.000087 2.718702
 61 0.000005 -0.000005 -3.713580 0.044702 -3.107632 -0.773881
 62 0.000002 0.000000 5.000000 3.053193 1.558589 -0.074931
 63 -0.000005 0.000006 3.713580 -0.261147 -2.772701 -0.785719
 64 0.000001 0.000001 -5.000000 -0.088726 1.558589 3.066335
 65 7.363603 1.646648 0.495663 -3.141593 -1.570796 0.000000
 66 -0.000005 0.000006 3.619081 2.969053 -0.782505 1.479001
 67 16.573921 -0.000000 0.000002 -0.000000 0.000000 -1.876372
 68 15.128181 0.000000 -0.000000 -0.018001 0.068546 -0.104603
 69 5.758664 4.244730 0.000001 0.000000 -0.000000 1.999874
 70 3.177726 0.000000 0.000000 0.000000 0.000000 3.141593
 71 15.708953 0.000000 -0.000000 -0.008312 0.038557 -0.055958
 72 0.275148 0.189215 -3.445208 3.130898 0.000409 -1.514604
 73 17.210196 -0.000001 0.000002 0.000000 0.000000 -2.258084
 74 0.000000 0.000000 -5.000000 -0.079430 1.546568 -1.570856
 75 0.000005 -0.000004 -3.619081 0.079930 -3.113342 -1.307657
 76 16.573921 0.000002 -0.000001 -0.000000 0.000000 -1.568369
 77 15.128181 -0.000001 0.000001 0.081503 0.075001 0.642000
 78 5.758666 4.244732 -0.000001 -0.000000 -0.000000 1.702787
 79 4.003934 -0.000000 -0.000000 0.000000 0.000000 0.000000
 80 15.708954 -0.000001 0.000000 0.052600 0.061125 0.439646
 81 0.273998 0.191089 3.439763 -3.130907 -0.000437 -1.508107
 82 17.210196 0.000001 -0.000000 -0.000000 -0.000000 -2.119483
 83 0.000000 -0.000001 5.000001 -0.079311 1.595025 -1.570736
time 4
  0 1.708032 3.967930 28.019068 -0.238125 0.557931 -2.421956
  1 14.544218 5.497300 -22.647741 -0.559683 0.233568 2.286047
  2 -2.276936 0.000003 -1.238186 -1.570795 -1.570451 0.000000
  3 1.796036 0.712012 0.000380 -0.117324 0.125190 -0.361846
  4 4.119710 -0.001832 -0.002486 0.872996 -0.147359 0.369795
  5 4.119310 -0.002511 0.001989 -0.652240 0.045758 0.239462
  6 4.119597 -0.002343 0.002067 -0.814126 0.522938 -0.084628
  7 4.120416 -0.002927 0.000813 -0.242669 0.300523 0.481608
  8 4.443599 0.000001 -0.000001 0.417667 0.180609 -0.670434
  9 9.024061 0.000001 0.000000 0.000000 0.000000 0.000000
 10 -0.512918 -0.394169 1.606568 -0.564477 -1.278068 -3.119280
 11 6.384778 0.000000 -0.000001 0.058971 -0.374924 -1.456331
 12 10.242681 -0.000000 -0.000000 0.000000 -0.000000 -0.875690
 13 11.375561 0.000001 -0.000003 -2.753328 -0.279871 0.538941
 14 0.728680 0.023431 -1.008294 1.051563 0.167831 0.364467
 15 2.136497 -0.000001 0.000000 0.000000 -0.000000 -0.078540
 16 2.313138 -0.000000 0.000000 0.000000 0.000000 0.000000
 17 3.115505 -0.886041 -0.021432 -0.620285 0.000392 0.514872
 18 2.011149 -0.000002 0.000004 -0.000000 -0.000000 1.322791
 19 2.141380 -0.000000 -0.000001 0.000000 0.000000 0.000000
 20 1.734172 0.000001 0.000001 -0.000000 -0.000000 0.660693
 21 0.000007 -4.440593 -0.000002 1.570544 -0.062990 -0.195737
 22 6.000000 0.000001 -0.000001 -2.480000 0.000000 -0.000000
 23 0.000001 -4.440602 0.000001 1.569944 -0.062987 0.004053
 24 11.375560 0.000000 0.000001 -2.136849 -0.231270 0.231141
 25 -0.000000 -4.440605 -0.000001 1.570144 -0.062988 0.004040
 26 10.510131 0.000001 -0.000003 0.000000 0.000000 -2.008641
 27 0.000001 -1.748401 5.000002 0.000000 0.004007 1.602291
 28 5.500000 -0.000000 -0.000002 0.034654 0.000000 0.000000
 29 -0.000001 -1.940597 5.000001 -0.044472 0.004003 -0.000180
 30 6.551493 -0.000000 -0.000002 -0.004290 -0.304506 -0.876649
 31 -0.000001 -1.940599 5.000004 -0.027189 -0.053376 0.005295
 32 6.551493 -0.000000 -0.000002 -0.034329 -0.137384 -0.392438
 33 -0.000000 -1.940599 4.999994 -0.066572 -0.152786 -0.110311
 34 0.512924 0.401244 -1.606570 -0.225691 1.218586 2.395232
 35 6.384777 0.000001 0.000002 0.097495 -0.019955 -1.240937
 36 10.242682 -0.000000 0.000004 -0.000000 -0.000000 -1.813003
 37 11.375561 -0.000001 -0.000003 2.617579 0.331293 0.775691
 38 0.728680 0.023431 1.008295 -1.579583 -0.319038 0.212973
 39 2.136497 0.000003 0.000001 -0.000000 0.000000 1.282817
 40 2.313138 0.000000 0.000000 0.000000 0.000000 3.141593
 41 3.115507 -0.886041 0.021434 0.420765 0.316066 0.167178
 42 2.011151 0.000000 -0.000001 0.000000 -0.000000 2.082010
 43 2.141380 0.000001 -0.000000 0.000000 0.000000 3.141593
 44 1.734171 -0.000001 -0.000000 -0.000000 -0.000000 1.041748
 45 0.136315 -3.738192 2.525891 1.493698 2.759406 -1.474501
 46 2.209801 -0.209225 0.899085 1.570711 0.171029 -0.002271
 47 11.389366 -0.000820 0.158780 2.049894 0.263177 0.336294
 48 0.000000 -4.440598 0.000000 1.570144 -3.078602 0.004040
 49 5.999999 -0.000000 -0.000001 2.049894 -0.000000 -0.000000
 50 0.000002 -4.440601 0.000001 1.569944 -3.078603 0.004053
 51 10.510131 -0.000000 0.000005 -0.000000 -0.000000 -2.477298
 52 0.000000 -1.748401 -5.000000 -3.141593 0.004007 -1.539299
 53 5.500000 0.000000 0.000002 -0.034314 0.000000 0.000000
 54 -0.000001 0.000000 -4.999998 -0.044472 3.137590 -0.000177
 55 6.551491 0.000000 0.000003 0.034314 -0.027011 -0.330811
 56 -1.266843 -1.937443 -4.950561 -0.066572 -2.988806 -0.110308
 57 6.551492 0.000000 0.000003 0.034314 -0.027011 -0.330811
 58 0.699371 -1.944208 -5.006847 -0.027189 -3.088217 0.005298
 59 4.226146 -0.003200 0.000000 0.000000 0.000000 0.000000
 60 -0.000002 5.000001 0.000001 -0.153564 0.000087 2.718701
 61 0.000006 -0.000005 -3.713579 0.010699 3.106060 -0.729378
 62 0.000000 -0.000000 5.000000 3.053199 1.558589 -0.074925
 63 -0.000005 0.000005 3.713580 -0.253268 -2.767493 -0.829692
 64 -0.000001 0.000000 -5.000000 -0.088725 1.558589 3.066336
 65 7.363606 1.646645 0.495663 3.141593 -1.570796 0.000000
 66 -0.000003 0.000005 3.619081 3.008548 -0.773315 1.373526
 67 16.573919 -0.000001 -0.000001 0.000000 -0.000000 -1.756202
 68 15.128181 0.000000 0.000000 -0.024444 0.100512 -0.039152
 69 5.758667 4.244731 -0.000000 0.000000 -0.000000 1.964268
 70 3.177726 0.000000 -0.000000 0.000000 0.000000 3.141593
 71 15.708954 0.000001 0.000001 -0.011857 0.056262 -0.020696
 72 0.275148 0.189215 -3.445208 3.130898 0.000409 -1.514604
 73 17.210196 -0.000000 -0.000001 0.000000 -0.000000 -2.204008
 74 -0.000002 -0.000000 -4.999999 -0.079430 1.546568 -1.570855
 75 0.000005 -0.000004 -3.619080 0.000197 3.096765 -1.242343
 76 16.573919 -0.000002 -0.000001 0.000000 -0.000000 -1.526718
 77 15.128181 0.000000 0.000001 -0.010800 0.166980 0.553213
 78 5.758665 4.244731 -0.000000 -0.000000 -0.000000 1.775873
 79 4.003934 -0.000000 0.000000 0.000000 0.000000 0.000000
 80 15.708954 0.000001 0.000000 -0.015050 0.119918 0.381082
 81 0.273998 0.191090 3.439762 -3.130907 -0.000437 -1.508106
 82 17.210192 -0.000002 -0.000000 -0.000000 0.000000 -2.100740
 83 0.000000 0.000000 4.999999 -0.079311 1.595025 -1.570737
end
