version 1
nodes
  0 "Bip01"  -1
  1 "Bip01 Footsteps"   0
  2 "Bip01 Pelvis"   0
  3 "Bip01 Spine"   2
  4 "Bip01 Spine1"   3
  5 "Bip01 Spine2"   4
  6 "Bip01 Spine3"   5
  7 "Bip01 Neck"   6
  8 "Bip01 Head"   7
  9 "Dummy21"   8
 10 "Bip01 L Clavicle"   7
 11 "Bip01 L UpperArm"  10
 12 "Bip01 L Forearm"  11
 13 "Bip01 L Hand"  12
 14 "Bip01 L Finger0"  13
 15 "Bip01 L Finger01"  14
 16 "Dummy06"  15
 17 "Bip01 L Finger1"  13
 18 "Bip01 L Finger11"  17
 19 "Dummy03"  18
 20 "-- L knuckle"  17
 21 "-- L knuckle_end"  20
 22 "-- L Forearm twist"  12
 23 "-- L Forearm twist_end"  22
 24 "-- L wrist"  12
 25 "-- L wrist_end"  24
 26 "-- L Elbow"  11
 27 "--L Elbow_end"  26
 28 "-- L bicep twist"  11
 29 "-- L bicep twist_end"  28
 30 "-- L shoulder outside"  10
 31 "-- L shoulder outside_end"  30
 32 "-- L Shoulder inside"  10
 33 "-- L Shoulder inside_end"  32
 34 "Bip01 R Clavicle"   7
 35 "Bip01 R UpperArm"  34
 36 "Bip01 R Forearm"  35
 37 "Bip01 R Hand"  36
 38 "Bip01 R Finger0"  37
 39 "Bip01 R Finger01"  38
 40 "Dummy01"  39
 41 "Bip01 R Finger1"  37
 42 "Bip01 R Finger11"  41
 43 "Dummy02"  42
 44 "-- R knuckle"  41
 45 "Point06"  44
 46 "Steyr Aug"  37
 47 "-- R wrist"  36
 48 "-- R wrist_end"  47
 49 "-- R forearm twist"  36
 50 "-- R forearm twist_end"  49
 51 "-- R Elbow"  35
 52 "--R Elbow_end"  51
 53 "-- R bicep twist"  35
 54 "-- R bicep twist_end"  53
 55 "-- R Shoulder inside"  34
 56 "-- R Shoulder inside_end"  55
 57 "-- R shoulder outside"  34
 58 "-- R shoulder outside_end"  57
 59 "-- Neck smooth"   6
 60 "-- neck smooth end"  59
 61 "-- R Butt"   2
 62 "--R Butt_end"  61
 63 "-- L butt"   2
 64 "--L butt_end"  63
 65 "GIGN01"   2
 66 "Bip01 L Thigh"   2
 67 "Bip01 L Calf"  66
 68 "Bip01 L Foot"  67
 69 "Bip01 L Toe0"  68
 70 "Dummy16"  69
 71 "-- L ankle"  67
 72 "-- L ankleend"  71
 73 "-- L Knee"  66
 74 "--L Knee_end"  73
 75 "Bip01 R Thigh"   2
 76 "Bip01 R Calf"  75
 77 "Bip01 R Foot"  76
 78 "Bip01 R Toe0"  77
 79 "Dummy11"  78
 80 "-- R Ankle"  76
 81 "-- R ankleend"  80
 82 "-- R Knee"  75
 83 "--R Knee_end"  82
end
skeleton
time 0
  0 0.500000 13.522099 26.931471 -0.243067 0.535714 -2.432935
  1 13.773751 5.584523 -22.520975 -0.544290 0.221328 2.303921
  2 -2.276934 0.000003 -1.238185 -1.570795 -1.570451 0.000000
  3 1.796216 0.712080 0.000958 -0.302055 0.187980 -0.358571
  4 4.119871 -0.002226 -0.002050 0.680593 -0.115401 0.424432
  5 4.119303 -0.002091 0.002429 -0.837856 0.083905 0.229629
  6 4.119884 -0.001888 0.002354 -1.057930 0.603640 -0.192970
  7 4.117819 -0.003265 0.001109 -0.337321 0.323194 -0.347009
  8 4.443599 0.000000 -0.000000 1.332320 0.506064 0.368919
  9 9.024061 -0.000001 -0.000001 0.000000 0.000000 0.000000
 10 -0.550301 -0.540237 1.550416 -0.937873 -1.317816 -1.887482
 11 6.384776 -0.000000 -0.000002 -0.916107 -0.535081 -0.680476
 12 10.242681 0.000000 0.000001 -0.000000 -0.000000 -1.258514
 13 11.375562 0.000001 0.000000 -1.883129 -0.459300 0.166354
 14 0.728684 0.023430 -1.008293 1.051563 0.167831 0.364467
 15 2.136497 0.000000 0.000002 -0.000000 0.000000 -0.078540
 16 2.313139 -0.000001 -0.000000 0.000000 0.000000 0.000000
 17 3.115510 -0.886042 -0.021431 -0.620285 0.000392 0.514872
 18 2.011150 0.000002 0.000002 -0.000000 0.000000 1.322792
 19 2.141380 0.000000 -0.000001 0.000000 0.000000 0.000000
 20 1.734173 0.000002 -0.000000 0.000000 -0.000000 0.660693
 21 0.000006 -4.440593 0.000000 1.570544 -0.062990 -0.195737
 22 6.000000 0.000001 0.000000 -1.798888 0.000000 0.000000
 23 0.000003 -4.440602 -0.000001 1.569944 -0.062987 0.004053
 24 11.375563 -0.000001 0.000004 -1.714441 -0.249375 0.067779
 25 0.000000 -4.440604 0.000000 1.570144 -0.062988 0.004040
 26 10.510130 0.000001 -0.000001 0.000000 -0.000000 -2.200053
 27 -0.000000 -1.748400 4.999999 -0.000000 0.004007 1.602290
 28 5.500000 -0.000000 0.000000 0.381663 -0.000000 -0.000000
 29 -0.000002 -1.940598 5.000000 -0.044472 0.004003 -0.000180
 30 6.551491 -0.000001 -0.000003 -0.668413 -0.235011 -0.552095
 31 0.000000 -1.940599 5.000004 -0.027189 -0.053376 0.005295
 32 6.551491 -0.000001 -0.000003 -0.315870 -0.059145 -0.267259
 33 -0.000000 -1.940599 4.999997 -0.066572 -0.152786 -0.110311
 34 0.550307 0.547314 -1.550417 -0.835475 1.284229 2.662199
 35 6.384776 0.000002 -0.000001 -0.029528 0.518582 -1.792238
 36 10.242682 -0.000001 0.000002 0.000000 0.000000 -1.409533
 37 11.375562 0.000001 -0.000000 2.733583 0.427356 0.447468
 38 0.728682 0.023430 1.008294 -1.579583 -0.319038 0.212973
 39 2.136497 -0.000000 -0.000001 -0.000000 0.000000 1.282817
 40 2.313139 0.000004 0.000000 0.000000 0.000000 3.141593
 41 3.115507 -0.886042 0.021432 0.420765 0.316066 0.167178
 42 2.011151 -0.000001 0.000002 0.000000 0.000000 2.082010
 43 2.141380 -0.000000 -0.000003 0.000000 0.000000 3.141593
 44 1.734172 -0.000002 0.000000 -0.000000 -0.000000 1.041748
 45 0.136316 -3.738195 2.525893 1.493698 2.759406 -1.474501
 46 2.209801 -0.209226 0.899085 1.570711 0.171029 -0.002271
 47 11.389367 -0.000819 0.158782 2.113386 0.291476 0.155993
 48 -0.000000 -4.440600 -0.000000 1.570144 -3.078602 0.004040
 49 6.000000 0.000002 0.000001 2.113386 0.000000 -0.000000
 50 0.000001 -4.440602 0.000001 1.569944 -3.078603 0.004053
 51 10.510132 -0.000001 0.000001 -0.000000 0.000000 -2.275563
 52 -0.000001 -1.748401 -4.999999 -3.141593 0.004007 -1.539299
 53 5.499999 0.000000 0.000003 -0.086107 0.000000 -0.000000
 54 0.000000 0.000001 -5.000003 -0.044472 3.137589 -0.000177
 55 6.551490 0.000001 0.000002 0.086107 0.144277 -0.507786
 56 -1.266843 -1.937443 -4.950560 -0.066572 -2.988806 -0.110308
 57 6.551491 0.000000 0.000001 0.086107 0.144277 -0.507786
 58 0.699371 -1.944208 -5.006846 -0.027189 -3.088217 0.005298
 59 4.226148 -0.003201 -0.000001 -0.218312 0.236619 -0.240517
 60 -0.000000 5.000001 0.000001 -0.153564 0.000087 2.718702
 61 0.000006 -0.000004 -3.713579 0.119535 -2.936655 -0.885276
 62 0.000003 0.000000 5.000000 3.053195 1.558589 -0.074929
 63 -0.000005 0.000006 3.713580 -0.311487 -2.845558 -0.582080
 64 0.000002 0.000000 -5.000000 -0.088728 1.558589 3.066333
 65 7.363603 1.646648 0.495664 -3.141593 -1.570796 0.000000
 66 -0.000005 0.000007 3.619082 -0.441735 -2.434423 -1.159240
 67 16.573921 -0.000000 0.000001 -0.000000 0.000000 -2.011748
 68 15.128181 -0.000000 -0.000000 0.026832 0.026147 -0.175154
 69 5.758666 4.244731 -0.000000 0.000000 -0.000000 2.033309
 70 3.177726 0.000001 0.000000 0.000000 0.000000 3.141593
 71 15.708952 0.000002 -0.000001 0.013957 0.013894 -0.093781
 72 0.275149 0.189215 -3.445208 3.130898 0.000409 -1.514604
 73 17.210192 -0.000001 0.000001 -0.000000 -0.000000 -2.319003
 74 0.000000 -0.000001 -5.000000 -0.079433 1.546568 -1.570857
 75 0.000007 -0.000003 -3.619079 0.260448 -2.945758 -1.468642
 76 16.573919 -0.000000 0.000001 0.000000 -0.000000 -1.562392
 77 15.128181 0.000000 0.000001 0.265624 -0.173430 0.666428
 78 5.758665 4.244731 0.000000 -0.000000 0.000000 1.483530
 79 4.003934 -0.000000 0.000000 0.000000 0.000000 0.000000
 80 15.708953 0.000000 0.000001 0.195074 -0.100553 0.460486
 81 0.273998 0.191090 3.439762 -3.130907 -0.000437 -1.508107
 82 17.210194 -0.000000 0.000000 -0.000000 -0.000000 -2.116793
 83 0.000001 0.000000 5.000000 -0.079311 1.595025 -1.570736
time 1
  0 0.500000 13.522099 26.931471 -0.243067 0.535714 -2.432935
  1 13.773751 5.584523 -22.520975 -0.544290 0.221328 2.303921
  2 -2.276934 0.000003 -1.238185 -1.570795 -1.570451 0.000000
  3 1.796216 0.712080 0.000958 -0.302055 0.187980 -0.358571
  4 4.119871 -0.002226 -0.002050 0.680593 -0.115401 0.424432
  5 4.119303 -0.002091 0.002429 -0.837856 0.083905 0.229629
  6 4.119873 -0.001886 0.002361 -1.053021 0.594469 -0.184081
  7 4.117816 -0.003266 0.001112 -0.337321 0.323194 -0.347009
  8 4.443599 0.000001 0.000001 1.330814 0.515939 0.374410
  9 9.024061 -0.000002 -0.000000 0.000000 0.000000 0.000000
 10 -0.550306 -0.540236 1.550417 -0.937873 -1.317816 -1.887482
 11 6.384776 0.000002 0.000002 -0.897026 -0.576907 -0.710942
 12 10.242682 0.000000 0.000000 -0.000000 -0.000000 -1.169756
 13 11.375561 0.000000 0.000002 -1.897773 -0.456961 0.118612
 14 0.728682 0.023430 -1.008293 1.051563 0.167831 0.364467
 15 2.136497 -0.000001 -0.000000 -0.000000 0.000000 -0.078540
 16 2.313138 -0.000000 0.000000 0.000000 0.000000 0.000000
 17 3.115508 -0.886041 -0.021432 -0.620285 0.000392 0.514872
 18 2.011153 0.000000 -0.000000 0.000000 -0.000000 1.322792
 19 2.141379 -0.000001 -0.000000 0.000000 0.000000 0.000000
 20 1.734175 -0.000000 -0.000000 0.000000 -0.000000 0.660693
 21 0.000005 -4.440592 -0.000001 1.570544 -0.062990 -0.195737
 22 6.000000 -0.000000 0.000001 -1.811290 -0.000000 0.000000
 23 0.000003 -4.440602 -0.000001 1.569944 -0.062987 0.004053
 24 11.375563 0.000000 0.000005 -1.724293 -0.247666 0.041117
 25 0.000002 -4.440605 -0.000001 1.570144 -0.062988 0.004040
 26 10.510130 0.000001 -0.000000 0.000000 0.000000 -2.155674
 27 -0.000001 -1.748401 4.999998 0.000000 0.004007 1.602291
 28 5.500000 -0.000001 0.000002 0.381578 0.000000 0.000000
 29 -0.000001 -1.940598 5.000001 -0.044472 0.004003 -0.000180
 30 6.551490 0.000001 0.000001 -0.667806 -0.256949 -0.563474
 31 0.000001 -1.940598 5.000004 -0.027189 -0.053376 0.005295
 32 6.551490 0.000001 0.000001 -0.315663 -0.067689 -0.272734
 33 0.000001 -1.940599 4.999999 -0.066572 -0.152786 -0.110311
 34 0.550307 0.547315 -1.550417 -0.835475 1.284229 2.662199
 35 6.384777 -0.000001 0.000002 -0.032015 0.521740 -1.823332
 36 10.242682 0.000000 0.000000 -0.000000 -0.000000 -1.349316
 37 11.375562 0.000001 -0.000002 2.724582 0.418625 0.425542
 38 0.728678 0.023432 1.008292 -1.579583 -0.319038 0.212973
 39 2.136496 0.000001 -0.000001 -0.000000 0.000000 1.282817
 40 2.313140 -0.000002 0.000000 0.000000 0.000000 3.141593
 41 3.115505 -0.886040 0.021431 0.420765 0.316066 0.167178
 42 2.011149 0.000001 0.000002 0.000000 -0.000000 2.082010
 43 2.141378 -0.000001 0.000002 0.000000 0.000000 3.141593
 44 1.734173 -0.000000 0.000002 0.000000 0.000000 1.041748
 45 0.136315 -3.738194 2.525887 1.493698 2.759406 -1.474501
 46 2.209801 -0.209225 0.899085 1.570711 0.171029 -0.002271
 47 11.389367 -0.000819 0.158782 2.111394 0.284460 0.148089
 48 -0.000000 -4.440600 0.000001 1.570144 -3.078602 0.004040
 49 5.999999 0.000001 -0.000000 2.111394 0.000000 -0.000000
 50 0.000001 -4.440602 -0.000000 1.569944 -3.078603 0.004053
 51 10.510130 -0.000000 0.000000 -0.000000 0.000000 -2.245454
 52 -0.000001 -1.748400 -5.000001 3.141593 0.004007 -1.539299
 53 5.499999 -0.000000 -0.000000 -0.086766 -0.000000 -0.000000
 54 -0.000002 -0.000000 -4.999999 -0.044472 3.137589 -0.000177
 55 6.551491 0.000000 -0.000000 0.086766 0.142863 -0.509164
 56 -1.266844 -1.937445 -4.950557 -0.066572 -2.988806 -0.110308
 57 6.551491 0.000001 -0.000000 0.086766 0.142863 -0.509164
 58 0.699370 -1.944209 -5.006846 -0.027189 -3.088217 0.005298
 59 4.226146 -0.003202 0.000000 -0.218312 0.236619 -0.240517
 60 0.000002 5.000000 0.000000 -0.153564 0.000087 2.718702
 61 0.000006 -0.000004 -3.713579 0.123976 -2.972045 -0.870829
 62 0.000001 0.000000 4.999999 3.053199 1.558589 -0.074925
 63 -0.000005 0.000006 3.713580 -0.290572 -2.809233 -0.650002
 64 -0.000000 -0.000000 -5.000000 -0.088722 1.558589 3.066339
 65 7.363603 1.646648 0.495664 -3.141593 -1.570796 0.000000
 66 -0.000005 0.000007 3.619082 -0.336597 -2.380876 -1.328841
 67 16.573921 -0.000001 0.000001 -0.000000 -0.000000 -2.016458
 68 15.128181 -0.000000 0.000001 0.021498 0.024223 -0.207406
 69 5.758665 4.244731 0.000001 0.000000 -0.000000 2.033309
 70 3.177726 0.000000 0.000000 0.000000 0.000000 3.141593
 71 15.708952 0.000001 0.000001 0.011327 0.012829 -0.110742
 72 0.275148 0.189215 -3.445208 3.130898 0.000409 -1.514604
 73 17.210194 -0.000002 0.000001 -0.000000 0.000000 -2.321123
 74 0.000000 0.000000 -5.000000 -0.079430 1.546568 -1.570856
 75 0.000007 -0.000003 -3.619079 0.251674 -2.986879 -1.445871
 76 16.573921 -0.000001 0.000001 -0.000000 -0.000000 -1.579014
 77 15.128181 0.000000 0.000002 0.231377 -0.134235 0.685060
 78 5.758665 4.244730 0.000000 -0.000000 -0.000000 1.483530
 79 4.003934 0.000000 0.000000 0.000000 0.000000 0.000000
 80 15.708952 0.000000 0.000001 0.169631 -0.074795 0.471460
 81 0.273998 0.191089 3.439763 -3.130907 -0.000437 -1.508107
 82 17.210194 -0.000001 0.000001 -0.000000 0.000000 -2.124273
 83 -0.000000 0.000000 5.000000 -0.079311 1.595025 -1.570737
time 2
  0 0.500000 13.522099 26.931471 -0.243067 0.535714 -2.432935
  1 13.753965 5.576500 -22.488623 -0.544290 0.221328 2.303921
  2 -2.276934 0.000003 -1.238185 -1.570795 -1.570451 0.000000
  3 1.796216 0.712080 0.000958 -0.302055 0.187980 -0.358571
  4 4.119871 -0.002226 -0.002050 0.680593 -0.115401 0.424432
  5 4.119303 -0.002091 0.002429 -0.837856 0.083905 0.229629
  6 4.119862 -0.001884 0.002369 -1.048241 0.585262 -0.175300
  7 4.117814 -0.003264 0.001113 -0.337321 0.323194 -0.347009
  8 4.443600 0.000000 -0.000000 1.329362 0.525821 0.379915
  9 9.024058 -0.000001 0.000000 0.000000 0.000000 0.000000
 10 -0.550302 -0.540237 1.550416 -0.937873 -1.317816 -1.887482
 11 6.384776 0.000000 0.000002 -0.873845 -0.620437 -0.746052
 12 10.242681 0.000001 -0.000001 0.000000 -0.000000 -1.076499
 13 11.375562 0.000000 0.000000 -1.912393 -0.454410 0.069709
 14 0.728684 0.023430 -1.008292 1.051563 0.167831 0.364467
 15 2.136495 -0.000000 -0.000003 -0.000000 -0.000000 -0.078540
 16 2.313141 -0.000000 0.000001 0.000000 0.000000 0.000000
 17 3.115509 -0.886042 -0.021431 -0.620285 0.000392 0.514872
 18 2.011152 0.000000 -0.000002 -0.000000 0.000000 1.322792
 19 2.141379 0.000000 0.000001 0.000000 0.000000 0.000000
 20 1.734171 0.000001 -0.000000 0.000000 0.000000 0.660693
 21 0.000006 -4.440592 -0.000000 1.570544 -0.062990 -0.195737
 22 5.999998 0.000000 -0.000002 -1.823482 -0.000000 0.000000
 23 0.000002 -4.440601 -0.000000 1.569944 -0.062987 0.004053
 24 11.375560 -0.000001 0.000002 -1.734031 -0.245497 0.013767
 25 0.000002 -4.440605 -0.000000 1.570144 -0.062988 0.004040
 26 10.510130 0.000000 0.000000 -0.000000 0.000000 -2.109046
 27 0.000000 -1.748402 4.999999 -0.000000 0.004007 1.602291
 28 5.500000 0.000001 0.000001 0.381462 -0.000000 -0.000000
 29 -0.000002 -1.940598 4.999999 -0.044472 0.004003 -0.000180
 30 6.551491 0.000000 0.000001 -0.667199 -0.280385 -0.576672
 31 0.000000 -1.940598 5.000000 -0.027189 -0.053376 0.005295
 32 6.551491 0.000000 0.000001 -0.315389 -0.076587 -0.278826
 33 0.000001 -1.940599 4.999994 -0.066572 -0.152786 -0.110311
 34 0.550308 0.547315 -1.550418 -0.835475 1.284229 2.662199
 35 6.384776 0.000001 -0.000001 -0.034607 0.525166 -1.854451
 36 10.242682 0.000001 0.000001 0.000000 0.000000 -1.289099
 37 11.375562 -0.000000 0.000000 2.715827 0.409717 0.403788
 38 0.728684 0.023432 1.008291 -1.579583 -0.319038 0.212973
 39 2.136497 0.000001 0.000000 0.000000 -0.000000 1.282817
 40 2.313138 0.000000 0.000001 0.000000 0.000000 3.141593
 41 3.115507 -0.886040 0.021429 0.420765 0.316066 0.167178
 42 2.011150 0.000000 -0.000002 -0.000000 -0.000000 2.082010
 43 2.141379 0.000000 -0.000002 0.000000 0.000000 3.141593
 44 1.734170 -0.000000 -0.000003 0.000000 0.000000 1.041748
 45 0.136315 -3.738193 2.525892 1.493698 2.759406 -1.474501
 46 2.209803 -0.209225 0.899084 1.570711 0.171029 -0.002271
 47 11.389366 -0.000818 0.158783 2.109431 0.277371 0.140146
 48 0.000001 -4.440599 0.000000 1.570144 -3.078602 0.004040
 49 6.000000 0.000001 -0.000000 2.109431 -0.000000 -0.000000
 50 0.000002 -4.440602 -0.000000 1.569944 -3.078603 0.004053
 51 10.510132 0.000001 0.000000 0.000000 0.000000 -2.215346
 52 0.000001 -1.748400 -4.999999 -3.141593 0.004007 -1.539299
 53 5.500000 0.000001 0.000000 -0.087507 0.000000 -0.000000
 54 -0.000001 -0.000001 -5.000002 -0.044472 3.137589 -0.000177
 55 6.551491 -0.000001 0.000002 0.087507 0.141686 -0.509740
 56 -1.266844 -1.937444 -4.950562 -0.066572 -2.988806 -0.110308
 57 6.551491 -0.000000 0.000002 0.087507 0.141686 -0.509740
 58 0.699369 -1.944208 -5.006849 -0.027189 -3.088217 0.005298
 59 4.226145 -0.003201 0.000001 -0.218312 0.236619 -0.240517
 60 -0.000002 5.000000 0.000000 -0.153564 0.000087 2.718702
 61 0.000006 -0.000004 -3.713579 0.087591 -3.032594 -0.828141
 62 0.000002 -0.000000 4.999999 3.053195 1.558589 -0.074929
 63 -0.000005 0.000006 3.713580 -0.271390 -2.783167 -0.729869
 64 0.000001 -0.000000 -4.999999 -0.088721 1.558589 3.066340
 65 7.363603 1.646648 0.495664 -3.141593 -1.570796 0.000000
 66 -0.000005 0.000007 3.619082 -0.230975 -2.357449 -1.527244
 67 16.573921 -0.000001 0.000001 -0.000000 0.000000 -1.964389
 68 15.128181 -0.000000 -0.000000 0.000009 0.040731 -0.172478
 69 5.758666 4.244731 0.000000 0.000000 -0.000000 2.024514
 70 3.177726 0.000000 0.000000 0.000000 0.000000 3.141593
 71 15.708952 0.000002 -0.000000 0.000717 0.022702 -0.092252
 72 0.275149 0.189215 -3.445208 3.130898 0.000409 -1.514604
 73 17.210194 -0.000001 0.000001 -0.000000 0.000000 -2.297692
 74 0.000000 -0.000001 -5.000000 -0.079429 1.546565 -1.570853
 75 0.000007 -0.000003 -3.619079 0.174013 -3.041866 -1.385115
 76 16.573919 -0.000002 0.000001 0.000000 -0.000000 -1.585591
 77 15.128180 0.000000 0.000001 0.167127 -0.040172 0.677768
 78 5.758665 4.244731 0.000000 -0.000000 -0.000000 1.556616
 79 4.003935 0.000000 0.000000 0.000000 0.000000 0.000000
 80 15.708954 0.000001 0.000001 0.119085 -0.013424 0.464871
 81 0.273998 0.191090 3.439762 -3.130907 -0.000437 -1.508106
 82 17.210194 -0.000001 -0.000000 0.000000 -0.000000 -2.127232
 83 0.000001 0.000001 5.000000 -0.079314 1.595025 -1.570739
time 3
  0 0.500000 13.522099 26.931471 -0.243067 0.535714 -2.432935
  1 13.818663 5.602732 -22.594406 -0.544290 0.221328 2.303921
  2 -2.276934 0.000003 -1.238185 -1.570795 -1.570451 0.000000
  3 1.796216 0.712080 0.000958 -0.302055 0.187980 -0.358571
  4 4.119871 -0.002226 -0.002050 0.680593 -0.115401 0.424432
  5 4.119303 -0.002091 0.002429 -0.837856 0.083905 0.229629
  6 4.119851 -0.001882 0.002378 -1.043586 0.576020 -0.166625
  7 4.117813 -0.003263 0.001111 -0.337321 0.323194 -0.347009
  8 4.443601 -0.000001 0.000000 1.327965 0.535710 0.385436
  9 9.024058 -0.000001 -0.000001 0.000000 0.000000 0.000000
 10 -0.550301 -0.540238 1.550417 -0.937873 -1.317816 -1.887482
 11 6.384777 0.000000 -0.000000 -0.845487 -0.665810 -0.787069
 12 10.242682 -0.000000 0.000000 0.000000 0.000000 -0.977527
 13 11.375563 -0.000000 0.000001 -1.926957 -0.451618 0.018979
 14 0.728681 0.023431 -1.008293 1.051563 0.167831 0.364467
 15 2.136498 0.000000 0.000002 -0.000000 -0.000000 -0.078540
 16 2.313137 -0.000000 -0.000000 0.000000 0.000000 0.000000
 17 3.115507 -0.886041 -0.021432 -0.620285 0.000392 0.514872
 18 2.011153 -0.000000 -0.000000 0.000000 -0.000000 1.322792
 19 2.141378 0.000001 -0.000000 0.000000 0.000000 0.000000
 20 1.734173 -0.000001 0.000000 0.000000 -0.000000 0.660693
 21 0.000006 -4.440593 -0.000001 1.570544 -0.062990 -0.195737
 22 6.000000 -0.000000 -0.000000 -1.835453 0.000000 -0.000000
 23 0.000001 -4.440601 0.000001 1.569944 -0.062987 0.004053
 24 11.375562 0.000000 0.000002 -1.743656 -0.242754 -0.014482
 25 0.000002 -4.440604 -0.000001 1.570144 -0.062988 0.004040
 26 10.510129 0.000000 -0.000001 -0.000000 0.000000 -2.059560
 27 -0.000001 -1.748402 5.000000 -0.000000 0.004007 1.602291
 28 5.499999 0.000001 -0.000002 0.381302 0.000000 -0.000000
 29 -0.000001 -1.940598 5.000003 -0.044472 0.004003 -0.000180
 30 6.551491 0.000000 0.000002 -0.666566 -0.305920 -0.592392
 31 0.000000 -1.940598 5.000003 -0.027189 -0.053376 0.005295
 32 6.551491 0.000000 0.000002 -0.315020 -0.085985 -0.285764
 33 0.000000 -1.940599 4.999996 -0.066572 -0.152786 -0.110311
 34 0.550309 0.547312 -1.550417 -0.835475 1.284229 2.662199
 35 6.384777 -0.000000 0.000001 -0.037328 0.528858 -1.885602
 36 10.242682 0.000000 0.000002 -0.000000 -0.000000 -1.228883
 37 11.375563 0.000001 -0.000003 2.707318 0.400638 0.382202
 38 0.728680 0.023430 1.008292 -1.579583 -0.319038 0.212973
 39 2.136498 -0.000000 0.000001 0.000000 0.000000 1.282817
 40 2.313138 -0.000002 0.000001 0.000000 0.000000 3.141593
 41 3.115505 -0.886042 0.021430 0.420765 0.316066 0.167178
 42 2.011152 -0.000001 0.000003 -0.000000 0.000000 2.082010
 43 2.141380 0.000000 -0.000000 0.000000 0.000000 3.141593
 44 1.734172 -0.000001 0.000002 0.000000 -0.000000 1.041748
 45 0.136315 -3.738194 2.525889 1.493698 2.759406 -1.474501
 46 2.209800 -0.209227 0.899085 1.570711 0.171029 -0.002271
 47 11.389366 -0.000818 0.158782 2.107496 0.270203 0.132159
 48 0.000000 -4.440599 0.000002 1.570144 -3.078602 0.004040
 49 6.000001 0.000001 -0.000003 2.107496 0.000000 -0.000000
 50 0.000001 -4.440602 -0.000000 1.569944 -3.078603 0.004053
 51 10.510132 0.000001 0.000001 -0.000000 0.000000 -2.185238
 52 0.000000 -1.748401 -4.999999 -3.141593 0.004007 -1.539299
 53 5.500000 0.000000 -0.000002 -0.088322 0.000000 0.000000
 54 0.000000 0.000000 -4.999999 -0.044472 3.137589 -0.000177
 55 6.551491 0.000000 0.000001 0.088322 0.140732 -0.509695
 56 -1.266844 -1.937444 -4.950560 -0.066572 -2.988806 -0.110308
 57 6.551491 0.000000 0.000001 0.088322 0.140732 -0.509695
 58 0.699370 -1.944208 -5.006848 -0.027189 -3.088217 0.005298
 59 4.226144 -0.003200 0.000000 -0.218312 0.236619 -0.240517
 60 -0.000000 5.000000 -0.000000 -0.153564 0.000087 2.718702
 61 0.000006 -0.000004 -3.713579 0.044702 -3.107632 -0.773881
 62 0.000001 0.000000 4.999999 3.053196 1.558589 -0.074928
 63 -0.000005 0.000006 3.713580 -0.261147 -2.772701 -0.785718
 64 -0.000000 0.000000 -5.000000 -0.088724 1.558589 3.066336
 65 7.363603 1.646648 0.495664 -3.141593 -1.570796 0.000000
 66 -0.000005 0.000007 3.619082 2.969053 -0.782505 1.479001
 67 16.573919 -0.000001 0.000002 -0.000000 0.000000 -1.876372
 68 15.128181 0.000001 0.000000 -0.018001 0.068546 -0.104603
 69 5.758664 4.244730 0.000000 0.000000 -0.000000 1.999874
 70 3.177726 0.000000 -0.000000 0.000000 0.000000 3.141593
 71 15.708953 0.000000 -0.000000 -0.008312 0.038557 -0.055958
 72 0.275148 0.189215 -3.445207 3.130898 0.000409 -1.514604
 73 17.210192 -0.000002 0.000001 0.000000 0.000000 -2.258084
 74 -0.000000 -0.000002 -4.999999 -0.079430 1.546568 -1.570855
 75 0.000007 -0.000003 -3.619079 0.079930 -3.113342 -1.307657
 76 16.573921 -0.000001 -0.000000 0.000000 0.000000 -1.568369
 77 15.128181 -0.000000 0.000001 0.081503 0.075001 0.642000
 78 5.758665 4.244731 0.000002 -0.000000 -0.000000 1.702788
 79 4.003934 -0.000000 -0.000000 0.000000 0.000000 0.000000
 80 15.708955 0.000000 0.000001 0.052600 0.061125 0.439646
 81 0.273998 0.191090 3.439763 -3.130907 -0.000437 -1.508106
 82 17.210194 -0.000000 -0.000000 -0.000000 -0.000000 -2.119483
 83 0.000000 0.000001 5.000000 -0.079314 1.595025 -1.570739
time 4
  0 0.500000 13.522099 26.931471 -0.243067 0.535714 -2.432935
  1 13.855123 5.617515 -22.654022 -0.544290 0.221328 2.303921
  2 -2.276934 0.000003 -1.238185 -1.570795 -1.570451 0.000000
  3 1.796216 0.712080 0.000958 -0.302055 0.187980 -0.358571
  4 4.119871 -0.002226 -0.002050 0.680593 -0.115401 0.424432
  5 4.119303 -0.002091 0.002429 -0.837856 0.083905 0.229629
  6 4.119836 -0.001877 0.002386 -1.039053 0.566745 -0.158053
  7 4.117818 -0.003267 0.001111 -0.337321 0.323194 -0.347009
  8 4.443600 -0.000000 0.000001 1.326623 0.545605 0.390973
  9 9.024059 -0.000000 -0.000001 0.000000 0.000000 0.000000
 10 -0.550304 -0.540237 1.550417 -0.937873 -1.317816 -1.887482
 11 6.384776 0.000000 0.000001 -0.810312 -0.713284 -0.835914
 12 10.242682 0.000000 0.000001 -0.000000 0.000000 -0.870965
 13 11.375560 -0.000000 -0.000001 -1.941434 -0.448562 -0.034546
 14 0.728682 0.023431 -1.008293 1.051563 0.167831 0.364467
 15 2.136496 -0.000000 -0.000000 0.000000 -0.000000 -0.078540
 16 2.313139 -0.000001 -0.000000 0.000000 0.000000 0.000000
 17 3.115510 -0.886041 -0.021432 -0.620285 0.000392 0.514872
 18 2.011149 0.000002 -0.000000 0.000000 0.000000 1.322791
 19 2.141380 0.000001 0.000001 0.000000 0.000000 0.000000
 20 1.734171 0.000002 -0.000000 0.000000 0.000000 0.660693
 21 0.000007 -4.440593 -0.000000 1.570544 -0.062990 -0.195737
 22 5.999999 -0.000001 0.000001 -1.847227 -0.000000 0.000000
 23 0.000003 -4.440600 0.000001 1.569944 -0.062987 0.004053
 24 11.375561 0.000000 0.000003 -1.753193 -0.239294 -0.043993
 25 -0.000002 -4.440604 -0.000000 1.570144 -0.062988 0.004040
 26 10.510129 0.000002 -0.000001 -0.000000 0.000000 -2.006279
 27 -0.000000 -1.748402 4.999999 0.000000 0.004007 1.602291
 28 5.499999 0.000000 0.000001 0.381041 0.000000 -0.000000
 29 -0.000001 -1.940598 5.000004 -0.044472 0.004003 -0.000180
 30 6.551490 0.000000 0.000002 -0.665795 -0.334564 -0.611790
 31 0.000000 -1.940599 5.000000 -0.027189 -0.053376 0.005295
 32 6.551490 0.000000 0.000002 -0.314486 -0.096132 -0.293912
 33 0.000001 -1.940599 4.999997 -0.066572 -0.152786 -0.110311
 34 0.550306 0.547313 -1.550416 -0.835475 1.284229 2.662199
 35 6.384777 -0.000000 0.000001 -0.040201 0.532810 -1.916795
 36 10.242683 0.000000 -0.000000 0.000000 -0.000000 -1.168666
 37 11.375561 -0.000001 0.000000 2.699056 0.391392 0.360784
 38 0.728682 0.023431 1.008291 -1.579583 -0.319038 0.212973
 39 2.136496 0.000001 -0.000000 0.000000 0.000000 1.282817
 40 2.313139 -0.000000 0.000001 0.000000 0.000000 3.141593
 41 3.115508 -0.886041 0.021431 0.420766 0.316066 0.167178
 42 2.011151 -0.000000 -0.000002 -0.000000 0.000000 2.082010
 43 2.141380 -0.000001 0.000000 0.000000 0.000000 3.141593
 44 1.734172 -0.000001 -0.000002 0.000000 -0.000000 1.041748
 45 0.136316 -3.738194 2.525889 1.493698 2.759406 -1.474501
 46 2.209803 -0.209226 0.899086 1.570711 0.171029 -0.002271
 47 11.389367 -0.000819 0.158783 2.105591 0.262950 0.124122
 48 -0.000001 -4.440597 -0.000000 1.570144 -3.078602 0.004040
 49 6.000000 -0.000001 0.000000 2.105591 0.000000 -0.000000
 50 0.000001 -4.440600 -0.000000 1.569944 -3.078603 0.004053
 51 10.510131 -0.000000 0.000003 0.000000 -0.000000 -2.155130
 52 -0.000001 -1.748400 -5.000002 -3.141593 0.004007 -1.539299
 53 5.500000 -0.000001 -0.000000 -0.089201 0.000000 -0.000000
 54 -0.000001 0.000000 -5.000002 -0.044472 3.137589 -0.000177
 55 6.551490 0.000000 0.000000 0.089201 0.139983 -0.509159
 56 -1.266844 -1.937443 -4.950559 -0.066572 -2.988806 -0.110308
 57 6.551490 0.000000 0.000000 0.089201 0.139983 -0.509159
 58 0.699370 -1.944208 -5.006845 -0.027189 -3.088217 0.005298
 59 4.226146 -0.003202 0.000000 -0.218312 0.236619 -0.240517
 60 0.000001 5.000001 0.000001 -0.153564 0.000087 2.718702
 61 0.000006 -0.000004 -3.713579 0.010699 3.106060 -0.729378
 62 0.000002 0.000001 4.999999 3.053195 1.558589 -0.074929
 63 -0.000005 0.000006 3.713580 -0.253268 -2.767493 -0.829692
 64 0.000000 0.000000 -5.000000 -0.088726 1.558589 3.066334
 65 7.363603 1.646648 0.495664 -3.141593 -1.570796 0.000000
 66 -0.000005 0.000007 3.619082 3.008548 -0.773315 1.373526
 67 16.573919 -0.000000 -0.000001 0.000000 -0.000000 -1.756202
 68 15.128180 -0.000000 0.000001 -0.024444 0.100512 -0.039152
 69 5.758666 4.244732 0.000000 0.000000 -0.000000 1.964268
 70 3.177726 -0.000000 -0.000000 0.000000 0.000000 3.141593
 71 15.708954 0.000000 0.000001 -0.011857 0.056262 -0.020696
 72 0.275148 0.189215 -3.445208 3.130898 0.000409 -1.514604
 73 17.210194 -0.000001 -0.000001 0.000000 -0.000000 -2.204007
 74 -0.000001 -0.000001 -4.999999 -0.079430 1.546568 -1.570856
 75 0.000007 -0.000003 -3.619079 0.000197 3.096765 -1.242343
 76 16.573919 -0.000002 0.000002 -0.000000 0.000000 -1.526718
 77 15.128181 0.000001 -0.000000 -0.010800 0.166980 0.553213
 78 5.758665 4.244731 -0.000000 -0.000000 0.000000 1.775873
 79 4.003934 -0.000000 0.000001 0.000000 0.000000 0.000000
 80 15.708954 0.000001 -0.000001 -0.015050 0.119918 0.381082
 81 0.273998 0.191090 3.439763 -3.130907 -0.000437 -1.508106
 82 17.210194 -0.000002 0.000001 -0.000000 0.000000 -2.100740
 83 0.000000 -0.000000 4.999999 -0.079311 1.595025 -1.570737
end
