version 1
nodes
  0 "Bip01"  -1
  1 "Bip01 Footsteps"   0
  2 "Bip01 Pelvis"   0
  3 "Bip01 Spine"   2
  4 "Bip01 Spine1"   3
  5 "Bip01 Spine2"   4
  6 "Bip01 Spine3"   5
  7 "Bip01 Neck"   6
  8 "Bip01 Head"   7
  9 "Dummy21"   8
 10 "Bip01 L Clavicle"   7
 11 "Bip01 L UpperArm"  10
 12 "Bip01 L Forearm"  11
 13 "Bip01 L Hand"  12
 14 "Bip01 L Finger0"  13
 15 "Bip01 L Finger01"  14
 16 "Dummy06"  15
 17 "Bip01 L Finger1"  13
 18 "Bip01 L Finger11"  17
 19 "Dummy03"  18
 20 "-- L knuckle"  17
 21 "-- L knuckle_end"  20
 22 "-- L Forearm twist"  12
 23 "-- L Forearm twist_end"  22
 24 "-- L wrist"  12
 25 "-- L wrist_end"  24
 26 "-- L Elbow"  11
 27 "--L Elbow_end"  26
 28 "-- L bicep twist"  11
 29 "-- L bicep twist_end"  28
 30 "-- L shoulder outside"  10
 31 "-- L shoulder outside_end"  30
 32 "-- L Shoulder inside"  10
 33 "-- L Shoulder inside_end"  32
 34 "Bip01 R Clavicle"   7
 35 "Bip01 R UpperArm"  34
 36 "Bip01 R Forearm"  35
 37 "Bip01 R Hand"  36
 38 "Bip01 R Finger0"  37
 39 "Bip01 R Finger01"  38
 40 "Dummy01"  39
 41 "Bip01 R Finger1"  37
 42 "Bip01 R Finger11"  41
 43 "Dummy02"  42
 44 "-- R knuckle"  41
 45 "Point06"  44
 46 "Steyr Aug"  37
 47 "-- R wrist"  36
 48 "-- R wrist_end"  47
 49 "-- R forearm twist"  36
 50 "-- R forearm twist_end"  49
 51 "-- R Elbow"  35
 52 "--R Elbow_end"  51
 53 "-- R bicep twist"  35
 54 "-- R bicep twist_end"  53
 55 "-- R Shoulder inside"  34
 56 "-- R Shoulder inside_end"  55
 57 "-- R shoulder outside"  34
 58 "-- R shoulder outside_end"  57
 59 "-- Neck smooth"   6
 60 "-- neck smooth end"  59
 61 "-- R Butt"   2
 62 "--R Butt_end"  61
 63 "-- L butt"   2
 64 "--L butt_end"  63
 65 "GIGN01"   2
 66 "Bip01 L Thigh"   2
 67 "Bip01 L Calf"  66
 68 "Bip01 L Foot"  67
 69 "Bip01 L Toe0"  68
 70 "Dummy16"  69
 71 "-- L ankle"  67
 72 "-- L ankleend"  71
 73 "-- L Knee"  66
 74 "--L Knee_end"  73
 75 "Bip01 R Thigh"   2
 76 "Bip01 R Calf"  75
 77 "Bip01 R Foot"  76
 78 "Bip01 R Toe0"  77
 79 "Dummy11"  78
 80 "-- R Ankle"  76
 81 "-- R ankleend"  80
 82 "-- R Knee"  75
 83 "--R Knee_end"  82
end
skeleton
time 0
  0 0.500000 13.522099 26.931471 -0.243067 0.535714 -2.432935
  1 13.773751 5.584523 -22.520975 -0.544290 0.221328 2.303921
  2 -2.276934 0.000003 -1.238185 -1.570795 -1.570451 0.000000
  3 1.796334 0.711897 -0.000043 0.012742 -0.194104 -0.251936
  4 4.120766 -0.002458 0.000218 -0.066965 0.046588 0.718432
  5 4.118276 -0.003251 0.000268 -0.082753 0.186600 -0.115551
  6 4.116708 -0.002665 0.000247 -0.076082 0.081922 -0.624426
  7 4.118133 -0.002368 -0.002587 0.883183 0.330036 0.179383
  8 4.443598 0.000000 -0.000000 0.422831 -0.013166 -0.245250
  9 9.024063 0.000001 0.000000 0.000000 0.000000 0.000000
 10 -0.561537 1.270254 1.040398 0.951290 -0.773090 2.245246
 11 6.384776 0.000001 0.000001 -1.177111 -0.291212 -1.535330
 12 10.242682 0.000003 0.000001 -0.000000 0.000000 -1.229775
 13 11.375563 -0.000001 0.000000 -1.211007 -0.360341 0.498218
 14 0.728679 0.023431 -1.008291 1.051563 0.167831 0.364467
 15 2.136496 -0.000001 -0.000000 -0.000000 0.000000 -0.078540
 16 2.313138 -0.000000 0.000000 0.000000 0.000000 0.000000
 17 3.115506 -0.886041 -0.021432 -0.620285 0.000392 0.514872
 18 2.011149 0.000000 0.000002 -0.000000 -0.000000 1.322792
 19 2.141379 0.000002 0.000003 0.000000 0.000000 0.000000
 20 1.734171 0.000001 0.000000 -0.000000 -0.000000 0.660693
 21 0.000005 -4.440594 -0.000000 1.570544 -0.062990 -0.195737
 22 6.000000 0.000000 0.000000 -1.290356 -0.000000 -0.000000
 23 0.000002 -4.440601 0.000000 1.569944 -0.062987 0.004053
 24 11.375563 0.000000 0.000004 -1.374965 -0.164920 0.272568
 25 0.000001 -4.440603 0.000000 1.570144 -0.062988 0.004040
 26 10.510131 0.000003 -0.000001 -0.000000 -0.000000 -2.185684
 27 0.000000 -1.748400 4.999999 -0.000000 0.004007 1.602290
 28 5.500000 0.000001 0.000000 0.430185 -0.000000 0.000000
 29 -0.000002 -1.940600 5.000001 -0.044472 0.004003 -0.000180
 30 6.551491 0.000000 -0.000000 -0.857529 -0.117489 -1.126263
 31 0.000000 -1.940598 5.000001 -0.027189 -0.053376 0.005295
 32 6.551491 0.000000 -0.000000 -0.332069 0.070381 -0.425301
 33 -0.000000 -1.940599 4.999995 -0.066572 -0.152786 -0.110311
 34 0.561538 -1.263176 -1.040399 1.473081 0.889632 -1.850628
 35 6.384776 -0.000000 -0.000000 0.284585 0.067848 -1.809125
 36 10.242682 -0.000001 0.000000 0.000000 -0.000000 -1.379766
 37 11.375559 0.000000 0.000002 2.368148 0.276113 0.298638
 38 0.728681 0.023431 1.008292 -1.579583 -0.319038 0.212973
 39 2.136494 0.000001 0.000000 -0.000000 -0.000000 1.282817
 40 2.313139 0.000001 0.000001 0.000000 0.000000 3.141593
 41 3.115504 -0.886040 0.021430 0.420766 0.316066 0.167178
 42 2.011150 -0.000000 -0.000003 0.000000 -0.000000 2.082010
 43 2.141380 -0.000000 0.000002 0.000000 0.000000 3.141593
 44 1.734172 -0.000002 -0.000001 -0.000000 -0.000000 1.041748
 45 0.136314 -3.738192 2.525889 1.493698 2.759406 -1.474501
 46 2.209800 -0.209225 0.899084 1.570711 0.171029 -0.002271
 47 11.389364 -0.000820 0.158783 1.956780 0.181577 0.130993
 48 0.000002 -4.440599 0.000000 1.570144 -3.078602 0.004040
 49 6.000000 -0.000001 -0.000001 1.956780 -0.000000 0.000000
 50 0.000001 -4.440599 -0.000000 1.569944 -3.078603 0.004053
 51 10.510131 0.000000 0.000002 0.000000 -0.000000 -2.260679
 52 0.000000 -1.748399 -5.000000 3.141593 0.004007 -1.539299
 53 5.500000 -0.000000 -0.000000 -0.113607 0.000000 0.000000
 54 -0.000000 -0.000001 -4.999999 -0.044472 3.137589 -0.000177
 55 6.551491 -0.000001 -0.000000 0.113607 -0.035627 -0.529385
 56 -1.266843 -1.937443 -4.950559 -0.066572 -2.988806 -0.110308
 57 6.551491 -0.000001 -0.000000 0.113607 -0.035627 -0.529385
 58 0.699370 -1.944208 -5.006848 -0.027189 -3.088217 0.005298
 59 4.226148 -0.003201 -0.000000 0.486314 0.221240 0.070337
 60 0.000002 5.000001 -0.000001 -0.153564 0.000087 2.718702
 61 0.000006 -0.000004 -3.713579 0.119535 -2.936655 -0.885276
 62 0.000003 0.000000 5.000000 3.053195 1.558589 -0.074929
 63 -0.000005 0.000006 3.713580 -0.311487 -2.845558 -0.582080
 64 0.000002 0.000000 -5.000000 -0.088728 1.558589 3.066333
 65 7.363603 1.646648 0.495664 -3.141593 -1.570796 0.000000
 66 -0.000005 0.000007 3.619082 -0.441735 -2.434423 -1.159240
 67 16.573921 -0.000000 0.000001 -0.000000 0.000000 -2.011748
 68 15.128181 -0.000000 -0.000000 0.026832 0.026147 -0.175154
 69 5.758666 4.244731 -0.000000 0.000000 -0.000000 2.033309
 70 3.177726 0.000001 0.000000 0.000000 0.000000 3.141593
 71 15.708952 0.000002 -0.000001 0.013957 0.013894 -0.093781
 72 0.275149 0.189215 -3.445208 3.130898 0.000409 -1.514604
 73 17.210192 -0.000001 0.000001 -0.000000 -0.000000 -2.319003
 74 0.000000 -0.000001 -5.000000 -0.079433 1.546568 -1.570857
 75 0.000007 -0.000003 -3.619079 0.260448 -2.945758 -1.468642
 76 16.573919 -0.000000 0.000001 0.000000 -0.000000 -1.562392
 77 15.128181 0.000000 0.000001 0.265624 -0.173430 0.666428
 78 5.758665 4.244731 0.000000 -0.000000 0.000000 1.483530
 79 4.003934 -0.000000 0.000000 0.000000 0.000000 0.000000
 80 15.708953 0.000000 0.000001 0.195074 -0.100553 0.460486
 81 0.273998 0.191090 3.439762 -3.130907 -0.000437 -1.508107
 82 17.210194 -0.000000 0.000000 -0.000000 -0.000000 -2.116793
 83 0.000001 0.000000 5.000000 -0.079311 1.595025 -1.570736
time 1
  0 0.500000 13.522099 26.931471 -0.243067 0.535714 -2.432935
  1 13.773751 5.584523 -22.520975 -0.544290 0.221328 2.303921
  2 -2.276934 0.000003 -1.238185 -1.570795 -1.570451 0.000000
  3 1.796334 0.711897 -0.000043 0.012742 -0.194104 -0.251936
  4 4.120766 -0.002458 0.000218 -0.066965 0.046588 0.718432
  5 4.118276 -0.003251 0.000268 -0.082753 0.186600 -0.115551
  6 4.116853 -0.002764 0.000226 -0.069338 0.085646 -0.569820
  7 4.118132 -0.002369 -0.002586 0.883183 0.330036 0.179383
  8 4.443597 0.000000 -0.000000 0.448376 -0.047726 -0.279695
  9 9.024063 0.000001 0.000000 0.000000 0.000000 0.000000
 10 -0.561535 1.270254 1.040399 0.951290 -0.773090 2.245246
 11 6.384775 0.000001 0.000001 -1.200366 -0.394912 -1.542658
 12 10.242682 0.000001 -0.000000 -0.000000 -0.000000 -1.130502
 13 11.375566 -0.000001 0.000001 -1.217117 -0.334487 0.439138
 14 0.728682 0.023431 -1.008293 1.051563 0.167831 0.364467
 15 2.136499 -0.000001 -0.000001 -0.000000 -0.000000 -0.078540
 16 2.313139 0.000000 0.000001 0.000000 0.000000 0.000000
 17 3.115508 -0.886041 -0.021433 -0.620285 0.000392 0.514872
 18 2.011153 -0.000000 -0.000002 0.000000 -0.000000 1.322792
 19 2.141379 0.000001 -0.000001 0.000000 0.000000 0.000000
 20 1.734174 0.000000 -0.000001 0.000000 0.000000 0.660693
 21 0.000007 -4.440595 -0.000001 1.570544 -0.062990 -0.195737
 22 6.000002 -0.000000 0.000001 -1.298275 -0.000000 0.000000
 23 -0.000001 -4.440600 0.000000 1.569944 -0.062987 0.004053
 24 11.375562 -0.000000 0.000004 -1.381660 -0.156425 0.245125
 25 0.000002 -4.440603 -0.000000 1.570144 -0.062988 0.004040
 26 10.510132 0.000003 -0.000000 0.000000 -0.000000 -2.136047
 27 -0.000002 -1.748401 4.999999 -0.000000 0.004007 1.602290
 28 5.500000 -0.000000 0.000000 0.446091 0.000000 -0.000000
 29 -0.000001 -1.940600 5.000000 -0.044472 0.004003 -0.000180
 30 6.551490 0.000001 0.000000 -0.891067 -0.206379 -1.148354
 31 -0.000000 -1.940598 5.000000 -0.027189 -0.053376 0.005295
 32 6.551490 0.000001 0.000000 -0.341905 0.045922 -0.424050
 33 0.000001 -1.940598 4.999996 -0.066572 -0.152786 -0.110311
 34 0.561538 -1.263177 -1.040399 1.454960 0.943849 -1.834945
 35 6.384776 -0.000000 -0.000000 0.265992 0.166012 -1.842578
 36 10.242682 0.000002 0.000002 -0.000000 -0.000000 -1.290120
 37 11.375563 -0.000000 -0.000002 2.359589 0.280220 0.270308
 38 0.728680 0.023431 1.008291 -1.579583 -0.319038 0.212973
 39 2.136497 -0.000001 0.000000 -0.000000 -0.000000 1.282817
 40 2.313139 -0.000002 -0.000000 0.000000 0.000000 3.141593
 41 3.115506 -0.886041 0.021431 0.420766 0.316066 0.167178
 42 2.011151 0.000000 -0.000001 0.000000 -0.000000 2.082010
 43 2.141380 0.000000 -0.000002 0.000000 0.000000 3.141593
 44 1.734171 -0.000000 -0.000001 0.000000 0.000000 1.041748
 45 0.136315 -3.738193 2.525891 1.493698 2.759406 -1.474501
 46 2.209801 -0.209226 0.899084 1.570711 0.171029 -0.002271
 47 11.389366 -0.000820 0.158780 1.953214 0.181215 0.115813
 48 0.000000 -4.440600 0.000001 1.570144 -3.078602 0.004040
 49 6.000000 -0.000001 -0.000003 1.953214 -0.000000 0.000000
 50 0.000001 -4.440600 -0.000001 1.569944 -3.078603 0.004053
 51 10.510132 0.000001 0.000001 -0.000000 -0.000000 -2.215856
 52 0.000001 -1.748399 -5.000003 3.141593 0.004007 -1.539299
 53 5.500000 0.000002 0.000002 -0.119295 0.000000 -0.000000
 54 -0.000001 -0.000002 -5.000000 -0.044472 3.137590 -0.000177
 55 6.551490 0.000000 -0.000002 0.119295 -0.001623 -0.528449
 56 -1.266843 -1.937443 -4.950559 -0.066572 -2.988806 -0.110308
 57 6.551490 0.000000 -0.000002 0.119295 -0.001623 -0.528449
 58 0.699371 -1.944208 -5.006846 -0.027189 -3.088217 0.005298
 59 4.226146 -0.003202 0.000000 0.486314 0.221240 0.070337
 60 -0.000001 5.000000 -0.000001 -0.153564 0.000087 2.718702
 61 0.000006 -0.000004 -3.713579 0.123976 -2.972045 -0.870829
 62 0.000001 0.000000 4.999999 3.053199 1.558589 -0.074925
 63 -0.000005 0.000006 3.713580 -0.290572 -2.809233 -0.650002
 64 -0.000000 -0.000000 -5.000000 -0.088722 1.558589 3.066339
 65 7.363603 1.646648 0.495664 -3.141593 -1.570796 0.000000
 66 -0.000005 0.000007 3.619082 -0.336597 -2.380876 -1.328841
 67 16.573921 -0.000001 0.000001 -0.000000 -0.000000 -2.016458
 68 15.128181 -0.000000 0.000001 0.021498 0.024223 -0.207406
 69 5.758665 4.244731 0.000001 0.000000 -0.000000 2.033309
 70 3.177726 0.000000 0.000000 0.000000 0.000000 3.141593
 71 15.708952 0.000001 0.000001 0.011327 0.012829 -0.110742
 72 0.275148 0.189215 -3.445208 3.130898 0.000409 -1.514604
 73 17.210194 -0.000002 0.000001 -0.000000 0.000000 -2.321123
 74 0.000000 0.000000 -5.000000 -0.079430 1.546568 -1.570856
 75 0.000007 -0.000003 -3.619079 0.251674 -2.986879 -1.445871
 76 16.573921 -0.000001 0.000001 -0.000000 -0.000000 -1.579014
 77 15.128181 0.000000 0.000002 0.231377 -0.134235 0.685060
 78 5.758665 4.244730 0.000000 -0.000000 -0.000000 1.483530
 79 4.003934 0.000000 0.000000 0.000000 0.000000 0.000000
 80 15.708952 0.000000 0.000001 0.169631 -0.074795 0.471460
 81 0.273998 0.191089 3.439763 -3.130907 -0.000437 -1.508107
 82 17.210194 -0.000001 0.000001 -0.000000 0.000000 -2.124273
 83 -0.000000 0.000000 5.000000 -0.079311 1.595025 -1.570737
time 2
  0 0.500000 13.522099 26.931471 -0.243067 0.535714 -2.432935
  1 13.753965 5.576500 -22.488623 -0.544290 0.221328 2.303921
  2 -2.276934 0.000003 -1.238185 -1.570795 -1.570451 0.000000
  3 1.796334 0.711897 -0.000043 0.012742 -0.194104 -0.251936
  4 4.120766 -0.002458 0.000218 -0.066965 0.046588 0.718432
  5 4.118276 -0.003251 0.000268 -0.082753 0.186600 -0.115551
  6 4.117004 -0.002856 0.000203 -0.062398 0.088998 -0.515173
  7 4.118132 -0.002368 -0.002587 0.883183 0.330036 0.179383
  8 4.443599 0.000000 -0.000000 0.475155 -0.081374 -0.315089
  9 9.024064 0.000001 0.000000 0.000000 0.000000 0.000000
 10 -0.561533 1.270254 1.040399 0.951290 -0.773090 2.245246
 11 6.384777 0.000000 -0.000000 -1.222371 -0.498324 -1.547663
 12 10.242682 -0.000003 -0.000001 0.000000 -0.000000 -1.031929
 13 11.375562 0.000000 0.000000 -1.223604 -0.309846 0.380616
 14 0.728681 0.023431 -1.008293 1.051563 0.167831 0.364467
 15 2.136499 -0.000000 0.000000 0.000000 0.000000 -0.078540
 16 2.313138 -0.000000 0.000000 0.000000 0.000000 0.000000
 17 3.115507 -0.886041 -0.021432 -0.620285 0.000392 0.514872
 18 2.011152 0.000000 -0.000001 0.000000 0.000000 1.322792
 19 2.141380 -0.000001 -0.000001 0.000000 0.000000 0.000000
 20 1.734173 0.000001 -0.000000 -0.000000 0.000000 0.660693
 21 0.000006 -4.440594 -0.000000 1.570544 -0.062990 -0.195737
 22 6.000003 -0.000001 -0.000000 -1.305659 0.000000 0.000000
 23 0.000000 -4.440601 0.000000 1.569944 -0.062987 0.004053
 24 11.375565 -0.000001 0.000003 -1.387910 -0.148221 0.217009
 25 0.000000 -4.440603 -0.000002 1.570144 -0.062988 0.004040
 26 10.510131 -0.000002 -0.000001 -0.000000 -0.000000 -2.086761
 27 0.000001 -1.748401 4.999999 0.000000 0.004007 1.602290
 28 5.500000 -0.000003 -0.000000 0.458387 0.000000 0.000000
 29 -0.000001 -1.940598 5.000000 -0.044472 0.004003 -0.000180
 30 6.551491 -0.000000 -0.000001 -0.921476 -0.292443 -1.165048
 31 -0.000000 -1.940597 5.000000 -0.027189 -0.053376 0.005295
 32 6.551491 -0.000000 -0.000001 -0.348476 0.023820 -0.419676
 33 -0.000001 -1.940598 4.999996 -0.066572 -0.152786 -0.110311
 34 0.561539 -1.263176 -1.040399 1.437676 0.998683 -1.819839
 35 6.384775 -0.000000 -0.000001 0.235568 0.260271 -1.878574
 36 10.242682 0.000001 0.000002 -0.000000 -0.000000 -1.200473
 37 11.375562 -0.000001 -0.000001 2.350902 0.284093 0.241909
 38 0.728680 0.023432 1.008293 -1.579583 -0.319038 0.212973
 39 2.136497 0.000000 0.000000 0.000000 0.000000 1.282817
 40 2.313139 0.000002 0.000001 0.000000 0.000000 3.141593
 41 3.115506 -0.886040 0.021432 0.420766 0.316066 0.167178
 42 2.011151 -0.000000 -0.000004 0.000000 -0.000000 2.082010
 43 2.141379 -0.000001 0.000001 0.000000 0.000000 3.141593
 44 1.734172 -0.000001 -0.000003 0.000000 0.000000 1.041748
 45 0.136315 -3.738193 2.525893 1.493698 2.759406 -1.474501
 46 2.209799 -0.209224 0.899084 1.570711 0.171029 -0.002271
 47 11.389365 -0.000820 0.158783 1.949587 0.180718 0.100503
 48 -0.000001 -4.440598 -0.000000 1.570144 -3.078602 0.004040
 49 5.999998 -0.000000 0.000002 1.949587 0.000000 0.000000
 50 0.000002 -4.440603 0.000001 1.569944 -3.078603 0.004053
 51 10.510131 0.000000 0.000002 0.000000 -0.000000 -2.171033
 52 0.000000 -1.748401 -5.000001 3.141593 0.004007 -1.539299
 53 5.500000 0.000001 0.000001 -0.121927 0.000000 -0.000000
 54 -0.000001 -0.000001 -5.000001 -0.044472 3.137589 -0.000177
 55 6.551489 -0.000000 -0.000001 0.121927 0.030471 -0.524975
 56 -1.266843 -1.937443 -4.950561 -0.066572 -2.988806 -0.110308
 57 6.551490 -0.000000 -0.000001 0.121927 0.030471 -0.524975
 58 0.699370 -1.944208 -5.006848 -0.027189 -3.088217 0.005298
 59 4.226146 -0.003202 -0.000001 0.486314 0.221240 0.070337
 60 -0.000003 5.000001 -0.000001 -0.153564 0.000087 2.718702
 61 0.000006 -0.000004 -3.713579 0.087591 -3.032594 -0.828141
 62 0.000002 -0.000000 4.999999 3.053195 1.558589 -0.074929
 63 -0.000005 0.000006 3.713580 -0.271390 -2.783167 -0.729869
 64 0.000001 -0.000000 -4.999999 -0.088721 1.558589 3.066340
 65 7.363603 1.646648 0.495664 -3.141593 -1.570796 0.000000
 66 -0.000005 0.000007 3.619082 -0.230975 -2.357449 -1.527244
 67 16.573921 -0.000001 0.000001 -0.000000 0.000000 -1.964389
 68 15.128181 -0.000000 -0.000000 0.000009 0.040731 -0.172478
 69 5.758666 4.244731 0.000000 0.000000 -0.000000 2.024514
 70 3.177726 0.000000 0.000000 0.000000 0.000000 3.141593
 71 15.708952 0.000002 -0.000000 0.000717 0.022702 -0.092252
 72 0.275149 0.189215 -3.445208 3.130898 0.000409 -1.514604
 73 17.210194 -0.000001 0.000001 -0.000000 0.000000 -2.297692
 74 0.000000 -0.000001 -5.000000 -0.079429 1.546565 -1.570853
 75 0.000007 -0.000003 -3.619079 0.174013 -3.041866 -1.385115
 76 16.573919 -0.000002 0.000001 0.000000 -0.000000 -1.585591
 77 15.128180 0.000000 0.000001 0.167127 -0.040172 0.677768
 78 5.758665 4.244731 0.000000 -0.000000 -0.000000 1.556616
 79 4.003935 0.000000 0.000000 0.000000 0.000000 0.000000
 80 15.708954 0.000001 0.000001 0.119085 -0.013424 0.464871
 81 0.273998 0.191090 3.439762 -3.130907 -0.000437 -1.508106
 82 17.210194 -0.000001 -0.000000 0.000000 -0.000000 -2.127232
 83 0.000001 0.000001 5.000000 -0.079314 1.595025 -1.570739
time 3
  0 0.500000 13.522099 26.931471 -0.243067 0.535714 -2.432935
  1 13.818663 5.602732 -22.594406 -0.544290 0.221328 2.303921
  2 -2.276934 0.000003 -1.238185 -1.570795 -1.570451 0.000000
  3 1.796334 0.711897 -0.000043 0.012742 -0.194104 -0.251936
  4 4.120766 -0.002458 0.000218 -0.066965 0.046588 0.718432
  5 4.118276 -0.003251 0.000268 -0.082753 0.186600 -0.115551
  6 4.117163 -0.002941 0.000179 -0.055282 0.091967 -0.460488
  7 4.118133 -0.002368 -0.002586 0.883183 0.330036 0.179383
  8 4.443597 -0.000000 -0.000000 0.503203 -0.114041 -0.351493
  9 9.024064 0.000001 -0.000000 0.000000 0.000000 0.000000
 10 -0.561535 1.270253 1.040400 0.951290 -0.773090 2.245246
 11 6.384778 -0.000001 -0.000001 -1.243979 -0.601047 -1.549964
 12 10.242682 -0.000001 -0.000000 0.000000 0.000000 -0.934916
 13 11.375559 0.000000 0.000000 -1.230421 -0.286198 0.323105
 14 0.728683 0.023431 -1.008293 1.051563 0.167831 0.364467
 15 2.136497 -0.000002 0.000001 -0.000000 0.000000 -0.078540
 16 2.313138 0.000001 0.000000 0.000000 0.000000 0.000000
 17 3.115509 -0.886041 -0.021431 -0.620285 0.000392 0.514872
 18 2.011153 0.000001 0.000001 0.000000 -0.000000 1.322792
 19 2.141378 0.000002 0.000002 0.000000 0.000000 0.000000
 20 1.734173 -0.000000 0.000003 -0.000000 -0.000000 0.660693
 21 0.000005 -4.440594 -0.000001 1.570544 -0.062990 -0.195737
 22 6.000000 -0.000001 0.000000 -1.312571 0.000000 0.000000
 23 0.000003 -4.440601 -0.000001 1.569944 -0.062987 0.004053
 24 11.375560 0.000001 0.000003 -1.393758 -0.140117 0.188336
 25 -0.000002 -4.440603 0.000000 1.570144 -0.062988 0.004040
 26 10.510131 -0.000003 -0.000001 -0.000000 0.000000 -2.038254
 27 0.000000 -1.748400 4.999999 0.000000 0.004007 1.602291
 28 5.500000 -0.000001 -0.000000 0.467825 -0.000000 0.000000
 29 -0.000001 -1.940601 5.000001 -0.044472 0.004003 -0.000180
 30 6.551491 0.000000 0.000001 -0.950445 -0.375776 -1.176708
 31 0.000000 -1.940600 5.000003 -0.027189 -0.053376 0.005295
 32 6.551491 0.000000 0.000001 -0.352418 0.004160 -0.412660
 33 -0.000000 -1.940599 4.999996 -0.066572 -0.152786 -0.110311
 34 0.561535 -1.263176 -1.040400 1.421182 1.054097 -1.805294
 35 6.384775 0.000001 -0.000003 0.192824 0.349338 -1.918846
 36 10.242682 -0.000001 -0.000003 -0.000000 -0.000000 -1.110827
 37 11.375560 -0.000000 0.000003 2.342094 0.287727 0.213445
 38 0.728681 0.023432 1.008293 -1.579583 -0.319038 0.212973
 39 2.136494 0.000000 0.000001 -0.000000 -0.000000 1.282817
 40 2.313139 -0.000000 0.000001 0.000000 0.000000 3.141593
 41 3.115505 -0.886040 0.021431 0.420766 0.316066 0.167178
 42 2.011152 0.000000 0.000004 0.000000 0.000000 2.082010
 43 2.141380 0.000000 -0.000001 0.000000 0.000000 3.141593
 44 1.734172 -0.000001 0.000001 0.000000 0.000000 1.041748
 45 0.136315 -3.738194 2.525893 1.493698 2.759406 -1.474501
 46 2.209800 -0.209224 0.899085 1.570711 0.171029 -0.002271
 47 11.389365 -0.000820 0.158784 1.945901 0.180079 0.085075
 48 0.000000 -4.440599 0.000000 1.570144 -3.078602 0.004040
 49 6.000000 -0.000001 0.000001 1.945901 0.000000 -0.000000
 50 0.000002 -4.440600 -0.000000 1.569944 -3.078603 0.004053
 51 10.510130 0.000000 0.000001 -0.000000 0.000000 -2.126209
 52 -0.000000 -1.748400 -5.000000 3.141593 0.004007 -1.539299
 53 5.499999 -0.000001 -0.000002 -0.121930 -0.000000 -0.000000
 54 -0.000000 -0.000001 -5.000001 -0.044472 3.137589 -0.000177
 55 6.551490 0.000001 -0.000001 0.121930 0.060200 -0.519714
 56 -1.266843 -1.937443 -4.950559 -0.066572 -2.988806 -0.110308
 57 6.551491 0.000000 -0.000001 0.121930 0.060200 -0.519714
 58 0.699369 -1.944208 -5.006848 -0.027189 -3.088217 0.005298
 59 4.226147 -0.003201 -0.000000 0.486314 0.221240 0.070337
 60 -0.000001 5.000001 -0.000001 -0.153564 0.000087 2.718702
 61 0.000006 -0.000004 -3.713579 0.044702 -3.107632 -0.773881
 62 0.000001 0.000000 4.999999 3.053196 1.558589 -0.074928
 63 -0.000005 0.000006 3.713580 -0.261147 -2.772701 -0.785718
 64 -0.000000 0.000000 -5.000000 -0.088724 1.558589 3.066336
 65 7.363603 1.646648 0.495664 -3.141593 -1.570796 0.000000
 66 -0.000005 0.000007 3.619082 2.969053 -0.782505 1.479001
 67 16.573919 -0.000001 0.000002 -0.000000 0.000000 -1.876372
 68 15.128181 0.000001 0.000000 -0.018001 0.068546 -0.104603
 69 5.758664 4.244730 0.000000 0.000000 -0.000000 1.999874
 70 3.177726 0.000000 -0.000000 0.000000 0.000000 3.141593
 71 15.708953 0.000000 -0.000000 -0.008312 0.038557 -0.055958
 72 0.275148 0.189215 -3.445207 3.130898 0.000409 -1.514604
 73 17.210192 -0.000002 0.000001 0.000000 0.000000 -2.258084
 74 -0.000000 -0.000002 -4.999999 -0.079430 1.546568 -1.570855
 75 0.000007 -0.000003 -3.619079 0.079930 -3.113342 -1.307657
 76 16.573921 -0.000001 -0.000000 0.000000 0.000000 -1.568369
 77 15.128181 -0.000000 0.000001 0.081503 0.075001 0.642000
 78 5.758665 4.244731 0.000002 -0.000000 -0.000000 1.702788
 79 4.003934 -0.000000 -0.000000 0.000000 0.000000 0.000000
 80 15.708955 0.000000 0.000001 0.052600 0.061125 0.439646
 81 0.273998 0.191090 3.439763 -3.130907 -0.000437 -1.508106
 82 17.210194 -0.000000 -0.000000 -0.000000 -0.000000 -2.119483
 83 0.000000 0.000001 5.000000 -0.079314 1.595025 -1.570739
time 4
  0 0.500000 13.522099 26.931471 -0.243067 0.535714 -2.432935
  1 13.855123 5.617515 -22.654022 -0.544290 0.221328 2.303921
  2 -2.276934 0.000003 -1.238185 -1.570795 -1.570451 0.000000
  3 1.796334 0.711897 -0.000043 0.012742 -0.194104 -0.251936
  4 4.120766 -0.002458 0.000218 -0.066965 0.046588 0.718432
  5 4.118276 -0.003251 0.000268 -0.082753 0.186600 -0.115551
  6 4.117322 -0.003015 0.000156 -0.048012 0.094543 -0.405770
  7 4.118131 -0.002368 -0.002585 0.883183 0.330036 0.179383
  8 4.443600 0.000000 0.000001 0.532552 -0.145654 -0.388960
  9 9.024064 0.000001 -0.000000 0.000000 0.000000 0.000000
 10 -0.561533 1.270254 1.040400 0.951290 -0.773090 2.245246
 11 6.384776 0.000001 0.000000 -1.266261 -0.702552 -1.548882
 12 10.242682 -0.000002 0.000000 0.000000 0.000000 -0.840564
 13 11.375563 -0.000001 -0.000000 -1.237532 -0.263343 0.267184
 14 0.728680 0.023431 -1.008294 1.051563 0.167831 0.364467
 15 2.136501 -0.000003 -0.000000 -0.000000 0.000000 -0.078540
 16 2.313139 0.000002 0.000001 0.000000 0.000000 0.000000
 17 3.115505 -0.886042 -0.021433 -0.620285 0.000392 0.514872
 18 2.011152 0.000001 -0.000003 0.000000 -0.000000 1.322792
 19 2.141379 -0.000000 0.000001 0.000000 0.000000 0.000000
 20 1.734172 0.000000 -0.000001 -0.000000 0.000000 0.660693
 21 0.000007 -4.440593 -0.000001 1.570544 -0.062990 -0.195737
 22 6.000003 -0.000000 0.000000 -1.319100 -0.000000 -0.000000
 23 0.000001 -4.440601 -0.000000 1.569944 -0.062987 0.004053
 24 11.375564 -0.000000 0.000003 -1.399260 -0.131935 0.159361
 25 -0.000000 -4.440603 -0.000002 1.570144 -0.062988 0.004040
 26 10.510130 -0.000002 -0.000000 0.000000 0.000000 -1.991078
 27 -0.000001 -1.748402 4.999999 0.000000 0.004007 1.602291
 28 5.500000 -0.000003 -0.000000 0.474955 0.000000 -0.000000
 29 -0.000001 -1.940600 5.000000 -0.044472 0.004003 -0.000180
 30 6.551491 0.000000 -0.000001 -0.979526 -0.457018 -1.183651
 31 0.000001 -1.940598 5.000001 -0.027189 -0.053376 0.005295
 32 6.551491 0.000000 -0.000001 -0.354173 -0.013122 -0.403376
 33 -0.000000 -1.940599 4.999998 -0.066572 -0.152786 -0.110311
 34 0.561541 -1.263177 -1.040397 1.405427 1.110055 -1.791299
 35 6.384777 -0.000001 0.000003 0.137114 0.431790 -1.965021
 36 10.242682 0.000000 -0.000002 0.000000 0.000000 -1.021180
 37 11.375563 -0.000001 -0.000004 2.333173 0.291118 0.184919
 38 0.728680 0.023430 1.008292 -1.579583 -0.319038 0.212973
 39 2.136494 0.000001 0.000001 -0.000000 -0.000000 1.282817
 40 2.313138 -0.000002 -0.000001 0.000000 0.000000 3.141593
 41 3.115506 -0.886042 0.021431 0.420766 0.316066 0.167178
 42 2.011150 0.000000 -0.000003 -0.000000 -0.000000 2.082010
 43 2.141379 -0.000001 0.000002 0.000000 0.000000 3.141593
 44 1.734173 -0.000001 -0.000000 0.000000 -0.000000 1.041748
 45 0.136315 -3.738194 2.525893 1.493698 2.759406 -1.474501
 46 2.209800 -0.209226 0.899085 1.570711 0.171029 -0.002271
 47 11.389367 -0.000820 0.158777 1.942159 0.179291 0.069545
 48 0.000002 -4.440600 0.000001 1.570144 -3.078602 0.004040
 49 6.000000 0.000000 -0.000003 1.942159 0.000000 -0.000000
 50 0.000001 -4.440599 -0.000001 1.569944 -3.078603 0.004053
 51 10.510131 0.000001 0.000001 -0.000000 0.000000 -2.081386
 52 0.000000 -1.748399 -5.000001 3.141593 0.004007 -1.539299
 53 5.500000 0.000000 -0.000001 -0.119534 -0.000000 -0.000000
 54 0.000001 0.000000 -4.999998 -0.044472 3.137589 -0.000177
 55 6.551490 0.000001 -0.000000 0.119534 0.087392 -0.513237
 56 -1.266843 -1.937444 -4.950562 -0.066572 -2.988806 -0.110308
 57 6.551490 0.000001 -0.000000 0.119534 0.087392 -0.513237
 58 0.699371 -1.944208 -5.006848 -0.027189 -3.088217 0.005298
 59 4.226145 -0.003201 0.000001 0.486314 0.221240 0.070337
 60 0.000002 5.000000 0.000000 -0.153564 0.000087 2.718702
 61 0.000006 -0.000004 -3.713579 0.010699 3.106060 -0.729378
 62 0.000002 0.000001 4.999999 3.053195 1.558589 -0.074929
 63 -0.000005 0.000006 3.713580 -0.253268 -2.767493 -0.829692
 64 0.000000 0.000000 -5.000000 -0.088726 1.558589 3.066334
 65 7.363603 1.646648 0.495664 -3.141593 -1.570796 0.000000
 66 -0.000005 0.000007 3.619082 3.008548 -0.773315 1.373526
 67 16.573919 -0.000000 -0.000001 0.000000 -0.000000 -1.756202
 68 15.128180 -0.000000 0.000001 -0.024444 0.100512 -0.039152
 69 5.758666 4.244732 0.000000 0.000000 -0.000000 1.964268
 70 3.177726 -0.000000 -0.000000 0.000000 0.000000 3.141593
 71 15.708954 0.000000 0.000001 -0.011857 0.056262 -0.020696
 72 0.275148 0.189215 -3.445208 3.130898 0.000409 -1.514604
 73 17.210194 -0.000001 -0.000001 0.000000 -0.000000 -2.204007
 74 -0.000001 -0.000001 -4.999999 -0.079430 1.546568 -1.570856
 75 0.000007 -0.000003 -3.619079 0.000197 3.096765 -1.242343
 76 16.573919 -0.000002 0.000002 -0.000000 0.000000 -1.526718
 77 15.128181 0.000001 -0.000000 -0.010800 0.166980 0.553213
 78 5.758665 4.244731 -0.000000 -0.000000 0.000000 1.775873
 79 4.003934 -0.000000 0.000001 0.000000 0.000000 0.000000
 80 15.708954 0.000001 -0.000001 -0.015050 0.119918 0.381082
 81 0.273998 0.191090 3.439763 -3.130907 -0.000437 -1.508106
 82 17.210194 -0.000002 0.000001 -0.000000 0.000000 -2.100740
 83 0.000000 -0.000000 4.999999 -0.079311 1.595025 -1.570737
end
