version 1
nodes
  0 "Bip01"  -1
  1 "Bip01 Footsteps"   0
  2 "Bip01 Pelvis"   0
  3 "Bip01 Spine"   2
  4 "Bip01 Spine1"   3
  5 "Bip01 Spine2"   4
  6 "Bip01 Spine3"   5
  7 "Bip01 Neck"   6
  8 "Bip01 Head"   7
  9 "Dummy21"   8
 10 "Bip01 L Clavicle"   7
 11 "Bip01 L UpperArm"  10
 12 "Bip01 L Forearm"  11
 13 "Bip01 L Hand"  12
 14 "Bip01 L Finger0"  13
 15 "Bip01 L Finger01"  14
 16 "Dummy06"  15
 17 "Bip01 L Finger1"  13
 18 "Bip01 L Finger11"  17
 19 "Dummy03"  18
 20 "-- L knuckle"  17
 21 "-- L knuckle_end"  20
 22 "-- L Forearm twist"  12
 23 "-- L Forearm twist_end"  22
 24 "-- L wrist"  12
 25 "-- L wrist_end"  24
 26 "-- L Elbow"  11
 27 "--L Elbow_end"  26
 28 "-- L bicep twist"  11
 29 "-- L bicep twist_end"  28
 30 "-- L shoulder outside"  10
 31 "-- L shoulder outside_end"  30
 32 "-- L Shoulder inside"  10
 33 "-- L Shoulder inside_end"  32
 34 "Bip01 R Clavicle"   7
 35 "Bip01 R UpperArm"  34
 36 "Bip01 R Forearm"  35
 37 "Bip01 R Hand"  36
 38 "Bip01 R Finger0"  37
 39 "Bip01 R Finger01"  38
 40 "Dummy01"  39
 41 "Bip01 R Finger1"  37
 42 "Bip01 R Finger11"  41
 43 "Dummy02"  42
 44 "-- R knuckle"  41
 45 "Point06"  44
 46 "Line01"  37
 47 "-- R wrist"  36
 48 "-- R wrist_end"  47
 49 "-- R forearm twist"  36
 50 "-- R forearm twist_end"  49
 51 "-- R Elbow"  35
 52 "--R Elbow_end"  51
 53 "-- R bicep twist"  35
 54 "-- R bicep twist_end"  53
 55 "-- R Shoulder inside"  34
 56 "-- R Shoulder inside_end"  55
 57 "-- R shoulder outside"  34
 58 "-- R shoulder outside_end"  57
 59 "-- Neck smooth"   6
 60 "-- neck smooth end"  59
 61 "-- R Butt"   2
 62 "--R Butt_end"  61
 63 "-- L butt"   2
 64 "--L butt_end"  63
 65 "GIGN01"   2
 66 "Bip01 L Thigh"   2
 67 "Bip01 L Calf"  66
 68 "Bip01 L Foot"  67
 69 "Bip01 L Toe0"  68
 70 "Dummy16"  69
 71 "-- L ankle"  67
 72 "-- L ankleend"  71
 73 "-- L Knee"  66
 74 "--L Knee_end"  73
 75 "Bip01 R Thigh"   2
 76 "Bip01 R Calf"  75
 77 "Bip01 R Foot"  76
 78 "Bip01 R Toe0"  77
 79 "Dummy11"  78
 80 "-- R Ankle"  76
 81 "-- R ankleend"  80
 82 "-- R Knee"  75
 83 "--R Knee_end"  82
end
skeleton
time 0
  0 1.130557 9.712686 27.009436 -0.281436 0.436358 -2.443536
  1 11.368429 6.770639 -23.418964 -0.498313 0.132926 2.346876
  2 -2.276934 0.000003 -1.238187 -1.570795 -1.570451 0.000000
  3 1.796293 0.711934 0.000410 -0.129041 -0.222674 -0.236138
  4 4.119232 -0.003218 0.000045 -0.013375 0.071404 0.192870
  5 4.119121 -0.003239 0.000030 -0.009228 0.115381 0.157345
  6 4.119346 -0.003194 0.000035 -0.010871 0.071825 0.227775
  7 4.120411 -0.002877 0.000994 -0.295116 -0.258548 0.638825
  8 4.443598 -0.000001 -0.000000 0.956593 0.351573 -1.107971
  9 9.024059 0.000001 -0.000001 0.000000 0.000000 0.000000
 10 0.443016 -0.483680 1.602709 1.078499 -2.077260 1.348668
 11 6.384776 -0.000003 -0.000003 -0.258475 0.516364 -1.027647
 12 10.242680 0.000000 -0.000001 -0.000000 -0.000000 -2.024316
 13 11.375561 0.000002 0.000000 -3.019855 -0.479659 0.493633
 14 0.728681 0.023430 -1.008291 1.210021 0.600763 0.006085
 15 2.136497 -0.000000 0.000001 0.000000 -0.000000 -0.078540
 16 2.313139 0.000000 -0.000000 0.000000 0.000000 0.000000
 17 3.115506 -0.886040 -0.021432 -0.620285 0.000392 0.514872
 18 2.011150 -0.000000 -0.000001 -0.000000 -0.000000 1.322792
 19 2.141379 0.000000 0.000000 0.000000 0.000000 0.000000
 20 1.734172 0.000001 -0.000000 -0.000000 0.000000 0.660693
 21 0.000006 -4.440594 -0.000000 1.570544 -0.062990 -0.195737
 22 6.000000 0.000000 0.000000 -2.682968 0.000000 0.000000
 23 0.000002 -4.440599 0.000001 1.569944 -0.062987 0.004053
 24 11.375561 -0.000000 0.000005 -2.237508 -0.343321 0.144847
 25 -0.000001 -4.440603 -0.000001 1.570144 -0.062988 0.004040
 26 10.510129 -0.000000 -0.000001 0.000000 -0.000000 -2.582954
 27 -0.000000 -1.748400 4.999998 -0.000000 0.004007 1.602291
 28 5.500000 0.000000 -0.000001 0.022081 -0.000000 -0.000000
 29 -0.000002 -1.940598 5.000000 -0.044472 0.004003 -0.000180
 30 6.551490 -0.000001 -0.000001 -0.091334 0.385672 -0.604208
 31 -0.000000 -1.940597 5.000001 -0.027189 -0.053376 0.005295
 32 6.551490 -0.000001 -0.000001 -0.013082 0.190234 -0.277707
 33 -0.000000 -1.940599 4.999997 -0.066572 -0.152786 -0.110311
 34 -0.443014 0.490757 -1.602708 0.175387 0.648945 2.721282
 35 6.384776 0.000002 -0.000002 -0.647460 -0.050772 -0.681393
 36 10.242682 -0.000002 0.000000 -0.000000 -0.000000 -1.775151
 37 11.375562 0.000003 0.000000 1.995984 0.395392 -0.674249
 38 0.728681 0.023431 1.008292 -1.579583 -0.319038 0.212973
 39 2.136497 -0.000000 -0.000001 -0.000000 0.000000 1.282817
 40 2.313139 0.000001 -0.000000 0.000000 0.000000 3.141593
 41 3.115507 -0.886042 0.021432 0.420765 0.316066 0.167178
 42 2.011151 -0.000000 -0.000001 0.000000 -0.000000 2.082010
 43 2.141380 -0.000000 -0.000001 0.000000 0.000000 3.141593
 44 1.734172 -0.000001 0.000000 -0.000000 -0.000000 1.041748
 45 0.136315 -3.738193 2.525891 1.493698 2.759406 -1.474501
 46 5.613160 0.862365 3.157032 1.595152 -0.135386 0.061522
 47 11.389367 -0.000818 0.158781 1.811342 0.162568 -0.354038
 48 0.000002 -4.440599 0.000000 1.570144 -3.078602 0.004040
 49 6.000001 0.000001 -0.000000 1.811342 -0.000000 0.000000
 50 0.000003 -4.440601 0.000001 1.569944 -3.078603 0.004053
 51 10.510130 -0.000001 0.000001 0.000000 -0.000000 -2.458372
 52 0.000001 -1.748400 -5.000001 -3.141593 0.004007 -1.539299
 53 5.500000 -0.000003 0.000001 0.212846 -0.000000 0.000000
 54 -0.000000 -0.000003 -4.999998 -0.044472 3.137589 -0.000177
 55 6.551490 -0.000000 0.000002 -0.212846 0.041596 -0.245846
 56 -1.266844 -1.937443 -4.950559 -0.066572 -2.988806 -0.110308
 57 6.551491 -0.000000 0.000002 -0.212846 0.041596 -0.245846
 58 0.699370 -1.944207 -5.006846 -0.027189 -3.088217 0.005298
 59 4.226147 -0.003203 -0.000001 -0.126239 -0.152785 0.317456
 60 0.000000 4.999999 -0.000000 -0.153564 0.000087 2.718702
 61 0.000004 -0.000005 -3.713579 0.095503 -3.012510 -0.750673
 62 0.000003 0.000001 4.999999 3.053197 1.558589 -0.074927
 63 -0.000007 0.000005 3.713580 -0.334410 -2.825096 -0.524885
 64 0.000001 -0.000000 -4.999999 -0.088726 1.558589 3.066334
 65 7.363603 1.646647 0.495663 -3.141593 -1.570796 0.000000
 66 -0.000006 0.000005 3.619081 -0.528284 -2.367383 -1.007256
 67 16.573921 -0.000001 0.000001 -0.000000 0.000000 -2.019199
 68 15.128181 0.000001 -0.000002 0.031619 0.086785 -0.033197
 69 5.758664 4.244731 -0.000000 0.000000 -0.000000 2.033309
 70 3.177726 0.000001 0.000000 0.000000 0.000000 3.141593
 71 15.708951 0.000002 -0.000003 0.016155 0.048356 -0.018185
 72 0.275149 0.189215 -3.445208 3.130898 0.000409 -1.514604
 73 17.210192 -0.000002 0.000002 0.000000 -0.000000 -2.322356
 74 0.000001 -0.000000 -5.000000 -0.079430 1.546568 -1.570856
 75 0.000006 -0.000005 -3.619080 0.196495 -3.011952 -1.279118
 76 16.573921 0.000000 0.000000 -0.000000 0.000000 -1.611348
 77 15.128181 -0.000002 0.000000 0.214418 -0.027533 0.774389
 78 5.758665 4.244730 -0.000000 -0.000000 -0.000000 1.483530
 79 4.003934 0.000000 0.000001 0.000000 0.000000 0.000000
 80 15.708953 -0.000001 0.000000 0.153371 0.002792 0.528179
 81 0.273998 0.191089 3.439762 -3.130907 -0.000437 -1.508107
 82 17.210192 0.000000 0.000000 0.000000 -0.000000 -2.138823
 83 0.000001 0.000001 5.000000 -0.079311 1.595025 -1.570737
time 1
  0 1.130557 9.712686 27.009436 -0.281436 0.436358 -2.443536
  1 11.368429 6.770639 -23.418964 -0.498313 0.132926 2.346876
  2 -2.276934 0.000003 -1.238187 -1.570795 -1.570451 0.000000
  3 1.796328 0.711906 0.000229 -0.072266 -0.222716 -0.236133
  4 4.119234 -0.003218 0.000044 -0.013375 0.071404 0.192870
  5 4.119121 -0.003238 0.000029 -0.009228 0.115381 0.157345
  6 4.119344 -0.003193 0.000037 -0.010871 0.071825 0.227775
  7 4.120411 -0.002876 0.000994 -0.295116 -0.258548 0.638825
  8 4.443598 -0.000000 0.000001 0.896830 0.355876 -1.120795
  9 9.024060 0.000000 -0.000001 0.000000 0.000000 0.000000
 10 0.443016 -0.483679 1.602711 1.078499 -2.077260 1.348668
 11 6.384776 0.000000 0.000000 -0.305027 0.448779 -1.035254
 12 10.242682 -0.000000 -0.000001 0.000000 -0.000000 -1.949536
 13 11.375560 -0.000001 0.000001 -3.108381 -0.374130 0.439631
 14 0.728680 0.023433 -1.008292 1.210021 0.600764 0.006086
 15 2.136499 -0.000001 -0.000001 0.000000 0.000000 -0.078540
 16 2.313138 0.000000 0.000001 0.000000 0.000000 0.000000
 17 3.115507 -0.886041 -0.021431 -0.620285 0.000392 0.514872
 18 2.011152 0.000002 0.000000 0.000000 -0.000000 1.322792
 19 2.141379 0.000000 0.000000 0.000000 0.000000 0.000000
 20 1.734172 0.000000 -0.000000 -0.000000 -0.000000 0.660693
 21 0.000003 -4.440594 -0.000001 1.570544 -0.062990 -0.195737
 22 6.000000 -0.000000 0.000000 -2.774685 0.000000 -0.000000
 23 0.000002 -4.440600 0.000000 1.569944 -0.062987 0.004053
 24 11.375561 0.000000 0.000004 -2.300016 -0.293733 0.142005
 25 -0.000001 -4.440604 0.000002 1.570144 -0.062988 0.004040
 26 10.510129 0.000000 -0.000001 -0.000000 -0.000000 -2.545564
 27 0.000000 -1.748401 4.999999 -0.000000 0.004007 1.602291
 28 5.499998 0.000000 -0.000000 0.047922 -0.000000 -0.000000
 29 -0.000001 -1.940599 5.000000 -0.044472 0.004003 -0.000180
 30 6.551491 0.000001 0.000001 -0.131244 0.343631 -0.612644
 31 0.000002 -1.940600 5.000000 -0.027189 -0.053376 0.005295
 32 6.551491 0.000001 0.000001 -0.035095 0.173685 -0.282238
 33 -0.000000 -1.940598 4.999996 -0.066572 -0.152786 -0.110311
 34 -0.443013 0.490754 -1.602709 0.082163 0.725107 2.637739
 35 6.384777 -0.000000 0.000002 -0.587789 -0.157541 -0.589355
 36 10.242682 -0.000000 0.000002 -0.000000 0.000000 -1.849523
 37 11.375558 0.000001 -0.000002 1.941403 0.391112 -0.539448
 38 0.728681 0.023430 1.008292 -1.579583 -0.319038 0.212973
 39 2.136497 -0.000000 0.000001 -0.000000 0.000000 1.282817
 40 2.313139 -0.000000 -0.000000 0.000000 0.000000 3.141593
 41 3.115507 -0.886042 0.021432 0.420766 0.316066 0.167178
 42 2.011149 -0.000000 0.000000 -0.000000 -0.000000 2.082010
 43 2.141380 -0.000001 -0.000000 0.000000 0.000000 3.141593
 44 1.734171 -0.000001 0.000000 0.000000 -0.000000 1.041748
 45 0.136314 -3.738193 2.525892 1.493698 2.759406 -1.474501
 46 5.613159 0.862365 3.157032 1.595152 -0.135386 0.061522
 47 11.389364 -0.000818 0.158780 1.775483 0.176706 -0.291459
 48 0.000001 -4.440599 0.000001 1.570144 -3.078602 0.004040
 49 6.000000 0.000002 -0.000000 1.775483 -0.000000 0.000000
 50 0.000003 -4.440602 -0.000000 1.569944 -3.078603 0.004053
 51 10.510131 -0.000001 0.000002 0.000000 -0.000000 -2.495558
 52 -0.000000 -1.748402 -5.000001 -3.141593 0.004007 -1.539299
 53 5.500000 0.000000 0.000001 0.195946 0.000000 0.000000
 54 -0.000002 -0.000001 -5.000001 -0.044472 3.137589 -0.000177
 55 6.551490 0.000002 -0.000001 -0.195946 -0.002580 -0.234945
 56 -1.266843 -1.937444 -4.950558 -0.066572 -2.988806 -0.110308
 57 6.551491 0.000002 -0.000001 -0.195946 -0.002580 -0.234945
 58 0.699371 -1.944209 -5.006847 -0.027189 -3.088217 0.005298
 59 4.226147 -0.003202 -0.000001 -0.126239 -0.152785 0.317456
 60 0.000001 4.999999 -0.000000 -0.153564 0.000087 2.718702
 61 0.000004 -0.000005 -3.713579 0.095503 -3.012510 -0.750673
 62 0.000003 0.000001 4.999999 3.053197 1.558589 -0.074927
 63 -0.000007 0.000005 3.713580 -0.334410 -2.825096 -0.524885
 64 0.000001 -0.000000 -4.999999 -0.088726 1.558589 3.066334
 65 7.363603 1.646647 0.495663 -3.141593 -1.570796 0.000000
 66 -0.000006 0.000005 3.619081 -0.528284 -2.367383 -1.007256
 67 16.573921 -0.000001 0.000001 -0.000000 0.000000 -2.019199
 68 15.128181 0.000001 -0.000002 0.031619 0.086785 -0.033197
 69 5.758664 4.244731 -0.000000 0.000000 -0.000000 2.033309
 70 3.177726 0.000001 0.000000 0.000000 0.000000 3.141593
 71 15.708951 0.000002 -0.000003 0.016155 0.048356 -0.018185
 72 0.275149 0.189215 -3.445208 3.130898 0.000409 -1.514604
 73 17.210192 -0.000002 0.000002 0.000000 -0.000000 -2.322356
 74 0.000001 -0.000000 -5.000000 -0.079430 1.546568 -1.570856
 75 0.000006 -0.000005 -3.619080 0.196495 -3.011952 -1.279118
 76 16.573921 0.000000 0.000000 -0.000000 0.000000 -1.611348
 77 15.128181 -0.000002 0.000000 0.214418 -0.027533 0.774389
 78 5.758665 4.244730 -0.000000 -0.000000 -0.000000 1.483530
 79 4.003934 0.000000 0.000001 0.000000 0.000000 0.000000
 80 15.708953 -0.000001 0.000000 0.153371 0.002792 0.528179
 81 0.273998 0.191089 3.439762 -3.130907 -0.000437 -1.508107
 82 17.210192 0.000000 0.000000 0.000000 -0.000000 -2.138823
 83 0.000001 0.000001 5.000000 -0.079311 1.595025 -1.570737
time 2
  0 1.130557 9.712686 27.009436 -0.281436 0.436358 -2.443536
  1 11.368429 6.770639 -23.418964 -0.498313 0.132926 2.346876
  2 -2.276934 0.000003 -1.238187 -1.570795 -1.570451 0.000000
  3 1.796365 0.711888 0.000047 -0.015490 -0.222758 -0.236131
  4 4.119235 -0.003218 0.000043 -0.013375 0.071404 0.192870
  5 4.119119 -0.003238 0.000031 -0.009228 0.115381 0.157345
  6 4.119345 -0.003194 0.000036 -0.010871 0.071825 0.227775
  7 4.120409 -0.002875 0.000995 -0.295116 -0.258548 0.638825
  8 4.443598 0.000002 0.000000 0.836925 0.359453 -1.133890
  9 9.024059 -0.000000 -0.000001 0.000000 0.000000 0.000000
 10 0.443016 -0.483677 1.602710 1.078499 -2.077260 1.348668
 11 6.384776 0.000000 0.000002 -0.349700 0.383772 -1.060306
 12 10.242682 0.000000 -0.000002 -0.000000 0.000000 -1.857339
 13 11.375562 -0.000001 0.000002 3.098362 -0.277393 0.372428
 14 0.728681 0.023431 -1.008293 1.210021 0.600763 0.006085
 15 2.136498 -0.000000 -0.000002 0.000000 -0.000000 -0.078540
 16 2.313138 0.000000 0.000002 0.000000 0.000000 0.000000
 17 3.115506 -0.886039 -0.021432 -0.620285 0.000392 0.514872
 18 2.011152 0.000001 -0.000001 0.000000 -0.000000 1.322792
 19 2.141381 -0.000000 -0.000000 0.000000 0.000000 0.000000
 20 1.734173 0.000002 0.000000 0.000000 0.000000 0.660693
 21 0.000006 -4.440593 -0.000000 1.570544 -0.062990 -0.195737
 22 6.000000 0.000000 0.000000 -2.852789 0.000000 -0.000000
 23 0.000001 -4.440600 0.000000 1.569944 -0.062987 0.004053
 24 11.375561 0.000000 0.000005 -2.353404 -0.240967 0.131012
 25 -0.000001 -4.440604 -0.000001 1.570144 -0.062988 0.004040
 26 10.510131 -0.000000 -0.000002 -0.000000 0.000000 -2.499466
 27 0.000000 -1.748400 4.999998 0.000000 0.004007 1.602291
 28 5.500000 -0.000000 -0.000001 0.073084 0.000000 -0.000000
 29 -0.000003 -1.940599 5.000002 -0.044472 0.004003 -0.000180
 30 6.551491 -0.000002 -0.000001 -0.170934 0.306120 -0.626972
 31 -0.000000 -1.940597 5.000001 -0.027189 -0.053376 0.005295
 32 6.551491 -0.000002 -0.000001 -0.056447 0.159056 -0.288982
 33 0.000000 -1.940600 4.999995 -0.066572 -0.152786 -0.110311
 34 -0.443013 0.490756 -1.602711 -0.023704 0.794570 2.535150
 35 6.384777 -0.000001 -0.000001 -0.540353 -0.280908 -0.508600
 36 10.242682 -0.000005 0.000000 0.000000 -0.000000 -1.910947
 37 11.375560 0.000001 0.000000 1.877827 0.395312 -0.418798
 38 0.728681 0.023431 1.008292 -1.579583 -0.319038 0.212973
 39 2.136496 -0.000000 -0.000000 -0.000000 0.000000 1.282817
 40 2.313138 0.000000 -0.000000 0.000000 0.000000 3.141593
 41 3.115506 -0.886042 0.021432 0.420765 0.316066 0.167178
 42 2.011150 -0.000000 -0.000001 -0.000000 -0.000000 2.082010
 43 2.141379 0.000001 -0.000000 0.000000 0.000000 3.141593
 44 1.734172 -0.000001 -0.000000 -0.000000 -0.000000 1.041748
 45 0.136315 -3.738193 2.525890 1.493698 2.759406 -1.474501
 46 5.613159 0.862365 3.157030 1.595152 -0.135386 0.061522
 47 11.389367 -0.000818 0.158781 1.738318 0.192120 -0.233372
 48 0.000001 -4.440598 0.000000 1.570144 -3.078602 0.004040
 49 6.000000 -0.000000 -0.000000 1.738317 0.000000 -0.000000
 50 0.000001 -4.440601 -0.000000 1.569944 -3.078603 0.004053
 51 10.510131 -0.000004 0.000002 -0.000000 -0.000000 -2.526270
 52 0.000001 -1.748398 -5.000000 -3.141593 0.004007 -1.539299
 53 5.499999 -0.000002 0.000000 0.177536 -0.000000 0.000000
 54 -0.000000 0.000000 -5.000001 -0.044472 3.137589 -0.000177
 55 6.551491 -0.000001 -0.000000 -0.177536 -0.060452 -0.220164
 56 -1.266843 -1.937444 -4.950559 -0.066572 -2.988806 -0.110308
 57 6.551491 -0.000001 -0.000000 -0.177536 -0.060452 -0.220164
 58 0.699371 -1.944207 -5.006848 -0.027189 -3.088217 0.005298
 59 4.226145 -0.003200 0.000001 -0.126239 -0.152785 0.317456
 60 0.000001 4.999998 0.000001 -0.153564 0.000087 2.718702
 61 0.000004 -0.000005 -3.713579 0.095503 -3.012510 -0.750673
 62 0.000003 0.000001 4.999999 3.053197 1.558589 -0.074927
 63 -0.000007 0.000005 3.713580 -0.334410 -2.825096 -0.524885
 64 0.000001 -0.000000 -4.999999 -0.088726 1.558589 3.066334
 65 7.363603 1.646647 0.495663 -3.141593 -1.570796 0.000000
 66 -0.000006 0.000005 3.619081 -0.528284 -2.367383 -1.007256
 67 16.573921 -0.000001 0.000001 -0.000000 0.000000 -2.019199
 68 15.128181 0.000001 -0.000002 0.031619 0.086785 -0.033197
 69 5.758664 4.244731 -0.000000 0.000000 -0.000000 2.033309
 70 3.177726 0.000001 0.000000 0.000000 0.000000 3.141593
 71 15.708951 0.000002 -0.000003 0.016155 0.048356 -0.018185
 72 0.275149 0.189215 -3.445208 3.130898 0.000409 -1.514604
 73 17.210192 -0.000002 0.000002 0.000000 -0.000000 -2.322356
 74 0.000001 -0.000000 -5.000000 -0.079430 1.546568 -1.570856
 75 0.000006 -0.000005 -3.619080 0.196495 -3.011952 -1.279118
 76 16.573921 0.000000 0.000000 -0.000000 0.000000 -1.611348
 77 15.128181 -0.000002 0.000000 0.214418 -0.027533 0.774389
 78 5.758665 4.244730 -0.000000 -0.000000 -0.000000 1.483530
 79 4.003934 0.000000 0.000001 0.000000 0.000000 0.000000
 80 15.708953 -0.000001 0.000000 0.153371 0.002792 0.528179
 81 0.273998 0.191089 3.439762 -3.130907 -0.000437 -1.508107
 82 17.210192 0.000000 0.000000 0.000000 -0.000000 -2.138823
 83 0.000001 0.000001 5.000000 -0.079311 1.595025 -1.570737
time 3
  0 1.130557 9.712686 27.009436 -0.281436 0.436358 -2.443536
  1 11.368429 6.770639 -23.418964 -0.498313 0.132926 2.346876
  2 -2.276934 0.000003 -1.238187 -1.570795 -1.570451 0.000000
  3 1.796390 0.711883 -0.000064 0.019308 -0.222784 -0.236131
  4 4.119234 -0.003218 0.000043 -0.013375 0.071404 0.192870
  5 4.119120 -0.003239 0.000030 -0.009228 0.115381 0.157345
  6 4.119347 -0.003196 0.000035 -0.010871 0.071825 0.227775
  7 4.120410 -0.002876 0.000994 -0.295116 -0.258548 0.638825
  8 4.443598 0.000003 0.000000 0.800150 0.361279 -1.142028
  9 9.024061 0.000001 -0.000001 0.000000 0.000000 0.000000
 10 0.443016 -0.483676 1.602710 1.078499 -2.077260 1.348668
 11 6.384776 0.000001 -0.000000 -0.387654 0.354898 -1.087848
 12 10.242681 -0.000000 -0.000002 0.000000 -0.000000 -1.788216
 13 11.375561 -0.000000 0.000002 3.066932 -0.212721 0.320034
 14 0.728681 0.023430 -1.008294 1.210021 0.600763 0.006085
 15 2.136497 -0.000000 0.000001 0.000000 -0.000000 -0.078540
 16 2.313140 -0.000000 -0.000001 0.000000 0.000000 0.000000
 17 3.115506 -0.886042 -0.021432 -0.620285 0.000392 0.514872
 18 2.011151 0.000003 0.000000 0.000000 0.000000 1.322792
 19 2.141379 -0.000000 -0.000001 0.000000 0.000000 0.000000
 20 1.734172 0.000001 0.000000 0.000000 -0.000000 0.660693
 21 0.000005 -4.440594 -0.000001 1.570544 -0.062990 -0.195737
 22 6.000000 0.000000 0.000001 -2.885697 0.000000 0.000000
 23 0.000002 -4.440601 0.000001 1.569944 -0.062987 0.004053
 24 11.375561 0.000001 0.000005 -2.377978 -0.199848 0.120655
 25 0.000000 -4.440603 0.000000 1.570144 -0.062988 0.004040
 26 10.510130 -0.000000 -0.000002 -0.000000 0.000000 -2.464904
 27 0.000001 -1.748402 4.999999 -0.000000 0.004007 1.602291
 28 5.499998 -0.000000 -0.000000 0.089770 -0.000000 0.000000
 29 -0.000002 -1.940598 5.000000 -0.044472 0.004003 -0.000180
 30 6.551490 0.000000 -0.000001 -0.199506 0.292841 -0.640986
 31 0.000001 -1.940599 5.000001 -0.027189 -0.053376 0.005295
 32 6.551490 0.000000 -0.000001 -0.070372 0.154944 -0.294480
 33 0.000000 -1.940600 4.999995 -0.066572 -0.152786 -0.110311
 34 -0.443013 0.490759 -1.602709 -0.093830 0.831854 2.464053
 35 6.384776 -0.000000 -0.000000 -0.512837 -0.362446 -0.469985
 36 10.242682 -0.000004 0.000001 0.000000 0.000000 -1.941464
 37 11.375560 0.000001 -0.000001 1.839268 0.400418 -0.346375
 38 0.728681 0.023430 1.008293 -1.579583 -0.319038 0.212973
 39 2.136496 0.000002 -0.000000 -0.000000 0.000000 1.282817
 40 2.313138 -0.000000 -0.000000 0.000000 0.000000 3.141593
 41 3.115506 -0.886042 0.021431 0.420766 0.316066 0.167178
 42 2.011150 -0.000000 0.000000 0.000000 0.000000 2.082010
 43 2.141380 -0.000000 -0.000000 0.000000 0.000000 3.141593
 44 1.734172 -0.000001 0.000000 -0.000000 0.000000 1.041748
 45 0.136315 -3.738193 2.525890 1.493698 2.759406 -1.474501
 46 5.613160 0.862365 3.157031 1.595152 -0.135386 0.061522
 47 11.389366 -0.000818 0.158781 1.716498 0.201148 -0.197221
 48 0.000001 -4.440598 0.000000 1.570144 -3.078602 0.004040
 49 6.000000 0.000002 0.000000 1.716497 0.000000 0.000000
 50 0.000002 -4.440601 -0.000000 1.569944 -3.078603 0.004053
 51 10.510132 -0.000003 0.000002 -0.000000 -0.000000 -2.541528
 52 -0.000000 -1.748398 -5.000000 3.141593 0.004007 -1.539299
 53 5.500000 -0.000003 0.000001 0.166152 -0.000000 0.000000
 54 -0.000000 -0.000000 -5.000000 -0.044472 3.137589 -0.000177
 55 6.551491 -0.000001 0.000000 -0.166152 -0.100221 -0.209514
 56 -1.266843 -1.937441 -4.950561 -0.066572 -2.988806 -0.110308
 57 6.551491 -0.000001 0.000000 -0.166152 -0.100221 -0.209514
 58 0.699371 -1.944207 -5.006847 -0.027189 -3.088217 0.005298
 59 4.226146 -0.003202 -0.000000 -0.126239 -0.152785 0.317456
 60 -0.000000 4.999999 0.000000 -0.153564 0.000087 2.718702
 61 0.000004 -0.000005 -3.713579 0.095503 -3.012510 -0.750673
 62 0.000003 0.000001 4.999999 3.053197 1.558589 -0.074927
 63 -0.000007 0.000005 3.713580 -0.334410 -2.825096 -0.524885
 64 0.000001 -0.000000 -4.999999 -0.088726 1.558589 3.066334
 65 7.363603 1.646647 0.495663 -3.141593 -1.570796 0.000000
 66 -0.000006 0.000005 3.619081 -0.528284 -2.367383 -1.007256
 67 16.573921 -0.000001 0.000001 -0.000000 0.000000 -2.019199
 68 15.128181 0.000001 -0.000002 0.031619 0.086785 -0.033197
 69 5.758664 4.244731 -0.000000 0.000000 -0.000000 2.033309
 70 3.177726 0.000001 0.000000 0.000000 0.000000 3.141593
 71 15.708951 0.000002 -0.000003 0.016155 0.048356 -0.018185
 72 0.275149 0.189215 -3.445208 3.130898 0.000409 -1.514604
 73 17.210192 -0.000002 0.000002 0.000000 -0.000000 -2.322356
 74 0.000001 -0.000000 -5.000000 -0.079430 1.546568 -1.570856
 75 0.000006 -0.000005 -3.619080 0.196495 -3.011952 -1.279118
 76 16.573921 0.000000 0.000000 -0.000000 0.000000 -1.611348
 77 15.128181 -0.000002 0.000000 0.214418 -0.027533 0.774389
 78 5.758665 4.244730 -0.000000 -0.000000 -0.000000 1.483530
 79 4.003934 0.000000 0.000001 0.000000 0.000000 0.000000
 80 15.708953 -0.000001 0.000000 0.153371 0.002792 0.528179
 81 0.273998 0.191089 3.439762 -3.130907 -0.000437 -1.508107
 82 17.210192 0.000000 0.000000 0.000000 -0.000000 -2.138823
 83 0.000001 0.000001 5.000000 -0.079311 1.595025 -1.570737
time 4
  0 1.130557 9.712686 27.009436 -0.281436 0.436358 -2.443536
  1 11.368429 6.770639 -23.418964 -0.498313 0.132926 2.346876
  2 -2.276934 0.000003 -1.238187 -1.570795 -1.570451 0.000000
  3 1.796397 0.711882 -0.000100 0.030755 -0.222792 -0.236131
  4 4.119236 -0.003219 0.000043 -0.013375 0.071404 0.192870
  5 4.119121 -0.003239 0.000030 -0.009228 0.115381 0.157345
  6 4.119345 -0.003193 0.000036 -0.010871 0.071825 0.227775
  7 4.120409 -0.002873 0.000995 -0.295116 -0.258548 0.638825
  8 4.443599 -0.000001 -0.000001 0.788044 0.361818 -1.144722
  9 9.024059 0.000000 -0.000001 0.000000 0.000000 0.000000
 10 0.443016 -0.483679 1.602710 1.078499 -2.077260 1.348668
 11 6.384776 -0.000001 -0.000001 -0.425959 0.364100 -1.107275
 12 10.242682 -0.000000 -0.000000 -0.000000 0.000000 -1.752527
 13 11.375561 0.000003 -0.000000 3.075742 -0.171023 0.289257
 14 0.728681 0.023430 -1.008292 1.210021 0.600763 0.006085
 15 2.136496 0.000000 0.000001 -0.000000 -0.000000 -0.078540
 16 2.313140 -0.000000 0.000000 0.000000 0.000000 0.000000
 17 3.115507 -0.886043 -0.021430 -0.620285 0.000392 0.514872
 18 2.011150 0.000002 -0.000001 -0.000000 -0.000000 1.322792
 19 2.141382 -0.000000 -0.000000 0.000000 0.000000 0.000000
 20 1.734172 0.000003 0.000000 0.000000 0.000000 0.660693
 21 0.000004 -4.440594 -0.000001 1.570544 -0.062990 -0.195737
 22 6.000000 0.000002 -0.000000 -2.879467 0.000000 0.000000
 23 0.000002 -4.440600 0.000002 1.569944 -0.062987 0.004053
 24 11.375561 0.000001 0.000003 -2.378448 -0.170788 0.116474
 25 -0.000000 -4.440604 0.000002 1.570144 -0.062988 0.004040
 26 10.510130 -0.000000 -0.000000 -0.000000 0.000000 -2.447059
 27 -0.000000 -1.748400 4.999998 -0.000000 0.004007 1.602291
 28 5.500000 -0.000000 0.000000 0.099153 0.000000 0.000000
 29 -0.000002 -1.940599 5.000000 -0.044472 0.004003 -0.000180
 30 6.551491 -0.000002 -0.000001 -0.218887 0.303058 -0.650922
 31 0.000001 -1.940599 5.000000 -0.027189 -0.053376 0.005295
 32 6.551491 -0.000002 -0.000001 -0.077873 0.161138 -0.297019
 33 0.000001 -1.940601 4.999995 -0.066572 -0.152786 -0.110311
 34 -0.443013 0.490754 -1.602711 -0.117452 0.843019 2.439670
 35 6.384776 0.000001 -0.000001 -0.496011 -0.393169 -0.469847
 36 10.242682 -0.000001 0.000001 0.000000 0.000000 -1.948544
 37 11.375561 -0.000001 -0.000001 1.832365 0.398448 -0.308319
 38 0.728681 0.023431 1.008293 -1.579583 -0.319038 0.212973
 39 2.136497 -0.000001 -0.000000 -0.000000 0.000000 1.282817
 40 2.313138 0.000001 -0.000000 0.000000 0.000000 3.141593
 41 3.115506 -0.886042 0.021433 0.420765 0.316066 0.167178
 42 2.011149 -0.000000 0.000002 -0.000000 -0.000000 2.082010
 43 2.141379 -0.000000 -0.000001 0.000000 0.000000 3.141593
 44 1.734171 -0.000001 0.000001 -0.000000 -0.000000 1.041748
 45 0.136315 -3.738192 2.525890 1.493698 2.759406 -1.474501
 46 5.613160 0.862365 3.157032 1.595152 -0.135386 0.061522
 47 11.389368 -0.000819 0.158781 1.711475 0.202535 -0.178353
 48 0.000001 -4.440598 -0.000001 1.570144 -3.078602 0.004040
 49 6.000000 -0.000000 -0.000000 1.711475 -0.000000 -0.000000
 50 0.000002 -4.440600 0.000001 1.569944 -3.078603 0.004053
 51 10.510130 0.000001 0.000001 0.000000 0.000000 -2.545068
 52 -0.000000 -1.748402 -5.000002 3.141593 0.004007 -1.539299
 53 5.500000 -0.000000 0.000001 0.160897 -0.000000 0.000000
 54 -0.000001 -0.000002 -5.000000 -0.044472 3.137589 -0.000177
 55 6.551490 0.000002 -0.000002 -0.160897 -0.113536 -0.207720
 56 -1.266842 -1.937442 -4.950559 -0.066572 -2.988806 -0.110308
 57 6.551490 0.000002 -0.000002 -0.160897 -0.113536 -0.207720
 58 0.699371 -1.944205 -5.006847 -0.027189 -3.088217 0.005298
 59 4.226147 -0.003201 -0.000001 -0.126239 -0.152785 0.317456
 60 -0.000001 5.000000 -0.000000 -0.153564 0.000087 2.718702
 61 0.000004 -0.000005 -3.713579 0.095503 -3.012510 -0.750673
 62 0.000003 0.000001 4.999999 3.053197 1.558589 -0.074927
 63 -0.000007 0.000005 3.713580 -0.334410 -2.825096 -0.524885
 64 0.000001 -0.000000 -4.999999 -0.088726 1.558589 3.066334
 65 7.363603 1.646647 0.495663 -3.141593 -1.570796 0.000000
 66 -0.000006 0.000005 3.619081 -0.528284 -2.367383 -1.007256
 67 16.573921 -0.000001 0.000001 -0.000000 0.000000 -2.019199
 68 15.128181 0.000001 -0.000002 0.031619 0.086785 -0.033197
 69 5.758664 4.244731 -0.000000 0.000000 -0.000000 2.033309
 70 3.177726 0.000001 0.000000 0.000000 0.000000 3.141593
 71 15.708951 0.000002 -0.000003 0.016155 0.048356 -0.018185
 72 0.275149 0.189215 -3.445208 3.130898 0.000409 -1.514604
 73 17.210192 -0.000002 0.000002 0.000000 -0.000000 -2.322356
 74 0.000001 -0.000000 -5.000000 -0.079430 1.546568 -1.570856
 75 0.000006 -0.000005 -3.619080 0.196495 -3.011952 -1.279118
 76 16.573921 0.000000 0.000000 -0.000000 0.000000 -1.611348
 77 15.128181 -0.000002 0.000000 0.214418 -0.027533 0.774389
 78 5.758665 4.244730 -0.000000 -0.000000 -0.000000 1.483530
 79 4.003934 0.000000 0.000001 0.000000 0.000000 0.000000
 80 15.708953 -0.000001 0.000000 0.153371 0.002792 0.528179
 81 0.273998 0.191089 3.439762 -3.130907 -0.000437 -1.508107
 82 17.210192 0.000000 0.000000 0.000000 -0.000000 -2.138823
 83 0.000001 0.000001 5.000000 -0.079311 1.595025 -1.570737
time 5
  0 1.130557 9.712686 27.009436 -0.281436 0.436358 -2.443536
  1 11.368429 6.770639 -23.418964 -0.498313 0.132926 2.346876
  2 -2.276934 0.000003 -1.238187 -1.570795 -1.570451 0.000000
  3 1.796400 0.711882 -0.000111 0.033960 -0.222795 -0.236131
  4 4.119235 -0.003218 0.000043 -0.013375 0.071404 0.192870
  5 4.119118 -0.003237 0.000031 -0.009228 0.115381 0.157345
  6 4.119349 -0.003196 0.000035 -0.010871 0.071825 0.227775
  7 4.120411 -0.002876 0.000995 -0.295116 -0.258548 0.638825
  8 4.443598 -0.000001 0.000000 0.784653 0.361964 -1.145477
  9 9.024062 0.000001 -0.000001 0.000000 0.000000 0.000000
 10 0.443016 -0.483681 1.602709 1.078499 -2.077260 1.348668
 11 6.384776 -0.000002 -0.000002 -0.469761 0.387012 -1.124632
 12 10.242682 -0.000001 -0.000001 -0.000000 -0.000000 -1.726033
 13 11.375562 -0.000000 0.000003 3.097836 -0.132081 0.264796
 14 0.728681 0.023432 -1.008292 1.210021 0.600763 0.006085
 15 2.136497 -0.000000 0.000001 -0.000000 -0.000000 -0.078540
 16 2.313138 0.000000 -0.000001 0.000000 0.000000 0.000000
 17 3.115506 -0.886040 -0.021431 -0.620285 0.000392 0.514872
 18 2.011150 -0.000000 -0.000001 0.000000 0.000000 1.322792
 19 2.141379 -0.000000 -0.000001 0.000000 0.000000 0.000000
 20 1.734172 0.000000 -0.000000 0.000000 0.000000 0.660693
 21 0.000006 -4.440593 -0.000001 1.570544 -0.062990 -0.195737
 22 6.000000 -0.000000 0.000002 -2.860488 0.000000 -0.000000
 23 0.000002 -4.440601 0.000002 1.569944 -0.062987 0.004053
 24 11.375561 0.000001 0.000005 -2.371122 -0.143155 0.114835
 25 -0.000000 -4.440602 0.000002 1.570144 -0.062988 0.004040
 26 10.510132 -0.000001 -0.000002 0.000000 0.000000 -2.433813
 27 0.000001 -1.748400 4.999999 0.000000 0.004007 1.602291
 28 5.500000 -0.000000 0.000000 0.106895 0.000000 -0.000000
 29 -0.000001 -1.940599 5.000000 -0.044472 0.004003 -0.000180
 30 6.551490 -0.000001 -0.000001 -0.237024 0.321807 -0.659891
 31 -0.000001 -1.940598 5.000003 -0.027189 -0.053376 0.005295
 32 6.551490 -0.000001 -0.000001 -0.083858 0.171170 -0.298443
 33 0.000000 -1.940600 4.999996 -0.066572 -0.152786 -0.110311
 34 -0.443013 0.490755 -1.602709 -0.126797 0.847253 2.429971
 35 6.384776 -0.000001 0.000001 -0.480327 -0.408786 -0.483780
 36 10.242681 0.000001 0.000001 0.000000 -0.000000 -1.948351
 37 11.375561 0.000003 -0.000001 1.836417 0.392707 -0.276363
 38 0.728681 0.023431 1.008292 -1.579583 -0.319038 0.212973
 39 2.136497 -0.000000 -0.000000 -0.000000 0.000000 1.282817
 40 2.313140 0.000001 0.000000 0.000000 0.000000 3.141593
 41 3.115506 -0.886041 0.021431 0.420765 0.316066 0.167178
 42 2.011150 0.000000 0.000000 -0.000000 0.000000 2.082010
 43 2.141379 0.000000 0.000000 0.000000 0.000000 3.141593
 44 1.734172 -0.000001 -0.000000 -0.000000 -0.000000 1.041748
 45 0.136315 -3.738193 2.525890 1.493698 2.759406 -1.474501
 46 5.613160 0.862366 3.157033 1.595152 -0.135386 0.061522
 47 11.389366 -0.000817 0.158781 1.711994 0.201178 -0.162672
 48 0.000001 -4.440599 0.000002 1.570144 -3.078602 0.004040
 49 6.000000 0.000002 -0.000001 1.711994 -0.000000 -0.000000
 50 0.000001 -4.440601 0.000001 1.569944 -3.078603 0.004053
 51 10.510131 -0.000002 0.000002 0.000000 -0.000000 -2.544971
 52 0.000001 -1.748400 -5.000001 3.141593 0.004007 -1.539299
 53 5.499998 0.000001 0.000000 0.156930 0.000000 0.000000
 54 -0.000000 0.000001 -4.999999 -0.044472 3.137589 -0.000177
 55 6.551489 -0.000002 0.000002 -0.156930 -0.118665 -0.209358
 56 -1.266844 -1.937444 -4.950559 -0.066572 -2.988806 -0.110308
 57 6.551490 -0.000002 0.000002 -0.156930 -0.118665 -0.209358
 58 0.699370 -1.944208 -5.006846 -0.027189 -3.088217 0.005298
 59 4.226147 -0.003202 -0.000000 -0.126239 -0.152785 0.317456
 60 -0.000001 5.000003 0.000000 -0.153564 0.000087 2.718702
 61 0.000004 -0.000005 -3.713579 0.095503 -3.012510 -0.750673
 62 0.000003 0.000001 4.999999 3.053197 1.558589 -0.074927
 63 -0.000007 0.000005 3.713580 -0.334410 -2.825096 -0.524885
 64 0.000001 -0.000000 -4.999999 -0.088726 1.558589 3.066334
 65 7.363603 1.646647 0.495663 -3.141593 -1.570796 0.000000
 66 -0.000006 0.000005 3.619081 -0.528284 -2.367383 -1.007256
 67 16.573921 -0.000001 0.000001 -0.000000 0.000000 -2.019199
 68 15.128181 0.000001 -0.000002 0.031619 0.086785 -0.033197
 69 5.758664 4.244731 -0.000000 0.000000 -0.000000 2.033309
 70 3.177726 0.000001 0.000000 0.000000 0.000000 3.141593
 71 15.708951 0.000002 -0.000003 0.016155 0.048356 -0.018185
 72 0.275149 0.189215 -3.445208 3.130898 0.000409 -1.514604
 73 17.210192 -0.000002 0.000002 0.000000 -0.000000 -2.322356
 74 0.000001 -0.000000 -5.000000 -0.079430 1.546568 -1.570856
 75 0.000006 -0.000005 -3.619080 0.196495 -3.011952 -1.279118
 76 16.573921 0.000000 0.000000 -0.000000 0.000000 -1.611348
 77 15.128181 -0.000002 0.000000 0.214418 -0.027533 0.774389
 78 5.758665 4.244730 -0.000000 -0.000000 -0.000000 1.483530
 79 4.003934 0.000000 0.000001 0.000000 0.000000 0.000000
 80 15.708953 -0.000001 0.000000 0.153371 0.002792 0.528179
 81 0.273998 0.191089 3.439762 -3.130907 -0.000437 -1.508107
 82 17.210192 0.000000 0.000000 0.000000 -0.000000 -2.138823
 83 0.000001 0.000001 5.000000 -0.079311 1.595025 -1.570737
time 6
  0 1.130557 9.712686 27.009436 -0.281436 0.436358 -2.443536
  1 11.368429 6.770639 -23.418964 -0.498313 0.132926 2.346876
  2 -2.276934 0.000003 -1.238187 -1.570795 -1.570451 0.000000
  3 1.796399 0.711881 -0.000104 0.031671 -0.222793 -0.236131
  4 4.119234 -0.003218 0.000044 -0.013375 0.071404 0.192870
  5 4.119121 -0.003237 0.000031 -0.009228 0.115381 0.157345
  6 4.119345 -0.003194 0.000036 -0.010871 0.071825 0.227775
  7 4.120411 -0.002876 0.000994 -0.295116 -0.258548 0.638825
  8 4.443599 0.000001 -0.000000 0.787075 0.361860 -1.144938
  9 9.024059 0.000000 -0.000001 0.000000 0.000000 0.000000
 10 0.443016 -0.483676 1.602711 1.078499 -2.077260 1.348668
 11 6.384776 -0.000001 -0.000000 -0.515434 0.416629 -1.140374
 12 10.242680 -0.000001 -0.000001 0.000000 0.000000 -1.707507
 13 11.375561 0.000000 0.000001 3.126798 -0.097151 0.246852
 14 0.728681 0.023430 -1.008292 1.210021 0.600763 0.006085
 15 2.136497 -0.000001 0.000001 -0.000000 -0.000000 -0.078540
 16 2.313139 -0.000000 0.000001 0.000000 0.000000 0.000000
 17 3.115506 -0.886041 -0.021432 -0.620285 0.000392 0.514872
 18 2.011149 -0.000001 -0.000000 -0.000000 0.000000 1.322792
 19 2.141380 -0.000000 -0.000001 0.000000 0.000000 0.000000
 20 1.734171 0.000001 -0.000000 -0.000000 0.000000 0.660693
 21 0.000005 -4.440594 -0.000001 1.570544 -0.062990 -0.195737
 22 6.000000 -0.000001 0.000002 -2.834933 -0.000000 0.000000
 23 0.000001 -4.440599 0.000000 1.569944 -0.062987 0.004053
 24 11.375562 -0.000002 0.000005 -2.359279 -0.118458 0.115224
 25 -0.000001 -4.440602 -0.000002 1.570144 -0.062988 0.004040
 26 10.510128 -0.000000 -0.000002 0.000000 0.000000 -2.424550
 27 -0.000000 -1.748401 4.999997 -0.000000 0.004007 1.602290
 28 5.499999 0.000000 -0.000001 0.113076 -0.000000 -0.000000
 29 -0.000005 -1.940599 5.000001 -0.044472 0.004003 -0.000180
 30 6.551491 0.000001 0.000001 -0.253320 0.344496 -0.667802
 31 0.000001 -1.940599 5.000002 -0.027189 -0.053376 0.005295
 32 6.551491 0.000001 0.000001 -0.088470 0.182814 -0.299009
 33 0.000000 -1.940599 4.999997 -0.066572 -0.152786 -0.110311
 34 -0.443013 0.490757 -1.602708 -0.125456 0.846652 2.431364
 35 6.384776 -0.000000 0.000001 -0.466384 -0.413221 -0.506109
 36 10.242679 -0.000002 -0.000000 0.000000 0.000000 -1.943145
 37 11.375561 0.000003 -0.000000 1.847393 0.384217 -0.250728
 38 0.728681 0.023431 1.008292 -1.579583 -0.319038 0.212973
 39 2.136496 -0.000001 -0.000001 -0.000000 0.000000 1.282817
 40 2.313138 0.000001 -0.000000 0.000000 0.000000 3.141593
 41 3.115506 -0.886042 0.021430 0.420766 0.316066 0.167178
 42 2.011151 -0.000000 0.000000 -0.000000 -0.000000 2.082010
 43 2.141379 0.000000 0.000000 0.000000 0.000000 3.141593
 44 1.734173 -0.000001 -0.000000 -0.000000 -0.000000 1.041748
 45 0.136315 -3.738193 2.525890 1.493698 2.759406 -1.474501
 46 5.613159 0.862365 3.157032 1.595152 -0.135386 0.061522
 47 11.389365 -0.000818 0.158780 1.716147 0.197868 -0.150217
 48 0.000000 -4.440599 0.000001 1.570144 -3.078602 0.004040
 49 5.999999 0.000001 -0.000001 1.716147 0.000000 -0.000000
 50 0.000002 -4.440601 -0.000000 1.569944 -3.078603 0.004053
 51 10.510129 -0.000002 0.000001 -0.000000 -0.000000 -2.542369
 52 0.000001 -1.748397 -5.000000 -3.141593 0.004007 -1.539299
 53 5.499999 -0.000002 -0.000000 0.153992 0.000000 -0.000000
 54 -0.000001 0.000002 -4.999999 -0.044472 3.137589 -0.000177
 55 6.551490 0.000001 -0.000000 -0.153992 -0.118212 -0.213110
 56 -1.266844 -1.937440 -4.950561 -0.066572 -2.988806 -0.110308
 57 6.551491 0.000001 -0.000000 -0.153992 -0.118212 -0.213110
 58 0.699370 -1.944209 -5.006846 -0.027189 -3.088217 0.005298
 59 4.226145 -0.003200 0.000000 -0.126239 -0.152785 0.317456
 60 -0.000000 5.000001 0.000000 -0.153564 0.000087 2.718702
 61 0.000004 -0.000005 -3.713579 0.095503 -3.012510 -0.750673
 62 0.000003 0.000001 4.999999 3.053197 1.558589 -0.074927
 63 -0.000007 0.000005 3.713580 -0.334410 -2.825096 -0.524885
 64 0.000001 -0.000000 -4.999999 -0.088726 1.558589 3.066334
 65 7.363603 1.646647 0.495663 -3.141593 -1.570796 0.000000
 66 -0.000006 0.000005 3.619081 -0.528284 -2.367383 -1.007256
 67 16.573921 -0.000001 0.000001 -0.000000 0.000000 -2.019199
 68 15.128181 0.000001 -0.000002 0.031619 0.086785 -0.033197
 69 5.758664 4.244731 -0.000000 0.000000 -0.000000 2.033309
 70 3.177726 0.000001 0.000000 0.000000 0.000000 3.141593
 71 15.708951 0.000002 -0.000003 0.016155 0.048356 -0.018185
 72 0.275149 0.189215 -3.445208 3.130898 0.000409 -1.514604
 73 17.210192 -0.000002 0.000002 0.000000 -0.000000 -2.322356
 74 0.000001 -0.000000 -5.000000 -0.079430 1.546568 -1.570856
 75 0.000006 -0.000005 -3.619080 0.196495 -3.011952 -1.279118
 76 16.573921 0.000000 0.000000 -0.000000 0.000000 -1.611348
 77 15.128181 -0.000002 0.000000 0.214418 -0.027533 0.774389
 78 5.758665 4.244730 -0.000000 -0.000000 -0.000000 1.483530
 79 4.003934 0.000000 0.000001 0.000000 0.000000 0.000000
 80 15.708953 -0.000001 0.000000 0.153371 0.002792 0.528179
 81 0.273998 0.191089 3.439762 -3.130907 -0.000437 -1.508107
 82 17.210192 0.000000 0.000000 0.000000 -0.000000 -2.138823
 83 0.000001 0.000001 5.000000 -0.079311 1.595025 -1.570737
time 7
  0 1.130557 9.712686 27.009436 -0.281436 0.436358 -2.443536
  1 11.368429 6.770639 -23.418964 -0.498313 0.132926 2.346876
  2 -2.276934 0.000003 -1.238187 -1.570795 -1.570451 0.000000
  3 1.796394 0.711882 -0.000087 0.026634 -0.222789 -0.236131
  4 4.119233 -0.003218 0.000045 -0.013375 0.071404 0.192870
  5 4.119126 -0.003240 0.000028 -0.009228 0.115381 0.157345
  6 4.119343 -0.003192 0.000036 -0.010871 0.071825 0.227775
  7 4.120409 -0.002872 0.000995 -0.295116 -0.258548 0.638825
  8 4.443599 -0.000002 -0.000001 0.792402 0.361628 -1.143751
  9 9.024061 0.000000 -0.000001 0.000000 0.000000 0.000000
 10 0.443016 -0.483683 1.602708 1.078499 -2.077260 1.348668
 11 6.384776 0.000000 0.000001 -0.558487 0.446505 -1.154531
 12 10.242682 -0.000000 -0.000002 0.000000 0.000000 -1.695300
 13 11.375561 -0.000003 0.000001 -3.126489 -0.067914 0.234712
 14 0.728681 0.023430 -1.008292 1.210021 0.600763 0.006085
 15 2.136497 -0.000000 -0.000000 0.000000 -0.000000 -0.078540
 16 2.313139 0.000001 -0.000001 0.000000 0.000000 0.000000
 17 3.115507 -0.886040 -0.021432 -0.620285 0.000392 0.514872
 18 2.011150 0.000001 0.000000 0.000000 -0.000000 1.322792
 19 2.141379 -0.000001 -0.000001 0.000000 0.000000 0.000000
 20 1.734172 0.000001 0.000000 0.000000 -0.000000 0.660693
 21 0.000006 -4.440593 -0.000001 1.570544 -0.062990 -0.195737
 22 6.000000 -0.000000 0.000000 -2.808399 0.000000 -0.000000
 23 0.000002 -4.440600 -0.000001 1.569944 -0.062987 0.004053
 24 11.375563 -0.000001 0.000004 -2.346057 -0.098036 0.116755
 25 -0.000001 -4.440602 0.000000 1.570144 -0.062988 0.004040
 26 10.510130 -0.000000 -0.000002 0.000000 0.000000 -2.418446
 27 -0.000001 -1.748400 4.999998 -0.000000 0.004007 1.602290
 28 5.499999 0.000001 -0.000001 0.117824 0.000000 0.000000
 29 0.000000 -1.940599 5.000000 -0.044472 0.004003 -0.000180
 30 6.551491 0.000000 0.000001 -0.267198 0.366976 -0.674562
 31 0.000000 -1.940599 5.000001 -0.027189 -0.053376 0.005295
 32 6.551491 0.000000 0.000001 -0.091893 0.194098 -0.299042
 33 0.000000 -1.940599 4.999996 -0.066572 -0.152786 -0.110311
 34 -0.443013 0.490753 -1.602710 -0.117452 0.843018 2.439670
 35 6.384776 0.000001 -0.000001 -0.454930 -0.410583 -0.531398
 36 10.242683 -0.000003 0.000001 -0.000000 -0.000000 -1.935101
 37 11.375558 0.000001 0.000000 1.861343 0.374506 -0.231799
 38 0.728681 0.023431 1.008292 -1.579583 -0.319038 0.212973
 39 2.136496 0.000001 -0.000000 -0.000000 0.000000 1.282817
 40 2.313139 -0.000000 0.000000 0.000000 0.000000 3.141593
 41 3.115506 -0.886041 0.021432 0.420765 0.316066 0.167178
 42 2.011151 -0.000000 -0.000000 -0.000000 0.000000 2.082010
 43 2.141380 0.000000 0.000000 0.000000 0.000000 3.141593
 44 1.734173 -0.000001 0.000000 -0.000000 -0.000000 1.041748
 45 0.136315 -3.738192 2.525891 1.493698 2.759406 -1.474501
 46 5.613159 0.862366 3.157032 1.595152 -0.135386 0.061522
 47 11.389364 -0.000817 0.158781 1.722057 0.193524 -0.141108
 48 0.000000 -4.440599 0.000000 1.570144 -3.078602 0.004040
 49 5.999999 0.000003 0.000000 1.722057 -0.000000 0.000000
 50 0.000001 -4.440601 0.000001 1.569944 -3.078603 0.004053
 51 10.510131 -0.000002 0.000002 -0.000000 -0.000000 -2.538347
 52 0.000001 -1.748396 -5.000000 3.141593 0.004007 -1.539299
 53 5.500000 -0.000002 0.000000 0.151981 0.000000 0.000000
 54 0.000001 -0.000001 -5.000000 -0.044472 3.137590 -0.000177
 55 6.551490 0.000001 -0.000001 -0.151981 -0.114610 -0.217665
 56 -1.266843 -1.937443 -4.950561 -0.066572 -2.988806 -0.110308
 57 6.551491 0.000001 -0.000001 -0.151981 -0.114610 -0.217665
 58 0.699371 -1.944209 -5.006845 -0.027189 -3.088217 0.005298
 59 4.226147 -0.003201 -0.000000 -0.126239 -0.152785 0.317456
 60 -0.000001 5.000002 0.000000 -0.153564 0.000087 2.718702
 61 0.000004 -0.000005 -3.713579 0.095503 -3.012510 -0.750673
 62 0.000003 0.000001 4.999999 3.053197 1.558589 -0.074927
 63 -0.000007 0.000005 3.713580 -0.334410 -2.825096 -0.524885
 64 0.000001 -0.000000 -4.999999 -0.088726 1.558589 3.066334
 65 7.363603 1.646647 0.495663 -3.141593 -1.570796 0.000000
 66 -0.000006 0.000005 3.619081 -0.528284 -2.367383 -1.007256
 67 16.573921 -0.000001 0.000001 -0.000000 0.000000 -2.019199
 68 15.128181 0.000001 -0.000002 0.031619 0.086785 -0.033197
 69 5.758664 4.244731 -0.000000 0.000000 -0.000000 2.033309
 70 3.177726 0.000001 0.000000 0.000000 0.000000 3.141593
 71 15.708951 0.000002 -0.000003 0.016155 0.048356 -0.018185
 72 0.275149 0.189215 -3.445208 3.130898 0.000409 -1.514604
 73 17.210192 -0.000002 0.000002 0.000000 -0.000000 -2.322356
 74 0.000001 -0.000000 -5.000000 -0.079430 1.546568 -1.570856
 75 0.000006 -0.000005 -3.619080 0.196495 -3.011952 -1.279118
 76 16.573921 0.000000 0.000000 -0.000000 0.000000 -1.611348
 77 15.128181 -0.000002 0.000000 0.214418 -0.027533 0.774389
 78 5.758665 4.244730 -0.000000 -0.000000 -0.000000 1.483530
 79 4.003934 0.000000 0.000001 0.000000 0.000000 0.000000
 80 15.708953 -0.000001 0.000000 0.153371 0.002792 0.528179
 81 0.273998 0.191089 3.439762 -3.130907 -0.000437 -1.508107
 82 17.210192 0.000000 0.000000 0.000000 -0.000000 -2.138823
 83 0.000001 0.000001 5.000000 -0.079311 1.595025 -1.570737
time 8
  0 1.130557 9.712686 27.009436 -0.281436 0.436358 -2.443536
  1 11.368429 6.770639 -23.418964 -0.498313 0.132926 2.346876
  2 -2.276934 0.000003 -1.238187 -1.570795 -1.570451 0.000000
  3 1.796392 0.711883 -0.000071 0.021598 -0.222785 -0.236131
  4 4.119235 -0.003218 0.000043 -0.013375 0.071404 0.192870
  5 4.119118 -0.003237 0.000031 -0.009228 0.115381 0.157345
  6 4.119348 -0.003196 0.000035 -0.010871 0.071825 0.227775
  7 4.120409 -0.002874 0.000995 -0.295116 -0.258548 0.638825
  8 4.443599 -0.000001 0.000001 0.797729 0.361389 -1.142566
  9 9.024059 0.000001 -0.000001 0.000000 0.000000 0.000000
 10 0.443016 -0.483680 1.602710 1.078499 -2.077260 1.348668
 11 6.384777 -0.000001 -0.000001 -0.593636 0.470614 -1.166481
 12 10.242684 0.000000 -0.000001 0.000000 -0.000000 -1.687521
 13 11.375562 -0.000002 0.000001 -3.101324 -0.046246 0.227196
 14 0.728681 0.023432 -1.008293 1.210021 0.600763 0.006085
 15 2.136498 -0.000000 -0.000003 -0.000000 -0.000000 -0.078540
 16 2.313139 0.000000 -0.000000 0.000000 0.000000 0.000000
 17 3.115506 -0.886040 -0.021432 -0.620285 0.000392 0.514872
 18 2.011152 -0.000001 0.000000 0.000000 -0.000000 1.322792
 19 2.141380 -0.000000 -0.000001 0.000000 0.000000 0.000000
 20 1.734173 0.000001 -0.000000 -0.000000 0.000000 0.660693
 21 0.000007 -4.440594 -0.000000 1.570544 -0.062990 -0.195737
 22 6.000000 -0.000001 0.000001 -2.786072 -0.000000 0.000000
 23 0.000001 -4.440600 -0.000000 1.569944 -0.062987 0.004053
 24 11.375562 -0.000001 0.000005 -2.334494 -0.083067 0.118431
 25 -0.000001 -4.440602 0.000001 1.570144 -0.062988 0.004040
 26 10.510131 -0.000000 -0.000002 -0.000000 -0.000000 -2.414557
 27 0.000001 -1.748401 4.999999 -0.000000 0.004007 1.602290
 28 5.500002 -0.000000 -0.000001 0.121302 0.000000 -0.000000
 29 -0.000003 -1.940599 5.000000 -0.044472 0.004003 -0.000180
 30 6.551491 -0.000001 -0.000001 -0.278029 0.385286 -0.680046
 31 0.000001 -1.940599 5.000001 -0.027189 -0.053376 0.005295
 32 6.551491 -0.000001 -0.000001 -0.094346 0.203189 -0.298940
 33 -0.000001 -1.940598 4.999997 -0.066572 -0.152786 -0.110311
 34 -0.443013 0.490757 -1.602708 -0.106881 0.838105 2.450606
 35 6.384777 0.000001 -0.000004 -0.446307 -0.404902 -0.554549
 36 10.242682 -0.000003 0.000000 -0.000000 -0.000000 -1.926478
 37 11.375560 -0.000001 -0.000001 1.874560 0.365456 -0.219603
 38 0.728680 0.023431 1.008291 -1.579583 -0.319038 0.212973
 39 2.136497 -0.000001 -0.000000 0.000000 0.000000 1.282817
 40 2.313138 0.000001 0.000000 0.000000 0.000000 3.141593
 41 3.115506 -0.886041 0.021431 0.420766 0.316066 0.167178
 42 2.011151 -0.000000 0.000000 -0.000000 0.000000 2.082010
 43 2.141380 0.000000 0.000001 0.000000 0.000000 3.141593
 44 1.734172 -0.000001 0.000000 -0.000000 -0.000000 1.041748
 45 0.136315 -3.738192 2.525890 1.493698 2.759406 -1.474501
 46 5.613159 0.862366 3.157032 1.595152 -0.135386 0.061522
 47 11.389366 -0.000819 0.158780 1.727929 0.189200 -0.135308
 48 0.000000 -4.440598 0.000001 1.570144 -3.078602 0.004040
 49 6.000000 0.000000 -0.000001 1.727929 -0.000000 -0.000000
 50 0.000002 -4.440601 0.000000 1.569944 -3.078603 0.004053
 51 10.510129 -0.000001 0.000001 0.000000 0.000000 -2.534036
 52 0.000001 -1.748399 -5.000000 -3.141593 0.004007 -1.539299
 53 5.499998 -0.000001 -0.000000 0.150709 0.000000 -0.000000
 54 0.000000 0.000001 -4.999999 -0.044472 3.137589 -0.000177
 55 6.551491 -0.000001 -0.000001 -0.150709 -0.110079 -0.221887
 56 -1.266843 -1.937441 -4.950561 -0.066572 -2.988806 -0.110308
 57 6.551491 -0.000001 -0.000001 -0.150709 -0.110079 -0.221887
 58 0.699371 -1.944205 -5.006847 -0.027189 -3.088217 0.005298
 59 4.226146 -0.003202 -0.000000 -0.126239 -0.152785 0.317456
 60 -0.000001 5.000002 0.000001 -0.153564 0.000087 2.718702
 61 0.000004 -0.000005 -3.713579 0.095503 -3.012510 -0.750673
 62 0.000003 0.000001 4.999999 3.053197 1.558589 -0.074927
 63 -0.000007 0.000005 3.713580 -0.334410 -2.825096 -0.524885
 64 0.000001 -0.000000 -4.999999 -0.088726 1.558589 3.066334
 65 7.363603 1.646647 0.495663 -3.141593 -1.570796 0.000000
 66 -0.000006 0.000005 3.619081 -0.528284 -2.367383 -1.007256
 67 16.573921 -0.000001 0.000001 -0.000000 0.000000 -2.019199
 68 15.128181 0.000001 -0.000002 0.031619 0.086785 -0.033197
 69 5.758664 4.244731 -0.000000 0.000000 -0.000000 2.033309
 70 3.177726 0.000001 0.000000 0.000000 0.000000 3.141593
 71 15.708951 0.000002 -0.000003 0.016155 0.048356 -0.018185
 72 0.275149 0.189215 -3.445208 3.130898 0.000409 -1.514604
 73 17.210192 -0.000002 0.000002 0.000000 -0.000000 -2.322356
 74 0.000001 -0.000000 -5.000000 -0.079430 1.546568 -1.570856
 75 0.000006 -0.000005 -3.619080 0.196495 -3.011952 -1.279118
 76 16.573921 0.000000 0.000000 -0.000000 0.000000 -1.611348
 77 15.128181 -0.000002 0.000000 0.214418 -0.027533 0.774389
 78 5.758665 4.244730 -0.000000 -0.000000 -0.000000 1.483530
 79 4.003934 0.000000 0.000001 0.000000 0.000000 0.000000
 80 15.708953 -0.000001 0.000000 0.153371 0.002792 0.528179
 81 0.273998 0.191089 3.439762 -3.130907 -0.000437 -1.508107
 82 17.210192 0.000000 0.000000 0.000000 -0.000000 -2.138823
 83 0.000001 0.000001 5.000000 -0.079311 1.595025 -1.570737
time 9
  0 1.130557 9.712686 27.009436 -0.281436 0.436358 -2.443536
  1 11.368429 6.770639 -23.418964 -0.498313 0.132926 2.346876
  2 -2.276934 0.000003 -1.238187 -1.570795 -1.570451 0.000000
  3 1.796390 0.711883 -0.000064 0.019308 -0.222784 -0.236131
  4 4.119234 -0.003218 0.000043 -0.013375 0.071404 0.192870
  5 4.119120 -0.003239 0.000030 -0.009228 0.115381 0.157345
  6 4.119347 -0.003196 0.000035 -0.010871 0.071825 0.227775
  7 4.120410 -0.002876 0.000994 -0.295116 -0.258548 0.638825
  8 4.443598 0.000003 0.000000 0.800150 0.361279 -1.142028
  9 9.024061 0.000001 -0.000001 0.000000 0.000000 0.000000
 10 0.443016 -0.483676 1.602710 1.078499 -2.077260 1.348668
 11 6.384776 0.000001 -0.000000 -0.615035 0.483156 -1.175060
 12 10.242682 -0.000000 -0.000001 -0.000000 -0.000000 -1.682142
 13 11.375562 0.000001 0.000001 -3.086468 -0.034078 0.223016
 14 0.728681 0.023431 -1.008291 1.210021 0.600763 0.006085
 15 2.136497 -0.000000 -0.000000 0.000000 -0.000000 -0.078540
 16 2.313140 -0.000000 -0.000001 0.000000 0.000000 0.000000
 17 3.115506 -0.886040 -0.021430 -0.620285 0.000392 0.514872
 18 2.011150 -0.000001 0.000000 -0.000000 -0.000000 1.322792
 19 2.141381 -0.000000 -0.000001 0.000000 0.000000 0.000000
 20 1.734172 0.000001 -0.000000 -0.000000 -0.000000 0.660693
 21 0.000007 -4.440594 -0.000001 1.570544 -0.062990 -0.195737
 22 6.000000 0.000001 0.000000 -2.772904 0.000000 0.000000
 23 0.000002 -4.440600 0.000000 1.569944 -0.062987 0.004053
 24 11.375561 0.000002 0.000004 -2.327551 -0.074635 0.119279
 25 -0.000001 -4.440603 -0.000000 1.570144 -0.062988 0.004040
 26 10.510131 -0.000000 -0.000002 -0.000000 -0.000000 -2.411867
 27 0.000000 -1.748400 4.999999 0.000000 0.004007 1.602290
 28 5.500000 -0.000000 -0.000001 0.123664 0.000000 -0.000000
 29 -0.000003 -1.940599 5.000000 -0.044472 0.004003 -0.000180
 30 6.551490 0.000000 -0.000001 -0.285045 0.395434 -0.684087
 31 0.000000 -1.940599 5.000000 -0.027189 -0.053376 0.005295
 32 6.551490 0.000000 -0.000001 -0.096043 0.208277 -0.299165
 33 -0.000000 -1.940599 4.999995 -0.066572 -0.152786 -0.110311
 34 -0.443013 0.490759 -1.602709 -0.097726 0.833742 2.460045
 35 6.384776 0.000000 -0.000001 -0.440300 -0.399994 -0.570780
 36 10.242681 -0.000000 0.000000 0.000000 -0.000000 -1.919655
 37 11.375560 0.000000 -0.000000 1.883595 0.359129 -0.213663
 38 0.728681 0.023431 1.008293 -1.579583 -0.319038 0.212973
 39 2.136497 -0.000002 -0.000000 -0.000000 0.000000 1.282817
 40 2.313140 0.000000 -0.000000 0.000000 0.000000 3.141593
 41 3.115506 -0.886041 0.021432 0.420766 0.316066 0.167178
 42 2.011150 0.000000 0.000000 -0.000000 0.000000 2.082010
 43 2.141379 -0.000000 0.000000 0.000000 0.000000 3.141593
 44 1.734172 -0.000001 -0.000000 -0.000000 0.000000 1.041748
 45 0.136315 -3.738192 2.525891 1.493698 2.759406 -1.474501
 46 5.613160 0.862366 3.157033 1.595152 -0.135386 0.061522
 47 11.389366 -0.000819 0.158782 1.732049 0.186045 -0.132535
 48 0.000001 -4.440600 0.000001 1.570144 -3.078602 0.004040
 49 6.000000 -0.000001 -0.000000 1.732049 -0.000000 -0.000000
 50 0.000002 -4.440601 0.000000 1.569944 -3.078603 0.004053
 51 10.510131 -0.000000 0.000000 -0.000000 0.000000 -2.530623
 52 0.000001 -1.748398 -5.000001 3.141593 0.004007 -1.539299
 53 5.499998 0.000002 -0.000001 0.149834 -0.000000 0.000000
 54 0.000001 -0.000002 -5.000000 -0.044472 3.137589 -0.000177
 55 6.551490 -0.000001 0.000001 -0.149834 -0.106657 -0.224810
 56 -1.266843 -1.937444 -4.950559 -0.066572 -2.988806 -0.110308
 57 6.551490 -0.000001 0.000001 -0.149834 -0.106657 -0.224810
 58 0.699370 -1.944208 -5.006846 -0.027189 -3.088217 0.005298
 59 4.226146 -0.003202 -0.000000 -0.126239 -0.152785 0.317456
 60 -0.000000 4.999999 0.000000 -0.153564 0.000087 2.718702
 61 0.000004 -0.000005 -3.713579 0.095503 -3.012510 -0.750673
 62 0.000003 0.000001 4.999999 3.053197 1.558589 -0.074927
 63 -0.000007 0.000005 3.713580 -0.334410 -2.825096 -0.524885
 64 0.000001 -0.000000 -4.999999 -0.088726 1.558589 3.066334
 65 7.363603 1.646647 0.495663 -3.141593 -1.570796 0.000000
 66 -0.000006 0.000005 3.619081 -0.528284 -2.367383 -1.007256
 67 16.573921 -0.000001 0.000001 -0.000000 0.000000 -2.019199
 68 15.128181 0.000001 -0.000002 0.031619 0.086785 -0.033197
 69 5.758664 4.244731 -0.000000 0.000000 -0.000000 2.033309
 70 3.177726 0.000001 0.000000 0.000000 0.000000 3.141593
 71 15.708951 0.000002 -0.000003 0.016155 0.048356 -0.018185
 72 0.275149 0.189215 -3.445208 3.130898 0.000409 -1.514604
 73 17.210192 -0.000002 0.000002 0.000000 -0.000000 -2.322356
 74 0.000001 -0.000000 -5.000000 -0.079430 1.546568 -1.570856
 75 0.000006 -0.000005 -3.619080 0.196495 -3.011952 -1.279118
 76 16.573921 0.000000 0.000000 -0.000000 0.000000 -1.611348
 77 15.128181 -0.000002 0.000000 0.214418 -0.027533 0.774389
 78 5.758665 4.244730 -0.000000 -0.000000 -0.000000 1.483530
 79 4.003934 0.000000 0.000001 0.000000 0.000000 0.000000
 80 15.708953 -0.000001 0.000000 0.153371 0.002792 0.528179
 81 0.273998 0.191089 3.439762 -3.130907 -0.000437 -1.508107
 82 17.210192 0.000000 0.000000 0.000000 -0.000000 -2.138823
 83 0.000001 0.000001 5.000000 -0.079311 1.595025 -1.570737
time 10
  0 1.130557 9.712686 27.009436 -0.281436 0.436358 -2.443536
  1 11.368429 6.770639 -23.418964 -0.498313 0.132926 2.346876
  2 -2.276934 0.000003 -1.238187 -1.570795 -1.570451 0.000000
  3 1.796390 0.711883 -0.000064 0.019308 -0.222784 -0.236131
  4 4.119234 -0.003218 0.000043 -0.013375 0.071404 0.192870
  5 4.119120 -0.003239 0.000030 -0.009228 0.115381 0.157345
  6 4.119347 -0.003196 0.000035 -0.010871 0.071825 0.227775
  7 4.120410 -0.002876 0.000994 -0.295116 -0.258548 0.638825
  8 4.443598 0.000003 0.000000 0.800150 0.361279 -1.142028
  9 9.024061 0.000001 -0.000001 0.000000 0.000000 0.000000
 10 0.443016 -0.483676 1.602710 1.078499 -2.077260 1.348668
 11 6.384776 0.000001 -0.000000 -0.619987 0.482817 -1.176802
 12 10.242681 0.000000 0.000000 -0.000000 -0.000000 -1.678964
 13 11.375562 0.000000 0.000001 -3.084696 -0.031468 0.221006
 14 0.728680 0.023432 -1.008292 1.210021 0.600763 0.006085
 15 2.136497 -0.000001 -0.000001 0.000000 -0.000000 -0.078540
 16 2.313139 -0.000000 0.000002 0.000000 0.000000 0.000000
 17 3.115506 -0.886042 -0.021431 -0.620285 0.000392 0.514872
 18 2.011151 0.000001 -0.000000 0.000000 0.000000 1.322792
 19 2.141379 0.000000 -0.000001 0.000000 0.000000 0.000000
 20 1.734172 0.000001 -0.000001 -0.000000 0.000000 0.660693
 21 0.000007 -4.440593 0.000000 1.570544 -0.062990 -0.195737
 22 6.000000 0.000000 0.000001 -2.771314 0.000000 0.000000
 23 0.000001 -4.440601 0.000000 1.569944 -0.062987 0.004053
 24 11.375561 0.000001 0.000004 -2.326764 -0.072633 0.118830
 25 -0.000001 -4.440602 -0.000000 1.570144 -0.062988 0.004040
 26 10.510131 0.000000 -0.000001 0.000000 0.000000 -2.410279
 27 -0.000001 -1.748400 4.999998 -0.000000 0.004007 1.602290
 28 5.499999 0.000000 0.000000 0.125032 -0.000000 -0.000000
 29 0.000001 -1.940598 5.000000 -0.044472 0.004003 -0.000180
 30 6.551490 0.000000 -0.000001 -0.287701 0.395561 -0.685092
 31 -0.000000 -1.940598 5.000000 -0.027189 -0.053376 0.005295
 32 6.551490 0.000000 -0.000001 -0.097152 0.208532 -0.299388
 33 -0.000001 -1.940598 4.999997 -0.066572 -0.152786 -0.110311
 34 -0.443013 0.490759 -1.602709 -0.093830 0.831854 2.464053
 35 6.384776 -0.000000 -0.000000 -0.436414 -0.399043 -0.579304
 36 10.242681 0.000001 -0.000001 0.000000 0.000000 -1.915087
 37 11.375563 0.000003 -0.000000 1.886637 0.356873 -0.212440
 38 0.728681 0.023431 1.008292 -1.579583 -0.319038 0.212973
 39 2.136496 0.000001 -0.000000 -0.000000 0.000000 1.282817
 40 2.313138 0.000000 0.000000 0.000000 0.000000 3.141593
 41 3.115506 -0.886042 0.021433 0.420765 0.316066 0.167178
 42 2.011151 -0.000001 -0.000000 -0.000000 -0.000000 2.082010
 43 2.141380 0.000000 -0.000000 0.000000 0.000000 3.141593
 44 1.734172 -0.000001 -0.000000 0.000000 -0.000000 1.041748
 45 0.136315 -3.738192 2.525891 1.493698 2.759406 -1.474501
 46 5.613160 0.862366 3.157030 1.595152 -0.135386 0.061522
 47 11.389367 -0.000818 0.158781 1.733465 0.184875 -0.131995
 48 0.000000 -4.440599 0.000000 1.570144 -3.078602 0.004040
 49 6.000002 0.000003 0.000000 1.733465 -0.000000 -0.000000
 50 0.000001 -4.440602 0.000002 1.569944 -3.078603 0.004053
 51 10.510132 -0.000001 0.000001 -0.000000 -0.000000 -2.528340
 52 0.000000 -1.748399 -5.000001 -3.141593 0.004007 -1.539299
 53 5.499999 0.000001 -0.000000 0.149166 0.000000 -0.000000
 54 -0.000000 -0.000002 -4.999999 -0.044472 3.137590 -0.000177
 55 6.551491 -0.000001 0.000000 -0.149166 -0.105565 -0.226229
 56 -1.266843 -1.937443 -4.950559 -0.066572 -2.988806 -0.110308
 57 6.551491 -0.000001 0.000000 -0.149166 -0.105565 -0.226229
 58 0.699371 -1.944208 -5.006846 -0.027189 -3.088217 0.005298
 59 4.226146 -0.003202 -0.000000 -0.126239 -0.152785 0.317456
 60 -0.000000 4.999999 0.000000 -0.153564 0.000087 2.718702
 61 0.000004 -0.000005 -3.713579 0.095503 -3.012510 -0.750673
 62 0.000003 0.000001 4.999999 3.053197 1.558589 -0.074927
 63 -0.000007 0.000005 3.713580 -0.334410 -2.825096 -0.524885
 64 0.000001 -0.000000 -4.999999 -0.088726 1.558589 3.066334
 65 7.363603 1.646647 0.495663 -3.141593 -1.570796 0.000000
 66 -0.000006 0.000005 3.619081 -0.528284 -2.367383 -1.007256
 67 16.573921 -0.000001 0.000001 -0.000000 0.000000 -2.019199
 68 15.128181 0.000001 -0.000002 0.031619 0.086785 -0.033197
 69 5.758664 4.244731 -0.000000 0.000000 -0.000000 2.033309
 70 3.177726 0.000001 0.000000 0.000000 0.000000 3.141593
 71 15.708951 0.000002 -0.000003 0.016155 0.048356 -0.018185
 72 0.275149 0.189215 -3.445208 3.130898 0.000409 -1.514604
 73 17.210192 -0.000002 0.000002 0.000000 -0.000000 -2.322356
 74 0.000001 -0.000000 -5.000000 -0.079430 1.546568 -1.570856
 75 0.000006 -0.000005 -3.619080 0.196495 -3.011952 -1.279118
 76 16.573921 0.000000 0.000000 -0.000000 0.000000 -1.611348
 77 15.128181 -0.000002 0.000000 0.214418 -0.027533 0.774389
 78 5.758665 4.244730 -0.000000 -0.000000 -0.000000 1.483530
 79 4.003934 0.000000 0.000001 0.000000 0.000000 0.000000
 80 15.708953 -0.000001 0.000000 0.153371 0.002792 0.528179
 81 0.273998 0.191089 3.439762 -3.130907 -0.000437 -1.508107
 82 17.210192 0.000000 0.000000 0.000000 -0.000000 -2.138823
 83 0.000001 0.000001 5.000000 -0.079311 1.595025 -1.570737
time 11
  0 1.130557 9.712686 27.009436 -0.281436 0.436358 -2.443536
  1 11.368429 6.770639 -23.418964 -0.498313 0.132926 2.346876
  2 -2.276934 0.000003 -1.238187 -1.570795 -1.570451 0.000000
  3 1.796390 0.711883 -0.000064 0.019308 -0.222784 -0.236131
  4 4.119234 -0.003218 0.000043 -0.013375 0.071404 0.192870
  5 4.119120 -0.003239 0.000030 -0.009228 0.115381 0.157345
  6 4.119347 -0.003196 0.000035 -0.010871 0.071825 0.227775
  7 4.120410 -0.002876 0.000994 -0.295116 -0.258548 0.638825
  8 4.443598 0.000003 0.000000 0.800150 0.361279 -1.142028
  9 9.024061 0.000001 -0.000001 0.000000 0.000000 0.000000
 10 0.443016 -0.483676 1.602710 1.078499 -2.077260 1.348668
 11 6.384776 0.000001 -0.000000 -0.610327 0.476190 -1.171151
 12 10.242682 0.000000 -0.000001 -0.000000 -0.000000 -1.685023
 13 11.375562 -0.000000 0.000001 -3.088162 -0.038951 0.224248
 14 0.728681 0.023432 -1.008291 1.210021 0.600763 0.006085
 15 2.136497 -0.000000 0.000001 -0.000000 -0.000000 -0.078540
 16 2.313139 0.000000 -0.000001 0.000000 0.000000 0.000000
 17 3.115507 -0.886041 -0.021431 -0.620285 0.000392 0.514872
 18 2.011150 0.000001 0.000000 0.000000 -0.000000 1.322792
 19 2.141380 -0.000001 -0.000000 0.000000 0.000000 0.000000
 20 1.734172 0.000001 0.000000 -0.000000 0.000000 0.660693
 21 0.000004 -4.440595 -0.000001 1.570544 -0.062990 -0.195737
 22 6.000000 -0.000001 0.000002 -2.774376 0.000000 0.000000
 23 0.000002 -4.440601 -0.000000 1.569944 -0.062987 0.004053
 24 11.375561 0.000001 0.000004 -2.328215 -0.077703 0.118739
 25 -0.000000 -4.440603 -0.000001 1.570144 -0.062988 0.004040
 26 10.510130 -0.000000 -0.000002 -0.000000 0.000000 -2.413308
 27 0.000002 -1.748401 4.999998 -0.000000 0.004007 1.602290
 28 5.499998 -0.000000 -0.000000 0.124387 0.000000 0.000000
 29 -0.000004 -1.940599 5.000000 -0.044472 0.004003 -0.000180
 30 6.551490 0.000000 -0.000001 -0.284928 0.389815 -0.682411
 31 -0.000001 -1.940599 5.000000 -0.027189 -0.053376 0.005295
 32 6.551490 0.000000 -0.000001 -0.096769 0.205742 -0.299035
 33 0.000001 -1.940599 4.999995 -0.066572 -0.152786 -0.110311
 34 -0.443013 0.490759 -1.602709 -0.093830 0.831854 2.464053
 35 6.384776 -0.000000 -0.000000 -0.437628 -0.399510 -0.579548
 36 10.242682 -0.000004 0.000002 -0.000000 -0.000000 -1.911595
 37 11.375560 0.000000 -0.000001 1.883361 0.360180 -0.222170
 38 0.728680 0.023431 1.008292 -1.579583 -0.319038 0.212973
 39 2.136497 0.000000 -0.000001 0.000000 0.000000 1.282817
 40 2.313139 0.000001 0.000000 0.000000 0.000000 3.141593
 41 3.115506 -0.886042 0.021432 0.420765 0.316066 0.167178
 42 2.011150 0.000000 0.000002 -0.000000 0.000000 2.082010
 43 2.141379 -0.000000 -0.000001 0.000000 0.000000 3.141593
 44 1.734172 -0.000001 0.000001 0.000000 0.000000 1.041748
 45 0.136315 -3.738192 2.525891 1.493698 2.759406 -1.474501
 46 5.613159 0.862365 3.157031 1.595152 -0.135386 0.061522
 47 11.389365 -0.000817 0.158781 1.732241 0.186113 -0.136946
 48 -0.000000 -4.440599 0.000002 1.570144 -3.078602 0.004040
 49 5.999999 -0.000000 -0.000001 1.732241 -0.000000 -0.000000
 50 0.000002 -4.440601 -0.000001 1.569944 -3.078603 0.004053
 51 10.510130 -0.000003 0.000002 -0.000000 0.000000 -2.526594
 52 0.000000 -1.748399 -5.000001 3.141593 0.004007 -1.539299
 53 5.500000 -0.000003 0.000001 0.149547 0.000000 0.000000
 54 -0.000001 -0.000001 -5.000000 -0.044472 3.137589 -0.000177
 55 6.551491 -0.000001 0.000000 -0.149547 -0.105545 -0.226276
 56 -1.266844 -1.937444 -4.950561 -0.066572 -2.988806 -0.110308
 57 6.551491 -0.000001 0.000000 -0.149547 -0.105545 -0.226276
 58 0.699370 -1.944209 -5.006847 -0.027189 -3.088217 0.005298
 59 4.226146 -0.003202 -0.000000 -0.126239 -0.152785 0.317456
 60 -0.000000 4.999999 0.000000 -0.153564 0.000087 2.718702
 61 0.000004 -0.000005 -3.713579 0.095503 -3.012510 -0.750673
 62 0.000003 0.000001 4.999999 3.053197 1.558589 -0.074927
 63 -0.000007 0.000005 3.713580 -0.334410 -2.825096 -0.524885
 64 0.000001 -0.000000 -4.999999 -0.088726 1.558589 3.066334
 65 7.363603 1.646647 0.495663 -3.141593 -1.570796 0.000000
 66 -0.000006 0.000005 3.619081 -0.528284 -2.367383 -1.007256
 67 16.573921 -0.000001 0.000001 -0.000000 0.000000 -2.019199
 68 15.128181 0.000001 -0.000002 0.031619 0.086785 -0.033197
 69 5.758664 4.244731 -0.000000 0.000000 -0.000000 2.033309
 70 3.177726 0.000001 0.000000 0.000000 0.000000 3.141593
 71 15.708951 0.000002 -0.000003 0.016155 0.048356 -0.018185
 72 0.275149 0.189215 -3.445208 3.130898 0.000409 -1.514604
 73 17.210192 -0.000002 0.000002 0.000000 -0.000000 -2.322356
 74 0.000001 -0.000000 -5.000000 -0.079430 1.546568 -1.570856
 75 0.000006 -0.000005 -3.619080 0.196495 -3.011952 -1.279118
 76 16.573921 0.000000 0.000000 -0.000000 0.000000 -1.611348
 77 15.128181 -0.000002 0.000000 0.214418 -0.027533 0.774389
 78 5.758665 4.244730 -0.000000 -0.000000 -0.000000 1.483530
 79 4.003934 0.000000 0.000001 0.000000 0.000000 0.000000
 80 15.708953 -0.000001 0.000000 0.153371 0.002792 0.528179
 81 0.273998 0.191089 3.439762 -3.130907 -0.000437 -1.508107
 82 17.210192 0.000000 0.000000 0.000000 -0.000000 -2.138823
 83 0.000001 0.000001 5.000000 -0.079311 1.595025 -1.570737
time 12
  0 1.130557 9.712686 27.009436 -0.281436 0.436358 -2.443536
  1 11.368429 6.770639 -23.418964 -0.498313 0.132926 2.346876
  2 -2.276934 0.000003 -1.238187 -1.570795 -1.570451 0.000000
  3 1.796390 0.711883 -0.000064 0.019308 -0.222784 -0.236131
  4 4.119234 -0.003218 0.000043 -0.013375 0.071404 0.192870
  5 4.119120 -0.003239 0.000030 -0.009228 0.115381 0.157345
  6 4.119347 -0.003196 0.000035 -0.010871 0.071825 0.227775
  7 4.120410 -0.002876 0.000994 -0.295116 -0.258548 0.638825
  8 4.443598 0.000003 0.000000 0.800150 0.361279 -1.142028
  9 9.024061 0.000001 -0.000001 0.000000 0.000000 0.000000
 10 0.443016 -0.483676 1.602710 1.078499 -2.077260 1.348668
 11 6.384776 0.000001 -0.000000 -0.589144 0.467042 -1.161430
 12 10.242681 -0.000000 -0.000002 0.000000 -0.000000 -1.702839
 13 11.375560 0.000000 0.000001 -3.090849 -0.056532 0.234788
 14 0.728680 0.023431 -1.008292 1.210021 0.600763 0.006085
 15 2.136497 -0.000000 0.000000 0.000000 -0.000000 -0.078540
 16 2.313139 0.000000 0.000001 0.000000 0.000000 0.000000
 17 3.115507 -0.886039 -0.021433 -0.620285 0.000392 0.514872
 18 2.011149 -0.000005 -0.000001 0.000000 -0.000000 1.322792
 19 2.141381 -0.000000 -0.000001 0.000000 0.000000 0.000000
 20 1.734172 -0.000000 -0.000001 -0.000000 0.000000 0.660693
 21 0.000007 -4.440594 -0.000000 1.570544 -0.062990 -0.195737
 22 6.000000 0.000001 0.000001 -2.776729 0.000000 0.000000
 23 0.000001 -4.440600 0.000000 1.569944 -0.062987 0.004053
 24 11.375561 0.000002 0.000004 -2.328788 -0.089991 0.120116
 25 -0.000001 -4.440603 -0.000000 1.570144 -0.062988 0.004040
 26 10.510129 -0.000000 -0.000002 -0.000000 0.000000 -2.422216
 27 0.000001 -1.748400 5.000000 -0.000000 0.004007 1.602291
 28 5.500000 0.000000 -0.000001 0.121293 -0.000000 0.000000
 29 -0.000002 -1.940599 4.999999 -0.044472 0.004003 -0.000180
 30 6.551490 0.000000 -0.000001 -0.276939 0.381641 -0.677603
 31 -0.000001 -1.940598 5.000000 -0.027189 -0.053376 0.005295
 32 6.551490 0.000000 -0.000001 -0.094443 0.201463 -0.298355
 33 -0.000001 -1.940598 4.999996 -0.066572 -0.152786 -0.110311
 34 -0.443013 0.490759 -1.602709 -0.093830 0.831854 2.464053
 35 6.384776 -0.000000 -0.000000 -0.445302 -0.397689 -0.571573
 36 10.242681 -0.000001 0.000001 -0.000000 0.000000 -1.908663
 37 11.375561 0.000002 -0.000001 1.875013 0.368535 -0.246502
 38 0.728681 0.023431 1.008291 -1.579583 -0.319038 0.212973
 39 2.136497 0.000000 -0.000001 -0.000000 0.000000 1.282817
 40 2.313138 0.000000 -0.000000 0.000000 0.000000 3.141593
 41 3.115506 -0.886041 0.021431 0.420765 0.316066 0.167178
 42 2.011152 -0.000000 0.000000 -0.000000 0.000000 2.082010
 43 2.141381 0.000001 0.000001 0.000000 0.000000 3.141593
 44 1.734173 -0.000001 0.000001 0.000000 -0.000000 1.041748
 45 0.136315 -3.738193 2.525889 1.493698 2.759406 -1.474501
 46 5.613160 0.862366 3.157030 1.595152 -0.135386 0.061522
 47 11.389366 -0.000819 0.158780 1.729156 0.189260 -0.149179
 48 0.000001 -4.440598 0.000001 1.570144 -3.078602 0.004040
 49 6.000001 0.000001 -0.000001 1.729156 -0.000000 -0.000000
 50 0.000002 -4.440600 0.000002 1.569944 -3.078603 0.004053
 51 10.510132 -0.000003 0.000002 -0.000000 0.000000 -2.525128
 52 0.000001 -1.748400 -5.000000 3.141593 0.004007 -1.539299
 53 5.499999 -0.000000 0.000000 0.151370 0.000000 0.000000
 54 -0.000001 0.000001 -5.000000 -0.044472 3.137590 -0.000177
 55 6.551491 -0.000001 0.000000 -0.151370 -0.105095 -0.225163
 56 -1.266843 -1.937442 -4.950559 -0.066572 -2.988806 -0.110308
 57 6.551491 -0.000001 0.000000 -0.151370 -0.105095 -0.225163
 58 0.699370 -1.944206 -5.006847 -0.027189 -3.088217 0.005298
 59 4.226146 -0.003202 -0.000000 -0.126239 -0.152785 0.317456
 60 -0.000000 4.999999 0.000000 -0.153564 0.000087 2.718702
 61 0.000004 -0.000005 -3.713579 0.095503 -3.012510 -0.750673
 62 0.000003 0.000001 4.999999 3.053197 1.558589 -0.074927
 63 -0.000007 0.000005 3.713580 -0.334410 -2.825096 -0.524885
 64 0.000001 -0.000000 -4.999999 -0.088726 1.558589 3.066334
 65 7.363603 1.646647 0.495663 -3.141593 -1.570796 0.000000
 66 -0.000006 0.000005 3.619081 -0.528284 -2.367383 -1.007256
 67 16.573921 -0.000001 0.000001 -0.000000 0.000000 -2.019199
 68 15.128181 0.000001 -0.000002 0.031619 0.086785 -0.033197
 69 5.758664 4.244731 -0.000000 0.000000 -0.000000 2.033309
 70 3.177726 0.000001 0.000000 0.000000 0.000000 3.141593
 71 15.708951 0.000002 -0.000003 0.016155 0.048356 -0.018185
 72 0.275149 0.189215 -3.445208 3.130898 0.000409 -1.514604
 73 17.210192 -0.000002 0.000002 0.000000 -0.000000 -2.322356
 74 0.000001 -0.000000 -5.000000 -0.079430 1.546568 -1.570856
 75 0.000006 -0.000005 -3.619080 0.196495 -3.011952 -1.279118
 76 16.573921 0.000000 0.000000 -0.000000 0.000000 -1.611348
 77 15.128181 -0.000002 0.000000 0.214418 -0.027533 0.774389
 78 5.758665 4.244730 -0.000000 -0.000000 -0.000000 1.483530
 79 4.003934 0.000000 0.000001 0.000000 0.000000 0.000000
 80 15.708953 -0.000001 0.000000 0.153371 0.002792 0.528179
 81 0.273998 0.191089 3.439762 -3.130907 -0.000437 -1.508107
 82 17.210192 0.000000 0.000000 0.000000 -0.000000 -2.138823
 83 0.000001 0.000001 5.000000 -0.079311 1.595025 -1.570737
time 13
  0 1.130557 9.712686 27.009436 -0.281436 0.436358 -2.443536
  1 11.368429 6.770639 -23.418964 -0.498313 0.132926 2.346876
  2 -2.276934 0.000003 -1.238187 -1.570795 -1.570451 0.000000
  3 1.796390 0.711883 -0.000064 0.019308 -0.222784 -0.236131
  4 4.119234 -0.003218 0.000043 -0.013375 0.071404 0.192870
  5 4.119120 -0.003239 0.000030 -0.009228 0.115381 0.157345
  6 4.119347 -0.003196 0.000035 -0.010871 0.071825 0.227775
  7 4.120410 -0.002876 0.000994 -0.295116 -0.258548 0.638825
  8 4.443598 0.000003 0.000000 0.800150 0.361279 -1.142028
  9 9.024061 0.000001 -0.000001 0.000000 0.000000 0.000000
 10 0.443016 -0.483676 1.602710 1.078499 -2.077260 1.348668
 11 6.384776 0.000001 -0.000000 -0.562368 0.456316 -1.150427
 12 10.242682 -0.000000 -0.000001 0.000000 -0.000000 -1.727077
 13 11.375562 -0.000001 0.000001 -3.092334 -0.079611 0.249977
 14 0.728681 0.023431 -1.008293 1.210021 0.600764 0.006086
 15 2.136497 -0.000000 -0.000002 -0.000000 -0.000000 -0.078540
 16 2.313138 0.000000 0.000001 0.000000 0.000000 0.000000
 17 3.115506 -0.886042 -0.021431 -0.620285 0.000392 0.514872
 18 2.011151 -0.000000 0.000000 -0.000000 -0.000000 1.322792
 19 2.141381 0.000000 -0.000001 0.000000 0.000000 0.000000
 20 1.734172 0.000000 -0.000000 -0.000000 0.000000 0.660693
 21 0.000006 -4.440593 -0.000000 1.570544 -0.062990 -0.195737
 22 6.000000 0.000001 -0.000000 -2.777917 0.000000 0.000000
 23 0.000002 -4.440601 0.000000 1.569944 -0.062987 0.004053
 24 11.375561 -0.000000 0.000004 -2.328307 -0.106200 0.122583
 25 -0.000001 -4.440602 0.000002 1.570144 -0.062988 0.004040
 26 10.510131 -0.000000 -0.000001 -0.000000 0.000000 -2.434335
 27 0.000001 -1.748402 4.999998 -0.000000 0.004007 1.602290
 28 5.499998 -0.000000 0.000001 0.116912 -0.000000 -0.000000
 29 -0.000003 -1.940599 5.000000 -0.044472 0.004003 -0.000180
 30 6.551490 0.000000 -0.000001 -0.266367 0.372297 -0.672121
 31 -0.000000 -1.940597 5.000003 -0.027189 -0.053376 0.005295
 32 6.551490 0.000000 -0.000001 -0.091080 0.196448 -0.297619
 33 -0.000001 -1.940597 4.999996 -0.066572 -0.152786 -0.110311
 34 -0.443013 0.490759 -1.602709 -0.093830 0.831854 2.464053
 35 6.384776 -0.000000 -0.000000 -0.456545 -0.394536 -0.559140
 36 10.242680 -0.000001 0.000000 -0.000000 0.000000 -1.905792
 37 11.375558 0.000001 -0.000000 1.863467 0.379511 -0.279454
 38 0.728681 0.023431 1.008292 -1.579583 -0.319038 0.212973
 39 2.136497 0.000001 -0.000000 -0.000000 0.000000 1.282817
 40 2.313139 -0.000001 -0.000000 0.000000 0.000000 3.141593
 41 3.115506 -0.886041 0.021432 0.420766 0.316066 0.167178
 42 2.011150 -0.000001 -0.000000 -0.000000 0.000000 2.082010
 43 2.141380 -0.000000 -0.000000 0.000000 0.000000 3.141593
 44 1.734172 -0.000002 -0.000001 0.000000 0.000000 1.041748
 45 0.136314 -3.738192 2.525890 1.493698 2.759406 -1.474501
 46 5.613160 0.862365 3.157031 1.595152 -0.135386 0.061522
 47 11.389364 -0.000818 0.158780 1.724972 0.193372 -0.165408
 48 0.000000 -4.440598 0.000000 1.570144 -3.078602 0.004040
 49 5.999999 0.000002 -0.000000 1.724972 0.000000 -0.000000
 50 0.000001 -4.440601 0.000001 1.569944 -3.078603 0.004053
 51 10.510132 -0.000002 0.000001 0.000000 -0.000000 -2.523692
 52 0.000001 -1.748399 -5.000000 -3.141593 0.004007 -1.539299
 53 5.499998 0.000001 0.000000 0.154002 0.000000 0.000000
 54 0.000000 -0.000001 -5.000000 -0.044472 3.137590 -0.000177
 55 6.551491 -0.000001 0.000000 -0.154002 -0.104412 -0.223399
 56 -1.266843 -1.937443 -4.950561 -0.066572 -2.988806 -0.110308
 57 6.551491 -0.000001 0.000000 -0.154002 -0.104412 -0.223399
 58 0.699371 -1.944209 -5.006847 -0.027189 -3.088217 0.005298
 59 4.226146 -0.003202 -0.000000 -0.126239 -0.152785 0.317456
 60 -0.000000 4.999999 0.000000 -0.153564 0.000087 2.718702
 61 0.000004 -0.000005 -3.713579 0.095503 -3.012510 -0.750673
 62 0.000003 0.000001 4.999999 3.053197 1.558589 -0.074927
 63 -0.000007 0.000005 3.713580 -0.334410 -2.825096 -0.524885
 64 0.000001 -0.000000 -4.999999 -0.088726 1.558589 3.066334
 65 7.363603 1.646647 0.495663 -3.141593 -1.570796 0.000000
 66 -0.000006 0.000005 3.619081 -0.528284 -2.367383 -1.007256
 67 16.573921 -0.000001 0.000001 -0.000000 0.000000 -2.019199
 68 15.128181 0.000001 -0.000002 0.031619 0.086785 -0.033197
 69 5.758664 4.244731 -0.000000 0.000000 -0.000000 2.033309
 70 3.177726 0.000001 0.000000 0.000000 0.000000 3.141593
 71 15.708951 0.000002 -0.000003 0.016155 0.048356 -0.018185
 72 0.275149 0.189215 -3.445208 3.130898 0.000409 -1.514604
 73 17.210192 -0.000002 0.000002 0.000000 -0.000000 -2.322356
 74 0.000001 -0.000000 -5.000000 -0.079430 1.546568 -1.570856
 75 0.000006 -0.000005 -3.619080 0.196495 -3.011952 -1.279118
 76 16.573921 0.000000 0.000000 -0.000000 0.000000 -1.611348
 77 15.128181 -0.000002 0.000000 0.214418 -0.027533 0.774389
 78 5.758665 4.244730 -0.000000 -0.000000 -0.000000 1.483530
 79 4.003934 0.000000 0.000001 0.000000 0.000000 0.000000
 80 15.708953 -0.000001 0.000000 0.153371 0.002792 0.528179
 81 0.273998 0.191089 3.439762 -3.130907 -0.000437 -1.508107
 82 17.210192 0.000000 0.000000 0.000000 -0.000000 -2.138823
 83 0.000001 0.000001 5.000000 -0.079311 1.595025 -1.570737
time 14
  0 1.130557 9.712686 27.009436 -0.281436 0.436358 -2.443536
  1 11.368429 6.770639 -23.418964 -0.498313 0.132926 2.346876
  2 -2.276934 0.000003 -1.238187 -1.570795 -1.570451 0.000000
  3 1.796390 0.711883 -0.000064 0.019308 -0.222784 -0.236131
  4 4.119234 -0.003218 0.000043 -0.013375 0.071404 0.192870
  5 4.119120 -0.003239 0.000030 -0.009228 0.115381 0.157345
  6 4.119347 -0.003196 0.000035 -0.010871 0.071825 0.227775
  7 4.120410 -0.002876 0.000994 -0.295116 -0.258548 0.638825
  8 4.443598 0.000003 0.000000 0.800150 0.361279 -1.142028
  9 9.024061 0.000001 -0.000001 0.000000 0.000000 0.000000
 10 0.443016 -0.483676 1.602710 1.078499 -2.077260 1.348668
 11 6.384776 0.000001 -0.000000 -0.535617 0.445358 -1.140534
 12 10.242682 0.000000 -0.000002 -0.000000 -0.000000 -1.752551
 13 11.375561 0.000002 0.000001 -3.092314 -0.103555 0.266833
 14 0.728681 0.023431 -1.008293 1.210021 0.600763 0.006085
 15 2.136497 0.000001 -0.000000 -0.000000 -0.000000 -0.078540
 16 2.313139 0.000000 0.000001 0.000000 0.000000 0.000000
 17 3.115507 -0.886040 -0.021432 -0.620285 0.000392 0.514872
 18 2.011151 0.000001 -0.000000 0.000000 -0.000000 1.322792
 19 2.141379 0.000000 -0.000000 0.000000 0.000000 0.000000
 20 1.734172 0.000001 -0.000001 -0.000000 -0.000000 0.660693
 21 0.000005 -4.440594 -0.000000 1.570544 -0.062990 -0.195737
 22 6.000000 0.000000 0.000000 -2.777638 -0.000000 -0.000000
 23 0.000002 -4.440599 -0.000001 1.569944 -0.062987 0.004053
 24 11.375561 -0.000000 0.000005 -2.326769 -0.122984 0.125643
 25 -0.000001 -4.440602 0.000000 1.570144 -0.062988 0.004040
 26 10.510130 -0.000000 -0.000002 -0.000000 -0.000000 -2.447071
 27 -0.000000 -1.748400 4.999997 -0.000000 0.004007 1.602290
 28 5.500000 -0.000000 -0.000001 0.112344 0.000000 0.000000
 29 -0.000003 -1.940598 5.000001 -0.044472 0.004003 -0.000180
 30 6.551490 0.000000 -0.000001 -0.255648 0.363122 -0.667161
 31 -0.000002 -1.940598 5.000000 -0.027189 -0.053376 0.005295
 32 6.551490 0.000000 -0.000001 -0.087542 0.191484 -0.297032
 33 0.000000 -1.940599 4.999995 -0.066572 -0.152786 -0.110311
 34 -0.443013 0.490759 -1.602709 -0.093830 0.831854 2.464053
 35 6.384776 -0.000000 -0.000000 -0.468531 -0.391028 -0.545879
 36 10.242682 -0.000000 -0.000000 0.000000 -0.000000 -1.902624
 37 11.375559 0.000003 -0.000000 1.850771 0.390818 -0.314891
 38 0.728681 0.023431 1.008293 -1.579583 -0.319038 0.212973
 39 2.136497 -0.000000 -0.000001 -0.000000 0.000000 1.282817
 40 2.313140 0.000001 0.000000 0.000000 0.000000 3.141593
 41 3.115506 -0.886041 0.021432 0.420766 0.316066 0.167178
 42 2.011151 -0.000001 -0.000000 -0.000000 0.000000 2.082010
 43 2.141379 -0.000001 -0.000001 0.000000 0.000000 3.141593
 44 1.734173 -0.000002 -0.000001 0.000000 -0.000000 1.041748
 45 0.136315 -3.738193 2.525890 1.493698 2.759406 -1.474501
 46 5.613160 0.862366 3.157032 1.595152 -0.135386 0.061522
 47 11.389364 -0.000818 0.158780 1.720478 0.197582 -0.182439
 48 0.000001 -4.440599 0.000001 1.570144 -3.078602 0.004040
 49 5.999999 0.000001 -0.000001 1.720478 -0.000000 -0.000000
 50 0.000002 -4.440601 -0.000000 1.569944 -3.078603 0.004053
 51 10.510131 -0.000002 0.000001 0.000000 -0.000000 -2.522108
 52 0.000000 -1.748398 -5.000001 -3.141593 0.004007 -1.539299
 53 5.500000 -0.000001 0.000000 0.156821 -0.000000 0.000000
 54 -0.000001 0.000000 -5.000000 -0.044472 3.137590 -0.000177
 55 6.551491 -0.000001 0.000000 -0.156821 -0.103684 -0.221486
 56 -1.266843 -1.937444 -4.950559 -0.066572 -2.988806 -0.110308
 57 6.551491 -0.000001 0.000000 -0.156821 -0.103684 -0.221486
 58 0.699371 -1.944209 -5.006845 -0.027189 -3.088217 0.005298
 59 4.226146 -0.003202 -0.000000 -0.126239 -0.152785 0.317456
 60 -0.000000 4.999999 0.000000 -0.153564 0.000087 2.718702
 61 0.000004 -0.000005 -3.713579 0.095503 -3.012510 -0.750673
 62 0.000003 0.000001 4.999999 3.053197 1.558589 -0.074927
 63 -0.000007 0.000005 3.713580 -0.334410 -2.825096 -0.524885
 64 0.000001 -0.000000 -4.999999 -0.088726 1.558589 3.066334
 65 7.363603 1.646647 0.495663 -3.141593 -1.570796 0.000000
 66 -0.000006 0.000005 3.619081 -0.528284 -2.367383 -1.007256
 67 16.573921 -0.000001 0.000001 -0.000000 0.000000 -2.019199
 68 15.128181 0.000001 -0.000002 0.031619 0.086785 -0.033197
 69 5.758664 4.244731 -0.000000 0.000000 -0.000000 2.033309
 70 3.177726 0.000001 0.000000 0.000000 0.000000 3.141593
 71 15.708951 0.000002 -0.000003 0.016155 0.048356 -0.018185
 72 0.275149 0.189215 -3.445208 3.130898 0.000409 -1.514604
 73 17.210192 -0.000002 0.000002 0.000000 -0.000000 -2.322356
 74 0.000001 -0.000000 -5.000000 -0.079430 1.546568 -1.570856
 75 0.000006 -0.000005 -3.619080 0.196495 -3.011952 -1.279118
 76 16.573921 0.000000 0.000000 -0.000000 0.000000 -1.611348
 77 15.128181 -0.000002 0.000000 0.214418 -0.027533 0.774389
 78 5.758665 4.244730 -0.000000 -0.000000 -0.000000 1.483530
 79 4.003934 0.000000 0.000001 0.000000 0.000000 0.000000
 80 15.708953 -0.000001 0.000000 0.153371 0.002792 0.528179
 81 0.273998 0.191089 3.439762 -3.130907 -0.000437 -1.508107
 82 17.210192 0.000000 0.000000 0.000000 -0.000000 -2.138823
 83 0.000001 0.000001 5.000000 -0.079311 1.595025 -1.570737
time 15
  0 1.130557 9.712686 27.009436 -0.281436 0.436358 -2.443536
  1 11.368429 6.770639 -23.418964 -0.498313 0.132926 2.346876
  2 -2.276934 0.000003 -1.238187 -1.570795 -1.570451 0.000000
  3 1.796390 0.711883 -0.000064 0.019308 -0.222784 -0.236131
  4 4.119234 -0.003218 0.000043 -0.013375 0.071404 0.192870
  5 4.119120 -0.003239 0.000030 -0.009228 0.115381 0.157345
  6 4.119347 -0.003196 0.000035 -0.010871 0.071825 0.227775
  7 4.120410 -0.002876 0.000994 -0.295116 -0.258548 0.638825
  8 4.443598 0.000003 0.000000 0.800150 0.361279 -1.142028
  9 9.024061 0.000001 -0.000001 0.000000 0.000000 0.000000
 10 0.443016 -0.483676 1.602710 1.078499 -2.077260 1.348668
 11 6.384776 0.000001 -0.000000 -0.514105 0.436084 -1.133407
 12 10.242682 -0.000000 -0.000002 0.000000 0.000000 -1.774414
 13 11.375562 -0.000000 0.000003 -3.090645 -0.123645 0.281885
 14 0.728681 0.023429 -1.008292 1.210021 0.600763 0.006085
 15 2.136497 -0.000000 0.000002 -0.000000 -0.000000 -0.078540
 16 2.313138 0.000001 -0.000000 0.000000 0.000000 0.000000
 17 3.115506 -0.886043 -0.021430 -0.620285 0.000392 0.514872
 18 2.011153 0.000004 -0.000000 0.000000 0.000000 1.322791
 19 2.141379 -0.000000 -0.000001 0.000000 0.000000 0.000000
 20 1.734173 0.000002 0.000000 0.000000 0.000000 0.660693
 21 0.000004 -4.440594 -0.000001 1.570544 -0.062990 -0.195737
 22 6.000000 0.000000 0.000001 -2.775828 -0.000000 0.000000
 23 0.000002 -4.440601 -0.000000 1.569944 -0.062987 0.004053
 24 11.375562 0.000001 0.000005 -2.324445 -0.136990 0.128640
 25 -0.000001 -4.440603 -0.000001 1.570144 -0.062988 0.004040
 26 10.510131 -0.000000 -0.000002 -0.000000 -0.000000 -2.458004
 27 -0.000000 -1.748399 4.999997 -0.000000 0.004007 1.602291
 28 5.500000 0.000000 -0.000000 0.108599 -0.000000 -0.000000
 29 -0.000003 -1.940599 5.000001 -0.044472 0.004003 -0.000180
 30 6.551490 0.000000 -0.000001 -0.246987 0.355638 -0.663549
 31 -0.000001 -1.940598 5.000003 -0.027189 -0.053376 0.005295
 32 6.551490 0.000000 -0.000001 -0.084629 0.187431 -0.296684
 33 -0.000001 -1.940599 4.999997 -0.066572 -0.152786 -0.110311
 34 -0.443013 0.490759 -1.602709 -0.093830 0.831854 2.464053
 35 6.384776 -0.000000 -0.000000 -0.478562 -0.388182 -0.535173
 36 10.242680 0.000000 0.000001 -0.000000 0.000000 -1.899089
 37 11.375561 0.000002 -0.000001 1.839268 0.400418 -0.346374
 38 0.728681 0.023431 1.008291 -1.579583 -0.319038 0.212973
 39 2.136497 -0.000001 -0.000001 0.000000 0.000000 1.282817
 40 2.313139 0.000000 0.000000 0.000000 0.000000 3.141593
 41 3.115507 -0.886041 0.021430 0.420765 0.316066 0.167178
 42 2.011149 0.000000 0.000001 -0.000000 -0.000000 2.082010
 43 2.141379 0.000000 0.000000 0.000000 0.000000 3.141593
 44 1.734171 -0.000001 0.000001 0.000000 -0.000000 1.041748
 45 0.136314 -3.738193 2.525889 1.493698 2.759406 -1.474501
 46 5.613160 0.862365 3.157031 1.595152 -0.135386 0.061522
 47 11.389366 -0.000818 0.158781 1.716497 0.201148 -0.197221
 48 0.000001 -4.440599 -0.000001 1.570144 -3.078602 0.004040
 49 6.000001 0.000003 -0.000000 1.716497 0.000000 0.000000
 50 0.000003 -4.440602 -0.000001 1.569944 -3.078603 0.004053
 51 10.510131 -0.000000 0.000002 0.000000 -0.000000 -2.520341
 52 0.000001 -1.748398 -5.000001 3.141593 0.004007 -1.539299
 53 5.499999 0.000001 0.000001 0.159214 -0.000000 -0.000000
 54 -0.000001 -0.000001 -4.999999 -0.044472 3.137589 -0.000177
 55 6.551491 -0.000001 0.000000 -0.159214 -0.103089 -0.219920
 56 -1.266842 -1.937442 -4.950558 -0.066572 -2.988806 -0.110308
 57 6.551491 -0.000001 0.000000 -0.159214 -0.103089 -0.219920
 58 0.699371 -1.944206 -5.006846 -0.027189 -3.088217 0.005298
 59 4.226146 -0.003202 -0.000000 -0.126239 -0.152785 0.317456
 60 -0.000000 4.999999 0.000000 -0.153564 0.000087 2.718702
 61 0.000004 -0.000005 -3.713579 0.095503 -3.012510 -0.750673
 62 0.000003 0.000001 4.999999 3.053197 1.558589 -0.074927
 63 -0.000007 0.000005 3.713580 -0.334410 -2.825096 -0.524885
 64 0.000001 -0.000000 -4.999999 -0.088726 1.558589 3.066334
 65 7.363603 1.646647 0.495663 -3.141593 -1.570796 0.000000
 66 -0.000006 0.000005 3.619081 -0.528284 -2.367383 -1.007256
 67 16.573921 -0.000001 0.000001 -0.000000 0.000000 -2.019199
 68 15.128181 0.000001 -0.000002 0.031619 0.086785 -0.033197
 69 5.758664 4.244731 -0.000000 0.000000 -0.000000 2.033309
 70 3.177726 0.000001 0.000000 0.000000 0.000000 3.141593
 71 15.708951 0.000002 -0.000003 0.016155 0.048356 -0.018185
 72 0.275149 0.189215 -3.445208 3.130898 0.000409 -1.514604
 73 17.210192 -0.000002 0.000002 0.000000 -0.000000 -2.322356
 74 0.000001 -0.000000 -5.000000 -0.079430 1.546568 -1.570856
 75 0.000006 -0.000005 -3.619080 0.196495 -3.011952 -1.279118
 76 16.573921 0.000000 0.000000 -0.000000 0.000000 -1.611348
 77 15.128181 -0.000002 0.000000 0.214418 -0.027533 0.774389
 78 5.758665 4.244730 -0.000000 -0.000000 -0.000000 1.483530
 79 4.003934 0.000000 0.000001 0.000000 0.000000 0.000000
 80 15.708953 -0.000001 0.000000 0.153371 0.002792 0.528179
 81 0.273998 0.191089 3.439762 -3.130907 -0.000437 -1.508107
 82 17.210192 0.000000 0.000000 0.000000 -0.000000 -2.138823
 83 0.000001 0.000001 5.000000 -0.079311 1.595025 -1.570737
end
