version 1
nodes
  0 "Bip01"  -1
  1 "Bip01 Footsteps"   0
  2 "Bip01 Pelvis"   0
  3 "Bip01 Spine"   2
  4 "Bip01 Spine1"   3
  5 "Bip01 Spine2"   4
  6 "Bip01 Spine3"   5
  7 "Bip01 Neck"   6
  8 "Bip01 Head"   7
  9 "Dummy21"   8
 10 "Bip01 L Clavicle"   7
 11 "Bip01 L UpperArm"  10
 12 "Bip01 L Forearm"  11
 13 "Bip01 L Hand"  12
 14 "Bip01 L Finger0"  13
 15 "Bip01 L Finger01"  14
 16 "Dummy06"  15
 17 "Bip01 L Finger1"  13
 18 "Bip01 L Finger11"  17
 19 "Dummy03"  18
 20 "-- L knuckle"  17
 21 "-- L knuckle_end"  20
 22 "-- L Forearm twist"  12
 23 "-- L Forearm twist_end"  22
 24 "-- L wrist"  12
 25 "-- L wrist_end"  24
 26 "-- L Elbow"  11
 27 "--L Elbow_end"  26
 28 "-- L bicep twist"  11
 29 "-- L bicep twist_end"  28
 30 "-- L shoulder outside"  10
 31 "-- L shoulder outside_end"  30
 32 "-- L Shoulder inside"  10
 33 "-- L Shoulder inside_end"  32
 34 "Bip01 R Clavicle"   7
 35 "Bip01 R UpperArm"  34
 36 "Bip01 R Forearm"  35
 37 "Bip01 R Hand"  36
 38 "Bip01 R Finger0"  37
 39 "Bip01 R Finger01"  38
 40 "Dummy01"  39
 41 "Bip01 R Finger1"  37
 42 "Bip01 R Finger11"  41
 43 "Dummy02"  42
 44 "-- R knuckle"  41
 45 "Point06"  44
 46 "Line01"  37
 47 "-- R wrist"  36
 48 "-- R wrist_end"  47
 49 "-- R forearm twist"  36
 50 "-- R forearm twist_end"  49
 51 "-- R Elbow"  35
 52 "--R Elbow_end"  51
 53 "-- R bicep twist"  35
 54 "-- R bicep twist_end"  53
 55 "-- R Shoulder inside"  34
 56 "-- R Shoulder inside_end"  55
 57 "-- R shoulder outside"  34
 58 "-- R shoulder outside_end"  57
 59 "-- Neck smooth"   6
 60 "-- neck smooth end"  59
 61 "-- R Butt"   2
 62 "--R Butt_end"  61
 63 "-- L butt"   2
 64 "--L butt_end"  63
 65 "GIGN01"   2
 66 "Bip01 L Thigh"   2
 67 "Bip01 L Calf"  66
 68 "Bip01 L Foot"  67
 69 "Bip01 L Toe0"  68
 70 "Dummy16"  69
 71 "-- L ankle"  67
 72 "-- L ankleend"  71
 73 "-- L Knee"  66
 74 "--L Knee_end"  73
 75 "Bip01 R Thigh"   2
 76 "Bip01 R Calf"  75
 77 "Bip01 R Foot"  76
 78 "Bip01 R Toe0"  77
 79 "Dummy11"  78
 80 "-- R Ankle"  76
 81 "-- R ankleend"  80
 82 "-- R Knee"  75
 83 "--R Knee_end"  82
end
skeleton
time 0
  0 1.130557 9.712686 27.009436 -0.281436 0.436358 -2.443536
  1 11.368429 6.770639 -23.418964 -0.498313 0.132926 2.346876
  2 -2.276934 0.000003 -1.238187 -1.570795 -1.570451 0.000000
  3 1.796515 0.711873 0.000333 -0.107397 -0.309015 -0.161114
  4 4.119290 -0.003207 -0.000040 0.012379 0.096183 0.212460
  5 4.119176 -0.003229 -0.000053 0.016888 0.161018 0.178577
  6 4.119402 -0.003181 -0.000048 0.014678 0.095670 0.247418
  7 4.120408 -0.002874 0.000995 -0.295116 -0.258548 0.638825
  8 4.443599 -0.000002 0.000000 0.897927 -0.241551 -0.845145
  9 9.024062 -0.000001 -0.000001 0.000000 0.000000 0.000000
 10 0.443016 -0.483682 1.602709 1.078499 -2.077260 1.348668
 11 6.384776 0.000000 0.000000 -0.382424 0.768759 -1.508804
 12 10.242684 0.000000 -0.000001 0.000000 -0.000000 -0.955183
 13 11.375561 0.000001 0.000002 2.937855 -0.488490 -0.282074
 14 0.728680 0.023431 -1.008292 1.210021 0.600763 0.006085
 15 2.136497 0.000001 -0.000000 0.000000 0.000000 -0.078540
 16 2.313139 0.000001 -0.000000 0.000000 0.000000 0.000000
 17 3.115507 -0.886041 -0.021432 -0.620285 0.000392 0.514872
 18 2.011151 0.000001 0.000001 -0.000000 0.000000 1.322792
 19 2.141379 -0.000001 0.000000 0.000000 0.000000 0.000000
 20 1.734172 0.000000 -0.000000 -0.000000 -0.000000 0.660693
 21 0.000006 -4.440594 -0.000001 1.570544 -0.062990 -0.195737
 22 5.999999 0.000000 0.000001 -3.003163 -0.000000 -0.000000
 23 0.000002 -4.440601 0.000000 1.569944 -0.062987 0.004053
 24 11.375561 0.000001 0.000005 -2.442702 -0.176399 -0.291886
 25 -0.000000 -4.440604 0.000000 1.570144 -0.062988 0.004040
 26 10.510132 0.000000 -0.000001 -0.000000 0.000000 -2.048388
 27 0.000001 -1.748401 5.000000 -0.000000 0.004007 1.602290
 28 5.500002 0.000000 -0.000000 0.002619 -0.000000 0.000000
 29 -0.000003 -1.940599 5.000000 -0.044472 0.004003 -0.000180
 30 6.551491 -0.000001 -0.000001 -0.158598 0.659275 -0.875599
 31 0.000000 -1.940599 5.000002 -0.027189 -0.053376 0.005295
 32 6.551491 -0.000001 -0.000001 0.010390 0.301584 -0.345087
 33 -0.000001 -1.940598 4.999996 -0.066572 -0.152786 -0.110311
 34 -0.443013 0.490752 -1.602710 0.062061 0.623985 2.615033
 35 6.384777 -0.000001 0.000001 -0.860127 0.312655 -0.439717
 36 10.242681 -0.000001 -0.000000 -0.000000 0.000000 -1.864458
 37 11.375561 0.000001 0.000001 2.100102 0.433434 -0.272553
 38 0.728680 0.023431 1.008292 -1.579583 -0.319038 0.212973
 39 2.136497 -0.000001 -0.000000 -0.000000 0.000000 1.282817
 40 2.313140 -0.000000 0.000000 0.000000 0.000000 3.141593
 41 3.115506 -0.886041 0.021432 0.420766 0.316066 0.167178
 42 2.011151 -0.000000 0.000000 -0.000000 -0.000000 2.082010
 43 2.141379 0.000001 -0.000000 0.000000 0.000000 3.141593
 44 1.734174 -0.000001 -0.000000 0.000000 -0.000000 1.041748
 45 0.136314 -3.738192 2.525890 1.493698 2.759406 -1.474501
 46 5.613160 0.862366 3.157030 1.595152 -0.135386 0.061522
 47 11.389368 -0.000818 0.158782 1.840175 0.212607 -0.174455
 48 0.000000 -4.440598 0.000000 1.570144 -3.078602 0.004040
 49 6.000001 0.000001 0.000000 1.840175 0.000000 -0.000000
 50 0.000002 -4.440602 0.000000 1.569944 -3.078603 0.004053
 51 10.510128 -0.000001 0.000001 -0.000000 -0.000000 -2.503025
 52 -0.000001 -1.748399 -5.000001 -3.141593 0.004007 -1.539299
 53 5.499999 0.000000 0.000000 0.275444 0.000000 -0.000000
 54 0.000000 0.000001 -5.000000 -0.044472 3.137590 -0.000177
 55 6.551490 0.000000 -0.000001 -0.275444 0.161975 -0.148066
 56 -1.266844 -1.937442 -4.950560 -0.066572 -2.988806 -0.110308
 57 6.551491 0.000000 -0.000001 -0.275444 0.161975 -0.148066
 58 0.699370 -1.944209 -5.006845 -0.027189 -3.088217 0.005298
 59 4.226145 -0.003201 0.000000 -0.126239 -0.152785 0.317456
 60 -0.000001 5.000003 0.000001 -0.153564 0.000087 2.718702
 61 0.000004 -0.000005 -3.713579 0.095503 -3.012510 -0.750673
 62 0.000003 0.000001 4.999999 3.053197 1.558589 -0.074927
 63 -0.000007 0.000005 3.713580 -0.334410 -2.825096 -0.524885
 64 0.000001 -0.000000 -4.999999 -0.088726 1.558589 3.066334
 65 7.363603 1.646647 0.495663 -3.141593 -1.570796 0.000000
 66 -0.000006 0.000005 3.619081 -0.528284 -2.367383 -1.007256
 67 16.573921 -0.000001 0.000001 -0.000000 0.000000 -2.019199
 68 15.128181 0.000001 -0.000002 0.031619 0.086785 -0.033197
 69 5.758664 4.244731 -0.000000 0.000000 -0.000000 2.033309
 70 3.177726 0.000001 0.000000 0.000000 0.000000 3.141593
 71 15.708951 0.000002 -0.000003 0.016155 0.048356 -0.018185
 72 0.275149 0.189215 -3.445208 3.130898 0.000409 -1.514604
 73 17.210192 -0.000002 0.000002 0.000000 -0.000000 -2.322356
 74 0.000001 -0.000000 -5.000000 -0.079430 1.546568 -1.570856
 75 0.000006 -0.000005 -3.619080 0.196495 -3.011952 -1.279118
 76 16.573921 0.000000 0.000000 -0.000000 0.000000 -1.611348
 77 15.128181 -0.000002 0.000000 0.214418 -0.027533 0.774389
 78 5.758665 4.244730 -0.000000 -0.000000 -0.000000 1.483530
 79 4.003934 0.000000 0.000001 0.000000 0.000000 0.000000
 80 15.708953 -0.000001 0.000000 0.153371 0.002792 0.528179
 81 0.273998 0.191089 3.439762 -3.130907 -0.000437 -1.508107
 82 17.210192 0.000000 0.000000 0.000000 -0.000000 -2.138823
 83 0.000001 0.000001 5.000000 -0.079311 1.595025 -1.570737
time 1
  0 1.130557 9.712686 27.009436 -0.281436 0.436358 -2.443536
  1 11.368429 6.770639 -23.418964 -0.498313 0.132926 2.346876
  2 -2.276934 0.000003 -1.238187 -1.570795 -1.570451 0.000000
  3 1.796551 0.711852 0.000152 -0.049388 -0.313064 -0.166325
  4 4.119290 -0.003206 -0.000040 0.012379 0.096183 0.212460
  5 4.119178 -0.003228 -0.000054 0.016888 0.161018 0.178577
  6 4.119402 -0.003180 -0.000048 0.014678 0.095670 0.247418
  7 4.120413 -0.002880 0.000994 -0.295116 -0.258548 0.638825
  8 4.443599 0.000001 0.000001 0.846187 -0.216145 -0.827158
  9 9.024061 -0.000000 -0.000001 0.000000 0.000000 0.000000
 10 0.443016 -0.483677 1.602711 1.078499 -2.077260 1.348668
 11 6.384776 0.000001 0.000001 -0.392286 0.693179 -1.552801
 12 10.242682 0.000000 -0.000000 -0.000000 -0.000000 -0.841878
 13 11.375562 0.000000 0.000001 2.873340 -0.430401 -0.329421
 14 0.728680 0.023431 -1.008292 1.210021 0.600763 0.006086
 15 2.136497 0.000001 -0.000001 0.000000 -0.000000 -0.078540
 16 2.313139 -0.000000 -0.000000 0.000000 0.000000 0.000000
 17 3.115507 -0.886041 -0.021432 -0.620285 0.000392 0.514872
 18 2.011150 0.000000 -0.000000 0.000000 -0.000000 1.322792
 19 2.141379 -0.000000 0.000001 0.000000 0.000000 0.000000
 20 1.734172 0.000002 0.000001 -0.000000 -0.000000 0.660693
 21 0.000006 -4.440593 0.000000 1.570544 -0.062990 -0.195737
 22 6.000000 -0.000001 0.000001 -3.070730 -0.000000 0.000000
 23 0.000001 -4.440601 0.000001 1.569944 -0.062987 0.004053
 24 11.375562 0.000000 0.000005 -2.481673 -0.128510 -0.306563
 25 -0.000001 -4.440604 0.000001 1.570144 -0.062988 0.004040
 26 10.510132 0.000000 -0.000000 -0.000000 0.000000 -1.991735
 27 0.000001 -1.748400 4.999998 -0.000000 0.004007 1.602291
 28 5.500000 0.000000 -0.000000 0.024891 -0.000000 -0.000000
 29 -0.000003 -1.940599 5.000000 -0.044472 0.004003 -0.000180
 30 6.551490 -0.000001 -0.000001 -0.203185 0.622667 -0.942986
 31 0.000001 -1.940599 5.000002 -0.027189 -0.053376 0.005295
 32 6.551490 -0.000001 -0.000001 -0.007182 0.288887 -0.368836
 33 -0.000001 -1.940599 4.999995 -0.066572 -0.152786 -0.110311
 34 -0.443013 0.490758 -1.602707 -0.011211 0.654926 2.548308
 35 6.384776 0.000001 0.000000 -0.754187 0.167597 -0.309048
 36 10.242681 0.000000 0.000001 0.000000 0.000000 -1.911611
 37 11.375563 0.000002 0.000000 2.037364 0.359533 -0.167878
 38 0.728680 0.023431 1.008292 -1.579583 -0.319038 0.212973
 39 2.136498 0.000001 -0.000000 -0.000000 0.000000 1.282817
 40 2.313140 -0.000000 0.000000 0.000000 0.000000 3.141593
 41 3.115505 -0.886041 0.021433 0.420766 0.316066 0.167178
 42 2.011151 -0.000001 -0.000001 -0.000000 -0.000000 2.082010
 43 2.141380 -0.000001 0.000000 0.000000 0.000000 3.141593
 44 1.734173 -0.000001 -0.000000 -0.000000 -0.000000 1.041748
 45 0.136314 -3.738193 2.525891 1.493698 2.759406 -1.474501
 46 5.613158 0.862366 3.157031 1.595152 -0.135386 0.061522
 47 11.389367 -0.000818 0.158781 1.805534 0.185657 -0.115579
 48 0.000000 -4.440599 0.000001 1.570144 -3.078602 0.004040
 49 6.000000 0.000000 -0.000000 1.805534 -0.000000 0.000000
 50 0.000003 -4.440602 -0.000001 1.569944 -3.078603 0.004053
 51 10.510128 -0.000001 0.000001 0.000000 0.000000 -2.526602
 52 -0.000003 -1.748402 -5.000002 -3.141593 0.004007 -1.539299
 53 5.499999 0.000000 0.000000 0.252431 -0.000000 -0.000000
 54 -0.000001 -0.000001 -5.000000 -0.044472 3.137589 -0.000177
 55 6.551490 -0.000001 0.000003 -0.252431 0.110163 -0.144712
 56 -1.266845 -1.937444 -4.950560 -0.066572 -2.988806 -0.110308
 57 6.551490 -0.000002 0.000003 -0.252431 0.110163 -0.144712
 58 0.699369 -1.944208 -5.006847 -0.027189 -3.088217 0.005298
 59 4.226145 -0.003202 0.000000 -0.126239 -0.152785 0.317456
 60 -0.000000 5.000001 -0.000000 -0.153564 0.000087 2.718702
 61 0.000004 -0.000005 -3.713579 0.095503 -3.012510 -0.750673
 62 0.000003 0.000001 4.999999 3.053197 1.558589 -0.074927
 63 -0.000007 0.000005 3.713580 -0.334410 -2.825096 -0.524885
 64 0.000001 -0.000000 -4.999999 -0.088726 1.558589 3.066334
 65 7.363603 1.646647 0.495663 -3.141593 -1.570796 0.000000
 66 -0.000006 0.000005 3.619081 -0.528284 -2.367383 -1.007256
 67 16.573921 -0.000001 0.000001 -0.000000 0.000000 -2.019199
 68 15.128181 0.000001 -0.000002 0.031619 0.086785 -0.033197
 69 5.758664 4.244731 -0.000000 0.000000 -0.000000 2.033309
 70 3.177726 0.000001 0.000000 0.000000 0.000000 3.141593
 71 15.708951 0.000002 -0.000003 0.016155 0.048356 -0.018185
 72 0.275149 0.189215 -3.445208 3.130898 0.000409 -1.514604
 73 17.210192 -0.000002 0.000002 0.000000 -0.000000 -2.322356
 74 0.000001 -0.000000 -5.000000 -0.079430 1.546568 -1.570856
 75 0.000006 -0.000005 -3.619080 0.196495 -3.011952 -1.279118
 76 16.573921 0.000000 0.000000 -0.000000 0.000000 -1.611348
 77 15.128181 -0.000002 0.000000 0.214418 -0.027533 0.774389
 78 5.758665 4.244730 -0.000000 -0.000000 -0.000000 1.483530
 79 4.003934 0.000000 0.000001 0.000000 0.000000 0.000000
 80 15.708953 -0.000001 0.000000 0.153371 0.002792 0.528179
 81 0.273998 0.191089 3.439762 -3.130907 -0.000437 -1.508107
 82 17.210192 0.000000 0.000000 0.000000 -0.000000 -2.138823
 83 0.000001 0.000001 5.000000 -0.079311 1.595025 -1.570737
time 2
  0 1.130557 9.712686 27.009436 -0.281436 0.436358 -2.443536
  1 11.368429 6.770639 -23.418964 -0.498313 0.132926 2.346876
  2 -2.276934 0.000003 -1.238187 -1.570795 -1.570451 0.000000
  3 1.796592 0.711841 -0.000029 0.008716 -0.316819 -0.171781
  4 4.119291 -0.003206 -0.000040 0.012379 0.096183 0.212460
  5 4.119176 -0.003228 -0.000055 0.016888 0.161018 0.178577
  6 4.119402 -0.003182 -0.000048 0.014678 0.095670 0.247418
  7 4.120409 -0.002875 0.000996 -0.295116 -0.258548 0.638825
  8 4.443599 -0.000002 -0.000001 0.795195 -0.189874 -0.810628
  9 9.024061 -0.000002 -0.000001 0.000000 0.000000 0.000000
 10 0.443016 -0.483682 1.602708 1.078499 -2.077260 1.348668
 11 6.384776 0.000001 -0.000000 -0.414164 0.612827 -1.620671
 12 10.242682 0.000000 0.000000 -0.000000 -0.000000 -0.693719
 13 11.375560 -0.000001 0.000002 2.816211 -0.370558 -0.397444
 14 0.728681 0.023429 -1.008292 1.210021 0.600763 0.006085
 15 2.136497 -0.000001 0.000000 0.000000 -0.000000 -0.078540
 16 2.313139 0.000000 -0.000000 0.000000 0.000000 0.000000
 17 3.115507 -0.886042 -0.021432 -0.620285 0.000392 0.514872
 18 2.011151 0.000001 0.000000 0.000000 0.000000 1.322792
 19 2.141379 -0.000000 0.000001 0.000000 0.000000 0.000000
 20 1.734172 0.000001 -0.000000 -0.000000 0.000000 0.660693
 21 0.000005 -4.440594 -0.000002 1.570544 -0.062990 -0.195737
 22 6.000000 -0.000001 0.000001 -3.134593 0.000000 0.000000
 23 0.000003 -4.440602 0.000001 1.569944 -0.062987 0.004053
 24 11.375562 0.000000 0.000005 -2.518133 -0.070344 -0.327551
 25 0.000000 -4.440603 0.000001 1.570144 -0.062988 0.004040
 26 10.510130 0.000000 -0.000000 0.000000 -0.000000 -1.917656
 27 0.000001 -1.748400 4.999998 0.000000 0.004007 1.602291
 28 5.500000 0.000000 -0.000000 0.055221 0.000000 -0.000000
 29 -0.000002 -1.940599 5.000000 -0.044472 0.004003 -0.000180
 30 6.551490 0.000001 -0.000000 -0.271962 0.585123 -1.056104
 31 -0.000001 -1.940599 5.000000 -0.027189 -0.053376 0.005295
 32 6.551490 0.000001 -0.000000 -0.030393 0.276675 -0.402792
 33 -0.000000 -1.940599 4.999994 -0.066572 -0.152786 -0.110311
 34 -0.443013 0.490755 -1.602709 -0.087790 0.681727 2.476102
 35 6.384776 0.000000 0.000001 -0.670239 0.006565 -0.198713
 36 10.242682 -0.000002 0.000000 0.000000 -0.000000 -1.947106
 37 11.375559 0.000001 0.000000 1.961220 0.297251 -0.072780
 38 0.728680 0.023431 1.008293 -1.579583 -0.319038 0.212973
 39 2.136496 -0.000001 -0.000000 -0.000000 0.000000 1.282817
 40 2.313140 0.000000 0.000000 0.000000 0.000000 3.141593
 41 3.115506 -0.886041 0.021432 0.420766 0.316066 0.167178
 42 2.011151 -0.000001 -0.000000 -0.000000 -0.000000 2.082010
 43 2.141380 0.000000 0.000000 0.000000 0.000000 3.141593
 44 1.734172 -0.000001 -0.000000 -0.000000 -0.000000 1.041748
 45 0.136315 -3.738193 2.525890 1.493698 2.759406 -1.474501
 46 5.613159 0.862366 3.157030 1.595152 -0.135386 0.061522
 47 11.389365 -0.000818 0.158781 1.765803 0.160471 -0.058108
 48 0.000002 -4.440599 -0.000000 1.570144 -3.078602 0.004040
 49 5.999998 0.000000 -0.000001 1.765803 -0.000000 -0.000000
 50 0.000003 -4.440601 -0.000000 1.569944 -3.078602 0.004053
 51 10.510129 -0.000002 0.000001 -0.000000 -0.000000 -2.544349
 52 -0.000001 -1.748401 -5.000001 -3.141593 0.004007 -1.539299
 53 5.499999 0.000002 -0.000000 0.225116 0.000000 -0.000000
 54 0.000000 -0.000000 -4.999999 -0.044472 3.137589 -0.000177
 55 6.551490 -0.000001 0.000003 -0.225116 0.031344 -0.131459
 56 -1.266844 -1.937445 -4.950560 -0.066572 -2.988806 -0.110308
 57 6.551490 -0.000001 0.000002 -0.225116 0.031344 -0.131459
 58 0.699370 -1.944209 -5.006846 -0.027189 -3.088217 0.005298
 59 4.226147 -0.003203 0.000000 -0.126239 -0.152785 0.317456
 60 -0.000001 5.000000 -0.000001 -0.153564 0.000087 2.718702
 61 0.000004 -0.000005 -3.713579 0.095503 -3.012510 -0.750673
 62 0.000003 0.000001 4.999999 3.053197 1.558589 -0.074927
 63 -0.000007 0.000005 3.713580 -0.334410 -2.825096 -0.524885
 64 0.000001 -0.000000 -4.999999 -0.088726 1.558589 3.066334
 65 7.363603 1.646647 0.495663 -3.141593 -1.570796 0.000000
 66 -0.000006 0.000005 3.619081 -0.528284 -2.367383 -1.007256
 67 16.573921 -0.000001 0.000001 -0.000000 0.000000 -2.019199
 68 15.128181 0.000001 -0.000002 0.031619 0.086785 -0.033197
 69 5.758664 4.244731 -0.000000 0.000000 -0.000000 2.033309
 70 3.177726 0.000001 0.000000 0.000000 0.000000 3.141593
 71 15.708951 0.000002 -0.000003 0.016155 0.048356 -0.018185
 72 0.275149 0.189215 -3.445208 3.130898 0.000409 -1.514604
 73 17.210192 -0.000002 0.000002 0.000000 -0.000000 -2.322356
 74 0.000001 -0.000000 -5.000000 -0.079430 1.546568 -1.570856
 75 0.000006 -0.000005 -3.619080 0.196495 -3.011952 -1.279118
 76 16.573921 0.000000 0.000000 -0.000000 0.000000 -1.611348
 77 15.128181 -0.000002 0.000000 0.214418 -0.027533 0.774389
 78 5.758665 4.244730 -0.000000 -0.000000 -0.000000 1.483530
 79 4.003934 0.000000 0.000001 0.000000 0.000000 0.000000
 80 15.708953 -0.000001 0.000000 0.153371 0.002792 0.528179
 81 0.273998 0.191089 3.439762 -3.130907 -0.000437 -1.508107
 82 17.210192 0.000000 0.000000 0.000000 -0.000000 -2.138823
 83 0.000001 0.000001 5.000000 -0.079311 1.595025 -1.570737
time 3
  0 1.130557 9.712686 27.009436 -0.281436 0.436358 -2.443536
  1 11.368429 6.770639 -23.418964 -0.498313 0.132926 2.346876
  2 -2.276934 0.000003 -1.238187 -1.570795 -1.570451 0.000000
  3 1.796618 0.711839 -0.000140 0.044373 -0.318969 -0.175238
  4 4.119289 -0.003207 -0.000040 0.012379 0.096183 0.212460
  5 4.119174 -0.003227 -0.000052 0.016888 0.161018 0.178577
  6 4.119401 -0.003181 -0.000048 0.014678 0.095670 0.247418
  7 4.120411 -0.002877 0.000994 -0.295116 -0.258548 0.638825
  8 4.443599 -0.000001 -0.000001 0.764285 -0.173378 -0.801217
  9 9.024061 -0.000000 -0.000001 0.000000 0.000000 0.000000
 10 0.443016 -0.483680 1.602708 1.078499 -2.077260 1.348668
 11 6.384776 -0.000002 -0.000001 -0.448259 0.560186 -1.674627
 12 10.242681 -0.000000 -0.000000 0.000000 0.000000 -0.578252
 13 11.375561 0.000000 0.000000 2.794974 -0.320229 -0.457498
 14 0.728680 0.023431 -1.008291 1.210021 0.600763 0.006085
 15 2.136498 -0.000001 0.000002 0.000000 -0.000000 -0.078540
 16 2.313139 0.000000 -0.000000 0.000000 0.000000 0.000000
 17 3.115507 -0.886042 -0.021432 -0.620285 0.000392 0.514872
 18 2.011150 0.000000 0.000000 0.000000 0.000000 1.322792
 19 2.141379 -0.000000 0.000001 0.000000 0.000000 0.000000
 20 1.734172 0.000001 0.000000 -0.000000 -0.000000 0.660693
 21 0.000006 -4.440594 -0.000000 1.570544 -0.062990 -0.195737
 22 6.000000 0.000000 0.000000 3.120295 -0.000000 -0.000000
 23 0.000002 -4.440601 0.000001 1.569944 -0.062987 0.004053
 24 11.375562 0.000001 0.000003 -2.534835 -0.021366 -0.342608
 25 -0.000001 -4.440602 0.000000 1.570144 -0.062988 0.004040
 26 10.510130 -0.000000 -0.000001 -0.000000 0.000000 -1.859922
 27 0.000002 -1.748402 4.999999 -0.000000 0.004007 1.602291
 28 5.499998 -0.000000 -0.000000 0.081470 0.000000 -0.000000
 29 -0.000001 -1.940599 5.000001 -0.044472 0.004003 -0.000180
 30 6.551490 0.000000 0.000001 -0.334593 0.558606 -1.153003
 31 0.000001 -1.940599 5.000000 -0.027189 -0.053376 0.005295
 32 6.551490 0.000000 0.000001 -0.050026 0.269496 -0.427374
 33 -0.000001 -1.940599 4.999996 -0.066572 -0.152786 -0.110311
 34 -0.443013 0.490757 -1.602709 -0.135392 0.697265 2.429998
 35 6.384776 0.000001 0.000001 -0.624980 -0.106525 -0.145498
 36 10.242682 -0.000002 0.000001 0.000000 -0.000000 -1.962314
 37 11.375560 0.000002 -0.000001 1.906782 0.262599 -0.013783
 38 0.728681 0.023430 1.008291 -1.579583 -0.319038 0.212973
 39 2.136497 -0.000001 -0.000000 -0.000000 0.000000 1.282817
 40 2.313140 0.000001 0.000000 0.000000 0.000000 3.141593
 41 3.115508 -0.886041 0.021430 0.420766 0.316066 0.167178
 42 2.011151 -0.000000 -0.000000 -0.000000 -0.000000 2.082010
 43 2.141379 0.000000 -0.000000 0.000000 0.000000 3.141593
 44 1.734173 -0.000001 -0.000000 -0.000000 0.000000 1.041748
 45 0.136314 -3.738192 2.525890 1.493698 2.759406 -1.474501
 46 5.613160 0.862365 3.157030 1.595152 -0.135386 0.061522
 47 11.389364 -0.000818 0.158781 1.737808 0.145183 -0.021155
 48 0.000002 -4.440598 0.000000 1.570144 -3.078602 0.004040
 49 5.999999 0.000002 0.000000 1.737808 -0.000000 0.000000
 50 0.000001 -4.440601 -0.000001 1.569944 -3.078603 0.004053
 51 10.510130 -0.000002 0.000001 0.000000 0.000000 -2.551953
 52 -0.000001 -1.748400 -5.000002 -3.141593 0.004007 -1.539299
 53 5.499999 -0.000002 0.000000 0.206245 0.000000 0.000000
 54 -0.000000 -0.000000 -4.999999 -0.044472 3.137589 -0.000177
 55 6.551490 0.000001 0.000001 -0.206245 -0.038933 -0.116244
 56 -1.266844 -1.937441 -4.950560 -0.066572 -2.988806 -0.110308
 57 6.551490 0.000001 0.000001 -0.206245 -0.038933 -0.116244
 58 0.699370 -1.944207 -5.006846 -0.027189 -3.088217 0.005298
 59 4.226147 -0.003202 -0.000001 -0.126239 -0.152785 0.317456
 60 -0.000001 5.000002 0.000001 -0.153564 0.000087 2.718702
 61 0.000004 -0.000005 -3.713579 0.095503 -3.012510 -0.750673
 62 0.000003 0.000001 4.999999 3.053197 1.558589 -0.074927
 63 -0.000007 0.000005 3.713580 -0.334410 -2.825096 -0.524885
 64 0.000001 -0.000000 -4.999999 -0.088726 1.558589 3.066334
 65 7.363603 1.646647 0.495663 -3.141593 -1.570796 0.000000
 66 -0.000006 0.000005 3.619081 -0.528284 -2.367383 -1.007256
 67 16.573921 -0.000001 0.000001 -0.000000 0.000000 -2.019199
 68 15.128181 0.000001 -0.000002 0.031619 0.086785 -0.033197
 69 5.758664 4.244731 -0.000000 0.000000 -0.000000 2.033309
 70 3.177726 0.000001 0.000000 0.000000 0.000000 3.141593
 71 15.708951 0.000002 -0.000003 0.016155 0.048356 -0.018185
 72 0.275149 0.189215 -3.445208 3.130898 0.000409 -1.514604
 73 17.210192 -0.000002 0.000002 0.000000 -0.000000 -2.322356
 74 0.000001 -0.000000 -5.000000 -0.079430 1.546568 -1.570856
 75 0.000006 -0.000005 -3.619080 0.196495 -3.011952 -1.279118
 76 16.573921 0.000000 0.000000 -0.000000 0.000000 -1.611348
 77 15.128181 -0.000002 0.000000 0.214418 -0.027533 0.774389
 78 5.758665 4.244730 -0.000000 -0.000000 -0.000000 1.483530
 79 4.003934 0.000000 0.000001 0.000000 0.000000 0.000000
 80 15.708953 -0.000001 0.000000 0.153371 0.002792 0.528179
 81 0.273998 0.191089 3.439762 -3.130907 -0.000437 -1.508107
 82 17.210192 0.000000 0.000000 0.000000 -0.000000 -2.138823
 83 0.000001 0.000001 5.000000 -0.079311 1.595025 -1.570737
time 4
  0 1.130557 9.712686 27.009436 -0.281436 0.436358 -2.443536
  1 11.368429 6.770639 -23.418964 -0.498313 0.132926 2.346876
  2 -2.276934 0.000003 -1.238187 -1.570795 -1.570451 0.000000
  3 1.796624 0.711841 -0.000176 0.056110 -0.319650 -0.176393
  4 4.119292 -0.003208 -0.000042 0.012379 0.096183 0.212460
  5 4.119174 -0.003227 -0.000053 0.016888 0.161018 0.178577
  6 4.119404 -0.003182 -0.000049 0.014678 0.095670 0.247418
  7 4.120409 -0.002875 0.000994 -0.295116 -0.258548 0.638825
  8 4.443599 -0.000002 -0.000001 0.754172 -0.167891 -0.798240
  9 9.024061 0.000000 -0.000001 0.000000 0.000000 0.000000
 10 0.443016 -0.483683 1.602708 1.078499 -2.077260 1.348668
 11 6.384776 -0.000002 -0.000002 -0.488009 0.545979 -1.686997
 12 10.242684 0.000000 -0.000001 0.000000 -0.000000 -0.546106
 13 11.375560 0.000001 -0.000000 2.810737 -0.279178 -0.482962
 14 0.728681 0.023432 -1.008292 1.210021 0.600764 0.006086
 15 2.136497 -0.000000 0.000001 0.000000 -0.000000 -0.078540
 16 2.313138 0.000000 0.000000 0.000000 0.000000 0.000000
 17 3.115507 -0.886040 -0.021432 -0.620285 0.000392 0.514872
 18 2.011151 -0.000000 0.000000 0.000000 0.000000 1.322791
 19 2.141381 -0.000000 0.000001 0.000000 0.000000 0.000000
 20 1.734173 0.000001 -0.000000 -0.000000 0.000000 0.660693
 21 0.000006 -4.440593 -0.000000 1.570544 -0.062990 -0.195737
 22 5.999999 0.000001 0.000000 3.133124 0.000000 0.000000
 23 0.000003 -4.440601 0.000001 1.569944 -0.062987 0.004053
 24 11.375560 0.000001 0.000003 -2.529456 0.006865 -0.341468
 25 0.000000 -4.440604 0.000000 1.570144 -0.062988 0.004040
 26 10.510131 0.000000 -0.000001 0.000000 0.000000 -1.843849
 27 0.000001 -1.748402 4.999999 0.000000 0.004007 1.602290
 28 5.500001 0.000000 -0.000001 0.094513 0.000000 -0.000000
 29 -0.000002 -1.940599 5.000001 -0.044472 0.004003 -0.000180
 30 6.551490 -0.000001 -0.000002 -0.365423 0.557137 -1.172143
 31 -0.000001 -1.940598 5.000002 -0.027189 -0.053376 0.005295
 32 6.551490 -0.000001 -0.000002 -0.059903 0.271897 -0.429739
 33 0.000000 -1.940601 4.999994 -0.066572 -0.152786 -0.110311
 34 -0.443013 0.490754 -1.602710 -0.146409 0.704069 2.418949
 35 6.384775 0.000003 -0.000000 -0.608432 -0.157883 -0.143390
 36 10.242680 0.000002 0.000001 -0.000000 -0.000000 -1.962627
 37 11.375560 0.000003 -0.000001 1.884385 0.249222 0.011113
 38 0.728681 0.023431 1.008292 -1.579583 -0.319038 0.212973
 39 2.136497 -0.000000 -0.000001 0.000000 0.000000 1.282817
 40 2.313139 0.000001 0.000000 0.000000 0.000000 3.141593
 41 3.115508 -0.886041 0.021431 0.420766 0.316066 0.167178
 42 2.011151 -0.000001 -0.000000 0.000000 -0.000000 2.082010
 43 2.141380 -0.000000 0.000000 0.000000 0.000000 3.141593
 44 1.734173 -0.000002 -0.000000 -0.000000 -0.000000 1.041748
 45 0.136315 -3.738193 2.525890 1.493698 2.759406 -1.474501
 46 5.613160 0.862366 3.157031 1.595152 -0.135386 0.061522
 47 11.389364 -0.000818 0.158781 1.726294 0.139005 -0.005499
 48 0.000001 -4.440599 0.000001 1.570144 -3.078602 0.004040
 49 5.999999 0.000001 -0.000000 1.726294 0.000000 0.000000
 50 -0.000001 -4.440601 0.000001 1.569944 -3.078603 0.004053
 51 10.510130 -0.000000 0.000002 0.000000 0.000000 -2.552110
 52 0.000000 -1.748398 -5.000001 -3.141593 0.004007 -1.539299
 53 5.500000 0.000001 0.000001 0.198544 -0.000000 0.000000
 54 -0.000001 0.000001 -5.000000 -0.044472 3.137589 -0.000177
 55 6.551490 -0.000000 0.000002 -0.198544 -0.067314 -0.117267
 56 -1.266844 -1.937444 -4.950560 -0.066572 -2.988806 -0.110308
 57 6.551490 -0.000000 0.000002 -0.198544 -0.067314 -0.117267
 58 0.699370 -1.944208 -5.006847 -0.027189 -3.088217 0.005298
 59 4.226145 -0.003201 -0.000000 -0.126239 -0.152785 0.317456
 60 0.000001 4.999999 0.000001 -0.153564 0.000087 2.718702
 61 0.000004 -0.000005 -3.713579 0.095503 -3.012510 -0.750673
 62 0.000003 0.000001 4.999999 3.053197 1.558589 -0.074927
 63 -0.000007 0.000005 3.713580 -0.334410 -2.825096 -0.524885
 64 0.000001 -0.000000 -4.999999 -0.088726 1.558589 3.066334
 65 7.363603 1.646647 0.495663 -3.141593 -1.570796 0.000000
 66 -0.000006 0.000005 3.619081 -0.528284 -2.367383 -1.007256
 67 16.573921 -0.000001 0.000001 -0.000000 0.000000 -2.019199
 68 15.128181 0.000001 -0.000002 0.031619 0.086785 -0.033197
 69 5.758664 4.244731 -0.000000 0.000000 -0.000000 2.033309
 70 3.177726 0.000001 0.000000 0.000000 0.000000 3.141593
 71 15.708951 0.000002 -0.000003 0.016155 0.048356 -0.018185
 72 0.275149 0.189215 -3.445208 3.130898 0.000409 -1.514604
 73 17.210192 -0.000002 0.000002 0.000000 -0.000000 -2.322356
 74 0.000001 -0.000000 -5.000000 -0.079430 1.546568 -1.570856
 75 0.000006 -0.000005 -3.619080 0.196495 -3.011952 -1.279118
 76 16.573921 0.000000 0.000000 -0.000000 0.000000 -1.611348
 77 15.128181 -0.000002 0.000000 0.214418 -0.027533 0.774389
 78 5.758665 4.244730 -0.000000 -0.000000 -0.000000 1.483530
 79 4.003934 0.000000 0.000001 0.000000 0.000000 0.000000
 80 15.708953 -0.000001 0.000000 0.153371 0.002792 0.528179
 81 0.273998 0.191089 3.439762 -3.130907 -0.000437 -1.508107
 82 17.210192 0.000000 0.000000 0.000000 -0.000000 -2.138823
 83 0.000001 0.000001 5.000000 -0.079311 1.595025 -1.570737
time 5
  0 1.130557 9.712686 27.009436 -0.281436 0.436358 -2.443536
  1 11.368429 6.770639 -23.418964 -0.498313 0.132926 2.346876
  2 -2.276934 0.000003 -1.238187 -1.570795 -1.570451 0.000000
  3 1.796629 0.711840 -0.000188 0.059396 -0.319839 -0.176718
  4 4.119291 -0.003206 -0.000040 0.012379 0.096183 0.212460
  5 4.119175 -0.003228 -0.000053 0.016888 0.161018 0.178577
  6 4.119403 -0.003182 -0.000049 0.014678 0.095670 0.247418
  7 4.120411 -0.002875 0.000995 -0.295116 -0.258548 0.638825
  8 4.443599 0.000000 -0.000000 0.751345 -0.166349 -0.797418
  9 9.024062 0.000001 -0.000001 0.000000 0.000000 0.000000
 10 0.443016 -0.483678 1.602710 1.078499 -2.077260 1.348668
 11 6.384776 0.000001 0.000000 -0.530579 0.550034 -1.679309
 12 10.242683 -0.000000 -0.000000 -0.000000 0.000000 -0.558090
 13 11.375561 0.000000 0.000001 2.842590 -0.239988 -0.488128
 14 0.728681 0.023431 -1.008292 1.210021 0.600764 0.006085
 15 2.136497 -0.000001 0.000001 0.000000 -0.000000 -0.078540
 16 2.313139 0.000000 0.000000 0.000000 0.000000 0.000000
 17 3.115506 -0.886040 -0.021431 -0.620285 0.000392 0.514872
 18 2.011151 -0.000000 -0.000000 -0.000000 0.000000 1.322792
 19 2.141380 -0.000000 -0.000001 0.000000 0.000000 0.000000
 20 1.734172 -0.000000 -0.000001 -0.000000 -0.000000 0.660693
 21 0.000007 -4.440593 0.000000 1.570544 -0.062990 -0.195737
 22 6.000000 0.000000 0.000000 -3.118836 -0.000000 0.000000
 23 0.000000 -4.440600 0.000001 1.569944 -0.062987 0.004053
 24 11.375561 0.000001 0.000004 -2.514075 0.025380 -0.331051
 25 -0.000001 -4.440602 0.000000 1.570144 -0.062988 0.004040
 26 10.510132 -0.000000 -0.000000 -0.000000 -0.000000 -1.849841
 27 0.000000 -1.748400 4.999998 0.000000 0.004007 1.602290
 28 5.500001 -0.000000 -0.000000 0.100679 -0.000000 0.000000
 29 0.000001 -1.940598 5.000000 -0.044472 0.004003 -0.000180
 30 6.551490 0.000000 -0.000001 -0.379958 0.569088 -1.154207
 31 0.000001 -1.940599 5.000001 -0.027189 -0.053376 0.005295
 32 6.551490 0.000000 -0.000001 -0.064787 0.278997 -0.422283
 33 0.000000 -1.940601 4.999995 -0.066572 -0.152786 -0.110311
 34 -0.443013 0.490754 -1.602710 -0.140907 0.707739 2.423980
 35 6.384776 -0.000000 0.000001 -0.602131 -0.183397 -0.160532
 36 10.242682 -0.000003 0.000001 0.000000 0.000000 -1.957655
 37 11.375560 0.000001 -0.000001 1.875760 0.243809 0.021546
 38 0.728681 0.023431 1.008293 -1.579583 -0.319038 0.212973
 39 2.136497 0.000000 -0.000000 -0.000000 0.000000 1.282817
 40 2.313140 -0.000000 0.000000 0.000000 0.000000 3.141593
 41 3.115507 -0.886041 0.021431 0.420766 0.316066 0.167178
 42 2.011151 -0.000000 -0.000000 -0.000000 -0.000000 2.082010
 43 2.141379 0.000000 -0.000000 0.000000 0.000000 3.141593
 44 1.734174 -0.000002 -0.000000 0.000000 -0.000000 1.041748
 45 0.136314 -3.738192 2.525890 1.493698 2.759406 -1.474501
 46 5.613159 0.862366 3.157031 1.595152 -0.135386 0.061522
 47 11.389365 -0.000817 0.158780 1.721849 0.136460 0.001036
 48 0.000001 -4.440599 0.000000 1.570144 -3.078602 0.004040
 49 6.000000 0.000002 -0.000000 1.721849 -0.000000 0.000000
 50 0.000000 -4.440601 0.000001 1.569944 -3.078603 0.004053
 51 10.510130 -0.000000 0.000002 -0.000000 0.000000 -2.549623
 52 0.000000 -1.748401 -5.000001 -3.141593 0.004007 -1.539299
 53 5.500000 -0.000002 0.000001 0.194627 -0.000000 -0.000000
 54 0.000000 -0.000000 -4.999999 -0.044472 3.137590 -0.000177
 55 6.551491 -0.000000 0.000001 -0.194627 -0.076831 -0.126057
 56 -1.266844 -1.937442 -4.950558 -0.066572 -2.988806 -0.110308
 57 6.551491 0.000000 0.000001 -0.194627 -0.076831 -0.126057
 58 0.699369 -1.944210 -5.006847 -0.027189 -3.088217 0.005298
 59 4.226146 -0.003201 0.000001 -0.126239 -0.152785 0.317456
 60 -0.000000 5.000001 -0.000001 -0.153564 0.000087 2.718702
 61 0.000004 -0.000005 -3.713579 0.095503 -3.012510 -0.750673
 62 0.000003 0.000001 4.999999 3.053197 1.558589 -0.074927
 63 -0.000007 0.000005 3.713580 -0.334410 -2.825096 -0.524885
 64 0.000001 -0.000000 -4.999999 -0.088726 1.558589 3.066334
 65 7.363603 1.646647 0.495663 -3.141593 -1.570796 0.000000
 66 -0.000006 0.000005 3.619081 -0.528284 -2.367383 -1.007256
 67 16.573921 -0.000001 0.000001 -0.000000 0.000000 -2.019199
 68 15.128181 0.000001 -0.000002 0.031619 0.086785 -0.033197
 69 5.758664 4.244731 -0.000000 0.000000 -0.000000 2.033309
 70 3.177726 0.000001 0.000000 0.000000 0.000000 3.141593
 71 15.708951 0.000002 -0.000003 0.016155 0.048356 -0.018185
 72 0.275149 0.189215 -3.445208 3.130898 0.000409 -1.514604
 73 17.210192 -0.000002 0.000002 0.000000 -0.000000 -2.322356
 74 0.000001 -0.000000 -5.000000 -0.079430 1.546568 -1.570856
 75 0.000006 -0.000005 -3.619080 0.196495 -3.011952 -1.279118
 76 16.573921 0.000000 0.000000 -0.000000 0.000000 -1.611348
 77 15.128181 -0.000002 0.000000 0.214418 -0.027533 0.774389
 78 5.758665 4.244730 -0.000000 -0.000000 -0.000000 1.483530
 79 4.003934 0.000000 0.000001 0.000000 0.000000 0.000000
 80 15.708953 -0.000001 0.000000 0.153371 0.002792 0.528179
 81 0.273998 0.191089 3.439762 -3.130907 -0.000437 -1.508107
 82 17.210192 0.000000 0.000000 0.000000 -0.000000 -2.138823
 83 0.000001 0.000001 5.000000 -0.079311 1.595025 -1.570737
time 6
  0 1.130557 9.712686 27.009436 -0.281436 0.436358 -2.443536
  1 11.368429 6.770639 -23.418964 -0.498313 0.132926 2.346876
  2 -2.276934 0.000003 -1.238187 -1.570795 -1.570451 0.000000
  3 1.796626 0.711841 -0.000179 0.057049 -0.319704 -0.176486
  4 4.119291 -0.003207 -0.000042 0.012379 0.096183 0.212460
  5 4.119177 -0.003228 -0.000055 0.016888 0.161018 0.178577
  6 4.119399 -0.003179 -0.000047 0.014678 0.095670 0.247418
  7 4.120408 -0.002875 0.000995 -0.295116 -0.258548 0.638825
  8 4.443598 -0.000002 -0.000002 0.753364 -0.167450 -0.798005
  9 9.024061 -0.000002 -0.000001 0.000000 0.000000 0.000000
 10 0.443016 -0.483681 1.602708 1.078499 -2.077260 1.348668
 11 6.384775 0.000000 0.000001 -0.573660 0.566037 -1.662373
 12 10.242681 0.000000 -0.000000 -0.000000 -0.000000 -0.593536
 13 11.375562 0.000000 0.000001 2.881715 -0.203924 -0.481500
 14 0.728681 0.023431 -1.008291 1.210021 0.600763 0.006085
 15 2.136497 -0.000000 -0.000002 0.000000 -0.000000 -0.078540
 16 2.313139 0.000000 0.000001 0.000000 0.000000 0.000000
 17 3.115507 -0.886042 -0.021431 -0.620285 0.000392 0.514872
 18 2.011150 0.000000 -0.000000 0.000000 0.000000 1.322792
 19 2.141381 -0.000001 -0.000000 0.000000 0.000000 0.000000
 20 1.734172 0.000000 -0.000000 -0.000000 0.000000 0.660693
 21 0.000006 -4.440594 0.000000 1.570544 -0.062990 -0.195737
 22 6.000000 0.000000 0.000001 -3.079545 0.000000 -0.000000
 23 0.000002 -4.440602 0.000001 1.569944 -0.062987 0.004053
 24 11.375562 0.000001 0.000004 -2.494032 0.037836 -0.316286
 25 -0.000001 -4.440602 0.000001 1.570144 -0.062988 0.004040
 26 10.510129 0.000000 -0.000000 -0.000000 0.000000 -1.867564
 27 0.000001 -1.748401 4.999999 0.000000 0.004007 1.602290
 28 5.500000 0.000000 -0.000000 0.102211 -0.000000 0.000000
 29 -0.000002 -1.940599 5.000000 -0.044472 0.004003 -0.000180
 30 6.551490 -0.000001 0.000000 -0.384078 0.587607 -1.120529
 31 -0.000002 -1.940598 5.000000 -0.027189 -0.053376 0.005295
 32 6.551490 -0.000001 0.000000 -0.066227 0.287905 -0.410406
 33 0.000000 -1.940599 4.999995 -0.066572 -0.152786 -0.110311
 34 -0.443013 0.490751 -1.602712 -0.126320 0.709175 2.437917
 35 6.384776 -0.000002 0.000002 -0.602171 -0.191907 -0.187536
 36 10.242681 -0.000001 0.000001 -0.000000 -0.000000 -1.949768
 37 11.375561 0.000002 0.000001 1.876232 0.242915 0.022952
 38 0.728680 0.023431 1.008292 -1.579583 -0.319038 0.212973
 39 2.136497 0.000001 -0.000000 -0.000000 0.000000 1.282817
 40 2.313139 0.000000 0.000000 0.000000 0.000000 3.141593
 41 3.115505 -0.886041 0.021431 0.420765 0.316066 0.167178
 42 2.011149 -0.000000 0.000000 -0.000000 -0.000000 2.082010
 43 2.141379 0.000001 -0.000000 0.000000 0.000000 3.141593
 44 1.734172 -0.000001 -0.000001 -0.000000 -0.000000 1.041748
 45 0.136314 -3.738192 2.525890 1.493698 2.759406 -1.474501
 46 5.613158 0.862366 3.157030 1.595152 -0.135386 0.061522
 47 11.389365 -0.000818 0.158782 1.722063 0.136035 0.001866
 48 -0.000000 -4.440599 0.000000 1.570144 -3.078602 0.004040
 49 5.999999 -0.000000 0.000000 1.722063 0.000000 -0.000000
 50 -0.000000 -4.440601 0.000001 1.569944 -3.078603 0.004053
 51 10.510129 -0.000000 0.000001 0.000000 -0.000000 -2.545680
 52 0.000000 -1.748401 -5.000000 3.141593 0.004007 -1.539299
 53 5.499999 -0.000000 0.000000 0.193260 -0.000000 0.000000
 54 0.000000 0.000000 -4.999999 -0.044472 3.137590 -0.000177
 55 6.551490 -0.000000 0.000001 -0.193260 -0.075216 -0.137968
 56 -1.266844 -1.937444 -4.950560 -0.066572 -2.988806 -0.110308
 57 6.551490 -0.000000 0.000000 -0.193260 -0.075216 -0.137968
 58 0.699370 -1.944209 -5.006847 -0.027189 -3.088217 0.005298
 59 4.226145 -0.003203 0.000000 -0.126239 -0.152785 0.317456
 60 -0.000000 5.000001 -0.000000 -0.153564 0.000087 2.718702
 61 0.000004 -0.000005 -3.713579 0.095503 -3.012510 -0.750673
 62 0.000003 0.000001 4.999999 3.053197 1.558589 -0.074927
 63 -0.000007 0.000005 3.713580 -0.334410 -2.825096 -0.524885
 64 0.000001 -0.000000 -4.999999 -0.088726 1.558589 3.066334
 65 7.363603 1.646647 0.495663 -3.141593 -1.570796 0.000000
 66 -0.000006 0.000005 3.619081 -0.528284 -2.367383 -1.007256
 67 16.573921 -0.000001 0.000001 -0.000000 0.000000 -2.019199
 68 15.128181 0.000001 -0.000002 0.031619 0.086785 -0.033197
 69 5.758664 4.244731 -0.000000 0.000000 -0.000000 2.033309
 70 3.177726 0.000001 0.000000 0.000000 0.000000 3.141593
 71 15.708951 0.000002 -0.000003 0.016155 0.048356 -0.018185
 72 0.275149 0.189215 -3.445208 3.130898 0.000409 -1.514604
 73 17.210192 -0.000002 0.000002 0.000000 -0.000000 -2.322356
 74 0.000001 -0.000000 -5.000000 -0.079430 1.546568 -1.570856
 75 0.000006 -0.000005 -3.619080 0.196495 -3.011952 -1.279118
 76 16.573921 0.000000 0.000000 -0.000000 0.000000 -1.611348
 77 15.128181 -0.000002 0.000000 0.214418 -0.027533 0.774389
 78 5.758665 4.244730 -0.000000 -0.000000 -0.000000 1.483530
 79 4.003934 0.000000 0.000001 0.000000 0.000000 0.000000
 80 15.708953 -0.000001 0.000000 0.153371 0.002792 0.528179
 81 0.273998 0.191089 3.439762 -3.130907 -0.000437 -1.508107
 82 17.210192 0.000000 0.000000 0.000000 -0.000000 -2.138823
 83 0.000001 0.000001 5.000000 -0.079311 1.595025 -1.570737
time 7
  0 1.130557 9.712686 27.009436 -0.281436 0.436358 -2.443536
  1 11.368429 6.770639 -23.418964 -0.498313 0.132926 2.346876
  2 -2.276934 0.000003 -1.238187 -1.570795 -1.570451 0.000000
  3 1.796623 0.711840 -0.000164 0.051884 -0.319406 -0.175976
  4 4.119290 -0.003206 -0.000040 0.012379 0.096183 0.212460
  5 4.119180 -0.003229 -0.000056 0.016888 0.161018 0.178577
  6 4.119403 -0.003180 -0.000048 0.014678 0.095670 0.247418
  7 4.120410 -0.002874 0.000995 -0.295116 -0.258548 0.638825
  8 4.443599 -0.000001 -0.000000 0.757810 -0.169870 -0.799305
  9 9.024061 0.000000 -0.000001 0.000000 0.000000 0.000000
 10 0.443016 -0.483681 1.602709 1.078499 -2.077260 1.348668
 11 6.384776 -0.000002 -0.000001 -0.614837 0.585791 -1.646548
 12 10.242683 0.000000 -0.000000 -0.000000 -0.000000 -0.630457
 13 11.375561 0.000000 0.000001 2.919835 -0.172397 -0.472714
 14 0.728680 0.023431 -1.008292 1.210021 0.600763 0.006085
 15 2.136497 0.000000 -0.000001 0.000000 -0.000000 -0.078540
 16 2.313139 -0.000000 0.000001 0.000000 0.000000 0.000000
 17 3.115506 -0.886041 -0.021431 -0.620285 0.000392 0.514872
 18 2.011151 0.000000 0.000001 0.000000 -0.000000 1.322792
 19 2.141381 -0.000000 0.000000 0.000000 0.000000 0.000000
 20 1.734172 0.000001 0.000001 -0.000000 0.000000 0.660693
 21 0.000005 -4.440594 -0.000000 1.570544 -0.062990 -0.195737
 22 6.000000 0.000001 0.000000 -3.041554 -0.000000 -0.000000
 23 0.000002 -4.440600 0.000001 1.569944 -0.062987 0.004053
 24 11.375562 0.000002 0.000004 -2.474206 0.047664 -0.302251
 25 -0.000001 -4.440603 -0.000000 1.570144 -0.062988 0.004040
 26 10.510130 0.000000 -0.000001 0.000000 -0.000000 -1.886025
 27 0.000001 -1.748400 4.999999 -0.000000 0.004007 1.602291
 28 5.500000 0.000000 -0.000000 0.102163 -0.000000 0.000000
 29 -0.000003 -1.940599 5.000000 -0.044472 0.004003 -0.000180
 30 6.551490 -0.000001 -0.000001 -0.385499 0.606277 -1.089898
 31 -0.000001 -1.940600 5.000001 -0.027189 -0.053376 0.005295
 32 6.551490 -0.000001 -0.000001 -0.066377 0.296348 -0.399043
 33 -0.000002 -1.940598 4.999998 -0.066572 -0.152786 -0.110311
 34 -0.443013 0.490754 -1.602710 -0.110233 0.709270 2.453360
 35 6.384776 -0.000001 0.000001 -0.604949 -0.192330 -0.215842
 36 10.242682 -0.000002 0.000001 -0.000000 -0.000000 -1.940885
 37 11.375559 0.000001 0.000000 1.880724 0.243773 0.020505
 38 0.728682 0.023431 1.008292 -1.579583 -0.319038 0.212973
 39 2.136497 -0.000001 -0.000000 0.000000 0.000000 1.282817
 40 2.313140 0.000000 0.000000 0.000000 0.000000 3.141593
 41 3.115507 -0.886041 0.021432 0.420765 0.316066 0.167178
 42 2.011152 -0.000001 0.000000 0.000000 -0.000000 2.082010
 43 2.141380 0.000001 -0.000000 0.000000 0.000000 3.141593
 44 1.734173 -0.000001 -0.000000 0.000000 -0.000000 1.041748
 45 0.136314 -3.738193 2.525891 1.493698 2.759406 -1.474501
 46 5.613161 0.862366 3.157032 1.595152 -0.135386 0.061522
 47 11.389366 -0.000818 0.158781 1.724335 0.136429 0.000263
 48 0.000002 -4.440599 0.000001 1.570144 -3.078602 0.004040
 49 5.999998 0.000000 -0.000000 1.724335 0.000000 0.000000
 50 -0.000001 -4.440601 0.000001 1.569944 -3.078603 0.004053
 51 10.510130 0.000000 0.000001 -0.000000 0.000000 -2.541239
 52 -0.000000 -1.748399 -5.000001 -3.141593 0.004007 -1.539299
 53 5.500000 -0.000001 0.000001 0.193413 0.000000 -0.000000
 54 -0.000000 -0.000003 -5.000000 -0.044472 3.137590 -0.000177
 55 6.551490 -0.000001 0.000001 -0.193413 -0.069298 -0.149134
 56 -1.266844 -1.937442 -4.950561 -0.066572 -2.988806 -0.110308
 57 6.551490 -0.000001 0.000001 -0.193413 -0.069298 -0.149134
 58 0.699370 -1.944207 -5.006848 -0.027189 -3.088217 0.005298
 59 4.226147 -0.003202 -0.000000 -0.126239 -0.152785 0.317456
 60 0.000000 5.000002 0.000001 -0.153564 0.000087 2.718702
 61 0.000004 -0.000005 -3.713579 0.095503 -3.012510 -0.750673
 62 0.000003 0.000001 4.999999 3.053197 1.558589 -0.074927
 63 -0.000007 0.000005 3.713580 -0.334410 -2.825096 -0.524885
 64 0.000001 -0.000000 -4.999999 -0.088726 1.558589 3.066334
 65 7.363603 1.646647 0.495663 -3.141593 -1.570796 0.000000
 66 -0.000006 0.000005 3.619081 -0.528284 -2.367383 -1.007256
 67 16.573921 -0.000001 0.000001 -0.000000 0.000000 -2.019199
 68 15.128181 0.000001 -0.000002 0.031619 0.086785 -0.033197
 69 5.758664 4.244731 -0.000000 0.000000 -0.000000 2.033309
 70 3.177726 0.000001 0.000000 0.000000 0.000000 3.141593
 71 15.708951 0.000002 -0.000003 0.016155 0.048356 -0.018185
 72 0.275149 0.189215 -3.445208 3.130898 0.000409 -1.514604
 73 17.210192 -0.000002 0.000002 0.000000 -0.000000 -2.322356
 74 0.000001 -0.000000 -5.000000 -0.079430 1.546568 -1.570856
 75 0.000006 -0.000005 -3.619080 0.196495 -3.011952 -1.279118
 76 16.573921 0.000000 0.000000 -0.000000 0.000000 -1.611348
 77 15.128181 -0.000002 0.000000 0.214418 -0.027533 0.774389
 78 5.758665 4.244730 -0.000000 -0.000000 -0.000000 1.483530
 79 4.003934 0.000000 0.000001 0.000000 0.000000 0.000000
 80 15.708953 -0.000001 0.000000 0.153371 0.002792 0.528179
 81 0.273998 0.191089 3.439762 -3.130907 -0.000437 -1.508107
 82 17.210192 0.000000 0.000000 0.000000 -0.000000 -2.138823
 83 0.000001 0.000001 5.000000 -0.079311 1.595025 -1.570737
time 8
  0 1.130557 9.712686 27.009436 -0.281436 0.436358 -2.443536
  1 11.368429 6.770639 -23.418964 -0.498313 0.132926 2.346876
  2 -2.276934 0.000003 -1.238187 -1.570795 -1.570451 0.000000
  3 1.796619 0.711840 -0.000147 0.046720 -0.319106 -0.175468
  4 4.119289 -0.003206 -0.000041 0.012379 0.096183 0.212460
  5 4.119176 -0.003227 -0.000053 0.016888 0.161018 0.178577
  6 4.119402 -0.003181 -0.000048 0.014678 0.095670 0.247418
  7 4.120410 -0.002875 0.000994 -0.295116 -0.258548 0.638825
  8 4.443599 -0.000003 -0.000001 0.762261 -0.172283 -0.800617
  9 9.024060 -0.000002 -0.000001 0.000000 0.000000 0.000000
 10 0.443016 -0.483683 1.602708 1.078499 -2.077260 1.348668
 11 6.384776 0.000001 0.000000 -0.650806 0.600309 -1.639087
 12 10.242684 0.000000 -0.000000 0.000000 0.000000 -0.650178
 13 11.375561 -0.000000 0.000000 2.948879 -0.146948 -0.470023
 14 0.728680 0.023431 -1.008292 1.210021 0.600763 0.006085
 15 2.136497 -0.000001 0.000002 -0.000000 -0.000000 -0.078540
 16 2.313139 0.000000 -0.000000 0.000000 0.000000 0.000000
 17 3.115506 -0.886040 -0.021431 -0.620285 0.000392 0.514872
 18 2.011151 0.000001 0.000001 0.000000 -0.000000 1.322792
 19 2.141378 0.000000 -0.000001 0.000000 0.000000 0.000000
 20 1.734172 0.000001 -0.000000 -0.000000 -0.000000 0.660693
 21 0.000005 -4.440594 -0.000000 1.570544 -0.062990 -0.195737
 22 6.000000 -0.000001 -0.000000 -3.013199 0.000000 -0.000000
 23 0.000000 -4.440600 0.000000 1.569944 -0.062987 0.004053
 24 11.375562 0.000001 0.000003 -2.459053 0.057211 -0.293274
 25 -0.000000 -4.440603 0.000000 1.570144 -0.062988 0.004040
 26 10.510132 0.000001 -0.000001 -0.000000 0.000000 -1.895886
 27 0.000000 -1.748401 4.999998 0.000000 0.004007 1.602291
 28 5.500000 -0.000000 -0.000000 0.103290 -0.000000 0.000000
 29 -0.000002 -1.940599 5.000001 -0.044472 0.004003 -0.000180
 30 6.551490 0.000001 0.000001 -0.390704 0.620370 -1.074138
 31 -0.000003 -1.940599 5.000002 -0.027189 -0.053376 0.005295
 32 6.551490 0.000001 0.000001 -0.067260 0.302833 -0.391817
 33 -0.000001 -1.940599 4.999997 -0.066572 -0.152786 -0.110311
 34 -0.443013 0.490754 -1.602710 -0.100238 0.709211 2.462948
 35 6.384776 0.000001 -0.000000 -0.606521 -0.193351 -0.237315
 36 10.242680 -0.000002 0.000001 -0.000000 0.000000 -1.932722
 37 11.375563 0.000002 -0.000001 1.884061 0.243731 0.019479
 38 0.728680 0.023431 1.008293 -1.579583 -0.319038 0.212973
 39 2.136497 -0.000000 -0.000001 -0.000000 0.000000 1.282817
 40 2.313138 0.000000 0.000000 0.000000 0.000000 3.141593
 41 3.115506 -0.886042 0.021431 0.420765 0.316066 0.167178
 42 2.011151 -0.000000 -0.000000 0.000000 -0.000000 2.082010
 43 2.141380 -0.000000 0.000000 0.000000 0.000000 3.141593
 44 1.734173 -0.000002 -0.000001 0.000000 -0.000000 1.041748
 45 0.136314 -3.738193 2.525891 1.493698 2.759406 -1.474501
 46 5.613159 0.862365 3.157030 1.595152 -0.135386 0.061522
 47 11.389367 -0.000818 0.158780 1.726013 0.136385 -0.000442
 48 0.000002 -4.440599 0.000001 1.570144 -3.078602 0.004040
 49 6.000001 0.000002 -0.000001 1.726013 -0.000000 -0.000000
 50 0.000004 -4.440601 0.000001 1.569944 -3.078603 0.004053
 51 10.510131 -0.000003 0.000003 -0.000000 0.000000 -2.537157
 52 0.000000 -1.748400 -5.000001 -3.141593 0.004007 -1.539299
 53 5.500000 -0.000003 0.000001 0.193567 0.000000 -0.000000
 54 -0.000001 -0.000000 -5.000000 -0.044472 3.137589 -0.000177
 55 6.551490 0.000001 0.000000 -0.193567 -0.065263 -0.156859
 56 -1.266844 -1.937445 -4.950560 -0.066572 -2.988806 -0.110308
 57 6.551490 0.000001 0.000000 -0.193567 -0.065263 -0.156859
 58 0.699370 -1.944210 -5.006846 -0.027189 -3.088217 0.005298
 59 4.226147 -0.003202 -0.000001 -0.126239 -0.152785 0.317456
 60 0.000000 4.999999 0.000001 -0.153564 0.000087 2.718702
 61 0.000004 -0.000005 -3.713579 0.095503 -3.012510 -0.750673
 62 0.000003 0.000001 4.999999 3.053197 1.558589 -0.074927
 63 -0.000007 0.000005 3.713580 -0.334410 -2.825096 -0.524885
 64 0.000001 -0.000000 -4.999999 -0.088726 1.558589 3.066334
 65 7.363603 1.646647 0.495663 -3.141593 -1.570796 0.000000
 66 -0.000006 0.000005 3.619081 -0.528284 -2.367383 -1.007256
 67 16.573921 -0.000001 0.000001 -0.000000 0.000000 -2.019199
 68 15.128181 0.000001 -0.000002 0.031619 0.086785 -0.033197
 69 5.758664 4.244731 -0.000000 0.000000 -0.000000 2.033309
 70 3.177726 0.000001 0.000000 0.000000 0.000000 3.141593
 71 15.708951 0.000002 -0.000003 0.016155 0.048356 -0.018185
 72 0.275149 0.189215 -3.445208 3.130898 0.000409 -1.514604
 73 17.210192 -0.000002 0.000002 0.000000 -0.000000 -2.322356
 74 0.000001 -0.000000 -5.000000 -0.079430 1.546568 -1.570856
 75 0.000006 -0.000005 -3.619080 0.196495 -3.011952 -1.279118
 76 16.573921 0.000000 0.000000 -0.000000 0.000000 -1.611348
 77 15.128181 -0.000002 0.000000 0.214418 -0.027533 0.774389
 78 5.758665 4.244730 -0.000000 -0.000000 -0.000000 1.483530
 79 4.003934 0.000000 0.000001 0.000000 0.000000 0.000000
 80 15.708953 -0.000001 0.000000 0.153371 0.002792 0.528179
 81 0.273998 0.191089 3.439762 -3.130907 -0.000437 -1.508107
 82 17.210192 0.000000 0.000000 0.000000 -0.000000 -2.138823
 83 0.000001 0.000001 5.000000 -0.079311 1.595025 -1.570737
time 9
  0 1.130557 9.712686 27.009436 -0.281436 0.436358 -2.443536
  1 11.368429 6.770639 -23.418964 -0.498313 0.132926 2.346876
  2 -2.276934 0.000003 -1.238187 -1.570795 -1.570451 0.000000
  3 1.796618 0.711839 -0.000140 0.044373 -0.318969 -0.175238
  4 4.119289 -0.003206 -0.000040 0.012379 0.096183 0.212460
  5 4.119174 -0.003227 -0.000054 0.016888 0.161018 0.178577
  6 4.119401 -0.003181 -0.000048 0.014678 0.095670 0.247418
  7 4.120411 -0.002877 0.000994 -0.295116 -0.258548 0.638825
  8 4.443598 -0.000002 -0.000001 0.764285 -0.173378 -0.801217
  9 9.024061 -0.000000 -0.000001 0.000000 0.000000 0.000000
 10 0.443016 -0.483682 1.602709 1.078499 -2.077260 1.348668
 11 6.384776 -0.000001 -0.000001 -0.674013 0.605527 -1.639769
 12 10.242681 0.000000 -0.000000 -0.000000 -0.000000 -0.652094
 13 11.375561 0.000001 0.000001 2.964900 -0.131671 -0.472797
 14 0.728681 0.023433 -1.008292 1.210021 0.600763 0.006086
 15 2.136496 -0.000000 -0.000000 -0.000000 -0.000000 -0.078540
 16 2.313139 -0.000000 0.000000 0.000000 0.000000 0.000000
 17 3.115506 -0.886040 -0.021432 -0.620285 0.000392 0.514872
 18 2.011150 -0.000000 -0.000001 0.000000 -0.000000 1.322792
 19 2.141380 0.000000 0.000001 0.000000 0.000000 0.000000
 20 1.734172 0.000001 -0.000000 -0.000000 0.000000 0.660693
 21 0.000005 -4.440594 0.000000 1.570544 -0.062990 -0.195737
 22 6.000000 0.000001 0.000001 -2.997922 0.000000 -0.000000
 23 0.000002 -4.440601 0.000001 1.569944 -0.062987 0.004053
 24 11.375561 0.000001 0.000004 -2.450690 0.064306 -0.290064
 25 -0.000000 -4.440603 0.000002 1.570144 -0.062988 0.004040
 26 10.510130 0.000001 -0.000001 -0.000000 0.000000 -1.896843
 27 0.000001 -1.748401 4.999998 0.000000 0.004007 1.602290
 28 5.499999 0.000000 -0.000000 0.105534 0.000000 -0.000000
 29 -0.000002 -1.940599 5.000000 -0.044472 0.004003 -0.000180
 30 6.551490 0.000001 0.000001 -0.398418 0.627341 -1.072816
 31 -0.000000 -1.940598 5.000001 -0.027189 -0.053376 0.005295
 32 6.551490 0.000001 0.000001 -0.068891 0.306321 -0.389468
 33 0.000000 -1.940599 4.999996 -0.066572 -0.152786 -0.110311
 34 -0.443013 0.490755 -1.602708 -0.096313 0.709153 2.466711
 35 6.384776 -0.000002 0.000000 -0.606247 -0.195754 -0.249141
 36 10.242682 -0.000002 0.000001 -0.000000 0.000000 -1.926129
 37 11.375560 0.000002 -0.000001 1.885313 0.243477 0.018860
 38 0.728681 0.023430 1.008292 -1.579583 -0.319039 0.212973
 39 2.136496 -0.000000 0.000000 -0.000000 0.000000 1.282817
 40 2.313138 0.000001 0.000000 0.000000 0.000000 3.141593
 41 3.115507 -0.886041 0.021431 0.420766 0.316066 0.167178
 42 2.011151 -0.000000 -0.000000 -0.000000 -0.000000 2.082010
 43 2.141380 -0.000000 0.000000 0.000000 0.000000 3.141593
 44 1.734173 -0.000001 -0.000000 0.000000 -0.000000 1.041748
 45 0.136315 -3.738192 2.525890 1.493698 2.759406 -1.474501
 46 5.613159 0.862365 3.157031 1.595152 -0.135386 0.061522
 47 11.389365 -0.000817 0.158780 1.726650 0.136233 -0.000828
 48 0.000002 -4.440598 -0.000000 1.570144 -3.078602 0.004040
 49 5.999999 0.000002 -0.000000 1.726650 -0.000000 0.000000
 50 0.000002 -4.440601 -0.000000 1.569944 -3.078603 0.004053
 51 10.510131 -0.000001 0.000001 -0.000000 -0.000000 -2.533861
 52 0.000001 -1.748402 -5.000000 -3.141593 0.004007 -1.539299
 53 5.500000 -0.000003 0.000001 0.193299 0.000000 0.000000
 54 -0.000001 0.000001 -5.000000 -0.044472 3.137590 -0.000177
 55 6.551490 -0.000001 0.000001 -0.193299 -0.064011 -0.160851
 56 -1.266843 -1.937443 -4.950560 -0.066572 -2.988806 -0.110308
 57 6.551490 -0.000001 0.000001 -0.193299 -0.064011 -0.160851
 58 0.699371 -1.944209 -5.006845 -0.027189 -3.088217 0.005298
 59 4.226146 -0.003203 -0.000000 -0.126239 -0.152785 0.317456
 60 -0.000001 5.000000 0.000001 -0.153564 0.000087 2.718702
 61 0.000004 -0.000005 -3.713579 0.095503 -3.012510 -0.750673
 62 0.000003 0.000001 4.999999 3.053197 1.558589 -0.074927
 63 -0.000007 0.000005 3.713580 -0.334410 -2.825096 -0.524885
 64 0.000001 -0.000000 -4.999999 -0.088726 1.558589 3.066334
 65 7.363603 1.646647 0.495663 -3.141593 -1.570796 0.000000
 66 -0.000006 0.000005 3.619081 -0.528284 -2.367383 -1.007256
 67 16.573921 -0.000001 0.000001 -0.000000 0.000000 -2.019199
 68 15.128181 0.000001 -0.000002 0.031619 0.086785 -0.033197
 69 5.758664 4.244731 -0.000000 0.000000 -0.000000 2.033309
 70 3.177726 0.000001 0.000000 0.000000 0.000000 3.141593
 71 15.708951 0.000002 -0.000003 0.016155 0.048356 -0.018185
 72 0.275149 0.189215 -3.445208 3.130898 0.000409 -1.514604
 73 17.210192 -0.000002 0.000002 0.000000 -0.000000 -2.322356
 74 0.000001 -0.000000 -5.000000 -0.079430 1.546568 -1.570856
 75 0.000006 -0.000005 -3.619080 0.196495 -3.011952 -1.279118
 76 16.573921 0.000000 0.000000 -0.000000 0.000000 -1.611348
 77 15.128181 -0.000002 0.000000 0.214418 -0.027533 0.774389
 78 5.758665 4.244730 -0.000000 -0.000000 -0.000000 1.483530
 79 4.003934 0.000000 0.000001 0.000000 0.000000 0.000000
 80 15.708953 -0.000001 0.000000 0.153371 0.002792 0.528179
 81 0.273998 0.191089 3.439762 -3.130907 -0.000437 -1.508107
 82 17.210192 0.000000 0.000000 0.000000 -0.000000 -2.138823
 83 0.000001 0.000001 5.000000 -0.079311 1.595025 -1.570737
time 10
  0 1.130557 9.712686 27.009436 -0.281436 0.436358 -2.443536
  1 11.368429 6.770639 -23.418964 -0.498313 0.132926 2.346876
  2 -2.276934 0.000003 -1.238187 -1.570795 -1.570451 0.000000
  3 1.796618 0.711839 -0.000140 0.044373 -0.318969 -0.175238
  4 4.119289 -0.003206 -0.000040 0.012379 0.096183 0.212460
  5 4.119174 -0.003227 -0.000054 0.016888 0.161018 0.178577
  6 4.119401 -0.003181 -0.000048 0.014678 0.095670 0.247418
  7 4.120411 -0.002877 0.000994 -0.295116 -0.258548 0.638825
  8 4.443598 -0.000002 -0.000001 0.764285 -0.173378 -0.801217
  9 9.024061 -0.000000 -0.000001 0.000000 0.000000 0.000000
 10 0.443016 -0.483682 1.602709 1.078499 -2.077260 1.348668
 11 6.384776 -0.000001 -0.000001 -0.678239 0.604474 -1.641889
 12 10.242682 -0.000000 0.000000 -0.000000 -0.000000 -0.648855
 13 11.375560 0.000001 0.000001 2.968625 -0.130216 -0.475246
 14 0.728681 0.023431 -1.008292 1.210021 0.600763 0.006085
 15 2.136497 -0.000000 0.000000 0.000000 -0.000000 -0.078540
 16 2.313139 -0.000000 0.000000 0.000000 0.000000 0.000000
 17 3.115507 -0.886042 -0.021432 -0.620285 0.000392 0.514872
 18 2.011151 0.000001 0.000000 0.000000 -0.000000 1.322792
 19 2.141379 -0.000000 0.000000 0.000000 0.000000 0.000000
 20 1.734173 0.000001 -0.000000 0.000000 -0.000000 0.660693
 21 0.000006 -4.440594 -0.000001 1.570544 -0.062990 -0.195737
 22 5.999999 0.000000 0.000001 -2.994510 0.000000 -0.000000
 23 0.000002 -4.440601 0.000000 1.569944 -0.062987 0.004053
 24 11.375562 0.000002 0.000004 -2.448833 0.065292 -0.290707
 25 0.000001 -4.440603 0.000001 1.570144 -0.062988 0.004040
 26 10.510131 0.000000 -0.000000 0.000000 -0.000000 -1.895224
 27 0.000001 -1.748401 4.999998 -0.000000 0.004007 1.602290
 28 5.499999 -0.000000 0.000000 0.106645 -0.000000 -0.000000
 29 -0.000004 -1.940599 5.000000 -0.044472 0.004003 -0.000180
 30 6.551490 0.000001 0.000001 -0.401648 0.627639 -1.075817
 31 0.000002 -1.940599 5.000001 -0.027189 -0.053376 0.005295
 32 6.551490 0.000001 0.000001 -0.069694 0.306664 -0.389921
 33 -0.000001 -1.940599 4.999997 -0.066572 -0.152786 -0.110311
 34 -0.443013 0.490755 -1.602708 -0.093250 0.708454 2.469678
 35 6.384776 0.000002 -0.000002 -0.606467 -0.194963 -0.255821
 36 10.242682 -0.000002 0.000001 -0.000000 -0.000000 -1.920475
 37 11.375562 0.000000 -0.000001 1.887206 0.244946 0.015126
 38 0.728680 0.023431 1.008293 -1.579583 -0.319038 0.212973
 39 2.136496 -0.000000 -0.000000 0.000000 0.000000 1.282817
 40 2.313139 0.000001 0.000000 0.000000 0.000000 3.141593
 41 3.115506 -0.886041 0.021431 0.420766 0.316066 0.167178
 42 2.011151 -0.000000 -0.000000 -0.000000 0.000000 2.082010
 43 2.141380 -0.000000 0.000000 0.000000 0.000000 3.141593
 44 1.734172 -0.000001 -0.000000 -0.000000 0.000000 1.041748
 45 0.136315 -3.738191 2.525890 1.493698 2.759406 -1.474501
 46 5.613159 0.862366 3.157031 1.595152 -0.135386 0.061522
 47 11.389366 -0.000819 0.158781 1.727654 0.136886 -0.003101
 48 0.000001 -4.440599 0.000000 1.570144 -3.078602 0.004040
 49 6.000000 0.000001 -0.000000 1.727654 -0.000000 0.000000
 50 0.000002 -4.440601 -0.000000 1.569944 -3.078603 0.004053
 51 10.510131 -0.000003 0.000002 0.000000 -0.000000 -2.531034
 52 -0.000000 -1.748399 -5.000000 -3.141593 0.004007 -1.539299
 53 5.500000 -0.000002 0.000000 0.193389 -0.000000 0.000000
 54 -0.000001 -0.000001 -5.000000 -0.044472 3.137590 -0.000177
 55 6.551490 0.000000 -0.000000 -0.193389 -0.062303 -0.163051
 56 -1.266843 -1.937443 -4.950559 -0.066572 -2.988806 -0.110308
 57 6.551491 0.000000 -0.000001 -0.193389 -0.062303 -0.163051
 58 0.699371 -1.944207 -5.006846 -0.027189 -3.088217 0.005298
 59 4.226146 -0.003203 -0.000000 -0.126239 -0.152785 0.317456
 60 -0.000001 5.000000 0.000001 -0.153564 0.000087 2.718702
 61 0.000004 -0.000005 -3.713579 0.095503 -3.012510 -0.750673
 62 0.000003 0.000001 4.999999 3.053197 1.558589 -0.074927
 63 -0.000007 0.000005 3.713580 -0.334410 -2.825096 -0.524885
 64 0.000001 -0.000000 -4.999999 -0.088726 1.558589 3.066334
 65 7.363603 1.646647 0.495663 -3.141593 -1.570796 0.000000
 66 -0.000006 0.000005 3.619081 -0.528284 -2.367383 -1.007256
 67 16.573921 -0.000001 0.000001 -0.000000 0.000000 -2.019199
 68 15.128181 0.000001 -0.000002 0.031619 0.086785 -0.033197
 69 5.758664 4.244731 -0.000000 0.000000 -0.000000 2.033309
 70 3.177726 0.000001 0.000000 0.000000 0.000000 3.141593
 71 15.708951 0.000002 -0.000003 0.016155 0.048356 -0.018185
 72 0.275149 0.189215 -3.445208 3.130898 0.000409 -1.514604
 73 17.210192 -0.000002 0.000002 0.000000 -0.000000 -2.322356
 74 0.000001 -0.000000 -5.000000 -0.079430 1.546568 -1.570856
 75 0.000006 -0.000005 -3.619080 0.196495 -3.011952 -1.279118
 76 16.573921 0.000000 0.000000 -0.000000 0.000000 -1.611348
 77 15.128181 -0.000002 0.000000 0.214418 -0.027533 0.774389
 78 5.758665 4.244730 -0.000000 -0.000000 -0.000000 1.483530
 79 4.003934 0.000000 0.000001 0.000000 0.000000 0.000000
 80 15.708953 -0.000001 0.000000 0.153371 0.002792 0.528179
 81 0.273998 0.191089 3.439762 -3.130907 -0.000437 -1.508107
 82 17.210192 0.000000 0.000000 0.000000 -0.000000 -2.138823
 83 0.000001 0.000001 5.000000 -0.079311 1.595025 -1.570737
time 11
  0 1.130557 9.712686 27.009436 -0.281436 0.436358 -2.443536
  1 11.368429 6.770639 -23.418964 -0.498313 0.132926 2.346876
  2 -2.276934 0.000003 -1.238187 -1.570795 -1.570451 0.000000
  3 1.796618 0.711839 -0.000140 0.044373 -0.318969 -0.175238
  4 4.119289 -0.003206 -0.000040 0.012379 0.096183 0.212460
  5 4.119174 -0.003227 -0.000054 0.016888 0.161018 0.178577
  6 4.119401 -0.003181 -0.000048 0.014678 0.095670 0.247418
  7 4.120411 -0.002877 0.000994 -0.295116 -0.258548 0.638825
  8 4.443598 -0.000002 -0.000001 0.764285 -0.173378 -0.801217
  9 9.024061 -0.000000 -0.000001 0.000000 0.000000 0.000000
 10 0.443016 -0.483682 1.602709 1.078499 -2.077260 1.348668
 11 6.384776 -0.000001 -0.000001 -0.668046 0.599997 -1.642915
 12 10.242684 0.000000 -0.000000 0.000000 -0.000000 -0.643196
 13 11.375561 -0.000001 0.000001 2.962860 -0.139516 -0.477373
 14 0.728681 0.023430 -1.008292 1.210021 0.600763 0.006086
 15 2.136496 0.000001 -0.000002 0.000000 -0.000000 -0.078540
 16 2.313139 0.000000 0.000000 0.000000 0.000000 0.000000
 17 3.115506 -0.886041 -0.021431 -0.620285 0.000392 0.514872
 18 2.011151 0.000000 -0.000000 -0.000000 -0.000000 1.322791
 19 2.141380 -0.000000 0.000000 0.000000 0.000000 0.000000
 20 1.734173 0.000001 0.000001 -0.000000 -0.000000 0.660693
 21 0.000005 -4.440593 -0.000001 1.570544 -0.062990 -0.195737
 22 6.000000 -0.000000 0.000001 -3.000240 -0.000000 0.000000
 23 0.000001 -4.440601 0.000000 1.569944 -0.062987 0.004053
 24 11.375560 -0.000001 0.000003 -2.452030 0.061514 -0.294272
 25 -0.000001 -4.440603 0.000000 1.570144 -0.062988 0.004040
 26 10.510132 0.000000 -0.000001 -0.000000 0.000000 -1.892394
 27 0.000001 -1.748402 4.999999 0.000000 0.004007 1.602290
 28 5.500000 -0.000000 -0.000000 0.106385 -0.000000 0.000000
 29 0.000000 -1.940599 5.000000 -0.044472 0.004003 -0.000180
 30 6.551490 0.000001 0.000001 -0.399807 0.623374 -1.078882
 31 -0.000001 -1.940598 5.000002 -0.027189 -0.053376 0.005295
 32 6.551490 0.000001 0.000001 -0.069526 0.304761 -0.391705
 33 0.000000 -1.940599 4.999997 -0.066572 -0.152786 -0.110311
 34 -0.443013 0.490755 -1.602708 -0.090816 0.707291 2.472060
 35 6.384776 -0.000000 -0.000001 -0.607429 -0.191397 -0.260585
 36 10.242680 0.000001 0.000000 -0.000000 0.000000 -1.915033
 37 11.375560 0.000003 0.000000 1.890088 0.247247 0.009914
 38 0.728680 0.023430 1.008293 -1.579583 -0.319038 0.212973
 39 2.136496 -0.000001 0.000000 -0.000000 -0.000000 1.282817
 40 2.313139 0.000001 0.000000 0.000000 0.000000 3.141593
 41 3.115506 -0.886041 0.021432 0.420766 0.316066 0.167178
 42 2.011151 -0.000000 -0.000000 0.000000 -0.000000 2.082010
 43 2.141380 0.000001 0.000000 0.000000 0.000000 3.141593
 44 1.734171 -0.000001 0.000000 -0.000000 0.000000 1.041748
 45 0.136314 -3.738192 2.525891 1.493698 2.759406 -1.474501
 46 5.613160 0.862366 3.157030 1.595152 -0.135386 0.061522
 47 11.389362 -0.000818 0.158780 1.729170 0.137926 -0.006294
 48 0.000002 -4.440598 -0.000000 1.570144 -3.078602 0.004040
 49 5.999998 0.000002 -0.000001 1.729170 -0.000000 0.000000
 50 0.000003 -4.440602 -0.000000 1.569944 -3.078603 0.004053
 51 10.510130 -0.000000 0.000001 0.000000 0.000000 -2.528313
 52 0.000000 -1.748399 -5.000001 3.141593 0.004007 -1.539299
 53 5.499998 0.000002 0.000000 0.193852 0.000000 -0.000000
 54 -0.000001 0.000002 -5.000000 -0.044472 3.137589 -0.000177
 55 6.551490 -0.000002 0.000000 -0.193852 -0.059665 -0.164612
 56 -1.266843 -1.937443 -4.950560 -0.066572 -2.988806 -0.110308
 57 6.551490 -0.000002 0.000000 -0.193852 -0.059665 -0.164612
 58 0.699370 -1.944208 -5.006847 -0.027189 -3.088217 0.005298
 59 4.226146 -0.003203 -0.000000 -0.126239 -0.152785 0.317456
 60 -0.000001 5.000000 0.000001 -0.153564 0.000087 2.718702
 61 0.000004 -0.000005 -3.713579 0.095503 -3.012510 -0.750673
 62 0.000003 0.000001 4.999999 3.053197 1.558589 -0.074927
 63 -0.000007 0.000005 3.713580 -0.334410 -2.825096 -0.524885
 64 0.000001 -0.000000 -4.999999 -0.088726 1.558589 3.066334
 65 7.363603 1.646647 0.495663 -3.141593 -1.570796 0.000000
 66 -0.000006 0.000005 3.619081 -0.528284 -2.367383 -1.007256
 67 16.573921 -0.000001 0.000001 -0.000000 0.000000 -2.019199
 68 15.128181 0.000001 -0.000002 0.031619 0.086785 -0.033197
 69 5.758664 4.244731 -0.000000 0.000000 -0.000000 2.033309
 70 3.177726 0.000001 0.000000 0.000000 0.000000 3.141593
 71 15.708951 0.000002 -0.000003 0.016155 0.048356 -0.018185
 72 0.275149 0.189215 -3.445208 3.130898 0.000409 -1.514604
 73 17.210192 -0.000002 0.000002 0.000000 -0.000000 -2.322356
 74 0.000001 -0.000000 -5.000000 -0.079430 1.546568 -1.570856
 75 0.000006 -0.000005 -3.619080 0.196495 -3.011952 -1.279118
 76 16.573921 0.000000 0.000000 -0.000000 0.000000 -1.611348
 77 15.128181 -0.000002 0.000000 0.214418 -0.027533 0.774389
 78 5.758665 4.244730 -0.000000 -0.000000 -0.000000 1.483530
 79 4.003934 0.000000 0.000001 0.000000 0.000000 0.000000
 80 15.708953 -0.000001 0.000000 0.153371 0.002792 0.528179
 81 0.273998 0.191089 3.439762 -3.130907 -0.000437 -1.508107
 82 17.210192 0.000000 0.000000 0.000000 -0.000000 -2.138823
 83 0.000001 0.000001 5.000000 -0.079311 1.595025 -1.570737
time 12
  0 1.130557 9.712686 27.009436 -0.281436 0.436358 -2.443536
  1 11.368429 6.770639 -23.418964 -0.498313 0.132926 2.346876
  2 -2.276934 0.000003 -1.238187 -1.570795 -1.570451 0.000000
  3 1.796618 0.711839 -0.000140 0.044373 -0.318969 -0.175238
  4 4.119289 -0.003206 -0.000040 0.012379 0.096183 0.212460
  5 4.119174 -0.003227 -0.000054 0.016888 0.161018 0.178577
  6 4.119401 -0.003181 -0.000048 0.014678 0.095670 0.247418
  7 4.120411 -0.002877 0.000994 -0.295116 -0.258548 0.638825
  8 4.443598 -0.000002 -0.000001 0.764285 -0.173378 -0.801217
  9 9.024061 -0.000000 -0.000001 0.000000 0.000000 0.000000
 10 0.443016 -0.483682 1.602709 1.078499 -2.077260 1.348668
 11 6.384776 -0.000001 -0.000001 -0.648317 0.593233 -1.643337
 12 10.242681 0.000000 -0.000000 -0.000000 -0.000000 -0.635949
 13 11.375559 0.000001 0.000002 2.950694 -0.155937 -0.479058
 14 0.728681 0.023431 -1.008292 1.210021 0.600763 0.006085
 15 2.136497 -0.000000 -0.000000 0.000000 -0.000000 -0.078540
 16 2.313139 0.000000 -0.000001 0.000000 0.000000 0.000000
 17 3.115506 -0.886040 -0.021432 -0.620285 0.000392 0.514872
 18 2.011151 0.000002 0.000000 0.000000 0.000000 1.322792
 19 2.141379 -0.000000 0.000000 0.000000 0.000000 0.000000
 20 1.734173 0.000001 -0.000000 -0.000000 0.000000 0.660693
 21 0.000006 -4.440593 -0.000001 1.570544 -0.062990 -0.195737
 22 6.000000 0.000001 0.000001 -3.012132 -0.000000 -0.000000
 23 0.000000 -4.440601 0.000000 1.569944 -0.062987 0.004053
 24 11.375561 0.000002 0.000005 -2.458574 0.054549 -0.299707
 25 -0.000000 -4.440604 0.000000 1.570144 -0.062988 0.004040
 26 10.510128 0.000000 -0.000001 0.000000 -0.000000 -1.888771
 27 0.000000 -1.748400 4.999999 0.000000 0.004007 1.602290
 28 5.499997 -0.000000 -0.000000 0.105194 -0.000000 0.000000
 29 0.000001 -1.940599 5.000000 -0.044472 0.004003 -0.000180
 30 6.551490 0.000001 0.000001 -0.394599 0.616009 -1.082238
 31 -0.000001 -1.940599 5.000000 -0.027189 -0.053376 0.005295
 32 6.551490 0.000001 0.000001 -0.068692 0.301320 -0.394432
 33 0.000000 -1.940601 4.999996 -0.066572 -0.152786 -0.110311
 34 -0.443013 0.490755 -1.602708 -0.088779 0.705838 2.474072
 35 6.384776 0.000001 -0.000002 -0.608883 -0.186125 -0.264174
 36 10.242681 -0.000005 0.000001 0.000000 0.000000 -1.909707
 37 11.375558 0.000001 -0.000001 1.893566 0.250090 0.003789
 38 0.728681 0.023431 1.008293 -1.579583 -0.319038 0.212973
 39 2.136497 -0.000000 -0.000000 -0.000000 0.000000 1.282817
 40 2.313138 0.000000 -0.000000 0.000000 0.000000 3.141593
 41 3.115507 -0.886042 0.021432 0.420766 0.316066 0.167178
 42 2.011149 -0.000000 0.000001 -0.000000 0.000000 2.082010
 43 2.141379 -0.000001 -0.000000 0.000000 0.000000 3.141593
 44 1.734172 -0.000001 0.000000 -0.000000 -0.000000 1.041748
 45 0.136315 -3.738192 2.525891 1.493698 2.759406 -1.474501
 46 5.613160 0.862365 3.157032 1.595152 -0.135386 0.061522
 47 11.389366 -0.000818 0.158780 1.730998 0.139216 -0.010052
 48 0.000001 -4.440599 0.000001 1.570144 -3.078602 0.004040
 49 5.999999 0.000000 -0.000001 1.730998 -0.000000 0.000000
 50 0.000003 -4.440601 -0.000000 1.569944 -3.078603 0.004053
 51 10.510132 -0.000004 0.000002 0.000000 -0.000000 -2.525650
 52 0.000001 -1.748399 -5.000001 -3.141593 0.004007 -1.539299
 53 5.499999 -0.000002 0.000000 0.194553 -0.000000 0.000000
 54 -0.000001 -0.000001 -4.999999 -0.044472 3.137589 -0.000177
 55 6.551490 -0.000002 0.000001 -0.194553 -0.056453 -0.165785
 56 -1.266843 -1.937443 -4.950559 -0.066572 -2.988806 -0.110308
 57 6.551491 -0.000002 0.000001 -0.194553 -0.056453 -0.165785
 58 0.699371 -1.944209 -5.006845 -0.027189 -3.088217 0.005298
 59 4.226146 -0.003203 -0.000000 -0.126239 -0.152785 0.317456
 60 -0.000001 5.000000 0.000001 -0.153564 0.000087 2.718702
 61 0.000004 -0.000005 -3.713579 0.095503 -3.012510 -0.750673
 62 0.000003 0.000001 4.999999 3.053197 1.558589 -0.074927
 63 -0.000007 0.000005 3.713580 -0.334410 -2.825096 -0.524885
 64 0.000001 -0.000000 -4.999999 -0.088726 1.558589 3.066334
 65 7.363603 1.646647 0.495663 -3.141593 -1.570796 0.000000
 66 -0.000006 0.000005 3.619081 -0.528284 -2.367383 -1.007256
 67 16.573921 -0.000001 0.000001 -0.000000 0.000000 -2.019199
 68 15.128181 0.000001 -0.000002 0.031619 0.086785 -0.033197
 69 5.758664 4.244731 -0.000000 0.000000 -0.000000 2.033309
 70 3.177726 0.000001 0.000000 0.000000 0.000000 3.141593
 71 15.708951 0.000002 -0.000003 0.016155 0.048356 -0.018185
 72 0.275149 0.189215 -3.445208 3.130898 0.000409 -1.514604
 73 17.210192 -0.000002 0.000002 0.000000 -0.000000 -2.322356
 74 0.000001 -0.000000 -5.000000 -0.079430 1.546568 -1.570856
 75 0.000006 -0.000005 -3.619080 0.196495 -3.011952 -1.279118
 76 16.573921 0.000000 0.000000 -0.000000 0.000000 -1.611348
 77 15.128181 -0.000002 0.000000 0.214418 -0.027533 0.774389
 78 5.758665 4.244730 -0.000000 -0.000000 -0.000000 1.483530
 79 4.003934 0.000000 0.000001 0.000000 0.000000 0.000000
 80 15.708953 -0.000001 0.000000 0.153371 0.002792 0.528179
 81 0.273998 0.191089 3.439762 -3.130907 -0.000437 -1.508107
 82 17.210192 0.000000 0.000000 0.000000 -0.000000 -2.138823
 83 0.000001 0.000001 5.000000 -0.079311 1.595025 -1.570737
time 13
  0 1.130557 9.712686 27.009436 -0.281436 0.436358 -2.443536
  1 11.368429 6.770639 -23.418964 -0.498313 0.132926 2.346876
  2 -2.276934 0.000003 -1.238187 -1.570795 -1.570451 0.000000
  3 1.796618 0.711839 -0.000140 0.044373 -0.318969 -0.175238
  4 4.119289 -0.003206 -0.000040 0.012379 0.096183 0.212460
  5 4.119174 -0.003227 -0.000054 0.016888 0.161018 0.178577
  6 4.119401 -0.003181 -0.000048 0.014678 0.095670 0.247418
  7 4.120411 -0.002877 0.000994 -0.295116 -0.258548 0.638825
  8 4.443598 -0.000002 -0.000001 0.764285 -0.173378 -0.801217
  9 9.024061 -0.000000 -0.000001 0.000000 0.000000 0.000000
 10 0.443016 -0.483682 1.602709 1.078499 -2.077260 1.348668
 11 6.384776 -0.000001 -0.000001 -0.623909 0.585302 -1.643605
 12 10.242680 0.000000 -0.000001 0.000000 -0.000000 -0.627973
 13 11.375562 0.000001 0.000001 2.935203 -0.175840 -0.480190
 14 0.728680 0.023431 -1.008292 1.210021 0.600763 0.006086
 15 2.136496 -0.000000 -0.000001 -0.000000 -0.000000 -0.078540
 16 2.313139 0.000000 0.000001 0.000000 0.000000 0.000000
 17 3.115506 -0.886042 -0.021431 -0.620285 0.000392 0.514872
 18 2.011150 0.000001 0.000001 0.000000 -0.000000 1.322792
 19 2.141379 -0.000001 0.000000 0.000000 0.000000 0.000000
 20 1.734172 0.000001 0.000001 0.000000 -0.000000 0.660693
 21 0.000005 -4.440593 -0.000000 1.570544 -0.062990 -0.195737
 22 6.000000 0.000001 0.000000 -3.027227 0.000000 -0.000000
 23 0.000001 -4.440601 0.000001 1.569944 -0.062987 0.004053
 24 11.375562 0.000001 0.000003 -2.466765 0.045976 -0.305974
 25 -0.000000 -4.440604 0.000000 1.570144 -0.062988 0.004040
 26 10.510128 0.000000 -0.000001 0.000000 0.000000 -1.884783
 27 0.000001 -1.748399 4.999999 0.000000 0.004007 1.602291
 28 5.499999 -0.000000 -0.000001 0.103491 -0.000000 0.000000
 29 -0.000003 -1.940599 5.000000 -0.044472 0.004003 -0.000180
 30 6.551490 0.000001 0.000001 -0.387683 0.606993 -1.086059
 31 0.000001 -1.940597 5.000001 -0.027189 -0.053376 0.005295
 32 6.551490 0.000001 0.000001 -0.067488 0.297039 -0.397708
 33 -0.000000 -1.940598 4.999996 -0.066572 -0.152786 -0.110311
 34 -0.443013 0.490755 -1.602708 -0.086904 0.704268 2.475932
 35 6.384776 0.000002 -0.000002 -0.610565 -0.180204 -0.267314
 36 10.242682 -0.000004 0.000001 -0.000000 -0.000000 -1.904400
 37 11.375559 0.000001 -0.000000 1.897254 0.253176 -0.002694
 38 0.728682 0.023431 1.008293 -1.579583 -0.319039 0.212973
 39 2.136497 -0.000001 -0.000000 0.000000 0.000000 1.282817
 40 2.313139 0.000000 0.000001 0.000000 0.000000 3.141593
 41 3.115507 -0.886041 0.021432 0.420765 0.316066 0.167178
 42 2.011151 -0.000000 0.000000 -0.000000 -0.000000 2.082010
 43 2.141380 -0.000000 -0.000001 0.000000 0.000000 3.141593
 44 1.734172 -0.000001 0.000000 -0.000000 -0.000000 1.041748
 45 0.136315 -3.738193 2.525891 1.493698 2.759406 -1.474501
 46 5.613160 0.862366 3.157032 1.595152 -0.135386 0.061522
 47 11.389366 -0.000818 0.158781 1.732936 0.140611 -0.014031
 48 0.000001 -4.440599 0.000000 1.570144 -3.078602 0.004040
 49 6.000000 0.000002 -0.000000 1.732936 -0.000000 0.000000
 50 0.000002 -4.440600 -0.000000 1.569944 -3.078603 0.004053
 51 10.510131 -0.000002 0.000002 0.000000 -0.000000 -2.522996
 52 0.000001 -1.748399 -5.000001 -3.141593 0.004007 -1.539299
 53 5.499999 -0.000002 0.000001 0.195362 -0.000000 -0.000000
 54 -0.000000 0.000000 -5.000000 -0.044472 3.137589 -0.000177
 55 6.551490 0.000001 -0.000001 -0.195362 -0.053025 -0.166795
 56 -1.266843 -1.937444 -4.950560 -0.066572 -2.988806 -0.110308
 57 6.551490 0.000001 -0.000001 -0.195362 -0.053025 -0.166795
 58 0.699370 -1.944209 -5.006847 -0.027189 -3.088217 0.005298
 59 4.226146 -0.003203 -0.000000 -0.126239 -0.152785 0.317456
 60 -0.000001 5.000000 0.000001 -0.153564 0.000087 2.718702
 61 0.000004 -0.000005 -3.713579 0.095503 -3.012510 -0.750673
 62 0.000003 0.000001 4.999999 3.053197 1.558589 -0.074927
 63 -0.000007 0.000005 3.713580 -0.334410 -2.825096 -0.524885
 64 0.000001 -0.000000 -4.999999 -0.088726 1.558589 3.066334
 65 7.363603 1.646647 0.495663 -3.141593 -1.570796 0.000000
 66 -0.000006 0.000005 3.619081 -0.528284 -2.367383 -1.007256
 67 16.573921 -0.000001 0.000001 -0.000000 0.000000 -2.019199
 68 15.128181 0.000001 -0.000002 0.031619 0.086785 -0.033197
 69 5.758664 4.244731 -0.000000 0.000000 -0.000000 2.033309
 70 3.177726 0.000001 0.000000 0.000000 0.000000 3.141593
 71 15.708951 0.000002 -0.000003 0.016155 0.048356 -0.018185
 72 0.275149 0.189215 -3.445208 3.130898 0.000409 -1.514604
 73 17.210192 -0.000002 0.000002 0.000000 -0.000000 -2.322356
 74 0.000001 -0.000000 -5.000000 -0.079430 1.546568 -1.570856
 75 0.000006 -0.000005 -3.619080 0.196495 -3.011952 -1.279118
 76 16.573921 0.000000 0.000000 -0.000000 0.000000 -1.611348
 77 15.128181 -0.000002 0.000000 0.214418 -0.027533 0.774389
 78 5.758665 4.244730 -0.000000 -0.000000 -0.000000 1.483530
 79 4.003934 0.000000 0.000001 0.000000 0.000000 0.000000
 80 15.708953 -0.000001 0.000000 0.153371 0.002792 0.528179
 81 0.273998 0.191089 3.439762 -3.130907 -0.000437 -1.508107
 82 17.210192 0.000000 0.000000 0.000000 -0.000000 -2.138823
 83 0.000001 0.000001 5.000000 -0.079311 1.595025 -1.570737
time 14
  0 1.130557 9.712686 27.009436 -0.281436 0.436358 -2.443536
  1 11.368429 6.770639 -23.418964 -0.498313 0.132926 2.346876
  2 -2.276934 0.000003 -1.238187 -1.570795 -1.570451 0.000000
  3 1.796618 0.711839 -0.000140 0.044373 -0.318969 -0.175238
  4 4.119289 -0.003206 -0.000040 0.012379 0.096183 0.212460
  5 4.119174 -0.003227 -0.000054 0.016888 0.161018 0.178577
  6 4.119401 -0.003181 -0.000048 0.014678 0.095670 0.247418
  7 4.120411 -0.002877 0.000994 -0.295116 -0.258548 0.638825
  8 4.443598 -0.000002 -0.000001 0.764285 -0.173378 -0.801217
  9 9.024061 -0.000000 -0.000001 0.000000 0.000000 0.000000
 10 0.443016 -0.483682 1.602709 1.078499 -2.077260 1.348668
 11 6.384776 -0.000001 -0.000001 -0.599569 0.577343 -1.643946
 12 10.242680 0.000000 -0.000001 -0.000000 -0.000000 -0.620197
 13 11.375560 0.000001 0.000001 2.919515 -0.195602 -0.480836
 14 0.728681 0.023432 -1.008292 1.210021 0.600763 0.006086
 15 2.136497 0.000000 0.000002 0.000000 -0.000000 -0.078540
 16 2.313138 0.000001 -0.000001 0.000000 0.000000 0.000000
 17 3.115506 -0.886039 -0.021431 -0.620285 0.000392 0.514872
 18 2.011150 -0.000001 -0.000001 0.000000 -0.000000 1.322792
 19 2.141379 -0.000000 0.000001 0.000000 0.000000 0.000000
 20 1.734172 0.000000 0.000000 0.000000 0.000000 0.660693
 21 0.000006 -4.440594 -0.000001 1.570544 -0.062990 -0.195737
 22 5.999999 0.000001 0.000001 -3.042511 0.000000 -0.000000
 23 0.000001 -4.440600 0.000001 1.569944 -0.062987 0.004053
 24 11.375561 0.000001 0.000004 -2.474929 0.037393 -0.312076
 25 -0.000001 -4.440603 0.000001 1.570144 -0.062988 0.004040
 26 10.510128 -0.000000 -0.000001 0.000000 -0.000000 -1.880895
 27 0.000001 -1.748401 4.999998 0.000000 0.004007 1.602291
 28 5.499999 -0.000000 -0.000000 0.101700 0.000000 -0.000000
 29 -0.000003 -1.940599 5.000000 -0.044472 0.004003 -0.000180
 30 6.551490 0.000001 0.000001 -0.380617 0.597802 -1.090172
 31 0.000000 -1.940597 5.000001 -0.027189 -0.053376 0.005295
 32 6.551490 0.000001 0.000001 -0.066215 0.292643 -0.401064
 33 -0.000001 -1.940599 4.999996 -0.066572 -0.152786 -0.110311
 34 -0.443013 0.490755 -1.602708 -0.084956 0.702752 2.477857
 35 6.384776 0.000002 -0.000003 -0.612209 -0.174677 -0.270711
 36 10.242681 -0.000002 0.000001 -0.000000 0.000000 -1.899035
 37 11.375561 0.000003 -0.000000 1.900779 0.256192 -0.008990
 38 0.728681 0.023431 1.008293 -1.579583 -0.319039 0.212973
 39 2.136496 0.000001 -0.000000 -0.000000 0.000000 1.282817
 40 2.313140 -0.000000 -0.000000 0.000000 0.000000 3.141593
 41 3.115507 -0.886041 0.021431 0.420766 0.316066 0.167178
 42 2.011150 -0.000000 0.000000 -0.000000 0.000000 2.082010
 43 2.141380 0.000000 -0.000000 0.000000 0.000000 3.141593
 44 1.734172 -0.000002 -0.000000 -0.000000 -0.000000 1.041748
 45 0.136315 -3.738193 2.525889 1.493698 2.759406 -1.474501
 46 5.613160 0.862366 3.157031 1.595152 -0.135386 0.061522
 47 11.389365 -0.000818 0.158780 1.734792 0.141966 -0.017889
 48 -0.000001 -4.440598 0.000001 1.570144 -3.078602 0.004040
 49 5.999998 -0.000000 -0.000001 1.734792 0.000000 0.000000
 50 0.000003 -4.440601 0.000000 1.569944 -3.078603 0.004053
 51 10.510131 -0.000002 0.000002 0.000000 0.000000 -2.520314
 52 -0.000001 -1.748401 -5.000000 3.141593 0.004007 -1.539299
 53 5.500000 -0.000003 0.000001 0.196145 0.000000 -0.000000
 54 -0.000000 -0.000003 -5.000000 -0.044472 3.137589 -0.000177
 55 6.551490 -0.000001 0.000001 -0.196145 -0.049742 -0.167861
 56 -1.266843 -1.937441 -4.950561 -0.066572 -2.988806 -0.110308
 57 6.551490 -0.000002 0.000001 -0.196145 -0.049742 -0.167861
 58 0.699371 -1.944208 -5.006847 -0.027189 -3.088217 0.005298
 59 4.226146 -0.003203 -0.000000 -0.126239 -0.152785 0.317456
 60 -0.000001 5.000000 0.000001 -0.153564 0.000087 2.718702
 61 0.000004 -0.000005 -3.713579 0.095503 -3.012510 -0.750673
 62 0.000003 0.000001 4.999999 3.053197 1.558589 -0.074927
 63 -0.000007 0.000005 3.713580 -0.334410 -2.825096 -0.524885
 64 0.000001 -0.000000 -4.999999 -0.088726 1.558589 3.066334
 65 7.363603 1.646647 0.495663 -3.141593 -1.570796 0.000000
 66 -0.000006 0.000005 3.619081 -0.528284 -2.367383 -1.007256
 67 16.573921 -0.000001 0.000001 -0.000000 0.000000 -2.019199
 68 15.128181 0.000001 -0.000002 0.031619 0.086785 -0.033197
 69 5.758664 4.244731 -0.000000 0.000000 -0.000000 2.033309
 70 3.177726 0.000001 0.000000 0.000000 0.000000 3.141593
 71 15.708951 0.000002 -0.000003 0.016155 0.048356 -0.018185
 72 0.275149 0.189215 -3.445208 3.130898 0.000409 -1.514604
 73 17.210192 -0.000002 0.000002 0.000000 -0.000000 -2.322356
 74 0.000001 -0.000000 -5.000000 -0.079430 1.546568 -1.570856
 75 0.000006 -0.000005 -3.619080 0.196495 -3.011952 -1.279118
 76 16.573921 0.000000 0.000000 -0.000000 0.000000 -1.611348
 77 15.128181 -0.000002 0.000000 0.214418 -0.027533 0.774389
 78 5.758665 4.244730 -0.000000 -0.000000 -0.000000 1.483530
 79 4.003934 0.000000 0.000001 0.000000 0.000000 0.000000
 80 15.708953 -0.000001 0.000000 0.153371 0.002792 0.528179
 81 0.273998 0.191089 3.439762 -3.130907 -0.000437 -1.508107
 82 17.210192 0.000000 0.000000 0.000000 -0.000000 -2.138823
 83 0.000001 0.000001 5.000000 -0.079311 1.595025 -1.570737
time 15
  0 1.130557 9.712686 27.009436 -0.281436 0.436358 -2.443536
  1 11.368429 6.770639 -23.418964 -0.498313 0.132926 2.346876
  2 -2.276934 0.000003 -1.238187 -1.570795 -1.570451 0.000000
  3 1.796618 0.711839 -0.000140 0.044373 -0.318969 -0.175238
  4 4.119289 -0.003206 -0.000040 0.012379 0.096183 0.212460
  5 4.119174 -0.003227 -0.000054 0.016888 0.161018 0.178577
  6 4.119401 -0.003181 -0.000048 0.014678 0.095670 0.247418
  7 4.120411 -0.002877 0.000994 -0.295116 -0.258548 0.638825
  8 4.443598 -0.000002 -0.000001 0.764285 -0.173378 -0.801217
  9 9.024061 -0.000000 -0.000001 0.000000 0.000000 0.000000
 10 0.443016 -0.483682 1.602709 1.078499 -2.077260 1.348668
 11 6.384776 -0.000001 -0.000001 -0.579924 0.570510 -1.644331
 12 10.242681 0.000000 -0.000001 0.000000 -0.000000 -0.613619
 13 11.375562 0.000001 0.000001 2.906861 -0.211630 -0.481321
 14 0.728681 0.023430 -1.008292 1.210021 0.600763 0.006085
 15 2.136497 -0.000000 0.000001 0.000000 -0.000000 -0.078540
 16 2.313139 0.000000 -0.000000 0.000000 0.000000 0.000000
 17 3.115506 -0.886041 -0.021431 -0.620285 0.000392 0.514872
 18 2.011151 0.000001 0.000000 0.000000 0.000000 1.322791
 19 2.141380 0.000000 -0.000000 0.000000 0.000000 0.000000
 20 1.734172 0.000001 -0.000001 0.000000 -0.000000 0.660693
 21 0.000007 -4.440593 -0.000000 1.570544 -0.062990 -0.195737
 22 5.999999 0.000000 0.000000 -3.054863 -0.000000 0.000000
 23 0.000002 -4.440601 0.000000 1.569944 -0.062987 0.004053
 24 11.375560 -0.000000 0.000004 -2.481433 0.030426 -0.317070
 25 -0.000000 -4.440603 0.000000 1.570144 -0.062988 0.004040
 26 10.510128 0.000000 -0.000001 0.000000 -0.000000 -1.877606
 27 0.000001 -1.748400 4.999998 0.000000 0.004007 1.602291
 28 5.499999 -0.000000 -0.000000 0.100280 0.000000 0.000000
 29 -0.000001 -1.940599 5.000001 -0.044472 0.004003 -0.000180
 30 6.551490 0.000001 0.000001 -0.374916 0.589981 -1.093941
 31 -0.000000 -1.940598 5.000001 -0.027189 -0.053376 0.005295
 32 6.551490 0.000001 0.000001 -0.065209 0.288911 -0.403930
 33 -0.000000 -1.940599 4.999995 -0.066572 -0.152786 -0.110311
 34 -0.443013 0.490755 -1.602708 -0.082699 0.701461 2.480063
 35 6.384776 0.000000 -0.000000 -0.613539 -0.170570 -0.275052
 36 10.242681 -0.000000 0.000002 -0.000000 0.000000 -1.893551
 37 11.375560 0.000001 -0.000002 1.903782 0.258814 -0.014555
 38 0.728682 0.023431 1.008292 -1.579583 -0.319039 0.212973
 39 2.136497 0.000001 -0.000000 0.000000 0.000000 1.282817
 40 2.313139 0.000001 -0.000000 0.000000 0.000000 3.141593
 41 3.115507 -0.886042 0.021432 0.420766 0.316066 0.167178
 42 2.011151 -0.000000 -0.000001 -0.000000 -0.000000 2.082010
 43 2.141380 0.000001 0.000000 0.000000 0.000000 3.141593
 44 1.734171 -0.000001 0.000000 -0.000000 0.000000 1.041748
 45 0.136315 -3.738193 2.525890 1.493698 2.759406 -1.474501
 46 5.613160 0.862365 3.157031 1.595152 -0.135386 0.061522
 47 11.389366 -0.000818 0.158780 1.736378 0.143131 -0.021289
 48 0.000001 -4.440598 0.000000 1.570144 -3.078602 0.004040
 49 5.999998 -0.000000 -0.000001 1.736378 -0.000000 0.000000
 50 0.000002 -4.440601 -0.000001 1.569944 -3.078603 0.004053
 51 10.510130 -0.000001 0.000002 -0.000000 -0.000000 -2.517572
 52 -0.000001 -1.748401 -5.000001 -3.141593 0.004007 -1.539299
 53 5.500000 0.000000 0.000001 0.196767 0.000000 -0.000000
 54 -0.000001 0.000001 -5.000000 -0.044472 3.137589 -0.000177
 55 6.551490 0.000001 -0.000000 -0.196767 -0.046969 -0.169194
 56 -1.266843 -1.937443 -4.950559 -0.066572 -2.988806 -0.110308
 57 6.551491 0.000000 -0.000000 -0.196767 -0.046969 -0.169194
 58 0.699371 -1.944209 -5.006845 -0.027189 -3.088217 0.005298
 59 4.226146 -0.003203 -0.000000 -0.126239 -0.152785 0.317456
 60 -0.000001 5.000000 0.000001 -0.153564 0.000087 2.718702
 61 0.000004 -0.000005 -3.713579 0.095503 -3.012510 -0.750673
 62 0.000003 0.000001 4.999999 3.053197 1.558589 -0.074927
 63 -0.000007 0.000005 3.713580 -0.334410 -2.825096 -0.524885
 64 0.000001 -0.000000 -4.999999 -0.088726 1.558589 3.066334
 65 7.363603 1.646647 0.495663 -3.141593 -1.570796 0.000000
 66 -0.000006 0.000005 3.619081 -0.528284 -2.367383 -1.007256
 67 16.573921 -0.000001 0.000001 -0.000000 0.000000 -2.019199
 68 15.128181 0.000001 -0.000002 0.031619 0.086785 -0.033197
 69 5.758664 4.244731 -0.000000 0.000000 -0.000000 2.033309
 70 3.177726 0.000001 0.000000 0.000000 0.000000 3.141593
 71 15.708951 0.000002 -0.000003 0.016155 0.048356 -0.018185
 72 0.275149 0.189215 -3.445208 3.130898 0.000409 -1.514604
 73 17.210192 -0.000002 0.000002 0.000000 -0.000000 -2.322356
 74 0.000001 -0.000000 -5.000000 -0.079430 1.546568 -1.570856
 75 0.000006 -0.000005 -3.619080 0.196495 -3.011952 -1.279118
 76 16.573921 0.000000 0.000000 -0.000000 0.000000 -1.611348
 77 15.128181 -0.000002 0.000000 0.214418 -0.027533 0.774389
 78 5.758665 4.244730 -0.000000 -0.000000 -0.000000 1.483530
 79 4.003934 0.000000 0.000001 0.000000 0.000000 0.000000
 80 15.708953 -0.000001 0.000000 0.153371 0.002792 0.528179
 81 0.273998 0.191089 3.439762 -3.130907 -0.000437 -1.508107
 82 17.210192 0.000000 0.000000 0.000000 -0.000000 -2.138823
 83 0.000001 0.000001 5.000000 -0.079311 1.595025 -1.570737
end
