version 1
nodes
  0 "Bip01"  -1
  1 "Bip01 Footsteps"   0
  2 "Bip01 Pelvis"   0
  3 "Bip01 Spine"   2
  4 "Bip01 Spine1"   3
  5 "Bip01 Spine2"   4
  6 "Bip01 Spine3"   5
  7 "Bip01 Neck"   6
  8 "Bip01 Head"   7
  9 "Dummy21"   8
 10 "Bip01 L Clavicle"   7
 11 "Bip01 L UpperArm"  10
 12 "Bip01 L Forearm"  11
 13 "Bip01 L Hand"  12
 14 "Bip01 L Finger0"  13
 15 "Bip01 L Finger01"  14
 16 "Dummy06"  15
 17 "Bip01 L Finger1"  13
 18 "Bip01 L Finger11"  17
 19 "Dummy03"  18
 20 "-- L knuckle"  17
 21 "-- L knuckle_end"  20
 22 "-- L Forearm twist"  12
 23 "-- L Forearm twist_end"  22
 24 "-- L wrist"  12
 25 "-- L wrist_end"  24
 26 "-- L Elbow"  11
 27 "--L Elbow_end"  26
 28 "-- L bicep twist"  11
 29 "-- L bicep twist_end"  28
 30 "-- L shoulder outside"  10
 31 "-- L shoulder outside_end"  30
 32 "-- L Shoulder inside"  10
 33 "-- L Shoulder inside_end"  32
 34 "Bip01 R Clavicle"   7
 35 "Bip01 R UpperArm"  34
 36 "Bip01 R Forearm"  35
 37 "Bip01 R Hand"  36
 38 "Bip01 R Finger0"  37
 39 "Bip01 R Finger01"  38
 40 "Dummy01"  39
 41 "Bip01 R Finger1"  37
 42 "Bip01 R Finger11"  41
 43 "Dummy02"  42
 44 "-- R knuckle"  41
 45 "Point06"  44
 46 "Line01"  37
 47 "-- R wrist"  36
 48 "-- R wrist_end"  47
 49 "-- R forearm twist"  36
 50 "-- R forearm twist_end"  49
 51 "-- R Elbow"  35
 52 "--R Elbow_end"  51
 53 "-- R bicep twist"  35
 54 "-- R bicep twist_end"  53
 55 "-- R Shoulder inside"  34
 56 "-- R Shoulder inside_end"  55
 57 "-- R shoulder outside"  34
 58 "-- R shoulder outside_end"  57
 59 "-- Neck smooth"   6
 60 "-- neck smooth end"  59
 61 "-- R Butt"   2
 62 "--R Butt_end"  61
 63 "-- L butt"   2
 64 "--L butt_end"  63
 65 "GIGN01"   2
 66 "Bip01 L Thigh"   2
 67 "Bip01 L Calf"  66
 68 "Bip01 L Foot"  67
 69 "Bip01 L Toe0"  68
 70 "Dummy16"  69
 71 "-- L ankle"  67
 72 "-- L ankleend"  71
 73 "-- L Knee"  66
 74 "--L Knee_end"  73
 75 "Bip01 R Thigh"   2
 76 "Bip01 R Calf"  75
 77 "Bip01 R Foot"  76
 78 "Bip01 R Toe0"  77
 79 "Dummy11"  78
 80 "-- R Ankle"  76
 81 "-- R ankleend"  80
 82 "-- R Knee"  75
 83 "--R Knee_end"  82
end
skeleton
time 0
  0 1.130557 9.712686 27.009436 -0.281436 0.436358 -2.443536
  1 11.368429 6.770639 -23.418964 -0.498313 0.132926 2.346876
  2 -2.276934 0.000003 -1.238187 -1.570795 -1.570451 0.000000
  3 1.796688 0.712110 -0.001331 0.475613 -0.485296 -0.388031
  4 4.119016 -0.003080 -0.001056 0.332197 0.169863 0.190701
  5 4.119012 -0.003244 0.000239 -0.076515 0.319819 0.102141
  6 4.119178 -0.003139 -0.000759 0.236877 0.163353 0.220271
  7 4.120410 -0.002877 0.000994 -0.286770 0.118046 0.526564
  8 4.443598 -0.000002 -0.000000 1.352807 -0.855685 -1.074685
  9 9.024060 0.000000 0.000000 0.000000 0.000000 0.000000
 10 -0.204067 -0.483163 1.650393 -1.441884 -0.874383 -2.312634
 11 6.384776 0.000001 -0.000000 -0.464369 1.223551 -1.395715
 12 10.242682 -0.000001 0.000001 0.000000 0.000000 -1.408322
 13 11.375561 -0.000001 -0.000001 2.883092 -0.987187 -0.383999
 14 0.728681 0.023431 -1.008292 1.210021 0.600763 0.006085
 15 2.136497 -0.000001 0.000002 0.000000 -0.000000 -0.078540
 16 2.313138 0.000000 -0.000000 0.000000 0.000000 0.000000
 17 3.115506 -0.886041 -0.021431 -0.620285 0.000392 0.514872
 18 2.011150 -0.000001 0.000001 -0.000000 -0.000000 1.322792
 19 2.141380 0.000000 0.000000 0.000000 0.000000 0.000000
 20 1.734172 -0.000000 -0.000000 0.000000 -0.000000 0.660693
 21 0.000005 -4.440594 0.000000 1.570544 -0.062990 -0.195737
 22 6.000000 0.000001 -0.000000 -3.038239 0.000000 -0.000000
 23 0.000002 -4.440601 0.000000 1.569944 -0.062987 0.004053
 24 11.375562 0.000000 0.000002 -2.411117 -0.389199 -0.471596
 25 -0.000001 -4.440603 0.000000 1.570144 -0.062988 0.004040
 26 10.510130 -0.000000 -0.000000 -0.000000 0.000000 -2.274957
 27 -0.000001 -1.748403 4.999999 0.000000 0.004007 1.602291
 28 5.499999 0.000001 -0.000000 -0.095994 -0.000000 0.000000
 29 -0.000002 -1.940597 5.000000 -0.044472 0.004003 -0.000180
 30 6.551491 0.000002 -0.000000 0.017739 0.924762 -0.632658
 31 0.000000 -1.940599 5.000000 -0.027189 -0.053376 0.005295
 32 6.551491 0.000002 -0.000000 0.088539 0.392364 -0.238494
 33 0.000000 -1.940598 4.999995 -0.066572 -0.152786 -0.110311
 34 0.204069 0.490240 -1.650393 3.015387 1.368937 -0.660052
 35 6.384776 -0.000003 0.000001 -0.160092 0.334895 -0.547221
 36 10.242682 0.000000 -0.000002 -0.000000 0.000000 -2.213972
 37 11.375562 -0.000000 0.000002 2.096984 -0.020339 -0.030407
 38 0.728680 0.023431 1.008293 -1.579583 -0.319038 0.212973
 39 2.136496 -0.000001 0.000000 0.000000 0.000000 1.282817
 40 2.313138 -0.000000 0.000000 0.000000 0.000000 3.141593
 41 3.115505 -0.886041 0.021432 0.420765 0.316066 0.167178
 42 2.011150 0.000000 0.000001 -0.000000 0.000000 2.082010
 43 2.141379 0.000000 -0.000000 0.000000 0.000000 3.141593
 44 1.734172 -0.000001 0.000000 0.000000 0.000000 1.041748
 45 0.136315 -3.738192 2.525890 1.493698 2.759406 -1.474501
 46 5.613160 0.862367 3.157031 1.595152 -0.135386 0.061522
 47 11.389368 -0.000819 0.158784 1.834075 -0.013877 -0.016116
 48 0.000001 -4.440599 -0.000000 1.570144 -3.078602 0.004040
 49 6.000001 0.000001 0.000002 1.834076 -0.000000 0.000000
 50 0.000000 -4.440601 -0.000002 1.569944 -3.078603 0.004053
 51 10.510131 -0.000001 -0.000001 0.000000 0.000000 -2.677782
 52 -0.000001 -1.748400 -5.000000 -3.141593 0.004007 -1.539299
 53 5.499999 -0.000000 -0.000001 0.035292 -0.000000 0.000000
 54 0.000001 0.000001 -5.000001 -0.044472 3.137590 -0.000177
 55 6.551490 -0.000002 -0.000000 -0.035292 0.125747 -0.218315
 56 -1.266843 -1.937442 -4.950558 -0.066572 -2.988806 -0.110308
 57 6.551490 -0.000002 0.000000 -0.035292 0.125747 -0.218315
 58 0.699371 -1.944208 -5.006844 -0.027189 -3.088217 0.005298
 59 4.226146 -0.003203 0.000000 -0.150144 0.041230 0.281891
 60 -0.000000 5.000001 0.000000 -0.153564 0.000087 2.718702
 61 0.000004 -0.000005 -3.713579 0.095503 -3.012510 -0.750673
 62 0.000003 0.000001 4.999999 3.053197 1.558589 -0.074927
 63 -0.000007 0.000005 3.713580 -0.334410 -2.825096 -0.524885
 64 0.000001 -0.000000 -4.999999 -0.088726 1.558589 3.066334
 65 7.363603 1.646647 0.495663 -3.141593 -1.570796 0.000000
 66 -0.000006 0.000005 3.619081 -0.528284 -2.367383 -1.007256
 67 16.573921 -0.000001 0.000001 -0.000000 0.000000 -2.019199
 68 15.128181 0.000001 -0.000002 0.031619 0.086785 -0.033197
 69 5.758664 4.244731 -0.000000 0.000000 -0.000000 2.033309
 70 3.177726 0.000001 0.000000 0.000000 0.000000 3.141593
 71 15.708951 0.000002 -0.000003 0.016155 0.048356 -0.018185
 72 0.275149 0.189215 -3.445208 3.130898 0.000409 -1.514604
 73 17.210192 -0.000002 0.000002 0.000000 -0.000000 -2.322356
 74 0.000001 -0.000000 -5.000000 -0.079430 1.546568 -1.570856
 75 0.000006 -0.000005 -3.619080 0.196495 -3.011952 -1.279118
 76 16.573921 0.000000 0.000000 -0.000000 0.000000 -1.611348
 77 15.128181 -0.000002 0.000000 0.214418 -0.027533 0.774389
 78 5.758665 4.244730 -0.000000 -0.000000 -0.000000 1.483530
 79 4.003934 0.000000 0.000001 0.000000 0.000000 0.000000
 80 15.708953 -0.000001 0.000000 0.153371 0.002792 0.528179
 81 0.273998 0.191089 3.439762 -3.130907 -0.000437 -1.508107
 82 17.210192 0.000000 0.000000 0.000000 -0.000000 -2.138823
 83 0.000001 0.000001 5.000000 -0.079311 1.595025 -1.570737
time 1
  0 1.130557 9.712686 27.009436 -0.281436 0.436358 -2.443536
  1 11.368429 6.770639 -23.418964 -0.498313 0.132926 2.346876
  2 -2.276934 0.000003 -1.238187 -1.570795 -1.570451 0.000000
  3 1.796688 0.712110 -0.001331 0.475613 -0.485296 -0.388031
  4 4.119003 -0.003064 -0.001099 0.346698 0.170157 0.190816
  5 4.119050 -0.003245 0.000191 -0.061342 0.304940 0.118060
  6 4.119177 -0.003139 -0.000759 0.236877 0.163353 0.220271
  7 4.120411 -0.002876 0.000994 -0.284971 -0.029892 0.570042
  8 4.443598 -0.000001 -0.000000 1.159547 -0.656839 -0.944669
  9 9.024062 -0.000003 0.000000 0.000000 0.000000 0.000000
 10 0.051785 -0.483367 1.662096 1.498112 -2.172195 0.989960
 11 6.384776 0.000001 0.000000 -0.507426 1.164442 -1.440107
 12 10.242682 0.000000 -0.000001 0.000000 0.000000 -1.335580
 13 11.375560 0.000001 0.000000 2.836344 -0.973243 -0.426477
 14 0.728680 0.023430 -1.008292 1.210021 0.600763 0.006085
 15 2.136497 -0.000000 0.000002 -0.000000 0.000000 -0.078540
 16 2.313138 -0.000001 -0.000001 0.000000 0.000000 0.000000
 17 3.115506 -0.886042 -0.021431 -0.620285 0.000392 0.514872
 18 2.011150 0.000001 0.000001 0.000000 0.000000 1.322792
 19 2.141380 -0.000000 -0.000000 0.000000 0.000000 0.000000
 20 1.734172 0.000001 0.000001 0.000000 0.000000 0.660693
 21 0.000005 -4.440593 0.000000 1.570544 -0.062990 -0.195737
 22 5.999998 -0.000000 -0.000000 -3.091849 -0.000000 -0.000000
 23 0.000002 -4.440602 -0.000000 1.569944 -0.062987 0.004053
 24 11.375560 0.000000 0.000002 -2.438563 -0.370337 -0.493583
 25 -0.000001 -4.440602 0.000000 1.570144 -0.062988 0.004040
 26 10.510132 0.000001 -0.000000 0.000000 -0.000000 -2.238587
 27 -0.000000 -1.748398 4.999999 0.000000 0.004007 1.602290
 28 5.500000 0.000000 0.000000 -0.075222 0.000000 0.000000
 29 -0.000001 -1.940599 5.000000 -0.044472 0.004003 -0.000180
 30 6.551490 -0.000001 -0.000001 -0.033447 0.898783 -0.683338
 31 0.000000 -1.940596 5.000001 -0.027189 -0.053376 0.005295
 32 6.551490 -0.000000 -0.000001 0.072600 0.385379 -0.254024
 33 0.000000 -1.940598 4.999994 -0.066572 -0.152786 -0.110311
 34 -0.051782 0.490444 -1.662096 2.233960 1.492886 -1.441539
 35 6.384776 -0.000003 0.000001 -0.173438 0.327982 -0.534617
 36 10.242682 -0.000001 -0.000000 -0.000000 0.000000 -2.256515
 37 11.375559 -0.000001 0.000002 2.072600 -0.012512 0.082991
 38 0.728681 0.023431 1.008291 -1.579583 -0.319038 0.212973
 39 2.136496 0.000000 0.000000 -0.000000 0.000000 1.282817
 40 2.313140 0.000000 0.000000 0.000000 0.000000 3.141593
 41 3.115505 -0.886041 0.021431 0.420766 0.316066 0.167178
 42 2.011151 0.000000 0.000000 0.000000 -0.000000 2.082010
 43 2.141380 -0.000000 0.000000 0.000000 0.000000 3.141593
 44 1.734174 -0.000001 -0.000001 0.000000 0.000000 1.041748
 45 0.136316 -3.738192 2.525890 1.493698 2.759406 -1.474501
 46 5.613159 0.862367 3.157031 1.595152 -0.135386 0.061522
 47 11.389365 -0.000820 0.158783 1.822004 -0.001148 0.049136
 48 -0.000001 -4.440599 0.000002 1.570144 -3.078602 0.004040
 49 5.999999 -0.000002 0.000000 1.822004 -0.000000 -0.000000
 50 0.000001 -4.440601 0.000000 1.569944 -3.078603 0.004053
 51 10.510132 0.000000 -0.000000 0.000000 0.000000 -2.699054
 52 0.000000 -1.748400 -5.000000 -3.141593 0.004007 -1.539299
 53 5.500000 -0.000000 -0.000000 0.040968 -0.000000 0.000000
 54 0.000000 -0.000001 -4.999998 -0.044472 3.137589 -0.000177
 55 6.551490 -0.000001 -0.000001 -0.040968 0.124244 -0.216229
 56 -1.266843 -1.937443 -4.950559 -0.066572 -2.988806 -0.110308
 57 6.551491 -0.000001 -0.000001 -0.040968 0.124244 -0.216229
 58 0.699371 -1.944209 -5.006845 -0.027189 -3.088217 0.005298
 59 4.226146 -0.003202 0.000000 -0.140794 -0.035738 0.297684
 60 -0.000000 5.000000 -0.000000 -0.153564 0.000087 2.718702
 61 0.000004 -0.000005 -3.713579 0.095503 -3.012510 -0.750673
 62 0.000003 0.000001 4.999999 3.053197 1.558589 -0.074927
 63 -0.000007 0.000005 3.713580 -0.334410 -2.825096 -0.524885
 64 0.000001 -0.000000 -4.999999 -0.088726 1.558589 3.066334
 65 7.363603 1.646647 0.495663 -3.141593 -1.570796 0.000000
 66 -0.000006 0.000005 3.619081 -0.528284 -2.367383 -1.007256
 67 16.573921 -0.000001 0.000001 -0.000000 0.000000 -2.019199
 68 15.128181 0.000001 -0.000002 0.031619 0.086785 -0.033197
 69 5.758664 4.244731 -0.000000 0.000000 -0.000000 2.033309
 70 3.177726 0.000001 0.000000 0.000000 0.000000 3.141593
 71 15.708951 0.000002 -0.000003 0.016155 0.048356 -0.018185
 72 0.275149 0.189215 -3.445208 3.130898 0.000409 -1.514604
 73 17.210192 -0.000002 0.000002 0.000000 -0.000000 -2.322356
 74 0.000001 -0.000000 -5.000000 -0.079430 1.546568 -1.570856
 75 0.000006 -0.000005 -3.619080 0.196495 -3.011952 -1.279118
 76 16.573921 0.000000 0.000000 -0.000000 0.000000 -1.611348
 77 15.128181 -0.000002 0.000000 0.214418 -0.027533 0.774389
 78 5.758665 4.244730 -0.000000 -0.000000 -0.000000 1.483530
 79 4.003934 0.000000 0.000001 0.000000 0.000000 0.000000
 80 15.708953 -0.000001 0.000000 0.153371 0.002792 0.528179
 81 0.273998 0.191089 3.439762 -3.130907 -0.000437 -1.508107
 82 17.210192 0.000000 0.000000 0.000000 -0.000000 -2.138823
 83 0.000001 0.000001 5.000000 -0.079311 1.595025 -1.570737
time 2
  0 1.130557 9.712686 27.009436 -0.281436 0.436358 -2.443536
  1 11.368429 6.770639 -23.418964 -0.498313 0.132926 2.346876
  2 -2.276934 0.000003 -1.238187 -1.570795 -1.570451 0.000000
  3 1.796688 0.712110 -0.001331 0.475613 -0.485296 -0.388031
  4 4.118991 -0.003048 -0.001145 0.362142 0.170652 0.191017
  5 4.119087 -0.003243 0.000142 -0.045546 0.288860 0.134658
  6 4.119175 -0.003136 -0.000759 0.236877 0.163353 0.220271
  7 4.120411 -0.002878 0.000994 -0.289656 -0.177767 0.613926
  8 4.443599 0.000003 -0.000000 1.015514 -0.447339 -0.890572
  9 9.024061 -0.000001 -0.000000 0.000000 0.000000 0.000000
 10 0.306399 -0.483569 1.634371 1.241594 -2.101635 1.206934
 11 6.384775 -0.000000 -0.000001 -0.547604 1.100979 -1.486979
 12 10.242685 -0.000001 0.000001 0.000000 0.000000 -1.256897
 13 11.375561 0.000000 -0.000001 2.791469 -0.961758 -0.471632
 14 0.728680 0.023430 -1.008292 1.210021 0.600763 0.006085
 15 2.136496 -0.000000 -0.000000 0.000000 0.000000 -0.078540
 16 2.313138 -0.000000 0.000000 0.000000 0.000000 0.000000
 17 3.115505 -0.886041 -0.021431 -0.620285 0.000392 0.514872
 18 2.011151 0.000001 0.000001 0.000000 -0.000000 1.322792
 19 2.141379 0.000000 -0.000000 0.000000 0.000000 0.000000
 20 1.734172 0.000001 0.000001 -0.000000 -0.000000 0.660693
 21 0.000004 -4.440594 0.000001 1.570544 -0.062990 -0.195737
 22 6.000001 0.000001 -0.000000 3.137581 -0.000000 -0.000000
 23 0.000002 -4.440602 -0.000001 1.569944 -0.062987 0.004053
 24 11.375562 0.000001 0.000003 -2.465806 -0.350675 -0.516537
 25 -0.000001 -4.440603 0.000000 1.570144 -0.062988 0.004040
 26 10.510133 -0.000000 -0.000000 0.000000 0.000000 -2.199245
 27 0.000001 -1.748403 4.999998 -0.000000 0.004007 1.602290
 28 5.500002 -0.000000 0.000000 -0.053108 0.000000 0.000000
 29 -0.000002 -1.940596 4.999999 -0.044472 0.004003 -0.000180
 30 6.551490 -0.000000 -0.000001 -0.087111 0.872671 -0.738908
 31 0.000001 -1.940601 5.000000 -0.027189 -0.053376 0.005295
 32 6.551490 -0.000000 -0.000001 0.055588 0.378273 -0.271193
 33 -0.000001 -1.940599 4.999995 -0.066572 -0.152786 -0.110311
 34 -0.306396 0.490651 -1.634370 0.760463 1.427744 -2.921364
 35 6.384776 0.000004 -0.000004 -0.186029 0.319928 -0.524168
 36 10.242682 0.000001 -0.000001 -0.000000 -0.000000 -2.295327
 37 11.375561 -0.000002 0.000002 2.047492 -0.003421 0.197276
 38 0.728680 0.023431 1.008292 -1.579583 -0.319038 0.212973
 39 2.136496 -0.000001 0.000000 -0.000000 0.000000 1.282817
 40 2.313140 -0.000000 0.000000 0.000000 0.000000 3.141593
 41 3.115506 -0.886040 0.021431 0.420765 0.316066 0.167178
 42 2.011151 0.000000 -0.000000 -0.000000 -0.000000 2.082010
 43 2.141380 -0.000001 -0.000000 0.000000 0.000000 3.141593
 44 1.734172 -0.000001 -0.000000 -0.000000 -0.000000 1.041748
 45 0.136315 -3.738193 2.525889 1.493698 2.759406 -1.474501
 46 5.613159 0.862368 3.157031 1.595152 -0.135386 0.061522
 47 11.389367 -0.000821 0.158784 1.809325 0.011439 0.113342
 48 -0.000001 -4.440599 0.000000 1.570144 -3.078602 0.004040
 49 6.000000 -0.000000 0.000002 1.809325 0.000000 -0.000000
 50 0.000000 -4.440602 0.000002 1.569944 -3.078603 0.004053
 51 10.510131 0.000002 -0.000001 -0.000000 0.000000 -2.718460
 52 0.000000 -1.748401 -5.000000 3.141593 0.004007 -1.539299
 53 5.500000 -0.000000 -0.000000 0.046391 -0.000000 -0.000000
 54 0.000001 -0.000002 -4.999999 -0.044472 3.137589 -0.000177
 55 6.551490 0.000002 -0.000002 -0.046391 0.122318 -0.214530
 56 -1.266843 -1.937445 -4.950558 -0.066572 -2.988806 -0.110308
 57 6.551491 0.000002 -0.000002 -0.046391 0.122318 -0.214530
 58 0.699371 -1.944209 -5.006846 -0.027189 -3.088217 0.005298
 59 4.226145 -0.003202 -0.000001 -0.131512 -0.111688 0.311011
 60 0.000001 4.999998 0.000000 -0.153564 0.000087 2.718702
 61 0.000004 -0.000005 -3.713579 0.095503 -3.012510 -0.750673
 62 0.000003 0.000001 4.999999 3.053197 1.558589 -0.074927
 63 -0.000007 0.000005 3.713580 -0.334410 -2.825096 -0.524885
 64 0.000001 -0.000000 -4.999999 -0.088726 1.558589 3.066334
 65 7.363603 1.646647 0.495663 -3.141593 -1.570796 0.000000
 66 -0.000006 0.000005 3.619081 -0.528284 -2.367383 -1.007256
 67 16.573921 -0.000001 0.000001 -0.000000 0.000000 -2.019199
 68 15.128181 0.000001 -0.000002 0.031619 0.086785 -0.033197
 69 5.758664 4.244731 -0.000000 0.000000 -0.000000 2.033309
 70 3.177726 0.000001 0.000000 0.000000 0.000000 3.141593
 71 15.708951 0.000002 -0.000003 0.016155 0.048356 -0.018185
 72 0.275149 0.189215 -3.445208 3.130898 0.000409 -1.514604
 73 17.210192 -0.000002 0.000002 0.000000 -0.000000 -2.322356
 74 0.000001 -0.000000 -5.000000 -0.079430 1.546568 -1.570856
 75 0.000006 -0.000005 -3.619080 0.196495 -3.011952 -1.279118
 76 16.573921 0.000000 0.000000 -0.000000 0.000000 -1.611348
 77 15.128181 -0.000002 0.000000 0.214418 -0.027533 0.774389
 78 5.758665 4.244730 -0.000000 -0.000000 -0.000000 1.483530
 79 4.003934 0.000000 0.000001 0.000000 0.000000 0.000000
 80 15.708953 -0.000001 0.000000 0.153371 0.002792 0.528179
 81 0.273998 0.191089 3.439762 -3.130907 -0.000437 -1.508107
 82 17.210192 0.000000 0.000000 0.000000 -0.000000 -2.138823
 83 0.000001 0.000001 5.000000 -0.079311 1.595025 -1.570737
time 3
  0 1.130557 9.712686 27.009436 -0.281436 0.436358 -2.443536
  1 11.368429 6.770639 -23.418964 -0.498313 0.132926 2.346876
  2 -2.276934 0.000003 -1.238187 -1.570795 -1.570451 0.000000
  3 1.796688 0.712110 -0.001331 0.475613 -0.485296 -0.388031
  4 4.118982 -0.003034 -0.001186 0.375703 0.170740 0.191060
  5 4.119120 -0.003240 0.000100 -0.031944 0.274512 0.148973
  6 4.119173 -0.003135 -0.000759 0.236877 0.163353 0.220271
  7 4.120411 -0.002877 0.000995 -0.295116 -0.258548 0.638825
  8 4.443599 -0.000001 -0.000000 0.935339 -0.328297 -0.885562
  9 9.024061 -0.000000 -0.000000 0.000000 0.000000 0.000000
 10 0.443016 -0.483677 1.602710 1.078499 -2.077260 1.348668
 11 6.384777 0.000001 0.000002 -0.566364 1.052919 -1.517942
 12 10.242680 0.000000 0.000000 0.000000 0.000000 -1.203436
 13 11.375564 0.000001 -0.000001 2.763055 -0.957129 -0.501060
 14 0.728680 0.023433 -1.008292 1.210021 0.600764 0.006085
 15 2.136497 -0.000000 0.000000 0.000000 0.000000 -0.078540
 16 2.313139 -0.000000 0.000000 0.000000 0.000000 0.000000
 17 3.115506 -0.886039 -0.021431 -0.620285 0.000392 0.514872
 18 2.011150 -0.000002 0.000000 0.000000 -0.000000 1.322792
 19 2.141380 -0.000000 0.000000 0.000000 0.000000 0.000000
 20 1.734172 0.000001 0.000000 0.000000 0.000000 0.660693
 21 0.000006 -4.440593 0.000001 1.570544 -0.062990 -0.195737
 22 6.000000 -0.000000 0.000000 3.102443 -0.000000 -0.000000
 23 0.000001 -4.440602 -0.000001 1.569944 -0.062987 0.004053
 24 11.375562 -0.000000 0.000003 -2.483135 -0.338415 -0.532059
 25 -0.000001 -4.440603 -0.000000 1.570144 -0.062988 0.004040
 26 10.510129 -0.000000 -0.000000 0.000000 0.000000 -2.172514
 27 0.000001 -1.748399 4.999997 -0.000000 0.004007 1.602290
 28 5.499999 -0.000000 0.000000 -0.037479 -0.000000 -0.000000
 29 0.000000 -1.940599 5.000000 -0.044472 0.004003 -0.000180
 30 6.551491 0.000000 0.000000 -0.123978 0.852420 -0.780124
 31 0.000001 -1.940598 5.000000 -0.027189 -0.053376 0.005295
 32 6.551491 0.000000 0.000000 0.043552 0.372474 -0.284449
 33 -0.000000 -1.940598 4.999995 -0.066572 -0.152786 -0.110311
 34 -0.443013 0.490754 -1.602710 0.552339 1.349968 -3.137014
 35 6.384777 0.000000 0.000000 -0.194383 0.309670 -0.511182
 36 10.242681 0.000002 -0.000002 0.000000 0.000000 -2.322683
 37 11.375561 0.000000 0.000002 2.026104 0.007161 0.273148
 38 0.728680 0.023431 1.008291 -1.579583 -0.319038 0.212973
 39 2.136497 0.000000 -0.000000 -0.000000 0.000000 1.282817
 40 2.313138 -0.000000 0.000000 0.000000 0.000000 3.141593
 41 3.115507 -0.886041 0.021430 0.420766 0.316066 0.167178
 42 2.011152 -0.000000 0.000000 0.000000 -0.000000 2.082010
 43 2.141380 -0.000000 0.000000 0.000000 0.000000 3.141593
 44 1.734173 -0.000001 0.000000 0.000000 -0.000000 1.041748
 45 0.136316 -3.738192 2.525890 1.493698 2.759406 -1.474501
 46 5.613161 0.862368 3.157030 1.595152 -0.135386 0.061522
 47 11.389365 -0.000820 0.158783 1.798330 0.021526 0.154052
 48 -0.000001 -4.440599 -0.000001 1.570144 -3.078602 0.004040
 49 5.999999 -0.000001 -0.000000 1.798330 -0.000000 -0.000000
 50 0.000002 -4.440600 -0.000002 1.569944 -3.078603 0.004053
 51 10.510132 -0.000001 -0.000000 -0.000000 -0.000000 -2.732138
 52 -0.000000 -1.748401 -5.000000 3.141593 0.004007 -1.539299
 53 5.500000 0.000000 -0.000001 0.050740 -0.000000 0.000000
 54 -0.000000 0.000000 -5.000000 -0.044472 3.137590 -0.000177
 55 6.551491 0.000001 -0.000000 -0.050740 0.119674 -0.212531
 56 -1.266843 -1.937443 -4.950559 -0.066572 -2.988806 -0.110308
 57 6.551491 0.000001 -0.000000 -0.050740 0.119674 -0.212531
 58 0.699371 -1.944210 -5.006845 -0.027189 -3.088217 0.005298
 59 4.226145 -0.003202 -0.000000 -0.126239 -0.152785 0.317456
 60 0.000000 5.000000 0.000000 -0.153564 0.000087 2.718702
 61 0.000004 -0.000005 -3.713579 0.095503 -3.012510 -0.750673
 62 0.000003 0.000001 4.999999 3.053197 1.558589 -0.074927
 63 -0.000007 0.000005 3.713580 -0.334410 -2.825096 -0.524885
 64 0.000001 -0.000000 -4.999999 -0.088726 1.558589 3.066334
 65 7.363603 1.646647 0.495663 -3.141593 -1.570796 0.000000
 66 -0.000006 0.000005 3.619081 -0.528284 -2.367383 -1.007256
 67 16.573921 -0.000001 0.000001 -0.000000 0.000000 -2.019199
 68 15.128181 0.000001 -0.000002 0.031619 0.086785 -0.033197
 69 5.758664 4.244731 -0.000000 0.000000 -0.000000 2.033309
 70 3.177726 0.000001 0.000000 0.000000 0.000000 3.141593
 71 15.708951 0.000002 -0.000003 0.016155 0.048356 -0.018185
 72 0.275149 0.189215 -3.445208 3.130898 0.000409 -1.514604
 73 17.210192 -0.000002 0.000002 0.000000 -0.000000 -2.322356
 74 0.000001 -0.000000 -5.000000 -0.079430 1.546568 -1.570856
 75 0.000006 -0.000005 -3.619080 0.196495 -3.011952 -1.279118
 76 16.573921 0.000000 0.000000 -0.000000 0.000000 -1.611348
 77 15.128181 -0.000002 0.000000 0.214418 -0.027533 0.774389
 78 5.758665 4.244730 -0.000000 -0.000000 -0.000000 1.483530
 79 4.003934 0.000000 0.000001 0.000000 0.000000 0.000000
 80 15.708953 -0.000001 0.000000 0.153371 0.002792 0.528179
 81 0.273998 0.191089 3.439762 -3.130907 -0.000437 -1.508107
 82 17.210192 0.000000 0.000000 0.000000 -0.000000 -2.138823
 83 0.000001 0.000001 5.000000 -0.079311 1.595025 -1.570737
time 4
  0 1.130557 9.712686 27.009436 -0.281436 0.436358 -2.443536
  1 11.368429 6.770639 -23.418964 -0.498313 0.132926 2.346876
  2 -2.276934 0.000003 -1.238187 -1.570795 -1.570451 0.000000
  3 1.796688 0.712110 -0.001331 0.475613 -0.485296 -0.388031
  4 4.118976 -0.003025 -0.001213 0.384554 0.169822 0.190685
  5 4.119142 -0.003237 0.000073 -0.023144 0.264974 0.158248
  6 4.119177 -0.003137 -0.000760 0.236877 0.163353 0.220271
  7 4.120410 -0.002879 0.000994 -0.296903 -0.279590 0.645481
  8 4.443598 0.000000 -0.000000 0.903626 -0.292342 -0.889512
  9 9.024061 -0.000000 -0.000000 0.000000 0.000000 0.000000
 10 0.478163 -0.483706 1.592568 1.033890 -2.072850 1.387726
 11 6.384776 0.000001 0.000000 -0.579782 1.034850 -1.533471
 12 10.242682 -0.000001 -0.000000 0.000000 0.000000 -1.182773
 13 11.375562 0.000002 -0.000001 2.748459 -0.948052 -0.518321
 14 0.728680 0.023432 -1.008292 1.210021 0.600763 0.006085
 15 2.136497 -0.000001 -0.000000 0.000000 -0.000000 -0.078540
 16 2.313138 -0.000000 0.000000 0.000000 0.000000 0.000000
 17 3.115506 -0.886039 -0.021432 -0.620285 0.000392 0.514872
 18 2.011151 0.000000 0.000000 0.000000 -0.000000 1.322792
 19 2.141379 -0.000000 0.000000 0.000000 0.000000 0.000000
 20 1.734173 0.000001 0.000000 0.000000 0.000000 0.660693
 21 0.000005 -4.440594 -0.000000 1.570544 -0.062990 -0.195737
 22 5.999999 -0.000000 -0.000001 3.082958 -0.000000 0.000000
 23 0.000001 -4.440600 0.000000 1.569944 -0.062987 0.004053
 24 11.375560 0.000000 0.000002 -2.493907 -0.327795 -0.539043
 25 -0.000001 -4.440604 0.000001 1.570144 -0.062988 0.004040
 26 10.510132 -0.000001 -0.000000 -0.000000 0.000000 -2.162183
 27 0.000000 -1.748399 4.999999 0.000000 0.004007 1.602291
 28 5.500001 -0.000001 -0.000000 -0.030645 0.000000 0.000000
 29 -0.000003 -1.940596 5.000000 -0.044472 0.004003 -0.000180
 30 6.551491 0.000000 -0.000001 -0.141028 0.846386 -0.798352
 31 0.000000 -1.940597 5.000001 -0.027189 -0.053376 0.005295
 32 6.551491 0.000000 -0.000001 0.038310 0.370966 -0.289704
 33 0.000001 -1.940598 4.999995 -0.066572 -0.152786 -0.110311
 34 -0.478161 0.490784 -1.592569 0.505474 1.329042 3.095767
 35 6.384776 0.000000 -0.000001 -0.200777 0.298608 -0.502266
 36 10.242682 -0.000003 -0.000000 0.000000 -0.000000 -2.334513
 37 11.375558 -0.000003 0.000001 2.011631 0.016310 0.303140
 38 0.728681 0.023431 1.008293 -1.579583 -0.319038 0.212973
 39 2.136497 0.000000 0.000000 -0.000000 0.000000 1.282817
 40 2.313139 0.000000 0.000000 0.000000 0.000000 3.141593
 41 3.115506 -0.886041 0.021432 0.420766 0.316066 0.167178
 42 2.011151 0.000000 -0.000001 0.000000 0.000000 2.082010
 43 2.141380 -0.000001 0.000001 0.000000 0.000000 3.141593
 44 1.734172 -0.000001 -0.000000 -0.000000 0.000000 1.041748
 45 0.136315 -3.738191 2.525890 1.493698 2.759406 -1.474501
 46 5.613160 0.862368 3.157032 1.595152 -0.135386 0.061522
 47 11.389365 -0.000821 0.158783 1.790795 0.027790 0.169431
 48 0.000000 -4.440599 -0.000001 1.570144 -3.078602 0.004040
 49 5.999999 -0.000001 0.000001 1.790795 -0.000000 0.000000
 50 0.000001 -4.440602 0.000001 1.569944 -3.078603 0.004053
 51 10.510132 -0.000001 -0.000001 0.000000 0.000000 -2.738053
 52 -0.000002 -1.748397 -5.000000 3.141593 0.004007 -1.539299
 53 5.500000 -0.000003 0.000000 0.054225 -0.000000 0.000000
 54 0.000001 -0.000000 -5.000000 -0.044472 3.137590 -0.000177
 55 6.551490 -0.000000 -0.000001 -0.054226 0.116616 -0.211324
 56 -1.266843 -1.937446 -4.950558 -0.066572 -2.988806 -0.110308
 57 6.551490 -0.000000 -0.000001 -0.054226 0.116616 -0.211324
 58 0.699371 -1.944208 -5.006846 -0.027189 -3.088217 0.005298
 59 4.226146 -0.003205 -0.000001 -0.124830 -0.163456 0.319055
 60 0.000000 4.999999 -0.000000 -0.153564 0.000087 2.718702
 61 0.000004 -0.000005 -3.713579 0.095503 -3.012510 -0.750673
 62 0.000003 0.000001 4.999999 3.053197 1.558589 -0.074927
 63 -0.000007 0.000005 3.713580 -0.334410 -2.825096 -0.524885
 64 0.000001 -0.000000 -4.999999 -0.088726 1.558589 3.066334
 65 7.363603 1.646647 0.495663 -3.141593 -1.570796 0.000000
 66 -0.000006 0.000005 3.619081 -0.528284 -2.367383 -1.007256
 67 16.573921 -0.000001 0.000001 -0.000000 0.000000 -2.019199
 68 15.128181 0.000001 -0.000002 0.031619 0.086785 -0.033197
 69 5.758664 4.244731 -0.000000 0.000000 -0.000000 2.033309
 70 3.177726 0.000001 0.000000 0.000000 0.000000 3.141593
 71 15.708951 0.000002 -0.000003 0.016155 0.048356 -0.018185
 72 0.275149 0.189215 -3.445208 3.130898 0.000409 -1.514604
 73 17.210192 -0.000002 0.000002 0.000000 -0.000000 -2.322356
 74 0.000001 -0.000000 -5.000000 -0.079430 1.546568 -1.570856
 75 0.000006 -0.000005 -3.619080 0.196495 -3.011952 -1.279118
 76 16.573921 0.000000 0.000000 -0.000000 0.000000 -1.611348
 77 15.128181 -0.000002 0.000000 0.214418 -0.027533 0.774389
 78 5.758665 4.244730 -0.000000 -0.000000 -0.000000 1.483530
 79 4.003934 0.000000 0.000001 0.000000 0.000000 0.000000
 80 15.708953 -0.000001 0.000000 0.153371 0.002792 0.528179
 81 0.273998 0.191089 3.439762 -3.130907 -0.000437 -1.508107
 82 17.210192 0.000000 0.000000 0.000000 -0.000000 -2.138823
 83 0.000001 0.000001 5.000000 -0.079311 1.595025 -1.570737
time 5
  0 1.130557 9.712686 27.009436 -0.281436 0.436358 -2.443536
  1 11.368429 6.770639 -23.418964 -0.498313 0.132926 2.346876
  2 -2.276934 0.000003 -1.238187 -1.570795 -1.570451 0.000000
  3 1.796688 0.712110 -0.001331 0.475613 -0.485296 -0.388031
  4 4.118973 -0.003020 -0.001226 0.388647 0.167501 0.189721
  5 4.119150 -0.003235 0.000060 -0.018982 0.260392 0.162637
  6 4.119174 -0.003136 -0.000759 0.236877 0.163353 0.220271
  7 4.120409 -0.002875 0.000994 -0.298155 -0.293322 0.649870
  8 4.443599 -0.000001 -0.000000 0.886290 -0.268471 -0.892434
  9 9.024063 -0.000003 0.000000 0.000000 0.000000 0.000000
 10 0.500986 -0.483725 1.585531 1.004405 -2.070429 1.413590
 11 6.384777 0.000002 0.000001 -0.584701 1.031642 -1.534826
 12 10.242682 0.000001 0.000000 0.000000 0.000000 -1.175986
 13 11.375562 0.000000 -0.000001 2.740101 -0.941327 -0.526739
 14 0.728681 0.023430 -1.008292 1.210021 0.600764 0.006086
 15 2.136497 -0.000001 -0.000001 0.000000 -0.000000 -0.078540
 16 2.313138 -0.000000 -0.000001 0.000000 0.000000 0.000000
 17 3.115506 -0.886041 -0.021431 -0.620285 0.000392 0.514872
 18 2.011150 0.000002 0.000000 0.000000 0.000000 1.322792
 19 2.141379 0.000001 -0.000000 0.000000 0.000000 0.000000
 20 1.734172 0.000002 0.000000 0.000000 -0.000000 0.660693
 21 0.000006 -4.440593 -0.000000 1.570544 -0.062990 -0.195737
 22 5.999999 -0.000000 -0.000000 3.071912 0.000000 -0.000000
 23 0.000000 -4.440601 -0.000000 1.569944 -0.062987 0.004053
 24 11.375562 0.000000 0.000002 -2.500183 -0.321160 -0.542070
 25 -0.000001 -4.440603 0.000000 1.570144 -0.062988 0.004040
 26 10.510131 -0.000000 -0.000000 0.000000 -0.000000 -2.158789
 27 0.000000 -1.748400 4.999998 0.000000 0.004007 1.602291
 28 5.499999 0.000000 -0.000000 -0.029065 0.000000 -0.000000
 29 -0.000001 -1.940598 5.000000 -0.044472 0.004003 -0.000180
 30 6.551491 0.000000 -0.000001 -0.144583 0.845332 -0.800653
 31 -0.000000 -1.940598 5.000001 -0.027189 -0.053376 0.005295
 32 6.551491 0.000000 -0.000001 0.037073 0.370829 -0.290284
 33 0.000000 -1.940600 4.999997 -0.066572 -0.152786 -0.110311
 34 -0.500984 0.490798 -1.585532 0.492410 1.314955 3.081340
 35 6.384776 0.000000 -0.000001 -0.208329 0.288525 -0.504951
 36 10.242681 0.000000 -0.000001 -0.000000 -0.000000 -2.333327
 37 11.375562 0.000001 0.000002 2.002924 0.021409 0.310833
 38 0.728681 0.023431 1.008293 -1.579583 -0.319038 0.212973
 39 2.136497 0.000000 0.000000 -0.000000 -0.000000 1.282817
 40 2.313139 0.000000 0.000000 0.000000 0.000000 3.141593
 41 3.115507 -0.886040 0.021431 0.420766 0.316066 0.167178
 42 2.011153 -0.000000 -0.000001 0.000000 0.000000 2.082010
 43 2.141380 -0.000000 0.000000 0.000000 0.000000 3.141593
 44 1.734173 -0.000001 -0.000000 0.000000 0.000000 1.041748
 45 0.136315 -3.738191 2.525890 1.493698 2.759406 -1.474501
 46 5.613161 0.862368 3.157030 1.595152 -0.135386 0.061522
 47 11.389367 -0.000820 0.158783 1.786274 0.030649 0.173191
 48 0.000000 -4.440598 0.000000 1.570144 -3.078602 0.004040
 49 6.000000 -0.000000 0.000001 1.786274 -0.000000 0.000000
 50 0.000002 -4.440600 -0.000001 1.569944 -3.078603 0.004053
 51 10.510131 -0.000002 0.000001 0.000000 -0.000000 -2.737460
 52 -0.000001 -1.748401 -5.000001 -3.141593 0.004007 -1.539299
 53 5.499999 -0.000000 -0.000001 0.057320 0.000000 0.000000
 54 0.000000 -0.000001 -4.999999 -0.044472 3.137589 -0.000177
 55 6.551490 0.000002 -0.000002 -0.057320 0.113572 -0.212180
 56 -1.266843 -1.937442 -4.950559 -0.066572 -2.988806 -0.110308
 57 6.551491 0.000002 -0.000002 -0.057320 0.113572 -0.212180
 58 0.699371 -1.944207 -5.006846 -0.027189 -3.088217 0.005298
 59 4.226146 -0.003204 0.000000 -0.123901 -0.170414 0.320081
 60 -0.000000 5.000000 -0.000000 -0.153564 0.000087 2.718702
 61 0.000004 -0.000005 -3.713579 0.095503 -3.012510 -0.750673
 62 0.000003 0.000001 4.999999 3.053197 1.558589 -0.074927
 63 -0.000007 0.000005 3.713580 -0.334410 -2.825096 -0.524885
 64 0.000001 -0.000000 -4.999999 -0.088726 1.558589 3.066334
 65 7.363603 1.646647 0.495663 -3.141593 -1.570796 0.000000
 66 -0.000006 0.000005 3.619081 -0.528284 -2.367383 -1.007256
 67 16.573921 -0.000001 0.000001 -0.000000 0.000000 -2.019199
 68 15.128181 0.000001 -0.000002 0.031619 0.086785 -0.033197
 69 5.758664 4.244731 -0.000000 0.000000 -0.000000 2.033309
 70 3.177726 0.000001 0.000000 0.000000 0.000000 3.141593
 71 15.708951 0.000002 -0.000003 0.016155 0.048356 -0.018185
 72 0.275149 0.189215 -3.445208 3.130898 0.000409 -1.514604
 73 17.210192 -0.000002 0.000002 0.000000 -0.000000 -2.322356
 74 0.000001 -0.000000 -5.000000 -0.079430 1.546568 -1.570856
 75 0.000006 -0.000005 -3.619080 0.196495 -3.011952 -1.279118
 76 16.573921 0.000000 0.000000 -0.000000 0.000000 -1.611348
 77 15.128181 -0.000002 0.000000 0.214418 -0.027533 0.774389
 78 5.758665 4.244730 -0.000000 -0.000000 -0.000000 1.483530
 79 4.003934 0.000000 0.000001 0.000000 0.000000 0.000000
 80 15.708953 -0.000001 0.000000 0.153371 0.002792 0.528179
 81 0.273998 0.191089 3.439762 -3.130907 -0.000437 -1.508107
 82 17.210192 0.000000 0.000000 0.000000 -0.000000 -2.138823
 83 0.000001 0.000001 5.000000 -0.079311 1.595025 -1.570737
time 6
  0 1.130557 9.712686 27.009436 -0.281436 0.436358 -2.443536
  1 11.368429 6.770639 -23.418964 -0.498313 0.132926 2.346876
  2 -2.276934 0.000003 -1.238187 -1.570795 -1.570451 0.000000
  3 1.796688 0.712110 -0.001331 0.475613 -0.485296 -0.388031
  4 4.118972 -0.003018 -0.001232 0.390321 0.164197 0.188343
  5 4.119153 -0.003231 0.000055 -0.017129 0.258337 0.164592
  6 4.119178 -0.003139 -0.000759 0.236877 0.163353 0.220271
  7 4.120410 -0.002877 0.000994 -0.298865 -0.300794 0.652275
  8 4.443598 0.000002 -0.000000 0.877764 -0.253693 -0.894464
  9 9.024060 -0.000000 -0.000000 0.000000 0.000000 0.000000
 10 0.513366 -0.483736 1.581563 0.988252 -2.069266 1.427773
 11 6.384776 0.000000 0.000000 -0.584678 1.036828 -1.528932
 12 10.242683 0.000000 0.000000 0.000000 0.000000 -1.179090
 13 11.375559 0.000001 -0.000000 2.736435 -0.935944 -0.529502
 14 0.728681 0.023430 -1.008292 1.210021 0.600763 0.006085
 15 2.136497 -0.000001 -0.000000 0.000000 -0.000000 -0.078540
 16 2.313139 -0.000001 -0.000001 0.000000 0.000000 0.000000
 17 3.115506 -0.886040 -0.021431 -0.620285 0.000392 0.514872
 18 2.011150 0.000000 0.000000 0.000000 -0.000000 1.322792
 19 2.141379 -0.000000 -0.000001 0.000000 0.000000 0.000000
 20 1.734172 0.000000 -0.000000 0.000000 -0.000000 0.660693
 21 0.000005 -4.440592 0.000002 1.570544 -0.062990 -0.195737
 22 5.999998 0.000001 -0.000000 3.067096 -0.000000 0.000000
 23 0.000003 -4.440601 0.000000 1.569944 -0.062987 0.004053
 24 11.375560 0.000001 0.000003 -2.503260 -0.317197 -0.542375
 25 -0.000001 -4.440603 0.000001 1.570144 -0.062988 0.004040
 26 10.510132 0.000000 -0.000000 0.000000 -0.000000 -2.160341
 27 0.000001 -1.748401 4.999998 0.000000 0.004007 1.602291
 28 5.500000 0.000000 0.000001 -0.030498 -0.000000 0.000000
 29 -0.000002 -1.940597 5.000000 -0.044472 0.004003 -0.000180
 30 6.551491 0.000001 0.000000 -0.140567 0.847155 -0.794346
 31 0.000000 -1.940595 5.000002 -0.027189 -0.053376 0.005295
 32 6.551491 0.000001 0.000000 0.038140 0.371457 -0.288335
 33 0.000001 -1.940600 4.999994 -0.066572 -0.152786 -0.110311
 34 -0.513363 0.490813 -1.581563 0.496114 1.307121 3.085150
 35 6.384776 -0.000001 -0.000001 -0.215285 0.278971 -0.510253
 36 10.242682 -0.000003 0.000000 0.000000 0.000000 -2.326886
 37 11.375560 -0.000002 0.000001 1.996949 0.024641 0.304913
 38 0.728680 0.023431 1.008293 -1.579583 -0.319038 0.212973
 39 2.136498 0.000002 0.000000 -0.000000 0.000000 1.282817
 40 2.313139 0.000000 0.000000 0.000000 0.000000 3.141593
 41 3.115506 -0.886041 0.021432 0.420766 0.316066 0.167178
 42 2.011151 -0.000000 -0.000000 0.000000 0.000000 2.082010
 43 2.141380 0.000000 0.000001 0.000000 0.000000 3.141593
 44 1.734172 -0.000001 -0.000000 -0.000000 -0.000000 1.041748
 45 0.136316 -3.738193 2.525889 1.493698 2.759406 -1.474501
 46 5.613160 0.862367 3.157032 1.595152 -0.135386 0.061522
 47 11.389367 -0.000820 0.158783 1.783210 0.031813 0.169916
 48 -0.000000 -4.440598 0.000001 1.570144 -3.078602 0.004040
 49 6.000001 0.000001 0.000001 1.783210 0.000000 0.000000
 50 0.000002 -4.440600 -0.000001 1.569944 -3.078603 0.004053
 51 10.510132 -0.000001 -0.000000 -0.000000 -0.000000 -2.734239
 52 0.000000 -1.748400 -5.000000 -3.141593 0.004007 -1.539299
 53 5.500000 -0.000003 0.000000 0.060017 0.000000 -0.000000
 54 0.000001 0.000000 -4.999999 -0.044472 3.137589 -0.000177
 55 6.551490 -0.000002 -0.000000 -0.060017 0.110621 -0.213488
 56 -1.266843 -1.937444 -4.950560 -0.066572 -2.988806 -0.110308
 57 6.551490 -0.000002 -0.000000 -0.060017 0.110621 -0.213488
 58 0.699371 -1.944207 -5.006847 -0.027189 -3.088217 0.005298
 59 4.226145 -0.003201 -0.000001 -0.123392 -0.174199 0.320635
 60 0.000000 5.000000 -0.000000 -0.153564 0.000087 2.718702
 61 0.000004 -0.000005 -3.713579 0.095503 -3.012510 -0.750673
 62 0.000003 0.000001 4.999999 3.053197 1.558589 -0.074927
 63 -0.000007 0.000005 3.713580 -0.334410 -2.825096 -0.524885
 64 0.000001 -0.000000 -4.999999 -0.088726 1.558589 3.066334
 65 7.363603 1.646647 0.495663 -3.141593 -1.570796 0.000000
 66 -0.000006 0.000005 3.619081 -0.528284 -2.367383 -1.007256
 67 16.573921 -0.000001 0.000001 -0.000000 0.000000 -2.019199
 68 15.128181 0.000001 -0.000002 0.031619 0.086785 -0.033197
 69 5.758664 4.244731 -0.000000 0.000000 -0.000000 2.033309
 70 3.177726 0.000001 0.000000 0.000000 0.000000 3.141593
 71 15.708951 0.000002 -0.000003 0.016155 0.048356 -0.018185
 72 0.275149 0.189215 -3.445208 3.130898 0.000409 -1.514604
 73 17.210192 -0.000002 0.000002 0.000000 -0.000000 -2.322356
 74 0.000001 -0.000000 -5.000000 -0.079430 1.546568 -1.570856
 75 0.000006 -0.000005 -3.619080 0.196495 -3.011952 -1.279118
 76 16.573921 0.000000 0.000000 -0.000000 0.000000 -1.611348
 77 15.128181 -0.000002 0.000000 0.214418 -0.027533 0.774389
 78 5.758665 4.244730 -0.000000 -0.000000 -0.000000 1.483530
 79 4.003934 0.000000 0.000001 0.000000 0.000000 0.000000
 80 15.708953 -0.000001 0.000000 0.153371 0.002792 0.528179
 81 0.273998 0.191089 3.439762 -3.130907 -0.000437 -1.508107
 82 17.210192 0.000000 0.000000 0.000000 -0.000000 -2.138823
 83 0.000001 0.000001 5.000000 -0.079311 1.595025 -1.570737
time 7
  0 1.130557 9.712686 27.009436 -0.281436 0.436358 -2.443536
  1 11.368429 6.770639 -23.418964 -0.498313 0.132926 2.346876
  2 -2.276934 0.000003 -1.238187 -1.570795 -1.570451 0.000000
  3 1.796688 0.712110 -0.001331 0.475613 -0.485296 -0.388031
  4 4.118971 -0.003018 -0.001233 0.390326 0.160534 0.186819
  5 4.119155 -0.003233 0.000054 -0.016882 0.258063 0.164853
  6 4.119177 -0.003139 -0.000759 0.236877 0.163353 0.220271
  7 4.120410 -0.002876 0.000994 -0.299084 -0.303052 0.653004
  8 4.443598 -0.000001 0.000000 0.875911 -0.246651 -0.895479
  9 9.024061 -0.000000 0.000000 0.000000 0.000000 0.000000
 10 0.517102 -0.483737 1.580345 0.983355 -2.068936 1.432075
 11 6.384776 0.000002 0.000001 -0.584541 1.046562 -1.521420
 12 10.242683 -0.000001 0.000000 0.000000 0.000000 -1.186511
 13 11.375560 0.000000 0.000000 2.735139 -0.930714 -0.530422
 14 0.728680 0.023432 -1.008292 1.210021 0.600763 0.006085
 15 2.136496 -0.000000 -0.000000 0.000000 -0.000000 -0.078540
 16 2.313139 -0.000000 -0.000001 0.000000 0.000000 0.000000
 17 3.115506 -0.886040 -0.021431 -0.620285 0.000392 0.514872
 18 2.011150 0.000001 0.000002 0.000000 -0.000000 1.322792
 19 2.141379 -0.000000 -0.000001 0.000000 0.000000 0.000000
 20 1.734172 0.000002 0.000001 -0.000000 -0.000000 0.660693
 21 0.000006 -4.440593 0.000001 1.570544 -0.062990 -0.195737
 22 6.000000 0.000000 0.000000 3.065183 -0.000000 0.000000
 23 0.000002 -4.440601 -0.000001 1.569944 -0.062987 0.004053
 24 11.375560 -0.000000 0.000003 -2.504981 -0.314076 -0.541553
 25 -0.000001 -4.440603 0.000001 1.570144 -0.062988 0.004040
 26 10.510130 0.000001 0.000001 -0.000000 -0.000000 -2.164052
 27 0.000000 -1.748399 4.999998 -0.000000 0.004007 1.602291
 28 5.500000 -0.000000 0.000000 -0.033200 0.000000 0.000000
 29 -0.000001 -1.940598 5.000000 -0.044472 0.004003 -0.000180
 30 6.551489 -0.000001 -0.000002 -0.133890 0.851239 -0.784919
 31 0.000000 -1.940597 5.000000 -0.027189 -0.053376 0.005295
 32 6.551489 -0.000001 -0.000002 0.040195 0.372775 -0.285232
 33 0.000001 -1.940598 4.999995 -0.066572 -0.152786 -0.110311
 34 -0.517100 0.490812 -1.580345 0.505213 1.304609 3.094982
 35 6.384776 -0.000002 0.000001 -0.220718 0.271346 -0.515696
 36 10.242682 0.000002 -0.000000 -0.000000 0.000000 -2.319102
 37 11.375562 0.000001 0.000001 1.993207 0.025818 0.293357
 38 0.728682 0.023431 1.008291 -1.579583 -0.319038 0.212973
 39 2.136497 -0.000000 0.000000 -0.000000 0.000000 1.282817
 40 2.313140 0.000000 0.000000 0.000000 0.000000 3.141593
 41 3.115508 -0.886041 0.021430 0.420765 0.316066 0.167178
 42 2.011150 0.000000 0.000000 -0.000000 -0.000000 2.082010
 43 2.141379 -0.000001 0.000000 0.000000 0.000000 3.141593
 44 1.734171 -0.000001 0.000000 -0.000000 -0.000000 1.041748
 45 0.136316 -3.738193 2.525890 1.493698 2.759406 -1.474501
 46 5.613161 0.862367 3.157031 1.595152 -0.135386 0.061522
 47 11.389367 -0.000819 0.158782 1.781344 0.031644 0.163768
 48 -0.000000 -4.440598 -0.000001 1.570144 -3.078602 0.004040
 49 6.000000 0.000002 0.000001 1.781344 -0.000000 0.000000
 50 0.000001 -4.440602 0.000001 1.569944 -3.078603 0.004053
 51 10.510132 0.000003 0.000000 0.000000 -0.000000 -2.730348
 52 -0.000001 -1.748399 -5.000000 -3.141593 0.004007 -1.539299
 53 5.500000 0.000002 -0.000001 0.062058 0.000000 -0.000000
 54 0.000000 0.000001 -4.999999 -0.044472 3.137589 -0.000177
 55 6.551490 -0.000001 0.000001 -0.062058 0.108249 -0.214739
 56 -1.266844 -1.937446 -4.950559 -0.066572 -2.988806 -0.110308
 57 6.551491 -0.000002 0.000001 -0.062058 0.108249 -0.214739
 58 0.699370 -1.944210 -5.006846 -0.027189 -3.088217 0.005298
 59 4.226145 -0.003203 -0.000000 -0.123238 -0.175343 0.320801
 60 0.000001 5.000001 0.000000 -0.153564 0.000087 2.718702
 61 0.000004 -0.000005 -3.713579 0.095503 -3.012510 -0.750673
 62 0.000003 0.000001 4.999999 3.053197 1.558589 -0.074927
 63 -0.000007 0.000005 3.713580 -0.334410 -2.825096 -0.524885
 64 0.000001 -0.000000 -4.999999 -0.088726 1.558589 3.066334
 65 7.363603 1.646647 0.495663 -3.141593 -1.570796 0.000000
 66 -0.000006 0.000005 3.619081 -0.528284 -2.367383 -1.007256
 67 16.573921 -0.000001 0.000001 -0.000000 0.000000 -2.019199
 68 15.128181 0.000001 -0.000002 0.031619 0.086785 -0.033197
 69 5.758664 4.244731 -0.000000 0.000000 -0.000000 2.033309
 70 3.177726 0.000001 0.000000 0.000000 0.000000 3.141593
 71 15.708951 0.000002 -0.000003 0.016155 0.048356 -0.018185
 72 0.275149 0.189215 -3.445208 3.130898 0.000409 -1.514604
 73 17.210192 -0.000002 0.000002 0.000000 -0.000000 -2.322356
 74 0.000001 -0.000000 -5.000000 -0.079430 1.546568 -1.570856
 75 0.000006 -0.000005 -3.619080 0.196495 -3.011952 -1.279118
 76 16.573921 0.000000 0.000000 -0.000000 0.000000 -1.611348
 77 15.128181 -0.000002 0.000000 0.214418 -0.027533 0.774389
 78 5.758665 4.244730 -0.000000 -0.000000 -0.000000 1.483530
 79 4.003934 0.000000 0.000001 0.000000 0.000000 0.000000
 80 15.708953 -0.000001 0.000000 0.153371 0.002792 0.528179
 81 0.273998 0.191089 3.439762 -3.130907 -0.000437 -1.508107
 82 17.210192 0.000000 0.000000 0.000000 -0.000000 -2.138823
 83 0.000001 0.000001 5.000000 -0.079311 1.595025 -1.570737
time 8
  0 1.130557 9.712686 27.009436 -0.281436 0.436358 -2.443536
  1 11.368429 6.770639 -23.418964 -0.498313 0.132926 2.346876
  2 -2.276934 0.000003 -1.238187 -1.570795 -1.570451 0.000000
  3 1.796688 0.712110 -0.001331 0.475613 -0.485296 -0.388031
  4 4.118970 -0.003017 -0.001229 0.389410 0.157139 0.185414
  5 4.119153 -0.003233 0.000056 -0.017553 0.258808 0.164145
  6 4.119178 -0.003141 -0.000760 0.236877 0.163353 0.220271
  7 4.120409 -0.002874 0.000994 -0.298899 -0.301141 0.652387
  8 4.443598 0.000001 -0.000000 0.878601 -0.246071 -0.895653
  9 9.024059 -0.000001 0.000001 0.000000 0.000000 0.000000
 10 0.513941 -0.483736 1.581376 0.987499 -2.069215 1.428435
 11 6.384776 0.000001 0.000000 -0.589533 1.056905 -1.518345
 12 10.242682 -0.000000 -0.000000 0.000000 0.000000 -1.192531
 13 11.375559 0.000000 -0.000001 2.733722 -0.924386 -0.533181
 14 0.728680 0.023432 -1.008291 1.210021 0.600763 0.006085
 15 2.136496 0.000000 0.000001 0.000000 -0.000000 -0.078540
 16 2.313139 -0.000000 -0.000000 0.000000 0.000000 0.000000
 17 3.115506 -0.886040 -0.021431 -0.620285 0.000392 0.514872
 18 2.011150 0.000001 0.000001 -0.000000 -0.000000 1.322792
 19 2.141380 -0.000000 0.000000 0.000000 0.000000 0.000000
 20 1.734172 0.000002 0.000001 0.000000 0.000000 0.660693
 21 0.000006 -4.440593 -0.000000 1.570544 -0.062990 -0.195737
 22 5.999998 0.000000 -0.000001 3.062652 -0.000000 0.000000
 23 0.000002 -4.440601 -0.000001 1.569944 -0.062987 0.004053
 24 11.375559 -0.000000 0.000002 -2.507272 -0.309871 -0.541178
 25 -0.000001 -4.440603 0.000001 1.570144 -0.062988 0.004040
 26 10.510130 0.000001 -0.000001 0.000000 -0.000000 -2.167062
 27 0.000000 -1.748402 4.999998 0.000000 0.004007 1.602291
 28 5.500000 -0.000001 -0.000000 -0.035399 -0.000000 -0.000000
 29 -0.000001 -1.940599 5.000000 -0.044472 0.004003 -0.000180
 30 6.551491 0.000000 -0.000000 -0.129543 0.856983 -0.777907
 31 0.000002 -1.940601 4.999999 -0.027189 -0.053376 0.005295
 32 6.551491 0.000000 -0.000000 0.041893 0.374706 -0.282369
 33 -0.000001 -1.940600 4.999994 -0.066572 -0.152786 -0.110311
 34 -0.513938 0.490814 -1.581376 0.510025 1.306506 3.100252
 35 6.384777 0.000002 -0.000001 -0.223831 0.266970 -0.518762
 36 10.242682 -0.000002 0.000000 -0.000000 0.000000 -2.313832
 37 11.375561 -0.000001 0.000001 1.991154 0.024974 0.284051
 38 0.728679 0.023431 1.008294 -1.579583 -0.319038 0.212973
 39 2.136497 -0.000001 0.000000 -0.000000 0.000000 1.282817
 40 2.313138 0.000000 0.000001 0.000000 0.000000 3.141593
 41 3.115506 -0.886041 0.021431 0.420765 0.316066 0.167178
 42 2.011151 0.000000 -0.000001 -0.000000 0.000000 2.082010
 43 2.141379 0.000001 0.000000 0.000000 0.000000 3.141593
 44 1.734172 -0.000001 -0.000000 0.000000 -0.000000 1.041748
 45 0.136316 -3.738191 2.525890 1.493698 2.759406 -1.474501
 46 5.613160 0.862367 3.157031 1.595152 -0.135386 0.061522
 47 11.389367 -0.000820 0.158783 1.780373 0.030572 0.158891
 48 -0.000002 -4.440599 0.000002 1.570144 -3.078602 0.004040
 49 6.000000 -0.000001 0.000000 1.780373 0.000000 0.000000
 50 0.000001 -4.440601 -0.000000 1.569944 -3.078602 0.004053
 51 10.510131 -0.000003 0.000001 0.000000 -0.000000 -2.727712
 52 0.000001 -1.748399 -5.000000 3.141593 0.004007 -1.539299
 53 5.500000 -0.000003 0.000001 0.063230 -0.000000 -0.000000
 54 0.000000 0.000000 -4.999999 -0.044472 3.137589 -0.000177
 55 6.551491 0.000002 -0.000001 -0.063230 0.106895 -0.215438
 56 -1.266843 -1.937443 -4.950559 -0.066572 -2.988806 -0.110308
 57 6.551492 0.000002 -0.000001 -0.063230 0.106895 -0.215438
 58 0.699371 -1.944206 -5.006846 -0.027189 -3.088217 0.005298
 59 4.226146 -0.003201 -0.000001 -0.123369 -0.174375 0.320660
 60 -0.000000 5.000000 0.000000 -0.153564 0.000087 2.718702
 61 0.000004 -0.000005 -3.713579 0.095503 -3.012510 -0.750673
 62 0.000003 0.000001 4.999999 3.053197 1.558589 -0.074927
 63 -0.000007 0.000005 3.713580 -0.334410 -2.825096 -0.524885
 64 0.000001 -0.000000 -4.999999 -0.088726 1.558589 3.066334
 65 7.363603 1.646647 0.495663 -3.141593 -1.570796 0.000000
 66 -0.000006 0.000005 3.619081 -0.528284 -2.367383 -1.007256
 67 16.573921 -0.000001 0.000001 -0.000000 0.000000 -2.019199
 68 15.128181 0.000001 -0.000002 0.031619 0.086785 -0.033197
 69 5.758664 4.244731 -0.000000 0.000000 -0.000000 2.033309
 70 3.177726 0.000001 0.000000 0.000000 0.000000 3.141593
 71 15.708951 0.000002 -0.000003 0.016155 0.048356 -0.018185
 72 0.275149 0.189215 -3.445208 3.130898 0.000409 -1.514604
 73 17.210192 -0.000002 0.000002 0.000000 -0.000000 -2.322356
 74 0.000001 -0.000000 -5.000000 -0.079430 1.546568 -1.570856
 75 0.000006 -0.000005 -3.619080 0.196495 -3.011952 -1.279118
 76 16.573921 0.000000 0.000000 -0.000000 0.000000 -1.611348
 77 15.128181 -0.000002 0.000000 0.214418 -0.027533 0.774389
 78 5.758665 4.244730 -0.000000 -0.000000 -0.000000 1.483530
 79 4.003934 0.000000 0.000001 0.000000 0.000000 0.000000
 80 15.708953 -0.000001 0.000000 0.153371 0.002792 0.528179
 81 0.273998 0.191089 3.439762 -3.130907 -0.000437 -1.508107
 82 17.210192 0.000000 0.000000 0.000000 -0.000000 -2.138823
 83 0.000001 0.000001 5.000000 -0.079311 1.595025 -1.570737
time 9
  0 1.130557 9.712686 27.009436 -0.281436 0.436358 -2.443536
  1 11.368429 6.770639 -23.418964 -0.498313 0.132926 2.346876
  2 -2.276934 0.000003 -1.238187 -1.570795 -1.570451 0.000000
  3 1.796688 0.712110 -0.001331 0.475613 -0.485296 -0.388031
  4 4.118970 -0.003019 -0.001227 0.388318 0.154639 0.184386
  5 4.119153 -0.003234 0.000058 -0.018459 0.259813 0.163189
  6 4.119175 -0.003139 -0.000760 0.236877 0.163353 0.220271
  7 4.120410 -0.002874 0.000995 -0.298417 -0.296102 0.650764
  8 4.443599 0.000002 -0.000000 0.883710 -0.250725 -0.895328
  9 9.024061 -0.000001 -0.000000 0.000000 0.000000 0.000000
 10 0.505596 -0.483727 1.584066 0.998403 -2.069984 1.418860
 11 6.384777 0.000000 0.000002 -0.600746 1.067158 -1.522308
 12 10.242682 -0.000000 -0.000000 0.000000 -0.000000 -1.198042
 13 11.375560 0.000001 -0.000000 2.732641 -0.916779 -0.537525
 14 0.728681 0.023432 -1.008292 1.210021 0.600763 0.006085
 15 2.136496 -0.000000 0.000001 0.000000 -0.000000 -0.078540
 16 2.313138 -0.000000 0.000001 0.000000 0.000000 0.000000
 17 3.115506 -0.886041 -0.021431 -0.620285 0.000392 0.514872
 18 2.011150 -0.000001 -0.000001 0.000000 -0.000000 1.322791
 19 2.141381 -0.000000 0.000001 0.000000 0.000000 0.000000
 20 1.734172 0.000001 0.000000 0.000000 0.000000 0.660693
 21 0.000007 -4.440593 0.000000 1.570544 -0.062990 -0.195737
 22 5.999998 0.000000 -0.000000 3.060038 -0.000000 -0.000000
 23 0.000001 -4.440602 -0.000000 1.569944 -0.062987 0.004053
 24 11.375560 0.000001 0.000002 -2.509921 -0.304599 -0.541021
 25 -0.000001 -4.440603 -0.000000 1.570144 -0.062988 0.004040
 26 10.510132 -0.000001 -0.000000 -0.000000 -0.000000 -2.169817
 27 -0.000000 -1.748400 4.999998 0.000000 0.004007 1.602290
 28 5.500001 -0.000001 -0.000000 -0.036832 0.000000 0.000000
 29 -0.000003 -1.940596 5.000000 -0.044472 0.004003 -0.000180
 30 6.551491 -0.000001 0.000000 -0.128600 0.864514 -0.774994
 31 0.000000 -1.940598 5.000002 -0.027189 -0.053376 0.005295
 32 6.551491 -0.000001 0.000000 0.043050 0.377268 -0.280157
 33 -0.000000 -1.940599 4.999996 -0.066572 -0.152786 -0.110311
 34 -0.505594 0.490807 -1.584066 0.512252 1.311713 3.102765
 35 6.384777 0.000000 -0.000001 -0.223430 0.266191 -0.515064
 36 10.242682 -0.000001 -0.000000 0.000000 0.000000 -2.314037
 37 11.375560 -0.000000 0.000001 1.990252 0.022816 0.277359
 38 0.728680 0.023431 1.008292 -1.579583 -0.319038 0.212973
 39 2.136497 -0.000000 0.000000 -0.000000 0.000000 1.282817
 40 2.313138 0.000000 0.000000 0.000000 0.000000 3.141593
 41 3.115506 -0.886040 0.021432 0.420766 0.316066 0.167178
 42 2.011151 0.000000 -0.000000 -0.000000 -0.000000 2.082010
 43 2.141380 0.000001 -0.000000 0.000000 0.000000 3.141593
 44 1.734171 -0.000001 0.000000 0.000000 -0.000000 1.041748
 45 0.136315 -3.738193 2.525889 1.493698 2.759406 -1.474501
 46 5.613159 0.862368 3.157032 1.595152 -0.135386 0.061522
 47 11.389366 -0.000819 0.158783 1.780001 0.028972 0.155457
 48 -0.000001 -4.440599 0.000001 1.570144 -3.078602 0.004040
 49 5.999998 -0.000001 -0.000000 1.780001 0.000000 0.000000
 50 0.000002 -4.440600 -0.000001 1.569944 -3.078603 0.004053
 51 10.510133 -0.000002 0.000000 0.000000 0.000000 -2.727815
 52 -0.000000 -1.748400 -5.000000 -3.141593 0.004007 -1.539299
 53 5.500000 0.000001 -0.000001 0.063357 -0.000000 0.000000
 54 0.000000 0.000001 -4.999999 -0.044472 3.137589 -0.000177
 55 6.551491 -0.000001 0.000000 -0.063357 0.106715 -0.214822
 56 -1.266843 -1.937442 -4.950560 -0.066572 -2.988806 -0.110308
 57 6.551491 -0.000001 0.000000 -0.063357 0.106715 -0.214822
 58 0.699371 -1.944207 -5.006847 -0.027189 -3.088217 0.005298
 59 4.226145 -0.003199 -0.000001 -0.123712 -0.171823 0.320288
 60 0.000000 4.999998 0.000000 -0.153564 0.000087 2.718702
 61 0.000004 -0.000005 -3.713579 0.095503 -3.012510 -0.750673
 62 0.000003 0.000001 4.999999 3.053197 1.558589 -0.074927
 63 -0.000007 0.000005 3.713580 -0.334410 -2.825096 -0.524885
 64 0.000001 -0.000000 -4.999999 -0.088726 1.558589 3.066334
 65 7.363603 1.646647 0.495663 -3.141593 -1.570796 0.000000
 66 -0.000006 0.000005 3.619081 -0.528284 -2.367383 -1.007256
 67 16.573921 -0.000001 0.000001 -0.000000 0.000000 -2.019199
 68 15.128181 0.000001 -0.000002 0.031619 0.086785 -0.033197
 69 5.758664 4.244731 -0.000000 0.000000 -0.000000 2.033309
 70 3.177726 0.000001 0.000000 0.000000 0.000000 3.141593
 71 15.708951 0.000002 -0.000003 0.016155 0.048356 -0.018185
 72 0.275149 0.189215 -3.445208 3.130898 0.000409 -1.514604
 73 17.210192 -0.000002 0.000002 0.000000 -0.000000 -2.322356
 74 0.000001 -0.000000 -5.000000 -0.079430 1.546568 -1.570856
 75 0.000006 -0.000005 -3.619080 0.196495 -3.011952 -1.279118
 76 16.573921 0.000000 0.000000 -0.000000 0.000000 -1.611348
 77 15.128181 -0.000002 0.000000 0.214418 -0.027533 0.774389
 78 5.758665 4.244730 -0.000000 -0.000000 -0.000000 1.483530
 79 4.003934 0.000000 0.000001 0.000000 0.000000 0.000000
 80 15.708953 -0.000001 0.000000 0.153371 0.002792 0.528179
 81 0.273998 0.191089 3.439762 -3.130907 -0.000437 -1.508107
 82 17.210192 0.000000 0.000000 0.000000 -0.000000 -2.138823
 83 0.000001 0.000001 5.000000 -0.079311 1.595025 -1.570737
time 10
  0 1.130557 9.712686 27.009436 -0.281436 0.436358 -2.443536
  1 11.368429 6.770639 -23.418964 -0.498313 0.132926 2.346876
  2 -2.276934 0.000003 -1.238187 -1.570795 -1.570451 0.000000
  3 1.796688 0.712110 -0.001331 0.475613 -0.485296 -0.388031
  4 4.118971 -0.003020 -0.001225 0.387789 0.153665 0.183988
  5 4.119150 -0.003233 0.000060 -0.018913 0.260316 0.162709
  6 4.119179 -0.003140 -0.000759 0.236877 0.163353 0.220271
  7 4.120411 -0.002879 0.000994 -0.297752 -0.288977 0.648477
  8 4.443598 0.000001 0.000000 0.889109 -0.259386 -0.894897
  9 9.024060 -0.000000 0.000000 0.000000 0.000000 0.000000
 10 0.493775 -0.483717 1.587794 1.013764 -2.071156 1.405377
 11 6.384776 0.000000 0.000000 -0.615676 1.078224 -1.532073
 12 10.242682 0.000000 0.000000 0.000000 0.000000 -1.206287
 13 11.375561 -0.000000 -0.000001 2.733139 -0.908606 -0.541283
 14 0.728680 0.023431 -1.008292 1.210021 0.600763 0.006085
 15 2.136496 -0.000000 0.000001 -0.000000 -0.000000 -0.078540
 16 2.313139 -0.000001 -0.000001 0.000000 0.000000 0.000000
 17 3.115506 -0.886040 -0.021431 -0.620285 0.000392 0.514872
 18 2.011151 -0.000000 0.000001 0.000000 0.000000 1.322792
 19 2.141380 0.000001 0.000000 0.000000 0.000000 0.000000
 20 1.734172 -0.000000 0.000000 0.000000 0.000000 0.660693
 21 0.000005 -4.440594 0.000002 1.570544 -0.062990 -0.195737
 22 6.000000 -0.000000 -0.000001 3.059198 -0.000000 0.000000
 23 0.000002 -4.440600 -0.000000 1.569944 -0.062987 0.004053
 24 11.375563 0.000001 0.000002 -2.511871 -0.299370 -0.540195
 25 -0.000001 -4.440603 0.000002 1.570144 -0.062988 0.004040
 26 10.510132 -0.000000 0.000000 0.000000 0.000000 -2.173940
 27 0.000000 -1.748400 4.999998 0.000000 0.004007 1.602290
 28 5.500002 -0.000001 0.000001 -0.038159 -0.000000 0.000000
 29 -0.000000 -1.940599 5.000000 -0.044472 0.004003 -0.000180
 30 6.551491 -0.000000 -0.000000 -0.129331 0.873821 -0.774793
 31 0.000000 -1.940598 5.000001 -0.027189 -0.053376 0.005295
 32 6.551491 -0.000000 -0.000000 0.044171 0.380360 -0.278310
 33 0.000000 -1.940600 4.999995 -0.066572 -0.152786 -0.110311
 34 -0.493772 0.490797 -1.587793 0.519184 1.318997 3.110385
 35 6.384776 -0.000002 0.000000 -0.219287 0.268003 -0.502772
 36 10.242682 -0.000000 -0.000001 0.000000 0.000000 -2.319903
 37 11.375561 0.000000 0.000001 1.990008 0.020228 0.269844
 38 0.728680 0.023431 1.008291 -1.579583 -0.319038 0.212973
 39 2.136497 0.000000 0.000000 -0.000000 0.000000 1.282817
 40 2.313139 -0.000000 0.000000 0.000000 0.000000 3.141593
 41 3.115506 -0.886041 0.021430 0.420766 0.316066 0.167178
 42 2.011151 -0.000000 -0.000000 0.000000 0.000000 2.082010
 43 2.141380 -0.000000 0.000000 0.000000 0.000000 3.141593
 44 1.734172 -0.000001 -0.000000 -0.000000 -0.000000 1.041748
 45 0.136315 -3.738192 2.525889 1.493698 2.759406 -1.474501
 46 5.613159 0.862367 3.157030 1.595152 -0.135386 0.061522
 47 11.389366 -0.000820 0.158783 1.779968 0.027111 0.151592
 48 -0.000002 -4.440599 0.000001 1.570144 -3.078602 0.004040
 49 6.000000 0.000001 0.000001 1.779968 0.000000 -0.000000
 50 -0.000000 -4.440601 0.000002 1.569944 -3.078603 0.004053
 51 10.510131 0.000001 -0.000001 0.000000 0.000000 -2.730747
 52 -0.000000 -1.748399 -5.000000 -3.141593 0.004007 -1.539299
 53 5.500000 0.000001 -0.000001 0.062536 -0.000000 0.000000
 54 0.000001 0.000000 -4.999998 -0.044472 3.137589 -0.000177
 55 6.551490 -0.000000 -0.000000 -0.062536 0.107443 -0.212587
 56 -1.266843 -1.937444 -4.950559 -0.066572 -2.988806 -0.110308
 57 6.551491 -0.000000 -0.000000 -0.062536 0.107443 -0.212587
 58 0.699371 -1.944209 -5.006846 -0.027189 -3.088217 0.005298
 59 4.226145 -0.003203 -0.000001 -0.124196 -0.168213 0.319758
 60 0.000000 5.000000 -0.000000 -0.153564 0.000087 2.718702
 61 0.000004 -0.000005 -3.713579 0.095503 -3.012510 -0.750673
 62 0.000003 0.000001 4.999999 3.053197 1.558589 -0.074927
 63 -0.000007 0.000005 3.713580 -0.334410 -2.825096 -0.524885
 64 0.000001 -0.000000 -4.999999 -0.088726 1.558589 3.066334
 65 7.363603 1.646647 0.495663 -3.141593 -1.570796 0.000000
 66 -0.000006 0.000005 3.619081 -0.528284 -2.367383 -1.007256
 67 16.573921 -0.000001 0.000001 -0.000000 0.000000 -2.019199
 68 15.128181 0.000001 -0.000002 0.031619 0.086785 -0.033197
 69 5.758664 4.244731 -0.000000 0.000000 -0.000000 2.033309
 70 3.177726 0.000001 0.000000 0.000000 0.000000 3.141593
 71 15.708951 0.000002 -0.000003 0.016155 0.048356 -0.018185
 72 0.275149 0.189215 -3.445208 3.130898 0.000409 -1.514604
 73 17.210192 -0.000002 0.000002 0.000000 -0.000000 -2.322356
 74 0.000001 -0.000000 -5.000000 -0.079430 1.546568 -1.570856
 75 0.000006 -0.000005 -3.619080 0.196495 -3.011952 -1.279118
 76 16.573921 0.000000 0.000000 -0.000000 0.000000 -1.611348
 77 15.128181 -0.000002 0.000000 0.214418 -0.027533 0.774389
 78 5.758665 4.244730 -0.000000 -0.000000 -0.000000 1.483530
 79 4.003934 0.000000 0.000001 0.000000 0.000000 0.000000
 80 15.708953 -0.000001 0.000000 0.153371 0.002792 0.528179
 81 0.273998 0.191089 3.439762 -3.130907 -0.000437 -1.508107
 82 17.210192 0.000000 0.000000 0.000000 -0.000000 -2.138823
 83 0.000001 0.000001 5.000000 -0.079311 1.595025 -1.570737
time 11
  0 1.130557 9.712686 27.009436 -0.281436 0.436358 -2.443536
  1 11.368429 6.770639 -23.418964 -0.498313 0.132926 2.346876
  2 -2.276934 0.000003 -1.238187 -1.570795 -1.570451 0.000000
  3 1.796688 0.712110 -0.001331 0.475613 -0.485296 -0.388031
  4 4.118974 -0.003020 -0.001225 0.387553 0.154828 0.184471
  5 4.119149 -0.003233 0.000060 -0.019217 0.260652 0.162389
  6 4.119179 -0.003141 -0.000760 0.236877 0.163353 0.220271
  7 4.120409 -0.002877 0.000994 -0.297012 -0.280807 0.645869
  8 4.443598 0.000001 -0.000000 0.894786 -0.271586 -0.894205
  9 9.024062 -0.000002 0.000001 0.000000 0.000000 0.000000
 10 0.480189 -0.483707 1.591958 1.031288 -2.072621 1.390007
 11 6.384776 0.000000 0.000001 -0.635263 1.090236 -1.547175
 12 10.242683 -0.000000 0.000000 0.000000 0.000000 -1.214641
 13 11.375562 0.000000 -0.000001 2.733416 -0.899780 -0.545329
 14 0.728680 0.023432 -1.008292 1.210021 0.600763 0.006085
 15 2.136497 -0.000001 -0.000001 -0.000000 -0.000000 -0.078540
 16 2.313138 -0.000000 -0.000001 0.000000 0.000000 0.000000
 17 3.115506 -0.886040 -0.021431 -0.620285 0.000392 0.514872
 18 2.011150 0.000001 0.000000 -0.000000 -0.000000 1.322791
 19 2.141380 0.000000 0.000000 0.000000 0.000000 0.000000
 20 1.734172 0.000001 0.000000 -0.000000 -0.000000 0.660693
 21 0.000005 -4.440594 0.000000 1.570544 -0.062990 -0.195737
 22 5.999999 -0.000001 -0.000001 3.058054 0.000000 0.000000
 23 0.000001 -4.440601 -0.000000 1.569944 -0.062987 0.004053
 24 11.375560 -0.000001 0.000002 -2.514055 -0.293678 -0.539361
 25 -0.000001 -4.440603 0.000001 1.570144 -0.062988 0.004040
 26 10.510132 -0.000002 0.000000 0.000000 0.000000 -2.178117
 27 -0.000001 -1.748400 4.999999 -0.000000 0.004007 1.602291
 28 5.499999 -0.000000 -0.000001 -0.039365 0.000000 -0.000000
 29 -0.000000 -1.940597 5.000000 -0.044472 0.004003 -0.000180
 30 6.551491 0.000002 0.000002 -0.131672 0.884918 -0.776701
 31 0.000002 -1.940598 5.000000 -0.027189 -0.053376 0.005295
 32 6.551491 0.000002 0.000002 0.045231 0.384001 -0.276613
 33 0.000001 -1.940598 4.999996 -0.066572 -0.152786 -0.110311
 34 -0.480186 0.490787 -1.591958 0.529376 1.327290 3.121477
 35 6.384776 0.000000 0.000001 -0.212261 0.272658 -0.486742
 36 10.242682 -0.000000 -0.000000 -0.000000 0.000000 -2.328950
 37 11.375562 0.000002 0.000001 1.991458 0.016023 0.263044
 38 0.728680 0.023431 1.008292 -1.579583 -0.319038 0.212973
 39 2.136496 0.000001 0.000000 -0.000000 0.000000 1.282817
 40 2.313138 0.000000 0.000000 0.000000 0.000000 3.141593
 41 3.115506 -0.886041 0.021431 0.420766 0.316066 0.167178
 42 2.011151 -0.000000 -0.000000 -0.000000 0.000000 2.082010
 43 2.141380 -0.000001 -0.000000 0.000000 0.000000 3.141593
 44 1.734172 -0.000001 0.000000 0.000000 -0.000000 1.041748
 45 0.136316 -3.738192 2.525890 1.493698 2.759406 -1.474501
 46 5.613160 0.862367 3.157031 1.595152 -0.135386 0.061522
 47 11.389365 -0.000820 0.158782 1.780815 0.024458 0.148184
 48 -0.000002 -4.440598 0.000001 1.570144 -3.078602 0.004040
 49 5.999998 -0.000000 -0.000000 1.780815 -0.000000 0.000000
 50 0.000001 -4.440601 0.000001 1.569944 -3.078603 0.004053
 51 10.510133 -0.000002 0.000000 -0.000000 0.000000 -2.735271
 52 -0.000001 -1.748401 -5.000001 -3.141593 0.004007 -1.539299
 53 5.500000 -0.000000 -0.000000 0.060769 0.000000 -0.000000
 54 0.000000 0.000000 -5.000000 -0.044472 3.137589 -0.000177
 55 6.551490 0.000002 -0.000000 -0.060769 0.109138 -0.209509
 56 -1.266843 -1.937444 -4.950559 -0.066572 -2.988806 -0.110308
 57 6.551490 0.000002 -0.000000 -0.060769 0.109138 -0.209509
 58 0.699370 -1.944209 -5.006845 -0.027189 -3.088217 0.005298
 59 4.226145 -0.003203 -0.000001 -0.124748 -0.164073 0.319146
 60 0.000000 5.000003 -0.000000 -0.153564 0.000087 2.718702
 61 0.000004 -0.000005 -3.713579 0.095503 -3.012510 -0.750673
 62 0.000003 0.000001 4.999999 3.053197 1.558589 -0.074927
 63 -0.000007 0.000005 3.713580 -0.334410 -2.825096 -0.524885
 64 0.000001 -0.000000 -4.999999 -0.088726 1.558589 3.066334
 65 7.363603 1.646647 0.495663 -3.141593 -1.570796 0.000000
 66 -0.000006 0.000005 3.619081 -0.528284 -2.367383 -1.007256
 67 16.573921 -0.000001 0.000001 -0.000000 0.000000 -2.019199
 68 15.128181 0.000001 -0.000002 0.031619 0.086785 -0.033197
 69 5.758664 4.244731 -0.000000 0.000000 -0.000000 2.033309
 70 3.177726 0.000001 0.000000 0.000000 0.000000 3.141593
 71 15.708951 0.000002 -0.000003 0.016155 0.048356 -0.018185
 72 0.275149 0.189215 -3.445208 3.130898 0.000409 -1.514604
 73 17.210192 -0.000002 0.000002 0.000000 -0.000000 -2.322356
 74 0.000001 -0.000000 -5.000000 -0.079430 1.546568 -1.570856
 75 0.000006 -0.000005 -3.619080 0.196495 -3.011952 -1.279118
 76 16.573921 0.000000 0.000000 -0.000000 0.000000 -1.611348
 77 15.128181 -0.000002 0.000000 0.214418 -0.027533 0.774389
 78 5.758665 4.244730 -0.000000 -0.000000 -0.000000 1.483530
 79 4.003934 0.000000 0.000001 0.000000 0.000000 0.000000
 80 15.708953 -0.000001 0.000000 0.153371 0.002792 0.528179
 81 0.273998 0.191089 3.439762 -3.130907 -0.000437 -1.508107
 82 17.210192 0.000000 0.000000 0.000000 -0.000000 -2.138823
 83 0.000001 0.000001 5.000000 -0.079311 1.595025 -1.570737
time 12
  0 1.130557 9.712686 27.009436 -0.281436 0.436358 -2.443536
  1 11.368429 6.770639 -23.418964 -0.498313 0.132926 2.346876
  2 -2.276934 0.000003 -1.238187 -1.570795 -1.570451 0.000000
  3 1.796688 0.712110 -0.001331 0.475613 -0.485296 -0.388031
  4 4.118975 -0.003021 -0.001223 0.386951 0.157799 0.185706
  5 4.119146 -0.003234 0.000064 -0.019994 0.261510 0.161570
  6 4.119179 -0.003139 -0.000760 0.236877 0.163353 0.220271
  7 4.120409 -0.002874 0.000994 -0.296295 -0.272635 0.643272
  8 4.443598 0.000003 -0.000000 0.901437 -0.286120 -0.893083
  9 9.024061 -0.000000 -0.000001 0.000000 0.000000 0.000000
 10 0.466568 -0.483696 1.596007 1.048715 -2.074215 1.374736
 11 6.384776 0.000002 0.000001 -0.659253 1.103630 -1.565585
 12 10.242682 0.000000 0.000000 -0.000000 0.000000 -1.221414
 13 11.375560 0.000000 -0.000001 2.732273 -0.890390 -0.550072
 14 0.728681 0.023430 -1.008293 1.210021 0.600763 0.006085
 15 2.136497 -0.000000 0.000000 -0.000000 -0.000000 -0.078540
 16 2.313139 -0.000001 -0.000000 0.000000 0.000000 0.000000
 17 3.115506 -0.886041 -0.021431 -0.620285 0.000392 0.514872
 18 2.011150 -0.000001 0.000000 -0.000000 -0.000000 1.322792
 19 2.141381 -0.000000 0.000000 0.000000 0.000000 0.000000
 20 1.734172 0.000002 0.000001 0.000000 -0.000000 0.660693
 21 0.000006 -4.440594 0.000000 1.570544 -0.062990 -0.195737
 22 5.999999 0.000000 -0.000000 3.055267 -0.000000 -0.000000
 23 0.000000 -4.440601 -0.000001 1.569944 -0.062987 0.004053
 24 11.375560 0.000000 0.000002 -2.517046 -0.287291 -0.538930
 25 -0.000002 -4.440603 -0.000000 1.570144 -0.062988 0.004040
 26 10.510131 -0.000001 -0.000000 0.000000 -0.000000 -2.181503
 27 0.000000 -1.748402 4.999998 0.000000 0.004007 1.602291
 28 5.500001 -0.000000 0.000001 -0.040670 0.000000 -0.000000
 29 0.000001 -1.940598 5.000000 -0.044472 0.004003 -0.000180
 30 6.551490 -0.000000 -0.000001 -0.134646 0.897592 -0.779010
 31 0.000001 -1.940596 5.000001 -0.027189 -0.053376 0.005295
 32 6.551490 0.000000 -0.000001 0.046379 0.388125 -0.274638
 33 -0.000000 -1.940597 4.999996 -0.066572 -0.152786 -0.110311
 34 -0.466566 0.490774 -1.596006 0.541104 1.335535 3.134139
 35 6.384775 0.000001 -0.000000 -0.203710 0.279902 -0.472490
 36 10.242682 0.000000 -0.000001 -0.000000 0.000000 -2.337858
 37 11.375561 0.000000 0.000002 1.995417 0.009376 0.257419
 38 0.728680 0.023431 1.008292 -1.579583 -0.319038 0.212973
 39 2.136495 -0.000001 0.000000 -0.000000 -0.000000 1.282817
 40 2.313139 -0.000000 0.000000 0.000000 0.000000 3.141593
 41 3.115505 -0.886041 0.021432 0.420766 0.316066 0.167178
 42 2.011151 0.000000 0.000000 0.000000 0.000000 2.082010
 43 2.141379 -0.000001 0.000000 0.000000 0.000000 3.141593
 44 1.734173 -0.000001 -0.000000 -0.000000 -0.000000 1.041748
 45 0.136315 -3.738191 2.525890 1.493698 2.759406 -1.474501
 46 5.613159 0.862368 3.157031 1.595152 -0.135386 0.061522
 47 11.389366 -0.000820 0.158784 1.782962 0.020606 0.145536
 48 -0.000000 -4.440598 0.000002 1.570144 -3.078602 0.004040
 49 5.999999 -0.000001 0.000001 1.782962 -0.000000 0.000000
 50 0.000001 -4.440601 0.000001 1.569944 -3.078603 0.004053
 51 10.510132 -0.000002 0.000000 -0.000000 -0.000000 -2.739725
 52 -0.000001 -1.748401 -5.000000 -3.141593 0.004007 -1.539299
 53 5.499999 -0.000000 -0.000001 0.058222 -0.000000 -0.000000
 54 0.000000 0.000001 -4.999999 -0.044472 3.137589 -0.000177
 55 6.551490 0.000002 -0.000001 -0.058222 0.111645 -0.206573
 56 -1.266842 -1.937443 -4.950561 -0.066572 -2.988806 -0.110308
 57 6.551490 0.000002 -0.000001 -0.058222 0.111645 -0.206573
 58 0.699371 -1.944210 -5.006846 -0.027189 -3.088217 0.005298
 59 4.226146 -0.003202 0.000000 -0.125297 -0.159931 0.318530
 60 0.000001 5.000000 0.000000 -0.153564 0.000087 2.718702
 61 0.000004 -0.000005 -3.713579 0.095503 -3.012510 -0.750673
 62 0.000003 0.000001 4.999999 3.053197 1.558589 -0.074927
 63 -0.000007 0.000005 3.713580 -0.334410 -2.825096 -0.524885
 64 0.000001 -0.000000 -4.999999 -0.088726 1.558589 3.066334
 65 7.363603 1.646647 0.495663 -3.141593 -1.570796 0.000000
 66 -0.000006 0.000005 3.619081 -0.528284 -2.367383 -1.007256
 67 16.573921 -0.000001 0.000001 -0.000000 0.000000 -2.019199
 68 15.128181 0.000001 -0.000002 0.031619 0.086785 -0.033197
 69 5.758664 4.244731 -0.000000 0.000000 -0.000000 2.033309
 70 3.177726 0.000001 0.000000 0.000000 0.000000 3.141593
 71 15.708951 0.000002 -0.000003 0.016155 0.048356 -0.018185
 72 0.275149 0.189215 -3.445208 3.130898 0.000409 -1.514604
 73 17.210192 -0.000002 0.000002 0.000000 -0.000000 -2.322356
 74 0.000001 -0.000000 -5.000000 -0.079430 1.546568 -1.570856
 75 0.000006 -0.000005 -3.619080 0.196495 -3.011952 -1.279118
 76 16.573921 0.000000 0.000000 -0.000000 0.000000 -1.611348
 77 15.128181 -0.000002 0.000000 0.214418 -0.027533 0.774389
 78 5.758665 4.244730 -0.000000 -0.000000 -0.000000 1.483530
 79 4.003934 0.000000 0.000001 0.000000 0.000000 0.000000
 80 15.708953 -0.000001 0.000000 0.153371 0.002792 0.528179
 81 0.273998 0.191089 3.439762 -3.130907 -0.000437 -1.508107
 82 17.210192 0.000000 0.000000 0.000000 -0.000000 -2.138823
 83 0.000001 0.000001 5.000000 -0.079311 1.595025 -1.570737
time 13
  0 1.130557 9.712686 27.009436 -0.281436 0.436358 -2.443536
  1 11.368429 6.770639 -23.418964 -0.498313 0.132926 2.346876
  2 -2.276934 0.000003 -1.238187 -1.570795 -1.570451 0.000000
  3 1.796688 0.712110 -0.001331 0.475613 -0.485296 -0.388031
  4 4.118974 -0.003022 -0.001220 0.386146 0.161806 0.187368
  5 4.119143 -0.003232 0.000067 -0.021042 0.262666 0.160464
  6 4.119180 -0.003141 -0.000760 0.236877 0.163353 0.220271
  7 4.120409 -0.002873 0.000993 -0.295690 -0.265505 0.641016
  8 4.443598 0.000000 -0.000000 0.908000 -0.300638 -0.891832
  9 9.024061 -0.000002 -0.000000 0.000000 0.000000 0.000000
 10 0.454659 -0.483690 1.599442 1.063832 -2.075709 1.361499
 11 6.384777 0.000000 -0.000001 -0.685785 1.117289 -1.585230
 12 10.242682 0.000001 0.000000 0.000000 0.000000 -1.225896
 13 11.375560 0.000001 -0.000001 2.729175 -0.880722 -0.555460
 14 0.728681 0.023431 -1.008292 1.210021 0.600763 0.006085
 15 2.136496 0.000000 0.000000 -0.000000 -0.000000 -0.078540
 16 2.313139 -0.000001 -0.000000 0.000000 0.000000 0.000000
 17 3.115506 -0.886040 -0.021431 -0.620285 0.000392 0.514872
 18 2.011150 -0.000000 0.000001 -0.000000 -0.000000 1.322792
 19 2.141380 0.000000 0.000000 0.000000 0.000000 0.000000
 20 1.734172 0.000001 0.000001 -0.000000 0.000000 0.660693
 21 0.000004 -4.440593 0.000001 1.570544 -0.062990 -0.195737
 22 6.000000 0.000001 -0.000000 3.050294 0.000000 0.000000
 23 0.000001 -4.440601 -0.000000 1.569944 -0.062987 0.004053
 24 11.375560 0.000001 0.000002 -2.521028 -0.280285 -0.539055
 25 -0.000002 -4.440603 0.000000 1.570144 -0.062988 0.004040
 26 10.510132 0.000000 0.000000 -0.000000 0.000000 -2.183744
 27 -0.000001 -1.748399 4.999999 -0.000000 0.004007 1.602290
 28 5.500001 -0.000000 0.000000 -0.042009 -0.000000 0.000000
 29 0.000000 -1.940599 5.000000 -0.044472 0.004003 -0.000180
 30 6.551490 -0.000001 -0.000002 -0.137726 0.910651 -0.780980
 31 0.000001 -1.940597 5.000000 -0.027189 -0.053376 0.005295
 32 6.551490 -0.000001 -0.000002 0.047543 0.392341 -0.272421
 33 0.000000 -1.940599 4.999994 -0.066572 -0.152786 -0.110311
 34 -0.454656 0.490763 -1.599443 0.552167 1.342696 -3.137182
 35 6.384776 -0.000000 0.000000 -0.195187 0.288182 -0.462248
 36 10.242682 0.000001 -0.000001 0.000000 -0.000000 -2.345113
 37 11.375560 -0.000002 0.000002 2.000952 0.001217 0.253519
 38 0.728680 0.023431 1.008291 -1.579583 -0.319038 0.212973
 39 2.136497 0.000000 0.000000 -0.000000 0.000000 1.282817
 40 2.313140 -0.000000 0.000000 0.000000 0.000000 3.141593
 41 3.115505 -0.886040 0.021431 0.420765 0.316066 0.167178
 42 2.011151 0.000000 -0.000000 0.000000 0.000000 2.082010
 43 2.141380 -0.000001 -0.000000 0.000000 0.000000 3.141593
 44 1.734172 -0.000001 -0.000000 -0.000000 -0.000000 1.041748
 45 0.136316 -3.738192 2.525889 1.493698 2.759406 -1.474501
 46 5.613159 0.862368 3.157030 1.595152 -0.135386 0.061522
 47 11.389366 -0.000821 0.158784 1.785918 0.016061 0.143900
 48 -0.000000 -4.440598 -0.000000 1.570144 -3.078602 0.004040
 49 6.000000 0.000000 0.000002 1.785918 0.000000 -0.000000
 50 0.000001 -4.440601 -0.000001 1.569944 -3.078603 0.004053
 51 10.510132 0.000002 -0.000000 -0.000000 -0.000000 -2.743353
 52 -0.000001 -1.748399 -5.000000 -3.141593 0.004007 -1.539299
 53 5.500000 0.000001 -0.000000 0.055389 -0.000000 -0.000000
 54 0.000001 0.000001 -4.999999 -0.044472 3.137589 -0.000177
 55 6.551490 0.000001 -0.000000 -0.055389 0.114419 -0.204292
 56 -1.266843 -1.937442 -4.950559 -0.066572 -2.988806 -0.110308
 57 6.551490 0.000001 -0.000000 -0.055389 0.114419 -0.204292
 58 0.699370 -1.944205 -5.006847 -0.027189 -3.088217 0.005298
 59 4.226144 -0.003199 -0.000001 -0.125775 -0.156315 0.317988
 60 -0.000000 5.000000 -0.000000 -0.153564 0.000087 2.718702
 61 0.000004 -0.000005 -3.713579 0.095503 -3.012510 -0.750673
 62 0.000003 0.000001 4.999999 3.053197 1.558589 -0.074927
 63 -0.000007 0.000005 3.713580 -0.334410 -2.825096 -0.524885
 64 0.000001 -0.000000 -4.999999 -0.088726 1.558589 3.066334
 65 7.363603 1.646647 0.495663 -3.141593 -1.570796 0.000000
 66 -0.000006 0.000005 3.619081 -0.528284 -2.367383 -1.007256
 67 16.573921 -0.000001 0.000001 -0.000000 0.000000 -2.019199
 68 15.128181 0.000001 -0.000002 0.031619 0.086785 -0.033197
 69 5.758664 4.244731 -0.000000 0.000000 -0.000000 2.033309
 70 3.177726 0.000001 0.000000 0.000000 0.000000 3.141593
 71 15.708951 0.000002 -0.000003 0.016155 0.048356 -0.018185
 72 0.275149 0.189215 -3.445208 3.130898 0.000409 -1.514604
 73 17.210192 -0.000002 0.000002 0.000000 -0.000000 -2.322356
 74 0.000001 -0.000000 -5.000000 -0.079430 1.546568 -1.570856
 75 0.000006 -0.000005 -3.619080 0.196495 -3.011952 -1.279118
 76 16.573921 0.000000 0.000000 -0.000000 0.000000 -1.611348
 77 15.128181 -0.000002 0.000000 0.214418 -0.027533 0.774389
 78 5.758665 4.244730 -0.000000 -0.000000 -0.000000 1.483530
 79 4.003934 0.000000 0.000001 0.000000 0.000000 0.000000
 80 15.708953 -0.000001 0.000000 0.153371 0.002792 0.528179
 81 0.273998 0.191089 3.439762 -3.130907 -0.000437 -1.508107
 82 17.210192 0.000000 0.000000 0.000000 -0.000000 -2.138823
 83 0.000001 0.000001 5.000000 -0.079311 1.595025 -1.570737
time 14
  0 1.130557 9.712686 27.009436 -0.281436 0.436358 -2.443536
  1 11.368429 6.770639 -23.418964 -0.498313 0.132926 2.346876
  2 -2.276934 0.000003 -1.238187 -1.570795 -1.570451 0.000000
  3 1.796688 0.712110 -0.001331 0.475613 -0.485296 -0.388031
  4 4.118976 -0.003024 -0.001217 0.385296 0.166072 0.189135
  5 4.119140 -0.003233 0.000071 -0.022160 0.263895 0.159285
  6 4.119180 -0.003142 -0.000760 0.236877 0.163353 0.220271
  7 4.120410 -0.002875 0.000994 -0.295272 -0.260462 0.639427
  8 4.443599 -0.000000 -0.000000 0.913413 -0.312765 -0.890646
  9 9.024062 -0.000001 -0.000000 0.000000 0.000000 0.000000
 10 0.446220 -0.483679 1.601820 1.074474 -2.076825 1.352188
 11 6.384778 0.000001 0.000002 -0.712797 1.125762 -1.600240
 12 10.242682 -0.000001 0.000001 0.000000 -0.000000 -1.221369
 13 11.375560 -0.000002 -0.000001 2.720639 -0.868743 -0.563540
 14 0.728681 0.023430 -1.008292 1.210021 0.600763 0.006085
 15 2.136496 -0.000000 -0.000000 -0.000000 -0.000000 -0.078540
 16 2.313138 -0.000000 0.000001 0.000000 0.000000 0.000000
 17 3.115506 -0.886043 -0.021432 -0.620285 0.000392 0.514872
 18 2.011150 -0.000000 -0.000000 0.000000 -0.000000 1.322792
 19 2.141379 0.000001 0.000000 0.000000 0.000000 0.000000
 20 1.734171 -0.000001 -0.000001 0.000000 0.000000 0.660693
 21 0.000006 -4.440593 -0.000000 1.570544 -0.062990 -0.195737
 22 6.000000 0.000000 -0.000000 3.038861 -0.000000 -0.000000
 23 0.000001 -4.440601 -0.000001 1.569944 -0.062987 0.004053
 24 11.375563 0.000001 0.000003 -2.528266 -0.270480 -0.540652
 25 -0.000001 -4.440604 0.000002 1.570144 -0.062988 0.004040
 26 10.510130 -0.000000 -0.000000 -0.000000 -0.000000 -2.181481
 27 0.000000 -1.748400 4.999998 -0.000000 0.004007 1.602291
 28 5.499998 0.000001 0.000001 -0.041774 0.000000 -0.000000
 29 0.000000 -1.940597 5.000000 -0.044472 0.004003 -0.000180
 30 6.551490 -0.000001 -0.000001 -0.142803 0.920056 -0.782887
 31 0.000001 -1.940598 5.000000 -0.027189 -0.053376 0.005295
 32 6.551491 -0.000001 -0.000001 0.047429 0.395601 -0.270639
 33 0.000001 -1.940599 4.999996 -0.066572 -0.152786 -0.110311
 34 -0.446217 0.490757 -1.601820 0.552291 1.347968 -3.137061
 35 6.384777 -0.000000 -0.000002 -0.193080 0.294097 -0.469909
 36 10.242682 -0.000001 -0.000001 -0.000000 -0.000000 -2.343706
 37 11.375561 -0.000000 0.000002 2.006844 -0.004621 0.258109
 38 0.728680 0.023431 1.008292 -1.579583 -0.319038 0.212973
 39 2.136497 -0.000000 0.000000 -0.000000 0.000000 1.282817
 40 2.313140 0.000000 0.000000 0.000000 0.000000 3.141593
 41 3.115506 -0.886041 0.021431 0.420766 0.316066 0.167178
 42 2.011150 0.000000 0.000000 0.000000 -0.000000 2.082010
 43 2.141379 -0.000000 0.000001 0.000000 0.000000 3.141593
 44 1.734171 -0.000001 0.000000 -0.000000 -0.000000 1.041748
 45 0.136315 -3.738191 2.525890 1.493698 2.759406 -1.474501
 46 5.613160 0.862368 3.157029 1.595152 -0.135386 0.061522
 47 11.389366 -0.000820 0.158784 1.788988 0.013327 0.146712
 48 0.000000 -4.440599 -0.000001 1.570144 -3.078602 0.004040
 49 6.000000 0.000001 0.000002 1.788988 -0.000000 0.000000
 50 0.000001 -4.440601 0.000000 1.569944 -3.078603 0.004053
 51 10.510131 -0.000000 -0.000001 -0.000000 -0.000000 -2.742649
 52 -0.000000 -1.748398 -5.000000 3.141593 0.004007 -1.539299
 53 5.500000 -0.000001 -0.000000 0.053846 0.000000 -0.000000
 54 0.000000 0.000001 -5.000000 -0.044472 3.137589 -0.000177
 55 6.551491 -0.000001 -0.000001 -0.053846 0.115993 -0.205546
 56 -1.266843 -1.937443 -4.950559 -0.066572 -2.988806 -0.110308
 57 6.551491 -0.000001 -0.000001 -0.053846 0.115993 -0.205546
 58 0.699371 -1.944207 -5.006846 -0.027189 -3.088217 0.005298
 59 4.226145 -0.003200 -0.000000 -0.126112 -0.153756 0.317603
 60 -0.000001 5.000000 0.000000 -0.153564 0.000087 2.718702
 61 0.000004 -0.000005 -3.713579 0.095503 -3.012510 -0.750673
 62 0.000003 0.000001 4.999999 3.053197 1.558589 -0.074927
 63 -0.000007 0.000005 3.713580 -0.334410 -2.825096 -0.524885
 64 0.000001 -0.000000 -4.999999 -0.088726 1.558589 3.066334
 65 7.363603 1.646647 0.495663 -3.141593 -1.570796 0.000000
 66 -0.000006 0.000005 3.619081 -0.528284 -2.367383 -1.007256
 67 16.573921 -0.000001 0.000001 -0.000000 0.000000 -2.019199
 68 15.128181 0.000001 -0.000002 0.031619 0.086785 -0.033197
 69 5.758664 4.244731 -0.000000 0.000000 -0.000000 2.033309
 70 3.177726 0.000001 0.000000 0.000000 0.000000 3.141593
 71 15.708951 0.000002 -0.000003 0.016155 0.048356 -0.018185
 72 0.275149 0.189215 -3.445208 3.130898 0.000409 -1.514604
 73 17.210192 -0.000002 0.000002 0.000000 -0.000000 -2.322356
 74 0.000001 -0.000000 -5.000000 -0.079430 1.546568 -1.570856
 75 0.000006 -0.000005 -3.619080 0.196495 -3.011952 -1.279118
 76 16.573921 0.000000 0.000000 -0.000000 0.000000 -1.611348
 77 15.128181 -0.000002 0.000000 0.214418 -0.027533 0.774389
 78 5.758665 4.244730 -0.000000 -0.000000 -0.000000 1.483530
 79 4.003934 0.000000 0.000001 0.000000 0.000000 0.000000
 80 15.708953 -0.000001 0.000000 0.153371 0.002792 0.528179
 81 0.273998 0.191089 3.439762 -3.130907 -0.000437 -1.508107
 82 17.210192 0.000000 0.000000 0.000000 -0.000000 -2.138823
 83 0.000001 0.000001 5.000000 -0.079311 1.595025 -1.570737
time 15
  0 1.130557 9.712686 27.009436 -0.281436 0.436358 -2.443536
  1 11.368429 6.770639 -23.418964 -0.498313 0.132926 2.346876
  2 -2.276934 0.000003 -1.238187 -1.570795 -1.570451 0.000000
  3 1.796688 0.712110 -0.001331 0.475613 -0.485296 -0.388031
  4 4.118976 -0.003025 -0.001213 0.384554 0.169822 0.190685
  5 4.119142 -0.003237 0.000073 -0.023144 0.264974 0.158248
  6 4.119177 -0.003137 -0.000760 0.236877 0.163353 0.220271
  7 4.120410 -0.002879 0.000994 -0.295116 -0.258548 0.638825
  8 4.443598 0.000003 -0.000000 0.916613 -0.320111 -0.889637
  9 9.024060 -0.000001 0.000000 0.000000 0.000000 0.000000
 10 0.443016 -0.483676 1.602710 1.078499 -2.077260 1.348668
 11 6.384776 0.000001 0.000000 -0.739535 1.133644 -1.615400
 12 10.242681 0.000001 -0.000000 0.000000 0.000000 -1.217366
 13 11.375562 0.000000 -0.000000 2.712357 -0.856892 -0.571123
 14 0.728681 0.023430 -1.008292 1.210021 0.600763 0.006085
 15 2.136497 -0.000001 -0.000000 0.000000 0.000000 -0.078540
 16 2.313139 -0.000000 -0.000001 0.000000 0.000000 0.000000
 17 3.115506 -0.886041 -0.021430 -0.620285 0.000392 0.514872
 18 2.011151 0.000000 0.000001 0.000000 -0.000000 1.322791
 19 2.141380 0.000000 0.000000 0.000000 0.000000 0.000000
 20 1.734172 0.000001 -0.000000 0.000000 -0.000000 0.660693
 21 0.000005 -4.440592 0.000001 1.570544 -0.062990 -0.195737
 22 6.000000 -0.000001 -0.000001 3.027778 0.000000 -0.000000
 23 0.000002 -4.440601 -0.000001 1.569944 -0.062987 0.004053
 24 11.375563 -0.000000 0.000002 -2.535294 -0.260794 -0.542057
 25 -0.000001 -4.440603 0.000000 1.570144 -0.062988 0.004040
 26 10.510133 -0.000000 -0.000000 0.000000 0.000000 -2.179479
 27 -0.000000 -1.748402 4.999999 0.000000 0.004007 1.602291
 28 5.500000 0.000001 0.000000 -0.041543 0.000000 -0.000000
 29 -0.000002 -1.940598 5.000000 -0.044472 0.004003 -0.000180
 30 6.551491 0.000000 -0.000001 -0.147814 0.929054 -0.784860
 31 0.000000 -1.940598 5.000000 -0.027189 -0.053376 0.005295
 32 6.551491 0.000000 -0.000001 0.047315 0.398693 -0.268930
 33 -0.000000 -1.940600 4.999996 -0.066572 -0.152786 -0.110311
 34 -0.443013 0.490757 -1.602709 0.552340 1.349968 -3.137014
 35 6.384776 -0.000002 -0.000000 -0.191281 0.299261 -0.476658
 36 10.242682 -0.000003 -0.000000 0.000000 -0.000000 -2.342414
 37 11.375561 -0.000002 0.000001 2.011975 -0.009801 0.262043
 38 0.728680 0.023431 1.008293 -1.579583 -0.319038 0.212973
 39 2.136496 0.000001 0.000000 -0.000000 -0.000000 1.282817
 40 2.313139 -0.000000 0.000000 0.000000 0.000000 3.141593
 41 3.115506 -0.886040 0.021432 0.420766 0.316066 0.167178
 42 2.011151 0.000000 -0.000001 0.000000 0.000000 2.082010
 43 2.141380 -0.000001 0.000001 0.000000 0.000000 3.141593
 44 1.734172 -0.000001 -0.000000 -0.000000 0.000000 1.041748
 45 0.136315 -3.738192 2.525889 1.493698 2.759406 -1.474501
 46 5.613160 0.862368 3.157031 1.595152 -0.135386 0.061522
 47 11.389366 -0.000820 0.158783 1.791667 0.010898 0.149131
 48 -0.000001 -4.440599 0.000001 1.570144 -3.078602 0.004040
 49 6.000000 0.000000 0.000001 1.791666 -0.000000 0.000000
 50 0.000001 -4.440601 -0.000001 1.569944 -3.078603 0.004053
 51 10.510131 -0.000001 -0.000001 0.000000 0.000000 -2.742003
 52 -0.000001 -1.748401 -5.000001 3.141593 0.004007 -1.539299
 53 5.500000 -0.000002 -0.000001 0.052495 -0.000000 -0.000000
 54 -0.000000 0.000002 -5.000000 -0.044472 3.137590 -0.000177
 55 6.551490 -0.000001 -0.000001 -0.052495 0.117364 -0.206634
 56 -1.266843 -1.937442 -4.950559 -0.066572 -2.988806 -0.110308
 57 6.551491 -0.000001 -0.000001 -0.052495 0.117364 -0.206634
 58 0.699371 -1.944206 -5.006846 -0.027189 -3.088217 0.005298
 59 4.226146 -0.003205 -0.000001 -0.126239 -0.152785 0.317456
 60 -0.000001 5.000000 0.000000 -0.153564 0.000087 2.718702
 61 0.000004 -0.000005 -3.713579 0.095503 -3.012510 -0.750673
 62 0.000003 0.000001 4.999999 3.053197 1.558589 -0.074927
 63 -0.000007 0.000005 3.713580 -0.334410 -2.825096 -0.524885
 64 0.000001 -0.000000 -4.999999 -0.088726 1.558589 3.066334
 65 7.363603 1.646647 0.495663 -3.141593 -1.570796 0.000000
 66 -0.000006 0.000005 3.619081 -0.528284 -2.367383 -1.007256
 67 16.573921 -0.000001 0.000001 -0.000000 0.000000 -2.019199
 68 15.128181 0.000001 -0.000002 0.031619 0.086785 -0.033197
 69 5.758664 4.244731 -0.000000 0.000000 -0.000000 2.033309
 70 3.177726 0.000001 0.000000 0.000000 0.000000 3.141593
 71 15.708951 0.000002 -0.000003 0.016155 0.048356 -0.018185
 72 0.275149 0.189215 -3.445208 3.130898 0.000409 -1.514604
 73 17.210192 -0.000002 0.000002 0.000000 -0.000000 -2.322356
 74 0.000001 -0.000000 -5.000000 -0.079430 1.546568 -1.570856
 75 0.000006 -0.000005 -3.619080 0.196495 -3.011952 -1.279118
 76 16.573921 0.000000 0.000000 -0.000000 0.000000 -1.611348
 77 15.128181 -0.000002 0.000000 0.214418 -0.027533 0.774389
 78 5.758665 4.244730 -0.000000 -0.000000 -0.000000 1.483530
 79 4.003934 0.000000 0.000001 0.000000 0.000000 0.000000
 80 15.708953 -0.000001 0.000000 0.153371 0.002792 0.528179
 81 0.273998 0.191089 3.439762 -3.130907 -0.000437 -1.508107
 82 17.210192 0.000000 0.000000 0.000000 -0.000000 -2.138823
 83 0.000001 0.000001 5.000000 -0.079311 1.595025 -1.570737
end
