version 1
nodes
  0 "Bip01"  -1
  1 "Bip01 Footsteps"   0
  2 "Bip01 Pelvis"   0
  3 "Bip01 Spine"   2
  4 "Bip01 Spine1"   3
  5 "Bip01 Spine2"   4
  6 "Bip01 Spine3"   5
  7 "Bip01 Neck"   6
  8 "Bip01 Head"   7
  9 "Dummy21"   8
 10 "Bip01 L Clavicle"   7
 11 "Bip01 L UpperArm"  10
 12 "Bip01 L Forearm"  11
 13 "Bip01 L Hand"  12
 14 "Bip01 L Finger0"  13
 15 "Bip01 L Finger01"  14
 16 "Dummy06"  15
 17 "Bip01 L Finger1"  13
 18 "Bip01 L Finger11"  17
 19 "Dummy03"  18
 20 "-- L knuckle"  17
 21 "-- L knuckle_end"  20
 22 "-- L Forearm twist"  12
 23 "-- L Forearm twist_end"  22
 24 "-- L wrist"  12
 25 "-- L wrist_end"  24
 26 "-- L Elbow"  11
 27 "--L Elbow_end"  26
 28 "-- L bicep twist"  11
 29 "-- L bicep twist_end"  28
 30 "-- L shoulder outside"  10
 31 "-- L shoulder outside_end"  30
 32 "-- L Shoulder inside"  10
 33 "-- L Shoulder inside_end"  32
 34 "Bip01 R Clavicle"   7
 35 "Bip01 R UpperArm"  34
 36 "Bip01 R Forearm"  35
 37 "Bip01 R Hand"  36
 38 "Bip01 R Finger0"  37
 39 "Bip01 R Finger01"  38
 40 "Dummy01"  39
 41 "Bip01 R Finger1"  37
 42 "Bip01 R Finger11"  41
 43 "Dummy02"  42
 44 "-- R knuckle"  41
 45 "Point06"  44
 46 "Line01"  37
 47 "-- R wrist"  36
 48 "-- R wrist_end"  47
 49 "-- R forearm twist"  36
 50 "-- R forearm twist_end"  49
 51 "-- R Elbow"  35
 52 "--R Elbow_end"  51
 53 "-- R bicep twist"  35
 54 "-- R bicep twist_end"  53
 55 "-- R Shoulder inside"  34
 56 "-- R Shoulder inside_end"  55
 57 "-- R shoulder outside"  34
 58 "-- R shoulder outside_end"  57
 59 "-- Neck smooth"   6
 60 "-- neck smooth end"  59
 61 "-- R Butt"   2
 62 "--R Butt_end"  61
 63 "-- L butt"   2
 64 "--L butt_end"  63
 65 "GIGN01"   2
 66 "Bip01 L Thigh"   2
 67 "Bip01 L Calf"  66
 68 "Bip01 L Foot"  67
 69 "Bip01 L Toe0"  68
 70 "Dummy16"  69
 71 "-- L ankle"  67
 72 "-- L ankleend"  71
 73 "-- L Knee"  66
 74 "--L Knee_end"  73
 75 "Bip01 R Thigh"   2
 76 "Bip01 R Calf"  75
 77 "Bip01 R Foot"  76
 78 "Bip01 R Toe0"  77
 79 "Dummy11"  78
 80 "-- R Ankle"  76
 81 "-- R ankleend"  80
 82 "-- R Knee"  75
 83 "--R Knee_end"  82
end
skeleton
time 0
  0 1.130557 9.712686 27.009436 -0.281436 0.436358 -2.443536
  1 11.368429 6.770639 -23.418964 -0.498313 0.132926 2.346876
  2 -2.276934 0.000003 -1.238187 -1.570795 -1.570451 0.000000
  3 1.796604 0.712140 -0.001364 0.438073 -0.204736 -0.276714
  4 4.118954 -0.003010 -0.001253 0.393563 0.087871 0.152408
  5 4.118721 -0.003273 0.000185 -0.058745 0.279874 0.020481
  6 4.119350 -0.003195 0.000036 -0.010871 0.071825 0.227775
  7 4.120409 -0.002875 0.000993 -0.286769 0.118046 0.526565
  8 4.443598 0.000001 -0.000001 1.914941 0.057264 -0.979426
  9 9.024061 -0.000001 0.000000 0.000000 0.000000 0.000000
 10 -0.204067 -0.483164 1.650393 -1.441884 -0.874383 -2.312635
 11 6.384775 -0.000002 -0.000001 -0.649109 1.060867 -1.267730
 12 10.242682 0.000002 -0.000001 -0.000000 0.000000 -2.261601
 13 11.375561 0.000000 -0.000002 -2.019913 -0.612050 -0.432684
 14 0.728681 0.023431 -1.008292 1.210021 0.600763 0.006085
 15 2.136495 0.000000 0.000000 -0.000000 -0.000000 -0.078540
 16 2.313139 -0.000000 0.000000 0.000000 0.000000 0.000000
 17 3.115506 -0.886040 -0.021432 -0.620285 0.000392 0.514872
 18 2.011151 0.000000 0.000000 -0.000000 0.000000 1.322792
 19 2.141379 -0.000001 -0.000000 0.000000 0.000000 0.000000
 20 1.734174 0.000001 -0.000000 0.000000 0.000000 0.660693
 21 0.000005 -4.440592 0.000000 1.570544 -0.062990 -0.195737
 22 6.000000 0.000001 -0.000002 -1.921640 -0.000000 0.000000
 23 0.000001 -4.440600 -0.000002 1.569944 -0.062987 0.004053
 24 11.375561 0.000001 0.000001 -1.814763 -0.291135 -0.246238
 25 -0.000001 -4.440603 0.000001 1.570144 -0.062988 0.004040
 26 10.510132 0.000000 -0.000002 0.000000 0.000000 -2.701597
 27 -0.000001 -1.748400 4.999999 -0.000000 0.004007 1.602291
 28 5.499999 0.000001 -0.000001 -0.019604 -0.000000 0.000000
 29 -0.000003 -1.940597 5.000001 -0.044472 0.004003 -0.000180
 30 6.551490 0.000000 0.000002 -0.111901 0.810221 -0.643467
 31 0.000002 -1.940598 5.000000 -0.027189 -0.053376 0.005295
 32 6.551490 0.000000 0.000002 0.026787 0.365522 -0.246222
 33 -0.000000 -1.940598 4.999995 -0.066572 -0.152786 -0.110311
 34 0.204069 0.490242 -1.650393 -1.417603 0.879983 1.194694
 35 6.384776 0.000002 -0.000002 -0.445346 0.493579 -0.539699
 36 10.242682 -0.000001 0.000001 -0.000000 -0.000000 -1.635868
 37 11.375560 -0.000001 0.000001 1.569556 0.788545 -1.122690
 38 0.728680 0.023432 1.008292 -1.579583 -0.319038 0.212973
 39 2.136497 0.000000 -0.000001 0.000000 -0.000000 1.282817
 40 2.313139 -0.000000 -0.000000 0.000000 0.000000 3.141593
 41 3.115506 -0.886040 0.021432 0.420765 0.316066 0.167178
 42 2.011151 0.000000 0.000001 -0.000000 0.000000 2.082010
 43 2.141379 -0.000000 -0.000001 0.000000 0.000000 3.141593
 44 1.734172 -0.000001 -0.000000 -0.000000 0.000000 1.041748
 45 0.136315 -3.738193 2.525892 1.493698 2.759406 -1.474501
 46 5.613160 0.862366 3.157033 1.595152 -0.135386 0.061522
 47 11.389365 -0.000820 0.158783 1.688532 0.393450 -0.494598
 48 -0.000000 -4.440600 0.000001 1.570144 -3.078602 0.004040
 49 5.999999 0.000000 0.000001 1.688532 -0.000000 0.000000
 50 -0.000000 -4.440601 0.000000 1.569944 -3.078603 0.004053
 51 10.510132 0.000000 0.000001 -0.000000 0.000000 -2.388731
 52 -0.000001 -1.748399 -5.000000 3.141593 0.004007 -1.539299
 53 5.500000 0.000001 -0.000001 0.118035 0.000000 0.000000
 54 0.000000 0.000000 -5.000000 -0.044472 3.137589 -0.000177
 55 6.551491 0.000001 -0.000000 -0.118035 0.176072 -0.191798
 56 -1.266843 -1.937443 -4.950560 -0.066572 -2.988806 -0.110308
 57 6.551491 0.000001 -0.000001 -0.118035 0.176072 -0.191798
 58 0.699370 -1.944207 -5.006847 -0.027189 -3.088217 0.005298
 59 4.226146 -0.003203 -0.000000 -0.150144 0.041230 0.281891
 60 -0.000001 5.000002 0.000000 -0.153564 0.000087 2.718702
 61 0.000004 -0.000005 -3.713579 0.095503 -3.012510 -0.750673
 62 0.000003 0.000001 4.999999 3.053197 1.558589 -0.074927
 63 -0.000007 0.000005 3.713580 -0.334410 -2.825096 -0.524885
 64 0.000001 -0.000000 -4.999999 -0.088726 1.558589 3.066334
 65 7.363603 1.646647 0.495663 -3.141593 -1.570796 0.000000
 66 -0.000006 0.000005 3.619081 -0.528284 -2.367383 -1.007256
 67 16.573921 -0.000001 0.000001 -0.000000 0.000000 -2.019199
 68 15.128181 0.000001 -0.000002 0.031619 0.086785 -0.033197
 69 5.758664 4.244731 -0.000000 0.000000 -0.000000 2.033309
 70 3.177726 0.000001 0.000000 0.000000 0.000000 3.141593
 71 15.708951 0.000002 -0.000003 0.016155 0.048356 -0.018185
 72 0.275149 0.189215 -3.445208 3.130898 0.000409 -1.514604
 73 17.210192 -0.000002 0.000002 0.000000 -0.000000 -2.322356
 74 0.000001 -0.000000 -5.000000 -0.079430 1.546568 -1.570856
 75 0.000006 -0.000005 -3.619080 0.196495 -3.011952 -1.279118
 76 16.573921 0.000000 0.000000 -0.000000 0.000000 -1.611348
 77 15.128181 -0.000002 0.000000 0.214418 -0.027533 0.774389
 78 5.758665 4.244730 -0.000000 -0.000000 -0.000000 1.483530
 79 4.003934 0.000000 0.000001 0.000000 0.000000 0.000000
 80 15.708953 -0.000001 0.000000 0.153371 0.002792 0.528179
 81 0.273998 0.191089 3.439762 -3.130907 -0.000437 -1.508107
 82 17.210192 0.000000 0.000000 0.000000 -0.000000 -2.138823
 83 0.000001 0.000001 5.000000 -0.079311 1.595025 -1.570737
time 1
  0 1.130557 9.712686 27.009436 -0.281436 0.436358 -2.443536
  1 11.368429 6.770639 -23.418964 -0.498313 0.132926 2.346876
  2 -2.276934 0.000003 -1.238187 -1.570795 -1.570451 0.000000
  3 1.796604 0.712140 -0.001364 0.438073 -0.204736 -0.276714
  4 4.118954 -0.003010 -0.001253 0.393563 0.087871 0.152408
  5 4.118758 -0.003274 0.000132 -0.041642 0.265455 0.036971
  6 4.119347 -0.003195 0.000036 -0.010871 0.071825 0.227775
  7 4.120409 -0.002874 0.000993 -0.284971 -0.029892 0.570042
  8 4.443598 -0.000002 -0.000001 1.773930 0.262729 -0.993343
  9 9.024061 0.000000 0.000001 0.000000 0.000000 0.000000
 10 0.051785 -0.483368 1.662095 1.498112 -2.172194 0.989960
 11 6.384777 0.000001 0.000000 -0.653295 1.031209 -1.222555
 12 10.242682 0.000002 -0.000000 0.000000 0.000000 -2.324667
 13 11.375561 -0.000001 -0.000001 -2.084663 -0.607799 -0.336109
 14 0.728682 0.023432 -1.008292 1.210021 0.600763 0.006085
 15 2.136494 0.000000 0.000001 0.000000 -0.000000 -0.078540
 16 2.313140 -0.000000 -0.000001 0.000000 0.000000 0.000000
 17 3.115508 -0.886039 -0.021432 -0.620285 0.000392 0.514872
 18 2.011150 -0.000000 0.000001 -0.000000 0.000000 1.322792
 19 2.141379 -0.000001 0.000000 0.000000 0.000000 0.000000
 20 1.734173 0.000001 0.000000 0.000000 -0.000000 0.660693
 21 0.000006 -4.440594 0.000001 1.570544 -0.062990 -0.195737
 22 6.000000 -0.000003 -0.000001 -1.963294 -0.000000 0.000000
 23 0.000001 -4.440600 -0.000000 1.569944 -0.062987 0.004053
 24 11.375562 -0.000000 0.000001 -1.837883 -0.293875 -0.207319
 25 -0.000001 -4.440602 0.000002 1.570144 -0.062988 0.004040
 26 10.510132 0.000001 -0.000001 -0.000000 0.000000 -2.733130
 27 0.000000 -1.748402 4.999998 0.000000 0.004007 1.602291
 28 5.500000 0.000002 0.000000 -0.008090 -0.000000 0.000000
 29 -0.000003 -1.940596 5.000000 -0.044472 0.004003 -0.000180
 30 6.551491 -0.000001 -0.000001 -0.123165 0.779271 -0.631118
 31 0.000002 -1.940598 5.000000 -0.027189 -0.053376 0.005295
 32 6.551491 -0.000001 -0.000001 0.016982 0.355930 -0.245148
 33 -0.000000 -1.940598 4.999996 -0.066572 -0.152786 -0.110311
 34 -0.051782 0.490443 -1.662096 -1.158041 0.992656 1.402626
 35 6.384775 0.000000 -0.000001 -0.417577 0.475943 -0.632599
 36 10.242682 0.000002 -0.000000 -0.000000 0.000000 -1.649511
 37 11.375561 -0.000001 0.000000 1.602487 0.797297 -1.058977
 38 0.728681 0.023431 1.008291 -1.579583 -0.319038 0.212973
 39 2.136497 0.000000 0.000001 -0.000000 0.000000 1.282817
 40 2.313139 0.000001 0.000001 0.000000 0.000000 3.141593
 41 3.115506 -0.886041 0.021430 0.420766 0.316066 0.167178
 42 2.011150 0.000001 -0.000002 -0.000000 0.000000 2.082010
 43 2.141379 -0.000000 0.000000 0.000000 0.000000 3.141593
 44 1.734172 -0.000001 -0.000001 -0.000000 -0.000000 1.041748
 45 0.136315 -3.738192 2.525890 1.493698 2.759406 -1.474501
 46 5.613159 0.862367 3.157028 1.595152 -0.135386 0.061522
 47 11.389365 -0.000820 0.158782 1.698476 0.393554 -0.468778
 48 0.000000 -4.440598 -0.000000 1.570144 -3.078602 0.004040
 49 5.999999 -0.000001 -0.000001 1.698476 0.000000 -0.000000
 50 0.000002 -4.440599 -0.000000 1.569944 -3.078603 0.004053
 51 10.510132 0.000000 0.000001 -0.000000 0.000000 -2.395552
 52 0.000001 -1.748401 -5.000000 3.141593 0.004007 -1.539299
 53 5.500000 0.000001 -0.000001 0.098558 -0.000000 0.000000
 54 -0.000000 0.000001 -5.000001 -0.044472 3.137589 -0.000177
 55 6.551490 0.000000 -0.000001 -0.098558 0.169302 -0.215505
 56 -1.266843 -1.937443 -4.950557 -0.066572 -2.988806 -0.110308
 57 6.551490 0.000000 -0.000001 -0.098558 0.169302 -0.215505
 58 0.699371 -1.944208 -5.006845 -0.027189 -3.088217 0.005298
 59 4.226146 -0.003201 -0.000001 -0.140794 -0.035738 0.297684
 60 0.000000 4.999999 0.000000 -0.153564 0.000087 2.718702
 61 0.000004 -0.000005 -3.713579 0.095503 -3.012510 -0.750673
 62 0.000003 0.000001 4.999999 3.053197 1.558589 -0.074927
 63 -0.000007 0.000005 3.713580 -0.334410 -2.825096 -0.524885
 64 0.000001 -0.000000 -4.999999 -0.088726 1.558589 3.066334
 65 7.363603 1.646647 0.495663 -3.141593 -1.570796 0.000000
 66 -0.000006 0.000005 3.619081 -0.528284 -2.367383 -1.007256
 67 16.573921 -0.000001 0.000001 -0.000000 0.000000 -2.019199
 68 15.128181 0.000001 -0.000002 0.031619 0.086785 -0.033197
 69 5.758664 4.244731 -0.000000 0.000000 -0.000000 2.033309
 70 3.177726 0.000001 0.000000 0.000000 0.000000 3.141593
 71 15.708951 0.000002 -0.000003 0.016155 0.048356 -0.018185
 72 0.275149 0.189215 -3.445208 3.130898 0.000409 -1.514604
 73 17.210192 -0.000002 0.000002 0.000000 -0.000000 -2.322356
 74 0.000001 -0.000000 -5.000000 -0.079430 1.546568 -1.570856
 75 0.000006 -0.000005 -3.619080 0.196495 -3.011952 -1.279118
 76 16.573921 0.000000 0.000000 -0.000000 0.000000 -1.611348
 77 15.128181 -0.000002 0.000000 0.214418 -0.027533 0.774389
 78 5.758665 4.244730 -0.000000 -0.000000 -0.000000 1.483530
 79 4.003934 0.000000 0.000001 0.000000 0.000000 0.000000
 80 15.708953 -0.000001 0.000000 0.153371 0.002792 0.528179
 81 0.273998 0.191089 3.439762 -3.130907 -0.000437 -1.508107
 82 17.210192 0.000000 0.000000 0.000000 -0.000000 -2.138823
 83 0.000001 0.000001 5.000000 -0.079311 1.595025 -1.570737
time 2
  0 1.130557 9.712686 27.009436 -0.281436 0.436358 -2.443536
  1 11.368429 6.770639 -23.418964 -0.498313 0.132926 2.346876
  2 -2.276934 0.000003 -1.238187 -1.570795 -1.570451 0.000000
  3 1.796604 0.712140 -0.001364 0.438073 -0.204736 -0.276714
  4 4.118954 -0.003010 -0.001253 0.393563 0.087871 0.152408
  5 4.118795 -0.003274 0.000079 -0.024852 0.250769 0.053141
  6 4.119349 -0.003196 0.000036 -0.010871 0.071825 0.227775
  7 4.120407 -0.002874 0.000994 -0.289656 -0.177767 0.613926
  8 4.443598 -0.000000 -0.000000 1.617880 0.462919 -1.057038
  9 9.024059 -0.000001 0.000000 0.000000 0.000000 0.000000
 10 0.306399 -0.483571 1.634370 1.241594 -2.101635 1.206934
 11 6.384776 -0.000002 -0.000001 -0.680922 0.998934 -1.192022
 12 10.242683 0.000001 0.000001 0.000000 0.000000 -2.382380
 13 11.375562 -0.000001 -0.000001 -2.158344 -0.595085 -0.234091
 14 0.728682 0.023431 -1.008292 1.210021 0.600763 0.006085
 15 2.136497 -0.000000 -0.000000 -0.000000 -0.000000 -0.078540
 16 2.313138 -0.000000 -0.000000 0.000000 0.000000 0.000000
 17 3.115508 -0.886040 -0.021431 -0.620285 0.000392 0.514872
 18 2.011154 0.000002 -0.000002 -0.000000 -0.000000 1.322792
 19 2.141378 0.000001 0.000001 0.000000 0.000000 0.000000
 20 1.734172 0.000001 0.000001 0.000000 0.000000 0.660693
 21 0.000007 -4.440594 -0.000000 1.570544 -0.062990 -0.195737
 22 6.000000 -0.000002 0.000001 -2.012479 0.000000 0.000000
 23 0.000001 -4.440600 0.000000 1.569944 -0.062987 0.004053
 24 11.375561 0.000000 0.000002 -1.865367 -0.294046 -0.164943
 25 -0.000002 -4.440604 0.000002 1.570144 -0.062988 0.004040
 26 10.510133 0.000000 -0.000000 -0.000000 0.000000 -2.761987
 27 0.000001 -1.748402 4.999999 0.000000 0.004007 1.602291
 28 5.500000 0.000001 0.000001 0.008394 0.000000 -0.000000
 29 -0.000002 -1.940598 5.000001 -0.044472 0.004003 -0.000180
 30 6.551490 -0.000001 -0.000001 -0.145714 0.748450 -0.624482
 31 -0.000000 -1.940597 5.000001 -0.027189 -0.053376 0.005295
 32 6.551490 -0.000001 -0.000001 0.003153 0.346566 -0.244884
 33 -0.000000 -1.940599 4.999996 -0.066572 -0.152786 -0.110311
 34 -0.306396 0.490646 -1.634370 -0.815686 1.062491 1.706036
 35 6.384775 0.000000 -0.000001 -0.388678 0.459713 -0.725843
 36 10.242681 0.000001 -0.000001 0.000000 0.000000 -1.658437
 37 11.375562 -0.000000 0.000001 1.633858 0.804893 -0.999053
 38 0.728681 0.023431 1.008292 -1.579583 -0.319038 0.212973
 39 2.136497 0.000000 0.000001 -0.000000 0.000000 1.282817
 40 2.313139 -0.000000 -0.000001 0.000000 0.000000 3.141593
 41 3.115506 -0.886040 0.021430 0.420766 0.316066 0.167178
 42 2.011151 0.000000 0.000002 -0.000000 0.000000 2.082010
 43 2.141380 0.000000 -0.000001 0.000000 0.000000 3.141593
 44 1.734172 -0.000000 0.000000 -0.000000 -0.000000 1.041748
 45 0.136315 -3.738193 2.525890 1.493698 2.759406 -1.474501
 46 5.613160 0.862367 3.157031 1.595152 -0.135386 0.061522
 47 11.389367 -0.000820 0.158781 1.707603 0.393916 -0.445150
 48 0.000000 -4.440600 -0.000000 1.570144 -3.078602 0.004040
 49 6.000000 -0.000000 -0.000001 1.707603 0.000000 0.000000
 50 0.000001 -4.440601 -0.000000 1.569944 -3.078603 0.004053
 51 10.510132 0.000001 0.000001 -0.000000 0.000000 -2.400015
 52 0.000000 -1.748400 -5.000000 3.141593 0.004007 -1.539299
 53 5.500000 0.000000 0.000000 0.080765 -0.000000 0.000000
 54 0.000000 -0.000000 -4.999999 -0.044472 3.137589 -0.000177
 55 6.551489 -0.000000 -0.000001 -0.080765 0.165537 -0.234463
 56 -1.266843 -1.937443 -4.950559 -0.066572 -2.988806 -0.110308
 57 6.551490 -0.000000 -0.000001 -0.080765 0.165537 -0.234463
 58 0.699371 -1.944209 -5.006844 -0.027189 -3.088217 0.005298
 59 4.226145 -0.003202 0.000000 -0.131512 -0.111688 0.311011
 60 0.000001 4.999999 0.000000 -0.153564 0.000087 2.718702
 61 0.000004 -0.000005 -3.713579 0.095503 -3.012510 -0.750673
 62 0.000003 0.000001 4.999999 3.053197 1.558589 -0.074927
 63 -0.000007 0.000005 3.713580 -0.334410 -2.825096 -0.524885
 64 0.000001 -0.000000 -4.999999 -0.088726 1.558589 3.066334
 65 7.363603 1.646647 0.495663 -3.141593 -1.570796 0.000000
 66 -0.000006 0.000005 3.619081 -0.528284 -2.367383 -1.007256
 67 16.573921 -0.000001 0.000001 -0.000000 0.000000 -2.019199
 68 15.128181 0.000001 -0.000002 0.031619 0.086785 -0.033197
 69 5.758664 4.244731 -0.000000 0.000000 -0.000000 2.033309
 70 3.177726 0.000001 0.000000 0.000000 0.000000 3.141593
 71 15.708951 0.000002 -0.000003 0.016155 0.048356 -0.018185
 72 0.275149 0.189215 -3.445208 3.130898 0.000409 -1.514604
 73 17.210192 -0.000002 0.000002 0.000000 -0.000000 -2.322356
 74 0.000001 -0.000000 -5.000000 -0.079430 1.546568 -1.570856
 75 0.000006 -0.000005 -3.619080 0.196495 -3.011952 -1.279118
 76 16.573921 0.000000 0.000000 -0.000000 0.000000 -1.611348
 77 15.128181 -0.000002 0.000000 0.214418 -0.027533 0.774389
 78 5.758665 4.244730 -0.000000 -0.000000 -0.000000 1.483530
 79 4.003934 0.000000 0.000001 0.000000 0.000000 0.000000
 80 15.708953 -0.000001 0.000000 0.153371 0.002792 0.528179
 81 0.273998 0.191089 3.439762 -3.130907 -0.000437 -1.508107
 82 17.210192 0.000000 0.000000 0.000000 -0.000000 -2.138823
 83 0.000001 0.000001 5.000000 -0.079311 1.595025 -1.570737
time 3
  0 1.130557 9.712686 27.009436 -0.281436 0.436358 -2.443536
  1 11.368429 6.770639 -23.418964 -0.498313 0.132926 2.346876
  2 -2.276934 0.000003 -1.238187 -1.570795 -1.570451 0.000000
  3 1.796604 0.712140 -0.001364 0.438073 -0.204736 -0.276714
  4 4.118954 -0.003010 -0.001253 0.393563 0.087871 0.152408
  5 4.118830 -0.003272 0.000031 -0.009653 0.237007 0.067763
  6 4.119350 -0.003199 0.000036 -0.010871 0.071825 0.227775
  7 4.120409 -0.002874 0.000994 -0.295116 -0.258548 0.638825
  8 4.443598 -0.000001 -0.000000 1.509263 0.570049 -1.126070
  9 9.024061 -0.000000 0.000000 0.000000 0.000000 0.000000
 10 0.443016 -0.483680 1.602710 1.078499 -2.077260 1.348668
 11 6.384778 0.000001 0.000002 -0.707978 0.969145 -1.192492
 12 10.242680 0.000000 0.000000 -0.000000 0.000000 -2.412219
 13 11.375562 -0.000002 -0.000002 -2.198201 -0.584562 -0.172331
 14 0.728682 0.023432 -1.008291 1.210021 0.600763 0.006086
 15 2.136500 -0.000000 -0.000001 0.000000 -0.000000 -0.078540
 16 2.313137 -0.000000 -0.000001 0.000000 0.000000 0.000000
 17 3.115507 -0.886040 -0.021431 -0.620285 0.000392 0.514872
 18 2.011150 -0.000000 -0.000001 -0.000000 0.000000 1.322792
 19 2.141380 0.000001 -0.000001 0.000000 0.000000 0.000000
 20 1.734172 0.000001 -0.000000 -0.000000 -0.000000 0.660693
 21 0.000006 -4.440593 0.000001 1.570544 -0.062990 -0.195737
 22 6.000000 -0.000002 0.000000 -2.039579 -0.000000 0.000000
 23 0.000000 -4.440601 -0.000002 1.569944 -0.062987 0.004053
 24 11.375561 -0.000001 0.000001 -1.880243 -0.293614 -0.137946
 25 -0.000002 -4.440603 0.000000 1.570144 -0.062988 0.004040
 26 10.510129 0.000000 0.000000 0.000000 -0.000000 -2.776906
 27 0.000001 -1.748400 4.999999 0.000000 0.004007 1.602290
 28 5.499999 0.000000 0.000001 0.022115 0.000000 -0.000000
 29 -0.000003 -1.940598 5.000000 -0.044472 0.004003 -0.000180
 30 6.551492 0.000000 0.000000 -0.168213 0.727335 -0.631110
 31 -0.000001 -1.940598 5.000002 -0.027189 -0.053376 0.005295
 32 6.551492 0.000000 0.000000 -0.008168 0.340008 -0.248204
 33 -0.000000 -1.940598 4.999999 -0.066572 -0.152786 -0.110311
 34 -0.443013 0.490754 -1.602710 -0.602688 1.074343 1.902705
 35 6.384778 -0.000002 -0.000000 -0.362589 0.452532 -0.762370
 36 10.242682 0.000002 -0.000000 -0.000000 0.000000 -1.671630
 37 11.375563 0.000000 0.000003 1.644324 0.807923 -0.968347
 38 0.728681 0.023431 1.008293 -1.579583 -0.319038 0.212973
 39 2.136497 -0.000000 -0.000001 -0.000000 -0.000000 1.282817
 40 2.313138 0.000000 0.000002 0.000000 0.000000 3.141593
 41 3.115506 -0.886041 0.021432 0.420765 0.316066 0.167178
 42 2.011151 -0.000000 0.000000 -0.000000 -0.000000 2.082010
 43 2.141379 -0.000000 -0.000001 0.000000 0.000000 3.141593
 44 1.734172 -0.000001 0.000000 -0.000000 0.000000 1.041748
 45 0.136315 -3.738193 2.525892 1.493698 2.759406 -1.474501
 46 5.613160 0.862367 3.157032 1.595152 -0.135386 0.061522
 47 11.389366 -0.000820 0.158784 1.709504 0.394551 -0.432765
 48 0.000000 -4.440599 0.000000 1.570144 -3.078602 0.004040
 49 6.000000 -0.000000 0.000000 1.709504 -0.000000 -0.000000
 50 -0.000001 -4.440602 0.000000 1.569944 -3.078603 0.004053
 51 10.510131 0.000001 0.000001 0.000000 -0.000000 -2.406611
 52 -0.000001 -1.748399 -5.000001 -3.141593 0.004007 -1.539299
 53 5.500000 0.000001 0.000001 0.069995 -0.000000 0.000000
 54 -0.000000 0.000001 -5.000000 -0.044472 3.137590 -0.000177
 55 6.551490 -0.000000 -0.000002 -0.069995 0.164120 -0.241515
 56 -1.266843 -1.937442 -4.950560 -0.066572 -2.988806 -0.110308
 57 6.551491 -0.000000 -0.000002 -0.069995 0.164120 -0.241515
 58 0.699371 -1.944208 -5.006845 -0.027189 -3.088217 0.005298
 59 4.226145 -0.003200 -0.000001 -0.126239 -0.152785 0.317456
 60 -0.000001 4.999999 -0.000000 -0.153564 0.000087 2.718701
 61 0.000004 -0.000005 -3.713579 0.095503 -3.012510 -0.750673
 62 0.000003 0.000001 4.999999 3.053197 1.558589 -0.074927
 63 -0.000007 0.000005 3.713580 -0.334410 -2.825096 -0.524885
 64 0.000001 -0.000000 -4.999999 -0.088726 1.558589 3.066334
 65 7.363603 1.646647 0.495663 -3.141593 -1.570796 0.000000
 66 -0.000006 0.000005 3.619081 -0.528284 -2.367383 -1.007256
 67 16.573921 -0.000001 0.000001 -0.000000 0.000000 -2.019199
 68 15.128181 0.000001 -0.000002 0.031619 0.086785 -0.033197
 69 5.758664 4.244731 -0.000000 0.000000 -0.000000 2.033309
 70 3.177726 0.000001 0.000000 0.000000 0.000000 3.141593
 71 15.708951 0.000002 -0.000003 0.016155 0.048356 -0.018185
 72 0.275149 0.189215 -3.445208 3.130898 0.000409 -1.514604
 73 17.210192 -0.000002 0.000002 0.000000 -0.000000 -2.322356
 74 0.000001 -0.000000 -5.000000 -0.079430 1.546568 -1.570856
 75 0.000006 -0.000005 -3.619080 0.196495 -3.011952 -1.279118
 76 16.573921 0.000000 0.000000 -0.000000 0.000000 -1.611348
 77 15.128181 -0.000002 0.000000 0.214418 -0.027533 0.774389
 78 5.758665 4.244730 -0.000000 -0.000000 -0.000000 1.483530
 79 4.003934 0.000000 0.000001 0.000000 0.000000 0.000000
 80 15.708953 -0.000001 0.000000 0.153371 0.002792 0.528179
 81 0.273998 0.191089 3.439762 -3.130907 -0.000437 -1.508107
 82 17.210192 0.000000 0.000000 0.000000 -0.000000 -2.138823
 83 0.000001 0.000001 5.000000 -0.079311 1.595025 -1.570737
time 4
  0 1.130557 9.712686 27.009436 -0.281436 0.436358 -2.443536
  1 11.368429 6.770639 -23.418964 -0.498313 0.132926 2.346876
  2 -2.276934 0.000003 -1.238187 -1.570795 -1.570451 0.000000
  3 1.796604 0.712140 -0.001364 0.438073 -0.204736 -0.276714
  4 4.118954 -0.003010 -0.001253 0.393563 0.087871 0.152408
  5 4.118851 -0.003272 0.000005 -0.001466 0.229406 0.075632
  6 4.119348 -0.003195 0.000036 -0.010871 0.071825 0.227775
  7 4.120408 -0.002874 0.000994 -0.296903 -0.279590 0.645481
  8 4.443598 -0.000000 -0.000000 1.471590 0.599024 -1.154366
  9 9.024062 0.000001 0.000000 0.000000 0.000000 0.000000
 10 0.478163 -0.483710 1.592568 1.033890 -2.072850 1.387726
 11 6.384776 -0.000002 -0.000001 -0.717379 0.953278 -1.201030
 12 10.242680 0.000001 0.000000 -0.000000 0.000000 -2.420150
 13 11.375561 0.000002 -0.000001 -2.206259 -0.581922 -0.153066
 14 0.728681 0.023432 -1.008293 1.210021 0.600763 0.006085
 15 2.136496 -0.000000 -0.000000 0.000000 0.000000 -0.078540
 16 2.313140 -0.000000 -0.000001 0.000000 0.000000 0.000000
 17 3.115505 -0.886041 -0.021431 -0.620285 0.000392 0.514872
 18 2.011151 0.000000 0.000001 0.000000 -0.000000 1.322792
 19 2.141380 -0.000002 0.000000 0.000000 0.000000 0.000000
 20 1.734174 0.000002 0.000000 0.000000 -0.000000 0.660693
 21 0.000005 -4.440594 0.000002 1.570544 -0.062990 -0.195737
 22 6.000000 -0.000000 -0.000001 -2.044900 0.000000 -0.000000
 23 -0.000000 -4.440601 0.000002 1.569944 -0.062987 0.004053
 24 11.375562 -0.000001 0.000002 -1.882888 -0.293960 -0.129110
 25 -0.000001 -4.440603 0.000001 1.570144 -0.062988 0.004040
 26 10.510132 0.000001 -0.000001 -0.000000 -0.000000 -2.780871
 27 0.000002 -1.748402 4.999998 0.000000 0.004007 1.602291
 28 5.499999 0.000001 0.000000 0.027547 0.000000 -0.000000
 29 -0.000003 -1.940596 5.000000 -0.044472 0.004003 -0.000180
 30 6.551490 -0.000001 -0.000000 -0.178102 0.718905 -0.638778
 31 -0.000000 -1.940598 5.000002 -0.027189 -0.053376 0.005295
 32 6.551490 -0.000001 -0.000000 -0.012576 0.337242 -0.251351
 33 0.000000 -1.940599 4.999996 -0.066572 -0.152786 -0.110311
 34 -0.478160 0.490784 -1.592568 -0.546428 1.073932 1.955264
 35 6.384775 0.000002 -0.000001 -0.348905 0.451197 -0.761734
 36 10.242681 0.000000 0.000001 -0.000000 -0.000000 -1.681969
 37 11.375559 -0.000002 0.000000 1.642751 0.808208 -0.960837
 38 0.728681 0.023430 1.008292 -1.579583 -0.319038 0.212973
 39 2.136498 -0.000000 -0.000001 -0.000000 -0.000000 1.282817
 40 2.313139 0.000001 0.000002 0.000000 0.000000 3.141593
 41 3.115507 -0.886042 0.021432 0.420765 0.316066 0.167178
 42 2.011151 0.000000 -0.000001 0.000000 0.000000 2.082010
 43 2.141380 -0.000000 -0.000002 0.000000 0.000000 3.141593
 44 1.734172 -0.000000 -0.000001 0.000000 0.000000 1.041748
 45 0.136315 -3.738192 2.525890 1.493698 2.759406 -1.474501
 46 5.613160 0.862365 3.157031 1.595152 -0.135386 0.061522
 47 11.389365 -0.000820 0.158782 1.708025 0.394963 -0.429402
 48 0.000000 -4.440599 0.000000 1.570144 -3.078602 0.004040
 49 5.999999 -0.000001 -0.000000 1.708025 0.000000 -0.000000
 50 0.000002 -4.440602 -0.000001 1.569944 -3.078603 0.004053
 51 10.510132 0.000000 0.000002 0.000000 0.000000 -2.411781
 52 -0.000001 -1.748399 -5.000001 -3.141593 0.004007 -1.539299
 53 5.500000 0.000001 0.000001 0.066026 0.000000 0.000000
 54 0.000000 -0.000000 -5.000000 -0.044472 3.137589 -0.000177
 55 6.551490 0.000000 0.000000 -0.066026 0.163532 -0.241863
 56 -1.266843 -1.937443 -4.950560 -0.066572 -2.988806 -0.110308
 57 6.551490 0.000000 0.000000 -0.066026 0.163532 -0.241863
 58 0.699370 -1.944208 -5.006847 -0.027189 -3.088217 0.005298
 59 4.226144 -0.003202 -0.000000 -0.124830 -0.163456 0.319055
 60 -0.000000 5.000000 0.000000 -0.153564 0.000087 2.718702
 61 0.000004 -0.000005 -3.713579 0.095503 -3.012510 -0.750673
 62 0.000003 0.000001 4.999999 3.053197 1.558589 -0.074927
 63 -0.000007 0.000005 3.713580 -0.334410 -2.825096 -0.524885
 64 0.000001 -0.000000 -4.999999 -0.088726 1.558589 3.066334
 65 7.363603 1.646647 0.495663 -3.141593 -1.570796 0.000000
 66 -0.000006 0.000005 3.619081 -0.528284 -2.367383 -1.007256
 67 16.573921 -0.000001 0.000001 -0.000000 0.000000 -2.019199
 68 15.128181 0.000001 -0.000002 0.031619 0.086785 -0.033197
 69 5.758664 4.244731 -0.000000 0.000000 -0.000000 2.033309
 70 3.177726 0.000001 0.000000 0.000000 0.000000 3.141593
 71 15.708951 0.000002 -0.000003 0.016155 0.048356 -0.018185
 72 0.275149 0.189215 -3.445208 3.130898 0.000409 -1.514604
 73 17.210192 -0.000002 0.000002 0.000000 -0.000000 -2.322356
 74 0.000001 -0.000000 -5.000000 -0.079430 1.546568 -1.570856
 75 0.000006 -0.000005 -3.619080 0.196495 -3.011952 -1.279118
 76 16.573921 0.000000 0.000000 -0.000000 0.000000 -1.611348
 77 15.128181 -0.000002 0.000000 0.214418 -0.027533 0.774389
 78 5.758665 4.244730 -0.000000 -0.000000 -0.000000 1.483530
 79 4.003934 0.000000 0.000001 0.000000 0.000000 0.000000
 80 15.708953 -0.000001 0.000000 0.153371 0.002792 0.528179
 81 0.273998 0.191089 3.439762 -3.130907 -0.000437 -1.508107
 82 17.210192 0.000000 0.000000 0.000000 -0.000000 -2.138823
 83 0.000001 0.000001 5.000000 -0.079311 1.595025 -1.570737
time 5
  0 1.130557 9.712686 27.009436 -0.281436 0.436358 -2.443536
  1 11.368429 6.770639 -23.418964 -0.498313 0.132926 2.346876
  2 -2.276934 0.000003 -1.238187 -1.570795 -1.570451 0.000000
  3 1.796604 0.712140 -0.001364 0.438073 -0.204736 -0.276714
  4 4.118954 -0.003010 -0.001253 0.393563 0.087871 0.152408
  5 4.118851 -0.003271 0.000003 -0.000905 0.228880 0.076171
  6 4.119350 -0.003198 0.000036 -0.010871 0.071825 0.227775
  7 4.120408 -0.002874 0.000994 -0.298155 -0.293322 0.649871
  8 4.443599 -0.000002 -0.000000 1.453630 0.614761 -1.166797
  9 9.024060 0.000001 0.000001 0.000000 0.000000 0.000000
 10 0.500986 -0.483727 1.585531 1.004405 -2.070429 1.413590
 11 6.384775 0.000000 -0.000001 -0.722616 0.951716 -1.198362
 12 10.242682 0.000001 -0.000002 0.000000 0.000000 -2.424696
 13 11.375561 0.000001 0.000000 -2.214556 -0.579190 -0.143647
 14 0.728681 0.023431 -1.008293 1.210021 0.600763 0.006085
 15 2.136496 0.000000 0.000001 -0.000000 -0.000000 -0.078540
 16 2.313141 -0.000000 -0.000000 0.000000 0.000000 0.000000
 17 3.115506 -0.886040 -0.021432 -0.620285 0.000392 0.514872
 18 2.011151 -0.000001 0.000000 -0.000000 -0.000000 1.322792
 19 2.141378 0.000001 0.000001 0.000000 0.000000 0.000000
 20 1.734173 0.000001 0.000001 0.000000 0.000000 0.660693
 21 0.000005 -4.440593 0.000000 1.570544 -0.062990 -0.195737
 22 5.999999 0.000002 -0.000000 -2.050794 -0.000000 0.000000
 23 0.000001 -4.440601 -0.000001 1.569944 -0.062987 0.004053
 24 11.375561 0.000002 0.000002 -1.886275 -0.293360 -0.124983
 25 -0.000001 -4.440604 0.000000 1.570144 -0.062988 0.004040
 26 10.510132 0.000001 -0.000002 0.000000 -0.000000 -2.783144
 27 0.000001 -1.748403 5.000001 0.000000 0.004007 1.602291
 28 5.500000 0.000001 -0.000000 0.029447 0.000000 0.000000
 29 -0.000002 -1.940597 5.000000 -0.044472 0.004003 -0.000180
 30 6.551489 -0.000000 -0.000002 -0.180941 0.716738 -0.637572
 31 0.000001 -1.940599 5.000001 -0.027189 -0.053376 0.005295
 32 6.551489 -0.000000 -0.000002 -0.014174 0.336665 -0.250938
 33 -0.000001 -1.940597 4.999997 -0.066572 -0.152786 -0.110311
 34 -0.500983 0.490798 -1.585532 -0.509850 1.072870 1.989548
 35 6.384776 -0.000001 0.000000 -0.347676 0.449840 -0.772694
 36 10.242682 -0.000001 0.000001 -0.000000 0.000000 -1.680849
 37 11.375559 -0.000001 -0.000001 1.646383 0.808960 -0.955579
 38 0.728681 0.023430 1.008292 -1.579583 -0.319038 0.212973
 39 2.136497 -0.000002 -0.000000 -0.000000 -0.000000 1.282817
 40 2.313139 0.000001 0.000001 0.000000 0.000000 3.141593
 41 3.115506 -0.886041 0.021431 0.420766 0.316066 0.167178
 42 2.011150 -0.000000 -0.000000 -0.000000 0.000000 2.082010
 43 2.141379 -0.000000 0.000000 0.000000 0.000000 3.141593
 44 1.734172 -0.000001 0.000002 -0.000000 0.000000 1.041748
 45 0.136315 -3.738192 2.525890 1.493698 2.759406 -1.474501
 46 5.613161 0.862367 3.157032 1.595152 -0.135386 0.061522
 47 11.389365 -0.000820 0.158781 1.709215 0.394993 -0.427452
 48 -0.000000 -4.440599 -0.000001 1.570144 -3.078602 0.004040
 49 5.999999 -0.000000 -0.000000 1.709215 0.000000 -0.000000
 50 -0.000000 -4.440600 -0.000001 1.569944 -3.078603 0.004053
 51 10.510132 -0.000001 0.000001 0.000000 0.000000 -2.411221
 52 -0.000001 -1.748402 -5.000003 3.141593 0.004007 -1.539299
 53 5.500000 -0.000001 0.000000 0.064862 -0.000000 0.000000
 54 -0.000000 0.000001 -4.999998 -0.044472 3.137589 -0.000177
 55 6.551491 -0.000001 0.000001 -0.064862 0.163435 -0.243635
 56 -1.266844 -1.937443 -4.950560 -0.066572 -2.988806 -0.110308
 57 6.551491 -0.000001 0.000001 -0.064862 0.163435 -0.243635
 58 0.699371 -1.944208 -5.006846 -0.027189 -3.088217 0.005298
 59 4.226145 -0.003203 0.000000 -0.123901 -0.170414 0.320081
 60 -0.000001 5.000002 -0.000000 -0.153564 0.000087 2.718702
 61 0.000004 -0.000005 -3.713579 0.095503 -3.012510 -0.750673
 62 0.000003 0.000001 4.999999 3.053197 1.558589 -0.074927
 63 -0.000007 0.000005 3.713580 -0.334410 -2.825096 -0.524885
 64 0.000001 -0.000000 -4.999999 -0.088726 1.558589 3.066334
 65 7.363603 1.646647 0.495663 -3.141593 -1.570796 0.000000
 66 -0.000006 0.000005 3.619081 -0.528284 -2.367383 -1.007256
 67 16.573921 -0.000001 0.000001 -0.000000 0.000000 -2.019199
 68 15.128181 0.000001 -0.000002 0.031619 0.086785 -0.033197
 69 5.758664 4.244731 -0.000000 0.000000 -0.000000 2.033309
 70 3.177726 0.000001 0.000000 0.000000 0.000000 3.141593
 71 15.708951 0.000002 -0.000003 0.016155 0.048356 -0.018185
 72 0.275149 0.189215 -3.445208 3.130898 0.000409 -1.514604
 73 17.210192 -0.000002 0.000002 0.000000 -0.000000 -2.322356
 74 0.000001 -0.000000 -5.000000 -0.079430 1.546568 -1.570856
 75 0.000006 -0.000005 -3.619080 0.196495 -3.011952 -1.279118
 76 16.573921 0.000000 0.000000 -0.000000 0.000000 -1.611348
 77 15.128181 -0.000002 0.000000 0.214418 -0.027533 0.774389
 78 5.758665 4.244730 -0.000000 -0.000000 -0.000000 1.483530
 79 4.003934 0.000000 0.000001 0.000000 0.000000 0.000000
 80 15.708953 -0.000001 0.000000 0.153371 0.002792 0.528179
 81 0.273998 0.191089 3.439762 -3.130907 -0.000437 -1.508107
 82 17.210192 0.000000 0.000000 0.000000 -0.000000 -2.138823
 83 0.000001 0.000001 5.000000 -0.079311 1.595025 -1.570737
time 6
  0 1.130557 9.712686 27.009436 -0.281436 0.436358 -2.443536
  1 11.368429 6.770639 -23.418964 -0.498313 0.132926 2.346876
  2 -2.276934 0.000003 -1.238187 -1.570795 -1.570451 0.000000
  3 1.796604 0.712140 -0.001364 0.438073 -0.204736 -0.276714
  4 4.118954 -0.003010 -0.001253 0.393563 0.087871 0.152408
  5 4.118851 -0.003271 0.000002 -0.000557 0.228554 0.076505
  6 4.119347 -0.003194 0.000036 -0.010871 0.071825 0.227775
  7 4.120409 -0.002874 0.000993 -0.298865 -0.300793 0.652275
  8 4.443598 -0.000003 -0.000001 1.443596 0.623257 -1.173890
  9 9.024063 0.000001 0.000001 0.000000 0.000000 0.000000
 10 0.513366 -0.483740 1.581563 0.988252 -2.069266 1.427773
 11 6.384777 -0.000000 -0.000001 -0.725564 0.950785 -1.197035
 12 10.242684 0.000000 -0.000002 0.000000 0.000000 -2.427152
 13 11.375563 -0.000002 0.000001 -2.219066 -0.577657 -0.138488
 14 0.728681 0.023431 -1.008291 1.210021 0.600763 0.006085
 15 2.136496 -0.000000 0.000000 0.000000 -0.000000 -0.078540
 16 2.313140 0.000000 -0.000001 0.000000 0.000000 0.000000
 17 3.115506 -0.886041 -0.021429 -0.620285 0.000392 0.514872
 18 2.011150 -0.000000 0.000001 -0.000000 -0.000000 1.322792
 19 2.141380 -0.000001 -0.000000 0.000000 0.000000 0.000000
 20 1.734172 0.000001 0.000000 0.000000 0.000000 0.660693
 21 0.000006 -4.440594 0.000001 1.570544 -0.062990 -0.195737
 22 6.000000 -0.000002 -0.000000 -2.054007 -0.000000 0.000000
 23 0.000002 -4.440600 -0.000002 1.569944 -0.062987 0.004053
 24 11.375561 -0.000002 0.000003 -1.888120 -0.293020 -0.122708
 25 -0.000001 -4.440603 -0.000001 1.570144 -0.062988 0.004040
 26 10.510130 0.000001 -0.000001 -0.000000 -0.000000 -2.784372
 27 0.000002 -1.748403 5.000000 -0.000000 0.004007 1.602291
 28 5.500000 -0.000000 -0.000001 0.030523 -0.000000 0.000000
 29 -0.000002 -1.940598 5.000000 -0.044472 0.004003 -0.000180
 30 6.551491 -0.000001 -0.000002 -0.182575 0.715527 -0.636987
 31 0.000001 -1.940598 5.000001 -0.027189 -0.053376 0.005295
 32 6.551491 -0.000001 -0.000002 -0.015077 0.336341 -0.250736
 33 -0.000001 -1.940600 4.999994 -0.066572 -0.152786 -0.110311
 34 -0.513363 0.490809 -1.581564 -0.490030 1.072029 2.008159
 35 6.384776 0.000000 -0.000001 -0.346931 0.449113 -0.778553
 36 10.242682 -0.000000 -0.000000 0.000000 -0.000000 -1.680293
 37 11.375559 -0.000001 0.000002 1.648313 0.809359 -0.952739
 38 0.728681 0.023430 1.008292 -1.579583 -0.319038 0.212973
 39 2.136497 -0.000000 0.000000 -0.000000 -0.000000 1.282817
 40 2.313139 -0.000000 0.000001 0.000000 0.000000 3.141593
 41 3.115507 -0.886042 0.021432 0.420765 0.316066 0.167178
 42 2.011151 0.000002 0.000001 -0.000000 0.000000 2.082010
 43 2.141379 -0.000000 -0.000001 0.000000 0.000000 3.141593
 44 1.734172 -0.000001 0.000001 0.000000 -0.000000 1.041748
 45 0.136315 -3.738192 2.525890 1.493698 2.759406 -1.474501
 46 5.613161 0.862366 3.157032 1.595152 -0.135386 0.061522
 47 11.389366 -0.000820 0.158783 1.709841 0.395011 -0.426397
 48 -0.000000 -4.440600 0.000001 1.570144 -3.078602 0.004040
 49 6.000000 -0.000000 0.000001 1.709841 -0.000000 -0.000000
 50 0.000000 -4.440603 0.000000 1.569944 -3.078603 0.004053
 51 10.510132 -0.000000 0.000001 0.000000 -0.000000 -2.410943
 52 0.000000 -1.748401 -5.000002 3.141593 0.004007 -1.539299
 53 5.500000 -0.000001 -0.000000 0.064222 -0.000000 0.000000
 54 -0.000000 0.000002 -5.000000 -0.044472 3.137589 -0.000177
 55 6.551490 0.000000 -0.000001 -0.064222 0.163389 -0.244577
 56 -1.266843 -1.937443 -4.950560 -0.066572 -2.988806 -0.110308
 57 6.551491 0.000000 -0.000001 -0.064222 0.163389 -0.244577
 58 0.699371 -1.944208 -5.006846 -0.027189 -3.088217 0.005298
 59 4.226145 -0.003200 -0.000001 -0.123392 -0.174199 0.320635
 60 -0.000000 5.000001 0.000000 -0.153564 0.000087 2.718702
 61 0.000004 -0.000005 -3.713579 0.095503 -3.012510 -0.750673
 62 0.000003 0.000001 4.999999 3.053197 1.558589 -0.074927
 63 -0.000007 0.000005 3.713580 -0.334410 -2.825096 -0.524885
 64 0.000001 -0.000000 -4.999999 -0.088726 1.558589 3.066334
 65 7.363603 1.646647 0.495663 -3.141593 -1.570796 0.000000
 66 -0.000006 0.000005 3.619081 -0.528284 -2.367383 -1.007256
 67 16.573921 -0.000001 0.000001 -0.000000 0.000000 -2.019199
 68 15.128181 0.000001 -0.000002 0.031619 0.086785 -0.033197
 69 5.758664 4.244731 -0.000000 0.000000 -0.000000 2.033309
 70 3.177726 0.000001 0.000000 0.000000 0.000000 3.141593
 71 15.708951 0.000002 -0.000003 0.016155 0.048356 -0.018185
 72 0.275149 0.189215 -3.445208 3.130898 0.000409 -1.514604
 73 17.210192 -0.000002 0.000002 0.000000 -0.000000 -2.322356
 74 0.000001 -0.000000 -5.000000 -0.079430 1.546568 -1.570856
 75 0.000006 -0.000005 -3.619080 0.196495 -3.011952 -1.279118
 76 16.573921 0.000000 0.000000 -0.000000 0.000000 -1.611348
 77 15.128181 -0.000002 0.000000 0.214418 -0.027533 0.774389
 78 5.758665 4.244730 -0.000000 -0.000000 -0.000000 1.483530
 79 4.003934 0.000000 0.000001 0.000000 0.000000 0.000000
 80 15.708953 -0.000001 0.000000 0.153371 0.002792 0.528179
 81 0.273998 0.191089 3.439762 -3.130907 -0.000437 -1.508107
 82 17.210192 0.000000 0.000000 0.000000 -0.000000 -2.138823
 83 0.000001 0.000001 5.000000 -0.079311 1.595025 -1.570737
time 7
  0 1.130557 9.712686 27.009436 -0.281436 0.436358 -2.443536
  1 11.368429 6.770639 -23.418964 -0.498313 0.132926 2.346876
  2 -2.276934 0.000003 -1.238187 -1.570795 -1.570451 0.000000
  3 1.796604 0.712140 -0.001364 0.438073 -0.204736 -0.276714
  4 4.118954 -0.003010 -0.001253 0.393563 0.087871 0.152408
  5 4.118855 -0.003272 0.000001 -0.000389 0.228396 0.076666
  6 4.119343 -0.003191 0.000035 -0.010871 0.071825 0.227775
  7 4.120410 -0.002875 0.000995 -0.299084 -0.303052 0.653004
  8 4.443598 -0.000002 -0.000000 1.440433 0.625846 -1.176170
  9 9.024060 0.000000 -0.000001 0.000000 0.000000 0.000000
 10 0.517103 -0.483741 1.580344 0.983355 -2.068936 1.432074
 11 6.384775 -0.000003 -0.000003 -0.726489 0.950387 -1.196760
 12 10.242682 -0.000001 -0.000001 -0.000000 0.000000 -2.427898
 13 11.375563 -0.000005 0.000002 -2.220391 -0.577193 -0.136884
 14 0.728681 0.023431 -1.008291 1.210021 0.600763 0.006085
 15 2.136498 0.000000 -0.000001 -0.000000 -0.000000 -0.078540
 16 2.313139 -0.000000 0.000001 0.000000 0.000000 0.000000
 17 3.115507 -0.886040 -0.021430 -0.620285 0.000392 0.514872
 18 2.011151 0.000000 -0.000000 -0.000000 -0.000000 1.322792
 19 2.141380 -0.000000 -0.000000 0.000000 0.000000 0.000000
 20 1.734173 0.000000 0.000001 0.000000 -0.000000 0.660693
 21 0.000008 -4.440593 0.000000 1.570544 -0.062990 -0.195737
 22 6.000000 -0.000002 0.000001 -2.054949 -0.000000 0.000000
 23 0.000001 -4.440601 -0.000002 1.569944 -0.062987 0.004053
 24 11.375561 -0.000001 0.000003 -1.888658 -0.292923 -0.121995
 25 -0.000001 -4.440603 0.000000 1.570144 -0.062988 0.004040
 26 10.510132 -0.000001 -0.000001 0.000000 0.000000 -2.784745
 27 0.000001 -1.748402 4.999998 -0.000000 0.004007 1.602291
 28 5.500000 -0.000001 -0.000000 0.030875 -0.000000 -0.000000
 29 -0.000002 -1.940596 5.000000 -0.044472 0.004003 -0.000180
 30 6.551491 -0.000000 -0.000000 -0.183128 0.715121 -0.636898
 31 0.000001 -1.940597 5.000001 -0.027189 -0.053376 0.005295
 32 6.551491 -0.000000 -0.000000 -0.015371 0.336229 -0.250709
 33 -0.000000 -1.940598 4.999998 -0.066572 -0.152786 -0.110311
 34 -0.517099 0.490813 -1.580345 -0.484053 1.071738 2.013776
 35 6.384776 0.000001 -0.000001 -0.346603 0.448901 -0.780173
 36 10.242682 0.000000 -0.000001 0.000000 0.000000 -1.680228
 37 11.375560 -0.000002 0.000001 1.648833 0.809472 -0.951887
 38 0.728681 0.023430 1.008292 -1.579583 -0.319038 0.212973
 39 2.136497 -0.000000 0.000000 -0.000000 -0.000000 1.282817
 40 2.313139 -0.000000 0.000001 0.000000 0.000000 3.141593
 41 3.115507 -0.886042 0.021432 0.420766 0.316066 0.167178
 42 2.011150 -0.000000 -0.000000 -0.000000 -0.000000 2.082010
 43 2.141380 0.000000 -0.000001 0.000000 0.000000 3.141593
 44 1.734172 -0.000001 -0.000000 -0.000000 -0.000000 1.041748
 45 0.136315 -3.738193 2.525890 1.493698 2.759406 -1.474501
 46 5.613161 0.862366 3.157031 1.595152 -0.135386 0.061522
 47 11.389366 -0.000821 0.158782 1.710001 0.395020 -0.426076
 48 -0.000000 -4.440599 0.000001 1.570144 -3.078602 0.004040
 49 6.000000 -0.000000 0.000001 1.710001 0.000000 -0.000000
 50 -0.000001 -4.440602 0.000001 1.569944 -3.078603 0.004053
 51 10.510132 -0.000000 -0.000000 0.000000 0.000000 -2.410910
 52 -0.000001 -1.748399 -5.000000 3.141593 0.004007 -1.539299
 53 5.500000 -0.000001 0.000001 0.064011 -0.000000 0.000000
 54 -0.000000 0.000002 -5.000000 -0.044472 3.137589 -0.000177
 55 6.551490 0.000002 -0.000002 -0.064011 0.163372 -0.244840
 56 -1.266843 -1.937443 -4.950558 -0.066572 -2.988806 -0.110308
 57 6.551490 0.000002 -0.000002 -0.064011 0.163372 -0.244840
 58 0.699371 -1.944207 -5.006845 -0.027189 -3.088217 0.005298
 59 4.226147 -0.003203 0.000000 -0.123238 -0.175343 0.320801
 60 0.000000 4.999998 0.000000 -0.153564 0.000087 2.718702
 61 0.000004 -0.000005 -3.713579 0.095503 -3.012510 -0.750673
 62 0.000003 0.000001 4.999999 3.053197 1.558589 -0.074927
 63 -0.000007 0.000005 3.713580 -0.334410 -2.825096 -0.524885
 64 0.000001 -0.000000 -4.999999 -0.088726 1.558589 3.066334
 65 7.363603 1.646647 0.495663 -3.141593 -1.570796 0.000000
 66 -0.000006 0.000005 3.619081 -0.528284 -2.367383 -1.007256
 67 16.573921 -0.000001 0.000001 -0.000000 0.000000 -2.019199
 68 15.128181 0.000001 -0.000002 0.031619 0.086785 -0.033197
 69 5.758664 4.244731 -0.000000 0.000000 -0.000000 2.033309
 70 3.177726 0.000001 0.000000 0.000000 0.000000 3.141593
 71 15.708951 0.000002 -0.000003 0.016155 0.048356 -0.018185
 72 0.275149 0.189215 -3.445208 3.130898 0.000409 -1.514604
 73 17.210192 -0.000002 0.000002 0.000000 -0.000000 -2.322356
 74 0.000001 -0.000000 -5.000000 -0.079430 1.546568 -1.570856
 75 0.000006 -0.000005 -3.619080 0.196495 -3.011952 -1.279118
 76 16.573921 0.000000 0.000000 -0.000000 0.000000 -1.611348
 77 15.128181 -0.000002 0.000000 0.214418 -0.027533 0.774389
 78 5.758665 4.244730 -0.000000 -0.000000 -0.000000 1.483530
 79 4.003934 0.000000 0.000001 0.000000 0.000000 0.000000
 80 15.708953 -0.000001 0.000000 0.153371 0.002792 0.528179
 81 0.273998 0.191089 3.439762 -3.130907 -0.000437 -1.508107
 82 17.210192 0.000000 0.000000 0.000000 -0.000000 -2.138823
 83 0.000001 0.000001 5.000000 -0.079311 1.595025 -1.570737
time 8
  0 1.130557 9.712686 27.009436 -0.281436 0.436358 -2.443536
  1 11.368429 6.770639 -23.418964 -0.498313 0.132926 2.346876
  2 -2.276934 0.000003 -1.238187 -1.570795 -1.570451 0.000000
  3 1.796604 0.712140 -0.001364 0.438073 -0.204736 -0.276714
  4 4.118954 -0.003010 -0.001253 0.393563 0.087871 0.152408
  5 4.118855 -0.003272 0.000001 -0.000366 0.228375 0.076688
  6 4.119346 -0.003194 0.000035 -0.010871 0.071825 0.227775
  7 4.120409 -0.002876 0.000994 -0.298899 -0.301141 0.652387
  8 4.443598 0.000001 -0.000000 1.442845 0.623744 -1.174496
  9 9.024063 0.000001 0.000000 0.000000 0.000000 0.000000
 10 0.513940 -0.483732 1.581377 0.987499 -2.069215 1.428435
 11 6.384778 0.000001 0.000001 -0.725761 0.950423 -1.197300
 12 10.242682 -0.000000 -0.000001 -0.000000 0.000000 -2.427285
 13 11.375562 -0.000004 0.000001 -2.219162 -0.577604 -0.138130
 14 0.728681 0.023431 -1.008293 1.210021 0.600763 0.006085
 15 2.136497 0.000001 -0.000001 -0.000000 0.000000 -0.078540
 16 2.313138 -0.000000 0.000001 0.000000 0.000000 0.000000
 17 3.115505 -0.886041 -0.021431 -0.620285 0.000392 0.514872
 18 2.011150 0.000000 -0.000001 -0.000000 -0.000000 1.322792
 19 2.141380 -0.000000 -0.000001 0.000000 0.000000 0.000000
 20 1.734172 0.000001 -0.000001 -0.000000 -0.000000 0.660693
 21 0.000007 -4.440594 0.000000 1.570544 -0.062990 -0.195737
 22 6.000000 -0.000002 0.000002 -2.054067 0.000000 0.000000
 23 0.000001 -4.440600 -0.000002 1.569944 -0.062987 0.004053
 24 11.375562 -0.000003 0.000004 -1.888145 -0.293027 -0.122539
 25 -0.000000 -4.440603 -0.000001 1.570144 -0.062988 0.004040
 26 10.510131 -0.000001 -0.000002 -0.000000 0.000000 -2.784439
 27 0.000000 -1.748402 5.000000 -0.000000 0.004007 1.602290
 28 5.499998 0.000000 -0.000000 0.030636 -0.000000 -0.000000
 29 -0.000001 -1.940598 5.000000 -0.044472 0.004003 -0.000180
 30 6.551490 -0.000001 -0.000002 -0.182792 0.715360 -0.637197
 31 -0.000000 -1.940599 5.000001 -0.027189 -0.053376 0.005295
 32 6.551490 -0.000001 -0.000002 -0.015168 0.336286 -0.250819
 33 0.000000 -1.940600 4.999997 -0.066572 -0.152786 -0.110311
 34 -0.513938 0.490812 -1.581377 -0.489110 1.071985 2.009024
 35 6.384777 -0.000002 0.000001 -0.346615 0.449097 -0.778409
 36 10.242683 0.000000 -0.000000 -0.000000 -0.000000 -1.680557
 37 11.375561 -0.000000 0.000002 1.648230 0.809358 -0.952620
 38 0.728680 0.023430 1.008291 -1.579583 -0.319038 0.212973
 39 2.136497 -0.000000 0.000000 0.000000 0.000000 1.282817
 40 2.313139 -0.000000 0.000001 0.000000 0.000000 3.141593
 41 3.115506 -0.886041 0.021431 0.420765 0.316066 0.167178
 42 2.011150 0.000000 -0.000000 -0.000000 0.000000 2.082010
 43 2.141378 -0.000000 -0.000001 0.000000 0.000000 3.141593
 44 1.734172 -0.000001 -0.000000 -0.000000 -0.000000 1.041748
 45 0.136315 -3.738192 2.525890 1.493698 2.759406 -1.474501
 46 5.613160 0.862365 3.157032 1.595152 -0.135386 0.061522
 47 11.389364 -0.000820 0.158783 1.709790 0.395021 -0.426339
 48 -0.000000 -4.440598 -0.000001 1.570144 -3.078602 0.004040
 49 5.999998 -0.000000 0.000000 1.709790 0.000000 -0.000000
 50 0.000001 -4.440601 -0.000001 1.569944 -3.078603 0.004053
 51 10.510131 0.000001 -0.000001 0.000000 -0.000000 -2.411075
 52 0.000000 -1.748399 -5.000000 -3.141593 0.004007 -1.539299
 53 5.500000 -0.000001 -0.000000 0.064141 -0.000000 0.000000
 54 0.000000 0.000000 -4.999998 -0.044472 3.137589 -0.000177
 55 6.551491 -0.000002 0.000001 -0.064141 0.163375 -0.244564
 56 -1.266844 -1.937443 -4.950558 -0.066572 -2.988806 -0.110308
 57 6.551492 -0.000002 0.000001 -0.064141 0.163375 -0.244564
 58 0.699371 -1.944207 -5.006845 -0.027189 -3.088217 0.005298
 59 4.226145 -0.003202 -0.000000 -0.123369 -0.174375 0.320660
 60 -0.000000 5.000000 0.000000 -0.153564 0.000087 2.718702
 61 0.000004 -0.000005 -3.713579 0.095503 -3.012510 -0.750673
 62 0.000003 0.000001 4.999999 3.053197 1.558589 -0.074927
 63 -0.000007 0.000005 3.713580 -0.334410 -2.825096 -0.524885
 64 0.000001 -0.000000 -4.999999 -0.088726 1.558589 3.066334
 65 7.363603 1.646647 0.495663 -3.141593 -1.570796 0.000000
 66 -0.000006 0.000005 3.619081 -0.528284 -2.367383 -1.007256
 67 16.573921 -0.000001 0.000001 -0.000000 0.000000 -2.019199
 68 15.128181 0.000001 -0.000002 0.031619 0.086785 -0.033197
 69 5.758664 4.244731 -0.000000 0.000000 -0.000000 2.033309
 70 3.177726 0.000001 0.000000 0.000000 0.000000 3.141593
 71 15.708951 0.000002 -0.000003 0.016155 0.048356 -0.018185
 72 0.275149 0.189215 -3.445208 3.130898 0.000409 -1.514604
 73 17.210192 -0.000002 0.000002 0.000000 -0.000000 -2.322356
 74 0.000001 -0.000000 -5.000000 -0.079430 1.546568 -1.570856
 75 0.000006 -0.000005 -3.619080 0.196495 -3.011952 -1.279118
 76 16.573921 0.000000 0.000000 -0.000000 0.000000 -1.611348
 77 15.128181 -0.000002 0.000000 0.214418 -0.027533 0.774389
 78 5.758665 4.244730 -0.000000 -0.000000 -0.000000 1.483530
 79 4.003934 0.000000 0.000001 0.000000 0.000000 0.000000
 80 15.708953 -0.000001 0.000000 0.153371 0.002792 0.528179
 81 0.273998 0.191089 3.439762 -3.130907 -0.000437 -1.508107
 82 17.210192 0.000000 0.000000 0.000000 -0.000000 -2.138823
 83 0.000001 0.000001 5.000000 -0.079311 1.595025 -1.570737
time 9
  0 1.130557 9.712686 27.009436 -0.281436 0.436358 -2.443536
  1 11.368429 6.770639 -23.418964 -0.498313 0.132926 2.346876
  2 -2.276934 0.000003 -1.238187 -1.570795 -1.570451 0.000000
  3 1.796604 0.712140 -0.001364 0.438073 -0.204736 -0.276714
  4 4.118954 -0.003010 -0.001253 0.393563 0.087871 0.152408
  5 4.118855 -0.003272 0.000001 -0.000456 0.228460 0.076602
  6 4.119348 -0.003195 0.000035 -0.010871 0.071825 0.227775
  7 4.120409 -0.002875 0.000994 -0.298417 -0.296102 0.650764
  8 4.443598 -0.000001 -0.000000 1.449402 0.618103 -1.169906
  9 9.024061 0.000001 0.000001 0.000000 0.000000 0.000000
 10 0.505596 -0.483730 1.584066 0.998403 -2.069984 1.418859
 11 6.384775 -0.000001 -0.000001 -0.723811 0.950788 -1.198458
 12 10.242682 0.000001 -0.000000 -0.000000 -0.000000 -2.425648
 13 11.375562 0.000001 -0.000001 -2.216024 -0.578660 -0.141512
 14 0.728681 0.023431 -1.008292 1.210021 0.600763 0.006085
 15 2.136496 -0.000000 0.000002 0.000000 0.000000 -0.078540
 16 2.313138 0.000000 -0.000000 0.000000 0.000000 0.000000
 17 3.115507 -0.886040 -0.021431 -0.620285 0.000392 0.514872
 18 2.011151 -0.000000 0.000001 0.000000 -0.000000 1.322792
 19 2.141380 -0.000001 -0.000000 0.000000 0.000000 0.000000
 20 1.734172 0.000000 0.000001 0.000000 0.000000 0.660693
 21 0.000007 -4.440594 0.000000 1.570544 -0.062990 -0.195737
 22 6.000000 -0.000000 0.000000 -2.051824 -0.000000 -0.000000
 23 0.000001 -4.440601 -0.000000 1.569944 -0.062987 0.004053
 24 11.375563 -0.000002 0.000003 -1.886848 -0.293276 -0.124021
 25 -0.000001 -4.440603 0.000001 1.570144 -0.062988 0.004040
 26 10.510130 0.000000 -0.000000 -0.000000 -0.000000 -2.783620
 27 0.000001 -1.748402 5.000000 0.000000 0.004007 1.602291
 28 5.499999 0.000000 0.000000 0.029959 -0.000000 0.000000
 29 -0.000002 -1.940597 5.000001 -0.044472 0.004003 -0.000180
 30 6.551492 0.000001 0.000001 -0.181800 0.716084 -0.637785
 31 -0.000001 -1.940596 5.000002 -0.027189 -0.053376 0.005295
 32 6.551492 0.000001 0.000001 -0.014596 0.336470 -0.251031
 33 -0.000000 -1.940601 4.999997 -0.066572 -0.152786 -0.110311
 34 -0.505594 0.490807 -1.584066 -0.502466 1.072579 1.996478
 35 6.384775 0.000002 -0.000003 -0.346885 0.449601 -0.774112
 36 10.242682 0.000002 -0.000001 0.000000 0.000000 -1.681172
 37 11.375560 -0.000001 0.000003 1.646786 0.809074 -0.954546
 38 0.728681 0.023431 1.008292 -1.579583 -0.319038 0.212973
 39 2.136497 0.000000 0.000001 -0.000000 -0.000000 1.282817
 40 2.313138 -0.000001 0.000001 0.000000 0.000000 3.141593
 41 3.115506 -0.886040 0.021431 0.420765 0.316066 0.167178
 42 2.011151 0.000000 0.000002 -0.000000 0.000000 2.082010
 43 2.141379 0.000000 -0.000001 0.000000 0.000000 3.141593
 44 1.734172 -0.000000 0.000001 0.000000 -0.000000 1.041748
 45 0.136315 -3.738193 2.525890 1.493698 2.759406 -1.474501
 46 5.613161 0.862366 3.157033 1.595152 -0.135386 0.061522
 47 11.389365 -0.000820 0.158783 1.709302 0.395017 -0.427043
 48 0.000000 -4.440599 0.000000 1.570144 -3.078602 0.004040
 49 5.999999 -0.000000 0.000001 1.709302 0.000000 -0.000000
 50 0.000001 -4.440601 0.000001 1.569944 -3.078603 0.004053
 51 10.510132 0.000001 -0.000000 0.000000 -0.000000 -2.411382
 52 -0.000001 -1.748400 -5.000002 3.141593 0.004007 -1.539299
 53 5.500000 0.000000 0.000000 0.064530 -0.000000 -0.000000
 54 -0.000000 0.000001 -5.000000 -0.044472 3.137590 -0.000177
 55 6.551491 -0.000001 -0.000000 -0.064530 0.163396 -0.243882
 56 -1.266843 -1.937442 -4.950558 -0.066572 -2.988806 -0.110308
 57 6.551491 -0.000001 -0.000000 -0.064530 0.163396 -0.243882
 58 0.699370 -1.944207 -5.006846 -0.027189 -3.088217 0.005298
 59 4.226144 -0.003200 -0.000001 -0.123712 -0.171823 0.320288
 60 -0.000000 5.000001 0.000000 -0.153564 0.000087 2.718702
 61 0.000004 -0.000005 -3.713579 0.095503 -3.012510 -0.750673
 62 0.000003 0.000001 4.999999 3.053197 1.558589 -0.074927
 63 -0.000007 0.000005 3.713580 -0.334410 -2.825096 -0.524885
 64 0.000001 -0.000000 -4.999999 -0.088726 1.558589 3.066334
 65 7.363603 1.646647 0.495663 -3.141593 -1.570796 0.000000
 66 -0.000006 0.000005 3.619081 -0.528284 -2.367383 -1.007256
 67 16.573921 -0.000001 0.000001 -0.000000 0.000000 -2.019199
 68 15.128181 0.000001 -0.000002 0.031619 0.086785 -0.033197
 69 5.758664 4.244731 -0.000000 0.000000 -0.000000 2.033309
 70 3.177726 0.000001 0.000000 0.000000 0.000000 3.141593
 71 15.708951 0.000002 -0.000003 0.016155 0.048356 -0.018185
 72 0.275149 0.189215 -3.445208 3.130898 0.000409 -1.514604
 73 17.210192 -0.000002 0.000002 0.000000 -0.000000 -2.322356
 74 0.000001 -0.000000 -5.000000 -0.079430 1.546568 -1.570856
 75 0.000006 -0.000005 -3.619080 0.196495 -3.011952 -1.279118
 76 16.573921 0.000000 0.000000 -0.000000 0.000000 -1.611348
 77 15.128181 -0.000002 0.000000 0.214418 -0.027533 0.774389
 78 5.758665 4.244730 -0.000000 -0.000000 -0.000000 1.483530
 79 4.003934 0.000000 0.000001 0.000000 0.000000 0.000000
 80 15.708953 -0.000001 0.000000 0.153371 0.002792 0.528179
 81 0.273998 0.191089 3.439762 -3.130907 -0.000437 -1.508107
 82 17.210192 0.000000 0.000000 0.000000 -0.000000 -2.138823
 83 0.000001 0.000001 5.000000 -0.079311 1.595025 -1.570737
time 10
  0 1.130557 9.712686 27.009436 -0.281436 0.436358 -2.443536
  1 11.368429 6.770639 -23.418964 -0.498313 0.132926 2.346876
  2 -2.276934 0.000003 -1.238187 -1.570795 -1.570451 0.000000
  3 1.796604 0.712140 -0.001364 0.438073 -0.204736 -0.276714
  4 4.118954 -0.003010 -0.001253 0.393563 0.087871 0.152408
  5 4.118855 -0.003272 0.000002 -0.000624 0.228617 0.076440
  6 4.119345 -0.003195 0.000035 -0.010871 0.071825 0.227775
  7 4.120410 -0.002877 0.000995 -0.297752 -0.288977 0.648478
  8 4.443598 -0.000001 -0.000000 1.458638 0.610058 -1.163492
  9 9.024062 0.000001 0.000001 0.000000 0.000000 0.000000
 10 0.493774 -0.483720 1.587794 1.013763 -2.071156 1.405377
 11 6.384775 -0.000003 -0.000002 -0.721082 0.951377 -1.200040
 12 10.242682 0.000001 0.000000 0.000000 -0.000000 -2.423314
 13 11.375562 0.000002 0.000000 -2.211627 -0.580122 -0.146323
 14 0.728681 0.023430 -1.008291 1.210021 0.600763 0.006085
 15 2.136496 0.000000 0.000000 -0.000000 -0.000000 -0.078540
 16 2.313139 0.000000 -0.000001 0.000000 0.000000 0.000000
 17 3.115508 -0.886040 -0.021432 -0.620285 0.000392 0.514872
 18 2.011152 0.000000 -0.000001 -0.000000 -0.000000 1.322791
 19 2.141378 0.000001 -0.000000 0.000000 0.000000 0.000000
 20 1.734171 0.000000 0.000001 -0.000000 -0.000000 0.660693
 21 0.000007 -4.440594 0.000001 1.570544 -0.062990 -0.195737
 22 6.000000 -0.000001 0.000001 -2.048689 -0.000000 0.000000
 23 0.000001 -4.440600 0.000000 1.569944 -0.062987 0.004053
 24 11.375563 -0.000001 0.000004 -1.885039 -0.293615 -0.126127
 25 -0.000000 -4.440603 -0.000001 1.570144 -0.062988 0.004040
 26 10.510130 0.000000 -0.000000 -0.000000 0.000000 -2.782453
 27 0.000001 -1.748402 5.000000 -0.000000 0.004007 1.602291
 28 5.500001 -0.000001 -0.000000 0.029002 -0.000000 -0.000000
 29 -0.000001 -1.940598 5.000000 -0.044472 0.004003 -0.000180
 30 6.551491 -0.000001 0.000000 -0.180395 0.717129 -0.638568
 31 0.000001 -1.940598 5.000000 -0.027189 -0.053376 0.005295
 32 6.551491 -0.000000 0.000000 -0.013789 0.336740 -0.251309
 33 0.000000 -1.940601 4.999994 -0.066572 -0.152786 -0.110311
 34 -0.493772 0.490798 -1.587793 -0.521405 1.073274 1.978708
 35 6.384774 0.000002 -0.000003 -0.347329 0.450313 -0.768133
 36 10.242682 0.000002 -0.000001 -0.000000 0.000000 -1.681964
 37 11.375563 -0.000000 0.000003 1.644782 0.808672 -0.957276
 38 0.728681 0.023430 1.008292 -1.579583 -0.319038 0.212973
 39 2.136497 -0.000000 0.000001 -0.000000 -0.000000 1.282817
 40 2.313139 -0.000001 -0.000000 0.000000 0.000000 3.141593
 41 3.115507 -0.886041 0.021433 0.420765 0.316066 0.167178
 42 2.011150 0.000001 -0.000001 0.000000 -0.000000 2.082010
 43 2.141378 0.000000 0.000000 0.000000 0.000000 3.141593
 44 1.734172 -0.000001 -0.000000 0.000000 -0.000000 1.041748
 45 0.136315 -3.738193 2.525891 1.493698 2.759406 -1.474501
 46 5.613160 0.862366 3.157032 1.595152 -0.135386 0.061522
 47 11.389367 -0.000821 0.158784 1.708630 0.395008 -0.428044
 48 0.000000 -4.440599 -0.000001 1.570144 -3.078602 0.004040
 49 6.000000 -0.000001 0.000001 1.708630 0.000000 0.000000
 50 0.000001 -4.440601 0.000001 1.569944 -3.078603 0.004053
 51 10.510131 0.000001 0.000001 0.000000 0.000000 -2.411778
 52 -0.000001 -1.748399 -5.000001 -3.141593 0.004007 -1.539299
 53 5.499999 0.000000 0.000000 0.065094 0.000000 0.000000
 54 -0.000001 0.000001 -5.000001 -0.044472 3.137589 -0.000177
 55 6.551489 0.000000 -0.000001 -0.065094 0.163435 -0.242927
 56 -1.266842 -1.937443 -4.950557 -0.066572 -2.988806 -0.110308
 57 6.551490 0.000000 -0.000001 -0.065094 0.163435 -0.242927
 58 0.699370 -1.944206 -5.006846 -0.027189 -3.088217 0.005298
 59 4.226144 -0.003200 -0.000001 -0.124196 -0.168213 0.319758
 60 -0.000000 5.000002 -0.000000 -0.153564 0.000087 2.718702
 61 0.000004 -0.000005 -3.713579 0.095503 -3.012510 -0.750673
 62 0.000003 0.000001 4.999999 3.053197 1.558589 -0.074927
 63 -0.000007 0.000005 3.713580 -0.334410 -2.825096 -0.524885
 64 0.000001 -0.000000 -4.999999 -0.088726 1.558589 3.066334
 65 7.363603 1.646647 0.495663 -3.141593 -1.570796 0.000000
 66 -0.000006 0.000005 3.619081 -0.528284 -2.367383 -1.007256
 67 16.573921 -0.000001 0.000001 -0.000000 0.000000 -2.019199
 68 15.128181 0.000001 -0.000002 0.031619 0.086785 -0.033197
 69 5.758664 4.244731 -0.000000 0.000000 -0.000000 2.033309
 70 3.177726 0.000001 0.000000 0.000000 0.000000 3.141593
 71 15.708951 0.000002 -0.000003 0.016155 0.048356 -0.018185
 72 0.275149 0.189215 -3.445208 3.130898 0.000409 -1.514604
 73 17.210192 -0.000002 0.000002 0.000000 -0.000000 -2.322356
 74 0.000001 -0.000000 -5.000000 -0.079430 1.546568 -1.570856
 75 0.000006 -0.000005 -3.619080 0.196495 -3.011952 -1.279118
 76 16.573921 0.000000 0.000000 -0.000000 0.000000 -1.611348
 77 15.128181 -0.000002 0.000000 0.214418 -0.027533 0.774389
 78 5.758665 4.244730 -0.000000 -0.000000 -0.000000 1.483530
 79 4.003934 0.000000 0.000001 0.000000 0.000000 0.000000
 80 15.708953 -0.000001 0.000000 0.153371 0.002792 0.528179
 81 0.273998 0.191089 3.439762 -3.130907 -0.000437 -1.508107
 82 17.210192 0.000000 0.000000 0.000000 -0.000000 -2.138823
 83 0.000001 0.000001 5.000000 -0.079311 1.595025 -1.570737
time 11
  0 1.130557 9.712686 27.009436 -0.281436 0.436358 -2.443536
  1 11.368429 6.770639 -23.418964 -0.498313 0.132926 2.346876
  2 -2.276934 0.000003 -1.238187 -1.570795 -1.570451 0.000000
  3 1.796604 0.712140 -0.001364 0.438073 -0.204736 -0.276714
  4 4.118954 -0.003010 -0.001253 0.393563 0.087871 0.152408
  5 4.118855 -0.003273 0.000002 -0.000837 0.228817 0.076235
  6 4.119342 -0.003190 0.000035 -0.010871 0.071825 0.227775
  7 4.120411 -0.002878 0.000995 -0.297012 -0.280807 0.645869
  8 4.443598 0.000001 -0.000000 1.469112 0.600757 -1.156309
  9 9.024061 0.000000 0.000000 0.000000 0.000000 0.000000
 10 0.480189 -0.483706 1.591959 1.031288 -2.072621 1.390007
 11 6.384776 -0.000001 -0.000000 -0.718012 0.952083 -1.201850
 12 10.242681 0.000002 0.000001 0.000000 0.000000 -2.420618
 13 11.375560 0.000002 -0.000003 -2.206618 -0.581758 -0.151845
 14 0.728681 0.023431 -1.008293 1.210021 0.600764 0.006085
 15 2.136497 -0.000000 -0.000001 0.000000 0.000000 -0.078540
 16 2.313138 0.000000 0.000001 0.000000 0.000000 0.000000
 17 3.115506 -0.886040 -0.021431 -0.620285 0.000392 0.514872
 18 2.011151 0.000000 -0.000001 -0.000000 -0.000000 1.322792
 19 2.141381 -0.000000 0.000000 0.000000 0.000000 0.000000
 20 1.734171 0.000000 0.000000 -0.000000 -0.000000 0.660693
 21 0.000008 -4.440593 -0.000000 1.570544 -0.062990 -0.195737
 22 6.000000 -0.000001 -0.000001 -2.045126 -0.000000 0.000000
 23 0.000002 -4.440600 -0.000003 1.569944 -0.062987 0.004053
 24 11.375562 0.000000 0.000001 -1.882985 -0.293987 -0.128537
 25 -0.000001 -4.440603 0.000000 1.570144 -0.062988 0.004040
 26 10.510132 -0.000000 -0.000001 -0.000000 -0.000000 -2.781105
 27 0.000001 -1.748401 4.999999 0.000000 0.004007 1.602291
 28 5.499999 0.000001 0.000001 0.027921 0.000000 0.000000
 29 -0.000000 -1.940598 5.000000 -0.044472 0.004003 -0.000180
 30 6.551491 0.000000 0.000001 -0.178813 0.718336 -0.639448
 31 -0.000000 -1.940597 5.000002 -0.027189 -0.053376 0.005295
 32 6.551491 0.000000 0.000001 -0.012877 0.337053 -0.251617
 33 0.000000 -1.940601 4.999997 -0.066572 -0.152786 -0.110311
 34 -0.480186 0.490786 -1.591958 -0.543180 1.073864 1.958304
 35 6.384776 -0.000001 -0.000001 -0.347863 0.451134 -0.761323
 36 10.242682 -0.000000 -0.000001 0.000000 0.000000 -1.682825
 37 11.375558 -0.000002 0.000001 1.642502 0.808209 -0.960419
 38 0.728680 0.023430 1.008292 -1.579583 -0.319038 0.212973
 39 2.136496 -0.000000 0.000000 0.000000 -0.000000 1.282817
 40 2.313138 -0.000000 0.000000 0.000000 0.000000 3.141593
 41 3.115506 -0.886042 0.021432 0.420766 0.316066 0.167178
 42 2.011151 0.000000 0.000001 0.000000 0.000000 2.082010
 43 2.141379 -0.000000 -0.000000 0.000000 0.000000 3.141593
 44 1.734172 -0.000000 -0.000000 0.000000 0.000000 1.041748
 45 0.136315 -3.738193 2.525891 1.493698 2.759406 -1.474501
 46 5.613160 0.862366 3.157031 1.595152 -0.135386 0.061522
 47 11.389364 -0.000821 0.158783 1.707868 0.394997 -0.429201
 48 0.000000 -4.440600 0.000001 1.570144 -3.078602 0.004040
 49 5.999998 -0.000001 -0.000000 1.707868 0.000000 0.000000
 50 0.000001 -4.440601 -0.000000 1.569944 -3.078603 0.004053
 51 10.510131 -0.000000 0.000000 0.000000 -0.000000 -2.412209
 52 -0.000000 -1.748399 -5.000001 -3.141593 0.004007 -1.539299
 53 5.500000 -0.000001 0.000001 0.065752 0.000000 -0.000000
 54 0.000000 0.000001 -4.999999 -0.044472 3.137589 -0.000177
 55 6.551490 0.000001 -0.000002 -0.065752 0.163488 -0.241831
 56 -1.266844 -1.937442 -4.950558 -0.066572 -2.988806 -0.110308
 57 6.551490 0.000001 -0.000002 -0.065752 0.163488 -0.241831
 58 0.699370 -1.944207 -5.006845 -0.027189 -3.088217 0.005298
 59 4.226145 -0.003201 -0.000001 -0.124748 -0.164073 0.319146
 60 -0.000000 5.000002 0.000000 -0.153564 0.000087 2.718701
 61 0.000004 -0.000005 -3.713579 0.095503 -3.012510 -0.750673
 62 0.000003 0.000001 4.999999 3.053197 1.558589 -0.074927
 63 -0.000007 0.000005 3.713580 -0.334410 -2.825096 -0.524885
 64 0.000001 -0.000000 -4.999999 -0.088726 1.558589 3.066334
 65 7.363603 1.646647 0.495663 -3.141593 -1.570796 0.000000
 66 -0.000006 0.000005 3.619081 -0.528284 -2.367383 -1.007256
 67 16.573921 -0.000001 0.000001 -0.000000 0.000000 -2.019199
 68 15.128181 0.000001 -0.000002 0.031619 0.086785 -0.033197
 69 5.758664 4.244731 -0.000000 0.000000 -0.000000 2.033309
 70 3.177726 0.000001 0.000000 0.000000 0.000000 3.141593
 71 15.708951 0.000002 -0.000003 0.016155 0.048356 -0.018185
 72 0.275149 0.189215 -3.445208 3.130898 0.000409 -1.514604
 73 17.210192 -0.000002 0.000002 0.000000 -0.000000 -2.322356
 74 0.000001 -0.000000 -5.000000 -0.079430 1.546568 -1.570856
 75 0.000006 -0.000005 -3.619080 0.196495 -3.011952 -1.279118
 76 16.573921 0.000000 0.000000 -0.000000 0.000000 -1.611348
 77 15.128181 -0.000002 0.000000 0.214418 -0.027533 0.774389
 78 5.758665 4.244730 -0.000000 -0.000000 -0.000000 1.483530
 79 4.003934 0.000000 0.000001 0.000000 0.000000 0.000000
 80 15.708953 -0.000001 0.000000 0.153371 0.002792 0.528179
 81 0.273998 0.191089 3.439762 -3.130907 -0.000437 -1.508107
 82 17.210192 0.000000 0.000000 0.000000 -0.000000 -2.138823
 83 0.000001 0.000001 5.000000 -0.079311 1.595025 -1.570737
time 12
  0 1.130557 9.712686 27.009436 -0.281436 0.436358 -2.443536
  1 11.368429 6.770639 -23.418964 -0.498313 0.132926 2.346876
  2 -2.276934 0.000003 -1.238187 -1.570795 -1.570451 0.000000
  3 1.796604 0.712140 -0.001364 0.438073 -0.204736 -0.276714
  4 4.118954 -0.003010 -0.001253 0.393563 0.087871 0.152408
  5 4.118851 -0.003271 0.000003 -0.001062 0.229028 0.076020
  6 4.119347 -0.003196 0.000036 -0.010871 0.071825 0.227775
  7 4.120409 -0.002874 0.000994 -0.296295 -0.272635 0.643272
  8 4.443598 0.000000 -0.000000 1.479452 0.591379 -1.149319
  9 9.024061 0.000001 0.000000 0.000000 0.000000 0.000000
 10 0.466569 -0.483700 1.596006 1.048715 -2.074215 1.374735
 11 6.384776 0.000001 -0.000001 -0.715001 0.952806 -1.203674
 12 10.242682 -0.000000 0.000000 0.000000 -0.000000 -2.417899
 13 11.375563 -0.000002 0.000001 -2.201636 -0.583353 -0.157374
 14 0.728681 0.023431 -1.008291 1.210021 0.600763 0.006085
 15 2.136497 0.000000 -0.000001 -0.000000 -0.000000 -0.078540
 16 2.313139 -0.000001 0.000000 0.000000 0.000000 0.000000
 17 3.115506 -0.886041 -0.021430 -0.620285 0.000392 0.514872
 18 2.011151 0.000000 0.000000 -0.000000 -0.000000 1.322792
 19 2.141380 -0.000001 -0.000000 0.000000 0.000000 0.000000
 20 1.734174 0.000002 -0.000000 0.000000 -0.000000 0.660693
 21 0.000008 -4.440594 0.000000 1.570544 -0.062990 -0.195737
 22 5.999999 0.000001 -0.000001 -2.041591 -0.000000 -0.000000
 23 0.000001 -4.440601 -0.000001 1.569944 -0.062987 0.004053
 24 11.375561 -0.000002 0.000003 -1.880950 -0.294343 -0.130942
 25 -0.000000 -4.440604 -0.000001 1.570144 -0.062988 0.004040
 26 10.510130 -0.000001 -0.000000 0.000000 -0.000000 -2.779746
 27 0.000000 -1.748402 5.000000 0.000000 0.004007 1.602290
 28 5.500000 -0.000001 0.000001 0.026858 0.000000 -0.000000
 29 -0.000001 -1.940598 5.000001 -0.044472 0.004003 -0.000180
 30 6.551491 0.000002 -0.000000 -0.177266 0.719546 -0.640323
 31 -0.000000 -1.940599 5.000000 -0.027189 -0.053376 0.005295
 32 6.551491 0.000002 -0.000000 -0.011981 0.337370 -0.251919
 33 -0.000000 -1.940597 4.999995 -0.066572 -0.152786 -0.110311
 34 -0.466566 0.490775 -1.596006 -0.565006 1.074231 1.937883
 35 6.384775 0.000002 -0.000002 -0.348409 0.451958 -0.754535
 36 10.242682 0.000000 0.000001 0.000000 0.000000 -1.683651
 37 11.375560 -0.000001 0.000000 1.640226 0.807742 -0.963580
 38 0.728681 0.023431 1.008292 -1.579583 -0.319038 0.212973
 39 2.136497 -0.000000 0.000001 0.000000 -0.000000 1.282817
 40 2.313139 0.000000 0.000002 0.000000 0.000000 3.141593
 41 3.115506 -0.886040 0.021432 0.420766 0.316066 0.167178
 42 2.011151 -0.000000 0.000000 -0.000000 0.000000 2.082010
 43 2.141379 0.000000 -0.000001 0.000000 0.000000 3.141593
 44 1.734172 -0.000000 -0.000001 -0.000000 -0.000000 1.041748
 45 0.136315 -3.738192 2.525892 1.493698 2.759406 -1.474501
 46 5.613161 0.862367 3.157032 1.595152 -0.135386 0.061522
 47 11.389367 -0.000820 0.158783 1.707108 0.394985 -0.430368
 48 -0.000000 -4.440599 0.000001 1.570144 -3.078602 0.004040
 49 6.000000 -0.000001 -0.000000 1.707108 0.000000 0.000000
 50 0.000001 -4.440599 0.000000 1.569944 -3.078603 0.004053
 51 10.510131 0.000001 0.000001 0.000000 -0.000000 -2.412622
 52 -0.000002 -1.748401 -5.000002 3.141593 0.004007 -1.539299
 53 5.500000 -0.000000 0.000001 0.066419 -0.000000 0.000000
 54 0.000001 0.000000 -4.999999 -0.044472 3.137589 -0.000177
 55 6.551489 0.000001 -0.000001 -0.066419 0.163551 -0.240730
 56 -1.266843 -1.937443 -4.950558 -0.066572 -2.988806 -0.110308
 57 6.551491 -0.000002 0.000001 -0.066419 0.163551 -0.240730
 58 0.699370 -1.944206 -5.006848 -0.027189 -3.088217 0.005298
 59 4.226146 -0.003201 -0.000000 -0.125297 -0.159931 0.318530
 60 -0.000000 5.000002 0.000000 -0.153564 0.000087 2.718702
 61 0.000004 -0.000005 -3.713579 0.095503 -3.012510 -0.750673
 62 0.000003 0.000001 4.999999 3.053197 1.558589 -0.074927
 63 -0.000007 0.000005 3.713580 -0.334410 -2.825096 -0.524885
 64 0.000001 -0.000000 -4.999999 -0.088726 1.558589 3.066334
 65 7.363603 1.646647 0.495663 -3.141593 -1.570796 0.000000
 66 -0.000006 0.000005 3.619081 -0.528284 -2.367383 -1.007256
 67 16.573921 -0.000001 0.000001 -0.000000 0.000000 -2.019199
 68 15.128181 0.000001 -0.000002 0.031619 0.086785 -0.033197
 69 5.758664 4.244731 -0.000000 0.000000 -0.000000 2.033309
 70 3.177726 0.000001 0.000000 0.000000 0.000000 3.141593
 71 15.708951 0.000002 -0.000003 0.016155 0.048356 -0.018185
 72 0.275149 0.189215 -3.445208 3.130898 0.000409 -1.514604
 73 17.210192 -0.000002 0.000002 0.000000 -0.000000 -2.322356
 74 0.000001 -0.000000 -5.000000 -0.079430 1.546568 -1.570856
 75 0.000006 -0.000005 -3.619080 0.196495 -3.011952 -1.279118
 76 16.573921 0.000000 0.000000 -0.000000 0.000000 -1.611348
 77 15.128181 -0.000002 0.000000 0.214418 -0.027533 0.774389
 78 5.758665 4.244730 -0.000000 -0.000000 -0.000000 1.483530
 79 4.003934 0.000000 0.000001 0.000000 0.000000 0.000000
 80 15.708953 -0.000001 0.000000 0.153371 0.002792 0.528179
 81 0.273998 0.191089 3.439762 -3.130907 -0.000437 -1.508107
 82 17.210192 0.000000 0.000000 0.000000 -0.000000 -2.138823
 83 0.000001 0.000001 5.000000 -0.079311 1.595025 -1.570737
time 13
  0 1.130557 9.712686 27.009436 -0.281436 0.436358 -2.443536
  1 11.368429 6.770639 -23.418964 -0.498313 0.132926 2.346876
  2 -2.276934 0.000003 -1.238187 -1.570795 -1.570451 0.000000
  3 1.796604 0.712140 -0.001364 0.438073 -0.204736 -0.276714
  4 4.118954 -0.003010 -0.001253 0.393563 0.087871 0.152408
  5 4.118854 -0.003273 0.000004 -0.001264 0.229217 0.075826
  6 4.119343 -0.003192 0.000035 -0.010871 0.071825 0.227775
  7 4.120410 -0.002877 0.000994 -0.295690 -0.265505 0.641017
  8 4.443598 0.000001 -0.000000 1.488361 0.583138 -1.143383
  9 9.024060 -0.000000 -0.000000 0.000000 0.000000 0.000000
 10 0.454659 -0.483687 1.599443 1.063832 -2.075709 1.361499
 11 6.384775 -0.000002 -0.000001 -0.712430 0.953444 -1.205285
 12 10.242681 0.000001 -0.000000 0.000000 -0.000000 -2.415510
 13 11.375561 0.000000 -0.000001 -2.197310 -0.584710 -0.162196
 14 0.728680 0.023431 -1.008291 1.210021 0.600763 0.006085
 15 2.136497 -0.000000 0.000000 -0.000000 -0.000000 -0.078540
 16 2.313140 0.000000 -0.000000 0.000000 0.000000 0.000000
 17 3.115507 -0.886040 -0.021431 -0.620285 0.000392 0.514872
 18 2.011150 -0.000000 -0.000000 -0.000000 -0.000000 1.322792
 19 2.141379 0.000000 -0.000000 0.000000 0.000000 0.000000
 20 1.734172 0.000001 -0.000000 -0.000000 0.000000 0.660693
 21 0.000007 -4.440594 0.000001 1.570544 -0.062990 -0.195737
 22 5.999999 0.000001 -0.000001 -2.038530 -0.000000 0.000000
 23 0.000001 -4.440601 -0.000002 1.569944 -0.062987 0.004053
 24 11.375562 -0.000002 0.000003 -1.879189 -0.294643 -0.133033
 25 -0.000002 -4.440604 0.000000 1.570144 -0.062988 0.004040
 26 10.510131 -0.000001 -0.000001 -0.000000 0.000000 -2.778551
 27 0.000000 -1.748402 4.999999 -0.000000 0.004007 1.602290
 28 5.499998 0.000000 0.000000 0.025948 0.000000 -0.000000
 29 0.000000 -1.940598 4.999998 -0.044472 0.004003 -0.000180
 30 6.551490 -0.000001 0.000000 -0.175949 0.720601 -0.641088
 31 0.000000 -1.940598 5.000000 -0.027189 -0.053376 0.005295
 32 6.551490 -0.000001 -0.000000 -0.011212 0.337647 -0.252179
 33 0.000000 -1.940601 4.999995 -0.066572 -0.152786 -0.110311
 34 -0.454657 0.490769 -1.599442 -0.584074 1.074370 1.920070
 35 6.384775 0.000002 -0.000003 -0.348889 0.452682 -0.748624
 36 10.242683 -0.000000 0.000000 0.000000 -0.000000 -1.684349
 37 11.375561 -0.000001 0.000002 1.638245 0.807331 -0.966349
 38 0.728681 0.023431 1.008293 -1.579583 -0.319038 0.212973
 39 2.136496 0.000000 0.000000 -0.000000 -0.000000 1.282817
 40 2.313138 -0.000001 0.000000 0.000000 0.000000 3.141593
 41 3.115506 -0.886040 0.021432 0.420766 0.316066 0.167178
 42 2.011151 -0.000000 -0.000000 -0.000000 -0.000000 2.082010
 43 2.141378 -0.000000 0.000000 0.000000 0.000000 3.141593
 44 1.734173 -0.000001 0.000001 0.000000 -0.000000 1.041748
 45 0.136315 -3.738192 2.525888 1.493698 2.759406 -1.474501
 46 5.613159 0.862367 3.157031 1.595152 -0.135386 0.061522
 47 11.389367 -0.000819 0.158784 1.706446 0.394974 -0.431392
 48 0.000000 -4.440599 -0.000001 1.570144 -3.078602 0.004040
 49 6.000000 -0.000000 0.000002 1.706446 0.000000 0.000000
 50 0.000000 -4.440603 0.000001 1.569944 -3.078603 0.004053
 51 10.510132 -0.000000 0.000001 0.000000 0.000000 -2.412971
 52 -0.000001 -1.748401 -5.000000 -3.141593 0.004007 -1.539299
 53 5.500000 -0.000001 0.000000 0.067006 -0.000000 0.000000
 54 -0.000001 0.000000 -5.000001 -0.044472 3.137589 -0.000177
 55 6.551490 -0.000001 0.000000 -0.067006 0.163613 -0.239765
 56 -1.266844 -1.937441 -4.950559 -0.066572 -2.988806 -0.110308
 57 6.551491 -0.000001 0.000000 -0.067006 0.163613 -0.239765
 58 0.699372 -1.944209 -5.006844 -0.027189 -3.088217 0.005298
 59 4.226144 -0.003202 -0.000001 -0.125775 -0.156315 0.317988
 60 0.000000 4.999999 -0.000000 -0.153564 0.000087 2.718702
 61 0.000004 -0.000005 -3.713579 0.095503 -3.012510 -0.750673
 62 0.000003 0.000001 4.999999 3.053197 1.558589 -0.074927
 63 -0.000007 0.000005 3.713580 -0.334410 -2.825096 -0.524885
 64 0.000001 -0.000000 -4.999999 -0.088726 1.558589 3.066334
 65 7.363603 1.646647 0.495663 -3.141593 -1.570796 0.000000
 66 -0.000006 0.000005 3.619081 -0.528284 -2.367383 -1.007256
 67 16.573921 -0.000001 0.000001 -0.000000 0.000000 -2.019199
 68 15.128181 0.000001 -0.000002 0.031619 0.086785 -0.033197
 69 5.758664 4.244731 -0.000000 0.000000 -0.000000 2.033309
 70 3.177726 0.000001 0.000000 0.000000 0.000000 3.141593
 71 15.708951 0.000002 -0.000003 0.016155 0.048356 -0.018185
 72 0.275149 0.189215 -3.445208 3.130898 0.000409 -1.514604
 73 17.210192 -0.000002 0.000002 0.000000 -0.000000 -2.322356
 74 0.000001 -0.000000 -5.000000 -0.079430 1.546568 -1.570856
 75 0.000006 -0.000005 -3.619080 0.196495 -3.011952 -1.279118
 76 16.573921 0.000000 0.000000 -0.000000 0.000000 -1.611348
 77 15.128181 -0.000002 0.000000 0.214418 -0.027533 0.774389
 78 5.758665 4.244730 -0.000000 -0.000000 -0.000000 1.483530
 79 4.003934 0.000000 0.000001 0.000000 0.000000 0.000000
 80 15.708953 -0.000001 0.000000 0.153371 0.002792 0.528179
 81 0.273998 0.191089 3.439762 -3.130907 -0.000437 -1.508107
 82 17.210192 0.000000 0.000000 0.000000 -0.000000 -2.138823
 83 0.000001 0.000001 5.000000 -0.079311 1.595025 -1.570737
time 14
  0 1.130557 9.712686 27.009436 -0.281436 0.436358 -2.443536
  1 11.368429 6.770639 -23.418964 -0.498313 0.132926 2.346876
  2 -2.276934 0.000003 -1.238187 -1.570795 -1.570451 0.000000
  3 1.796604 0.712140 -0.001364 0.438073 -0.204736 -0.276714
  4 4.118954 -0.003010 -0.001253 0.393563 0.087871 0.152408
  5 4.118851 -0.003271 0.000004 -0.001409 0.229354 0.075685
  6 4.119347 -0.003196 0.000036 -0.010871 0.071825 0.227775
  7 4.120412 -0.002877 0.000995 -0.295272 -0.260462 0.639427
  8 4.443598 0.000002 -0.000000 1.494602 0.577277 -1.139273
  9 9.024061 -0.000001 0.000000 0.000000 0.000000 0.000000
 10 0.446220 -0.483678 1.601820 1.074474 -2.076825 1.352188
 11 6.384778 0.000002 0.000001 -0.710639 0.953898 -1.206435
 12 10.242680 0.000001 -0.000000 -0.000000 0.000000 -2.413810
 13 11.375561 -0.000001 -0.000002 -2.194261 -0.585652 -0.165608
 14 0.728680 0.023430 -1.008291 1.210021 0.600763 0.006085
 15 2.136498 -0.000000 -0.000001 0.000000 -0.000000 -0.078540
 16 2.313140 -0.000000 -0.000000 0.000000 0.000000 0.000000
 17 3.115506 -0.886042 -0.021430 -0.620285 0.000392 0.514872
 18 2.011151 0.000000 0.000000 -0.000000 -0.000000 1.322792
 19 2.141378 0.000002 0.000001 0.000000 0.000000 0.000000
 20 1.734171 0.000000 0.000001 0.000000 0.000000 0.660693
 21 0.000006 -4.440593 0.000002 1.570544 -0.062990 -0.195737
 22 6.000000 0.000000 -0.000001 -2.036376 0.000000 0.000000
 23 0.000001 -4.440600 -0.000001 1.569944 -0.062987 0.004053
 24 11.375561 0.000001 0.000001 -1.877950 -0.294847 -0.134509
 25 -0.000002 -4.440603 -0.000002 1.570144 -0.062988 0.004040
 26 10.510131 -0.000000 -0.000002 -0.000000 0.000000 -2.777701
 27 0.000001 -1.748402 5.000000 0.000000 0.004007 1.602291
 28 5.500001 -0.000001 -0.000001 0.025313 -0.000000 0.000000
 29 0.000001 -1.940598 5.000000 -0.044472 0.004003 -0.000180
 30 6.551491 0.000000 -0.000001 -0.175036 0.721348 -0.641631
 31 0.000001 -1.940599 5.000001 -0.027189 -0.053376 0.005295
 32 6.551491 0.000000 -0.000001 -0.010676 0.337844 -0.252362
 33 0.000000 -1.940599 4.999998 -0.066572 -0.152786 -0.110311
 34 -0.446217 0.490759 -1.601819 -0.597568 1.074367 1.907478
 35 6.384776 -0.000001 0.000001 -0.349231 0.453196 -0.744449
 36 10.242682 0.000001 -0.000000 -0.000000 -0.000000 -1.684831
 37 11.375560 -0.000000 0.000002 1.636844 0.807038 -0.968316
 38 0.728681 0.023429 1.008291 -1.579583 -0.319038 0.212973
 39 2.136497 0.000000 0.000001 0.000000 -0.000000 1.282817
 40 2.313139 0.000001 0.000002 0.000000 0.000000 3.141593
 41 3.115507 -0.886042 0.021432 0.420765 0.316066 0.167178
 42 2.011150 0.000000 0.000001 -0.000000 0.000000 2.082010
 43 2.141380 0.000000 -0.000002 0.000000 0.000000 3.141593
 44 1.734172 -0.000000 0.000001 -0.000000 -0.000000 1.041748
 45 0.136315 -3.738192 2.525890 1.493698 2.759406 -1.474501
 46 5.613160 0.862366 3.157031 1.595152 -0.135386 0.061522
 47 11.389365 -0.000820 0.158784 1.705979 0.394965 -0.432121
 48 -0.000000 -4.440600 0.000001 1.570144 -3.078602 0.004040
 49 5.999999 -0.000000 0.000001 1.705979 0.000000 0.000000
 50 0.000002 -4.440601 -0.000001 1.569944 -3.078603 0.004053
 51 10.510132 0.000000 0.000002 0.000000 0.000000 -2.413212
 52 -0.000000 -1.748398 -5.000000 3.141593 0.004007 -1.539299
 53 5.500000 0.000000 0.000001 0.067425 -0.000000 -0.000000
 54 0.000001 -0.000000 -5.000000 -0.044472 3.137589 -0.000177
 55 6.551489 0.000001 -0.000001 -0.067425 0.163661 -0.239080
 56 -1.266843 -1.937443 -4.950560 -0.066572 -2.988806 -0.110308
 57 6.551490 0.000001 -0.000001 -0.067425 0.163661 -0.239080
 58 0.699371 -1.944207 -5.006847 -0.027189 -3.088217 0.005298
 59 4.226146 -0.003200 -0.000000 -0.126112 -0.153756 0.317603
 60 0.000000 5.000001 0.000000 -0.153564 0.000087 2.718702
 61 0.000004 -0.000005 -3.713579 0.095503 -3.012510 -0.750673
 62 0.000003 0.000001 4.999999 3.053197 1.558589 -0.074927
 63 -0.000007 0.000005 3.713580 -0.334410 -2.825096 -0.524885
 64 0.000001 -0.000000 -4.999999 -0.088726 1.558589 3.066334
 65 7.363603 1.646647 0.495663 -3.141593 -1.570796 0.000000
 66 -0.000006 0.000005 3.619081 -0.528284 -2.367383 -1.007256
 67 16.573921 -0.000001 0.000001 -0.000000 0.000000 -2.019199
 68 15.128181 0.000001 -0.000002 0.031619 0.086785 -0.033197
 69 5.758664 4.244731 -0.000000 0.000000 -0.000000 2.033309
 70 3.177726 0.000001 0.000000 0.000000 0.000000 3.141593
 71 15.708951 0.000002 -0.000003 0.016155 0.048356 -0.018185
 72 0.275149 0.189215 -3.445208 3.130898 0.000409 -1.514604
 73 17.210192 -0.000002 0.000002 0.000000 -0.000000 -2.322356
 74 0.000001 -0.000000 -5.000000 -0.079430 1.546568 -1.570856
 75 0.000006 -0.000005 -3.619080 0.196495 -3.011952 -1.279118
 76 16.573921 0.000000 0.000000 -0.000000 0.000000 -1.611348
 77 15.128181 -0.000002 0.000000 0.214418 -0.027533 0.774389
 78 5.758665 4.244730 -0.000000 -0.000000 -0.000000 1.483530
 79 4.003934 0.000000 0.000001 0.000000 0.000000 0.000000
 80 15.708953 -0.000001 0.000000 0.153371 0.002792 0.528179
 81 0.273998 0.191089 3.439762 -3.130907 -0.000437 -1.508107
 82 17.210192 0.000000 0.000000 0.000000 -0.000000 -2.138823
 83 0.000001 0.000001 5.000000 -0.079311 1.595025 -1.570737
time 15
  0 1.130557 9.712686 27.009436 -0.281436 0.436358 -2.443536
  1 11.368429 6.770639 -23.418964 -0.498313 0.132926 2.346876
  2 -2.276934 0.000003 -1.238187 -1.570795 -1.570451 0.000000
  3 1.796604 0.712140 -0.001364 0.438073 -0.204736 -0.276714
  4 4.118954 -0.003010 -0.001253 0.393563 0.087871 0.152408
  5 4.118851 -0.003272 0.000005 -0.001466 0.229406 0.075632
  6 4.119348 -0.003195 0.000036 -0.010871 0.071825 0.227775
  7 4.120410 -0.002877 0.000995 -0.295116 -0.258548 0.638825
  8 4.443598 -0.000001 -0.000000 1.496956 0.575047 -1.137734
  9 9.024061 -0.000001 0.000000 0.000000 0.000000 0.000000
 10 0.443016 -0.483680 1.602710 1.078499 -2.077260 1.348668
 11 6.384776 -0.000002 -0.000001 -0.709968 0.954073 -1.206873
 12 10.242681 0.000001 -0.000000 -0.000000 0.000000 -2.413163
 13 11.375561 -0.000001 -0.000002 -2.193107 -0.586004 -0.166903
 14 0.728681 0.023432 -1.008292 1.210021 0.600763 0.006085
 15 2.136497 -0.000001 0.000000 0.000000 -0.000000 -0.078540
 16 2.313138 -0.000000 -0.000000 0.000000 0.000000 0.000000
 17 3.115506 -0.886040 -0.021432 -0.620285 0.000392 0.514872
 18 2.011151 0.000000 -0.000001 -0.000000 -0.000000 1.322792
 19 2.141379 -0.000000 -0.000001 0.000000 0.000000 0.000000
 20 1.734173 0.000001 -0.000000 0.000000 0.000000 0.660693
 21 0.000006 -4.440594 0.000002 1.570544 -0.062990 -0.195737
 22 6.000000 -0.000000 -0.000001 -2.035561 0.000000 0.000000
 23 0.000001 -4.440601 0.000002 1.569944 -0.062987 0.004053
 24 11.375561 -0.000000 0.000000 -1.877482 -0.294923 -0.135068
 25 -0.000001 -4.440603 -0.000001 1.570144 -0.062988 0.004040
 26 10.510129 0.000001 0.000000 0.000000 0.000000 -2.777378
 27 -0.000000 -1.748401 4.999998 -0.000000 0.004007 1.602290
 28 5.499999 0.000001 0.000000 0.025073 0.000000 0.000000
 29 -0.000002 -1.940598 5.000001 -0.044472 0.004003 -0.000180
 30 6.551490 -0.000001 -0.000000 -0.174693 0.721632 -0.641836
 31 0.000001 -1.940598 5.000000 -0.027189 -0.053376 0.005295
 32 6.551490 -0.000001 -0.000000 -0.010474 0.337919 -0.252431
 33 -0.000000 -1.940600 4.999995 -0.066572 -0.152786 -0.110311
 34 -0.443013 0.490757 -1.602709 -0.602687 1.074343 1.902705
 35 6.384776 -0.000001 -0.000000 -0.349360 0.453390 -0.742867
 36 10.242682 -0.000000 0.000001 -0.000000 -0.000000 -1.685011
 37 11.375560 -0.000002 0.000000 1.636314 0.806925 -0.969063
 38 0.728681 0.023431 1.008292 -1.579583 -0.319038 0.212973
 39 2.136497 -0.000001 -0.000001 -0.000000 -0.000000 1.282817
 40 2.313138 -0.000000 -0.000000 0.000000 0.000000 3.141593
 41 3.115506 -0.886040 0.021431 0.420765 0.316066 0.167178
 42 2.011151 0.000001 0.000001 -0.000000 0.000000 2.082010
 43 2.141379 0.000000 -0.000001 0.000000 0.000000 3.141593
 44 1.734172 -0.000000 0.000001 0.000000 -0.000000 1.041748
 45 0.136315 -3.738192 2.525891 1.493698 2.759406 -1.474501
 46 5.613159 0.862368 3.157031 1.595152 -0.135386 0.061522
 47 11.389365 -0.000821 0.158782 1.705802 0.394962 -0.432398
 48 0.000000 -4.440599 0.000000 1.570144 -3.078602 0.004040
 49 6.000000 -0.000001 0.000000 1.705802 0.000000 0.000000
 50 -0.000000 -4.440602 0.000000 1.569944 -3.078603 0.004053
 51 10.510131 0.000000 0.000001 -0.000000 0.000000 -2.413302
 52 -0.000001 -1.748400 -5.000000 -3.141593 0.004007 -1.539299
 53 5.500000 0.000001 -0.000000 0.067584 -0.000000 0.000000
 54 -0.000000 0.000000 -5.000001 -0.044472 3.137589 -0.000177
 55 6.551490 -0.000002 0.000000 -0.067584 0.163680 -0.238819
 56 -1.266844 -1.937443 -4.950558 -0.066572 -2.988806 -0.110308
 57 6.551491 -0.000001 0.000000 -0.067584 0.163680 -0.238819
 58 0.699371 -1.944208 -5.006845 -0.027189 -3.088217 0.005298
 59 4.226144 -0.003202 -0.000000 -0.126239 -0.152785 0.317456
 60 -0.000001 5.000001 -0.000000 -0.153564 0.000087 2.718701
 61 0.000004 -0.000005 -3.713579 0.095503 -3.012510 -0.750673
 62 0.000003 0.000001 4.999999 3.053197 1.558589 -0.074927
 63 -0.000007 0.000005 3.713580 -0.334410 -2.825096 -0.524885
 64 0.000001 -0.000000 -4.999999 -0.088726 1.558589 3.066334
 65 7.363603 1.646647 0.495663 -3.141593 -1.570796 0.000000
 66 -0.000006 0.000005 3.619081 -0.528284 -2.367383 -1.007256
 67 16.573921 -0.000001 0.000001 -0.000000 0.000000 -2.019199
 68 15.128181 0.000001 -0.000002 0.031619 0.086785 -0.033197
 69 5.758664 4.244731 -0.000000 0.000000 -0.000000 2.033309
 70 3.177726 0.000001 0.000000 0.000000 0.000000 3.141593
 71 15.708951 0.000002 -0.000003 0.016155 0.048356 -0.018185
 72 0.275149 0.189215 -3.445208 3.130898 0.000409 -1.514604
 73 17.210192 -0.000002 0.000002 0.000000 -0.000000 -2.322356
 74 0.000001 -0.000000 -5.000000 -0.079430 1.546568 -1.570856
 75 0.000006 -0.000005 -3.619080 0.196495 -3.011952 -1.279118
 76 16.573921 0.000000 0.000000 -0.000000 0.000000 -1.611348
 77 15.128181 -0.000002 0.000000 0.214418 -0.027533 0.774389
 78 5.758665 4.244730 -0.000000 -0.000000 -0.000000 1.483530
 79 4.003934 0.000000 0.000001 0.000000 0.000000 0.000000
 80 15.708953 -0.000001 0.000000 0.153371 0.002792 0.528179
 81 0.273998 0.191089 3.439762 -3.130907 -0.000437 -1.508107
 82 17.210192 0.000000 0.000000 0.000000 -0.000000 -2.138823
 83 0.000001 0.000001 5.000000 -0.079311 1.595025 -1.570737
end
