version 1
nodes
  0 "Bip01"  -1
  1 "Bip01 Footsteps"   0
  2 "Bip01 Pelvis"   0
  3 "Bip01 Spine"   2
  4 "Bip01 Spine1"   3
  5 "Bip01 Spine2"   4
  6 "Bip01 Spine3"   5
  7 "Bip01 Neck"   6
  8 "Bip01 Head"   7
  9 "Dummy21"   8
 10 "Bip01 L Clavicle"   7
 11 "Bip01 L UpperArm"  10
 12 "Bip01 L Forearm"  11
 13 "Bip01 L Hand"  12
 14 "Bip01 L Finger0"  13
 15 "Bip01 L Finger01"  14
 16 "Dummy06"  15
 17 "Bip01 L Finger1"  13
 18 "Bip01 L Finger11"  17
 19 "Dummy03"  18
 20 "-- L knuckle"  17
 21 "-- L knuckle_end"  20
 22 "-- L Forearm twist"  12
 23 "-- L Forearm twist_end"  22
 24 "-- L wrist"  12
 25 "-- L wrist_end"  24
 26 "-- L Elbow"  11
 27 "--L Elbow_end"  26
 28 "-- L bicep twist"  11
 29 "-- L bicep twist_end"  28
 30 "-- L shoulder outside"  10
 31 "-- L shoulder outside_end"  30
 32 "-- L Shoulder inside"  10
 33 "-- L Shoulder inside_end"  32
 34 "Bip01 R Clavicle"   7
 35 "Bip01 R UpperArm"  34
 36 "Bip01 R Forearm"  35
 37 "Bip01 R Hand"  36
 38 "Bip01 R Finger0"  37
 39 "Bip01 R Finger01"  38
 40 "Dummy01"  39
 41 "Bip01 R Finger1"  37
 42 "Bip01 R Finger11"  41
 43 "Dummy02"  42
 44 "-- R knuckle"  41
 45 "Point06"  44
 46 "Line01"  37
 47 "-- R wrist"  36
 48 "-- R wrist_end"  47
 49 "-- R forearm twist"  36
 50 "-- R forearm twist_end"  49
 51 "-- R Elbow"  35
 52 "--R Elbow_end"  51
 53 "-- R bicep twist"  35
 54 "-- R bicep twist_end"  53
 55 "-- R Shoulder inside"  34
 56 "-- R Shoulder inside_end"  55
 57 "-- R shoulder outside"  34
 58 "-- R shoulder outside_end"  57
 59 "-- Neck smooth"   6
 60 "-- neck smooth end"  59
 61 "-- R Butt"   2
 62 "--R Butt_end"  61
 63 "-- L butt"   2
 64 "--L butt_end"  63
 65 "GIGN01"   2
 66 "Bip01 L Thigh"   2
 67 "Bip01 L Calf"  66
 68 "Bip01 L Foot"  67
 69 "Bip01 L Toe0"  68
 70 "Dummy16"  69
 71 "-- L ankle"  67
 72 "-- L ankleend"  71
 73 "-- L Knee"  66
 74 "--L Knee_end"  73
 75 "Bip01 R Thigh"   2
 76 "Bip01 R Calf"  75
 77 "Bip01 R Foot"  76
 78 "Bip01 R Toe0"  77
 79 "Dummy11"  78
 80 "-- R Ankle"  76
 81 "-- R ankleend"  80
 82 "-- R Knee"  75
 83 "--R Knee_end"  82
end
skeleton
time 0
  0 1.130557 9.712686 27.009436 -0.281436 0.436358 -2.443536
  1 11.368429 6.770639 -23.418964 -0.498313 0.132926 2.346876
  2 -2.276934 0.000003 -1.238187 -1.570795 -1.570451 0.000000
  3 1.796318 0.712092 0.001085 -0.349889 -0.259891 -0.176263
  4 4.119235 -0.003133 0.000736 -0.228318 0.111355 0.173177
  5 4.119120 -0.003155 0.000730 -0.226566 0.146724 0.128829
  6 4.119348 -0.003112 0.000723 -0.224384 0.119170 0.207333
  7 4.120411 -0.002875 0.000995 -0.295116 -0.258548 0.638825
  8 4.443599 0.000001 -0.000001 0.401171 0.470022 -0.455373
  9 9.024061 0.000001 0.000000 0.000000 0.000000 0.000000
 10 0.443016 -0.483678 1.602709 2.053125 -1.118918 0.628601
 11 6.384774 -0.000000 0.000000 -0.380927 0.435290 -0.761803
 12 10.242683 0.000000 -0.000001 0.000000 -0.000000 -1.515549
 13 11.375561 -0.000003 0.000000 -2.806669 -0.177115 0.434721
 14 0.728681 0.023432 -1.008292 1.210021 0.600763 0.006085
 15 2.136496 -0.000000 -0.000001 0.000000 -0.000000 -0.078540
 16 2.313140 -0.000001 -0.000001 0.000000 0.000000 0.000000
 17 3.115506 -0.886041 -0.021430 -0.620285 0.000392 0.514872
 18 2.011151 -0.000001 0.000001 0.000000 0.000000 1.322792
 19 2.141382 -0.000001 -0.000000 0.000000 0.000000 0.000000
 20 1.734174 0.000001 -0.000001 0.000000 -0.000000 0.660693
 21 0.000005 -4.440592 0.000000 1.570544 -0.062990 -0.195737
 22 6.000000 -0.000001 -0.000000 -2.531325 0.000000 -0.000000
 23 0.000002 -4.440601 0.000000 1.569944 -0.062987 0.004053
 24 11.375560 -0.000002 0.000003 -2.176880 -0.171919 0.201483
 25 -0.000001 -4.440604 -0.000000 1.570144 -0.062988 0.004040
 26 10.510131 0.000001 -0.000001 0.000000 -0.000000 -2.328571
 27 0.000001 -1.748400 4.999999 0.000000 0.004007 1.602291
 28 5.500002 0.000001 -0.000001 0.097811 0.000000 -0.000000
 29 -0.000002 -1.940598 5.000001 -0.044472 0.004003 -0.000180
 30 6.551491 -0.000000 -0.000003 -0.205267 0.302794 -0.521964
 31 -0.000001 -1.940599 5.000002 -0.027189 -0.053376 0.005295
 32 6.551491 -0.000000 -0.000003 -0.078207 0.159672 -0.241882
 33 -0.000000 -1.940598 4.999996 -0.066572 -0.152786 -0.110311
 34 -0.443012 0.490755 -1.602711 0.170176 0.824939 2.730303
 35 6.384775 -0.000001 0.000001 -0.917619 -0.430219 0.018356
 36 10.242682 0.000001 0.000000 -0.000000 -0.000000 -2.085449
 37 11.375563 0.000001 0.000002 1.764332 0.663659 -0.185444
 38 0.728681 0.023432 1.008292 -1.579583 -0.319038 0.212973
 39 2.136497 -0.000002 -0.000002 -0.000000 0.000000 1.282817
 40 2.313140 0.000001 0.000001 0.000000 0.000000 3.141593
 41 3.115506 -0.886040 0.021431 0.420766 0.316066 0.167178
 42 2.011150 -0.000000 0.000000 -0.000000 0.000000 2.082010
 43 2.141380 -0.000001 0.000001 0.000000 0.000000 3.141593
 44 1.734172 -0.000001 -0.000001 -0.000000 -0.000000 1.041748
 45 0.136315 -3.738192 2.525890 1.493698 2.759406 -1.474501
 46 5.613160 0.862367 3.157033 1.595152 -0.135386 0.061522
 47 11.389368 -0.000819 0.158783 1.678913 0.336283 -0.113584
 48 -0.000000 -4.440599 0.000001 1.570144 -3.078602 0.004040
 49 6.000000 -0.000001 -0.000000 1.678913 -0.000000 -0.000000
 50 0.000001 -4.440599 -0.000000 1.569944 -3.078603 0.004053
 51 10.510132 0.000001 0.000000 -0.000000 0.000000 -2.613521
 52 0.000001 -1.748399 -5.000000 -3.141593 0.004007 -1.539299
 53 5.499999 0.000003 -0.000001 0.276350 -0.000000 0.000000
 54 -0.000001 0.000001 -5.000000 -0.044472 3.137590 -0.000177
 55 6.551489 0.000000 -0.000001 -0.276351 -0.201505 -0.049784
 56 -1.266843 -1.937443 -4.950559 -0.066572 -2.988806 -0.110308
 57 6.551489 0.000000 -0.000001 -0.276351 -0.201505 -0.049784
 58 0.699369 -1.944206 -5.006848 -0.027189 -3.088217 0.005298
 59 4.226147 -0.003201 0.000001 -0.126239 -0.152785 0.317456
 60 -0.000000 5.000000 -0.000000 -0.153564 0.000087 2.718702
 61 0.000004 -0.000005 -3.713579 0.095503 -3.012510 -0.750673
 62 0.000003 0.000001 4.999999 3.053197 1.558589 -0.074927
 63 -0.000007 0.000005 3.713580 -0.334410 -2.825096 -0.524885
 64 0.000001 -0.000000 -4.999999 -0.088726 1.558589 3.066334
 65 7.363603 1.646647 0.495663 -3.141593 -1.570796 0.000000
 66 -0.000006 0.000005 3.619081 -0.528284 -2.367383 -1.007256
 67 16.573921 -0.000001 0.000001 -0.000000 0.000000 -2.019199
 68 15.128181 0.000001 -0.000002 0.031619 0.086785 -0.033197
 69 5.758664 4.244731 -0.000000 0.000000 -0.000000 2.033309
 70 3.177726 0.000001 0.000000 0.000000 0.000000 3.141593
 71 15.708951 0.000002 -0.000003 0.016155 0.048356 -0.018185
 72 0.275149 0.189215 -3.445208 3.130898 0.000409 -1.514604
 73 17.210192 -0.000002 0.000002 0.000000 -0.000000 -2.322356
 74 0.000001 -0.000000 -5.000000 -0.079430 1.546568 -1.570856
 75 0.000006 -0.000005 -3.619080 0.196495 -3.011952 -1.279118
 76 16.573921 0.000000 0.000000 -0.000000 0.000000 -1.611348
 77 15.128181 -0.000002 0.000000 0.214418 -0.027533 0.774389
 78 5.758665 4.244730 -0.000000 -0.000000 -0.000000 1.483530
 79 4.003934 0.000000 0.000001 0.000000 0.000000 0.000000
 80 15.708953 -0.000001 0.000000 0.153371 0.002792 0.528179
 81 0.273998 0.191089 3.439762 -3.130907 -0.000437 -1.508107
 82 17.210192 0.000000 0.000000 0.000000 -0.000000 -2.138823
 83 0.000001 0.000001 5.000000 -0.079311 1.595025 -1.570737
time 1
  0 1.130557 9.712686 27.009436 -0.281436 0.436358 -2.443536
  1 11.368429 6.770639 -23.418964 -0.498313 0.132926 2.346876
  2 -2.276934 0.000003 -1.238187 -1.570795 -1.570451 0.000000
  3 1.796344 0.712028 0.000912 -0.292668 -0.263184 -0.178515
  4 4.119232 -0.003133 0.000737 -0.228318 0.111355 0.173177
  5 4.119120 -0.003155 0.000730 -0.226566 0.146724 0.128829
  6 4.119348 -0.003111 0.000723 -0.224384 0.119170 0.207333
  7 4.120411 -0.002875 0.000994 -0.295116 -0.258548 0.638825
  8 4.443600 -0.000001 -0.000002 0.340019 0.519059 -0.493464
  9 9.024061 0.000001 0.000000 0.000000 0.000000 0.000000
 10 0.443018 -0.483680 1.602708 2.053125 -1.118919 0.628601
 11 6.384778 0.000000 -0.000004 -0.412841 0.355979 -0.854200
 12 10.242682 0.000002 -0.000001 0.000000 0.000000 -1.332751
 13 11.375561 -0.000002 -0.000001 -2.813994 -0.095345 0.379306
 14 0.728682 0.023429 -1.008292 1.210021 0.600763 0.006085
 15 2.136499 -0.000001 -0.000001 -0.000000 -0.000000 -0.078540
 16 2.313138 -0.000001 0.000000 0.000000 0.000000 0.000000
 17 3.115507 -0.886041 -0.021431 -0.620285 0.000392 0.514872
 18 2.011151 -0.000001 -0.000001 -0.000000 -0.000000 1.322792
 19 2.141379 -0.000000 0.000001 0.000000 0.000000 0.000000
 20 1.734173 0.000003 -0.000000 0.000000 -0.000000 0.660693
 21 0.000004 -4.440593 0.000001 1.570544 -0.062990 -0.195737
 22 6.000000 -0.000002 -0.000001 -2.539913 -0.000000 0.000000
 23 0.000001 -4.440601 0.000000 1.569944 -0.062987 0.004053
 24 11.375560 -0.000002 0.000002 -2.187481 -0.121798 0.190824
 25 -0.000002 -4.440603 -0.000001 1.570144 -0.062988 0.004040
 26 10.510131 0.000002 -0.000001 0.000000 -0.000000 -2.237172
 27 0.000002 -1.748401 4.999999 -0.000000 0.004007 1.602291
 28 5.500000 0.000001 -0.000000 0.113662 0.000000 0.000000
 29 -0.000003 -1.940598 5.000001 -0.044472 0.004003 -0.000180
 30 6.551491 0.000001 -0.000001 -0.229981 0.261844 -0.557415
 31 -0.000001 -1.940599 5.000001 -0.027189 -0.053376 0.005295
 32 6.551491 0.000001 -0.000001 -0.091640 0.142045 -0.259027
 33 -0.000003 -1.940599 4.999997 -0.066572 -0.152786 -0.110311
 34 -0.443013 0.490756 -1.602709 0.069193 0.833220 2.628455
 35 6.384776 0.000001 -0.000004 -0.857204 -0.515742 0.065567
 36 10.242682 -0.000001 -0.000000 -0.000000 0.000000 -2.079979
 37 11.375565 0.000001 0.000002 1.815111 0.649680 -0.101948
 38 0.728681 0.023432 1.008291 -1.579583 -0.319038 0.212973
 39 2.136497 0.000002 0.000001 -0.000000 0.000000 1.282817
 40 2.313139 0.000000 -0.000000 0.000000 0.000000 3.141593
 41 3.115506 -0.886041 0.021434 0.420765 0.316066 0.167178
 42 2.011152 0.000001 -0.000003 0.000000 0.000000 2.082010
 43 2.141379 0.000001 0.000001 0.000000 0.000000 3.141593
 44 1.734172 -0.000000 -0.000000 0.000000 0.000000 1.041748
 45 0.136314 -3.738193 2.525888 1.493698 2.759406 -1.474501
 46 5.613160 0.862367 3.157032 1.595152 -0.135386 0.061522
 47 11.389369 -0.000819 0.158782 1.695846 0.331639 -0.076973
 48 -0.000000 -4.440598 -0.000001 1.570144 -3.078602 0.004040
 49 6.000002 0.000000 0.000000 1.695845 -0.000000 -0.000000
 50 0.000001 -4.440601 0.000001 1.569944 -3.078603 0.004053
 51 10.510132 -0.000001 0.000002 -0.000000 -0.000000 -2.610786
 52 -0.000000 -1.748398 -5.000000 3.141593 0.004007 -1.539299
 53 5.500000 0.000001 -0.000000 0.260511 -0.000000 0.000000
 54 -0.000001 0.000001 -4.999998 -0.044472 3.137590 -0.000177
 55 6.551489 0.000000 -0.000002 -0.260511 -0.229340 -0.037552
 56 -1.266843 -1.937443 -4.950560 -0.066572 -2.988806 -0.110308
 57 6.551490 0.000000 -0.000002 -0.260511 -0.229340 -0.037552
 58 0.699370 -1.944208 -5.006847 -0.027189 -3.088217 0.005298
 59 4.226149 -0.003202 -0.000001 -0.126239 -0.152785 0.317456
 60 -0.000001 5.000000 0.000001 -0.153564 0.000087 2.718702
 61 0.000004 -0.000005 -3.713579 0.095503 -3.012510 -0.750673
 62 0.000003 0.000001 4.999999 3.053197 1.558589 -0.074927
 63 -0.000007 0.000005 3.713580 -0.334410 -2.825096 -0.524885
 64 0.000001 -0.000000 -4.999999 -0.088726 1.558589 3.066334
 65 7.363603 1.646647 0.495663 -3.141593 -1.570796 0.000000
 66 -0.000006 0.000005 3.619081 -0.528284 -2.367383 -1.007256
 67 16.573921 -0.000001 0.000001 -0.000000 0.000000 -2.019199
 68 15.128181 0.000001 -0.000002 0.031619 0.086785 -0.033197
 69 5.758664 4.244731 -0.000000 0.000000 -0.000000 2.033309
 70 3.177726 0.000001 0.000000 0.000000 0.000000 3.141593
 71 15.708951 0.000002 -0.000003 0.016155 0.048356 -0.018185
 72 0.275149 0.189215 -3.445208 3.130898 0.000409 -1.514604
 73 17.210192 -0.000002 0.000002 0.000000 -0.000000 -2.322356
 74 0.000001 -0.000000 -5.000000 -0.079430 1.546568 -1.570856
 75 0.000006 -0.000005 -3.619080 0.196495 -3.011952 -1.279118
 76 16.573921 0.000000 0.000000 -0.000000 0.000000 -1.611348
 77 15.128181 -0.000002 0.000000 0.214418 -0.027533 0.774389
 78 5.758665 4.244730 -0.000000 -0.000000 -0.000000 1.483530
 79 4.003934 0.000000 0.000001 0.000000 0.000000 0.000000
 80 15.708953 -0.000001 0.000000 0.153371 0.002792 0.528179
 81 0.273998 0.191089 3.439762 -3.130907 -0.000437 -1.508107
 82 17.210192 0.000000 0.000000 0.000000 -0.000000 -2.138823
 83 0.000001 0.000001 5.000000 -0.079311 1.595025 -1.570737
time 2
  0 1.130557 9.712686 27.009436 -0.281436 0.436358 -2.443536
  1 11.368429 6.770639 -23.418964 -0.498313 0.132926 2.346876
  2 -2.276934 0.000003 -1.238187 -1.570795 -1.570451 0.000000
  3 1.796371 0.711973 0.000736 -0.235389 -0.266348 -0.180961
  4 4.119234 -0.003133 0.000737 -0.228318 0.111355 0.173177
  5 4.119119 -0.003155 0.000730 -0.226566 0.146724 0.128829
  6 4.119349 -0.003111 0.000725 -0.224384 0.119170 0.207333
  7 4.120410 -0.002876 0.000994 -0.295116 -0.258548 0.638825
  8 4.443598 0.000001 0.000002 0.273566 0.564472 -0.536677
  9 9.024059 0.000000 0.000000 0.000000 0.000000 0.000000
 10 0.443015 -0.483677 1.602713 2.053125 -1.118919 0.628602
 11 6.384776 -0.000000 -0.000000 -0.434381 0.271743 -0.964664
 12 10.242682 0.000003 -0.000001 0.000000 0.000000 -1.114087
 13 11.375560 -0.000003 0.000002 -2.815414 -0.020955 0.305473
 14 0.728682 0.023430 -1.008292 1.210021 0.600763 0.006085
 15 2.136495 -0.000001 -0.000001 -0.000000 0.000000 -0.078540
 16 2.313139 0.000000 -0.000001 0.000000 0.000000 0.000000
 17 3.115507 -0.886041 -0.021431 -0.620285 0.000392 0.514872
 18 2.011150 -0.000001 0.000000 -0.000000 -0.000000 1.322791
 19 2.141381 0.000000 0.000000 0.000000 0.000000 0.000000
 20 1.734173 0.000003 -0.000001 -0.000000 -0.000000 0.660693
 21 0.000005 -4.440593 0.000001 1.570544 -0.062990 -0.195737
 22 5.999999 -0.000001 -0.000000 -2.541083 0.000000 0.000000
 23 0.000000 -4.440602 0.000000 1.569944 -0.062987 0.004053
 24 11.375561 -0.000002 0.000004 -2.192358 -0.069877 0.167584
 25 -0.000002 -4.440603 -0.000001 1.570144 -0.062988 0.004040
 26 10.510130 0.000002 -0.000001 0.000000 -0.000000 -2.127840
 27 0.000001 -1.748401 5.000000 -0.000000 0.004007 1.602291
 28 5.500000 0.000002 -0.000001 0.128201 0.000000 -0.000000
 29 -0.000002 -1.940598 5.000002 -0.044472 0.004003 -0.000180
 30 6.551489 0.000000 0.000001 -0.252865 0.223204 -0.598779
 31 0.000000 -1.940600 5.000001 -0.027189 -0.053376 0.005295
 32 6.551489 0.000000 0.000001 -0.103883 0.125695 -0.278471
 33 -0.000001 -1.940599 4.999996 -0.066572 -0.152786 -0.110311
 34 -0.443014 0.490757 -1.602707 -0.033047 0.834474 2.525351
 35 6.384776 -0.000000 0.000001 -0.783504 -0.594370 0.103697
 36 10.242682 -0.000002 0.000001 -0.000000 0.000000 -2.071973
 37 11.375561 -0.000002 0.000001 1.871029 0.631967 -0.024350
 38 0.728680 0.023431 1.008294 -1.579583 -0.319038 0.212973
 39 2.136497 0.000001 0.000001 -0.000000 0.000000 1.282817
 40 2.313138 0.000000 -0.000001 0.000000 0.000000 3.141593
 41 3.115506 -0.886040 0.021432 0.420765 0.316066 0.167178
 42 2.011150 -0.000001 0.000000 -0.000000 0.000000 2.082010
 43 2.141380 -0.000001 0.000000 0.000000 0.000000 3.141593
 44 1.734173 -0.000001 -0.000002 -0.000000 -0.000000 1.041748
 45 0.136316 -3.738191 2.525888 1.493698 2.759406 -1.474501
 46 5.613159 0.862369 3.157031 1.595152 -0.135386 0.061522
 47 11.389368 -0.000819 0.158784 1.716263 0.325673 -0.042512
 48 -0.000000 -4.440599 0.000002 1.570144 -3.078602 0.004040
 49 6.000001 -0.000000 0.000001 1.716263 -0.000000 -0.000000
 50 0.000001 -4.440599 0.000000 1.569944 -3.078603 0.004053
 51 10.510131 0.000001 0.000000 -0.000000 0.000000 -2.606783
 52 -0.000001 -1.748402 -5.000001 -3.141593 0.004007 -1.539299
 53 5.499999 0.000001 -0.000000 0.241601 -0.000000 -0.000000
 54 0.000001 -0.000000 -4.999998 -0.044472 3.137589 -0.000177
 55 6.551490 -0.000000 0.000001 -0.241601 -0.248727 -0.030849
 56 -1.266843 -1.937443 -4.950560 -0.066572 -2.988806 -0.110308
 57 6.551490 -0.000000 0.000002 -0.241601 -0.248727 -0.030849
 58 0.699370 -1.944206 -5.006848 -0.027189 -3.088217 0.005298
 59 4.226146 -0.003202 -0.000000 -0.126239 -0.152785 0.317456
 60 0.000001 5.000000 -0.000001 -0.153564 0.000087 2.718702
 61 0.000004 -0.000005 -3.713579 0.095503 -3.012510 -0.750673
 62 0.000003 0.000001 4.999999 3.053197 1.558589 -0.074927
 63 -0.000007 0.000005 3.713580 -0.334410 -2.825096 -0.524885
 64 0.000001 -0.000000 -4.999999 -0.088726 1.558589 3.066334
 65 7.363603 1.646647 0.495663 -3.141593 -1.570796 0.000000
 66 -0.000006 0.000005 3.619081 -0.528284 -2.367383 -1.007256
 67 16.573921 -0.000001 0.000001 -0.000000 0.000000 -2.019199
 68 15.128181 0.000001 -0.000002 0.031619 0.086785 -0.033197
 69 5.758664 4.244731 -0.000000 0.000000 -0.000000 2.033309
 70 3.177726 0.000001 0.000000 0.000000 0.000000 3.141593
 71 15.708951 0.000002 -0.000003 0.016155 0.048356 -0.018185
 72 0.275149 0.189215 -3.445208 3.130898 0.000409 -1.514604
 73 17.210192 -0.000002 0.000002 0.000000 -0.000000 -2.322356
 74 0.000001 -0.000000 -5.000000 -0.079430 1.546568 -1.570856
 75 0.000006 -0.000005 -3.619080 0.196495 -3.011952 -1.279118
 76 16.573921 0.000000 0.000000 -0.000000 0.000000 -1.611348
 77 15.128181 -0.000002 0.000000 0.214418 -0.027533 0.774389
 78 5.758665 4.244730 -0.000000 -0.000000 -0.000000 1.483530
 79 4.003934 0.000000 0.000001 0.000000 0.000000 0.000000
 80 15.708953 -0.000001 0.000000 0.153371 0.002792 0.528179
 81 0.273998 0.191089 3.439762 -3.130907 -0.000437 -1.508107
 82 17.210192 0.000000 0.000000 0.000000 -0.000000 -2.138823
 83 0.000001 0.000001 5.000000 -0.079311 1.595025 -1.570737
time 3
  0 1.130557 9.712686 27.009436 -0.281436 0.436358 -2.443536
  1 11.368429 6.770639 -23.418964 -0.498313 0.132926 2.346876
  2 -2.276934 0.000003 -1.238187 -1.570795 -1.570451 0.000000
  3 1.796390 0.711945 0.000627 -0.200254 -0.268219 -0.182552
  4 4.119233 -0.003132 0.000739 -0.228318 0.111355 0.173177
  5 4.119123 -0.003156 0.000728 -0.226566 0.146724 0.128829
  6 4.119347 -0.003112 0.000723 -0.224384 0.119170 0.207333
  7 4.120409 -0.002876 0.000994 -0.295116 -0.258548 0.638825
  8 4.443599 -0.000000 -0.000001 0.230103 0.590303 -0.565770
  9 9.024063 -0.000000 -0.000000 0.000000 0.000000 0.000000
 10 0.443015 -0.483678 1.602710 2.053125 -1.118918 0.628601
 11 6.384774 0.000000 0.000003 -0.442726 0.215975 -1.045817
 12 10.242682 0.000002 0.000000 0.000000 0.000000 -0.955271
 13 11.375558 0.000001 -0.000000 -2.813322 0.020770 0.247755
 14 0.728681 0.023432 -1.008292 1.210021 0.600763 0.006085
 15 2.136494 0.000001 0.000003 -0.000000 -0.000000 -0.078540
 16 2.313141 -0.000001 -0.000000 0.000000 0.000000 0.000000
 17 3.115506 -0.886042 -0.021429 -0.620285 0.000392 0.514872
 18 2.011148 -0.000001 0.000000 0.000000 0.000000 1.322792
 19 2.141380 -0.000001 0.000000 0.000000 0.000000 0.000000
 20 1.734171 0.000002 0.000000 0.000000 0.000000 0.660693
 21 0.000005 -4.440593 0.000001 1.570544 -0.062990 -0.195737
 22 5.999999 0.000000 0.000000 -2.538291 -0.000000 -0.000000
 23 0.000002 -4.440602 -0.000001 1.569944 -0.062987 0.004053
 24 11.375560 -0.000001 0.000003 -2.192484 -0.036558 0.144754
 25 -0.000002 -4.440602 -0.000001 1.570144 -0.062988 0.004040
 26 10.510130 0.000002 -0.000001 0.000000 0.000000 -2.048432
 27 0.000002 -1.748401 5.000000 -0.000000 0.004007 1.602291
 28 5.500000 0.000002 -0.000001 0.137980 -0.000000 -0.000000
 29 -0.000001 -1.940598 5.000000 -0.044472 0.004003 -0.000180
 30 6.551492 0.000000 -0.000001 -0.268848 0.199993 -0.630835
 31 0.000001 -1.940598 5.000001 -0.027189 -0.053376 0.005295
 32 6.551492 0.000000 -0.000001 -0.112018 0.116297 -0.292958
 33 -0.000001 -1.940599 4.999996 -0.066572 -0.152786 -0.110311
 34 -0.443013 0.490755 -1.602710 -0.093830 0.831854 2.464053
 35 6.384776 -0.000001 0.000001 -0.731306 -0.638442 0.121637
 36 10.242682 -0.000002 0.000001 -0.000000 -0.000000 -2.065985
 37 11.375561 -0.000002 0.000001 1.906430 0.619143 0.018690
 38 0.728681 0.023431 1.008293 -1.579583 -0.319038 0.212973
 39 2.136497 0.000000 0.000000 -0.000000 0.000000 1.282817
 40 2.313140 0.000001 -0.000000 0.000000 0.000000 3.141593
 41 3.115506 -0.886040 0.021432 0.420766 0.316066 0.167178
 42 2.011152 -0.000000 -0.000003 0.000000 0.000000 2.082010
 43 2.141380 -0.000001 0.000001 0.000000 0.000000 3.141593
 44 1.734172 -0.000001 -0.000001 -0.000000 0.000000 1.041748
 45 0.136315 -3.738192 2.525890 1.493698 2.759406 -1.474501
 46 5.613159 0.862367 3.157033 1.595152 -0.135386 0.061522
 47 11.389367 -0.000819 0.158783 1.730008 0.321270 -0.023185
 48 -0.000001 -4.440599 0.000002 1.570144 -3.078602 0.004040
 49 6.000000 -0.000001 0.000001 1.730008 0.000000 -0.000000
 50 0.000001 -4.440600 -0.000000 1.569944 -3.078603 0.004053
 51 10.510131 -0.000001 -0.000000 0.000000 -0.000000 -2.603789
 52 -0.000001 -1.748400 -4.999999 3.141593 0.004007 -1.539299
 53 5.500000 -0.000000 -0.000001 0.228300 0.000000 -0.000000
 54 0.000000 -0.000000 -5.000000 -0.044472 3.137589 -0.000177
 55 6.551490 -0.000000 -0.000001 -0.228300 -0.257502 -0.028318
 56 -1.266844 -1.937442 -4.950558 -0.066572 -2.988806 -0.110308
 57 6.551490 -0.000000 -0.000001 -0.228300 -0.257502 -0.028318
 58 0.699370 -1.944206 -5.006845 -0.027189 -3.088217 0.005298
 59 4.226146 -0.003202 -0.000001 -0.126239 -0.152786 0.317456
 60 0.000000 5.000001 0.000001 -0.153564 0.000087 2.718702
 61 0.000004 -0.000005 -3.713579 0.095503 -3.012510 -0.750673
 62 0.000003 0.000001 4.999999 3.053197 1.558589 -0.074927
 63 -0.000007 0.000005 3.713580 -0.334410 -2.825096 -0.524885
 64 0.000001 -0.000000 -4.999999 -0.088726 1.558589 3.066334
 65 7.363603 1.646647 0.495663 -3.141593 -1.570796 0.000000
 66 -0.000006 0.000005 3.619081 -0.528284 -2.367383 -1.007256
 67 16.573921 -0.000001 0.000001 -0.000000 0.000000 -2.019199
 68 15.128181 0.000001 -0.000002 0.031619 0.086785 -0.033197
 69 5.758664 4.244731 -0.000000 0.000000 -0.000000 2.033309
 70 3.177726 0.000001 0.000000 0.000000 0.000000 3.141593
 71 15.708951 0.000002 -0.000003 0.016155 0.048356 -0.018185
 72 0.275149 0.189215 -3.445208 3.130898 0.000409 -1.514604
 73 17.210192 -0.000002 0.000002 0.000000 -0.000000 -2.322356
 74 0.000001 -0.000000 -5.000000 -0.079430 1.546568 -1.570856
 75 0.000006 -0.000005 -3.619080 0.196495 -3.011952 -1.279118
 76 16.573921 0.000000 0.000000 -0.000000 0.000000 -1.611348
 77 15.128181 -0.000002 0.000000 0.214418 -0.027533 0.774389
 78 5.758665 4.244730 -0.000000 -0.000000 -0.000000 1.483530
 79 4.003934 0.000000 0.000001 0.000000 0.000000 0.000000
 80 15.708953 -0.000001 0.000000 0.153371 0.002792 0.528179
 81 0.273998 0.191089 3.439762 -3.130907 -0.000437 -1.508107
 82 17.210192 0.000000 0.000000 0.000000 -0.000000 -2.138823
 83 0.000001 0.000001 5.000000 -0.079311 1.595025 -1.570737
time 4
  0 1.130557 9.712686 27.009436 -0.281436 0.436358 -2.443536
  1 11.368429 6.770639 -23.418964 -0.498313 0.132926 2.346876
  2 -2.276934 0.000003 -1.238187 -1.570795 -1.570451 0.000000
  3 1.796397 0.711936 0.000590 -0.188692 -0.268822 -0.183091
  4 4.119236 -0.003132 0.000737 -0.228318 0.111355 0.173177
  5 4.119121 -0.003155 0.000730 -0.226566 0.146724 0.128829
  6 4.119343 -0.003110 0.000726 -0.224384 0.119170 0.207333
  7 4.120412 -0.002876 0.000994 -0.295116 -0.258548 0.638825
  8 4.443598 0.000000 0.000002 0.215344 0.598442 -0.575777
  9 9.024061 0.000000 0.000001 0.000000 0.000000 0.000000
 10 0.443015 -0.483678 1.602713 2.053125 -1.118918 0.628601
 11 6.384774 -0.000000 0.000002 -0.448972 0.196005 -1.077644
 12 10.242682 0.000002 -0.000001 0.000000 -0.000000 -0.895501
 13 11.375561 -0.000003 0.000000 -2.807679 0.035145 0.225031
 14 0.728680 0.023429 -1.008290 1.210021 0.600763 0.006085
 15 2.136497 -0.000001 -0.000001 0.000000 0.000000 -0.078540
 16 2.313139 -0.000000 -0.000001 0.000000 0.000000 0.000000
 17 3.115505 -0.886042 -0.021429 -0.620285 0.000392 0.514872
 18 2.011150 -0.000002 -0.000000 0.000000 -0.000000 1.322792
 19 2.141381 -0.000000 0.000000 0.000000 0.000000 0.000000
 20 1.734172 0.000000 0.000000 -0.000000 0.000000 0.660693
 21 0.000006 -4.440593 0.000000 1.570544 -0.062990 -0.195737
 22 6.000000 -0.000002 -0.000000 -2.533069 0.000000 0.000000
 23 0.000002 -4.440602 0.000002 1.569944 -0.062987 0.004053
 24 11.375561 -0.000002 0.000003 -2.189831 -0.024117 0.135030
 25 -0.000001 -4.440603 -0.000001 1.570144 -0.062988 0.004040
 26 10.510128 0.000000 -0.000000 0.000000 -0.000000 -2.018547
 27 -0.000000 -1.748400 4.999998 -0.000000 0.004007 1.602290
 28 5.499999 0.000000 -0.000000 0.143204 -0.000000 0.000000
 29 -0.000002 -1.940597 5.000000 -0.044472 0.004003 -0.000180
 30 6.551491 -0.000000 -0.000000 -0.277866 0.192287 -0.644513
 31 -0.000000 -1.940599 5.000002 -0.027189 -0.053376 0.005295
 32 6.551491 -0.000000 -0.000000 -0.116319 0.113543 -0.298841
 33 -0.000001 -1.940599 4.999997 -0.066572 -0.152786 -0.110311
 34 -0.443013 0.490755 -1.602708 -0.113167 0.830489 2.444551
 35 6.384775 -0.000000 0.000001 -0.710109 -0.653293 0.123768
 36 10.242683 0.000000 -0.000000 -0.000000 0.000000 -2.062790
 37 11.375561 0.000001 0.000001 1.918042 0.614640 0.031862
 38 0.728681 0.023432 1.008292 -1.579583 -0.319038 0.212973
 39 2.136497 -0.000003 -0.000000 -0.000000 0.000000 1.282817
 40 2.313141 0.000001 -0.000000 0.000000 0.000000 3.141593
 41 3.115506 -0.886040 0.021431 0.420766 0.316066 0.167178
 42 2.011152 -0.000001 -0.000003 -0.000000 -0.000000 2.082010
 43 2.141380 -0.000000 0.000001 0.000000 0.000000 3.141593
 44 1.734173 -0.000001 -0.000002 0.000000 0.000000 1.041748
 45 0.136316 -3.738192 2.525888 1.493698 2.759406 -1.474501
 46 5.613160 0.862367 3.157034 1.595152 -0.135386 0.061522
 47 11.389367 -0.000817 0.158782 1.734649 0.319704 -0.017234
 48 -0.000001 -4.440599 0.000001 1.570144 -3.078602 0.004040
 49 6.000000 0.000001 -0.000000 1.734649 -0.000000 0.000000
 50 0.000002 -4.440601 -0.000002 1.569944 -3.078603 0.004053
 51 10.510133 -0.000000 0.000001 -0.000000 0.000000 -2.602191
 52 0.000001 -1.748402 -5.000000 3.141593 0.004007 -1.539299
 53 5.500000 0.000000 -0.000001 0.222814 0.000000 -0.000000
 54 -0.000000 -0.000000 -4.999997 -0.044472 3.137589 -0.000177
 55 6.551489 -0.000000 0.000001 -0.222814 -0.260058 -0.028651
 56 -1.266844 -1.937442 -4.950562 -0.066572 -2.988806 -0.110308
 57 6.551489 -0.000000 0.000001 -0.222814 -0.260058 -0.028651
 58 0.699370 -1.944207 -5.006849 -0.027189 -3.088217 0.005298
 59 4.226145 -0.003200 0.000001 -0.126239 -0.152785 0.317456
 60 -0.000001 5.000001 0.000002 -0.153564 0.000087 2.718702
 61 0.000004 -0.000005 -3.713579 0.095503 -3.012510 -0.750673
 62 0.000003 0.000001 4.999999 3.053197 1.558589 -0.074927
 63 -0.000007 0.000005 3.713580 -0.334410 -2.825096 -0.524885
 64 0.000001 -0.000000 -4.999999 -0.088726 1.558589 3.066334
 65 7.363603 1.646647 0.495663 -3.141593 -1.570796 0.000000
 66 -0.000006 0.000005 3.619081 -0.528284 -2.367383 -1.007256
 67 16.573921 -0.000001 0.000001 -0.000000 0.000000 -2.019199
 68 15.128181 0.000001 -0.000002 0.031619 0.086785 -0.033197
 69 5.758664 4.244731 -0.000000 0.000000 -0.000000 2.033309
 70 3.177726 0.000001 0.000000 0.000000 0.000000 3.141593
 71 15.708951 0.000002 -0.000003 0.016155 0.048356 -0.018185
 72 0.275149 0.189215 -3.445208 3.130898 0.000409 -1.514604
 73 17.210192 -0.000002 0.000002 0.000000 -0.000000 -2.322356
 74 0.000001 -0.000000 -5.000000 -0.079430 1.546568 -1.570856
 75 0.000006 -0.000005 -3.619080 0.196495 -3.011952 -1.279118
 76 16.573921 0.000000 0.000000 -0.000000 0.000000 -1.611348
 77 15.128181 -0.000002 0.000000 0.214418 -0.027533 0.774389
 78 5.758665 4.244730 -0.000000 -0.000000 -0.000000 1.483530
 79 4.003934 0.000000 0.000001 0.000000 0.000000 0.000000
 80 15.708953 -0.000001 0.000000 0.153371 0.002792 0.528179
 81 0.273998 0.191089 3.439762 -3.130907 -0.000437 -1.508107
 82 17.210192 0.000000 0.000000 0.000000 -0.000000 -2.138823
 83 0.000001 0.000001 5.000000 -0.079311 1.595025 -1.570737
time 5
  0 1.130557 9.712686 27.009436 -0.281436 0.436358 -2.443536
  1 11.368429 6.770639 -23.418964 -0.498313 0.132926 2.346876
  2 -2.276934 0.000003 -1.238187 -1.570795 -1.570451 0.000000
  3 1.796398 0.711934 0.000581 -0.185455 -0.268990 -0.183243
  4 4.119236 -0.003133 0.000736 -0.228318 0.111356 0.173177
  5 4.119120 -0.003155 0.000730 -0.226566 0.146725 0.128829
  6 4.119347 -0.003111 0.000725 -0.224384 0.119170 0.207333
  7 4.120410 -0.002876 0.000995 -0.295116 -0.258548 0.638825
  8 4.443598 0.000000 0.000002 0.211170 0.600688 -0.578617
  9 9.024061 0.000000 0.000000 0.000000 0.000000 0.000000
 10 0.443017 -0.483680 1.602709 2.053125 -1.118919 0.628602
 11 6.384777 -0.000001 -0.000001 -0.454993 0.186876 -1.090398
 12 10.242679 0.000001 0.000001 -0.000000 -0.000000 -0.871099
 13 11.375558 0.000001 0.000001 -2.802119 0.041757 0.215221
 14 0.728682 0.023430 -1.008291 1.210021 0.600763 0.006085
 15 2.136498 -0.000001 -0.000003 -0.000000 -0.000000 -0.078540
 16 2.313137 -0.000001 0.000002 0.000000 0.000000 0.000000
 17 3.115507 -0.886039 -0.021433 -0.620285 0.000392 0.514872
 18 2.011149 -0.000000 0.000001 0.000000 0.000000 1.322792
 19 2.141379 -0.000001 0.000001 0.000000 0.000000 0.000000
 20 1.734173 0.000001 0.000000 0.000000 -0.000000 0.660693
 21 0.000004 -4.440594 -0.000000 1.570544 -0.062990 -0.195737
 22 6.000000 -0.000002 0.000001 -2.528197 0.000000 -0.000000
 23 0.000002 -4.440601 -0.000001 1.569944 -0.062987 0.004053
 24 11.375560 -0.000001 0.000004 -2.187091 -0.018370 0.130820
 25 0.000000 -4.440603 -0.000001 1.570144 -0.062988 0.004040
 26 10.510130 0.000002 0.000001 -0.000000 -0.000000 -2.006346
 27 0.000001 -1.748399 4.999999 0.000000 0.004007 1.602291
 28 5.500000 0.000002 -0.000000 0.146862 0.000000 0.000000
 29 0.000000 -1.940597 5.000000 -0.044472 0.004003 -0.000180
 30 6.551491 -0.000000 -0.000000 -0.284206 0.188628 -0.650456
 31 -0.000000 -1.940598 5.000001 -0.027189 -0.053376 0.005295
 32 6.551491 -0.000000 -0.000000 -0.119339 0.112393 -0.301297
 33 -0.000001 -1.940599 4.999997 -0.066572 -0.152786 -0.110311
 34 -0.443014 0.490756 -1.602707 -0.120668 0.829889 2.436986
 35 6.384776 0.000001 -0.000002 -0.697547 -0.660096 0.119234
 36 10.242682 -0.000001 0.000001 -0.000000 -0.000000 -2.059938
 37 11.375562 0.000001 0.000003 1.922847 0.612668 0.037737
 38 0.728681 0.023432 1.008290 -1.579583 -0.319038 0.212973
 39 2.136497 -0.000002 -0.000001 -0.000000 0.000000 1.282817
 40 2.313141 0.000001 0.000000 0.000000 0.000000 3.141593
 41 3.115506 -0.886041 0.021431 0.420765 0.316066 0.167178
 42 2.011152 -0.000001 0.000000 -0.000000 -0.000000 2.082010
 43 2.141380 0.000000 0.000001 0.000000 0.000000 3.141593
 44 1.734172 -0.000001 0.000001 -0.000000 -0.000000 1.041748
 45 0.136315 -3.738193 2.525890 1.493698 2.759406 -1.474501
 46 5.613160 0.862367 3.157029 1.595152 -0.135386 0.061522
 47 11.389366 -0.000819 0.158783 1.736549 0.319023 -0.014537
 48 0.000000 -4.440598 -0.000000 1.570144 -3.078602 0.004040
 49 6.000000 0.000002 0.000002 1.736549 -0.000000 0.000000
 50 0.000003 -4.440600 0.000000 1.569944 -3.078603 0.004053
 51 10.510132 0.000000 0.000001 -0.000000 -0.000000 -2.600765
 52 0.000001 -1.748400 -5.000000 3.141593 0.004007 -1.539299
 53 5.500000 -0.000001 0.000000 0.219458 0.000000 0.000000
 54 -0.000001 0.000001 -5.000001 -0.044472 3.137589 -0.000177
 55 6.551490 0.000001 -0.000003 -0.219458 -0.261051 -0.030615
 56 -1.266844 -1.937443 -4.950560 -0.066572 -2.988806 -0.110308
 57 6.551491 0.000001 -0.000003 -0.219458 -0.261051 -0.030615
 58 0.699370 -1.944207 -5.006848 -0.027189 -3.088217 0.005298
 59 4.226147 -0.003202 -0.000000 -0.126239 -0.152785 0.317456
 60 -0.000002 5.000000 0.000003 -0.153564 0.000087 2.718702
 61 0.000004 -0.000005 -3.713579 0.095503 -3.012510 -0.750673
 62 0.000003 0.000001 4.999999 3.053197 1.558589 -0.074927
 63 -0.000007 0.000005 3.713580 -0.334410 -2.825096 -0.524885
 64 0.000001 -0.000000 -4.999999 -0.088726 1.558589 3.066334
 65 7.363603 1.646647 0.495663 -3.141593 -1.570796 0.000000
 66 -0.000006 0.000005 3.619081 -0.528284 -2.367383 -1.007256
 67 16.573921 -0.000001 0.000001 -0.000000 0.000000 -2.019199
 68 15.128181 0.000001 -0.000002 0.031619 0.086785 -0.033197
 69 5.758664 4.244731 -0.000000 0.000000 -0.000000 2.033309
 70 3.177726 0.000001 0.000000 0.000000 0.000000 3.141593
 71 15.708951 0.000002 -0.000003 0.016155 0.048356 -0.018185
 72 0.275149 0.189215 -3.445208 3.130898 0.000409 -1.514604
 73 17.210192 -0.000002 0.000002 0.000000 -0.000000 -2.322356
 74 0.000001 -0.000000 -5.000000 -0.079430 1.546568 -1.570856
 75 0.000006 -0.000005 -3.619080 0.196495 -3.011952 -1.279118
 76 16.573921 0.000000 0.000000 -0.000000 0.000000 -1.611348
 77 15.128181 -0.000002 0.000000 0.214418 -0.027533 0.774389
 78 5.758665 4.244730 -0.000000 -0.000000 -0.000000 1.483530
 79 4.003934 0.000000 0.000001 0.000000 0.000000 0.000000
 80 15.708953 -0.000001 0.000000 0.153371 0.002792 0.528179
 81 0.273998 0.191089 3.439762 -3.130907 -0.000437 -1.508107
 82 17.210192 0.000000 0.000000 0.000000 -0.000000 -2.138823
 83 0.000001 0.000001 5.000000 -0.079311 1.595025 -1.570737
time 6
  0 1.130557 9.712686 27.009436 -0.281436 0.436358 -2.443536
  1 11.368429 6.770639 -23.418964 -0.498313 0.132926 2.346876
  2 -2.276934 0.000003 -1.238187 -1.570795 -1.570451 0.000000
  3 1.796396 0.711936 0.000588 -0.187767 -0.268870 -0.183134
  4 4.119233 -0.003132 0.000738 -0.228319 0.111355 0.173177
  5 4.119120 -0.003155 0.000730 -0.226566 0.146725 0.128829
  6 4.119347 -0.003111 0.000725 -0.224384 0.119170 0.207333
  7 4.120411 -0.002876 0.000994 -0.295116 -0.258548 0.638825
  8 4.443598 0.000002 0.000001 0.214153 0.599085 -0.576586
  9 9.024061 -0.000000 0.000000 0.000000 0.000000 0.000000
 10 0.443016 -0.483677 1.602709 2.053125 -1.118919 0.628602
 11 6.384777 -0.000000 -0.000001 -0.460794 0.186120 -1.088969
 12 10.242682 0.000003 0.000001 -0.000000 -0.000000 -0.873973
 13 11.375559 -0.000002 0.000003 -2.796828 0.042869 0.215676
 14 0.728680 0.023431 -1.008293 1.210021 0.600763 0.006085
 15 2.136497 -0.000001 0.000000 0.000000 0.000000 -0.078540
 16 2.313137 -0.000001 0.000002 0.000000 0.000000 0.000000
 17 3.115505 -0.886043 -0.021432 -0.620285 0.000392 0.514872
 18 2.011151 0.000001 0.000000 0.000000 0.000000 1.322792
 19 2.141378 0.000001 0.000001 0.000000 0.000000 0.000000
 20 1.734172 -0.000001 0.000001 0.000000 -0.000000 0.660693
 21 0.000003 -4.440594 0.000000 1.570544 -0.062990 -0.195737
 22 5.999999 -0.000002 0.000002 -2.523785 -0.000000 -0.000000
 23 0.000001 -4.440600 0.000000 1.569944 -0.062987 0.004053
 24 11.375559 -0.000001 0.000005 -2.184461 -0.017623 0.131227
 25 -0.000001 -4.440604 0.000001 1.570144 -0.062988 0.004040
 26 10.510130 0.000001 0.000001 0.000000 -0.000000 -2.007783
 27 0.000001 -1.748400 4.999998 0.000000 0.004007 1.602291
 28 5.500000 0.000002 0.000000 0.149054 -0.000000 -0.000000
 29 -0.000001 -1.940597 4.999999 -0.044472 0.004003 -0.000180
 30 6.551490 -0.000000 0.000001 -0.288012 0.188134 -0.650216
 31 -0.000000 -1.940598 5.000001 -0.027189 -0.053376 0.005295
 32 6.551490 -0.000000 0.000001 -0.121164 0.112441 -0.301062
 33 -0.000000 -1.940599 4.999996 -0.066572 -0.152786 -0.110311
 34 -0.443013 0.490756 -1.602709 -0.119597 0.829977 2.438066
 35 6.384776 0.000001 0.000001 -0.692170 -0.661215 0.111111
 36 10.242682 0.000000 -0.000000 -0.000000 -0.000000 -2.057584
 37 11.375561 -0.000001 0.000000 1.922517 0.612716 0.038072
 38 0.728681 0.023431 1.008294 -1.579583 -0.319038 0.212973
 39 2.136496 0.000001 -0.000000 -0.000000 0.000000 1.282817
 40 2.313138 -0.000001 -0.000001 0.000000 0.000000 3.141593
 41 3.115506 -0.886040 0.021431 0.420765 0.316066 0.167178
 42 2.011152 -0.000001 -0.000002 -0.000000 -0.000000 2.082010
 43 2.141380 -0.000001 0.000001 0.000000 0.000000 3.141593
 44 1.734172 -0.000001 -0.000000 0.000000 0.000000 1.041748
 45 0.136315 -3.738192 2.525889 1.493698 2.759406 -1.474501
 46 5.613160 0.862368 3.157032 1.595152 -0.135386 0.061522
 47 11.389366 -0.000820 0.158782 1.736366 0.319048 -0.014338
 48 -0.000001 -4.440601 0.000002 1.570144 -3.078602 0.004040
 49 6.000000 -0.000001 0.000000 1.736366 -0.000000 0.000000
 50 0.000001 -4.440602 0.000000 1.569944 -3.078603 0.004053
 51 10.510131 0.000001 -0.000000 -0.000000 0.000000 -2.599588
 52 -0.000000 -1.748400 -5.000001 3.141593 0.004007 -1.539299
 53 5.500000 -0.000000 -0.000000 0.217889 0.000000 0.000000
 54 -0.000001 0.000001 -5.000002 -0.044472 3.137589 -0.000177
 55 6.551490 0.000001 0.000001 -0.217889 -0.261018 -0.033423
 56 -1.266844 -1.937443 -4.950558 -0.066572 -2.988806 -0.110308
 57 6.551490 0.000001 0.000001 -0.217889 -0.261018 -0.033423
 58 0.699370 -1.944208 -5.006845 -0.027189 -3.088217 0.005298
 59 4.226144 -0.003201 0.000001 -0.126239 -0.152785 0.317456
 60 0.000000 5.000000 0.000001 -0.153564 0.000087 2.718702
 61 0.000004 -0.000005 -3.713579 0.095503 -3.012510 -0.750673
 62 0.000003 0.000001 4.999999 3.053197 1.558589 -0.074927
 63 -0.000007 0.000005 3.713580 -0.334410 -2.825096 -0.524885
 64 0.000001 -0.000000 -4.999999 -0.088726 1.558589 3.066334
 65 7.363603 1.646647 0.495663 -3.141593 -1.570796 0.000000
 66 -0.000006 0.000005 3.619081 -0.528284 -2.367383 -1.007256
 67 16.573921 -0.000001 0.000001 -0.000000 0.000000 -2.019199
 68 15.128181 0.000001 -0.000002 0.031619 0.086785 -0.033197
 69 5.758664 4.244731 -0.000000 0.000000 -0.000000 2.033309
 70 3.177726 0.000001 0.000000 0.000000 0.000000 3.141593
 71 15.708951 0.000002 -0.000003 0.016155 0.048356 -0.018185
 72 0.275149 0.189215 -3.445208 3.130898 0.000409 -1.514604
 73 17.210192 -0.000002 0.000002 0.000000 -0.000000 -2.322356
 74 0.000001 -0.000000 -5.000000 -0.079430 1.546568 -1.570856
 75 0.000006 -0.000005 -3.619080 0.196495 -3.011952 -1.279118
 76 16.573921 0.000000 0.000000 -0.000000 0.000000 -1.611348
 77 15.128181 -0.000002 0.000000 0.214418 -0.027533 0.774389
 78 5.758665 4.244730 -0.000000 -0.000000 -0.000000 1.483530
 79 4.003934 0.000000 0.000001 0.000000 0.000000 0.000000
 80 15.708953 -0.000001 0.000000 0.153371 0.002792 0.528179
 81 0.273998 0.191089 3.439762 -3.130907 -0.000437 -1.508107
 82 17.210192 0.000000 0.000000 0.000000 -0.000000 -2.138823
 83 0.000001 0.000001 5.000000 -0.079311 1.595025 -1.570737
time 7
  0 1.130557 9.712686 27.009436 -0.281436 0.436358 -2.443536
  1 11.368429 6.770639 -23.418964 -0.498313 0.132926 2.346876
  2 -2.276934 0.000003 -1.238187 -1.570795 -1.570451 0.000000
  3 1.796394 0.711939 0.000604 -0.192855 -0.268605 -0.182896
  4 4.119235 -0.003133 0.000738 -0.228318 0.111355 0.173177
  5 4.119119 -0.003155 0.000731 -0.226566 0.146724 0.128829
  6 4.119347 -0.003112 0.000724 -0.224384 0.119170 0.207333
  7 4.120411 -0.002876 0.000993 -0.295116 -0.258548 0.638825
  8 4.443598 0.000001 0.000001 0.220684 0.595533 -0.572149
  9 9.024060 0.000001 0.000000 0.000000 0.000000 0.000000
 10 0.443015 -0.483676 1.602712 2.053125 -1.118918 0.628601
 11 6.384775 0.000000 0.000001 -0.466084 0.190696 -1.079728
 12 10.242682 -0.000001 0.000001 0.000000 0.000000 -0.892949
 13 11.375558 0.000002 -0.000000 -2.791863 0.040560 0.222288
 14 0.728679 0.023432 -1.008292 1.210021 0.600763 0.006085
 15 2.136497 0.000000 0.000001 0.000000 -0.000000 -0.078540
 16 2.313141 -0.000000 -0.000002 0.000000 0.000000 0.000000
 17 3.115506 -0.886042 -0.021431 -0.620285 0.000392 0.514872
 18 2.011149 0.000000 0.000004 0.000000 0.000000 1.322792
 19 2.141379 0.000001 -0.000000 0.000000 0.000000 0.000000
 20 1.734171 0.000001 0.000001 -0.000000 -0.000000 0.660693
 21 0.000006 -4.440593 0.000002 1.570544 -0.062990 -0.195737
 22 6.000000 -0.000000 0.000001 -2.519789 -0.000000 0.000000
 23 0.000001 -4.440601 0.000001 1.569944 -0.062987 0.004053
 24 11.375561 0.000000 0.000004 -2.181984 -0.019936 0.134393
 25 -0.000001 -4.440603 -0.000001 1.570144 -0.062988 0.004040
 26 10.510131 0.000001 -0.000001 0.000000 0.000000 -2.017271
 27 -0.000001 -1.748400 4.999998 -0.000000 0.004007 1.602290
 28 5.499999 -0.000001 0.000001 0.150162 0.000000 -0.000000
 29 -0.000001 -1.940597 5.000000 -0.044472 0.004003 -0.000180
 30 6.551490 0.000000 0.000000 -0.289988 0.189787 -0.646501
 31 0.000002 -1.940597 5.000000 -0.027189 -0.053376 0.005295
 32 6.551490 0.000000 0.000000 -0.122098 0.113300 -0.299310
 33 -0.000001 -1.940599 4.999997 -0.066572 -0.152786 -0.110311
 34 -0.443014 0.490757 -1.602707 -0.113167 0.830489 2.444551
 35 6.384776 0.000001 -0.000001 -0.692082 -0.658788 0.102217
 36 10.242682 -0.000001 0.000001 0.000000 0.000000 -2.055882
 37 11.375561 -0.000000 0.000001 1.918869 0.614104 0.034517
 38 0.728681 0.023429 1.008293 -1.579583 -0.319038 0.212973
 39 2.136496 0.000002 0.000000 -0.000000 0.000000 1.282817
 40 2.313138 0.000000 -0.000001 0.000000 0.000000 3.141593
 41 3.115506 -0.886041 0.021430 0.420765 0.316066 0.167178
 42 2.011150 -0.000001 0.000000 -0.000000 0.000000 2.082010
 43 2.141381 0.000000 0.000001 0.000000 0.000000 3.141593
 44 1.734173 -0.000001 -0.000001 0.000000 -0.000000 1.041748
 45 0.136316 -3.738192 2.525889 1.493698 2.759406 -1.474501
 46 5.613159 0.862366 3.157032 1.595152 -0.135386 0.061522
 47 11.389367 -0.000820 0.158783 1.734858 0.319538 -0.015915
 48 -0.000000 -4.440598 -0.000001 1.570144 -3.078602 0.004040
 49 6.000000 -0.000000 0.000000 1.734858 -0.000000 0.000000
 50 0.000001 -4.440600 0.000001 1.569944 -3.078603 0.004053
 51 10.510132 0.000001 -0.000001 0.000000 0.000000 -2.598738
 52 -0.000001 -1.748399 -5.000001 -3.141593 0.004007 -1.539299
 53 5.500000 -0.000001 0.000000 0.217646 -0.000000 0.000000
 54 0.000000 -0.000001 -4.999997 -0.044472 3.137590 -0.000177
 55 6.551490 -0.000000 0.000002 -0.217646 -0.260361 -0.036289
 56 -1.266844 -1.937443 -4.950559 -0.066572 -2.988806 -0.110308
 57 6.551491 -0.000000 0.000002 -0.217646 -0.260361 -0.036289
 58 0.699371 -1.944209 -5.006844 -0.027189 -3.088217 0.005298
 59 4.226145 -0.003201 -0.000001 -0.126239 -0.152786 0.317456
 60 0.000001 4.999999 0.000000 -0.153564 0.000087 2.718702
 61 0.000004 -0.000005 -3.713579 0.095503 -3.012510 -0.750673
 62 0.000003 0.000001 4.999999 3.053197 1.558589 -0.074927
 63 -0.000007 0.000005 3.713580 -0.334410 -2.825096 -0.524885
 64 0.000001 -0.000000 -4.999999 -0.088726 1.558589 3.066334
 65 7.363603 1.646647 0.495663 -3.141593 -1.570796 0.000000
 66 -0.000006 0.000005 3.619081 -0.528284 -2.367383 -1.007256
 67 16.573921 -0.000001 0.000001 -0.000000 0.000000 -2.019199
 68 15.128181 0.000001 -0.000002 0.031619 0.086785 -0.033197
 69 5.758664 4.244731 -0.000000 0.000000 -0.000000 2.033309
 70 3.177726 0.000001 0.000000 0.000000 0.000000 3.141593
 71 15.708951 0.000002 -0.000003 0.016155 0.048356 -0.018185
 72 0.275149 0.189215 -3.445208 3.130898 0.000409 -1.514604
 73 17.210192 -0.000002 0.000002 0.000000 -0.000000 -2.322356
 74 0.000001 -0.000000 -5.000000 -0.079430 1.546568 -1.570856
 75 0.000006 -0.000005 -3.619080 0.196495 -3.011952 -1.279118
 76 16.573921 0.000000 0.000000 -0.000000 0.000000 -1.611348
 77 15.128181 -0.000002 0.000000 0.214418 -0.027533 0.774389
 78 5.758665 4.244730 -0.000000 -0.000000 -0.000000 1.483530
 79 4.003934 0.000000 0.000001 0.000000 0.000000 0.000000
 80 15.708953 -0.000001 0.000000 0.153371 0.002792 0.528179
 81 0.273998 0.191089 3.439762 -3.130907 -0.000437 -1.508107
 82 17.210192 0.000000 0.000000 0.000000 -0.000000 -2.138823
 83 0.000001 0.000001 5.000000 -0.079311 1.595025 -1.570737
time 8
  0 1.130557 9.712686 27.009436 -0.281436 0.436358 -2.443536
  1 11.368429 6.770639 -23.418964 -0.498313 0.132926 2.346876
  2 -2.276934 0.000003 -1.238187 -1.570795 -1.570451 0.000000
  3 1.796391 0.711943 0.000620 -0.197942 -0.268340 -0.182659
  4 4.119237 -0.003133 0.000737 -0.228318 0.111355 0.173177
  5 4.119119 -0.003155 0.000730 -0.226566 0.146725 0.128829
  6 4.119346 -0.003111 0.000724 -0.224384 0.119170 0.207333
  7 4.120411 -0.002876 0.000995 -0.295116 -0.258548 0.638825
  8 4.443599 -0.000000 -0.000002 0.227170 0.591945 -0.567754
  9 9.024058 0.000001 0.000001 0.000000 0.000000 0.000000
 10 0.443015 -0.483678 1.602710 2.053125 -1.118918 0.628601
 11 6.384776 -0.000001 -0.000001 -0.470466 0.197349 -1.069278
 12 10.242682 0.000003 0.000000 0.000000 -0.000000 -0.916272
 13 11.375556 -0.000000 0.000000 -2.787247 0.036821 0.230697
 14 0.728680 0.023430 -1.008290 1.210021 0.600763 0.006085
 15 2.136496 -0.000000 0.000001 -0.000000 -0.000000 -0.078540
 16 2.313139 -0.000000 0.000001 0.000000 0.000000 0.000000
 17 3.115505 -0.886042 -0.021429 -0.620285 0.000392 0.514872
 18 2.011150 -0.000001 -0.000001 -0.000000 -0.000000 1.322792
 19 2.141379 0.000000 -0.000000 0.000000 0.000000 0.000000
 20 1.734172 0.000001 -0.000000 -0.000000 -0.000000 0.660693
 21 0.000007 -4.440594 0.000001 1.570544 -0.062990 -0.195737
 22 5.999999 -0.000003 0.000000 -2.516128 0.000000 0.000000
 23 0.000001 -4.440601 -0.000001 1.569944 -0.062987 0.004053
 24 11.375559 -0.000003 0.000003 -2.179665 -0.023369 0.138278
 25 -0.000001 -4.440604 -0.000000 1.570144 -0.062988 0.004040
 26 10.510131 0.000004 -0.000001 0.000000 -0.000000 -2.028932
 27 0.000002 -1.748400 4.999998 -0.000000 0.004007 1.602291
 28 5.499999 0.000000 0.000001 0.150609 0.000000 -0.000000
 29 -0.000002 -1.940597 4.999999 -0.044472 0.004003 -0.000180
 30 6.551491 -0.000000 -0.000001 -0.290912 0.192491 -0.642220
 31 0.000001 -1.940599 5.000002 -0.027189 -0.053376 0.005295
 32 6.551491 -0.000000 -0.000001 -0.122474 0.114565 -0.297297
 33 -0.000001 -1.940599 4.999997 -0.066572 -0.152786 -0.110311
 34 -0.443013 0.490755 -1.602711 -0.104581 0.831127 2.453210
 35 6.384777 -0.000000 0.000004 -0.695221 -0.654872 0.095235
 36 10.242681 -0.000001 0.000001 -0.000000 0.000000 -2.054956
 37 11.375562 0.000001 0.000002 1.913706 0.616131 0.028679
 38 0.728680 0.023431 1.008292 -1.579583 -0.319038 0.212973
 39 2.136496 0.000003 -0.000000 -0.000000 0.000000 1.282817
 40 2.313137 0.000000 -0.000001 0.000000 0.000000 3.141593
 41 3.115506 -0.886042 0.021432 0.420765 0.316066 0.167178
 42 2.011151 -0.000000 -0.000000 -0.000000 0.000000 2.082010
 43 2.141381 -0.000000 0.000001 0.000000 0.000000 3.141593
 44 1.734172 -0.000000 0.000002 0.000000 -0.000000 1.041748
 45 0.136314 -3.738191 2.525893 1.493698 2.759406 -1.474501
 46 5.613159 0.862366 3.157032 1.595152 -0.135386 0.061522
 47 11.389366 -0.000820 0.158782 1.732788 0.320243 -0.018560
 48 -0.000001 -4.440601 0.000001 1.570144 -3.078602 0.004040
 49 6.000000 0.000001 0.000001 1.732788 -0.000000 0.000000
 50 -0.000000 -4.440602 0.000001 1.569944 -3.078603 0.004053
 51 10.510132 -0.000002 0.000002 -0.000000 -0.000000 -2.598274
 52 0.000000 -1.748401 -5.000000 3.141593 0.004007 -1.539299
 53 5.500000 -0.000002 0.000001 0.218254 -0.000000 0.000000
 54 0.000000 0.000000 -4.999999 -0.044472 3.137589 -0.000177
 55 6.551491 0.000000 0.000003 -0.218254 -0.259480 -0.038430
 56 -1.266844 -1.937444 -4.950561 -0.066572 -2.988806 -0.110308
 57 6.551491 0.000000 0.000003 -0.218254 -0.259480 -0.038430
 58 0.699369 -1.944207 -5.006849 -0.027189 -3.088217 0.005298
 59 4.226148 -0.003202 -0.000000 -0.126239 -0.152786 0.317456
 60 -0.000000 5.000000 0.000000 -0.153564 0.000087 2.718702
 61 0.000004 -0.000005 -3.713579 0.095503 -3.012510 -0.750673
 62 0.000003 0.000001 4.999999 3.053197 1.558589 -0.074927
 63 -0.000007 0.000005 3.713580 -0.334410 -2.825096 -0.524885
 64 0.000001 -0.000000 -4.999999 -0.088726 1.558589 3.066334
 65 7.363603 1.646647 0.495663 -3.141593 -1.570796 0.000000
 66 -0.000006 0.000005 3.619081 -0.528284 -2.367383 -1.007256
 67 16.573921 -0.000001 0.000001 -0.000000 0.000000 -2.019199
 68 15.128181 0.000001 -0.000002 0.031619 0.086785 -0.033197
 69 5.758664 4.244731 -0.000000 0.000000 -0.000000 2.033309
 70 3.177726 0.000001 0.000000 0.000000 0.000000 3.141593
 71 15.708951 0.000002 -0.000003 0.016155 0.048356 -0.018185
 72 0.275149 0.189215 -3.445208 3.130898 0.000409 -1.514604
 73 17.210192 -0.000002 0.000002 0.000000 -0.000000 -2.322356
 74 0.000001 -0.000000 -5.000000 -0.079430 1.546568 -1.570856
 75 0.000006 -0.000005 -3.619080 0.196495 -3.011952 -1.279118
 76 16.573921 0.000000 0.000000 -0.000000 0.000000 -1.611348
 77 15.128181 -0.000002 0.000000 0.214418 -0.027533 0.774389
 78 5.758665 4.244730 -0.000000 -0.000000 -0.000000 1.483530
 79 4.003934 0.000000 0.000001 0.000000 0.000000 0.000000
 80 15.708953 -0.000001 0.000000 0.153371 0.002792 0.528179
 81 0.273998 0.191089 3.439762 -3.130907 -0.000437 -1.508107
 82 17.210192 0.000000 0.000000 0.000000 -0.000000 -2.138823
 83 0.000001 0.000001 5.000000 -0.079311 1.595025 -1.570737
time 9
  0 1.130557 9.712686 27.009436 -0.281436 0.436358 -2.443536
  1 11.368429 6.770639 -23.418964 -0.498313 0.132926 2.346876
  2 -2.276934 0.000003 -1.238187 -1.570795 -1.570451 0.000000
  3 1.796390 0.711945 0.000627 -0.200254 -0.268219 -0.182552
  4 4.119233 -0.003132 0.000739 -0.228318 0.111355 0.173177
  5 4.119123 -0.003156 0.000728 -0.226566 0.146724 0.128829
  6 4.119347 -0.003112 0.000723 -0.224384 0.119170 0.207333
  7 4.120409 -0.002876 0.000994 -0.295116 -0.258548 0.638825
  8 4.443599 -0.000000 -0.000001 0.230103 0.590303 -0.565770
  9 9.024063 -0.000000 -0.000000 0.000000 0.000000 0.000000
 10 0.443015 -0.483678 1.602710 2.053125 -1.118918 0.628601
 11 6.384774 0.000000 0.000003 -0.473571 0.202860 -1.063777
 12 10.242682 -0.000000 0.000001 -0.000000 0.000000 -0.932946
 13 11.375560 -0.000000 -0.000000 -2.783027 0.033625 0.236930
 14 0.728682 0.023432 -1.008293 1.210021 0.600764 0.006085
 15 2.136495 0.000000 -0.000000 -0.000000 -0.000000 -0.078540
 16 2.313139 -0.000000 -0.000000 0.000000 0.000000 0.000000
 17 3.115507 -0.886042 -0.021430 -0.620285 0.000392 0.514872
 18 2.011149 0.000002 0.000000 0.000000 0.000000 1.322792
 19 2.141377 -0.000001 0.000000 0.000000 0.000000 0.000000
 20 1.734171 -0.000000 0.000000 -0.000000 0.000000 0.660693
 21 0.000004 -4.440593 0.000000 1.570544 -0.062990 -0.195737
 22 6.000000 -0.000001 0.000000 -2.512751 -0.000000 0.000000
 23 0.000001 -4.440601 -0.000000 1.569944 -0.062987 0.004053
 24 11.375560 0.000001 0.000002 -2.177532 -0.026096 0.141066
 25 -0.000001 -4.440603 0.000000 1.570144 -0.062988 0.004040
 26 10.510131 0.000002 0.000000 0.000000 -0.000000 -2.037269
 27 -0.000000 -1.748400 4.999998 0.000000 0.004007 1.602291
 28 5.500001 0.000001 0.000000 0.150734 0.000000 -0.000000
 29 -0.000002 -1.940599 5.000002 -0.044472 0.004003 -0.000180
 30 6.551492 0.000000 -0.000001 -0.291403 0.195139 -0.639977
 31 -0.000000 -1.940598 5.000002 -0.027189 -0.053376 0.005295
 32 6.551492 0.000000 -0.000001 -0.122561 0.115810 -0.296165
 33 -0.000001 -1.940599 4.999996 -0.066572 -0.152786 -0.110311
 34 -0.443013 0.490755 -1.602710 -0.097057 0.831644 2.460798
 35 6.384776 -0.000001 0.000001 -0.699539 -0.651527 0.092812
 36 10.242683 -0.000002 0.000001 -0.000000 0.000000 -2.054888
 37 11.375562 0.000001 0.000002 1.908761 0.618154 0.022150
 38 0.728681 0.023432 1.008290 -1.579583 -0.319038 0.212973
 39 2.136497 0.000002 0.000001 -0.000000 0.000000 1.282817
 40 2.313139 0.000000 -0.000002 0.000000 0.000000 3.141593
 41 3.115506 -0.886040 0.021431 0.420766 0.316066 0.167178
 42 2.011150 0.000000 0.000002 -0.000000 0.000000 2.082010
 43 2.141380 -0.000001 0.000002 0.000000 0.000000 3.141593
 44 1.734172 -0.000001 0.000002 0.000000 0.000000 1.041748
 45 0.136316 -3.738191 2.525889 1.493698 2.759406 -1.474501
 46 5.613159 0.862369 3.157031 1.595152 -0.135386 0.061522
 47 11.389367 -0.000817 0.158782 1.730879 0.320935 -0.021571
 48 -0.000001 -4.440599 0.000002 1.570144 -3.078602 0.004040
 49 6.000000 0.000002 0.000001 1.730879 -0.000000 -0.000000
 50 0.000001 -4.440600 -0.000000 1.569944 -3.078603 0.004053
 51 10.510131 -0.000001 0.000001 -0.000000 0.000000 -2.598240
 52 0.000001 -1.748399 -4.999999 -3.141593 0.004007 -1.539299
 53 5.500000 -0.000001 -0.000000 0.219278 0.000000 0.000000
 54 0.000000 -0.000000 -4.999997 -0.044472 3.137589 -0.000177
 55 6.551490 -0.000000 -0.000000 -0.219278 -0.258830 -0.039062
 56 -1.266844 -1.937442 -4.950560 -0.066572 -2.988806 -0.110308
 57 6.551490 -0.000000 0.000000 -0.219278 -0.258830 -0.039062
 58 0.699371 -1.944208 -5.006844 -0.027189 -3.088217 0.005298
 59 4.226146 -0.003202 -0.000001 -0.126239 -0.152786 0.317456
 60 0.000000 5.000001 0.000001 -0.153564 0.000087 2.718702
 61 0.000004 -0.000005 -3.713579 0.095503 -3.012510 -0.750673
 62 0.000003 0.000001 4.999999 3.053197 1.558589 -0.074927
 63 -0.000007 0.000005 3.713580 -0.334410 -2.825096 -0.524885
 64 0.000001 -0.000000 -4.999999 -0.088726 1.558589 3.066334
 65 7.363603 1.646647 0.495663 -3.141593 -1.570796 0.000000
 66 -0.000006 0.000005 3.619081 -0.528284 -2.367383 -1.007256
 67 16.573921 -0.000001 0.000001 -0.000000 0.000000 -2.019199
 68 15.128181 0.000001 -0.000002 0.031619 0.086785 -0.033197
 69 5.758664 4.244731 -0.000000 0.000000 -0.000000 2.033309
 70 3.177726 0.000001 0.000000 0.000000 0.000000 3.141593
 71 15.708951 0.000002 -0.000003 0.016155 0.048356 -0.018185
 72 0.275149 0.189215 -3.445208 3.130898 0.000409 -1.514604
 73 17.210192 -0.000002 0.000002 0.000000 -0.000000 -2.322356
 74 0.000001 -0.000000 -5.000000 -0.079430 1.546568 -1.570856
 75 0.000006 -0.000005 -3.619080 0.196495 -3.011952 -1.279118
 76 16.573921 0.000000 0.000000 -0.000000 0.000000 -1.611348
 77 15.128181 -0.000002 0.000000 0.214418 -0.027533 0.774389
 78 5.758665 4.244730 -0.000000 -0.000000 -0.000000 1.483530
 79 4.003934 0.000000 0.000001 0.000000 0.000000 0.000000
 80 15.708953 -0.000001 0.000000 0.153371 0.002792 0.528179
 81 0.273998 0.191089 3.439762 -3.130907 -0.000437 -1.508107
 82 17.210192 0.000000 0.000000 0.000000 -0.000000 -2.138823
 83 0.000001 0.000001 5.000000 -0.079311 1.595025 -1.570737
time 10
  0 1.130557 9.712686 27.009436 -0.281436 0.436358 -2.443536
  1 11.368429 6.770639 -23.418964 -0.498313 0.132926 2.346876
  2 -2.276934 0.000003 -1.238187 -1.570795 -1.570451 0.000000
  3 1.796390 0.711945 0.000627 -0.200254 -0.268219 -0.182552
  4 4.119233 -0.003132 0.000739 -0.228318 0.111355 0.173177
  5 4.119123 -0.003156 0.000728 -0.226566 0.146724 0.128829
  6 4.119347 -0.003112 0.000723 -0.224384 0.119170 0.207333
  7 4.120409 -0.002876 0.000994 -0.295116 -0.258548 0.638825
  8 4.443599 -0.000000 -0.000001 0.230103 0.590303 -0.565770
  9 9.024063 -0.000000 -0.000000 0.000000 0.000000 0.000000
 10 0.443015 -0.483678 1.602710 2.053125 -1.118918 0.628601
 11 6.384774 0.000000 0.000003 -0.476366 0.205718 -1.063541
 12 10.242683 0.000003 -0.000000 0.000000 0.000000 -0.938353
 13 11.375559 -0.000001 0.000001 -2.779243 0.032711 0.239128
 14 0.728681 0.023432 -1.008293 1.210021 0.600763 0.006085
 15 2.136499 -0.000000 -0.000001 0.000000 -0.000000 -0.078540
 16 2.313137 -0.000000 0.000001 0.000000 0.000000 0.000000
 17 3.115505 -0.886040 -0.021430 -0.620285 0.000392 0.514872
 18 2.011151 -0.000002 0.000000 -0.000000 0.000000 1.322792
 19 2.141378 0.000001 0.000001 0.000000 0.000000 0.000000
 20 1.734173 0.000000 0.000001 -0.000000 -0.000000 0.660693
 21 0.000005 -4.440594 0.000000 1.570544 -0.062990 -0.195737
 22 5.999999 0.000001 -0.000001 -2.509649 0.000000 0.000000
 23 0.000001 -4.440600 -0.000000 1.569944 -0.062987 0.004053
 24 11.375560 0.000000 0.000002 -2.175634 -0.026835 0.142070
 25 -0.000001 -4.440604 0.000001 1.570144 -0.062988 0.004040
 26 10.510131 0.000003 -0.000001 -0.000000 0.000000 -2.039973
 27 -0.000000 -1.748401 4.999999 -0.000000 0.004007 1.602290
 28 5.500000 0.000002 0.000000 0.151129 0.000000 0.000000
 29 -0.000002 -1.940598 5.000001 -0.044472 0.004003 -0.000180
 30 6.551492 0.000000 -0.000001 -0.292391 0.196896 -0.639949
 31 0.000001 -1.940598 5.000000 -0.027189 -0.053376 0.005295
 32 6.551492 0.000000 -0.000001 -0.122858 0.116711 -0.296003
 33 -0.000001 -1.940599 4.999997 -0.066572 -0.152786 -0.110311
 34 -0.443013 0.490755 -1.602710 -0.093830 0.831854 2.464053
 35 6.384776 -0.000001 0.000001 -0.701906 -0.650214 0.093268
 36 10.242682 -0.000001 0.000000 0.000000 0.000000 -2.055113
 37 11.375560 -0.000002 -0.000000 1.906430 0.619143 0.018689
 38 0.728680 0.023432 1.008292 -1.579583 -0.319038 0.212973
 39 2.136497 0.000000 0.000001 -0.000000 0.000000 1.282817
 40 2.313140 0.000001 -0.000001 0.000000 0.000000 3.141593
 41 3.115506 -0.886040 0.021432 0.420765 0.316066 0.167178
 42 2.011151 -0.000001 0.000001 -0.000000 -0.000000 2.082010
 43 2.141381 0.000000 0.000003 0.000000 0.000000 3.141593
 44 1.734171 -0.000001 0.000003 0.000000 0.000000 1.041748
 45 0.136316 -3.738193 2.525889 1.493698 2.759406 -1.474501
 46 5.613160 0.862368 3.157033 1.595152 -0.135386 0.061522
 47 11.389366 -0.000817 0.158782 1.730009 0.321270 -0.023185
 48 -0.000001 -4.440599 -0.000000 1.570144 -3.078602 0.004040
 49 5.999999 0.000001 -0.000000 1.730008 -0.000000 -0.000000
 50 0.000000 -4.440602 0.000000 1.569944 -3.078603 0.004053
 51 10.510131 -0.000001 0.000001 -0.000000 0.000000 -2.598353
 52 -0.000000 -1.748400 -5.000000 -3.141593 0.004007 -1.539299
 53 5.500000 -0.000001 0.000000 0.219891 -0.000000 0.000000
 54 -0.000001 0.000000 -5.000000 -0.044472 3.137590 -0.000177
 55 6.551490 -0.000000 -0.000001 -0.219891 -0.258624 -0.038834
 56 -1.266844 -1.937443 -4.950561 -0.066572 -2.988806 -0.110308
 57 6.551490 -0.000000 -0.000001 -0.219891 -0.258624 -0.038834
 58 0.699370 -1.944207 -5.006848 -0.027189 -3.088217 0.005298
 59 4.226146 -0.003202 -0.000001 -0.126239 -0.152786 0.317456
 60 0.000000 5.000001 0.000001 -0.153564 0.000087 2.718702
 61 0.000004 -0.000005 -3.713579 0.095503 -3.012510 -0.750673
 62 0.000003 0.000001 4.999999 3.053197 1.558589 -0.074927
 63 -0.000007 0.000005 3.713580 -0.334410 -2.825096 -0.524885
 64 0.000001 -0.000000 -4.999999 -0.088726 1.558589 3.066334
 65 7.363603 1.646647 0.495663 -3.141593 -1.570796 0.000000
 66 -0.000006 0.000005 3.619081 -0.528284 -2.367383 -1.007256
 67 16.573921 -0.000001 0.000001 -0.000000 0.000000 -2.019199
 68 15.128181 0.000001 -0.000002 0.031619 0.086785 -0.033197
 69 5.758664 4.244731 -0.000000 0.000000 -0.000000 2.033309
 70 3.177726 0.000001 0.000000 0.000000 0.000000 3.141593
 71 15.708951 0.000002 -0.000003 0.016155 0.048356 -0.018185
 72 0.275149 0.189215 -3.445208 3.130898 0.000409 -1.514604
 73 17.210192 -0.000002 0.000002 0.000000 -0.000000 -2.322356
 74 0.000001 -0.000000 -5.000000 -0.079430 1.546568 -1.570856
 75 0.000006 -0.000005 -3.619080 0.196495 -3.011952 -1.279118
 76 16.573921 0.000000 0.000000 -0.000000 0.000000 -1.611348
 77 15.128181 -0.000002 0.000000 0.214418 -0.027533 0.774389
 78 5.758665 4.244730 -0.000000 -0.000000 -0.000000 1.483530
 79 4.003934 0.000000 0.000001 0.000000 0.000000 0.000000
 80 15.708953 -0.000001 0.000000 0.153371 0.002792 0.528179
 81 0.273998 0.191089 3.439762 -3.130907 -0.000437 -1.508107
 82 17.210192 0.000000 0.000000 0.000000 -0.000000 -2.138823
 83 0.000001 0.000001 5.000000 -0.079311 1.595025 -1.570737
time 11
  0 1.130557 9.712686 27.009436 -0.281436 0.436358 -2.443536
  1 11.368429 6.770639 -23.418964 -0.498313 0.132926 2.346876
  2 -2.276934 0.000003 -1.238187 -1.570795 -1.570451 0.000000
  3 1.796390 0.711945 0.000627 -0.200254 -0.268219 -0.182552
  4 4.119233 -0.003132 0.000739 -0.228318 0.111355 0.173177
  5 4.119123 -0.003156 0.000728 -0.226566 0.146724 0.128829
  6 4.119347 -0.003112 0.000723 -0.224384 0.119170 0.207333
  7 4.120409 -0.002876 0.000994 -0.295116 -0.258548 0.638825
  8 4.443599 -0.000000 -0.000001 0.230103 0.590303 -0.565770
  9 9.024063 -0.000000 -0.000000 0.000000 0.000000 0.000000
 10 0.443015 -0.483678 1.602710 2.053125 -1.118918 0.628601
 11 6.384774 0.000000 0.000003 -0.479013 0.208790 -1.063472
 12 10.242681 -0.000000 -0.000000 -0.000000 -0.000000 -0.939597
 13 11.375558 0.000001 0.000001 -2.776342 0.032961 0.239926
 14 0.728681 0.023431 -1.008292 1.210021 0.600764 0.006085
 15 2.136497 -0.000001 0.000000 0.000000 -0.000000 -0.078540
 16 2.313139 -0.000000 0.000000 0.000000 0.000000 0.000000
 17 3.115506 -0.886041 -0.021432 -0.620285 0.000392 0.514872
 18 2.011152 0.000001 -0.000002 0.000000 -0.000000 1.322792
 19 2.141378 0.000001 0.000001 0.000000 0.000000 0.000000
 20 1.734172 0.000000 -0.000001 -0.000000 -0.000000 0.660693
 21 0.000003 -4.440594 0.000001 1.570544 -0.062990 -0.195737
 22 5.999999 -0.000001 0.000000 -2.507253 -0.000000 0.000000
 23 0.000001 -4.440602 -0.000001 1.569944 -0.062987 0.004053
 24 11.375560 -0.000002 0.000004 -2.174191 -0.026712 0.142529
 25 0.000000 -4.440604 -0.000001 1.570144 -0.062988 0.004040
 26 10.510130 0.000001 -0.000001 0.000000 0.000000 -2.040595
 27 0.000002 -1.748400 5.000000 -0.000000 0.004007 1.602291
 28 5.499999 -0.000001 -0.000000 0.151420 -0.000000 0.000000
 29 -0.000002 -1.940598 5.000000 -0.044472 0.004003 -0.000180
 30 6.551492 0.000000 -0.000001 -0.293223 0.198799 -0.639973
 31 -0.000000 -1.940600 5.000003 -0.027189 -0.053376 0.005295
 32 6.551492 0.000000 -0.000001 -0.123068 0.117671 -0.295860
 33 -0.000000 -1.940599 4.999996 -0.066572 -0.152786 -0.110311
 34 -0.443013 0.490755 -1.602710 -0.093830 0.831854 2.464053
 35 6.384776 -0.000001 0.000001 -0.704037 -0.649385 0.095332
 36 10.242682 -0.000002 0.000001 -0.000000 0.000000 -2.055918
 37 11.375562 0.000000 0.000002 1.906441 0.619142 0.018717
 38 0.728680 0.023430 1.008293 -1.579583 -0.319038 0.212973
 39 2.136497 -0.000000 0.000000 -0.000000 0.000000 1.282817
 40 2.313139 0.000001 -0.000000 0.000000 0.000000 3.141593
 41 3.115506 -0.886041 0.021432 0.420765 0.316066 0.167178
 42 2.011152 -0.000001 -0.000000 0.000000 -0.000000 2.082010
 43 2.141380 -0.000000 0.000000 0.000000 0.000000 3.141593
 44 1.734173 -0.000001 0.000002 0.000000 -0.000000 1.041748
 45 0.136315 -3.738192 2.525890 1.493698 2.759406 -1.474501
 46 5.613160 0.862367 3.157031 1.595152 -0.135386 0.061522
 47 11.389366 -0.000821 0.158783 1.730012 0.321270 -0.023172
 48 -0.000001 -4.440601 -0.000000 1.570144 -3.078602 0.004040
 49 6.000000 -0.000001 0.000002 1.730012 -0.000000 0.000000
 50 0.000001 -4.440602 -0.000003 1.569944 -3.078603 0.004053
 51 10.510131 -0.000002 0.000001 -0.000000 -0.000000 -2.598755
 52 0.000000 -1.748400 -4.999999 -3.141593 0.004007 -1.539299
 53 5.500000 -0.000001 0.000001 0.220498 -0.000000 -0.000000
 54 0.000001 -0.000000 -5.000000 -0.044472 3.137589 -0.000177
 55 6.551490 -0.000000 -0.000001 -0.220498 -0.258554 -0.038079
 56 -1.266843 -1.937443 -4.950559 -0.066572 -2.988806 -0.110308
 57 6.551490 -0.000000 -0.000001 -0.220498 -0.258554 -0.038079
 58 0.699370 -1.944207 -5.006847 -0.027189 -3.088217 0.005298
 59 4.226146 -0.003202 -0.000001 -0.126239 -0.152786 0.317456
 60 0.000000 5.000001 0.000001 -0.153564 0.000087 2.718702
 61 0.000004 -0.000005 -3.713579 0.095503 -3.012510 -0.750673
 62 0.000003 0.000001 4.999999 3.053197 1.558589 -0.074927
 63 -0.000007 0.000005 3.713580 -0.334410 -2.825096 -0.524885
 64 0.000001 -0.000000 -4.999999 -0.088726 1.558589 3.066334
 65 7.363603 1.646647 0.495663 -3.141593 -1.570796 0.000000
 66 -0.000006 0.000005 3.619081 -0.528284 -2.367383 -1.007256
 67 16.573921 -0.000001 0.000001 -0.000000 0.000000 -2.019199
 68 15.128181 0.000001 -0.000002 0.031619 0.086785 -0.033197
 69 5.758664 4.244731 -0.000000 0.000000 -0.000000 2.033309
 70 3.177726 0.000001 0.000000 0.000000 0.000000 3.141593
 71 15.708951 0.000002 -0.000003 0.016155 0.048356 -0.018185
 72 0.275149 0.189215 -3.445208 3.130898 0.000409 -1.514604
 73 17.210192 -0.000002 0.000002 0.000000 -0.000000 -2.322356
 74 0.000001 -0.000000 -5.000000 -0.079430 1.546568 -1.570856
 75 0.000006 -0.000005 -3.619080 0.196495 -3.011952 -1.279118
 76 16.573921 0.000000 0.000000 -0.000000 0.000000 -1.611348
 77 15.128181 -0.000002 0.000000 0.214418 -0.027533 0.774389
 78 5.758665 4.244730 -0.000000 -0.000000 -0.000000 1.483530
 79 4.003934 0.000000 0.000001 0.000000 0.000000 0.000000
 80 15.708953 -0.000001 0.000000 0.153371 0.002792 0.528179
 81 0.273998 0.191089 3.439762 -3.130907 -0.000437 -1.508107
 82 17.210192 0.000000 0.000000 0.000000 -0.000000 -2.138823
 83 0.000001 0.000001 5.000000 -0.079311 1.595025 -1.570737
time 12
  0 1.130557 9.712686 27.009436 -0.281436 0.436358 -2.443536
  1 11.368429 6.770639 -23.418964 -0.498313 0.132926 2.346876
  2 -2.276934 0.000003 -1.238187 -1.570795 -1.570451 0.000000
  3 1.796390 0.711945 0.000627 -0.200254 -0.268219 -0.182552
  4 4.119233 -0.003132 0.000739 -0.228318 0.111355 0.173177
  5 4.119123 -0.003156 0.000728 -0.226566 0.146724 0.128829
  6 4.119347 -0.003112 0.000723 -0.224384 0.119170 0.207333
  7 4.120409 -0.002876 0.000994 -0.295116 -0.258548 0.638825
  8 4.443599 -0.000000 -0.000001 0.230103 0.590303 -0.565770
  9 9.024063 -0.000000 -0.000000 0.000000 0.000000 0.000000
 10 0.443015 -0.483678 1.602710 2.053125 -1.118918 0.628601
 11 6.384774 0.000000 0.000003 -0.480537 0.214258 -1.062041
 12 10.242681 0.000001 0.000000 0.000000 -0.000000 -0.942757
 13 11.375561 0.000000 0.000001 -2.774468 0.032449 0.241765
 14 0.728680 0.023432 -1.008292 1.210021 0.600763 0.006085
 15 2.136496 -0.000000 0.000002 0.000000 -0.000000 -0.078540
 16 2.313139 -0.000001 -0.000001 0.000000 0.000000 0.000000
 17 3.115507 -0.886042 -0.021431 -0.620285 0.000392 0.514872
 18 2.011150 0.000001 0.000000 0.000000 0.000000 1.322792
 19 2.141380 -0.000001 -0.000000 0.000000 0.000000 0.000000
 20 1.734171 0.000001 -0.000001 0.000000 0.000000 0.660693
 21 0.000005 -4.440594 0.000000 1.570544 -0.062990 -0.195737
 22 6.000000 -0.000002 0.000001 -2.505735 -0.000000 0.000000
 23 0.000002 -4.440601 -0.000001 1.569944 -0.062987 0.004053
 24 11.375560 0.000001 0.000004 -2.173254 -0.027243 0.143423
 25 -0.000001 -4.440603 0.000002 1.570144 -0.062988 0.004040
 26 10.510130 0.000001 0.000000 0.000000 0.000000 -2.042175
 27 0.000002 -1.748401 5.000000 -0.000000 0.004007 1.602291
 28 5.499999 -0.000000 0.000001 0.150878 -0.000000 -0.000000
 29 -0.000001 -1.940598 5.000001 -0.044472 0.004003 -0.000180
 30 6.551492 0.000000 -0.000001 -0.292725 0.201943 -0.639312
 31 0.000001 -1.940599 5.000000 -0.027189 -0.053376 0.005295
 32 6.551492 0.000000 -0.000001 -0.122575 0.119106 -0.295409
 33 0.000000 -1.940599 4.999997 -0.066572 -0.152786 -0.110311
 34 -0.443013 0.490755 -1.602710 -0.093830 0.831854 2.464053
 35 6.384776 -0.000001 0.000001 -0.709474 -0.647253 0.100592
 36 10.242682 -0.000002 0.000001 -0.000000 0.000000 -2.057960
 37 11.375561 0.000002 0.000001 1.906463 0.619140 0.018768
 38 0.728681 0.023432 1.008292 -1.579583 -0.319038 0.212973
 39 2.136497 -0.000002 -0.000002 -0.000000 0.000000 1.282817
 40 2.313140 0.000001 0.000000 0.000000 0.000000 3.141593
 41 3.115506 -0.886040 0.021431 0.420766 0.316066 0.167178
 42 2.011151 -0.000001 0.000000 -0.000000 -0.000000 2.082010
 43 2.141381 0.000000 0.000002 0.000000 0.000000 3.141593
 44 1.734172 -0.000001 0.000002 -0.000000 0.000000 1.041748
 45 0.136314 -3.738192 2.525890 1.493698 2.759406 -1.474501
 46 5.613160 0.862367 3.157033 1.595152 -0.135386 0.061522
 47 11.389365 -0.000819 0.158782 1.730018 0.321271 -0.023148
 48 0.000000 -4.440599 -0.000000 1.570144 -3.078602 0.004040
 49 5.999998 -0.000001 -0.000002 1.730019 -0.000000 0.000000
 50 0.000003 -4.440601 0.000001 1.569944 -3.078603 0.004053
 51 10.510131 -0.000002 0.000001 -0.000000 -0.000000 -2.599777
 52 0.000000 -1.748400 -5.000002 -3.141593 0.004007 -1.539299
 53 5.499999 -0.000001 0.000000 0.222050 0.000000 -0.000000
 54 0.000000 -0.000001 -4.999997 -0.044472 3.137589 -0.000177
 55 6.551490 -0.000000 -0.000001 -0.222050 -0.258367 -0.036148
 56 -1.266844 -1.937444 -4.950558 -0.066572 -2.988806 -0.110308
 57 6.551490 -0.000000 -0.000001 -0.222050 -0.258367 -0.036148
 58 0.699370 -1.944208 -5.006845 -0.027189 -3.088217 0.005298
 59 4.226146 -0.003202 -0.000001 -0.126239 -0.152786 0.317456
 60 0.000000 5.000001 0.000001 -0.153564 0.000087 2.718702
 61 0.000004 -0.000005 -3.713579 0.095503 -3.012510 -0.750673
 62 0.000003 0.000001 4.999999 3.053197 1.558589 -0.074927
 63 -0.000007 0.000005 3.713580 -0.334410 -2.825096 -0.524885
 64 0.000001 -0.000000 -4.999999 -0.088726 1.558589 3.066334
 65 7.363603 1.646647 0.495663 -3.141593 -1.570796 0.000000
 66 -0.000006 0.000005 3.619081 -0.528284 -2.367383 -1.007256
 67 16.573921 -0.000001 0.000001 -0.000000 0.000000 -2.019199
 68 15.128181 0.000001 -0.000002 0.031619 0.086785 -0.033197
 69 5.758664 4.244731 -0.000000 0.000000 -0.000000 2.033309
 70 3.177726 0.000001 0.000000 0.000000 0.000000 3.141593
 71 15.708951 0.000002 -0.000003 0.016155 0.048356 -0.018185
 72 0.275149 0.189215 -3.445208 3.130898 0.000409 -1.514604
 73 17.210192 -0.000002 0.000002 0.000000 -0.000000 -2.322356
 74 0.000001 -0.000000 -5.000000 -0.079430 1.546568 -1.570856
 75 0.000006 -0.000005 -3.619080 0.196495 -3.011952 -1.279118
 76 16.573921 0.000000 0.000000 -0.000000 0.000000 -1.611348
 77 15.128181 -0.000002 0.000000 0.214418 -0.027533 0.774389
 78 5.758665 4.244730 -0.000000 -0.000000 -0.000000 1.483530
 79 4.003934 0.000000 0.000001 0.000000 0.000000 0.000000
 80 15.708953 -0.000001 0.000000 0.153371 0.002792 0.528179
 81 0.273998 0.191089 3.439762 -3.130907 -0.000437 -1.508107
 82 17.210192 0.000000 0.000000 0.000000 -0.000000 -2.138823
 83 0.000001 0.000001 5.000000 -0.079311 1.595025 -1.570737
time 13
  0 1.130557 9.712686 27.009436 -0.281436 0.436358 -2.443536
  1 11.368429 6.770639 -23.418964 -0.498313 0.132926 2.346876
  2 -2.276934 0.000003 -1.238187 -1.570795 -1.570451 0.000000
  3 1.796390 0.711945 0.000627 -0.200254 -0.268219 -0.182552
  4 4.119233 -0.003132 0.000739 -0.228318 0.111355 0.173177
  5 4.119123 -0.003156 0.000728 -0.226566 0.146724 0.128829
  6 4.119347 -0.003112 0.000723 -0.224384 0.119170 0.207333
  7 4.120409 -0.002876 0.000994 -0.295116 -0.258548 0.638825
  8 4.443599 -0.000000 -0.000001 0.230103 0.590303 -0.565770
  9 9.024063 -0.000000 -0.000000 0.000000 0.000000 0.000000
 10 0.443015 -0.483678 1.602710 2.053125 -1.118918 0.628601
 11 6.384774 0.000000 0.000003 -0.481403 0.221108 -1.059841
 12 10.242680 0.000003 -0.000000 -0.000000 -0.000000 -0.946975
 13 11.375560 0.000000 -0.000000 -2.773175 0.031492 0.244165
 14 0.728680 0.023431 -1.008292 1.210021 0.600763 0.006085
 15 2.136496 -0.000001 0.000001 -0.000000 0.000000 -0.078540
 16 2.313139 -0.000001 -0.000002 0.000000 0.000000 0.000000
 17 3.115505 -0.886039 -0.021432 -0.620285 0.000392 0.514872
 18 2.011152 0.000000 0.000001 -0.000000 0.000000 1.322792
 19 2.141378 0.000001 -0.000001 0.000000 0.000000 0.000000
 20 1.734174 0.000002 0.000000 -0.000000 -0.000000 0.660693
 21 0.000004 -4.440594 0.000002 1.570544 -0.062990 -0.195737
 22 5.999999 -0.000000 -0.000000 -2.504713 -0.000000 0.000000
 23 0.000001 -4.440601 -0.000000 1.569944 -0.062987 0.004053
 24 11.375561 -0.000002 0.000004 -2.172601 -0.028145 0.144545
 25 -0.000001 -4.440604 -0.000001 1.570144 -0.062988 0.004040
 26 10.510130 0.000002 -0.000001 0.000000 -0.000000 -2.044284
 27 0.000000 -1.748401 4.999999 0.000000 0.004007 1.602291
 28 5.500000 0.000003 -0.000001 0.149855 -0.000000 -0.000000
 29 -0.000002 -1.940599 5.000001 -0.044472 0.004003 -0.000180
 30 6.551492 0.000000 -0.000001 -0.291459 0.205804 -0.638263
 31 -0.000000 -1.940599 5.000000 -0.027189 -0.053376 0.005295
 32 6.551492 0.000000 -0.000001 -0.121677 0.120816 -0.294781
 33 -0.000000 -1.940598 4.999995 -0.066572 -0.152786 -0.110311
 34 -0.443013 0.490755 -1.602710 -0.093830 0.831854 2.464053
 35 6.384776 -0.000001 0.000001 -0.716778 -0.644350 0.107647
 36 10.242682 0.000000 0.000002 -0.000000 0.000000 -2.060677
 37 11.375562 -0.000003 -0.000000 1.906474 0.619140 0.018792
 38 0.728681 0.023432 1.008291 -1.579583 -0.319038 0.212973
 39 2.136497 -0.000002 -0.000001 -0.000000 0.000000 1.282817
 40 2.313140 0.000001 0.000000 0.000000 0.000000 3.141593
 41 3.115506 -0.886040 0.021429 0.420766 0.316066 0.167178
 42 2.011149 -0.000001 0.000003 -0.000000 -0.000000 2.082010
 43 2.141380 -0.000001 -0.000002 0.000000 0.000000 3.141593
 44 1.734172 -0.000001 0.000000 -0.000000 -0.000000 1.041748
 45 0.136315 -3.738192 2.525891 1.493698 2.759406 -1.474501
 46 5.613160 0.862367 3.157030 1.595152 -0.135386 0.061522
 47 11.389367 -0.000820 0.158782 1.730022 0.321271 -0.023136
 48 -0.000001 -4.440599 0.000002 1.570144 -3.078602 0.004040
 49 6.000000 -0.000001 0.000000 1.730022 -0.000000 0.000000
 50 0.000002 -4.440599 -0.000001 1.569944 -3.078602 0.004053
 51 10.510133 0.000002 0.000001 0.000000 -0.000000 -2.601135
 52 -0.000001 -1.748400 -5.000001 -3.141593 0.004007 -1.539299
 53 5.500001 0.000001 0.000001 0.224138 0.000000 -0.000000
 54 -0.000002 0.000003 -4.999999 -0.044472 3.137589 -0.000177
 55 6.551490 -0.000000 -0.000001 -0.224137 -0.258098 -0.033542
 56 -1.266843 -1.937444 -4.950557 -0.066572 -2.988806 -0.110308
 57 6.551490 -0.000000 -0.000001 -0.224137 -0.258098 -0.033542
 58 0.699371 -1.944207 -5.006845 -0.027189 -3.088217 0.005298
 59 4.226146 -0.003202 -0.000001 -0.126239 -0.152786 0.317456
 60 0.000000 5.000001 0.000001 -0.153564 0.000087 2.718702
 61 0.000004 -0.000005 -3.713579 0.095503 -3.012510 -0.750673
 62 0.000003 0.000001 4.999999 3.053197 1.558589 -0.074927
 63 -0.000007 0.000005 3.713580 -0.334410 -2.825096 -0.524885
 64 0.000001 -0.000000 -4.999999 -0.088726 1.558589 3.066334
 65 7.363603 1.646647 0.495663 -3.141593 -1.570796 0.000000
 66 -0.000006 0.000005 3.619081 -0.528284 -2.367383 -1.007256
 67 16.573921 -0.000001 0.000001 -0.000000 0.000000 -2.019199
 68 15.128181 0.000001 -0.000002 0.031619 0.086785 -0.033197
 69 5.758664 4.244731 -0.000000 0.000000 -0.000000 2.033309
 70 3.177726 0.000001 0.000000 0.000000 0.000000 3.141593
 71 15.708951 0.000002 -0.000003 0.016155 0.048356 -0.018185
 72 0.275149 0.189215 -3.445208 3.130898 0.000409 -1.514604
 73 17.210192 -0.000002 0.000002 0.000000 -0.000000 -2.322356
 74 0.000001 -0.000000 -5.000000 -0.079430 1.546568 -1.570856
 75 0.000006 -0.000005 -3.619080 0.196495 -3.011952 -1.279118
 76 16.573921 0.000000 0.000000 -0.000000 0.000000 -1.611348
 77 15.128181 -0.000002 0.000000 0.214418 -0.027533 0.774389
 78 5.758665 4.244730 -0.000000 -0.000000 -0.000000 1.483530
 79 4.003934 0.000000 0.000001 0.000000 0.000000 0.000000
 80 15.708953 -0.000001 0.000000 0.153371 0.002792 0.528179
 81 0.273998 0.191089 3.439762 -3.130907 -0.000437 -1.508107
 82 17.210192 0.000000 0.000000 0.000000 -0.000000 -2.138823
 83 0.000001 0.000001 5.000000 -0.079311 1.595025 -1.570737
time 14
  0 1.130557 9.712686 27.009436 -0.281436 0.436358 -2.443536
  1 11.368429 6.770639 -23.418964 -0.498313 0.132926 2.346876
  2 -2.276934 0.000003 -1.238187 -1.570795 -1.570451 0.000000
  3 1.796390 0.711945 0.000627 -0.200254 -0.268219 -0.182552
  4 4.119233 -0.003132 0.000739 -0.228318 0.111355 0.173177
  5 4.119123 -0.003156 0.000728 -0.226566 0.146724 0.128829
  6 4.119347 -0.003112 0.000723 -0.224384 0.119170 0.207333
  7 4.120409 -0.002876 0.000994 -0.295116 -0.258548 0.638825
  8 4.443599 -0.000000 -0.000001 0.230103 0.590303 -0.565770
  9 9.024063 -0.000000 -0.000000 0.000000 0.000000 0.000000
 10 0.443015 -0.483678 1.602710 2.053125 -1.118918 0.628601
 11 6.384774 0.000000 0.000003 -0.482087 0.228316 -1.057461
 12 10.242682 0.000001 -0.000000 0.000000 0.000000 -0.951413
 13 11.375562 -0.000000 -0.000001 -2.772020 0.030410 0.246663
 14 0.728681 0.023432 -1.008291 1.210021 0.600764 0.006085
 15 2.136497 -0.000000 -0.000002 0.000000 0.000000 -0.078540
 16 2.313139 -0.000001 0.000000 0.000000 0.000000 0.000000
 17 3.115506 -0.886040 -0.021431 -0.620285 0.000392 0.514872
 18 2.011150 -0.000001 0.000000 0.000000 -0.000000 1.322792
 19 2.141382 -0.000001 0.000000 0.000000 0.000000 0.000000
 20 1.734171 0.000000 0.000001 0.000000 -0.000000 0.660693
 21 0.000006 -4.440594 0.000001 1.570544 -0.062990 -0.195737
 22 6.000000 -0.000002 -0.000000 -2.503808 0.000000 0.000000
 23 0.000001 -4.440601 -0.000001 1.569944 -0.062987 0.004053
 24 11.375559 -0.000000 0.000001 -2.172014 -0.029137 0.145698
 25 -0.000000 -4.440604 -0.000001 1.570144 -0.062988 0.004040
 26 10.510130 0.000000 0.000000 0.000000 0.000000 -2.046503
 27 0.000001 -1.748401 5.000000 -0.000000 0.004007 1.602290
 28 5.500000 -0.000000 0.000000 0.148707 -0.000000 0.000000
 29 -0.000002 -1.940597 5.000000 -0.044472 0.004003 -0.000180
 30 6.551492 0.000000 -0.000001 -0.289993 0.209852 -0.637121
 31 -0.000002 -1.940600 5.000002 -0.027189 -0.053376 0.005295
 32 6.551492 0.000000 -0.000001 -0.120672 0.122598 -0.294109
 33 -0.000001 -1.940600 4.999997 -0.066572 -0.152786 -0.110311
 34 -0.443013 0.490755 -1.602710 -0.093830 0.831854 2.464053
 35 6.384776 -0.000001 0.000001 -0.724524 -0.641222 0.115113
 36 10.242682 -0.000002 0.000000 0.000000 0.000000 -2.063523
 37 11.375560 -0.000003 0.000001 1.906461 0.619141 0.018763
 38 0.728680 0.023430 1.008294 -1.579583 -0.319038 0.212973
 39 2.136497 -0.000002 -0.000002 -0.000000 0.000000 1.282817
 40 2.313140 0.000001 -0.000000 0.000000 0.000000 3.141593
 41 3.115506 -0.886040 0.021430 0.420765 0.316066 0.167178
 42 2.011152 0.000000 -0.000001 0.000000 -0.000000 2.082010
 43 2.141380 0.000001 0.000000 0.000000 0.000000 3.141593
 44 1.734171 -0.000000 0.000002 0.000000 -0.000000 1.041748
 45 0.136315 -3.738191 2.525889 1.493698 2.759406 -1.474501
 46 5.613159 0.862366 3.157034 1.595152 -0.135386 0.061522
 47 11.389365 -0.000820 0.158782 1.730018 0.321271 -0.023150
 48 -0.000001 -4.440599 0.000001 1.570144 -3.078602 0.004040
 49 5.999999 -0.000001 0.000001 1.730018 0.000000 -0.000000
 50 0.000003 -4.440601 0.000000 1.569944 -3.078603 0.004053
 51 10.510131 0.000000 -0.000001 0.000000 0.000000 -2.602558
 52 -0.000000 -1.748402 -5.000002 -3.141593 0.004007 -1.539299
 53 5.500000 -0.000001 0.000000 0.226355 -0.000000 0.000000
 54 0.000000 -0.000000 -5.000000 -0.044472 3.137590 -0.000177
 55 6.551490 -0.000000 -0.000001 -0.226355 -0.257790 -0.030763
 56 -1.266844 -1.937443 -4.950559 -0.066572 -2.988806 -0.110308
 57 6.551490 -0.000000 -0.000001 -0.226355 -0.257790 -0.030763
 58 0.699371 -1.944208 -5.006844 -0.027189 -3.088217 0.005298
 59 4.226146 -0.003202 -0.000001 -0.126239 -0.152786 0.317456
 60 0.000000 5.000001 0.000001 -0.153564 0.000087 2.718702
 61 0.000004 -0.000005 -3.713579 0.095503 -3.012510 -0.750673
 62 0.000003 0.000001 4.999999 3.053197 1.558589 -0.074927
 63 -0.000007 0.000005 3.713580 -0.334410 -2.825096 -0.524885
 64 0.000001 -0.000000 -4.999999 -0.088726 1.558589 3.066334
 65 7.363603 1.646647 0.495663 -3.141593 -1.570796 0.000000
 66 -0.000006 0.000005 3.619081 -0.528284 -2.367383 -1.007256
 67 16.573921 -0.000001 0.000001 -0.000000 0.000000 -2.019199
 68 15.128181 0.000001 -0.000002 0.031619 0.086785 -0.033197
 69 5.758664 4.244731 -0.000000 0.000000 -0.000000 2.033309
 70 3.177726 0.000001 0.000000 0.000000 0.000000 3.141593
 71 15.708951 0.000002 -0.000003 0.016155 0.048356 -0.018185
 72 0.275149 0.189215 -3.445208 3.130898 0.000409 -1.514604
 73 17.210192 -0.000002 0.000002 0.000000 -0.000000 -2.322356
 74 0.000001 -0.000000 -5.000000 -0.079430 1.546568 -1.570856
 75 0.000006 -0.000005 -3.619080 0.196495 -3.011952 -1.279118
 76 16.573921 0.000000 0.000000 -0.000000 0.000000 -1.611348
 77 15.128181 -0.000002 0.000000 0.214418 -0.027533 0.774389
 78 5.758665 4.244730 -0.000000 -0.000000 -0.000000 1.483530
 79 4.003934 0.000000 0.000001 0.000000 0.000000 0.000000
 80 15.708953 -0.000001 0.000000 0.153371 0.002792 0.528179
 81 0.273998 0.191089 3.439762 -3.130907 -0.000437 -1.508107
 82 17.210192 0.000000 0.000000 0.000000 -0.000000 -2.138823
 83 0.000001 0.000001 5.000000 -0.079311 1.595025 -1.570737
time 15
  0 1.130557 9.712686 27.009436 -0.281436 0.436358 -2.443536
  1 11.368429 6.770639 -23.418964 -0.498313 0.132926 2.346876
  2 -2.276934 0.000003 -1.238187 -1.570795 -1.570451 0.000000
  3 1.796390 0.711945 0.000627 -0.200254 -0.268219 -0.182552
  4 4.119233 -0.003132 0.000739 -0.228318 0.111355 0.173177
  5 4.119123 -0.003156 0.000728 -0.226566 0.146724 0.128829
  6 4.119347 -0.003112 0.000723 -0.224384 0.119170 0.207333
  7 4.120409 -0.002876 0.000994 -0.295116 -0.258548 0.638825
  8 4.443599 -0.000000 -0.000001 0.230103 0.590303 -0.565770
  9 9.024063 -0.000000 -0.000000 0.000000 0.000000 0.000000
 10 0.443015 -0.483678 1.602710 2.053125 -1.118918 0.628601
 11 6.384774 0.000000 0.000003 -0.483080 0.234853 -1.055485
 12 10.242680 0.000002 0.000000 -0.000000 -0.000000 -0.955268
 13 11.375560 -0.000001 0.000003 -2.770565 0.029535 0.248829
 14 0.728680 0.023431 -1.008293 1.210021 0.600763 0.006086
 15 2.136499 -0.000001 -0.000000 0.000000 -0.000000 -0.078540
 16 2.313137 -0.000000 0.000001 0.000000 0.000000 0.000000
 17 3.115506 -0.886042 -0.021430 -0.620285 0.000392 0.514872
 18 2.011151 -0.000000 0.000000 -0.000000 -0.000000 1.322792
 19 2.141380 -0.000000 0.000000 0.000000 0.000000 0.000000
 20 1.734173 0.000003 0.000000 -0.000000 -0.000000 0.660693
 21 0.000006 -4.440594 0.000001 1.570544 -0.062990 -0.195737
 22 5.999999 -0.000001 0.000001 -2.502645 0.000000 -0.000000
 23 0.000002 -4.440600 -0.000000 1.569944 -0.062987 0.004053
 24 11.375560 -0.000000 0.000005 -2.171279 -0.029940 0.146705
 25 0.000000 -4.440605 0.000000 1.570144 -0.062988 0.004040
 26 10.510129 0.000001 0.000001 0.000000 -0.000000 -2.048430
 27 -0.000001 -1.748401 4.999999 0.000000 0.004007 1.602291
 28 5.499999 0.000002 0.000000 0.147788 -0.000000 -0.000000
 29 -0.000001 -1.940598 5.000001 -0.044472 0.004003 -0.000180
 30 6.551492 0.000000 -0.000001 -0.288896 0.213551 -0.636175
 31 -0.000002 -1.940600 5.000001 -0.027189 -0.053376 0.005295
 32 6.551492 0.000000 -0.000001 -0.119862 0.124246 -0.293524
 33 -0.000001 -1.940599 4.999997 -0.066572 -0.152786 -0.110311
 34 -0.443013 0.490755 -1.602710 -0.093830 0.831854 2.464053
 35 6.384776 -0.000001 0.000001 -0.731306 -0.638442 0.121637
 36 10.242682 -0.000001 0.000002 0.000000 -0.000000 -2.065985
 37 11.375563 -0.000000 0.000001 1.906430 0.619143 0.018690
 38 0.728681 0.023432 1.008293 -1.579583 -0.319038 0.212973
 39 2.136497 0.000001 -0.000000 -0.000000 0.000000 1.282817
 40 2.313141 0.000001 -0.000000 0.000000 0.000000 3.141593
 41 3.115506 -0.886040 0.021431 0.420765 0.316066 0.167178
 42 2.011151 -0.000001 -0.000001 0.000000 -0.000000 2.082010
 43 2.141380 0.000000 -0.000001 0.000000 0.000000 3.141593
 44 1.734172 -0.000001 0.000001 0.000000 0.000000 1.041748
 45 0.136316 -3.738192 2.525892 1.493698 2.759406 -1.474501
 46 5.613160 0.862367 3.157032 1.595152 -0.135386 0.061522
 47 11.389366 -0.000821 0.158781 1.730009 0.321270 -0.023185
 48 -0.000001 -4.440599 0.000002 1.570144 -3.078602 0.004040
 49 6.000000 -0.000002 -0.000001 1.730009 0.000000 -0.000000
 50 0.000001 -4.440602 -0.000001 1.569944 -3.078603 0.004053
 51 10.510132 -0.000000 0.000001 -0.000000 -0.000000 -2.603789
 52 -0.000000 -1.748400 -5.000000 -3.141593 0.004007 -1.539299
 53 5.500000 0.000000 0.000000 0.228299 -0.000000 -0.000000
 54 0.000001 -0.000001 -5.000000 -0.044472 3.137589 -0.000177
 55 6.551490 -0.000000 -0.000001 -0.228299 -0.257502 -0.028318
 56 -1.266843 -1.937442 -4.950560 -0.066572 -2.988806 -0.110308
 57 6.551490 -0.000000 -0.000001 -0.228299 -0.257502 -0.028318
 58 0.699370 -1.944207 -5.006847 -0.027189 -3.088217 0.005298
 59 4.226146 -0.003202 -0.000001 -0.126239 -0.152786 0.317456
 60 0.000000 5.000001 0.000001 -0.153564 0.000087 2.718702
 61 0.000004 -0.000005 -3.713579 0.095503 -3.012510 -0.750673
 62 0.000003 0.000001 4.999999 3.053197 1.558589 -0.074927
 63 -0.000007 0.000005 3.713580 -0.334410 -2.825096 -0.524885
 64 0.000001 -0.000000 -4.999999 -0.088726 1.558589 3.066334
 65 7.363603 1.646647 0.495663 -3.141593 -1.570796 0.000000
 66 -0.000006 0.000005 3.619081 -0.528284 -2.367383 -1.007256
 67 16.573921 -0.000001 0.000001 -0.000000 0.000000 -2.019199
 68 15.128181 0.000001 -0.000002 0.031619 0.086785 -0.033197
 69 5.758664 4.244731 -0.000000 0.000000 -0.000000 2.033309
 70 3.177726 0.000001 0.000000 0.000000 0.000000 3.141593
 71 15.708951 0.000002 -0.000003 0.016155 0.048356 -0.018185
 72 0.275149 0.189215 -3.445208 3.130898 0.000409 -1.514604
 73 17.210192 -0.000002 0.000002 0.000000 -0.000000 -2.322356
 74 0.000001 -0.000000 -5.000000 -0.079430 1.546568 -1.570856
 75 0.000006 -0.000005 -3.619080 0.196495 -3.011952 -1.279118
 76 16.573921 0.000000 0.000000 -0.000000 0.000000 -1.611348
 77 15.128181 -0.000002 0.000000 0.214418 -0.027533 0.774389
 78 5.758665 4.244730 -0.000000 -0.000000 -0.000000 1.483530
 79 4.003934 0.000000 0.000001 0.000000 0.000000 0.000000
 80 15.708953 -0.000001 0.000000 0.153371 0.002792 0.528179
 81 0.273998 0.191089 3.439762 -3.130907 -0.000437 -1.508107
 82 17.210192 0.000000 0.000000 0.000000 -0.000000 -2.138823
 83 0.000001 0.000001 5.000000 -0.079311 1.595025 -1.570737
end
