version 1
nodes
  0 "Bip01"  -1
  1 "Bip01 Footsteps"   0
  2 "Bip01 Pelvis"   0
  3 "Bip01 Spine"   2
  4 "Bip01 Spine1"   3
  5 "Bip01 Spine2"   4
  6 "Bip01 Spine3"   5
  7 "Bip01 Neck"   6
  8 "Bip01 Head"   7
  9 "Dummy21"   8
 10 "Bip01 L Clavicle"   7
 11 "Bip01 L UpperArm"  10
 12 "Bip01 L Forearm"  11
 13 "Bip01 L Hand"  12
 14 "Bip01 L Finger0"  13
 15 "Bip01 L Finger01"  14
 16 "Dummy06"  15
 17 "Bip01 L Finger1"  13
 18 "Bip01 L Finger11"  17
 19 "Dummy03"  18
 20 "-- L knuckle"  17
 21 "-- L knuckle_end"  20
 22 "-- L Forearm twist"  12
 23 "-- L Forearm twist_end"  22
 24 "-- L wrist"  12
 25 "-- L wrist_end"  24
 26 "-- L Elbow"  11
 27 "--L Elbow_end"  26
 28 "-- L bicep twist"  11
 29 "-- L bicep twist_end"  28
 30 "-- L shoulder outside"  10
 31 "-- L shoulder outside_end"  30
 32 "-- L Shoulder inside"  10
 33 "-- L Shoulder inside_end"  32
 34 "Bip01 R Clavicle"   7
 35 "Bip01 R UpperArm"  34
 36 "Bip01 R Forearm"  35
 37 "Bip01 R Hand"  36
 38 "Bip01 R Finger0"  37
 39 "Bip01 R Finger01"  38
 40 "Dummy01"  39
 41 "Bip01 R Finger1"  37
 42 "Bip01 R Finger11"  41
 43 "Dummy02"  42
 44 "-- R knuckle"  41
 45 "Point06"  44
 46 "Line01"  37
 47 "-- R wrist"  36
 48 "-- R wrist_end"  47
 49 "-- R forearm twist"  36
 50 "-- R forearm twist_end"  49
 51 "-- R Elbow"  35
 52 "--R Elbow_end"  51
 53 "-- R bicep twist"  35
 54 "-- R bicep twist_end"  53
 55 "-- R Shoulder inside"  34
 56 "-- R Shoulder inside_end"  55
 57 "-- R shoulder outside"  34
 58 "-- R shoulder outside_end"  57
 59 "-- Neck smooth"   6
 60 "-- neck smooth end"  59
 61 "-- R Butt"   2
 62 "--R Butt_end"  61
 63 "-- L butt"   2
 64 "--L butt_end"  63
 65 "GIGN01"   2
 66 "Bip01 L Thigh"   2
 67 "Bip01 L Calf"  66
 68 "Bip01 L Foot"  67
 69 "Bip01 L Toe0"  68
 70 "Dummy16"  69
 71 "-- L ankle"  67
 72 "-- L ankleend"  71
 73 "-- L Knee"  66
 74 "--L Knee_end"  73
 75 "Bip01 R Thigh"   2
 76 "Bip01 R Calf"  75
 77 "Bip01 R Foot"  76
 78 "Bip01 R Toe0"  77
 79 "Dummy11"  78
 80 "-- R Ankle"  76
 81 "-- R ankleend"  80
 82 "-- R Knee"  75
 83 "--R Knee_end"  82
end
skeleton
time 0
  0 1.130557 9.712686 27.009436 -0.281436 0.436358 -2.443536
  1 11.368429 6.770639 -23.418964 -0.498313 0.132926 2.346876
  2 -2.276934 0.000003 -1.238187 -1.570795 -1.570451 0.000000
  3 1.796072 0.712165 0.001069 -0.337569 -0.167138 -0.294397
  4 4.119169 -0.003144 0.000741 -0.228328 0.070041 0.162605
  5 4.119060 -0.003165 0.000731 -0.225564 0.080845 0.123873
  6 4.119278 -0.003124 0.000729 -0.224482 0.077896 0.196593
  7 4.119643 -0.003197 0.001106 -0.318625 -0.072114 0.338486
  8 4.443598 -0.000000 -0.000000 0.275987 0.486461 -0.777861
  9 9.024061 0.000000 0.000001 0.000000 0.000000 0.000000
 10 0.124844 -0.537850 1.641230 1.502862 -1.330448 1.378899
 11 6.384777 -0.000000 0.000001 -0.506801 0.157667 -1.288857
 12 10.242682 0.000002 -0.000001 0.000000 0.000000 -1.343778
 13 11.375561 -0.000001 0.000001 -2.233922 -0.122918 0.610464
 14 0.728682 0.023431 -1.008290 1.210021 0.600763 0.006086
 15 2.136495 0.000001 0.000001 -0.000000 -0.000000 -0.078540
 16 2.313139 -0.000000 0.000000 0.000000 0.000000 0.000000
 17 3.115507 -0.886040 -0.021431 -0.620285 0.000392 0.514872
 18 2.011149 0.000000 0.000001 0.000000 -0.000000 1.322792
 19 2.141380 -0.000000 0.000001 0.000000 0.000000 0.000000
 20 1.734169 0.000001 0.000001 -0.000000 -0.000000 0.660693
 21 0.000007 -4.440594 -0.000001 1.570544 -0.062990 -0.195737
 22 5.999998 -0.000001 0.000001 -2.073384 -0.000000 -0.000000
 23 0.000003 -4.440601 -0.000000 1.569944 -0.062987 0.004053
 24 11.375559 -0.000001 0.000003 -1.892760 -0.116592 0.308980
 25 -0.000000 -4.440603 -0.000001 1.570144 -0.062988 0.004040
 26 10.510128 0.000001 -0.000000 -0.000000 -0.000000 -2.242685
 27 0.000001 -1.748399 5.000000 0.000000 0.004007 1.602290
 28 5.499999 0.000002 -0.000001 0.170416 -0.000000 0.000000
 29 -0.000002 -1.940600 5.000001 -0.044472 0.004003 -0.000180
 30 6.551492 0.000000 0.000002 -0.338362 0.202777 -0.763631
 31 -0.000001 -1.940599 5.000003 -0.027189 -0.053376 0.005295
 32 6.551492 0.000000 0.000002 -0.136969 0.125469 -0.343782
 33 0.000001 -1.940599 4.999996 -0.066572 -0.152786 -0.110311
 34 -0.124840 0.544924 -1.641231 -0.201637 0.866779 2.660919
 35 6.384777 0.000001 0.000000 -0.710556 -0.389479 -0.076991
 36 10.242682 -0.000001 0.000001 -0.000000 0.000000 -1.927173
 37 11.375560 -0.000001 -0.000002 1.739120 0.873667 -0.725374
 38 0.728681 0.023431 1.008292 -1.579583 -0.319038 0.212973
 39 2.136496 0.000001 -0.000000 -0.000000 -0.000000 1.282817
 40 2.313139 0.000001 0.000000 0.000000 0.000000 3.141593
 41 3.115507 -0.886041 0.021432 0.420766 0.316066 0.167178
 42 2.011151 0.000001 -0.000002 0.000000 -0.000000 2.082010
 43 2.141379 0.000001 -0.000002 0.000000 0.000000 3.141593
 44 1.734173 -0.000001 -0.000002 0.000000 0.000000 1.041748
 45 0.136316 -3.738191 2.525889 1.493698 2.759406 -1.474501
 46 5.613161 0.862367 3.157032 1.595152 -0.135386 0.061522
 47 11.389366 -0.000819 0.158781 1.733664 0.422429 -0.335945
 48 0.000000 -4.440598 0.000001 1.570144 -3.078602 0.004040
 49 6.000000 0.000001 -0.000000 1.733664 -0.000000 0.000000
 50 0.000002 -4.440599 -0.000001 1.569944 -3.078603 0.004053
 51 10.510131 -0.000000 -0.000000 -0.000000 -0.000000 -2.534383
 52 0.000001 -1.748399 -4.999999 -3.141593 0.004007 -1.539299
 53 5.499999 0.000000 -0.000001 0.220677 -0.000000 0.000000
 54 -0.000000 -0.000000 -4.999997 -0.044472 3.137590 -0.000177
 55 6.551490 0.000000 -0.000000 -0.220677 -0.176597 -0.089335
 56 -1.266843 -1.937443 -4.950558 -0.066572 -2.988806 -0.110308
 57 6.551491 0.000000 -0.000000 -0.220677 -0.176597 -0.089335
 58 0.699371 -1.944208 -5.006845 -0.027189 -3.088217 0.005298
 59 4.226143 -0.003201 0.000001 -0.158002 -0.051370 0.184728
 60 0.000002 5.000000 0.000000 -0.153564 0.000087 2.718702
 61 0.000004 -0.000005 -3.713579 0.095503 -3.012510 -0.750673
 62 0.000003 0.000001 4.999999 3.053197 1.558589 -0.074927
 63 -0.000007 0.000005 3.713580 -0.334410 -2.825096 -0.524885
 64 0.000001 -0.000000 -4.999999 -0.088726 1.558589 3.066334
 65 7.363603 1.646647 0.495663 -3.141593 -1.570796 0.000000
 66 -0.000006 0.000005 3.619081 -0.528284 -2.367383 -1.007256
 67 16.573921 -0.000001 0.000001 -0.000000 0.000000 -2.019199
 68 15.128181 0.000001 -0.000002 0.031619 0.086785 -0.033197
 69 5.758664 4.244731 -0.000000 0.000000 -0.000000 2.033309
 70 3.177726 0.000001 0.000000 0.000000 0.000000 3.141593
 71 15.708951 0.000002 -0.000003 0.016155 0.048356 -0.018185
 72 0.275149 0.189215 -3.445208 3.130898 0.000409 -1.514604
 73 17.210192 -0.000002 0.000002 0.000000 -0.000000 -2.322356
 74 0.000001 -0.000000 -5.000000 -0.079430 1.546568 -1.570856
 75 0.000006 -0.000005 -3.619080 0.196495 -3.011952 -1.279118
 76 16.573921 0.000000 0.000000 -0.000000 0.000000 -1.611348
 77 15.128181 -0.000002 0.000000 0.214418 -0.027533 0.774389
 78 5.758665 4.244730 -0.000000 -0.000000 -0.000000 1.483530
 79 4.003934 0.000000 0.000001 0.000000 0.000000 0.000000
 80 15.708953 -0.000001 0.000000 0.153371 0.002792 0.528179
 81 0.273998 0.191089 3.439762 -3.130907 -0.000437 -1.508107
 82 17.210192 0.000000 0.000000 0.000000 -0.000000 -2.138823
 83 0.000001 0.000001 5.000000 -0.079311 1.595025 -1.570737
time 1
  0 1.130557 9.712686 27.009436 -0.281436 0.436358 -2.443536
  1 11.368429 6.770639 -23.418964 -0.498313 0.132926 2.346876
  2 -2.276934 0.000003 -1.238187 -1.570795 -1.570451 0.000000
  3 1.796096 0.712099 0.000897 -0.281516 -0.164046 -0.291092
  4 4.119173 -0.003143 0.000740 -0.228328 0.070041 0.162605
  5 4.119055 -0.003165 0.000733 -0.225564 0.080845 0.123873
  6 4.119284 -0.003125 0.000728 -0.224482 0.077896 0.196593
  7 4.119642 -0.003196 0.001107 -0.318625 -0.072114 0.338486
  8 4.443598 0.000000 0.000000 0.195782 0.497396 -0.832067
  9 9.024060 0.000000 -0.000000 0.000000 0.000000 0.000000
 10 0.124845 -0.537849 1.641228 1.502862 -1.330448 1.378899
 11 6.384777 -0.000000 -0.000002 -0.499208 0.114781 -1.387082
 12 10.242682 0.000001 0.000001 -0.000000 0.000000 -1.243814
 13 11.375558 -0.000001 0.000001 -2.204309 -0.095550 0.617366
 14 0.728681 0.023430 -1.008290 1.210021 0.600763 0.006086
 15 2.136501 -0.000001 -0.000001 -0.000000 -0.000000 -0.078540
 16 2.313138 -0.000000 0.000002 0.000000 0.000000 0.000000
 17 3.115507 -0.886041 -0.021431 -0.620285 0.000392 0.514872
 18 2.011150 0.000000 -0.000001 -0.000000 -0.000000 1.322792
 19 2.141379 0.000000 -0.000000 0.000000 0.000000 0.000000
 20 1.734170 0.000000 0.000000 0.000000 -0.000000 0.660693
 21 0.000006 -4.440594 0.000000 1.570544 -0.062990 -0.195737
 22 5.999997 -0.000001 0.000000 -2.052180 0.000000 -0.000000
 23 0.000002 -4.440601 0.000000 1.569944 -0.062987 0.004053
 24 11.375557 -0.000001 0.000003 -1.880384 -0.101268 0.315236
 25 -0.000002 -4.440603 0.000000 1.570144 -0.062988 0.004040
 26 10.510128 -0.000001 0.000001 -0.000000 0.000000 -2.192703
 27 -0.000000 -1.748400 4.999998 -0.000000 0.004007 1.602291
 28 5.499999 -0.000001 0.000002 0.183318 0.000000 -0.000000
 29 -0.000001 -1.940598 5.000000 -0.044472 0.004003 -0.000180
 30 6.551492 0.000000 -0.000002 -0.366822 0.186760 -0.849435
 31 -0.000002 -1.940600 5.000003 -0.027189 -0.053376 0.005295
 32 6.551492 0.000000 -0.000002 -0.146424 0.122437 -0.375607
 33 -0.000002 -1.940598 4.999997 -0.066572 -0.152786 -0.110311
 34 -0.124843 0.544927 -1.641229 -0.292629 0.918252 2.572453
 35 6.384777 0.000000 -0.000001 -0.715774 -0.483532 0.017473
 36 10.242682 0.000002 0.000000 -0.000000 0.000000 -1.959069
 37 11.375563 0.000000 0.000002 1.706601 0.872003 -0.774847
 38 0.728680 0.023432 1.008291 -1.579583 -0.319038 0.212973
 39 2.136494 0.000001 0.000001 -0.000000 0.000000 1.282817
 40 2.313139 -0.000001 -0.000001 0.000000 0.000000 3.141593
 41 3.115507 -0.886039 0.021433 0.420766 0.316066 0.167178
 42 2.011150 0.000000 -0.000003 0.000000 0.000000 2.082010
 43 2.141379 0.000000 0.000001 0.000000 0.000000 3.141593
 44 1.734172 -0.000000 -0.000000 -0.000000 -0.000000 1.041748
 45 0.136315 -3.738192 2.525889 1.493698 2.759406 -1.474501
 46 5.613160 0.862368 3.157032 1.595152 -0.135386 0.061522
 47 11.389367 -0.000819 0.158782 1.724918 0.423086 -0.352835
 48 -0.000000 -4.440598 -0.000001 1.570144 -3.078602 0.004040
 49 6.000000 0.000001 0.000000 1.724918 0.000000 -0.000000
 50 0.000003 -4.440599 0.000000 1.569944 -3.078603 0.004053
 51 10.510131 0.000004 0.000000 0.000000 0.000000 -2.550330
 52 -0.000000 -1.748401 -5.000000 3.141593 0.004007 -1.539299
 53 5.499999 0.000003 0.000000 0.226512 -0.000000 -0.000000
 54 0.000001 -0.000001 -5.000000 -0.044472 3.137590 -0.000177
 55 6.551491 0.000000 0.000003 -0.226512 -0.216587 -0.051720
 56 -1.266844 -1.937442 -4.950561 -0.066572 -2.988806 -0.110308
 57 6.551492 -0.000000 0.000003 -0.226512 -0.216587 -0.051720
 58 0.699370 -1.944206 -5.006848 -0.027189 -3.088217 0.005298
 59 4.226145 -0.003201 0.000001 -0.158002 -0.051370 0.184728
 60 0.000001 5.000000 0.000001 -0.153564 0.000087 2.718702
 61 0.000004 -0.000005 -3.713579 0.095503 -3.012510 -0.750673
 62 0.000003 0.000001 4.999999 3.053197 1.558589 -0.074927
 63 -0.000007 0.000005 3.713580 -0.334410 -2.825096 -0.524885
 64 0.000001 -0.000000 -4.999999 -0.088726 1.558589 3.066334
 65 7.363603 1.646647 0.495663 -3.141593 -1.570796 0.000000
 66 -0.000006 0.000005 3.619081 -0.528284 -2.367383 -1.007256
 67 16.573921 -0.000001 0.000001 -0.000000 0.000000 -2.019199
 68 15.128181 0.000001 -0.000002 0.031619 0.086785 -0.033197
 69 5.758664 4.244731 -0.000000 0.000000 -0.000000 2.033309
 70 3.177726 0.000001 0.000000 0.000000 0.000000 3.141593
 71 15.708951 0.000002 -0.000003 0.016155 0.048356 -0.018185
 72 0.275149 0.189215 -3.445208 3.130898 0.000409 -1.514604
 73 17.210192 -0.000002 0.000002 0.000000 -0.000000 -2.322356
 74 0.000001 -0.000000 -5.000000 -0.079430 1.546568 -1.570856
 75 0.000006 -0.000005 -3.619080 0.196495 -3.011952 -1.279118
 76 16.573921 0.000000 0.000000 -0.000000 0.000000 -1.611348
 77 15.128181 -0.000002 0.000000 0.214418 -0.027533 0.774389
 78 5.758665 4.244730 -0.000000 -0.000000 -0.000000 1.483530
 79 4.003934 0.000000 0.000001 0.000000 0.000000 0.000000
 80 15.708953 -0.000001 0.000000 0.153371 0.002792 0.528179
 81 0.273998 0.191089 3.439762 -3.130907 -0.000437 -1.508107
 82 17.210192 0.000000 0.000000 0.000000 -0.000000 -2.138823
 83 0.000001 0.000001 5.000000 -0.079311 1.595025 -1.570737
time 2
  0 1.130557 9.712686 27.009436 -0.281436 0.436358 -2.443536
  1 11.368429 6.770639 -23.418964 -0.498313 0.132926 2.346876
  2 -2.276934 0.000003 -1.238187 -1.570795 -1.570451 0.000000
  3 1.796123 0.712042 0.000722 -0.225480 -0.161141 -0.287618
  4 4.119173 -0.003144 0.000740 -0.228328 0.070041 0.162605
  5 4.119055 -0.003165 0.000733 -0.225564 0.080845 0.123873
  6 4.119287 -0.003125 0.000727 -0.224482 0.077896 0.196593
  7 4.119641 -0.003197 0.001107 -0.318625 -0.072114 0.338486
  8 4.443599 -0.000000 0.000000 0.114575 0.502643 -0.887659
  9 9.024062 -0.000001 -0.000000 0.000000 0.000000 0.000000
 10 0.124845 -0.537849 1.641230 1.502862 -1.330448 1.378899
 11 6.384775 -0.000000 0.000001 -0.489931 0.074234 -1.489754
 12 10.242681 0.000000 -0.000000 0.000000 -0.000000 -1.132105
 13 11.375560 -0.000003 0.000002 -2.171846 -0.070029 0.615250
 14 0.728679 0.023430 -1.008292 1.210021 0.600763 0.006086
 15 2.136496 -0.000000 0.000000 -0.000000 -0.000000 -0.078540
 16 2.313139 -0.000001 -0.000000 0.000000 0.000000 0.000000
 17 3.115504 -0.886041 -0.021432 -0.620285 0.000392 0.514872
 18 2.011149 -0.000000 -0.000002 -0.000000 -0.000000 1.322792
 19 2.141378 -0.000001 0.000000 0.000000 0.000000 0.000000
 20 1.734171 0.000001 -0.000001 0.000000 -0.000000 0.660693
 21 0.000006 -4.440592 0.000001 1.570544 -0.062990 -0.195737
 22 5.999998 -0.000001 0.000000 -2.028560 -0.000000 0.000000
 23 0.000004 -4.440601 -0.000001 1.569944 -0.062987 0.004053
 24 11.375560 -0.000002 0.000005 -1.866460 -0.085937 0.316799
 25 0.000001 -4.440603 -0.000000 1.570144 -0.062988 0.004040
 26 10.510130 -0.000002 0.000000 -0.000000 -0.000000 -2.136849
 27 -0.000002 -1.748401 4.999998 0.000000 0.004007 1.602290
 28 5.500000 -0.000002 0.000001 0.198021 -0.000000 0.000000
 29 -0.000002 -1.940600 5.000001 -0.044472 0.004003 -0.000180
 30 6.551492 0.000000 -0.000002 -0.402881 0.163831 -0.980537
 31 -0.000000 -1.940600 5.000001 -0.027189 -0.053376 0.005295
 32 6.551492 0.000000 -0.000002 -0.156273 0.118602 -0.419340
 33 -0.000001 -1.940599 4.999997 -0.066572 -0.152786 -0.110311
 34 -0.124840 0.544925 -1.641230 -0.396452 0.963650 2.468053
 35 6.384776 0.000001 0.000002 -0.739764 -0.575352 0.124614
 36 10.242684 0.000001 0.000003 -0.000000 0.000000 -1.990018
 37 11.375560 -0.000003 -0.000002 1.676845 0.866250 -0.831056
 38 0.728681 0.023431 1.008292 -1.579583 -0.319038 0.212973
 39 2.136497 -0.000000 0.000001 0.000000 0.000000 1.282817
 40 2.313139 0.000002 0.000000 0.000000 0.000000 3.141593
 41 3.115507 -0.886041 0.021430 0.420766 0.316066 0.167178
 42 2.011151 -0.000001 -0.000004 0.000000 0.000000 2.082010
 43 2.141380 -0.000000 0.000001 0.000000 0.000000 3.141593
 44 1.734172 0.000000 -0.000003 0.000000 0.000000 1.041748
 45 0.136317 -3.738192 2.525891 1.493698 2.759406 -1.474501
 46 5.613161 0.862367 3.157031 1.595152 -0.135386 0.061522
 47 11.389366 -0.000820 0.158780 1.717513 0.421809 -0.373173
 48 -0.000000 -4.440600 0.000001 1.570144 -3.078602 0.004040
 49 5.999999 -0.000000 -0.000002 1.717513 0.000000 -0.000000
 50 0.000003 -4.440599 -0.000001 1.569944 -3.078603 0.004053
 51 10.510132 0.000003 0.000001 0.000000 0.000000 -2.565805
 52 -0.000000 -1.748398 -5.000000 3.141593 0.004007 -1.539299
 53 5.499999 0.000003 0.000001 0.234386 0.000000 0.000000
 54 -0.000000 -0.000001 -4.999998 -0.044472 3.137589 -0.000177
 55 6.551490 -0.000000 0.000004 -0.234386 -0.243985 -0.018666
 56 -1.266844 -1.937443 -4.950557 -0.066572 -2.988806 -0.110308
 57 6.551490 0.000000 0.000004 -0.234386 -0.243985 -0.018666
 58 0.699370 -1.944208 -5.006844 -0.027189 -3.088217 0.005298
 59 4.226144 -0.003201 0.000001 -0.158002 -0.051370 0.184728
 60 -0.000002 5.000001 -0.000000 -0.153564 0.000087 2.718702
 61 0.000004 -0.000005 -3.713579 0.095503 -3.012510 -0.750673
 62 0.000003 0.000001 4.999999 3.053197 1.558589 -0.074927
 63 -0.000007 0.000005 3.713580 -0.334410 -2.825096 -0.524885
 64 0.000001 -0.000000 -4.999999 -0.088726 1.558589 3.066334
 65 7.363603 1.646647 0.495663 -3.141593 -1.570796 0.000000
 66 -0.000006 0.000005 3.619081 -0.528284 -2.367383 -1.007256
 67 16.573921 -0.000001 0.000001 -0.000000 0.000000 -2.019199
 68 15.128181 0.000001 -0.000002 0.031619 0.086785 -0.033197
 69 5.758664 4.244731 -0.000000 0.000000 -0.000000 2.033309
 70 3.177726 0.000001 0.000000 0.000000 0.000000 3.141593
 71 15.708951 0.000002 -0.000003 0.016155 0.048356 -0.018185
 72 0.275149 0.189215 -3.445208 3.130898 0.000409 -1.514604
 73 17.210192 -0.000002 0.000002 0.000000 -0.000000 -2.322356
 74 0.000001 -0.000000 -5.000000 -0.079430 1.546568 -1.570856
 75 0.000006 -0.000005 -3.619080 0.196495 -3.011952 -1.279118
 76 16.573921 0.000000 0.000000 -0.000000 0.000000 -1.611348
 77 15.128181 -0.000002 0.000000 0.214418 -0.027533 0.774389
 78 5.758665 4.244730 -0.000000 -0.000000 -0.000000 1.483530
 79 4.003934 0.000000 0.000001 0.000000 0.000000 0.000000
 80 15.708953 -0.000001 0.000000 0.153371 0.002792 0.528179
 81 0.273998 0.191089 3.439762 -3.130907 -0.000437 -1.508107
 82 17.210192 0.000000 0.000000 0.000000 -0.000000 -2.138823
 83 0.000001 0.000001 5.000000 -0.079311 1.595025 -1.570737
time 3
  0 1.130557 9.712686 27.009436 -0.281436 0.436358 -2.443536
  1 11.368429 6.770639 -23.418964 -0.498313 0.132926 2.346876
  2 -2.276934 0.000003 -1.238187 -1.570795 -1.570451 0.000000
  3 1.796142 0.712012 0.000613 -0.191143 -0.159457 -0.285410
  4 4.119172 -0.003144 0.000739 -0.228328 0.070041 0.162605
  5 4.119051 -0.003164 0.000732 -0.225564 0.080845 0.123873
  6 4.119286 -0.003125 0.000728 -0.224482 0.077896 0.196593
  7 4.119642 -0.003196 0.001105 -0.318625 -0.072114 0.338486
  8 4.443598 -0.000000 0.000001 0.064625 0.502996 -0.922048
  9 9.024060 -0.000000 -0.000000 0.000000 0.000000 0.000000
 10 0.124843 -0.537849 1.641231 1.502861 -1.330448 1.378899
 11 6.384775 -0.000000 0.000002 -0.483906 0.049509 -1.555234
 12 10.242680 0.000001 0.000000 -0.000000 -0.000000 -1.057510
 13 11.375558 -0.000001 0.000001 -2.149648 -0.055495 0.609154
 14 0.728681 0.023432 -1.008293 1.210021 0.600763 0.006086
 15 2.136495 -0.000001 -0.000000 -0.000000 -0.000000 -0.078540
 16 2.313138 -0.000001 -0.000000 0.000000 0.000000 0.000000
 17 3.115506 -0.886041 -0.021432 -0.620285 0.000392 0.514872
 18 2.011152 -0.000001 0.000002 0.000000 -0.000000 1.322792
 19 2.141380 0.000001 0.000001 0.000000 0.000000 0.000000
 20 1.734173 0.000002 -0.000001 -0.000000 0.000000 0.660693
 21 0.000006 -4.440594 -0.000002 1.570544 -0.062990 -0.195737
 22 5.999999 -0.000002 0.000002 -2.012133 0.000000 0.000000
 23 0.000000 -4.440600 -0.000000 1.569944 -0.062987 0.004053
 24 11.375557 -0.000001 0.000003 -1.856647 -0.076540 0.315294
 25 -0.000000 -4.440603 -0.000002 1.570144 -0.062988 0.004040
 26 10.510129 0.000002 0.000000 -0.000000 0.000000 -2.099551
 27 -0.000001 -1.748400 4.999998 0.000000 0.004007 1.602291
 28 5.499999 0.000000 0.000001 0.205849 -0.000000 -0.000000
 29 -0.000002 -1.940598 5.000000 -0.044472 0.004003 -0.000180
 30 6.551489 -0.000000 0.000002 -0.425298 0.142313 -1.089890
 31 0.000002 -1.940598 5.000000 -0.027189 -0.053376 0.005295
 32 6.551489 -0.000000 0.000002 -0.160528 0.114083 -0.450936
 33 0.000002 -1.940599 4.999996 -0.066572 -0.152786 -0.110311
 34 -0.124842 0.544925 -1.641229 -0.466810 0.987837 2.395835
 35 6.384776 0.000000 0.000002 -0.763178 -0.629972 0.196391
 36 10.242682 -0.000003 0.000000 -0.000000 -0.000000 -2.007749
 37 11.375561 -0.000003 0.000001 1.661127 0.860426 -0.867993
 38 0.728681 0.023431 1.008291 -1.579583 -0.319038 0.212973
 39 2.136497 0.000000 -0.000002 -0.000000 0.000000 1.282817
 40 2.313139 0.000001 0.000001 0.000000 0.000000 3.141593
 41 3.115507 -0.886040 0.021433 0.420766 0.316066 0.167178
 42 2.011150 -0.000000 -0.000000 0.000000 0.000000 2.082010
 43 2.141380 -0.000001 0.000000 0.000000 0.000000 3.141593
 44 1.734173 0.000000 0.000000 -0.000000 -0.000000 1.041748
 45 0.136316 -3.738191 2.525891 1.493698 2.759406 -1.474501
 46 5.613160 0.862368 3.157030 1.595152 -0.135386 0.061522
 47 11.389366 -0.000820 0.158782 1.713944 0.419857 -0.387233
 48 -0.000000 -4.440598 0.000000 1.570144 -3.078602 0.004040
 49 6.000000 0.000001 0.000001 1.713943 -0.000000 0.000000
 50 0.000001 -4.440599 -0.000001 1.569944 -3.078603 0.004053
 51 10.510130 -0.000002 0.000001 0.000000 0.000000 -2.574671
 52 0.000001 -1.748401 -5.000000 -3.141593 0.004007 -1.539299
 53 5.499999 -0.000002 -0.000000 0.238589 0.000000 0.000000
 54 -0.000000 0.000002 -4.999999 -0.044472 3.137589 -0.000177
 55 6.551490 0.000001 0.000001 -0.238589 -0.256866 -0.001491
 56 -1.266844 -1.937443 -4.950562 -0.066572 -2.988806 -0.110308
 57 6.551491 0.000001 0.000001 -0.238589 -0.256866 -0.001491
 58 0.699370 -1.944208 -5.006847 -0.027189 -3.088217 0.005298
 59 4.226145 -0.003201 0.000000 -0.158002 -0.051370 0.184728
 60 0.000002 5.000000 0.000001 -0.153564 0.000087 2.718702
 61 0.000004 -0.000005 -3.713579 0.095503 -3.012510 -0.750673
 62 0.000003 0.000001 4.999999 3.053197 1.558589 -0.074927
 63 -0.000007 0.000005 3.713580 -0.334410 -2.825096 -0.524885
 64 0.000001 -0.000000 -4.999999 -0.088726 1.558589 3.066334
 65 7.363603 1.646647 0.495663 -3.141593 -1.570796 0.000000
 66 -0.000006 0.000005 3.619081 -0.528284 -2.367383 -1.007256
 67 16.573921 -0.000001 0.000001 -0.000000 0.000000 -2.019199
 68 15.128181 0.000001 -0.000002 0.031619 0.086785 -0.033197
 69 5.758664 4.244731 -0.000000 0.000000 -0.000000 2.033309
 70 3.177726 0.000001 0.000000 0.000000 0.000000 3.141593
 71 15.708951 0.000002 -0.000003 0.016155 0.048356 -0.018185
 72 0.275149 0.189215 -3.445208 3.130898 0.000409 -1.514604
 73 17.210192 -0.000002 0.000002 0.000000 -0.000000 -2.322356
 74 0.000001 -0.000000 -5.000000 -0.079430 1.546568 -1.570856
 75 0.000006 -0.000005 -3.619080 0.196495 -3.011952 -1.279118
 76 16.573921 0.000000 0.000000 -0.000000 0.000000 -1.611348
 77 15.128181 -0.000002 0.000000 0.214418 -0.027533 0.774389
 78 5.758665 4.244730 -0.000000 -0.000000 -0.000000 1.483530
 79 4.003934 0.000000 0.000001 0.000000 0.000000 0.000000
 80 15.708953 -0.000001 0.000000 0.153371 0.002792 0.528179
 81 0.273998 0.191089 3.439762 -3.130907 -0.000437 -1.508107
 82 17.210192 0.000000 0.000000 0.000000 -0.000000 -2.138823
 83 0.000001 0.000001 5.000000 -0.079311 1.595025 -1.570737
time 4
  0 1.130557 9.712686 27.009436 -0.281436 0.436358 -2.443536
  1 11.368429 6.770639 -23.418964 -0.498313 0.132926 2.346876
  2 -2.276934 0.000003 -1.238187 -1.570795 -1.570451 0.000000
  3 1.796148 0.712004 0.000578 -0.179850 -0.158920 -0.284672
  4 4.119173 -0.003144 0.000739 -0.228328 0.070041 0.162605
  5 4.119053 -0.003164 0.000732 -0.225564 0.080845 0.123873
  6 4.119285 -0.003125 0.000726 -0.224482 0.077896 0.196593
  7 4.119645 -0.003197 0.001106 -0.318625 -0.072114 0.338486
  8 4.443597 0.000001 0.000001 0.048203 0.502634 -0.933369
  9 9.024059 0.000001 -0.000001 0.000000 0.000000 0.000000
 10 0.124842 -0.537848 1.641232 1.502862 -1.330448 1.378899
 11 6.384776 -0.000000 0.000001 -0.485385 0.041408 -1.577955
 12 10.242681 -0.000001 0.000002 -0.000000 -0.000000 -1.032658
 13 11.375555 -0.000000 0.000001 -2.136746 -0.051384 0.605843
 14 0.728680 0.023431 -1.008292 1.210021 0.600763 0.006086
 15 2.136495 -0.000001 -0.000001 -0.000000 -0.000000 -0.078540
 16 2.313139 -0.000001 0.000001 0.000000 0.000000 0.000000
 17 3.115506 -0.886041 -0.021429 -0.620285 0.000392 0.514872
 18 2.011151 -0.000001 0.000003 0.000000 -0.000000 1.322792
 19 2.141381 -0.000000 -0.000001 0.000000 0.000000 0.000000
 20 1.734174 0.000001 0.000001 0.000000 0.000000 0.660693
 21 0.000004 -4.440594 0.000002 1.570544 -0.062990 -0.195737
 22 6.000000 -0.000001 0.000000 -2.002345 0.000000 0.000000
 23 0.000002 -4.440600 0.000001 1.569944 -0.062987 0.004053
 24 11.375559 -0.000001 0.000003 -1.850571 -0.073260 0.314135
 25 0.000002 -4.440604 -0.000001 1.570144 -0.062988 0.004040
 26 10.510129 0.000000 0.000001 -0.000000 -0.000000 -2.087126
 27 0.000001 -1.748400 5.000000 0.000000 0.004007 1.602291
 28 5.499999 0.000001 0.000000 0.208642 -0.000000 -0.000000
 29 -0.000001 -1.940596 5.000000 -0.044472 0.004003 -0.000180
 30 6.551490 0.000001 0.000002 -0.433724 0.134099 -1.131018
 31 0.000001 -1.940599 5.000002 -0.027189 -0.053376 0.005295
 32 6.551490 0.000001 0.000002 -0.161900 0.112443 -0.461386
 33 -0.000000 -1.940599 4.999996 -0.066572 -0.152786 -0.110311
 34 -0.124844 0.544927 -1.641229 -0.491071 0.995112 2.370713
 35 6.384776 -0.000000 0.000001 -0.768410 -0.649207 0.217343
 36 10.242681 0.000002 0.000000 -0.000000 -0.000000 -2.011935
 37 11.375562 0.000002 0.000002 1.656493 0.857447 -0.880404
 38 0.728681 0.023431 1.008292 -1.579583 -0.319038 0.212973
 39 2.136495 0.000000 0.000001 0.000000 -0.000000 1.282817
 40 2.313138 -0.000002 0.000001 0.000000 0.000000 3.141593
 41 3.115506 -0.886040 0.021431 0.420765 0.316066 0.167178
 42 2.011150 0.000001 0.000001 0.000000 0.000000 2.082010
 43 2.141379 0.000000 0.000001 0.000000 0.000000 3.141593
 44 1.734172 -0.000001 -0.000001 -0.000000 0.000000 1.041748
 45 0.136315 -3.738192 2.525887 1.493698 2.759406 -1.474501
 46 5.613160 0.862367 3.157032 1.595152 -0.135386 0.061522
 47 11.389365 -0.000819 0.158782 1.712856 0.418676 -0.392155
 48 -0.000000 -4.440600 0.000001 1.570144 -3.078602 0.004040
 49 5.999999 -0.000001 -0.000000 1.712856 -0.000000 -0.000000
 50 0.000002 -4.440600 0.000002 1.569944 -3.078603 0.004053
 51 10.510132 0.000001 0.000002 -0.000000 0.000000 -2.576764
 52 -0.000000 -1.748401 -5.000001 -3.141593 0.004007 -1.539299
 53 5.500000 0.000000 0.000001 0.238744 -0.000000 -0.000000
 54 -0.000001 0.000001 -4.999999 -0.044472 3.137590 -0.000177
 55 6.551490 0.000000 0.000000 -0.238744 -0.260947 0.002314
 56 -1.266843 -1.937444 -4.950558 -0.066572 -2.988806 -0.110308
 57 6.551491 -0.000000 0.000000 -0.238744 -0.260947 0.002314
 58 0.699371 -1.944208 -5.006846 -0.027189 -3.088217 0.005298
 59 4.226145 -0.003201 0.000001 -0.158002 -0.051370 0.184728
 60 -0.000000 5.000001 0.000000 -0.153564 0.000087 2.718702
 61 0.000004 -0.000005 -3.713579 0.095503 -3.012510 -0.750673
 62 0.000003 0.000001 4.999999 3.053197 1.558589 -0.074927
 63 -0.000007 0.000005 3.713580 -0.334410 -2.825096 -0.524885
 64 0.000001 -0.000000 -4.999999 -0.088726 1.558589 3.066334
 65 7.363603 1.646647 0.495663 -3.141593 -1.570796 0.000000
 66 -0.000006 0.000005 3.619081 -0.528284 -2.367383 -1.007256
 67 16.573921 -0.000001 0.000001 -0.000000 0.000000 -2.019199
 68 15.128181 0.000001 -0.000002 0.031619 0.086785 -0.033197
 69 5.758664 4.244731 -0.000000 0.000000 -0.000000 2.033309
 70 3.177726 0.000001 0.000000 0.000000 0.000000 3.141593
 71 15.708951 0.000002 -0.000003 0.016155 0.048356 -0.018185
 72 0.275149 0.189215 -3.445208 3.130898 0.000409 -1.514604
 73 17.210192 -0.000002 0.000002 0.000000 -0.000000 -2.322356
 74 0.000001 -0.000000 -5.000000 -0.079430 1.546568 -1.570856
 75 0.000006 -0.000005 -3.619080 0.196495 -3.011952 -1.279118
 76 16.573921 0.000000 0.000000 -0.000000 0.000000 -1.611348
 77 15.128181 -0.000002 0.000000 0.214418 -0.027533 0.774389
 78 5.758665 4.244730 -0.000000 -0.000000 -0.000000 1.483530
 79 4.003934 0.000000 0.000001 0.000000 0.000000 0.000000
 80 15.708953 -0.000001 0.000000 0.153371 0.002792 0.528179
 81 0.273998 0.191089 3.439762 -3.130907 -0.000437 -1.508107
 82 17.210192 0.000000 0.000000 0.000000 -0.000000 -2.138823
 83 0.000001 0.000001 5.000000 -0.079311 1.595025 -1.570737
time 5
  0 1.130557 9.712686 27.009436 -0.281436 0.436358 -2.443536
  1 11.368429 6.770639 -23.418964 -0.498313 0.132926 2.346876
  2 -2.276934 0.000003 -1.238187 -1.570795 -1.570451 0.000000
  3 1.796150 0.712001 0.000567 -0.176687 -0.158771 -0.284464
  4 4.119169 -0.003144 0.000741 -0.228328 0.070041 0.162605
  5 4.119059 -0.003165 0.000730 -0.225564 0.080845 0.123873
  6 4.119279 -0.003124 0.000731 -0.224482 0.077896 0.196593
  7 4.119646 -0.003197 0.001105 -0.318625 -0.072114 0.338486
  8 4.443599 0.000001 0.000001 0.043608 0.502491 -0.936538
  9 9.024059 -0.000001 -0.000000 0.000000 0.000000 0.000000
 10 0.124844 -0.537849 1.641231 1.502862 -1.330448 1.378899
 11 6.384776 -0.000001 0.000000 -0.488752 0.038293 -1.585009
 12 10.242681 -0.000000 0.000001 -0.000000 -0.000000 -1.026321
 13 11.375559 -0.000001 0.000003 -2.128102 -0.050564 0.604141
 14 0.728681 0.023431 -1.008290 1.210021 0.600763 0.006086
 15 2.136498 -0.000001 0.000001 0.000000 -0.000000 -0.078540
 16 2.313139 -0.000000 0.000000 0.000000 0.000000 0.000000
 17 3.115508 -0.886041 -0.021432 -0.620285 0.000392 0.514872
 18 2.011152 0.000001 -0.000000 0.000000 -0.000000 1.322792
 19 2.141380 -0.000000 0.000000 0.000000 0.000000 0.000000
 20 1.734172 0.000002 0.000001 -0.000000 0.000000 0.660693
 21 0.000005 -4.440594 0.000001 1.570544 -0.062990 -0.195737
 22 6.000001 -0.000002 0.000003 -1.995696 0.000000 0.000000
 23 0.000003 -4.440600 -0.000001 1.569944 -0.062987 0.004053
 24 11.375562 -0.000002 0.000007 -1.846342 -0.072072 0.313439
 25 -0.000000 -4.440604 -0.000001 1.570144 -0.062988 0.004040
 26 10.510129 0.000001 0.000000 -0.000000 -0.000000 -2.083957
 27 -0.000002 -1.748400 5.000000 0.000000 0.004007 1.602291
 28 5.499999 0.000000 0.000001 0.210282 0.000000 -0.000000
 29 -0.000001 -1.940600 5.000001 -0.044472 0.004003 -0.000180
 30 6.551490 -0.000000 0.000001 -0.437868 0.131217 -1.144053
 31 0.000001 -1.940599 5.000000 -0.027189 -0.053376 0.005295
 32 6.551490 -0.000000 0.000001 -0.162917 0.112009 -0.464433
 33 0.000000 -1.940600 4.999996 -0.066572 -0.152786 -0.110311
 34 -0.124840 0.544925 -1.641230 -0.497962 0.997085 2.363559
 35 6.384775 0.000000 0.000002 -0.764633 -0.656809 0.218186
 36 10.242682 0.000000 0.000001 -0.000000 -0.000000 -2.011159
 37 11.375559 -0.000003 -0.000001 1.655234 0.855794 -0.883856
 38 0.728682 0.023431 1.008292 -1.579583 -0.319038 0.212973
 39 2.136498 -0.000001 0.000000 -0.000000 0.000000 1.282817
 40 2.313139 0.000002 0.000000 0.000000 0.000000 3.141593
 41 3.115507 -0.886040 0.021431 0.420765 0.316066 0.167178
 42 2.011151 0.000001 -0.000001 0.000000 -0.000000 2.082010
 43 2.141379 -0.000000 -0.000001 0.000000 0.000000 3.141593
 44 1.734173 -0.000000 -0.000002 0.000000 0.000000 1.041748
 45 0.136316 -3.738192 2.525889 1.493698 2.759406 -1.474501
 46 5.613162 0.862367 3.157033 1.595152 -0.135386 0.061522
 47 11.389367 -0.000820 0.158781 1.712441 0.417945 -0.393616
 48 -0.000000 -4.440598 0.000000 1.570144 -3.078602 0.004040
 49 5.999999 -0.000002 -0.000002 1.712441 0.000000 0.000000
 50 0.000001 -4.440601 0.000002 1.569944 -3.078603 0.004053
 51 10.510131 0.000003 -0.000000 -0.000000 0.000000 -2.576376
 52 0.000000 -1.748401 -5.000001 3.141593 0.004007 -1.539299
 53 5.500000 0.000001 0.000000 0.237328 0.000000 0.000000
 54 -0.000001 0.000001 -5.000000 -0.044472 3.137589 -0.000177
 55 6.551490 0.000001 -0.000001 -0.237328 -0.262415 0.001494
 56 -1.266844 -1.937442 -4.950558 -0.066572 -2.988806 -0.110308
 57 6.551491 0.000001 -0.000001 -0.237328 -0.262415 0.001494
 58 0.699370 -1.944209 -5.006844 -0.027189 -3.088217 0.005298
 59 4.226147 -0.003201 0.000001 -0.158002 -0.051370 0.184728
 60 -0.000000 5.000000 0.000000 -0.153564 0.000087 2.718702
 61 0.000004 -0.000005 -3.713579 0.095503 -3.012510 -0.750673
 62 0.000003 0.000001 4.999999 3.053197 1.558589 -0.074927
 63 -0.000007 0.000005 3.713580 -0.334410 -2.825096 -0.524885
 64 0.000001 -0.000000 -4.999999 -0.088726 1.558589 3.066334
 65 7.363603 1.646647 0.495663 -3.141593 -1.570796 0.000000
 66 -0.000006 0.000005 3.619081 -0.528284 -2.367383 -1.007256
 67 16.573921 -0.000001 0.000001 -0.000000 0.000000 -2.019199
 68 15.128181 0.000001 -0.000002 0.031619 0.086785 -0.033197
 69 5.758664 4.244731 -0.000000 0.000000 -0.000000 2.033309
 70 3.177726 0.000001 0.000000 0.000000 0.000000 3.141593
 71 15.708951 0.000002 -0.000003 0.016155 0.048356 -0.018185
 72 0.275149 0.189215 -3.445208 3.130898 0.000409 -1.514604
 73 17.210192 -0.000002 0.000002 0.000000 -0.000000 -2.322356
 74 0.000001 -0.000000 -5.000000 -0.079430 1.546568 -1.570856
 75 0.000006 -0.000005 -3.619080 0.196495 -3.011952 -1.279118
 76 16.573921 0.000000 0.000000 -0.000000 0.000000 -1.611348
 77 15.128181 -0.000002 0.000000 0.214418 -0.027533 0.774389
 78 5.758665 4.244730 -0.000000 -0.000000 -0.000000 1.483530
 79 4.003934 0.000000 0.000001 0.000000 0.000000 0.000000
 80 15.708953 -0.000001 0.000000 0.153371 0.002792 0.528179
 81 0.273998 0.191089 3.439762 -3.130907 -0.000437 -1.508107
 82 17.210192 0.000000 0.000000 0.000000 -0.000000 -2.138823
 83 0.000001 0.000001 5.000000 -0.079311 1.595025 -1.570737
time 6
  0 1.130557 9.712686 27.009436 -0.281436 0.436358 -2.443536
  1 11.368429 6.770639 -23.418964 -0.498313 0.132926 2.346876
  2 -2.276934 0.000003 -1.238187 -1.570795 -1.570451 0.000000
  3 1.796148 0.712003 0.000574 -0.178946 -0.158877 -0.284612
  4 4.119170 -0.003144 0.000742 -0.228328 0.070041 0.162605
  5 4.119055 -0.003164 0.000730 -0.225564 0.080845 0.123873
  6 4.119284 -0.003125 0.000728 -0.224482 0.077896 0.196593
  7 4.119645 -0.003197 0.001105 -0.318625 -0.072114 0.338486
  8 4.443598 0.000001 -0.000000 0.046890 0.502595 -0.934275
  9 9.024063 0.000001 -0.000001 0.000000 0.000000 0.000000
 10 0.124844 -0.537848 1.641230 1.502862 -1.330448 1.378899
 11 6.384775 -0.000000 0.000001 -0.493339 0.038809 -1.581223
 12 10.242681 -0.000001 0.000003 -0.000000 -0.000000 -1.033080
 13 11.375559 -0.000000 0.000002 -2.122644 -0.051926 0.604016
 14 0.728681 0.023431 -1.008294 1.210021 0.600763 0.006085
 15 2.136498 0.000000 0.000000 -0.000000 -0.000000 -0.078540
 16 2.313139 -0.000001 0.000000 0.000000 0.000000 0.000000
 17 3.115505 -0.886042 -0.021430 -0.620285 0.000392 0.514872
 18 2.011149 -0.000000 0.000001 0.000000 -0.000000 1.322792
 19 2.141380 -0.000000 0.000001 0.000000 0.000000 0.000000
 20 1.734171 0.000001 0.000000 0.000000 -0.000000 0.660693
 21 0.000004 -4.440593 0.000001 1.570544 -0.062990 -0.195737
 22 5.999999 -0.000001 0.000002 -1.991420 -0.000000 -0.000000
 23 0.000002 -4.440602 -0.000002 1.569944 -0.062987 0.004053
 24 11.375560 -0.000002 0.000006 -1.843524 -0.072333 0.313294
 25 0.000002 -4.440604 0.000000 1.570144 -0.062988 0.004040
 26 10.510129 0.000001 0.000001 0.000000 0.000000 -2.087336
 27 0.000000 -1.748399 5.000000 -0.000000 0.004007 1.602291
 28 5.500000 -0.000001 0.000001 0.211285 0.000000 -0.000000
 29 -0.000001 -1.940596 5.000000 -0.044472 0.004003 -0.000180
 30 6.551490 0.000000 0.000001 -0.439374 0.132502 -1.137377
 31 0.000000 -1.940600 5.000002 -0.027189 -0.053376 0.005295
 32 6.551492 0.000000 -0.000002 -0.163841 0.112615 -0.462635
 33 -0.000000 -1.940600 4.999997 -0.066572 -0.152786 -0.110311
 34 -0.124842 0.544927 -1.641230 -0.493036 0.995678 2.368674
 35 6.384776 0.000001 -0.000003 -0.755150 -0.656501 0.205874
 36 10.242684 0.000000 0.000001 -0.000000 0.000000 -2.007216
 37 11.375562 0.000000 0.000000 1.656013 0.854942 -0.881445
 38 0.728682 0.023431 1.008293 -1.579583 -0.319038 0.212973
 39 2.136498 -0.000000 0.000000 -0.000000 0.000000 1.282817
 40 2.313139 -0.000002 0.000000 0.000000 0.000000 3.141593
 41 3.115507 -0.886040 0.021431 0.420765 0.316066 0.167178
 42 2.011150 0.000000 -0.000002 -0.000000 0.000000 2.082010
 43 2.141379 0.000000 0.000002 0.000000 0.000000 3.141593
 44 1.734172 -0.000001 -0.000001 -0.000000 0.000000 1.041748
 45 0.136315 -3.738193 2.525890 1.493698 2.759406 -1.474501
 46 5.613161 0.862367 3.157032 1.595152 -0.135386 0.061522
 47 11.389366 -0.000819 0.158780 1.712387 0.417485 -0.392793
 48 0.000000 -4.440598 0.000000 1.570144 -3.078602 0.004040
 49 6.000000 0.000002 -0.000001 1.712387 -0.000000 0.000000
 50 0.000001 -4.440599 0.000000 1.569944 -3.078603 0.004053
 51 10.510132 0.000000 0.000002 0.000000 -0.000000 -2.574404
 52 0.000000 -1.748398 -4.999999 -3.141593 0.004007 -1.539299
 53 5.500000 0.000000 0.000001 0.235020 -0.000000 0.000000
 54 -0.000001 0.000002 -5.000000 -0.044472 3.137589 -0.000177
 55 6.551490 0.000000 -0.000002 -0.235020 -0.262154 -0.002206
 56 -1.266844 -1.937443 -4.950561 -0.066572 -2.988806 -0.110308
 57 6.551490 0.000000 -0.000002 -0.235020 -0.262154 -0.002206
 58 0.699371 -1.944208 -5.006847 -0.027189 -3.088217 0.005298
 59 4.226147 -0.003202 -0.000000 -0.158002 -0.051370 0.184728
 60 0.000001 5.000000 0.000001 -0.153564 0.000087 2.718702
 61 0.000004 -0.000005 -3.713579 0.095503 -3.012510 -0.750673
 62 0.000003 0.000001 4.999999 3.053197 1.558589 -0.074927
 63 -0.000007 0.000005 3.713580 -0.334410 -2.825096 -0.524885
 64 0.000001 -0.000000 -4.999999 -0.088726 1.558589 3.066334
 65 7.363603 1.646647 0.495663 -3.141593 -1.570796 0.000000
 66 -0.000006 0.000005 3.619081 -0.528284 -2.367383 -1.007256
 67 16.573921 -0.000001 0.000001 -0.000000 0.000000 -2.019199
 68 15.128181 0.000001 -0.000002 0.031619 0.086785 -0.033197
 69 5.758664 4.244731 -0.000000 0.000000 -0.000000 2.033309
 70 3.177726 0.000001 0.000000 0.000000 0.000000 3.141593
 71 15.708951 0.000002 -0.000003 0.016155 0.048356 -0.018185
 72 0.275149 0.189215 -3.445208 3.130898 0.000409 -1.514604
 73 17.210192 -0.000002 0.000002 0.000000 -0.000000 -2.322356
 74 0.000001 -0.000000 -5.000000 -0.079430 1.546568 -1.570856
 75 0.000006 -0.000005 -3.619080 0.196495 -3.011952 -1.279118
 76 16.573921 0.000000 0.000000 -0.000000 0.000000 -1.611348
 77 15.128181 -0.000002 0.000000 0.214418 -0.027533 0.774389
 78 5.758665 4.244730 -0.000000 -0.000000 -0.000000 1.483530
 79 4.003934 0.000000 0.000001 0.000000 0.000000 0.000000
 80 15.708953 -0.000001 0.000000 0.153371 0.002792 0.528179
 81 0.273998 0.191089 3.439762 -3.130907 -0.000437 -1.508107
 82 17.210192 0.000000 0.000000 0.000000 -0.000000 -2.138823
 83 0.000001 0.000001 5.000000 -0.079311 1.595025 -1.570737
time 7
  0 1.130557 9.712686 27.009436 -0.281436 0.436358 -2.443536
  1 11.368429 6.770639 -23.418964 -0.498313 0.132926 2.346876
  2 -2.276934 0.000003 -1.238187 -1.570795 -1.570451 0.000000
  3 1.796146 0.712006 0.000590 -0.183915 -0.159113 -0.284938
  4 4.119171 -0.003143 0.000742 -0.228328 0.070041 0.162605
  5 4.119058 -0.003165 0.000731 -0.225564 0.080845 0.123873
  6 4.119282 -0.003124 0.000730 -0.224482 0.077896 0.196593
  7 4.119643 -0.003197 0.001104 -0.318625 -0.072114 0.338486
  8 4.443597 0.000001 0.000000 0.054114 0.502792 -0.929294
  9 9.024064 0.000001 -0.000000 0.000000 0.000000 0.000000
 10 0.124843 -0.537848 1.641231 1.502862 -1.330449 1.378899
 11 6.384775 0.000000 0.000000 -0.498422 0.041574 -1.571689
 12 10.242681 0.000003 0.000000 -0.000000 -0.000000 -1.046866
 13 11.375565 -0.000002 0.000002 -2.119233 -0.054474 0.605054
 14 0.728683 0.023431 -1.008292 1.210021 0.600763 0.006085
 15 2.136499 -0.000000 0.000000 0.000000 -0.000000 -0.078540
 16 2.313140 -0.000001 0.000000 0.000000 0.000000 0.000000
 17 3.115507 -0.886042 -0.021430 -0.620285 0.000392 0.514872
 18 2.011152 -0.000001 0.000002 0.000000 -0.000000 1.322792
 19 2.141382 -0.000001 0.000000 0.000000 0.000000 0.000000
 20 1.734174 0.000002 -0.000001 0.000000 0.000000 0.660693
 21 0.000006 -4.440592 -0.000001 1.570544 -0.062990 -0.195737
 22 6.000000 -0.000000 0.000002 -1.988680 -0.000000 -0.000000
 23 0.000002 -4.440601 -0.000001 1.569944 -0.062987 0.004053
 24 11.375560 -0.000000 0.000004 -1.841627 -0.073426 0.313588
 25 -0.000001 -4.440604 -0.000001 1.570144 -0.062988 0.004040
 26 10.510130 0.000002 0.000001 -0.000000 -0.000000 -2.094230
 27 0.000001 -1.748401 5.000000 0.000000 0.004007 1.602290
 28 5.500000 0.000001 0.000002 0.211800 0.000000 -0.000000
 29 -0.000001 -1.940598 5.000000 -0.044472 0.004003 -0.000180
 30 6.551491 0.000001 -0.000001 -0.439228 0.136161 -1.120331
 31 -0.000000 -1.940599 5.000001 -0.027189 -0.053376 0.005295
 32 6.551491 0.000001 -0.000001 -0.164591 0.113805 -0.458211
 33 0.000000 -1.940599 4.999997 -0.066572 -0.152786 -0.110311
 34 -0.124843 0.544927 -1.641228 -0.482274 0.992534 2.379833
 35 6.384776 0.000000 0.000000 -0.743993 -0.651765 0.188013
 36 10.242682 0.000000 0.000000 -0.000000 -0.000000 -2.001942
 37 11.375562 0.000000 0.000002 1.657780 0.854316 -0.876270
 38 0.728680 0.023431 1.008290 -1.579583 -0.319038 0.212973
 39 2.136495 0.000002 0.000001 -0.000000 0.000000 1.282817
 40 2.313138 -0.000002 -0.000001 0.000000 0.000000 3.141593
 41 3.115507 -0.886041 0.021432 0.420766 0.316066 0.167178
 42 2.011150 -0.000000 -0.000000 -0.000000 0.000000 2.082010
 43 2.141379 -0.000001 0.000000 0.000000 0.000000 3.141593
 44 1.734172 -0.000002 0.000000 -0.000000 -0.000000 1.041748
 45 0.136314 -3.738193 2.525890 1.493698 2.759406 -1.474501
 46 5.613161 0.862367 3.157032 1.595152 -0.135386 0.061522
 47 11.389367 -0.000819 0.158783 1.712494 0.417079 -0.390911
 48 -0.000000 -4.440599 -0.000001 1.570144 -3.078602 0.004040
 49 5.999999 -0.000000 -0.000001 1.712494 0.000000 0.000000
 50 0.000002 -4.440600 -0.000002 1.569944 -3.078603 0.004053
 51 10.510131 -0.000000 0.000002 0.000000 0.000000 -2.571767
 52 -0.000000 -1.748401 -5.000000 -3.141593 0.004007 -1.539299
 53 5.500000 0.000001 0.000000 0.232497 -0.000000 -0.000000
 54 0.000000 -0.000000 -4.999999 -0.044472 3.137589 -0.000177
 55 6.551490 0.000001 -0.000002 -0.232497 -0.260919 -0.007100
 56 -1.266843 -1.937443 -4.950557 -0.066572 -2.988806 -0.110308
 57 6.551491 0.000001 -0.000002 -0.232497 -0.260919 -0.007100
 58 0.699371 -1.944207 -5.006847 -0.027189 -3.088217 0.005298
 59 4.226145 -0.003201 -0.000000 -0.158002 -0.051370 0.184728
 60 -0.000001 5.000000 0.000000 -0.153564 0.000087 2.718701
 61 0.000004 -0.000005 -3.713579 0.095503 -3.012510 -0.750673
 62 0.000003 0.000001 4.999999 3.053197 1.558589 -0.074927
 63 -0.000007 0.000005 3.713580 -0.334410 -2.825096 -0.524885
 64 0.000001 -0.000000 -4.999999 -0.088726 1.558589 3.066334
 65 7.363603 1.646647 0.495663 -3.141593 -1.570796 0.000000
 66 -0.000006 0.000005 3.619081 -0.528284 -2.367383 -1.007256
 67 16.573921 -0.000001 0.000001 -0.000000 0.000000 -2.019199
 68 15.128181 0.000001 -0.000002 0.031619 0.086785 -0.033197
 69 5.758664 4.244731 -0.000000 0.000000 -0.000000 2.033309
 70 3.177726 0.000001 0.000000 0.000000 0.000000 3.141593
 71 15.708951 0.000002 -0.000003 0.016155 0.048356 -0.018185
 72 0.275149 0.189215 -3.445208 3.130898 0.000409 -1.514604
 73 17.210192 -0.000002 0.000002 0.000000 -0.000000 -2.322356
 74 0.000001 -0.000000 -5.000000 -0.079430 1.546568 -1.570856
 75 0.000006 -0.000005 -3.619080 0.196495 -3.011952 -1.279118
 76 16.573921 0.000000 0.000000 -0.000000 0.000000 -1.611348
 77 15.128181 -0.000002 0.000000 0.214418 -0.027533 0.774389
 78 5.758665 4.244730 -0.000000 -0.000000 -0.000000 1.483530
 79 4.003934 0.000000 0.000001 0.000000 0.000000 0.000000
 80 15.708953 -0.000001 0.000000 0.153371 0.002792 0.528179
 81 0.273998 0.191089 3.439762 -3.130907 -0.000437 -1.508107
 82 17.210192 0.000000 0.000000 0.000000 -0.000000 -2.138823
 83 0.000001 0.000001 5.000000 -0.079311 1.595025 -1.570737
time 8
  0 1.130557 9.712686 27.009436 -0.281436 0.436358 -2.443536
  1 11.368429 6.770639 -23.418964 -0.498313 0.132926 2.346876
  2 -2.276934 0.000003 -1.238187 -1.570795 -1.570451 0.000000
  3 1.796144 0.712010 0.000605 -0.188885 -0.159349 -0.285263
  4 4.119172 -0.003144 0.000741 -0.228328 0.070041 0.162605
  5 4.119054 -0.003164 0.000731 -0.225564 0.080845 0.123873
  6 4.119284 -0.003124 0.000728 -0.224482 0.077896 0.196593
  7 4.119639 -0.003196 0.001105 -0.318625 -0.072114 0.338486
  8 4.443600 -0.000001 -0.000001 0.061340 0.502943 -0.924313
  9 9.024059 0.000001 0.000000 0.000000 0.000000 0.000000
 10 0.124846 -0.537850 1.641229 1.502862 -1.330448 1.378899
 11 6.384776 -0.000000 -0.000001 -0.503256 0.045153 -1.561519
 12 10.242680 0.000001 0.000001 -0.000000 0.000000 -1.061553
 13 11.375562 -0.000002 0.000001 -2.116735 -0.057273 0.606819
 14 0.728681 0.023431 -1.008291 1.210021 0.600763 0.006085
 15 2.136498 -0.000000 0.000000 0.000000 -0.000000 -0.078540
 16 2.313141 -0.000001 -0.000000 0.000000 0.000000 0.000000
 17 3.115506 -0.886041 -0.021429 -0.620285 0.000392 0.514872
 18 2.011151 0.000002 -0.000001 0.000000 -0.000000 1.322792
 19 2.141379 -0.000001 0.000001 0.000000 0.000000 0.000000
 20 1.734171 0.000000 0.000002 0.000000 0.000000 0.660693
 21 0.000005 -4.440592 -0.000001 1.570544 -0.062990 -0.195737
 22 6.000001 -0.000001 -0.000001 -1.986640 -0.000000 -0.000000
 23 0.000001 -4.440601 0.000000 1.569944 -0.062987 0.004053
 24 11.375562 -0.000001 0.000003 -1.840160 -0.074761 0.314194
 25 0.000000 -4.440604 -0.000002 1.570144 -0.062988 0.004040
 26 10.510129 0.000000 0.000001 -0.000000 -0.000000 -2.101573
 27 0.000001 -1.748398 4.999999 0.000000 0.004007 1.602291
 28 5.499999 0.000001 0.000001 0.211972 0.000000 0.000000
 29 -0.000000 -1.940596 5.000000 -0.044472 0.004003 -0.000180
 30 6.551491 -0.000000 -0.000002 -0.438429 0.140392 -1.102243
 31 -0.000000 -1.940599 5.000001 -0.027189 -0.053376 0.005295
 32 6.551491 -0.000000 -0.000002 -0.165079 0.115134 -0.453391
 33 0.000000 -1.940598 4.999995 -0.066572 -0.152786 -0.110311
 34 -0.124841 0.544925 -1.641230 -0.471618 0.989320 2.390864
 35 6.384776 0.000001 0.000002 -0.734941 -0.646178 0.172088
 36 10.242682 -0.000001 0.000002 -0.000000 0.000000 -1.997281
 37 11.375563 0.000001 -0.000000 1.659530 0.853397 -0.871269
 38 0.728682 0.023430 1.008292 -1.579583 -0.319038 0.212973
 39 2.136500 -0.000002 0.000002 -0.000000 0.000000 1.282817
 40 2.313140 0.000002 0.000000 0.000000 0.000000 3.141593
 41 3.115507 -0.886040 0.021432 0.420766 0.316066 0.167178
 42 2.011151 0.000000 0.000001 0.000000 0.000000 2.082010
 43 2.141380 -0.000000 -0.000000 0.000000 0.000000 3.141593
 44 1.734173 -0.000001 -0.000001 -0.000000 0.000000 1.041748
 45 0.136316 -3.738191 2.525886 1.493698 2.759406 -1.474501
 46 5.613162 0.862368 3.157032 1.595152 -0.135386 0.061522
 47 11.389367 -0.000819 0.158782 1.712571 0.416532 -0.389129
 48 -0.000000 -4.440599 0.000000 1.570144 -3.078602 0.004040
 49 6.000000 0.000001 0.000000 1.712571 -0.000000 -0.000000
 50 0.000002 -4.440601 0.000001 1.569944 -3.078603 0.004053
 51 10.510130 0.000001 0.000001 -0.000000 -0.000000 -2.569437
 52 -0.000000 -1.748399 -4.999999 3.141593 0.004007 -1.539299
 53 5.500000 -0.000001 0.000001 0.230458 0.000000 -0.000000
 54 0.000000 0.000000 -4.999997 -0.044472 3.137590 -0.000177
 55 6.551491 0.000000 0.000001 -0.230458 -0.259511 -0.011414
 56 -1.266844 -1.937443 -4.950560 -0.066572 -2.988806 -0.110308
 57 6.551491 0.000000 0.000001 -0.230458 -0.259511 -0.011414
 58 0.699370 -1.944209 -5.006845 -0.027189 -3.088217 0.005298
 59 4.226144 -0.003201 -0.000001 -0.158002 -0.051370 0.184728
 60 0.000000 5.000000 0.000001 -0.153564 0.000087 2.718702
 61 0.000004 -0.000005 -3.713579 0.095503 -3.012510 -0.750673
 62 0.000003 0.000001 4.999999 3.053197 1.558589 -0.074927
 63 -0.000007 0.000005 3.713580 -0.334410 -2.825096 -0.524885
 64 0.000001 -0.000000 -4.999999 -0.088726 1.558589 3.066334
 65 7.363603 1.646647 0.495663 -3.141593 -1.570796 0.000000
 66 -0.000006 0.000005 3.619081 -0.528284 -2.367383 -1.007256
 67 16.573921 -0.000001 0.000001 -0.000000 0.000000 -2.019199
 68 15.128181 0.000001 -0.000002 0.031619 0.086785 -0.033197
 69 5.758664 4.244731 -0.000000 0.000000 -0.000000 2.033309
 70 3.177726 0.000001 0.000000 0.000000 0.000000 3.141593
 71 15.708951 0.000002 -0.000003 0.016155 0.048356 -0.018185
 72 0.275149 0.189215 -3.445208 3.130898 0.000409 -1.514604
 73 17.210192 -0.000002 0.000002 0.000000 -0.000000 -2.322356
 74 0.000001 -0.000000 -5.000000 -0.079430 1.546568 -1.570856
 75 0.000006 -0.000005 -3.619080 0.196495 -3.011952 -1.279118
 76 16.573921 0.000000 0.000000 -0.000000 0.000000 -1.611348
 77 15.128181 -0.000002 0.000000 0.214418 -0.027533 0.774389
 78 5.758665 4.244730 -0.000000 -0.000000 -0.000000 1.483530
 79 4.003934 0.000000 0.000001 0.000000 0.000000 0.000000
 80 15.708953 -0.000001 0.000000 0.153371 0.002792 0.528179
 81 0.273998 0.191089 3.439762 -3.130907 -0.000437 -1.508107
 82 17.210192 0.000000 0.000000 0.000000 -0.000000 -2.138823
 83 0.000001 0.000001 5.000000 -0.079311 1.595025 -1.570737
time 9
  0 1.130557 9.712686 27.009436 -0.281436 0.436358 -2.443536
  1 11.368429 6.770639 -23.418964 -0.498313 0.132926 2.346876
  2 -2.276934 0.000003 -1.238187 -1.570795 -1.570451 0.000000
  3 1.796142 0.712012 0.000613 -0.191143 -0.159457 -0.285410
  4 4.119172 -0.003144 0.000739 -0.228328 0.070041 0.162605
  5 4.119055 -0.003164 0.000731 -0.225564 0.080845 0.123873
  6 4.119282 -0.003124 0.000729 -0.224482 0.077896 0.196593
  7 4.119642 -0.003196 0.001106 -0.318625 -0.072114 0.338486
  8 4.443598 -0.000001 0.000000 0.064625 0.502996 -0.922048
  9 9.024060 -0.000000 -0.000001 0.000000 0.000000 0.000000
 10 0.124844 -0.537849 1.641230 1.502862 -1.330449 1.378899
 11 6.384775 -0.000000 -0.000000 -0.507095 0.048064 -1.555722
 12 10.242681 -0.000002 0.000002 -0.000000 0.000000 -1.071219
 13 11.375558 -0.000000 -0.000000 -2.114043 -0.059420 0.609022
 14 0.728677 0.023430 -1.008287 1.210021 0.600763 0.006085
 15 2.136500 -0.000001 -0.000001 -0.000000 -0.000000 -0.078540
 16 2.313142 -0.000000 0.000000 0.000000 0.000000 0.000000
 17 3.115505 -0.886041 -0.021431 -0.620285 0.000392 0.514872
 18 2.011153 0.000000 -0.000000 0.000000 0.000000 1.322791
 19 2.141378 -0.000000 0.000000 0.000000 0.000000 0.000000
 20 1.734174 0.000001 -0.000000 0.000000 0.000000 0.660693
 21 0.000006 -4.440593 -0.000001 1.570544 -0.062990 -0.195737
 22 5.999998 -0.000000 0.000001 -1.984490 0.000000 0.000000
 23 0.000004 -4.440601 -0.000001 1.569944 -0.062987 0.004053
 24 11.375560 -0.000002 0.000004 -1.838644 -0.075779 0.315047
 25 0.000002 -4.440604 -0.000001 1.570144 -0.062988 0.004040
 26 10.510130 -0.000000 0.000001 0.000000 -0.000000 -2.106406
 27 -0.000002 -1.748401 5.000000 -0.000000 0.004007 1.602291
 28 5.500000 -0.000001 0.000001 0.212088 -0.000000 -0.000000
 29 -0.000001 -1.940597 5.000001 -0.044472 0.004003 -0.000180
 30 6.551490 0.000000 0.000001 -0.438250 0.143648 -1.091957
 31 0.000001 -1.940598 5.000002 -0.027189 -0.053376 0.005295
 32 6.551490 0.000000 0.000001 -0.165347 0.116283 -0.450511
 33 -0.000001 -1.940600 4.999998 -0.066572 -0.152786 -0.110311
 34 -0.124841 0.544925 -1.641230 -0.466809 0.987837 2.395835
 35 6.384777 0.000000 0.000002 -0.731246 -0.643475 0.165230
 36 10.242683 0.000001 0.000001 -0.000000 0.000000 -1.995271
 37 11.375563 -0.000001 0.000001 1.660216 0.851736 -0.869200
 38 0.728680 0.023432 1.008291 -1.579583 -0.319038 0.212973
 39 2.136497 0.000000 -0.000001 -0.000000 -0.000000 1.282817
 40 2.313138 -0.000001 -0.000001 0.000000 0.000000 3.141593
 41 3.115505 -0.886040 0.021429 0.420765 0.316066 0.167178
 42 2.011150 -0.000001 -0.000001 -0.000000 0.000000 2.082010
 43 2.141380 -0.000001 0.000000 0.000000 0.000000 3.141593
 44 1.734172 -0.000001 -0.000002 -0.000000 0.000000 1.041748
 45 0.136316 -3.738192 2.525893 1.493698 2.759406 -1.474501
 46 5.613161 0.862367 3.157032 1.595152 -0.135386 0.061522
 47 11.389366 -0.000820 0.158782 1.712399 0.415685 -0.388517
 48 0.000000 -4.440601 0.000001 1.570144 -3.078602 0.004040
 49 6.000000 -0.000000 0.000001 1.712399 0.000000 0.000000
 50 0.000000 -4.440602 0.000001 1.569944 -3.078603 0.004053
 51 10.510132 0.000001 0.000001 -0.000000 -0.000000 -2.568432
 52 -0.000001 -1.748398 -5.000001 -3.141593 0.004007 -1.539299
 53 5.500000 0.000001 -0.000000 0.229618 0.000000 -0.000000
 54 -0.000001 0.000002 -5.000000 -0.044472 3.137589 -0.000177
 55 6.551490 0.000001 0.000001 -0.229618 -0.258831 -0.013275
 56 -1.266844 -1.937443 -4.950559 -0.066572 -2.988806 -0.110308
 57 6.551490 0.000001 0.000001 -0.229618 -0.258831 -0.013275
 58 0.699369 -1.944207 -5.006846 -0.027189 -3.088217 0.005298
 59 4.226145 -0.003201 0.000001 -0.158002 -0.051370 0.184728
 60 0.000002 5.000000 0.000001 -0.153564 0.000087 2.718702
 61 0.000004 -0.000005 -3.713579 0.095503 -3.012510 -0.750673
 62 0.000003 0.000001 4.999999 3.053197 1.558589 -0.074927
 63 -0.000007 0.000005 3.713580 -0.334410 -2.825096 -0.524885
 64 0.000001 -0.000000 -4.999999 -0.088726 1.558589 3.066334
 65 7.363603 1.646647 0.495663 -3.141593 -1.570796 0.000000
 66 -0.000006 0.000005 3.619081 -0.528284 -2.367383 -1.007256
 67 16.573921 -0.000001 0.000001 -0.000000 0.000000 -2.019199
 68 15.128181 0.000001 -0.000002 0.031619 0.086785 -0.033197
 69 5.758664 4.244731 -0.000000 0.000000 -0.000000 2.033309
 70 3.177726 0.000001 0.000000 0.000000 0.000000 3.141593
 71 15.708951 0.000002 -0.000003 0.016155 0.048356 -0.018185
 72 0.275149 0.189215 -3.445208 3.130898 0.000409 -1.514604
 73 17.210192 -0.000002 0.000002 0.000000 -0.000000 -2.322356
 74 0.000001 -0.000000 -5.000000 -0.079430 1.546568 -1.570856
 75 0.000006 -0.000005 -3.619080 0.196495 -3.011952 -1.279118
 76 16.573921 0.000000 0.000000 -0.000000 0.000000 -1.611348
 77 15.128181 -0.000002 0.000000 0.214418 -0.027533 0.774389
 78 5.758665 4.244730 -0.000000 -0.000000 -0.000000 1.483530
 79 4.003934 0.000000 0.000001 0.000000 0.000000 0.000000
 80 15.708953 -0.000001 0.000000 0.153371 0.002792 0.528179
 81 0.273998 0.191089 3.439762 -3.130907 -0.000437 -1.508107
 82 17.210192 0.000000 0.000000 0.000000 -0.000000 -2.138823
 83 0.000001 0.000001 5.000000 -0.079311 1.595025 -1.570737
time 10
  0 1.130557 9.712686 27.009436 -0.281436 0.436358 -2.443536
  1 11.368429 6.770639 -23.418964 -0.498313 0.132926 2.346876
  2 -2.276934 0.000003 -1.238187 -1.570795 -1.570451 0.000000
  3 1.796142 0.712012 0.000613 -0.191143 -0.159457 -0.285410
  4 4.119172 -0.003144 0.000739 -0.228328 0.070041 0.162605
  5 4.119055 -0.003164 0.000731 -0.225564 0.080845 0.123873
  6 4.119282 -0.003124 0.000729 -0.224482 0.077896 0.196593
  7 4.119642 -0.003196 0.001106 -0.318625 -0.072114 0.338486
  8 4.443598 -0.000001 0.000000 0.064625 0.502996 -0.922048
  9 9.024060 -0.000000 -0.000001 0.000000 0.000000 0.000000
 10 0.124844 -0.537849 1.641230 1.502862 -1.330449 1.378899
 11 6.384775 -0.000000 -0.000000 -0.509962 0.050841 -1.553132
 12 10.242681 0.000002 0.000001 -0.000000 -0.000000 -1.077339
 13 11.375561 -0.000002 0.000002 -2.111741 -0.061216 0.612106
 14 0.728682 0.023431 -1.008293 1.210021 0.600763 0.006085
 15 2.136496 -0.000001 0.000000 0.000000 -0.000000 -0.078540
 16 2.313140 0.000001 0.000001 0.000000 0.000000 0.000000
 17 3.115508 -0.886041 -0.021430 -0.620285 0.000392 0.514872
 18 2.011149 -0.000000 0.000003 0.000000 -0.000000 1.322792
 19 2.141379 0.000001 -0.000001 0.000000 0.000000 0.000000
 20 1.734172 0.000001 0.000001 0.000000 0.000000 0.660693
 21 0.000007 -4.440593 0.000000 1.570544 -0.062990 -0.195737
 22 6.000001 -0.000002 0.000002 -1.982669 0.000000 -0.000000
 23 0.000004 -4.440601 -0.000001 1.569944 -0.062987 0.004053
 24 11.375560 -0.000001 0.000005 -1.837344 -0.076705 0.316326
 25 0.000000 -4.440603 -0.000001 1.570144 -0.062988 0.004040
 26 10.510130 -0.000001 0.000001 -0.000000 0.000000 -2.109466
 27 -0.000003 -1.748400 4.999999 -0.000000 0.004007 1.602290
 28 5.500000 -0.000000 0.000001 0.212047 0.000000 -0.000000
 29 -0.000001 -1.940600 5.000002 -0.044472 0.004003 -0.000180
 30 6.551490 0.000000 0.000001 -0.438374 0.146576 -1.087210
 31 0.000001 -1.940599 5.000001 -0.027189 -0.053376 0.005295
 32 6.551490 0.000000 0.000001 -0.165360 0.117441 -0.449067
 33 0.000000 -1.940600 4.999997 -0.066572 -0.152786 -0.110311
 34 -0.124841 0.544925 -1.641230 -0.466809 0.987837 2.395835
 35 6.384777 0.000000 0.000002 -0.732885 -0.642803 0.166836
 36 10.242681 0.000002 0.000000 -0.000000 -0.000000 -1.995928
 37 11.375561 -0.000001 0.000001 1.660004 0.849347 -0.869499
 38 0.728679 0.023430 1.008291 -1.579583 -0.319038 0.212973
 39 2.136496 -0.000000 -0.000001 -0.000000 0.000000 1.282817
 40 2.313139 -0.000000 0.000000 0.000000 0.000000 3.141593
 41 3.115506 -0.886042 0.021432 0.420765 0.316066 0.167178
 42 2.011151 0.000000 -0.000002 -0.000000 0.000000 2.082010
 43 2.141379 -0.000000 -0.000000 0.000000 0.000000 3.141593
 44 1.734172 -0.000002 -0.000003 -0.000000 -0.000000 1.041748
 45 0.136316 -3.738192 2.525893 1.493698 2.759406 -1.474501
 46 5.613158 0.862366 3.157030 1.595152 -0.135386 0.061522
 47 11.389366 -0.000820 0.158782 1.711988 0.414535 -0.388859
 48 -0.000001 -4.440599 -0.000001 1.570144 -3.078602 0.004040
 49 5.999999 -0.000001 0.000000 1.711988 -0.000000 0.000000
 50 0.000001 -4.440601 0.000000 1.569944 -3.078603 0.004053
 51 10.510130 0.000003 0.000001 0.000000 -0.000000 -2.568760
 52 -0.000000 -1.748399 -5.000000 -3.141593 0.004007 -1.539299
 53 5.499999 0.000003 -0.000000 0.230079 -0.000000 0.000000
 54 -0.000000 0.000001 -5.000002 -0.044472 3.137589 -0.000177
 55 6.551490 0.000001 0.000001 -0.230079 -0.258740 -0.012673
 56 -1.266844 -1.937445 -4.950557 -0.066572 -2.988806 -0.110308
 57 6.551490 0.000001 0.000001 -0.230079 -0.258740 -0.012673
 58 0.699370 -1.944208 -5.006846 -0.027189 -3.088217 0.005298
 59 4.226145 -0.003201 0.000001 -0.158002 -0.051370 0.184728
 60 0.000002 5.000000 0.000001 -0.153564 0.000087 2.718702
 61 0.000004 -0.000005 -3.713579 0.095503 -3.012510 -0.750673
 62 0.000003 0.000001 4.999999 3.053197 1.558589 -0.074927
 63 -0.000007 0.000005 3.713580 -0.334410 -2.825096 -0.524885
 64 0.000001 -0.000000 -4.999999 -0.088726 1.558589 3.066334
 65 7.363603 1.646647 0.495663 -3.141593 -1.570796 0.000000
 66 -0.000006 0.000005 3.619081 -0.528284 -2.367383 -1.007256
 67 16.573921 -0.000001 0.000001 -0.000000 0.000000 -2.019199
 68 15.128181 0.000001 -0.000002 0.031619 0.086785 -0.033197
 69 5.758664 4.244731 -0.000000 0.000000 -0.000000 2.033309
 70 3.177726 0.000001 0.000000 0.000000 0.000000 3.141593
 71 15.708951 0.000002 -0.000003 0.016155 0.048356 -0.018185
 72 0.275149 0.189215 -3.445208 3.130898 0.000409 -1.514604
 73 17.210192 -0.000002 0.000002 0.000000 -0.000000 -2.322356
 74 0.000001 -0.000000 -5.000000 -0.079430 1.546568 -1.570856
 75 0.000006 -0.000005 -3.619080 0.196495 -3.011952 -1.279118
 76 16.573921 0.000000 0.000000 -0.000000 0.000000 -1.611348
 77 15.128181 -0.000002 0.000000 0.214418 -0.027533 0.774389
 78 5.758665 4.244730 -0.000000 -0.000000 -0.000000 1.483530
 79 4.003934 0.000000 0.000001 0.000000 0.000000 0.000000
 80 15.708953 -0.000001 0.000000 0.153371 0.002792 0.528179
 81 0.273998 0.191089 3.439762 -3.130907 -0.000437 -1.508107
 82 17.210192 0.000000 0.000000 0.000000 -0.000000 -2.138823
 83 0.000001 0.000001 5.000000 -0.079311 1.595025 -1.570737
time 11
  0 1.130557 9.712686 27.009436 -0.281436 0.436358 -2.443536
  1 11.368429 6.770639 -23.418964 -0.498313 0.132926 2.346876
  2 -2.276934 0.000003 -1.238187 -1.570795 -1.570451 0.000000
  3 1.796142 0.712012 0.000613 -0.191143 -0.159457 -0.285410
  4 4.119172 -0.003144 0.000739 -0.228328 0.070041 0.162605
  5 4.119055 -0.003164 0.000731 -0.225564 0.080845 0.123873
  6 4.119282 -0.003124 0.000729 -0.224482 0.077896 0.196593
  7 4.119642 -0.003196 0.001106 -0.318625 -0.072114 0.338486
  8 4.443598 -0.000001 0.000000 0.064625 0.502996 -0.922048
  9 9.024060 -0.000000 -0.000001 0.000000 0.000000 0.000000
 10 0.124844 -0.537849 1.641230 1.502862 -1.330449 1.378899
 11 6.384775 -0.000000 -0.000000 -0.512437 0.054775 -1.549524
 12 10.242681 0.000001 -0.000000 -0.000000 -0.000000 -1.084907
 13 11.375558 -0.000000 -0.000001 -2.110830 -0.063460 0.616371
 14 0.728682 0.023431 -1.008293 1.210021 0.600763 0.006086
 15 2.136496 -0.000000 -0.000001 0.000000 -0.000000 -0.078540
 16 2.313138 -0.000000 0.000001 0.000000 0.000000 0.000000
 17 3.115507 -0.886040 -0.021431 -0.620285 0.000392 0.514872
 18 2.011152 0.000000 -0.000000 -0.000000 0.000000 1.322792
 19 2.141379 -0.000000 0.000000 0.000000 0.000000 0.000000
 20 1.734174 0.000000 0.000001 0.000000 0.000000 0.660693
 21 0.000005 -4.440593 0.000001 1.570544 -0.062990 -0.195737
 22 5.999998 -0.000000 -0.000000 -1.981909 0.000000 0.000000
 23 0.000001 -4.440601 0.000000 1.569944 -0.062987 0.004053
 24 11.375560 -0.000002 0.000003 -1.836691 -0.078036 0.318101
 25 -0.000003 -4.440602 -0.000000 1.570144 -0.062988 0.004040
 26 10.510130 0.000000 0.000000 0.000000 -0.000000 -2.113250
 27 0.000002 -1.748400 4.999999 -0.000000 0.004007 1.602291
 28 5.500000 0.000002 -0.000000 0.211580 0.000000 -0.000000
 29 -0.000002 -1.940598 5.000001 -0.044472 0.004003 -0.000180
 30 6.551490 0.000000 0.000001 -0.437689 0.150505 -1.080560
 31 0.000000 -1.940599 5.000001 -0.027189 -0.053376 0.005295
 32 6.551490 0.000000 0.000001 -0.165059 0.118889 -0.447092
 33 -0.000001 -1.940600 4.999997 -0.066572 -0.152786 -0.110311
 34 -0.124841 0.544925 -1.641230 -0.466809 0.987837 2.395835
 35 6.384777 0.000000 0.000002 -0.737202 -0.641022 0.171062
 36 10.242682 -0.000002 0.000001 -0.000000 -0.000000 -1.997648
 37 11.375561 -0.000000 0.000000 1.659764 0.846604 -0.869819
 38 0.728682 0.023431 1.008292 -1.579583 -0.319038 0.212973
 39 2.136498 -0.000001 0.000000 -0.000000 0.000000 1.282817
 40 2.313139 0.000001 0.000001 0.000000 0.000000 3.141593
 41 3.115507 -0.886040 0.021432 0.420766 0.316066 0.167178
 42 2.011152 0.000000 0.000004 0.000000 0.000000 2.082010
 43 2.141379 -0.000000 -0.000000 0.000000 0.000000 3.141593
 44 1.734172 -0.000002 0.000001 0.000000 -0.000000 1.041748
 45 0.136315 -3.738193 2.525890 1.493698 2.759406 -1.474501
 46 5.613162 0.862367 3.157033 1.595152 -0.135386 0.061522
 47 11.389366 -0.000819 0.158782 1.711516 0.413214 -0.389242
 48 -0.000000 -4.440598 0.000000 1.570144 -3.078602 0.004040
 49 5.999999 0.000000 -0.000001 1.711516 -0.000000 -0.000000
 50 0.000002 -4.440601 0.000001 1.569944 -3.078603 0.004053
 51 10.510133 -0.000002 0.000002 -0.000000 0.000000 -2.569620
 52 -0.000000 -1.748401 -5.000002 -3.141593 0.004007 -1.539299
 53 5.499999 -0.000001 0.000001 0.231293 0.000000 -0.000000
 54 -0.000000 0.000001 -5.000002 -0.044472 3.137589 -0.000177
 55 6.551490 0.000001 0.000001 -0.231293 -0.258495 -0.011086
 56 -1.266844 -1.937442 -4.950558 -0.066572 -2.988806 -0.110308
 57 6.551490 0.000001 0.000001 -0.231293 -0.258495 -0.011086
 58 0.699370 -1.944209 -5.006844 -0.027189 -3.088217 0.005298
 59 4.226145 -0.003201 0.000001 -0.158002 -0.051370 0.184728
 60 0.000002 5.000000 0.000001 -0.153564 0.000087 2.718702
 61 0.000004 -0.000005 -3.713579 0.095503 -3.012510 -0.750673
 62 0.000003 0.000001 4.999999 3.053197 1.558589 -0.074927
 63 -0.000007 0.000005 3.713580 -0.334410 -2.825096 -0.524885
 64 0.000001 -0.000000 -4.999999 -0.088726 1.558589 3.066334
 65 7.363603 1.646647 0.495663 -3.141593 -1.570796 0.000000
 66 -0.000006 0.000005 3.619081 -0.528284 -2.367383 -1.007256
 67 16.573921 -0.000001 0.000001 -0.000000 0.000000 -2.019199
 68 15.128181 0.000001 -0.000002 0.031619 0.086785 -0.033197
 69 5.758664 4.244731 -0.000000 0.000000 -0.000000 2.033309
 70 3.177726 0.000001 0.000000 0.000000 0.000000 3.141593
 71 15.708951 0.000002 -0.000003 0.016155 0.048356 -0.018185
 72 0.275149 0.189215 -3.445208 3.130898 0.000409 -1.514604
 73 17.210192 -0.000002 0.000002 0.000000 -0.000000 -2.322356
 74 0.000001 -0.000000 -5.000000 -0.079430 1.546568 -1.570856
 75 0.000006 -0.000005 -3.619080 0.196495 -3.011952 -1.279118
 76 16.573921 0.000000 0.000000 -0.000000 0.000000 -1.611348
 77 15.128181 -0.000002 0.000000 0.214418 -0.027533 0.774389
 78 5.758665 4.244730 -0.000000 -0.000000 -0.000000 1.483530
 79 4.003934 0.000000 0.000001 0.000000 0.000000 0.000000
 80 15.708953 -0.000001 0.000000 0.153371 0.002792 0.528179
 81 0.273998 0.191089 3.439762 -3.130907 -0.000437 -1.508107
 82 17.210192 0.000000 0.000000 0.000000 -0.000000 -2.138823
 83 0.000001 0.000001 5.000000 -0.079311 1.595025 -1.570737
time 12
  0 1.130557 9.712686 27.009436 -0.281436 0.436358 -2.443536
  1 11.368429 6.770639 -23.418964 -0.498313 0.132926 2.346876
  2 -2.276934 0.000003 -1.238187 -1.570795 -1.570451 0.000000
  3 1.796142 0.712012 0.000613 -0.191143 -0.159457 -0.285410
  4 4.119172 -0.003144 0.000739 -0.228328 0.070041 0.162605
  5 4.119055 -0.003164 0.000731 -0.225564 0.080845 0.123873
  6 4.119282 -0.003124 0.000729 -0.224482 0.077896 0.196593
  7 4.119642 -0.003196 0.001106 -0.318625 -0.072114 0.338486
  8 4.443598 -0.000001 0.000000 0.064625 0.502996 -0.922048
  9 9.024060 -0.000000 -0.000001 0.000000 0.000000 0.000000
 10 0.124844 -0.537849 1.641230 1.502862 -1.330449 1.378899
 11 6.384775 -0.000000 -0.000000 -0.514632 0.059499 -1.545241
 12 10.242681 0.000002 0.000001 -0.000000 -0.000000 -1.093433
 13 11.375559 -0.000001 0.000002 -2.110852 -0.066011 0.621408
 14 0.728682 0.023431 -1.008294 1.210021 0.600763 0.006085
 15 2.136498 -0.000000 -0.000000 0.000000 -0.000000 -0.078540
 16 2.313139 -0.000001 -0.000001 0.000000 0.000000 0.000000
 17 3.115507 -0.886040 -0.021431 -0.620285 0.000392 0.514872
 18 2.011153 0.000000 0.000000 0.000000 0.000000 1.322792
 19 2.141379 0.000000 0.000001 0.000000 0.000000 0.000000
 20 1.734173 0.000000 0.000002 0.000000 -0.000000 0.660693
 21 0.000008 -4.440593 0.000002 1.570544 -0.062990 -0.195737
 22 6.000000 0.000000 0.000002 -1.981858 0.000000 -0.000000
 23 0.000001 -4.440600 0.000000 1.569944 -0.062987 0.004053
 24 11.375563 -0.000001 0.000006 -1.836469 -0.079640 0.320198
 25 0.000001 -4.440603 -0.000001 1.570144 -0.062988 0.004040
 26 10.510129 -0.000001 0.000001 0.000000 -0.000000 -2.117513
 27 0.000000 -1.748399 4.999999 0.000000 0.004007 1.602291
 28 5.499999 0.000002 0.000000 0.210804 0.000000 -0.000000
 29 -0.000001 -1.940597 4.999999 -0.044472 0.004003 -0.000180
 30 6.551490 0.000000 0.000001 -0.436415 0.155075 -1.072685
 31 0.000000 -1.940600 5.000003 -0.027189 -0.053376 0.005295
 32 6.551490 0.000000 0.000001 -0.164528 0.120519 -0.444758
 33 0.000000 -1.940599 4.999995 -0.066572 -0.152786 -0.110311
 34 -0.124841 0.544925 -1.641230 -0.466809 0.987837 2.395835
 35 6.384777 0.000000 0.000002 -0.743287 -0.638485 0.177012
 36 10.242682 -0.000001 0.000002 -0.000000 -0.000000 -2.000052
 37 11.375560 -0.000003 0.000000 1.659485 0.843616 -0.870180
 38 0.728680 0.023431 1.008291 -1.579583 -0.319038 0.212973
 39 2.136498 -0.000002 0.000000 -0.000000 0.000000 1.282817
 40 2.313139 0.000002 0.000000 0.000000 0.000000 3.141593
 41 3.115506 -0.886040 0.021432 0.420766 0.316066 0.167178
 42 2.011151 0.000000 -0.000001 0.000000 0.000000 2.082010
 43 2.141379 -0.000000 -0.000001 0.000000 0.000000 3.141593
 44 1.734172 0.000000 0.000001 0.000000 0.000000 1.041748
 45 0.136316 -3.738192 2.525892 1.493698 2.759406 -1.474501
 46 5.613160 0.862367 3.157032 1.595152 -0.135386 0.061522
 47 11.389365 -0.000820 0.158783 1.710995 0.411777 -0.389662
 48 -0.000000 -4.440598 -0.000001 1.570144 -3.078602 0.004040
 49 5.999999 0.000000 0.000001 1.710995 -0.000000 -0.000000
 50 0.000002 -4.440601 0.000000 1.569944 -3.078603 0.004053
 51 10.510132 0.000001 0.000001 0.000000 -0.000000 -2.570823
 52 0.000000 -1.748399 -5.000000 3.141593 0.004007 -1.539299
 53 5.500000 0.000000 0.000002 0.233004 0.000000 -0.000000
 54 -0.000000 0.000001 -5.000002 -0.044472 3.137590 -0.000177
 55 6.551490 0.000001 0.000001 -0.233004 -0.258138 -0.008844
 56 -1.266844 -1.937443 -4.950559 -0.066572 -2.988806 -0.110308
 57 6.551490 0.000001 0.000001 -0.233004 -0.258138 -0.008844
 58 0.699370 -1.944208 -5.006846 -0.027189 -3.088217 0.005298
 59 4.226145 -0.003201 0.000001 -0.158002 -0.051370 0.184728
 60 0.000002 5.000000 0.000001 -0.153564 0.000087 2.718702
 61 0.000004 -0.000005 -3.713579 0.095503 -3.012510 -0.750673
 62 0.000003 0.000001 4.999999 3.053197 1.558589 -0.074927
 63 -0.000007 0.000005 3.713580 -0.334410 -2.825096 -0.524885
 64 0.000001 -0.000000 -4.999999 -0.088726 1.558589 3.066334
 65 7.363603 1.646647 0.495663 -3.141593 -1.570796 0.000000
 66 -0.000006 0.000005 3.619081 -0.528284 -2.367383 -1.007256
 67 16.573921 -0.000001 0.000001 -0.000000 0.000000 -2.019199
 68 15.128181 0.000001 -0.000002 0.031619 0.086785 -0.033197
 69 5.758664 4.244731 -0.000000 0.000000 -0.000000 2.033309
 70 3.177726 0.000001 0.000000 0.000000 0.000000 3.141593
 71 15.708951 0.000002 -0.000003 0.016155 0.048356 -0.018185
 72 0.275149 0.189215 -3.445208 3.130898 0.000409 -1.514604
 73 17.210192 -0.000002 0.000002 0.000000 -0.000000 -2.322356
 74 0.000001 -0.000000 -5.000000 -0.079430 1.546568 -1.570856
 75 0.000006 -0.000005 -3.619080 0.196495 -3.011952 -1.279118
 76 16.573921 0.000000 0.000000 -0.000000 0.000000 -1.611348
 77 15.128181 -0.000002 0.000000 0.214418 -0.027533 0.774389
 78 5.758665 4.244730 -0.000000 -0.000000 -0.000000 1.483530
 79 4.003934 0.000000 0.000001 0.000000 0.000000 0.000000
 80 15.708953 -0.000001 0.000000 0.153371 0.002792 0.528179
 81 0.273998 0.191089 3.439762 -3.130907 -0.000437 -1.508107
 82 17.210192 0.000000 0.000000 0.000000 -0.000000 -2.138823
 83 0.000001 0.000001 5.000000 -0.079311 1.595025 -1.570737
time 13
  0 1.130557 9.712686 27.009436 -0.281436 0.436358 -2.443536
  1 11.368429 6.770639 -23.418964 -0.498313 0.132926 2.346876
  2 -2.276934 0.000003 -1.238187 -1.570795 -1.570451 0.000000
  3 1.796142 0.712012 0.000613 -0.191143 -0.159457 -0.285410
  4 4.119172 -0.003144 0.000739 -0.228328 0.070041 0.162605
  5 4.119055 -0.003164 0.000731 -0.225564 0.080845 0.123873
  6 4.119282 -0.003124 0.000729 -0.224482 0.077896 0.196593
  7 4.119642 -0.003196 0.001106 -0.318625 -0.072114 0.338486
  8 4.443598 -0.000001 0.000000 0.064625 0.502996 -0.922048
  9 9.024060 -0.000000 -0.000001 0.000000 0.000000 0.000000
 10 0.124844 -0.537849 1.641230 1.502862 -1.330449 1.378899
 11 6.384775 -0.000000 -0.000000 -0.516662 0.064634 -1.540629
 12 10.242681 0.000003 0.000000 -0.000000 0.000000 -1.102420
 13 11.375561 -0.000002 0.000001 -2.111345 -0.068724 0.626809
 14 0.728679 0.023431 -1.008293 1.210021 0.600763 0.006085
 15 2.136495 -0.000001 0.000000 -0.000000 -0.000000 -0.078540
 16 2.313140 -0.000000 0.000000 0.000000 0.000000 0.000000
 17 3.115505 -0.886042 -0.021432 -0.620285 0.000392 0.514872
 18 2.011153 0.000002 -0.000001 0.000000 0.000000 1.322792
 19 2.141378 -0.000000 0.000001 0.000000 0.000000 0.000000
 20 1.734173 0.000000 0.000003 0.000000 -0.000000 0.660693
 21 0.000006 -4.440594 -0.000002 1.570544 -0.062990 -0.195737
 22 5.999998 0.000000 0.000000 -1.982161 0.000000 0.000000
 23 0.000000 -4.440601 -0.000001 1.569944 -0.062987 0.004053
 24 11.375560 -0.000001 0.000004 -1.836461 -0.081381 0.322441
 25 -0.000002 -4.440603 -0.000001 1.570144 -0.062988 0.004040
 26 10.510129 0.000001 0.000001 0.000000 0.000000 -2.122006
 27 -0.000000 -1.748401 4.999999 0.000000 0.004007 1.602290
 28 5.499999 0.000001 0.000001 0.209846 -0.000000 -0.000000
 29 -0.000002 -1.940600 5.000001 -0.044472 0.004003 -0.000180
 30 6.551490 0.000000 0.000001 -0.434794 0.159933 -1.064261
 31 -0.000000 -1.940598 5.000002 -0.027189 -0.053376 0.005295
 32 6.551490 0.000000 0.000001 -0.163857 0.122228 -0.442243
 33 0.000000 -1.940600 4.999998 -0.066572 -0.152786 -0.110311
 34 -0.124841 0.544925 -1.641230 -0.466809 0.987837 2.395835
 35 6.384777 0.000000 0.000002 -0.750237 -0.635549 0.183795
 36 10.242682 0.000000 -0.000002 -0.000000 0.000000 -2.002771
 37 11.375561 -0.000001 0.000002 1.659168 0.840498 -0.870597
 38 0.728680 0.023431 1.008291 -1.579583 -0.319038 0.212973
 39 2.136495 0.000002 0.000000 -0.000000 0.000000 1.282817
 40 2.313139 -0.000001 0.000001 0.000000 0.000000 3.141593
 41 3.115506 -0.886040 0.021432 0.420766 0.316066 0.167178
 42 2.011151 0.000001 0.000002 0.000000 0.000000 2.082010
 43 2.141379 0.000000 0.000001 0.000000 0.000000 3.141593
 44 1.734172 0.000000 0.000002 0.000000 0.000000 1.041748
 45 0.136316 -3.738193 2.525891 1.493698 2.759406 -1.474501
 46 5.613159 0.862367 3.157031 1.595152 -0.135386 0.061522
 47 11.389367 -0.000818 0.158784 1.710446 0.410279 -0.390113
 48 -0.000001 -4.440600 0.000000 1.570144 -3.078602 0.004040
 49 5.999999 -0.000001 -0.000000 1.710446 0.000000 -0.000000
 50 0.000001 -4.440600 -0.000001 1.569944 -3.078603 0.004053
 51 10.510131 -0.000001 0.000001 -0.000000 0.000000 -2.572182
 52 0.000000 -1.748399 -5.000001 -3.141593 0.004007 -1.539299
 53 5.500000 0.000000 -0.000001 0.234957 0.000000 0.000000
 54 -0.000000 0.000000 -4.999997 -0.044472 3.137589 -0.000177
 55 6.551490 0.000001 0.000001 -0.234957 -0.257712 -0.006279
 56 -1.266844 -1.937444 -4.950557 -0.066572 -2.988806 -0.110308
 57 6.551490 0.000001 0.000001 -0.234957 -0.257712 -0.006279
 58 0.699370 -1.944209 -5.006844 -0.027189 -3.088217 0.005298
 59 4.226145 -0.003201 0.000001 -0.158002 -0.051370 0.184728
 60 0.000002 5.000000 0.000001 -0.153564 0.000087 2.718702
 61 0.000004 -0.000005 -3.713579 0.095503 -3.012510 -0.750673
 62 0.000003 0.000001 4.999999 3.053197 1.558589 -0.074927
 63 -0.000007 0.000005 3.713580 -0.334410 -2.825096 -0.524885
 64 0.000001 -0.000000 -4.999999 -0.088726 1.558589 3.066334
 65 7.363603 1.646647 0.495663 -3.141593 -1.570796 0.000000
 66 -0.000006 0.000005 3.619081 -0.528284 -2.367383 -1.007256
 67 16.573921 -0.000001 0.000001 -0.000000 0.000000 -2.019199
 68 15.128181 0.000001 -0.000002 0.031619 0.086785 -0.033197
 69 5.758664 4.244731 -0.000000 0.000000 -0.000000 2.033309
 70 3.177726 0.000001 0.000000 0.000000 0.000000 3.141593
 71 15.708951 0.000002 -0.000003 0.016155 0.048356 -0.018185
 72 0.275149 0.189215 -3.445208 3.130898 0.000409 -1.514604
 73 17.210192 -0.000002 0.000002 0.000000 -0.000000 -2.322356
 74 0.000001 -0.000000 -5.000000 -0.079430 1.546568 -1.570856
 75 0.000006 -0.000005 -3.619080 0.196495 -3.011952 -1.279118
 76 16.573921 0.000000 0.000000 -0.000000 0.000000 -1.611348
 77 15.128181 -0.000002 0.000000 0.214418 -0.027533 0.774389
 78 5.758665 4.244730 -0.000000 -0.000000 -0.000000 1.483530
 79 4.003934 0.000000 0.000001 0.000000 0.000000 0.000000
 80 15.708953 -0.000001 0.000000 0.153371 0.002792 0.528179
 81 0.273998 0.191089 3.439762 -3.130907 -0.000437 -1.508107
 82 17.210192 0.000000 0.000000 0.000000 -0.000000 -2.138823
 83 0.000001 0.000001 5.000000 -0.079311 1.595025 -1.570737
time 14
  0 1.130557 9.712686 27.009436 -0.281436 0.436358 -2.443536
  1 11.368429 6.770639 -23.418964 -0.498313 0.132926 2.346876
  2 -2.276934 0.000003 -1.238187 -1.570795 -1.570451 0.000000
  3 1.796142 0.712012 0.000613 -0.191143 -0.159457 -0.285410
  4 4.119172 -0.003144 0.000739 -0.228328 0.070041 0.162605
  5 4.119055 -0.003164 0.000731 -0.225564 0.080845 0.123873
  6 4.119282 -0.003124 0.000729 -0.224482 0.077896 0.196593
  7 4.119642 -0.003196 0.001106 -0.318625 -0.072114 0.338486
  8 4.443598 -0.000001 0.000000 0.064625 0.502996 -0.922048
  9 9.024060 -0.000000 -0.000001 0.000000 0.000000 0.000000
 10 0.124844 -0.537849 1.641230 1.502862 -1.330449 1.378899
 11 6.384775 -0.000000 -0.000000 -0.518653 0.069799 -1.536035
 12 10.242681 -0.000000 0.000000 -0.000000 -0.000000 -1.111381
 13 11.375561 -0.000002 0.000003 -2.111846 -0.071452 0.632174
 14 0.728681 0.023431 -1.008292 1.210021 0.600763 0.006086
 15 2.136494 0.000000 0.000001 0.000000 -0.000000 -0.078540
 16 2.313142 -0.000001 -0.000000 0.000000 0.000000 0.000000
 17 3.115505 -0.886042 -0.021431 -0.620285 0.000392 0.514872
 18 2.011151 -0.000001 0.000001 0.000000 -0.000000 1.322792
 19 2.141379 0.000000 0.000002 0.000000 0.000000 0.000000
 20 1.734172 0.000001 0.000000 0.000000 -0.000000 0.660693
 21 0.000006 -4.440593 0.000002 1.570544 -0.062990 -0.195737
 22 6.000000 -0.000001 0.000002 -1.982465 -0.000000 -0.000000
 23 0.000004 -4.440601 -0.000000 1.569944 -0.062987 0.004053
 24 11.375560 -0.000002 0.000006 -1.836451 -0.083125 0.324662
 25 0.000001 -4.440604 -0.000001 1.570144 -0.062988 0.004040
 26 10.510128 -0.000000 0.000000 0.000000 0.000000 -2.126487
 27 0.000000 -1.748399 4.999999 -0.000000 0.004007 1.602291
 28 5.499999 -0.000002 0.000001 0.208845 0.000000 -0.000000
 29 -0.000001 -1.940598 5.000000 -0.044472 0.004003 -0.000180
 30 6.551490 0.000000 0.000001 -0.433091 0.164741 -1.055943
 31 0.000000 -1.940599 5.000002 -0.027189 -0.053376 0.005295
 32 6.551490 0.000000 0.000001 -0.163149 0.123915 -0.439728
 33 0.000001 -1.940599 4.999996 -0.066572 -0.152786 -0.110311
 34 -0.124841 0.544925 -1.641230 -0.466809 0.987837 2.395835
 35 6.384777 0.000000 0.000002 -0.757160 -0.632583 0.190539
 36 10.242682 -0.000003 0.000002 -0.000000 0.000000 -2.005447
 37 11.375560 -0.000004 -0.000000 1.658822 0.837369 -0.871061
 38 0.728681 0.023431 1.008293 -1.579583 -0.319038 0.212973
 39 2.136497 0.000000 -0.000001 -0.000000 0.000000 1.282817
 40 2.313138 -0.000001 0.000001 0.000000 0.000000 3.141593
 41 3.115506 -0.886041 0.021431 0.420766 0.316066 0.167178
 42 2.011150 -0.000001 -0.000001 0.000000 0.000000 2.082010
 43 2.141379 -0.000000 0.000000 0.000000 0.000000 3.141593
 44 1.734171 -0.000002 0.000000 0.000000 0.000000 1.041748
 45 0.136315 -3.738193 2.525891 1.493698 2.759406 -1.474501
 46 5.613160 0.862367 3.157032 1.595152 -0.135386 0.061522
 47 11.389367 -0.000819 0.158783 1.709887 0.408777 -0.390581
 48 -0.000000 -4.440598 0.000002 1.570144 -3.078602 0.004040
 49 6.000000 0.000000 0.000001 1.709887 0.000000 0.000000
 50 0.000002 -4.440602 0.000000 1.569944 -3.078603 0.004053
 51 10.510131 -0.000001 0.000002 0.000000 -0.000000 -2.573520
 52 -0.000000 -1.748400 -5.000001 3.141593 0.004007 -1.539299
 53 5.500000 -0.000002 0.000002 0.236901 0.000000 0.000000
 54 -0.000001 0.000001 -4.999998 -0.044472 3.137590 -0.000177
 55 6.551490 0.000001 0.000001 -0.236901 -0.257268 -0.003720
 56 -1.266844 -1.937442 -4.950560 -0.066572 -2.988806 -0.110308
 57 6.551490 0.000001 0.000001 -0.236901 -0.257268 -0.003720
 58 0.699369 -1.944208 -5.006846 -0.027189 -3.088217 0.005298
 59 4.226145 -0.003201 0.000001 -0.158002 -0.051370 0.184728
 60 0.000002 5.000000 0.000001 -0.153564 0.000087 2.718702
 61 0.000004 -0.000005 -3.713579 0.095503 -3.012510 -0.750673
 62 0.000003 0.000001 4.999999 3.053197 1.558589 -0.074927
 63 -0.000007 0.000005 3.713580 -0.334410 -2.825096 -0.524885
 64 0.000001 -0.000000 -4.999999 -0.088726 1.558589 3.066334
 65 7.363603 1.646647 0.495663 -3.141593 -1.570796 0.000000
 66 -0.000006 0.000005 3.619081 -0.528284 -2.367383 -1.007256
 67 16.573921 -0.000001 0.000001 -0.000000 0.000000 -2.019199
 68 15.128181 0.000001 -0.000002 0.031619 0.086785 -0.033197
 69 5.758664 4.244731 -0.000000 0.000000 -0.000000 2.033309
 70 3.177726 0.000001 0.000000 0.000000 0.000000 3.141593
 71 15.708951 0.000002 -0.000003 0.016155 0.048356 -0.018185
 72 0.275149 0.189215 -3.445208 3.130898 0.000409 -1.514604
 73 17.210192 -0.000002 0.000002 0.000000 -0.000000 -2.322356
 74 0.000001 -0.000000 -5.000000 -0.079430 1.546568 -1.570856
 75 0.000006 -0.000005 -3.619080 0.196495 -3.011952 -1.279118
 76 16.573921 0.000000 0.000000 -0.000000 0.000000 -1.611348
 77 15.128181 -0.000002 0.000000 0.214418 -0.027533 0.774389
 78 5.758665 4.244730 -0.000000 -0.000000 -0.000000 1.483530
 79 4.003934 0.000000 0.000001 0.000000 0.000000 0.000000
 80 15.708953 -0.000001 0.000000 0.153371 0.002792 0.528179
 81 0.273998 0.191089 3.439762 -3.130907 -0.000437 -1.508107
 82 17.210192 0.000000 0.000000 0.000000 -0.000000 -2.138823
 83 0.000001 0.000001 5.000000 -0.079311 1.595025 -1.570737
time 15
  0 1.130557 9.712686 27.009436 -0.281436 0.436358 -2.443536
  1 11.368429 6.770639 -23.418964 -0.498313 0.132926 2.346876
  2 -2.276934 0.000003 -1.238187 -1.570795 -1.570451 0.000000
  3 1.796142 0.712012 0.000613 -0.191143 -0.159457 -0.285410
  4 4.119172 -0.003144 0.000739 -0.228328 0.070041 0.162605
  5 4.119055 -0.003164 0.000731 -0.225564 0.080845 0.123873
  6 4.119282 -0.003124 0.000729 -0.224482 0.077896 0.196593
  7 4.119642 -0.003196 0.001106 -0.318625 -0.072114 0.338486
  8 4.443598 -0.000001 0.000000 0.064625 0.502996 -0.922048
  9 9.024060 -0.000000 -0.000001 0.000000 0.000000 0.000000
 10 0.124844 -0.537849 1.641230 1.502862 -1.330449 1.378899
 11 6.384775 -0.000000 -0.000000 -0.520744 0.074602 -1.531808
 12 10.242681 0.000001 0.000000 -0.000000 0.000000 -1.119826
 13 11.375558 0.000000 0.000001 -2.111891 -0.074041 0.637109
 14 0.728681 0.023431 -1.008293 1.210021 0.600763 0.006085
 15 2.136499 -0.000002 -0.000000 -0.000000 -0.000000 -0.078540
 16 2.313137 0.000000 0.000000 0.000000 0.000000 0.000000
 17 3.115506 -0.886041 -0.021431 -0.620285 0.000392 0.514872
 18 2.011152 0.000001 -0.000000 0.000000 0.000000 1.322792
 19 2.141378 0.000000 0.000001 0.000000 0.000000 0.000000
 20 1.734174 0.000001 0.000001 -0.000000 0.000000 0.660693
 21 0.000005 -4.440592 0.000001 1.570544 -0.062990 -0.195737
 22 5.999998 -0.000000 0.000000 -1.982415 -0.000000 -0.000000
 23 -0.000002 -4.440600 -0.000000 1.569944 -0.062987 0.004053
 24 11.375561 -0.000001 0.000004 -1.836224 -0.084734 0.326697
 25 0.000001 -4.440603 0.000001 1.570144 -0.062988 0.004040
 26 10.510129 -0.000000 0.000001 -0.000000 -0.000000 -2.130709
 27 0.000000 -1.748399 4.999999 -0.000000 0.004007 1.602291
 28 5.499999 -0.000000 0.000001 0.207954 0.000000 -0.000000
 29 -0.000001 -1.940596 5.000000 -0.044472 0.004003 -0.000180
 30 6.551490 0.000000 0.000001 -0.431596 0.169169 -1.048377
 31 -0.000000 -1.940599 5.000003 -0.027189 -0.053376 0.005295
 32 6.551490 0.000000 0.000001 -0.162516 0.125488 -0.437399
 33 -0.000000 -1.940599 4.999997 -0.066572 -0.152786 -0.110311
 34 -0.124841 0.544925 -1.641230 -0.466809 0.987837 2.395835
 35 6.384777 0.000000 0.000002 -0.763178 -0.629972 0.196391
 36 10.242682 -0.000000 0.000001 -0.000000 -0.000000 -2.007748
 37 11.375560 -0.000001 -0.000001 1.658468 0.834352 -0.871541
 38 0.728681 0.023432 1.008291 -1.579583 -0.319038 0.212973
 39 2.136494 0.000002 0.000001 -0.000000 -0.000000 1.282817
 40 2.313139 -0.000000 -0.000000 0.000000 0.000000 3.141593
 41 3.115507 -0.886039 0.021432 0.420766 0.316066 0.167178
 42 2.011150 0.000000 -0.000002 -0.000000 0.000000 2.082010
 43 2.141379 -0.000000 -0.000000 0.000000 0.000000 3.141593
 44 1.734172 -0.000001 0.000000 -0.000000 -0.000000 1.041748
 45 0.136316 -3.738192 2.525890 1.493698 2.759406 -1.474501
 46 5.613162 0.862368 3.157033 1.595152 -0.135386 0.061522
 47 11.389366 -0.000819 0.158781 1.709344 0.407331 -0.391044
 48 -0.000001 -4.440600 0.000002 1.570144 -3.078602 0.004040
 49 5.999999 0.000000 -0.000001 1.709344 0.000000 -0.000000
 50 0.000002 -4.440600 0.000001 1.569944 -3.078603 0.004053
 51 10.510132 0.000001 0.000000 0.000000 0.000000 -2.574671
 52 0.000001 -1.748401 -5.000000 3.141593 0.004007 -1.539299
 53 5.499999 0.000001 0.000000 0.238589 0.000000 -0.000000
 54 0.000000 -0.000001 -4.999999 -0.044472 3.137589 -0.000177
 55 6.551490 0.000001 0.000001 -0.238589 -0.256866 -0.001491
 56 -1.266844 -1.937443 -4.950562 -0.066572 -2.988806 -0.110308
 57 6.551490 0.000001 0.000001 -0.238589 -0.256866 -0.001491
 58 0.699370 -1.944209 -5.006847 -0.027189 -3.088217 0.005298
 59 4.226145 -0.003201 0.000001 -0.158002 -0.051370 0.184728
 60 0.000002 5.000000 0.000001 -0.153564 0.000087 2.718702
 61 0.000004 -0.000005 -3.713579 0.095503 -3.012510 -0.750673
 62 0.000003 0.000001 4.999999 3.053197 1.558589 -0.074927
 63 -0.000007 0.000005 3.713580 -0.334410 -2.825096 -0.524885
 64 0.000001 -0.000000 -4.999999 -0.088726 1.558589 3.066334
 65 7.363603 1.646647 0.495663 -3.141593 -1.570796 0.000000
 66 -0.000006 0.000005 3.619081 -0.528284 -2.367383 -1.007256
 67 16.573921 -0.000001 0.000001 -0.000000 0.000000 -2.019199
 68 15.128181 0.000001 -0.000002 0.031619 0.086785 -0.033197
 69 5.758664 4.244731 -0.000000 0.000000 -0.000000 2.033309
 70 3.177726 0.000001 0.000000 0.000000 0.000000 3.141593
 71 15.708951 0.000002 -0.000003 0.016155 0.048356 -0.018185
 72 0.275149 0.189215 -3.445208 3.130898 0.000409 -1.514604
 73 17.210192 -0.000002 0.000002 0.000000 -0.000000 -2.322356
 74 0.000001 -0.000000 -5.000000 -0.079430 1.546568 -1.570856
 75 0.000006 -0.000005 -3.619080 0.196495 -3.011952 -1.279118
 76 16.573921 0.000000 0.000000 -0.000000 0.000000 -1.611348
 77 15.128181 -0.000002 0.000000 0.214418 -0.027533 0.774389
 78 5.758665 4.244730 -0.000000 -0.000000 -0.000000 1.483530
 79 4.003934 0.000000 0.000001 0.000000 0.000000 0.000000
 80 15.708953 -0.000001 0.000000 0.153371 0.002792 0.528179
 81 0.273998 0.191089 3.439762 -3.130907 -0.000437 -1.508107
 82 17.210192 0.000000 0.000000 0.000000 -0.000000 -2.138823
 83 0.000001 0.000001 5.000000 -0.079311 1.595025 -1.570737
end
