version 1
nodes
  0 "Bip01"  -1
  1 "Bip01 Footsteps"   0
  2 "Bip01 Pelvis"   0
  3 "Bip01 Spine"   2
  4 "Bip01 Spine1"   3
  5 "Bip01 Spine2"   4
  6 "Bip01 Spine3"   5
  7 "Bip01 Neck"   6
  8 "Bip01 Head"   7
  9 "Dummy21"   8
 10 "Bip01 L Clavicle"   7
 11 "Bip01 L UpperArm"  10
 12 "Bip01 L Forearm"  11
 13 "Bip01 L Hand"  12
 14 "Bip01 L Finger0"  13
 15 "Bip01 L Finger01"  14
 16 "Dummy06"  15
 17 "Bip01 L Finger1"  13
 18 "Bip01 L Finger11"  17
 19 "Dummy03"  18
 20 "-- L knuckle"  17
 21 "-- L knuckle_end"  20
 22 "-- L Forearm twist"  12
 23 "-- L Forearm twist_end"  22
 24 "-- L wrist"  12
 25 "-- L wrist_end"  24
 26 "-- L Elbow"  11
 27 "--L Elbow_end"  26
 28 "-- L bicep twist"  11
 29 "-- L bicep twist_end"  28
 30 "-- L shoulder outside"  10
 31 "-- L shoulder outside_end"  30
 32 "-- L Shoulder inside"  10
 33 "-- L Shoulder inside_end"  32
 34 "Bip01 R Clavicle"   7
 35 "Bip01 R UpperArm"  34
 36 "Bip01 R Forearm"  35
 37 "Bip01 R Hand"  36
 38 "Bip01 R Finger0"  37
 39 "Bip01 R Finger01"  38
 40 "Dummy01"  39
 41 "Bip01 R Finger1"  37
 42 "Bip01 R Finger11"  41
 43 "Dummy02"  42
 44 "-- R knuckle"  41
 45 "Point06"  44
 46 "Line01"  37
 47 "-- R wrist"  36
 48 "-- R wrist_end"  47
 49 "-- R forearm twist"  36
 50 "-- R forearm twist_end"  49
 51 "-- R Elbow"  35
 52 "--R Elbow_end"  51
 53 "-- R bicep twist"  35
 54 "-- R bicep twist_end"  53
 55 "-- R Shoulder inside"  34
 56 "-- R Shoulder inside_end"  55
 57 "-- R shoulder outside"  34
 58 "-- R shoulder outside_end"  57
 59 "-- Neck smooth"   6
 60 "-- neck smooth end"  59
 61 "-- R Butt"   2
 62 "--R Butt_end"  61
 63 "-- L butt"   2
 64 "--L butt_end"  63
 65 "GIGN01"   2
 66 "Bip01 L Thigh"   2
 67 "Bip01 L Calf"  66
 68 "Bip01 L Foot"  67
 69 "Bip01 L Toe0"  68
 70 "Dummy16"  69
 71 "-- L ankle"  67
 72 "-- L ankleend"  71
 73 "-- L Knee"  66
 74 "--L Knee_end"  73
 75 "Bip01 R Thigh"   2
 76 "Bip01 R Calf"  75
 77 "Bip01 R Foot"  76
 78 "Bip01 R Toe0"  77
 79 "Dummy11"  78
 80 "-- R Ankle"  76
 81 "-- R ankleend"  80
 82 "-- R Knee"  75
 83 "--R Knee_end"  82
end
skeleton
time 0
  0 1.130557 9.712686 27.009436 -0.281436 0.436358 -2.443536
  1 11.368429 6.770639 -23.418964 -0.498313 0.132926 2.346876
  2 -2.276934 0.000003 -1.238187 -1.570795 -1.570451 0.000000
  3 1.795901 0.712040 -0.000088 0.026299 0.083186 -0.386677
  4 4.119108 -0.003240 0.000016 -0.004885 -0.020411 0.154680
  5 4.118993 -0.003255 0.000002 -0.000674 -0.035929 0.119199
  6 4.119221 -0.003222 0.000007 -0.002437 -0.020193 0.189363
  7 4.119567 -0.003145 -0.001305 0.377719 -0.007826 0.294831
  8 4.443599 0.000002 -0.000000 0.478150 0.021995 -0.945679
  9 9.024062 0.000000 -0.000000 0.000000 0.000000 0.000000
 10 0.013559 0.642548 1.610530 -0.072658 -1.304356 2.935082
 11 6.384776 0.000001 0.000002 -1.027415 0.537133 -1.966547
 12 10.242680 0.000001 0.000000 -0.000000 0.000000 -1.734388
 13 11.375561 -0.000000 0.000000 -1.869228 -0.144921 0.430707
 14 0.728680 0.023431 -1.008290 1.210021 0.600763 0.006085
 15 2.136498 -0.000001 -0.000000 -0.000000 -0.000000 -0.078540
 16 2.313139 0.000000 0.000001 0.000000 0.000000 0.000000
 17 3.115506 -0.886041 -0.021429 -0.620285 0.000392 0.514872
 18 2.011150 -0.000001 0.000001 0.000000 0.000000 1.322792
 19 2.141379 0.000000 -0.000001 0.000000 0.000000 0.000000
 20 1.734173 0.000001 0.000000 0.000000 0.000000 0.660693
 21 0.000003 -4.440594 0.000001 1.570544 -0.062990 -0.195737
 22 6.000000 0.000000 0.000000 -1.793781 -0.000000 0.000000
 23 0.000002 -4.440601 -0.000001 1.569944 -0.062987 0.004053
 24 11.375562 0.000000 0.000003 -1.713271 -0.095135 0.228314
 25 -0.000001 -4.440603 -0.000000 1.570144 -0.062988 0.004040
 26 10.510128 0.000000 0.000000 0.000000 0.000000 -2.437990
 27 0.000002 -1.748400 4.999999 0.000000 0.004007 1.602290
 28 5.499998 0.000000 0.000000 0.184019 0.000000 0.000000
 29 0.000000 -1.940599 5.000000 -0.044472 0.004003 -0.000180
 30 6.551491 0.000000 0.000001 -0.733247 0.655877 -1.467624
 31 -0.000003 -1.940600 5.000001 -0.027189 -0.053376 0.005295
 32 6.551491 0.000000 0.000001 -0.117127 0.336859 -0.425734
 33 -0.000001 -1.940600 4.999995 -0.066572 -0.152786 -0.110311
 34 -0.013556 -0.635468 -1.610530 0.302964 1.158640 3.129834
 35 6.384776 -0.000002 0.000002 -0.565506 -0.475832 -0.155717
 36 10.242683 -0.000005 0.000002 -0.000000 -0.000000 -1.711659
 37 11.375558 0.000000 -0.000000 1.484357 0.524496 -1.131050
 38 0.728681 0.023431 1.008292 -1.579583 -0.319038 0.212973
 39 2.136496 -0.000001 0.000000 -0.000000 0.000000 1.282817
 40 2.313138 -0.000000 -0.000000 0.000000 0.000000 3.141593
 41 3.115506 -0.886042 0.021431 0.420766 0.316066 0.167178
 42 2.011150 0.000000 0.000000 -0.000000 -0.000000 2.082010
 43 2.141380 -0.000000 -0.000000 0.000000 0.000000 3.141593
 44 1.734172 -0.000001 -0.000000 -0.000000 0.000000 1.041748
 45 0.136314 -3.738193 2.525890 1.493698 2.759406 -1.474501
 46 5.613160 0.862366 3.157032 1.595152 -0.135386 0.061522
 47 11.389364 -0.000819 0.158781 1.601858 0.276031 -0.520582
 48 0.000001 -4.440598 -0.000000 1.570144 -3.078602 0.004040
 49 5.999999 0.000000 -0.000000 1.601858 0.000000 -0.000000
 50 0.000002 -4.440601 0.000000 1.569944 -3.078603 0.004053
 51 10.510130 -0.000003 0.000002 -0.000000 -0.000000 -2.426626
 52 0.000000 -1.748402 -5.000001 -3.141593 0.004007 -1.539299
 53 5.499999 -0.000001 0.000001 0.177860 0.000000 0.000000
 54 -0.000001 0.000002 -4.999999 -0.044472 3.137589 -0.000177
 55 6.551490 0.000000 -0.000001 -0.177860 -0.193430 -0.120433
 56 -1.266843 -1.937442 -4.950559 -0.066572 -2.988806 -0.110308
 57 6.551491 -0.000002 0.000002 -0.177860 -0.193430 -0.120433
 58 0.699370 -1.944209 -5.006846 -0.027189 -3.088217 0.005298
 59 4.226147 -0.003202 -0.000001 0.190455 0.010171 0.165554
 60 -0.000000 5.000000 -0.000000 -0.153564 0.000087 2.718702
 61 0.000004 -0.000005 -3.713579 0.095503 -3.012510 -0.750673
 62 0.000003 0.000001 4.999999 3.053197 1.558589 -0.074927
 63 -0.000007 0.000005 3.713580 -0.334410 -2.825096 -0.524885
 64 0.000001 -0.000000 -4.999999 -0.088726 1.558589 3.066334
 65 7.363603 1.646647 0.495663 -3.141593 -1.570796 0.000000
 66 -0.000006 0.000005 3.619081 -0.528284 -2.367383 -1.007256
 67 16.573921 -0.000001 0.000001 -0.000000 0.000000 -2.019199
 68 15.128181 0.000001 -0.000002 0.031619 0.086785 -0.033197
 69 5.758664 4.244731 -0.000000 0.000000 -0.000000 2.033309
 70 3.177726 0.000001 0.000000 0.000000 0.000000 3.141593
 71 15.708951 0.000002 -0.000003 0.016155 0.048356 -0.018185
 72 0.275149 0.189215 -3.445208 3.130898 0.000409 -1.514604
 73 17.210192 -0.000002 0.000002 0.000000 -0.000000 -2.322356
 74 0.000001 -0.000000 -5.000000 -0.079430 1.546568 -1.570856
 75 0.000006 -0.000005 -3.619080 0.196495 -3.011952 -1.279118
 76 16.573921 0.000000 0.000000 -0.000000 0.000000 -1.611348
 77 15.128181 -0.000002 0.000000 0.214418 -0.027533 0.774389
 78 5.758665 4.244730 -0.000000 -0.000000 -0.000000 1.483530
 79 4.003934 0.000000 0.000001 0.000000 0.000000 0.000000
 80 15.708953 -0.000001 0.000000 0.153371 0.002792 0.528179
 81 0.273998 0.191089 3.439762 -3.130907 -0.000437 -1.508107
 82 17.210192 0.000000 0.000000 0.000000 -0.000000 -2.138823
 83 0.000001 0.000001 5.000000 -0.079311 1.595025 -1.570737
time 1
  0 1.130557 9.712686 27.009436 -0.281436 0.436358 -2.443536
  1 11.368429 6.770639 -23.418964 -0.498313 0.132926 2.346876
  2 -2.276934 0.000003 -1.238187 -1.570795 -1.570451 0.000000
  3 1.795899 0.712041 -0.000087 0.026189 0.036560 -0.387903
  4 4.119110 -0.003241 0.000015 -0.004873 -0.006419 0.154612
  5 4.118991 -0.003256 0.000003 -0.000655 -0.012608 0.119184
  6 4.119222 -0.003221 0.000007 -0.002426 -0.006200 0.189329
  7 4.119659 -0.003120 -0.001293 0.374036 -0.005074 0.324980
  8 4.443598 -0.000001 -0.000000 0.504853 0.033576 -0.996366
  9 9.024062 -0.000000 -0.000000 0.000000 0.000000 0.000000
 10 0.008792 0.636618 1.612901 -0.095816 -1.291748 2.930351
 11 6.384775 0.000002 -0.000001 -1.060841 0.491889 -1.966842
 12 10.242682 -0.000002 0.000000 0.000000 -0.000000 -1.698318
 13 11.375562 0.000001 0.000002 -1.898673 -0.130039 0.435069
 14 0.728682 0.023432 -1.008293 1.210021 0.600764 0.006085
 15 2.136498 -0.000000 0.000000 -0.000000 -0.000000 -0.078540
 16 2.313139 0.000000 -0.000000 0.000000 0.000000 0.000000
 17 3.115507 -0.886041 -0.021432 -0.620285 0.000392 0.514872
 18 2.011152 0.000001 -0.000000 0.000000 -0.000000 1.322792
 19 2.141379 0.000001 0.000001 0.000000 0.000000 0.000000
 20 1.734173 0.000001 0.000000 -0.000000 0.000000 0.660693
 21 0.000008 -4.440594 -0.000000 1.570544 -0.062990 -0.195737
 22 6.000001 0.000000 0.000001 -1.816477 -0.000000 0.000000
 23 0.000003 -4.440601 -0.000001 1.569944 -0.062987 0.004053
 24 11.375562 0.000001 0.000004 -1.728643 -0.089122 0.230785
 25 -0.000003 -4.440603 0.000002 1.570144 -0.062988 0.004040
 26 10.510130 -0.000002 -0.000000 -0.000000 -0.000000 -2.419955
 27 0.000000 -1.748401 4.999998 -0.000000 0.004007 1.602290
 28 5.500002 -0.000000 0.000000 0.200289 -0.000000 0.000000
 29 -0.000002 -1.940598 5.000000 -0.044472 0.004003 -0.000180
 30 6.551490 0.000002 -0.000001 -0.766190 0.630081 -1.492482
 31 0.000001 -1.940598 5.000000 -0.027189 -0.053376 0.005295
 32 6.551490 0.000002 -0.000001 -0.128880 0.331809 -0.429690
 33 -0.000001 -1.940599 4.999996 -0.066572 -0.152786 -0.110311
 34 -0.008789 -0.629542 -1.612901 0.313256 1.198316 3.115487
 35 6.384774 -0.000000 -0.000002 -0.535151 -0.477960 -0.177794
 36 10.242682 0.000000 0.000000 -0.000000 -0.000000 -1.742329
 37 11.375562 0.000002 0.000000 1.520139 0.528673 -1.059878
 38 0.728681 0.023431 1.008292 -1.579583 -0.319038 0.212973
 39 2.136496 -0.000000 0.000000 0.000000 0.000000 1.282817
 40 2.313139 -0.000000 0.000000 0.000000 0.000000 3.141593
 41 3.115507 -0.886042 0.021430 0.420766 0.316066 0.167178
 42 2.011151 -0.000000 -0.000000 -0.000000 -0.000000 2.082010
 43 2.141380 -0.000000 0.000000 0.000000 0.000000 3.141593
 44 1.734172 -0.000001 0.000001 -0.000000 -0.000000 1.041748
 45 0.136314 -3.738193 2.525890 1.493698 2.759406 -1.474501
 46 5.613160 0.862366 3.157031 1.595152 -0.135386 0.061522
 47 11.389367 -0.000818 0.158781 1.615456 0.272361 -0.489888
 48 0.000001 -4.440598 0.000002 1.570144 -3.078602 0.004040
 49 6.000000 0.000000 -0.000000 1.615455 0.000000 -0.000000
 50 0.000003 -4.440601 -0.000000 1.569944 -3.078603 0.004053
 51 10.510132 -0.000001 0.000002 0.000000 0.000000 -2.441961
 52 -0.000000 -1.748399 -5.000002 -3.141593 0.004007 -1.539299
 53 5.500000 0.000000 0.000001 0.169241 -0.000000 -0.000000
 54 -0.000001 -0.000002 -5.000001 -0.044472 3.137590 -0.000177
 55 6.551489 -0.000002 0.000001 -0.169241 -0.191322 -0.127880
 56 -1.266843 -1.937442 -4.950559 -0.066572 -2.988806 -0.110308
 57 6.551490 -0.000001 0.000001 -0.169241 -0.191322 -0.127880
 58 0.699370 -1.944209 -5.006848 -0.027189 -3.088217 0.005298
 59 4.226145 -0.003202 -0.000000 0.188410 0.012916 0.181046
 60 0.000001 4.999999 -0.000001 -0.153564 0.000087 2.718702
 61 0.000004 -0.000005 -3.713579 0.095503 -3.012510 -0.750673
 62 0.000003 0.000001 4.999999 3.053197 1.558589 -0.074927
 63 -0.000007 0.000005 3.713580 -0.334410 -2.825096 -0.524885
 64 0.000001 -0.000000 -4.999999 -0.088726 1.558589 3.066334
 65 7.363603 1.646647 0.495663 -3.141593 -1.570796 0.000000
 66 -0.000006 0.000005 3.619081 -0.528284 -2.367383 -1.007256
 67 16.573921 -0.000001 0.000001 -0.000000 0.000000 -2.019199
 68 15.128181 0.000001 -0.000002 0.031619 0.086785 -0.033197
 69 5.758664 4.244731 -0.000000 0.000000 -0.000000 2.033309
 70 3.177726 0.000001 0.000000 0.000000 0.000000 3.141593
 71 15.708951 0.000002 -0.000003 0.016155 0.048356 -0.018185
 72 0.275149 0.189215 -3.445208 3.130898 0.000409 -1.514604
 73 17.210192 -0.000002 0.000002 0.000000 -0.000000 -2.322356
 74 0.000001 -0.000000 -5.000000 -0.079430 1.546568 -1.570856
 75 0.000006 -0.000005 -3.619080 0.196495 -3.011952 -1.279118
 76 16.573921 0.000000 0.000000 -0.000000 0.000000 -1.611348
 77 15.128181 -0.000002 0.000000 0.214418 -0.027533 0.774389
 78 5.758665 4.244730 -0.000000 -0.000000 -0.000000 1.483530
 79 4.003934 0.000000 0.000001 0.000000 0.000000 0.000000
 80 15.708953 -0.000001 0.000000 0.153371 0.002792 0.528179
 81 0.273998 0.191089 3.439762 -3.130907 -0.000437 -1.508107
 82 17.210192 0.000000 0.000000 0.000000 -0.000000 -2.138823
 83 0.000001 0.000001 5.000000 -0.079311 1.595025 -1.570737
time 2
  0 1.130557 9.712686 27.009436 -0.281436 0.436358 -2.443536
  1 11.368429 6.770639 -23.418964 -0.498313 0.132926 2.346876
  2 -2.276934 0.000003 -1.238187 -1.570795 -1.570451 0.000000
  3 1.795899 0.712041 -0.000087 0.026136 -0.010065 -0.389123
  4 4.119109 -0.003241 0.000015 -0.004862 0.007573 0.154544
  5 4.118995 -0.003257 0.000002 -0.000636 0.010712 0.119169
  6 4.119220 -0.003220 0.000007 -0.002415 0.007792 0.189295
  7 4.119759 -0.003089 -0.001280 0.370154 -0.001969 0.357550
  8 4.443598 0.000001 -0.000000 0.532235 0.047955 -1.050106
  9 9.024063 0.000000 0.000000 0.000000 0.000000 0.000000
 10 0.003410 0.630362 1.615364 -0.119980 -1.278152 2.924323
 11 6.384776 0.000002 0.000001 -1.092478 0.448288 -1.964043
 12 10.242682 0.000001 0.000000 -0.000000 0.000000 -1.661823
 13 11.375561 -0.000001 0.000001 -1.928509 -0.114952 0.436336
 14 0.728681 0.023430 -1.008289 1.210021 0.600763 0.006085
 15 2.136498 -0.000000 -0.000001 0.000000 -0.000000 -0.078540
 16 2.313138 0.000000 -0.000001 0.000000 0.000000 0.000000
 17 3.115507 -0.886041 -0.021428 -0.620285 0.000392 0.514872
 18 2.011152 0.000000 -0.000001 0.000000 -0.000000 1.322792
 19 2.141381 0.000000 -0.000002 0.000000 0.000000 0.000000
 20 1.734173 0.000002 -0.000001 -0.000000 -0.000000 0.660693
 21 0.000007 -4.440594 0.000000 1.570544 -0.062990 -0.195737
 22 5.999999 -0.000001 0.000000 -1.839522 -0.000000 -0.000000
 23 0.000001 -4.440600 0.000000 1.569944 -0.062987 0.004053
 24 11.375561 -0.000001 0.000004 -1.744281 -0.082952 0.231835
 25 0.000000 -4.440602 -0.000002 1.570144 -0.062988 0.004040
 26 10.510129 -0.000001 0.000000 0.000000 0.000000 -2.401708
 27 0.000001 -1.748400 4.999998 0.000000 0.004007 1.602290
 28 5.500000 0.000001 0.000000 0.215746 0.000000 0.000000
 29 -0.000000 -1.940597 5.000000 -0.044472 0.004003 -0.000180
 30 6.551490 0.000001 0.000000 -0.796642 0.604602 -1.513757
 31 -0.000002 -1.940600 5.000001 -0.027189 -0.053376 0.005295
 32 6.551490 0.000001 0.000000 -0.140027 0.326776 -0.432840
 33 0.000000 -1.940599 4.999997 -0.066572 -0.152786 -0.110311
 34 -0.003409 -0.623281 -1.615365 0.324259 1.238940 3.099565
 35 6.384776 -0.000001 0.000001 -0.502423 -0.480469 -0.202096
 36 10.242681 0.000000 0.000001 0.000000 -0.000000 -1.769790
 37 11.375563 0.000003 -0.000001 1.556237 0.530635 -0.988451
 38 0.728680 0.023431 1.008293 -1.579583 -0.319038 0.212973
 39 2.136496 0.000000 0.000000 -0.000000 0.000000 1.282817
 40 2.313139 0.000000 -0.000000 0.000000 0.000000 3.141593
 41 3.115507 -0.886041 0.021433 0.420766 0.316066 0.167178
 42 2.011150 -0.000000 0.000001 0.000000 0.000000 2.082010
 43 2.141379 0.000000 0.000000 0.000000 0.000000 3.141593
 44 1.734172 -0.000002 0.000000 0.000000 0.000000 1.041748
 45 0.136315 -3.738193 2.525890 1.493698 2.759406 -1.474501
 46 5.613159 0.862366 3.157031 1.595152 -0.135386 0.061522
 47 11.389367 -0.000817 0.158780 1.628508 0.268493 -0.460111
 48 0.000000 -4.440599 0.000000 1.570144 -3.078602 0.004040
 49 6.000001 0.000002 -0.000001 1.628508 0.000000 0.000000
 50 0.000000 -4.440601 0.000001 1.569944 -3.078603 0.004053
 51 10.510133 -0.000001 0.000002 0.000000 0.000000 -2.455691
 52 0.000000 -1.748402 -5.000001 -3.141593 0.004007 -1.539299
 53 5.499999 0.000002 0.000000 0.160046 0.000000 -0.000000
 54 0.000002 -0.000004 -5.000000 -0.044472 3.137589 -0.000177
 55 6.551490 -0.000000 0.000000 -0.160046 -0.189150 -0.135664
 56 -1.266844 -1.937443 -4.950561 -0.066572 -2.988806 -0.110308
 57 6.551490 -0.000001 0.000000 -0.160046 -0.189150 -0.135664
 58 0.699370 -1.944208 -5.006845 -0.027189 -3.088217 0.005298
 59 4.226146 -0.003201 -0.000000 0.186224 0.015906 0.197472
 60 -0.000001 5.000001 0.000000 -0.153564 0.000087 2.718702
 61 0.000004 -0.000005 -3.713579 0.095503 -3.012510 -0.750673
 62 0.000003 0.000001 4.999999 3.053197 1.558589 -0.074927
 63 -0.000007 0.000005 3.713580 -0.334410 -2.825096 -0.524885
 64 0.000001 -0.000000 -4.999999 -0.088726 1.558589 3.066334
 65 7.363603 1.646647 0.495663 -3.141593 -1.570796 0.000000
 66 -0.000006 0.000005 3.619081 -0.528284 -2.367383 -1.007256
 67 16.573921 -0.000001 0.000001 -0.000000 0.000000 -2.019199
 68 15.128181 0.000001 -0.000002 0.031619 0.086785 -0.033197
 69 5.758664 4.244731 -0.000000 0.000000 -0.000000 2.033309
 70 3.177726 0.000001 0.000000 0.000000 0.000000 3.141593
 71 15.708951 0.000002 -0.000003 0.016155 0.048356 -0.018185
 72 0.275149 0.189215 -3.445208 3.130898 0.000409 -1.514604
 73 17.210192 -0.000002 0.000002 0.000000 -0.000000 -2.322356
 74 0.000001 -0.000000 -5.000000 -0.079430 1.546568 -1.570856
 75 0.000006 -0.000005 -3.619080 0.196495 -3.011952 -1.279118
 76 16.573921 0.000000 0.000000 -0.000000 0.000000 -1.611348
 77 15.128181 -0.000002 0.000000 0.214418 -0.027533 0.774389
 78 5.758665 4.244730 -0.000000 -0.000000 -0.000000 1.483530
 79 4.003934 0.000000 0.000001 0.000000 0.000000 0.000000
 80 15.708953 -0.000001 0.000000 0.153371 0.002792 0.528179
 81 0.273998 0.191089 3.439762 -3.130907 -0.000437 -1.508107
 82 17.210192 0.000000 0.000000 0.000000 -0.000000 -2.138823
 83 0.000001 0.000001 5.000000 -0.079311 1.595025 -1.570737
time 3
  0 1.130557 9.712686 27.009436 -0.281436 0.436358 -2.443536
  1 11.368429 6.770639 -23.418964 -0.498313 0.132926 2.346876
  2 -2.276934 0.000003 -1.238187 -1.570795 -1.570451 0.000000
  3 1.795901 0.712040 -0.000087 0.026131 -0.038642 -0.389870
  4 4.119111 -0.003241 0.000015 -0.004856 0.016149 0.154502
  5 4.118992 -0.003255 0.000003 -0.000625 0.025006 0.119160
  6 4.119218 -0.003220 0.000009 -0.002408 0.016368 0.189275
  7 4.119843 -0.003060 -0.001269 0.366934 0.000777 0.385254
  8 4.443599 0.000000 0.000000 0.551915 0.061235 -1.096146
  9 9.024062 0.000001 -0.000000 0.000000 0.000000 0.000000
 10 -0.001346 0.625158 1.617377 -0.139928 -1.266612 2.918534
 11 6.384776 0.000002 0.000001 -1.109294 0.425975 -1.960559
 12 10.242681 0.000001 0.000000 0.000000 -0.000000 -1.643151
 13 11.375562 0.000001 0.000002 -1.944968 -0.107001 0.436380
 14 0.728681 0.023431 -1.008292 1.210021 0.600763 0.006085
 15 2.136500 -0.000001 -0.000003 0.000000 -0.000000 -0.078540
 16 2.313137 0.000000 0.000000 0.000000 0.000000 0.000000
 17 3.115505 -0.886042 -0.021429 -0.620285 0.000392 0.514872
 18 2.011150 -0.000000 0.000001 -0.000000 0.000000 1.322792
 19 2.141380 0.000001 -0.000001 0.000000 0.000000 0.000000
 20 1.734171 0.000001 0.000001 -0.000000 -0.000000 0.660693
 21 0.000005 -4.440593 -0.000000 1.570544 -0.062990 -0.195737
 22 6.000000 -0.000000 0.000001 -1.852239 0.000000 -0.000000
 23 0.000002 -4.440601 -0.000000 1.569944 -0.062987 0.004053
 24 11.375562 0.000000 0.000004 -1.752898 -0.079723 0.232109
 25 -0.000001 -4.440602 0.000001 1.570144 -0.062988 0.004040
 26 10.510130 0.000002 -0.000000 -0.000000 -0.000000 -2.392372
 27 -0.000000 -1.748400 4.999998 0.000000 0.004007 1.602290
 28 5.499997 -0.000000 -0.000000 0.223709 0.000000 -0.000000
 29 -0.000001 -1.940600 5.000000 -0.044472 0.004003 -0.000180
 30 6.551490 0.000000 -0.000001 -0.811987 0.591556 -1.523010
 31 -0.000003 -1.940599 5.000001 -0.027189 -0.053376 0.005295
 32 6.551490 0.000000 -0.000001 -0.145783 0.324270 -0.434077
 33 -0.000001 -1.940598 4.999998 -0.066572 -0.152786 -0.110311
 34 0.001351 -0.618081 -1.617377 0.326475 1.265506 3.078315
 35 6.384776 -0.000001 -0.000000 -0.484190 -0.481533 -0.216663
 36 10.242682 -0.000003 0.000001 -0.000000 0.000000 -1.783449
 37 11.375558 -0.000000 -0.000001 1.576042 0.530765 -0.949326
 38 0.728680 0.023431 1.008291 -1.579583 -0.319038 0.212973
 39 2.136497 -0.000001 -0.000001 -0.000000 0.000000 1.282817
 40 2.313140 0.000001 0.000000 0.000000 0.000000 3.141593
 41 3.115507 -0.886041 0.021432 0.420766 0.316066 0.167178
 42 2.011151 0.000000 0.000001 -0.000000 -0.000000 2.082010
 43 2.141380 -0.000000 -0.000000 0.000000 0.000000 3.141593
 44 1.734172 -0.000001 0.000000 0.000000 0.000000 1.041748
 45 0.136315 -3.738193 2.525890 1.493698 2.759406 -1.474501
 46 5.613159 0.862366 3.157030 1.595152 -0.135386 0.061522
 47 11.389365 -0.000818 0.158781 1.635432 0.266305 -0.444155
 48 0.000001 -4.440599 0.000001 1.570144 -3.078602 0.004040
 49 5.999998 -0.000000 -0.000001 1.635432 0.000000 -0.000000
 50 0.000003 -4.440601 -0.000000 1.569944 -3.078603 0.004053
 51 10.510134 -0.000003 0.000002 0.000000 -0.000000 -2.462521
 52 0.000001 -1.748400 -5.000002 3.141593 0.004007 -1.539299
 53 5.500000 -0.000001 0.000000 0.154943 -0.000000 -0.000000
 54 -0.000002 -0.000000 -5.000001 -0.044472 3.137589 -0.000177
 55 6.551489 -0.000000 -0.000001 -0.154943 -0.187744 -0.140149
 56 -1.266844 -1.937444 -4.950559 -0.066572 -2.988806 -0.110308
 57 6.551490 -0.000000 -0.000001 -0.154943 -0.187744 -0.140149
 58 0.699370 -1.944208 -5.006846 -0.027189 -3.088217 0.005298
 59 4.226148 -0.003202 -0.000001 0.184385 0.018468 0.211196
 60 -0.000001 5.000002 0.000000 -0.153564 0.000087 2.718702
 61 0.000004 -0.000005 -3.713579 0.095503 -3.012510 -0.750673
 62 0.000003 0.000001 4.999999 3.053197 1.558589 -0.074927
 63 -0.000007 0.000005 3.713580 -0.334410 -2.825096 -0.524885
 64 0.000001 -0.000000 -4.999999 -0.088726 1.558589 3.066334
 65 7.363603 1.646647 0.495663 -3.141593 -1.570796 0.000000
 66 -0.000006 0.000005 3.619081 -0.528284 -2.367383 -1.007256
 67 16.573921 -0.000001 0.000001 -0.000000 0.000000 -2.019199
 68 15.128181 0.000001 -0.000002 0.031619 0.086785 -0.033197
 69 5.758664 4.244731 -0.000000 0.000000 -0.000000 2.033309
 70 3.177726 0.000001 0.000000 0.000000 0.000000 3.141593
 71 15.708951 0.000002 -0.000003 0.016155 0.048356 -0.018185
 72 0.275149 0.189215 -3.445208 3.130898 0.000409 -1.514604
 73 17.210192 -0.000002 0.000002 0.000000 -0.000000 -2.322356
 74 0.000001 -0.000000 -5.000000 -0.079430 1.546568 -1.570856
 75 0.000006 -0.000005 -3.619080 0.196495 -3.011952 -1.279118
 76 16.573921 0.000000 0.000000 -0.000000 0.000000 -1.611348
 77 15.128181 -0.000002 0.000000 0.214418 -0.027533 0.774389
 78 5.758665 4.244730 -0.000000 -0.000000 -0.000000 1.483530
 79 4.003934 0.000000 0.000001 0.000000 0.000000 0.000000
 80 15.708953 -0.000001 0.000000 0.153371 0.002792 0.528179
 81 0.273998 0.191089 3.439762 -3.130907 -0.000437 -1.508107
 82 17.210192 0.000000 0.000000 0.000000 -0.000000 -2.138823
 83 0.000001 0.000001 5.000000 -0.079311 1.595025 -1.570737
time 4
  0 1.130557 9.712686 27.009436 -0.281436 0.436358 -2.443536
  1 11.368429 6.770639 -23.418964 -0.498313 0.132926 2.346876
  2 -2.276934 0.000003 -1.238187 -1.570795 -1.570451 0.000000
  3 1.795901 0.712040 -0.000087 0.026134 -0.048042 -0.390116
  4 4.119109 -0.003240 0.000015 -0.004854 0.018970 0.154488
  5 4.118993 -0.003256 0.000003 -0.000622 0.029707 0.119157
  6 4.119220 -0.003220 0.000008 -0.002406 0.019189 0.189268
  7 4.119888 -0.003044 -0.001264 0.365160 0.002361 0.400815
  8 4.443599 -0.000000 -0.000000 0.560892 0.068926 -1.122569
  9 9.024060 0.000000 -0.000000 0.000000 0.000000 0.000000
 10 -0.004090 0.622285 1.618473 -0.150913 -1.260142 2.915041
 11 6.384775 0.000001 0.000002 -1.113715 0.420810 -1.959014
 12 10.242681 -0.000000 -0.000000 0.000000 -0.000000 -1.639292
 13 11.375561 -0.000001 0.000001 -1.949218 -0.105161 0.436686
 14 0.728680 0.023431 -1.008293 1.210021 0.600763 0.006085
 15 2.136496 0.000000 0.000000 -0.000000 -0.000000 -0.078540
 16 2.313139 -0.000000 0.000001 0.000000 0.000000 0.000000
 17 3.115506 -0.886040 -0.021433 -0.620285 0.000392 0.514872
 18 2.011152 0.000000 -0.000000 0.000000 0.000000 1.322791
 19 2.141380 -0.000001 -0.000001 0.000000 0.000000 0.000000
 20 1.734173 0.000001 -0.000001 -0.000000 0.000000 0.660693
 21 0.000004 -4.440593 -0.000001 1.570544 -0.062990 -0.195737
 22 5.999999 -0.000000 0.000001 -1.855518 -0.000000 -0.000000
 23 0.000002 -4.440601 0.000001 1.569944 -0.062987 0.004053
 24 11.375561 -0.000001 0.000004 -1.755109 -0.079014 0.232315
 25 -0.000000 -4.440603 0.000002 1.570144 -0.062988 0.004040
 26 10.510131 0.000000 -0.000000 -0.000000 -0.000000 -2.390442
 27 -0.000003 -1.748401 4.999998 0.000000 0.004007 1.602291
 28 5.500000 -0.000000 0.000000 0.225626 0.000000 0.000000
 29 -0.000001 -1.940597 5.000000 -0.044472 0.004003 -0.000180
 30 6.551490 0.000001 0.000002 -0.815615 0.588678 -1.524596
 31 -0.000002 -1.940599 5.000001 -0.027189 -0.053376 0.005295
 32 6.551490 0.000001 0.000002 -0.147182 0.323774 -0.434252
 33 -0.000002 -1.940598 4.999998 -0.066572 -0.152786 -0.110311
 34 0.004095 -0.615210 -1.618473 0.322726 1.276114 3.061139
 35 6.384776 -0.000000 0.000001 -0.479760 -0.481566 -0.220777
 36 10.242682 -0.000002 -0.000000 0.000000 -0.000000 -1.786851
 37 11.375559 -0.000000 -0.000001 1.581206 0.530689 -0.939124
 38 0.728681 0.023431 1.008291 -1.579583 -0.319038 0.212973
 39 2.136497 -0.000001 -0.000000 -0.000000 0.000000 1.282817
 40 2.313140 -0.000000 -0.000000 0.000000 0.000000 3.141593
 41 3.115507 -0.886042 0.021431 0.420766 0.316066 0.167178
 42 2.011150 -0.000001 -0.000001 -0.000000 0.000000 2.082010
 43 2.141380 -0.000000 0.000000 0.000000 0.000000 3.141593
 44 1.734172 -0.000001 0.000001 0.000000 -0.000000 1.041748
 45 0.136315 -3.738192 2.525889 1.493698 2.759406 -1.474501
 46 5.613161 0.862366 3.157033 1.595152 -0.135386 0.061522
 47 11.389365 -0.000819 0.158781 1.637213 0.265727 -0.440029
 48 0.000000 -4.440599 -0.000001 1.570144 -3.078602 0.004040
 49 5.999999 0.000000 -0.000000 1.637213 -0.000000 0.000000
 50 0.000000 -4.440601 0.000000 1.569944 -3.078603 0.004053
 51 10.510131 -0.000002 0.000001 -0.000000 0.000000 -2.464222
 52 0.000000 -1.748400 -5.000002 3.141593 0.004007 -1.539299
 53 5.500000 -0.000003 0.000000 0.153690 0.000000 -0.000000
 54 -0.000000 -0.000001 -5.000000 -0.044472 3.137589 -0.000177
 55 6.551490 -0.000001 0.000002 -0.153690 -0.187255 -0.141404
 56 -1.266845 -1.937444 -4.950560 -0.066572 -2.988806 -0.110308
 57 6.551491 -0.000001 0.000002 -0.153690 -0.187255 -0.141404
 58 0.699369 -1.944209 -5.006845 -0.027189 -3.088217 0.005298
 59 4.226146 -0.003202 -0.000001 0.183361 0.019915 0.218807
 60 -0.000001 5.000000 0.000000 -0.153565 0.000087 2.718702
 61 0.000004 -0.000005 -3.713579 0.095503 -3.012510 -0.750673
 62 0.000003 0.000001 4.999999 3.053197 1.558589 -0.074927
 63 -0.000007 0.000005 3.713580 -0.334410 -2.825096 -0.524885
 64 0.000001 -0.000000 -4.999999 -0.088726 1.558589 3.066334
 65 7.363603 1.646647 0.495663 -3.141593 -1.570796 0.000000
 66 -0.000006 0.000005 3.619081 -0.528284 -2.367383 -1.007256
 67 16.573921 -0.000001 0.000001 -0.000000 0.000000 -2.019199
 68 15.128181 0.000001 -0.000002 0.031619 0.086785 -0.033197
 69 5.758664 4.244731 -0.000000 0.000000 -0.000000 2.033309
 70 3.177726 0.000001 0.000000 0.000000 0.000000 3.141593
 71 15.708951 0.000002 -0.000003 0.016155 0.048356 -0.018185
 72 0.275149 0.189215 -3.445208 3.130898 0.000409 -1.514604
 73 17.210192 -0.000002 0.000002 0.000000 -0.000000 -2.322356
 74 0.000001 -0.000000 -5.000000 -0.079430 1.546568 -1.570856
 75 0.000006 -0.000005 -3.619080 0.196495 -3.011952 -1.279118
 76 16.573921 0.000000 0.000000 -0.000000 0.000000 -1.611348
 77 15.128181 -0.000002 0.000000 0.214418 -0.027533 0.774389
 78 5.758665 4.244730 -0.000000 -0.000000 -0.000000 1.483530
 79 4.003934 0.000000 0.000001 0.000000 0.000000 0.000000
 80 15.708953 -0.000001 0.000000 0.153371 0.002792 0.528179
 81 0.273998 0.191089 3.439762 -3.130907 -0.000437 -1.508107
 82 17.210192 0.000000 0.000000 0.000000 -0.000000 -2.138823
 83 0.000001 0.000001 5.000000 -0.079311 1.595025 -1.570737
time 5
  0 1.130557 9.712686 27.009436 -0.281436 0.436358 -2.443536
  1 11.368429 6.770639 -23.418964 -0.498313 0.132926 2.346876
  2 -2.276934 0.000003 -1.238187 -1.570795 -1.570451 0.000000
  3 1.795899 0.712041 -0.000087 0.026136 -0.050674 -0.390185
  4 4.119108 -0.003241 0.000015 -0.004853 0.019760 0.154484
  5 4.118994 -0.003257 0.000002 -0.000621 0.031024 0.119156
  6 4.119215 -0.003221 0.000009 -0.002405 0.019979 0.189266
  7 4.119905 -0.003039 -0.001261 0.364502 0.002962 0.406652
  8 4.443598 0.000001 -0.000000 0.563978 0.071857 -1.132559
  9 9.024062 0.000001 -0.000000 0.000000 0.000000 0.000000
 10 -0.005133 0.621218 1.618878 -0.154996 -1.257717 2.913689
 11 6.384776 -0.000001 -0.000003 -1.116413 0.416418 -1.958899
 12 10.242682 0.000001 0.000000 -0.000000 0.000000 -1.634847
 13 11.375562 -0.000000 0.000001 -1.952155 -0.103503 0.436045
 14 0.728679 0.023430 -1.008291 1.210021 0.600763 0.006085
 15 2.136500 -0.000001 -0.000002 0.000000 -0.000000 -0.078540
 16 2.313137 0.000000 0.000001 0.000000 0.000000 0.000000
 17 3.115505 -0.886042 -0.021430 -0.620285 0.000392 0.514872
 18 2.011152 0.000000 -0.000003 0.000000 -0.000000 1.322792
 19 2.141378 0.000000 -0.000000 0.000000 0.000000 0.000000
 20 1.734172 0.000000 -0.000000 0.000000 -0.000000 0.660693
 21 0.000005 -4.440595 0.000001 1.570544 -0.062990 -0.195737
 22 5.999999 0.000000 0.000000 -1.857795 0.000000 -0.000000
 23 0.000004 -4.440600 -0.000001 1.569944 -0.062987 0.004053
 24 11.375562 -0.000000 0.000004 -1.756667 -0.078286 0.232065
 25 -0.000002 -4.440602 0.000001 1.570144 -0.062988 0.004040
 26 10.510131 0.000002 0.000000 0.000000 0.000000 -2.388220
 27 0.000000 -1.748400 4.999998 -0.000000 0.004007 1.602291
 28 5.500000 0.000001 0.000000 0.227109 -0.000000 0.000000
 29 0.000000 -1.940598 5.000000 -0.044472 0.004003 -0.000180
 30 6.551490 0.000000 -0.000001 -0.818492 0.585888 -1.526847
 31 -0.000001 -1.940600 5.000000 -0.027189 -0.053376 0.005295
 32 6.551490 0.000000 -0.000001 -0.148238 0.323171 -0.434571
 33 -0.000001 -1.940599 4.999996 -0.066572 -0.152786 -0.110311
 34 0.005136 -0.614140 -1.618878 0.322321 1.281115 3.055746
 35 6.384776 -0.000001 0.000001 -0.476056 -0.482051 -0.223108
 36 10.242682 -0.000002 0.000001 0.000000 -0.000000 -1.789036
 37 11.375561 0.000002 -0.000000 1.584577 0.530615 -0.932463
 38 0.728680 0.023431 1.008292 -1.579583 -0.319038 0.212973
 39 2.136497 -0.000000 -0.000000 0.000000 0.000000 1.282817
 40 2.313139 -0.000000 -0.000000 0.000000 0.000000 3.141593
 41 3.115506 -0.886041 0.021432 0.420765 0.316066 0.167178
 42 2.011150 -0.000000 -0.000001 -0.000000 -0.000000 2.082010
 43 2.141379 -0.000000 0.000001 0.000000 0.000000 3.141593
 44 1.734172 -0.000001 -0.000002 -0.000000 -0.000000 1.041748
 45 0.136314 -3.738193 2.525890 1.493698 2.759406 -1.474501
 46 5.613159 0.862367 3.157030 1.595152 -0.135386 0.061522
 47 11.389366 -0.000819 0.158782 1.638372 0.265348 -0.437342
 48 0.000000 -4.440599 0.000001 1.570144 -3.078602 0.004040
 49 5.999999 -0.000001 -0.000000 1.638372 0.000000 0.000000
 50 0.000002 -4.440601 -0.000000 1.569944 -3.078603 0.004053
 51 10.510133 -0.000003 0.000002 0.000000 0.000000 -2.465314
 52 0.000000 -1.748402 -5.000001 3.141593 0.004007 -1.539299
 53 5.500000 -0.000001 0.000000 0.152683 0.000000 -0.000000
 54 -0.000001 -0.000001 -5.000000 -0.044472 3.137589 -0.000177
 55 6.551490 -0.000001 0.000001 -0.152683 -0.187155 -0.142084
 56 -1.266843 -1.937443 -4.950558 -0.066572 -2.988806 -0.110308
 57 6.551490 -0.000001 0.000001 -0.152683 -0.187155 -0.142084
 58 0.699370 -1.944207 -5.006846 -0.027189 -3.088217 0.005298
 59 4.226144 -0.003201 0.000001 0.182978 0.020459 0.221644
 60 0.000000 5.000001 -0.000000 -0.153565 0.000087 2.718702
 61 0.000004 -0.000005 -3.713579 0.095503 -3.012510 -0.750673
 62 0.000003 0.000001 4.999999 3.053197 1.558589 -0.074927
 63 -0.000007 0.000005 3.713580 -0.334410 -2.825096 -0.524885
 64 0.000001 -0.000000 -4.999999 -0.088726 1.558589 3.066334
 65 7.363603 1.646647 0.495663 -3.141593 -1.570796 0.000000
 66 -0.000006 0.000005 3.619081 -0.528284 -2.367383 -1.007256
 67 16.573921 -0.000001 0.000001 -0.000000 0.000000 -2.019199
 68 15.128181 0.000001 -0.000002 0.031619 0.086785 -0.033197
 69 5.758664 4.244731 -0.000000 0.000000 -0.000000 2.033309
 70 3.177726 0.000001 0.000000 0.000000 0.000000 3.141593
 71 15.708951 0.000002 -0.000003 0.016155 0.048356 -0.018185
 72 0.275149 0.189215 -3.445208 3.130898 0.000409 -1.514604
 73 17.210192 -0.000002 0.000002 0.000000 -0.000000 -2.322356
 74 0.000001 -0.000000 -5.000000 -0.079430 1.546568 -1.570856
 75 0.000006 -0.000005 -3.619080 0.196495 -3.011952 -1.279118
 76 16.573921 0.000000 0.000000 -0.000000 0.000000 -1.611348
 77 15.128181 -0.000002 0.000000 0.214418 -0.027533 0.774389
 78 5.758665 4.244730 -0.000000 -0.000000 -0.000000 1.483530
 79 4.003934 0.000000 0.000001 0.000000 0.000000 0.000000
 80 15.708953 -0.000001 0.000000 0.153371 0.002792 0.528179
 81 0.273998 0.191089 3.439762 -3.130907 -0.000437 -1.508107
 82 17.210192 0.000000 0.000000 0.000000 -0.000000 -2.138823
 83 0.000001 0.000001 5.000000 -0.079311 1.595025 -1.570737
time 6
  0 1.130557 9.712686 27.009436 -0.281436 0.436358 -2.443536
  1 11.368429 6.770639 -23.418964 -0.498313 0.132926 2.346876
  2 -2.276934 0.000003 -1.238187 -1.570795 -1.570451 0.000000
  3 1.795901 0.712040 -0.000088 0.026135 -0.048794 -0.390136
  4 4.119108 -0.003240 0.000016 -0.004854 0.019196 0.154487
  5 4.118993 -0.003257 0.000002 -0.000621 0.030083 0.119157
  6 4.119219 -0.003222 0.000008 -0.002406 0.019415 0.189267
  7 4.119916 -0.003034 -0.001260 0.364095 0.003337 0.410270
  8 4.443599 -0.000002 0.000000 0.564855 0.073529 -1.139227
  9 9.024063 0.000001 0.000000 0.000000 0.000000 0.000000
 10 -0.005782 0.620557 1.619127 -0.157517 -1.256215 2.912840
 11 6.384775 0.000002 0.000003 -1.117704 0.413046 -1.959700
 12 10.242681 -0.000001 -0.000001 0.000000 -0.000000 -1.630603
 13 11.375562 0.000000 0.000001 -1.953898 -0.102178 0.434910
 14 0.728680 0.023432 -1.008294 1.210021 0.600763 0.006085
 15 2.136499 0.000000 0.000001 -0.000000 -0.000000 -0.078540
 16 2.313140 0.000000 -0.000001 0.000000 0.000000 0.000000
 17 3.115506 -0.886041 -0.021431 -0.620285 0.000392 0.514872
 18 2.011149 -0.000002 0.000002 -0.000000 -0.000000 1.322792
 19 2.141380 -0.000000 -0.000000 0.000000 0.000000 0.000000
 20 1.734173 0.000001 0.000000 -0.000000 -0.000000 0.660693
 21 0.000005 -4.440594 -0.000001 1.570544 -0.062990 -0.195737
 22 6.000000 0.000001 0.000000 -1.859154 0.000000 0.000000
 23 0.000000 -4.440601 0.000002 1.569944 -0.062987 0.004053
 24 11.375562 -0.000000 0.000003 -1.757618 -0.077642 0.231569
 25 -0.000000 -4.440603 0.000001 1.570144 -0.062988 0.004040
 26 10.510130 0.000001 -0.000000 0.000000 -0.000000 -2.386098
 27 -0.000002 -1.748401 4.999998 0.000000 0.004007 1.602290
 28 5.499999 -0.000000 -0.000000 0.228137 -0.000000 0.000000
 29 -0.000001 -1.940600 5.000000 -0.044472 0.004003 -0.000180
 30 6.551490 0.000001 0.000002 -0.820540 0.583497 -1.529234
 31 -0.000001 -1.940598 5.000001 -0.027189 -0.053376 0.005295
 32 6.551490 0.000001 0.000002 -0.148948 0.322574 -0.434941
 33 -0.000001 -1.940598 4.999997 -0.066572 -0.152786 -0.110311
 34 0.005788 -0.613485 -1.619127 0.321835 1.284030 3.052158
 35 6.384776 -0.000001 0.000003 -0.473287 -0.482747 -0.224028
 36 10.242681 -0.000002 0.000000 -0.000000 0.000000 -1.790214
 37 11.375561 0.000001 -0.000001 1.586411 0.530567 -0.928838
 38 0.728681 0.023431 1.008293 -1.579583 -0.319038 0.212973
 39 2.136497 -0.000001 -0.000001 0.000000 0.000000 1.282817
 40 2.313138 -0.000001 -0.000000 0.000000 0.000000 3.141593
 41 3.115506 -0.886042 0.021432 0.420766 0.316066 0.167178
 42 2.011150 -0.000000 0.000002 -0.000000 0.000000 2.082010
 43 2.141380 0.000000 -0.000001 0.000000 0.000000 3.141593
 44 1.734172 -0.000001 0.000002 -0.000000 0.000000 1.041748
 45 0.136314 -3.738193 2.525889 1.493698 2.759406 -1.474501
 46 5.613159 0.862366 3.157032 1.595152 -0.135386 0.061522
 47 11.389366 -0.000818 0.158780 1.639000 0.265141 -0.435882
 48 0.000001 -4.440598 0.000001 1.570144 -3.078602 0.004040
 49 6.000000 -0.000000 -0.000001 1.639000 0.000000 -0.000000
 50 0.000002 -4.440601 0.000001 1.569944 -3.078603 0.004053
 51 10.510132 -0.000003 0.000001 0.000000 -0.000000 -2.465903
 52 0.000000 -1.748400 -5.000001 3.141593 0.004007 -1.539299
 53 5.499999 -0.000002 0.000000 0.151960 0.000000 -0.000000
 54 -0.000003 -0.000001 -5.000002 -0.044472 3.137590 -0.000177
 55 6.551490 -0.000001 0.000002 -0.151960 -0.187306 -0.142323
 56 -1.266844 -1.937443 -4.950561 -0.066572 -2.988806 -0.110308
 57 6.551490 -0.000001 0.000002 -0.151960 -0.187306 -0.142323
 58 0.699370 -1.944207 -5.006846 -0.027189 -3.088217 0.005298
 59 4.226145 -0.003202 0.000000 0.182741 0.020797 0.223399
 60 0.000001 5.000001 -0.000000 -0.153564 0.000087 2.718702
 61 0.000004 -0.000005 -3.713579 0.095503 -3.012510 -0.750673
 62 0.000003 0.000001 4.999999 3.053197 1.558589 -0.074927
 63 -0.000007 0.000005 3.713580 -0.334410 -2.825096 -0.524885
 64 0.000001 -0.000000 -4.999999 -0.088726 1.558589 3.066334
 65 7.363603 1.646647 0.495663 -3.141593 -1.570796 0.000000
 66 -0.000006 0.000005 3.619081 -0.528284 -2.367383 -1.007256
 67 16.573921 -0.000001 0.000001 -0.000000 0.000000 -2.019199
 68 15.128181 0.000001 -0.000002 0.031619 0.086785 -0.033197
 69 5.758664 4.244731 -0.000000 0.000000 -0.000000 2.033309
 70 3.177726 0.000001 0.000000 0.000000 0.000000 3.141593
 71 15.708951 0.000002 -0.000003 0.016155 0.048356 -0.018185
 72 0.275149 0.189215 -3.445208 3.130898 0.000409 -1.514604
 73 17.210192 -0.000002 0.000002 0.000000 -0.000000 -2.322356
 74 0.000001 -0.000000 -5.000000 -0.079430 1.546568 -1.570856
 75 0.000006 -0.000005 -3.619080 0.196495 -3.011952 -1.279118
 76 16.573921 0.000000 0.000000 -0.000000 0.000000 -1.611348
 77 15.128181 -0.000002 0.000000 0.214418 -0.027533 0.774389
 78 5.758665 4.244730 -0.000000 -0.000000 -0.000000 1.483530
 79 4.003934 0.000000 0.000001 0.000000 0.000000 0.000000
 80 15.708953 -0.000001 0.000000 0.153371 0.002792 0.528179
 81 0.273998 0.191089 3.439762 -3.130907 -0.000437 -1.508107
 82 17.210192 0.000000 0.000000 0.000000 -0.000000 -2.138823
 83 0.000001 0.000001 5.000000 -0.079311 1.595025 -1.570737
time 7
  0 1.130557 9.712686 27.009436 -0.281436 0.436358 -2.443536
  1 11.368429 6.770639 -23.418964 -0.498313 0.132926 2.346876
  2 -2.276934 0.000003 -1.238187 -1.570795 -1.570451 0.000000
  3 1.795899 0.712041 -0.000087 0.026133 -0.044658 -0.390028
  4 4.119107 -0.003241 0.000016 -0.004855 0.017954 0.154493
  5 4.118996 -0.003257 0.000001 -0.000623 0.028015 0.119158
  6 4.119217 -0.003220 0.000009 -0.002407 0.018173 0.189270
  7 4.119923 -0.003033 -0.001259 0.363899 0.003519 0.412021
  8 4.443598 -0.000000 -0.000000 0.564330 0.074186 -1.142897
  9 9.024060 0.000001 -0.000001 0.000000 0.000000 0.000000
 10 -0.006098 0.620239 1.619247 -0.158734 -1.255488 2.912426
 11 6.384776 -0.000001 -0.000001 -1.117907 0.410968 -1.960882
 12 10.242681 0.000001 -0.000000 -0.000000 0.000000 -1.627355
 13 11.375563 -0.000001 0.000001 -1.954577 -0.101323 0.433732
 14 0.728680 0.023430 -1.008292 1.210021 0.600763 0.006085
 15 2.136499 -0.000000 -0.000001 0.000000 -0.000000 -0.078540
 16 2.313138 0.000000 -0.000001 0.000000 0.000000 0.000000
 17 3.115507 -0.886041 -0.021433 -0.620285 0.000392 0.514872
 18 2.011152 0.000001 0.000000 0.000000 -0.000000 1.322792
 19 2.141380 0.000000 0.000000 0.000000 0.000000 0.000000
 20 1.734172 -0.000001 0.000002 -0.000000 0.000000 0.660693
 21 0.000004 -4.440594 0.000001 1.570544 -0.062990 -0.195737
 22 6.000000 -0.000000 0.000000 -1.859692 -0.000000 0.000000
 23 0.000001 -4.440600 0.000001 1.569944 -0.062987 0.004053
 24 11.375563 -0.000001 0.000003 -1.758014 -0.077182 0.231036
 25 -0.000002 -4.440602 0.000001 1.570144 -0.062988 0.004040
 26 10.510130 0.000001 -0.000000 0.000000 -0.000000 -2.384474
 27 -0.000001 -1.748401 4.999998 0.000000 0.004007 1.602291
 28 5.499998 0.000000 0.000000 0.228684 -0.000000 0.000000
 29 -0.000001 -1.940599 5.000000 -0.044472 0.004003 -0.000180
 30 6.551491 -0.000000 -0.000001 -0.821681 0.581835 -1.531214
 31 -0.000001 -1.940599 5.000000 -0.027189 -0.053376 0.005295
 32 6.551491 -0.000000 -0.000001 -0.149308 0.322105 -0.435263
 33 -0.000002 -1.940598 4.999995 -0.066572 -0.152786 -0.110311
 34 0.006101 -0.613164 -1.619247 0.321319 1.285201 3.050129
 35 6.384775 0.000001 -0.000003 -0.471650 -0.483425 -0.223921
 36 10.242682 -0.000001 0.000000 -0.000000 -0.000000 -1.790568
 37 11.375560 0.000001 -0.000000 1.586966 0.530551 -0.927742
 38 0.728681 0.023432 1.008293 -1.579583 -0.319038 0.212973
 39 2.136497 -0.000001 -0.000001 0.000000 0.000000 1.282817
 40 2.313140 0.000001 0.000000 0.000000 0.000000 3.141593
 41 3.115506 -0.886041 0.021432 0.420765 0.316066 0.167178
 42 2.011151 -0.000000 -0.000000 -0.000000 -0.000000 2.082010
 43 2.141380 -0.000000 -0.000000 0.000000 0.000000 3.141593
 44 1.734172 -0.000001 0.000001 0.000000 -0.000000 1.041748
 45 0.136315 -3.738193 2.525891 1.493698 2.759406 -1.474501
 46 5.613161 0.862366 3.157034 1.595152 -0.135386 0.061522
 47 11.389366 -0.000818 0.158781 1.639190 0.265078 -0.435441
 48 0.000001 -4.440599 -0.000001 1.570144 -3.078602 0.004040
 49 6.000000 0.000000 -0.000001 1.639190 -0.000000 -0.000000
 50 0.000002 -4.440601 -0.000001 1.569944 -3.078603 0.004053
 51 10.510130 -0.000001 0.000001 -0.000000 -0.000000 -2.466080
 52 0.000001 -1.748400 -5.000000 3.141593 0.004007 -1.539299
 53 5.499999 -0.000001 -0.000000 0.151556 0.000000 -0.000000
 54 -0.000002 -0.000000 -5.000000 -0.044472 3.137589 -0.000177
 55 6.551489 -0.000000 -0.000001 -0.151555 -0.187573 -0.142252
 56 -1.266843 -1.937443 -4.950559 -0.066572 -2.988806 -0.110308
 57 6.551489 -0.000001 -0.000001 -0.151555 -0.187573 -0.142252
 58 0.699370 -1.944206 -5.006846 -0.027189 -3.088217 0.005298
 59 4.226147 -0.003202 0.000000 0.182627 0.020961 0.224246
 60 -0.000001 5.000000 0.000000 -0.153564 0.000087 2.718702
 61 0.000004 -0.000005 -3.713579 0.095503 -3.012510 -0.750673
 62 0.000003 0.000001 4.999999 3.053197 1.558589 -0.074927
 63 -0.000007 0.000005 3.713580 -0.334410 -2.825096 -0.524885
 64 0.000001 -0.000000 -4.999999 -0.088726 1.558589 3.066334
 65 7.363603 1.646647 0.495663 -3.141593 -1.570796 0.000000
 66 -0.000006 0.000005 3.619081 -0.528284 -2.367383 -1.007256
 67 16.573921 -0.000001 0.000001 -0.000000 0.000000 -2.019199
 68 15.128181 0.000001 -0.000002 0.031619 0.086785 -0.033197
 69 5.758664 4.244731 -0.000000 0.000000 -0.000000 2.033309
 70 3.177726 0.000001 0.000000 0.000000 0.000000 3.141593
 71 15.708951 0.000002 -0.000003 0.016155 0.048356 -0.018185
 72 0.275149 0.189215 -3.445208 3.130898 0.000409 -1.514604
 73 17.210192 -0.000002 0.000002 0.000000 -0.000000 -2.322356
 74 0.000001 -0.000000 -5.000000 -0.079430 1.546568 -1.570856
 75 0.000006 -0.000005 -3.619080 0.196495 -3.011952 -1.279118
 76 16.573921 0.000000 0.000000 -0.000000 0.000000 -1.611348
 77 15.128181 -0.000002 0.000000 0.214418 -0.027533 0.774389
 78 5.758665 4.244730 -0.000000 -0.000000 -0.000000 1.483530
 79 4.003934 0.000000 0.000001 0.000000 0.000000 0.000000
 80 15.708953 -0.000001 0.000000 0.153371 0.002792 0.528179
 81 0.273998 0.191089 3.439762 -3.130907 -0.000437 -1.508107
 82 17.210192 0.000000 0.000000 0.000000 -0.000000 -2.138823
 83 0.000001 0.000001 5.000000 -0.079311 1.595025 -1.570737
time 8
  0 1.130557 9.712686 27.009436 -0.281436 0.436358 -2.443536
  1 11.368429 6.770639 -23.418964 -0.498313 0.132926 2.346876
  2 -2.276934 0.000003 -1.238187 -1.570795 -1.570451 0.000000
  3 1.795901 0.712040 -0.000087 0.026131 -0.040522 -0.389919
  4 4.119105 -0.003240 0.000017 -0.004855 0.016713 0.154499
  5 4.118993 -0.003257 0.000002 -0.000624 0.025946 0.119159
  6 4.119222 -0.003223 0.000007 -0.002408 0.016932 0.189273
  7 4.119921 -0.003031 -0.001258 0.363873 0.003544 0.412255
  8 4.443600 -0.000000 0.000000 0.563205 0.074099 -1.143876
  9 9.024060 0.000001 0.000001 0.000000 0.000000 0.000000
 10 -0.006138 0.620196 1.619263 -0.158896 -1.255391 2.912370
 11 6.384777 0.000000 -0.000001 -1.117340 0.410464 -1.961894
 12 10.242682 -0.000000 0.000000 -0.000000 -0.000000 -1.625904
 13 11.375563 -0.000000 0.000001 -1.954329 -0.101071 0.432947
 14 0.728681 0.023431 -1.008295 1.210021 0.600763 0.006085
 15 2.136498 -0.000000 -0.000002 0.000000 0.000000 -0.078540
 16 2.313138 0.000000 -0.000000 0.000000 0.000000 0.000000
 17 3.115506 -0.886042 -0.021433 -0.620285 0.000392 0.514872
 18 2.011152 -0.000000 -0.000001 -0.000000 0.000000 1.322792
 19 2.141380 0.000001 0.000000 0.000000 0.000000 0.000000
 20 1.734173 0.000001 -0.000001 -0.000000 -0.000000 0.660693
 21 0.000004 -4.440594 0.000001 1.570544 -0.062990 -0.195737
 22 6.000000 -0.000000 0.000000 -1.859509 0.000000 0.000000
 23 0.000002 -4.440600 0.000001 1.569944 -0.062987 0.004053
 24 11.375563 -0.000001 0.000004 -1.757913 -0.077002 0.230670
 25 -0.000001 -4.440603 0.000000 1.570144 -0.062988 0.004040
 26 10.510131 -0.000001 -0.000000 -0.000000 -0.000000 -2.383748
 27 0.000000 -1.748400 4.999998 0.000000 0.004007 1.602291
 28 5.500001 0.000000 0.000000 0.228729 -0.000000 -0.000000
 29 -0.000002 -1.940598 5.000000 -0.044472 0.004003 -0.000180
 30 6.551490 0.000001 0.000000 -0.821834 0.581236 -1.532234
 31 0.000002 -1.940598 5.000001 -0.027189 -0.053376 0.005295
 32 6.551490 0.000001 0.000000 -0.149317 0.321885 -0.435443
 33 0.000000 -1.940599 4.999997 -0.066572 -0.152786 -0.110311
 34 0.006145 -0.613122 -1.619263 0.320807 1.284966 3.049397
 35 6.384775 0.000001 -0.000001 -0.471329 -0.483855 -0.223181
 36 10.242680 -0.000002 0.000000 -0.000000 0.000000 -1.790268
 37 11.375562 0.000002 -0.000000 1.586497 0.530564 -0.928670
 38 0.728680 0.023431 1.008291 -1.579583 -0.319038 0.212973
 39 2.136497 -0.000001 -0.000000 -0.000000 0.000000 1.282817
 40 2.313140 -0.000000 -0.000000 0.000000 0.000000 3.141593
 41 3.115506 -0.886042 0.021432 0.420766 0.316066 0.167178
 42 2.011150 -0.000000 -0.000001 -0.000000 -0.000000 2.082010
 43 2.141380 -0.000000 -0.000001 0.000000 0.000000 3.141593
 44 1.734172 -0.000001 -0.000000 0.000000 -0.000000 1.041748
 45 0.136315 -3.738193 2.525892 1.493698 2.759406 -1.474501
 46 5.613159 0.862366 3.157030 1.595152 -0.135386 0.061522
 47 11.389365 -0.000819 0.158780 1.639029 0.265131 -0.435814
 48 0.000001 -4.440599 0.000001 1.570144 -3.078602 0.004040
 49 5.999999 -0.000001 -0.000001 1.639029 -0.000000 0.000000
 50 0.000000 -4.440602 0.000001 1.569944 -3.078602 0.004053
 51 10.510132 -0.000003 0.000001 0.000000 -0.000000 -2.465930
 52 -0.000000 -1.748396 -5.000001 -3.141593 0.004007 -1.539299
 53 5.500000 -0.000003 0.000001 0.151502 0.000000 -0.000000
 54 0.000000 -0.000001 -5.000000 -0.044472 3.137589 -0.000177
 55 6.551490 -0.000001 0.000002 -0.151502 -0.187823 -0.142004
 56 -1.266844 -1.937443 -4.950561 -0.066572 -2.988806 -0.110308
 57 6.551490 -0.000001 0.000002 -0.151502 -0.187823 -0.142004
 58 0.699370 -1.944209 -5.006846 -0.027189 -3.088217 0.005298
 59 4.226148 -0.003203 -0.000000 0.182612 0.020982 0.224359
 60 0.000001 5.000000 -0.000000 -0.153564 0.000087 2.718702
 61 0.000004 -0.000005 -3.713579 0.095503 -3.012510 -0.750673
 62 0.000003 0.000001 4.999999 3.053197 1.558589 -0.074927
 63 -0.000007 0.000005 3.713580 -0.334410 -2.825096 -0.524885
 64 0.000001 -0.000000 -4.999999 -0.088726 1.558589 3.066334
 65 7.363603 1.646647 0.495663 -3.141593 -1.570796 0.000000
 66 -0.000006 0.000005 3.619081 -0.528284 -2.367383 -1.007256
 67 16.573921 -0.000001 0.000001 -0.000000 0.000000 -2.019199
 68 15.128181 0.000001 -0.000002 0.031619 0.086785 -0.033197
 69 5.758664 4.244731 -0.000000 0.000000 -0.000000 2.033309
 70 3.177726 0.000001 0.000000 0.000000 0.000000 3.141593
 71 15.708951 0.000002 -0.000003 0.016155 0.048356 -0.018185
 72 0.275149 0.189215 -3.445208 3.130898 0.000409 -1.514604
 73 17.210192 -0.000002 0.000002 0.000000 -0.000000 -2.322356
 74 0.000001 -0.000000 -5.000000 -0.079430 1.546568 -1.570856
 75 0.000006 -0.000005 -3.619080 0.196495 -3.011952 -1.279118
 76 16.573921 0.000000 0.000000 -0.000000 0.000000 -1.611348
 77 15.128181 -0.000002 0.000000 0.214418 -0.027533 0.774389
 78 5.758665 4.244730 -0.000000 -0.000000 -0.000000 1.483530
 79 4.003934 0.000000 0.000001 0.000000 0.000000 0.000000
 80 15.708953 -0.000001 0.000000 0.153371 0.002792 0.528179
 81 0.273998 0.191089 3.439762 -3.130907 -0.000437 -1.508107
 82 17.210192 0.000000 0.000000 0.000000 -0.000000 -2.138823
 83 0.000001 0.000001 5.000000 -0.079311 1.595025 -1.570737
time 9
  0 1.130557 9.712686 27.009436 -0.281436 0.436358 -2.443536
  1 11.368429 6.770639 -23.418964 -0.498313 0.132926 2.346876
  2 -2.276934 0.000003 -1.238187 -1.570795 -1.570451 0.000000
  3 1.795901 0.712040 -0.000087 0.026131 -0.038642 -0.389870
  4 4.119111 -0.003241 0.000015 -0.004856 0.016149 0.154502
  5 4.118992 -0.003255 0.000003 -0.000625 0.025006 0.119160
  6 4.119218 -0.003220 0.000009 -0.002408 0.016368 0.189275
  7 4.119921 -0.003032 -0.001259 0.363977 0.003447 0.411321
  8 4.443598 -0.000002 -0.000000 0.562283 0.073552 -1.142478
  9 9.024060 0.000001 -0.000001 0.000000 0.000000 0.000000
 10 -0.005973 0.620367 1.619199 -0.158247 -1.255779 2.912591
 11 6.384776 0.000002 0.000001 -1.116313 0.411809 -1.962181
 12 10.242682 -0.000002 0.000000 0.000000 0.000000 -1.627048
 13 11.375559 0.000002 0.000001 -1.953290 -0.101557 0.432987
 14 0.728680 0.023431 -1.008291 1.210021 0.600764 0.006085
 15 2.136495 -0.000001 0.000001 0.000000 -0.000000 -0.078540
 16 2.313139 0.000000 0.000002 0.000000 0.000000 0.000000
 17 3.115506 -0.886041 -0.021431 -0.620285 0.000392 0.514872
 18 2.011150 0.000000 0.000001 -0.000000 0.000000 1.322792
 19 2.141379 -0.000001 -0.000001 0.000000 0.000000 0.000000
 20 1.734172 0.000000 0.000001 -0.000000 0.000000 0.660693
 21 0.000005 -4.440594 0.000001 1.570544 -0.062990 -0.195737
 22 6.000000 -0.000000 0.000000 -1.858707 0.000000 -0.000000
 23 0.000000 -4.440602 0.000001 1.569944 -0.062987 0.004053
 24 11.375562 -0.000001 0.000003 -1.757370 -0.077200 0.230673
 25 -0.000002 -4.440603 0.000002 1.570144 -0.062988 0.004040
 26 10.510130 -0.000002 -0.000000 -0.000000 -0.000000 -2.384320
 27 0.000003 -1.748401 4.999998 0.000000 0.004007 1.602290
 28 5.500000 -0.000001 0.000000 0.228249 0.000000 0.000000
 29 -0.000000 -1.940599 5.000000 -0.044472 0.004003 -0.000180
 30 6.551490 0.000000 -0.000001 -0.820923 0.582028 -1.531739
 31 0.000000 -1.940600 5.000001 -0.027189 -0.053376 0.005295
 32 6.551490 0.000000 -0.000001 -0.148969 0.322035 -0.435384
 33 -0.000001 -1.940598 4.999997 -0.066572 -0.152786 -0.110311
 34 0.005976 -0.613295 -1.619199 0.320323 1.283665 3.049687
 35 6.384776 -0.000002 0.000002 -0.472494 -0.483802 -0.222218
 36 10.242682 -0.000004 0.000001 -0.000000 -0.000000 -1.789475
 37 11.375561 -0.000001 -0.000000 1.585259 0.530598 -0.931114
 38 0.728680 0.023431 1.008292 -1.579583 -0.319038 0.212973
 39 2.136497 0.000001 -0.000000 0.000000 0.000000 1.282817
 40 2.313140 0.000001 -0.000000 0.000000 0.000000 3.141593
 41 3.115507 -0.886042 0.021432 0.420765 0.316066 0.167178
 42 2.011150 -0.000001 0.000001 -0.000000 -0.000000 2.082010
 43 2.141380 -0.000000 0.000001 0.000000 0.000000 3.141593
 44 1.734172 -0.000001 0.000002 -0.000000 -0.000000 1.041748
 45 0.136315 -3.738193 2.525891 1.493698 2.759406 -1.474501
 46 5.613160 0.862365 3.157032 1.595152 -0.135386 0.061522
 47 11.389367 -0.000819 0.158781 1.638606 0.265271 -0.436798
 48 0.000001 -4.440599 0.000001 1.570144 -3.078602 0.004040
 49 6.000001 0.000000 -0.000000 1.638606 -0.000000 -0.000000
 50 0.000000 -4.440602 0.000002 1.569944 -3.078603 0.004053
 51 10.510130 -0.000002 0.000002 -0.000000 0.000000 -2.465534
 52 0.000000 -1.748399 -5.000002 -3.141593 0.004007 -1.539299
 53 5.499999 -0.000001 0.000001 0.151826 -0.000000 -0.000000
 54 -0.000001 -0.000003 -5.000001 -0.044472 3.137590 -0.000177
 55 6.551490 -0.000001 0.000001 -0.151826 -0.187918 -0.141716
 56 -1.266844 -1.937443 -4.950560 -0.066572 -2.988806 -0.110308
 57 6.551491 -0.000001 0.000001 -0.151826 -0.187918 -0.141716
 58 0.699371 -1.944209 -5.006846 -0.027189 -3.088217 0.005298
 59 4.226148 -0.003202 -0.000001 0.182673 0.020895 0.223907
 60 -0.000000 4.999999 -0.000000 -0.153564 0.000087 2.718702
 61 0.000004 -0.000005 -3.713579 0.095503 -3.012510 -0.750673
 62 0.000003 0.000001 4.999999 3.053197 1.558589 -0.074927
 63 -0.000007 0.000005 3.713580 -0.334410 -2.825096 -0.524885
 64 0.000001 -0.000000 -4.999999 -0.088726 1.558589 3.066334
 65 7.363603 1.646647 0.495663 -3.141593 -1.570796 0.000000
 66 -0.000006 0.000005 3.619081 -0.528284 -2.367383 -1.007256
 67 16.573921 -0.000001 0.000001 -0.000000 0.000000 -2.019199
 68 15.128181 0.000001 -0.000002 0.031619 0.086785 -0.033197
 69 5.758664 4.244731 -0.000000 0.000000 -0.000000 2.033309
 70 3.177726 0.000001 0.000000 0.000000 0.000000 3.141593
 71 15.708951 0.000002 -0.000003 0.016155 0.048356 -0.018185
 72 0.275149 0.189215 -3.445208 3.130898 0.000409 -1.514604
 73 17.210192 -0.000002 0.000002 0.000000 -0.000000 -2.322356
 74 0.000001 -0.000000 -5.000000 -0.079430 1.546568 -1.570856
 75 0.000006 -0.000005 -3.619080 0.196495 -3.011952 -1.279118
 76 16.573921 0.000000 0.000000 -0.000000 0.000000 -1.611348
 77 15.128181 -0.000002 0.000000 0.214418 -0.027533 0.774389
 78 5.758665 4.244730 -0.000000 -0.000000 -0.000000 1.483530
 79 4.003934 0.000000 0.000001 0.000000 0.000000 0.000000
 80 15.708953 -0.000001 0.000000 0.153371 0.002792 0.528179
 81 0.273998 0.191089 3.439762 -3.130907 -0.000437 -1.508107
 82 17.210192 0.000000 0.000000 0.000000 -0.000000 -2.138823
 83 0.000001 0.000001 5.000000 -0.079311 1.595025 -1.570737
time 10
  0 1.130557 9.712686 27.009436 -0.281436 0.436358 -2.443536
  1 11.368429 6.770639 -23.418964 -0.498313 0.132926 2.346876
  2 -2.276934 0.000003 -1.238187 -1.570795 -1.570451 0.000000
  3 1.795901 0.712040 -0.000087 0.026131 -0.038642 -0.389870
  4 4.119111 -0.003241 0.000015 -0.004856 0.016149 0.154502
  5 4.118992 -0.003255 0.000003 -0.000625 0.025006 0.119160
  6 4.119218 -0.003220 0.000009 -0.002408 0.016368 0.189275
  7 4.119915 -0.003034 -0.001260 0.364174 0.003265 0.409570
  8 4.443598 -0.000003 0.000000 0.561592 0.072700 -1.139374
  9 9.024062 0.000001 -0.000000 0.000000 0.000000 0.000000
 10 -0.005658 0.620685 1.619079 -0.157030 -1.256506 2.913005
 11 6.384776 0.000002 0.000001 -1.114993 0.414494 -1.961883
 12 10.242682 0.000002 -0.000000 0.000000 0.000000 -1.630121
 13 11.375562 -0.000001 0.000000 -1.951709 -0.102587 0.433656
 14 0.728682 0.023431 -1.008292 1.210021 0.600763 0.006085
 15 2.136498 -0.000000 -0.000001 -0.000000 -0.000000 -0.078540
 16 2.313139 0.000001 0.000001 0.000000 0.000000 0.000000
 17 3.115506 -0.886041 -0.021430 -0.620285 0.000392 0.514872
 18 2.011151 -0.000001 -0.000001 0.000000 0.000000 1.322792
 19 2.141382 -0.000000 -0.000001 0.000000 0.000000 0.000000
 20 1.734172 -0.000001 0.000000 0.000000 -0.000000 0.660693
 21 0.000007 -4.440594 -0.000001 1.570544 -0.062990 -0.195737
 22 6.000000 0.000000 -0.000000 -1.857478 0.000000 0.000000
 23 0.000002 -4.440600 -0.000000 1.569944 -0.062987 0.004053
 24 11.375562 -0.000001 0.000003 -1.756520 -0.077679 0.230958
 25 -0.000001 -4.440603 -0.000001 1.570144 -0.062988 0.004040
 26 10.510130 0.000001 -0.000001 0.000000 -0.000000 -2.385857
 27 -0.000001 -1.748401 4.999999 0.000000 0.004007 1.602291
 28 5.499997 -0.000001 -0.000000 0.227392 0.000000 0.000000
 29 -0.000000 -1.940598 5.000000 -0.044472 0.004003 -0.000180
 30 6.551490 0.000000 -0.000001 -0.819242 0.583842 -1.530099
 31 0.000001 -1.940600 5.000001 -0.027189 -0.053376 0.005295
 32 6.551490 0.000000 -0.000001 -0.148369 0.322462 -0.435141
 33 0.000000 -1.940600 4.999995 -0.066572 -0.152786 -0.110311
 34 0.005661 -0.613613 -1.619079 0.319879 1.281636 3.050714
 35 6.384776 -0.000000 -0.000001 -0.474727 -0.483373 -0.221152
 36 10.242679 -0.000002 0.000001 -0.000000 0.000000 -1.788348
 37 11.375560 0.000002 -0.000003 1.583510 0.530641 -0.934571
 38 0.728680 0.023431 1.008292 -1.579583 -0.319038 0.212973
 39 2.136496 -0.000000 -0.000000 -0.000000 0.000000 1.282817
 40 2.313139 -0.000001 -0.000001 0.000000 0.000000 3.141593
 41 3.115506 -0.886041 0.021432 0.420766 0.316066 0.167178
 42 2.011151 -0.000000 0.000001 -0.000000 0.000000 2.082010
 43 2.141380 -0.000000 0.000001 0.000000 0.000000 3.141593
 44 1.734172 -0.000001 -0.000000 0.000000 0.000000 1.041748
 45 0.136315 -3.738193 2.525890 1.493698 2.759406 -1.474501
 46 5.613159 0.862366 3.157032 1.595152 -0.135386 0.061522
 47 11.389366 -0.000818 0.158779 1.638005 0.265468 -0.438192
 48 0.000001 -4.440600 0.000000 1.570144 -3.078602 0.004040
 49 5.999998 -0.000000 -0.000002 1.638005 0.000000 -0.000000
 50 0.000004 -4.440601 -0.000002 1.569944 -3.078603 0.004053
 51 10.510132 -0.000004 0.000003 0.000000 0.000000 -2.464970
 52 -0.000000 -1.748401 -5.000001 3.141593 0.004007 -1.539299
 53 5.500000 -0.000002 0.000001 0.152421 0.000000 -0.000000
 54 0.000001 -0.000003 -4.999999 -0.044472 3.137589 -0.000177
 55 6.551489 0.000000 -0.000002 -0.152421 -0.187887 -0.141417
 56 -1.266843 -1.937442 -4.950559 -0.066572 -2.988806 -0.110308
 57 6.551490 0.000000 -0.000002 -0.152421 -0.187887 -0.141417
 58 0.699371 -1.944207 -5.006846 -0.027189 -3.088217 0.005298
 59 4.226148 -0.003202 -0.000001 0.182787 0.020732 0.223059
 60 -0.000000 5.000001 -0.000000 -0.153564 0.000087 2.718702
 61 0.000004 -0.000005 -3.713579 0.095503 -3.012510 -0.750673
 62 0.000003 0.000001 4.999999 3.053197 1.558589 -0.074927
 63 -0.000007 0.000005 3.713580 -0.334410 -2.825096 -0.524885
 64 0.000001 -0.000000 -4.999999 -0.088726 1.558589 3.066334
 65 7.363603 1.646647 0.495663 -3.141593 -1.570796 0.000000
 66 -0.000006 0.000005 3.619081 -0.528284 -2.367383 -1.007256
 67 16.573921 -0.000001 0.000001 -0.000000 0.000000 -2.019199
 68 15.128181 0.000001 -0.000002 0.031619 0.086785 -0.033197
 69 5.758664 4.244731 -0.000000 0.000000 -0.000000 2.033309
 70 3.177726 0.000001 0.000000 0.000000 0.000000 3.141593
 71 15.708951 0.000002 -0.000003 0.016155 0.048356 -0.018185
 72 0.275149 0.189215 -3.445208 3.130898 0.000409 -1.514604
 73 17.210192 -0.000002 0.000002 0.000000 -0.000000 -2.322356
 74 0.000001 -0.000000 -5.000000 -0.079430 1.546568 -1.570856
 75 0.000006 -0.000005 -3.619080 0.196495 -3.011952 -1.279118
 76 16.573921 0.000000 0.000000 -0.000000 0.000000 -1.611348
 77 15.128181 -0.000002 0.000000 0.214418 -0.027533 0.774389
 78 5.758665 4.244730 -0.000000 -0.000000 -0.000000 1.483530
 79 4.003934 0.000000 0.000001 0.000000 0.000000 0.000000
 80 15.708953 -0.000001 0.000000 0.153371 0.002792 0.528179
 81 0.273998 0.191089 3.439762 -3.130907 -0.000437 -1.508107
 82 17.210192 0.000000 0.000000 0.000000 -0.000000 -2.138823
 83 0.000001 0.000001 5.000000 -0.079311 1.595025 -1.570737
time 11
  0 1.130557 9.712686 27.009436 -0.281436 0.436358 -2.443536
  1 11.368429 6.770639 -23.418964 -0.498313 0.132926 2.346876
  2 -2.276934 0.000003 -1.238187 -1.570795 -1.570451 0.000000
  3 1.795901 0.712040 -0.000087 0.026131 -0.038642 -0.389870
  4 4.119111 -0.003241 0.000015 -0.004856 0.016149 0.154502
  5 4.118992 -0.003255 0.000003 -0.000625 0.025006 0.119160
  6 4.119218 -0.003220 0.000009 -0.002408 0.016368 0.189275
  7 4.119909 -0.003036 -0.001261 0.364423 0.003035 0.407352
  8 4.443599 -0.000002 -0.000000 0.560715 0.071625 -1.135441
  9 9.024058 0.000000 -0.000000 0.000000 0.000000 0.000000
 10 -0.005259 0.621090 1.618926 -0.155484 -1.257427 2.913525
 11 6.384776 0.000002 0.000001 -1.113472 0.417576 -1.961535
 12 10.242682 0.000000 0.000001 -0.000000 -0.000000 -1.633634
 13 11.375561 -0.000002 0.000001 -1.949897 -0.103769 0.434409
 14 0.728681 0.023431 -1.008293 1.210021 0.600763 0.006085
 15 2.136498 0.000000 -0.000001 0.000000 -0.000000 -0.078540
 16 2.313139 0.000000 0.000001 0.000000 0.000000 0.000000
 17 3.115508 -0.886041 -0.021434 -0.620285 0.000392 0.514872
 18 2.011150 0.000000 0.000000 -0.000000 -0.000000 1.322792
 19 2.141380 0.000000 -0.000000 0.000000 0.000000 0.000000
 20 1.734171 0.000000 0.000000 -0.000000 0.000000 0.660693
 21 0.000007 -4.440594 0.000000 1.570544 -0.062990 -0.195737
 22 5.999999 -0.000000 0.000001 -1.856071 -0.000000 0.000000
 23 0.000003 -4.440600 -0.000000 1.569944 -0.062987 0.004053
 24 11.375562 -0.000002 0.000004 -1.755547 -0.078228 0.231277
 25 0.000000 -4.440603 0.000001 1.570144 -0.062988 0.004040
 26 10.510130 -0.000000 0.000001 0.000000 -0.000000 -2.387613
 27 0.000001 -1.748400 4.999998 -0.000000 0.004007 1.602291
 28 5.500000 0.000000 0.000000 0.226407 -0.000000 0.000000
 29 -0.000001 -1.940599 5.000000 -0.044472 0.004003 -0.000180
 30 6.551490 0.000000 -0.000001 -0.817306 0.585919 -1.528209
 31 -0.000000 -1.940600 5.000001 -0.027189 -0.053376 0.005295
 32 6.551490 0.000000 -0.000001 -0.147677 0.322949 -0.434860
 33 -0.000001 -1.940600 4.999996 -0.066572 -0.152786 -0.110311
 34 0.005263 -0.614016 -1.618926 0.319489 1.279216 3.052194
 35 6.384776 -0.000000 0.000001 -0.477280 -0.482881 -0.219937
 36 10.242680 -0.000001 0.000001 -0.000000 0.000000 -1.787046
 37 11.375563 0.000002 -0.000001 1.581505 0.530684 -0.938534
 38 0.728680 0.023431 1.008292 -1.579583 -0.319038 0.212973
 39 2.136497 -0.000001 -0.000000 0.000000 0.000000 1.282817
 40 2.313139 -0.000001 -0.000001 0.000000 0.000000 3.141593
 41 3.115506 -0.886042 0.021431 0.420766 0.316066 0.167178
 42 2.011150 -0.000000 -0.000001 -0.000000 -0.000000 2.082010
 43 2.141380 -0.000000 -0.000001 0.000000 0.000000 3.141593
 44 1.734172 -0.000001 -0.000000 0.000000 0.000000 1.041748
 45 0.136314 -3.738193 2.525890 1.493698 2.759406 -1.474501
 46 5.613160 0.862366 3.157034 1.595152 -0.135386 0.061522
 47 11.389367 -0.000818 0.158780 1.637316 0.265693 -0.439790
 48 0.000001 -4.440599 0.000001 1.570144 -3.078602 0.004040
 49 6.000000 0.000000 -0.000001 1.637316 0.000000 0.000000
 50 0.000002 -4.440601 0.000001 1.569944 -3.078603 0.004053
 51 10.510130 -0.000002 0.000002 0.000000 -0.000000 -2.464319
 52 0.000000 -1.748397 -5.000001 3.141593 0.004007 -1.539299
 53 5.499999 -0.000002 0.000001 0.153101 0.000000 -0.000000
 54 -0.000000 -0.000000 -5.000000 -0.044472 3.137590 -0.000177
 55 6.551489 -0.000000 0.000001 -0.153101 -0.187850 -0.141075
 56 -1.266843 -1.937443 -4.950559 -0.066572 -2.988806 -0.110308
 57 6.551490 0.000000 0.000001 -0.153101 -0.187850 -0.141075
 58 0.699371 -1.944209 -5.006846 -0.027189 -3.088217 0.005298
 59 4.226148 -0.003202 -0.000001 0.182932 0.020525 0.221984
 60 -0.000000 5.000002 -0.000000 -0.153564 0.000087 2.718702
 61 0.000004 -0.000005 -3.713579 0.095503 -3.012510 -0.750673
 62 0.000003 0.000001 4.999999 3.053197 1.558589 -0.074927
 63 -0.000007 0.000005 3.713580 -0.334410 -2.825096 -0.524885
 64 0.000001 -0.000000 -4.999999 -0.088726 1.558589 3.066334
 65 7.363603 1.646647 0.495663 -3.141593 -1.570796 0.000000
 66 -0.000006 0.000005 3.619081 -0.528284 -2.367383 -1.007256
 67 16.573921 -0.000001 0.000001 -0.000000 0.000000 -2.019199
 68 15.128181 0.000001 -0.000002 0.031619 0.086785 -0.033197
 69 5.758664 4.244731 -0.000000 0.000000 -0.000000 2.033309
 70 3.177726 0.000001 0.000000 0.000000 0.000000 3.141593
 71 15.708951 0.000002 -0.000003 0.016155 0.048356 -0.018185
 72 0.275149 0.189215 -3.445208 3.130898 0.000409 -1.514604
 73 17.210192 -0.000002 0.000002 0.000000 -0.000000 -2.322356
 74 0.000001 -0.000000 -5.000000 -0.079430 1.546568 -1.570856
 75 0.000006 -0.000005 -3.619080 0.196495 -3.011952 -1.279118
 76 16.573921 0.000000 0.000000 -0.000000 0.000000 -1.611348
 77 15.128181 -0.000002 0.000000 0.214418 -0.027533 0.774389
 78 5.758665 4.244730 -0.000000 -0.000000 -0.000000 1.483530
 79 4.003934 0.000000 0.000001 0.000000 0.000000 0.000000
 80 15.708953 -0.000001 0.000000 0.153371 0.002792 0.528179
 81 0.273998 0.191089 3.439762 -3.130907 -0.000437 -1.508107
 82 17.210192 0.000000 0.000000 0.000000 -0.000000 -2.138823
 83 0.000001 0.000001 5.000000 -0.079311 1.595025 -1.570737
time 12
  0 1.130557 9.712686 27.009436 -0.281436 0.436358 -2.443536
  1 11.368429 6.770639 -23.418964 -0.498313 0.132926 2.346876
  2 -2.276934 0.000003 -1.238187 -1.570795 -1.570451 0.000000
  3 1.795901 0.712040 -0.000087 0.026131 -0.038642 -0.389870
  4 4.119111 -0.003241 0.000015 -0.004856 0.016149 0.154502
  5 4.118992 -0.003255 0.000003 -0.000625 0.025006 0.119160
  6 4.119218 -0.003220 0.000009 -0.002408 0.016368 0.189275
  7 4.119905 -0.003041 -0.001263 0.364686 0.002793 0.405017
  8 4.443599 0.000000 -0.000000 0.559791 0.070500 -1.131299
  9 9.024063 0.000001 0.000000 0.000000 0.000000 0.000000
 10 -0.004842 0.621520 1.618765 -0.153855 -1.258396 2.914070
 11 6.384776 0.000002 0.000001 -1.111945 0.420658 -1.961182
 12 10.242681 -0.000001 0.000000 -0.000000 -0.000000 -1.637137
 13 11.375562 0.000001 0.000001 -1.948087 -0.104954 0.435145
 14 0.728682 0.023431 -1.008294 1.210021 0.600763 0.006085
 15 2.136494 -0.000000 -0.000001 -0.000000 -0.000000 -0.078540
 16 2.313138 0.000000 -0.000000 0.000000 0.000000 0.000000
 17 3.115507 -0.886041 -0.021433 -0.620285 0.000392 0.514872
 18 2.011152 0.000002 -0.000002 -0.000000 -0.000000 1.322792
 19 2.141378 -0.000000 0.000000 0.000000 0.000000 0.000000
 20 1.734172 0.000001 0.000001 -0.000000 -0.000000 0.660693
 21 0.000006 -4.440594 0.000001 1.570544 -0.062990 -0.195737
 22 6.000000 0.000000 0.000001 -1.854663 -0.000000 -0.000000
 23 0.000002 -4.440601 0.000000 1.569944 -0.062987 0.004053
 24 11.375562 0.000000 0.000004 -1.754574 -0.078777 0.231589
 25 -0.000001 -4.440603 0.000001 1.570144 -0.062988 0.004040
 26 10.510130 -0.000001 -0.000000 -0.000000 -0.000000 -2.389365
 27 0.000002 -1.748401 4.999998 -0.000000 0.004007 1.602290
 28 5.500002 0.000001 0.000000 0.225419 0.000000 -0.000000
 29 -0.000003 -1.940600 5.000000 -0.044472 0.004003 -0.000180
 30 6.551490 0.000000 -0.000001 -0.815361 0.587992 -1.526309
 31 -0.000001 -1.940599 5.000001 -0.027189 -0.053376 0.005295
 32 6.551490 0.000000 -0.000001 -0.146984 0.323435 -0.434576
 33 0.000000 -1.940598 4.999996 -0.066572 -0.152786 -0.110311
 34 0.004843 -0.614438 -1.618765 0.319162 1.276744 3.053838
 35 6.384776 -0.000001 0.000002 -0.479824 -0.482388 -0.218729
 36 10.242680 -0.000002 0.000000 -0.000000 -0.000000 -1.785733
 37 11.375560 0.000003 -0.000000 1.579499 0.530720 -0.942496
 38 0.728681 0.023431 1.008293 -1.579583 -0.319038 0.212973
 39 2.136496 -0.000001 -0.000001 -0.000000 0.000000 1.282817
 40 2.313139 0.000000 0.000000 0.000000 0.000000 3.141593
 41 3.115506 -0.886041 0.021431 0.420766 0.316066 0.167178
 42 2.011151 0.000000 0.000001 -0.000000 0.000000 2.082010
 43 2.141380 0.000000 0.000001 0.000000 0.000000 3.141593
 44 1.734172 -0.000001 0.000001 0.000000 -0.000000 1.041748
 45 0.136316 -3.738193 2.525891 1.493698 2.759406 -1.474501
 46 5.613161 0.862366 3.157033 1.595152 -0.135386 0.061522
 47 11.389366 -0.000816 0.158782 1.636626 0.265918 -0.441391
 48 0.000001 -4.440599 0.000000 1.570144 -3.078602 0.004040
 49 5.999999 0.000001 -0.000000 1.636625 0.000000 -0.000000
 50 0.000001 -4.440601 -0.000000 1.569944 -3.078603 0.004053
 51 10.510132 -0.000002 0.000002 0.000000 0.000000 -2.463663
 52 0.000000 -1.748401 -5.000001 -3.141593 0.004007 -1.539299
 53 5.499999 -0.000001 0.000000 0.153779 -0.000000 -0.000000
 54 0.000001 -0.000000 -4.999999 -0.044472 3.137589 -0.000177
 55 6.551490 -0.000000 0.000002 -0.153779 -0.187812 -0.140734
 56 -1.266845 -1.937442 -4.950561 -0.066572 -2.988806 -0.110308
 57 6.551490 -0.000000 0.000002 -0.153779 -0.187812 -0.140734
 58 0.699371 -1.944208 -5.006845 -0.027189 -3.088217 0.005298
 59 4.226148 -0.003202 -0.000001 0.183085 0.020307 0.220851
 60 -0.000000 4.999999 -0.000001 -0.153564 0.000087 2.718702
 61 0.000004 -0.000005 -3.713579 0.095503 -3.012510 -0.750673
 62 0.000003 0.000001 4.999999 3.053197 1.558589 -0.074927
 63 -0.000007 0.000005 3.713580 -0.334410 -2.825096 -0.524885
 64 0.000001 -0.000000 -4.999999 -0.088726 1.558589 3.066334
 65 7.363603 1.646647 0.495663 -3.141593 -1.570796 0.000000
 66 -0.000006 0.000005 3.619081 -0.528284 -2.367383 -1.007256
 67 16.573921 -0.000001 0.000001 -0.000000 0.000000 -2.019199
 68 15.128181 0.000001 -0.000002 0.031619 0.086785 -0.033197
 69 5.758664 4.244731 -0.000000 0.000000 -0.000000 2.033309
 70 3.177726 0.000001 0.000000 0.000000 0.000000 3.141593
 71 15.708951 0.000002 -0.000003 0.016155 0.048356 -0.018185
 72 0.275149 0.189215 -3.445208 3.130898 0.000409 -1.514604
 73 17.210192 -0.000002 0.000002 0.000000 -0.000000 -2.322356
 74 0.000001 -0.000000 -5.000000 -0.079430 1.546568 -1.570856
 75 0.000006 -0.000005 -3.619080 0.196495 -3.011952 -1.279118
 76 16.573921 0.000000 0.000000 -0.000000 0.000000 -1.611348
 77 15.128181 -0.000002 0.000000 0.214418 -0.027533 0.774389
 78 5.758665 4.244730 -0.000000 -0.000000 -0.000000 1.483530
 79 4.003934 0.000000 0.000001 0.000000 0.000000 0.000000
 80 15.708953 -0.000001 0.000000 0.153371 0.002792 0.528179
 81 0.273998 0.191089 3.439762 -3.130907 -0.000437 -1.508107
 82 17.210192 0.000000 0.000000 0.000000 -0.000000 -2.138823
 83 0.000001 0.000001 5.000000 -0.079311 1.595025 -1.570737
time 13
  0 1.130557 9.712686 27.009436 -0.281436 0.436358 -2.443536
  1 11.368429 6.770639 -23.418964 -0.498313 0.132926 2.346876
  2 -2.276934 0.000003 -1.238187 -1.570795 -1.570451 0.000000
  3 1.795901 0.712040 -0.000087 0.026131 -0.038642 -0.389870
  4 4.119111 -0.003241 0.000015 -0.004856 0.016149 0.154502
  5 4.118992 -0.003255 0.000003 -0.000625 0.025006 0.119160
  6 4.119218 -0.003220 0.000009 -0.002408 0.016368 0.189275
  7 4.119899 -0.003043 -0.001264 0.364923 0.002577 0.402916
  8 4.443599 0.000000 -0.000000 0.558957 0.069494 -1.127569
  9 9.024060 0.000001 -0.000001 0.000000 0.000000 0.000000
 10 -0.004467 0.621903 1.618619 -0.152385 -1.259269 2.914557
 11 6.384776 0.000002 0.000001 -1.110606 0.423349 -1.960869
 12 10.242683 0.000000 0.000000 0.000000 -0.000000 -1.640185
 13 11.375561 0.000000 0.000001 -1.946508 -0.105989 0.435776
 14 0.728680 0.023430 -1.008293 1.210021 0.600764 0.006085
 15 2.136497 -0.000000 -0.000001 -0.000000 -0.000000 -0.078540
 16 2.313138 -0.000000 -0.000001 0.000000 0.000000 0.000000
 17 3.115506 -0.886040 -0.021434 -0.620285 0.000392 0.514872
 18 2.011152 0.000001 -0.000003 -0.000000 -0.000000 1.322792
 19 2.141378 0.000001 -0.000000 0.000000 0.000000 0.000000
 20 1.734172 0.000000 -0.000001 -0.000000 0.000000 0.660693
 21 0.000007 -4.440594 -0.000000 1.570544 -0.062990 -0.195737
 22 6.000000 0.000000 0.000001 -1.853436 -0.000000 0.000000
 23 0.000003 -4.440601 -0.000000 1.569944 -0.062987 0.004053
 24 11.375562 0.000000 0.000004 -1.753726 -0.079256 0.231855
 25 0.000000 -4.440603 -0.000001 1.570144 -0.062988 0.004040
 26 10.510132 -0.000000 0.000000 -0.000000 -0.000000 -2.390888
 27 -0.000000 -1.748400 4.999998 -0.000000 0.004007 1.602290
 28 5.500002 0.000001 0.000000 0.224555 0.000000 0.000000
 29 -0.000002 -1.940601 5.000001 -0.044472 0.004003 -0.000180
 30 6.551490 0.000000 -0.000001 -0.813657 0.589797 -1.524643
 31 -0.000001 -1.940598 5.000000 -0.027189 -0.053376 0.005295
 32 6.551490 0.000000 -0.000001 -0.146377 0.323858 -0.434325
 33 -0.000000 -1.940599 4.999995 -0.066572 -0.152786 -0.110311
 34 0.004468 -0.614823 -1.618619 0.318911 1.274558 3.055363
 35 6.384777 -0.000002 0.000004 -0.482037 -0.481956 -0.217681
 36 10.242682 -0.000000 -0.000000 -0.000000 0.000000 -1.784581
 37 11.375560 0.000001 -0.000001 1.577749 0.530745 -0.945953
 38 0.728681 0.023430 1.008293 -1.579583 -0.319038 0.212973
 39 2.136497 -0.000001 0.000001 -0.000000 0.000000 1.282817
 40 2.313140 -0.000001 -0.000001 0.000000 0.000000 3.141593
 41 3.115507 -0.886041 0.021431 0.420765 0.316066 0.167178
 42 2.011151 0.000000 0.000001 -0.000000 0.000000 2.082010
 43 2.141380 -0.000000 0.000001 0.000000 0.000000 3.141593
 44 1.734172 -0.000001 -0.000001 0.000000 0.000000 1.041748
 45 0.136314 -3.738193 2.525888 1.493698 2.759406 -1.474501
 46 5.613161 0.862366 3.157033 1.595152 -0.135386 0.061522
 47 11.389366 -0.000817 0.158780 1.636022 0.266114 -0.442789
 48 0.000001 -4.440598 -0.000001 1.570144 -3.078602 0.004040
 49 5.999999 0.000002 -0.000001 1.636022 0.000000 -0.000000
 50 0.000000 -4.440602 0.000001 1.569944 -3.078603 0.004053
 51 10.510132 -0.000000 0.000001 0.000000 -0.000000 -2.463087
 52 -0.000000 -1.748402 -5.000001 3.141593 0.004007 -1.539299
 53 5.500001 0.000001 0.000000 0.154369 0.000000 -0.000000
 54 -0.000001 0.000000 -5.000000 -0.044472 3.137589 -0.000177
 55 6.551491 -0.000001 0.000003 -0.154369 -0.187778 -0.140438
 56 -1.266845 -1.937443 -4.950561 -0.066572 -2.988806 -0.110308
 57 6.551491 -0.000001 0.000003 -0.154369 -0.187778 -0.140438
 58 0.699370 -1.944208 -5.006847 -0.027189 -3.088217 0.005298
 59 4.226148 -0.003202 -0.000001 0.183223 0.020111 0.219830
 60 -0.000001 4.999999 -0.000000 -0.153564 0.000087 2.718702
 61 0.000004 -0.000005 -3.713579 0.095503 -3.012510 -0.750673
 62 0.000003 0.000001 4.999999 3.053197 1.558589 -0.074927
 63 -0.000007 0.000005 3.713580 -0.334410 -2.825096 -0.524885
 64 0.000001 -0.000000 -4.999999 -0.088726 1.558589 3.066334
 65 7.363603 1.646647 0.495663 -3.141593 -1.570796 0.000000
 66 -0.000006 0.000005 3.619081 -0.528284 -2.367383 -1.007256
 67 16.573921 -0.000001 0.000001 -0.000000 0.000000 -2.019199
 68 15.128181 0.000001 -0.000002 0.031619 0.086785 -0.033197
 69 5.758664 4.244731 -0.000000 0.000000 -0.000000 2.033309
 70 3.177726 0.000001 0.000000 0.000000 0.000000 3.141593
 71 15.708951 0.000002 -0.000003 0.016155 0.048356 -0.018185
 72 0.275149 0.189215 -3.445208 3.130898 0.000409 -1.514604
 73 17.210192 -0.000002 0.000002 0.000000 -0.000000 -2.322356
 74 0.000001 -0.000000 -5.000000 -0.079430 1.546568 -1.570856
 75 0.000006 -0.000005 -3.619080 0.196495 -3.011952 -1.279118
 76 16.573921 0.000000 0.000000 -0.000000 0.000000 -1.611348
 77 15.128181 -0.000002 0.000000 0.214418 -0.027533 0.774389
 78 5.758665 4.244730 -0.000000 -0.000000 -0.000000 1.483530
 79 4.003934 0.000000 0.000001 0.000000 0.000000 0.000000
 80 15.708953 -0.000001 0.000000 0.153371 0.002792 0.528179
 81 0.273998 0.191089 3.439762 -3.130907 -0.000437 -1.508107
 82 17.210192 0.000000 0.000000 0.000000 -0.000000 -2.138823
 83 0.000001 0.000001 5.000000 -0.079311 1.595025 -1.570737
time 14
  0 1.130557 9.712686 27.009436 -0.281436 0.436358 -2.443536
  1 11.368429 6.770639 -23.418964 -0.498313 0.132926 2.346876
  2 -2.276934 0.000003 -1.238187 -1.570795 -1.570451 0.000000
  3 1.795901 0.712040 -0.000087 0.026131 -0.038642 -0.389870
  4 4.119111 -0.003241 0.000015 -0.004856 0.016149 0.154502
  5 4.118992 -0.003255 0.000003 -0.000625 0.025006 0.119160
  6 4.119218 -0.003220 0.000009 -0.002408 0.016368 0.189275
  7 4.119891 -0.003043 -0.001263 0.365094 0.002421 0.401399
  8 4.443599 -0.000001 0.000000 0.558355 0.068770 -1.124874
  9 9.024062 0.000001 0.000000 0.000000 0.000000 0.000000
 10 -0.004194 0.622178 1.618514 -0.151322 -1.259900 2.914907
 11 6.384776 0.000002 0.000001 -1.109655 0.425253 -1.960645
 12 10.242683 0.000001 -0.000000 0.000000 0.000000 -1.642335
 13 11.375566 -0.000002 0.000000 -1.945392 -0.106722 0.436215
 14 0.728681 0.023432 -1.008292 1.210021 0.600763 0.006085
 15 2.136497 0.000000 0.000000 0.000000 0.000000 -0.078540
 16 2.313137 -0.000000 -0.000000 0.000000 0.000000 0.000000
 17 3.115506 -0.886041 -0.021429 -0.620285 0.000392 0.514872
 18 2.011151 -0.000000 -0.000000 0.000000 -0.000000 1.322792
 19 2.141380 -0.000001 -0.000001 0.000000 0.000000 0.000000
 20 1.734172 -0.000000 0.000000 0.000000 0.000000 0.660693
 21 0.000005 -4.440594 -0.000000 1.570544 -0.062990 -0.195737
 22 6.000000 0.000002 0.000000 -1.852568 -0.000000 0.000000
 23 0.000001 -4.440600 0.000001 1.569944 -0.062987 0.004053
 24 11.375563 0.000001 0.000003 -1.753126 -0.079595 0.232039
 25 -0.000001 -4.440603 -0.000000 1.570144 -0.062988 0.004040
 26 10.510130 -0.000000 -0.000001 0.000000 -0.000000 -2.391964
 27 -0.000002 -1.748401 4.999999 0.000000 0.004007 1.602291
 28 5.500001 0.000000 -0.000000 0.223942 0.000000 -0.000000
 29 -0.000000 -1.940599 5.000000 -0.044472 0.004003 -0.000180
 30 6.551490 0.000000 -0.000001 -0.812447 0.591073 -1.523461
 31 -0.000001 -1.940599 5.000002 -0.027189 -0.053376 0.005295
 32 6.551490 0.000000 -0.000001 -0.145947 0.324157 -0.434146
 33 0.000000 -1.940598 4.999997 -0.066572 -0.152786 -0.110311
 34 0.004200 -0.615103 -1.618513 0.318748 1.272998 3.056484
 35 6.384776 -0.000001 0.000000 -0.483598 -0.481649 -0.216942
 36 10.242682 -0.000003 -0.000000 0.000000 -0.000000 -1.783761
 37 11.375559 -0.000000 -0.000002 1.576511 0.530760 -0.948399
 38 0.728681 0.023431 1.008293 -1.579583 -0.319038 0.212973
 39 2.136497 -0.000000 -0.000000 -0.000000 0.000000 1.282817
 40 2.313139 -0.000000 -0.000000 0.000000 0.000000 3.141593
 41 3.115507 -0.886041 0.021432 0.420766 0.316066 0.167178
 42 2.011151 -0.000000 -0.000001 -0.000000 0.000000 2.082010
 43 2.141379 0.000000 -0.000001 0.000000 0.000000 3.141593
 44 1.734172 -0.000001 0.000000 -0.000000 0.000000 1.041748
 45 0.136315 -3.738192 2.525891 1.493698 2.759406 -1.474501
 46 5.613160 0.862366 3.157033 1.595152 -0.135386 0.061522
 47 11.389365 -0.000818 0.158781 1.635594 0.266253 -0.443779
 48 0.000001 -4.440598 0.000001 1.570144 -3.078602 0.004040
 49 5.999998 -0.000000 -0.000001 1.635594 -0.000000 0.000000
 50 0.000002 -4.440602 0.000002 1.569944 -3.078603 0.004053
 51 10.510130 -0.000002 0.000001 -0.000000 -0.000000 -2.462677
 52 0.000001 -1.748397 -5.000001 -3.141593 0.004007 -1.539299
 53 5.500000 -0.000002 0.000000 0.154785 0.000000 -0.000000
 54 -0.000001 -0.000001 -5.000000 -0.044472 3.137589 -0.000177
 55 6.551491 -0.000001 0.000002 -0.154785 -0.187753 -0.140228
 56 -1.266844 -1.937441 -4.950561 -0.066572 -2.988806 -0.110308
 57 6.551491 -0.000001 0.000002 -0.154785 -0.187753 -0.140228
 58 0.699370 -1.944207 -5.006847 -0.027189 -3.088217 0.005298
 59 4.226148 -0.003202 -0.000001 0.183322 0.019969 0.219091
 60 -0.000001 5.000001 -0.000000 -0.153564 0.000087 2.718702
 61 0.000004 -0.000005 -3.713579 0.095503 -3.012510 -0.750673
 62 0.000003 0.000001 4.999999 3.053197 1.558589 -0.074927
 63 -0.000007 0.000005 3.713580 -0.334410 -2.825096 -0.524885
 64 0.000001 -0.000000 -4.999999 -0.088726 1.558589 3.066334
 65 7.363603 1.646647 0.495663 -3.141593 -1.570796 0.000000
 66 -0.000006 0.000005 3.619081 -0.528284 -2.367383 -1.007256
 67 16.573921 -0.000001 0.000001 -0.000000 0.000000 -2.019199
 68 15.128181 0.000001 -0.000002 0.031619 0.086785 -0.033197
 69 5.758664 4.244731 -0.000000 0.000000 -0.000000 2.033309
 70 3.177726 0.000001 0.000000 0.000000 0.000000 3.141593
 71 15.708951 0.000002 -0.000003 0.016155 0.048356 -0.018185
 72 0.275149 0.189215 -3.445208 3.130898 0.000409 -1.514604
 73 17.210192 -0.000002 0.000002 0.000000 -0.000000 -2.322356
 74 0.000001 -0.000000 -5.000000 -0.079430 1.546568 -1.570856
 75 0.000006 -0.000005 -3.619080 0.196495 -3.011952 -1.279118
 76 16.573921 0.000000 0.000000 -0.000000 0.000000 -1.611348
 77 15.128181 -0.000002 0.000000 0.214418 -0.027533 0.774389
 78 5.758665 4.244730 -0.000000 -0.000000 -0.000000 1.483530
 79 4.003934 0.000000 0.000001 0.000000 0.000000 0.000000
 80 15.708953 -0.000001 0.000000 0.153371 0.002792 0.528179
 81 0.273998 0.191089 3.439762 -3.130907 -0.000437 -1.508107
 82 17.210192 0.000000 0.000000 0.000000 -0.000000 -2.138823
 83 0.000001 0.000001 5.000000 -0.079311 1.595025 -1.570737
time 15
  0 1.130557 9.712686 27.009436 -0.281436 0.436358 -2.443536
  1 11.368429 6.770639 -23.418964 -0.498313 0.132926 2.346876
  2 -2.276934 0.000003 -1.238187 -1.570795 -1.570451 0.000000
  3 1.795901 0.712040 -0.000087 0.026131 -0.038642 -0.389870
  4 4.119111 -0.003241 0.000015 -0.004856 0.016149 0.154502
  5 4.118992 -0.003255 0.000003 -0.000625 0.025006 0.119160
  6 4.119218 -0.003220 0.000009 -0.002408 0.016368 0.189275
  7 4.119890 -0.003044 -0.001264 0.365160 0.002361 0.400815
  8 4.443599 -0.000003 0.000000 0.558123 0.068492 -1.123838
  9 9.024059 -0.000000 -0.000000 0.000000 0.000000 0.000000
 10 -0.004091 0.622284 1.618473 -0.150913 -1.260142 2.915041
 11 6.384776 0.000002 0.000001 -1.109293 0.425975 -1.960559
 12 10.242682 -0.000000 0.000000 0.000000 0.000000 -1.643150
 13 11.375562 -0.000000 0.000001 -1.944969 -0.107001 0.436379
 14 0.728682 0.023432 -1.008292 1.210021 0.600763 0.006085
 15 2.136496 0.000000 0.000001 0.000000 -0.000000 -0.078540
 16 2.313140 0.000000 0.000001 0.000000 0.000000 0.000000
 17 3.115507 -0.886041 -0.021430 -0.620285 0.000392 0.514872
 18 2.011151 -0.000000 0.000001 0.000000 0.000000 1.322792
 19 2.141380 -0.000000 0.000000 0.000000 0.000000 0.000000
 20 1.734173 0.000001 0.000001 0.000000 -0.000000 0.660693
 21 0.000007 -4.440594 -0.000000 1.570544 -0.062990 -0.195737
 22 5.999999 0.000001 0.000000 -1.852239 0.000000 0.000000
 23 0.000003 -4.440600 -0.000000 1.569944 -0.062987 0.004053
 24 11.375562 0.000000 0.000003 -1.752898 -0.079723 0.232109
 25 -0.000001 -4.440602 -0.000001 1.570144 -0.062988 0.004040
 26 10.510133 0.000000 -0.000000 -0.000000 -0.000000 -2.392371
 27 -0.000002 -1.748401 4.999998 -0.000000 0.004007 1.602291
 28 5.500003 0.000001 0.000000 0.223709 0.000000 -0.000000
 29 -0.000002 -1.940600 5.000000 -0.044472 0.004003 -0.000180
 30 6.551490 0.000000 -0.000001 -0.811987 0.591556 -1.523011
 31 -0.000003 -1.940599 5.000000 -0.027189 -0.053376 0.005295
 32 6.551490 0.000000 -0.000001 -0.145783 0.324270 -0.434078
 33 -0.000002 -1.940598 4.999997 -0.066572 -0.152786 -0.110311
 34 0.004094 -0.615212 -1.618473 0.318691 1.272402 3.056920
 35 6.384776 -0.000001 -0.000000 -0.484190 -0.481533 -0.216663
 36 10.242681 -0.000003 -0.000000 0.000000 0.000000 -1.783449
 37 11.375559 0.000001 -0.000001 1.576042 0.530765 -0.949326
 38 0.728681 0.023431 1.008291 -1.579583 -0.319038 0.212973
 39 2.136497 -0.000000 0.000000 0.000000 0.000000 1.282817
 40 2.313138 0.000001 -0.000000 0.000000 0.000000 3.141593
 41 3.115506 -0.886041 0.021430 0.420766 0.316066 0.167178
 42 2.011150 -0.000000 0.000000 -0.000000 -0.000000 2.082010
 43 2.141379 0.000000 0.000000 0.000000 0.000000 3.141593
 44 1.734172 -0.000001 -0.000001 -0.000000 0.000000 1.041748
 45 0.136314 -3.738193 2.525889 1.493698 2.759406 -1.474501
 46 5.613161 0.862366 3.157032 1.595152 -0.135386 0.061522
 47 11.389365 -0.000818 0.158780 1.635432 0.266305 -0.444155
 48 0.000001 -4.440598 0.000000 1.570144 -3.078602 0.004040
 49 5.999999 0.000002 -0.000001 1.635432 0.000000 -0.000000
 50 0.000002 -4.440601 0.000001 1.569944 -3.078603 0.004053
 51 10.510130 -0.000001 0.000000 -0.000000 -0.000000 -2.462521
 52 0.000000 -1.748399 -5.000000 3.141593 0.004007 -1.539299
 53 5.499999 -0.000001 -0.000000 0.154943 -0.000000 -0.000000
 54 -0.000001 0.000001 -5.000001 -0.044472 3.137589 -0.000177
 55 6.551489 -0.000000 -0.000001 -0.154943 -0.187744 -0.140149
 56 -1.266844 -1.937443 -4.950559 -0.066572 -2.988806 -0.110308
 57 6.551490 -0.000000 -0.000001 -0.154943 -0.187744 -0.140149
 58 0.699370 -1.944208 -5.006846 -0.027189 -3.088217 0.005298
 59 4.226148 -0.003202 -0.000001 0.183360 0.019915 0.218807
 60 -0.000000 5.000002 -0.000000 -0.153564 0.000087 2.718702
 61 0.000004 -0.000005 -3.713579 0.095503 -3.012510 -0.750673
 62 0.000003 0.000001 4.999999 3.053197 1.558589 -0.074927
 63 -0.000007 0.000005 3.713580 -0.334410 -2.825096 -0.524885
 64 0.000001 -0.000000 -4.999999 -0.088726 1.558589 3.066334
 65 7.363603 1.646647 0.495663 -3.141593 -1.570796 0.000000
 66 -0.000006 0.000005 3.619081 -0.528284 -2.367383 -1.007256
 67 16.573921 -0.000001 0.000001 -0.000000 0.000000 -2.019199
 68 15.128181 0.000001 -0.000002 0.031619 0.086785 -0.033197
 69 5.758664 4.244731 -0.000000 0.000000 -0.000000 2.033309
 70 3.177726 0.000001 0.000000 0.000000 0.000000 3.141593
 71 15.708951 0.000002 -0.000003 0.016155 0.048356 -0.018185
 72 0.275149 0.189215 -3.445208 3.130898 0.000409 -1.514604
 73 17.210192 -0.000002 0.000002 0.000000 -0.000000 -2.322356
 74 0.000001 -0.000000 -5.000000 -0.079430 1.546568 -1.570856
 75 0.000006 -0.000005 -3.619080 0.196495 -3.011952 -1.279118
 76 16.573921 0.000000 0.000000 -0.000000 0.000000 -1.611348
 77 15.128181 -0.000002 0.000000 0.214418 -0.027533 0.774389
 78 5.758665 4.244730 -0.000000 -0.000000 -0.000000 1.483530
 79 4.003934 0.000000 0.000001 0.000000 0.000000 0.000000
 80 15.708953 -0.000001 0.000000 0.153371 0.002792 0.528179
 81 0.273998 0.191089 3.439762 -3.130907 -0.000437 -1.508107
 82 17.210192 0.000000 0.000000 0.000000 -0.000000 -2.138823
 83 0.000001 0.000001 5.000000 -0.079311 1.595025 -1.570737
end
