version 1
nodes
  0 "Bip01"  -1
  1 "Bip01 Footsteps"   0
  2 "Bip01 Pelvis"   0
  3 "Bip01 Spine"   2
  4 "Bip01 Spine1"   3
  5 "Bip01 Spine2"   4
  6 "Bip01 Spine3"   5
  7 "Bip01 Neck"   6
  8 "Bip01 Head"   7
  9 "Dummy21"   8
 10 "Bip01 L Clavicle"   7
 11 "Bip01 L UpperArm"  10
 12 "Bip01 L Forearm"  11
 13 "Bip01 L Hand"  12
 14 "Bip01 L Finger0"  13
 15 "Bip01 L Finger01"  14
 16 "Dummy06"  15
 17 "Bip01 L Finger1"  13
 18 "Bip01 L Finger11"  17
 19 "Dummy03"  18
 20 "-- L knuckle"  17
 21 "-- L knuckle_end"  20
 22 "-- L Forearm twist"  12
 23 "-- L Forearm twist_end"  22
 24 "-- L wrist"  12
 25 "-- L wrist_end"  24
 26 "-- L Elbow"  11
 27 "--L Elbow_end"  26
 28 "-- L bicep twist"  11
 29 "-- L bicep twist_end"  28
 30 "-- L shoulder outside"  10
 31 "-- L shoulder outside_end"  30
 32 "-- L Shoulder inside"  10
 33 "-- L Shoulder inside_end"  32
 34 "Bip01 R Clavicle"   7
 35 "Bip01 R UpperArm"  34
 36 "Bip01 R Forearm"  35
 37 "Bip01 R Hand"  36
 38 "Bip01 R Finger0"  37
 39 "Bip01 R Finger01"  38
 40 "Dummy01"  39
 41 "Bip01 R Finger1"  37
 42 "Bip01 R Finger11"  41
 43 "Dummy02"  42
 44 "-- R knuckle"  41
 45 "Point06"  44
 46 "Line03"  37
 47 "-- R wrist"  36
 48 "-- R wrist_end"  47
 49 "-- R forearm twist"  36
 50 "-- R forearm twist_end"  49
 51 "-- R Elbow"  35
 52 "--R Elbow_end"  51
 53 "-- R bicep twist"  35
 54 "-- R bicep twist_end"  53
 55 "-- R Shoulder inside"  34
 56 "-- R Shoulder inside_end"  55
 57 "-- R shoulder outside"  34
 58 "-- R shoulder outside_end"  57
 59 "-- Neck smooth"   6
 60 "-- neck smooth end"  59
 61 "-- R Butt"   2
 62 "--R Butt_end"  61
 63 "-- L butt"   2
 64 "--L butt_end"  63
 65 "GIGN01"   2
 66 "Bip01 L Thigh"   2
 67 "Bip01 L Calf"  66
 68 "Bip01 L Foot"  67
 69 "Bip01 L Toe0"  68
 70 "Dummy16"  69
 71 "-- L ankle"  67
 72 "-- L ankleend"  71
 73 "-- L Knee"  66
 74 "--L Knee_end"  73
 75 "Bip01 R Thigh"   2
 76 "Bip01 R Calf"  75
 77 "Bip01 R Foot"  76
 78 "Bip01 R Toe0"  77
 79 "Dummy11"  78
 80 "-- R Ankle"  76
 81 "-- R ankleend"  80
 82 "-- R Knee"  75
 83 "--R Knee_end"  82
end
skeleton
time 0
  0 -0.650000 0.000000 33.899605 -0.025849 0.174554 -1.569172
  1 6.464957 0.947535 -36.647930 -0.174512 -0.026131 1.569196
  2 -2.276935 0.000003 -1.238188 -1.570795 -1.570451 0.000000
  3 1.797053 0.711900 0.000808 -0.251047 -0.105581 -0.000251
  4 4.119874 -0.002916 0.000804 -0.248813 0.093196 0.386679
  5 4.118966 -0.003153 0.000835 -0.257667 0.047420 0.101355
  6 4.118616 -0.003167 0.000854 -0.263377 0.009085 0.002222
  7 4.117580 -0.003018 -0.001537 0.613888 0.716240 0.105338
  8 4.443599 -0.000000 0.000001 0.479745 -0.349942 0.502475
  9 9.024063 0.000000 0.000002 0.000000 0.000000 0.000000
 10 -1.137625 0.756407 1.068326 0.688129 -0.693072 2.599207
 11 6.384775 -0.000001 0.000002 -1.243459 -0.035960 -0.868335
 12 10.242682 0.000003 -0.000001 -0.000000 -0.000000 -1.670112
 13 11.375561 -0.000001 0.000001 -3.102714 0.598197 0.773484
 14 0.728680 0.023433 -1.008292 1.202975 0.409398 0.881725
 15 2.136497 -0.000001 -0.000001 0.000000 0.000000 -0.078540
 16 2.313138 0.000001 0.000000 0.000000 0.000000 0.000000
 17 3.115505 -0.886039 -0.021431 -0.166499 0.000392 0.514872
 18 2.011151 0.000000 0.000001 -0.000000 0.000000 1.322792
 19 2.141378 -0.000000 0.000001 0.000000 0.000000 0.000000
 20 1.734171 -0.000000 0.000001 0.000000 0.000000 0.660693
 21 0.000008 -4.440593 -0.000001 1.570544 -0.062990 -0.195737
 22 6.000000 -0.000001 0.000000 -2.838479 -0.000000 0.000000
 23 0.000002 -4.440600 -0.000001 1.569944 -0.062987 0.004053
 24 11.375560 -0.000000 0.000003 -2.365743 0.138779 0.504435
 25 -0.000003 -4.440603 0.000001 1.570144 -0.062988 0.004040
 26 10.510132 0.000003 -0.000001 -0.000000 -0.000000 -2.405852
 27 0.000002 -1.748400 5.000000 -0.000000 0.004007 1.602290
 28 5.500000 0.000000 0.000000 0.467752 0.000000 0.000000
 29 0.000000 -1.940598 5.000000 -0.044472 0.004003 -0.000180
 30 6.551490 -0.000001 0.000001 -0.880274 0.077027 -0.602829
 31 -0.000000 -1.940599 5.000001 -0.027189 -0.053376 0.005295
 32 6.551490 -0.000001 0.000001 -0.378700 0.101910 -0.252940
 33 0.000000 -1.940599 4.999997 -0.066572 -0.152786 -0.110311
 34 1.137625 -0.749330 -1.068327 2.509031 1.046006 -0.428446
 35 6.384776 -0.000001 0.000001 0.299454 0.016143 -1.058759
 36 10.242682 -0.000000 0.000003 0.000000 -0.000000 -2.183326
 37 11.375561 -0.000001 -0.000001 2.695748 0.253722 0.573134
 38 0.728680 0.023431 1.008289 -1.579583 -0.319038 0.212973
 39 2.136497 -0.000003 0.000000 0.000000 0.000000 1.282817
 40 2.313140 0.000001 0.000000 0.000000 0.000000 3.141593
 41 3.115506 -0.886041 0.021429 0.420765 0.316066 0.167178
 42 2.011151 0.000000 0.000003 -0.000000 0.000000 2.082010
 43 2.141380 -0.000000 -0.000002 0.000000 0.000000 3.141593
 44 1.734173 -0.000001 0.000001 -0.000000 -0.000000 1.041748
 45 0.136315 -3.738192 2.525893 1.493698 2.759406 -1.474501
 46 10.273804 -0.437102 1.198990 1.793563 0.004868 1.507198
 47 11.389367 -0.000820 0.158780 2.109994 0.216431 0.255432
 48 0.000001 -4.440599 0.000000 1.570144 -3.078602 0.004040
 49 6.000000 -0.000000 -0.000002 2.109994 0.000000 -0.000000
 50 0.000002 -4.440599 -0.000000 1.569944 -3.078603 0.004053
 51 10.510132 0.000000 0.000003 -0.000000 -0.000000 -2.662459
 52 0.000000 -1.748400 -5.000003 -3.141593 0.004007 -1.539299
 53 5.500000 0.000000 0.000003 -0.103914 0.000000 0.000000
 54 -0.000000 -0.000000 -4.999998 -0.044472 3.137589 -0.000177
 55 6.551490 0.000000 -0.000000 0.103914 -0.039768 -0.299967
 56 -1.266844 -1.937444 -4.950560 -0.066572 -2.988806 -0.110308
 57 6.551491 0.000000 -0.000000 0.103914 -0.039768 -0.299967
 58 0.699370 -1.944208 -5.006848 -0.027189 -3.088217 0.005298
 59 4.226147 -0.003201 0.000001 0.280253 0.372491 -0.014286
 60 -0.000002 5.000000 0.000000 -0.153564 0.000087 2.718702
 61 0.000004 -0.000004 -3.713580 -0.006814 3.056983 -0.063787
 62 -0.000001 0.000000 5.000000 3.053197 1.558589 -0.074927
 63 -0.000007 0.000006 3.713580 -0.159276 -2.977491 -0.403653
 64 0.000001 -0.000000 -5.000000 -0.088724 1.558589 3.066337
 65 7.363602 1.646647 0.495663 3.141593 -1.570796 0.000000
 66 -0.000005 0.000007 3.619081 -0.217558 -2.796588 -0.810634
 67 16.573919 -0.000001 0.000000 0.000000 0.000000 -2.033247
 68 15.128181 0.000002 -0.000000 0.271612 0.009043 -0.097069
 69 5.758665 4.244730 0.000000 0.000000 -0.000000 1.842220
 70 3.177726 -0.000001 -0.000001 0.000000 0.000000 3.141593
 71 15.708953 0.000001 -0.000001 0.136460 0.001254 -0.052592
 72 0.275149 0.189214 -3.445208 3.130898 0.000409 -1.514604
 73 17.210194 -0.000002 0.000000 -0.000000 -0.000000 -2.328678
 74 -0.000000 0.000001 -4.999999 -0.079432 1.546568 -1.570855
 75 0.000002 -0.000003 -3.619081 -0.011130 3.002286 -0.086533
 76 16.573921 0.000000 -0.000000 -0.000000 -0.000000 -0.162458
 77 15.128179 -0.000000 0.000000 -0.000920 0.139743 0.076637
 78 5.758665 4.244731 -0.000001 -0.000000 0.000000 1.570796
 79 4.003934 -0.000000 0.000000 0.000000 0.000000 0.000000
 80 15.708953 0.000000 -0.000000 -0.001364 0.104219 0.055002
 81 0.273998 0.191090 3.439763 -3.130907 -0.000437 -1.508107
 82 17.210194 -0.000000 -0.000000 0.000000 -0.000000 -1.486823
 83 -0.000000 -0.000001 5.000000 -0.079314 1.595025 -1.570739
time 1
  0 -0.650000 0.000000 33.899605 -0.025849 0.174554 -1.569172
  1 6.464957 0.947535 -36.647930 -0.174512 -0.026131 1.569196
  2 -2.276935 0.000003 -1.238188 -1.570795 -1.570451 0.000000
  3 1.797059 0.711896 0.000795 -0.246959 -0.105283 0.001037
  4 4.119878 -0.002918 0.000790 -0.244470 0.093491 0.387966
  5 4.118968 -0.003155 0.000821 -0.253383 0.047727 0.102635
  6 4.118620 -0.003171 0.000841 -0.259142 0.009399 0.003499
  7 4.117746 -0.002918 -0.001811 0.695008 0.644018 0.179121
  8 4.443602 -0.000001 0.000002 0.450837 -0.260411 0.374172
  9 9.024061 0.000001 0.000000 0.000000 0.000000 0.000000
 10 -1.040345 0.890885 1.064242 0.741655 -0.691775 2.475557
 11 6.384777 -0.000000 -0.000001 -1.244040 -0.054257 -0.887651
 12 10.242681 0.000000 -0.000000 -0.000000 -0.000000 -1.623667
 13 11.375558 0.000001 0.000001 -3.097370 0.608663 0.750758
 14 0.728680 0.023431 -1.008293 1.202975 0.409398 0.881725
 15 2.136498 -0.000002 -0.000001 0.000000 -0.000000 -0.078540
 16 2.313139 0.000001 0.000000 0.000000 0.000000 0.000000
 17 3.115506 -0.886040 -0.021434 -0.166499 0.000392 0.514872
 18 2.011153 0.000001 -0.000002 0.000000 0.000000 1.322792
 19 2.141379 -0.000001 -0.000001 0.000000 0.000000 0.000000
 20 1.734172 -0.000001 -0.000000 -0.000000 -0.000000 0.660693
 21 0.000007 -4.440593 0.000002 1.570544 -0.062990 -0.195737
 22 5.999997 0.000000 -0.000000 -2.831017 -0.000000 0.000000
 23 0.000003 -4.440602 -0.000000 1.569944 -0.062987 0.004053
 24 11.375560 0.000000 0.000005 -2.361032 0.149310 0.496311
 25 -0.000002 -4.440604 0.000001 1.570144 -0.062988 0.004040
 26 10.510132 0.000003 -0.000001 0.000000 0.000000 -2.382630
 27 -0.000001 -1.748401 4.999998 -0.000000 0.004007 1.602291
 28 5.500000 0.000003 -0.000001 0.469397 0.000000 -0.000000
 29 -0.000002 -1.940600 5.000002 -0.044472 0.004003 -0.000180
 30 6.551492 -0.000000 -0.000002 -0.883508 0.065162 -0.612967
 31 -0.000001 -1.940599 5.000000 -0.027189 -0.053376 0.005295
 32 6.551492 -0.000000 -0.000002 -0.379790 0.098057 -0.257824
 33 -0.000002 -1.940599 4.999999 -0.066572 -0.152786 -0.110311
 34 1.040354 -0.883809 -1.064238 2.497159 1.066116 -0.495988
 35 6.384776 -0.000001 -0.000000 0.319836 0.031773 -1.025726
 36 10.242681 -0.000001 0.000001 0.000000 0.000000 -2.191539
 37 11.375561 0.000001 0.000001 2.706145 0.257469 0.619089
 38 0.728682 0.023431 1.008290 -1.579583 -0.319038 0.212973
 39 2.136496 -0.000001 0.000000 0.000000 0.000000 1.282817
 40 2.313140 -0.000001 0.000000 0.000000 0.000000 3.141593
 41 3.115508 -0.886042 0.021430 0.420765 0.316066 0.167178
 42 2.011151 0.000000 0.000001 -0.000000 0.000000 2.082010
 43 2.141379 -0.000000 -0.000000 0.000000 0.000000 3.141593
 44 1.734172 -0.000001 0.000001 0.000000 0.000000 1.041748
 45 0.136315 -3.738193 2.525892 1.493698 2.759406 -1.474501
 46 10.273804 -0.437102 1.198990 1.793563 0.004868 1.507198
 47 11.389365 -0.000817 0.158783 2.112678 0.223708 0.275312
 48 0.000001 -4.440599 0.000001 1.570144 -3.078602 0.004040
 49 5.999999 0.000001 0.000002 2.112678 0.000000 -0.000000
 50 0.000002 -4.440601 0.000000 1.569944 -3.078603 0.004053
 51 10.510131 -0.000001 0.000004 0.000000 0.000000 -2.666566
 52 0.000001 -1.748400 -5.000001 3.141593 0.004007 -1.539299
 53 5.500000 -0.000000 0.000003 -0.111728 -0.000000 -0.000000
 54 -0.000001 0.000000 -5.000000 -0.044472 3.137589 -0.000177
 55 6.551490 -0.000001 -0.000000 0.111728 -0.035830 -0.295180
 56 -1.266843 -1.937444 -4.950560 -0.066572 -2.988806 -0.110308
 57 6.551491 -0.000001 -0.000000 0.111728 -0.035830 -0.295180
 58 0.699370 -1.944207 -5.006848 -0.027189 -3.088217 0.005298
 59 4.226146 -0.003203 -0.000001 0.317394 0.344878 0.023603
 60 -0.000002 5.000000 -0.000001 -0.153564 0.000087 2.718702
 61 0.000004 -0.000004 -3.713580 -0.006814 3.056983 -0.063787
 62 -0.000001 0.000000 5.000000 3.053197 1.558589 -0.074927
 63 -0.000007 0.000006 3.713580 -0.159276 -2.977491 -0.403653
 64 0.000001 -0.000000 -5.000000 -0.088724 1.558589 3.066337
 65 7.363602 1.646647 0.495663 3.141593 -1.570796 0.000000
 66 -0.000005 0.000007 3.619081 -0.217558 -2.796588 -0.810634
 67 16.573919 -0.000001 0.000000 0.000000 0.000000 -2.033247
 68 15.128181 0.000002 -0.000000 0.271612 0.009043 -0.097069
 69 5.758665 4.244730 0.000000 0.000000 -0.000000 1.842220
 70 3.177726 -0.000001 -0.000001 0.000000 0.000000 3.141593
 71 15.708953 0.000001 -0.000001 0.136460 0.001254 -0.052592
 72 0.275149 0.189214 -3.445208 3.130898 0.000409 -1.514604
 73 17.210194 -0.000002 0.000000 -0.000000 -0.000000 -2.328678
 74 -0.000000 0.000001 -4.999999 -0.079432 1.546568 -1.570855
 75 0.000002 -0.000003 -3.619081 -0.011130 3.002286 -0.086533
 76 16.573921 0.000000 -0.000000 -0.000000 -0.000000 -0.162458
 77 15.128179 -0.000000 0.000000 -0.000920 0.139743 0.076637
 78 5.758665 4.244731 -0.000001 -0.000000 0.000000 1.570796
 79 4.003934 -0.000000 0.000000 0.000000 0.000000 0.000000
 80 15.708953 0.000000 -0.000000 -0.001364 0.104219 0.055002
 81 0.273998 0.191090 3.439763 -3.130907 -0.000437 -1.508107
 82 17.210194 -0.000000 -0.000000 0.000000 -0.000000 -1.486823
 83 -0.000000 -0.000001 5.000000 -0.079314 1.595025 -1.570739
time 2
  0 -0.650000 0.000000 33.899605 -0.025849 0.174554 -1.569172
  1 6.464957 0.947535 -36.647930 -0.174512 -0.026131 1.569196
  2 -2.276935 0.000003 -1.238188 -1.570795 -1.570451 0.000000
  3 1.797066 0.711892 0.000782 -0.242871 -0.104989 0.002325
  4 4.119880 -0.002920 0.000777 -0.240126 0.093781 0.389254
  5 4.118971 -0.003158 0.000807 -0.249099 0.048028 0.103916
  6 4.118625 -0.003174 0.000827 -0.254906 0.009708 0.004777
  7 4.117930 -0.002792 -0.002066 0.765633 0.567588 0.242074
  8 4.443601 -0.000001 0.000000 0.414974 -0.175782 0.243278
  9 9.024059 0.000000 0.000000 0.000000 0.000000 0.000000
 10 -0.931506 1.016018 1.053325 0.794501 -0.685403 2.352426
 11 6.384777 -0.000002 -0.000001 -1.245150 -0.071894 -0.906067
 12 10.242683 0.000002 0.000001 0.000000 -0.000000 -1.577417
 13 11.375566 -0.000002 0.000002 -3.092190 0.619834 0.727555
 14 0.728680 0.023425 -1.008291 1.202975 0.409398 0.881725
 15 2.136502 0.000002 -0.000003 0.000000 0.000000 -0.078540
 16 2.313141 -0.000001 -0.000000 0.000000 0.000000 0.000000
 17 3.115505 -0.886044 -0.021430 -0.166499 0.000392 0.514872
 18 2.011149 -0.000002 -0.000001 -0.000000 -0.000000 1.322792
 19 2.141380 -0.000001 -0.000001 0.000000 0.000000 0.000000
 20 1.734171 -0.000000 -0.000002 -0.000000 0.000000 0.660693
 21 0.000008 -4.440592 -0.000003 1.570544 -0.062990 -0.195737
 22 6.000001 -0.000001 0.000001 -2.823688 0.000000 -0.000000
 23 0.000001 -4.440601 0.000000 1.569944 -0.062987 0.004053
 24 11.375563 0.000000 0.000005 -2.356297 0.160200 0.488094
 25 0.000000 -4.440604 -0.000000 1.570144 -0.062988 0.004040
 26 10.510130 0.000000 0.000001 0.000000 -0.000000 -2.359505
 27 0.000001 -1.748400 4.999998 -0.000000 0.004007 1.602290
 28 5.500000 0.000002 0.000000 0.471262 0.000000 0.000000
 29 -0.000003 -1.940599 5.000000 -0.044472 0.004003 -0.000180
 30 6.551492 -0.000002 -0.000000 -0.887320 0.053719 -0.622758
 31 -0.000000 -1.940599 5.000004 -0.027189 -0.053376 0.005295
 32 6.551492 -0.000001 -0.000001 -0.381035 0.094431 -0.262423
 33 -0.000001 -1.940599 4.999996 -0.066572 -0.152786 -0.110311
 34 0.931515 -1.008943 -1.053323 2.486135 1.084064 -0.564286
 35 6.384776 0.000000 -0.000001 0.339421 0.046606 -0.991932
 36 10.242682 -0.000000 0.000002 -0.000000 -0.000000 -2.199752
 37 11.375562 -0.000001 0.000000 2.716720 0.260750 0.665125
 38 0.728681 0.023431 1.008294 -1.579583 -0.319038 0.212973
 39 2.136499 -0.000005 0.000000 0.000000 -0.000000 1.282817
 40 2.313140 0.000003 0.000000 0.000000 0.000000 3.141593
 41 3.115506 -0.886041 0.021430 0.420766 0.316066 0.167178
 42 2.011151 -0.000001 -0.000001 0.000000 0.000000 2.082010
 43 2.141380 -0.000000 -0.000000 0.000000 0.000000 3.141593
 44 1.734173 -0.000001 -0.000001 0.000000 -0.000000 1.041748
 45 0.136315 -3.738193 2.525888 1.493698 2.759406 -1.474501
 46 10.273805 -0.437101 1.198993 1.793563 0.004868 1.507198
 47 11.389367 -0.000819 0.158782 2.115340 0.230833 0.295025
 48 -0.000001 -4.440598 -0.000001 1.570144 -3.078602 0.004040
 49 6.000000 0.000000 0.000002 2.115340 -0.000000 0.000000
 50 0.000002 -4.440599 0.000000 1.569944 -3.078603 0.004053
 51 10.510131 0.000000 -0.000001 0.000000 0.000000 -2.670672
 52 -0.000000 -1.748400 -5.000002 3.141593 0.004007 -1.539299
 53 5.499999 -0.000000 0.000000 -0.119043 0.000000 -0.000000
 54 -0.000001 -0.000000 -4.999999 -0.044472 3.137589 -0.000177
 55 6.551490 -0.000000 -0.000001 0.119043 -0.031908 -0.290399
 56 -1.266843 -1.937443 -4.950559 -0.066572 -2.988806 -0.110308
 57 6.551491 -0.000000 -0.000001 0.119043 -0.031908 -0.290399
 58 0.699370 -1.944208 -5.006846 -0.027189 -3.088217 0.005298
 59 4.226146 -0.003202 -0.000001 0.352636 0.315141 0.060191
 60 -0.000000 5.000000 -0.000000 -0.153564 0.000087 2.718702
 61 0.000004 -0.000004 -3.713580 -0.006814 3.056983 -0.063787
 62 -0.000001 0.000000 5.000000 3.053197 1.558589 -0.074927
 63 -0.000007 0.000006 3.713580 -0.159276 -2.977491 -0.403653
 64 0.000001 -0.000000 -5.000000 -0.088724 1.558589 3.066337
 65 7.363602 1.646647 0.495663 3.141593 -1.570796 0.000000
 66 -0.000005 0.000007 3.619081 -0.217558 -2.796588 -0.810634
 67 16.573919 -0.000001 0.000000 0.000000 0.000000 -2.033247
 68 15.128181 0.000002 -0.000000 0.271612 0.009043 -0.097069
 69 5.758665 4.244730 0.000000 0.000000 -0.000000 1.842220
 70 3.177726 -0.000001 -0.000001 0.000000 0.000000 3.141593
 71 15.708953 0.000001 -0.000001 0.136460 0.001254 -0.052592
 72 0.275149 0.189214 -3.445208 3.130898 0.000409 -1.514604
 73 17.210194 -0.000002 0.000000 -0.000000 -0.000000 -2.328678
 74 -0.000000 0.000001 -4.999999 -0.079432 1.546568 -1.570855
 75 0.000002 -0.000003 -3.619081 -0.011130 3.002286 -0.086533
 76 16.573921 0.000000 -0.000000 -0.000000 -0.000000 -0.162458
 77 15.128179 -0.000000 0.000000 -0.000920 0.139743 0.076637
 78 5.758665 4.244731 -0.000001 -0.000000 0.000000 1.570796
 79 4.003934 -0.000000 0.000000 0.000000 0.000000 0.000000
 80 15.708953 0.000000 -0.000000 -0.001364 0.104219 0.055002
 81 0.273998 0.191090 3.439763 -3.130907 -0.000437 -1.508107
 82 17.210194 -0.000000 -0.000000 0.000000 -0.000000 -1.486823
 83 -0.000000 -0.000001 5.000000 -0.079314 1.595025 -1.570739
time 3
  0 -0.650000 0.000000 33.899605 -0.025849 0.174554 -1.569172
  1 6.464957 0.947535 -36.647930 -0.174512 -0.026131 1.569196
  2 -2.276935 0.000003 -1.238188 -1.570795 -1.570451 0.000000
  3 1.797073 0.711889 0.000769 -0.238783 -0.104701 0.003615
  4 4.119881 -0.002922 0.000763 -0.235782 0.094065 0.390543
  5 4.118980 -0.003161 0.000793 -0.244814 0.048323 0.105198
  6 4.118626 -0.003175 0.000814 -0.250670 0.010011 0.006056
  7 4.118135 -0.002648 -0.002302 0.827630 0.487832 0.295997
  8 4.443598 0.000000 -0.000000 0.372487 -0.097106 0.108640
  9 9.024061 -0.000000 0.000002 0.000000 0.000000 0.000000
 10 -0.812146 1.130562 1.035642 0.845674 -0.674064 2.230649
 11 6.384776 -0.000000 0.000000 -1.246770 -0.088934 -0.923570
 12 10.242682 -0.000000 0.000001 -0.000000 -0.000000 -1.531418
 13 11.375562 -0.000003 0.000001 -3.087204 0.631683 0.703961
 14 0.728680 0.023429 -1.008290 1.202975 0.409398 0.881725
 15 2.136497 -0.000002 0.000000 0.000000 -0.000000 -0.078540
 16 2.313140 0.000001 0.000000 0.000000 0.000000 0.000000
 17 3.115506 -0.886043 -0.021430 -0.166499 0.000392 0.514872
 18 2.011149 0.000001 -0.000002 -0.000000 -0.000000 1.322791
 19 2.141378 0.000001 0.000002 0.000000 0.000000 0.000000
 20 1.734172 0.000002 -0.000003 0.000000 0.000000 0.660693
 21 0.000008 -4.440593 -0.000001 1.570544 -0.062990 -0.195737
 22 6.000000 -0.000002 0.000001 -2.816514 0.000000 0.000000
 23 0.000002 -4.440600 -0.000001 1.569944 -0.062987 0.004053
 24 11.375562 -0.000002 0.000004 -2.351548 0.171417 0.479805
 25 0.000000 -4.440604 0.000002 1.570144 -0.062988 0.004040
 26 10.510130 -0.000001 0.000000 -0.000000 0.000000 -2.336505
 27 -0.000002 -1.748400 4.999999 -0.000000 0.004007 1.602291
 28 5.499999 -0.000001 0.000000 0.473325 -0.000000 0.000000
 29 -0.000002 -1.940600 5.000000 -0.044472 0.004003 -0.000180
 30 6.551491 -0.000000 -0.000001 -0.891651 0.042627 -0.632218
 31 0.000001 -1.940598 5.000001 -0.027189 -0.053376 0.005295
 32 6.551491 0.000000 -0.000001 -0.382416 0.090999 -0.266757
 33 0.000000 -1.940599 4.999999 -0.066572 -0.152786 -0.110311
 34 0.812149 -1.123486 -1.035642 2.476250 1.099749 -0.632989
 35 6.384776 -0.000001 -0.000001 0.358168 0.060626 -0.957421
 36 10.242681 -0.000000 0.000001 0.000000 0.000000 -2.207966
 37 11.375561 0.000000 0.000001 2.727448 0.263557 0.711232
 38 0.728681 0.023430 1.008292 -1.579583 -0.319038 0.212973
 39 2.136498 -0.000003 0.000000 0.000000 -0.000000 1.282817
 40 2.313139 -0.000002 0.000000 0.000000 0.000000 3.141593
 41 3.115506 -0.886041 0.021431 0.420766 0.316066 0.167178
 42 2.011150 0.000000 0.000002 -0.000000 0.000000 2.082010
 43 2.141379 0.000000 0.000002 0.000000 0.000000 3.141593
 44 1.734172 -0.000001 0.000001 -0.000000 0.000000 1.041748
 45 0.136316 -3.738192 2.525892 1.493698 2.759406 -1.474501
 46 10.273805 -0.437102 1.198993 1.793563 0.004868 1.507198
 47 11.389367 -0.000819 0.158783 2.117985 0.237847 0.314634
 48 -0.000000 -4.440599 0.000000 1.570144 -3.078602 0.004040
 49 6.000000 0.000000 0.000001 2.117985 0.000000 0.000000
 50 0.000002 -4.440601 0.000002 1.569944 -3.078603 0.004053
 51 10.510131 -0.000001 0.000001 0.000000 -0.000000 -2.674779
 52 0.000001 -1.748400 -5.000000 -3.141593 0.004007 -1.539299
 53 5.499999 -0.000000 -0.000001 -0.125845 -0.000000 0.000000
 54 -0.000000 -0.000000 -4.999998 -0.044472 3.137589 -0.000177
 55 6.551490 -0.000001 -0.000001 0.125845 -0.028010 -0.285610
 56 -1.266843 -1.937443 -4.950562 -0.066572 -2.988806 -0.110308
 57 6.551490 -0.000001 -0.000001 0.125845 -0.028010 -0.285610
 58 0.699371 -1.944208 -5.006849 -0.027189 -3.088217 0.005298
 59 4.226148 -0.003203 -0.000000 0.385906 0.283385 0.095290
 60 -0.000001 5.000000 0.000000 -0.153564 0.000087 2.718702
 61 0.000004 -0.000004 -3.713580 -0.006814 3.056983 -0.063787
 62 -0.000001 0.000000 5.000000 3.053197 1.558589 -0.074927
 63 -0.000007 0.000006 3.713580 -0.159276 -2.977491 -0.403653
 64 0.000001 -0.000000 -5.000000 -0.088724 1.558589 3.066337
 65 7.363602 1.646647 0.495663 3.141593 -1.570796 0.000000
 66 -0.000005 0.000007 3.619081 -0.217558 -2.796588 -0.810634
 67 16.573919 -0.000001 0.000000 0.000000 0.000000 -2.033247
 68 15.128181 0.000002 -0.000000 0.271612 0.009043 -0.097069
 69 5.758665 4.244730 0.000000 0.000000 -0.000000 1.842220
 70 3.177726 -0.000001 -0.000001 0.000000 0.000000 3.141593
 71 15.708953 0.000001 -0.000001 0.136460 0.001254 -0.052592
 72 0.275149 0.189214 -3.445208 3.130898 0.000409 -1.514604
 73 17.210194 -0.000002 0.000000 -0.000000 -0.000000 -2.328678
 74 -0.000000 0.000001 -4.999999 -0.079432 1.546568 -1.570855
 75 0.000002 -0.000003 -3.619081 -0.011130 3.002286 -0.086533
 76 16.573921 0.000000 -0.000000 -0.000000 -0.000000 -0.162458
 77 15.128179 -0.000000 0.000000 -0.000920 0.139743 0.076637
 78 5.758665 4.244731 -0.000001 -0.000000 0.000000 1.570796
 79 4.003934 -0.000000 0.000000 0.000000 0.000000 0.000000
 80 15.708953 0.000000 -0.000000 -0.001364 0.104219 0.055002
 81 0.273998 0.191090 3.439763 -3.130907 -0.000437 -1.508107
 82 17.210194 -0.000000 -0.000000 0.000000 -0.000000 -1.486823
 83 -0.000000 -0.000001 5.000000 -0.079314 1.595025 -1.570739
time 4
  0 -0.650000 0.000000 33.899605 -0.025849 0.174554 -1.569172
  1 6.464957 0.947535 -36.647930 -0.174512 -0.026131 1.569196
  2 -2.276935 0.000003 -1.238188 -1.570795 -1.570451 0.000000
  3 1.797076 0.711886 0.000756 -0.234694 -0.104418 0.004906
  4 4.119887 -0.002924 0.000748 -0.231438 0.094343 0.391833
  5 4.118979 -0.003162 0.000781 -0.240528 0.048613 0.106482
  6 4.118637 -0.003180 0.000800 -0.246434 0.010309 0.007336
  7 4.118343 -0.002480 -0.002511 0.882588 0.405430 0.342405
  8 4.443601 0.000000 0.000001 0.323697 -0.025473 -0.030632
  9 9.024060 -0.000000 -0.000000 0.000000 0.000000 0.000000
 10 -0.683405 1.233367 1.011332 0.894276 -0.657971 2.110956
 11 6.384777 -0.000000 -0.000001 -1.248879 -0.105433 -0.940150
 12 10.242681 0.000000 0.000002 -0.000000 -0.000000 -1.485728
 13 11.375561 -0.000001 0.000001 -3.082442 0.644187 0.680052
 14 0.728682 0.023431 -1.008293 1.202975 0.409398 0.881725
 15 2.136495 0.000001 -0.000000 -0.000000 0.000000 -0.078540
 16 2.313141 -0.000000 -0.000000 0.000000 0.000000 0.000000
 17 3.115507 -0.886045 -0.021431 -0.166499 0.000392 0.514872
 18 2.011151 0.000000 -0.000000 -0.000000 -0.000000 1.322791
 19 2.141379 0.000001 0.000000 0.000000 0.000000 0.000000
 20 1.734172 -0.000001 -0.000000 0.000000 0.000000 0.660693
 21 0.000008 -4.440593 0.000003 1.570544 -0.062990 -0.195737
 22 6.000000 -0.000002 0.000000 -2.809514 -0.000000 -0.000000
 23 0.000004 -4.440601 0.000000 1.569944 -0.062987 0.004053
 24 11.375561 -0.000001 0.000004 -2.346789 0.182929 0.471465
 25 -0.000001 -4.440604 0.000003 1.570144 -0.062988 0.004040
 26 10.510131 0.000002 0.000001 0.000000 0.000000 -2.313660
 27 0.000002 -1.748401 4.999998 0.000000 0.004007 1.602290
 28 5.499999 0.000000 0.000002 0.475560 -0.000000 0.000000
 29 -0.000001 -1.940599 5.000000 -0.044472 0.004003 -0.000180
 30 6.551490 0.000002 0.000001 -0.896447 0.031825 -0.641356
 31 -0.000001 -1.940600 5.000005 -0.027189 -0.053376 0.005295
 32 6.551490 0.000002 0.000001 -0.383914 0.087735 -0.270845
 33 -0.000000 -1.940599 4.999997 -0.066572 -0.152786 -0.110311
 34 0.683414 -1.226291 -1.011330 2.467852 1.113086 -0.701679
 35 6.384776 0.000001 -0.000002 0.376027 0.073819 -0.922240
 36 10.242682 -0.000000 0.000001 0.000000 -0.000000 -2.216179
 37 11.375561 0.000001 0.000002 2.738306 0.265882 0.757399
 38 0.728680 0.023431 1.008292 -1.579583 -0.319038 0.212973
 39 2.136497 -0.000002 -0.000000 0.000000 0.000000 1.282817
 40 2.313138 -0.000001 -0.000000 0.000000 0.000000 3.141593
 41 3.115506 -0.886040 0.021431 0.420765 0.316066 0.167178
 42 2.011151 -0.000001 -0.000000 -0.000000 0.000000 2.082010
 43 2.141381 -0.000001 0.000001 0.000000 0.000000 3.141593
 44 1.734172 -0.000000 0.000001 0.000000 0.000000 1.041748
 45 0.136314 -3.738193 2.525891 1.493698 2.759406 -1.474501
 46 10.273805 -0.437102 1.198991 1.793563 0.004868 1.507198
 47 11.389367 -0.000820 0.158781 2.120615 0.244789 0.334201
 48 -0.000001 -4.440600 -0.000001 1.570144 -3.078602 0.004040
 49 6.000000 0.000000 0.000000 2.120615 0.000000 -0.000000
 50 0.000001 -4.440602 0.000001 1.569944 -3.078603 0.004053
 51 10.510131 0.000000 0.000002 0.000000 0.000000 -2.678886
 52 -0.000001 -1.748399 -5.000002 -3.141593 0.004007 -1.539299
 53 5.500000 -0.000000 0.000002 -0.132124 -0.000000 0.000000
 54 -0.000000 0.000000 -4.999999 -0.044472 3.137590 -0.000177
 55 6.551490 -0.000001 -0.000000 0.132124 -0.024132 -0.280799
 56 -1.266843 -1.937443 -4.950560 -0.066572 -2.988806 -0.110308
 57 6.551491 -0.000001 -0.000000 0.132124 -0.024132 -0.280799
 58 0.699371 -1.944207 -5.006847 -0.027189 -3.088217 0.005298
 59 4.226149 -0.003202 -0.000001 0.417182 0.249778 0.128726
 60 0.000001 4.999999 -0.000000 -0.153564 0.000087 2.718702
 61 0.000004 -0.000004 -3.713580 -0.006814 3.056983 -0.063787
 62 -0.000001 0.000000 5.000000 3.053197 1.558589 -0.074927
 63 -0.000007 0.000006 3.713580 -0.159276 -2.977491 -0.403653
 64 0.000001 -0.000000 -5.000000 -0.088724 1.558589 3.066337
 65 7.363602 1.646647 0.495663 3.141593 -1.570796 0.000000
 66 -0.000005 0.000007 3.619081 -0.217558 -2.796588 -0.810634
 67 16.573919 -0.000001 0.000000 0.000000 0.000000 -2.033247
 68 15.128181 0.000002 -0.000000 0.271612 0.009043 -0.097069
 69 5.758665 4.244730 0.000000 0.000000 -0.000000 1.842220
 70 3.177726 -0.000001 -0.000001 0.000000 0.000000 3.141593
 71 15.708953 0.000001 -0.000001 0.136460 0.001254 -0.052592
 72 0.275149 0.189214 -3.445208 3.130898 0.000409 -1.514604
 73 17.210194 -0.000002 0.000000 -0.000000 -0.000000 -2.328678
 74 -0.000000 0.000001 -4.999999 -0.079432 1.546568 -1.570855
 75 0.000002 -0.000003 -3.619081 -0.011130 3.002286 -0.086533
 76 16.573921 0.000000 -0.000000 -0.000000 -0.000000 -0.162458
 77 15.128179 -0.000000 0.000000 -0.000920 0.139743 0.076637
 78 5.758665 4.244731 -0.000001 -0.000000 0.000000 1.570796
 79 4.003934 -0.000000 0.000000 0.000000 0.000000 0.000000
 80 15.708953 0.000000 -0.000000 -0.001364 0.104219 0.055002
 81 0.273998 0.191090 3.439763 -3.130907 -0.000437 -1.508107
 82 17.210194 -0.000000 -0.000000 0.000000 -0.000000 -1.486823
 83 -0.000000 -0.000001 5.000000 -0.079314 1.595025 -1.570739
time 5
  0 -0.650000 0.000000 33.899605 -0.025849 0.174554 -1.569172
  1 6.464957 0.947535 -36.647930 -0.174512 -0.026131 1.569196
  2 -2.276935 0.000003 -1.238188 -1.570795 -1.570451 0.000000
  3 1.797076 0.711886 0.000756 -0.234694 -0.104418 0.004906
  4 4.119887 -0.002924 0.000748 -0.231438 0.094343 0.391833
  5 4.118979 -0.003162 0.000781 -0.240528 0.048613 0.106482
  6 4.118637 -0.003180 0.000800 -0.246434 0.010309 0.007336
  7 4.118343 -0.002480 -0.002511 0.882588 0.405430 0.342405
  8 4.443601 0.000000 0.000001 0.323697 -0.025473 -0.030632
  9 9.024060 -0.000000 -0.000000 0.000000 0.000000 0.000000
 10 -0.683405 1.233367 1.011332 0.894276 -0.657971 2.110956
 11 6.384777 -0.000000 -0.000001 -1.257204 -0.109049 -0.933261
 12 10.242682 -0.000000 -0.000000 0.000000 -0.000000 -1.468513
 13 11.375563 -0.000002 -0.000000 -3.077977 0.663057 0.675752
 14 0.728682 0.023432 -1.008293 1.202975 0.409398 0.881725
 15 2.136495 -0.000001 0.000001 -0.000000 0.000000 -0.078540
 16 2.313141 -0.000000 -0.000000 0.000000 0.000000 0.000000
 17 3.115507 -0.886040 -0.021430 -0.166499 0.000392 0.514872
 18 2.011148 -0.000002 0.000002 0.000000 0.000000 1.322792
 19 2.141380 0.000000 -0.000003 0.000000 0.000000 0.000000
 20 1.734171 0.000002 0.000002 0.000000 -0.000000 0.660693
 21 0.000004 -4.440594 0.000002 1.570544 -0.062990 -0.195737
 22 6.000000 0.000000 -0.000000 -2.805641 0.000000 0.000000
 23 0.000003 -4.440602 -0.000000 1.569944 -0.062987 0.004053
 24 11.375562 -0.000001 0.000003 -2.343908 0.193829 0.472446
 25 0.000000 -4.440603 0.000001 1.570144 -0.062988 0.004040
 26 10.510131 -0.000001 -0.000000 -0.000000 0.000000 -2.305053
 27 0.000001 -1.748400 5.000000 -0.000000 0.004007 1.602291
 28 5.499999 -0.000001 0.000000 0.478727 -0.000000 0.000000
 29 -0.000003 -1.940600 5.000000 -0.044472 0.004003 -0.000180
 30 6.551490 0.000002 0.000001 -0.903147 0.030054 -0.639727
 31 -0.000000 -1.940599 5.000004 -0.027189 -0.053376 0.005295
 32 6.551490 0.000002 0.000001 -0.386319 0.087377 -0.269817
 33 -0.000001 -1.940599 4.999997 -0.066572 -0.152786 -0.110311
 34 0.683414 -1.226291 -1.011330 2.557398 1.128558 -0.593436
 35 6.384776 0.000001 -0.000001 0.386586 0.080836 -0.901830
 36 10.242682 -0.000000 0.000000 0.000000 -0.000000 -2.224393
 37 11.375561 0.000001 -0.000000 2.749269 0.267722 0.803617
 38 0.728679 0.023431 1.008292 -1.579583 -0.319038 0.212973
 39 2.136497 -0.000001 -0.000000 0.000000 0.000000 1.282817
 40 2.313141 -0.000000 -0.000000 0.000000 0.000000 3.141593
 41 3.115506 -0.886041 0.021431 0.420766 0.316066 0.167178
 42 2.011150 0.000002 0.000002 -0.000000 -0.000000 2.082010
 43 2.141378 0.000000 -0.000003 0.000000 0.000000 3.141593
 44 1.734173 -0.000002 -0.000001 0.000000 0.000000 1.041748
 45 0.136316 -3.738192 2.525891 1.493698 2.759406 -1.474501
 46 10.273803 -0.437101 1.198992 1.793563 0.004868 1.507198
 47 11.389366 -0.000819 0.158782 2.123236 0.251699 0.353790
 48 0.000000 -4.440599 0.000000 1.570144 -3.078602 0.004040
 49 6.000000 0.000000 -0.000001 2.123236 -0.000000 -0.000000
 50 0.000002 -4.440601 -0.000001 1.569944 -3.078603 0.004053
 51 10.510130 -0.000001 -0.000000 -0.000000 -0.000000 -2.682992
 52 0.000000 -1.748400 -5.000000 -3.141593 0.004007 -1.539299
 53 5.500000 -0.000001 0.000000 -0.135708 0.000000 -0.000000
 54 -0.000001 -0.000000 -5.000001 -0.044472 3.137589 -0.000177
 55 6.551490 0.000000 -0.000001 0.135708 -0.022048 -0.278037
 56 -1.266843 -1.937444 -4.950560 -0.066572 -2.988806 -0.110308
 57 6.551491 0.000000 -0.000001 0.135708 -0.022048 -0.278037
 58 0.699370 -1.944208 -5.006847 -0.027189 -3.088217 0.005298
 59 4.226149 -0.003202 -0.000001 0.417182 0.249778 0.128726
 60 0.000001 4.999999 -0.000000 -0.153564 0.000087 2.718702
 61 0.000004 -0.000004 -3.713580 -0.006814 3.056983 -0.063787
 62 -0.000001 0.000000 5.000000 3.053197 1.558589 -0.074927
 63 -0.000007 0.000006 3.713580 -0.159276 -2.977491 -0.403653
 64 0.000001 -0.000000 -5.000000 -0.088724 1.558589 3.066337
 65 7.363602 1.646647 0.495663 3.141593 -1.570796 0.000000
 66 -0.000005 0.000007 3.619081 -0.217558 -2.796588 -0.810634
 67 16.573919 -0.000001 0.000000 0.000000 0.000000 -2.033247
 68 15.128181 0.000002 -0.000000 0.271612 0.009043 -0.097069
 69 5.758665 4.244730 0.000000 0.000000 -0.000000 1.842220
 70 3.177726 -0.000001 -0.000001 0.000000 0.000000 3.141593
 71 15.708953 0.000001 -0.000001 0.136460 0.001254 -0.052592
 72 0.275149 0.189214 -3.445208 3.130898 0.000409 -1.514604
 73 17.210194 -0.000002 0.000000 -0.000000 -0.000000 -2.328678
 74 -0.000000 0.000001 -4.999999 -0.079432 1.546568 -1.570855
 75 0.000002 -0.000003 -3.619081 -0.011130 3.002286 -0.086533
 76 16.573921 0.000000 -0.000000 -0.000000 -0.000000 -0.162458
 77 15.128179 -0.000000 0.000000 -0.000920 0.139743 0.076637
 78 5.758665 4.244731 -0.000001 -0.000000 0.000000 1.570796
 79 4.003934 -0.000000 0.000000 0.000000 0.000000 0.000000
 80 15.708953 0.000000 -0.000000 -0.001364 0.104219 0.055002
 81 0.273998 0.191090 3.439763 -3.130907 -0.000437 -1.508107
 82 17.210194 -0.000000 -0.000000 0.000000 -0.000000 -1.486823
 83 -0.000000 -0.000001 5.000000 -0.079314 1.595025 -1.570739
end
