version 1
nodes
  0 "Bip01"  -1
  1 "Bip01 Footsteps"   0
  2 "Bip01 Pelvis"   0
  3 "Bip01 Spine"   2
  4 "Bip01 Spine1"   3
  5 "Bip01 Spine2"   4
  6 "Bip01 Spine3"   5
  7 "Bip01 Neck"   6
  8 "Bip01 Head"   7
  9 "Dummy21"   8
 10 "Bip01 L Clavicle"   7
 11 "Bip01 L UpperArm"  10
 12 "Bip01 L Forearm"  11
 13 "Bip01 L Hand"  12
 14 "Bip01 L Finger0"  13
 15 "Bip01 L Finger01"  14
 16 "Dummy06"  15
 17 "Bip01 L Finger1"  13
 18 "Bip01 L Finger11"  17
 19 "Dummy03"  18
 20 "-- L knuckle"  17
 21 "-- L knuckle_end"  20
 22 "-- L Forearm twist"  12
 23 "-- L Forearm twist_end"  22
 24 "-- L wrist"  12
 25 "-- L wrist_end"  24
 26 "-- L Elbow"  11
 27 "--L Elbow_end"  26
 28 "-- L bicep twist"  11
 29 "-- L bicep twist_end"  28
 30 "-- L shoulder outside"  10
 31 "-- L shoulder outside_end"  30
 32 "-- L Shoulder inside"  10
 33 "-- L Shoulder inside_end"  32
 34 "Bip01 R Clavicle"   7
 35 "Bip01 R UpperArm"  34
 36 "Bip01 R Forearm"  35
 37 "Bip01 R Hand"  36
 38 "Bip01 R Finger0"  37
 39 "Bip01 R Finger01"  38
 40 "Dummy01"  39
 41 "Bip01 R Finger1"  37
 42 "Bip01 R Finger11"  41
 43 "Dummy02"  42
 44 "-- R knuckle"  41
 45 "Point06"  44
 46 "Line03"  37
 47 "-- R wrist"  36
 48 "-- R wrist_end"  47
 49 "-- R forearm twist"  36
 50 "-- R forearm twist_end"  49
 51 "-- R Elbow"  35
 52 "--R Elbow_end"  51
 53 "-- R bicep twist"  35
 54 "-- R bicep twist_end"  53
 55 "-- R Shoulder inside"  34
 56 "-- R Shoulder inside_end"  55
 57 "-- R shoulder outside"  34
 58 "-- R shoulder outside_end"  57
 59 "-- Neck smooth"   6
 60 "-- neck smooth end"  59
 61 "-- R Butt"   2
 62 "--R Butt_end"  61
 63 "-- L butt"   2
 64 "--L butt_end"  63
 65 "GIGN01"   2
 66 "Bip01 L Thigh"   2
 67 "Bip01 L Calf"  66
 68 "Bip01 L Foot"  67
 69 "Bip01 L Toe0"  68
 70 "Dummy16"  69
 71 "-- L ankle"  67
 72 "-- L ankleend"  71
 73 "-- L Knee"  66
 74 "--L Knee_end"  73
 75 "Bip01 R Thigh"   2
 76 "Bip01 R Calf"  75
 77 "Bip01 R Foot"  76
 78 "Bip01 R Toe0"  77
 79 "Dummy11"  78
 80 "-- R Ankle"  76
 81 "-- R ankleend"  80
 82 "-- R Knee"  75
 83 "--R Knee_end"  82
end
skeleton
time 0
  0 0.500000 13.522099 26.931471 -0.243067 0.535714 -2.432935
  1 13.773751 5.584523 -22.520975 -0.544290 0.221328 2.303921
  2 -2.276934 0.000003 -1.238185 -1.570795 -1.570451 0.000000
  3 1.797261 0.711866 0.000678 -0.212571 -0.184434 0.075458
  4 4.120039 -0.002860 0.000718 -0.221328 0.087363 0.446008
  5 4.119209 -0.003150 0.000679 -0.209847 0.138950 0.160937
  6 4.117881 -0.003135 0.000647 -0.200989 0.111380 -0.249514
  7 4.118935 -0.003018 -0.001817 0.545683 0.145927 0.198206
  8 4.443600 0.000000 -0.000000 0.123570 0.717363 0.529825
  9 9.024060 -0.000000 -0.000000 0.000000 0.000000 0.000000
 10 -0.251953 0.893263 1.465343 1.131529 -0.860101 1.858833
 11 6.384778 -0.000000 -0.000001 -1.474764 1.003102 -1.436391
 12 10.242684 0.000000 0.000002 0.000000 -0.000000 -1.767975
 13 11.375561 -0.000001 0.000001 -2.238658 0.410217 1.078088
 14 0.728681 0.023431 -1.008294 2.155061 0.422963 0.849681
 15 2.136494 0.000001 -0.000001 0.000000 -0.000000 -0.078540
 16 2.313138 -0.000000 0.000000 0.000000 0.000000 0.000000
 17 3.115508 -0.886042 -0.021432 -0.620285 0.000392 0.514872
 18 2.011152 0.000000 0.000001 0.000000 -0.000000 1.322791
 19 2.141380 0.000000 0.000000 0.000000 0.000000 0.000000
 20 1.734173 0.000001 -0.000000 -0.000000 -0.000000 0.660693
 21 0.000007 -4.440594 0.000000 1.570544 -0.062990 -0.195737
 22 5.999999 0.000000 0.000002 -2.154276 0.000000 0.000000
 23 0.000001 -4.440600 -0.000000 1.569944 -0.062987 0.004053
 24 11.375560 0.000000 0.000005 -1.967844 0.106724 0.554852
 25 -0.000001 -4.440604 -0.000000 1.570144 -0.062988 0.004040
 26 10.510133 0.000000 0.000001 0.000000 0.000000 -2.454784
 27 0.000000 -1.748400 4.999998 0.000000 0.004007 1.602290
 28 5.500001 0.000000 0.000000 0.258781 0.000000 -0.000000
 29 0.000000 -1.940598 5.000001 -0.044472 0.004003 -0.000180
 30 6.551492 -0.000000 -0.000002 -0.709706 0.855161 -0.636220
 31 0.000002 -1.940598 5.000001 -0.027189 -0.053376 0.005295
 32 6.551492 -0.000000 -0.000002 -0.196729 0.410878 -0.163785
 33 0.000002 -1.940599 4.999996 -0.066572 -0.152786 -0.110311
 34 0.251958 -0.886185 -1.465343 2.161172 0.623556 -1.026378
 35 6.384775 0.000000 -0.000000 0.120401 -0.509710 -1.337900
 36 10.242682 -0.000001 -0.000001 0.000000 -0.000000 -2.285306
 37 11.375563 0.000001 0.000002 -3.013327 0.422375 1.071074
 38 0.728682 0.023432 1.008292 -1.579583 -0.319038 0.212973
 39 2.136497 0.000001 -0.000001 -0.000000 0.000000 1.282817
 40 2.313140 -0.000000 0.000000 0.000000 0.000000 3.141593
 41 3.115507 -0.886040 0.021431 0.420766 0.316066 0.167178
 42 2.011151 -0.000000 -0.000001 -0.000000 0.000000 2.082010
 43 2.141379 -0.000000 -0.000000 0.000000 0.000000 3.141593
 44 1.734171 -0.000001 0.000000 0.000000 -0.000000 1.041748
 45 0.136316 -3.738193 2.525890 1.493698 2.759406 -1.474501
 46 10.273805 -0.437101 1.198991 1.793563 0.004868 1.507198
 47 11.389368 -0.000818 0.158783 2.328004 0.442330 0.397291
 48 0.000001 -4.440599 -0.000000 1.570144 -3.078602 0.004040
 49 6.000001 0.000001 0.000001 2.328004 0.000000 -0.000000
 50 0.000004 -4.440602 -0.000001 1.569944 -3.078603 0.004053
 51 10.510131 0.000000 -0.000000 0.000000 -0.000000 -2.713449
 52 -0.000002 -1.748399 -5.000001 3.141593 0.004007 -1.539299
 53 5.499999 -0.000001 -0.000001 0.029263 0.000000 -0.000000
 54 -0.000001 0.000002 -5.000000 -0.044472 3.137589 -0.000177
 55 6.551488 0.000000 0.000000 -0.029263 -0.187022 -0.338136
 56 -1.266843 -1.937443 -4.950560 -0.066572 -2.988806 -0.110308
 57 6.551489 -0.000000 0.000000 -0.029263 -0.187022 -0.338136
 58 0.699370 -1.944208 -5.006845 -0.027189 -3.088217 0.005298
 59 4.226144 -0.003201 -0.000001 0.299993 0.100435 0.112134
 60 -0.000001 5.000001 0.000002 -0.153565 0.000087 2.718702
 61 0.000006 -0.000006 -3.713579 0.119535 -2.936655 -0.885276
 62 0.000001 0.000000 5.000000 3.053195 1.558589 -0.074929
 63 -0.000005 0.000005 3.713580 -0.311487 -2.845558 -0.582080
 64 0.000001 0.000000 -5.000000 -0.088726 1.558589 3.066335
 65 7.363603 1.646646 0.495663 -3.141593 -1.570796 0.000000
 66 -0.000005 0.000005 3.619082 -0.441735 -2.434423 -1.159240
 67 16.573917 -0.000000 0.000001 -0.000000 -0.000000 -2.011748
 68 15.128181 0.000000 -0.000000 0.026832 0.026147 -0.175154
 69 5.758666 4.244731 0.000000 0.000000 -0.000000 2.033309
 70 3.177727 0.000000 0.000000 0.000000 0.000000 3.141593
 71 15.708951 0.000002 -0.000000 0.013957 0.013894 -0.093781
 72 0.275148 0.189215 -3.445208 3.130898 0.000409 -1.514604
 73 17.210192 -0.000001 0.000002 -0.000000 0.000000 -2.319003
 74 0.000000 -0.000001 -5.000000 -0.079433 1.546568 -1.570857
 75 0.000007 -0.000004 -3.619079 0.260448 -2.945758 -1.468642
 76 16.573919 -0.000000 0.000001 0.000000 0.000000 -1.562392
 77 15.128181 0.000000 0.000001 0.265624 -0.173430 0.666428
 78 5.758665 4.244731 0.000000 -0.000000 0.000000 1.483530
 79 4.003934 -0.000000 0.000000 0.000000 0.000000 0.000000
 80 15.708953 0.000000 0.000000 0.195074 -0.100553 0.460486
 81 0.273998 0.191090 3.439762 -3.130907 -0.000437 -1.508107
 82 17.210196 0.000000 0.000001 -0.000000 0.000000 -2.116793
 83 0.000000 -0.000001 5.000000 -0.079311 1.595025 -1.570737
time 1
  0 0.500000 13.522099 26.931471 -0.243067 0.535714 -2.432935
  1 13.773751 5.584523 -22.520975 -0.544290 0.221328 2.303921
  2 -2.276934 0.000003 -1.238185 -1.570795 -1.570451 0.000000
  3 1.797293 0.711864 0.000656 -0.205425 -0.182519 0.084118
  4 4.120066 -0.002855 0.000687 -0.211849 0.089342 0.454541
  5 4.119236 -0.003155 0.000645 -0.199921 0.140830 0.169543
  6 4.117901 -0.003143 0.000618 -0.191300 0.113186 -0.240922
  7 4.119167 -0.002950 -0.001872 0.565063 0.156371 0.287696
  8 4.443599 -0.000001 -0.000001 0.000119 0.699478 0.287306
  9 9.024060 0.000001 0.000000 0.000000 0.000000 0.000000
 10 -0.269845 0.920031 1.445525 1.053287 -0.838954 1.847920
 11 6.384777 -0.000000 -0.000001 -1.459576 0.926241 -1.452348
 12 10.242682 -0.000000 0.000000 0.000000 0.000000 -1.695206
 13 11.375561 0.000000 0.000001 -2.241638 0.408114 1.052928
 14 0.728681 0.023432 -1.008292 2.155061 0.422963 0.849681
 15 2.136495 -0.000000 0.000001 0.000000 0.000000 -0.078540
 16 2.313140 -0.000000 -0.000000 0.000000 0.000000 0.000000
 17 3.115507 -0.886042 -0.021431 -0.620285 0.000392 0.514872
 18 2.011150 0.000001 0.000001 -0.000000 -0.000000 1.322792
 19 2.141380 0.000000 -0.000000 0.000000 0.000000 0.000000
 20 1.734172 0.000002 0.000000 0.000000 -0.000000 0.660693
 21 0.000007 -4.440594 0.000000 1.570544 -0.062990 -0.195737
 22 6.000000 -0.000000 0.000000 -2.153559 -0.000000 -0.000000
 23 0.000001 -4.440602 0.000000 1.569944 -0.062987 0.004053
 24 11.375563 0.000000 0.000004 -1.967011 0.107163 0.543053
 25 -0.000000 -4.440604 -0.000000 1.570144 -0.062988 0.004040
 26 10.510132 -0.000000 0.000001 0.000000 0.000000 -2.418399
 27 0.000000 -1.748400 4.999999 -0.000000 0.004007 1.602290
 28 5.500000 -0.000000 -0.000000 0.264401 0.000000 0.000000
 29 -0.000001 -1.940599 5.000000 -0.044472 0.004003 -0.000180
 30 6.551491 -0.000000 -0.000002 -0.721878 0.811811 -0.705900
 31 0.000002 -1.940599 5.000000 -0.027189 -0.053376 0.005295
 32 6.551491 -0.000000 -0.000002 -0.200145 0.398916 -0.196214
 33 -0.000000 -1.940599 4.999997 -0.066572 -0.152786 -0.110311
 34 0.269848 -0.912957 -1.445525 2.217505 0.629281 -1.077190
 35 6.384777 0.000001 -0.000002 0.115845 -0.494076 -1.282206
 36 10.242681 -0.000001 0.000001 0.000000 -0.000000 -2.280968
 37 11.375558 0.000002 -0.000001 -3.013727 0.415452 1.070092
 38 0.728681 0.023430 1.008293 -1.579583 -0.319038 0.212973
 39 2.136497 0.000001 -0.000000 -0.000000 0.000000 1.282817
 40 2.313139 -0.000000 -0.000000 0.000000 0.000000 3.141593
 41 3.115508 -0.886041 0.021431 0.420766 0.316066 0.167178
 42 2.011151 -0.000001 -0.000000 -0.000000 0.000000 2.082010
 43 2.141378 -0.000002 -0.000001 0.000000 0.000000 3.141593
 44 1.734171 -0.000000 0.000000 -0.000000 0.000000 1.041748
 45 0.136315 -3.738194 2.525889 1.493698 2.759406 -1.474501
 46 10.273804 -0.437102 1.198991 1.793563 0.004868 1.507198
 47 11.389366 -0.000818 0.158781 2.329841 0.439244 0.399138
 48 0.000001 -4.440598 -0.000001 1.570144 -3.078602 0.004040
 49 5.999999 0.000001 -0.000001 2.329841 0.000000 -0.000000
 50 0.000001 -4.440601 -0.000002 1.569944 -3.078603 0.004053
 51 10.510131 -0.000002 0.000003 -0.000000 -0.000000 -2.711280
 52 -0.000001 -1.748400 -5.000001 3.141593 0.004007 -1.539299
 53 5.499999 0.000000 0.000000 0.027380 0.000000 -0.000000
 54 -0.000000 0.000003 -5.000000 -0.044472 3.137589 -0.000177
 55 6.551490 -0.000000 -0.000001 -0.027380 -0.179480 -0.325126
 56 -1.266845 -1.937444 -4.950559 -0.066572 -2.988806 -0.110308
 57 6.551490 -0.000000 -0.000001 -0.027380 -0.179480 -0.325126
 58 0.699370 -1.944208 -5.006847 -0.027189 -3.088217 0.005298
 59 4.226145 -0.003202 -0.000001 0.308888 0.112344 0.163968
 60 0.000001 5.000000 -0.000001 -0.153564 0.000087 2.718702
 61 0.000006 -0.000006 -3.713579 0.119535 -2.936655 -0.885276
 62 0.000001 0.000000 5.000000 3.053195 1.558589 -0.074929
 63 -0.000005 0.000005 3.713580 -0.311487 -2.845558 -0.582080
 64 0.000001 0.000000 -5.000000 -0.088726 1.558589 3.066335
 65 7.363603 1.646646 0.495663 -3.141593 -1.570796 0.000000
 66 -0.000005 0.000005 3.619082 -0.441735 -2.434423 -1.159240
 67 16.573917 -0.000000 0.000001 -0.000000 -0.000000 -2.011748
 68 15.128181 0.000000 -0.000000 0.026832 0.026147 -0.175154
 69 5.758666 4.244731 0.000000 0.000000 -0.000000 2.033309
 70 3.177727 0.000000 0.000000 0.000000 0.000000 3.141593
 71 15.708951 0.000002 -0.000000 0.013957 0.013894 -0.093781
 72 0.275148 0.189215 -3.445208 3.130898 0.000409 -1.514604
 73 17.210192 -0.000001 0.000002 -0.000000 0.000000 -2.319003
 74 0.000000 -0.000001 -5.000000 -0.079433 1.546568 -1.570857
 75 0.000007 -0.000004 -3.619079 0.260448 -2.945758 -1.468642
 76 16.573919 -0.000000 0.000001 0.000000 0.000000 -1.562392
 77 15.128181 0.000000 0.000001 0.265624 -0.173430 0.666428
 78 5.758665 4.244731 0.000000 -0.000000 0.000000 1.483530
 79 4.003934 -0.000000 0.000000 0.000000 0.000000 0.000000
 80 15.708953 0.000000 0.000000 0.195074 -0.100553 0.460486
 81 0.273998 0.191090 3.439762 -3.130907 -0.000437 -1.508107
 82 17.210196 0.000000 0.000001 -0.000000 0.000000 -2.116793
 83 0.000000 -0.000001 5.000000 -0.079311 1.595025 -1.570737
time 2
  0 0.500000 13.522099 26.931471 -0.243067 0.535714 -2.432935
  1 13.773751 5.584523 -22.520975 -0.544290 0.221328 2.303921
  2 -2.276934 0.000003 -1.238185 -1.570795 -1.570451 0.000000
  3 1.797327 0.711861 0.000634 -0.198264 -0.180664 0.092787
  4 4.120092 -0.002849 0.000655 -0.202352 0.091241 0.463093
  5 4.119262 -0.003157 0.000612 -0.189976 0.142625 0.178170
  6 4.117923 -0.003150 0.000590 -0.181594 0.114909 -0.232311
  7 4.119391 -0.002860 -0.001928 0.585396 0.165110 0.377569
  8 4.443600 -0.000001 -0.000000 -0.102508 0.664181 0.056047
  9 9.024061 0.000001 0.000000 0.000000 0.000000 0.000000
 10 -0.284789 0.947891 1.424572 0.976383 -0.818365 1.834910
 11 6.384778 -0.000001 -0.000002 -1.445866 0.850333 -1.468768
 12 10.242682 0.000000 0.000000 0.000000 -0.000000 -1.620063
 13 11.375562 0.000000 0.000000 -2.243993 0.407609 1.024502
 14 0.728680 0.023431 -1.008292 2.155061 0.422963 0.849681
 15 2.136496 -0.000000 0.000001 0.000000 -0.000000 -0.078540
 16 2.313138 0.000000 -0.000001 0.000000 0.000000 0.000000
 17 3.115506 -0.886042 -0.021431 -0.620285 0.000392 0.514872
 18 2.011152 -0.000000 0.000001 -0.000000 -0.000000 1.322791
 19 2.141380 0.000002 0.000000 0.000000 0.000000 0.000000
 20 1.734172 -0.000001 0.000001 -0.000000 -0.000000 0.660693
 21 0.000004 -4.440594 0.000001 1.570544 -0.062990 -0.195737
 22 5.999999 -0.000000 -0.000000 -2.152116 -0.000000 0.000000
 23 0.000001 -4.440601 0.000000 1.569944 -0.062987 0.004053
 24 11.375562 0.000000 0.000003 -1.965789 0.108810 0.529823
 25 -0.000001 -4.440602 -0.000001 1.570144 -0.062988 0.004040
 26 10.510131 0.000000 -0.000000 -0.000000 0.000000 -2.380828
 27 -0.000001 -1.748400 4.999999 -0.000000 0.004007 1.602291
 28 5.500001 0.000000 -0.000000 0.269452 -0.000000 -0.000000
 29 -0.000001 -1.940599 5.000001 -0.044472 0.004003 -0.000180
 30 6.551491 -0.000000 -0.000001 -0.731788 0.771744 -0.768456
 31 0.000001 -1.940599 5.000001 -0.027189 -0.053376 0.005295
 32 6.551491 -0.000000 -0.000001 -0.203205 0.387251 -0.225444
 33 -0.000001 -1.940599 4.999995 -0.066572 -0.152786 -0.110311
 34 0.284795 -0.940817 -1.424572 2.276950 0.637956 -1.123453
 35 6.384779 0.000000 -0.000001 0.112148 -0.475168 -1.227522
 36 10.242682 -0.000001 0.000000 -0.000000 0.000000 -2.276630
 37 11.375561 0.000001 -0.000000 -3.014118 0.408528 1.069116
 38 0.728681 0.023431 1.008289 -1.579583 -0.319038 0.212973
 39 2.136498 -0.000000 -0.000000 0.000000 0.000000 1.282817
 40 2.313138 0.000000 0.000000 0.000000 0.000000 3.141593
 41 3.115508 -0.886040 0.021429 0.420766 0.316066 0.167178
 42 2.011151 -0.000000 -0.000000 -0.000000 0.000000 2.082010
 43 2.141381 0.000001 0.000001 0.000000 0.000000 3.141593
 44 1.734173 -0.000002 -0.000001 0.000000 0.000000 1.041748
 45 0.136315 -3.738192 2.525890 1.493698 2.759406 -1.474501
 46 10.273804 -0.437101 1.198989 1.793563 0.004868 1.507198
 47 11.389366 -0.000819 0.158781 2.331665 0.436152 0.400975
 48 0.000001 -4.440598 -0.000001 1.570144 -3.078602 0.004040
 49 6.000000 0.000002 0.000000 2.331665 0.000000 0.000000
 50 0.000002 -4.440602 -0.000001 1.569944 -3.078603 0.004053
 51 10.510132 -0.000001 0.000002 0.000000 0.000000 -2.709111
 52 0.000001 -1.748400 -5.000002 -3.141593 0.004007 -1.539299
 53 5.500000 -0.000001 -0.000000 0.024636 -0.000000 0.000000
 54 -0.000001 0.000003 -5.000001 -0.044472 3.137589 -0.000177
 55 6.551493 0.000000 -0.000000 -0.024636 -0.171381 -0.314317
 56 -1.266844 -1.937445 -4.950560 -0.066572 -2.988806 -0.110308
 57 6.551493 0.000000 -0.000000 -0.024636 -0.171381 -0.314317
 58 0.699370 -1.944209 -5.006847 -0.027189 -3.088217 0.005298
 59 4.226145 -0.003201 0.000000 0.317916 0.123318 0.213814
 60 0.000001 5.000000 0.000000 -0.153564 0.000087 2.718702
 61 0.000006 -0.000006 -3.713579 0.119535 -2.936655 -0.885276
 62 0.000001 0.000000 5.000000 3.053195 1.558589 -0.074929
 63 -0.000005 0.000005 3.713580 -0.311487 -2.845558 -0.582080
 64 0.000001 0.000000 -5.000000 -0.088726 1.558589 3.066335
 65 7.363603 1.646646 0.495663 -3.141593 -1.570796 0.000000
 66 -0.000005 0.000005 3.619082 -0.441735 -2.434423 -1.159240
 67 16.573917 -0.000000 0.000001 -0.000000 -0.000000 -2.011748
 68 15.128181 0.000000 -0.000000 0.026832 0.026147 -0.175154
 69 5.758666 4.244731 0.000000 0.000000 -0.000000 2.033309
 70 3.177727 0.000000 0.000000 0.000000 0.000000 3.141593
 71 15.708951 0.000002 -0.000000 0.013957 0.013894 -0.093781
 72 0.275148 0.189215 -3.445208 3.130898 0.000409 -1.514604
 73 17.210192 -0.000001 0.000002 -0.000000 0.000000 -2.319003
 74 0.000000 -0.000001 -5.000000 -0.079433 1.546568 -1.570857
 75 0.000007 -0.000004 -3.619079 0.260448 -2.945758 -1.468642
 76 16.573919 -0.000000 0.000001 0.000000 0.000000 -1.562392
 77 15.128181 0.000000 0.000001 0.265624 -0.173430 0.666428
 78 5.758665 4.244731 0.000000 -0.000000 0.000000 1.483530
 79 4.003934 -0.000000 0.000000 0.000000 0.000000 0.000000
 80 15.708953 0.000000 0.000000 0.195074 -0.100553 0.460486
 81 0.273998 0.191090 3.439762 -3.130907 -0.000437 -1.508107
 82 17.210196 0.000000 0.000001 -0.000000 0.000000 -2.116793
 83 0.000000 -0.000001 5.000000 -0.079311 1.595025 -1.570737
time 3
  0 0.500000 13.522099 26.931471 -0.243067 0.535714 -2.432935
  1 13.773751 5.584523 -22.520975 -0.544290 0.221328 2.303921
  2 -2.276934 0.000003 -1.238185 -1.570795 -1.570451 0.000000
  3 1.797361 0.711859 0.000612 -0.191090 -0.178870 0.101468
  4 4.120118 -0.002842 0.000626 -0.192837 0.093059 0.471665
  5 4.119286 -0.003156 0.000581 -0.180013 0.144335 0.186816
  6 4.117949 -0.003165 0.000557 -0.171871 0.116549 -0.223682
  7 4.119606 -0.002752 -0.001988 0.606534 0.172055 0.467792
  8 4.443600 -0.000000 -0.000000 -0.180969 0.617086 -0.161452
  9 9.024059 0.000001 0.000000 0.000000 0.000000 0.000000
 10 -0.296654 0.976643 1.402635 0.900629 -0.798437 1.819978
 11 6.384776 0.000000 0.000000 -1.433280 0.775187 -1.485560
 12 10.242683 0.000001 0.000002 0.000000 0.000000 -1.542569
 13 11.375562 0.000001 -0.000001 -2.245769 0.408466 0.992997
 14 0.728681 0.023430 -1.008292 2.155061 0.422963 0.849681
 15 2.136497 0.000000 0.000001 0.000000 -0.000000 -0.078540
 16 2.313141 -0.000000 -0.000001 0.000000 0.000000 0.000000
 17 3.115506 -0.886043 -0.021431 -0.620285 0.000392 0.514872
 18 2.011150 -0.000000 -0.000001 -0.000000 -0.000000 1.322792
 19 2.141380 -0.000001 -0.000000 0.000000 0.000000 0.000000
 20 1.734172 0.000002 0.000000 -0.000000 0.000000 0.660693
 21 0.000007 -4.440594 -0.000001 1.570544 -0.062990 -0.195737
 22 6.000000 0.000000 -0.000001 -2.149947 0.000000 0.000000
 23 -0.000000 -4.440602 0.000000 1.569944 -0.062987 0.004053
 24 11.375561 0.000001 0.000002 -1.964159 0.111554 0.515267
 25 -0.000000 -4.440604 0.000000 1.570144 -0.062988 0.004040
 26 10.510131 0.000000 -0.000000 -0.000000 -0.000000 -2.342081
 27 -0.000001 -1.748400 5.000000 0.000000 0.004007 1.602290
 28 5.500000 0.000000 0.000000 0.274927 0.000000 -0.000000
 29 -0.000000 -1.940598 5.000001 -0.044472 0.004003 -0.000180
 30 6.551491 0.000000 0.000000 -0.742222 0.734257 -0.825993
 31 0.000001 -1.940599 5.000001 -0.027189 -0.053376 0.005295
 32 6.551491 0.000000 0.000000 -0.206643 0.375975 -0.251834
 33 0.000001 -1.940599 4.999997 -0.066572 -0.152786 -0.110311
 34 0.296658 -0.969564 -1.402635 2.339501 0.649278 -1.164892
 35 6.384778 0.000000 -0.000000 0.109562 -0.453066 -1.174068
 36 10.242682 -0.000003 0.000002 0.000000 0.000000 -2.272292
 37 11.375562 -0.000002 -0.000002 -3.014500 0.401604 1.068146
 38 0.728682 0.023431 1.008290 -1.579583 -0.319038 0.212973
 39 2.136496 -0.000001 0.000000 0.000000 -0.000000 1.282817
 40 2.313142 0.000000 0.000000 0.000000 0.000000 3.141593
 41 3.115507 -0.886040 0.021430 0.420765 0.316066 0.167178
 42 2.011152 -0.000001 -0.000001 -0.000000 0.000000 2.082010
 43 2.141380 0.000000 0.000001 0.000000 0.000000 3.141593
 44 1.734172 -0.000001 0.000000 0.000000 0.000000 1.041748
 45 0.136316 -3.738194 2.525891 1.493698 2.759406 -1.474501
 46 10.273805 -0.437101 1.198991 1.793563 0.004868 1.507198
 47 11.389369 -0.000817 0.158782 2.333474 0.433055 0.402802
 48 -0.000000 -4.440598 -0.000002 1.570144 -3.078602 0.004040
 49 6.000002 0.000002 0.000000 2.333474 -0.000000 0.000000
 50 0.000001 -4.440601 0.000000 1.569944 -3.078603 0.004053
 51 10.510131 -0.000000 0.000000 0.000000 0.000000 -2.706942
 52 -0.000001 -1.748401 -5.000003 -3.141593 0.004007 -1.539299
 53 5.500000 -0.000000 0.000001 0.021058 -0.000000 -0.000000
 54 0.000000 -0.000000 -5.000000 -0.044472 3.137589 -0.000177
 55 6.551490 0.000000 0.000000 -0.021058 -0.162747 -0.305202
 56 -1.266843 -1.937444 -4.950560 -0.066572 -2.988806 -0.110308
 57 6.551491 -0.000000 0.000001 -0.021058 -0.162747 -0.305202
 58 0.699371 -1.944208 -5.006845 -0.027189 -3.088217 0.005298
 59 4.226146 -0.003201 -0.000000 0.327070 0.133505 0.261784
 60 0.000001 5.000000 -0.000000 -0.153564 0.000087 2.718702
 61 0.000006 -0.000006 -3.713579 0.119535 -2.936655 -0.885276
 62 0.000001 0.000000 5.000000 3.053195 1.558589 -0.074929
 63 -0.000005 0.000005 3.713580 -0.311487 -2.845558 -0.582080
 64 0.000001 0.000000 -5.000000 -0.088726 1.558589 3.066335
 65 7.363603 1.646646 0.495663 -3.141593 -1.570796 0.000000
 66 -0.000005 0.000005 3.619082 -0.441735 -2.434423 -1.159240
 67 16.573917 -0.000000 0.000001 -0.000000 -0.000000 -2.011748
 68 15.128181 0.000000 -0.000000 0.026832 0.026147 -0.175154
 69 5.758666 4.244731 0.000000 0.000000 -0.000000 2.033309
 70 3.177727 0.000000 0.000000 0.000000 0.000000 3.141593
 71 15.708951 0.000002 -0.000000 0.013957 0.013894 -0.093781
 72 0.275148 0.189215 -3.445208 3.130898 0.000409 -1.514604
 73 17.210192 -0.000001 0.000002 -0.000000 0.000000 -2.319003
 74 0.000000 -0.000001 -5.000000 -0.079433 1.546568 -1.570857
 75 0.000007 -0.000004 -3.619079 0.260448 -2.945758 -1.468642
 76 16.573919 -0.000000 0.000001 0.000000 0.000000 -1.562392
 77 15.128181 0.000000 0.000001 0.265624 -0.173430 0.666428
 78 5.758665 4.244731 0.000000 -0.000000 0.000000 1.483530
 79 4.003934 -0.000000 0.000000 0.000000 0.000000 0.000000
 80 15.708953 0.000000 0.000000 0.195074 -0.100553 0.460486
 81 0.273998 0.191090 3.439762 -3.130907 -0.000437 -1.508107
 82 17.210196 0.000000 0.000001 -0.000000 0.000000 -2.116793
 83 0.000000 -0.000001 5.000000 -0.079311 1.595025 -1.570737
time 4
  0 0.500000 13.522099 26.931471 -0.243067 0.535714 -2.432935
  1 13.773751 5.584523 -22.520975 -0.544290 0.221328 2.303921
  2 -2.276934 0.000003 -1.238185 -1.570795 -1.570451 0.000000
  3 1.797361 0.711859 0.000612 -0.191090 -0.178870 0.101468
  4 4.120118 -0.002842 0.000626 -0.192837 0.093059 0.471665
  5 4.119286 -0.003156 0.000581 -0.180013 0.144335 0.186816
  6 4.117949 -0.003165 0.000557 -0.171871 0.116549 -0.223682
  7 4.119606 -0.002752 -0.001988 0.606534 0.172055 0.467792
  8 4.443600 -0.000000 -0.000000 -0.180969 0.617086 -0.161452
  9 9.024059 0.000001 0.000000 0.000000 0.000000 0.000000
 10 -0.296654 0.976643 1.402635 0.900629 -0.798437 1.819978
 11 6.384776 0.000000 0.000000 -1.432260 0.786052 -1.477803
 12 10.242682 -0.000000 0.000000 0.000000 -0.000000 -1.533887
 13 11.375562 -0.000000 0.000001 -2.248105 0.406955 0.976851
 14 0.728681 0.023431 -1.008291 2.155061 0.422963 0.849681
 15 2.136497 -0.000000 -0.000001 0.000000 -0.000000 -0.078540
 16 2.313137 -0.000001 0.000000 0.000000 0.000000 0.000000
 17 3.115507 -0.886040 -0.021431 -0.620285 0.000392 0.514872
 18 2.011149 -0.000001 0.000000 0.000000 -0.000000 1.322792
 19 2.141380 -0.000001 -0.000001 0.000000 0.000000 0.000000
 20 1.734171 0.000000 -0.000001 -0.000000 -0.000000 0.660693
 21 0.000005 -4.440594 -0.000000 1.570544 -0.062990 -0.195737
 22 6.000000 -0.000001 0.000000 -2.149736 -0.000000 0.000000
 23 0.000002 -4.440601 -0.000000 1.569944 -0.062987 0.004053
 24 11.375562 -0.000000 0.000004 -1.963798 0.111868 0.507888
 25 0.000001 -4.440604 0.000000 1.570144 -0.062988 0.004040
 26 10.510131 -0.000000 -0.000001 0.000000 0.000000 -2.337739
 27 -0.000000 -1.748401 4.999999 0.000000 0.004007 1.602291
 28 5.500000 -0.000000 -0.000000 0.275117 0.000000 -0.000000
 29 -0.000001 -1.940598 5.000000 -0.044472 0.004003 -0.000180
 30 6.551491 0.000000 0.000000 -0.738507 0.736173 -0.810761
 31 0.000001 -1.940599 5.000002 -0.027189 -0.053376 0.005295
 32 6.551491 0.000000 0.000000 -0.207233 0.376146 -0.246780
 33 0.000000 -1.940600 4.999997 -0.066572 -0.152786 -0.110311
 34 0.296658 -0.969564 -1.402635 2.341881 0.689404 -1.171079
 35 6.384775 -0.000000 -0.000001 0.079641 -0.445305 -1.144689
 36 10.242682 -0.000003 0.000001 -0.000000 -0.000000 -2.267953
 37 11.375561 -0.000000 -0.000002 -3.014874 0.394679 1.067181
 38 0.728680 0.023430 1.008293 -1.579583 -0.319038 0.212973
 39 2.136498 0.000001 0.000001 0.000000 0.000000 1.282817
 40 2.313139 -0.000001 -0.000000 0.000000 0.000000 3.141593
 41 3.115506 -0.886040 0.021433 0.420766 0.316066 0.167178
 42 2.011152 -0.000001 -0.000000 -0.000000 0.000000 2.082010
 43 2.141379 -0.000001 -0.000000 0.000000 0.000000 3.141593
 44 1.734175 -0.000002 -0.000000 0.000000 0.000000 1.041748
 45 0.136315 -3.738193 2.525890 1.493698 2.759406 -1.474501
 46 10.273806 -0.437101 1.198992 1.793563 0.004868 1.507198
 47 11.389365 -0.000819 0.158779 2.335271 0.429951 0.404620
 48 0.000000 -4.440598 -0.000001 1.570144 -3.078602 0.004040
 49 5.999999 0.000002 -0.000001 2.335271 -0.000000 0.000000
 50 0.000001 -4.440602 -0.000000 1.569944 -3.078603 0.004053
 51 10.510131 -0.000000 0.000000 -0.000000 0.000000 -2.704773
 52 -0.000000 -1.748399 -5.000001 -3.141593 0.004007 -1.539299
 53 5.499999 -0.000003 0.000001 0.027673 0.000000 -0.000000
 54 -0.000001 0.000002 -5.000000 -0.044472 3.137589 -0.000177
 55 6.551491 0.000001 -0.000002 -0.027673 -0.155426 -0.300662
 56 -1.266844 -1.937445 -4.950560 -0.066572 -2.988806 -0.110308
 57 6.551491 0.000001 -0.000002 -0.027673 -0.155426 -0.300662
 58 0.699371 -1.944208 -5.006847 -0.027189 -3.088217 0.005298
 59 4.226146 -0.003201 -0.000000 0.327070 0.133505 0.261784
 60 0.000001 5.000000 -0.000000 -0.153564 0.000087 2.718702
 61 0.000006 -0.000006 -3.713579 0.119535 -2.936655 -0.885276
 62 0.000001 0.000000 5.000000 3.053195 1.558589 -0.074929
 63 -0.000005 0.000005 3.713580 -0.311487 -2.845558 -0.582080
 64 0.000001 0.000000 -5.000000 -0.088726 1.558589 3.066335
 65 7.363603 1.646646 0.495663 -3.141593 -1.570796 0.000000
 66 -0.000005 0.000005 3.619082 -0.441735 -2.434423 -1.159240
 67 16.573917 -0.000000 0.000001 -0.000000 -0.000000 -2.011748
 68 15.128181 0.000000 -0.000000 0.026832 0.026147 -0.175154
 69 5.758666 4.244731 0.000000 0.000000 -0.000000 2.033309
 70 3.177727 0.000000 0.000000 0.000000 0.000000 3.141593
 71 15.708951 0.000002 -0.000000 0.013957 0.013894 -0.093781
 72 0.275148 0.189215 -3.445208 3.130898 0.000409 -1.514604
 73 17.210192 -0.000001 0.000002 -0.000000 0.000000 -2.319003
 74 0.000000 -0.000001 -5.000000 -0.079433 1.546568 -1.570857
 75 0.000007 -0.000004 -3.619079 0.260448 -2.945758 -1.468642
 76 16.573919 -0.000000 0.000001 0.000000 0.000000 -1.562392
 77 15.128181 0.000000 0.000001 0.265624 -0.173430 0.666428
 78 5.758665 4.244731 0.000000 -0.000000 0.000000 1.483530
 79 4.003934 -0.000000 0.000000 0.000000 0.000000 0.000000
 80 15.708953 0.000000 0.000000 0.195074 -0.100553 0.460486
 81 0.273998 0.191090 3.439762 -3.130907 -0.000437 -1.508107
 82 17.210196 0.000000 0.000001 -0.000000 0.000000 -2.116793
 83 0.000000 -0.000001 5.000000 -0.079311 1.595025 -1.570737
time 5
  0 0.500000 13.522099 26.931471 -0.243067 0.535714 -2.432935
  1 13.773751 5.584523 -22.520975 -0.544290 0.221328 2.303921
  2 -2.276934 0.000003 -1.238185 -1.570795 -1.570451 0.000000
  3 1.797361 0.711859 0.000612 -0.191090 -0.178870 0.101468
  4 4.120118 -0.002842 0.000626 -0.192837 0.093059 0.471665
  5 4.119286 -0.003156 0.000581 -0.180013 0.144335 0.186816
  6 4.117949 -0.003165 0.000557 -0.171871 0.116549 -0.223682
  7 4.119606 -0.002752 -0.001988 0.606534 0.172055 0.467792
  8 4.443600 -0.000000 -0.000000 -0.180969 0.617086 -0.161452
  9 9.024059 0.000001 0.000000 0.000000 0.000000 0.000000
 10 -0.296654 0.976643 1.402635 0.900629 -0.798437 1.819978
 11 6.384776 0.000000 0.000000 -1.431519 0.796408 -1.469708
 12 10.242683 -0.000000 0.000002 -0.000000 0.000000 -1.524452
 13 11.375563 0.000000 0.000000 -2.250120 0.405967 0.960541
 14 0.728680 0.023430 -1.008291 2.155061 0.422963 0.849681
 15 2.136497 -0.000000 -0.000000 0.000000 -0.000000 -0.078540
 16 2.313137 -0.000000 -0.000000 0.000000 0.000000 0.000000
 17 3.115505 -0.886042 -0.021430 -0.620285 0.000392 0.514872
 18 2.011152 0.000000 -0.000001 -0.000000 -0.000000 1.322791
 19 2.141380 0.000000 0.000001 0.000000 0.000000 0.000000
 20 1.734172 -0.000000 0.000001 0.000000 -0.000000 0.660693
 21 0.000007 -4.440594 0.000000 1.570544 -0.062990 -0.195737
 22 6.000000 0.000001 0.000001 -2.149302 0.000000 -0.000000
 23 0.000002 -4.440601 0.000000 1.569944 -0.062987 0.004053
 24 11.375562 -0.000000 0.000003 -1.963325 0.112528 0.500456
 25 -0.000001 -4.440604 0.000001 1.570144 -0.062988 0.004040
 26 10.510130 -0.000000 0.000001 -0.000000 0.000000 -2.333022
 27 -0.000000 -1.748400 5.000000 -0.000000 0.004007 1.602291
 28 5.500000 -0.000000 0.000001 0.275847 -0.000000 0.000000
 29 -0.000001 -1.940598 5.000001 -0.044472 0.004003 -0.000180
 30 6.551491 0.000000 0.000000 -0.735762 0.737772 -0.795277
 31 0.000001 -1.940599 5.000002 -0.027189 -0.053376 0.005295
 32 6.551491 0.000000 0.000000 -0.208257 0.376227 -0.241527
 33 -0.000001 -1.940599 4.999997 -0.066572 -0.152786 -0.110311
 34 0.296658 -0.969564 -1.402635 2.343306 0.729670 -1.177207
 35 6.384774 -0.000001 0.000000 0.050379 -0.436206 -1.115693
 36 10.242681 0.000002 0.000000 0.000000 -0.000000 -2.263615
 37 11.375563 0.000001 -0.000000 -3.015240 0.387754 1.066222
 38 0.728680 0.023431 1.008292 -1.579583 -0.319038 0.212973
 39 2.136497 0.000001 -0.000000 -0.000000 0.000000 1.282817
 40 2.313138 -0.000000 -0.000000 0.000000 0.000000 3.141593
 41 3.115505 -0.886041 0.021432 0.420766 0.316066 0.167178
 42 2.011153 -0.000002 -0.000000 -0.000000 0.000000 2.082010
 43 2.141380 -0.000001 -0.000000 0.000000 0.000000 3.141593
 44 1.734173 -0.000001 -0.000000 -0.000000 0.000000 1.041748
 45 0.136316 -3.738192 2.525890 1.493698 2.759406 -1.474501
 46 10.273805 -0.437102 1.198991 1.793563 0.004868 1.507198
 47 11.389369 -0.000817 0.158783 2.337054 0.426842 0.406427
 48 0.000000 -4.440598 0.000002 1.570144 -3.078602 0.004040
 49 6.000001 0.000000 -0.000000 2.337054 -0.000000 0.000000
 50 0.000001 -4.440601 0.000000 1.569944 -3.078603 0.004053
 51 10.510132 0.000000 0.000001 -0.000000 0.000000 -2.702604
 52 0.000000 -1.748399 -5.000000 -3.141593 0.004007 -1.539299
 53 5.500000 0.000001 0.000001 0.034046 0.000000 0.000000
 54 0.000001 -0.000002 -5.000000 -0.044472 3.137589 -0.000177
 55 6.551488 -0.000000 -0.000000 -0.034046 -0.147999 -0.296474
 56 -1.266843 -1.937445 -4.950559 -0.066572 -2.988806 -0.110308
 57 6.551491 0.000001 -0.000002 -0.034046 -0.147999 -0.296474
 58 0.699370 -1.944209 -5.006846 -0.027189 -3.088217 0.005298
 59 4.226146 -0.003201 -0.000000 0.327070 0.133505 0.261784
 60 0.000001 5.000000 -0.000000 -0.153564 0.000087 2.718702
 61 0.000006 -0.000006 -3.713579 0.119535 -2.936655 -0.885276
 62 0.000001 0.000000 5.000000 3.053195 1.558589 -0.074929
 63 -0.000005 0.000005 3.713580 -0.311487 -2.845558 -0.582080
 64 0.000001 0.000000 -5.000000 -0.088726 1.558589 3.066335
 65 7.363603 1.646646 0.495663 -3.141593 -1.570796 0.000000
 66 -0.000005 0.000005 3.619082 -0.441735 -2.434423 -1.159240
 67 16.573917 -0.000000 0.000001 -0.000000 -0.000000 -2.011748
 68 15.128181 0.000000 -0.000000 0.026832 0.026147 -0.175154
 69 5.758666 4.244731 0.000000 0.000000 -0.000000 2.033309
 70 3.177727 0.000000 0.000000 0.000000 0.000000 3.141593
 71 15.708951 0.000002 -0.000000 0.013957 0.013894 -0.093781
 72 0.275148 0.189215 -3.445208 3.130898 0.000409 -1.514604
 73 17.210192 -0.000001 0.000002 -0.000000 0.000000 -2.319003
 74 0.000000 -0.000001 -5.000000 -0.079433 1.546568 -1.570857
 75 0.000007 -0.000004 -3.619079 0.260448 -2.945758 -1.468642
 76 16.573919 -0.000000 0.000001 0.000000 0.000000 -1.562392
 77 15.128181 0.000000 0.000001 0.265624 -0.173430 0.666428
 78 5.758665 4.244731 0.000000 -0.000000 0.000000 1.483530
 79 4.003934 -0.000000 0.000000 0.000000 0.000000 0.000000
 80 15.708953 0.000000 0.000000 0.195074 -0.100553 0.460486
 81 0.273998 0.191090 3.439762 -3.130907 -0.000437 -1.508107
 82 17.210196 0.000000 0.000001 -0.000000 0.000000 -2.116793
 83 0.000000 -0.000001 5.000000 -0.079311 1.595025 -1.570737
end
