version 1
nodes
  0 "Bip01"  -1
  1 "Bip01 Footsteps"   0
  2 "Bip01 Pelvis"   0
  3 "Bip01 Spine"   2
  4 "Bip01 Spine1"   3
  5 "Bip01 Spine2"   4
  6 "Bip01 Spine3"   5
  7 "Bip01 Neck"   6
  8 "Bip01 Head"   7
  9 "Dummy21"   8
 10 "Bip01 L Clavicle"   7
 11 "Bip01 L UpperArm"  10
 12 "Bip01 L Forearm"  11
 13 "Bip01 L Hand"  12
 14 "Bip01 L Finger0"  13
 15 "Bip01 L Finger01"  14
 16 "Dummy06"  15
 17 "Bip01 L Finger1"  13
 18 "Bip01 L Finger11"  17
 19 "Dummy03"  18
 20 "-- L knuckle"  17
 21 "-- L knuckle_end"  20
 22 "-- L Forearm twist"  12
 23 "-- L Forearm twist_end"  22
 24 "-- L wrist"  12
 25 "-- L wrist_end"  24
 26 "-- L Elbow"  11
 27 "--L Elbow_end"  26
 28 "-- L bicep twist"  11
 29 "-- L bicep twist_end"  28
 30 "-- L shoulder outside"  10
 31 "-- L shoulder outside_end"  30
 32 "-- L Shoulder inside"  10
 33 "-- L Shoulder inside_end"  32
 34 "Bip01 R Clavicle"   7
 35 "Bip01 R UpperArm"  34
 36 "Bip01 R Forearm"  35
 37 "Bip01 R Hand"  36
 38 "Bip01 R Finger0"  37
 39 "Bip01 R Finger01"  38
 40 "Dummy01"  39
 41 "Bip01 R Finger1"  37
 42 "Bip01 R Finger11"  41
 43 "Dummy02"  42
 44 "-- R knuckle"  41
 45 "Point06"  44
 46 "Line06"  37
 47 "-- R wrist"  36
 48 "-- R wrist_end"  47
 49 "-- R forearm twist"  36
 50 "-- R forearm twist_end"  49
 51 "-- R Elbow"  35
 52 "--R Elbow_end"  51
 53 "-- R bicep twist"  35
 54 "-- R bicep twist_end"  53
 55 "-- R Shoulder inside"  34
 56 "-- R Shoulder inside_end"  55
 57 "-- R shoulder outside"  34
 58 "-- R shoulder outside_end"  57
 59 "-- Neck smooth"   6
 60 "-- neck smooth end"  59
 61 "-- R Butt"   2
 62 "--R Butt_end"  61
 63 "-- L butt"   2
 64 "--L butt_end"  63
 65 "GIGN01"   2
 66 "Bip01 L Thigh"   2
 67 "Bip01 L Calf"  66
 68 "Bip01 L Foot"  67
 69 "Bip01 L Toe0"  68
 70 "Dummy16"  69
 71 "-- L ankle"  67
 72 "-- L ankleend"  71
 73 "-- L Knee"  66
 74 "--L Knee_end"  73
 75 "Bip01 R Thigh"   2
 76 "Bip01 R Calf"  75
 77 "Bip01 R Foot"  76
 78 "Bip01 R Toe0"  77
 79 "Dummy11"  78
 80 "-- R Ankle"  76
 81 "-- R ankleend"  80
 82 "-- R Knee"  75
 83 "--R Knee_end"  82
end
skeleton
time 2
  0 -0.650000 0.000000 33.899605 -0.025849 0.174554 -1.569172
  1 5.816421 0.852483 -32.971565 -0.174512 -0.026131 1.569196
  2 -2.276935 0.000003 -1.238189 -1.570795 -1.570451 0.000000
  3 1.797429 0.711867 0.000608 -0.187117 0.001784 0.089616
  4 4.119973 -0.002923 0.000591 -0.181400 0.051795 0.428009
  5 4.118521 -0.003265 -0.000309 0.094503 -0.022062 -0.027302
  6 4.117761 -0.003109 0.000618 -0.190123 -0.077716 -0.249710
  7 4.119261 -0.003074 -0.001624 0.491665 0.234746 0.335215
  8 4.443596 0.000001 -0.000001 -0.139006 -0.324566 0.355035
  9 9.024061 -0.000002 -0.000000 0.000000 0.000000 0.000000
 10 -0.403025 0.799106 1.485585 0.863933 -1.239686 2.009202
 11 6.384777 -0.000000 0.000001 -1.224154 0.937474 -1.670955
 12 10.242684 -0.000000 -0.000000 0.000000 -0.000000 -1.081766
 13 11.375560 0.000000 -0.000000 2.863685 0.529483 0.098397
 14 0.728681 0.023430 -1.008293 1.100072 0.611404 0.551668
 15 2.136497 -0.000000 0.000000 0.000000 0.000000 -0.078540
 16 2.313138 -0.000000 0.000000 0.000000 0.000000 0.000000
 17 3.115507 -0.886041 -0.021431 -0.454479 0.000392 0.514872
 18 2.011151 0.000001 0.000002 -0.000000 0.000000 1.322792
 19 2.141381 0.000000 -0.000000 0.000000 0.000000 0.000000
 20 1.734172 0.000001 -0.000002 0.000000 -0.000000 0.660693
 21 0.000004 -4.440594 -0.000000 1.570544 -0.062990 -0.195737
 22 6.000000 0.000003 0.000000 -3.059204 -0.000000 -0.000000
 23 0.000001 -4.440599 -0.000000 1.569944 -0.062987 0.004053
 24 11.375562 0.000004 0.000004 -2.458677 0.246075 0.220446
 25 -0.000001 -4.440604 -0.000001 1.570144 -0.062988 0.004040
 26 10.510133 0.000001 -0.000001 0.000000 0.000000 -2.111680
 27 0.000000 -1.748402 5.000000 -0.000000 0.004007 1.602291
 28 5.500002 0.000001 -0.000001 0.089503 -0.000000 -0.000000
 29 -0.000003 -1.940598 5.000001 -0.044472 0.004003 -0.000180
 30 6.551491 0.000000 0.000003 -0.476990 0.890241 -0.960947
 31 0.000001 -1.940598 5.000000 -0.027189 -0.053376 0.005295
 32 6.551491 0.000000 0.000003 -0.053629 0.408071 -0.292072
 33 0.000002 -1.940599 4.999996 -0.066572 -0.152786 -0.110311
 34 0.403024 -0.792027 -1.485586 2.597817 1.224661 -0.784516
 35 6.384777 0.000000 -0.000002 -0.356176 -0.194367 -0.490680
 36 10.242682 0.000001 -0.000001 -0.000000 -0.000000 -2.348781
 37 11.375562 0.000001 -0.000001 2.955782 0.063919 0.811407
 38 0.728682 0.023431 1.008292 -1.579583 -0.319038 0.212973
 39 2.136496 -0.000002 0.000000 0.000000 -0.000000 1.282817
 40 2.313138 -0.000000 -0.000000 0.000000 0.000000 3.141593
 41 3.115508 -0.886041 0.021431 0.420766 0.316066 0.167178
 42 2.011152 -0.000001 -0.000001 0.000000 -0.000000 2.082010
 43 2.141379 -0.000001 -0.000001 0.000000 0.000000 3.141593
 44 1.734174 -0.000002 -0.000001 0.000000 0.000000 1.041748
 45 0.136315 -3.738194 2.525891 1.493698 2.759406 -1.474501
 46 -2.193617 0.798256 4.032640 1.563844 0.186374 -0.074848
 47 11.389366 -0.000820 0.158780 2.254493 0.182928 0.392263
 48 -0.000000 -4.440599 -0.000001 1.570144 -3.078602 0.004040
 49 5.999999 -0.000001 -0.000002 2.254493 -0.000000 -0.000000
 50 0.000003 -4.440600 -0.000002 1.569944 -3.078603 0.004053
 51 10.510131 -0.000002 0.000002 -0.000000 0.000000 -2.745187
 52 0.000000 -1.748401 -5.000002 -3.141593 0.004007 -1.539299
 53 5.500000 -0.000001 0.000001 0.120294 0.000000 -0.000000
 54 -0.000000 -0.000001 -5.000000 -0.044472 3.137589 -0.000177
 55 6.551490 -0.000000 0.000000 -0.120294 -0.049497 -0.217313
 56 -1.266843 -1.937443 -4.950559 -0.066572 -2.988806 -0.110308
 57 6.551491 -0.000001 0.000000 -0.120294 -0.049497 -0.217313
 58 0.699371 -1.944207 -5.006847 -0.027189 -3.088217 0.005298
 59 4.226145 -0.003201 -0.000000 0.263999 0.155471 0.186238
 60 0.000002 5.000000 -0.000000 -0.153564 0.000087 2.718702
 61 0.000004 -0.000004 -3.713580 0.018865 -3.096651 -0.324845
 62 -0.000002 0.000000 5.000000 3.053198 1.558589 -0.074926
 63 -0.000007 0.000006 3.713580 -0.159276 -2.977491 -0.403653
 64 0.000001 -0.000000 -5.000000 -0.088726 1.558589 3.066335
 65 7.363602 1.646647 0.495663 3.141593 -1.570796 0.000000
 66 -0.000005 0.000007 3.619081 -0.217558 -2.796588 -0.810634
 67 16.573919 0.000000 0.000000 0.000000 0.000000 -2.033247
 68 15.128181 0.000002 -0.000000 0.271612 0.009043 -0.097069
 69 5.758665 4.244730 0.000000 0.000000 -0.000000 1.842220
 70 3.177726 -0.000002 -0.000001 0.000000 0.000000 3.141593
 71 15.708954 0.000001 -0.000001 0.136460 0.001254 -0.052592
 72 0.275148 0.189214 -3.445207 3.130898 0.000409 -1.514604
 73 17.210194 -0.000000 0.000000 0.000000 -0.000000 -2.328678
 74 0.000000 0.000001 -5.000000 -0.079433 1.546568 -1.570857
 75 0.000002 -0.000003 -3.619081 0.034416 -3.071533 -0.493407
 76 16.573921 -0.000000 -0.000000 0.000000 0.000000 -1.045581
 77 15.128182 0.000001 -0.000000 0.002618 -0.051986 0.588317
 78 5.758666 4.244731 0.000000 -0.000000 0.000000 1.815142
 79 4.003934 0.000000 -0.000000 0.000000 0.000000 0.000000
 80 15.708955 -0.000000 -0.000000 0.004296 -0.037430 0.405337
 81 0.273998 0.191090 3.439762 -3.130907 -0.000437 -1.508106
 82 17.210194 0.000001 -0.000000 -0.000000 -0.000000 -1.884228
 83 0.000000 -0.000001 5.000000 -0.079314 1.595025 -1.570739
time 3
  0 -0.650000 0.000000 33.899605 -0.025849 0.174554 -1.569172
  1 5.816421 0.852483 -32.971565 -0.174512 -0.026131 1.569196
  2 -2.276935 0.000003 -1.238189 -1.570795 -1.570451 0.000000
  3 1.797429 0.711867 0.000608 -0.187116 0.001784 0.089616
  4 4.119973 -0.002923 0.000591 -0.181400 0.051795 0.428009
  5 4.118323 -0.003266 0.000112 -0.034339 0.118436 -0.089320
  6 4.117761 -0.003109 0.000618 -0.190123 -0.077716 -0.249710
  7 4.119056 -0.002597 -0.002358 0.735743 0.116496 0.278416
  8 4.443600 -0.000001 -0.000000 -0.198511 -0.368666 0.517309
  9 9.024064 -0.000000 -0.000000 0.000000 0.000000 0.000000
 10 -0.201398 1.158547 1.275817 1.295175 -1.017404 1.593436
 11 6.384777 0.000000 0.000004 1.547579 2.011767 1.246612
 12 10.242682 -0.000001 0.000000 0.000000 0.000000 -1.057414
 13 11.375562 -0.000000 0.000002 2.925708 0.534813 -0.034585
 14 0.728680 0.023432 -1.008292 1.100073 0.611404 0.551668
 15 2.136496 0.000000 0.000000 0.000000 -0.000000 -0.078540
 16 2.313139 0.000000 0.000000 0.000000 0.000000 0.000000
 17 3.115507 -0.886043 -0.021432 -0.454479 0.000392 0.514872
 18 2.011150 0.000002 -0.000001 -0.000000 0.000000 1.322792
 19 2.141380 -0.000001 0.000001 0.000000 0.000000 0.000000
 20 1.734172 0.000001 -0.000002 -0.000000 0.000000 0.660693
 21 0.000006 -4.440594 0.000001 1.570544 -0.062990 -0.195737
 22 6.000000 0.000002 0.000001 -2.992113 -0.000000 -0.000000
 23 0.000002 -4.440601 -0.000000 1.569944 -0.062987 0.004053
 24 11.375561 0.000000 0.000003 -2.418663 0.285707 0.142226
 25 -0.000001 -4.440603 0.000000 1.570144 -0.062988 0.004040
 26 10.510132 -0.000000 0.000000 0.000000 -0.000000 -2.099503
 27 0.000001 -1.748401 4.999999 -0.000000 0.004007 1.602290
 28 5.500001 -0.000000 0.000000 0.058344 0.000000 -0.000000
 29 0.000002 -1.940598 5.000000 -0.044472 0.004003 -0.000180
 30 6.551492 -0.000001 -0.000001 -0.542078 1.076127 -0.957301
 31 -0.000002 -1.940599 5.000002 -0.027189 -0.053376 0.005295
 32 6.551492 -0.000001 -0.000001 -0.028104 0.463633 -0.231620
 33 -0.000000 -1.940599 4.999997 -0.066572 -0.152786 -0.110311
 34 0.201404 -1.151473 -1.275818 1.909831 1.121447 -1.457397
 35 6.384777 0.000000 0.000003 -0.508774 -0.064451 -0.561784
 36 10.242682 0.000001 0.000002 -0.000000 0.000000 -2.349874
 37 11.375561 -0.000001 -0.000003 2.965088 0.044352 0.862327
 38 0.728679 0.023431 1.008291 -1.579583 -0.319038 0.212973
 39 2.136497 -0.000000 -0.000000 -0.000000 -0.000000 1.282817
 40 2.313139 -0.000001 -0.000001 0.000000 0.000000 3.141593
 41 3.115509 -0.886041 0.021427 0.420766 0.316066 0.167178
 42 2.011145 0.000002 0.000002 0.000000 -0.000000 2.082010
 43 2.141379 -0.000000 -0.000000 0.000000 0.000000 3.141593
 44 1.734172 -0.000002 -0.000000 0.000000 0.000000 1.041748
 45 0.136314 -3.738193 2.525890 1.493698 2.759406 -1.474501
 46 -2.193620 0.798257 4.032640 1.563844 0.186374 -0.074848
 47 11.389366 -0.000819 0.158779 2.260789 0.182291 0.418283
 48 -0.000000 -4.440600 0.000001 1.570144 -3.078602 0.004040
 49 6.000000 -0.000000 -0.000002 2.260789 0.000000 -0.000000
 50 0.000003 -4.440601 -0.000002 1.569944 -3.078603 0.004053
 51 10.510131 0.000001 0.000003 -0.000000 0.000000 -2.745733
 52 -0.000000 -1.748399 -5.000003 3.141593 0.004007 -1.539299
 53 5.500000 0.000002 0.000002 0.169209 -0.000000 -0.000000
 54 0.000000 -0.000001 -5.000001 -0.044472 3.137589 -0.000177
 55 6.551490 0.000001 0.000001 -0.169209 0.017489 -0.229094
 56 -1.266843 -1.937444 -4.950560 -0.066572 -2.988806 -0.110308
 57 6.551491 0.000000 0.000001 -0.169209 0.017489 -0.229094
 58 0.699371 -1.944208 -5.006849 -0.027189 -3.088217 0.005298
 59 4.226146 -0.003201 0.000000 0.404273 0.096840 0.159310
 60 -0.000001 5.000002 -0.000000 -0.153564 0.000087 2.718702
 61 0.000004 -0.000004 -3.713580 0.018865 -3.096651 -0.324845
 62 -0.000002 0.000000 5.000000 3.053198 1.558589 -0.074926
 63 -0.000007 0.000006 3.713580 -0.159276 -2.977491 -0.403653
 64 0.000001 -0.000000 -5.000000 -0.088726 1.558589 3.066335
 65 7.363602 1.646647 0.495663 3.141593 -1.570796 0.000000
 66 -0.000005 0.000007 3.619081 -0.217558 -2.796588 -0.810634
 67 16.573919 0.000000 0.000000 0.000000 0.000000 -2.033247
 68 15.128181 0.000002 -0.000000 0.271612 0.009043 -0.097069
 69 5.758665 4.244730 0.000000 0.000000 -0.000000 1.842220
 70 3.177726 -0.000002 -0.000001 0.000000 0.000000 3.141593
 71 15.708954 0.000001 -0.000001 0.136460 0.001254 -0.052592
 72 0.275148 0.189214 -3.445207 3.130898 0.000409 -1.514604
 73 17.210194 -0.000000 0.000000 0.000000 -0.000000 -2.328678
 74 0.000000 0.000001 -5.000000 -0.079433 1.546568 -1.570857
 75 0.000002 -0.000003 -3.619081 0.034416 -3.071533 -0.493407
 76 16.573921 -0.000000 -0.000000 0.000000 0.000000 -1.045581
 77 15.128182 0.000001 -0.000000 0.002618 -0.051986 0.588317
 78 5.758666 4.244731 0.000000 -0.000000 0.000000 1.815142
 79 4.003934 0.000000 -0.000000 0.000000 0.000000 0.000000
 80 15.708955 -0.000000 -0.000000 0.004296 -0.037430 0.405337
 81 0.273998 0.191090 3.439762 -3.130907 -0.000437 -1.508106
 82 17.210194 0.000001 -0.000000 -0.000000 -0.000000 -1.884228
 83 0.000000 -0.000001 5.000000 -0.079314 1.595025 -1.570739
end
