version 1
nodes
  0 "Bip01"  -1
  1 "Bip01 Footsteps"   0
  2 "Bip01 Pelvis"   0
  3 "Bip01 Spine"   2
  4 "Bip01 Spine1"   3
  5 "Bip01 Spine2"   4
  6 "Bip01 Spine3"   5
  7 "Bip01 Neck"   6
  8 "Bip01 Head"   7
  9 "Dummy21"   8
 10 "Bip01 L Clavicle"   7
 11 "Bip01 L UpperArm"  10
 12 "Bip01 L Forearm"  11
 13 "Bip01 L Hand"  12
 14 "Bip01 L Finger0"  13
 15 "Bip01 L Finger01"  14
 16 "Dummy06"  15
 17 "Bip01 L Finger1"  13
 18 "Bip01 L Finger11"  17
 19 "Dummy03"  18
 20 "-- L knuckle"  17
 21 "-- L knuckle_end"  20
 22 "-- L Forearm twist"  12
 23 "-- L Forearm twist_end"  22
 24 "-- L wrist"  12
 25 "-- L wrist_end"  24
 26 "-- L Elbow"  11
 27 "--L Elbow_end"  26
 28 "-- L bicep twist"  11
 29 "-- L bicep twist_end"  28
 30 "-- L shoulder outside"  10
 31 "-- L shoulder outside_end"  30
 32 "-- L Shoulder inside"  10
 33 "-- L Shoulder inside_end"  32
 34 "Bip01 R Clavicle"   7
 35 "Bip01 R UpperArm"  34
 36 "Bip01 R Forearm"  35
 37 "Bip01 R Hand"  36
 38 "Bip01 R Finger0"  37
 39 "Bip01 R Finger01"  38
 40 "Dummy01"  39
 41 "Bip01 R Finger1"  37
 42 "Bip01 R Finger11"  41
 43 "Dummy02"  42
 44 "-- R knuckle"  41
 45 "Point06"  44
 46 "Line06"  37
 47 "-- R wrist"  36
 48 "-- R wrist_end"  47
 49 "-- R forearm twist"  36
 50 "-- R forearm twist_end"  49
 51 "-- R Elbow"  35
 52 "--R Elbow_end"  51
 53 "-- R bicep twist"  35
 54 "-- R bicep twist_end"  53
 55 "-- R Shoulder inside"  34
 56 "-- R Shoulder inside_end"  55
 57 "-- R shoulder outside"  34
 58 "-- R shoulder outside_end"  57
 59 "-- Neck smooth"   6
 60 "-- neck smooth end"  59
 61 "-- R Butt"   2
 62 "--R Butt_end"  61
 63 "-- L butt"   2
 64 "--L butt_end"  63
 65 "GIGN01"   2
 66 "Bip01 L Thigh"   2
 67 "Bip01 L Calf"  66
 68 "Bip01 L Foot"  67
 69 "Bip01 L Toe0"  68
 70 "Dummy16"  69
 71 "-- L ankle"  67
 72 "-- L ankleend"  71
 73 "-- L Knee"  66
 74 "--L Knee_end"  73
 75 "Bip01 R Thigh"   2
 76 "Bip01 R Calf"  75
 77 "Bip01 R Foot"  76
 78 "Bip01 R Toe0"  77
 79 "Dummy11"  78
 80 "-- R Ankle"  76
 81 "-- R ankleend"  80
 82 "-- R Knee"  75
 83 "--R Knee_end"  82
end
skeleton
time 2
  0 -0.650000 0.000000 33.899605 -0.025849 0.174554 -1.569172
  1 5.816421 0.852483 -32.971565 -0.174512 -0.026131 1.569196
  2 -2.276935 0.000003 -1.238189 -1.570795 -1.570451 0.000000
  3 1.797173 0.711874 0.000708 -0.218613 -0.046573 0.020281
  4 4.119711 -0.003073 0.000292 -0.089608 0.100275 0.336989
  5 4.118032 -0.003216 0.000286 -0.087369 -0.008782 -0.175217
  6 4.117103 -0.002842 0.000654 -0.213646 0.348373 -0.559190
  7 4.120514 -0.002808 -0.000999 0.295715 -0.252331 0.521044
  8 4.443596 0.000000 -0.000000 0.093134 -0.363850 -0.475252
  9 9.024059 -0.000000 0.000001 0.000000 0.000000 0.000000
 10 0.432589 0.492500 1.605024 1.440936 -1.125009 1.172251
 11 6.384777 -0.000001 0.000004 -0.760894 0.243983 -1.058624
 12 10.242682 -0.000002 0.000001 -0.000000 -0.000000 -1.285907
 13 11.375561 -0.000001 0.000002 2.302670 -0.237762 -0.504812
 14 0.728682 0.023431 -1.008290 1.100072 0.611404 0.551668
 15 2.136499 0.000000 0.000000 0.000000 0.000000 -0.078540
 16 2.313137 0.000000 0.000000 0.000000 0.000000 0.000000
 17 3.115509 -0.886040 -0.021430 -0.454479 0.000392 0.514872
 18 2.011152 -0.000000 0.000002 -0.000000 0.000000 1.322792
 19 2.141380 -0.000001 -0.000003 0.000000 0.000000 0.000000
 20 1.734174 0.000001 0.000000 0.000000 0.000000 0.660693
 21 0.000006 -4.440593 0.000000 1.570544 -0.062990 -0.195737
 22 6.000001 0.000001 0.000002 2.563932 0.000000 0.000000
 23 -0.000000 -4.440602 -0.000002 1.569944 -0.062987 0.004053
 24 11.375563 -0.000000 0.000005 -2.789817 0.133061 -0.384445
 25 -0.000001 -4.440604 0.000001 1.570144 -0.062988 0.004040
 26 10.510131 -0.000002 0.000000 -0.000000 0.000000 -2.213750
 27 0.000001 -1.748401 5.000000 -0.000000 0.004007 1.602291
 28 5.500000 -0.000001 -0.000000 0.242471 0.000000 -0.000000
 29 -0.000001 -1.940600 5.000000 -0.044472 0.004003 -0.000180
 30 6.551492 -0.000000 0.000003 -0.461377 0.216251 -0.642358
 31 0.000001 -1.940601 5.000002 -0.027189 -0.053376 0.005295
 32 6.551492 -0.000000 0.000003 -0.197642 0.137979 -0.286787
 33 0.000000 -1.940600 4.999996 -0.066572 -0.152786 -0.110311
 34 -0.432592 -0.485423 -1.605024 0.187834 1.396117 2.757082
 35 6.384778 0.000001 0.000003 -0.087160 -0.017197 -0.707511
 36 10.242682 0.000000 0.000002 -0.000000 0.000000 -2.179025
 37 11.375562 0.000000 -0.000001 2.788497 0.536911 0.678797
 38 0.728681 0.023432 1.008291 -1.579583 -0.319038 0.212973
 39 2.136497 0.000000 0.000000 0.000000 0.000000 1.282817
 40 2.313139 0.000002 0.000000 0.000000 0.000000 3.141593
 41 3.115507 -0.886040 0.021430 0.420766 0.316066 0.167178
 42 2.011150 -0.000000 -0.000003 0.000000 -0.000000 2.082010
 43 2.141380 -0.000000 0.000003 0.000000 0.000000 3.141593
 44 1.734172 -0.000001 -0.000001 -0.000000 -0.000000 1.041748
 45 0.136314 -3.738192 2.525888 1.493698 2.759406 -1.474501
 46 -2.193618 0.798258 4.032640 1.563844 0.186374 -0.074848
 47 11.389366 -0.000820 0.158782 2.105599 0.368796 0.230735
 48 0.000002 -4.440599 0.000001 1.570144 -3.078602 0.004040
 49 5.999999 -0.000000 0.000002 2.105599 0.000000 -0.000000
 50 0.000002 -4.440599 -0.000001 1.569944 -3.078603 0.004053
 51 10.510132 -0.000001 -0.000000 -0.000000 -0.000000 -2.660309
 52 -0.000001 -1.748401 -5.000000 3.141593 0.004007 -1.539299
 53 5.500000 -0.000001 -0.000001 0.030036 -0.000000 -0.000000
 54 0.000001 0.000000 -5.000001 -0.044472 3.137589 -0.000177
 55 6.551491 0.000000 0.000001 -0.030036 0.002155 -0.250960
 56 -1.266844 -1.937444 -4.950563 -0.066572 -2.988806 -0.110308
 57 6.551492 0.000000 0.000001 -0.030036 0.002155 -0.250960
 58 0.699371 -1.944208 -5.006844 -0.027189 -3.088217 0.005298
 59 4.226148 -0.003201 -0.000000 0.176201 -0.123499 0.309606
 60 0.000001 5.000001 0.000000 -0.153564 0.000087 2.718702
 61 0.000004 -0.000004 -3.713580 0.018865 -3.096651 -0.324845
 62 -0.000002 0.000000 5.000000 3.053198 1.558589 -0.074926
 63 -0.000007 0.000006 3.713580 -0.159276 -2.977491 -0.403653
 64 0.000001 -0.000000 -5.000000 -0.088726 1.558589 3.066335
 65 7.363602 1.646647 0.495663 3.141593 -1.570796 0.000000
 66 -0.000005 0.000007 3.619081 -0.217558 -2.796588 -0.810634
 67 16.573919 0.000000 0.000000 0.000000 0.000000 -2.033247
 68 15.128181 0.000002 -0.000000 0.271612 0.009043 -0.097069
 69 5.758665 4.244730 0.000000 0.000000 -0.000000 1.842220
 70 3.177726 -0.000002 -0.000001 0.000000 0.000000 3.141593
 71 15.708954 0.000001 -0.000001 0.136460 0.001254 -0.052592
 72 0.275148 0.189214 -3.445207 3.130898 0.000409 -1.514604
 73 17.210194 -0.000000 0.000000 0.000000 -0.000000 -2.328678
 74 0.000000 0.000001 -5.000000 -0.079433 1.546568 -1.570857
 75 0.000002 -0.000003 -3.619081 0.034416 -3.071533 -0.493407
 76 16.573921 -0.000000 -0.000000 0.000000 0.000000 -1.045581
 77 15.128182 0.000001 -0.000000 0.002618 -0.051986 0.588317
 78 5.758666 4.244731 0.000000 -0.000000 0.000000 1.815142
 79 4.003934 0.000000 -0.000000 0.000000 0.000000 0.000000
 80 15.708955 -0.000000 -0.000000 0.004296 -0.037430 0.405337
 81 0.273998 0.191090 3.439762 -3.130907 -0.000437 -1.508106
 82 17.210194 0.000001 -0.000000 -0.000000 -0.000000 -1.884228
 83 0.000000 -0.000001 5.000000 -0.079314 1.595025 -1.570739
time 3
  0 -0.650000 0.000000 33.899605 -0.025849 0.174554 -1.569172
  1 5.816421 0.852483 -32.971565 -0.174512 -0.026131 1.569196
  2 -2.276935 0.000003 -1.238189 -1.570795 -1.570451 0.000000
  3 1.797173 0.711874 0.000708 -0.218613 -0.046573 0.020281
  4 4.119624 -0.003019 0.000777 -0.241693 0.142210 0.290785
  5 4.117929 -0.003118 0.000761 -0.234428 0.033372 -0.220886
  6 4.117102 -0.002842 0.000654 -0.213646 0.348373 -0.559190
  7 4.120512 -0.002808 -0.000999 0.295715 -0.252331 0.521044
  8 4.443599 -0.000000 0.000000 0.378798 -0.272136 -0.427807
  9 9.024059 -0.000001 0.000001 0.000000 0.000000 0.000000
 10 0.432596 0.492499 1.605024 1.440937 -1.125009 1.172251
 11 6.384776 0.000001 -0.000001 -0.653187 0.336100 -0.665715
 12 10.242682 -0.000000 -0.000003 0.000000 -0.000000 -1.618612
 13 11.375560 -0.000001 0.000002 2.201559 -0.154482 -0.273345
 14 0.728680 0.023431 -1.008292 1.100073 0.611404 0.551668
 15 2.136497 0.000001 0.000001 0.000000 0.000000 -0.078540
 16 2.313141 -0.000000 0.000000 0.000000 0.000000 0.000000
 17 3.115505 -0.886041 -0.021432 -0.454479 0.000392 0.514872
 18 2.011152 0.000000 0.000001 -0.000000 -0.000000 1.322792
 19 2.141379 -0.000001 0.000001 0.000000 0.000000 0.000000
 20 1.734174 0.000000 0.000001 0.000000 0.000000 0.660693
 21 0.000002 -4.440592 0.000002 1.570544 -0.062990 -0.195737
 22 5.999999 -0.000001 0.000001 2.459567 -0.000000 -0.000000
 23 0.000002 -4.440601 -0.000000 1.569944 -0.062987 0.004053
 24 11.375562 -0.000001 0.000006 -2.829981 0.086975 -0.247267
 25 -0.000002 -4.440600 0.000001 1.570144 -0.062988 0.004040
 26 10.510132 -0.000002 -0.000001 -0.000000 0.000000 -2.380102
 27 0.000000 -1.748402 4.999997 -0.000000 0.004007 1.602291
 28 5.500000 -0.000002 -0.000001 0.229948 0.000000 0.000000
 29 -0.000001 -1.940598 5.000001 -0.044472 0.004003 -0.000180
 30 6.551490 0.000001 -0.000000 -0.427902 0.242060 -0.483451
 31 0.000000 -1.940599 4.999999 -0.027189 -0.053376 0.005295
 32 6.551490 0.000001 -0.000000 -0.189378 0.142039 -0.217530
 33 -0.000000 -1.940599 4.999996 -0.066572 -0.152786 -0.110311
 34 -0.432590 -0.485423 -1.605024 0.639422 1.516386 -3.072431
 35 6.384776 0.000000 -0.000003 -0.060093 -0.326421 -0.996456
 36 10.242682 -0.000001 -0.000000 -0.000000 0.000000 -2.093602
 37 11.375562 0.000000 -0.000001 2.789600 0.640087 0.692483
 38 0.728678 0.023431 1.008292 -1.579583 -0.319038 0.212973
 39 2.136499 -0.000000 -0.000001 0.000000 0.000000 1.282817
 40 2.313139 -0.000002 0.000001 0.000000 0.000000 3.141593
 41 3.115504 -0.886041 0.021431 0.420766 0.316066 0.167178
 42 2.011150 -0.000001 -0.000001 0.000000 0.000000 2.082010
 43 2.141380 -0.000000 0.000001 0.000000 0.000000 3.141593
 44 1.734171 -0.000002 -0.000001 -0.000000 0.000000 1.041748
 45 0.136315 -3.738193 2.525889 1.493698 2.759406 -1.474501
 46 -2.193621 0.798257 4.032640 1.563844 0.186374 -0.074848
 47 11.389367 -0.000819 0.158780 2.083707 0.415741 0.208920
 48 0.000002 -4.440600 0.000000 1.570144 -3.078602 0.004040
 49 6.000000 0.000000 -0.000001 2.083707 -0.000000 0.000000
 50 0.000002 -4.440602 0.000000 1.569944 -3.078603 0.004053
 51 10.510132 0.000000 0.000001 0.000000 -0.000000 -2.617597
 52 -0.000001 -1.748399 -5.000001 3.141593 0.004007 -1.539299
 53 5.500000 0.000000 0.000002 0.051761 0.000000 -0.000000
 54 0.000000 0.000000 -4.999999 -0.044472 3.137589 -0.000177
 55 6.551490 -0.000000 -0.000003 -0.051761 -0.097732 -0.283525
 56 -1.266844 -1.937444 -4.950563 -0.066572 -2.988806 -0.110308
 57 6.551491 -0.000000 -0.000003 -0.051761 -0.097732 -0.283525
 58 0.699370 -1.944208 -5.006849 -0.027189 -3.088217 0.005298
 59 4.226145 -0.003202 -0.000001 0.176201 -0.123499 0.309606
 60 -0.000002 5.000000 0.000000 -0.153564 0.000087 2.718702
 61 0.000004 -0.000004 -3.713580 0.018865 -3.096651 -0.324845
 62 -0.000002 0.000000 5.000000 3.053198 1.558589 -0.074926
 63 -0.000007 0.000006 3.713580 -0.159276 -2.977491 -0.403653
 64 0.000001 -0.000000 -5.000000 -0.088726 1.558589 3.066335
 65 7.363602 1.646647 0.495663 3.141593 -1.570796 0.000000
 66 -0.000005 0.000007 3.619081 -0.217558 -2.796588 -0.810634
 67 16.573919 0.000000 0.000000 0.000000 0.000000 -2.033247
 68 15.128181 0.000002 -0.000000 0.271612 0.009043 -0.097069
 69 5.758665 4.244730 0.000000 0.000000 -0.000000 1.842220
 70 3.177726 -0.000002 -0.000001 0.000000 0.000000 3.141593
 71 15.708954 0.000001 -0.000001 0.136460 0.001254 -0.052592
 72 0.275148 0.189214 -3.445207 3.130898 0.000409 -1.514604
 73 17.210194 -0.000000 0.000000 0.000000 -0.000000 -2.328678
 74 0.000000 0.000001 -5.000000 -0.079433 1.546568 -1.570857
 75 0.000002 -0.000003 -3.619081 0.034416 -3.071533 -0.493407
 76 16.573921 -0.000000 -0.000000 0.000000 0.000000 -1.045581
 77 15.128182 0.000001 -0.000000 0.002618 -0.051986 0.588317
 78 5.758666 4.244731 0.000000 -0.000000 0.000000 1.815142
 79 4.003934 0.000000 -0.000000 0.000000 0.000000 0.000000
 80 15.708955 -0.000000 -0.000000 0.004296 -0.037430 0.405337
 81 0.273998 0.191090 3.439762 -3.130907 -0.000437 -1.508106
 82 17.210194 0.000001 -0.000000 -0.000000 -0.000000 -1.884228
 83 0.000000 -0.000001 5.000000 -0.079314 1.595025 -1.570739
end
