version 1
nodes
  0 "Bip01"  -1
  1 "Bip01 Footsteps"   0
  2 "Bip01 Pelvis"   0
  3 "Bip01 Spine"   2
  4 "Bip01 Spine1"   3
  5 "Bip01 Spine2"   4
  6 "Bip01 Spine3"   5
  7 "Bip01 Neck"   6
  8 "Bip01 Head"   7
  9 "Dummy21"   8
 10 "Bip01 L Clavicle"   7
 11 "Bip01 L UpperArm"  10
 12 "Bip01 L Forearm"  11
 13 "Bip01 L Hand"  12
 14 "Bip01 L Finger0"  13
 15 "Bip01 L Finger01"  14
 16 "Dummy06"  15
 17 "Bip01 L Finger1"  13
 18 "Bip01 L Finger11"  17
 19 "Dummy03"  18
 20 "-- L knuckle"  17
 21 "-- L knuckle_end"  20
 22 "-- L Forearm twist"  12
 23 "-- L Forearm twist_end"  22
 24 "-- L wrist"  12
 25 "-- L wrist_end"  24
 26 "-- L Elbow"  11
 27 "--L Elbow_end"  26
 28 "-- L bicep twist"  11
 29 "-- L bicep twist_end"  28
 30 "-- L shoulder outside"  10
 31 "-- L shoulder outside_end"  30
 32 "-- L Shoulder inside"  10
 33 "-- L Shoulder inside_end"  32
 34 "Bip01 R Clavicle"   7
 35 "Bip01 R UpperArm"  34
 36 "Bip01 R Forearm"  35
 37 "Bip01 R Hand"  36
 38 "Bip01 R Finger0"  37
 39 "Bip01 R Finger01"  38
 40 "Dummy01"  39
 41 "Bip01 R Finger1"  37
 42 "Bip01 R Finger11"  41
 43 "Dummy02"  42
 44 "-- R knuckle"  41
 45 "Point06"  44
 46 "Line06"  37
 47 "-- R wrist"  36
 48 "-- R wrist_end"  47
 49 "-- R forearm twist"  36
 50 "-- R forearm twist_end"  49
 51 "-- R Elbow"  35
 52 "--R Elbow_end"  51
 53 "-- R bicep twist"  35
 54 "-- R bicep twist_end"  53
 55 "-- R Shoulder inside"  34
 56 "-- R Shoulder inside_end"  55
 57 "-- R shoulder outside"  34
 58 "-- R shoulder outside_end"  57
 59 "-- Neck smooth"   6
 60 "-- neck smooth end"  59
 61 "-- R Butt"   2
 62 "--R Butt_end"  61
 63 "-- L butt"   2
 64 "--L butt_end"  63
 65 "GIGN01"   2
 66 "Bip01 L Thigh"   2
 67 "Bip01 L Calf"  66
 68 "Bip01 L Foot"  67
 69 "Bip01 L Toe0"  68
 70 "Dummy16"  69
 71 "-- L ankle"  67
 72 "-- L ankleend"  71
 73 "-- L Knee"  66
 74 "--L Knee_end"  73
 75 "Bip01 R Thigh"   2
 76 "Bip01 R Calf"  75
 77 "Bip01 R Foot"  76
 78 "Bip01 R Toe0"  77
 79 "Dummy11"  78
 80 "-- R Ankle"  76
 81 "-- R ankleend"  80
 82 "-- R Knee"  75
 83 "--R Knee_end"  82
end
skeleton
time 0
  0 -0.650000 0.000000 33.899605 -0.025849 0.174554 -1.569172
  1 5.685104 0.833236 -32.227173 -0.174512 -0.026131 1.569196
  2 -2.276935 0.000003 -1.238188 -1.570795 -1.570451 0.000000
  3 1.797315 0.711859 0.000610 -0.187717 -0.011140 0.056548
  4 4.119945 -0.002920 0.000664 -0.204110 0.051875 0.419060
  5 4.118810 -0.003212 0.000626 -0.191946 -0.015714 0.067724
  6 4.117734 -0.003102 0.000616 -0.189657 -0.077435 -0.258673
  7 4.118548 -0.002618 -0.002378 0.842454 0.448878 0.433211
  8 4.443599 -0.000000 -0.000000 -0.294999 0.014311 0.650899
  9 9.024062 -0.000001 0.000001 0.000000 0.000000 0.000000
 10 -0.751923 1.168527 1.039102 0.776426 -0.853024 2.147110
 11 6.384777 0.000001 0.000002 -0.916000 1.022397 -1.143641
 12 10.242682 -0.000000 0.000000 0.000000 -0.000000 -1.560896
 13 11.375560 0.000000 0.000001 2.811124 0.564234 0.292688
 14 0.728681 0.023432 -1.008292 1.100073 0.611404 0.551668
 15 2.136497 0.000002 -0.000002 0.000000 0.000000 -0.078540
 16 2.313138 -0.000001 0.000000 0.000000 0.000000 0.000000
 17 3.115507 -0.886042 -0.021433 -0.454479 0.000392 0.514872
 18 2.011150 0.000001 0.000001 -0.000000 0.000000 1.322792
 19 2.141380 0.000001 0.000001 0.000000 0.000000 0.000000
 20 1.734171 0.000000 0.000000 -0.000000 -0.000000 0.660693
 21 0.000007 -4.440594 0.000001 1.570544 -0.062990 -0.195737
 22 6.000000 0.000001 0.000001 -3.122807 0.000000 -0.000000
 23 0.000001 -4.440603 0.000000 1.569944 -0.062987 0.004053
 24 11.375561 0.000001 0.000004 -2.495127 0.203374 0.332178
 25 -0.000000 -4.440605 0.000002 1.570144 -0.062988 0.004040
 26 10.510131 0.000001 -0.000000 0.000000 0.000000 -2.351244
 27 -0.000001 -1.748399 4.999999 -0.000000 0.004007 1.602291
 28 5.499998 -0.000000 0.000001 0.077429 0.000000 0.000000
 29 0.000000 -1.940598 5.000000 -0.044472 0.004003 -0.000180
 30 6.551493 -0.000000 -0.000000 -0.263356 0.729127 -0.570383
 31 0.000001 -1.940598 5.000000 -0.027189 -0.053376 0.005295
 32 6.551493 -0.000000 -0.000000 -0.054408 0.348656 -0.215601
 33 -0.000002 -1.940598 4.999997 -0.066572 -0.152786 -0.110311
 34 0.751927 -1.161451 -1.039100 2.560139 0.395415 -0.657984
 35 6.384775 -0.000000 -0.000002 -0.010840 -0.487566 -1.035057
 36 10.242682 0.000000 0.000002 0.000000 0.000000 -2.259088
 37 11.375560 0.000001 0.000001 2.928402 0.245647 0.813009
 38 0.728680 0.023431 1.008292 -1.579583 -0.319038 0.212973
 39 2.136496 -0.000001 0.000000 -0.000000 -0.000000 1.282817
 40 2.313139 -0.000000 0.000000 0.000000 0.000000 3.141593
 41 3.115506 -0.886041 0.021432 0.420766 0.316066 0.167178
 42 2.011151 -0.000001 -0.000002 0.000000 0.000000 2.082010
 43 2.141380 0.000000 0.000001 0.000000 0.000000 3.141593
 44 1.734171 -0.000001 -0.000001 0.000000 0.000000 1.041748
 45 0.136315 -3.738191 2.525890 1.493698 2.759406 -1.474501
 46 -2.193620 0.798257 4.032641 1.563844 0.186374 -0.074848
 47 11.389366 -0.000817 0.158784 2.215398 0.266713 0.353091
 48 -0.000000 -4.440599 -0.000000 1.570144 -3.078602 0.004040
 49 6.000000 0.000002 0.000002 2.215398 -0.000000 -0.000000
 50 0.000002 -4.440601 0.000001 1.569944 -3.078603 0.004053
 51 10.510130 0.000000 0.000002 0.000000 -0.000000 -2.700340
 52 -0.000001 -1.748399 -5.000000 3.141593 0.004007 -1.539299
 53 5.499999 0.000002 -0.000000 0.053707 -0.000000 -0.000000
 54 -0.000000 0.000002 -5.000002 -0.044472 3.137590 -0.000177
 55 6.551490 -0.000000 -0.000003 -0.053707 -0.155679 -0.282149
 56 -1.266843 -1.937441 -4.950559 -0.066572 -2.988806 -0.110308
 57 6.551490 -0.000000 -0.000003 -0.053707 -0.155679 -0.282149
 58 0.699371 -1.944209 -5.006845 -0.027189 -3.088217 0.005298
 59 4.226144 -0.003201 -0.000000 0.435585 0.299533 0.193773
 60 0.000000 5.000002 -0.000000 -0.153564 0.000087 2.718702
 61 0.000004 -0.000004 -3.713580 0.365818 2.880119 -0.191589
 62 0.000002 -0.000000 5.000000 3.053196 1.558589 -0.074928
 63 -0.000007 0.000006 3.713580 -0.001619 -3.122277 -0.475127
 64 0.000002 -0.000001 -5.000000 -0.088726 1.558589 3.066334
 65 7.363602 1.646647 0.495663 3.141593 -1.570796 0.000000
 66 -0.000005 0.000007 3.619081 0.008255 -3.110080 -0.985231
 67 16.573919 0.000002 0.000000 0.000000 -0.000000 -1.065827
 68 15.128181 0.000000 -0.000000 -0.102296 0.010178 0.114297
 69 5.758665 4.244730 0.000000 0.000000 0.000000 1.667687
 70 3.177725 0.000000 -0.000000 0.000000 0.000000 3.141593
 71 15.708953 0.000001 0.000000 -0.051525 0.003996 0.061523
 72 0.275148 0.189215 -3.445207 3.130898 0.000409 -1.514604
 73 17.210192 0.000001 0.000000 0.000000 -0.000000 -1.893339
 74 0.000001 -0.000000 -5.000000 -0.079430 1.546568 -1.570855
 75 0.000002 -0.000003 -3.619081 0.577895 2.675801 -0.242118
 76 16.573921 -0.000001 -0.000002 -0.000000 -0.000000 -1.163030
 77 15.128181 0.000001 0.000001 0.089479 0.309197 0.659208
 78 5.758666 4.244730 -0.000001 -0.000000 -0.000000 1.815142
 79 4.003934 -0.000000 0.000001 0.000000 0.000000 0.000000
 80 15.708954 0.000001 0.000002 0.042277 0.226871 0.443133
 81 0.273998 0.191089 3.439762 -3.130907 -0.000437 -1.508107
 82 17.210194 -0.000001 -0.000002 0.000000 -0.000000 -1.937080
 83 -0.000000 -0.000001 5.000000 -0.079319 1.595025 -1.570742
time 1
  0 -0.650000 0.000000 33.899605 -0.025849 0.174554 -1.569172
  1 5.685104 0.833236 -32.227173 -0.174512 -0.026131 1.569196
  2 -2.276935 0.000003 -1.238188 -1.570795 -1.570451 0.000000
  3 1.797346 0.711860 0.000609 -0.187607 -0.007907 0.064815
  4 4.119947 -0.002921 0.000646 -0.198432 0.051874 0.421297
  5 4.118817 -0.003213 0.000625 -0.191921 -0.016100 0.070020
  6 4.117738 -0.003102 0.000617 -0.189773 -0.077506 -0.256433
  7 4.118554 -0.002619 -0.002380 0.842454 0.448878 0.433211
  8 4.443596 -0.000001 -0.000000 -0.297210 0.009126 0.635244
  9 9.024061 -0.000001 0.000000 0.000000 0.000000 0.000000
 10 -0.751925 1.168527 1.039102 0.776426 -0.853024 2.147110
 11 6.384777 -0.000000 -0.000002 -0.929417 0.997487 -1.156047
 12 10.242684 0.000000 0.000000 -0.000000 0.000000 -1.539898
 13 11.375561 -0.000005 0.000002 2.807572 0.579880 0.284349
 14 0.728681 0.023433 -1.008292 1.100073 0.611404 0.551668
 15 2.136498 -0.000002 0.000000 0.000000 -0.000000 -0.078540
 16 2.313139 0.000001 -0.000000 0.000000 0.000000 0.000000
 17 3.115505 -0.886039 -0.021431 -0.454479 0.000392 0.514872
 18 2.011153 0.000001 0.000000 -0.000000 0.000000 1.322792
 19 2.141379 -0.000001 -0.000000 0.000000 0.000000 0.000000
 20 1.734173 -0.000000 -0.000001 -0.000000 0.000000 0.660693
 21 0.000006 -4.440593 -0.000000 1.570544 -0.062990 -0.195737
 22 6.000000 -0.000001 0.000001 -3.124715 0.000000 -0.000000
 23 0.000001 -4.440599 -0.000000 1.569944 -0.062987 0.004053
 24 11.375561 -0.000001 0.000004 -2.494106 0.213399 0.333051
 25 -0.000000 -4.440604 -0.000002 1.570144 -0.062988 0.004040
 26 10.510132 0.000001 -0.000001 0.000000 0.000000 -2.340745
 27 0.000000 -1.748400 4.999999 -0.000000 0.004007 1.602291
 28 5.500002 0.000001 -0.000001 0.086719 0.000000 -0.000000
 29 -0.000001 -1.940600 5.000001 -0.044472 0.004003 -0.000180
 30 6.551491 0.000001 -0.000000 -0.279976 0.714980 -0.582313
 31 -0.000001 -1.940597 5.000001 -0.027189 -0.053376 0.005295
 32 6.551491 0.000001 -0.000000 -0.061981 0.343930 -0.220585
 33 0.000000 -1.940599 4.999996 -0.066572 -0.152786 -0.110311
 34 0.751924 -1.161451 -1.039102 2.583524 0.443154 -0.638383
 35 6.384777 0.000000 -0.000001 -0.019680 -0.475765 -1.004110
 36 10.242682 0.000001 -0.000001 0.000000 -0.000000 -2.272492
 37 11.375563 0.000004 0.000001 2.940347 0.238002 0.862879
 38 0.728680 0.023431 1.008293 -1.579583 -0.319038 0.212973
 39 2.136497 0.000000 -0.000000 0.000000 -0.000000 1.282817
 40 2.313138 -0.000000 -0.000000 0.000000 0.000000 3.141593
 41 3.115507 -0.886041 0.021431 0.420766 0.316066 0.167178
 42 2.011151 -0.000000 -0.000001 -0.000000 0.000000 2.082010
 43 2.141381 0.000002 -0.000001 0.000000 0.000000 3.141593
 44 1.734173 -0.000001 -0.000002 0.000000 -0.000000 1.041748
 45 0.136316 -3.738194 2.525887 1.493698 2.759406 -1.474501
 46 -2.193618 0.798257 4.032640 1.563844 0.186374 -0.074848
 47 11.389368 -0.000817 0.158782 2.220193 0.271369 0.376175
 48 -0.000001 -4.440598 -0.000000 1.570144 -3.078602 0.004040
 49 6.000000 0.000001 -0.000001 2.220193 0.000000 -0.000000
 50 0.000001 -4.440601 0.000002 1.569944 -3.078603 0.004053
 51 10.510131 0.000001 -0.000000 0.000000 0.000000 -2.707042
 52 0.000001 -1.748402 -5.000002 -3.141593 0.004007 -1.539299
 53 5.500000 0.000001 -0.000001 0.053599 0.000000 -0.000000
 54 0.000000 0.000002 -5.000001 -0.044472 3.137589 -0.000177
 55 6.551491 0.000000 -0.000001 -0.053598 -0.151329 -0.278208
 56 -1.266843 -1.937442 -4.950562 -0.066572 -2.988806 -0.110308
 57 6.551491 -0.000000 -0.000001 -0.053598 -0.151329 -0.278208
 58 0.699371 -1.944207 -5.006847 -0.027189 -3.088217 0.005298
 59 4.226149 -0.003201 -0.000002 0.435585 0.299533 0.193773
 60 -0.000001 5.000000 0.000000 -0.153564 0.000087 2.718702
 61 0.000004 -0.000004 -3.713580 0.365818 2.880119 -0.191589
 62 0.000002 -0.000000 5.000000 3.053196 1.558589 -0.074928
 63 -0.000007 0.000006 3.713580 -0.001619 -3.122277 -0.475127
 64 0.000002 -0.000001 -5.000000 -0.088726 1.558589 3.066334
 65 7.363602 1.646647 0.495663 3.141593 -1.570796 0.000000
 66 -0.000005 0.000007 3.619081 0.008255 -3.110080 -0.985231
 67 16.573919 0.000002 0.000000 0.000000 -0.000000 -1.065827
 68 15.128181 0.000000 -0.000000 -0.102296 0.010178 0.114297
 69 5.758665 4.244730 0.000000 0.000000 0.000000 1.667687
 70 3.177725 0.000000 -0.000000 0.000000 0.000000 3.141593
 71 15.708953 0.000001 0.000000 -0.051525 0.003996 0.061523
 72 0.275148 0.189215 -3.445207 3.130898 0.000409 -1.514604
 73 17.210192 0.000001 0.000000 0.000000 -0.000000 -1.893339
 74 0.000001 -0.000000 -5.000000 -0.079430 1.546568 -1.570855
 75 0.000002 -0.000003 -3.619081 0.577895 2.675801 -0.242118
 76 16.573921 -0.000001 -0.000002 -0.000000 -0.000000 -1.163030
 77 15.128181 0.000001 0.000001 0.089479 0.309197 0.659208
 78 5.758666 4.244730 -0.000001 -0.000000 -0.000000 1.815142
 79 4.003934 -0.000000 0.000001 0.000000 0.000000 0.000000
 80 15.708954 0.000001 0.000002 0.042277 0.226871 0.443133
 81 0.273998 0.191089 3.439762 -3.130907 -0.000437 -1.508107
 82 17.210194 -0.000001 -0.000002 0.000000 -0.000000 -1.937080
 83 -0.000000 -0.000001 5.000000 -0.079319 1.595025 -1.570742
time 2
  0 -0.650000 0.000000 33.899605 -0.025849 0.174554 -1.569172
  1 5.685104 0.833236 -32.227173 -0.174512 -0.026131 1.569196
  2 -2.276935 0.000003 -1.238188 -1.570795 -1.570451 0.000000
  3 1.797374 0.711862 0.000609 -0.187470 -0.004676 0.073082
  4 4.119958 -0.002922 0.000627 -0.192755 0.051860 0.423535
  5 4.118824 -0.003210 0.000626 -0.191896 -0.016487 0.072317
  6 4.117746 -0.003104 0.000617 -0.189890 -0.077576 -0.254192
  7 4.118551 -0.002620 -0.002379 0.842454 0.448878 0.433211
  8 4.443600 -0.000001 0.000001 -0.299348 0.003891 0.619609
  9 9.024061 -0.000001 0.000001 0.000000 0.000000 0.000000
 10 -0.751920 1.168526 1.039104 0.776426 -0.853024 2.147110
 11 6.384777 -0.000001 -0.000002 -0.941010 0.973480 -1.166780
 12 10.242685 -0.000000 0.000000 -0.000000 -0.000000 -1.518929
 13 11.375562 -0.000001 0.000002 2.803748 0.595033 0.274954
 14 0.728680 0.023431 -1.008292 1.100073 0.611404 0.551668
 15 2.136496 0.000001 0.000001 0.000000 -0.000000 -0.078540
 16 2.313139 -0.000001 -0.000000 0.000000 0.000000 0.000000
 17 3.115506 -0.886040 -0.021430 -0.454479 0.000392 0.514872
 18 2.011150 0.000001 0.000000 0.000000 0.000000 1.322792
 19 2.141377 0.000000 -0.000001 0.000000 0.000000 0.000000
 20 1.734172 0.000001 0.000000 -0.000000 0.000000 0.660693
 21 0.000008 -4.440594 0.000001 1.570544 -0.062990 -0.195737
 22 6.000000 0.000000 0.000001 -3.126760 -0.000000 -0.000000
 23 0.000001 -4.440598 0.000000 1.569944 -0.062987 0.004053
 24 11.375562 -0.000001 0.000004 -2.493061 0.223412 0.333382
 25 -0.000001 -4.440603 0.000002 1.570144 -0.062988 0.004040
 26 10.510132 -0.000001 -0.000000 0.000000 0.000000 -2.330261
 27 0.000002 -1.748401 4.999999 -0.000000 0.004007 1.602291
 28 5.500000 -0.000000 0.000000 0.095480 -0.000000 -0.000000
 29 0.000001 -1.940599 5.000000 -0.044472 0.004003 -0.000180
 30 6.551491 -0.000001 -0.000000 -0.295298 0.701231 -0.593061
 31 0.000000 -1.940598 5.000003 -0.027189 -0.053376 0.005295
 32 6.551491 -0.000000 -0.000000 -0.069146 0.339287 -0.225214
 33 -0.000000 -1.940599 4.999995 -0.066572 -0.152786 -0.110311
 34 0.751926 -1.161450 -1.039101 2.607462 0.490691 -0.616644
 35 6.384778 0.000000 -0.000002 -0.027989 -0.461622 -0.973571
 36 10.242682 0.000000 -0.000002 -0.000000 -0.000000 -2.285896
 37 11.375562 0.000002 0.000003 2.951863 0.229790 0.912557
 38 0.728680 0.023431 1.008292 -1.579583 -0.319038 0.212973
 39 2.136497 -0.000000 -0.000000 0.000000 0.000000 1.282817
 40 2.313140 -0.000000 0.000000 0.000000 0.000000 3.141593
 41 3.115506 -0.886041 0.021431 0.420766 0.316066 0.167178
 42 2.011150 -0.000000 -0.000001 -0.000000 0.000000 2.082010
 43 2.141379 -0.000001 -0.000001 0.000000 0.000000 3.141593
 44 1.734172 -0.000001 -0.000000 -0.000000 -0.000000 1.041748
 45 0.136316 -3.738194 2.525889 1.493698 2.759406 -1.474501
 46 -2.193618 0.798256 4.032640 1.563844 0.186374 -0.074848
 47 11.389366 -0.000818 0.158784 2.224941 0.276020 0.399431
 48 -0.000001 -4.440599 0.000002 1.570144 -3.078602 0.004040
 49 5.999999 -0.000001 0.000001 2.224941 -0.000000 -0.000000
 50 0.000001 -4.440602 0.000002 1.569944 -3.078603 0.004053
 51 10.510130 -0.000000 -0.000002 0.000000 0.000000 -2.713744
 52 0.000000 -1.748398 -5.000002 -3.141593 0.004007 -1.539299
 53 5.500000 -0.000002 -0.000001 0.053177 -0.000000 0.000000
 54 -0.000000 -0.000000 -5.000001 -0.044472 3.137589 -0.000177
 55 6.551489 -0.000001 -0.000000 -0.053177 -0.146423 -0.274540
 56 -1.266842 -1.937444 -4.950559 -0.066572 -2.988806 -0.110308
 57 6.551490 -0.000001 0.000000 -0.053177 -0.146423 -0.274540
 58 0.699371 -1.944208 -5.006846 -0.027189 -3.088217 0.005298
 59 4.226145 -0.003202 -0.000000 0.435585 0.299533 0.193773
 60 -0.000001 5.000001 -0.000001 -0.153564 0.000087 2.718702
 61 0.000004 -0.000004 -3.713580 0.365818 2.880119 -0.191589
 62 0.000002 -0.000000 5.000000 3.053196 1.558589 -0.074928
 63 -0.000007 0.000006 3.713580 -0.001619 -3.122277 -0.475127
 64 0.000002 -0.000001 -5.000000 -0.088726 1.558589 3.066334
 65 7.363602 1.646647 0.495663 3.141593 -1.570796 0.000000
 66 -0.000005 0.000007 3.619081 0.008255 -3.110080 -0.985231
 67 16.573919 0.000002 0.000000 0.000000 -0.000000 -1.065827
 68 15.128181 0.000000 -0.000000 -0.102296 0.010178 0.114297
 69 5.758665 4.244730 0.000000 0.000000 0.000000 1.667687
 70 3.177725 0.000000 -0.000000 0.000000 0.000000 3.141593
 71 15.708953 0.000001 0.000000 -0.051525 0.003996 0.061523
 72 0.275148 0.189215 -3.445207 3.130898 0.000409 -1.514604
 73 17.210192 0.000001 0.000000 0.000000 -0.000000 -1.893339
 74 0.000001 -0.000000 -5.000000 -0.079430 1.546568 -1.570855
 75 0.000002 -0.000003 -3.619081 0.577895 2.675801 -0.242118
 76 16.573921 -0.000001 -0.000002 -0.000000 -0.000000 -1.163030
 77 15.128181 0.000001 0.000001 0.089479 0.309197 0.659208
 78 5.758666 4.244730 -0.000001 -0.000000 -0.000000 1.815142
 79 4.003934 -0.000000 0.000001 0.000000 0.000000 0.000000
 80 15.708954 0.000001 0.000002 0.042277 0.226871 0.443133
 81 0.273998 0.191089 3.439762 -3.130907 -0.000437 -1.508107
 82 17.210194 -0.000001 -0.000002 0.000000 -0.000000 -1.937080
 83 -0.000000 -0.000001 5.000000 -0.079319 1.595025 -1.570742
time 3
  0 -0.650000 0.000000 33.899605 -0.025849 0.174554 -1.569172
  1 5.685104 0.833236 -32.227173 -0.174512 -0.026131 1.569196
  2 -2.276935 0.000003 -1.238188 -1.570795 -1.570451 0.000000
  3 1.797405 0.711864 0.000608 -0.187307 -0.001445 0.081349
  4 4.119961 -0.002921 0.000609 -0.187077 0.051834 0.425772
  5 4.118833 -0.003211 0.000625 -0.191873 -0.016873 0.074614
  6 4.117751 -0.003105 0.000618 -0.190006 -0.077646 -0.251951
  7 4.118550 -0.002619 -0.002379 0.842454 0.448878 0.433211
  8 4.443599 -0.000001 0.000001 -0.301415 -0.001393 0.603992
  9 9.024061 -0.000002 0.000001 0.000000 0.000000 0.000000
 10 -0.751920 1.168525 1.039104 0.776426 -0.853024 2.147110
 11 6.384777 -0.000001 -0.000001 -0.950937 0.950464 -1.175969
 12 10.242681 -0.000000 -0.000000 0.000000 0.000000 -1.498121
 13 11.375562 0.000001 0.000001 2.799618 0.609681 0.264510
 14 0.728681 0.023430 -1.008292 1.100073 0.611404 0.551668
 15 2.136496 -0.000002 0.000001 -0.000000 0.000000 -0.078540
 16 2.313139 0.000000 -0.000001 0.000000 0.000000 0.000000
 17 3.115506 -0.886042 -0.021431 -0.454479 0.000392 0.514872
 18 2.011151 0.000000 0.000000 0.000000 0.000000 1.322792
 19 2.141382 -0.000001 0.000002 0.000000 0.000000 0.000000
 20 1.734172 0.000000 -0.000001 0.000000 -0.000000 0.660693
 21 0.000005 -4.440594 -0.000000 1.570544 -0.062990 -0.195737
 22 6.000000 0.000000 -0.000000 -3.128977 0.000000 -0.000000
 23 0.000002 -4.440599 -0.000000 1.569944 -0.062987 0.004053
 24 11.375561 0.000001 0.000004 -2.492013 0.233401 0.333177
 25 -0.000000 -4.440603 0.000001 1.570144 -0.062988 0.004040
 26 10.510130 0.000000 -0.000001 -0.000000 -0.000000 -2.319857
 27 0.000001 -1.748400 4.999999 -0.000000 0.004007 1.602290
 28 5.499999 -0.000000 -0.000000 0.103707 0.000000 -0.000000
 29 -0.000002 -1.940598 5.000000 -0.044472 0.004003 -0.000180
 30 6.551491 -0.000001 -0.000001 -0.309364 0.687910 -0.602672
 31 -0.000001 -1.940599 5.000002 -0.027189 -0.053376 0.005295
 32 6.551491 -0.000001 -0.000001 -0.075896 0.334738 -0.229486
 33 0.000001 -1.940600 4.999993 -0.066572 -0.152786 -0.110311
 34 0.751926 -1.161451 -1.039101 2.632168 0.537947 -0.592615
 35 6.384777 0.000001 -0.000003 -0.035718 -0.445183 -0.943565
 36 10.242682 -0.000003 0.000000 -0.000000 -0.000000 -2.299301
 37 11.375561 0.000001 0.000001 2.962925 0.221033 0.962039
 38 0.728681 0.023431 1.008294 -1.579583 -0.319038 0.212973
 39 2.136496 0.000000 -0.000000 -0.000000 -0.000000 1.282817
 40 2.313138 0.000000 0.000001 0.000000 0.000000 3.141593
 41 3.115507 -0.886041 0.021432 0.420766 0.316066 0.167178
 42 2.011152 -0.000001 -0.000002 -0.000000 0.000000 2.082010
 43 2.141381 0.000000 0.000002 0.000000 0.000000 3.141593
 44 1.734172 -0.000001 -0.000001 -0.000000 0.000000 1.041748
 45 0.136315 -3.738193 2.525890 1.493698 2.759406 -1.474501
 46 -2.193618 0.798256 4.032642 1.563844 0.186374 -0.074848
 47 11.389366 -0.000818 0.158782 2.229650 0.280705 0.422948
 48 -0.000000 -4.440600 0.000004 1.570144 -3.078602 0.004040
 49 6.000000 -0.000000 -0.000000 2.229650 -0.000000 -0.000000
 50 0.000003 -4.440601 0.000000 1.569944 -3.078603 0.004053
 51 10.510132 -0.000002 0.000001 -0.000000 0.000000 -2.720447
 52 0.000001 -1.748398 -4.999999 -3.141593 0.004007 -1.539299
 53 5.500000 -0.000002 -0.000000 0.052464 -0.000000 -0.000000
 54 -0.000001 0.000001 -5.000001 -0.044472 3.137589 -0.000177
 55 6.551491 0.000001 -0.000003 -0.052464 -0.140950 -0.271129
 56 -1.266843 -1.937444 -4.950560 -0.066572 -2.988806 -0.110308
 57 6.551491 0.000001 -0.000002 -0.052464 -0.140950 -0.271129
 58 0.699369 -1.944208 -5.006846 -0.027189 -3.088217 0.005298
 59 4.226146 -0.003201 -0.000001 0.435584 0.299533 0.193773
 60 -0.000001 5.000001 0.000000 -0.153564 0.000087 2.718702
 61 0.000004 -0.000004 -3.713580 0.365818 2.880119 -0.191589
 62 0.000002 -0.000000 5.000000 3.053196 1.558589 -0.074928
 63 -0.000007 0.000006 3.713580 -0.001619 -3.122277 -0.475127
 64 0.000002 -0.000001 -5.000000 -0.088726 1.558589 3.066334
 65 7.363602 1.646647 0.495663 3.141593 -1.570796 0.000000
 66 -0.000005 0.000007 3.619081 0.008255 -3.110080 -0.985231
 67 16.573919 0.000002 0.000000 0.000000 -0.000000 -1.065827
 68 15.128181 0.000000 -0.000000 -0.102296 0.010178 0.114297
 69 5.758665 4.244730 0.000000 0.000000 0.000000 1.667687
 70 3.177725 0.000000 -0.000000 0.000000 0.000000 3.141593
 71 15.708953 0.000001 0.000000 -0.051525 0.003996 0.061523
 72 0.275148 0.189215 -3.445207 3.130898 0.000409 -1.514604
 73 17.210192 0.000001 0.000000 0.000000 -0.000000 -1.893339
 74 0.000001 -0.000000 -5.000000 -0.079430 1.546568 -1.570855
 75 0.000002 -0.000003 -3.619081 0.577895 2.675801 -0.242118
 76 16.573921 -0.000001 -0.000002 -0.000000 -0.000000 -1.163030
 77 15.128181 0.000001 0.000001 0.089479 0.309197 0.659208
 78 5.758666 4.244730 -0.000001 -0.000000 -0.000000 1.815142
 79 4.003934 -0.000000 0.000001 0.000000 0.000000 0.000000
 80 15.708954 0.000001 0.000002 0.042277 0.226871 0.443133
 81 0.273998 0.191089 3.439762 -3.130907 -0.000437 -1.508107
 82 17.210194 -0.000001 -0.000002 0.000000 -0.000000 -1.937080
 83 -0.000000 -0.000001 5.000000 -0.079319 1.595025 -1.570742
time 4
  0 -0.650000 0.000000 33.899605 -0.025849 0.174554 -1.569172
  1 5.685104 0.833236 -32.227173 -0.174512 -0.026131 1.569196
  2 -2.276935 0.000003 -1.238188 -1.570795 -1.570451 0.000000
  3 1.797429 0.711867 0.000608 -0.187117 0.001784 0.089616
  4 4.119973 -0.002924 0.000591 -0.181400 0.051795 0.428009
  5 4.118840 -0.003213 0.000625 -0.191851 -0.017260 0.076911
  6 4.117759 -0.003107 0.000618 -0.190123 -0.077716 -0.249710
  7 4.118552 -0.002619 -0.002379 0.842454 0.448878 0.433211
  8 4.443597 -0.000001 0.000000 -0.303408 -0.006723 0.588392
  9 9.024060 -0.000002 0.000000 0.000000 0.000000 0.000000
 10 -0.751924 1.168526 1.039102 0.776426 -0.853024 2.147110
 11 6.384777 -0.000001 0.000001 -0.959331 0.928519 -1.183727
 12 10.242683 -0.000000 0.000000 -0.000000 -0.000000 -1.477614
 13 11.375560 -0.000003 -0.000000 2.795144 0.623810 0.253033
 14 0.728680 0.023433 -1.008292 1.100072 0.611404 0.551668
 15 2.136495 -0.000001 -0.000000 0.000000 -0.000000 -0.078540
 16 2.313140 0.000001 -0.000001 0.000000 0.000000 0.000000
 17 3.115506 -0.886039 -0.021431 -0.454479 0.000392 0.514872
 18 2.011152 0.000002 0.000002 0.000000 0.000000 1.322792
 19 2.141378 0.000000 -0.000001 0.000000 0.000000 0.000000
 20 1.734173 0.000002 -0.000000 0.000000 0.000000 0.660693
 21 0.000004 -4.440594 -0.000001 1.570544 -0.062990 -0.195737
 22 6.000000 0.000001 0.000001 -3.131401 -0.000000 -0.000000
 23 0.000001 -4.440600 0.000001 1.569944 -0.062987 0.004053
 24 11.375561 0.000001 0.000005 -2.490978 0.243352 0.332448
 25 0.000000 -4.440605 0.000002 1.570144 -0.062988 0.004040
 26 10.510132 -0.000000 -0.000001 -0.000000 0.000000 -2.309604
 27 0.000002 -1.748401 4.999999 -0.000000 0.004007 1.602290
 28 5.500003 0.000000 -0.000000 0.111399 -0.000000 -0.000000
 29 -0.000001 -1.940598 5.000000 -0.044472 0.004003 -0.000180
 30 6.551491 0.000000 0.000002 -0.322212 0.675047 -0.611187
 31 0.000000 -1.940598 5.000001 -0.027189 -0.053376 0.005295
 32 6.551491 0.000000 0.000002 -0.082228 0.330296 -0.233401
 33 -0.000001 -1.940598 4.999996 -0.066572 -0.152786 -0.110311
 34 0.751924 -1.161451 -1.039101 2.657882 0.584841 -0.566113
 35 6.384778 0.000001 -0.000002 -0.042830 -0.426503 -0.914200
 36 10.242682 0.000001 0.000001 -0.000000 0.000000 -2.312705
 37 11.375562 0.000001 0.000001 2.973508 0.211754 1.011320
 38 0.728682 0.023431 1.008292 -1.579583 -0.319038 0.212973
 39 2.136497 -0.000002 0.000000 0.000000 0.000000 1.282817
 40 2.313140 0.000000 -0.000000 0.000000 0.000000 3.141593
 41 3.115508 -0.886040 0.021431 0.420765 0.316066 0.167178
 42 2.011149 0.000000 0.000000 -0.000000 0.000000 2.082010
 43 2.141378 0.000001 -0.000000 0.000000 0.000000 3.141593
 44 1.734171 -0.000001 -0.000000 0.000000 0.000000 1.041748
 45 0.136315 -3.738193 2.525890 1.493698 2.759406 -1.474501
 46 -2.193617 0.798257 4.032640 1.563844 0.186374 -0.074848
 47 11.389368 -0.000818 0.158783 2.234329 0.285459 0.446815
 48 0.000001 -4.440599 -0.000001 1.570144 -3.078602 0.004040
 49 6.000001 0.000001 0.000002 2.234329 -0.000000 0.000000
 50 0.000001 -4.440602 -0.000001 1.569944 -3.078603 0.004053
 51 10.510131 0.000000 0.000001 0.000000 0.000000 -2.727149
 52 -0.000000 -1.748398 -4.999998 3.141593 0.004007 -1.539299
 53 5.499999 0.000003 -0.000001 0.051483 0.000000 0.000000
 54 -0.000000 0.000001 -5.000000 -0.044472 3.137589 -0.000177
 55 6.551490 0.000001 0.000001 -0.051483 -0.134901 -0.267958
 56 -1.266843 -1.937443 -4.950562 -0.066572 -2.988806 -0.110308
 57 6.551490 0.000000 0.000001 -0.051483 -0.134901 -0.267958
 58 0.699371 -1.944207 -5.006848 -0.027189 -3.088217 0.005298
 59 4.226146 -0.003201 -0.000001 0.435585 0.299533 0.193773
 60 -0.000002 5.000001 0.000000 -0.153564 0.000087 2.718702
 61 0.000004 -0.000004 -3.713580 0.365818 2.880119 -0.191589
 62 0.000002 -0.000000 5.000000 3.053196 1.558589 -0.074928
 63 -0.000007 0.000006 3.713580 -0.001619 -3.122277 -0.475127
 64 0.000002 -0.000001 -5.000000 -0.088726 1.558589 3.066334
 65 7.363602 1.646647 0.495663 3.141593 -1.570796 0.000000
 66 -0.000005 0.000007 3.619081 0.008255 -3.110080 -0.985231
 67 16.573919 0.000002 0.000000 0.000000 -0.000000 -1.065827
 68 15.128181 0.000000 -0.000000 -0.102296 0.010178 0.114297
 69 5.758665 4.244730 0.000000 0.000000 0.000000 1.667687
 70 3.177725 0.000000 -0.000000 0.000000 0.000000 3.141593
 71 15.708953 0.000001 0.000000 -0.051525 0.003996 0.061523
 72 0.275148 0.189215 -3.445207 3.130898 0.000409 -1.514604
 73 17.210192 0.000001 0.000000 0.000000 -0.000000 -1.893339
 74 0.000001 -0.000000 -5.000000 -0.079430 1.546568 -1.570855
 75 0.000002 -0.000003 -3.619081 0.577895 2.675801 -0.242118
 76 16.573921 -0.000001 -0.000002 -0.000000 -0.000000 -1.163030
 77 15.128181 0.000001 0.000001 0.089479 0.309197 0.659208
 78 5.758666 4.244730 -0.000001 -0.000000 -0.000000 1.815142
 79 4.003934 -0.000000 0.000001 0.000000 0.000000 0.000000
 80 15.708954 0.000001 0.000002 0.042277 0.226871 0.443133
 81 0.273998 0.191089 3.439762 -3.130907 -0.000437 -1.508107
 82 17.210194 -0.000001 -0.000002 0.000000 -0.000000 -1.937080
 83 -0.000000 -0.000001 5.000000 -0.079319 1.595025 -1.570742
end
