version 1
nodes
  0 "Bip01"  -1
  1 "Bip01 Footsteps"   0
  2 "Bip01 Pelvis"   0
  3 "Bip01 Spine"   2
  4 "Bip01 Spine1"   3
  5 "Bip01 Spine2"   4
  6 "Bip01 Spine3"   5
  7 "Bip01 Neck"   6
  8 "Bip01 Head"   7
  9 "Dummy21"   8
 10 "Bip01 L Clavicle"   7
 11 "Bip01 L UpperArm"  10
 12 "Bip01 L Forearm"  11
 13 "Bip01 L Hand"  12
 14 "Bip01 L Finger0"  13
 15 "Bip01 L Finger01"  14
 16 "Dummy06"  15
 17 "Bip01 L Finger1"  13
 18 "Bip01 L Finger11"  17
 19 "Dummy03"  18
 20 "-- L knuckle"  17
 21 "-- L knuckle_end"  20
 22 "-- L Forearm twist"  12
 23 "-- L Forearm twist_end"  22
 24 "-- L wrist"  12
 25 "-- L wrist_end"  24
 26 "-- L Elbow"  11
 27 "--L Elbow_end"  26
 28 "-- L bicep twist"  11
 29 "-- L bicep twist_end"  28
 30 "-- L shoulder outside"  10
 31 "-- L shoulder outside_end"  30
 32 "-- L Shoulder inside"  10
 33 "-- L Shoulder inside_end"  32
 34 "Bip01 R Clavicle"   7
 35 "Bip01 R UpperArm"  34
 36 "Bip01 R Forearm"  35
 37 "Bip01 R Hand"  36
 38 "Bip01 R Finger0"  37
 39 "Bip01 R Finger01"  38
 40 "Dummy01"  39
 41 "Bip01 R Finger1"  37
 42 "Bip01 R Finger11"  41
 43 "Dummy02"  42
 44 "-- R knuckle"  41
 45 "Point06"  44
 46 "Line06"  37
 47 "-- R wrist"  36
 48 "-- R wrist_end"  47
 49 "-- R forearm twist"  36
 50 "-- R forearm twist_end"  49
 51 "-- R Elbow"  35
 52 "--R Elbow_end"  51
 53 "-- R bicep twist"  35
 54 "-- R bicep twist_end"  53
 55 "-- R Shoulder inside"  34
 56 "-- R Shoulder inside_end"  55
 57 "-- R shoulder outside"  34
 58 "-- R shoulder outside_end"  57
 59 "-- Neck smooth"   6
 60 "-- neck smooth end"  59
 61 "-- R Butt"   2
 62 "--R Butt_end"  61
 63 "-- L butt"   2
 64 "--L butt_end"  63
 65 "GIGN01"   2
 66 "Bip01 L Thigh"   2
 67 "Bip01 L Calf"  66
 68 "Bip01 L Foot"  67
 69 "Bip01 L Toe0"  68
 70 "Dummy16"  69
 71 "-- L ankle"  67
 72 "-- L ankleend"  71
 73 "-- L Knee"  66
 74 "--L Knee_end"  73
 75 "Bip01 R Thigh"   2
 76 "Bip01 R Calf"  75
 77 "Bip01 R Foot"  76
 78 "Bip01 R Toe0"  77
 79 "Dummy11"  78
 80 "-- R Ankle"  76
 81 "-- R ankleend"  80
 82 "-- R Knee"  75
 83 "--R Knee_end"  82
end
skeleton
time 0
  0 -0.650000 0.000000 33.899605 -0.025849 0.174554 -1.569172
  1 5.685104 0.833236 -32.227173 -0.174512 -0.026131 1.569196
  2 -2.276935 0.000003 -1.238188 -1.570795 -1.570451 0.000000
  3 1.797112 0.711862 0.000650 -0.200914 -0.075762 0.005874
  4 4.119897 -0.002948 0.000631 -0.194819 0.114453 0.390690
  5 4.118754 -0.003208 0.000663 -0.203414 0.008080 0.046676
  6 4.117684 -0.003081 0.000648 -0.199565 -0.067780 -0.276742
  7 4.119016 -0.003346 -0.001071 0.349238 0.482329 0.290751
  8 4.443597 -0.000000 0.000000 0.503919 -0.305680 0.171139
  9 9.024061 -0.000000 0.000000 0.000000 0.000000 0.000000
 10 -0.803711 0.528797 1.442383 0.198706 -1.169008 2.773460
 11 6.384776 -0.000001 -0.000003 -1.071377 0.305389 -1.193408
 12 10.242683 -0.000000 -0.000001 -0.000000 0.000000 -1.496237
 13 11.375560 -0.000001 0.000002 2.736665 0.294988 0.038700
 14 0.728679 0.023430 -1.008292 2.205900 0.711203 0.931237
 15 2.136498 0.000000 -0.000000 0.000000 0.000000 -0.078540
 16 2.313137 0.000000 0.000000 0.000000 0.000000 0.000000
 17 3.115506 -0.886039 -0.021431 -0.454479 0.000392 0.514872
 18 2.011151 0.000001 0.000002 -0.000000 0.000000 1.322792
 19 2.141379 0.000001 -0.000000 0.000000 0.000000 0.000000
 20 1.734174 0.000003 0.000001 -0.000000 0.000000 0.660693
 21 0.000006 -4.440594 -0.000001 1.570544 -0.062990 -0.195737
 22 5.999997 0.000000 0.000001 3.083825 0.000000 0.000000
 23 0.000002 -4.440601 -0.000001 1.569944 -0.062987 0.004053
 24 11.375559 0.000000 0.000004 -2.543555 0.147991 0.129952
 25 0.000002 -4.440604 -0.000002 1.570144 -0.062988 0.004040
 26 10.510132 0.000001 -0.000001 -0.000000 0.000000 -2.318914
 27 -0.000000 -1.748399 4.999998 -0.000000 0.004007 1.602290
 28 5.500000 -0.000000 -0.000001 0.323741 0.000000 0.000000
 29 -0.000002 -1.940598 5.000001 -0.044472 0.004003 -0.000180
 30 6.551491 -0.000000 -0.000000 -0.634156 0.274895 -0.689847
 31 -0.000000 -1.940599 5.000002 -0.027189 -0.053376 0.005295
 32 6.551491 -0.000000 -0.000000 -0.261096 0.178782 -0.287900
 33 0.000001 -1.940599 4.999995 -0.066572 -0.152786 -0.110311
 34 0.803713 -0.521722 -1.442382 -3.095849 0.979459 -0.084911
 35 6.384777 0.000001 -0.000003 0.192486 -0.193996 -1.082392
 36 10.242683 -0.000001 -0.000001 -0.000000 -0.000000 -2.235345
 37 11.375561 -0.000000 -0.000001 2.850614 0.516343 0.986313
 38 0.728679 0.023431 1.008290 -1.579583 -0.319038 0.212973
 39 2.136497 -0.000002 -0.000001 -0.000000 -0.000000 1.282817
 40 2.313141 -0.000001 -0.000000 0.000000 0.000000 3.141593
 41 3.115506 -0.886042 0.021432 0.420766 0.316066 0.167178
 42 2.011150 0.000001 0.000002 -0.000000 0.000000 2.082010
 43 2.141379 0.000000 0.000000 0.000000 0.000000 3.141593
 44 1.734172 -0.000001 -0.000001 0.000000 -0.000000 1.041748
 45 0.136315 -3.738193 2.525888 1.493698 2.759406 -1.474501
 46 -2.193619 0.798256 4.032640 1.563844 0.186374 -0.074848
 47 11.389366 -0.000819 0.158781 2.110063 0.399628 0.367563
 48 -0.000000 -4.440598 -0.000001 1.570144 -3.078602 0.004040
 49 5.999999 0.000000 -0.000001 2.110063 0.000000 -0.000000
 50 0.000001 -4.440600 -0.000000 1.569944 -3.078603 0.004053
 51 10.510132 -0.000001 -0.000000 -0.000000 -0.000000 -2.688469
 52 -0.000001 -1.748400 -5.000003 -3.141593 0.004007 -1.539299
 53 5.500000 -0.000001 0.000001 -0.040730 -0.000000 -0.000000
 54 0.000000 0.000001 -5.000000 -0.044472 3.137589 -0.000177
 55 6.551489 0.000000 0.000000 0.040730 -0.090826 -0.299132
 56 -1.266843 -1.937444 -4.950560 -0.066572 -2.988806 -0.110308
 57 6.551490 0.000000 0.000000 0.040730 -0.090826 -0.299132
 58 0.699371 -1.944207 -5.006849 -0.027189 -3.088217 0.005298
 59 4.226146 -0.003201 -0.000000 0.173878 0.283689 0.145659
 60 0.000001 5.000000 -0.000000 -0.153564 0.000087 2.718702
 61 0.000004 -0.000004 -3.713580 0.365818 2.880119 -0.191589
 62 0.000002 -0.000000 5.000000 3.053196 1.558589 -0.074928
 63 -0.000007 0.000006 3.713580 -0.001619 -3.122277 -0.475127
 64 0.000002 -0.000001 -5.000000 -0.088726 1.558589 3.066334
 65 7.363602 1.646647 0.495663 3.141593 -1.570796 0.000000
 66 -0.000005 0.000007 3.619081 0.008255 -3.110080 -0.985231
 67 16.573919 0.000002 0.000000 0.000000 -0.000000 -1.065827
 68 15.128181 0.000000 -0.000000 -0.102296 0.010178 0.114297
 69 5.758665 4.244730 0.000000 0.000000 0.000000 1.667687
 70 3.177725 0.000000 -0.000000 0.000000 0.000000 3.141593
 71 15.708953 0.000001 0.000000 -0.051525 0.003996 0.061523
 72 0.275148 0.189215 -3.445207 3.130898 0.000409 -1.514604
 73 17.210192 0.000001 0.000000 0.000000 -0.000000 -1.893339
 74 0.000001 -0.000000 -5.000000 -0.079430 1.546568 -1.570855
 75 0.000002 -0.000003 -3.619081 0.577895 2.675801 -0.242118
 76 16.573921 -0.000001 -0.000002 -0.000000 -0.000000 -1.163030
 77 15.128181 0.000001 0.000001 0.089479 0.309197 0.659208
 78 5.758666 4.244730 -0.000001 -0.000000 -0.000000 1.815142
 79 4.003934 -0.000000 0.000001 0.000000 0.000000 0.000000
 80 15.708954 0.000001 0.000002 0.042277 0.226871 0.443133
 81 0.273998 0.191089 3.439762 -3.130907 -0.000437 -1.508107
 82 17.210194 -0.000001 -0.000002 0.000000 -0.000000 -1.937080
 83 -0.000000 -0.000001 5.000000 -0.079319 1.595025 -1.570742
time 1
  0 -0.650000 0.000000 33.899605 -0.025849 0.174554 -1.569172
  1 5.685104 0.833236 -32.227173 -0.174512 -0.026131 1.569196
  2 -2.276935 0.000003 -1.238188 -1.570795 -1.570451 0.000000
  3 1.797126 0.711860 0.000641 -0.197685 -0.060035 0.007412
  4 4.119897 -0.002948 0.000622 -0.191742 0.097919 0.395265
  5 4.118760 -0.003209 0.000654 -0.200557 0.000819 0.049440
  6 4.117690 -0.003084 0.000640 -0.196950 -0.071183 -0.274814
  7 4.119125 -0.003312 -0.001130 0.366753 0.470046 0.328859
  8 4.443602 -0.000000 0.000001 0.500583 -0.288181 0.102755
  9 9.024063 -0.000001 0.000001 0.000000 0.000000 0.000000
 10 -0.784792 0.557478 1.442070 0.198462 -1.168653 2.737660
 11 6.384777 -0.000001 -0.000002 -1.070448 0.259515 -1.216905
 12 10.242682 -0.000001 0.000000 0.000000 0.000000 -1.441428
 13 11.375561 -0.000001 0.000001 2.683338 0.314381 0.022094
 14 0.728681 0.023431 -1.008291 2.205900 0.711203 0.931237
 15 2.136492 -0.000001 0.000001 0.000000 0.000000 -0.078540
 16 2.313139 -0.000000 0.000000 0.000000 0.000000 0.000000
 17 3.115507 -0.886041 -0.021431 -0.454479 0.000392 0.514872
 18 2.011152 0.000001 0.000000 0.000000 0.000000 1.322792
 19 2.141379 0.000002 -0.000000 0.000000 0.000000 0.000000
 20 1.734172 0.000001 -0.000000 -0.000000 0.000000 0.660693
 21 0.000006 -4.440594 -0.000001 1.570544 -0.062990 -0.195737
 22 5.999998 -0.000000 -0.000000 3.030302 0.000000 -0.000000
 23 0.000002 -4.440601 -0.000001 1.569944 -0.062987 0.004053
 24 11.375561 -0.000000 0.000004 -2.566402 0.163651 0.132958
 25 -0.000003 -4.440604 0.000003 1.570144 -0.062988 0.004040
 26 10.510130 0.000000 -0.000001 -0.000000 -0.000000 -2.291511
 27 0.000002 -1.748401 4.999998 -0.000000 0.004007 1.602290
 28 5.499999 -0.000002 0.000001 0.329751 0.000000 0.000000
 29 -0.000002 -1.940599 5.000000 -0.044472 0.004003 -0.000180
 30 6.551491 0.000000 0.000002 -0.643597 0.251736 -0.710656
 31 0.000000 -1.940599 5.000002 -0.027189 -0.053376 0.005295
 32 6.551491 0.000000 0.000002 -0.265849 0.170237 -0.297758
 33 -0.000001 -1.940599 4.999997 -0.066572 -0.152786 -0.110311
 34 0.784801 -0.550402 -1.442068 -3.057090 0.987294 -0.075655
 35 6.384777 -0.000000 -0.000001 0.208072 -0.181962 -1.061139
 36 10.242682 -0.000000 -0.000000 0.000000 -0.000000 -2.233562
 37 11.375562 -0.000000 -0.000001 2.862749 0.507721 1.012653
 38 0.728680 0.023431 1.008292 -1.579583 -0.319038 0.212973
 39 2.136496 0.000001 0.000000 -0.000000 -0.000000 1.282817
 40 2.313141 0.000002 0.000000 0.000000 0.000000 3.141593
 41 3.115506 -0.886041 0.021432 0.420765 0.316066 0.167178
 42 2.011151 -0.000000 -0.000000 -0.000000 -0.000000 2.082010
 43 2.141379 0.000000 0.000000 0.000000 0.000000 3.141593
 44 1.734172 -0.000001 0.000001 -0.000000 0.000000 1.041748
 45 0.136315 -3.738192 2.525892 1.493698 2.759406 -1.474501
 46 -2.193619 0.798257 4.032640 1.563844 0.186374 -0.074848
 47 11.389366 -0.000819 0.158781 2.115272 0.400924 0.380705
 48 0.000001 -4.440599 -0.000001 1.570144 -3.078602 0.004040
 49 5.999999 0.000000 0.000001 2.115272 0.000000 0.000000
 50 0.000001 -4.440599 -0.000000 1.569944 -3.078603 0.004053
 51 10.510131 -0.000001 0.000002 -0.000000 -0.000000 -2.687577
 52 -0.000000 -1.748399 -5.000001 -3.141593 0.004007 -1.539299
 53 5.500000 -0.000000 0.000001 -0.047449 0.000000 -0.000000
 54 -0.000001 0.000001 -4.999998 -0.044472 3.137589 -0.000177
 55 6.551491 0.000000 -0.000001 0.047449 -0.088066 -0.296185
 56 -1.266844 -1.937444 -4.950561 -0.066572 -2.988806 -0.110308
 57 6.551492 0.000000 -0.000000 0.047449 -0.088066 -0.296185
 58 0.699371 -1.944208 -5.006848 -0.027189 -3.088217 0.005298
 59 4.226148 -0.003202 -0.000000 0.181703 0.278389 0.167165
 60 0.000001 5.000001 -0.000001 -0.153564 0.000087 2.718702
 61 0.000004 -0.000004 -3.713580 0.365818 2.880119 -0.191589
 62 0.000002 -0.000000 5.000000 3.053196 1.558589 -0.074928
 63 -0.000007 0.000006 3.713580 -0.001619 -3.122277 -0.475127
 64 0.000002 -0.000001 -5.000000 -0.088726 1.558589 3.066334
 65 7.363602 1.646647 0.495663 3.141593 -1.570796 0.000000
 66 -0.000005 0.000007 3.619081 0.008255 -3.110080 -0.985231
 67 16.573919 0.000002 0.000000 0.000000 -0.000000 -1.065827
 68 15.128181 0.000000 -0.000000 -0.102296 0.010178 0.114297
 69 5.758665 4.244730 0.000000 0.000000 0.000000 1.667687
 70 3.177725 0.000000 -0.000000 0.000000 0.000000 3.141593
 71 15.708953 0.000001 0.000000 -0.051525 0.003996 0.061523
 72 0.275148 0.189215 -3.445207 3.130898 0.000409 -1.514604
 73 17.210192 0.000001 0.000000 0.000000 -0.000000 -1.893339
 74 0.000001 -0.000000 -5.000000 -0.079430 1.546568 -1.570855
 75 0.000002 -0.000003 -3.619081 0.577895 2.675801 -0.242118
 76 16.573921 -0.000001 -0.000002 -0.000000 -0.000000 -1.163030
 77 15.128181 0.000001 0.000001 0.089479 0.309197 0.659208
 78 5.758666 4.244730 -0.000001 -0.000000 -0.000000 1.815142
 79 4.003934 -0.000000 0.000001 0.000000 0.000000 0.000000
 80 15.708954 0.000001 0.000002 0.042277 0.226871 0.443133
 81 0.273998 0.191089 3.439762 -3.130907 -0.000437 -1.508107
 82 17.210194 -0.000001 -0.000002 0.000000 -0.000000 -1.937080
 83 -0.000000 -0.000001 5.000000 -0.079319 1.595025 -1.570742
time 2
  0 -0.650000 0.000000 33.899605 -0.025849 0.174554 -1.569172
  1 5.685104 0.833236 -32.227173 -0.174512 -0.026131 1.569196
  2 -2.276935 0.000003 -1.238188 -1.570795 -1.570451 0.000000
  3 1.797141 0.711858 0.000631 -0.194436 -0.044313 0.009000
  4 4.119899 -0.002948 0.000613 -0.188746 0.081370 0.399781
  5 4.118773 -0.003216 0.000643 -0.197721 -0.006450 0.052183
  6 4.117688 -0.003083 0.000632 -0.194341 -0.074591 -0.272894
  7 4.119232 -0.003273 -0.001188 0.383638 0.457182 0.366491
  8 4.443598 0.000001 -0.000000 0.496157 -0.270998 0.034677
  9 9.024059 -0.000000 -0.000001 0.000000 0.000000 0.000000
 10 -0.764861 0.585480 1.441753 0.198207 -1.168296 2.701864
 11 6.384777 0.000000 0.000001 -1.068858 0.214600 -1.240682
 12 10.242682 -0.000001 0.000001 -0.000000 -0.000000 -1.385470
 13 11.375561 -0.000001 -0.000001 2.630298 0.334004 0.003616
 14 0.728682 0.023432 -1.008292 2.205900 0.711203 0.931237
 15 2.136495 0.000001 -0.000000 -0.000000 0.000000 -0.078540
 16 2.313139 0.000001 -0.000001 0.000000 0.000000 0.000000
 17 3.115507 -0.886040 -0.021432 -0.454479 0.000392 0.514872
 18 2.011149 -0.000000 -0.000001 0.000000 0.000000 1.322792
 19 2.141381 -0.000000 -0.000000 0.000000 0.000000 0.000000
 20 1.734174 0.000002 -0.000001 -0.000000 0.000000 0.660693
 21 0.000006 -4.440593 -0.000000 1.570544 -0.062990 -0.195737
 22 6.000000 -0.000001 -0.000000 2.976120 0.000000 -0.000000
 23 -0.000000 -4.440600 0.000001 1.569944 -0.062987 0.004053
 24 11.375564 -0.000001 0.000004 -2.588413 0.180446 0.135945
 25 -0.000002 -4.440602 -0.000001 1.570144 -0.062988 0.004040
 26 10.510133 0.000001 -0.000000 0.000000 0.000000 -2.263531
 27 -0.000001 -1.748402 4.999999 -0.000000 0.004007 1.602291
 28 5.500000 -0.000001 0.000000 0.335899 0.000000 0.000000
 29 -0.000002 -1.940599 5.000001 -0.044472 0.004003 -0.000180
 30 6.551491 0.000000 0.000002 -0.653563 0.228617 -0.732294
 31 -0.000000 -1.940599 5.000000 -0.027189 -0.053376 0.005295
 32 6.551491 0.000000 0.000002 -0.270652 0.161888 -0.307680
 33 -0.000000 -1.940599 4.999995 -0.066572 -0.152786 -0.110311
 34 0.764862 -0.578403 -1.441753 -3.017514 0.994136 -0.065351
 35 6.384776 -0.000001 -0.000000 0.223428 -0.169157 -1.039573
 36 10.242682 -0.000002 0.000003 -0.000000 -0.000000 -2.231780
 37 11.375561 -0.000000 -0.000002 2.874563 0.498824 1.038746
 38 0.728679 0.023431 1.008290 -1.579583 -0.319038 0.212973
 39 2.136496 -0.000001 -0.000000 -0.000000 -0.000000 1.282817
 40 2.313140 0.000002 -0.000000 0.000000 0.000000 3.141593
 41 3.115507 -0.886041 0.021431 0.420766 0.316066 0.167178
 42 2.011150 -0.000000 -0.000002 -0.000000 0.000000 2.082010
 43 2.141380 0.000000 -0.000002 0.000000 0.000000 3.141593
 44 1.734173 -0.000001 -0.000002 -0.000000 0.000000 1.041748
 45 0.136314 -3.738191 2.525890 1.493698 2.759406 -1.474501
 46 -2.193619 0.798257 4.032637 1.563844 0.186374 -0.074848
 47 11.389366 -0.000819 0.158780 2.120477 0.402203 0.393931
 48 -0.000001 -4.440600 -0.000000 1.570144 -3.078602 0.004040
 49 6.000000 0.000000 -0.000003 2.120477 0.000000 0.000000
 50 0.000001 -4.440600 -0.000000 1.569944 -3.078603 0.004053
 51 10.510130 -0.000002 0.000004 0.000000 0.000000 -2.686686
 52 0.000000 -1.748399 -5.000000 -3.141593 0.004007 -1.539299
 53 5.499999 -0.000001 0.000003 -0.054207 0.000000 -0.000000
 54 -0.000000 0.000000 -4.999999 -0.044472 3.137589 -0.000177
 55 6.551491 -0.000000 -0.000002 0.054207 -0.084942 -0.293277
 56 -1.266843 -1.937442 -4.950558 -0.066572 -2.988806 -0.110308
 57 6.551491 -0.000000 -0.000001 0.054207 -0.084942 -0.293277
 58 0.699371 -1.944209 -5.006847 -0.027189 -3.088217 0.005298
 59 4.226144 -0.003201 -0.000000 0.189323 0.272867 0.188311
 60 0.000002 5.000000 0.000000 -0.153564 0.000087 2.718702
 61 0.000004 -0.000004 -3.713580 0.365818 2.880119 -0.191589
 62 0.000002 -0.000000 5.000000 3.053196 1.558589 -0.074928
 63 -0.000007 0.000006 3.713580 -0.001619 -3.122277 -0.475127
 64 0.000002 -0.000001 -5.000000 -0.088726 1.558589 3.066334
 65 7.363602 1.646647 0.495663 3.141593 -1.570796 0.000000
 66 -0.000005 0.000007 3.619081 0.008255 -3.110080 -0.985231
 67 16.573919 0.000002 0.000000 0.000000 -0.000000 -1.065827
 68 15.128181 0.000000 -0.000000 -0.102296 0.010178 0.114297
 69 5.758665 4.244730 0.000000 0.000000 0.000000 1.667687
 70 3.177725 0.000000 -0.000000 0.000000 0.000000 3.141593
 71 15.708953 0.000001 0.000000 -0.051525 0.003996 0.061523
 72 0.275148 0.189215 -3.445207 3.130898 0.000409 -1.514604
 73 17.210192 0.000001 0.000000 0.000000 -0.000000 -1.893339
 74 0.000001 -0.000000 -5.000000 -0.079430 1.546568 -1.570855
 75 0.000002 -0.000003 -3.619081 0.577895 2.675801 -0.242118
 76 16.573921 -0.000001 -0.000002 -0.000000 -0.000000 -1.163030
 77 15.128181 0.000001 0.000001 0.089479 0.309197 0.659208
 78 5.758666 4.244730 -0.000001 -0.000000 -0.000000 1.815142
 79 4.003934 -0.000000 0.000001 0.000000 0.000000 0.000000
 80 15.708954 0.000001 0.000002 0.042277 0.226871 0.443133
 81 0.273998 0.191089 3.439762 -3.130907 -0.000437 -1.508107
 82 17.210194 -0.000001 -0.000002 0.000000 -0.000000 -1.937080
 83 -0.000000 -0.000001 5.000000 -0.079319 1.595025 -1.570742
time 3
  0 -0.650000 0.000000 33.899605 -0.025849 0.174554 -1.569172
  1 5.685104 0.833236 -32.227173 -0.174512 -0.026131 1.569196
  2 -2.276935 0.000003 -1.238188 -1.570795 -1.570451 0.000000
  3 1.797156 0.711856 0.000621 -0.191163 -0.028596 0.010638
  4 4.119909 -0.002948 0.000605 -0.185829 0.064808 0.404242
  5 4.118772 -0.003213 0.000635 -0.194904 -0.013726 0.054906
  6 4.117695 -0.003089 0.000622 -0.191737 -0.078004 -0.270983
  7 4.119337 -0.003229 -0.001243 0.399883 0.443762 0.403646
  8 4.443597 0.000000 -0.000000 0.490671 -0.254175 -0.033124
  9 9.024064 -0.000000 0.000000 0.000000 0.000000 0.000000
 10 -0.743928 0.612763 1.441436 0.197940 -1.167936 2.666071
 11 6.384777 0.000000 0.000002 -1.066659 0.170549 -1.264839
 12 10.242683 0.000000 0.000000 0.000000 -0.000000 -1.328306
 13 11.375563 0.000001 0.000002 2.577532 0.353842 -0.016661
 14 0.728681 0.023433 -1.008292 2.205900 0.711203 0.931237
 15 2.136494 -0.000000 0.000001 0.000000 0.000000 -0.078540
 16 2.313140 0.000000 -0.000001 0.000000 0.000000 0.000000
 17 3.115506 -0.886038 -0.021431 -0.454479 0.000392 0.514872
 18 2.011151 0.000001 -0.000000 -0.000000 0.000000 1.322792
 19 2.141379 0.000000 -0.000000 0.000000 0.000000 0.000000
 20 1.734172 0.000001 -0.000001 -0.000000 -0.000000 0.660693
 21 0.000004 -4.440595 -0.000001 1.570544 -0.062990 -0.195737
 22 6.000002 -0.000001 0.000001 2.921217 0.000000 -0.000000
 23 0.000002 -4.440602 0.000000 1.569944 -0.062987 0.004053
 24 11.375566 -0.000001 0.000005 -2.609517 0.198389 0.139019
 25 0.000001 -4.440604 -0.000002 1.570144 -0.062988 0.004040
 26 10.510129 -0.000002 0.000001 -0.000000 0.000000 -2.234949
 27 0.000000 -1.748401 4.999998 0.000000 0.004007 1.602290
 28 5.500000 -0.000002 0.000001 0.342170 -0.000000 -0.000000
 29 -0.000000 -1.940598 5.000000 -0.044472 0.004003 -0.000180
 30 6.551492 -0.000001 -0.000001 -0.664045 0.205281 -0.755101
 31 0.000001 -1.940598 5.000000 -0.027189 -0.053376 0.005295
 32 6.551492 -0.000001 -0.000001 -0.275484 0.153665 -0.317783
 33 -0.000000 -1.940599 4.999995 -0.066572 -0.152786 -0.110311
 34 0.743928 -0.605687 -1.441436 -2.977241 0.999954 -0.054118
 35 6.384776 0.000000 0.000002 0.238567 -0.155606 -1.017700
 36 10.242682 0.000000 -0.000001 0.000000 -0.000000 -2.229997
 37 11.375560 0.000000 -0.000002 2.886052 0.489661 1.064591
 38 0.728681 0.023431 1.008293 -1.579583 -0.319038 0.212973
 39 2.136498 -0.000000 0.000000 0.000000 -0.000000 1.282817
 40 2.313139 0.000001 0.000000 0.000000 0.000000 3.141593
 41 3.115507 -0.886041 0.021432 0.420766 0.316066 0.167178
 42 2.011151 -0.000001 -0.000001 -0.000000 -0.000000 2.082010
 43 2.141380 0.000000 0.000000 0.000000 0.000000 3.141593
 44 1.734174 -0.000002 0.000000 -0.000000 0.000000 1.041748
 45 0.136314 -3.738192 2.525888 1.493698 2.759406 -1.474501
 46 -2.193618 0.798257 4.032638 1.563844 0.186374 -0.074848
 47 11.389366 -0.000819 0.158782 2.125679 0.403467 0.407249
 48 0.000001 -4.440601 0.000001 1.570144 -3.078602 0.004040
 49 5.999999 0.000000 -0.000001 2.125679 0.000000 0.000000
 50 0.000002 -4.440604 0.000001 1.569944 -3.078603 0.004053
 51 10.510131 -0.000000 -0.000000 -0.000000 -0.000000 -2.685795
 52 0.000001 -1.748401 -5.000003 -3.141593 0.004007 -1.539299
 53 5.500000 0.000001 -0.000002 -0.061001 -0.000000 0.000000
 54 0.000000 0.000000 -5.000000 -0.044472 3.137589 -0.000177
 55 6.551491 0.000001 0.000000 0.061001 -0.081488 -0.290394
 56 -1.266843 -1.937444 -4.950560 -0.066572 -2.988806 -0.110308
 57 6.551491 0.000001 0.000000 0.061001 -0.081488 -0.290394
 58 0.699371 -1.944208 -5.006848 -0.027189 -3.088217 0.005298
 59 4.226145 -0.003201 -0.000000 0.196740 0.267150 0.209082
 60 -0.000002 5.000001 0.000001 -0.153564 0.000087 2.718702
 61 0.000004 -0.000004 -3.713580 0.365818 2.880119 -0.191589
 62 0.000002 -0.000000 5.000000 3.053196 1.558589 -0.074928
 63 -0.000007 0.000006 3.713580 -0.001619 -3.122277 -0.475127
 64 0.000002 -0.000001 -5.000000 -0.088726 1.558589 3.066334
 65 7.363602 1.646647 0.495663 3.141593 -1.570796 0.000000
 66 -0.000005 0.000007 3.619081 0.008255 -3.110080 -0.985231
 67 16.573919 0.000002 0.000000 0.000000 -0.000000 -1.065827
 68 15.128181 0.000000 -0.000000 -0.102296 0.010178 0.114297
 69 5.758665 4.244730 0.000000 0.000000 0.000000 1.667687
 70 3.177725 0.000000 -0.000000 0.000000 0.000000 3.141593
 71 15.708953 0.000001 0.000000 -0.051525 0.003996 0.061523
 72 0.275148 0.189215 -3.445207 3.130898 0.000409 -1.514604
 73 17.210192 0.000001 0.000000 0.000000 -0.000000 -1.893339
 74 0.000001 -0.000000 -5.000000 -0.079430 1.546568 -1.570855
 75 0.000002 -0.000003 -3.619081 0.577895 2.675801 -0.242118
 76 16.573921 -0.000001 -0.000002 -0.000000 -0.000000 -1.163030
 77 15.128181 0.000001 0.000001 0.089479 0.309197 0.659208
 78 5.758666 4.244730 -0.000001 -0.000000 -0.000000 1.815142
 79 4.003934 -0.000000 0.000001 0.000000 0.000000 0.000000
 80 15.708954 0.000001 0.000002 0.042277 0.226871 0.443133
 81 0.273998 0.191089 3.439762 -3.130907 -0.000437 -1.508107
 82 17.210194 -0.000001 -0.000002 0.000000 -0.000000 -1.937080
 83 -0.000000 -0.000001 5.000000 -0.079319 1.595025 -1.570742
time 4
  0 -0.650000 0.000000 33.899605 -0.025849 0.174554 -1.569172
  1 5.685104 0.833236 -32.227173 -0.174512 -0.026131 1.569196
  2 -2.276935 0.000003 -1.238188 -1.570795 -1.570451 0.000000
  3 1.797171 0.711854 0.000610 -0.187865 -0.012885 0.012327
  4 4.119914 -0.002949 0.000596 -0.182988 0.048234 0.408651
  5 4.118772 -0.003214 0.000626 -0.192106 -0.021010 0.057609
  6 4.117701 -0.003093 0.000614 -0.189140 -0.081421 -0.269080
  7 4.119443 -0.003182 -0.001297 0.415477 0.429810 0.440328
  8 4.443599 -0.000001 0.000000 0.484158 -0.237754 -0.100675
  9 9.024060 -0.000001 0.000000 0.000000 0.000000 0.000000
 10 -0.722022 0.639294 1.441116 0.197661 -1.167572 2.630284
 11 6.384776 -0.000000 -0.000001 -1.063891 0.127261 -1.289471
 12 10.242682 0.000001 -0.000000 -0.000000 0.000000 -1.269849
 13 11.375560 -0.000001 0.000000 2.525021 0.373880 -0.038687
 14 0.728680 0.023432 -1.008291 2.205900 0.711203 0.931237
 15 2.136500 0.000001 -0.000000 0.000000 0.000000 -0.078540
 16 2.313139 0.000001 0.000000 0.000000 0.000000 0.000000
 17 3.115507 -0.886039 -0.021430 -0.454479 0.000392 0.514872
 18 2.011149 0.000001 0.000001 0.000000 0.000000 1.322792
 19 2.141378 -0.000001 -0.000000 0.000000 0.000000 0.000000
 20 1.734171 0.000002 0.000001 -0.000000 0.000000 0.660693
 21 0.000007 -4.440594 0.000001 1.570544 -0.062990 -0.195737
 22 5.999999 0.000000 0.000000 2.865536 0.000000 0.000000
 23 0.000000 -4.440601 0.000001 1.569944 -0.062987 0.004053
 24 11.375560 0.000000 0.000003 -2.629634 0.217494 0.142273
 25 -0.000001 -4.440603 0.000000 1.570144 -0.062988 0.004040
 26 10.510131 0.000004 -0.000001 0.000000 -0.000000 -2.205721
 27 0.000001 -1.748400 5.000000 0.000000 0.004007 1.602291
 28 5.500000 0.000004 -0.000001 0.348530 -0.000000 0.000000
 29 -0.000002 -1.940599 5.000001 -0.044472 0.004003 -0.000180
 30 6.551491 -0.000001 -0.000001 -0.674996 0.181461 -0.779448
 31 -0.000001 -1.940601 5.000003 -0.027189 -0.053376 0.005295
 32 6.551491 -0.000001 -0.000001 -0.280302 0.145491 -0.328183
 33 -0.000000 -1.940599 4.999999 -0.066572 -0.152786 -0.110311
 34 0.722026 -0.632220 -1.441116 -2.936403 1.004722 -0.042088
 35 6.384777 -0.000000 0.000002 0.253504 -0.141338 -0.995527
 36 10.242681 -0.000001 -0.000000 0.000000 0.000000 -2.228214
 37 11.375560 0.000003 0.000001 2.897215 0.480242 1.090189
 38 0.728681 0.023430 1.008293 -1.579583 -0.319038 0.212973
 39 2.136497 0.000001 0.000000 -0.000000 -0.000000 1.282817
 40 2.313138 -0.000002 0.000000 0.000000 0.000000 3.141593
 41 3.115506 -0.886041 0.021429 0.420765 0.316066 0.167178
 42 2.011150 0.000001 0.000001 -0.000000 0.000000 2.082010
 43 2.141379 0.000000 -0.000000 0.000000 0.000000 3.141593
 44 1.734172 -0.000001 -0.000001 -0.000000 0.000000 1.041748
 45 0.136315 -3.738192 2.525888 1.493698 2.759406 -1.474501
 46 -2.193618 0.798257 4.032640 1.563844 0.186374 -0.074848
 47 11.389365 -0.000819 0.158780 2.130881 0.404717 0.420666
 48 0.000001 -4.440601 0.000001 1.570144 -3.078602 0.004040
 49 5.999999 0.000001 -0.000001 2.130881 0.000000 -0.000000
 50 0.000002 -4.440603 0.000002 1.569944 -3.078603 0.004053
 51 10.510130 -0.000001 0.000002 0.000000 0.000000 -2.684903
 52 0.000001 -1.748399 -4.999999 -3.141593 0.004007 -1.539299
 53 5.499999 -0.000000 0.000000 -0.067822 0.000000 -0.000000
 54 0.000000 0.000000 -4.999998 -0.044472 3.137589 -0.000177
 55 6.551490 -0.000000 0.000002 0.067822 -0.077734 -0.287523
 56 -1.266843 -1.937444 -4.950561 -0.066572 -2.988806 -0.110308
 57 6.551492 0.000001 -0.000001 0.067822 -0.077734 -0.287523
 58 0.699371 -1.944209 -5.006847 -0.027189 -3.088217 0.005298
 59 4.226146 -0.003201 0.000000 0.203959 0.261259 0.229472
 60 -0.000001 5.000001 0.000000 -0.153564 0.000087 2.718702
 61 0.000004 -0.000004 -3.713580 0.365818 2.880119 -0.191589
 62 0.000002 -0.000000 5.000000 3.053196 1.558589 -0.074928
 63 -0.000007 0.000006 3.713580 -0.001619 -3.122277 -0.475127
 64 0.000002 -0.000001 -5.000000 -0.088726 1.558589 3.066334
 65 7.363602 1.646647 0.495663 3.141593 -1.570796 0.000000
 66 -0.000005 0.000007 3.619081 0.008255 -3.110080 -0.985231
 67 16.573919 0.000002 0.000000 0.000000 -0.000000 -1.065827
 68 15.128181 0.000000 -0.000000 -0.102296 0.010178 0.114297
 69 5.758665 4.244730 0.000000 0.000000 0.000000 1.667687
 70 3.177725 0.000000 -0.000000 0.000000 0.000000 3.141593
 71 15.708953 0.000001 0.000000 -0.051525 0.003996 0.061523
 72 0.275148 0.189215 -3.445207 3.130898 0.000409 -1.514604
 73 17.210192 0.000001 0.000000 0.000000 -0.000000 -1.893339
 74 0.000001 -0.000000 -5.000000 -0.079430 1.546568 -1.570855
 75 0.000002 -0.000003 -3.619081 0.577895 2.675801 -0.242118
 76 16.573921 -0.000001 -0.000002 -0.000000 -0.000000 -1.163030
 77 15.128181 0.000001 0.000001 0.089479 0.309197 0.659208
 78 5.758666 4.244730 -0.000001 -0.000000 -0.000000 1.815142
 79 4.003934 -0.000000 0.000001 0.000000 0.000000 0.000000
 80 15.708954 0.000001 0.000002 0.042277 0.226871 0.443133
 81 0.273998 0.191089 3.439762 -3.130907 -0.000437 -1.508107
 82 17.210194 -0.000001 -0.000002 0.000000 -0.000000 -1.937080
 83 -0.000000 -0.000001 5.000000 -0.079319 1.595025 -1.570742
end
