version 1
nodes
  0 "Bip01"  -1
  1 "Bip01 Footsteps"   0
  2 "Bip01 Pelvis"   0
  3 "Bip01 Spine"   2
  4 "Bip01 Spine1"   3
  5 "Bip01 Spine2"   4
  6 "Bip01 Spine3"   5
  7 "Bip01 Neck"   6
  8 "Bip01 Head"   7
  9 "Dummy21"   8
 10 "Bip01 L Clavicle"   7
 11 "Bip01 L UpperArm"  10
 12 "Bip01 L Forearm"  11
 13 "Bip01 L Hand"  12
 14 "Bip01 L Finger0"  13
 15 "Bip01 L Finger01"  14
 16 "Dummy06"  15
 17 "Bip01 L Finger1"  13
 18 "Bip01 L Finger11"  17
 19 "Dummy03"  18
 20 "-- L knuckle"  17
 21 "-- L knuckle_end"  20
 22 "-- L Forearm twist"  12
 23 "-- L Forearm twist_end"  22
 24 "-- L wrist"  12
 25 "-- L wrist_end"  24
 26 "-- L Elbow"  11
 27 "--L Elbow_end"  26
 28 "-- L bicep twist"  11
 29 "-- L bicep twist_end"  28
 30 "-- L shoulder outside"  10
 31 "-- L shoulder outside_end"  30
 32 "-- L Shoulder inside"  10
 33 "-- L Shoulder inside_end"  32
 34 "Bip01 R Clavicle"   7
 35 "Bip01 R UpperArm"  34
 36 "Bip01 R Forearm"  35
 37 "Bip01 R Hand"  36
 38 "Bip01 R Finger0"  37
 39 "Bip01 R Finger01"  38
 40 "Dummy01"  39
 41 "Bip01 R Finger1"  37
 42 "Bip01 R Finger11"  41
 43 "Dummy02"  42
 44 "-- R knuckle"  41
 45 "Point06"  44
 46 "Line06"  37
 47 "-- R wrist"  36
 48 "-- R wrist_end"  47
 49 "-- R forearm twist"  36
 50 "-- R forearm twist_end"  49
 51 "-- R Elbow"  35
 52 "--R Elbow_end"  51
 53 "-- R bicep twist"  35
 54 "-- R bicep twist_end"  53
 55 "-- R Shoulder inside"  34
 56 "-- R Shoulder inside_end"  55
 57 "-- R shoulder outside"  34
 58 "-- R shoulder outside_end"  57
 59 "-- Neck smooth"   6
 60 "-- neck smooth end"  59
 61 "-- R Butt"   2
 62 "--R Butt_end"  61
 63 "-- L butt"   2
 64 "--L butt_end"  63
 65 "GIGN01"   2
 66 "Bip01 L Thigh"   2
 67 "Bip01 L Calf"  66
 68 "Bip01 L Foot"  67
 69 "Bip01 L Toe0"  68
 70 "Dummy16"  69
 71 "-- L ankle"  67
 72 "-- L ankleend"  71
 73 "-- L Knee"  66
 74 "--L Knee_end"  73
 75 "Bip01 R Thigh"   2
 76 "Bip01 R Calf"  75
 77 "Bip01 R Foot"  76
 78 "Bip01 R Toe0"  77
 79 "Dummy11"  78
 80 "-- R Ankle"  76
 81 "-- R ankleend"  80
 82 "-- R Knee"  75
 83 "--R Knee_end"  82
end
skeleton
time 0
  0 -0.650000 0.000000 33.899605 -0.025849 0.174554 -1.569172
  1 5.685104 0.833236 -32.227173 -0.174512 -0.026131 1.569196
  2 -2.276935 0.000003 -1.238188 -1.570795 -1.570451 0.000000
  3 1.797095 0.711797 0.000011 -0.004177 0.204557 -0.014763
  4 4.119826 -0.003043 0.000003 -0.001042 -0.017236 0.382521
  5 4.118081 -0.003238 -0.000022 0.006701 -0.130392 -0.161015
  6 4.118354 -0.003269 0.000094 -0.029068 -0.143330 -0.071794
  7 4.117458 -0.001114 -0.003157 1.376012 0.428393 0.328810
  8 4.443597 -0.000000 0.000000 -0.094501 -0.133127 0.816810
  9 9.024063 -0.000001 0.000000 0.000000 0.000000 0.000000
 10 -0.719792 1.549873 0.305073 1.193212 -0.370995 1.923009
 11 6.384777 0.000000 -0.000000 -0.908530 1.072648 -0.089109
 12 10.242682 0.000000 -0.000002 -0.000000 -0.000000 -2.252716
 13 11.375563 -0.000000 -0.000000 2.548743 0.172184 -0.412262
 14 0.728679 0.023430 -1.008293 1.100072 0.611404 0.551668
 15 2.136497 -0.000000 -0.000001 0.000000 0.000000 -0.078540
 16 2.313138 -0.000000 0.000001 0.000000 0.000000 0.000000
 17 3.115507 -0.886041 -0.021432 -0.454479 0.000392 0.514872
 18 2.011154 0.000001 -0.000000 -0.000000 0.000000 1.322792
 19 2.141380 0.000002 0.000001 0.000000 0.000000 0.000000
 20 1.734173 0.000000 0.000001 0.000000 0.000000 0.660693
 21 0.000005 -4.440593 -0.000000 1.570544 -0.062990 -0.195737
 22 6.000001 -0.000001 0.000001 2.873077 -0.000000 0.000000
 23 0.000002 -4.440603 0.000001 1.569944 -0.062987 0.004053
 24 11.375561 0.000001 0.000003 -2.633432 0.255103 -0.155523
 25 0.000001 -4.440602 0.000001 1.570144 -0.062988 0.004040
 26 10.510129 0.000000 -0.000002 0.000000 0.000000 -2.697154
 27 0.000000 -1.748401 5.000000 0.000000 0.004007 1.602290
 28 5.499999 0.000001 -0.000002 0.274079 0.000000 -0.000000
 29 -0.000003 -1.940598 5.000001 -0.044472 0.004003 -0.000180
 30 6.551492 0.000000 -0.000001 -0.521796 0.774526 0.086484
 31 0.000001 -1.940600 5.000001 -0.027189 -0.053376 0.005295
 32 6.551492 0.000000 -0.000001 -0.225700 0.342346 0.088848
 33 -0.000000 -1.940599 4.999996 -0.066572 -0.152786 -0.110311
 34 0.719791 -1.542797 -0.305073 2.166374 0.506274 -0.728205
 35 6.384776 -0.000001 0.000002 0.098036 0.117520 -1.266478
 36 10.242682 0.000001 -0.000000 0.000000 -0.000000 -2.098947
 37 11.375561 -0.000002 0.000000 3.029483 0.358990 0.634111
 38 0.728680 0.023431 1.008292 -1.579583 -0.319038 0.212973
 39 2.136497 0.000001 0.000000 0.000000 0.000000 1.282817
 40 2.313139 0.000002 0.000001 0.000000 0.000000 3.141593
 41 3.115506 -0.886041 0.021432 0.420765 0.316066 0.167178
 42 2.011150 0.000001 -0.000001 0.000000 -0.000000 2.082010
 43 2.141379 -0.000000 -0.000002 0.000000 0.000000 3.141593
 44 1.734173 -0.000002 -0.000003 0.000000 -0.000000 1.041748
 45 0.136314 -3.738193 2.525891 1.493698 2.759406 -1.474501
 46 -2.193618 0.798257 4.032640 1.563844 0.186374 -0.074848
 47 11.389366 -0.000821 0.158782 2.255258 0.309344 0.240269
 48 0.000000 -4.440600 0.000002 1.570144 -3.078602 0.004040
 49 6.000000 -0.000001 -0.000001 2.255258 -0.000000 -0.000000
 50 0.000001 -4.440599 -0.000003 1.569944 -3.078603 0.004053
 51 10.510132 0.000001 -0.000002 0.000000 0.000000 -2.620270
 52 -0.000001 -1.748399 -5.000001 -3.141593 0.004007 -1.539299
 53 5.500000 0.000001 -0.000002 -0.054878 -0.000000 0.000000
 54 0.000000 -0.000000 -4.999999 -0.044472 3.137589 -0.000177
 55 6.551490 -0.000000 -0.000000 0.054878 0.015974 -0.337292
 56 -1.266843 -1.937444 -4.950558 -0.066572 -2.988806 -0.110308
 57 6.551491 0.000000 0.000000 0.054878 0.015974 -0.337292
 58 0.699371 -1.944208 -5.006846 -0.027189 -3.088217 0.005298
 59 4.226146 -0.003201 -0.000000 0.732019 0.314496 0.112644
 60 0.000002 5.000001 -0.000000 -0.153564 0.000087 2.718702
 61 0.000004 -0.000004 -3.713580 0.365818 2.880119 -0.191589
 62 0.000002 -0.000000 5.000000 3.053196 1.558589 -0.074928
 63 -0.000007 0.000006 3.713580 -0.001619 -3.122277 -0.475127
 64 0.000002 -0.000001 -5.000000 -0.088726 1.558589 3.066334
 65 7.363602 1.646647 0.495663 3.141593 -1.570796 0.000000
 66 -0.000005 0.000007 3.619081 0.008255 -3.110080 -0.985231
 67 16.573919 0.000002 0.000000 0.000000 -0.000000 -1.065827
 68 15.128181 0.000000 -0.000000 -0.102296 0.010178 0.114297
 69 5.758665 4.244730 0.000000 0.000000 0.000000 1.667687
 70 3.177725 0.000000 -0.000000 0.000000 0.000000 3.141593
 71 15.708953 0.000001 0.000000 -0.051525 0.003996 0.061523
 72 0.275148 0.189215 -3.445207 3.130898 0.000409 -1.514604
 73 17.210192 0.000001 0.000000 0.000000 -0.000000 -1.893339
 74 0.000001 -0.000000 -5.000000 -0.079430 1.546568 -1.570855
 75 0.000002 -0.000003 -3.619081 0.577895 2.675801 -0.242118
 76 16.573921 -0.000001 -0.000002 -0.000000 -0.000000 -1.163030
 77 15.128181 0.000001 0.000001 0.089479 0.309197 0.659208
 78 5.758666 4.244730 -0.000001 -0.000000 -0.000000 1.815142
 79 4.003934 -0.000000 0.000001 0.000000 0.000000 0.000000
 80 15.708954 0.000001 0.000002 0.042277 0.226871 0.443133
 81 0.273998 0.191089 3.439762 -3.130907 -0.000437 -1.508107
 82 17.210194 -0.000001 -0.000002 0.000000 -0.000000 -1.937080
 83 -0.000000 -0.000001 5.000000 -0.079319 1.595025 -1.570742
time 1
  0 -0.650000 0.000000 33.899605 -0.025849 0.174554 -1.569172
  1 5.685104 0.833236 -32.227173 -0.174512 -0.026131 1.569196
  2 -2.276935 0.000003 -1.238188 -1.570795 -1.570451 0.000000
  3 1.797099 0.711796 0.000011 -0.004178 0.169727 -0.014615
  4 4.119826 -0.003043 0.000004 -0.001033 -0.006786 0.382510
  5 4.118077 -0.003236 -0.000022 0.006700 -0.112977 -0.160898
  6 4.118361 -0.003268 0.000095 -0.029332 -0.132829 -0.070145
  7 4.117544 -0.001123 -0.003184 1.367225 0.405102 0.333961
  8 4.443601 0.000001 0.000002 -0.080022 -0.150060 0.777377
  9 9.024063 -0.000001 0.000000 0.000000 0.000000 0.000000
 10 -0.682883 1.563133 0.321954 1.189294 -0.381237 1.900684
 11 6.384777 0.000000 -0.000001 -1.016984 1.101821 -0.195060
 12 10.242681 0.000001 -0.000001 0.000000 -0.000000 -2.225967
 13 11.375560 0.000002 0.000001 2.566027 0.219634 -0.421775
 14 0.728680 0.023430 -1.008293 1.100073 0.611404 0.551668
 15 2.136498 0.000001 0.000000 0.000000 0.000000 -0.078540
 16 2.313138 -0.000001 0.000001 0.000000 0.000000 0.000000
 17 3.115507 -0.886041 -0.021433 -0.454479 0.000392 0.514872
 18 2.011150 0.000001 -0.000001 -0.000000 0.000000 1.322792
 19 2.141379 0.000001 -0.000001 0.000000 0.000000 0.000000
 20 1.734170 0.000000 -0.000000 -0.000000 -0.000000 0.660693
 21 0.000003 -4.440593 -0.000000 1.570544 -0.062990 -0.195737
 22 6.000000 0.000000 0.000002 2.896012 0.000000 0.000000
 23 -0.000001 -4.440602 0.000001 1.569944 -0.062987 0.004053
 24 11.375561 -0.000000 0.000005 -2.617422 0.277352 -0.141937
 25 -0.000001 -4.440603 -0.000002 1.570144 -0.062988 0.004040
 26 10.510130 0.000001 -0.000003 -0.000000 0.000000 -2.683780
 27 0.000002 -1.748401 5.000001 0.000000 0.004007 1.602291
 28 5.500000 0.000001 -0.000002 0.288263 -0.000000 -0.000000
 29 -0.000002 -1.940598 5.000002 -0.044472 0.004003 -0.000180
 30 6.551492 0.000000 -0.000001 -0.565403 0.800546 0.045921
 31 0.000000 -1.940598 5.000002 -0.027189 -0.053376 0.005295
 32 6.551492 0.000000 -0.000001 -0.236005 0.352359 0.078272
 33 -0.000000 -1.940598 4.999999 -0.066572 -0.152786 -0.110311
 34 0.682892 -1.556055 -0.321950 2.215268 0.553309 -0.692357
 35 6.384778 0.000000 -0.000003 0.105074 0.106752 -1.213703
 36 10.242682 -0.000000 0.000002 0.000000 -0.000000 -2.098947
 37 11.375560 -0.000001 0.000002 3.029841 0.350317 0.635143
 38 0.728680 0.023431 1.008290 -1.579583 -0.319038 0.212973
 39 2.136498 0.000000 -0.000000 -0.000000 -0.000000 1.282817
 40 2.313138 0.000001 0.000000 0.000000 0.000000 3.141593
 41 3.115505 -0.886040 0.021430 0.420766 0.316066 0.167178
 42 2.011151 -0.000000 -0.000002 0.000000 -0.000000 2.082010
 43 2.141380 -0.000001 -0.000001 0.000000 0.000000 3.141593
 44 1.734172 -0.000001 -0.000001 0.000000 0.000000 1.041748
 45 0.136315 -3.738191 2.525891 1.493698 2.759406 -1.474501
 46 -2.193619 0.798256 4.032640 1.563844 0.186374 -0.074848
 47 11.389366 -0.000821 0.158784 2.256837 0.305512 0.243020
 48 -0.000000 -4.440598 -0.000000 1.570144 -3.078602 0.004040
 49 5.999999 -0.000001 0.000001 2.256837 0.000000 -0.000000
 50 0.000001 -4.440602 -0.000002 1.569944 -3.078603 0.004053
 51 10.510131 0.000000 -0.000000 0.000000 0.000000 -2.620270
 52 -0.000001 -1.748399 -5.000003 -3.141593 0.004007 -1.539299
 53 5.500000 0.000000 0.000000 -0.053675 -0.000000 0.000000
 54 0.000000 -0.000001 -4.999996 -0.044472 3.137589 -0.000177
 55 6.551492 0.000000 -0.000002 0.053675 0.012557 -0.325276
 56 -1.266843 -1.937442 -4.950560 -0.066572 -2.988806 -0.110308
 57 6.551492 -0.000000 -0.000002 0.053675 0.012557 -0.325276
 58 0.699370 -1.944207 -5.006847 -0.027189 -3.088217 0.005298
 59 4.226147 -0.003201 0.000000 0.730138 0.302184 0.121587
 60 0.000002 5.000000 -0.000000 -0.153564 0.000087 2.718702
 61 0.000004 -0.000004 -3.713580 0.365818 2.880119 -0.191589
 62 0.000002 -0.000000 5.000000 3.053196 1.558589 -0.074928
 63 -0.000007 0.000006 3.713580 -0.001619 -3.122277 -0.475127
 64 0.000002 -0.000001 -5.000000 -0.088726 1.558589 3.066334
 65 7.363602 1.646647 0.495663 3.141593 -1.570796 0.000000
 66 -0.000005 0.000007 3.619081 0.008255 -3.110080 -0.985231
 67 16.573919 0.000002 0.000000 0.000000 -0.000000 -1.065827
 68 15.128181 0.000000 -0.000000 -0.102296 0.010178 0.114297
 69 5.758665 4.244730 0.000000 0.000000 0.000000 1.667687
 70 3.177725 0.000000 -0.000000 0.000000 0.000000 3.141593
 71 15.708953 0.000001 0.000000 -0.051525 0.003996 0.061523
 72 0.275148 0.189215 -3.445207 3.130898 0.000409 -1.514604
 73 17.210192 0.000001 0.000000 0.000000 -0.000000 -1.893339
 74 0.000001 -0.000000 -5.000000 -0.079430 1.546568 -1.570855
 75 0.000002 -0.000003 -3.619081 0.577895 2.675801 -0.242118
 76 16.573921 -0.000001 -0.000002 -0.000000 -0.000000 -1.163030
 77 15.128181 0.000001 0.000001 0.089479 0.309197 0.659208
 78 5.758666 4.244730 -0.000001 -0.000000 -0.000000 1.815142
 79 4.003934 -0.000000 0.000001 0.000000 0.000000 0.000000
 80 15.708954 0.000001 0.000002 0.042277 0.226871 0.443133
 81 0.273998 0.191089 3.439762 -3.130907 -0.000437 -1.508107
 82 17.210194 -0.000001 -0.000002 0.000000 -0.000000 -1.937080
 83 -0.000000 -0.000001 5.000000 -0.079319 1.595025 -1.570742
time 2
  0 -0.650000 0.000000 33.899605 -0.025849 0.174554 -1.569172
  1 5.685104 0.833236 -32.227173 -0.174512 -0.026131 1.569196
  2 -2.276935 0.000003 -1.238188 -1.570795 -1.570451 0.000000
  3 1.797095 0.711797 0.000011 -0.004183 0.134897 -0.014467
  4 4.119829 -0.003044 0.000004 -0.001025 0.003663 0.382499
  5 4.118077 -0.003237 -0.000022 0.006702 -0.095562 -0.160780
  6 4.118365 -0.003269 0.000096 -0.029578 -0.122327 -0.068501
  7 4.117631 -0.001132 -0.003209 1.358394 0.381852 0.339283
  8 4.443599 -0.000000 0.000000 -0.064584 -0.166072 0.737691
  9 9.024063 -0.000002 0.000000 0.000000 0.000000 0.000000
 10 -0.645680 1.575326 0.338970 1.185608 -0.391558 1.878310
 11 6.384777 0.000001 0.000002 -1.138288 1.124525 -0.309774
 12 10.242682 0.000001 -0.000001 -0.000000 -0.000000 -2.198300
 13 11.375565 -0.000002 0.000003 2.580731 0.267244 -0.432377
 14 0.728679 0.023431 -1.008292 1.100073 0.611404 0.551668
 15 2.136495 0.000000 0.000000 0.000000 0.000000 -0.078540
 16 2.313137 -0.000001 0.000001 0.000000 0.000000 0.000000
 17 3.115506 -0.886041 -0.021433 -0.454479 0.000392 0.514872
 18 2.011153 0.000001 -0.000001 -0.000000 0.000000 1.322792
 19 2.141380 0.000002 -0.000001 0.000000 0.000000 0.000000
 20 1.734174 0.000001 -0.000001 -0.000000 -0.000000 0.660693
 21 0.000003 -4.440593 0.000002 1.570544 -0.062990 -0.195737
 22 6.000002 -0.000002 0.000001 2.916931 -0.000000 0.000000
 23 -0.000000 -4.440600 0.000000 1.569944 -0.062987 0.004053
 24 11.375564 -0.000001 0.000005 -2.601778 0.299574 -0.129101
 25 -0.000001 -4.440604 -0.000000 1.570144 -0.062988 0.004040
 26 10.510131 0.000001 -0.000001 0.000000 0.000000 -2.669946
 27 0.000000 -1.748401 5.000001 -0.000000 0.004007 1.602290
 28 5.500000 0.000001 -0.000001 0.302508 0.000000 0.000000
 29 -0.000002 -1.940598 5.000001 -0.044472 0.004003 -0.000180
 30 6.551491 -0.000000 -0.000001 -0.611454 0.824980 0.004557
 31 0.000001 -1.940598 4.999999 -0.027189 -0.053376 0.005295
 32 6.551491 -0.000000 -0.000001 -0.246209 0.361526 0.068375
 33 0.000001 -1.940599 4.999996 -0.066572 -0.152786 -0.110311
 34 0.645684 -1.568249 -0.338968 2.269864 0.597384 -0.652008
 35 6.384777 0.000000 0.000000 0.111056 0.094304 -1.161487
 36 10.242682 0.000000 0.000002 0.000000 -0.000000 -2.098947
 37 11.375560 -0.000001 0.000002 3.030189 0.341644 0.636168
 38 0.728681 0.023431 1.008290 -1.579583 -0.319038 0.212973
 39 2.136497 -0.000001 0.000001 -0.000000 -0.000000 1.282817
 40 2.313140 0.000001 -0.000000 0.000000 0.000000 3.141593
 41 3.115507 -0.886040 0.021432 0.420766 0.316066 0.167178
 42 2.011150 -0.000001 0.000002 -0.000000 0.000000 2.082010
 43 2.141380 -0.000001 0.000002 0.000000 0.000000 3.141593
 44 1.734172 -0.000001 0.000002 -0.000000 0.000000 1.041748
 45 0.136316 -3.738192 2.525892 1.493698 2.759406 -1.474501
 46 -2.193618 0.798257 4.032640 1.563844 0.186374 -0.074848
 47 11.389366 -0.000821 0.158784 2.258395 0.301666 0.245761
 48 -0.000000 -4.440600 0.000000 1.570144 -3.078602 0.004040
 49 5.999999 -0.000001 0.000001 2.258395 -0.000000 0.000000
 50 0.000000 -4.440600 -0.000000 1.569944 -3.078603 0.004053
 51 10.510132 0.000001 -0.000000 0.000000 0.000000 -2.620270
 52 -0.000001 -1.748399 -5.000003 -3.141593 0.004007 -1.539299
 53 5.500000 0.000000 0.000000 -0.052242 0.000000 0.000000
 54 0.000000 0.000000 -4.999998 -0.044472 3.137589 -0.000177
 55 6.551491 -0.000001 0.000001 0.052242 0.009023 -0.315022
 56 -1.266843 -1.937443 -4.950560 -0.066572 -2.988806 -0.110308
 57 6.551491 -0.000001 0.000001 0.052242 0.009023 -0.315022
 58 0.699371 -1.944208 -5.006848 -0.027189 -3.088217 0.005298
 59 4.226143 -0.003201 -0.000000 0.728085 0.289816 0.130512
 60 -0.000000 5.000000 -0.000001 -0.153564 0.000087 2.718701
 61 0.000004 -0.000004 -3.713580 0.365818 2.880119 -0.191589
 62 0.000002 -0.000000 5.000000 3.053196 1.558589 -0.074928
 63 -0.000007 0.000006 3.713580 -0.001619 -3.122277 -0.475127
 64 0.000002 -0.000001 -5.000000 -0.088726 1.558589 3.066334
 65 7.363602 1.646647 0.495663 3.141593 -1.570796 0.000000
 66 -0.000005 0.000007 3.619081 0.008255 -3.110080 -0.985231
 67 16.573919 0.000002 0.000000 0.000000 -0.000000 -1.065827
 68 15.128181 0.000000 -0.000000 -0.102296 0.010178 0.114297
 69 5.758665 4.244730 0.000000 0.000000 0.000000 1.667687
 70 3.177725 0.000000 -0.000000 0.000000 0.000000 3.141593
 71 15.708953 0.000001 0.000000 -0.051525 0.003996 0.061523
 72 0.275148 0.189215 -3.445207 3.130898 0.000409 -1.514604
 73 17.210192 0.000001 0.000000 0.000000 -0.000000 -1.893339
 74 0.000001 -0.000000 -5.000000 -0.079430 1.546568 -1.570855
 75 0.000002 -0.000003 -3.619081 0.577895 2.675801 -0.242118
 76 16.573921 -0.000001 -0.000002 -0.000000 -0.000000 -1.163030
 77 15.128181 0.000001 0.000001 0.089479 0.309197 0.659208
 78 5.758666 4.244730 -0.000001 -0.000000 -0.000000 1.815142
 79 4.003934 -0.000000 0.000001 0.000000 0.000000 0.000000
 80 15.708954 0.000001 0.000002 0.042277 0.226871 0.443133
 81 0.273998 0.191089 3.439762 -3.130907 -0.000437 -1.508107
 82 17.210194 -0.000001 -0.000002 0.000000 -0.000000 -1.937080
 83 -0.000000 -0.000001 5.000000 -0.079319 1.595025 -1.570742
time 3
  0 -0.650000 0.000000 33.899605 -0.025849 0.174554 -1.569172
  1 5.685104 0.833236 -32.227173 -0.174512 -0.026131 1.569196
  2 -2.276935 0.000003 -1.238188 -1.570795 -1.570451 0.000000
  3 1.797095 0.711797 0.000012 -0.004193 0.100067 -0.014321
  4 4.119828 -0.003043 0.000003 -0.001017 0.014112 0.382489
  5 4.118083 -0.003238 -0.000022 0.006706 -0.078148 -0.160663
  6 4.118370 -0.003269 0.000097 -0.029807 -0.111825 -0.066862
  7 4.117728 -0.001142 -0.003232 1.349510 0.358647 0.344776
  8 4.443599 0.000000 0.000001 -0.048230 -0.181115 0.697752
  9 9.024059 0.000001 -0.000001 0.000000 0.000000 0.000000
 10 -0.608199 1.586447 0.356111 1.182157 -0.401953 1.855879
 11 6.384776 0.000001 -0.000002 -1.269928 1.139892 -0.430913
 12 10.242682 -0.000000 -0.000002 0.000000 0.000000 -2.169843
 13 11.375562 -0.000003 -0.000001 2.592898 0.314948 -0.443865
 14 0.728679 0.023431 -1.008292 1.100073 0.611404 0.551668
 15 2.136494 -0.000001 0.000000 0.000000 0.000000 -0.078540
 16 2.313139 0.000001 0.000000 0.000000 0.000000 0.000000
 17 3.115506 -0.886040 -0.021431 -0.454479 0.000392 0.514872
 18 2.011149 0.000000 0.000003 0.000000 0.000000 1.322792
 19 2.141380 0.000000 -0.000001 0.000000 0.000000 0.000000
 20 1.734174 0.000002 0.000001 0.000000 -0.000000 0.660693
 21 0.000008 -4.440594 0.000001 1.570544 -0.062990 -0.195737
 22 5.999999 -0.000001 -0.000001 2.935999 0.000000 0.000000
 23 0.000001 -4.440600 -0.000001 1.569944 -0.062987 0.004053
 24 11.375561 -0.000001 0.000003 -2.586486 0.321630 -0.116807
 25 -0.000002 -4.440605 0.000001 1.570144 -0.062988 0.004040
 26 10.510129 -0.000000 -0.000002 -0.000000 0.000000 -2.655718
 27 -0.000000 -1.748402 4.999998 -0.000000 0.004007 1.602290
 28 5.499998 -0.000000 -0.000001 0.316771 -0.000000 -0.000000
 29 -0.000003 -1.940598 5.000000 -0.044472 0.004003 -0.000180
 30 6.551491 0.000000 -0.000002 -0.659990 0.847775 -0.037806
 31 0.000002 -1.940598 5.000001 -0.027189 -0.053376 0.005295
 32 6.551491 0.000000 -0.000002 -0.256277 0.369862 0.059103
 33 0.000000 -1.940599 4.999998 -0.066572 -0.152786 -0.110311
 34 0.608201 -1.579370 -0.356112 2.330432 0.638051 -0.606848
 35 6.384776 -0.000001 -0.000001 0.115900 0.080255 -1.109833
 36 10.242683 0.000001 0.000002 0.000000 -0.000000 -2.098947
 37 11.375560 -0.000002 -0.000001 3.030527 0.332971 0.637187
 38 0.728681 0.023431 1.008293 -1.579583 -0.319038 0.212973
 39 2.136496 0.000001 -0.000001 -0.000000 -0.000000 1.282817
 40 2.313137 0.000001 0.000001 0.000000 0.000000 3.141593
 41 3.115506 -0.886041 0.021430 0.420765 0.316066 0.167178
 42 2.011151 -0.000001 -0.000003 -0.000000 0.000000 2.082010
 43 2.141380 0.000000 0.000002 0.000000 0.000000 3.141593
 44 1.734172 -0.000001 -0.000001 -0.000000 0.000000 1.041748
 45 0.136314 -3.738192 2.525887 1.493698 2.759406 -1.474501
 46 -2.193618 0.798257 4.032638 1.563844 0.186374 -0.074848
 47 11.389365 -0.000821 0.158781 2.259932 0.297805 0.248492
 48 -0.000000 -4.440598 -0.000001 1.570144 -3.078602 0.004040
 49 5.999999 -0.000001 -0.000002 2.259932 -0.000000 0.000000
 50 0.000001 -4.440602 0.000002 1.569944 -3.078603 0.004053
 51 10.510131 0.000001 0.000001 0.000000 0.000000 -2.620270
 52 -0.000001 -1.748400 -5.000002 -3.141593 0.004007 -1.539299
 53 5.500000 0.000000 0.000001 -0.050599 -0.000000 0.000000
 54 -0.000000 -0.000000 -5.000000 -0.044472 3.137589 -0.000177
 55 6.551490 -0.000001 -0.000001 0.050599 0.005295 -0.306026
 56 -1.266843 -1.937443 -4.950561 -0.066572 -2.988806 -0.110308
 57 6.551491 -0.000002 -0.000001 0.050599 0.005295 -0.306026
 58 0.699371 -1.944208 -5.006846 -0.027189 -3.088217 0.005298
 59 4.226145 -0.003201 0.000000 0.725858 0.277396 0.139418
 60 0.000000 5.000001 -0.000001 -0.153564 0.000087 2.718702
 61 0.000004 -0.000004 -3.713580 0.365818 2.880119 -0.191589
 62 0.000002 -0.000000 5.000000 3.053196 1.558589 -0.074928
 63 -0.000007 0.000006 3.713580 -0.001619 -3.122277 -0.475127
 64 0.000002 -0.000001 -5.000000 -0.088726 1.558589 3.066334
 65 7.363602 1.646647 0.495663 3.141593 -1.570796 0.000000
 66 -0.000005 0.000007 3.619081 0.008255 -3.110080 -0.985231
 67 16.573919 0.000002 0.000000 0.000000 -0.000000 -1.065827
 68 15.128181 0.000000 -0.000000 -0.102296 0.010178 0.114297
 69 5.758665 4.244730 0.000000 0.000000 0.000000 1.667687
 70 3.177725 0.000000 -0.000000 0.000000 0.000000 3.141593
 71 15.708953 0.000001 0.000000 -0.051525 0.003996 0.061523
 72 0.275148 0.189215 -3.445207 3.130898 0.000409 -1.514604
 73 17.210192 0.000001 0.000000 0.000000 -0.000000 -1.893339
 74 0.000001 -0.000000 -5.000000 -0.079430 1.546568 -1.570855
 75 0.000002 -0.000003 -3.619081 0.577895 2.675801 -0.242118
 76 16.573921 -0.000001 -0.000002 -0.000000 -0.000000 -1.163030
 77 15.128181 0.000001 0.000001 0.089479 0.309197 0.659208
 78 5.758666 4.244730 -0.000001 -0.000000 -0.000000 1.815142
 79 4.003934 -0.000000 0.000001 0.000000 0.000000 0.000000
 80 15.708954 0.000001 0.000002 0.042277 0.226871 0.443133
 81 0.273998 0.191089 3.439762 -3.130907 -0.000437 -1.508107
 82 17.210194 -0.000001 -0.000002 0.000000 -0.000000 -1.937080
 83 -0.000000 -0.000001 5.000000 -0.079319 1.595025 -1.570742
time 4
  0 -0.650000 0.000000 33.899605 -0.025849 0.174554 -1.569172
  1 5.685104 0.833236 -32.227173 -0.174512 -0.026131 1.569196
  2 -2.276935 0.000003 -1.238188 -1.570795 -1.570451 0.000000
  3 1.797095 0.711797 0.000012 -0.004193 0.100067 -0.014321
  4 4.119828 -0.003043 0.000003 -0.001017 0.014112 0.382489
  5 4.118083 -0.003238 -0.000022 0.006706 -0.078148 -0.160663
  6 4.118370 -0.003269 0.000097 -0.029807 -0.111825 -0.066862
  7 4.117817 -0.001149 -0.003253 1.340565 0.335489 0.350442
  8 4.443597 0.000000 -0.000001 -0.035932 -0.188742 0.652444
  9 9.024059 -0.000000 -0.000000 0.000000 0.000000 0.000000
 10 -0.570466 1.596486 0.373369 1.178947 -0.412417 1.833387
 11 6.384776 0.000001 -0.000002 -1.404486 1.131629 -0.568319
 12 10.242682 0.000001 -0.000002 -0.000000 -0.000000 -2.128535
 13 11.375560 -0.000001 0.000001 2.609719 0.361727 -0.452026
 14 0.728682 0.023433 -1.008293 1.100073 0.611404 0.551668
 15 2.136496 -0.000001 -0.000000 0.000000 0.000000 -0.078540
 16 2.313139 -0.000000 0.000000 0.000000 0.000000 0.000000
 17 3.115505 -0.886042 -0.021432 -0.454479 0.000392 0.514872
 18 2.011153 0.000001 0.000000 0.000000 0.000000 1.322792
 19 2.141379 0.000003 0.000001 0.000000 0.000000 0.000000
 20 1.734172 0.000000 0.000001 -0.000000 -0.000000 0.660693
 21 0.000004 -4.440593 -0.000000 1.570544 -0.062990 -0.195737
 22 6.000000 -0.000002 0.000001 2.960827 -0.000000 0.000000
 23 0.000004 -4.440599 -0.000000 1.569944 -0.062987 0.004053
 24 11.375561 -0.000000 0.000002 -2.568647 0.341155 -0.103991
 25 -0.000002 -4.440603 -0.000000 1.570144 -0.062988 0.004040
 26 10.510128 -0.000000 -0.000001 -0.000000 0.000000 -2.635064
 27 -0.000000 -1.748401 4.999999 -0.000000 0.004007 1.602290
 28 5.500000 0.000000 -0.000001 0.334058 0.000000 0.000000
 29 -0.000001 -1.940598 5.000001 -0.044472 0.004003 -0.000180
 30 6.551491 0.000000 -0.000002 -0.718518 0.860761 -0.094931
 31 0.000002 -1.940598 5.000000 -0.027189 -0.053376 0.005295
 32 6.551491 0.000000 -0.000002 -0.268505 0.375554 0.045143
 33 -0.000000 -1.940599 4.999996 -0.066572 -0.152786 -0.110311
 34 0.570467 -1.589410 -0.373372 2.397142 0.674826 -0.556681
 35 6.384777 0.000000 -0.000001 0.122607 0.060389 -1.049986
 36 10.242682 -0.000000 0.000003 0.000000 -0.000000 -2.098947
 37 11.375559 -0.000001 -0.000001 3.030854 0.324297 0.638201
 38 0.728680 0.023432 1.008293 -1.579583 -0.319038 0.212973
 39 2.136494 0.000004 -0.000000 0.000000 0.000000 1.282817
 40 2.313137 -0.000001 0.000000 0.000000 0.000000 3.141593
 41 3.115507 -0.886041 0.021431 0.420766 0.316066 0.167178
 42 2.011149 -0.000000 0.000000 -0.000000 -0.000000 2.082010
 43 2.141380 -0.000001 0.000000 0.000000 0.000000 3.141593
 44 1.734172 -0.000001 0.000002 -0.000000 0.000000 1.041748
 45 0.136315 -3.738192 2.525889 1.493698 2.759406 -1.474501
 46 -2.193618 0.798257 4.032640 1.563844 0.186374 -0.074848
 47 11.389365 -0.000821 0.158781 2.261446 0.293930 0.251213
 48 -0.000000 -4.440600 0.000001 1.570144 -3.078602 0.004040
 49 5.999998 -0.000001 -0.000002 2.261446 -0.000000 -0.000000
 50 -0.000000 -4.440604 0.000001 1.569944 -3.078603 0.004053
 51 10.510132 0.000001 0.000001 0.000000 0.000000 -2.620270
 52 -0.000001 -1.748399 -5.000002 -3.141593 0.004007 -1.539299
 53 5.500000 -0.000000 0.000001 -0.049146 -0.000000 0.000000
 54 -0.000001 0.000001 -5.000000 -0.044472 3.137589 -0.000177
 55 6.551491 -0.000000 -0.000002 0.049146 -0.000286 -0.296641
 56 -1.266843 -1.937444 -4.950559 -0.066572 -2.988806 -0.110308
 57 6.551491 0.000000 -0.000002 0.049146 -0.000286 -0.296641
 58 0.699371 -1.944208 -5.006845 -0.027189 -3.088217 0.005298
 59 4.226145 -0.003201 0.000000 0.723455 0.264928 0.148301
 60 -0.000001 5.000001 -0.000002 -0.153564 0.000087 2.718702
 61 0.000004 -0.000004 -3.713580 0.365818 2.880119 -0.191589
 62 0.000002 -0.000000 5.000000 3.053196 1.558589 -0.074928
 63 -0.000007 0.000006 3.713580 -0.001619 -3.122277 -0.475127
 64 0.000002 -0.000001 -5.000000 -0.088726 1.558589 3.066334
 65 7.363602 1.646647 0.495663 3.141593 -1.570796 0.000000
 66 -0.000005 0.000007 3.619081 0.008255 -3.110080 -0.985231
 67 16.573919 0.000002 0.000000 0.000000 -0.000000 -1.065827
 68 15.128181 0.000000 -0.000000 -0.102296 0.010178 0.114297
 69 5.758665 4.244730 0.000000 0.000000 0.000000 1.667687
 70 3.177725 0.000000 -0.000000 0.000000 0.000000 3.141593
 71 15.708953 0.000001 0.000000 -0.051525 0.003996 0.061523
 72 0.275148 0.189215 -3.445207 3.130898 0.000409 -1.514604
 73 17.210192 0.000001 0.000000 0.000000 -0.000000 -1.893339
 74 0.000001 -0.000000 -5.000000 -0.079430 1.546568 -1.570855
 75 0.000002 -0.000003 -3.619081 0.577895 2.675801 -0.242118
 76 16.573921 -0.000001 -0.000002 -0.000000 -0.000000 -1.163030
 77 15.128181 0.000001 0.000001 0.089479 0.309197 0.659208
 78 5.758666 4.244730 -0.000001 -0.000000 -0.000000 1.815142
 79 4.003934 -0.000000 0.000001 0.000000 0.000000 0.000000
 80 15.708954 0.000001 0.000002 0.042277 0.226871 0.443133
 81 0.273998 0.191089 3.439762 -3.130907 -0.000437 -1.508107
 82 17.210194 -0.000001 -0.000002 0.000000 -0.000000 -1.937080
 83 -0.000000 -0.000001 5.000000 -0.079319 1.595025 -1.570742
end
