version 1
nodes
  0 "Bip01"  -1
  1 "Bip01 Footsteps"   0
  2 "Bip01 Pelvis"   0
  3 "Bip01 Spine"   2
  4 "Bip01 Spine1"   3
  5 "Bip01 Spine2"   4
  6 "Bip01 Spine3"   5
  7 "Bip01 Neck"   6
  8 "Bip01 Head"   7
  9 "Dummy21"   8
 10 "Bip01 L Clavicle"   7
 11 "Bip01 L UpperArm"  10
 12 "Bip01 L Forearm"  11
 13 "Bip01 L Hand"  12
 14 "Bip01 L Finger0"  13
 15 "Bip01 L Finger01"  14
 16 "Dummy06"  15
 17 "Bip01 L Finger1"  13
 18 "Bip01 L Finger11"  17
 19 "Dummy03"  18
 20 "-- L knuckle"  17
 21 "-- L knuckle_end"  20
 22 "-- L Forearm twist"  12
 23 "-- L Forearm twist_end"  22
 24 "-- L wrist"  12
 25 "-- L wrist_end"  24
 26 "-- L Elbow"  11
 27 "--L Elbow_end"  26
 28 "-- L bicep twist"  11
 29 "-- L bicep twist_end"  28
 30 "-- L shoulder outside"  10
 31 "-- L shoulder outside_end"  30
 32 "-- L Shoulder inside"  10
 33 "-- L Shoulder inside_end"  32
 34 "Bip01 R Clavicle"   7
 35 "Bip01 R UpperArm"  34
 36 "Bip01 R Forearm"  35
 37 "Bip01 R Hand"  36
 38 "Bip01 R Finger0"  37
 39 "Bip01 R Finger01"  38
 40 "Dummy01"  39
 41 "Bip01 R Finger1"  37
 42 "Bip01 R Finger11"  41
 43 "Dummy02"  42
 44 "-- R knuckle"  41
 45 "Point06"  44
 46 "Line06"  37
 47 "-- R wrist"  36
 48 "-- R wrist_end"  47
 49 "-- R forearm twist"  36
 50 "-- R forearm twist_end"  49
 51 "-- R Elbow"  35
 52 "--R Elbow_end"  51
 53 "-- R bicep twist"  35
 54 "-- R bicep twist_end"  53
 55 "-- R Shoulder inside"  34
 56 "-- R Shoulder inside_end"  55
 57 "-- R shoulder outside"  34
 58 "-- R shoulder outside_end"  57
 59 "-- Neck smooth"   6
 60 "-- neck smooth end"  59
 61 "-- R Butt"   2
 62 "--R Butt_end"  61
 63 "-- L butt"   2
 64 "--L butt_end"  63
 65 "GIGN01"   2
 66 "Bip01 L Thigh"   2
 67 "Bip01 L Calf"  66
 68 "Bip01 L Foot"  67
 69 "Bip01 L Toe0"  68
 70 "Dummy16"  69
 71 "-- L ankle"  67
 72 "-- L ankleend"  71
 73 "-- L Knee"  66
 74 "--L Knee_end"  73
 75 "Bip01 R Thigh"   2
 76 "Bip01 R Calf"  75
 77 "Bip01 R Foot"  76
 78 "Bip01 R Toe0"  77
 79 "Dummy11"  78
 80 "-- R Ankle"  76
 81 "-- R ankleend"  80
 82 "-- R Knee"  75
 83 "--R Knee_end"  82
end
skeleton
time 0
  0 -0.650000 0.000000 33.899605 -0.025849 0.174554 -1.569172
  1 5.685104 0.833236 -32.227173 -0.174512 -0.026131 1.569196
  2 -2.276935 0.000003 -1.238188 -1.570795 -1.570451 0.000000
  3 1.797322 0.711806 0.000183 -0.058404 0.268333 0.039532
  4 4.119878 -0.003017 0.000161 -0.049261 -0.015082 0.400977
  5 4.118135 -0.003244 0.000148 -0.047461 -0.303394 -0.128909
  6 4.118517 -0.003277 0.000108 -0.036386 -0.432500 -0.010661
  7 4.117245 -0.001652 -0.002820 1.093058 0.457498 0.017127
  8 4.443598 -0.000001 0.000000 -0.074455 -0.295789 1.237063
  9 9.024060 -0.000002 -0.000001 0.000000 0.000000 0.000000
 10 -0.765353 1.384015 0.714731 1.404518 -0.600685 1.944471
 11 6.384777 -0.000001 -0.000002 0.383011 1.079770 0.715751
 12 10.242682 -0.000002 -0.000002 -0.000000 0.000000 -2.298475
 13 11.375561 -0.000002 0.000000 2.413173 0.055919 -0.038533
 14 0.728681 0.023430 -1.008293 1.100073 0.611404 0.551668
 15 2.136497 0.000003 0.000001 0.000000 0.000000 -0.078540
 16 2.313139 0.000000 -0.000001 0.000000 0.000000 0.000000
 17 3.115507 -0.886039 -0.021431 -0.454479 0.000392 0.514872
 18 2.011152 0.000000 0.000003 0.000000 0.000000 1.322792
 19 2.141379 0.000002 -0.000001 0.000000 0.000000 0.000000
 20 1.734172 0.000001 0.000002 0.000000 -0.000000 0.660693
 21 0.000007 -4.440594 0.000002 1.570544 -0.062990 -0.195737
 22 6.000000 -0.000000 -0.000000 2.722649 -0.000000 0.000000
 23 0.000001 -4.440603 -0.000000 1.569944 -0.062987 0.004053
 24 11.375562 -0.000001 0.000003 -2.719125 0.051882 0.006368
 25 -0.000001 -4.440602 -0.000000 1.570144 -0.062988 0.004040
 26 10.510131 -0.000002 -0.000002 0.000000 0.000000 -2.720034
 27 -0.000001 -1.748400 4.999999 -0.000000 0.004007 1.602291
 28 5.500000 -0.000002 -0.000001 0.025328 -0.000000 0.000000
 29 -0.000002 -1.940597 5.000000 -0.044472 0.004003 -0.000180
 30 6.551492 0.000000 -0.000000 0.029802 0.710676 0.414653
 31 0.000001 -1.940599 5.000000 -0.027189 -0.053376 0.005295
 32 6.551492 0.000000 -0.000000 -0.027279 0.332000 0.176692
 33 -0.000000 -1.940598 4.999994 -0.066572 -0.152786 -0.110311
 34 0.765351 -1.376939 -0.714733 2.447675 0.870344 -0.263798
 35 6.384776 0.000001 -0.000003 -0.097094 0.202911 -0.870588
 36 10.242682 0.000002 -0.000000 -0.000000 0.000000 -2.486580
 37 11.375559 -0.000001 -0.000001 3.052727 0.194929 1.070477
 38 0.728682 0.023431 1.008291 -1.579583 -0.319038 0.212973
 39 2.136497 -0.000000 -0.000000 0.000000 -0.000000 1.282817
 40 2.313140 -0.000000 0.000000 0.000000 0.000000 3.141593
 41 3.115508 -0.886041 0.021429 0.420766 0.316066 0.167178
 42 2.011149 0.000001 0.000001 -0.000000 0.000000 2.082010
 43 2.141379 -0.000002 -0.000001 0.000000 0.000000 3.141593
 44 1.734173 -0.000001 0.000000 0.000000 0.000000 1.041748
 45 0.136314 -3.738190 2.525890 1.493698 2.759406 -1.474501
 46 -2.193618 0.798257 4.032641 1.563844 0.186374 -0.074848
 47 11.389365 -0.000819 0.158782 2.275313 0.301908 0.474218
 48 0.000000 -4.440599 0.000001 1.570144 -3.078602 0.004040
 49 5.999998 -0.000000 -0.000001 2.275313 -0.000000 0.000000
 50 0.000003 -4.440601 -0.000001 1.569944 -3.078603 0.004053
 51 10.510132 0.000001 0.000001 -0.000000 0.000000 -2.814086
 52 -0.000000 -1.748401 -5.000002 -3.141593 0.004007 -1.539299
 53 5.500001 0.000001 -0.000000 0.013773 -0.000000 0.000000
 54 0.000000 0.000001 -5.000000 -0.044472 3.137589 -0.000177
 55 6.551489 -0.000000 -0.000001 -0.013773 0.078164 -0.269169
 56 -1.266842 -1.937444 -4.950559 -0.066572 -2.988806 -0.110308
 57 6.551490 -0.000001 -0.000001 -0.013773 0.078164 -0.269169
 58 0.699371 -1.944209 -5.006846 -0.027189 -3.088217 0.005298
 59 4.226146 -0.003202 -0.000000 0.585861 0.272497 -0.058546
 60 -0.000002 5.000000 -0.000000 -0.153565 0.000087 2.718702
 61 0.000004 -0.000004 -3.713580 0.365818 2.880119 -0.191589
 62 0.000002 -0.000000 5.000000 3.053196 1.558589 -0.074928
 63 -0.000007 0.000006 3.713580 -0.001619 -3.122277 -0.475127
 64 0.000002 -0.000001 -5.000000 -0.088726 1.558589 3.066334
 65 7.363602 1.646647 0.495663 3.141593 -1.570796 0.000000
 66 -0.000005 0.000007 3.619081 0.008255 -3.110080 -0.985231
 67 16.573919 0.000002 0.000000 0.000000 -0.000000 -1.065827
 68 15.128181 0.000000 -0.000000 -0.102296 0.010178 0.114297
 69 5.758665 4.244730 0.000000 0.000000 0.000000 1.667687
 70 3.177725 0.000000 -0.000000 0.000000 0.000000 3.141593
 71 15.708953 0.000001 0.000000 -0.051525 0.003996 0.061523
 72 0.275148 0.189215 -3.445207 3.130898 0.000409 -1.514604
 73 17.210192 0.000001 0.000000 0.000000 -0.000000 -1.893339
 74 0.000001 -0.000000 -5.000000 -0.079430 1.546568 -1.570855
 75 0.000002 -0.000003 -3.619081 0.577895 2.675801 -0.242118
 76 16.573921 -0.000001 -0.000002 -0.000000 -0.000000 -1.163030
 77 15.128181 0.000001 0.000001 0.089479 0.309197 0.659208
 78 5.758666 4.244730 -0.000001 -0.000000 -0.000000 1.815142
 79 4.003934 -0.000000 0.000001 0.000000 0.000000 0.000000
 80 15.708954 0.000001 0.000002 0.042277 0.226871 0.443133
 81 0.273998 0.191089 3.439762 -3.130907 -0.000437 -1.508107
 82 17.210194 -0.000001 -0.000002 0.000000 -0.000000 -1.937080
 83 -0.000000 -0.000001 5.000000 -0.079319 1.595025 -1.570742
time 1
  0 -0.650000 0.000000 33.899605 -0.025849 0.174554 -1.569172
  1 5.685104 0.833236 -32.227173 -0.174512 -0.026131 1.569196
  2 -2.276935 0.000003 -1.238188 -1.570795 -1.570451 0.000000
  3 1.797322 0.711806 0.000165 -0.052920 0.279774 0.040716
  4 4.119881 -0.003018 0.000145 -0.044246 -0.020709 0.401083
  5 4.118134 -0.003242 0.000130 -0.041922 -0.311789 -0.130216
  6 4.118521 -0.003278 0.000086 -0.029474 -0.451207 -0.012561
  7 4.117354 -0.001647 -0.002872 1.100603 0.426524 0.034902
  8 4.443601 -0.000001 -0.000000 -0.065875 -0.269057 1.164909
  9 9.024060 0.000001 -0.000000 0.000000 0.000000 0.000000
 10 -0.716837 1.409833 0.714698 1.404312 -0.600685 1.909696
 11 6.384776 -0.000001 -0.000002 0.227425 1.062214 0.551213
 12 10.242682 -0.000002 -0.000001 0.000000 0.000000 -2.257387
 13 11.375561 -0.000004 -0.000000 2.384241 0.060405 -0.013383
 14 0.728681 0.023429 -1.008293 1.100073 0.611404 0.551668
 15 2.136496 -0.000003 0.000001 -0.000000 0.000000 -0.078540
 16 2.313138 0.000003 -0.000001 0.000000 0.000000 0.000000
 17 3.115507 -0.886040 -0.021430 -0.454479 0.000392 0.514872
 18 2.011152 0.000002 0.000000 0.000000 0.000000 1.322792
 19 2.141379 0.000000 0.000001 0.000000 0.000000 0.000000
 20 1.734173 0.000002 0.000001 -0.000000 0.000000 0.660693
 21 0.000006 -4.440594 -0.000001 1.570544 -0.062990 -0.195737
 22 6.000000 0.000000 -0.000002 2.688969 0.000000 -0.000000
 23 0.000001 -4.440600 0.000000 1.569944 -0.062987 0.004053
 24 11.375562 -0.000003 0.000002 -2.733632 0.041617 0.024290
 25 -0.000001 -4.440603 -0.000001 1.570144 -0.062988 0.004040
 26 10.510129 -0.000001 -0.000001 -0.000000 -0.000000 -2.699490
 27 0.000001 -1.748403 5.000000 -0.000000 0.004007 1.602290
 28 5.499997 0.000001 0.000000 0.043386 0.000000 -0.000000
 29 -0.000002 -1.940597 5.000000 -0.044472 0.004003 -0.000180
 30 6.551490 0.000000 0.000000 -0.017318 0.689658 0.358767
 31 -0.000000 -1.940599 5.000002 -0.027189 -0.053376 0.005295
 32 6.551490 0.000000 0.000000 -0.041280 0.322842 0.158861
 33 -0.000001 -1.940599 4.999997 -0.066572 -0.152786 -0.110311
 34 0.716846 -1.402757 -0.714697 2.482625 0.907126 -0.269842
 35 6.384777 0.000002 -0.000002 -0.090441 0.187427 -0.819265
 36 10.242681 0.000001 -0.000002 -0.000000 0.000000 -2.476957
 37 11.375558 0.000002 0.000003 3.050326 0.180534 1.056182
 38 0.728681 0.023431 1.008294 -1.579583 -0.319038 0.212973
 39 2.136497 -0.000003 -0.000000 -0.000000 0.000000 1.282817
 40 2.313139 -0.000000 0.000000 0.000000 0.000000 3.141593
 41 3.115506 -0.886041 0.021433 0.420766 0.316066 0.167178
 42 2.011152 -0.000001 -0.000001 -0.000000 0.000000 2.082010
 43 2.141382 0.000000 0.000002 0.000000 0.000000 3.141593
 44 1.734170 -0.000001 0.000001 -0.000000 -0.000000 1.041748
 45 0.136314 -3.738191 2.525890 1.493698 2.759406 -1.474501
 46 -2.193618 0.798257 4.032642 1.563844 0.186374 -0.074848
 47 11.389365 -0.000819 0.158783 2.277467 0.292404 0.471221
 48 -0.000000 -4.440600 0.000002 1.570144 -3.078602 0.004040
 49 5.999998 0.000001 0.000000 2.277467 -0.000000 0.000000
 50 0.000002 -4.440601 -0.000002 1.569944 -3.078603 0.004053
 51 10.510133 -0.000002 0.000002 -0.000000 0.000000 -2.809275
 52 0.000001 -1.748399 -5.000000 3.141593 0.004007 -1.539299
 53 5.500000 -0.000002 0.000001 0.014465 -0.000000 0.000000
 54 0.000000 0.000004 -5.000001 -0.044472 3.137589 -0.000177
 55 6.551492 -0.000000 0.000001 -0.014465 0.072270 -0.262910
 56 -1.266843 -1.937444 -4.950560 -0.066572 -2.988806 -0.110308
 57 6.551492 -0.000000 0.000001 -0.014465 0.072270 -0.262910
 58 0.699371 -1.944209 -5.006846 -0.027189 -3.088217 0.005298
 59 4.226146 -0.003200 -0.000000 0.591679 0.258077 -0.043623
 60 0.000000 5.000001 -0.000001 -0.153564 0.000087 2.718702
 61 0.000004 -0.000004 -3.713580 0.365818 2.880119 -0.191589
 62 0.000002 -0.000000 5.000000 3.053196 1.558589 -0.074928
 63 -0.000007 0.000006 3.713580 -0.001619 -3.122277 -0.475127
 64 0.000002 -0.000001 -5.000000 -0.088726 1.558589 3.066334
 65 7.363602 1.646647 0.495663 3.141593 -1.570796 0.000000
 66 -0.000005 0.000007 3.619081 0.008255 -3.110080 -0.985231
 67 16.573919 0.000002 0.000000 0.000000 -0.000000 -1.065827
 68 15.128181 0.000000 -0.000000 -0.102296 0.010178 0.114297
 69 5.758665 4.244730 0.000000 0.000000 0.000000 1.667687
 70 3.177725 0.000000 -0.000000 0.000000 0.000000 3.141593
 71 15.708953 0.000001 0.000000 -0.051525 0.003996 0.061523
 72 0.275148 0.189215 -3.445207 3.130898 0.000409 -1.514604
 73 17.210192 0.000001 0.000000 0.000000 -0.000000 -1.893339
 74 0.000001 -0.000000 -5.000000 -0.079430 1.546568 -1.570855
 75 0.000002 -0.000003 -3.619081 0.577895 2.675801 -0.242118
 76 16.573921 -0.000001 -0.000002 -0.000000 -0.000000 -1.163030
 77 15.128181 0.000001 0.000001 0.089479 0.309197 0.659208
 78 5.758666 4.244730 -0.000001 -0.000000 -0.000000 1.815142
 79 4.003934 -0.000000 0.000001 0.000000 0.000000 0.000000
 80 15.708954 0.000001 0.000002 0.042277 0.226871 0.443133
 81 0.273998 0.191089 3.439762 -3.130907 -0.000437 -1.508107
 82 17.210194 -0.000001 -0.000002 0.000000 -0.000000 -1.937080
 83 -0.000000 -0.000001 5.000000 -0.079319 1.595025 -1.570742
time 2
  0 -0.650000 0.000000 33.899605 -0.025849 0.174554 -1.569172
  1 5.685104 0.833236 -32.227173 -0.174512 -0.026131 1.569196
  2 -2.276935 0.000003 -1.238188 -1.570795 -1.570451 0.000000
  3 1.797325 0.711805 0.000147 -0.047404 0.291207 0.041970
  4 4.119881 -0.003018 0.000128 -0.039231 -0.026336 0.401160
  5 4.118135 -0.003243 0.000113 -0.036356 -0.320177 -0.131576
  6 4.118523 -0.003279 0.000065 -0.022458 -0.469902 -0.014623
  7 4.117466 -0.001642 -0.002920 1.107455 0.395433 0.052183
  8 4.443601 -0.000001 -0.000000 -0.058363 -0.242003 1.093367
  9 9.024060 0.000001 0.000000 0.000000 0.000000 0.000000
 10 -0.667454 1.433949 0.714664 1.404111 -0.600686 1.874916
 11 6.384776 0.000001 0.000001 0.092359 1.034264 0.407402
 12 10.242682 -0.000001 -0.000001 -0.000000 -0.000000 -2.214398
 13 11.375561 -0.000001 -0.000001 2.356037 0.067635 0.005981
 14 0.728682 0.023430 -1.008292 1.100073 0.611404 0.551668
 15 2.136497 0.000001 0.000001 0.000000 -0.000000 -0.078540
 16 2.313139 0.000001 -0.000000 0.000000 0.000000 0.000000
 17 3.115507 -0.886043 -0.021432 -0.454479 0.000392 0.514872
 18 2.011152 0.000002 0.000003 0.000000 0.000000 1.322792
 19 2.141379 0.000000 -0.000002 0.000000 0.000000 0.000000
 20 1.734173 0.000002 0.000001 0.000000 0.000000 0.660693
 21 0.000008 -4.440595 -0.000001 1.570544 -0.062990 -0.195737
 22 6.000000 0.000000 -0.000001 2.655694 0.000000 -0.000000
 23 0.000002 -4.440604 -0.000001 1.569944 -0.062987 0.004053
 24 11.375562 -0.000000 0.000002 -2.747634 0.035213 0.040489
 25 -0.000001 -4.440605 0.000001 1.570144 -0.062988 0.004040
 26 10.510130 -0.000000 -0.000000 0.000000 -0.000000 -2.677995
 27 -0.000000 -1.748399 4.999998 -0.000000 0.004007 1.602291
 28 5.500001 -0.000001 -0.000001 0.060632 0.000000 -0.000000
 29 -0.000000 -1.940598 5.000000 -0.044472 0.004003 -0.000180
 30 6.551492 -0.000000 -0.000001 -0.060417 0.670793 0.306668
 31 -0.000001 -1.940598 5.000002 -0.027189 -0.053376 0.005295
 32 6.551492 -0.000000 -0.000001 -0.054774 0.314705 0.141179
 33 -0.000001 -1.940598 4.999996 -0.066572 -0.152786 -0.110311
 34 0.667463 -1.426875 -0.714663 2.520663 0.943350 -0.272012
 35 6.384777 0.000001 -0.000001 -0.083189 0.173406 -0.767626
 36 10.242681 0.000000 -0.000001 0.000000 0.000000 -2.467333
 37 11.375562 0.000002 0.000002 3.048140 0.166106 1.041959
 38 0.728680 0.023430 1.008292 -1.579583 -0.319038 0.212973
 39 2.136497 0.000001 0.000000 -0.000000 -0.000000 1.282817
 40 2.313138 0.000000 0.000000 0.000000 0.000000 3.141593
 41 3.115506 -0.886041 0.021432 0.420765 0.316066 0.167178
 42 2.011150 -0.000000 0.000001 0.000000 0.000000 2.082010
 43 2.141379 -0.000000 -0.000002 0.000000 0.000000 3.141593
 44 1.734171 -0.000001 0.000001 -0.000000 -0.000000 1.041748
 45 0.136314 -3.738191 2.525891 1.493698 2.759406 -1.474501
 46 -2.193619 0.798256 4.032640 1.563844 0.186374 -0.074848
 47 11.389367 -0.000818 0.158783 2.279609 0.282926 0.468250
 48 0.000002 -4.440599 -0.000001 1.570144 -3.078602 0.004040
 49 6.000001 0.000002 0.000001 2.279609 -0.000000 -0.000000
 50 0.000002 -4.440601 0.000002 1.569944 -3.078603 0.004053
 51 10.510132 -0.000001 0.000001 -0.000000 0.000000 -2.804463
 52 -0.000000 -1.748399 -5.000001 3.141593 0.004007 -1.539299
 53 5.499999 -0.000000 -0.000000 0.014688 0.000000 -0.000000
 54 -0.000001 0.000002 -5.000000 -0.044472 3.137589 -0.000177
 55 6.551490 0.000000 0.000000 -0.014688 0.066982 -0.256588
 56 -1.266843 -1.937444 -4.950560 -0.066572 -2.988806 -0.110308
 57 6.551491 -0.000000 0.000000 -0.014688 0.066982 -0.256588
 58 0.699371 -1.944208 -5.006848 -0.027189 -3.088217 0.005298
 59 4.226145 -0.003201 -0.000000 0.597180 0.243410 -0.028692
 60 0.000003 4.999999 0.000000 -0.153564 0.000087 2.718702
 61 0.000004 -0.000004 -3.713580 0.365818 2.880119 -0.191589
 62 0.000002 -0.000000 5.000000 3.053196 1.558589 -0.074928
 63 -0.000007 0.000006 3.713580 -0.001619 -3.122277 -0.475127
 64 0.000002 -0.000001 -5.000000 -0.088726 1.558589 3.066334
 65 7.363602 1.646647 0.495663 3.141593 -1.570796 0.000000
 66 -0.000005 0.000007 3.619081 0.008255 -3.110080 -0.985231
 67 16.573919 0.000002 0.000000 0.000000 -0.000000 -1.065827
 68 15.128181 0.000000 -0.000000 -0.102296 0.010178 0.114297
 69 5.758665 4.244730 0.000000 0.000000 0.000000 1.667687
 70 3.177725 0.000000 -0.000000 0.000000 0.000000 3.141593
 71 15.708953 0.000001 0.000000 -0.051525 0.003996 0.061523
 72 0.275148 0.189215 -3.445207 3.130898 0.000409 -1.514604
 73 17.210192 0.000001 0.000000 0.000000 -0.000000 -1.893339
 74 0.000001 -0.000000 -5.000000 -0.079430 1.546568 -1.570855
 75 0.000002 -0.000003 -3.619081 0.577895 2.675801 -0.242118
 76 16.573921 -0.000001 -0.000002 -0.000000 -0.000000 -1.163030
 77 15.128181 0.000001 0.000001 0.089479 0.309197 0.659208
 78 5.758666 4.244730 -0.000001 -0.000000 -0.000000 1.815142
 79 4.003934 -0.000000 0.000001 0.000000 0.000000 0.000000
 80 15.708954 0.000001 0.000002 0.042277 0.226871 0.443133
 81 0.273998 0.191089 3.439762 -3.130907 -0.000437 -1.508107
 82 17.210194 -0.000001 -0.000002 0.000000 -0.000000 -1.937080
 83 -0.000000 -0.000001 5.000000 -0.079319 1.595025 -1.570742
time 3
  0 -0.650000 0.000000 33.899605 -0.025849 0.174554 -1.569172
  1 5.685104 0.833236 -32.227173 -0.174512 -0.026131 1.569196
  2 -2.276935 0.000003 -1.238188 -1.570795 -1.570451 0.000000
  3 1.797320 0.711805 0.000129 -0.041853 0.302634 0.043293
  4 4.119885 -0.003020 0.000113 -0.034215 -0.031963 0.401209
  5 4.118135 -0.003244 0.000095 -0.030762 -0.328558 -0.132989
  6 4.118523 -0.003278 0.000044 -0.015329 -0.488583 -0.016855
  7 4.117582 -0.001637 -0.002967 1.113652 0.364237 0.069022
  8 4.443597 0.000000 -0.000001 -0.051895 -0.214662 1.022385
  9 9.024061 -0.000001 0.000000 0.000000 0.000000 0.000000
 10 -0.617258 1.456334 0.714631 1.403914 -0.600687 1.840132
 11 6.384777 -0.000000 -0.000002 -0.021290 0.998724 0.284932
 12 10.242684 -0.000002 -0.000000 -0.000000 0.000000 -2.169725
 13 11.375561 -0.000002 0.000000 2.328735 0.077041 0.019993
 14 0.728681 0.023428 -1.008293 1.100072 0.611404 0.551668
 15 2.136497 -0.000005 0.000002 0.000000 0.000000 -0.078540
 16 2.313139 0.000003 -0.000001 0.000000 0.000000 0.000000
 17 3.115507 -0.886043 -0.021431 -0.454479 0.000392 0.514872
 18 2.011152 0.000002 0.000000 0.000000 -0.000000 1.322791
 19 2.141380 0.000001 0.000000 0.000000 0.000000 0.000000
 20 1.734171 0.000000 -0.000002 0.000000 -0.000000 0.660693
 21 0.000007 -4.440593 0.000000 1.570544 -0.062990 -0.195737
 22 6.000000 0.000001 -0.000000 2.623108 0.000000 -0.000000
 23 0.000001 -4.440602 -0.000001 1.569944 -0.062987 0.004053
 24 11.375562 -0.000001 0.000003 -2.761035 0.032417 0.055032
 25 -0.000001 -4.440604 -0.000000 1.570144 -0.062988 0.004040
 26 10.510134 -0.000002 -0.000001 -0.000000 0.000000 -2.655659
 27 0.000000 -1.748400 5.000000 -0.000000 0.004007 1.602290
 28 5.500002 -0.000001 -0.000000 0.077177 0.000000 -0.000000
 29 -0.000001 -1.940598 5.000000 -0.044472 0.004003 -0.000180
 30 6.551491 0.000001 -0.000002 -0.100527 0.653096 0.256681
 31 -0.000000 -1.940598 5.000002 -0.027189 -0.053376 0.005295
 32 6.551491 0.000001 -0.000002 -0.067797 0.307208 0.123321
 33 0.000001 -1.940599 4.999996 -0.066572 -0.152786 -0.110311
 34 0.617256 -1.449256 -0.714634 2.562374 0.978879 -0.269736
 35 6.384775 0.000001 -0.000002 -0.075211 0.160791 -0.715721
 36 10.242682 0.000000 0.000001 0.000000 -0.000000 -2.457710
 37 11.375559 -0.000003 -0.000000 3.046166 0.151649 1.027800
 38 0.728680 0.023431 1.008294 -1.579583 -0.319038 0.212973
 39 2.136497 -0.000002 -0.000000 -0.000000 -0.000000 1.282817
 40 2.313142 0.000000 -0.000001 0.000000 0.000000 3.141593
 41 3.115507 -0.886042 0.021431 0.420765 0.316066 0.167178
 42 2.011150 0.000000 -0.000001 0.000000 -0.000000 2.082010
 43 2.141377 -0.000000 -0.000001 0.000000 0.000000 3.141593
 44 1.734172 -0.000001 -0.000001 0.000000 0.000000 1.041748
 45 0.136315 -3.738194 2.525888 1.493698 2.759406 -1.474501
 46 -2.193620 0.798257 4.032642 1.563844 0.186374 -0.074848
 47 11.389364 -0.000822 0.158782 2.281738 0.273471 0.465302
 48 -0.000001 -4.440600 0.000001 1.570144 -3.078602 0.004040
 49 5.999999 -0.000000 0.000002 2.281738 -0.000000 0.000000
 50 0.000001 -4.440601 -0.000001 1.569944 -3.078603 0.004053
 51 10.510133 0.000001 0.000001 0.000000 -0.000000 -2.799651
 52 -0.000000 -1.748402 -5.000002 -3.141593 0.004007 -1.539299
 53 5.500000 0.000001 -0.000000 0.014408 -0.000000 -0.000000
 54 -0.000001 -0.000000 -5.000002 -0.044472 3.137589 -0.000177
 55 6.551489 -0.000001 0.000001 -0.014408 0.062278 -0.250131
 56 -1.266842 -1.937444 -4.950559 -0.066572 -2.988806 -0.110308
 57 6.551490 -0.000001 0.000001 -0.014408 0.062278 -0.250131
 58 0.699371 -1.944210 -5.006845 -0.027189 -3.088217 0.005298
 59 4.226143 -0.003200 0.000001 0.602354 0.228496 -0.013756
 60 0.000000 5.000000 -0.000000 -0.153565 0.000087 2.718702
 61 0.000004 -0.000004 -3.713580 0.365818 2.880119 -0.191589
 62 0.000002 -0.000000 5.000000 3.053196 1.558589 -0.074928
 63 -0.000007 0.000006 3.713580 -0.001619 -3.122277 -0.475127
 64 0.000002 -0.000001 -5.000000 -0.088726 1.558589 3.066334
 65 7.363602 1.646647 0.495663 3.141593 -1.570796 0.000000
 66 -0.000005 0.000007 3.619081 0.008255 -3.110080 -0.985231
 67 16.573919 0.000002 0.000000 0.000000 -0.000000 -1.065827
 68 15.128181 0.000000 -0.000000 -0.102296 0.010178 0.114297
 69 5.758665 4.244730 0.000000 0.000000 0.000000 1.667687
 70 3.177725 0.000000 -0.000000 0.000000 0.000000 3.141593
 71 15.708953 0.000001 0.000000 -0.051525 0.003996 0.061523
 72 0.275148 0.189215 -3.445207 3.130898 0.000409 -1.514604
 73 17.210192 0.000001 0.000000 0.000000 -0.000000 -1.893339
 74 0.000001 -0.000000 -5.000000 -0.079430 1.546568 -1.570855
 75 0.000002 -0.000003 -3.619081 0.577895 2.675801 -0.242118
 76 16.573921 -0.000001 -0.000002 -0.000000 -0.000000 -1.163030
 77 15.128181 0.000001 0.000001 0.089479 0.309197 0.659208
 78 5.758666 4.244730 -0.000001 -0.000000 -0.000000 1.815142
 79 4.003934 -0.000000 0.000001 0.000000 0.000000 0.000000
 80 15.708954 0.000001 0.000002 0.042277 0.226871 0.443133
 81 0.273998 0.191089 3.439762 -3.130907 -0.000437 -1.508107
 82 17.210194 -0.000001 -0.000002 0.000000 -0.000000 -1.937080
 83 -0.000000 -0.000001 5.000000 -0.079319 1.595025 -1.570742
time 4
  0 -0.650000 0.000000 33.899605 -0.025849 0.174554 -1.569172
  1 5.685104 0.833236 -32.227173 -0.174512 -0.026131 1.569196
  2 -2.276935 0.000003 -1.238188 -1.570795 -1.570451 0.000000
  3 1.797324 0.711803 0.000111 -0.036267 0.314054 0.044689
  4 4.119878 -0.003019 0.000095 -0.029199 -0.037591 0.401229
  5 4.118137 -0.003246 0.000077 -0.025140 -0.336930 -0.134456
  6 4.118528 -0.003278 0.000022 -0.008080 -0.507250 -0.019261
  7 4.117699 -0.001628 -0.003010 1.119228 0.332947 0.085465
  8 4.443602 0.000000 0.000001 -0.046447 -0.187071 0.951912
  9 9.024061 -0.000002 0.000001 0.000000 0.000000 0.000000
 10 -0.566303 1.476959 0.714600 1.403720 -0.600688 1.805344
 11 6.384777 -0.000001 -0.000001 -0.115197 0.957915 0.181895
 12 10.242683 0.000000 -0.000000 0.000000 0.000000 -2.123561
 13 11.375561 0.000001 -0.000001 2.302407 0.088125 0.029094
 14 0.728681 0.023433 -1.008291 1.100073 0.611404 0.551668
 15 2.136497 0.000003 0.000000 0.000000 0.000000 -0.078540
 16 2.313139 -0.000001 0.000001 0.000000 0.000000 0.000000
 17 3.115507 -0.886040 -0.021431 -0.454479 0.000392 0.514872
 18 2.011150 0.000000 0.000000 0.000000 0.000000 1.322792
 19 2.141378 -0.000001 -0.000000 0.000000 0.000000 0.000000
 20 1.734173 0.000001 0.000002 0.000000 -0.000000 0.660693
 21 0.000007 -4.440593 0.000001 1.570544 -0.062990 -0.195737
 22 6.000000 0.000002 -0.000001 2.591369 -0.000000 0.000000
 23 0.000002 -4.440602 -0.000001 1.569944 -0.062987 0.004053
 24 11.375562 0.000002 0.000001 -2.773767 0.032967 0.068003
 25 -0.000001 -4.440602 -0.000001 1.570144 -0.062988 0.004040
 26 10.510132 0.000001 -0.000000 0.000000 -0.000000 -2.632577
 27 0.000000 -1.748402 4.999999 0.000000 0.004007 1.602291
 28 5.500000 0.000001 0.000001 0.093045 0.000000 0.000000
 29 -0.000000 -1.940598 4.999999 -0.044472 0.004003 -0.000180
 30 6.551492 -0.000001 -0.000002 -0.138186 0.635685 0.207684
 31 0.000000 -1.940598 5.000001 -0.027189 -0.053376 0.005295
 32 6.551492 -0.000001 -0.000002 -0.080336 0.299999 0.105022
 33 -0.000001 -1.940598 4.999997 -0.066572 -0.152786 -0.110311
 34 0.566309 -1.469881 -0.714600 2.608450 1.013543 -0.262340
 35 6.384777 0.000000 -0.000003 -0.066386 0.149515 -0.663599
 36 10.242682 0.000002 0.000001 -0.000000 0.000000 -2.448087
 37 11.375560 0.000001 0.000002 3.044404 0.137167 1.013699
 38 0.728681 0.023431 1.008293 -1.579583 -0.319038 0.212973
 39 2.136498 0.000002 -0.000001 -0.000000 -0.000000 1.282817
 40 2.313138 0.000000 0.000001 0.000000 0.000000 3.141593
 41 3.115507 -0.886041 0.021431 0.420765 0.316066 0.167178
 42 2.011148 -0.000000 0.000001 -0.000000 0.000000 2.082010
 43 2.141379 -0.000001 0.000001 0.000000 0.000000 3.141593
 44 1.734172 -0.000001 -0.000001 -0.000000 -0.000000 1.041748
 45 0.136315 -3.738190 2.525891 1.493698 2.759406 -1.474501
 46 -2.193620 0.798256 4.032643 1.563844 0.186374 -0.074848
 47 11.389365 -0.000819 0.158783 2.283854 0.264036 0.462376
 48 0.000001 -4.440598 -0.000000 1.570144 -3.078602 0.004040
 49 6.000000 0.000002 0.000002 2.283854 -0.000000 -0.000000
 50 0.000001 -4.440601 -0.000000 1.569944 -3.078603 0.004053
 51 10.510130 0.000002 0.000002 0.000000 -0.000000 -2.794840
 52 -0.000000 -1.748400 -4.999999 3.141593 0.004007 -1.539299
 53 5.500000 0.000000 0.000003 0.013595 0.000000 0.000000
 54 0.000000 0.000001 -4.999999 -0.044472 3.137589 -0.000177
 55 6.551492 0.000000 -0.000004 -0.013595 0.058139 -0.243460
 56 -1.266843 -1.937442 -4.950561 -0.066572 -2.988806 -0.110308
 57 6.551492 0.000000 -0.000003 -0.013595 0.058139 -0.243460
 58 0.699371 -1.944208 -5.006846 -0.027189 -3.088217 0.005298
 59 4.226147 -0.003202 -0.000001 0.607192 0.213341 0.001173
 60 -0.000000 5.000000 -0.000000 -0.153564 0.000087 2.718702
 61 0.000004 -0.000004 -3.713580 0.365818 2.880119 -0.191589
 62 0.000002 -0.000000 5.000000 3.053196 1.558589 -0.074928
 63 -0.000007 0.000006 3.713580 -0.001619 -3.122277 -0.475127
 64 0.000002 -0.000001 -5.000000 -0.088726 1.558589 3.066334
 65 7.363602 1.646647 0.495663 3.141593 -1.570796 0.000000
 66 -0.000005 0.000007 3.619081 0.008255 -3.110080 -0.985231
 67 16.573919 0.000002 0.000000 0.000000 -0.000000 -1.065827
 68 15.128181 0.000000 -0.000000 -0.102296 0.010178 0.114297
 69 5.758665 4.244730 0.000000 0.000000 0.000000 1.667687
 70 3.177725 0.000000 -0.000000 0.000000 0.000000 3.141593
 71 15.708953 0.000001 0.000000 -0.051525 0.003996 0.061523
 72 0.275148 0.189215 -3.445207 3.130898 0.000409 -1.514604
 73 17.210192 0.000001 0.000000 0.000000 -0.000000 -1.893339
 74 0.000001 -0.000000 -5.000000 -0.079430 1.546568 -1.570855
 75 0.000002 -0.000003 -3.619081 0.577895 2.675801 -0.242118
 76 16.573921 -0.000001 -0.000002 -0.000000 -0.000000 -1.163030
 77 15.128181 0.000001 0.000001 0.089479 0.309197 0.659208
 78 5.758666 4.244730 -0.000001 -0.000000 -0.000000 1.815142
 79 4.003934 -0.000000 0.000001 0.000000 0.000000 0.000000
 80 15.708954 0.000001 0.000002 0.042277 0.226871 0.443133
 81 0.273998 0.191089 3.439762 -3.130907 -0.000437 -1.508107
 82 17.210194 -0.000001 -0.000002 0.000000 -0.000000 -1.937080
 83 -0.000000 -0.000001 5.000000 -0.079319 1.595025 -1.570742
end
