version 1
nodes
  0 "Bip01"  -1
  1 "Bip01 Footsteps"   0
  2 "Bip01 Pelvis"   0
  3 "Bip01 Spine"   2
  4 "Bip01 Spine1"   3
  5 "Bip01 Spine2"   4
  6 "Bip01 Spine3"   5
  7 "Bip01 Neck"   6
  8 "Bip01 Head"   7
  9 "Dummy21"   8
 10 "Bip01 L Clavicle"   7
 11 "Bip01 L UpperArm"  10
 12 "Bip01 L Forearm"  11
 13 "Bip01 L Hand"  12
 14 "Bip01 L Finger0"  13
 15 "Bip01 L Finger01"  14
 16 "Dummy06"  15
 17 "Bip01 L Finger1"  13
 18 "Bip01 L Finger11"  17
 19 "Dummy03"  18
 20 "-- L knuckle"  17
 21 "-- L knuckle_end"  20
 22 "-- L Forearm twist"  12
 23 "-- L Forearm twist_end"  22
 24 "-- L wrist"  12
 25 "-- L wrist_end"  24
 26 "-- L Elbow"  11
 27 "--L Elbow_end"  26
 28 "-- L bicep twist"  11
 29 "-- L bicep twist_end"  28
 30 "-- L shoulder outside"  10
 31 "-- L shoulder outside_end"  30
 32 "-- L Shoulder inside"  10
 33 "-- L Shoulder inside_end"  32
 34 "Bip01 R Clavicle"   7
 35 "Bip01 R UpperArm"  34
 36 "Bip01 R Forearm"  35
 37 "Bip01 R Hand"  36
 38 "Bip01 R Finger0"  37
 39 "Bip01 R Finger01"  38
 40 "Dummy01"  39
 41 "Bip01 R Finger1"  37
 42 "Bip01 R Finger11"  41
 43 "Dummy02"  42
 44 "-- R knuckle"  41
 45 "Point06"  44
 46 "Line06"  37
 47 "-- R wrist"  36
 48 "-- R wrist_end"  47
 49 "-- R forearm twist"  36
 50 "-- R forearm twist_end"  49
 51 "-- R Elbow"  35
 52 "--R Elbow_end"  51
 53 "-- R bicep twist"  35
 54 "-- R bicep twist_end"  53
 55 "-- R Shoulder inside"  34
 56 "-- R Shoulder inside_end"  55
 57 "-- R shoulder outside"  34
 58 "-- R shoulder outside_end"  57
 59 "-- Neck smooth"   6
 60 "-- neck smooth end"  59
 61 "-- R Butt"   2
 62 "--R Butt_end"  61
 63 "-- L butt"   2
 64 "--L butt_end"  63
 65 "GIGN01"   2
 66 "Bip01 L Thigh"   2
 67 "Bip01 L Calf"  66
 68 "Bip01 L Foot"  67
 69 "Bip01 L Toe0"  68
 70 "Dummy16"  69
 71 "-- L ankle"  67
 72 "-- L ankleend"  71
 73 "-- L Knee"  66
 74 "--L Knee_end"  73
 75 "Bip01 R Thigh"   2
 76 "Bip01 R Calf"  75
 77 "Bip01 R Foot"  76
 78 "Bip01 R Toe0"  77
 79 "Dummy11"  78
 80 "-- R Ankle"  76
 81 "-- R ankleend"  80
 82 "-- R Knee"  75
 83 "--R Knee_end"  82
end
skeleton
time 0
  0 -0.650000 0.000000 33.899605 -0.025849 0.174554 -1.569172
  1 5.685104 0.833236 -32.227173 -0.174512 -0.026131 1.569196
  2 -2.276935 0.000003 -1.238188 -1.570795 -1.570451 0.000000
  3 1.797095 0.711797 0.000011 -0.004188 0.114793 -0.014383
  4 4.119829 -0.003043 0.000004 -0.001123 -0.110788 0.382622
  5 4.118078 -0.003236 -0.000022 0.006768 0.023843 -0.159976
  6 4.117885 -0.003126 -0.000684 0.210266 -0.048401 -0.236125
  7 4.116723 -0.001283 -0.002705 1.310498 0.657601 0.186481
  8 4.443598 0.000001 -0.000001 -0.165163 -0.001751 0.501837
  9 9.024059 0.000000 0.000001 0.000000 0.000000 0.000000
 10 -1.059073 1.328719 0.352954 1.123920 -0.406437 2.499706
 11 6.384776 0.000001 0.000001 -1.352004 -0.191952 -1.475384
 12 10.242682 -0.000002 -0.000000 0.000000 0.000000 -1.550524
 13 11.375563 -0.000000 -0.000001 2.997522 0.268836 0.260772
 14 0.728683 0.023431 -1.008293 1.100073 0.611404 0.551668
 15 2.136493 -0.000000 -0.000002 0.000000 0.000000 -0.078540
 16 2.313140 0.000001 0.000001 0.000000 0.000000 0.000000
 17 3.115505 -0.886042 -0.021431 -0.409121 -0.203764 0.077411
 18 2.011151 0.000001 -0.000001 0.000000 0.000000 1.322792
 19 2.141381 -0.000001 -0.000002 0.000000 0.000000 0.000000
 20 1.734173 0.000001 -0.000002 -0.000000 -0.000000 0.660693
 21 0.000006 -4.440592 -0.000000 1.570544 -0.062990 -0.195737
 22 6.000002 -0.000000 -0.000000 -2.952998 0.000000 0.000000
 23 -0.000001 -4.440601 0.000000 1.569944 -0.062987 0.004053
 24 11.375563 0.000000 0.000002 -2.426734 0.071764 0.221109
 25 -0.000001 -4.440604 -0.000001 1.570144 -0.062988 0.004040
 26 10.510131 -0.000001 -0.000001 -0.000000 -0.000000 -2.346058
 27 -0.000001 -1.748404 4.999998 -0.000000 0.004007 1.602291
 28 5.500000 0.000000 -0.000001 0.478847 -0.000000 0.000000
 29 -0.000002 -1.940597 4.999999 -0.044472 0.004003 -0.000180
 30 6.551491 0.000001 -0.000001 -0.977642 -0.010245 -1.024858
 31 -0.000000 -1.940598 5.000000 -0.027189 -0.053376 0.005295
 32 6.551491 0.000001 -0.000001 -0.369811 0.118204 -0.384213
 33 -0.000001 -1.940599 4.999996 -0.066572 -0.152786 -0.110311
 34 1.059073 -1.321644 -0.352957 2.069874 0.638781 -0.590277
 35 6.384776 -0.000001 0.000000 0.432836 -0.038234 -1.094441
 36 10.242682 0.000000 -0.000001 -0.000000 0.000000 -2.100259
 37 11.375561 -0.000001 -0.000002 2.576282 0.496688 0.431852
 38 0.728678 0.023432 1.008291 -1.579583 -0.319038 0.212973
 39 2.136499 -0.000001 -0.000002 0.000000 0.000000 1.282817
 40 2.313139 0.000002 0.000000 0.000000 0.000000 3.141593
 41 3.115507 -0.886042 0.021433 0.420766 0.316066 0.167178
 42 2.011151 0.000000 -0.000001 -0.000000 -0.000000 2.082010
 43 2.141380 0.000000 -0.000002 0.000000 0.000000 3.141593
 44 1.734173 -0.000000 -0.000000 -0.000000 -0.000000 1.041748
 45 0.136314 -3.738192 2.525889 1.493698 2.759406 -1.474501
 46 -2.193620 0.798258 4.032640 1.563844 0.186374 -0.074848
 47 11.389366 -0.000821 0.158780 2.030144 0.311125 0.144606
 48 0.000002 -4.440601 0.000000 1.570144 -3.078602 0.004040
 49 5.999999 -0.000001 -0.000000 2.030144 0.000000 -0.000000
 50 0.000001 -4.440601 -0.000000 1.569944 -3.078603 0.004053
 51 10.510132 0.000000 -0.000001 -0.000000 -0.000000 -2.620926
 52 -0.000000 -1.748398 -5.000003 -3.141593 0.004007 -1.539299
 53 5.500000 -0.000000 -0.000002 -0.138523 0.000000 -0.000000
 54 0.000000 0.000000 -5.000001 -0.044472 3.137589 -0.000177
 55 6.551491 -0.000001 0.000002 0.138523 -0.071109 -0.306430
 56 -1.266844 -1.937443 -4.950560 -0.066572 -2.988806 -0.110308
 57 6.551491 -0.000001 0.000002 0.138523 -0.071109 -0.306430
 58 0.699370 -1.944208 -5.006846 -0.027189 -3.088217 0.005298
 59 4.226146 -0.003201 0.000000 0.669113 0.409872 -0.016499
 60 0.000001 5.000000 -0.000002 -0.153564 0.000087 2.718702
 61 0.000004 -0.000004 -3.713580 0.365818 2.880119 -0.191589
 62 0.000002 -0.000000 5.000000 3.053196 1.558589 -0.074928
 63 -0.000007 0.000006 3.713580 -0.001619 -3.122277 -0.475127
 64 0.000002 -0.000001 -5.000000 -0.088726 1.558589 3.066334
 65 7.363602 1.646647 0.495663 3.141593 -1.570796 0.000000
 66 -0.000005 0.000007 3.619081 0.008255 -3.110080 -0.985231
 67 16.573919 0.000002 0.000000 0.000000 -0.000000 -1.065827
 68 15.128181 0.000000 -0.000000 -0.102296 0.010178 0.114297
 69 5.758665 4.244730 0.000000 0.000000 0.000000 1.667687
 70 3.177725 0.000000 -0.000000 0.000000 0.000000 3.141593
 71 15.708953 0.000001 0.000000 -0.051525 0.003996 0.061523
 72 0.275148 0.189215 -3.445207 3.130898 0.000409 -1.514604
 73 17.210192 0.000001 0.000000 0.000000 -0.000000 -1.893339
 74 0.000001 -0.000000 -5.000000 -0.079430 1.546568 -1.570855
 75 0.000002 -0.000003 -3.619081 0.577895 2.675801 -0.242118
 76 16.573921 -0.000001 -0.000002 -0.000000 -0.000000 -1.163030
 77 15.128181 0.000001 0.000001 0.089479 0.309197 0.659208
 78 5.758666 4.244730 -0.000001 -0.000000 -0.000000 1.815142
 79 4.003934 -0.000000 0.000001 0.000000 0.000000 0.000000
 80 15.708954 0.000001 0.000002 0.042277 0.226871 0.443133
 81 0.273998 0.191089 3.439762 -3.130907 -0.000437 -1.508107
 82 17.210194 -0.000001 -0.000002 0.000000 -0.000000 -1.937080
 83 -0.000000 -0.000001 5.000000 -0.079319 1.595025 -1.570742
time 1
  0 -0.650000 0.000000 33.899605 -0.025849 0.174554 -1.569172
  1 5.685104 0.833236 -32.227173 -0.174512 -0.026131 1.569196
  2 -2.276935 0.000003 -1.238188 -1.570795 -1.570451 0.000000
  3 1.797095 0.711797 0.000012 -0.004190 0.111111 -0.014367
  4 4.119824 -0.003043 0.000003 -0.001126 -0.114470 0.382626
  5 4.118081 -0.003238 -0.000022 0.006765 0.020161 -0.160001
  6 4.117886 -0.003127 -0.000684 0.210301 -0.052001 -0.236895
  7 4.116866 -0.001253 -0.002819 1.320622 0.605018 0.204001
  8 4.443600 0.000001 0.000001 -0.162571 -0.006453 0.400881
  9 9.024065 0.000000 0.000001 0.000000 0.000000 0.000000
 10 -0.985527 1.384321 0.352835 1.123454 -0.406251 2.445442
 11 6.384776 0.000000 -0.000000 -1.348243 -0.231391 -1.480191
 12 10.242682 0.000002 0.000000 0.000000 0.000000 -1.491166
 13 11.375562 -0.000001 -0.000000 2.988988 0.282487 0.230540
 14 0.728680 0.023431 -1.008292 1.100072 0.611404 0.551668
 15 2.136496 -0.000000 0.000000 0.000000 0.000000 -0.078540
 16 2.313137 -0.000000 0.000000 0.000000 0.000000 0.000000
 17 3.115502 -0.886042 -0.021430 -0.409121 -0.203764 0.077411
 18 2.011153 -0.000000 0.000000 -0.000000 0.000000 1.322791
 19 2.141381 -0.000002 -0.000001 0.000000 0.000000 0.000000
 20 1.734172 0.000000 0.000001 -0.000000 -0.000000 0.660693
 21 0.000008 -4.440594 -0.000002 1.570544 -0.062990 -0.195737
 22 6.000000 -0.000000 0.000000 -2.959185 -0.000000 0.000000
 23 0.000000 -4.440601 -0.000001 1.569944 -0.062987 0.004053
 24 11.375561 0.000000 0.000003 -2.429112 0.087350 0.209573
 25 -0.000002 -4.440603 0.000001 1.570144 -0.062988 0.004040
 26 10.510130 0.000001 -0.000001 0.000000 -0.000000 -2.316379
 27 -0.000001 -1.748402 4.999999 0.000000 0.004007 1.602290
 28 5.500000 0.000000 0.000000 0.481922 -0.000000 0.000000
 29 -0.000002 -1.940601 5.000000 -0.044472 0.004003 -0.000180
 30 6.551491 0.000001 0.000001 -0.983277 -0.044800 -1.038913
 31 -0.000001 -1.940597 5.000001 -0.027189 -0.053376 0.005295
 32 6.551491 0.000001 0.000001 -0.371375 0.107394 -0.388197
 33 -0.000000 -1.940599 4.999998 -0.066572 -0.152786 -0.110311
 34 0.985536 -1.377241 -0.352832 2.083660 0.638649 -0.623392
 35 6.384777 -0.000001 -0.000002 0.458796 -0.036271 -1.099662
 36 10.242682 0.000001 -0.000001 -0.000000 0.000000 -2.077827
 37 11.375561 -0.000001 -0.000002 2.575010 0.500373 0.429191
 38 0.728681 0.023431 1.008291 -1.579583 -0.319038 0.212973
 39 2.136497 -0.000000 -0.000001 -0.000000 0.000000 1.282817
 40 2.313139 -0.000001 -0.000001 0.000000 0.000000 3.141593
 41 3.115507 -0.886043 0.021431 0.420765 0.316066 0.167178
 42 2.011151 -0.000000 0.000000 -0.000000 0.000000 2.082010
 43 2.141380 0.000001 0.000000 0.000000 0.000000 3.141593
 44 1.734172 -0.000002 -0.000001 0.000000 0.000000 1.041748
 45 0.136314 -3.738193 2.525888 1.493698 2.759406 -1.474501
 46 -2.193618 0.798258 4.032639 1.563844 0.186374 -0.074848
 47 11.389365 -0.000820 0.158781 2.029235 0.312552 0.142651
 48 0.000002 -4.440599 -0.000000 1.570144 -3.078602 0.004040
 49 5.999999 -0.000001 -0.000001 2.029235 0.000000 -0.000000
 50 0.000003 -4.440600 0.000000 1.569944 -3.078603 0.004053
 51 10.510130 0.000001 0.000001 -0.000000 -0.000000 -2.609710
 52 0.000000 -1.748399 -5.000000 3.141593 0.004007 -1.539299
 53 5.500000 0.000000 -0.000000 -0.146712 0.000000 -0.000000
 54 0.000000 0.000000 -5.000000 -0.044472 3.137589 -0.000177
 55 6.551491 -0.000001 0.000001 0.146712 -0.073149 -0.307599
 56 -1.266844 -1.937443 -4.950561 -0.066572 -2.988806 -0.110308
 57 6.551491 -0.000001 0.000001 0.146712 -0.073149 -0.307599
 58 0.699371 -1.944208 -5.006846 -0.027189 -3.088217 0.005298
 59 4.226144 -0.003202 0.000000 0.681817 0.385692 0.004358
 60 0.000000 5.000000 0.000001 -0.153564 0.000087 2.718701
 61 0.000004 -0.000004 -3.713580 0.365818 2.880119 -0.191589
 62 0.000002 -0.000000 5.000000 3.053196 1.558589 -0.074928
 63 -0.000007 0.000006 3.713580 -0.001619 -3.122277 -0.475127
 64 0.000002 -0.000001 -5.000000 -0.088726 1.558589 3.066334
 65 7.363602 1.646647 0.495663 3.141593 -1.570796 0.000000
 66 -0.000005 0.000007 3.619081 0.008255 -3.110080 -0.985231
 67 16.573919 0.000002 0.000000 0.000000 -0.000000 -1.065827
 68 15.128181 0.000000 -0.000000 -0.102296 0.010178 0.114297
 69 5.758665 4.244730 0.000000 0.000000 0.000000 1.667687
 70 3.177725 0.000000 -0.000000 0.000000 0.000000 3.141593
 71 15.708953 0.000001 0.000000 -0.051525 0.003996 0.061523
 72 0.275148 0.189215 -3.445207 3.130898 0.000409 -1.514604
 73 17.210192 0.000001 0.000000 0.000000 -0.000000 -1.893339
 74 0.000001 -0.000000 -5.000000 -0.079430 1.546568 -1.570855
 75 0.000002 -0.000003 -3.619081 0.577895 2.675801 -0.242118
 76 16.573921 -0.000001 -0.000002 -0.000000 -0.000000 -1.163030
 77 15.128181 0.000001 0.000001 0.089479 0.309197 0.659208
 78 5.758666 4.244730 -0.000001 -0.000000 -0.000000 1.815142
 79 4.003934 -0.000000 0.000001 0.000000 0.000000 0.000000
 80 15.708954 0.000001 0.000002 0.042277 0.226871 0.443133
 81 0.273998 0.191089 3.439762 -3.130907 -0.000437 -1.508107
 82 17.210194 -0.000001 -0.000002 0.000000 -0.000000 -1.937080
 83 -0.000000 -0.000001 5.000000 -0.079319 1.595025 -1.570742
time 2
  0 -0.650000 0.000000 33.899605 -0.025849 0.174554 -1.569172
  1 5.685104 0.833236 -32.227173 -0.174512 -0.026131 1.569196
  2 -2.276935 0.000003 -1.238188 -1.570795 -1.570451 0.000000
  3 1.797095 0.711797 0.000011 -0.004191 0.107430 -0.014352
  4 4.119829 -0.003044 0.000004 -0.001130 -0.118151 0.382630
  5 4.118081 -0.003236 -0.000022 0.006762 0.016480 -0.160026
  6 4.117887 -0.003125 -0.000684 0.210340 -0.055602 -0.237664
  7 4.117029 -0.001220 -0.002924 1.329344 0.552288 0.220294
  8 4.443598 -0.000001 -0.000001 -0.159864 -0.010930 0.299883
  9 9.024064 0.000000 0.000002 0.000000 0.000000 0.000000
 10 -0.909049 1.435856 0.352722 1.123011 -0.406077 2.391154
 11 6.384777 -0.000001 -0.000003 -1.343925 -0.271598 -1.485685
 12 10.242682 -0.000002 -0.000001 0.000000 -0.000000 -1.429938
 13 11.375561 0.000000 0.000000 2.980424 0.295919 0.199118
 14 0.728685 0.023432 -1.008294 1.100073 0.611404 0.551668
 15 2.136489 -0.000002 -0.000003 0.000000 0.000000 -0.078540
 16 2.313139 0.000001 -0.000000 0.000000 0.000000 0.000000
 17 3.115507 -0.886041 -0.021432 -0.409121 -0.203764 0.077411
 18 2.011149 -0.000000 0.000002 -0.000000 0.000000 1.322791
 19 2.141381 -0.000000 -0.000002 0.000000 0.000000 0.000000
 20 1.734170 0.000000 0.000002 -0.000000 0.000000 0.660693
 21 0.000011 -4.440593 -0.000001 1.570544 -0.062990 -0.195737
 22 6.000000 0.000000 0.000000 -2.965424 0.000000 -0.000000
 23 0.000000 -4.440601 0.000001 1.569944 -0.062987 0.004053
 24 11.375565 0.000000 0.000004 -2.431293 0.103289 0.197216
 25 -0.000001 -4.440604 0.000000 1.570144 -0.062988 0.004040
 26 10.510131 0.000000 -0.000001 0.000000 0.000000 -2.285765
 27 -0.000001 -1.748398 5.000000 0.000000 0.004007 1.602291
 28 5.500000 0.000001 -0.000001 0.484245 0.000000 0.000000
 29 -0.000001 -1.940601 5.000002 -0.044472 0.004003 -0.000180
 30 6.551491 -0.000000 -0.000002 -0.987880 -0.080162 -1.053821
 31 -0.000000 -1.940597 5.000000 -0.027189 -0.053376 0.005295
 32 6.551491 -0.000000 -0.000002 -0.372252 0.096499 -0.392019
 33 -0.000001 -1.940599 4.999995 -0.066572 -0.152786 -0.110311
 34 0.909049 -1.428782 -0.352724 2.097527 0.638278 -0.656551
 35 6.384777 0.000000 -0.000002 0.484633 -0.033811 -1.104506
 36 10.242683 0.000001 -0.000000 -0.000000 -0.000000 -2.055397
 37 11.375563 -0.000000 0.000000 2.573725 0.504055 0.426520
 38 0.728679 0.023430 1.008290 -1.579583 -0.319038 0.212973
 39 2.136497 0.000000 -0.000001 -0.000000 -0.000000 1.282817
 40 2.313139 -0.000001 -0.000001 0.000000 0.000000 3.141593
 41 3.115506 -0.886042 0.021429 0.420766 0.316066 0.167178
 42 2.011149 -0.000001 0.000001 0.000000 0.000000 2.082010
 43 2.141380 -0.000001 0.000001 0.000000 0.000000 3.141593
 44 1.734172 -0.000001 0.000002 0.000000 0.000000 1.041748
 45 0.136315 -3.738195 2.525894 1.493698 2.759406 -1.474501
 46 -2.193618 0.798257 4.032639 1.563844 0.186374 -0.074848
 47 11.389366 -0.000819 0.158782 2.028320 0.313974 0.140695
 48 -0.000000 -4.440598 0.000000 1.570144 -3.078602 0.004040
 49 6.000000 0.000000 -0.000000 2.028320 0.000000 -0.000000
 50 0.000002 -4.440603 0.000001 1.569944 -3.078603 0.004053
 51 10.510131 -0.000000 -0.000001 -0.000000 0.000000 -2.598495
 52 0.000001 -1.748399 -5.000003 3.141593 0.004007 -1.539299
 53 5.500000 0.000000 -0.000000 -0.154861 -0.000000 0.000000
 54 -0.000000 -0.000000 -5.000000 -0.044472 3.137589 -0.000177
 55 6.551491 -0.000001 0.000001 0.154861 -0.074922 -0.308707
 56 -1.266844 -1.937443 -4.950559 -0.066572 -2.988806 -0.110308
 57 6.551491 -0.000000 0.000001 0.154861 -0.074922 -0.308707
 58 0.699370 -1.944208 -5.006847 -0.027189 -3.088217 0.005298
 59 4.226144 -0.003201 -0.000000 0.693667 0.360990 0.024914
 60 0.000001 5.000001 -0.000000 -0.153564 0.000087 2.718702
 61 0.000004 -0.000004 -3.713580 0.365818 2.880119 -0.191589
 62 0.000002 -0.000000 5.000000 3.053196 1.558589 -0.074928
 63 -0.000007 0.000006 3.713580 -0.001619 -3.122277 -0.475127
 64 0.000002 -0.000001 -5.000000 -0.088726 1.558589 3.066334
 65 7.363602 1.646647 0.495663 3.141593 -1.570796 0.000000
 66 -0.000005 0.000007 3.619081 0.008255 -3.110080 -0.985231
 67 16.573919 0.000002 0.000000 0.000000 -0.000000 -1.065827
 68 15.128181 0.000000 -0.000000 -0.102296 0.010178 0.114297
 69 5.758665 4.244730 0.000000 0.000000 0.000000 1.667687
 70 3.177725 0.000000 -0.000000 0.000000 0.000000 3.141593
 71 15.708953 0.000001 0.000000 -0.051525 0.003996 0.061523
 72 0.275148 0.189215 -3.445207 3.130898 0.000409 -1.514604
 73 17.210192 0.000001 0.000000 0.000000 -0.000000 -1.893339
 74 0.000001 -0.000000 -5.000000 -0.079430 1.546568 -1.570855
 75 0.000002 -0.000003 -3.619081 0.577895 2.675801 -0.242118
 76 16.573921 -0.000001 -0.000002 -0.000000 -0.000000 -1.163030
 77 15.128181 0.000001 0.000001 0.089479 0.309197 0.659208
 78 5.758666 4.244730 -0.000001 -0.000000 -0.000000 1.815142
 79 4.003934 -0.000000 0.000001 0.000000 0.000000 0.000000
 80 15.708954 0.000001 0.000002 0.042277 0.226871 0.443133
 81 0.273998 0.191089 3.439762 -3.130907 -0.000437 -1.508107
 82 17.210194 -0.000001 -0.000002 0.000000 -0.000000 -1.937080
 83 -0.000000 -0.000001 5.000000 -0.079319 1.595025 -1.570742
time 3
  0 -0.650000 0.000000 33.899605 -0.025849 0.174554 -1.569172
  1 5.685104 0.833236 -32.227173 -0.174512 -0.026131 1.569196
  2 -2.276935 0.000003 -1.238188 -1.570795 -1.570451 0.000000
  3 1.797095 0.711797 0.000011 -0.004192 0.103748 -0.014336
  4 4.119828 -0.003043 0.000004 -0.001133 -0.121833 0.382634
  5 4.118077 -0.003237 -0.000022 0.006758 0.012798 -0.160050
  6 4.117886 -0.003126 -0.000684 0.210381 -0.059202 -0.238434
  7 4.117196 -0.001183 -0.003021 1.336847 0.499435 0.235562
  8 4.443599 0.000000 -0.000001 -0.157059 -0.015186 0.198847
  9 9.024061 0.000000 -0.000001 0.000000 0.000000 0.000000
 10 -0.829854 1.483174 0.352620 1.122584 -0.405914 2.336847
 11 6.384777 0.000000 0.000002 -1.338988 -0.312702 -1.491954
 12 10.242682 -0.000001 -0.000002 0.000000 0.000000 -1.366593
 13 11.375561 0.000000 -0.000001 2.971820 0.309140 0.166396
 14 0.728675 0.023429 -1.008289 1.100072 0.611404 0.551668
 15 2.136497 -0.000000 0.000000 0.000000 -0.000000 -0.078540
 16 2.313140 0.000000 0.000001 0.000000 0.000000 0.000000
 17 3.115505 -0.886041 -0.021431 -0.409121 -0.203764 0.077411
 18 2.011149 0.000001 -0.000000 0.000000 0.000000 1.322791
 19 2.141382 -0.000000 -0.000002 0.000000 0.000000 0.000000
 20 1.734170 0.000001 -0.000001 0.000000 0.000000 0.660693
 21 0.000008 -4.440596 -0.000001 1.570544 -0.062990 -0.195737
 22 6.000000 0.000000 -0.000000 -2.971734 0.000000 -0.000000
 23 -0.000001 -4.440600 0.000001 1.569944 -0.062987 0.004053
 24 11.375561 0.000000 0.000003 -2.433274 0.119591 0.183973
 25 -0.000002 -4.440603 0.000000 1.570144 -0.062988 0.004040
 26 10.510131 -0.000002 -0.000002 0.000000 0.000000 -2.254093
 27 -0.000000 -1.748400 4.999999 0.000000 0.004007 1.602291
 28 5.500000 0.000001 -0.000001 0.485782 -0.000000 -0.000000
 29 -0.000002 -1.940600 5.000001 -0.044472 0.004003 -0.000180
 30 6.551492 0.000000 0.000000 -0.991371 -0.116383 -1.069649
 31 0.000000 -1.940599 5.000003 -0.027189 -0.053376 0.005295
 32 6.551492 0.000000 0.000000 -0.372412 0.085520 -0.395641
 33 -0.000000 -1.940600 5.000000 -0.066572 -0.152786 -0.110311
 34 0.829853 -1.476099 -0.352624 2.111470 0.637665 -0.689759
 35 6.384777 -0.000000 -0.000001 0.510337 -0.030875 -1.108952
 36 10.242682 -0.000000 0.000002 0.000000 0.000000 -2.032966
 37 11.375560 -0.000001 0.000001 2.572425 0.507733 0.423838
 38 0.728682 0.023429 1.008293 -1.579583 -0.319038 0.212973
 39 2.136497 0.000001 0.000001 -0.000000 -0.000000 1.282817
 40 2.313139 -0.000001 -0.000000 0.000000 0.000000 3.141593
 41 3.115507 -0.886042 0.021432 0.420765 0.316066 0.167178
 42 2.011152 -0.000000 0.000004 -0.000000 -0.000000 2.082010
 43 2.141380 0.000000 -0.000001 0.000000 0.000000 3.141593
 44 1.734172 -0.000001 0.000003 -0.000000 -0.000000 1.041748
 45 0.136316 -3.738191 2.525890 1.493698 2.759406 -1.474501
 46 -2.193619 0.798256 4.032639 1.563844 0.186374 -0.074848
 47 11.389367 -0.000820 0.158782 2.027401 0.315393 0.138736
 48 0.000003 -4.440600 0.000000 1.570144 -3.078602 0.004040
 49 5.999999 -0.000001 0.000003 2.027401 0.000000 -0.000000
 50 0.000002 -4.440603 -0.000001 1.569944 -3.078603 0.004053
 51 10.510131 -0.000000 0.000003 -0.000000 -0.000000 -2.587279
 52 0.000001 -1.748398 -5.000000 -3.141593 0.004007 -1.539299
 53 5.500000 -0.000000 0.000001 -0.162970 0.000000 -0.000000
 54 -0.000000 -0.000001 -5.000003 -0.044472 3.137589 -0.000177
 55 6.551491 -0.000001 0.000001 0.162970 -0.076440 -0.309743
 56 -1.266844 -1.937443 -4.950561 -0.066572 -2.988806 -0.110308
 57 6.551491 -0.000001 0.000001 0.162970 -0.076440 -0.309743
 58 0.699371 -1.944208 -5.006846 -0.027189 -3.088217 0.005298
 59 4.226147 -0.003201 -0.000000 0.704660 0.335737 0.045191
 60 0.000002 5.000001 0.000001 -0.153564 0.000087 2.718702
 61 0.000004 -0.000004 -3.713580 0.365818 2.880119 -0.191589
 62 0.000002 -0.000000 5.000000 3.053196 1.558589 -0.074928
 63 -0.000007 0.000006 3.713580 -0.001619 -3.122277 -0.475127
 64 0.000002 -0.000001 -5.000000 -0.088726 1.558589 3.066334
 65 7.363602 1.646647 0.495663 3.141593 -1.570796 0.000000
 66 -0.000005 0.000007 3.619081 0.008255 -3.110080 -0.985231
 67 16.573919 0.000002 0.000000 0.000000 -0.000000 -1.065827
 68 15.128181 0.000000 -0.000000 -0.102296 0.010178 0.114297
 69 5.758665 4.244730 0.000000 0.000000 0.000000 1.667687
 70 3.177725 0.000000 -0.000000 0.000000 0.000000 3.141593
 71 15.708953 0.000001 0.000000 -0.051525 0.003996 0.061523
 72 0.275148 0.189215 -3.445207 3.130898 0.000409 -1.514604
 73 17.210192 0.000001 0.000000 0.000000 -0.000000 -1.893339
 74 0.000001 -0.000000 -5.000000 -0.079430 1.546568 -1.570855
 75 0.000002 -0.000003 -3.619081 0.577895 2.675801 -0.242118
 76 16.573921 -0.000001 -0.000002 -0.000000 -0.000000 -1.163030
 77 15.128181 0.000001 0.000001 0.089479 0.309197 0.659208
 78 5.758666 4.244730 -0.000001 -0.000000 -0.000000 1.815142
 79 4.003934 -0.000000 0.000001 0.000000 0.000000 0.000000
 80 15.708954 0.000001 0.000002 0.042277 0.226871 0.443133
 81 0.273998 0.191089 3.439762 -3.130907 -0.000437 -1.508107
 82 17.210194 -0.000001 -0.000002 0.000000 -0.000000 -1.937080
 83 -0.000000 -0.000001 5.000000 -0.079319 1.595025 -1.570742
time 4
  0 -0.650000 0.000000 33.899605 -0.025849 0.174554 -1.569172
  1 5.685104 0.833236 -32.227173 -0.174512 -0.026131 1.569196
  2 -2.276935 0.000003 -1.238188 -1.570795 -1.570451 0.000000
  3 1.797095 0.711797 0.000011 -0.004193 0.100067 -0.014321
  4 4.119832 -0.003043 0.000004 -0.001136 -0.125514 0.382639
  5 4.118077 -0.003236 -0.000022 0.006755 0.009117 -0.160075
  6 4.117884 -0.003126 -0.000684 0.210425 -0.062803 -0.239205
  7 4.117357 -0.001142 -0.003109 1.343275 0.446479 0.249977
  8 4.443597 -0.000000 -0.000001 -0.154169 -0.019222 0.097774
  9 9.024061 -0.000000 -0.000000 0.000000 0.000000 0.000000
 10 -0.748177 1.526126 0.352530 1.122173 -0.405760 2.282522
 11 6.384776 0.000001 -0.000000 -1.333349 -0.354856 -1.499113
 12 10.242682 -0.000000 -0.000001 0.000000 0.000000 -1.300828
 13 11.375563 0.000001 -0.000000 2.963168 0.322158 0.132241
 14 0.728681 0.023432 -1.008292 1.100073 0.611404 0.551668
 15 2.136497 0.000001 0.000000 0.000000 0.000000 -0.078540
 16 2.313138 -0.000000 -0.000000 0.000000 0.000000 0.000000
 17 3.115505 -0.886041 -0.021431 -0.409121 -0.203764 0.077411
 18 2.011153 0.000003 -0.000001 0.000000 0.000000 1.322792
 19 2.141377 0.000000 -0.000000 0.000000 0.000000 0.000000
 20 1.734172 0.000001 0.000000 0.000000 0.000000 0.660693
 21 0.000009 -4.440594 -0.000000 1.570544 -0.062990 -0.195737
 22 6.000000 0.000000 -0.000001 -2.978130 0.000000 0.000000
 23 0.000000 -4.440601 0.000000 1.569944 -0.062987 0.004053
 24 11.375562 0.000001 0.000002 -2.435048 0.136266 0.169767
 25 -0.000001 -4.440604 0.000000 1.570144 -0.062988 0.004040
 26 10.510130 -0.000002 -0.000001 0.000000 0.000000 -2.221210
 27 -0.000000 -1.748402 4.999999 0.000000 0.004007 1.602291
 28 5.499999 0.000000 -0.000001 0.486497 -0.000000 0.000000
 29 -0.000002 -1.940596 5.000000 -0.044472 0.004003 -0.000180
 30 6.551491 0.000001 0.000002 -0.993661 -0.153535 -1.086477
 31 -0.000000 -1.940598 5.000002 -0.027189 -0.053376 0.005295
 32 6.551491 0.000001 0.000002 -0.371828 0.074453 -0.399021
 33 -0.000000 -1.940598 4.999995 -0.066572 -0.152786 -0.110311
 34 0.748175 -1.519051 -0.352532 2.125483 0.636807 -0.723021
 35 6.384778 -0.000000 -0.000003 0.535897 -0.027483 -1.112977
 36 10.242682 0.000000 0.000002 -0.000000 -0.000000 -2.010535
 37 11.375560 -0.000001 0.000003 2.571111 0.511409 0.421145
 38 0.728682 0.023429 1.008293 -1.579583 -0.319038 0.212973
 39 2.136493 0.000001 0.000001 0.000000 0.000000 1.282817
 40 2.313139 -0.000003 -0.000001 0.000000 0.000000 3.141593
 41 3.115507 -0.886043 0.021432 0.420766 0.316066 0.167178
 42 2.011151 -0.000001 0.000001 -0.000000 0.000000 2.082010
 43 2.141380 0.000001 -0.000001 0.000000 0.000000 3.141593
 44 1.734173 -0.000002 0.000002 0.000000 -0.000000 1.041748
 45 0.136315 -3.738192 2.525887 1.493698 2.759406 -1.474501
 46 -2.193618 0.798257 4.032640 1.563844 0.186374 -0.074848
 47 11.389366 -0.000820 0.158783 2.026477 0.316807 0.136774
 48 -0.000002 -4.440597 -0.000001 1.570144 -3.078602 0.004040
 49 6.000000 -0.000001 0.000002 2.026477 -0.000000 -0.000000
 50 0.000001 -4.440599 -0.000000 1.569944 -3.078602 0.004053
 51 10.510131 0.000000 0.000002 -0.000000 -0.000000 -2.576064
 52 -0.000000 -1.748399 -5.000003 -3.141593 0.004007 -1.539299
 53 5.500000 0.000000 0.000001 -0.171037 -0.000000 0.000000
 54 -0.000000 0.000000 -4.999997 -0.044472 3.137589 -0.000177
 55 6.551492 -0.000002 0.000001 0.171037 -0.077716 -0.310699
 56 -1.266842 -1.937443 -4.950559 -0.066572 -2.988806 -0.110308
 57 6.551492 -0.000001 0.000001 0.171037 -0.077716 -0.310699
 58 0.699371 -1.944208 -5.006847 -0.027189 -3.088217 0.005298
 59 4.226145 -0.003201 -0.000000 0.714786 0.309917 0.065201
 60 0.000001 5.000000 -0.000000 -0.153564 0.000087 2.718702
 61 0.000004 -0.000004 -3.713580 0.365818 2.880119 -0.191589
 62 0.000002 -0.000000 5.000000 3.053196 1.558589 -0.074928
 63 -0.000007 0.000006 3.713580 -0.001619 -3.122277 -0.475127
 64 0.000002 -0.000001 -5.000000 -0.088726 1.558589 3.066334
 65 7.363602 1.646647 0.495663 3.141593 -1.570796 0.000000
 66 -0.000005 0.000007 3.619081 0.008255 -3.110080 -0.985231
 67 16.573919 0.000002 0.000000 0.000000 -0.000000 -1.065827
 68 15.128181 0.000000 -0.000000 -0.102296 0.010178 0.114297
 69 5.758665 4.244730 0.000000 0.000000 0.000000 1.667687
 70 3.177725 0.000000 -0.000000 0.000000 0.000000 3.141593
 71 15.708953 0.000001 0.000000 -0.051525 0.003996 0.061523
 72 0.275148 0.189215 -3.445207 3.130898 0.000409 -1.514604
 73 17.210192 0.000001 0.000000 0.000000 -0.000000 -1.893339
 74 0.000001 -0.000000 -5.000000 -0.079430 1.546568 -1.570855
 75 0.000002 -0.000003 -3.619081 0.577895 2.675801 -0.242118
 76 16.573921 -0.000001 -0.000002 -0.000000 -0.000000 -1.163030
 77 15.128181 0.000001 0.000001 0.089479 0.309197 0.659208
 78 5.758666 4.244730 -0.000001 -0.000000 -0.000000 1.815142
 79 4.003934 -0.000000 0.000001 0.000000 0.000000 0.000000
 80 15.708954 0.000001 0.000002 0.042277 0.226871 0.443133
 81 0.273998 0.191089 3.439762 -3.130907 -0.000437 -1.508107
 82 17.210194 -0.000001 -0.000002 0.000000 -0.000000 -1.937080
 83 -0.000000 -0.000001 5.000000 -0.079319 1.595025 -1.570742
end
