version 1
nodes
  0 "Bip01"  -1
  1 "Bip01 Footsteps"   0
  2 "Bip01 Pelvis"   0
  3 "Bip01 Spine"   2
  4 "Bip01 Spine1"   3
  5 "Bip01 Spine2"   4
  6 "Bip01 Spine3"   5
  7 "Bip01 Neck"   6
  8 "Bip01 Head"   7
  9 "Dummy21"   8
 10 "Bip01 L Clavicle"   7
 11 "Bip01 L UpperArm"  10
 12 "Bip01 L Forearm"  11
 13 "Bip01 L Hand"  12
 14 "Bip01 L Finger0"  13
 15 "Bip01 L Finger01"  14
 16 "Dummy06"  15
 17 "Bip01 L Finger1"  13
 18 "Bip01 L Finger11"  17
 19 "Dummy03"  18
 20 "-- L knuckle"  17
 21 "-- L knuckle_end"  20
 22 "-- L Forearm twist"  12
 23 "-- L Forearm twist_end"  22
 24 "-- L wrist"  12
 25 "-- L wrist_end"  24
 26 "-- L Elbow"  11
 27 "--L Elbow_end"  26
 28 "-- L bicep twist"  11
 29 "-- L bicep twist_end"  28
 30 "-- L shoulder outside"  10
 31 "-- L shoulder outside_end"  30
 32 "-- L Shoulder inside"  10
 33 "-- L Shoulder inside_end"  32
 34 "Bip01 R Clavicle"   7
 35 "Bip01 R UpperArm"  34
 36 "Bip01 R Forearm"  35
 37 "Bip01 R Hand"  36
 38 "Bip01 R Finger0"  37
 39 "Bip01 R Finger01"  38
 40 "Dummy01"  39
 41 "Bip01 R Finger1"  37
 42 "Bip01 R Finger11"  41
 43 "Dummy02"  42
 44 "-- R knuckle"  41
 45 "Point06"  44
 46 "Line06"  37
 47 "-- R wrist"  36
 48 "-- R wrist_end"  47
 49 "-- R forearm twist"  36
 50 "-- R forearm twist_end"  49
 51 "-- R Elbow"  35
 52 "--R Elbow_end"  51
 53 "-- R bicep twist"  35
 54 "-- R bicep twist_end"  53
 55 "-- R Shoulder inside"  34
 56 "-- R Shoulder inside_end"  55
 57 "-- R shoulder outside"  34
 58 "-- R shoulder outside_end"  57
 59 "-- Neck smooth"   6
 60 "-- neck smooth end"  59
 61 "-- R Butt"   2
 62 "--R Butt_end"  61
 63 "-- L butt"   2
 64 "--L butt_end"  63
 65 "GIGN01"   2
 66 "Bip01 L Thigh"   2
 67 "Bip01 L Calf"  66
 68 "Bip01 L Foot"  67
 69 "Bip01 L Toe0"  68
 70 "Dummy16"  69
 71 "-- L ankle"  67
 72 "-- L ankleend"  71
 73 "-- L Knee"  66
 74 "--L Knee_end"  73
 75 "Bip01 R Thigh"   2
 76 "Bip01 R Calf"  75
 77 "Bip01 R Foot"  76
 78 "Bip01 R Toe0"  77
 79 "Dummy11"  78
 80 "-- R Ankle"  76
 81 "-- R ankleend"  80
 82 "-- R Knee"  75
 83 "--R Knee_end"  82
end
skeleton
time 0
  0 -0.650000 0.000000 33.899605 -0.025849 0.174554 -1.569172
  1 5.685104 0.833236 -32.227173 -0.174512 -0.026131 1.569196
  2 -2.276935 0.000003 -1.238188 -1.570795 -1.570451 0.000000
  3 1.796451 0.712186 0.001385 -0.441313 0.138490 -0.298949
  4 4.118560 -0.002757 0.001775 -0.573943 -0.080684 0.035278
  5 4.118605 -0.003034 0.001246 -0.393716 -0.138380 0.057771
  6 4.118573 -0.002874 0.001579 -0.504163 -0.081293 0.035542
  7 4.119275 -0.003474 -0.000020 0.007086 0.556103 0.194855
  8 4.443600 0.000000 -0.000000 0.225165 -0.153930 0.656333
  9 9.024060 -0.000002 -0.000000 0.000000 0.000000 0.000000
 10 -0.914667 0.013962 1.471594 -0.038818 -0.990235 2.961931
 11 6.384777 0.000000 -0.000000 -1.283208 0.445798 -1.617499
 12 10.242683 -0.000000 -0.000001 0.000000 -0.000000 -1.155033
 13 11.375561 0.000000 -0.000001 3.006211 0.532825 0.467348
 14 0.728681 0.023431 -1.008292 2.488416 -0.202092 0.839910
 15 2.136496 -0.000000 -0.000002 0.000000 0.000000 -0.078540
 16 2.313137 0.000001 0.000001 0.000000 0.000000 0.000000
 17 3.115507 -0.886040 -0.021432 -0.166499 0.000392 0.514872
 18 2.011149 -0.000002 -0.000000 -0.000000 -0.000000 1.322791
 19 2.141383 0.000001 0.000000 0.000000 0.000000 0.000000
 20 1.734173 0.000001 -0.000000 0.000000 0.000000 0.660693
 21 0.000004 -4.440594 0.000001 1.570544 -0.062990 -0.195737
 22 5.999999 0.000000 -0.000000 -2.956122 0.000000 -0.000000
 23 0.000000 -4.440601 -0.000000 1.569944 -0.062987 0.004053
 24 11.375561 0.000000 0.000003 -2.422248 0.154418 0.379431
 25 0.000000 -4.440605 0.000001 1.570144 -0.062988 0.004040
 26 10.510131 -0.000003 -0.000002 0.000000 0.000000 -2.148313
 27 0.000003 -1.748401 5.000000 0.000000 0.004007 1.602290
 28 5.500000 -0.000003 -0.000001 0.266677 -0.000000 -0.000000
 29 -0.000003 -1.940599 5.000000 -0.044472 0.004003 -0.000180
 30 6.551491 0.000000 0.000000 -0.750265 0.586588 -1.146740
 31 -0.000001 -1.940600 5.000002 -0.027189 -0.053376 0.005295
 32 6.551491 0.000001 0.000000 -0.193095 0.326560 -0.377125
 33 0.000001 -1.940599 4.999994 -0.066572 -0.152786 -0.110311
 34 0.914675 -0.006886 -1.471594 2.583430 0.983815 -0.891967
 35 6.384776 0.000000 0.000002 0.036718 -0.126177 -1.305924
 36 10.242682 0.000001 0.000001 0.000000 -0.000000 -2.024091
 37 11.375563 -0.000001 -0.000000 3.089560 0.236445 0.865586
 38 0.728682 0.023431 1.008291 -1.579583 -0.319038 0.212973
 39 2.136497 -0.000001 -0.000000 0.000000 0.000000 1.282817
 40 2.313138 -0.000001 -0.000000 0.000000 0.000000 3.141593
 41 3.115508 -0.886041 0.021430 0.420766 0.316066 0.167178
 42 2.011151 0.000000 0.000002 0.000000 0.000000 2.082010
 43 2.141380 -0.000000 -0.000002 0.000000 0.000000 3.141593
 44 1.734172 -0.000001 0.000001 -0.000000 0.000000 1.041748
 45 0.136314 -3.738193 2.525892 1.493698 2.759406 -1.474501
 46 -2.193617 0.798257 4.032640 1.563844 0.186374 -0.074848
 47 11.389366 -0.000820 0.158785 2.294647 0.294636 0.370605
 48 0.000001 -4.440599 -0.000000 1.570144 -3.078602 0.004040
 49 6.000000 -0.000000 0.000001 2.294647 -0.000000 0.000000
 50 0.000002 -4.440602 0.000001 1.569944 -3.078603 0.004053
 51 10.510132 0.000000 0.000001 -0.000000 0.000000 -2.582842
 52 0.000000 -1.748399 -5.000000 3.141593 0.004007 -1.539299
 53 5.500000 0.000001 0.000000 0.003711 -0.000000 0.000000
 54 -0.000000 0.000000 -4.999999 -0.044472 3.137589 -0.000177
 55 6.551490 -0.000000 -0.000000 -0.003711 -0.049552 -0.345656
 56 -1.266843 -1.937443 -4.950560 -0.066572 -2.988806 -0.110308
 57 6.551491 -0.000000 -0.000000 -0.003711 -0.049552 -0.345656
 58 0.699371 -1.944208 -5.006846 -0.027189 -3.088217 0.005298
 59 4.226147 -0.003201 0.000000 -0.010036 0.313709 0.114221
 60 0.000001 5.000001 -0.000000 -0.153564 0.000087 2.718702
 61 0.000004 -0.000004 -3.713580 0.365818 2.880119 -0.191589
 62 0.000002 -0.000000 5.000000 3.053196 1.558589 -0.074928
 63 -0.000007 0.000006 3.713580 -0.001619 -3.122277 -0.475127
 64 0.000002 -0.000001 -5.000000 -0.088726 1.558589 3.066334
 65 7.363602 1.646647 0.495663 3.141593 -1.570796 0.000000
 66 -0.000005 0.000007 3.619081 0.008255 -3.110080 -0.985231
 67 16.573919 0.000002 0.000000 0.000000 -0.000000 -1.065827
 68 15.128181 0.000000 -0.000000 -0.102296 0.010178 0.114297
 69 5.758665 4.244730 0.000000 0.000000 0.000000 1.667687
 70 3.177725 0.000000 -0.000000 0.000000 0.000000 3.141593
 71 15.708953 0.000001 0.000000 -0.051525 0.003996 0.061523
 72 0.275148 0.189215 -3.445207 3.130898 0.000409 -1.514604
 73 17.210192 0.000001 0.000000 0.000000 -0.000000 -1.893339
 74 0.000001 -0.000000 -5.000000 -0.079430 1.546568 -1.570855
 75 0.000002 -0.000003 -3.619081 0.577895 2.675801 -0.242118
 76 16.573921 -0.000001 -0.000002 -0.000000 -0.000000 -1.163030
 77 15.128181 0.000001 0.000001 0.089479 0.309197 0.659208
 78 5.758666 4.244730 -0.000001 -0.000000 -0.000000 1.815142
 79 4.003934 -0.000000 0.000001 0.000000 0.000000 0.000000
 80 15.708954 0.000001 0.000002 0.042277 0.226871 0.443133
 81 0.273998 0.191089 3.439762 -3.130907 -0.000437 -1.508107
 82 17.210194 -0.000001 -0.000002 0.000000 -0.000000 -1.937080
 83 -0.000000 -0.000001 5.000000 -0.079319 1.595025 -1.570742
time 1
  0 -0.650000 0.000000 33.899605 -0.025849 0.174554 -1.569172
  1 5.685104 0.833236 -32.227173 -0.174512 -0.026131 1.569196
  2 -2.276935 0.000003 -1.238188 -1.570795 -1.570451 0.000000
  3 1.796438 0.712177 0.001361 -0.432950 0.137219 -0.301591
  4 4.118547 -0.002773 0.001750 -0.565019 -0.082290 0.032845
  5 4.118603 -0.003045 0.001219 -0.384615 -0.139526 0.055071
  6 4.118566 -0.002888 0.001553 -0.495228 -0.082726 0.033002
  7 4.119438 -0.003437 -0.000119 0.039698 0.546678 0.258718
  8 4.443598 -0.000000 -0.000000 0.204308 -0.122621 0.572160
  9 9.024063 0.000000 0.000001 0.000000 0.000000 0.000000
 10 -0.900758 0.062278 1.479021 0.102482 -0.995494 2.743327
 11 6.384777 0.000000 0.000001 -1.291798 0.476333 -1.565189
 12 10.242682 0.000001 -0.000001 0.000000 0.000000 -1.170207
 13 11.375564 -0.000003 -0.000001 3.005680 0.540485 0.456216
 14 0.728681 0.023434 -1.008291 2.488416 -0.202092 0.839910
 15 2.136499 0.000000 -0.000001 -0.000000 0.000000 -0.078540
 16 2.313139 0.000000 0.000001 0.000000 0.000000 0.000000
 17 3.115507 -0.886038 -0.021431 -0.166499 0.000392 0.514872
 18 2.011149 -0.000001 0.000001 0.000000 -0.000000 1.322791
 19 2.141378 -0.000002 -0.000001 0.000000 0.000000 0.000000
 20 1.734172 -0.000000 -0.000000 -0.000000 0.000000 0.660693
 21 0.000005 -4.440594 0.000002 1.570544 -0.062990 -0.195737
 22 6.000001 -0.000002 -0.000000 -2.955276 0.000000 -0.000000
 23 0.000002 -4.440601 0.000000 1.569944 -0.062987 0.004053
 24 11.375560 -0.000001 0.000001 -2.421077 0.161097 0.376270
 25 -0.000001 -4.440603 -0.000001 1.570144 -0.062988 0.004040
 26 10.510130 -0.000001 -0.000001 -0.000000 0.000000 -2.155900
 27 -0.000000 -1.748400 4.999999 0.000000 0.004007 1.602290
 28 5.500000 0.000000 -0.000000 0.269357 0.000000 0.000000
 29 -0.000001 -1.940598 5.000001 -0.044472 0.004003 -0.000180
 30 6.551491 -0.000000 0.000003 -0.720486 0.581005 -1.053664
 31 0.000001 -1.940598 5.000001 -0.027189 -0.053376 0.005295
 32 6.551491 -0.000000 0.000003 -0.198833 0.321936 -0.357464
 33 -0.000001 -1.940600 4.999997 -0.066572 -0.152786 -0.110311
 34 0.900762 -0.055203 -1.479020 2.657875 1.012903 -0.850292
 35 6.384776 0.000000 0.000002 0.023107 -0.133097 -1.238801
 36 10.242682 -0.000000 0.000000 0.000000 0.000000 -2.038293
 37 11.375562 -0.000001 0.000002 3.105917 0.245088 0.917437
 38 0.728681 0.023431 1.008290 -1.579583 -0.319038 0.212973
 39 2.136497 0.000002 0.000000 0.000000 -0.000000 1.282817
 40 2.313139 -0.000002 0.000001 0.000000 0.000000 3.141593
 41 3.115506 -0.886040 0.021430 0.420766 0.316066 0.167178
 42 2.011151 -0.000001 -0.000001 0.000000 0.000000 2.082010
 43 2.141380 0.000000 0.000001 0.000000 0.000000 3.141593
 44 1.734173 -0.000001 -0.000001 -0.000000 0.000000 1.041748
 45 0.136315 -3.738192 2.525888 1.493698 2.759406 -1.474501
 46 -2.193618 0.798257 4.032639 1.563844 0.186374 -0.074848
 47 11.389366 -0.000820 0.158783 2.298991 0.309582 0.390253
 48 -0.000000 -4.440600 0.000000 1.570144 -3.078602 0.004040
 49 6.000000 0.000000 -0.000001 2.298991 0.000000 -0.000000
 50 0.000001 -4.440602 0.000000 1.569944 -3.078603 0.004053
 51 10.510131 -0.000000 -0.000000 0.000000 -0.000000 -2.589943
 52 -0.000000 -1.748400 -5.000003 3.141593 0.004007 -1.539299
 53 5.500000 -0.000000 -0.000000 0.009244 -0.000000 -0.000000
 54 0.000000 0.000000 -5.000000 -0.044472 3.137589 -0.000177
 55 6.551490 0.000000 0.000003 -0.009244 -0.047986 -0.328900
 56 -1.266843 -1.937443 -4.950562 -0.066572 -2.988806 -0.110308
 57 6.551491 0.000000 0.000003 -0.009244 -0.047986 -0.328900
 58 0.699370 -1.944208 -5.006849 -0.027189 -3.088217 0.005298
 59 4.226147 -0.003201 -0.000000 0.003450 0.308755 0.148219
 60 -0.000001 5.000000 0.000000 -0.153564 0.000087 2.718702
 61 0.000004 -0.000004 -3.713580 0.365818 2.880119 -0.191589
 62 0.000002 -0.000000 5.000000 3.053196 1.558589 -0.074928
 63 -0.000007 0.000006 3.713580 -0.001619 -3.122277 -0.475127
 64 0.000002 -0.000001 -5.000000 -0.088726 1.558589 3.066334
 65 7.363602 1.646647 0.495663 3.141593 -1.570796 0.000000
 66 -0.000005 0.000007 3.619081 0.008255 -3.110080 -0.985231
 67 16.573919 0.000002 0.000000 0.000000 -0.000000 -1.065827
 68 15.128181 0.000000 -0.000000 -0.102296 0.010178 0.114297
 69 5.758665 4.244730 0.000000 0.000000 0.000000 1.667687
 70 3.177725 0.000000 -0.000000 0.000000 0.000000 3.141593
 71 15.708953 0.000001 0.000000 -0.051525 0.003996 0.061523
 72 0.275148 0.189215 -3.445207 3.130898 0.000409 -1.514604
 73 17.210192 0.000001 0.000000 0.000000 -0.000000 -1.893339
 74 0.000001 -0.000000 -5.000000 -0.079430 1.546568 -1.570855
 75 0.000002 -0.000003 -3.619081 0.577895 2.675801 -0.242118
 76 16.573921 -0.000001 -0.000002 -0.000000 -0.000000 -1.163030
 77 15.128181 0.000001 0.000001 0.089479 0.309197 0.659208
 78 5.758666 4.244730 -0.000001 -0.000000 -0.000000 1.815142
 79 4.003934 -0.000000 0.000001 0.000000 0.000000 0.000000
 80 15.708954 0.000001 0.000002 0.042277 0.226871 0.443133
 81 0.273998 0.191089 3.439762 -3.130907 -0.000437 -1.508107
 82 17.210194 -0.000001 -0.000002 0.000000 -0.000000 -1.937080
 83 -0.000000 -0.000001 5.000000 -0.079319 1.595025 -1.570742
time 2
  0 -0.650000 0.000000 33.899605 -0.025849 0.174554 -1.569172
  1 5.685104 0.833236 -32.227173 -0.174512 -0.026131 1.569196
  2 -2.276935 0.000003 -1.238188 -1.570795 -1.570451 0.000000
  3 1.796420 0.712170 0.001336 -0.424584 0.135969 -0.304242
  4 4.118545 -0.002788 0.001725 -0.556089 -0.083875 0.030397
  5 4.118592 -0.003056 0.001191 -0.375510 -0.140647 0.052360
  6 4.118558 -0.002902 0.001527 -0.486289 -0.084137 0.030448
  7 4.119598 -0.003389 -0.000217 0.071375 0.535508 0.321813
  8 4.443599 0.000000 -0.000001 0.181559 -0.092267 0.487747
  9 9.024059 0.000000 -0.000000 0.000000 0.000000 0.000000
 10 -0.884167 0.109803 1.486362 0.262246 -0.984794 2.504062
 11 6.384778 0.000001 -0.000003 -1.301611 0.509178 -1.496096
 12 10.242681 0.000000 -0.000000 -0.000000 -0.000000 -1.189355
 13 11.375560 -0.000002 0.000000 3.004763 0.552411 0.438076
 14 0.728681 0.023429 -1.008291 2.488416 -0.202092 0.839910
 15 2.136501 -0.000001 -0.000003 0.000000 -0.000000 -0.078540
 16 2.313139 0.000001 -0.000000 0.000000 0.000000 0.000000
 17 3.115507 -0.886042 -0.021430 -0.166499 0.000392 0.514872
 18 2.011150 -0.000001 -0.000001 -0.000000 0.000000 1.322792
 19 2.141378 0.000001 0.000000 0.000000 0.000000 0.000000
 20 1.734171 -0.000000 -0.000000 0.000000 -0.000000 0.660693
 21 0.000008 -4.440594 0.000001 1.570544 -0.062990 -0.195737
 22 6.000000 -0.000001 0.000000 -2.953942 0.000000 0.000000
 23 0.000002 -4.440600 -0.000001 1.569944 -0.062987 0.004053
 24 11.375561 -0.000001 0.000003 -2.419158 0.171666 0.370974
 25 -0.000001 -4.440604 -0.000001 1.570144 -0.062988 0.004040
 26 10.510130 0.000000 -0.000000 -0.000000 -0.000000 -2.165474
 27 0.000002 -1.748400 4.999999 -0.000000 0.004007 1.602291
 28 5.500000 0.000002 -0.000000 0.280958 0.000000 0.000000
 29 -0.000002 -1.940598 5.000001 -0.044472 0.004003 -0.000180
 30 6.551492 0.000001 -0.000003 -0.698218 0.559645 -0.935886
 31 -0.000000 -1.940598 5.000002 -0.027189 -0.053376 0.005295
 32 6.551492 0.000001 -0.000003 -0.212624 0.310951 -0.328895
 33 -0.000000 -1.940599 4.999999 -0.066572 -0.152786 -0.110311
 34 0.884171 -0.102726 -1.486363 2.741074 1.037686 -0.800898
 35 6.384777 -0.000001 -0.000002 0.009473 -0.141759 -1.171580
 36 10.242681 0.000001 0.000000 0.000000 -0.000000 -2.052495
 37 11.375562 -0.000001 0.000001 3.122749 0.252894 0.969535
 38 0.728681 0.023431 1.008292 -1.579583 -0.319038 0.212973
 39 2.136495 -0.000001 0.000001 0.000000 0.000000 1.282817
 40 2.313139 -0.000000 -0.000000 0.000000 0.000000 3.141593
 41 3.115506 -0.886041 0.021430 0.420766 0.316066 0.167178
 42 2.011150 0.000000 0.000001 0.000000 0.000000 2.082010
 43 2.141379 -0.000000 0.000000 0.000000 0.000000 3.141593
 44 1.734173 -0.000002 -0.000002 -0.000000 -0.000000 1.041748
 45 0.136315 -3.738191 2.525890 1.493698 2.759406 -1.474501
 46 -2.193617 0.798257 4.032640 1.563844 0.186374 -0.074848
 47 11.389366 -0.000820 0.158782 2.303538 0.324640 0.410388
 48 -0.000000 -4.440598 0.000001 1.570144 -3.078602 0.004040
 49 6.000000 -0.000000 0.000002 2.303538 0.000000 0.000000
 50 0.000002 -4.440601 0.000002 1.569944 -3.078603 0.004053
 51 10.510131 0.000001 0.000003 -0.000000 0.000000 -2.597044
 52 -0.000001 -1.748400 -5.000002 -3.141593 0.004007 -1.539299
 53 5.500000 0.000001 0.000001 0.014317 0.000000 0.000000
 54 -0.000000 -0.000000 -4.999999 -0.044472 3.137589 -0.000177
 55 6.551491 -0.000001 0.000001 -0.014317 -0.047706 -0.315178
 56 -1.266843 -1.937443 -4.950557 -0.066572 -2.988806 -0.110308
 57 6.551491 -0.000000 0.000001 -0.014317 -0.047706 -0.315178
 58 0.699371 -1.944208 -5.006847 -0.027189 -3.088217 0.005298
 59 4.226147 -0.003201 -0.000000 0.016649 0.303136 0.181417
 60 0.000000 5.000001 0.000000 -0.153564 0.000087 2.718702
 61 0.000004 -0.000004 -3.713580 0.365818 2.880119 -0.191589
 62 0.000002 -0.000000 5.000000 3.053196 1.558589 -0.074928
 63 -0.000007 0.000006 3.713580 -0.001619 -3.122277 -0.475127
 64 0.000002 -0.000001 -5.000000 -0.088726 1.558589 3.066334
 65 7.363602 1.646647 0.495663 3.141593 -1.570796 0.000000
 66 -0.000005 0.000007 3.619081 0.008255 -3.110080 -0.985231
 67 16.573919 0.000002 0.000000 0.000000 -0.000000 -1.065827
 68 15.128181 0.000000 -0.000000 -0.102296 0.010178 0.114297
 69 5.758665 4.244730 0.000000 0.000000 0.000000 1.667687
 70 3.177725 0.000000 -0.000000 0.000000 0.000000 3.141593
 71 15.708953 0.000001 0.000000 -0.051525 0.003996 0.061523
 72 0.275148 0.189215 -3.445207 3.130898 0.000409 -1.514604
 73 17.210192 0.000001 0.000000 0.000000 -0.000000 -1.893339
 74 0.000001 -0.000000 -5.000000 -0.079430 1.546568 -1.570855
 75 0.000002 -0.000003 -3.619081 0.577895 2.675801 -0.242118
 76 16.573921 -0.000001 -0.000002 -0.000000 -0.000000 -1.163030
 77 15.128181 0.000001 0.000001 0.089479 0.309197 0.659208
 78 5.758666 4.244730 -0.000001 -0.000000 -0.000000 1.815142
 79 4.003934 -0.000000 0.000001 0.000000 0.000000 0.000000
 80 15.708954 0.000001 0.000002 0.042277 0.226871 0.443133
 81 0.273998 0.191089 3.439762 -3.130907 -0.000437 -1.508107
 82 17.210194 -0.000001 -0.000002 0.000000 -0.000000 -1.937080
 83 -0.000000 -0.000001 5.000000 -0.079319 1.595025 -1.570742
time 3
  0 -0.650000 0.000000 33.899605 -0.025849 0.174554 -1.569172
  1 5.685104 0.833236 -32.227173 -0.174512 -0.026131 1.569196
  2 -2.276935 0.000003 -1.238188 -1.570795 -1.570451 0.000000
  3 1.796403 0.712163 0.001312 -0.416217 0.134741 -0.306904
  4 4.118536 -0.002804 0.001700 -0.547154 -0.085438 0.027934
  5 4.118592 -0.003066 0.001163 -0.366400 -0.141744 0.049639
  6 4.118556 -0.002915 0.001501 -0.477345 -0.085524 0.027882
  7 4.119752 -0.003331 -0.000311 0.101987 0.522657 0.384043
  8 4.443602 -0.000001 0.000001 0.156907 -0.063000 0.403032
  9 9.024059 -0.000001 0.000001 0.000000 0.000000 0.000000
 10 -0.864943 0.156390 1.493595 0.459016 -0.943131 2.219506
 11 6.384777 0.000001 -0.000002 -1.312596 0.548747 -1.379629
 12 10.242682 -0.000000 -0.000001 -0.000000 0.000000 -1.217204
 13 11.375559 -0.000002 -0.000001 3.004252 0.569540 0.398824
 14 0.728680 0.023430 -1.008291 2.488416 -0.202092 0.839910
 15 2.136497 -0.000000 0.000001 0.000000 -0.000000 -0.078540
 16 2.313141 0.000000 -0.000000 0.000000 0.000000 0.000000
 17 3.115507 -0.886039 -0.021430 -0.166499 0.000392 0.514872
 18 2.011152 -0.000001 -0.000000 -0.000000 -0.000000 1.322791
 19 2.141379 -0.000001 -0.000000 0.000000 0.000000 0.000000
 20 1.734174 -0.000000 -0.000000 -0.000000 0.000000 0.660693
 21 0.000007 -4.440594 0.000001 1.570544 -0.062990 -0.195737
 22 5.999999 -0.000002 -0.000001 -2.949813 -0.000000 -0.000000
 23 -0.000002 -4.440602 0.000001 1.569944 -0.062987 0.004053
 24 11.375560 -0.000001 0.000002 -2.414691 0.190166 0.357297
 25 -0.000001 -4.440602 0.000000 1.570144 -0.062988 0.004040
 26 10.510131 0.000000 -0.000001 0.000000 -0.000000 -2.179398
 27 0.000000 -1.748401 5.000000 -0.000000 0.004007 1.602291
 28 5.500000 -0.000000 -0.000000 0.317700 0.000000 0.000000
 29 -0.000001 -1.940598 4.999999 -0.044472 0.004003 -0.000180
 30 6.551491 0.000001 0.000000 -0.711487 0.513612 -0.768826
 31 -0.000000 -1.940598 5.000001 -0.027189 -0.053376 0.005295
 32 6.551491 0.000001 0.000000 -0.248164 0.289039 -0.277800
 33 -0.000001 -1.940599 4.999996 -0.066572 -0.152786 -0.110311
 34 0.864953 -0.149316 -1.493592 2.851185 1.059342 -0.722402
 35 6.384777 -0.000001 -0.000002 -0.005263 -0.153658 -1.091644
 36 10.242682 0.000000 0.000001 0.000000 -0.000000 -2.070303
 37 11.375562 -0.000001 -0.000001 3.140356 0.260980 1.020493
 38 0.728680 0.023431 1.008290 -1.579583 -0.319038 0.212973
 39 2.136497 0.000002 -0.000001 0.000000 -0.000000 1.282817
 40 2.313138 -0.000001 0.000000 0.000000 0.000000 3.141593
 41 3.115506 -0.886041 0.021430 0.420766 0.316066 0.167178
 42 2.011150 -0.000000 0.000002 -0.000000 0.000000 2.082010
 43 2.141380 -0.000000 0.000002 0.000000 0.000000 3.141593
 44 1.734173 -0.000002 -0.000000 -0.000000 0.000000 1.041748
 45 0.136315 -3.738192 2.525889 1.493698 2.759406 -1.474501
 46 -2.193618 0.798257 4.032641 1.563844 0.186374 -0.074848
 47 11.389365 -0.000820 0.158783 2.308296 0.340201 0.430181
 48 -0.000000 -4.440598 -0.000000 1.570144 -3.078602 0.004040
 49 6.000000 -0.000000 0.000001 2.308296 0.000000 -0.000000
 50 0.000001 -4.440601 -0.000001 1.569944 -3.078603 0.004053
 51 10.510131 0.000001 -0.000000 0.000000 0.000000 -2.605948
 52 -0.000001 -1.748400 -5.000001 -3.141593 0.004007 -1.539299
 53 5.500000 0.000000 0.000001 0.019335 0.000000 0.000000
 54 -0.000001 -0.000000 -5.000002 -0.044472 3.137589 -0.000177
 55 6.551490 -0.000000 0.000001 -0.019335 -0.049019 -0.301366
 56 -1.266843 -1.937443 -4.950562 -0.066572 -2.988806 -0.110308
 57 6.551491 -0.000001 0.000001 -0.019335 -0.049019 -0.301366
 58 0.699370 -1.944208 -5.006847 -0.027189 -3.088217 0.005298
 59 4.226148 -0.003201 -0.000000 0.029531 0.296933 0.213746
 60 0.000000 5.000000 0.000000 -0.153564 0.000087 2.718702
 61 0.000004 -0.000004 -3.713580 0.365818 2.880119 -0.191589
 62 0.000002 -0.000000 5.000000 3.053196 1.558589 -0.074928
 63 -0.000007 0.000006 3.713580 -0.001619 -3.122277 -0.475127
 64 0.000002 -0.000001 -5.000000 -0.088726 1.558589 3.066334
 65 7.363602 1.646647 0.495663 3.141593 -1.570796 0.000000
 66 -0.000005 0.000007 3.619081 0.008255 -3.110080 -0.985231
 67 16.573919 0.000002 0.000000 0.000000 -0.000000 -1.065827
 68 15.128181 0.000000 -0.000000 -0.102296 0.010178 0.114297
 69 5.758665 4.244730 0.000000 0.000000 0.000000 1.667687
 70 3.177725 0.000000 -0.000000 0.000000 0.000000 3.141593
 71 15.708953 0.000001 0.000000 -0.051525 0.003996 0.061523
 72 0.275148 0.189215 -3.445207 3.130898 0.000409 -1.514604
 73 17.210192 0.000001 0.000000 0.000000 -0.000000 -1.893339
 74 0.000001 -0.000000 -5.000000 -0.079430 1.546568 -1.570855
 75 0.000002 -0.000003 -3.619081 0.577895 2.675801 -0.242118
 76 16.573921 -0.000001 -0.000002 -0.000000 -0.000000 -1.163030
 77 15.128181 0.000001 0.000001 0.089479 0.309197 0.659208
 78 5.758666 4.244730 -0.000001 -0.000000 -0.000000 1.815142
 79 4.003934 -0.000000 0.000001 0.000000 0.000000 0.000000
 80 15.708954 0.000001 0.000002 0.042277 0.226871 0.443133
 81 0.273998 0.191089 3.439762 -3.130907 -0.000437 -1.508107
 82 17.210194 -0.000001 -0.000002 0.000000 -0.000000 -1.937080
 83 -0.000000 -0.000001 5.000000 -0.079319 1.595025 -1.570742
time 4
  0 -0.650000 0.000000 33.899605 -0.025849 0.174554 -1.569172
  1 5.685104 0.833236 -32.227173 -0.174512 -0.026131 1.569196
  2 -2.276935 0.000003 -1.238188 -1.570795 -1.570451 0.000000
  3 1.796403 0.712163 0.001312 -0.416217 0.134741 -0.306904
  4 4.118536 -0.002804 0.001700 -0.547154 -0.085438 0.027934
  5 4.118592 -0.003066 0.001163 -0.366400 -0.141744 0.049639
  6 4.118556 -0.002915 0.001501 -0.477345 -0.085524 0.027882
  7 4.119913 -0.003264 -0.000405 0.131424 0.508199 0.445334
  8 4.443597 -0.000001 -0.000000 0.162014 -0.051504 0.322288
  9 9.024064 -0.000000 0.000001 0.000000 0.000000 0.000000
 10 -0.843154 0.201904 1.500687 0.636113 -0.870843 1.952121
 11 6.384776 0.000000 0.000002 -1.306253 0.609000 -1.188357
 12 10.242682 0.000002 -0.000001 -0.000000 -0.000000 -1.315138
 13 11.375561 -0.000002 0.000001 3.002800 0.584712 0.394083
 14 0.728681 0.023430 -1.008293 2.488416 -0.202092 0.839910
 15 2.136497 -0.000000 0.000002 -0.000000 0.000000 -0.078540
 16 2.313142 -0.000000 -0.000001 0.000000 0.000000 0.000000
 17 3.115506 -0.886041 -0.021432 -0.166499 0.000392 0.514872
 18 2.011151 -0.000001 0.000001 -0.000000 0.000000 1.322792
 19 2.141380 0.000001 -0.000001 0.000000 0.000000 0.000000
 20 1.734175 0.000003 0.000001 0.000000 0.000000 0.660693
 21 0.000003 -4.440594 0.000002 1.570544 -0.062990 -0.195737
 22 6.000001 -0.000002 0.000001 -2.950320 -0.000000 0.000000
 23 -0.000000 -4.440602 0.000001 1.569944 -0.062987 0.004053
 24 11.375561 -0.000001 0.000003 -2.413779 0.198829 0.358697
 25 -0.000001 -4.440604 -0.000000 1.570144 -0.062988 0.004040
 26 10.510131 0.000001 -0.000001 -0.000000 -0.000000 -2.228365
 27 -0.000003 -1.748401 4.999999 0.000000 0.004007 1.602291
 28 5.500000 0.000000 -0.000000 0.365199 -0.000000 0.000000
 29 -0.000001 -1.940600 5.000001 -0.044472 0.004003 -0.000180
 30 6.551491 0.000001 -0.000000 -0.766207 0.500863 -0.592410
 31 -0.000000 -1.940599 5.000000 -0.027189 -0.053376 0.005295
 32 6.551491 0.000001 -0.000000 -0.291016 0.277245 -0.205375
 33 -0.000001 -1.940600 4.999998 -0.066572 -0.152786 -0.110311
 34 0.843149 -0.194827 -1.500690 3.075705 1.072263 -0.514844
 35 6.384776 0.000000 0.000001 -0.011537 -0.174172 -0.979659
 36 10.242682 -0.000000 -0.000001 0.000000 -0.000000 -2.107348
 37 11.375562 -0.000000 -0.000002 -3.122817 0.274301 1.064491
 38 0.728680 0.023431 1.008290 -1.579583 -0.319038 0.212973
 39 2.136497 -0.000001 -0.000000 -0.000000 -0.000000 1.282817
 40 2.313139 0.000003 0.000001 0.000000 0.000000 3.141593
 41 3.115507 -0.886041 0.021431 0.420766 0.316066 0.167178
 42 2.011151 -0.000001 -0.000005 0.000000 0.000000 2.082010
 43 2.141380 -0.000001 0.000001 0.000000 0.000000 3.141593
 44 1.734173 -0.000002 -0.000004 0.000000 -0.000000 1.041748
 45 0.136314 -3.738192 2.525889 1.493698 2.759406 -1.474501
 46 -2.193618 0.798257 4.032640 1.563844 0.186374 -0.074848
 47 11.389367 -0.000820 0.158780 2.313237 0.357746 0.445561
 48 -0.000000 -4.440599 0.000000 1.570144 -3.078602 0.004040
 49 6.000001 -0.000000 -0.000001 2.313238 0.000000 -0.000000
 50 0.000002 -4.440602 -0.000001 1.569944 -3.078603 0.004053
 51 10.510132 0.000001 0.000001 0.000000 0.000000 -2.624470
 52 -0.000001 -1.748399 -4.999998 -3.141593 0.004007 -1.539299
 53 5.500000 -0.000000 -0.000001 0.021060 -0.000000 0.000000
 54 0.000000 -0.000001 -4.999999 -0.044472 3.137589 -0.000177
 55 6.551490 -0.000000 -0.000001 -0.021060 -0.055581 -0.284556
 56 -1.266843 -1.937443 -4.950559 -0.066572 -2.988806 -0.110308
 57 6.551491 -0.000000 -0.000001 -0.021060 -0.055581 -0.284556
 58 0.699370 -1.944208 -5.006847 -0.027189 -3.088217 0.005298
 59 4.226148 -0.003201 -0.000000 0.042084 0.290228 0.245185
 60 0.000000 5.000000 0.000000 -0.153564 0.000087 2.718702
 61 0.000004 -0.000004 -3.713580 0.365818 2.880119 -0.191589
 62 0.000002 -0.000000 5.000000 3.053196 1.558589 -0.074928
 63 -0.000007 0.000006 3.713580 -0.001619 -3.122277 -0.475127
 64 0.000002 -0.000001 -5.000000 -0.088726 1.558589 3.066334
 65 7.363602 1.646647 0.495663 3.141593 -1.570796 0.000000
 66 -0.000005 0.000007 3.619081 0.008255 -3.110080 -0.985231
 67 16.573919 0.000002 0.000000 0.000000 -0.000000 -1.065827
 68 15.128181 0.000000 -0.000000 -0.102296 0.010178 0.114297
 69 5.758665 4.244730 0.000000 0.000000 0.000000 1.667687
 70 3.177725 0.000000 -0.000000 0.000000 0.000000 3.141593
 71 15.708953 0.000001 0.000000 -0.051525 0.003996 0.061523
 72 0.275148 0.189215 -3.445207 3.130898 0.000409 -1.514604
 73 17.210192 0.000001 0.000000 0.000000 -0.000000 -1.893339
 74 0.000001 -0.000000 -5.000000 -0.079430 1.546568 -1.570855
 75 0.000002 -0.000003 -3.619081 0.577895 2.675801 -0.242118
 76 16.573921 -0.000001 -0.000002 -0.000000 -0.000000 -1.163030
 77 15.128181 0.000001 0.000001 0.089479 0.309197 0.659208
 78 5.758666 4.244730 -0.000001 -0.000000 -0.000000 1.815142
 79 4.003934 -0.000000 0.000001 0.000000 0.000000 0.000000
 80 15.708954 0.000001 0.000002 0.042277 0.226871 0.443133
 81 0.273998 0.191089 3.439762 -3.130907 -0.000437 -1.508107
 82 17.210194 -0.000001 -0.000002 0.000000 -0.000000 -1.937080
 83 -0.000000 -0.000001 5.000000 -0.079319 1.595025 -1.570742
end
