version 1
nodes
  0 "Bip01"  -1
  1 "Bip01 Footsteps"   0
  2 "Bip01 Pelvis"   0
  3 "Bip01 Spine"   2
  4 "Bip01 Spine1"   3
  5 "Bip01 Spine2"   4
  6 "Bip01 Spine3"   5
  7 "Bip01 Neck"   6
  8 "Bip01 Head"   7
  9 "Dummy21"   8
 10 "Bip01 L Clavicle"   7
 11 "Bip01 L UpperArm"  10
 12 "Bip01 L Forearm"  11
 13 "Bip01 L Hand"  12
 14 "Bip01 L Finger0"  13
 15 "Bip01 L Finger01"  14
 16 "Dummy06"  15
 17 "Bip01 L Finger1"  13
 18 "Bip01 L Finger11"  17
 19 "Dummy03"  18
 20 "-- L knuckle"  17
 21 "-- L knuckle_end"  20
 22 "-- L Forearm twist"  12
 23 "-- L Forearm twist_end"  22
 24 "-- L wrist"  12
 25 "-- L wrist_end"  24
 26 "-- L Elbow"  11
 27 "--L Elbow_end"  26
 28 "-- L bicep twist"  11
 29 "-- L bicep twist_end"  28
 30 "-- L shoulder outside"  10
 31 "-- L shoulder outside_end"  30
 32 "-- L Shoulder inside"  10
 33 "-- L Shoulder inside_end"  32
 34 "Bip01 R Clavicle"   7
 35 "Bip01 R UpperArm"  34
 36 "Bip01 R Forearm"  35
 37 "Bip01 R Hand"  36
 38 "Bip01 R Finger0"  37
 39 "Bip01 R Finger01"  38
 40 "Dummy01"  39
 41 "Bip01 R Finger1"  37
 42 "Bip01 R Finger11"  41
 43 "Dummy02"  42
 44 "-- R knuckle"  41
 45 "Point06"  44
 46 "Line06"  37
 47 "-- R wrist"  36
 48 "-- R wrist_end"  47
 49 "-- R forearm twist"  36
 50 "-- R forearm twist_end"  49
 51 "-- R Elbow"  35
 52 "--R Elbow_end"  51
 53 "-- R bicep twist"  35
 54 "-- R bicep twist_end"  53
 55 "-- R Shoulder inside"  34
 56 "-- R Shoulder inside_end"  55
 57 "-- R shoulder outside"  34
 58 "-- R shoulder outside_end"  57
 59 "-- Neck smooth"   6
 60 "-- neck smooth end"  59
 61 "-- R Butt"   2
 62 "--R Butt_end"  61
 63 "-- L butt"   2
 64 "--L butt_end"  63
 65 "GIGN01"   2
 66 "Bip01 L Thigh"   2
 67 "Bip01 L Calf"  66
 68 "Bip01 L Foot"  67
 69 "Bip01 L Toe0"  68
 70 "Dummy16"  69
 71 "-- L ankle"  67
 72 "-- L ankleend"  71
 73 "-- L Knee"  66
 74 "--L Knee_end"  73
 75 "Bip01 R Thigh"   2
 76 "Bip01 R Calf"  75
 77 "Bip01 R Foot"  76
 78 "Bip01 R Toe0"  77
 79 "Dummy11"  78
 80 "-- R Ankle"  76
 81 "-- R ankleend"  80
 82 "-- R Knee"  75
 83 "--R Knee_end"  82
end
skeleton
time 0
  0 -0.650000 0.000000 33.899605 -0.025849 0.174554 -1.569172
  1 5.685104 0.833236 -32.227173 -0.174512 -0.026131 1.569196
  2 -2.276935 0.000003 -1.238188 -1.570795 -1.570451 0.000000
  3 1.797057 0.711874 0.000702 -0.216895 -0.054115 -0.013844
  4 4.119914 -0.002930 0.000685 -0.211351 0.083390 0.402179
  5 4.118230 -0.003181 0.000704 -0.216212 -0.025580 -0.110270
  6 4.116922 -0.002634 0.000999 -0.329802 0.347811 -0.682826
  7 4.119450 -0.002902 -0.001839 0.581495 0.328721 0.493091
  8 4.443599 0.000000 -0.000000 0.131536 -0.049989 0.170359
  9 9.024063 0.000000 0.000000 0.000000 0.000000 0.000000
 10 -0.559380 0.904313 1.370408 0.597032 -0.770607 2.163061
 11 6.384776 0.000001 0.000001 -1.113070 0.441196 -1.104378
 12 10.242682 0.000001 0.000001 -0.000000 -0.000000 -1.669967
 13 11.375560 -0.000000 0.000002 2.546501 0.336469 -0.031985
 14 0.728680 0.023431 -1.008290 1.100073 0.611404 0.551668
 15 2.136490 -0.000000 -0.000000 0.000000 0.000000 -0.078540
 16 2.313140 0.000002 0.000000 0.000000 0.000000 0.000000
 17 3.115505 -0.886041 -0.021430 -0.454479 0.000392 0.514872
 18 2.011152 0.000000 0.000002 -0.000000 0.000000 1.322792
 19 2.141379 -0.000000 0.000002 0.000000 0.000000 0.000000
 20 1.734174 0.000001 0.000001 -0.000000 -0.000000 0.660693
 21 0.000003 -4.440592 -0.000001 1.570544 -0.062990 -0.195737
 22 5.999998 0.000001 0.000001 2.886165 0.000000 0.000000
 23 0.000001 -4.440602 -0.000000 1.569944 -0.062987 0.004053
 24 11.375559 0.000001 0.000005 -2.625878 0.196221 0.127650
 25 -0.000002 -4.440604 0.000002 1.570144 -0.062988 0.004040
 26 10.510131 -0.000001 0.000001 0.000000 -0.000000 -2.405780
 27 -0.000000 -1.748401 4.999997 0.000000 0.004007 1.602290
 28 5.500000 -0.000000 0.000000 0.331324 -0.000000 0.000000
 29 -0.000001 -1.940600 5.000000 -0.044472 0.004003 -0.000180
 30 6.551491 0.000001 0.000002 -0.654695 0.344977 -0.613920
 31 0.000001 -1.940598 5.000002 -0.027189 -0.053376 0.005295
 32 6.551491 0.000001 0.000002 -0.267463 0.207114 -0.247315
 33 -0.000000 -1.940600 4.999998 -0.066572 -0.152786 -0.110311
 34 0.559382 -0.897236 -1.370409 3.011886 1.184898 -0.428664
 35 6.384777 0.000000 -0.000004 -0.022521 -0.203179 -0.882490
 36 10.242682 0.000000 0.000002 0.000000 0.000000 -2.294568
 37 11.375562 0.000000 -0.000002 2.868423 0.563899 0.854711
 38 0.728678 0.023431 1.008292 -1.579583 -0.319038 0.212973
 39 2.136497 0.000000 0.000000 0.000000 0.000000 1.282817
 40 2.313139 0.000000 0.000000 0.000000 0.000000 3.141593
 41 3.115504 -0.886041 0.021433 0.420766 0.316066 0.167178
 42 2.011150 -0.000001 -0.000002 -0.000000 0.000000 2.082010
 43 2.141379 -0.000001 0.000003 0.000000 0.000000 3.141593
 44 1.734173 -0.000001 0.000002 -0.000000 0.000000 1.041748
 45 0.136316 -3.738192 2.525892 1.493698 2.759406 -1.474501
 46 -2.193620 0.798257 4.032641 1.563844 0.186374 -0.074848
 47 11.389365 -0.000819 0.158781 2.121194 0.408069 0.293427
 48 0.000001 -4.440598 0.000001 1.570144 -3.078602 0.004040
 49 6.000000 -0.000000 -0.000002 2.121194 0.000000 0.000000
 50 0.000002 -4.440601 -0.000001 1.569944 -3.078603 0.004053
 51 10.510131 -0.000000 0.000003 0.000000 -0.000000 -2.718080
 52 -0.000000 -1.748400 -5.000002 3.141593 0.004007 -1.539299
 53 5.499999 -0.000000 0.000002 0.024766 -0.000000 0.000000
 54 -0.000000 -0.000000 -5.000001 -0.044472 3.137589 -0.000177
 55 6.551490 0.000001 -0.000003 -0.024766 -0.065026 -0.271030
 56 -1.266844 -1.937443 -4.950559 -0.066572 -2.988806 -0.110308
 57 6.551491 0.000001 -0.000003 -0.024766 -0.065026 -0.271030
 58 0.699370 -1.944208 -5.006850 -0.027189 -3.088217 0.005298
 59 4.226148 -0.003201 0.000000 0.300803 0.218711 0.259144
 60 -0.000002 5.000000 0.000001 -0.153564 0.000087 2.718702
 61 0.000004 -0.000004 -3.713580 0.365818 2.880119 -0.191589
 62 0.000002 -0.000000 5.000000 3.053196 1.558589 -0.074928
 63 -0.000007 0.000006 3.713580 -0.001619 -3.122277 -0.475127
 64 0.000002 -0.000001 -5.000000 -0.088726 1.558589 3.066334
 65 7.363602 1.646647 0.495663 3.141593 -1.570796 0.000000
 66 -0.000005 0.000007 3.619081 0.008255 -3.110080 -0.985231
 67 16.573919 0.000002 0.000000 0.000000 -0.000000 -1.065827
 68 15.128181 0.000000 -0.000000 -0.102296 0.010178 0.114297
 69 5.758665 4.244730 0.000000 0.000000 0.000000 1.667687
 70 3.177725 0.000000 -0.000000 0.000000 0.000000 3.141593
 71 15.708953 0.000001 0.000000 -0.051525 0.003996 0.061523
 72 0.275148 0.189215 -3.445207 3.130898 0.000409 -1.514604
 73 17.210192 0.000001 0.000000 0.000000 -0.000000 -1.893339
 74 0.000001 -0.000000 -5.000000 -0.079430 1.546568 -1.570855
 75 0.000002 -0.000003 -3.619081 0.577895 2.675801 -0.242118
 76 16.573921 -0.000001 -0.000002 -0.000000 -0.000000 -1.163030
 77 15.128181 0.000001 0.000001 0.089479 0.309197 0.659208
 78 5.758666 4.244730 -0.000001 -0.000000 -0.000000 1.815142
 79 4.003934 -0.000000 0.000001 0.000000 0.000000 0.000000
 80 15.708954 0.000001 0.000002 0.042277 0.226871 0.443133
 81 0.273998 0.191089 3.439762 -3.130907 -0.000437 -1.508107
 82 17.210194 -0.000001 -0.000002 0.000000 -0.000000 -1.937080
 83 -0.000000 -0.000001 5.000000 -0.079319 1.595025 -1.570742
time 1
  0 -0.650000 0.000000 33.899605 -0.025849 0.174554 -1.569172
  1 5.685104 0.833236 -32.227173 -0.174512 -0.026131 1.569196
  2 -2.276935 0.000003 -1.238188 -1.570795 -1.570451 0.000000
  3 1.797084 0.711874 0.000704 -0.217349 -0.052235 -0.005310
  4 4.119915 -0.002929 0.000685 -0.211298 0.080191 0.402868
  5 4.118232 -0.003181 0.000704 -0.216233 -0.028776 -0.109568
  6 4.116993 -0.002694 0.000950 -0.314265 0.357759 -0.652052
  7 4.119620 -0.002806 -0.001901 0.597034 0.297619 0.543063
  8 4.443598 0.000000 0.000001 0.141495 -0.055119 0.037564
  9 9.024060 0.000000 0.000000 0.000000 0.000000 0.000000
 10 -0.508111 0.934831 1.369977 0.596464 -0.770184 2.106650
 11 6.384775 0.000000 -0.000002 -1.132920 0.344666 -1.142891
 12 10.242682 -0.000001 0.000001 -0.000000 -0.000000 -1.582693
 13 11.375558 0.000000 -0.000001 2.540288 0.354252 -0.071351
 14 0.728680 0.023431 -1.008294 1.100072 0.611404 0.551668
 15 2.136492 0.000001 0.000000 0.000000 0.000000 -0.078540
 16 2.313140 -0.000001 0.000000 0.000000 0.000000 0.000000
 17 3.115507 -0.886040 -0.021435 -0.454479 0.000392 0.514872
 18 2.011151 0.000000 0.000001 -0.000000 -0.000000 1.322792
 19 2.141379 -0.000000 0.000001 0.000000 0.000000 0.000000
 20 1.734172 0.000001 0.000001 -0.000000 -0.000000 0.660693
 21 0.000009 -4.440594 -0.000002 1.570544 -0.062990 -0.195737
 22 6.000000 0.000000 0.000001 2.880954 -0.000000 -0.000000
 23 0.000001 -4.440600 -0.000002 1.569944 -0.062987 0.004053
 24 11.375560 0.000000 0.000003 -2.623853 0.220582 0.113770
 25 -0.000002 -4.440603 -0.000000 1.570144 -0.062988 0.004040
 26 10.510130 0.000001 -0.000001 -0.000000 -0.000000 -2.362143
 27 0.000001 -1.748400 4.999999 0.000000 0.004007 1.602290
 28 5.500000 0.000002 -0.000000 0.350020 0.000000 -0.000000
 29 -0.000001 -1.940598 5.000000 -0.044472 0.004003 -0.000180
 30 6.551490 -0.000000 0.000000 -0.685019 0.295398 -0.648697
 31 0.000000 -1.940599 5.000002 -0.027189 -0.053376 0.005295
 32 6.551490 -0.000000 0.000000 -0.282544 0.188852 -0.264640
 33 0.000000 -1.940599 4.999995 -0.066572 -0.152786 -0.110311
 34 0.508111 -0.927755 -1.369977 3.128098 1.179161 -0.352676
 35 6.384776 -0.000000 -0.000002 0.029674 -0.165653 -0.846660
 36 10.242682 -0.000001 -0.000001 -0.000000 0.000000 -2.281660
 37 11.375560 0.000001 -0.000001 2.868423 0.563899 0.854711
 38 0.728680 0.023431 1.008292 -1.579583 -0.319038 0.212973
 39 2.136497 -0.000001 0.000000 0.000000 0.000000 1.282817
 40 2.313138 -0.000000 0.000000 0.000000 0.000000 3.141593
 41 3.115506 -0.886041 0.021432 0.420766 0.316066 0.167178
 42 2.011152 -0.000001 -0.000002 -0.000000 0.000000 2.082010
 43 2.141379 0.000000 -0.000001 0.000000 0.000000 3.141593
 44 1.734174 -0.000001 0.000000 -0.000000 -0.000000 1.041748
 45 0.136316 -3.738194 2.525891 1.493698 2.759406 -1.474501
 46 -2.193618 0.798257 4.032640 1.563844 0.186374 -0.074848
 47 11.389366 -0.000819 0.158780 2.121194 0.408069 0.293427
 48 0.000002 -4.440600 0.000001 1.570144 -3.078602 0.004040
 49 6.000000 0.000001 -0.000003 2.121194 0.000000 0.000000
 50 0.000002 -4.440603 0.000001 1.569944 -3.078603 0.004053
 51 10.510131 0.000000 0.000002 -0.000000 0.000000 -2.711626
 52 0.000001 -1.748400 -5.000002 3.141593 0.004007 -1.539299
 53 5.500000 0.000000 0.000001 0.003790 -0.000000 0.000000
 54 -0.000000 -0.000000 -5.000000 -0.044472 3.137589 -0.000177
 55 6.551490 0.000000 -0.000000 -0.003790 -0.058982 -0.267019
 56 -1.266843 -1.937443 -4.950557 -0.066572 -2.988806 -0.110308
 57 6.551491 0.000000 -0.000000 -0.003790 -0.058982 -0.267019
 58 0.699371 -1.944208 -5.006845 -0.027189 -3.088217 0.005298
 59 4.226148 -0.003201 0.000000 0.309560 0.205227 0.288374
 60 0.000002 5.000000 0.000001 -0.153564 0.000087 2.718702
 61 0.000004 -0.000004 -3.713580 0.365818 2.880119 -0.191589
 62 0.000002 -0.000000 5.000000 3.053196 1.558589 -0.074928
 63 -0.000007 0.000006 3.713580 -0.001619 -3.122277 -0.475127
 64 0.000002 -0.000001 -5.000000 -0.088726 1.558589 3.066334
 65 7.363602 1.646647 0.495663 3.141593 -1.570796 0.000000
 66 -0.000005 0.000007 3.619081 0.008255 -3.110080 -0.985231
 67 16.573919 0.000002 0.000000 0.000000 -0.000000 -1.065827
 68 15.128181 0.000000 -0.000000 -0.102296 0.010178 0.114297
 69 5.758665 4.244730 0.000000 0.000000 0.000000 1.667687
 70 3.177725 0.000000 -0.000000 0.000000 0.000000 3.141593
 71 15.708953 0.000001 0.000000 -0.051525 0.003996 0.061523
 72 0.275148 0.189215 -3.445207 3.130898 0.000409 -1.514604
 73 17.210192 0.000001 0.000000 0.000000 -0.000000 -1.893339
 74 0.000001 -0.000000 -5.000000 -0.079430 1.546568 -1.570855
 75 0.000002 -0.000003 -3.619081 0.577895 2.675801 -0.242118
 76 16.573921 -0.000001 -0.000002 -0.000000 -0.000000 -1.163030
 77 15.128181 0.000001 0.000001 0.089479 0.309197 0.659208
 78 5.758666 4.244730 -0.000001 -0.000000 -0.000000 1.815142
 79 4.003934 -0.000000 0.000001 0.000000 0.000000 0.000000
 80 15.708954 0.000001 0.000002 0.042277 0.226871 0.443133
 81 0.273998 0.191089 3.439762 -3.130907 -0.000437 -1.508107
 82 17.210194 -0.000001 -0.000002 0.000000 -0.000000 -1.937080
 83 -0.000000 -0.000001 5.000000 -0.079319 1.595025 -1.570742
time 2
  0 -0.650000 0.000000 33.899605 -0.025849 0.174554 -1.569172
  1 5.685104 0.833236 -32.227173 -0.174512 -0.026131 1.569196
  2 -2.276935 0.000003 -1.238188 -1.570795 -1.570451 0.000000
  3 1.797115 0.711874 0.000705 -0.217786 -0.050351 0.003222
  4 4.119911 -0.002929 0.000686 -0.211246 0.076991 0.403556
  5 4.118231 -0.003182 0.000703 -0.216257 -0.031972 -0.108866
  6 4.117061 -0.002751 0.000899 -0.298351 0.367252 -0.621003
  7 4.119780 -0.002704 -0.001957 0.610837 0.265819 0.592098
  8 4.443599 0.000000 0.000001 0.152710 -0.059318 -0.095229
  9 9.024063 0.000000 0.000000 0.000000 0.000000 0.000000
 10 -0.455186 0.962437 1.369539 0.595870 -0.769757 2.050238
 11 6.384776 -0.000000 -0.000001 -1.147954 0.249385 -1.177414
 12 10.242682 0.000000 0.000000 0.000000 0.000000 -1.493347
 13 11.375561 -0.000001 0.000000 2.534004 0.372166 -0.114931
 14 0.728682 0.023431 -1.008294 1.100073 0.611404 0.551668
 15 2.136498 -0.000000 0.000000 0.000000 0.000000 -0.078540
 16 2.313141 -0.000002 0.000000 0.000000 0.000000 0.000000
 17 3.115507 -0.886041 -0.021432 -0.454479 0.000392 0.514872
 18 2.011152 0.000001 -0.000000 -0.000000 -0.000000 1.322792
 19 2.141380 -0.000002 -0.000001 0.000000 0.000000 0.000000
 20 1.734174 0.000001 0.000001 0.000000 0.000000 0.660693
 21 0.000006 -4.440595 -0.000000 1.570544 -0.062990 -0.195737
 22 5.999998 -0.000000 0.000000 2.875817 0.000000 0.000000
 23 -0.000002 -4.440601 -0.000001 1.569944 -0.062987 0.004053
 24 11.375559 0.000001 0.000004 -2.621284 0.245884 0.097621
 25 -0.000001 -4.440603 -0.000001 1.570144 -0.062988 0.004040
 26 10.510130 -0.000002 0.000000 0.000000 0.000000 -2.317470
 27 -0.000000 -1.748401 4.999998 -0.000000 0.004007 1.602291
 28 5.500000 0.000001 -0.000000 0.368688 0.000000 -0.000000
 29 -0.000002 -1.940600 5.000001 -0.044472 0.004003 -0.000180
 30 6.551491 -0.000000 0.000002 -0.715676 0.244720 -0.682105
 31 -0.000000 -1.940599 5.000002 -0.027189 -0.053376 0.005295
 32 6.551491 -0.000000 0.000002 -0.297466 0.170479 -0.280927
 33 0.000000 -1.940600 4.999996 -0.066572 -0.152786 -0.110311
 34 0.455189 -0.955360 -1.369539 -3.043600 1.167716 -0.281800
 35 6.384777 0.000000 0.000000 0.080485 -0.128026 -0.808953
 36 10.242682 -0.000001 0.000000 -0.000000 0.000000 -2.268753
 37 11.375562 0.000000 0.000002 2.868423 0.563899 0.854711
 38 0.728681 0.023431 1.008292 -1.579583 -0.319038 0.212973
 39 2.136494 0.000000 0.000000 0.000000 0.000000 1.282817
 40 2.313138 -0.000001 0.000001 0.000000 0.000000 3.141593
 41 3.115506 -0.886041 0.021432 0.420765 0.316066 0.167178
 42 2.011149 -0.000001 -0.000003 -0.000000 0.000000 2.082010
 43 2.141378 -0.000000 0.000002 0.000000 0.000000 3.141593
 44 1.734171 -0.000001 -0.000001 0.000000 -0.000000 1.041748
 45 0.136316 -3.738193 2.525891 1.493698 2.759406 -1.474501
 46 -2.193617 0.798257 4.032640 1.563844 0.186374 -0.074848
 47 11.389367 -0.000818 0.158779 2.121194 0.408069 0.293427
 48 -0.000000 -4.440600 0.000000 1.570144 -3.078602 0.004040
 49 6.000000 0.000001 -0.000001 2.121194 0.000000 -0.000000
 50 0.000002 -4.440600 0.000000 1.569944 -3.078603 0.004053
 51 10.510132 0.000000 0.000004 -0.000000 0.000000 -2.705173
 52 0.000001 -1.748400 -5.000002 3.141593 0.004007 -1.539299
 53 5.500000 0.000000 0.000004 -0.016669 0.000000 -0.000000
 54 -0.000001 0.000000 -4.999997 -0.044472 3.137590 -0.000177
 55 6.551490 -0.000000 -0.000001 0.016669 -0.051766 -0.262783
 56 -1.266843 -1.937444 -4.950560 -0.066572 -2.988806 -0.110308
 57 6.551490 -0.000000 -0.000001 0.016669 -0.051766 -0.262783
 58 0.699370 -1.944207 -5.006844 -0.027189 -3.088217 0.005298
 59 4.226147 -0.003202 0.000000 0.317830 0.191586 0.316782
 60 -0.000001 5.000000 -0.000000 -0.153564 0.000087 2.718702
 61 0.000004 -0.000004 -3.713580 0.365818 2.880119 -0.191589
 62 0.000002 -0.000000 5.000000 3.053196 1.558589 -0.074928
 63 -0.000007 0.000006 3.713580 -0.001619 -3.122277 -0.475127
 64 0.000002 -0.000001 -5.000000 -0.088726 1.558589 3.066334
 65 7.363602 1.646647 0.495663 3.141593 -1.570796 0.000000
 66 -0.000005 0.000007 3.619081 0.008255 -3.110080 -0.985231
 67 16.573919 0.000002 0.000000 0.000000 -0.000000 -1.065827
 68 15.128181 0.000000 -0.000000 -0.102296 0.010178 0.114297
 69 5.758665 4.244730 0.000000 0.000000 0.000000 1.667687
 70 3.177725 0.000000 -0.000000 0.000000 0.000000 3.141593
 71 15.708953 0.000001 0.000000 -0.051525 0.003996 0.061523
 72 0.275148 0.189215 -3.445207 3.130898 0.000409 -1.514604
 73 17.210192 0.000001 0.000000 0.000000 -0.000000 -1.893339
 74 0.000001 -0.000000 -5.000000 -0.079430 1.546568 -1.570855
 75 0.000002 -0.000003 -3.619081 0.577895 2.675801 -0.242118
 76 16.573921 -0.000001 -0.000002 -0.000000 -0.000000 -1.163030
 77 15.128181 0.000001 0.000001 0.089479 0.309197 0.659208
 78 5.758666 4.244730 -0.000001 -0.000000 -0.000000 1.815142
 79 4.003934 -0.000000 0.000001 0.000000 0.000000 0.000000
 80 15.708954 0.000001 0.000002 0.042277 0.226871 0.443133
 81 0.273998 0.191089 3.439762 -3.130907 -0.000437 -1.508107
 82 17.210194 -0.000001 -0.000002 0.000000 -0.000000 -1.937080
 83 -0.000000 -0.000001 5.000000 -0.079319 1.595025 -1.570742
time 3
  0 -0.650000 0.000000 33.899605 -0.025849 0.174554 -1.569172
  1 5.685104 0.833236 -32.227173 -0.174512 -0.026131 1.569196
  2 -2.276935 0.000003 -1.238188 -1.570795 -1.570451 0.000000
  3 1.797146 0.711874 0.000707 -0.218208 -0.048464 0.011752
  4 4.119914 -0.002929 0.000685 -0.211197 0.073791 0.404244
  5 4.118230 -0.003180 0.000704 -0.216283 -0.035168 -0.108163
  6 4.117134 -0.002804 0.000848 -0.282070 0.376276 -0.589683
  7 4.119937 -0.002590 -0.002008 0.622943 0.233409 0.640300
  8 4.443598 0.000000 -0.000000 0.165103 -0.062445 -0.228002
  9 9.024061 -0.000000 0.000001 0.000000 0.000000 0.000000
 10 -0.400771 0.987040 1.369096 0.595249 -0.769323 1.993824
 11 6.384775 -0.000000 -0.000001 -1.159030 0.155080 -1.209122
 12 10.242682 0.000000 0.000001 -0.000000 -0.000000 -1.401942
 13 11.375562 -0.000002 0.000001 2.527591 0.390150 -0.162241
 14 0.728681 0.023431 -1.008293 1.100073 0.611404 0.551668
 15 2.136493 -0.000000 -0.000000 0.000000 0.000000 -0.078540
 16 2.313141 -0.000002 -0.000000 0.000000 0.000000 0.000000
 17 3.115512 -0.886038 -0.021435 -0.454479 0.000392 0.514872
 18 2.011142 -0.000001 0.000004 -0.000000 -0.000000 1.322792
 19 2.141379 -0.000001 -0.000001 0.000000 0.000000 0.000000
 20 1.734172 0.000002 -0.000000 -0.000000 -0.000000 0.660693
 21 0.000010 -4.440594 -0.000003 1.570544 -0.062990 -0.195737
 22 6.000000 -0.000000 0.000001 2.870801 0.000000 0.000000
 23 0.000001 -4.440600 0.000001 1.569944 -0.062987 0.004053
 24 11.375561 -0.000001 0.000003 -2.618206 0.271669 0.079496
 25 0.000000 -4.440604 0.000000 1.570144 -0.062988 0.004040
 26 10.510131 -0.000002 0.000002 0.000000 0.000000 -2.271767
 27 -0.000001 -1.748401 4.999997 -0.000000 0.004007 1.602291
 28 5.500000 -0.000001 0.000001 0.387316 0.000000 -0.000000
 29 -0.000001 -1.940599 5.000000 -0.044472 0.004003 -0.000180
 30 6.551491 -0.000001 0.000000 -0.746859 0.191759 -0.715392
 31 -0.000000 -1.940601 5.000003 -0.027189 -0.053376 0.005295
 32 6.551491 -0.000001 0.000000 -0.312159 0.151676 -0.296646
 33 0.000000 -1.940600 4.999999 -0.066572 -0.152786 -0.110311
 34 0.400775 -0.979964 -1.369097 -2.939555 1.150992 -0.218739
 35 6.384777 -0.000001 -0.000000 0.129995 -0.090362 -0.769430
 36 10.242682 -0.000001 -0.000000 0.000000 -0.000000 -2.255845
 37 11.375562 0.000000 -0.000002 2.868423 0.563899 0.854711
 38 0.728679 0.023431 1.008292 -1.579583 -0.319038 0.212973
 39 2.136497 0.000000 0.000001 -0.000000 0.000000 1.282817
 40 2.313139 0.000000 0.000000 0.000000 0.000000 3.141593
 41 3.115504 -0.886041 0.021431 0.420765 0.316066 0.167178
 42 2.011152 -0.000001 -0.000001 -0.000000 0.000000 2.082010
 43 2.141379 0.000001 -0.000001 0.000000 0.000000 3.141593
 44 1.734172 -0.000001 -0.000001 0.000000 -0.000000 1.041748
 45 0.136313 -3.738191 2.525889 1.493698 2.759406 -1.474501
 46 -2.193619 0.798257 4.032641 1.563844 0.186374 -0.074848
 47 11.389367 -0.000819 0.158780 2.121194 0.408069 0.293427
 48 0.000000 -4.440599 0.000000 1.570144 -3.078602 0.004040
 49 6.000000 -0.000000 -0.000003 2.121194 0.000000 0.000000
 50 0.000002 -4.440603 -0.000000 1.569944 -3.078603 0.004053
 51 10.510132 -0.000000 0.000000 -0.000000 0.000000 -2.698719
 52 -0.000000 -1.748399 -5.000001 -3.141593 0.004007 -1.539299
 53 5.500000 0.000000 0.000001 -0.036555 0.000000 -0.000000
 54 -0.000000 -0.000000 -5.000002 -0.044472 3.137589 -0.000177
 55 6.551492 -0.000000 0.000002 0.036555 -0.043623 -0.258204
 56 -1.266844 -1.937444 -4.950562 -0.066572 -2.988806 -0.110308
 57 6.551492 -0.000000 0.000002 0.036555 -0.043623 -0.258204
 58 0.699371 -1.944209 -5.006850 -0.027189 -3.088217 0.005298
 59 4.226144 -0.003201 0.000000 0.325668 0.177825 0.344464
 60 0.000000 5.000001 -0.000001 -0.153564 0.000087 2.718702
 61 0.000004 -0.000004 -3.713580 0.365818 2.880119 -0.191589
 62 0.000002 -0.000000 5.000000 3.053196 1.558589 -0.074928
 63 -0.000007 0.000006 3.713580 -0.001619 -3.122277 -0.475127
 64 0.000002 -0.000001 -5.000000 -0.088726 1.558589 3.066334
 65 7.363602 1.646647 0.495663 3.141593 -1.570796 0.000000
 66 -0.000005 0.000007 3.619081 0.008255 -3.110080 -0.985231
 67 16.573919 0.000002 0.000000 0.000000 -0.000000 -1.065827
 68 15.128181 0.000000 -0.000000 -0.102296 0.010178 0.114297
 69 5.758665 4.244730 0.000000 0.000000 0.000000 1.667687
 70 3.177725 0.000000 -0.000000 0.000000 0.000000 3.141593
 71 15.708953 0.000001 0.000000 -0.051525 0.003996 0.061523
 72 0.275148 0.189215 -3.445207 3.130898 0.000409 -1.514604
 73 17.210192 0.000001 0.000000 0.000000 -0.000000 -1.893339
 74 0.000001 -0.000000 -5.000000 -0.079430 1.546568 -1.570855
 75 0.000002 -0.000003 -3.619081 0.577895 2.675801 -0.242118
 76 16.573921 -0.000001 -0.000002 -0.000000 -0.000000 -1.163030
 77 15.128181 0.000001 0.000001 0.089479 0.309197 0.659208
 78 5.758666 4.244730 -0.000001 -0.000000 -0.000000 1.815142
 79 4.003934 -0.000000 0.000001 0.000000 0.000000 0.000000
 80 15.708954 0.000001 0.000002 0.042277 0.226871 0.443133
 81 0.273998 0.191089 3.439762 -3.130907 -0.000437 -1.508107
 82 17.210194 -0.000001 -0.000002 0.000000 -0.000000 -1.937080
 83 -0.000000 -0.000001 5.000000 -0.079319 1.595025 -1.570742
time 4
  0 -0.650000 0.000000 33.899605 -0.025849 0.174554 -1.569172
  1 5.685104 0.833236 -32.227173 -0.174512 -0.026131 1.569196
  2 -2.276935 0.000003 -1.238188 -1.570795 -1.570451 0.000000
  3 1.797173 0.711874 0.000708 -0.218613 -0.046573 0.020281
  4 4.119910 -0.002929 0.000686 -0.211150 0.070592 0.404932
  5 4.118236 -0.003184 0.000703 -0.216312 -0.038365 -0.107460
  6 4.117197 -0.002853 0.000799 -0.265434 0.384819 -0.558099
  7 4.120090 -0.002470 -0.002052 0.633393 0.200470 0.687780
  8 4.443596 0.000000 -0.000000 0.178584 -0.064367 -0.360732
  9 9.024062 0.000000 0.000001 0.000000 0.000000 0.000000
 10 -0.345040 1.008564 1.368646 0.594595 -0.768882 1.937408
 11 6.384775 0.000000 -0.000002 -1.166694 0.061445 -1.238929
 12 10.242682 -0.000000 0.000001 -0.000000 -0.000000 -1.308393
 13 11.375561 -0.000001 0.000001 2.520999 0.408157 -0.212913
 14 0.728677 0.023430 -1.008290 1.100072 0.611404 0.551668
 15 2.136499 0.000001 0.000000 0.000000 0.000000 -0.078540
 16 2.313140 -0.000002 -0.000001 0.000000 0.000000 0.000000
 17 3.115506 -0.886039 -0.021431 -0.454479 0.000392 0.514872
 18 2.011143 -0.000002 0.000003 0.000000 0.000000 1.322792
 19 2.141380 -0.000002 -0.000002 0.000000 0.000000 0.000000
 20 1.734172 0.000000 0.000001 -0.000000 -0.000000 0.660693
 21 0.000008 -4.440595 -0.000003 1.570544 -0.062990 -0.195737
 22 6.000000 0.000000 0.000001 2.866003 0.000000 0.000000
 23 -0.000001 -4.440601 0.000000 1.569944 -0.062987 0.004053
 24 11.375560 -0.000001 0.000004 -2.614635 0.297562 0.059664
 25 0.000000 -4.440603 0.000001 1.570144 -0.062988 0.004040
 26 10.510130 -0.000000 -0.000001 0.000000 0.000000 -2.224993
 27 -0.000000 -1.748402 4.999998 0.000000 0.004007 1.602291
 28 5.500000 -0.000001 0.000000 0.405638 0.000000 0.000000
 29 -0.000001 -1.940601 5.000002 -0.044472 0.004003 -0.000180
 30 6.551491 -0.000000 -0.000001 -0.778312 0.135382 -0.749557
 31 0.000000 -1.940598 5.000001 -0.027189 -0.053376 0.005295
 32 6.551491 -0.000000 -0.000001 -0.326341 0.132160 -0.312106
 33 -0.000001 -1.940598 4.999998 -0.066572 -0.152786 -0.110311
 34 0.345040 -1.001487 -1.368646 -2.844612 1.129553 -0.165135
 35 6.384777 -0.000001 0.000002 0.178281 -0.052715 -0.728156
 36 10.242681 -0.000001 0.000001 -0.000000 0.000000 -2.242938
 37 11.375559 0.000001 0.000000 2.868423 0.563899 0.854711
 38 0.728681 0.023431 1.008292 -1.579583 -0.319038 0.212973
 39 2.136496 0.000001 -0.000001 0.000000 0.000000 1.282817
 40 2.313139 0.000000 0.000001 0.000000 0.000000 3.141593
 41 3.115506 -0.886041 0.021430 0.420765 0.316066 0.167178
 42 2.011151 -0.000001 -0.000001 -0.000000 0.000000 2.082010
 43 2.141379 -0.000001 -0.000001 0.000000 0.000000 3.141593
 44 1.734172 -0.000001 -0.000001 -0.000000 -0.000000 1.041748
 45 0.136314 -3.738194 2.525889 1.493698 2.759406 -1.474501
 46 -2.193618 0.798257 4.032640 1.563844 0.186374 -0.074848
 47 11.389365 -0.000818 0.158782 2.121194 0.408069 0.293427
 48 0.000003 -4.440601 0.000001 1.570144 -3.078602 0.004040
 49 5.999999 0.000002 -0.000000 2.121194 0.000000 -0.000000
 50 0.000003 -4.440605 0.000001 1.569944 -3.078603 0.004053
 51 10.510131 -0.000000 0.000000 -0.000000 -0.000000 -2.692265
 52 -0.000000 -1.748398 -5.000002 -3.141593 0.004007 -1.539299
 53 5.500000 0.000001 0.000002 -0.055732 0.000000 0.000000
 54 -0.000000 0.000000 -5.000000 -0.044472 3.137589 -0.000177
 55 6.551491 -0.000000 0.000003 0.055732 -0.034733 -0.253200
 56 -1.266843 -1.937442 -4.950559 -0.066572 -2.988806 -0.110308
 57 6.551491 -0.000000 0.000003 0.055732 -0.034733 -0.253200
 58 0.699370 -1.944209 -5.006848 -0.027189 -3.088217 0.005298
 59 4.226147 -0.003201 0.000000 0.333129 0.163968 0.371534
 60 0.000001 5.000000 -0.000001 -0.153564 0.000087 2.718702
 61 0.000004 -0.000004 -3.713580 0.365818 2.880119 -0.191589
 62 0.000002 -0.000000 5.000000 3.053196 1.558589 -0.074928
 63 -0.000007 0.000006 3.713580 -0.001619 -3.122277 -0.475127
 64 0.000002 -0.000001 -5.000000 -0.088726 1.558589 3.066334
 65 7.363602 1.646647 0.495663 3.141593 -1.570796 0.000000
 66 -0.000005 0.000007 3.619081 0.008255 -3.110080 -0.985231
 67 16.573919 0.000002 0.000000 0.000000 -0.000000 -1.065827
 68 15.128181 0.000000 -0.000000 -0.102296 0.010178 0.114297
 69 5.758665 4.244730 0.000000 0.000000 0.000000 1.667687
 70 3.177725 0.000000 -0.000000 0.000000 0.000000 3.141593
 71 15.708953 0.000001 0.000000 -0.051525 0.003996 0.061523
 72 0.275148 0.189215 -3.445207 3.130898 0.000409 -1.514604
 73 17.210192 0.000001 0.000000 0.000000 -0.000000 -1.893339
 74 0.000001 -0.000000 -5.000000 -0.079430 1.546568 -1.570855
 75 0.000002 -0.000003 -3.619081 0.577895 2.675801 -0.242118
 76 16.573921 -0.000001 -0.000002 -0.000000 -0.000000 -1.163030
 77 15.128181 0.000001 0.000001 0.089479 0.309197 0.659208
 78 5.758666 4.244730 -0.000001 -0.000000 -0.000000 1.815142
 79 4.003934 -0.000000 0.000001 0.000000 0.000000 0.000000
 80 15.708954 0.000001 0.000002 0.042277 0.226871 0.443133
 81 0.273998 0.191089 3.439762 -3.130907 -0.000437 -1.508107
 82 17.210194 -0.000001 -0.000002 0.000000 -0.000000 -1.937080
 83 -0.000000 -0.000001 5.000000 -0.079319 1.595025 -1.570742
end
