version 1
nodes
  0 "Bip01"  -1
  1 "Bip01 Footsteps"   0
  2 "Bip01 Pelvis"   0
  3 "Bip01 Spine"   2
  4 "Bip01 Spine1"   3
  5 "Bip01 Spine2"   4
  6 "Bip01 Spine3"   5
  7 "Bip01 Neck"   6
  8 "Bip01 Head"   7
  9 "Dummy21"   8
 10 "Bip01 L Clavicle"   7
 11 "Bip01 L UpperArm"  10
 12 "Bip01 L Forearm"  11
 13 "Bip01 L Hand"  12
 14 "Bip01 L Finger0"  13
 15 "Bip01 L Finger01"  14
 16 "Dummy06"  15
 17 "Bip01 L Finger1"  13
 18 "Bip01 L Finger11"  17
 19 "Dummy03"  18
 20 "-- L knuckle"  17
 21 "-- L knuckle_end"  20
 22 "-- L Forearm twist"  12
 23 "-- L Forearm twist_end"  22
 24 "-- L wrist"  12
 25 "-- L wrist_end"  24
 26 "-- L Elbow"  11
 27 "--L Elbow_end"  26
 28 "-- L bicep twist"  11
 29 "-- L bicep twist_end"  28
 30 "-- L shoulder outside"  10
 31 "-- L shoulder outside_end"  30
 32 "-- L Shoulder inside"  10
 33 "-- L Shoulder inside_end"  32
 34 "Bip01 R Clavicle"   7
 35 "Bip01 R UpperArm"  34
 36 "Bip01 R Forearm"  35
 37 "Bip01 R Hand"  36
 38 "Bip01 R Finger0"  37
 39 "Bip01 R Finger01"  38
 40 "Dummy01"  39
 41 "Bip01 R Finger1"  37
 42 "Bip01 R Finger11"  41
 43 "Dummy02"  42
 44 "-- R knuckle"  41
 45 "Point06"  44
 46 "Steyr Aug"  37
 47 "-- R wrist"  36
 48 "-- R wrist_end"  47
 49 "-- R forearm twist"  36
 50 "-- R forearm twist_end"  49
 51 "-- R Elbow"  35
 52 "--R Elbow_end"  51
 53 "-- R bicep twist"  35
 54 "-- R bicep twist_end"  53
 55 "-- R Shoulder inside"  34
 56 "-- R Shoulder inside_end"  55
 57 "-- R shoulder outside"  34
 58 "-- R shoulder outside_end"  57
 59 "-- Neck smooth"   6
 60 "-- neck smooth end"  59
 61 "-- R Butt"   2
 62 "--R Butt_end"  61
 63 "-- L butt"   2
 64 "--L butt_end"  63
 65 "GIGN01"   2
 66 "Bip01 L Thigh"   2
 67 "Bip01 L Calf"  66
 68 "Bip01 L Foot"  67
 69 "Bip01 L Toe0"  68
 70 "Dummy16"  69
 71 "-- L ankle"  67
 72 "-- L ankleend"  71
 73 "-- L Knee"  66
 74 "--L Knee_end"  73
 75 "Bip01 R Thigh"   2
 76 "Bip01 R Calf"  75
 77 "Bip01 R Foot"  76
 78 "Bip01 R Toe0"  77
 79 "Dummy11"  78
 80 "-- R Ankle"  76
 81 "-- R ankleend"  80
 82 "-- R Knee"  75
 83 "--R Knee_end"  82
end
skeleton
time 0
  0 -0.650000 0.000000 33.899605 -0.025849 0.174554 -1.569172
  1 5.816420 0.852483 -32.971565 -0.174512 -0.026131 1.569196
  2 -2.276935 0.000003 -1.238188 -1.570795 -1.570451 0.000000
  3 1.796059 0.712022 0.000506 -0.158433 0.190763 -0.371349
  4 4.118443 -0.003143 0.000925 -0.287313 -0.097722 -0.021406
  5 4.118502 -0.003260 0.000340 -0.104914 -0.152751 -0.016000
  6 4.118467 -0.003199 0.000705 -0.217513 -0.095935 -0.021954
  7 4.119227 -0.003471 -0.000289 0.085622 0.290581 0.203519
  8 4.443599 0.000000 0.000000 -0.687679 0.627002 0.010116
  9 9.024060 0.000001 0.000001 0.000000 0.000000 0.000000
 10 -0.496440 0.145499 1.654000 0.757209 -1.150977 2.151090
 11 6.384777 -0.000000 0.000003 0.090086 1.045892 -0.219687
 12 10.242685 -0.000000 -0.000000 -0.000000 -0.000000 -1.482388
 13 11.375561 -0.000003 0.000002 -2.010125 0.823276 -0.604667
 14 0.728681 0.023430 -1.008291 1.051563 0.167831 0.364467
 15 2.136497 -0.000001 -0.000001 -0.000000 -0.000000 -0.078540
 16 2.313139 0.000003 -0.000000 0.000000 0.000000 0.000000
 17 3.115506 -0.886042 -0.021432 -0.166499 0.000392 0.514872
 18 2.011151 -0.000000 -0.000001 0.000000 0.000000 1.322792
 19 2.141381 -0.000001 0.000000 0.000000 0.000000 0.000000
 20 1.734173 0.000001 -0.000001 -0.000000 0.000000 0.660693
 21 0.000006 -4.440593 -0.000003 1.570544 -0.062990 -0.195737
 22 6.000000 0.000001 -0.000001 -1.821470 0.000000 -0.000000
 23 0.000002 -4.440600 -0.000001 1.569944 -0.062987 0.004053
 24 11.375561 -0.000002 0.000004 -1.694555 0.428814 -0.228428
 25 -0.000001 -4.440603 -0.000001 1.570144 -0.062988 0.004040
 26 10.510131 -0.000001 0.000001 -0.000000 -0.000000 -2.311990
 27 -0.000001 -1.748401 4.999999 -0.000000 0.004007 1.602290
 28 5.500000 -0.000000 0.000000 -0.097071 -0.000000 0.000000
 29 -0.000002 -1.940598 5.000002 -0.044472 0.004003 -0.000180
 30 6.551491 -0.000000 0.000002 0.141967 0.683980 -0.223232
 31 -0.000001 -1.940598 5.000001 -0.027189 -0.053376 0.005295
 32 6.551491 -0.000000 0.000002 0.083842 0.319453 -0.111262
 33 0.000000 -1.940599 4.999993 -0.066572 -0.152786 -0.110311
 34 0.496444 -0.138422 -1.653999 1.420318 1.224923 -2.029095
 35 6.384777 0.000000 0.000000 -0.670763 0.055341 -0.340944
 36 10.242682 -0.000000 0.000000 -0.000000 -0.000000 -1.348468
 37 11.375562 -0.000002 0.000001 3.063875 0.177488 0.646901
 38 0.728680 0.023431 1.008290 -1.579583 -0.319038 0.212973
 39 2.136499 0.000004 -0.000001 -0.000000 -0.000000 1.282817
 40 2.313138 -0.000001 0.000001 0.000000 0.000000 3.141593
 41 3.115505 -0.886041 0.021430 0.420766 0.316066 0.167178
 42 2.011152 0.000000 -0.000003 0.000000 0.000000 2.082010
 43 2.141379 0.000000 0.000001 0.000000 0.000000 3.141593
 44 1.734172 -0.000001 -0.000004 0.000000 -0.000000 1.041748
 45 0.136314 -3.738192 2.525890 1.493698 2.759406 -1.474501
 46 2.392943 0.494655 0.382013 1.580188 0.187932 -0.064451
 47 11.389367 -0.000819 0.158783 2.298400 0.228824 0.291306
 48 0.000001 -4.440598 -0.000002 1.570144 -3.078602 0.004040
 49 6.000000 0.000000 0.000002 2.298400 -0.000000 -0.000000
 50 0.000001 -4.440599 0.000000 1.569944 -3.078603 0.004053
 51 10.510132 0.000000 -0.000000 -0.000000 0.000000 -2.245030
 52 -0.000002 -1.748400 -5.000001 3.141593 0.004007 -1.539299
 53 5.500000 -0.000000 0.000000 0.223476 -0.000000 -0.000000
 54 -0.000000 0.000001 -4.999999 -0.044472 3.137589 -0.000177
 55 6.551491 -0.000000 -0.000000 -0.223476 0.061048 -0.174682
 56 -1.266843 -1.937443 -4.950558 -0.066572 -2.988806 -0.110308
 57 6.551491 -0.000000 -0.000000 -0.223476 0.061048 -0.174682
 58 0.699370 -1.944208 -5.006846 -0.027189 -3.088217 0.005298
 59 4.226143 -0.003202 0.000000 -0.000000 -0.000000 -0.000000
 60 0.000001 5.000001 0.000000 -0.153564 0.000087 2.718702
 61 0.000004 -0.000005 -3.713580 0.018865 -3.096651 -0.324845
 62 -0.000002 0.000000 5.000000 3.053198 1.558589 -0.074926
 63 -0.000007 0.000005 3.713580 -0.159276 -2.977491 -0.403653
 64 0.000001 -0.000000 -5.000000 -0.088724 1.558589 3.066337
 65 7.287211 1.213879 0.493823 3.141593 -1.570796 0.000000
 66 -0.000005 0.000006 3.619081 -0.217558 -2.796588 -0.810634
 67 16.573919 -0.000000 0.000001 0.000000 0.000000 -2.033247
 68 15.128181 0.000002 -0.000000 0.271612 0.009043 -0.097069
 69 5.758664 4.244730 0.000000 0.000000 -0.000000 1.842220
 70 3.177726 -0.000002 -0.000001 0.000000 0.000000 3.141593
 71 15.708953 0.000001 -0.000001 0.136460 0.001254 -0.052592
 72 0.275148 0.189214 -3.445208 3.130898 0.000409 -1.514604
 73 17.210194 -0.000002 0.000000 -0.000000 -0.000000 -2.328678
 74 0.000000 0.000001 -4.999999 -0.079432 1.546568 -1.570855
 75 0.000002 -0.000003 -3.619081 0.034416 -3.071533 -0.493407
 76 16.573921 -0.000001 0.000000 0.000000 0.000000 -1.045581
 77 15.128181 0.000001 0.000000 0.002618 -0.051986 0.588317
 78 5.758665 4.244731 -0.000000 -0.000000 0.000000 1.815142
 79 4.003934 0.000000 0.000000 0.000000 0.000000 0.000000
 80 15.708954 0.000001 0.000000 0.004296 -0.037430 0.405337
 81 0.273998 0.191089 3.439762 -3.130907 -0.000437 -1.508107
 82 17.210194 -0.000000 0.000000 -0.000000 -0.000000 -1.884228
 83 0.000000 -0.000001 5.000000 -0.079311 1.595025 -1.570737
time 1
  0 -0.517600 -8.000001 34.144695 -0.019113 0.198924 -1.528444
  1 6.666844 0.632045 -33.065273 -0.197957 -0.027463 1.529264
  2 -2.276935 0.000003 -1.238186 -1.570795 -1.570451 0.000000
  3 1.796060 0.712022 0.000506 -0.158433 0.190763 -0.371349
  4 4.118447 -0.003142 0.000925 -0.287313 -0.097722 -0.021406
  5 4.118499 -0.003260 0.000339 -0.104914 -0.152750 -0.016000
  6 4.118462 -0.003200 0.000704 -0.217513 -0.095935 -0.021954
  7 4.119234 -0.003470 -0.000289 0.085622 0.290581 0.203519
  8 4.443599 -0.000000 -0.000001 -0.687679 0.627002 0.010116
  9 9.024061 0.000001 0.000000 0.000000 0.000000 0.000000
 10 -0.496441 0.145499 1.653999 0.757209 -1.150977 2.151090
 11 6.384777 0.000000 0.000004 0.090085 1.045892 -0.219688
 12 10.242683 -0.000000 0.000001 -0.000000 -0.000000 -1.482388
 13 11.375563 0.000000 0.000000 -2.010126 0.823276 -0.604667
 14 0.728682 0.023432 -1.008293 1.051563 0.167831 0.364467
 15 2.136496 0.000001 -0.000000 -0.000000 -0.000000 -0.078540
 16 2.313139 -0.000001 0.000000 0.000000 0.000000 0.000000
 17 3.115507 -0.886041 -0.021430 -0.166499 0.000392 0.514872
 18 2.011150 0.000001 0.000001 -0.000000 0.000000 1.322792
 19 2.141380 0.000000 0.000001 0.000000 0.000000 0.000000
 20 1.734172 0.000001 -0.000001 0.000000 0.000000 0.660693
 21 0.000006 -4.440594 -0.000000 1.570544 -0.062990 -0.195737
 22 6.000000 -0.000001 0.000003 -1.821470 -0.000000 0.000000
 23 0.000001 -4.440602 -0.000000 1.569944 -0.062987 0.004053
 24 11.375562 -0.000001 0.000006 -1.694555 0.428814 -0.228428
 25 -0.000001 -4.440605 0.000002 1.570144 -0.062988 0.004040
 26 10.510134 0.000000 0.000000 0.000000 -0.000000 -2.311990
 27 0.000000 -1.748401 5.000000 0.000000 0.004007 1.602290
 28 5.500000 -0.000000 0.000001 -0.097071 -0.000000 -0.000000
 29 -0.000002 -1.940598 5.000001 -0.044472 0.004003 -0.000180
 30 6.551492 0.000001 0.000000 0.141966 0.683980 -0.223232
 31 -0.000000 -1.940598 5.000002 -0.027189 -0.053376 0.005295
 32 6.551492 0.000001 0.000000 0.083841 0.319453 -0.111262
 33 -0.000000 -1.940599 4.999996 -0.066572 -0.152786 -0.110311
 34 0.496442 -0.138423 -1.654001 1.420317 1.224923 -2.029095
 35 6.384778 -0.000001 -0.000001 -0.670763 0.055341 -0.340944
 36 10.242682 -0.000000 -0.000002 -0.000000 -0.000000 -1.348468
 37 11.375561 -0.000001 -0.000002 3.063875 0.177488 0.646901
 38 0.728681 0.023432 1.008290 -1.579583 -0.319038 0.212973
 39 2.136497 -0.000001 -0.000001 0.000000 -0.000000 1.282817
 40 2.313140 0.000002 0.000001 0.000000 0.000000 3.141593
 41 3.115506 -0.886041 0.021430 0.420765 0.316066 0.167178
 42 2.011150 -0.000000 0.000001 -0.000000 0.000000 2.082010
 43 2.141379 -0.000001 0.000001 0.000000 0.000000 3.141593
 44 1.734174 -0.000002 0.000000 -0.000000 0.000000 1.041748
 45 0.136315 -3.738193 2.525893 1.493698 2.759406 -1.474501
 46 2.392942 0.494656 0.382012 1.580188 0.187932 -0.064451
 47 11.389366 -0.000820 0.158781 2.298400 0.228824 0.291305
 48 -0.000000 -4.440601 0.000002 1.570144 -3.078602 0.004040
 49 5.999999 -0.000000 -0.000003 2.298401 0.000000 -0.000000
 50 0.000001 -4.440603 0.000000 1.569944 -3.078603 0.004053
 51 10.510132 -0.000000 -0.000002 -0.000000 -0.000000 -2.245030
 52 0.000000 -1.748400 -5.000002 3.141593 0.004007 -1.539299
 53 5.500001 -0.000001 -0.000000 0.223476 0.000000 -0.000000
 54 0.000000 0.000000 -5.000000 -0.044472 3.137589 -0.000177
 55 6.551493 -0.000001 -0.000000 -0.223476 0.061048 -0.174682
 56 -1.266843 -1.937444 -4.950560 -0.066572 -2.988806 -0.110308
 57 6.551493 -0.000001 -0.000000 -0.223476 0.061048 -0.174682
 58 0.699371 -1.944209 -5.006848 -0.027189 -3.088217 0.005298
 59 4.226147 -0.003201 0.000000 0.000000 0.000000 0.000000
 60 0.000001 5.000001 -0.000001 -0.153564 0.000087 2.718702
 61 0.000004 -0.000005 -3.713580 0.019767 -3.090570 -0.016113
 62 0.000002 0.000000 5.000001 3.053197 1.558589 -0.074927
 63 -0.000006 0.000005 3.713580 -0.142204 -3.014536 -0.567145
 64 0.000000 0.000001 -5.000001 -0.088724 1.558589 3.066337
 65 7.287214 1.213879 0.493824 -3.141593 -1.570796 0.000000
 66 -0.000006 0.000007 3.619081 -0.177405 -2.886695 -1.185740
 67 16.573919 0.000001 -0.000001 -0.000000 -0.000000 -1.769562
 68 15.128180 0.000000 0.000001 0.138715 -0.052180 0.037089
 69 5.758665 4.244731 0.000001 0.000000 -0.000000 1.830398
 70 3.177726 0.000000 0.000000 0.000000 0.000000 3.141593
 71 15.708954 0.000001 0.000001 0.069836 -0.028450 0.020894
 72 0.275148 0.189215 -3.445208 3.130898 0.000409 -1.514604
 73 17.210194 0.000001 -0.000000 -0.000000 -0.000000 -2.210020
 74 -0.000001 -0.000000 -5.000000 -0.079432 1.546568 -1.570856
 75 0.000004 -0.000004 -3.619081 0.024607 -3.057500 -0.022029
 76 16.573919 -0.000000 0.000000 -0.000000 -0.000000 -0.612209
 77 15.128182 0.000001 0.000000 0.027837 -0.062619 0.579301
 78 5.758665 4.244731 0.000000 -0.000000 0.000000 1.876229
 79 4.003935 -0.000000 0.000000 0.000000 0.000000 0.000000
 80 15.708954 -0.000000 0.000000 0.022182 -0.043161 0.399559
 81 0.273998 0.191089 3.439763 -3.130907 -0.000437 -1.508107
 82 17.210192 -0.000000 0.000000 -0.000000 0.000000 -1.689211
 83 0.000000 0.000000 5.000000 -0.079314 1.595025 -1.570739
end
