version 1
nodes
  0 "Bip01"  -1
  1 "Bip01 Footsteps"   0
  2 "Bip01 Pelvis"   0
  3 "Bip01 Spine"   2
  4 "Bip01 Spine1"   3
  5 "Bip01 Spine2"   4
  6 "Bip01 Spine3"   5
  7 "Bip01 Neck"   6
  8 "Bip01 Head"   7
  9 "Dummy21"   8
 10 "Bip01 L Clavicle"   7
 11 "Bip01 L UpperArm"  10
 12 "Bip01 L Forearm"  11
 13 "Bip01 L Hand"  12
 14 "Bip01 L Finger0"  13
 15 "Bip01 L Finger01"  14
 16 "Dummy06"  15
 17 "Bip01 L Finger1"  13
 18 "Bip01 L Finger11"  17
 19 "Dummy03"  18
 20 "-- L knuckle"  17
 21 "-- L knuckle_end"  20
 22 "-- L Forearm twist"  12
 23 "-- L Forearm twist_end"  22
 24 "-- L wrist"  12
 25 "-- L wrist_end"  24
 26 "-- L Elbow"  11
 27 "--L Elbow_end"  26
 28 "-- L bicep twist"  11
 29 "-- L bicep twist_end"  28
 30 "-- L shoulder outside"  10
 31 "-- L shoulder outside_end"  30
 32 "-- L Shoulder inside"  10
 33 "-- L Shoulder inside_end"  32
 34 "Bip01 R Clavicle"   7
 35 "Bip01 R UpperArm"  34
 36 "Bip01 R Forearm"  35
 37 "Bip01 R Hand"  36
 38 "Bip01 R Finger0"  37
 39 "Bip01 R Finger01"  38
 40 "Dummy01"  39
 41 "Bip01 R Finger1"  37
 42 "Bip01 R Finger11"  41
 43 "Dummy02"  42
 44 "-- R knuckle"  41
 45 "Point06"  44
 46 "skin01"  37
 47 "-- R wrist"  36
 48 "-- R wrist_end"  47
 49 "-- R forearm twist"  36
 50 "-- R forearm twist_end"  49
 51 "-- R Elbow"  35
 52 "--R Elbow_end"  51
 53 "-- R bicep twist"  35
 54 "-- R bicep twist_end"  53
 55 "-- R Shoulder inside"  34
 56 "-- R Shoulder inside_end"  55
 57 "-- R shoulder outside"  34
 58 "-- R shoulder outside_end"  57
 59 "-- Neck smooth"   6
 60 "-- neck smooth end"  59
 61 "-- R Butt"   2
 62 "--R Butt_end"  61
 63 "-- L butt"   2
 64 "--L butt_end"  63
 65 "GIGN01"   2
 66 "Bip01 L Thigh"   2
 67 "Bip01 L Calf"  66
 68 "Bip01 L Foot"  67
 69 "Bip01 L Toe0"  68
 70 "Dummy16"  69
 71 "-- L ankle"  67
 72 "-- L ankleend"  71
 73 "-- L Knee"  66
 74 "--L Knee_end"  73
 75 "Bip01 R Thigh"   2
 76 "Bip01 R Calf"  75
 77 "Bip01 R Foot"  76
 78 "Bip01 R Toe0"  77
 79 "Dummy11"  78
 80 "-- R Ankle"  76
 81 "-- R ankleend"  80
 82 "-- R Knee"  75
 83 "--R Knee_end"  82
end
skeleton
time 0
  0 0.500000 13.522099 26.931471 -0.243067 0.535714 -2.432935
  1 13.773750 5.584524 -22.520975 -0.544290 0.221328 2.303921
  2 -2.276936 0.000004 -1.238185 -1.570795 -1.570451 0.000000
  3 1.797305 0.711971 -0.001050 0.329209 -0.149353 0.001088
  4 4.118603 -0.003231 -0.000568 0.174645 -0.075373 -0.013204
  5 4.118602 -0.003229 -0.000568 0.175499 -0.125520 -0.022091
  6 4.118605 -0.003232 -0.000569 0.174645 -0.075358 -0.013291
  7 4.119476 -0.002449 -0.002403 0.750310 -0.089926 0.258480
  8 4.443599 0.000001 0.000000 0.438268 -0.223029 -0.517499
  9 9.024061 0.000000 -0.000000 0.000000 0.000000 0.000000
 10 0.155605 1.180246 1.262327 0.914443 -0.758517 2.082959
 11 6.384777 0.000002 0.000003 0.011078 0.444561 0.070808
 12 10.242682 -0.000002 -0.000001 -0.000000 0.000000 -1.866958
 13 11.375560 -0.000001 0.000001 -0.608203 0.040783 -0.521938
 14 0.728681 0.023432 -1.008293 0.125076 0.533138 0.208693
 15 2.136496 -0.000001 -0.000000 -0.000000 0.000000 -0.078540
 16 2.313139 0.000001 -0.000000 0.000000 0.000000 0.000000
 17 3.115506 -0.886040 -0.021432 -0.595518 -0.185122 0.249070
 18 2.011150 -0.000001 -0.000000 -0.000000 -0.000000 0.231961
 19 2.141380 0.000001 -0.000000 0.000000 0.000000 0.000000
 20 1.734173 0.000002 0.000001 -0.000000 -0.000000 0.116653
 21 0.000005 -4.440594 -0.000001 1.570544 -0.062990 -0.195737
 22 5.999999 0.000000 0.000000 -0.825423 -0.000000 -0.000000
 23 0.000001 -4.440599 0.000001 1.569944 -0.062987 0.004053
 24 11.375561 0.000001 0.000002 -1.087155 -0.048747 -0.284865
 25 -0.000001 -4.440603 0.000000 1.570144 -0.062988 0.004040
 26 10.510130 0.000001 0.000001 0.000000 -0.000000 -2.504276
 27 -0.000000 -1.748402 5.000001 0.000000 0.004007 1.602291
 28 5.500000 -0.000001 0.000000 -0.001787 -0.000000 -0.000000
 29 -0.000001 -1.940597 4.999999 -0.044472 0.004003 -0.000180
 30 6.551492 0.000001 0.000001 0.011379 0.376607 0.101555
 31 -0.000000 -1.940599 5.000001 -0.027189 -0.053376 0.005295
 32 6.551492 0.000001 0.000001 0.000644 0.187740 0.049122
 33 0.000001 -1.940601 4.999997 -0.066572 -0.152786 -0.110311
 34 -0.155605 -1.173166 -1.262329 1.479526 1.468824 -1.924847
 35 6.384778 0.000000 0.000000 -0.351927 -0.353791 0.039152
 36 10.242682 0.000001 0.000000 -0.000000 -0.000000 -1.987512
 37 11.375561 0.000001 0.000002 1.489667 -0.591250 0.309097
 38 0.728681 0.023431 1.008293 -2.027434 -0.416219 0.534151
 39 2.136497 0.000000 -0.000000 0.000000 -0.000000 1.282817
 40 2.313139 -0.000000 0.000000 0.000000 0.000000 3.141593
 41 3.115507 -0.886041 0.021432 0.518003 0.053583 0.680575
 42 2.011152 -0.000000 -0.000000 -0.000000 -0.000000 2.082010
 43 2.141380 0.000000 0.000000 0.000000 0.000000 3.141593
 44 1.734173 -0.000001 0.000000 -0.000000 0.000000 1.041748
 45 0.136315 -3.738193 2.525890 1.493698 2.759406 -1.474501
 46 3.401195 -0.082821 2.201398 1.059647 2.922362 1.414544
 47 11.389365 -0.000820 0.158782 1.555839 -0.305907 0.152067
 48 0.000000 -4.440598 -0.000000 1.570144 -3.078602 0.004040
 49 5.999999 -0.000000 0.000000 1.555839 0.000000 -0.000000
 50 0.000002 -4.440601 0.000001 1.569944 -3.078603 0.004053
 51 10.510131 0.000001 0.000001 -0.000000 -0.000000 -2.564552
 52 0.000000 -1.748399 -5.000001 3.141593 0.004007 -1.539299
 53 5.499999 0.000002 -0.000001 0.132097 -0.000000 0.000000
 54 -0.000000 0.000000 -5.000000 -0.044472 3.137589 -0.000177
 55 6.551492 -0.000000 0.000000 -0.132098 -0.171230 -0.008483
 56 -1.266844 -1.937442 -4.950562 -0.066572 -2.988806 -0.110308
 57 6.551493 0.000000 0.000000 -0.132098 -0.171230 -0.008483
 58 0.699371 -1.944208 -5.006847 -0.027189 -3.088217 0.005298
 59 4.226147 -0.003202 0.000000 0.376651 -0.020218 0.153285
 60 -0.000001 5.000001 -0.000001 -0.153565 0.000087 2.718702
 61 0.000006 -0.000006 -3.713579 0.119535 -2.936655 -0.885276
 62 0.000001 0.000000 5.000000 3.053195 1.558589 -0.074929
 63 -0.000005 0.000005 3.713580 -0.311487 -2.845558 -0.582080
 64 0.000002 0.000000 -5.000000 -0.088728 1.558589 3.066333
 65 7.363603 1.646646 0.495663 -3.141593 -1.570796 0.000000
 66 -0.000005 0.000005 3.619081 -0.441735 -2.434423 -1.159240
 67 16.573921 -0.000000 0.000001 -0.000000 0.000000 -2.011748
 68 15.128181 -0.000000 -0.000000 0.026832 0.026147 -0.175154
 69 5.758666 4.244731 -0.000000 0.000000 -0.000000 2.033309
 70 3.177726 0.000001 0.000000 0.000000 0.000000 3.141593
 71 15.708952 0.000002 -0.000001 0.013957 0.013894 -0.093781
 72 0.275149 0.189215 -3.445207 3.130898 0.000409 -1.514604
 73 17.210192 -0.000001 0.000001 -0.000000 -0.000000 -2.319003
 74 0.000000 -0.000001 -5.000000 -0.079433 1.546568 -1.570857
 75 0.000007 -0.000004 -3.619079 0.260448 -2.945758 -1.468642
 76 16.573919 -0.000000 0.000001 0.000000 -0.000000 -1.562392
 77 15.128181 0.000000 0.000001 0.265624 -0.173430 0.666428
 78 5.758665 4.244731 0.000001 -0.000000 0.000000 1.483530
 79 4.003934 -0.000000 0.000000 0.000000 0.000000 0.000000
 80 15.708953 0.000000 0.000001 0.195074 -0.100553 0.460486
 81 0.273998 0.191090 3.439762 -3.130907 -0.000437 -1.508107
 82 17.210194 -0.000000 0.000000 -0.000000 -0.000000 -2.116793
 83 0.000001 0.000000 5.000000 -0.079311 1.595025 -1.570736
time 1
  0 0.500000 13.522099 26.931471 -0.243067 0.535714 -2.432935
  1 13.773750 5.584524 -22.520975 -0.544290 0.221328 2.303921
  2 -2.276936 0.000004 -1.238185 -1.570795 -1.570451 0.000000
  3 1.797305 0.711971 -0.001050 0.329209 -0.149353 0.001088
  4 4.118603 -0.003231 -0.000568 0.174645 -0.075373 -0.013204
  5 4.118602 -0.003229 -0.000568 0.175499 -0.125520 -0.022091
  6 4.118605 -0.003232 -0.000569 0.174645 -0.075358 -0.013291
  7 4.119476 -0.002449 -0.002403 0.750310 -0.089926 0.258480
  8 4.443599 0.000001 0.000000 0.438268 -0.223029 -0.517499
  9 9.024061 0.000000 -0.000000 0.000000 0.000000 0.000000
 10 0.155605 1.180246 1.262327 0.914443 -0.758517 2.082959
 11 6.384777 0.000002 0.000003 0.011078 0.444561 0.070808
 12 10.242682 -0.000002 -0.000001 -0.000000 0.000000 -1.866958
 13 11.375560 -0.000001 0.000001 -0.608203 0.040783 -0.521938
 14 0.728681 0.023432 -1.008293 0.125076 0.533138 0.208693
 15 2.136496 -0.000001 -0.000000 -0.000000 0.000000 -0.078540
 16 2.313139 0.000001 -0.000000 0.000000 0.000000 0.000000
 17 3.115506 -0.886040 -0.021432 -0.595518 -0.185122 0.249070
 18 2.011150 -0.000001 -0.000000 -0.000000 -0.000000 0.231961
 19 2.141380 0.000001 -0.000000 0.000000 0.000000 0.000000
 20 1.734173 0.000002 0.000001 -0.000000 -0.000000 0.116653
 21 0.000005 -4.440594 -0.000001 1.570544 -0.062990 -0.195737
 22 5.999999 0.000000 0.000000 -0.825423 -0.000000 -0.000000
 23 0.000001 -4.440599 0.000001 1.569944 -0.062987 0.004053
 24 11.375561 0.000001 0.000002 -1.087155 -0.048747 -0.284865
 25 -0.000001 -4.440603 0.000000 1.570144 -0.062988 0.004040
 26 10.510130 0.000001 0.000001 0.000000 -0.000000 -2.504276
 27 -0.000000 -1.748402 5.000001 0.000000 0.004007 1.602291
 28 5.500000 -0.000001 0.000000 -0.001787 -0.000000 -0.000000
 29 -0.000001 -1.940597 4.999999 -0.044472 0.004003 -0.000180
 30 6.551492 0.000001 0.000001 0.011379 0.376607 0.101555
 31 -0.000000 -1.940599 5.000001 -0.027189 -0.053376 0.005295
 32 6.551492 0.000001 0.000001 0.000644 0.187740 0.049122
 33 0.000001 -1.940601 4.999997 -0.066572 -0.152786 -0.110311
 34 -0.155605 -1.173166 -1.262329 1.479526 1.468824 -1.924847
 35 6.384778 0.000000 0.000000 -0.351927 -0.353791 0.039152
 36 10.242682 0.000001 0.000000 -0.000000 -0.000000 -1.987512
 37 11.375561 0.000001 0.000002 1.489667 -0.591250 0.309097
 38 0.728681 0.023431 1.008293 -2.027434 -0.416219 0.534151
 39 2.136497 0.000000 -0.000000 0.000000 -0.000000 1.282817
 40 2.313139 -0.000000 0.000000 0.000000 0.000000 3.141593
 41 3.115507 -0.886041 0.021432 0.518003 0.053583 0.680575
 42 2.011152 -0.000000 -0.000000 -0.000000 -0.000000 2.082010
 43 2.141380 0.000000 0.000000 0.000000 0.000000 3.141593
 44 1.734173 -0.000001 0.000000 -0.000000 0.000000 1.041748
 45 0.136315 -3.738193 2.525890 1.493698 2.759406 -1.474501
 46 3.401195 -0.082821 2.201398 1.059647 2.922362 1.414544
 47 11.389365 -0.000820 0.158782 1.555839 -0.305907 0.152067
 48 0.000000 -4.440598 -0.000000 1.570144 -3.078602 0.004040
 49 5.999999 -0.000000 0.000000 1.555839 0.000000 -0.000000
 50 0.000002 -4.440601 0.000001 1.569944 -3.078603 0.004053
 51 10.510131 0.000001 0.000001 -0.000000 -0.000000 -2.564552
 52 0.000000 -1.748399 -5.000001 3.141593 0.004007 -1.539299
 53 5.499999 0.000002 -0.000001 0.132097 -0.000000 0.000000
 54 -0.000000 0.000000 -5.000000 -0.044472 3.137589 -0.000177
 55 6.551492 -0.000000 0.000000 -0.132098 -0.171230 -0.008483
 56 -1.266844 -1.937442 -4.950562 -0.066572 -2.988806 -0.110308
 57 6.551493 0.000000 0.000000 -0.132098 -0.171230 -0.008483
 58 0.699371 -1.944208 -5.006847 -0.027189 -3.088217 0.005298
 59 4.226147 -0.003202 0.000000 0.376651 -0.020218 0.153285
 60 -0.000001 5.000001 -0.000001 -0.153565 0.000087 2.718702
 61 0.000006 -0.000006 -3.713579 0.119535 -2.936655 -0.885276
 62 0.000001 0.000000 5.000000 3.053195 1.558589 -0.074929
 63 -0.000005 0.000005 3.713580 -0.311487 -2.845558 -0.582080
 64 0.000002 0.000000 -5.000000 -0.088728 1.558589 3.066333
 65 7.363603 1.646646 0.495663 -3.141593 -1.570796 0.000000
 66 -0.000005 0.000005 3.619081 -0.441735 -2.434423 -1.159240
 67 16.573921 -0.000000 0.000001 -0.000000 0.000000 -2.011748
 68 15.128181 -0.000000 -0.000000 0.026832 0.026147 -0.175154
 69 5.758666 4.244731 -0.000000 0.000000 -0.000000 2.033309
 70 3.177726 0.000001 0.000000 0.000000 0.000000 3.141593
 71 15.708952 0.000002 -0.000001 0.013957 0.013894 -0.093781
 72 0.275149 0.189215 -3.445207 3.130898 0.000409 -1.514604
 73 17.210192 -0.000001 0.000001 -0.000000 -0.000000 -2.319003
 74 0.000000 -0.000001 -5.000000 -0.079433 1.546568 -1.570857
 75 0.000007 -0.000004 -3.619079 0.260448 -2.945758 -1.468642
 76 16.573919 -0.000000 0.000001 0.000000 -0.000000 -1.562392
 77 15.128181 0.000000 0.000001 0.265624 -0.173430 0.666428
 78 5.758665 4.244731 0.000001 -0.000000 0.000000 1.483530
 79 4.003934 -0.000000 0.000000 0.000000 0.000000 0.000000
 80 15.708953 0.000000 0.000001 0.195074 -0.100553 0.460486
 81 0.273998 0.191090 3.439762 -3.130907 -0.000437 -1.508107
 82 17.210194 -0.000000 0.000000 -0.000000 -0.000000 -2.116793
 83 0.000001 0.000000 5.000000 -0.079311 1.595025 -1.570736
end
