version 1
nodes
  0 "Bip01"  -1
  1 "Bip01 Footsteps"   0
  2 "Bip01 Pelvis"   0
  3 "Bip01 Spine"   2
  4 "Bip01 Spine1"   3
  5 "Bip01 Spine2"   4
  6 "Bip01 Spine3"   5
  7 "Bip01 Neck"   6
  8 "Bip01 Head"   7
  9 "Dummy21"   8
 10 "Bip01 L Clavicle"   7
 11 "Bip01 L UpperArm"  10
 12 "Bip01 L Forearm"  11
 13 "Bip01 L Hand"  12
 14 "Bip01 L Finger0"  13
 15 "Bip01 L Finger01"  14
 16 "Dummy06"  15
 17 "Bip01 L Finger1"  13
 18 "Bip01 L Finger11"  17
 19 "Dummy03"  18
 20 "-- L knuckle"  17
 21 "-- L knuckle_end"  20
 22 "-- L Forearm twist"  12
 23 "-- L Forearm twist_end"  22
 24 "-- L wrist"  12
 25 "-- L wrist_end"  24
 26 "-- L Elbow"  11
 27 "--L Elbow_end"  26
 28 "-- L bicep twist"  11
 29 "-- L bicep twist_end"  28
 30 "-- L shoulder outside"  10
 31 "-- L shoulder outside_end"  30
 32 "-- L Shoulder inside"  10
 33 "-- L Shoulder inside_end"  32
 34 "Bip01 R Clavicle"   7
 35 "Bip01 R UpperArm"  34
 36 "Bip01 R Forearm"  35
 37 "Bip01 R Hand"  36
 38 "Bip01 R Finger0"  37
 39 "Bip01 R Finger01"  38
 40 "Dummy01"  39
 41 "Bip01 R Finger1"  37
 42 "Bip01 R Finger11"  41
 43 "Dummy02"  42
 44 "-- R knuckle"  41
 45 "Point06"  44
 46 "Steyr Aug"  37
 47 "-- R wrist"  36
 48 "-- R wrist_end"  47
 49 "-- R forearm twist"  36
 50 "-- R forearm twist_end"  49
 51 "-- R Elbow"  35
 52 "--R Elbow_end"  51
 53 "-- R bicep twist"  35
 54 "-- R bicep twist_end"  53
 55 "-- R Shoulder inside"  34
 56 "-- R Shoulder inside_end"  55
 57 "-- R shoulder outside"  34
 58 "-- R shoulder outside_end"  57
 59 "-- Neck smooth"   6
 60 "-- neck smooth end"  59
 61 "-- R Butt"   2
 62 "--R Butt_end"  61
 63 "-- L butt"   2
 64 "--L butt_end"  63
 65 "GIGN01"   2
 66 "Bip01 L Thigh"   2
 67 "Bip01 L Calf"  66
 68 "Bip01 L Foot"  67
 69 "Bip01 L Toe0"  68
 70 "Dummy16"  69
 71 "-- L ankle"  67
 72 "-- L ankleend"  71
 73 "-- L Knee"  66
 74 "--L Knee_end"  73
 75 "Bip01 R Thigh"   2
 76 "Bip01 R Calf"  75
 77 "Bip01 R Foot"  76
 78 "Bip01 R Toe0"  77
 79 "Dummy11"  78
 80 "-- R Ankle"  76
 81 "-- R ankleend"  80
 82 "-- R Knee"  75
 83 "--R Knee_end"  82
end
skeleton
time 0
  0 0.233849 -2.251689 32.029854 -0.025849 0.174554 -1.569172
  1 5.757116 0.843791 -32.635391 -0.174512 -0.026131 1.569196
  2 -2.027298 0.045434 -1.614168 -1.570795 -1.570451 0.000000
  3 1.797013 0.711904 0.000824 -0.255064 0.059353 -0.056630
  4 4.119806 -0.002945 0.000804 -0.247836 0.034123 0.378541
  5 4.118882 -0.003159 0.000825 -0.254412 -0.043235 0.100645
  6 4.118088 -0.003196 0.000518 -0.160487 0.159230 -0.184705
  7 4.119895 -0.003176 0.000881 -0.257829 0.217524 0.328973
  8 4.443599 0.000000 0.000000 1.241024 0.070261 -0.335610
  9 9.024059 -0.000000 0.000000 0.000000 0.000000 0.000000
 10 -0.373942 -0.427866 1.635964 -0.377565 -1.447678 -3.137830
 11 6.384776 -0.000001 0.000002 -0.989502 0.315015 -0.596344
 12 10.242682 0.000000 0.000001 0.000000 0.000000 -1.927438
 13 11.375562 -0.000002 -0.000001 -1.970283 -0.357274 1.186224
 14 0.728679 0.023431 -1.008293 1.051563 0.167831 0.364467
 15 2.136495 -0.000002 0.000000 -0.000000 -0.000000 -0.078540
 16 2.313138 -0.000002 -0.000000 0.000000 0.000000 0.000000
 17 3.115505 -0.886041 -0.021432 -0.166499 0.000392 0.514872
 18 2.011150 -0.000000 -0.000002 0.000000 0.000000 1.322791
 19 2.141380 0.000001 0.000003 0.000000 0.000000 0.000000
 20 1.734172 -0.000000 -0.000001 -0.000000 0.000000 0.660693
 21 0.000005 -4.440592 0.000000 1.570544 -0.062990 -0.195737
 22 6.000000 0.000000 -0.000001 -1.850303 0.000000 0.000000
 23 0.000002 -4.440602 0.000000 1.569944 -0.062987 0.004053
 24 11.375562 0.000001 0.000002 -1.717418 -0.239704 0.549915
 25 0.000000 -4.440604 -0.000001 1.570144 -0.062988 0.004040
 26 10.510132 0.000002 -0.000001 -0.000000 -0.000000 -2.534515
 27 0.000000 -1.748401 4.999999 -0.000000 0.004007 1.602291
 28 5.500000 0.000001 0.000000 0.367488 0.000000 0.000000
 29 -0.000001 -1.940598 5.000000 -0.044472 0.004003 -0.000180
 30 6.551490 -0.000000 0.000002 -0.686998 0.279777 -0.432160
 31 -0.000001 -1.940598 5.000001 -0.027189 -0.053376 0.005295
 32 6.551490 -0.000000 0.000002 -0.301474 0.167599 -0.174320
 33 -0.000002 -1.940599 4.999997 -0.066572 -0.152786 -0.110311
 34 0.373948 0.434944 -1.635963 -1.346449 1.062305 1.512278
 35 6.384776 0.000000 -0.000001 0.128465 0.110020 -1.324971
 36 10.242681 -0.000000 0.000001 -0.000000 0.000000 -1.824619
 37 11.375561 0.000000 0.000000 2.770381 0.170577 0.580755
 38 0.728679 0.023431 1.008290 -1.579583 -0.319038 0.212973
 39 2.136497 0.000001 -0.000000 -0.000000 -0.000000 1.282817
 40 2.313139 -0.000002 -0.000000 0.000000 0.000000 3.141593
 41 3.115506 -0.886041 0.021430 0.420765 0.316066 0.167178
 42 2.011151 0.000001 0.000003 -0.000000 -0.000000 2.082010
 43 2.141380 0.000001 -0.000002 0.000000 0.000000 3.141593
 44 1.734172 -0.000001 -0.000001 -0.000000 -0.000000 1.041748
 45 0.136315 -3.738193 2.525891 1.493698 2.759406 -1.474501
 46 2.392942 0.494656 0.382011 1.580188 0.187932 -0.064451
 47 11.389367 -0.000820 0.158780 2.155552 0.183304 0.273051
 48 -0.000000 -4.440599 -0.000001 1.570144 -3.078602 0.004040
 49 6.000000 0.000000 0.000001 2.155552 -0.000000 -0.000000
 50 0.000002 -4.440598 -0.000001 1.569944 -3.078603 0.004053
 51 10.510131 -0.000001 0.000000 0.000000 0.000000 -2.483106
 52 0.000002 -1.748400 -5.000002 -3.141593 0.004007 -1.539299
 53 5.500000 0.000000 -0.000001 -0.069440 -0.000000 0.000000
 54 -0.000001 -0.000000 -5.000000 -0.044472 3.137589 -0.000177
 55 6.551490 0.000000 -0.000001 0.069440 0.005025 -0.354494
 56 -1.266844 -1.937443 -4.950560 -0.066572 -2.988806 -0.110308
 57 6.551490 0.000000 -0.000001 0.069440 0.005025 -0.354494
 58 0.699370 -1.944208 -5.006847 -0.027189 -3.088217 0.005298
 59 4.226146 -0.003201 0.000000 0.000000 0.000000 0.000000
 60 0.000001 5.000000 0.000000 -0.153564 0.000087 2.718702
 61 0.000005 -0.000005 -3.713579 0.365818 2.880119 -0.191589
 62 0.000003 -0.000000 5.000000 3.053196 1.558589 -0.074928
 63 -0.000005 0.000006 3.713579 -0.001619 -3.122277 -0.475127
 64 0.000000 0.000000 -5.000000 -0.088726 1.558589 3.066334
 65 7.363604 1.646647 0.495663 3.141593 -1.570796 0.000000
 66 -0.000005 0.000007 3.619081 0.008255 -3.110080 -0.985231
 67 16.573921 0.000002 -0.000000 0.000000 -0.000000 -1.065827
 68 15.128181 0.000000 0.000000 -0.102296 0.010178 0.114297
 69 5.758665 4.244730 0.000000 0.000000 0.000000 1.667687
 70 3.177726 0.000000 0.000000 0.000000 0.000000 3.141593
 71 15.708954 0.000001 -0.000000 -0.051525 0.003996 0.061523
 72 0.275148 0.189215 -3.445207 3.130898 0.000409 -1.514604
 73 17.210194 0.000000 0.000000 0.000000 -0.000000 -1.893339
 74 -0.000000 0.000000 -4.999999 -0.079430 1.546568 -1.570855
 75 0.000006 -0.000004 -3.619081 0.577895 2.675801 -0.242118
 76 16.573921 -0.000001 -0.000002 -0.000000 -0.000000 -1.163030
 77 15.128181 0.000001 0.000001 0.089479 0.309197 0.659208
 78 5.758665 4.244730 -0.000000 -0.000000 -0.000000 1.815142
 79 4.003934 0.000000 0.000000 0.000000 0.000000 0.000000
 80 15.708954 0.000000 0.000002 0.042277 0.226871 0.443133
 81 0.273998 0.191089 3.439762 -3.130907 -0.000437 -1.508107
 82 17.210194 -0.000001 -0.000002 0.000000 -0.000000 -1.937080
 83 0.000001 -0.000001 5.000000 -0.079314 1.595025 -1.570739
time 1
  0 0.233849 -2.251689 32.029854 -0.025849 0.174554 -1.569172
  1 5.757116 0.843791 -32.635391 -0.174512 -0.026131 1.569196
  2 -2.027298 0.045434 -1.614168 -1.570795 -1.570451 0.000000
  3 1.797009 0.711891 0.000768 -0.237458 0.045146 -0.053447
  4 4.119805 -0.002958 0.000749 -0.230314 0.019892 0.381619
  5 4.118890 -0.003177 0.000769 -0.237133 -0.057446 0.103821
  6 4.118205 -0.003223 0.000453 -0.141246 0.207152 -0.152257
  7 4.119913 -0.003167 0.000882 -0.254589 0.144947 0.355028
  8 4.443598 -0.000001 -0.000000 1.127954 0.162990 -0.335745
  9 9.024062 0.000000 -0.000000 0.000000 0.000000 0.000000
 10 -0.250277 -0.428270 1.659285 -0.409880 -1.524353 -3.112017
 11 6.384776 0.000001 0.000001 -0.991791 0.263508 -0.699618
 12 10.242682 0.000000 0.000001 -0.000000 -0.000000 -1.782681
 13 11.375563 -0.000001 0.000002 -1.982314 -0.362498 1.087230
 14 0.728681 0.023432 -1.008294 1.051563 0.167831 0.364467
 15 2.136496 0.000004 0.000001 -0.000000 -0.000000 -0.078540
 16 2.313139 -0.000000 0.000000 0.000000 0.000000 0.000000
 17 3.115507 -0.886042 -0.021431 -0.166499 0.000392 0.514872
 18 2.011150 0.000000 -0.000001 -0.000000 0.000000 1.322791
 19 2.141379 0.000000 -0.000001 0.000000 0.000000 0.000000
 20 1.734172 0.000001 -0.000002 -0.000000 -0.000000 0.660693
 21 0.000006 -4.440592 -0.000000 1.570544 -0.062990 -0.195737
 22 6.000000 -0.000000 0.000001 -1.855985 0.000000 0.000000
 23 -0.000001 -4.440600 0.000000 1.569944 -0.062987 0.004053
 24 11.375562 -0.000000 0.000005 -1.724617 -0.237488 0.503247
 25 -0.000001 -4.440603 0.000001 1.570144 -0.062988 0.004040
 26 10.510129 0.000001 0.000001 -0.000000 0.000000 -2.462137
 27 0.000002 -1.748401 5.000000 -0.000000 0.004007 1.602290
 28 5.500000 0.000002 -0.000000 0.362641 0.000000 0.000000
 29 -0.000002 -1.940599 5.000003 -0.044472 0.004003 -0.000180
 30 6.551491 0.000000 -0.000002 -0.675759 0.235725 -0.486919
 31 -0.000001 -1.940601 5.000004 -0.027189 -0.053376 0.005295
 32 6.551491 0.000000 -0.000002 -0.297335 0.150965 -0.203986
 33 -0.000001 -1.940600 4.999999 -0.066572 -0.152786 -0.110311
 34 0.250276 0.435348 -1.659284 -1.281570 1.035155 1.547532
 35 6.384777 -0.000000 0.000002 0.157943 0.144816 -1.244724
 36 10.242681 -0.000001 -0.000002 -0.000000 0.000000 -1.807592
 37 11.375560 0.000000 0.000002 2.771738 0.184097 0.602928
 38 0.728680 0.023431 1.008294 -1.579583 -0.319038 0.212973
 39 2.136498 -0.000002 -0.000000 -0.000000 0.000000 1.282817
 40 2.313138 0.000000 -0.000000 0.000000 0.000000 3.141593
 41 3.115507 -0.886041 0.021432 0.420766 0.316066 0.167178
 42 2.011150 0.000000 -0.000001 -0.000000 0.000000 2.082010
 43 2.141379 -0.000001 0.000000 0.000000 0.000000 3.141593
 44 1.734172 -0.000001 -0.000001 -0.000000 0.000000 1.041748
 45 0.136315 -3.738193 2.525891 1.493698 2.759406 -1.474501
 46 2.392942 0.494655 0.382013 1.580188 0.187932 -0.064451
 47 11.389365 -0.000819 0.158783 2.154128 0.192689 0.280357
 48 0.000001 -4.440598 0.000000 1.570144 -3.078602 0.004040
 49 5.999999 0.000000 0.000001 2.154128 0.000000 -0.000000
 50 0.000002 -4.440602 0.000001 1.569944 -3.078603 0.004053
 51 10.510130 -0.000001 -0.000000 -0.000000 -0.000000 -2.474592
 52 0.000001 -1.748400 -5.000000 3.141593 0.004007 -1.539299
 53 5.500000 -0.000000 0.000001 -0.080659 0.000000 0.000000
 54 -0.000001 -0.000000 -5.000002 -0.044472 3.137589 -0.000177
 55 6.551490 0.000000 -0.000000 0.080659 0.012370 -0.333506
 56 -1.266844 -1.937443 -4.950562 -0.066572 -2.988806 -0.110308
 57 6.551491 -0.000001 0.000003 0.080659 0.012370 -0.333506
 58 0.699370 -1.944209 -5.006846 -0.027189 -3.088217 0.005298
 59 4.226146 -0.003202 -0.000000 0.000000 0.000000 -0.000000
 60 -0.000000 5.000000 -0.000000 -0.153564 0.000087 2.718702
 61 0.000005 -0.000005 -3.713579 0.365818 2.880119 -0.191589
 62 0.000003 -0.000000 5.000000 3.053196 1.558589 -0.074928
 63 -0.000005 0.000006 3.713579 -0.001619 -3.122277 -0.475127
 64 0.000000 0.000000 -5.000000 -0.088726 1.558589 3.066334
 65 7.363604 1.646647 0.495663 3.141593 -1.570796 0.000000
 66 -0.000005 0.000007 3.619081 0.008255 -3.110080 -0.985231
 67 16.573921 0.000002 -0.000000 0.000000 -0.000000 -1.065827
 68 15.128181 0.000000 0.000000 -0.102296 0.010178 0.114297
 69 5.758665 4.244730 0.000000 0.000000 0.000000 1.667687
 70 3.177726 0.000000 0.000000 0.000000 0.000000 3.141593
 71 15.708954 0.000001 -0.000000 -0.051525 0.003996 0.061523
 72 0.275148 0.189215 -3.445207 3.130898 0.000409 -1.514604
 73 17.210194 0.000000 0.000000 0.000000 -0.000000 -1.893339
 74 -0.000000 0.000000 -4.999999 -0.079430 1.546568 -1.570855
 75 0.000006 -0.000004 -3.619081 0.577895 2.675801 -0.242118
 76 16.573921 -0.000001 -0.000002 -0.000000 -0.000000 -1.163030
 77 15.128181 0.000001 0.000001 0.089479 0.309197 0.659208
 78 5.758665 4.244730 -0.000000 -0.000000 -0.000000 1.815142
 79 4.003934 0.000000 0.000000 0.000000 0.000000 0.000000
 80 15.708954 0.000000 0.000002 0.042277 0.226871 0.443133
 81 0.273998 0.191089 3.439762 -3.130907 -0.000437 -1.508107
 82 17.210194 -0.000001 -0.000002 0.000000 -0.000000 -1.937080
 83 0.000001 -0.000001 5.000000 -0.079314 1.595025 -1.570739
time 2
  0 0.233849 -2.251689 32.029854 -0.025849 0.174554 -1.569172
  1 5.757116 0.843791 -32.635391 -0.174512 -0.026131 1.569196
  2 -2.027298 0.045434 -1.614168 -1.570795 -1.570451 0.000000
  3 1.797002 0.711878 0.000713 -0.219908 0.030885 -0.050516
  4 4.119812 -0.002971 0.000693 -0.212839 0.005609 0.384447
  5 4.118887 -0.003186 0.000714 -0.219883 -0.071710 0.106753
  6 4.118321 -0.003246 0.000379 -0.120193 0.254423 -0.118497
  7 4.119958 -0.003147 0.000889 -0.254039 -0.010073 0.409508
  8 4.443598 0.000000 0.000000 0.969483 0.370364 -0.306670
  9 9.024058 0.000000 -0.000001 0.000000 0.000000 0.000000
 10 0.017451 -0.431902 1.677024 2.789961 -1.453469 -0.042532
 11 6.384776 0.000001 0.000004 -0.999029 0.173624 -0.801525
 12 10.242680 -0.000000 -0.000001 0.000000 -0.000000 -1.564445
 13 11.375559 -0.000001 -0.000000 -1.995230 -0.327519 0.939089
 14 0.728681 0.023431 -1.008292 1.051563 0.167831 0.364467
 15 2.136494 0.000000 0.000001 -0.000000 -0.000000 -0.078540
 16 2.313139 -0.000003 0.000000 0.000000 0.000000 0.000000
 17 3.115507 -0.886040 -0.021432 -0.166499 0.000392 0.514872
 18 2.011150 -0.000002 0.000000 0.000000 0.000000 1.322792
 19 2.141379 0.000000 -0.000001 0.000000 0.000000 0.000000
 20 1.734172 -0.000001 -0.000002 -0.000000 0.000000 0.660693
 21 0.000006 -4.440594 -0.000002 1.570544 -0.062990 -0.195737
 22 5.999999 -0.000001 -0.000001 -1.869742 0.000000 0.000000
 23 0.000003 -4.440600 0.000000 1.569944 -0.062987 0.004053
 24 11.375561 -0.000002 0.000003 -1.741586 -0.213708 0.440453
 25 -0.000001 -4.440604 -0.000002 1.570144 -0.062988 0.004040
 26 10.510131 0.000001 -0.000002 -0.000000 -0.000000 -2.353019
 27 0.000001 -1.748400 4.999999 0.000000 0.004007 1.602291
 28 5.500000 -0.000000 -0.000000 0.364530 0.000000 0.000000
 29 -0.000002 -1.940599 5.000002 -0.044472 0.004003 -0.000180
 30 6.551492 -0.000000 0.000002 -0.675620 0.178794 -0.541699
 31 -0.000000 -1.940600 5.000002 -0.027189 -0.053376 0.005295
 32 6.551492 0.000000 0.000002 -0.298711 0.128783 -0.233423
 33 0.000001 -1.940599 4.999998 -0.066572 -0.152786 -0.110311
 34 -0.017453 0.438983 -1.677022 -1.153945 0.978602 1.599410
 35 6.384777 -0.000000 0.000002 0.217473 0.162025 -1.135315
 36 10.242681 -0.000000 0.000001 -0.000000 -0.000000 -1.771263
 37 11.375561 0.000001 -0.000001 2.775667 0.212825 0.650504
 38 0.728679 0.023430 1.008291 -1.579583 -0.319038 0.212973
 39 2.136497 -0.000002 0.000001 -0.000000 0.000000 1.282817
 40 2.313139 0.000002 0.000001 0.000000 0.000000 3.141593
 41 3.115505 -0.886042 0.021433 0.420766 0.316066 0.167178
 42 2.011151 -0.000000 -0.000001 -0.000000 -0.000000 2.082010
 43 2.141380 0.000001 -0.000002 0.000000 0.000000 3.141593
 44 1.734173 -0.000001 0.000001 0.000000 0.000000 1.041748
 45 0.136315 -3.738193 2.525891 1.493698 2.759406 -1.474501
 46 2.392942 0.494655 0.382014 1.580188 0.187932 -0.064451
 47 11.389365 -0.000819 0.158783 2.151122 0.212498 0.295736
 48 0.000002 -4.440599 0.000002 1.570144 -3.078602 0.004040
 49 6.000000 0.000000 -0.000000 2.151122 0.000000 -0.000000
 50 0.000001 -4.440602 0.000000 1.569944 -3.078603 0.004053
 51 10.510131 -0.000000 0.000003 0.000000 0.000000 -2.456428
 52 -0.000000 -1.748400 -5.000000 -3.141593 0.004007 -1.539299
 53 5.500000 -0.000000 0.000000 -0.097748 0.000000 0.000000
 54 0.000000 -0.000000 -4.999999 -0.044472 3.137589 -0.000177
 55 6.551491 0.000000 0.000001 0.097748 0.011456 -0.312224
 56 -1.266844 -1.937443 -4.950562 -0.066572 -2.988806 -0.110308
 57 6.551491 0.000000 0.000001 0.097748 0.011456 -0.312224
 58 0.699370 -1.944207 -5.006848 -0.027189 -3.088217 0.005298
 59 4.226144 -0.003201 0.000000 0.000000 0.000000 -0.000000
 60 -0.000000 5.000001 -0.000000 -0.153564 0.000087 2.718702
 61 0.000005 -0.000005 -3.713579 0.365818 2.880119 -0.191589
 62 0.000003 -0.000000 5.000000 3.053196 1.558589 -0.074928
 63 -0.000005 0.000006 3.713579 -0.001619 -3.122277 -0.475127
 64 0.000000 0.000000 -5.000000 -0.088726 1.558589 3.066334
 65 7.363604 1.646647 0.495663 3.141593 -1.570796 0.000000
 66 -0.000005 0.000007 3.619081 0.008255 -3.110080 -0.985231
 67 16.573921 0.000002 -0.000000 0.000000 -0.000000 -1.065827
 68 15.128181 0.000000 0.000000 -0.102296 0.010178 0.114297
 69 5.758665 4.244730 0.000000 0.000000 0.000000 1.667687
 70 3.177726 0.000000 0.000000 0.000000 0.000000 3.141593
 71 15.708954 0.000001 -0.000000 -0.051525 0.003996 0.061523
 72 0.275148 0.189215 -3.445207 3.130898 0.000409 -1.514604
 73 17.210194 0.000000 0.000000 0.000000 -0.000000 -1.893339
 74 -0.000000 0.000000 -4.999999 -0.079430 1.546568 -1.570855
 75 0.000006 -0.000004 -3.619081 0.577895 2.675801 -0.242118
 76 16.573921 -0.000001 -0.000002 -0.000000 -0.000000 -1.163030
 77 15.128181 0.000001 0.000001 0.089479 0.309197 0.659208
 78 5.758665 4.244730 -0.000000 -0.000000 -0.000000 1.815142
 79 4.003934 0.000000 0.000000 0.000000 0.000000 0.000000
 80 15.708954 0.000000 0.000002 0.042277 0.226871 0.443133
 81 0.273998 0.191089 3.439762 -3.130907 -0.000437 -1.508107
 82 17.210194 -0.000001 -0.000002 0.000000 -0.000000 -1.937080
 83 0.000001 -0.000001 5.000000 -0.079314 1.595025 -1.570739
time 3
  0 0.233849 -2.251689 32.029854 -0.025849 0.174554 -1.569172
  1 5.757116 0.843791 -32.635391 -0.174512 -0.026131 1.569196
  2 -2.027298 0.045434 -1.614168 -1.570795 -1.570451 0.000000
  3 1.796998 0.711867 0.000657 -0.202405 0.016574 -0.047837
  4 4.119814 -0.002982 0.000637 -0.195404 -0.008722 0.387024
  5 4.118898 -0.003201 0.000657 -0.202655 -0.086022 0.109442
  6 4.118427 -0.003261 0.000304 -0.097199 0.300959 -0.083250
  7 4.119998 -0.003122 0.000905 -0.262472 -0.170388 0.466663
  8 4.443601 -0.000002 -0.000000 0.820475 0.604434 -0.295305
  9 9.024062 -0.000000 0.000001 0.000000 0.000000 0.000000
 10 0.293810 -0.439543 1.649145 2.771820 -1.283963 -0.038892
 11 6.384775 0.000000 0.000001 -1.004524 0.064111 -0.900146
 12 10.242682 -0.000001 0.000001 -0.000000 -0.000000 -1.319516
 13 11.375561 -0.000000 0.000003 -2.009166 -0.281831 0.774900
 14 0.728680 0.023432 -1.008292 1.051563 0.167831 0.364467
 15 2.136496 -0.000003 0.000001 -0.000000 -0.000000 -0.078540
 16 2.313139 0.000003 0.000001 0.000000 0.000000 0.000000
 17 3.115506 -0.886042 -0.021434 -0.166499 0.000392 0.514872
 18 2.011152 -0.000001 0.000001 0.000000 0.000000 1.322792
 19 2.141380 0.000002 0.000001 0.000000 0.000000 0.000000
 20 1.734173 -0.000000 -0.000001 0.000000 -0.000000 0.660693
 21 0.000006 -4.440594 -0.000003 1.570544 -0.062990 -0.195737
 22 6.000001 -0.000001 0.000004 -1.887130 0.000000 -0.000000
 23 0.000001 -4.440601 -0.000000 1.569944 -0.062987 0.004053
 24 11.375562 -0.000001 0.000008 -1.760713 -0.185113 0.372559
 25 -0.000001 -4.440604 -0.000001 1.570144 -0.062988 0.004040
 26 10.510130 -0.000001 0.000000 -0.000000 0.000000 -2.230554
 27 0.000001 -1.748399 4.999998 0.000000 0.004007 1.602291
 28 5.499999 -0.000001 0.000000 0.372784 -0.000000 -0.000000
 29 -0.000000 -1.940599 5.000000 -0.044472 0.004003 -0.000180
 30 6.551490 -0.000001 0.000001 -0.687510 0.117769 -0.594562
 31 0.000000 -1.940600 5.000000 -0.027189 -0.053376 0.005295
 32 6.551490 -0.000000 0.000001 -0.305119 0.105531 -0.260535
 33 -0.000000 -1.940599 4.999999 -0.066572 -0.152786 -0.110311
 34 -0.293801 0.446616 -1.649145 -1.030152 0.926265 1.627404
 35 6.384776 -0.000001 0.000002 0.275119 0.163774 -1.022210
 36 10.242681 -0.000000 -0.000000 -0.000000 -0.000000 -1.733651
 37 11.375561 0.000001 -0.000001 2.781241 0.242338 0.700216
 38 0.728680 0.023431 1.008291 -1.579583 -0.319038 0.212973
 39 2.136496 0.000001 -0.000000 -0.000000 0.000000 1.282817
 40 2.313140 0.000001 0.000000 0.000000 0.000000 3.141593
 41 3.115508 -0.886040 0.021431 0.420766 0.316066 0.167178
 42 2.011151 -0.000001 0.000000 -0.000000 0.000000 2.082010
 43 2.141380 -0.000000 0.000001 0.000000 0.000000 3.141593
 44 1.734173 -0.000001 0.000001 -0.000000 -0.000000 1.041748
 45 0.136316 -3.738193 2.525893 1.493698 2.759406 -1.474501
 46 2.392943 0.494656 0.382011 1.580188 0.187932 -0.064451
 47 11.389366 -0.000819 0.158780 2.148057 0.232777 0.311453
 48 0.000000 -4.440598 0.000000 1.570144 -3.078602 0.004040
 49 6.000000 0.000000 -0.000002 2.148057 -0.000000 -0.000000
 50 0.000003 -4.440602 0.000000 1.569944 -3.078603 0.004053
 51 10.510131 -0.000001 0.000001 -0.000000 -0.000000 -2.437622
 52 0.000001 -1.748400 -5.000004 -3.141593 0.004007 -1.539299
 53 5.500000 -0.000000 0.000003 -0.111579 -0.000000 -0.000000
 54 -0.000001 -0.000000 -5.000001 -0.044472 3.137590 -0.000177
 55 6.551490 0.000000 0.000000 0.111579 0.009139 -0.294418
 56 -1.266844 -1.937442 -4.950558 -0.066572 -2.988806 -0.110308
 57 6.551491 -0.000000 -0.000000 0.111579 0.009139 -0.294418
 58 0.699370 -1.944207 -5.006847 -0.027189 -3.088217 0.005298
 59 4.226146 -0.003202 0.000000 -0.000000 0.000000 0.000000
 60 -0.000001 5.000000 0.000000 -0.153564 0.000087 2.718702
 61 0.000005 -0.000005 -3.713579 0.365818 2.880119 -0.191589
 62 0.000003 -0.000000 5.000000 3.053196 1.558589 -0.074928
 63 -0.000005 0.000006 3.713579 -0.001619 -3.122277 -0.475127
 64 0.000000 0.000000 -5.000000 -0.088726 1.558589 3.066334
 65 7.363604 1.646647 0.495663 3.141593 -1.570796 0.000000
 66 -0.000005 0.000007 3.619081 0.008255 -3.110080 -0.985231
 67 16.573921 0.000002 -0.000000 0.000000 -0.000000 -1.065827
 68 15.128181 0.000000 0.000000 -0.102296 0.010178 0.114297
 69 5.758665 4.244730 0.000000 0.000000 0.000000 1.667687
 70 3.177726 0.000000 0.000000 0.000000 0.000000 3.141593
 71 15.708954 0.000001 -0.000000 -0.051525 0.003996 0.061523
 72 0.275148 0.189215 -3.445207 3.130898 0.000409 -1.514604
 73 17.210194 0.000000 0.000000 0.000000 -0.000000 -1.893339
 74 -0.000000 0.000000 -4.999999 -0.079430 1.546568 -1.570855
 75 0.000006 -0.000004 -3.619081 0.577895 2.675801 -0.242118
 76 16.573921 -0.000001 -0.000002 -0.000000 -0.000000 -1.163030
 77 15.128181 0.000001 0.000001 0.089479 0.309197 0.659208
 78 5.758665 4.244730 -0.000000 -0.000000 -0.000000 1.815142
 79 4.003934 0.000000 0.000000 0.000000 0.000000 0.000000
 80 15.708954 0.000000 0.000002 0.042277 0.226871 0.443133
 81 0.273998 0.191089 3.439762 -3.130907 -0.000437 -1.508107
 82 17.210194 -0.000001 -0.000002 0.000000 -0.000000 -1.937080
 83 0.000001 -0.000001 5.000000 -0.079314 1.595025 -1.570739
time 4
  0 0.233849 -2.251689 32.029854 -0.025849 0.174554 -1.569172
  1 5.757116 0.843791 -32.635391 -0.174512 -0.026131 1.569196
  2 -2.027298 0.045434 -1.614168 -1.570795 -1.570451 0.000000
  3 1.796998 0.711867 0.000657 -0.202405 0.016574 -0.047837
  4 4.119814 -0.002982 0.000637 -0.195404 -0.008722 0.387024
  5 4.118898 -0.003201 0.000657 -0.202655 -0.086022 0.109442
  6 4.118427 -0.003261 0.000304 -0.097199 0.300959 -0.083250
  7 4.120028 -0.003106 0.000920 -0.274415 -0.283690 0.509326
  8 4.443598 0.000000 0.000001 0.781478 0.766471 -0.250767
  9 9.024063 0.000000 -0.000000 0.000000 0.000000 0.000000
 10 0.484986 -0.447236 1.601223 2.764356 -1.163709 -0.041925
 11 6.384775 0.000000 0.000001 -1.003019 0.024642 -0.902831
 12 10.242682 -0.000000 -0.000002 0.000000 0.000000 -1.222454
 13 11.375561 0.000001 -0.000002 -2.019387 -0.237576 0.707461
 14 0.728680 0.023431 -1.008295 1.051563 0.167831 0.364467
 15 2.136495 -0.000001 0.000001 0.000000 -0.000000 -0.078540
 16 2.313139 0.000001 -0.000000 0.000000 0.000000 0.000000
 17 3.115507 -0.886041 -0.021434 -0.166499 0.000392 0.514872
 18 2.011151 -0.000001 -0.000001 0.000000 0.000000 1.322792
 19 2.141380 -0.000000 0.000000 0.000000 0.000000 0.000000
 20 1.734173 -0.000001 0.000001 -0.000000 0.000000 0.660693
 21 0.000005 -4.440597 0.000003 1.570544 -0.062990 -0.195737
 22 5.999999 0.000000 -0.000003 -1.899961 0.000000 -0.000000
 23 0.000001 -4.440602 0.000000 1.569944 -0.062987 0.004053
 24 11.375562 0.000000 0.000002 -1.773243 -0.161618 0.346449
 25 0.000001 -4.440604 -0.000002 1.570144 -0.062988 0.004040
 26 10.510130 -0.000000 -0.000002 0.000000 0.000000 -2.182023
 27 -0.000000 -1.748400 5.000000 0.000000 0.004007 1.602291
 28 5.500000 0.000000 -0.000002 0.377029 0.000000 0.000000
 29 -0.000002 -1.940599 5.000003 -0.044472 0.004003 -0.000180
 30 6.551490 -0.000001 0.000001 -0.693223 0.096078 -0.601143
 31 0.000000 -1.940600 5.000000 -0.027189 -0.053376 0.005295
 32 6.551490 -0.000000 0.000001 -0.308650 0.096575 -0.264770
 33 -0.000001 -1.940598 4.999997 -0.066572 -0.152786 -0.110311
 34 -0.484985 0.454314 -1.601221 -0.943667 0.895400 1.635990
 35 6.384776 -0.000001 0.000002 0.305817 0.132531 -0.985584
 36 10.242682 -0.000000 0.000003 0.000000 0.000000 -1.706974
 37 11.375562 -0.000000 -0.000004 2.786137 0.263090 0.735808
 38 0.728681 0.023430 1.008289 -1.579583 -0.319038 0.212973
 39 2.136495 0.000001 -0.000000 0.000000 -0.000000 1.282817
 40 2.313140 0.000001 -0.000000 0.000000 0.000000 3.141593
 41 3.115507 -0.886042 0.021428 0.420766 0.316066 0.167178
 42 2.011150 -0.000000 -0.000001 -0.000000 -0.000000 2.082010
 43 2.141379 -0.000001 -0.000001 0.000000 0.000000 3.141593
 44 1.734172 -0.000002 -0.000002 0.000000 0.000000 1.041748
 45 0.136315 -3.738193 2.525890 1.493698 2.759406 -1.474501
 46 2.392944 0.494655 0.382010 1.580188 0.187932 -0.064451
 47 11.389367 -0.000819 0.158778 2.145911 0.247074 0.322539
 48 -0.000000 -4.440599 -0.000001 1.570144 -3.078602 0.004040
 49 6.000000 0.000001 0.000000 2.145911 0.000000 -0.000000
 50 0.000003 -4.440601 0.000000 1.569944 -3.078603 0.004053
 51 10.510131 -0.000000 0.000001 -0.000000 0.000000 -2.424283
 52 -0.000001 -1.748400 -4.999999 -3.141593 0.004007 -1.539299
 53 5.500000 -0.000001 0.000003 -0.117064 -0.000000 0.000000
 54 -0.000001 0.000000 -5.000000 -0.044472 3.137589 -0.000177
 55 6.551489 -0.000001 0.000002 0.117065 -0.002323 -0.289428
 56 -1.266844 -1.937443 -4.950561 -0.066572 -2.988806 -0.110308
 57 6.551490 -0.000001 0.000002 0.117065 -0.002323 -0.289428
 58 0.699370 -1.944208 -5.006847 -0.027189 -3.088217 0.005298
 59 4.226146 -0.003202 0.000000 -0.000000 0.000000 0.000000
 60 -0.000001 5.000000 0.000000 -0.153564 0.000087 2.718702
 61 0.000005 -0.000005 -3.713579 0.365818 2.880119 -0.191589
 62 0.000003 -0.000000 5.000000 3.053196 1.558589 -0.074928
 63 -0.000005 0.000006 3.713579 -0.001619 -3.122277 -0.475127
 64 0.000000 0.000000 -5.000000 -0.088726 1.558589 3.066334
 65 7.363604 1.646647 0.495663 3.141593 -1.570796 0.000000
 66 -0.000005 0.000007 3.619081 0.008255 -3.110080 -0.985231
 67 16.573921 0.000002 -0.000000 0.000000 -0.000000 -1.065827
 68 15.128181 0.000000 0.000000 -0.102296 0.010178 0.114297
 69 5.758665 4.244730 0.000000 0.000000 0.000000 1.667687
 70 3.177726 0.000000 0.000000 0.000000 0.000000 3.141593
 71 15.708954 0.000001 -0.000000 -0.051525 0.003996 0.061523
 72 0.275148 0.189215 -3.445207 3.130898 0.000409 -1.514604
 73 17.210194 0.000000 0.000000 0.000000 -0.000000 -1.893339
 74 -0.000000 0.000000 -4.999999 -0.079430 1.546568 -1.570855
 75 0.000006 -0.000004 -3.619081 0.577895 2.675801 -0.242118
 76 16.573921 -0.000001 -0.000002 -0.000000 -0.000000 -1.163030
 77 15.128181 0.000001 0.000001 0.089479 0.309197 0.659208
 78 5.758665 4.244730 -0.000000 -0.000000 -0.000000 1.815142
 79 4.003934 0.000000 0.000000 0.000000 0.000000 0.000000
 80 15.708954 0.000000 0.000002 0.042277 0.226871 0.443133
 81 0.273998 0.191089 3.439762 -3.130907 -0.000437 -1.508107
 82 17.210194 -0.000001 -0.000002 0.000000 -0.000000 -1.937080
 83 0.000001 -0.000001 5.000000 -0.079314 1.595025 -1.570739
end
