version 1
nodes
  0 "Bip01"  -1
  1 "Bip01 Footsteps"   0
  2 "Bip01 Pelvis"   0
  3 "Bip01 Spine"   2
  4 "Bip01 Spine1"   3
  5 "Bip01 Spine2"   4
  6 "Bip01 Spine3"   5
  7 "Bip01 Neck"   6
  8 "Bip01 Head"   7
  9 "Dummy21"   8
 10 "Bip01 L Clavicle"   7
 11 "Bip01 L UpperArm"  10
 12 "Bip01 L Forearm"  11
 13 "Bip01 L Hand"  12
 14 "Bip01 L Finger0"  13
 15 "Bip01 L Finger01"  14
 16 "Dummy06"  15
 17 "Bip01 L Finger1"  13
 18 "Bip01 L Finger11"  17
 19 "Dummy03"  18
 20 "-- L knuckle"  17
 21 "-- L knuckle_end"  20
 22 "-- L Forearm twist"  12
 23 "-- L Forearm twist_end"  22
 24 "-- L wrist"  12
 25 "-- L wrist_end"  24
 26 "-- L Elbow"  11
 27 "--L Elbow_end"  26
 28 "-- L bicep twist"  11
 29 "-- L bicep twist_end"  28
 30 "-- L shoulder outside"  10
 31 "-- L shoulder outside_end"  30
 32 "-- L Shoulder inside"  10
 33 "-- L Shoulder inside_end"  32
 34 "Bip01 R Clavicle"   7
 35 "Bip01 R UpperArm"  34
 36 "Bip01 R Forearm"  35
 37 "Bip01 R Hand"  36
 38 "Bip01 R Finger0"  37
 39 "Bip01 R Finger01"  38
 40 "Dummy01"  39
 41 "Bip01 R Finger1"  37
 42 "Bip01 R Finger11"  41
 43 "Dummy02"  42
 44 "-- R knuckle"  41
 45 "Point06"  44
 46 "skin01"  37
 47 "-- R wrist"  36
 48 "-- R wrist_end"  47
 49 "-- R forearm twist"  36
 50 "-- R forearm twist_end"  49
 51 "-- R Elbow"  35
 52 "--R Elbow_end"  51
 53 "-- R bicep twist"  35
 54 "-- R bicep twist_end"  53
 55 "-- R Shoulder inside"  34
 56 "-- R Shoulder inside_end"  55
 57 "-- R shoulder outside"  34
 58 "-- R shoulder outside_end"  57
 59 "-- Neck smooth"   6
 60 "-- neck smooth end"  59
 61 "-- R Butt"   2
 62 "--R Butt_end"  61
 63 "-- L butt"   2
 64 "--L butt_end"  63
 65 "GIGN01"   2
 66 "Bip01 L Thigh"   2
 67 "Bip01 L Calf"  66
 68 "Bip01 L Foot"  67
 69 "Bip01 L Toe0"  68
 70 "Dummy16"  69
 71 "-- L ankle"  67
 72 "-- L ankleend"  71
 73 "-- L Knee"  66
 74 "--L Knee_end"  73
 75 "Bip01 R Thigh"   2
 76 "Bip01 R Calf"  75
 77 "Bip01 R Foot"  76
 78 "Bip01 R Toe0"  77
 79 "Dummy11"  78
 80 "-- R Ankle"  76
 81 "-- R ankleend"  80
 82 "-- R Knee"  75
 83 "--R Knee_end"  82
end
skeleton
time 0
  0 -0.650000 0.000000 33.899605 -0.025849 0.174554 -1.569172
  1 5.685103 0.833236 -32.227173 -0.174512 -0.026131 1.569196
  2 -2.276935 0.000003 -1.238188 -1.570795 -1.570451 0.000000
  3 1.796440 0.711915 0.000521 -0.160533 -0.069403 -0.207506
  4 4.120001 -0.002931 0.000458 -0.140095 0.040186 0.439645
  5 4.118991 -0.003224 0.000467 -0.143157 -0.003397 0.119692
  6 4.118643 -0.003240 0.000489 -0.149477 -0.019284 0.015916
  7 4.118427 -0.003520 -0.000312 0.088651 0.093235 -0.042225
  8 4.443600 0.000001 0.000000 -0.991934 0.126016 0.154548
  9 9.024061 -0.000000 0.000001 0.000000 0.000000 0.000000
 10 -0.161313 0.156274 1.718421 0.332168 -1.311410 2.861982
 11 6.384776 -0.000002 -0.000002 0.673872 1.035630 0.521044
 12 10.242682 0.000000 -0.000001 0.000000 -0.000000 -1.755328
 13 11.375563 0.000001 0.000001 -2.485510 -0.398252 -0.162365
 14 0.728680 0.023429 -1.008290 2.249786 0.191641 1.382687
 15 2.136497 -0.000001 -0.000000 -0.000000 -0.000000 0.427606
 16 2.313139 -0.000001 -0.000000 0.000000 0.000000 0.000000
 17 3.115506 -0.886043 -0.021430 -0.608215 -0.605814 0.770375
 18 2.011151 -0.000000 -0.000001 0.000000 -0.000000 1.226799
 19 2.141380 0.000001 0.000000 0.000000 0.000000 0.000000
 20 1.734172 0.000002 0.000000 0.000000 -0.000000 0.612577
 21 0.000006 -4.440593 -0.000000 1.570544 -0.062990 -0.195737
 22 6.000001 0.000002 0.000001 -2.263284 -0.000000 0.000000
 23 0.000003 -4.440600 0.000000 1.569944 -0.062987 0.004053
 24 11.375563 0.000001 0.000004 -2.023011 -0.194250 -0.138290
 25 -0.000000 -4.440603 -0.000002 1.570144 -0.062988 0.004040
 26 10.510132 -0.000001 -0.000001 -0.000000 -0.000000 -2.448460
 27 0.000001 -1.748403 4.999999 0.000000 0.004007 1.602291
 28 5.500000 0.000000 -0.000001 -0.189948 0.000000 0.000000
 29 -0.000001 -1.940598 5.000000 -0.044472 0.004003 -0.000180
 30 6.551490 -0.000000 0.000000 0.385691 0.671461 0.178104
 31 0.000001 -1.940601 5.000001 -0.027189 -0.053376 0.005295
 32 6.551490 -0.000000 0.000000 0.154790 0.323696 0.045081
 33 0.000001 -1.940600 4.999998 -0.066572 -0.152786 -0.110311
 34 0.161319 -0.149197 -1.718421 0.443655 1.333397 -2.668225
 35 6.384777 0.000000 -0.000001 -0.640850 -0.466448 -1.002934
 36 10.242684 -0.000001 0.000000 0.000000 -0.000000 -1.706270
 37 11.375560 0.000000 0.000001 3.087573 0.481020 1.067697
 38 0.728683 0.023431 1.008292 -2.116402 -0.640719 1.194996
 39 2.136498 -0.000003 -0.000000 -0.000000 0.000000 1.282817
 40 2.313141 0.000001 0.000000 0.000000 0.000000 3.141593
 41 3.115506 -0.886041 0.021433 0.420766 0.316066 0.167178
 42 2.011151 -0.000000 -0.000000 -0.000000 0.000000 1.226799
 43 2.141380 -0.000001 0.000000 0.000000 0.000000 3.141593
 44 1.734171 -0.000000 0.000002 0.000000 0.000000 0.612577
 45 0.136315 -3.738191 2.525891 1.493698 2.759406 -1.474501
 46 4.165690 4.011933 0.703052 2.796749 -1.265633 0.114658
 47 11.389366 -0.000818 0.158783 2.225938 0.434329 0.391580
 48 -0.000001 -4.440600 0.000001 1.570144 -3.078602 0.004040
 49 6.000000 0.000003 0.000002 2.225938 -0.000000 0.000000
 50 0.000003 -4.440601 -0.000001 1.569944 -3.078603 0.004053
 51 10.510133 0.000000 0.000000 -0.000000 0.000000 -2.423931
 52 0.000000 -1.748401 -5.000001 3.141593 0.004007 -1.539299
 53 5.500001 0.000000 -0.000000 0.264172 0.000000 0.000000
 54 0.000000 -0.000001 -5.000000 -0.044472 3.137590 -0.000177
 55 6.551491 0.000000 -0.000002 -0.264172 -0.038818 -0.308396
 56 -1.266843 -1.937443 -4.950558 -0.066572 -2.988806 -0.110308
 57 6.551491 0.000000 -0.000002 -0.264172 -0.038818 -0.308396
 58 0.699371 -1.944209 -5.006846 -0.027189 -3.088217 0.005298
 59 4.226147 -0.003200 0.000000 -0.000000 0.000000 0.000000
 60 0.000001 5.000000 0.000000 -0.153564 0.000087 2.718702
 61 0.000004 -0.000004 -3.713580 0.365818 2.880119 -0.191589
 62 0.000002 -0.000000 5.000000 3.053196 1.558589 -0.074928
 63 -0.000007 0.000006 3.713580 -0.001619 -3.122277 -0.475127
 64 0.000002 -0.000000 -5.000000 -0.088726 1.558589 3.066335
 65 7.363602 1.646647 0.495663 3.141593 -1.570796 0.000000
 66 -0.000005 0.000007 3.619081 0.008255 -3.110080 -0.985231
 67 16.573919 0.000000 -0.000000 -0.000000 -0.000000 -1.065827
 68 15.128180 0.000001 0.000000 -0.102296 0.010178 0.114297
 69 5.758665 4.244730 0.000000 0.000000 0.000000 1.667687
 70 3.177726 0.000000 -0.000000 0.000000 0.000000 3.141593
 71 15.708951 0.000001 0.000000 -0.051525 0.003996 0.061523
 72 0.275148 0.189215 -3.445208 3.130898 0.000409 -1.514604
 73 17.210192 -0.000000 -0.000000 -0.000000 -0.000000 -1.893339
 74 0.000001 0.000000 -4.999999 -0.079433 1.546568 -1.570857
 75 0.000002 -0.000003 -3.619081 0.577895 2.675801 -0.242118
 76 16.573921 -0.000001 -0.000002 -0.000000 -0.000000 -1.163030
 77 15.128181 0.000001 0.000001 0.089479 0.309197 0.659208
 78 5.758666 4.244730 -0.000001 -0.000000 -0.000000 1.815142
 79 4.003934 -0.000000 0.000001 0.000000 0.000000 0.000000
 80 15.708954 0.000001 0.000002 0.042277 0.226871 0.443133
 81 0.273998 0.191089 3.439762 -3.130907 -0.000437 -1.508107
 82 17.210194 -0.000001 -0.000002 0.000000 -0.000000 -1.937080
 83 -0.000000 -0.000001 5.000000 -0.079319 1.595025 -1.570742
time 1
  0 -0.650000 0.000000 33.899605 -0.025849 0.174554 -1.569172
  1 5.685103 0.833236 -32.227173 -0.174512 -0.026131 1.569196
  2 -2.276935 0.000003 -1.238188 -1.570795 -1.570451 0.000000
  3 1.796440 0.711915 0.000521 -0.160533 -0.069403 -0.207506
  4 4.120001 -0.002931 0.000458 -0.140095 0.040186 0.439645
  5 4.118991 -0.003224 0.000467 -0.143157 -0.003397 0.119692
  6 4.118643 -0.003240 0.000489 -0.149477 -0.019284 0.015916
  7 4.118427 -0.003520 -0.000312 0.088651 0.093235 -0.042225
  8 4.443600 0.000001 0.000000 -0.991934 0.126016 0.154548
  9 9.024061 -0.000000 0.000001 0.000000 0.000000 0.000000
 10 -0.161313 0.156274 1.718421 0.332168 -1.311410 2.861982
 11 6.384776 -0.000002 -0.000002 0.673872 1.035630 0.521044
 12 10.242682 0.000000 -0.000001 0.000000 -0.000000 -1.755328
 13 11.375563 0.000001 0.000001 -2.485510 -0.398252 -0.162365
 14 0.728680 0.023429 -1.008290 2.249786 0.191641 1.382687
 15 2.136497 -0.000001 -0.000000 -0.000000 -0.000000 0.427606
 16 2.313139 -0.000001 -0.000000 0.000000 0.000000 0.000000
 17 3.115506 -0.886043 -0.021430 -0.608215 -0.605814 0.770375
 18 2.011151 -0.000000 -0.000001 0.000000 -0.000000 1.226799
 19 2.141380 0.000001 0.000000 0.000000 0.000000 0.000000
 20 1.734172 0.000002 0.000000 0.000000 -0.000000 0.612577
 21 0.000006 -4.440593 -0.000000 1.570544 -0.062990 -0.195737
 22 6.000001 0.000002 0.000001 -2.263284 -0.000000 0.000000
 23 0.000003 -4.440600 0.000000 1.569944 -0.062987 0.004053
 24 11.375563 0.000001 0.000004 -2.023011 -0.194250 -0.138290
 25 -0.000000 -4.440603 -0.000002 1.570144 -0.062988 0.004040
 26 10.510132 -0.000001 -0.000001 -0.000000 -0.000000 -2.448460
 27 0.000001 -1.748403 4.999999 0.000000 0.004007 1.602291
 28 5.500000 0.000000 -0.000001 -0.189948 0.000000 0.000000
 29 -0.000001 -1.940598 5.000000 -0.044472 0.004003 -0.000180
 30 6.551490 -0.000000 0.000000 0.385691 0.671461 0.178104
 31 0.000001 -1.940601 5.000001 -0.027189 -0.053376 0.005295
 32 6.551490 -0.000000 0.000000 0.154790 0.323696 0.045081
 33 0.000001 -1.940600 4.999998 -0.066572 -0.152786 -0.110311
 34 0.161319 -0.149197 -1.718421 0.443655 1.333397 -2.668225
 35 6.384777 0.000000 -0.000001 -0.640850 -0.466448 -1.002934
 36 10.242684 -0.000001 0.000000 0.000000 -0.000000 -1.706270
 37 11.375560 0.000000 0.000001 3.087573 0.481020 1.067697
 38 0.728683 0.023431 1.008292 -2.116402 -0.640719 1.194996
 39 2.136498 -0.000003 -0.000000 -0.000000 0.000000 1.282817
 40 2.313141 0.000001 0.000000 0.000000 0.000000 3.141593
 41 3.115506 -0.886041 0.021433 0.420766 0.316066 0.167178
 42 2.011151 -0.000000 -0.000000 -0.000000 0.000000 1.226799
 43 2.141380 -0.000001 0.000000 0.000000 0.000000 3.141593
 44 1.734171 -0.000000 0.000002 0.000000 0.000000 0.612577
 45 0.136315 -3.738191 2.525891 1.493698 2.759406 -1.474501
 46 4.165690 4.011933 0.703052 2.796749 -1.265633 0.114658
 47 11.389366 -0.000818 0.158783 2.225938 0.434329 0.391580
 48 -0.000001 -4.440600 0.000001 1.570144 -3.078602 0.004040
 49 6.000000 0.000003 0.000002 2.225938 -0.000000 0.000000
 50 0.000003 -4.440601 -0.000001 1.569944 -3.078603 0.004053
 51 10.510133 0.000000 0.000000 -0.000000 0.000000 -2.423931
 52 0.000000 -1.748401 -5.000001 3.141593 0.004007 -1.539299
 53 5.500001 0.000000 -0.000000 0.264172 0.000000 0.000000
 54 0.000000 -0.000001 -5.000000 -0.044472 3.137590 -0.000177
 55 6.551491 0.000000 -0.000002 -0.264172 -0.038818 -0.308396
 56 -1.266843 -1.937443 -4.950558 -0.066572 -2.988806 -0.110308
 57 6.551491 0.000000 -0.000002 -0.264172 -0.038818 -0.308396
 58 0.699371 -1.944209 -5.006846 -0.027189 -3.088217 0.005298
 59 4.226147 -0.003200 0.000000 -0.000000 0.000000 0.000000
 60 0.000001 5.000000 0.000000 -0.153564 0.000087 2.718702
 61 0.000004 -0.000004 -3.713580 0.365818 2.880119 -0.191589
 62 0.000002 -0.000000 5.000000 3.053196 1.558589 -0.074928
 63 -0.000007 0.000006 3.713580 -0.001619 -3.122277 -0.475127
 64 0.000002 -0.000000 -5.000000 -0.088726 1.558589 3.066335
 65 7.363602 1.646647 0.495663 3.141593 -1.570796 0.000000
 66 -0.000005 0.000007 3.619081 0.008255 -3.110080 -0.985231
 67 16.573919 0.000000 -0.000000 -0.000000 -0.000000 -1.065827
 68 15.128180 0.000001 0.000000 -0.102296 0.010178 0.114297
 69 5.758665 4.244730 0.000000 0.000000 0.000000 1.667687
 70 3.177726 0.000000 -0.000000 0.000000 0.000000 3.141593
 71 15.708951 0.000001 0.000000 -0.051525 0.003996 0.061523
 72 0.275148 0.189215 -3.445208 3.130898 0.000409 -1.514604
 73 17.210192 -0.000000 -0.000000 -0.000000 -0.000000 -1.893339
 74 0.000001 0.000000 -4.999999 -0.079433 1.546568 -1.570857
 75 0.000002 -0.000003 -3.619081 0.577895 2.675801 -0.242118
 76 16.573921 -0.000001 -0.000002 -0.000000 -0.000000 -1.163030
 77 15.128181 0.000001 0.000001 0.089479 0.309197 0.659208
 78 5.758666 4.244730 -0.000001 -0.000000 -0.000000 1.815142
 79 4.003934 -0.000000 0.000001 0.000000 0.000000 0.000000
 80 15.708954 0.000001 0.000002 0.042277 0.226871 0.443133
 81 0.273998 0.191089 3.439762 -3.130907 -0.000437 -1.508107
 82 17.210194 -0.000001 -0.000002 0.000000 -0.000000 -1.937080
 83 -0.000000 -0.000001 5.000000 -0.079319 1.595025 -1.570742
end
