version 1
nodes
  0 "Bip01"  -1
  1 "Bip01 Footsteps"   0
  2 "Bip01 Pelvis"   0
  3 "Bip01 Spine"   2
  4 "Bip01 Spine1"   3
  5 "Bip01 Spine2"   4
  6 "Bip01 Spine3"   5
  7 "Bip01 Neck"   6
  8 "Bip01 Head"   7
  9 "Dummy21"   8
 10 "Bip01 L Clavicle"   7
 11 "Bip01 L UpperArm"  10
 12 "Bip01 L Forearm"  11
 13 "Bip01 L Hand"  12
 14 "Bip01 L Finger0"  13
 15 "Bip01 L Finger01"  14
 16 "Dummy06"  15
 17 "Bip01 L Finger1"  13
 18 "Bip01 L Finger11"  17
 19 "Dummy03"  18
 20 "-- L knuckle"  17
 21 "-- L knuckle_end"  20
 22 "-- L Forearm twist"  12
 23 "-- L Forearm twist_end"  22
 24 "-- L wrist"  12
 25 "-- L wrist_end"  24
 26 "-- L Elbow"  11
 27 "--L Elbow_end"  26
 28 "-- L bicep twist"  11
 29 "-- L bicep twist_end"  28
 30 "-- L shoulder outside"  10
 31 "-- L shoulder outside_end"  30
 32 "-- L Shoulder inside"  10
 33 "-- L Shoulder inside_end"  32
 34 "Bip01 R Clavicle"   7
 35 "Bip01 R UpperArm"  34
 36 "Bip01 R Forearm"  35
 37 "Bip01 R Hand"  36
 38 "Bip01 R Finger0"  37
 39 "Bip01 R Finger01"  38
 40 "Dummy01"  39
 41 "Bip01 R Finger1"  37
 42 "Bip01 R Finger11"  41
 43 "Dummy02"  42
 44 "-- R knuckle"  41
 45 "Point06"  44
 46 "Line06"  37
 47 "-- R wrist"  36
 48 "-- R wrist_end"  47
 49 "-- R forearm twist"  36
 50 "-- R forearm twist_end"  49
 51 "-- R Elbow"  35
 52 "--R Elbow_end"  51
 53 "-- R bicep twist"  35
 54 "-- R bicep twist_end"  53
 55 "-- R Shoulder inside"  34
 56 "-- R Shoulder inside_end"  55
 57 "-- R shoulder outside"  34
 58 "-- R shoulder outside_end"  57
 59 "-- Neck smooth"   6
 60 "-- neck smooth end"  59
 61 "-- R Butt"   2
 62 "--R Butt_end"  61
 63 "-- L butt"   2
 64 "--L butt_end"  63
 65 "GIGN01"   2
 66 "Bip01 L Thigh"   2
 67 "Bip01 L Calf"  66
 68 "Bip01 L Foot"  67
 69 "Bip01 L Toe0"  68
 70 "Dummy16"  69
 71 "-- L ankle"  67
 72 "-- L ankleend"  71
 73 "-- L Knee"  66
 74 "--L Knee_end"  73
 75 "Bip01 R Thigh"   2
 76 "Bip01 R Calf"  75
 77 "Bip01 R Foot"  76
 78 "Bip01 R Toe0"  77
 79 "Dummy11"  78
 80 "-- R Ankle"  76
 81 "-- R ankleend"  80
 82 "-- R Knee"  75
 83 "--R Knee_end"  82
end
skeleton
time 0
  0 0.500000 13.522099 26.931471 -0.243067 0.535714 -2.432935
  1 13.773751 5.584523 -22.520975 -0.544290 0.221328 2.303921
  2 -2.276934 0.000003 -1.238185 -1.570795 -1.570451 0.000000
  3 1.797244 0.711798 -0.000007 0.001920 -0.219903 0.030333
  4 4.119837 -0.003042 0.000032 -0.010086 0.033546 0.384832
  5 4.118921 -0.003261 0.000014 -0.003687 0.070720 0.097170
  6 4.117261 -0.002993 0.000090 -0.027571 0.077230 -0.423918
  7 4.117106 -0.002574 -0.001910 0.589858 0.242029 -0.366967
  8 4.443602 -0.000000 0.000001 0.158692 0.214264 0.470473
  9 9.024062 -0.000000 0.000001 0.000000 0.000000 0.000000
 10 -0.415280 0.939257 1.397959 1.374439 -1.139487 2.228009
 11 6.384777 0.000001 0.000002 -1.320613 -0.043821 -1.693905
 12 10.242682 0.000001 0.000000 0.000000 -0.000000 -1.561149
 13 11.375561 0.000000 0.000001 -2.475834 -0.661252 0.801048
 14 0.728680 0.023429 -1.008291 1.051563 0.167831 0.364467
 15 2.136498 -0.000000 -0.000001 -0.000000 -0.000000 -0.078540
 16 2.313140 0.000000 0.000000 0.000000 0.000000 0.000000
 17 3.115506 -0.886042 -0.021431 -0.853677 -0.690048 1.145749
 18 2.011152 0.000000 -0.000000 0.000000 0.000000 1.322792
 19 2.141380 -0.000000 -0.000000 0.000000 0.000000 0.000000
 20 1.734174 0.000002 -0.000001 0.000000 0.000000 0.660693
 21 0.000003 -4.440594 -0.000001 1.570544 -0.062990 -0.195737
 22 6.000000 0.000000 0.000001 -2.184988 0.000000 -0.000000
 23 0.000003 -4.440601 0.000000 1.569944 -0.062987 0.004053
 24 11.375561 -0.000000 0.000004 -1.917993 -0.400152 0.289653
 25 -0.000003 -4.440603 -0.000000 1.570144 -0.062988 0.004040
 26 10.510131 0.000001 -0.000001 0.000000 -0.000000 -2.351371
 27 0.000001 -1.748401 4.999999 -0.000000 0.004007 1.602291
 28 5.500000 0.000000 -0.000000 0.389859 -0.000000 -0.000000
 29 -0.000002 -1.940600 5.000000 -0.044472 0.004003 -0.000180
 30 6.551492 0.000001 0.000001 -0.962506 0.199480 -1.424670
 31 -0.000001 -1.940599 5.000002 -0.027189 -0.053376 0.005295
 32 6.551492 0.000001 0.000001 -0.279463 0.215273 -0.444615
 33 0.000001 -1.940599 4.999997 -0.066572 -0.152786 -0.110311
 34 0.415290 -0.932181 -1.397959 1.527214 1.069534 -1.177552
 35 6.384778 0.000000 -0.000001 0.287465 -0.003223 -1.239571
 36 10.242682 -0.000001 -0.000000 -0.000000 0.000000 -2.232122
 37 11.375561 -0.000001 -0.000001 2.648867 0.490837 0.770679
 38 0.728681 0.023431 1.008293 -1.579583 -0.319038 0.212973
 39 2.136497 -0.000001 0.000000 -0.000000 -0.000000 1.282817
 40 2.313139 0.000001 0.000001 0.000000 0.000000 3.141593
 41 3.115506 -0.886041 0.021429 0.420765 0.316066 0.167178
 42 2.011151 -0.000001 -0.000004 -0.000000 -0.000000 2.082010
 43 2.141380 -0.000001 0.000001 0.000000 0.000000 3.141593
 44 1.734172 -0.000001 -0.000002 -0.000000 0.000000 1.041748
 45 0.136315 -3.738192 2.525892 1.493698 2.759406 -1.474501
 46 -2.193618 0.798257 4.032640 1.563844 0.186374 -0.074848
 47 11.389367 -0.000821 0.158779 2.038817 0.339967 0.296562
 48 0.000001 -4.440599 0.000001 1.570144 -3.078602 0.004040
 49 6.000000 -0.000001 -0.000001 2.038817 0.000000 0.000000
 50 0.000002 -4.440602 0.000001 1.569944 -3.078603 0.004053
 51 10.510131 -0.000001 0.000001 -0.000000 0.000000 -2.686857
 52 0.000001 -1.748400 -4.999999 -3.141593 0.004007 -1.539299
 53 5.499999 -0.000001 -0.000002 -0.103760 -0.000000 -0.000000
 54 0.000001 0.000000 -4.999999 -0.044472 3.137589 -0.000177
 55 6.551492 -0.000000 0.000000 0.103760 -0.054645 -0.334137
 56 -1.266844 -1.937443 -4.950561 -0.066572 -2.988806 -0.110308
 57 6.551493 -0.000000 0.000000 0.103760 -0.054645 -0.334137
 58 0.699371 -1.944209 -5.006847 -0.027189 -3.088217 0.005298
 59 4.226146 -0.003201 0.000000 0.331712 0.111063 -0.237089
 60 0.000003 5.000000 -0.000001 -0.153564 0.000087 2.718702
 61 0.000006 -0.000004 -3.713579 0.119535 -2.936655 -0.885276
 62 0.000003 0.000000 5.000000 3.053195 1.558589 -0.074929
 63 -0.000005 0.000006 3.713580 -0.311487 -2.845558 -0.582080
 64 0.000001 0.000000 -5.000000 -0.088726 1.558589 3.066335
 65 7.363603 1.646648 0.495664 -3.141593 -1.570796 0.000000
 66 -0.000005 0.000007 3.619082 -0.441735 -2.434423 -1.159240
 67 16.573917 -0.000000 0.000001 -0.000000 -0.000000 -2.011748
 68 15.128181 0.000000 -0.000000 0.026832 0.026147 -0.175154
 69 5.758666 4.244731 0.000000 0.000000 -0.000000 2.033309
 70 3.177727 0.000000 0.000000 0.000000 0.000000 3.141593
 71 15.708951 0.000002 -0.000000 0.013957 0.013894 -0.093781
 72 0.275148 0.189215 -3.445208 3.130898 0.000409 -1.514604
 73 17.210192 -0.000001 0.000002 -0.000000 0.000000 -2.319003
 74 0.000000 -0.000001 -5.000000 -0.079433 1.546568 -1.570857
 75 0.000007 -0.000003 -3.619079 0.260448 -2.945758 -1.468642
 76 16.573919 -0.000000 0.000001 0.000000 0.000000 -1.562392
 77 15.128181 0.000000 0.000001 0.265624 -0.173430 0.666428
 78 5.758665 4.244731 0.000000 -0.000000 0.000000 1.483530
 79 4.003934 -0.000000 0.000000 0.000000 0.000000 0.000000
 80 15.708953 0.000000 0.000000 0.195074 -0.100553 0.460486
 81 0.273998 0.191090 3.439762 -3.130907 -0.000437 -1.508107
 82 17.210194 -0.000000 0.000000 -0.000000 0.000000 -2.116793
 83 0.000000 0.000000 5.000000 -0.079311 1.595025 -1.570737
time 1
  0 0.500000 13.522099 26.931471 -0.243067 0.535714 -2.432935
  1 13.773751 5.584523 -22.520975 -0.544290 0.221328 2.303921
  2 -2.276934 0.000003 -1.238185 -1.570795 -1.570451 0.000000
  3 1.797257 0.711797 -0.000017 0.004686 -0.241164 0.032934
  4 4.119860 -0.003030 0.000025 -0.007466 0.038943 0.393317
  5 4.118948 -0.003258 0.000005 -0.000697 0.081052 0.105811
  6 4.117192 -0.002961 0.000063 -0.019774 0.073770 -0.446432
  7 4.117254 -0.002642 -0.001928 0.595667 0.239074 -0.311992
  8 4.443602 -0.000000 0.000000 0.137575 0.202040 0.377627
  9 9.024059 -0.000001 -0.000000 0.000000 0.000000 0.000000
 10 -0.410308 0.948047 1.393510 1.312812 -1.128401 2.237916
 11 6.384777 0.000001 0.000002 -1.283391 -0.072511 -1.665210
 12 10.242682 0.000000 -0.000000 0.000000 0.000000 -1.506072
 13 11.375563 0.000000 0.000001 -2.548651 -0.646755 0.822414
 14 0.728681 0.023433 -1.008293 1.051563 0.167831 0.364467
 15 2.136496 -0.000000 0.000003 -0.000000 -0.000000 -0.078540
 16 2.313141 0.000000 -0.000002 0.000000 0.000000 0.000000
 17 3.115505 -0.886040 -0.021431 -0.853677 -0.690048 1.145749
 18 2.011150 -0.000000 0.000001 -0.000000 -0.000000 1.322792
 19 2.141379 -0.000000 -0.000001 0.000000 0.000000 0.000000
 20 1.734172 0.000000 -0.000000 0.000000 -0.000000 0.660693
 21 0.000006 -4.440594 0.000001 1.570544 -0.062990 -0.195737
 22 6.000002 -0.000001 0.000000 -2.244356 -0.000000 -0.000000
 23 -0.000001 -4.440601 -0.000000 1.569944 -0.062987 0.004053
 24 11.375563 0.000000 0.000003 -1.953289 -0.402762 0.293780
 25 -0.000002 -4.440602 -0.000001 1.570144 -0.062988 0.004040
 26 10.510131 0.000001 -0.000001 -0.000000 -0.000000 -2.323833
 27 0.000000 -1.748401 4.999999 -0.000000 0.004007 1.602291
 28 5.500000 0.000001 -0.000000 0.391461 -0.000000 -0.000000
 29 -0.000001 -1.940599 5.000000 -0.044472 0.004003 -0.000180
 30 6.551492 -0.000001 -0.000002 -0.916873 0.153959 -1.364627
 31 0.000001 -1.940599 5.000001 -0.027189 -0.053376 0.005295
 32 6.551492 -0.000001 -0.000002 -0.285967 0.191666 -0.447771
 33 -0.000001 -1.940599 4.999999 -0.066572 -0.152786 -0.110311
 34 0.410316 -0.940970 -1.393510 1.640808 1.090596 -1.109804
 35 6.384776 -0.000000 0.000001 0.319406 -0.017256 -1.213858
 36 10.242682 0.000001 0.000001 -0.000000 -0.000000 -2.231152
 37 11.375561 0.000000 0.000001 2.656468 0.486319 0.787381
 38 0.728681 0.023431 1.008292 -1.579583 -0.319038 0.212973
 39 2.136496 0.000000 -0.000001 0.000000 -0.000000 1.282817
 40 2.313138 -0.000000 0.000001 0.000000 0.000000 3.141593
 41 3.115507 -0.886041 0.021432 0.420766 0.316066 0.167178
 42 2.011150 -0.000001 -0.000004 -0.000000 -0.000000 2.082010
 43 2.141380 -0.000001 0.000000 0.000000 0.000000 3.141593
 44 1.734172 -0.000002 -0.000003 -0.000000 -0.000000 1.041748
 45 0.136315 -3.738193 2.525891 1.493698 2.759406 -1.474501
 46 -2.193617 0.798257 4.032640 1.563844 0.186374 -0.074848
 47 11.389365 -0.000820 0.158783 2.041781 0.340150 0.304485
 48 -0.000000 -4.440598 -0.000000 1.570144 -3.078602 0.004040
 49 5.999999 -0.000001 0.000000 2.041781 0.000000 0.000000
 50 0.000002 -4.440601 0.000001 1.569944 -3.078603 0.004053
 51 10.510132 0.000001 0.000001 0.000000 -0.000000 -2.686372
 52 0.000000 -1.748399 -5.000003 -3.141593 0.004007 -1.539299
 53 5.500000 0.000001 0.000000 -0.110431 -0.000000 -0.000000
 54 -0.000000 0.000000 -5.000001 -0.044472 3.137589 -0.000177
 55 6.551491 0.000001 -0.000000 0.110431 -0.061354 -0.328640
 56 -1.266844 -1.937442 -4.950559 -0.066572 -2.988806 -0.110308
 57 6.551491 0.000001 -0.000000 0.110431 -0.061354 -0.328640
 58 0.699370 -1.944208 -5.006845 -0.027189 -3.088217 0.005298
 59 4.226146 -0.003203 -0.000001 0.333344 0.114477 -0.206785
 60 0.000001 5.000000 0.000000 -0.153564 0.000087 2.718702
 61 0.000006 -0.000004 -3.713579 0.119535 -2.936655 -0.885276
 62 0.000003 0.000000 5.000000 3.053195 1.558589 -0.074929
 63 -0.000005 0.000006 3.713580 -0.311487 -2.845558 -0.582080
 64 0.000001 0.000000 -5.000000 -0.088726 1.558589 3.066335
 65 7.363603 1.646648 0.495664 -3.141593 -1.570796 0.000000
 66 -0.000005 0.000007 3.619082 -0.441735 -2.434423 -1.159240
 67 16.573917 -0.000000 0.000001 -0.000000 -0.000000 -2.011748
 68 15.128181 0.000000 -0.000000 0.026832 0.026147 -0.175154
 69 5.758666 4.244731 0.000000 0.000000 -0.000000 2.033309
 70 3.177727 0.000000 0.000000 0.000000 0.000000 3.141593
 71 15.708951 0.000002 -0.000000 0.013957 0.013894 -0.093781
 72 0.275148 0.189215 -3.445208 3.130898 0.000409 -1.514604
 73 17.210192 -0.000001 0.000002 -0.000000 0.000000 -2.319003
 74 0.000000 -0.000001 -5.000000 -0.079433 1.546568 -1.570857
 75 0.000007 -0.000003 -3.619079 0.260448 -2.945758 -1.468642
 76 16.573919 -0.000000 0.000001 0.000000 0.000000 -1.562392
 77 15.128181 0.000000 0.000001 0.265624 -0.173430 0.666428
 78 5.758665 4.244731 0.000000 -0.000000 0.000000 1.483530
 79 4.003934 -0.000000 0.000000 0.000000 0.000000 0.000000
 80 15.708953 0.000000 0.000000 0.195074 -0.100553 0.460486
 81 0.273998 0.191090 3.439762 -3.130907 -0.000437 -1.508107
 82 17.210194 -0.000000 0.000000 -0.000000 0.000000 -2.116793
 83 0.000000 0.000000 5.000000 -0.079311 1.595025 -1.570737
time 2
  0 0.500000 13.522099 26.931471 -0.243067 0.535714 -2.432935
  1 13.773751 5.584523 -22.520975 -0.544290 0.221328 2.303921
  2 -2.276934 0.000003 -1.238185 -1.570795 -1.570451 0.000000
  3 1.797267 0.711798 -0.000025 0.007410 -0.262432 0.035488
  4 4.119885 -0.003019 0.000016 -0.004800 0.044317 0.401818
  5 4.118977 -0.003257 -0.000006 0.002386 0.091357 0.114490
  6 4.117125 -0.002930 0.000037 -0.011903 0.070486 -0.468966
  7 4.117408 -0.002702 -0.001946 0.601283 0.235834 -0.257060
  8 4.443597 0.000000 0.000000 0.119567 0.188240 0.285226
  9 9.024061 -0.000002 0.000001 0.000000 0.000000 0.000000
 10 -0.404858 0.956605 1.389272 1.252785 -1.117076 2.246082
 11 6.384776 0.000002 0.000003 -1.245950 -0.102938 -1.638743
 12 10.242681 0.000000 -0.000001 0.000000 -0.000000 -1.450254
 13 11.375563 -0.000001 0.000001 -2.619306 -0.628970 0.841174
 14 0.728681 0.023433 -1.008292 1.051563 0.167831 0.364467
 15 2.136496 0.000000 0.000001 -0.000000 0.000000 -0.078540
 16 2.313138 0.000000 -0.000000 0.000000 0.000000 0.000000
 17 3.115508 -0.886038 -0.021431 -0.853677 -0.690048 1.145749
 18 2.011149 -0.000002 -0.000000 0.000000 -0.000000 1.322792
 19 2.141380 0.000000 -0.000001 0.000000 0.000000 0.000000
 20 1.734172 -0.000002 0.000000 0.000000 0.000000 0.660693
 21 0.000009 -4.440593 0.000001 1.570544 -0.062990 -0.195737
 22 5.999999 0.000000 0.000000 -2.303979 -0.000000 0.000000
 23 0.000002 -4.440601 0.000000 1.569944 -0.062987 0.004053
 24 11.375564 -0.000001 0.000003 -1.988795 -0.404214 0.298046
 25 -0.000002 -4.440602 -0.000001 1.570144 -0.062988 0.004040
 26 10.510131 0.000001 -0.000001 0.000000 -0.000000 -2.295923
 27 -0.000000 -1.748401 4.999999 -0.000000 0.004007 1.602291
 28 5.500000 -0.000001 -0.000000 0.393018 -0.000000 -0.000000
 29 -0.000001 -1.940598 5.000000 -0.044472 0.004003 -0.000180
 30 6.551491 0.000000 0.000001 -0.878690 0.105876 -1.308061
 31 0.000000 -1.940598 5.000002 -0.027189 -0.053376 0.005295
 32 6.551491 0.000000 0.000001 -0.291928 0.167111 -0.448328
 33 -0.000001 -1.940600 4.999997 -0.066572 -0.152786 -0.110311
 34 0.404856 -0.949527 -1.389272 1.764443 1.106021 -1.031994
 35 6.384776 -0.000002 0.000001 0.350797 -0.032574 -1.188927
 36 10.242682 -0.000000 0.000002 0.000000 -0.000000 -2.230181
 37 11.375561 -0.000001 -0.000003 2.663965 0.481689 0.804003
 38 0.728681 0.023431 1.008292 -1.579583 -0.319038 0.212973
 39 2.136498 -0.000000 0.000001 -0.000000 -0.000000 1.282817
 40 2.313139 0.000001 0.000000 0.000000 0.000000 3.141593
 41 3.115506 -0.886041 0.021431 0.420765 0.316066 0.167178
 42 2.011151 -0.000000 -0.000001 -0.000000 0.000000 2.082010
 43 2.141379 -0.000000 -0.000001 0.000000 0.000000 3.141593
 44 1.734172 -0.000002 -0.000002 -0.000000 0.000000 1.041748
 45 0.136315 -3.738192 2.525891 1.493698 2.759406 -1.474501
 46 -2.193618 0.798257 4.032639 1.563844 0.186374 -0.074848
 47 11.389367 -0.000819 0.158781 2.044732 0.340316 0.312407
 48 0.000001 -4.440599 0.000002 1.570144 -3.078602 0.004040
 49 6.000000 -0.000001 -0.000003 2.044732 -0.000000 0.000000
 50 0.000001 -4.440600 -0.000001 1.569944 -3.078603 0.004053
 51 10.510132 -0.000000 0.000003 -0.000000 -0.000000 -2.685887
 52 0.000000 -1.748400 -5.000000 -3.141593 0.004007 -1.539299
 53 5.500000 -0.000000 0.000002 -0.116638 0.000000 0.000000
 54 0.000001 0.000000 -4.999997 -0.044472 3.137590 -0.000177
 55 6.551491 -0.000001 -0.000000 0.116638 -0.067818 -0.323517
 56 -1.266843 -1.937443 -4.950559 -0.066572 -2.988806 -0.110308
 57 6.551492 -0.000001 0.000000 0.116638 -0.067818 -0.323517
 58 0.699371 -1.944208 -5.006844 -0.027189 -3.088217 0.005298
 59 4.226144 -0.003199 0.000001 0.335102 0.117772 -0.175631
 60 -0.000001 5.000001 -0.000000 -0.153564 0.000087 2.718702
 61 0.000006 -0.000004 -3.713579 0.119535 -2.936655 -0.885276
 62 0.000003 0.000000 5.000000 3.053195 1.558589 -0.074929
 63 -0.000005 0.000006 3.713580 -0.311487 -2.845558 -0.582080
 64 0.000001 0.000000 -5.000000 -0.088726 1.558589 3.066335
 65 7.363603 1.646648 0.495664 -3.141593 -1.570796 0.000000
 66 -0.000005 0.000007 3.619082 -0.441735 -2.434423 -1.159240
 67 16.573917 -0.000000 0.000001 -0.000000 -0.000000 -2.011748
 68 15.128181 0.000000 -0.000000 0.026832 0.026147 -0.175154
 69 5.758666 4.244731 0.000000 0.000000 -0.000000 2.033309
 70 3.177727 0.000000 0.000000 0.000000 0.000000 3.141593
 71 15.708951 0.000002 -0.000000 0.013957 0.013894 -0.093781
 72 0.275148 0.189215 -3.445208 3.130898 0.000409 -1.514604
 73 17.210192 -0.000001 0.000002 -0.000000 0.000000 -2.319003
 74 0.000000 -0.000001 -5.000000 -0.079433 1.546568 -1.570857
 75 0.000007 -0.000003 -3.619079 0.260448 -2.945758 -1.468642
 76 16.573919 -0.000000 0.000001 0.000000 0.000000 -1.562392
 77 15.128181 0.000000 0.000001 0.265624 -0.173430 0.666428
 78 5.758665 4.244731 0.000000 -0.000000 0.000000 1.483530
 79 4.003934 -0.000000 0.000000 0.000000 0.000000 0.000000
 80 15.708953 0.000000 0.000000 0.195074 -0.100553 0.460486
 81 0.273998 0.191090 3.439762 -3.130907 -0.000437 -1.508107
 82 17.210194 -0.000000 0.000000 -0.000000 0.000000 -2.116793
 83 0.000000 0.000000 5.000000 -0.079311 1.595025 -1.570737
time 3
  0 0.500000 13.522099 26.931471 -0.243067 0.535714 -2.432935
  1 13.773751 5.584523 -22.520975 -0.544290 0.221328 2.303921
  2 -2.276934 0.000003 -1.238185 -1.570795 -1.570451 0.000000
  3 1.797279 0.711798 -0.000034 0.010093 -0.283706 0.037997
  4 4.119913 -0.003010 0.000006 -0.002087 0.049668 0.410336
  5 4.119005 -0.003255 -0.000017 0.005562 0.101635 0.123210
  6 4.117056 -0.002893 0.000013 -0.003962 0.067380 -0.491520
  7 4.117565 -0.002754 -0.001963 0.606693 0.232322 -0.202176
  8 4.443595 0.000000 -0.000000 0.104758 0.173264 0.193281
  9 9.024062 0.000001 0.000001 0.000000 0.000000 0.000000
 10 -0.398940 0.964912 1.385256 1.194272 -1.105555 2.252592
 11 6.384777 -0.000000 0.000000 -1.208240 -0.134894 -1.614637
 12 10.242682 0.000000 -0.000000 0.000000 -0.000000 -1.393659
 13 11.375562 0.000001 0.000001 -2.687477 -0.608134 0.856918
 14 0.728679 0.023432 -1.008293 1.051563 0.167831 0.364467
 15 2.136498 0.000001 -0.000002 -0.000000 -0.000000 -0.078540
 16 2.313140 0.000000 0.000001 0.000000 0.000000 0.000000
 17 3.115505 -0.886042 -0.021432 -0.853677 -0.690048 1.145749
 18 2.011150 0.000000 -0.000000 -0.000000 -0.000000 1.322792
 19 2.141381 0.000001 -0.000000 0.000000 0.000000 0.000000
 20 1.734172 -0.000000 -0.000000 -0.000000 0.000000 0.660693
 21 0.000005 -4.440595 0.000000 1.570544 -0.062990 -0.195737
 22 6.000000 0.000001 0.000000 -2.363489 -0.000000 0.000000
 23 -0.000001 -4.440601 0.000001 1.569944 -0.062987 0.004053
 24 11.375562 0.000001 0.000003 -2.024332 -0.404450 0.302383
 25 -0.000001 -4.440603 -0.000001 1.570144 -0.062988 0.004040
 26 10.510130 0.000000 -0.000001 -0.000000 -0.000000 -2.267626
 27 0.000000 -1.748401 4.999999 0.000000 0.004007 1.602291
 28 5.499999 -0.000002 -0.000000 0.394579 0.000000 0.000000
 29 -0.000003 -1.940598 5.000001 -0.044472 0.004003 -0.000180
 30 6.551491 0.000001 0.000002 -0.848321 0.057588 -1.257503
 31 -0.000000 -1.940598 5.000000 -0.027189 -0.053376 0.005295
 32 6.551491 0.000001 0.000002 -0.297199 0.142832 -0.446856
 33 0.000001 -1.940599 4.999994 -0.066572 -0.152786 -0.110311
 34 0.398934 -0.957833 -1.385256 1.895993 1.114951 -0.946301
 35 6.384776 -0.000002 0.000002 0.381622 -0.049125 -1.164809
 36 10.242682 0.000001 0.000001 -0.000000 -0.000000 -2.229211
 37 11.375562 -0.000001 0.000001 2.671356 0.476951 0.820546
 38 0.728681 0.023431 1.008293 -1.579583 -0.319038 0.212973
 39 2.136496 0.000001 0.000001 0.000000 -0.000000 1.282817
 40 2.313141 0.000001 0.000000 0.000000 0.000000 3.141593
 41 3.115505 -0.886041 0.021431 0.420765 0.316066 0.167178
 42 2.011151 -0.000000 0.000000 -0.000000 -0.000000 2.082010
 43 2.141380 -0.000001 0.000002 0.000000 0.000000 3.141593
 44 1.734172 -0.000001 0.000000 -0.000000 -0.000000 1.041748
 45 0.136315 -3.738192 2.525891 1.493698 2.759406 -1.474501
 46 -2.193618 0.798257 4.032639 1.563844 0.186374 -0.074848
 47 11.389366 -0.000820 0.158782 2.047670 0.340465 0.320327
 48 0.000001 -4.440599 0.000000 1.570144 -3.078602 0.004040
 49 6.000000 0.000000 0.000002 2.047670 0.000000 0.000000
 50 0.000002 -4.440602 0.000001 1.569944 -3.078603 0.004053
 51 10.510131 0.000000 0.000002 -0.000000 0.000000 -2.685402
 52 -0.000000 -1.748399 -4.999999 -3.141593 0.004007 -1.539299
 53 5.500000 0.000000 0.000000 -0.122462 -0.000000 -0.000000
 54 -0.000001 -0.000000 -5.000002 -0.044472 3.137590 -0.000177
 55 6.551491 -0.000001 0.000002 0.122462 -0.074091 -0.318680
 56 -1.266844 -1.937444 -4.950559 -0.066572 -2.988806 -0.110308
 57 6.551491 -0.000001 0.000002 0.122462 -0.074091 -0.318680
 58 0.699370 -1.944208 -5.006848 -0.027189 -3.088217 0.005298
 59 4.226147 -0.003202 -0.000000 0.336965 0.120899 -0.143624
 60 0.000002 5.000000 -0.000000 -0.153564 0.000087 2.718702
 61 0.000006 -0.000004 -3.713579 0.119535 -2.936655 -0.885276
 62 0.000003 0.000000 5.000000 3.053195 1.558589 -0.074929
 63 -0.000005 0.000006 3.713580 -0.311487 -2.845558 -0.582080
 64 0.000001 0.000000 -5.000000 -0.088726 1.558589 3.066335
 65 7.363603 1.646648 0.495664 -3.141593 -1.570796 0.000000
 66 -0.000005 0.000007 3.619082 -0.441735 -2.434423 -1.159240
 67 16.573917 -0.000000 0.000001 -0.000000 -0.000000 -2.011748
 68 15.128181 0.000000 -0.000000 0.026832 0.026147 -0.175154
 69 5.758666 4.244731 0.000000 0.000000 -0.000000 2.033309
 70 3.177727 0.000000 0.000000 0.000000 0.000000 3.141593
 71 15.708951 0.000002 -0.000000 0.013957 0.013894 -0.093781
 72 0.275148 0.189215 -3.445208 3.130898 0.000409 -1.514604
 73 17.210192 -0.000001 0.000002 -0.000000 0.000000 -2.319003
 74 0.000000 -0.000001 -5.000000 -0.079433 1.546568 -1.570857
 75 0.000007 -0.000003 -3.619079 0.260448 -2.945758 -1.468642
 76 16.573919 -0.000000 0.000001 0.000000 0.000000 -1.562392
 77 15.128181 0.000000 0.000001 0.265624 -0.173430 0.666428
 78 5.758665 4.244731 0.000000 -0.000000 0.000000 1.483530
 79 4.003934 -0.000000 0.000000 0.000000 0.000000 0.000000
 80 15.708953 0.000000 0.000000 0.195074 -0.100553 0.460486
 81 0.273998 0.191090 3.439762 -3.130907 -0.000437 -1.508107
 82 17.210194 -0.000000 0.000000 -0.000000 0.000000 -2.116793
 83 0.000000 0.000000 5.000000 -0.079311 1.595025 -1.570737
time 4
  0 0.500000 13.522099 26.931471 -0.243067 0.535714 -2.432935
  1 13.773751 5.584523 -22.520975 -0.544290 0.221328 2.303921
  2 -2.276934 0.000003 -1.238185 -1.570795 -1.570451 0.000000
  3 1.797289 0.711799 -0.000042 0.012738 -0.304987 0.040463
  4 4.119938 -0.002996 -0.000003 0.000671 0.054996 0.418871
  5 4.119030 -0.003251 -0.000028 0.008831 0.111886 0.131973
  6 4.116989 -0.002856 -0.000014 0.004046 0.064454 -0.514094
  7 4.117723 -0.002798 -0.001979 0.611884 0.228547 -0.147344
  8 4.443597 0.000001 -0.000000 0.093190 0.157515 0.101774
  9 9.024060 -0.000000 0.000000 0.000000 0.000000 0.000000
 10 -0.392570 0.972949 1.381469 1.137181 -1.093880 2.257529
 11 6.384778 0.000000 -0.000000 -1.170183 -0.168172 -1.593022
 12 10.242682 0.000000 -0.000002 0.000000 0.000000 -1.336237
 13 11.375563 -0.000001 0.000001 -2.752947 -0.584516 0.869329
 14 0.728682 0.023430 -1.008291 1.051563 0.167831 0.364467
 15 2.136496 0.000000 0.000002 -0.000000 -0.000000 -0.078540
 16 2.313140 -0.000000 -0.000001 0.000000 0.000000 0.000000
 17 3.115507 -0.886040 -0.021431 -0.853677 -0.690048 1.145749
 18 2.011150 0.000001 -0.000002 -0.000000 -0.000000 1.322792
 19 2.141379 -0.000000 0.000001 0.000000 0.000000 0.000000
 20 1.734171 0.000001 0.000001 0.000000 -0.000000 0.660693
 21 0.000007 -4.440594 -0.000001 1.570544 -0.062990 -0.195737
 22 6.000000 -0.000000 0.000000 -2.422520 0.000000 -0.000000
 23 0.000001 -4.440601 0.000000 1.569944 -0.062987 0.004053
 24 11.375563 -0.000001 0.000003 -2.059726 -0.403414 0.306706
 25 -0.000002 -4.440604 -0.000000 1.570144 -0.062988 0.004040
 26 10.510131 -0.000001 -0.000001 -0.000000 0.000000 -2.238915
 27 -0.000001 -1.748401 4.999999 0.000000 0.004007 1.602291
 28 5.500001 0.000001 -0.000001 0.396043 0.000000 0.000000
 29 -0.000001 -1.940598 5.000000 -0.044472 0.004003 -0.000180
 30 6.551492 0.000000 0.000000 -0.824843 0.010821 -1.214586
 31 0.000001 -1.940597 5.000002 -0.027189 -0.053376 0.005295
 32 6.551492 0.000000 -0.000000 -0.301648 0.119724 -0.444214
 33 -0.000001 -1.940599 4.999997 -0.066572 -0.152786 -0.110311
 34 0.392567 -0.965869 -1.381469 2.032137 1.116738 -0.856101
 35 6.384777 -0.000000 -0.000002 0.411869 -0.066854 -1.141529
 36 10.242682 0.000001 -0.000002 -0.000000 -0.000000 -2.228241
 37 11.375563 0.000001 -0.000001 2.678640 0.472104 0.837008
 38 0.728681 0.023431 1.008291 -1.579583 -0.319038 0.212973
 39 2.136496 0.000003 0.000000 0.000000 -0.000000 1.282817
 40 2.313138 -0.000001 0.000000 0.000000 0.000000 3.141593
 41 3.115506 -0.886041 0.021431 0.420766 0.316066 0.167178
 42 2.011152 0.000001 0.000003 -0.000000 0.000000 2.082010
 43 2.141380 0.000001 -0.000001 0.000000 0.000000 3.141593
 44 1.734172 -0.000001 0.000001 -0.000000 0.000000 1.041748
 45 0.136315 -3.738193 2.525890 1.493698 2.759406 -1.474501
 46 -2.193618 0.798257 4.032638 1.563844 0.186374 -0.074848
 47 11.389366 -0.000820 0.158779 2.050597 0.340600 0.328248
 48 -0.000000 -4.440599 -0.000001 1.570144 -3.078602 0.004040
 49 6.000000 -0.000000 -0.000003 2.050597 -0.000000 0.000000
 50 0.000002 -4.440602 0.000001 1.569944 -3.078603 0.004053
 51 10.510133 0.000000 0.000002 -0.000000 -0.000000 -2.684917
 52 0.000000 -1.748400 -5.000002 -3.141593 0.004007 -1.539299
 53 5.500000 -0.000000 0.000001 -0.127967 0.000000 0.000000
 54 -0.000001 -0.000001 -5.000000 -0.044472 3.137589 -0.000177
 55 6.551491 -0.000001 -0.000001 0.127967 -0.080221 -0.314057
 56 -1.266843 -1.937441 -4.950561 -0.066572 -2.988806 -0.110308
 57 6.551491 -0.000000 -0.000001 0.127967 -0.080221 -0.314057
 58 0.699370 -1.944207 -5.006848 -0.027189 -3.088217 0.005298
 59 4.226144 -0.003201 0.000001 0.338897 0.123806 -0.110811
 60 0.000003 5.000000 -0.000000 -0.153564 0.000087 2.718702
 61 0.000006 -0.000004 -3.713579 0.119535 -2.936655 -0.885276
 62 0.000003 0.000000 5.000000 3.053195 1.558589 -0.074929
 63 -0.000005 0.000006 3.713580 -0.311487 -2.845558 -0.582080
 64 0.000001 0.000000 -5.000000 -0.088726 1.558589 3.066335
 65 7.363603 1.646648 0.495664 -3.141593 -1.570796 0.000000
 66 -0.000005 0.000007 3.619082 -0.441735 -2.434423 -1.159240
 67 16.573917 -0.000000 0.000001 -0.000000 -0.000000 -2.011748
 68 15.128181 0.000000 -0.000000 0.026832 0.026147 -0.175154
 69 5.758666 4.244731 0.000000 0.000000 -0.000000 2.033309
 70 3.177727 0.000000 0.000000 0.000000 0.000000 3.141593
 71 15.708951 0.000002 -0.000000 0.013957 0.013894 -0.093781
 72 0.275148 0.189215 -3.445208 3.130898 0.000409 -1.514604
 73 17.210192 -0.000001 0.000002 -0.000000 0.000000 -2.319003
 74 0.000000 -0.000001 -5.000000 -0.079433 1.546568 -1.570857
 75 0.000007 -0.000003 -3.619079 0.260448 -2.945758 -1.468642
 76 16.573919 -0.000000 0.000001 0.000000 0.000000 -1.562392
 77 15.128181 0.000000 0.000001 0.265624 -0.173430 0.666428
 78 5.758665 4.244731 0.000000 -0.000000 0.000000 1.483530
 79 4.003934 -0.000000 0.000000 0.000000 0.000000 0.000000
 80 15.708953 0.000000 0.000000 0.195074 -0.100553 0.460486
 81 0.273998 0.191090 3.439762 -3.130907 -0.000437 -1.508107
 82 17.210194 -0.000000 0.000000 -0.000000 0.000000 -2.116793
 83 0.000000 0.000000 5.000000 -0.079311 1.595025 -1.570737
end
