version 1
nodes
  0 "Bip01"  -1
  1 "Bip01 Footsteps"   0
  2 "Bip01 Pelvis"   0
  3 "Bip01 Spine"   2
  4 "Bip01 Spine1"   3
  5 "Bip01 Spine2"   4
  6 "Bip01 Spine3"   5
  7 "Bip01 Neck"   6
  8 "Bip01 Head"   7
  9 "Dummy21"   8
 10 "Bip01 L Clavicle"   7
 11 "Bip01 L UpperArm"  10
 12 "Bip01 L Forearm"  11
 13 "Bip01 L Hand"  12
 14 "Bip01 L Finger0"  13
 15 "Bip01 L Finger01"  14
 16 "Dummy06"  15
 17 "Bip01 L Finger1"  13
 18 "Bip01 L Finger11"  17
 19 "Dummy03"  18
 20 "-- L knuckle"  17
 21 "-- L knuckle_end"  20
 22 "-- L Forearm twist"  12
 23 "-- L Forearm twist_end"  22
 24 "-- L wrist"  12
 25 "-- L wrist_end"  24
 26 "-- L Elbow"  11
 27 "--L Elbow_end"  26
 28 "-- L bicep twist"  11
 29 "-- L bicep twist_end"  28
 30 "-- L shoulder outside"  10
 31 "-- L shoulder outside_end"  30
 32 "-- L Shoulder inside"  10
 33 "-- L Shoulder inside_end"  32
 34 "Bip01 R Clavicle"   7
 35 "Bip01 R UpperArm"  34
 36 "Bip01 R Forearm"  35
 37 "Bip01 R Hand"  36
 38 "Bip01 R Finger0"  37
 39 "Bip01 R Finger01"  38
 40 "Dummy01"  39
 41 "Bip01 R Finger1"  37
 42 "Bip01 R Finger11"  41
 43 "Dummy02"  42
 44 "-- R knuckle"  41
 45 "Point06"  44
 46 "Line06"  37
 47 "-- R wrist"  36
 48 "-- R wrist_end"  47
 49 "-- R forearm twist"  36
 50 "-- R forearm twist_end"  49
 51 "-- R Elbow"  35
 52 "--R Elbow_end"  51
 53 "-- R bicep twist"  35
 54 "-- R bicep twist_end"  53
 55 "-- R Shoulder inside"  34
 56 "-- R Shoulder inside_end"  55
 57 "-- R shoulder outside"  34
 58 "-- R shoulder outside_end"  57
 59 "-- Neck smooth"   6
 60 "-- neck smooth end"  59
 61 "-- R Butt"   2
 62 "--R Butt_end"  61
 63 "-- L butt"   2
 64 "--L butt_end"  63
 65 "GIGN01"   2
 66 "Bip01 L Thigh"   2
 67 "Bip01 L Calf"  66
 68 "Bip01 L Foot"  67
 69 "Bip01 L Toe0"  68
 70 "Dummy16"  69
 71 "-- L ankle"  67
 72 "-- L ankleend"  71
 73 "-- L Knee"  66
 74 "--L Knee_end"  73
 75 "Bip01 R Thigh"   2
 76 "Bip01 R Calf"  75
 77 "Bip01 R Foot"  76
 78 "Bip01 R Toe0"  77
 79 "Dummy11"  78
 80 "-- R Ankle"  76
 81 "-- R ankleend"  80
 82 "-- R Knee"  75
 83 "--R Knee_end"  82
end
skeleton
time 0
  0 0.500000 13.522099 26.931471 -0.243067 0.535714 -2.432935
  1 13.773751 5.584523 -22.520975 -0.544290 0.221328 2.303921
  2 -2.276934 0.000003 -1.238185 -1.570795 -1.570451 0.000000
  3 1.797015 0.711895 -0.000796 0.279019 0.493559 0.093937
  4 4.119792 -0.002959 -0.000762 0.240686 -0.226069 0.327112
  5 4.118877 -0.003155 -0.000849 0.270235 -0.249650 0.018312
  6 4.118733 -0.003250 0.000412 -0.129358 -0.223006 0.069558
  7 4.117383 -0.000526 -0.003278 1.315308 0.291733 -0.331909
  8 4.443597 0.000000 0.000001 0.038080 -0.017282 0.861648
  9 9.024062 -0.000002 0.000001 0.000000 0.000000 0.000000
 10 -0.498351 1.609178 0.419391 -1.344674 -2.669122 -1.215866
 11 6.384777 0.000001 0.000003 -1.217144 0.756161 -1.017900
 12 10.242682 0.000001 -0.000002 0.000000 0.000000 -2.451094
 13 11.375560 -0.000000 0.000000 2.663363 -1.063847 1.294579
 14 0.728681 0.023429 -1.008292 1.051563 0.167831 0.364467
 15 2.136497 0.000001 -0.000002 -0.000000 0.000000 -0.078540
 16 2.313140 -0.000000 0.000001 0.000000 0.000000 0.000000
 17 3.115507 -0.886042 -0.021431 -0.853677 -0.690048 1.145749
 18 2.011150 0.000000 0.000001 0.000000 0.000000 1.322792
 19 2.141379 -0.000000 -0.000002 0.000000 0.000000 0.000000
 20 1.734172 0.000001 0.000001 0.000000 0.000000 0.660693
 21 0.000005 -4.440594 0.000001 1.570544 -0.062990 -0.195737
 22 6.000000 -0.000001 0.000001 -2.908649 -0.000000 0.000000
 23 0.000000 -4.440601 0.000000 1.569944 -0.062987 0.004053
 24 11.375562 -0.000001 0.000005 -2.150259 -0.730914 0.137752
 25 0.000000 -4.440604 0.000000 1.570144 -0.062988 0.004040
 26 10.510129 0.000001 -0.000002 -0.000000 0.000000 -2.796343
 27 0.000001 -1.748402 5.000000 0.000000 0.004007 1.602291
 28 5.499998 0.000000 -0.000001 0.342164 0.000000 0.000000
 29 -0.000003 -1.940598 5.000001 -0.044472 0.004003 -0.000180
 30 6.551490 -0.000002 -0.000000 -0.714971 0.569791 -0.464676
 31 0.000001 -1.940598 5.000001 -0.027189 -0.053376 0.005295
 32 6.551490 -0.000002 -0.000000 -0.274383 0.296531 -0.147974
 33 0.000001 -1.940600 4.999996 -0.066572 -0.152786 -0.110311
 34 0.498350 -1.602101 -0.419392 1.457921 0.421464 -0.900364
 35 6.384775 -0.000001 0.000002 0.379039 0.489543 -1.080675
 36 10.242682 0.000000 -0.000004 0.000000 0.000000 -2.284436
 37 11.375561 0.000000 0.000001 2.834865 0.116400 0.510313
 38 0.728681 0.023431 1.008290 -1.579583 -0.319038 0.212973
 39 2.136496 0.000002 0.000000 -0.000000 0.000000 1.282817
 40 2.313138 -0.000001 0.000000 0.000000 0.000000 3.141593
 41 3.115507 -0.886041 0.021431 0.420766 0.316066 0.167178
 42 2.011151 0.000000 0.000002 -0.000000 0.000000 2.082010
 43 2.141379 0.000000 0.000001 0.000000 0.000000 3.141593
 44 1.734173 -0.000001 0.000001 -0.000000 -0.000000 1.041748
 45 0.136315 -3.738194 2.525890 1.493698 2.759406 -1.474501
 46 -2.193618 0.798257 4.032639 1.563844 0.186374 -0.074848
 47 11.389367 -0.000819 0.158780 2.194319 0.153215 0.249711
 48 0.000000 -4.440600 0.000001 1.570144 -3.078602 0.004040
 49 6.000000 0.000000 0.000000 2.194319 -0.000000 -0.000000
 50 0.000002 -4.440600 -0.000000 1.569944 -3.078603 0.004053
 51 10.510132 0.000000 -0.000000 0.000000 0.000000 -2.713014
 52 -0.000000 -1.748400 -5.000001 -3.141593 0.004007 -1.539299
 53 5.500000 0.000001 -0.000003 -0.184368 -0.000000 0.000000
 54 -0.000000 0.000001 -5.000002 -0.044472 3.137589 -0.000177
 55 6.551490 0.000000 0.000001 0.184368 0.080284 -0.306764
 56 -1.266845 -1.937444 -4.950560 -0.066572 -2.988806 -0.110308
 57 6.551490 0.000000 0.000001 0.184368 0.080284 -0.306764
 58 0.699369 -1.944209 -5.006847 -0.027189 -3.088217 0.005298
 59 4.226147 -0.003202 0.000001 0.738866 0.104639 -0.258881
 60 0.000001 5.000001 0.000001 -0.153564 0.000087 2.718702
 61 0.000006 -0.000004 -3.713579 0.119535 -2.936655 -0.885276
 62 0.000003 0.000000 5.000000 3.053195 1.558589 -0.074929
 63 -0.000005 0.000006 3.713580 -0.311487 -2.845558 -0.582080
 64 0.000001 0.000000 -5.000000 -0.088726 1.558589 3.066335
 65 7.363603 1.646648 0.495664 -3.141593 -1.570796 0.000000
 66 -0.000005 0.000007 3.619082 -0.441735 -2.434423 -1.159240
 67 16.573917 -0.000000 0.000001 -0.000000 -0.000000 -2.011748
 68 15.128181 0.000000 -0.000000 0.026832 0.026147 -0.175154
 69 5.758666 4.244731 0.000000 0.000000 -0.000000 2.033309
 70 3.177727 0.000000 0.000000 0.000000 0.000000 3.141593
 71 15.708951 0.000002 -0.000000 0.013957 0.013894 -0.093781
 72 0.275148 0.189215 -3.445208 3.130898 0.000409 -1.514604
 73 17.210192 -0.000001 0.000002 -0.000000 0.000000 -2.319003
 74 0.000000 -0.000001 -5.000000 -0.079433 1.546568 -1.570857
 75 0.000007 -0.000003 -3.619079 0.260448 -2.945758 -1.468642
 76 16.573919 -0.000000 0.000001 0.000000 0.000000 -1.562392
 77 15.128181 0.000000 0.000001 0.265624 -0.173430 0.666428
 78 5.758665 4.244731 0.000000 -0.000000 0.000000 1.483530
 79 4.003934 -0.000000 0.000000 0.000000 0.000000 0.000000
 80 15.708953 0.000000 0.000000 0.195074 -0.100553 0.460486
 81 0.273998 0.191090 3.439762 -3.130907 -0.000437 -1.508107
 82 17.210194 -0.000000 0.000000 -0.000000 0.000000 -2.116793
 83 0.000000 0.000000 5.000000 -0.079311 1.595025 -1.570737
time 1
  0 0.500000 13.522099 26.931471 -0.243067 0.535714 -2.432935
  1 13.773751 5.584523 -22.520975 -0.544290 0.221328 2.303921
  2 -2.276934 0.000003 -1.238185 -1.570795 -1.570451 0.000000
  3 1.796993 0.711902 -0.000816 0.283677 0.476602 0.085067
  4 4.119787 -0.002957 -0.000782 0.246881 -0.222310 0.325510
  5 4.118873 -0.003152 -0.000869 0.276374 -0.240303 0.017758
  6 4.118728 -0.003253 0.000391 -0.122510 -0.218050 0.065776
  7 4.117396 -0.000527 -0.003283 1.320653 0.291366 -0.316829
  8 4.443598 -0.000000 0.000001 0.015538 -0.009528 0.836251
  9 9.024060 0.000001 -0.000001 0.000000 0.000000 0.000000
 10 -0.497743 1.611573 0.410848 -1.358881 -2.674914 -1.213405
 11 6.384777 0.000000 -0.000001 -1.225725 0.751463 -1.027189
 12 10.242682 0.000000 -0.000000 0.000000 0.000000 -2.413714
 13 11.375562 -0.000001 0.000001 2.699581 -1.035492 1.240337
 14 0.728680 0.023432 -1.008292 1.051563 0.167831 0.364467
 15 2.136497 0.000001 -0.000001 -0.000000 0.000000 -0.078540
 16 2.313140 0.000000 0.000001 0.000000 0.000000 0.000000
 17 3.115507 -0.886039 -0.021431 -0.853678 -0.690048 1.145749
 18 2.011151 0.000001 -0.000000 0.000000 -0.000000 1.322792
 19 2.141378 0.000001 0.000000 0.000000 0.000000 0.000000
 20 1.734171 0.000001 0.000000 -0.000000 -0.000000 0.660693
 21 0.000008 -4.440594 0.000000 1.570544 -0.062990 -0.195737
 22 6.000000 -0.000000 -0.000000 -2.907734 0.000000 -0.000000
 23 0.000003 -4.440600 -0.000001 1.569944 -0.062987 0.004053
 24 11.375561 -0.000000 0.000002 -2.166794 -0.713107 0.145092
 25 -0.000002 -4.440604 -0.000000 1.570144 -0.062988 0.004040
 26 10.510132 0.000000 -0.000001 -0.000000 0.000000 -2.777653
 27 0.000001 -1.748402 5.000000 -0.000000 0.004007 1.602291
 28 5.500002 0.000000 -0.000001 0.344296 0.000000 0.000000
 29 -0.000003 -1.940598 5.000001 -0.044472 0.004003 -0.000180
 30 6.551491 0.000000 -0.000002 -0.720170 0.568961 -0.469764
 31 -0.000001 -1.940598 5.000000 -0.027189 -0.053376 0.005295
 32 6.551491 0.000000 -0.000002 -0.275969 0.296568 -0.149648
 33 -0.000001 -1.940599 4.999998 -0.066572 -0.152786 -0.110311
 34 0.497742 -1.604498 -0.410849 1.513565 0.467244 -0.846623
 35 6.384776 0.000001 -0.000000 0.380892 0.445095 -1.047833
 36 10.242682 -0.000000 -0.000001 0.000000 -0.000000 -2.294766
 37 11.375562 -0.000000 -0.000001 2.842792 0.135871 0.573301
 38 0.728681 0.023430 1.008295 -1.579583 -0.319038 0.212973
 39 2.136497 0.000001 0.000000 0.000000 0.000000 1.282817
 40 2.313139 -0.000000 0.000000 0.000000 0.000000 3.141593
 41 3.115507 -0.886041 0.021434 0.420766 0.316066 0.167178
 42 2.011151 0.000000 -0.000001 -0.000000 0.000000 2.082010
 43 2.141379 -0.000000 -0.000001 0.000000 0.000000 3.141593
 44 1.734173 -0.000001 -0.000001 -0.000000 0.000000 1.041748
 45 0.136315 -3.738193 2.525892 1.493698 2.759406 -1.474501
 46 -2.193618 0.798256 4.032643 1.563844 0.186374 -0.074848
 47 11.389367 -0.000820 0.158780 2.195181 0.172249 0.274617
 48 0.000000 -4.440600 -0.000000 1.570144 -3.078602 0.004040
 49 6.000000 0.000000 -0.000000 2.195181 0.000000 -0.000000
 50 0.000001 -4.440601 0.000001 1.569944 -3.078603 0.004053
 51 10.510131 -0.000000 0.000000 0.000000 0.000000 -2.718179
 52 -0.000000 -1.748400 -5.000003 -3.141593 0.004007 -1.539299
 53 5.500000 -0.000000 0.000000 -0.176641 0.000000 -0.000000
 54 0.000000 0.000001 -4.999999 -0.044472 3.137589 -0.000177
 55 6.551490 0.000000 -0.000000 0.176641 0.070719 -0.300681
 56 -1.266843 -1.937443 -4.950560 -0.066572 -2.988806 -0.110308
 57 6.551491 0.000000 0.000000 0.176641 0.070719 -0.300681
 58 0.699372 -1.944208 -5.006846 -0.027189 -3.088217 0.005298
 59 4.226147 -0.003203 0.000000 0.741106 0.107253 -0.250493
 60 -0.000000 5.000001 0.000000 -0.153565 0.000087 2.718702
 61 0.000006 -0.000004 -3.713579 0.119535 -2.936655 -0.885276
 62 0.000003 0.000000 5.000000 3.053195 1.558589 -0.074929
 63 -0.000005 0.000006 3.713580 -0.311487 -2.845558 -0.582080
 64 0.000001 0.000000 -5.000000 -0.088726 1.558589 3.066335
 65 7.363603 1.646648 0.495664 -3.141593 -1.570796 0.000000
 66 -0.000005 0.000007 3.619082 -0.441735 -2.434423 -1.159240
 67 16.573917 -0.000000 0.000001 -0.000000 -0.000000 -2.011748
 68 15.128181 0.000000 -0.000000 0.026832 0.026147 -0.175154
 69 5.758666 4.244731 0.000000 0.000000 -0.000000 2.033309
 70 3.177727 0.000000 0.000000 0.000000 0.000000 3.141593
 71 15.708951 0.000002 -0.000000 0.013957 0.013894 -0.093781
 72 0.275148 0.189215 -3.445208 3.130898 0.000409 -1.514604
 73 17.210192 -0.000001 0.000002 -0.000000 0.000000 -2.319003
 74 0.000000 -0.000001 -5.000000 -0.079433 1.546568 -1.570857
 75 0.000007 -0.000003 -3.619079 0.260448 -2.945758 -1.468642
 76 16.573919 -0.000000 0.000001 0.000000 0.000000 -1.562392
 77 15.128181 0.000000 0.000001 0.265624 -0.173430 0.666428
 78 5.758665 4.244731 0.000000 -0.000000 0.000000 1.483530
 79 4.003934 -0.000000 0.000000 0.000000 0.000000 0.000000
 80 15.708953 0.000000 0.000000 0.195074 -0.100553 0.460486
 81 0.273998 0.191090 3.439762 -3.130907 -0.000437 -1.508107
 82 17.210194 -0.000000 0.000000 -0.000000 0.000000 -2.116793
 83 0.000000 0.000000 5.000000 -0.079311 1.595025 -1.570737
time 2
  0 0.500000 13.522099 26.931471 -0.243067 0.535714 -2.432935
  1 13.773751 5.584523 -22.520975 -0.544290 0.221328 2.303921
  2 -2.276934 0.000003 -1.238185 -1.570795 -1.570451 0.000000
  3 1.796972 0.711909 -0.000837 0.288463 0.459682 0.076185
  4 4.119785 -0.002955 -0.000802 0.253064 -0.218541 0.323933
  5 4.118863 -0.003142 -0.000892 0.282495 -0.230953 0.017264
  6 4.118726 -0.003259 0.000371 -0.115688 -0.213069 0.062032
  7 4.117408 -0.000526 -0.003288 1.325991 0.290923 -0.301751
  8 4.443599 -0.000000 -0.000001 -0.007673 -0.003076 0.810429
  9 9.024060 0.000000 0.000001 0.000000 0.000000 0.000000
 10 -0.497003 1.613958 0.402314 -1.373032 -2.680735 -1.211043
 11 6.384777 -0.000000 -0.000000 -1.235038 0.745967 -1.035298
 12 10.242683 0.000000 0.000000 -0.000000 -0.000000 -2.377118
 13 11.375562 -0.000000 0.000001 2.731040 -1.004322 1.191931
 14 0.728680 0.023428 -1.008292 1.051563 0.167831 0.364467
 15 2.136496 0.000000 -0.000001 -0.000000 -0.000000 -0.078540
 16 2.313141 0.000000 -0.000001 0.000000 0.000000 0.000000
 17 3.115506 -0.886042 -0.021431 -0.853677 -0.690048 1.145749
 18 2.011150 0.000000 -0.000001 -0.000000 0.000000 1.322791
 19 2.141379 -0.000001 -0.000001 0.000000 0.000000 0.000000
 20 1.734172 0.000001 -0.000001 -0.000000 0.000000 0.660693
 21 0.000006 -4.440593 -0.000000 1.570544 -0.062990 -0.195737
 22 6.000000 0.000001 0.000001 -2.909790 0.000000 0.000000
 23 0.000001 -4.440600 0.000001 1.569944 -0.062987 0.004053
 24 11.375561 0.000001 0.000004 -2.183670 -0.695053 0.153376
 25 0.000002 -4.440603 0.000000 1.570144 -0.062988 0.004040
 26 10.510133 0.000001 -0.000001 0.000000 -0.000000 -2.759356
 27 -0.000001 -1.748400 4.999998 -0.000000 0.004007 1.602291
 28 5.500000 0.000000 -0.000000 0.347098 -0.000000 0.000000
 29 -0.000002 -1.940598 5.000000 -0.044472 0.004003 -0.000180
 30 6.551492 0.000001 0.000002 -0.726656 0.568071 -0.474335
 31 -0.000001 -1.940600 5.000004 -0.027189 -0.053376 0.005295
 32 6.551492 0.000001 0.000002 -0.278098 0.296564 -0.150963
 33 -0.000000 -1.940599 4.999999 -0.066572 -0.152786 -0.110311
 34 0.497008 -1.606881 -0.402314 1.575781 0.508355 -0.787825
 35 6.384777 0.000002 -0.000001 0.381033 0.397086 -1.018624
 36 10.242681 0.000001 -0.000000 0.000000 0.000000 -2.305096
 37 11.375560 0.000000 0.000001 2.851966 0.154807 0.636621
 38 0.728681 0.023431 1.008293 -1.579583 -0.319038 0.212973
 39 2.136496 -0.000000 0.000000 -0.000000 0.000000 1.282817
 40 2.313138 -0.000001 0.000000 0.000000 0.000000 3.141593
 41 3.115506 -0.886041 0.021431 0.420766 0.316066 0.167178
 42 2.011150 0.000000 0.000000 -0.000000 0.000000 2.082010
 43 2.141379 -0.000000 0.000001 0.000000 0.000000 3.141593
 44 1.734172 -0.000000 0.000002 -0.000000 -0.000000 1.041748
 45 0.136315 -3.738192 2.525893 1.493698 2.759406 -1.474501
 46 -2.193618 0.798256 4.032640 1.563844 0.186374 -0.074848
 47 11.389367 -0.000820 0.158781 2.196148 0.190768 0.298975
 48 0.000001 -4.440599 0.000001 1.570144 -3.078602 0.004040
 49 6.000000 -0.000000 0.000000 2.196148 -0.000000 -0.000000
 50 0.000001 -4.440600 -0.000000 1.569944 -3.078603 0.004053
 51 10.510131 0.000001 0.000001 0.000000 0.000000 -2.723345
 52 -0.000001 -1.748400 -5.000002 -3.141593 0.004007 -1.539299
 53 5.500000 0.000000 0.000002 -0.169177 -0.000000 0.000000
 54 0.000000 -0.000000 -5.000001 -0.044472 3.137589 -0.000177
 55 6.551491 0.000000 -0.000000 0.169177 0.059892 -0.295732
 56 -1.266843 -1.937444 -4.950558 -0.066572 -2.988806 -0.110308
 57 6.551492 0.000001 -0.000000 0.169177 0.059892 -0.295732
 58 0.699371 -1.944208 -5.006846 -0.027189 -3.088217 0.005298
 59 4.226148 -0.003203 0.000000 0.743360 0.109871 -0.242026
 60 0.000002 5.000000 0.000001 -0.153564 0.000087 2.718702
 61 0.000006 -0.000004 -3.713579 0.119535 -2.936655 -0.885276
 62 0.000003 0.000000 5.000000 3.053195 1.558589 -0.074929
 63 -0.000005 0.000006 3.713580 -0.311487 -2.845558 -0.582080
 64 0.000001 0.000000 -5.000000 -0.088726 1.558589 3.066335
 65 7.363603 1.646648 0.495664 -3.141593 -1.570796 0.000000
 66 -0.000005 0.000007 3.619082 -0.441735 -2.434423 -1.159240
 67 16.573917 -0.000000 0.000001 -0.000000 -0.000000 -2.011748
 68 15.128181 0.000000 -0.000000 0.026832 0.026147 -0.175154
 69 5.758666 4.244731 0.000000 0.000000 -0.000000 2.033309
 70 3.177727 0.000000 0.000000 0.000000 0.000000 3.141593
 71 15.708951 0.000002 -0.000000 0.013957 0.013894 -0.093781
 72 0.275148 0.189215 -3.445208 3.130898 0.000409 -1.514604
 73 17.210192 -0.000001 0.000002 -0.000000 0.000000 -2.319003
 74 0.000000 -0.000001 -5.000000 -0.079433 1.546568 -1.570857
 75 0.000007 -0.000003 -3.619079 0.260448 -2.945758 -1.468642
 76 16.573919 -0.000000 0.000001 0.000000 0.000000 -1.562392
 77 15.128181 0.000000 0.000001 0.265624 -0.173430 0.666428
 78 5.758665 4.244731 0.000000 -0.000000 0.000000 1.483530
 79 4.003934 -0.000000 0.000000 0.000000 0.000000 0.000000
 80 15.708953 0.000000 0.000000 0.195074 -0.100553 0.460486
 81 0.273998 0.191090 3.439762 -3.130907 -0.000437 -1.508107
 82 17.210194 -0.000000 0.000000 -0.000000 0.000000 -2.116793
 83 0.000000 0.000000 5.000000 -0.079311 1.595025 -1.570737
time 3
  0 0.500000 13.522099 26.931471 -0.243067 0.535714 -2.432935
  1 13.773751 5.584523 -22.520975 -0.544290 0.221328 2.303921
  2 -2.276934 0.000003 -1.238185 -1.570795 -1.570451 0.000000
  3 1.796950 0.711916 -0.000857 0.293377 0.442801 0.067286
  4 4.119778 -0.002951 -0.000822 0.259236 -0.214762 0.322381
  5 4.118861 -0.003140 -0.000910 0.288597 -0.221600 0.016829
  6 4.118719 -0.003259 0.000349 -0.108893 -0.208063 0.058328
  7 4.117420 -0.000526 -0.003293 1.331320 0.290403 -0.286678
  8 4.443599 0.000001 -0.000000 -0.031494 0.002021 0.784223
  9 9.024062 -0.000001 0.000001 0.000000 0.000000 0.000000
 10 -0.496142 1.616330 0.393786 -1.387128 -2.686586 -1.208778
 11 6.384777 -0.000000 0.000000 -1.244778 0.739927 -1.042200
 12 10.242683 0.000001 -0.000001 -0.000000 -0.000000 -2.341688
 13 11.375562 0.000001 0.000002 2.758104 -0.970767 1.149089
 14 0.728681 0.023433 -1.008293 1.051563 0.167831 0.364467
 15 2.136497 -0.000000 0.000000 -0.000000 -0.000000 -0.078540
 16 2.313139 -0.000000 0.000000 0.000000 0.000000 0.000000
 17 3.115505 -0.886041 -0.021431 -0.853678 -0.690048 1.145749
 18 2.011151 0.000001 0.000000 0.000000 -0.000000 1.322792
 19 2.141380 -0.000001 0.000000 0.000000 0.000000 0.000000
 20 1.734171 0.000000 0.000002 0.000000 -0.000000 0.660693
 21 0.000007 -4.440594 0.000001 1.570544 -0.062990 -0.195737
 22 5.999999 0.000001 0.000001 -2.914105 0.000000 -0.000000
 23 0.000001 -4.440602 -0.000000 1.569944 -0.062987 0.004053
 24 11.375560 0.000002 0.000004 -2.200672 -0.676818 0.162446
 25 -0.000002 -4.440603 0.000001 1.570144 -0.062988 0.004040
 26 10.510132 0.000001 -0.000002 -0.000000 -0.000000 -2.741640
 27 0.000001 -1.748400 5.000000 -0.000000 0.004007 1.602291
 28 5.500001 0.000000 -0.000001 0.350411 -0.000000 -0.000000
 29 -0.000002 -1.940599 5.000002 -0.044472 0.004003 -0.000180
 30 6.551491 0.000000 0.000001 -0.734110 0.567158 -0.478358
 31 0.000001 -1.940598 5.000000 -0.027189 -0.053376 0.005295
 32 6.551491 0.000000 0.000001 -0.280641 0.296529 -0.151937
 33 0.000001 -1.940599 4.999994 -0.066572 -0.152786 -0.110311
 34 0.496145 -1.609252 -0.393787 1.644491 0.544113 -0.723981
 35 6.384777 0.000000 -0.000001 0.379752 0.345769 -0.992965
 36 10.242682 -0.000000 -0.000002 -0.000000 0.000000 -2.315427
 37 11.375562 0.000000 0.000001 2.862366 0.173129 0.700309
 38 0.728681 0.023431 1.008295 -1.579583 -0.319038 0.212973
 39 2.136498 -0.000003 -0.000000 -0.000000 0.000000 1.282817
 40 2.313140 0.000000 0.000001 0.000000 0.000000 3.141593
 41 3.115507 -0.886041 0.021434 0.420766 0.316066 0.167178
 42 2.011151 0.000000 -0.000001 -0.000000 0.000000 2.082010
 43 2.141380 -0.000000 0.000000 0.000000 0.000000 3.141593
 44 1.734172 -0.000000 0.000002 -0.000000 -0.000000 1.041748
 45 0.136315 -3.738193 2.525892 1.493698 2.759406 -1.474501
 46 -2.193618 0.798257 4.032640 1.563844 0.186374 -0.074848
 47 11.389366 -0.000819 0.158782 2.197219 0.208913 0.322997
 48 0.000001 -4.440597 -0.000001 1.570144 -3.078602 0.004040
 49 6.000000 -0.000000 -0.000001 2.197219 0.000000 -0.000000
 50 0.000002 -4.440601 -0.000000 1.569944 -3.078603 0.004053
 51 10.510130 -0.000000 0.000000 -0.000000 -0.000000 -2.728510
 52 0.000001 -1.748400 -5.000002 -3.141593 0.004007 -1.539299
 53 5.499999 -0.000001 -0.000002 -0.161900 -0.000000 0.000000
 54 -0.000000 -0.000001 -4.999999 -0.044472 3.137589 -0.000177
 55 6.551491 -0.000001 0.000000 0.161900 0.047797 -0.291693
 56 -1.266844 -1.937445 -4.950560 -0.066572 -2.988806 -0.110308
 57 6.551491 -0.000001 0.000000 0.161900 0.047797 -0.291693
 58 0.699370 -1.944208 -5.006846 -0.027189 -3.088217 0.005298
 59 4.226144 -0.003201 0.000000 0.745629 0.112492 -0.233478
 60 0.000000 5.000000 -0.000001 -0.153564 0.000087 2.718702
 61 0.000006 -0.000004 -3.713579 0.119535 -2.936655 -0.885276
 62 0.000003 0.000000 5.000000 3.053195 1.558589 -0.074929
 63 -0.000005 0.000006 3.713580 -0.311487 -2.845558 -0.582080
 64 0.000001 0.000000 -5.000000 -0.088726 1.558589 3.066335
 65 7.363603 1.646648 0.495664 -3.141593 -1.570796 0.000000
 66 -0.000005 0.000007 3.619082 -0.441735 -2.434423 -1.159240
 67 16.573917 -0.000000 0.000001 -0.000000 -0.000000 -2.011748
 68 15.128181 0.000000 -0.000000 0.026832 0.026147 -0.175154
 69 5.758666 4.244731 0.000000 0.000000 -0.000000 2.033309
 70 3.177727 0.000000 0.000000 0.000000 0.000000 3.141593
 71 15.708951 0.000002 -0.000000 0.013957 0.013894 -0.093781
 72 0.275148 0.189215 -3.445208 3.130898 0.000409 -1.514604
 73 17.210192 -0.000001 0.000002 -0.000000 0.000000 -2.319003
 74 0.000000 -0.000001 -5.000000 -0.079433 1.546568 -1.570857
 75 0.000007 -0.000003 -3.619079 0.260448 -2.945758 -1.468642
 76 16.573919 -0.000000 0.000001 0.000000 0.000000 -1.562392
 77 15.128181 0.000000 0.000001 0.265624 -0.173430 0.666428
 78 5.758665 4.244731 0.000000 -0.000000 0.000000 1.483530
 79 4.003934 -0.000000 0.000000 0.000000 0.000000 0.000000
 80 15.708953 0.000000 0.000000 0.195074 -0.100553 0.460486
 81 0.273998 0.191090 3.439762 -3.130907 -0.000437 -1.508107
 82 17.210194 -0.000000 0.000000 -0.000000 0.000000 -2.116793
 83 0.000000 0.000000 5.000000 -0.079311 1.595025 -1.570737
time 4
  0 0.500000 13.522099 26.931471 -0.243067 0.535714 -2.432935
  1 13.773751 5.584523 -22.520975 -0.544290 0.221328 2.303921
  2 -2.276934 0.000003 -1.238185 -1.570795 -1.570451 0.000000
  3 1.796929 0.711923 -0.000879 0.298417 0.425959 0.058365
  4 4.119772 -0.002948 -0.000841 0.265397 -0.210974 0.320854
  5 4.118854 -0.003133 -0.000932 0.294683 -0.212244 0.016454
  6 4.118718 -0.003264 0.000330 -0.102123 -0.203033 0.054662
  7 4.117435 -0.000526 -0.003298 1.336640 0.289807 -0.271609
  8 4.443599 0.000000 0.000000 -0.055863 0.005710 0.757679
  9 9.024059 0.000002 -0.000001 0.000000 0.000000 0.000000
 10 -0.495153 1.618688 0.385268 -1.401170 -2.692465 -1.206612
 11 6.384778 0.000000 0.000001 -1.254698 0.733619 -1.047914
 12 10.242682 0.000001 -0.000002 -0.000000 0.000000 -2.307810
 13 11.375561 -0.000001 0.000000 2.781233 -0.935224 1.111452
 14 0.728679 0.023428 -1.008292 1.051563 0.167831 0.364467
 15 2.136497 -0.000000 -0.000000 -0.000000 0.000000 -0.078540
 16 2.313139 -0.000000 -0.000001 0.000000 0.000000 0.000000
 17 3.115506 -0.886043 -0.021432 -0.853678 -0.690048 1.145749
 18 2.011151 -0.000000 0.000000 0.000000 -0.000000 1.322792
 19 2.141381 -0.000001 -0.000000 0.000000 0.000000 0.000000
 20 1.734172 0.000000 0.000000 -0.000000 0.000000 0.660693
 21 0.000008 -4.440594 0.000000 1.570544 -0.062990 -0.195737
 22 5.999999 0.000001 -0.000001 -2.920101 0.000000 -0.000000
 23 -0.000000 -4.440601 0.000000 1.569944 -0.062987 0.004053
 24 11.375560 0.000001 0.000002 -2.217613 -0.658470 0.172182
 25 0.000002 -4.440603 -0.000001 1.570144 -0.062988 0.004040
 26 10.510129 0.000001 -0.000001 0.000000 -0.000000 -2.724701
 27 0.000001 -1.748401 4.999998 -0.000000 0.004007 1.602291
 28 5.499999 0.000000 0.000000 0.354076 -0.000000 -0.000000
 29 -0.000001 -1.940599 5.000000 -0.044472 0.004003 -0.000180
 30 6.551491 -0.000001 -0.000001 -0.742227 0.566290 -0.481811
 31 0.000000 -1.940598 5.000003 -0.027189 -0.053376 0.005295
 32 6.551491 -0.000001 -0.000001 -0.283469 0.296486 -0.152584
 33 -0.000000 -1.940600 4.999995 -0.066572 -0.152786 -0.110311
 34 0.495155 -1.611612 -0.385270 1.719368 0.573830 -0.655371
 35 6.384776 -0.000000 0.000001 0.377364 0.291385 -0.970757
 36 10.242682 0.000000 -0.000000 -0.000000 -0.000000 -2.325757
 37 11.375562 0.000000 -0.000001 2.873967 0.190758 0.764399
 38 0.728681 0.023431 1.008293 -1.579583 -0.319038 0.212973
 39 2.136498 -0.000004 -0.000000 0.000000 0.000000 1.282817
 40 2.313140 0.000002 0.000001 0.000000 0.000000 3.141593
 41 3.115507 -0.886041 0.021434 0.420765 0.316066 0.167178
 42 2.011151 -0.000000 0.000001 -0.000000 0.000000 2.082010
 43 2.141380 0.000000 0.000002 0.000000 0.000000 3.141593
 44 1.734172 -0.000001 0.000003 0.000000 -0.000000 1.041748
 45 0.136316 -3.738193 2.525891 1.493698 2.759406 -1.474501
 46 -2.193618 0.798256 4.032642 1.563844 0.186374 -0.074848
 47 11.389366 -0.000819 0.158782 2.198398 0.226831 0.346899
 48 0.000001 -4.440600 0.000002 1.570144 -3.078602 0.004040
 49 6.000000 0.000000 0.000000 2.198398 0.000000 0.000000
 50 0.000002 -4.440600 0.000000 1.569944 -3.078603 0.004053
 51 10.510131 0.000000 -0.000000 0.000000 -0.000000 -2.733675
 52 -0.000000 -1.748399 -5.000001 -3.141593 0.004007 -1.539299
 53 5.500000 0.000000 -0.000001 -0.154723 0.000000 -0.000000
 54 -0.000000 0.000000 -4.999999 -0.044472 3.137589 -0.000177
 55 6.551491 0.000001 -0.000001 0.154723 0.034465 -0.288373
 56 -1.266844 -1.937442 -4.950559 -0.066572 -2.988806 -0.110308
 57 6.551491 0.000001 -0.000001 0.154723 0.034465 -0.288373
 58 0.699371 -1.944207 -5.006848 -0.027189 -3.088217 0.005298
 59 4.226147 -0.003201 0.000000 0.747913 0.115112 -0.224850
 60 -0.000002 5.000000 -0.000002 -0.153564 0.000087 2.718702
 61 0.000006 -0.000004 -3.713579 0.119535 -2.936655 -0.885276
 62 0.000003 0.000000 5.000000 3.053195 1.558589 -0.074929
 63 -0.000005 0.000006 3.713580 -0.311487 -2.845558 -0.582080
 64 0.000001 0.000000 -5.000000 -0.088726 1.558589 3.066335
 65 7.363603 1.646648 0.495664 -3.141593 -1.570796 0.000000
 66 -0.000005 0.000007 3.619082 -0.441735 -2.434423 -1.159240
 67 16.573917 -0.000000 0.000001 -0.000000 -0.000000 -2.011748
 68 15.128181 0.000000 -0.000000 0.026832 0.026147 -0.175154
 69 5.758666 4.244731 0.000000 0.000000 -0.000000 2.033309
 70 3.177727 0.000000 0.000000 0.000000 0.000000 3.141593
 71 15.708951 0.000002 -0.000000 0.013957 0.013894 -0.093781
 72 0.275148 0.189215 -3.445208 3.130898 0.000409 -1.514604
 73 17.210192 -0.000001 0.000002 -0.000000 0.000000 -2.319003
 74 0.000000 -0.000001 -5.000000 -0.079433 1.546568 -1.570857
 75 0.000007 -0.000003 -3.619079 0.260448 -2.945758 -1.468642
 76 16.573919 -0.000000 0.000001 0.000000 0.000000 -1.562392
 77 15.128181 0.000000 0.000001 0.265624 -0.173430 0.666428
 78 5.758665 4.244731 0.000000 -0.000000 0.000000 1.483530
 79 4.003934 -0.000000 0.000000 0.000000 0.000000 0.000000
 80 15.708953 0.000000 0.000000 0.195074 -0.100553 0.460486
 81 0.273998 0.191090 3.439762 -3.130907 -0.000437 -1.508107
 82 17.210194 -0.000000 0.000000 -0.000000 0.000000 -2.116793
 83 0.000000 0.000000 5.000000 -0.079311 1.595025 -1.570737
end
