version 1
nodes
  0 "Bip01"  -1
  1 "Bip01 Footsteps"   0
  2 "Bip01 Pelvis"   0
  3 "Bip01 Spine"   2
  4 "Bip01 Spine1"   3
  5 "Bip01 Spine2"   4
  6 "Bip01 Spine3"   5
  7 "Bip01 Neck"   6
  8 "Bip01 Head"   7
  9 "Dummy21"   8
 10 "Bip01 L Clavicle"   7
 11 "Bip01 L UpperArm"  10
 12 "Bip01 L Forearm"  11
 13 "Bip01 L Hand"  12
 14 "Bip01 L Finger0"  13
 15 "Bip01 L Finger01"  14
 16 "Dummy06"  15
 17 "Bip01 L Finger1"  13
 18 "Bip01 L Finger11"  17
 19 "Dummy03"  18
 20 "-- L knuckle"  17
 21 "-- L knuckle_end"  20
 22 "-- L Forearm twist"  12
 23 "-- L Forearm twist_end"  22
 24 "-- L wrist"  12
 25 "-- L wrist_end"  24
 26 "-- L Elbow"  11
 27 "--L Elbow_end"  26
 28 "-- L bicep twist"  11
 29 "-- L bicep twist_end"  28
 30 "-- L shoulder outside"  10
 31 "-- L shoulder outside_end"  30
 32 "-- L Shoulder inside"  10
 33 "-- L Shoulder inside_end"  32
 34 "Bip01 R Clavicle"   7
 35 "Bip01 R UpperArm"  34
 36 "Bip01 R Forearm"  35
 37 "Bip01 R Hand"  36
 38 "Bip01 R Finger0"  37
 39 "Bip01 R Finger01"  38
 40 "Dummy01"  39
 41 "Bip01 R Finger1"  37
 42 "Bip01 R Finger11"  41
 43 "Dummy02"  42
 44 "-- R knuckle"  41
 45 "Point06"  44
 46 "Line06"  37
 47 "-- R wrist"  36
 48 "-- R wrist_end"  47
 49 "-- R forearm twist"  36
 50 "-- R forearm twist_end"  49
 51 "-- R Elbow"  35
 52 "--R Elbow_end"  51
 53 "-- R bicep twist"  35
 54 "-- R bicep twist_end"  53
 55 "-- R Shoulder inside"  34
 56 "-- R Shoulder inside_end"  55
 57 "-- R shoulder outside"  34
 58 "-- R shoulder outside_end"  57
 59 "-- Neck smooth"   6
 60 "-- neck smooth end"  59
 61 "-- R Butt"   2
 62 "--R Butt_end"  61
 63 "-- L butt"   2
 64 "--L butt_end"  63
 65 "GIGN01"   2
 66 "Bip01 L Thigh"   2
 67 "Bip01 L Calf"  66
 68 "Bip01 L Foot"  67
 69 "Bip01 L Toe0"  68
 70 "Dummy16"  69
 71 "-- L ankle"  67
 72 "-- L ankleend"  71
 73 "-- L Knee"  66
 74 "--L Knee_end"  73
 75 "Bip01 R Thigh"   2
 76 "Bip01 R Calf"  75
 77 "Bip01 R Foot"  76
 78 "Bip01 R Toe0"  77
 79 "Dummy11"  78
 80 "-- R Ankle"  76
 81 "-- R ankleend"  80
 82 "-- R Knee"  75
 83 "--R Knee_end"  82
end
skeleton
time 0
  0 0.500000 13.522099 26.931471 -0.243067 0.535714 -2.432935
  1 13.773751 5.584523 -22.520975 -0.544290 0.221328 2.303921
  2 -2.276934 0.000003 -1.238185 -1.570795 -1.570451 0.000000
  3 1.797619 0.711871 -0.000520 0.168137 -0.335088 0.091096
  4 4.120038 -0.002901 -0.000542 0.165963 -0.049498 0.451244
  5 4.119131 -0.003185 -0.000568 0.174156 -0.008670 0.162810
  6 4.117843 -0.003134 -0.000598 0.183567 -0.052237 -0.247652
  7 4.118322 -0.003229 -0.001422 0.437246 -0.321117 -0.233004
  8 4.443598 -0.000000 0.000001 0.054393 -0.459926 0.853078
  9 9.024061 -0.000000 0.000001 0.000000 0.000000 0.000000
 10 0.546895 0.699745 1.489472 0.814358 -1.155916 2.580884
 11 6.384777 -0.000001 0.000002 -0.483957 0.623130 -0.672155
 12 10.242682 -0.000000 -0.000001 -0.000000 0.000000 -1.969382
 13 11.375561 0.000001 -0.000000 2.337516 -0.757789 -0.179211
 14 0.728681 0.023431 -1.008291 1.051563 0.167831 0.364467
 15 2.136497 0.000002 -0.000001 -0.000000 0.000000 -0.078540
 16 2.313139 -0.000001 0.000001 0.000000 0.000000 0.000000
 17 3.115507 -0.886041 -0.021431 -0.589803 -0.204622 0.219558
 18 2.011151 -0.000000 0.000000 -0.000000 -0.000000 1.322792
 19 2.141380 0.000000 0.000001 0.000000 0.000000 0.000000
 20 1.734172 0.000000 0.000001 0.000000 -0.000000 0.660693
 21 0.000005 -4.440595 -0.000000 1.570544 -0.062990 -0.195737
 22 5.999999 -0.000000 0.000000 2.673550 -0.000000 0.000000
 23 0.000001 -4.440600 0.000000 1.569944 -0.062987 0.004053
 24 11.375560 -0.000000 0.000003 -2.653324 -0.301942 -0.430852
 25 -0.000001 -4.440603 0.000001 1.570144 -0.062988 0.004040
 26 10.510131 -0.000001 -0.000001 -0.000000 -0.000000 -2.555487
 27 -0.000000 -1.748400 4.999999 -0.000000 0.004007 1.602290
 28 5.500000 0.000000 -0.000000 0.120237 -0.000000 0.000000
 29 -0.000002 -1.940598 5.000000 -0.044472 0.004003 -0.000180
 30 6.551491 -0.000001 0.000001 -0.254266 0.400888 -0.464413
 31 0.000000 -1.940596 5.000001 -0.027189 -0.053376 0.005295
 32 6.551491 -0.000001 0.000001 -0.096234 0.207850 -0.206609
 33 0.000002 -1.940600 4.999997 -0.066572 -0.152786 -0.110311
 34 -0.546894 -0.692666 -1.489472 2.556762 1.276777 -0.414352
 35 6.384777 -0.000001 0.000001 0.219526 0.205095 -0.876538
 36 10.242682 0.000001 0.000002 -0.000000 -0.000000 -2.348361
 37 11.375562 0.000002 -0.000001 2.568033 -0.142824 0.803638
 38 0.728680 0.023431 1.008291 -1.579583 -0.319038 0.212973
 39 2.136497 0.000001 0.000000 -0.000000 0.000000 1.282817
 40 2.313138 0.000000 0.000000 0.000000 0.000000 3.141593
 41 3.115506 -0.886041 0.021430 0.420766 0.316066 0.167178
 42 2.011151 0.000000 -0.000000 -0.000000 0.000000 2.082010
 43 2.141379 0.000001 -0.000000 0.000000 0.000000 3.141593
 44 1.734172 -0.000001 -0.000000 0.000000 -0.000000 1.041748
 45 0.136315 -3.738194 2.525890 1.493698 2.759406 -1.474501
 46 -2.193619 0.798256 4.032638 1.563844 0.186374 -0.074848
 47 11.389367 -0.000819 0.158781 2.083284 0.033760 0.424969
 48 0.000001 -4.440599 -0.000000 1.570144 -3.078602 0.004040
 49 6.000000 0.000001 -0.000000 2.083284 0.000000 0.000000
 50 0.000002 -4.440602 0.000002 1.569944 -3.078603 0.004053
 51 10.510132 0.000001 0.000003 -0.000000 0.000000 -2.744977
 52 0.000001 -1.748400 -5.000003 3.141593 0.004007 -1.539299
 53 5.500000 0.000002 0.000001 -0.089344 -0.000000 0.000000
 54 -0.000001 0.000001 -5.000000 -0.044472 3.137589 -0.000177
 55 6.551490 0.000001 0.000001 0.089344 0.039416 -0.271930
 56 -1.266844 -1.937444 -4.950560 -0.066572 -2.988806 -0.110308
 57 6.551491 0.000001 0.000001 0.089344 0.039416 -0.271930
 58 0.699369 -1.944208 -5.006846 -0.027189 -3.088217 0.005298
 59 4.226145 -0.003202 0.000000 0.233678 -0.198027 -0.121111
 60 0.000000 4.999999 0.000001 -0.153564 0.000087 2.718702
 61 0.000006 -0.000004 -3.713579 0.119535 -2.936655 -0.885276
 62 0.000003 0.000000 5.000000 3.053195 1.558589 -0.074929
 63 -0.000005 0.000006 3.713580 -0.311487 -2.845558 -0.582080
 64 0.000002 0.000000 -5.000000 -0.088728 1.558589 3.066333
 65 7.363603 1.646648 0.495664 -3.141593 -1.570796 0.000000
 66 -0.000005 0.000007 3.619082 -0.441735 -2.434423 -1.159240
 67 16.573921 -0.000000 0.000001 -0.000000 0.000000 -2.011748
 68 15.128181 -0.000000 -0.000000 0.026832 0.026147 -0.175154
 69 5.758666 4.244731 -0.000000 0.000000 -0.000000 2.033309
 70 3.177726 0.000001 0.000000 0.000000 0.000000 3.141593
 71 15.708952 0.000002 -0.000001 0.013957 0.013894 -0.093781
 72 0.275149 0.189215 -3.445208 3.130898 0.000409 -1.514604
 73 17.210192 -0.000001 0.000001 -0.000000 -0.000000 -2.319003
 74 0.000000 -0.000001 -5.000000 -0.079433 1.546568 -1.570857
 75 0.000007 -0.000003 -3.619079 0.260448 -2.945758 -1.468642
 76 16.573919 -0.000000 0.000001 0.000000 -0.000000 -1.562392
 77 15.128181 0.000000 0.000001 0.265624 -0.173430 0.666428
 78 5.758665 4.244731 0.000000 -0.000000 0.000000 1.483530
 79 4.003934 -0.000000 0.000000 0.000000 0.000000 0.000000
 80 15.708953 0.000000 0.000001 0.195074 -0.100553 0.460486
 81 0.273998 0.191090 3.439762 -3.130907 -0.000437 -1.508107
 82 17.210194 -0.000000 0.000000 -0.000000 -0.000000 -2.116793
 83 0.000001 0.000000 5.000000 -0.079311 1.595025 -1.570736
time 1
  0 0.500000 13.522099 26.931471 -0.243067 0.535714 -2.432935
  1 13.773751 5.584523 -22.520975 -0.544290 0.221328 2.303921
  2 -2.276934 0.000003 -1.238185 -1.570795 -1.570451 0.000000
  3 1.797618 0.711878 -0.000551 0.178490 -0.335964 0.087687
  4 4.120038 -0.002895 -0.000570 0.174805 -0.053783 0.450788
  5 4.119131 -0.003180 -0.000599 0.183841 -0.010268 0.162719
  6 4.117842 -0.003127 -0.000629 0.193096 -0.049837 -0.248139
  7 4.118463 -0.003290 -0.001301 0.396787 -0.311678 -0.170766
  8 4.443597 0.000001 -0.000001 0.030905 -0.468513 0.805506
  9 9.024061 0.000000 0.000001 0.000000 0.000000 0.000000
 10 0.531350 0.640893 1.521107 0.729253 -1.139040 2.608223
 11 6.384777 -0.000001 0.000000 -0.462293 0.629279 -0.699236
 12 10.242682 -0.000001 -0.000000 0.000000 0.000000 -1.918048
 13 11.375559 -0.000001 -0.000001 2.330070 -0.757918 -0.215669
 14 0.728680 0.023430 -1.008292 1.051563 0.167831 0.364467
 15 2.136497 -0.000001 0.000000 -0.000000 -0.000000 -0.078540
 16 2.313138 -0.000000 0.000001 0.000000 0.000000 0.000000
 17 3.115506 -0.886041 -0.021430 -0.589803 -0.204622 0.219558
 18 2.011151 0.000001 0.000001 -0.000000 -0.000000 1.322791
 19 2.141379 0.000000 -0.000000 0.000000 0.000000 0.000000
 20 1.734172 0.000001 -0.000000 0.000000 -0.000000 0.660693
 21 0.000006 -4.440594 -0.000001 1.570544 -0.062990 -0.195737
 22 5.999999 -0.000000 -0.000000 2.658257 0.000000 0.000000
 23 0.000001 -4.440601 0.000000 1.569944 -0.062987 0.004053
 24 11.375561 0.000001 0.000002 -2.662786 -0.286452 -0.448443
 25 -0.000001 -4.440603 -0.000002 1.570144 -0.062988 0.004040
 26 10.510131 -0.000001 -0.000000 0.000000 0.000000 -2.529820
 27 -0.000000 -1.748401 4.999999 -0.000000 0.004007 1.602291
 28 5.500000 -0.000001 -0.000001 0.105015 -0.000000 0.000000
 29 -0.000002 -1.940598 5.000000 -0.044472 0.004003 -0.000180
 30 6.551492 0.000000 0.000001 -0.229599 0.407610 -0.477427
 31 0.000001 -1.940597 5.000002 -0.027189 -0.053376 0.005295
 32 6.551492 0.000000 0.000001 -0.083289 0.209829 -0.213412
 33 0.000000 -1.940597 4.999997 -0.066572 -0.152786 -0.110311
 34 -0.531351 -0.633814 -1.521109 2.662863 1.254590 -0.363402
 35 6.384777 0.000000 0.000001 0.183711 0.184172 -0.874209
 36 10.242682 0.000001 0.000002 0.000000 -0.000000 -2.352667
 37 11.375562 0.000000 -0.000000 2.562566 -0.126930 0.840470
 38 0.728681 0.023431 1.008293 -1.579583 -0.319038 0.212973
 39 2.136497 -0.000000 0.000000 -0.000000 0.000000 1.282817
 40 2.313140 0.000000 0.000001 0.000000 0.000000 3.141593
 41 3.115507 -0.886041 0.021431 0.420765 0.316066 0.167178
 42 2.011150 0.000001 0.000000 -0.000000 0.000000 2.082010
 43 2.141380 0.000000 0.000001 0.000000 0.000000 3.141593
 44 1.734172 -0.000001 0.000000 -0.000000 -0.000000 1.041748
 45 0.136315 -3.738192 2.525889 1.493698 2.759406 -1.474501
 46 -2.193618 0.798257 4.032640 1.563844 0.186374 -0.074848
 47 11.389367 -0.000820 0.158781 2.079668 0.045057 0.439252
 48 -0.000000 -4.440599 0.000001 1.570144 -3.078602 0.004040
 49 6.000000 -0.000000 -0.000000 2.079668 -0.000000 -0.000000
 50 0.000001 -4.440601 0.000002 1.569944 -3.078603 0.004053
 51 10.510131 0.000002 0.000001 -0.000000 0.000000 -2.747129
 52 0.000000 -1.748400 -5.000002 -3.141593 0.004007 -1.539299
 53 5.500000 0.000001 0.000001 -0.075917 0.000000 -0.000000
 54 -0.000002 0.000001 -5.000002 -0.044472 3.137590 -0.000177
 55 6.551490 -0.000000 0.000002 0.075917 0.037720 -0.271520
 56 -1.266844 -1.937444 -4.950560 -0.066572 -2.988806 -0.110308
 57 6.551491 -0.000001 0.000001 0.075917 0.037720 -0.271520
 58 0.699370 -1.944208 -5.006847 -0.027189 -3.088217 0.005298
 59 4.226147 -0.003204 0.000000 0.214004 -0.189565 -0.086545
 60 -0.000000 5.000000 0.000000 -0.153564 0.000087 2.718702
 61 0.000006 -0.000004 -3.713579 0.119535 -2.936655 -0.885276
 62 0.000003 0.000000 5.000000 3.053195 1.558589 -0.074929
 63 -0.000005 0.000006 3.713580 -0.311487 -2.845558 -0.582080
 64 0.000002 0.000000 -5.000000 -0.088728 1.558589 3.066333
 65 7.363603 1.646648 0.495664 -3.141593 -1.570796 0.000000
 66 -0.000005 0.000007 3.619082 -0.441735 -2.434423 -1.159240
 67 16.573921 -0.000000 0.000001 -0.000000 0.000000 -2.011748
 68 15.128181 -0.000000 -0.000000 0.026832 0.026147 -0.175154
 69 5.758666 4.244731 -0.000000 0.000000 -0.000000 2.033309
 70 3.177726 0.000001 0.000000 0.000000 0.000000 3.141593
 71 15.708952 0.000002 -0.000001 0.013957 0.013894 -0.093781
 72 0.275149 0.189215 -3.445208 3.130898 0.000409 -1.514604
 73 17.210192 -0.000001 0.000001 -0.000000 -0.000000 -2.319003
 74 0.000000 -0.000001 -5.000000 -0.079433 1.546568 -1.570857
 75 0.000007 -0.000003 -3.619079 0.260448 -2.945758 -1.468642
 76 16.573919 -0.000000 0.000001 0.000000 -0.000000 -1.562392
 77 15.128181 0.000000 0.000001 0.265624 -0.173430 0.666428
 78 5.758665 4.244731 0.000000 -0.000000 0.000000 1.483530
 79 4.003934 -0.000000 0.000000 0.000000 0.000000 0.000000
 80 15.708953 0.000000 0.000001 0.195074 -0.100553 0.460486
 81 0.273998 0.191090 3.439762 -3.130907 -0.000437 -1.508107
 82 17.210194 -0.000000 0.000000 -0.000000 -0.000000 -2.116793
 83 0.000001 0.000000 5.000000 -0.079311 1.595025 -1.570736
time 2
  0 0.500000 13.522099 26.931471 -0.243067 0.535714 -2.432935
  1 13.773751 5.584523 -22.520975 -0.544290 0.221328 2.303921
  2 -2.276934 0.000003 -1.238185 -1.570795 -1.570451 0.000000
  3 1.797619 0.711882 -0.000583 0.188849 -0.336807 0.084267
  4 4.120036 -0.002887 -0.000597 0.183651 -0.058064 0.450293
  5 4.119132 -0.003178 -0.000631 0.193525 -0.011865 0.162611
  6 4.117842 -0.003121 -0.000659 0.202623 -0.047431 -0.248602
  7 4.118604 -0.003334 -0.001183 0.357121 -0.299855 -0.109165
  8 4.443599 -0.000002 0.000000 0.009000 -0.477957 0.756192
  9 9.024061 0.000003 0.000001 0.000000 0.000000 0.000000
 10 0.511816 0.582227 1.550962 0.648223 -1.121280 2.631248
 11 6.384776 0.000002 0.000001 -0.443059 0.635232 -0.728181
 12 10.242682 -0.000001 -0.000000 0.000000 -0.000000 -1.866193
 13 11.375560 0.000000 -0.000000 2.321507 -0.757632 -0.250631
 14 0.728681 0.023432 -1.008292 1.051563 0.167831 0.364467
 15 2.136496 -0.000000 0.000000 -0.000000 -0.000000 -0.078540
 16 2.313139 0.000001 0.000001 0.000000 0.000000 0.000000
 17 3.115506 -0.886041 -0.021430 -0.589803 -0.204622 0.219558
 18 2.011152 0.000001 -0.000001 0.000000 -0.000000 1.322791
 19 2.141379 0.000000 0.000001 0.000000 0.000000 0.000000
 20 1.734173 -0.000000 0.000000 0.000000 -0.000000 0.660693
 21 0.000005 -4.440593 -0.000000 1.570544 -0.062990 -0.195737
 22 5.999999 -0.000000 0.000000 2.641127 -0.000000 -0.000000
 23 0.000002 -4.440601 0.000000 1.569944 -0.062987 0.004053
 24 11.375561 0.000000 0.000003 -2.672923 -0.270701 -0.465497
 25 -0.000000 -4.440603 -0.000000 1.570144 -0.062988 0.004040
 26 10.510132 -0.000002 -0.000001 -0.000000 -0.000000 -2.503893
 27 0.000001 -1.748401 4.999999 0.000000 0.004007 1.602290
 28 5.500001 -0.000001 -0.000000 0.091069 0.000000 -0.000000
 29 -0.000001 -1.940598 5.000000 -0.044472 0.004003 -0.000180
 30 6.551491 -0.000001 -0.000000 -0.207333 0.415316 -0.490036
 31 0.000001 -1.940599 4.999999 -0.027189 -0.053376 0.005295
 32 6.551491 -0.000001 -0.000000 -0.071402 0.212257 -0.219773
 33 0.000001 -1.940600 4.999994 -0.066572 -0.152786 -0.110311
 34 -0.511813 -0.575155 -1.550961 2.758648 1.230959 -0.322986
 35 6.384776 -0.000001 0.000000 0.148506 0.162594 -0.871378
 36 10.242682 -0.000000 0.000002 -0.000000 -0.000000 -2.356972
 37 11.375562 0.000000 -0.000000 2.557702 -0.110848 0.877143
 38 0.728681 0.023431 1.008293 -1.579583 -0.319038 0.212973
 39 2.136497 -0.000000 -0.000000 -0.000000 -0.000000 1.282817
 40 2.313139 -0.000000 0.000000 0.000000 0.000000 3.141593
 41 3.115507 -0.886041 0.021433 0.420766 0.316066 0.167178
 42 2.011150 0.000001 -0.000000 0.000000 0.000000 2.082010
 43 2.141379 0.000000 -0.000000 0.000000 0.000000 3.141593
 44 1.734172 -0.000001 -0.000000 -0.000000 0.000000 1.041748
 45 0.136315 -3.738192 2.525891 1.493698 2.759406 -1.474501
 46 -2.193616 0.798256 4.032640 1.563844 0.186374 -0.074848
 47 11.389367 -0.000819 0.158783 2.076063 0.056346 0.453476
 48 -0.000000 -4.440600 0.000001 1.570144 -3.078602 0.004040
 49 6.000000 0.000001 0.000000 2.076063 -0.000000 -0.000000
 50 0.000001 -4.440601 -0.000001 1.569944 -3.078603 0.004053
 51 10.510131 -0.000000 0.000002 0.000000 0.000000 -2.749282
 52 0.000000 -1.748401 -5.000003 3.141593 0.004007 -1.539299
 53 5.500000 -0.000001 0.000002 -0.062590 0.000000 -0.000000
 54 -0.000000 -0.000000 -5.000000 -0.044472 3.137590 -0.000177
 55 6.551490 -0.000001 0.000000 0.062590 0.035513 -0.271140
 56 -1.266843 -1.937443 -4.950560 -0.066572 -2.988806 -0.110308
 57 6.551491 -0.000001 0.000000 0.062590 0.035513 -0.271140
 58 0.699371 -1.944209 -5.006846 -0.027189 -3.088217 0.005298
 59 4.226145 -0.003201 -0.000000 0.194449 -0.180082 -0.051530
 60 0.000001 5.000000 -0.000001 -0.153564 0.000087 2.718702
 61 0.000006 -0.000004 -3.713579 0.119535 -2.936655 -0.885276
 62 0.000003 0.000000 5.000000 3.053195 1.558589 -0.074929
 63 -0.000005 0.000006 3.713580 -0.311487 -2.845558 -0.582080
 64 0.000002 0.000000 -5.000000 -0.088728 1.558589 3.066333
 65 7.363603 1.646648 0.495664 -3.141593 -1.570796 0.000000
 66 -0.000005 0.000007 3.619082 -0.441735 -2.434423 -1.159240
 67 16.573921 -0.000000 0.000001 -0.000000 0.000000 -2.011748
 68 15.128181 -0.000000 -0.000000 0.026832 0.026147 -0.175154
 69 5.758666 4.244731 -0.000000 0.000000 -0.000000 2.033309
 70 3.177726 0.000001 0.000000 0.000000 0.000000 3.141593
 71 15.708952 0.000002 -0.000001 0.013957 0.013894 -0.093781
 72 0.275149 0.189215 -3.445208 3.130898 0.000409 -1.514604
 73 17.210192 -0.000001 0.000001 -0.000000 -0.000000 -2.319003
 74 0.000000 -0.000001 -5.000000 -0.079433 1.546568 -1.570857
 75 0.000007 -0.000003 -3.619079 0.260448 -2.945758 -1.468642
 76 16.573919 -0.000000 0.000001 0.000000 -0.000000 -1.562392
 77 15.128181 0.000000 0.000001 0.265624 -0.173430 0.666428
 78 5.758665 4.244731 0.000000 -0.000000 0.000000 1.483530
 79 4.003934 -0.000000 0.000000 0.000000 0.000000 0.000000
 80 15.708953 0.000000 0.000001 0.195074 -0.100553 0.460486
 81 0.273998 0.191090 3.439762 -3.130907 -0.000437 -1.508107
 82 17.210194 -0.000000 0.000000 -0.000000 -0.000000 -2.116793
 83 0.000001 0.000000 5.000000 -0.079311 1.595025 -1.570736
time 3
  0 0.500000 13.522099 26.931471 -0.243067 0.535714 -2.432935
  1 13.773751 5.584523 -22.520975 -0.544290 0.221328 2.303921
  2 -2.276934 0.000003 -1.238185 -1.570795 -1.570451 0.000000
  3 1.797619 0.711888 -0.000615 0.199215 -0.337616 0.080838
  4 4.120037 -0.002883 -0.000626 0.192501 -0.062340 0.449761
  5 4.119132 -0.003167 -0.000662 0.203211 -0.013461 0.162489
  6 4.117843 -0.003115 -0.000690 0.212148 -0.045022 -0.249042
  7 4.118752 -0.003373 -0.001063 0.318413 -0.285719 -0.048324
  8 4.443599 -0.000000 0.000000 -0.011204 -0.488216 0.705111
  9 9.024060 -0.000001 0.000001 0.000000 0.000000 0.000000
 10 0.488364 0.523989 1.578909 0.570960 -1.102789 2.650247
 11 6.384777 0.000001 -0.000001 -0.426107 0.641070 -0.758873
 12 10.242682 -0.000000 -0.000000 0.000000 0.000000 -1.813870
 13 11.375560 -0.000002 -0.000002 2.311917 -0.757017 -0.284261
 14 0.728681 0.023431 -1.008293 1.051563 0.167831 0.364467
 15 2.136497 0.000001 -0.000000 0.000000 -0.000000 -0.078540
 16 2.313139 -0.000000 -0.000000 0.000000 0.000000 0.000000
 17 3.115506 -0.886040 -0.021430 -0.589803 -0.204622 0.219558
 18 2.011150 0.000000 -0.000001 0.000000 -0.000000 1.322792
 19 2.141380 0.000000 0.000000 0.000000 0.000000 0.000000
 20 1.734171 0.000001 0.000000 0.000000 0.000000 0.660693
 21 0.000005 -4.440594 0.000001 1.570544 -0.062990 -0.195737
 22 6.000000 -0.000001 -0.000002 2.622249 -0.000000 -0.000000
 23 0.000002 -4.440601 -0.000000 1.569944 -0.062987 0.004053
 24 11.375562 -0.000000 0.000001 -2.683697 -0.254656 -0.482145
 25 -0.000001 -4.440603 -0.000001 1.570144 -0.062988 0.004040
 26 10.510132 0.000000 -0.000001 0.000000 0.000000 -2.477731
 27 0.000000 -1.748401 4.999999 0.000000 0.004007 1.602291
 28 5.500000 0.000001 -0.000000 0.078391 -0.000000 -0.000000
 29 -0.000001 -1.940599 5.000000 -0.044472 0.004003 -0.000180
 30 6.551491 0.000001 -0.000000 -0.187426 0.423808 -0.502360
 31 -0.000000 -1.940598 5.000003 -0.027189 -0.053376 0.005295
 32 6.551491 0.000001 -0.000000 -0.060568 0.215056 -0.225766
 33 -0.000000 -1.940598 4.999995 -0.066572 -0.152786 -0.110311
 34 -0.488360 -0.516910 -1.578910 2.845679 1.206223 -0.291570
 35 6.384776 -0.000001 0.000001 0.113910 0.140386 -0.868024
 36 10.242682 -0.000000 0.000002 -0.000000 0.000000 -2.361278
 37 11.375563 0.000000 -0.000002 2.553441 -0.094600 0.913676
 38 0.728680 0.023431 1.008293 -1.579583 -0.319038 0.212973
 39 2.136496 -0.000000 0.000000 0.000000 0.000000 1.282817
 40 2.313139 0.000000 0.000000 0.000000 0.000000 3.141593
 41 3.115505 -0.886041 0.021432 0.420765 0.316066 0.167178
 42 2.011150 0.000000 -0.000000 -0.000000 0.000000 2.082010
 43 2.141380 0.000000 0.000001 0.000000 0.000000 3.141593
 44 1.734172 -0.000001 0.000000 0.000000 0.000000 1.041748
 45 0.136315 -3.738193 2.525891 1.493698 2.759406 -1.474501
 46 -2.193620 0.798257 4.032642 1.563844 0.186374 -0.074848
 47 11.389367 -0.000820 0.158780 2.072471 0.067652 0.467697
 48 0.000001 -4.440599 0.000001 1.570144 -3.078602 0.004040
 49 6.000000 -0.000001 -0.000001 2.072472 0.000000 -0.000000
 50 0.000002 -4.440602 -0.000000 1.569944 -3.078603 0.004053
 51 10.510132 -0.000001 0.000002 0.000000 0.000000 -2.751435
 52 0.000001 -1.748400 -5.000001 -3.141593 0.004007 -1.539299
 53 5.500000 -0.000001 0.000001 -0.049361 0.000000 0.000000
 54 -0.000001 0.000001 -4.999999 -0.044472 3.137589 -0.000177
 55 6.551490 -0.000000 0.000001 0.049361 0.032812 -0.270765
 56 -1.266843 -1.937444 -4.950559 -0.066572 -2.988806 -0.110308
 57 6.551491 -0.000000 0.000000 0.049361 0.032812 -0.270765
 58 0.699370 -1.944206 -5.006847 -0.027189 -3.088217 0.005298
 59 4.226146 -0.003203 0.000000 0.175087 -0.169555 -0.016270
 60 -0.000001 5.000001 -0.000000 -0.153564 0.000087 2.718702
 61 0.000006 -0.000004 -3.713579 0.119535 -2.936655 -0.885276
 62 0.000003 0.000000 5.000000 3.053195 1.558589 -0.074929
 63 -0.000005 0.000006 3.713580 -0.311487 -2.845558 -0.582080
 64 0.000002 0.000000 -5.000000 -0.088728 1.558589 3.066333
 65 7.363603 1.646648 0.495664 -3.141593 -1.570796 0.000000
 66 -0.000005 0.000007 3.619082 -0.441735 -2.434423 -1.159240
 67 16.573921 -0.000000 0.000001 -0.000000 0.000000 -2.011748
 68 15.128181 -0.000000 -0.000000 0.026832 0.026147 -0.175154
 69 5.758666 4.244731 -0.000000 0.000000 -0.000000 2.033309
 70 3.177726 0.000001 0.000000 0.000000 0.000000 3.141593
 71 15.708952 0.000002 -0.000001 0.013957 0.013894 -0.093781
 72 0.275149 0.189215 -3.445208 3.130898 0.000409 -1.514604
 73 17.210192 -0.000001 0.000001 -0.000000 -0.000000 -2.319003
 74 0.000000 -0.000001 -5.000000 -0.079433 1.546568 -1.570857
 75 0.000007 -0.000003 -3.619079 0.260448 -2.945758 -1.468642
 76 16.573919 -0.000000 0.000001 0.000000 -0.000000 -1.562392
 77 15.128181 0.000000 0.000001 0.265624 -0.173430 0.666428
 78 5.758665 4.244731 0.000000 -0.000000 0.000000 1.483530
 79 4.003934 -0.000000 0.000000 0.000000 0.000000 0.000000
 80 15.708953 0.000000 0.000001 0.195074 -0.100553 0.460486
 81 0.273998 0.191090 3.439762 -3.130907 -0.000437 -1.508107
 82 17.210194 -0.000000 0.000000 -0.000000 -0.000000 -2.116793
 83 0.000001 0.000000 5.000000 -0.079311 1.595025 -1.570736
time 4
  0 0.500000 13.522099 26.931471 -0.243067 0.535714 -2.432935
  1 13.773751 5.584523 -22.520975 -0.544290 0.221328 2.303921
  2 -2.276934 0.000003 -1.238185 -1.570795 -1.570451 0.000000
  3 1.797619 0.711895 -0.000645 0.209586 -0.338392 0.077399
  4 4.120037 -0.002876 -0.000655 0.201356 -0.066612 0.449190
  5 4.119133 -0.003163 -0.000693 0.212896 -0.015056 0.162351
  6 4.117843 -0.003109 -0.000720 0.221670 -0.042608 -0.249459
  7 4.118903 -0.003398 -0.000945 0.280805 -0.269347 0.011656
  8 4.443597 -0.000000 0.000000 -0.029587 -0.499233 0.652233
  9 9.024060 0.000002 0.000000 0.000000 0.000000 0.000000
 10 0.461082 0.466409 1.604828 0.497141 -1.083705 2.665525
 11 6.384777 0.000002 0.000001 -0.411314 0.646854 -0.791214
 12 10.242682 -0.000001 -0.000001 0.000000 -0.000000 -1.761121
 13 11.375560 0.000000 0.000000 2.301381 -0.756143 -0.316709
 14 0.728681 0.023430 -1.008292 1.051563 0.167831 0.364467
 15 2.136496 -0.000000 0.000001 -0.000000 0.000000 -0.078540
 16 2.313139 0.000000 -0.000000 0.000000 0.000000 0.000000
 17 3.115507 -0.886042 -0.021432 -0.589803 -0.204622 0.219558
 18 2.011150 0.000000 0.000000 -0.000000 0.000000 1.322792
 19 2.141379 0.000000 -0.000001 0.000000 0.000000 0.000000
 20 1.734172 0.000001 -0.000000 0.000000 -0.000000 0.660693
 21 0.000006 -4.440594 -0.000000 1.570544 -0.062990 -0.195737
 22 6.000000 0.000000 0.000000 2.601712 0.000000 -0.000000
 23 0.000001 -4.440600 0.000000 1.569944 -0.062987 0.004053
 24 11.375561 0.000001 0.000003 -2.695071 -0.238294 -0.498497
 25 -0.000001 -4.440604 0.000001 1.570144 -0.062988 0.004040
 26 10.510131 0.000001 -0.000001 0.000000 0.000000 -2.451357
 27 0.000000 -1.748403 4.999999 -0.000000 0.004007 1.602291
 28 5.500000 0.000001 -0.000000 0.066951 -0.000000 0.000000
 29 -0.000001 -1.940599 5.000001 -0.044472 0.004003 -0.000180
 30 6.551492 0.000002 0.000001 -0.169812 0.432918 -0.514540
 31 0.000001 -1.940597 5.000003 -0.027189 -0.053376 0.005295
 32 6.551492 0.000002 0.000001 -0.050765 0.218158 -0.231471
 33 0.000001 -1.940598 4.999998 -0.066572 -0.152786 -0.110311
 34 -0.461081 -0.459331 -1.604830 2.925361 1.180655 -0.267774
 35 6.384776 0.000002 0.000000 0.079916 0.117575 -0.864128
 36 10.242682 0.000001 0.000002 -0.000000 0.000000 -2.365583
 37 11.375561 0.000001 -0.000001 2.549784 -0.078208 0.950088
 38 0.728681 0.023431 1.008291 -1.579583 -0.319038 0.212973
 39 2.136497 -0.000001 -0.000000 0.000000 0.000000 1.282817
 40 2.313141 0.000000 0.000000 0.000000 0.000000 3.141593
 41 3.115507 -0.886040 0.021431 0.420766 0.316066 0.167178
 42 2.011151 0.000000 0.000001 -0.000000 0.000000 2.082010
 43 2.141379 0.000000 -0.000001 0.000000 0.000000 3.141593
 44 1.734173 -0.000001 0.000000 0.000000 0.000000 1.041748
 45 0.136315 -3.738192 2.525890 1.493698 2.759406 -1.474501
 46 -2.193618 0.798257 4.032640 1.563844 0.186374 -0.074848
 47 11.389366 -0.000819 0.158780 2.068892 0.079003 0.481938
 48 0.000001 -4.440599 0.000001 1.570144 -3.078602 0.004040
 49 6.000000 0.000001 -0.000001 2.068892 0.000000 0.000000
 50 0.000001 -4.440601 0.000000 1.569944 -3.078603 0.004053
 51 10.510133 0.000001 0.000002 0.000000 -0.000000 -2.753588
 52 0.000001 -1.748400 -5.000002 -3.141593 0.004007 -1.539299
 53 5.500001 0.000000 0.000002 -0.036227 -0.000000 -0.000000
 54 0.000001 -0.000001 -5.000000 -0.044472 3.137589 -0.000177
 55 6.551490 0.000002 0.000000 0.036227 0.029640 -0.270370
 56 -1.266843 -1.937444 -4.950558 -0.066572 -2.988806 -0.110308
 57 6.551491 0.000002 0.000000 0.036227 0.029640 -0.270370
 58 0.699370 -1.944207 -5.006846 -0.027189 -3.088217 0.005298
 59 4.226145 -0.003201 0.000000 0.155998 -0.157992 0.018974
 60 0.000001 5.000000 0.000000 -0.153564 0.000087 2.718701
 61 0.000006 -0.000004 -3.713579 0.119535 -2.936655 -0.885276
 62 0.000003 0.000000 5.000000 3.053195 1.558589 -0.074929
 63 -0.000005 0.000006 3.713580 -0.311487 -2.845558 -0.582080
 64 0.000002 0.000000 -5.000000 -0.088728 1.558589 3.066333
 65 7.363603 1.646648 0.495664 -3.141593 -1.570796 0.000000
 66 -0.000005 0.000007 3.619082 -0.441735 -2.434423 -1.159240
 67 16.573921 -0.000000 0.000001 -0.000000 0.000000 -2.011748
 68 15.128181 -0.000000 -0.000000 0.026832 0.026147 -0.175154
 69 5.758666 4.244731 -0.000000 0.000000 -0.000000 2.033309
 70 3.177726 0.000001 0.000000 0.000000 0.000000 3.141593
 71 15.708952 0.000002 -0.000001 0.013957 0.013894 -0.093781
 72 0.275149 0.189215 -3.445208 3.130898 0.000409 -1.514604
 73 17.210192 -0.000001 0.000001 -0.000000 -0.000000 -2.319003
 74 0.000000 -0.000001 -5.000000 -0.079433 1.546568 -1.570857
 75 0.000007 -0.000003 -3.619079 0.260448 -2.945758 -1.468642
 76 16.573919 -0.000000 0.000001 0.000000 -0.000000 -1.562392
 77 15.128181 0.000000 0.000001 0.265624 -0.173430 0.666428
 78 5.758665 4.244731 0.000000 -0.000000 0.000000 1.483530
 79 4.003934 -0.000000 0.000000 0.000000 0.000000 0.000000
 80 15.708953 0.000000 0.000001 0.195074 -0.100553 0.460486
 81 0.273998 0.191090 3.439762 -3.130907 -0.000437 -1.508107
 82 17.210194 -0.000000 0.000000 -0.000000 -0.000000 -2.116793
 83 0.000001 0.000000 5.000000 -0.079311 1.595025 -1.570736
end
