version 1
nodes
  0 "Bip01"  -1
  1 "Bip01 Footsteps"   0
  2 "Bip01 Pelvis"   0
  3 "Bip01 Spine"   2
  4 "Bip01 Spine1"   3
  5 "Bip01 Spine2"   4
  6 "Bip01 Spine3"   5
  7 "Bip01 Neck"   6
  8 "Bip01 Head"   7
  9 "Dummy21"   8
 10 "Bip01 L Clavicle"   7
 11 "Bip01 L UpperArm"  10
 12 "Bip01 L Forearm"  11
 13 "Bip01 L Hand"  12
 14 "Bip01 L Finger0"  13
 15 "Bip01 L Finger01"  14
 16 "Dummy06"  15
 17 "Bip01 L Finger1"  13
 18 "Bip01 L Finger11"  17
 19 "Dummy03"  18
 20 "-- L knuckle"  17
 21 "-- L knuckle_end"  20
 22 "-- L Forearm twist"  12
 23 "-- L Forearm twist_end"  22
 24 "-- L wrist"  12
 25 "-- L wrist_end"  24
 26 "-- L Elbow"  11
 27 "--L Elbow_end"  26
 28 "-- L bicep twist"  11
 29 "-- L bicep twist_end"  28
 30 "-- L shoulder outside"  10
 31 "-- L shoulder outside_end"  30
 32 "-- L Shoulder inside"  10
 33 "-- L Shoulder inside_end"  32
 34 "Bip01 R Clavicle"   7
 35 "Bip01 R UpperArm"  34
 36 "Bip01 R Forearm"  35
 37 "Bip01 R Hand"  36
 38 "Bip01 R Finger0"  37
 39 "Bip01 R Finger01"  38
 40 "Dummy01"  39
 41 "Bip01 R Finger1"  37
 42 "Bip01 R Finger11"  41
 43 "Dummy02"  42
 44 "-- R knuckle"  41
 45 "Point06"  44
 46 "Line06"  37
 47 "-- R wrist"  36
 48 "-- R wrist_end"  47
 49 "-- R forearm twist"  36
 50 "-- R forearm twist_end"  49
 51 "-- R Elbow"  35
 52 "--R Elbow_end"  51
 53 "-- R bicep twist"  35
 54 "-- R bicep twist_end"  53
 55 "-- R Shoulder inside"  34
 56 "-- R Shoulder inside_end"  55
 57 "-- R shoulder outside"  34
 58 "-- R shoulder outside_end"  57
 59 "-- Neck smooth"   6
 60 "-- neck smooth end"  59
 61 "-- R Butt"   2
 62 "--R Butt_end"  61
 63 "-- L butt"   2
 64 "--L butt_end"  63
 65 "GIGN01"   2
 66 "Bip01 L Thigh"   2
 67 "Bip01 L Calf"  66
 68 "Bip01 L Foot"  67
 69 "Bip01 L Toe0"  68
 70 "Dummy16"  69
 71 "-- L ankle"  67
 72 "-- L ankleend"  71
 73 "-- L Knee"  66
 74 "--L Knee_end"  73
 75 "Bip01 R Thigh"   2
 76 "Bip01 R Calf"  75
 77 "Bip01 R Foot"  76
 78 "Bip01 R Toe0"  77
 79 "Dummy11"  78
 80 "-- R Ankle"  76
 81 "-- R ankleend"  80
 82 "-- R Knee"  75
 83 "--R Knee_end"  82
end
skeleton
time 0
  0 0.500000 13.522099 26.931471 -0.243067 0.535714 -2.432935
  1 13.773751 5.584523 -22.520975 -0.544290 0.221328 2.303921
  2 -2.276934 0.000003 -1.238185 -1.570795 -1.570451 0.000000
  3 1.796685 0.711947 -0.000871 0.273303 0.182474 -0.095216
  4 4.119712 -0.002968 -0.000848 0.263461 -0.126537 0.324324
  5 4.118794 -0.003138 -0.000933 0.289216 -0.075348 0.038307
  6 4.118050 -0.003100 -0.000921 0.296975 -0.283179 -0.262700
  7 4.116654 -0.000466 -0.002918 1.149834 0.442954 -0.572171
  8 4.443600 -0.000001 0.000001 -0.065827 0.296314 0.442070
  9 9.024060 0.000000 -0.000000 0.000000 0.000000 0.000000
 10 -0.742654 1.432359 0.639727 -1.211217 -2.530853 -1.067895
 11 6.384777 0.000000 -0.000001 -1.422050 -0.415793 -1.369450
 12 10.242681 -0.000000 -0.000002 0.000000 0.000000 -1.684410
 13 11.375562 0.000001 -0.000001 -2.813777 0.044734 0.705164
 14 0.728680 0.023431 -1.008294 1.051563 0.167831 0.364467
 15 2.136499 -0.000001 0.000000 -0.000000 -0.000000 -0.078540
 16 2.313140 -0.000001 0.000001 0.000000 0.000000 0.000000
 17 3.115506 -0.886041 -0.021433 -0.853678 -0.690048 1.145749
 18 2.011151 0.000000 -0.000002 0.000000 0.000000 1.322792
 19 2.141379 0.000000 0.000003 0.000000 0.000000 0.000000
 20 1.734173 0.000001 0.000001 -0.000000 0.000000 0.660693
 21 0.000006 -4.440594 0.000001 1.570544 -0.062990 -0.195737
 22 6.000002 0.000000 -0.000000 -2.553326 0.000000 -0.000000
 23 0.000001 -4.440601 -0.000000 1.569944 -0.062987 0.004053
 24 11.375564 0.000001 0.000003 -2.195176 -0.095734 0.369082
 25 -0.000002 -4.440604 -0.000001 1.570144 -0.062988 0.004040
 26 10.510130 0.000000 -0.000003 -0.000000 -0.000000 -2.413001
 27 0.000001 -1.748402 4.999999 0.000000 0.004007 1.602291
 28 5.500000 0.000001 -0.000002 0.536048 -0.000000 -0.000000
 29 -0.000002 -1.940599 4.999998 -0.044472 0.004003 -0.000180
 30 6.551491 -0.000001 -0.000003 -1.092519 -0.191175 -0.940221
 31 -0.000000 -1.940601 5.000003 -0.027189 -0.053376 0.005295
 32 6.551491 -0.000001 -0.000003 -0.412117 0.059257 -0.355490
 33 -0.000001 -1.940599 4.999996 -0.066572 -0.152786 -0.110311
 34 0.742662 -1.425282 -0.639727 1.547164 0.931961 -0.696176
 35 6.384777 -0.000001 -0.000000 0.570053 0.326237 -0.874172
 36 10.242682 -0.000000 -0.000000 -0.000000 -0.000000 -2.291553
 37 11.375562 0.000001 -0.000000 2.693754 0.643855 1.015693
 38 0.728681 0.023430 1.008291 -1.579583 -0.319038 0.212973
 39 2.136498 0.000001 -0.000001 0.000000 -0.000000 1.282817
 40 2.313139 -0.000001 -0.000001 0.000000 0.000000 3.141593
 41 3.115507 -0.886042 0.021431 0.420765 0.316066 0.167178
 42 2.011151 0.000000 0.000001 0.000000 -0.000000 2.082010
 43 2.141379 -0.000001 0.000002 0.000000 0.000000 3.141593
 44 1.734172 -0.000001 0.000000 -0.000000 0.000000 1.041748
 45 0.136316 -3.738193 2.525891 1.493698 2.759406 -1.474501
 46 -2.193617 0.798256 4.032640 1.563844 0.186374 -0.074848
 47 11.389366 -0.000819 0.158783 1.997821 0.436544 0.364687
 48 -0.000001 -4.440598 -0.000000 1.570144 -3.078602 0.004040
 49 6.000000 0.000000 0.000001 1.997821 0.000000 -0.000000
 50 0.000001 -4.440601 -0.000000 1.569944 -3.078603 0.004053
 51 10.510132 0.000000 0.000002 -0.000000 -0.000000 -2.716573
 52 0.000000 -1.748400 -4.999999 -3.141593 0.004007 -1.539299
 53 5.500000 -0.000001 0.000000 -0.213807 0.000000 -0.000000
 54 -0.000000 0.000000 -5.000000 -0.044472 3.137589 -0.000177
 55 6.551491 -0.000001 -0.000001 0.213807 0.024768 -0.279582
 56 -1.266843 -1.937443 -4.950562 -0.066572 -2.988806 -0.110308
 57 6.551492 -0.000001 -0.000001 0.213807 0.024768 -0.279582
 58 0.699371 -1.944207 -5.006850 -0.027189 -3.088217 0.005298
 59 4.226144 -0.003202 -0.000001 0.662823 0.158835 -0.397253
 60 0.000002 5.000000 -0.000001 -0.153564 0.000087 2.718702
 61 0.000006 -0.000004 -3.713579 0.119535 -2.936655 -0.885276
 62 0.000003 0.000000 5.000000 3.053195 1.558589 -0.074929
 63 -0.000005 0.000006 3.713580 -0.311487 -2.845558 -0.582080
 64 0.000001 0.000000 -5.000000 -0.088726 1.558589 3.066335
 65 7.363603 1.646648 0.495664 -3.141593 -1.570796 0.000000
 66 -0.000005 0.000007 3.619082 -0.441735 -2.434423 -1.159240
 67 16.573917 -0.000000 0.000001 -0.000000 -0.000000 -2.011748
 68 15.128181 0.000000 -0.000000 0.026832 0.026147 -0.175154
 69 5.758666 4.244731 0.000000 0.000000 -0.000000 2.033309
 70 3.177727 0.000000 0.000000 0.000000 0.000000 3.141593
 71 15.708951 0.000002 -0.000000 0.013957 0.013894 -0.093781
 72 0.275148 0.189215 -3.445208 3.130898 0.000409 -1.514604
 73 17.210192 -0.000001 0.000002 -0.000000 0.000000 -2.319003
 74 0.000000 -0.000001 -5.000000 -0.079433 1.546568 -1.570857
 75 0.000007 -0.000003 -3.619079 0.260448 -2.945758 -1.468642
 76 16.573919 -0.000000 0.000001 0.000000 0.000000 -1.562392
 77 15.128181 0.000000 0.000001 0.265624 -0.173430 0.666428
 78 5.758665 4.244731 0.000000 -0.000000 0.000000 1.483530
 79 4.003934 -0.000000 0.000000 0.000000 0.000000 0.000000
 80 15.708953 0.000000 0.000000 0.195074 -0.100553 0.460486
 81 0.273998 0.191090 3.439762 -3.130907 -0.000437 -1.508107
 82 17.210194 -0.000000 0.000000 -0.000000 0.000000 -2.116793
 83 0.000000 0.000000 5.000000 -0.079311 1.595025 -1.570737
time 1
  0 0.500000 13.522099 26.931471 -0.243067 0.535714 -2.432935
  1 13.773751 5.584523 -22.520975 -0.544290 0.221328 2.303921
  2 -2.276934 0.000003 -1.238185 -1.570795 -1.570451 0.000000
  3 1.796660 0.711950 -0.000871 0.273074 0.183847 -0.102513
  4 4.119708 -0.002970 -0.000848 0.263618 -0.125880 0.322582
  5 4.118792 -0.003141 -0.000932 0.289230 -0.074530 0.036629
  6 4.118041 -0.003096 -0.000923 0.296817 -0.282496 -0.264368
  7 4.116843 -0.000485 -0.003029 1.185101 0.391443 -0.548156
  8 4.443596 -0.000000 0.000000 -0.101933 0.314299 0.338661
  9 9.024058 -0.000000 -0.000000 0.000000 0.000000 0.000000
 10 -0.661072 1.487531 0.602553 -1.197170 -2.553588 -1.131817
 11 6.384776 -0.000001 0.000003 -1.418730 -0.419151 -1.366407
 12 10.242682 0.000002 0.000000 0.000000 -0.000000 -1.660271
 13 11.375564 0.000001 0.000002 -2.814932 0.043569 0.695384
 14 0.728681 0.023431 -1.008295 1.051563 0.167831 0.364467
 15 2.136496 -0.000000 0.000000 -0.000000 -0.000000 -0.078540
 16 2.313139 -0.000000 0.000000 0.000000 0.000000 0.000000
 17 3.115508 -0.886040 -0.021434 -0.853678 -0.690048 1.145749
 18 2.011150 -0.000000 -0.000000 0.000000 -0.000000 1.322792
 19 2.141379 -0.000000 -0.000000 0.000000 0.000000 0.000000
 20 1.734172 0.000000 0.000002 -0.000000 -0.000000 0.660693
 21 0.000005 -4.440593 -0.000000 1.570544 -0.062990 -0.195737
 22 6.000001 0.000001 0.000001 -2.553903 0.000000 0.000000
 23 0.000003 -4.440601 -0.000000 1.569944 -0.062987 0.004053
 24 11.375563 0.000001 0.000004 -2.195649 -0.095106 0.364582
 25 0.000000 -4.440603 -0.000001 1.570144 -0.062988 0.004040
 26 10.510130 0.000000 0.000000 -0.000000 0.000000 -2.400932
 27 -0.000000 -1.748401 4.999999 -0.000000 0.004007 1.602291
 28 5.500000 0.000000 0.000001 0.535513 0.000000 -0.000000
 29 -0.000001 -1.940597 4.999999 -0.044472 0.004003 -0.000180
 30 6.551491 -0.000001 0.000000 -1.090002 -0.194584 -0.937927
 31 0.000000 -1.940599 5.000004 -0.027189 -0.053376 0.005295
 32 6.551491 -0.000001 0.000000 -0.411924 0.057395 -0.355447
 33 0.000000 -1.940599 4.999997 -0.066572 -0.152786 -0.110311
 34 0.661068 -1.480456 -0.602553 1.584045 0.949577 -0.712522
 35 6.384776 -0.000000 0.000000 0.589794 0.271388 -0.829745
 36 10.242682 0.000000 0.000002 -0.000000 0.000000 -2.308369
 37 11.375561 0.000001 -0.000003 2.693754 0.643854 1.015693
 38 0.728681 0.023431 1.008292 -1.579583 -0.319038 0.212973
 39 2.136497 -0.000000 -0.000001 0.000000 -0.000000 1.282817
 40 2.313139 -0.000000 0.000001 0.000000 0.000000 3.141593
 41 3.115506 -0.886041 0.021430 0.420765 0.316066 0.167178
 42 2.011152 -0.000000 0.000001 -0.000000 0.000000 2.082010
 43 2.141380 0.000001 0.000000 0.000000 0.000000 3.141593
 44 1.734172 -0.000001 -0.000001 0.000000 0.000000 1.041748
 45 0.136315 -3.738193 2.525888 1.493698 2.759406 -1.474501
 46 -2.193618 0.798257 4.032639 1.563844 0.186374 -0.074848
 47 11.389367 -0.000818 0.158778 1.997821 0.436544 0.364687
 48 0.000001 -4.440598 -0.000000 1.570144 -3.078602 0.004040
 49 6.000000 0.000001 -0.000003 1.997821 -0.000000 0.000000
 50 0.000002 -4.440599 -0.000001 1.569944 -3.078603 0.004053
 51 10.510132 0.000000 0.000002 0.000000 -0.000000 -2.724981
 52 -0.000001 -1.748400 -4.999999 -3.141593 0.004007 -1.539299
 53 5.500000 -0.000000 0.000001 -0.212950 0.000000 -0.000000
 54 0.000000 -0.000000 -5.000001 -0.044472 3.137589 -0.000177
 55 6.551490 0.000000 0.000001 0.212950 0.011955 -0.272635
 56 -1.266844 -1.937444 -4.950558 -0.066572 -2.988806 -0.110308
 57 6.551491 -0.000000 0.000001 0.212950 0.011955 -0.272635
 58 0.699371 -1.944208 -5.006845 -0.027189 -3.088217 0.005298
 59 4.226144 -0.003201 0.000000 0.679759 0.130697 -0.381396
 60 0.000001 5.000001 -0.000000 -0.153564 0.000087 2.718702
 61 0.000006 -0.000004 -3.713579 0.119535 -2.936655 -0.885276
 62 0.000003 0.000000 5.000000 3.053195 1.558589 -0.074929
 63 -0.000005 0.000006 3.713580 -0.311487 -2.845558 -0.582080
 64 0.000001 0.000000 -5.000000 -0.088726 1.558589 3.066335
 65 7.363603 1.646648 0.495664 -3.141593 -1.570796 0.000000
 66 -0.000005 0.000007 3.619082 -0.441735 -2.434423 -1.159240
 67 16.573917 -0.000000 0.000001 -0.000000 -0.000000 -2.011748
 68 15.128181 0.000000 -0.000000 0.026832 0.026147 -0.175154
 69 5.758666 4.244731 0.000000 0.000000 -0.000000 2.033309
 70 3.177727 0.000000 0.000000 0.000000 0.000000 3.141593
 71 15.708951 0.000002 -0.000000 0.013957 0.013894 -0.093781
 72 0.275148 0.189215 -3.445208 3.130898 0.000409 -1.514604
 73 17.210192 -0.000001 0.000002 -0.000000 0.000000 -2.319003
 74 0.000000 -0.000001 -5.000000 -0.079433 1.546568 -1.570857
 75 0.000007 -0.000003 -3.619079 0.260448 -2.945758 -1.468642
 76 16.573919 -0.000000 0.000001 0.000000 0.000000 -1.562392
 77 15.128181 0.000000 0.000001 0.265624 -0.173430 0.666428
 78 5.758665 4.244731 0.000000 -0.000000 0.000000 1.483530
 79 4.003934 -0.000000 0.000000 0.000000 0.000000 0.000000
 80 15.708953 0.000000 0.000000 0.195074 -0.100553 0.460486
 81 0.273998 0.191090 3.439762 -3.130907 -0.000437 -1.508107
 82 17.210194 -0.000000 0.000000 -0.000000 0.000000 -2.116793
 83 0.000000 0.000000 5.000000 -0.079311 1.595025 -1.570737
time 2
  0 0.500000 13.522099 26.931471 -0.243067 0.535714 -2.432935
  1 13.773751 5.584523 -22.520975 -0.544290 0.221328 2.303921
  2 -2.276934 0.000003 -1.238185 -1.570795 -1.570451 0.000000
  3 1.796635 0.711955 -0.000869 0.272835 0.185218 -0.109813
  4 4.119703 -0.002973 -0.000848 0.263773 -0.125223 0.320841
  5 4.118785 -0.003140 -0.000932 0.289243 -0.073712 0.034952
  6 4.118033 -0.003097 -0.000922 0.296659 -0.281813 -0.266036
  7 4.117033 -0.000499 -0.003132 1.218355 0.339211 -0.526552
  8 4.443598 0.000001 0.000000 -0.140289 0.328376 0.234041
  9 9.024060 -0.000000 -0.000000 0.000000 0.000000 0.000000
 10 -0.576547 1.537088 0.564041 -1.185079 -2.577012 -1.194404
 11 6.384777 -0.000000 0.000000 -1.416494 -0.423187 -1.362620
 12 10.242682 -0.000002 0.000001 0.000000 0.000000 -1.636795
 13 11.375559 0.000000 -0.000001 -2.816178 0.043625 0.686909
 14 0.728680 0.023431 -1.008289 1.051563 0.167831 0.364467
 15 2.136497 -0.000002 -0.000000 -0.000000 0.000000 -0.078540
 16 2.313140 -0.000000 0.000000 0.000000 0.000000 0.000000
 17 3.115507 -0.886041 -0.021430 -0.853677 -0.690048 1.145749
 18 2.011151 0.000001 0.000000 0.000000 -0.000000 1.322792
 19 2.141379 -0.000000 0.000002 0.000000 0.000000 0.000000
 20 1.734172 0.000001 0.000001 0.000000 0.000000 0.660693
 21 0.000006 -4.440593 0.000003 1.570544 -0.062990 -0.195737
 22 5.999999 0.000000 -0.000000 -2.554673 -0.000000 0.000000
 23 0.000001 -4.440600 -0.000000 1.569944 -0.062987 0.004053
 24 11.375561 0.000001 0.000003 -2.196272 -0.094049 0.360863
 25 -0.000001 -4.440602 0.000000 1.570144 -0.062988 0.004040
 26 10.510131 -0.000001 0.000000 -0.000000 -0.000000 -2.389194
 27 0.000000 -1.748403 4.999999 0.000000 0.004007 1.602291
 28 5.500000 -0.000001 0.000001 0.535382 0.000000 -0.000000
 29 -0.000001 -1.940598 4.999999 -0.044472 0.004003 -0.000180
 30 6.551491 -0.000000 0.000001 -1.088606 -0.198307 -0.935149
 31 0.000000 -1.940601 5.000004 -0.027189 -0.053376 0.005295
 32 6.551491 0.000000 0.000001 -0.411999 0.055528 -0.355145
 33 -0.000000 -1.940599 4.999998 -0.066572 -0.152786 -0.110311
 34 0.576548 -1.530010 -0.564040 1.625619 0.964683 -0.725692
 35 6.384777 -0.000000 -0.000004 0.606112 0.214689 -0.788254
 36 10.242682 -0.000001 -0.000002 -0.000000 0.000000 -2.325185
 37 11.375561 -0.000001 0.000004 2.693754 0.643854 1.015693
 38 0.728681 0.023430 1.008292 -1.579583 -0.319038 0.212973
 39 2.136499 -0.000000 -0.000000 0.000000 0.000000 1.282817
 40 2.313139 0.000002 0.000001 0.000000 0.000000 3.141593
 41 3.115508 -0.886042 0.021432 0.420766 0.316066 0.167178
 42 2.011150 0.000000 0.000001 -0.000000 0.000000 2.082010
 43 2.141378 0.000000 0.000002 0.000000 0.000000 3.141593
 44 1.734173 -0.000001 0.000002 -0.000000 0.000000 1.041748
 45 0.136315 -3.738193 2.525888 1.493698 2.759406 -1.474501
 46 -2.193616 0.798255 4.032640 1.563844 0.186374 -0.074848
 47 11.389367 -0.000820 0.158784 1.997821 0.436545 0.364687
 48 -0.000001 -4.440597 -0.000000 1.570144 -3.078602 0.004040
 49 6.000000 -0.000000 0.000001 1.997821 0.000000 -0.000000
 50 0.000002 -4.440601 -0.000000 1.569944 -3.078603 0.004053
 51 10.510130 -0.000000 -0.000001 -0.000000 0.000000 -2.733389
 52 -0.000001 -1.748398 -5.000004 -3.141593 0.004007 -1.539299
 53 5.500000 0.000000 0.000000 -0.212025 0.000000 0.000000
 54 -0.000000 0.000000 -5.000000 -0.044472 3.137589 -0.000177
 55 6.551491 -0.000001 -0.000003 0.212025 -0.001319 -0.265875
 56 -1.266843 -1.937443 -4.950559 -0.066572 -2.988806 -0.110308
 57 6.551492 -0.000001 -0.000003 0.212025 -0.001319 -0.265875
 58 0.699371 -1.944207 -5.006846 -0.027189 -3.088217 0.005298
 59 4.226145 -0.003201 -0.000000 0.696069 0.101988 -0.365725
 60 0.000001 5.000001 0.000000 -0.153564 0.000087 2.718702
 61 0.000006 -0.000004 -3.713579 0.119535 -2.936655 -0.885276
 62 0.000003 0.000000 5.000000 3.053195 1.558589 -0.074929
 63 -0.000005 0.000006 3.713580 -0.311487 -2.845558 -0.582080
 64 0.000001 0.000000 -5.000000 -0.088726 1.558589 3.066335
 65 7.363603 1.646648 0.495664 -3.141593 -1.570796 0.000000
 66 -0.000005 0.000007 3.619082 -0.441735 -2.434423 -1.159240
 67 16.573917 -0.000000 0.000001 -0.000000 -0.000000 -2.011748
 68 15.128181 0.000000 -0.000000 0.026832 0.026147 -0.175154
 69 5.758666 4.244731 0.000000 0.000000 -0.000000 2.033309
 70 3.177727 0.000000 0.000000 0.000000 0.000000 3.141593
 71 15.708951 0.000002 -0.000000 0.013957 0.013894 -0.093781
 72 0.275148 0.189215 -3.445208 3.130898 0.000409 -1.514604
 73 17.210192 -0.000001 0.000002 -0.000000 0.000000 -2.319003
 74 0.000000 -0.000001 -5.000000 -0.079433 1.546568 -1.570857
 75 0.000007 -0.000003 -3.619079 0.260448 -2.945758 -1.468642
 76 16.573919 -0.000000 0.000001 0.000000 0.000000 -1.562392
 77 15.128181 0.000000 0.000001 0.265624 -0.173430 0.666428
 78 5.758665 4.244731 0.000000 -0.000000 0.000000 1.483530
 79 4.003934 -0.000000 0.000000 0.000000 0.000000 0.000000
 80 15.708953 0.000000 0.000000 0.195074 -0.100553 0.460486
 81 0.273998 0.191090 3.439762 -3.130907 -0.000437 -1.508107
 82 17.210194 -0.000000 0.000000 -0.000000 0.000000 -2.116793
 83 0.000000 0.000000 5.000000 -0.079311 1.595025 -1.570737
time 3
  0 0.500000 13.522099 26.931471 -0.243067 0.535714 -2.432935
  1 13.773751 5.584523 -22.520975 -0.544290 0.221328 2.303921
  2 -2.276934 0.000003 -1.238185 -1.570795 -1.570451 0.000000
  3 1.796612 0.711958 -0.000869 0.272585 0.186587 -0.117114
  4 4.119695 -0.002973 -0.000849 0.263927 -0.124565 0.319099
  5 4.118778 -0.003141 -0.000933 0.289254 -0.072894 0.033274
  6 4.118033 -0.003097 -0.000920 0.296499 -0.281131 -0.267704
  7 4.117232 -0.000515 -0.003220 1.249865 0.286353 -0.507133
  8 4.443597 0.000000 -0.000000 -0.180431 0.338336 0.128467
  9 9.024062 0.000000 -0.000000 0.000000 0.000000 0.000000
 10 -0.489417 1.580835 0.524334 -1.174895 -2.601018 -1.255747
 11 6.384777 -0.000000 0.000002 -1.415259 -0.427831 -1.358124
 12 10.242682 0.000002 0.000000 0.000000 -0.000000 -1.614123
 13 11.375566 0.000002 0.000001 -2.817474 0.044825 0.679809
 14 0.728683 0.023431 -1.008294 1.051563 0.167831 0.364467
 15 2.136498 -0.000000 0.000001 -0.000000 0.000000 -0.078540
 16 2.313138 -0.000000 0.000000 0.000000 0.000000 0.000000
 17 3.115506 -0.886041 -0.021432 -0.853677 -0.690048 1.145749
 18 2.011150 -0.000000 0.000002 0.000000 -0.000000 1.322792
 19 2.141380 0.000000 -0.000000 0.000000 0.000000 0.000000
 20 1.734172 0.000000 0.000001 -0.000000 -0.000000 0.660693
 21 0.000006 -4.440594 0.000000 1.570544 -0.062990 -0.195737
 22 5.999999 0.000001 0.000000 -2.555597 0.000000 -0.000000
 23 0.000000 -4.440599 0.000000 1.569944 -0.062987 0.004053
 24 11.375561 0.000001 0.000003 -2.197013 -0.092607 0.357948
 25 0.000003 -4.440604 -0.000000 1.570144 -0.062988 0.004040
 26 10.510130 -0.000000 0.000000 -0.000000 -0.000000 -2.377858
 27 0.000000 -1.748400 4.999998 -0.000000 0.004007 1.602290
 28 5.500000 0.000001 0.000001 0.535615 0.000000 -0.000000
 29 -0.000001 -1.940599 5.000002 -0.044472 0.004003 -0.000180
 30 6.551491 0.000000 0.000002 -1.088217 -0.202308 -0.931928
 31 0.000001 -1.940600 5.000002 -0.027189 -0.053376 0.005295
 32 6.551491 0.000000 0.000002 -0.412317 0.053658 -0.354609
 33 -0.000000 -1.940599 4.999996 -0.066572 -0.152786 -0.110311
 34 0.489416 -1.573758 -0.524335 1.671779 0.977052 -0.735675
 35 6.384776 0.000000 -0.000001 0.619215 0.156371 -0.749357
 36 10.242682 0.000001 -0.000000 0.000000 -0.000000 -2.342001
 37 11.375560 0.000001 0.000001 2.693754 0.643854 1.015693
 38 0.728678 0.023431 1.008292 -1.579583 -0.319038 0.212973
 39 2.136499 -0.000000 -0.000001 0.000000 -0.000000 1.282817
 40 2.313139 -0.000000 0.000002 0.000000 0.000000 3.141593
 41 3.115504 -0.886041 0.021431 0.420766 0.316066 0.167178
 42 2.011153 -0.000000 0.000003 -0.000000 0.000000 2.082010
 43 2.141379 0.000000 -0.000002 0.000000 0.000000 3.141593
 44 1.734174 -0.000001 0.000002 0.000000 -0.000000 1.041748
 45 0.136316 -3.738194 2.525892 1.493698 2.759406 -1.474501
 46 -2.193621 0.798257 4.032640 1.563844 0.186374 -0.074848
 47 11.389367 -0.000819 0.158783 1.997821 0.436545 0.364687
 48 0.000002 -4.440600 0.000000 1.570144 -3.078602 0.004040
 49 6.000000 0.000000 0.000000 1.997821 -0.000000 0.000000
 50 0.000001 -4.440604 -0.000000 1.569944 -3.078603 0.004053
 51 10.510132 0.000000 -0.000000 0.000000 0.000000 -2.741797
 52 -0.000001 -1.748400 -5.000000 3.141593 0.004007 -1.539299
 53 5.500000 -0.000000 -0.000002 -0.211020 0.000000 0.000000
 54 0.000001 0.000000 -4.999997 -0.044472 3.137589 -0.000177
 55 6.551490 0.000000 -0.000001 0.211020 -0.015128 -0.259114
 56 -1.266843 -1.937444 -4.950560 -0.066572 -2.988806 -0.110308
 57 6.551491 0.000000 -0.000001 0.211020 -0.015128 -0.259114
 58 0.699371 -1.944209 -5.006848 -0.027189 -3.088217 0.005298
 59 4.226147 -0.003202 0.000001 0.711769 0.072677 -0.350158
 60 0.000000 5.000000 0.000001 -0.153564 0.000087 2.718701
 61 0.000006 -0.000004 -3.713579 0.119535 -2.936655 -0.885276
 62 0.000003 0.000000 5.000000 3.053195 1.558589 -0.074929
 63 -0.000005 0.000006 3.713580 -0.311487 -2.845558 -0.582080
 64 0.000001 0.000000 -5.000000 -0.088726 1.558589 3.066335
 65 7.363603 1.646648 0.495664 -3.141593 -1.570796 0.000000
 66 -0.000005 0.000007 3.619082 -0.441735 -2.434423 -1.159240
 67 16.573917 -0.000000 0.000001 -0.000000 -0.000000 -2.011748
 68 15.128181 0.000000 -0.000000 0.026832 0.026147 -0.175154
 69 5.758666 4.244731 0.000000 0.000000 -0.000000 2.033309
 70 3.177727 0.000000 0.000000 0.000000 0.000000 3.141593
 71 15.708951 0.000002 -0.000000 0.013957 0.013894 -0.093781
 72 0.275148 0.189215 -3.445208 3.130898 0.000409 -1.514604
 73 17.210192 -0.000001 0.000002 -0.000000 0.000000 -2.319003
 74 0.000000 -0.000001 -5.000000 -0.079433 1.546568 -1.570857
 75 0.000007 -0.000003 -3.619079 0.260448 -2.945758 -1.468642
 76 16.573919 -0.000000 0.000001 0.000000 0.000000 -1.562392
 77 15.128181 0.000000 0.000001 0.265624 -0.173430 0.666428
 78 5.758665 4.244731 0.000000 -0.000000 0.000000 1.483530
 79 4.003934 -0.000000 0.000000 0.000000 0.000000 0.000000
 80 15.708953 0.000000 0.000000 0.195074 -0.100553 0.460486
 81 0.273998 0.191090 3.439762 -3.130907 -0.000437 -1.508107
 82 17.210194 -0.000000 0.000000 -0.000000 0.000000 -2.116793
 83 0.000000 0.000000 5.000000 -0.079311 1.595025 -1.570737
time 4
  0 0.500000 13.522099 26.931471 -0.243067 0.535714 -2.432935
  1 13.773751 5.584523 -22.520975 -0.544290 0.221328 2.303921
  2 -2.276934 0.000003 -1.238185 -1.570795 -1.570451 0.000000
  3 1.796589 0.711961 -0.000868 0.272326 0.187954 -0.124418
  4 4.119693 -0.002975 -0.000850 0.264080 -0.123907 0.317358
  5 4.118769 -0.003139 -0.000933 0.289263 -0.072076 0.031596
  6 4.118025 -0.003095 -0.000920 0.296338 -0.280448 -0.269372
  7 4.117433 -0.000525 -0.003299 1.279874 0.232953 -0.489707
  8 4.443598 0.000001 -0.000000 -0.221841 0.344025 0.022251
  9 9.024059 -0.000000 -0.000000 0.000000 0.000000 0.000000
 10 -0.399998 1.618613 0.483587 -1.166565 -2.625506 -1.315944
 11 6.384776 0.000002 0.000003 -1.414950 -0.433018 -1.352955
 12 10.242682 -0.000003 0.000001 -0.000000 -0.000000 -1.592386
 13 11.375562 0.000000 -0.000001 -2.818776 0.047095 0.674153
 14 0.728681 0.023431 -1.008290 1.051563 0.167831 0.364467
 15 2.136496 0.000001 0.000001 0.000000 0.000000 -0.078540
 16 2.313138 -0.000001 0.000001 0.000000 0.000000 0.000000
 17 3.115509 -0.886041 -0.021430 -0.853677 -0.690048 1.145749
 18 2.011151 0.000000 0.000001 0.000000 -0.000000 1.322791
 19 2.141379 -0.000000 0.000002 0.000000 0.000000 0.000000
 20 1.734172 0.000000 0.000004 -0.000000 -0.000000 0.660693
 21 0.000005 -4.440593 0.000002 1.570544 -0.062990 -0.195737
 22 6.000001 0.000000 0.000000 -2.556630 0.000000 -0.000000
 23 0.000003 -4.440601 0.000000 1.569944 -0.062987 0.004053
 24 11.375561 0.000001 0.000002 -2.197840 -0.090822 0.355854
 25 -0.000000 -4.440603 -0.000000 1.570144 -0.062988 0.004040
 26 10.510131 -0.000002 0.000001 0.000000 0.000000 -2.366989
 27 0.000001 -1.748398 5.000000 -0.000000 0.004007 1.602290
 28 5.500000 -0.000000 0.000000 0.536170 -0.000000 0.000000
 29 -0.000001 -1.940598 5.000002 -0.044472 0.004003 -0.000180
 30 6.551490 0.000000 -0.000001 -1.088729 -0.206551 -0.928308
 31 0.000000 -1.940598 5.000002 -0.027189 -0.053376 0.005295
 32 6.551490 0.000000 -0.000001 -0.412850 0.051787 -0.353864
 33 -0.000000 -1.940599 4.999997 -0.066572 -0.152786 -0.110311
 34 0.400002 -1.611534 -0.483586 1.722269 0.986450 -0.742610
 35 6.384775 -0.000000 -0.000001 0.629286 0.096642 -0.712724
 36 10.242682 0.000001 -0.000001 0.000000 0.000000 -2.358818
 37 11.375562 0.000000 -0.000002 2.693754 0.643854 1.015693
 38 0.728681 0.023430 1.008294 -1.579583 -0.319038 0.212973
 39 2.136493 0.000001 0.000002 0.000000 -0.000000 1.282817
 40 2.313139 -0.000003 -0.000001 0.000000 0.000000 3.141593
 41 3.115503 -0.886040 0.021430 0.420765 0.316066 0.167178
 42 2.011153 -0.000000 0.000002 0.000000 -0.000000 2.082010
 43 2.141380 0.000001 -0.000001 0.000000 0.000000 3.141593
 44 1.734173 -0.000001 0.000001 0.000000 0.000000 1.041748
 45 0.136315 -3.738193 2.525890 1.493698 2.759406 -1.474501
 46 -2.193618 0.798256 4.032641 1.563844 0.186374 -0.074848
 47 11.389367 -0.000819 0.158779 1.997821 0.436545 0.364687
 48 0.000001 -4.440600 0.000000 1.570144 -3.078602 0.004040
 49 6.000000 0.000000 -0.000002 1.997821 0.000000 -0.000000
 50 0.000002 -4.440603 -0.000000 1.569944 -3.078603 0.004053
 51 10.510131 0.000000 -0.000002 0.000000 0.000000 -2.750205
 52 -0.000000 -1.748399 -5.000002 -3.141593 0.004007 -1.539299
 53 5.500000 0.000000 -0.000002 -0.209917 -0.000000 0.000000
 54 -0.000000 0.000000 -5.000000 -0.044472 3.137589 -0.000177
 55 6.551490 0.000000 -0.000002 0.209917 -0.029526 -0.252171
 56 -1.266842 -1.937443 -4.950561 -0.066572 -2.988806 -0.110308
 57 6.551491 -0.000000 -0.000002 0.209917 -0.029526 -0.252171
 58 0.699371 -1.944207 -5.006849 -0.027189 -3.088217 0.005298
 59 4.226147 -0.003202 0.000000 0.726856 0.042752 -0.334627
 60 0.000004 5.000000 -0.000000 -0.153564 0.000087 2.718702
 61 0.000006 -0.000004 -3.713579 0.119535 -2.936655 -0.885276
 62 0.000003 0.000000 5.000000 3.053195 1.558589 -0.074929
 63 -0.000005 0.000006 3.713580 -0.311487 -2.845558 -0.582080
 64 0.000001 0.000000 -5.000000 -0.088726 1.558589 3.066335
 65 7.363603 1.646648 0.495664 -3.141593 -1.570796 0.000000
 66 -0.000005 0.000007 3.619082 -0.441735 -2.434423 -1.159240
 67 16.573917 -0.000000 0.000001 -0.000000 -0.000000 -2.011748
 68 15.128181 0.000000 -0.000000 0.026832 0.026147 -0.175154
 69 5.758666 4.244731 0.000000 0.000000 -0.000000 2.033309
 70 3.177727 0.000000 0.000000 0.000000 0.000000 3.141593
 71 15.708951 0.000002 -0.000000 0.013957 0.013894 -0.093781
 72 0.275148 0.189215 -3.445208 3.130898 0.000409 -1.514604
 73 17.210192 -0.000001 0.000002 -0.000000 0.000000 -2.319003
 74 0.000000 -0.000001 -5.000000 -0.079433 1.546568 -1.570857
 75 0.000007 -0.000003 -3.619079 0.260448 -2.945758 -1.468642
 76 16.573919 -0.000000 0.000001 0.000000 0.000000 -1.562392
 77 15.128181 0.000000 0.000001 0.265624 -0.173430 0.666428
 78 5.758665 4.244731 0.000000 -0.000000 0.000000 1.483530
 79 4.003934 -0.000000 0.000000 0.000000 0.000000 0.000000
 80 15.708953 0.000000 0.000000 0.195074 -0.100553 0.460486
 81 0.273998 0.191090 3.439762 -3.130907 -0.000437 -1.508107
 82 17.210194 -0.000000 0.000000 -0.000000 0.000000 -2.116793
 83 0.000000 0.000000 5.000000 -0.079311 1.595025 -1.570737
end
