version 1
nodes
  0 "Bip01"  -1
  1 "Bip01 Footsteps"   0
  2 "Bip01 Pelvis"   0
  3 "Bip01 Spine"   2
  4 "Bip01 Spine1"   3
  5 "Bip01 Spine2"   4
  6 "Bip01 Spine3"   5
  7 "Bip01 Neck"   6
  8 "Bip01 Head"   7
  9 "Dummy21"   8
 10 "Bip01 L Clavicle"   7
 11 "Bip01 L UpperArm"  10
 12 "Bip01 L Forearm"  11
 13 "Bip01 L Hand"  12
 14 "Bip01 L Finger0"  13
 15 "Bip01 L Finger01"  14
 16 "Dummy06"  15
 17 "Bip01 L Finger1"  13
 18 "Bip01 L Finger11"  17
 19 "Dummy03"  18
 20 "-- L knuckle"  17
 21 "-- L knuckle_end"  20
 22 "-- L Forearm twist"  12
 23 "-- L Forearm twist_end"  22
 24 "-- L wrist"  12
 25 "-- L wrist_end"  24
 26 "-- L Elbow"  11
 27 "--L Elbow_end"  26
 28 "-- L bicep twist"  11
 29 "-- L bicep twist_end"  28
 30 "-- L shoulder outside"  10
 31 "-- L shoulder outside_end"  30
 32 "-- L Shoulder inside"  10
 33 "-- L Shoulder inside_end"  32
 34 "Bip01 R Clavicle"   7
 35 "Bip01 R UpperArm"  34
 36 "Bip01 R Forearm"  35
 37 "Bip01 R Hand"  36
 38 "Bip01 R Finger0"  37
 39 "Bip01 R Finger01"  38
 40 "Dummy01"  39
 41 "Bip01 R Finger1"  37
 42 "Bip01 R Finger11"  41
 43 "Dummy02"  42
 44 "-- R knuckle"  41
 45 "Point06"  44
 46 "Line06"  37
 47 "-- R wrist"  36
 48 "-- R wrist_end"  47
 49 "-- R forearm twist"  36
 50 "-- R forearm twist_end"  49
 51 "-- R Elbow"  35
 52 "--R Elbow_end"  51
 53 "-- R bicep twist"  35
 54 "-- R bicep twist_end"  53
 55 "-- R Shoulder inside"  34
 56 "-- R Shoulder inside_end"  55
 57 "-- R shoulder outside"  34
 58 "-- R shoulder outside_end"  57
 59 "-- Neck smooth"   6
 60 "-- neck smooth end"  59
 61 "-- R Butt"   2
 62 "--R Butt_end"  61
 63 "-- L butt"   2
 64 "--L butt_end"  63
 65 "GIGN01"   2
 66 "Bip01 L Thigh"   2
 67 "Bip01 L Calf"  66
 68 "Bip01 L Foot"  67
 69 "Bip01 L Toe0"  68
 70 "Dummy16"  69
 71 "-- L ankle"  67
 72 "-- L ankleend"  71
 73 "-- L Knee"  66
 74 "--L Knee_end"  73
 75 "Bip01 R Thigh"   2
 76 "Bip01 R Calf"  75
 77 "Bip01 R Foot"  76
 78 "Bip01 R Toe0"  77
 79 "Dummy11"  78
 80 "-- R Ankle"  76
 81 "-- R ankleend"  80
 82 "-- R Knee"  75
 83 "--R Knee_end"  82
end
skeleton
time 0
  0 0.500000 13.522099 26.931471 -0.243067 0.535714 -2.432935
  1 13.773751 5.584523 -22.520975 -0.544290 0.221328 2.303921
  2 -2.276934 0.000003 -1.238185 -1.570795 -1.570451 0.000000
  3 1.795982 0.712040 0.000431 -0.133278 0.146768 -0.385063
  4 4.119696 -0.001879 -0.002459 0.858810 -0.143814 0.362283
  5 4.119296 -0.002477 0.002034 -0.669486 0.035196 0.244769
  6 4.119583 -0.002310 0.002110 -0.830013 0.512249 -0.089861
  7 4.118233 -0.003297 0.001229 -0.356470 0.096744 -0.147783
  8 4.443597 0.000000 0.000001 0.493464 0.298289 0.208591
  9 9.024061 0.000000 0.000000 0.000000 0.000000 0.000000
 10 -0.167365 -0.598305 1.616198 -1.215188 -1.310768 -1.797279
 11 6.384775 -0.000001 -0.000002 -0.753647 -0.228137 -1.573441
 12 10.242682 -0.000000 -0.000001 0.000000 0.000000 -1.003202
 13 11.375561 0.000002 -0.000001 2.590579 0.476672 -0.443070
 14 0.728680 0.023431 -1.008292 2.446619 0.739147 0.187256
 15 2.136495 -0.000000 0.000002 0.000000 -0.000000 -0.078540
 16 2.313138 -0.000000 -0.000001 0.000000 0.000000 0.000000
 17 3.115505 -0.886042 -0.021431 0.353923 -0.351521 0.302191
 18 2.011152 0.000002 0.000001 -0.000000 0.000000 1.322791
 19 2.141379 0.000000 -0.000000 0.000000 0.000000 0.000000
 20 1.734173 0.000000 -0.000001 -0.000000 -0.000000 0.660693
 21 0.000005 -4.440594 0.000001 1.570544 -0.062990 -0.195737
 22 6.000000 0.000002 -0.000001 2.959716 0.000000 -0.000000
 23 0.000002 -4.440602 -0.000000 1.569944 -0.062987 0.004053
 24 11.375562 -0.000000 0.000003 -2.551919 0.385764 -0.049490
 25 0.000000 -4.440603 -0.000001 1.570144 -0.062988 0.004040
 26 10.510131 0.000001 -0.000002 -0.000000 -0.000000 -2.072397
 27 -0.000000 -1.748401 5.000000 -0.000000 0.004007 1.602290
 28 5.500000 0.000001 -0.000001 0.325704 -0.000000 -0.000000
 29 -0.000002 -1.940598 5.000001 -0.044472 0.004003 -0.000180
 30 6.551490 -0.000000 -0.000002 -0.622087 -0.098398 -1.164204
 31 0.000001 -1.940598 5.000002 -0.027189 -0.053376 0.005295
 32 6.551490 -0.000000 -0.000002 -0.255385 0.045175 -0.459262
 33 0.000001 -1.940600 4.999996 -0.066572 -0.152786 -0.110311
 34 0.167368 0.605380 -1.616197 -1.334265 1.506988 1.921758
 35 6.384775 0.000001 -0.000002 0.304608 0.044424 -1.293807
 36 10.242681 -0.000000 0.000002 -0.000000 -0.000000 -2.132013
 37 11.375559 0.000001 0.000002 3.010094 0.499445 1.281985
 38 0.728681 0.023431 1.008290 -1.579583 -0.319038 0.212973
 39 2.136496 0.000002 -0.000000 0.000000 0.000000 1.282817
 40 2.313140 -0.000001 -0.000000 0.000000 0.000000 3.141593
 41 3.115508 -0.886041 0.021431 0.420766 0.316066 0.167178
 42 2.011151 -0.000000 -0.000002 -0.000000 0.000000 2.082010
 43 2.141380 0.000001 0.000003 0.000000 0.000000 3.141593
 44 1.734173 -0.000002 -0.000002 -0.000000 0.000000 1.041748
 45 0.136315 -3.738193 2.525891 1.493698 2.759406 -1.474501
 46 -2.193618 0.798257 4.032641 1.563844 0.186374 -0.074848
 47 11.389366 -0.000820 0.158782 2.160571 0.464261 0.495920
 48 -0.000000 -4.440598 0.000000 1.570144 -3.078602 0.004040
 49 5.999999 0.000000 0.000001 2.160571 -0.000000 0.000000
 50 0.000002 -4.440600 0.000001 1.569944 -3.078603 0.004053
 51 10.510131 0.000001 0.000004 0.000000 -0.000000 -2.636803
 52 0.000002 -1.748400 -5.000001 -3.141593 0.004007 -1.539299
 53 5.499999 0.000001 0.000001 -0.121299 -0.000000 -0.000000
 54 -0.000001 -0.000001 -4.999999 -0.044472 3.137590 -0.000177
 55 6.551488 -0.000001 0.000001 0.121299 -0.046374 -0.349704
 56 -1.266844 -1.937443 -4.950563 -0.066572 -2.988806 -0.110308
 57 6.551488 -0.000001 0.000001 0.121299 -0.046374 -0.349704
 58 0.699369 -1.944209 -5.006846 -0.027189 -3.088217 0.005298
 59 4.226147 -0.003202 0.000001 -0.197290 0.063816 -0.088520
 60 -0.000002 5.000002 -0.000000 -0.153564 0.000087 2.718702
 61 0.000006 -0.000004 -3.713579 0.119535 -2.936655 -0.885276
 62 0.000003 0.000000 5.000000 3.053195 1.558589 -0.074929
 63 -0.000005 0.000006 3.713580 -0.311487 -2.845558 -0.582080
 64 0.000001 0.000000 -5.000000 -0.088726 1.558589 3.066335
 65 7.363603 1.646648 0.495664 -3.141593 -1.570796 0.000000
 66 -0.000005 0.000007 3.619082 -0.441735 -2.434423 -1.159240
 67 16.573917 -0.000000 0.000001 -0.000000 -0.000000 -2.011748
 68 15.128181 0.000000 -0.000000 0.026832 0.026147 -0.175154
 69 5.758666 4.244731 0.000000 0.000000 -0.000000 2.033309
 70 3.177727 0.000000 0.000000 0.000000 0.000000 3.141593
 71 15.708951 0.000002 -0.000000 0.013957 0.013894 -0.093781
 72 0.275148 0.189215 -3.445208 3.130898 0.000409 -1.514604
 73 17.210192 -0.000001 0.000002 -0.000000 0.000000 -2.319003
 74 0.000000 -0.000001 -5.000000 -0.079433 1.546568 -1.570857
 75 0.000007 -0.000003 -3.619079 0.260448 -2.945758 -1.468642
 76 16.573919 -0.000000 0.000001 0.000000 0.000000 -1.562392
 77 15.128181 0.000000 0.000001 0.265624 -0.173430 0.666428
 78 5.758665 4.244731 0.000000 -0.000000 0.000000 1.483530
 79 4.003934 -0.000000 0.000000 0.000000 0.000000 0.000000
 80 15.708953 0.000000 0.000000 0.195074 -0.100553 0.460486
 81 0.273998 0.191090 3.439762 -3.130907 -0.000437 -1.508107
 82 17.210194 -0.000000 0.000000 -0.000000 0.000000 -2.116793
 83 0.000000 0.000000 5.000000 -0.079311 1.595025 -1.570737
time 1
  0 0.500000 13.522099 26.931471 -0.243067 0.535714 -2.432935
  1 13.773751 5.584523 -22.520975 -0.544290 0.221328 2.303921
  2 -2.276934 0.000003 -1.238185 -1.570795 -1.570451 0.000000
  3 1.795982 0.712040 0.000431 -0.133278 0.146768 -0.385063
  4 4.119696 -0.001879 -0.002459 0.858810 -0.143814 0.362283
  5 4.119296 -0.002477 0.002034 -0.669486 0.035196 0.244769
  6 4.119583 -0.002310 0.002110 -0.830013 0.512249 -0.089861
  7 4.118304 -0.003304 0.001232 -0.357447 0.103765 -0.128867
  8 4.443599 0.000000 -0.000000 0.490784 0.307410 0.170499
  9 9.024062 -0.000002 -0.000000 0.000000 0.000000 0.000000
 10 -0.179470 -0.599456 1.614467 -1.217767 -1.307977 -1.814874
 11 6.384775 -0.000001 -0.000002 -0.802119 -0.218399 -1.610463
 12 10.242683 0.000002 -0.000001 0.000000 0.000000 -0.951687
 13 11.375563 -0.000001 -0.000000 2.642731 0.532425 -0.457407
 14 0.728681 0.023432 -1.008291 2.446619 0.739147 0.187256
 15 2.136497 -0.000001 -0.000001 0.000000 0.000000 -0.078540
 16 2.313138 0.000001 0.000000 0.000000 0.000000 0.000000
 17 3.115506 -0.886041 -0.021430 0.353923 -0.351521 0.302191
 18 2.011152 0.000000 0.000002 -0.000000 0.000000 1.322792
 19 2.141379 -0.000000 -0.000003 0.000000 0.000000 0.000000
 20 1.734172 0.000000 0.000002 0.000000 0.000000 0.660693
 21 0.000005 -4.440595 0.000002 1.570544 -0.062990 -0.195737
 22 6.000001 0.000000 0.000001 3.027527 0.000000 -0.000000
 23 0.000003 -4.440599 -0.000001 1.569944 -0.062987 0.004053
 24 11.375563 0.000001 0.000003 -2.513331 0.405051 -0.042836
 25 -0.000001 -4.440604 0.000001 1.570144 -0.062988 0.004040
 26 10.510130 0.000001 -0.000001 -0.000000 -0.000000 -2.046640
 27 -0.000000 -1.748400 4.999999 0.000000 0.004007 1.602291
 28 5.500000 0.000001 -0.000001 0.327309 -0.000000 0.000000
 29 -0.000001 -1.940598 5.000000 -0.044472 0.004003 -0.000180
 30 6.551490 -0.000000 -0.000002 -0.638292 -0.084377 -1.221446
 31 0.000001 -1.940599 5.000002 -0.027189 -0.053376 0.005295
 32 6.551490 -0.000000 -0.000002 -0.253942 0.056572 -0.468468
 33 0.000000 -1.940599 4.999998 -0.066572 -0.152786 -0.110311
 34 0.179473 0.606532 -1.614469 1.509440 1.677456 -1.532641
 35 6.384776 0.000001 -0.000003 0.316211 0.066955 -1.243705
 36 10.242682 -0.000001 0.000001 -0.000000 0.000000 -2.132013
 37 11.375560 -0.000000 -0.000001 3.023972 0.482796 1.291461
 38 0.728681 0.023432 1.008291 -1.579583 -0.319038 0.212973
 39 2.136496 0.000000 0.000000 -0.000000 -0.000000 1.282817
 40 2.313139 0.000000 0.000001 0.000000 0.000000 3.141593
 41 3.115506 -0.886040 0.021429 0.420766 0.316066 0.167178
 42 2.011150 -0.000000 -0.000003 0.000000 0.000000 2.082010
 43 2.141380 -0.000001 0.000002 0.000000 0.000000 3.141593
 44 1.734172 -0.000001 -0.000000 0.000000 0.000000 1.041748
 45 0.136314 -3.738193 2.525889 1.493698 2.759406 -1.474501
 46 -2.193618 0.798258 4.032639 1.563844 0.186374 -0.074848
 47 11.389366 -0.000820 0.158780 2.171634 0.461742 0.504426
 48 0.000001 -4.440601 0.000002 1.570144 -3.078602 0.004040
 49 6.000000 -0.000001 -0.000000 2.171634 -0.000000 0.000000
 50 0.000002 -4.440599 -0.000001 1.569944 -3.078603 0.004053
 51 10.510130 -0.000002 -0.000000 0.000000 0.000000 -2.636803
 52 -0.000000 -1.748400 -5.000002 -3.141593 0.004007 -1.539299
 53 5.500000 -0.000000 -0.000001 -0.125690 0.000000 -0.000000
 54 -0.000001 0.000001 -5.000000 -0.044472 3.137589 -0.000177
 55 6.551488 0.000000 -0.000000 0.125690 -0.038562 -0.337317
 56 -1.266844 -1.937443 -4.950562 -0.066572 -2.988806 -0.110308
 57 6.551489 -0.000000 -0.000000 0.125690 -0.038562 -0.337317
 58 0.699370 -1.944209 -5.006846 -0.027189 -3.088217 0.005298
 59 4.226147 -0.003202 0.000001 -0.197932 0.067242 -0.076275
 60 -0.000001 5.000000 -0.000001 -0.153564 0.000087 2.718702
 61 0.000006 -0.000004 -3.713579 0.119535 -2.936655 -0.885276
 62 0.000003 0.000000 5.000000 3.053195 1.558589 -0.074929
 63 -0.000005 0.000006 3.713580 -0.311487 -2.845558 -0.582080
 64 0.000001 0.000000 -5.000000 -0.088726 1.558589 3.066335
 65 7.363603 1.646648 0.495664 -3.141593 -1.570796 0.000000
 66 -0.000005 0.000007 3.619082 -0.441735 -2.434423 -1.159240
 67 16.573917 -0.000000 0.000001 -0.000000 -0.000000 -2.011748
 68 15.128181 0.000000 -0.000000 0.026832 0.026147 -0.175154
 69 5.758666 4.244731 0.000000 0.000000 -0.000000 2.033309
 70 3.177727 0.000000 0.000000 0.000000 0.000000 3.141593
 71 15.708951 0.000002 -0.000000 0.013957 0.013894 -0.093781
 72 0.275148 0.189215 -3.445208 3.130898 0.000409 -1.514604
 73 17.210192 -0.000001 0.000002 -0.000000 0.000000 -2.319003
 74 0.000000 -0.000001 -5.000000 -0.079433 1.546568 -1.570857
 75 0.000007 -0.000003 -3.619079 0.260448 -2.945758 -1.468642
 76 16.573919 -0.000000 0.000001 0.000000 0.000000 -1.562392
 77 15.128181 0.000000 0.000001 0.265624 -0.173430 0.666428
 78 5.758665 4.244731 0.000000 -0.000000 0.000000 1.483530
 79 4.003934 -0.000000 0.000000 0.000000 0.000000 0.000000
 80 15.708953 0.000000 0.000000 0.195074 -0.100553 0.460486
 81 0.273998 0.191090 3.439762 -3.130907 -0.000437 -1.508107
 82 17.210194 -0.000000 0.000000 -0.000000 0.000000 -2.116793
 83 0.000000 0.000000 5.000000 -0.079311 1.595025 -1.570737
time 2
  0 0.500000 13.522099 26.931471 -0.243067 0.535714 -2.432935
  1 13.773751 5.584523 -22.520975 -0.544290 0.221328 2.303921
  2 -2.276934 0.000003 -1.238185 -1.570795 -1.570451 0.000000
  3 1.795982 0.712040 0.000431 -0.133278 0.146768 -0.385063
  4 4.119696 -0.001879 -0.002459 0.858810 -0.143814 0.362283
  5 4.119296 -0.002477 0.002034 -0.669486 0.035196 0.244769
  6 4.119583 -0.002310 0.002110 -0.830013 0.512249 -0.089861
  7 4.118379 -0.003311 0.001232 -0.358290 0.110803 -0.109945
  8 4.443599 0.000001 0.000002 0.487942 0.316590 0.132358
  9 9.024060 -0.000001 -0.000000 0.000000 0.000000 0.000000
 10 -0.191597 -0.600359 1.612738 -1.220508 -1.305198 -1.832316
 11 6.384775 -0.000001 -0.000002 -0.852342 -0.212958 -1.647043
 12 10.242682 -0.000001 0.000001 -0.000000 0.000000 -0.897266
 13 11.375558 0.000003 -0.000001 2.696109 0.588573 -0.470426
 14 0.728681 0.023432 -1.008291 2.446619 0.739147 0.187256
 15 2.136498 -0.000000 -0.000000 0.000000 -0.000000 -0.078540
 16 2.313139 0.000001 0.000001 0.000000 0.000000 0.000000
 17 3.115507 -0.886040 -0.021430 0.353923 -0.351521 0.302191
 18 2.011151 0.000001 -0.000002 -0.000000 0.000000 1.322792
 19 2.141379 0.000000 -0.000003 0.000000 0.000000 0.000000
 20 1.734172 0.000001 -0.000000 0.000000 -0.000000 0.660693
 21 0.000007 -4.440594 0.000001 1.570544 -0.062990 -0.195737
 22 6.000000 0.000001 0.000000 3.096761 0.000000 0.000000
 23 0.000002 -4.440600 -0.000000 1.569944 -0.062987 0.004053
 24 11.375561 0.000001 0.000003 -2.473597 0.424104 -0.036353
 25 -0.000001 -4.440605 0.000002 1.570144 -0.062988 0.004040
 26 10.510131 0.000001 -0.000000 0.000000 0.000000 -2.019429
 27 0.000000 -1.748401 4.999999 0.000000 0.004007 1.602291
 28 5.500000 -0.000001 0.000001 0.329544 -0.000000 0.000000
 29 -0.000002 -1.940599 5.000001 -0.044472 0.004003 -0.000180
 30 6.551490 -0.000000 -0.000002 -0.657839 -0.069775 -1.278859
 31 0.000001 -1.940598 5.000000 -0.027189 -0.053376 0.005295
 32 6.551490 -0.000000 -0.000002 -0.252698 0.068366 -0.475671
 33 0.000001 -1.940599 4.999995 -0.066572 -0.152786 -0.110311
 34 0.191597 0.607437 -1.612734 -1.755019 1.417293 1.470265
 35 6.384775 0.000001 -0.000000 0.327681 0.087500 -1.192770
 36 10.242682 -0.000002 0.000001 -0.000000 0.000000 -2.132013
 37 11.375562 -0.000001 -0.000002 3.037554 0.466035 1.300597
 38 0.728679 0.023431 1.008291 -1.579583 -0.319038 0.212973
 39 2.136499 -0.000003 -0.000001 -0.000000 0.000000 1.282817
 40 2.313139 -0.000001 0.000001 0.000000 0.000000 3.141593
 41 3.115507 -0.886040 0.021431 0.420766 0.316066 0.167178
 42 2.011151 -0.000001 -0.000001 -0.000000 0.000000 2.082010
 43 2.141380 0.000000 -0.000000 0.000000 0.000000 3.141593
 44 1.734172 -0.000001 0.000001 0.000000 0.000000 1.041748
 45 0.136315 -3.738192 2.525890 1.493698 2.759406 -1.474501
 46 -2.193619 0.798257 4.032640 1.563844 0.186374 -0.074848
 47 11.389366 -0.000820 0.158782 2.182665 0.459132 0.512893
 48 -0.000001 -4.440599 -0.000001 1.570144 -3.078602 0.004040
 49 5.999999 0.000000 0.000000 2.182665 -0.000000 -0.000000
 50 0.000002 -4.440602 -0.000000 1.569944 -3.078603 0.004053
 51 10.510132 -0.000002 0.000002 0.000000 -0.000000 -2.636803
 52 0.000001 -1.748399 -4.999997 3.141593 0.004007 -1.539299
 53 5.500000 -0.000000 -0.000002 -0.129575 0.000000 -0.000000
 54 0.000000 0.000001 -5.000000 -0.044472 3.137589 -0.000177
 55 6.551489 0.000001 -0.000000 0.129575 -0.031265 -0.326271
 56 -1.266844 -1.937444 -4.950557 -0.066572 -2.988806 -0.110308
 57 6.551490 0.000001 0.000000 0.129575 -0.031265 -0.326271
 58 0.699371 -1.944207 -5.006846 -0.027189 -3.088217 0.005298
 59 4.226147 -0.003202 0.000001 -0.198508 0.070670 -0.063956
 60 -0.000002 5.000001 0.000000 -0.153564 0.000087 2.718702
 61 0.000006 -0.000004 -3.713579 0.119535 -2.936655 -0.885276
 62 0.000003 0.000000 5.000000 3.053195 1.558589 -0.074929
 63 -0.000005 0.000006 3.713580 -0.311487 -2.845558 -0.582080
 64 0.000001 0.000000 -5.000000 -0.088726 1.558589 3.066335
 65 7.363603 1.646648 0.495664 -3.141593 -1.570796 0.000000
 66 -0.000005 0.000007 3.619082 -0.441735 -2.434423 -1.159240
 67 16.573917 -0.000000 0.000001 -0.000000 -0.000000 -2.011748
 68 15.128181 0.000000 -0.000000 0.026832 0.026147 -0.175154
 69 5.758666 4.244731 0.000000 0.000000 -0.000000 2.033309
 70 3.177727 0.000000 0.000000 0.000000 0.000000 3.141593
 71 15.708951 0.000002 -0.000000 0.013957 0.013894 -0.093781
 72 0.275148 0.189215 -3.445208 3.130898 0.000409 -1.514604
 73 17.210192 -0.000001 0.000002 -0.000000 0.000000 -2.319003
 74 0.000000 -0.000001 -5.000000 -0.079433 1.546568 -1.570857
 75 0.000007 -0.000003 -3.619079 0.260448 -2.945758 -1.468642
 76 16.573919 -0.000000 0.000001 0.000000 0.000000 -1.562392
 77 15.128181 0.000000 0.000001 0.265624 -0.173430 0.666428
 78 5.758665 4.244731 0.000000 -0.000000 0.000000 1.483530
 79 4.003934 -0.000000 0.000000 0.000000 0.000000 0.000000
 80 15.708953 0.000000 0.000000 0.195074 -0.100553 0.460486
 81 0.273998 0.191090 3.439762 -3.130907 -0.000437 -1.508107
 82 17.210194 -0.000000 0.000000 -0.000000 0.000000 -2.116793
 83 0.000000 0.000000 5.000000 -0.079311 1.595025 -1.570737
time 3
  0 0.500000 13.522099 26.931471 -0.243067 0.535714 -2.432935
  1 13.773751 5.584523 -22.520975 -0.544290 0.221328 2.303921
  2 -2.276934 0.000003 -1.238185 -1.570795 -1.570451 0.000000
  3 1.795982 0.712040 0.000431 -0.133278 0.146768 -0.385063
  4 4.119696 -0.001879 -0.002459 0.858810 -0.143814 0.362283
  5 4.119296 -0.002477 0.002034 -0.669486 0.035196 0.244769
  6 4.119583 -0.002310 0.002110 -0.830013 0.512249 -0.089861
  7 4.118449 -0.003313 0.001235 -0.359000 0.117856 -0.091013
  8 4.443600 0.000001 0.000001 0.484931 0.325825 0.094165
  9 9.024059 0.000001 -0.000000 0.000000 0.000000 0.000000
 10 -0.203736 -0.601014 1.611002 -1.223403 -1.302431 -1.849611
 11 6.384775 -0.000001 -0.000002 -0.904100 -0.212202 -1.682943
 12 10.242682 0.000001 -0.000001 -0.000000 0.000000 -0.839483
 13 11.375559 0.000000 0.000001 2.751104 0.644969 -0.481936
 14 0.728680 0.023432 -1.008293 2.446619 0.739147 0.187256
 15 2.136496 -0.000000 -0.000001 0.000000 -0.000000 -0.078540
 16 2.313139 -0.000000 0.000000 0.000000 0.000000 0.000000
 17 3.115507 -0.886041 -0.021433 0.353923 -0.351521 0.302191
 18 2.011151 -0.000000 0.000002 -0.000000 0.000000 1.322792
 19 2.141379 -0.000001 0.000001 0.000000 0.000000 0.000000
 20 1.734173 0.000001 0.000002 -0.000000 -0.000000 0.660693
 21 0.000005 -4.440594 0.000003 1.570544 -0.062990 -0.195737
 22 6.000000 0.000000 0.000001 -3.115551 -0.000000 0.000000
 23 0.000002 -4.440601 0.000001 1.569944 -0.062987 0.004053
 24 11.375562 -0.000002 0.000004 -2.432638 0.442977 -0.029894
 25 -0.000000 -4.440602 0.000000 1.570144 -0.062988 0.004040
 26 10.510132 0.000001 -0.000000 0.000000 -0.000000 -1.990538
 27 0.000001 -1.748401 5.000000 -0.000000 0.004007 1.602290
 28 5.500000 0.000001 -0.000000 0.332851 0.000000 0.000000
 29 -0.000002 -1.940598 5.000001 -0.044472 0.004003 -0.000180
 30 6.551490 -0.000000 -0.000002 -0.681848 -0.055208 -1.335688
 31 -0.000000 -1.940599 5.000001 -0.027189 -0.053376 0.005295
 32 6.551490 -0.000000 -0.000002 -0.251986 0.080432 -0.480531
 33 0.000001 -1.940599 4.999994 -0.066572 -0.152786 -0.110311
 34 0.203741 0.608092 -1.611001 -1.819890 1.369182 1.388667
 35 6.384777 0.000001 -0.000001 0.338877 0.106075 -1.141092
 36 10.242681 0.000001 0.000001 0.000000 -0.000000 -2.132013
 37 11.375561 0.000000 0.000000 3.050853 0.449165 1.309404
 38 0.728681 0.023431 1.008293 -1.579583 -0.319038 0.212973
 39 2.136496 0.000001 -0.000001 0.000000 0.000000 1.282817
 40 2.313138 -0.000001 0.000000 0.000000 0.000000 3.141593
 41 3.115507 -0.886040 0.021431 0.420766 0.316066 0.167178
 42 2.011150 0.000002 0.000002 -0.000000 0.000000 2.082010
 43 2.141379 0.000001 0.000001 0.000000 0.000000 3.141593
 44 1.734172 -0.000001 -0.000000 0.000000 -0.000000 1.041748
 45 0.136316 -3.738192 2.525891 1.493698 2.759406 -1.474501
 46 -2.193618 0.798257 4.032641 1.563844 0.186374 -0.074848
 47 11.389366 -0.000819 0.158782 2.193660 0.456431 0.521318
 48 0.000001 -4.440598 0.000001 1.570144 -3.078602 0.004040
 49 6.000000 -0.000000 0.000000 2.193660 -0.000000 -0.000000
 50 0.000001 -4.440603 0.000001 1.569944 -3.078603 0.004053
 51 10.510131 0.000001 0.000002 0.000000 -0.000000 -2.636803
 52 -0.000001 -1.748401 -5.000005 -3.141593 0.004007 -1.539299
 53 5.499999 0.000000 -0.000001 -0.132951 0.000000 -0.000000
 54 -0.000001 -0.000000 -5.000000 -0.044472 3.137589 -0.000177
 55 6.551491 -0.000000 0.000000 0.132951 -0.024393 -0.316256
 56 -1.266844 -1.937442 -4.950561 -0.066572 -2.988806 -0.110308
 57 6.551491 0.000000 0.000000 0.132951 -0.024393 -0.316256
 58 0.699370 -1.944206 -5.006848 -0.027189 -3.088217 0.005298
 59 4.226147 -0.003202 0.000001 -0.199018 0.074095 -0.051574
 60 -0.000000 5.000001 -0.000000 -0.153564 0.000087 2.718702
 61 0.000006 -0.000004 -3.713579 0.119535 -2.936655 -0.885276
 62 0.000003 0.000000 5.000000 3.053195 1.558589 -0.074929
 63 -0.000005 0.000006 3.713580 -0.311487 -2.845558 -0.582080
 64 0.000001 0.000000 -5.000000 -0.088726 1.558589 3.066335
 65 7.363603 1.646648 0.495664 -3.141593 -1.570796 0.000000
 66 -0.000005 0.000007 3.619082 -0.441735 -2.434423 -1.159240
 67 16.573917 -0.000000 0.000001 -0.000000 -0.000000 -2.011748
 68 15.128181 0.000000 -0.000000 0.026832 0.026147 -0.175154
 69 5.758666 4.244731 0.000000 0.000000 -0.000000 2.033309
 70 3.177727 0.000000 0.000000 0.000000 0.000000 3.141593
 71 15.708951 0.000002 -0.000000 0.013957 0.013894 -0.093781
 72 0.275148 0.189215 -3.445208 3.130898 0.000409 -1.514604
 73 17.210192 -0.000001 0.000002 -0.000000 0.000000 -2.319003
 74 0.000000 -0.000001 -5.000000 -0.079433 1.546568 -1.570857
 75 0.000007 -0.000003 -3.619079 0.260448 -2.945758 -1.468642
 76 16.573919 -0.000000 0.000001 0.000000 0.000000 -1.562392
 77 15.128181 0.000000 0.000001 0.265624 -0.173430 0.666428
 78 5.758665 4.244731 0.000000 -0.000000 0.000000 1.483530
 79 4.003934 -0.000000 0.000000 0.000000 0.000000 0.000000
 80 15.708953 0.000000 0.000000 0.195074 -0.100553 0.460486
 81 0.273998 0.191090 3.439762 -3.130907 -0.000437 -1.508107
 82 17.210194 -0.000000 0.000000 -0.000000 0.000000 -2.116793
 83 0.000000 0.000000 5.000000 -0.079311 1.595025 -1.570737
time 4
  0 0.500000 13.522099 26.931471 -0.243067 0.535714 -2.432935
  1 13.773751 5.584523 -22.520975 -0.544290 0.221328 2.303921
  2 -2.276934 0.000003 -1.238185 -1.570795 -1.570451 0.000000
  3 1.795982 0.712040 0.000431 -0.133278 0.146768 -0.385063
  4 4.119696 -0.001879 -0.002459 0.858810 -0.143814 0.362283
  5 4.119296 -0.002477 0.002034 -0.669486 0.035196 0.244769
  6 4.119583 -0.002310 0.002110 -0.830013 0.512249 -0.089861
  7 4.118519 -0.003314 0.001236 -0.359576 0.124922 -0.072070
  8 4.443601 -0.000000 -0.000000 0.481743 0.335113 0.055913
  9 9.024061 -0.000001 0.000001 0.000000 0.000000 0.000000
 10 -0.215886 -0.601422 1.609264 -1.226448 -1.299679 -1.866764
 11 6.384775 -0.000001 -0.000002 -0.957150 -0.216567 -1.717900
 12 10.242682 -0.000001 -0.000000 0.000000 0.000000 -0.777709
 13 11.375561 0.000000 -0.000001 2.808213 0.701438 -0.491731
 14 0.728680 0.023430 -1.008293 2.446619 0.739147 0.187256
 15 2.136494 0.000001 0.000001 0.000000 0.000000 -0.078540
 16 2.313141 -0.000000 -0.000001 0.000000 0.000000 0.000000
 17 3.115507 -0.886039 -0.021431 0.353923 -0.351521 0.302191
 18 2.011150 -0.000001 -0.000000 -0.000000 -0.000000 1.322792
 19 2.141380 -0.000000 -0.000000 0.000000 0.000000 0.000000
 20 1.734172 0.000002 -0.000001 -0.000000 -0.000000 0.660693
 21 0.000007 -4.440594 0.000000 1.570544 -0.062990 -0.195737
 22 6.000000 -0.000001 0.000000 -3.042802 0.000000 0.000000
 23 -0.000000 -4.440600 -0.000000 1.569944 -0.062987 0.004053
 24 11.375560 0.000000 0.000003 -2.390377 0.461698 -0.023332
 25 -0.000000 -4.440603 -0.000001 1.570144 -0.062988 0.004040
 26 10.510130 -0.000003 -0.000000 -0.000000 0.000000 -1.959651
 27 -0.000003 -1.748401 4.999998 -0.000000 0.004007 1.602290
 28 5.500000 -0.000002 -0.000000 0.337570 -0.000000 -0.000000
 29 -0.000002 -1.940599 5.000000 -0.044472 0.004003 -0.000180
 30 6.551490 -0.000000 -0.000002 -0.711372 -0.041538 -1.391622
 31 0.000001 -1.940599 5.000002 -0.027189 -0.053376 0.005295
 32 6.551490 -0.000000 -0.000002 -0.252043 0.092610 -0.482805
 33 -0.000001 -1.940599 4.999996 -0.066572 -0.152786 -0.110311
 34 0.215895 0.608497 -1.609266 -1.859308 1.320517 1.331615
 35 6.384776 0.000001 0.000001 0.349654 0.122710 -1.088768
 36 10.242682 -0.000001 0.000001 0.000000 0.000000 -2.132013
 37 11.375559 0.000001 -0.000000 3.063882 0.432193 1.317894
 38 0.728680 0.023431 1.008292 -1.579583 -0.319038 0.212973
 39 2.136496 0.000001 -0.000001 -0.000000 -0.000000 1.282817
 40 2.313139 -0.000000 -0.000000 0.000000 0.000000 3.141593
 41 3.115507 -0.886041 0.021433 0.420766 0.316066 0.167178
 42 2.011150 0.000000 0.000002 0.000000 0.000000 2.082010
 43 2.141379 -0.000001 -0.000002 0.000000 0.000000 3.141593
 44 1.734172 -0.000001 0.000000 0.000000 0.000000 1.041748
 45 0.136315 -3.738190 2.525891 1.493698 2.759406 -1.474501
 46 -2.193618 0.798256 4.032642 1.563844 0.186374 -0.074848
 47 11.389366 -0.000819 0.158783 2.204621 0.453639 0.529701
 48 0.000001 -4.440598 0.000001 1.570144 -3.078602 0.004040
 49 6.000000 0.000000 -0.000000 2.204621 0.000000 -0.000000
 50 0.000002 -4.440603 0.000002 1.569944 -3.078603 0.004053
 51 10.510131 0.000001 0.000001 0.000000 0.000000 -2.636803
 52 -0.000000 -1.748400 -5.000000 -3.141593 0.004007 -1.539299
 53 5.499999 0.000001 -0.000001 -0.135812 -0.000000 0.000000
 54 -0.000000 -0.000000 -5.000000 -0.044472 3.137589 -0.000177
 55 6.551490 -0.000000 0.000002 0.135812 -0.017872 -0.307028
 56 -1.266843 -1.937443 -4.950562 -0.066572 -2.988806 -0.110308
 57 6.551490 -0.000000 0.000002 0.135812 -0.017872 -0.307028
 58 0.699371 -1.944209 -5.006847 -0.027189 -3.088217 0.005298
 59 4.226147 -0.003202 0.000001 -0.199460 0.077514 -0.039142
 60 0.000002 5.000001 0.000000 -0.153564 0.000087 2.718702
 61 0.000006 -0.000004 -3.713579 0.119535 -2.936655 -0.885276
 62 0.000003 0.000000 5.000000 3.053195 1.558589 -0.074929
 63 -0.000005 0.000006 3.713580 -0.311487 -2.845558 -0.582080
 64 0.000001 0.000000 -5.000000 -0.088726 1.558589 3.066335
 65 7.363603 1.646648 0.495664 -3.141593 -1.570796 0.000000
 66 -0.000005 0.000007 3.619082 -0.441735 -2.434423 -1.159240
 67 16.573917 -0.000000 0.000001 -0.000000 -0.000000 -2.011748
 68 15.128181 0.000000 -0.000000 0.026832 0.026147 -0.175154
 69 5.758666 4.244731 0.000000 0.000000 -0.000000 2.033309
 70 3.177727 0.000000 0.000000 0.000000 0.000000 3.141593
 71 15.708951 0.000002 -0.000000 0.013957 0.013894 -0.093781
 72 0.275148 0.189215 -3.445208 3.130898 0.000409 -1.514604
 73 17.210192 -0.000001 0.000002 -0.000000 0.000000 -2.319003
 74 0.000000 -0.000001 -5.000000 -0.079433 1.546568 -1.570857
 75 0.000007 -0.000003 -3.619079 0.260448 -2.945758 -1.468642
 76 16.573919 -0.000000 0.000001 0.000000 0.000000 -1.562392
 77 15.128181 0.000000 0.000001 0.265624 -0.173430 0.666428
 78 5.758665 4.244731 0.000000 -0.000000 0.000000 1.483530
 79 4.003934 -0.000000 0.000000 0.000000 0.000000 0.000000
 80 15.708953 0.000000 0.000000 0.195074 -0.100553 0.460486
 81 0.273998 0.191090 3.439762 -3.130907 -0.000437 -1.508107
 82 17.210194 -0.000000 0.000000 -0.000000 0.000000 -2.116793
 83 0.000000 0.000000 5.000000 -0.079311 1.595025 -1.570737
end
