version 1
nodes
  0 "Bip01"  -1
  1 "Bip01 Footsteps"   0
  2 "Bip01 Pelvis"   0
  3 "Bip01 Spine"   2
  4 "Bip01 Spine1"   3
  5 "Bip01 Spine2"   4
  6 "Bip01 Spine3"   5
  7 "Bip01 Neck"   6
  8 "Bip01 Head"   7
  9 "Dummy21"   8
 10 "Bip01 L Clavicle"   7
 11 "Bip01 L UpperArm"  10
 12 "Bip01 L Forearm"  11
 13 "Bip01 L Hand"  12
 14 "Bip01 L Finger0"  13
 15 "Bip01 L Finger01"  14
 16 "Dummy06"  15
 17 "Bip01 L Finger1"  13
 18 "Bip01 L Finger11"  17
 19 "Dummy03"  18
 20 "-- L knuckle"  17
 21 "-- L knuckle_end"  20
 22 "-- L Forearm twist"  12
 23 "-- L Forearm twist_end"  22
 24 "-- L wrist"  12
 25 "-- L wrist_end"  24
 26 "-- L Elbow"  11
 27 "--L Elbow_end"  26
 28 "-- L bicep twist"  11
 29 "-- L bicep twist_end"  28
 30 "-- L shoulder outside"  10
 31 "-- L shoulder outside_end"  30
 32 "-- L Shoulder inside"  10
 33 "-- L Shoulder inside_end"  32
 34 "Bip01 R Clavicle"   7
 35 "Bip01 R UpperArm"  34
 36 "Bip01 R Forearm"  35
 37 "Bip01 R Hand"  36
 38 "Bip01 R Finger0"  37
 39 "Bip01 R Finger01"  38
 40 "Dummy01"  39
 41 "Bip01 R Finger1"  37
 42 "Bip01 R Finger11"  41
 43 "Dummy02"  42
 44 "-- R knuckle"  41
 45 "Point06"  44
 46 "Line06"  37
 47 "-- R wrist"  36
 48 "-- R wrist_end"  47
 49 "-- R forearm twist"  36
 50 "-- R forearm twist_end"  49
 51 "-- R Elbow"  35
 52 "--R Elbow_end"  51
 53 "-- R bicep twist"  35
 54 "-- R bicep twist_end"  53
 55 "-- R Shoulder inside"  34
 56 "-- R Shoulder inside_end"  55
 57 "-- R shoulder outside"  34
 58 "-- R shoulder outside_end"  57
 59 "-- Neck smooth"   6
 60 "-- neck smooth end"  59
 61 "-- R Butt"   2
 62 "--R Butt_end"  61
 63 "-- L butt"   2
 64 "--L butt_end"  63
 65 "GIGN01"   2
 66 "Bip01 L Thigh"   2
 67 "Bip01 L Calf"  66
 68 "Bip01 L Foot"  67
 69 "Bip01 L Toe0"  68
 70 "Dummy16"  69
 71 "-- L ankle"  67
 72 "-- L ankleend"  71
 73 "-- L Knee"  66
 74 "--L Knee_end"  73
 75 "Bip01 R Thigh"   2
 76 "Bip01 R Calf"  75
 77 "Bip01 R Foot"  76
 78 "Bip01 R Toe0"  77
 79 "Dummy11"  78
 80 "-- R Ankle"  76
 81 "-- R ankleend"  80
 82 "-- R Knee"  75
 83 "--R Knee_end"  82
end
skeleton
time 0
  0 0.500000 13.522099 26.931471 -0.243067 0.535714 -2.432935
  1 13.773751 5.584523 -22.520975 -0.544290 0.221328 2.303921
  2 -2.276934 0.000003 -1.238185 -1.570795 -1.570451 0.000000
  3 1.796534 0.711905 0.000577 -0.182200 0.234757 -0.233567
  4 4.119826 -0.001940 -0.002343 0.811834 -0.176189 0.380713
  5 4.119437 -0.002373 0.002109 -0.698766 0.044441 0.300100
  6 4.119720 -0.002193 0.002166 -0.868217 0.524624 -0.062731
  7 4.118110 -0.003028 -0.001763 0.565659 0.375580 0.067925
  8 4.443599 -0.000001 -0.000000 -0.012888 0.346994 0.480746
  9 9.024061 -0.000003 -0.000000 0.000000 0.000000 0.000000
 10 -0.635581 0.867490 1.360861 1.089269 -0.847869 2.057209
 11 6.384775 0.000000 0.000003 -0.425557 0.481276 -0.855158
 12 10.242684 -0.000000 -0.000001 0.000000 0.000000 -1.887881
 13 11.375561 0.000002 -0.000001 2.207870 -0.084057 0.498527
 14 0.728679 0.023431 -1.008293 1.904886 0.430326 -0.114681
 15 2.136498 0.000000 0.000002 0.000000 0.000000 -0.078540
 16 2.313139 0.000000 -0.000002 0.000000 0.000000 0.000000
 17 3.115506 -0.886041 -0.021431 0.379611 -0.276034 0.106576
 18 2.011150 -0.000001 -0.000000 -0.000000 0.000000 1.322792
 19 2.141379 -0.000001 -0.000000 0.000000 0.000000 0.000000
 20 1.734171 0.000001 0.000000 -0.000000 -0.000000 0.660693
 21 0.000004 -4.440594 0.000000 1.570544 -0.062990 -0.195737
 22 5.999999 0.000001 -0.000001 2.461270 0.000000 -0.000000
 23 0.000001 -4.440601 -0.000001 1.569944 -0.062987 0.004053
 24 11.375561 0.000000 0.000003 -2.810438 -0.310374 0.222798
 25 -0.000000 -4.440605 0.000000 1.570144 -0.062988 0.004040
 26 10.510133 -0.000001 -0.000001 -0.000000 0.000000 -2.514737
 27 0.000002 -1.748401 4.999999 0.000000 0.004007 1.602291
 28 5.500001 -0.000000 -0.000001 0.095796 -0.000000 0.000000
 29 -0.000003 -1.940598 5.000000 -0.044472 0.004003 -0.000180
 30 6.551492 -0.000002 -0.000000 -0.209569 0.337462 -0.551115
 31 0.000001 -1.940599 5.000001 -0.027189 -0.053376 0.005295
 32 6.551492 -0.000002 -0.000000 -0.075707 0.176351 -0.252272
 33 0.000002 -1.940599 4.999995 -0.066572 -0.152786 -0.110311
 34 0.635586 -0.860415 -1.360861 2.133243 0.356012 -0.857353
 35 6.384777 0.000001 -0.000001 0.209719 -0.612300 -1.444987
 36 10.242682 -0.000002 0.000000 0.000000 -0.000000 -2.333446
 37 11.375561 0.000001 0.000000 3.035722 0.522112 0.915733
 38 0.728680 0.023431 1.008295 -1.579583 -0.319038 0.212973
 39 2.136496 -0.000003 0.000001 0.000000 0.000000 1.282817
 40 2.313137 -0.000000 0.000001 0.000000 0.000000 3.141593
 41 3.115506 -0.886041 0.021433 0.420766 0.316066 0.167178
 42 2.011150 0.000000 0.000000 -0.000000 0.000000 2.082010
 43 2.141379 -0.000001 -0.000000 0.000000 0.000000 3.141593
 44 1.734174 -0.000002 -0.000001 -0.000000 -0.000000 1.041748
 45 0.136315 -3.738191 2.525890 1.493698 2.759406 -1.474501
 46 -2.193618 0.798257 4.032641 1.563844 0.186374 -0.074848
 47 11.389368 -0.000818 0.158782 2.204286 0.420911 0.316278
 48 0.000001 -4.440599 -0.000002 1.570144 -3.078602 0.004040
 49 6.000000 -0.000001 -0.000000 2.204286 0.000000 -0.000000
 50 0.000003 -4.440602 -0.000004 1.569944 -3.078603 0.004053
 51 10.510131 -0.000001 0.000001 -0.000000 0.000000 -2.737519
 52 0.000002 -1.748396 -4.999999 -3.141593 0.004007 -1.539299
 53 5.500000 0.000001 -0.000001 0.019994 -0.000000 -0.000000
 54 -0.000001 -0.000000 -4.999999 -0.044472 3.137589 -0.000177
 55 6.551492 0.000001 -0.000000 -0.019994 -0.236627 -0.357870
 56 -1.266842 -1.937443 -4.950560 -0.066572 -2.988806 -0.110308
 57 6.551492 0.000001 -0.000000 -0.019994 -0.236627 -0.357870
 58 0.699371 -1.944210 -5.006846 -0.027189 -3.088217 0.005298
 59 4.226145 -0.003202 0.000001 0.306795 0.225454 0.009943
 60 -0.000001 5.000001 -0.000001 -0.153564 0.000087 2.718702
 61 0.000006 -0.000004 -3.713579 0.119535 -2.936655 -0.885276
 62 0.000003 0.000000 5.000000 3.053195 1.558589 -0.074929
 63 -0.000005 0.000006 3.713580 -0.311487 -2.845558 -0.582080
 64 0.000001 0.000000 -5.000000 -0.088726 1.558589 3.066335
 65 7.363603 1.646648 0.495664 -3.141593 -1.570796 0.000000
 66 -0.000005 0.000007 3.619082 -0.441735 -2.434423 -1.159240
 67 16.573917 -0.000000 0.000001 -0.000000 -0.000000 -2.011748
 68 15.128181 0.000000 -0.000000 0.026832 0.026147 -0.175154
 69 5.758666 4.244731 0.000000 0.000000 -0.000000 2.033309
 70 3.177727 0.000000 0.000000 0.000000 0.000000 3.141593
 71 15.708951 0.000002 -0.000000 0.013957 0.013894 -0.093781
 72 0.275148 0.189215 -3.445208 3.130898 0.000409 -1.514604
 73 17.210192 -0.000001 0.000002 -0.000000 0.000000 -2.319003
 74 0.000000 -0.000001 -5.000000 -0.079433 1.546568 -1.570857
 75 0.000007 -0.000003 -3.619079 0.260448 -2.945758 -1.468642
 76 16.573919 -0.000000 0.000001 0.000000 0.000000 -1.562392
 77 15.128181 0.000000 0.000001 0.265624 -0.173430 0.666428
 78 5.758665 4.244731 0.000000 -0.000000 0.000000 1.483530
 79 4.003934 -0.000000 0.000000 0.000000 0.000000 0.000000
 80 15.708953 0.000000 0.000000 0.195074 -0.100553 0.460486
 81 0.273998 0.191090 3.439762 -3.130907 -0.000437 -1.508107
 82 17.210194 -0.000000 0.000000 -0.000000 0.000000 -2.116793
 83 0.000000 0.000000 5.000000 -0.079311 1.595025 -1.570737
time 1
  0 0.500000 13.522099 26.931471 -0.243067 0.535714 -2.432935
  1 13.773751 5.584523 -22.520975 -0.544290 0.221328 2.303921
  2 -2.276934 0.000003 -1.238185 -1.570795 -1.570451 0.000000
  3 1.796541 0.711900 0.000553 -0.174642 0.236859 -0.229650
  4 4.119828 -0.001923 -0.002359 0.818873 -0.179423 0.379809
  5 4.119437 -0.002387 0.002090 -0.691362 0.042516 0.300835
  6 4.119723 -0.002209 0.002149 -0.859435 0.525455 -0.057936
  7 4.118245 -0.003046 -0.001763 0.572680 0.404507 0.131564
  8 4.443598 0.000000 -0.000001 -0.047388 0.304205 0.384888
  9 9.024060 0.000003 -0.000000 0.000000 0.000000 0.000000
 10 -0.681938 0.866696 1.338744 1.003029 -0.835959 2.087550
 11 6.384778 -0.000001 -0.000001 -0.439661 0.449804 -0.892929
 12 10.242682 -0.000000 -0.000000 0.000000 0.000000 -1.826931
 13 11.375562 0.000001 0.000001 2.209219 -0.067448 0.457513
 14 0.728680 0.023432 -1.008294 1.904886 0.430326 -0.114681
 15 2.136497 0.000000 0.000001 0.000000 -0.000000 -0.078540
 16 2.313139 0.000000 0.000002 0.000000 0.000000 0.000000
 17 3.115506 -0.886041 -0.021431 0.379611 -0.276034 0.106576
 18 2.011150 -0.000001 0.000000 -0.000000 -0.000000 1.322792
 19 2.141382 0.000002 0.000001 0.000000 0.000000 0.000000
 20 1.734172 0.000001 0.000000 -0.000000 -0.000000 0.660693
 21 0.000005 -4.440594 -0.000000 1.570544 -0.062990 -0.195737
 22 6.000000 0.000000 0.000001 2.463239 -0.000000 -0.000000
 23 0.000001 -4.440600 -0.000000 1.569944 -0.062987 0.004053
 24 11.375560 0.000001 0.000003 -2.813145 -0.287341 0.211368
 25 -0.000001 -4.440603 0.000000 1.570144 -0.062988 0.004040
 26 10.510131 -0.000000 -0.000000 0.000000 0.000000 -2.484262
 27 -0.000001 -1.748400 4.999999 0.000000 0.004007 1.602291
 28 5.500000 -0.000000 0.000001 0.102639 -0.000000 -0.000000
 29 -0.000002 -1.940598 5.000000 -0.044472 0.004003 -0.000180
 30 6.551492 0.000000 -0.000000 -0.220671 0.322296 -0.566297
 31 -0.000000 -1.940599 5.000002 -0.027189 -0.053376 0.005295
 32 6.551492 0.000000 -0.000000 -0.081455 0.170007 -0.259402
 33 0.000001 -1.940600 4.999995 -0.066572 -0.152786 -0.110311
 34 0.681941 -0.859620 -1.338744 2.181837 0.357459 -0.901711
 35 6.384776 -0.000001 0.000000 0.214433 -0.611855 -1.443712
 36 10.242682 0.000001 0.000000 0.000000 -0.000000 -2.303333
 37 11.375560 -0.000002 -0.000000 3.035720 0.519947 0.915996
 38 0.728680 0.023431 1.008293 -1.579583 -0.319038 0.212973
 39 2.136496 0.000003 -0.000001 0.000000 0.000000 1.282817
 40 2.313140 -0.000000 -0.000000 0.000000 0.000000 3.141593
 41 3.115507 -0.886041 0.021430 0.420766 0.316066 0.167178
 42 2.011149 0.000001 -0.000000 0.000000 0.000000 2.082010
 43 2.141378 -0.000001 -0.000000 0.000000 0.000000 3.141593
 44 1.734171 -0.000000 0.000000 0.000000 0.000000 1.041748
 45 0.136314 -3.738193 2.525890 1.493698 2.759406 -1.474501
 46 -2.193620 0.798257 4.032641 1.563844 0.186374 -0.074848
 47 11.389366 -0.000821 0.158781 2.204807 0.420021 0.317047
 48 -0.000000 -4.440599 -0.000000 1.570144 -3.078602 0.004040
 49 5.999999 -0.000001 -0.000000 2.204807 0.000000 0.000000
 50 0.000001 -4.440601 -0.000001 1.569944 -3.078603 0.004053
 51 10.510130 0.000001 0.000001 -0.000000 0.000000 -2.722463
 52 -0.000001 -1.748398 -5.000000 -3.141593 0.004007 -1.539299
 53 5.500000 -0.000000 0.000001 0.018742 0.000000 0.000000
 54 -0.000000 -0.000001 -5.000000 -0.044472 3.137589 -0.000177
 55 6.551490 -0.000001 0.000000 -0.018742 -0.237247 -0.357226
 56 -1.266846 -1.937445 -4.950560 -0.066572 -2.988806 -0.110308
 57 6.551490 -0.000001 0.000000 -0.018742 -0.237247 -0.357226
 58 0.699370 -1.944208 -5.006847 -0.027189 -3.088217 0.005298
 59 4.226145 -0.003199 0.000000 0.307449 0.245208 0.044863
 60 -0.000001 5.000002 0.000000 -0.153564 0.000087 2.718702
 61 0.000006 -0.000004 -3.713579 0.119535 -2.936655 -0.885276
 62 0.000003 0.000000 5.000000 3.053195 1.558589 -0.074929
 63 -0.000005 0.000006 3.713580 -0.311487 -2.845558 -0.582080
 64 0.000001 0.000000 -5.000000 -0.088726 1.558589 3.066335
 65 7.363603 1.646648 0.495664 -3.141593 -1.570796 0.000000
 66 -0.000005 0.000007 3.619082 -0.441735 -2.434423 -1.159240
 67 16.573917 -0.000000 0.000001 -0.000000 -0.000000 -2.011748
 68 15.128181 0.000000 -0.000000 0.026832 0.026147 -0.175154
 69 5.758666 4.244731 0.000000 0.000000 -0.000000 2.033309
 70 3.177727 0.000000 0.000000 0.000000 0.000000 3.141593
 71 15.708951 0.000002 -0.000000 0.013957 0.013894 -0.093781
 72 0.275148 0.189215 -3.445208 3.130898 0.000409 -1.514604
 73 17.210192 -0.000001 0.000002 -0.000000 0.000000 -2.319003
 74 0.000000 -0.000001 -5.000000 -0.079433 1.546568 -1.570857
 75 0.000007 -0.000003 -3.619079 0.260448 -2.945758 -1.468642
 76 16.573919 -0.000000 0.000001 0.000000 0.000000 -1.562392
 77 15.128181 0.000000 0.000001 0.265624 -0.173430 0.666428
 78 5.758665 4.244731 0.000000 -0.000000 0.000000 1.483530
 79 4.003934 -0.000000 0.000000 0.000000 0.000000 0.000000
 80 15.708953 0.000000 0.000000 0.195074 -0.100553 0.460486
 81 0.273998 0.191090 3.439762 -3.130907 -0.000437 -1.508107
 82 17.210194 -0.000000 0.000000 -0.000000 0.000000 -2.116793
 83 0.000000 0.000000 5.000000 -0.079311 1.595025 -1.570737
time 2
  0 0.500000 13.522099 26.931471 -0.243067 0.535714 -2.432935
  1 13.773751 5.584523 -22.520975 -0.544290 0.221328 2.303921
  2 -2.276934 0.000003 -1.238185 -1.570795 -1.570451 0.000000
  3 1.796546 0.711895 0.000529 -0.167073 0.238932 -0.225714
  4 4.119834 -0.001906 -0.002372 0.825920 -0.182651 0.378882
  5 4.119434 -0.002399 0.002069 -0.683961 0.040585 0.301556
  6 4.119726 -0.002229 0.002131 -0.850645 0.526249 -0.053130
  7 4.118381 -0.003060 -0.001764 0.581810 0.432995 0.196267
  8 4.443597 0.000000 -0.000001 -0.073919 0.258911 0.291333
  9 9.024061 -0.000001 0.000000 0.000000 0.000000 0.000000
 10 -0.727035 0.867854 1.314039 0.918494 -0.822352 2.115897
 11 6.384778 -0.000001 0.000001 -0.452370 0.417242 -0.931107
 12 10.242683 -0.000001 -0.000000 0.000000 0.000000 -1.763868
 13 11.375560 -0.000000 0.000000 2.210121 -0.050882 0.415515
 14 0.728681 0.023431 -1.008291 1.904886 0.430326 -0.114681
 15 2.136497 0.000000 -0.000000 0.000000 -0.000000 -0.078540
 16 2.313139 0.000001 0.000000 0.000000 0.000000 0.000000
 17 3.115507 -0.886041 -0.021430 0.379611 -0.276034 0.106576
 18 2.011152 0.000000 0.000000 0.000000 0.000000 1.322792
 19 2.141379 0.000001 -0.000000 0.000000 0.000000 0.000000
 20 1.734173 -0.000000 -0.000000 0.000000 0.000000 0.660693
 21 0.000005 -4.440595 0.000000 1.570544 -0.062990 -0.195737
 22 6.000000 0.000000 0.000000 2.465088 -0.000000 -0.000000
 23 0.000002 -4.440601 -0.000000 1.569944 -0.062987 0.004053
 24 11.375562 0.000001 0.000003 -2.815656 -0.262619 0.199299
 25 -0.000001 -4.440603 0.000001 1.570144 -0.062988 0.004040
 26 10.510131 -0.000001 -0.000001 0.000000 0.000000 -2.452730
 27 0.000001 -1.748401 4.999999 0.000000 0.004007 1.602291
 28 5.500001 -0.000000 -0.000001 0.109549 -0.000000 -0.000000
 29 -0.000002 -1.940598 5.000001 -0.044472 0.004003 -0.000180
 30 6.551491 -0.000000 0.000001 -0.231841 0.307071 -0.581673
 31 -0.000000 -1.940599 5.000001 -0.027189 -0.053376 0.005295
 32 6.551491 -0.000000 0.000001 -0.087258 0.163677 -0.266590
 33 0.000001 -1.940600 4.999995 -0.066572 -0.152786 -0.110311
 34 0.727033 -0.860774 -1.314041 2.231737 0.362679 -0.944207
 35 6.384780 0.000001 -0.000001 0.219341 -0.610137 -1.442077
 36 10.242683 -0.000001 0.000002 -0.000000 0.000000 -2.273220
 37 11.375561 0.000001 -0.000001 3.035717 0.517781 0.916260
 38 0.728681 0.023431 1.008292 -1.579583 -0.319038 0.212973
 39 2.136496 -0.000000 0.000001 0.000000 -0.000000 1.282817
 40 2.313142 0.000000 -0.000001 0.000000 0.000000 3.141593
 41 3.115506 -0.886041 0.021433 0.420766 0.316066 0.167178
 42 2.011152 -0.000001 -0.000001 0.000000 0.000000 2.082010
 43 2.141381 0.000001 0.000002 0.000000 0.000000 3.141593
 44 1.734172 -0.000001 -0.000001 -0.000000 -0.000000 1.041748
 45 0.136315 -3.738193 2.525891 1.493698 2.759406 -1.474501
 46 -2.193620 0.798258 4.032641 1.563844 0.186374 -0.074848
 47 11.389366 -0.000817 0.158781 2.205327 0.419131 0.317816
 48 0.000001 -4.440599 -0.000000 1.570144 -3.078602 0.004040
 49 5.999999 -0.000000 -0.000002 2.205328 0.000000 -0.000000
 50 0.000002 -4.440602 -0.000003 1.569944 -3.078603 0.004053
 51 10.510131 0.000001 0.000001 0.000000 -0.000000 -2.707406
 52 -0.000000 -1.748399 -5.000001 -3.141593 0.004007 -1.539299
 53 5.499999 0.000001 0.000001 0.017256 0.000000 -0.000000
 54 -0.000000 -0.000003 -5.000000 -0.044472 3.137589 -0.000177
 55 6.551493 0.000001 -0.000001 -0.017256 -0.237536 -0.356603
 56 -1.266846 -1.937443 -4.950560 -0.066572 -2.988806 -0.110308
 57 6.551493 0.000001 -0.000000 -0.017256 -0.237536 -0.356603
 58 0.699369 -1.944209 -5.006847 -0.027189 -3.088217 0.005298
 59 4.226146 -0.003202 0.000000 0.308429 0.264184 0.079374
 60 -0.000000 5.000002 0.000000 -0.153564 0.000087 2.718702
 61 0.000006 -0.000004 -3.713579 0.119535 -2.936655 -0.885276
 62 0.000003 0.000000 5.000000 3.053195 1.558589 -0.074929
 63 -0.000005 0.000006 3.713580 -0.311487 -2.845558 -0.582080
 64 0.000001 0.000000 -5.000000 -0.088726 1.558589 3.066335
 65 7.363603 1.646648 0.495664 -3.141593 -1.570796 0.000000
 66 -0.000005 0.000007 3.619082 -0.441735 -2.434423 -1.159240
 67 16.573917 -0.000000 0.000001 -0.000000 -0.000000 -2.011748
 68 15.128181 0.000000 -0.000000 0.026832 0.026147 -0.175154
 69 5.758666 4.244731 0.000000 0.000000 -0.000000 2.033309
 70 3.177727 0.000000 0.000000 0.000000 0.000000 3.141593
 71 15.708951 0.000002 -0.000000 0.013957 0.013894 -0.093781
 72 0.275148 0.189215 -3.445208 3.130898 0.000409 -1.514604
 73 17.210192 -0.000001 0.000002 -0.000000 0.000000 -2.319003
 74 0.000000 -0.000001 -5.000000 -0.079433 1.546568 -1.570857
 75 0.000007 -0.000003 -3.619079 0.260448 -2.945758 -1.468642
 76 16.573919 -0.000000 0.000001 0.000000 0.000000 -1.562392
 77 15.128181 0.000000 0.000001 0.265624 -0.173430 0.666428
 78 5.758665 4.244731 0.000000 -0.000000 0.000000 1.483530
 79 4.003934 -0.000000 0.000000 0.000000 0.000000 0.000000
 80 15.708953 0.000000 0.000000 0.195074 -0.100553 0.460486
 81 0.273998 0.191090 3.439762 -3.130907 -0.000437 -1.508107
 82 17.210194 -0.000000 0.000000 -0.000000 0.000000 -2.116793
 83 0.000000 0.000000 5.000000 -0.079311 1.595025 -1.570737
time 3
  0 0.500000 13.522099 26.931471 -0.243067 0.535714 -2.432935
  1 13.773751 5.584523 -22.520975 -0.544290 0.221328 2.303921
  2 -2.276934 0.000003 -1.238185 -1.570795 -1.570451 0.000000
  3 1.796552 0.711890 0.000505 -0.159491 0.240976 -0.221760
  4 4.119838 -0.001886 -0.002384 0.832975 -0.185872 0.377931
  5 4.119436 -0.002415 0.002050 -0.676561 0.038649 0.302262
  6 4.119725 -0.002243 0.002115 -0.841847 0.527007 -0.048314
  7 4.118513 -0.003060 -0.001770 0.593110 0.460912 0.262162
  8 4.443599 -0.000000 0.000000 -0.092586 0.212056 0.199595
  9 9.024061 -0.000000 0.000001 0.000000 0.000000 0.000000
 10 -0.770652 0.870958 1.286853 0.835778 -0.807171 2.142092
 11 6.384778 0.000000 -0.000002 -0.463639 0.383624 -0.969830
 12 10.242682 -0.000001 -0.000000 0.000000 -0.000000 -1.698523
 13 11.375559 0.000002 0.000000 2.210605 -0.034380 0.372433
 14 0.728681 0.023432 -1.008292 1.904886 0.430326 -0.114681
 15 2.136498 -0.000000 0.000001 -0.000000 0.000000 -0.078540
 16 2.313139 -0.000000 0.000001 0.000000 0.000000 0.000000
 17 3.115506 -0.886042 -0.021432 0.379611 -0.276034 0.106576
 18 2.011150 -0.000001 -0.000001 0.000000 -0.000000 1.322792
 19 2.141380 -0.000000 0.000001 0.000000 0.000000 0.000000
 20 1.734171 0.000002 0.000001 0.000000 0.000000 0.660693
 21 0.000006 -4.440594 0.000001 1.570544 -0.062990 -0.195737
 22 5.999999 0.000000 -0.000000 2.466801 0.000000 -0.000000
 23 0.000002 -4.440601 -0.000000 1.569944 -0.062987 0.004053
 24 11.375560 0.000000 0.000003 -2.817934 -0.235940 0.186517
 25 -0.000002 -4.440605 0.000002 1.570144 -0.062988 0.004040
 26 10.510131 -0.000000 -0.000001 0.000000 -0.000000 -2.420058
 27 0.000001 -1.748400 4.999999 -0.000000 0.004007 1.602291
 28 5.500000 0.000000 -0.000000 0.116576 0.000000 0.000000
 29 -0.000002 -1.940599 5.000001 -0.044472 0.004003 -0.000180
 30 6.551492 0.000001 -0.000001 -0.243192 0.291777 -0.597444
 31 0.000001 -1.940599 5.000000 -0.027189 -0.053376 0.005295
 32 6.551492 0.000001 -0.000001 -0.093154 0.157369 -0.273910
 33 -0.000001 -1.940599 4.999997 -0.066572 -0.152786 -0.110311
 34 0.770657 -0.863885 -1.286852 2.282819 0.371562 -0.984578
 35 6.384778 0.000000 -0.000000 0.224405 -0.607117 -1.440128
 36 10.242683 -0.000001 0.000001 0.000000 0.000000 -2.243107
 37 11.375561 -0.000000 -0.000001 3.035714 0.515616 0.916522
 38 0.728681 0.023431 1.008292 -1.579583 -0.319038 0.212973
 39 2.136496 0.000001 -0.000000 0.000000 -0.000000 1.282817
 40 2.313140 -0.000001 -0.000000 0.000000 0.000000 3.141593
 41 3.115507 -0.886041 0.021431 0.420765 0.316066 0.167178
 42 2.011150 0.000001 -0.000000 0.000000 0.000000 2.082010
 43 2.141380 0.000001 0.000000 0.000000 0.000000 3.141593
 44 1.734171 -0.000000 0.000000 0.000000 0.000000 1.041748
 45 0.136316 -3.738193 2.525890 1.493698 2.759406 -1.474501
 46 -2.193618 0.798258 4.032641 1.563844 0.186374 -0.074848
 47 11.389366 -0.000817 0.158780 2.205846 0.418240 0.318584
 48 0.000001 -4.440599 -0.000002 1.570144 -3.078602 0.004040
 49 5.999999 -0.000000 -0.000002 2.205846 0.000000 0.000000
 50 0.000001 -4.440600 -0.000002 1.569944 -3.078603 0.004053
 51 10.510131 0.000001 0.000000 -0.000000 -0.000000 -2.692350
 52 -0.000001 -1.748399 -5.000001 -3.141593 0.004007 -1.539299
 53 5.499999 -0.000000 0.000001 0.015541 0.000000 -0.000000
 54 -0.000000 -0.000000 -5.000000 -0.044472 3.137589 -0.000177
 55 6.551491 0.000000 0.000001 -0.015541 -0.237478 -0.356025
 56 -1.266843 -1.937445 -4.950559 -0.066572 -2.988806 -0.110308
 57 6.551491 0.000000 0.000001 -0.015541 -0.237478 -0.356025
 58 0.699371 -1.944211 -5.006845 -0.027189 -3.088217 0.005298
 59 4.226145 -0.003201 0.000001 0.309637 0.282463 0.113392
 60 -0.000001 5.000000 -0.000000 -0.153564 0.000087 2.718702
 61 0.000006 -0.000004 -3.713579 0.119535 -2.936655 -0.885276
 62 0.000003 0.000000 5.000000 3.053195 1.558589 -0.074929
 63 -0.000005 0.000006 3.713580 -0.311487 -2.845558 -0.582080
 64 0.000001 0.000000 -5.000000 -0.088726 1.558589 3.066335
 65 7.363603 1.646648 0.495664 -3.141593 -1.570796 0.000000
 66 -0.000005 0.000007 3.619082 -0.441735 -2.434423 -1.159240
 67 16.573917 -0.000000 0.000001 -0.000000 -0.000000 -2.011748
 68 15.128181 0.000000 -0.000000 0.026832 0.026147 -0.175154
 69 5.758666 4.244731 0.000000 0.000000 -0.000000 2.033309
 70 3.177727 0.000000 0.000000 0.000000 0.000000 3.141593
 71 15.708951 0.000002 -0.000000 0.013957 0.013894 -0.093781
 72 0.275148 0.189215 -3.445208 3.130898 0.000409 -1.514604
 73 17.210192 -0.000001 0.000002 -0.000000 0.000000 -2.319003
 74 0.000000 -0.000001 -5.000000 -0.079433 1.546568 -1.570857
 75 0.000007 -0.000003 -3.619079 0.260448 -2.945758 -1.468642
 76 16.573919 -0.000000 0.000001 0.000000 0.000000 -1.562392
 77 15.128181 0.000000 0.000001 0.265624 -0.173430 0.666428
 78 5.758665 4.244731 0.000000 -0.000000 0.000000 1.483530
 79 4.003934 -0.000000 0.000000 0.000000 0.000000 0.000000
 80 15.708953 0.000000 0.000000 0.195074 -0.100553 0.460486
 81 0.273998 0.191090 3.439762 -3.130907 -0.000437 -1.508107
 82 17.210194 -0.000000 0.000000 -0.000000 0.000000 -2.116793
 83 0.000000 0.000000 5.000000 -0.079311 1.595025 -1.570737
time 4
  0 0.500000 13.522099 26.931471 -0.243067 0.535714 -2.432935
  1 13.773751 5.584523 -22.520975 -0.544290 0.221328 2.303921
  2 -2.276934 0.000003 -1.238185 -1.570795 -1.570451 0.000000
  3 1.796561 0.711884 0.000481 -0.151897 0.242991 -0.217788
  4 4.119835 -0.001868 -0.002400 0.840036 -0.189086 0.376956
  5 4.119442 -0.002431 0.002033 -0.669164 0.036708 0.302954
  6 4.119726 -0.002254 0.002097 -0.833040 0.527729 -0.043488
  7 4.118648 -0.003058 -0.001782 0.606642 0.488124 0.329377
  8 4.443599 0.000001 -0.000000 -0.103552 0.164555 0.109124
  9 9.024058 0.000001 0.000001 0.000000 0.000000 0.000000
 10 -0.812594 0.876012 1.257298 0.754946 -0.790550 2.166027
 11 6.384777 -0.000000 0.000000 -0.473423 0.348974 -1.009258
 12 10.242682 -0.000000 -0.000000 0.000000 0.000000 -1.630692
 13 11.375561 0.000002 -0.000000 2.210698 -0.017958 0.328158
 14 0.728681 0.023432 -1.008292 1.904886 0.430326 -0.114681
 15 2.136498 0.000001 0.000000 0.000000 0.000000 -0.078540
 16 2.313138 -0.000000 0.000001 0.000000 0.000000 0.000000
 17 3.115508 -0.886042 -0.021432 0.379611 -0.276034 0.106576
 18 2.011150 -0.000000 -0.000000 -0.000000 0.000000 1.322792
 19 2.141381 0.000000 0.000001 0.000000 0.000000 0.000000
 20 1.734172 0.000001 -0.000000 -0.000000 -0.000000 0.660693
 21 0.000004 -4.440594 0.000000 1.570544 -0.062990 -0.195737
 22 6.000000 0.000000 -0.000000 2.468342 -0.000000 0.000000
 23 0.000002 -4.440600 -0.000001 1.569944 -0.062987 0.004053
 24 11.375561 0.000001 0.000003 -2.819936 -0.207017 0.172940
 25 -0.000001 -4.440603 -0.000000 1.570144 -0.062988 0.004040
 26 10.510131 -0.000000 -0.000001 -0.000000 -0.000000 -2.386142
 27 -0.000000 -1.748400 5.000000 -0.000000 0.004007 1.602290
 28 5.499999 -0.000000 -0.000000 0.123785 -0.000000 -0.000000
 29 -0.000003 -1.940598 5.000001 -0.044472 0.004003 -0.000180
 30 6.551491 0.000001 0.000001 -0.254860 0.276381 -0.613858
 31 -0.000000 -1.940599 5.000001 -0.027189 -0.053376 0.005295
 32 6.551491 0.000001 0.000001 -0.099193 0.151086 -0.281453
 33 -0.000001 -1.940599 4.999996 -0.066572 -0.152786 -0.110311
 34 0.812597 -0.868936 -1.257298 2.334993 0.383964 -1.022552
 35 6.384778 0.000000 0.000000 0.229583 -0.602770 -1.437916
 36 10.242682 0.000000 -0.000000 -0.000000 -0.000000 -2.212994
 37 11.375562 -0.000001 -0.000001 3.035709 0.513450 0.916785
 38 0.728680 0.023431 1.008293 -1.579583 -0.319038 0.212973
 39 2.136497 0.000002 -0.000001 0.000000 -0.000000 1.282817
 40 2.313137 -0.000001 0.000000 0.000000 0.000000 3.141593
 41 3.115506 -0.886041 0.021431 0.420766 0.316066 0.167178
 42 2.011149 0.000001 0.000002 -0.000000 0.000000 2.082010
 43 2.141378 -0.000000 -0.000000 0.000000 0.000000 3.141593
 44 1.734172 -0.000001 0.000001 -0.000000 0.000000 1.041748
 45 0.136315 -3.738193 2.525890 1.493698 2.759406 -1.474501
 46 -2.193617 0.798257 4.032638 1.563844 0.186374 -0.074848
 47 11.389368 -0.000819 0.158781 2.206363 0.417348 0.319351
 48 0.000000 -4.440598 -0.000002 1.570144 -3.078602 0.004040
 49 6.000000 0.000001 -0.000001 2.206363 0.000000 0.000000
 50 0.000002 -4.440601 -0.000001 1.569944 -3.078603 0.004053
 51 10.510132 -0.000002 0.000001 -0.000000 0.000000 -2.677293
 52 0.000001 -1.748401 -5.000000 -3.141593 0.004007 -1.539299
 53 5.499999 0.000001 -0.000001 0.013599 -0.000000 0.000000
 54 0.000000 -0.000000 -5.000000 -0.044472 3.137589 -0.000177
 55 6.551491 0.000000 0.000001 -0.013599 -0.237059 -0.355515
 56 -1.266842 -1.937443 -4.950561 -0.066572 -2.988806 -0.110308
 57 6.551491 -0.000001 0.000001 -0.013599 -0.237059 -0.355515
 58 0.699370 -1.944207 -5.006847 -0.027189 -3.088217 0.005298
 59 4.226145 -0.003201 0.000000 0.310999 0.300168 0.146906
 60 -0.000000 5.000002 -0.000000 -0.153564 0.000087 2.718702
 61 0.000006 -0.000004 -3.713579 0.119535 -2.936655 -0.885276
 62 0.000003 0.000000 5.000000 3.053195 1.558589 -0.074929
 63 -0.000005 0.000006 3.713580 -0.311487 -2.845558 -0.582080
 64 0.000001 0.000000 -5.000000 -0.088726 1.558589 3.066335
 65 7.363603 1.646648 0.495664 -3.141593 -1.570796 0.000000
 66 -0.000005 0.000007 3.619082 -0.441735 -2.434423 -1.159240
 67 16.573917 -0.000000 0.000001 -0.000000 -0.000000 -2.011748
 68 15.128181 0.000000 -0.000000 0.026832 0.026147 -0.175154
 69 5.758666 4.244731 0.000000 0.000000 -0.000000 2.033309
 70 3.177727 0.000000 0.000000 0.000000 0.000000 3.141593
 71 15.708951 0.000002 -0.000000 0.013957 0.013894 -0.093781
 72 0.275148 0.189215 -3.445208 3.130898 0.000409 -1.514604
 73 17.210192 -0.000001 0.000002 -0.000000 0.000000 -2.319003
 74 0.000000 -0.000001 -5.000000 -0.079433 1.546568 -1.570857
 75 0.000007 -0.000003 -3.619079 0.260448 -2.945758 -1.468642
 76 16.573919 -0.000000 0.000001 0.000000 0.000000 -1.562392
 77 15.128181 0.000000 0.000001 0.265624 -0.173430 0.666428
 78 5.758665 4.244731 0.000000 -0.000000 0.000000 1.483530
 79 4.003934 -0.000000 0.000000 0.000000 0.000000 0.000000
 80 15.708953 0.000000 0.000000 0.195074 -0.100553 0.460486
 81 0.273998 0.191090 3.439762 -3.130907 -0.000437 -1.508107
 82 17.210194 -0.000000 0.000000 -0.000000 0.000000 -2.116793
 83 0.000000 0.000000 5.000000 -0.079311 1.595025 -1.570737
end
