version 1
nodes
  0 "Bip01"  -1
  1 "Bip01 Footsteps"   0
  2 "Bip01 Pelvis"   0
  3 "Bip01 Spine"   2
  4 "Bip01 Spine1"   3
  5 "Bip01 Spine2"   4
  6 "Bip01 Spine3"   5
  7 "Bip01 Neck"   6
  8 "Bip01 Head"   7
  9 "Dummy21"   8
 10 "Bip01 L Clavicle"   7
 11 "Bip01 L UpperArm"  10
 12 "Bip01 L Forearm"  11
 13 "Bip01 L Hand"  12
 14 "Bip01 L Finger0"  13
 15 "Bip01 L Finger01"  14
 16 "Dummy06"  15
 17 "Bip01 L Finger1"  13
 18 "Bip01 L Finger11"  17
 19 "Dummy03"  18
 20 "-- L knuckle"  17
 21 "-- L knuckle_end"  20
 22 "-- L Forearm twist"  12
 23 "-- L Forearm twist_end"  22
 24 "-- L wrist"  12
 25 "-- L wrist_end"  24
 26 "-- L Elbow"  11
 27 "--L Elbow_end"  26
 28 "-- L bicep twist"  11
 29 "-- L bicep twist_end"  28
 30 "-- L shoulder outside"  10
 31 "-- L shoulder outside_end"  30
 32 "-- L Shoulder inside"  10
 33 "-- L Shoulder inside_end"  32
 34 "Bip01 R Clavicle"   7
 35 "Bip01 R UpperArm"  34
 36 "Bip01 R Forearm"  35
 37 "Bip01 R Hand"  36
 38 "Bip01 R Finger0"  37
 39 "Bip01 R Finger01"  38
 40 "Dummy01"  39
 41 "Bip01 R Finger1"  37
 42 "Bip01 R Finger11"  41
 43 "Dummy02"  42
 44 "-- R knuckle"  41
 45 "Point06"  44
 46 "Line06"  37
 47 "-- R wrist"  36
 48 "-- R wrist_end"  47
 49 "-- R forearm twist"  36
 50 "-- R forearm twist_end"  49
 51 "-- R Elbow"  35
 52 "--R Elbow_end"  51
 53 "-- R bicep twist"  35
 54 "-- R bicep twist_end"  53
 55 "-- R Shoulder inside"  34
 56 "-- R Shoulder inside_end"  55
 57 "-- R shoulder outside"  34
 58 "-- R shoulder outside_end"  57
 59 "-- Neck smooth"   6
 60 "-- neck smooth end"  59
 61 "-- R Butt"   2
 62 "--R Butt_end"  61
 63 "-- L butt"   2
 64 "--L butt_end"  63
 65 "GIGN01"   2
 66 "Bip01 L Thigh"   2
 67 "Bip01 L Calf"  66
 68 "Bip01 L Foot"  67
 69 "Bip01 L Toe0"  68
 70 "Dummy16"  69
 71 "-- L ankle"  67
 72 "-- L ankleend"  71
 73 "-- L Knee"  66
 74 "--L Knee_end"  73
 75 "Bip01 R Thigh"   2
 76 "Bip01 R Calf"  75
 77 "Bip01 R Foot"  76
 78 "Bip01 R Toe0"  77
 79 "Dummy11"  78
 80 "-- R Ankle"  76
 81 "-- R ankleend"  80
 82 "-- R Knee"  75
 83 "--R Knee_end"  82
end
skeleton
time 0
  0 0.500000 13.522099 26.931471 -0.243067 0.535714 -2.432935
  1 13.773751 5.584523 -22.520975 -0.544290 0.221328 2.303921
  2 -2.276934 0.000003 -1.238185 -1.570795 -1.570451 0.000000
  3 1.795954 0.712085 0.000624 -0.192363 0.076299 -0.393551
  4 4.119850 -0.001994 -0.002288 0.787733 -0.180120 0.380789
  5 4.119405 -0.002282 0.002214 -0.742662 0.058581 0.284947
  6 4.119764 -0.002170 0.002168 -0.873788 0.531407 -0.052613
  7 4.116112 -0.002244 -0.001130 0.547683 0.910238 -0.388837
  8 4.443598 -0.000000 -0.000000 -0.265009 0.029858 0.089871
  9 9.024060 0.000000 -0.000000 0.000000 0.000000 0.000000
 10 -1.368240 0.557116 0.907629 1.337046 -0.668382 2.237063
 11 6.384777 -0.000001 -0.000001 -1.095507 -0.396602 -1.667928
 12 10.242682 0.000002 -0.000000 0.000000 0.000000 -1.191508
 13 11.375561 -0.000001 -0.000000 2.683300 0.779729 -0.104094
 14 0.728682 0.023432 -1.008293 2.245671 0.468840 0.478494
 15 2.136496 0.000001 -0.000001 -0.000000 0.000000 -0.078540
 16 2.313137 -0.000001 -0.000002 0.000000 0.000000 0.000000
 17 3.115507 -0.886040 -0.021431 0.121480 0.000392 0.514872
 18 2.011149 0.000000 -0.000001 0.000000 0.000000 1.322791
 19 2.141380 -0.000002 -0.000003 0.000000 0.000000 0.000000
 20 1.734171 0.000000 -0.000001 0.000000 -0.000000 0.660693
 21 0.000005 -4.440594 0.000000 1.570544 -0.062990 -0.195737
 22 6.000001 -0.000001 0.000000 3.093963 0.000000 -0.000000
 23 0.000004 -4.440600 -0.000000 1.569944 -0.062987 0.004053
 24 11.375560 -0.000000 0.000003 -2.470314 0.406760 0.230155
 25 -0.000002 -4.440603 -0.000002 1.570144 -0.062988 0.004040
 26 10.510130 -0.000000 -0.000000 0.000000 -0.000000 -2.166550
 27 0.000002 -1.748402 4.999998 0.000000 0.004007 1.602291
 28 5.499999 0.000001 -0.000000 0.395025 0.000000 -0.000000
 29 -0.000002 -1.940599 5.000000 -0.044472 0.004003 -0.000180
 30 6.551491 -0.000000 -0.000001 -0.804235 -0.201869 -1.334746
 31 -0.000000 -1.940600 5.000001 -0.027189 -0.053376 0.005295
 32 6.551491 -0.000000 -0.000001 -0.296538 0.049406 -0.459457
 33 -0.000001 -1.940599 4.999998 -0.066572 -0.152786 -0.110311
 34 1.368243 -0.550038 -0.907628 1.638602 0.686295 -1.182740
 35 6.384778 0.000000 -0.000002 0.172603 0.383753 -1.133126
 36 10.242682 -0.000001 -0.000000 0.000000 -0.000000 -2.213672
 37 11.375559 0.000001 0.000001 3.019828 0.804000 1.137624
 38 0.728681 0.023431 1.008293 -1.579583 -0.319038 0.212973
 39 2.136495 -0.000001 -0.000000 -0.000000 0.000000 1.282817
 40 2.313140 0.000000 0.000000 0.000000 0.000000 3.141593
 41 3.115506 -0.886042 0.021431 0.420766 0.316066 0.167178
 42 2.011151 -0.000000 0.000003 -0.000000 0.000000 2.082010
 43 2.141380 0.000001 -0.000002 0.000000 0.000000 3.141593
 44 1.734173 -0.000001 0.000003 0.000000 0.000000 1.041748
 45 0.136314 -3.738193 2.525889 1.493698 2.759406 -1.474501
 46 -2.193617 0.798256 4.032641 1.563844 0.186374 -0.074848
 47 11.389365 -0.000818 0.158781 2.081925 0.564026 0.318761
 48 -0.000000 -4.440598 -0.000000 1.570144 -3.078602 0.004040
 49 5.999999 0.000001 -0.000001 2.081925 0.000000 -0.000000
 50 0.000001 -4.440600 0.000001 1.569944 -3.078603 0.004053
 51 10.510130 -0.000000 0.000000 -0.000000 -0.000000 -2.677632
 52 0.000001 -1.748400 -5.000001 -3.141593 0.004007 -1.539299
 53 5.499999 -0.000000 0.000001 -0.104064 -0.000000 0.000000
 54 -0.000001 0.000000 -5.000002 -0.044472 3.137589 -0.000177
 55 6.551491 0.000000 -0.000001 0.104064 0.088768 -0.307240
 56 -1.266844 -1.937442 -4.950563 -0.066572 -2.988806 -0.110308
 57 6.551492 0.000000 -0.000002 0.104064 0.088768 -0.307240
 58 0.699370 -1.944207 -5.006849 -0.027189 -3.088217 0.005298
 59 4.226147 -0.003203 -0.000001 0.317336 0.486988 -0.262900
 60 -0.000002 5.000001 0.000000 -0.153564 0.000087 2.718702
 61 0.000006 -0.000004 -3.713579 0.119535 -2.936655 -0.885276
 62 0.000003 0.000000 5.000000 3.053195 1.558589 -0.074929
 63 -0.000005 0.000006 3.713580 -0.311487 -2.845558 -0.582080
 64 0.000001 0.000000 -5.000000 -0.088726 1.558589 3.066335
 65 7.363603 1.646648 0.495664 -3.141593 -1.570796 0.000000
 66 -0.000005 0.000007 3.619082 -0.441735 -2.434423 -1.159240
 67 16.573917 -0.000000 0.000001 -0.000000 -0.000000 -2.011748
 68 15.128181 0.000000 -0.000000 0.026832 0.026147 -0.175154
 69 5.758666 4.244731 0.000000 0.000000 -0.000000 2.033309
 70 3.177727 0.000000 0.000000 0.000000 0.000000 3.141593
 71 15.708951 0.000002 -0.000000 0.013957 0.013894 -0.093781
 72 0.275148 0.189215 -3.445208 3.130898 0.000409 -1.514604
 73 17.210192 -0.000001 0.000002 -0.000000 0.000000 -2.319003
 74 0.000000 -0.000001 -5.000000 -0.079433 1.546568 -1.570857
 75 0.000007 -0.000003 -3.619079 0.260448 -2.945758 -1.468642
 76 16.573919 -0.000000 0.000001 0.000000 0.000000 -1.562392
 77 15.128181 0.000000 0.000001 0.265624 -0.173430 0.666428
 78 5.758665 4.244731 0.000000 -0.000000 0.000000 1.483530
 79 4.003934 -0.000000 0.000000 0.000000 0.000000 0.000000
 80 15.708953 0.000000 0.000000 0.195074 -0.100553 0.460486
 81 0.273998 0.191090 3.439762 -3.130907 -0.000437 -1.508107
 82 17.210194 -0.000000 0.000000 -0.000000 0.000000 -2.116793
 83 0.000000 0.000000 5.000000 -0.079311 1.595025 -1.570737
time 1
  0 0.500000 13.522099 26.931471 -0.243067 0.535714 -2.432935
  1 13.773751 5.584523 -22.520975 -0.544290 0.221328 2.303921
  2 -2.276934 0.000003 -1.238185 -1.570795 -1.570451 0.000000
  3 1.795954 0.712079 0.000595 -0.183269 0.080059 -0.392840
  4 4.119848 -0.001971 -0.002306 0.796998 -0.183767 0.379113
  5 4.119408 -0.002304 0.002192 -0.733231 0.055812 0.285486
  6 4.119764 -0.002190 0.002148 -0.862415 0.531887 -0.046847
  7 4.116196 -0.002314 -0.001167 0.555977 0.897034 -0.354131
  8 4.443597 -0.000000 -0.000001 -0.269291 0.007661 0.007612
  9 9.024060 0.000000 -0.000001 0.000000 0.000000 0.000000
 10 -1.354086 0.574109 0.918270 1.322154 -0.683379 2.221171
 11 6.384776 0.000000 0.000002 -1.072696 -0.455579 -1.725681
 12 10.242681 0.000000 0.000001 -0.000000 0.000000 -1.089866
 13 11.375564 -0.000002 -0.000000 2.676879 0.785800 -0.161955
 14 0.728681 0.023432 -1.008294 2.245671 0.468840 0.478494
 15 2.136497 -0.000000 -0.000001 -0.000000 -0.000000 -0.078540
 16 2.313141 0.000000 -0.000001 0.000000 0.000000 0.000000
 17 3.115506 -0.886040 -0.021432 0.121480 0.000392 0.514872
 18 2.011151 -0.000000 -0.000001 0.000000 0.000000 1.322792
 19 2.141380 -0.000001 -0.000002 0.000000 0.000000 0.000000
 20 1.734172 0.000000 -0.000001 0.000000 -0.000000 0.660693
 21 0.000005 -4.440592 0.000001 1.570544 -0.062990 -0.195737
 22 6.000002 -0.000000 0.000000 3.095375 0.000000 0.000000
 23 -0.000000 -4.440600 -0.000000 1.569944 -0.062987 0.004053
 24 11.375563 0.000000 0.000004 -2.464341 0.423421 0.204675
 25 0.000000 -4.440604 -0.000002 1.570144 -0.062988 0.004040
 26 10.510130 -0.000001 0.000001 -0.000000 0.000000 -2.115729
 27 -0.000001 -1.748400 4.999999 -0.000000 0.004007 1.602291
 28 5.500000 -0.000001 0.000001 0.385185 0.000000 -0.000000
 29 -0.000002 -1.940598 5.000000 -0.044472 0.004003 -0.000180
 30 6.551491 0.000000 0.000002 -0.791281 -0.244379 -1.413438
 31 0.000001 -1.940597 5.000001 -0.027189 -0.053376 0.005295
 32 6.551491 0.000000 0.000002 -0.285212 0.039413 -0.463393
 33 -0.000000 -1.940599 4.999995 -0.066572 -0.152786 -0.110311
 34 1.354085 -0.567033 -0.918273 1.688851 0.684573 -1.156067
 35 6.384777 0.000001 0.000001 0.228227 0.368862 -1.101045
 36 10.242681 -0.000001 0.000002 0.000000 -0.000000 -2.213672
 37 11.375559 0.000001 0.000003 3.019828 0.804000 1.137624
 38 0.728683 0.023431 1.008292 -1.579583 -0.319038 0.212973
 39 2.136497 -0.000001 -0.000002 -0.000000 0.000000 1.282817
 40 2.313140 0.000002 0.000001 0.000000 0.000000 3.141593
 41 3.115507 -0.886042 0.021430 0.420766 0.316066 0.167178
 42 2.011152 0.000000 0.000002 -0.000000 0.000000 2.082010
 43 2.141380 0.000001 0.000000 0.000000 0.000000 3.141593
 44 1.734174 -0.000001 0.000002 0.000000 0.000000 1.041748
 45 0.136314 -3.738192 2.525891 1.493698 2.759406 -1.474501
 46 -2.193616 0.798256 4.032640 1.563844 0.186374 -0.074848
 47 11.389365 -0.000819 0.158783 2.081925 0.564026 0.318761
 48 0.000000 -4.440598 -0.000001 1.570144 -3.078602 0.004040
 49 5.999999 0.000000 0.000001 2.081925 0.000000 -0.000000
 50 0.000002 -4.440600 0.000001 1.569944 -3.078603 0.004053
 51 10.510130 -0.000001 0.000002 -0.000000 -0.000000 -2.677632
 52 0.000000 -1.748399 -5.000003 -3.141593 0.004007 -1.539299
 53 5.499999 -0.000000 0.000003 -0.120170 -0.000000 -0.000000
 54 -0.000001 -0.000000 -4.999999 -0.044472 3.137589 -0.000177
 55 6.551491 0.000001 0.000001 0.120170 0.074483 -0.303908
 56 -1.266844 -1.937444 -4.950558 -0.066572 -2.988806 -0.110308
 57 6.551491 0.000001 0.000001 0.120170 0.074483 -0.303908
 58 0.699370 -1.944208 -5.006847 -0.027189 -3.088217 0.005298
 59 4.226147 -0.003201 -0.000001 0.317357 0.481733 -0.247282
 60 0.000001 5.000001 0.000001 -0.153564 0.000087 2.718702
 61 0.000006 -0.000004 -3.713579 0.119535 -2.936655 -0.885276
 62 0.000003 0.000000 5.000000 3.053195 1.558589 -0.074929
 63 -0.000005 0.000006 3.713580 -0.311487 -2.845558 -0.582080
 64 0.000001 0.000000 -5.000000 -0.088726 1.558589 3.066335
 65 7.363603 1.646648 0.495664 -3.141593 -1.570796 0.000000
 66 -0.000005 0.000007 3.619082 -0.441735 -2.434423 -1.159240
 67 16.573917 -0.000000 0.000001 -0.000000 -0.000000 -2.011748
 68 15.128181 0.000000 -0.000000 0.026832 0.026147 -0.175154
 69 5.758666 4.244731 0.000000 0.000000 -0.000000 2.033309
 70 3.177727 0.000000 0.000000 0.000000 0.000000 3.141593
 71 15.708951 0.000002 -0.000000 0.013957 0.013894 -0.093781
 72 0.275148 0.189215 -3.445208 3.130898 0.000409 -1.514604
 73 17.210192 -0.000001 0.000002 -0.000000 0.000000 -2.319003
 74 0.000000 -0.000001 -5.000000 -0.079433 1.546568 -1.570857
 75 0.000007 -0.000003 -3.619079 0.260448 -2.945758 -1.468642
 76 16.573919 -0.000000 0.000001 0.000000 0.000000 -1.562392
 77 15.128181 0.000000 0.000001 0.265624 -0.173430 0.666428
 78 5.758665 4.244731 0.000000 -0.000000 0.000000 1.483530
 79 4.003934 -0.000000 0.000000 0.000000 0.000000 0.000000
 80 15.708953 0.000000 0.000000 0.195074 -0.100553 0.460486
 81 0.273998 0.191090 3.439762 -3.130907 -0.000437 -1.508107
 82 17.210194 -0.000000 0.000000 -0.000000 0.000000 -2.116793
 83 0.000000 0.000000 5.000000 -0.079311 1.595025 -1.570737
time 2
  0 0.500000 13.522099 26.931471 -0.243067 0.535714 -2.432935
  1 13.773751 5.584523 -22.520975 -0.544290 0.221328 2.303921
  2 -2.276934 0.000003 -1.238185 -1.570795 -1.570451 0.000000
  3 1.795956 0.712072 0.000565 -0.174170 0.083813 -0.392096
  4 4.119844 -0.001948 -0.002326 0.806275 -0.187399 0.377401
  5 4.119410 -0.002328 0.002170 -0.723802 0.053038 0.285998
  6 4.119766 -0.002212 0.002124 -0.851036 0.532310 -0.041074
  7 4.116272 -0.002377 -0.001196 0.563408 0.883661 -0.320164
  8 4.443600 -0.000000 0.000000 -0.272126 -0.013720 -0.074857
  9 9.024058 0.000000 0.000000 0.000000 0.000000 0.000000
 10 -1.339506 0.590536 0.929233 1.307388 -0.698559 2.205372
 11 6.384776 0.000001 0.000004 -1.046034 -0.516821 -1.788061
 12 10.242681 0.000002 0.000000 -0.000000 -0.000000 -0.979934
 13 11.375561 -0.000000 0.000000 2.669439 0.792519 -0.225059
 14 0.728682 0.023432 -1.008293 2.245671 0.468839 0.478494
 15 2.136495 -0.000000 -0.000000 -0.000000 -0.000000 -0.078540
 16 2.313140 -0.000000 -0.000001 0.000000 0.000000 0.000000
 17 3.115507 -0.886041 -0.021430 0.121480 0.000392 0.514872
 18 2.011148 0.000000 0.000001 -0.000000 0.000000 1.322791
 19 2.141380 0.000000 -0.000000 0.000000 0.000000 0.000000
 20 1.734170 0.000000 0.000002 0.000000 0.000000 0.660693
 21 0.000006 -4.440594 -0.000000 1.570544 -0.062990 -0.195737
 22 5.999998 0.000000 0.000000 3.096997 0.000000 -0.000000
 23 0.000004 -4.440599 -0.000000 1.569944 -0.062987 0.004053
 24 11.375560 -0.000000 0.000005 -2.457666 0.441190 0.176769
 25 0.000000 -4.440605 0.000001 1.570144 -0.062988 0.004040
 26 10.510130 0.000002 -0.000000 0.000000 0.000000 -2.060763
 27 0.000002 -1.748400 5.000000 -0.000000 0.004007 1.602290
 28 5.499999 0.000000 0.000000 0.375620 0.000000 0.000000
 29 -0.000001 -1.940599 5.000000 -0.044472 0.004003 -0.000180
 30 6.551491 -0.000000 0.000002 -0.778064 -0.286375 -1.487429
 31 -0.000000 -1.940599 5.000003 -0.027189 -0.053376 0.005295
 32 6.551491 -0.000000 0.000002 -0.274216 0.029707 -0.462901
 33 0.000000 -1.940599 4.999996 -0.066572 -0.152786 -0.110311
 34 1.339513 -0.583460 -0.929232 1.738037 0.680496 -1.130531
 35 6.384776 -0.000001 0.000001 0.282727 0.351638 -1.069724
 36 10.242682 -0.000000 -0.000001 0.000000 -0.000000 -2.213672
 37 11.375560 0.000000 0.000001 3.019828 0.804000 1.137624
 38 0.728679 0.023431 1.008293 -1.579583 -0.319038 0.212973
 39 2.136497 -0.000001 -0.000001 -0.000000 0.000000 1.282817
 40 2.313140 0.000001 0.000001 0.000000 0.000000 3.141593
 41 3.115504 -0.886041 0.021430 0.420766 0.316066 0.167178
 42 2.011152 0.000000 0.000001 -0.000000 0.000000 2.082010
 43 2.141380 0.000002 -0.000001 0.000000 0.000000 3.141593
 44 1.734174 -0.000001 0.000001 0.000000 0.000000 1.041748
 45 0.136314 -3.738193 2.525890 1.493698 2.759406 -1.474501
 46 -2.193619 0.798257 4.032640 1.563844 0.186374 -0.074848
 47 11.389365 -0.000819 0.158781 2.081925 0.564026 0.318761
 48 -0.000001 -4.440597 -0.000000 1.570144 -3.078602 0.004040
 49 5.999999 0.000001 -0.000001 2.081925 0.000000 -0.000000
 50 0.000002 -4.440602 0.000000 1.569944 -3.078603 0.004053
 51 10.510131 -0.000000 -0.000000 -0.000000 -0.000000 -2.677632
 52 0.000001 -1.748399 -5.000001 -3.141593 0.004007 -1.539299
 53 5.500000 0.000000 0.000000 -0.135490 0.000000 -0.000000
 54 -0.000000 -0.000000 -5.000001 -0.044472 3.137589 -0.000177
 55 6.551491 -0.000000 -0.000000 0.135490 0.060648 -0.300872
 56 -1.266844 -1.937443 -4.950563 -0.066572 -2.988806 -0.110308
 57 6.551492 -0.000001 -0.000000 0.135490 0.060648 -0.300872
 58 0.699371 -1.944209 -5.006849 -0.027189 -3.088217 0.005298
 59 4.226145 -0.003201 0.000001 0.317293 0.476457 -0.231693
 60 -0.000001 5.000000 -0.000000 -0.153564 0.000087 2.718702
 61 0.000006 -0.000004 -3.713579 0.119535 -2.936655 -0.885276
 62 0.000003 0.000000 5.000000 3.053195 1.558589 -0.074929
 63 -0.000005 0.000006 3.713580 -0.311487 -2.845558 -0.582080
 64 0.000001 0.000000 -5.000000 -0.088726 1.558589 3.066335
 65 7.363603 1.646648 0.495664 -3.141593 -1.570796 0.000000
 66 -0.000005 0.000007 3.619082 -0.441735 -2.434423 -1.159240
 67 16.573917 -0.000000 0.000001 -0.000000 -0.000000 -2.011748
 68 15.128181 0.000000 -0.000000 0.026832 0.026147 -0.175154
 69 5.758666 4.244731 0.000000 0.000000 -0.000000 2.033309
 70 3.177727 0.000000 0.000000 0.000000 0.000000 3.141593
 71 15.708951 0.000002 -0.000000 0.013957 0.013894 -0.093781
 72 0.275148 0.189215 -3.445208 3.130898 0.000409 -1.514604
 73 17.210192 -0.000001 0.000002 -0.000000 0.000000 -2.319003
 74 0.000000 -0.000001 -5.000000 -0.079433 1.546568 -1.570857
 75 0.000007 -0.000003 -3.619079 0.260448 -2.945758 -1.468642
 76 16.573919 -0.000000 0.000001 0.000000 0.000000 -1.562392
 77 15.128181 0.000000 0.000001 0.265624 -0.173430 0.666428
 78 5.758665 4.244731 0.000000 -0.000000 0.000000 1.483530
 79 4.003934 -0.000000 0.000000 0.000000 0.000000 0.000000
 80 15.708953 0.000000 0.000000 0.195074 -0.100553 0.460486
 81 0.273998 0.191090 3.439762 -3.130907 -0.000437 -1.508107
 82 17.210194 -0.000000 0.000000 -0.000000 0.000000 -2.116793
 83 0.000000 0.000000 5.000000 -0.079311 1.595025 -1.570737
time 3
  0 0.500000 13.522099 26.931471 -0.243067 0.535714 -2.432935
  1 13.773751 5.584523 -22.520975 -0.544290 0.221328 2.303921
  2 -2.276934 0.000003 -1.238185 -1.570795 -1.570451 0.000000
  3 1.795953 0.712067 0.000535 -0.165065 0.087560 -0.391316
  4 4.119851 -0.001925 -0.002344 0.815566 -0.191015 0.375654
  5 4.119408 -0.002347 0.002146 -0.714376 0.050259 0.286485
  6 4.119763 -0.002233 0.002103 -0.839652 0.532677 -0.035294
  7 4.116359 -0.002443 -0.001229 0.570012 0.870139 -0.286896
  8 4.443601 -0.000000 0.000001 -0.273680 -0.034199 -0.157569
  9 9.024060 0.000000 0.000001 0.000000 0.000000 0.000000
 10 -1.324519 0.606380 0.940501 1.292747 -0.713916 2.189664
 11 6.384776 0.000000 0.000002 -1.013829 -0.581401 -1.857188
 12 10.242682 -0.000001 -0.000000 0.000000 0.000000 -0.858666
 13 11.375563 -0.000000 -0.000000 2.660986 0.799793 -0.294803
 14 0.728682 0.023432 -1.008293 2.245671 0.468840 0.478494
 15 2.136495 0.000001 -0.000000 -0.000000 -0.000000 -0.078540
 16 2.313140 -0.000001 -0.000001 0.000000 0.000000 0.000000
 17 3.115507 -0.886040 -0.021431 0.121480 0.000392 0.514872
 18 2.011149 0.000000 -0.000000 0.000000 0.000000 1.322791
 19 2.141380 -0.000002 -0.000001 0.000000 0.000000 0.000000
 20 1.734171 0.000000 -0.000000 0.000000 0.000000 0.660693
 21 0.000003 -4.440592 0.000000 1.570544 -0.062990 -0.195737
 22 5.999998 0.000000 -0.000001 3.099213 0.000000 -0.000000
 23 0.000005 -4.440600 -0.000000 1.569944 -0.062987 0.004053
 24 11.375561 -0.000001 0.000002 -2.449973 0.460262 0.145815
 25 -0.000002 -4.440603 0.000001 1.570144 -0.062988 0.004040
 26 10.510130 0.000001 -0.000002 0.000000 0.000000 -2.000129
 27 0.000001 -1.748399 4.999999 -0.000000 0.004007 1.602291
 28 5.500000 -0.000001 -0.000001 0.366484 0.000000 -0.000000
 29 -0.000002 -1.940596 5.000000 -0.044472 0.004003 -0.000180
 30 6.551491 -0.000000 -0.000001 -0.765244 -0.329957 -1.558644
 31 0.000000 -1.940599 5.000002 -0.027189 -0.053376 0.005295
 32 6.551491 -0.000000 -0.000001 -0.263559 0.020011 -0.458216
 33 -0.000001 -1.940598 4.999996 -0.066572 -0.152786 -0.110311
 34 1.324530 -0.599303 -0.940498 1.785896 0.674182 -1.106384
 35 6.384776 -0.000001 0.000003 0.335983 0.332136 -1.039328
 36 10.242682 -0.000000 0.000000 0.000000 -0.000000 -2.213672
 37 11.375561 -0.000000 0.000002 3.019828 0.804000 1.137624
 38 0.728683 0.023431 1.008292 -1.579583 -0.319038 0.212973
 39 2.136497 -0.000000 -0.000001 -0.000000 0.000000 1.282817
 40 2.313139 0.000000 0.000000 0.000000 0.000000 3.141593
 41 3.115508 -0.886042 0.021430 0.420766 0.316066 0.167178
 42 2.011152 0.000000 0.000001 -0.000000 0.000000 2.082010
 43 2.141379 0.000001 -0.000000 0.000000 0.000000 3.141593
 44 1.734173 -0.000001 0.000001 0.000000 0.000000 1.041748
 45 0.136314 -3.738192 2.525891 1.493698 2.759406 -1.474501
 46 -2.193616 0.798256 4.032640 1.563844 0.186374 -0.074848
 47 11.389366 -0.000819 0.158782 2.081925 0.564026 0.318761
 48 -0.000001 -4.440599 -0.000000 1.570144 -3.078602 0.004040
 49 6.000000 0.000000 0.000000 2.081925 0.000000 -0.000000
 50 0.000002 -4.440601 0.000000 1.569944 -3.078603 0.004053
 51 10.510131 -0.000000 0.000001 -0.000000 -0.000000 -2.677632
 52 -0.000000 -1.748399 -5.000000 -3.141593 0.004007 -1.539299
 53 5.500000 0.000000 0.000001 -0.149944 -0.000000 -0.000000
 54 0.000000 0.000000 -5.000000 -0.044472 3.137589 -0.000177
 55 6.551490 0.000000 0.000000 0.149944 0.047375 -0.298001
 56 -1.266844 -1.937443 -4.950560 -0.066572 -2.988806 -0.110308
 57 6.551490 0.000001 0.000001 0.149944 0.047375 -0.298001
 58 0.699371 -1.944207 -5.006848 -0.027189 -3.088217 0.005298
 59 4.226147 -0.003202 -0.000001 0.317142 0.471154 -0.216112
 60 -0.000000 5.000000 -0.000000 -0.153564 0.000087 2.718702
 61 0.000006 -0.000004 -3.713579 0.119535 -2.936655 -0.885276
 62 0.000003 0.000000 5.000000 3.053195 1.558589 -0.074929
 63 -0.000005 0.000006 3.713580 -0.311487 -2.845558 -0.582080
 64 0.000001 0.000000 -5.000000 -0.088726 1.558589 3.066335
 65 7.363603 1.646648 0.495664 -3.141593 -1.570796 0.000000
 66 -0.000005 0.000007 3.619082 -0.441735 -2.434423 -1.159240
 67 16.573917 -0.000000 0.000001 -0.000000 -0.000000 -2.011748
 68 15.128181 0.000000 -0.000000 0.026832 0.026147 -0.175154
 69 5.758666 4.244731 0.000000 0.000000 -0.000000 2.033309
 70 3.177727 0.000000 0.000000 0.000000 0.000000 3.141593
 71 15.708951 0.000002 -0.000000 0.013957 0.013894 -0.093781
 72 0.275148 0.189215 -3.445208 3.130898 0.000409 -1.514604
 73 17.210192 -0.000001 0.000002 -0.000000 0.000000 -2.319003
 74 0.000000 -0.000001 -5.000000 -0.079433 1.546568 -1.570857
 75 0.000007 -0.000003 -3.619079 0.260448 -2.945758 -1.468642
 76 16.573919 -0.000000 0.000001 0.000000 0.000000 -1.562392
 77 15.128181 0.000000 0.000001 0.265624 -0.173430 0.666428
 78 5.758665 4.244731 0.000000 -0.000000 0.000000 1.483530
 79 4.003934 -0.000000 0.000000 0.000000 0.000000 0.000000
 80 15.708953 0.000000 0.000000 0.195074 -0.100553 0.460486
 81 0.273998 0.191090 3.439762 -3.130907 -0.000437 -1.508107
 82 17.210194 -0.000000 0.000000 -0.000000 0.000000 -2.116793
 83 0.000000 0.000000 5.000000 -0.079311 1.595025 -1.570737
time 4
  0 0.500000 13.522099 26.931471 -0.243067 0.535714 -2.432935
  1 13.773751 5.584523 -22.520975 -0.544290 0.221328 2.303921
  2 -2.276934 0.000003 -1.238185 -1.570795 -1.570451 0.000000
  3 1.795956 0.712061 0.000505 -0.155954 0.091300 -0.390503
  4 4.119849 -0.001902 -0.002362 0.824869 -0.194615 0.373871
  5 4.119407 -0.002368 0.002123 -0.704953 0.047476 0.286945
  6 4.119763 -0.002252 0.002083 -0.828263 0.532987 -0.029509
  7 4.116448 -0.002507 -0.001262 0.575822 0.856485 -0.254290
  8 4.443601 0.000000 0.000001 -0.274124 -0.053708 -0.240543
  9 9.024062 -0.000000 -0.000000 0.000000 0.000000 0.000000
 10 -1.309144 0.621624 0.952063 1.278232 -0.729446 2.174045
 11 6.384776 -0.000000 0.000001 -0.972995 -0.651224 -1.936918
 12 10.242682 -0.000001 -0.000000 0.000000 -0.000000 -0.720496
 13 11.375562 -0.000001 -0.000000 2.651522 0.807535 -0.373789
 14 0.728682 0.023432 -1.008295 2.245671 0.468840 0.478494
 15 2.136495 0.000000 -0.000000 0.000000 0.000000 -0.078540
 16 2.313140 0.000001 -0.000001 0.000000 0.000000 0.000000
 17 3.115507 -0.886040 -0.021433 0.121480 0.000392 0.514872
 18 2.011151 -0.000000 -0.000001 -0.000000 0.000000 1.322791
 19 2.141380 -0.000001 -0.000002 0.000000 0.000000 0.000000
 20 1.734172 0.000001 -0.000001 0.000000 0.000000 0.660693
 21 0.000005 -4.440594 0.000003 1.570544 -0.062990 -0.195737
 22 6.000000 -0.000002 0.000000 3.102589 -0.000000 -0.000000
 23 0.000001 -4.440601 0.000001 1.569944 -0.062987 0.004053
 24 11.375561 -0.000001 0.000004 -2.440725 0.481088 0.110692
 25 -0.000003 -4.440604 0.000002 1.570144 -0.062988 0.004040
 26 10.510131 -0.000001 -0.000001 0.000000 -0.000000 -1.931044
 27 0.000000 -1.748403 4.999998 -0.000000 0.004007 1.602290
 28 5.500000 -0.000003 0.000000 0.357510 0.000000 -0.000000
 29 -0.000002 -1.940597 4.999999 -0.044472 0.004003 -0.000180
 30 6.551491 0.000001 0.000002 -0.752912 -0.378614 -1.630766
 31 0.000000 -1.940598 5.000001 -0.027189 -0.053376 0.005295
 32 6.551491 0.000001 0.000002 -0.252809 0.009866 -0.448833
 33 0.000001 -1.940599 4.999994 -0.066572 -0.152786 -0.110311
 34 1.309149 -0.614547 -0.952063 1.832202 0.665765 -1.083838
 35 6.384777 0.000001 -0.000001 0.387896 0.310425 -1.009997
 36 10.242682 -0.000000 -0.000001 0.000000 -0.000000 -2.213672
 37 11.375561 0.000001 0.000001 3.019828 0.804000 1.137624
 38 0.728682 0.023431 1.008293 -1.579583 -0.319038 0.212973
 39 2.136496 -0.000001 -0.000000 -0.000000 0.000000 1.282817
 40 2.313140 0.000001 0.000001 0.000000 0.000000 3.141593
 41 3.115507 -0.886042 0.021431 0.420766 0.316066 0.167178
 42 2.011151 0.000000 0.000002 -0.000000 0.000000 2.082010
 43 2.141379 0.000001 -0.000003 0.000000 0.000000 3.141593
 44 1.734172 -0.000001 0.000002 0.000000 0.000000 1.041748
 45 0.136314 -3.738193 2.525892 1.493698 2.759406 -1.474501
 46 -2.193617 0.798256 4.032641 1.563844 0.186374 -0.074848
 47 11.389366 -0.000819 0.158781 2.081925 0.564026 0.318761
 48 -0.000001 -4.440599 -0.000000 1.570144 -3.078602 0.004040
 49 5.999999 0.000001 -0.000001 2.081925 0.000000 -0.000000
 50 0.000001 -4.440602 -0.000000 1.569944 -3.078603 0.004053
 51 10.510131 -0.000000 -0.000000 -0.000000 -0.000000 -2.677632
 52 0.000000 -1.748400 -5.000001 -3.141593 0.004007 -1.539299
 53 5.500000 0.000000 0.000000 -0.163505 0.000000 0.000000
 54 -0.000001 -0.000000 -4.999997 -0.044472 3.137589 -0.000177
 55 6.551491 -0.000000 0.000002 0.163505 0.034696 -0.295186
 56 -1.266844 -1.937444 -4.950559 -0.066572 -2.988806 -0.110308
 57 6.551491 -0.000000 0.000002 0.163505 0.034696 -0.295186
 58 0.699370 -1.944209 -5.006847 -0.027189 -3.088217 0.005298
 59 4.226147 -0.003203 -0.000001 0.316901 0.465815 -0.200520
 60 0.000004 5.000000 -0.000001 -0.153564 0.000087 2.718702
 61 0.000006 -0.000004 -3.713579 0.119535 -2.936655 -0.885276
 62 0.000003 0.000000 5.000000 3.053195 1.558589 -0.074929
 63 -0.000005 0.000006 3.713580 -0.311487 -2.845558 -0.582080
 64 0.000001 0.000000 -5.000000 -0.088726 1.558589 3.066335
 65 7.363603 1.646648 0.495664 -3.141593 -1.570796 0.000000
 66 -0.000005 0.000007 3.619082 -0.441735 -2.434423 -1.159240
 67 16.573917 -0.000000 0.000001 -0.000000 -0.000000 -2.011748
 68 15.128181 0.000000 -0.000000 0.026832 0.026147 -0.175154
 69 5.758666 4.244731 0.000000 0.000000 -0.000000 2.033309
 70 3.177727 0.000000 0.000000 0.000000 0.000000 3.141593
 71 15.708951 0.000002 -0.000000 0.013957 0.013894 -0.093781
 72 0.275148 0.189215 -3.445208 3.130898 0.000409 -1.514604
 73 17.210192 -0.000001 0.000002 -0.000000 0.000000 -2.319003
 74 0.000000 -0.000001 -5.000000 -0.079433 1.546568 -1.570857
 75 0.000007 -0.000003 -3.619079 0.260448 -2.945758 -1.468642
 76 16.573919 -0.000000 0.000001 0.000000 0.000000 -1.562392
 77 15.128181 0.000000 0.000001 0.265624 -0.173430 0.666428
 78 5.758665 4.244731 0.000000 -0.000000 0.000000 1.483530
 79 4.003934 -0.000000 0.000000 0.000000 0.000000 0.000000
 80 15.708953 0.000000 0.000000 0.195074 -0.100553 0.460486
 81 0.273998 0.191090 3.439762 -3.130907 -0.000437 -1.508107
 82 17.210194 -0.000000 0.000000 -0.000000 0.000000 -2.116793
 83 0.000000 0.000000 5.000000 -0.079311 1.595025 -1.570737
end
