version 1
nodes
  0 "Bip01"  -1
  1 "Bip01 Footsteps"   0
  2 "Bip01 Pelvis"   0
  3 "Bip01 Spine"   2
  4 "Bip01 Spine1"   3
  5 "Bip01 Spine2"   4
  6 "Bip01 Spine3"   5
  7 "Bip01 Neck"   6
  8 "Bip01 Head"   7
  9 "Dummy21"   8
 10 "Bip01 L Clavicle"   7
 11 "Bip01 L UpperArm"  10
 12 "Bip01 L Forearm"  11
 13 "Bip01 L Hand"  12
 14 "Bip01 L Finger0"  13
 15 "Bip01 L Finger01"  14
 16 "Dummy06"  15
 17 "Bip01 L Finger1"  13
 18 "Bip01 L Finger11"  17
 19 "Dummy03"  18
 20 "-- L knuckle"  17
 21 "-- L knuckle_end"  20
 22 "-- L Forearm twist"  12
 23 "-- L Forearm twist_end"  22
 24 "-- L wrist"  12
 25 "-- L wrist_end"  24
 26 "-- L Elbow"  11
 27 "--L Elbow_end"  26
 28 "-- L bicep twist"  11
 29 "-- L bicep twist_end"  28
 30 "-- L shoulder outside"  10
 31 "-- L shoulder outside_end"  30
 32 "-- L Shoulder inside"  10
 33 "-- L Shoulder inside_end"  32
 34 "Bip01 R Clavicle"   7
 35 "Bip01 R UpperArm"  34
 36 "Bip01 R Forearm"  35
 37 "Bip01 R Hand"  36
 38 "Bip01 R Finger0"  37
 39 "Bip01 R Finger01"  38
 40 "Dummy01"  39
 41 "Bip01 R Finger1"  37
 42 "Bip01 R Finger11"  41
 43 "Dummy02"  42
 44 "-- R knuckle"  41
 45 "Point06"  44
 46 "-- R wrist"  36
 47 "-- R wrist_end"  46
 48 "-- R forearm twist"  36
 49 "-- R forearm twist_end"  48
 50 "-- R Elbow"  35
 51 "--R Elbow_end"  50
 52 "-- R bicep twist"  35
 53 "-- R bicep twist_end"  52
 54 "-- R Shoulder inside"  34
 55 "-- R Shoulder inside_end"  54
 56 "-- R shoulder outside"  34
 57 "-- R shoulder outside_end"  56
 58 "-- Neck smooth"   6
 59 "-- neck smooth end"  58
 60 "Bomb"   5
 61 "-- R Butt"   2
 62 "--R Butt_end"  61
 63 "-- L butt"   2
 64 "--L butt_end"  63
 65 "Bip01 L Thigh"   2
 66 "Bip01 L Calf"  65
 67 "Bip01 L Foot"  66
 68 "Bip01 L Toe0"  67
 69 "Dummy16"  68
 70 "-- L ankle"  66
 71 "-- L ankleend"  70
 72 "-- L Knee"  65
 73 "--L Knee_end"  72
 74 "Bip01 R Thigh"   2
 75 "Bip01 R Calf"  74
 76 "Bip01 R Foot"  75
 77 "Bip01 R Toe0"  76
 78 "Dummy11"  77
 79 "-- R Ankle"  75
 80 "-- R ankleend"  79
 81 "-- R Knee"  74
 82 "--R Knee_end"  81
end
skeleton
time 0
  0 0.233849 -2.251689 38.192150 0.000000 0.000000 -1.570795
  1 0.000000 -0.000000 -38.285538 0.000000 0.000000 1.570795
  2 -2.276935 0.000003 -1.238186 -1.570795 -1.570451 0.000000
  3 1.797145 0.711796 -0.000002 -0.000004 -0.000001 0.000739
  4 4.118605 -0.003279 -0.000000 -0.000000 -0.000000 0.000035
  5 4.118601 -0.003280 -0.000000 0.000000 -0.000000 0.000049
  6 4.118600 -0.003280 -0.000000 -0.000000 0.000000 -0.000009
  7 4.118531 -0.003538 -0.000000 -0.000000 0.000000 -0.019437
  8 4.443601 0.000000 0.000000 -0.000000 -0.000001 0.201740
  9 9.024063 -0.000001 0.000000 0.000000 0.000000 0.000000
 10 0.000004 0.003534 1.732721 -0.000040 -1.501696 -3.122911
 11 6.384776 -0.000000 0.000001 0.025648 -0.046980 0.004099
 12 10.242682 -0.000000 -0.000002 0.000000 -0.000000 -0.008014
 13 11.375562 0.000000 0.000005 -1.580468 -0.132234 0.009455
 14 0.728679 0.023429 -1.008292 1.705251 0.347372 0.567022
 15 2.136497 -0.000000 0.000001 0.000000 0.000000 0.287979
 16 2.313140 0.000000 -0.000000 0.000000 0.000000 0.000000
 17 3.115505 -0.886041 -0.021431 -0.000782 0.000152 0.191986
 18 2.011151 -0.000000 -0.000000 0.000000 0.000000 0.659566
 19 2.141380 0.000003 0.000000 0.000000 0.000000 0.000000
 20 1.734173 0.000003 -0.000000 0.000000 0.000000 0.330185
 21 0.000007 -4.440596 0.000000 1.570544 -0.062990 -0.195737
 22 6.000001 -0.000000 0.000000 -1.578050 0.000000 -0.000000
 23 0.000001 -4.440600 -0.000000 1.569944 -0.062987 0.004053
 24 11.375562 0.000000 0.000005 -1.575523 -0.074433 0.005312
 25 -0.000001 -4.440606 0.000000 1.570144 -0.062988 0.004040
 26 10.510129 0.000000 0.000000 -0.000000 0.000000 -1.574800
 27 0.000000 -1.748401 5.000000 0.000000 0.004007 1.602291
 28 5.500000 -0.000000 -0.000001 -0.011814 -0.000000 -0.000000
 29 -0.000002 -1.940598 4.999999 -0.044472 0.004003 -0.000180
 30 6.551491 0.000000 -0.000001 0.019708 -0.055281 0.008457
 31 0.000001 -1.940598 5.000001 -0.027189 -0.053376 0.005295
 32 6.551491 0.000000 -0.000001 0.010051 -0.028020 0.004425
 33 -0.000000 -1.940599 4.999999 -0.066572 -0.152786 -0.110311
 34 0.000004 0.003543 -1.732721 -0.000040 1.501696 -3.122992
 35 6.384777 -0.000000 -0.000001 -0.025648 0.046980 0.004099
 36 10.242681 -0.000000 0.000002 0.000000 0.000000 -0.008014
 37 11.375562 0.000000 -0.000002 1.580468 0.132234 0.009455
 38 0.728679 0.023429 1.008292 -1.705251 -0.347372 0.567022
 39 2.136496 -0.000001 0.000000 0.000000 -0.000000 0.287979
 40 2.313141 0.000000 0.000001 0.000000 0.000000 3.141593
 41 3.115505 -0.886040 0.021431 0.000782 -0.000152 0.191986
 42 2.011151 -0.000000 0.000000 0.000000 -0.000000 0.659566
 43 2.141380 -0.000002 -0.000000 0.000000 0.000000 3.141593
 44 1.734173 -0.000001 -0.000000 -0.000000 -0.000000 0.330185
 45 0.136314 -3.738190 2.525890 1.493698 2.759406 -1.474501
 46 11.389366 -0.000819 0.158785 1.575523 0.074433 0.005312
 47 0.000000 -4.440601 0.000000 1.570144 -3.078602 0.004040
 48 6.000001 -0.000000 0.000003 1.575523 0.000000 -0.000000
 49 0.000001 -4.440599 -0.000000 1.569944 -3.078603 0.004053
 50 10.510130 0.000000 -0.000001 -0.000000 -0.000000 -1.574800
 51 -0.000000 -1.748399 -5.000000 3.141593 0.004007 -1.539299
 52 5.499999 -0.000000 0.000001 0.010051 -0.000000 0.000000
 53 -0.000000 0.000000 -5.000000 -0.044472 3.137589 -0.000177
 54 6.551491 -0.000000 0.000001 -0.010051 0.028020 0.004424
 55 -1.266843 -1.937443 -4.950561 -0.066572 -2.988806 -0.110308
 56 6.551491 -0.000000 0.000001 -0.010051 0.028020 0.004424
 57 0.699371 -1.944208 -5.006848 -0.027189 -3.088217 0.005298
 58 4.226144 -0.003201 -0.000000 -0.000000 0.000000 0.000000
 59 0.000001 5.000000 -0.000000 -0.153564 0.000087 2.718702
 60 1.558341 -6.903261 -0.233856 -0.095171 1.570796 0.000000
 61 0.000005 -0.000005 -3.713579 -0.006814 3.056983 -0.063787
 62 0.000003 -0.000000 5.000000 3.053198 1.558589 -0.074927
 63 -0.000005 0.000005 3.713579 0.005299 -3.071082 -0.053070
 64 -0.000003 0.000000 -5.000000 -0.088725 1.558589 3.066335
 65 -0.000005 0.000007 3.619081 0.011132 -3.002289 -0.086533
 66 16.573919 -0.000000 0.000000 0.000000 0.000000 -0.162458
 67 15.128179 0.000000 0.000001 0.000920 -0.139743 0.076637
 68 5.758665 4.244730 0.000000 0.000000 0.000000 1.570796
 69 3.177725 -0.000000 0.000001 0.000000 0.000000 3.141593
 70 15.708952 0.000001 -0.000000 0.001562 -0.077726 0.040998
 71 0.275148 0.189215 -3.445207 3.130898 0.000409 -1.514604
 72 17.210194 -0.000000 0.000001 -0.000000 0.000000 -1.486823
 73 0.000000 -0.000001 -5.000000 -0.079429 1.546568 -1.570852
 74 0.000005 -0.000003 -3.619081 -0.011130 3.002286 -0.086533
 75 16.573919 0.000000 0.000000 -0.000000 -0.000000 -0.162458
 76 15.128179 0.000000 0.000000 -0.000920 0.139743 0.076637
 77 5.758665 4.244731 -0.000000 -0.000000 -0.000000 1.570796
 78 4.003934 -0.000000 0.000000 0.000000 0.000000 0.000000
 79 15.708952 -0.000000 -0.000000 -0.001364 0.104219 0.055002
 80 0.273997 0.191090 3.439762 -3.130907 -0.000437 -1.508107
 81 17.210192 -0.000000 0.000000 0.000000 -0.000000 -1.486823
 82 0.000000 -0.000000 5.000000 -0.079311 1.595025 -1.570737
end
triangles
Backpack1.BMP
 60  -4.9960   3.9784  42.4310  -0.0105  -0.7416  -0.6707   0.6972   0.4226
 60  -3.7450   4.7727  41.5333  -0.0105  -0.7416  -0.6707   0.6503   0.4330
 60   3.7450   4.6775  41.5213  -0.0105  -0.7416  -0.6707   0.3699   0.4331
Backpack1.BMP
 60   3.7450   4.6775  41.5213  -0.0105  -0.7416  -0.6707   0.3699   0.4331
 60   4.9960   3.8515  42.4151  -0.0105  -0.7416  -0.6707   0.3231   0.4226
 60  -4.9960   3.9784  42.4310  -0.0105  -0.7416  -0.6707   0.6972   0.4226
Backpack1.BMP
 60   4.9960   2.7403  53.9546  -0.0128  -0.9953  -0.0958   0.3231   0.2956
 60  -4.9960   2.8683  53.9601  -0.0128  -0.9953  -0.0958   0.6972   0.2957
 60  -4.9960   3.9784  42.4310  -0.0128  -0.9953  -0.0958   0.6972   0.4226
Backpack1.BMP
 60  -4.9960   3.9784  42.4310  -0.0128  -0.9953  -0.0958   0.6972   0.4226
 60   4.9960   3.8515  42.4151  -0.0128  -0.9953  -0.0958   0.3231   0.4226
 60   4.9960   2.7403  53.9546  -0.0128  -0.9953  -0.0958   0.3231   0.2956
Backpack1.BMP
 60   5.2218   8.5172  42.9992   0.8586   0.2581  -0.4430   0.2645   0.2083
 60   5.2218   7.4432  54.1526   0.8222   0.3366   0.4590   0.2480   0.7629
 60   4.9960   2.7403  53.9546   0.7233  -0.5307   0.4418   0.0360   0.7664
Backpack1.BMP
 60   4.9960   2.7403  53.9546   0.7233  -0.5307   0.4418   0.0360   0.7664
 60   4.9960   3.8515  42.4151   0.8966   0.0120  -0.4426   0.0340   0.2082
 60   5.2218   8.5172  42.9992   0.8586   0.2581  -0.4430   0.2645   0.2083
Backpack1.BMP
 60   3.7450   4.6775  41.5213   0.4268   0.0920  -0.8997   0.0653   0.1690
 60   3.9143   8.1749  41.9592   0.2617   0.2718  -0.9261   0.2343   0.1697
 60   5.2218   8.5172  42.9992   0.8586   0.2581  -0.4430   0.2645   0.2083
Backpack1.BMP
 60   5.2218   8.5172  42.9992   0.8586   0.2581  -0.4430   0.2645   0.2083
 60   4.9960   3.8515  42.4151   0.8966   0.0120  -0.4426   0.0340   0.2082
 60   3.7450   4.6775  41.5213   0.4268   0.0920  -0.8997   0.0645   0.1690
Backpack1.BMP
 60   3.9143   8.1749  41.9592   0.2617   0.2718  -0.9261   0.3276   0.1245
 60   3.0891   8.9601  42.0575   0.1011   0.5601  -0.8222   0.3330   0.2130
 60   4.1210   9.5646  43.1303   0.4350   0.8391  -0.3266   0.3028   0.2376
Backpack1.BMP
 60   4.1210   9.5646  43.1303   0.4350   0.8391  -0.3266   0.3028   0.2376
 60   5.2218   8.5172  42.9992   0.8586   0.2581  -0.4430   0.2645   0.2083
 60   3.9143   8.1749  41.9592   0.2617   0.2718  -0.9261   0.3276   0.1245
Backpack1.BMP
 60   4.1210   9.5646  43.1303   0.4350   0.8391  -0.3266   0.3028   0.2376
 60   4.1210   8.4990  54.1971   0.3171   0.8381   0.4438   0.3036   0.7414
 60   5.2218   7.4432  54.1526   0.8222   0.3366   0.4590   0.2480   0.7629
Backpack1.BMP
 60   5.2218   7.4432  54.1526   0.8222   0.3366   0.4590   0.2480   0.7629
 60   5.2218   8.5172  42.9992   0.8586   0.2581  -0.4430   0.2645   0.2083
 60   4.1210   9.5646  43.1303   0.4350   0.8391  -0.3266   0.3028   0.2376
Backpack1.BMP
 60   3.0891   8.9601  42.0575   0.1011   0.5601  -0.8222   0.3330   0.2130
 60  -3.1738   9.0552  42.0694  -0.2461   0.5351  -0.8081   0.6719   0.2038
 60  -4.2339   9.6915  43.1462  -0.2230   0.9322  -0.2851   0.6952   0.2424
Backpack1.BMP
 60  -4.2339   9.6915  43.1462  -0.2230   0.9322  -0.2851   0.6952   0.2424
 60   4.1210   9.5646  43.1303   0.4350   0.8391  -0.3266   0.3028   0.2376
 60   3.0891   8.9601  42.0575   0.1011   0.5601  -0.8222   0.3330   0.2130
Backpack1.BMP
 60  -4.2339   9.6915  43.1462  -0.2230   0.9322  -0.2851   0.6952   0.2424
 60  -4.2339   8.6269  54.2025  -0.4093   0.7754   0.4809   0.7091   0.7413
 60   4.1210   8.4990  54.1971   0.3171   0.8381   0.4438   0.3036   0.7414
Backpack1.BMP
 60   4.1210   8.4990  54.1971   0.3171   0.8381   0.4438   0.3036   0.7414
 60   4.1210   9.5646  43.1303   0.4350   0.8391  -0.3266   0.3028   0.2376
 60  -4.2339   9.6915  43.1462  -0.2230   0.9322  -0.2851   0.6952   0.2424
Backpack1.BMP
 60  -3.1738   9.0552  42.0694  -0.2461   0.5351  -0.8081   0.6719   0.2038
 60  -3.9143   8.1987  41.9621  -0.2974   0.1771  -0.9382   0.6883   0.1247
 60  -5.2218   8.5489  43.0032  -0.7893   0.4480  -0.4199   0.7449   0.2042
Backpack1.BMP
 60  -5.2218   8.5489  43.0032  -0.7893   0.4480  -0.4199   0.7449   0.2042
 60  -4.2339   9.6915  43.1462  -0.2230   0.9322  -0.2851   0.6952   0.2424
 60  -3.1738   9.0552  42.0694  -0.2461   0.5351  -0.8081   0.6719   0.2038
Backpack1.BMP
 60  -5.2218   8.5489  43.0032  -0.7893   0.4480  -0.4199   0.7449   0.2042
 60  -5.2218   7.4752  54.1540  -0.8853   0.1580   0.4374   0.7824   0.7511
 60  -4.2339   8.6269  54.2025  -0.4093   0.7754   0.4809   0.7091   0.7413
Backpack1.BMP
 60  -4.2339   8.6269  54.2025  -0.4093   0.7754   0.4809   0.7091   0.7413
 60  -4.2339   9.6915  43.1462  -0.2230   0.9322  -0.2851   0.6952   0.2424
 60  -5.2218   8.5489  43.0032  -0.7893   0.4480  -0.4199   0.7449   0.2042
Backpack1.BMP
 60  -3.9143   8.1987  41.9621  -0.2974   0.1771  -0.9382   0.7737   0.1676
 60  -3.7450   4.7727  41.5333  -0.2135   0.1110  -0.9706   0.9617   0.1754
 60  -4.9960   3.9784  42.4310  -0.8967   0.0111  -0.4426   0.9825   0.2165
Backpack1.BMP
 60  -4.9960   3.9784  42.4310  -0.8967   0.0111  -0.4426   0.9825   0.2165
 60  -5.2218   8.5489  43.0032  -0.7893   0.4480  -0.4199   0.7449   0.2042
 60  -3.9143   8.1987  41.9621  -0.2974   0.1771  -0.9382   0.7737   0.1676
Backpack1.BMP
 60  -4.9960   3.9784  42.4310  -0.8967   0.0111  -0.4426   0.9817   0.2156
 60  -4.9960   2.8683  53.9601  -0.7369  -0.4395   0.5136   0.9857   0.7468
 60  -5.2218   7.4752  54.1540  -0.8853   0.1580   0.4374   0.7824   0.7511
Backpack1.BMP
 60  -5.2218   7.4752  54.1540  -0.8853   0.1580   0.4374   0.7824   0.7511
 60  -5.2218   8.5489  43.0032  -0.7893   0.4480  -0.4199   0.7449   0.2042
 60  -4.9960   3.9784  42.4310  -0.8967   0.0111  -0.4426   0.9817   0.2156
Backpack1.BMP
 60  -3.7504   3.4571  55.1643  -0.3340  -0.4744   0.8145   0.9408   0.8394
 60  -3.9199   6.9154  55.3100  -0.2596   0.0877   0.9617   0.7371   0.8350
 60  -5.2218   7.4752  54.1540  -0.8853   0.1580   0.4374   0.7824   0.7511
Backpack1.BMP
 60  -5.2218   7.4752  54.1540  -0.8853   0.1580   0.4374   0.7824   0.7511
 60  -4.9960   2.8683  53.9601  -0.7369  -0.4395   0.5136   0.9857   0.7468
 60  -3.7504   3.4571  55.1643  -0.3340  -0.4744   0.8145   0.9408   0.8394
Backpack1.BMP
 60   4.9960   2.7403  53.9546   0.7233  -0.5307   0.4418   0.3231   0.2956
 60   3.7504   3.3610  55.1603   0.3139  -0.2580   0.9137   0.3697   0.2830
 60  -3.7504   3.4571  55.1643  -0.3340  -0.4744   0.8145   0.6505   0.2830
Backpack1.BMP
 60  -3.7504   3.4571  55.1643  -0.3340  -0.4744   0.8145   0.6505   0.2830
 60  -4.9960   2.8683  53.9601  -0.7369  -0.4395   0.5136   0.6972   0.2957
 60   4.9960   2.7403  53.9546   0.7233  -0.5307   0.4418   0.3231   0.2956
Backpack1.BMP
 60   5.2218   7.4432  54.1526   0.8222   0.3366   0.4590   0.2480   0.7629
 60   3.9199   6.8914  55.3090   0.3527   0.1682   0.9205   0.2719   0.8347
 60   3.7504   3.3610  55.1603   0.3139  -0.2580   0.9137   0.0844   0.8481
Backpack1.BMP
 60   3.7504   3.3610  55.1603   0.3139  -0.2580   0.9137   0.0844   0.8481
 60   4.9960   2.7403  53.9546   0.7233  -0.5307   0.4418   0.0360   0.7664
 60   5.2218   7.4432  54.1526   0.8222   0.3366   0.4590   0.2480   0.7629
Backpack1.BMP
 60   4.1210   8.4990  54.1971   0.3171   0.8381   0.4438   0.3036   0.7414
 60   3.0936   7.6839  55.3424   0.1124   0.4503   0.8858   0.3563   0.7751
 60   3.9199   6.8914  55.3090   0.3527   0.1682   0.9205   0.2719   0.8347
Backpack1.BMP
 60   3.9199   6.8914  55.3090   0.3527   0.1682   0.9205   0.2719   0.8347
 60   5.2218   7.4432  54.1526   0.8222   0.3366   0.4590   0.2480   0.7629
 60   4.1210   8.4990  54.1971   0.3171   0.8381   0.4438   0.3036   0.7414
Backpack1.BMP
 60  -4.2339   8.6269  54.2025  -0.4093   0.7754   0.4809   0.7091   0.7413
 60  -3.1783   7.7800  55.3464  -0.1845   0.4376   0.8800   0.6549   0.7841
 60   3.0936   7.6839  55.3424   0.1124   0.4503   0.8858   0.3563   0.7751
Backpack1.BMP
 60   3.0936   7.6839  55.3424   0.1124   0.4503   0.8858   0.3563   0.7751
 60   4.1210   8.4990  54.1971   0.3171   0.8381   0.4438   0.3036   0.7414
 60  -4.2339   8.6269  54.2025  -0.4093   0.7754   0.4809   0.7091   0.7413
Backpack1.BMP
 60  -4.2339   8.6269  54.2025  -0.4093   0.7754   0.4809   0.7091   0.7413
 60  -3.9199   6.9154  55.3100  -0.2596   0.0877   0.9617   0.7371   0.8350
 60  -3.1783   7.7800  55.3464  -0.1845   0.4376   0.8800   0.6549   0.7841
Backpack1.BMP
 60  -3.9199   6.9154  55.3100  -0.2596   0.0877   0.9617   0.7371   0.8350
 60  -4.2339   8.6269  54.2025  -0.4093   0.7754   0.4809   0.7091   0.7413
 60  -5.2218   7.4752  54.1540  -0.8853   0.1580   0.4374   0.7824   0.7511
Backpack1.BMP
 60   3.0891   8.9601  42.0575   0.1011   0.5601  -0.8222   0.3330   0.2130
 60   3.9143   8.1749  41.9592   0.2617   0.2718  -0.9261   0.3276   0.1245
 60  -3.9143   8.1987  41.9621  -0.2974   0.1771  -0.9382   0.6883   0.1247
Backpack1.BMP
 60  -3.9143   8.1987  41.9621  -0.2974   0.1771  -0.9382   0.6883   0.1247
 60  -3.1738   9.0552  42.0694  -0.2461   0.5351  -0.8081   0.6719   0.2038
 60   3.0891   8.9601  42.0575   0.1011   0.5601  -0.8222   0.3330   0.2130
Backpack1.BMP
 60   3.9143   8.1749  41.9592   0.2617   0.2718  -0.9261   0.3276   0.1245
 60   3.7450   4.6775  41.5213   0.4268   0.0920  -0.8997   0.3436   0.0239
 60  -3.7450   4.7727  41.5333  -0.2135   0.1110  -0.9706   0.6877   0.0205
Backpack1.BMP
 60  -3.7450   4.7727  41.5333  -0.2135   0.1110  -0.9706   0.6877   0.0205
 60  -3.9143   8.1987  41.9621  -0.2974   0.1771  -0.9382   0.6883   0.1247
 60   3.9143   8.1749  41.9592   0.2617   0.2718  -0.9261   0.3276   0.1245
Backpack1.BMP
 60   3.7504   3.3610  55.1603   0.3139  -0.2580   0.9137   0.3167   0.9657
 60   3.9199   6.8914  55.3090   0.3527   0.1682   0.9205   0.2719   0.8347
 60  -3.9199   6.9154  55.3100  -0.2596   0.0877   0.9617   0.7371   0.8350
Backpack1.BMP
 60  -3.9199   6.9154  55.3100  -0.2596   0.0877   0.9617   0.7371   0.8350
 60  -3.7504   3.4571  55.1643  -0.3340  -0.4744   0.8145   0.6874   0.9705
 60   3.7504   3.3610  55.1603   0.3139  -0.2580   0.9137   0.3167   0.9657
Backpack1.BMP
 60   3.0936   7.6839  55.3424   0.1124   0.4503   0.8858   0.3563   0.7751
 60  -3.1783   7.7800  55.3464  -0.1845   0.4376   0.8800   0.6549   0.7841
 60  -3.9199   6.9154  55.3100  -0.2596   0.0877   0.9617   0.7371   0.8350
Backpack1.BMP
 60  -3.9199   6.9154  55.3100  -0.2596   0.0877   0.9617   0.7371   0.8350
 60   3.9199   6.8914  55.3090   0.3527   0.1682   0.9205   0.2719   0.8347
 60   3.0936   7.6839  55.3424   0.1124   0.4503   0.8858   0.3563   0.7751
end
