version 1
nodes
  0 "Bip01"  -1
  1 "Bip01 Footsteps"   0
  2 "Bip01 Pelvis"   0
  3 "Bip01 Spine"   2
  4 "Bip01 Spine1"   3
  5 "Bip01 Spine2"   4
  6 "Bip01 Spine3"   5
  7 "Bip01 Neck"   6
  8 "Bip01 Head"   7
  9 "Dummy21"   8
 10 "Bip01 L Clavicle"   7
 11 "Bip01 L UpperArm"  10
 12 "Bip01 L Forearm"  11
 13 "Bip01 L Hand"  12
 14 "Bip01 L Finger0"  13
 15 "Bip01 L Finger01"  14
 16 "Dummy06"  15
 17 "Bip01 L Finger1"  13
 18 "Bip01 L Finger11"  17
 19 "Dummy03"  18
 20 "-- L knuckle"  17
 21 "-- L knuckle_end"  20
 22 "-- L Forearm twist"  12
 23 "-- L Forearm twist_end"  22
 24 "-- L wrist"  12
 25 "-- L wrist_end"  24
 26 "-- L Elbow"  11
 27 "--L Elbow_end"  26
 28 "-- L bicep twist"  11
 29 "-- L bicep twist_end"  28
 30 "-- L shoulder outside"  10
 31 "-- L shoulder outside_end"  30
 32 "-- L Shoulder inside"  10
 33 "-- L Shoulder inside_end"  32
 34 "Bip01 R Clavicle"   7
 35 "Bip01 R UpperArm"  34
 36 "Bip01 R Forearm"  35
 37 "Bip01 R Hand"  36
 38 "Bip01 R Finger0"  37
 39 "Bip01 R Finger01"  38
 40 "Dummy01"  39
 41 "Bip01 R Finger1"  37
 42 "Bip01 R Finger11"  41
 43 "Dummy02"  42
 44 "-- R knuckle"  41
 45 "Point06"  44
 46 "-- R wrist"  36
 47 "-- R wrist_end"  46
 48 "-- R forearm twist"  36
 49 "-- R forearm twist_end"  48
 50 "-- R Elbow"  35
 51 "--R Elbow_end"  50
 52 "-- R bicep twist"  35
 53 "-- R bicep twist_end"  52
 54 "-- R Shoulder inside"  34
 55 "-- R Shoulder inside_end"  54
 56 "-- R shoulder outside"  34
 57 "-- R shoulder outside_end"  56
 58 "-- Neck smooth"   6
 59 "-- neck smooth end"  58
 60 "Object04"   3
 61 "-- R Butt"   2
 62 "--R Butt_end"  61
 63 "-- L butt"   2
 64 "--L butt_end"  63
 65 "Bip01 L Thigh"   2
 66 "Bip01 L Calf"  65
 67 "Bip01 L Foot"  66
 68 "Bip01 L Toe0"  67
 69 "Dummy16"  68
 70 "-- L ankle"  66
 71 "-- L ankleend"  70
 72 "-- L Knee"  65
 73 "--L Knee_end"  72
 74 "Bip01 R Thigh"   2
 75 "Bip01 R Calf"  74
 76 "Bip01 R Foot"  75
 77 "Bip01 R Toe0"  76
 78 "Dummy11"  77
 79 "-- R Ankle"  75
 80 "-- R ankleend"  79
 81 "-- R Knee"  74
 82 "--R Knee_end"  81
end
skeleton
time 0
  0 0.233849 -2.251688 38.192150 0.000000 0.000000 -1.570795
  1 0.000000 -0.000000 -38.285538 0.000000 0.000000 1.570795
  2 -2.276934 0.000003 -1.238186 -1.570795 -1.570451 0.000000
  3 1.797145 0.711796 -0.000002 -0.000004 -0.000001 0.000739
  4 4.118605 -0.003279 -0.000000 -0.000000 -0.000000 0.000035
  5 4.118601 -0.003280 -0.000000 0.000000 -0.000000 0.000049
  6 4.118600 -0.003280 -0.000000 -0.000000 0.000000 -0.000009
  7 4.118531 -0.003538 -0.000000 -0.000000 0.000000 -0.019437
  8 4.443601 0.000000 0.000000 -0.000000 -0.000001 0.201740
  9 9.024063 -0.000001 0.000000 0.000000 0.000000 0.000000
 10 0.000004 0.003534 1.732721 -0.000040 -1.501696 -3.122911
 11 6.384776 -0.000000 0.000001 0.025648 -0.046980 0.004099
 12 10.242682 -0.000000 -0.000002 0.000000 -0.000000 -0.008014
 13 11.375562 0.000000 0.000005 -1.580468 -0.132234 0.009455
 14 0.728679 0.023429 -1.008292 1.705251 0.347372 0.567022
 15 2.136497 -0.000000 0.000001 0.000000 0.000000 0.287979
 16 2.313140 0.000000 -0.000000 0.000000 0.000000 0.000000
 17 3.115505 -0.886041 -0.021431 -0.000782 0.000152 0.191986
 18 2.011151 -0.000000 -0.000000 0.000000 0.000000 0.659566
 19 2.141380 0.000003 0.000000 0.000000 0.000000 0.000000
 20 1.734173 0.000003 -0.000000 0.000000 0.000000 0.330185
 21 0.000007 -4.440596 0.000000 1.570544 -0.062990 -0.195737
 22 6.000001 -0.000000 0.000000 -1.578050 0.000000 -0.000000
 23 0.000001 -4.440600 -0.000000 1.569944 -0.062987 0.004053
 24 11.375562 0.000000 0.000005 -1.575523 -0.074433 0.005312
 25 -0.000001 -4.440606 0.000000 1.570144 -0.062988 0.004040
 26 10.510129 0.000000 0.000000 -0.000000 0.000000 -1.574800
 27 0.000000 -1.748401 5.000000 0.000000 0.004007 1.602291
 28 5.500000 -0.000000 -0.000001 -0.011814 -0.000000 -0.000000
 29 -0.000002 -1.940598 4.999999 -0.044472 0.004003 -0.000180
 30 6.551491 0.000000 -0.000001 0.019708 -0.055281 0.008457
 31 0.000001 -1.940598 5.000001 -0.027189 -0.053376 0.005295
 32 6.551491 0.000000 -0.000001 0.010051 -0.028020 0.004425
 33 -0.000000 -1.940599 4.999999 -0.066572 -0.152786 -0.110311
 34 0.000004 0.003543 -1.732721 -0.000040 1.501696 -3.122992
 35 6.384777 -0.000000 -0.000001 -0.025648 0.046980 0.004099
 36 10.242681 -0.000000 0.000002 0.000000 0.000000 -0.008014
 37 11.375562 0.000000 -0.000002 1.580468 0.132234 0.009455
 38 0.728679 0.023429 1.008292 -1.705251 -0.347372 0.567022
 39 2.136496 -0.000001 0.000000 0.000000 -0.000000 0.287979
 40 2.313141 0.000000 0.000001 0.000000 0.000000 3.141593
 41 3.115505 -0.886040 0.021431 0.000782 -0.000152 0.191986
 42 2.011151 -0.000000 0.000000 0.000000 -0.000000 0.659566
 43 2.141380 -0.000002 -0.000000 0.000000 0.000000 3.141593
 44 1.734173 -0.000001 -0.000000 -0.000000 -0.000000 0.330185
 45 0.136314 -3.738190 2.525890 1.493698 2.759406 -1.474501
 46 11.389366 -0.000819 0.158785 1.575523 0.074433 0.005312
 47 0.000000 -4.440601 0.000000 1.570144 -3.078602 0.004040
 48 6.000001 -0.000000 0.000003 1.575523 0.000000 -0.000000
 49 0.000001 -4.440599 -0.000000 1.569944 -3.078603 0.004053
 50 10.510130 0.000000 -0.000001 -0.000000 -0.000000 -1.574800
 51 -0.000000 -1.748399 -5.000000 3.141593 0.004007 -1.539299
 52 5.499999 -0.000000 0.000001 0.010051 -0.000000 0.000000
 53 -0.000000 0.000000 -5.000000 -0.044472 3.137589 -0.000177
 54 6.551491 -0.000000 0.000001 -0.010051 0.028020 0.004424
 55 -1.266843 -1.937443 -4.950561 -0.066572 -2.988806 -0.110308
 56 6.551491 -0.000000 0.000001 -0.010051 0.028020 0.004424
 57 0.699371 -1.944208 -5.006848 -0.027189 -3.088217 0.005298
 58 4.226144 -0.003201 -0.000000 -0.000000 0.000000 0.000000
 59 0.000001 5.000000 -0.000000 -0.153564 0.000087 2.718702
 60 2.824548 -5.829052 -0.008822 -0.073160 1.570796 0.000000
 61 0.000005 -0.000005 -3.713579 -0.006814 3.056983 -0.063787
 62 0.000003 -0.000000 5.000000 3.053198 1.558589 -0.074927
 63 -0.000005 0.000005 3.713579 0.005299 -3.071082 -0.053070
 64 -0.000003 0.000000 -5.000000 -0.088725 1.558589 3.066335
 65 -0.000005 0.000007 3.619081 0.011132 -3.002289 -0.086533
 66 16.573919 -0.000000 0.000000 0.000000 0.000000 -0.162458
 67 15.128179 0.000000 0.000001 0.000920 -0.139743 0.076637
 68 5.758665 4.244730 0.000000 0.000000 0.000000 1.570796
 69 3.177725 -0.000000 0.000001 0.000000 0.000000 3.141593
 70 15.708952 0.000001 -0.000000 0.001562 -0.077726 0.040998
 71 0.275148 0.189215 -3.445207 3.130898 0.000409 -1.514604
 72 17.210194 -0.000000 0.000001 -0.000000 0.000000 -1.486823
 73 0.000000 -0.000001 -5.000000 -0.079429 1.546568 -1.570852
 74 0.000005 -0.000003 -3.619081 -0.011130 3.002286 -0.086533
 75 16.573919 0.000000 0.000000 -0.000000 -0.000000 -0.162458
 76 15.128179 0.000000 0.000000 -0.000920 0.139743 0.076637
 77 5.758665 4.244731 -0.000000 -0.000000 -0.000000 1.570796
 78 4.003934 -0.000000 0.000000 0.000000 0.000000 0.000000
 79 15.708954 0.000002 0.000000 -0.001364 0.104219 0.055002
 80 0.273998 0.191090 3.439762 -3.130907 -0.000437 -1.508107
 81 17.210192 -0.000000 0.000000 0.000000 -0.000000 -1.486823
 82 0.000000 -0.000000 5.000000 -0.079311 1.595025 -1.570737
end
triangles
Backpack2.BMP
 60  -8.0105   4.0604  42.0544  -0.7812   0.4040  -0.4627   0.7772   0.5194
 60  -8.0296   3.5364  42.3906  -0.9957  -0.0851  -0.0390   0.8177   0.5352
 60  -8.1936   4.3678  42.4255  -0.9179   0.2988  -0.2508   0.7628   0.5353
Backpack2.BMP
 60  -6.8223   1.5498  44.0920  -0.7840  -0.6031   0.1210   0.9735   0.6758
 60  -7.9661   3.4492  44.2927  -0.9390  -0.2999   0.1571   0.8176   0.6758
 60  -8.0296   3.5364  42.3906  -0.9957  -0.0851  -0.0390   0.8177   0.5352
Backpack2.BMP
 60  -2.1996   8.7227  42.4255  -0.1198   0.9615  -0.2065   0.2421   0.5371
 60  -1.4596   8.3098  42.3906   0.5060   0.8546  -0.0717   0.1859   0.5389
 60  -1.9639   8.4536  42.0543  -0.1349   0.9577  -0.2138   0.2277   0.5212
Backpack2.BMP
 60  -1.3963   8.2224  44.2927   0.6212   0.7579   0.2176   0.1860   0.6795
 60   0.0567   6.5476  44.0920   0.8788   0.4737   0.0633   0.0301   0.6795
 60  -1.4596   8.3098  42.3906   0.5060   0.8546  -0.0717   0.1859   0.5389
Backpack2.BMP
 60  -8.1936   4.3678  42.4255  -0.9179   0.2988  -0.2508   0.7628   0.5353
 60  -7.8611   3.8424  45.1779  -0.7920   0.0816   0.6089   0.7699   0.7191
 60  -2.1996   8.7227  42.4255  -0.1198   0.9615  -0.2065   0.2421   0.5371
Backpack2.BMP
 60  -1.8026   8.2441  45.1779   0.1703   0.7728   0.6358   0.2235   0.7203
 60  -2.1996   8.7227  42.4255  -0.1198   0.9615  -0.2065   0.2421   0.5371
 60  -7.8611   3.8424  45.1779  -0.7920   0.0816   0.6089   0.7699   0.7191
Backpack2.BMP
 60  -7.9661   3.4492  44.2927  -0.9390  -0.2999   0.1571   0.8176   0.6758
 60  -7.8611   3.8424  45.1779  -0.7920   0.0816   0.6089   0.7699   0.7191
 60  -8.0296   3.5364  42.3906  -0.9957  -0.0851  -0.0390   0.8177   0.5352
Backpack2.BMP
 60  -8.1936   4.3678  42.4255  -0.9179   0.2988  -0.2508   0.7628   0.5353
 60  -8.0296   3.5364  42.3906  -0.9957  -0.0851  -0.0390   0.8177   0.5352
 60  -7.8611   3.8424  45.1779  -0.7920   0.0816   0.6089   0.7699   0.7191
Backpack2.BMP
 60  -8.1936   4.3678  42.4255  -0.9179   0.2988  -0.2508   0.7628   0.5353
 60  -2.1996   8.7227  42.4255  -0.1198   0.9615  -0.2065   0.2421   0.5371
 60  -8.0105   4.0604  42.0544  -0.7812   0.4040  -0.4627   0.7772   0.5194
Backpack2.BMP
 60  -1.9639   8.4536  42.0543  -0.1349   0.9577  -0.2138   0.2277   0.5212
 60  -8.0105   4.0604  42.0544  -0.7812   0.4040  -0.4627   0.7772   0.5194
 60  -2.1996   8.7227  42.4255  -0.1198   0.9615  -0.2065   0.2421   0.5371
Backpack2.BMP
 60  -8.0105   4.0604  42.0544  -0.7812   0.4040  -0.4627   0.7772   0.5194
 60  -1.9639   8.4536  42.0543  -0.1349   0.9577  -0.2138   0.2277   0.5212
 60  -8.0049   4.0152  38.2737  -0.8935   0.3201  -0.3040   0.7792   0.2366
Backpack2.BMP
 60  -1.9226   8.4342  38.2737   0.0414   0.7188  -0.6696   0.2234   0.2378
 60  -8.0049   4.0152  38.2737  -0.8935   0.3201  -0.3040   0.7792   0.2366
 60  -1.9639   8.4536  42.0543  -0.1349   0.9577  -0.2138   0.2277   0.5212
Backpack2.BMP
 60  -8.0742   3.5792  39.0943  -0.9158  -0.3711  -0.1640   0.8247   0.2874
 60  -8.0296   3.5364  42.3906  -0.9957  -0.0851  -0.0390   0.8177   0.5352
 60  -8.0049   4.0152  38.2737  -0.8935   0.3201  -0.3040   0.7792   0.2366
Backpack2.BMP
 60  -8.0105   4.0604  42.0544  -0.7812   0.4040  -0.4627   0.7772   0.5194
 60  -8.0049   4.0152  38.2737  -0.8935   0.3201  -0.3040   0.7792   0.2366
 60  -8.0296   3.5364  42.3906  -0.9957  -0.0851  -0.0390   0.8177   0.5352
Backpack2.BMP
 60  -8.0049   4.0152  38.2737  -0.8935   0.3201  -0.3040   0.7792   0.2366
 60  -1.9226   8.4342  38.2737   0.0414   0.7188  -0.6696   0.2234   0.2378
 60  -6.6416   1.7508  37.9819  -0.3663  -0.6129  -0.7205   0.7855   0.0005
Backpack2.BMP
 60  -0.1904   6.4379  37.9819   0.9074  -0.0352  -0.4208   0.2243   0.0005
 60  -6.6416   1.7508  37.9819  -0.3663  -0.6129  -0.7205   0.7855   0.0005
 60  -1.9226   8.4342  38.2737   0.0414   0.7188  -0.6696   0.2234   0.2378
Backpack2.BMP
 60  -7.0479   1.8744  38.8746  -0.6448  -0.7533  -0.1436   0.9647   0.2856
 60  -8.0742   3.5792  39.0943  -0.9158  -0.3711  -0.1640   0.8247   0.2874
 60  -6.6416   1.7508  37.9819  -0.3663  -0.6129  -0.7205   0.9885   0.2451
Backpack2.BMP
 60  -8.0049   4.0152  38.2737  -0.8935   0.3201  -0.3040   0.7792   0.2366
 60  -6.6416   1.7508  37.9819  -0.3663  -0.6129  -0.7205   0.9885   0.2451
 60  -8.0742   3.5792  39.0943  -0.9158  -0.3711  -0.1640   0.8247   0.2874
Backpack2.BMP
 60  -6.6416   1.7508  37.9819  -0.3663  -0.6129  -0.7205   0.7704   0.7302
 60  -0.1904   6.4379  37.9819   0.9074  -0.0352  -0.4208   0.2263   0.7263
 60  -6.3421   1.3197  44.9113  -0.0732  -0.9558   0.2454   0.7749   0.9917
Backpack2.BMP
 60   0.1271   6.0198  44.9113   0.7587   0.0849   0.6499   0.2292   0.9879
 60  -6.3421   1.3197  44.9113  -0.0732  -0.9558   0.2454   0.7749   0.9917
 60  -0.1904   6.4379  37.9819   0.9074  -0.0352  -0.4208   0.2263   0.7263
Backpack2.BMP
 60  -6.8223   1.5498  44.0920  -0.7840  -0.6031   0.1210   0.9735   0.6758
 60  -7.0479   1.8744  38.8746  -0.6448  -0.7533  -0.1436   0.9647   0.2856
 60  -6.3421   1.3197  44.9113  -0.0732  -0.9558   0.2454   0.9995   0.7163
Backpack2.BMP
 60  -6.6416   1.7508  37.9819  -0.3663  -0.6129  -0.7205   0.9885   0.2451
 60  -6.3421   1.3197  44.9113  -0.0732  -0.9558   0.2454   0.9995   0.7163
 60  -7.0479   1.8744  38.8746  -0.6448  -0.7533  -0.1436   0.9647   0.2856
Backpack2.BMP
 60  -6.3421   1.3197  44.9113  -0.0732  -0.9558   0.2454   0.7749   0.9917
 60   0.1271   6.0198  44.9113   0.7587   0.0849   0.6499   0.2292   0.9879
 60  -7.8611   3.8424  45.1779  -0.7920   0.0816   0.6089   0.7699   0.7191
Backpack2.BMP
 60  -1.8026   8.2441  45.1779   0.1703   0.7728   0.6358   0.2235   0.7203
 60  -7.8611   3.8424  45.1779  -0.7920   0.0816   0.6089   0.7699   0.7191
 60   0.1271   6.0198  44.9113   0.7587   0.0849   0.6499   0.2292   0.9879
Backpack2.BMP
 60  -7.9661   3.4492  44.2927  -0.9390  -0.2999   0.1571   0.8176   0.6758
 60  -6.8223   1.5498  44.0920  -0.7840  -0.6031   0.1210   0.9735   0.6758
 60  -7.8611   3.8424  45.1779  -0.7920   0.0816   0.6089   0.7699   0.7191
Backpack2.BMP
 60  -6.3421   1.3197  44.9113  -0.0732  -0.9558   0.2454   0.9995   0.7163
 60  -7.8611   3.8424  45.1779  -0.7920   0.0816   0.6089   0.7699   0.7191
 60  -6.8223   1.5498  44.0920  -0.7840  -0.6031   0.1210   0.9735   0.6758
Backpack2.BMP
 60  -7.0479   1.8744  38.8746  -0.6448  -0.7533  -0.1436   0.9647   0.2856
 60  -6.8223   1.5498  44.0920  -0.7840  -0.6031   0.1210   0.9735   0.6758
 60  -8.0742   3.5792  39.0943  -0.9158  -0.3711  -0.1640   0.8247   0.2874
Backpack2.BMP
 60  -8.0296   3.5364  42.3906  -0.9957  -0.0851  -0.0390   0.8177   0.5352
 60  -8.0742   3.5792  39.0943  -0.9158  -0.3711  -0.1640   0.8247   0.2874
 60  -6.8223   1.5498  44.0920  -0.7840  -0.6031   0.1210   0.9735   0.6758
Backpack2.BMP
 60  -1.4596   8.3098  42.3906   0.5060   0.8546  -0.0717   0.1859   0.5389
 60  -2.1996   8.7227  42.4255  -0.1198   0.9615  -0.2065   0.2421   0.5371
 60  -1.3963   8.2224  44.2927   0.6212   0.7579   0.2176   0.1860   0.6795
Backpack2.BMP
 60  -1.8026   8.2441  45.1779   0.1703   0.7728   0.6358   0.2235   0.7203
 60  -1.3963   8.2224  44.2927   0.6212   0.7579   0.2176   0.1860   0.6795
 60  -2.1996   8.7227  42.4255  -0.1198   0.9615  -0.2065   0.2421   0.5371
Backpack2.BMP
 60  -1.4596   8.3098  42.3906   0.5060   0.8546  -0.0717   0.1859   0.5389
 60  -1.4865   8.3655  39.0942   0.5830   0.7977  -0.1175   0.1750   0.2912
 60  -1.9639   8.4536  42.0543  -0.1349   0.9577  -0.2138   0.2277   0.5212
Backpack2.BMP
 60  -1.9226   8.4342  38.2737   0.0414   0.7188  -0.6696   0.2234   0.2378
 60  -1.9639   8.4536  42.0543  -0.1349   0.9577  -0.2138   0.2277   0.5212
 60  -1.4865   8.3655  39.0942   0.5830   0.7977  -0.1175   0.1750   0.2912
Backpack2.BMP
 60  -1.4865   8.3655  39.0942   0.5830   0.7977  -0.1175   0.1750   0.2912
 60  -0.1824   6.8625  38.8746   0.8630   0.4779  -0.1448   0.0349   0.2893
 60  -0.1904   6.4379  37.9819   0.9074  -0.0352  -0.4208   0.0075   0.2488
Backpack2.BMP
 60  -0.1904   6.4379  37.9819   0.9074  -0.0352  -0.4208   0.0075   0.2488
 60  -1.9226   8.4342  38.2737   0.0414   0.7188  -0.6696   0.2234   0.2378
 60  -1.4865   8.3655  39.0942   0.5830   0.7977  -0.1175   0.1750   0.2912
Backpack2.BMP
 60  -0.1824   6.8625  38.8746   0.8630   0.4779  -0.1448   0.0349   0.2893
 60   0.0567   6.5476  44.0920   0.8788   0.4737   0.0633   0.0301   0.6795
 60  -0.1904   6.4379  37.9819   0.9074  -0.0352  -0.4208   0.0075   0.2488
Backpack2.BMP
 60   0.1271   6.0198  44.9113   0.7587   0.0849   0.6499   0.0005   0.7200
 60  -0.1904   6.4379  37.9819   0.9074  -0.0352  -0.4208   0.0075   0.2488
 60   0.0567   6.5476  44.0920   0.8788   0.4737   0.0633   0.0301   0.6795
Backpack2.BMP
 60   0.0567   6.5476  44.0920   0.8788   0.4737   0.0633   0.0301   0.6795
 60  -1.3963   8.2224  44.2927   0.6212   0.7579   0.2176   0.1860   0.6795
 60   0.1271   6.0198  44.9113   0.7587   0.0849   0.6499   0.0005   0.7200
Backpack2.BMP
 60  -1.8026   8.2441  45.1779   0.1703   0.7728   0.6358   0.2235   0.7203
 60   0.1271   6.0198  44.9113   0.7587   0.0849   0.6499   0.0005   0.7200
 60  -1.3963   8.2224  44.2927   0.6212   0.7579   0.2176   0.1860   0.6795
Backpack2.BMP
 60  -0.1824   6.8625  38.8746   0.8630   0.4779  -0.1448   0.0349   0.2893
 60  -1.4865   8.3655  39.0942   0.5830   0.7977  -0.1175   0.1750   0.2912
 60   0.0567   6.5476  44.0920   0.8788   0.4737   0.0633   0.0301   0.6795
Backpack2.BMP
 60  -1.4596   8.3098  42.3906   0.5060   0.8546  -0.0717   0.1859   0.5389
 60   0.0567   6.5476  44.0920   0.8788   0.4737   0.0633   0.0301   0.6795
 60  -1.4865   8.3655  39.0942   0.5830   0.7977  -0.1175   0.1750   0.2912
Backpack2.BMP
 60   2.4139   8.4528  42.0544   0.1503   0.8611  -0.4542   0.7772   0.5194
 60   1.9097   8.3090  42.3906  -0.3883   0.9178  -0.0205   0.8177   0.5352
 60   2.6496   8.7220  42.4255   0.0048   0.9605  -0.2386   0.7628   0.5353
Backpack2.BMP
 60   0.3933   6.5470  44.0920  -0.8192   0.5587   0.1424   0.9735   0.6758
 60   1.8463   8.2217  44.2927  -0.5784   0.7997   0.1774   0.8176   0.6758
 60   1.9097   8.3090  42.3906  -0.3883   0.9178  -0.0205   0.8177   0.5352
Backpack2.BMP
 60   8.6437   4.3670  42.4255   0.8829   0.4085  -0.2167   0.2421   0.5371
 60   8.4796   3.5357  42.3906   0.9725  -0.2168  -0.0916   0.1859   0.5389
 60   8.4605   4.0597  42.0543   0.8747   0.4215  -0.2237   0.2277   0.5212
Backpack2.BMP
 60   8.4161   3.4485  44.2927   0.9118  -0.3530   0.1971   0.1860   0.6795
 60   7.2723   1.5491  44.0920   0.7225  -0.6867   0.0419   0.0301   0.6795
 60   8.4796   3.5357  42.3906   0.9725  -0.2168  -0.0916   0.1859   0.5389
Backpack2.BMP
 60   2.6496   8.7220  42.4255   0.0048   0.9605  -0.2386   0.7628   0.5353
 60   2.2527   8.2434  45.1779  -0.1754   0.7827   0.6218   0.7699   0.7191
 60   8.6437   4.3670  42.4255   0.8829   0.4085  -0.2167   0.2421   0.5371
Backpack2.BMP
 60   8.3112   3.8416  45.1779   0.7808   0.0835   0.6230   0.2235   0.7203
 60   8.6437   4.3670  42.4255   0.8829   0.4085  -0.2167   0.2421   0.5371
 60   2.2527   8.2434  45.1779  -0.1754   0.7827   0.6218   0.7699   0.7191
Backpack2.BMP
 60   1.8463   8.2217  44.2927  -0.5784   0.7997   0.1774   0.8176   0.6758
 60   2.2527   8.2434  45.1779  -0.1754   0.7827   0.6218   0.7699   0.7191
 60   1.9097   8.3090  42.3906  -0.3883   0.9178  -0.0205   0.8177   0.5352
Backpack2.BMP
 60   2.6496   8.7220  42.4255   0.0048   0.9605  -0.2386   0.7628   0.5353
 60   1.9097   8.3090  42.3906  -0.3883   0.9178  -0.0205   0.8177   0.5352
 60   2.2527   8.2434  45.1779  -0.1754   0.7827   0.6218   0.7699   0.7191
Backpack2.BMP
 60   2.6496   8.7220  42.4255   0.0048   0.9605  -0.2386   0.7628   0.5353
 60   8.6437   4.3670  42.4255   0.8829   0.4085  -0.2167   0.2421   0.5371
 60   2.4139   8.4528  42.0544   0.1503   0.8611  -0.4542   0.7772   0.5194
Backpack2.BMP
 60   8.4605   4.0597  42.0543   0.8747   0.4215  -0.2237   0.2277   0.5212
 60   2.4139   8.4528  42.0544   0.1503   0.8611  -0.4542   0.7772   0.5194
 60   8.6437   4.3670  42.4255   0.8829   0.4085  -0.2167   0.2421   0.5371
Backpack2.BMP
 60   2.4139   8.4528  42.0544   0.1503   0.8611  -0.4542   0.7772   0.5194
 60   8.4605   4.0597  42.0543   0.8747   0.4215  -0.2237   0.2277   0.5212
 60   2.3726   8.4335  38.2737   0.0334   0.9434  -0.2925   0.7792   0.2366
Backpack2.BMP
 60   8.4549   4.0145  38.2737   0.7077   0.1759  -0.6796   0.2234   0.2378
 60   2.3726   8.4335  38.2737   0.0334   0.9434  -0.2925   0.7792   0.2366
 60   8.4605   4.0597  42.0543   0.8747   0.4215  -0.2237   0.2277   0.5212
Backpack2.BMP
 60   1.9365   8.3647  39.0943  -0.6346   0.7525  -0.1432   0.8247   0.2874
 60   1.9097   8.3090  42.3906  -0.3883   0.9178  -0.0205   0.8177   0.5352
 60   2.3726   8.4335  38.2737   0.0334   0.9434  -0.2925   0.7792   0.2366
Backpack2.BMP
 60   2.4139   8.4528  42.0544   0.1503   0.8611  -0.4542   0.7772   0.5194
 60   2.3726   8.4335  38.2737   0.0334   0.9434  -0.2925   0.7792   0.2366
 60   1.9097   8.3090  42.3906  -0.3883   0.9178  -0.0205   0.8177   0.5352
Backpack2.BMP
 60   2.3726   8.4335  38.2737   0.0334   0.9434  -0.2925   0.7792   0.2366
 60   8.4549   4.0145  38.2737   0.7077   0.1759  -0.6796   0.2234   0.2378
 60   0.6403   6.4373  37.9819  -0.6877   0.1509  -0.7064   0.7855   0.0005
Backpack2.BMP
 60   7.0916   1.7501  37.9819   0.2527  -0.8759  -0.4363   0.2243   0.0005
 60   0.6403   6.4373  37.9819  -0.6877   0.1509  -0.7064   0.7855   0.0005
 60   8.4549   4.0145  38.2737   0.7077   0.1759  -0.6796   0.2234   0.2378
Backpack2.BMP
 60   0.6323   6.8618  38.8746  -0.9157   0.3775  -0.1226   0.9647   0.2856
 60   1.9365   8.3647  39.0943  -0.6346   0.7525  -0.1432   0.8247   0.2874
 60   0.6403   6.4373  37.9819  -0.6877   0.1509  -0.7064   0.9885   0.2451
Backpack2.BMP
 60   2.3726   8.4335  38.2737   0.0334   0.9434  -0.2925   0.7792   0.2366
 60   0.6403   6.4373  37.9819  -0.6877   0.1509  -0.7064   0.9885   0.2451
 60   1.9365   8.3647  39.0943  -0.6346   0.7525  -0.1432   0.8247   0.2874
Backpack2.BMP
 60   0.6403   6.4373  37.9819  -0.6877   0.1509  -0.7064   0.7704   0.7302
 60   7.0916   1.7501  37.9819   0.2527  -0.8759  -0.4363   0.2263   0.7263
 60   0.3229   6.0191  44.9113  -0.9377  -0.2233   0.2590   0.7749   0.9917
Backpack2.BMP
 60   6.7920   1.3190  44.9113   0.3063  -0.6870   0.6356   0.2292   0.9879
 60   0.3229   6.0191  44.9113  -0.9377  -0.2233   0.2590   0.7749   0.9917
 60   7.0916   1.7501  37.9819   0.2527  -0.8759  -0.4363   0.2263   0.7263
Backpack2.BMP
 60   0.3933   6.5470  44.0920  -0.8192   0.5587   0.1424   0.9735   0.6758
 60   0.6323   6.8618  38.8746  -0.9157   0.3775  -0.1226   0.9647   0.2856
 60   0.3229   6.0191  44.9113  -0.9377  -0.2233   0.2590   0.9995   0.7163
Backpack2.BMP
 60   0.6403   6.4373  37.9819  -0.6877   0.1509  -0.7064   0.9885   0.2451
 60   0.3229   6.0191  44.9113  -0.9377  -0.2233   0.2590   0.9995   0.7163
 60   0.6323   6.8618  38.8746  -0.9157   0.3775  -0.1226   0.9647   0.2856
Backpack2.BMP
 60   0.3229   6.0191  44.9113  -0.9377  -0.2233   0.2590   0.7749   0.9917
 60   6.7920   1.3190  44.9113   0.3063  -0.6870   0.6356   0.2292   0.9879
 60   2.2527   8.2434  45.1779  -0.1754   0.7827   0.6218   0.7699   0.7191
Backpack2.BMP
 60   8.3112   3.8416  45.1779   0.7808   0.0835   0.6230   0.2235   0.7203
 60   2.2527   8.2434  45.1779  -0.1754   0.7827   0.6218   0.7699   0.7191
 60   6.7920   1.3190  44.9113   0.3063  -0.6870   0.6356   0.2292   0.9879
Backpack2.BMP
 60   1.8463   8.2217  44.2927  -0.5784   0.7997   0.1774   0.8176   0.6758
 60   0.3933   6.5470  44.0920  -0.8192   0.5587   0.1424   0.9735   0.6758
 60   2.2527   8.2434  45.1779  -0.1754   0.7827   0.6218   0.7699   0.7191
Backpack2.BMP
 60   0.3229   6.0191  44.9113  -0.9377  -0.2233   0.2590   0.9995   0.7163
 60   2.2527   8.2434  45.1779  -0.1754   0.7827   0.6218   0.7699   0.7191
 60   0.3933   6.5470  44.0920  -0.8192   0.5587   0.1424   0.9735   0.6758
Backpack2.BMP
 60   0.6323   6.8618  38.8746  -0.9157   0.3775  -0.1226   0.9647   0.2856
 60   0.3933   6.5470  44.0920  -0.8192   0.5587   0.1424   0.9735   0.6758
 60   1.9365   8.3647  39.0943  -0.6346   0.7525  -0.1432   0.8247   0.2874
Backpack2.BMP
 60   1.9097   8.3090  42.3906  -0.3883   0.9178  -0.0205   0.8177   0.5352
 60   1.9365   8.3647  39.0943  -0.6346   0.7525  -0.1432   0.8247   0.2874
 60   0.3933   6.5470  44.0920  -0.8192   0.5587   0.1424   0.9735   0.6758
Backpack2.BMP
 60   8.4796   3.5357  42.3906   0.9725  -0.2168  -0.0916   0.1859   0.5389
 60   8.6437   4.3670  42.4255   0.8829   0.4085  -0.2167   0.2421   0.5371
 60   8.4161   3.4485  44.2927   0.9118  -0.3530   0.1971   0.1860   0.6795
Backpack2.BMP
 60   8.3112   3.8416  45.1779   0.7808   0.0835   0.6230   0.2235   0.7203
 60   8.4161   3.4485  44.2927   0.9118  -0.3530   0.1971   0.1860   0.6795
 60   8.6437   4.3670  42.4255   0.8829   0.4085  -0.2167   0.2421   0.5371
Backpack2.BMP
 60   8.4796   3.5357  42.3906   0.9725  -0.2168  -0.0916   0.1859   0.5389
 60   8.5243   3.5785  39.0942   0.9426  -0.3079  -0.1379   0.1750   0.2912
 60   8.4605   4.0597  42.0543   0.8747   0.4215  -0.2237   0.2277   0.5212
Backpack2.BMP
 60   8.4549   4.0145  38.2737   0.7077   0.1759  -0.6796   0.2234   0.2378
 60   8.4605   4.0597  42.0543   0.8747   0.4215  -0.2237   0.2277   0.5212
 60   8.5243   3.5785  39.0942   0.9426  -0.3079  -0.1379   0.1750   0.2912
Backpack2.BMP
 60   8.5243   3.5785  39.0942   0.9426  -0.3079  -0.1379   0.1750   0.2912
 60   7.4978   1.8737  38.8746   0.7245  -0.6725  -0.1661   0.0349   0.2893
 60   7.0916   1.7501  37.9819   0.2527  -0.8759  -0.4363   0.0075   0.2488
Backpack2.BMP
 60   7.0916   1.7501  37.9819   0.2527  -0.8759  -0.4363   0.0075   0.2488
 60   8.4549   4.0145  38.2737   0.7077   0.1759  -0.6796   0.2234   0.2378
 60   8.5243   3.5785  39.0942   0.9426  -0.3079  -0.1379   0.1750   0.2912
Backpack2.BMP
 60   7.4978   1.8737  38.8746   0.7245  -0.6725  -0.1661   0.0349   0.2893
 60   7.2723   1.5491  44.0920   0.7225  -0.6867   0.0419   0.0301   0.6795
 60   7.0916   1.7501  37.9819   0.2527  -0.8759  -0.4363   0.0075   0.2488
Backpack2.BMP
 60   6.7920   1.3190  44.9113   0.3063  -0.6870   0.6356   0.0005   0.7200
 60   7.0916   1.7501  37.9819   0.2527  -0.8759  -0.4363   0.0075   0.2488
 60   7.2723   1.5491  44.0920   0.7225  -0.6867   0.0419   0.0301   0.6795
Backpack2.BMP
 60   7.2723   1.5491  44.0920   0.7225  -0.6867   0.0419   0.0301   0.6795
 60   8.4161   3.4485  44.2927   0.9118  -0.3530   0.1971   0.1860   0.6795
 60   6.7920   1.3190  44.9113   0.3063  -0.6870   0.6356   0.0005   0.7200
Backpack2.BMP
 60   8.3112   3.8416  45.1779   0.7808   0.0835   0.6230   0.2235   0.7203
 60   6.7920   1.3190  44.9113   0.3063  -0.6870   0.6356   0.0005   0.7200
 60   8.4161   3.4485  44.2927   0.9118  -0.3530   0.1971   0.1860   0.6795
Backpack2.BMP
 60   7.4978   1.8737  38.8746   0.7245  -0.6725  -0.1661   0.0349   0.2893
 60   8.5243   3.5785  39.0942   0.9426  -0.3079  -0.1379   0.1750   0.2912
 60   7.2723   1.5491  44.0920   0.7225  -0.6867   0.0419   0.0301   0.6795
Backpack2.BMP
 60   8.4796   3.5357  42.3906   0.9725  -0.2168  -0.0916   0.1859   0.5389
 60   7.2723   1.5491  44.0920   0.7225  -0.6867   0.0419   0.0301   0.6795
 60   8.5243   3.5785  39.0942   0.9426  -0.3079  -0.1379   0.1750   0.2912
end
