version 1
nodes
  0 "Bomb"  -1
end
skeleton
time 0
  0 -0.000001 0.018760 2.917553 1.568614 3.124139 -0.000000
end
triangles
Backpack1.BMP
  0  -4.9464   5.9036   0.0299   0.0035   0.5983  -0.8012   0.6972   0.4226
  0  -3.7079   6.8718   0.7583   0.0035   0.5983  -0.8012   0.6503   0.4330
  0   3.7827   6.8747   0.7931   0.0035   0.5983  -0.8012   0.3699   0.4331
Backpack1.BMP
  0   3.7827   6.8747   0.7931   0.0035   0.5983  -0.8013   0.3699   0.4331
  0   5.0464   5.9075   0.0764   0.0035   0.5983  -0.8013   0.3231   0.4226
  0  -4.9464   5.9036   0.0299   0.0035   0.5983  -0.8013   0.6972   0.4226
Backpack1.BMP
  0   5.0468  -5.6853   0.0511   0.0047   0.0022  -1.0000   0.3231   0.2956
  0  -4.9459  -5.6788   0.0046   0.0047   0.0022  -1.0000   0.6972   0.2957
  0  -4.9464   5.9036   0.0299   0.0047   0.0022  -1.0000   0.6972   0.4226
Backpack1.BMP
  0  -4.9464   5.9036   0.0299   0.0047   0.0022  -1.0000   0.6972   0.4226
  0   5.0464   5.9075   0.0764   0.0047   0.0022  -1.0000   0.3231   0.4226
  0   5.0468  -5.6853   0.0511   0.0047   0.0022  -1.0000   0.3231   0.2956
Backpack1.BMP
  0   5.1901   5.7631   4.7795   0.8547   0.4652   0.2304   0.2645   0.2083
  0   5.1906  -5.4419   4.7551   0.8155  -0.4255   0.3924   0.2480   0.7629
  0   5.0468  -5.6853   0.0511   0.7317  -0.4896  -0.4742   0.0360   0.7664
Backpack1.BMP
  0   5.0468  -5.6853   0.0511   0.7317  -0.4896  -0.4742   0.0360   0.7664
  0   5.0464   5.9075   0.0764   0.8970   0.4418  -0.0138   0.0340   0.2082
  0   5.1901   5.7631   4.7795   0.8547   0.4652   0.2304   0.2645   0.2083
Backpack1.BMP
  0   3.7827   6.8747   0.7931   0.4266   0.9043   0.0147   0.0653   0.1690
  0   3.8905   6.7665   4.3186   0.2585   0.9475   0.1884   0.2343   0.1697
  0   5.1901   5.7631   4.7795   0.8547   0.4652   0.2304   0.2645   0.2083
Backpack1.BMP
  0   5.1901   5.7631   4.7795   0.8547   0.4652   0.2304   0.2645   0.2083
  0   5.0464   5.9075   0.0764   0.8970   0.4418  -0.0138   0.0340   0.2082
  0   3.7827   6.8747   0.7931   0.4266   0.9043   0.0147   0.0645   0.1690
Backpack1.BMP
  0   3.8905   6.7665   4.3186   0.2585   0.9475   0.1884   0.3276   0.1245
  0   3.0516   6.7422   5.0950   0.0927   0.8711   0.4823   0.3330   0.2130
  0   4.0711   5.7307   5.8152   0.4209   0.4038   0.8123   0.3028   0.2376
Backpack1.BMP
  0   4.0711   5.7307   5.8152   0.4209   0.4038   0.8123   0.3028   0.2376
  0   5.1901   5.7631   4.7795   0.8547   0.4652   0.2304   0.2645   0.2083
  0   3.8905   6.7665   4.3186   0.2585   0.9475   0.1884   0.3276   0.1245
Backpack1.BMP
  0   4.0711   5.7307   5.8152   0.4209   0.4038   0.8123   0.3028   0.2376
  0   4.0715  -5.3873   5.7910   0.3018  -0.3634   0.8814   0.3036   0.7414
  0   5.1906  -5.4419   4.7551   0.8155  -0.4255   0.3924   0.2480   0.7629
Backpack1.BMP
  0   5.1906  -5.4419   4.7551   0.8155  -0.4255   0.3924   0.2480   0.7629
  0   5.1901   5.7631   4.7795   0.8547   0.4652   0.2304   0.2645   0.2083
  0   4.0711   5.7307   5.8152   0.4209   0.4038   0.8123   0.3028   0.2376
Backpack1.BMP
  0   3.0516   6.7422   5.0950   0.0927   0.8711   0.4823   0.3330   0.2130
  0  -3.2120   6.7392   5.0815  -0.2540   0.8547   0.4527   0.6719   0.2038
  0  -4.2848   5.7267   5.7973  -0.2387   0.3712   0.8974   0.6952   0.2424
Backpack1.BMP
  0  -4.2848   5.7267   5.7973  -0.2387   0.3712   0.8974   0.6952   0.2424
  0   4.0711   5.7307   5.8152   0.4209   0.4038   0.8123   0.3028   0.2376
  0   3.0516   6.7422   5.0950   0.0927   0.8711   0.4823   0.3330   0.2130
Backpack1.BMP
  0  -4.2848   5.7267   5.7973  -0.2387   0.3712   0.8974   0.6952   0.2424
  0  -4.2844  -5.3807   5.7731  -0.4235  -0.4061   0.8098   0.7091   0.7413
  0   4.0715  -5.3873   5.7910   0.3018  -0.3634   0.8814   0.3036   0.7414
Backpack1.BMP
  0   4.0715  -5.3873   5.7910   0.3018  -0.3634   0.8814   0.3036   0.7414
  0   4.0711   5.7307   5.8152   0.4209   0.4038   0.8123   0.3028   0.2376
  0  -4.2848   5.7267   5.7973  -0.2387   0.3712   0.8974   0.6952   0.2424
Backpack1.BMP
  0  -3.2120   6.7392   5.0815  -0.2540   0.8547   0.4527   0.6719   0.2038
  0  -3.9374   6.7657   4.2060  -0.2989   0.9506   0.0832   0.6883   0.1247
  0  -5.2525   5.7621   4.6292  -0.7963   0.4600   0.3929   0.7449   0.2042
Backpack1.BMP
  0  -5.2525   5.7621   4.6292  -0.7963   0.4600   0.3929   0.7449   0.2042
  0  -4.2848   5.7267   5.7973  -0.2387   0.3712   0.8974   0.6952   0.2424
  0  -3.2120   6.7392   5.0815  -0.2540   0.8547   0.4527   0.6719   0.2038
Backpack1.BMP
  0  -5.2525   5.7621   4.6292  -0.7963   0.4600   0.3929   0.7449   0.2042
  0  -5.2521  -5.4403   4.6048  -0.8886  -0.4207   0.1828   0.7824   0.7511
  0  -4.2844  -5.3807   5.7731  -0.4235  -0.4061   0.8098   0.7091   0.7413
Backpack1.BMP
  0  -4.2844  -5.3807   5.7731  -0.4235  -0.4061   0.8098   0.7091   0.7413
  0  -4.2848   5.7267   5.7973  -0.2387   0.3712   0.8974   0.6952   0.2424
  0  -5.2525   5.7621   4.6292  -0.7963   0.4600   0.3929   0.7449   0.2042
Backpack1.BMP
  0  -3.9374   6.7657   4.2060  -0.2989   0.9506   0.0832   0.7737   0.1676
  0  -3.7079   6.8718   0.7583  -0.2138   0.9768   0.0158   0.9617   0.1754
  0  -4.9464   5.9036   0.0299  -0.8960   0.4416  -0.0460   0.9825   0.2165
Backpack1.BMP
  0  -4.9464   5.9036   0.0299  -0.8960   0.4416  -0.0460   0.9825   0.2165
  0  -5.2525   5.7621   4.6292  -0.7963   0.4600   0.3929   0.7449   0.2042
  0  -3.9374   6.7657   4.2060  -0.2989   0.9506   0.0832   0.7737   0.1676
Backpack1.BMP
  0  -4.9464   5.9036   0.0299  -0.8960   0.4416  -0.0460   0.9817   0.2156
  0  -4.9459  -5.6788   0.0046  -0.7300  -0.5525  -0.4022   0.9857   0.7468
  0  -5.2521  -5.4403   4.6048  -0.8886  -0.4207   0.1828   0.7824   0.7511
Backpack1.BMP
  0  -5.2521  -5.4403   4.6048  -0.8886  -0.4207   0.1828   0.7824   0.7511
  0  -5.2525   5.7621   4.6292  -0.7963   0.4600   0.3929   0.7449   0.2042
  0  -4.9464   5.9036   0.0299  -0.8960   0.4416  -0.0460   0.9817   0.2156
Backpack1.BMP
  0  -3.7127  -6.8226   0.7253  -0.3270  -0.8554  -0.4018   0.9408   0.8394
  0  -3.9426  -6.6437   4.1785  -0.2627  -0.9493   0.1729   0.7371   0.8350
  0  -5.2521  -5.4403   4.6048  -0.8886  -0.4207   0.1828   0.7824   0.7511
Backpack1.BMP
  0  -5.2521  -5.4403   4.6048  -0.8886  -0.4207   0.1828   0.7824   0.7511
  0  -4.9459  -5.6788   0.0046  -0.7300  -0.5525  -0.4022   0.9857   0.7468
  0  -3.7127  -6.8226   0.7253  -0.3270  -0.8554  -0.4018   0.9408   0.8394
Backpack1.BMP
  0   5.0468  -5.6853   0.0511   0.7317  -0.4896  -0.4742   0.3231   0.2956
  0   3.7887  -6.8276   0.7602   0.3169  -0.9339  -0.1658   0.3697   0.2830
  0  -3.7127  -6.8226   0.7253  -0.3270  -0.8554  -0.4018   0.6505   0.2830
Backpack1.BMP
  0  -3.7127  -6.8226   0.7253  -0.3270  -0.8554  -0.4018   0.6505   0.2830
  0  -4.9459  -5.6788   0.0046  -0.7300  -0.5525  -0.4022   0.6972   0.2957
  0   5.0468  -5.6853   0.0511   0.7317  -0.4896  -0.4742   0.3231   0.2956
Backpack1.BMP
  0   5.1906  -5.4419   4.7551   0.8155  -0.4255   0.3924   0.2480   0.7629
  0   3.8966  -6.6449   4.2914   0.3482  -0.9007   0.2599   0.2719   0.8347
  0   3.7887  -6.8276   0.7602   0.3169  -0.9339  -0.1658   0.0844   0.8481
Backpack1.BMP
  0   3.7887  -6.8276   0.7602   0.3169  -0.9339  -0.1658   0.0844   0.8481
  0   5.0468  -5.6853   0.0511   0.7317  -0.4896  -0.4742   0.0360   0.7664
  0   5.1906  -5.4419   4.7551   0.8155  -0.4255   0.3924   0.2480   0.7629
Backpack1.BMP
  0   4.0715  -5.3873   5.7910   0.3018  -0.3634   0.8814   0.3036   0.7414
  0   3.0565  -6.6039   5.0690   0.1031  -0.8397   0.5332   0.3563   0.7751
  0   3.8966  -6.6449   4.2914   0.3482  -0.9007   0.2599   0.2719   0.8347
Backpack1.BMP
  0   3.8966  -6.6449   4.2914   0.3482  -0.9007   0.2599   0.2719   0.8347
  0   5.1906  -5.4419   4.7551   0.8155  -0.4255   0.3924   0.2480   0.7629
  0   4.0715  -5.3873   5.7910   0.3018  -0.3634   0.8814   0.3036   0.7414
Backpack1.BMP
  0  -4.2844  -5.3807   5.7731  -0.4235  -0.4061   0.8098   0.7091   0.7413
  0  -3.2161  -6.5989   5.0555  -0.1935  -0.8352   0.5148   0.6549   0.7841
  0   3.0565  -6.6039   5.0690   0.1031  -0.8397   0.5332   0.3563   0.7751
Backpack1.BMP
  0   3.0565  -6.6039   5.0690   0.1031  -0.8397   0.5332   0.3563   0.7751
  0   4.0715  -5.3873   5.7910   0.3018  -0.3634   0.8814   0.3036   0.7414
  0  -4.2844  -5.3807   5.7731  -0.4235  -0.4061   0.8098   0.7091   0.7413
Backpack1.BMP
  0  -4.2844  -5.3807   5.7731  -0.4235  -0.4061   0.8098   0.7091   0.7413
  0  -3.9426  -6.6437   4.1785  -0.2627  -0.9493   0.1729   0.7371   0.8350
  0  -3.2161  -6.5989   5.0555  -0.1935  -0.8352   0.5148   0.6549   0.7841
Backpack1.BMP
  0  -3.9426  -6.6437   4.1785  -0.2627  -0.9493   0.1729   0.7371   0.8350
  0  -4.2844  -5.3807   5.7731  -0.4235  -0.4061   0.8098   0.7091   0.7413
  0  -5.2521  -5.4403   4.6048  -0.8886  -0.4207   0.1828   0.7824   0.7511
Backpack1.BMP
  0   3.0516   6.7422   5.0950   0.0927   0.8711   0.4823   0.3330   0.2130
  0   3.8905   6.7665   4.3186   0.2585   0.9475   0.1884   0.3276   0.1245
  0  -3.9374   6.7657   4.2060  -0.2989   0.9506   0.0832   0.6883   0.1247
Backpack1.BMP
  0  -3.9374   6.7657   4.2060  -0.2989   0.9506   0.0832   0.6883   0.1247
  0  -3.2120   6.7392   5.0815  -0.2540   0.8547   0.4527   0.6719   0.2038
  0   3.0516   6.7422   5.0950   0.0927   0.8711   0.4823   0.3330   0.2130
Backpack1.BMP
  0   3.8905   6.7665   4.3186   0.2585   0.9475   0.1884   0.3276   0.1245
  0   3.7827   6.8747   0.7931   0.4266   0.9043   0.0147   0.3436   0.0239
  0  -3.7079   6.8718   0.7583  -0.2138   0.9768   0.0158   0.6877   0.0205
Backpack1.BMP
  0  -3.7079   6.8718   0.7583  -0.2138   0.9768   0.0158   0.6877   0.0205
  0  -3.9374   6.7657   4.2060  -0.2989   0.9506   0.0832   0.6883   0.1247
  0   3.8905   6.7665   4.3186   0.2585   0.9475   0.1884   0.3276   0.1245
Backpack1.BMP
  0   3.7887  -6.8276   0.7602   0.3169  -0.9339  -0.1658   0.3167   0.9657
  0   3.8966  -6.6449   4.2914   0.3482  -0.9007   0.2599   0.2719   0.8347
  0  -3.9426  -6.6437   4.1785  -0.2627  -0.9493   0.1729   0.7371   0.8350
Backpack1.BMP
  0  -3.9426  -6.6437   4.1785  -0.2627  -0.9493   0.1729   0.7371   0.8350
  0  -3.7127  -6.8226   0.7253  -0.3270  -0.8554  -0.4018   0.6874   0.9705
  0   3.7887  -6.8276   0.7602   0.3169  -0.9339  -0.1658   0.3167   0.9657
Backpack1.BMP
  0   3.0565  -6.6039   5.0690   0.1031  -0.8397   0.5332   0.3563   0.7751
  0  -3.2161  -6.5989   5.0555  -0.1935  -0.8352   0.5148   0.6549   0.7841
  0  -3.9426  -6.6437   4.1785  -0.2627  -0.9493   0.1729   0.7371   0.8350
Backpack1.BMP
  0  -3.9426  -6.6437   4.1785  -0.2627  -0.9493   0.1729   0.7371   0.8350
  0   3.8966  -6.6449   4.2914   0.3482  -0.9007   0.2599   0.2719   0.8347
  0   3.0565  -6.6039   5.0690   0.1031  -0.8397   0.5332   0.3563   0.7751
end
