version 1
nodes
  0 "Object04"  -1
end
skeleton
time 0
  0 0.225032 1.233135 3.376198 -0.073899 -0.000000 -3.141593
end
triangles
Backpack2.BMP
  0  -8.2008   1.7006   2.9836  -0.0489   0.5570   0.8482   0.7772   0.5194
  0  -8.6772   1.5870   2.5987  -0.6162   0.5363   0.5944   0.8177   0.5352
  0  -8.3745   1.4072   3.3702  -0.2675   0.5225   0.8277   0.7628   0.5353
Backpack2.BMP
  0  -9.9229   0.1528   0.4329  -0.8718   0.4876  -0.0162   0.9735   0.6758
  0  -9.7872   0.0395   2.6522  -0.8170   0.4575   0.3654   0.8176   0.6758
  0  -8.6772   1.5870   2.5987  -0.6162   0.5363   0.5944   0.8177   0.5352
Backpack2.BMP
  0  -2.3536  -2.9103   3.4199   0.4734  -0.0294   0.8810   0.2421   0.5371
  0  -2.0779  -3.1453   2.6531   0.7712  -0.4214   0.4632   0.1859   0.5389
  0  -2.1271  -2.6547   3.0337   0.4625  -0.0288   0.8869   0.2277   0.5212
Backpack2.BMP
  0  -3.1880  -4.6927   2.7067   0.6780  -0.6557   0.3079   0.1860   0.6795
  0  -3.0131  -4.8021   0.4900   0.7704  -0.6226  -0.1508   0.0301   0.6795
  0  -2.0779  -3.1453   2.6531   0.7712  -0.4214   0.4632   0.1859   0.5389
Backpack2.BMP
  0  -8.3745   1.4072   3.3702  -0.2675   0.5225   0.8277   0.7628   0.5353
  0 -10.0335  -0.8425   2.9847  -0.7872  -0.0562   0.6134   0.7699   0.7191
  0  -2.3536  -2.9103   3.4199   0.4734  -0.0294   0.8810   0.2421   0.5371
Backpack2.BMP
  0  -3.9479  -5.2064   3.0349   0.1707  -0.7529   0.6096   0.2235   0.7203
  0  -2.3536  -2.9103   3.4199   0.4734  -0.0294   0.8810   0.2421   0.5371
  0 -10.0335  -0.8425   2.9847  -0.7872  -0.0562   0.6134   0.7699   0.7191
Backpack2.BMP
  0  -9.7872   0.0395   2.6522  -0.8170   0.4575   0.3654   0.8176   0.6758
  0 -10.0335  -0.8425   2.9847  -0.7872  -0.0562   0.6134   0.7699   0.7191
  0  -8.6772   1.5870   2.5987  -0.6162   0.5363   0.5944   0.8177   0.5352
Backpack2.BMP
  0  -8.3745   1.4072   3.3702  -0.2675   0.5225   0.8277   0.7628   0.5353
  0  -8.6772   1.5870   2.5987  -0.6162   0.5363   0.5944   0.8177   0.5352
  0 -10.0335  -0.8425   2.9847  -0.7872  -0.0562   0.6134   0.7699   0.7191
Backpack2.BMP
  0  -8.3745   1.4072   3.3702  -0.2675   0.5225   0.8277   0.7628   0.5353
  0  -2.3536  -2.9103   3.4199   0.4734  -0.0294   0.8810   0.2421   0.5371
  0  -8.2008   1.7006   2.9836  -0.0489   0.5570   0.8482   0.7772   0.5194
Backpack2.BMP
  0  -2.1271  -2.6547   3.0337   0.4625  -0.0288   0.8869   0.2277   0.5212
  0  -8.2008   1.7006   2.9836  -0.0489   0.5570   0.8482   0.7772   0.5194
  0  -2.3536  -2.9103   3.4199   0.4734  -0.0294   0.8810   0.2421   0.5371
Backpack2.BMP
  0  -8.2008   1.7006   2.9836  -0.0489   0.5570   0.8482   0.7772   0.5194
  0  -2.1271  -2.6547   3.0337   0.4625  -0.0288   0.8869   0.2277   0.5212
  0  -6.0235   4.7707   2.6236  -0.2058   0.5801   0.8078   0.7792   0.2366
Backpack2.BMP
  0   0.0860   0.3897   2.6740   0.7681   0.3175   0.5672   0.2234   0.2378
  0  -6.0235   4.7707   2.6236  -0.2058   0.5801   0.8078   0.7792   0.2366
  0  -2.1271  -2.6547   3.0337   0.4625  -0.0288   0.8869   0.2277   0.5212
Backpack2.BMP
  0  -6.7679   4.2659   2.3802  -0.6904   0.6783   0.2700   0.8247   0.2874
  0  -8.6772   1.5870   2.5987  -0.6162   0.5363   0.5944   0.8177   0.5352
  0  -6.0235   4.7707   2.6236  -0.2058   0.5801   0.8078   0.7792   0.2366
Backpack2.BMP
  0  -8.2008   1.7006   2.9836  -0.0489   0.5570   0.8482   0.7772   0.5194
  0  -6.0235   4.7707   2.6236  -0.2058   0.5801   0.8078   0.7792   0.2366
  0  -8.6772   1.5870   2.5987  -0.6162   0.5363   0.5944   0.8177   0.5352
Backpack2.BMP
  0  -6.0235   4.7707   2.6236  -0.2058   0.5801   0.8078   0.7792   0.2366
  0   0.0860   0.3897   2.6740   0.7681   0.3175   0.5672   0.2234   0.2378
  0  -6.1550   4.9484  -0.0263  -0.1569   0.9198  -0.3238   0.7855   0.0005
Backpack2.BMP
  0   0.3252   0.3016   0.0272   0.7779  -0.1535  -0.6156   0.2243   0.0005
  0  -6.1550   4.9484  -0.0263  -0.1569   0.9198  -0.3238   0.7855   0.0005
  0   0.0860   0.3897   2.6740   0.7681   0.3175   0.5672   0.2234   0.2378
Backpack2.BMP
  0  -6.8669   4.3996   0.3851  -0.7248   0.6209  -0.2754   0.9647   0.2856
  0  -6.7679   4.2659   2.3802  -0.6904   0.6783   0.2700   0.8247   0.2874
  0  -6.1550   4.9484  -0.0263  -0.1569   0.9198  -0.3238   0.9885   0.2451
Backpack2.BMP
  0  -6.0235   4.7707   2.6236  -0.2058   0.5801   0.8078   0.7792   0.2366
  0  -6.1550   4.9484  -0.0263  -0.1569   0.9198  -0.3238   0.9885   0.2451
  0  -6.7679   4.2659   2.3802  -0.6904   0.6783   0.2700   0.8247   0.2874
Backpack2.BMP
  0  -6.1550   4.9484  -0.0263  -0.1569   0.9198  -0.3238   0.7704   0.7302
  0   0.3252   0.3016   0.0272   0.7779  -0.1535  -0.6156   0.2263   0.7263
  0 -10.2137  -0.6921   0.0373  -0.6604   0.0750  -0.7461   0.7749   0.9917
Backpack2.BMP
  0  -3.7156  -5.3517   0.0909   0.1586  -0.9254  -0.3695   0.2292   0.9879
  0 -10.2137  -0.6921   0.0373  -0.6604   0.0750  -0.7461   0.7749   0.9917
  0   0.3252   0.3016   0.0272   0.7779  -0.1535  -0.6156   0.2263   0.7263
Backpack2.BMP
  0  -9.9229   0.1528   0.4329  -0.8718   0.4876  -0.0162   0.9735   0.6758
  0  -6.8669   4.3996   0.3851  -0.7248   0.6209  -0.2754   0.9647   0.2856
  0 -10.2137  -0.6921   0.0373  -0.6604   0.0750  -0.7461   0.9995   0.7163
Backpack2.BMP
  0  -6.1550   4.9484  -0.0263  -0.1569   0.9198  -0.3238   0.9885   0.2451
  0 -10.2137  -0.6921   0.0373  -0.6604   0.0750  -0.7461   0.9995   0.7163
  0  -6.8669   4.3996   0.3851  -0.7248   0.6209  -0.2754   0.9647   0.2856
Backpack2.BMP
  0 -10.2137  -0.6921   0.0373  -0.6604   0.0750  -0.7461   0.7749   0.9917
  0  -3.7156  -5.3517   0.0909   0.1586  -0.9254  -0.3695   0.2292   0.9879
  0 -10.0335  -0.8425   2.9847  -0.7872  -0.0562   0.6134   0.7699   0.7191
Backpack2.BMP
  0  -3.9479  -5.2064   3.0349   0.1707  -0.7529   0.6096   0.2235   0.7203
  0 -10.0335  -0.8425   2.9847  -0.7872  -0.0562   0.6134   0.7699   0.7191
  0  -3.7156  -5.3517   0.0909   0.1586  -0.9254  -0.3695   0.2292   0.9879
Backpack2.BMP
  0  -9.7872   0.0395   2.6522  -0.8170   0.4575   0.3654   0.8176   0.6758
  0  -9.9229   0.1528   0.4329  -0.8718   0.4876  -0.0162   0.9735   0.6758
  0 -10.0335  -0.8425   2.9847  -0.7872  -0.0562   0.6134   0.7699   0.7191
Backpack2.BMP
  0 -10.2137  -0.6921   0.0373  -0.6604   0.0750  -0.7461   0.9995   0.7163
  0 -10.0335  -0.8425   2.9847  -0.7872  -0.0562   0.6134   0.7699   0.7191
  0  -9.9229   0.1528   0.4329  -0.8718   0.4876  -0.0162   0.9735   0.6758
Backpack2.BMP
  0  -6.8669   4.3996   0.3851  -0.7248   0.6209  -0.2754   0.9647   0.2856
  0  -9.9229   0.1528   0.4329  -0.8718   0.4876  -0.0162   0.9735   0.6758
  0  -6.7679   4.2659   2.3802  -0.6904   0.6783   0.2700   0.8247   0.2874
Backpack2.BMP
  0  -8.6772   1.5870   2.5987  -0.6162   0.5363   0.5944   0.8177   0.5352
  0  -6.7679   4.2659   2.3802  -0.6904   0.6783   0.2700   0.8247   0.2874
  0  -9.9229   0.1528   0.4329  -0.8718   0.4876  -0.0162   0.9735   0.6758
Backpack2.BMP
  0  -2.0779  -3.1453   2.6531   0.7712  -0.4214   0.4632   0.1859   0.5389
  0  -2.3536  -2.9103   3.4199   0.4734  -0.0294   0.8810   0.2421   0.5371
  0  -3.1880  -4.6927   2.7067   0.6780  -0.6557   0.3079   0.1860   0.6795
Backpack2.BMP
  0  -3.9479  -5.2064   3.0349   0.1707  -0.7529   0.6096   0.2235   0.7203
  0  -3.1880  -4.6927   2.7067   0.6780  -0.6557   0.3079   0.1860   0.6795
  0  -2.3536  -2.9103   3.4199   0.4734  -0.0294   0.8810   0.2421   0.5371
Backpack2.BMP
  0  -2.0779  -3.1453   2.6531   0.7712  -0.4214   0.4632   0.1859   0.5389
  0  -0.1507  -0.4792   2.4348   0.8301  -0.4264   0.3444   0.1750   0.2912
  0  -2.1271  -2.6547   3.0337   0.4625  -0.0288   0.8869   0.2277   0.5212
Backpack2.BMP
  0   0.0860   0.3897   2.6740   0.7681   0.3175   0.5672   0.2234   0.2378
  0  -2.1271  -2.6547   3.0337   0.4625  -0.0288   0.8869   0.2277   0.5212
  0  -0.1507  -0.4792   2.4348   0.8301  -0.4264   0.3444   0.1750   0.2912
Backpack2.BMP
  0  -0.1507  -0.4792   2.4348   0.8301  -0.4264   0.3444   0.1750   0.2912
  0   0.0294  -0.5455   0.4420   0.8672  -0.4796  -0.1460   0.0349   0.2893
  0   0.3252   0.3016   0.0272   0.7779  -0.1535  -0.6156   0.0075   0.2488
Backpack2.BMP
  0   0.3252   0.3016   0.0272   0.7779  -0.1535  -0.6156   0.0075   0.2488
  0   0.0860   0.3897   2.6740   0.7681   0.3175   0.5672   0.2234   0.2378
  0  -0.1507  -0.4792   2.4348   0.8301  -0.4264   0.3444   0.1750   0.2912
Backpack2.BMP
  0   0.0294  -0.5455   0.4420   0.8672  -0.4796  -0.1460   0.0349   0.2893
  0  -3.0131  -4.8021   0.4900   0.7704  -0.6226  -0.1508   0.0301   0.6795
  0   0.3252   0.3016   0.0272   0.7779  -0.1535  -0.6156   0.0075   0.2488
Backpack2.BMP
  0  -3.7156  -5.3517   0.0909   0.1586  -0.9254  -0.3695   0.0005   0.7200
  0   0.3252   0.3016   0.0272   0.7779  -0.1535  -0.6156   0.0075   0.2488
  0  -3.0131  -4.8021   0.4900   0.7704  -0.6226  -0.1508   0.0301   0.6795
Backpack2.BMP
  0  -3.0131  -4.8021   0.4900   0.7704  -0.6226  -0.1508   0.0301   0.6795
  0  -3.1880  -4.6927   2.7067   0.6780  -0.6557   0.3079   0.1860   0.6795
  0  -3.7156  -5.3517   0.0909   0.1586  -0.9254  -0.3695   0.0005   0.7200
Backpack2.BMP
  0  -3.9479  -5.2064   3.0349   0.1707  -0.7529   0.6096   0.2235   0.7203
  0  -3.7156  -5.3517   0.0909   0.1586  -0.9254  -0.3695   0.0005   0.7200
  0  -3.1880  -4.6927   2.7067   0.6780  -0.6557   0.3079   0.1860   0.6795
Backpack2.BMP
  0   0.0294  -0.5455   0.4420   0.8672  -0.4796  -0.1460   0.0349   0.2893
  0  -0.1507  -0.4792   2.4348   0.8301  -0.4264   0.3444   0.1750   0.2912
  0  -3.0131  -4.8021   0.4900   0.7704  -0.6226  -0.1508   0.0301   0.6795
Backpack2.BMP
  0  -2.0779  -3.1453   2.6531   0.7712  -0.4214   0.4632   0.1859   0.5389
  0  -3.0131  -4.8021   0.4900   0.7704  -0.6226  -0.1508   0.0301   0.6795
  0  -0.1507  -0.4792   2.4348   0.8301  -0.4264   0.3444   0.1750   0.2912
Backpack2.BMP
  0   1.2270   0.2960   3.0207  -0.4323   0.2925   0.8641   0.7772   0.5194
  0   1.0035  -0.1316   2.6266  -0.7835  -0.1497   0.5992   0.8177   0.5352
  0   1.3548  -0.0371   3.3928  -0.5436   0.1035   0.8379   0.7628   0.5353
Backpack2.BMP
  0   1.2687  -1.9274   0.3898  -0.9306  -0.3652  -0.0169   0.9735   0.6758
  0   1.5017  -1.9703   2.6034  -0.8586  -0.3497   0.3632   0.8176   0.6758
  0   1.0035  -0.1316   2.6266  -0.7835  -0.1497   0.5992   0.8177   0.5352
Backpack2.BMP
  0   8.5055   1.9008   3.3172   0.3524   0.3262   0.8894   0.2421   0.5371
  0   8.8412   1.9926   2.5438   0.8319   0.3201   0.4642   0.1859   0.5389
  0   8.4404   2.2510   2.9445   0.3447   0.3190   0.8948   0.2277   0.5212
Backpack2.BMP
  0   9.3392   0.1538   2.5206   0.9509   0.1031   0.2957   0.1860   0.6795
  0   9.4751   0.2966   0.3031   0.9647   0.2047  -0.1583   0.0301   0.6795
  0   8.8412   1.9926   2.5438   0.8319   0.3201   0.4642   0.1859   0.5389
Backpack2.BMP
  0   1.3548  -0.0371   3.3928  -0.5436   0.1035   0.8379   0.7628   0.5353
  0   2.0379  -2.7294   2.8957  -0.4347  -0.6595   0.5907   0.7699   0.7191
  0   8.5055   1.9008   3.3172   0.3524   0.3262   0.8894   0.2421   0.5371
Backpack2.BMP
  0   9.2656  -0.7706   2.8193   0.7192  -0.3596   0.5831   0.2235   0.7203
  0   8.5055   1.9008   3.3172   0.3524   0.3262   0.8894   0.2421   0.5371
  0   2.0379  -2.7294   2.8957  -0.4347  -0.6595   0.5907   0.7699   0.7191
Backpack2.BMP
  0   1.5017  -1.9703   2.6034  -0.8586  -0.3497   0.3632   0.8176   0.6758
  0   2.0379  -2.7294   2.8957  -0.4347  -0.6595   0.5907   0.7699   0.7191
  0   1.0035  -0.1316   2.6266  -0.7835  -0.1497   0.5992   0.8177   0.5352
Backpack2.BMP
  0   1.3548  -0.0371   3.3928  -0.5436   0.1035   0.8379   0.7628   0.5353
  0   1.0035  -0.1316   2.6266  -0.7835  -0.1497   0.5992   0.8177   0.5352
  0   2.0379  -2.7294   2.8957  -0.4347  -0.6595   0.5907   0.7699   0.7191
Backpack2.BMP
  0   1.3548  -0.0371   3.3928  -0.5436   0.1035   0.8379   0.7628   0.5353
  0   8.5055   1.9008   3.3172   0.3524   0.3262   0.8894   0.2421   0.5371
  0   1.2270   0.2960   3.0207  -0.4323   0.2925   0.8641   0.7772   0.5194
Backpack2.BMP
  0   8.4404   2.2510   2.9445   0.3447   0.3190   0.8948   0.2277   0.5212
  0   1.2270   0.2960   3.0207  -0.4323   0.2925   0.8641   0.7772   0.5194
  0   8.5055   1.9008   3.3172   0.3524   0.3262   0.8894   0.2421   0.5371
Backpack2.BMP
  0   1.2270   0.2960   3.0207  -0.4323   0.2925   0.8641   0.7772   0.5194
  0   8.4404   2.2510   2.9445   0.3447   0.3190   0.8948   0.2277   0.5212
  0   0.2161   3.9334   2.8130  -0.5498   0.1890   0.8213   0.7792   0.2366
Backpack2.BMP
  0   7.4721   5.8999   2.7363   0.2567   0.7775   0.5984   0.2234   0.2378
  0   0.2161   3.9334   2.8130  -0.5498   0.1890   0.8213   0.7792   0.2366
  0   8.4404   2.2510   2.9445   0.3447   0.3190   0.8948   0.2277   0.5212
Backpack2.BMP
  0   0.1300   3.0464   2.5410  -0.9521  -0.1104   0.2819   0.8247   0.2874
  0   1.0035  -0.1316   2.6266  -0.7835  -0.1497   0.5992   0.8177   0.5352
  0   0.2161   3.9334   2.8130  -0.5498   0.1890   0.8213   0.7792   0.2366
Backpack2.BMP
  0   1.2270   0.2960   3.0207  -0.4323   0.2925   0.8641   0.7772   0.5194
  0   0.2161   3.9334   2.8130  -0.5498   0.1890   0.8213   0.7792   0.2366
  0   1.0035  -0.1316   2.6266  -0.7835  -0.1497   0.5992   0.8177   0.5352
Backpack2.BMP
  0   0.2161   3.9334   2.8130  -0.5498   0.1890   0.8213   0.7792   0.2366
  0   7.4721   5.8999   2.7363   0.2567   0.7775   0.5984   0.2234   0.2378
  0  -0.0757   4.0351   0.1719  -0.8292   0.4696  -0.2865   0.7855   0.0005
Backpack2.BMP
  0   7.6205   6.1208   0.0906   0.5910   0.5182  -0.6011   0.2243   0.0005
  0  -0.0757   4.0351   0.1719  -0.8292   0.4696  -0.2865   0.7855   0.0005
  0   7.4721   5.8999   2.7363   0.2567   0.7775   0.5984   0.2234   0.2378
Backpack2.BMP
  0  -0.0897   3.1229   0.5526  -0.9516  -0.1622  -0.2666   0.9647   0.2856
  0   0.1300   3.0464   2.5410  -0.9521  -0.1104   0.2819   0.8247   0.2874
  0  -0.0757   4.0351   0.1719  -0.8292   0.4696  -0.2865   0.9885   0.2451
Backpack2.BMP
  0   0.2161   3.9334   2.8130  -0.5498   0.1890   0.8213   0.7792   0.2366
  0  -0.0757   4.0351   0.1719  -0.8292   0.4696  -0.2865   0.9885   0.2451
  0   0.1300   3.0464   2.5410  -0.9521  -0.1104   0.2819   0.8247   0.2874
Backpack2.BMP
  0  -0.0757   4.0351   0.1719  -0.8292   0.4696  -0.2865   0.7704   0.7302
  0   7.6205   6.1208   0.0906   0.5910   0.5182  -0.6011   0.2263   0.7263
  0   1.7284  -2.6725  -0.0443  -0.5002  -0.4459  -0.7578   0.7749   0.9917
Backpack2.BMP
  0   9.4459  -0.5809  -0.1258   0.8021  -0.4517  -0.4051   0.2292   0.9879
  0   1.7284  -2.6725  -0.0443  -0.5002  -0.4459  -0.7578   0.7749   0.9917
  0   7.6205   6.1208   0.0906   0.5910   0.5182  -0.6011   0.2263   0.7263
Backpack2.BMP
  0   1.2687  -1.9274   0.3898  -0.9306  -0.3652  -0.0169   0.9735   0.6758
  0  -0.0897   3.1229   0.5526  -0.9516  -0.1622  -0.2666   0.9647   0.2856
  0   1.7284  -2.6725  -0.0443  -0.5002  -0.4459  -0.7578   0.9995   0.7163
Backpack2.BMP
  0  -0.0757   4.0351   0.1719  -0.8292   0.4696  -0.2865   0.9885   0.2451
  0   1.7284  -2.6725  -0.0443  -0.5002  -0.4459  -0.7578   0.9995   0.7163
  0  -0.0897   3.1229   0.5526  -0.9516  -0.1622  -0.2666   0.9647   0.2856
Backpack2.BMP
  0   1.7284  -2.6725  -0.0443  -0.5002  -0.4459  -0.7578   0.7749   0.9917
  0   9.4459  -0.5809  -0.1258   0.8021  -0.4517  -0.4051   0.2292   0.9879
  0   2.0379  -2.7294   2.8957  -0.4347  -0.6595   0.5907   0.7699   0.7191
Backpack2.BMP
  0   9.2656  -0.7706   2.8193   0.7192  -0.3596   0.5831   0.2235   0.7203
  0   2.0379  -2.7294   2.8957  -0.4347  -0.6595   0.5907   0.7699   0.7191
  0   9.4459  -0.5809  -0.1258   0.8021  -0.4517  -0.4051   0.2292   0.9879
Backpack2.BMP
  0   1.5017  -1.9703   2.6034  -0.8586  -0.3497   0.3632   0.8176   0.6758
  0   1.2687  -1.9274   0.3898  -0.9306  -0.3652  -0.0169   0.9735   0.6758
  0   2.0379  -2.7294   2.8957  -0.4347  -0.6595   0.5907   0.7699   0.7191
Backpack2.BMP
  0   1.7284  -2.6725  -0.0443  -0.5002  -0.4459  -0.7578   0.9995   0.7163
  0   2.0379  -2.7294   2.8957  -0.4347  -0.6595   0.5907   0.7699   0.7191
  0   1.2687  -1.9274   0.3898  -0.9306  -0.3652  -0.0169   0.9735   0.6758
Backpack2.BMP
  0  -0.0897   3.1229   0.5526  -0.9516  -0.1622  -0.2666   0.9647   0.2856
  0   1.2687  -1.9274   0.3898  -0.9306  -0.3652  -0.0169   0.9735   0.6758
  0   0.1300   3.0464   2.5410  -0.9521  -0.1104   0.2819   0.8247   0.2874
Backpack2.BMP
  0   1.0035  -0.1316   2.6266  -0.7835  -0.1497   0.5992   0.8177   0.5352
  0   0.1300   3.0464   2.5410  -0.9521  -0.1104   0.2819   0.8247   0.2874
  0   1.2687  -1.9274   0.3898  -0.9306  -0.3652  -0.0169   0.9735   0.6758
Backpack2.BMP
  0   8.8412   1.9926   2.5438   0.8319   0.3201   0.4642   0.1859   0.5389
  0   8.5055   1.9008   3.3172   0.3524   0.3262   0.8894   0.2421   0.5371
  0   9.3392   0.1538   2.5206   0.9509   0.1031   0.2957   0.1860   0.6795
Backpack2.BMP
  0   9.2656  -0.7706   2.8193   0.7192  -0.3596   0.5831   0.2235   0.7203
  0   9.3392   0.1538   2.5206   0.9509   0.1031   0.2957   0.1860   0.6795
  0   8.5055   1.9008   3.3172   0.3524   0.3262   0.8894   0.2421   0.5371
Backpack2.BMP
  0   8.8412   1.9926   2.5438   0.8319   0.3201   0.4642   0.1859   0.5389
  0   7.9889   5.1762   2.4580   0.8687   0.3649   0.3467   0.1750   0.2912
  0   8.4404   2.2510   2.9445   0.3447   0.3190   0.8948   0.2277   0.5212
Backpack2.BMP
  0   7.4721   5.8999   2.7363   0.2567   0.7775   0.5984   0.2234   0.2378
  0   8.4404   2.2510   2.9445   0.3447   0.3190   0.8948   0.2277   0.5212
  0   7.9889   5.1762   2.4580   0.8687   0.3649   0.3467   0.1750   0.2912
Backpack2.BMP
  0   7.9889   5.1762   2.4580   0.8687   0.3649   0.3467   0.1750   0.2912
  0   8.1007   5.3426   0.4660   0.9154   0.3700  -0.1444   0.0349   0.2893
  0   7.6205   6.1208   0.0906   0.5910   0.5182  -0.6011   0.0075   0.2488
Backpack2.BMP
  0   7.6205   6.1208   0.0906   0.5910   0.5182  -0.6011   0.0075   0.2488
  0   7.4721   5.8999   2.7363   0.2567   0.7775   0.5984   0.2234   0.2378
  0   7.9889   5.1762   2.4580   0.8687   0.3649   0.3467   0.1750   0.2912
Backpack2.BMP
  0   8.1007   5.3426   0.4660   0.9154   0.3700  -0.1444   0.0349   0.2893
  0   9.4751   0.2966   0.3031   0.9647   0.2047  -0.1583   0.0301   0.6795
  0   7.6205   6.1208   0.0906   0.5910   0.5182  -0.6011   0.0075   0.2488
Backpack2.BMP
  0   9.4459  -0.5809  -0.1258   0.8021  -0.4517  -0.4051   0.0005   0.7200
  0   7.6205   6.1208   0.0906   0.5910   0.5182  -0.6011   0.0075   0.2488
  0   9.4751   0.2966   0.3031   0.9647   0.2047  -0.1583   0.0301   0.6795
Backpack2.BMP
  0   9.4751   0.2966   0.3031   0.9647   0.2047  -0.1583   0.0301   0.6795
  0   9.3392   0.1538   2.5206   0.9509   0.1031   0.2957   0.1860   0.6795
  0   9.4459  -0.5809  -0.1258   0.8021  -0.4517  -0.4051   0.0005   0.7200
Backpack2.BMP
  0   9.2656  -0.7706   2.8193   0.7192  -0.3596   0.5831   0.2235   0.7203
  0   9.4459  -0.5809  -0.1258   0.8021  -0.4517  -0.4051   0.0005   0.7200
  0   9.3392   0.1538   2.5206   0.9509   0.1031   0.2957   0.1860   0.6795
Backpack2.BMP
  0   8.1007   5.3426   0.4660   0.9154   0.3700  -0.1444   0.0349   0.2893
  0   7.9889   5.1762   2.4580   0.8687   0.3649   0.3467   0.1750   0.2912
  0   9.4751   0.2966   0.3031   0.9647   0.2047  -0.1583   0.0301   0.6795
Backpack2.BMP
  0   8.8412   1.9926   2.5438   0.8319   0.3201   0.4642   0.1859   0.5389
  0   9.4751   0.2966   0.3031   0.9647   0.2047  -0.1583   0.0301   0.6795
  0   7.9889   5.1762   2.4580   0.8687   0.3649   0.3467   0.1750   0.2912
end
