version 1
nodes
  0 "Bip01"  -1
  1 "Bip01 Footsteps"   0
  2 "Bip01 Pelvis"   0
  3 "Bip01 Spine"   2
  4 "Bip01 Spine1"   3
  5 "Bip01 Spine2"   4
  6 "Bip01 Spine3"   5
  7 "Bip01 Neck"   6
  8 "Bip01 Head"   7
  9 "Dummy21"   8
 10 "Bip01 L Clavicle"   7
 11 "Bip01 L UpperArm"  10
 12 "Bip01 L Forearm"  11
 13 "Bip01 L Hand"  12
 14 "Bip01 L Finger0"  13
 15 "Bip01 L Finger01"  14
 16 "Dummy06"  15
 17 "Bip01 L Finger1"  13
 18 "Bip01 L Finger11"  17
 19 "Dummy03"  18
 20 "-- L knuckle"  17
 21 "-- L knuckle_end"  20
 22 "-- L Forearm twist"  12
 23 "-- L Forearm twist_end"  22
 24 "-- L wrist"  12
 25 "-- L wrist_end"  24
 26 "-- L Elbow"  11
 27 "--L Elbow_end"  26
 28 "-- L bicep twist"  11
 29 "-- L bicep twist_end"  28
 30 "-- L shoulder outside"  10
 31 "-- L shoulder outside_end"  30
 32 "-- L Shoulder inside"  10
 33 "-- L Shoulder inside_end"  32
 34 "Bip01 R Clavicle"   7
 35 "Bip01 R UpperArm"  34
 36 "Bip01 R Forearm"  35
 37 "Bip01 R Hand"  36
 38 "Bip01 R Finger0"  37
 39 "Bip01 R Finger01"  38
 40 "Dummy01"  39
 41 "Bip01 R Finger1"  37
 42 "Bip01 R Finger11"  41
 43 "Dummy02"  42
 44 "-- R knuckle"  41
 45 "Point06"  44
 46 "Line01"  37
 47 "-- R wrist"  36
 48 "-- R wrist_end"  47
 49 "-- R forearm twist"  36
 50 "-- R forearm twist_end"  49
 51 "-- R Elbow"  35
 52 "--R Elbow_end"  51
 53 "-- R bicep twist"  35
 54 "-- R bicep twist_end"  53
 55 "-- R Shoulder inside"  34
 56 "-- R Shoulder inside_end"  55
 57 "-- R shoulder outside"  34
 58 "-- R shoulder outside_end"  57
 59 "-- Neck smooth"   6
 60 "-- neck smooth end"  59
 61 "-- R Butt"   2
 62 "--R Butt_end"  61
 63 "-- L butt"   2
 64 "--L butt_end"  63
 65 "GIGN01"   2
 66 "Bip01 L Thigh"   2
 67 "Bip01 L Calf"  66
 68 "Bip01 L Foot"  67
 69 "Bip01 L Toe0"  68
 70 "Dummy16"  69
 71 "-- L ankle"  67
 72 "-- L ankleend"  71
 73 "-- L Knee"  66
 74 "--L Knee_end"  73
 75 "Bip01 R Thigh"   2
 76 "Bip01 R Calf"  75
 77 "Bip01 R Foot"  76
 78 "Bip01 R Toe0"  77
 79 "Dummy11"  78
 80 "-- R Ankle"  76
 81 "-- R ankleend"  80
 82 "-- R Knee"  75
 83 "--R Knee_end"  82
end
skeleton
time 0
  0 -0.650000 0.000000 33.899605 -0.025849 0.174554 -1.569172
  1 5.685103 0.833236 -32.227173 -0.174512 -0.026131 1.569196
  2 -2.276935 0.000003 -1.238188 -1.570795 -1.570451 0.000000
  3 1.797145 0.711846 0.000568 -0.183238 -0.298978 0.055436
  4 4.119901 -0.002958 0.000559 -0.172358 0.128072 0.392170
  5 4.118998 -0.003205 0.000578 -0.178599 0.132409 0.098235
  6 4.118653 -0.003224 0.000599 -0.183978 0.060390 0.004068
  7 4.119037 -0.003500 -0.000284 0.081610 -0.165959 0.110202
  8 4.443602 -0.000001 -0.000002 0.732788 -0.287131 0.249872
  9 9.024061 0.000001 0.000000 0.000000 0.000000 0.000000
 10 0.286246 0.142843 1.703225 1.979666 -1.169596 1.065371
 11 6.384778 -0.000001 -0.000001 -1.693495 1.113177 -1.406854
 12 10.242682 -0.000000 0.000001 -0.000000 0.000000 -0.719884
 13 11.375559 0.000000 -0.000001 3.049701 0.473879 -0.581927
 14 0.728681 0.023431 -1.008293 2.396606 0.246960 1.180207
 15 2.136498 -0.000000 0.000000 -0.000000 -0.000000 -0.078540
 16 2.313140 -0.000000 0.000000 0.000000 0.000000 0.000000
 17 3.115506 -0.886042 -0.021431 -0.166499 0.000392 0.514872
 18 2.011151 -0.000000 0.000000 -0.000000 0.000000 1.322792
 19 2.141379 0.000000 0.000000 0.000000 0.000000 0.000000
 20 1.734172 -0.000001 -0.000000 -0.000000 -0.000000 0.660693
 21 0.000006 -4.440594 0.000000 1.570544 -0.062990 -0.195737
 22 6.000000 0.000001 0.000000 -2.870049 0.000000 -0.000000
 23 0.000001 -4.440601 0.000000 1.569944 -0.062987 0.004053
 24 11.375561 0.000001 0.000004 -2.331715 0.372992 -0.170631
 25 -0.000001 -4.440602 0.000001 1.570144 -0.062988 0.004040
 26 10.510130 0.000000 0.000000 -0.000000 -0.000000 -1.930738
 27 -0.000000 -1.748402 4.999999 0.000000 0.004007 1.602291
 28 5.499998 -0.000000 0.000000 0.310520 -0.000000 0.000000
 29 -0.000003 -1.940599 5.000000 -0.044472 0.004003 -0.000180
 30 6.551491 0.000000 0.000002 -0.833321 0.978212 -0.441193
 31 0.000004 -1.940599 5.000001 -0.027189 -0.053376 0.005295
 32 6.551491 0.000000 0.000002 -0.239745 0.435563 -0.049592
 33 -0.000002 -1.940598 4.999996 -0.066572 -0.152786 -0.110311
 34 -0.286239 -0.135767 -1.703227 -0.310363 1.271215 2.704452
 35 6.384777 0.000002 -0.000002 -0.986091 -0.453344 -0.113311
 36 10.242682 -0.000003 0.000002 -0.000000 0.000000 -1.853744
 37 11.375559 -0.000001 -0.000001 2.142380 0.536432 0.090040
 38 0.728680 0.023430 1.008292 -1.579583 -0.319038 0.212973
 39 2.136497 -0.000002 -0.000001 -0.000000 0.000000 1.282817
 40 2.313140 -0.000000 0.000000 0.000000 0.000000 3.141593
 41 3.115507 -0.886041 0.021431 0.708959 0.171755 0.347804
 42 2.011149 0.000001 0.000001 0.000000 0.000000 2.082010
 43 2.141379 -0.000001 0.000001 0.000000 0.000000 3.141593
 44 1.734174 -0.000001 -0.000001 0.000000 -0.000000 1.041748
 45 0.136315 -3.738192 2.525891 1.493698 2.759406 -1.474501
 46 5.613159 0.862366 3.157032 1.595152 -0.135386 0.061522
 47 11.389364 -0.000820 0.158780 1.840578 0.289563 0.000551
 48 -0.000000 -4.440599 -0.000001 1.570144 -3.078602 0.004040
 49 5.999998 -0.000000 -0.000001 1.840578 0.000000 -0.000000
 50 0.000003 -4.440601 0.000001 1.569944 -3.078603 0.004053
 51 10.510132 0.000000 0.000002 0.000000 -0.000000 -2.497668
 52 0.000001 -1.748401 -5.000001 3.141593 0.004007 -1.539299
 53 5.500000 0.000000 0.000001 0.285370 0.000000 0.000000
 54 -0.000000 -0.000000 -5.000000 -0.044472 3.137590 -0.000177
 55 6.551490 0.000000 -0.000000 -0.285370 -0.175494 -0.111834
 56 -1.266843 -1.937442 -4.950559 -0.066572 -2.988806 -0.110308
 57 6.551490 0.000001 0.000000 -0.285370 -0.175494 -0.111834
 58 0.699370 -1.944207 -5.006846 -0.027189 -3.088217 0.005298
 59 4.226146 -0.003202 -0.000000 0.043181 -0.087622 0.065845
 60 -0.000000 5.000002 0.000000 -0.153564 0.000087 2.718702
 61 0.000004 -0.000004 -3.713580 0.365818 2.880119 -0.191589
 62 0.000002 -0.000000 5.000000 3.053196 1.558589 -0.074928
 63 -0.000007 0.000006 3.713580 -0.001619 -3.122277 -0.475127
 64 0.000002 -0.000000 -5.000000 -0.088726 1.558589 3.066335
 65 7.363602 1.646647 0.495663 3.141593 -1.570796 0.000000
 66 -0.000005 0.000007 3.619081 0.008255 -3.110080 -0.985231
 67 16.573919 0.000000 -0.000000 -0.000000 -0.000000 -1.065827
 68 15.128180 0.000001 0.000000 -0.102296 0.010178 0.114297
 69 5.758665 4.244730 0.000000 0.000000 0.000000 1.667687
 70 3.177726 0.000000 -0.000000 0.000000 0.000000 3.141593
 71 15.708951 0.000001 0.000000 -0.051525 0.003996 0.061523
 72 0.275148 0.189215 -3.445208 3.130898 0.000409 -1.514604
 73 17.210192 -0.000000 -0.000000 -0.000000 -0.000000 -1.893339
 74 0.000001 0.000000 -4.999999 -0.079433 1.546568 -1.570857
 75 0.000002 -0.000003 -3.619081 0.577895 2.675801 -0.242118
 76 16.573921 -0.000001 -0.000002 -0.000000 -0.000000 -1.163030
 77 15.128181 0.000001 0.000001 0.089479 0.309197 0.659208
 78 5.758666 4.244730 -0.000001 -0.000000 -0.000000 1.815142
 79 4.003934 -0.000000 0.000001 0.000000 0.000000 0.000000
 80 15.708954 0.000001 0.000002 0.042277 0.226871 0.443133
 81 0.273998 0.191089 3.439762 -3.130907 -0.000437 -1.508107
 82 17.210194 -0.000001 -0.000002 0.000000 -0.000000 -1.937080
 83 -0.000000 -0.000001 5.000000 -0.079319 1.595025 -1.570742
time 1
  0 -0.650000 0.000000 33.899605 -0.025849 0.174554 -1.569172
  1 5.685103 0.833236 -32.227173 -0.174512 -0.026131 1.569196
  2 -2.276935 0.000003 -1.238188 -1.570795 -1.570451 0.000000
  3 1.797149 0.711846 0.000568 -0.182716 -0.293350 0.054922
  4 4.119901 -0.002958 0.000559 -0.172117 0.126358 0.392638
  5 4.118996 -0.003204 0.000577 -0.178323 0.129650 0.098916
  6 4.118652 -0.003224 0.000599 -0.183753 0.058759 0.004540
  7 4.119038 -0.003501 -0.000285 0.081610 -0.165959 0.110202
  8 4.443597 -0.000001 -0.000001 0.730510 -0.283690 0.247680
  9 9.024061 0.000001 -0.000000 0.000000 0.000000 0.000000
 10 0.286241 0.142844 1.703227 1.979666 -1.169596 1.065370
 11 6.384774 0.000001 0.000000 -1.686383 1.112631 -1.403026
 12 10.242683 -0.000000 0.000001 -0.000000 -0.000000 -0.715664
 13 11.375562 0.000002 0.000001 3.048906 0.473326 -0.581456
 14 0.728680 0.023430 -1.008291 2.396606 0.246960 1.180207
 15 2.136498 -0.000001 -0.000000 0.000000 -0.000000 -0.078540
 16 2.313139 -0.000001 0.000001 0.000000 0.000000 0.000000
 17 3.115506 -0.886041 -0.021431 -0.166499 0.000392 0.514872
 18 2.011150 0.000001 0.000002 -0.000000 0.000000 1.322792
 19 2.141379 -0.000001 -0.000001 0.000000 0.000000 0.000000
 20 1.734172 0.000000 0.000000 -0.000000 -0.000000 0.660693
 21 0.000006 -4.440594 -0.000000 1.570544 -0.062990 -0.195737
 22 6.000000 0.000001 0.000001 -2.870875 0.000000 0.000000
 23 0.000001 -4.440601 -0.000000 1.569944 -0.062987 0.004053
 24 11.375561 0.000001 0.000004 -2.332232 0.372749 -0.170524
 25 -0.000001 -4.440605 -0.000001 1.570144 -0.062988 0.004040
 26 10.510132 0.000000 0.000000 -0.000000 0.000000 -1.928628
 27 0.000000 -1.748401 4.999999 -0.000000 0.004007 1.602290
 28 5.500002 -0.000000 0.000001 0.310003 0.000000 0.000000
 29 -0.000001 -1.940598 5.000001 -0.044472 0.004003 -0.000180
 30 6.551490 0.000000 -0.000002 -0.829904 0.975523 -0.440294
 31 0.000001 -1.940598 5.000000 -0.027189 -0.053376 0.005295
 32 6.551490 0.000000 -0.000002 -0.239430 0.434899 -0.050352
 33 -0.000002 -1.940599 4.999998 -0.066572 -0.152786 -0.110311
 34 -0.286240 -0.135769 -1.703227 -0.323932 1.269024 2.690865
 35 6.384776 -0.000001 -0.000001 -0.990286 -0.455825 -0.103749
 36 10.242682 -0.000002 0.000000 0.000000 0.000000 -1.855057
 37 11.375562 0.000002 -0.000000 2.141322 0.537265 0.090323
 38 0.728680 0.023431 1.008292 -1.579583 -0.319038 0.212973
 39 2.136496 0.000001 -0.000000 0.000000 0.000000 1.282817
 40 2.313136 0.000000 0.000001 0.000000 0.000000 3.141593
 41 3.115506 -0.886041 0.021431 0.708959 0.171755 0.347804
 42 2.011149 0.000001 0.000001 0.000000 0.000000 2.082010
 43 2.141378 -0.000000 0.000000 0.000000 0.000000 3.141593
 44 1.734172 -0.000000 0.000000 -0.000000 -0.000000 1.041748
 45 0.136315 -3.738193 2.525891 1.493698 2.759406 -1.474501
 46 5.613159 0.862367 3.157032 1.595152 -0.135386 0.061522
 47 11.389364 -0.000819 0.158781 1.840015 0.289947 0.000689
 48 -0.000001 -4.440599 0.000000 1.570144 -3.078602 0.004040
 49 5.999998 0.000001 -0.000000 1.840015 0.000000 -0.000000
 50 0.000003 -4.440600 -0.000000 1.569944 -3.078603 0.004053
 51 10.510131 -0.000001 0.000001 0.000000 0.000000 -2.498325
 52 -0.000000 -1.748399 -5.000001 -3.141593 0.004007 -1.539299
 53 5.500000 -0.000002 0.000000 0.286431 -0.000000 0.000000
 54 -0.000001 -0.000000 -5.000000 -0.044472 3.137590 -0.000177
 55 6.551491 0.000000 -0.000003 -0.286431 -0.178709 -0.107878
 56 -1.266842 -1.937444 -4.950559 -0.066572 -2.988806 -0.110308
 57 6.551491 0.000000 -0.000003 -0.286431 -0.178709 -0.107878
 58 0.699371 -1.944209 -5.006847 -0.027189 -3.088217 0.005298
 59 4.226145 -0.003202 -0.000000 0.043181 -0.087622 0.065845
 60 -0.000000 4.999999 -0.000001 -0.153564 0.000087 2.718702
 61 0.000004 -0.000004 -3.713580 0.365818 2.880119 -0.191589
 62 0.000002 -0.000000 5.000000 3.053196 1.558589 -0.074928
 63 -0.000007 0.000006 3.713580 -0.001619 -3.122277 -0.475127
 64 0.000002 -0.000000 -5.000000 -0.088726 1.558589 3.066335
 65 7.363602 1.646647 0.495663 3.141593 -1.570796 0.000000
 66 -0.000005 0.000007 3.619081 0.008255 -3.110080 -0.985231
 67 16.573919 0.000000 -0.000000 -0.000000 -0.000000 -1.065827
 68 15.128180 0.000001 0.000000 -0.102296 0.010178 0.114297
 69 5.758665 4.244730 0.000000 0.000000 0.000000 1.667687
 70 3.177726 0.000000 -0.000000 0.000000 0.000000 3.141593
 71 15.708951 0.000001 0.000000 -0.051525 0.003996 0.061523
 72 0.275148 0.189215 -3.445208 3.130898 0.000409 -1.514604
 73 17.210192 -0.000000 -0.000000 -0.000000 -0.000000 -1.893339
 74 0.000001 0.000000 -4.999999 -0.079433 1.546568 -1.570857
 75 0.000002 -0.000003 -3.619081 0.577895 2.675801 -0.242118
 76 16.573921 -0.000001 -0.000002 -0.000000 -0.000000 -1.163030
 77 15.128181 0.000001 0.000001 0.089479 0.309197 0.659208
 78 5.758666 4.244730 -0.000001 -0.000000 -0.000000 1.815142
 79 4.003934 -0.000000 0.000001 0.000000 0.000000 0.000000
 80 15.708954 0.000001 0.000002 0.042277 0.226871 0.443133
 81 0.273998 0.191089 3.439762 -3.130907 -0.000437 -1.508107
 82 17.210194 -0.000001 -0.000002 0.000000 -0.000000 -1.937080
 83 -0.000000 -0.000001 5.000000 -0.079319 1.595025 -1.570742
time 2
  0 -0.650000 0.000000 33.899605 -0.025849 0.174554 -1.569172
  1 5.685103 0.833236 -32.227173 -0.174512 -0.026131 1.569196
  2 -2.276935 0.000003 -1.238188 -1.570795 -1.570451 0.000000
  3 1.797149 0.711846 0.000567 -0.182127 -0.286946 0.054341
  4 4.119904 -0.002958 0.000557 -0.171845 0.124408 0.393170
  5 4.118998 -0.003205 0.000576 -0.178012 0.126511 0.099689
  6 4.118654 -0.003224 0.000596 -0.183498 0.056904 0.005076
  7 4.119040 -0.003500 -0.000285 0.081610 -0.165959 0.110202
  8 4.443596 0.000001 -0.000001 0.727893 -0.279776 0.245207
  9 9.024061 0.000001 -0.000000 0.000000 0.000000 0.000000
 10 0.286240 0.142846 1.703227 1.979666 -1.169596 1.065370
 11 6.384776 0.000001 0.000002 -1.678339 1.111834 -1.398755
 12 10.242683 0.000000 0.000001 0.000000 -0.000000 -0.710733
 13 11.375562 0.000001 0.000000 3.047884 0.472746 -0.581247
 14 0.728680 0.023431 -1.008291 2.396606 0.246960 1.180207
 15 2.136496 0.000000 -0.000001 -0.000000 0.000000 -0.078540
 16 2.313140 -0.000000 0.000001 0.000000 0.000000 0.000000
 17 3.115507 -0.886040 -0.021431 -0.166499 0.000392 0.514872
 18 2.011150 0.000002 -0.000001 -0.000000 0.000000 1.322792
 19 2.141379 -0.000001 0.000000 0.000000 0.000000 0.000000
 20 1.734173 0.000001 -0.000001 -0.000000 0.000000 0.660693
 21 0.000005 -4.440594 -0.000000 1.570544 -0.062990 -0.195737
 22 5.999999 0.000001 -0.000000 -2.871908 0.000000 0.000000
 23 0.000000 -4.440600 0.000001 1.569944 -0.062987 0.004053
 24 11.375561 0.000001 0.000004 -2.332843 0.372562 -0.170527
 25 -0.000001 -4.440604 0.000000 1.570144 -0.062988 0.004040
 26 10.510130 0.000001 -0.000001 -0.000000 0.000000 -1.926163
 27 0.000001 -1.748402 4.999998 0.000000 0.004007 1.602290
 28 5.500000 0.000001 -0.000000 0.309450 0.000000 0.000000
 29 0.000000 -1.940598 5.000001 -0.044472 0.004003 -0.000180
 30 6.551491 0.000000 0.000001 -0.826161 0.972387 -0.439493
 31 -0.000000 -1.940599 5.000001 -0.027189 -0.053376 0.005295
 32 6.551491 0.000000 0.000001 -0.239094 0.434127 -0.051282
 33 0.000000 -1.940599 4.999994 -0.066572 -0.152786 -0.110311
 34 -0.286242 -0.135766 -1.703227 -0.339135 1.266466 2.675646
 35 6.384777 -0.000001 0.000000 -0.995079 -0.458655 -0.092844
 36 10.242682 -0.000002 0.000001 -0.000000 -0.000000 -1.856492
 37 11.375562 0.000001 -0.000000 2.139836 0.538432 0.090568
 38 0.728681 0.023431 1.008292 -1.579583 -0.319038 0.212973
 39 2.136497 0.000002 0.000000 0.000000 0.000000 1.282817
 40 2.313139 -0.000001 0.000000 0.000000 0.000000 3.141593
 41 3.115507 -0.886041 0.021431 0.708959 0.171755 0.347804
 42 2.011151 0.000001 -0.000000 -0.000000 0.000000 2.082010
 43 2.141380 -0.000001 -0.000000 0.000000 0.000000 3.141593
 44 1.734174 -0.000001 -0.000001 0.000000 -0.000000 1.041748
 45 0.136315 -3.738193 2.525889 1.493698 2.759406 -1.474501
 46 5.613161 0.862366 3.157029 1.595152 -0.135386 0.061522
 47 11.389366 -0.000819 0.158781 1.839234 0.290477 0.000806
 48 -0.000001 -4.440599 0.000000 1.570144 -3.078602 0.004040
 49 5.999999 -0.000000 -0.000000 1.839234 -0.000000 -0.000000
 50 -0.000000 -4.440601 0.000000 1.569944 -3.078603 0.004053
 51 10.510131 -0.000000 0.000001 -0.000000 0.000000 -2.499043
 52 0.000000 -1.748401 -5.000001 -3.141593 0.004007 -1.539299
 53 5.500000 -0.000001 0.000001 0.287682 0.000000 0.000000
 54 0.000000 0.000001 -5.000000 -0.044472 3.137589 -0.000177
 55 6.551491 -0.000001 -0.000000 -0.287682 -0.182299 -0.103345
 56 -1.266843 -1.937445 -4.950558 -0.066572 -2.988806 -0.110308
 57 6.551491 -0.000001 -0.000000 -0.287682 -0.182299 -0.103345
 58 0.699370 -1.944210 -5.006845 -0.027189 -3.088217 0.005298
 59 4.226147 -0.003201 0.000000 0.043181 -0.087622 0.065845
 60 0.000001 5.000000 -0.000001 -0.153564 0.000087 2.718702
 61 0.000004 -0.000004 -3.713580 0.365818 2.880119 -0.191589
 62 0.000002 -0.000000 5.000000 3.053196 1.558589 -0.074928
 63 -0.000007 0.000006 3.713580 -0.001619 -3.122277 -0.475127
 64 0.000002 -0.000000 -5.000000 -0.088726 1.558589 3.066335
 65 7.363602 1.646647 0.495663 3.141593 -1.570796 0.000000
 66 -0.000005 0.000007 3.619081 0.008255 -3.110080 -0.985231
 67 16.573919 0.000000 -0.000000 -0.000000 -0.000000 -1.065827
 68 15.128180 0.000001 0.000000 -0.102296 0.010178 0.114297
 69 5.758665 4.244730 0.000000 0.000000 0.000000 1.667687
 70 3.177726 0.000000 -0.000000 0.000000 0.000000 3.141593
 71 15.708951 0.000001 0.000000 -0.051525 0.003996 0.061523
 72 0.275148 0.189215 -3.445208 3.130898 0.000409 -1.514604
 73 17.210192 -0.000000 -0.000000 -0.000000 -0.000000 -1.893339
 74 0.000001 0.000000 -4.999999 -0.079433 1.546568 -1.570857
 75 0.000002 -0.000003 -3.619081 0.577895 2.675801 -0.242118
 76 16.573921 -0.000001 -0.000002 -0.000000 -0.000000 -1.163030
 77 15.128181 0.000001 0.000001 0.089479 0.309197 0.659208
 78 5.758666 4.244730 -0.000001 -0.000000 -0.000000 1.815142
 79 4.003934 -0.000000 0.000001 0.000000 0.000000 0.000000
 80 15.708954 0.000001 0.000002 0.042277 0.226871 0.443133
 81 0.273998 0.191089 3.439762 -3.130907 -0.000437 -1.508107
 82 17.210194 -0.000001 -0.000002 0.000000 -0.000000 -1.937080
 83 -0.000000 -0.000001 5.000000 -0.079319 1.595025 -1.570742
time 3
  0 -0.650000 0.000000 33.899605 -0.025849 0.174554 -1.569172
  1 5.685103 0.833236 -32.227173 -0.174512 -0.026131 1.569196
  2 -2.276935 0.000003 -1.238188 -1.570795 -1.570451 0.000000
  3 1.797149 0.711846 0.000566 -0.181578 -0.280929 0.053800
  4 4.119905 -0.002958 0.000556 -0.171590 0.122576 0.393669
  5 4.119002 -0.003207 0.000574 -0.177722 0.123561 0.100414
  6 4.118652 -0.003221 0.000599 -0.183259 0.055161 0.005579
  7 4.119040 -0.003500 -0.000285 0.081610 -0.165959 0.110202
  8 4.443597 0.000001 0.000001 0.725410 -0.276099 0.242903
  9 9.024060 0.000002 -0.000000 0.000000 0.000000 0.000000
 10 0.286243 0.142844 1.703226 1.979666 -1.169596 1.065370
 11 6.384778 -0.000001 -0.000001 -1.670775 1.111116 -1.394740
 12 10.242682 -0.000000 0.000001 0.000000 -0.000000 -0.706094
 13 11.375559 -0.000000 -0.000001 3.046974 0.472191 -0.580919
 14 0.728681 0.023432 -1.008291 2.396606 0.246960 1.180207
 15 2.136497 -0.000000 0.000001 -0.000000 0.000000 -0.078540
 16 2.313140 0.000000 -0.000001 0.000000 0.000000 0.000000
 17 3.115506 -0.886039 -0.021431 -0.166499 0.000392 0.514872
 18 2.011150 0.000001 0.000000 -0.000000 0.000000 1.322792
 19 2.141381 -0.000001 0.000000 0.000000 0.000000 0.000000
 20 1.734172 0.000001 -0.000000 -0.000000 -0.000000 0.660693
 21 0.000006 -4.440593 -0.000000 1.570544 -0.062990 -0.195737
 22 5.999999 0.000001 0.000001 -2.872836 -0.000000 0.000000
 23 0.000002 -4.440601 0.000000 1.569944 -0.062987 0.004053
 24 11.375559 -0.000000 0.000004 -2.333404 0.372353 -0.170478
 25 -0.000000 -4.440605 0.000001 1.570144 -0.062988 0.004040
 26 10.510132 0.000000 0.000001 0.000000 -0.000000 -1.923843
 27 0.000001 -1.748398 4.999999 -0.000000 0.004007 1.602290
 28 5.500000 0.000000 0.000001 0.308900 -0.000000 -0.000000
 29 -0.000004 -1.940599 5.000000 -0.044472 0.004003 -0.000180
 30 6.551492 -0.000000 0.000001 -0.822581 0.969436 -0.438720
 31 -0.000001 -1.940599 5.000001 -0.027189 -0.053376 0.005295
 32 6.551492 -0.000000 0.000001 -0.238756 0.433395 -0.052156
 33 -0.000002 -1.940599 4.999996 -0.066572 -0.152786 -0.110311
 34 -0.286243 -0.135766 -1.703225 -0.353188 1.264001 2.661583
 35 6.384777 0.000001 -0.000000 -0.999600 -0.461317 -0.082578
 36 10.242682 -0.000002 0.000001 -0.000000 0.000000 -1.857784
 37 11.375562 0.000003 -0.000001 2.138564 0.539422 0.090741
 38 0.728680 0.023431 1.008294 -1.579583 -0.319038 0.212973
 39 2.136497 -0.000001 -0.000000 -0.000000 0.000000 1.282817
 40 2.313141 -0.000000 -0.000000 0.000000 0.000000 3.141593
 41 3.115506 -0.886041 0.021433 0.708959 0.171755 0.347804
 42 2.011149 -0.000000 0.000000 -0.000000 0.000000 2.082010
 43 2.141379 0.000001 0.000000 0.000000 0.000000 3.141593
 44 1.734173 -0.000002 -0.000001 -0.000000 0.000000 1.041748
 45 0.136315 -3.738194 2.525890 1.493698 2.759406 -1.474501
 46 5.613160 0.862366 3.157031 1.595152 -0.135386 0.061522
 47 11.389365 -0.000818 0.158780 1.838568 0.290924 0.000888
 48 0.000001 -4.440600 0.000001 1.570144 -3.078602 0.004040
 49 5.999999 0.000000 -0.000001 1.838568 -0.000000 0.000000
 50 0.000002 -4.440601 -0.000001 1.569944 -3.078603 0.004053
 51 10.510131 -0.000002 0.000002 -0.000000 0.000000 -2.499688
 52 0.000000 -1.748400 -5.000001 3.141593 0.004007 -1.539299
 53 5.500000 -0.000001 0.000000 0.288899 0.000000 0.000000
 54 -0.000001 0.000001 -5.000001 -0.044472 3.137589 -0.000177
 55 6.551491 0.000001 -0.000001 -0.288899 -0.185599 -0.099062
 56 -1.266843 -1.937442 -4.950560 -0.066572 -2.988806 -0.110308
 57 6.551491 0.000001 -0.000001 -0.288899 -0.185599 -0.099062
 58 0.699371 -1.944205 -5.006848 -0.027189 -3.088217 0.005298
 59 4.226148 -0.003201 -0.000000 0.043181 -0.087622 0.065845
 60 0.000002 5.000000 0.000000 -0.153564 0.000087 2.718702
 61 0.000004 -0.000004 -3.713580 0.365818 2.880119 -0.191589
 62 0.000002 -0.000000 5.000000 3.053196 1.558589 -0.074928
 63 -0.000007 0.000006 3.713580 -0.001619 -3.122277 -0.475127
 64 0.000002 -0.000000 -5.000000 -0.088726 1.558589 3.066335
 65 7.363602 1.646647 0.495663 3.141593 -1.570796 0.000000
 66 -0.000005 0.000007 3.619081 0.008255 -3.110080 -0.985231
 67 16.573919 0.000000 -0.000000 -0.000000 -0.000000 -1.065827
 68 15.128180 0.000001 0.000000 -0.102296 0.010178 0.114297
 69 5.758665 4.244730 0.000000 0.000000 0.000000 1.667687
 70 3.177726 0.000000 -0.000000 0.000000 0.000000 3.141593
 71 15.708951 0.000001 0.000000 -0.051525 0.003996 0.061523
 72 0.275148 0.189215 -3.445208 3.130898 0.000409 -1.514604
 73 17.210192 -0.000000 -0.000000 -0.000000 -0.000000 -1.893339
 74 0.000001 0.000000 -4.999999 -0.079433 1.546568 -1.570857
 75 0.000002 -0.000003 -3.619081 0.577895 2.675801 -0.242118
 76 16.573921 -0.000001 -0.000002 -0.000000 -0.000000 -1.163030
 77 15.128181 0.000001 0.000001 0.089479 0.309197 0.659208
 78 5.758666 4.244730 -0.000001 -0.000000 -0.000000 1.815142
 79 4.003934 -0.000000 0.000001 0.000000 0.000000 0.000000
 80 15.708954 0.000001 0.000002 0.042277 0.226871 0.443133
 81 0.273998 0.191089 3.439762 -3.130907 -0.000437 -1.508107
 82 17.210194 -0.000001 -0.000002 0.000000 -0.000000 -1.937080
 83 -0.000000 -0.000001 5.000000 -0.079319 1.595025 -1.570742
time 4
  0 -0.650000 0.000000 33.899605 -0.025849 0.174554 -1.569172
  1 5.685103 0.833236 -32.227173 -0.174512 -0.026131 1.569196
  2 -2.276935 0.000003 -1.238188 -1.570795 -1.570451 0.000000
  3 1.797149 0.711847 0.000566 -0.181173 -0.276465 0.053402
  4 4.119909 -0.002959 0.000554 -0.171401 0.121217 0.394039
  5 4.118999 -0.003205 0.000575 -0.177508 0.121373 0.100951
  6 4.118654 -0.003225 0.000596 -0.183082 0.053868 0.005953
  7 4.119037 -0.003500 -0.000284 0.081610 -0.165959 0.110202
  8 4.443598 -0.000002 -0.000001 0.723553 -0.273371 0.241205
  9 9.024060 0.000000 -0.000000 0.000000 0.000000 0.000000
 10 0.286242 0.142842 1.703226 1.979666 -1.169596 1.065371
 11 6.384777 -0.000001 -0.000000 -1.665087 1.110842 -1.391648
 12 10.242682 0.000000 0.000000 -0.000000 -0.000000 -0.702799
 13 11.375565 0.000002 0.000001 3.046514 0.471707 -0.580081
 14 0.728680 0.023431 -1.008292 2.396606 0.246960 1.180207
 15 2.136496 0.000000 -0.000001 -0.000000 -0.000000 -0.078540
 16 2.313138 -0.000001 0.000000 0.000000 0.000000 0.000000
 17 3.115507 -0.886042 -0.021432 -0.166499 0.000392 0.514872
 18 2.011151 0.000001 0.000001 0.000000 0.000000 1.322791
 19 2.141379 0.000001 -0.000000 0.000000 0.000000 0.000000
 20 1.734173 0.000001 0.000001 -0.000000 -0.000000 0.660693
 21 0.000006 -4.440594 -0.000000 1.570544 -0.062990 -0.195737
 22 6.000000 0.000000 0.000000 -2.873352 0.000000 -0.000000
 23 0.000002 -4.440600 -0.000000 1.569944 -0.062987 0.004053
 24 11.375562 0.000001 0.000003 -2.333777 0.372044 -0.170211
 25 -0.000000 -4.440605 -0.000000 1.570144 -0.062988 0.004040
 26 10.510130 0.000000 -0.000000 0.000000 0.000000 -1.922196
 27 0.000000 -1.748402 4.999999 0.000000 0.004007 1.602290
 28 5.500000 -0.000000 0.000000 0.308399 -0.000000 -0.000000
 29 0.000000 -1.940598 5.000001 -0.044472 0.004003 -0.000180
 30 6.551490 0.000000 0.000001 -0.819651 0.967328 -0.437858
 31 0.000000 -1.940599 5.000001 -0.027189 -0.053376 0.005295
 32 6.551490 0.000001 0.000001 -0.238439 0.432862 -0.052725
 33 -0.000001 -1.940599 4.999998 -0.066572 -0.152786 -0.110311
 34 -0.286241 -0.135769 -1.703227 -0.363471 1.262134 2.651295
 35 6.384776 0.000000 -0.000002 -1.002966 -0.463295 -0.074948
 36 10.242681 -0.000004 0.000001 -0.000000 -0.000000 -1.858706
 37 11.375562 0.000002 -0.000001 2.138145 0.539725 0.090851
 38 0.728680 0.023431 1.008291 -1.579583 -0.319038 0.212973
 39 2.136498 0.000001 -0.000000 -0.000000 0.000000 1.282817
 40 2.313136 0.000000 0.000000 0.000000 0.000000 3.141593
 41 3.115506 -0.886041 0.021430 0.708959 0.171755 0.347804
 42 2.011149 0.000000 -0.000001 -0.000000 0.000000 2.082010
 43 2.141381 0.000001 0.000001 0.000000 0.000000 3.141593
 44 1.734171 -0.000001 -0.000000 0.000000 0.000000 1.041748
 45 0.136314 -3.738192 2.525890 1.493698 2.759406 -1.474501
 46 5.613159 0.862366 3.157030 1.595152 -0.135386 0.061522
 47 11.389366 -0.000818 0.158781 1.838347 0.291063 0.000945
 48 0.000000 -4.440600 -0.000001 1.570144 -3.078602 0.004040
 49 5.999999 -0.000000 -0.000000 1.838347 -0.000000 -0.000000
 50 0.000002 -4.440601 -0.000001 1.569944 -3.078603 0.004053
 51 10.510131 -0.000000 0.000001 0.000000 0.000000 -2.500149
 52 0.000001 -1.748400 -5.000001 3.141593 0.004007 -1.539299
 53 5.500000 -0.000003 0.000000 0.289826 -0.000000 0.000000
 54 -0.000001 -0.000001 -4.999999 -0.044472 3.137590 -0.000177
 55 6.551490 -0.000001 -0.000001 -0.289826 -0.188000 -0.095873
 56 -1.266844 -1.937444 -4.950561 -0.066572 -2.988806 -0.110308
 57 6.551491 -0.000001 -0.000001 -0.289826 -0.188000 -0.095873
 58 0.699370 -1.944209 -5.006848 -0.027189 -3.088217 0.005298
 59 4.226147 -0.003202 -0.000000 0.043181 -0.087622 0.065845
 60 0.000001 5.000000 -0.000001 -0.153564 0.000087 2.718702
 61 0.000004 -0.000004 -3.713580 0.365818 2.880119 -0.191589
 62 0.000002 -0.000000 5.000000 3.053196 1.558589 -0.074928
 63 -0.000007 0.000006 3.713580 -0.001619 -3.122277 -0.475127
 64 0.000002 -0.000000 -5.000000 -0.088726 1.558589 3.066335
 65 7.363602 1.646647 0.495663 3.141593 -1.570796 0.000000
 66 -0.000005 0.000007 3.619081 0.008255 -3.110080 -0.985231
 67 16.573919 0.000000 -0.000000 -0.000000 -0.000000 -1.065827
 68 15.128180 0.000001 0.000000 -0.102296 0.010178 0.114297
 69 5.758665 4.244730 0.000000 0.000000 0.000000 1.667687
 70 3.177726 0.000000 -0.000000 0.000000 0.000000 3.141593
 71 15.708951 0.000001 0.000000 -0.051525 0.003996 0.061523
 72 0.275148 0.189215 -3.445208 3.130898 0.000409 -1.514604
 73 17.210192 -0.000000 -0.000000 -0.000000 -0.000000 -1.893339
 74 0.000001 0.000000 -4.999999 -0.079433 1.546568 -1.570857
 75 0.000002 -0.000003 -3.619081 0.577895 2.675801 -0.242118
 76 16.573921 -0.000001 -0.000002 -0.000000 -0.000000 -1.163030
 77 15.128181 0.000001 0.000001 0.089479 0.309197 0.659208
 78 5.758666 4.244730 -0.000001 -0.000000 -0.000000 1.815142
 79 4.003934 -0.000000 0.000001 0.000000 0.000000 0.000000
 80 15.708954 0.000001 0.000002 0.042277 0.226871 0.443133
 81 0.273998 0.191089 3.439762 -3.130907 -0.000437 -1.508107
 82 17.210194 -0.000001 -0.000002 0.000000 -0.000000 -1.937080
 83 -0.000000 -0.000001 5.000000 -0.079319 1.595025 -1.570742
time 5
  0 -0.650000 0.000000 33.899605 -0.025849 0.174554 -1.569172
  1 5.685103 0.833236 -32.227173 -0.174512 -0.026131 1.569196
  2 -2.276935 0.000003 -1.238188 -1.570795 -1.570451 0.000000
  3 1.797153 0.711846 0.000566 -0.181015 -0.274718 0.053247
  4 4.119909 -0.002959 0.000554 -0.171327 0.120685 0.394183
  5 4.118993 -0.003202 0.000576 -0.177425 0.120516 0.101162
  6 4.118658 -0.003227 0.000594 -0.183013 0.053362 0.006099
  7 4.119036 -0.003500 -0.000284 0.081610 -0.165959 0.110202
  8 4.443600 -0.000000 0.000000 0.722822 -0.272304 0.240544
  9 9.024059 -0.000001 0.000000 0.000000 0.000000 0.000000
 10 0.286246 0.142844 1.703226 1.979666 -1.169596 1.065370
 11 6.384777 -0.000000 -0.000001 -1.662663 1.111390 -1.390134
 12 10.242681 -0.000000 0.000001 0.000000 -0.000000 -0.701921
 13 11.375561 0.000000 0.000001 3.046841 0.471337 -0.578335
 14 0.728681 0.023431 -1.008292 2.396606 0.246960 1.180207
 15 2.136497 0.000000 0.000000 -0.000000 0.000000 -0.078540
 16 2.313139 -0.000000 0.000000 0.000000 0.000000 0.000000
 17 3.115506 -0.886040 -0.021431 -0.166499 0.000392 0.514872
 18 2.011151 -0.000001 -0.000000 -0.000000 0.000000 1.322792
 19 2.141380 0.000000 -0.000000 0.000000 0.000000 0.000000
 20 1.734172 -0.000000 0.000000 -0.000000 0.000000 0.660693
 21 0.000007 -4.440593 -0.000000 1.570544 -0.062990 -0.195737
 22 6.000001 0.000000 0.000001 -2.873146 0.000000 -0.000000
 23 0.000001 -4.440602 0.000000 1.569944 -0.062987 0.004053
 24 11.375564 0.000001 0.000005 -2.333825 0.371551 -0.169559
 25 -0.000000 -4.440604 0.000000 1.570144 -0.062988 0.004040
 26 10.510129 -0.000000 0.000000 -0.000000 0.000000 -1.921757
 27 0.000002 -1.748403 4.999998 0.000000 0.004007 1.602291
 28 5.499999 -0.000000 0.000001 0.307996 0.000000 0.000000
 29 0.000001 -1.940599 5.000001 -0.044472 0.004003 -0.000180
 30 6.551491 0.000000 0.000000 -0.817854 0.966730 -0.436767
 31 -0.000000 -1.940598 5.000001 -0.027189 -0.053376 0.005295
 32 6.551491 0.000000 0.000000 -0.238168 0.432688 -0.052734
 33 -0.000001 -1.940599 4.999999 -0.066572 -0.152786 -0.110311
 34 -0.286238 -0.135767 -1.703226 -0.367461 1.261395 2.647304
 35 6.384776 0.000001 -0.000004 -1.004285 -0.464070 -0.071959
 36 10.242680 -0.000001 0.000001 -0.000000 0.000000 -1.859059
 37 11.375563 -0.000001 -0.000001 2.139220 0.538836 0.090935
 38 0.728681 0.023431 1.008292 -1.579583 -0.319038 0.212973
 39 2.136497 0.000001 -0.000000 -0.000000 0.000000 1.282817
 40 2.313139 -0.000000 -0.000000 0.000000 0.000000 3.141593
 41 3.115508 -0.886041 0.021430 0.708959 0.171755 0.347804
 42 2.011148 0.000001 0.000001 -0.000000 0.000000 2.082010
 43 2.141378 -0.000001 -0.000001 0.000000 0.000000 3.141593
 44 1.734170 -0.000000 0.000001 -0.000000 -0.000000 1.041748
 45 0.136315 -3.738191 2.525891 1.493698 2.759406 -1.474501
 46 5.613161 0.862366 3.157030 1.595152 -0.135386 0.061522
 47 11.389367 -0.000820 0.158780 1.838899 0.290672 0.001000
 48 0.000001 -4.440599 0.000000 1.570144 -3.078602 0.004040
 49 6.000000 -0.000001 -0.000001 1.838899 0.000000 -0.000000
 50 0.000001 -4.440601 -0.000000 1.569944 -3.078603 0.004053
 51 10.510132 -0.000003 0.000002 0.000000 -0.000000 -2.500326
 52 0.000001 -1.748400 -5.000000 -3.141593 0.004007 -1.539299
 53 5.500000 -0.000003 0.000001 0.290194 -0.000000 -0.000000
 54 -0.000000 0.000001 -5.000000 -0.044472 3.137590 -0.000177
 55 6.551490 0.000000 -0.000004 -0.290194 -0.188928 -0.094623
 56 -1.266843 -1.937444 -4.950559 -0.066572 -2.988806 -0.110308
 57 6.551491 0.000000 -0.000003 -0.290194 -0.188928 -0.094623
 58 0.699370 -1.944207 -5.006847 -0.027189 -3.088217 0.005298
 59 4.226147 -0.003203 -0.000000 0.043181 -0.087622 0.065845
 60 0.000002 4.999999 -0.000001 -0.153564 0.000087 2.718702
 61 0.000004 -0.000004 -3.713580 0.365818 2.880119 -0.191589
 62 0.000002 -0.000000 5.000000 3.053196 1.558589 -0.074928
 63 -0.000007 0.000006 3.713580 -0.001619 -3.122277 -0.475127
 64 0.000002 -0.000000 -5.000000 -0.088726 1.558589 3.066335
 65 7.363602 1.646647 0.495663 3.141593 -1.570796 0.000000
 66 -0.000005 0.000007 3.619081 0.008255 -3.110080 -0.985231
 67 16.573919 0.000000 -0.000000 -0.000000 -0.000000 -1.065827
 68 15.128180 0.000001 0.000000 -0.102296 0.010178 0.114297
 69 5.758665 4.244730 0.000000 0.000000 0.000000 1.667687
 70 3.177726 0.000000 -0.000000 0.000000 0.000000 3.141593
 71 15.708951 0.000001 0.000000 -0.051525 0.003996 0.061523
 72 0.275148 0.189215 -3.445208 3.130898 0.000409 -1.514604
 73 17.210192 -0.000000 -0.000000 -0.000000 -0.000000 -1.893339
 74 0.000001 0.000000 -4.999999 -0.079433 1.546568 -1.570857
 75 0.000002 -0.000003 -3.619081 0.577895 2.675801 -0.242118
 76 16.573921 -0.000001 -0.000002 -0.000000 -0.000000 -1.163030
 77 15.128181 0.000001 0.000001 0.089479 0.309197 0.659208
 78 5.758666 4.244730 -0.000001 -0.000000 -0.000000 1.815142
 79 4.003934 -0.000000 0.000001 0.000000 0.000000 0.000000
 80 15.708954 0.000001 0.000002 0.042277 0.226871 0.443133
 81 0.273998 0.191089 3.439762 -3.130907 -0.000437 -1.508107
 82 17.210194 -0.000001 -0.000002 0.000000 -0.000000 -1.937080
 83 -0.000000 -0.000001 5.000000 -0.079319 1.595025 -1.570742
time 6
  0 -0.650000 0.000000 33.899605 -0.025849 0.174554 -1.569172
  1 5.685103 0.833236 -32.227173 -0.174512 -0.026131 1.569196
  2 -2.276935 0.000003 -1.238188 -1.570795 -1.570451 0.000000
  3 1.797153 0.711846 0.000566 -0.181173 -0.276465 0.053402
  4 4.119905 -0.002958 0.000556 -0.171401 0.121217 0.394039
  5 4.118999 -0.003206 0.000575 -0.177508 0.121373 0.100951
  6 4.118654 -0.003225 0.000596 -0.183082 0.053868 0.005953
  7 4.119038 -0.003498 -0.000283 0.081610 -0.165959 0.110202
  8 4.443599 -0.000002 -0.000002 0.723553 -0.273371 0.241205
  9 9.024060 0.000000 0.000000 0.000000 0.000000 0.000000
 10 0.286242 0.142842 1.703225 1.979666 -1.169596 1.065370
 11 6.384777 -0.000001 -0.000001 -1.664442 1.113000 -1.390649
 12 10.242682 -0.000000 0.000001 -0.000000 0.000000 -0.704153
 13 11.375563 0.000002 0.000001 3.048184 0.471109 -0.575423
 14 0.728681 0.023432 -1.008292 2.396606 0.246960 1.180207
 15 2.136496 -0.000000 0.000000 -0.000000 -0.000000 -0.078540
 16 2.313140 -0.000000 0.000000 0.000000 0.000000 0.000000
 17 3.115507 -0.886041 -0.021432 -0.166499 0.000392 0.514872
 18 2.011149 -0.000001 -0.000001 0.000000 0.000000 1.322791
 19 2.141381 0.000000 0.000001 0.000000 0.000000 0.000000
 20 1.734172 -0.000000 -0.000000 0.000000 0.000000 0.660693
 21 0.000007 -4.440594 0.000000 1.570544 -0.062990 -0.195737
 22 6.000000 0.000001 0.000000 -2.872013 0.000000 -0.000000
 23 0.000001 -4.440599 -0.000000 1.569944 -0.062987 0.004053
 24 11.375562 0.000001 0.000004 -2.333454 0.370823 -0.168415
 25 0.000000 -4.440604 -0.000001 1.570144 -0.062988 0.004040
 26 10.510134 -0.000000 0.000001 -0.000000 -0.000000 -1.922873
 27 0.000002 -1.748403 4.999999 -0.000000 0.004007 1.602290
 28 5.500000 0.000000 0.000000 0.307726 0.000000 0.000000
 29 -0.000000 -1.940598 5.000000 -0.044472 0.004003 -0.000180
 30 6.551490 0.000000 0.000001 -0.817517 0.968083 -0.435360
 31 0.000002 -1.940599 5.000002 -0.027189 -0.053376 0.005295
 32 6.551490 0.000000 0.000001 -0.237964 0.432981 -0.052015
 33 0.000002 -1.940600 4.999995 -0.066572 -0.152786 -0.110311
 34 -0.286241 -0.135769 -1.703228 -0.363471 1.262134 2.651295
 35 6.384776 0.000001 -0.000001 -1.002966 -0.463295 -0.074948
 36 10.242682 -0.000002 0.000001 -0.000000 0.000000 -1.858706
 37 11.375560 0.000000 -0.000001 2.142212 0.536421 0.091010
 38 0.728679 0.023431 1.008293 -1.579583 -0.319038 0.212973
 39 2.136497 -0.000001 -0.000000 -0.000000 0.000000 1.282817
 40 2.313142 -0.000000 0.000000 0.000000 0.000000 3.141593
 41 3.115505 -0.886042 0.021432 0.708959 0.171755 0.347804
 42 2.011150 -0.000001 0.000000 -0.000000 0.000000 2.082010
 43 2.141380 -0.000000 0.000000 0.000000 0.000000 3.141593
 44 1.734170 -0.000001 0.000001 -0.000000 -0.000000 1.041748
 45 0.136315 -3.738192 2.525891 1.493698 2.759406 -1.474501
 46 5.613160 0.862366 3.157031 1.595152 -0.135386 0.061522
 47 11.389365 -0.000820 0.158781 1.840442 0.289602 0.001064
 48 0.000000 -4.440599 0.000001 1.570144 -3.078602 0.004040
 49 5.999997 -0.000001 -0.000001 1.840442 0.000000 0.000000
 50 0.000004 -4.440601 -0.000000 1.569944 -3.078603 0.004053
 51 10.510132 -0.000003 0.000001 -0.000000 -0.000000 -2.500149
 52 0.000000 -1.748401 -5.000001 -3.141593 0.004007 -1.539299
 53 5.500000 -0.000002 0.000000 0.289826 -0.000000 0.000000
 54 -0.000000 0.000001 -5.000000 -0.044472 3.137590 -0.000177
 55 6.551490 0.000000 -0.000000 -0.289826 -0.188000 -0.095873
 56 -1.266844 -1.937443 -4.950559 -0.066572 -2.988806 -0.110308
 57 6.551490 0.000000 -0.000000 -0.289826 -0.188000 -0.095873
 58 0.699370 -1.944208 -5.006845 -0.027189 -3.088217 0.005298
 59 4.226147 -0.003201 -0.000000 0.043181 -0.087622 0.065845
 60 0.000001 5.000000 -0.000000 -0.153564 0.000087 2.718702
 61 0.000004 -0.000004 -3.713580 0.365818 2.880119 -0.191589
 62 0.000002 -0.000000 5.000000 3.053196 1.558589 -0.074928
 63 -0.000007 0.000006 3.713580 -0.001619 -3.122277 -0.475127
 64 0.000002 -0.000000 -5.000000 -0.088726 1.558589 3.066335
 65 7.363602 1.646647 0.495663 3.141593 -1.570796 0.000000
 66 -0.000005 0.000007 3.619081 0.008255 -3.110080 -0.985231
 67 16.573919 0.000000 -0.000000 -0.000000 -0.000000 -1.065827
 68 15.128180 0.000001 0.000000 -0.102296 0.010178 0.114297
 69 5.758665 4.244730 0.000000 0.000000 0.000000 1.667687
 70 3.177726 0.000000 -0.000000 0.000000 0.000000 3.141593
 71 15.708951 0.000001 0.000000 -0.051525 0.003996 0.061523
 72 0.275148 0.189215 -3.445208 3.130898 0.000409 -1.514604
 73 17.210192 -0.000000 -0.000000 -0.000000 -0.000000 -1.893339
 74 0.000001 0.000000 -4.999999 -0.079433 1.546568 -1.570857
 75 0.000002 -0.000003 -3.619081 0.577895 2.675801 -0.242118
 76 16.573921 -0.000001 -0.000002 -0.000000 -0.000000 -1.163030
 77 15.128181 0.000001 0.000001 0.089479 0.309197 0.659208
 78 5.758666 4.244730 -0.000001 -0.000000 -0.000000 1.815142
 79 4.003934 -0.000000 0.000001 0.000000 0.000000 0.000000
 80 15.708954 0.000001 0.000002 0.042277 0.226871 0.443133
 81 0.273998 0.191089 3.439762 -3.130907 -0.000437 -1.508107
 82 17.210194 -0.000001 -0.000002 0.000000 -0.000000 -1.937080
 83 -0.000000 -0.000001 5.000000 -0.079319 1.595025 -1.570742
time 7
  0 -0.650000 0.000000 33.899605 -0.025849 0.174554 -1.569172
  1 5.685103 0.833236 -32.227173 -0.174512 -0.026131 1.569196
  2 -2.276935 0.000003 -1.238188 -1.570795 -1.570451 0.000000
  3 1.797149 0.711846 0.000566 -0.181578 -0.280929 0.053800
  4 4.119905 -0.002958 0.000556 -0.171590 0.122576 0.393669
  5 4.119002 -0.003206 0.000574 -0.177722 0.123561 0.100414
  6 4.118652 -0.003222 0.000599 -0.183259 0.055161 0.005579
  7 4.119040 -0.003500 -0.000286 0.081611 -0.165959 0.110202
  8 4.443596 0.000001 0.000000 0.725410 -0.276099 0.242903
  9 9.024060 0.000002 0.000000 0.000000 0.000000 0.000000
 10 0.286243 0.142844 1.703226 1.979666 -1.169596 1.065370
 11 6.384778 -0.000001 -0.000001 -1.669522 1.115406 -1.392788
 12 10.242683 -0.000000 0.000001 0.000000 -0.000000 -0.708757
 13 11.375562 0.000002 0.000002 3.050317 0.470991 -0.571617
 14 0.728681 0.023431 -1.008292 2.396606 0.246960 1.180207
 15 2.136496 0.000000 -0.000001 0.000000 -0.000000 -0.078540
 16 2.313140 -0.000000 -0.000000 0.000000 0.000000 0.000000
 17 3.115507 -0.886041 -0.021432 -0.166499 0.000392 0.514872
 18 2.011152 0.000001 0.000001 0.000000 -0.000000 1.322792
 19 2.141379 -0.000000 0.000000 0.000000 0.000000 0.000000
 20 1.734173 0.000001 0.000001 0.000000 0.000000 0.660693
 21 0.000005 -4.440594 -0.000001 1.570544 -0.062990 -0.195737
 22 6.000000 0.000000 0.000001 -2.870158 -0.000000 0.000000
 23 0.000003 -4.440602 -0.000000 1.569944 -0.062987 0.004053
 24 11.375562 0.000000 0.000004 -2.332756 0.369912 -0.166892
 25 -0.000001 -4.440602 -0.000000 1.570144 -0.062988 0.004040
 26 10.510133 0.000000 0.000001 0.000000 0.000000 -1.925175
 27 -0.000001 -1.748398 5.000000 -0.000000 0.004007 1.602290
 28 5.500001 0.000000 0.000000 0.307560 -0.000000 -0.000000
 29 0.000000 -1.940599 5.000001 -0.044472 0.004003 -0.000180
 30 6.551491 -0.000000 0.000001 -0.818318 0.970935 -0.433741
 31 -0.000000 -1.940600 5.000002 -0.027189 -0.053376 0.005295
 32 6.551491 -0.000000 0.000001 -0.237812 0.433631 -0.050748
 33 -0.000002 -1.940599 4.999998 -0.066572 -0.152786 -0.110311
 34 -0.286243 -0.135765 -1.703225 -0.353188 1.264001 2.661583
 35 6.384776 0.000001 0.000000 -0.999600 -0.461317 -0.082578
 36 10.242682 0.000002 0.000001 -0.000000 0.000000 -1.857784
 37 11.375560 0.000001 -0.000001 2.146697 0.532822 0.091044
 38 0.728680 0.023431 1.008293 -1.579583 -0.319038 0.212973
 39 2.136496 -0.000002 -0.000000 -0.000000 0.000000 1.282817
 40 2.313139 -0.000000 0.000000 0.000000 0.000000 3.141593
 41 3.115505 -0.886041 0.021432 0.708959 0.171755 0.347804
 42 2.011152 -0.000000 -0.000000 -0.000000 0.000000 2.082010
 43 2.141380 0.000002 0.000001 0.000000 0.000000 3.141593
 44 1.734172 -0.000001 0.000000 -0.000000 0.000000 1.041748
 45 0.136316 -3.738193 2.525891 1.493698 2.759406 -1.474501
 46 5.613159 0.862366 3.157032 1.595152 -0.135386 0.061522
 47 11.389367 -0.000818 0.158781 1.842760 0.288002 0.001123
 48 0.000000 -4.440599 0.000000 1.570144 -3.078602 0.004040
 49 6.000000 0.000002 -0.000001 1.842760 0.000000 0.000000
 50 0.000002 -4.440602 0.000001 1.569944 -3.078603 0.004053
 51 10.510131 0.000001 0.000001 -0.000000 0.000000 -2.499688
 52 0.000001 -1.748397 -5.000002 3.141593 0.004007 -1.539299
 53 5.500000 0.000003 0.000000 0.288899 0.000000 0.000000
 54 -0.000001 0.000001 -5.000000 -0.044472 3.137589 -0.000177
 55 6.551490 0.000001 -0.000000 -0.288899 -0.185599 -0.099062
 56 -1.266844 -1.937443 -4.950560 -0.066572 -2.988806 -0.110308
 57 6.551491 0.000001 -0.000000 -0.288899 -0.185599 -0.099062
 58 0.699370 -1.944206 -5.006848 -0.027189 -3.088217 0.005298
 59 4.226148 -0.003201 -0.000000 0.043181 -0.087622 0.065845
 60 0.000001 5.000000 -0.000001 -0.153564 0.000087 2.718702
 61 0.000004 -0.000004 -3.713580 0.365818 2.880119 -0.191589
 62 0.000002 -0.000000 5.000000 3.053196 1.558589 -0.074928
 63 -0.000007 0.000006 3.713580 -0.001619 -3.122277 -0.475127
 64 0.000002 -0.000000 -5.000000 -0.088726 1.558589 3.066335
 65 7.363602 1.646647 0.495663 3.141593 -1.570796 0.000000
 66 -0.000005 0.000007 3.619081 0.008255 -3.110080 -0.985231
 67 16.573919 0.000000 -0.000000 -0.000000 -0.000000 -1.065827
 68 15.128180 0.000001 0.000000 -0.102296 0.010178 0.114297
 69 5.758665 4.244730 0.000000 0.000000 0.000000 1.667687
 70 3.177726 0.000000 -0.000000 0.000000 0.000000 3.141593
 71 15.708951 0.000001 0.000000 -0.051525 0.003996 0.061523
 72 0.275148 0.189215 -3.445208 3.130898 0.000409 -1.514604
 73 17.210192 -0.000000 -0.000000 -0.000000 -0.000000 -1.893339
 74 0.000001 0.000000 -4.999999 -0.079433 1.546568 -1.570857
 75 0.000002 -0.000003 -3.619081 0.577895 2.675801 -0.242118
 76 16.573921 -0.000001 -0.000002 -0.000000 -0.000000 -1.163030
 77 15.128181 0.000001 0.000001 0.089479 0.309197 0.659208
 78 5.758666 4.244730 -0.000001 -0.000000 -0.000000 1.815142
 79 4.003934 -0.000000 0.000001 0.000000 0.000000 0.000000
 80 15.708954 0.000001 0.000002 0.042277 0.226871 0.443133
 81 0.273998 0.191089 3.439762 -3.130907 -0.000437 -1.508107
 82 17.210194 -0.000001 -0.000002 0.000000 -0.000000 -1.937080
 83 -0.000000 -0.000001 5.000000 -0.079319 1.595025 -1.570742
time 8
  0 -0.650000 0.000000 33.899605 -0.025849 0.174554 -1.569172
  1 5.685103 0.833236 -32.227173 -0.174512 -0.026131 1.569196
  2 -2.276935 0.000003 -1.238188 -1.570795 -1.570451 0.000000
  3 1.797149 0.711846 0.000567 -0.182127 -0.286946 0.054341
  4 4.119904 -0.002958 0.000557 -0.171845 0.124408 0.393170
  5 4.118998 -0.003206 0.000575 -0.178012 0.126511 0.099689
  6 4.118653 -0.003224 0.000596 -0.183498 0.056904 0.005076
  7 4.119040 -0.003500 -0.000285 0.081610 -0.165959 0.110202
  8 4.443600 0.000001 0.000000 0.727893 -0.279776 0.245207
  9 9.024059 0.000001 -0.000000 0.000000 0.000000 0.000000
 10 0.286243 0.142847 1.703228 1.979666 -1.169596 1.065371
 11 6.384777 0.000000 0.000002 -1.676535 1.118214 -1.395916
 12 10.242682 -0.000000 0.000001 0.000000 0.000000 -0.714632
 13 11.375561 0.000001 -0.000001 3.052906 0.470936 -0.567324
 14 0.728681 0.023430 -1.008292 2.396606 0.246960 1.180206
 15 2.136496 0.000000 0.000001 -0.000000 0.000000 -0.078540
 16 2.313140 0.000000 -0.000001 0.000000 0.000000 0.000000
 17 3.115507 -0.886042 -0.021431 -0.166499 0.000392 0.514872
 18 2.011152 0.000001 -0.000000 0.000000 0.000000 1.322792
 19 2.141380 0.000000 0.000001 0.000000 0.000000 0.000000
 20 1.734173 0.000002 0.000000 -0.000000 -0.000000 0.660693
 21 0.000005 -4.440593 -0.000000 1.570544 -0.062990 -0.195737
 22 6.000000 0.000000 0.000000 -2.867888 -0.000000 -0.000000
 23 0.000002 -4.440602 -0.000000 1.569944 -0.062987 0.004053
 24 11.375562 0.000001 0.000003 -2.331866 0.368905 -0.165162
 25 -0.000000 -4.440604 0.000001 1.570144 -0.062988 0.004040
 26 10.510129 0.000000 -0.000000 0.000000 -0.000000 -1.928112
 27 -0.000000 -1.748400 4.999999 -0.000000 0.004007 1.602290
 28 5.499998 0.000000 -0.000001 0.307453 -0.000000 0.000000
 29 -0.000002 -1.940599 5.000000 -0.044472 0.004003 -0.000180
 30 6.551492 -0.000001 0.000001 -0.819776 0.974611 -0.432059
 31 0.000004 -1.940599 5.000002 -0.027189 -0.053376 0.005295
 32 6.551492 -0.000001 0.000001 -0.237687 0.434474 -0.049193
 33 -0.000000 -1.940600 4.999997 -0.066572 -0.152786 -0.110311
 34 -0.286239 -0.135766 -1.703226 -0.339135 1.266466 2.675646
 35 6.384778 0.000001 0.000000 -0.995079 -0.458655 -0.092844
 36 10.242683 0.000000 0.000000 -0.000000 0.000000 -1.856492
 37 11.375562 0.000001 0.000000 2.152037 0.528550 0.090999
 38 0.728680 0.023431 1.008293 -1.579583 -0.319038 0.212973
 39 2.136496 -0.000001 0.000000 -0.000000 0.000000 1.282817
 40 2.313139 0.000000 0.000000 0.000000 0.000000 3.141593
 41 3.115508 -0.886041 0.021430 0.708959 0.171755 0.347804
 42 2.011150 0.000000 0.000000 -0.000000 -0.000000 2.082010
 43 2.141379 -0.000001 0.000000 0.000000 0.000000 3.141593
 44 1.734173 -0.000002 0.000000 -0.000000 0.000000 1.041748
 45 0.136315 -3.738193 2.525890 1.493698 2.759406 -1.474501
 46 5.613159 0.862366 3.157032 1.595152 -0.135386 0.061522
 47 11.389369 -0.000817 0.158781 1.845526 0.286095 0.001153
 48 -0.000001 -4.440598 0.000001 1.570144 -3.078602 0.004040
 49 5.999999 -0.000000 -0.000000 1.845526 -0.000000 0.000000
 50 0.000002 -4.440602 -0.000001 1.569944 -3.078603 0.004053
 51 10.510132 -0.000001 0.000001 -0.000000 0.000000 -2.499043
 52 0.000001 -1.748401 -5.000001 -3.141593 0.004007 -1.539299
 53 5.500000 0.000001 -0.000000 0.287682 0.000000 0.000000
 54 -0.000001 0.000002 -5.000001 -0.044472 3.137589 -0.000177
 55 6.551491 0.000002 0.000000 -0.287682 -0.182299 -0.103345
 56 -1.266843 -1.937444 -4.950558 -0.066572 -2.988806 -0.110308
 57 6.551492 0.000001 0.000000 -0.287682 -0.182299 -0.103345
 58 0.699371 -1.944209 -5.006845 -0.027189 -3.088217 0.005298
 59 4.226147 -0.003200 0.000000 0.043181 -0.087622 0.065845
 60 0.000003 5.000000 -0.000000 -0.153564 0.000087 2.718702
 61 0.000004 -0.000004 -3.713580 0.365818 2.880119 -0.191589
 62 0.000002 -0.000000 5.000000 3.053196 1.558589 -0.074928
 63 -0.000007 0.000006 3.713580 -0.001619 -3.122277 -0.475127
 64 0.000002 -0.000000 -5.000000 -0.088726 1.558589 3.066335
 65 7.363602 1.646647 0.495663 3.141593 -1.570796 0.000000
 66 -0.000005 0.000007 3.619081 0.008255 -3.110080 -0.985231
 67 16.573919 0.000000 -0.000000 -0.000000 -0.000000 -1.065827
 68 15.128180 0.000001 0.000000 -0.102296 0.010178 0.114297
 69 5.758665 4.244730 0.000000 0.000000 0.000000 1.667687
 70 3.177726 0.000000 -0.000000 0.000000 0.000000 3.141593
 71 15.708951 0.000001 0.000000 -0.051525 0.003996 0.061523
 72 0.275148 0.189215 -3.445208 3.130898 0.000409 -1.514604
 73 17.210192 -0.000000 -0.000000 -0.000000 -0.000000 -1.893339
 74 0.000001 0.000000 -4.999999 -0.079433 1.546568 -1.570857
 75 0.000002 -0.000003 -3.619081 0.577895 2.675801 -0.242118
 76 16.573921 -0.000001 -0.000002 -0.000000 -0.000000 -1.163030
 77 15.128181 0.000001 0.000001 0.089479 0.309197 0.659208
 78 5.758666 4.244730 -0.000001 -0.000000 -0.000000 1.815142
 79 4.003934 -0.000000 0.000001 0.000000 0.000000 0.000000
 80 15.708954 0.000001 0.000002 0.042277 0.226871 0.443133
 81 0.273998 0.191089 3.439762 -3.130907 -0.000437 -1.508107
 82 17.210194 -0.000001 -0.000002 0.000000 -0.000000 -1.937080
 83 -0.000000 -0.000001 5.000000 -0.079319 1.595025 -1.570742
time 9
  0 -0.650000 0.000000 33.899605 -0.025849 0.174554 -1.569172
  1 5.685103 0.833236 -32.227173 -0.174512 -0.026131 1.569196
  2 -2.276935 0.000003 -1.238188 -1.570795 -1.570451 0.000000
  3 1.797149 0.711846 0.000568 -0.182716 -0.293350 0.054922
  4 4.119901 -0.002958 0.000558 -0.172117 0.126358 0.392638
  5 4.118996 -0.003205 0.000577 -0.178323 0.129650 0.098916
  6 4.118651 -0.003224 0.000599 -0.183753 0.058759 0.004540
  7 4.119037 -0.003500 -0.000285 0.081610 -0.165959 0.110202
  8 4.443598 -0.000002 -0.000001 0.730510 -0.283691 0.247680
  9 9.024061 0.000001 -0.000000 0.000000 0.000000 0.000000
 10 0.286242 0.142844 1.703227 1.979666 -1.169596 1.065370
 11 6.384775 0.000001 0.000004 -1.684087 1.121064 -1.399370
 12 10.242684 -0.000000 0.000002 -0.000000 0.000000 -0.720731
 13 11.375560 0.000001 0.000000 3.055612 0.470899 -0.562934
 14 0.728681 0.023430 -1.008292 2.396606 0.246960 1.180207
 15 2.136496 0.000000 -0.000001 -0.000000 -0.000000 -0.078540
 16 2.313140 -0.000000 0.000000 0.000000 0.000000 0.000000
 17 3.115506 -0.886041 -0.021431 -0.166499 0.000392 0.514872
 18 2.011150 -0.000001 -0.000000 -0.000000 -0.000000 1.322792
 19 2.141379 0.000001 -0.000000 0.000000 0.000000 0.000000
 20 1.734171 -0.000000 -0.000000 -0.000000 -0.000000 0.660693
 21 0.000006 -4.440593 0.000000 1.570544 -0.062990 -0.195737
 22 6.000000 0.000000 -0.000000 -2.865512 -0.000000 0.000000
 23 0.000001 -4.440602 -0.000000 1.569944 -0.062987 0.004053
 24 11.375561 0.000001 0.000003 -2.330923 0.367879 -0.163389
 25 -0.000000 -4.440604 0.000001 1.570144 -0.062988 0.004040
 26 10.510133 0.000000 0.000001 0.000000 0.000000 -1.931162
 27 0.000001 -1.748402 4.999999 0.000000 0.004007 1.602291
 28 5.500001 0.000000 0.000001 0.307359 -0.000000 0.000000
 29 -0.000001 -1.940598 5.000001 -0.044472 0.004003 -0.000180
 30 6.551491 -0.000000 0.000001 -0.821406 0.978457 -0.430432
 31 -0.000001 -1.940598 5.000001 -0.027189 -0.053376 0.005295
 32 6.551491 -0.000000 0.000001 -0.237567 0.435354 -0.047598
 33 0.000002 -1.940600 4.999998 -0.066572 -0.152786 -0.110311
 34 -0.286240 -0.135769 -1.703228 -0.323932 1.269024 2.690865
 35 6.384777 -0.000000 -0.000000 -0.990286 -0.455825 -0.103749
 36 10.242682 -0.000001 0.000001 -0.000000 0.000000 -1.855057
 37 11.375562 0.000001 -0.000001 2.157593 0.524113 0.090863
 38 0.728681 0.023431 1.008292 -1.579583 -0.319038 0.212973
 39 2.136498 0.000003 -0.000000 -0.000000 0.000000 1.282817
 40 2.313138 -0.000000 0.000000 0.000000 0.000000 3.141593
 41 3.115505 -0.886040 0.021432 0.708959 0.171755 0.347804
 42 2.011148 0.000000 0.000000 -0.000000 0.000000 2.082010
 43 2.141380 0.000001 0.000000 0.000000 0.000000 3.141593
 44 1.734171 -0.000001 -0.000000 -0.000000 -0.000000 1.041748
 45 0.136316 -3.738192 2.525891 1.493698 2.759406 -1.474501
 46 5.613158 0.862367 3.157033 1.595152 -0.135386 0.061522
 47 11.389367 -0.000819 0.158781 1.848410 0.284106 0.001144
 48 0.000003 -4.440598 0.000000 1.570144 -3.078602 0.004040
 49 6.000001 0.000001 -0.000001 1.848410 0.000000 -0.000000
 50 0.000001 -4.440601 0.000002 1.569944 -3.078603 0.004053
 51 10.510132 -0.000000 0.000002 0.000000 -0.000000 -2.498325
 52 -0.000001 -1.748403 -5.000001 3.141593 0.004007 -1.539299
 53 5.500000 0.000001 0.000001 0.286430 -0.000000 0.000000
 54 -0.000001 0.000001 -5.000000 -0.044472 3.137589 -0.000177
 55 6.551491 0.000001 -0.000003 -0.286431 -0.178709 -0.107878
 56 -1.266844 -1.937441 -4.950562 -0.066572 -2.988806 -0.110308
 57 6.551491 0.000001 -0.000003 -0.286431 -0.178709 -0.107878
 58 0.699371 -1.944209 -5.006846 -0.027189 -3.088217 0.005298
 59 4.226145 -0.003201 -0.000000 0.043181 -0.087622 0.065845
 60 -0.000000 5.000001 -0.000001 -0.153564 0.000087 2.718702
 61 0.000004 -0.000004 -3.713580 0.365818 2.880119 -0.191589
 62 0.000002 -0.000000 5.000000 3.053196 1.558589 -0.074928
 63 -0.000007 0.000006 3.713580 -0.001619 -3.122277 -0.475127
 64 0.000002 -0.000000 -5.000000 -0.088726 1.558589 3.066335
 65 7.363602 1.646647 0.495663 3.141593 -1.570796 0.000000
 66 -0.000005 0.000007 3.619081 0.008255 -3.110080 -0.985231
 67 16.573919 0.000000 -0.000000 -0.000000 -0.000000 -1.065827
 68 15.128180 0.000001 0.000000 -0.102296 0.010178 0.114297
 69 5.758665 4.244730 0.000000 0.000000 0.000000 1.667687
 70 3.177726 0.000000 -0.000000 0.000000 0.000000 3.141593
 71 15.708951 0.000001 0.000000 -0.051525 0.003996 0.061523
 72 0.275148 0.189215 -3.445208 3.130898 0.000409 -1.514604
 73 17.210192 -0.000000 -0.000000 -0.000000 -0.000000 -1.893339
 74 0.000001 0.000000 -4.999999 -0.079433 1.546568 -1.570857
 75 0.000002 -0.000003 -3.619081 0.577895 2.675801 -0.242118
 76 16.573921 -0.000001 -0.000002 -0.000000 -0.000000 -1.163030
 77 15.128181 0.000001 0.000001 0.089479 0.309197 0.659208
 78 5.758666 4.244730 -0.000001 -0.000000 -0.000000 1.815142
 79 4.003934 -0.000000 0.000001 0.000000 0.000000 0.000000
 80 15.708954 0.000001 0.000002 0.042277 0.226871 0.443133
 81 0.273998 0.191089 3.439762 -3.130907 -0.000437 -1.508107
 82 17.210194 -0.000001 -0.000002 0.000000 -0.000000 -1.937080
 83 -0.000000 -0.000001 5.000000 -0.079319 1.595025 -1.570742
time 10
  0 -0.650000 0.000000 33.899605 -0.025849 0.174554 -1.569172
  1 5.685103 0.833236 -32.227173 -0.174512 -0.026131 1.569196
  2 -2.276935 0.000003 -1.238188 -1.570795 -1.570451 0.000000
  3 1.797145 0.711846 0.000568 -0.183238 -0.298978 0.055436
  4 4.119901 -0.002958 0.000559 -0.172358 0.128072 0.392170
  5 4.118998 -0.003205 0.000578 -0.178599 0.132409 0.098235
  6 4.118653 -0.003224 0.000599 -0.183978 0.060390 0.004068
  7 4.119037 -0.003500 -0.000284 0.081610 -0.165959 0.110202
  8 4.443602 -0.000001 -0.000002 0.732788 -0.287131 0.249872
  9 9.024061 0.000001 0.000000 0.000000 0.000000 0.000000
 10 0.286246 0.142843 1.703225 1.979666 -1.169596 1.065371
 11 6.384778 -0.000001 -0.000001 -1.690743 1.123638 -1.402425
 12 10.242681 -0.000000 0.000001 0.000000 0.000000 -0.726080
 13 11.375561 0.000000 0.000001 3.058095 0.470829 -0.558818
 14 0.728681 0.023431 -1.008293 2.396606 0.246960 1.180207
 15 2.136498 -0.000000 -0.000000 0.000000 -0.000000 -0.078540
 16 2.313139 -0.000000 0.000000 0.000000 0.000000 0.000000
 17 3.115507 -0.886040 -0.021432 -0.166499 0.000392 0.514872
 18 2.011151 0.000000 -0.000001 -0.000000 0.000000 1.322792
 19 2.141379 -0.000001 0.000001 0.000000 0.000000 0.000000
 20 1.734173 0.000002 0.000000 0.000000 0.000000 0.660693
 21 0.000006 -4.440594 -0.000001 1.570544 -0.062990 -0.195737
 22 6.000000 0.000001 0.000000 -2.863341 0.000000 0.000000
 23 0.000001 -4.440601 0.000000 1.569944 -0.062987 0.004053
 24 11.375562 0.000001 0.000004 -2.330070 0.366909 -0.161730
 25 -0.000001 -4.440603 -0.000000 1.570144 -0.062988 0.004040
 26 10.510131 0.000000 0.000001 -0.000000 0.000000 -1.933836
 27 0.000000 -1.748400 4.999999 -0.000000 0.004007 1.602291
 28 5.499998 0.000000 0.000000 0.307234 -0.000000 0.000000
 29 -0.000001 -1.940598 5.000001 -0.044472 0.004003 -0.000180
 30 6.551491 0.000000 0.000002 -0.822715 0.981846 -0.428917
 31 0.000000 -1.940598 5.000001 -0.027189 -0.053376 0.005295
 32 6.551491 0.000000 0.000002 -0.237432 0.436122 -0.046184
 33 0.000000 -1.940598 4.999995 -0.066572 -0.152786 -0.110311
 34 -0.286239 -0.135767 -1.703227 -0.310363 1.271215 2.704452
 35 6.384777 0.000002 -0.000002 -0.986091 -0.453344 -0.113311
 36 10.242682 -0.000003 0.000002 -0.000000 0.000000 -1.853744
 37 11.375559 0.000000 -0.000001 2.162721 0.520020 0.090678
 38 0.728682 0.023432 1.008291 -1.579583 -0.319038 0.212973
 39 2.136496 0.000001 -0.000001 -0.000000 0.000000 1.282817
 40 2.313138 0.000000 -0.000000 0.000000 0.000000 3.141593
 41 3.115508 -0.886041 0.021431 0.708959 0.171755 0.347804
 42 2.011148 0.000001 0.000002 0.000000 0.000000 2.082010
 43 2.141379 -0.000002 -0.000000 0.000000 0.000000 3.141593
 44 1.734172 -0.000001 0.000001 -0.000000 0.000000 1.041748
 45 0.136316 -3.738193 2.525891 1.493698 2.759406 -1.474501
 46 5.613159 0.862366 3.157033 1.595152 -0.135386 0.061522
 47 11.389364 -0.000819 0.158780 1.851076 0.282263 0.001111
 48 -0.000001 -4.440598 0.000001 1.570144 -3.078602 0.004040
 49 5.999999 0.000001 -0.000001 1.851076 0.000000 0.000000
 50 0.000002 -4.440601 -0.000001 1.569944 -3.078603 0.004053
 51 10.510132 0.000000 0.000002 0.000000 -0.000000 -2.497668
 52 0.000001 -1.748401 -5.000001 3.141593 0.004007 -1.539299
 53 5.500000 0.000000 0.000001 0.285370 0.000000 0.000000
 54 -0.000000 -0.000000 -5.000000 -0.044472 3.137590 -0.000177
 55 6.551490 0.000000 -0.000000 -0.285370 -0.175494 -0.111834
 56 -1.266843 -1.937442 -4.950559 -0.066572 -2.988806 -0.110308
 57 6.551490 0.000001 0.000000 -0.285370 -0.175494 -0.111834
 58 0.699370 -1.944207 -5.006846 -0.027189 -3.088217 0.005298
 59 4.226146 -0.003202 -0.000000 0.043181 -0.087622 0.065845
 60 -0.000000 5.000002 0.000000 -0.153564 0.000087 2.718702
 61 0.000004 -0.000004 -3.713580 0.365818 2.880119 -0.191589
 62 0.000002 -0.000000 5.000000 3.053196 1.558589 -0.074928
 63 -0.000007 0.000006 3.713580 -0.001619 -3.122277 -0.475127
 64 0.000002 -0.000000 -5.000000 -0.088726 1.558589 3.066335
 65 7.363602 1.646647 0.495663 3.141593 -1.570796 0.000000
 66 -0.000005 0.000007 3.619081 0.008255 -3.110080 -0.985231
 67 16.573919 0.000000 -0.000000 -0.000000 -0.000000 -1.065827
 68 15.128180 0.000001 0.000000 -0.102296 0.010178 0.114297
 69 5.758665 4.244730 0.000000 0.000000 0.000000 1.667687
 70 3.177726 0.000000 -0.000000 0.000000 0.000000 3.141593
 71 15.708951 0.000001 0.000000 -0.051525 0.003996 0.061523
 72 0.275148 0.189215 -3.445208 3.130898 0.000409 -1.514604
 73 17.210192 -0.000000 -0.000000 -0.000000 -0.000000 -1.893339
 74 0.000001 0.000000 -4.999999 -0.079433 1.546568 -1.570857
 75 0.000002 -0.000003 -3.619081 0.577895 2.675801 -0.242118
 76 16.573921 -0.000001 -0.000002 -0.000000 -0.000000 -1.163030
 77 15.128181 0.000001 0.000001 0.089479 0.309197 0.659208
 78 5.758666 4.244730 -0.000001 -0.000000 -0.000000 1.815142
 79 4.003934 -0.000000 0.000001 0.000000 0.000000 0.000000
 80 15.708954 0.000001 0.000002 0.042277 0.226871 0.443133
 81 0.273998 0.191089 3.439762 -3.130907 -0.000437 -1.508107
 82 17.210194 -0.000001 -0.000002 0.000000 -0.000000 -1.937080
 83 -0.000000 -0.000001 5.000000 -0.079319 1.595025 -1.570742
end
