version 1
nodes
  0 "Bip01"  -1
  1 "Bip01 Footsteps"   0
  2 "Bip01 Pelvis"   0
  3 "Bip01 Spine"   2
  4 "Bip01 Spine1"   3
  5 "Bip01 Spine2"   4
  6 "Bip01 Spine3"   5
  7 "Bip01 Neck"   6
  8 "Bip01 Head"   7
  9 "Dummy21"   8
 10 "Bip01 L Clavicle"   7
 11 "Bip01 L UpperArm"  10
 12 "Bip01 L Forearm"  11
 13 "Bip01 L Hand"  12
 14 "Bip01 L Finger0"  13
 15 "Bip01 L Finger01"  14
 16 "Dummy06"  15
 17 "Bip01 L Finger1"  13
 18 "Bip01 L Finger11"  17
 19 "Dummy03"  18
 20 "-- L knuckle"  17
 21 "-- L knuckle_end"  20
 22 "-- L Forearm twist"  12
 23 "-- L Forearm twist_end"  22
 24 "-- L wrist"  12
 25 "-- L wrist_end"  24
 26 "-- L Elbow"  11
 27 "--L Elbow_end"  26
 28 "-- L bicep twist"  11
 29 "-- L bicep twist_end"  28
 30 "-- L shoulder outside"  10
 31 "-- L shoulder outside_end"  30
 32 "-- L Shoulder inside"  10
 33 "-- L Shoulder inside_end"  32
 34 "Bip01 R Clavicle"   7
 35 "Bip01 R UpperArm"  34
 36 "Bip01 R Forearm"  35
 37 "Bip01 R Hand"  36
 38 "Bip01 R Finger0"  37
 39 "Bip01 R Finger01"  38
 40 "Dummy01"  39
 41 "Bip01 R Finger1"  37
 42 "Bip01 R Finger11"  41
 43 "Dummy02"  42
 44 "-- R knuckle"  41
 45 "Point06"  44
 46 "Line01"  37
 47 "-- R wrist"  36
 48 "-- R wrist_end"  47
 49 "-- R forearm twist"  36
 50 "-- R forearm twist_end"  49
 51 "-- R Elbow"  35
 52 "--R Elbow_end"  51
 53 "-- R bicep twist"  35
 54 "-- R bicep twist_end"  53
 55 "-- R Shoulder inside"  34
 56 "-- R Shoulder inside_end"  55
 57 "-- R shoulder outside"  34
 58 "-- R shoulder outside_end"  57
 59 "-- Neck smooth"   6
 60 "-- neck smooth end"  59
 61 "-- R Butt"   2
 62 "--R Butt_end"  61
 63 "-- L butt"   2
 64 "--L butt_end"  63
 65 "GIGN01"   2
 66 "Bip01 L Thigh"   2
 67 "Bip01 L Calf"  66
 68 "Bip01 L Foot"  67
 69 "Bip01 L Toe0"  68
 70 "Dummy16"  69
 71 "-- L ankle"  67
 72 "-- L ankleend"  71
 73 "-- L Knee"  66
 74 "--L Knee_end"  73
 75 "Bip01 R Thigh"   2
 76 "Bip01 R Calf"  75
 77 "Bip01 R Foot"  76
 78 "Bip01 R Toe0"  77
 79 "Dummy11"  78
 80 "-- R Ankle"  76
 81 "-- R ankleend"  80
 82 "-- R Knee"  75
 83 "--R Knee_end"  82
end
skeleton
time 0
  0 -0.650000 0.000000 33.899605 -0.025849 0.174554 -1.569172
  1 5.685104 0.833237 -32.227173 -0.174512 -0.026131 1.569196
  2 -2.276935 0.000003 -1.238189 -1.570795 -1.570451 0.000000
  3 1.796325 0.711917 -0.000330 0.100225 -0.057396 -0.259365
  4 4.119708 -0.003074 -0.000282 0.086325 -0.041971 0.342534
  5 4.118792 -0.003259 -0.000327 0.099604 -0.003165 0.057004
  6 4.118444 -0.003260 -0.000309 0.094373 -0.003118 -0.048639
  7 4.118912 -0.003140 -0.001602 0.495310 -0.309790 -0.065584
  8 4.443598 0.000001 -0.000000 0.677441 -0.019652 0.102124
  9 9.024060 0.000001 -0.000000 0.000000 0.000000 0.000000
 10 0.528233 0.787901 1.451919 1.715199 -1.207765 1.442169
 11 6.384777 0.000000 0.000004 -0.713432 0.733798 -0.400373
 12 10.242685 0.000001 -0.000002 -0.000000 -0.000000 -1.490510
 13 11.375563 -0.000002 0.000002 2.708097 0.371093 -0.423712
 14 0.728682 0.023433 -1.008293 2.396606 0.246960 1.180207
 15 2.136498 -0.000001 -0.000001 0.000000 -0.000000 -0.078540
 16 2.313139 -0.000000 -0.000001 0.000000 0.000000 0.000000
 17 3.115508 -0.886040 -0.021433 -0.166499 0.000392 0.514872
 18 2.011149 -0.000001 0.000000 0.000000 0.000000 1.322792
 19 2.141380 -0.000001 -0.000001 0.000000 0.000000 0.000000
 20 1.734173 0.000002 0.000000 -0.000000 0.000000 0.660693
 21 0.000006 -4.440595 -0.000000 1.570544 -0.062990 -0.195737
 22 6.000000 -0.000000 -0.000000 3.065194 0.000000 0.000000
 23 0.000002 -4.440602 0.000001 1.569944 -0.062987 0.004053
 24 11.375564 -0.000001 0.000004 -2.522450 0.327436 -0.096772
 25 -0.000000 -4.440604 -0.000001 1.570144 -0.062988 0.004040
 26 10.510131 0.000000 -0.000000 -0.000000 0.000000 -2.316051
 27 0.000001 -1.748401 4.999998 -0.000000 0.004007 1.602291
 28 5.500001 -0.000000 -0.000000 0.259856 -0.000000 0.000000
 29 -0.000001 -1.940598 5.000000 -0.044472 0.004003 -0.000180
 30 6.551492 -0.000001 0.000000 -0.498743 0.536580 -0.201242
 31 0.000001 -1.940599 5.000000 -0.027189 -0.053376 0.005295
 32 6.551492 -0.000001 0.000000 -0.213697 0.266454 -0.057247
 33 -0.000001 -1.940600 4.999998 -0.066572 -0.152786 -0.110311
 34 -0.528233 -0.780823 -1.451918 -0.516116 1.301891 2.507724
 35 6.384778 -0.000001 -0.000002 -0.394179 -0.888705 -0.466659
 36 10.242682 -0.000001 -0.000000 0.000000 0.000000 -1.807805
 37 11.375560 -0.000001 -0.000001 2.151832 0.231203 0.106273
 38 0.728681 0.023431 1.008294 -1.579583 -0.319038 0.212973
 39 2.136497 -0.000002 0.000000 0.000000 0.000000 1.282817
 40 2.313141 0.000001 0.000000 0.000000 0.000000 3.141593
 41 3.115507 -0.886042 0.021432 0.708959 0.171755 0.347804
 42 2.011150 0.000001 0.000002 0.000000 0.000000 2.082010
 43 2.141377 -0.000000 -0.000000 0.000000 0.000000 3.141593
 44 1.734173 -0.000003 0.000001 -0.000000 -0.000000 1.041748
 45 0.136316 -3.738192 2.525891 1.493698 2.759406 -1.474501
 46 5.613160 0.862366 3.157032 1.595152 -0.135386 0.061522
 47 11.389366 -0.000818 0.158781 1.857105 0.137340 0.040232
 48 0.000001 -4.440599 -0.000000 1.570144 -3.078602 0.004040
 49 5.999999 0.000001 -0.000000 1.857105 -0.000000 -0.000000
 50 0.000002 -4.440602 -0.000001 1.569944 -3.078603 0.004053
 51 10.510131 -0.000000 0.000000 0.000000 -0.000000 -2.474699
 52 0.000000 -1.748400 -5.000001 -3.141593 0.004007 -1.539299
 53 5.500000 -0.000001 -0.000000 0.147501 0.000000 0.000000
 54 0.000001 0.000001 -5.000001 -0.044472 3.137589 -0.000177
 55 6.551492 -0.000002 -0.000001 -0.147501 -0.277281 -0.176070
 56 -1.266843 -1.937445 -4.950560 -0.066572 -2.988806 -0.110308
 57 6.551492 -0.000002 -0.000001 -0.147501 -0.277281 -0.176070
 58 0.699372 -1.944210 -5.006847 -0.027189 -3.088217 0.005298
 59 4.226146 -0.003201 0.000000 0.245065 -0.169589 -0.013834
 60 -0.000001 5.000001 0.000000 -0.153564 0.000087 2.718702
 61 0.000004 -0.000004 -3.713580 0.365818 2.880119 -0.191589
 62 0.000003 -0.000000 5.000000 3.053196 1.558589 -0.074928
 63 -0.000007 0.000006 3.713580 -0.001619 -3.122277 -0.475127
 64 0.000001 -0.000000 -5.000000 -0.088724 1.558589 3.066337
 65 7.363602 1.646647 0.495663 3.141593 -1.570796 0.000000
 66 -0.000005 0.000007 3.619081 0.008255 -3.110080 -0.985231
 67 16.573919 0.000001 0.000000 0.000000 -0.000000 -1.065827
 68 15.128182 0.000000 -0.000000 -0.102296 0.010178 0.114297
 69 5.758666 4.244730 -0.000000 0.000000 -0.000000 1.667687
 70 3.177726 0.000000 0.000000 0.000000 0.000000 3.141593
 71 15.708953 0.000001 0.000000 -0.051525 0.003996 0.061523
 72 0.275148 0.189215 -3.445208 3.130898 0.000409 -1.514604
 73 17.210194 -0.000000 0.000000 0.000000 0.000000 -1.893339
 74 0.000000 0.000000 -4.999999 -0.079433 1.546568 -1.570859
 75 0.000002 -0.000003 -3.619081 0.577895 2.675801 -0.242118
 76 16.573923 -0.000001 -0.000001 0.000000 -0.000000 -1.163030
 77 15.128182 -0.000001 0.000002 0.089479 0.309197 0.659208
 78 5.758665 4.244731 -0.000000 -0.000000 0.000000 1.815142
 79 4.003934 -0.000000 -0.000000 0.000000 0.000000 0.000000
 80 15.708954 -0.000000 0.000002 0.042277 0.226871 0.443133
 81 0.273998 0.191090 3.439763 -3.130907 -0.000437 -1.508107
 82 17.210196 -0.000001 -0.000001 0.000000 -0.000000 -1.937080
 83 0.000001 -0.000001 5.000000 -0.079314 1.595025 -1.570739
time 1
  0 -0.650000 0.000000 33.899605 -0.025849 0.174554 -1.569172
  1 5.685104 0.833237 -32.227173 -0.174512 -0.026131 1.569196
  2 -2.276935 0.000003 -1.238189 -1.570795 -1.570451 0.000000
  3 1.796321 0.711918 -0.000334 0.101610 -0.058118 -0.259560
  4 4.119711 -0.003074 -0.000287 0.087666 -0.042124 0.342508
  5 4.118790 -0.003257 -0.000331 0.101027 -0.002704 0.057057
  6 4.118447 -0.003262 -0.000314 0.095796 -0.002724 -0.048610
  7 4.118832 -0.003144 -0.001605 0.494517 -0.299672 -0.085223
  8 4.443599 0.000000 -0.000000 0.679146 -0.020915 0.126822
  9 9.024060 0.000002 -0.000000 0.000000 0.000000 0.000000
 10 0.511514 0.789244 1.457169 1.717438 -1.214403 1.461364
 11 6.384776 0.000001 0.000001 -0.727739 0.718502 -0.435629
 12 10.242683 0.000000 -0.000000 -0.000000 -0.000000 -1.464658
 13 11.375562 -0.000001 0.000000 2.701818 0.369279 -0.447489
 14 0.728682 0.023430 -1.008291 2.396606 0.246960 1.180207
 15 2.136495 -0.000000 -0.000000 0.000000 -0.000000 -0.078540
 16 2.313139 -0.000000 -0.000000 0.000000 0.000000 0.000000
 17 3.115507 -0.886041 -0.021431 -0.166499 0.000392 0.514872
 18 2.011147 -0.000003 0.000001 -0.000000 0.000000 1.322792
 19 2.141379 -0.000001 -0.000000 0.000000 0.000000 0.000000
 20 1.734171 0.000000 0.000001 -0.000000 0.000000 0.660693
 21 0.000005 -4.440595 0.000000 1.570544 -0.062990 -0.195737
 22 6.000000 0.000002 -0.000001 3.058778 0.000000 0.000000
 23 0.000001 -4.440603 0.000002 1.569944 -0.062987 0.004053
 24 11.375562 0.000000 0.000002 -2.524307 0.333269 -0.109111
 25 -0.000001 -4.440604 0.000001 1.570144 -0.062988 0.004040
 26 10.510134 0.000001 -0.000001 -0.000000 0.000000 -2.303125
 27 0.000000 -1.748402 5.000000 -0.000000 0.004007 1.602290
 28 5.500000 0.000001 0.000000 0.262765 -0.000000 -0.000000
 29 -0.000002 -1.940598 5.000000 -0.044472 0.004003 -0.000180
 30 6.551490 0.000002 0.000002 -0.505690 0.520811 -0.231294
 31 -0.000000 -1.940598 5.000000 -0.027189 -0.053376 0.005295
 32 6.551490 0.000002 0.000002 -0.215863 0.261133 -0.071846
 33 0.000001 -1.940599 4.999997 -0.066572 -0.152786 -0.110311
 34 -0.511512 -0.782167 -1.457169 -0.553758 1.296471 2.491060
 35 6.384776 -0.000001 -0.000003 -0.397530 -0.891550 -0.454928
 36 10.242679 0.000000 -0.000002 0.000000 0.000000 -1.810639
 37 11.375562 0.000001 -0.000001 2.134240 0.253061 0.111889
 38 0.728681 0.023431 1.008294 -1.579583 -0.319038 0.212973
 39 2.136496 0.000003 -0.000000 0.000000 0.000000 1.282817
 40 2.313138 -0.000000 0.000000 0.000000 0.000000 3.141593
 41 3.115507 -0.886042 0.021431 0.708959 0.171755 0.347804
 42 2.011150 0.000001 0.000000 0.000000 0.000000 2.082010
 43 2.141379 -0.000000 -0.000000 0.000000 0.000000 3.141593
 44 1.734172 -0.000001 -0.000001 0.000000 0.000000 1.041748
 45 0.136313 -3.738192 2.525890 1.493698 2.759406 -1.474501
 46 5.613159 0.862366 3.157034 1.595152 -0.135386 0.061522
 47 11.389367 -0.000820 0.158780 1.847609 0.149036 0.041879
 48 -0.000000 -4.440599 0.000003 1.570144 -3.078602 0.004040
 49 6.000000 -0.000001 -0.000001 1.847609 -0.000000 0.000000
 50 0.000002 -4.440602 -0.000001 1.569944 -3.078603 0.004053
 51 10.510131 -0.000000 -0.000001 0.000000 -0.000000 -2.476116
 52 0.000000 -1.748403 -5.000001 -3.141593 0.004007 -1.539299
 53 5.499997 0.000001 -0.000002 0.147999 0.000000 0.000000
 54 0.000002 -0.000000 -5.000000 -0.044472 3.137590 -0.000177
 55 6.551490 -0.000001 -0.000001 -0.147999 -0.278746 -0.173963
 56 -1.266843 -1.937443 -4.950561 -0.066572 -2.988806 -0.110308
 57 6.551491 -0.000001 -0.000001 -0.147999 -0.278746 -0.173963
 58 0.699371 -1.944209 -5.006847 -0.027189 -3.088217 0.005298
 59 4.226148 -0.003201 -0.000000 0.244423 -0.165401 -0.025665
 60 0.000000 5.000000 -0.000001 -0.153564 0.000087 2.718702
 61 0.000004 -0.000004 -3.713580 0.365818 2.880119 -0.191589
 62 0.000003 -0.000000 5.000000 3.053196 1.558589 -0.074928
 63 -0.000007 0.000006 3.713580 -0.001619 -3.122277 -0.475127
 64 0.000001 -0.000000 -5.000000 -0.088724 1.558589 3.066337
 65 7.363602 1.646647 0.495663 3.141593 -1.570796 0.000000
 66 -0.000005 0.000007 3.619081 0.008255 -3.110080 -0.985231
 67 16.573919 0.000001 0.000000 0.000000 -0.000000 -1.065827
 68 15.128182 0.000000 -0.000000 -0.102296 0.010178 0.114297
 69 5.758666 4.244730 -0.000000 0.000000 -0.000000 1.667687
 70 3.177726 0.000000 0.000000 0.000000 0.000000 3.141593
 71 15.708953 0.000001 0.000000 -0.051525 0.003996 0.061523
 72 0.275148 0.189215 -3.445208 3.130898 0.000409 -1.514604
 73 17.210194 -0.000000 0.000000 0.000000 0.000000 -1.893339
 74 0.000000 0.000000 -4.999999 -0.079433 1.546568 -1.570859
 75 0.000002 -0.000003 -3.619081 0.577895 2.675801 -0.242118
 76 16.573923 -0.000001 -0.000001 0.000000 -0.000000 -1.163030
 77 15.128182 -0.000001 0.000002 0.089479 0.309197 0.659208
 78 5.758665 4.244731 -0.000000 -0.000000 0.000000 1.815142
 79 4.003934 -0.000000 -0.000000 0.000000 0.000000 0.000000
 80 15.708954 -0.000000 0.000002 0.042277 0.226871 0.443133
 81 0.273998 0.191090 3.439763 -3.130907 -0.000437 -1.508107
 82 17.210196 -0.000001 -0.000001 0.000000 -0.000000 -1.937080
 83 0.000001 -0.000001 5.000000 -0.079314 1.595025 -1.570739
time 2
  0 -0.650000 0.000000 33.899605 -0.025849 0.174554 -1.569172
  1 5.685104 0.833237 -32.227173 -0.174512 -0.026131 1.569196
  2 -2.276935 0.000003 -1.238189 -1.570795 -1.570451 0.000000
  3 1.796325 0.711918 -0.000340 0.103196 -0.058944 -0.259785
  4 4.119709 -0.003073 -0.000292 0.089203 -0.042299 0.342477
  5 4.118790 -0.003256 -0.000336 0.102656 -0.002176 0.057119
  6 4.118450 -0.003261 -0.000319 0.097426 -0.002272 -0.048577
  7 4.118739 -0.003148 -0.001607 0.493357 -0.288104 -0.107655
  8 4.443600 -0.000000 -0.000001 0.681070 -0.022561 0.155106
  9 9.024063 -0.000000 0.000000 0.000000 0.000000 0.000000
 10 0.492331 0.790303 1.463192 1.719596 -1.222024 1.483728
 11 6.384778 0.000000 -0.000001 -0.743145 0.700788 -0.474883
 12 10.242682 -0.000000 -0.000001 0.000000 -0.000000 -1.435089
 13 11.375562 0.000000 -0.000002 2.694646 0.367139 -0.474802
 14 0.728681 0.023431 -1.008292 2.396606 0.246960 1.180207
 15 2.136497 -0.000000 0.000001 -0.000000 -0.000000 -0.078540
 16 2.313137 0.000000 -0.000000 0.000000 0.000000 0.000000
 17 3.115507 -0.886041 -0.021430 -0.166499 0.000392 0.514872
 18 2.011149 -0.000001 -0.000000 0.000000 0.000000 1.322792
 19 2.141380 0.000000 -0.000001 0.000000 0.000000 0.000000
 20 1.734171 -0.000000 0.000000 -0.000000 0.000000 0.660693
 21 0.000006 -4.440594 0.000001 1.570544 -0.062990 -0.195737
 22 5.999999 -0.000001 -0.000002 3.051414 -0.000000 -0.000000
 23 0.000001 -4.440600 -0.000000 1.569944 -0.062987 0.004053
 24 11.375560 -0.000002 0.000002 -2.526427 0.339892 -0.123165
 25 -0.000002 -4.440602 0.000001 1.570144 -0.062988 0.004040
 26 10.510129 -0.000000 -0.000001 -0.000000 -0.000000 -2.288341
 27 -0.000001 -1.748401 4.999999 -0.000000 0.004007 1.602290
 28 5.499998 0.000000 -0.000001 0.265330 0.000000 0.000000
 29 -0.000002 -1.940599 5.000001 -0.044472 0.004003 -0.000180
 30 6.551492 0.000000 -0.000001 -0.511776 0.502392 -0.264279
 31 0.000001 -1.940598 5.000002 -0.027189 -0.053376 0.005295
 32 6.551492 0.000000 -0.000001 -0.217741 0.254759 -0.088162
 33 0.000000 -1.940599 4.999997 -0.066572 -0.152786 -0.110311
 34 -0.492325 -0.783228 -1.463194 -0.595258 1.289943 2.473588
 35 6.384777 -0.000000 -0.000002 -0.401506 -0.894759 -0.441361
 36 10.242682 0.000000 -0.000001 0.000000 0.000000 -1.813906
 37 11.375561 0.000002 0.000000 2.114203 0.278013 0.117776
 38 0.728681 0.023431 1.008292 -1.579583 -0.319038 0.212973
 39 2.136497 -0.000001 -0.000000 0.000000 0.000000 1.282817
 40 2.313139 -0.000000 0.000000 0.000000 0.000000 3.141593
 41 3.115507 -0.886041 0.021432 0.708959 0.171755 0.347804
 42 2.011151 0.000000 -0.000000 0.000000 0.000000 2.082010
 43 2.141379 -0.000000 -0.000001 0.000000 0.000000 3.141593
 44 1.734172 -0.000001 0.000001 0.000000 0.000000 1.041748
 45 0.136314 -3.738193 2.525891 1.493698 2.759406 -1.474501
 46 5.613161 0.862366 3.157032 1.595152 -0.135386 0.061522
 47 11.389367 -0.000818 0.158781 1.836754 0.162160 0.043545
 48 0.000001 -4.440599 0.000000 1.570144 -3.078602 0.004040
 49 6.000000 0.000001 -0.000000 1.836754 -0.000000 -0.000000
 50 0.000002 -4.440601 -0.000002 1.569944 -3.078603 0.004053
 51 10.510132 0.000001 -0.000001 -0.000000 -0.000000 -2.477749
 52 -0.000001 -1.748400 -5.000002 3.141593 0.004007 -1.539299
 53 5.500001 0.000001 -0.000002 0.148604 0.000000 0.000000
 54 0.000002 -0.000001 -5.000000 -0.044472 3.137589 -0.000177
 55 6.551491 -0.000001 -0.000001 -0.148604 -0.280399 -0.171523
 56 -1.266844 -1.937442 -4.950560 -0.066572 -2.988806 -0.110308
 57 6.551491 -0.000001 -0.000001 -0.148604 -0.280399 -0.171523
 58 0.699372 -1.944207 -5.006845 -0.027189 -3.088217 0.005298
 59 4.226149 -0.003202 -0.000000 0.243578 -0.160558 -0.039209
 60 -0.000000 5.000001 -0.000000 -0.153564 0.000087 2.718702
 61 0.000004 -0.000004 -3.713580 0.365818 2.880119 -0.191589
 62 0.000003 -0.000000 5.000000 3.053196 1.558589 -0.074928
 63 -0.000007 0.000006 3.713580 -0.001619 -3.122277 -0.475127
 64 0.000001 -0.000000 -5.000000 -0.088724 1.558589 3.066337
 65 7.363602 1.646647 0.495663 3.141593 -1.570796 0.000000
 66 -0.000005 0.000007 3.619081 0.008255 -3.110080 -0.985231
 67 16.573919 0.000001 0.000000 0.000000 -0.000000 -1.065827
 68 15.128182 0.000000 -0.000000 -0.102296 0.010178 0.114297
 69 5.758666 4.244730 -0.000000 0.000000 -0.000000 1.667687
 70 3.177726 0.000000 0.000000 0.000000 0.000000 3.141593
 71 15.708953 0.000001 0.000000 -0.051525 0.003996 0.061523
 72 0.275148 0.189215 -3.445208 3.130898 0.000409 -1.514604
 73 17.210194 -0.000000 0.000000 0.000000 0.000000 -1.893339
 74 0.000000 0.000000 -4.999999 -0.079433 1.546568 -1.570859
 75 0.000002 -0.000003 -3.619081 0.577895 2.675801 -0.242118
 76 16.573923 -0.000001 -0.000001 0.000000 -0.000000 -1.163030
 77 15.128182 -0.000001 0.000002 0.089479 0.309197 0.659208
 78 5.758665 4.244731 -0.000000 -0.000000 0.000000 1.815142
 79 4.003934 -0.000000 -0.000000 0.000000 0.000000 0.000000
 80 15.708954 -0.000000 0.000002 0.042277 0.226871 0.443133
 81 0.273998 0.191090 3.439763 -3.130907 -0.000437 -1.508107
 82 17.210196 -0.000001 -0.000001 0.000000 -0.000000 -1.937080
 83 0.000001 -0.000001 5.000000 -0.079314 1.595025 -1.570739
time 3
  0 -0.650000 0.000000 33.899605 -0.025849 0.174554 -1.569172
  1 5.685104 0.833237 -32.227173 -0.174512 -0.026131 1.569196
  2 -2.276935 0.000003 -1.238189 -1.570795 -1.570451 0.000000
  3 1.796325 0.711919 -0.000345 0.104833 -0.059796 -0.260018
  4 4.119710 -0.003073 -0.000297 0.090789 -0.042480 0.342446
  5 4.118791 -0.003256 -0.000342 0.104337 -0.001631 0.057184
  6 4.118444 -0.003259 -0.000325 0.099108 -0.001806 -0.048542
  7 4.118648 -0.003152 -0.001608 0.491883 -0.276197 -0.130736
  8 4.443598 0.000001 0.000000 0.683016 -0.024482 0.184278
  9 9.024059 0.000001 -0.000000 0.000000 0.000000 0.000000
 10 0.472511 0.790860 1.469416 1.721336 -1.229903 1.507254
 11 6.384778 -0.000001 -0.000000 -0.756651 0.683707 -0.511672
 12 10.242682 0.000000 0.000001 -0.000000 0.000000 -1.406820
 13 11.375563 0.000000 -0.000000 2.687981 0.364882 -0.500711
 14 0.728680 0.023432 -1.008293 2.396606 0.246960 1.180207
 15 2.136499 -0.000001 0.000000 0.000000 -0.000000 -0.078540
 16 2.313139 0.000000 -0.000001 0.000000 0.000000 0.000000
 17 3.115505 -0.886042 -0.021433 -0.166499 0.000392 0.514872
 18 2.011152 -0.000001 0.000001 0.000000 0.000000 1.322792
 19 2.141381 -0.000000 0.000000 0.000000 0.000000 0.000000
 20 1.734175 0.000001 0.000000 -0.000000 0.000000 0.660693
 21 0.000005 -4.440595 0.000000 1.570544 -0.062990 -0.195737
 22 6.000000 -0.000000 0.000000 3.044503 0.000000 0.000000
 23 0.000002 -4.440600 0.000000 1.569944 -0.062987 0.004053
 24 11.375561 0.000001 0.000001 -2.528415 0.346025 -0.136451
 25 -0.000001 -4.440603 -0.000002 1.570144 -0.062988 0.004040
 26 10.510130 0.000000 0.000000 -0.000000 -0.000000 -2.274206
 27 0.000001 -1.748402 4.999998 0.000000 0.004007 1.602290
 28 5.500001 0.000001 -0.000000 0.266917 0.000000 0.000000
 29 -0.000003 -1.940598 5.000001 -0.044472 0.004003 -0.000180
 30 6.551493 -0.000001 0.000001 -0.515606 0.484594 -0.294479
 31 0.000002 -1.940599 5.000002 -0.027189 -0.053376 0.005295
 32 6.551492 -0.000000 0.000001 -0.218848 0.248448 -0.103373
 33 -0.000000 -1.940599 4.999999 -0.066572 -0.152786 -0.110311
 34 -0.472511 -0.783782 -1.469415 -0.634755 1.283066 2.458987
 35 6.384777 0.000000 0.000002 -0.406059 -0.897752 -0.427300
 36 10.242683 -0.000001 -0.000000 0.000000 0.000000 -1.817442
 37 11.375560 0.000001 -0.000001 2.095173 0.301704 0.122840
 38 0.728681 0.023431 1.008292 -1.579583 -0.319038 0.212973
 39 2.136496 0.000001 -0.000000 -0.000000 -0.000000 1.282817
 40 2.313138 -0.000001 0.000000 0.000000 0.000000 3.141593
 41 3.115507 -0.886041 0.021430 0.708959 0.171755 0.347804
 42 2.011151 -0.000002 -0.000002 -0.000000 -0.000000 2.082010
 43 2.141381 -0.000001 0.000002 0.000000 0.000000 3.141593
 44 1.734172 -0.000001 -0.000000 -0.000000 -0.000000 1.041748
 45 0.136314 -3.738192 2.525890 1.493698 2.759406 -1.474501
 46 5.613160 0.862367 3.157031 1.595152 -0.135386 0.061522
 47 11.389366 -0.000819 0.158781 1.826415 0.174398 0.044915
 48 0.000001 -4.440599 0.000001 1.570144 -3.078602 0.004040
 49 6.000000 -0.000001 -0.000001 1.826414 -0.000000 -0.000000
 50 0.000002 -4.440601 0.000002 1.569944 -3.078603 0.004053
 51 10.510133 -0.000000 -0.000000 0.000000 0.000000 -2.479517
 52 0.000000 -1.748401 -5.000002 3.141593 0.004007 -1.539299
 53 5.500001 0.000000 -0.000001 0.149314 0.000000 0.000000
 54 0.000003 -0.000000 -5.000000 -0.044472 3.137589 -0.000177
 55 6.551491 0.000001 0.000001 -0.149314 -0.281993 -0.169003
 56 -1.266843 -1.937444 -4.950560 -0.066572 -2.988806 -0.110308
 57 6.551492 0.000001 0.000001 -0.149314 -0.281993 -0.169003
 58 0.699371 -1.944207 -5.006849 -0.027189 -3.088217 0.005298
 59 4.226146 -0.003202 -0.000000 0.242583 -0.155516 -0.053154
 60 0.000001 5.000002 0.000000 -0.153565 0.000087 2.718702
 61 0.000004 -0.000004 -3.713580 0.365818 2.880119 -0.191589
 62 0.000003 -0.000000 5.000000 3.053196 1.558589 -0.074928
 63 -0.000007 0.000006 3.713580 -0.001619 -3.122277 -0.475127
 64 0.000001 -0.000000 -5.000000 -0.088724 1.558589 3.066337
 65 7.363602 1.646647 0.495663 3.141593 -1.570796 0.000000
 66 -0.000005 0.000007 3.619081 0.008255 -3.110080 -0.985231
 67 16.573919 0.000001 0.000000 0.000000 -0.000000 -1.065827
 68 15.128182 0.000000 -0.000000 -0.102296 0.010178 0.114297
 69 5.758666 4.244730 -0.000000 0.000000 -0.000000 1.667687
 70 3.177726 0.000000 0.000000 0.000000 0.000000 3.141593
 71 15.708953 0.000001 0.000000 -0.051525 0.003996 0.061523
 72 0.275148 0.189215 -3.445208 3.130898 0.000409 -1.514604
 73 17.210194 -0.000000 0.000000 0.000000 0.000000 -1.893339
 74 0.000000 0.000000 -4.999999 -0.079433 1.546568 -1.570859
 75 0.000002 -0.000003 -3.619081 0.577895 2.675801 -0.242118
 76 16.573923 -0.000001 -0.000001 0.000000 -0.000000 -1.163030
 77 15.128182 -0.000001 0.000002 0.089479 0.309197 0.659208
 78 5.758665 4.244731 -0.000000 -0.000000 0.000000 1.815142
 79 4.003934 -0.000000 -0.000000 0.000000 0.000000 0.000000
 80 15.708954 -0.000000 0.000002 0.042277 0.226871 0.443133
 81 0.273998 0.191090 3.439763 -3.130907 -0.000437 -1.508107
 82 17.210196 -0.000001 -0.000001 0.000000 -0.000000 -1.937080
 83 0.000001 -0.000001 5.000000 -0.079314 1.595025 -1.570739
time 4
  0 -0.650000 0.000000 33.899605 -0.025849 0.174554 -1.569172
  1 5.685104 0.833237 -32.227173 -0.174512 -0.026131 1.569196
  2 -2.276935 0.000003 -1.238189 -1.570795 -1.570451 0.000000
  3 1.796325 0.711919 -0.000350 0.106369 -0.060595 -0.260239
  4 4.119708 -0.003073 -0.000302 0.092277 -0.042649 0.342416
  5 4.118792 -0.003256 -0.000347 0.105915 -0.001120 0.057246
  6 4.118446 -0.003259 -0.000330 0.100687 -0.001369 -0.048508
  7 4.118560 -0.003151 -0.001608 0.490245 -0.265056 -0.152343
  8 4.443598 0.000000 0.000001 0.684801 -0.026489 0.211644
  9 9.024063 0.000000 0.000000 0.000000 0.000000 0.000000
 10 0.453911 0.790881 1.475256 1.722488 -1.237307 1.529780
 11 6.384776 0.000000 0.000002 -0.765906 0.670523 -0.540167
 12 10.242685 0.000000 -0.000000 -0.000000 -0.000000 -1.384916
 13 11.375563 -0.000001 0.000001 2.683261 0.362831 -0.520126
 14 0.728680 0.023431 -1.008291 2.396606 0.246960 1.180207
 15 2.136499 -0.000000 0.000001 -0.000000 -0.000000 -0.078540
 16 2.313136 -0.000000 0.000001 0.000000 0.000000 0.000000
 17 3.115507 -0.886042 -0.021430 -0.166499 0.000392 0.514872
 18 2.011151 -0.000000 0.000001 0.000000 -0.000000 1.322792
 19 2.141380 -0.000001 -0.000001 0.000000 0.000000 0.000000
 20 1.734174 0.000002 0.000000 0.000000 -0.000000 0.660693
 21 0.000005 -4.440594 0.000000 1.570544 -0.062990 -0.195737
 22 6.000000 0.000001 0.000000 3.039526 -0.000000 -0.000000
 23 0.000001 -4.440603 0.000000 1.569944 -0.062987 0.004053
 24 11.375562 0.000000 0.000004 -2.529851 0.350419 -0.146480
 25 -0.000001 -4.440603 0.000002 1.570144 -0.062988 0.004040
 26 10.510131 -0.000000 0.000000 -0.000000 -0.000000 -2.263255
 27 -0.000000 -1.748401 5.000001 -0.000000 0.004007 1.602290
 28 5.500000 -0.000000 0.000000 0.267352 0.000000 0.000000
 29 -0.000002 -1.940598 5.000001 -0.044472 0.004003 -0.000180
 30 6.551491 -0.000001 0.000000 -0.516897 0.470727 -0.317242
 31 0.000000 -1.940598 5.000001 -0.027189 -0.053376 0.005295
 32 6.551491 -0.000001 0.000000 -0.219066 0.243432 -0.115024
 33 0.000001 -1.940599 4.999997 -0.066572 -0.152786 -0.110311
 34 -0.453906 -0.783805 -1.475256 -0.667233 1.276788 2.450102
 35 6.384777 0.000000 0.000001 -0.411077 -0.899963 -0.414169
 36 10.242682 -0.000000 -0.000000 -0.000000 0.000000 -1.821076
 37 11.375561 0.000001 0.000001 2.080627 0.319744 0.126333
 38 0.728680 0.023431 1.008294 -1.579583 -0.319038 0.212973
 39 2.136497 0.000001 0.000000 -0.000000 -0.000000 1.282817
 40 2.313136 -0.000000 0.000000 0.000000 0.000000 3.141593
 41 3.115506 -0.886041 0.021431 0.708959 0.171755 0.347804
 42 2.011150 0.000000 -0.000000 0.000000 0.000000 2.082010
 43 2.141378 -0.000000 -0.000001 0.000000 0.000000 3.141593
 44 1.734172 -0.000001 -0.000000 0.000000 -0.000000 1.041748
 45 0.136315 -3.738193 2.525890 1.493698 2.759406 -1.474501
 46 5.613160 0.862367 3.157032 1.595152 -0.135386 0.061522
 47 11.389366 -0.000821 0.158781 1.818499 0.183575 0.045815
 48 -0.000000 -4.440598 0.000000 1.570144 -3.078602 0.004040
 49 5.999999 -0.000003 -0.000000 1.818499 0.000000 0.000000
 50 0.000002 -4.440601 0.000000 1.569944 -3.078603 0.004053
 51 10.510132 -0.000001 0.000001 -0.000000 -0.000000 -2.481334
 52 -0.000001 -1.748401 -5.000003 3.141593 0.004007 -1.539299
 53 5.500002 -0.000001 0.000001 0.150114 0.000000 -0.000000
 54 0.000001 0.000000 -5.000000 -0.044472 3.137590 -0.000177
 55 6.551491 0.000000 -0.000000 -0.150114 -0.283293 -0.166676
 56 -1.266843 -1.937444 -4.950558 -0.066572 -2.988806 -0.110308
 57 6.551491 0.000000 -0.000000 -0.150114 -0.283293 -0.166676
 58 0.699372 -1.944208 -5.006845 -0.027189 -3.088217 0.005298
 59 4.226147 -0.003201 -0.000000 0.241535 -0.150752 -0.066193
 60 -0.000001 5.000001 0.000001 -0.153564 0.000087 2.718702
 61 0.000004 -0.000004 -3.713580 0.365818 2.880119 -0.191589
 62 0.000003 -0.000000 5.000000 3.053196 1.558589 -0.074928
 63 -0.000007 0.000006 3.713580 -0.001619 -3.122277 -0.475127
 64 0.000001 -0.000000 -5.000000 -0.088724 1.558589 3.066337
 65 7.363602 1.646647 0.495663 3.141593 -1.570796 0.000000
 66 -0.000005 0.000007 3.619081 0.008255 -3.110080 -0.985231
 67 16.573919 0.000001 0.000000 0.000000 -0.000000 -1.065827
 68 15.128182 0.000000 -0.000000 -0.102296 0.010178 0.114297
 69 5.758666 4.244730 -0.000000 0.000000 -0.000000 1.667687
 70 3.177726 0.000000 0.000000 0.000000 0.000000 3.141593
 71 15.708953 0.000001 0.000000 -0.051525 0.003996 0.061523
 72 0.275148 0.189215 -3.445208 3.130898 0.000409 -1.514604
 73 17.210194 -0.000000 0.000000 0.000000 0.000000 -1.893339
 74 0.000000 0.000000 -4.999999 -0.079433 1.546568 -1.570859
 75 0.000002 -0.000003 -3.619081 0.577895 2.675801 -0.242118
 76 16.573923 -0.000001 -0.000001 0.000000 -0.000000 -1.163030
 77 15.128182 -0.000001 0.000002 0.089479 0.309197 0.659208
 78 5.758665 4.244731 -0.000000 -0.000000 0.000000 1.815142
 79 4.003934 -0.000000 -0.000000 0.000000 0.000000 0.000000
 80 15.708954 -0.000000 0.000002 0.042277 0.226871 0.443133
 81 0.273998 0.191090 3.439763 -3.130907 -0.000437 -1.508107
 82 17.210196 -0.000001 -0.000001 0.000000 -0.000000 -1.937080
 83 0.000001 -0.000001 5.000000 -0.079314 1.595025 -1.570739
time 5
  0 -0.650000 0.000000 33.899605 -0.025849 0.174554 -1.569172
  1 5.685104 0.833237 -32.227173 -0.174512 -0.026131 1.569196
  2 -2.276935 0.000003 -1.238189 -1.570795 -1.570451 0.000000
  3 1.796325 0.711920 -0.000354 0.107654 -0.061263 -0.260424
  4 4.119709 -0.003072 -0.000306 0.093521 -0.042791 0.342390
  5 4.118793 -0.003256 -0.000351 0.107234 -0.000693 0.057298
  6 4.118441 -0.003258 -0.000334 0.102006 -0.001003 -0.048479
  7 4.118488 -0.003149 -0.001607 0.488688 -0.255769 -0.170373
  8 4.443602 -0.000001 -0.000000 0.686256 -0.028318 0.234516
  9 9.024064 -0.000001 -0.000000 0.000000 0.000000 0.000000
 10 0.438366 0.790527 1.480137 1.723073 -1.243503 1.548970
 11 6.384778 -0.000000 -0.000000 -0.768889 0.664604 -0.554864
 12 10.242681 0.000001 -0.000000 0.000000 0.000000 -1.374514
 13 11.375564 0.000001 -0.000001 2.681948 0.361370 -0.527848
 14 0.728681 0.023429 -1.008291 2.396606 0.246960 1.180207
 15 2.136498 -0.000001 -0.000001 0.000000 -0.000000 -0.078540
 16 2.313139 0.000000 -0.000000 0.000000 0.000000 0.000000
 17 3.115507 -0.886043 -0.021430 -0.166499 0.000392 0.514872
 18 2.011154 0.000001 0.000001 0.000000 -0.000000 1.322792
 19 2.141378 0.000001 0.000000 0.000000 0.000000 0.000000
 20 1.734175 0.000001 -0.000000 -0.000000 0.000000 0.660693
 21 0.000006 -4.440594 0.000000 1.570544 -0.062990 -0.195737
 22 6.000000 0.000001 -0.000002 3.038018 -0.000000 -0.000000
 23 0.000001 -4.440601 -0.000000 1.569944 -0.062987 0.004053
 24 11.375562 0.000001 0.000000 -2.530297 0.351836 -0.150747
 25 -0.000002 -4.440603 0.000000 1.570144 -0.062988 0.004040
 26 10.510131 0.000001 -0.000001 0.000000 0.000000 -2.258053
 27 0.000001 -1.748402 5.000000 0.000000 0.004007 1.602291
 28 5.500000 0.000001 -0.000000 0.266677 0.000000 -0.000000
 29 0.000000 -1.940598 5.000001 -0.044472 0.004003 -0.000180
 30 6.551492 0.000001 0.000002 -0.515852 0.463791 -0.328745
 31 0.000000 -1.940598 5.000002 -0.027189 -0.053376 0.005295
 32 6.551492 0.000001 0.000002 -0.218442 0.240889 -0.121040
 33 -0.000000 -1.940599 4.999997 -0.066572 -0.152786 -0.110311
 34 -0.438356 -0.783453 -1.480138 -0.688317 1.272179 2.449134
 35 6.384777 -0.000001 0.000001 -0.416398 -0.900838 -0.403452
 36 10.242681 0.000000 -0.000000 -0.000000 0.000000 -1.824631
 37 11.375561 0.000002 -0.000000 2.074080 0.327727 0.127727
 38 0.728680 0.023431 1.008292 -1.579583 -0.319038 0.212973
 39 2.136497 0.000002 -0.000000 -0.000000 -0.000000 1.282817
 40 2.313140 0.000001 0.000000 0.000000 0.000000 3.141593
 41 3.115506 -0.886041 0.021430 0.708959 0.171755 0.347804
 42 2.011151 -0.000001 0.000001 -0.000000 0.000000 2.082010
 43 2.141380 0.000000 0.000001 0.000000 0.000000 3.141593
 44 1.734173 -0.000002 0.000000 -0.000000 0.000000 1.041748
 45 0.136316 -3.738192 2.525893 1.493698 2.759406 -1.474501
 46 5.613160 0.862366 3.157028 1.595152 -0.135386 0.061522
 47 11.389366 -0.000820 0.158780 1.814941 0.187593 0.046152
 48 0.000000 -4.440599 -0.000000 1.570144 -3.078602 0.004040
 49 6.000000 0.000002 -0.000001 1.814941 -0.000000 -0.000000
 50 0.000002 -4.440601 0.000002 1.569944 -3.078603 0.004053
 51 10.510133 -0.000001 0.000001 0.000000 -0.000000 -2.483112
 52 -0.000001 -1.748398 -5.000001 3.141593 0.004007 -1.539299
 53 5.500001 -0.000001 -0.000000 0.150975 -0.000000 -0.000000
 54 0.000000 -0.000000 -5.000000 -0.044472 3.137590 -0.000177
 55 6.551491 -0.000000 0.000001 -0.150975 -0.284069 -0.164825
 56 -1.266843 -1.937444 -4.950559 -0.066572 -2.988806 -0.110308
 57 6.551492 -0.000001 0.000001 -0.150975 -0.284069 -0.164825
 58 0.699371 -1.944208 -5.006847 -0.027189 -3.088217 0.005298
 59 4.226148 -0.003201 0.000000 0.240573 -0.146749 -0.077047
 60 0.000001 5.000001 -0.000001 -0.153564 0.000087 2.718702
 61 0.000004 -0.000004 -3.713580 0.365818 2.880119 -0.191589
 62 0.000003 -0.000000 5.000000 3.053196 1.558589 -0.074928
 63 -0.000007 0.000006 3.713580 -0.001619 -3.122277 -0.475127
 64 0.000001 -0.000000 -5.000000 -0.088724 1.558589 3.066337
 65 7.363602 1.646647 0.495663 3.141593 -1.570796 0.000000
 66 -0.000005 0.000007 3.619081 0.008255 -3.110080 -0.985231
 67 16.573919 0.000001 0.000000 0.000000 -0.000000 -1.065827
 68 15.128182 0.000000 -0.000000 -0.102296 0.010178 0.114297
 69 5.758666 4.244730 -0.000000 0.000000 -0.000000 1.667687
 70 3.177726 0.000000 0.000000 0.000000 0.000000 3.141593
 71 15.708953 0.000001 0.000000 -0.051525 0.003996 0.061523
 72 0.275148 0.189215 -3.445208 3.130898 0.000409 -1.514604
 73 17.210194 -0.000000 0.000000 0.000000 0.000000 -1.893339
 74 0.000000 0.000000 -4.999999 -0.079433 1.546568 -1.570859
 75 0.000002 -0.000003 -3.619081 0.577895 2.675801 -0.242118
 76 16.573923 -0.000001 -0.000001 0.000000 -0.000000 -1.163030
 77 15.128182 -0.000001 0.000002 0.089479 0.309197 0.659208
 78 5.758665 4.244731 -0.000000 -0.000000 0.000000 1.815142
 79 4.003934 -0.000000 -0.000000 0.000000 0.000000 0.000000
 80 15.708954 -0.000000 0.000002 0.042277 0.226871 0.443133
 81 0.273998 0.191090 3.439763 -3.130907 -0.000437 -1.508107
 82 17.210196 -0.000001 -0.000001 0.000000 -0.000000 -1.937080
 83 0.000001 -0.000001 5.000000 -0.079314 1.595025 -1.570739
time 6
  0 -0.650000 0.000000 33.899605 -0.025849 0.174554 -1.569172
  1 5.685104 0.833237 -32.227173 -0.174512 -0.026131 1.569196
  2 -2.276935 0.000003 -1.238189 -1.570795 -1.570451 0.000000
  3 1.796321 0.711921 -0.000357 0.108535 -0.061721 -0.260551
  4 4.119713 -0.003071 -0.000309 0.094374 -0.042888 0.342373
  5 4.118787 -0.003254 -0.000354 0.108139 -0.000399 0.057334
  6 4.118450 -0.003259 -0.000337 0.102912 -0.000753 -0.048459
  7 4.118431 -0.003147 -0.001607 0.487522 -0.249412 -0.182731
  8 4.443601 -0.000001 -0.000001 0.687233 -0.029653 0.250207
  9 9.024061 -0.000001 0.000000 0.000000 0.000000 0.000000
 10 0.427700 0.790091 1.483485 1.723264 -1.247757 1.562338
 11 6.384776 0.000001 -0.000002 -0.764234 0.668237 -0.551767
 12 10.242681 0.000001 0.000001 0.000000 0.000000 -1.379265
 13 11.375561 0.000003 -0.000002 2.684968 0.360754 -0.520338
 14 0.728681 0.023430 -1.008292 2.396606 0.246960 1.180207
 15 2.136499 0.000000 -0.000001 0.000000 -0.000000 -0.078540
 16 2.313137 -0.000001 -0.000001 0.000000 0.000000 0.000000
 17 3.115507 -0.886043 -0.021431 -0.166499 0.000392 0.514872
 18 2.011149 -0.000001 0.000000 0.000000 -0.000000 1.322792
 19 2.141380 0.000001 -0.000001 0.000000 0.000000 0.000000
 20 1.734172 0.000001 -0.000000 -0.000000 -0.000000 0.660693
 21 0.000005 -4.440594 -0.000000 1.570544 -0.062990 -0.195737
 22 5.999999 0.000001 -0.000001 3.040955 0.000000 0.000000
 23 0.000002 -4.440598 0.000000 1.569944 -0.062987 0.004053
 24 11.375561 0.000001 0.000002 -2.529482 0.349431 -0.147540
 25 -0.000001 -4.440604 0.000003 1.570144 -0.062988 0.004040
 26 10.510132 0.000000 0.000000 -0.000000 -0.000000 -2.260428
 27 0.000001 -1.748402 5.000000 -0.000000 0.004007 1.602290
 28 5.500001 0.000000 0.000001 0.264989 0.000000 0.000000
 29 -0.000001 -1.940598 5.000001 -0.044472 0.004003 -0.000180
 30 6.551490 0.000001 -0.000002 -0.512718 0.465699 -0.326412
 31 -0.000000 -1.940598 5.000001 -0.027189 -0.053376 0.005295
 32 6.551490 0.000001 -0.000002 -0.217067 0.241586 -0.120035
 33 -0.000001 -1.940598 4.999995 -0.066572 -0.152786 -0.110311
 34 -0.427689 -0.783016 -1.483487 -0.694814 1.270156 2.457023
 35 6.384777 -0.000001 -0.000002 -0.421621 -0.900018 -0.396593
 36 10.242682 0.000001 0.000000 -0.000000 0.000000 -1.827830
 37 11.375562 -0.000000 -0.000000 2.077946 0.322653 0.126695
 38 0.728680 0.023431 1.008294 -1.579583 -0.319038 0.212973
 39 2.136497 0.000002 0.000000 0.000000 0.000000 1.282817
 40 2.313136 -0.000000 0.000000 0.000000 0.000000 3.141593
 41 3.115507 -0.886041 0.021431 0.708959 0.171755 0.347804
 42 2.011151 0.000000 0.000001 0.000000 0.000000 2.082010
 43 2.141379 0.000000 -0.000000 0.000000 0.000000 3.141593
 44 1.734172 -0.000001 0.000001 0.000000 0.000000 1.041748
 45 0.136315 -3.738192 2.525892 1.493698 2.759406 -1.474501
 46 5.613161 0.862366 3.157032 1.595152 -0.135386 0.061522
 47 11.389366 -0.000820 0.158781 1.817062 0.185028 0.045870
 48 0.000000 -4.440599 -0.000001 1.570144 -3.078602 0.004040
 49 5.999999 -0.000001 -0.000001 1.817062 -0.000000 0.000000
 50 0.000002 -4.440602 0.000001 1.569944 -3.078603 0.004053
 51 10.510131 0.000001 -0.000001 0.000000 -0.000000 -2.484711
 52 -0.000001 -1.748401 -5.000000 -3.141593 0.004007 -1.539299
 53 5.499999 0.000001 -0.000001 0.151829 -0.000000 -0.000000
 54 -0.000002 0.000001 -5.000001 -0.044472 3.137589 -0.000177
 55 6.551490 -0.000001 -0.000001 -0.151829 -0.284157 -0.163719
 56 -1.266843 -1.937442 -4.950559 -0.066572 -2.988806 -0.110308
 57 6.551491 -0.000001 -0.000001 -0.151829 -0.284157 -0.163719
 58 0.699372 -1.944208 -5.006845 -0.027189 -3.088217 0.005298
 59 4.226145 -0.003202 -0.000000 0.239869 -0.143994 -0.084464
 60 -0.000000 5.000001 -0.000001 -0.153564 0.000087 2.718702
 61 0.000004 -0.000004 -3.713580 0.365818 2.880119 -0.191589
 62 0.000003 -0.000000 5.000000 3.053196 1.558589 -0.074928
 63 -0.000007 0.000006 3.713580 -0.001619 -3.122277 -0.475127
 64 0.000001 -0.000000 -5.000000 -0.088724 1.558589 3.066337
 65 7.363602 1.646647 0.495663 3.141593 -1.570796 0.000000
 66 -0.000005 0.000007 3.619081 0.008255 -3.110080 -0.985231
 67 16.573919 0.000001 0.000000 0.000000 -0.000000 -1.065827
 68 15.128182 0.000000 -0.000000 -0.102296 0.010178 0.114297
 69 5.758666 4.244730 -0.000000 0.000000 -0.000000 1.667687
 70 3.177726 0.000000 0.000000 0.000000 0.000000 3.141593
 71 15.708953 0.000001 0.000000 -0.051525 0.003996 0.061523
 72 0.275148 0.189215 -3.445208 3.130898 0.000409 -1.514604
 73 17.210194 -0.000000 0.000000 0.000000 0.000000 -1.893339
 74 0.000000 0.000000 -4.999999 -0.079433 1.546568 -1.570859
 75 0.000002 -0.000003 -3.619081 0.577895 2.675801 -0.242118
 76 16.573923 -0.000001 -0.000001 0.000000 -0.000000 -1.163030
 77 15.128182 -0.000001 0.000002 0.089479 0.309197 0.659208
 78 5.758665 4.244731 -0.000000 -0.000000 0.000000 1.815142
 79 4.003934 -0.000000 -0.000000 0.000000 0.000000 0.000000
 80 15.708954 -0.000000 0.000002 0.042277 0.226871 0.443133
 81 0.273998 0.191090 3.439763 -3.130907 -0.000437 -1.508107
 82 17.210196 -0.000001 -0.000001 0.000000 -0.000000 -1.937080
 83 0.000001 -0.000001 5.000000 -0.079314 1.595025 -1.570739
time 7
  0 -0.650000 0.000000 33.899605 -0.025849 0.174554 -1.569172
  1 5.685104 0.833237 -32.227173 -0.174512 -0.026131 1.569196
  2 -2.276935 0.000003 -1.238189 -1.570795 -1.570451 0.000000
  3 1.796324 0.711920 -0.000358 0.108863 -0.061891 -0.260599
  4 4.119711 -0.003072 -0.000310 0.094692 -0.042924 0.342366
  5 4.118787 -0.003254 -0.000355 0.108476 -0.000290 0.057347
  6 4.118447 -0.003258 -0.000338 0.103248 -0.000659 -0.048451
  7 4.118417 -0.003147 -0.001606 0.487069 -0.247054 -0.187318
  8 4.443601 -0.000000 0.000000 0.687592 -0.030165 0.256034
  9 9.024060 0.000001 0.000000 0.000000 0.000000 0.000000
 10 0.423740 0.789888 1.484730 1.723290 -1.249337 1.567346
 11 6.384778 -0.000001 -0.000003 -0.753374 0.679412 -0.533164
 12 10.242681 0.000000 0.000001 0.000000 0.000000 -1.396566
 13 11.375561 -0.000001 -0.000001 2.691110 0.360810 -0.500918
 14 0.728680 0.023431 -1.008291 2.396606 0.246960 1.180207
 15 2.136497 0.000000 -0.000001 -0.000000 -0.000000 -0.078540
 16 2.313137 -0.000001 0.000001 0.000000 0.000000 0.000000
 17 3.115506 -0.886043 -0.021430 -0.166499 0.000392 0.514872
 18 2.011152 -0.000001 -0.000001 0.000000 -0.000000 1.322791
 19 2.141381 -0.000001 0.000000 0.000000 0.000000 0.000000
 20 1.734174 0.000001 0.000000 -0.000000 -0.000000 0.660693
 21 0.000008 -4.440594 0.000001 1.570544 -0.062990 -0.195737
 22 5.999999 0.000000 -0.000001 3.047091 -0.000000 -0.000000
 23 0.000002 -4.440602 0.000000 1.569944 -0.062987 0.004053
 24 11.375561 -0.000000 0.000001 -2.527790 0.344062 -0.138407
 25 -0.000002 -4.440603 0.000001 1.570144 -0.062988 0.004040
 26 10.510132 0.000001 -0.000001 0.000000 0.000000 -2.269079
 27 0.000001 -1.748402 5.000000 0.000000 0.004007 1.602291
 28 5.499999 0.000001 0.000000 0.262687 -0.000000 0.000000
 29 -0.000003 -1.940598 5.000000 -0.044472 0.004003 -0.000180
 30 6.551492 -0.000000 -0.000001 -0.508189 0.474975 -0.312015
 31 0.000001 -1.940598 5.000001 -0.027189 -0.053376 0.005295
 32 6.551492 -0.000000 -0.000001 -0.215263 0.244971 -0.112913
 33 -0.000001 -1.940599 4.999996 -0.066572 -0.152786 -0.110311
 34 -0.423734 -0.782812 -1.484729 -0.687141 1.270898 2.470786
 35 6.384777 0.000001 -0.000005 -0.425554 -0.897893 -0.394718
 36 10.242684 -0.000001 0.000000 -0.000000 0.000000 -1.829995
 37 11.375560 -0.000002 -0.000000 2.090186 0.307108 0.123622
 38 0.728681 0.023431 1.008292 -1.579583 -0.319038 0.212973
 39 2.136497 0.000002 -0.000000 -0.000000 -0.000000 1.282817
 40 2.313137 -0.000001 0.000000 0.000000 0.000000 3.141593
 41 3.115507 -0.886042 0.021429 0.708959 0.171755 0.347804
 42 2.011150 -0.000002 -0.000000 0.000000 0.000000 2.082010
 43 2.141381 -0.000001 0.000001 0.000000 0.000000 3.141593
 44 1.734172 -0.000001 0.000002 -0.000000 -0.000000 1.041748
 45 0.136314 -3.738193 2.525892 1.493698 2.759406 -1.474501
 46 5.613160 0.862366 3.157030 1.595152 -0.135386 0.061522
 47 11.389366 -0.000820 0.158781 1.823743 0.177131 0.045062
 48 0.000001 -4.440599 0.000001 1.570144 -3.078602 0.004040
 49 5.999999 -0.000000 -0.000000 1.823743 0.000000 0.000000
 50 0.000002 -4.440602 -0.000000 1.569944 -3.078603 0.004053
 51 10.510134 -0.000001 0.000000 -0.000000 -0.000000 -2.485794
 52 -0.000000 -1.748399 -5.000001 3.141593 0.004007 -1.539299
 53 5.499999 0.000000 -0.000001 0.152477 -0.000000 -0.000000
 54 -0.000001 -0.000001 -5.000000 -0.044472 3.137589 -0.000177
 55 6.551491 0.000000 -0.000003 -0.152477 -0.283616 -0.163534
 56 -1.266842 -1.937444 -4.950561 -0.066572 -2.988806 -0.110308
 57 6.551491 0.000000 -0.000003 -0.152477 -0.283616 -0.163534
 58 0.699371 -1.944209 -5.006848 -0.027189 -3.088217 0.005298
 59 4.226145 -0.003201 0.000000 0.239598 -0.142969 -0.087212
 60 -0.000001 5.000001 -0.000000 -0.153564 0.000087 2.718702
 61 0.000004 -0.000004 -3.713580 0.365818 2.880119 -0.191589
 62 0.000003 -0.000000 5.000000 3.053196 1.558589 -0.074928
 63 -0.000007 0.000006 3.713580 -0.001619 -3.122277 -0.475127
 64 0.000001 -0.000000 -5.000000 -0.088724 1.558589 3.066337
 65 7.363602 1.646647 0.495663 3.141593 -1.570796 0.000000
 66 -0.000005 0.000007 3.619081 0.008255 -3.110080 -0.985231
 67 16.573919 0.000001 0.000000 0.000000 -0.000000 -1.065827
 68 15.128182 0.000000 -0.000000 -0.102296 0.010178 0.114297
 69 5.758666 4.244730 -0.000000 0.000000 -0.000000 1.667687
 70 3.177726 0.000000 0.000000 0.000000 0.000000 3.141593
 71 15.708953 0.000001 0.000000 -0.051525 0.003996 0.061523
 72 0.275148 0.189215 -3.445208 3.130898 0.000409 -1.514604
 73 17.210194 -0.000000 0.000000 0.000000 0.000000 -1.893339
 74 0.000000 0.000000 -4.999999 -0.079433 1.546568 -1.570859
 75 0.000002 -0.000003 -3.619081 0.577895 2.675801 -0.242118
 76 16.573923 -0.000001 -0.000001 0.000000 -0.000000 -1.163030
 77 15.128182 -0.000001 0.000002 0.089479 0.309197 0.659208
 78 5.758665 4.244731 -0.000000 -0.000000 0.000000 1.815142
 79 4.003934 -0.000000 -0.000000 0.000000 0.000000 0.000000
 80 15.708954 -0.000000 0.000002 0.042277 0.226871 0.443133
 81 0.273998 0.191090 3.439763 -3.130907 -0.000437 -1.508107
 82 17.210196 -0.000001 -0.000001 0.000000 -0.000000 -1.937080
 83 0.000001 -0.000001 5.000000 -0.079314 1.595025 -1.570739
time 8
  0 -0.650000 0.000000 33.899605 -0.025849 0.174554 -1.569172
  1 5.685104 0.833237 -32.227173 -0.174512 -0.026131 1.569196
  2 -2.276935 0.000003 -1.238189 -1.570795 -1.570451 0.000000
  3 1.796325 0.711920 -0.000353 0.107263 -0.061060 -0.260368
  4 4.119709 -0.003072 -0.000304 0.093142 -0.042748 0.342398
  5 4.118793 -0.003256 -0.000350 0.106833 -0.000823 0.057282
  6 4.118444 -0.003259 -0.000333 0.101605 -0.001115 -0.048488
  7 4.118508 -0.003150 -0.001608 0.489180 -0.258592 -0.164890
  8 4.443599 -0.000001 -0.000000 0.685817 -0.027747 0.227557
  9 9.024062 -0.000000 -0.000000 0.000000 0.000000 0.000000
 10 0.443095 0.790670 1.478652 1.722933 -1.241617 1.543095
 11 6.384777 -0.000001 -0.000003 -0.738488 0.695894 -0.495848
 12 10.242684 0.000000 -0.000000 0.000000 0.000000 -1.425139
 13 11.375561 -0.000003 0.000000 2.697335 0.361850 -0.474868
 14 0.728681 0.023432 -1.008293 2.396606 0.246960 1.180207
 15 2.136497 -0.000001 0.000000 0.000000 -0.000000 -0.078540
 16 2.313139 0.000000 -0.000001 0.000000 0.000000 0.000000
 17 3.115508 -0.886040 -0.021430 -0.166499 0.000392 0.514872
 18 2.011150 -0.000000 0.000001 0.000000 0.000000 1.322792
 19 2.141380 0.000000 -0.000000 0.000000 0.000000 0.000000
 20 1.734171 0.000000 -0.000001 -0.000000 -0.000000 0.660693
 21 0.000004 -4.440594 0.000001 1.570544 -0.062990 -0.195737
 22 5.999999 -0.000001 -0.000001 3.053374 0.000000 0.000000
 23 0.000001 -4.440601 -0.000001 1.569944 -0.062987 0.004053
 24 11.375561 -0.000002 0.000002 -2.526246 0.337440 -0.125467
 25 -0.000000 -4.440603 -0.000001 1.570144 -0.062988 0.004040
 26 10.510134 0.000001 -0.000001 -0.000000 0.000000 -2.283366
 27 -0.000000 -1.748401 4.999999 -0.000000 0.004007 1.602290
 28 5.500001 0.000000 0.000000 0.261114 -0.000000 0.000000
 29 -0.000001 -1.940598 5.000000 -0.044472 0.004003 -0.000180
 30 6.551490 0.000001 0.000001 -0.504393 0.492016 -0.282591
 31 0.000003 -1.940598 5.000000 -0.027189 -0.053376 0.005295
 32 6.551490 0.000001 0.000001 -0.214168 0.251066 -0.098124
 33 -0.000001 -1.940599 4.999997 -0.066572 -0.152786 -0.110311
 34 -0.443091 -0.783595 -1.478652 -0.649959 1.277873 2.483635
 35 6.384776 0.000001 -0.000005 -0.420979 -0.895015 -0.408673
 36 10.242683 -0.000001 -0.000000 0.000000 0.000000 -1.826569
 37 11.375561 0.000003 0.000001 2.109184 0.283451 0.118758
 38 0.728680 0.023431 1.008291 -1.579583 -0.319038 0.212973
 39 2.136496 0.000002 -0.000000 0.000000 0.000000 1.282817
 40 2.313139 0.000002 0.000000 0.000000 0.000000 3.141593
 41 3.115506 -0.886041 0.021431 0.708959 0.171755 0.347804
 42 2.011150 -0.000001 -0.000001 0.000000 0.000000 2.082010
 43 2.141379 -0.000000 -0.000002 0.000000 0.000000 3.141593
 44 1.734172 -0.000002 -0.000001 -0.000000 0.000000 1.041748
 45 0.136315 -3.738193 2.525891 1.493698 2.759406 -1.474501
 46 5.613160 0.862367 3.157031 1.595152 -0.135386 0.061522
 47 11.389365 -0.000819 0.158782 1.834068 0.164962 0.043779
 48 -0.000000 -4.440599 -0.000001 1.570144 -3.078602 0.004040
 49 5.999999 0.000002 0.000000 1.834068 -0.000000 -0.000000
 50 0.000002 -4.440601 0.000001 1.569944 -3.078603 0.004053
 51 10.510134 -0.000001 0.000001 -0.000000 -0.000000 -2.484081
 52 -0.000001 -1.748397 -5.000002 -3.141593 0.004007 -1.539299
 53 5.500001 -0.000001 0.000000 0.151735 -0.000000 -0.000000
 54 0.000000 0.000002 -5.000002 -0.044472 3.137589 -0.000177
 55 6.551490 0.000000 -0.000002 -0.151735 -0.282055 -0.166075
 56 -1.266843 -1.937444 -4.950560 -0.066572 -2.988806 -0.110308
 57 6.551490 0.000000 -0.000002 -0.151735 -0.282055 -0.166075
 58 0.699371 -1.944209 -5.006846 -0.027189 -3.088217 0.005298
 59 4.226143 -0.003200 0.000000 0.240874 -0.147968 -0.073750
 60 0.000000 5.000001 -0.000000 -0.153564 0.000087 2.718702
 61 0.000004 -0.000004 -3.713580 0.365818 2.880119 -0.191589
 62 0.000003 -0.000000 5.000000 3.053196 1.558589 -0.074928
 63 -0.000007 0.000006 3.713580 -0.001619 -3.122277 -0.475127
 64 0.000001 -0.000000 -5.000000 -0.088724 1.558589 3.066337
 65 7.363602 1.646647 0.495663 3.141593 -1.570796 0.000000
 66 -0.000005 0.000007 3.619081 0.008255 -3.110080 -0.985231
 67 16.573919 0.000001 0.000000 0.000000 -0.000000 -1.065827
 68 15.128182 0.000000 -0.000000 -0.102296 0.010178 0.114297
 69 5.758666 4.244730 -0.000000 0.000000 -0.000000 1.667687
 70 3.177726 0.000000 0.000000 0.000000 0.000000 3.141593
 71 15.708953 0.000001 0.000000 -0.051525 0.003996 0.061523
 72 0.275148 0.189215 -3.445208 3.130898 0.000409 -1.514604
 73 17.210194 -0.000000 0.000000 0.000000 0.000000 -1.893339
 74 0.000000 0.000000 -4.999999 -0.079433 1.546568 -1.570859
 75 0.000002 -0.000003 -3.619081 0.577895 2.675801 -0.242118
 76 16.573923 -0.000001 -0.000001 0.000000 -0.000000 -1.163030
 77 15.128182 -0.000001 0.000002 0.089479 0.309197 0.659208
 78 5.758665 4.244731 -0.000000 -0.000000 0.000000 1.815142
 79 4.003934 -0.000000 -0.000000 0.000000 0.000000 0.000000
 80 15.708954 -0.000000 0.000002 0.042277 0.226871 0.443133
 81 0.273998 0.191090 3.439763 -3.130907 -0.000437 -1.508107
 82 17.210196 -0.000001 -0.000001 0.000000 -0.000000 -1.937080
 83 0.000001 -0.000001 5.000000 -0.079314 1.595025 -1.570739
time 9
  0 -0.650000 0.000000 33.899605 -0.025849 0.174554 -1.569172
  1 5.685104 0.833237 -32.227173 -0.174512 -0.026131 1.569196
  2 -2.276935 0.000003 -1.238189 -1.570795 -1.570451 0.000000
  3 1.796325 0.711918 -0.000341 0.103743 -0.059229 -0.259863
  4 4.119709 -0.003073 -0.000294 0.089733 -0.042360 0.342467
  5 4.118789 -0.003257 -0.000338 0.103218 -0.001994 0.057141
  6 4.118447 -0.003261 -0.000321 0.097989 -0.002116 -0.048565
  7 4.118710 -0.003150 -0.001607 0.492895 -0.284118 -0.115382
  8 4.443599 0.000000 0.000001 0.681726 -0.023178 0.164865
  9 9.024062 -0.000001 -0.000000 0.000000 0.000000 0.000000
 10 0.485702 0.790551 1.465275 1.720234 -1.224658 1.491544
 11 6.384777 0.000000 -0.000001 -0.721920 0.714378 -0.444771
 12 10.242684 0.000000 -0.000002 -0.000000 -0.000000 -1.459681
 13 11.375561 -0.000001 -0.000001 2.701908 0.363737 -0.447806
 14 0.728681 0.023431 -1.008292 2.396606 0.246960 1.180207
 15 2.136496 0.000000 -0.000000 0.000000 -0.000000 -0.078540
 16 2.313142 -0.000000 -0.000000 0.000000 0.000000 0.000000
 17 3.115507 -0.886041 -0.021431 -0.166499 0.000392 0.514872
 18 2.011151 0.000000 -0.000000 0.000000 0.000000 1.322792
 19 2.141380 -0.000000 0.000000 0.000000 0.000000 0.000000
 20 1.734172 0.000000 0.000001 -0.000000 0.000000 0.660693
 21 0.000004 -4.440595 0.000001 1.570544 -0.062990 -0.195737
 22 6.000000 -0.000001 0.000000 3.058047 -0.000000 0.000000
 23 0.000002 -4.440603 0.000001 1.569944 -0.062987 0.004053
 24 11.375561 0.000000 0.000002 -2.525357 0.331032 -0.111366
 25 -0.000001 -4.440604 0.000002 1.570144 -0.062988 0.004040
 26 10.510132 0.000000 -0.000002 0.000000 0.000000 -2.300637
 27 -0.000001 -1.748402 5.000000 -0.000000 0.004007 1.602290
 28 5.500001 -0.000000 -0.000000 0.259997 0.000000 -0.000000
 29 -0.000001 -1.940598 5.000000 -0.044472 0.004003 -0.000180
 30 6.551493 -0.000000 -0.000002 -0.500597 0.514158 -0.241087
 31 -0.000001 -1.940599 5.000002 -0.027189 -0.053376 0.005295
 32 6.551493 -0.000000 -0.000002 -0.213551 0.258731 -0.077361
 33 -0.000001 -1.940599 4.999996 -0.066572 -0.152786 -0.110311
 34 -0.485698 -0.783474 -1.465274 -0.583747 1.290255 2.495022
 35 6.384778 -0.000000 -0.000000 -0.407611 -0.891780 -0.437907
 36 10.242682 -0.000001 -0.000000 0.000000 0.000000 -1.817285
 37 11.375562 -0.000002 -0.000000 2.131620 0.255903 0.112537
 38 0.728681 0.023431 1.008294 -1.579583 -0.319038 0.212973
 39 2.136496 0.000001 -0.000001 -0.000000 0.000000 1.282817
 40 2.313140 -0.000001 0.000000 0.000000 0.000000 3.141593
 41 3.115506 -0.886041 0.021431 0.708959 0.171755 0.347804
 42 2.011150 0.000001 0.000002 0.000000 0.000000 2.082010
 43 2.141380 0.000000 -0.000002 0.000000 0.000000 3.141593
 44 1.734172 -0.000001 0.000001 0.000000 -0.000000 1.041748
 45 0.136315 -3.738193 2.525889 1.493698 2.759406 -1.474501
 46 5.613160 0.862367 3.157034 1.595152 -0.135386 0.061522
 47 11.389367 -0.000820 0.158781 1.846208 0.150534 0.042065
 48 0.000000 -4.440600 -0.000001 1.570144 -3.078602 0.004040
 49 6.000000 0.000001 -0.000000 1.846208 -0.000000 -0.000000
 50 0.000002 -4.440601 0.000003 1.569944 -3.078603 0.004053
 51 10.510130 0.000001 -0.000001 0.000000 -0.000000 -2.479439
 52 -0.000001 -1.748401 -5.000000 -3.141593 0.004007 -1.539299
 53 5.499998 0.000001 -0.000001 0.149597 -0.000000 -0.000000
 54 0.000001 0.000001 -5.000002 -0.044472 3.137590 -0.000177
 55 6.551492 0.000000 -0.000003 -0.149597 -0.279625 -0.171161
 56 -1.266843 -1.937444 -4.950561 -0.066572 -2.988806 -0.110308
 57 6.551492 0.000000 -0.000003 -0.149597 -0.279625 -0.171161
 58 0.699371 -1.944209 -5.006848 -0.027189 -3.088217 0.005298
 59 4.226147 -0.003202 -0.000000 0.243259 -0.158876 -0.043878
 60 0.000000 5.000002 -0.000001 -0.153564 0.000087 2.718702
 61 0.000004 -0.000004 -3.713580 0.365818 2.880119 -0.191589
 62 0.000003 -0.000000 5.000000 3.053196 1.558589 -0.074928
 63 -0.000007 0.000006 3.713580 -0.001619 -3.122277 -0.475127
 64 0.000001 -0.000000 -5.000000 -0.088724 1.558589 3.066337
 65 7.363602 1.646647 0.495663 3.141593 -1.570796 0.000000
 66 -0.000005 0.000007 3.619081 0.008255 -3.110080 -0.985231
 67 16.573919 0.000001 0.000000 0.000000 -0.000000 -1.065827
 68 15.128182 0.000000 -0.000000 -0.102296 0.010178 0.114297
 69 5.758666 4.244730 -0.000000 0.000000 -0.000000 1.667687
 70 3.177726 0.000000 0.000000 0.000000 0.000000 3.141593
 71 15.708953 0.000001 0.000000 -0.051525 0.003996 0.061523
 72 0.275148 0.189215 -3.445208 3.130898 0.000409 -1.514604
 73 17.210194 -0.000000 0.000000 0.000000 0.000000 -1.893339
 74 0.000000 0.000000 -4.999999 -0.079433 1.546568 -1.570859
 75 0.000002 -0.000003 -3.619081 0.577895 2.675801 -0.242118
 76 16.573923 -0.000001 -0.000001 0.000000 -0.000000 -1.163030
 77 15.128182 -0.000001 0.000002 0.089479 0.309197 0.659208
 78 5.758665 4.244731 -0.000000 -0.000000 0.000000 1.815142
 79 4.003934 -0.000000 -0.000000 0.000000 0.000000 0.000000
 80 15.708954 -0.000000 0.000002 0.042277 0.226871 0.443133
 81 0.273998 0.191090 3.439763 -3.130907 -0.000437 -1.508107
 82 17.210196 -0.000001 -0.000001 0.000000 -0.000000 -1.937080
 83 0.000001 -0.000001 5.000000 -0.079314 1.595025 -1.570739
time 10
  0 -0.650000 0.000000 33.899605 -0.025849 0.174554 -1.569172
  1 5.685104 0.833237 -32.227173 -0.174512 -0.026131 1.569196
  2 -2.276935 0.000003 -1.238189 -1.570795 -1.570451 0.000000
  3 1.796325 0.711917 -0.000330 0.100225 -0.057396 -0.259365
  4 4.119708 -0.003074 -0.000282 0.086325 -0.041971 0.342534
  5 4.118792 -0.003259 -0.000327 0.099604 -0.003165 0.057004
  6 4.118444 -0.003260 -0.000309 0.094373 -0.003118 -0.048639
  7 4.118912 -0.003140 -0.001602 0.495310 -0.309790 -0.065584
  8 4.443598 0.000001 -0.000000 0.677441 -0.019652 0.102124
  9 9.024060 0.000001 -0.000000 0.000000 0.000000 0.000000
 10 0.528233 0.787901 1.451919 1.715199 -1.207765 1.442169
 11 6.384777 0.000000 0.000004 -0.706485 0.730442 -0.396494
 12 10.242681 -0.000001 -0.000000 -0.000000 0.000000 -1.490512
 13 11.375561 -0.000001 -0.000001 2.705204 0.365501 -0.424752
 14 0.728681 0.023431 -1.008291 2.396606 0.246960 1.180207
 15 2.136500 0.000000 0.000000 -0.000000 -0.000000 -0.078540
 16 2.313138 0.000000 -0.000000 0.000000 0.000000 0.000000
 17 3.115507 -0.886042 -0.021431 -0.166499 0.000392 0.514872
 18 2.011151 -0.000001 0.000001 0.000000 0.000000 1.322792
 19 2.141379 0.000000 -0.000000 0.000000 0.000000 0.000000
 20 1.734174 0.000001 -0.000001 -0.000000 -0.000000 0.660693
 21 0.000006 -4.440594 0.000002 1.570544 -0.062990 -0.195737
 22 6.000001 -0.000002 -0.000000 3.061414 -0.000000 0.000000
 23 0.000001 -4.440601 -0.000000 1.569944 -0.062987 0.004053
 24 11.375562 -0.000001 0.000000 -2.524845 0.325635 -0.099098
 25 -0.000001 -4.440604 0.000002 1.570144 -0.062988 0.004040
 26 10.510131 0.000000 -0.000001 0.000000 -0.000000 -2.316052
 27 -0.000002 -1.748400 4.999999 0.000000 0.004007 1.602291
 28 5.500001 0.000000 -0.000001 0.258131 -0.000000 0.000000
 29 -0.000001 -1.940598 5.000002 -0.044472 0.004003 -0.000180
 30 6.551492 -0.000001 0.000000 -0.494971 0.534033 -0.200957
 31 0.000001 -1.940599 5.000001 -0.027189 -0.053376 0.005295
 32 6.551492 -0.000001 0.000000 -0.212329 0.265351 -0.057662
 33 0.000000 -1.940599 4.999996 -0.066572 -0.152786 -0.110311
 34 -0.528233 -0.780823 -1.451918 -0.516116 1.301891 2.507724
 35 6.384778 -0.000001 -0.000002 -0.394180 -0.888705 -0.466659
 36 10.242682 0.000000 -0.000000 -0.000000 0.000000 -1.807806
 37 11.375561 -0.000002 -0.000001 2.151832 0.231203 0.106273
 38 0.728680 0.023431 1.008295 -1.579583 -0.319038 0.212973
 39 2.136497 -0.000000 -0.000000 0.000000 0.000000 1.282817
 40 2.313139 0.000001 -0.000000 0.000000 0.000000 3.141593
 41 3.115507 -0.886041 0.021432 0.708959 0.171755 0.347804
 42 2.011149 0.000002 0.000002 0.000000 0.000000 2.082010
 43 2.141378 -0.000000 -0.000001 0.000000 0.000000 3.141593
 44 1.734172 -0.000001 0.000000 -0.000000 0.000000 1.041748
 45 0.136315 -3.738193 2.525891 1.493698 2.759406 -1.474501
 46 5.613160 0.862366 3.157032 1.595152 -0.135386 0.061522
 47 11.389367 -0.000822 0.158780 1.857105 0.137340 0.040232
 48 0.000000 -4.440599 -0.000001 1.570144 -3.078602 0.004040
 49 6.000000 0.000000 -0.000000 1.857105 -0.000000 -0.000000
 50 0.000001 -4.440601 0.000000 1.569944 -3.078603 0.004053
 51 10.510132 0.000001 -0.000001 -0.000000 -0.000000 -2.474699
 52 -0.000002 -1.748399 -5.000002 3.141593 0.004007 -1.539299
 53 5.500000 0.000001 -0.000001 0.147501 0.000000 -0.000000
 54 0.000000 0.000001 -5.000000 -0.044472 3.137590 -0.000177
 55 6.551492 -0.000002 -0.000001 -0.147501 -0.277281 -0.176070
 56 -1.266843 -1.937443 -4.950560 -0.066572 -2.988806 -0.110308
 57 6.551492 -0.000002 -0.000001 -0.147501 -0.277281 -0.176070
 58 0.699371 -1.944209 -5.006847 -0.027189 -3.088217 0.005298
 59 4.226146 -0.003201 0.000000 0.245065 -0.169589 -0.013834
 60 -0.000001 5.000001 0.000000 -0.153564 0.000087 2.718702
 61 0.000004 -0.000004 -3.713580 0.365818 2.880119 -0.191589
 62 0.000003 -0.000000 5.000000 3.053196 1.558589 -0.074928
 63 -0.000007 0.000006 3.713580 -0.001619 -3.122277 -0.475127
 64 0.000001 -0.000000 -5.000000 -0.088724 1.558589 3.066337
 65 7.363602 1.646647 0.495663 3.141593 -1.570796 0.000000
 66 -0.000005 0.000007 3.619081 0.008255 -3.110080 -0.985231
 67 16.573919 0.000001 0.000000 0.000000 -0.000000 -1.065827
 68 15.128182 0.000000 -0.000000 -0.102296 0.010178 0.114297
 69 5.758666 4.244730 -0.000000 0.000000 -0.000000 1.667687
 70 3.177726 0.000000 0.000000 0.000000 0.000000 3.141593
 71 15.708953 0.000001 0.000000 -0.051525 0.003996 0.061523
 72 0.275148 0.189215 -3.445208 3.130898 0.000409 -1.514604
 73 17.210194 -0.000000 0.000000 0.000000 0.000000 -1.893339
 74 0.000000 0.000000 -4.999999 -0.079433 1.546568 -1.570859
 75 0.000002 -0.000003 -3.619081 0.577895 2.675801 -0.242118
 76 16.573923 -0.000001 -0.000001 0.000000 -0.000000 -1.163030
 77 15.128182 -0.000001 0.000002 0.089479 0.309197 0.659208
 78 5.758665 4.244731 -0.000000 -0.000000 0.000000 1.815142
 79 4.003934 -0.000000 -0.000000 0.000000 0.000000 0.000000
 80 15.708954 -0.000000 0.000002 0.042277 0.226871 0.443133
 81 0.273998 0.191090 3.439763 -3.130907 -0.000437 -1.508107
 82 17.210196 -0.000001 -0.000001 0.000000 -0.000000 -1.937080
 83 0.000001 -0.000001 5.000000 -0.079314 1.595025 -1.570739
end
