version 1
nodes
  0 "Bip01"  -1
  1 "Bip01 Footsteps"   0
  2 "Bip01 Pelvis"   0
  3 "Bip01 Spine"   2
  4 "Bip01 Spine1"   3
  5 "Bip01 Spine2"   4
  6 "Bip01 Spine3"   5
  7 "Bip01 Neck"   6
  8 "Bip01 Head"   7
  9 "Dummy21"   8
 10 "Bip01 L Clavicle"   7
 11 "Bip01 L UpperArm"  10
 12 "Bip01 L Forearm"  11
 13 "Bip01 L Hand"  12
 14 "Bip01 L Finger0"  13
 15 "Bip01 L Finger01"  14
 16 "Dummy06"  15
 17 "Bip01 L Finger1"  13
 18 "Bip01 L Finger11"  17
 19 "Dummy03"  18
 20 "-- L knuckle"  17
 21 "-- L knuckle_end"  20
 22 "-- L Forearm twist"  12
 23 "-- L Forearm twist_end"  22
 24 "-- L wrist"  12
 25 "-- L wrist_end"  24
 26 "-- L Elbow"  11
 27 "--L Elbow_end"  26
 28 "-- L bicep twist"  11
 29 "-- L bicep twist_end"  28
 30 "-- L shoulder outside"  10
 31 "-- L shoulder outside_end"  30
 32 "-- L Shoulder inside"  10
 33 "-- L Shoulder inside_end"  32
 34 "Bip01 R Clavicle"   7
 35 "Bip01 R UpperArm"  34
 36 "Bip01 R Forearm"  35
 37 "Bip01 R Hand"  36
 38 "Bip01 R Finger0"  37
 39 "Bip01 R Finger01"  38
 40 "Dummy01"  39
 41 "Bip01 R Finger1"  37
 42 "Bip01 R Finger11"  41
 43 "Dummy02"  42
 44 "-- R knuckle"  41
 45 "Point06"  44
 46 "Line01"  37
 47 "-- R wrist"  36
 48 "-- R wrist_end"  47
 49 "-- R forearm twist"  36
 50 "-- R forearm twist_end"  49
 51 "-- R Elbow"  35
 52 "--R Elbow_end"  51
 53 "-- R bicep twist"  35
 54 "-- R bicep twist_end"  53
 55 "-- R Shoulder inside"  34
 56 "-- R Shoulder inside_end"  55
 57 "-- R shoulder outside"  34
 58 "-- R shoulder outside_end"  57
 59 "-- Neck smooth"   6
 60 "-- neck smooth end"  59
 61 "-- R Butt"   2
 62 "--R Butt_end"  61
 63 "-- L butt"   2
 64 "--L butt_end"  63
 65 "GIGN01"   2
 66 "Bip01 L Thigh"   2
 67 "Bip01 L Calf"  66
 68 "Bip01 L Foot"  67
 69 "Bip01 L Toe0"  68
 70 "Dummy16"  69
 71 "-- L ankle"  67
 72 "-- L ankleend"  71
 73 "-- L Knee"  66
 74 "--L Knee_end"  73
 75 "Bip01 R Thigh"   2
 76 "Bip01 R Calf"  75
 77 "Bip01 R Foot"  76
 78 "Bip01 R Toe0"  77
 79 "Dummy11"  78
 80 "-- R Ankle"  76
 81 "-- R ankleend"  80
 82 "-- R Knee"  75
 83 "--R Knee_end"  82
end
skeleton
time 0
  0 -0.650000 0.000000 33.899605 -0.025849 0.174554 -1.569172
  1 5.685103 0.833236 -32.227173 -0.174512 -0.026131 1.569196
  2 -2.276935 0.000003 -1.238188 -1.570795 -1.570451 0.000000
  3 1.796224 0.711993 0.000637 -0.213263 -0.396798 -0.205418
  4 4.119689 -0.003023 0.000663 -0.210215 0.248779 0.291887
  5 4.118805 -0.003208 0.000650 -0.201661 0.144431 0.033721
  6 4.118422 -0.003200 0.000693 -0.213367 0.058125 -0.069858
  7 4.120689 -0.002193 -0.001836 0.550433 0.126941 0.837726
  8 4.443597 0.000002 -0.000001 0.412296 -0.658107 -0.301505
  9 9.024059 0.000001 -0.000000 0.000000 0.000000 0.000000
 10 -0.219366 0.902554 1.464912 0.811818 -0.837562 1.457583
 11 6.384777 -0.000000 0.000002 -0.652223 0.967052 -0.344344
 12 10.242682 0.000000 0.000000 0.000000 -0.000000 -1.261437
 13 11.375561 0.000002 0.000002 2.741862 0.314182 -0.290168
 14 0.728681 0.023429 -1.008293 2.396606 0.246960 1.180207
 15 2.136497 -0.000001 0.000001 -0.000000 0.000000 -0.078540
 16 2.313138 0.000000 -0.000001 0.000000 0.000000 0.000000
 17 3.115506 -0.886042 -0.021433 -0.166499 0.000392 0.514872
 18 2.011150 0.000001 -0.000001 -0.000000 -0.000000 1.322791
 19 2.141378 0.000000 0.000002 0.000000 0.000000 0.000000
 20 1.734171 -0.000000 -0.000001 0.000000 -0.000000 0.660693
 21 0.000005 -4.440593 0.000000 1.570544 -0.062990 -0.195737
 22 5.999999 -0.000001 0.000001 3.091911 0.000000 0.000000
 23 0.000002 -4.440604 0.000000 1.569944 -0.062987 0.004053
 24 11.375561 -0.000001 0.000005 -2.523778 0.263862 -0.049797
 25 -0.000001 -4.440604 0.000002 1.570144 -0.062988 0.004040
 26 10.510133 0.000001 -0.000001 0.000000 -0.000000 -2.201515
 27 -0.000001 -1.748401 4.999999 -0.000000 0.004007 1.602290
 28 5.500000 0.000000 -0.000000 0.220882 0.000000 -0.000000
 29 -0.000000 -1.940598 5.000002 -0.044472 0.004003 -0.000180
 30 6.551491 -0.000001 0.000000 -0.427053 0.666993 -0.079458
 31 -0.000000 -1.940599 5.000002 -0.027189 -0.053376 0.005295
 32 6.551491 -0.000001 0.000000 -0.181787 0.316479 0.002015
 33 -0.000001 -1.940599 4.999998 -0.066572 -0.152786 -0.110311
 34 0.219368 -0.895476 -1.464914 2.954988 1.181707 -0.936300
 35 6.384776 0.000000 -0.000000 -0.510431 -0.774752 -0.526479
 36 10.242683 -0.000002 0.000002 0.000000 0.000000 -1.749587
 37 11.375561 -0.000000 -0.000002 2.161143 0.314281 0.171181
 38 0.728681 0.023431 1.008291 -1.579583 -0.319038 0.212973
 39 2.136497 0.000001 -0.000001 -0.000000 0.000000 1.282817
 40 2.313142 0.000001 0.000001 0.000000 0.000000 3.141593
 41 3.115507 -0.886041 0.021433 0.708959 0.171755 0.347804
 42 2.011150 0.000001 0.000002 0.000000 0.000000 2.082010
 43 2.141381 0.000000 0.000003 0.000000 0.000000 3.141593
 44 1.734172 -0.000000 0.000002 0.000000 0.000000 1.041748
 45 0.136315 -3.738193 2.525891 1.493698 2.759406 -1.474501
 46 5.613161 0.862367 3.157030 1.595152 -0.135375 0.061522
 47 11.389367 -0.000817 0.158782 1.856893 0.185128 0.067143
 48 0.000001 -4.440599 0.000003 1.570144 -3.078602 0.004040
 49 6.000000 0.000003 -0.000000 1.856893 0.000000 0.000000
 50 0.000001 -4.440601 0.000001 1.569944 -3.078603 0.004053
 51 10.510133 -0.000001 0.000001 0.000000 -0.000000 -2.445590
 52 0.000000 -1.748399 -5.000002 -3.141593 0.004007 -1.539299
 53 5.500001 -0.000001 0.000001 0.171170 -0.000000 -0.000000
 54 0.000001 -0.000000 -4.999999 -0.044472 3.137589 -0.000177
 55 6.551490 0.000000 0.000002 -0.171170 -0.230689 -0.195619
 56 -1.266843 -1.937444 -4.950560 -0.066572 -2.988806 -0.110308
 57 6.551491 0.000000 0.000002 -0.171170 -0.230689 -0.195619
 58 0.699371 -1.944208 -5.006845 -0.027189 -3.088217 0.005298
 59 4.226146 -0.003201 0.000000 0.261068 0.120478 0.408000
 60 0.000001 5.000000 0.000000 -0.153564 0.000087 2.718702
 61 0.000004 -0.000004 -3.713580 0.365818 2.880119 -0.191589
 62 0.000002 -0.000000 5.000000 3.053196 1.558589 -0.074928
 63 -0.000007 0.000006 3.713580 -0.001619 -3.122277 -0.475127
 64 0.000002 -0.000000 -5.000000 -0.088726 1.558589 3.066335
 65 7.363602 1.646647 0.495663 3.141593 -1.570796 0.000000
 66 -0.000005 0.000007 3.619081 0.008255 -3.110080 -0.985231
 67 16.573919 0.000000 -0.000000 -0.000000 -0.000000 -1.065827
 68 15.128180 0.000001 0.000000 -0.102296 0.010178 0.114297
 69 5.758665 4.244730 0.000000 0.000000 0.000000 1.667687
 70 3.177726 0.000000 -0.000000 0.000000 0.000000 3.141593
 71 15.708951 0.000001 0.000000 -0.051525 0.003996 0.061523
 72 0.275148 0.189215 -3.445208 3.130898 0.000409 -1.514604
 73 17.210192 -0.000000 -0.000000 -0.000000 -0.000000 -1.893339
 74 0.000001 0.000000 -4.999999 -0.079433 1.546568 -1.570857
 75 0.000002 -0.000003 -3.619081 0.577895 2.675801 -0.242118
 76 16.573921 -0.000001 -0.000002 -0.000000 -0.000000 -1.163030
 77 15.128181 0.000001 0.000001 0.089479 0.309197 0.659208
 78 5.758666 4.244730 -0.000001 -0.000000 -0.000000 1.815142
 79 4.003934 -0.000000 0.000001 0.000000 0.000000 0.000000
 80 15.708954 0.000001 0.000002 0.042277 0.226871 0.443133
 81 0.273998 0.191089 3.439762 -3.130907 -0.000437 -1.508107
 82 17.210194 -0.000001 -0.000002 0.000000 -0.000000 -1.937080
 83 -0.000000 -0.000001 5.000000 -0.079319 1.595025 -1.570742
time 1
  0 -0.650000 0.000000 33.899605 -0.025849 0.174554 -1.569172
  1 5.685103 0.833236 -32.227173 -0.174512 -0.026131 1.569196
  2 -2.276935 0.000003 -1.238188 -1.570795 -1.570451 0.000000
  3 1.796235 0.711992 0.000649 -0.217139 -0.396864 -0.200980
  4 4.119689 -0.003020 0.000674 -0.213361 0.245225 0.292901
  5 4.118808 -0.003206 0.000661 -0.205205 0.144714 0.033946
  6 4.118424 -0.003198 0.000704 -0.216891 0.058054 -0.069329
  7 4.120688 -0.002193 -0.001836 0.550433 0.126941 0.837726
  8 4.443600 -0.000001 0.000000 0.430519 -0.658858 -0.308044
  9 9.024061 -0.000000 -0.000000 0.000000 0.000000 0.000000
 10 -0.219367 0.902554 1.464913 0.811817 -0.837562 1.457583
 11 6.384777 0.000000 0.000002 -0.630243 0.968792 -0.301717
 12 10.242682 0.000000 -0.000002 0.000000 -0.000000 -1.292148
 13 11.375561 0.000002 0.000001 2.748228 0.312786 -0.275101
 14 0.728680 0.023432 -1.008290 2.396606 0.246960 1.180207
 15 2.136498 -0.000001 0.000001 -0.000000 -0.000000 -0.078540
 16 2.313136 0.000000 -0.000001 0.000000 0.000000 0.000000
 17 3.115506 -0.886038 -0.021430 -0.166499 0.000392 0.514872
 18 2.011152 0.000002 0.000002 -0.000000 0.000000 1.322792
 19 2.141379 -0.000001 -0.000001 0.000000 0.000000 0.000000
 20 1.734172 -0.000001 -0.000001 0.000000 -0.000000 0.660693
 21 0.000009 -4.440592 0.000001 1.570544 -0.062990 -0.195737
 22 6.000000 -0.000000 0.000001 3.098252 -0.000000 -0.000000
 23 0.000001 -4.440601 0.000001 1.569944 -0.062987 0.004053
 24 11.375561 -0.000000 0.000005 -2.521672 0.258459 -0.042623
 25 -0.000001 -4.440603 0.000001 1.570144 -0.062988 0.004040
 26 10.510131 0.000000 -0.000002 -0.000000 0.000000 -2.216870
 27 0.000001 -1.748401 4.999998 -0.000000 0.004007 1.602290
 28 5.500001 0.000001 -0.000002 0.217878 0.000000 0.000000
 29 0.000001 -1.940598 5.000000 -0.044472 0.004003 -0.000180
 30 6.551491 0.000001 0.000001 -0.417424 0.671322 -0.053478
 31 0.000001 -1.940598 5.000003 -0.027189 -0.053376 0.005295
 32 6.551491 0.000001 0.000001 -0.179664 0.317102 0.012899
 33 0.000000 -1.940599 4.999995 -0.066572 -0.152786 -0.110311
 34 0.219369 -0.895477 -1.464914 2.954988 1.181707 -0.936300
 35 6.384777 -0.000000 0.000000 -0.498933 -0.778344 -0.548988
 36 10.242682 0.000000 0.000002 -0.000000 0.000000 -1.736413
 37 11.375561 -0.000002 -0.000001 2.162358 0.312598 0.154093
 38 0.728680 0.023431 1.008291 -1.579583 -0.319038 0.212973
 39 2.136497 0.000001 -0.000001 -0.000000 0.000000 1.282817
 40 2.313139 0.000001 0.000000 0.000000 0.000000 3.141593
 41 3.115506 -0.886041 0.021433 0.708959 0.171755 0.347804
 42 2.011152 -0.000003 -0.000001 -0.000000 0.000000 2.082010
 43 2.141379 -0.000000 -0.000000 0.000000 0.000000 3.141593
 44 1.734173 -0.000001 0.000002 -0.000000 -0.000000 1.041748
 45 0.136314 -3.738193 2.525889 1.493698 2.759406 -1.474501
 46 5.613160 0.862366 3.157029 1.595152 -0.135375 0.061522
 47 11.389367 -0.000819 0.158781 1.858109 0.183338 0.057902
 48 0.000000 -4.440599 -0.000001 1.570144 -3.078602 0.004040
 49 5.999999 -0.000001 -0.000001 1.858109 -0.000000 -0.000000
 50 0.000002 -4.440600 -0.000000 1.569944 -3.078603 0.004053
 51 10.510130 0.000001 0.000003 -0.000000 0.000000 -2.439003
 52 0.000002 -1.748400 -5.000001 3.141593 0.004007 -1.539299
 53 5.500000 0.000000 0.000002 0.169760 0.000000 0.000000
 54 -0.000000 -0.000000 -5.000000 -0.044472 3.137589 -0.000177
 55 6.551491 -0.000000 -0.000001 -0.169760 -0.229833 -0.199207
 56 -1.266844 -1.937443 -4.950562 -0.066572 -2.988806 -0.110308
 57 6.551491 -0.000001 -0.000001 -0.169760 -0.229833 -0.199207
 58 0.699370 -1.944208 -5.006848 -0.027189 -3.088217 0.005298
 59 4.226148 -0.003201 0.000000 0.261068 0.120478 0.408000
 60 0.000002 5.000000 -0.000000 -0.153564 0.000087 2.718702
 61 0.000004 -0.000004 -3.713580 0.365818 2.880119 -0.191589
 62 0.000002 -0.000000 5.000000 3.053196 1.558589 -0.074928
 63 -0.000007 0.000006 3.713580 -0.001619 -3.122277 -0.475127
 64 0.000002 -0.000000 -5.000000 -0.088726 1.558589 3.066335
 65 7.363602 1.646647 0.495663 3.141593 -1.570796 0.000000
 66 -0.000005 0.000007 3.619081 0.008255 -3.110080 -0.985231
 67 16.573919 0.000000 -0.000000 -0.000000 -0.000000 -1.065827
 68 15.128180 0.000001 0.000000 -0.102296 0.010178 0.114297
 69 5.758665 4.244730 0.000000 0.000000 0.000000 1.667687
 70 3.177726 0.000000 -0.000000 0.000000 0.000000 3.141593
 71 15.708951 0.000001 0.000000 -0.051525 0.003996 0.061523
 72 0.275148 0.189215 -3.445208 3.130898 0.000409 -1.514604
 73 17.210192 -0.000000 -0.000000 -0.000000 -0.000000 -1.893339
 74 0.000001 0.000000 -4.999999 -0.079433 1.546568 -1.570857
 75 0.000002 -0.000003 -3.619081 0.577895 2.675801 -0.242118
 76 16.573921 -0.000001 -0.000002 -0.000000 -0.000000 -1.163030
 77 15.128181 0.000001 0.000001 0.089479 0.309197 0.659208
 78 5.758666 4.244730 -0.000001 -0.000000 -0.000000 1.815142
 79 4.003934 -0.000000 0.000001 0.000000 0.000000 0.000000
 80 15.708954 0.000001 0.000002 0.042277 0.226871 0.443133
 81 0.273998 0.191089 3.439762 -3.130907 -0.000437 -1.508107
 82 17.210194 -0.000001 -0.000002 0.000000 -0.000000 -1.937080
 83 -0.000000 -0.000001 5.000000 -0.079319 1.595025 -1.570742
time 2
  0 -0.650000 0.000000 33.899605 -0.025849 0.174554 -1.569172
  1 5.685103 0.833236 -32.227173 -0.174512 -0.026131 1.569196
  2 -2.276935 0.000003 -1.238188 -1.570795 -1.570451 0.000000
  3 1.796244 0.711992 0.000662 -0.221549 -0.396920 -0.195930
  4 4.119694 -0.003016 0.000684 -0.216941 0.241186 0.294067
  5 4.118810 -0.003203 0.000674 -0.209237 0.145036 0.034201
  6 4.118424 -0.003195 0.000718 -0.220900 0.057975 -0.068727
  7 4.120687 -0.002193 -0.001836 0.550433 0.126941 0.837726
  8 4.443599 0.000000 0.000001 0.451257 -0.659573 -0.315474
  9 9.024062 0.000001 -0.000000 0.000000 0.000000 0.000000
 10 -0.219364 0.902552 1.464915 0.811817 -0.837562 1.457584
 11 6.384777 -0.000000 -0.000002 -0.605728 0.969926 -0.253578
 12 10.242680 -0.000000 0.000001 0.000000 -0.000000 -1.326321
 13 11.375562 0.000000 0.000002 2.755238 0.311233 -0.258447
 14 0.728680 0.023430 -1.008292 2.396606 0.246960 1.180207
 15 2.136496 0.000000 0.000001 0.000000 -0.000000 -0.078540
 16 2.313139 0.000000 -0.000001 0.000000 0.000000 0.000000
 17 3.115507 -0.886043 -0.021431 -0.166499 0.000392 0.514872
 18 2.011148 -0.000001 0.000001 -0.000000 0.000000 1.322791
 19 2.141381 -0.000001 -0.000000 0.000000 0.000000 0.000000
 20 1.734170 -0.000001 -0.000001 -0.000000 -0.000000 0.660693
 21 0.000006 -4.440594 -0.000001 1.570544 -0.062990 -0.195737
 22 6.000000 -0.000001 0.000001 3.105225 0.000000 0.000000
 23 0.000001 -4.440600 0.000001 1.569944 -0.062987 0.004053
 24 11.375562 0.000001 0.000004 -2.519340 0.252460 -0.034638
 25 0.000000 -4.440605 0.000000 1.570144 -0.062988 0.004040
 26 10.510128 -0.000000 0.000000 -0.000000 0.000000 -2.233957
 27 0.000002 -1.748402 4.999999 -0.000000 0.004007 1.602291
 28 5.499998 0.000000 -0.000000 0.214230 0.000000 -0.000000
 29 -0.000001 -1.940598 5.000000 -0.044472 0.004003 -0.000180
 30 6.551491 0.000000 -0.000002 -0.405963 0.675305 -0.024518
 31 0.000000 -1.940599 5.000000 -0.027189 -0.053376 0.005295
 32 6.551491 0.000000 -0.000002 -0.177055 0.317479 0.024877
 33 -0.000001 -1.940599 4.999997 -0.066572 -0.152786 -0.110311
 34 0.219368 -0.895475 -1.464913 2.954987 1.181707 -0.936300
 35 6.384776 -0.000000 -0.000004 -0.485794 -0.782336 -0.574625
 36 10.242681 0.000000 -0.000000 0.000000 -0.000000 -1.721415
 37 11.375561 0.000002 0.000001 2.163728 0.310765 0.134578
 38 0.728680 0.023431 1.008291 -1.579583 -0.319038 0.212973
 39 2.136497 -0.000000 -0.000000 -0.000000 0.000000 1.282817
 40 2.313138 0.000001 -0.000000 0.000000 0.000000 3.141593
 41 3.115507 -0.886041 0.021431 0.708959 0.171755 0.347804
 42 2.011150 0.000002 0.000002 0.000000 0.000000 2.082010
 43 2.141379 0.000000 0.000001 0.000000 0.000000 3.141593
 44 1.734173 -0.000001 -0.000001 -0.000000 -0.000000 1.041748
 45 0.136315 -3.738193 2.525890 1.493698 2.759406 -1.474501
 46 5.613160 0.862367 3.157031 1.595152 -0.135375 0.061522
 47 11.389367 -0.000818 0.158782 1.859460 0.181284 0.047298
 48 0.000000 -4.440600 -0.000002 1.570144 -3.078602 0.004040
 49 6.000000 0.000001 0.000001 1.859460 0.000000 0.000000
 50 0.000002 -4.440602 -0.000000 1.569944 -3.078603 0.004053
 51 10.510129 0.000000 -0.000000 0.000000 0.000000 -2.431504
 52 -0.000000 -1.748400 -5.000000 3.141593 0.004007 -1.539299
 53 5.499999 -0.000000 -0.000000 0.168219 -0.000000 -0.000000
 54 -0.000001 0.000000 -5.000001 -0.044472 3.137589 -0.000177
 55 6.551490 0.000000 -0.000002 -0.168219 -0.228927 -0.203208
 56 -1.266844 -1.937444 -4.950560 -0.066572 -2.988806 -0.110308
 57 6.551491 0.000000 -0.000002 -0.168219 -0.228927 -0.203208
 58 0.699370 -1.944208 -5.006848 -0.027189 -3.088217 0.005298
 59 4.226144 -0.003201 0.000000 0.261068 0.120478 0.408000
 60 -0.000002 5.000001 -0.000000 -0.153564 0.000087 2.718702
 61 0.000004 -0.000004 -3.713580 0.365818 2.880119 -0.191589
 62 0.000002 -0.000000 5.000000 3.053196 1.558589 -0.074928
 63 -0.000007 0.000006 3.713580 -0.001619 -3.122277 -0.475127
 64 0.000002 -0.000000 -5.000000 -0.088726 1.558589 3.066335
 65 7.363602 1.646647 0.495663 3.141593 -1.570796 0.000000
 66 -0.000005 0.000007 3.619081 0.008255 -3.110080 -0.985231
 67 16.573919 0.000000 -0.000000 -0.000000 -0.000000 -1.065827
 68 15.128180 0.000001 0.000000 -0.102296 0.010178 0.114297
 69 5.758665 4.244730 0.000000 0.000000 0.000000 1.667687
 70 3.177726 0.000000 -0.000000 0.000000 0.000000 3.141593
 71 15.708951 0.000001 0.000000 -0.051525 0.003996 0.061523
 72 0.275148 0.189215 -3.445208 3.130898 0.000409 -1.514604
 73 17.210192 -0.000000 -0.000000 -0.000000 -0.000000 -1.893339
 74 0.000001 0.000000 -4.999999 -0.079433 1.546568 -1.570857
 75 0.000002 -0.000003 -3.619081 0.577895 2.675801 -0.242118
 76 16.573921 -0.000001 -0.000002 -0.000000 -0.000000 -1.163030
 77 15.128181 0.000001 0.000001 0.089479 0.309197 0.659208
 78 5.758666 4.244730 -0.000001 -0.000000 -0.000000 1.815142
 79 4.003934 -0.000000 0.000001 0.000000 0.000000 0.000000
 80 15.708954 0.000001 0.000002 0.042277 0.226871 0.443133
 81 0.273998 0.191089 3.439762 -3.130907 -0.000437 -1.508107
 82 17.210194 -0.000001 -0.000002 0.000000 -0.000000 -1.937080
 83 -0.000000 -0.000001 5.000000 -0.079319 1.595025 -1.570742
time 3
  0 -0.650000 0.000000 33.899605 -0.025849 0.174554 -1.569172
  1 5.685103 0.833236 -32.227173 -0.174512 -0.026131 1.569196
  2 -2.276935 0.000003 -1.238188 -1.570795 -1.570451 0.000000
  3 1.796255 0.711992 0.000674 -0.225692 -0.396953 -0.191185
  4 4.119695 -0.003013 0.000697 -0.220306 0.237395 0.295176
  5 4.118811 -0.003200 0.000686 -0.213025 0.145340 0.034439
  6 4.118424 -0.003192 0.000730 -0.224667 0.057903 -0.068161
  7 4.120686 -0.002193 -0.001836 0.550433 0.126941 0.837726
  8 4.443599 -0.000001 -0.000000 0.470736 -0.660107 -0.322436
  9 9.024060 0.000001 -0.000000 0.000000 0.000000 0.000000
 10 -0.219365 0.902552 1.464913 0.811817 -0.837562 1.457584
 11 6.384777 0.000000 0.000002 -0.583276 0.970218 -0.208781
 12 10.242685 0.000001 -0.000000 -0.000000 0.000000 -1.357719
 13 11.375562 -0.000002 0.000001 2.761607 0.309832 -0.243251
 14 0.728681 0.023430 -1.008293 2.396606 0.246960 1.180207
 15 2.136496 0.000000 -0.000001 -0.000000 -0.000000 -0.078540
 16 2.313139 -0.000001 0.000001 0.000000 0.000000 0.000000
 17 3.115507 -0.886043 -0.021432 -0.166499 0.000392 0.514872
 18 2.011150 -0.000001 0.000002 -0.000000 0.000000 1.322791
 19 2.141379 0.000001 -0.000001 0.000000 0.000000 0.000000
 20 1.734171 -0.000001 0.000001 -0.000000 0.000000 0.660693
 21 0.000007 -4.440594 0.000001 1.570544 -0.062990 -0.195737
 22 6.000000 0.000001 -0.000001 3.111552 -0.000000 -0.000000
 23 0.000002 -4.440599 0.000000 1.569944 -0.062987 0.004053
 24 11.375562 -0.000000 0.000004 -2.517205 0.246974 -0.027297
 25 -0.000001 -4.440604 0.000001 1.570144 -0.062988 0.004040
 26 10.510131 0.000001 0.000000 0.000000 0.000000 -2.249656
 27 0.000001 -1.748401 4.999999 -0.000000 0.004007 1.602290
 28 5.500000 0.000000 0.000000 0.210630 -0.000000 -0.000000
 29 -0.000001 -1.940598 4.999999 -0.044472 0.004003 -0.000180
 30 6.551491 0.000000 0.000001 -0.394831 0.678144 0.002073
 31 0.000001 -1.940599 4.999999 -0.027189 -0.053376 0.005295
 32 6.551491 0.000001 0.000001 -0.174455 0.317520 0.035743
 33 0.000000 -1.940599 4.999995 -0.066572 -0.152786 -0.110311
 34 0.219370 -0.895477 -1.464913 2.954988 1.181707 -0.936300
 35 6.384776 -0.000000 0.000001 -0.473398 -0.785994 -0.598730
 36 10.242682 -0.000001 0.000001 -0.000000 -0.000000 -1.707321
 37 11.375562 0.000002 -0.000000 2.165002 0.309118 0.116183
 38 0.728681 0.023431 1.008293 -1.579583 -0.319038 0.212973
 39 2.136496 0.000001 -0.000000 -0.000000 0.000000 1.282817
 40 2.313138 -0.000000 -0.000000 0.000000 0.000000 3.141593
 41 3.115507 -0.886040 0.021430 0.708959 0.171755 0.347804
 42 2.011151 0.000001 0.000000 0.000000 0.000000 2.082010
 43 2.141379 0.000001 -0.000000 0.000000 0.000000 3.141593
 44 1.734173 -0.000002 -0.000001 0.000000 -0.000000 1.041748
 45 0.136315 -3.738192 2.525889 1.493698 2.759406 -1.474501
 46 5.613160 0.862367 3.157031 1.595152 -0.135375 0.061522
 47 11.389367 -0.000820 0.158780 1.860696 0.179336 0.037259
 48 0.000000 -4.440598 -0.000002 1.570144 -3.078602 0.004040
 49 6.000000 0.000001 -0.000001 1.860696 -0.000000 -0.000000
 50 0.000001 -4.440602 -0.000000 1.569944 -3.078603 0.004053
 51 10.510131 -0.000000 0.000002 -0.000000 -0.000000 -2.424457
 52 0.000000 -1.748401 -5.000000 3.141593 0.004007 -1.539299
 53 5.500002 -0.000001 0.000002 0.166828 0.000000 0.000000
 54 -0.000002 -0.000000 -4.999999 -0.044472 3.137589 -0.000177
 55 6.551490 -0.000000 -0.000000 -0.166828 -0.228142 -0.206896
 56 -1.266844 -1.937443 -4.950562 -0.066572 -2.988806 -0.110308
 57 6.551491 0.000000 -0.000000 -0.166828 -0.228142 -0.206896
 58 0.699371 -1.944208 -5.006847 -0.027189 -3.088217 0.005298
 59 4.226144 -0.003201 0.000000 0.261068 0.120478 0.408000
 60 -0.000000 5.000000 -0.000000 -0.153564 0.000087 2.718702
 61 0.000004 -0.000004 -3.713580 0.365818 2.880119 -0.191589
 62 0.000002 -0.000000 5.000000 3.053196 1.558589 -0.074928
 63 -0.000007 0.000006 3.713580 -0.001619 -3.122277 -0.475127
 64 0.000002 -0.000000 -5.000000 -0.088726 1.558589 3.066335
 65 7.363602 1.646647 0.495663 3.141593 -1.570796 0.000000
 66 -0.000005 0.000007 3.619081 0.008255 -3.110080 -0.985231
 67 16.573919 0.000000 -0.000000 -0.000000 -0.000000 -1.065827
 68 15.128180 0.000001 0.000000 -0.102296 0.010178 0.114297
 69 5.758665 4.244730 0.000000 0.000000 0.000000 1.667687
 70 3.177726 0.000000 -0.000000 0.000000 0.000000 3.141593
 71 15.708951 0.000001 0.000000 -0.051525 0.003996 0.061523
 72 0.275148 0.189215 -3.445208 3.130898 0.000409 -1.514604
 73 17.210192 -0.000000 -0.000000 -0.000000 -0.000000 -1.893339
 74 0.000001 0.000000 -4.999999 -0.079433 1.546568 -1.570857
 75 0.000002 -0.000003 -3.619081 0.577895 2.675801 -0.242118
 76 16.573921 -0.000001 -0.000002 -0.000000 -0.000000 -1.163030
 77 15.128181 0.000001 0.000001 0.089479 0.309197 0.659208
 78 5.758666 4.244730 -0.000001 -0.000000 -0.000000 1.815142
 79 4.003934 -0.000000 0.000001 0.000000 0.000000 0.000000
 80 15.708954 0.000001 0.000002 0.042277 0.226871 0.443133
 81 0.273998 0.191089 3.439762 -3.130907 -0.000437 -1.508107
 82 17.210194 -0.000001 -0.000002 0.000000 -0.000000 -1.937080
 83 -0.000000 -0.000001 5.000000 -0.079319 1.595025 -1.570742
time 4
  0 -0.650000 0.000000 33.899605 -0.025849 0.174554 -1.569172
  1 5.685103 0.833236 -32.227173 -0.174512 -0.026131 1.569196
  2 -2.276935 0.000003 -1.238188 -1.570795 -1.570451 0.000000
  3 1.796260 0.711992 0.000683 -0.228766 -0.396967 -0.187664
  4 4.119699 -0.003010 0.000703 -0.222804 0.234585 0.296006
  5 4.118817 -0.003198 0.000695 -0.215835 0.145566 0.034616
  6 4.118432 -0.003191 0.000738 -0.227462 0.057851 -0.067741
  7 4.120689 -0.002193 -0.001836 0.550433 0.126941 0.837726
  8 4.443598 -0.000000 -0.000001 0.485185 -0.660419 -0.327589
  9 9.024059 0.000000 -0.000000 0.000000 0.000000 0.000000
 10 -0.219368 0.902555 1.464912 0.811817 -0.837562 1.457584
 11 6.384777 -0.000000 -0.000001 -0.567051 0.969986 -0.175857
 12 10.242683 0.000000 -0.000000 0.000000 0.000000 -1.380596
 13 11.375561 -0.000001 0.000000 2.766211 0.308851 -0.232240
 14 0.728681 0.023432 -1.008292 2.396606 0.246960 1.180207
 15 2.136499 -0.000001 -0.000000 -0.000000 -0.000000 -0.078540
 16 2.313139 0.000000 -0.000001 0.000000 0.000000 0.000000
 17 3.115507 -0.886038 -0.021432 -0.166499 0.000392 0.514872
 18 2.011151 -0.000001 0.000001 -0.000000 -0.000000 1.322792
 19 2.141379 0.000000 0.000000 0.000000 0.000000 0.000000
 20 1.734174 0.000001 0.000000 -0.000000 -0.000000 0.660693
 21 0.000004 -4.440594 0.000001 1.570544 -0.062990 -0.195737
 22 5.999999 -0.000002 0.000000 3.116125 0.000000 -0.000000
 23 0.000002 -4.440601 -0.000000 1.569944 -0.062987 0.004053
 24 11.375560 -0.000000 0.000003 -2.515648 0.243004 -0.021937
 25 0.000000 -4.440603 -0.000003 1.570144 -0.062988 0.004040
 26 10.510133 0.000000 -0.000000 0.000000 -0.000000 -2.261095
 27 -0.000001 -1.748400 4.999998 -0.000000 0.004007 1.602291
 28 5.500000 -0.000001 0.000001 0.207881 0.000000 -0.000000
 29 -0.000004 -1.940598 5.000001 -0.044472 0.004003 -0.000180
 30 6.551491 -0.000000 -0.000003 -0.386423 0.679701 0.021401
 31 -0.000000 -1.940598 5.000000 -0.027189 -0.053376 0.005295
 32 6.551491 -0.000000 -0.000003 -0.172458 0.317363 0.043572
 33 -0.000001 -1.940599 4.999999 -0.066572 -0.152786 -0.110311
 34 0.219368 -0.895476 -1.464914 2.954987 1.181707 -0.936300
 35 6.384776 -0.000000 0.000001 -0.464165 -0.788651 -0.616628
 36 10.242682 -0.000001 0.000002 -0.000000 -0.000000 -1.696863
 37 11.375559 -0.000002 -0.000003 2.165939 0.307942 0.102497
 38 0.728680 0.023431 1.008295 -1.579583 -0.319038 0.212973
 39 2.136496 -0.000001 0.000000 -0.000000 0.000000 1.282817
 40 2.313138 -0.000000 -0.000000 0.000000 0.000000 3.141593
 41 3.115507 -0.886042 0.021433 0.708959 0.171755 0.347804
 42 2.011150 -0.000001 0.000001 -0.000000 0.000000 2.082010
 43 2.141380 -0.000000 0.000001 0.000000 0.000000 3.141593
 44 1.734173 -0.000003 0.000001 -0.000000 0.000000 1.041748
 45 0.136315 -3.738194 2.525888 1.493698 2.759406 -1.474501
 46 5.613160 0.862366 3.157033 1.595152 -0.135375 0.061522
 47 11.389365 -0.000818 0.158781 1.861595 0.177877 0.029767
 48 0.000000 -4.440599 -0.000000 1.570144 -3.078602 0.004040
 49 5.999999 0.000000 -0.000001 1.861595 0.000000 0.000000
 50 0.000001 -4.440602 0.000003 1.569944 -3.078603 0.004053
 51 10.510129 -0.000000 0.000001 0.000000 0.000000 -2.419228
 52 0.000001 -1.748403 -5.000001 -3.141593 0.004007 -1.539299
 53 5.499997 0.000000 -0.000001 0.165829 0.000000 -0.000000
 54 0.000000 0.000000 -5.000001 -0.044472 3.137590 -0.000177
 55 6.551490 -0.000000 0.000000 -0.165829 -0.227602 -0.209592
 56 -1.266844 -1.937443 -4.950561 -0.066572 -2.988806 -0.110308
 57 6.551491 0.000000 0.000000 -0.165829 -0.227602 -0.209592
 58 0.699370 -1.944208 -5.006848 -0.027189 -3.088217 0.005298
 59 4.226146 -0.003201 -0.000000 0.261068 0.120478 0.408000
 60 -0.000001 5.000001 -0.000002 -0.153564 0.000087 2.718702
 61 0.000004 -0.000004 -3.713580 0.365818 2.880119 -0.191589
 62 0.000002 -0.000000 5.000000 3.053196 1.558589 -0.074928
 63 -0.000007 0.000006 3.713580 -0.001619 -3.122277 -0.475127
 64 0.000002 -0.000000 -5.000000 -0.088726 1.558589 3.066335
 65 7.363602 1.646647 0.495663 3.141593 -1.570796 0.000000
 66 -0.000005 0.000007 3.619081 0.008255 -3.110080 -0.985231
 67 16.573919 0.000000 -0.000000 -0.000000 -0.000000 -1.065827
 68 15.128180 0.000001 0.000000 -0.102296 0.010178 0.114297
 69 5.758665 4.244730 0.000000 0.000000 0.000000 1.667687
 70 3.177726 0.000000 -0.000000 0.000000 0.000000 3.141593
 71 15.708951 0.000001 0.000000 -0.051525 0.003996 0.061523
 72 0.275148 0.189215 -3.445208 3.130898 0.000409 -1.514604
 73 17.210192 -0.000000 -0.000000 -0.000000 -0.000000 -1.893339
 74 0.000001 0.000000 -4.999999 -0.079433 1.546568 -1.570857
 75 0.000002 -0.000003 -3.619081 0.577895 2.675801 -0.242118
 76 16.573921 -0.000001 -0.000002 -0.000000 -0.000000 -1.163030
 77 15.128181 0.000001 0.000001 0.089479 0.309197 0.659208
 78 5.758666 4.244730 -0.000001 -0.000000 -0.000000 1.815142
 79 4.003934 -0.000000 0.000001 0.000000 0.000000 0.000000
 80 15.708954 0.000001 0.000002 0.042277 0.226871 0.443133
 81 0.273998 0.191089 3.439762 -3.130907 -0.000437 -1.508107
 82 17.210194 -0.000001 -0.000002 0.000000 -0.000000 -1.937080
 83 -0.000000 -0.000001 5.000000 -0.079319 1.595025 -1.570742
time 5
  0 -0.650000 0.000000 33.899605 -0.025849 0.174554 -1.569172
  1 5.685103 0.833236 -32.227173 -0.174512 -0.026131 1.569196
  2 -2.276935 0.000003 -1.238188 -1.570795 -1.570451 0.000000
  3 1.796267 0.711991 0.000687 -0.229969 -0.396969 -0.186287
  4 4.119696 -0.003010 0.000709 -0.223781 0.233485 0.296333
  5 4.118816 -0.003197 0.000698 -0.216935 0.145654 0.034684
  6 4.118433 -0.003190 0.000742 -0.228555 0.057831 -0.067576
  7 4.120686 -0.002193 -0.001836 0.550433 0.126941 0.837726
  8 4.443599 0.000001 -0.000001 0.490838 -0.660521 -0.329602
  9 9.024059 0.000001 -0.000000 0.000000 0.000000 0.000000
 10 -0.219365 0.902554 1.464913 0.811818 -0.837562 1.457583
 11 6.384777 0.000000 0.000003 -0.560893 0.969834 -0.163094
 12 10.242684 0.000001 -0.000001 -0.000000 0.000000 -1.389454
 13 11.375562 -0.000000 -0.000000 2.768030 0.308534 -0.227979
 14 0.728681 0.023431 -1.008292 2.396606 0.246960 1.180207
 15 2.136497 -0.000000 0.000000 -0.000000 0.000000 -0.078540
 16 2.313138 0.000000 -0.000001 0.000000 0.000000 0.000000
 17 3.115507 -0.886042 -0.021431 -0.166499 0.000392 0.514872
 18 2.011149 0.000000 0.000001 -0.000000 0.000000 1.322792
 19 2.141379 -0.000000 -0.000001 0.000000 0.000000 0.000000
 20 1.734172 0.000001 -0.000001 0.000000 -0.000000 0.660693
 21 0.000006 -4.440594 -0.000002 1.570544 -0.062990 -0.195737
 22 6.000000 0.000000 -0.000000 3.117936 0.000000 -0.000000
 23 0.000002 -4.440602 0.000001 1.569944 -0.062987 0.004053
 24 11.375562 0.000001 0.000002 -2.515016 0.241492 -0.019838
 25 -0.000001 -4.440603 -0.000003 1.570144 -0.062988 0.004040
 26 10.510131 -0.000000 0.000001 0.000000 -0.000000 -2.265523
 27 0.000002 -1.748401 4.999999 0.000000 0.004007 1.602290
 28 5.500000 -0.000001 0.000001 0.206810 -0.000000 -0.000000
 29 -0.000003 -1.940599 5.000000 -0.044472 0.004003 -0.000180
 30 6.551491 0.000000 -0.000000 -0.383151 0.680216 0.028859
 31 -0.000000 -1.940599 5.000000 -0.027189 -0.053376 0.005295
 32 6.551491 0.000000 -0.000000 -0.171679 0.317270 0.046583
 33 -0.000000 -1.940599 4.999995 -0.066572 -0.152786 -0.110311
 34 0.219370 -0.895476 -1.464913 2.954987 1.181707 -0.936300
 35 6.384777 -0.000000 -0.000002 -0.460545 -0.789677 -0.623635
 36 10.242683 0.000000 -0.000001 0.000000 0.000000 -1.692769
 37 11.375561 -0.000001 -0.000001 2.166304 0.307493 0.097132
 38 0.728681 0.023431 1.008291 -1.579583 -0.319038 0.212973
 39 2.136496 0.000000 -0.000000 -0.000000 0.000000 1.282817
 40 2.313139 -0.000001 -0.000000 0.000000 0.000000 3.141593
 41 3.115506 -0.886042 0.021431 0.708959 0.171755 0.347804
 42 2.011151 -0.000001 -0.000002 0.000000 0.000000 2.082010
 43 2.141381 -0.000000 -0.000001 0.000000 0.000000 3.141593
 44 1.734173 -0.000001 -0.000001 -0.000000 0.000000 1.041748
 45 0.136316 -3.738193 2.525892 1.493698 2.759406 -1.474501
 46 5.613160 0.862366 3.157030 1.595152 -0.135375 0.061522
 47 11.389366 -0.000818 0.158781 1.861942 0.177302 0.026825
 48 0.000000 -4.440599 0.000001 1.570144 -3.078602 0.004040
 49 5.999999 0.000001 -0.000000 1.861942 0.000000 0.000000
 50 0.000002 -4.440601 -0.000002 1.569944 -3.078603 0.004053
 51 10.510132 0.000001 -0.000000 -0.000000 0.000000 -2.417181
 52 0.000001 -1.748400 -5.000002 -3.141593 0.004007 -1.539299
 53 5.500000 0.000000 -0.000001 0.165445 0.000000 0.000000
 54 0.000000 -0.000001 -5.000001 -0.044472 3.137589 -0.000177
 55 6.551491 -0.000000 -0.000001 -0.165445 -0.227401 -0.210638
 56 -1.266844 -1.937443 -4.950559 -0.066572 -2.988806 -0.110308
 57 6.551491 0.000000 -0.000001 -0.165445 -0.227401 -0.210638
 58 0.699371 -1.944208 -5.006844 -0.027189 -3.088217 0.005298
 59 4.226145 -0.003201 -0.000000 0.261068 0.120478 0.408000
 60 0.000003 4.999999 0.000000 -0.153564 0.000087 2.718702
 61 0.000004 -0.000004 -3.713580 0.365818 2.880119 -0.191589
 62 0.000002 -0.000000 5.000000 3.053196 1.558589 -0.074928
 63 -0.000007 0.000006 3.713580 -0.001619 -3.122277 -0.475127
 64 0.000002 -0.000000 -5.000000 -0.088726 1.558589 3.066335
 65 7.363602 1.646647 0.495663 3.141593 -1.570796 0.000000
 66 -0.000005 0.000007 3.619081 0.008255 -3.110080 -0.985231
 67 16.573919 0.000000 -0.000000 -0.000000 -0.000000 -1.065827
 68 15.128180 0.000001 0.000000 -0.102296 0.010178 0.114297
 69 5.758665 4.244730 0.000000 0.000000 0.000000 1.667687
 70 3.177726 0.000000 -0.000000 0.000000 0.000000 3.141593
 71 15.708951 0.000001 0.000000 -0.051525 0.003996 0.061523
 72 0.275148 0.189215 -3.445208 3.130898 0.000409 -1.514604
 73 17.210192 -0.000000 -0.000000 -0.000000 -0.000000 -1.893339
 74 0.000001 0.000000 -4.999999 -0.079433 1.546568 -1.570857
 75 0.000002 -0.000003 -3.619081 0.577895 2.675801 -0.242118
 76 16.573921 -0.000001 -0.000002 -0.000000 -0.000000 -1.163030
 77 15.128181 0.000001 0.000001 0.089479 0.309197 0.659208
 78 5.758666 4.244730 -0.000001 -0.000000 -0.000000 1.815142
 79 4.003934 -0.000000 0.000001 0.000000 0.000000 0.000000
 80 15.708954 0.000001 0.000002 0.042277 0.226871 0.443133
 81 0.273998 0.191089 3.439762 -3.130907 -0.000437 -1.508107
 82 17.210194 -0.000001 -0.000002 0.000000 -0.000000 -1.937080
 83 -0.000000 -0.000001 5.000000 -0.079319 1.595025 -1.570742
time 6
  0 -0.650000 0.000000 33.899605 -0.025849 0.174554 -1.569172
  1 5.685103 0.833236 -32.227173 -0.174512 -0.026131 1.569196
  2 -2.276935 0.000003 -1.238188 -1.570795 -1.570451 0.000000
  3 1.796260 0.711992 0.000683 -0.228766 -0.396967 -0.187664
  4 4.119699 -0.003010 0.000703 -0.222804 0.234585 0.296006
  5 4.118817 -0.003198 0.000695 -0.215835 0.145566 0.034616
  6 4.118428 -0.003190 0.000739 -0.227462 0.057851 -0.067740
  7 4.120694 -0.002194 -0.001836 0.550433 0.126941 0.837726
  8 4.443598 -0.000000 0.000001 0.485185 -0.660419 -0.327589
  9 9.024059 0.000000 -0.000000 0.000000 0.000000 0.000000
 10 -0.219368 0.902555 1.464913 0.811817 -0.837562 1.457584
 11 6.384776 -0.000001 -0.000001 -0.567364 0.970125 -0.176014
 12 10.242683 0.000001 -0.000001 0.000000 0.000000 -1.380596
 13 11.375561 -0.000002 0.000001 2.766376 0.309041 -0.232190
 14 0.728681 0.023430 -1.008292 2.396606 0.246960 1.180207
 15 2.136499 -0.000001 0.000000 0.000000 0.000000 -0.078540
 16 2.313139 0.000000 0.000000 0.000000 0.000000 0.000000
 17 3.115507 -0.886039 -0.021432 -0.166499 0.000392 0.514872
 18 2.011152 -0.000001 -0.000002 0.000000 0.000000 1.322792
 19 2.141379 0.000001 0.000001 0.000000 0.000000 0.000000
 20 1.734173 -0.000001 -0.000001 -0.000000 -0.000000 0.660693
 21 0.000007 -4.440593 -0.000000 1.570544 -0.062990 -0.195737
 22 5.999999 -0.000000 0.000000 3.116309 0.000000 0.000000
 23 0.000002 -4.440602 0.000001 1.569944 -0.062987 0.004053
 24 11.375560 -0.000000 0.000004 -2.515543 0.243069 -0.021857
 25 0.000000 -4.440603 -0.000001 1.570144 -0.062988 0.004040
 26 10.510133 0.000001 -0.000001 0.000000 0.000000 -2.261094
 27 0.000001 -1.748400 4.999998 0.000000 0.004007 1.602291
 28 5.500000 0.000001 0.000000 0.207950 -0.000000 -0.000000
 29 -0.000001 -1.940599 5.000000 -0.044472 0.004003 -0.000180
 30 6.551491 -0.000001 -0.000003 -0.386577 0.679811 0.021364
 31 -0.000000 -1.940599 5.000000 -0.027189 -0.053376 0.005295
 32 6.551491 -0.000001 -0.000003 -0.172513 0.317404 0.043574
 33 -0.000000 -1.940599 4.999996 -0.066572 -0.152786 -0.110311
 34 0.219367 -0.895476 -1.464913 2.954987 1.181707 -0.936300
 35 6.384776 0.000001 0.000001 -0.464165 -0.788651 -0.616628
 36 10.242685 -0.000001 0.000002 0.000000 -0.000000 -1.696862
 37 11.375563 -0.000000 -0.000001 2.165940 0.307942 0.102497
 38 0.728680 0.023431 1.008291 -1.579583 -0.319038 0.212973
 39 2.136496 -0.000001 0.000001 0.000000 0.000000 1.282817
 40 2.313137 0.000000 -0.000001 0.000000 0.000000 3.141593
 41 3.115506 -0.886041 0.021430 0.708959 0.171755 0.347804
 42 2.011151 0.000001 -0.000001 0.000000 0.000000 2.082010
 43 2.141380 -0.000000 -0.000002 0.000000 0.000000 3.141593
 44 1.734173 -0.000001 -0.000002 0.000000 0.000000 1.041748
 45 0.136315 -3.738193 2.525890 1.493698 2.759406 -1.474501
 46 5.613160 0.862366 3.157030 1.595152 -0.135375 0.061522
 47 11.389367 -0.000820 0.158781 1.861595 0.177876 0.029767
 48 0.000000 -4.440599 0.000001 1.570144 -3.078602 0.004040
 49 6.000000 -0.000001 -0.000001 1.861595 0.000000 0.000000
 50 0.000002 -4.440600 -0.000001 1.569944 -3.078603 0.004053
 51 10.510133 -0.000000 0.000001 -0.000000 -0.000000 -2.419228
 52 0.000001 -1.748399 -5.000001 -3.141593 0.004007 -1.539299
 53 5.500000 0.000000 -0.000000 0.165829 0.000000 0.000000
 54 -0.000000 -0.000001 -5.000000 -0.044472 3.137589 -0.000177
 55 6.551490 0.000001 0.000000 -0.165829 -0.227602 -0.209592
 56 -1.266844 -1.937444 -4.950561 -0.066572 -2.988806 -0.110308
 57 6.551491 0.000001 0.000000 -0.165829 -0.227602 -0.209592
 58 0.699370 -1.944208 -5.006848 -0.027189 -3.088217 0.005298
 59 4.226146 -0.003201 0.000000 0.261068 0.120478 0.408000
 60 0.000003 4.999999 0.000000 -0.153564 0.000087 2.718702
 61 0.000004 -0.000004 -3.713580 0.365818 2.880119 -0.191589
 62 0.000002 -0.000000 5.000000 3.053196 1.558589 -0.074928
 63 -0.000007 0.000006 3.713580 -0.001619 -3.122277 -0.475127
 64 0.000002 -0.000000 -5.000000 -0.088726 1.558589 3.066335
 65 7.363602 1.646647 0.495663 3.141593 -1.570796 0.000000
 66 -0.000005 0.000007 3.619081 0.008255 -3.110080 -0.985231
 67 16.573919 0.000000 -0.000000 -0.000000 -0.000000 -1.065827
 68 15.128180 0.000001 0.000000 -0.102296 0.010178 0.114297
 69 5.758665 4.244730 0.000000 0.000000 0.000000 1.667687
 70 3.177726 0.000000 -0.000000 0.000000 0.000000 3.141593
 71 15.708951 0.000001 0.000000 -0.051525 0.003996 0.061523
 72 0.275148 0.189215 -3.445208 3.130898 0.000409 -1.514604
 73 17.210192 -0.000000 -0.000000 -0.000000 -0.000000 -1.893339
 74 0.000001 0.000000 -4.999999 -0.079433 1.546568 -1.570857
 75 0.000002 -0.000003 -3.619081 0.577895 2.675801 -0.242118
 76 16.573921 -0.000001 -0.000002 -0.000000 -0.000000 -1.163030
 77 15.128181 0.000001 0.000001 0.089479 0.309197 0.659208
 78 5.758666 4.244730 -0.000001 -0.000000 -0.000000 1.815142
 79 4.003934 -0.000000 0.000001 0.000000 0.000000 0.000000
 80 15.708954 0.000001 0.000002 0.042277 0.226871 0.443133
 81 0.273998 0.191089 3.439762 -3.130907 -0.000437 -1.508107
 82 17.210194 -0.000001 -0.000002 0.000000 -0.000000 -1.937080
 83 -0.000000 -0.000001 5.000000 -0.079319 1.595025 -1.570742
time 7
  0 -0.650000 0.000000 33.899605 -0.025849 0.174554 -1.569172
  1 5.685103 0.833236 -32.227173 -0.174512 -0.026131 1.569196
  2 -2.276935 0.000003 -1.238188 -1.570795 -1.570451 0.000000
  3 1.796255 0.711992 0.000674 -0.225692 -0.396953 -0.191185
  4 4.119695 -0.003013 0.000697 -0.220306 0.237395 0.295176
  5 4.118811 -0.003200 0.000687 -0.213025 0.145340 0.034439
  6 4.118427 -0.003193 0.000730 -0.224667 0.057903 -0.068161
  7 4.120688 -0.002193 -0.001836 0.550433 0.126941 0.837726
  8 4.443598 -0.000001 -0.000001 0.470736 -0.660107 -0.322436
  9 9.024059 0.000001 -0.000000 0.000000 0.000000 0.000000
 10 -0.219366 0.902553 1.464913 0.811817 -0.837562 1.457584
 11 6.384776 0.000001 0.000002 -0.583908 0.970490 -0.209098
 12 10.242681 -0.000000 0.000000 -0.000000 -0.000000 -1.357719
 13 11.375561 0.000001 0.000001 2.761937 0.310211 -0.243150
 14 0.728681 0.023433 -1.008292 2.396606 0.246960 1.180207
 15 2.136497 0.000000 -0.000001 -0.000000 -0.000000 -0.078540
 16 2.313140 0.000000 0.000000 0.000000 0.000000 0.000000
 17 3.115507 -0.886041 -0.021431 -0.166499 0.000392 0.514872
 18 2.011148 -0.000002 0.000002 -0.000000 0.000000 1.322792
 19 2.141381 -0.000001 -0.000001 0.000000 0.000000 0.000000
 20 1.734170 -0.000001 -0.000000 -0.000000 0.000000 0.660693
 21 0.000006 -4.440594 -0.000001 1.570544 -0.062990 -0.195737
 22 6.000000 -0.000000 0.000001 3.111922 0.000000 -0.000000
 23 0.000001 -4.440602 0.000001 1.569944 -0.062987 0.004053
 24 11.375561 0.000002 0.000003 -2.516996 0.247102 -0.027136
 25 -0.000000 -4.440603 0.000001 1.570144 -0.062988 0.004040
 26 10.510130 0.000000 -0.000000 0.000000 -0.000000 -2.249656
 27 -0.000001 -1.748399 4.999997 -0.000000 0.004007 1.602290
 28 5.500001 0.000000 -0.000000 0.210770 0.000000 0.000000
 29 0.000001 -1.940598 4.999999 -0.044472 0.004003 -0.000180
 30 6.551490 0.000000 0.000001 -0.395141 0.678362 0.002009
 31 0.000001 -1.940598 5.000002 -0.027189 -0.053376 0.005295
 32 6.551490 0.000000 0.000001 -0.174566 0.317602 0.035754
 33 -0.000001 -1.940599 4.999996 -0.066572 -0.152786 -0.110311
 34 0.219369 -0.895477 -1.464914 2.954988 1.181707 -0.936300
 35 6.384776 0.000000 0.000000 -0.473398 -0.785995 -0.598730
 36 10.242680 -0.000000 0.000002 -0.000000 0.000000 -1.707321
 37 11.375562 0.000003 -0.000000 2.165002 0.309118 0.116183
 38 0.728681 0.023431 1.008294 -1.579583 -0.319038 0.212973
 39 2.136496 0.000001 0.000000 -0.000000 0.000000 1.282817
 40 2.313138 -0.000000 0.000001 0.000000 0.000000 3.141593
 41 3.115506 -0.886041 0.021431 0.708959 0.171755 0.347804
 42 2.011151 0.000000 0.000003 0.000000 0.000000 2.082010
 43 2.141378 0.000000 -0.000001 0.000000 0.000000 3.141593
 44 1.734173 -0.000002 0.000001 -0.000000 0.000000 1.041748
 45 0.136314 -3.738192 2.525891 1.493698 2.759406 -1.474501
 46 5.613160 0.862366 3.157032 1.595152 -0.135375 0.061522
 47 11.389367 -0.000819 0.158780 1.860696 0.179336 0.037259
 48 0.000000 -4.440600 -0.000000 1.570144 -3.078602 0.004040
 49 6.000000 -0.000000 -0.000002 1.860696 0.000000 -0.000000
 50 0.000002 -4.440602 0.000001 1.569944 -3.078603 0.004053
 51 10.510131 -0.000001 0.000004 -0.000000 -0.000000 -2.424457
 52 0.000000 -1.748398 -5.000001 3.141593 0.004007 -1.539299
 53 5.499999 -0.000001 0.000003 0.166828 -0.000000 0.000000
 54 -0.000002 0.000000 -5.000002 -0.044472 3.137589 -0.000177
 55 6.551490 0.000000 -0.000000 -0.166828 -0.228142 -0.206896
 56 -1.266843 -1.937442 -4.950562 -0.066572 -2.988806 -0.110308
 57 6.551490 -0.000000 -0.000000 -0.166828 -0.228142 -0.206896
 58 0.699371 -1.944207 -5.006848 -0.027189 -3.088217 0.005298
 59 4.226147 -0.003202 0.000000 0.261068 0.120478 0.408000
 60 0.000002 5.000000 -0.000001 -0.153564 0.000087 2.718702
 61 0.000004 -0.000004 -3.713580 0.365818 2.880119 -0.191589
 62 0.000002 -0.000000 5.000000 3.053196 1.558589 -0.074928
 63 -0.000007 0.000006 3.713580 -0.001619 -3.122277 -0.475127
 64 0.000002 -0.000000 -5.000000 -0.088726 1.558589 3.066335
 65 7.363602 1.646647 0.495663 3.141593 -1.570796 0.000000
 66 -0.000005 0.000007 3.619081 0.008255 -3.110080 -0.985231
 67 16.573919 0.000000 -0.000000 -0.000000 -0.000000 -1.065827
 68 15.128180 0.000001 0.000000 -0.102296 0.010178 0.114297
 69 5.758665 4.244730 0.000000 0.000000 0.000000 1.667687
 70 3.177726 0.000000 -0.000000 0.000000 0.000000 3.141593
 71 15.708951 0.000001 0.000000 -0.051525 0.003996 0.061523
 72 0.275148 0.189215 -3.445208 3.130898 0.000409 -1.514604
 73 17.210192 -0.000000 -0.000000 -0.000000 -0.000000 -1.893339
 74 0.000001 0.000000 -4.999999 -0.079433 1.546568 -1.570857
 75 0.000002 -0.000003 -3.619081 0.577895 2.675801 -0.242118
 76 16.573921 -0.000001 -0.000002 -0.000000 -0.000000 -1.163030
 77 15.128181 0.000001 0.000001 0.089479 0.309197 0.659208
 78 5.758666 4.244730 -0.000001 -0.000000 -0.000000 1.815142
 79 4.003934 -0.000000 0.000001 0.000000 0.000000 0.000000
 80 15.708954 0.000001 0.000002 0.042277 0.226871 0.443133
 81 0.273998 0.191089 3.439762 -3.130907 -0.000437 -1.508107
 82 17.210194 -0.000001 -0.000002 0.000000 -0.000000 -1.937080
 83 -0.000000 -0.000001 5.000000 -0.079319 1.595025 -1.570742
time 8
  0 -0.650000 0.000000 33.899605 -0.025849 0.174554 -1.569172
  1 5.685103 0.833236 -32.227173 -0.174512 -0.026131 1.569196
  2 -2.276935 0.000003 -1.238188 -1.570795 -1.570451 0.000000
  3 1.796244 0.711992 0.000662 -0.221549 -0.396920 -0.195930
  4 4.119694 -0.003016 0.000684 -0.216941 0.241186 0.294067
  5 4.118810 -0.003203 0.000674 -0.209237 0.145036 0.034201
  6 4.118424 -0.003195 0.000718 -0.220900 0.057975 -0.068727
  7 4.120687 -0.002194 -0.001836 0.550433 0.126941 0.837726
  8 4.443600 -0.000002 0.000000 0.451257 -0.659573 -0.315474
  9 9.024058 0.000001 -0.000000 0.000000 0.000000 0.000000
 10 -0.219364 0.902551 1.464914 0.811817 -0.837562 1.457584
 11 6.384777 0.000001 -0.000002 -0.606689 0.970320 -0.254059
 12 10.242681 -0.000001 -0.000000 -0.000000 -0.000000 -1.326322
 13 11.375561 0.000002 -0.000000 2.755733 0.311803 -0.258295
 14 0.728681 0.023433 -1.008292 2.396606 0.246960 1.180207
 15 2.136493 0.000001 -0.000001 -0.000000 0.000000 -0.078540
 16 2.313140 -0.000001 0.000000 0.000000 0.000000 0.000000
 17 3.115506 -0.886040 -0.021432 -0.166499 0.000392 0.514872
 18 2.011148 -0.000002 0.000001 -0.000000 0.000000 1.322792
 19 2.141381 -0.000000 0.000001 0.000000 0.000000 0.000000
 20 1.734170 -0.000002 -0.000000 -0.000000 -0.000000 0.660693
 21 0.000004 -4.440593 0.000000 1.570544 -0.062990 -0.195737
 22 6.000000 0.000000 0.000000 3.105782 0.000000 -0.000000
 23 0.000001 -4.440601 0.000001 1.569944 -0.062987 0.004053
 24 11.375561 -0.000000 0.000003 -2.519025 0.252648 -0.034396
 25 -0.000001 -4.440602 -0.000000 1.570144 -0.062988 0.004040
 26 10.510131 -0.000001 -0.000001 0.000000 -0.000000 -2.233957
 27 -0.000000 -1.748400 4.999998 -0.000000 0.004007 1.602290
 28 5.499999 -0.000000 -0.000001 0.214443 0.000000 0.000000
 29 -0.000003 -1.940599 5.000001 -0.044472 0.004003 -0.000180
 30 6.551491 0.000001 -0.000002 -0.406434 0.675636 -0.024593
 31 0.000000 -1.940599 5.000002 -0.027189 -0.053376 0.005295
 32 6.551491 0.000001 -0.000002 -0.177224 0.317603 0.024906
 33 -0.000002 -1.940599 4.999999 -0.066572 -0.152786 -0.110311
 34 0.219368 -0.895476 -1.464914 2.954987 1.181707 -0.936300
 35 6.384777 0.000000 -0.000004 -0.485794 -0.782336 -0.574625
 36 10.242681 0.000000 0.000001 0.000000 0.000000 -1.721414
 37 11.375561 0.000001 -0.000001 2.163728 0.310765 0.134578
 38 0.728681 0.023430 1.008293 -1.579583 -0.319038 0.212973
 39 2.136497 -0.000000 0.000000 -0.000000 0.000000 1.282817
 40 2.313141 -0.000001 0.000000 0.000000 0.000000 3.141593
 41 3.115507 -0.886042 0.021432 0.708959 0.171755 0.347804
 42 2.011151 0.000001 0.000000 -0.000000 0.000000 2.082010
 43 2.141379 0.000000 -0.000000 0.000000 0.000000 3.141593
 44 1.734173 -0.000002 -0.000002 -0.000000 0.000000 1.041748
 45 0.136316 -3.738192 2.525891 1.493698 2.759406 -1.474501
 46 5.613161 0.862366 3.157032 1.595152 -0.135375 0.061522
 47 11.389367 -0.000819 0.158779 1.859459 0.181284 0.047297
 48 0.000001 -4.440598 0.000001 1.570144 -3.078602 0.004040
 49 6.000000 -0.000001 -0.000002 1.859459 0.000000 0.000000
 50 0.000002 -4.440600 0.000002 1.569944 -3.078603 0.004053
 51 10.510130 0.000001 0.000001 -0.000000 -0.000000 -2.431503
 52 0.000000 -1.748401 -5.000001 3.141593 0.004007 -1.539299
 53 5.500000 0.000000 0.000002 0.168219 -0.000000 -0.000000
 54 0.000001 0.000000 -5.000000 -0.044472 3.137589 -0.000177
 55 6.551490 -0.000000 -0.000002 -0.168219 -0.228927 -0.203208
 56 -1.266844 -1.937443 -4.950559 -0.066572 -2.988806 -0.110308
 57 6.551491 -0.000000 -0.000002 -0.168219 -0.228927 -0.203208
 58 0.699370 -1.944208 -5.006848 -0.027189 -3.088217 0.005298
 59 4.226144 -0.003201 0.000000 0.261068 0.120478 0.408000
 60 -0.000002 5.000001 -0.000000 -0.153564 0.000087 2.718702
 61 0.000004 -0.000004 -3.713580 0.365818 2.880119 -0.191589
 62 0.000002 -0.000000 5.000000 3.053196 1.558589 -0.074928
 63 -0.000007 0.000006 3.713580 -0.001619 -3.122277 -0.475127
 64 0.000002 -0.000000 -5.000000 -0.088726 1.558589 3.066335
 65 7.363602 1.646647 0.495663 3.141593 -1.570796 0.000000
 66 -0.000005 0.000007 3.619081 0.008255 -3.110080 -0.985231
 67 16.573919 0.000000 -0.000000 -0.000000 -0.000000 -1.065827
 68 15.128180 0.000001 0.000000 -0.102296 0.010178 0.114297
 69 5.758665 4.244730 0.000000 0.000000 0.000000 1.667687
 70 3.177726 0.000000 -0.000000 0.000000 0.000000 3.141593
 71 15.708951 0.000001 0.000000 -0.051525 0.003996 0.061523
 72 0.275148 0.189215 -3.445208 3.130898 0.000409 -1.514604
 73 17.210192 -0.000000 -0.000000 -0.000000 -0.000000 -1.893339
 74 0.000001 0.000000 -4.999999 -0.079433 1.546568 -1.570857
 75 0.000002 -0.000003 -3.619081 0.577895 2.675801 -0.242118
 76 16.573921 -0.000001 -0.000002 -0.000000 -0.000000 -1.163030
 77 15.128181 0.000001 0.000001 0.089479 0.309197 0.659208
 78 5.758666 4.244730 -0.000001 -0.000000 -0.000000 1.815142
 79 4.003934 -0.000000 0.000001 0.000000 0.000000 0.000000
 80 15.708954 0.000001 0.000002 0.042277 0.226871 0.443133
 81 0.273998 0.191089 3.439762 -3.130907 -0.000437 -1.508107
 82 17.210194 -0.000001 -0.000002 0.000000 -0.000000 -1.937080
 83 -0.000000 -0.000001 5.000000 -0.079319 1.595025 -1.570742
time 9
  0 -0.650000 0.000000 33.899605 -0.025849 0.174554 -1.569172
  1 5.685103 0.833236 -32.227173 -0.174512 -0.026131 1.569196
  2 -2.276935 0.000003 -1.238188 -1.570795 -1.570451 0.000000
  3 1.796235 0.711992 0.000649 -0.217139 -0.396864 -0.200980
  4 4.119689 -0.003020 0.000674 -0.213361 0.245225 0.292901
  5 4.118808 -0.003206 0.000661 -0.205205 0.144714 0.033946
  6 4.118425 -0.003198 0.000704 -0.216891 0.058054 -0.069329
  7 4.120688 -0.002193 -0.001836 0.550433 0.126941 0.837726
  8 4.443600 -0.000000 0.000002 0.430519 -0.658858 -0.308044
  9 9.024058 0.000001 -0.000000 0.000000 0.000000 0.000000
 10 -0.219366 0.902554 1.464914 0.811818 -0.837562 1.457583
 11 6.384777 -0.000001 0.000002 -0.631542 0.969297 -0.302366
 12 10.242682 0.000001 -0.000001 0.000000 -0.000000 -1.292149
 13 11.375561 -0.000001 0.000002 2.748888 0.313547 -0.274898
 14 0.728680 0.023432 -1.008291 2.396606 0.246960 1.180207
 15 2.136497 0.000000 -0.000001 -0.000000 -0.000000 -0.078540
 16 2.313139 -0.000000 0.000001 0.000000 0.000000 0.000000
 17 3.115506 -0.886038 -0.021431 -0.166499 0.000392 0.514872
 18 2.011153 0.000003 -0.000001 -0.000000 0.000000 1.322792
 19 2.141379 0.000000 0.000000 0.000000 0.000000 0.000000
 20 1.734172 -0.000001 -0.000002 -0.000000 -0.000000 0.660693
 21 0.000003 -4.440593 0.000000 1.570544 -0.062990 -0.195737
 22 6.000000 0.000001 0.000001 3.098999 -0.000000 0.000000
 23 0.000002 -4.440601 -0.000000 1.569944 -0.062987 0.004053
 24 11.375561 0.000000 0.000004 -2.521250 0.258705 -0.042297
 25 -0.000000 -4.440605 0.000001 1.570144 -0.062988 0.004040
 26 10.510132 0.000001 -0.000001 0.000000 0.000000 -2.216871
 27 0.000000 -1.748400 4.999998 -0.000000 0.004007 1.602290
 28 5.500000 0.000000 0.000000 0.218167 -0.000000 0.000000
 29 -0.000000 -1.940598 4.999999 -0.044472 0.004003 -0.000180
 30 6.551492 -0.000001 0.000001 -0.418062 0.671769 -0.053543
 31 0.000001 -1.940599 5.000001 -0.027189 -0.053376 0.005295
 32 6.551492 -0.000001 0.000001 -0.179893 0.317270 0.012958
 33 -0.000000 -1.940599 4.999997 -0.066572 -0.152786 -0.110311
 34 0.219369 -0.895476 -1.464912 2.954987 1.181707 -0.936300
 35 6.384776 0.000000 0.000000 -0.498933 -0.778344 -0.548988
 36 10.242682 -0.000000 0.000001 -0.000000 -0.000000 -1.736413
 37 11.375560 0.000000 0.000001 2.162358 0.312598 0.154092
 38 0.728681 0.023431 1.008291 -1.579583 -0.319038 0.212973
 39 2.136497 -0.000003 -0.000000 0.000000 0.000000 1.282817
 40 2.313140 0.000000 -0.000000 0.000000 0.000000 3.141593
 41 3.115507 -0.886041 0.021433 0.708959 0.171755 0.347804
 42 2.011151 -0.000001 -0.000001 0.000000 0.000000 2.082010
 43 2.141380 -0.000000 -0.000001 0.000000 0.000000 3.141593
 44 1.734172 0.000001 0.000001 -0.000000 -0.000000 1.041748
 45 0.136314 -3.738192 2.525889 1.493698 2.759406 -1.474501
 46 5.613159 0.862366 3.157033 1.595152 -0.135375 0.061522
 47 11.389366 -0.000820 0.158782 1.858109 0.183338 0.057902
 48 0.000000 -4.440599 0.000002 1.570144 -3.078602 0.004040
 49 5.999999 -0.000001 0.000000 1.858109 0.000000 0.000000
 50 0.000002 -4.440602 -0.000001 1.569944 -3.078603 0.004053
 51 10.510131 0.000000 0.000001 0.000000 0.000000 -2.439003
 52 0.000000 -1.748398 -5.000001 -3.141593 0.004007 -1.539299
 53 5.500000 -0.000000 0.000001 0.169760 0.000000 0.000000
 54 0.000000 -0.000001 -4.999999 -0.044472 3.137589 -0.000177
 55 6.551490 0.000000 -0.000001 -0.169760 -0.229833 -0.199207
 56 -1.266844 -1.937443 -4.950562 -0.066572 -2.988806 -0.110308
 57 6.551491 0.000001 -0.000001 -0.169760 -0.229833 -0.199207
 58 0.699370 -1.944208 -5.006849 -0.027189 -3.088217 0.005298
 59 4.226148 -0.003202 0.000000 0.261068 0.120478 0.408000
 60 0.000002 5.000001 -0.000000 -0.153564 0.000087 2.718702
 61 0.000004 -0.000004 -3.713580 0.365818 2.880119 -0.191589
 62 0.000002 -0.000000 5.000000 3.053196 1.558589 -0.074928
 63 -0.000007 0.000006 3.713580 -0.001619 -3.122277 -0.475127
 64 0.000002 -0.000000 -5.000000 -0.088726 1.558589 3.066335
 65 7.363602 1.646647 0.495663 3.141593 -1.570796 0.000000
 66 -0.000005 0.000007 3.619081 0.008255 -3.110080 -0.985231
 67 16.573919 0.000000 -0.000000 -0.000000 -0.000000 -1.065827
 68 15.128180 0.000001 0.000000 -0.102296 0.010178 0.114297
 69 5.758665 4.244730 0.000000 0.000000 0.000000 1.667687
 70 3.177726 0.000000 -0.000000 0.000000 0.000000 3.141593
 71 15.708951 0.000001 0.000000 -0.051525 0.003996 0.061523
 72 0.275148 0.189215 -3.445208 3.130898 0.000409 -1.514604
 73 17.210192 -0.000000 -0.000000 -0.000000 -0.000000 -1.893339
 74 0.000001 0.000000 -4.999999 -0.079433 1.546568 -1.570857
 75 0.000002 -0.000003 -3.619081 0.577895 2.675801 -0.242118
 76 16.573921 -0.000001 -0.000002 -0.000000 -0.000000 -1.163030
 77 15.128181 0.000001 0.000001 0.089479 0.309197 0.659208
 78 5.758666 4.244730 -0.000001 -0.000000 -0.000000 1.815142
 79 4.003934 -0.000000 0.000001 0.000000 0.000000 0.000000
 80 15.708954 0.000001 0.000002 0.042277 0.226871 0.443133
 81 0.273998 0.191089 3.439762 -3.130907 -0.000437 -1.508107
 82 17.210194 -0.000001 -0.000002 0.000000 -0.000000 -1.937080
 83 -0.000000 -0.000001 5.000000 -0.079319 1.595025 -1.570742
time 10
  0 -0.650000 0.000000 33.899605 -0.025849 0.174554 -1.569172
  1 5.685103 0.833236 -32.227173 -0.174512 -0.026131 1.569196
  2 -2.276935 0.000003 -1.238188 -1.570795 -1.570451 0.000000
  3 1.796224 0.711993 0.000637 -0.213263 -0.396798 -0.205418
  4 4.119689 -0.003023 0.000663 -0.210215 0.248779 0.291887
  5 4.118805 -0.003208 0.000650 -0.201661 0.144431 0.033721
  6 4.118422 -0.003200 0.000693 -0.213367 0.058125 -0.069858
  7 4.120689 -0.002193 -0.001836 0.550433 0.126941 0.837726
  8 4.443597 0.000002 -0.000001 0.412296 -0.658107 -0.301505
  9 9.024059 0.000001 -0.000000 0.000000 0.000000 0.000000
 10 -0.219366 0.902554 1.464912 0.811818 -0.837562 1.457583
 11 6.384777 -0.000000 0.000002 -0.653862 0.967660 -0.345161
 12 10.242682 -0.000000 0.000001 -0.000000 -0.000000 -1.261438
 13 11.375560 0.000001 0.000002 2.742685 0.315135 -0.289912
 14 0.728681 0.023431 -1.008293 2.396606 0.246960 1.180207
 15 2.136498 -0.000000 0.000002 -0.000000 -0.000000 -0.078540
 16 2.313139 0.000000 -0.000001 0.000000 0.000000 0.000000
 17 3.115506 -0.886040 -0.021432 -0.166499 0.000392 0.514872
 18 2.011150 -0.000002 0.000000 0.000000 -0.000000 1.322792
 19 2.141378 -0.000001 0.000001 0.000000 0.000000 0.000000
 20 1.734173 0.000000 0.000000 0.000000 0.000000 0.660693
 21 0.000009 -4.440593 -0.000000 1.570544 -0.062990 -0.195737
 22 6.000000 0.000000 0.000002 3.092848 -0.000000 0.000000
 23 0.000001 -4.440603 0.000001 1.569944 -0.062987 0.004053
 24 11.375561 0.000002 0.000004 -2.523247 0.264164 -0.049389
 25 -0.000001 -4.440604 0.000002 1.570144 -0.062988 0.004040
 26 10.510132 0.000001 -0.000001 0.000000 -0.000000 -2.201515
 27 0.000001 -1.748400 4.999999 0.000000 0.004007 1.602291
 28 5.500001 -0.000000 -0.000000 0.221250 0.000000 0.000000
 29 0.000001 -1.940598 5.000000 -0.044472 0.004003 -0.000180
 30 6.551491 -0.000001 0.000000 -0.427866 0.667559 -0.079500
 31 0.000001 -1.940600 5.000000 -0.027189 -0.053376 0.005295
 32 6.551491 -0.000001 0.000000 -0.182080 0.316692 0.002112
 33 -0.000000 -1.940600 4.999996 -0.066572 -0.152786 -0.110311
 34 0.219368 -0.895476 -1.464914 2.954988 1.181707 -0.936300
 35 6.384776 0.000000 -0.000000 -0.510431 -0.774752 -0.526479
 36 10.242681 0.000000 0.000002 -0.000000 -0.000000 -1.749588
 37 11.375562 0.000000 -0.000001 2.161143 0.314281 0.171182
 38 0.728681 0.023431 1.008291 -1.579583 -0.319038 0.212973
 39 2.136497 0.000000 0.000000 -0.000000 0.000000 1.282817
 40 2.313142 0.000001 0.000001 0.000000 0.000000 3.141593
 41 3.115506 -0.886042 0.021433 0.708959 0.171755 0.347804
 42 2.011150 -0.000000 0.000000 -0.000000 0.000000 2.082010
 43 2.141381 -0.000000 0.000001 0.000000 0.000000 3.141593
 44 1.734172 -0.000001 0.000001 -0.000000 -0.000000 1.041748
 45 0.136315 -3.738193 2.525891 1.493698 2.759406 -1.474501
 46 5.613160 0.862366 3.157031 1.595152 -0.135375 0.061522
 47 11.389367 -0.000819 0.158781 1.856893 0.185128 0.067144
 48 0.000001 -4.440598 0.000000 1.570144 -3.078602 0.004040
 49 6.000000 -0.000001 -0.000001 1.856893 0.000000 0.000000
 50 0.000002 -4.440600 -0.000001 1.569944 -3.078603 0.004053
 51 10.510129 0.000001 0.000002 -0.000000 0.000000 -2.445590
 52 0.000001 -1.748399 -5.000002 -3.141593 0.004007 -1.539299
 53 5.499999 0.000000 0.000000 0.171170 -0.000000 -0.000000
 54 0.000001 -0.000001 -4.999997 -0.044472 3.137589 -0.000177
 55 6.551490 0.000000 0.000002 -0.171170 -0.230689 -0.195619
 56 -1.266843 -1.937444 -4.950560 -0.066572 -2.988806 -0.110308
 57 6.551491 0.000000 0.000002 -0.171170 -0.230689 -0.195619
 58 0.699371 -1.944209 -5.006846 -0.027189 -3.088217 0.005298
 59 4.226146 -0.003201 0.000000 0.261068 0.120478 0.408000
 60 0.000001 5.000000 0.000000 -0.153564 0.000087 2.718702
 61 0.000004 -0.000004 -3.713580 0.365818 2.880119 -0.191589
 62 0.000002 -0.000000 5.000000 3.053196 1.558589 -0.074928
 63 -0.000007 0.000006 3.713580 -0.001619 -3.122277 -0.475127
 64 0.000002 -0.000000 -5.000000 -0.088726 1.558589 3.066335
 65 7.363602 1.646647 0.495663 3.141593 -1.570796 0.000000
 66 -0.000005 0.000007 3.619081 0.008255 -3.110080 -0.985231
 67 16.573919 0.000000 -0.000000 -0.000000 -0.000000 -1.065827
 68 15.128180 0.000001 0.000000 -0.102296 0.010178 0.114297
 69 5.758665 4.244730 0.000000 0.000000 0.000000 1.667687
 70 3.177726 0.000000 -0.000000 0.000000 0.000000 3.141593
 71 15.708951 0.000001 0.000000 -0.051525 0.003996 0.061523
 72 0.275148 0.189215 -3.445208 3.130898 0.000409 -1.514604
 73 17.210192 -0.000000 -0.000000 -0.000000 -0.000000 -1.893339
 74 0.000001 0.000000 -4.999999 -0.079433 1.546568 -1.570857
 75 0.000002 -0.000003 -3.619081 0.577895 2.675801 -0.242118
 76 16.573921 -0.000001 -0.000002 -0.000000 -0.000000 -1.163030
 77 15.128181 0.000001 0.000001 0.089479 0.309197 0.659208
 78 5.758666 4.244730 -0.000001 -0.000000 -0.000000 1.815142
 79 4.003934 -0.000000 0.000001 0.000000 0.000000 0.000000
 80 15.708954 0.000001 0.000002 0.042277 0.226871 0.443133
 81 0.273998 0.191089 3.439762 -3.130907 -0.000437 -1.508107
 82 17.210194 -0.000001 -0.000002 0.000000 -0.000000 -1.937080
 83 -0.000000 -0.000001 5.000000 -0.079319 1.595025 -1.570742
end
