version 1
nodes
  0 "Bip01"  -1
  1 "Bip01 Footsteps"   0
  2 "Bip01 Pelvis"   0
  3 "Bip01 Spine"   2
  4 "Bip01 Spine1"   3
  5 "Bip01 Spine2"   4
  6 "Bip01 Spine3"   5
  7 "Bip01 Neck"   6
  8 "Bip01 Head"   7
  9 "Dummy21"   8
 10 "Bip01 L Clavicle"   7
 11 "Bip01 L UpperArm"  10
 12 "Bip01 L Forearm"  11
 13 "Bip01 L Hand"  12
 14 "Bip01 L Finger0"  13
 15 "Bip01 L Finger01"  14
 16 "Dummy06"  15
 17 "Bip01 L Finger1"  13
 18 "Bip01 L Finger11"  17
 19 "Dummy03"  18
 20 "-- L knuckle"  17
 21 "-- L knuckle_end"  20
 22 "-- L Forearm twist"  12
 23 "-- L Forearm twist_end"  22
 24 "-- L wrist"  12
 25 "-- L wrist_end"  24
 26 "-- L Elbow"  11
 27 "--L Elbow_end"  26
 28 "-- L bicep twist"  11
 29 "-- L bicep twist_end"  28
 30 "-- L shoulder outside"  10
 31 "-- L shoulder outside_end"  30
 32 "-- L Shoulder inside"  10
 33 "-- L Shoulder inside_end"  32
 34 "Bip01 R Clavicle"   7
 35 "Bip01 R UpperArm"  34
 36 "Bip01 R Forearm"  35
 37 "Bip01 R Hand"  36
 38 "Bip01 R Finger0"  37
 39 "Bip01 R Finger01"  38
 40 "Dummy01"  39
 41 "Bip01 R Finger1"  37
 42 "Bip01 R Finger11"  41
 43 "Dummy02"  42
 44 "-- R knuckle"  41
 45 "Point06"  44
 46 "Line01"  37
 47 "-- R wrist"  36
 48 "-- R wrist_end"  47
 49 "-- R forearm twist"  36
 50 "-- R forearm twist_end"  49
 51 "-- R Elbow"  35
 52 "--R Elbow_end"  51
 53 "-- R bicep twist"  35
 54 "-- R bicep twist_end"  53
 55 "-- R Shoulder inside"  34
 56 "-- R Shoulder inside_end"  55
 57 "-- R shoulder outside"  34
 58 "-- R shoulder outside_end"  57
 59 "-- Neck smooth"   6
 60 "-- neck smooth end"  59
 61 "-- R Butt"   2
 62 "--R Butt_end"  61
 63 "-- L butt"   2
 64 "--L butt_end"  63
 65 "GIGN01"   2
 66 "Bip01 L Thigh"   2
 67 "Bip01 L Calf"  66
 68 "Bip01 L Foot"  67
 69 "Bip01 L Toe0"  68
 70 "Dummy16"  69
 71 "-- L ankle"  67
 72 "-- L ankleend"  71
 73 "-- L Knee"  66
 74 "--L Knee_end"  73
 75 "Bip01 R Thigh"   2
 76 "Bip01 R Calf"  75
 77 "Bip01 R Foot"  76
 78 "Bip01 R Toe0"  77
 79 "Dummy11"  78
 80 "-- R Ankle"  76
 81 "-- R ankleend"  80
 82 "-- R Knee"  75
 83 "--R Knee_end"  82
end
skeleton
time 0
  0 -0.650000 0.000000 33.899605 -0.025849 0.174554 -1.569172
  1 5.685104 0.833237 -32.227173 -0.174512 -0.026131 1.569196
  2 -2.276935 0.000003 -1.238189 -1.570795 -1.570451 0.000000
  3 1.795864 0.712084 -0.000410 0.126440 0.164557 -0.382885
  4 4.119600 -0.003102 -0.000385 0.118439 -0.106896 0.297328
  5 4.118667 -0.003250 -0.000431 0.132289 -0.097494 0.007239
  6 4.118319 -0.003241 -0.000412 0.126167 -0.055377 -0.092851
  7 4.120162 -0.002830 -0.001444 0.430597 -0.212706 0.406808
  8 4.443598 -0.000001 0.000000 0.519130 0.232315 -0.471350
  9 9.024062 0.000000 0.000000 0.000000 0.000000 0.000000
 10 0.365785 0.710495 1.539070 0.967175 -1.134931 1.768102
 11 6.384777 -0.000000 0.000001 -0.804116 0.265359 -0.980187
 12 10.242682 0.000002 -0.000000 -0.000000 0.000000 -1.542425
 13 11.375564 0.000000 0.000000 -3.081040 0.632135 0.274976
 14 0.728680 0.023431 -1.008291 2.396606 0.246960 1.180206
 15 2.136498 -0.000001 -0.000001 -0.000000 0.000000 -0.078540
 16 2.313138 0.000001 -0.000002 0.000000 0.000000 0.000000
 17 3.115506 -0.886042 -0.021429 -0.166499 0.000392 0.514872
 18 2.011150 -0.000000 0.000000 0.000000 0.000000 1.322792
 19 2.141379 0.000001 0.000000 0.000000 0.000000 0.000000
 20 1.734172 0.000001 -0.000000 -0.000000 -0.000000 0.660693
 21 0.000005 -4.440594 0.000002 1.570544 -0.062990 -0.195737
 22 6.000003 -0.000001 0.000000 -2.757792 0.000000 -0.000000
 23 -0.000001 -4.440602 0.000001 1.569944 -0.062987 0.004053
 24 11.375563 0.000001 0.000002 -2.306377 0.260713 0.286578
 25 -0.000001 -4.440603 -0.000002 1.570144 -0.062988 0.004040
 26 10.510131 0.000001 0.000000 0.000000 -0.000000 -2.342009
 27 0.000001 -1.748401 4.999999 0.000000 0.004007 1.602291
 28 5.500000 0.000002 0.000000 0.262461 0.000000 0.000000
 29 -0.000001 -1.940597 5.000002 -0.044472 0.004003 -0.000180
 30 6.551491 -0.000000 0.000002 -0.495098 0.218526 -0.605982
 31 0.000000 -1.940598 5.000003 -0.027189 -0.053376 0.005295
 32 6.551491 -0.000000 0.000002 -0.214540 0.139842 -0.269210
 33 0.000001 -1.940598 4.999997 -0.066572 -0.152786 -0.110311
 34 -0.365786 -0.703419 -1.539069 -1.498009 1.673007 1.188176
 35 6.384778 -0.000000 -0.000001 -0.292821 -0.987211 -0.744781
 36 10.242683 0.000000 -0.000000 0.000000 0.000000 -1.598124
 37 11.375561 -0.000000 -0.000001 1.807033 0.749817 -0.568477
 38 0.728680 0.023431 1.008292 -1.579583 -0.319038 0.212973
 39 2.136497 -0.000000 0.000000 -0.000000 -0.000000 1.282817
 40 2.313139 -0.000001 0.000000 0.000000 0.000000 3.141593
 41 3.115507 -0.886041 0.021433 0.708959 0.171755 0.347804
 42 2.011152 0.000001 0.000003 -0.000000 0.000000 2.082010
 43 2.141379 0.000000 -0.000002 0.000000 0.000000 3.141593
 44 1.734173 -0.000001 0.000003 -0.000000 -0.000000 1.041748
 45 0.136316 -3.738193 2.525890 1.493698 2.759406 -1.474501
 46 5.613160 0.862367 3.157032 1.595152 -0.135386 0.061522
 47 11.389368 -0.000818 0.158781 1.735470 0.362856 -0.285363
 48 0.000000 -4.440600 -0.000000 1.570144 -3.078602 0.004040
 49 6.000000 -0.000001 -0.000001 1.735470 -0.000000 -0.000000
 50 0.000003 -4.440600 0.000001 1.569944 -3.078603 0.004053
 51 10.510132 0.000001 0.000000 -0.000000 0.000000 -2.369858
 52 -0.000001 -1.748399 -5.000000 3.141593 0.004007 -1.539299
 53 5.500000 0.000001 -0.000001 0.143987 0.000000 0.000000
 54 -0.000001 0.000001 -5.000000 -0.044472 3.137590 -0.000177
 55 6.551492 -0.000000 -0.000001 -0.143987 -0.291655 -0.210909
 56 -1.266843 -1.937444 -4.950559 -0.066572 -2.988806 -0.110308
 57 6.551492 -0.000000 -0.000001 -0.143987 -0.291655 -0.210909
 58 0.699371 -1.944208 -5.006846 -0.027189 -3.088217 0.005298
 59 4.226146 -0.003202 0.000000 0.178466 -0.065383 0.184153
 60 -0.000000 5.000001 0.000000 -0.153564 0.000087 2.718702
 61 0.000004 -0.000004 -3.713580 0.365818 2.880119 -0.191589
 62 0.000003 -0.000000 5.000000 3.053196 1.558589 -0.074928
 63 -0.000007 0.000006 3.713580 -0.001619 -3.122277 -0.475127
 64 0.000001 -0.000000 -5.000000 -0.088724 1.558589 3.066337
 65 7.363602 1.646647 0.495663 3.141593 -1.570796 0.000000
 66 -0.000005 0.000007 3.619081 0.008255 -3.110080 -0.985231
 67 16.573919 0.000001 0.000000 0.000000 -0.000000 -1.065827
 68 15.128182 0.000000 -0.000000 -0.102296 0.010178 0.114297
 69 5.758666 4.244730 -0.000000 0.000000 -0.000000 1.667687
 70 3.177726 0.000000 0.000000 0.000000 0.000000 3.141593
 71 15.708953 0.000001 0.000000 -0.051525 0.003996 0.061523
 72 0.275148 0.189215 -3.445208 3.130898 0.000409 -1.514604
 73 17.210194 -0.000000 0.000000 0.000000 0.000000 -1.893339
 74 0.000000 0.000000 -4.999999 -0.079433 1.546568 -1.570859
 75 0.000002 -0.000003 -3.619081 0.577895 2.675801 -0.242118
 76 16.573923 -0.000001 -0.000001 0.000000 -0.000000 -1.163030
 77 15.128182 -0.000001 0.000002 0.089479 0.309197 0.659208
 78 5.758665 4.244731 -0.000000 -0.000000 0.000000 1.815142
 79 4.003934 -0.000000 -0.000000 0.000000 0.000000 0.000000
 80 15.708954 -0.000000 0.000002 0.042277 0.226871 0.443133
 81 0.273998 0.191090 3.439763 -3.130907 -0.000437 -1.508107
 82 17.210196 -0.000001 -0.000001 0.000000 -0.000000 -1.937080
 83 0.000001 -0.000001 5.000000 -0.079314 1.595025 -1.570739
time 1
  0 -0.650000 0.000000 33.899605 -0.025849 0.174554 -1.569172
  1 5.685104 0.833237 -32.227173 -0.174512 -0.026131 1.569196
  2 -2.276935 0.000003 -1.238189 -1.570795 -1.570451 0.000000
  3 1.795849 0.712088 -0.000397 0.122611 0.169541 -0.386834
  4 4.119593 -0.003104 -0.000373 0.114599 -0.107408 0.296534
  5 4.118668 -0.003252 -0.000417 0.128253 -0.100353 0.006261
  6 4.118320 -0.003243 -0.000399 0.122127 -0.057442 -0.093841
  7 4.120163 -0.002830 -0.001444 0.430597 -0.212705 0.406808
  8 4.443601 0.000000 -0.000000 0.534697 0.238259 -0.464082
  9 9.024063 0.000000 -0.000000 0.000000 0.000000 0.000000
 10 0.365787 0.710496 1.539070 0.967175 -1.134932 1.768102
 11 6.384777 0.000001 -0.000001 -0.796672 0.271215 -0.958483
 12 10.242682 -0.000002 -0.000001 -0.000000 -0.000000 -1.548760
 13 11.375565 -0.000000 0.000001 -3.084106 0.629769 0.276140
 14 0.728681 0.023429 -1.008293 2.396606 0.246960 1.180207
 15 2.136496 0.000000 -0.000003 -0.000000 0.000000 -0.078540
 16 2.313139 -0.000000 0.000001 0.000000 0.000000 0.000000
 17 3.115508 -0.886040 -0.021433 -0.166499 0.000392 0.514872
 18 2.011150 0.000001 -0.000000 0.000000 -0.000000 1.322791
 19 2.141379 -0.000001 -0.000001 0.000000 0.000000 0.000000
 20 1.734171 0.000000 0.000000 -0.000000 -0.000000 0.660693
 21 0.000008 -4.440595 0.000000 1.570544 -0.062990 -0.195737
 22 6.000001 0.000000 0.000000 -2.760683 -0.000000 -0.000000
 23 0.000003 -4.440599 -0.000001 1.569944 -0.062987 0.004053
 24 11.375564 0.000000 0.000004 -2.308111 0.259203 0.287129
 25 0.000000 -4.440604 -0.000003 1.570144 -0.062988 0.004040
 26 10.510131 -0.000002 -0.000001 -0.000000 -0.000000 -2.345176
 27 0.000001 -1.748402 5.000000 0.000000 0.004007 1.602290
 28 5.500001 -0.000000 -0.000001 0.261068 -0.000000 0.000000
 29 -0.000002 -1.940598 5.000000 -0.044472 0.004003 -0.000180
 30 6.551491 0.000001 -0.000000 -0.491787 0.219665 -0.596805
 31 0.000001 -1.940599 5.000000 -0.027189 -0.053376 0.005295
 32 6.551491 0.000001 -0.000000 -0.213542 0.139763 -0.265417
 33 0.000000 -1.940599 4.999997 -0.066572 -0.152786 -0.110311
 34 -0.365782 -0.703418 -1.539070 -1.498008 1.673007 1.188176
 35 6.384777 -0.000000 -0.000002 -0.281715 -0.990647 -0.767386
 36 10.242683 -0.000001 -0.000001 0.000000 0.000000 -1.580151
 37 11.375561 -0.000001 -0.000001 1.820890 0.747407 -0.570478
 38 0.728681 0.023430 1.008294 -1.579583 -0.319038 0.212973
 39 2.136500 -0.000002 -0.000000 -0.000000 0.000000 1.282817
 40 2.313139 0.000002 -0.000000 0.000000 0.000000 3.141593
 41 3.115506 -0.886042 0.021433 0.708959 0.171755 0.347804
 42 2.011150 0.000000 -0.000001 0.000000 0.000000 2.082010
 43 2.141379 -0.000002 -0.000000 0.000000 0.000000 3.141593
 44 1.734173 -0.000000 0.000001 0.000000 -0.000000 1.041748
 45 0.136315 -3.738192 2.525890 1.493698 2.759406 -1.474501
 46 5.613161 0.862367 3.157034 1.595152 -0.135386 0.061522
 47 11.389365 -0.000820 0.158781 1.741717 0.360737 -0.287390
 48 0.000001 -4.440600 0.000001 1.570144 -3.078602 0.004040
 49 5.999999 -0.000001 -0.000001 1.741717 -0.000000 0.000000
 50 0.000002 -4.440602 -0.000002 1.569944 -3.078603 0.004053
 51 10.510132 -0.000000 -0.000002 -0.000000 -0.000000 -2.360872
 52 -0.000000 -1.748397 -5.000000 3.141593 0.004007 -1.539299
 53 5.500001 -0.000001 -0.000001 0.143239 -0.000000 -0.000000
 54 0.000002 -0.000000 -4.999999 -0.044472 3.137589 -0.000177
 55 6.551491 -0.000001 -0.000002 -0.143239 -0.292084 -0.213712
 56 -1.266843 -1.937443 -4.950561 -0.066572 -2.988806 -0.110308
 57 6.551491 -0.000000 -0.000002 -0.143239 -0.292084 -0.213712
 58 0.699371 -1.944208 -5.006849 -0.027189 -3.088217 0.005298
 59 4.226147 -0.003201 -0.000000 0.178466 -0.065383 0.184153
 60 -0.000001 5.000002 0.000000 -0.153564 0.000087 2.718702
 61 0.000004 -0.000004 -3.713580 0.365818 2.880119 -0.191589
 62 0.000003 -0.000000 5.000000 3.053196 1.558589 -0.074928
 63 -0.000007 0.000006 3.713580 -0.001619 -3.122277 -0.475127
 64 0.000001 -0.000000 -5.000000 -0.088724 1.558589 3.066337
 65 7.363602 1.646647 0.495663 3.141593 -1.570796 0.000000
 66 -0.000005 0.000007 3.619081 0.008255 -3.110080 -0.985231
 67 16.573919 0.000001 0.000000 0.000000 -0.000000 -1.065827
 68 15.128182 0.000000 -0.000000 -0.102296 0.010178 0.114297
 69 5.758666 4.244730 -0.000000 0.000000 -0.000000 1.667687
 70 3.177726 0.000000 0.000000 0.000000 0.000000 3.141593
 71 15.708953 0.000001 0.000000 -0.051525 0.003996 0.061523
 72 0.275148 0.189215 -3.445208 3.130898 0.000409 -1.514604
 73 17.210194 -0.000000 0.000000 0.000000 0.000000 -1.893339
 74 0.000000 0.000000 -4.999999 -0.079433 1.546568 -1.570859
 75 0.000002 -0.000003 -3.619081 0.577895 2.675801 -0.242118
 76 16.573923 -0.000001 -0.000001 0.000000 -0.000000 -1.163030
 77 15.128182 -0.000001 0.000002 0.089479 0.309197 0.659208
 78 5.758665 4.244731 -0.000000 -0.000000 0.000000 1.815142
 79 4.003934 -0.000000 -0.000000 0.000000 0.000000 0.000000
 80 15.708954 -0.000000 0.000002 0.042277 0.226871 0.443133
 81 0.273998 0.191090 3.439763 -3.130907 -0.000437 -1.508107
 82 17.210196 -0.000001 -0.000001 0.000000 -0.000000 -1.937080
 83 0.000001 -0.000001 5.000000 -0.079314 1.595025 -1.570739
time 2
  0 -0.650000 0.000000 33.899605 -0.025849 0.174554 -1.569172
  1 5.685104 0.833237 -32.227173 -0.174512 -0.026131 1.569196
  2 -2.276935 0.000003 -1.238189 -1.570795 -1.570451 0.000000
  3 1.795839 0.712091 -0.000383 0.118226 0.175194 -0.391356
  4 4.119588 -0.003108 -0.000359 0.110228 -0.107995 0.295633
  5 4.118663 -0.003254 -0.000402 0.123662 -0.103610 0.005161
  6 4.118313 -0.003244 -0.000384 0.117531 -0.059797 -0.094959
  7 4.120163 -0.002830 -0.001444 0.430597 -0.212706 0.406808
  8 4.443598 0.000000 0.000000 0.552534 0.244790 -0.455717
  9 9.024064 0.000000 0.000000 0.000000 0.000000 0.000000
 10 0.365784 0.710497 1.539070 0.967175 -1.134932 1.768102
 11 6.384777 0.000000 -0.000002 -0.788288 0.277827 -0.933528
 12 10.242682 0.000000 -0.000001 -0.000000 -0.000000 -1.556075
 13 11.375560 -0.000000 0.000000 -3.087612 0.627143 0.277358
 14 0.728680 0.023431 -1.008292 2.396606 0.246960 1.180207
 15 2.136497 -0.000000 -0.000002 -0.000000 -0.000000 -0.078540
 16 2.313140 -0.000000 -0.000001 0.000000 0.000000 0.000000
 17 3.115506 -0.886041 -0.021433 -0.166499 0.000392 0.514872
 18 2.011150 0.000000 0.000002 0.000000 -0.000000 1.322792
 19 2.141379 -0.000001 0.000001 0.000000 0.000000 0.000000
 20 1.734172 0.000001 0.000001 0.000000 0.000000 0.660693
 21 0.000004 -4.440594 0.000000 1.570544 -0.062990 -0.195737
 22 6.000000 -0.000001 0.000001 -2.763976 0.000000 -0.000000
 23 -0.000000 -4.440602 0.000001 1.569944 -0.062987 0.004053
 24 11.375562 -0.000001 0.000004 -2.310075 0.257535 0.287713
 25 -0.000002 -4.440603 0.000001 1.570144 -0.062988 0.004040
 26 10.510131 0.000002 -0.000001 -0.000000 0.000000 -2.348834
 27 -0.000000 -1.748403 4.999999 0.000000 0.004007 1.602290
 28 5.499999 -0.000001 0.000000 0.259593 -0.000000 -0.000000
 29 -0.000001 -1.940599 5.000003 -0.044472 0.004003 -0.000180
 30 6.551491 0.000000 -0.000001 -0.488273 0.221104 -0.586462
 31 -0.000001 -1.940599 5.000004 -0.027189 -0.053376 0.005295
 32 6.551491 0.000000 -0.000001 -0.212489 0.139767 -0.261090
 33 -0.000001 -1.940600 4.999999 -0.066572 -0.152786 -0.110311
 34 -0.365784 -0.703418 -1.539069 -1.498009 1.673007 1.188175
 35 6.384777 -0.000000 0.000000 -0.268694 -0.994422 -0.793504
 36 10.242682 -0.000000 0.000001 0.000000 0.000000 -1.559656
 37 11.375561 -0.000003 -0.000001 1.836521 0.744456 -0.572836
 38 0.728679 0.023431 1.008291 -1.579583 -0.319038 0.212973
 39 2.136496 -0.000000 -0.000000 0.000000 0.000000 1.282817
 40 2.313140 0.000001 0.000000 0.000000 0.000000 3.141593
 41 3.115505 -0.886041 0.021431 0.708959 0.171755 0.347804
 42 2.011151 -0.000001 0.000000 -0.000000 0.000000 2.082010
 43 2.141380 0.000000 0.000000 0.000000 0.000000 3.141593
 44 1.734172 -0.000001 0.000000 -0.000000 -0.000000 1.041748
 45 0.136314 -3.738193 2.525891 1.493698 2.759406 -1.474501
 46 5.613159 0.862366 3.157031 1.595152 -0.135386 0.061522
 47 11.389368 -0.000820 0.158782 1.748781 0.358192 -0.289729
 48 0.000000 -4.440600 -0.000001 1.570144 -3.078602 0.004040
 49 6.000000 -0.000000 0.000001 1.748781 0.000000 0.000000
 50 0.000002 -4.440601 0.000002 1.569944 -3.078603 0.004053
 51 10.510130 0.000000 0.000000 0.000000 0.000000 -2.350625
 52 0.000000 -1.748399 -5.000002 -3.141593 0.004007 -1.539299
 53 5.499998 -0.000000 -0.000001 0.142368 -0.000000 -0.000000
 54 0.000003 -0.000001 -5.000000 -0.044472 3.137589 -0.000177
 55 6.551491 -0.000000 0.000001 -0.142368 -0.292603 -0.216941
 56 -1.266843 -1.937443 -4.950561 -0.066572 -2.988806 -0.110308
 57 6.551492 0.000000 0.000001 -0.142368 -0.292603 -0.216941
 58 0.699371 -1.944208 -5.006846 -0.027189 -3.088217 0.005298
 59 4.226146 -0.003201 -0.000000 0.178466 -0.065383 0.184153
 60 0.000003 5.000000 0.000000 -0.153564 0.000087 2.718702
 61 0.000004 -0.000004 -3.713580 0.365818 2.880119 -0.191589
 62 0.000003 -0.000000 5.000000 3.053196 1.558589 -0.074928
 63 -0.000007 0.000006 3.713580 -0.001619 -3.122277 -0.475127
 64 0.000001 -0.000000 -5.000000 -0.088724 1.558589 3.066337
 65 7.363602 1.646647 0.495663 3.141593 -1.570796 0.000000
 66 -0.000005 0.000007 3.619081 0.008255 -3.110080 -0.985231
 67 16.573919 0.000001 0.000000 0.000000 -0.000000 -1.065827
 68 15.128182 0.000000 -0.000000 -0.102296 0.010178 0.114297
 69 5.758666 4.244730 -0.000000 0.000000 -0.000000 1.667687
 70 3.177726 0.000000 0.000000 0.000000 0.000000 3.141593
 71 15.708953 0.000001 0.000000 -0.051525 0.003996 0.061523
 72 0.275148 0.189215 -3.445208 3.130898 0.000409 -1.514604
 73 17.210194 -0.000000 0.000000 0.000000 0.000000 -1.893339
 74 0.000000 0.000000 -4.999999 -0.079433 1.546568 -1.570859
 75 0.000002 -0.000003 -3.619081 0.577895 2.675801 -0.242118
 76 16.573923 -0.000001 -0.000001 0.000000 -0.000000 -1.163030
 77 15.128182 -0.000001 0.000002 0.089479 0.309197 0.659208
 78 5.758665 4.244731 -0.000000 -0.000000 0.000000 1.815142
 79 4.003934 -0.000000 -0.000000 0.000000 0.000000 0.000000
 80 15.708954 -0.000000 0.000002 0.042277 0.226871 0.443133
 81 0.273998 0.191090 3.439763 -3.130907 -0.000437 -1.508107
 82 17.210196 -0.000001 -0.000001 0.000000 -0.000000 -1.937080
 83 0.000001 -0.000001 5.000000 -0.079314 1.595025 -1.570739
time 3
  0 -0.650000 0.000000 33.899605 -0.025849 0.174554 -1.569172
  1 5.685104 0.833237 -32.227173 -0.174512 -0.026131 1.569196
  2 -2.276935 0.000003 -1.238189 -1.570795 -1.570451 0.000000
  3 1.795824 0.712096 -0.000369 0.114078 0.180487 -0.395631
  4 4.119590 -0.003109 -0.000345 0.106122 -0.108549 0.294788
  5 4.118655 -0.003255 -0.000388 0.119351 -0.106675 0.004141
  6 4.118314 -0.003246 -0.000370 0.113215 -0.062014 -0.095998
  7 4.120162 -0.002830 -0.001444 0.430597 -0.212706 0.406808
  8 4.443598 0.000001 0.000000 0.569407 0.250698 -0.447772
  9 9.024061 0.000000 0.000001 0.000000 0.000000 0.000000
 10 0.365785 0.710495 1.539070 0.967175 -1.134932 1.768102
 11 6.384777 -0.000000 0.000000 -0.780500 0.283990 -0.909839
 12 10.242681 -0.000000 -0.000000 0.000000 0.000000 -1.563040
 13 11.375561 0.000002 -0.000002 -3.090921 0.624742 0.278389
 14 0.728680 0.023429 -1.008292 2.396606 0.246960 1.180207
 15 2.136497 -0.000001 0.000002 -0.000000 -0.000000 -0.078540
 16 2.313140 -0.000000 -0.000001 0.000000 0.000000 0.000000
 17 3.115506 -0.886042 -0.021431 -0.166499 0.000392 0.514872
 18 2.011149 -0.000000 0.000002 0.000000 0.000000 1.322792
 19 2.141380 -0.000001 0.000001 0.000000 0.000000 0.000000
 20 1.734173 0.000001 -0.000001 -0.000000 -0.000000 0.660693
 21 0.000005 -4.440593 0.000000 1.570544 -0.062990 -0.195737
 22 6.000000 0.000000 -0.000002 -2.767069 0.000000 0.000000
 23 0.000001 -4.440602 0.000001 1.569944 -0.062987 0.004053
 24 11.375564 0.000000 0.000002 -2.311909 0.256022 0.288217
 25 -0.000002 -4.440604 0.000000 1.570144 -0.062988 0.004040
 26 10.510130 0.000001 -0.000001 0.000000 0.000000 -2.352316
 27 0.000000 -1.748400 5.000000 0.000000 0.004007 1.602290
 28 5.500000 0.000003 -0.000001 0.258315 -0.000000 -0.000000
 29 -0.000001 -1.940597 5.000000 -0.044472 0.004003 -0.000180
 30 6.551491 -0.000000 0.000001 -0.485219 0.222610 -0.576813
 31 -0.000000 -1.940601 5.000001 -0.027189 -0.053376 0.005295
 32 6.551491 -0.000000 0.000001 -0.211581 0.139866 -0.257003
 33 0.000002 -1.940599 4.999996 -0.066572 -0.152786 -0.110311
 34 -0.365781 -0.703420 -1.539070 -1.498009 1.673007 1.188175
 35 6.384777 0.000001 0.000002 -0.256097 -0.997831 -0.818416
 36 10.242681 -0.000001 -0.000001 0.000000 -0.000000 -1.540357
 37 11.375562 -0.000001 -0.000001 1.851063 0.741483 -0.575141
 38 0.728681 0.023431 1.008290 -1.579583 -0.319038 0.212973
 39 2.136496 -0.000000 0.000000 -0.000000 -0.000000 1.282817
 40 2.313140 0.000000 0.000000 0.000000 0.000000 3.141593
 41 3.115507 -0.886041 0.021430 0.708959 0.171755 0.347804
 42 2.011152 0.000002 0.000002 0.000000 0.000000 2.082010
 43 2.141380 0.000001 0.000001 0.000000 0.000000 3.141593
 44 1.734172 -0.000001 -0.000001 -0.000000 0.000000 1.041748
 45 0.136314 -3.738193 2.525890 1.493698 2.759406 -1.474501
 46 5.613160 0.862367 3.157029 1.595152 -0.135386 0.061522
 47 11.389368 -0.000818 0.158782 1.755374 0.355672 -0.291962
 48 0.000000 -4.440599 -0.000002 1.570144 -3.078602 0.004040
 49 6.000001 -0.000000 -0.000001 1.755374 0.000000 0.000000
 50 0.000001 -4.440603 0.000002 1.569944 -3.078603 0.004053
 51 10.510130 -0.000001 -0.000000 -0.000000 -0.000000 -2.340975
 52 0.000000 -1.748400 -5.000004 -3.141593 0.004007 -1.539299
 53 5.499998 -0.000001 -0.000001 0.141530 0.000000 0.000000
 54 0.000002 0.000000 -5.000000 -0.044472 3.137589 -0.000177
 55 6.551492 0.000001 0.000000 -0.141530 -0.293124 -0.220018
 56 -1.266844 -1.937444 -4.950562 -0.066572 -2.988806 -0.110308
 57 6.551492 0.000000 0.000000 -0.141530 -0.293124 -0.220018
 58 0.699370 -1.944208 -5.006849 -0.027189 -3.088217 0.005298
 59 4.226147 -0.003201 -0.000000 0.178466 -0.065383 0.184153
 60 0.000003 5.000001 0.000000 -0.153564 0.000087 2.718702
 61 0.000004 -0.000004 -3.713580 0.365818 2.880119 -0.191589
 62 0.000003 -0.000000 5.000000 3.053196 1.558589 -0.074928
 63 -0.000007 0.000006 3.713580 -0.001619 -3.122277 -0.475127
 64 0.000001 -0.000000 -5.000000 -0.088724 1.558589 3.066337
 65 7.363602 1.646647 0.495663 3.141593 -1.570796 0.000000
 66 -0.000005 0.000007 3.619081 0.008255 -3.110080 -0.985231
 67 16.573919 0.000001 0.000000 0.000000 -0.000000 -1.065827
 68 15.128182 0.000000 -0.000000 -0.102296 0.010178 0.114297
 69 5.758666 4.244730 -0.000000 0.000000 -0.000000 1.667687
 70 3.177726 0.000000 0.000000 0.000000 0.000000 3.141593
 71 15.708953 0.000001 0.000000 -0.051525 0.003996 0.061523
 72 0.275148 0.189215 -3.445208 3.130898 0.000409 -1.514604
 73 17.210194 -0.000000 0.000000 0.000000 0.000000 -1.893339
 74 0.000000 0.000000 -4.999999 -0.079433 1.546568 -1.570859
 75 0.000002 -0.000003 -3.619081 0.577895 2.675801 -0.242118
 76 16.573923 -0.000001 -0.000001 0.000000 -0.000000 -1.163030
 77 15.128182 -0.000001 0.000002 0.089479 0.309197 0.659208
 78 5.758665 4.244731 -0.000000 -0.000000 0.000000 1.815142
 79 4.003934 -0.000000 -0.000000 0.000000 0.000000 0.000000
 80 15.708954 -0.000000 0.000002 0.042277 0.226871 0.443133
 81 0.273998 0.191090 3.439763 -3.130907 -0.000437 -1.508107
 82 17.210196 -0.000001 -0.000001 0.000000 -0.000000 -1.937080
 83 0.000001 -0.000001 5.000000 -0.079314 1.595025 -1.570739
time 4
  0 -0.650000 0.000000 33.899605 -0.025849 0.174554 -1.569172
  1 5.685104 0.833237 -32.227173 -0.174512 -0.026131 1.569196
  2 -2.276935 0.000003 -1.238189 -1.570795 -1.570451 0.000000
  3 1.795817 0.712098 -0.000359 0.110984 0.184402 -0.398820
  4 4.119582 -0.003112 -0.000336 0.103076 -0.108963 0.294163
  5 4.118651 -0.003257 -0.000378 0.116154 -0.108952 0.003393
  6 4.118313 -0.003246 -0.000360 0.110014 -0.063661 -0.096764
  7 4.120165 -0.002830 -0.001444 0.430597 -0.212706 0.406808
  8 4.443599 0.000001 0.000000 0.581996 0.254938 -0.441825
  9 9.024065 0.000000 0.000000 0.000000 0.000000 0.000000
 10 0.365785 0.710497 1.539070 0.967175 -1.134932 1.768102
 11 6.384776 0.000000 0.000003 -0.774777 0.288531 -0.892111
 12 10.242682 -0.000001 -0.000000 0.000000 0.000000 -1.568261
 13 11.375563 -0.000001 -0.000001 -3.093385 0.623001 0.279080
 14 0.728681 0.023432 -1.008291 2.396606 0.246960 1.180207
 15 2.136497 0.000001 0.000002 -0.000000 0.000000 -0.078540
 16 2.313140 0.000001 0.000001 0.000000 0.000000 0.000000
 17 3.115506 -0.886041 -0.021431 -0.166499 0.000392 0.514872
 18 2.011152 0.000001 -0.000002 0.000000 0.000000 1.322792
 19 2.141380 -0.000002 -0.000002 0.000000 0.000000 0.000000
 20 1.734173 0.000000 -0.000001 -0.000000 -0.000000 0.660693
 21 0.000007 -4.440594 -0.000001 1.570544 -0.062990 -0.195737
 22 6.000000 -0.000000 -0.000000 -2.769362 -0.000000 0.000000
 23 -0.000001 -4.440601 0.000001 1.569944 -0.062987 0.004053
 24 11.375562 -0.000000 0.000002 -2.313264 0.254933 0.288561
 25 0.000000 -4.440603 -0.000001 1.570144 -0.062988 0.004040
 26 10.510131 0.000000 -0.000001 0.000000 -0.000000 -2.354927
 27 0.000002 -1.748400 5.000000 0.000000 0.004007 1.602291
 28 5.499999 -0.000001 0.000001 0.257437 0.000000 0.000000
 29 -0.000003 -1.940598 5.000001 -0.044472 0.004003 -0.000180
 30 6.551491 -0.000000 0.000002 -0.483108 0.223832 -0.569678
 31 -0.000001 -1.940599 5.000003 -0.027189 -0.053376 0.005295
 32 6.551491 -0.000000 0.000002 -0.210960 0.140003 -0.253948
 33 0.000000 -1.940599 5.000000 -0.066572 -0.152786 -0.110311
 34 -0.365785 -0.703417 -1.539069 -1.498008 1.673007 1.188176
 35 6.384778 0.000000 0.000001 -0.246525 -1.000268 -0.837131
 36 10.242683 -0.000001 0.000001 -0.000000 0.000000 -1.526009
 37 11.375561 -0.000002 0.000001 1.861761 0.739154 -0.576912
 38 0.728679 0.023431 1.008292 -1.579583 -0.319038 0.212973
 39 2.136495 0.000001 0.000001 0.000000 0.000000 1.282817
 40 2.313138 -0.000002 -0.000000 0.000000 0.000000 3.141593
 41 3.115505 -0.886041 0.021430 0.708959 0.171755 0.347804
 42 2.011150 -0.000001 -0.000001 -0.000000 0.000000 2.082010
 43 2.141380 -0.000002 0.000000 0.000000 0.000000 3.141593
 44 1.734173 -0.000001 0.000001 -0.000000 0.000000 1.041748
 45 0.136316 -3.738193 2.525892 1.493698 2.759406 -1.474501
 46 5.613160 0.862366 3.157033 1.595152 -0.135386 0.061522
 47 11.389365 -0.000821 0.158781 1.760238 0.353722 -0.293643
 48 0.000001 -4.440600 0.000002 1.570144 -3.078602 0.004040
 49 5.999999 -0.000002 -0.000001 1.760238 -0.000000 -0.000000
 50 0.000002 -4.440603 0.000001 1.569944 -3.078603 0.004053
 51 10.510133 -0.000001 0.000001 0.000000 0.000000 -2.333801
 52 0.000000 -1.748402 -5.000000 -3.141593 0.004007 -1.539299
 53 5.500001 -0.000001 0.000000 0.140894 -0.000000 -0.000000
 54 0.000000 0.000000 -5.000002 -0.044472 3.137589 -0.000177
 55 6.551492 0.000000 0.000002 -0.140894 -0.293531 -0.222331
 56 -1.266843 -1.937444 -4.950560 -0.066572 -2.988806 -0.110308
 57 6.551492 0.000000 0.000002 -0.140894 -0.293531 -0.222331
 58 0.699371 -1.944209 -5.006848 -0.027189 -3.088217 0.005298
 59 4.226145 -0.003201 0.000000 0.178466 -0.065383 0.184153
 60 -0.000001 5.000001 -0.000000 -0.153564 0.000087 2.718702
 61 0.000004 -0.000004 -3.713580 0.365818 2.880119 -0.191589
 62 0.000003 -0.000000 5.000000 3.053196 1.558589 -0.074928
 63 -0.000007 0.000006 3.713580 -0.001619 -3.122277 -0.475127
 64 0.000001 -0.000000 -5.000000 -0.088724 1.558589 3.066337
 65 7.363602 1.646647 0.495663 3.141593 -1.570796 0.000000
 66 -0.000005 0.000007 3.619081 0.008255 -3.110080 -0.985231
 67 16.573919 0.000001 0.000000 0.000000 -0.000000 -1.065827
 68 15.128182 0.000000 -0.000000 -0.102296 0.010178 0.114297
 69 5.758666 4.244730 -0.000000 0.000000 -0.000000 1.667687
 70 3.177726 0.000000 0.000000 0.000000 0.000000 3.141593
 71 15.708953 0.000001 0.000000 -0.051525 0.003996 0.061523
 72 0.275148 0.189215 -3.445208 3.130898 0.000409 -1.514604
 73 17.210194 -0.000000 0.000000 0.000000 0.000000 -1.893339
 74 0.000000 0.000000 -4.999999 -0.079433 1.546568 -1.570859
 75 0.000002 -0.000003 -3.619081 0.577895 2.675801 -0.242118
 76 16.573923 -0.000001 -0.000001 0.000000 -0.000000 -1.163030
 77 15.128182 -0.000001 0.000002 0.089479 0.309197 0.659208
 78 5.758665 4.244731 -0.000000 -0.000000 0.000000 1.815142
 79 4.003934 -0.000000 -0.000000 0.000000 0.000000 0.000000
 80 15.708954 -0.000000 0.000002 0.042277 0.226871 0.443133
 81 0.273998 0.191090 3.439763 -3.130907 -0.000437 -1.508107
 82 17.210196 -0.000001 -0.000001 0.000000 -0.000000 -1.937080
 83 0.000001 -0.000001 5.000000 -0.079314 1.595025 -1.570739
time 5
  0 -0.650000 0.000000 33.899605 -0.025849 0.174554 -1.569172
  1 5.685104 0.833237 -32.227173 -0.174512 -0.026131 1.569196
  2 -2.276935 0.000003 -1.238189 -1.570795 -1.570451 0.000000
  3 1.795810 0.712100 -0.000355 0.109769 0.185932 -0.400072
  4 4.119581 -0.003113 -0.000332 0.101885 -0.109125 0.293919
  5 4.118657 -0.003257 -0.000374 0.114903 -0.109844 0.003102
  6 4.118308 -0.003247 -0.000355 0.108762 -0.064307 -0.097062
  7 4.120161 -0.002830 -0.001444 0.430597 -0.212705 0.406808
  8 4.443600 0.000000 -0.000000 0.586938 0.256563 -0.439487
  9 9.024063 0.000000 0.000000 0.000000 0.000000 0.000000
 10 0.365784 0.710497 1.539070 0.967175 -1.134932 1.768102
 11 6.384777 0.000000 0.000000 -0.772552 0.290301 -0.885140
 12 10.242682 0.000000 -0.000001 0.000000 0.000000 -1.570315
 13 11.375562 0.000001 -0.000002 -3.094351 0.622329 0.279333
 14 0.728681 0.023431 -1.008294 2.396606 0.246960 1.180207
 15 2.136494 0.000000 -0.000002 -0.000000 -0.000000 -0.078540
 16 2.313140 -0.000000 0.000001 0.000000 0.000000 0.000000
 17 3.115506 -0.886042 -0.021430 -0.166499 0.000392 0.514872
 18 2.011150 -0.000000 0.000000 0.000000 0.000000 1.322792
 19 2.141378 -0.000001 0.000001 0.000000 0.000000 0.000000
 20 1.734171 -0.000000 0.000001 0.000000 -0.000000 0.660693
 21 0.000003 -4.440594 -0.000000 1.570544 -0.062990 -0.195737
 22 6.000000 0.000001 -0.000002 -2.770260 0.000000 -0.000000
 23 -0.000000 -4.440601 0.000000 1.569944 -0.062987 0.004053
 24 11.375564 -0.000001 0.000001 -2.313792 0.254515 0.288688
 25 0.000001 -4.440603 -0.000001 1.570144 -0.062988 0.004040
 26 10.510130 0.000001 -0.000001 0.000000 -0.000000 -2.355953
 27 0.000003 -1.748401 5.000000 0.000000 0.004007 1.602291
 28 5.499999 0.000001 -0.000001 0.257110 -0.000000 -0.000000
 29 -0.000001 -1.940597 5.000001 -0.044472 0.004003 -0.000180
 30 6.551492 0.000000 -0.000000 -0.482319 0.224336 -0.566888
 31 -0.000001 -1.940600 5.000004 -0.027189 -0.053376 0.005295
 32 6.551492 0.000000 -0.000000 -0.210730 0.140071 -0.252746
 33 -0.000000 -1.940600 4.999996 -0.066572 -0.152786 -0.110311
 34 -0.365783 -0.703419 -1.539070 -1.498008 1.673007 1.188176
 35 6.384778 0.000000 0.000000 -0.242729 -1.001199 -0.844507
 36 10.242683 -0.000000 -0.000000 0.000000 0.000000 -1.520388
 37 11.375560 0.000002 -0.000001 1.865925 0.738214 -0.577620
 38 0.728681 0.023431 1.008292 -1.579583 -0.319038 0.212973
 39 2.136497 -0.000001 -0.000000 -0.000000 0.000000 1.282817
 40 2.313139 0.000000 -0.000000 0.000000 0.000000 3.141593
 41 3.115507 -0.886041 0.021431 0.708959 0.171755 0.347804
 42 2.011151 0.000002 0.000003 0.000000 0.000000 2.082010
 43 2.141379 0.000000 -0.000003 0.000000 0.000000 3.141593
 44 1.734172 -0.000000 0.000001 -0.000000 0.000000 1.041748
 45 0.136315 -3.738192 2.525893 1.493698 2.759406 -1.474501
 46 5.613160 0.862367 3.157029 1.595152 -0.135386 0.061522
 47 11.389366 -0.000818 0.158780 1.762135 0.352940 -0.294308
 48 0.000001 -4.440599 -0.000002 1.570144 -3.078602 0.004040
 49 5.999999 0.000001 -0.000001 1.762135 -0.000000 -0.000000
 50 0.000002 -4.440600 -0.000001 1.569944 -3.078603 0.004053
 51 10.510134 -0.000000 0.000000 0.000000 -0.000000 -2.330990
 52 -0.000000 -1.748399 -5.000000 -3.141593 0.004007 -1.539299
 53 5.500002 -0.000000 -0.000001 0.140642 0.000000 -0.000000
 54 -0.000002 0.000001 -5.000001 -0.044472 3.137589 -0.000177
 55 6.551492 0.000000 -0.000002 -0.140642 -0.293696 -0.223243
 56 -1.266844 -1.937443 -4.950562 -0.066572 -2.988806 -0.110308
 57 6.551493 0.000000 -0.000002 -0.140642 -0.293696 -0.223243
 58 0.699371 -1.944209 -5.006848 -0.027189 -3.088217 0.005298
 59 4.226143 -0.003201 0.000000 0.178466 -0.065383 0.184153
 60 0.000001 5.000001 0.000000 -0.153564 0.000087 2.718702
 61 0.000004 -0.000004 -3.713580 0.365818 2.880119 -0.191589
 62 0.000003 -0.000000 5.000000 3.053196 1.558589 -0.074928
 63 -0.000007 0.000006 3.713580 -0.001619 -3.122277 -0.475127
 64 0.000001 -0.000000 -5.000000 -0.088724 1.558589 3.066337
 65 7.363602 1.646647 0.495663 3.141593 -1.570796 0.000000
 66 -0.000005 0.000007 3.619081 0.008255 -3.110080 -0.985231
 67 16.573919 0.000001 0.000000 0.000000 -0.000000 -1.065827
 68 15.128182 0.000000 -0.000000 -0.102296 0.010178 0.114297
 69 5.758666 4.244730 -0.000000 0.000000 -0.000000 1.667687
 70 3.177726 0.000000 0.000000 0.000000 0.000000 3.141593
 71 15.708953 0.000001 0.000000 -0.051525 0.003996 0.061523
 72 0.275148 0.189215 -3.445208 3.130898 0.000409 -1.514604
 73 17.210194 -0.000000 0.000000 0.000000 0.000000 -1.893339
 74 0.000000 0.000000 -4.999999 -0.079433 1.546568 -1.570859
 75 0.000002 -0.000003 -3.619081 0.577895 2.675801 -0.242118
 76 16.573923 -0.000001 -0.000001 0.000000 -0.000000 -1.163030
 77 15.128182 -0.000001 0.000002 0.089479 0.309197 0.659208
 78 5.758665 4.244731 -0.000000 -0.000000 0.000000 1.815142
 79 4.003934 -0.000000 -0.000000 0.000000 0.000000 0.000000
 80 15.708954 -0.000000 0.000002 0.042277 0.226871 0.443133
 81 0.273998 0.191090 3.439763 -3.130907 -0.000437 -1.508107
 82 17.210196 -0.000001 -0.000001 0.000000 -0.000000 -1.937080
 83 0.000001 -0.000001 5.000000 -0.079314 1.595025 -1.570739
time 6
  0 -0.650000 0.000000 33.899605 -0.025849 0.174554 -1.569172
  1 5.685104 0.833237 -32.227173 -0.174512 -0.026131 1.569196
  2 -2.276935 0.000003 -1.238189 -1.570795 -1.570451 0.000000
  3 1.795817 0.712098 -0.000359 0.110984 0.184402 -0.398820
  4 4.119581 -0.003112 -0.000336 0.103076 -0.108963 0.294163
  5 4.118651 -0.003257 -0.000378 0.116154 -0.108952 0.003393
  6 4.118309 -0.003246 -0.000359 0.110014 -0.063661 -0.096764
  7 4.120165 -0.002830 -0.001444 0.430597 -0.212705 0.406808
  8 4.443600 0.000001 0.000000 0.581996 0.254938 -0.441825
  9 9.024065 -0.000000 -0.000000 0.000000 0.000000 0.000000
 10 0.365785 0.710496 1.539070 0.967175 -1.134931 1.768102
 11 6.384778 0.000000 0.000001 -0.774777 0.288531 -0.892111
 12 10.242682 -0.000001 -0.000002 0.000000 0.000000 -1.568261
 13 11.375564 -0.000000 -0.000002 -3.093385 0.623001 0.279080
 14 0.728681 0.023431 -1.008289 2.396606 0.246960 1.180207
 15 2.136498 -0.000000 -0.000003 -0.000000 -0.000000 -0.078540
 16 2.313138 -0.000001 0.000001 0.000000 0.000000 0.000000
 17 3.115506 -0.886042 -0.021429 -0.166499 0.000392 0.514872
 18 2.011151 0.000001 -0.000003 0.000000 0.000000 1.322792
 19 2.141379 -0.000001 0.000000 0.000000 0.000000 0.000000
 20 1.734172 0.000001 -0.000003 -0.000000 0.000000 0.660693
 21 0.000004 -4.440594 0.000000 1.570544 -0.062990 -0.195737
 22 6.000001 -0.000001 -0.000001 -2.769362 0.000000 0.000000
 23 0.000002 -4.440601 -0.000001 1.569944 -0.062987 0.004053
 24 11.375563 0.000000 0.000002 -2.313264 0.254933 0.288561
 25 -0.000001 -4.440603 -0.000000 1.570144 -0.062988 0.004040
 26 10.510131 -0.000001 -0.000002 0.000000 0.000000 -2.354927
 27 0.000002 -1.748401 5.000000 -0.000000 0.004007 1.602291
 28 5.500000 -0.000001 -0.000002 0.257437 -0.000000 -0.000000
 29 -0.000002 -1.940597 5.000001 -0.044472 0.004003 -0.000180
 30 6.551491 0.000000 0.000002 -0.483108 0.223832 -0.569678
 31 0.000000 -1.940599 5.000001 -0.027189 -0.053376 0.005295
 32 6.551491 0.000000 0.000002 -0.210960 0.140003 -0.253948
 33 0.000000 -1.940599 4.999997 -0.066572 -0.152786 -0.110311
 34 -0.365784 -0.703418 -1.539069 -1.498008 1.673007 1.188176
 35 6.384778 0.000000 0.000001 -0.246526 -1.000268 -0.837130
 36 10.242684 -0.000002 -0.000000 0.000000 -0.000000 -1.526009
 37 11.375562 -0.000000 0.000000 1.861761 0.739154 -0.576912
 38 0.728680 0.023431 1.008293 -1.579583 -0.319038 0.212973
 39 2.136494 0.000001 0.000000 0.000000 0.000000 1.282817
 40 2.313139 -0.000001 0.000000 0.000000 0.000000 3.141593
 41 3.115505 -0.886041 0.021431 0.708959 0.171755 0.347804
 42 2.011150 -0.000001 -0.000003 0.000000 0.000000 2.082010
 43 2.141380 -0.000001 0.000002 0.000000 0.000000 3.141593
 44 1.734172 -0.000001 -0.000001 -0.000000 0.000000 1.041748
 45 0.136314 -3.738193 2.525892 1.493698 2.759406 -1.474501
 46 5.613160 0.862366 3.157033 1.595152 -0.135386 0.061522
 47 11.389367 -0.000820 0.158781 1.760238 0.353722 -0.293643
 48 0.000000 -4.440598 -0.000001 1.570144 -3.078602 0.004040
 49 6.000000 -0.000001 -0.000001 1.760238 -0.000000 -0.000000
 50 0.000003 -4.440600 -0.000001 1.569944 -3.078603 0.004053
 51 10.510134 -0.000001 -0.000000 0.000000 0.000000 -2.333801
 52 -0.000000 -1.748399 -5.000002 -3.141593 0.004007 -1.539299
 53 5.500002 -0.000001 -0.000000 0.140894 0.000000 0.000000
 54 0.000000 0.000000 -5.000002 -0.044472 3.137589 -0.000177
 55 6.551491 0.000000 0.000002 -0.140894 -0.293531 -0.222331
 56 -1.266843 -1.937444 -4.950561 -0.066572 -2.988806 -0.110308
 57 6.551492 0.000000 0.000002 -0.140894 -0.293531 -0.222331
 58 0.699371 -1.944208 -5.006849 -0.027189 -3.088217 0.005298
 59 4.226145 -0.003201 0.000000 0.178466 -0.065383 0.184153
 60 -0.000001 5.000000 0.000000 -0.153564 0.000087 2.718702
 61 0.000004 -0.000004 -3.713580 0.365818 2.880119 -0.191589
 62 0.000003 -0.000000 5.000000 3.053196 1.558589 -0.074928
 63 -0.000007 0.000006 3.713580 -0.001619 -3.122277 -0.475127
 64 0.000001 -0.000000 -5.000000 -0.088724 1.558589 3.066337
 65 7.363602 1.646647 0.495663 3.141593 -1.570796 0.000000
 66 -0.000005 0.000007 3.619081 0.008255 -3.110080 -0.985231
 67 16.573919 0.000001 0.000000 0.000000 -0.000000 -1.065827
 68 15.128182 0.000000 -0.000000 -0.102296 0.010178 0.114297
 69 5.758666 4.244730 -0.000000 0.000000 -0.000000 1.667687
 70 3.177726 0.000000 0.000000 0.000000 0.000000 3.141593
 71 15.708953 0.000001 0.000000 -0.051525 0.003996 0.061523
 72 0.275148 0.189215 -3.445208 3.130898 0.000409 -1.514604
 73 17.210194 -0.000000 0.000000 0.000000 0.000000 -1.893339
 74 0.000000 0.000000 -4.999999 -0.079433 1.546568 -1.570859
 75 0.000002 -0.000003 -3.619081 0.577895 2.675801 -0.242118
 76 16.573923 -0.000001 -0.000001 0.000000 -0.000000 -1.163030
 77 15.128182 -0.000001 0.000002 0.089479 0.309197 0.659208
 78 5.758665 4.244731 -0.000000 -0.000000 0.000000 1.815142
 79 4.003934 -0.000000 -0.000000 0.000000 0.000000 0.000000
 80 15.708954 -0.000000 0.000002 0.042277 0.226871 0.443133
 81 0.273998 0.191090 3.439763 -3.130907 -0.000437 -1.508107
 82 17.210196 -0.000001 -0.000001 0.000000 -0.000000 -1.937080
 83 0.000001 -0.000001 5.000000 -0.079314 1.595025 -1.570739
time 7
  0 -0.650000 0.000000 33.899605 -0.025849 0.174554 -1.569172
  1 5.685104 0.833237 -32.227173 -0.174512 -0.026131 1.569196
  2 -2.276935 0.000003 -1.238189 -1.570795 -1.570451 0.000000
  3 1.795824 0.712096 -0.000369 0.114078 0.180487 -0.395631
  4 4.119590 -0.003109 -0.000345 0.106122 -0.108549 0.294788
  5 4.118655 -0.003256 -0.000388 0.119351 -0.106675 0.004141
  6 4.118314 -0.003246 -0.000370 0.113215 -0.062014 -0.095998
  7 4.120162 -0.002830 -0.001444 0.430597 -0.212706 0.406808
  8 4.443598 0.000001 0.000000 0.569407 0.250698 -0.447772
  9 9.024061 0.000000 0.000001 0.000000 0.000000 0.000000
 10 0.365785 0.710496 1.539070 0.967175 -1.134932 1.768102
 11 6.384778 0.000000 0.000001 -0.780500 0.283990 -0.909839
 12 10.242681 -0.000000 -0.000001 0.000000 0.000000 -1.563040
 13 11.375562 0.000000 -0.000000 -3.090921 0.624742 0.278389
 14 0.728680 0.023430 -1.008292 2.396606 0.246960 1.180207
 15 2.136501 0.000000 -0.000001 -0.000000 -0.000000 -0.078540
 16 2.313139 -0.000000 -0.000002 0.000000 0.000000 0.000000
 17 3.115507 -0.886042 -0.021431 -0.166499 0.000392 0.514872
 18 2.011148 -0.000001 -0.000001 0.000000 0.000000 1.322791
 19 2.141380 0.000000 -0.000000 0.000000 0.000000 0.000000
 20 1.734172 0.000001 -0.000002 -0.000000 -0.000000 0.660693
 21 0.000004 -4.440594 -0.000002 1.570544 -0.062990 -0.195737
 22 5.999999 -0.000000 -0.000001 -2.767068 -0.000000 -0.000000
 23 -0.000000 -4.440601 0.000000 1.569944 -0.062987 0.004053
 24 11.375560 -0.000000 0.000001 -2.311909 0.256022 0.288217
 25 -0.000001 -4.440604 -0.000002 1.570144 -0.062988 0.004040
 26 10.510130 0.000001 -0.000002 0.000000 -0.000000 -2.352316
 27 -0.000002 -1.748401 5.000000 0.000000 0.004007 1.602290
 28 5.500000 0.000000 -0.000001 0.258315 0.000000 -0.000000
 29 -0.000002 -1.940598 4.999999 -0.044472 0.004003 -0.000180
 30 6.551492 -0.000000 0.000002 -0.485219 0.222610 -0.576813
 31 0.000002 -1.940598 5.000001 -0.027189 -0.053376 0.005295
 32 6.551492 0.000000 0.000002 -0.211581 0.139866 -0.257003
 33 0.000001 -1.940599 4.999998 -0.066572 -0.152786 -0.110311
 34 -0.365781 -0.703420 -1.539070 -1.498009 1.673007 1.188176
 35 6.384777 0.000000 0.000002 -0.256097 -0.997830 -0.818416
 36 10.242684 0.000000 0.000000 -0.000000 -0.000000 -1.540356
 37 11.375562 0.000002 0.000003 1.851063 0.741483 -0.575141
 38 0.728680 0.023432 1.008291 -1.579583 -0.319038 0.212973
 39 2.136498 0.000000 0.000000 0.000000 0.000000 1.282817
 40 2.313139 0.000002 0.000001 0.000000 0.000000 3.141593
 41 3.115506 -0.886041 0.021431 0.708959 0.171755 0.347804
 42 2.011150 0.000000 0.000003 -0.000000 0.000000 2.082010
 43 2.141380 0.000000 -0.000001 0.000000 0.000000 3.141593
 44 1.734172 -0.000002 -0.000000 0.000000 0.000000 1.041748
 45 0.136314 -3.738193 2.525890 1.493698 2.759406 -1.474501
 46 5.613159 0.862367 3.157030 1.595152 -0.135386 0.061522
 47 11.389366 -0.000818 0.158784 1.755374 0.355672 -0.291962
 48 -0.000000 -4.440599 -0.000000 1.570144 -3.078602 0.004040
 49 5.999999 0.000000 0.000000 1.755374 -0.000000 -0.000000
 50 0.000003 -4.440601 -0.000003 1.569944 -3.078603 0.004053
 51 10.510133 0.000000 0.000002 0.000000 0.000000 -2.340975
 52 0.000001 -1.748402 -5.000002 -3.141593 0.004007 -1.539299
 53 5.500000 0.000000 0.000001 0.141530 0.000000 0.000000
 54 -0.000002 0.000001 -5.000001 -0.044472 3.137590 -0.000177
 55 6.551491 0.000000 0.000000 -0.141530 -0.293124 -0.220018
 56 -1.266844 -1.937443 -4.950562 -0.066572 -2.988806 -0.110308
 57 6.551491 0.000001 0.000000 -0.141530 -0.293124 -0.220018
 58 0.699370 -1.944209 -5.006849 -0.027189 -3.088217 0.005298
 59 4.226148 -0.003201 -0.000000 0.178466 -0.065383 0.184153
 60 0.000003 5.000001 0.000000 -0.153564 0.000087 2.718702
 61 0.000004 -0.000004 -3.713580 0.365818 2.880119 -0.191589
 62 0.000003 -0.000000 5.000000 3.053196 1.558589 -0.074928
 63 -0.000007 0.000006 3.713580 -0.001619 -3.122277 -0.475127
 64 0.000001 -0.000000 -5.000000 -0.088724 1.558589 3.066337
 65 7.363602 1.646647 0.495663 3.141593 -1.570796 0.000000
 66 -0.000005 0.000007 3.619081 0.008255 -3.110080 -0.985231
 67 16.573919 0.000001 0.000000 0.000000 -0.000000 -1.065827
 68 15.128182 0.000000 -0.000000 -0.102296 0.010178 0.114297
 69 5.758666 4.244730 -0.000000 0.000000 -0.000000 1.667687
 70 3.177726 0.000000 0.000000 0.000000 0.000000 3.141593
 71 15.708953 0.000001 0.000000 -0.051525 0.003996 0.061523
 72 0.275148 0.189215 -3.445208 3.130898 0.000409 -1.514604
 73 17.210194 -0.000000 0.000000 0.000000 0.000000 -1.893339
 74 0.000000 0.000000 -4.999999 -0.079433 1.546568 -1.570859
 75 0.000002 -0.000003 -3.619081 0.577895 2.675801 -0.242118
 76 16.573923 -0.000001 -0.000001 0.000000 -0.000000 -1.163030
 77 15.128182 -0.000001 0.000002 0.089479 0.309197 0.659208
 78 5.758665 4.244731 -0.000000 -0.000000 0.000000 1.815142
 79 4.003934 -0.000000 -0.000000 0.000000 0.000000 0.000000
 80 15.708954 -0.000000 0.000002 0.042277 0.226871 0.443133
 81 0.273998 0.191090 3.439763 -3.130907 -0.000437 -1.508107
 82 17.210196 -0.000001 -0.000001 0.000000 -0.000000 -1.937080
 83 0.000001 -0.000001 5.000000 -0.079314 1.595025 -1.570739
time 8
  0 -0.650000 0.000000 33.899605 -0.025849 0.174554 -1.569172
  1 5.685104 0.833237 -32.227173 -0.174512 -0.026131 1.569196
  2 -2.276935 0.000003 -1.238189 -1.570795 -1.570451 0.000000
  3 1.795839 0.712091 -0.000383 0.118226 0.175194 -0.391356
  4 4.119588 -0.003108 -0.000359 0.110228 -0.107995 0.295633
  5 4.118663 -0.003254 -0.000402 0.123662 -0.103610 0.005161
  6 4.118313 -0.003244 -0.000383 0.117531 -0.059797 -0.094959
  7 4.120167 -0.002830 -0.001444 0.430597 -0.212705 0.406808
  8 4.443598 0.000002 0.000000 0.552534 0.244790 -0.455717
  9 9.024064 0.000000 0.000000 0.000000 0.000000 0.000000
 10 0.365784 0.710498 1.539070 0.967175 -1.134932 1.768102
 11 6.384778 -0.000000 -0.000003 -0.788288 0.277828 -0.933528
 12 10.242681 0.000000 -0.000000 0.000000 -0.000000 -1.556075
 13 11.375564 -0.000001 -0.000001 -3.087612 0.627143 0.277357
 14 0.728680 0.023431 -1.008293 2.396606 0.246960 1.180207
 15 2.136498 -0.000001 0.000002 0.000000 -0.000000 -0.078540
 16 2.313140 0.000001 -0.000002 0.000000 0.000000 0.000000
 17 3.115507 -0.886041 -0.021433 -0.166499 0.000392 0.514872
 18 2.011148 -0.000002 0.000002 0.000000 -0.000000 1.322792
 19 2.141381 -0.000000 0.000001 0.000000 0.000000 0.000000
 20 1.734172 0.000000 0.000002 -0.000000 0.000000 0.660693
 21 0.000004 -4.440594 0.000001 1.570544 -0.062990 -0.195737
 22 6.000003 -0.000001 0.000001 -2.763976 0.000000 -0.000000
 23 0.000001 -4.440601 0.000000 1.569944 -0.062987 0.004053
 24 11.375563 -0.000000 0.000002 -2.310075 0.257535 0.287713
 25 0.000002 -4.440603 -0.000002 1.570144 -0.062988 0.004040
 26 10.510130 0.000001 -0.000001 -0.000000 -0.000000 -2.348834
 27 0.000000 -1.748401 5.000000 0.000000 0.004007 1.602291
 28 5.500000 0.000002 -0.000001 0.259593 0.000000 0.000000
 29 -0.000002 -1.940598 5.000001 -0.044472 0.004003 -0.000180
 30 6.551491 -0.000000 -0.000001 -0.488273 0.221105 -0.586462
 31 0.000001 -1.940598 5.000002 -0.027189 -0.053376 0.005295
 32 6.551491 0.000000 -0.000001 -0.212489 0.139767 -0.261090
 33 0.000001 -1.940599 4.999995 -0.066572 -0.152786 -0.110311
 34 -0.365784 -0.703417 -1.539070 -1.498009 1.673007 1.188175
 35 6.384777 0.000001 0.000000 -0.268694 -0.994422 -0.793504
 36 10.242681 0.000001 -0.000001 0.000000 0.000000 -1.559656
 37 11.375562 0.000002 0.000001 1.836521 0.744456 -0.572836
 38 0.728682 0.023431 1.008294 -1.579583 -0.319038 0.212973
 39 2.136497 0.000001 0.000000 0.000000 0.000000 1.282817
 40 2.313140 0.000002 0.000001 0.000000 0.000000 3.141593
 41 3.115507 -0.886040 0.021430 0.708959 0.171755 0.347804
 42 2.011150 0.000000 0.000002 0.000000 -0.000000 2.082010
 43 2.141379 -0.000000 0.000002 0.000000 0.000000 3.141593
 44 1.734172 -0.000001 0.000002 0.000000 0.000000 1.041748
 45 0.136315 -3.738193 2.525892 1.493698 2.759406 -1.474501
 46 5.613160 0.862367 3.157030 1.595152 -0.135386 0.061522
 47 11.389366 -0.000818 0.158782 1.748781 0.358192 -0.289729
 48 0.000000 -4.440600 -0.000000 1.570144 -3.078602 0.004040
 49 5.999999 -0.000000 -0.000001 1.748781 -0.000000 -0.000000
 50 0.000001 -4.440601 -0.000000 1.569944 -3.078603 0.004053
 51 10.510129 0.000001 -0.000000 0.000000 -0.000000 -2.350624
 52 -0.000000 -1.748402 -5.000002 3.141593 0.004007 -1.539299
 53 5.499998 0.000001 -0.000001 0.142368 -0.000000 -0.000000
 54 0.000001 0.000001 -5.000000 -0.044472 3.137589 -0.000177
 55 6.551491 0.000001 0.000001 -0.142368 -0.292603 -0.216941
 56 -1.266844 -1.937444 -4.950561 -0.066572 -2.988806 -0.110308
 57 6.551491 0.000001 0.000001 -0.142368 -0.292603 -0.216941
 58 0.699370 -1.944208 -5.006846 -0.027189 -3.088217 0.005298
 59 4.226149 -0.003201 -0.000000 0.178466 -0.065383 0.184153
 60 0.000003 5.000000 -0.000000 -0.153564 0.000087 2.718702
 61 0.000004 -0.000004 -3.713580 0.365818 2.880119 -0.191589
 62 0.000003 -0.000000 5.000000 3.053196 1.558589 -0.074928
 63 -0.000007 0.000006 3.713580 -0.001619 -3.122277 -0.475127
 64 0.000001 -0.000000 -5.000000 -0.088724 1.558589 3.066337
 65 7.363602 1.646647 0.495663 3.141593 -1.570796 0.000000
 66 -0.000005 0.000007 3.619081 0.008255 -3.110080 -0.985231
 67 16.573919 0.000001 0.000000 0.000000 -0.000000 -1.065827
 68 15.128182 0.000000 -0.000000 -0.102296 0.010178 0.114297
 69 5.758666 4.244730 -0.000000 0.000000 -0.000000 1.667687
 70 3.177726 0.000000 0.000000 0.000000 0.000000 3.141593
 71 15.708953 0.000001 0.000000 -0.051525 0.003996 0.061523
 72 0.275148 0.189215 -3.445208 3.130898 0.000409 -1.514604
 73 17.210194 -0.000000 0.000000 0.000000 0.000000 -1.893339
 74 0.000000 0.000000 -4.999999 -0.079433 1.546568 -1.570859
 75 0.000002 -0.000003 -3.619081 0.577895 2.675801 -0.242118
 76 16.573923 -0.000001 -0.000001 0.000000 -0.000000 -1.163030
 77 15.128182 -0.000001 0.000002 0.089479 0.309197 0.659208
 78 5.758665 4.244731 -0.000000 -0.000000 0.000000 1.815142
 79 4.003934 -0.000000 -0.000000 0.000000 0.000000 0.000000
 80 15.708954 -0.000000 0.000002 0.042277 0.226871 0.443133
 81 0.273998 0.191090 3.439763 -3.130907 -0.000437 -1.508107
 82 17.210196 -0.000001 -0.000001 0.000000 -0.000000 -1.937080
 83 0.000001 -0.000001 5.000000 -0.079314 1.595025 -1.570739
time 9
  0 -0.650000 0.000000 33.899605 -0.025849 0.174554 -1.569172
  1 5.685104 0.833237 -32.227173 -0.174512 -0.026131 1.569196
  2 -2.276935 0.000003 -1.238189 -1.570795 -1.570451 0.000000
  3 1.795849 0.712088 -0.000397 0.122611 0.169541 -0.386834
  4 4.119599 -0.003103 -0.000373 0.114598 -0.107408 0.296534
  5 4.118664 -0.003252 -0.000417 0.128253 -0.100353 0.006261
  6 4.118320 -0.003243 -0.000399 0.122127 -0.057442 -0.093841
  7 4.120163 -0.002830 -0.001444 0.430597 -0.212706 0.406808
  8 4.443602 0.000001 -0.000001 0.534697 0.238259 -0.464082
  9 9.024063 -0.000000 -0.000000 0.000000 0.000000 0.000000
 10 0.365787 0.710496 1.539069 0.967175 -1.134932 1.768102
 11 6.384777 0.000001 -0.000001 -0.796672 0.271215 -0.958483
 12 10.242682 0.000001 -0.000001 0.000000 0.000000 -1.548760
 13 11.375562 0.000001 -0.000002 -3.084106 0.629768 0.276140
 14 0.728680 0.023430 -1.008293 2.396606 0.246960 1.180207
 15 2.136493 -0.000001 -0.000001 -0.000000 0.000000 -0.078540
 16 2.313141 0.000000 -0.000001 0.000000 0.000000 0.000000
 17 3.115506 -0.886040 -0.021433 -0.166499 0.000392 0.514872
 18 2.011151 -0.000000 -0.000002 0.000000 0.000000 1.322791
 19 2.141380 -0.000001 -0.000001 0.000000 0.000000 0.000000
 20 1.734172 0.000000 0.000000 0.000000 0.000000 0.660693
 21 0.000003 -4.440594 -0.000000 1.570544 -0.062990 -0.195737
 22 6.000001 -0.000000 -0.000001 -2.760683 0.000000 0.000000
 23 0.000002 -4.440601 -0.000000 1.569944 -0.062987 0.004053
 24 11.375565 -0.000000 0.000002 -2.308111 0.259202 0.287128
 25 -0.000001 -4.440604 0.000001 1.570144 -0.062988 0.004040
 26 10.510130 0.000000 -0.000001 -0.000000 -0.000000 -2.345176
 27 0.000000 -1.748401 5.000000 -0.000000 0.004007 1.602290
 28 5.500001 0.000002 -0.000001 0.261068 0.000000 0.000000
 29 -0.000002 -1.940598 5.000002 -0.044472 0.004003 -0.000180
 30 6.551490 0.000001 -0.000001 -0.491787 0.219665 -0.596805
 31 0.000000 -1.940598 5.000000 -0.027189 -0.053376 0.005295
 32 6.551490 0.000001 -0.000001 -0.213542 0.139764 -0.265417
 33 0.000000 -1.940599 4.999994 -0.066572 -0.152786 -0.110311
 34 -0.365781 -0.703417 -1.539070 -1.498008 1.673007 1.188176
 35 6.384777 -0.000001 -0.000002 -0.281715 -0.990647 -0.767386
 36 10.242684 0.000000 -0.000000 0.000000 0.000000 -1.580151
 37 11.375563 0.000001 -0.000000 1.820890 0.747407 -0.570479
 38 0.728682 0.023431 1.008294 -1.579583 -0.319038 0.212973
 39 2.136496 0.000002 -0.000000 0.000000 0.000000 1.282817
 40 2.313139 0.000002 0.000000 0.000000 0.000000 3.141593
 41 3.115508 -0.886041 0.021433 0.708959 0.171755 0.347804
 42 2.011150 0.000000 0.000001 -0.000000 0.000000 2.082010
 43 2.141380 -0.000001 0.000001 0.000000 0.000000 3.141593
 44 1.734171 -0.000002 -0.000001 0.000000 0.000000 1.041748
 45 0.136315 -3.738192 2.525888 1.493698 2.759406 -1.474501
 46 5.613161 0.862367 3.157034 1.595152 -0.135386 0.061522
 47 11.389367 -0.000818 0.158782 1.741717 0.360737 -0.287390
 48 0.000000 -4.440600 0.000000 1.570144 -3.078602 0.004040
 49 6.000001 0.000001 0.000001 1.741717 0.000000 0.000000
 50 0.000002 -4.440601 -0.000002 1.569944 -3.078603 0.004053
 51 10.510133 0.000001 -0.000001 0.000000 -0.000000 -2.360872
 52 -0.000001 -1.748400 -5.000001 -3.141593 0.004007 -1.539299
 53 5.500001 0.000001 -0.000000 0.143239 0.000000 0.000000
 54 -0.000001 -0.000001 -4.999999 -0.044472 3.137589 -0.000177
 55 6.551491 -0.000001 -0.000002 -0.143239 -0.292084 -0.213712
 56 -1.266843 -1.937443 -4.950562 -0.066572 -2.988806 -0.110308
 57 6.551491 -0.000001 -0.000001 -0.143239 -0.292084 -0.213712
 58 0.699371 -1.944209 -5.006847 -0.027189 -3.088217 0.005298
 59 4.226147 -0.003201 -0.000000 0.178466 -0.065383 0.184153
 60 -0.000001 5.000002 -0.000000 -0.153564 0.000087 2.718702
 61 0.000004 -0.000004 -3.713580 0.365818 2.880119 -0.191589
 62 0.000003 -0.000000 5.000000 3.053196 1.558589 -0.074928
 63 -0.000007 0.000006 3.713580 -0.001619 -3.122277 -0.475127
 64 0.000001 -0.000000 -5.000000 -0.088724 1.558589 3.066337
 65 7.363602 1.646647 0.495663 3.141593 -1.570796 0.000000
 66 -0.000005 0.000007 3.619081 0.008255 -3.110080 -0.985231
 67 16.573919 0.000001 0.000000 0.000000 -0.000000 -1.065827
 68 15.128182 0.000000 -0.000000 -0.102296 0.010178 0.114297
 69 5.758666 4.244730 -0.000000 0.000000 -0.000000 1.667687
 70 3.177726 0.000000 0.000000 0.000000 0.000000 3.141593
 71 15.708953 0.000001 0.000000 -0.051525 0.003996 0.061523
 72 0.275148 0.189215 -3.445208 3.130898 0.000409 -1.514604
 73 17.210194 -0.000000 0.000000 0.000000 0.000000 -1.893339
 74 0.000000 0.000000 -4.999999 -0.079433 1.546568 -1.570859
 75 0.000002 -0.000003 -3.619081 0.577895 2.675801 -0.242118
 76 16.573923 -0.000001 -0.000001 0.000000 -0.000000 -1.163030
 77 15.128182 -0.000001 0.000002 0.089479 0.309197 0.659208
 78 5.758665 4.244731 -0.000000 -0.000000 0.000000 1.815142
 79 4.003934 -0.000000 -0.000000 0.000000 0.000000 0.000000
 80 15.708954 -0.000000 0.000002 0.042277 0.226871 0.443133
 81 0.273998 0.191090 3.439763 -3.130907 -0.000437 -1.508107
 82 17.210196 -0.000001 -0.000001 0.000000 -0.000000 -1.937080
 83 0.000001 -0.000001 5.000000 -0.079314 1.595025 -1.570739
time 10
  0 -0.650000 0.000000 33.899605 -0.025849 0.174554 -1.569172
  1 5.685104 0.833237 -32.227173 -0.174512 -0.026131 1.569196
  2 -2.276935 0.000003 -1.238189 -1.570795 -1.570451 0.000000
  3 1.795864 0.712084 -0.000410 0.126440 0.164557 -0.382885
  4 4.119600 -0.003102 -0.000385 0.118439 -0.106896 0.297328
  5 4.118667 -0.003251 -0.000431 0.132289 -0.097494 0.007239
  6 4.118322 -0.003241 -0.000412 0.126167 -0.055377 -0.092851
  7 4.120162 -0.002830 -0.001444 0.430597 -0.212706 0.406808
  8 4.443598 0.000001 -0.000000 0.519130 0.232315 -0.471350
  9 9.024062 0.000000 0.000000 0.000000 0.000000 0.000000
 10 0.365784 0.710496 1.539069 0.967175 -1.134932 1.768102
 11 6.384778 -0.000000 0.000001 -0.804116 0.265359 -0.980187
 12 10.242682 0.000001 -0.000001 0.000000 0.000000 -1.542424
 13 11.375562 0.000001 -0.000000 -3.081041 0.632134 0.274974
 14 0.728680 0.023431 -1.008291 2.396606 0.246960 1.180207
 15 2.136498 -0.000001 0.000002 -0.000000 -0.000000 -0.078540
 16 2.313139 0.000000 0.000000 0.000000 0.000000 0.000000
 17 3.115506 -0.886040 -0.021431 -0.166499 0.000392 0.514872
 18 2.011150 -0.000000 -0.000002 0.000000 -0.000000 1.322791
 19 2.141380 -0.000001 -0.000002 0.000000 0.000000 0.000000
 20 1.734172 0.000000 -0.000002 0.000000 -0.000000 0.660693
 21 0.000007 -4.440594 -0.000001 1.570544 -0.062990 -0.195737
 22 6.000002 -0.000001 0.000001 -2.757792 0.000000 -0.000000
 23 0.000001 -4.440601 0.000001 1.569944 -0.062987 0.004053
 24 11.375564 -0.000002 0.000003 -2.306377 0.260713 0.286578
 25 0.000000 -4.440605 0.000003 1.570144 -0.062988 0.004040
 26 10.510132 0.000003 -0.000002 0.000000 -0.000000 -2.342008
 27 0.000000 -1.748401 5.000000 0.000000 0.004007 1.602290
 28 5.500000 0.000001 -0.000000 0.262461 0.000000 0.000000
 29 -0.000001 -1.940597 4.999998 -0.044472 0.004003 -0.000180
 30 6.551492 0.000000 0.000002 -0.495098 0.218526 -0.605982
 31 0.000000 -1.940599 5.000002 -0.027189 -0.053376 0.005295
 32 6.551492 0.000000 0.000002 -0.214540 0.139842 -0.269210
 33 -0.000001 -1.940598 4.999997 -0.066572 -0.152786 -0.110311
 34 -0.365786 -0.703417 -1.539070 -1.498009 1.673006 1.188175
 35 6.384778 0.000000 -0.000001 -0.292821 -0.987211 -0.744781
 36 10.242683 0.000000 -0.000001 0.000000 0.000000 -1.598123
 37 11.375561 0.000000 0.000000 1.807033 0.749817 -0.568477
 38 0.728680 0.023431 1.008293 -1.579583 -0.319038 0.212973
 39 2.136496 -0.000001 -0.000001 -0.000000 0.000000 1.282817
 40 2.313139 0.000001 0.000000 0.000000 0.000000 3.141593
 41 3.115507 -0.886042 0.021434 0.708959 0.171755 0.347804
 42 2.011151 0.000001 0.000003 -0.000000 0.000000 2.082010
 43 2.141379 -0.000001 -0.000002 0.000000 0.000000 3.141593
 44 1.734172 -0.000000 0.000002 -0.000000 -0.000000 1.041748
 45 0.136315 -3.738194 2.525892 1.493698 2.759406 -1.474501
 46 5.613160 0.862366 3.157033 1.595152 -0.135386 0.061522
 47 11.389367 -0.000818 0.158782 1.735470 0.362857 -0.285363
 48 0.000001 -4.440599 0.000001 1.570144 -3.078602 0.004040
 49 6.000000 0.000001 0.000001 1.735470 -0.000000 0.000000
 50 0.000002 -4.440600 -0.000002 1.569944 -3.078603 0.004053
 51 10.510132 0.000001 -0.000001 0.000000 0.000000 -2.369858
 52 0.000001 -1.748402 -5.000001 3.141593 0.004007 -1.539299
 53 5.500003 -0.000000 0.000000 0.143987 0.000000 0.000000
 54 0.000002 -0.000000 -5.000000 -0.044472 3.137590 -0.000177
 55 6.551492 0.000000 -0.000001 -0.143987 -0.291655 -0.210909
 56 -1.266843 -1.937443 -4.950558 -0.066572 -2.988806 -0.110308
 57 6.551492 -0.000000 -0.000001 -0.143987 -0.291655 -0.210909
 58 0.699371 -1.944208 -5.006845 -0.027189 -3.088217 0.005298
 59 4.226146 -0.003201 -0.000000 0.178466 -0.065383 0.184153
 60 -0.000000 5.000001 0.000000 -0.153565 0.000087 2.718702
 61 0.000004 -0.000004 -3.713580 0.365818 2.880119 -0.191589
 62 0.000003 -0.000000 5.000000 3.053196 1.558589 -0.074928
 63 -0.000007 0.000006 3.713580 -0.001619 -3.122277 -0.475127
 64 0.000001 -0.000000 -5.000000 -0.088724 1.558589 3.066337
 65 7.363602 1.646647 0.495663 3.141593 -1.570796 0.000000
 66 -0.000005 0.000007 3.619081 0.008255 -3.110080 -0.985231
 67 16.573919 0.000001 0.000000 0.000000 -0.000000 -1.065827
 68 15.128182 0.000000 -0.000000 -0.102296 0.010178 0.114297
 69 5.758666 4.244730 -0.000000 0.000000 -0.000000 1.667687
 70 3.177726 0.000000 0.000000 0.000000 0.000000 3.141593
 71 15.708953 0.000001 0.000000 -0.051525 0.003996 0.061523
 72 0.275148 0.189215 -3.445208 3.130898 0.000409 -1.514604
 73 17.210194 -0.000000 0.000000 0.000000 0.000000 -1.893339
 74 0.000000 0.000000 -4.999999 -0.079433 1.546568 -1.570859
 75 0.000002 -0.000003 -3.619081 0.577895 2.675801 -0.242118
 76 16.573923 -0.000001 -0.000001 0.000000 -0.000000 -1.163030
 77 15.128182 -0.000001 0.000002 0.089479 0.309197 0.659208
 78 5.758665 4.244731 -0.000000 -0.000000 0.000000 1.815142
 79 4.003934 -0.000000 -0.000000 0.000000 0.000000 0.000000
 80 15.708954 -0.000000 0.000002 0.042277 0.226871 0.443133
 81 0.273998 0.191090 3.439763 -3.130907 -0.000437 -1.508107
 82 17.210196 -0.000001 -0.000001 0.000000 -0.000000 -1.937080
 83 0.000001 -0.000001 5.000000 -0.079314 1.595025 -1.570739
end
