version 1
nodes
  0 "Bip01"  -1
  1 "Bip01 Footsteps"   0
  2 "Bip01 Pelvis"   0
  3 "Bip01 Spine"   2
  4 "Bip01 Spine1"   3
  5 "Bip01 Spine2"   4
  6 "Bip01 Spine3"   5
  7 "Bip01 Neck"   6
  8 "Bip01 Head"   7
  9 "Dummy21"   8
 10 "Bip01 L Clavicle"   7
 11 "Bip01 L UpperArm"  10
 12 "Bip01 L Forearm"  11
 13 "Bip01 L Hand"  12
 14 "Bip01 L Finger0"  13
 15 "Bip01 L Finger01"  14
 16 "Dummy06"  15
 17 "Bip01 L Finger1"  13
 18 "Bip01 L Finger11"  17
 19 "Dummy03"  18
 20 "-- L knuckle"  17
 21 "-- L knuckle_end"  20
 22 "-- L Forearm twist"  12
 23 "-- L Forearm twist_end"  22
 24 "-- L wrist"  12
 25 "-- L wrist_end"  24
 26 "-- L Elbow"  11
 27 "--L Elbow_end"  26
 28 "-- L bicep twist"  11
 29 "-- L bicep twist_end"  28
 30 "-- L shoulder outside"  10
 31 "-- L shoulder outside_end"  30
 32 "-- L Shoulder inside"  10
 33 "-- L Shoulder inside_end"  32
 34 "Bip01 R Clavicle"   7
 35 "Bip01 R UpperArm"  34
 36 "Bip01 R Forearm"  35
 37 "Bip01 R Hand"  36
 38 "Bip01 R Finger0"  37
 39 "Bip01 R Finger01"  38
 40 "Dummy01"  39
 41 "Bip01 R Finger1"  37
 42 "Bip01 R Finger11"  41
 43 "Dummy02"  42
 44 "-- R knuckle"  41
 45 "Point06"  44
 46 "Line01"  37
 47 "-- R wrist"  36
 48 "-- R wrist_end"  47
 49 "-- R forearm twist"  36
 50 "-- R forearm twist_end"  49
 51 "-- R Elbow"  35
 52 "--R Elbow_end"  51
 53 "-- R bicep twist"  35
 54 "-- R bicep twist_end"  53
 55 "-- R Shoulder inside"  34
 56 "-- R Shoulder inside_end"  55
 57 "-- R shoulder outside"  34
 58 "-- R shoulder outside_end"  57
 59 "-- Neck smooth"   6
 60 "-- neck smooth end"  59
 61 "-- R Butt"   2
 62 "--R Butt_end"  61
 63 "-- L butt"   2
 64 "--L butt_end"  63
 65 "GIGN01"   2
 66 "Bip01 L Thigh"   2
 67 "Bip01 L Calf"  66
 68 "Bip01 L Foot"  67
 69 "Bip01 L Toe0"  68
 70 "Dummy16"  69
 71 "-- L ankle"  67
 72 "-- L ankleend"  71
 73 "-- L Knee"  66
 74 "--L Knee_end"  73
 75 "Bip01 R Thigh"   2
 76 "Bip01 R Calf"  75
 77 "Bip01 R Foot"  76
 78 "Bip01 R Toe0"  77
 79 "Dummy11"  78
 80 "-- R Ankle"  76
 81 "-- R ankleend"  80
 82 "-- R Knee"  75
 83 "--R Knee_end"  82
end
skeleton
time 0
  0 -0.650000 0.000000 33.899605 -0.025849 0.174554 -1.569172
  1 5.685103 0.833236 -32.227173 -0.174512 -0.026131 1.569196
  2 -2.276935 0.000003 -1.238188 -1.570795 -1.570451 0.000000
  3 1.797144 0.712178 0.001533 -0.497523 -0.194551 0.105688
  4 4.119902 -0.002644 0.001441 -0.466375 0.218385 0.348847
  5 4.118997 -0.002873 0.001533 -0.490645 0.119884 0.072334
  6 4.118655 -0.002885 0.001560 -0.496334 0.037114 -0.002884
  7 4.120689 -0.002851 -0.000232 0.066676 0.166244 0.642454
  8 4.443598 -0.000001 0.000000 0.574804 0.123344 -0.294143
  9 9.024060 0.000000 0.000000 0.000000 0.000000 0.000000
 10 -0.286733 0.117389 1.705036 0.940808 -1.033143 1.553422
 11 6.384775 -0.000000 0.000003 -0.632604 0.394792 -0.739633
 12 10.242683 0.000002 -0.000001 0.000000 -0.000000 -1.255013
 13 11.375561 -0.000001 0.000001 3.101594 0.190005 0.690724
 14 0.728682 0.023429 -1.008293 2.396606 0.246960 1.180207
 15 2.136494 0.000000 0.000000 -0.000000 0.000000 -0.078540
 16 2.313137 0.000000 -0.000001 0.000000 0.000000 0.000000
 17 3.115507 -0.886042 -0.021431 -0.166499 0.000392 0.514872
 18 2.011153 0.000003 -0.000001 -0.000000 0.000000 1.322792
 19 2.141378 -0.000000 -0.000000 0.000000 0.000000 0.000000
 20 1.734174 0.000001 -0.000000 0.000000 0.000000 0.660693
 21 0.000005 -4.440595 -0.000000 1.570544 -0.062990 -0.195737
 22 6.000000 -0.000000 0.000001 -2.886773 -0.000000 -0.000000
 23 0.000000 -4.440601 -0.000001 1.569944 -0.062987 0.004053
 24 11.375561 -0.000001 0.000004 -2.390146 -0.066592 0.395666
 25 -0.000002 -4.440603 0.000000 1.570144 -0.062988 0.004040
 26 10.510132 0.000001 -0.000002 0.000000 -0.000000 -2.198303
 27 0.000000 -1.748401 4.999999 -0.000000 0.004007 1.602291
 28 5.500001 0.000001 -0.000001 0.205513 0.000000 -0.000000
 29 -0.000001 -1.940598 5.000000 -0.044472 0.004003 -0.000180
 30 6.551490 0.000000 0.000002 -0.390686 0.272135 -0.507684
 31 0.000001 -1.940597 5.000000 -0.027189 -0.053376 0.005295
 32 6.551490 0.000000 0.000002 -0.168397 0.155207 -0.228116
 33 -0.000002 -1.940600 4.999999 -0.066572 -0.152786 -0.110311
 34 0.286734 -0.110313 -1.705035 -1.900656 1.035630 0.646654
 35 6.384776 -0.000000 0.000002 -0.762606 -0.865880 0.157947
 36 10.242682 -0.000001 0.000000 0.000000 -0.000000 -2.117367
 37 11.375561 -0.000003 0.000000 2.388699 0.706533 0.330927
 38 0.728681 0.023431 1.008294 -1.579583 -0.319038 0.212973
 39 2.136496 0.000000 -0.000000 0.000000 0.000000 1.282817
 40 2.313139 0.000001 0.000001 0.000000 0.000000 3.141593
 41 3.115507 -0.886041 0.021432 0.708959 0.171755 0.347804
 42 2.011150 0.000002 0.000001 0.000000 -0.000000 2.082010
 43 2.141379 -0.000000 0.000001 0.000000 0.000000 3.141593
 44 1.734172 -0.000000 0.000000 0.000000 0.000000 1.041748
 45 0.136315 -3.738192 2.525891 1.493698 2.759406 -1.474501
 46 5.613160 0.862367 3.157032 1.595152 -0.135386 0.061522
 47 11.389367 -0.000820 0.158783 1.922880 0.388362 0.071593
 48 -0.000000 -4.440600 0.000000 1.570144 -3.078602 0.004040
 49 6.000000 -0.000001 0.000001 1.922880 0.000000 0.000000
 50 0.000001 -4.440601 -0.000000 1.569944 -3.078603 0.004053
 51 10.510132 -0.000000 0.000000 -0.000000 0.000000 -2.629480
 52 0.000000 -1.748398 -5.000001 3.141593 0.004007 -1.539299
 53 5.499999 0.000000 0.000000 0.219330 0.000000 -0.000000
 54 -0.000001 0.000001 -5.000000 -0.044472 3.137590 -0.000177
 55 6.551491 0.000000 0.000000 -0.219330 -0.304302 -0.047737
 56 -1.266844 -1.937443 -4.950561 -0.066572 -2.988806 -0.110308
 57 6.551492 0.000000 0.000000 -0.219330 -0.304302 -0.047737
 58 0.699370 -1.944209 -5.006846 -0.027189 -3.088217 0.005298
 59 4.226149 -0.003202 -0.000000 0.020687 0.089510 0.328468
 60 -0.000000 5.000001 0.000000 -0.153564 0.000087 2.718702
 61 0.000004 -0.000004 -3.713580 0.365818 2.880119 -0.191589
 62 0.000002 -0.000000 5.000000 3.053196 1.558589 -0.074928
 63 -0.000007 0.000006 3.713580 -0.001619 -3.122277 -0.475127
 64 0.000002 -0.000000 -5.000000 -0.088726 1.558589 3.066335
 65 7.363602 1.646647 0.495663 3.141593 -1.570796 0.000000
 66 -0.000005 0.000007 3.619081 0.008255 -3.110080 -0.985231
 67 16.573919 0.000000 -0.000000 -0.000000 -0.000000 -1.065827
 68 15.128180 0.000001 0.000000 -0.102296 0.010178 0.114297
 69 5.758665 4.244730 0.000000 0.000000 0.000000 1.667687
 70 3.177726 0.000000 -0.000000 0.000000 0.000000 3.141593
 71 15.708951 0.000001 0.000000 -0.051525 0.003996 0.061523
 72 0.275148 0.189215 -3.445208 3.130898 0.000409 -1.514604
 73 17.210192 -0.000000 -0.000000 -0.000000 -0.000000 -1.893339
 74 0.000001 0.000000 -4.999999 -0.079433 1.546568 -1.570857
 75 0.000002 -0.000003 -3.619081 0.577895 2.675801 -0.242118
 76 16.573921 -0.000001 -0.000002 -0.000000 -0.000000 -1.163030
 77 15.128181 0.000001 0.000001 0.089479 0.309197 0.659208
 78 5.758666 4.244730 -0.000001 -0.000000 -0.000000 1.815142
 79 4.003934 -0.000000 0.000001 0.000000 0.000000 0.000000
 80 15.708954 0.000001 0.000002 0.042277 0.226871 0.443133
 81 0.273998 0.191089 3.439762 -3.130907 -0.000437 -1.508107
 82 17.210194 -0.000001 -0.000002 0.000000 -0.000000 -1.937080
 83 -0.000000 -0.000001 5.000000 -0.079319 1.595025 -1.570742
time 1
  0 -0.650000 0.000000 33.899605 -0.025849 0.174554 -1.569172
  1 5.685103 0.833236 -32.227173 -0.174512 -0.026131 1.569196
  2 -2.276935 0.000003 -1.238188 -1.570795 -1.570451 0.000000
  3 1.797147 0.712175 0.001527 -0.495216 -0.194322 0.106145
  4 4.119901 -0.002647 0.001435 -0.464190 0.217734 0.349543
  5 4.119002 -0.002877 0.001526 -0.488400 0.119838 0.072828
  6 4.118652 -0.002887 0.001555 -0.494105 0.037237 -0.002576
  7 4.120686 -0.002851 -0.000233 0.066676 0.166244 0.642454
  8 4.443597 -0.000001 0.000000 0.567731 0.130263 -0.298002
  9 9.024061 -0.000001 0.000000 0.000000 0.000000 0.000000
 10 -0.286732 0.117388 1.705035 0.940808 -1.033143 1.553422
 11 6.384777 0.000001 -0.000002 -0.632106 0.388432 -0.757225
 12 10.242683 0.000002 -0.000002 0.000000 -0.000000 -1.236921
 13 11.375562 -0.000000 0.000001 3.098914 0.191614 0.688239
 14 0.728680 0.023431 -1.008292 2.396606 0.246960 1.180207
 15 2.136495 0.000000 0.000000 -0.000000 -0.000000 -0.078540
 16 2.313141 -0.000001 -0.000000 0.000000 0.000000 0.000000
 17 3.115507 -0.886040 -0.021432 -0.166499 0.000392 0.514872
 18 2.011153 -0.000002 -0.000001 -0.000000 0.000000 1.322792
 19 2.141382 0.000001 0.000001 0.000000 0.000000 0.000000
 20 1.734174 0.000000 0.000000 -0.000000 -0.000000 0.660693
 21 0.000002 -4.440594 0.000000 1.570544 -0.062990 -0.195737
 22 5.999998 0.000000 -0.000000 -2.889121 -0.000000 0.000000
 23 -0.000000 -4.440599 0.000000 1.569944 -0.062987 0.004053
 24 11.375560 -0.000001 0.000003 -2.391503 -0.065620 0.395041
 25 -0.000001 -4.440604 0.000002 1.570144 -0.062988 0.004040
 26 10.510132 0.000001 -0.000002 0.000000 -0.000000 -2.189257
 27 0.000001 -1.748400 4.999999 0.000000 0.004007 1.602291
 28 5.500000 0.000000 -0.000001 0.203751 0.000000 0.000000
 29 -0.000002 -1.940598 5.000000 -0.044472 0.004003 -0.000180
 30 6.551491 0.000001 0.000001 -0.387717 0.268975 -0.515291
 31 -0.000000 -1.940597 5.000002 -0.027189 -0.053376 0.005295
 32 6.551491 0.000001 0.000001 -0.166883 0.153794 -0.231922
 33 -0.000002 -1.940598 4.999998 -0.066572 -0.152786 -0.110311
 34 0.286732 -0.110312 -1.705034 -1.900868 1.032961 0.646430
 35 6.384776 0.000001 -0.000003 -0.772089 -0.863037 0.180103
 36 10.242683 -0.000000 0.000001 -0.000000 0.000000 -2.124487
 37 11.375561 -0.000000 -0.000000 2.388514 0.706732 0.330850
 38 0.728681 0.023431 1.008291 -1.579583 -0.319038 0.212973
 39 2.136496 -0.000000 -0.000000 0.000000 0.000000 1.282817
 40 2.313141 0.000001 -0.000000 0.000000 0.000000 3.141593
 41 3.115507 -0.886041 0.021430 0.708959 0.171755 0.347804
 42 2.011151 -0.000000 0.000002 0.000000 0.000000 2.082010
 43 2.141381 0.000000 -0.000001 0.000000 0.000000 3.141593
 44 1.734172 -0.000000 0.000003 -0.000000 0.000000 1.041748
 45 0.136315 -3.738192 2.525891 1.493698 2.759406 -1.474501
 46 5.613159 0.862366 3.157032 1.595152 -0.135386 0.061522
 47 11.389367 -0.000818 0.158782 1.922777 0.388437 0.071539
 48 0.000000 -4.440599 0.000000 1.570144 -3.078602 0.004040
 49 6.000000 0.000000 -0.000001 1.922777 0.000000 -0.000000
 50 0.000002 -4.440601 -0.000000 1.569944 -3.078603 0.004053
 51 10.510132 0.000001 0.000002 0.000000 -0.000000 -2.633040
 52 0.000000 -1.748402 -5.000002 3.141593 0.004007 -1.539299
 53 5.500000 0.000002 0.000000 0.221503 -0.000000 0.000000
 54 0.000001 -0.000000 -5.000000 -0.044472 3.137590 -0.000177
 55 6.551489 0.000000 -0.000001 -0.221503 -0.304338 -0.042105
 56 -1.266843 -1.937443 -4.950561 -0.066572 -2.988806 -0.110308
 57 6.551490 0.000000 -0.000001 -0.221503 -0.304338 -0.042105
 58 0.699370 -1.944208 -5.006847 -0.027189 -3.088217 0.005298
 59 4.226146 -0.003202 -0.000002 0.020687 0.089510 0.328468
 60 0.000002 4.999999 -0.000001 -0.153564 0.000087 2.718702
 61 0.000004 -0.000004 -3.713580 0.365818 2.880119 -0.191589
 62 0.000002 -0.000000 5.000000 3.053196 1.558589 -0.074928
 63 -0.000007 0.000006 3.713580 -0.001619 -3.122277 -0.475127
 64 0.000002 -0.000000 -5.000000 -0.088726 1.558589 3.066335
 65 7.363602 1.646647 0.495663 3.141593 -1.570796 0.000000
 66 -0.000005 0.000007 3.619081 0.008255 -3.110080 -0.985231
 67 16.573919 0.000000 -0.000000 -0.000000 -0.000000 -1.065827
 68 15.128180 0.000001 0.000000 -0.102296 0.010178 0.114297
 69 5.758665 4.244730 0.000000 0.000000 0.000000 1.667687
 70 3.177726 0.000000 -0.000000 0.000000 0.000000 3.141593
 71 15.708951 0.000001 0.000000 -0.051525 0.003996 0.061523
 72 0.275148 0.189215 -3.445208 3.130898 0.000409 -1.514604
 73 17.210192 -0.000000 -0.000000 -0.000000 -0.000000 -1.893339
 74 0.000001 0.000000 -4.999999 -0.079433 1.546568 -1.570857
 75 0.000002 -0.000003 -3.619081 0.577895 2.675801 -0.242118
 76 16.573921 -0.000001 -0.000002 -0.000000 -0.000000 -1.163030
 77 15.128181 0.000001 0.000001 0.089479 0.309197 0.659208
 78 5.758666 4.244730 -0.000001 -0.000000 -0.000000 1.815142
 79 4.003934 -0.000000 0.000001 0.000000 0.000000 0.000000
 80 15.708954 0.000001 0.000002 0.042277 0.226871 0.443133
 81 0.273998 0.191089 3.439762 -3.130907 -0.000437 -1.508107
 82 17.210194 -0.000001 -0.000002 0.000000 -0.000000 -1.937080
 83 -0.000000 -0.000001 5.000000 -0.079319 1.595025 -1.570742
time 2
  0 -0.650000 0.000000 33.899605 -0.025849 0.174554 -1.569172
  1 5.685103 0.833236 -32.227173 -0.174512 -0.026131 1.569196
  2 -2.276935 0.000003 -1.238188 -1.570795 -1.570451 0.000000
  3 1.797150 0.712171 0.001519 -0.492571 -0.194061 0.106669
  4 4.119906 -0.002650 0.001426 -0.461687 0.216986 0.350340
  5 4.119003 -0.002881 0.001518 -0.485826 0.119784 0.073394
  6 4.118651 -0.002891 0.001548 -0.491551 0.037378 -0.002224
  7 4.120688 -0.002851 -0.000232 0.066676 0.166244 0.642454
  8 4.443599 0.000000 -0.000001 0.559576 0.138152 -0.302512
  9 9.024060 0.000001 0.000000 0.000000 0.000000 0.000000
 10 -0.286730 0.117388 1.705034 0.940808 -1.033143 1.553422
 11 6.384776 0.000000 -0.000001 -0.631582 0.381009 -0.777458
 12 10.242682 0.000003 -0.000001 0.000000 0.000000 -1.216154
 13 11.375561 0.000001 -0.000003 3.096112 0.193379 0.685221
 14 0.728681 0.023430 -1.008294 2.396606 0.246960 1.180207
 15 2.136497 0.000000 -0.000001 -0.000000 -0.000000 -0.078540
 16 2.313137 0.000001 0.000001 0.000000 0.000000 0.000000
 17 3.115506 -0.886042 -0.021431 -0.166499 0.000392 0.514872
 18 2.011150 -0.000001 0.000001 0.000000 0.000000 1.322792
 19 2.141378 -0.000001 -0.000001 0.000000 0.000000 0.000000
 20 1.734173 0.000002 0.000000 -0.000000 0.000000 0.660693
 21 0.000008 -4.440592 0.000002 1.570544 -0.062990 -0.195737
 22 5.999999 0.000001 -0.000002 -2.891541 -0.000000 -0.000000
 23 -0.000001 -4.440602 0.000001 1.569944 -0.062987 0.004053
 24 11.375563 -0.000001 0.000001 -2.392908 -0.064468 0.394228
 25 -0.000001 -4.440603 -0.000002 1.570144 -0.062988 0.004040
 26 10.510129 0.000001 -0.000001 -0.000000 -0.000000 -2.178873
 27 -0.000002 -1.748402 5.000000 -0.000000 0.004007 1.602291
 28 5.499999 0.000001 -0.000000 0.201852 0.000000 -0.000000
 29 -0.000001 -1.940598 5.000000 -0.044472 0.004003 -0.000180
 30 6.551490 -0.000001 -0.000001 -0.384543 0.265539 -0.523882
 31 0.000000 -1.940600 5.000002 -0.027189 -0.053376 0.005295
 32 6.551490 -0.000001 -0.000001 -0.165247 0.152261 -0.236187
 33 -0.000001 -1.940600 4.999999 -0.066572 -0.152786 -0.110311
 34 0.286732 -0.110311 -1.705035 -1.901105 1.029901 0.646174
 35 6.384777 0.000000 -0.000003 -0.782985 -0.859572 0.205577
 36 10.242682 0.000001 -0.000000 -0.000000 -0.000000 -2.132604
 37 11.375561 0.000001 0.000001 2.388246 0.706988 0.330210
 38 0.728681 0.023431 1.008291 -1.579583 -0.319038 0.212973
 39 2.136497 -0.000004 -0.000001 0.000000 0.000000 1.282817
 40 2.313139 0.000001 0.000001 0.000000 0.000000 3.141593
 41 3.115505 -0.886041 0.021432 0.708959 0.171755 0.347804
 42 2.011151 -0.000001 0.000001 -0.000000 -0.000000 2.082010
 43 2.141379 -0.000000 0.000001 0.000000 0.000000 3.141593
 44 1.734172 -0.000002 0.000000 -0.000000 0.000000 1.041748
 45 0.136315 -3.738191 2.525891 1.493698 2.759406 -1.474501
 46 5.613159 0.862366 3.157030 1.595152 -0.135386 0.061522
 47 11.389366 -0.000817 0.158783 1.922681 0.388502 0.071220
 48 0.000000 -4.440598 -0.000000 1.570144 -3.078602 0.004040
 49 5.999999 -0.000000 -0.000000 1.922681 0.000000 0.000000
 50 0.000001 -4.440601 0.000001 1.569944 -3.078603 0.004053
 51 10.510131 0.000002 0.000000 0.000000 0.000000 -2.637098
 52 -0.000000 -1.748400 -5.000001 -3.141593 0.004007 -1.539299
 53 5.499999 0.000002 -0.000001 0.223983 0.000000 0.000000
 54 -0.000000 -0.000000 -4.999999 -0.044472 3.137589 -0.000177
 55 6.551490 -0.000000 -0.000002 -0.223983 -0.304252 -0.035547
 56 -1.266843 -1.937442 -4.950561 -0.066572 -2.988806 -0.110308
 57 6.551491 -0.000000 -0.000002 -0.223983 -0.304252 -0.035547
 58 0.699370 -1.944207 -5.006847 -0.027189 -3.088217 0.005298
 59 4.226146 -0.003201 0.000000 0.020687 0.089510 0.328468
 60 0.000003 5.000000 0.000000 -0.153565 0.000087 2.718702
 61 0.000004 -0.000004 -3.713580 0.365818 2.880119 -0.191589
 62 0.000002 -0.000000 5.000000 3.053196 1.558589 -0.074928
 63 -0.000007 0.000006 3.713580 -0.001619 -3.122277 -0.475127
 64 0.000002 -0.000000 -5.000000 -0.088726 1.558589 3.066335
 65 7.363602 1.646647 0.495663 3.141593 -1.570796 0.000000
 66 -0.000005 0.000007 3.619081 0.008255 -3.110080 -0.985231
 67 16.573919 0.000000 -0.000000 -0.000000 -0.000000 -1.065827
 68 15.128180 0.000001 0.000000 -0.102296 0.010178 0.114297
 69 5.758665 4.244730 0.000000 0.000000 0.000000 1.667687
 70 3.177726 0.000000 -0.000000 0.000000 0.000000 3.141593
 71 15.708951 0.000001 0.000000 -0.051525 0.003996 0.061523
 72 0.275148 0.189215 -3.445208 3.130898 0.000409 -1.514604
 73 17.210192 -0.000000 -0.000000 -0.000000 -0.000000 -1.893339
 74 0.000001 0.000000 -4.999999 -0.079433 1.546568 -1.570857
 75 0.000002 -0.000003 -3.619081 0.577895 2.675801 -0.242118
 76 16.573921 -0.000001 -0.000002 -0.000000 -0.000000 -1.163030
 77 15.128181 0.000001 0.000001 0.089479 0.309197 0.659208
 78 5.758666 4.244730 -0.000001 -0.000000 -0.000000 1.815142
 79 4.003934 -0.000000 0.000001 0.000000 0.000000 0.000000
 80 15.708954 0.000001 0.000002 0.042277 0.226871 0.443133
 81 0.273998 0.191089 3.439762 -3.130907 -0.000437 -1.508107
 82 17.210194 -0.000001 -0.000002 0.000000 -0.000000 -1.937080
 83 -0.000000 -0.000001 5.000000 -0.079319 1.595025 -1.570742
time 3
  0 -0.650000 0.000000 33.899605 -0.025849 0.174554 -1.569172
  1 5.685103 0.833236 -32.227173 -0.174512 -0.026131 1.569196
  2 -2.276935 0.000003 -1.238188 -1.570795 -1.570451 0.000000
  3 1.797156 0.712166 0.001512 -0.489926 -0.193801 0.107194
  4 4.119907 -0.002653 0.001421 -0.459185 0.216235 0.351135
  5 4.119000 -0.002884 0.001512 -0.483252 0.119729 0.073960
  6 4.118653 -0.002895 0.001541 -0.488997 0.037517 -0.001871
  7 4.120689 -0.002851 -0.000232 0.066676 0.166244 0.642454
  8 4.443598 0.000000 -0.000000 0.551371 0.145993 -0.307116
  9 9.024060 0.000000 -0.000000 0.000000 0.000000 0.000000
 10 -0.286731 0.117389 1.705035 0.940808 -1.033143 1.553422
 11 6.384775 -0.000000 0.000000 -0.631041 0.373548 -0.797785
 12 10.242681 0.000003 -0.000001 -0.000000 -0.000000 -1.195009
 13 11.375561 0.000001 0.000001 3.093309 0.195221 0.681950
 14 0.728680 0.023434 -1.008292 2.396606 0.246960 1.180207
 15 2.136496 -0.000000 -0.000001 -0.000000 -0.000000 -0.078540
 16 2.313139 -0.000000 -0.000000 0.000000 0.000000 0.000000
 17 3.115506 -0.886038 -0.021431 -0.166499 0.000392 0.514872
 18 2.011152 0.000000 -0.000002 -0.000000 0.000000 1.322792
 19 2.141379 0.000001 0.000001 0.000000 0.000000 0.000000
 20 1.734171 -0.000001 -0.000000 0.000000 0.000000 0.660693
 21 0.000005 -4.440593 0.000000 1.570544 -0.062990 -0.195737
 22 5.999999 0.000002 -0.000001 -2.893941 0.000000 -0.000000
 23 -0.000000 -4.440602 0.000000 1.569944 -0.062987 0.004053
 24 11.375561 0.000001 0.000003 -2.394306 -0.063216 0.393326
 25 -0.000001 -4.440604 0.000001 1.570144 -0.062988 0.004040
 26 10.510131 0.000003 -0.000001 -0.000000 -0.000000 -2.168301
 27 0.000001 -1.748401 4.999999 0.000000 0.004007 1.602291
 28 5.499999 0.000001 -0.000000 0.200040 0.000000 0.000000
 29 0.000000 -1.940597 5.000000 -0.044472 0.004003 -0.000180
 30 6.551491 0.000001 -0.000002 -0.381550 0.262346 -0.532363
 31 0.000000 -1.940600 5.000002 -0.027189 -0.053376 0.005295
 32 6.551491 0.000001 -0.000002 -0.163682 0.150842 -0.240360
 33 -0.000001 -1.940600 4.999997 -0.066572 -0.152786 -0.110311
 34 0.286733 -0.110311 -1.705035 -1.901337 1.026841 0.645922
 35 6.384777 -0.000000 -0.000001 -0.793898 -0.855881 0.231120
 36 10.242681 0.000001 -0.000001 0.000000 -0.000000 -2.140669
 37 11.375563 0.000003 0.000004 2.388033 0.707173 0.329392
 38 0.728681 0.023431 1.008293 -1.579583 -0.319038 0.212973
 39 2.136497 -0.000001 -0.000000 -0.000000 -0.000000 1.282817
 40 2.313137 0.000001 0.000000 0.000000 0.000000 3.141593
 41 3.115506 -0.886041 0.021435 0.708959 0.171755 0.347804
 42 2.011151 0.000001 0.000001 0.000000 -0.000000 2.082010
 43 2.141379 -0.000000 -0.000000 0.000000 0.000000 3.141593
 44 1.734173 -0.000001 -0.000000 0.000000 -0.000000 1.041748
 45 0.136315 -3.738192 2.525892 1.493698 2.759406 -1.474501
 46 5.613159 0.862366 3.157032 1.595152 -0.135386 0.061522
 47 11.389367 -0.000818 0.158785 1.922636 0.388530 0.070826
 48 -0.000000 -4.440599 -0.000001 1.570144 -3.078602 0.004040
 49 6.000000 0.000000 0.000002 1.922636 0.000000 -0.000000
 50 -0.000000 -4.440601 0.000003 1.569944 -3.078603 0.004053
 51 10.510130 0.000000 -0.000000 -0.000000 -0.000000 -2.641131
 52 -0.000001 -1.748399 -5.000001 -3.141593 0.004007 -1.539299
 53 5.499999 0.000001 -0.000001 0.226441 0.000000 0.000000
 54 0.000001 0.000001 -4.999999 -0.044472 3.137589 -0.000177
 55 6.551491 -0.000000 -0.000000 -0.226441 -0.304027 -0.028882
 56 -1.266843 -1.937443 -4.950562 -0.066572 -2.988806 -0.110308
 57 6.551491 -0.000000 -0.000000 -0.226441 -0.304027 -0.028882
 58 0.699371 -1.944207 -5.006849 -0.027189 -3.088217 0.005298
 59 4.226146 -0.003201 0.000001 0.020687 0.089510 0.328468
 60 0.000001 5.000000 0.000000 -0.153564 0.000087 2.718702
 61 0.000004 -0.000004 -3.713580 0.365818 2.880119 -0.191589
 62 0.000002 -0.000000 5.000000 3.053196 1.558589 -0.074928
 63 -0.000007 0.000006 3.713580 -0.001619 -3.122277 -0.475127
 64 0.000002 -0.000000 -5.000000 -0.088726 1.558589 3.066335
 65 7.363602 1.646647 0.495663 3.141593 -1.570796 0.000000
 66 -0.000005 0.000007 3.619081 0.008255 -3.110080 -0.985231
 67 16.573919 0.000000 -0.000000 -0.000000 -0.000000 -1.065827
 68 15.128180 0.000001 0.000000 -0.102296 0.010178 0.114297
 69 5.758665 4.244730 0.000000 0.000000 0.000000 1.667687
 70 3.177726 0.000000 -0.000000 0.000000 0.000000 3.141593
 71 15.708951 0.000001 0.000000 -0.051525 0.003996 0.061523
 72 0.275148 0.189215 -3.445208 3.130898 0.000409 -1.514604
 73 17.210192 -0.000000 -0.000000 -0.000000 -0.000000 -1.893339
 74 0.000001 0.000000 -4.999999 -0.079433 1.546568 -1.570857
 75 0.000002 -0.000003 -3.619081 0.577895 2.675801 -0.242118
 76 16.573921 -0.000001 -0.000002 -0.000000 -0.000000 -1.163030
 77 15.128181 0.000001 0.000001 0.089479 0.309197 0.659208
 78 5.758666 4.244730 -0.000001 -0.000000 -0.000000 1.815142
 79 4.003934 -0.000000 0.000001 0.000000 0.000000 0.000000
 80 15.708954 0.000001 0.000002 0.042277 0.226871 0.443133
 81 0.273998 0.191089 3.439762 -3.130907 -0.000437 -1.508107
 82 17.210194 -0.000001 -0.000002 0.000000 -0.000000 -1.937080
 83 -0.000000 -0.000001 5.000000 -0.079319 1.595025 -1.570742
time 4
  0 -0.650000 0.000000 33.899605 -0.025849 0.174554 -1.569172
  1 5.685103 0.833236 -32.227173 -0.174512 -0.026131 1.569196
  2 -2.276935 0.000003 -1.238188 -1.570795 -1.570451 0.000000
  3 1.797160 0.712163 0.001505 -0.487619 -0.193576 0.107652
  4 4.119908 -0.002656 0.001414 -0.457003 0.215579 0.351827
  5 4.119000 -0.002887 0.001506 -0.481006 0.119679 0.074453
  6 4.118656 -0.002899 0.001532 -0.486768 0.037638 -0.001562
  7 4.120688 -0.002851 -0.000233 0.066676 0.166244 0.642454
  8 4.443597 0.000001 0.000000 0.544170 0.152794 -0.311208
  9 9.024062 -0.000001 -0.000000 0.000000 0.000000 0.000000
 10 -0.286733 0.117390 1.705035 0.940808 -1.033143 1.553422
 11 6.384777 0.000000 -0.000001 -0.630502 0.367092 -0.815617
 12 10.242682 0.000002 -0.000000 0.000000 0.000000 -1.175963
 13 11.375563 -0.000002 -0.000000 3.090630 0.197032 0.678830
 14 0.728681 0.023432 -1.008292 2.396606 0.246960 1.180207
 15 2.136497 -0.000001 -0.000002 -0.000000 -0.000000 -0.078540
 16 2.313139 0.000000 0.000000 0.000000 0.000000 0.000000
 17 3.115507 -0.886041 -0.021431 -0.166499 0.000392 0.514872
 18 2.011153 0.000003 0.000000 0.000000 0.000000 1.322792
 19 2.141377 0.000000 -0.000000 0.000000 0.000000 0.000000
 20 1.734173 0.000001 -0.000000 0.000000 0.000000 0.660693
 21 0.000004 -4.440594 0.000000 1.570544 -0.062990 -0.195737
 22 6.000000 0.000000 0.000000 -2.896236 -0.000000 0.000000
 23 0.000001 -4.440600 0.000001 1.569944 -0.062987 0.004053
 24 11.375562 -0.000001 0.000003 -2.395642 -0.061990 0.392480
 25 -0.000002 -4.440604 0.000002 1.570144 -0.062988 0.004040
 26 10.510130 -0.000001 0.000000 -0.000000 -0.000000 -2.158778
 27 -0.000003 -1.748401 4.999999 -0.000000 0.004007 1.602291
 28 5.500000 -0.000000 0.000000 0.198498 -0.000000 0.000000
 29 -0.000002 -1.940599 4.999999 -0.044472 0.004003 -0.000180
 30 6.551492 0.000001 -0.000001 -0.379037 0.259798 -0.539700
 31 -0.000001 -1.940600 5.000004 -0.027189 -0.053376 0.005295
 32 6.551492 0.000001 -0.000001 -0.162345 0.149712 -0.243938
 33 0.000002 -1.940598 4.999996 -0.066572 -0.152786 -0.110311
 34 0.286732 -0.110312 -1.705035 -1.901534 1.024172 0.645704
 35 6.384777 -0.000001 -0.000002 -0.803421 -0.852474 0.253451
 36 10.242683 -0.000004 -0.000000 -0.000000 -0.000000 -2.147660
 37 11.375560 -0.000001 0.000001 2.387983 0.707197 0.328869
 38 0.728680 0.023431 1.008290 -1.579583 -0.319038 0.212973
 39 2.136497 -0.000004 -0.000000 -0.000000 0.000000 1.282817
 40 2.313138 0.000000 0.000000 0.000000 0.000000 3.141593
 41 3.115506 -0.886041 0.021431 0.708959 0.171755 0.347804
 42 2.011150 -0.000000 0.000001 0.000000 -0.000000 2.082010
 43 2.141379 -0.000001 0.000001 0.000000 0.000000 3.141593
 44 1.734172 -0.000002 -0.000001 0.000000 0.000000 1.041748
 45 0.136315 -3.738192 2.525891 1.493698 2.759406 -1.474501
 46 5.613158 0.862366 3.157032 1.595152 -0.135386 0.061522
 47 11.389367 -0.000818 0.158784 1.922659 0.388511 0.070582
 48 0.000000 -4.440599 -0.000001 1.570144 -3.078602 0.004040
 49 6.000000 0.000001 0.000001 1.922659 0.000000 0.000000
 50 0.000000 -4.440601 0.000002 1.569944 -3.078603 0.004053
 51 10.510132 -0.000004 0.000001 -0.000000 0.000000 -2.644626
 52 -0.000001 -1.748401 -5.000002 -3.141593 0.004007 -1.539299
 53 5.500000 -0.000002 -0.000000 0.228559 0.000000 -0.000000
 54 0.000002 -0.000001 -5.000001 -0.044472 3.137589 -0.000177
 55 6.551491 -0.000000 -0.000001 -0.228559 -0.303715 -0.022982
 56 -1.266843 -1.937445 -4.950558 -0.066572 -2.988806 -0.110308
 57 6.551492 -0.000000 -0.000001 -0.228559 -0.303715 -0.022982
 58 0.699371 -1.944208 -5.006847 -0.027189 -3.088217 0.005298
 59 4.226145 -0.003201 -0.000000 0.020687 0.089510 0.328468
 60 -0.000000 5.000002 0.000000 -0.153564 0.000087 2.718702
 61 0.000004 -0.000004 -3.713580 0.365818 2.880119 -0.191589
 62 0.000002 -0.000000 5.000000 3.053196 1.558589 -0.074928
 63 -0.000007 0.000006 3.713580 -0.001619 -3.122277 -0.475127
 64 0.000002 -0.000000 -5.000000 -0.088726 1.558589 3.066335
 65 7.363602 1.646647 0.495663 3.141593 -1.570796 0.000000
 66 -0.000005 0.000007 3.619081 0.008255 -3.110080 -0.985231
 67 16.573919 0.000000 -0.000000 -0.000000 -0.000000 -1.065827
 68 15.128180 0.000001 0.000000 -0.102296 0.010178 0.114297
 69 5.758665 4.244730 0.000000 0.000000 0.000000 1.667687
 70 3.177726 0.000000 -0.000000 0.000000 0.000000 3.141593
 71 15.708951 0.000001 0.000000 -0.051525 0.003996 0.061523
 72 0.275148 0.189215 -3.445208 3.130898 0.000409 -1.514604
 73 17.210192 -0.000000 -0.000000 -0.000000 -0.000000 -1.893339
 74 0.000001 0.000000 -4.999999 -0.079433 1.546568 -1.570857
 75 0.000002 -0.000003 -3.619081 0.577895 2.675801 -0.242118
 76 16.573921 -0.000001 -0.000002 -0.000000 -0.000000 -1.163030
 77 15.128181 0.000001 0.000001 0.089479 0.309197 0.659208
 78 5.758666 4.244730 -0.000001 -0.000000 -0.000000 1.815142
 79 4.003934 -0.000000 0.000001 0.000000 0.000000 0.000000
 80 15.708954 0.000001 0.000002 0.042277 0.226871 0.443133
 81 0.273998 0.191089 3.439762 -3.130907 -0.000437 -1.508107
 82 17.210194 -0.000001 -0.000002 0.000000 -0.000000 -1.937080
 83 -0.000000 -0.000001 5.000000 -0.079319 1.595025 -1.570742
time 5
  0 -0.650000 0.000000 33.899605 -0.025849 0.174554 -1.569172
  1 5.685103 0.833236 -32.227173 -0.174512 -0.026131 1.569196
  2 -2.276935 0.000003 -1.238188 -1.570795 -1.570451 0.000000
  3 1.797163 0.712161 0.001501 -0.485987 -0.193417 0.107977
  4 4.119905 -0.002658 0.001410 -0.455460 0.215114 0.352315
  5 4.119002 -0.002889 0.001501 -0.479418 0.119643 0.074802
  6 4.118660 -0.002902 0.001527 -0.485192 0.037723 -0.001344
  7 4.120685 -0.002851 -0.000231 0.066676 0.166244 0.642454
  8 4.443597 -0.000000 -0.000000 0.539052 0.157581 -0.314146
  9 9.024064 -0.000001 0.000000 0.000000 0.000000 0.000000
 10 -0.286733 0.117389 1.705035 0.940808 -1.033143 1.553422
 11 6.384776 0.000000 0.000001 -0.629998 0.362697 -0.828329
 12 10.242683 0.000001 -0.000000 0.000000 0.000000 -1.161659
 13 11.375563 -0.000002 0.000000 3.088195 0.198676 0.676371
 14 0.728680 0.023429 -1.008291 2.396606 0.246960 1.180207
 15 2.136496 0.000001 -0.000000 -0.000000 0.000000 -0.078540
 16 2.313141 -0.000000 -0.000001 0.000000 0.000000 0.000000
 17 3.115505 -0.886043 -0.021430 -0.166499 0.000392 0.514872
 18 2.011151 0.000000 0.000000 0.000000 0.000000 1.322792
 19 2.141382 -0.000001 0.000000 0.000000 0.000000 0.000000
 20 1.734172 -0.000001 0.000000 -0.000000 0.000000 0.660693
 21 0.000005 -4.440594 0.000001 1.570544 -0.062990 -0.195737
 22 5.999999 0.000000 -0.000001 -2.898354 -0.000000 0.000000
 23 0.000002 -4.440599 0.000000 1.569944 -0.062987 0.004053
 24 11.375559 0.000000 0.000001 -2.396866 -0.060955 0.391872
 25 -0.000001 -4.440603 0.000001 1.570144 -0.062988 0.004040
 26 10.510131 -0.000001 -0.000000 -0.000000 0.000000 -2.151626
 27 0.000000 -1.748401 5.000000 -0.000000 0.004007 1.602291
 28 5.500000 -0.000001 0.000000 0.197368 0.000000 -0.000000
 29 -0.000002 -1.940599 5.000000 -0.044472 0.004003 -0.000180
 30 6.551491 0.000000 0.000001 -0.377218 0.258206 -0.544873
 31 0.000002 -1.940598 4.999999 -0.027189 -0.053376 0.005295
 32 6.551491 0.000000 0.000001 -0.161364 0.149006 -0.246441
 33 -0.000002 -1.940599 4.999998 -0.066572 -0.152786 -0.110311
 34 0.286731 -0.110311 -1.705035 -1.901671 1.022284 0.645551
 35 6.384777 -0.000000 0.000000 -0.810153 -0.849956 0.269269
 36 10.242684 -0.000003 -0.000000 -0.000000 -0.000000 -2.152579
 37 11.375561 -0.000001 0.000001 2.388182 0.707000 0.329189
 38 0.728680 0.023430 1.008293 -1.579583 -0.319038 0.212973
 39 2.136498 -0.000001 0.000000 0.000000 -0.000000 1.282817
 40 2.313138 0.000001 0.000000 0.000000 0.000000 3.141593
 41 3.115506 -0.886042 0.021432 0.708959 0.171755 0.347804
 42 2.011151 -0.000001 -0.000002 0.000000 -0.000000 2.082010
 43 2.141381 -0.000000 -0.000001 0.000000 0.000000 3.141593
 44 1.734172 -0.000001 0.000000 -0.000000 0.000000 1.041748
 45 0.136315 -3.738192 2.525891 1.493698 2.759406 -1.474501
 46 5.613159 0.862366 3.157032 1.595152 -0.135386 0.061522
 47 11.389367 -0.000819 0.158783 1.922745 0.388450 0.070748
 48 -0.000000 -4.440601 -0.000000 1.570144 -3.078602 0.004040
 49 6.000000 -0.000001 -0.000000 1.922745 0.000000 0.000000
 50 -0.000000 -4.440601 0.000001 1.569944 -3.078603 0.004053
 51 10.510132 -0.000001 -0.000001 0.000000 -0.000000 -2.647086
 52 -0.000001 -1.748401 -5.000000 3.141593 0.004007 -1.539299
 53 5.500001 -0.000003 0.000000 0.230040 -0.000000 0.000000
 54 -0.000000 -0.000001 -4.999999 -0.044472 3.137589 -0.000177
 55 6.551491 -0.000000 0.000000 -0.230040 -0.303428 -0.018761
 56 -1.266844 -1.937443 -4.950562 -0.066572 -2.988806 -0.110308
 57 6.551491 -0.000000 0.000000 -0.230040 -0.303428 -0.018761
 58 0.699370 -1.944208 -5.006849 -0.027189 -3.088217 0.005298
 59 4.226144 -0.003201 0.000001 0.020687 0.089510 0.328468
 60 0.000000 5.000001 -0.000002 -0.153564 0.000087 2.718702
 61 0.000004 -0.000004 -3.713580 0.365818 2.880119 -0.191589
 62 0.000002 -0.000000 5.000000 3.053196 1.558589 -0.074928
 63 -0.000007 0.000006 3.713580 -0.001619 -3.122277 -0.475127
 64 0.000002 -0.000000 -5.000000 -0.088726 1.558589 3.066335
 65 7.363602 1.646647 0.495663 3.141593 -1.570796 0.000000
 66 -0.000005 0.000007 3.619081 0.008255 -3.110080 -0.985231
 67 16.573919 0.000000 -0.000000 -0.000000 -0.000000 -1.065827
 68 15.128180 0.000001 0.000000 -0.102296 0.010178 0.114297
 69 5.758665 4.244730 0.000000 0.000000 0.000000 1.667687
 70 3.177726 0.000000 -0.000000 0.000000 0.000000 3.141593
 71 15.708951 0.000001 0.000000 -0.051525 0.003996 0.061523
 72 0.275148 0.189215 -3.445208 3.130898 0.000409 -1.514604
 73 17.210192 -0.000000 -0.000000 -0.000000 -0.000000 -1.893339
 74 0.000001 0.000000 -4.999999 -0.079433 1.546568 -1.570857
 75 0.000002 -0.000003 -3.619081 0.577895 2.675801 -0.242118
 76 16.573921 -0.000001 -0.000002 -0.000000 -0.000000 -1.163030
 77 15.128181 0.000001 0.000001 0.089479 0.309197 0.659208
 78 5.758666 4.244730 -0.000001 -0.000000 -0.000000 1.815142
 79 4.003934 -0.000000 0.000001 0.000000 0.000000 0.000000
 80 15.708954 0.000001 0.000002 0.042277 0.226871 0.443133
 81 0.273998 0.191089 3.439762 -3.130907 -0.000437 -1.508107
 82 17.210194 -0.000001 -0.000002 0.000000 -0.000000 -1.937080
 83 -0.000000 -0.000001 5.000000 -0.079319 1.595025 -1.570742
time 6
  0 -0.650000 0.000000 33.899605 -0.025849 0.174554 -1.569172
  1 5.685103 0.833236 -32.227173 -0.174512 -0.026131 1.569196
  2 -2.276935 0.000003 -1.238188 -1.570795 -1.570451 0.000000
  3 1.797159 0.712161 0.001499 -0.485368 -0.193357 0.108100
  4 4.119911 -0.002660 0.001407 -0.454875 0.214937 0.352500
  5 4.119000 -0.002889 0.001500 -0.478816 0.119630 0.074934
  6 4.118657 -0.002902 0.001527 -0.484594 0.037755 -0.001261
  7 4.120688 -0.002851 -0.000230 0.066676 0.166244 0.642454
  8 4.443599 -0.000001 -0.000001 0.537106 0.159392 -0.315269
  9 9.024060 0.000000 0.000000 0.000000 0.000000 0.000000
 10 -0.286732 0.117388 1.705034 0.940808 -1.033143 1.553422
 11 6.384776 0.000000 0.000001 -0.629557 0.361435 -0.833267
 12 10.242682 -0.000000 -0.000001 0.000000 0.000000 -1.154820
 13 11.375559 -0.000000 0.000000 3.086128 0.200004 0.675137
 14 0.728680 0.023431 -1.008291 2.396606 0.246960 1.180207
 15 2.136497 0.000000 0.000000 0.000000 -0.000000 -0.078540
 16 2.313140 0.000000 -0.000001 0.000000 0.000000 0.000000
 17 3.115506 -0.886042 -0.021430 -0.166499 0.000392 0.514872
 18 2.011152 0.000004 -0.000000 -0.000000 0.000000 1.322792
 19 2.141377 -0.000001 -0.000000 0.000000 0.000000 0.000000
 20 1.734173 0.000004 -0.000000 -0.000000 0.000000 0.660693
 21 0.000006 -4.440593 0.000001 1.570544 -0.062990 -0.195737
 22 5.999998 -0.000000 -0.000000 -2.900226 0.000000 -0.000000
 23 0.000001 -4.440600 0.000000 1.569944 -0.062987 0.004053
 24 11.375562 -0.000002 0.000003 -2.397931 -0.060295 0.391704
 25 -0.000002 -4.440603 0.000000 1.570144 -0.062988 0.004040
 26 10.510131 0.000000 -0.000002 -0.000000 0.000000 -2.148206
 27 0.000001 -1.748401 4.999999 0.000000 0.004007 1.602291
 28 5.499999 -0.000001 -0.000001 0.196774 0.000000 0.000000
 29 -0.000002 -1.940598 4.999999 -0.044472 0.004003 -0.000180
 30 6.551493 0.000000 -0.000002 -0.376272 0.257857 -0.546849
 31 -0.000000 -1.940599 5.000004 -0.027189 -0.053376 0.005295
 32 6.551493 0.000000 -0.000002 -0.160851 0.148843 -0.247390
 33 -0.000001 -1.940599 5.000000 -0.066572 -0.152786 -0.110311
 34 0.286735 -0.110314 -1.705037 -1.901722 1.021568 0.645493
 35 6.384778 -0.000001 -0.000002 -0.812706 -0.848978 0.275273
 36 10.242682 -0.000002 -0.000001 -0.000000 -0.000000 -2.154439
 37 11.375562 0.000002 0.000002 2.388699 0.706533 0.330926
 38 0.728680 0.023431 1.008292 -1.579583 -0.319038 0.212973
 39 2.136496 -0.000001 -0.000000 -0.000000 0.000000 1.282817
 40 2.313137 -0.000001 -0.000000 0.000000 0.000000 3.141593
 41 3.115507 -0.886041 0.021433 0.708959 0.171755 0.347804
 42 2.011150 -0.000001 -0.000002 -0.000000 0.000000 2.082010
 43 2.141381 -0.000000 -0.000001 0.000000 0.000000 3.141593
 44 1.734171 -0.000001 -0.000000 0.000000 -0.000000 1.041748
 45 0.136315 -3.738193 2.525889 1.493698 2.759406 -1.474501
 46 5.613160 0.862367 3.157031 1.595152 -0.135386 0.061522
 47 11.389367 -0.000818 0.158784 1.922880 0.388362 0.071593
 48 -0.000001 -4.440599 -0.000001 1.570144 -3.078602 0.004040
 49 6.000000 0.000001 0.000001 1.922880 0.000000 -0.000000
 50 0.000001 -4.440601 -0.000002 1.569944 -3.078603 0.004053
 51 10.510131 -0.000002 -0.000000 0.000000 -0.000000 -2.648016
 52 -0.000000 -1.748399 -5.000000 3.141593 0.004007 -1.539299
 53 5.500000 -0.000002 -0.000001 0.230597 0.000000 0.000000
 54 0.000001 -0.000000 -4.999999 -0.044472 3.137589 -0.000177
 55 6.551492 -0.000001 -0.000001 -0.230597 -0.303304 -0.017150
 56 -1.266844 -1.937444 -4.950558 -0.066572 -2.988806 -0.110308
 57 6.551492 -0.000001 -0.000001 -0.230597 -0.303304 -0.017150
 58 0.699371 -1.944209 -5.006846 -0.027189 -3.088217 0.005298
 59 4.226148 -0.003201 0.000000 0.020687 0.089510 0.328468
 60 0.000002 5.000001 -0.000001 -0.153564 0.000087 2.718702
 61 0.000004 -0.000004 -3.713580 0.365818 2.880119 -0.191589
 62 0.000002 -0.000000 5.000000 3.053196 1.558589 -0.074928
 63 -0.000007 0.000006 3.713580 -0.001619 -3.122277 -0.475127
 64 0.000002 -0.000000 -5.000000 -0.088726 1.558589 3.066335
 65 7.363602 1.646647 0.495663 3.141593 -1.570796 0.000000
 66 -0.000005 0.000007 3.619081 0.008255 -3.110080 -0.985231
 67 16.573919 0.000000 -0.000000 -0.000000 -0.000000 -1.065827
 68 15.128180 0.000001 0.000000 -0.102296 0.010178 0.114297
 69 5.758665 4.244730 0.000000 0.000000 0.000000 1.667687
 70 3.177726 0.000000 -0.000000 0.000000 0.000000 3.141593
 71 15.708951 0.000001 0.000000 -0.051525 0.003996 0.061523
 72 0.275148 0.189215 -3.445208 3.130898 0.000409 -1.514604
 73 17.210192 -0.000000 -0.000000 -0.000000 -0.000000 -1.893339
 74 0.000001 0.000000 -4.999999 -0.079433 1.546568 -1.570857
 75 0.000002 -0.000003 -3.619081 0.577895 2.675801 -0.242118
 76 16.573921 -0.000001 -0.000002 -0.000000 -0.000000 -1.163030
 77 15.128181 0.000001 0.000001 0.089479 0.309197 0.659208
 78 5.758666 4.244730 -0.000001 -0.000000 -0.000000 1.815142
 79 4.003934 -0.000000 0.000001 0.000000 0.000000 0.000000
 80 15.708954 0.000001 0.000002 0.042277 0.226871 0.443133
 81 0.273998 0.191089 3.439762 -3.130907 -0.000437 -1.508107
 82 17.210194 -0.000001 -0.000002 0.000000 -0.000000 -1.937080
 83 -0.000000 -0.000001 5.000000 -0.079319 1.595025 -1.570742
time 7
  0 -0.650000 0.000000 33.899605 -0.025849 0.174554 -1.569172
  1 5.685103 0.833236 -32.227173 -0.174512 -0.026131 1.569196
  2 -2.276935 0.000003 -1.238188 -1.570795 -1.570451 0.000000
  3 1.797163 0.712161 0.001503 -0.486698 -0.193486 0.107835
  4 4.119903 -0.002657 0.001413 -0.456132 0.215316 0.352103
  5 4.118999 -0.002887 0.001505 -0.480109 0.119659 0.074650
  6 4.118658 -0.002900 0.001530 -0.485878 0.037686 -0.001439
  7 4.120687 -0.002851 -0.000231 0.066676 0.166244 0.642454
  8 4.443600 -0.000002 0.000000 0.541283 0.155500 -0.312862
  9 9.024060 -0.000001 -0.000000 0.000000 0.000000 0.000000
 10 -0.286729 0.117388 1.705035 0.940808 -1.033143 1.553422
 11 6.384775 -0.000000 0.000001 -0.629231 0.366232 -0.823179
 12 10.242680 0.000000 -0.000000 0.000000 0.000000 -1.162552
 13 11.375560 -0.000001 -0.000000 3.084768 0.200674 0.676383
 14 0.728680 0.023431 -1.008292 2.396606 0.246960 1.180207
 15 2.136496 -0.000001 -0.000003 -0.000000 -0.000000 -0.078540
 16 2.313138 0.000001 0.000002 0.000000 0.000000 0.000000
 17 3.115506 -0.886041 -0.021432 -0.166499 0.000392 0.514872
 18 2.011149 -0.000002 -0.000000 0.000000 0.000000 1.322792
 19 2.141382 -0.000001 -0.000001 0.000000 0.000000 0.000000
 20 1.734172 0.000001 -0.000001 0.000000 0.000000 0.660693
 21 0.000006 -4.440594 0.000001 1.570544 -0.062990 -0.195737
 22 5.999999 0.000001 -0.000000 -2.901637 0.000000 -0.000000
 23 0.000001 -4.440602 0.000000 1.569944 -0.062987 0.004053
 24 11.375560 -0.000000 0.000002 -2.398693 -0.060418 0.392425
 25 -0.000001 -4.440605 0.000002 1.570144 -0.062988 0.004040
 26 10.510128 -0.000000 -0.000001 -0.000000 -0.000000 -2.152072
 27 0.000000 -1.748402 4.999998 -0.000000 0.004007 1.602290
 28 5.499999 0.000001 -0.000000 0.197164 -0.000000 -0.000000
 29 -0.000001 -1.940598 5.000000 -0.044472 0.004003 -0.000180
 30 6.551491 0.000000 0.000001 -0.376911 0.259803 -0.542681
 31 -0.000000 -1.940598 5.000002 -0.027189 -0.053376 0.005295
 32 6.551491 0.000000 0.000001 -0.161201 0.149678 -0.245370
 33 -0.000002 -1.940599 4.999997 -0.066572 -0.152786 -0.110311
 34 0.286735 -0.110313 -1.705035 -1.901612 1.023106 0.645617
 35 6.384776 0.000001 0.000001 -0.807223 -0.851063 0.262381
 36 10.242682 -0.000000 0.000001 0.000000 -0.000000 -2.150441
 37 11.375562 -0.000001 0.000001 2.389799 0.705577 0.335474
 38 0.728681 0.023432 1.008292 -1.579583 -0.319038 0.212973
 39 2.136496 0.000002 -0.000000 -0.000000 0.000000 1.282817
 40 2.313138 -0.000001 -0.000000 0.000000 0.000000 3.141593
 41 3.115506 -0.886040 0.021430 0.708959 0.171755 0.347804
 42 2.011150 0.000001 0.000002 -0.000000 -0.000000 2.082010
 43 2.141380 0.000000 -0.000002 0.000000 0.000000 3.141593
 44 1.734171 -0.000000 0.000002 0.000000 -0.000000 1.041748
 45 0.136315 -3.738191 2.525891 1.493698 2.759406 -1.474501
 46 5.613160 0.862367 3.157031 1.595152 -0.135386 0.061522
 47 11.389367 -0.000820 0.158783 1.923081 0.388236 0.073782
 48 0.000000 -4.440599 -0.000000 1.570144 -3.078602 0.004040
 49 6.000001 0.000000 0.000002 1.923082 0.000000 -0.000000
 50 0.000000 -4.440601 0.000000 1.569944 -3.078603 0.004053
 51 10.510133 -0.000001 0.000002 0.000000 -0.000000 -2.646017
 52 -0.000001 -1.748403 -5.000002 3.141593 0.004007 -1.539299
 53 5.500000 0.000000 0.000001 0.229397 0.000000 -0.000000
 54 -0.000001 0.000001 -5.000000 -0.044472 3.137589 -0.000177
 55 6.551490 0.000001 0.000000 -0.229397 -0.303559 -0.020604
 56 -1.266844 -1.937442 -4.950561 -0.066572 -2.988806 -0.110308
 57 6.551490 0.000001 0.000001 -0.229397 -0.303559 -0.020604
 58 0.699370 -1.944207 -5.006848 -0.027189 -3.088217 0.005298
 59 4.226147 -0.003201 0.000000 0.020687 0.089510 0.328468
 60 0.000000 5.000000 -0.000000 -0.153564 0.000087 2.718702
 61 0.000004 -0.000004 -3.713580 0.365818 2.880119 -0.191589
 62 0.000002 -0.000000 5.000000 3.053196 1.558589 -0.074928
 63 -0.000007 0.000006 3.713580 -0.001619 -3.122277 -0.475127
 64 0.000002 -0.000000 -5.000000 -0.088726 1.558589 3.066335
 65 7.363602 1.646647 0.495663 3.141593 -1.570796 0.000000
 66 -0.000005 0.000007 3.619081 0.008255 -3.110080 -0.985231
 67 16.573919 0.000000 -0.000000 -0.000000 -0.000000 -1.065827
 68 15.128180 0.000001 0.000000 -0.102296 0.010178 0.114297
 69 5.758665 4.244730 0.000000 0.000000 0.000000 1.667687
 70 3.177726 0.000000 -0.000000 0.000000 0.000000 3.141593
 71 15.708951 0.000001 0.000000 -0.051525 0.003996 0.061523
 72 0.275148 0.189215 -3.445208 3.130898 0.000409 -1.514604
 73 17.210192 -0.000000 -0.000000 -0.000000 -0.000000 -1.893339
 74 0.000001 0.000000 -4.999999 -0.079433 1.546568 -1.570857
 75 0.000002 -0.000003 -3.619081 0.577895 2.675801 -0.242118
 76 16.573921 -0.000001 -0.000002 -0.000000 -0.000000 -1.163030
 77 15.128181 0.000001 0.000001 0.089479 0.309197 0.659208
 78 5.758666 4.244730 -0.000001 -0.000000 -0.000000 1.815142
 79 4.003934 -0.000000 0.000001 0.000000 0.000000 0.000000
 80 15.708954 0.000001 0.000002 0.042277 0.226871 0.443133
 81 0.273998 0.191089 3.439762 -3.130907 -0.000437 -1.508107
 82 17.210194 -0.000001 -0.000002 0.000000 -0.000000 -1.937080
 83 -0.000000 -0.000001 5.000000 -0.079319 1.595025 -1.570742
time 8
  0 -0.650000 0.000000 33.899605 -0.025849 0.174554 -1.569172
  1 5.685103 0.833236 -32.227173 -0.174512 -0.026131 1.569196
  2 -2.276935 0.000003 -1.238188 -1.570795 -1.570451 0.000000
  3 1.797156 0.712166 0.001512 -0.489926 -0.193801 0.107194
  4 4.119907 -0.002653 0.001421 -0.459185 0.216235 0.351135
  5 4.119000 -0.002884 0.001512 -0.483252 0.119729 0.073960
  6 4.118653 -0.002895 0.001541 -0.488997 0.037517 -0.001871
  7 4.120689 -0.002851 -0.000232 0.066676 0.166244 0.642454
  8 4.443598 0.000000 -0.000000 0.551371 0.145993 -0.307116
  9 9.024060 0.000000 -0.000000 0.000000 0.000000 0.000000
 10 -0.286731 0.117389 1.705035 0.940808 -1.033143 1.553422
 11 6.384775 -0.000000 0.000000 -0.628957 0.376915 -0.798514
 12 10.242683 -0.000000 -0.000001 0.000000 -0.000000 -1.184093
 13 11.375561 0.000000 -0.000000 3.084111 0.200740 0.679771
 14 0.728681 0.023431 -1.008291 2.396606 0.246960 1.180207
 15 2.136499 -0.000002 -0.000001 -0.000000 -0.000000 -0.078540
 16 2.313138 -0.000000 -0.000000 0.000000 0.000000 0.000000
 17 3.115506 -0.886041 -0.021431 -0.166499 0.000392 0.514872
 18 2.011152 0.000003 0.000001 0.000000 0.000000 1.322792
 19 2.141379 -0.000001 0.000000 0.000000 0.000000 0.000000
 20 1.734173 0.000002 0.000000 0.000000 0.000000 0.660693
 21 0.000006 -4.440593 0.000000 1.570544 -0.062990 -0.195737
 22 6.000000 -0.000001 -0.000001 -2.902560 0.000000 0.000000
 23 0.000002 -4.440602 -0.000000 1.569944 -0.062987 0.004053
 24 11.375560 0.000001 0.000003 -2.399149 -0.061222 0.393900
 25 -0.000000 -4.440603 0.000002 1.570144 -0.062988 0.004040
 26 10.510134 0.000001 -0.000002 0.000000 -0.000000 -2.162843
 27 -0.000000 -1.748401 4.999998 0.000000 0.004007 1.602291
 28 5.500000 -0.000001 -0.000001 0.198614 0.000000 0.000000
 29 -0.000002 -1.940598 5.000000 -0.044472 0.004003 -0.000180
 30 6.551491 0.000001 -0.000002 -0.379294 0.264214 -0.532449
 31 0.000000 -1.940599 5.000000 -0.027189 -0.053376 0.005295
 32 6.551491 0.000001 -0.000002 -0.162471 0.151599 -0.240379
 33 -0.000001 -1.940599 4.999996 -0.066572 -0.152786 -0.110311
 34 0.286733 -0.110311 -1.705035 -1.901337 1.026841 0.645922
 35 6.384777 -0.000000 -0.000001 -0.793897 -0.855880 0.231120
 36 10.242682 -0.000001 -0.000002 0.000000 -0.000000 -2.140668
 37 11.375562 -0.000000 0.000003 2.391525 0.704062 0.342554
 38 0.728681 0.023431 1.008295 -1.579583 -0.319038 0.212973
 39 2.136497 0.000001 0.000000 -0.000000 -0.000000 1.282817
 40 2.313136 -0.000000 0.000000 0.000000 0.000000 3.141593
 41 3.115506 -0.886041 0.021432 0.708959 0.171755 0.347804
 42 2.011151 -0.000001 -0.000002 0.000000 -0.000000 2.082010
 43 2.141378 -0.000001 -0.000001 0.000000 0.000000 3.141593
 44 1.734172 -0.000002 -0.000001 -0.000000 -0.000000 1.041748
 45 0.136313 -3.738192 2.525888 1.493698 2.759406 -1.474501
 46 5.613159 0.862367 3.157033 1.595152 -0.135386 0.061522
 47 11.389366 -0.000821 0.158783 1.923404 0.388028 0.077197
 48 -0.000001 -4.440599 0.000001 1.570144 -3.078602 0.004040
 49 6.000000 -0.000002 0.000001 1.923404 -0.000000 -0.000000
 50 -0.000001 -4.440601 -0.000001 1.569944 -3.078603 0.004053
 51 10.510133 -0.000001 -0.000001 0.000000 -0.000000 -2.641131
 52 -0.000000 -1.748401 -5.000000 3.141593 0.004007 -1.539299
 53 5.500000 -0.000000 -0.000001 0.226441 0.000000 0.000000
 54 0.000001 0.000000 -5.000001 -0.044472 3.137589 -0.000177
 55 6.551491 -0.000000 -0.000000 -0.226441 -0.304027 -0.028882
 56 -1.266843 -1.937443 -4.950562 -0.066572 -2.988806 -0.110308
 57 6.551491 -0.000000 -0.000000 -0.226441 -0.304027 -0.028882
 58 0.699371 -1.944207 -5.006849 -0.027189 -3.088217 0.005298
 59 4.226146 -0.003201 0.000001 0.020687 0.089510 0.328468
 60 0.000001 5.000000 0.000000 -0.153564 0.000087 2.718702
 61 0.000004 -0.000004 -3.713580 0.365818 2.880119 -0.191589
 62 0.000002 -0.000000 5.000000 3.053196 1.558589 -0.074928
 63 -0.000007 0.000006 3.713580 -0.001619 -3.122277 -0.475127
 64 0.000002 -0.000000 -5.000000 -0.088726 1.558589 3.066335
 65 7.363602 1.646647 0.495663 3.141593 -1.570796 0.000000
 66 -0.000005 0.000007 3.619081 0.008255 -3.110080 -0.985231
 67 16.573919 0.000000 -0.000000 -0.000000 -0.000000 -1.065827
 68 15.128180 0.000001 0.000000 -0.102296 0.010178 0.114297
 69 5.758665 4.244730 0.000000 0.000000 0.000000 1.667687
 70 3.177726 0.000000 -0.000000 0.000000 0.000000 3.141593
 71 15.708951 0.000001 0.000000 -0.051525 0.003996 0.061523
 72 0.275148 0.189215 -3.445208 3.130898 0.000409 -1.514604
 73 17.210192 -0.000000 -0.000000 -0.000000 -0.000000 -1.893339
 74 0.000001 0.000000 -4.999999 -0.079433 1.546568 -1.570857
 75 0.000002 -0.000003 -3.619081 0.577895 2.675801 -0.242118
 76 16.573921 -0.000001 -0.000002 -0.000000 -0.000000 -1.163030
 77 15.128181 0.000001 0.000001 0.089479 0.309197 0.659208
 78 5.758666 4.244730 -0.000001 -0.000000 -0.000000 1.815142
 79 4.003934 -0.000000 0.000001 0.000000 0.000000 0.000000
 80 15.708954 0.000001 0.000002 0.042277 0.226871 0.443133
 81 0.273998 0.191089 3.439762 -3.130907 -0.000437 -1.508107
 82 17.210194 -0.000001 -0.000002 0.000000 -0.000000 -1.937080
 83 -0.000000 -0.000001 5.000000 -0.079319 1.595025 -1.570742
time 9
  0 -0.650000 0.000000 33.899605 -0.025849 0.174554 -1.569172
  1 5.685103 0.833236 -32.227173 -0.174512 -0.026131 1.569196
  2 -2.276935 0.000003 -1.238188 -1.570795 -1.570451 0.000000
  3 1.797150 0.712172 0.001523 -0.493915 -0.194194 0.106403
  4 4.119903 -0.002648 0.001431 -0.462959 0.217366 0.349936
  5 4.118999 -0.002878 0.001523 -0.487133 0.119812 0.073106
  6 4.118652 -0.002889 0.001552 -0.492849 0.037307 -0.002403
  7 4.120690 -0.002851 -0.000234 0.066676 0.166244 0.642454
  8 4.443599 0.000000 0.000000 0.563725 0.134151 -0.300209
  9 9.024060 0.000001 0.000001 0.000000 0.000000 0.000000
 10 -0.286730 0.117389 1.705035 0.940808 -1.033143 1.553422
 11 6.384778 0.000000 0.000002 -0.628616 0.389911 -0.768144
 12 10.242682 0.000000 -0.000001 0.000000 0.000000 -1.210480
 13 11.375562 -0.000001 -0.000000 3.083754 0.200648 0.683541
 14 0.728680 0.023428 -1.008291 2.396606 0.246960 1.180207
 15 2.136496 0.000000 -0.000001 -0.000000 0.000000 -0.078540
 16 2.313138 0.000001 0.000000 0.000000 0.000000 0.000000
 17 3.115506 -0.886043 -0.021430 -0.166499 0.000392 0.514872
 18 2.011151 0.000001 0.000000 -0.000000 0.000000 1.322792
 19 2.141380 0.000000 0.000001 0.000000 0.000000 0.000000
 20 1.734173 0.000000 -0.000000 0.000000 0.000000 0.660693
 21 0.000004 -4.440593 0.000000 1.570544 -0.062990 -0.195737
 22 6.000000 -0.000002 -0.000001 -2.903233 -0.000000 -0.000000
 23 -0.000000 -4.440601 0.000001 1.569944 -0.062987 0.004053
 24 11.375562 -0.000000 0.000002 -2.399459 -0.062147 0.395492
 25 -0.000000 -4.440603 -0.000001 1.570144 -0.062988 0.004040
 26 10.510131 -0.000000 -0.000001 0.000000 0.000000 -2.176037
 27 0.000002 -1.748400 4.999999 0.000000 0.004007 1.602290
 28 5.500000 -0.000001 -0.000000 0.200652 0.000000 -0.000000
 29 -0.000003 -1.940598 5.000000 -0.044472 0.004003 -0.000180
 30 6.551493 0.000001 -0.000000 -0.382713 0.270042 -0.519604
 31 0.000000 -1.940599 5.000004 -0.027189 -0.053376 0.005295
 32 6.551493 0.000001 -0.000000 -0.164244 0.154158 -0.234038
 33 0.000000 -1.940598 4.999996 -0.066572 -0.152786 -0.110311
 34 0.286733 -0.110311 -1.705034 -1.900985 1.031456 0.646304
 35 6.384777 0.000001 -0.000002 -0.777447 -0.861359 0.192627
 36 10.242683 -0.000001 -0.000001 0.000000 -0.000000 -2.128487
 37 11.375562 0.000001 0.000002 2.393590 0.702180 0.350298
 38 0.728681 0.023431 1.008293 -1.579583 -0.319038 0.212973
 39 2.136497 -0.000002 -0.000001 0.000000 -0.000000 1.282817
 40 2.313141 0.000000 0.000001 0.000000 0.000000 3.141593
 41 3.115506 -0.886041 0.021432 0.708959 0.171755 0.347804
 42 2.011151 -0.000001 -0.000001 -0.000000 -0.000000 2.082010
 43 2.141379 0.000000 -0.000001 0.000000 0.000000 3.141593
 44 1.734172 -0.000002 -0.000001 -0.000000 0.000000 1.041748
 45 0.136314 -3.738193 2.525892 1.493698 2.759406 -1.474501
 46 5.613159 0.862365 3.157033 1.595152 -0.135386 0.061522
 47 11.389366 -0.000820 0.158783 1.923869 0.387709 0.080959
 48 -0.000001 -4.440599 0.000001 1.570144 -3.078602 0.004040
 49 6.000000 -0.000000 0.000001 1.923868 0.000000 0.000000
 50 0.000002 -4.440601 -0.000002 1.569944 -3.078603 0.004053
 51 10.510132 -0.000000 -0.000001 0.000000 -0.000000 -2.635040
 52 -0.000000 -1.748398 -5.000001 -3.141593 0.004007 -1.539299
 53 5.500000 -0.000000 -0.000001 0.222725 -0.000000 0.000000
 54 0.000000 0.000002 -5.000000 -0.044472 3.137589 -0.000177
 55 6.551490 0.000001 0.000000 -0.222725 -0.304312 -0.038892
 56 -1.266843 -1.937443 -4.950561 -0.066572 -2.988806 -0.110308
 57 6.551491 0.000001 0.000000 -0.222725 -0.304312 -0.038892
 58 0.699371 -1.944208 -5.006847 -0.027189 -3.088217 0.005298
 59 4.226148 -0.003201 -0.000001 0.020687 0.089510 0.328468
 60 0.000002 5.000000 0.000000 -0.153564 0.000087 2.718702
 61 0.000004 -0.000004 -3.713580 0.365818 2.880119 -0.191589
 62 0.000002 -0.000000 5.000000 3.053196 1.558589 -0.074928
 63 -0.000007 0.000006 3.713580 -0.001619 -3.122277 -0.475127
 64 0.000002 -0.000000 -5.000000 -0.088726 1.558589 3.066335
 65 7.363602 1.646647 0.495663 3.141593 -1.570796 0.000000
 66 -0.000005 0.000007 3.619081 0.008255 -3.110080 -0.985231
 67 16.573919 0.000000 -0.000000 -0.000000 -0.000000 -1.065827
 68 15.128180 0.000001 0.000000 -0.102296 0.010178 0.114297
 69 5.758665 4.244730 0.000000 0.000000 0.000000 1.667687
 70 3.177726 0.000000 -0.000000 0.000000 0.000000 3.141593
 71 15.708951 0.000001 0.000000 -0.051525 0.003996 0.061523
 72 0.275148 0.189215 -3.445208 3.130898 0.000409 -1.514604
 73 17.210192 -0.000000 -0.000000 -0.000000 -0.000000 -1.893339
 74 0.000001 0.000000 -4.999999 -0.079433 1.546568 -1.570857
 75 0.000002 -0.000003 -3.619081 0.577895 2.675801 -0.242118
 76 16.573921 -0.000001 -0.000002 -0.000000 -0.000000 -1.163030
 77 15.128181 0.000001 0.000001 0.089479 0.309197 0.659208
 78 5.758666 4.244730 -0.000001 -0.000000 -0.000000 1.815142
 79 4.003934 -0.000000 0.000001 0.000000 0.000000 0.000000
 80 15.708954 0.000001 0.000002 0.042277 0.226871 0.443133
 81 0.273998 0.191089 3.439762 -3.130907 -0.000437 -1.508107
 82 17.210194 -0.000001 -0.000002 0.000000 -0.000000 -1.937080
 83 -0.000000 -0.000001 5.000000 -0.079319 1.595025 -1.570742
time 10
  0 -0.650000 0.000000 33.899605 -0.025849 0.174554 -1.569172
  1 5.685103 0.833236 -32.227173 -0.174512 -0.026131 1.569196
  2 -2.276935 0.000003 -1.238188 -1.570795 -1.570451 0.000000
  3 1.797144 0.712178 0.001533 -0.497523 -0.194551 0.105688
  4 4.119902 -0.002644 0.001441 -0.466375 0.218385 0.348847
  5 4.118997 -0.002873 0.001533 -0.490645 0.119884 0.072334
  6 4.118655 -0.002885 0.001560 -0.496334 0.037114 -0.002884
  7 4.120689 -0.002851 -0.000232 0.066676 0.166244 0.642454
  8 4.443598 -0.000001 0.000000 0.574804 0.123344 -0.294143
  9 9.024060 0.000000 0.000000 0.000000 0.000000 0.000000
 10 -0.286733 0.117389 1.705036 0.940808 -1.033143 1.553422
 11 6.384775 -0.000000 0.000003 -0.628166 0.401699 -0.740793
 12 10.242682 -0.000001 -0.000000 -0.000000 0.000000 -1.233470
 13 11.375560 0.000000 -0.000001 3.083277 0.200757 0.686426
 14 0.728680 0.023432 -1.008292 2.396606 0.246960 1.180207
 15 2.136497 -0.000001 -0.000000 -0.000000 -0.000000 -0.078540
 16 2.313140 -0.000000 -0.000001 0.000000 0.000000 0.000000
 17 3.115505 -0.886043 -0.021430 -0.166499 0.000392 0.514872
 18 2.011152 -0.000000 0.000001 0.000000 0.000000 1.322791
 19 2.141379 0.000000 0.000000 0.000000 0.000000 0.000000
 20 1.734173 -0.000000 0.000001 -0.000000 -0.000000 0.660693
 21 0.000008 -4.440593 -0.000000 1.570544 -0.062990 -0.195737
 22 6.000000 -0.000002 -0.000000 -2.903948 -0.000000 -0.000000
 23 -0.000000 -4.440601 0.000000 1.569944 -0.062987 0.004053
 24 11.375562 -0.000002 0.000002 -2.399808 -0.062792 0.396756
 25 -0.000002 -4.440604 -0.000001 1.570144 -0.062988 0.004040
 26 10.510131 0.000000 -0.000001 0.000000 -0.000000 -2.187531
 27 0.000001 -1.748400 4.999999 -0.000000 0.004007 1.602290
 28 5.500001 0.000000 -0.000001 0.202633 0.000000 -0.000000
 29 -0.000002 -1.940598 5.000001 -0.044472 0.004003 -0.000180
 30 6.551490 0.000000 0.000002 -0.386095 0.275831 -0.507709
 31 -0.000001 -1.940598 5.000002 -0.027189 -0.053376 0.005295
 32 6.551490 0.000000 0.000002 -0.165957 0.156712 -0.228095
 33 -0.000001 -1.940600 4.999996 -0.066572 -0.152786 -0.110311
 34 0.286734 -0.110313 -1.705035 -1.900656 1.035630 0.646654
 35 6.384776 -0.000000 0.000002 -0.762606 -0.865880 0.157946
 36 10.242683 -0.000004 -0.000001 0.000000 -0.000000 -2.117367
 37 11.375561 -0.000001 0.000001 2.395605 0.700272 0.357189
 38 0.728681 0.023430 1.008295 -1.579583 -0.319038 0.212973
 39 2.136496 0.000001 0.000000 0.000000 -0.000000 1.282817
 40 2.313138 -0.000001 0.000000 0.000000 0.000000 3.141593
 41 3.115506 -0.886042 0.021434 0.708959 0.171755 0.347804
 42 2.011150 0.000000 -0.000002 0.000000 -0.000000 2.082010
 43 2.141380 -0.000000 -0.000002 0.000000 0.000000 3.141593
 44 1.734172 -0.000000 -0.000001 0.000000 -0.000000 1.041748
 45 0.136314 -3.738193 2.525890 1.493698 2.759406 -1.474501
 46 5.613159 0.862366 3.157033 1.595152 -0.135386 0.061522
 47 11.389367 -0.000818 0.158784 1.924394 0.387331 0.084336
 48 -0.000001 -4.440599 0.000000 1.570144 -3.078602 0.004040
 49 6.000000 0.000001 0.000002 1.924394 0.000000 -0.000000
 50 0.000001 -4.440602 -0.000001 1.569944 -3.078603 0.004053
 51 10.510131 -0.000003 -0.000000 -0.000000 0.000000 -2.629480
 52 -0.000001 -1.748398 -5.000001 3.141593 0.004007 -1.539299
 53 5.499999 -0.000003 -0.000001 0.219330 0.000000 -0.000000
 54 0.000001 -0.000000 -5.000000 -0.044472 3.137590 -0.000177
 55 6.551491 0.000000 0.000000 -0.219330 -0.304302 -0.047737
 56 -1.266844 -1.937443 -4.950561 -0.066572 -2.988806 -0.110308
 57 6.551492 0.000000 0.000000 -0.219330 -0.304302 -0.047737
 58 0.699370 -1.944209 -5.006846 -0.027189 -3.088217 0.005298
 59 4.226149 -0.003202 -0.000000 0.020687 0.089510 0.328468
 60 -0.000000 5.000001 0.000000 -0.153564 0.000087 2.718702
 61 0.000004 -0.000004 -3.713580 0.365818 2.880119 -0.191589
 62 0.000002 -0.000000 5.000000 3.053196 1.558589 -0.074928
 63 -0.000007 0.000006 3.713580 -0.001619 -3.122277 -0.475127
 64 0.000002 -0.000000 -5.000000 -0.088726 1.558589 3.066335
 65 7.363602 1.646647 0.495663 3.141593 -1.570796 0.000000
 66 -0.000005 0.000007 3.619081 0.008255 -3.110080 -0.985231
 67 16.573919 0.000000 -0.000000 -0.000000 -0.000000 -1.065827
 68 15.128180 0.000001 0.000000 -0.102296 0.010178 0.114297
 69 5.758665 4.244730 0.000000 0.000000 0.000000 1.667687
 70 3.177726 0.000000 -0.000000 0.000000 0.000000 3.141593
 71 15.708951 0.000001 0.000000 -0.051525 0.003996 0.061523
 72 0.275148 0.189215 -3.445208 3.130898 0.000409 -1.514604
 73 17.210192 -0.000000 -0.000000 -0.000000 -0.000000 -1.893339
 74 0.000001 0.000000 -4.999999 -0.079433 1.546568 -1.570857
 75 0.000002 -0.000003 -3.619081 0.577895 2.675801 -0.242118
 76 16.573921 -0.000001 -0.000002 -0.000000 -0.000000 -1.163030
 77 15.128181 0.000001 0.000001 0.089479 0.309197 0.659208
 78 5.758666 4.244730 -0.000001 -0.000000 -0.000000 1.815142
 79 4.003934 -0.000000 0.000001 0.000000 0.000000 0.000000
 80 15.708954 0.000001 0.000002 0.042277 0.226871 0.443133
 81 0.273998 0.191089 3.439762 -3.130907 -0.000437 -1.508107
 82 17.210194 -0.000001 -0.000002 0.000000 -0.000000 -1.937080
 83 -0.000000 -0.000001 5.000000 -0.079319 1.595025 -1.570742
end
