version 1
nodes
  0 "Bip01"  -1
  1 "Bip01 Footsteps"   0
  2 "Bip01 Pelvis"   0
  3 "Bip01 Spine"   2
  4 "Bip01 Spine1"   3
  5 "Bip01 Spine2"   4
  6 "Bip01 Spine3"   5
  7 "Bip01 Neck"   6
  8 "Bip01 Head"   7
  9 "Dummy21"   8
 10 "Bip01 L Clavicle"   7
 11 "Bip01 L UpperArm"  10
 12 "Bip01 L Forearm"  11
 13 "Bip01 L Hand"  12
 14 "Bip01 L Finger0"  13
 15 "Bip01 L Finger01"  14
 16 "Dummy06"  15
 17 "Bip01 L Finger1"  13
 18 "Bip01 L Finger11"  17
 19 "Dummy03"  18
 20 "-- L knuckle"  17
 21 "-- L knuckle_end"  20
 22 "-- L Forearm twist"  12
 23 "-- L Forearm twist_end"  22
 24 "-- L wrist"  12
 25 "-- L wrist_end"  24
 26 "-- L Elbow"  11
 27 "--L Elbow_end"  26
 28 "-- L bicep twist"  11
 29 "-- L bicep twist_end"  28
 30 "-- L shoulder outside"  10
 31 "-- L shoulder outside_end"  30
 32 "-- L Shoulder inside"  10
 33 "-- L Shoulder inside_end"  32
 34 "Bip01 R Clavicle"   7
 35 "Bip01 R UpperArm"  34
 36 "Bip01 R Forearm"  35
 37 "Bip01 R Hand"  36
 38 "Bip01 R Finger0"  37
 39 "Bip01 R Finger01"  38
 40 "Dummy01"  39
 41 "Bip01 R Finger1"  37
 42 "Bip01 R Finger11"  41
 43 "Dummy02"  42
 44 "-- R knuckle"  41
 45 "Point06"  44
 46 "Line01"  37
 47 "-- R wrist"  36
 48 "-- R wrist_end"  47
 49 "-- R forearm twist"  36
 50 "-- R forearm twist_end"  49
 51 "-- R Elbow"  35
 52 "--R Elbow_end"  51
 53 "-- R bicep twist"  35
 54 "-- R bicep twist_end"  53
 55 "-- R Shoulder inside"  34
 56 "-- R Shoulder inside_end"  55
 57 "-- R shoulder outside"  34
 58 "-- R shoulder outside_end"  57
 59 "-- Neck smooth"   6
 60 "-- neck smooth end"  59
 61 "-- R Butt"   2
 62 "--R Butt_end"  61
 63 "-- L butt"   2
 64 "--L butt_end"  63
 65 "GIGN01"   2
 66 "Bip01 L Thigh"   2
 67 "Bip01 L Calf"  66
 68 "Bip01 L Foot"  67
 69 "Bip01 L Toe0"  68
 70 "Dummy16"  69
 71 "-- L ankle"  67
 72 "-- L ankleend"  71
 73 "-- L Knee"  66
 74 "--L Knee_end"  73
 75 "Bip01 R Thigh"   2
 76 "Bip01 R Calf"  75
 77 "Bip01 R Foot"  76
 78 "Bip01 R Toe0"  77
 79 "Dummy11"  78
 80 "-- R Ankle"  76
 81 "-- R ankleend"  80
 82 "-- R Knee"  75
 83 "--R Knee_end"  82
end
skeleton
time 0
  0 -0.650000 0.000000 33.899605 -0.025849 0.174554 -1.569172
  1 5.685103 0.833236 -32.227173 -0.174512 -0.026131 1.569196
  2 -2.276935 0.000003 -1.238188 -1.570795 -1.570451 0.000000
  3 1.796800 0.712136 0.001410 -0.445866 0.052592 -0.140015
  4 4.119827 -0.002728 0.001350 -0.426610 0.104122 0.374089
  5 4.118912 -0.002938 0.001425 -0.449844 -0.042598 0.125036
  6 4.119636 -0.002854 0.001245 -0.389754 0.001160 0.346080
  7 4.120369 -0.003057 -0.000250 0.070740 0.090874 0.530427
  8 4.443598 0.000001 0.000001 0.507888 0.241615 -0.000295
  9 9.024061 -0.000003 0.000000 0.000000 0.000000 0.000000
 10 -0.157246 0.125502 1.721257 1.098416 -1.012049 1.524588
 11 6.384776 0.000001 0.000001 -0.497500 0.409394 -0.899080
 12 10.242685 0.000001 0.000000 -0.000000 -0.000000 -0.638834
 13 11.375560 0.000001 -0.000000 2.996169 0.292017 0.382677
 14 0.728681 0.023432 -1.008292 2.396606 0.246960 1.180207
 15 2.136497 -0.000000 0.000000 -0.000000 0.000000 -0.078540
 16 2.313139 -0.000001 -0.000000 0.000000 0.000000 0.000000
 17 3.115506 -0.886040 -0.021431 -0.166499 0.000392 0.514872
 18 2.011150 0.000002 0.000001 0.000000 0.000000 1.322792
 19 2.141379 0.000000 0.000000 0.000000 0.000000 0.000000
 20 1.734173 0.000002 -0.000001 0.000000 -0.000000 0.660693
 21 0.000007 -4.440594 0.000001 1.570544 -0.062990 -0.195737
 22 6.000000 0.000004 -0.000000 -2.961012 -0.000000 0.000000
 23 0.000001 -4.440601 -0.000000 1.569944 -0.062987 0.004053
 24 11.375561 0.000002 0.000002 -2.431815 0.049925 0.286970
 25 -0.000001 -4.440603 -0.000000 1.570144 -0.062988 0.004040
 26 10.510132 0.000000 -0.000001 -0.000000 -0.000000 -1.890213
 27 0.000000 -1.748401 4.999999 -0.000000 0.004007 1.602291
 28 5.500000 -0.000001 0.000001 0.130383 -0.000000 -0.000000
 29 -0.000003 -1.940598 5.000000 -0.044472 0.004003 -0.000180
 30 6.551489 0.000000 0.000001 -0.266071 0.296072 -0.570841
 31 -0.000001 -1.940600 5.000001 -0.027189 -0.053376 0.005295
 32 6.551489 0.000000 0.000001 -0.104881 0.160628 -0.260925
 33 0.000000 -1.940598 4.999996 -0.066572 -0.152786 -0.110311
 34 0.157247 -0.118422 -1.721254 -1.248577 1.339722 1.399563
 35 6.384777 -0.000001 0.000000 -0.581991 -0.859432 -0.227252
 36 10.242682 0.000000 -0.000001 0.000000 0.000000 -1.875389
 37 11.375561 0.000000 0.000001 2.672981 0.509854 0.549883
 38 0.728681 0.023431 1.008292 -1.579583 -0.319038 0.212973
 39 2.136497 -0.000001 -0.000001 -0.000000 0.000000 1.282817
 40 2.313140 0.000000 0.000000 0.000000 0.000000 3.141593
 41 3.115507 -0.886041 0.021431 0.708959 0.171755 0.347804
 42 2.011153 -0.000001 -0.000001 -0.000000 0.000000 2.082010
 43 2.141380 0.000001 0.000001 0.000000 0.000000 3.141593
 44 1.734172 0.000000 -0.000001 -0.000000 0.000000 1.041748
 45 0.136315 -3.738193 2.525890 1.493698 2.759406 -1.474501
 46 5.613161 0.862367 3.157030 1.595152 -0.135386 0.061522
 47 11.389365 -0.000819 0.158781 2.065947 0.333992 0.189203
 48 0.000001 -4.440598 -0.000001 1.570144 -3.078602 0.004040
 49 5.999999 0.000001 -0.000000 2.065947 0.000000 0.000000
 50 0.000003 -4.440602 -0.000002 1.569944 -3.078603 0.004053
 51 10.510132 -0.000001 -0.000000 -0.000000 -0.000000 -2.508491
 52 -0.000002 -1.748400 -5.000001 -3.141593 0.004007 -1.539299
 53 5.500000 -0.000002 -0.000001 0.180701 0.000000 -0.000000
 54 0.000001 -0.000002 -4.999999 -0.044472 3.137589 -0.000177
 55 6.551491 -0.000000 -0.000000 -0.180701 -0.282618 -0.134295
 56 -1.266843 -1.937445 -4.950558 -0.066572 -2.988806 -0.110308
 57 6.551491 -0.000001 -0.000000 -0.180701 -0.282618 -0.134295
 58 0.699371 -1.944209 -5.006845 -0.027189 -3.088217 0.005298
 59 4.226144 -0.003201 0.000001 0.030018 0.051190 0.279991
 60 0.000001 5.000001 0.000000 -0.153564 0.000087 2.718702
 61 0.000004 -0.000004 -3.713580 0.365818 2.880119 -0.191589
 62 0.000002 -0.000000 5.000000 3.053196 1.558589 -0.074928
 63 -0.000007 0.000006 3.713580 -0.001619 -3.122277 -0.475127
 64 0.000002 -0.000000 -5.000000 -0.088726 1.558589 3.066335
 65 7.363602 1.646647 0.495663 3.141593 -1.570796 0.000000
 66 -0.000005 0.000007 3.619081 0.008255 -3.110080 -0.985231
 67 16.573919 0.000000 -0.000000 -0.000000 -0.000000 -1.065827
 68 15.128180 0.000001 0.000000 -0.102296 0.010178 0.114297
 69 5.758665 4.244730 0.000000 0.000000 0.000000 1.667687
 70 3.177726 0.000000 -0.000000 0.000000 0.000000 3.141593
 71 15.708951 0.000001 0.000000 -0.051525 0.003996 0.061523
 72 0.275148 0.189215 -3.445208 3.130898 0.000409 -1.514604
 73 17.210192 -0.000000 -0.000000 -0.000000 -0.000000 -1.893339
 74 0.000001 0.000000 -4.999999 -0.079433 1.546568 -1.570857
 75 0.000002 -0.000003 -3.619081 0.577895 2.675801 -0.242118
 76 16.573921 -0.000001 -0.000002 -0.000000 -0.000000 -1.163030
 77 15.128181 0.000001 0.000001 0.089479 0.309197 0.659208
 78 5.758666 4.244730 -0.000001 -0.000000 -0.000000 1.815142
 79 4.003934 -0.000000 0.000001 0.000000 0.000000 0.000000
 80 15.708954 0.000001 0.000002 0.042277 0.226871 0.443133
 81 0.273998 0.191089 3.439762 -3.130907 -0.000437 -1.508107
 82 17.210194 -0.000001 -0.000002 0.000000 -0.000000 -1.937080
 83 -0.000000 -0.000001 5.000000 -0.079319 1.595025 -1.570742
time 1
  0 -0.650000 0.000000 33.899605 -0.025849 0.174554 -1.569172
  1 5.685103 0.833236 -32.227173 -0.174512 -0.026131 1.569196
  2 -2.276935 0.000003 -1.238188 -1.570795 -1.570451 0.000000
  3 1.796803 0.712132 0.001404 -0.443745 0.053543 -0.140220
  4 4.119823 -0.002731 0.001344 -0.424585 0.103136 0.374389
  5 4.118910 -0.002940 0.001418 -0.447712 -0.043192 0.125105
  6 4.119635 -0.002857 0.001239 -0.387728 0.000227 0.346166
  7 4.120397 -0.003038 -0.000247 0.070316 0.090163 0.540546
  8 4.443599 0.000002 0.000000 0.504394 0.250399 -0.011704
  9 9.024061 -0.000002 0.000000 0.000000 0.000000 0.000000
 10 -0.156016 0.124778 1.721418 1.098544 -1.013386 1.514377
 11 6.384775 -0.000001 -0.000001 -0.494074 0.407429 -0.907911
 12 10.242682 0.000001 -0.000001 -0.000000 0.000000 -0.622581
 13 11.375561 0.000001 -0.000001 2.986804 0.290685 0.376970
 14 0.728681 0.023432 -1.008292 2.396606 0.246960 1.180207
 15 2.136494 0.000000 0.000001 0.000000 -0.000000 -0.078540
 16 2.313139 -0.000001 -0.000000 0.000000 0.000000 0.000000
 17 3.115507 -0.886041 -0.021430 -0.166499 0.000392 0.514872
 18 2.011150 -0.000000 0.000001 0.000000 0.000000 1.322792
 19 2.141378 0.000000 0.000000 0.000000 0.000000 0.000000
 20 1.734172 -0.000000 0.000000 -0.000000 -0.000000 0.660693
 21 0.000007 -4.440593 0.000000 1.570544 -0.062990 -0.195737
 22 6.000000 0.000001 -0.000001 -2.969441 -0.000000 -0.000000
 23 0.000001 -4.440602 -0.000000 1.569944 -0.062987 0.004053
 24 11.375561 0.000001 0.000002 -2.436219 0.049967 0.284532
 25 -0.000002 -4.440604 -0.000000 1.570144 -0.062988 0.004040
 26 10.510129 0.000001 -0.000001 0.000000 0.000000 -1.882087
 27 0.000000 -1.748402 4.999999 -0.000000 0.004007 1.602291
 28 5.499997 0.000000 -0.000001 0.128564 -0.000000 0.000000
 29 -0.000003 -1.940598 5.000001 -0.044472 0.004003 -0.000180
 30 6.551489 -0.000000 -0.000001 -0.263159 0.296221 -0.574135
 31 -0.000001 -1.940600 5.000001 -0.027189 -0.053376 0.005295
 32 6.551489 -0.000000 -0.000001 -0.103327 0.160549 -0.262499
 33 0.000001 -1.940599 4.999997 -0.066572 -0.152786 -0.110311
 34 0.156021 -0.117700 -1.721418 -1.252180 1.335516 1.386306
 35 6.384777 0.000000 -0.000000 -0.586492 -0.856351 -0.218775
 36 10.242682 -0.000001 -0.000001 0.000000 -0.000000 -1.875870
 37 11.375560 -0.000001 0.000002 2.673594 0.510261 0.549999
 38 0.728682 0.023431 1.008292 -1.579583 -0.319038 0.212973
 39 2.136497 -0.000002 -0.000001 -0.000000 0.000000 1.282817
 40 2.313141 0.000000 0.000000 0.000000 0.000000 3.141593
 41 3.115507 -0.886041 0.021432 0.708959 0.171755 0.347804
 42 2.011151 -0.000000 0.000000 0.000000 0.000000 2.082010
 43 2.141380 -0.000000 0.000001 0.000000 0.000000 3.141593
 44 1.734172 -0.000000 0.000001 0.000000 0.000000 1.041748
 45 0.136315 -3.738191 2.525890 1.493698 2.759406 -1.474501
 46 5.613158 0.862366 3.157032 1.595152 -0.135386 0.061522
 47 11.389366 -0.000819 0.158783 2.066166 0.334243 0.189109
 48 0.000001 -4.440600 -0.000001 1.570144 -3.078602 0.004040
 49 5.999998 -0.000001 0.000000 2.066166 0.000000 -0.000000
 50 0.000003 -4.440602 -0.000001 1.569944 -3.078603 0.004053
 51 10.510131 0.000000 0.000000 0.000000 0.000000 -2.508731
 52 0.000000 -1.748402 -5.000001 -3.141593 0.004007 -1.539299
 53 5.500000 -0.000002 -0.000000 0.181586 0.000000 -0.000000
 54 -0.000002 0.000002 -5.000000 -0.044472 3.137589 -0.000177
 55 6.551491 -0.000001 0.000002 -0.181586 -0.282496 -0.132595
 56 -1.266843 -1.937443 -4.950560 -0.066572 -2.988806 -0.110308
 57 6.551491 -0.000001 0.000002 -0.181586 -0.282496 -0.132595
 58 0.699371 -1.944206 -5.006847 -0.027189 -3.088217 0.005298
 59 4.226144 -0.003200 0.000001 0.029719 0.050844 0.284615
 60 0.000000 5.000001 0.000000 -0.153564 0.000087 2.718702
 61 0.000004 -0.000004 -3.713580 0.365818 2.880119 -0.191589
 62 0.000002 -0.000000 5.000000 3.053196 1.558589 -0.074928
 63 -0.000007 0.000006 3.713580 -0.001619 -3.122277 -0.475127
 64 0.000002 -0.000000 -5.000000 -0.088726 1.558589 3.066335
 65 7.363602 1.646647 0.495663 3.141593 -1.570796 0.000000
 66 -0.000005 0.000007 3.619081 0.008255 -3.110080 -0.985231
 67 16.573919 0.000000 -0.000000 -0.000000 -0.000000 -1.065827
 68 15.128180 0.000001 0.000000 -0.102296 0.010178 0.114297
 69 5.758665 4.244730 0.000000 0.000000 0.000000 1.667687
 70 3.177726 0.000000 -0.000000 0.000000 0.000000 3.141593
 71 15.708951 0.000001 0.000000 -0.051525 0.003996 0.061523
 72 0.275148 0.189215 -3.445208 3.130898 0.000409 -1.514604
 73 17.210192 -0.000000 -0.000000 -0.000000 -0.000000 -1.893339
 74 0.000001 0.000000 -4.999999 -0.079433 1.546568 -1.570857
 75 0.000002 -0.000003 -3.619081 0.577895 2.675801 -0.242118
 76 16.573921 -0.000001 -0.000002 -0.000000 -0.000000 -1.163030
 77 15.128181 0.000001 0.000001 0.089479 0.309197 0.659208
 78 5.758666 4.244730 -0.000001 -0.000000 -0.000000 1.815142
 79 4.003934 -0.000000 0.000001 0.000000 0.000000 0.000000
 80 15.708954 0.000001 0.000002 0.042277 0.226871 0.443133
 81 0.273998 0.191089 3.439762 -3.130907 -0.000437 -1.508107
 82 17.210194 -0.000001 -0.000002 0.000000 -0.000000 -1.937080
 83 -0.000000 -0.000001 5.000000 -0.079319 1.595025 -1.570742
time 2
  0 -0.650000 0.000000 33.899605 -0.025849 0.174554 -1.569172
  1 5.685103 0.833236 -32.227173 -0.174512 -0.026131 1.569196
  2 -2.276935 0.000003 -1.238188 -1.570795 -1.570451 0.000000
  3 1.796802 0.712129 0.001397 -0.441332 0.054625 -0.140450
  4 4.119824 -0.002734 0.001337 -0.422281 0.102014 0.374729
  5 4.118912 -0.002946 0.001411 -0.445285 -0.043869 0.125181
  6 4.119632 -0.002859 0.001234 -0.385423 -0.000834 0.346261
  7 4.120435 -0.003019 -0.000247 0.069824 0.089360 0.552061
  8 4.443599 -0.000001 0.000000 0.500374 0.260397 -0.024725
  9 9.024062 -0.000000 0.000000 0.000000 0.000000 -0.000000
 10 -0.154630 0.123939 1.721601 1.098721 -1.014907 1.502729
 11 6.384778 -0.000001 -0.000002 -0.490581 0.404854 -0.919026
 12 10.242682 0.000000 -0.000000 -0.000000 -0.000000 -0.602784
 13 11.375561 0.000002 -0.000000 2.976760 0.289370 0.370246
 14 0.728681 0.023430 -1.008292 2.396606 0.246960 1.180207
 15 2.136497 0.000000 -0.000000 0.000000 -0.000000 -0.078540
 16 2.313139 -0.000000 -0.000001 0.000000 0.000000 0.000000
 17 3.115507 -0.886042 -0.021432 -0.166499 0.000392 0.514872
 18 2.011150 -0.000001 0.000000 0.000000 0.000000 1.322792
 19 2.141378 -0.000000 0.000000 0.000000 0.000000 0.000000
 20 1.734172 0.000000 0.000000 -0.000000 0.000000 0.660693
 21 0.000006 -4.440594 -0.000001 1.570544 -0.062990 -0.195737
 22 5.999999 0.000001 -0.000000 -2.978471 0.000000 -0.000000
 23 0.000002 -4.440599 -0.000000 1.569944 -0.062987 0.004053
 24 11.375561 0.000002 0.000002 -2.440915 0.050263 0.281649
 25 0.000000 -4.440605 0.000001 1.570144 -0.062988 0.004040
 26 10.510130 -0.000000 -0.000000 -0.000000 -0.000000 -1.872188
 27 0.000000 -1.748401 4.999999 0.000000 0.004007 1.602291
 28 5.500001 0.000001 0.000000 0.126635 -0.000000 0.000000
 29 -0.000003 -1.940599 5.000001 -0.044472 0.004003 -0.000180
 30 6.551491 -0.000000 -0.000001 -0.260123 0.296345 -0.578279
 31 0.000001 -1.940599 5.000002 -0.027189 -0.053376 0.005295
 32 6.551491 -0.000000 -0.000001 -0.101671 0.160456 -0.264447
 33 -0.000001 -1.940599 4.999997 -0.066572 -0.152786 -0.110311
 34 0.154633 -0.116862 -1.721601 -1.256072 1.330730 1.371425
 35 6.384776 0.000000 -0.000002 -0.591617 -0.852844 -0.209136
 36 10.242683 0.000000 -0.000000 -0.000000 0.000000 -1.876392
 37 11.375563 -0.000000 0.000000 2.674826 0.511051 0.550135
 38 0.728681 0.023431 1.008292 -1.579583 -0.319038 0.212973
 39 2.136497 -0.000001 -0.000001 -0.000000 0.000000 1.282817
 40 2.313140 0.000000 0.000000 0.000000 0.000000 3.141593
 41 3.115507 -0.886042 0.021432 0.708959 0.171755 0.347804
 42 2.011147 0.000000 0.000001 0.000000 0.000000 2.082010
 43 2.141378 -0.000002 0.000001 0.000000 0.000000 3.141593
 44 1.734173 -0.000002 0.000000 -0.000000 0.000000 1.041748
 45 0.136315 -3.738192 2.525891 1.493698 2.759406 -1.474501
 46 5.613160 0.862366 3.157032 1.595152 -0.135386 0.061522
 47 11.389366 -0.000819 0.158781 2.066617 0.334726 0.188882
 48 0.000001 -4.440599 -0.000000 1.570144 -3.078602 0.004040
 49 6.000001 0.000002 -0.000000 2.066617 -0.000000 -0.000000
 50 0.000004 -4.440601 -0.000001 1.569944 -3.078603 0.004053
 51 10.510132 -0.000001 0.000001 -0.000000 -0.000000 -2.508992
 52 -0.000001 -1.748398 -5.000001 -3.141593 0.004007 -1.539299
 53 5.500001 -0.000001 0.000001 0.182613 -0.000000 0.000000
 54 0.000000 0.000000 -5.000000 -0.044472 3.137589 -0.000177
 55 6.551489 0.000000 -0.000001 -0.182613 -0.282365 -0.130632
 56 -1.266843 -1.937444 -4.950557 -0.066572 -2.988806 -0.110308
 57 6.551490 0.000000 -0.000001 -0.182613 -0.282365 -0.130632
 58 0.699370 -1.944208 -5.006845 -0.027189 -3.088217 0.005298
 59 4.226144 -0.003202 -0.000000 0.029376 0.050454 0.289852
 60 -0.000001 5.000000 -0.000000 -0.153564 0.000087 2.718702
 61 0.000004 -0.000004 -3.713580 0.365818 2.880119 -0.191589
 62 0.000002 -0.000000 5.000000 3.053196 1.558589 -0.074928
 63 -0.000007 0.000006 3.713580 -0.001619 -3.122277 -0.475127
 64 0.000002 -0.000000 -5.000000 -0.088726 1.558589 3.066335
 65 7.363602 1.646647 0.495663 3.141593 -1.570796 0.000000
 66 -0.000005 0.000007 3.619081 0.008255 -3.110080 -0.985231
 67 16.573919 0.000000 -0.000000 -0.000000 -0.000000 -1.065827
 68 15.128180 0.000001 0.000000 -0.102296 0.010178 0.114297
 69 5.758665 4.244730 0.000000 0.000000 0.000000 1.667687
 70 3.177726 0.000000 -0.000000 0.000000 0.000000 3.141593
 71 15.708951 0.000001 0.000000 -0.051525 0.003996 0.061523
 72 0.275148 0.189215 -3.445208 3.130898 0.000409 -1.514604
 73 17.210192 -0.000000 -0.000000 -0.000000 -0.000000 -1.893339
 74 0.000001 0.000000 -4.999999 -0.079433 1.546568 -1.570857
 75 0.000002 -0.000003 -3.619081 0.577895 2.675801 -0.242118
 76 16.573921 -0.000001 -0.000002 -0.000000 -0.000000 -1.163030
 77 15.128181 0.000001 0.000001 0.089479 0.309197 0.659208
 78 5.758666 4.244730 -0.000001 -0.000000 -0.000000 1.815142
 79 4.003934 -0.000000 0.000001 0.000000 0.000000 0.000000
 80 15.708954 0.000001 0.000002 0.042277 0.226871 0.443133
 81 0.273998 0.191089 3.439762 -3.130907 -0.000437 -1.508107
 82 17.210194 -0.000001 -0.000002 0.000000 -0.000000 -1.937080
 83 -0.000000 -0.000001 5.000000 -0.079319 1.595025 -1.570742
time 3
  0 -0.650000 0.000000 33.899605 -0.025849 0.174554 -1.569172
  1 5.685103 0.833236 -32.227173 -0.174512 -0.026131 1.569196
  2 -2.276935 0.000003 -1.238188 -1.570795 -1.570451 0.000000
  3 1.796801 0.712126 0.001390 -0.439065 0.055642 -0.140664
  4 4.119826 -0.002737 0.001331 -0.420118 0.100958 0.375045
  5 4.118912 -0.002947 0.001405 -0.443006 -0.044505 0.125251
  6 4.119632 -0.002864 0.001227 -0.383257 -0.001831 0.346348
  7 4.120470 -0.002997 -0.000244 0.069354 0.088610 0.562878
  8 4.443599 -0.000002 0.000000 0.496551 0.269791 -0.036994
  9 9.024060 0.000000 -0.000000 0.000000 0.000000 0.000000
 10 -0.153337 0.123138 1.721773 1.098919 -1.016335 1.491761
 11 6.384779 -0.000000 -0.000001 -0.487324 0.402520 -0.929500
 12 10.242682 0.000001 0.000000 -0.000000 -0.000000 -0.583918
 13 11.375563 0.000003 0.000001 2.967068 0.288166 0.363686
 14 0.728681 0.023431 -1.008291 2.396606 0.246960 1.180207
 15 2.136497 -0.000000 -0.000000 -0.000000 -0.000000 -0.078540
 16 2.313140 -0.000000 -0.000000 0.000000 0.000000 0.000000
 17 3.115506 -0.886042 -0.021432 -0.166499 0.000392 0.514872
 18 2.011152 0.000001 -0.000002 -0.000000 -0.000000 1.322792
 19 2.141381 0.000001 0.000001 0.000000 0.000000 0.000000
 20 1.734172 0.000001 -0.000000 0.000000 0.000000 0.660693
 21 0.000005 -4.440595 0.000000 1.570544 -0.062990 -0.195737
 22 6.000000 0.000002 -0.000000 -2.987210 -0.000000 0.000000
 23 0.000001 -4.440601 0.000000 1.569944 -0.062987 0.004053
 24 11.375560 0.000002 0.000003 -2.445444 0.050628 0.278841
 25 -0.000000 -4.440603 0.000002 1.570144 -0.062988 0.004040
 26 10.510132 0.000001 -0.000001 -0.000000 0.000000 -1.862755
 27 -0.000002 -1.748401 4.999999 -0.000000 0.004007 1.602291
 28 5.500001 0.000001 -0.000000 0.124856 -0.000000 0.000000
 29 -0.000003 -1.940599 5.000000 -0.044472 0.004003 -0.000180
 30 6.551494 -0.000000 -0.000001 -0.257344 0.296546 -0.582175
 31 -0.000000 -1.940600 5.000002 -0.027189 -0.053376 0.005295
 32 6.551494 -0.000000 -0.000001 -0.100142 0.160409 -0.266266
 33 -0.000002 -1.940598 4.999996 -0.066572 -0.152786 -0.110311
 34 0.153338 -0.116061 -1.721773 -1.259535 1.326235 1.357634
 35 6.384776 -0.000000 0.000001 -0.596432 -0.849551 -0.200088
 36 10.242682 0.000001 -0.000000 0.000000 0.000000 -1.876857
 37 11.375562 -0.000002 0.000001 2.675753 0.511633 0.550199
 38 0.728680 0.023431 1.008292 -1.579583 -0.319038 0.212973
 39 2.136497 0.000002 -0.000001 0.000000 -0.000000 1.282817
 40 2.313139 0.000000 0.000001 0.000000 0.000000 3.141593
 41 3.115506 -0.886042 0.021432 0.708959 0.171755 0.347804
 42 2.011153 -0.000001 -0.000000 -0.000000 0.000000 2.082010
 43 2.141382 0.000002 -0.000000 0.000000 0.000000 3.141593
 44 1.734172 -0.000002 -0.000000 -0.000000 -0.000000 1.041748
 45 0.136314 -3.738192 2.525891 1.493698 2.759406 -1.474501
 46 5.613160 0.862367 3.157030 1.595152 -0.135386 0.061522
 47 11.389367 -0.000820 0.158781 2.066961 0.335081 0.188697
 48 0.000001 -4.440598 -0.000001 1.570144 -3.078602 0.004040
 49 5.999999 -0.000002 -0.000001 2.066961 0.000000 -0.000000
 50 0.000000 -4.440602 -0.000002 1.569944 -3.078603 0.004053
 51 10.510132 0.000002 0.000000 0.000000 0.000000 -2.509225
 52 0.000001 -1.748399 -5.000000 -3.141593 0.004007 -1.539299
 53 5.500000 0.000002 0.000000 0.183596 -0.000000 -0.000000
 54 -0.000001 0.000003 -5.000000 -0.044472 3.137589 -0.000177
 55 6.551490 -0.000000 0.000001 -0.183597 -0.282249 -0.128761
 56 -1.266844 -1.937445 -4.950558 -0.066572 -2.988806 -0.110308
 57 6.551491 -0.000000 0.000002 -0.183597 -0.282249 -0.128761
 58 0.699370 -1.944210 -5.006845 -0.027189 -3.088217 0.005298
 59 4.226147 -0.003201 0.000001 0.029052 0.050090 0.294747
 60 0.000000 5.000000 0.000000 -0.153564 0.000087 2.718702
 61 0.000004 -0.000004 -3.713580 0.365818 2.880119 -0.191589
 62 0.000002 -0.000000 5.000000 3.053196 1.558589 -0.074928
 63 -0.000007 0.000006 3.713580 -0.001619 -3.122277 -0.475127
 64 0.000002 -0.000000 -5.000000 -0.088726 1.558589 3.066335
 65 7.363602 1.646647 0.495663 3.141593 -1.570796 0.000000
 66 -0.000005 0.000007 3.619081 0.008255 -3.110080 -0.985231
 67 16.573919 0.000000 -0.000000 -0.000000 -0.000000 -1.065827
 68 15.128180 0.000001 0.000000 -0.102296 0.010178 0.114297
 69 5.758665 4.244730 0.000000 0.000000 0.000000 1.667687
 70 3.177726 0.000000 -0.000000 0.000000 0.000000 3.141593
 71 15.708951 0.000001 0.000000 -0.051525 0.003996 0.061523
 72 0.275148 0.189215 -3.445208 3.130898 0.000409 -1.514604
 73 17.210192 -0.000000 -0.000000 -0.000000 -0.000000 -1.893339
 74 0.000001 0.000000 -4.999999 -0.079433 1.546568 -1.570857
 75 0.000002 -0.000003 -3.619081 0.577895 2.675801 -0.242118
 76 16.573921 -0.000001 -0.000002 -0.000000 -0.000000 -1.163030
 77 15.128181 0.000001 0.000001 0.089479 0.309197 0.659208
 78 5.758666 4.244730 -0.000001 -0.000000 -0.000000 1.815142
 79 4.003934 -0.000000 0.000001 0.000000 0.000000 0.000000
 80 15.708954 0.000001 0.000002 0.042277 0.226871 0.443133
 81 0.273998 0.191089 3.439762 -3.130907 -0.000437 -1.508107
 82 17.210194 -0.000001 -0.000002 0.000000 -0.000000 -1.937080
 83 -0.000000 -0.000001 5.000000 -0.079319 1.595025 -1.570742
time 4
  0 -0.650000 0.000000 33.899605 -0.025849 0.174554 -1.569172
  1 5.685103 0.833236 -32.227173 -0.174512 -0.026131 1.569196
  2 -2.276935 0.000003 -1.238188 -1.570795 -1.570451 0.000000
  3 1.796805 0.712123 0.001385 -0.437384 0.056397 -0.140821
  4 4.119823 -0.002740 0.001326 -0.418513 0.100175 0.375278
  5 4.118911 -0.002951 0.001399 -0.441314 -0.044977 0.125302
  6 4.119631 -0.002862 0.001223 -0.381650 -0.002571 0.346411
  7 4.120492 -0.002983 -0.000244 0.069000 0.088057 0.570903
  8 4.443597 0.000002 0.000000 0.493686 0.276761 -0.046120
  9 9.024060 -0.000002 -0.000000 0.000000 0.000000 0.000000
 10 -0.152383 0.122536 1.721900 1.099085 -1.017393 1.483607
 11 6.384777 -0.000001 -0.000000 -0.484479 0.401341 -0.936095
 12 10.242682 -0.000000 -0.000000 -0.000000 -0.000000 -0.571013
 13 11.375562 -0.000001 -0.000000 2.958749 0.287110 0.358721
 14 0.728681 0.023432 -1.008292 2.396606 0.246960 1.180207
 15 2.136498 -0.000001 0.000000 0.000000 -0.000000 -0.078540
 16 2.313138 -0.000000 -0.000000 0.000000 0.000000 0.000000
 17 3.115507 -0.886042 -0.021431 -0.166499 0.000392 0.514872
 18 2.011151 0.000001 0.000001 0.000000 0.000000 1.322792
 19 2.141380 0.000001 -0.000000 0.000000 0.000000 0.000000
 20 1.734173 0.000001 -0.000000 0.000000 -0.000000 0.660693
 21 0.000005 -4.440593 -0.000000 1.570544 -0.062990 -0.195737
 22 5.999999 -0.000002 0.000000 -2.994784 0.000000 0.000000
 23 0.000002 -4.440601 -0.000000 1.569944 -0.062987 0.004053
 24 11.375561 -0.000001 0.000003 -2.449365 0.050760 0.276737
 25 -0.000001 -4.440602 -0.000001 1.570144 -0.062988 0.004040
 26 10.510131 0.000000 -0.000001 0.000000 -0.000000 -1.856303
 27 0.000000 -1.748401 4.999999 0.000000 0.004007 1.602290
 28 5.500000 -0.000000 0.000000 0.123421 0.000000 0.000000
 29 -0.000002 -1.940599 5.000000 -0.044472 0.004003 -0.000180
 30 6.551491 -0.000000 0.000001 -0.255069 0.296892 -0.584608
 31 0.000001 -1.940599 5.000001 -0.027189 -0.053376 0.005295
 32 6.551491 -0.000000 0.000001 -0.098915 0.160447 -0.267411
 33 0.000000 -1.940600 4.999996 -0.066572 -0.152786 -0.110311
 34 0.152384 -0.115457 -1.721901 -1.261992 1.322900 1.347512
 35 6.384777 0.000000 0.000001 -0.600005 -0.847108 -0.193379
 36 10.242682 0.000003 -0.000002 -0.000000 0.000000 -1.877185
 37 11.375564 0.000001 0.000002 2.675447 0.511427 0.550129
 38 0.728681 0.023431 1.008291 -1.579583 -0.319038 0.212973
 39 2.136496 -0.000001 -0.000000 -0.000000 0.000000 1.282817
 40 2.313139 -0.000001 -0.000000 0.000000 0.000000 3.141593
 41 3.115506 -0.886041 0.021430 0.708959 0.171755 0.347804
 42 2.011150 0.000001 -0.000000 -0.000000 0.000000 2.082010
 43 2.141380 -0.000000 -0.000001 0.000000 0.000000 3.141593
 44 1.734174 -0.000001 -0.000002 0.000000 0.000000 1.041748
 45 0.136315 -3.738191 2.525890 1.493698 2.759406 -1.474501
 46 5.613161 0.862367 3.157029 1.595152 -0.135386 0.061522
 47 11.389365 -0.000821 0.158782 2.066853 0.334953 0.188739
 48 -0.000001 -4.440600 -0.000000 1.570144 -3.078602 0.004040
 49 6.000000 -0.000000 0.000001 2.066853 0.000000 0.000000
 50 0.000003 -4.440601 -0.000001 1.569944 -3.078603 0.004053
 51 10.510132 0.000000 -0.000000 -0.000000 0.000000 -2.509389
 52 0.000001 -1.748400 -5.000001 -3.141593 0.004007 -1.539299
 53 5.500000 0.000002 -0.000001 0.184338 -0.000000 -0.000000
 54 0.000000 0.000001 -4.999999 -0.044472 3.137590 -0.000177
 55 6.551491 0.000001 0.000001 -0.184338 -0.282166 -0.127355
 56 -1.266843 -1.937442 -4.950562 -0.066572 -2.988806 -0.110308
 57 6.551491 0.000001 0.000000 -0.184338 -0.282166 -0.127355
 58 0.699371 -1.944207 -5.006846 -0.027189 -3.088217 0.005298
 59 4.226145 -0.003202 -0.000000 0.028810 0.049822 0.298364
 60 0.000003 5.000000 -0.000000 -0.153564 0.000087 2.718701
 61 0.000004 -0.000004 -3.713580 0.365818 2.880119 -0.191589
 62 0.000002 -0.000000 5.000000 3.053196 1.558589 -0.074928
 63 -0.000007 0.000006 3.713580 -0.001619 -3.122277 -0.475127
 64 0.000002 -0.000000 -5.000000 -0.088726 1.558589 3.066335
 65 7.363602 1.646647 0.495663 3.141593 -1.570796 0.000000
 66 -0.000005 0.000007 3.619081 0.008255 -3.110080 -0.985231
 67 16.573919 0.000000 -0.000000 -0.000000 -0.000000 -1.065827
 68 15.128180 0.000001 0.000000 -0.102296 0.010178 0.114297
 69 5.758665 4.244730 0.000000 0.000000 0.000000 1.667687
 70 3.177726 0.000000 -0.000000 0.000000 0.000000 3.141593
 71 15.708951 0.000001 0.000000 -0.051525 0.003996 0.061523
 72 0.275148 0.189215 -3.445208 3.130898 0.000409 -1.514604
 73 17.210192 -0.000000 -0.000000 -0.000000 -0.000000 -1.893339
 74 0.000001 0.000000 -4.999999 -0.079433 1.546568 -1.570857
 75 0.000002 -0.000003 -3.619081 0.577895 2.675801 -0.242118
 76 16.573921 -0.000001 -0.000002 -0.000000 -0.000000 -1.163030
 77 15.128181 0.000001 0.000001 0.089479 0.309197 0.659208
 78 5.758666 4.244730 -0.000001 -0.000000 -0.000000 1.815142
 79 4.003934 -0.000000 0.000001 0.000000 0.000000 0.000000
 80 15.708954 0.000001 0.000002 0.042277 0.226871 0.443133
 81 0.273998 0.191089 3.439762 -3.130907 -0.000437 -1.508107
 82 17.210194 -0.000001 -0.000002 0.000000 -0.000000 -1.937080
 83 -0.000000 -0.000001 5.000000 -0.079319 1.595025 -1.570742
time 5
  0 -0.650000 0.000000 33.899605 -0.025849 0.174554 -1.569172
  1 5.685103 0.833236 -32.227173 -0.174512 -0.026131 1.569196
  2 -2.276935 0.000003 -1.238188 -1.570795 -1.570451 0.000000
  3 1.796801 0.712123 0.001383 -0.436726 0.056692 -0.140882
  4 4.119827 -0.002741 0.001324 -0.417886 0.099868 0.375369
  5 4.118910 -0.002950 0.001398 -0.440653 -0.045161 0.125322
  6 4.119636 -0.002867 0.001219 -0.381021 -0.002861 0.346435
  7 4.120502 -0.002976 -0.000243 0.068860 0.087841 0.574044
  8 4.443598 0.000000 -0.000001 0.492559 0.279488 -0.049696
  9 9.024063 -0.000000 0.000001 0.000000 0.000000 0.000000
 10 -0.152012 0.122299 1.721950 1.099154 -1.017807 1.480412
 11 6.384774 0.000002 0.000001 -0.482146 0.402265 -0.935392
 12 10.242679 -0.000002 -0.000001 -0.000000 0.000000 -0.569417
 13 11.375562 0.000003 0.000000 2.952816 0.286199 0.356918
 14 0.728681 0.023431 -1.008291 2.396606 0.246960 1.180207
 15 2.136496 -0.000000 -0.000000 -0.000000 -0.000000 -0.078540
 16 2.313138 -0.000001 -0.000000 0.000000 0.000000 0.000000
 17 3.115507 -0.886042 -0.021432 -0.166499 0.000392 0.514872
 18 2.011151 0.000000 0.000001 0.000000 0.000000 1.322792
 19 2.141377 0.000000 -0.000000 0.000000 0.000000 0.000000
 20 1.734172 0.000000 -0.000000 0.000000 0.000000 0.660693
 21 0.000007 -4.440592 0.000000 1.570544 -0.062990 -0.195737
 22 6.000000 -0.000000 -0.000000 -3.000319 0.000000 0.000000
 23 0.000002 -4.440601 0.000000 1.569944 -0.062987 0.004053
 24 11.375561 0.000001 0.000003 -2.452245 0.050279 0.276025
 25 -0.000001 -4.440602 0.000000 1.570144 -0.062988 0.004040
 26 10.510129 -0.000001 -0.000001 0.000000 -0.000000 -1.855505
 27 0.000001 -1.748400 4.999999 0.000000 0.004007 1.602291
 28 5.500000 -0.000000 -0.000001 0.122487 0.000000 0.000000
 29 0.000000 -1.940597 5.000000 -0.044472 0.004003 -0.000180
 30 6.551491 0.000001 -0.000001 -0.253469 0.297438 -0.584287
 31 0.000001 -1.940598 5.000000 -0.027189 -0.053376 0.005295
 32 6.551491 0.000001 -0.000001 -0.098134 0.160595 -0.267314
 33 0.000001 -1.940599 4.999996 -0.066572 -0.152786 -0.110311
 34 0.152012 -0.115219 -1.721950 -1.262927 1.321595 1.343577
 35 6.384775 -0.000001 0.000001 -0.601403 -0.846152 -0.190755
 36 10.242683 -0.000001 -0.000001 -0.000000 0.000000 -1.877310
 37 11.375560 -0.000001 0.000001 2.672981 0.509854 0.549883
 38 0.728680 0.023431 1.008292 -1.579583 -0.319038 0.212973
 39 2.136496 0.000002 -0.000000 -0.000000 -0.000000 1.282817
 40 2.313139 0.000000 0.000001 0.000000 0.000000 3.141593
 41 3.115505 -0.886041 0.021431 0.708959 0.171755 0.347804
 42 2.011150 0.000001 0.000001 -0.000000 0.000000 2.082010
 43 2.141379 -0.000000 0.000001 0.000000 0.000000 3.141593
 44 1.734173 -0.000001 0.000001 0.000000 -0.000000 1.041748
 45 0.136315 -3.738193 2.525889 1.493698 2.759406 -1.474501
 46 5.613158 0.862367 3.157030 1.595152 -0.135386 0.061522
 47 11.389364 -0.000819 0.158782 2.065947 0.333992 0.189203
 48 0.000000 -4.440599 -0.000001 1.570144 -3.078602 0.004040
 49 5.999997 -0.000001 0.000000 2.065947 -0.000000 -0.000000
 50 0.000002 -4.440601 -0.000002 1.569944 -3.078603 0.004053
 51 10.510132 0.000001 -0.000000 -0.000000 0.000000 -2.509451
 52 -0.000001 -1.748402 -5.000000 3.141593 0.004007 -1.539299
 53 5.500000 0.000001 -0.000001 0.184631 -0.000000 -0.000000
 54 -0.000000 0.000000 -4.999999 -0.044472 3.137589 -0.000177
 55 6.551490 0.000001 -0.000001 -0.184631 -0.282135 -0.126801
 56 -1.266843 -1.937443 -4.950557 -0.066572 -2.988806 -0.110308
 57 6.551491 0.000001 -0.000001 -0.184631 -0.282135 -0.126801
 58 0.699371 -1.944208 -5.006845 -0.027189 -3.088217 0.005298
 59 4.226147 -0.003202 -0.000001 0.028715 0.049718 0.299777
 60 0.000001 4.999998 -0.000001 -0.153564 0.000087 2.718702
 61 0.000004 -0.000004 -3.713580 0.365818 2.880119 -0.191589
 62 0.000002 -0.000000 5.000000 3.053196 1.558589 -0.074928
 63 -0.000007 0.000006 3.713580 -0.001619 -3.122277 -0.475127
 64 0.000002 -0.000000 -5.000000 -0.088726 1.558589 3.066335
 65 7.363602 1.646647 0.495663 3.141593 -1.570796 0.000000
 66 -0.000005 0.000007 3.619081 0.008255 -3.110080 -0.985231
 67 16.573919 0.000000 -0.000000 -0.000000 -0.000000 -1.065827
 68 15.128180 0.000001 0.000000 -0.102296 0.010178 0.114297
 69 5.758665 4.244730 0.000000 0.000000 0.000000 1.667687
 70 3.177726 0.000000 -0.000000 0.000000 0.000000 3.141593
 71 15.708951 0.000001 0.000000 -0.051525 0.003996 0.061523
 72 0.275148 0.189215 -3.445208 3.130898 0.000409 -1.514604
 73 17.210192 -0.000000 -0.000000 -0.000000 -0.000000 -1.893339
 74 0.000001 0.000000 -4.999999 -0.079433 1.546568 -1.570857
 75 0.000002 -0.000003 -3.619081 0.577895 2.675801 -0.242118
 76 16.573921 -0.000001 -0.000002 -0.000000 -0.000000 -1.163030
 77 15.128181 0.000001 0.000001 0.089479 0.309197 0.659208
 78 5.758666 4.244730 -0.000001 -0.000000 -0.000000 1.815142
 79 4.003934 -0.000000 0.000001 0.000000 0.000000 0.000000
 80 15.708954 0.000001 0.000002 0.042277 0.226871 0.443133
 81 0.273998 0.191089 3.439762 -3.130907 -0.000437 -1.508107
 82 17.210194 -0.000001 -0.000002 0.000000 -0.000000 -1.937080
 83 -0.000000 -0.000001 5.000000 -0.079319 1.595025 -1.570742
time 6
  0 -0.650000 0.000000 33.899605 -0.025849 0.174554 -1.569172
  1 5.685103 0.833236 -32.227173 -0.174512 -0.026131 1.569196
  2 -2.276935 0.000003 -1.238188 -1.570795 -1.570451 0.000000
  3 1.796805 0.712123 0.001385 -0.437384 0.056397 -0.140821
  4 4.119823 -0.002739 0.001326 -0.418513 0.100175 0.375278
  5 4.118909 -0.002949 0.001399 -0.441314 -0.044977 0.125302
  6 4.119635 -0.002864 0.001221 -0.381650 -0.002571 0.346411
  7 4.120492 -0.002982 -0.000243 0.069000 0.088057 0.570903
  8 4.443599 -0.000002 -0.000001 0.493686 0.276761 -0.046120
  9 9.024060 -0.000002 -0.000001 0.000000 0.000000 0.000000
 10 -0.152382 0.122532 1.721899 1.099085 -1.017393 1.483607
 11 6.384778 -0.000000 0.000001 -0.480417 0.405864 -0.925218
 12 10.242682 0.000002 -0.000001 -0.000000 -0.000000 -0.582442
 13 11.375559 -0.000002 -0.000000 2.949954 0.285422 0.359187
 14 0.728680 0.023433 -1.008292 2.396606 0.246960 1.180207
 15 2.136497 -0.000000 -0.000002 -0.000000 0.000000 -0.078540
 16 2.313138 0.000000 -0.000000 0.000000 0.000000 0.000000
 17 3.115506 -0.886040 -0.021431 -0.166499 0.000392 0.514872
 18 2.011151 -0.000000 0.000001 -0.000000 -0.000000 1.322792
 19 2.141382 0.000000 -0.000000 0.000000 0.000000 0.000000
 20 1.734172 0.000001 0.000000 0.000000 -0.000000 0.660693
 21 0.000006 -4.440594 -0.000000 1.570544 -0.062990 -0.195737
 22 5.999999 -0.000002 -0.000001 -3.003213 0.000000 0.000000
 23 0.000002 -4.440602 0.000000 1.569944 -0.062987 0.004053
 24 11.375561 -0.000000 0.000002 -2.453789 0.048962 0.277098
 25 -0.000001 -4.440604 0.000001 1.570144 -0.062988 0.004040
 26 10.510130 0.000001 -0.000001 0.000000 0.000000 -1.862018
 27 0.000001 -1.748402 5.000000 -0.000000 0.004007 1.602291
 28 5.499999 0.000000 -0.000001 0.122189 0.000000 -0.000000
 29 -0.000002 -1.940598 5.000000 -0.044472 0.004003 -0.000180
 30 6.551491 0.000000 0.000001 -0.252723 0.298227 -0.580411
 31 -0.000002 -1.940598 5.000000 -0.027189 -0.053376 0.005295
 32 6.551491 0.000000 0.000001 -0.097921 0.160882 -0.265615
 33 -0.000002 -1.940601 4.999996 -0.066572 -0.152786 -0.110311
 34 0.152385 -0.115462 -1.721902 -1.261992 1.322900 1.347512
 35 6.384776 0.000001 -0.000002 -0.600005 -0.847108 -0.193379
 36 10.242682 -0.000001 -0.000001 0.000000 0.000000 -1.877185
 37 11.375564 0.000002 0.000001 2.667744 0.506526 0.549448
 38 0.728680 0.023431 1.008293 -1.579583 -0.319038 0.212973
 39 2.136497 0.000001 -0.000001 -0.000000 -0.000000 1.282817
 40 2.313139 -0.000000 0.000001 0.000000 0.000000 3.141593
 41 3.115507 -0.886041 0.021431 0.708959 0.171755 0.347804
 42 2.011151 -0.000000 -0.000001 0.000000 0.000000 2.082010
 43 2.141379 -0.000001 0.000001 0.000000 0.000000 3.141593
 44 1.734171 -0.000000 -0.000001 -0.000000 0.000000 1.041748
 45 0.136315 -3.738193 2.525889 1.493698 2.759406 -1.474501
 46 5.613158 0.862367 3.157032 1.595152 -0.135386 0.061522
 47 11.389366 -0.000819 0.158781 2.064009 0.331965 0.190221
 48 -0.000000 -4.440599 0.000001 1.570144 -3.078602 0.004040
 49 6.000001 0.000001 -0.000000 2.064009 -0.000000 0.000000
 50 0.000002 -4.440600 -0.000001 1.569944 -3.078603 0.004053
 51 10.510133 -0.000004 -0.000000 0.000000 0.000000 -2.509389
 52 -0.000000 -1.748400 -5.000000 -3.141593 0.004007 -1.539299
 53 5.500000 -0.000001 -0.000001 0.184338 -0.000000 -0.000000
 54 0.000001 0.000001 -4.999999 -0.044472 3.137589 -0.000177
 55 6.551490 0.000002 -0.000003 -0.184338 -0.282166 -0.127355
 56 -1.266843 -1.937442 -4.950559 -0.066572 -2.988806 -0.110308
 57 6.551490 0.000002 -0.000003 -0.184338 -0.282166 -0.127355
 58 0.699371 -1.944206 -5.006846 -0.027189 -3.088217 0.005298
 59 4.226148 -0.003202 -0.000002 0.028810 0.049822 0.298364
 60 0.000003 5.000000 -0.000001 -0.153564 0.000087 2.718702
 61 0.000004 -0.000004 -3.713580 0.365818 2.880119 -0.191589
 62 0.000002 -0.000000 5.000000 3.053196 1.558589 -0.074928
 63 -0.000007 0.000006 3.713580 -0.001619 -3.122277 -0.475127
 64 0.000002 -0.000000 -5.000000 -0.088726 1.558589 3.066335
 65 7.363602 1.646647 0.495663 3.141593 -1.570796 0.000000
 66 -0.000005 0.000007 3.619081 0.008255 -3.110080 -0.985231
 67 16.573919 0.000000 -0.000000 -0.000000 -0.000000 -1.065827
 68 15.128180 0.000001 0.000000 -0.102296 0.010178 0.114297
 69 5.758665 4.244730 0.000000 0.000000 0.000000 1.667687
 70 3.177726 0.000000 -0.000000 0.000000 0.000000 3.141593
 71 15.708951 0.000001 0.000000 -0.051525 0.003996 0.061523
 72 0.275148 0.189215 -3.445208 3.130898 0.000409 -1.514604
 73 17.210192 -0.000000 -0.000000 -0.000000 -0.000000 -1.893339
 74 0.000001 0.000000 -4.999999 -0.079433 1.546568 -1.570857
 75 0.000002 -0.000003 -3.619081 0.577895 2.675801 -0.242118
 76 16.573921 -0.000001 -0.000002 -0.000000 -0.000000 -1.163030
 77 15.128181 0.000001 0.000001 0.089479 0.309197 0.659208
 78 5.758666 4.244730 -0.000001 -0.000000 -0.000000 1.815142
 79 4.003934 -0.000000 0.000001 0.000000 0.000000 0.000000
 80 15.708954 0.000001 0.000002 0.042277 0.226871 0.443133
 81 0.273998 0.191089 3.439762 -3.130907 -0.000437 -1.508107
 82 17.210194 -0.000001 -0.000002 0.000000 -0.000000 -1.937080
 83 -0.000000 -0.000001 5.000000 -0.079319 1.595025 -1.570742
time 7
  0 -0.650000 0.000000 33.899605 -0.025849 0.174554 -1.569172
  1 5.685103 0.833236 -32.227173 -0.174512 -0.026131 1.569196
  2 -2.276935 0.000003 -1.238188 -1.570795 -1.570451 0.000000
  3 1.796801 0.712126 0.001390 -0.439065 0.055642 -0.140664
  4 4.119826 -0.002737 0.001331 -0.420118 0.100958 0.375045
  5 4.118912 -0.002947 0.001405 -0.443006 -0.044505 0.125251
  6 4.119632 -0.002863 0.001227 -0.383257 -0.001831 0.346348
  7 4.120470 -0.002998 -0.000245 0.069354 0.088610 0.562878
  8 4.443599 -0.000002 0.000001 0.496551 0.269791 -0.036993
  9 9.024061 0.000000 0.000001 0.000000 0.000000 0.000000
 10 -0.153336 0.123138 1.721774 1.098919 -1.016335 1.491761
 11 6.384780 -0.000001 -0.000001 -0.479277 0.411395 -0.908039
 12 10.242683 0.000002 0.000000 -0.000000 -0.000000 -0.606072
 13 11.375560 -0.000002 0.000000 2.949498 0.284757 0.364239
 14 0.728681 0.023430 -1.008292 2.396606 0.246960 1.180207
 15 2.136497 -0.000000 0.000001 -0.000000 0.000000 -0.078540
 16 2.313139 -0.000000 0.000001 0.000000 0.000000 0.000000
 17 3.115507 -0.886042 -0.021432 -0.166499 0.000392 0.514872
 18 2.011151 -0.000003 0.000001 0.000000 0.000000 1.322792
 19 2.141380 0.000000 -0.000000 0.000000 0.000000 0.000000
 20 1.734172 -0.000002 0.000000 0.000000 0.000000 0.660693
 21 0.000004 -4.440593 0.000000 1.570544 -0.062990 -0.195737
 22 6.000000 -0.000000 0.000000 -3.004006 -0.000000 -0.000000
 23 0.000002 -4.440603 0.000000 1.569944 -0.062987 0.004053
 24 11.375561 -0.000000 0.000003 -2.454267 0.047110 0.279371
 25 -0.000000 -4.440603 0.000001 1.570144 -0.062988 0.004040
 26 10.510133 0.000003 -0.000000 -0.000000 -0.000000 -1.873833
 27 0.000001 -1.748402 5.000000 -0.000000 0.004007 1.602290
 28 5.500000 0.000000 0.000000 0.122479 0.000000 0.000000
 29 -0.000002 -1.940596 5.000000 -0.044472 0.004003 -0.000180
 30 6.551494 -0.000000 -0.000000 -0.252823 0.299236 -0.573944
 31 0.000001 -1.940599 5.000002 -0.027189 -0.053376 0.005295
 32 6.551494 -0.000000 -0.000000 -0.098224 0.161303 -0.262726
 33 -0.000001 -1.940599 4.999996 -0.066572 -0.152786 -0.110311
 34 0.153339 -0.116061 -1.721772 -1.259536 1.326235 1.357634
 35 6.384776 0.000002 -0.000002 -0.596431 -0.849551 -0.200088
 36 10.242681 0.000001 -0.000001 0.000000 -0.000000 -1.876857
 37 11.375562 -0.000001 0.000001 2.660372 0.501826 0.548883
 38 0.728681 0.023431 1.008292 -1.579583 -0.319038 0.212973
 39 2.136499 0.000001 -0.000000 -0.000000 0.000000 1.282817
 40 2.313137 0.000001 0.000000 0.000000 0.000000 3.141593
 41 3.115504 -0.886042 0.021432 0.708959 0.171755 0.347804
 42 2.011154 -0.000002 0.000000 0.000000 0.000000 2.082010
 43 2.141380 0.000001 0.000001 0.000000 0.000000 3.141593
 44 1.734174 -0.000002 0.000000 0.000000 0.000000 1.041748
 45 0.136315 -3.738191 2.525890 1.493698 2.759406 -1.474501
 46 5.613160 0.862367 3.157030 1.595152 -0.135386 0.061522
 47 11.389367 -0.000819 0.158782 2.061268 0.329104 0.191671
 48 -0.000000 -4.440599 -0.000001 1.570144 -3.078602 0.004040
 49 5.999999 -0.000001 -0.000000 2.061268 0.000000 0.000000
 50 0.000002 -4.440601 -0.000001 1.569944 -3.078603 0.004053
 51 10.510132 0.000002 -0.000000 0.000000 0.000000 -2.509225
 52 0.000001 -1.748397 -5.000001 -3.141593 0.004007 -1.539299
 53 5.500000 0.000001 -0.000001 0.183596 -0.000000 0.000000
 54 -0.000000 0.000002 -4.999999 -0.044472 3.137589 -0.000177
 55 6.551490 0.000001 -0.000002 -0.183596 -0.282248 -0.128761
 56 -1.266844 -1.937443 -4.950561 -0.066572 -2.988806 -0.110308
 57 6.551491 0.000001 -0.000002 -0.183596 -0.282248 -0.128761
 58 0.699370 -1.944209 -5.006847 -0.027189 -3.088217 0.005298
 59 4.226147 -0.003202 -0.000000 0.029052 0.050090 0.294747
 60 0.000000 5.000000 -0.000000 -0.153564 0.000087 2.718702
 61 0.000004 -0.000004 -3.713580 0.365818 2.880119 -0.191589
 62 0.000002 -0.000000 5.000000 3.053196 1.558589 -0.074928
 63 -0.000007 0.000006 3.713580 -0.001619 -3.122277 -0.475127
 64 0.000002 -0.000000 -5.000000 -0.088726 1.558589 3.066335
 65 7.363602 1.646647 0.495663 3.141593 -1.570796 0.000000
 66 -0.000005 0.000007 3.619081 0.008255 -3.110080 -0.985231
 67 16.573919 0.000000 -0.000000 -0.000000 -0.000000 -1.065827
 68 15.128180 0.000001 0.000000 -0.102296 0.010178 0.114297
 69 5.758665 4.244730 0.000000 0.000000 0.000000 1.667687
 70 3.177726 0.000000 -0.000000 0.000000 0.000000 3.141593
 71 15.708951 0.000001 0.000000 -0.051525 0.003996 0.061523
 72 0.275148 0.189215 -3.445208 3.130898 0.000409 -1.514604
 73 17.210192 -0.000000 -0.000000 -0.000000 -0.000000 -1.893339
 74 0.000001 0.000000 -4.999999 -0.079433 1.546568 -1.570857
 75 0.000002 -0.000003 -3.619081 0.577895 2.675801 -0.242118
 76 16.573921 -0.000001 -0.000002 -0.000000 -0.000000 -1.163030
 77 15.128181 0.000001 0.000001 0.089479 0.309197 0.659208
 78 5.758666 4.244730 -0.000001 -0.000000 -0.000000 1.815142
 79 4.003934 -0.000000 0.000001 0.000000 0.000000 0.000000
 80 15.708954 0.000001 0.000002 0.042277 0.226871 0.443133
 81 0.273998 0.191089 3.439762 -3.130907 -0.000437 -1.508107
 82 17.210194 -0.000001 -0.000002 0.000000 -0.000000 -1.937080
 83 -0.000000 -0.000001 5.000000 -0.079319 1.595025 -1.570742
time 8
  0 -0.650000 0.000000 33.899605 -0.025849 0.174554 -1.569172
  1 5.685103 0.833236 -32.227173 -0.174512 -0.026131 1.569196
  2 -2.276935 0.000003 -1.238188 -1.570795 -1.570451 0.000000
  3 1.796802 0.712129 0.001397 -0.441332 0.054625 -0.140450
  4 4.119824 -0.002734 0.001337 -0.422281 0.102014 0.374729
  5 4.118914 -0.002946 0.001411 -0.445285 -0.043869 0.125181
  6 4.119635 -0.002860 0.001233 -0.385422 -0.000834 0.346261
  7 4.120436 -0.003019 -0.000248 0.069824 0.089360 0.552061
  8 4.443598 0.000001 -0.000000 0.500373 0.260397 -0.024725
  9 9.024059 0.000000 0.000000 0.000000 0.000000 0.000000
 10 -0.154630 0.123940 1.721601 1.098721 -1.014907 1.502729
 11 6.384779 -0.000001 -0.000001 -0.478651 0.417859 -0.887361
 12 10.242682 -0.000001 -0.000001 -0.000000 0.000000 -0.634733
 13 11.375560 0.000001 -0.000001 2.950441 0.284190 0.370377
 14 0.728681 0.023432 -1.008293 2.396606 0.246960 1.180207
 15 2.136497 0.000000 0.000000 -0.000000 -0.000000 -0.078540
 16 2.313138 0.000000 0.000000 0.000000 0.000000 0.000000
 17 3.115507 -0.886039 -0.021431 -0.166499 0.000392 0.514872
 18 2.011150 -0.000001 0.000002 -0.000000 0.000000 1.322791
 19 2.141379 0.000001 -0.000001 0.000000 0.000000 0.000000
 20 1.734172 -0.000001 -0.000001 0.000000 0.000000 0.660693
 21 0.000005 -4.440594 0.000001 1.570544 -0.062990 -0.195737
 22 6.000000 -0.000002 0.000000 -3.003544 0.000000 0.000000
 23 0.000002 -4.440602 -0.000000 1.569944 -0.062987 0.004053
 24 11.375561 -0.000002 0.000003 -2.454098 0.045126 0.282088
 25 -0.000000 -4.440604 -0.000000 1.570144 -0.062988 0.004040
 26 10.510131 0.000001 -0.000000 -0.000000 -0.000000 -1.888163
 27 0.000001 -1.748402 4.999999 -0.000000 0.004007 1.602291
 28 5.499998 -0.000001 0.000000 0.123231 -0.000000 0.000000
 29 -0.000002 -1.940597 5.000000 -0.044472 0.004003 -0.000180
 30 6.551492 -0.000001 -0.000001 -0.253657 0.300428 -0.566210
 31 -0.000002 -1.940599 5.000000 -0.027189 -0.053376 0.005295
 32 6.551492 -0.000001 -0.000001 -0.098924 0.161842 -0.259226
 33 -0.000000 -1.940599 4.999995 -0.066572 -0.152786 -0.110311
 34 0.154632 -0.116861 -1.721601 -1.256071 1.330730 1.371426
 35 6.384777 -0.000000 0.000001 -0.591616 -0.852845 -0.209137
 36 10.242682 -0.000002 -0.000000 -0.000000 -0.000000 -1.876391
 37 11.375563 0.000002 0.000001 2.651805 0.496330 0.548252
 38 0.728681 0.023430 1.008293 -1.579583 -0.319038 0.212973
 39 2.136497 -0.000001 -0.000000 -0.000000 0.000000 1.282817
 40 2.313141 -0.000000 0.000000 0.000000 0.000000 3.141593
 41 3.115506 -0.886042 0.021432 0.708959 0.171755 0.347804
 42 2.011151 -0.000001 -0.000001 0.000000 0.000000 2.082010
 43 2.141379 -0.000000 0.000001 0.000000 0.000000 3.141593
 44 1.734173 -0.000002 -0.000001 -0.000000 -0.000000 1.041748
 45 0.136315 -3.738193 2.525890 1.493698 2.759406 -1.474501
 46 5.613161 0.862366 3.157031 1.595152 -0.135386 0.061522
 47 11.389368 -0.000818 0.158782 2.058068 0.325762 0.193363
 48 0.000000 -4.440600 -0.000001 1.570144 -3.078602 0.004040
 49 6.000000 0.000001 0.000000 2.058068 -0.000000 -0.000000
 50 0.000000 -4.440600 0.000000 1.569944 -3.078603 0.004053
 51 10.510132 -0.000002 -0.000000 0.000000 -0.000000 -2.508992
 52 -0.000000 -1.748401 -5.000001 -3.141593 0.004007 -1.539299
 53 5.500000 -0.000002 -0.000000 0.182613 -0.000000 0.000000
 54 -0.000000 0.000001 -5.000000 -0.044472 3.137589 -0.000177
 55 6.551490 -0.000001 0.000002 -0.182613 -0.282365 -0.130633
 56 -1.266843 -1.937440 -4.950561 -0.066572 -2.988806 -0.110308
 57 6.551491 -0.000001 0.000002 -0.182613 -0.282365 -0.130633
 58 0.699370 -1.944206 -5.006847 -0.027189 -3.088217 0.005298
 59 4.226145 -0.003202 -0.000001 0.029376 0.050454 0.289852
 60 -0.000001 5.000002 0.000002 -0.153564 0.000087 2.718702
 61 0.000004 -0.000004 -3.713580 0.365818 2.880119 -0.191589
 62 0.000002 -0.000000 5.000000 3.053196 1.558589 -0.074928
 63 -0.000007 0.000006 3.713580 -0.001619 -3.122277 -0.475127
 64 0.000002 -0.000000 -5.000000 -0.088726 1.558589 3.066335
 65 7.363602 1.646647 0.495663 3.141593 -1.570796 0.000000
 66 -0.000005 0.000007 3.619081 0.008255 -3.110080 -0.985231
 67 16.573919 0.000000 -0.000000 -0.000000 -0.000000 -1.065827
 68 15.128180 0.000001 0.000000 -0.102296 0.010178 0.114297
 69 5.758665 4.244730 0.000000 0.000000 0.000000 1.667687
 70 3.177726 0.000000 -0.000000 0.000000 0.000000 3.141593
 71 15.708951 0.000001 0.000000 -0.051525 0.003996 0.061523
 72 0.275148 0.189215 -3.445208 3.130898 0.000409 -1.514604
 73 17.210192 -0.000000 -0.000000 -0.000000 -0.000000 -1.893339
 74 0.000001 0.000000 -4.999999 -0.079433 1.546568 -1.570857
 75 0.000002 -0.000003 -3.619081 0.577895 2.675801 -0.242118
 76 16.573921 -0.000001 -0.000002 -0.000000 -0.000000 -1.163030
 77 15.128181 0.000001 0.000001 0.089479 0.309197 0.659208
 78 5.758666 4.244730 -0.000001 -0.000000 -0.000000 1.815142
 79 4.003934 -0.000000 0.000001 0.000000 0.000000 0.000000
 80 15.708954 0.000001 0.000002 0.042277 0.226871 0.443133
 81 0.273998 0.191089 3.439762 -3.130907 -0.000437 -1.508107
 82 17.210194 -0.000001 -0.000002 0.000000 -0.000000 -1.937080
 83 -0.000000 -0.000001 5.000000 -0.079319 1.595025 -1.570742
time 9
  0 -0.650000 0.000000 33.899605 -0.025849 0.174554 -1.569172
  1 5.685103 0.833236 -32.227173 -0.174512 -0.026131 1.569196
  2 -2.276935 0.000003 -1.238188 -1.570795 -1.570451 0.000000
  3 1.796803 0.712132 0.001404 -0.443745 0.053543 -0.140220
  4 4.119823 -0.002731 0.001344 -0.424585 0.103136 0.374389
  5 4.118910 -0.002940 0.001418 -0.447712 -0.043192 0.125105
  6 4.119635 -0.002857 0.001239 -0.387728 0.000227 0.346166
  7 4.120398 -0.003037 -0.000247 0.070316 0.090163 0.540546
  8 4.443599 0.000002 0.000000 0.504394 0.250399 -0.011704
  9 9.024060 -0.000004 0.000000 0.000000 0.000000 0.000000
 10 -0.156017 0.124777 1.721417 1.098544 -1.013386 1.514377
 11 6.384775 -0.000000 -0.000002 -0.478340 0.424387 -0.866342
 12 10.242682 0.000001 -0.000001 0.000000 -0.000000 -0.663566
 13 11.375561 -0.000003 -0.000000 2.951763 0.283684 0.376252
 14 0.728681 0.023432 -1.008292 2.396606 0.246960 1.180207
 15 2.136498 -0.000000 -0.000000 -0.000000 -0.000000 -0.078540
 16 2.313137 0.000001 0.000000 0.000000 0.000000 0.000000
 17 3.115506 -0.886040 -0.021431 -0.166499 0.000392 0.514872
 18 2.011150 -0.000001 0.000001 -0.000000 0.000000 1.322792
 19 2.141378 0.000000 -0.000001 0.000000 0.000000 0.000000
 20 1.734172 0.000000 0.000000 -0.000000 0.000000 0.660693
 21 0.000006 -4.440593 -0.000000 1.570544 -0.062990 -0.195737
 22 6.000000 -0.000001 -0.000000 -3.002706 -0.000000 0.000000
 23 0.000002 -4.440600 -0.000001 1.569944 -0.062987 0.004053
 24 11.375561 -0.000001 0.000003 -2.453726 0.043292 0.284662
 25 -0.000001 -4.440604 0.000000 1.570144 -0.062988 0.004040
 26 10.510129 -0.000001 -0.000001 -0.000000 -0.000000 -1.902579
 27 -0.000002 -1.748400 4.999999 0.000000 0.004007 1.602291
 28 5.500000 0.000000 -0.000001 0.124232 0.000000 0.000000
 29 -0.000002 -1.940598 5.000000 -0.044472 0.004003 -0.000180
 30 6.551489 -0.000000 -0.000001 -0.254943 0.301747 -0.558367
 31 -0.000001 -1.940601 5.000002 -0.027189 -0.053376 0.005295
 32 6.551489 -0.000000 -0.000001 -0.099830 0.162465 -0.255635
 33 0.000001 -1.940601 4.999995 -0.066572 -0.152786 -0.110311
 34 0.156021 -0.117700 -1.721419 -1.252180 1.335516 1.386306
 35 6.384777 0.000000 -0.000000 -0.586492 -0.856351 -0.218776
 36 10.242681 0.000003 -0.000000 -0.000000 0.000000 -1.875869
 37 11.375565 0.000001 0.000000 2.642968 0.490620 0.547619
 38 0.728679 0.023431 1.008294 -1.579583 -0.319038 0.212973
 39 2.136495 -0.000003 -0.000000 -0.000000 0.000000 1.282817
 40 2.313140 -0.000001 0.000000 0.000000 0.000000 3.141593
 41 3.115507 -0.886041 0.021431 0.708959 0.171755 0.347804
 42 2.011150 0.000000 -0.000000 0.000000 0.000000 2.082010
 43 2.141379 -0.000001 -0.000001 0.000000 0.000000 3.141593
 44 1.734173 -0.000001 -0.000001 -0.000000 0.000000 1.041748
 45 0.136314 -3.738192 2.525890 1.493698 2.759406 -1.474501
 46 5.613158 0.862366 3.157031 1.595152 -0.135386 0.061522
 47 11.389367 -0.000819 0.158781 2.054754 0.322295 0.195111
 48 -0.000000 -4.440599 0.000001 1.570144 -3.078602 0.004040
 49 6.000000 -0.000001 -0.000001 2.054754 -0.000000 0.000000
 50 0.000002 -4.440601 -0.000001 1.569944 -3.078603 0.004053
 51 10.510131 -0.000000 0.000001 0.000000 0.000000 -2.508731
 52 0.000000 -1.748400 -5.000000 3.141593 0.004007 -1.539299
 53 5.500000 0.000000 0.000000 0.181586 -0.000000 -0.000000
 54 -0.000000 0.000002 -5.000000 -0.044472 3.137589 -0.000177
 55 6.551491 -0.000001 0.000002 -0.181586 -0.282496 -0.132595
 56 -1.266843 -1.937442 -4.950559 -0.066572 -2.988806 -0.110308
 57 6.551491 -0.000001 0.000002 -0.181586 -0.282496 -0.132595
 58 0.699370 -1.944206 -5.006846 -0.027189 -3.088217 0.005298
 59 4.226144 -0.003200 0.000001 0.029719 0.050844 0.284615
 60 0.000001 5.000000 0.000000 -0.153564 0.000087 2.718702
 61 0.000004 -0.000004 -3.713580 0.365818 2.880119 -0.191589
 62 0.000002 -0.000000 5.000000 3.053196 1.558589 -0.074928
 63 -0.000007 0.000006 3.713580 -0.001619 -3.122277 -0.475127
 64 0.000002 -0.000000 -5.000000 -0.088726 1.558589 3.066335
 65 7.363602 1.646647 0.495663 3.141593 -1.570796 0.000000
 66 -0.000005 0.000007 3.619081 0.008255 -3.110080 -0.985231
 67 16.573919 0.000000 -0.000000 -0.000000 -0.000000 -1.065827
 68 15.128180 0.000001 0.000000 -0.102296 0.010178 0.114297
 69 5.758665 4.244730 0.000000 0.000000 0.000000 1.667687
 70 3.177726 0.000000 -0.000000 0.000000 0.000000 3.141593
 71 15.708951 0.000001 0.000000 -0.051525 0.003996 0.061523
 72 0.275148 0.189215 -3.445208 3.130898 0.000409 -1.514604
 73 17.210192 -0.000000 -0.000000 -0.000000 -0.000000 -1.893339
 74 0.000001 0.000000 -4.999999 -0.079433 1.546568 -1.570857
 75 0.000002 -0.000003 -3.619081 0.577895 2.675801 -0.242118
 76 16.573921 -0.000001 -0.000002 -0.000000 -0.000000 -1.163030
 77 15.128181 0.000001 0.000001 0.089479 0.309197 0.659208
 78 5.758666 4.244730 -0.000001 -0.000000 -0.000000 1.815142
 79 4.003934 -0.000000 0.000001 0.000000 0.000000 0.000000
 80 15.708954 0.000001 0.000002 0.042277 0.226871 0.443133
 81 0.273998 0.191089 3.439762 -3.130907 -0.000437 -1.508107
 82 17.210194 -0.000001 -0.000002 0.000000 -0.000000 -1.937080
 83 -0.000000 -0.000001 5.000000 -0.079319 1.595025 -1.570742
time 10
  0 -0.650000 0.000000 33.899605 -0.025849 0.174554 -1.569172
  1 5.685103 0.833236 -32.227173 -0.174512 -0.026131 1.569196
  2 -2.276935 0.000003 -1.238188 -1.570795 -1.570451 0.000000
  3 1.796800 0.712136 0.001410 -0.445866 0.052592 -0.140015
  4 4.119827 -0.002728 0.001350 -0.426610 0.104122 0.374089
  5 4.118912 -0.002938 0.001425 -0.449844 -0.042598 0.125036
  6 4.119636 -0.002854 0.001245 -0.389754 0.001160 0.346080
  7 4.120369 -0.003057 -0.000250 0.070740 0.090874 0.530427
  8 4.443598 0.000001 0.000001 0.507888 0.241615 -0.000295
  9 9.024061 -0.000003 0.000000 0.000000 0.000000 0.000000
 10 -0.157246 0.125502 1.721257 1.098416 -1.012049 1.524588
 11 6.384776 0.000001 0.000001 -0.478000 0.430221 -0.847751
 12 10.242684 -0.000000 -0.000000 -0.000000 -0.000000 -0.688467
 13 11.375561 0.000001 -0.000001 2.952423 0.283165 0.380878
 14 0.728680 0.023432 -1.008292 2.396606 0.246960 1.180207
 15 2.136497 -0.000001 0.000000 -0.000000 -0.000000 -0.078540
 16 2.313138 -0.000000 -0.000000 0.000000 0.000000 0.000000
 17 3.115507 -0.886041 -0.021432 -0.166499 0.000392 0.514872
 18 2.011151 -0.000001 0.000000 -0.000000 0.000000 1.322792
 19 2.141382 0.000001 -0.000000 0.000000 0.000000 0.000000
 20 1.734172 -0.000001 0.000000 -0.000000 0.000000 0.660693
 21 0.000007 -4.440593 -0.000001 1.570544 -0.062990 -0.195737
 22 6.000000 0.000000 -0.000001 -3.002415 -0.000000 0.000000
 23 0.000002 -4.440601 -0.000000 1.569944 -0.062987 0.004053
 24 11.375561 0.000001 0.000002 -2.453625 0.041753 0.286677
 25 -0.000001 -4.440603 -0.000000 1.570144 -0.062988 0.004040
 26 10.510131 -0.000000 -0.000001 -0.000000 0.000000 -1.915030
 27 0.000000 -1.748401 4.999999 -0.000000 0.004007 1.602290
 28 5.500000 0.000000 -0.000000 0.125176 0.000000 -0.000000
 29 0.000000 -1.940598 4.999999 -0.044472 0.004003 -0.000180
 30 6.551489 0.000000 0.000001 -0.256208 0.303080 -0.551417
 31 -0.000000 -1.940599 5.000002 -0.027189 -0.053376 0.005295
 32 6.551489 0.000000 0.000001 -0.100679 0.163099 -0.252424
 33 -0.000001 -1.940599 4.999996 -0.066572 -0.152786 -0.110311
 34 0.157247 -0.118422 -1.721254 -1.248577 1.339722 1.399563
 35 6.384777 -0.000001 0.000000 -0.581991 -0.859432 -0.227252
 36 10.242682 0.000002 -0.000000 0.000000 -0.000000 -1.875389
 37 11.375561 -0.000001 0.000001 2.634774 0.485289 0.547050
 38 0.728681 0.023430 1.008293 -1.579583 -0.319038 0.212973
 39 2.136496 0.000001 0.000001 -0.000000 0.000000 1.282817
 40 2.313139 0.000000 0.000000 0.000000 0.000000 3.141593
 41 3.115508 -0.886041 0.021431 0.708959 0.171755 0.347804
 42 2.011151 0.000001 0.000001 0.000000 0.000000 2.082010
 43 2.141378 -0.000001 0.000000 0.000000 0.000000 3.141593
 44 1.734172 -0.000001 0.000000 0.000000 0.000000 1.041748
 45 0.136314 -3.738191 2.525890 1.493698 2.759406 -1.474501
 46 5.613161 0.862367 3.157030 1.595152 -0.135386 0.061522
 47 11.389366 -0.000820 0.158781 2.051667 0.319061 0.196734
 48 0.000000 -4.440599 -0.000000 1.570144 -3.078602 0.004040
 49 6.000000 0.000000 -0.000000 2.051667 -0.000000 -0.000000
 50 0.000001 -4.440601 -0.000001 1.569944 -3.078603 0.004053
 51 10.510132 0.000001 0.000000 -0.000000 -0.000000 -2.508491
 52 -0.000002 -1.748401 -5.000000 -3.141593 0.004007 -1.539299
 53 5.500000 -0.000000 0.000000 0.180701 0.000000 0.000000
 54 0.000001 -0.000002 -4.999999 -0.044472 3.137589 -0.000177
 55 6.551491 -0.000000 -0.000000 -0.180701 -0.282618 -0.134295
 56 -1.266843 -1.937445 -4.950558 -0.066572 -2.988806 -0.110308
 57 6.551491 -0.000001 -0.000000 -0.180701 -0.282618 -0.134295
 58 0.699371 -1.944209 -5.006845 -0.027189 -3.088217 0.005298
 59 4.226144 -0.003201 0.000001 0.030018 0.051190 0.279991
 60 0.000001 5.000001 0.000000 -0.153564 0.000087 2.718702
 61 0.000004 -0.000004 -3.713580 0.365818 2.880119 -0.191589
 62 0.000002 -0.000000 5.000000 3.053196 1.558589 -0.074928
 63 -0.000007 0.000006 3.713580 -0.001619 -3.122277 -0.475127
 64 0.000002 -0.000000 -5.000000 -0.088726 1.558589 3.066335
 65 7.363602 1.646647 0.495663 3.141593 -1.570796 0.000000
 66 -0.000005 0.000007 3.619081 0.008255 -3.110080 -0.985231
 67 16.573919 0.000000 -0.000000 -0.000000 -0.000000 -1.065827
 68 15.128180 0.000001 0.000000 -0.102296 0.010178 0.114297
 69 5.758665 4.244730 0.000000 0.000000 0.000000 1.667687
 70 3.177726 0.000000 -0.000000 0.000000 0.000000 3.141593
 71 15.708951 0.000001 0.000000 -0.051525 0.003996 0.061523
 72 0.275148 0.189215 -3.445208 3.130898 0.000409 -1.514604
 73 17.210192 -0.000000 -0.000000 -0.000000 -0.000000 -1.893339
 74 0.000001 0.000000 -4.999999 -0.079433 1.546568 -1.570857
 75 0.000002 -0.000003 -3.619081 0.577895 2.675801 -0.242118
 76 16.573921 -0.000001 -0.000002 -0.000000 -0.000000 -1.163030
 77 15.128181 0.000001 0.000001 0.089479 0.309197 0.659208
 78 5.758666 4.244730 -0.000001 -0.000000 -0.000000 1.815142
 79 4.003934 -0.000000 0.000001 0.000000 0.000000 0.000000
 80 15.708954 0.000001 0.000002 0.042277 0.226871 0.443133
 81 0.273998 0.191089 3.439762 -3.130907 -0.000437 -1.508107
 82 17.210194 -0.000001 -0.000002 0.000000 -0.000000 -1.937080
 83 -0.000000 -0.000001 5.000000 -0.079319 1.595025 -1.570742
end
