version 1
nodes
  0 "Bip01"  -1
  1 "Bip01 Footsteps"   0
  2 "Bip01 Pelvis"   0
  3 "Bip01 Spine"   2
  4 "Bip01 Spine1"   3
  5 "Bip01 Spine2"   4
  6 "Bip01 Spine3"   5
  7 "Bip01 Neck"   6
  8 "Bip01 Head"   7
  9 "Dummy21"   8
 10 "Bip01 L Clavicle"   7
 11 "Bip01 L UpperArm"  10
 12 "Bip01 L Forearm"  11
 13 "Bip01 L Hand"  12
 14 "Bip01 L Finger0"  13
 15 "Bip01 L Finger01"  14
 16 "Dummy06"  15
 17 "Bip01 L Finger1"  13
 18 "Bip01 L Finger11"  17
 19 "Dummy03"  18
 20 "-- L knuckle"  17
 21 "-- L knuckle_end"  20
 22 "-- L Forearm twist"  12
 23 "-- L Forearm twist_end"  22
 24 "-- L wrist"  12
 25 "-- L wrist_end"  24
 26 "-- L Elbow"  11
 27 "--L Elbow_end"  26
 28 "-- L bicep twist"  11
 29 "-- L bicep twist_end"  28
 30 "-- L shoulder outside"  10
 31 "-- L shoulder outside_end"  30
 32 "-- L Shoulder inside"  10
 33 "-- L Shoulder inside_end"  32
 34 "Bip01 R Clavicle"   7
 35 "Bip01 R UpperArm"  34
 36 "Bip01 R Forearm"  35
 37 "Bip01 R Hand"  36
 38 "Bip01 R Finger0"  37
 39 "Bip01 R Finger01"  38
 40 "Dummy01"  39
 41 "Bip01 R Finger1"  37
 42 "Bip01 R Finger11"  41
 43 "Dummy02"  42
 44 "-- R knuckle"  41
 45 "Point06"  44
 46 "Line01"  37
 47 "-- R wrist"  36
 48 "-- R wrist_end"  47
 49 "-- R forearm twist"  36
 50 "-- R forearm twist_end"  49
 51 "-- R Elbow"  35
 52 "--R Elbow_end"  51
 53 "-- R bicep twist"  35
 54 "-- R bicep twist_end"  53
 55 "-- R Shoulder inside"  34
 56 "-- R Shoulder inside_end"  55
 57 "-- R shoulder outside"  34
 58 "-- R shoulder outside_end"  57
 59 "-- Neck smooth"   6
 60 "-- neck smooth end"  59
 61 "-- R Butt"   2
 62 "--R Butt_end"  61
 63 "-- L butt"   2
 64 "--L butt_end"  63
 65 "GIGN01"   2
 66 "Bip01 L Thigh"   2
 67 "Bip01 L Calf"  66
 68 "Bip01 L Foot"  67
 69 "Bip01 L Toe0"  68
 70 "Dummy16"  69
 71 "-- L ankle"  67
 72 "-- L ankleend"  71
 73 "-- L Knee"  66
 74 "--L Knee_end"  73
 75 "Bip01 R Thigh"   2
 76 "Bip01 R Calf"  75
 77 "Bip01 R Foot"  76
 78 "Bip01 R Toe0"  77
 79 "Dummy11"  78
 80 "-- R Ankle"  76
 81 "-- R ankleend"  80
 82 "-- R Knee"  75
 83 "--R Knee_end"  82
end
skeleton
time 0
  0 -0.650000 0.000000 33.899605 -0.025849 0.174554 -1.569172
  1 5.685104 0.833237 -32.227173 -0.174512 -0.026131 1.569196
  2 -2.276935 0.000003 -1.238189 -1.570795 -1.570451 0.000000
  3 1.796206 0.712040 0.000811 -0.260029 -0.265899 -0.229920
  4 4.119680 -0.002982 0.000838 -0.259651 0.111771 0.317737
  5 4.118758 -0.003161 0.000859 -0.268108 0.146104 0.009352
  6 4.118781 -0.003163 0.000847 -0.262891 0.116088 0.026294
  7 4.117621 -0.003388 -0.000276 0.078104 0.031050 -0.279570
  8 4.443596 -0.000000 -0.000000 1.020479 0.351411 -0.013503
  9 9.024059 -0.000000 -0.000000 0.000000 0.000000 0.000000
 10 -0.053791 0.138663 1.726606 1.548837 -1.216567 1.871479
 11 6.384777 -0.000001 -0.000000 -0.902572 0.985118 -0.319051
 12 10.242682 -0.000000 -0.000001 -0.000000 -0.000000 -2.372544
 13 11.375563 -0.000002 0.000000 -2.851436 0.468129 0.579044
 14 0.728680 0.023431 -1.008292 2.396606 0.246960 1.180207
 15 2.136496 0.000000 -0.000003 -0.000000 -0.000000 -0.078540
 16 2.313141 -0.000001 0.000002 0.000000 0.000000 0.000000
 17 3.115506 -0.886041 -0.021432 -0.166499 0.000392 0.514872
 18 2.011153 0.000001 -0.000002 -0.000000 0.000000 1.322792
 19 2.141379 -0.000001 0.000002 0.000000 0.000000 0.000000
 20 1.734174 0.000001 -0.000001 0.000000 -0.000000 0.660693
 21 0.000005 -4.440594 0.000001 1.570544 -0.062990 -0.195737
 22 6.000000 -0.000001 -0.000000 -2.594539 -0.000000 -0.000000
 23 0.000001 -4.440600 -0.000001 1.569944 -0.062987 0.004053
 24 11.375562 -0.000001 0.000004 -2.229414 0.133856 0.378974
 25 -0.000003 -4.440603 0.000002 1.570144 -0.062988 0.004040
 26 10.510130 -0.000001 -0.000000 0.000000 0.000000 -2.757069
 27 -0.000001 -1.748401 4.999998 -0.000000 0.004007 1.602290
 28 5.500000 -0.000000 -0.000000 0.282183 0.000000 0.000000
 29 -0.000001 -1.940598 5.000001 -0.044472 0.004003 -0.000180
 30 6.551491 -0.000001 -0.000002 -0.554251 0.727513 -0.043016
 31 0.000002 -1.940599 4.999999 -0.027189 -0.053376 0.005295
 32 6.551491 -0.000001 -0.000002 -0.231136 0.333365 0.034741
 33 0.000000 -1.940599 4.999997 -0.066572 -0.152786 -0.110311
 34 0.053793 -0.131586 -1.726606 -1.140800 1.274811 2.300494
 35 6.384777 0.000001 0.000002 -0.488684 -0.971934 -0.293452
 36 10.242684 0.000001 0.000001 0.000000 0.000000 -1.734048
 37 11.375562 -0.000001 -0.000001 1.725489 0.287084 -0.696941
 38 0.728680 0.023431 1.008291 -1.579583 -0.319038 0.212973
 39 2.136496 0.000002 0.000000 -0.000000 0.000000 1.282817
 40 2.313138 -0.000002 0.000000 0.000000 0.000000 3.141593
 41 3.115507 -0.886041 0.021432 0.708959 0.171755 0.347804
 42 2.011151 -0.000001 0.000001 -0.000000 0.000000 2.082010
 43 2.141380 0.000000 0.000001 0.000000 0.000000 3.141593
 44 1.734173 -0.000001 0.000001 -0.000000 0.000000 1.041748
 45 0.136315 -3.738192 2.525889 1.493698 2.759406 -1.474501
 46 5.613161 0.862367 3.157032 1.595152 -0.135386 0.061522
 47 11.389367 -0.000820 0.158780 1.669822 0.133229 -0.353713
 48 0.000001 -4.440599 0.000000 1.570144 -3.078602 0.004040
 49 6.000000 0.000000 -0.000001 1.669822 -0.000000 -0.000000
 50 0.000002 -4.440601 -0.000001 1.569944 -3.078603 0.004053
 51 10.510135 0.000001 0.000002 -0.000000 -0.000000 -2.437821
 52 0.000000 -1.748402 -5.000000 -3.141593 0.004007 -1.539299
 53 5.500000 0.000001 0.000000 0.164818 0.000000 -0.000000
 54 0.000000 0.000000 -4.999999 -0.044472 3.137589 -0.000177
 55 6.551491 0.000001 0.000001 -0.164818 -0.306427 -0.143927
 56 -1.266844 -1.937443 -4.950559 -0.066572 -2.988806 -0.110308
 57 6.551491 0.000001 0.000001 -0.164818 -0.306427 -0.143927
 58 0.699371 -1.944208 -5.006845 -0.027189 -3.088217 0.005298
 59 4.226146 -0.003201 0.000000 0.053647 0.019897 -0.212748
 60 0.000003 5.000000 0.000001 -0.153564 0.000087 2.718702
 61 0.000004 -0.000004 -3.713580 0.365818 2.880119 -0.191589
 62 0.000003 -0.000000 5.000000 3.053196 1.558589 -0.074928
 63 -0.000007 0.000006 3.713580 -0.001619 -3.122277 -0.475127
 64 0.000001 -0.000000 -5.000000 -0.088724 1.558589 3.066337
 65 7.363602 1.646647 0.495663 3.141593 -1.570796 0.000000
 66 -0.000005 0.000007 3.619081 0.008255 -3.110080 -0.985231
 67 16.573919 0.000001 0.000000 0.000000 -0.000000 -1.065827
 68 15.128182 0.000000 -0.000000 -0.102296 0.010178 0.114297
 69 5.758666 4.244730 -0.000000 0.000000 -0.000000 1.667687
 70 3.177726 0.000000 0.000000 0.000000 0.000000 3.141593
 71 15.708953 0.000001 0.000000 -0.051525 0.003996 0.061523
 72 0.275148 0.189215 -3.445208 3.130898 0.000409 -1.514604
 73 17.210194 -0.000000 0.000000 0.000000 0.000000 -1.893339
 74 0.000000 0.000000 -4.999999 -0.079433 1.546568 -1.570859
 75 0.000002 -0.000003 -3.619081 0.577895 2.675801 -0.242118
 76 16.573923 -0.000001 -0.000001 0.000000 -0.000000 -1.163030
 77 15.128182 -0.000001 0.000002 0.089479 0.309197 0.659208
 78 5.758665 4.244731 -0.000000 -0.000000 0.000000 1.815142
 79 4.003934 -0.000000 -0.000000 0.000000 0.000000 0.000000
 80 15.708954 -0.000000 0.000002 0.042277 0.226871 0.443133
 81 0.273998 0.191090 3.439763 -3.130907 -0.000437 -1.508107
 82 17.210196 -0.000001 -0.000001 0.000000 -0.000000 -1.937080
 83 0.000001 -0.000001 5.000000 -0.079314 1.595025 -1.570739
time 1
  0 -0.650000 0.000000 33.899605 -0.025849 0.174554 -1.569172
  1 5.685104 0.833237 -32.227173 -0.174512 -0.026131 1.569196
  2 -2.276935 0.000003 -1.238189 -1.570795 -1.570451 0.000000
  3 1.796205 0.712037 0.000798 -0.255860 -0.265321 -0.230508
  4 4.119679 -0.002986 0.000825 -0.255641 0.110626 0.318240
  5 4.118760 -0.003165 0.000846 -0.263878 0.146325 0.009998
  6 4.118787 -0.003167 0.000834 -0.258675 0.116142 0.026840
  7 4.117641 -0.003393 -0.000278 0.078634 0.025822 -0.274621
  8 4.443598 -0.000000 -0.000000 1.003650 0.351102 -0.025649
  9 9.024062 0.000001 -0.000000 0.000000 0.000000 0.000000
 10 -0.044738 0.139598 1.726791 1.562499 -1.217581 1.853321
 11 6.384778 0.000001 0.000002 -0.961267 0.965504 -0.399612
 12 10.242682 0.000000 0.000000 -0.000000 -0.000000 -2.358575
 13 11.375561 -0.000001 0.000001 -2.812414 0.476417 0.618784
 14 0.728681 0.023431 -1.008292 2.396606 0.246960 1.180207
 15 2.136496 -0.000001 0.000001 -0.000000 0.000000 -0.078540
 16 2.313139 -0.000000 0.000001 0.000000 0.000000 0.000000
 17 3.115507 -0.886040 -0.021433 -0.166499 0.000392 0.514872
 18 2.011152 0.000000 -0.000002 -0.000000 0.000000 1.322792
 19 2.141380 -0.000000 0.000002 0.000000 0.000000 0.000000
 20 1.734172 0.000000 -0.000001 -0.000000 0.000000 0.660693
 21 0.000006 -4.440594 -0.000001 1.570544 -0.062990 -0.195737
 22 5.999999 -0.000000 0.000001 -2.566683 0.000000 -0.000000
 23 0.000001 -4.440601 -0.000000 1.569944 -0.062987 0.004053
 24 11.375561 -0.000000 0.000003 -2.213838 0.134369 0.394712
 25 0.000000 -4.440604 0.000002 1.570144 -0.062988 0.004040
 26 10.510133 0.000000 0.000000 0.000000 0.000000 -2.750084
 27 -0.000001 -1.748400 4.999999 0.000000 0.004007 1.602290
 28 5.500000 -0.000001 0.000001 0.296161 0.000000 0.000000
 29 -0.000001 -1.940598 5.000002 -0.044472 0.004003 -0.000180
 30 6.551493 0.000000 0.000000 -0.590387 0.719552 -0.089918
 31 0.000001 -1.940599 5.000003 -0.027189 -0.053376 0.005295
 32 6.551493 0.000000 0.000000 -0.241752 0.332250 0.017802
 33 -0.000000 -1.940599 4.999999 -0.066572 -0.152786 -0.110311
 34 0.044737 -0.132522 -1.726791 -1.133436 1.271822 2.301785
 35 6.384778 0.000001 -0.000001 -0.474071 -0.979927 -0.296056
 36 10.242682 0.000000 -0.000000 0.000000 -0.000000 -1.733156
 37 11.375563 0.000001 0.000000 1.729781 0.287809 -0.702742
 38 0.728681 0.023431 1.008292 -1.579583 -0.319038 0.212973
 39 2.136500 -0.000001 -0.000001 -0.000000 0.000000 1.282817
 40 2.313140 0.000001 0.000000 0.000000 0.000000 3.141593
 41 3.115506 -0.886041 0.021429 0.708959 0.171755 0.347804
 42 2.011150 -0.000001 -0.000002 -0.000000 0.000000 2.082010
 43 2.141380 0.000000 0.000003 0.000000 0.000000 3.141593
 44 1.734172 -0.000001 -0.000001 0.000000 -0.000000 1.041748
 45 0.136314 -3.738192 2.525890 1.493698 2.759406 -1.474501
 46 5.613160 0.862367 3.157029 1.595152 -0.135386 0.061522
 47 11.389368 -0.000822 0.158780 1.672274 0.132932 -0.356335
 48 0.000001 -4.440599 0.000003 1.570144 -3.078602 0.004040
 49 6.000000 -0.000002 -0.000001 1.672274 0.000000 -0.000000
 50 0.000002 -4.440602 -0.000000 1.569944 -3.078603 0.004053
 51 10.510133 -0.000000 0.000000 -0.000000 -0.000000 -2.437374
 52 0.000000 -1.748399 -5.000001 -3.141593 0.004007 -1.539299
 53 5.500000 -0.000000 -0.000001 0.162398 -0.000000 -0.000000
 54 -0.000001 0.000001 -5.000000 -0.044472 3.137589 -0.000177
 55 6.551491 0.000001 -0.000003 -0.162398 -0.308460 -0.143984
 56 -1.266844 -1.937443 -4.950562 -0.066572 -2.988806 -0.110308
 57 6.551492 0.000001 -0.000003 -0.162398 -0.308460 -0.143984
 58 0.699371 -1.944209 -5.006849 -0.027189 -3.088217 0.005298
 59 4.226145 -0.003201 -0.000000 0.053906 0.016223 -0.209182
 60 -0.000000 5.000001 0.000000 -0.153564 0.000087 2.718702
 61 0.000004 -0.000004 -3.713580 0.365818 2.880119 -0.191589
 62 0.000003 -0.000000 5.000000 3.053196 1.558589 -0.074928
 63 -0.000007 0.000006 3.713580 -0.001619 -3.122277 -0.475127
 64 0.000001 -0.000000 -5.000000 -0.088724 1.558589 3.066337
 65 7.363602 1.646647 0.495663 3.141593 -1.570796 0.000000
 66 -0.000005 0.000007 3.619081 0.008255 -3.110080 -0.985231
 67 16.573919 0.000001 0.000000 0.000000 -0.000000 -1.065827
 68 15.128182 0.000000 -0.000000 -0.102296 0.010178 0.114297
 69 5.758666 4.244730 -0.000000 0.000000 -0.000000 1.667687
 70 3.177726 0.000000 0.000000 0.000000 0.000000 3.141593
 71 15.708953 0.000001 0.000000 -0.051525 0.003996 0.061523
 72 0.275148 0.189215 -3.445208 3.130898 0.000409 -1.514604
 73 17.210194 -0.000000 0.000000 0.000000 0.000000 -1.893339
 74 0.000000 0.000000 -4.999999 -0.079433 1.546568 -1.570859
 75 0.000002 -0.000003 -3.619081 0.577895 2.675801 -0.242118
 76 16.573923 -0.000001 -0.000001 0.000000 -0.000000 -1.163030
 77 15.128182 -0.000001 0.000002 0.089479 0.309197 0.659208
 78 5.758665 4.244731 -0.000000 -0.000000 0.000000 1.815142
 79 4.003934 -0.000000 -0.000000 0.000000 0.000000 0.000000
 80 15.708954 -0.000000 0.000002 0.042277 0.226871 0.443133
 81 0.273998 0.191090 3.439763 -3.130907 -0.000437 -1.508107
 82 17.210196 -0.000001 -0.000001 0.000000 -0.000000 -1.937080
 83 0.000001 -0.000001 5.000000 -0.079314 1.595025 -1.570739
time 2
  0 -0.650000 0.000000 33.899605 -0.025849 0.174554 -1.569172
  1 5.685104 0.833237 -32.227173 -0.174512 -0.026131 1.569196
  2 -2.276935 0.000003 -1.238189 -1.570795 -1.570451 0.000000
  3 1.796207 0.712033 0.000784 -0.251118 -0.264661 -0.231174
  4 4.119682 -0.002990 0.000811 -0.251078 0.109321 0.318806
  5 4.118759 -0.003168 0.000832 -0.259066 0.146573 0.010736
  6 4.118788 -0.003171 0.000818 -0.253877 0.116201 0.027462
  7 4.117658 -0.003398 -0.000280 0.079210 0.019826 -0.268951
  8 4.443601 -0.000000 0.000000 0.984454 0.350667 -0.039370
  9 9.024062 0.000000 0.000000 0.000000 0.000000 0.000000
 10 -0.034344 0.140612 1.726949 -1.563323 -1.922955 -1.309194
 11 6.384777 0.000000 -0.000001 -1.022017 0.941578 -0.485898
 12 10.242680 -0.000000 0.000001 -0.000000 -0.000000 -2.341838
 13 11.375561 -0.000001 0.000000 -2.767234 0.483740 0.662454
 14 0.728681 0.023431 -1.008292 2.396606 0.246960 1.180207
 15 2.136499 -0.000000 -0.000000 -0.000000 -0.000000 -0.078540
 16 2.313136 -0.000000 0.000000 0.000000 0.000000 0.000000
 17 3.115507 -0.886042 -0.021430 -0.166499 0.000392 0.514872
 18 2.011150 -0.000001 0.000002 -0.000000 0.000000 1.322792
 19 2.141379 0.000001 0.000002 0.000000 0.000000 0.000000
 20 1.734173 0.000002 0.000000 0.000000 -0.000000 0.660693
 21 0.000005 -4.440594 0.000001 1.570544 -0.062990 -0.195737
 22 6.000000 -0.000000 0.000000 -2.534618 -0.000000 -0.000000
 23 0.000002 -4.440600 -0.000001 1.569944 -0.062987 0.004053
 24 11.375564 -0.000001 0.000004 -2.195775 0.134769 0.411416
 25 -0.000003 -4.440603 -0.000000 1.570144 -0.062988 0.004040
 26 10.510129 -0.000000 0.000001 -0.000000 0.000000 -2.741715
 27 0.000003 -1.748400 4.999999 0.000000 0.004007 1.602290
 28 5.499999 -0.000000 0.000000 0.310969 0.000000 0.000000
 29 -0.000003 -1.940599 5.000002 -0.044472 0.004003 -0.000180
 30 6.551492 0.000001 0.000001 -0.628390 0.708432 -0.141030
 31 -0.000001 -1.940599 5.000004 -0.027189 -0.053376 0.005295
 32 6.551492 0.000001 0.000001 -0.252957 0.330347 -0.001076
 33 -0.000001 -1.940599 4.999997 -0.066572 -0.152786 -0.110311
 34 0.034354 -0.133535 -1.726949 -1.125041 1.268405 2.303207
 35 6.384776 -0.000001 -0.000002 -0.456964 -0.988751 -0.299382
 36 10.242682 0.000000 0.000002 -0.000000 -0.000000 -1.732154
 37 11.375563 0.000001 -0.000001 1.734419 0.288675 -0.709490
 38 0.728681 0.023431 1.008292 -1.579583 -0.319038 0.212973
 39 2.136497 0.000001 -0.000000 -0.000000 0.000000 1.282817
 40 2.313139 -0.000002 -0.000000 0.000000 0.000000 3.141593
 41 3.115509 -0.886041 0.021432 0.708959 0.171755 0.347804
 42 2.011152 0.000001 0.000000 -0.000000 0.000000 2.082010
 43 2.141379 0.000001 -0.000000 0.000000 0.000000 3.141593
 44 1.734172 -0.000001 -0.000002 -0.000000 -0.000000 1.041748
 45 0.136316 -3.738193 2.525890 1.493698 2.759406 -1.474501
 46 5.613161 0.862367 3.157031 1.595152 -0.135386 0.061522
 47 11.389368 -0.000816 0.158781 1.674957 0.132624 -0.359375
 48 0.000000 -4.440598 -0.000001 1.570144 -3.078602 0.004040
 49 6.000000 0.000000 -0.000001 1.674956 0.000000 -0.000000
 50 0.000002 -4.440601 0.000002 1.569944 -3.078603 0.004053
 51 10.510129 0.000001 0.000002 -0.000000 -0.000000 -2.436873
 52 -0.000000 -1.748401 -5.000001 3.141593 0.004007 -1.539299
 53 5.500000 -0.000000 0.000001 0.159603 0.000000 0.000000
 54 -0.000001 0.000001 -5.000001 -0.044472 3.137589 -0.000177
 55 6.551491 -0.000001 0.000002 -0.159603 -0.310679 -0.144090
 56 -1.266843 -1.937443 -4.950561 -0.066572 -2.988806 -0.110308
 57 6.551491 -0.000001 0.000002 -0.159603 -0.310679 -0.144090
 58 0.699371 -1.944208 -5.006848 -0.027189 -3.088217 0.005298
 59 4.226146 -0.003202 0.000000 0.054187 0.012004 -0.205081
 60 0.000001 5.000001 -0.000001 -0.153564 0.000087 2.718702
 61 0.000004 -0.000004 -3.713580 0.365818 2.880119 -0.191589
 62 0.000003 -0.000000 5.000000 3.053196 1.558589 -0.074928
 63 -0.000007 0.000006 3.713580 -0.001619 -3.122277 -0.475127
 64 0.000001 -0.000000 -5.000000 -0.088724 1.558589 3.066337
 65 7.363602 1.646647 0.495663 3.141593 -1.570796 0.000000
 66 -0.000005 0.000007 3.619081 0.008255 -3.110080 -0.985231
 67 16.573919 0.000001 0.000000 0.000000 -0.000000 -1.065827
 68 15.128182 0.000000 -0.000000 -0.102296 0.010178 0.114297
 69 5.758666 4.244730 -0.000000 0.000000 -0.000000 1.667687
 70 3.177726 0.000000 0.000000 0.000000 0.000000 3.141593
 71 15.708953 0.000001 0.000000 -0.051525 0.003996 0.061523
 72 0.275148 0.189215 -3.445208 3.130898 0.000409 -1.514604
 73 17.210194 -0.000000 0.000000 0.000000 0.000000 -1.893339
 74 0.000000 0.000000 -4.999999 -0.079433 1.546568 -1.570859
 75 0.000002 -0.000003 -3.619081 0.577895 2.675801 -0.242118
 76 16.573923 -0.000001 -0.000001 0.000000 -0.000000 -1.163030
 77 15.128182 -0.000001 0.000002 0.089479 0.309197 0.659208
 78 5.758665 4.244731 -0.000000 -0.000000 0.000000 1.815142
 79 4.003934 -0.000000 -0.000000 0.000000 0.000000 0.000000
 80 15.708954 -0.000000 0.000002 0.042277 0.226871 0.443133
 81 0.273998 0.191090 3.439763 -3.130907 -0.000437 -1.508107
 82 17.210196 -0.000001 -0.000001 0.000000 -0.000000 -1.937080
 83 0.000001 -0.000001 5.000000 -0.079314 1.595025 -1.570739
time 3
  0 -0.650000 0.000000 33.899605 -0.025849 0.174554 -1.569172
  1 5.685104 0.833237 -32.227173 -0.174512 -0.026131 1.569196
  2 -2.276935 0.000003 -1.238189 -1.570795 -1.570451 0.000000
  3 1.796206 0.712029 0.000770 -0.246664 -0.264038 -0.231797
  4 4.119686 -0.002993 0.000797 -0.246792 0.108093 0.319332
  5 4.118758 -0.003172 0.000818 -0.254544 0.146803 0.011429
  6 4.118791 -0.003175 0.000804 -0.249370 0.116254 0.028046
  7 4.117681 -0.003404 -0.000282 0.079752 0.013826 -0.263286
  8 4.443597 -0.000000 -0.000000 0.966385 0.350282 -0.052360
  9 9.024059 -0.000000 -0.000000 0.000000 0.000000 0.000000
 10 -0.023955 0.141562 1.727049 -1.547448 -1.922014 -1.330221
 11 6.384777 -0.000000 -0.000001 -1.073664 0.917751 -0.562246
 12 10.242681 -0.000001 -0.000000 0.000000 0.000000 -2.325285
 13 11.375562 -0.000001 -0.000000 -2.723863 0.488445 0.702576
 14 0.728682 0.023432 -1.008294 2.396606 0.246960 1.180207
 15 2.136492 0.000003 -0.000001 -0.000000 0.000000 -0.078540
 16 2.313142 -0.000001 -0.000000 0.000000 0.000000 0.000000
 17 3.115508 -0.886041 -0.021431 -0.166499 0.000392 0.514872
 18 2.011149 0.000000 -0.000001 -0.000000 -0.000000 1.322792
 19 2.141379 -0.000002 -0.000002 0.000000 0.000000 0.000000
 20 1.734171 0.000000 -0.000001 0.000000 0.000000 0.660693
 21 0.000005 -4.440594 -0.000001 1.570544 -0.062990 -0.195737
 22 6.000000 -0.000001 0.000001 -2.503975 -0.000000 -0.000000
 23 0.000002 -4.440602 -0.000000 1.569944 -0.062987 0.004053
 24 11.375561 -0.000000 0.000004 -2.178375 0.134786 0.426269
 25 -0.000003 -4.440604 0.000002 1.570144 -0.062988 0.004040
 26 10.510128 -0.000001 -0.000000 -0.000000 -0.000000 -2.733439
 27 -0.000002 -1.748401 4.999999 0.000000 0.004007 1.602291
 28 5.500000 0.000000 -0.000001 0.323769 -0.000000 -0.000000
 29 -0.000002 -1.940598 5.000001 -0.044472 0.004003 -0.000180
 30 6.551492 0.000000 -0.000001 -0.660897 0.696289 -0.186705
 31 -0.000000 -1.940599 5.000003 -0.027189 -0.053376 0.005295
 32 6.551492 0.000000 -0.000001 -0.262606 0.328019 -0.018385
 33 0.000001 -1.940599 4.999997 -0.066572 -0.152786 -0.110311
 34 0.023956 -0.134485 -1.727049 -1.116358 1.265001 2.304917
 35 6.384777 0.000001 0.000002 -0.440430 -0.996772 -0.302854
 36 10.242683 -0.000001 0.000001 -0.000000 0.000000 -1.731230
 37 11.375561 -0.000002 0.000001 1.739101 0.289487 -0.715888
 38 0.728679 0.023431 1.008292 -1.579583 -0.319038 0.212973
 39 2.136495 0.000000 -0.000000 -0.000000 -0.000000 1.282817
 40 2.313139 0.000001 0.000000 0.000000 0.000000 3.141593
 41 3.115505 -0.886041 0.021431 0.708959 0.171755 0.347804
 42 2.011150 -0.000001 -0.000003 -0.000000 0.000000 2.082010
 43 2.141380 -0.000000 0.000001 0.000000 0.000000 3.141593
 44 1.734173 -0.000001 -0.000001 0.000000 -0.000000 1.041748
 45 0.136315 -3.738192 2.525891 1.493698 2.759406 -1.474501
 46 5.613159 0.862367 3.157032 1.595152 -0.135386 0.061522
 47 11.389367 -0.000819 0.158782 1.677648 0.132288 -0.362266
 48 0.000001 -4.440599 -0.000001 1.570144 -3.078602 0.004040
 49 6.000000 -0.000001 0.000000 1.677648 -0.000000 0.000000
 50 0.000002 -4.440600 0.000000 1.569944 -3.078603 0.004053
 51 10.510133 -0.000001 0.000002 -0.000000 -0.000000 -2.436412
 52 -0.000001 -1.748399 -5.000000 -3.141593 0.004007 -1.539299
 53 5.500000 -0.000001 0.000000 0.156939 0.000000 0.000000
 54 0.000001 0.000000 -5.000001 -0.044472 3.137589 -0.000177
 55 6.551491 0.000002 -0.000002 -0.156939 -0.312674 -0.144224
 56 -1.266843 -1.937443 -4.950562 -0.066572 -2.988806 -0.110308
 57 6.551491 0.000001 -0.000002 -0.156939 -0.312674 -0.144224
 58 0.699371 -1.944208 -5.006849 -0.027189 -3.088217 0.005298
 59 4.226143 -0.003201 0.000000 0.054451 0.007778 -0.200964
 60 -0.000003 5.000000 0.000001 -0.153564 0.000087 2.718701
 61 0.000004 -0.000004 -3.713580 0.365818 2.880119 -0.191589
 62 0.000003 -0.000000 5.000000 3.053196 1.558589 -0.074928
 63 -0.000007 0.000006 3.713580 -0.001619 -3.122277 -0.475127
 64 0.000001 -0.000000 -5.000000 -0.088724 1.558589 3.066337
 65 7.363602 1.646647 0.495663 3.141593 -1.570796 0.000000
 66 -0.000005 0.000007 3.619081 0.008255 -3.110080 -0.985231
 67 16.573919 0.000001 0.000000 0.000000 -0.000000 -1.065827
 68 15.128182 0.000000 -0.000000 -0.102296 0.010178 0.114297
 69 5.758666 4.244730 -0.000000 0.000000 -0.000000 1.667687
 70 3.177726 0.000000 0.000000 0.000000 0.000000 3.141593
 71 15.708953 0.000001 0.000000 -0.051525 0.003996 0.061523
 72 0.275148 0.189215 -3.445208 3.130898 0.000409 -1.514604
 73 17.210194 -0.000000 0.000000 0.000000 0.000000 -1.893339
 74 0.000000 0.000000 -4.999999 -0.079433 1.546568 -1.570859
 75 0.000002 -0.000003 -3.619081 0.577895 2.675801 -0.242118
 76 16.573923 -0.000001 -0.000001 0.000000 -0.000000 -1.163030
 77 15.128182 -0.000001 0.000002 0.089479 0.309197 0.659208
 78 5.758665 4.244731 -0.000000 -0.000000 0.000000 1.815142
 79 4.003934 -0.000000 -0.000000 0.000000 0.000000 0.000000
 80 15.708954 -0.000000 0.000002 0.042277 0.226871 0.443133
 81 0.273998 0.191090 3.439763 -3.130907 -0.000437 -1.508107
 82 17.210196 -0.000001 -0.000001 0.000000 -0.000000 -1.937080
 83 0.000001 -0.000001 5.000000 -0.079314 1.595025 -1.570739
time 4
  0 -0.650000 0.000000 33.899605 -0.025849 0.174554 -1.569172
  1 5.685104 0.833237 -32.227173 -0.174512 -0.026131 1.569196
  2 -2.276935 0.000003 -1.238189 -1.570795 -1.570451 0.000000
  3 1.796209 0.712026 0.000760 -0.243361 -0.263573 -0.232257
  4 4.119683 -0.002995 0.000787 -0.243614 0.107180 0.319719
  5 4.118758 -0.003175 0.000807 -0.251189 0.146972 0.011945
  6 4.118788 -0.003177 0.000793 -0.246026 0.116292 0.028479
  7 4.117701 -0.003409 -0.000283 0.080197 0.008589 -0.258347
  8 4.443598 -0.000000 -0.000000 0.952960 0.350193 -0.062396
  9 9.024061 0.000000 0.000000 0.000000 0.000000 0.000000
 10 -0.014881 0.142339 1.727088 -1.533521 -1.921286 -1.348641
 11 6.384777 0.000000 0.000001 -1.108861 0.899224 -0.616366
 12 10.242683 -0.000000 0.000001 -0.000000 -0.000000 -2.312410
 13 11.375561 -0.000001 0.000001 -2.690764 0.490328 0.732515
 14 0.728680 0.023432 -1.008294 2.396606 0.246960 1.180207
 15 2.136497 -0.000001 0.000001 -0.000000 0.000000 -0.078540
 16 2.313140 -0.000000 0.000002 0.000000 0.000000 0.000000
 17 3.115506 -0.886041 -0.021433 -0.166499 0.000392 0.514872
 18 2.011151 0.000000 -0.000000 -0.000000 -0.000000 1.322792
 19 2.141381 0.000001 -0.000000 0.000000 0.000000 0.000000
 20 1.734171 -0.000000 0.000002 -0.000000 -0.000000 0.660693
 21 0.000006 -4.440593 0.000002 1.570544 -0.062990 -0.195737
 22 5.999998 0.000001 0.000001 -2.480665 0.000000 -0.000000
 23 0.000003 -4.440601 -0.000001 1.569944 -0.062987 0.004053
 24 11.375560 0.000000 0.000004 -2.165047 0.134365 0.437087
 25 0.000001 -4.440605 0.000002 1.570144 -0.062988 0.004040
 26 10.510131 0.000000 -0.000000 -0.000000 -0.000000 -2.727001
 27 -0.000000 -1.748401 5.000000 0.000000 0.004007 1.602291
 28 5.500002 0.000000 -0.000000 0.332581 -0.000000 0.000000
 29 0.000001 -1.940599 5.000000 -0.044472 0.004003 -0.000180
 30 6.551491 0.000000 -0.000000 -0.683035 0.686329 -0.219229
 31 0.000000 -1.940599 5.000000 -0.027189 -0.053376 0.005295
 32 6.551491 0.000000 -0.000000 -0.269227 0.325980 -0.031004
 33 0.000001 -1.940599 4.999995 -0.066572 -0.152786 -0.110311
 34 0.014882 -0.135263 -1.727088 -1.108094 1.262039 2.307113
 35 6.384777 -0.000000 0.000003 -0.427875 -1.002554 -0.305645
 36 10.242682 0.000001 0.000000 -0.000000 0.000000 -1.730561
 37 11.375563 0.000003 0.000000 1.743415 0.290048 -0.720578
 38 0.728681 0.023431 1.008293 -1.579583 -0.319038 0.212973
 39 2.136496 0.000000 0.000000 0.000000 -0.000000 1.282817
 40 2.313139 -0.000002 0.000000 0.000000 0.000000 3.141593
 41 3.115508 -0.886041 0.021432 0.708959 0.171755 0.347804
 42 2.011150 -0.000001 -0.000001 -0.000000 0.000000 2.082010
 43 2.141380 -0.000000 -0.000001 0.000000 0.000000 3.141593
 44 1.734171 -0.000002 -0.000002 -0.000000 -0.000000 1.041748
 45 0.136315 -3.738192 2.525890 1.493698 2.759406 -1.474501
 46 5.613160 0.862367 3.157030 1.595152 -0.135386 0.061522
 47 11.389368 -0.000819 0.158781 1.680065 0.131925 -0.364418
 48 -0.000000 -4.440599 -0.000001 1.570144 -3.078602 0.004040
 49 6.000000 0.000002 0.000000 1.680065 -0.000000 -0.000000
 50 0.000002 -4.440601 0.000002 1.569944 -3.078603 0.004053
 51 10.510135 0.000000 0.000002 0.000000 0.000000 -2.436076
 52 0.000000 -1.748401 -5.000002 3.141593 0.004007 -1.539299
 53 5.500001 0.000001 0.000001 0.154937 -0.000000 -0.000000
 54 -0.000002 0.000001 -5.000000 -0.044472 3.137589 -0.000177
 55 6.551491 -0.000000 0.000003 -0.154937 -0.314097 -0.144343
 56 -1.266843 -1.937443 -4.950562 -0.066572 -2.988806 -0.110308
 57 6.551491 -0.000000 0.000003 -0.154937 -0.314097 -0.144343
 58 0.699369 -1.944207 -5.006849 -0.027189 -3.088217 0.005298
 59 4.226148 -0.003201 0.000000 0.054667 0.004086 -0.197360
 60 -0.000001 5.000000 0.000000 -0.153564 0.000087 2.718702
 61 0.000004 -0.000004 -3.713580 0.365818 2.880119 -0.191589
 62 0.000003 -0.000000 5.000000 3.053196 1.558589 -0.074928
 63 -0.000007 0.000006 3.713580 -0.001619 -3.122277 -0.475127
 64 0.000001 -0.000000 -5.000000 -0.088724 1.558589 3.066337
 65 7.363602 1.646647 0.495663 3.141593 -1.570796 0.000000
 66 -0.000005 0.000007 3.619081 0.008255 -3.110080 -0.985231
 67 16.573919 0.000001 0.000000 0.000000 -0.000000 -1.065827
 68 15.128182 0.000000 -0.000000 -0.102296 0.010178 0.114297
 69 5.758666 4.244730 -0.000000 0.000000 -0.000000 1.667687
 70 3.177726 0.000000 0.000000 0.000000 0.000000 3.141593
 71 15.708953 0.000001 0.000000 -0.051525 0.003996 0.061523
 72 0.275148 0.189215 -3.445208 3.130898 0.000409 -1.514604
 73 17.210194 -0.000000 0.000000 0.000000 0.000000 -1.893339
 74 0.000000 0.000000 -4.999999 -0.079433 1.546568 -1.570859
 75 0.000002 -0.000003 -3.619081 0.577895 2.675801 -0.242118
 76 16.573923 -0.000001 -0.000001 0.000000 -0.000000 -1.163030
 77 15.128182 -0.000001 0.000002 0.089479 0.309197 0.659208
 78 5.758665 4.244731 -0.000000 -0.000000 0.000000 1.815142
 79 4.003934 -0.000000 -0.000000 0.000000 0.000000 0.000000
 80 15.708954 -0.000000 0.000002 0.042277 0.226871 0.443133
 81 0.273998 0.191090 3.439763 -3.130907 -0.000437 -1.508107
 82 17.210196 -0.000001 -0.000001 0.000000 -0.000000 -1.937080
 83 0.000001 -0.000001 5.000000 -0.079314 1.595025 -1.570739
time 5
  0 -0.650000 0.000000 33.899605 -0.025849 0.174554 -1.569172
  1 5.685104 0.833237 -32.227173 -0.174512 -0.026131 1.569196
  2 -2.276935 0.000003 -1.238189 -1.570795 -1.570451 0.000000
  3 1.796209 0.712025 0.000756 -0.242068 -0.263392 -0.232437
  4 4.119684 -0.002996 0.000783 -0.242370 0.106822 0.319870
  5 4.118761 -0.003176 0.000803 -0.249876 0.147038 0.012147
  6 4.118786 -0.003178 0.000789 -0.244717 0.116306 0.028649
  7 4.117714 -0.003412 -0.000284 0.080497 0.004883 -0.254855
  8 4.443598 -0.000000 0.000000 0.947717 0.350675 -0.067317
  9 9.024059 0.000001 0.000000 0.000000 0.000000 0.000000
 10 -0.008460 0.142859 1.727090 -1.523631 -1.920826 -1.361709
 11 6.384777 -0.000000 0.000000 -1.122022 0.891342 -0.637543
 12 10.242683 0.000002 -0.000001 0.000000 0.000000 -2.307000
 13 11.375565 -0.000001 0.000001 -2.676447 0.490014 0.746324
 14 0.728681 0.023432 -1.008294 2.396606 0.246960 1.180207
 15 2.136497 0.000000 -0.000001 -0.000000 -0.000000 -0.078540
 16 2.313137 -0.000000 -0.000001 0.000000 0.000000 0.000000
 17 3.115507 -0.886041 -0.021432 -0.166499 0.000392 0.514872
 18 2.011150 0.000000 0.000002 -0.000000 0.000000 1.322792
 19 2.141380 -0.000001 -0.000003 0.000000 0.000000 0.000000
 20 1.734172 0.000002 0.000001 0.000000 -0.000000 0.660693
 21 0.000005 -4.440594 0.000001 1.570544 -0.062990 -0.195737
 22 6.000000 0.000000 0.000001 -2.470667 0.000000 0.000000
 23 0.000001 -4.440600 0.000001 1.569944 -0.062987 0.004053
 24 11.375564 -0.000000 0.000005 -2.159308 0.133587 0.442033
 25 -0.000002 -4.440604 -0.000000 1.570144 -0.062988 0.004040
 26 10.510131 0.000001 -0.000001 0.000000 0.000000 -2.724296
 27 0.000001 -1.748400 5.000000 -0.000000 0.004007 1.602290
 28 5.500000 0.000001 -0.000000 0.335945 0.000000 0.000000
 29 -0.000003 -1.940599 5.000002 -0.044472 0.004003 -0.000180
 30 6.551491 -0.000000 0.000001 -0.691388 0.681915 -0.232092
 31 0.000002 -1.940599 4.999999 -0.027189 -0.053376 0.005295
 32 6.551491 -0.000000 0.000001 -0.271751 0.325022 -0.036106
 33 -0.000001 -1.940599 4.999997 -0.066572 -0.152786 -0.110311
 34 0.008460 -0.135783 -1.727090 -1.100919 1.259946 2.310033
 35 6.384777 -0.000001 0.000000 -0.422897 -1.004776 -0.306785
 36 10.242684 0.000001 0.000000 -0.000000 -0.000000 -1.730302
 37 11.375562 -0.000000 -0.000000 1.746883 0.290156 -0.722178
 38 0.728681 0.023432 1.008293 -1.579583 -0.319038 0.212973
 39 2.136498 -0.000001 0.000000 -0.000000 -0.000000 1.282817
 40 2.313139 0.000001 0.000000 0.000000 0.000000 3.141593
 41 3.115507 -0.886040 0.021431 0.708959 0.171755 0.347804
 42 2.011151 -0.000001 -0.000001 -0.000000 0.000000 2.082010
 43 2.141380 0.000000 -0.000000 0.000000 0.000000 3.141593
 44 1.734173 -0.000001 -0.000001 -0.000000 0.000000 1.041748
 45 0.136316 -3.738191 2.525888 1.493698 2.759406 -1.474501
 46 5.613162 0.862367 3.157032 1.595152 -0.135386 0.061522
 47 11.389368 -0.000817 0.158781 1.681885 0.131546 -0.365222
 48 0.000001 -4.440599 0.000001 1.570144 -3.078602 0.004040
 49 6.000000 0.000001 -0.000000 1.681885 -0.000000 0.000000
 50 0.000002 -4.440601 -0.000001 1.569944 -3.078603 0.004053
 51 10.510133 0.000001 0.000001 0.000000 0.000000 -2.435948
 52 0.000000 -1.748401 -5.000000 -3.141593 0.004007 -1.539299
 53 5.500001 0.000001 0.000000 0.154148 0.000000 0.000000
 54 0.000003 0.000000 -4.999999 -0.044472 3.137589 -0.000177
 55 6.551490 -0.000000 -0.000003 -0.154148 -0.314641 -0.144394
 56 -1.266842 -1.937444 -4.950557 -0.066572 -2.988806 -0.110308
 57 6.551490 -0.000000 -0.000003 -0.154148 -0.314641 -0.144394
 58 0.699371 -1.944208 -5.006846 -0.027189 -3.088217 0.005298
 59 4.226147 -0.003201 0.000000 0.054811 0.001473 -0.194803
 60 -0.000002 5.000000 -0.000000 -0.153564 0.000087 2.718702
 61 0.000004 -0.000004 -3.713580 0.365818 2.880119 -0.191589
 62 0.000003 -0.000000 5.000000 3.053196 1.558589 -0.074928
 63 -0.000007 0.000006 3.713580 -0.001619 -3.122277 -0.475127
 64 0.000001 -0.000000 -5.000000 -0.088724 1.558589 3.066337
 65 7.363602 1.646647 0.495663 3.141593 -1.570796 0.000000
 66 -0.000005 0.000007 3.619081 0.008255 -3.110080 -0.985231
 67 16.573919 0.000001 0.000000 0.000000 -0.000000 -1.065827
 68 15.128182 0.000000 -0.000000 -0.102296 0.010178 0.114297
 69 5.758666 4.244730 -0.000000 0.000000 -0.000000 1.667687
 70 3.177726 0.000000 0.000000 0.000000 0.000000 3.141593
 71 15.708953 0.000001 0.000000 -0.051525 0.003996 0.061523
 72 0.275148 0.189215 -3.445208 3.130898 0.000409 -1.514604
 73 17.210194 -0.000000 0.000000 0.000000 0.000000 -1.893339
 74 0.000000 0.000000 -4.999999 -0.079433 1.546568 -1.570859
 75 0.000002 -0.000003 -3.619081 0.577895 2.675801 -0.242118
 76 16.573923 -0.000001 -0.000001 0.000000 -0.000000 -1.163030
 77 15.128182 -0.000001 0.000002 0.089479 0.309197 0.659208
 78 5.758665 4.244731 -0.000000 -0.000000 0.000000 1.815142
 79 4.003934 -0.000000 -0.000000 0.000000 0.000000 0.000000
 80 15.708954 -0.000000 0.000002 0.042277 0.226871 0.443133
 81 0.273998 0.191090 3.439763 -3.130907 -0.000437 -1.508107
 82 17.210196 -0.000001 -0.000001 0.000000 -0.000000 -1.937080
 83 0.000001 -0.000001 5.000000 -0.079314 1.595025 -1.570739
time 6
  0 -0.650000 0.000000 33.899605 -0.025849 0.174554 -1.569172
  1 5.685104 0.833237 -32.227173 -0.174512 -0.026131 1.569196
  2 -2.276935 0.000003 -1.238189 -1.570795 -1.570451 0.000000
  3 1.796209 0.712026 0.000760 -0.243361 -0.263574 -0.232257
  4 4.119684 -0.002995 0.000787 -0.243614 0.107180 0.319719
  5 4.118758 -0.003175 0.000807 -0.251189 0.146972 0.011945
  6 4.118788 -0.003177 0.000793 -0.246026 0.116292 0.028479
  7 4.117719 -0.003414 -0.000285 0.080607 0.003477 -0.253530
  8 4.443599 0.000000 0.000000 0.953030 0.351811 -0.065544
  9 9.024062 0.000001 0.000000 0.000000 0.000000 0.000000
 10 -0.006025 0.143051 1.727085 -1.519872 -1.920663 -1.366673
 11 6.384777 0.000000 0.000001 -1.109213 0.897540 -0.618442
 12 10.242682 0.000002 0.000000 -0.000000 -0.000000 -2.311591
 13 11.375563 0.000000 0.000001 -2.686468 0.487977 0.740142
 14 0.728682 0.023431 -1.008294 2.396606 0.246960 1.180207
 15 2.136496 -0.000000 -0.000000 -0.000000 -0.000000 -0.078540
 16 2.313138 -0.000000 0.000000 0.000000 0.000000 0.000000
 17 3.115508 -0.886040 -0.021434 -0.166499 0.000392 0.514872
 18 2.011152 0.000001 0.000001 -0.000000 -0.000000 1.322792
 19 2.141379 -0.000001 0.000000 0.000000 0.000000 0.000000
 20 1.734172 0.000000 0.000001 -0.000000 -0.000000 0.660693
 21 0.000005 -4.440595 0.000003 1.570544 -0.062990 -0.195737
 22 6.000000 0.000001 0.000000 -2.477916 0.000000 0.000000
 23 0.000001 -4.440601 0.000000 1.569944 -0.062987 0.004053
 24 11.375562 0.000001 0.000004 -2.163493 0.132515 0.439886
 25 -0.000001 -4.440603 0.000002 1.570144 -0.062988 0.004040
 26 10.510131 0.000001 0.000001 0.000000 -0.000000 -2.726592
 27 -0.000001 -1.748400 5.000000 -0.000000 0.004007 1.602291
 28 5.499998 0.000000 0.000002 0.332879 -0.000000 -0.000000
 29 -0.000002 -1.940598 5.000000 -0.044472 0.004003 -0.000180
 30 6.551491 0.000000 -0.000001 -0.683637 0.685135 -0.220920
 31 0.000001 -1.940599 5.000000 -0.027189 -0.053376 0.005295
 32 6.551491 0.000000 -0.000001 -0.269458 0.325632 -0.031807
 33 -0.000000 -1.940599 4.999995 -0.066572 -0.152786 -0.110311
 34 0.006024 -0.135974 -1.727085 -1.095857 1.259147 2.313554
 35 6.384776 -0.000000 0.000003 -0.427875 -1.002554 -0.305644
 36 10.242682 0.000001 0.000001 -0.000000 0.000000 -1.730561
 37 11.375562 0.000003 -0.000001 1.749186 0.289659 -0.719769
 38 0.728679 0.023431 1.008291 -1.579583 -0.319038 0.212973
 39 2.136497 0.000000 0.000001 -0.000000 0.000000 1.282817
 40 2.313139 -0.000001 -0.000000 0.000000 0.000000 3.141593
 41 3.115506 -0.886041 0.021430 0.708959 0.171755 0.347804
 42 2.011151 -0.000000 0.000001 -0.000000 0.000000 2.082010
 43 2.141380 0.000001 0.000000 0.000000 0.000000 3.141593
 44 1.734173 -0.000001 0.000001 0.000000 -0.000000 1.041748
 45 0.136316 -3.738194 2.525893 1.493698 2.759406 -1.474501
 46 5.613158 0.862367 3.157030 1.595152 -0.135386 0.061522
 47 11.389368 -0.000819 0.158780 1.682895 0.131153 -0.364274
 48 0.000000 -4.440599 0.000000 1.570144 -3.078602 0.004040
 49 6.000000 0.000002 -0.000001 1.682895 0.000000 -0.000000
 50 0.000002 -4.440601 0.000000 1.569944 -3.078603 0.004053
 51 10.510133 0.000001 0.000002 -0.000000 -0.000000 -2.436076
 52 -0.000000 -1.748398 -5.000002 -3.141593 0.004007 -1.539299
 53 5.500000 0.000001 0.000000 0.154937 -0.000000 -0.000000
 54 -0.000002 0.000001 -5.000000 -0.044472 3.137589 -0.000177
 55 6.551490 -0.000000 0.000003 -0.154937 -0.314097 -0.144343
 56 -1.266844 -1.937443 -4.950561 -0.066572 -2.988806 -0.110308
 57 6.551491 -0.000001 0.000003 -0.154937 -0.314097 -0.144343
 58 0.699369 -1.944208 -5.006849 -0.027189 -3.088217 0.005298
 59 4.226148 -0.003201 0.000000 0.054864 0.000480 -0.193832
 60 0.000001 5.000000 -0.000000 -0.153564 0.000087 2.718702
 61 0.000004 -0.000004 -3.713580 0.365818 2.880119 -0.191589
 62 0.000003 -0.000000 5.000000 3.053196 1.558589 -0.074928
 63 -0.000007 0.000006 3.713580 -0.001619 -3.122277 -0.475127
 64 0.000001 -0.000000 -5.000000 -0.088724 1.558589 3.066337
 65 7.363602 1.646647 0.495663 3.141593 -1.570796 0.000000
 66 -0.000005 0.000007 3.619081 0.008255 -3.110080 -0.985231
 67 16.573919 0.000001 0.000000 0.000000 -0.000000 -1.065827
 68 15.128182 0.000000 -0.000000 -0.102296 0.010178 0.114297
 69 5.758666 4.244730 -0.000000 0.000000 -0.000000 1.667687
 70 3.177726 0.000000 0.000000 0.000000 0.000000 3.141593
 71 15.708953 0.000001 0.000000 -0.051525 0.003996 0.061523
 72 0.275148 0.189215 -3.445208 3.130898 0.000409 -1.514604
 73 17.210194 -0.000000 0.000000 0.000000 0.000000 -1.893339
 74 0.000000 0.000000 -4.999999 -0.079433 1.546568 -1.570859
 75 0.000002 -0.000003 -3.619081 0.577895 2.675801 -0.242118
 76 16.573923 -0.000001 -0.000001 0.000000 -0.000000 -1.163030
 77 15.128182 -0.000001 0.000002 0.089479 0.309197 0.659208
 78 5.758665 4.244731 -0.000000 -0.000000 0.000000 1.815142
 79 4.003934 -0.000000 -0.000000 0.000000 0.000000 0.000000
 80 15.708954 -0.000000 0.000002 0.042277 0.226871 0.443133
 81 0.273998 0.191090 3.439763 -3.130907 -0.000437 -1.508107
 82 17.210196 -0.000001 -0.000001 0.000000 -0.000000 -1.937080
 83 0.000001 -0.000001 5.000000 -0.079314 1.595025 -1.570739
time 7
  0 -0.650000 0.000000 33.899605 -0.025849 0.174554 -1.569172
  1 5.685104 0.833237 -32.227173 -0.174512 -0.026131 1.569196
  2 -2.276935 0.000003 -1.238189 -1.570795 -1.570451 0.000000
  3 1.796206 0.712029 0.000770 -0.246664 -0.264038 -0.231797
  4 4.119686 -0.002993 0.000797 -0.246792 0.108093 0.319332
  5 4.118758 -0.003172 0.000817 -0.254544 0.146803 0.011429
  6 4.118790 -0.003175 0.000804 -0.249370 0.116254 0.028046
  7 4.117706 -0.003411 -0.000284 0.080368 0.006497 -0.256375
  8 4.443598 0.000000 0.000000 0.966532 0.352570 -0.056915
  9 9.024059 0.000000 0.000000 0.000000 0.000000 0.000000
 10 -0.011256 0.142636 1.727092 -1.527940 -1.921021 -1.356016
 11 6.384777 -0.000001 -0.000002 -1.074681 0.914417 -0.566640
 12 10.242682 0.000000 0.000001 0.000000 0.000000 -2.323781
 13 11.375564 -0.000001 0.000001 -2.715233 0.484135 0.718062
 14 0.728681 0.023430 -1.008291 2.396606 0.246960 1.180207
 15 2.136497 -0.000001 0.000001 -0.000000 -0.000000 -0.078540
 16 2.313139 -0.000000 0.000001 0.000000 0.000000 0.000000
 17 3.115507 -0.886042 -0.021431 -0.166499 0.000392 0.514872
 18 2.011151 0.000001 -0.000003 0.000000 -0.000000 1.322792
 19 2.141379 -0.000000 0.000002 0.000000 0.000000 0.000000
 20 1.734172 0.000002 -0.000002 -0.000000 -0.000000 0.660693
 21 0.000005 -4.440593 0.000002 1.570544 -0.062990 -0.195737
 22 6.000003 -0.000001 0.000002 -2.498465 -0.000000 -0.000000
 23 0.000002 -4.440600 -0.000001 1.569944 -0.062987 0.004053
 24 11.375563 0.000000 0.000005 -2.175296 0.131142 0.431982
 25 0.000000 -4.440603 0.000001 1.570144 -0.062988 0.004040
 26 10.510129 0.000000 0.000000 -0.000000 0.000000 -2.732687
 27 0.000001 -1.748401 4.999999 0.000000 0.004007 1.602291
 28 5.500000 0.000001 0.000000 0.324435 -0.000000 -0.000000
 29 -0.000003 -1.940599 5.000000 -0.044472 0.004003 -0.000180
 30 6.551491 -0.000000 -0.000001 -0.662325 0.694019 -0.190195
 31 -0.000001 -1.940600 5.000001 -0.027189 -0.053376 0.005295
 32 6.551491 -0.000000 -0.000001 -0.263122 0.327367 -0.019985
 33 -0.000001 -1.940599 4.999997 -0.066572 -0.152786 -0.110311
 34 0.011256 -0.135559 -1.727092 -1.098670 1.260856 2.314299
 35 6.384777 0.000000 0.000001 -0.440430 -0.996772 -0.302854
 36 10.242683 -0.000001 0.000001 -0.000000 0.000000 -1.731230
 37 11.375561 -0.000002 -0.000001 1.750638 0.288658 -0.714275
 38 0.728680 0.023431 1.008291 -1.579583 -0.319038 0.212973
 39 2.136496 0.000002 -0.000000 -0.000000 0.000000 1.282817
 40 2.313138 -0.000001 -0.000000 0.000000 0.000000 3.141593
 41 3.115507 -0.886041 0.021431 0.708959 0.171755 0.347804
 42 2.011150 -0.000001 0.000000 -0.000000 0.000000 2.082010
 43 2.141380 -0.000001 0.000001 0.000000 0.000000 3.141593
 44 1.734173 -0.000001 0.000002 0.000000 0.000000 1.041748
 45 0.136316 -3.738193 2.525890 1.493698 2.759406 -1.474501
 46 5.613160 0.862366 3.157031 1.595152 -0.135386 0.061522
 47 11.389368 -0.000819 0.158781 1.683300 0.130727 -0.361980
 48 -0.000000 -4.440599 -0.000001 1.570144 -3.078602 0.004040
 49 6.000000 -0.000001 -0.000001 1.683300 -0.000000 0.000000
 50 0.000001 -4.440601 0.000001 1.569944 -3.078603 0.004053
 51 10.510133 -0.000001 0.000002 -0.000000 -0.000000 -2.436412
 52 -0.000000 -1.748399 -5.000000 -3.141593 0.004007 -1.539299
 53 5.500000 -0.000001 0.000001 0.156939 0.000000 0.000000
 54 0.000001 0.000000 -5.000000 -0.044472 3.137589 -0.000177
 55 6.551491 0.000000 0.000002 -0.156939 -0.312674 -0.144224
 56 -1.266845 -1.937443 -4.950562 -0.066572 -2.988806 -0.110308
 57 6.551492 0.000000 0.000002 -0.156939 -0.312674 -0.144224
 58 0.699370 -1.944207 -5.006850 -0.027189 -3.088217 0.005298
 59 4.226147 -0.003202 0.000000 0.054749 0.002611 -0.195917
 60 0.000002 5.000000 0.000001 -0.153564 0.000087 2.718702
 61 0.000004 -0.000004 -3.713580 0.365818 2.880119 -0.191589
 62 0.000003 -0.000000 5.000000 3.053196 1.558589 -0.074928
 63 -0.000007 0.000006 3.713580 -0.001619 -3.122277 -0.475127
 64 0.000001 -0.000000 -5.000000 -0.088724 1.558589 3.066337
 65 7.363602 1.646647 0.495663 3.141593 -1.570796 0.000000
 66 -0.000005 0.000007 3.619081 0.008255 -3.110080 -0.985231
 67 16.573919 0.000001 0.000000 0.000000 -0.000000 -1.065827
 68 15.128182 0.000000 -0.000000 -0.102296 0.010178 0.114297
 69 5.758666 4.244730 -0.000000 0.000000 -0.000000 1.667687
 70 3.177726 0.000000 0.000000 0.000000 0.000000 3.141593
 71 15.708953 0.000001 0.000000 -0.051525 0.003996 0.061523
 72 0.275148 0.189215 -3.445208 3.130898 0.000409 -1.514604
 73 17.210194 -0.000000 0.000000 0.000000 0.000000 -1.893339
 74 0.000000 0.000000 -4.999999 -0.079433 1.546568 -1.570859
 75 0.000002 -0.000003 -3.619081 0.577895 2.675801 -0.242118
 76 16.573923 -0.000001 -0.000001 0.000000 -0.000000 -1.163030
 77 15.128182 -0.000001 0.000002 0.089479 0.309197 0.659208
 78 5.758665 4.244731 -0.000000 -0.000000 0.000000 1.815142
 79 4.003934 -0.000000 -0.000000 0.000000 0.000000 0.000000
 80 15.708954 -0.000000 0.000002 0.042277 0.226871 0.443133
 81 0.273998 0.191090 3.439763 -3.130907 -0.000437 -1.508107
 82 17.210196 -0.000001 -0.000001 0.000000 -0.000000 -1.937080
 83 0.000001 -0.000001 5.000000 -0.079314 1.595025 -1.570739
time 8
  0 -0.650000 0.000000 33.899605 -0.025849 0.174554 -1.569172
  1 5.685104 0.833237 -32.227173 -0.174512 -0.026131 1.569196
  2 -2.276935 0.000003 -1.238189 -1.570795 -1.570451 0.000000
  3 1.796207 0.712033 0.000784 -0.251118 -0.264661 -0.231174
  4 4.119682 -0.002989 0.000811 -0.251078 0.109321 0.318806
  5 4.118759 -0.003169 0.000832 -0.259066 0.146573 0.010736
  6 4.118787 -0.003171 0.000818 -0.253877 0.116201 0.027462
  7 4.117680 -0.003405 -0.000282 0.079752 0.013826 -0.263286
  8 4.443600 -0.000000 -0.000000 0.984629 0.352505 -0.043145
  9 9.024062 -0.000000 -0.000000 0.000000 0.000000 0.000000
 10 -0.023951 0.141562 1.727049 -1.547448 -1.922014 -1.330221
 11 6.384777 -0.000001 -0.000002 -1.024224 0.936686 -0.493013
 12 10.242683 0.000001 -0.000001 -0.000000 0.000000 -2.339855
 13 11.375563 -0.000001 0.000001 -2.754283 0.478073 0.686084
 14 0.728680 0.023433 -1.008295 2.396606 0.246960 1.180207
 15 2.136498 0.000001 -0.000002 -0.000000 0.000000 -0.078540
 16 2.313141 0.000000 0.000002 0.000000 0.000000 0.000000
 17 3.115506 -0.886039 -0.021434 -0.166499 0.000392 0.514872
 18 2.011150 -0.000000 -0.000001 -0.000000 0.000000 1.322792
 19 2.141378 0.000001 0.000001 0.000000 0.000000 0.000000
 20 1.734172 0.000001 -0.000001 -0.000000 0.000000 0.660693
 21 0.000004 -4.440594 -0.000000 1.570544 -0.062990 -0.195737
 22 6.000000 -0.000001 0.000001 -2.526357 0.000000 0.000000
 23 0.000002 -4.440600 -0.000001 1.569944 -0.062987 0.004053
 24 11.375562 -0.000000 0.000005 -2.191223 0.129413 0.420222
 25 0.000000 -4.440604 -0.000001 1.570144 -0.062988 0.004040
 26 10.510131 0.000000 -0.000001 -0.000000 -0.000000 -2.740724
 27 0.000003 -1.748400 5.000000 0.000000 0.004007 1.602291
 28 5.500001 0.000001 -0.000001 0.312097 -0.000000 -0.000000
 29 0.000000 -1.940598 5.000000 -0.044472 0.004003 -0.000180
 30 6.551491 -0.000001 -0.000001 -0.630965 0.705301 -0.146463
 31 0.000001 -1.940598 5.000002 -0.027189 -0.053376 0.005295
 32 6.551491 -0.000001 -0.000001 -0.253828 0.329464 -0.003455
 33 0.000001 -1.940599 4.999994 -0.066572 -0.152786 -0.110311
 34 0.023957 -0.134485 -1.727048 -1.110351 1.265022 2.311100
 35 6.384776 -0.000000 -0.000002 -0.456964 -0.988750 -0.299381
 36 10.242682 -0.000000 0.000001 -0.000000 0.000000 -1.732153
 37 11.375563 -0.000003 -0.000000 1.751712 0.287329 -0.707082
 38 0.728680 0.023431 1.008292 -1.579583 -0.319038 0.212973
 39 2.136497 -0.000001 -0.000000 -0.000000 0.000000 1.282817
 40 2.313140 0.000000 0.000001 0.000000 0.000000 3.141593
 41 3.115505 -0.886040 0.021431 0.708959 0.171755 0.347804
 42 2.011151 0.000001 0.000002 0.000000 -0.000000 2.082010
 43 2.141379 0.000001 -0.000002 0.000000 0.000000 3.141593
 44 1.734172 -0.000001 0.000001 0.000000 0.000000 1.041748
 45 0.136316 -3.738193 2.525893 1.493698 2.759406 -1.474501
 46 5.613160 0.862367 3.157032 1.595152 -0.135386 0.061522
 47 11.389367 -0.000821 0.158781 1.683417 0.130250 -0.358945
 48 -0.000000 -4.440599 -0.000001 1.570144 -3.078602 0.004040
 49 6.000000 0.000001 0.000001 1.683417 -0.000000 0.000000
 50 0.000002 -4.440601 -0.000001 1.569944 -3.078603 0.004053
 51 10.510130 0.000000 0.000001 -0.000000 -0.000000 -2.436873
 52 -0.000001 -1.748398 -5.000000 3.141593 0.004007 -1.539299
 53 5.500000 -0.000000 0.000000 0.159603 -0.000000 -0.000000
 54 -0.000001 -0.000000 -5.000000 -0.044472 3.137589 -0.000177
 55 6.551490 -0.000000 0.000002 -0.159603 -0.310679 -0.144090
 56 -1.266844 -1.937444 -4.950560 -0.066572 -2.988806 -0.110308
 57 6.551491 -0.000000 0.000002 -0.159603 -0.310679 -0.144090
 58 0.699370 -1.944208 -5.006848 -0.027189 -3.088217 0.005298
 59 4.226146 -0.003202 0.000000 0.054451 0.007778 -0.200964
 60 0.000002 5.000001 0.000000 -0.153565 0.000087 2.718702
 61 0.000004 -0.000004 -3.713580 0.365818 2.880119 -0.191589
 62 0.000003 -0.000000 5.000000 3.053196 1.558589 -0.074928
 63 -0.000007 0.000006 3.713580 -0.001619 -3.122277 -0.475127
 64 0.000001 -0.000000 -5.000000 -0.088724 1.558589 3.066337
 65 7.363602 1.646647 0.495663 3.141593 -1.570796 0.000000
 66 -0.000005 0.000007 3.619081 0.008255 -3.110080 -0.985231
 67 16.573919 0.000001 0.000000 0.000000 -0.000000 -1.065827
 68 15.128182 0.000000 -0.000000 -0.102296 0.010178 0.114297
 69 5.758666 4.244730 -0.000000 0.000000 -0.000000 1.667687
 70 3.177726 0.000000 0.000000 0.000000 0.000000 3.141593
 71 15.708953 0.000001 0.000000 -0.051525 0.003996 0.061523
 72 0.275148 0.189215 -3.445208 3.130898 0.000409 -1.514604
 73 17.210194 -0.000000 0.000000 0.000000 0.000000 -1.893339
 74 0.000000 0.000000 -4.999999 -0.079433 1.546568 -1.570859
 75 0.000002 -0.000003 -3.619081 0.577895 2.675801 -0.242118
 76 16.573923 -0.000001 -0.000001 0.000000 -0.000000 -1.163030
 77 15.128182 -0.000001 0.000002 0.089479 0.309197 0.659208
 78 5.758665 4.244731 -0.000000 -0.000000 0.000000 1.815142
 79 4.003934 -0.000000 -0.000000 0.000000 0.000000 0.000000
 80 15.708954 -0.000000 0.000002 0.042277 0.226871 0.443133
 81 0.273998 0.191090 3.439763 -3.130907 -0.000437 -1.508107
 82 17.210196 -0.000001 -0.000001 0.000000 -0.000000 -1.937080
 83 0.000001 -0.000001 5.000000 -0.079314 1.595025 -1.570739
time 9
  0 -0.650000 0.000000 33.899605 -0.025849 0.174554 -1.569172
  1 5.685104 0.833237 -32.227173 -0.174512 -0.026131 1.569196
  2 -2.276935 0.000003 -1.238189 -1.570795 -1.570451 0.000000
  3 1.796205 0.712037 0.000798 -0.255860 -0.265321 -0.230508
  4 4.119679 -0.002986 0.000825 -0.255641 0.110626 0.318240
  5 4.118760 -0.003165 0.000846 -0.263878 0.146325 0.009998
  6 4.118787 -0.003167 0.000833 -0.258675 0.116142 0.026840
  7 4.117649 -0.003395 -0.000279 0.078921 0.022873 -0.271831
  8 4.443598 0.000000 -0.000000 1.003766 0.351988 -0.027528
  9 9.024061 -0.000000 0.000000 0.000000 0.000000 0.000000
 10 -0.039625 0.140105 1.726876 1.570244 -1.218115 1.843041
 11 6.384778 0.000000 0.000002 -0.965254 0.959199 -0.409900
 12 10.242684 0.000001 -0.000001 0.000000 0.000000 -2.356322
 13 11.375562 -0.000001 -0.000000 -2.795253 0.469998 0.650746
 14 0.728681 0.023430 -1.008293 2.396606 0.246960 1.180207
 15 2.136498 0.000000 -0.000002 0.000000 -0.000000 -0.078540
 16 2.313139 0.000000 -0.000001 0.000000 0.000000 0.000000
 17 3.115507 -0.886042 -0.021431 -0.166499 0.000392 0.514872
 18 2.011150 -0.000001 0.000003 -0.000000 0.000000 1.322792
 19 2.141379 -0.000000 -0.000001 0.000000 0.000000 0.000000
 20 1.734171 -0.000000 0.000002 -0.000000 -0.000000 0.660693
 21 0.000006 -4.440594 -0.000002 1.570544 -0.062990 -0.195737
 22 6.000000 -0.000001 -0.000000 -2.555714 -0.000000 -0.000000
 23 -0.000000 -4.440602 0.000000 1.569944 -0.062987 0.004053
 24 11.375561 -0.000000 0.000003 -2.207880 0.127371 0.406795
 25 -0.000001 -4.440603 0.000001 1.570144 -0.062988 0.004040
 26 10.510131 0.000000 -0.000001 0.000000 0.000000 -2.748957
 27 -0.000001 -1.748401 5.000000 -0.000000 0.004007 1.602290
 28 5.500000 -0.000000 -0.000000 0.297826 0.000000 0.000000
 29 -0.000002 -1.940598 5.000001 -0.044472 0.004003 -0.000180
 30 6.551493 0.000000 0.000000 -0.594373 0.715817 -0.097382
 31 0.000001 -1.940599 5.000001 -0.027189 -0.053376 0.005295
 32 6.551493 0.000000 0.000000 -0.243035 0.331217 0.014682
 33 -0.000001 -1.940599 4.999999 -0.066572 -0.152786 -0.110311
 34 0.039631 -0.133028 -1.726876 -1.126091 1.270164 2.305790
 35 6.384778 0.000001 -0.000001 -0.474071 -0.979926 -0.296056
 36 10.242682 -0.000000 0.000000 -0.000000 -0.000000 -1.733155
 37 11.375562 0.000002 -0.000000 1.752817 0.285868 -0.699549
 38 0.728681 0.023431 1.008291 -1.579583 -0.319038 0.212973
 39 2.136499 -0.000000 -0.000000 -0.000000 0.000000 1.282817
 40 2.313140 0.000003 0.000000 0.000000 0.000000 3.141593
 41 3.115508 -0.886041 0.021431 0.708959 0.171755 0.347804
 42 2.011151 0.000001 0.000003 -0.000000 0.000000 2.082010
 43 2.141379 0.000000 -0.000002 0.000000 0.000000 3.141593
 44 1.734171 -0.000002 0.000000 -0.000000 0.000000 1.041748
 45 0.136315 -3.738193 2.525889 1.493698 2.759406 -1.474501
 46 5.613161 0.862367 3.157031 1.595152 -0.135386 0.061522
 47 11.389368 -0.000817 0.158782 1.683530 0.129719 -0.355763
 48 0.000000 -4.440599 0.000000 1.570144 -3.078602 0.004040
 49 6.000000 0.000001 -0.000000 1.683530 -0.000000 0.000000
 50 0.000002 -4.440600 -0.000002 1.569944 -3.078603 0.004053
 51 10.510133 -0.000001 0.000001 -0.000000 0.000000 -2.437374
 52 0.000000 -1.748402 -5.000000 -3.141593 0.004007 -1.539299
 53 5.500000 -0.000001 -0.000000 0.162398 -0.000000 0.000000
 54 -0.000001 0.000000 -4.999999 -0.044472 3.137589 -0.000177
 55 6.551491 0.000001 -0.000003 -0.162398 -0.308460 -0.143984
 56 -1.266845 -1.937443 -4.950562 -0.066572 -2.988806 -0.110308
 57 6.551492 0.000001 -0.000003 -0.162398 -0.308460 -0.143984
 58 0.699371 -1.944208 -5.006849 -0.027189 -3.088217 0.005298
 59 4.226145 -0.003201 -0.000000 0.054046 0.014148 -0.207166
 60 0.000001 5.000001 -0.000000 -0.153564 0.000087 2.718702
 61 0.000004 -0.000004 -3.713580 0.365818 2.880119 -0.191589
 62 0.000003 -0.000000 5.000000 3.053196 1.558589 -0.074928
 63 -0.000007 0.000006 3.713580 -0.001619 -3.122277 -0.475127
 64 0.000001 -0.000000 -5.000000 -0.088724 1.558589 3.066337
 65 7.363602 1.646647 0.495663 3.141593 -1.570796 0.000000
 66 -0.000005 0.000007 3.619081 0.008255 -3.110080 -0.985231
 67 16.573919 0.000001 0.000000 0.000000 -0.000000 -1.065827
 68 15.128182 0.000000 -0.000000 -0.102296 0.010178 0.114297
 69 5.758666 4.244730 -0.000000 0.000000 -0.000000 1.667687
 70 3.177726 0.000000 0.000000 0.000000 0.000000 3.141593
 71 15.708953 0.000001 0.000000 -0.051525 0.003996 0.061523
 72 0.275148 0.189215 -3.445208 3.130898 0.000409 -1.514604
 73 17.210194 -0.000000 0.000000 0.000000 0.000000 -1.893339
 74 0.000000 0.000000 -4.999999 -0.079433 1.546568 -1.570859
 75 0.000002 -0.000003 -3.619081 0.577895 2.675801 -0.242118
 76 16.573923 -0.000001 -0.000001 0.000000 -0.000000 -1.163030
 77 15.128182 -0.000001 0.000002 0.089479 0.309197 0.659208
 78 5.758665 4.244731 -0.000000 -0.000000 0.000000 1.815142
 79 4.003934 -0.000000 -0.000000 0.000000 0.000000 0.000000
 80 15.708954 -0.000000 0.000002 0.042277 0.226871 0.443133
 81 0.273998 0.191090 3.439763 -3.130907 -0.000437 -1.508107
 82 17.210196 -0.000001 -0.000001 0.000000 -0.000000 -1.937080
 83 0.000001 -0.000001 5.000000 -0.079314 1.595025 -1.570739
time 10
  0 -0.650000 0.000000 33.899605 -0.025849 0.174554 -1.569172
  1 5.685104 0.833237 -32.227173 -0.174512 -0.026131 1.569196
  2 -2.276935 0.000003 -1.238189 -1.570795 -1.570451 0.000000
  3 1.796206 0.712040 0.000811 -0.260029 -0.265899 -0.229920
  4 4.119680 -0.002982 0.000838 -0.259651 0.111771 0.317737
  5 4.118758 -0.003161 0.000859 -0.268108 0.146104 0.009352
  6 4.118781 -0.003163 0.000847 -0.262891 0.116088 0.026294
  7 4.117621 -0.003388 -0.000276 0.078104 0.031050 -0.279570
  8 4.443596 -0.000000 -0.000000 1.020480 0.351411 -0.013502
  9 9.024059 -0.000000 -0.000000 0.000000 0.000000 0.000000
 10 -0.053791 0.138663 1.726606 1.548837 -1.216567 1.871479
 11 6.384777 -0.000001 -0.000000 -0.908765 0.977548 -0.332828
 12 10.242680 -0.000001 0.000001 -0.000000 -0.000000 -2.370159
 13 11.375560 0.000001 -0.000001 -2.830231 0.461348 0.619372
 14 0.728681 0.023432 -1.008291 2.396606 0.246960 1.180207
 15 2.136496 0.000001 -0.000000 -0.000000 0.000000 -0.078540
 16 2.313140 -0.000001 0.000001 0.000000 0.000000 0.000000
 17 3.115506 -0.886041 -0.021430 -0.166499 0.000392 0.514872
 18 2.011152 0.000001 0.000000 0.000000 0.000000 1.322792
 19 2.141378 -0.000000 0.000001 0.000000 0.000000 0.000000
 20 1.734174 0.000001 -0.000000 0.000000 0.000000 0.660693
 21 0.000006 -4.440594 -0.000000 1.570544 -0.062990 -0.195737
 22 6.000002 -0.000001 0.000000 -2.580922 -0.000000 -0.000000
 23 0.000003 -4.440601 -0.000000 1.569944 -0.062987 0.004053
 24 11.375563 -0.000000 0.000002 -2.222107 0.125254 0.394465
 25 0.000000 -4.440603 -0.000000 1.570144 -0.062988 0.004040
 26 10.510131 -0.000001 0.000000 -0.000000 -0.000000 -2.755876
 27 -0.000000 -1.748401 5.000001 0.000000 0.004007 1.602291
 28 5.499997 -0.000001 0.000001 0.284407 0.000000 0.000000
 29 -0.000001 -1.940599 5.000002 -0.044472 0.004003 -0.000180
 30 6.551491 -0.000001 -0.000002 -0.559737 0.723365 -0.052488
 31 -0.000000 -1.940599 5.000000 -0.027189 -0.053376 0.005295
 32 6.551491 -0.000001 -0.000002 -0.232849 0.332236 0.030924
 33 -0.000000 -1.940599 4.999994 -0.066572 -0.152786 -0.110311
 34 0.053793 -0.131586 -1.726606 -1.140800 1.274811 2.300494
 35 6.384777 0.000001 0.000002 -0.488684 -0.971934 -0.293452
 36 10.242683 0.000001 0.000001 0.000000 0.000000 -1.734048
 37 11.375561 -0.000003 -0.000001 1.754262 0.284498 -0.692969
 38 0.728681 0.023431 1.008292 -1.579583 -0.319038 0.212973
 39 2.136494 0.000002 -0.000000 -0.000000 0.000000 1.282817
 40 2.313138 -0.000003 -0.000000 0.000000 0.000000 3.141593
 41 3.115507 -0.886041 0.021431 0.708959 0.171755 0.347804
 42 2.011151 0.000000 -0.000001 -0.000000 0.000000 2.082010
 43 2.141380 0.000000 -0.000002 0.000000 0.000000 3.141593
 44 1.734172 -0.000001 -0.000003 0.000000 0.000000 1.041748
 45 0.136314 -3.738193 2.525890 1.493698 2.759406 -1.474501
 46 5.613161 0.862366 3.157032 1.595152 -0.135386 0.061522
 47 11.389367 -0.000822 0.158780 1.683865 0.129162 -0.353000
 48 -0.000000 -4.440599 0.000001 1.570144 -3.078602 0.004040
 49 6.000000 -0.000004 -0.000001 1.683865 0.000000 -0.000000
 50 0.000002 -4.440600 0.000002 1.569944 -3.078603 0.004053
 51 10.510135 0.000001 0.000002 -0.000000 0.000000 -2.437820
 52 0.000001 -1.748400 -5.000001 3.141593 0.004007 -1.539299
 53 5.500000 0.000001 0.000000 0.164818 -0.000000 0.000000
 54 -0.000000 0.000000 -4.999999 -0.044472 3.137589 -0.000177
 55 6.551491 0.000001 0.000001 -0.164818 -0.306427 -0.143927
 56 -1.266843 -1.937443 -4.950561 -0.066572 -2.988806 -0.110308
 57 6.551491 0.000001 0.000001 -0.164818 -0.306427 -0.143927
 58 0.699370 -1.944208 -5.006847 -0.027189 -3.088217 0.005298
 59 4.226146 -0.003201 0.000000 0.053647 0.019897 -0.212748
 60 0.000003 5.000000 0.000001 -0.153564 0.000087 2.718702
 61 0.000004 -0.000004 -3.713580 0.365818 2.880119 -0.191589
 62 0.000003 -0.000000 5.000000 3.053196 1.558589 -0.074928
 63 -0.000007 0.000006 3.713580 -0.001619 -3.122277 -0.475127
 64 0.000001 -0.000000 -5.000000 -0.088724 1.558589 3.066337
 65 7.363602 1.646647 0.495663 3.141593 -1.570796 0.000000
 66 -0.000005 0.000007 3.619081 0.008255 -3.110080 -0.985231
 67 16.573919 0.000001 0.000000 0.000000 -0.000000 -1.065827
 68 15.128182 0.000000 -0.000000 -0.102296 0.010178 0.114297
 69 5.758666 4.244730 -0.000000 0.000000 -0.000000 1.667687
 70 3.177726 0.000000 0.000000 0.000000 0.000000 3.141593
 71 15.708953 0.000001 0.000000 -0.051525 0.003996 0.061523
 72 0.275148 0.189215 -3.445208 3.130898 0.000409 -1.514604
 73 17.210194 -0.000000 0.000000 0.000000 0.000000 -1.893339
 74 0.000000 0.000000 -4.999999 -0.079433 1.546568 -1.570859
 75 0.000002 -0.000003 -3.619081 0.577895 2.675801 -0.242118
 76 16.573923 -0.000001 -0.000001 0.000000 -0.000000 -1.163030
 77 15.128182 -0.000001 0.000002 0.089479 0.309197 0.659208
 78 5.758665 4.244731 -0.000000 -0.000000 0.000000 1.815142
 79 4.003934 -0.000000 -0.000000 0.000000 0.000000 0.000000
 80 15.708954 -0.000000 0.000002 0.042277 0.226871 0.443133
 81 0.273998 0.191090 3.439763 -3.130907 -0.000437 -1.508107
 82 17.210196 -0.000001 -0.000001 0.000000 -0.000000 -1.937080
 83 0.000001 -0.000001 5.000000 -0.079314 1.595025 -1.570739
end
