version 1
nodes
  0 "Bip01"  -1
  1 "Bip01 Footsteps"   0
  2 "Bip01 Pelvis"   0
  3 "Bip01 Spine"   2
  4 "Bip01 Spine1"   3
  5 "Bip01 Spine2"   4
  6 "Bip01 Spine3"   5
  7 "Bip01 Neck"   6
  8 "Bip01 Head"   7
  9 "Dummy21"   8
 10 "Bip01 L Clavicle"   7
 11 "Bip01 L UpperArm"  10
 12 "Bip01 L Forearm"  11
 13 "Bip01 L Hand"  12
 14 "Bip01 L Finger0"  13
 15 "Bip01 L Finger01"  14
 16 "Dummy06"  15
 17 "Bip01 L Finger1"  13
 18 "Bip01 L Finger11"  17
 19 "Dummy03"  18
 20 "-- L knuckle"  17
 21 "-- L knuckle_end"  20
 22 "-- L Forearm twist"  12
 23 "-- L Forearm twist_end"  22
 24 "-- L wrist"  12
 25 "-- L wrist_end"  24
 26 "-- L Elbow"  11
 27 "--L Elbow_end"  26
 28 "-- L bicep twist"  11
 29 "-- L bicep twist_end"  28
 30 "-- L shoulder outside"  10
 31 "-- L shoulder outside_end"  30
 32 "-- L Shoulder inside"  10
 33 "-- L Shoulder inside_end"  32
 34 "Bip01 R Clavicle"   7
 35 "Bip01 R UpperArm"  34
 36 "Bip01 R Forearm"  35
 37 "Bip01 R Hand"  36
 38 "Bip01 R Finger0"  37
 39 "Bip01 R Finger01"  38
 40 "Dummy01"  39
 41 "Bip01 R Finger1"  37
 42 "Bip01 R Finger11"  41
 43 "Dummy02"  42
 44 "-- R knuckle"  41
 45 "Point06"  44
 46 "Line03"  37
 47 "-- R wrist"  36
 48 "-- R wrist_end"  47
 49 "-- R forearm twist"  36
 50 "-- R forearm twist_end"  49
 51 "-- R Elbow"  35
 52 "--R Elbow_end"  51
 53 "-- R bicep twist"  35
 54 "-- R bicep twist_end"  53
 55 "-- R Shoulder inside"  34
 56 "-- R Shoulder inside_end"  55
 57 "-- R shoulder outside"  34
 58 "-- R shoulder outside_end"  57
 59 "-- Neck smooth"   6
 60 "-- neck smooth end"  59
 61 "-- R Butt"   2
 62 "--R Butt_end"  61
 63 "-- L butt"   2
 64 "--L butt_end"  63
 65 "GIGN01"   2
 66 "Bip01 L Thigh"   2
 67 "Bip01 L Calf"  66
 68 "Bip01 L Foot"  67
 69 "Bip01 L Toe0"  68
 70 "Dummy16"  69
 71 "-- L ankle"  67
 72 "-- L ankleend"  71
 73 "-- L Knee"  66
 74 "--L Knee_end"  73
 75 "Bip01 R Thigh"   2
 76 "Bip01 R Calf"  75
 77 "Bip01 R Foot"  76
 78 "Bip01 R Toe0"  77
 79 "Dummy11"  78
 80 "-- R Ankle"  76
 81 "-- R ankleend"  80
 82 "-- R Knee"  75
 83 "--R Knee_end"  82
end
skeleton
time 0
  0 -0.650000 0.000000 33.899605 -0.025849 0.174554 -1.569172
  1 5.685103 0.833236 -32.227173 -0.174512 -0.026131 1.569196
  2 -2.276935 0.000003 -1.238188 -1.570795 -1.570451 0.000000
  3 1.797314 0.712593 0.002133 -0.721726 0.170418 -0.078910
  4 4.118850 -0.003269 0.000119 -0.036455 -0.047623 0.077156
  5 4.118752 -0.003057 0.001175 -0.367323 -0.067174 0.074965
  6 4.119810 -0.002879 0.001005 -0.313737 0.119635 0.358210
  7 4.119442 -0.003427 -0.000286 0.084393 0.285652 0.264015
  8 4.443600 0.000001 0.000000 0.128966 0.096457 0.388842
  9 9.024062 -0.000002 0.000000 0.000000 0.000000 0.000000
 10 -0.488249 0.143673 1.656591 0.732657 -1.166550 2.115375
 11 6.384776 0.000001 0.000002 -0.954022 1.091973 -1.423707
 12 10.242681 -0.000000 0.000000 -0.000000 -0.000000 -1.328806
 13 11.375560 0.000002 0.000001 2.894186 0.483172 -0.007581
 14 0.728680 0.023430 -1.008292 2.098333 -0.050480 0.642666
 15 2.136498 0.000000 -0.000001 -0.000000 0.000000 -0.078540
 16 2.313139 0.000000 0.000001 0.000000 0.000000 0.000000
 17 3.115506 -0.886041 -0.021431 -0.162706 -0.035495 0.299633
 18 2.011152 0.000001 0.000000 0.000000 -0.000000 1.104625
 19 2.141380 -0.000000 0.000001 0.000000 0.000000 0.000000
 20 1.734172 0.000000 -0.000001 0.000000 -0.000000 0.551513
 21 0.000005 -4.440594 -0.000001 1.570544 -0.062990 -0.195737
 22 5.999999 0.000001 -0.000000 -3.028486 -0.000000 -0.000000
 23 0.000002 -4.440603 -0.000000 1.569944 -0.062987 0.004053
 24 11.375561 0.000002 0.000003 -2.442829 0.255155 0.146306
 25 -0.000000 -4.440602 0.000000 1.570144 -0.062988 0.004040
 26 10.510129 -0.000000 0.000000 0.000000 -0.000000 -2.235199
 27 -0.000001 -1.748401 4.999999 0.000000 0.004007 1.602291
 28 5.500000 0.000000 0.000001 0.012943 -0.000000 -0.000000
 29 -0.000003 -1.940598 5.000000 -0.044472 0.004003 -0.000180
 30 6.551492 -0.000000 -0.000000 -0.218184 0.877445 -0.702175
 31 0.000001 -1.940598 5.000002 -0.027189 -0.053376 0.005295
 32 6.551492 -0.000000 -0.000000 0.002064 0.394311 -0.244484
 33 0.000001 -1.940598 4.999997 -0.066572 -0.152786 -0.110311
 34 0.488256 -0.136594 -1.656591 -1.294500 1.960426 1.496164
 35 6.384777 0.000001 -0.000003 -0.473554 -0.816732 -0.453824
 36 10.242682 -0.000002 -0.000001 0.000000 0.000000 -2.400548
 37 11.375560 -0.000002 -0.000000 2.535776 0.152336 1.025208
 38 0.728678 0.023431 1.008293 -1.579583 -0.319038 0.212973
 39 2.136498 0.000001 -0.000001 -0.000000 -0.000000 1.282817
 40 2.313140 -0.000000 -0.000000 0.000000 0.000000 3.141593
 41 3.115505 -0.886041 0.021431 0.420766 0.316066 0.167178
 42 2.011150 0.000001 -0.000000 -0.000000 0.000000 2.082010
 43 2.141380 -0.000001 -0.000000 0.000000 0.000000 3.141593
 44 1.734173 -0.000001 -0.000000 0.000000 -0.000000 1.041748
 45 0.136314 -3.738193 2.525891 1.493698 2.759406 -1.474501
 46 10.273803 -0.437102 1.198991 1.793563 0.004868 1.507198
 47 11.389366 -0.000819 0.158781 2.025523 0.194242 0.484766
 48 -0.000000 -4.440599 -0.000001 1.570144 -3.078602 0.004040
 49 6.000000 0.000001 0.000000 2.025523 0.000000 0.000000
 50 0.000001 -4.440601 0.000002 1.569944 -3.078603 0.004053
 51 10.510133 -0.000002 0.000000 0.000000 0.000000 -2.771070
 52 -0.000001 -1.748400 -5.000002 -3.141593 0.004007 -1.539299
 53 5.500001 -0.000001 -0.000001 0.160826 -0.000000 -0.000000
 54 -0.000002 0.000001 -5.000000 -0.044472 3.137590 -0.000177
 55 6.551491 0.000000 -0.000002 -0.160826 -0.254667 -0.178937
 56 -1.266843 -1.937444 -4.950559 -0.066572 -2.988806 -0.110308
 57 6.551491 0.000000 -0.000002 -0.160826 -0.254667 -0.178937
 58 0.699371 -1.944208 -5.006847 -0.027189 -3.088217 0.005298
 59 4.226147 -0.003203 -0.000001 0.060027 0.226323 0.219392
 60 -0.000001 5.000002 -0.000000 -0.153564 0.000087 2.718702
 61 0.000004 -0.000004 -3.713580 0.365818 2.880119 -0.191589
 62 0.000002 -0.000000 5.000000 3.053196 1.558589 -0.074928
 63 -0.000007 0.000006 3.713580 -0.001619 -3.122277 -0.475127
 64 0.000002 -0.000000 -5.000000 -0.088726 1.558589 3.066335
 65 7.363602 1.646647 0.495663 3.141593 -1.570796 0.000000
 66 -0.000005 0.000007 3.619081 0.008255 -3.110080 -0.985231
 67 16.573919 0.000000 -0.000000 -0.000000 -0.000000 -1.065827
 68 15.128180 0.000001 0.000000 -0.102296 0.010178 0.114297
 69 5.758665 4.244730 0.000000 0.000000 0.000000 1.667687
 70 3.177726 0.000000 -0.000000 0.000000 0.000000 3.141593
 71 15.708951 0.000001 0.000000 -0.051525 0.003996 0.061523
 72 0.275148 0.189215 -3.445208 3.130898 0.000409 -1.514604
 73 17.210192 -0.000000 -0.000000 -0.000000 -0.000000 -1.893339
 74 0.000001 0.000000 -4.999999 -0.079433 1.546568 -1.570857
 75 0.000002 -0.000003 -3.619081 0.577895 2.675801 -0.242118
 76 16.573921 -0.000001 -0.000002 -0.000000 -0.000000 -1.163030
 77 15.128181 0.000001 0.000001 0.089479 0.309197 0.659208
 78 5.758666 4.244730 -0.000001 -0.000000 -0.000000 1.815142
 79 4.003934 -0.000000 0.000001 0.000000 0.000000 0.000000
 80 15.708954 0.000001 0.000002 0.042277 0.226871 0.443133
 81 0.273998 0.191089 3.439762 -3.130907 -0.000437 -1.508107
 82 17.210194 -0.000001 -0.000002 0.000000 -0.000000 -1.937080
 83 -0.000000 -0.000001 5.000000 -0.079319 1.595025 -1.570742
time 1
  0 -0.650000 0.000000 33.899605 -0.025849 0.174554 -1.569172
  1 5.685103 0.833236 -32.227173 -0.174512 -0.026131 1.569196
  2 -2.276935 0.000003 -1.238188 -1.570795 -1.570451 0.000000
  3 1.797314 0.712593 0.002133 -0.721726 0.170418 -0.078910
  4 4.118850 -0.003269 0.000119 -0.036455 -0.047623 0.077156
  5 4.118752 -0.003057 0.001175 -0.367323 -0.067174 0.074965
  6 4.119810 -0.002879 0.001005 -0.313737 0.119635 0.358210
  7 4.119442 -0.003427 -0.000286 0.084393 0.285652 0.264015
  8 4.443600 0.000001 0.000000 0.128966 0.096457 0.388842
  9 9.024062 -0.000002 0.000000 0.000000 0.000000 0.000000
 10 -0.488249 0.143673 1.656591 0.732657 -1.166550 2.115375
 11 6.384776 0.000001 0.000002 -0.954022 1.091973 -1.423707
 12 10.242681 -0.000000 0.000000 -0.000000 -0.000000 -1.328806
 13 11.375560 0.000002 0.000001 2.894186 0.483172 -0.007581
 14 0.728680 0.023430 -1.008292 2.098333 -0.050480 0.642666
 15 2.136498 0.000000 -0.000001 -0.000000 0.000000 -0.078540
 16 2.313139 0.000000 0.000001 0.000000 0.000000 0.000000
 17 3.115506 -0.886041 -0.021431 -0.162706 -0.035495 0.299633
 18 2.011152 0.000001 0.000000 0.000000 -0.000000 1.104625
 19 2.141380 -0.000000 0.000001 0.000000 0.000000 0.000000
 20 1.734172 0.000000 -0.000001 0.000000 -0.000000 0.551513
 21 0.000005 -4.440594 -0.000001 1.570544 -0.062990 -0.195737
 22 5.999999 0.000001 -0.000000 -3.028486 -0.000000 -0.000000
 23 0.000002 -4.440603 -0.000000 1.569944 -0.062987 0.004053
 24 11.375561 0.000002 0.000003 -2.442829 0.255155 0.146306
 25 -0.000000 -4.440602 0.000000 1.570144 -0.062988 0.004040
 26 10.510129 -0.000000 0.000000 0.000000 -0.000000 -2.235199
 27 -0.000001 -1.748401 4.999999 0.000000 0.004007 1.602291
 28 5.500000 0.000000 0.000001 0.012943 -0.000000 -0.000000
 29 -0.000003 -1.940598 5.000000 -0.044472 0.004003 -0.000180
 30 6.551492 -0.000000 -0.000000 -0.218184 0.877445 -0.702175
 31 0.000001 -1.940598 5.000002 -0.027189 -0.053376 0.005295
 32 6.551492 -0.000000 -0.000000 0.002064 0.394311 -0.244484
 33 0.000001 -1.940598 4.999997 -0.066572 -0.152786 -0.110311
 34 0.488256 -0.136594 -1.656591 -1.294500 1.960426 1.496164
 35 6.384777 0.000001 -0.000003 -0.473554 -0.816732 -0.453824
 36 10.242682 -0.000002 -0.000001 0.000000 0.000000 -2.400548
 37 11.375560 -0.000002 -0.000000 2.535776 0.152336 1.025208
 38 0.728678 0.023431 1.008293 -1.579583 -0.319038 0.212973
 39 2.136498 0.000001 -0.000001 -0.000000 -0.000000 1.282817
 40 2.313140 -0.000000 -0.000000 0.000000 0.000000 3.141593
 41 3.115505 -0.886041 0.021431 0.420766 0.316066 0.167178
 42 2.011150 0.000001 -0.000000 -0.000000 0.000000 2.082010
 43 2.141380 -0.000001 -0.000000 0.000000 0.000000 3.141593
 44 1.734173 -0.000001 -0.000000 0.000000 -0.000000 1.041748
 45 0.136314 -3.738193 2.525891 1.493698 2.759406 -1.474501
 46 10.273803 -0.437102 1.198991 1.793563 0.004868 1.507198
 47 11.389366 -0.000819 0.158781 2.025523 0.194242 0.484766
 48 -0.000000 -4.440599 -0.000001 1.570144 -3.078602 0.004040
 49 6.000000 0.000001 0.000000 2.025523 0.000000 0.000000
 50 0.000001 -4.440601 0.000002 1.569944 -3.078603 0.004053
 51 10.510133 -0.000002 0.000000 0.000000 0.000000 -2.771070
 52 -0.000001 -1.748400 -5.000002 -3.141593 0.004007 -1.539299
 53 5.500001 -0.000001 -0.000001 0.160826 -0.000000 -0.000000
 54 -0.000002 0.000001 -5.000000 -0.044472 3.137590 -0.000177
 55 6.551491 0.000000 -0.000002 -0.160826 -0.254667 -0.178937
 56 -1.266843 -1.937444 -4.950559 -0.066572 -2.988806 -0.110308
 57 6.551491 0.000000 -0.000002 -0.160826 -0.254667 -0.178937
 58 0.699371 -1.944208 -5.006847 -0.027189 -3.088217 0.005298
 59 4.226147 -0.003203 -0.000001 0.060027 0.226323 0.219392
 60 -0.000001 5.000002 -0.000000 -0.153564 0.000087 2.718702
 61 0.000004 -0.000004 -3.713580 0.365818 2.880119 -0.191589
 62 0.000002 -0.000000 5.000000 3.053196 1.558589 -0.074928
 63 -0.000007 0.000006 3.713580 -0.001619 -3.122277 -0.475127
 64 0.000002 -0.000000 -5.000000 -0.088726 1.558589 3.066335
 65 7.363602 1.646647 0.495663 3.141593 -1.570796 0.000000
 66 -0.000005 0.000007 3.619081 0.008255 -3.110080 -0.985231
 67 16.573919 0.000000 -0.000000 -0.000000 -0.000000 -1.065827
 68 15.128180 0.000001 0.000000 -0.102296 0.010178 0.114297
 69 5.758665 4.244730 0.000000 0.000000 0.000000 1.667687
 70 3.177726 0.000000 -0.000000 0.000000 0.000000 3.141593
 71 15.708951 0.000001 0.000000 -0.051525 0.003996 0.061523
 72 0.275148 0.189215 -3.445208 3.130898 0.000409 -1.514604
 73 17.210192 -0.000000 -0.000000 -0.000000 -0.000000 -1.893339
 74 0.000001 0.000000 -4.999999 -0.079433 1.546568 -1.570857
 75 0.000002 -0.000003 -3.619081 0.577895 2.675801 -0.242118
 76 16.573921 -0.000001 -0.000002 -0.000000 -0.000000 -1.163030
 77 15.128181 0.000001 0.000001 0.089479 0.309197 0.659208
 78 5.758666 4.244730 -0.000001 -0.000000 -0.000000 1.815142
 79 4.003934 -0.000000 0.000001 0.000000 0.000000 0.000000
 80 15.708954 0.000001 0.000002 0.042277 0.226871 0.443133
 81 0.273998 0.191089 3.439762 -3.130907 -0.000437 -1.508107
 82 17.210194 -0.000001 -0.000002 0.000000 -0.000000 -1.937080
 83 -0.000000 -0.000001 5.000000 -0.079319 1.595025 -1.570742
end
