0
SECTION
2
HEADER
9
$ACADVER
1
AC1008
9
$UCSORG
10
0.0
20
0.0
30
0.0
9
$UCSXDIR
10
1.0
20
0.0
30
0.0
9
$TILEMODE
70
1
9
$UCSYDIR
10
0.0
20
1.0
30
0.0
9
$EXTMIN
10
-36.619537
20
-8.925117
30
-10.352315
9
$EXTMAX
10
36.189518
20
11.753725
30
68.946136
0
ENDSEC
0
SECTION
2
TABLES
0
TABLE
2
LTYPE
70
1
0
LTYPE
2
CONTINUOUS
70
64
3
Solid line
72
65
73
0
40
0.0
0
ENDTAB
0
TABLE
2
LAYER
70
2
0
LAYER
2
SKIN02
70
0
62
7
6
CONTINUOUS
0
LAYER
2
GIGN01
70
0
62
81
6
CONTINUOUS
0
ENDTAB
0
TABLE
2
STYLE
70
1
0
STYLE
2
STANDARD
70
0
40
0.0
41
1.0
50
0.0
71
0
42
0.2
3
txt
4

0
ENDTAB
0
TABLE
2
UCS
70
0
0
ENDTAB
0
ENDSEC
0
SECTION
2
ENTITIES
0
POLYLINE
8
SKIN02
66
1
70
64
71
370
72
695
62
7
0
VERTEX
8
SKIN02
10
3.052079
20
-5.701289
30
35.969093
70
192
0
VERTEX
8
SKIN02
10
3.979442
20
5.302539
30
34.195400
70
192
0
VERTEX
8
SKIN02
10
7.489042
20
-0.521355
30
36.865536
70
192
0
VERTEX
8
SKIN02
10
0.326459
20
-0.512953
30
27.059105
70
192
0
VERTEX
8
SKIN02
10
4.357447
20
4.528323
30
27.895254
70
192
0
VERTEX
8
SKIN02
10
6.488418
20
-5.508529
30
28.617361
70
192
0
VERTEX
8
SKIN02
10
1.922679
20
-5.493596
30
28.031311
70
192
0
VERTEX
8
SKIN02
10
-0.175831
20
-4.307951
30
33.927113
70
192
0
VERTEX
8
SKIN02
10
-0.798234
20
2.441661
30
33.004158
70
192
0
VERTEX
8
SKIN02
10
3.468817
20
6.115037
30
36.020401
70
192
0
VERTEX
8
SKIN02
10
8.818245
20
-0.571322
30
28.377890
70
192
0
VERTEX
8
SKIN02
10
-0.175834
20
-5.946358
30
55.994743
70
192
0
VERTEX
8
SKIN02
10
5.962565
20
-4.124373
30
57.683975
70
192
0
VERTEX
8
SKIN02
10
7.351524
20
-5.829679
30
50.881115
70
192
0
VERTEX
8
SKIN02
10
-0.175833
20
-7.592395
30
50.186024
70
192
0
VERTEX
8
SKIN02
10
6.251334
20
3.574701
30
57.590313
70
192
0
VERTEX
8
SKIN02
10
-0.175833
20
4.791139
30
57.892639
70
192
0
VERTEX
8
SKIN02
10
-0.175833
20
7.099603
30
52.355862
70
192
0
VERTEX
8
SKIN02
10
6.626482
20
5.799607
30
51.455212
70
192
0
VERTEX
8
SKIN02
10
-1.678039
20
2.884747
30
59.106335
70
192
0
VERTEX
8
SKIN02
10
1.326371
20
2.884746
30
59.106335
70
192
0
VERTEX
8
SKIN02
10
2.633175
20
0.566148
30
58.630142
70
192
0
VERTEX
8
SKIN02
10
0.873249
20
-3.347630
30
58.231560
70
192
0
VERTEX
8
SKIN02
10
-1.224916
20
-3.347630
30
58.231564
70
192
0
VERTEX
8
SKIN02
10
5.740994
20
-4.707651
30
47.127033
70
192
0
VERTEX
8
SKIN02
10
6.953498
20
-0.082653
30
47.039532
70
192
0
VERTEX
8
SKIN02
10
-0.175834
20
5.003639
30
60.255146
70
192
0
VERTEX
8
SKIN02
10
3.440306
20
-1.521351
30
60.932243
70
192
0
VERTEX
8
SKIN02
10
2.720674
20
3.616147
30
60.992641
70
192
0
VERTEX
8
SKIN02
10
2.470674
20
-2.933852
30
58.267635
70
192
0
VERTEX
8
SKIN02
10
3.142247
20
0.220301
30
59.102570
70
192
0
VERTEX
8
SKIN02
10
3.020678
20
3.441146
30
58.830147
70
192
0
VERTEX
8
SKIN02
10
-0.175832
20
-6.603830
30
47.967712
70
192
0
VERTEX
8
SKIN02
10
4.902833
20
5.578653
30
47.619736
70
192
0
VERTEX
8
SKIN02
10
1.845033
20
-7.024096
30
32.472210
70
192
0
VERTEX
8
SKIN02
10
7.111009
20
-5.196190
30
32.284405
70
192
0
VERTEX
8
SKIN02
10
9.258615
20
0.282505
30
32.151730
70
192
0
VERTEX
8
SKIN02
10
6.482404
20
6.360774
30
32.525169
70
192
0
VERTEX
8
SKIN02
10
3.268871
20
7.873247
30
32.979984
70
192
0
VERTEX
8
SKIN02
10
1.592168
20
-5.869414
30
44.576874
70
192
0
VERTEX
8
SKIN02
10
5.637624
20
-4.028661
30
44.548378
70
192
0
VERTEX
8
SKIN02
10
4.251461
20
4.919565
30
44.243023
70
192
0
VERTEX
8
SKIN02
10
7.901533
20
0.432814
30
49.793625
70
192
0
VERTEX
8
SKIN02
10
7.901531
20
4.620313
30
52.943619
70
192
0
VERTEX
8
SKIN02
10
6.746121
20
-0.196114
30
44.406868
70
192
0
VERTEX
8
SKIN02
10
-0.175832
20
0.278650
30
39.671371
70
192
0
VERTEX
8
SKIN02
10
-0.175833
20
1.844943
30
58.853153
70
192
0
VERTEX
8
SKIN02
10
-0.175834
20
6.891141
30
59.015503
70
192
0
VERTEX
8
SKIN02
10
2.062174
20
10.041142
30
61.440502
70
192
0
VERTEX
8
SKIN02
10
-0.175833
20
11.673916
30
55.003105
70
192
0
VERTEX
8
SKIN02
10
-0.175833
20
6.418036
30
53.124344
70
192
0
VERTEX
8
SKIN02
10
-0.175833
20
4.832717
30
56.577312
70
192
0
VERTEX
8
SKIN02
10
5.625924
20
8.423504
30
61.161236
70
192
0
VERTEX
8
SKIN02
10
5.216010
20
9.708291
30
56.472004
70
192
0
VERTEX
8
SKIN02
10
5.628499
20
5.123507
30
59.162827
70
192
0
VERTEX
8
SKIN02
10
4.927260
20
7.825245
30
55.384827
70
192
0
VERTEX
8
SKIN02
10
-0.175833
20
9.662903
30
52.617302
70
192
0
VERTEX
8
SKIN02
10
-0.175833
20
11.753638
30
60.677998
70
192
0
VERTEX
8
SKIN02
10
1.888593
20
-6.776692
30
40.045536
70
192
0
VERTEX
8
SKIN02
10
6.492459
20
-4.481396
30
39.424732
70
192
0
VERTEX
8
SKIN02
10
8.128213
20
0.195509
30
40.314590
70
192
0
VERTEX
8
SKIN02
10
5.475659
20
5.627394
30
39.079945
70
192
0
VERTEX
8
SKIN02
10
-3.403742
20
-5.701289
30
35.969093
70
192
0
VERTEX
8
SKIN02
10
-4.331105
20
5.302542
30
34.195404
70
192
0
VERTEX
8
SKIN02
10
-7.840706
20
-0.521354
30
36.865540
70
192
0
VERTEX
8
SKIN02
10
-0.964527
20
-0.615750
30
26.588472
70
192
0
VERTEX
8
SKIN02
10
-5.054626
20
4.314946
30
27.418182
70
192
0
VERTEX
8
SKIN02
10
-7.053278
20
-5.492354
30
28.465178
70
192
0
VERTEX
8
SKIN02
10
-2.556052
20
-5.534701
30
27.702333
70
192
0
VERTEX
8
SKIN02
10
0.446571
20
2.441662
30
33.004158
70
192
0
VERTEX
8
SKIN02
10
-3.820480
20
6.115039
30
36.020405
70
192
0
VERTEX
8
SKIN02
10
-9.288690
20
-0.551949
30
28.467714
70
192
0
VERTEX
8
SKIN02
10
-6.392660
20
-4.253529
30
57.674057
70
192
0
VERTEX
8
SKIN02
10
-7.781618
20
-5.958837
30
50.871197
70
192
0
VERTEX
8
SKIN02
10
-6.603002
20
3.574701
30
57.590317
70
192
0
VERTEX
8
SKIN02
10
-6.978149
20
5.799609
30
51.455215
70
192
0
VERTEX
8
SKIN02
10
-2.984841
20
0.566147
30
58.630138
70
192
0
VERTEX
8
SKIN02
10
-6.092659
20
-4.707652
30
47.127037
70
192
0
VERTEX
8
SKIN02
10
-7.305164
20
-0.082653
30
47.039539
70
192
0
VERTEX
8
SKIN02
10
-3.791973
20
-1.521352
30
60.932243
70
192
0
VERTEX
8
SKIN02
10
-3.072341
20
3.616145
30
60.992645
70
192
0
VERTEX
8
SKIN02
10
-2.822341
20
-2.933854
30
58.267635
70
192
0
VERTEX
8
SKIN02
10
-3.572341
20
0.091146
30
59.092648
70
192
0
VERTEX
8
SKIN02
10
-3.372346
20
3.441146
30
58.830147
70
192
0
VERTEX
8
SKIN02
10
-8.263333
20
0.062200
30
58.449059
70
192
0
VERTEX
8
SKIN02
10
-5.254498
20
5.578653
30
47.619736
70
192
0
VERTEX
8
SKIN02
10
-2.196694
20
-7.024096
30
32.472210
70
192
0
VERTEX
8
SKIN02
10
-7.462671
20
-5.196189
30
32.284412
70
192
0
VERTEX
8
SKIN02
10
-9.726828
20
0.282508
30
32.242004
70
192
0
VERTEX
8
SKIN02
10
-6.834068
20
6.360776
30
32.525173
70
192
0
VERTEX
8
SKIN02
10
-3.777736
20
7.873248
30
32.979984
70
192
0
VERTEX
8
SKIN02
10
-1.943832
20
-5.869418
30
44.576878
70
192
0
VERTEX
8
SKIN02
10
-5.989289
20
-4.028660
30
44.548378
70
192
0
VERTEX
8
SKIN02
10
-4.760329
20
4.919566
30
44.243027
70
192
0
VERTEX
8
SKIN02
10
-9.295800
20
-4.108999
30
53.508701
70
192
0
VERTEX
8
SKIN02
10
-8.331631
20
0.303660
30
49.783703
70
192
0
VERTEX
8
SKIN02
10
-8.331631
20
4.491159
30
52.933701
70
192
0
VERTEX
8
SKIN02
10
-7.097786
20
-0.196113
30
44.406868
70
192
0
VERTEX
8
SKIN02
10
-9.929399
20
-3.420452
30
56.691322
70
192
0
VERTEX
8
SKIN02
10
-22.603325
20
-8.925081
30
39.679085
70
192
0
VERTEX
8
SKIN02
10
-26.181080
20
-8.292058
30
39.507202
70
192
0
VERTEX
8
SKIN02
10
-26.704445
20
-8.444336
30
40.716343
70
192
0
VERTEX
8
SKIN02
10
-28.903164
20
-8.245972
30
41.408848
70
192
0
VERTEX
8
SKIN02
10
-31.142214
20
-6.460250
30
33.795097
70
192
0
VERTEX
8
SKIN02
10
-29.286871
20
-6.302903
30
32.822201
70
192
0
VERTEX
8
SKIN02
10
-26.548876
20
-7.485364
30
35.573051
70
192
0
VERTEX
8
SKIN02
10
-26.098803
20
-7.845193
30
37.108109
70
192
0
VERTEX
8
SKIN02
10
-22.587349
20
-8.486320
30
37.364552
70
192
0
VERTEX
8
SKIN02
10
-22.395836
20
-7.562961
30
39.916786
70
192
0
VERTEX
8
SKIN02
10
-25.973568
20
-6.929925
30
39.744900
70
192
0
VERTEX
8
SKIN02
10
-26.496937
20
-7.082202
30
40.954037
70
192
0
VERTEX
8
SKIN02
10
-28.695633
20
-6.883872
30
41.646530
70
192
0
VERTEX
8
SKIN02
10
-30.934677
20
-5.098141
30
34.032780
70
192
0
VERTEX
8
SKIN02
10
-29.150494
20
-5.181265
30
33.070351
70
192
0
VERTEX
8
SKIN02
10
-26.341354
20
-6.123217
30
35.810772
70
192
0
VERTEX
8
SKIN02
10
-25.891298
20
-6.483042
30
37.345806
70
192
0
VERTEX
8
SKIN02
10
-22.379848
20
-7.124184
30
37.602245
70
192
0
VERTEX
8
SKIN02
10
-2.413842
20
10.041143
30
61.440502
70
192
0
VERTEX
8
SKIN02
10
-5.977595
20
8.423504
30
61.161236
70
192
0
VERTEX
8
SKIN02
10
-5.567678
20
9.708290
30
56.472004
70
192
0
VERTEX
8
SKIN02
10
-5.980167
20
5.123506
30
59.162830
70
192
0
VERTEX
8
SKIN02
10
-5.278928
20
7.825245
30
55.384830
70
192
0
VERTEX
8
SKIN02
10
-2.240257
20
-6.776692
30
40.045540
70
192
0
VERTEX
8
SKIN02
10
-6.870359
20
-4.481395
30
39.424736
70
192
0
VERTEX
8
SKIN02
10
-8.506115
20
0.195511
30
40.314598
70
192
0
VERTEX
8
SKIN02
10
-6.010764
20
5.627396
30
39.079948
70
192
0
VERTEX
8
SKIN02
10
-2.503369
20
6.651095
30
40.279110
70
192
0
VERTEX
8
SKIN02
10
1.837297
20
6.651095
30
40.279110
70
192
0
VERTEX
8
SKIN02
10
-0.821173
20
3.092380
30
36.172211
70
192
0
VERTEX
8
SKIN02
10
0.108545
20
3.053297
30
36.152420
70
192
0
VERTEX
8
SKIN02
10
-16.486792
20
-3.809726
30
56.584423
70
192
0
VERTEX
8
SKIN02
10
-16.425966
20
-4.040423
30
53.624256
70
192
0
VERTEX
8
SKIN02
10
-20.372597
20
-3.643359
30
52.658142
70
192
0
VERTEX
8
SKIN02
10
-20.388376
20
-3.551979
30
57.485992
70
192
0
VERTEX
8
SKIN02
10
-29.244637
20
-3.416390
30
54.963570
70
192
0
VERTEX
8
SKIN02
10
-15.872129
20
3.034649
30
54.666798
70
192
0
VERTEX
8
SKIN02
10
-19.140175
20
2.579633
30
55.441990
70
192
0
VERTEX
8
SKIN02
10
-23.562656
20
2.705169
30
56.420330
70
192
0
VERTEX
8
SKIN02
10
-29.509586
20
2.405689
30
55.029533
70
192
0
VERTEX
8
SKIN02
10
-20.506050
20
3.148865
30
54.352974
70
192
0
VERTEX
8
SKIN02
10
-19.258139
20
2.552426
30
53.592270
70
192
0
VERTEX
8
SKIN02
10
-17.728975
20
-0.721504
30
51.982758
70
192
0
VERTEX
8
SKIN02
10
-22.458176
20
-0.648985
30
52.235016
70
192
0
VERTEX
8
SKIN02
10
-29.010990
20
-0.417519
30
52.389912
70
192
0
VERTEX
8
SKIN02
10
-29.223637
20
-0.505347
30
57.567917
70
192
0
VERTEX
8
SKIN02
10
-22.170519
20
-0.163141
30
58.039360
70
192
0
VERTEX
8
SKIN02
10
-17.690525
20
-0.238777
30
58.111755
70
192
0
VERTEX
8
SKIN02
10
-30.342422
20
-1.941451
30
56.374817
70
192
0
VERTEX
8
SKIN02
10
-30.086765
20
-2.011320
30
53.526058
70
192
0
VERTEX
8
SKIN02
10
-31.823494
20
-2.789049
30
53.331768
70
192
0
VERTEX
8
SKIN02
10
-33.336517
20
-2.041763
30
55.432194
70
192
0
VERTEX
8
SKIN02
10
-33.421474
20
-2.071522
30
57.141808
70
192
0
VERTEX
8
SKIN02
10
-35.136230
20
-2.058070
30
56.206764
70
192
0
VERTEX
8
SKIN02
10
-34.504684
20
-2.058060
30
55.370735
70
192
0
VERTEX
8
SKIN02
10
-30.387169
20
0.869669
30
56.351372
70
192
0
VERTEX
8
SKIN02
10
-33.407349
20
1.329845
30
57.068237
70
192
0
VERTEX
8
SKIN02
10
-35.142872
20
1.095970
30
56.203884
70
192
0
VERTEX
8
SKIN02
10
-34.564182
20
1.092941
30
55.371666
70
192
0
VERTEX
8
SKIN02
10
-33.343285
20
1.368072
30
55.425278
70
192
0
VERTEX
8
SKIN02
10
-31.816593
20
0.557364
30
54.736477
70
192
0
VERTEX
8
SKIN02
10
-30.089722
20
0.899610
30
53.870907
70
192
0
VERTEX
8
SKIN02
10
-32.867046
20
-2.997382
30
54.386929
70
192
0
VERTEX
8
SKIN02
10
-34.540810
20
-2.868416
30
53.311836
70
192
0
VERTEX
8
SKIN02
10
-34.315098
20
-2.822161
30
52.652359
70
192
0
VERTEX
8
SKIN02
10
-31.851784
20
-2.006195
30
53.299446
70
192
0
VERTEX
8
SKIN02
10
-34.338203
20
-2.148048
30
52.710018
70
192
0
VERTEX
8
SKIN02
10
-34.549892
20
-2.194335
30
53.293861
70
192
0
VERTEX
8
SKIN02
10
-32.847767
20
-2.064834
30
54.385902
70
192
0
VERTEX
8
SKIN02
10
-12.111452
20
-4.458885
30
53.788311
70
192
0
VERTEX
8
SKIN02
10
-12.851435
20
-0.481080
30
58.429111
70
192
0
VERTEX
8
SKIN02
10
-12.997883
20
-0.507121
30
51.600731
70
192
0
VERTEX
8
SKIN02
10
-12.447441
20
3.385633
30
54.151703
70
192
0
VERTEX
8
SKIN02
10
-23.857412
20
-3.741439
30
56.859478
70
192
0
VERTEX
8
SKIN02
10
-23.758028
20
-3.999429
30
53.353607
70
192
0
VERTEX
8
SKIN02
10
-36.619503
20
-1.599293
30
54.915325
70
192
0
VERTEX
8
SKIN02
10
-36.269100
20
-1.599285
30
54.505863
70
192
0
VERTEX
8
SKIN02
10
-36.249393
20
0.727720
30
54.913162
70
192
0
VERTEX
8
SKIN02
10
-35.938457
20
0.725458
30
54.506557
70
192
0
VERTEX
8
SKIN02
10
-9.849491
20
2.447745
30
58.108624
70
192
0
VERTEX
8
SKIN02
10
-10.285441
20
3.354728
30
53.809666
70
192
0
VERTEX
8
SKIN02
10
-7.419224
20
-4.649693
30
10.555534
70
192
0
VERTEX
8
SKIN02
10
-5.231963
20
-3.770203
30
19.698837
70
192
0
VERTEX
8
SKIN02
10
-7.365095
20
-3.770200
30
19.762424
70
192
0
VERTEX
8
SKIN02
10
-7.405063
20
-4.378261
30
22.215044
70
192
0
VERTEX
8
SKIN02
10
-6.894912
20
3.630548
30
17.647436
70
192
0
VERTEX
8
SKIN02
10
-9.597213
20
-0.728321
30
22.642399
70
192
0
VERTEX
8
SKIN02
10
-5.969131
20
2.612288
30
23.012688
70
192
0
VERTEX
8
SKIN02
10
-9.432621
20
-0.728443
30
19.235983
70
192
0
VERTEX
8
SKIN02
10
-6.958727
20
3.699329
30
11.304965
70
192
0
VERTEX
8
SKIN02
10
-11.219558
20
-0.898322
30
11.288808
70
192
0
VERTEX
8
SKIN02
10
-2.551468
20
-0.728448
30
21.624315
70
192
0
VERTEX
8
SKIN02
10
-3.356239
20
-0.728447
30
18.388840
70
192
0
VERTEX
8
SKIN02
10
-3.525738
20
-0.564528
30
10.628152
70
192
0
VERTEX
8
SKIN02
10
-4.612198
20
-4.378261
30
21.877840
70
192
0
VERTEX
8
SKIN02
10
-10.040005
20
-0.170505
30
8.714073
70
192
0
VERTEX
8
SKIN02
10
-7.630744
20
2.359218
30
9.139885
70
192
0
VERTEX
8
SKIN02
10
-7.799667
20
-2.981200
30
8.853379
70
192
0
VERTEX
8
SKIN02
10
-5.504929
20
-0.384496
30
8.434218
70
192
0
VERTEX
8
SKIN02
10
-7.087104
20
2.720836
30
0.245592
70
192
0
VERTEX
8
SKIN02
10
-10.858686
20
-0.065452
30
0.223824
70
192
0
VERTEX
8
SKIN02
10
-10.223799
20
2.579980
30
0.248803
70
192
0
VERTEX
8
SKIN02
10
-6.193518
20
0.296715
30
0.213986
70
192
0
VERTEX
8
SKIN02
10
-7.174351
20
-8.841598
30
0.229801
70
192
0
VERTEX
8
SKIN02
10
-7.303456
20
-8.674089
30
2.536555
70
192
0
VERTEX
8
SKIN02
10
-10.475707
20
-8.848296
30
0.219889
70
192
0
VERTEX
8
SKIN02
10
-9.938133
20
-8.673602
30
2.082641
70
192
0
VERTEX
8
SKIN02
10
-6.426964
20
-4.973696
30
0.215963
70
192
0
VERTEX
8
SKIN02
10
-11.337880
20
-4.973678
30
0.219125
70
192
0
VERTEX
8
SKIN02
10
-6.518341
20
-0.510580
30
5.250583
70
192
0
VERTEX
8
SKIN02
10
-6.850585
20
-4.532296
30
3.291896
70
192
0
VERTEX
8
SKIN02
10
-10.753958
20
-4.555575
30
2.724401
70
192
0
VERTEX
8
SKIN02
10
-8.440880
20
-4.840457
30
3.551473
70
192
0
VERTEX
8
SKIN02
10
-8.483120
20
-2.325783
30
5.315608
70
192
0
VERTEX
8
SKIN02
10
-10.239839
20
-0.322439
30
4.929932
70
192
0
VERTEX
8
SKIN02
10
-8.297771
20
1.679421
30
4.731197
70
192
0
VERTEX
8
SKIN02
10
-9.926788
20
-0.134771
30
58.441826
70
192
0
VERTEX
8
SKIN02
10
-6.392660
20
-4.253529
30
57.674057
70
192
0
VERTEX
8
SKIN02
10
-7.781618
20
-5.958837
30
50.871197
70
192
0
VERTEX
8
SKIN02
10
-6.603002
20
3.574701
30
57.590317
70
192
0
VERTEX
8
SKIN02
10
-3.572341
20
0.091146
30
59.092648
70
192
0
VERTEX
8
SKIN02
10
-8.331631
20
0.303660
30
49.783703
70
192
0
VERTEX
8
SKIN02
10
-8.331631
20
4.491159
30
52.933701
70
192
0
VERTEX
8
SKIN02
10
7.833237
20
0.191355
30
58.458973
70
192
0
VERTEX
8
SKIN02
10
8.865705
20
-3.979842
30
53.518623
70
192
0
VERTEX
8
SKIN02
10
9.499302
20
-3.291296
30
56.701241
70
192
0
VERTEX
8
SKIN02
10
15.995863
20
-3.911266
30
53.634174
70
192
0
VERTEX
8
SKIN02
10
19.942505
20
-3.514203
30
52.668060
70
192
0
VERTEX
8
SKIN02
10
19.958282
20
-3.422822
30
57.495914
70
192
0
VERTEX
8
SKIN02
10
16.056692
20
-3.680570
30
56.594341
70
192
0
VERTEX
8
SKIN02
10
23.132545
20
2.834321
30
56.430248
70
192
0
VERTEX
8
SKIN02
10
29.079487
20
2.534842
30
55.039452
70
192
0
VERTEX
8
SKIN02
10
20.075941
20
3.278017
30
54.362896
70
192
0
VERTEX
8
SKIN02
10
18.710070
20
2.708786
30
55.451908
70
192
0
VERTEX
8
SKIN02
10
18.828045
20
2.681577
30
53.602188
70
192
0
VERTEX
8
SKIN02
10
15.442034
20
3.163802
30
54.676716
70
192
0
VERTEX
8
SKIN02
10
21.740421
20
-0.033987
30
58.049278
70
192
0
VERTEX
8
SKIN02
10
28.793539
20
-0.376194
30
57.577835
70
192
0
VERTEX
8
SKIN02
10
17.260426
20
-0.109622
30
58.121674
70
192
0
VERTEX
8
SKIN02
10
28.580893
20
-0.288365
30
52.399834
70
192
0
VERTEX
8
SKIN02
10
22.028070
20
-0.519830
30
52.244938
70
192
0
VERTEX
8
SKIN02
10
17.298870
20
-0.592350
30
51.992680
70
192
0
VERTEX
8
SKIN02
10
34.074577
20
-1.928906
30
55.380653
70
192
0
VERTEX
8
SKIN02
10
34.706123
20
-1.928916
30
56.216686
70
192
0
VERTEX
8
SKIN02
10
32.906425
20
-1.912609
30
55.442112
70
192
0
VERTEX
8
SKIN02
10
32.991360
20
-1.942368
30
57.151730
70
192
0
VERTEX
8
SKIN02
10
29.912327
20
-1.812297
30
56.384735
70
192
0
VERTEX
8
SKIN02
10
29.656664
20
-1.882166
30
53.535976
70
192
0
VERTEX
8
SKIN02
10
32.977249
20
1.458997
30
57.078163
70
192
0
VERTEX
8
SKIN02
10
34.712769
20
1.225122
30
56.213806
70
192
0
VERTEX
8
SKIN02
10
34.134087
20
1.222094
30
55.381592
70
192
0
VERTEX
8
SKIN02
10
32.913189
20
1.497224
30
55.435196
70
192
0
VERTEX
8
SKIN02
10
29.957071
20
0.998822
30
56.361290
70
192
0
VERTEX
8
SKIN02
10
29.659611
20
1.028762
30
53.880825
70
192
0
VERTEX
8
SKIN02
10
31.386496
20
0.686516
30
54.746395
70
192
0
VERTEX
8
SKIN02
10
35.508354
20
0.854610
30
54.516479
70
192
0
VERTEX
8
SKIN02
10
35.819294
20
0.856872
30
54.923084
70
192
0
VERTEX
8
SKIN02
10
35.838993
20
-1.470131
30
54.515785
70
192
0
VERTEX
8
SKIN02
10
36.189407
20
-1.470139
30
54.925251
70
192
0
VERTEX
8
SKIN02
10
28.814537
20
-3.287235
30
54.973492
70
192
0
VERTEX
8
SKIN02
10
34.110710
20
-2.739262
30
53.321758
70
192
0
VERTEX
8
SKIN02
10
33.908100
20
-2.018894
30
52.719936
70
192
0
VERTEX
8
SKIN02
10
34.119789
20
-2.065181
30
53.303783
70
192
0
VERTEX
8
SKIN02
10
33.884991
20
-2.693007
30
52.662281
70
192
0
VERTEX
8
SKIN02
10
31.393393
20
-2.659895
30
53.341690
70
192
0
VERTEX
8
SKIN02
10
31.421684
20
-1.877041
30
53.309364
70
192
0
VERTEX
8
SKIN02
10
32.417660
20
-1.935680
30
54.395828
70
192
0
VERTEX
8
SKIN02
10
32.436947
20
-2.868228
30
54.396851
70
192
0
VERTEX
8
SKIN02
10
12.567785
20
-0.377966
30
51.610649
70
192
0
VERTEX
8
SKIN02
10
11.681360
20
-4.329728
30
53.798229
70
192
0
VERTEX
8
SKIN02
10
12.421337
20
-0.351925
30
58.439026
70
192
0
VERTEX
8
SKIN02
10
12.017344
20
3.514786
30
54.161621
70
192
0
VERTEX
8
SKIN02
10
9.419400
20
2.576899
30
58.118542
70
192
0
VERTEX
8
SKIN02
10
23.427311
20
-3.612283
30
56.869396
70
192
0
VERTEX
8
SKIN02
10
23.327923
20
-3.870273
30
53.363529
70
192
0
VERTEX
8
SKIN02
10
9.855348
20
3.483881
30
53.819588
70
192
0
VERTEX
8
SKIN02
10
9.496693
20
-0.005616
30
58.451744
70
192
0
VERTEX
8
SKIN02
10
6.818043
20
-4.649692
30
10.582722
70
192
0
VERTEX
8
SKIN02
10
6.763914
20
-3.770200
30
19.789612
70
192
0
VERTEX
8
SKIN02
10
4.630782
20
-3.770202
30
19.726027
70
192
0
VERTEX
8
SKIN02
10
6.803882
20
-4.378260
30
22.242233
70
192
0
VERTEX
8
SKIN02
10
6.293733
20
3.630549
30
17.674625
70
192
0
VERTEX
8
SKIN02
10
5.367951
20
2.612290
30
23.039877
70
192
0
VERTEX
8
SKIN02
10
8.996034
20
-0.728319
30
22.669590
70
192
0
VERTEX
8
SKIN02
10
8.831440
20
-0.728441
30
19.263172
70
192
0
VERTEX
8
SKIN02
10
6.357549
20
3.699330
30
11.332150
70
192
0
VERTEX
8
SKIN02
10
10.618379
20
-0.898321
30
11.315997
70
192
0
VERTEX
8
SKIN02
10
1.950287
20
-0.728447
30
21.651505
70
192
0
VERTEX
8
SKIN02
10
2.755058
20
-0.728446
30
18.416027
70
192
0
VERTEX
8
SKIN02
10
2.924557
20
-0.564528
30
10.655339
70
192
0
VERTEX
8
SKIN02
10
4.011018
20
-4.378260
30
21.905029
70
192
0
VERTEX
8
SKIN02
10
9.438825
20
-0.170504
30
8.741261
70
192
0
VERTEX
8
SKIN02
10
7.029565
20
2.359218
30
9.167068
70
192
0
VERTEX
8
SKIN02
10
7.198487
20
-2.981200
30
8.880566
70
192
0
VERTEX
8
SKIN02
10
4.903747
20
-0.384496
30
8.461406
70
192
0
VERTEX
8
SKIN02
10
6.485924
20
2.720835
30
0.272770
70
192
0
VERTEX
8
SKIN02
10
9.622618
20
2.579981
30
0.275991
70
192
0
VERTEX
8
SKIN02
10
10.257504
20
-0.065452
30
0.251006
70
192
0
VERTEX
8
SKIN02
10
5.592339
20
0.296715
30
0.241172
70
192
0
VERTEX
8
SKIN02
10
6.573171
20
-8.841599
30
0.256985
70
192
0
VERTEX
8
SKIN02
10
9.874526
20
-8.848297
30
0.247077
70
192
0
VERTEX
8
SKIN02
10
6.702275
20
-8.674089
30
2.563735
70
192
0
VERTEX
8
SKIN02
10
9.336952
20
-8.673602
30
2.109825
70
192
0
VERTEX
8
SKIN02
10
5.825783
20
-4.973697
30
0.243146
70
192
0
VERTEX
8
SKIN02
10
10.736699
20
-4.973678
30
0.246307
70
192
0
VERTEX
8
SKIN02
10
5.917161
20
-0.510580
30
5.277767
70
192
0
VERTEX
8
SKIN02
10
6.249405
20
-4.532296
30
3.319077
70
192
0
VERTEX
8
SKIN02
10
10.152778
20
-4.555574
30
2.751583
70
192
0
VERTEX
8
SKIN02
10
7.881940
20
-2.325783
30
5.342794
70
192
0
VERTEX
8
SKIN02
10
7.839699
20
-4.840457
30
3.578651
70
192
0
VERTEX
8
SKIN02
10
9.638656
20
-0.322438
30
4.957115
70
192
0
VERTEX
8
SKIN02
10
7.696590
20
1.679422
30
4.758380
70
192
0
VERTEX
8
SKIN02
10
2.532780
20
0.288513
30
58.686241
70
192
0
VERTEX
8
SKIN02
10
0.884560
20
-2.738113
30
59.752773
70
192
0
VERTEX
8
SKIN02
10
0.844921
20
-3.368256
30
58.213020
70
192
0
VERTEX
8
SKIN02
10
2.357864
20
-0.297800
30
61.331898
70
192
0
VERTEX
8
SKIN02
10
1.210449
20
2.751924
30
61.349075
70
192
0
VERTEX
8
SKIN02
10
1.299599
20
3.175007
30
58.490128
70
192
0
VERTEX
8
SKIN02
10
-1.496479
20
2.739196
30
61.348591
70
192
0
VERTEX
8
SKIN02
10
-1.702190
20
3.175009
30
58.490128
70
192
0
VERTEX
8
SKIN02
10
-2.949932
20
0.101178
30
58.623795
70
192
0
VERTEX
8
SKIN02
10
-2.708362
20
-0.311162
30
61.302807
70
192
0
VERTEX
8
SKIN02
10
-1.152282
20
-2.759865
30
59.740173
70
192
0
VERTEX
8
SKIN02
10
-1.251419
20
-3.320844
30
58.211651
70
192
0
VERTEX
8
SKIN02
10
-2.934551
20
-2.544826
30
63.307259
70
192
0
VERTEX
8
SKIN02
10
-2.093620
20
-4.131686
30
64.181595
70
192
0
VERTEX
8
SKIN02
10
-2.631073
20
-3.186034
30
64.525528
70
192
0
VERTEX
8
SKIN02
10
1.661591
20
-4.150979
30
64.193367
70
192
0
VERTEX
8
SKIN02
10
2.645016
20
-2.557557
30
63.291374
70
192
0
VERTEX
8
SKIN02
10
2.339527
20
-3.186036
30
64.522881
70
192
0
VERTEX
8
SKIN02
10
-1.520679
20
-4.494321
30
66.954910
70
192
0
VERTEX
8
SKIN02
10
1.366993
20
-4.623102
30
66.955315
70
192
0
VERTEX
8
SKIN02
10
1.366993
20
-2.945552
30
68.640007
70
192
0
VERTEX
8
SKIN02
10
-1.659721
20
-2.950435
30
68.642242
70
192
0
VERTEX
8
SKIN02
10
1.366997
20
-0.352006
30
68.946106
70
192
0
VERTEX
8
SKIN02
10
-1.659725
20
-0.372624
30
68.942390
70
192
0
VERTEX
8
SKIN02
10
1.323307
20
2.328470
30
68.296227
70
192
0
VERTEX
8
SKIN02
10
-1.674473
20
2.292829
30
68.280045
70
192
0
VERTEX
8
SKIN02
10
1.323307
20
3.466290
30
66.029106
70
192
0
VERTEX
8
SKIN02
10
-1.681816
20
3.466291
30
66.015869
70
192
0
VERTEX
8
SKIN02
10
-1.405273
20
-4.993498
30
64.972450
70
192
0
VERTEX
8
SKIN02
10
0.990883
20
-4.993498
30
64.972450
70
192
0
VERTEX
8
SKIN02
10
-2.644592
20
-2.847365
30
66.705048
70
192
0
VERTEX
8
SKIN02
10
-3.192654
20
-0.060941
30
67.390175
70
192
0
VERTEX
8
SKIN02
10
-2.961024
20
1.611311
30
65.177681
70
192
0
VERTEX
8
SKIN02
10
-3.452247
20
-1.163610
30
64.393944
70
192
0
VERTEX
8
SKIN02
10
2.506016
20
-2.981024
30
66.705101
70
192
0
VERTEX
8
SKIN02
10
3.167309
20
-1.150968
30
64.391304
70
192
0
VERTEX
8
SKIN02
10
3.046547
20
-0.065235
30
67.337883
70
192
0
VERTEX
8
SKIN02
10
2.631783
20
1.598579
30
65.294167
70
192
0
VERTEX
8
SKIN02
10
-3.087677
20
-0.413813
30
62.442547
70
192
0
VERTEX
8
SKIN02
10
-1.668579
20
3.275352
30
63.301983
70
192
0
VERTEX
8
SKIN02
10
2.804108
20
-0.410215
30
62.409557
70
192
0
VERTEX
8
SKIN02
10
1.310066
20
3.288079
30
63.301987
70
192
0
VERTEX
8
SKIN02
10
-0.450649
20
-5.465753
30
62.746731
70
192
0
VERTEX
8
SKIN02
10
0.436325
20
-4.854746
30
62.243668
70
192
0
VERTEX
8
SKIN02
10
0.171559
20
-5.465753
30
62.746731
70
192
0
VERTEX
8
SKIN02
10
-0.722160
20
-4.858410
30
62.236450
70
192
0
VERTEX
8
SKIN02
10
0.011238
20
-4.861613
30
64.629333
70
192
0
VERTEX
8
SKIN02
10
-0.346199
20
-4.874341
30
64.616089
70
192
0
VERTEX
8
SKIN02
10
-1.819778
20
-4.001354
30
62.178047
70
192
0
VERTEX
8
SKIN02
10
-1.222221
20
-3.435019
30
59.658012
70
192
0
VERTEX
8
SKIN02
10
1.536038
20
-4.017751
30
62.170830
70
192
0
VERTEX
8
SKIN02
10
0.947056
20
-3.435021
30
59.658016
70
192
0
VERTEX
8
SKIN02
10
-0.145118
20
-4.576514
30
59.817940
70
192
0
VERTEX
8
SKIN02
10
-0.424171
20
-5.213088
30
63.627499
70
192
0
VERTEX
8
SKIN02
10
0.131844
20
-5.213089
30
63.627499
70
192
0
VERTEX
8
SKIN02
10
1.656098
20
-4.005569
30
63.311035
70
192
0
VERTEX
8
SKIN02
10
-2.060859
20
-4.026513
30
63.343895
70
192
0
VERTEX
8
SKIN02
10
2.091133
20
-2.740412
30
61.302486
70
192
0
VERTEX
8
SKIN02
10
-2.304027
20
-2.753140
30
61.289249
70
192
0
VERTEX
8
SKIN02
10
0
20
0
30
0
70
128
71
9
72
4
73
8
0
VERTEX
8
SKIN02
10
0
20
0
30
0
70
128
71
8
72
4
73
7
0
VERTEX
8
SKIN02
10
0
20
0
30
0
70
128
71
1
72
8
73
7
0
VERTEX
8
SKIN02
10
0
20
0
30
0
70
128
71
2
72
10
73
3
0
VERTEX
8
SKIN02
10
0
20
0
30
0
70
128
71
9
72
2
73
5
0
VERTEX
8
SKIN02
10
0
20
0
30
0
70
128
71
4
72
9
73
5
0
VERTEX
8
SKIN02
10
0
20
0
30
0
70
128
71
10
72
2
73
9
0
VERTEX
8
SKIN02
10
0
20
0
30
0
70
128
71
2
72
11
73
5
0
VERTEX
8
SKIN02
10
0
20
0
30
0
70
128
71
11
72
3
73
6
0
VERTEX
8
SKIN02
10
0
20
0
30
0
70
128
71
11
72
2
73
3
0
VERTEX
8
SKIN02
10
0
20
0
30
0
70
128
71
1
72
6
73
3
0
VERTEX
8
SKIN02
10
0
20
0
30
0
70
128
71
12
72
14
73
13
0
VERTEX
8
SKIN02
10
0
20
0
30
0
70
128
71
12
72
15
73
14
0
VERTEX
8
SKIN02
10
0
20
0
30
0
70
128
71
16
72
18
73
17
0
VERTEX
8
SKIN02
10
0
20
0
30
0
70
128
71
16
72
19
73
18
0
VERTEX
8
SKIN02
10
0
20
0
30
0
70
128
71
24
72
12
73
23
0
VERTEX
8
SKIN02
10
0
20
0
30
0
70
128
71
28
72
22
73
23
0
VERTEX
8
SKIN02
10
0
20
0
30
0
70
128
71
28
72
21
73
22
0
VERTEX
8
SKIN02
10
0
20
0
30
0
70
128
71
29
72
21
73
28
0
VERTEX
8
SKIN02
10
0
20
0
30
0
70
128
71
27
72
20
73
21
0
VERTEX
8
SKIN02
10
0
20
0
30
0
70
128
71
21
72
29
73
27
0
VERTEX
8
SKIN02
10
0
20
0
30
0
70
128
71
32
72
17
73
27
0
VERTEX
8
SKIN02
10
0
20
0
30
0
70
128
71
32
72
16
73
17
0
VERTEX
8
SKIN02
10
0
20
0
30
0
70
128
71
32
72
27
73
29
0
VERTEX
8
SKIN02
10
0
20
0
30
0
70
128
71
32
72
29
73
31
0
VERTEX
8
SKIN02
10
0
20
0
30
0
70
128
71
28
72
31
73
29
0
VERTEX
8
SKIN02
10
0
20
0
30
0
70
128
71
31
72
28
73
30
0
VERTEX
8
SKIN02
10
0
20
0
30
0
70
128
71
30
72
12
73
13
0
VERTEX
8
SKIN02
10
0
20
0
30
0
70
128
71
13
72
31
73
30
0
VERTEX
8
SKIN02
10
0
20
0
30
0
70
128
71
16
72
32
73
31
0
VERTEX
8
SKIN02
10
0
20
0
30
0
70
128
71
34
72
18
73
19
0
VERTEX
8
SKIN02
10
0
20
0
30
0
70
128
71
34
72
19
73
26
0
VERTEX
8
SKIN02
10
0
20
0
30
0
70
128
71
25
72
14
73
15
0
VERTEX
8
SKIN02
10
0
20
0
30
0
70
128
71
15
72
33
73
25
0
VERTEX
8
SKIN02
10
0
20
0
30
0
70
128
71
41
72
33
73
40
0
VERTEX
8
SKIN02
10
0
20
0
30
0
70
128
71
41
72
25
73
33
0
VERTEX
8
SKIN02
10
0
20
0
30
0
70
128
71
23
72
30
73
28
0
VERTEX
8
SKIN02
10
0
20
0
30
0
70
128
71
12
72
30
73
23
0
VERTEX
8
SKIN02
10
0
20
0
30
0
70
128
71
16
72
44
73
19
0
VERTEX
8
SKIN02
10
0
20
0
30
0
70
128
71
19
72
44
73
43
0
VERTEX
8
SKIN02
10
0
20
0
30
0
70
128
71
19
72
43
73
26
0
VERTEX
8
SKIN02
10
0
20
0
30
0
70
128
71
14
72
25
73
26
0
VERTEX
8
SKIN02
10
0
20
0
30
0
70
128
71
43
72
14
73
26
0
VERTEX
8
SKIN02
10
0
20
0
30
0
70
128
71
1
72
7
73
6
0
VERTEX
8
SKIN02
10
0
20
0
30
0
70
128
71
25
72
45
73
26
0
VERTEX
8
SKIN02
10
0
20
0
30
0
70
128
71
45
72
25
73
41
0
VERTEX
8
SKIN02
10
0
20
0
30
0
70
128
71
26
72
45
73
34
0
VERTEX
8
SKIN02
10
0
20
0
30
0
70
128
71
34
72
45
73
42
0
VERTEX
8
SKIN02
10
0
20
0
30
0
70
128
71
38
72
46
73
39
0
VERTEX
8
SKIN02
10
0
20
0
30
0
70
128
71
37
72
46
73
38
0
VERTEX
8
SKIN02
10
0
20
0
30
0
70
128
71
36
72
46
73
37
0
VERTEX
8
SKIN02
10
0
20
0
30
0
70
128
71
35
72
46
73
36
0
VERTEX
8
SKIN02
10
0
20
0
30
0
70
128
71
56
72
53
73
55
0
VERTEX
8
SKIN02
10
0
20
0
30
0
70
128
71
53
72
56
73
54
0
VERTEX
8
SKIN02
10
0
20
0
30
0
70
128
71
47
72
55
73
48
0
VERTEX
8
SKIN02
10
0
20
0
30
0
70
128
71
48
72
55
73
53
0
VERTEX
8
SKIN02
10
0
20
0
30
0
70
128
71
55
72
47
73
52
0
VERTEX
8
SKIN02
10
0
20
0
30
0
70
128
71
52
72
56
73
55
0
VERTEX
8
SKIN02
10
0
20
0
30
0
70
128
71
51
72
56
73
52
0
VERTEX
8
SKIN02
10
0
20
0
30
0
70
128
71
51
72
57
73
56
0
VERTEX
8
SKIN02
10
0
20
0
30
0
70
128
71
57
72
54
73
56
0
VERTEX
8
SKIN02
10
0
20
0
30
0
70
128
71
57
72
50
73
54
0
VERTEX
8
SKIN02
10
0
20
0
30
0
70
128
71
48
72
53
73
49
0
VERTEX
8
SKIN02
10
0
20
0
30
0
70
128
71
58
72
49
73
53
0
VERTEX
8
SKIN02
10
0
20
0
30
0
70
128
71
58
72
53
73
54
0
VERTEX
8
SKIN02
10
0
20
0
30
0
70
128
71
50
72
58
73
54
0
VERTEX
8
SKIN02
10
0
20
0
30
0
70
128
71
59
72
36
73
60
0
VERTEX
8
SKIN02
10
0
20
0
30
0
70
128
71
36
72
59
73
35
0
VERTEX
8
SKIN02
10
0
20
0
30
0
70
128
71
59
72
41
73
40
0
VERTEX
8
SKIN02
10
0
20
0
30
0
70
128
71
41
72
59
73
60
0
VERTEX
8
SKIN02
10
0
20
0
30
0
70
128
71
61
72
45
73
41
0
VERTEX
8
SKIN02
10
0
20
0
30
0
70
128
71
41
72
60
73
61
0
VERTEX
8
SKIN02
10
0
20
0
30
0
70
128
71
37
72
61
73
60
0
VERTEX
8
SKIN02
10
0
20
0
30
0
70
128
71
60
72
36
73
37
0
VERTEX
8
SKIN02
10
0
20
0
30
0
70
128
71
61
72
42
73
45
0
VERTEX
8
SKIN02
10
0
20
0
30
0
70
128
71
42
72
61
73
62
0
VERTEX
8
SKIN02
10
0
20
0
30
0
70
128
71
37
72
62
73
61
0
VERTEX
8
SKIN02
10
0
20
0
30
0
70
128
71
62
72
37
73
38
0
VERTEX
8
SKIN02
10
0
20
0
30
0
70
128
71
38
72
39
73
62
0
VERTEX
8
SKIN02
10
0
20
0
30
0
70
128
71
70
72
8
73
66
0
VERTEX
8
SKIN02
10
0
20
0
30
0
70
128
71
8
72
69
73
66
0
VERTEX
8
SKIN02
10
0
20
0
30
0
70
128
71
63
72
69
73
8
0
VERTEX
8
SKIN02
10
0
20
0
30
0
70
128
71
64
72
65
73
71
0
VERTEX
8
SKIN02
10
0
20
0
30
0
70
128
71
70
72
67
73
64
0
VERTEX
8
SKIN02
10
0
20
0
30
0
70
128
71
66
72
67
73
70
0
VERTEX
8
SKIN02
10
0
20
0
30
0
70
128
71
71
72
70
73
64
0
VERTEX
8
SKIN02
10
0
20
0
30
0
70
128
71
64
72
67
73
72
0
VERTEX
8
SKIN02
10
0
20
0
30
0
70
128
71
72
72
68
73
65
0
VERTEX
8
SKIN02
10
0
20
0
30
0
70
128
71
72
72
65
73
64
0
VERTEX
8
SKIN02
10
0
20
0
30
0
70
128
71
63
72
65
73
68
0
VERTEX
8
SKIN02
10
0
20
0
30
0
70
128
71
12
72
73
73
74
0
VERTEX
8
SKIN02
10
0
20
0
30
0
70
128
71
12
72
74
73
15
0
VERTEX
8
SKIN02
10
0
20
0
30
0
70
128
71
75
72
17
73
18
0
VERTEX
8
SKIN02
10
0
20
0
30
0
70
128
71
75
72
18
73
76
0
VERTEX
8
SKIN02
10
0
20
0
30
0
70
128
71
23
72
24
73
12
0
VERTEX
8
SKIN02
10
0
20
0
30
0
70
128
71
80
72
24
73
77
0
VERTEX
8
SKIN02
10
0
20
0
30
0
70
128
71
80
72
77
73
20
0
VERTEX
8
SKIN02
10
0
20
0
30
0
70
128
71
81
72
80
73
20
0
VERTEX
8
SKIN02
10
0
20
0
30
0
70
128
71
27
72
20
73
21
0
VERTEX
8
SKIN02
10
0
20
0
30
0
70
128
71
20
72
27
73
81
0
VERTEX
8
SKIN02
10
0
20
0
30
0
70
128
71
84
72
27
73
17
0
VERTEX
8
SKIN02
10
0
20
0
30
0
70
128
71
84
72
17
73
75
0
VERTEX
8
SKIN02
10
0
20
0
30
0
70
128
71
84
72
81
73
27
0
VERTEX
8
SKIN02
10
0
20
0
30
0
70
128
71
84
72
83
73
81
0
VERTEX
8
SKIN02
10
0
20
0
30
0
70
128
71
80
72
81
73
83
0
VERTEX
8
SKIN02
10
0
20
0
30
0
70
128
71
83
72
82
73
80
0
VERTEX
8
SKIN02
10
0
20
0
30
0
70
128
71
82
72
73
73
12
0
VERTEX
8
SKIN02
10
0
20
0
30
0
70
128
71
73
72
82
73
83
0
VERTEX
8
SKIN02
10
0
20
0
30
0
70
128
71
75
72
83
73
84
0
VERTEX
8
SKIN02
10
0
20
0
30
0
70
128
71
217
72
220
73
85
0
VERTEX
8
SKIN02
10
0
20
0
30
0
70
128
71
85
72
220
73
219
0
VERTEX
8
SKIN02
10
0
20
0
30
0
70
128
71
86
72
76
73
18
0
VERTEX
8
SKIN02
10
0
20
0
30
0
70
128
71
86
72
79
73
76
0
VERTEX
8
SKIN02
10
0
20
0
30
0
70
128
71
78
72
15
73
74
0
VERTEX
8
SKIN02
10
0
20
0
30
0
70
128
71
15
72
78
73
33
0
VERTEX
8
SKIN02
10
0
20
0
30
0
70
128
71
93
72
92
73
33
0
VERTEX
8
SKIN02
10
0
20
0
30
0
70
128
71
93
72
33
73
78
0
VERTEX
8
SKIN02
10
0
20
0
30
0
70
128
71
24
72
80
73
82
0
VERTEX
8
SKIN02
10
0
20
0
30
0
70
128
71
12
72
24
73
82
0
VERTEX
8
SKIN02
10
0
20
0
30
0
70
128
71
75
72
76
73
97
0
VERTEX
8
SKIN02
10
0
20
0
30
0
70
128
71
76
72
96
73
97
0
VERTEX
8
SKIN02
10
0
20
0
30
0
70
128
71
76
72
79
73
96
0
VERTEX
8
SKIN02
10
0
20
0
30
0
70
128
71
96
72
79
73
74
0
VERTEX
8
SKIN02
10
0
20
0
30
0
70
128
71
79
72
78
73
74
0
VERTEX
8
SKIN02
10
0
20
0
30
0
70
128
71
218
72
95
73
221
0
VERTEX
8
SKIN02
10
0
20
0
30
0
70
128
71
95
72
218
73
217
0
VERTEX
8
SKIN02
10
0
20
0
30
0
70
128
71
63
72
68
73
69
0
VERTEX
8
SKIN02
10
0
20
0
30
0
70
128
71
78
72
79
73
98
0
VERTEX
8
SKIN02
10
0
20
0
30
0
70
128
71
98
72
93
73
78
0
VERTEX
8
SKIN02
10
0
20
0
30
0
70
128
71
79
72
86
73
98
0
VERTEX
8
SKIN02
10
0
20
0
30
0
70
128
71
86
72
94
73
98
0
VERTEX
8
SKIN02
10
0
20
0
30
0
70
128
71
90
72
91
73
46
0
VERTEX
8
SKIN02
10
0
20
0
30
0
70
128
71
89
72
90
73
46
0
VERTEX
8
SKIN02
10
0
20
0
30
0
70
128
71
88
72
89
73
46
0
VERTEX
8
SKIN02
10
0
20
0
30
0
70
128
71
87
72
88
73
46
0
VERTEX
8
SKIN02
10
0
20
0
30
0
70
128
71
99
72
95
73
217
0
VERTEX
8
SKIN02
10
0
20
0
30
0
70
128
71
217
72
85
73
99
0
VERTEX
8
SKIN02
10
0
20
0
30
0
70
128
71
103
72
104
73
105
0
VERTEX
8
SKIN02
10
0
20
0
30
0
70
128
71
102
72
103
73
105
0
VERTEX
8
SKIN02
10
0
20
0
30
0
70
128
71
101
72
102
73
105
0
VERTEX
8
SKIN02
10
0
20
0
30
0
70
128
71
101
72
105
73
107
0
VERTEX
8
SKIN02
10
0
20
0
30
0
70
128
71
105
72
106
73
107
0
VERTEX
8
SKIN02
10
0
20
0
30
0
70
128
71
100
72
101
73
107
0
VERTEX
8
SKIN02
10
0
20
0
30
0
70
128
71
100
72
107
73
108
0
VERTEX
8
SKIN02
10
0
20
0
30
0
70
128
71
114
72
113
73
112
0
VERTEX
8
SKIN02
10
0
20
0
30
0
70
128
71
114
72
112
73
111
0
VERTEX
8
SKIN02
10
0
20
0
30
0
70
128
71
114
72
111
73
110
0
VERTEX
8
SKIN02
10
0
20
0
30
0
70
128
71
116
72
114
73
110
0
VERTEX
8
SKIN02
10
0
20
0
30
0
70
128
71
116
72
115
73
114
0
VERTEX
8
SKIN02
10
0
20
0
30
0
70
128
71
116
72
110
73
109
0
VERTEX
8
SKIN02
10
0
20
0
30
0
70
128
71
117
72
116
73
109
0
VERTEX
8
SKIN02
10
0
20
0
30
0
70
128
71
104
72
113
73
114
0
VERTEX
8
SKIN02
10
0
20
0
30
0
70
128
71
114
72
105
73
104
0
VERTEX
8
SKIN02
10
0
20
0
30
0
70
128
71
113
72
104
73
103
0
VERTEX
8
SKIN02
10
0
20
0
30
0
70
128
71
103
72
112
73
113
0
VERTEX
8
SKIN02
10
0
20
0
30
0
70
128
71
103
72
111
73
112
0
VERTEX
8
SKIN02
10
0
20
0
30
0
70
128
71
111
72
103
73
102
0
VERTEX
8
SKIN02
10
0
20
0
30
0
70
128
71
102
72
110
73
111
0
VERTEX
8
SKIN02
10
0
20
0
30
0
70
128
71
110
72
102
73
101
0
VERTEX
8
SKIN02
10
0
20
0
30
0
70
128
71
110
72
101
73
100
0
VERTEX
8
SKIN02
10
0
20
0
30
0
70
128
71
100
72
109
73
110
0
VERTEX
8
SKIN02
10
0
20
0
30
0
70
128
71
117
72
109
73
100
0
VERTEX
8
SKIN02
10
0
20
0
30
0
70
128
71
100
72
108
73
117
0
VERTEX
8
SKIN02
10
0
20
0
30
0
70
128
71
108
72
116
73
117
0
VERTEX
8
SKIN02
10
0
20
0
30
0
70
128
71
116
72
108
73
107
0
VERTEX
8
SKIN02
10
0
20
0
30
0
70
128
71
107
72
115
73
116
0
VERTEX
8
SKIN02
10
0
20
0
30
0
70
128
71
115
72
107
73
106
0
VERTEX
8
SKIN02
10
0
20
0
30
0
70
128
71
106
72
114
73
115
0
VERTEX
8
SKIN02
10
0
20
0
30
0
70
128
71
114
72
106
73
105
0
VERTEX
8
SKIN02
10
0
20
0
30
0
70
128
71
122
72
121
73
119
0
VERTEX
8
SKIN02
10
0
20
0
30
0
70
128
71
119
72
120
73
122
0
VERTEX
8
SKIN02
10
0
20
0
30
0
70
128
71
47
72
48
73
121
0
VERTEX
8
SKIN02
10
0
20
0
30
0
70
128
71
48
72
119
73
121
0
VERTEX
8
SKIN02
10
0
20
0
30
0
70
128
71
121
72
52
73
47
0
VERTEX
8
SKIN02
10
0
20
0
30
0
70
128
71
52
72
121
73
122
0
VERTEX
8
SKIN02
10
0
20
0
30
0
70
128
71
51
72
52
73
122
0
VERTEX
8
SKIN02
10
0
20
0
30
0
70
128
71
51
72
122
73
57
0
VERTEX
8
SKIN02
10
0
20
0
30
0
70
128
71
57
72
122
73
120
0
VERTEX
8
SKIN02
10
0
20
0
30
0
70
128
71
57
72
120
73
50
0
VERTEX
8
SKIN02
10
0
20
0
30
0
70
128
71
48
72
118
73
119
0
VERTEX
8
SKIN02
10
0
20
0
30
0
70
128
71
58
72
119
73
118
0
VERTEX
8
SKIN02
10
0
20
0
30
0
70
128
71
58
72
120
73
119
0
VERTEX
8
SKIN02
10
0
20
0
30
0
70
128
71
50
72
120
73
58
0
VERTEX
8
SKIN02
10
0
20
0
30
0
70
128
71
123
72
88
73
87
0
VERTEX
8
SKIN02
10
0
20
0
30
0
70
128
71
88
72
123
73
124
0
VERTEX
8
SKIN02
10
0
20
0
30
0
70
128
71
123
72
92
73
93
0
VERTEX
8
SKIN02
10
0
20
0
30
0
70
128
71
93
72
124
73
123
0
VERTEX
8
SKIN02
10
0
20
0
30
0
70
128
71
124
72
93
73
125
0
VERTEX
8
SKIN02
10
0
20
0
30
0
70
128
71
98
72
125
73
93
0
VERTEX
8
SKIN02
10
0
20
0
30
0
70
128
71
89
72
124
73
125
0
VERTEX
8
SKIN02
10
0
20
0
30
0
70
128
71
124
72
89
73
88
0
VERTEX
8
SKIN02
10
0
20
0
30
0
70
128
71
125
72
98
73
94
0
VERTEX
8
SKIN02
10
0
20
0
30
0
70
128
71
94
72
126
73
125
0
VERTEX
8
SKIN02
10
0
20
0
30
0
70
128
71
89
72
125
73
126
0
VERTEX
8
SKIN02
10
0
20
0
30
0
70
128
71
126
72
90
73
89
0
VERTEX
8
SKIN02
10
0
20
0
30
0
70
128
71
90
72
126
73
91
0
VERTEX
8
SKIN02
10
0
20
0
30
0
70
128
71
63
72
8
73
1
0
VERTEX
8
SKIN02
10
0
20
0
30
0
70
128
71
35
72
59
73
123
0
VERTEX
8
SKIN02
10
0
20
0
30
0
70
128
71
123
72
87
73
35
0
VERTEX
8
SKIN02
10
0
20
0
30
0
70
128
71
-123
72
40
73
92
0
VERTEX
8
SKIN02
10
0
20
0
30
0
70
128
71
123
72
59
73
-40
0
VERTEX
8
SKIN02
10
0
20
0
30
0
70
128
71
92
72
40
73
33
0
VERTEX
8
SKIN02
10
0
20
0
30
0
70
128
71
91
72
126
73
127
0
VERTEX
8
SKIN02
10
0
20
0
30
0
70
128
71
127
72
126
73
94
0
VERTEX
8
SKIN02
10
0
20
0
30
0
70
128
71
39
72
128
73
62
0
VERTEX
8
SKIN02
10
0
20
0
30
0
70
128
71
128
72
42
73
62
0
VERTEX
8
SKIN02
10
0
20
0
30
0
70
128
71
-39
72
127
73
128
0
VERTEX
8
SKIN02
10
0
20
0
30
0
70
128
71
39
72
91
73
-127
0
VERTEX
8
SKIN02
10
0
20
0
30
0
70
128
71
-128
72
94
73
42
0
VERTEX
8
SKIN02
10
0
20
0
30
0
70
128
71
128
72
127
73
-94
0
VERTEX
8
SKIN02
10
0
20
0
30
0
70
128
71
-42
72
86
73
34
0
VERTEX
8
SKIN02
10
0
20
0
30
0
70
128
71
42
72
94
73
-86
0
VERTEX
8
SKIN02
10
0
20
0
30
0
70
128
71
34
72
86
73
18
0
VERTEX
8
SKIN02
10
0
20
0
30
0
70
128
71
48
72
49
73
118
0
VERTEX
8
SKIN02
10
0
20
0
30
0
70
128
71
58
72
118
73
49
0
VERTEX
8
SKIN02
10
0
20
0
30
0
70
128
71
46
72
91
73
39
0
VERTEX
8
SKIN02
10
0
20
0
30
0
70
128
71
35
72
87
73
46
0
VERTEX
8
SKIN02
10
0
20
0
30
0
70
128
71
8
72
70
73
129
0
VERTEX
8
SKIN02
10
0
20
0
30
0
70
128
71
9
72
8
73
130
0
VERTEX
8
SKIN02
10
0
20
0
30
0
70
128
71
129
72
70
73
71
0
VERTEX
8
SKIN02
10
0
20
0
30
0
70
128
71
9
72
130
73
10
0
VERTEX
8
SKIN02
10
0
20
0
30
0
70
128
71
132
72
134
73
133
0
VERTEX
8
SKIN02
10
0
20
0
30
0
70
128
71
131
72
134
73
132
0
VERTEX
8
SKIN02
10
0
20
0
30
0
70
128
71
138
72
140
73
139
0
VERTEX
8
SKIN02
10
0
20
0
30
0
70
128
71
137
72
140
73
138
0
VERTEX
8
SKIN02
10
0
20
0
30
0
70
128
71
137
72
141
73
140
0
VERTEX
8
SKIN02
10
0
20
0
30
0
70
128
71
136
72
141
73
137
0
VERTEX
8
SKIN02
10
0
20
0
30
0
70
128
71
146
72
138
73
145
0
VERTEX
8
SKIN02
10
0
20
0
30
0
70
128
71
145
72
138
73
139
0
VERTEX
8
SKIN02
10
0
20
0
30
0
70
128
71
146
72
137
73
138
0
VERTEX
8
SKIN02
10
0
20
0
30
0
70
128
71
146
72
134
73
147
0
VERTEX
8
SKIN02
10
0
20
0
30
0
70
128
71
146
72
147
73
137
0
VERTEX
8
SKIN02
10
0
20
0
30
0
70
128
71
131
72
147
73
134
0
VERTEX
8
SKIN02
10
0
20
0
30
0
70
128
71
147
72
136
73
137
0
VERTEX
8
SKIN02
10
0
20
0
30
0
70
128
71
144
72
139
73
140
0
VERTEX
8
SKIN02
10
0
20
0
30
0
70
128
71
144
72
140
73
143
0
VERTEX
8
SKIN02
10
0
20
0
30
0
70
128
71
143
72
140
73
141
0
VERTEX
8
SKIN02
10
0
20
0
30
0
70
128
71
142
72
143
73
141
0
VERTEX
8
SKIN02
10
0
20
0
30
0
70
128
71
142
72
133
73
143
0
VERTEX
8
SKIN02
10
0
20
0
30
0
70
128
71
142
72
141
73
136
0
VERTEX
8
SKIN02
10
0
20
0
30
0
70
128
71
142
72
132
73
133
0
VERTEX
8
SKIN02
10
0
20
0
30
0
70
128
71
154
72
151
73
153
0
VERTEX
8
SKIN02
10
0
20
0
30
0
70
128
71
153
72
151
73
152
0
VERTEX
8
SKIN02
10
0
20
0
30
0
70
128
71
148
72
152
73
151
0
VERTEX
8
SKIN02
10
0
20
0
30
0
70
128
71
148
72
151
73
149
0
VERTEX
8
SKIN02
10
0
20
0
30
0
70
128
71
156
72
158
73
157
0
VERTEX
8
SKIN02
10
0
20
0
30
0
70
128
71
156
72
159
73
158
0
VERTEX
8
SKIN02
10
0
20
0
30
0
70
128
71
155
72
159
73
156
0
VERTEX
8
SKIN02
10
0
20
0
30
0
70
128
71
155
72
161
73
159
0
VERTEX
8
SKIN02
10
0
20
0
30
0
70
128
71
159
72
161
73
160
0
VERTEX
8
SKIN02
10
0
20
0
30
0
70
128
71
178
72
176
73
177
0
VERTEX
8
SKIN02
10
0
20
0
30
0
70
128
71
175
72
177
73
176
0
VERTEX
8
SKIN02
10
0
20
0
30
0
70
128
71
157
72
153
73
156
0
VERTEX
8
SKIN02
10
0
20
0
30
0
70
128
71
152
72
156
73
153
0
VERTEX
8
SKIN02
10
0
20
0
30
0
70
128
71
148
72
156
73
152
0
VERTEX
8
SKIN02
10
0
20
0
30
0
70
128
71
156
72
148
73
155
0
VERTEX
8
SKIN02
10
0
20
0
30
0
70
128
71
159
72
151
73
158
0
VERTEX
8
SKIN02
10
0
20
0
30
0
70
128
71
158
72
151
73
154
0
VERTEX
8
SKIN02
10
0
20
0
30
0
70
128
71
139
72
155
73
145
0
VERTEX
8
SKIN02
10
0
20
0
30
0
70
128
71
139
72
161
73
155
0
VERTEX
8
SKIN02
10
0
20
0
30
0
70
128
71
161
72
144
73
149
0
VERTEX
8
SKIN02
10
0
20
0
30
0
70
128
71
161
72
139
73
144
0
VERTEX
8
SKIN02
10
0
20
0
30
0
70
128
71
135
72
149
73
144
0
VERTEX
8
SKIN02
10
0
20
0
30
0
70
128
71
163
72
167
73
166
0
VERTEX
8
SKIN02
10
0
20
0
30
0
70
128
71
163
72
166
73
164
0
VERTEX
8
SKIN02
10
0
20
0
30
0
70
128
71
166
72
150
73
164
0
VERTEX
8
SKIN02
10
0
20
0
30
0
70
128
71
150
72
166
73
165
0
VERTEX
8
SKIN02
10
0
20
0
30
0
70
128
71
167
72
165
73
166
0
VERTEX
8
SKIN02
10
0
20
0
30
0
70
128
71
168
72
165
73
167
0
VERTEX
8
SKIN02
10
0
20
0
30
0
70
128
71
163
72
168
73
167
0
VERTEX
8
SKIN02
10
0
20
0
30
0
70
128
71
162
72
168
73
163
0
VERTEX
8
SKIN02
10
0
20
0
30
0
70
128
71
136
72
171
73
142
0
VERTEX
8
SKIN02
10
0
20
0
30
0
70
128
71
99
72
131
73
169
0
VERTEX
8
SKIN02
10
0
20
0
30
0
70
128
71
131
72
170
73
147
0
VERTEX
8
SKIN02
10
0
20
0
30
0
70
128
71
172
72
136
73
179
0
VERTEX
8
SKIN02
10
0
20
0
30
0
70
128
71
136
72
147
73
170
0
VERTEX
8
SKIN02
10
0
20
0
30
0
70
128
71
164
72
150
73
162
0
VERTEX
8
SKIN02
10
0
20
0
30
0
70
128
71
164
72
162
73
163
0
VERTEX
8
SKIN02
10
0
20
0
30
0
70
128
71
149
72
162
73
150
0
VERTEX
8
SKIN02
10
0
20
0
30
0
70
128
71
162
72
149
73
151
0
VERTEX
8
SKIN02
10
0
20
0
30
0
70
128
71
162
72
151
73
159
0
VERTEX
8
SKIN02
10
0
20
0
30
0
70
128
71
159
72
168
73
162
0
VERTEX
8
SKIN02
10
0
20
0
30
0
70
128
71
165
72
149
73
150
0
VERTEX
8
SKIN02
10
0
20
0
30
0
70
128
71
149
72
165
73
160
0
VERTEX
8
SKIN02
10
0
20
0
30
0
70
128
71
161
72
149
73
160
0
VERTEX
8
SKIN02
10
0
20
0
30
0
70
128
71
168
72
160
73
165
0
VERTEX
8
SKIN02
10
0
20
0
30
0
70
128
71
168
72
159
73
160
0
VERTEX
8
SKIN02
10
0
20
0
30
0
70
128
71
145
72
155
73
148
0
VERTEX
8
SKIN02
10
0
20
0
30
0
70
128
71
149
72
135
73
148
0
VERTEX
8
SKIN02
10
0
20
0
30
0
70
128
71
148
72
135
73
145
0
VERTEX
8
SKIN02
10
0
20
0
30
0
70
128
71
135
72
174
73
173
0
VERTEX
8
SKIN02
10
0
20
0
30
0
70
128
71
174
72
135
73
144
0
VERTEX
8
SKIN02
10
0
20
0
30
0
70
128
71
174
72
133
73
173
0
VERTEX
8
SKIN02
10
0
20
0
30
0
70
128
71
173
72
133
73
134
0
VERTEX
8
SKIN02
10
0
20
0
30
0
70
128
71
135
72
173
73
145
0
VERTEX
8
SKIN02
10
0
20
0
30
0
70
128
71
145
72
173
73
146
0
VERTEX
8
SKIN02
10
0
20
0
30
0
70
128
71
173
72
134
73
146
0
VERTEX
8
SKIN02
10
0
20
0
30
0
70
128
71
133
72
174
73
143
0
VERTEX
8
SKIN02
10
0
20
0
30
0
70
128
71
143
72
174
73
144
0
VERTEX
8
SKIN02
10
0
20
0
30
0
70
128
71
171
72
136
73
172
0
VERTEX
8
SKIN02
10
0
20
0
30
0
70
128
71
153
72
176
73
154
0
VERTEX
8
SKIN02
10
0
20
0
30
0
70
128
71
176
72
153
73
175
0
VERTEX
8
SKIN02
10
0
20
0
30
0
70
128
71
158
72
177
73
157
0
VERTEX
8
SKIN02
10
0
20
0
30
0
70
128
71
177
72
158
73
178
0
VERTEX
8
SKIN02
10
0
20
0
30
0
70
128
71
154
72
178
73
158
0
VERTEX
8
SKIN02
10
0
20
0
30
0
70
128
71
178
72
154
73
176
0
VERTEX
8
SKIN02
10
0
20
0
30
0
70
128
71
157
72
175
73
153
0
VERTEX
8
SKIN02
10
0
20
0
30
0
70
128
71
175
72
157
73
177
0
VERTEX
8
SKIN02
10
0
20
0
30
0
70
128
71
222
72
171
73
180
0
VERTEX
8
SKIN02
10
0
20
0
30
0
70
128
71
222
72
221
73
171
0
VERTEX
8
SKIN02
10
0
20
0
30
0
70
128
71
171
72
221
73
95
0
VERTEX
8
SKIN02
10
0
20
0
30
0
70
128
71
95
72
99
73
169
0
VERTEX
8
SKIN02
10
0
20
0
30
0
70
128
71
171
72
95
73
169
0
VERTEX
8
SKIN02
10
0
20
0
30
0
70
128
71
169
72
142
73
171
0
VERTEX
8
SKIN02
10
0
20
0
30
0
70
128
71
169
72
132
73
142
0
VERTEX
8
SKIN02
10
0
20
0
30
0
70
128
71
132
72
169
73
131
0
VERTEX
8
SKIN02
10
0
20
0
30
0
70
128
71
131
72
99
73
170
0
VERTEX
8
SKIN02
10
0
20
0
30
0
70
128
71
179
72
216
73
85
0
VERTEX
8
SKIN02
10
0
20
0
30
0
70
128
71
179
72
136
73
170
0
VERTEX
8
SKIN02
10
0
20
0
30
0
70
128
71
180
72
172
73
179
0
VERTEX
8
SKIN02
10
0
20
0
30
0
70
128
71
180
72
171
73
172
0
VERTEX
8
SKIN02
10
0
20
0
30
0
70
128
71
222
72
179
73
219
0
VERTEX
8
SKIN02
10
0
20
0
30
0
70
128
71
222
72
180
73
179
0
VERTEX
8
SKIN02
10
0
20
0
30
0
70
128
71
99
72
85
73
216
0
VERTEX
8
SKIN02
10
0
20
0
30
0
70
128
71
179
72
85
73
219
0
VERTEX
8
SKIN02
10
0
20
0
30
0
70
128
71
99
72
216
73
170
0
VERTEX
8
SKIN02
10
0
20
0
30
0
70
128
71
179
72
170
73
216
0
VERTEX
8
SKIN02
10
0
20
0
30
0
70
128
71
223
72
31
73
13
0
VERTEX
8
SKIN02
10
0
20
0
30
0
70
128
71
16
72
31
73
223
0
VERTEX
8
SKIN02
10
0
20
0
30
0
70
128
71
43
72
224
73
14
0
VERTEX
8
SKIN02
10
0
20
0
30
0
70
128
71
13
72
14
73
224
0
VERTEX
8
SKIN02
10
0
20
0
30
0
70
128
71
13
72
224
73
225
0
VERTEX
8
SKIN02
10
0
20
0
30
0
70
128
71
225
72
223
73
13
0
VERTEX
8
SKIN02
10
0
20
0
30
0
70
128
71
227
72
228
73
226
0
VERTEX
8
SKIN02
10
0
20
0
30
0
70
128
71
226
72
228
73
229
0
VERTEX
8
SKIN02
10
0
20
0
30
0
70
128
71
231
72
232
73
230
0
VERTEX
8
SKIN02
10
0
20
0
30
0
70
128
71
230
72
232
73
233
0
VERTEX
8
SKIN02
10
0
20
0
30
0
70
128
71
232
72
234
73
233
0
VERTEX
8
SKIN02
10
0
20
0
30
0
70
128
71
233
72
234
73
235
0
VERTEX
8
SKIN02
10
0
20
0
30
0
70
128
71
237
72
230
73
236
0
VERTEX
8
SKIN02
10
0
20
0
30
0
70
128
71
231
72
230
73
237
0
VERTEX
8
SKIN02
10
0
20
0
30
0
70
128
71
230
72
233
73
236
0
VERTEX
8
SKIN02
10
0
20
0
30
0
70
128
71
238
72
228
73
236
0
VERTEX
8
SKIN02
10
0
20
0
30
0
70
128
71
233
72
238
73
236
0
VERTEX
8
SKIN02
10
0
20
0
30
0
70
128
71
228
72
238
73
229
0
VERTEX
8
SKIN02
10
0
20
0
30
0
70
128
71
233
72
235
73
238
0
VERTEX
8
SKIN02
10
0
20
0
30
0
70
128
71
232
72
231
73
239
0
VERTEX
8
SKIN02
10
0
20
0
30
0
70
128
71
240
72
232
73
239
0
VERTEX
8
SKIN02
10
0
20
0
30
0
70
128
71
234
72
232
73
240
0
VERTEX
8
SKIN02
10
0
20
0
30
0
70
128
71
234
72
240
73
241
0
VERTEX
8
SKIN02
10
0
20
0
30
0
70
128
71
240
72
227
73
241
0
VERTEX
8
SKIN02
10
0
20
0
30
0
70
128
71
235
72
234
73
241
0
VERTEX
8
SKIN02
10
0
20
0
30
0
70
128
71
227
72
226
73
241
0
VERTEX
8
SKIN02
10
0
20
0
30
0
70
128
71
243
72
244
73
242
0
VERTEX
8
SKIN02
10
0
20
0
30
0
70
128
71
245
72
244
73
243
0
VERTEX
8
SKIN02
10
0
20
0
30
0
70
128
71
244
72
245
73
246
0
VERTEX
8
SKIN02
10
0
20
0
30
0
70
128
71
247
72
244
73
246
0
VERTEX
8
SKIN02
10
0
20
0
30
0
70
128
71
249
72
250
73
248
0
VERTEX
8
SKIN02
10
0
20
0
30
0
70
128
71
250
72
251
73
248
0
VERTEX
8
SKIN02
10
0
20
0
30
0
70
128
71
248
72
251
73
252
0
VERTEX
8
SKIN02
10
0
20
0
30
0
70
128
71
251
72
253
73
252
0
VERTEX
8
SKIN02
10
0
20
0
30
0
70
128
71
254
72
253
73
251
0
VERTEX
8
SKIN02
10
0
20
0
30
0
70
128
71
256
72
257
73
255
0
VERTEX
8
SKIN02
10
0
20
0
30
0
70
128
71
257
72
256
73
258
0
VERTEX
8
SKIN02
10
0
20
0
30
0
70
128
71
248
72
243
73
249
0
VERTEX
8
SKIN02
10
0
20
0
30
0
70
128
71
243
72
248
73
245
0
VERTEX
8
SKIN02
10
0
20
0
30
0
70
128
71
245
72
248
73
246
0
VERTEX
8
SKIN02
10
0
20
0
30
0
70
128
71
252
72
246
73
248
0
VERTEX
8
SKIN02
10
0
20
0
30
0
70
128
71
250
72
244
73
251
0
VERTEX
8
SKIN02
10
0
20
0
30
0
70
128
71
242
72
244
73
250
0
VERTEX
8
SKIN02
10
0
20
0
30
0
70
128
71
237
72
252
73
231
0
VERTEX
8
SKIN02
10
0
20
0
30
0
70
128
71
252
72
253
73
231
0
VERTEX
8
SKIN02
10
0
20
0
30
0
70
128
71
247
72
239
73
253
0
VERTEX
8
SKIN02
10
0
20
0
30
0
70
128
71
239
72
231
73
253
0
VERTEX
8
SKIN02
10
0
20
0
30
0
70
128
71
239
72
247
73
259
0
VERTEX
8
SKIN02
10
0
20
0
30
0
70
128
71
261
72
262
73
260
0
VERTEX
8
SKIN02
10
0
20
0
30
0
70
128
71
263
72
261
73
260
0
VERTEX
8
SKIN02
10
0
20
0
30
0
70
128
71
263
72
264
73
261
0
VERTEX
8
SKIN02
10
0
20
0
30
0
70
128
71
265
72
261
73
264
0
VERTEX
8
SKIN02
10
0
20
0
30
0
70
128
71
261
72
265
73
262
0
VERTEX
8
SKIN02
10
0
20
0
30
0
70
128
71
262
72
265
73
266
0
VERTEX
8
SKIN02
10
0
20
0
30
0
70
128
71
262
72
266
73
260
0
VERTEX
8
SKIN02
10
0
20
0
30
0
70
128
71
260
72
266
73
267
0
VERTEX
8
SKIN02
10
0
20
0
30
0
70
128
71
241
72
268
73
235
0
VERTEX
8
SKIN02
10
0
20
0
30
0
70
128
71
269
72
229
73
225
0
VERTEX
8
SKIN02
10
0
20
0
30
0
70
128
71
238
72
270
73
229
0
VERTEX
8
SKIN02
10
0
20
0
30
0
70
128
71
272
72
235
73
271
0
VERTEX
8
SKIN02
10
0
20
0
30
0
70
128
71
270
72
238
73
235
0
VERTEX
8
SKIN02
10
0
20
0
30
0
70
128
71
267
72
264
73
263
0
VERTEX
8
SKIN02
10
0
20
0
30
0
70
128
71
260
72
267
73
263
0
VERTEX
8
SKIN02
10
0
20
0
30
0
70
128
71
264
72
267
73
247
0
VERTEX
8
SKIN02
10
0
20
0
30
0
70
128
71
244
72
247
73
267
0
VERTEX
8
SKIN02
10
0
20
0
30
0
70
128
71
251
72
244
73
267
0
VERTEX
8
SKIN02
10
0
20
0
30
0
70
128
71
267
72
266
73
251
0
VERTEX
8
SKIN02
10
0
20
0
30
0
70
128
71
264
72
247
73
265
0
VERTEX
8
SKIN02
10
0
20
0
30
0
70
128
71
254
72
265
73
247
0
VERTEX
8
SKIN02
10
0
20
0
30
0
70
128
71
254
72
247
73
253
0
VERTEX
8
SKIN02
10
0
20
0
30
0
70
128
71
265
72
254
73
266
0
VERTEX
8
SKIN02
10
0
20
0
30
0
70
128
71
254
72
251
73
266
0
VERTEX
8
SKIN02
10
0
20
0
30
0
70
128
71
246
72
252
73
237
0
VERTEX
8
SKIN02
10
0
20
0
30
0
70
128
71
246
72
259
73
247
0
VERTEX
8
SKIN02
10
0
20
0
30
0
70
128
71
237
72
259
73
246
0
VERTEX
8
SKIN02
10
0
20
0
30
0
70
128
71
273
72
274
73
259
0
VERTEX
8
SKIN02
10
0
20
0
30
0
70
128
71
239
72
259
73
274
0
VERTEX
8
SKIN02
10
0
20
0
30
0
70
128
71
273
72
227
73
274
0
VERTEX
8
SKIN02
10
0
20
0
30
0
70
128
71
228
72
227
73
273
0
VERTEX
8
SKIN02
10
0
20
0
30
0
70
128
71
237
72
273
73
259
0
VERTEX
8
SKIN02
10
0
20
0
30
0
70
128
71
236
72
273
73
237
0
VERTEX
8
SKIN02
10
0
20
0
30
0
70
128
71
236
72
228
73
273
0
VERTEX
8
SKIN02
10
0
20
0
30
0
70
128
71
240
72
274
73
227
0
VERTEX
8
SKIN02
10
0
20
0
30
0
70
128
71
239
72
274
73
240
0
VERTEX
8
SKIN02
10
0
20
0
30
0
70
128
71
271
72
235
73
268
0
VERTEX
8
SKIN02
10
0
20
0
30
0
70
128
71
242
72
257
73
243
0
VERTEX
8
SKIN02
10
0
20
0
30
0
70
128
71
258
72
243
73
257
0
VERTEX
8
SKIN02
10
0
20
0
30
0
70
128
71
249
72
256
73
250
0
VERTEX
8
SKIN02
10
0
20
0
30
0
70
128
71
255
72
250
73
256
0
VERTEX
8
SKIN02
10
0
20
0
30
0
70
128
71
250
72
255
73
242
0
VERTEX
8
SKIN02
10
0
20
0
30
0
70
128
71
257
72
242
73
255
0
VERTEX
8
SKIN02
10
0
20
0
30
0
70
128
71
243
72
258
73
249
0
VERTEX
8
SKIN02
10
0
20
0
30
0
70
128
71
256
72
249
73
258
0
VERTEX
8
SKIN02
10
0
20
0
30
0
70
128
71
275
72
268
73
44
0
VERTEX
8
SKIN02
10
0
20
0
30
0
70
128
71
268
72
43
73
44
0
VERTEX
8
SKIN02
10
0
20
0
30
0
70
128
71
224
72
43
73
268
0
VERTEX
8
SKIN02
10
0
20
0
30
0
70
128
71
269
72
225
73
224
0
VERTEX
8
SKIN02
10
0
20
0
30
0
70
128
71
269
72
224
73
268
0
VERTEX
8
SKIN02
10
0
20
0
30
0
70
128
71
268
72
241
73
269
0
VERTEX
8
SKIN02
10
0
20
0
30
0
70
128
71
241
72
226
73
269
0
VERTEX
8
SKIN02
10
0
20
0
30
0
70
128
71
229
72
269
73
226
0
VERTEX
8
SKIN02
10
0
20
0
30
0
70
128
71
270
72
225
73
229
0
VERTEX
8
SKIN02
10
0
20
0
30
0
70
128
71
223
72
276
73
272
0
VERTEX
8
SKIN02
10
0
20
0
30
0
70
128
71
270
72
235
73
272
0
VERTEX
8
SKIN02
10
0
20
0
30
0
70
128
71
272
72
271
73
275
0
VERTEX
8
SKIN02
10
0
20
0
30
0
70
128
71
271
72
268
73
275
0
VERTEX
8
SKIN02
10
0
20
0
30
0
70
128
71
16
72
272
73
44
0
VERTEX
8
SKIN02
10
0
20
0
30
0
70
128
71
272
72
275
73
44
0
VERTEX
8
SKIN02
10
0
20
0
30
0
70
128
71
276
72
223
73
225
0
VERTEX
8
SKIN02
10
0
20
0
30
0
70
128
71
16
72
223
73
272
0
VERTEX
8
SKIN02
10
0
20
0
30
0
70
128
71
270
72
276
73
225
0
VERTEX
8
SKIN02
10
0
20
0
30
0
70
128
71
276
72
270
73
272
0
VERTEX
8
SKIN02
10
0
20
0
30
0
70
128
71
181
72
182
73
183
0
VERTEX
8
SKIN02
10
0
20
0
30
0
70
128
71
184
72
183
73
182
0
VERTEX
8
SKIN02
10
0
20
0
30
0
70
128
71
185
72
186
73
187
0
VERTEX
8
SKIN02
10
0
20
0
30
0
70
128
71
185
72
188
73
186
0
VERTEX
8
SKIN02
10
0
20
0
30
0
70
128
71
189
72
190
73
185
0
VERTEX
8
SKIN02
10
0
20
0
30
0
70
128
71
185
72
190
73
188
0
VERTEX
8
SKIN02
10
0
20
0
30
0
70
128
71
190
72
183
73
188
0
VERTEX
8
SKIN02
10
0
20
0
30
0
70
128
71
183
72
190
73
181
0
VERTEX
8
SKIN02
10
0
20
0
30
0
70
128
71
188
72
183
73
186
0
VERTEX
8
SKIN02
10
0
20
0
30
0
70
128
71
187
72
191
73
185
0
VERTEX
8
SKIN02
10
0
20
0
30
0
70
128
71
191
72
192
73
185
0
VERTEX
8
SKIN02
10
0
20
0
30
0
70
128
71
185
72
192
73
193
0
VERTEX
8
SKIN02
10
0
20
0
30
0
70
128
71
189
72
185
73
193
0
VERTEX
8
SKIN02
10
0
20
0
30
0
70
128
71
191
72
182
73
192
0
VERTEX
8
SKIN02
10
0
20
0
30
0
70
128
71
192
72
182
73
193
0
VERTEX
8
SKIN02
10
0
20
0
30
0
70
128
71
182
72
181
73
193
0
VERTEX
8
SKIN02
10
0
20
0
30
0
70
128
71
187
72
67
73
191
0
VERTEX
8
SKIN02
10
0
20
0
30
0
70
128
71
191
72
67
73
66
0
VERTEX
8
SKIN02
10
0
20
0
30
0
70
128
71
186
72
72
73
67
0
VERTEX
8
SKIN02
10
0
20
0
30
0
70
128
71
67
72
187
73
186
0
VERTEX
8
SKIN02
10
0
20
0
30
0
70
128
71
69
72
191
73
66
0
VERTEX
8
SKIN02
10
0
20
0
30
0
70
128
71
72
72
186
73
68
0
VERTEX
8
SKIN02
10
0
20
0
30
0
70
128
71
194
72
184
73
182
0
VERTEX
8
SKIN02
10
0
20
0
30
0
70
128
71
184
72
194
73
68
0
VERTEX
8
SKIN02
10
0
20
0
30
0
70
128
71
68
72
194
73
69
0
VERTEX
8
SKIN02
10
0
20
0
30
0
70
128
71
194
72
191
73
69
0
VERTEX
8
SKIN02
10
0
20
0
30
0
70
128
71
194
72
182
73
191
0
VERTEX
8
SKIN02
10
0
20
0
30
0
70
128
71
184
72
68
73
186
0
VERTEX
8
SKIN02
10
0
20
0
30
0
70
128
71
184
72
186
73
183
0
VERTEX
8
SKIN02
10
0
20
0
30
0
70
128
71
189
72
195
73
190
0
VERTEX
8
SKIN02
10
0
20
0
30
0
70
128
71
189
72
196
73
195
0
VERTEX
8
SKIN02
10
0
20
0
30
0
70
128
71
181
72
197
73
193
0
VERTEX
8
SKIN02
10
0
20
0
30
0
70
128
71
193
72
197
73
198
0
VERTEX
8
SKIN02
10
0
20
0
30
0
70
128
71
197
72
181
73
190
0
VERTEX
8
SKIN02
10
0
20
0
30
0
70
128
71
190
72
195
73
197
0
VERTEX
8
SKIN02
10
0
20
0
30
0
70
128
71
198
72
189
73
193
0
VERTEX
8
SKIN02
10
0
20
0
30
0
70
128
71
196
72
189
73
198
0
VERTEX
8
SKIN02
10
0
20
0
30
0
70
128
71
199
72
200
73
201
0
VERTEX
8
SKIN02
10
0
20
0
30
0
70
128
71
202
72
200
73
199
0
VERTEX
8
SKIN02
10
0
20
0
30
0
70
128
71
203
72
204
73
205
0
VERTEX
8
SKIN02
10
0
20
0
30
0
70
128
71
205
72
204
73
206
0
VERTEX
8
SKIN02
10
0
20
0
30
0
70
128
71
202
72
207
73
200
0
VERTEX
8
SKIN02
10
0
20
0
30
0
70
128
71
200
72
207
73
208
0
VERTEX
8
SKIN02
10
0
20
0
30
0
70
128
71
209
72
210
73
207
0
VERTEX
8
SKIN02
10
0
20
0
30
0
70
128
71
211
72
212
73
213
0
VERTEX
8
SKIN02
10
0
20
0
30
0
70
128
71
204
72
212
73
206
0
VERTEX
8
SKIN02
10
0
20
0
30
0
70
128
71
200
72
208
73
211
0
VERTEX
8
SKIN02
10
0
20
0
30
0
70
128
71
205
72
207
73
203
0
VERTEX
8
SKIN02
10
0
20
0
30
0
70
128
71
207
72
205
73
208
0
VERTEX
8
SKIN02
10
0
20
0
30
0
70
128
71
206
72
212
73
211
0
VERTEX
8
SKIN02
10
0
20
0
30
0
70
128
71
207
72
204
73
203
0
VERTEX
8
SKIN02
10
0
20
0
30
0
70
128
71
210
72
204
73
207
0
VERTEX
8
SKIN02
10
0
20
0
30
0
70
128
71
212
72
204
73
210
0
VERTEX
8
SKIN02
10
0
20
0
30
0
70
128
71
213
72
212
73
210
0
VERTEX
8
SKIN02
10
0
20
0
30
0
70
128
71
214
72
201
73
200
0
VERTEX
8
SKIN02
10
0
20
0
30
0
70
128
71
201
72
214
73
215
0
VERTEX
8
SKIN02
10
0
20
0
30
0
70
128
71
215
72
199
73
201
0
VERTEX
8
SKIN02
10
0
20
0
30
0
70
128
71
209
72
199
73
215
0
VERTEX
8
SKIN02
10
0
20
0
30
0
70
128
71
209
72
202
73
199
0
VERTEX
8
SKIN02
10
0
20
0
30
0
70
128
71
208
72
206
73
211
0
VERTEX
8
SKIN02
10
0
20
0
30
0
70
128
71
206
72
208
73
205
0
VERTEX
8
SKIN02
10
0
20
0
30
0
70
128
71
214
72
211
73
213
0
VERTEX
8
SKIN02
10
0
20
0
30
0
70
128
71
214
72
200
73
211
0
VERTEX
8
SKIN02
10
0
20
0
30
0
70
128
71
202
72
209
73
207
0
VERTEX
8
SKIN02
10
0
20
0
30
0
70
128
71
210
72
209
73
213
0
VERTEX
8
SKIN02
10
0
20
0
30
0
70
128
71
196
72
215
73
195
0
VERTEX
8
SKIN02
10
0
20
0
30
0
70
128
71
215
72
214
73
195
0
VERTEX
8
SKIN02
10
0
20
0
30
0
70
128
71
195
72
214
73
197
0
VERTEX
8
SKIN02
10
0
20
0
30
0
70
128
71
213
72
197
73
214
0
VERTEX
8
SKIN02
10
0
20
0
30
0
70
128
71
197
72
213
73
209
0
VERTEX
8
SKIN02
10
0
20
0
30
0
70
128
71
197
72
209
73
198
0
VERTEX
8
SKIN02
10
0
20
0
30
0
70
128
71
215
72
198
73
209
0
VERTEX
8
SKIN02
10
0
20
0
30
0
70
128
71
215
72
196
73
198
0
VERTEX
8
SKIN02
10
0
20
0
30
0
70
128
71
277
72
278
73
279
0
VERTEX
8
SKIN02
10
0
20
0
30
0
70
128
71
280
72
279
73
278
0
VERTEX
8
SKIN02
10
0
20
0
30
0
70
128
71
281
72
282
73
283
0
VERTEX
8
SKIN02
10
0
20
0
30
0
70
128
71
281
72
283
73
284
0
VERTEX
8
SKIN02
10
0
20
0
30
0
70
128
71
285
72
281
73
286
0
VERTEX
8
SKIN02
10
0
20
0
30
0
70
128
71
281
72
284
73
286
0
VERTEX
8
SKIN02
10
0
20
0
30
0
70
128
71
286
72
284
73
278
0
VERTEX
8
SKIN02
10
0
20
0
30
0
70
128
71
278
72
277
73
286
0
VERTEX
8
SKIN02
10
0
20
0
30
0
70
128
71
284
72
283
73
278
0
VERTEX
8
SKIN02
10
0
20
0
30
0
70
128
71
282
72
281
73
287
0
VERTEX
8
SKIN02
10
0
20
0
30
0
70
128
71
287
72
281
73
288
0
VERTEX
8
SKIN02
10
0
20
0
30
0
70
128
71
281
72
289
73
288
0
VERTEX
8
SKIN02
10
0
20
0
30
0
70
128
71
285
72
289
73
281
0
VERTEX
8
SKIN02
10
0
20
0
30
0
70
128
71
287
72
288
73
279
0
VERTEX
8
SKIN02
10
0
20
0
30
0
70
128
71
288
72
289
73
279
0
VERTEX
8
SKIN02
10
0
20
0
30
0
70
128
71
279
72
289
73
277
0
VERTEX
8
SKIN02
10
0
20
0
30
0
70
128
71
282
72
287
73
5
0
VERTEX
8
SKIN02
10
0
20
0
30
0
70
128
71
287
72
4
73
5
0
VERTEX
8
SKIN02
10
0
20
0
30
0
70
128
71
283
72
5
73
11
0
VERTEX
8
SKIN02
10
0
20
0
30
0
70
128
71
5
72
283
73
282
0
VERTEX
8
SKIN02
10
0
20
0
30
0
70
128
71
7
72
4
73
287
0
VERTEX
8
SKIN02
10
0
20
0
30
0
70
128
71
11
72
6
73
283
0
VERTEX
8
SKIN02
10
0
20
0
30
0
70
128
71
290
72
279
73
280
0
VERTEX
8
SKIN02
10
0
20
0
30
0
70
128
71
280
72
6
73
290
0
VERTEX
8
SKIN02
10
0
20
0
30
0
70
128
71
6
72
7
73
290
0
VERTEX
8
SKIN02
10
0
20
0
30
0
70
128
71
290
72
7
73
287
0
VERTEX
8
SKIN02
10
0
20
0
30
0
70
128
71
290
72
287
73
279
0
VERTEX
8
SKIN02
10
0
20
0
30
0
70
128
71
280
72
283
73
6
0
VERTEX
8
SKIN02
10
0
20
0
30
0
70
128
71
280
72
278
73
283
0
VERTEX
8
SKIN02
10
0
20
0
30
0
70
128
71
285
72
286
73
291
0
VERTEX
8
SKIN02
10
0
20
0
30
0
70
128
71
285
72
291
73
292
0
VERTEX
8
SKIN02
10
0
20
0
30
0
70
128
71
277
72
289
73
293
0
VERTEX
8
SKIN02
10
0
20
0
30
0
70
128
71
289
72
294
73
293
0
VERTEX
8
SKIN02
10
0
20
0
30
0
70
128
71
293
72
286
73
277
0
VERTEX
8
SKIN02
10
0
20
0
30
0
70
128
71
286
72
293
73
291
0
VERTEX
8
SKIN02
10
0
20
0
30
0
70
128
71
294
72
289
73
285
0
VERTEX
8
SKIN02
10
0
20
0
30
0
70
128
71
292
72
294
73
285
0
VERTEX
8
SKIN02
10
0
20
0
30
0
70
128
71
295
72
296
73
297
0
VERTEX
8
SKIN02
10
0
20
0
30
0
70
128
71
298
72
295
73
297
0
VERTEX
8
SKIN02
10
0
20
0
30
0
70
128
71
299
72
300
73
301
0
VERTEX
8
SKIN02
10
0
20
0
30
0
70
128
71
300
72
302
73
301
0
VERTEX
8
SKIN02
10
0
20
0
30
0
70
128
71
298
72
297
73
303
0
VERTEX
8
SKIN02
10
0
20
0
30
0
70
128
71
297
72
304
73
303
0
VERTEX
8
SKIN02
10
0
20
0
30
0
70
128
71
305
72
303
73
306
0
VERTEX
8
SKIN02
10
0
20
0
30
0
70
128
71
307
72
308
73
309
0
VERTEX
8
SKIN02
10
0
20
0
30
0
70
128
71
301
72
302
73
309
0
VERTEX
8
SKIN02
10
0
20
0
30
0
70
128
71
297
72
307
73
304
0
VERTEX
8
SKIN02
10
0
20
0
30
0
70
128
71
300
72
299
73
303
0
VERTEX
8
SKIN02
10
0
20
0
30
0
70
128
71
303
72
304
73
300
0
VERTEX
8
SKIN02
10
0
20
0
30
0
70
128
71
302
72
307
73
309
0
VERTEX
8
SKIN02
10
0
20
0
30
0
70
128
71
303
72
299
73
301
0
VERTEX
8
SKIN02
10
0
20
0
30
0
70
128
71
306
72
303
73
301
0
VERTEX
8
SKIN02
10
0
20
0
30
0
70
128
71
309
72
306
73
301
0
VERTEX
8
SKIN02
10
0
20
0
30
0
70
128
71
308
72
306
73
309
0
VERTEX
8
SKIN02
10
0
20
0
30
0
70
128
71
310
72
297
73
296
0
VERTEX
8
SKIN02
10
0
20
0
30
0
70
128
71
296
72
311
73
310
0
VERTEX
8
SKIN02
10
0
20
0
30
0
70
128
71
311
72
296
73
295
0
VERTEX
8
SKIN02
10
0
20
0
30
0
70
128
71
305
72
311
73
295
0
VERTEX
8
SKIN02
10
0
20
0
30
0
70
128
71
305
72
295
73
298
0
VERTEX
8
SKIN02
10
0
20
0
30
0
70
128
71
304
72
307
73
302
0
VERTEX
8
SKIN02
10
0
20
0
30
0
70
128
71
302
72
300
73
304
0
VERTEX
8
SKIN02
10
0
20
0
30
0
70
128
71
310
72
308
73
307
0
VERTEX
8
SKIN02
10
0
20
0
30
0
70
128
71
310
72
307
73
297
0
VERTEX
8
SKIN02
10
0
20
0
30
0
70
128
71
298
72
303
73
305
0
VERTEX
8
SKIN02
10
0
20
0
30
0
70
128
71
306
72
308
73
305
0
VERTEX
8
SKIN02
10
0
20
0
30
0
70
128
71
292
72
291
73
311
0
VERTEX
8
SKIN02
10
0
20
0
30
0
70
128
71
311
72
291
73
310
0
VERTEX
8
SKIN02
10
0
20
0
30
0
70
128
71
291
72
293
73
310
0
VERTEX
8
SKIN02
10
0
20
0
30
0
70
128
71
308
72
310
73
293
0
VERTEX
8
SKIN02
10
0
20
0
30
0
70
128
71
293
72
305
73
308
0
VERTEX
8
SKIN02
10
0
20
0
30
0
70
128
71
293
72
294
73
305
0
VERTEX
8
SKIN02
10
0
20
0
30
0
70
128
71
311
72
305
73
294
0
VERTEX
8
SKIN02
10
0
20
0
30
0
70
128
71
311
72
294
73
292
0
VERTEX
8
SKIN02
10
0
20
0
30
0
70
128
71
312
72
313
73
314
0
VERTEX
8
SKIN02
10
0
20
0
30
0
70
128
71
312
72
315
73
313
0
VERTEX
8
SKIN02
10
0
20
0
30
0
70
128
71
312
72
316
73
315
0
VERTEX
8
SKIN02
10
0
20
0
30
0
70
128
71
317
72
316
73
312
0
VERTEX
8
SKIN02
10
0
20
0
30
0
70
128
71
317
72
318
73
316
0
VERTEX
8
SKIN02
10
0
20
0
30
0
70
128
71
319
72
318
73
317
0
VERTEX
8
SKIN02
10
0
20
0
30
0
70
128
71
318
72
319
73
320
0
VERTEX
8
SKIN02
10
0
20
0
30
0
70
128
71
320
72
321
73
318
0
VERTEX
8
SKIN02
10
0
20
0
30
0
70
128
71
320
72
322
73
321
0
VERTEX
8
SKIN02
10
0
20
0
30
0
70
128
71
323
72
322
73
320
0
VERTEX
8
SKIN02
10
0
20
0
30
0
70
128
71
314
72
322
73
323
0
VERTEX
8
SKIN02
10
0
20
0
30
0
70
128
71
322
72
314
73
313
0
VERTEX
8
SKIN02
10
0
20
0
30
0
70
128
71
324
72
325
73
326
0
VERTEX
8
SKIN02
10
0
20
0
30
0
70
128
71
327
72
328
73
329
0
VERTEX
8
SKIN02
10
0
20
0
30
0
70
128
71
330
72
331
73
332
0
VERTEX
8
SKIN02
10
0
20
0
30
0
70
128
71
330
72
332
73
333
0
VERTEX
8
SKIN02
10
0
20
0
30
0
70
128
71
333
72
332
73
334
0
VERTEX
8
SKIN02
10
0
20
0
30
0
70
128
71
333
72
334
73
335
0
VERTEX
8
SKIN02
10
0
20
0
30
0
70
128
71
335
72
334
73
336
0
VERTEX
8
SKIN02
10
0
20
0
30
0
70
128
71
335
72
336
73
337
0
VERTEX
8
SKIN02
10
0
20
0
30
0
70
128
71
337
72
336
73
338
0
VERTEX
8
SKIN02
10
0
20
0
30
0
70
128
71
337
72
338
73
339
0
VERTEX
8
SKIN02
10
0
20
0
30
0
70
128
71
325
72
340
73
326
0
VERTEX
8
SKIN02
10
0
20
0
30
0
70
128
71
341
72
327
73
329
0
VERTEX
8
SKIN02
10
0
20
0
30
0
70
128
71
342
72
330
73
333
0
VERTEX
8
SKIN02
10
0
20
0
30
0
70
128
71
333
72
343
73
342
0
VERTEX
8
SKIN02
10
0
20
0
30
0
70
128
71
343
72
333
73
335
0
VERTEX
8
SKIN02
10
0
20
0
30
0
70
128
71
343
72
335
73
337
0
VERTEX
8
SKIN02
10
0
20
0
30
0
70
128
71
343
72
337
73
339
0
VERTEX
8
SKIN02
10
0
20
0
30
0
70
128
71
339
72
344
73
343
0
VERTEX
8
SKIN02
10
0
20
0
30
0
70
128
71
326
72
342
73
345
0
VERTEX
8
SKIN02
10
0
20
0
30
0
70
128
71
343
72
345
73
342
0
VERTEX
8
SKIN02
10
0
20
0
30
0
70
128
71
346
72
329
73
347
0
VERTEX
8
SKIN02
10
0
20
0
30
0
70
128
71
347
72
348
73
346
0
VERTEX
8
SKIN02
10
0
20
0
30
0
70
128
71
348
72
347
73
349
0
VERTEX
8
SKIN02
10
0
20
0
30
0
70
128
71
346
72
332
73
331
0
VERTEX
8
SKIN02
10
0
20
0
30
0
70
128
71
348
72
332
73
346
0
VERTEX
8
SKIN02
10
0
20
0
30
0
70
128
71
348
72
334
73
332
0
VERTEX
8
SKIN02
10
0
20
0
30
0
70
128
71
348
72
336
73
334
0
VERTEX
8
SKIN02
10
0
20
0
30
0
70
128
71
336
72
348
73
349
0
VERTEX
8
SKIN02
10
0
20
0
30
0
70
128
71
349
72
338
73
336
0
VERTEX
8
SKIN02
10
0
20
0
30
0
70
128
71
344
72
350
73
345
0
VERTEX
8
SKIN02
10
0
20
0
30
0
70
128
71
339
72
351
73
344
0
VERTEX
8
SKIN02
10
0
20
0
30
0
70
128
71
349
72
347
73
352
0
VERTEX
8
SKIN02
10
0
20
0
30
0
70
128
71
351
72
339
73
338
0
VERTEX
8
SKIN02
10
0
20
0
30
0
70
128
71
338
72
353
73
351
0
VERTEX
8
SKIN02
10
0
20
0
30
0
70
128
71
354
72
355
73
356
0
VERTEX
8
SKIN02
10
0
20
0
30
0
70
128
71
355
72
354
73
357
0
VERTEX
8
SKIN02
10
0
20
0
30
0
70
128
71
318
72
351
73
353
0
VERTEX
8
SKIN02
10
0
20
0
30
0
70
128
71
353
72
316
73
318
0
VERTEX
8
SKIN02
10
0
20
0
30
0
70
128
71
358
72
341
73
340
0
VERTEX
8
SKIN02
10
0
20
0
30
0
70
128
71
358
72
340
73
359
0
VERTEX
8
SKIN02
10
0
20
0
30
0
70
128
71
325
72
359
73
340
0
VERTEX
8
SKIN02
10
0
20
0
30
0
70
128
71
357
72
360
73
361
0
VERTEX
8
SKIN02
10
0
20
0
30
0
70
128
71
362
72
355
73
363
0
VERTEX
8
SKIN02
10
0
20
0
30
0
70
128
71
327
72
341
73
358
0
VERTEX
8
SKIN02
10
0
20
0
30
0
70
128
71
344
72
345
73
343
0
VERTEX
8
SKIN02
10
0
20
0
30
0
70
128
71
315
72
352
73
328
0
VERTEX
8
SKIN02
10
0
20
0
30
0
70
128
71
324
72
350
73
321
0
VERTEX
8
SKIN02
10
0
20
0
30
0
70
128
71
353
72
338
73
349
0
VERTEX
8
SKIN02
10
0
20
0
30
0
70
128
71
352
72
353
73
349
0
VERTEX
8
SKIN02
10
0
20
0
30
0
70
128
71
352
72
316
73
353
0
VERTEX
8
SKIN02
10
0
20
0
30
0
70
128
71
351
72
350
73
344
0
VERTEX
8
SKIN02
10
0
20
0
30
0
70
128
71
318
72
350
73
351
0
VERTEX
8
SKIN02
10
0
20
0
30
0
70
128
71
357
72
364
73
355
0
VERTEX
8
SKIN02
10
0
20
0
30
0
70
128
71
361
72
364
73
357
0
VERTEX
8
SKIN02
10
0
20
0
30
0
70
128
71
364
72
361
73
363
0
VERTEX
8
SKIN02
10
0
20
0
30
0
70
128
71
364
72
363
73
355
0
VERTEX
8
SKIN02
10
0
20
0
30
0
70
128
71
324
72
326
73
345
0
VERTEX
8
SKIN02
10
0
20
0
30
0
70
128
71
350
72
324
73
345
0
VERTEX
8
SKIN02
10
0
20
0
30
0
70
128
71
329
72
328
73
347
0
VERTEX
8
SKIN02
10
0
20
0
30
0
70
128
71
347
72
328
73
352
0
VERTEX
8
SKIN02
10
0
20
0
30
0
70
128
71
352
72
315
73
316
0
VERTEX
8
SKIN02
10
0
20
0
30
0
70
128
71
350
72
318
73
321
0
VERTEX
8
SKIN02
10
0
20
0
30
0
70
128
71
365
72
354
73
356
0
VERTEX
8
SKIN02
10
0
20
0
30
0
70
128
71
356
72
366
73
365
0
VERTEX
8
SKIN02
10
0
20
0
30
0
70
128
71
366
72
358
73
365
0
VERTEX
8
SKIN02
10
0
20
0
30
0
70
128
71
359
72
365
73
358
0
VERTEX
8
SKIN02
10
0
20
0
30
0
70
128
71
367
72
358
73
366
0
VERTEX
8
SKIN02
10
0
20
0
30
0
70
128
71
367
72
327
73
358
0
VERTEX
8
SKIN02
10
0
20
0
30
0
70
128
71
367
72
362
73
328
0
VERTEX
8
SKIN02
10
0
20
0
30
0
70
128
71
327
72
367
73
328
0
VERTEX
8
SKIN02
10
0
20
0
30
0
70
128
71
325
72
368
73
359
0
VERTEX
8
SKIN02
10
0
20
0
30
0
70
128
71
368
72
325
73
324
0
VERTEX
8
SKIN02
10
0
20
0
30
0
70
128
71
360
72
368
73
324
0
VERTEX
8
SKIN02
10
0
20
0
30
0
70
128
71
360
72
357
73
354
0
VERTEX
8
SKIN02
10
0
20
0
30
0
70
128
71
365
72
368
73
354
0
VERTEX
8
SKIN02
10
0
20
0
30
0
70
128
71
368
72
360
73
354
0
VERTEX
8
SKIN02
10
0
20
0
30
0
70
128
71
355
72
362
73
356
0
VERTEX
8
SKIN02
10
0
20
0
30
0
70
128
71
362
72
367
73
356
0
VERTEX
8
SKIN02
10
0
20
0
30
0
70
128
71
356
72
367
73
366
0
VERTEX
8
SKIN02
10
0
20
0
30
0
70
128
71
363
72
313
73
315
0
VERTEX
8
SKIN02
10
0
20
0
30
0
70
128
71
313
72
363
73
322
0
VERTEX
8
SKIN02
10
0
20
0
30
0
70
128
71
322
72
363
73
361
0
VERTEX
8
SKIN02
10
0
20
0
30
0
70
128
71
361
72
321
73
322
0
VERTEX
8
SKIN02
10
0
20
0
30
0
70
128
71
369
72
362
73
363
0
VERTEX
8
SKIN02
10
0
20
0
30
0
70
128
71
315
72
369
73
363
0
VERTEX
8
SKIN02
10
0
20
0
30
0
70
128
71
369
72
315
73
328
0
VERTEX
8
SKIN02
10
0
20
0
30
0
70
128
71
362
72
369
73
328
0
VERTEX
8
SKIN02
10
0
20
0
30
0
70
128
71
360
72
370
73
361
0
VERTEX
8
SKIN02
10
0
20
0
30
0
70
128
71
370
72
360
73
324
0
VERTEX
8
SKIN02
10
0
20
0
30
0
70
128
71
321
72
370
73
324
0
VERTEX
8
SKIN02
10
0
20
0
30
0
70
128
71
370
72
321
73
361
0
VERTEX
8
SKIN02
10
0
20
0
30
0
70
128
71
331
72
340
73
341
0
VERTEX
8
SKIN02
10
0
20
0
30
0
70
128
71
330
72
340
73
331
0
VERTEX
8
SKIN02
10
0
20
0
30
0
70
128
71
346
72
331
73
341
0
VERTEX
8
SKIN02
10
0
20
0
30
0
70
128
71
329
72
346
73
341
0
VERTEX
8
SKIN02
10
0
20
0
30
0
70
128
71
330
72
342
73
340
0
VERTEX
8
SKIN02
10
0
20
0
30
0
70
128
71
342
72
326
73
340
0
VERTEX
8
SKIN02
10
0
20
0
30
0
70
128
71
368
72
365
73
359
0
SEQEND
8
SKIN02
0
POLYLINE
8
GIGN01
66
1
70
64
71
373
72
740
62
81
0
VERTEX
8
GIGN01
10
0.338938
20
2.477213
30
1.118053
70
192
0
VERTEX
8
GIGN01
10
1.918045
20
0.036969
30
2.591400
70
192
0
VERTEX
8
GIGN01
10
1.935224
20
-3.012757
30
1.443993
70
192
0
VERTEX
8
GIGN01
10
1.934747
20
-3.000037
30
-1.262936
70
192
0
VERTEX
8
GIGN01
10
1.888965
20
0.050318
30
-2.474827
70
192
0
VERTEX
8
GIGN01
10
0.326329
20
2.499025
30
-0.918755
70
192
0
VERTEX
8
GIGN01
10
4.767753
20
3.870843
30
-1.860088
70
192
0
VERTEX
8
GIGN01
10
4.779542
20
3.890067
30
1.895069
70
192
0
VERTEX
8
GIGN01
10
2.757005
20
3.756830
30
1.769516
70
192
0
VERTEX
8
GIGN01
10
2.764204
20
3.740512
30
-1.586250
70
192
0
VERTEX
8
GIGN01
10
0.244168
20
3.174178
30
-0.988697
70
192
0
VERTEX
8
GIGN01
10
0.244184
20
3.174101
30
1.180546
70
192
0
VERTEX
8
GIGN01
10
5.111686
20
2.925190
30
-2.397541
70
192
0
VERTEX
8
GIGN01
10
3.028706
20
0.152968
30
-2.854141
70
192
0
VERTEX
8
GIGN01
10
4.980103
20
0.902764
30
-3.218708
70
192
0
VERTEX
8
GIGN01
10
3.893417
20
2.283981
30
-2.701019
70
192
0
VERTEX
8
GIGN01
10
5.109055
20
2.925153
30
2.572987
70
192
0
VERTEX
8
GIGN01
10
4.977447
20
0.890139
30
3.400845
70
192
0
VERTEX
8
GIGN01
10
2.995704
20
0.149386
30
3.037647
70
192
0
VERTEX
8
GIGN01
10
3.877525
20
2.296727
30
2.878548
70
192
0
VERTEX
8
GIGN01
10
4.765605
20
4.317066
30
0.473332
70
192
0
VERTEX
8
GIGN01
10
7.541067
20
4.233479
30
-1.287147
70
192
0
VERTEX
8
GIGN01
10
9.228400
20
2.689594
30
-1.426185
70
192
0
VERTEX
8
GIGN01
10
9.528548
20
0.111782
30
-1.426181
70
192
0
VERTEX
8
GIGN01
10
8.866202
20
-2.553670
30
-1.440921
70
192
0
VERTEX
8
GIGN01
10
6.602026
20
-3.727132
30
-1.448265
70
192
0
VERTEX
8
GIGN01
10
6.615259
20
-3.727123
30
1.556858
70
192
0
VERTEX
8
GIGN01
10
8.882380
20
-2.589303
30
1.556858
70
192
0
VERTEX
8
GIGN01
10
9.532250
20
0.091173
30
1.600541
70
192
0
VERTEX
8
GIGN01
10
9.226167
20
2.684693
30
1.600487
70
192
0
VERTEX
8
GIGN01
10
7.541483
20
4.362189
30
1.600479
70
192
0
VERTEX
8
GIGN01
10
5.558634
20
4.732566
30
1.224377
70
192
0
VERTEX
8
GIGN01
10
5.558607
20
4.732656
30
-1.171745
70
192
0
VERTEX
8
GIGN01
10
7.291206
20
2.586520
30
-2.411056
70
192
0
VERTEX
8
GIGN01
10
7.976334
20
-0.199904
30
-2.959110
70
192
0
VERTEX
8
GIGN01
10
5.763840
20
-1.872156
30
-2.727478
70
192
0
VERTEX
8
GIGN01
10
7.291260
20
2.720156
30
2.739475
70
192
0
VERTEX
8
GIGN01
10
5.880310
20
-1.859409
30
2.865326
70
192
0
VERTEX
8
GIGN01
10
7.924026
20
-0.195594
30
3.280094
70
192
0
VERTEX
8
GIGN01
10
3.888140
20
-3.536194
30
-1.435032
70
192
0
VERTEX
8
GIGN01
10
3.888136
20
-3.548912
30
1.543614
70
192
0
VERTEX
8
GIGN01
10
5.202244
20
4.613503
30
-0.112671
70
192
0
VERTEX
8
GIGN01
10
5.215488
20
4.600775
30
0.244766
70
192
0
VERTEX
8
GIGN01
10
3.332886
20
5.204915
30
-0.217125
70
192
0
VERTEX
8
GIGN01
10
3.332885
20
5.204916
30
0.405083
70
192
0
VERTEX
8
GIGN01
10
2.822606
20
4.597571
30
-0.488636
70
192
0
VERTEX
8
GIGN01
10
2.829898
20
4.593809
30
0.669834
70
192
0
VERTEX
8
GIGN01
10
4.779782
20
4.317062
30
-0.327080
70
192
0
VERTEX
8
GIGN01
10
0.404094
20
4.315676
30
0.088406
70
192
0
VERTEX
8
GIGN01
10
4.213654
20
4.952249
30
-0.190643
70
192
0
VERTEX
8
GIGN01
10
4.213653
20
4.952251
30
0.365368
70
192
0
VERTEX
8
GIGN01
10
3.930053
20
3.765670
30
-1.827331
70
192
0
VERTEX
8
GIGN01
10
3.897187
20
3.744736
30
1.889629
70
192
0
VERTEX
8
GIGN01
10
1.888634
20
2.479519
30
2.324596
70
192
0
VERTEX
8
GIGN01
10
1.875407
20
2.492296
30
-2.070496
70
192
0
VERTEX
8
GIGN01
10
2.674807
20
2.861295
30
-5.298431
70
192
0
VERTEX
8
GIGN01
10
2.740873
20
2.855569
30
5.251026
70
192
0
VERTEX
8
GIGN01
10
5.629274
20
5.493237
30
-6.629845
70
192
0
VERTEX
8
GIGN01
10
5.704703
20
5.467750
30
6.567184
70
192
0
VERTEX
8
GIGN01
10
-6.646729
20
6.579683
30
0.033901
70
192
0
VERTEX
8
GIGN01
10
-6.473700
20
5.365712
30
-4.802102
70
192
0
VERTEX
8
GIGN01
10
-6.459431
20
5.355361
30
5.314052
70
192
0
VERTEX
8
GIGN01
10
5.275829
20
6.866488
30
0.029926
70
192
0
VERTEX
8
GIGN01
10
2.587579
20
-3.419763
30
5.655197
70
192
0
VERTEX
8
GIGN01
10
3.258949
20
-5.140135
30
-0.003174
70
192
0
VERTEX
8
GIGN01
10
2.596324
20
-3.455134
30
-5.807293
70
192
0
VERTEX
8
GIGN01
10
1.475926
20
-4.773501
30
-6.159054
70
192
0
VERTEX
8
GIGN01
10
2.134087
20
-6.422053
30
0.010063
70
192
0
VERTEX
8
GIGN01
10
1.475902
20
-4.773464
30
6.126209
70
192
0
VERTEX
8
GIGN01
10
2.205490
20
-3.804326
30
5.082760
70
192
0
VERTEX
8
GIGN01
10
2.329319
20
-6.549472
30
0.004410
70
192
0
VERTEX
8
GIGN01
10
2.188713
20
-3.805036
30
-5.221172
70
192
0
VERTEX
8
GIGN01
10
2.536333
20
-0.049650
30
7.192905
70
192
0
VERTEX
8
GIGN01
10
2.535906
20
-0.062342
30
-7.130497
70
192
0
VERTEX
8
GIGN01
10
3.411501
20
-3.519025
30
-1.468639
70
192
0
VERTEX
8
GIGN01
10
3.411493
20
-3.519014
30
1.533146
70
192
0
VERTEX
8
GIGN01
10
3.607605
20
-0.632517
30
2.766320
70
192
0
VERTEX
8
GIGN01
10
3.134318
20
3.024243
30
1.078423
70
192
0
VERTEX
8
GIGN01
10
3.133024
20
2.976830
30
-1.017887
70
192
0
VERTEX
8
GIGN01
10
3.545170
20
-0.445196
30
-2.716388
70
192
0
VERTEX
8
GIGN01
10
0.930448
20
5.435761
30
-3.578163
70
192
0
VERTEX
8
GIGN01
10
0.921641
20
5.491285
30
3.471912
70
192
0
VERTEX
8
GIGN01
10
1.796370
20
-0.240800
30
6.442715
70
192
0
VERTEX
8
GIGN01
10
1.517086
20
-5.436984
30
2.577976
70
192
0
VERTEX
8
GIGN01
10
1.517066
20
-5.436993
30
-2.481136
70
192
0
VERTEX
8
GIGN01
10
1.798123
20
-0.310040
30
-6.461445
70
192
0
VERTEX
8
GIGN01
10
-0.523182
20
5.879675
30
2.778763
70
192
0
VERTEX
8
GIGN01
10
-0.523167
20
5.879671
30
-2.841316
70
192
0
VERTEX
8
GIGN01
10
5.898183
20
-0.182927
30
-3.637405
70
192
0
VERTEX
8
GIGN01
10
3.810222
20
4.003561
30
-2.335377
70
192
0
VERTEX
8
GIGN01
10
5.968063
20
-3.530010
30
-2.741352
70
192
0
VERTEX
8
GIGN01
10
4.032658
20
-3.428867
30
-3.041095
70
192
0
VERTEX
8
GIGN01
10
3.170494
20
3.164792
30
-2.589802
70
192
0
VERTEX
8
GIGN01
10
5.231201
20
-4.991230
30
0.031227
70
192
0
VERTEX
8
GIGN01
10
5.860297
20
-0.182904
30
3.641506
70
192
0
VERTEX
8
GIGN01
10
5.968048
20
-3.604928
30
2.853756
70
192
0
VERTEX
8
GIGN01
10
3.806420
20
3.991069
30
2.191605
70
192
0
VERTEX
8
GIGN01
10
4.083263
20
-3.378774
30
3.153488
70
192
0
VERTEX
8
GIGN01
10
3.453756
20
-0.275637
30
-5.299599
70
192
0
VERTEX
8
GIGN01
10
3.471071
20
-0.278065
30
5.254154
70
192
0
VERTEX
8
GIGN01
10
3.746159
20
-0.198505
30
3.348656
70
192
0
VERTEX
8
GIGN01
10
3.746170
20
-0.323424
30
-3.434837
70
192
0
VERTEX
8
GIGN01
10
3.110238
20
-3.788754
30
3.313141
70
192
0
VERTEX
8
GIGN01
10
2.935455
20
-3.556758
30
-3.582581
70
192
0
VERTEX
8
GIGN01
10
0.879671
20
7.590841
30
-4.328773
70
192
0
VERTEX
8
GIGN01
10
0.904645
20
8.402646
30
-0.594540
70
192
0
VERTEX
8
GIGN01
10
-6.542393
20
7.795293
30
-0.655735
70
192
0
VERTEX
8
GIGN01
10
-6.415397
20
6.993484
30
-4.202633
70
192
0
VERTEX
8
GIGN01
10
1.416698
20
6.841507
30
0.017429
70
192
0
VERTEX
8
GIGN01
10
1.441687
20
5.729961
30
-4.940731
70
192
0
VERTEX
8
GIGN01
10
-5.712859
20
4.184692
30
-0.040863
70
192
0
VERTEX
8
GIGN01
10
0.754779
20
7.778193
30
0.467033
70
192
0
VERTEX
8
GIGN01
10
-6.370203
20
7.506449
30
0.530731
70
192
0
VERTEX
8
GIGN01
10
0.754772
20
7.653117
30
2.702511
70
192
0
VERTEX
8
GIGN01
10
-6.288990
20
7.392871
30
2.703830
70
192
0
VERTEX
8
GIGN01
10
1.441673
20
6.604060
30
2.952293
70
192
0
VERTEX
8
GIGN01
10
1.680599
20
6.287995
30
2.953625
70
192
0
VERTEX
8
GIGN01
10
1.441673
20
5.792294
30
5.687332
70
192
0
VERTEX
8
GIGN01
10
-6.333086
20
7.272089
30
3.578068
70
192
0
VERTEX
8
GIGN01
10
0.754771
20
7.540722
30
3.639168
70
192
0
VERTEX
8
GIGN01
10
0.754768
20
6.853844
30
5.687332
70
192
0
VERTEX
8
GIGN01
10
-6.163960
20
6.603419
30
5.563831
70
192
0
VERTEX
8
GIGN01
10
5.101058
20
8.090429
30
1.266308
70
192
0
VERTEX
8
GIGN01
10
5.113465
20
7.341089
30
4.813244
70
192
0
VERTEX
8
GIGN01
10
2.003678
20
7.340904
30
4.813114
70
192
0
VERTEX
8
GIGN01
10
2.003683
20
8.090221
30
1.266304
70
192
0
VERTEX
8
GIGN01
10
5.518821
20
5.815763
30
5.807728
70
192
0
VERTEX
8
GIGN01
10
-0.238400
20
0.178456
30
8.388020
70
192
0
VERTEX
8
GIGN01
10
-1.080165
20
-3.858697
30
-0.688042
70
192
0
VERTEX
8
GIGN01
10
-0.285753
20
3.718323
30
0.650452
70
192
0
VERTEX
8
GIGN01
10
-0.268112
20
0.184669
30
-8.380424
70
192
0
VERTEX
8
GIGN01
10
-1.125440
20
-3.870442
30
0.728496
70
192
0
VERTEX
8
GIGN01
10
0.353514
20
0.906601
30
3.147514
70
192
0
VERTEX
8
GIGN01
10
-6.327174
20
-1.669200
30
-3.736813
70
192
0
VERTEX
8
GIGN01
10
-1.354997
20
-4.954687
30
-0.059258
70
192
0
VERTEX
8
GIGN01
10
-2.496661
20
5.297254
30
0.839424
70
192
0
VERTEX
8
GIGN01
10
-3.390723
20
-3.961174
30
0.215496
70
192
0
VERTEX
8
GIGN01
10
-1.535346
20
0.734033
30
3.598171
70
192
0
VERTEX
8
GIGN01
10
-3.715241
20
-4.010418
30
-3.733196
70
192
0
VERTEX
8
GIGN01
10
-0.807427
20
-4.960916
30
-0.031231
70
192
0
VERTEX
8
GIGN01
10
1.754192
20
3.071704
30
1.051109
70
192
0
VERTEX
8
GIGN01
10
-0.762008
20
2.463648
30
-1.121987
70
192
0
VERTEX
8
GIGN01
10
-0.388596
20
2.463645
30
1.345585
70
192
0
VERTEX
8
GIGN01
10
-8.348778
20
2.770750
30
1.004585
70
192
0
VERTEX
8
GIGN01
10
0.000001
20
-4.701850
30
-0.261139
70
192
0
VERTEX
8
GIGN01
10
-3.258900
20
-4.698832
30
0.629352
70
192
0
VERTEX
8
GIGN01
10
-7.516941
20
-5.012619
30
0.544136
70
192
0
VERTEX
8
GIGN01
10
-14.596242
20
0.753559
30
5.632984
70
192
0
VERTEX
8
GIGN01
10
-1.650705
20
-0.664847
30
3.167038
70
192
0
VERTEX
8
GIGN01
10
-7.613550
20
-0.494968
30
4.406620
70
192
0
VERTEX
8
GIGN01
10
-8.356471
20
-0.828760
30
-2.558194
70
192
0
VERTEX
8
GIGN01
10
-2.497834
20
-0.664841
30
-2.909340
70
192
0
VERTEX
8
GIGN01
10
-15.614302
20
0.753688
30
-1.412762
70
192
0
VERTEX
8
GIGN01
10
-11.426179
20
0.641167
30
-2.676407
70
192
0
VERTEX
8
GIGN01
10
-10.057382
20
-4.217107
30
1.193092
70
192
0
VERTEX
8
GIGN01
10
-9.582630
20
5.584508
30
3.265895
70
192
0
VERTEX
8
GIGN01
10
-10.721108
20
5.584513
30
-0.409268
70
192
0
VERTEX
8
GIGN01
10
-8.412358
20
0.753562
30
5.312500
70
192
0
VERTEX
8
GIGN01
10
-11.044160
20
-0.762125
30
-0.921189
70
192
0
VERTEX
8
GIGN01
10
-10.713403
20
1.834585
30
1.432567
70
192
0
VERTEX
8
GIGN01
10
-10.497776
20
-0.976106
30
3.581867
70
192
0
VERTEX
8
GIGN01
10
-10.254090
20
-4.355899
30
1.198707
70
192
0
VERTEX
8
GIGN01
10
1.416998
20
3.071706
30
-1.741756
70
192
0
VERTEX
8
GIGN01
10
0.349897
20
0.906699
30
-3.286640
70
192
0
VERTEX
8
GIGN01
10
-6.336400
20
-1.669191
30
3.669349
70
192
0
VERTEX
8
GIGN01
10
-1.354983
20
-4.954685
30
-0.003201
70
192
0
VERTEX
8
GIGN01
10
-2.507696
20
5.297306
30
-0.911560
70
192
0
VERTEX
8
GIGN01
10
-3.399932
20
-3.961175
30
-0.287560
70
192
0
VERTEX
8
GIGN01
10
-1.546369
20
0.734077
30
-3.670265
70
192
0
VERTEX
8
GIGN01
10
-3.715245
20
-4.010411
30
3.666103
70
192
0
VERTEX
8
GIGN01
10
3.150328
20
2.131099
30
-5.360378
70
192
0
VERTEX
8
GIGN01
10
3.208429
20
2.144609
30
5.372963
70
192
0
VERTEX
8
GIGN01
10
3.022173
20
-2.464684
30
5.369518
70
192
0
VERTEX
8
GIGN01
10
3.047716
20
-2.527621
30
-5.408234
70
192
0
VERTEX
8
GIGN01
10
3.896979
20
-0.294174
30
-5.361549
70
192
0
VERTEX
8
GIGN01
10
3.920171
20
-0.278603
30
5.380375
70
192
0
VERTEX
8
GIGN01
10
3.179485
20
2.952498
30
-3.268166
70
192
0
VERTEX
8
GIGN01
10
3.184895
20
3.035814
30
3.159599
70
192
0
VERTEX
8
GIGN01
10
4.234951
20
-0.196720
30
3.439404
70
192
0
VERTEX
8
GIGN01
10
4.221694
20
-0.344123
30
-3.501121
70
192
0
VERTEX
8
GIGN01
10
3.473820
20
-3.044968
30
3.389466
70
192
0
VERTEX
8
GIGN01
10
3.410976
20
-3.025830
30
-3.652843
70
192
0
VERTEX
8
GIGN01
10
4.986240
20
5.300678
30
0.032902
70
192
0
VERTEX
8
GIGN01
10
5.634373
20
6.493073
30
0.004872
70
192
0
VERTEX
8
GIGN01
10
3.957311
20
-0.382123
30
-3.488994
70
192
0
VERTEX
8
GIGN01
10
3.145432
20
3.164800
30
2.605591
70
192
0
VERTEX
8
GIGN01
10
3.969787
20
-0.344634
30
3.355019
70
192
0
VERTEX
8
GIGN01
10
2.935477
20
2.662738
30
-2.914455
70
192
0
VERTEX
8
GIGN01
10
2.991326
20
2.746094
30
2.869419
70
192
0
VERTEX
8
GIGN01
10
1.326758
20
3.035538
30
-2.848618
70
192
0
VERTEX
8
GIGN01
10
-0.878076
20
3.035684
30
-2.913692
70
192
0
VERTEX
8
GIGN01
10
1.123993
20
3.159025
30
-1.033878
70
192
0
VERTEX
8
GIGN01
10
-1.480095
20
3.162080
30
-0.918533
70
192
0
VERTEX
8
GIGN01
10
-1.059433
20
-2.621305
30
-8.740257
70
192
0
VERTEX
8
GIGN01
10
0.897615
20
-3.259159
30
-5.146427
70
192
0
VERTEX
8
GIGN01
10
-0.158336
20
-2.929939
30
-1.713219
70
192
0
VERTEX
8
GIGN01
10
-0.731719
20
-3.107857
30
-5.081116
70
192
0
VERTEX
8
GIGN01
10
-0.747095
20
-2.361180
30
-1.646420
70
192
0
VERTEX
8
GIGN01
10
-2.765475
20
-0.043280
30
-10.019108
70
192
0
VERTEX
8
GIGN01
10
-2.408838
20
-0.004419
30
-2.246945
70
192
0
VERTEX
8
GIGN01
10
-2.459217
20
-0.521876
30
-0.975933
70
192
0
VERTEX
8
GIGN01
10
2.741311
20
0.039208
30
-1.115581
70
192
0
VERTEX
8
GIGN01
10
3.156260
20
-0.102345
30
-2.783070
70
192
0
VERTEX
8
GIGN01
10
2.768225
20
-0.293978
30
-10.352314
70
192
0
VERTEX
8
GIGN01
10
-1.671592
20
1.191403
30
-1.101776
70
192
0
VERTEX
8
GIGN01
10
0.673369
20
1.584582
30
-2.928318
70
192
0
VERTEX
8
GIGN01
10
2.213550
20
1.522770
30
-2.982052
70
192
0
VERTEX
8
GIGN01
10
0.382388
20
1.255959
30
-0.409077
70
192
0
VERTEX
8
GIGN01
10
-0.346552
20
1.254199
30
0.008827
70
192
0
VERTEX
8
GIGN01
10
1.831138
20
-2.130783
30
-2.978374
70
192
0
VERTEX
8
GIGN01
10
0.382128
20
-2.072870
30
-0.406780
70
192
0
VERTEX
8
GIGN01
10
-0.346827
20
-2.074629
30
0.011101
70
192
0
VERTEX
8
GIGN01
10
0.658462
20
-1.945761
30
-2.999233
70
192
0
VERTEX
8
GIGN01
10
-0.959868
20
-0.713127
30
-2.095432
70
192
0
VERTEX
8
GIGN01
10
-0.460951
20
1.190850
30
-1.760876
70
192
0
VERTEX
8
GIGN01
10
-0.904727
20
0.577697
30
-2.048790
70
192
0
VERTEX
8
GIGN01
10
-1.360450
20
0.520397
30
-1.835274
70
192
0
VERTEX
8
GIGN01
10
-1.629439
20
0.019764
30
-1.657589
70
192
0
VERTEX
8
GIGN01
10
-1.295177
20
-0.317380
30
-1.867977
70
192
0
VERTEX
8
GIGN01
10
-0.839465
20
-0.260050
30
-2.081497
70
192
0
VERTEX
8
GIGN01
10
-0.489119
20
0.208156
30
-1.852161
70
192
0
VERTEX
8
GIGN01
10
3.969585
20
-0.191255
30
2.530308
70
192
0
VERTEX
8
GIGN01
10
-3.088792
20
0.214102
30
-0.073609
70
192
0
VERTEX
8
GIGN01
10
0.459740
20
-3.755611
30
2.354099
70
192
0
VERTEX
8
GIGN01
10
1.124497
20
-3.514532
30
-8.838676
70
192
0
VERTEX
8
GIGN01
10
1.071165
20
-3.062003
30
-1.681301
70
192
0
VERTEX
8
GIGN01
10
-2.256308
20
-0.003971
30
-1.570721
70
192
0
VERTEX
8
GIGN01
10
3.206026
20
-0.023730
30
-1.598198
70
192
0
VERTEX
8
GIGN01
10
2.181238
20
1.742798
30
0.163551
70
192
0
VERTEX
8
GIGN01
10
-0.836462
20
1.999806
30
0.400883
70
192
0
VERTEX
8
GIGN01
10
-0.272574
20
-2.029213
30
0.423737
70
192
0
VERTEX
8
GIGN01
10
1.770765
20
-1.766995
30
0.215069
70
192
0
VERTEX
8
GIGN01
10
-1.548228
20
1.131400
30
-1.214352
70
192
0
VERTEX
8
GIGN01
10
-1.253096
20
1.131116
30
-1.594750
70
192
0
VERTEX
8
GIGN01
10
-1.548484
20
-1.950846
30
-1.212238
70
192
0
VERTEX
8
GIGN01
10
-1.253351
20
-1.951131
30
-1.592648
70
192
0
VERTEX
8
GIGN01
10
-0.949394
20
3.140595
30
-8.953083
70
192
0
VERTEX
8
GIGN01
10
1.190270
20
3.209116
30
-8.930382
70
192
0
VERTEX
8
GIGN01
10
2.068477
20
2.834692
30
0.620941
70
192
0
VERTEX
8
GIGN01
10
3.528362
20
-0.289544
30
0.097157
70
192
0
VERTEX
8
GIGN01
10
2.429969
20
-3.476638
30
0.162434
70
192
0
VERTEX
8
GIGN01
10
-0.276127
20
3.707334
30
-0.361416
70
192
0
VERTEX
8
GIGN01
10
-0.408719
20
-3.870375
30
4.875271
70
192
0
VERTEX
8
GIGN01
10
-1.422494
20
-0.444742
30
5.146572
70
192
0
VERTEX
8
GIGN01
10
-0.407937
20
0.715800
30
5.007080
70
192
0
VERTEX
8
GIGN01
10
-0.393704
20
3.518270
30
5.082378
70
192
0
VERTEX
8
GIGN01
10
-10.067679
20
3.070367
30
6.892951
70
192
0
VERTEX
8
GIGN01
10
-9.643199
20
0.601833
30
6.722343
70
192
0
VERTEX
8
GIGN01
10
-4.510313
20
-0.782087
30
5.558468
70
192
0
VERTEX
8
GIGN01
10
-3.112866
20
-4.669634
30
5.333126
70
192
0
VERTEX
8
GIGN01
10
-0.733294
20
-3.790476
30
3.486691
70
192
0
VERTEX
8
GIGN01
10
-1.958827
20
-0.223519
30
3.807266
70
192
0
VERTEX
8
GIGN01
10
-0.732516
20
0.795693
30
3.618465
70
192
0
VERTEX
8
GIGN01
10
-0.718272
20
3.598153
30
3.693821
70
192
0
VERTEX
8
GIGN01
10
-10.392245
20
3.150247
30
5.504371
70
192
0
VERTEX
8
GIGN01
10
-9.967752
20
0.681720
30
5.333774
70
192
0
VERTEX
8
GIGN01
10
-4.762771
20
-0.672678
30
4.289123
70
192
0
VERTEX
8
GIGN01
10
-3.437446
20
-4.589738
30
3.944519
70
192
0
VERTEX
8
GIGN01
10
-8.367214
20
2.770748
30
-1.086285
70
192
0
VERTEX
8
GIGN01
10
-0.780446
20
2.463651
30
1.040295
70
192
0
VERTEX
8
GIGN01
10
-0.407024
20
2.463642
30
-1.427277
70
192
0
VERTEX
8
GIGN01
10
1.735764
20
3.071703
30
-1.132801
70
192
0
VERTEX
8
GIGN01
10
-3.277331
20
-4.698833
30
-0.710983
70
192
0
VERTEX
8
GIGN01
10
-14.614653
20
0.753545
30
-5.714692
70
192
0
VERTEX
8
GIGN01
10
-14.095395
20
-3.467767
30
-2.086594
70
192
0
VERTEX
8
GIGN01
10
-1.669124
20
-0.664855
30
-3.248703
70
192
0
VERTEX
8
GIGN01
10
-7.535367
20
-5.012622
30
-0.625771
70
192
0
VERTEX
8
GIGN01
10
-7.631962
20
-0.494979
30
-4.488293
70
192
0
VERTEX
8
GIGN01
10
-15.632746
20
0.753691
30
1.331054
70
192
0
VERTEX
8
GIGN01
10
-2.516275
20
-0.664835
30
2.827678
70
192
0
VERTEX
8
GIGN01
10
-8.374909
20
-0.828755
30
2.476524
70
192
0
VERTEX
8
GIGN01
10
-10.075810
20
-4.217110
30
-1.274758
70
192
0
VERTEX
8
GIGN01
10
-11.444623
20
0.641172
30
2.594703
70
192
0
VERTEX
8
GIGN01
10
-10.739548
20
5.584514
30
0.327522
70
192
0
VERTEX
8
GIGN01
10
-8.430770
20
0.753550
30
-5.394200
70
192
0
VERTEX
8
GIGN01
10
-9.601051
20
5.584502
30
-3.347641
70
192
0
VERTEX
8
GIGN01
10
-10.236477
20
-4.355912
30
-1.279683
70
192
0
VERTEX
8
GIGN01
10
-10.480164
20
-0.976127
30
-3.767228
70
192
0
VERTEX
8
GIGN01
10
-10.695789
20
1.834572
30
-1.515675
70
192
0
VERTEX
8
GIGN01
10
-11.026549
20
-0.762129
30
0.859115
70
192
0
VERTEX
8
GIGN01
10
1.398556
20
3.071710
30
1.660065
70
192
0
VERTEX
8
GIGN01
10
4.036080
20
4.995196
30
-2.867496
70
192
0
VERTEX
8
GIGN01
10
3.987740
20
5.314987
30
-3.041473
70
192
0
VERTEX
8
GIGN01
10
4.104916
20
4.987792
30
2.751747
70
192
0
VERTEX
8
GIGN01
10
3.992691
20
5.339975
30
2.884472
70
192
0
VERTEX
8
GIGN01
10
2.441803
20
-3.480898
30
-0.064201
70
192
0
VERTEX
8
GIGN01
10
2.047261
20
2.835798
30
-0.374180
70
192
0
VERTEX
8
GIGN01
10
3.543885
20
-0.290610
30
0.001061
70
192
0
VERTEX
8
GIGN01
10
-5.742495
20
-3.379232
30
-1.331726
70
192
0
VERTEX
8
GIGN01
10
-5.739286
20
-3.238367
30
1.804970
70
192
0
VERTEX
8
GIGN01
10
-5.728736
20
-0.166603
30
2.439853
70
192
0
VERTEX
8
GIGN01
10
-5.738564
20
-0.528782
30
-2.225319
70
192
0
VERTEX
8
GIGN01
10
0.035911
20
4.364803
30
-1.244499
70
192
0
VERTEX
8
GIGN01
10
0.025996
20
4.371511
30
2.056858
70
192
0
VERTEX
8
GIGN01
10
1.795307
20
3.863914
30
-1.108955
70
192
0
VERTEX
8
GIGN01
10
1.705513
20
3.863434
30
1.523026
70
192
0
VERTEX
8
GIGN01
10
0.022073
20
0.496899
30
-1.991875
70
192
0
VERTEX
8
GIGN01
10
0.025228
20
0.496894
30
2.919041
70
192
0
VERTEX
8
GIGN01
10
-0.781749
20
0.323053
30
-2.082592
70
192
0
VERTEX
8
GIGN01
10
2.892231
20
0.230100
30
-1.561813
70
192
0
VERTEX
8
GIGN01
10
2.688853
20
0.253389
30
2.338863
70
192
0
VERTEX
8
GIGN01
10
-0.429864
20
2.138262
30
-0.008904
70
192
0
VERTEX
8
GIGN01
10
3.515929
20
0.538265
30
0.025780
70
192
0
VERTEX
8
GIGN01
10
-0.597187
20
0.134922
30
1.744125
70
192
0
VERTEX
8
GIGN01
10
-0.831449
20
-2.293274
30
-0.197941
70
192
0
VERTEX
8
GIGN01
10
4.072242
20
4.406237
30
0.561798
70
192
0
VERTEX
8
GIGN01
10
4.087586
20
4.400335
30
-0.403927
70
192
0
VERTEX
8
GIGN01
10
-1.445866
20
3.116342
30
1.032299
70
192
0
VERTEX
8
GIGN01
10
-0.850429
20
3.003317
30
3.027164
70
192
0
VERTEX
8
GIGN01
10
1.145072
20
3.158344
30
1.146500
70
192
0
VERTEX
8
GIGN01
10
1.348806
20
3.035603
30
2.961475
70
192
0
VERTEX
8
GIGN01
10
0.919653
20
-3.259081
30
5.259315
70
192
0
VERTEX
8
GIGN01
10
-0.709681
20
-3.107779
30
5.193996
70
192
0
VERTEX
8
GIGN01
10
-0.136290
20
-2.929863
30
1.826099
70
192
0
VERTEX
8
GIGN01
10
2.763358
20
0.039281
30
1.228455
70
192
0
VERTEX
8
GIGN01
10
3.178304
20
-0.102280
30
2.895947
70
192
0
VERTEX
8
GIGN01
10
1.633794
20
-1.770146
30
-0.091915
70
192
0
VERTEX
8
GIGN01
10
-0.409544
20
-2.032365
30
-0.300591
70
192
0
VERTEX
8
GIGN01
10
-2.437169
20
-0.521803
30
1.088798
70
192
0
VERTEX
8
GIGN01
10
-2.392706
20
-0.005451
30
2.627189
70
192
0
VERTEX
8
GIGN01
10
-0.320620
20
1.238828
30
0.102489
70
192
0
VERTEX
8
GIGN01
10
0.695378
20
1.584682
30
3.041161
70
192
0
VERTEX
8
GIGN01
10
0.404542
20
1.254708
30
0.521801
70
192
0
VERTEX
8
GIGN01
10
2.223248
20
1.504449
30
3.095451
70
192
0
VERTEX
8
GIGN01
10
1.853184
20
-2.130685
30
3.091255
70
192
0
VERTEX
8
GIGN01
10
-0.324771
20
-2.074533
30
0.101780
70
192
0
VERTEX
8
GIGN01
10
0.404183
20
-2.072772
30
0.519661
70
192
0
VERTEX
8
GIGN01
10
0.680508
20
-1.945662
30
3.112114
70
192
0
VERTEX
8
GIGN01
10
-0.937823
20
-0.713034
30
2.208302
70
192
0
VERTEX
8
GIGN01
10
-0.882681
20
0.577802
30
2.161655
70
192
0
VERTEX
8
GIGN01
10
-0.817419
20
-0.259954
30
2.194363
70
192
0
VERTEX
8
GIGN01
10
-1.273302
20
-0.317264
30
1.981216
70
192
0
VERTEX
8
GIGN01
10
-1.338407
20
0.520501
30
1.948124
70
192
0
VERTEX
8
GIGN01
10
-1.649519
20
1.191480
30
1.214645
70
192
0
VERTEX
8
GIGN01
10
-1.607402
20
0.019851
30
1.770458
70
192
0
VERTEX
8
GIGN01
10
-0.467078
20
0.208263
30
1.965015
70
192
0
VERTEX
8
GIGN01
10
-0.438918
20
1.190932
30
1.873745
70
192
0
VERTEX
8
GIGN01
10
-0.804929
20
-2.578211
30
-1.654331
70
192
0
VERTEX
8
GIGN01
10
-3.066742
20
0.214139
30
0.186470
70
192
0
VERTEX
8
GIGN01
10
-2.510974
20
-0.000179
30
-0.375500
70
192
0
VERTEX
8
GIGN01
10
1.379001
20
-3.471437
30
-1.555901
70
192
0
VERTEX
8
GIGN01
10
0.481796
20
-3.755586
30
-2.241207
70
192
0
VERTEX
8
GIGN01
10
3.022725
20
-0.250875
30
-0.042278
70
192
0
VERTEX
8
GIGN01
10
3.991642
20
-0.191232
30
-2.417427
70
192
0
VERTEX
8
GIGN01
10
1.093211
20
-3.061942
30
1.794186
70
192
0
VERTEX
8
GIGN01
10
-0.725050
20
-2.361120
30
1.759300
70
192
0
VERTEX
8
GIGN01
10
3.228072
20
-0.023670
30
1.711075
70
192
0
VERTEX
8
GIGN01
10
-2.234262
20
-0.003911
30
1.683586
70
192
0
VERTEX
8
GIGN01
10
2.044271
20
1.739728
30
-0.040420
70
192
0
VERTEX
8
GIGN01
10
-0.973403
20
1.996632
30
-0.277721
70
192
0
VERTEX
8
GIGN01
10
-1.231302
20
-1.951026
30
1.705524
70
192
0
VERTEX
8
GIGN01
10
-1.231463
20
1.128258
30
1.707149
70
192
0
VERTEX
8
GIGN01
10
-1.525724
20
1.128542
30
1.327610
70
192
0
VERTEX
8
GIGN01
10
-1.526433
20
-1.950742
30
1.325115
70
192
0
VERTEX
8
GIGN01
10
1.212299
20
3.209185
30
9.043240
70
192
0
VERTEX
8
GIGN01
10
-0.925874
20
3.110384
30
9.065754
70
192
0
VERTEX
8
GIGN01
10
-5.716799
20
-3.379246
30
1.256840
70
192
0
VERTEX
8
GIGN01
10
-5.713587
20
-3.238399
30
-1.907864
70
192
0
VERTEX
8
GIGN01
10
-5.703031
20
-0.166638
30
-2.548435
70
192
0
VERTEX
8
GIGN01
10
-5.712871
20
-0.528792
30
2.158397
70
192
0
VERTEX
8
GIGN01
10
0.061603
20
4.364789
30
1.168793
70
192
0
VERTEX
8
GIGN01
10
0.051697
20
4.371478
30
-2.162037
70
192
0
VERTEX
8
GIGN01
10
1.821003
20
3.863899
30
1.032051
70
192
0
VERTEX
8
GIGN01
10
1.731216
20
3.863404
30
-1.623432
70
192
0
VERTEX
8
GIGN01
10
0.047762
20
0.496888
30
1.922863
70
192
0
VERTEX
8
GIGN01
10
0.050928
20
0.496856
30
-3.031898
70
192
0
VERTEX
8
GIGN01
10
-0.756054
20
0.323043
30
2.013680
70
192
0
VERTEX
8
GIGN01
10
2.917919
20
0.230086
30
1.488968
70
192
0
VERTEX
8
GIGN01
10
2.714555
20
0.253354
30
-2.446533
70
192
0
VERTEX
8
GIGN01
10
-0.404169
20
2.138240
30
-0.078529
70
192
0
VERTEX
8
GIGN01
10
3.541624
20
0.538242
30
-0.112797
70
192
0
VERTEX
8
GIGN01
10
-0.571490
20
0.134891
30
-1.847198
70
192
0
VERTEX
8
GIGN01
10
-0.805750
20
-2.293294
30
0.112217
70
192
0
VERTEX
8
GIGN01
10
0
20
0
30
0
70
128
71
77
72
1
73
78
0
VERTEX
8
GIGN01
10
0
20
0
30
0
70
128
71
77
72
2
73
1
0
VERTEX
8
GIGN01
10
0
20
0
30
0
70
128
71
77
72
3
73
2
0
VERTEX
8
GIGN01
10
0
20
0
30
0
70
128
71
76
72
3
73
77
0
VERTEX
8
GIGN01
10
0
20
0
30
0
70
128
71
76
72
4
73
3
0
VERTEX
8
GIGN01
10
0
20
0
30
0
70
128
71
75
72
4
73
76
0
VERTEX
8
GIGN01
10
0
20
0
30
0
70
128
71
4
72
75
73
80
0
VERTEX
8
GIGN01
10
0
20
0
30
0
70
128
71
80
72
5
73
4
0
VERTEX
8
GIGN01
10
0
20
0
30
0
70
128
71
80
72
6
73
5
0
VERTEX
8
GIGN01
10
0
20
0
30
0
70
128
71
79
72
6
73
80
0
VERTEX
8
GIGN01
10
0
20
0
30
0
70
128
71
78
72
6
73
79
0
VERTEX
8
GIGN01
10
0
20
0
30
0
70
128
71
6
72
78
73
1
0
VERTEX
8
GIGN01
10
0
20
0
30
0
70
128
71
16
72
7
73
13
0
VERTEX
8
GIGN01
10
0
20
0
30
0
70
128
71
8
72
20
73
17
0
VERTEX
8
GIGN01
10
0
20
0
30
0
70
128
71
22
72
31
73
30
0
VERTEX
8
GIGN01
10
0
20
0
30
0
70
128
71
22
72
30
73
23
0
VERTEX
8
GIGN01
10
0
20
0
30
0
70
128
71
23
72
30
73
29
0
VERTEX
8
GIGN01
10
0
20
0
30
0
70
128
71
23
72
29
73
24
0
VERTEX
8
GIGN01
10
0
20
0
30
0
70
128
71
24
72
29
73
28
0
VERTEX
8
GIGN01
10
0
20
0
30
0
70
128
71
24
72
28
73
25
0
VERTEX
8
GIGN01
10
0
20
0
30
0
70
128
71
25
72
28
73
27
0
VERTEX
8
GIGN01
10
0
20
0
30
0
70
128
71
25
72
27
73
26
0
VERTEX
8
GIGN01
10
0
20
0
30
0
70
128
71
7
72
33
73
13
0
VERTEX
8
GIGN01
10
0
20
0
30
0
70
128
71
32
72
8
73
17
0
VERTEX
8
GIGN01
10
0
20
0
30
0
70
128
71
34
72
22
73
23
0
VERTEX
8
GIGN01
10
0
20
0
30
0
70
128
71
23
72
35
73
34
0
VERTEX
8
GIGN01
10
0
20
0
30
0
70
128
71
35
72
23
73
24
0
VERTEX
8
GIGN01
10
0
20
0
30
0
70
128
71
35
72
24
73
25
0
VERTEX
8
GIGN01
10
0
20
0
30
0
70
128
71
35
72
25
73
26
0
VERTEX
8
GIGN01
10
0
20
0
30
0
70
128
71
26
72
36
73
35
0
VERTEX
8
GIGN01
10
0
20
0
30
0
70
128
71
13
72
34
73
15
0
VERTEX
8
GIGN01
10
0
20
0
30
0
70
128
71
35
72
15
73
34
0
VERTEX
8
GIGN01
10
0
20
0
30
0
70
128
71
37
72
17
73
18
0
VERTEX
8
GIGN01
10
0
20
0
30
0
70
128
71
18
72
39
73
37
0
VERTEX
8
GIGN01
10
0
20
0
30
0
70
128
71
39
72
18
73
38
0
VERTEX
8
GIGN01
10
0
20
0
30
0
70
128
71
37
72
30
73
31
0
VERTEX
8
GIGN01
10
0
20
0
30
0
70
128
71
39
72
30
73
37
0
VERTEX
8
GIGN01
10
0
20
0
30
0
70
128
71
39
72
29
73
30
0
VERTEX
8
GIGN01
10
0
20
0
30
0
70
128
71
39
72
28
73
29
0
VERTEX
8
GIGN01
10
0
20
0
30
0
70
128
71
28
72
39
73
38
0
VERTEX
8
GIGN01
10
0
20
0
30
0
70
128
71
38
72
27
73
28
0
VERTEX
8
GIGN01
10
0
20
0
30
0
70
128
71
36
72
14
73
15
0
VERTEX
8
GIGN01
10
0
20
0
30
0
70
128
71
26
72
40
73
36
0
VERTEX
8
GIGN01
10
0
20
0
30
0
70
128
71
38
72
18
73
19
0
VERTEX
8
GIGN01
10
0
20
0
30
0
70
128
71
40
72
26
73
27
0
VERTEX
8
GIGN01
10
0
20
0
30
0
70
128
71
27
72
41
73
40
0
VERTEX
8
GIGN01
10
0
20
0
30
0
70
128
71
44
72
47
73
45
0
VERTEX
8
GIGN01
10
0
20
0
30
0
70
128
71
47
72
44
73
46
0
VERTEX
8
GIGN01
10
0
20
0
30
0
70
128
71
4
72
40
73
41
0
VERTEX
8
GIGN01
10
0
20
0
30
0
70
128
71
41
72
3
73
4
0
VERTEX
8
GIGN01
10
0
20
0
30
0
70
128
71
43
72
32
73
33
0
VERTEX
8
GIGN01
10
0
20
0
30
0
70
128
71
43
72
33
73
42
0
VERTEX
8
GIGN01
10
0
20
0
30
0
70
128
71
33
72
48
73
42
0
VERTEX
8
GIGN01
10
0
20
0
30
0
70
128
71
7
72
48
73
33
0
VERTEX
8
GIGN01
10
0
20
0
30
0
70
128
71
46
72
10
73
11
0
VERTEX
8
GIGN01
10
0
20
0
30
0
70
128
71
9
72
47
73
12
0
VERTEX
8
GIGN01
10
0
20
0
30
0
70
128
71
43
72
21
73
32
0
VERTEX
8
GIGN01
10
0
20
0
30
0
70
128
71
8
72
32
73
21
0
VERTEX
8
GIGN01
10
0
20
0
30
0
70
128
71
36
72
15
73
35
0
VERTEX
8
GIGN01
10
0
20
0
30
0
70
128
71
2
72
19
73
20
0
VERTEX
8
GIGN01
10
0
20
0
30
0
70
128
71
16
72
14
73
5
0
VERTEX
8
GIGN01
10
0
20
0
30
0
70
128
71
41
72
27
73
38
0
VERTEX
8
GIGN01
10
0
20
0
30
0
70
128
71
19
72
41
73
38
0
VERTEX
8
GIGN01
10
0
20
0
30
0
70
128
71
19
72
3
73
41
0
VERTEX
8
GIGN01
10
0
20
0
30
0
70
128
71
40
72
14
73
36
0
VERTEX
8
GIGN01
10
0
20
0
30
0
70
128
71
4
72
14
73
40
0
VERTEX
8
GIGN01
10
0
20
0
30
0
70
128
71
46
72
49
73
47
0
VERTEX
8
GIGN01
10
0
20
0
30
0
70
128
71
11
72
49
73
46
0
VERTEX
8
GIGN01
10
0
20
0
30
0
70
128
71
49
72
11
73
12
0
VERTEX
8
GIGN01
10
0
20
0
30
0
70
128
71
49
72
12
73
47
0
VERTEX
8
GIGN01
10
0
20
0
30
0
70
128
71
16
72
13
73
15
0
VERTEX
8
GIGN01
10
0
20
0
30
0
70
128
71
14
72
16
73
15
0
VERTEX
8
GIGN01
10
0
20
0
30
0
70
128
71
17
72
20
73
18
0
VERTEX
8
GIGN01
10
0
20
0
30
0
70
128
71
18
72
20
73
19
0
VERTEX
8
GIGN01
10
0
20
0
30
0
70
128
71
19
72
2
73
3
0
VERTEX
8
GIGN01
10
0
20
0
30
0
70
128
71
14
72
4
73
5
0
VERTEX
8
GIGN01
10
0
20
0
30
0
70
128
71
50
72
44
73
45
0
VERTEX
8
GIGN01
10
0
20
0
30
0
70
128
71
45
72
51
73
50
0
VERTEX
8
GIGN01
10
0
20
0
30
0
70
128
71
51
72
43
73
50
0
VERTEX
8
GIGN01
10
0
20
0
30
0
70
128
71
42
72
50
73
43
0
VERTEX
8
GIGN01
10
0
20
0
30
0
70
128
71
44
72
50
73
46
0
VERTEX
8
GIGN01
10
0
20
0
30
0
70
128
71
51
72
45
73
47
0
VERTEX
8
GIGN01
10
0
20
0
30
0
70
128
71
53
72
21
73
306
0
VERTEX
8
GIGN01
10
0
20
0
30
0
70
128
71
53
72
8
73
21
0
VERTEX
8
GIGN01
10
0
20
0
30
0
70
128
71
53
72
9
73
20
0
VERTEX
8
GIGN01
10
0
20
0
30
0
70
128
71
8
72
53
73
20
0
VERTEX
8
GIGN01
10
0
20
0
30
0
70
128
71
7
72
52
73
48
0
VERTEX
8
GIGN01
10
0
20
0
30
0
70
128
71
52
72
7
73
16
0
VERTEX
8
GIGN01
10
0
20
0
30
0
70
128
71
10
72
52
73
16
0
VERTEX
8
GIGN01
10
0
20
0
30
0
70
128
71
10
72
46
73
44
0
VERTEX
8
GIGN01
10
0
20
0
30
0
70
128
71
50
72
52
73
44
0
VERTEX
8
GIGN01
10
0
20
0
30
0
70
128
71
52
72
10
73
44
0
VERTEX
8
GIGN01
10
0
20
0
30
0
70
128
71
47
72
9
73
45
0
VERTEX
8
GIGN01
10
0
20
0
30
0
70
128
71
9
72
53
73
45
0
VERTEX
8
GIGN01
10
0
20
0
30
0
70
128
71
45
72
53
73
51
0
VERTEX
8
GIGN01
10
0
20
0
30
0
70
128
71
12
72
1
73
2
0
VERTEX
8
GIGN01
10
0
20
0
30
0
70
128
71
1
72
12
73
6
0
VERTEX
8
GIGN01
10
0
20
0
30
0
70
128
71
6
72
12
73
11
0
VERTEX
8
GIGN01
10
0
20
0
30
0
70
128
71
11
72
5
73
6
0
VERTEX
8
GIGN01
10
0
20
0
30
0
70
128
71
54
72
9
73
12
0
VERTEX
8
GIGN01
10
0
20
0
30
0
70
128
71
2
72
54
73
12
0
VERTEX
8
GIGN01
10
0
20
0
30
0
70
128
71
54
72
2
73
20
0
VERTEX
8
GIGN01
10
0
20
0
30
0
70
128
71
9
72
54
73
20
0
VERTEX
8
GIGN01
10
0
20
0
30
0
70
128
71
10
72
55
73
11
0
VERTEX
8
GIGN01
10
0
20
0
30
0
70
128
71
55
72
10
73
16
0
VERTEX
8
GIGN01
10
0
20
0
30
0
70
128
71
5
72
55
73
16
0
VERTEX
8
GIGN01
10
0
20
0
30
0
70
128
71
55
72
5
73
11
0
VERTEX
8
GIGN01
10
0
20
0
30
0
70
128
71
31
72
33
73
32
0
VERTEX
8
GIGN01
10
0
20
0
30
0
70
128
71
22
72
33
73
31
0
VERTEX
8
GIGN01
10
0
20
0
30
0
70
128
71
37
72
31
73
32
0
VERTEX
8
GIGN01
10
0
20
0
30
0
70
128
71
17
72
37
73
32
0
VERTEX
8
GIGN01
10
0
20
0
30
0
70
128
71
22
72
34
73
33
0
VERTEX
8
GIGN01
10
0
20
0
30
0
70
128
71
34
72
13
73
33
0
VERTEX
8
GIGN01
10
0
20
0
30
0
70
128
71
64
72
69
73
68
0
VERTEX
8
GIGN01
10
0
20
0
30
0
70
128
71
66
72
68
73
67
0
VERTEX
8
GIGN01
10
0
20
0
30
0
70
128
71
79
72
183
73
78
0
VERTEX
8
GIGN01
10
0
20
0
30
0
70
128
71
82
72
60
73
81
0
VERTEX
8
GIGN01
10
0
20
0
30
0
70
128
71
62
72
82
73
73
0
VERTEX
8
GIGN01
10
0
20
0
30
0
70
128
71
83
72
73
73
82
0
VERTEX
8
GIGN01
10
0
20
0
30
0
70
128
71
83
72
70
73
73
0
VERTEX
8
GIGN01
10
0
20
0
30
0
70
128
71
84
72
70
73
83
0
VERTEX
8
GIGN01
10
0
20
0
30
0
70
128
71
70
72
84
73
71
0
VERTEX
8
GIGN01
10
0
20
0
30
0
70
128
71
85
72
71
73
84
0
VERTEX
8
GIGN01
10
0
20
0
30
0
70
128
71
71
72
85
73
72
0
VERTEX
8
GIGN01
10
0
20
0
30
0
70
128
71
86
72
72
73
85
0
VERTEX
8
GIGN01
10
0
20
0
30
0
70
128
71
72
72
86
73
74
0
VERTEX
8
GIGN01
10
0
20
0
30
0
70
128
71
74
72
86
73
81
0
VERTEX
8
GIGN01
10
0
20
0
30
0
70
128
71
81
72
61
73
74
0
VERTEX
8
GIGN01
10
0
20
0
30
0
70
128
71
81
72
60
73
61
0
VERTEX
8
GIGN01
10
0
20
0
30
0
70
128
71
71
72
67
73
68
0
VERTEX
8
GIGN01
10
0
20
0
30
0
70
128
71
72
72
67
73
71
0
VERTEX
8
GIGN01
10
0
20
0
30
0
70
128
71
71
72
68
73
69
0
VERTEX
8
GIGN01
10
0
20
0
30
0
70
128
71
71
72
69
73
70
0
VERTEX
8
GIGN01
10
0
20
0
30
0
70
128
71
90
72
183
73
79
0
VERTEX
8
GIGN01
10
0
20
0
30
0
70
128
71
89
72
79
73
80
0
VERTEX
8
GIGN01
10
0
20
0
30
0
70
128
71
90
72
79
73
89
0
VERTEX
8
GIGN01
10
0
20
0
30
0
70
128
71
75
72
89
73
80
0
VERTEX
8
GIGN01
10
0
20
0
30
0
70
128
71
75
72
91
73
89
0
VERTEX
8
GIGN01
10
0
20
0
30
0
70
128
71
89
72
93
73
90
0
VERTEX
8
GIGN01
10
0
20
0
30
0
70
128
71
93
72
89
73
185
0
VERTEX
8
GIGN01
10
0
20
0
30
0
70
128
71
93
72
183
73
90
0
VERTEX
8
GIGN01
10
0
20
0
30
0
70
128
71
91
72
94
73
92
0
VERTEX
8
GIGN01
10
0
20
0
30
0
70
128
71
94
72
65
73
92
0
VERTEX
8
GIGN01
10
0
20
0
30
0
70
128
71
75
72
94
73
91
0
VERTEX
8
GIGN01
10
0
20
0
30
0
70
128
71
183
72
97
73
78
0
VERTEX
8
GIGN01
10
0
20
0
30
0
70
128
71
78
72
97
73
95
0
VERTEX
8
GIGN01
10
0
20
0
30
0
70
128
71
95
72
77
73
78
0
VERTEX
8
GIGN01
10
0
20
0
30
0
70
128
71
95
72
76
73
77
0
VERTEX
8
GIGN01
10
0
20
0
30
0
70
128
71
96
72
76
73
95
0
VERTEX
8
GIGN01
10
0
20
0
30
0
70
128
71
94
72
75
73
76
0
VERTEX
8
GIGN01
10
0
20
0
30
0
70
128
71
76
72
96
73
94
0
VERTEX
8
GIGN01
10
0
20
0
30
0
70
128
71
98
72
65
73
94
0
VERTEX
8
GIGN01
10
0
20
0
30
0
70
128
71
98
72
94
73
96
0
VERTEX
8
GIGN01
10
0
20
0
30
0
70
128
71
98
72
96
73
187
0
VERTEX
8
GIGN01
10
0
20
0
30
0
70
128
71
95
72
187
73
96
0
VERTEX
8
GIGN01
10
0
20
0
30
0
70
128
71
186
72
95
73
97
0
VERTEX
8
GIGN01
10
0
20
0
30
0
70
128
71
187
72
95
73
186
0
VERTEX
8
GIGN01
10
0
20
0
30
0
70
128
71
183
72
186
73
97
0
VERTEX
8
GIGN01
10
0
20
0
30
0
70
128
71
185
72
89
73
91
0
VERTEX
8
GIGN01
10
0
20
0
30
0
70
128
71
91
72
92
73
185
0
VERTEX
8
GIGN01
10
0
20
0
30
0
70
128
71
73
72
59
73
62
0
VERTEX
8
GIGN01
10
0
20
0
30
0
70
128
71
58
72
74
73
61
0
VERTEX
8
GIGN01
10
0
20
0
30
0
70
128
71
177
72
56
73
58
0
VERTEX
8
GIGN01
10
0
20
0
30
0
70
128
71
177
72
58
73
283
0
VERTEX
8
GIGN01
10
0
20
0
30
0
70
128
71
180
72
171
73
177
0
VERTEX
8
GIGN01
10
0
20
0
30
0
70
128
71
171
72
180
73
175
0
VERTEX
8
GIGN01
10
0
20
0
30
0
70
128
71
182
72
175
73
180
0
VERTEX
8
GIGN01
10
0
20
0
30
0
70
128
71
182
72
174
73
175
0
VERTEX
8
GIGN01
10
0
20
0
30
0
70
128
71
66
72
104
73
68
0
VERTEX
8
GIGN01
10
0
20
0
30
0
70
128
71
65
72
104
73
92
0
VERTEX
8
GIGN01
10
0
20
0
30
0
70
128
71
104
72
65
73
68
0
VERTEX
8
GIGN01
10
0
20
0
30
0
70
128
71
65
72
103
73
68
0
VERTEX
8
GIGN01
10
0
20
0
30
0
70
128
71
103
72
65
73
98
0
VERTEX
8
GIGN01
10
0
20
0
30
0
70
128
71
103
72
64
73
68
0
VERTEX
8
GIGN01
10
0
20
0
30
0
70
128
71
173
72
181
73
179
0
VERTEX
8
GIGN01
10
0
20
0
30
0
70
128
71
173
72
179
73
176
0
VERTEX
8
GIGN01
10
0
20
0
30
0
70
128
71
179
72
172
73
176
0
VERTEX
8
GIGN01
10
0
20
0
30
0
70
128
71
172
72
179
73
178
0
VERTEX
8
GIGN01
10
0
20
0
30
0
70
128
71
57
72
178
73
59
0
VERTEX
8
GIGN01
10
0
20
0
30
0
70
128
71
186
72
189
73
187
0
VERTEX
8
GIGN01
10
0
20
0
30
0
70
128
71
101
72
189
73
178
0
VERTEX
8
GIGN01
10
0
20
0
30
0
70
128
71
187
72
101
73
98
0
VERTEX
8
GIGN01
10
0
20
0
30
0
70
128
71
103
72
98
73
101
0
VERTEX
8
GIGN01
10
0
20
0
30
0
70
128
71
104
72
185
73
92
0
VERTEX
8
GIGN01
10
0
20
0
30
0
70
128
71
185
72
104
73
102
0
VERTEX
8
GIGN01
10
0
20
0
30
0
70
128
71
185
72
102
73
188
0
VERTEX
8
GIGN01
10
0
20
0
30
0
70
128
71
185
72
188
73
93
0
VERTEX
8
GIGN01
10
0
20
0
30
0
70
128
71
188
72
183
73
93
0
VERTEX
8
GIGN01
10
0
20
0
30
0
70
128
71
183
72
188
73
282
0
VERTEX
8
GIGN01
10
0
20
0
30
0
70
128
71
284
72
183
73
184
0
VERTEX
8
GIGN01
10
0
20
0
30
0
70
128
71
183
72
189
73
186
0
VERTEX
8
GIGN01
10
0
20
0
30
0
70
128
71
60
72
107
73
61
0
VERTEX
8
GIGN01
10
0
20
0
30
0
70
128
71
108
72
61
73
107
0
VERTEX
8
GIGN01
10
0
20
0
30
0
70
128
71
107
72
60
73
106
0
VERTEX
8
GIGN01
10
0
20
0
30
0
70
128
71
60
72
109
73
106
0
VERTEX
8
GIGN01
10
0
20
0
30
0
70
128
71
110
72
106
73
109
0
VERTEX
8
GIGN01
10
0
20
0
30
0
70
128
71
110
72
105
73
106
0
VERTEX
8
GIGN01
10
0
20
0
30
0
70
128
71
105
72
107
73
106
0
VERTEX
8
GIGN01
10
0
20
0
30
0
70
128
71
105
72
108
73
107
0
VERTEX
8
GIGN01
10
0
20
0
30
0
70
128
71
105
72
110
73
108
0
VERTEX
8
GIGN01
10
0
20
0
30
0
70
128
71
110
72
61
73
108
0
VERTEX
8
GIGN01
10
0
20
0
30
0
70
128
71
110
72
58
73
61
0
VERTEX
8
GIGN01
10
0
20
0
30
0
70
128
71
63
72
110
73
109
0
VERTEX
8
GIGN01
10
0
20
0
30
0
70
128
71
111
72
87
73
88
0
VERTEX
8
GIGN01
10
0
20
0
30
0
70
128
71
81
72
88
73
87
0
VERTEX
8
GIGN01
10
0
20
0
30
0
70
128
71
81
72
87
73
82
0
VERTEX
8
GIGN01
10
0
20
0
30
0
70
128
71
117
72
60
73
82
0
VERTEX
8
GIGN01
10
0
20
0
30
0
70
128
71
62
72
117
73
82
0
VERTEX
8
GIGN01
10
0
20
0
30
0
70
128
71
60
72
117
73
115
0
VERTEX
8
GIGN01
10
0
20
0
30
0
70
128
71
60
72
115
73
113
0
VERTEX
8
GIGN01
10
0
20
0
30
0
70
128
71
60
72
113
73
112
0
VERTEX
8
GIGN01
10
0
20
0
30
0
70
128
71
60
72
112
73
109
0
VERTEX
8
GIGN01
10
0
20
0
30
0
70
128
71
115
72
112
73
113
0
VERTEX
8
GIGN01
10
0
20
0
30
0
70
128
71
112
72
115
73
114
0
VERTEX
8
GIGN01
10
0
20
0
30
0
70
128
71
114
72
109
73
112
0
VERTEX
8
GIGN01
10
0
20
0
30
0
70
128
71
116
72
109
73
114
0
VERTEX
8
GIGN01
10
0
20
0
30
0
70
128
71
116
72
114
73
115
0
VERTEX
8
GIGN01
10
0
20
0
30
0
70
128
71
115
72
117
73
116
0
VERTEX
8
GIGN01
10
0
20
0
30
0
70
128
71
120
72
116
73
119
0
VERTEX
8
GIGN01
10
0
20
0
30
0
70
128
71
119
72
116
73
117
0
VERTEX
8
GIGN01
10
0
20
0
30
0
70
128
71
62
72
119
73
117
0
VERTEX
8
GIGN01
10
0
20
0
30
0
70
128
71
62
72
122
73
119
0
VERTEX
8
GIGN01
10
0
20
0
30
0
70
128
71
119
72
122
73
120
0
VERTEX
8
GIGN01
10
0
20
0
30
0
70
128
71
120
72
122
73
121
0
VERTEX
8
GIGN01
10
0
20
0
30
0
70
128
71
121
72
118
73
120
0
VERTEX
8
GIGN01
10
0
20
0
30
0
70
128
71
116
72
120
73
118
0
VERTEX
8
GIGN01
10
0
20
0
30
0
70
128
71
122
72
62
73
121
0
VERTEX
8
GIGN01
10
0
20
0
30
0
70
128
71
121
72
62
73
118
0
VERTEX
8
GIGN01
10
0
20
0
30
0
70
128
71
59
72
118
73
62
0
VERTEX
8
GIGN01
10
0
20
0
30
0
70
128
71
124
72
126
73
125
0
VERTEX
8
GIGN01
10
0
20
0
30
0
70
128
71
123
72
126
73
124
0
VERTEX
8
GIGN01
10
0
20
0
30
0
70
128
71
127
72
123
73
124
0
VERTEX
8
GIGN01
10
0
20
0
30
0
70
128
71
127
72
63
73
123
0
VERTEX
8
GIGN01
10
0
20
0
30
0
70
128
71
63
72
126
73
123
0
VERTEX
8
GIGN01
10
0
20
0
30
0
70
128
71
126
72
63
73
109
0
VERTEX
8
GIGN01
10
0
20
0
30
0
70
128
71
126
72
109
73
116
0
VERTEX
8
GIGN01
10
0
20
0
30
0
70
128
71
126
72
116
73
125
0
VERTEX
8
GIGN01
10
0
20
0
30
0
70
128
71
125
72
116
73
118
0
VERTEX
8
GIGN01
10
0
20
0
30
0
70
128
71
125
72
118
73
124
0
VERTEX
8
GIGN01
10
0
20
0
30
0
70
128
71
118
72
127
73
124
0
VERTEX
8
GIGN01
10
0
20
0
30
0
70
128
71
59
72
127
73
118
0
VERTEX
8
GIGN01
10
0
20
0
30
0
70
128
71
63
72
127
73
285
0
VERTEX
8
GIGN01
10
0
20
0
30
0
70
128
71
128
72
59
73
73
0
VERTEX
8
GIGN01
10
0
20
0
30
0
70
128
71
69
72
128
73
73
0
VERTEX
8
GIGN01
10
0
20
0
30
0
70
128
71
69
72
73
73
70
0
VERTEX
8
GIGN01
10
0
20
0
30
0
70
128
71
69
72
129
73
128
0
VERTEX
8
GIGN01
10
0
20
0
30
0
70
128
71
64
72
286
73
69
0
VERTEX
8
GIGN01
10
0
20
0
30
0
70
128
71
56
72
130
73
58
0
VERTEX
8
GIGN01
10
0
20
0
30
0
70
128
71
131
72
58
73
130
0
VERTEX
8
GIGN01
10
0
20
0
30
0
70
128
71
58
72
131
73
74
0
VERTEX
8
GIGN01
10
0
20
0
30
0
70
128
71
132
72
67
73
131
0
VERTEX
8
GIGN01
10
0
20
0
30
0
70
128
71
132
72
241
73
67
0
VERTEX
8
GIGN01
10
0
20
0
30
0
70
128
71
131
72
67
73
72
0
VERTEX
8
GIGN01
10
0
20
0
30
0
70
128
71
131
72
72
73
74
0
VERTEX
8
GIGN01
10
0
20
0
30
0
70
128
71
82
72
87
73
133
0
VERTEX
8
GIGN01
10
0
20
0
30
0
70
128
71
133
72
83
73
82
0
VERTEX
8
GIGN01
10
0
20
0
30
0
70
128
71
133
72
135
73
83
0
VERTEX
8
GIGN01
10
0
20
0
30
0
70
128
71
84
72
83
73
135
0
VERTEX
8
GIGN01
10
0
20
0
30
0
70
128
71
136
72
87
73
111
0
VERTEX
8
GIGN01
10
0
20
0
30
0
70
128
71
133
72
136
73
138
0
VERTEX
8
GIGN01
10
0
20
0
30
0
70
128
71
138
72
135
73
133
0
VERTEX
8
GIGN01
10
0
20
0
30
0
70
128
71
138
72
137
73
135
0
VERTEX
8
GIGN01
10
0
20
0
30
0
70
128
71
139
72
135
73
137
0
VERTEX
8
GIGN01
10
0
20
0
30
0
70
128
71
134
72
139
73
137
0
VERTEX
8
GIGN01
10
0
20
0
30
0
70
128
71
133
72
87
73
136
0
VERTEX
8
GIGN01
10
0
20
0
30
0
70
128
71
135
72
139
73
140
0
VERTEX
8
GIGN01
10
0
20
0
30
0
70
128
71
84
72
135
73
140
0
VERTEX
8
GIGN01
10
0
20
0
30
0
70
128
71
144
72
143
73
142
0
VERTEX
8
GIGN01
10
0
20
0
30
0
70
128
71
141
72
142
73
143
0
VERTEX
8
GIGN01
10
0
20
0
30
0
70
128
71
146
72
148
73
149
0
VERTEX
8
GIGN01
10
0
20
0
30
0
70
128
71
145
72
148
73
146
0
VERTEX
8
GIGN01
10
0
20
0
30
0
70
128
71
147
72
146
73
149
0
VERTEX
8
GIGN01
10
0
20
0
30
0
70
128
71
147
72
149
73
150
0
VERTEX
8
GIGN01
10
0
20
0
30
0
70
128
71
150
72
143
73
144
0
VERTEX
8
GIGN01
10
0
20
0
30
0
70
128
71
143
72
150
73
149
0
VERTEX
8
GIGN01
10
0
20
0
30
0
70
128
71
149
72
148
73
143
0
VERTEX
8
GIGN01
10
0
20
0
30
0
70
128
71
146
72
152
73
153
0
VERTEX
8
GIGN01
10
0
20
0
30
0
70
128
71
145
72
146
73
153
0
VERTEX
8
GIGN01
10
0
20
0
30
0
70
128
71
146
72
147
73
152
0
VERTEX
8
GIGN01
10
0
20
0
30
0
70
128
71
147
72
151
73
152
0
VERTEX
8
GIGN01
10
0
20
0
30
0
70
128
71
153
72
152
73
142
0
VERTEX
8
GIGN01
10
0
20
0
30
0
70
128
71
151
72
144
73
142
0
VERTEX
8
GIGN01
10
0
20
0
30
0
70
128
71
152
72
151
73
142
0
VERTEX
8
GIGN01
10
0
20
0
30
0
70
128
71
145
72
153
73
155
0
VERTEX
8
GIGN01
10
0
20
0
30
0
70
128
71
153
72
154
73
155
0
VERTEX
8
GIGN01
10
0
20
0
30
0
70
128
71
154
72
111
73
134
0
VERTEX
8
GIGN01
10
0
20
0
30
0
70
128
71
154
72
157
73
111
0
VERTEX
8
GIGN01
10
0
20
0
30
0
70
128
71
111
72
157
73
136
0
VERTEX
8
GIGN01
10
0
20
0
30
0
70
128
71
137
72
155
73
134
0
VERTEX
8
GIGN01
10
0
20
0
30
0
70
128
71
134
72
155
73
154
0
VERTEX
8
GIGN01
10
0
20
0
30
0
70
128
71
158
72
155
73
138
0
VERTEX
8
GIGN01
10
0
20
0
30
0
70
128
71
145
72
155
73
148
0
VERTEX
8
GIGN01
10
0
20
0
30
0
70
128
71
158
72
148
73
155
0
VERTEX
8
GIGN01
10
0
20
0
30
0
70
128
71
138
72
156
73
158
0
VERTEX
8
GIGN01
10
0
20
0
30
0
70
128
71
137
72
138
73
155
0
VERTEX
8
GIGN01
10
0
20
0
30
0
70
128
71
156
72
138
73
136
0
VERTEX
8
GIGN01
10
0
20
0
30
0
70
128
71
157
72
156
73
136
0
VERTEX
8
GIGN01
10
0
20
0
30
0
70
128
71
157
72
154
73
153
0
VERTEX
8
GIGN01
10
0
20
0
30
0
70
128
71
158
72
156
73
148
0
VERTEX
8
GIGN01
10
0
20
0
30
0
70
128
71
163
72
142
73
141
0
VERTEX
8
GIGN01
10
0
20
0
30
0
70
128
71
141
72
156
73
163
0
VERTEX
8
GIGN01
10
0
20
0
30
0
70
128
71
156
72
157
73
163
0
VERTEX
8
GIGN01
10
0
20
0
30
0
70
128
71
163
72
157
73
153
0
VERTEX
8
GIGN01
10
0
20
0
30
0
70
128
71
163
72
153
73
142
0
VERTEX
8
GIGN01
10
0
20
0
30
0
70
128
71
141
72
148
73
156
0
VERTEX
8
GIGN01
10
0
20
0
30
0
70
128
71
141
72
143
73
148
0
VERTEX
8
GIGN01
10
0
20
0
30
0
70
128
71
147
72
161
73
162
0
VERTEX
8
GIGN01
10
0
20
0
30
0
70
128
71
150
72
161
73
147
0
VERTEX
8
GIGN01
10
0
20
0
30
0
70
128
71
144
72
151
73
160
0
VERTEX
8
GIGN01
10
0
20
0
30
0
70
128
71
151
72
159
73
160
0
VERTEX
8
GIGN01
10
0
20
0
30
0
70
128
71
160
72
150
73
144
0
VERTEX
8
GIGN01
10
0
20
0
30
0
70
128
71
150
72
160
73
161
0
VERTEX
8
GIGN01
10
0
20
0
30
0
70
128
71
159
72
151
73
147
0
VERTEX
8
GIGN01
10
0
20
0
30
0
70
128
71
162
72
159
73
147
0
VERTEX
8
GIGN01
10
0
20
0
30
0
70
128
71
111
72
140
73
139
0
VERTEX
8
GIGN01
10
0
20
0
30
0
70
128
71
111
72
139
73
134
0
VERTEX
8
GIGN01
10
0
20
0
30
0
70
128
71
81
72
164
73
88
0
VERTEX
8
GIGN01
10
0
20
0
30
0
70
128
71
164
72
81
73
86
0
VERTEX
8
GIGN01
10
0
20
0
30
0
70
128
71
164
72
86
73
166
0
VERTEX
8
GIGN01
10
0
20
0
30
0
70
128
71
85
72
166
73
86
0
VERTEX
8
GIGN01
10
0
20
0
30
0
70
128
71
167
72
111
73
88
0
VERTEX
8
GIGN01
10
0
20
0
30
0
70
128
71
164
72
169
73
167
0
VERTEX
8
GIGN01
10
0
20
0
30
0
70
128
71
169
72
164
73
166
0
VERTEX
8
GIGN01
10
0
20
0
30
0
70
128
71
169
72
166
73
168
0
VERTEX
8
GIGN01
10
0
20
0
30
0
70
128
71
170
72
168
73
166
0
VERTEX
8
GIGN01
10
0
20
0
30
0
70
128
71
165
72
168
73
170
0
VERTEX
8
GIGN01
10
0
20
0
30
0
70
128
71
164
72
167
73
88
0
VERTEX
8
GIGN01
10
0
20
0
30
0
70
128
71
166
72
140
73
170
0
VERTEX
8
GIGN01
10
0
20
0
30
0
70
128
71
85
72
140
73
166
0
VERTEX
8
GIGN01
10
0
20
0
30
0
70
128
71
111
72
170
73
140
0
VERTEX
8
GIGN01
10
0
20
0
30
0
70
128
71
111
72
165
73
170
0
VERTEX
8
GIGN01
10
0
20
0
30
0
70
128
71
84
72
140
73
85
0
VERTEX
8
GIGN01
10
0
20
0
30
0
70
128
71
177
72
171
73
56
0
VERTEX
8
GIGN01
10
0
20
0
30
0
70
128
71
177
72
102
73
180
0
VERTEX
8
GIGN01
10
0
20
0
30
0
70
128
71
56
72
175
73
99
0
VERTEX
8
GIGN01
10
0
20
0
30
0
70
128
71
175
72
56
73
171
0
VERTEX
8
GIGN01
10
0
20
0
30
0
70
128
71
104
72
180
73
102
0
VERTEX
8
GIGN01
10
0
20
0
30
0
70
128
71
180
72
104
73
182
0
VERTEX
8
GIGN01
10
0
20
0
30
0
70
128
71
99
72
174
73
66
0
VERTEX
8
GIGN01
10
0
20
0
30
0
70
128
71
174
72
99
73
175
0
VERTEX
8
GIGN01
10
0
20
0
30
0
70
128
71
66
72
182
73
104
0
VERTEX
8
GIGN01
10
0
20
0
30
0
70
128
71
182
72
66
73
174
0
VERTEX
8
GIGN01
10
0
20
0
30
0
70
128
71
103
72
173
73
64
0
VERTEX
8
GIGN01
10
0
20
0
30
0
70
128
71
173
72
103
73
181
0
VERTEX
8
GIGN01
10
0
20
0
30
0
70
128
71
101
72
181
73
103
0
VERTEX
8
GIGN01
10
0
20
0
30
0
70
128
71
181
72
101
73
179
0
VERTEX
8
GIGN01
10
0
20
0
30
0
70
128
71
64
72
176
73
100
0
VERTEX
8
GIGN01
10
0
20
0
30
0
70
128
71
176
72
64
73
173
0
VERTEX
8
GIGN01
10
0
20
0
30
0
70
128
71
100
72
172
73
57
0
VERTEX
8
GIGN01
10
0
20
0
30
0
70
128
71
172
72
100
73
176
0
VERTEX
8
GIGN01
10
0
20
0
30
0
70
128
71
178
72
57
73
172
0
VERTEX
8
GIGN01
10
0
20
0
30
0
70
128
71
178
72
179
73
101
0
VERTEX
8
GIGN01
10
0
20
0
30
0
70
128
71
283
72
188
73
177
0
VERTEX
8
GIGN01
10
0
20
0
30
0
70
128
71
188
72
283
73
282
0
VERTEX
8
GIGN01
10
0
20
0
30
0
70
128
71
187
72
189
73
101
0
VERTEX
8
GIGN01
10
0
20
0
30
0
70
128
71
102
72
177
73
188
0
VERTEX
8
GIGN01
10
0
20
0
30
0
70
128
71
285
72
184
73
63
0
VERTEX
8
GIGN01
10
0
20
0
30
0
70
128
71
184
72
285
73
284
0
VERTEX
8
GIGN01
10
0
20
0
30
0
70
128
71
193
72
191
73
192
0
VERTEX
8
GIGN01
10
0
20
0
30
0
70
128
71
192
72
191
73
190
0
VERTEX
8
GIGN01
10
0
20
0
30
0
70
128
71
195
72
197
73
196
0
VERTEX
8
GIGN01
10
0
20
0
30
0
70
128
71
190
72
202
73
192
0
VERTEX
8
GIGN01
10
0
20
0
30
0
70
128
71
190
72
203
73
202
0
VERTEX
8
GIGN01
10
0
20
0
30
0
70
128
71
203
72
195
73
202
0
VERTEX
8
GIGN01
10
0
20
0
30
0
70
128
71
202
72
195
73
232
0
VERTEX
8
GIGN01
10
0
20
0
30
0
70
128
71
231
72
196
73
201
0
VERTEX
8
GIGN01
10
0
20
0
30
0
70
128
71
201
72
197
73
200
0
VERTEX
8
GIGN01
10
0
20
0
30
0
70
128
71
193
72
201
73
200
0
VERTEX
8
GIGN01
10
0
20
0
30
0
70
128
71
200
72
191
73
193
0
VERTEX
8
GIGN01
10
0
20
0
30
0
70
128
71
209
72
206
73
208
0
VERTEX
8
GIGN01
10
0
20
0
30
0
70
128
71
208
72
206
73
207
0
VERTEX
8
GIGN01
10
0
20
0
30
0
70
128
71
210
72
212
73
211
0
VERTEX
8
GIGN01
10
0
20
0
30
0
70
128
71
210
72
213
73
212
0
VERTEX
8
GIGN01
10
0
20
0
30
0
70
128
71
211
72
208
73
210
0
VERTEX
8
GIGN01
10
0
20
0
30
0
70
128
71
207
72
210
73
208
0
VERTEX
8
GIGN01
10
0
20
0
30
0
70
128
71
214
72
206
73
213
0
VERTEX
8
GIGN01
10
0
20
0
30
0
70
128
71
213
72
206
73
212
0
VERTEX
8
GIGN01
10
0
20
0
30
0
70
128
71
212
72
206
73
209
0
VERTEX
8
GIGN01
10
0
20
0
30
0
70
128
71
216
72
220
73
219
0
VERTEX
8
GIGN01
10
0
20
0
30
0
70
128
71
216
72
219
73
217
0
VERTEX
8
GIGN01
10
0
20
0
30
0
70
128
71
219
72
205
73
217
0
VERTEX
8
GIGN01
10
0
20
0
30
0
70
128
71
205
72
219
73
218
0
VERTEX
8
GIGN01
10
0
20
0
30
0
70
128
71
220
72
218
73
219
0
VERTEX
8
GIGN01
10
0
20
0
30
0
70
128
71
221
72
218
73
220
0
VERTEX
8
GIGN01
10
0
20
0
30
0
70
128
71
216
72
221
73
220
0
VERTEX
8
GIGN01
10
0
20
0
30
0
70
128
71
215
72
221
73
216
0
VERTEX
8
GIGN01
10
0
20
0
30
0
70
128
71
217
72
205
73
216
0
VERTEX
8
GIGN01
10
0
20
0
30
0
70
128
71
216
72
205
73
215
0
VERTEX
8
GIGN01
10
0
20
0
30
0
70
128
71
194
72
223
73
199
0
VERTEX
8
GIGN01
10
0
20
0
30
0
70
128
71
194
72
225
73
224
0
VERTEX
8
GIGN01
10
0
20
0
30
0
70
128
71
194
72
224
73
223
0
VERTEX
8
GIGN01
10
0
20
0
30
0
70
128
71
225
72
241
73
224
0
VERTEX
8
GIGN01
10
0
20
0
30
0
70
128
71
225
72
204
73
222
0
VERTEX
8
GIGN01
10
0
20
0
30
0
70
128
71
194
72
226
73
225
0
VERTEX
8
GIGN01
10
0
20
0
30
0
70
128
71
226
72
194
73
198
0
VERTEX
8
GIGN01
10
0
20
0
30
0
70
128
71
195
72
226
73
198
0
VERTEX
8
GIGN01
10
0
20
0
30
0
70
128
71
195
72
198
73
197
0
VERTEX
8
GIGN01
10
0
20
0
30
0
70
128
71
226
72
195
73
203
0
VERTEX
8
GIGN01
10
0
20
0
30
0
70
128
71
203
72
228
73
226
0
VERTEX
8
GIGN01
10
0
20
0
30
0
70
128
71
228
72
225
73
226
0
VERTEX
8
GIGN01
10
0
20
0
30
0
70
128
71
228
72
204
73
225
0
VERTEX
8
GIGN01
10
0
20
0
30
0
70
128
71
190
72
228
73
203
0
VERTEX
8
GIGN01
10
0
20
0
30
0
70
128
71
228
72
190
73
204
0
VERTEX
8
GIGN01
10
0
20
0
30
0
70
128
71
194
72
199
73
198
0
VERTEX
8
GIGN01
10
0
20
0
30
0
70
128
71
227
72
198
73
199
0
VERTEX
8
GIGN01
10
0
20
0
30
0
70
128
71
191
72
227
73
199
0
VERTEX
8
GIGN01
10
0
20
0
30
0
70
128
71
227
72
191
73
200
0
VERTEX
8
GIGN01
10
0
20
0
30
0
70
128
71
198
72
227
73
200
0
VERTEX
8
GIGN01
10
0
20
0
30
0
70
128
71
200
72
197
73
198
0
VERTEX
8
GIGN01
10
0
20
0
30
0
70
128
71
210
72
232
73
213
0
VERTEX
8
GIGN01
10
0
20
0
30
0
70
128
71
213
72
232
73
231
0
VERTEX
8
GIGN01
10
0
20
0
30
0
70
128
71
213
72
231
73
214
0
VERTEX
8
GIGN01
10
0
20
0
30
0
70
128
71
207
72
232
73
210
0
VERTEX
8
GIGN01
10
0
20
0
30
0
70
128
71
232
72
207
73
229
0
VERTEX
8
GIGN01
10
0
20
0
30
0
70
128
71
206
72
229
73
207
0
VERTEX
8
GIGN01
10
0
20
0
30
0
70
128
71
230
72
205
73
218
0
VERTEX
8
GIGN01
10
0
20
0
30
0
70
128
71
218
72
231
73
230
0
VERTEX
8
GIGN01
10
0
20
0
30
0
70
128
71
214
72
231
73
218
0
VERTEX
8
GIGN01
10
0
20
0
30
0
70
128
71
236
72
208
73
211
0
VERTEX
8
GIGN01
10
0
20
0
30
0
70
128
71
208
72
236
73
234
0
VERTEX
8
GIGN01
10
0
20
0
30
0
70
128
71
208
72
234
73
209
0
VERTEX
8
GIGN01
10
0
20
0
30
0
70
128
71
209
72
234
73
233
0
VERTEX
8
GIGN01
10
0
20
0
30
0
70
128
71
236
72
211
73
212
0
VERTEX
8
GIGN01
10
0
20
0
30
0
70
128
71
236
72
212
73
235
0
VERTEX
8
GIGN01
10
0
20
0
30
0
70
128
71
209
72
235
73
212
0
VERTEX
8
GIGN01
10
0
20
0
30
0
70
128
71
235
72
209
73
233
0
VERTEX
8
GIGN01
10
0
20
0
30
0
70
128
71
235
72
233
73
234
0
VERTEX
8
GIGN01
10
0
20
0
30
0
70
128
71
234
72
236
73
235
0
VERTEX
8
GIGN01
10
0
20
0
30
0
70
128
71
221
72
214
73
218
0
VERTEX
8
GIGN01
10
0
20
0
30
0
70
128
71
221
72
206
73
214
0
VERTEX
8
GIGN01
10
0
20
0
30
0
70
128
71
206
72
221
73
215
0
VERTEX
8
GIGN01
10
0
20
0
30
0
70
128
71
205
72
230
73
215
0
VERTEX
8
GIGN01
10
0
20
0
30
0
70
128
71
229
72
206
73
215
0
VERTEX
8
GIGN01
10
0
20
0
30
0
70
128
71
215
72
230
73
229
0
VERTEX
8
GIGN01
10
0
20
0
30
0
70
128
71
238
72
190
73
191
0
VERTEX
8
GIGN01
10
0
20
0
30
0
70
128
71
238
72
191
73
237
0
VERTEX
8
GIGN01
10
0
20
0
30
0
70
128
71
190
72
238
73
204
0
VERTEX
8
GIGN01
10
0
20
0
30
0
70
128
71
204
72
238
73
222
0
VERTEX
8
GIGN01
10
0
20
0
30
0
70
128
71
130
72
238
73
237
0
VERTEX
8
GIGN01
10
0
20
0
30
0
70
128
71
238
72
239
73
222
0
VERTEX
8
GIGN01
10
0
20
0
30
0
70
128
71
237
72
191
73
199
0
VERTEX
8
GIGN01
10
0
20
0
30
0
70
128
71
130
72
237
73
131
0
VERTEX
8
GIGN01
10
0
20
0
30
0
70
128
71
237
72
199
73
223
0
VERTEX
8
GIGN01
10
0
20
0
30
0
70
128
71
192
72
230
73
193
0
VERTEX
8
GIGN01
10
0
20
0
30
0
70
128
71
230
72
192
73
229
0
VERTEX
8
GIGN01
10
0
20
0
30
0
70
128
71
229
72
192
73
202
0
VERTEX
8
GIGN01
10
0
20
0
30
0
70
128
71
202
72
232
73
229
0
VERTEX
8
GIGN01
10
0
20
0
30
0
70
128
71
196
72
232
73
195
0
VERTEX
8
GIGN01
10
0
20
0
30
0
70
128
71
232
72
196
73
231
0
VERTEX
8
GIGN01
10
0
20
0
30
0
70
128
71
196
72
197
73
201
0
VERTEX
8
GIGN01
10
0
20
0
30
0
70
128
71
231
72
201
73
230
0
VERTEX
8
GIGN01
10
0
20
0
30
0
70
128
71
193
72
230
73
201
0
VERTEX
8
GIGN01
10
0
20
0
30
0
70
128
71
239
72
56
73
99
0
VERTEX
8
GIGN01
10
0
20
0
30
0
70
128
71
222
72
239
73
240
0
VERTEX
8
GIGN01
10
0
20
0
30
0
70
128
71
239
72
130
73
56
0
VERTEX
8
GIGN01
10
0
20
0
30
0
70
128
71
241
72
240
73
66
0
VERTEX
8
GIGN01
10
0
20
0
30
0
70
128
71
241
72
225
73
222
0
VERTEX
8
GIGN01
10
0
20
0
30
0
70
128
71
224
72
241
73
132
0
VERTEX
8
GIGN01
10
0
20
0
30
0
70
128
71
131
72
223
73
132
0
VERTEX
8
GIGN01
10
0
20
0
30
0
70
128
71
132
72
223
73
224
0
VERTEX
8
GIGN01
10
0
20
0
30
0
70
128
71
223
72
131
73
237
0
VERTEX
8
GIGN01
10
0
20
0
30
0
70
128
71
238
72
130
73
239
0
VERTEX
8
GIGN01
10
0
20
0
30
0
70
128
71
239
72
99
73
240
0
VERTEX
8
GIGN01
10
0
20
0
30
0
70
128
71
241
72
66
73
67
0
VERTEX
8
GIGN01
10
0
20
0
30
0
70
128
71
240
72
241
73
222
0
VERTEX
8
GIGN01
10
0
20
0
30
0
70
128
71
66
72
240
73
99
0
VERTEX
8
GIGN01
10
0
20
0
30
0
70
128
71
59
72
242
73
57
0
VERTEX
8
GIGN01
10
0
20
0
30
0
70
128
71
242
72
59
73
128
0
VERTEX
8
GIGN01
10
0
20
0
30
0
70
128
71
248
72
246
73
247
0
VERTEX
8
GIGN01
10
0
20
0
30
0
70
128
71
248
72
245
73
246
0
VERTEX
8
GIGN01
10
0
20
0
30
0
70
128
71
248
72
244
73
245
0
VERTEX
8
GIGN01
10
0
20
0
30
0
70
128
71
249
72
244
73
248
0
VERTEX
8
GIGN01
10
0
20
0
30
0
70
128
71
249
72
243
73
244
0
VERTEX
8
GIGN01
10
0
20
0
30
0
70
128
71
250
72
243
73
249
0
VERTEX
8
GIGN01
10
0
20
0
30
0
70
128
71
254
72
256
73
255
0
VERTEX
8
GIGN01
10
0
20
0
30
0
70
128
71
253
72
256
73
254
0
VERTEX
8
GIGN01
10
0
20
0
30
0
70
128
71
252
72
256
73
253
0
VERTEX
8
GIGN01
10
0
20
0
30
0
70
128
71
252
72
257
73
256
0
VERTEX
8
GIGN01
10
0
20
0
30
0
70
128
71
251
72
257
73
252
0
VERTEX
8
GIGN01
10
0
20
0
30
0
70
128
71
251
72
258
73
257
0
VERTEX
8
GIGN01
10
0
20
0
30
0
70
128
71
256
72
247
73
255
0
VERTEX
8
GIGN01
10
0
20
0
30
0
70
128
71
247
72
256
73
248
0
VERTEX
8
GIGN01
10
0
20
0
30
0
70
128
71
246
72
255
73
247
0
VERTEX
8
GIGN01
10
0
20
0
30
0
70
128
71
255
72
246
73
254
0
VERTEX
8
GIGN01
10
0
20
0
30
0
70
128
71
254
72
246
73
253
0
VERTEX
8
GIGN01
10
0
20
0
30
0
70
128
71
245
72
253
73
246
0
VERTEX
8
GIGN01
10
0
20
0
30
0
70
128
71
253
72
245
73
252
0
VERTEX
8
GIGN01
10
0
20
0
30
0
70
128
71
244
72
252
73
245
0
VERTEX
8
GIGN01
10
0
20
0
30
0
70
128
71
243
72
252
73
244
0
VERTEX
8
GIGN01
10
0
20
0
30
0
70
128
71
252
72
243
73
251
0
VERTEX
8
GIGN01
10
0
20
0
30
0
70
128
71
243
72
258
73
251
0
VERTEX
8
GIGN01
10
0
20
0
30
0
70
128
71
258
72
243
73
250
0
VERTEX
8
GIGN01
10
0
20
0
30
0
70
128
71
258
72
250
73
257
0
VERTEX
8
GIGN01
10
0
20
0
30
0
70
128
71
249
72
257
73
250
0
VERTEX
8
GIGN01
10
0
20
0
30
0
70
128
71
257
72
249
73
256
0
VERTEX
8
GIGN01
10
0
20
0
30
0
70
128
71
248
72
256
73
249
0
VERTEX
8
GIGN01
10
0
20
0
30
0
70
128
71
259
72
260
73
261
0
VERTEX
8
GIGN01
10
0
20
0
30
0
70
128
71
262
72
261
73
260
0
VERTEX
8
GIGN01
10
0
20
0
30
0
70
128
71
263
72
264
73
265
0
VERTEX
8
GIGN01
10
0
20
0
30
0
70
128
71
263
72
266
73
264
0
VERTEX
8
GIGN01
10
0
20
0
30
0
70
128
71
267
72
266
73
263
0
VERTEX
8
GIGN01
10
0
20
0
30
0
70
128
71
267
72
268
73
266
0
VERTEX
8
GIGN01
10
0
20
0
30
0
70
128
71
268
72
261
73
266
0
VERTEX
8
GIGN01
10
0
20
0
30
0
70
128
71
261
72
268
73
259
0
VERTEX
8
GIGN01
10
0
20
0
30
0
70
128
71
266
72
261
73
264
0
VERTEX
8
GIGN01
10
0
20
0
30
0
70
128
71
265
72
269
73
263
0
VERTEX
8
GIGN01
10
0
20
0
30
0
70
128
71
269
72
270
73
263
0
VERTEX
8
GIGN01
10
0
20
0
30
0
70
128
71
263
72
270
73
267
0
VERTEX
8
GIGN01
10
0
20
0
30
0
70
128
71
267
72
270
73
271
0
VERTEX
8
GIGN01
10
0
20
0
30
0
70
128
71
269
72
260
73
270
0
VERTEX
8
GIGN01
10
0
20
0
30
0
70
128
71
270
72
260
73
271
0
VERTEX
8
GIGN01
10
0
20
0
30
0
70
128
71
260
72
259
73
271
0
VERTEX
8
GIGN01
10
0
20
0
30
0
70
128
71
265
72
272
73
269
0
VERTEX
8
GIGN01
10
0
20
0
30
0
70
128
71
269
72
272
73
273
0
VERTEX
8
GIGN01
10
0
20
0
30
0
70
128
71
273
72
165
73
111
0
VERTEX
8
GIGN01
10
0
20
0
30
0
70
128
71
273
72
111
73
274
0
VERTEX
8
GIGN01
10
0
20
0
30
0
70
128
71
111
72
167
73
274
0
VERTEX
8
GIGN01
10
0
20
0
30
0
70
128
71
168
72
165
73
272
0
VERTEX
8
GIGN01
10
0
20
0
30
0
70
128
71
165
72
273
73
272
0
VERTEX
8
GIGN01
10
0
20
0
30
0
70
128
71
169
72
168
73
272
0
VERTEX
8
GIGN01
10
0
20
0
30
0
70
128
71
264
72
275
73
272
0
VERTEX
8
GIGN01
10
0
20
0
30
0
70
128
71
272
72
265
73
264
0
VERTEX
8
GIGN01
10
0
20
0
30
0
70
128
71
169
72
275
73
276
0
VERTEX
8
GIGN01
10
0
20
0
30
0
70
128
71
272
72
275
73
169
0
VERTEX
8
GIGN01
10
0
20
0
30
0
70
128
71
276
72
167
73
169
0
VERTEX
8
GIGN01
10
0
20
0
30
0
70
128
71
274
72
167
73
276
0
VERTEX
8
GIGN01
10
0
20
0
30
0
70
128
71
274
72
269
73
273
0
VERTEX
8
GIGN01
10
0
20
0
30
0
70
128
71
275
72
264
73
276
0
VERTEX
8
GIGN01
10
0
20
0
30
0
70
128
71
281
72
262
73
260
0
VERTEX
8
GIGN01
10
0
20
0
30
0
70
128
71
262
72
281
73
276
0
VERTEX
8
GIGN01
10
0
20
0
30
0
70
128
71
276
72
281
73
274
0
VERTEX
8
GIGN01
10
0
20
0
30
0
70
128
71
281
72
269
73
274
0
VERTEX
8
GIGN01
10
0
20
0
30
0
70
128
71
281
72
260
73
269
0
VERTEX
8
GIGN01
10
0
20
0
30
0
70
128
71
262
72
276
73
264
0
VERTEX
8
GIGN01
10
0
20
0
30
0
70
128
71
262
72
264
73
261
0
VERTEX
8
GIGN01
10
0
20
0
30
0
70
128
71
267
72
278
73
268
0
VERTEX
8
GIGN01
10
0
20
0
30
0
70
128
71
267
72
277
73
278
0
VERTEX
8
GIGN01
10
0
20
0
30
0
70
128
71
259
72
279
73
271
0
VERTEX
8
GIGN01
10
0
20
0
30
0
70
128
71
271
72
279
73
280
0
VERTEX
8
GIGN01
10
0
20
0
30
0
70
128
71
279
72
259
73
268
0
VERTEX
8
GIGN01
10
0
20
0
30
0
70
128
71
268
72
278
73
279
0
VERTEX
8
GIGN01
10
0
20
0
30
0
70
128
71
280
72
267
73
271
0
VERTEX
8
GIGN01
10
0
20
0
30
0
70
128
71
277
72
267
73
280
0
VERTEX
8
GIGN01
10
0
20
0
30
0
70
128
71
282
72
63
73
184
0
VERTEX
8
GIGN01
10
0
20
0
30
0
70
128
71
183
72
282
73
184
0
VERTEX
8
GIGN01
10
0
20
0
30
0
70
128
71
283
72
63
73
282
0
VERTEX
8
GIGN01
10
0
20
0
30
0
70
128
71
283
72
58
73
63
0
VERTEX
8
GIGN01
10
0
20
0
30
0
70
128
71
58
72
110
73
63
0
VERTEX
8
GIGN01
10
0
20
0
30
0
70
128
71
284
72
178
73
189
0
VERTEX
8
GIGN01
10
0
20
0
30
0
70
128
71
189
72
183
73
284
0
VERTEX
8
GIGN01
10
0
20
0
30
0
70
128
71
285
72
178
73
284
0
VERTEX
8
GIGN01
10
0
20
0
30
0
70
128
71
285
72
127
73
178
0
VERTEX
8
GIGN01
10
0
20
0
30
0
70
128
71
127
72
59
73
178
0
VERTEX
8
GIGN01
10
0
20
0
30
0
70
128
71
287
72
100
73
57
0
VERTEX
8
GIGN01
10
0
20
0
30
0
70
128
71
287
72
57
73
242
0
VERTEX
8
GIGN01
10
0
20
0
30
0
70
128
71
286
72
64
73
288
0
VERTEX
8
GIGN01
10
0
20
0
30
0
70
128
71
287
72
288
73
100
0
VERTEX
8
GIGN01
10
0
20
0
30
0
70
128
71
286
72
129
73
69
0
VERTEX
8
GIGN01
10
0
20
0
30
0
70
128
71
64
72
100
73
288
0
VERTEX
8
GIGN01
10
0
20
0
30
0
70
128
71
289
72
290
73
291
0
VERTEX
8
GIGN01
10
0
20
0
30
0
70
128
71
292
72
289
73
291
0
VERTEX
8
GIGN01
10
0
20
0
30
0
70
128
71
293
72
294
73
295
0
VERTEX
8
GIGN01
10
0
20
0
30
0
70
128
71
294
72
296
73
295
0
VERTEX
8
GIGN01
10
0
20
0
30
0
70
128
71
292
72
291
73
297
0
VERTEX
8
GIGN01
10
0
20
0
30
0
70
128
71
291
72
298
73
297
0
VERTEX
8
GIGN01
10
0
20
0
30
0
70
128
71
299
72
297
73
300
0
VERTEX
8
GIGN01
10
0
20
0
30
0
70
128
71
301
72
302
73
303
0
VERTEX
8
GIGN01
10
0
20
0
30
0
70
128
71
295
72
296
73
303
0
VERTEX
8
GIGN01
10
0
20
0
30
0
70
128
71
291
72
301
73
298
0
VERTEX
8
GIGN01
10
0
20
0
30
0
70
128
71
294
72
293
73
297
0
VERTEX
8
GIGN01
10
0
20
0
30
0
70
128
71
297
72
298
73
294
0
VERTEX
8
GIGN01
10
0
20
0
30
0
70
128
71
296
72
301
73
303
0
VERTEX
8
GIGN01
10
0
20
0
30
0
70
128
71
297
72
293
73
295
0
VERTEX
8
GIGN01
10
0
20
0
30
0
70
128
71
300
72
297
73
295
0
VERTEX
8
GIGN01
10
0
20
0
30
0
70
128
71
303
72
300
73
295
0
VERTEX
8
GIGN01
10
0
20
0
30
0
70
128
71
302
72
300
73
303
0
VERTEX
8
GIGN01
10
0
20
0
30
0
70
128
71
304
72
291
73
290
0
VERTEX
8
GIGN01
10
0
20
0
30
0
70
128
71
290
72
305
73
304
0
VERTEX
8
GIGN01
10
0
20
0
30
0
70
128
71
305
72
290
73
289
0
VERTEX
8
GIGN01
10
0
20
0
30
0
70
128
71
299
72
305
73
289
0
VERTEX
8
GIGN01
10
0
20
0
30
0
70
128
71
299
72
289
73
292
0
VERTEX
8
GIGN01
10
0
20
0
30
0
70
128
71
298
72
301
73
296
0
VERTEX
8
GIGN01
10
0
20
0
30
0
70
128
71
296
72
294
73
298
0
VERTEX
8
GIGN01
10
0
20
0
30
0
70
128
71
304
72
302
73
301
0
VERTEX
8
GIGN01
10
0
20
0
30
0
70
128
71
304
72
301
73
291
0
VERTEX
8
GIGN01
10
0
20
0
30
0
70
128
71
292
72
297
73
299
0
VERTEX
8
GIGN01
10
0
20
0
30
0
70
128
71
300
72
302
73
299
0
VERTEX
8
GIGN01
10
0
20
0
30
0
70
128
71
162
72
161
73
305
0
VERTEX
8
GIGN01
10
0
20
0
30
0
70
128
71
305
72
161
73
304
0
VERTEX
8
GIGN01
10
0
20
0
30
0
70
128
71
161
72
160
73
304
0
VERTEX
8
GIGN01
10
0
20
0
30
0
70
128
71
302
72
304
73
160
0
VERTEX
8
GIGN01
10
0
20
0
30
0
70
128
71
160
72
299
73
302
0
VERTEX
8
GIGN01
10
0
20
0
30
0
70
128
71
160
72
159
73
299
0
VERTEX
8
GIGN01
10
0
20
0
30
0
70
128
71
305
72
299
73
159
0
VERTEX
8
GIGN01
10
0
20
0
30
0
70
128
71
305
72
159
73
162
0
VERTEX
8
GIGN01
10
0
20
0
30
0
70
128
71
21
72
43
73
51
0
VERTEX
8
GIGN01
10
0
20
0
30
0
70
128
71
51
72
53
73
306
0
VERTEX
8
GIGN01
10
0
20
0
30
0
70
128
71
51
72
306
73
21
0
VERTEX
8
GIGN01
10
0
20
0
30
0
70
128
71
52
72
307
73
48
0
VERTEX
8
GIGN01
10
0
20
0
30
0
70
128
71
307
72
52
73
50
0
VERTEX
8
GIGN01
10
0
20
0
30
0
70
128
71
50
72
42
73
48
0
VERTEX
8
GIGN01
10
0
20
0
30
0
70
128
71
50
72
48
73
307
0
VERTEX
8
GIGN01
10
0
20
0
30
0
70
128
71
308
72
310
73
309
0
VERTEX
8
GIGN01
10
0
20
0
30
0
70
128
71
310
72
311
73
309
0
VERTEX
8
GIGN01
10
0
20
0
30
0
70
128
71
312
72
314
73
313
0
VERTEX
8
GIGN01
10
0
20
0
30
0
70
128
71
311
72
310
73
315
0
VERTEX
8
GIGN01
10
0
20
0
30
0
70
128
71
311
72
315
73
316
0
VERTEX
8
GIGN01
10
0
20
0
30
0
70
128
71
316
72
315
73
312
0
VERTEX
8
GIGN01
10
0
20
0
30
0
70
128
71
315
72
317
73
312
0
VERTEX
8
GIGN01
10
0
20
0
30
0
70
128
71
318
72
319
73
314
0
VERTEX
8
GIGN01
10
0
20
0
30
0
70
128
71
319
72
320
73
313
0
VERTEX
8
GIGN01
10
0
20
0
30
0
70
128
71
308
72
320
73
319
0
VERTEX
8
GIGN01
10
0
20
0
30
0
70
128
71
320
72
308
73
309
0
VERTEX
8
GIGN01
10
0
20
0
30
0
70
128
71
321
72
323
73
322
0
VERTEX
8
GIGN01
10
0
20
0
30
0
70
128
71
323
72
324
73
322
0
VERTEX
8
GIGN01
10
0
20
0
30
0
70
128
71
325
72
327
73
326
0
VERTEX
8
GIGN01
10
0
20
0
30
0
70
128
71
325
72
326
73
328
0
VERTEX
8
GIGN01
10
0
20
0
30
0
70
128
71
327
72
325
73
323
0
VERTEX
8
GIGN01
10
0
20
0
30
0
70
128
71
324
72
323
73
325
0
VERTEX
8
GIGN01
10
0
20
0
30
0
70
128
71
329
72
328
73
322
0
VERTEX
8
GIGN01
10
0
20
0
30
0
70
128
71
328
72
326
73
322
0
VERTEX
8
GIGN01
10
0
20
0
30
0
70
128
71
326
72
321
73
322
0
VERTEX
8
GIGN01
10
0
20
0
30
0
70
128
71
330
72
332
73
331
0
VERTEX
8
GIGN01
10
0
20
0
30
0
70
128
71
330
72
333
73
332
0
VERTEX
8
GIGN01
10
0
20
0
30
0
70
128
71
332
72
333
73
334
0
VERTEX
8
GIGN01
10
0
20
0
30
0
70
128
71
334
72
335
73
332
0
VERTEX
8
GIGN01
10
0
20
0
30
0
70
128
71
331
72
332
73
335
0
VERTEX
8
GIGN01
10
0
20
0
30
0
70
128
71
336
72
331
73
335
0
VERTEX
8
GIGN01
10
0
20
0
30
0
70
128
71
330
72
331
73
336
0
VERTEX
8
GIGN01
10
0
20
0
30
0
70
128
71
337
72
330
73
336
0
VERTEX
8
GIGN01
10
0
20
0
30
0
70
128
71
333
72
330
73
334
0
VERTEX
8
GIGN01
10
0
20
0
30
0
70
128
71
330
72
337
73
334
0
VERTEX
8
GIGN01
10
0
20
0
30
0
70
128
71
338
72
340
73
339
0
VERTEX
8
GIGN01
10
0
20
0
30
0
70
128
71
338
72
342
73
341
0
VERTEX
8
GIGN01
10
0
20
0
30
0
70
128
71
338
72
339
73
342
0
VERTEX
8
GIGN01
10
0
20
0
30
0
70
128
71
341
72
342
73
286
0
VERTEX
8
GIGN01
10
0
20
0
30
0
70
128
71
341
72
344
73
343
0
VERTEX
8
GIGN01
10
0
20
0
30
0
70
128
71
338
72
341
73
345
0
VERTEX
8
GIGN01
10
0
20
0
30
0
70
128
71
345
72
346
73
338
0
VERTEX
8
GIGN01
10
0
20
0
30
0
70
128
71
312
72
346
73
345
0
VERTEX
8
GIGN01
10
0
20
0
30
0
70
128
71
312
72
313
73
346
0
VERTEX
8
GIGN01
10
0
20
0
30
0
70
128
71
345
72
316
73
312
0
VERTEX
8
GIGN01
10
0
20
0
30
0
70
128
71
316
72
345
73
347
0
VERTEX
8
GIGN01
10
0
20
0
30
0
70
128
71
347
72
345
73
341
0
VERTEX
8
GIGN01
10
0
20
0
30
0
70
128
71
347
72
341
73
343
0
VERTEX
8
GIGN01
10
0
20
0
30
0
70
128
71
311
72
316
73
347
0
VERTEX
8
GIGN01
10
0
20
0
30
0
70
128
71
347
72
343
73
311
0
VERTEX
8
GIGN01
10
0
20
0
30
0
70
128
71
338
72
346
73
340
0
VERTEX
8
GIGN01
10
0
20
0
30
0
70
128
71
348
72
340
73
346
0
VERTEX
8
GIGN01
10
0
20
0
30
0
70
128
71
309
72
340
73
348
0
VERTEX
8
GIGN01
10
0
20
0
30
0
70
128
71
348
72
320
73
309
0
VERTEX
8
GIGN01
10
0
20
0
30
0
70
128
71
346
72
320
73
348
0
VERTEX
8
GIGN01
10
0
20
0
30
0
70
128
71
320
72
346
73
313
0
VERTEX
8
GIGN01
10
0
20
0
30
0
70
128
71
325
72
328
73
317
0
VERTEX
8
GIGN01
10
0
20
0
30
0
70
128
71
328
72
318
73
317
0
VERTEX
8
GIGN01
10
0
20
0
30
0
70
128
71
328
72
329
73
318
0
VERTEX
8
GIGN01
10
0
20
0
30
0
70
128
71
324
72
325
73
317
0
VERTEX
8
GIGN01
10
0
20
0
30
0
70
128
71
317
72
349
73
324
0
VERTEX
8
GIGN01
10
0
20
0
30
0
70
128
71
322
72
324
73
349
0
VERTEX
8
GIGN01
10
0
20
0
30
0
70
128
71
350
72
335
73
334
0
VERTEX
8
GIGN01
10
0
20
0
30
0
70
128
71
335
72
350
73
318
0
VERTEX
8
GIGN01
10
0
20
0
30
0
70
128
71
329
72
335
73
318
0
VERTEX
8
GIGN01
10
0
20
0
30
0
70
128
71
351
72
327
73
323
0
VERTEX
8
GIGN01
10
0
20
0
30
0
70
128
71
323
72
352
73
351
0
VERTEX
8
GIGN01
10
0
20
0
30
0
70
128
71
323
72
321
73
352
0
VERTEX
8
GIGN01
10
0
20
0
30
0
70
128
71
321
72
353
73
352
0
VERTEX
8
GIGN01
10
0
20
0
30
0
70
128
71
351
72
326
73
327
0
VERTEX
8
GIGN01
10
0
20
0
30
0
70
128
71
351
72
354
73
326
0
VERTEX
8
GIGN01
10
0
20
0
30
0
70
128
71
321
72
326
73
354
0
VERTEX
8
GIGN01
10
0
20
0
30
0
70
128
71
354
72
353
73
321
0
VERTEX
8
GIGN01
10
0
20
0
30
0
70
128
71
354
72
352
73
353
0
VERTEX
8
GIGN01
10
0
20
0
30
0
70
128
71
352
72
354
73
351
0
VERTEX
8
GIGN01
10
0
20
0
30
0
70
128
71
336
72
335
73
329
0
VERTEX
8
GIGN01
10
0
20
0
30
0
70
128
71
336
72
329
73
322
0
VERTEX
8
GIGN01
10
0
20
0
30
0
70
128
71
322
72
337
73
336
0
VERTEX
8
GIGN01
10
0
20
0
30
0
70
128
71
334
72
337
73
350
0
VERTEX
8
GIGN01
10
0
20
0
30
0
70
128
71
349
72
337
73
322
0
VERTEX
8
GIGN01
10
0
20
0
30
0
70
128
71
337
72
349
73
350
0
VERTEX
8
GIGN01
10
0
20
0
30
0
70
128
71
355
72
309
73
311
0
VERTEX
8
GIGN01
10
0
20
0
30
0
70
128
71
355
72
356
73
309
0
VERTEX
8
GIGN01
10
0
20
0
30
0
70
128
71
311
72
343
73
355
0
VERTEX
8
GIGN01
10
0
20
0
30
0
70
128
71
343
72
344
73
355
0
VERTEX
8
GIGN01
10
0
20
0
30
0
70
128
71
242
72
356
73
355
0
VERTEX
8
GIGN01
10
0
20
0
30
0
70
128
71
355
72
344
73
287
0
VERTEX
8
GIGN01
10
0
20
0
30
0
70
128
71
356
72
340
73
309
0
VERTEX
8
GIGN01
10
0
20
0
30
0
70
128
71
242
72
128
73
356
0
VERTEX
8
GIGN01
10
0
20
0
30
0
70
128
71
356
72
339
73
340
0
VERTEX
8
GIGN01
10
0
20
0
30
0
70
128
71
310
72
308
73
350
0
VERTEX
8
GIGN01
10
0
20
0
30
0
70
128
71
350
72
349
73
310
0
VERTEX
8
GIGN01
10
0
20
0
30
0
70
128
71
349
72
315
73
310
0
VERTEX
8
GIGN01
10
0
20
0
30
0
70
128
71
315
72
349
73
317
0
VERTEX
8
GIGN01
10
0
20
0
30
0
70
128
71
314
72
312
73
317
0
VERTEX
8
GIGN01
10
0
20
0
30
0
70
128
71
317
72
318
73
314
0
VERTEX
8
GIGN01
10
0
20
0
30
0
70
128
71
314
72
319
73
313
0
VERTEX
8
GIGN01
10
0
20
0
30
0
70
128
71
318
72
350
73
319
0
VERTEX
8
GIGN01
10
0
20
0
30
0
70
128
71
308
72
319
73
350
0
VERTEX
8
GIGN01
10
0
20
0
30
0
70
128
71
344
72
288
73
287
0
VERTEX
8
GIGN01
10
0
20
0
30
0
70
128
71
286
72
344
73
341
0
VERTEX
8
GIGN01
10
0
20
0
30
0
70
128
71
342
72
129
73
286
0
VERTEX
8
GIGN01
10
0
20
0
30
0
70
128
71
128
72
129
73
339
0
VERTEX
8
GIGN01
10
0
20
0
30
0
70
128
71
129
72
342
73
339
0
VERTEX
8
GIGN01
10
0
20
0
30
0
70
128
71
339
72
356
73
128
0
VERTEX
8
GIGN01
10
0
20
0
30
0
70
128
71
355
72
287
73
242
0
VERTEX
8
GIGN01
10
0
20
0
30
0
70
128
71
288
72
344
73
286
0
VERTEX
8
GIGN01
10
0
20
0
30
0
70
128
71
357
72
359
73
358
0
VERTEX
8
GIGN01
10
0
20
0
30
0
70
128
71
360
72
359
73
357
0
VERTEX
8
GIGN01
10
0
20
0
30
0
70
128
71
361
72
363
73
362
0
VERTEX
8
GIGN01
10
0
20
0
30
0
70
128
71
362
72
363
73
364
0
VERTEX
8
GIGN01
10
0
20
0
30
0
70
128
71
360
72
365
73
359
0
VERTEX
8
GIGN01
10
0
20
0
30
0
70
128
71
359
72
365
73
366
0
VERTEX
8
GIGN01
10
0
20
0
30
0
70
128
71
367
72
368
73
365
0
VERTEX
8
GIGN01
10
0
20
0
30
0
70
128
71
369
72
371
73
370
0
VERTEX
8
GIGN01
10
0
20
0
30
0
70
128
71
363
72
371
73
364
0
VERTEX
8
GIGN01
10
0
20
0
30
0
70
128
71
359
72
366
73
369
0
VERTEX
8
GIGN01
10
0
20
0
30
0
70
128
71
362
72
365
73
361
0
VERTEX
8
GIGN01
10
0
20
0
30
0
70
128
71
365
72
362
73
366
0
VERTEX
8
GIGN01
10
0
20
0
30
0
70
128
71
364
72
371
73
369
0
VERTEX
8
GIGN01
10
0
20
0
30
0
70
128
71
365
72
363
73
361
0
VERTEX
8
GIGN01
10
0
20
0
30
0
70
128
71
368
72
363
73
365
0
VERTEX
8
GIGN01
10
0
20
0
30
0
70
128
71
371
72
363
73
368
0
VERTEX
8
GIGN01
10
0
20
0
30
0
70
128
71
370
72
371
73
368
0
VERTEX
8
GIGN01
10
0
20
0
30
0
70
128
71
372
72
358
73
359
0
VERTEX
8
GIGN01
10
0
20
0
30
0
70
128
71
358
72
372
73
373
0
VERTEX
8
GIGN01
10
0
20
0
30
0
70
128
71
373
72
357
73
358
0
VERTEX
8
GIGN01
10
0
20
0
30
0
70
128
71
367
72
357
73
373
0
VERTEX
8
GIGN01
10
0
20
0
30
0
70
128
71
367
72
360
73
357
0
VERTEX
8
GIGN01
10
0
20
0
30
0
70
128
71
366
72
364
73
369
0
VERTEX
8
GIGN01
10
0
20
0
30
0
70
128
71
364
72
366
73
362
0
VERTEX
8
GIGN01
10
0
20
0
30
0
70
128
71
372
72
369
73
370
0
VERTEX
8
GIGN01
10
0
20
0
30
0
70
128
71
372
72
359
73
369
0
VERTEX
8
GIGN01
10
0
20
0
30
0
70
128
71
360
72
367
73
365
0
VERTEX
8
GIGN01
10
0
20
0
30
0
70
128
71
368
72
367
73
370
0
VERTEX
8
GIGN01
10
0
20
0
30
0
70
128
71
277
72
373
73
278
0
VERTEX
8
GIGN01
10
0
20
0
30
0
70
128
71
373
72
372
73
278
0
VERTEX
8
GIGN01
10
0
20
0
30
0
70
128
71
278
72
372
73
279
0
VERTEX
8
GIGN01
10
0
20
0
30
0
70
128
71
370
72
279
73
372
0
VERTEX
8
GIGN01
10
0
20
0
30
0
70
128
71
279
72
370
73
367
0
VERTEX
8
GIGN01
10
0
20
0
30
0
70
128
71
279
72
367
73
280
0
VERTEX
8
GIGN01
10
0
20
0
30
0
70
128
71
373
72
280
73
367
0
VERTEX
8
GIGN01
10
0
20
0
30
0
70
128
71
373
72
277
73
280
0
SEQEND
8
GIGN01
0
ENDSEC
0
EOF
