0
SECTION
2
HEADER
9
$ACADVER
1
AC1008
9
$UCSORG
10
0.0
20
0.0
30
0.0
9
$UCSXDIR
10
1.0
20
0.0
30
0.0
9
$TILEMODE
70
1
9
$UCSYDIR
10
0.0
20
1.0
30
0.0
9
$EXTMIN
10
-36.079681
20
-9.088871
30
-0.077217
9
$EXTMAX
10
36.660244
20
5.862922
30
69.200546
0
ENDSEC
0
SECTION
2
TABLES
0
TABLE
2
LTYPE
70
1
0
LTYPE
2
CONTINUOUS
70
64
3
Solid line
72
65
73
0
40
0.0
0
ENDTAB
0
TABLE
2
LAYER
70
1
0
LAYER
2
GIGN01
70
0
62
81
6
CONTINUOUS
0
ENDTAB
0
TABLE
2
STYLE
70
1
0
STYLE
2
STANDARD
70
0
40
0.0
41
1.0
50
0.0
71
0
42
0.2
3
txt
4

0
ENDTAB
0
TABLE
2
UCS
70
0
0
ENDTAB
0
ENDSEC
0
SECTION
2
ENTITIES
0
POLYLINE
8
GIGN01
66
1
70
64
71
373
72
740
62
81
0
VERTEX
8
GIGN01
10
1.351938
20
-3.080673
30
60.007214
70
192
0
VERTEX
8
GIGN01
10
2.825243
20
-0.640360
30
61.586338
70
192
0
VERTEX
8
GIGN01
10
1.677830
20
2.409364
30
61.603516
70
192
0
VERTEX
8
GIGN01
10
-1.029100
20
2.396636
30
61.603031
70
192
0
VERTEX
8
GIGN01
10
-2.240982
20
-0.653722
30
61.557247
70
192
0
VERTEX
8
GIGN01
10
-0.684904
20
-3.102425
30
59.994614
70
192
0
VERTEX
8
GIGN01
10
-1.626240
20
-4.474246
30
64.436035
70
192
0
VERTEX
8
GIGN01
10
2.128971
20
-4.493539
30
64.447807
70
192
0
VERTEX
8
GIGN01
10
2.003417
20
-4.360311
30
62.425270
70
192
0
VERTEX
8
GIGN01
10
-1.352400
20
-4.343914
30
62.432487
70
192
0
VERTEX
8
GIGN01
10
-0.754843
20
-3.777579
30
59.912453
70
192
0
VERTEX
8
GIGN01
10
1.414434
20
-3.777581
30
59.912457
70
192
0
VERTEX
8
GIGN01
10
-2.163693
20
-3.528594
30
64.779968
70
192
0
VERTEX
8
GIGN01
10
-2.620297
20
-0.756373
30
62.696987
70
192
0
VERTEX
8
GIGN01
10
-2.984867
20
-1.506170
30
64.648384
70
192
0
VERTEX
8
GIGN01
10
-2.467171
20
-2.887386
30
63.561699
70
192
0
VERTEX
8
GIGN01
10
2.806906
20
-3.528596
30
64.777321
70
192
0
VERTEX
8
GIGN01
10
3.634687
20
-1.493528
30
64.645744
70
192
0
VERTEX
8
GIGN01
10
3.271489
20
-0.752775
30
62.663998
70
192
0
VERTEX
8
GIGN01
10
3.112396
20
-2.900117
30
63.545815
70
192
0
VERTEX
8
GIGN01
10
0.707183
20
-4.920463
30
64.433891
70
192
0
VERTEX
8
GIGN01
10
-1.053300
20
-4.836881
30
67.209351
70
192
0
VERTEX
8
GIGN01
10
-1.192343
20
-3.292995
30
68.896683
70
192
0
VERTEX
8
GIGN01
10
-1.192346
20
-0.715184
30
69.196831
70
192
0
VERTEX
8
GIGN01
10
-1.207094
20
1.950269
30
68.534485
70
192
0
VERTEX
8
GIGN01
10
-1.214436
20
3.123731
30
66.270309
70
192
0
VERTEX
8
GIGN01
10
1.790687
20
3.123730
30
66.283546
70
192
0
VERTEX
8
GIGN01
10
1.790687
20
1.985910
30
68.550667
70
192
0
VERTEX
8
GIGN01
10
1.834375
20
-0.694566
30
69.200546
70
192
0
VERTEX
8
GIGN01
10
1.834373
20
-3.288112
30
68.894447
70
192
0
VERTEX
8
GIGN01
10
1.834372
20
-4.965662
30
67.209755
70
192
0
VERTEX
8
GIGN01
10
1.458263
20
-5.336058
30
65.226891
70
192
0
VERTEX
8
GIGN01
10
-0.937893
20
-5.336058
30
65.226891
70
192
0
VERTEX
8
GIGN01
10
-2.177214
20
-3.189925
30
66.959488
70
192
0
VERTEX
8
GIGN01
10
-2.725275
20
-0.403501
30
67.644615
70
192
0
VERTEX
8
GIGN01
10
-2.493644
20
1.268751
30
65.432121
70
192
0
VERTEX
8
GIGN01
10
2.973396
20
-3.323584
30
66.959541
70
192
0
VERTEX
8
GIGN01
10
3.099161
20
1.256019
30
65.548607
70
192
0
VERTEX
8
GIGN01
10
3.513928
20
-0.407795
30
67.592323
70
192
0
VERTEX
8
GIGN01
10
-1.201199
20
2.932792
30
63.556423
70
192
0
VERTEX
8
GIGN01
10
1.777447
20
2.945519
30
63.556427
70
192
0
VERTEX
8
GIGN01
10
0.121182
20
-5.216901
30
64.870529
70
192
0
VERTEX
8
GIGN01
10
0.478619
20
-5.204173
30
64.883774
70
192
0
VERTEX
8
GIGN01
10
0.016732
20
-5.808313
30
63.001171
70
192
0
VERTEX
8
GIGN01
10
0.638938
20
-5.808313
30
63.001171
70
192
0
VERTEX
8
GIGN01
10
-0.254780
20
-5.200970
30
62.490891
70
192
0
VERTEX
8
GIGN01
10
0.903706
20
-5.197306
30
62.498108
70
192
0
VERTEX
8
GIGN01
10
-0.093228
20
-4.920462
30
64.448067
70
192
0
VERTEX
8
GIGN01
10
0.322261
20
-4.919074
30
60.072380
70
192
0
VERTEX
8
GIGN01
10
0.043209
20
-5.555648
30
63.881939
70
192
0
VERTEX
8
GIGN01
10
0.599223
20
-5.555649
30
63.881939
70
192
0
VERTEX
8
GIGN01
10
-1.593479
20
-4.369073
30
63.598335
70
192
0
VERTEX
8
GIGN01
10
2.123479
20
-4.348129
30
63.565475
70
192
0
VERTEX
8
GIGN01
10
2.558511
20
-3.082972
30
61.556927
70
192
0
VERTEX
8
GIGN01
10
-1.836647
20
-3.095700
30
61.543690
70
192
0
VERTEX
8
GIGN01
10
-6.797303
20
-3.550997
30
57.900326
70
192
0
VERTEX
8
GIGN01
10
7.217446
20
-3.545373
30
57.966335
70
192
0
VERTEX
8
GIGN01
10
-6.395992
20
-6.179478
30
52.617584
70
192
0
VERTEX
8
GIGN01
10
6.801015
20
-6.153899
30
52.692589
70
192
0
VERTEX
8
GIGN01
10
0.267773
20
-7.265906
30
40.341591
70
192
0
VERTEX
8
GIGN01
10
-4.568233
20
-6.051948
30
40.514614
70
192
0
VERTEX
8
GIGN01
10
5.547924
20
-6.041570
30
40.528896
70
192
0
VERTEX
8
GIGN01
10
0.263782
20
-7.552711
30
52.264149
70
192
0
VERTEX
8
GIGN01
10
7.621754
20
2.730096
30
57.813114
70
192
0
VERTEX
8
GIGN01
10
0.230651
20
4.453564
30
58.592018
70
192
0
VERTEX
8
GIGN01
10
-7.306180
20
2.765431
30
57.821842
70
192
0
VERTEX
8
GIGN01
10
-5.925222
20
4.087153
30
52.582840
70
192
0
VERTEX
8
GIGN01
10
0.243888
20
5.735721
30
53.241009
70
192
0
VERTEX
8
GIGN01
10
6.360042
20
4.087149
30
52.582836
70
192
0
VERTEX
8
GIGN01
10
5.316592
20
3.117790
30
40.956608
70
192
0
VERTEX
8
GIGN01
10
0.238234
20
5.862922
30
41.080429
70
192
0
VERTEX
8
GIGN01
10
-4.987340
20
3.118472
30
40.939816
70
192
0
VERTEX
8
GIGN01
10
7.426747
20
-0.636880
30
41.287453
70
192
0
VERTEX
8
GIGN01
10
-6.896657
20
-0.624227
30
41.287006
70
192
0
VERTEX
8
GIGN01
10
-1.234809
20
2.832450
30
58.744568
70
192
0
VERTEX
8
GIGN01
10
1.766978
20
2.832447
30
58.744568
70
192
0
VERTEX
8
GIGN01
10
3.000158
20
-0.054047
30
58.940681
70
192
0
VERTEX
8
GIGN01
10
1.312299
20
-3.710816
30
58.467461
70
192
0
VERTEX
8
GIGN01
10
-0.784039
20
-3.663404
30
58.466091
70
192
0
VERTEX
8
GIGN01
10
-2.482551
20
-0.241382
30
58.878235
70
192
0
VERTEX
8
GIGN01
10
-3.344303
20
-6.122322
30
39.681553
70
192
0
VERTEX
8
GIGN01
10
3.705773
20
-6.177826
30
39.672756
70
192
0
VERTEX
8
GIGN01
10
6.676557
20
-0.445733
30
40.547489
70
192
0
VERTEX
8
GIGN01
10
2.811804
20
4.750441
30
40.268200
70
192
0
VERTEX
8
GIGN01
10
-2.247307
20
4.750436
30
40.268173
70
192
0
VERTEX
8
GIGN01
10
-6.227604
20
-0.376527
30
40.549225
70
192
0
VERTEX
8
GIGN01
10
3.012628
20
-5.854423
30
36.430786
70
192
0
VERTEX
8
GIGN01
10
-2.607451
20
-5.854433
30
36.430794
70
192
0
VERTEX
8
GIGN01
10
-3.403567
20
-0.503654
30
61.231247
70
192
0
VERTEX
8
GIGN01
10
-2.101525
20
-4.690139
30
59.143288
70
192
0
VERTEX
8
GIGN01
10
-2.507526
20
2.843432
30
61.301128
70
192
0
VERTEX
8
GIGN01
10
-2.807266
20
2.742288
30
59.365723
70
192
0
VERTEX
8
GIGN01
10
-2.355953
20
-3.851370
30
58.503559
70
192
0
VERTEX
8
GIGN01
10
0.265052
20
4.304659
30
60.564270
70
192
0
VERTEX
8
GIGN01
10
3.875343
20
-0.503657
30
61.193375
70
192
0
VERTEX
8
GIGN01
10
3.087584
20
2.918365
30
61.301125
70
192
0
VERTEX
8
GIGN01
10
2.425511
20
-4.677651
30
59.139584
70
192
0
VERTEX
8
GIGN01
10
3.387320
20
2.692212
30
59.416340
70
192
0
VERTEX
8
GIGN01
10
-6.798480
20
-0.414064
30
58.679276
70
192
0
VERTEX
8
GIGN01
10
7.220718
20
-0.411603
30
58.696606
70
192
0
VERTEX
8
GIGN01
10
5.315219
20
-0.491168
30
58.971687
70
192
0
VERTEX
8
GIGN01
10
-4.933718
20
-0.366272
30
58.971691
70
192
0
VERTEX
8
GIGN01
10
5.279696
20
3.099081
30
58.335766
70
192
0
VERTEX
8
GIGN01
10
-5.081467
20
2.867062
30
58.160976
70
192
0
VERTEX
8
GIGN01
10
-4.094909
20
-8.277077
30
47.867985
70
192
0
VERTEX
8
GIGN01
10
-0.360673
20
-9.088871
30
47.892963
70
192
0
VERTEX
8
GIGN01
10
-0.421860
20
-8.481519
30
40.445927
70
192
0
VERTEX
8
GIGN01
10
-3.968758
20
-7.679718
30
40.572918
70
192
0
VERTEX
8
GIGN01
10
0.251292
20
-7.527730
30
48.405018
70
192
0
VERTEX
8
GIGN01
10
-4.706873
20
-6.416198
30
48.430000
70
192
0
VERTEX
8
GIGN01
10
0.193004
20
-4.159447
30
31.241106
70
192
0
VERTEX
8
GIGN01
10
0.700898
20
-8.464416
30
47.743099
70
192
0
VERTEX
8
GIGN01
10
0.764605
20
-8.192672
30
40.618118
70
192
0
VERTEX
8
GIGN01
10
2.936446
20
-8.339526
30
47.743095
70
192
0
VERTEX
8
GIGN01
10
2.937704
20
-8.079088
30
40.699333
70
192
0
VERTEX
8
GIGN01
10
3.186228
20
-7.290440
30
48.429996
70
192
0
VERTEX
8
GIGN01
10
3.187486
20
-6.974538
30
40.431713
70
192
0
VERTEX
8
GIGN01
10
5.921337
20
-6.478647
30
48.429996
70
192
0
VERTEX
8
GIGN01
10
3.811940
20
-7.958302
30
40.655239
70
192
0
VERTEX
8
GIGN01
10
3.873126
20
-8.227124
30
47.743095
70
192
0
VERTEX
8
GIGN01
10
5.921337
20
-7.540224
30
47.743095
70
192
0
VERTEX
8
GIGN01
10
5.797704
20
-7.289627
30
40.824368
70
192
0
VERTEX
8
GIGN01
10
1.500201
20
-8.776646
30
52.089298
70
192
0
VERTEX
8
GIGN01
10
5.047102
20
-8.027299
30
52.101791
70
192
0
VERTEX
8
GIGN01
10
5.047100
20
-8.027298
30
48.992004
70
192
0
VERTEX
8
GIGN01
10
1.500200
20
-8.776646
30
48.992001
70
192
0
VERTEX
8
GIGN01
10
6.041543
20
-6.501905
30
52.506680
70
192
0
VERTEX
8
GIGN01
10
8.621866
20
-0.864766
30
50.868538
70
192
0
VERTEX
8
GIGN01
10
7.814374
20
3.169030
30
53.693008
70
192
0
VERTEX
8
GIGN01
10
-7.384269
20
-4.408009
30
54.487423
70
192
0
VERTEX
8
GIGN01
10
-8.146581
20
-0.871024
30
50.838799
70
192
0
VERTEX
8
GIGN01
10
-7.306244
20
3.180756
30
53.647736
70
192
0
VERTEX
8
GIGN01
10
7.094944
20
-0.881342
30
37.307484
70
192
0
VERTEX
8
GIGN01
10
0.210620
20
1.694441
30
30.626787
70
192
0
VERTEX
8
GIGN01
10
3.888158
20
4.979937
30
35.598969
70
192
0
VERTEX
8
GIGN01
10
4.786871
20
-5.272002
30
34.457306
70
192
0
VERTEX
8
GIGN01
10
4.162919
20
3.986425
30
33.563244
70
192
0
VERTEX
8
GIGN01
10
7.545604
20
-0.708773
30
35.418625
70
192
0
VERTEX
8
GIGN01
10
0.214224
20
4.035659
30
33.238720
70
192
0
VERTEX
8
GIGN01
10
0.202607
20
4.986162
30
36.146538
70
192
0
VERTEX
8
GIGN01
10
7.293771
20
-4.519433
30
21.728455
70
192
0
VERTEX
8
GIGN01
10
5.120679
20
-3.911382
30
19.212254
70
192
0
VERTEX
8
GIGN01
10
7.588248
20
-3.911372
30
19.585667
70
192
0
VERTEX
8
GIGN01
10
7.158910
20
-4.164021
30
12.253235
70
192
0
VERTEX
8
GIGN01
10
5.857858
20
3.493016
30
22.877001
70
192
0
VERTEX
8
GIGN01
10
6.783649
20
3.305560
30
17.343117
70
192
0
VERTEX
8
GIGN01
10
6.698438
20
3.619348
30
13.085077
70
192
0
VERTEX
8
GIGN01
10
9.485932
20
-0.728295
30
22.357733
70
192
0
VERTEX
8
GIGN01
10
9.321343
20
-0.728418
30
18.951315
70
192
0
VERTEX
8
GIGN01
10
10.560935
20
-0.898293
30
12.988470
70
192
0
VERTEX
8
GIGN01
10
3.596121
20
-0.564520
30
12.245541
70
192
0
VERTEX
8
GIGN01
10
3.244967
20
-0.728440
30
18.104177
70
192
0
VERTEX
8
GIGN01
10
2.440189
20
-0.728443
30
21.339663
70
192
0
VERTEX
8
GIGN01
10
1.176538
20
-0.615925
30
25.527784
70
192
0
VERTEX
8
GIGN01
10
5.046025
20
4.242359
30
26.896587
70
192
0
VERTEX
8
GIGN01
10
7.118853
20
-5.559252
30
27.371340
70
192
0
VERTEX
8
GIGN01
10
3.443692
20
-5.559266
30
26.232857
70
192
0
VERTEX
8
GIGN01
10
9.165441
20
-0.728299
30
28.541616
70
192
0
VERTEX
8
GIGN01
10
5.233129
20
-0.631151
30
9.557854
70
192
0
VERTEX
8
GIGN01
10
7.586895
20
-3.227855
30
9.888611
70
192
0
VERTEX
8
GIGN01
10
9.736185
20
-0.417158
30
10.104244
70
192
0
VERTEX
8
GIGN01
10
7.353014
20
2.962629
30
10.347927
70
192
0
VERTEX
8
GIGN01
10
4.500906
20
-4.519441
30
21.391256
70
192
0
VERTEX
8
GIGN01
10
-6.766369
20
-0.881467
30
37.303856
70
192
0
VERTEX
8
GIGN01
10
0.189624
20
1.694442
30
30.617569
70
192
0
VERTEX
8
GIGN01
10
-3.482942
20
4.979926
30
35.598980
70
192
0
VERTEX
8
GIGN01
10
-4.391273
20
-5.272068
30
34.446266
70
192
0
VERTEX
8
GIGN01
10
-3.767298
20
3.986415
30
33.554031
70
192
0
VERTEX
8
GIGN01
10
-7.149992
20
-0.708846
30
35.407589
70
192
0
VERTEX
8
GIGN01
10
0.186368
20
4.035661
30
33.238724
70
192
0
VERTEX
8
GIGN01
10
-6.859252
20
-2.820801
30
58.375847
70
192
0
VERTEX
8
GIGN01
10
7.339395
20
-2.834331
30
58.433926
70
192
0
VERTEX
8
GIGN01
10
7.336076
20
1.775016
30
58.247707
70
192
0
VERTEX
8
GIGN01
10
-6.907118
20
1.837920
30
58.273235
70
192
0
VERTEX
8
GIGN01
10
-6.860429
20
-0.395528
30
59.122498
70
192
0
VERTEX
8
GIGN01
10
7.346937
20
-0.411065
30
59.145706
70
192
0
VERTEX
8
GIGN01
10
-4.767037
20
-3.642194
30
58.405006
70
192
0
VERTEX
8
GIGN01
10
5.125805
20
-3.725619
30
58.410336
70
192
0
VERTEX
8
GIGN01
10
5.405964
20
-0.492953
30
59.460480
70
192
0
VERTEX
8
GIGN01
10
-5.000004
20
-0.345573
30
59.447216
70
192
0
VERTEX
8
GIGN01
10
5.356019
20
2.355295
30
58.699348
70
192
0
VERTEX
8
GIGN01
10
-5.151731
20
2.336133
30
58.636497
70
192
0
VERTEX
8
GIGN01
10
0.266757
20
-5.987010
30
56.093163
70
192
0
VERTEX
8
GIGN01
10
0.238726
20
-7.179296
30
52.622692
70
192
0
VERTEX
8
GIGN01
10
-3.255156
20
-0.304457
30
59.290375
70
192
0
VERTEX
8
GIGN01
10
2.839508
20
-3.851372
30
58.478580
70
192
0
VERTEX
8
GIGN01
10
3.588858
20
-0.341928
30
59.302864
70
192
0
VERTEX
8
GIGN01
10
-4.413327
20
-3.352433
30
58.160999
70
192
0
VERTEX
8
GIGN01
10
4.835593
20
-3.435880
30
58.216770
70
192
0
VERTEX
8
GIGN01
10
-20.957117
20
-3.683304
30
55.884892
70
192
0
VERTEX
8
GIGN01
10
-21.022188
20
-3.683451
30
53.680058
70
192
0
VERTEX
8
GIGN01
10
-25.140833
20
-3.830291
30
55.548176
70
192
0
VERTEX
8
GIGN01
10
-25.025488
20
-3.833346
30
52.944088
70
192
0
VERTEX
8
GIGN01
10
-16.608677
20
1.931594
30
53.725243
70
192
0
VERTEX
8
GIGN01
10
-23.254942
20
2.611387
30
55.455746
70
192
0
VERTEX
8
GIGN01
10
-25.820189
20
2.258672
30
54.265846
70
192
0
VERTEX
8
GIGN01
10
-23.189627
20
2.460085
30
53.826412
70
192
0
VERTEX
8
GIGN01
10
-20.022312
20
1.714512
30
53.805126
70
192
0
VERTEX
8
GIGN01
10
-17.887520
20
-0.646435
30
52.019199
70
192
0
VERTEX
8
GIGN01
10
-20.622829
20
-0.642251
30
52.143383
70
192
0
VERTEX
8
GIGN01
10
-25.082895
20
-0.149390
30
51.964966
70
192
0
VERTEX
8
GIGN01
10
-25.222548
20
-0.710474
30
57.165493
70
192
0
VERTEX
8
GIGN01
10
-20.891579
20
-0.545421
30
57.714394
70
192
0
VERTEX
8
GIGN01
10
-18.220732
20
-0.395738
30
57.552898
70
192
0
VERTEX
8
GIGN01
10
-31.313684
20
-2.889973
30
52.672874
70
192
0
VERTEX
8
GIGN01
10
-32.409458
20
-2.276912
30
54.977543
70
192
0
VERTEX
8
GIGN01
10
-32.463192
20
-2.215100
30
56.517723
70
192
0
VERTEX
8
GIGN01
10
-34.617958
20
-1.969230
30
55.767323
70
192
0
VERTEX
8
GIGN01
10
-34.200054
20
-1.967469
30
55.038383
70
192
0
VERTEX
8
GIGN01
10
-32.459526
20
1.438454
30
56.135311
70
192
0
VERTEX
8
GIGN01
10
-34.615665
20
1.359599
30
55.767063
70
192
0
VERTEX
8
GIGN01
10
-34.197792
20
1.361359
30
55.038109
70
192
0
VERTEX
8
GIGN01
10
-32.480385
20
1.253431
30
54.962635
70
192
0
VERTEX
8
GIGN01
10
-31.576574
20
0.020800
30
53.344307
70
192
0
VERTEX
8
GIGN01
10
-31.972784
20
-2.889421
30
53.883514
70
192
0
VERTEX
8
GIGN01
10
-34.066288
20
-2.981963
30
52.541698
70
192
0
VERTEX
8
GIGN01
10
-33.852768
20
-2.924662
30
52.085976
70
192
0
VERTEX
8
GIGN01
10
-31.869501
20
-1.718335
30
52.715027
70
192
0
VERTEX
8
GIGN01
10
-33.885475
20
-2.086885
30
52.151249
70
192
0
VERTEX
8
GIGN01
10
-34.098995
20
-2.144216
30
52.606960
70
192
0
VERTEX
8
GIGN01
10
-32.064072
20
-1.906728
30
53.855347
70
192
0
VERTEX
8
GIGN01
10
-10.836720
20
-0.475911
30
58.632626
70
192
0
VERTEX
8
GIGN01
10
-13.440627
20
-0.881275
30
51.574245
70
192
0
VERTEX
8
GIGN01
10
-11.012934
20
3.088445
30
55.122780
70
192
0
VERTEX
8
GIGN01
10
-16.707104
20
2.824820
30
55.909172
70
192
0
VERTEX
8
GIGN01
10
-20.057194
20
2.415335
30
55.623386
70
192
0
VERTEX
8
GIGN01
10
-19.946604
20
-0.642697
30
52.295914
70
192
0
VERTEX
8
GIGN01
10
-19.974087
20
-0.622938
30
57.758247
70
192
0
VERTEX
8
GIGN01
10
-29.327864
20
-2.431887
30
56.326393
70
192
0
VERTEX
8
GIGN01
10
-29.090527
20
-2.688895
30
53.308693
70
192
0
VERTEX
8
GIGN01
10
-29.067682
20
1.340125
30
53.872581
70
192
0
VERTEX
8
GIGN01
10
-29.276354
20
1.077906
30
55.915920
70
192
0
VERTEX
8
GIGN01
10
-35.699284
20
-1.843269
30
53.814060
70
192
0
VERTEX
8
GIGN01
10
-36.079681
20
-1.842986
30
54.109192
70
192
0
VERTEX
8
GIGN01
10
-35.697174
20
1.238977
30
53.813805
70
192
0
VERTEX
8
GIGN01
10
-36.077583
20
1.239261
30
54.108936
70
192
0
VERTEX
8
GIGN01
10
-16.821489
20
-3.830307
30
53.835281
70
192
0
VERTEX
8
GIGN01
10
-16.798792
20
-3.898828
30
55.974945
70
192
0
VERTEX
8
GIGN01
10
-7.413784
20
-3.524378
30
56.841652
70
192
0
VERTEX
8
GIGN01
10
-7.937582
20
-0.400143
30
58.301537
70
192
0
VERTEX
8
GIGN01
10
-7.872309
20
2.786951
30
57.203144
70
192
0
VERTEX
8
GIGN01
10
8.140953
20
-4.397344
30
54.496906
70
192
0
VERTEX
8
GIGN01
10
8.728190
20
3.895638
30
36.545254
70
192
0
VERTEX
8
GIGN01
10
8.999500
20
0.470004
30
35.531479
70
192
0
VERTEX
8
GIGN01
10
8.860011
20
-0.690538
30
36.546036
70
192
0
VERTEX
8
GIGN01
10
8.935315
20
-3.493008
30
36.560268
70
192
0
VERTEX
8
GIGN01
10
10.745901
20
-3.045099
30
26.886295
70
192
0
VERTEX
8
GIGN01
10
10.575287
20
-0.576566
30
27.310778
70
192
0
VERTEX
8
GIGN01
10
9.411399
20
0.807351
30
32.443661
70
192
0
VERTEX
8
GIGN01
10
9.186046
20
4.694898
30
33.841106
70
192
0
VERTEX
8
GIGN01
10
7.339611
20
3.815735
30
36.220676
70
192
0
VERTEX
8
GIGN01
10
7.660197
20
0.248778
30
34.995144
70
192
0
VERTEX
8
GIGN01
10
7.471399
20
-0.770434
30
36.221455
70
192
0
VERTEX
8
GIGN01
10
7.546760
20
-3.572895
30
36.235699
70
192
0
VERTEX
8
GIGN01
10
9.357325
20
-3.124983
30
26.561728
70
192
0
VERTEX
8
GIGN01
10
9.186718
20
-0.656457
30
26.986223
70
192
0
VERTEX
8
GIGN01
10
8.142057
20
0.697939
30
32.191200
70
192
0
VERTEX
8
GIGN01
10
7.797440
20
4.614998
30
33.516525
70
192
0
VERTEX
8
GIGN01
10
-6.772874
20
-4.164041
30
12.234802
70
192
0
VERTEX
8
GIGN01
10
-4.734652
20
-3.911395
30
19.193819
70
192
0
VERTEX
8
GIGN01
10
-7.202224
20
-3.911393
30
19.567234
70
192
0
VERTEX
8
GIGN01
10
-6.907752
20
-4.519453
30
21.710024
70
192
0
VERTEX
8
GIGN01
10
-6.397599
20
3.305542
30
17.324682
70
192
0
VERTEX
8
GIGN01
10
-9.099902
20
-0.728321
30
22.339304
70
192
0
VERTEX
8
GIGN01
10
-5.471817
20
3.493001
30
22.858566
70
192
0
VERTEX
8
GIGN01
10
-8.935309
20
-0.728443
30
18.932888
70
192
0
VERTEX
8
GIGN01
10
-6.312379
20
3.619331
30
13.066647
70
192
0
VERTEX
8
GIGN01
10
-10.174891
20
-0.898322
30
12.970047
70
192
0
VERTEX
8
GIGN01
10
-2.054155
20
-0.728448
30
21.321220
70
192
0
VERTEX
8
GIGN01
10
-2.858928
20
-0.728447
30
18.085741
70
192
0
VERTEX
8
GIGN01
10
-3.210074
20
-0.564528
30
12.227108
70
192
0
VERTEX
8
GIGN01
10
-4.659987
20
4.242346
30
26.878153
70
192
0
VERTEX
8
GIGN01
10
-0.790511
20
-0.615926
30
25.509344
70
192
0
VERTEX
8
GIGN01
10
-3.057682
20
-5.559274
30
26.214417
70
192
0
VERTEX
8
GIGN01
10
-8.779421
20
-0.728325
30
28.523186
70
192
0
VERTEX
8
GIGN01
10
-6.732845
20
-5.559272
30
27.352909
70
192
0
VERTEX
8
GIGN01
10
-6.966286
20
2.962619
30
10.365536
70
192
0
VERTEX
8
GIGN01
10
-9.453822
20
-0.417173
30
10.121845
70
192
0
VERTEX
8
GIGN01
10
-7.202261
20
-3.227865
30
9.906223
70
192
0
VERTEX
8
GIGN01
10
-4.827477
20
-0.631158
30
9.575466
70
192
0
VERTEX
8
GIGN01
10
-4.114884
20
-4.519453
30
21.372820
70
192
0
VERTEX
8
GIGN01
10
-2.633641
20
-5.681536
30
55.142998
70
192
0
VERTEX
8
GIGN01
10
-2.807620
20
-6.001328
30
55.094658
70
192
0
VERTEX
8
GIGN01
10
2.985670
20
-5.674116
30
55.211838
70
192
0
VERTEX
8
GIGN01
10
3.118398
20
-6.026300
30
55.099609
70
192
0
VERTEX
8
GIGN01
10
8.438210
20
2.791232
30
57.214981
70
192
0
VERTEX
8
GIGN01
10
8.128246
20
-3.525465
30
56.820435
70
192
0
VERTEX
8
GIGN01
10
8.503477
20
-0.399056
30
58.317062
70
192
0
VERTEX
8
GIGN01
10
6.922515
20
3.146136
30
-0.077217
70
192
0
VERTEX
8
GIGN01
10
10.059212
20
3.005280
30
-0.074005
70
192
0
VERTEX
8
GIGN01
10
10.694103
20
-0.066483
30
-0.063454
70
192
0
VERTEX
8
GIGN01
10
6.028929
20
0.295684
30
-0.073288
70
192
0
VERTEX
8
GIGN01
10
7.009763
20
-8.842631
30
-0.057476
70
192
0
VERTEX
8
GIGN01
10
10.311118
20
-8.849330
30
-0.067387
70
192
0
VERTEX
8
GIGN01
10
7.145301
20
-8.341742
30
1.701920
70
192
0
VERTEX
8
GIGN01
10
9.777283
20
-8.341254
30
1.612129
70
192
0
VERTEX
8
GIGN01
10
6.262376
20
-4.974728
30
-0.071320
70
192
0
VERTEX
8
GIGN01
10
11.173291
20
-4.974710
30
-0.068157
70
192
0
VERTEX
8
GIGN01
10
6.252272
20
-0.511612
30
4.310104
70
192
0
VERTEX
8
GIGN01
10
6.692434
20
-4.707927
30
2.798840
70
192
0
VERTEX
8
GIGN01
10
10.593108
20
-4.731206
30
2.595470
70
192
0
VERTEX
8
GIGN01
10
8.325963
20
-2.326815
30
4.661991
70
192
0
VERTEX
8
GIGN01
10
8.280025
20
-5.016088
30
3.422543
70
192
0
VERTEX
8
GIGN01
10
10.078987
20
-0.323471
30
4.494671
70
192
0
VERTEX
8
GIGN01
10
8.136916
20
2.104721
30
4.260406
70
192
0
VERTEX
8
GIGN01
10
0.795651
20
-5.009633
30
63.740528
70
192
0
VERTEX
8
GIGN01
10
-0.170075
20
-5.003735
30
63.755871
70
192
0
VERTEX
8
GIGN01
10
25.606049
20
-3.833346
30
52.966141
70
192
0
VERTEX
8
GIGN01
10
21.602749
20
-3.683451
30
53.702110
70
192
0
VERTEX
8
GIGN01
10
25.721394
20
-3.830291
30
55.570229
70
192
0
VERTEX
8
GIGN01
10
21.537678
20
-3.683304
30
55.906944
70
192
0
VERTEX
8
GIGN01
10
23.835503
20
2.611387
30
55.477798
70
192
0
VERTEX
8
GIGN01
10
23.770187
20
2.460085
30
53.848465
70
192
0
VERTEX
8
GIGN01
10
26.400749
20
2.258672
30
54.287899
70
192
0
VERTEX
8
GIGN01
10
25.803108
20
-0.710474
30
57.187546
70
192
0
VERTEX
8
GIGN01
10
21.472139
20
-0.545421
30
57.736446
70
192
0
VERTEX
8
GIGN01
10
29.856915
20
1.077906
30
55.937973
70
192
0
VERTEX
8
GIGN01
10
29.648243
20
1.340125
30
53.894634
70
192
0
VERTEX
8
GIGN01
10
25.663456
20
-0.149390
30
51.987019
70
192
0
VERTEX
8
GIGN01
10
21.203390
20
-0.642251
30
52.165436
70
192
0
VERTEX
8
GIGN01
10
34.780621
20
-1.967469
30
55.060436
70
192
0
VERTEX
8
GIGN01
10
32.990025
20
-2.276912
30
54.999596
70
192
0
VERTEX
8
GIGN01
10
35.198521
20
-1.969230
30
55.789375
70
192
0
VERTEX
8
GIGN01
10
33.043758
20
-2.215100
30
56.539776
70
192
0
VERTEX
8
GIGN01
10
33.040089
20
1.438454
30
56.157364
70
192
0
VERTEX
8
GIGN01
10
34.778355
20
1.361359
30
55.060162
70
192
0
VERTEX
8
GIGN01
10
35.196232
20
1.359599
30
55.789116
70
192
0
VERTEX
8
GIGN01
10
33.060947
20
1.253431
30
54.984688
70
192
0
VERTEX
8
GIGN01
10
32.157139
20
0.020800
30
53.366360
70
192
0
VERTEX
8
GIGN01
10
34.646854
20
-2.981963
30
52.563751
70
192
0
VERTEX
8
GIGN01
10
34.679562
20
-2.144216
30
52.629013
70
192
0
VERTEX
8
GIGN01
10
34.466038
20
-2.086885
30
52.173302
70
192
0
VERTEX
8
GIGN01
10
34.433331
20
-2.924662
30
52.108028
70
192
0
VERTEX
8
GIGN01
10
31.894243
20
-2.889973
30
52.694927
70
192
0
VERTEX
8
GIGN01
10
32.450062
20
-1.718335
30
52.737080
70
192
0
VERTEX
8
GIGN01
10
32.644634
20
-1.906728
30
53.877399
70
192
0
VERTEX
8
GIGN01
10
32.553349
20
-2.889421
30
53.905567
70
192
0
VERTEX
8
GIGN01
10
17.189238
20
1.931594
30
53.747295
70
192
0
VERTEX
8
GIGN01
10
14.021189
20
-0.881275
30
51.596298
70
192
0
VERTEX
8
GIGN01
10
18.468081
20
-0.646435
30
52.041252
70
192
0
VERTEX
8
GIGN01
10
17.287664
20
2.824820
30
55.931225
70
192
0
VERTEX
8
GIGN01
10
11.593495
20
3.088445
30
55.144833
70
192
0
VERTEX
8
GIGN01
10
18.801292
20
-0.395738
30
57.574951
70
192
0
VERTEX
8
GIGN01
10
11.417282
20
-0.475911
30
58.654678
70
192
0
VERTEX
8
GIGN01
10
20.637754
20
2.415335
30
55.645439
70
192
0
VERTEX
8
GIGN01
10
20.602873
20
1.714512
30
53.827179
70
192
0
VERTEX
8
GIGN01
10
20.554647
20
-0.622938
30
57.780300
70
192
0
VERTEX
8
GIGN01
10
20.527164
20
-0.642697
30
52.317966
70
192
0
VERTEX
8
GIGN01
10
29.908424
20
-2.431887
30
56.348446
70
192
0
VERTEX
8
GIGN01
10
29.671087
20
-2.688895
30
53.330746
70
192
0
VERTEX
8
GIGN01
10
36.658146
20
1.239261
30
54.130989
70
192
0
VERTEX
8
GIGN01
10
36.660244
20
-1.842986
30
54.131245
70
192
0
VERTEX
8
GIGN01
10
36.279850
20
-1.843269
30
53.836113
70
192
0
VERTEX
8
GIGN01
10
36.277737
20
1.238977
30
53.835857
70
192
0
VERTEX
8
GIGN01
10
17.379353
20
-3.898828
30
55.996998
70
192
0
VERTEX
8
GIGN01
10
17.402050
20
-3.830307
30
53.857334
70
192
0
VERTEX
8
GIGN01
10
-6.529710
20
3.146136
30
-0.051517
70
192
0
VERTEX
8
GIGN01
10
-9.694412
20
3.005280
30
-0.048306
70
192
0
VERTEX
8
GIGN01
10
-10.334974
20
-0.066483
30
-0.037754
70
192
0
VERTEX
8
GIGN01
10
-5.628144
20
0.295684
30
-0.047588
70
192
0
VERTEX
8
GIGN01
10
-6.617736
20
-8.842631
30
-0.031780
70
192
0
VERTEX
8
GIGN01
10
-9.948568
20
-8.849330
30
-0.041691
70
192
0
VERTEX
8
GIGN01
10
-6.754484
20
-8.341742
30
1.727619
70
192
0
VERTEX
8
GIGN01
10
-9.409966
20
-8.341254
30
1.637829
70
192
0
VERTEX
8
GIGN01
10
-5.863678
20
-4.974728
30
-0.045620
70
192
0
VERTEX
8
GIGN01
10
-10.818441
20
-4.974710
30
-0.042461
70
192
0
VERTEX
8
GIGN01
10
-5.853482
20
-0.511612
30
4.335804
70
192
0
VERTEX
8
GIGN01
10
-6.297576
20
-4.707927
30
2.824535
70
192
0
VERTEX
8
GIGN01
10
-10.233077
20
-4.731206
30
2.621166
70
192
0
VERTEX
8
GIGN01
10
-7.945689
20
-2.326815
30
4.687687
70
192
0
VERTEX
8
GIGN01
10
-7.899342
20
-5.016088
30
3.448238
70
192
0
VERTEX
8
GIGN01
10
-9.714365
20
-0.323471
30
4.520367
70
192
0
VERTEX
8
GIGN01
10
-7.754954
20
2.104720
30
4.286106
70
192
0
VERTEX
8
GIGN01
10
0
20
0
30
0
70
128
71
77
72
1
73
78
0
VERTEX
8
GIGN01
10
0
20
0
30
0
70
128
71
77
72
2
73
1
0
VERTEX
8
GIGN01
10
0
20
0
30
0
70
128
71
77
72
3
73
2
0
VERTEX
8
GIGN01
10
0
20
0
30
0
70
128
71
76
72
3
73
77
0
VERTEX
8
GIGN01
10
0
20
0
30
0
70
128
71
76
72
4
73
3
0
VERTEX
8
GIGN01
10
0
20
0
30
0
70
128
71
75
72
4
73
76
0
VERTEX
8
GIGN01
10
0
20
0
30
0
70
128
71
4
72
75
73
80
0
VERTEX
8
GIGN01
10
0
20
0
30
0
70
128
71
80
72
5
73
4
0
VERTEX
8
GIGN01
10
0
20
0
30
0
70
128
71
80
72
6
73
5
0
VERTEX
8
GIGN01
10
0
20
0
30
0
70
128
71
79
72
6
73
80
0
VERTEX
8
GIGN01
10
0
20
0
30
0
70
128
71
78
72
6
73
79
0
VERTEX
8
GIGN01
10
0
20
0
30
0
70
128
71
6
72
78
73
1
0
VERTEX
8
GIGN01
10
0
20
0
30
0
70
128
71
16
72
7
73
13
0
VERTEX
8
GIGN01
10
0
20
0
30
0
70
128
71
8
72
20
73
17
0
VERTEX
8
GIGN01
10
0
20
0
30
0
70
128
71
22
72
31
73
30
0
VERTEX
8
GIGN01
10
0
20
0
30
0
70
128
71
22
72
30
73
23
0
VERTEX
8
GIGN01
10
0
20
0
30
0
70
128
71
23
72
30
73
29
0
VERTEX
8
GIGN01
10
0
20
0
30
0
70
128
71
23
72
29
73
24
0
VERTEX
8
GIGN01
10
0
20
0
30
0
70
128
71
24
72
29
73
28
0
VERTEX
8
GIGN01
10
0
20
0
30
0
70
128
71
24
72
28
73
25
0
VERTEX
8
GIGN01
10
0
20
0
30
0
70
128
71
25
72
28
73
27
0
VERTEX
8
GIGN01
10
0
20
0
30
0
70
128
71
25
72
27
73
26
0
VERTEX
8
GIGN01
10
0
20
0
30
0
70
128
71
7
72
33
73
13
0
VERTEX
8
GIGN01
10
0
20
0
30
0
70
128
71
32
72
8
73
17
0
VERTEX
8
GIGN01
10
0
20
0
30
0
70
128
71
34
72
22
73
23
0
VERTEX
8
GIGN01
10
0
20
0
30
0
70
128
71
23
72
35
73
34
0
VERTEX
8
GIGN01
10
0
20
0
30
0
70
128
71
35
72
23
73
24
0
VERTEX
8
GIGN01
10
0
20
0
30
0
70
128
71
35
72
24
73
25
0
VERTEX
8
GIGN01
10
0
20
0
30
0
70
128
71
35
72
25
73
26
0
VERTEX
8
GIGN01
10
0
20
0
30
0
70
128
71
26
72
36
73
35
0
VERTEX
8
GIGN01
10
0
20
0
30
0
70
128
71
13
72
34
73
15
0
VERTEX
8
GIGN01
10
0
20
0
30
0
70
128
71
35
72
15
73
34
0
VERTEX
8
GIGN01
10
0
20
0
30
0
70
128
71
37
72
17
73
18
0
VERTEX
8
GIGN01
10
0
20
0
30
0
70
128
71
18
72
39
73
37
0
VERTEX
8
GIGN01
10
0
20
0
30
0
70
128
71
39
72
18
73
38
0
VERTEX
8
GIGN01
10
0
20
0
30
0
70
128
71
37
72
30
73
31
0
VERTEX
8
GIGN01
10
0
20
0
30
0
70
128
71
39
72
30
73
37
0
VERTEX
8
GIGN01
10
0
20
0
30
0
70
128
71
39
72
29
73
30
0
VERTEX
8
GIGN01
10
0
20
0
30
0
70
128
71
39
72
28
73
29
0
VERTEX
8
GIGN01
10
0
20
0
30
0
70
128
71
28
72
39
73
38
0
VERTEX
8
GIGN01
10
0
20
0
30
0
70
128
71
38
72
27
73
28
0
VERTEX
8
GIGN01
10
0
20
0
30
0
70
128
71
36
72
14
73
15
0
VERTEX
8
GIGN01
10
0
20
0
30
0
70
128
71
26
72
40
73
36
0
VERTEX
8
GIGN01
10
0
20
0
30
0
70
128
71
38
72
18
73
19
0
VERTEX
8
GIGN01
10
0
20
0
30
0
70
128
71
40
72
26
73
27
0
VERTEX
8
GIGN01
10
0
20
0
30
0
70
128
71
27
72
41
73
40
0
VERTEX
8
GIGN01
10
0
20
0
30
0
70
128
71
44
72
47
73
45
0
VERTEX
8
GIGN01
10
0
20
0
30
0
70
128
71
47
72
44
73
46
0
VERTEX
8
GIGN01
10
0
20
0
30
0
70
128
71
4
72
40
73
41
0
VERTEX
8
GIGN01
10
0
20
0
30
0
70
128
71
41
72
3
73
4
0
VERTEX
8
GIGN01
10
0
20
0
30
0
70
128
71
43
72
32
73
33
0
VERTEX
8
GIGN01
10
0
20
0
30
0
70
128
71
43
72
33
73
42
0
VERTEX
8
GIGN01
10
0
20
0
30
0
70
128
71
33
72
48
73
42
0
VERTEX
8
GIGN01
10
0
20
0
30
0
70
128
71
7
72
48
73
33
0
VERTEX
8
GIGN01
10
0
20
0
30
0
70
128
71
46
72
10
73
11
0
VERTEX
8
GIGN01
10
0
20
0
30
0
70
128
71
9
72
47
73
12
0
VERTEX
8
GIGN01
10
0
20
0
30
0
70
128
71
43
72
21
73
32
0
VERTEX
8
GIGN01
10
0
20
0
30
0
70
128
71
8
72
32
73
21
0
VERTEX
8
GIGN01
10
0
20
0
30
0
70
128
71
36
72
15
73
35
0
VERTEX
8
GIGN01
10
0
20
0
30
0
70
128
71
2
72
19
73
20
0
VERTEX
8
GIGN01
10
0
20
0
30
0
70
128
71
16
72
14
73
5
0
VERTEX
8
GIGN01
10
0
20
0
30
0
70
128
71
41
72
27
73
38
0
VERTEX
8
GIGN01
10
0
20
0
30
0
70
128
71
19
72
41
73
38
0
VERTEX
8
GIGN01
10
0
20
0
30
0
70
128
71
19
72
3
73
41
0
VERTEX
8
GIGN01
10
0
20
0
30
0
70
128
71
40
72
14
73
36
0
VERTEX
8
GIGN01
10
0
20
0
30
0
70
128
71
4
72
14
73
40
0
VERTEX
8
GIGN01
10
0
20
0
30
0
70
128
71
46
72
49
73
47
0
VERTEX
8
GIGN01
10
0
20
0
30
0
70
128
71
11
72
49
73
46
0
VERTEX
8
GIGN01
10
0
20
0
30
0
70
128
71
49
72
11
73
12
0
VERTEX
8
GIGN01
10
0
20
0
30
0
70
128
71
49
72
12
73
47
0
VERTEX
8
GIGN01
10
0
20
0
30
0
70
128
71
16
72
13
73
15
0
VERTEX
8
GIGN01
10
0
20
0
30
0
70
128
71
14
72
16
73
15
0
VERTEX
8
GIGN01
10
0
20
0
30
0
70
128
71
17
72
20
73
18
0
VERTEX
8
GIGN01
10
0
20
0
30
0
70
128
71
18
72
20
73
19
0
VERTEX
8
GIGN01
10
0
20
0
30
0
70
128
71
19
72
2
73
3
0
VERTEX
8
GIGN01
10
0
20
0
30
0
70
128
71
14
72
4
73
5
0
VERTEX
8
GIGN01
10
0
20
0
30
0
70
128
71
50
72
44
73
45
0
VERTEX
8
GIGN01
10
0
20
0
30
0
70
128
71
45
72
51
73
50
0
VERTEX
8
GIGN01
10
0
20
0
30
0
70
128
71
51
72
43
73
50
0
VERTEX
8
GIGN01
10
0
20
0
30
0
70
128
71
42
72
50
73
43
0
VERTEX
8
GIGN01
10
0
20
0
30
0
70
128
71
44
72
50
73
46
0
VERTEX
8
GIGN01
10
0
20
0
30
0
70
128
71
51
72
45
73
47
0
VERTEX
8
GIGN01
10
0
20
0
30
0
70
128
71
53
72
21
73
306
0
VERTEX
8
GIGN01
10
0
20
0
30
0
70
128
71
53
72
8
73
21
0
VERTEX
8
GIGN01
10
0
20
0
30
0
70
128
71
53
72
9
73
20
0
VERTEX
8
GIGN01
10
0
20
0
30
0
70
128
71
8
72
53
73
20
0
VERTEX
8
GIGN01
10
0
20
0
30
0
70
128
71
7
72
52
73
48
0
VERTEX
8
GIGN01
10
0
20
0
30
0
70
128
71
52
72
7
73
16
0
VERTEX
8
GIGN01
10
0
20
0
30
0
70
128
71
10
72
52
73
16
0
VERTEX
8
GIGN01
10
0
20
0
30
0
70
128
71
10
72
46
73
44
0
VERTEX
8
GIGN01
10
0
20
0
30
0
70
128
71
50
72
52
73
44
0
VERTEX
8
GIGN01
10
0
20
0
30
0
70
128
71
52
72
10
73
44
0
VERTEX
8
GIGN01
10
0
20
0
30
0
70
128
71
47
72
9
73
45
0
VERTEX
8
GIGN01
10
0
20
0
30
0
70
128
71
9
72
53
73
45
0
VERTEX
8
GIGN01
10
0
20
0
30
0
70
128
71
45
72
53
73
51
0
VERTEX
8
GIGN01
10
0
20
0
30
0
70
128
71
12
72
1
73
2
0
VERTEX
8
GIGN01
10
0
20
0
30
0
70
128
71
1
72
12
73
6
0
VERTEX
8
GIGN01
10
0
20
0
30
0
70
128
71
6
72
12
73
11
0
VERTEX
8
GIGN01
10
0
20
0
30
0
70
128
71
11
72
5
73
6
0
VERTEX
8
GIGN01
10
0
20
0
30
0
70
128
71
54
72
9
73
12
0
VERTEX
8
GIGN01
10
0
20
0
30
0
70
128
71
2
72
54
73
12
0
VERTEX
8
GIGN01
10
0
20
0
30
0
70
128
71
54
72
2
73
20
0
VERTEX
8
GIGN01
10
0
20
0
30
0
70
128
71
9
72
54
73
20
0
VERTEX
8
GIGN01
10
0
20
0
30
0
70
128
71
10
72
55
73
11
0
VERTEX
8
GIGN01
10
0
20
0
30
0
70
128
71
55
72
10
73
16
0
VERTEX
8
GIGN01
10
0
20
0
30
0
70
128
71
5
72
55
73
16
0
VERTEX
8
GIGN01
10
0
20
0
30
0
70
128
71
55
72
5
73
11
0
VERTEX
8
GIGN01
10
0
20
0
30
0
70
128
71
31
72
33
73
32
0
VERTEX
8
GIGN01
10
0
20
0
30
0
70
128
71
22
72
33
73
31
0
VERTEX
8
GIGN01
10
0
20
0
30
0
70
128
71
37
72
31
73
32
0
VERTEX
8
GIGN01
10
0
20
0
30
0
70
128
71
17
72
37
73
32
0
VERTEX
8
GIGN01
10
0
20
0
30
0
70
128
71
22
72
34
73
33
0
VERTEX
8
GIGN01
10
0
20
0
30
0
70
128
71
34
72
13
73
33
0
VERTEX
8
GIGN01
10
0
20
0
30
0
70
128
71
64
72
69
73
68
0
VERTEX
8
GIGN01
10
0
20
0
30
0
70
128
71
66
72
68
73
67
0
VERTEX
8
GIGN01
10
0
20
0
30
0
70
128
71
79
72
183
73
78
0
VERTEX
8
GIGN01
10
0
20
0
30
0
70
128
71
82
72
60
73
81
0
VERTEX
8
GIGN01
10
0
20
0
30
0
70
128
71
62
72
82
73
73
0
VERTEX
8
GIGN01
10
0
20
0
30
0
70
128
71
83
72
73
73
82
0
VERTEX
8
GIGN01
10
0
20
0
30
0
70
128
71
83
72
70
73
73
0
VERTEX
8
GIGN01
10
0
20
0
30
0
70
128
71
84
72
70
73
83
0
VERTEX
8
GIGN01
10
0
20
0
30
0
70
128
71
70
72
84
73
71
0
VERTEX
8
GIGN01
10
0
20
0
30
0
70
128
71
85
72
71
73
84
0
VERTEX
8
GIGN01
10
0
20
0
30
0
70
128
71
71
72
85
73
72
0
VERTEX
8
GIGN01
10
0
20
0
30
0
70
128
71
86
72
72
73
85
0
VERTEX
8
GIGN01
10
0
20
0
30
0
70
128
71
72
72
86
73
74
0
VERTEX
8
GIGN01
10
0
20
0
30
0
70
128
71
74
72
86
73
81
0
VERTEX
8
GIGN01
10
0
20
0
30
0
70
128
71
81
72
61
73
74
0
VERTEX
8
GIGN01
10
0
20
0
30
0
70
128
71
81
72
60
73
61
0
VERTEX
8
GIGN01
10
0
20
0
30
0
70
128
71
71
72
67
73
68
0
VERTEX
8
GIGN01
10
0
20
0
30
0
70
128
71
72
72
67
73
71
0
VERTEX
8
GIGN01
10
0
20
0
30
0
70
128
71
71
72
68
73
69
0
VERTEX
8
GIGN01
10
0
20
0
30
0
70
128
71
71
72
69
73
70
0
VERTEX
8
GIGN01
10
0
20
0
30
0
70
128
71
90
72
183
73
79
0
VERTEX
8
GIGN01
10
0
20
0
30
0
70
128
71
89
72
79
73
80
0
VERTEX
8
GIGN01
10
0
20
0
30
0
70
128
71
90
72
79
73
89
0
VERTEX
8
GIGN01
10
0
20
0
30
0
70
128
71
75
72
89
73
80
0
VERTEX
8
GIGN01
10
0
20
0
30
0
70
128
71
75
72
91
73
89
0
VERTEX
8
GIGN01
10
0
20
0
30
0
70
128
71
89
72
93
73
90
0
VERTEX
8
GIGN01
10
0
20
0
30
0
70
128
71
93
72
89
73
185
0
VERTEX
8
GIGN01
10
0
20
0
30
0
70
128
71
93
72
183
73
90
0
VERTEX
8
GIGN01
10
0
20
0
30
0
70
128
71
91
72
94
73
92
0
VERTEX
8
GIGN01
10
0
20
0
30
0
70
128
71
94
72
65
73
92
0
VERTEX
8
GIGN01
10
0
20
0
30
0
70
128
71
75
72
94
73
91
0
VERTEX
8
GIGN01
10
0
20
0
30
0
70
128
71
183
72
97
73
78
0
VERTEX
8
GIGN01
10
0
20
0
30
0
70
128
71
78
72
97
73
95
0
VERTEX
8
GIGN01
10
0
20
0
30
0
70
128
71
95
72
77
73
78
0
VERTEX
8
GIGN01
10
0
20
0
30
0
70
128
71
95
72
76
73
77
0
VERTEX
8
GIGN01
10
0
20
0
30
0
70
128
71
96
72
76
73
95
0
VERTEX
8
GIGN01
10
0
20
0
30
0
70
128
71
94
72
75
73
76
0
VERTEX
8
GIGN01
10
0
20
0
30
0
70
128
71
76
72
96
73
94
0
VERTEX
8
GIGN01
10
0
20
0
30
0
70
128
71
98
72
65
73
94
0
VERTEX
8
GIGN01
10
0
20
0
30
0
70
128
71
98
72
94
73
96
0
VERTEX
8
GIGN01
10
0
20
0
30
0
70
128
71
98
72
96
73
187
0
VERTEX
8
GIGN01
10
0
20
0
30
0
70
128
71
95
72
187
73
96
0
VERTEX
8
GIGN01
10
0
20
0
30
0
70
128
71
186
72
95
73
97
0
VERTEX
8
GIGN01
10
0
20
0
30
0
70
128
71
187
72
95
73
186
0
VERTEX
8
GIGN01
10
0
20
0
30
0
70
128
71
183
72
186
73
97
0
VERTEX
8
GIGN01
10
0
20
0
30
0
70
128
71
185
72
89
73
91
0
VERTEX
8
GIGN01
10
0
20
0
30
0
70
128
71
91
72
92
73
185
0
VERTEX
8
GIGN01
10
0
20
0
30
0
70
128
71
73
72
59
73
62
0
VERTEX
8
GIGN01
10
0
20
0
30
0
70
128
71
58
72
74
73
61
0
VERTEX
8
GIGN01
10
0
20
0
30
0
70
128
71
177
72
56
73
58
0
VERTEX
8
GIGN01
10
0
20
0
30
0
70
128
71
177
72
58
73
283
0
VERTEX
8
GIGN01
10
0
20
0
30
0
70
128
71
180
72
171
73
177
0
VERTEX
8
GIGN01
10
0
20
0
30
0
70
128
71
171
72
180
73
175
0
VERTEX
8
GIGN01
10
0
20
0
30
0
70
128
71
182
72
175
73
180
0
VERTEX
8
GIGN01
10
0
20
0
30
0
70
128
71
182
72
174
73
175
0
VERTEX
8
GIGN01
10
0
20
0
30
0
70
128
71
66
72
104
73
68
0
VERTEX
8
GIGN01
10
0
20
0
30
0
70
128
71
65
72
104
73
92
0
VERTEX
8
GIGN01
10
0
20
0
30
0
70
128
71
104
72
65
73
68
0
VERTEX
8
GIGN01
10
0
20
0
30
0
70
128
71
65
72
103
73
68
0
VERTEX
8
GIGN01
10
0
20
0
30
0
70
128
71
103
72
65
73
98
0
VERTEX
8
GIGN01
10
0
20
0
30
0
70
128
71
103
72
64
73
68
0
VERTEX
8
GIGN01
10
0
20
0
30
0
70
128
71
173
72
181
73
179
0
VERTEX
8
GIGN01
10
0
20
0
30
0
70
128
71
173
72
179
73
176
0
VERTEX
8
GIGN01
10
0
20
0
30
0
70
128
71
179
72
172
73
176
0
VERTEX
8
GIGN01
10
0
20
0
30
0
70
128
71
172
72
179
73
178
0
VERTEX
8
GIGN01
10
0
20
0
30
0
70
128
71
57
72
178
73
59
0
VERTEX
8
GIGN01
10
0
20
0
30
0
70
128
71
186
72
189
73
187
0
VERTEX
8
GIGN01
10
0
20
0
30
0
70
128
71
101
72
189
73
178
0
VERTEX
8
GIGN01
10
0
20
0
30
0
70
128
71
187
72
101
73
98
0
VERTEX
8
GIGN01
10
0
20
0
30
0
70
128
71
103
72
98
73
101
0
VERTEX
8
GIGN01
10
0
20
0
30
0
70
128
71
104
72
185
73
92
0
VERTEX
8
GIGN01
10
0
20
0
30
0
70
128
71
185
72
104
73
102
0
VERTEX
8
GIGN01
10
0
20
0
30
0
70
128
71
185
72
102
73
188
0
VERTEX
8
GIGN01
10
0
20
0
30
0
70
128
71
185
72
188
73
93
0
VERTEX
8
GIGN01
10
0
20
0
30
0
70
128
71
188
72
183
73
93
0
VERTEX
8
GIGN01
10
0
20
0
30
0
70
128
71
183
72
188
73
282
0
VERTEX
8
GIGN01
10
0
20
0
30
0
70
128
71
284
72
183
73
184
0
VERTEX
8
GIGN01
10
0
20
0
30
0
70
128
71
183
72
189
73
186
0
VERTEX
8
GIGN01
10
0
20
0
30
0
70
128
71
60
72
107
73
61
0
VERTEX
8
GIGN01
10
0
20
0
30
0
70
128
71
108
72
61
73
107
0
VERTEX
8
GIGN01
10
0
20
0
30
0
70
128
71
107
72
60
73
106
0
VERTEX
8
GIGN01
10
0
20
0
30
0
70
128
71
60
72
109
73
106
0
VERTEX
8
GIGN01
10
0
20
0
30
0
70
128
71
110
72
106
73
109
0
VERTEX
8
GIGN01
10
0
20
0
30
0
70
128
71
110
72
105
73
106
0
VERTEX
8
GIGN01
10
0
20
0
30
0
70
128
71
105
72
107
73
106
0
VERTEX
8
GIGN01
10
0
20
0
30
0
70
128
71
105
72
108
73
107
0
VERTEX
8
GIGN01
10
0
20
0
30
0
70
128
71
105
72
110
73
108
0
VERTEX
8
GIGN01
10
0
20
0
30
0
70
128
71
110
72
61
73
108
0
VERTEX
8
GIGN01
10
0
20
0
30
0
70
128
71
110
72
58
73
61
0
VERTEX
8
GIGN01
10
0
20
0
30
0
70
128
71
63
72
110
73
109
0
VERTEX
8
GIGN01
10
0
20
0
30
0
70
128
71
111
72
87
73
88
0
VERTEX
8
GIGN01
10
0
20
0
30
0
70
128
71
81
72
88
73
87
0
VERTEX
8
GIGN01
10
0
20
0
30
0
70
128
71
81
72
87
73
82
0
VERTEX
8
GIGN01
10
0
20
0
30
0
70
128
71
117
72
60
73
82
0
VERTEX
8
GIGN01
10
0
20
0
30
0
70
128
71
62
72
117
73
82
0
VERTEX
8
GIGN01
10
0
20
0
30
0
70
128
71
60
72
117
73
115
0
VERTEX
8
GIGN01
10
0
20
0
30
0
70
128
71
60
72
115
73
113
0
VERTEX
8
GIGN01
10
0
20
0
30
0
70
128
71
60
72
113
73
112
0
VERTEX
8
GIGN01
10
0
20
0
30
0
70
128
71
60
72
112
73
109
0
VERTEX
8
GIGN01
10
0
20
0
30
0
70
128
71
115
72
112
73
113
0
VERTEX
8
GIGN01
10
0
20
0
30
0
70
128
71
112
72
115
73
114
0
VERTEX
8
GIGN01
10
0
20
0
30
0
70
128
71
114
72
109
73
112
0
VERTEX
8
GIGN01
10
0
20
0
30
0
70
128
71
116
72
109
73
114
0
VERTEX
8
GIGN01
10
0
20
0
30
0
70
128
71
116
72
114
73
115
0
VERTEX
8
GIGN01
10
0
20
0
30
0
70
128
71
115
72
117
73
116
0
VERTEX
8
GIGN01
10
0
20
0
30
0
70
128
71
120
72
116
73
119
0
VERTEX
8
GIGN01
10
0
20
0
30
0
70
128
71
119
72
116
73
117
0
VERTEX
8
GIGN01
10
0
20
0
30
0
70
128
71
62
72
119
73
117
0
VERTEX
8
GIGN01
10
0
20
0
30
0
70
128
71
62
72
122
73
119
0
VERTEX
8
GIGN01
10
0
20
0
30
0
70
128
71
119
72
122
73
120
0
VERTEX
8
GIGN01
10
0
20
0
30
0
70
128
71
120
72
122
73
121
0
VERTEX
8
GIGN01
10
0
20
0
30
0
70
128
71
121
72
118
73
120
0
VERTEX
8
GIGN01
10
0
20
0
30
0
70
128
71
116
72
120
73
118
0
VERTEX
8
GIGN01
10
0
20
0
30
0
70
128
71
122
72
62
73
121
0
VERTEX
8
GIGN01
10
0
20
0
30
0
70
128
71
121
72
62
73
118
0
VERTEX
8
GIGN01
10
0
20
0
30
0
70
128
71
59
72
118
73
62
0
VERTEX
8
GIGN01
10
0
20
0
30
0
70
128
71
124
72
126
73
125
0
VERTEX
8
GIGN01
10
0
20
0
30
0
70
128
71
123
72
126
73
124
0
VERTEX
8
GIGN01
10
0
20
0
30
0
70
128
71
127
72
123
73
124
0
VERTEX
8
GIGN01
10
0
20
0
30
0
70
128
71
127
72
63
73
123
0
VERTEX
8
GIGN01
10
0
20
0
30
0
70
128
71
63
72
126
73
123
0
VERTEX
8
GIGN01
10
0
20
0
30
0
70
128
71
126
72
63
73
109
0
VERTEX
8
GIGN01
10
0
20
0
30
0
70
128
71
126
72
109
73
116
0
VERTEX
8
GIGN01
10
0
20
0
30
0
70
128
71
126
72
116
73
125
0
VERTEX
8
GIGN01
10
0
20
0
30
0
70
128
71
125
72
116
73
118
0
VERTEX
8
GIGN01
10
0
20
0
30
0
70
128
71
125
72
118
73
124
0
VERTEX
8
GIGN01
10
0
20
0
30
0
70
128
71
118
72
127
73
124
0
VERTEX
8
GIGN01
10
0
20
0
30
0
70
128
71
59
72
127
73
118
0
VERTEX
8
GIGN01
10
0
20
0
30
0
70
128
71
63
72
127
73
285
0
VERTEX
8
GIGN01
10
0
20
0
30
0
70
128
71
128
72
59
73
73
0
VERTEX
8
GIGN01
10
0
20
0
30
0
70
128
71
69
72
128
73
73
0
VERTEX
8
GIGN01
10
0
20
0
30
0
70
128
71
69
72
73
73
70
0
VERTEX
8
GIGN01
10
0
20
0
30
0
70
128
71
69
72
129
73
128
0
VERTEX
8
GIGN01
10
0
20
0
30
0
70
128
71
64
72
286
73
69
0
VERTEX
8
GIGN01
10
0
20
0
30
0
70
128
71
56
72
130
73
58
0
VERTEX
8
GIGN01
10
0
20
0
30
0
70
128
71
131
72
58
73
130
0
VERTEX
8
GIGN01
10
0
20
0
30
0
70
128
71
58
72
131
73
74
0
VERTEX
8
GIGN01
10
0
20
0
30
0
70
128
71
132
72
67
73
131
0
VERTEX
8
GIGN01
10
0
20
0
30
0
70
128
71
132
72
241
73
67
0
VERTEX
8
GIGN01
10
0
20
0
30
0
70
128
71
131
72
67
73
72
0
VERTEX
8
GIGN01
10
0
20
0
30
0
70
128
71
131
72
72
73
74
0
VERTEX
8
GIGN01
10
0
20
0
30
0
70
128
71
82
72
87
73
133
0
VERTEX
8
GIGN01
10
0
20
0
30
0
70
128
71
133
72
83
73
82
0
VERTEX
8
GIGN01
10
0
20
0
30
0
70
128
71
133
72
135
73
83
0
VERTEX
8
GIGN01
10
0
20
0
30
0
70
128
71
84
72
83
73
135
0
VERTEX
8
GIGN01
10
0
20
0
30
0
70
128
71
136
72
87
73
111
0
VERTEX
8
GIGN01
10
0
20
0
30
0
70
128
71
133
72
136
73
138
0
VERTEX
8
GIGN01
10
0
20
0
30
0
70
128
71
138
72
135
73
133
0
VERTEX
8
GIGN01
10
0
20
0
30
0
70
128
71
138
72
137
73
135
0
VERTEX
8
GIGN01
10
0
20
0
30
0
70
128
71
139
72
135
73
137
0
VERTEX
8
GIGN01
10
0
20
0
30
0
70
128
71
134
72
139
73
137
0
VERTEX
8
GIGN01
10
0
20
0
30
0
70
128
71
133
72
87
73
136
0
VERTEX
8
GIGN01
10
0
20
0
30
0
70
128
71
135
72
139
73
140
0
VERTEX
8
GIGN01
10
0
20
0
30
0
70
128
71
84
72
135
73
140
0
VERTEX
8
GIGN01
10
0
20
0
30
0
70
128
71
144
72
143
73
142
0
VERTEX
8
GIGN01
10
0
20
0
30
0
70
128
71
141
72
142
73
143
0
VERTEX
8
GIGN01
10
0
20
0
30
0
70
128
71
146
72
148
73
149
0
VERTEX
8
GIGN01
10
0
20
0
30
0
70
128
71
145
72
148
73
146
0
VERTEX
8
GIGN01
10
0
20
0
30
0
70
128
71
147
72
146
73
149
0
VERTEX
8
GIGN01
10
0
20
0
30
0
70
128
71
147
72
149
73
150
0
VERTEX
8
GIGN01
10
0
20
0
30
0
70
128
71
150
72
143
73
144
0
VERTEX
8
GIGN01
10
0
20
0
30
0
70
128
71
143
72
150
73
149
0
VERTEX
8
GIGN01
10
0
20
0
30
0
70
128
71
149
72
148
73
143
0
VERTEX
8
GIGN01
10
0
20
0
30
0
70
128
71
146
72
152
73
153
0
VERTEX
8
GIGN01
10
0
20
0
30
0
70
128
71
145
72
146
73
153
0
VERTEX
8
GIGN01
10
0
20
0
30
0
70
128
71
146
72
147
73
152
0
VERTEX
8
GIGN01
10
0
20
0
30
0
70
128
71
147
72
151
73
152
0
VERTEX
8
GIGN01
10
0
20
0
30
0
70
128
71
153
72
152
73
142
0
VERTEX
8
GIGN01
10
0
20
0
30
0
70
128
71
151
72
144
73
142
0
VERTEX
8
GIGN01
10
0
20
0
30
0
70
128
71
152
72
151
73
142
0
VERTEX
8
GIGN01
10
0
20
0
30
0
70
128
71
145
72
153
73
155
0
VERTEX
8
GIGN01
10
0
20
0
30
0
70
128
71
153
72
154
73
155
0
VERTEX
8
GIGN01
10
0
20
0
30
0
70
128
71
154
72
111
73
134
0
VERTEX
8
GIGN01
10
0
20
0
30
0
70
128
71
154
72
157
73
111
0
VERTEX
8
GIGN01
10
0
20
0
30
0
70
128
71
111
72
157
73
136
0
VERTEX
8
GIGN01
10
0
20
0
30
0
70
128
71
137
72
155
73
134
0
VERTEX
8
GIGN01
10
0
20
0
30
0
70
128
71
134
72
155
73
154
0
VERTEX
8
GIGN01
10
0
20
0
30
0
70
128
71
158
72
155
73
138
0
VERTEX
8
GIGN01
10
0
20
0
30
0
70
128
71
145
72
155
73
148
0
VERTEX
8
GIGN01
10
0
20
0
30
0
70
128
71
158
72
148
73
155
0
VERTEX
8
GIGN01
10
0
20
0
30
0
70
128
71
138
72
156
73
158
0
VERTEX
8
GIGN01
10
0
20
0
30
0
70
128
71
137
72
138
73
155
0
VERTEX
8
GIGN01
10
0
20
0
30
0
70
128
71
156
72
138
73
136
0
VERTEX
8
GIGN01
10
0
20
0
30
0
70
128
71
157
72
156
73
136
0
VERTEX
8
GIGN01
10
0
20
0
30
0
70
128
71
157
72
154
73
153
0
VERTEX
8
GIGN01
10
0
20
0
30
0
70
128
71
158
72
156
73
148
0
VERTEX
8
GIGN01
10
0
20
0
30
0
70
128
71
163
72
142
73
141
0
VERTEX
8
GIGN01
10
0
20
0
30
0
70
128
71
141
72
156
73
163
0
VERTEX
8
GIGN01
10
0
20
0
30
0
70
128
71
156
72
157
73
163
0
VERTEX
8
GIGN01
10
0
20
0
30
0
70
128
71
163
72
157
73
153
0
VERTEX
8
GIGN01
10
0
20
0
30
0
70
128
71
163
72
153
73
142
0
VERTEX
8
GIGN01
10
0
20
0
30
0
70
128
71
141
72
148
73
156
0
VERTEX
8
GIGN01
10
0
20
0
30
0
70
128
71
141
72
143
73
148
0
VERTEX
8
GIGN01
10
0
20
0
30
0
70
128
71
147
72
161
73
162
0
VERTEX
8
GIGN01
10
0
20
0
30
0
70
128
71
150
72
161
73
147
0
VERTEX
8
GIGN01
10
0
20
0
30
0
70
128
71
144
72
151
73
160
0
VERTEX
8
GIGN01
10
0
20
0
30
0
70
128
71
151
72
159
73
160
0
VERTEX
8
GIGN01
10
0
20
0
30
0
70
128
71
160
72
150
73
144
0
VERTEX
8
GIGN01
10
0
20
0
30
0
70
128
71
150
72
160
73
161
0
VERTEX
8
GIGN01
10
0
20
0
30
0
70
128
71
159
72
151
73
147
0
VERTEX
8
GIGN01
10
0
20
0
30
0
70
128
71
162
72
159
73
147
0
VERTEX
8
GIGN01
10
0
20
0
30
0
70
128
71
111
72
140
73
139
0
VERTEX
8
GIGN01
10
0
20
0
30
0
70
128
71
111
72
139
73
134
0
VERTEX
8
GIGN01
10
0
20
0
30
0
70
128
71
81
72
164
73
88
0
VERTEX
8
GIGN01
10
0
20
0
30
0
70
128
71
164
72
81
73
86
0
VERTEX
8
GIGN01
10
0
20
0
30
0
70
128
71
164
72
86
73
166
0
VERTEX
8
GIGN01
10
0
20
0
30
0
70
128
71
85
72
166
73
86
0
VERTEX
8
GIGN01
10
0
20
0
30
0
70
128
71
167
72
111
73
88
0
VERTEX
8
GIGN01
10
0
20
0
30
0
70
128
71
164
72
169
73
167
0
VERTEX
8
GIGN01
10
0
20
0
30
0
70
128
71
169
72
164
73
166
0
VERTEX
8
GIGN01
10
0
20
0
30
0
70
128
71
169
72
166
73
168
0
VERTEX
8
GIGN01
10
0
20
0
30
0
70
128
71
170
72
168
73
166
0
VERTEX
8
GIGN01
10
0
20
0
30
0
70
128
71
165
72
168
73
170
0
VERTEX
8
GIGN01
10
0
20
0
30
0
70
128
71
164
72
167
73
88
0
VERTEX
8
GIGN01
10
0
20
0
30
0
70
128
71
166
72
140
73
170
0
VERTEX
8
GIGN01
10
0
20
0
30
0
70
128
71
85
72
140
73
166
0
VERTEX
8
GIGN01
10
0
20
0
30
0
70
128
71
111
72
170
73
140
0
VERTEX
8
GIGN01
10
0
20
0
30
0
70
128
71
111
72
165
73
170
0
VERTEX
8
GIGN01
10
0
20
0
30
0
70
128
71
84
72
140
73
85
0
VERTEX
8
GIGN01
10
0
20
0
30
0
70
128
71
177
72
171
73
56
0
VERTEX
8
GIGN01
10
0
20
0
30
0
70
128
71
177
72
102
73
180
0
VERTEX
8
GIGN01
10
0
20
0
30
0
70
128
71
56
72
175
73
99
0
VERTEX
8
GIGN01
10
0
20
0
30
0
70
128
71
175
72
56
73
171
0
VERTEX
8
GIGN01
10
0
20
0
30
0
70
128
71
104
72
180
73
102
0
VERTEX
8
GIGN01
10
0
20
0
30
0
70
128
71
180
72
104
73
182
0
VERTEX
8
GIGN01
10
0
20
0
30
0
70
128
71
99
72
174
73
66
0
VERTEX
8
GIGN01
10
0
20
0
30
0
70
128
71
174
72
99
73
175
0
VERTEX
8
GIGN01
10
0
20
0
30
0
70
128
71
66
72
182
73
104
0
VERTEX
8
GIGN01
10
0
20
0
30
0
70
128
71
182
72
66
73
174
0
VERTEX
8
GIGN01
10
0
20
0
30
0
70
128
71
103
72
173
73
64
0
VERTEX
8
GIGN01
10
0
20
0
30
0
70
128
71
173
72
103
73
181
0
VERTEX
8
GIGN01
10
0
20
0
30
0
70
128
71
101
72
181
73
103
0
VERTEX
8
GIGN01
10
0
20
0
30
0
70
128
71
181
72
101
73
179
0
VERTEX
8
GIGN01
10
0
20
0
30
0
70
128
71
64
72
176
73
100
0
VERTEX
8
GIGN01
10
0
20
0
30
0
70
128
71
176
72
64
73
173
0
VERTEX
8
GIGN01
10
0
20
0
30
0
70
128
71
100
72
172
73
57
0
VERTEX
8
GIGN01
10
0
20
0
30
0
70
128
71
172
72
100
73
176
0
VERTEX
8
GIGN01
10
0
20
0
30
0
70
128
71
178
72
57
73
172
0
VERTEX
8
GIGN01
10
0
20
0
30
0
70
128
71
178
72
179
73
101
0
VERTEX
8
GIGN01
10
0
20
0
30
0
70
128
71
283
72
188
73
177
0
VERTEX
8
GIGN01
10
0
20
0
30
0
70
128
71
188
72
283
73
282
0
VERTEX
8
GIGN01
10
0
20
0
30
0
70
128
71
187
72
189
73
101
0
VERTEX
8
GIGN01
10
0
20
0
30
0
70
128
71
102
72
177
73
188
0
VERTEX
8
GIGN01
10
0
20
0
30
0
70
128
71
285
72
184
73
63
0
VERTEX
8
GIGN01
10
0
20
0
30
0
70
128
71
184
72
285
73
284
0
VERTEX
8
GIGN01
10
0
20
0
30
0
70
128
71
193
72
191
73
192
0
VERTEX
8
GIGN01
10
0
20
0
30
0
70
128
71
192
72
191
73
190
0
VERTEX
8
GIGN01
10
0
20
0
30
0
70
128
71
195
72
197
73
196
0
VERTEX
8
GIGN01
10
0
20
0
30
0
70
128
71
190
72
202
73
192
0
VERTEX
8
GIGN01
10
0
20
0
30
0
70
128
71
190
72
203
73
202
0
VERTEX
8
GIGN01
10
0
20
0
30
0
70
128
71
203
72
195
73
202
0
VERTEX
8
GIGN01
10
0
20
0
30
0
70
128
71
202
72
195
73
232
0
VERTEX
8
GIGN01
10
0
20
0
30
0
70
128
71
231
72
196
73
201
0
VERTEX
8
GIGN01
10
0
20
0
30
0
70
128
71
201
72
197
73
200
0
VERTEX
8
GIGN01
10
0
20
0
30
0
70
128
71
193
72
201
73
200
0
VERTEX
8
GIGN01
10
0
20
0
30
0
70
128
71
200
72
191
73
193
0
VERTEX
8
GIGN01
10
0
20
0
30
0
70
128
71
209
72
206
73
208
0
VERTEX
8
GIGN01
10
0
20
0
30
0
70
128
71
208
72
206
73
207
0
VERTEX
8
GIGN01
10
0
20
0
30
0
70
128
71
210
72
212
73
211
0
VERTEX
8
GIGN01
10
0
20
0
30
0
70
128
71
210
72
213
73
212
0
VERTEX
8
GIGN01
10
0
20
0
30
0
70
128
71
211
72
208
73
210
0
VERTEX
8
GIGN01
10
0
20
0
30
0
70
128
71
207
72
210
73
208
0
VERTEX
8
GIGN01
10
0
20
0
30
0
70
128
71
214
72
206
73
213
0
VERTEX
8
GIGN01
10
0
20
0
30
0
70
128
71
213
72
206
73
212
0
VERTEX
8
GIGN01
10
0
20
0
30
0
70
128
71
212
72
206
73
209
0
VERTEX
8
GIGN01
10
0
20
0
30
0
70
128
71
216
72
220
73
219
0
VERTEX
8
GIGN01
10
0
20
0
30
0
70
128
71
216
72
219
73
217
0
VERTEX
8
GIGN01
10
0
20
0
30
0
70
128
71
219
72
205
73
217
0
VERTEX
8
GIGN01
10
0
20
0
30
0
70
128
71
205
72
219
73
218
0
VERTEX
8
GIGN01
10
0
20
0
30
0
70
128
71
220
72
218
73
219
0
VERTEX
8
GIGN01
10
0
20
0
30
0
70
128
71
221
72
218
73
220
0
VERTEX
8
GIGN01
10
0
20
0
30
0
70
128
71
216
72
221
73
220
0
VERTEX
8
GIGN01
10
0
20
0
30
0
70
128
71
215
72
221
73
216
0
VERTEX
8
GIGN01
10
0
20
0
30
0
70
128
71
217
72
205
73
216
0
VERTEX
8
GIGN01
10
0
20
0
30
0
70
128
71
216
72
205
73
215
0
VERTEX
8
GIGN01
10
0
20
0
30
0
70
128
71
194
72
223
73
199
0
VERTEX
8
GIGN01
10
0
20
0
30
0
70
128
71
194
72
225
73
224
0
VERTEX
8
GIGN01
10
0
20
0
30
0
70
128
71
194
72
224
73
223
0
VERTEX
8
GIGN01
10
0
20
0
30
0
70
128
71
225
72
241
73
224
0
VERTEX
8
GIGN01
10
0
20
0
30
0
70
128
71
225
72
204
73
222
0
VERTEX
8
GIGN01
10
0
20
0
30
0
70
128
71
194
72
226
73
225
0
VERTEX
8
GIGN01
10
0
20
0
30
0
70
128
71
226
72
194
73
198
0
VERTEX
8
GIGN01
10
0
20
0
30
0
70
128
71
195
72
226
73
198
0
VERTEX
8
GIGN01
10
0
20
0
30
0
70
128
71
195
72
198
73
197
0
VERTEX
8
GIGN01
10
0
20
0
30
0
70
128
71
226
72
195
73
203
0
VERTEX
8
GIGN01
10
0
20
0
30
0
70
128
71
203
72
228
73
226
0
VERTEX
8
GIGN01
10
0
20
0
30
0
70
128
71
228
72
225
73
226
0
VERTEX
8
GIGN01
10
0
20
0
30
0
70
128
71
228
72
204
73
225
0
VERTEX
8
GIGN01
10
0
20
0
30
0
70
128
71
190
72
228
73
203
0
VERTEX
8
GIGN01
10
0
20
0
30
0
70
128
71
228
72
190
73
204
0
VERTEX
8
GIGN01
10
0
20
0
30
0
70
128
71
194
72
199
73
198
0
VERTEX
8
GIGN01
10
0
20
0
30
0
70
128
71
227
72
198
73
199
0
VERTEX
8
GIGN01
10
0
20
0
30
0
70
128
71
191
72
227
73
199
0
VERTEX
8
GIGN01
10
0
20
0
30
0
70
128
71
227
72
191
73
200
0
VERTEX
8
GIGN01
10
0
20
0
30
0
70
128
71
198
72
227
73
200
0
VERTEX
8
GIGN01
10
0
20
0
30
0
70
128
71
200
72
197
73
198
0
VERTEX
8
GIGN01
10
0
20
0
30
0
70
128
71
210
72
232
73
213
0
VERTEX
8
GIGN01
10
0
20
0
30
0
70
128
71
213
72
232
73
231
0
VERTEX
8
GIGN01
10
0
20
0
30
0
70
128
71
213
72
231
73
214
0
VERTEX
8
GIGN01
10
0
20
0
30
0
70
128
71
207
72
232
73
210
0
VERTEX
8
GIGN01
10
0
20
0
30
0
70
128
71
232
72
207
73
229
0
VERTEX
8
GIGN01
10
0
20
0
30
0
70
128
71
206
72
229
73
207
0
VERTEX
8
GIGN01
10
0
20
0
30
0
70
128
71
230
72
205
73
218
0
VERTEX
8
GIGN01
10
0
20
0
30
0
70
128
71
218
72
231
73
230
0
VERTEX
8
GIGN01
10
0
20
0
30
0
70
128
71
214
72
231
73
218
0
VERTEX
8
GIGN01
10
0
20
0
30
0
70
128
71
236
72
208
73
211
0
VERTEX
8
GIGN01
10
0
20
0
30
0
70
128
71
208
72
236
73
234
0
VERTEX
8
GIGN01
10
0
20
0
30
0
70
128
71
208
72
234
73
209
0
VERTEX
8
GIGN01
10
0
20
0
30
0
70
128
71
209
72
234
73
233
0
VERTEX
8
GIGN01
10
0
20
0
30
0
70
128
71
236
72
211
73
212
0
VERTEX
8
GIGN01
10
0
20
0
30
0
70
128
71
236
72
212
73
235
0
VERTEX
8
GIGN01
10
0
20
0
30
0
70
128
71
209
72
235
73
212
0
VERTEX
8
GIGN01
10
0
20
0
30
0
70
128
71
235
72
209
73
233
0
VERTEX
8
GIGN01
10
0
20
0
30
0
70
128
71
235
72
233
73
234
0
VERTEX
8
GIGN01
10
0
20
0
30
0
70
128
71
234
72
236
73
235
0
VERTEX
8
GIGN01
10
0
20
0
30
0
70
128
71
221
72
214
73
218
0
VERTEX
8
GIGN01
10
0
20
0
30
0
70
128
71
221
72
206
73
214
0
VERTEX
8
GIGN01
10
0
20
0
30
0
70
128
71
206
72
221
73
215
0
VERTEX
8
GIGN01
10
0
20
0
30
0
70
128
71
205
72
230
73
215
0
VERTEX
8
GIGN01
10
0
20
0
30
0
70
128
71
229
72
206
73
215
0
VERTEX
8
GIGN01
10
0
20
0
30
0
70
128
71
215
72
230
73
229
0
VERTEX
8
GIGN01
10
0
20
0
30
0
70
128
71
238
72
190
73
191
0
VERTEX
8
GIGN01
10
0
20
0
30
0
70
128
71
238
72
191
73
237
0
VERTEX
8
GIGN01
10
0
20
0
30
0
70
128
71
190
72
238
73
204
0
VERTEX
8
GIGN01
10
0
20
0
30
0
70
128
71
204
72
238
73
222
0
VERTEX
8
GIGN01
10
0
20
0
30
0
70
128
71
130
72
238
73
237
0
VERTEX
8
GIGN01
10
0
20
0
30
0
70
128
71
238
72
239
73
222
0
VERTEX
8
GIGN01
10
0
20
0
30
0
70
128
71
237
72
191
73
199
0
VERTEX
8
GIGN01
10
0
20
0
30
0
70
128
71
130
72
237
73
131
0
VERTEX
8
GIGN01
10
0
20
0
30
0
70
128
71
237
72
199
73
223
0
VERTEX
8
GIGN01
10
0
20
0
30
0
70
128
71
192
72
230
73
193
0
VERTEX
8
GIGN01
10
0
20
0
30
0
70
128
71
230
72
192
73
229
0
VERTEX
8
GIGN01
10
0
20
0
30
0
70
128
71
229
72
192
73
202
0
VERTEX
8
GIGN01
10
0
20
0
30
0
70
128
71
202
72
232
73
229
0
VERTEX
8
GIGN01
10
0
20
0
30
0
70
128
71
196
72
232
73
195
0
VERTEX
8
GIGN01
10
0
20
0
30
0
70
128
71
232
72
196
73
231
0
VERTEX
8
GIGN01
10
0
20
0
30
0
70
128
71
196
72
197
73
201
0
VERTEX
8
GIGN01
10
0
20
0
30
0
70
128
71
231
72
201
73
230
0
VERTEX
8
GIGN01
10
0
20
0
30
0
70
128
71
193
72
230
73
201
0
VERTEX
8
GIGN01
10
0
20
0
30
0
70
128
71
239
72
56
73
99
0
VERTEX
8
GIGN01
10
0
20
0
30
0
70
128
71
222
72
239
73
240
0
VERTEX
8
GIGN01
10
0
20
0
30
0
70
128
71
239
72
130
73
56
0
VERTEX
8
GIGN01
10
0
20
0
30
0
70
128
71
241
72
240
73
66
0
VERTEX
8
GIGN01
10
0
20
0
30
0
70
128
71
241
72
225
73
222
0
VERTEX
8
GIGN01
10
0
20
0
30
0
70
128
71
224
72
241
73
132
0
VERTEX
8
GIGN01
10
0
20
0
30
0
70
128
71
131
72
223
73
132
0
VERTEX
8
GIGN01
10
0
20
0
30
0
70
128
71
132
72
223
73
224
0
VERTEX
8
GIGN01
10
0
20
0
30
0
70
128
71
223
72
131
73
237
0
VERTEX
8
GIGN01
10
0
20
0
30
0
70
128
71
238
72
130
73
239
0
VERTEX
8
GIGN01
10
0
20
0
30
0
70
128
71
239
72
99
73
240
0
VERTEX
8
GIGN01
10
0
20
0
30
0
70
128
71
241
72
66
73
67
0
VERTEX
8
GIGN01
10
0
20
0
30
0
70
128
71
240
72
241
73
222
0
VERTEX
8
GIGN01
10
0
20
0
30
0
70
128
71
66
72
240
73
99
0
VERTEX
8
GIGN01
10
0
20
0
30
0
70
128
71
59
72
242
73
57
0
VERTEX
8
GIGN01
10
0
20
0
30
0
70
128
71
242
72
59
73
128
0
VERTEX
8
GIGN01
10
0
20
0
30
0
70
128
71
248
72
246
73
247
0
VERTEX
8
GIGN01
10
0
20
0
30
0
70
128
71
248
72
245
73
246
0
VERTEX
8
GIGN01
10
0
20
0
30
0
70
128
71
248
72
244
73
245
0
VERTEX
8
GIGN01
10
0
20
0
30
0
70
128
71
249
72
244
73
248
0
VERTEX
8
GIGN01
10
0
20
0
30
0
70
128
71
249
72
243
73
244
0
VERTEX
8
GIGN01
10
0
20
0
30
0
70
128
71
250
72
243
73
249
0
VERTEX
8
GIGN01
10
0
20
0
30
0
70
128
71
254
72
256
73
255
0
VERTEX
8
GIGN01
10
0
20
0
30
0
70
128
71
253
72
256
73
254
0
VERTEX
8
GIGN01
10
0
20
0
30
0
70
128
71
252
72
256
73
253
0
VERTEX
8
GIGN01
10
0
20
0
30
0
70
128
71
252
72
257
73
256
0
VERTEX
8
GIGN01
10
0
20
0
30
0
70
128
71
251
72
257
73
252
0
VERTEX
8
GIGN01
10
0
20
0
30
0
70
128
71
251
72
258
73
257
0
VERTEX
8
GIGN01
10
0
20
0
30
0
70
128
71
256
72
247
73
255
0
VERTEX
8
GIGN01
10
0
20
0
30
0
70
128
71
247
72
256
73
248
0
VERTEX
8
GIGN01
10
0
20
0
30
0
70
128
71
246
72
255
73
247
0
VERTEX
8
GIGN01
10
0
20
0
30
0
70
128
71
255
72
246
73
254
0
VERTEX
8
GIGN01
10
0
20
0
30
0
70
128
71
254
72
246
73
253
0
VERTEX
8
GIGN01
10
0
20
0
30
0
70
128
71
245
72
253
73
246
0
VERTEX
8
GIGN01
10
0
20
0
30
0
70
128
71
253
72
245
73
252
0
VERTEX
8
GIGN01
10
0
20
0
30
0
70
128
71
244
72
252
73
245
0
VERTEX
8
GIGN01
10
0
20
0
30
0
70
128
71
243
72
252
73
244
0
VERTEX
8
GIGN01
10
0
20
0
30
0
70
128
71
252
72
243
73
251
0
VERTEX
8
GIGN01
10
0
20
0
30
0
70
128
71
243
72
258
73
251
0
VERTEX
8
GIGN01
10
0
20
0
30
0
70
128
71
258
72
243
73
250
0
VERTEX
8
GIGN01
10
0
20
0
30
0
70
128
71
258
72
250
73
257
0
VERTEX
8
GIGN01
10
0
20
0
30
0
70
128
71
249
72
257
73
250
0
VERTEX
8
GIGN01
10
0
20
0
30
0
70
128
71
257
72
249
73
256
0
VERTEX
8
GIGN01
10
0
20
0
30
0
70
128
71
248
72
256
73
249
0
VERTEX
8
GIGN01
10
0
20
0
30
0
70
128
71
259
72
260
73
261
0
VERTEX
8
GIGN01
10
0
20
0
30
0
70
128
71
262
72
261
73
260
0
VERTEX
8
GIGN01
10
0
20
0
30
0
70
128
71
263
72
264
73
265
0
VERTEX
8
GIGN01
10
0
20
0
30
0
70
128
71
263
72
266
73
264
0
VERTEX
8
GIGN01
10
0
20
0
30
0
70
128
71
267
72
266
73
263
0
VERTEX
8
GIGN01
10
0
20
0
30
0
70
128
71
267
72
268
73
266
0
VERTEX
8
GIGN01
10
0
20
0
30
0
70
128
71
268
72
261
73
266
0
VERTEX
8
GIGN01
10
0
20
0
30
0
70
128
71
261
72
268
73
259
0
VERTEX
8
GIGN01
10
0
20
0
30
0
70
128
71
266
72
261
73
264
0
VERTEX
8
GIGN01
10
0
20
0
30
0
70
128
71
265
72
269
73
263
0
VERTEX
8
GIGN01
10
0
20
0
30
0
70
128
71
269
72
270
73
263
0
VERTEX
8
GIGN01
10
0
20
0
30
0
70
128
71
263
72
270
73
267
0
VERTEX
8
GIGN01
10
0
20
0
30
0
70
128
71
267
72
270
73
271
0
VERTEX
8
GIGN01
10
0
20
0
30
0
70
128
71
269
72
260
73
270
0
VERTEX
8
GIGN01
10
0
20
0
30
0
70
128
71
270
72
260
73
271
0
VERTEX
8
GIGN01
10
0
20
0
30
0
70
128
71
260
72
259
73
271
0
VERTEX
8
GIGN01
10
0
20
0
30
0
70
128
71
265
72
272
73
269
0
VERTEX
8
GIGN01
10
0
20
0
30
0
70
128
71
269
72
272
73
273
0
VERTEX
8
GIGN01
10
0
20
0
30
0
70
128
71
273
72
165
73
111
0
VERTEX
8
GIGN01
10
0
20
0
30
0
70
128
71
273
72
111
73
274
0
VERTEX
8
GIGN01
10
0
20
0
30
0
70
128
71
111
72
167
73
274
0
VERTEX
8
GIGN01
10
0
20
0
30
0
70
128
71
168
72
165
73
272
0
VERTEX
8
GIGN01
10
0
20
0
30
0
70
128
71
165
72
273
73
272
0
VERTEX
8
GIGN01
10
0
20
0
30
0
70
128
71
169
72
168
73
272
0
VERTEX
8
GIGN01
10
0
20
0
30
0
70
128
71
264
72
275
73
272
0
VERTEX
8
GIGN01
10
0
20
0
30
0
70
128
71
272
72
265
73
264
0
VERTEX
8
GIGN01
10
0
20
0
30
0
70
128
71
169
72
275
73
276
0
VERTEX
8
GIGN01
10
0
20
0
30
0
70
128
71
272
72
275
73
169
0
VERTEX
8
GIGN01
10
0
20
0
30
0
70
128
71
276
72
167
73
169
0
VERTEX
8
GIGN01
10
0
20
0
30
0
70
128
71
274
72
167
73
276
0
VERTEX
8
GIGN01
10
0
20
0
30
0
70
128
71
274
72
269
73
273
0
VERTEX
8
GIGN01
10
0
20
0
30
0
70
128
71
275
72
264
73
276
0
VERTEX
8
GIGN01
10
0
20
0
30
0
70
128
71
281
72
262
73
260
0
VERTEX
8
GIGN01
10
0
20
0
30
0
70
128
71
262
72
281
73
276
0
VERTEX
8
GIGN01
10
0
20
0
30
0
70
128
71
276
72
281
73
274
0
VERTEX
8
GIGN01
10
0
20
0
30
0
70
128
71
281
72
269
73
274
0
VERTEX
8
GIGN01
10
0
20
0
30
0
70
128
71
281
72
260
73
269
0
VERTEX
8
GIGN01
10
0
20
0
30
0
70
128
71
262
72
276
73
264
0
VERTEX
8
GIGN01
10
0
20
0
30
0
70
128
71
262
72
264
73
261
0
VERTEX
8
GIGN01
10
0
20
0
30
0
70
128
71
267
72
278
73
268
0
VERTEX
8
GIGN01
10
0
20
0
30
0
70
128
71
267
72
277
73
278
0
VERTEX
8
GIGN01
10
0
20
0
30
0
70
128
71
259
72
279
73
271
0
VERTEX
8
GIGN01
10
0
20
0
30
0
70
128
71
271
72
279
73
280
0
VERTEX
8
GIGN01
10
0
20
0
30
0
70
128
71
279
72
259
73
268
0
VERTEX
8
GIGN01
10
0
20
0
30
0
70
128
71
268
72
278
73
279
0
VERTEX
8
GIGN01
10
0
20
0
30
0
70
128
71
280
72
267
73
271
0
VERTEX
8
GIGN01
10
0
20
0
30
0
70
128
71
277
72
267
73
280
0
VERTEX
8
GIGN01
10
0
20
0
30
0
70
128
71
282
72
63
73
184
0
VERTEX
8
GIGN01
10
0
20
0
30
0
70
128
71
183
72
282
73
184
0
VERTEX
8
GIGN01
10
0
20
0
30
0
70
128
71
283
72
63
73
282
0
VERTEX
8
GIGN01
10
0
20
0
30
0
70
128
71
283
72
58
73
63
0
VERTEX
8
GIGN01
10
0
20
0
30
0
70
128
71
58
72
110
73
63
0
VERTEX
8
GIGN01
10
0
20
0
30
0
70
128
71
284
72
178
73
189
0
VERTEX
8
GIGN01
10
0
20
0
30
0
70
128
71
189
72
183
73
284
0
VERTEX
8
GIGN01
10
0
20
0
30
0
70
128
71
285
72
178
73
284
0
VERTEX
8
GIGN01
10
0
20
0
30
0
70
128
71
285
72
127
73
178
0
VERTEX
8
GIGN01
10
0
20
0
30
0
70
128
71
127
72
59
73
178
0
VERTEX
8
GIGN01
10
0
20
0
30
0
70
128
71
287
72
100
73
57
0
VERTEX
8
GIGN01
10
0
20
0
30
0
70
128
71
287
72
57
73
242
0
VERTEX
8
GIGN01
10
0
20
0
30
0
70
128
71
286
72
64
73
288
0
VERTEX
8
GIGN01
10
0
20
0
30
0
70
128
71
287
72
288
73
100
0
VERTEX
8
GIGN01
10
0
20
0
30
0
70
128
71
286
72
129
73
69
0
VERTEX
8
GIGN01
10
0
20
0
30
0
70
128
71
64
72
100
73
288
0
VERTEX
8
GIGN01
10
0
20
0
30
0
70
128
71
289
72
290
73
291
0
VERTEX
8
GIGN01
10
0
20
0
30
0
70
128
71
292
72
289
73
291
0
VERTEX
8
GIGN01
10
0
20
0
30
0
70
128
71
293
72
294
73
295
0
VERTEX
8
GIGN01
10
0
20
0
30
0
70
128
71
294
72
296
73
295
0
VERTEX
8
GIGN01
10
0
20
0
30
0
70
128
71
292
72
291
73
297
0
VERTEX
8
GIGN01
10
0
20
0
30
0
70
128
71
291
72
298
73
297
0
VERTEX
8
GIGN01
10
0
20
0
30
0
70
128
71
299
72
297
73
300
0
VERTEX
8
GIGN01
10
0
20
0
30
0
70
128
71
301
72
302
73
303
0
VERTEX
8
GIGN01
10
0
20
0
30
0
70
128
71
295
72
296
73
303
0
VERTEX
8
GIGN01
10
0
20
0
30
0
70
128
71
291
72
301
73
298
0
VERTEX
8
GIGN01
10
0
20
0
30
0
70
128
71
294
72
293
73
297
0
VERTEX
8
GIGN01
10
0
20
0
30
0
70
128
71
297
72
298
73
294
0
VERTEX
8
GIGN01
10
0
20
0
30
0
70
128
71
296
72
301
73
303
0
VERTEX
8
GIGN01
10
0
20
0
30
0
70
128
71
297
72
293
73
295
0
VERTEX
8
GIGN01
10
0
20
0
30
0
70
128
71
300
72
297
73
295
0
VERTEX
8
GIGN01
10
0
20
0
30
0
70
128
71
303
72
300
73
295
0
VERTEX
8
GIGN01
10
0
20
0
30
0
70
128
71
302
72
300
73
303
0
VERTEX
8
GIGN01
10
0
20
0
30
0
70
128
71
304
72
291
73
290
0
VERTEX
8
GIGN01
10
0
20
0
30
0
70
128
71
290
72
305
73
304
0
VERTEX
8
GIGN01
10
0
20
0
30
0
70
128
71
305
72
290
73
289
0
VERTEX
8
GIGN01
10
0
20
0
30
0
70
128
71
299
72
305
73
289
0
VERTEX
8
GIGN01
10
0
20
0
30
0
70
128
71
299
72
289
73
292
0
VERTEX
8
GIGN01
10
0
20
0
30
0
70
128
71
298
72
301
73
296
0
VERTEX
8
GIGN01
10
0
20
0
30
0
70
128
71
296
72
294
73
298
0
VERTEX
8
GIGN01
10
0
20
0
30
0
70
128
71
304
72
302
73
301
0
VERTEX
8
GIGN01
10
0
20
0
30
0
70
128
71
304
72
301
73
291
0
VERTEX
8
GIGN01
10
0
20
0
30
0
70
128
71
292
72
297
73
299
0
VERTEX
8
GIGN01
10
0
20
0
30
0
70
128
71
300
72
302
73
299
0
VERTEX
8
GIGN01
10
0
20
0
30
0
70
128
71
162
72
161
73
305
0
VERTEX
8
GIGN01
10
0
20
0
30
0
70
128
71
305
72
161
73
304
0
VERTEX
8
GIGN01
10
0
20
0
30
0
70
128
71
161
72
160
73
304
0
VERTEX
8
GIGN01
10
0
20
0
30
0
70
128
71
302
72
304
73
160
0
VERTEX
8
GIGN01
10
0
20
0
30
0
70
128
71
160
72
299
73
302
0
VERTEX
8
GIGN01
10
0
20
0
30
0
70
128
71
160
72
159
73
299
0
VERTEX
8
GIGN01
10
0
20
0
30
0
70
128
71
305
72
299
73
159
0
VERTEX
8
GIGN01
10
0
20
0
30
0
70
128
71
305
72
159
73
162
0
VERTEX
8
GIGN01
10
0
20
0
30
0
70
128
71
21
72
43
73
51
0
VERTEX
8
GIGN01
10
0
20
0
30
0
70
128
71
51
72
53
73
306
0
VERTEX
8
GIGN01
10
0
20
0
30
0
70
128
71
51
72
306
73
21
0
VERTEX
8
GIGN01
10
0
20
0
30
0
70
128
71
52
72
307
73
48
0
VERTEX
8
GIGN01
10
0
20
0
30
0
70
128
71
307
72
52
73
50
0
VERTEX
8
GIGN01
10
0
20
0
30
0
70
128
71
50
72
42
73
48
0
VERTEX
8
GIGN01
10
0
20
0
30
0
70
128
71
50
72
48
73
307
0
VERTEX
8
GIGN01
10
0
20
0
30
0
70
128
71
308
72
310
73
309
0
VERTEX
8
GIGN01
10
0
20
0
30
0
70
128
71
310
72
311
73
309
0
VERTEX
8
GIGN01
10
0
20
0
30
0
70
128
71
312
72
314
73
313
0
VERTEX
8
GIGN01
10
0
20
0
30
0
70
128
71
311
72
310
73
315
0
VERTEX
8
GIGN01
10
0
20
0
30
0
70
128
71
311
72
315
73
316
0
VERTEX
8
GIGN01
10
0
20
0
30
0
70
128
71
316
72
315
73
312
0
VERTEX
8
GIGN01
10
0
20
0
30
0
70
128
71
315
72
317
73
312
0
VERTEX
8
GIGN01
10
0
20
0
30
0
70
128
71
318
72
319
73
314
0
VERTEX
8
GIGN01
10
0
20
0
30
0
70
128
71
319
72
320
73
313
0
VERTEX
8
GIGN01
10
0
20
0
30
0
70
128
71
308
72
320
73
319
0
VERTEX
8
GIGN01
10
0
20
0
30
0
70
128
71
320
72
308
73
309
0
VERTEX
8
GIGN01
10
0
20
0
30
0
70
128
71
321
72
323
73
322
0
VERTEX
8
GIGN01
10
0
20
0
30
0
70
128
71
323
72
324
73
322
0
VERTEX
8
GIGN01
10
0
20
0
30
0
70
128
71
325
72
327
73
326
0
VERTEX
8
GIGN01
10
0
20
0
30
0
70
128
71
325
72
326
73
328
0
VERTEX
8
GIGN01
10
0
20
0
30
0
70
128
71
327
72
325
73
323
0
VERTEX
8
GIGN01
10
0
20
0
30
0
70
128
71
324
72
323
73
325
0
VERTEX
8
GIGN01
10
0
20
0
30
0
70
128
71
329
72
328
73
322
0
VERTEX
8
GIGN01
10
0
20
0
30
0
70
128
71
328
72
326
73
322
0
VERTEX
8
GIGN01
10
0
20
0
30
0
70
128
71
326
72
321
73
322
0
VERTEX
8
GIGN01
10
0
20
0
30
0
70
128
71
330
72
332
73
331
0
VERTEX
8
GIGN01
10
0
20
0
30
0
70
128
71
330
72
333
73
332
0
VERTEX
8
GIGN01
10
0
20
0
30
0
70
128
71
332
72
333
73
334
0
VERTEX
8
GIGN01
10
0
20
0
30
0
70
128
71
334
72
335
73
332
0
VERTEX
8
GIGN01
10
0
20
0
30
0
70
128
71
331
72
332
73
335
0
VERTEX
8
GIGN01
10
0
20
0
30
0
70
128
71
336
72
331
73
335
0
VERTEX
8
GIGN01
10
0
20
0
30
0
70
128
71
330
72
331
73
336
0
VERTEX
8
GIGN01
10
0
20
0
30
0
70
128
71
337
72
330
73
336
0
VERTEX
8
GIGN01
10
0
20
0
30
0
70
128
71
333
72
330
73
334
0
VERTEX
8
GIGN01
10
0
20
0
30
0
70
128
71
330
72
337
73
334
0
VERTEX
8
GIGN01
10
0
20
0
30
0
70
128
71
338
72
340
73
339
0
VERTEX
8
GIGN01
10
0
20
0
30
0
70
128
71
338
72
342
73
341
0
VERTEX
8
GIGN01
10
0
20
0
30
0
70
128
71
338
72
339
73
342
0
VERTEX
8
GIGN01
10
0
20
0
30
0
70
128
71
341
72
342
73
286
0
VERTEX
8
GIGN01
10
0
20
0
30
0
70
128
71
341
72
344
73
343
0
VERTEX
8
GIGN01
10
0
20
0
30
0
70
128
71
338
72
341
73
345
0
VERTEX
8
GIGN01
10
0
20
0
30
0
70
128
71
345
72
346
73
338
0
VERTEX
8
GIGN01
10
0
20
0
30
0
70
128
71
312
72
346
73
345
0
VERTEX
8
GIGN01
10
0
20
0
30
0
70
128
71
312
72
313
73
346
0
VERTEX
8
GIGN01
10
0
20
0
30
0
70
128
71
345
72
316
73
312
0
VERTEX
8
GIGN01
10
0
20
0
30
0
70
128
71
316
72
345
73
347
0
VERTEX
8
GIGN01
10
0
20
0
30
0
70
128
71
347
72
345
73
341
0
VERTEX
8
GIGN01
10
0
20
0
30
0
70
128
71
347
72
341
73
343
0
VERTEX
8
GIGN01
10
0
20
0
30
0
70
128
71
311
72
316
73
347
0
VERTEX
8
GIGN01
10
0
20
0
30
0
70
128
71
347
72
343
73
311
0
VERTEX
8
GIGN01
10
0
20
0
30
0
70
128
71
338
72
346
73
340
0
VERTEX
8
GIGN01
10
0
20
0
30
0
70
128
71
348
72
340
73
346
0
VERTEX
8
GIGN01
10
0
20
0
30
0
70
128
71
309
72
340
73
348
0
VERTEX
8
GIGN01
10
0
20
0
30
0
70
128
71
348
72
320
73
309
0
VERTEX
8
GIGN01
10
0
20
0
30
0
70
128
71
346
72
320
73
348
0
VERTEX
8
GIGN01
10
0
20
0
30
0
70
128
71
320
72
346
73
313
0
VERTEX
8
GIGN01
10
0
20
0
30
0
70
128
71
325
72
328
73
317
0
VERTEX
8
GIGN01
10
0
20
0
30
0
70
128
71
328
72
318
73
317
0
VERTEX
8
GIGN01
10
0
20
0
30
0
70
128
71
328
72
329
73
318
0
VERTEX
8
GIGN01
10
0
20
0
30
0
70
128
71
324
72
325
73
317
0
VERTEX
8
GIGN01
10
0
20
0
30
0
70
128
71
317
72
349
73
324
0
VERTEX
8
GIGN01
10
0
20
0
30
0
70
128
71
322
72
324
73
349
0
VERTEX
8
GIGN01
10
0
20
0
30
0
70
128
71
350
72
335
73
334
0
VERTEX
8
GIGN01
10
0
20
0
30
0
70
128
71
335
72
350
73
318
0
VERTEX
8
GIGN01
10
0
20
0
30
0
70
128
71
329
72
335
73
318
0
VERTEX
8
GIGN01
10
0
20
0
30
0
70
128
71
351
72
327
73
323
0
VERTEX
8
GIGN01
10
0
20
0
30
0
70
128
71
323
72
352
73
351
0
VERTEX
8
GIGN01
10
0
20
0
30
0
70
128
71
323
72
321
73
352
0
VERTEX
8
GIGN01
10
0
20
0
30
0
70
128
71
321
72
353
73
352
0
VERTEX
8
GIGN01
10
0
20
0
30
0
70
128
71
351
72
326
73
327
0
VERTEX
8
GIGN01
10
0
20
0
30
0
70
128
71
351
72
354
73
326
0
VERTEX
8
GIGN01
10
0
20
0
30
0
70
128
71
321
72
326
73
354
0
VERTEX
8
GIGN01
10
0
20
0
30
0
70
128
71
354
72
353
73
321
0
VERTEX
8
GIGN01
10
0
20
0
30
0
70
128
71
354
72
352
73
353
0
VERTEX
8
GIGN01
10
0
20
0
30
0
70
128
71
352
72
354
73
351
0
VERTEX
8
GIGN01
10
0
20
0
30
0
70
128
71
336
72
335
73
329
0
VERTEX
8
GIGN01
10
0
20
0
30
0
70
128
71
336
72
329
73
322
0
VERTEX
8
GIGN01
10
0
20
0
30
0
70
128
71
322
72
337
73
336
0
VERTEX
8
GIGN01
10
0
20
0
30
0
70
128
71
334
72
337
73
350
0
VERTEX
8
GIGN01
10
0
20
0
30
0
70
128
71
349
72
337
73
322
0
VERTEX
8
GIGN01
10
0
20
0
30
0
70
128
71
337
72
349
73
350
0
VERTEX
8
GIGN01
10
0
20
0
30
0
70
128
71
355
72
309
73
311
0
VERTEX
8
GIGN01
10
0
20
0
30
0
70
128
71
355
72
356
73
309
0
VERTEX
8
GIGN01
10
0
20
0
30
0
70
128
71
311
72
343
73
355
0
VERTEX
8
GIGN01
10
0
20
0
30
0
70
128
71
343
72
344
73
355
0
VERTEX
8
GIGN01
10
0
20
0
30
0
70
128
71
242
72
356
73
355
0
VERTEX
8
GIGN01
10
0
20
0
30
0
70
128
71
355
72
344
73
287
0
VERTEX
8
GIGN01
10
0
20
0
30
0
70
128
71
356
72
340
73
309
0
VERTEX
8
GIGN01
10
0
20
0
30
0
70
128
71
242
72
128
73
356
0
VERTEX
8
GIGN01
10
0
20
0
30
0
70
128
71
356
72
339
73
340
0
VERTEX
8
GIGN01
10
0
20
0
30
0
70
128
71
310
72
308
73
350
0
VERTEX
8
GIGN01
10
0
20
0
30
0
70
128
71
350
72
349
73
310
0
VERTEX
8
GIGN01
10
0
20
0
30
0
70
128
71
349
72
315
73
310
0
VERTEX
8
GIGN01
10
0
20
0
30
0
70
128
71
315
72
349
73
317
0
VERTEX
8
GIGN01
10
0
20
0
30
0
70
128
71
314
72
312
73
317
0
VERTEX
8
GIGN01
10
0
20
0
30
0
70
128
71
317
72
318
73
314
0
VERTEX
8
GIGN01
10
0
20
0
30
0
70
128
71
314
72
319
73
313
0
VERTEX
8
GIGN01
10
0
20
0
30
0
70
128
71
318
72
350
73
319
0
VERTEX
8
GIGN01
10
0
20
0
30
0
70
128
71
308
72
319
73
350
0
VERTEX
8
GIGN01
10
0
20
0
30
0
70
128
71
344
72
288
73
287
0
VERTEX
8
GIGN01
10
0
20
0
30
0
70
128
71
286
72
344
73
341
0
VERTEX
8
GIGN01
10
0
20
0
30
0
70
128
71
342
72
129
73
286
0
VERTEX
8
GIGN01
10
0
20
0
30
0
70
128
71
128
72
129
73
339
0
VERTEX
8
GIGN01
10
0
20
0
30
0
70
128
71
129
72
342
73
339
0
VERTEX
8
GIGN01
10
0
20
0
30
0
70
128
71
339
72
356
73
128
0
VERTEX
8
GIGN01
10
0
20
0
30
0
70
128
71
355
72
287
73
242
0
VERTEX
8
GIGN01
10
0
20
0
30
0
70
128
71
288
72
344
73
286
0
VERTEX
8
GIGN01
10
0
20
0
30
0
70
128
71
357
72
359
73
358
0
VERTEX
8
GIGN01
10
0
20
0
30
0
70
128
71
360
72
359
73
357
0
VERTEX
8
GIGN01
10
0
20
0
30
0
70
128
71
361
72
363
73
362
0
VERTEX
8
GIGN01
10
0
20
0
30
0
70
128
71
362
72
363
73
364
0
VERTEX
8
GIGN01
10
0
20
0
30
0
70
128
71
360
72
365
73
359
0
VERTEX
8
GIGN01
10
0
20
0
30
0
70
128
71
359
72
365
73
366
0
VERTEX
8
GIGN01
10
0
20
0
30
0
70
128
71
367
72
368
73
365
0
VERTEX
8
GIGN01
10
0
20
0
30
0
70
128
71
369
72
371
73
370
0
VERTEX
8
GIGN01
10
0
20
0
30
0
70
128
71
363
72
371
73
364
0
VERTEX
8
GIGN01
10
0
20
0
30
0
70
128
71
359
72
366
73
369
0
VERTEX
8
GIGN01
10
0
20
0
30
0
70
128
71
362
72
365
73
361
0
VERTEX
8
GIGN01
10
0
20
0
30
0
70
128
71
365
72
362
73
366
0
VERTEX
8
GIGN01
10
0
20
0
30
0
70
128
71
364
72
371
73
369
0
VERTEX
8
GIGN01
10
0
20
0
30
0
70
128
71
365
72
363
73
361
0
VERTEX
8
GIGN01
10
0
20
0
30
0
70
128
71
368
72
363
73
365
0
VERTEX
8
GIGN01
10
0
20
0
30
0
70
128
71
371
72
363
73
368
0
VERTEX
8
GIGN01
10
0
20
0
30
0
70
128
71
370
72
371
73
368
0
VERTEX
8
GIGN01
10
0
20
0
30
0
70
128
71
372
72
358
73
359
0
VERTEX
8
GIGN01
10
0
20
0
30
0
70
128
71
358
72
372
73
373
0
VERTEX
8
GIGN01
10
0
20
0
30
0
70
128
71
373
72
357
73
358
0
VERTEX
8
GIGN01
10
0
20
0
30
0
70
128
71
367
72
357
73
373
0
VERTEX
8
GIGN01
10
0
20
0
30
0
70
128
71
367
72
360
73
357
0
VERTEX
8
GIGN01
10
0
20
0
30
0
70
128
71
366
72
364
73
369
0
VERTEX
8
GIGN01
10
0
20
0
30
0
70
128
71
364
72
366
73
362
0
VERTEX
8
GIGN01
10
0
20
0
30
0
70
128
71
372
72
369
73
370
0
VERTEX
8
GIGN01
10
0
20
0
30
0
70
128
71
372
72
359
73
369
0
VERTEX
8
GIGN01
10
0
20
0
30
0
70
128
71
360
72
367
73
365
0
VERTEX
8
GIGN01
10
0
20
0
30
0
70
128
71
368
72
367
73
370
0
VERTEX
8
GIGN01
10
0
20
0
30
0
70
128
71
277
72
373
73
278
0
VERTEX
8
GIGN01
10
0
20
0
30
0
70
128
71
373
72
372
73
278
0
VERTEX
8
GIGN01
10
0
20
0
30
0
70
128
71
278
72
372
73
279
0
VERTEX
8
GIGN01
10
0
20
0
30
0
70
128
71
370
72
279
73
372
0
VERTEX
8
GIGN01
10
0
20
0
30
0
70
128
71
279
72
370
73
367
0
VERTEX
8
GIGN01
10
0
20
0
30
0
70
128
71
279
72
367
73
280
0
VERTEX
8
GIGN01
10
0
20
0
30
0
70
128
71
373
72
280
73
367
0
VERTEX
8
GIGN01
10
0
20
0
30
0
70
128
71
373
72
277
73
280
0
SEQEND
8
GIGN01
0
ENDSEC
0
EOF
