0
SECTION
2
HEADER
9
$ACADVER
1
AC1008
9
$UCSORG
10
0.0
20
0.0
30
0.0
9
$UCSXDIR
10
1.0
20
0.0
30
0.0
9
$TILEMODE
70
1
9
$UCSYDIR
10
0.0
20
1.0
30
0.0
9
$EXTMIN
10
-36.011757
20
-8.848297
30
-0.316704
9
$EXTMAX
10
36.673393
20
6.059782
30
70.477310
0
ENDSEC
0
SECTION
2
TABLES
0
TABLE
2
LTYPE
70
1
0
LTYPE
2
CONTINUOUS
70
64
3
Solid line
72
65
73
0
40
0.0
0
ENDTAB
0
TABLE
2
LAYER
70
1
0
LAYER
2
GIGN01
70
0
62
81
6
CONTINUOUS
0
ENDTAB
0
TABLE
2
STYLE
70
1
0
STYLE
2
STANDARD
70
0
40
0.0
41
1.0
50
0.0
71
0
42
0.2
3
txt
4

0
ENDTAB
0
TABLE
2
UCS
70
0
0
ENDTAB
0
ENDSEC
0
SECTION
2
ENTITIES
0
POLYLINE
8
GIGN01
66
1
70
64
71
394
72
768
62
81
0
VERTEX
8
GIGN01
10
-6.797303
20
-3.550997
30
57.900326
70
192
0
VERTEX
8
GIGN01
10
7.217595
20
-3.545237
30
57.966404
70
192
0
VERTEX
8
GIGN01
10
-6.798282
20
-6.158803
30
52.302513
70
192
0
VERTEX
8
GIGN01
10
7.003179
20
-6.307287
30
51.865494
70
192
0
VERTEX
8
GIGN01
10
0.265944
20
-7.498823
30
40.592041
70
192
0
VERTEX
8
GIGN01
10
-4.690283
20
-5.709909
30
39.446445
70
192
0
VERTEX
8
GIGN01
10
5.419990
20
-5.701756
30
39.543182
70
192
0
VERTEX
8
GIGN01
10
0.263782
20
-7.532035
30
52.741745
70
192
0
VERTEX
8
GIGN01
10
7.621753
20
2.730096
30
57.813110
70
192
0
VERTEX
8
GIGN01
10
0.230652
20
4.451429
30
58.896481
70
192
0
VERTEX
8
GIGN01
10
-7.139956
20
2.747763
30
57.805763
70
192
0
VERTEX
8
GIGN01
10
-6.603489
20
4.411214
30
51.095680
70
192
0
VERTEX
8
GIGN01
10
0.243889
20
6.059782
30
53.470543
70
192
0
VERTEX
8
GIGN01
10
7.293643
20
4.411210
30
51.010590
70
192
0
VERTEX
8
GIGN01
10
5.316592
20
3.125388
30
41.902748
70
192
0
VERTEX
8
GIGN01
10
0.238234
20
5.823204
30
42.179829
70
192
0
VERTEX
8
GIGN01
10
-4.987340
20
3.128544
30
41.886242
70
192
0
VERTEX
8
GIGN01
10
7.754268
20
-0.933182
30
41.414917
70
192
0
VERTEX
8
GIGN01
10
-6.843058
20
-1.000202
30
41.393250
70
192
0
VERTEX
8
GIGN01
10
-1.378741
20
1.621440
30
59.310410
70
192
0
VERTEX
8
GIGN01
10
1.623044
20
1.621438
30
59.310406
70
192
0
VERTEX
8
GIGN01
10
3.061399
20
-0.642566
30
58.868820
70
192
0
VERTEX
8
GIGN01
10
1.240306
20
-3.950697
30
57.996376
70
192
0
VERTEX
8
GIGN01
10
-0.856005
20
-3.903793
30
58.000633
70
192
0
VERTEX
8
GIGN01
10
-2.554517
20
-0.820024
30
58.800522
70
192
0
VERTEX
8
GIGN01
10
6.755766
20
-0.674365
30
40.482288
70
192
0
VERTEX
8
GIGN01
10
2.811804
20
4.500321
30
41.123329
70
192
0
VERTEX
8
GIGN01
10
-2.247307
20
4.500320
30
41.123302
70
192
0
VERTEX
8
GIGN01
10
-6.139243
20
-0.606175
30
40.576015
70
192
0
VERTEX
8
GIGN01
10
4.917120
20
-5.332195
30
36.558781
70
192
0
VERTEX
8
GIGN01
10
-4.416442
20
-5.332205
30
36.658024
70
192
0
VERTEX
8
GIGN01
10
-3.403569
20
-0.503654
30
61.231247
70
192
0
VERTEX
8
GIGN01
10
-2.101525
20
-4.690138
30
59.143288
70
192
0
VERTEX
8
GIGN01
10
-2.507525
20
2.843432
30
61.301128
70
192
0
VERTEX
8
GIGN01
10
-2.807266
20
2.742288
30
59.365723
70
192
0
VERTEX
8
GIGN01
10
-2.355953
20
-3.851370
30
58.503559
70
192
0
VERTEX
8
GIGN01
10
0.265051
20
4.302524
30
60.868732
70
192
0
VERTEX
8
GIGN01
10
3.875343
20
-0.503657
30
61.193371
70
192
0
VERTEX
8
GIGN01
10
3.087583
20
2.918365
30
61.301121
70
192
0
VERTEX
8
GIGN01
10
2.425456
20
-4.677633
30
59.139492
70
192
0
VERTEX
8
GIGN01
10
3.736967
20
2.692212
30
59.484699
70
192
0
VERTEX
8
GIGN01
10
-6.841428
20
-0.412834
30
58.647823
70
192
0
VERTEX
8
GIGN01
10
7.405824
20
-0.411603
30
58.658730
70
192
0
VERTEX
8
GIGN01
10
3.932734
20
-0.416548
30
59.164600
70
192
0
VERTEX
8
GIGN01
10
-3.365003
20
-0.335364
30
59.028107
70
192
0
VERTEX
8
GIGN01
10
3.811206
20
3.099081
30
58.371967
70
192
0
VERTEX
8
GIGN01
10
-3.498847
20
2.867061
30
58.125034
70
192
0
VERTEX
8
GIGN01
10
-6.213991
20
-6.509964
30
49.158337
70
192
0
VERTEX
8
GIGN01
10
0.257120
20
-7.850451
30
49.696934
70
192
0
VERTEX
8
GIGN01
10
0.193004
20
-4.159447
30
31.061306
70
192
0
VERTEX
8
GIGN01
10
6.686134
20
-6.492553
30
48.986351
70
192
0
VERTEX
8
GIGN01
10
8.379728
20
-0.864766
30
50.639904
70
192
0
VERTEX
8
GIGN01
10
7.892085
20
3.169030
30
52.656090
70
192
0
VERTEX
8
GIGN01
10
-7.438632
20
-4.402505
30
52.991383
70
192
0
VERTEX
8
GIGN01
10
-7.768267
20
-0.867895
30
50.642136
70
192
0
VERTEX
8
GIGN01
10
-7.273478
20
3.174893
30
52.451603
70
192
0
VERTEX
8
GIGN01
10
7.267561
20
-0.315236
30
37.136494
70
192
0
VERTEX
8
GIGN01
10
0.273399
20
1.694441
30
30.446985
70
192
0
VERTEX
8
GIGN01
10
4.317996
20
5.250708
30
37.335125
70
192
0
VERTEX
8
GIGN01
10
5.272820
20
-5.272001
30
34.512177
70
192
0
VERTEX
8
GIGN01
10
4.973937
20
4.950886
30
33.382706
70
192
0
VERTEX
8
GIGN01
10
0.225367
20
5.000118
30
33.139309
70
192
0
VERTEX
8
GIGN01
10
0.204843
20
5.723831
30
37.636875
70
192
0
VERTEX
8
GIGN01
10
7.293769
20
-4.378240
30
21.930380
70
192
0
VERTEX
8
GIGN01
10
5.036524
20
-3.770190
30
19.186308
70
192
0
VERTEX
8
GIGN01
10
7.504091
20
-3.770180
30
19.559723
70
192
0
VERTEX
8
GIGN01
10
7.234543
20
-4.649672
30
9.782082
70
192
0
VERTEX
8
GIGN01
10
5.857845
20
2.612214
30
22.728029
70
192
0
VERTEX
8
GIGN01
10
6.783648
20
3.630566
30
17.362776
70
192
0
VERTEX
8
GIGN01
10
6.774072
20
3.699347
30
10.531498
70
192
0
VERTEX
8
GIGN01
10
9.485933
20
-0.728295
30
22.357731
70
192
0
VERTEX
8
GIGN01
10
9.321344
20
-0.728418
30
18.951315
70
192
0
VERTEX
8
GIGN01
10
11.283686
20
-0.898293
30
10.515324
70
192
0
VERTEX
8
GIGN01
10
3.508323
20
-0.564520
30
9.773125
70
192
0
VERTEX
8
GIGN01
10
3.244968
20
-0.728440
30
18.104177
70
192
0
VERTEX
8
GIGN01
10
2.440190
20
-0.728443
30
21.339661
70
192
0
VERTEX
8
GIGN01
10
1.176538
20
-0.818776
30
25.389555
70
192
0
VERTEX
8
GIGN01
10
5.551100
20
3.878925
30
26.122110
70
192
0
VERTEX
8
GIGN01
10
7.118853
20
-5.457420
30
27.903147
70
192
0
VERTEX
8
GIGN01
10
2.932997
20
-5.626181
30
26.702456
70
192
0
VERTEX
8
GIGN01
10
9.165442
20
-0.510612
30
28.389694
70
192
0
VERTEX
8
GIGN01
10
5.384670
20
-0.384753
30
7.997803
70
192
0
VERTEX
8
GIGN01
10
7.667302
20
-2.981457
30
8.372601
70
192
0
VERTEX
8
GIGN01
10
9.904537
20
-0.170761
30
8.233234
70
192
0
VERTEX
8
GIGN01
10
7.508321
20
2.358961
30
8.659046
70
192
0
VERTEX
8
GIGN01
10
4.500906
20
-4.378249
30
21.593184
70
192
0
VERTEX
8
GIGN01
10
-6.828438
20
0.141086
30
37.095516
70
192
0
VERTEX
8
GIGN01
10
0.126846
20
1.694442
30
30.437769
70
192
0
VERTEX
8
GIGN01
10
-3.847731
20
5.247282
30
37.171841
70
192
0
VERTEX
8
GIGN01
10
-4.984811
20
-5.272068
30
34.550728
70
192
0
VERTEX
8
GIGN01
10
-4.582250
20
4.950876
30
33.458588
70
192
0
VERTEX
8
GIGN01
10
0.175226
20
5.000124
30
33.139313
70
192
0
VERTEX
8
GIGN01
10
-6.683077
20
-2.820801
30
58.376129
70
192
0
VERTEX
8
GIGN01
10
7.221849
20
-2.834276
30
58.490944
70
192
0
VERTEX
8
GIGN01
10
7.336074
20
1.775016
30
58.247704
70
192
0
VERTEX
8
GIGN01
10
-6.907120
20
1.837920
30
58.273235
70
192
0
VERTEX
8
GIGN01
10
-6.860430
20
-0.395528
30
59.122498
70
192
0
VERTEX
8
GIGN01
10
7.346936
20
-0.411065
30
59.145702
70
192
0
VERTEX
8
GIGN01
10
-3.554544
20
-3.642193
30
58.363449
70
192
0
VERTEX
8
GIGN01
10
3.980051
20
-3.725487
30
58.416603
70
192
0
VERTEX
8
GIGN01
10
4.211844
20
-0.492953
30
59.596603
70
192
0
VERTEX
8
GIGN01
10
-3.633779
20
-0.345573
30
59.405392
70
192
0
VERTEX
8
GIGN01
10
3.928864
20
2.355295
30
58.719933
70
192
0
VERTEX
8
GIGN01
10
-3.616728
20
2.336133
30
58.588219
70
192
0
VERTEX
8
GIGN01
10
0.266757
20
-6.226451
30
56.321537
70
192
0
VERTEX
8
GIGN01
10
0.238726
20
-7.158620
30
53.100288
70
192
0
VERTEX
8
GIGN01
10
2.839442
20
-3.851364
30
58.478504
70
192
0
VERTEX
8
GIGN01
10
-3.261253
20
-3.352432
30
58.160568
70
192
0
VERTEX
8
GIGN01
10
3.734982
20
-3.435768
30
58.265156
70
192
0
VERTEX
8
GIGN01
10
-7.447005
20
-3.524921
30
56.819332
70
192
0
VERTEX
8
GIGN01
10
8.142895
20
-4.397001
30
53.007904
70
192
0
VERTEX
8
GIGN01
10
8.504627
20
3.752891
30
37.902737
70
192
0
VERTEX
8
GIGN01
10
8.775940
20
0.451992
30
36.536438
70
192
0
VERTEX
8
GIGN01
10
8.636450
20
-0.808243
30
37.424129
70
192
0
VERTEX
8
GIGN01
10
8.711754
20
-3.596848
30
37.145348
70
192
0
VERTEX
8
GIGN01
10
10.522341
20
-2.140188
30
27.571184
70
192
0
VERTEX
8
GIGN01
10
10.351727
20
0.270453
30
28.251371
70
192
0
VERTEX
8
GIGN01
10
9.187838
20
1.110256
30
33.500801
70
192
0
VERTEX
8
GIGN01
10
8.962484
20
4.830433
30
35.296947
70
192
0
VERTEX
8
GIGN01
10
7.116049
20
3.707353
30
37.571587
70
192
0
VERTEX
8
GIGN01
10
7.436634
20
0.288039
30
35.979919
70
192
0
VERTEX
8
GIGN01
10
7.247836
20
-0.853774
30
37.092972
70
192
0
VERTEX
8
GIGN01
10
7.323197
20
-3.642371
30
36.814201
70
192
0
VERTEX
8
GIGN01
10
9.133764
20
-2.185708
30
27.240044
70
192
0
VERTEX
8
GIGN01
10
8.963158
20
0.224923
30
27.920242
70
192
0
VERTEX
8
GIGN01
10
7.918494
20
1.027831
30
33.238285
70
192
0
VERTEX
8
GIGN01
10
7.573878
20
4.784898
30
34.965794
70
192
0
VERTEX
8
GIGN01
10
-6.921912
20
-4.649693
30
10.252438
70
192
0
VERTEX
8
GIGN01
10
-4.734652
20
-3.770203
30
19.395742
70
192
0
VERTEX
8
GIGN01
10
-6.867786
20
-3.770201
30
19.459330
70
192
0
VERTEX
8
GIGN01
10
-6.907751
20
-4.378261
30
21.911949
70
192
0
VERTEX
8
GIGN01
10
-6.397601
20
3.630548
30
17.344341
70
192
0
VERTEX
8
GIGN01
10
-9.099901
20
-0.728321
30
22.339304
70
192
0
VERTEX
8
GIGN01
10
-5.471817
20
2.612287
30
22.709593
70
192
0
VERTEX
8
GIGN01
10
-8.935308
20
-0.728443
30
18.932886
70
192
0
VERTEX
8
GIGN01
10
-6.461417
20
3.699329
30
11.001869
70
192
0
VERTEX
8
GIGN01
10
-10.722244
20
-0.898322
30
10.985714
70
192
0
VERTEX
8
GIGN01
10
-2.054155
20
-0.728448
30
21.321220
70
192
0
VERTEX
8
GIGN01
10
-2.858927
20
-0.728447
30
18.085743
70
192
0
VERTEX
8
GIGN01
10
-3.028426
20
-0.564528
30
10.325054
70
192
0
VERTEX
8
GIGN01
10
-4.998828
20
3.888191
30
26.188129
70
192
0
VERTEX
8
GIGN01
10
-0.790511
20
-0.821343
30
25.371296
70
192
0
VERTEX
8
GIGN01
10
-2.372644
20
-5.616912
30
26.768469
70
192
0
VERTEX
8
GIGN01
10
-8.779421
20
-0.513202
30
28.371452
70
192
0
VERTEX
8
GIGN01
10
-6.732845
20
-5.460005
30
27.884899
70
192
0
VERTEX
8
GIGN01
10
-7.133431
20
2.359218
30
8.836788
70
192
0
VERTEX
8
GIGN01
10
-9.542692
20
-0.170505
30
8.410976
70
192
0
VERTEX
8
GIGN01
10
-7.302356
20
-2.981200
30
8.550282
70
192
0
VERTEX
8
GIGN01
10
-5.007614
20
-0.384496
30
8.131123
70
192
0
VERTEX
8
GIGN01
10
-4.114883
20
-4.378261
30
21.574745
70
192
0
VERTEX
8
GIGN01
10
-2.633641
20
-5.920976
30
55.371372
70
192
0
VERTEX
8
GIGN01
10
-2.807620
20
-6.240769
30
55.323032
70
192
0
VERTEX
8
GIGN01
10
2.985600
20
-5.913557
30
55.440216
70
192
0
VERTEX
8
GIGN01
10
3.118325
20
-6.265740
30
55.327991
70
192
0
VERTEX
8
GIGN01
10
8.128247
20
-3.525465
30
56.820435
70
192
0
VERTEX
8
GIGN01
10
25.846064
20
-3.357693
30
53.901867
70
192
0
VERTEX
8
GIGN01
10
21.468027
20
-3.342979
30
53.707710
70
192
0
VERTEX
8
GIGN01
10
26.077814
20
-3.399694
30
56.061932
70
192
0
VERTEX
8
GIGN01
10
21.402334
20
-3.375267
30
55.906944
70
192
0
VERTEX
8
GIGN01
10
23.819630
20
2.426747
30
55.477795
70
192
0
VERTEX
8
GIGN01
10
23.737684
20
2.275445
30
54.207279
70
192
0
VERTEX
8
GIGN01
10
26.384878
20
2.074032
30
54.287895
70
192
0
VERTEX
8
GIGN01
10
25.803108
20
-0.710474
30
57.187542
70
192
0
VERTEX
8
GIGN01
10
21.472137
20
-0.545421
30
57.736443
70
192
0
VERTEX
8
GIGN01
10
29.863716
20
1.077906
30
55.939659
70
192
0
VERTEX
8
GIGN01
10
29.655045
20
1.340125
30
53.896317
70
192
0
VERTEX
8
GIGN01
10
25.630869
20
-0.149390
30
52.672165
70
192
0
VERTEX
8
GIGN01
10
21.203388
20
-0.642251
30
52.165432
70
192
0
VERTEX
8
GIGN01
10
17.177435
20
1.808004
30
53.747292
70
192
0
VERTEX
8
GIGN01
10
14.021189
20
-0.881275
30
51.596294
70
192
0
VERTEX
8
GIGN01
10
18.468081
20
-0.646435
30
52.041248
70
192
0
VERTEX
8
GIGN01
10
17.275862
20
2.701231
30
55.931221
70
192
0
VERTEX
8
GIGN01
10
11.923767
20
3.088444
30
53.936321
70
192
0
VERTEX
8
GIGN01
10
18.801291
20
-0.395738
30
57.574947
70
192
0
VERTEX
8
GIGN01
10
11.417282
20
-0.475911
30
58.654675
70
192
0
VERTEX
8
GIGN01
10
20.625950
20
2.291745
30
55.645435
70
192
0
VERTEX
8
GIGN01
10
20.591068
20
1.590923
30
53.827175
70
192
0
VERTEX
8
GIGN01
10
20.554646
20
-0.622938
30
57.780296
70
192
0
VERTEX
8
GIGN01
10
20.527163
20
-0.642697
30
52.317963
70
192
0
VERTEX
8
GIGN01
10
29.915222
20
-2.431968
30
56.350136
70
192
0
VERTEX
8
GIGN01
10
29.677925
20
-2.688873
30
53.332458
70
192
0
VERTEX
8
GIGN01
10
17.479649
20
-3.951193
30
55.996998
70
192
0
VERTEX
8
GIGN01
10
17.502167
20
-3.852392
30
53.858826
70
192
0
VERTEX
8
GIGN01
10
8.830341
20
-0.731212
30
48.755676
70
192
0
VERTEX
8
GIGN01
10
-8.246786
20
-0.726700
30
48.500717
70
192
0
VERTEX
8
GIGN01
10
7.750184
20
-0.944122
30
41.411678
70
192
0
VERTEX
8
GIGN01
10
-4.978378
20
-6.239859
30
40.644962
70
192
0
VERTEX
8
GIGN01
10
5.641409
20
-6.227541
30
40.726578
70
192
0
VERTEX
8
GIGN01
10
-6.214709
20
-7.175663
30
49.004314
70
192
0
VERTEX
8
GIGN01
10
0.256402
20
-8.516150
30
49.542908
70
192
0
VERTEX
8
GIGN01
10
6.685416
20
-7.158252
30
48.832325
70
192
0
VERTEX
8
GIGN01
10
-4.701165
20
-6.435370
30
38.582085
70
192
0
VERTEX
8
GIGN01
10
4.966548
20
-6.489153
30
38.561367
70
192
0
VERTEX
8
GIGN01
10
4.320143
20
-6.211762
30
36.324120
70
192
0
VERTEX
8
GIGN01
10
-3.828706
20
-6.211773
30
36.423367
70
192
0
VERTEX
8
GIGN01
10
0.189277
20
-6.171558
30
34.612206
70
192
0
VERTEX
8
GIGN01
10
4.599154
20
5.717606
30
37.168869
70
192
0
VERTEX
8
GIGN01
10
4.587767
20
0.700763
30
64.899284
70
192
0
VERTEX
8
GIGN01
10
4.423932
20
-2.397553
30
62.655952
70
192
0
VERTEX
8
GIGN01
10
4.272560
20
-4.684256
30
65.178429
70
192
0
VERTEX
8
GIGN01
10
-4.128447
20
-4.755139
30
65.120468
70
192
0
VERTEX
8
GIGN01
10
-3.932286
20
-2.401395
30
62.588058
70
192
0
VERTEX
8
GIGN01
10
-4.152972
20
0.679622
30
64.882118
70
192
0
VERTEX
8
GIGN01
10
3.560041
20
0.010830
30
62.106888
70
192
0
VERTEX
8
GIGN01
10
-3.269847
20
0.012698
30
62.120766
70
192
0
VERTEX
8
GIGN01
10
3.664092
20
-6.412627
30
66.340431
70
192
0
VERTEX
8
GIGN01
10
1.379994
20
-7.576609
30
65.982544
70
192
0
VERTEX
8
GIGN01
10
0.251859
20
-7.691382
30
66.527046
70
192
0
VERTEX
8
GIGN01
10
2.837185
20
-3.111488
30
69.857491
70
192
0
VERTEX
8
GIGN01
10
0.265503
20
-4.927539
30
69.945587
70
192
0
VERTEX
8
GIGN01
10
0.287261
20
-1.401635
30
70.477310
70
192
0
VERTEX
8
GIGN01
10
2.498127
20
-0.004758
30
69.768005
70
192
0
VERTEX
8
GIGN01
10
-0.613582
20
1.409662
30
69.638344
70
192
0
VERTEX
8
GIGN01
10
-2.203859
20
0.000301
30
69.766319
70
192
0
VERTEX
8
GIGN01
10
-2.306133
20
-3.111487
30
69.857491
70
192
0
VERTEX
8
GIGN01
10
4.170938
20
-4.399600
30
67.817413
70
192
0
VERTEX
8
GIGN01
10
0.263463
20
-6.917646
30
68.120720
70
192
0
VERTEX
8
GIGN01
10
4.216464
20
0.719539
30
67.680908
70
192
0
VERTEX
8
GIGN01
10
-1.261968
20
3.144142
30
67.490501
70
192
0
VERTEX
8
GIGN01
10
-3.747679
20
0.676075
30
67.677803
70
192
0
VERTEX
8
GIGN01
10
-3.735208
20
-4.468261
30
67.852142
70
192
0
VERTEX
8
GIGN01
10
0.263463
20
-7.295394
30
65.888252
70
192
0
VERTEX
8
GIGN01
10
-1.307358
20
3.340603
30
64.876694
70
192
0
VERTEX
8
GIGN01
10
-1.021289
20
2.594321
30
62.332169
70
192
0
VERTEX
8
GIGN01
10
0.252078
20
-6.183018
30
68.272400
70
192
0
VERTEX
8
GIGN01
10
0.252078
20
-7.191113
30
68.484047
70
192
0
VERTEX
8
GIGN01
10
3.359022
20
-5.925170
30
67.937134
70
192
0
VERTEX
8
GIGN01
10
3.502470
20
-4.783081
30
67.679581
70
192
0
VERTEX
8
GIGN01
10
3.820716
20
-5.214868
30
66.076134
70
192
0
VERTEX
8
GIGN01
10
1.431878
20
-6.800214
30
65.707031
70
192
0
VERTEX
8
GIGN01
10
0.251859
20
-6.768120
30
66.258415
70
192
0
VERTEX
8
GIGN01
10
-3.159478
20
-6.352810
30
66.314316
70
192
0
VERTEX
8
GIGN01
10
-0.875382
20
-7.576993
30
65.975410
70
192
0
VERTEX
8
GIGN01
10
-2.852968
20
-5.865354
30
67.911018
70
192
0
VERTEX
8
GIGN01
10
-2.996417
20
-4.723264
30
67.653473
70
192
0
VERTEX
8
GIGN01
10
-3.316104
20
-5.155049
30
66.050018
70
192
0
VERTEX
8
GIGN01
10
-0.927267
20
-6.800600
30
65.699905
70
192
0
VERTEX
8
GIGN01
10
1.043106
20
1.396755
30
69.679741
70
192
0
VERTEX
8
GIGN01
10
1.724294
20
3.150269
30
67.470734
70
192
0
VERTEX
8
GIGN01
10
1.925737
20
3.341672
30
64.852402
70
192
0
VERTEX
8
GIGN01
10
1.645398
20
2.608789
30
62.342178
70
192
0
VERTEX
8
GIGN01
10
1.207975
20
-3.936351
30
59.945297
70
192
0
VERTEX
8
GIGN01
10
2.863666
20
-1.801704
30
61.426292
70
192
0
VERTEX
8
GIGN01
10
1.533897
20
1.294751
30
61.442474
70
192
0
VERTEX
8
GIGN01
10
-1.173032
20
1.282024
30
61.441994
70
192
0
VERTEX
8
GIGN01
10
-2.493625
20
-1.815067
30
61.415653
70
192
0
VERTEX
8
GIGN01
10
-0.828836
20
-3.958168
30
59.932686
70
192
0
VERTEX
8
GIGN01
10
-2.751491
20
-3.802944
30
63.468765
70
192
0
VERTEX
8
GIGN01
10
-1.770172
20
-5.648272
30
64.275558
70
192
0
VERTEX
8
GIGN01
10
-2.707412
20
-4.529521
30
64.627762
70
192
0
VERTEX
8
GIGN01
10
1.984987
20
-5.667485
30
64.287354
70
192
0
VERTEX
8
GIGN01
10
3.077855
20
-3.818514
30
63.425182
70
192
0
VERTEX
8
GIGN01
10
3.136908
20
-4.550098
30
64.650055
70
192
0
VERTEX
8
GIGN01
10
-1.165651
20
-6.371210
30
65.619003
70
192
0
VERTEX
8
GIGN01
10
1.516757
20
-6.388310
30
65.620041
70
192
0
VERTEX
8
GIGN01
10
-1.081827
20
-6.510083
30
65.066414
70
192
0
VERTEX
8
GIGN01
10
1.314295
20
-6.509985
30
65.066444
70
192
0
VERTEX
8
GIGN01
10
-2.901168
20
-4.623352
30
65.244583
70
192
0
VERTEX
8
GIGN01
10
3.276690
20
-4.626248
30
65.242706
70
192
0
VERTEX
8
GIGN01
10
-2.764232
20
-1.932131
30
62.159489
70
192
0
VERTEX
8
GIGN01
10
3.127555
20
-1.928533
30
62.126495
70
192
0
VERTEX
8
GIGN01
10
-0.127200
20
-6.982337
30
62.840691
70
192
0
VERTEX
8
GIGN01
10
0.759754
20
-6.371230
30
62.337708
70
192
0
VERTEX
8
GIGN01
10
0.495006
20
-6.982337
30
62.840691
70
192
0
VERTEX
8
GIGN01
10
-0.398713
20
-6.374995
30
62.330414
70
192
0
VERTEX
8
GIGN01
10
0.334687
20
-6.378198
30
64.723297
70
192
0
VERTEX
8
GIGN01
10
-0.022750
20
-6.390926
30
64.710052
70
192
0
VERTEX
8
GIGN01
10
-0.237160
20
-6.094487
30
64.287590
70
192
0
VERTEX
8
GIGN01
10
-1.496332
20
-5.517940
30
62.272011
70
192
0
VERTEX
8
GIGN01
10
-0.898775
20
-4.910499
30
59.776627
70
192
0
VERTEX
8
GIGN01
10
1.859436
20
-5.534248
30
62.264816
70
192
0
VERTEX
8
GIGN01
10
1.270468
20
-4.910415
30
59.776646
70
192
0
VERTEX
8
GIGN01
10
0.563251
20
-6.094489
30
64.273415
70
192
0
VERTEX
8
GIGN01
10
0.178329
20
-6.051994
30
59.936554
70
192
0
VERTEX
8
GIGN01
10
-0.099078
20
-6.729672
30
63.842545
70
192
0
VERTEX
8
GIGN01
10
0.456936
20
-6.729672
30
63.842545
70
192
0
VERTEX
8
GIGN01
10
1.979912
20
-5.522153
30
63.550591
70
192
0
VERTEX
8
GIGN01
10
0.651718
20
-6.183658
30
63.580048
70
192
0
VERTEX
8
GIGN01
10
-1.734408
20
-5.543098
30
63.583420
70
192
0
VERTEX
8
GIGN01
10
2.414513
20
-4.197524
30
61.395889
70
192
0
VERTEX
8
GIGN01
10
-1.980579
20
-4.210313
30
61.382652
70
192
0
VERTEX
8
GIGN01
10
-0.314007
20
-6.177760
30
63.595390
70
192
0
VERTEX
8
GIGN01
10
-25.198040
20
-3.357692
30
53.878445
70
192
0
VERTEX
8
GIGN01
10
-25.429790
20
-3.399694
30
56.038509
70
192
0
VERTEX
8
GIGN01
10
-20.820004
20
-3.342979
30
53.684288
70
192
0
VERTEX
8
GIGN01
10
-20.754311
20
-3.375267
30
55.883522
70
192
0
VERTEX
8
GIGN01
10
-23.171606
20
2.426747
30
55.454372
70
192
0
VERTEX
8
GIGN01
10
-25.736855
20
2.074032
30
54.264473
70
192
0
VERTEX
8
GIGN01
10
-23.089661
20
2.275445
30
54.183857
70
192
0
VERTEX
8
GIGN01
10
-25.155085
20
-0.710474
30
57.164120
70
192
0
VERTEX
8
GIGN01
10
-20.824114
20
-0.545421
30
57.713020
70
192
0
VERTEX
8
GIGN01
10
-29.208887
20
1.077906
30
55.914547
70
192
0
VERTEX
8
GIGN01
10
-29.000216
20
1.340125
30
53.871208
70
192
0
VERTEX
8
GIGN01
10
-24.982845
20
-0.149390
30
52.648743
70
192
0
VERTEX
8
GIGN01
10
-20.555365
20
-0.642251
30
52.142010
70
192
0
VERTEX
8
GIGN01
10
-34.131050
20
-1.952003
30
55.040886
70
192
0
VERTEX
8
GIGN01
10
-34.550362
20
-1.967881
30
55.766048
70
192
0
VERTEX
8
GIGN01
10
-32.341980
20
-2.276913
30
54.976135
70
192
0
VERTEX
8
GIGN01
10
-32.396271
20
-2.196681
30
56.504005
70
192
0
VERTEX
8
GIGN01
10
-32.003986
20
1.376591
30
56.133942
70
192
0
VERTEX
8
GIGN01
10
-34.160130
20
1.297736
30
55.765690
70
192
0
VERTEX
8
GIGN01
10
-33.742252
20
1.299496
30
55.036736
70
192
0
VERTEX
8
GIGN01
10
-32.024841
20
1.191568
30
54.961266
70
192
0
VERTEX
8
GIGN01
10
-31.509121
20
0.020800
30
53.342934
70
192
0
VERTEX
8
GIGN01
10
-33.998833
20
-2.981967
30
52.540329
70
192
0
VERTEX
8
GIGN01
10
-33.818394
20
-2.086901
30
52.149708
70
192
0
VERTEX
8
GIGN01
10
-34.031540
20
-2.144211
30
52.605591
70
192
0
VERTEX
8
GIGN01
10
-33.785305
20
-2.924666
30
52.084602
70
192
0
VERTEX
8
GIGN01
10
-31.246233
20
-2.889958
30
52.671528
70
192
0
VERTEX
8
GIGN01
10
-31.802048
20
-1.718328
30
52.713646
70
192
0
VERTEX
8
GIGN01
10
-31.996605
20
-1.906740
30
53.853970
70
192
0
VERTEX
8
GIGN01
10
-31.905334
20
-2.889409
30
53.882130
70
192
0
VERTEX
8
GIGN01
10
-16.529411
20
1.808004
30
53.723869
70
192
0
VERTEX
8
GIGN01
10
-17.820057
20
-0.646435
30
52.017826
70
192
0
VERTEX
8
GIGN01
10
-13.373165
20
-0.881275
30
51.572872
70
192
0
VERTEX
8
GIGN01
10
-11.275743
20
3.088444
30
53.912899
70
192
0
VERTEX
8
GIGN01
10
-16.627838
20
2.701231
30
55.907799
70
192
0
VERTEX
8
GIGN01
10
-10.769258
20
-0.475911
30
58.631252
70
192
0
VERTEX
8
GIGN01
10
-18.153267
20
-0.395738
30
57.551525
70
192
0
VERTEX
8
GIGN01
10
-19.977926
20
2.291745
30
55.622013
70
192
0
VERTEX
8
GIGN01
10
-19.943045
20
1.590923
30
53.803753
70
192
0
VERTEX
8
GIGN01
10
-19.906622
20
-0.622938
30
57.756874
70
192
0
VERTEX
8
GIGN01
10
-19.879139
20
-0.642697
30
52.294540
70
192
0
VERTEX
8
GIGN01
10
-29.260393
20
-2.431968
30
56.325024
70
192
0
VERTEX
8
GIGN01
10
-29.023096
20
-2.688873
30
53.307350
70
192
0
VERTEX
8
GIGN01
10
-35.622044
20
1.177398
30
54.107563
70
192
0
VERTEX
8
GIGN01
10
-36.011757
20
-1.840022
30
54.107403
70
192
0
VERTEX
8
GIGN01
10
-35.632217
20
-1.840308
30
53.813141
70
192
0
VERTEX
8
GIGN01
10
-35.241634
20
1.177114
30
53.812431
70
192
0
VERTEX
8
GIGN01
10
-16.831625
20
-3.951193
30
55.973576
70
192
0
VERTEX
8
GIGN01
10
-16.854143
20
-3.852392
30
53.835403
70
192
0
VERTEX
8
GIGN01
10
0.227906
20
-7.262415
30
68.325653
70
192
0
VERTEX
8
GIGN01
10
3.204558
20
-6.107010
30
67.825058
70
192
0
VERTEX
8
GIGN01
10
3.402598
20
-6.461772
30
66.466873
70
192
0
VERTEX
8
GIGN01
10
1.394025
20
-7.490907
30
66.221558
70
192
0
VERTEX
8
GIGN01
10
0.269229
20
-7.615445
30
66.729820
70
192
0
VERTEX
8
GIGN01
10
-2.705561
20
-6.104743
30
67.800346
70
192
0
VERTEX
8
GIGN01
10
-2.931475
20
-6.463006
30
66.468567
70
192
0
VERTEX
8
GIGN01
10
-0.875140
20
-7.489059
30
66.215210
70
192
0
VERTEX
8
GIGN01
10
-6.589791
20
2.720836
30
-0.057507
70
192
0
VERTEX
8
GIGN01
10
-9.726486
20
2.579980
30
-0.054295
70
192
0
VERTEX
8
GIGN01
10
-10.361378
20
-0.065452
30
-0.079273
70
192
0
VERTEX
8
GIGN01
10
-5.696206
20
0.296715
30
-0.089108
70
192
0
VERTEX
8
GIGN01
10
-6.677039
20
-8.841598
30
-0.073296
70
192
0
VERTEX
8
GIGN01
10
-9.978394
20
-8.848297
30
-0.083206
70
192
0
VERTEX
8
GIGN01
10
-6.806141
20
-8.674089
30
2.233459
70
192
0
VERTEX
8
GIGN01
10
-9.440823
20
-8.673602
30
1.779545
70
192
0
VERTEX
8
GIGN01
10
-5.929652
20
-4.973696
30
-0.087135
70
192
0
VERTEX
8
GIGN01
10
-10.840567
20
-4.973678
30
-0.083973
70
192
0
VERTEX
8
GIGN01
10
-6.021029
20
-0.510580
30
4.947487
70
192
0
VERTEX
8
GIGN01
10
-6.353274
20
-4.532296
30
2.988800
70
192
0
VERTEX
8
GIGN01
10
-10.256649
20
-4.555575
30
2.421303
70
192
0
VERTEX
8
GIGN01
10
-7.985806
20
-2.325783
30
5.012512
70
192
0
VERTEX
8
GIGN01
10
-7.943568
20
-4.840458
30
3.248375
70
192
0
VERTEX
8
GIGN01
10
-9.742527
20
-0.322439
30
4.626835
70
192
0
VERTEX
8
GIGN01
10
-7.800459
20
1.679421
30
4.428101
70
192
0
VERTEX
8
GIGN01
10
6.959854
20
2.720836
30
-0.285103
70
192
0
VERTEX
8
GIGN01
10
10.731441
20
-0.065452
30
-0.306870
70
192
0
VERTEX
8
GIGN01
10
10.096550
20
2.579980
30
-0.281891
70
192
0
VERTEX
8
GIGN01
10
6.066268
20
0.296715
30
-0.316704
70
192
0
VERTEX
8
GIGN01
10
7.047101
20
-8.841598
30
-0.300892
70
192
0
VERTEX
8
GIGN01
10
7.176204
20
-8.674089
30
2.005863
70
192
0
VERTEX
8
GIGN01
10
10.348457
20
-8.848297
30
-0.310802
70
192
0
VERTEX
8
GIGN01
10
9.810886
20
-8.673602
30
1.551949
70
192
0
VERTEX
8
GIGN01
10
6.299715
20
-4.973696
30
-0.314732
70
192
0
VERTEX
8
GIGN01
10
11.210630
20
-4.973678
30
-0.311569
70
192
0
VERTEX
8
GIGN01
10
6.391092
20
-0.510580
30
4.719891
70
192
0
VERTEX
8
GIGN01
10
6.723337
20
-4.532296
30
2.761204
70
192
0
VERTEX
8
GIGN01
10
10.626713
20
-4.555575
30
2.193707
70
192
0
VERTEX
8
GIGN01
10
8.313631
20
-4.840458
30
3.020779
70
192
0
VERTEX
8
GIGN01
10
8.355869
20
-2.325783
30
4.784916
70
192
0
VERTEX
8
GIGN01
10
10.112591
20
-0.322439
30
4.399239
70
192
0
VERTEX
8
GIGN01
10
8.170523
20
1.679421
30
4.200504
70
192
0
VERTEX
8
GIGN01
10
34.792686
20
-1.952003
30
55.067684
70
192
0
VERTEX
8
GIGN01
10
33.003616
20
-2.276913
30
55.002934
70
192
0
VERTEX
8
GIGN01
10
35.211998
20
-1.967881
30
55.792847
70
192
0
VERTEX
8
GIGN01
10
33.057907
20
-2.196681
30
56.530804
70
192
0
VERTEX
8
GIGN01
10
32.665623
20
1.376591
30
56.160740
70
192
0
VERTEX
8
GIGN01
10
34.403889
20
1.299496
30
55.063534
70
192
0
VERTEX
8
GIGN01
10
34.821766
20
1.297736
30
55.792488
70
192
0
VERTEX
8
GIGN01
10
32.686478
20
1.191568
30
54.988064
70
192
0
VERTEX
8
GIGN01
10
32.170753
20
0.020800
30
53.369732
70
192
0
VERTEX
8
GIGN01
10
34.660469
20
-2.981967
30
52.567127
70
192
0
VERTEX
8
GIGN01
10
34.693176
20
-2.144211
30
52.632389
70
192
0
VERTEX
8
GIGN01
10
34.480030
20
-2.086901
30
52.176506
70
192
0
VERTEX
8
GIGN01
10
34.446941
20
-2.924666
30
52.111401
70
192
0
VERTEX
8
GIGN01
10
31.907867
20
-2.889958
30
52.698326
70
192
0
VERTEX
8
GIGN01
10
32.463680
20
-1.718328
30
52.740444
70
192
0
VERTEX
8
GIGN01
10
32.658241
20
-1.906740
30
53.880768
70
192
0
VERTEX
8
GIGN01
10
32.566967
20
-2.889409
30
53.908928
70
192
0
VERTEX
8
GIGN01
10
36.283680
20
1.177398
30
54.134361
70
192
0
VERTEX
8
GIGN01
10
36.673393
20
-1.840022
30
54.134201
70
192
0
VERTEX
8
GIGN01
10
36.293854
20
-1.840308
30
53.839939
70
192
0
VERTEX
8
GIGN01
10
35.903271
20
1.177114
30
53.839230
70
192
0
VERTEX
8
GIGN01
10
0
20
0
30
0
70
128
71
46
72
9
73
13
0
VERTEX
8
GIGN01
10
0
20
0
30
0
70
128
71
11
72
47
73
13
0
VERTEX
8
GIGN01
10
0
20
0
30
0
70
128
71
24
72
105
73
23
0
VERTEX
8
GIGN01
10
0
20
0
30
0
70
128
71
7
72
5
73
6
0
VERTEX
8
GIGN01
10
0
20
0
30
0
70
128
71
-186
72
7
73
18
0
VERTEX
8
GIGN01
10
0
20
0
30
0
70
128
71
26
72
18
73
7
0
VERTEX
8
GIGN01
10
0
20
0
30
0
70
128
71
26
72
15
73
18
0
VERTEX
8
GIGN01
10
0
20
0
30
0
70
128
71
27
72
15
73
26
0
VERTEX
8
GIGN01
10
0
20
0
30
0
70
128
71
15
72
27
73
16
0
VERTEX
8
GIGN01
10
0
20
0
30
0
70
128
71
28
72
16
73
27
0
VERTEX
8
GIGN01
10
0
20
0
30
0
70
128
71
16
72
28
73
17
0
VERTEX
8
GIGN01
10
0
20
0
30
0
70
128
71
29
72
17
73
28
0
VERTEX
8
GIGN01
10
0
20
0
30
0
70
128
71
17
72
29
73
19
0
VERTEX
8
GIGN01
10
0
20
0
30
0
70
128
71
19
72
29
73
6
0
VERTEX
8
GIGN01
10
0
20
0
30
0
70
128
71
16
72
12
73
13
0
VERTEX
8
GIGN01
10
0
20
0
30
0
70
128
71
17
72
12
73
16
0
VERTEX
8
GIGN01
10
0
20
0
30
0
70
128
71
16
72
13
73
14
0
VERTEX
8
GIGN01
10
0
20
0
30
0
70
128
71
16
72
14
73
15
0
VERTEX
8
GIGN01
10
0
20
0
30
0
70
128
71
33
72
105
73
24
0
VERTEX
8
GIGN01
10
0
20
0
30
0
70
128
71
32
72
33
73
25
0
VERTEX
8
GIGN01
10
0
20
0
30
0
70
128
71
33
72
24
73
25
0
VERTEX
8
GIGN01
10
0
20
0
30
0
70
128
71
20
72
32
73
25
0
VERTEX
8
GIGN01
10
0
20
0
30
0
70
128
71
20
72
34
73
32
0
VERTEX
8
GIGN01
10
0
20
0
30
0
70
128
71
32
72
36
73
33
0
VERTEX
8
GIGN01
10
0
20
0
30
0
70
128
71
36
72
32
73
45
0
VERTEX
8
GIGN01
10
0
20
0
30
0
70
128
71
36
72
105
73
33
0
VERTEX
8
GIGN01
10
0
20
0
30
0
70
128
71
34
72
37
73
35
0
VERTEX
8
GIGN01
10
0
20
0
30
0
70
128
71
37
72
10
73
35
0
VERTEX
8
GIGN01
10
0
20
0
30
0
70
128
71
20
72
37
73
34
0
VERTEX
8
GIGN01
10
0
20
0
30
0
70
128
71
105
72
40
73
23
0
VERTEX
8
GIGN01
10
0
20
0
30
0
70
128
71
22
72
40
73
38
0
VERTEX
8
GIGN01
10
0
20
0
30
0
70
128
71
40
72
22
73
23
0
VERTEX
8
GIGN01
10
0
20
0
30
0
70
128
71
38
72
21
73
22
0
VERTEX
8
GIGN01
10
0
20
0
30
0
70
128
71
39
72
21
73
38
0
VERTEX
8
GIGN01
10
0
20
0
30
0
70
128
71
37
72
20
73
21
0
VERTEX
8
GIGN01
10
0
20
0
30
0
70
128
71
21
72
39
73
37
0
VERTEX
8
GIGN01
10
0
20
0
30
0
70
128
71
41
72
10
73
37
0
VERTEX
8
GIGN01
10
0
20
0
30
0
70
128
71
41
72
37
73
39
0
VERTEX
8
GIGN01
10
0
20
0
30
0
70
128
71
41
72
39
73
44
0
VERTEX
8
GIGN01
10
0
20
0
30
0
70
128
71
38
72
44
73
39
0
VERTEX
8
GIGN01
10
0
20
0
30
0
70
128
71
107
72
38
73
40
0
VERTEX
8
GIGN01
10
0
20
0
30
0
70
128
71
44
72
38
73
107
0
VERTEX
8
GIGN01
10
0
20
0
30
0
70
128
71
105
72
107
73
40
0
VERTEX
8
GIGN01
10
0
20
0
30
0
70
128
71
45
72
32
73
34
0
VERTEX
8
GIGN01
10
0
20
0
30
0
70
128
71
34
72
35
73
45
0
VERTEX
8
GIGN01
10
0
20
0
30
0
70
128
71
184
72
52
73
51
0
VERTEX
8
GIGN01
10
0
20
0
30
0
70
128
71
3
72
55
73
48
0
VERTEX
8
GIGN01
10
0
20
0
30
0
70
128
71
152
72
1
73
3
0
VERTEX
8
GIGN01
10
0
20
0
30
0
70
128
71
99
72
1
73
152
0
VERTEX
8
GIGN01
10
0
20
0
30
0
70
128
71
102
72
93
73
99
0
VERTEX
8
GIGN01
10
0
20
0
30
0
70
128
71
93
72
102
73
97
0
VERTEX
8
GIGN01
10
0
20
0
30
0
70
128
71
104
72
97
73
102
0
VERTEX
8
GIGN01
10
0
20
0
30
0
70
128
71
104
72
96
73
97
0
VERTEX
8
GIGN01
10
0
20
0
30
0
70
128
71
12
72
11
73
13
0
VERTEX
8
GIGN01
10
0
20
0
30
0
70
128
71
10
72
47
73
35
0
VERTEX
8
GIGN01
10
0
20
0
30
0
70
128
71
47
72
10
73
13
0
VERTEX
8
GIGN01
10
0
20
0
30
0
70
128
71
10
72
46
73
13
0
VERTEX
8
GIGN01
10
0
20
0
30
0
70
128
71
46
72
10
73
41
0
VERTEX
8
GIGN01
10
0
20
0
30
0
70
128
71
13
72
9
73
14
0
VERTEX
8
GIGN01
10
0
20
0
30
0
70
128
71
95
72
103
73
101
0
VERTEX
8
GIGN01
10
0
20
0
30
0
70
128
71
95
72
101
73
98
0
VERTEX
8
GIGN01
10
0
20
0
30
0
70
128
71
101
72
94
73
98
0
VERTEX
8
GIGN01
10
0
20
0
30
0
70
128
71
94
72
101
73
100
0
VERTEX
8
GIGN01
10
0
20
0
30
0
70
128
71
2
72
100
73
154
0
VERTEX
8
GIGN01
10
0
20
0
30
0
70
128
71
107
72
109
73
44
0
VERTEX
8
GIGN01
10
0
20
0
30
0
70
128
71
44
72
109
73
100
0
VERTEX
8
GIGN01
10
0
20
0
30
0
70
128
71
46
72
41
73
44
0
VERTEX
8
GIGN01
10
0
20
0
30
0
70
128
71
47
72
45
73
35
0
VERTEX
8
GIGN01
10
0
20
0
30
0
70
128
71
45
72
108
73
36
0
VERTEX
8
GIGN01
10
0
20
0
30
0
70
128
71
108
72
105
73
36
0
VERTEX
8
GIGN01
10
0
20
0
30
0
70
128
71
105
72
108
73
151
0
VERTEX
8
GIGN01
10
0
20
0
30
0
70
128
71
153
72
105
73
106
0
VERTEX
8
GIGN01
10
0
20
0
30
0
70
128
71
105
72
109
73
107
0
VERTEX
8
GIGN01
10
0
20
0
30
0
70
128
71
8
72
48
73
49
0
VERTEX
8
GIGN01
10
0
20
0
30
0
70
128
71
196
72
194
73
195
0
VERTEX
8
GIGN01
10
0
20
0
30
0
70
128
71
192
72
195
73
194
0
VERTEX
8
GIGN01
10
0
20
0
30
0
70
128
71
192
72
194
73
193
0
VERTEX
8
GIGN01
10
0
20
0
30
0
70
128
71
4
72
8
73
51
0
VERTEX
8
GIGN01
10
0
20
0
30
0
70
128
71
8
72
49
73
51
0
VERTEX
8
GIGN01
10
0
20
0
30
0
70
128
71
8
72
4
73
154
0
VERTEX
8
GIGN01
10
0
20
0
30
0
70
128
71
14
72
52
73
184
0
VERTEX
8
GIGN01
10
0
20
0
30
0
70
128
71
14
72
18
73
15
0
VERTEX
8
GIGN01
10
0
20
0
30
0
70
128
71
14
72
53
73
52
0
VERTEX
8
GIGN01
10
0
20
0
30
0
70
128
71
1
72
54
73
3
0
VERTEX
8
GIGN01
10
0
20
0
30
0
70
128
71
55
72
3
73
54
0
VERTEX
8
GIGN01
10
0
20
0
30
0
70
128
71
56
72
12
73
55
0
VERTEX
8
GIGN01
10
0
20
0
30
0
70
128
71
56
72
11
73
12
0
VERTEX
8
GIGN01
10
0
20
0
30
0
70
128
71
185
72
12
73
17
0
VERTEX
8
GIGN01
10
0
20
0
30
0
70
128
71
185
72
17
73
19
0
VERTEX
8
GIGN01
10
0
20
0
30
0
70
128
71
7
72
30
73
57
0
VERTEX
8
GIGN01
10
0
20
0
30
0
70
128
71
57
72
26
73
7
0
VERTEX
8
GIGN01
10
0
20
0
30
0
70
128
71
57
72
59
73
26
0
VERTEX
8
GIGN01
10
0
20
0
30
0
70
128
71
27
72
26
73
59
0
VERTEX
8
GIGN01
10
0
20
0
30
0
70
128
71
60
72
30
73
50
0
VERTEX
8
GIGN01
10
0
20
0
30
0
70
128
71
57
72
61
73
59
0
VERTEX
8
GIGN01
10
0
20
0
30
0
70
128
71
62
72
59
73
61
0
VERTEX
8
GIGN01
10
0
20
0
30
0
70
128
71
58
72
62
73
61
0
VERTEX
8
GIGN01
10
0
20
0
30
0
70
128
71
57
72
30
73
60
0
VERTEX
8
GIGN01
10
0
20
0
30
0
70
128
71
59
72
62
73
63
0
VERTEX
8
GIGN01
10
0
20
0
30
0
70
128
71
27
72
59
73
63
0
VERTEX
8
GIGN01
10
0
20
0
30
0
70
128
71
67
72
66
73
65
0
VERTEX
8
GIGN01
10
0
20
0
30
0
70
128
71
64
72
65
73
66
0
VERTEX
8
GIGN01
10
0
20
0
30
0
70
128
71
69
72
71
73
72
0
VERTEX
8
GIGN01
10
0
20
0
30
0
70
128
71
68
72
71
73
69
0
VERTEX
8
GIGN01
10
0
20
0
30
0
70
128
71
73
72
69
73
72
0
VERTEX
8
GIGN01
10
0
20
0
30
0
70
128
71
70
72
69
73
73
0
VERTEX
8
GIGN01
10
0
20
0
30
0
70
128
71
73
72
66
73
67
0
VERTEX
8
GIGN01
10
0
20
0
30
0
70
128
71
66
72
73
73
72
0
VERTEX
8
GIGN01
10
0
20
0
30
0
70
128
71
72
72
71
73
66
0
VERTEX
8
GIGN01
10
0
20
0
30
0
70
128
71
69
72
75
73
76
0
VERTEX
8
GIGN01
10
0
20
0
30
0
70
128
71
68
72
69
73
76
0
VERTEX
8
GIGN01
10
0
20
0
30
0
70
128
71
69
72
70
73
74
0
VERTEX
8
GIGN01
10
0
20
0
30
0
70
128
71
69
72
74
73
75
0
VERTEX
8
GIGN01
10
0
20
0
30
0
70
128
71
76
72
75
73
65
0
VERTEX
8
GIGN01
10
0
20
0
30
0
70
128
71
74
72
67
73
65
0
VERTEX
8
GIGN01
10
0
20
0
30
0
70
128
71
75
72
74
73
65
0
VERTEX
8
GIGN01
10
0
20
0
30
0
70
128
71
68
72
76
73
78
0
VERTEX
8
GIGN01
10
0
20
0
30
0
70
128
71
76
72
77
73
78
0
VERTEX
8
GIGN01
10
0
20
0
30
0
70
128
71
77
72
50
73
58
0
VERTEX
8
GIGN01
10
0
20
0
30
0
70
128
71
77
72
80
73
50
0
VERTEX
8
GIGN01
10
0
20
0
30
0
70
128
71
50
72
80
73
60
0
VERTEX
8
GIGN01
10
0
20
0
30
0
70
128
71
61
72
78
73
58
0
VERTEX
8
GIGN01
10
0
20
0
30
0
70
128
71
58
72
78
73
77
0
VERTEX
8
GIGN01
10
0
20
0
30
0
70
128
71
81
72
78
73
61
0
VERTEX
8
GIGN01
10
0
20
0
30
0
70
128
71
68
72
78
73
71
0
VERTEX
8
GIGN01
10
0
20
0
30
0
70
128
71
81
72
71
73
78
0
VERTEX
8
GIGN01
10
0
20
0
30
0
70
128
71
57
72
79
73
81
0
VERTEX
8
GIGN01
10
0
20
0
30
0
70
128
71
61
72
57
73
81
0
VERTEX
8
GIGN01
10
0
20
0
30
0
70
128
71
79
72
57
73
60
0
VERTEX
8
GIGN01
10
0
20
0
30
0
70
128
71
80
72
79
73
60
0
VERTEX
8
GIGN01
10
0
20
0
30
0
70
128
71
80
72
77
73
76
0
VERTEX
8
GIGN01
10
0
20
0
30
0
70
128
71
81
72
79
73
71
0
VERTEX
8
GIGN01
10
0
20
0
30
0
70
128
71
86
72
65
73
64
0
VERTEX
8
GIGN01
10
0
20
0
30
0
70
128
71
64
72
79
73
86
0
VERTEX
8
GIGN01
10
0
20
0
30
0
70
128
71
79
72
80
73
86
0
VERTEX
8
GIGN01
10
0
20
0
30
0
70
128
71
86
72
80
73
76
0
VERTEX
8
GIGN01
10
0
20
0
30
0
70
128
71
86
72
76
73
65
0
VERTEX
8
GIGN01
10
0
20
0
30
0
70
128
71
64
72
71
73
79
0
VERTEX
8
GIGN01
10
0
20
0
30
0
70
128
71
64
72
66
73
71
0
VERTEX
8
GIGN01
10
0
20
0
30
0
70
128
71
70
72
84
73
85
0
VERTEX
8
GIGN01
10
0
20
0
30
0
70
128
71
73
72
84
73
70
0
VERTEX
8
GIGN01
10
0
20
0
30
0
70
128
71
67
72
74
73
83
0
VERTEX
8
GIGN01
10
0
20
0
30
0
70
128
71
74
72
82
73
83
0
VERTEX
8
GIGN01
10
0
20
0
30
0
70
128
71
83
72
73
73
67
0
VERTEX
8
GIGN01
10
0
20
0
30
0
70
128
71
73
72
83
73
84
0
VERTEX
8
GIGN01
10
0
20
0
30
0
70
128
71
82
72
74
73
70
0
VERTEX
8
GIGN01
10
0
20
0
30
0
70
128
71
85
72
82
73
70
0
VERTEX
8
GIGN01
10
0
20
0
30
0
70
128
71
50
72
63
73
62
0
VERTEX
8
GIGN01
10
0
20
0
30
0
70
128
71
50
72
62
73
58
0
VERTEX
8
GIGN01
10
0
20
0
30
0
70
128
71
6
72
87
73
31
0
VERTEX
8
GIGN01
10
0
20
0
30
0
70
128
71
87
72
6
73
29
0
VERTEX
8
GIGN01
10
0
20
0
30
0
70
128
71
87
72
29
73
89
0
VERTEX
8
GIGN01
10
0
20
0
30
0
70
128
71
28
72
89
73
29
0
VERTEX
8
GIGN01
10
0
20
0
30
0
70
128
71
90
72
50
73
31
0
VERTEX
8
GIGN01
10
0
20
0
30
0
70
128
71
87
72
89
73
91
0
VERTEX
8
GIGN01
10
0
20
0
30
0
70
128
71
92
72
91
73
89
0
VERTEX
8
GIGN01
10
0
20
0
30
0
70
128
71
88
72
91
73
92
0
VERTEX
8
GIGN01
10
0
20
0
30
0
70
128
71
87
72
90
73
31
0
VERTEX
8
GIGN01
10
0
20
0
30
0
70
128
71
89
72
63
73
92
0
VERTEX
8
GIGN01
10
0
20
0
30
0
70
128
71
28
72
63
73
89
0
VERTEX
8
GIGN01
10
0
20
0
30
0
70
128
71
50
72
92
73
63
0
VERTEX
8
GIGN01
10
0
20
0
30
0
70
128
71
50
72
88
73
92
0
VERTEX
8
GIGN01
10
0
20
0
30
0
70
128
71
27
72
63
73
28
0
VERTEX
8
GIGN01
10
0
20
0
30
0
70
128
71
99
72
93
73
1
0
VERTEX
8
GIGN01
10
0
20
0
30
0
70
128
71
99
72
45
73
102
0
VERTEX
8
GIGN01
10
0
20
0
30
0
70
128
71
1
72
97
73
42
0
VERTEX
8
GIGN01
10
0
20
0
30
0
70
128
71
97
72
1
73
93
0
VERTEX
8
GIGN01
10
0
20
0
30
0
70
128
71
47
72
102
73
45
0
VERTEX
8
GIGN01
10
0
20
0
30
0
70
128
71
102
72
47
73
104
0
VERTEX
8
GIGN01
10
0
20
0
30
0
70
128
71
42
72
96
73
11
0
VERTEX
8
GIGN01
10
0
20
0
30
0
70
128
71
96
72
42
73
97
0
VERTEX
8
GIGN01
10
0
20
0
30
0
70
128
71
11
72
104
73
47
0
VERTEX
8
GIGN01
10
0
20
0
30
0
70
128
71
104
72
11
73
96
0
VERTEX
8
GIGN01
10
0
20
0
30
0
70
128
71
46
72
95
73
9
0
VERTEX
8
GIGN01
10
0
20
0
30
0
70
128
71
95
72
46
73
103
0
VERTEX
8
GIGN01
10
0
20
0
30
0
70
128
71
44
72
103
73
46
0
VERTEX
8
GIGN01
10
0
20
0
30
0
70
128
71
103
72
44
73
101
0
VERTEX
8
GIGN01
10
0
20
0
30
0
70
128
71
9
72
95
73
43
0
VERTEX
8
GIGN01
10
0
20
0
30
0
70
128
71
98
72
43
73
95
0
VERTEX
8
GIGN01
10
0
20
0
30
0
70
128
71
43
72
94
73
2
0
VERTEX
8
GIGN01
10
0
20
0
30
0
70
128
71
94
72
43
73
98
0
VERTEX
8
GIGN01
10
0
20
0
30
0
70
128
71
100
72
2
73
94
0
VERTEX
8
GIGN01
10
0
20
0
30
0
70
128
71
100
72
101
73
44
0
VERTEX
8
GIGN01
10
0
20
0
30
0
70
128
71
152
72
108
73
99
0
VERTEX
8
GIGN01
10
0
20
0
30
0
70
128
71
108
72
152
73
151
0
VERTEX
8
GIGN01
10
0
20
0
30
0
70
128
71
45
72
99
73
108
0
VERTEX
8
GIGN01
10
0
20
0
30
0
70
128
71
154
72
106
73
8
0
VERTEX
8
GIGN01
10
0
20
0
30
0
70
128
71
106
72
154
73
153
0
VERTEX
8
GIGN01
10
0
20
0
30
0
70
128
71
110
72
1
73
42
0
VERTEX
8
GIGN01
10
0
20
0
30
0
70
128
71
110
72
54
73
1
0
VERTEX
8
GIGN01
10
0
20
0
30
0
70
128
71
4
72
111
73
2
0
VERTEX
8
GIGN01
10
0
20
0
30
0
70
128
71
111
72
4
73
52
0
VERTEX
8
GIGN01
10
0
20
0
30
0
70
128
71
117
72
115
73
116
0
VERTEX
8
GIGN01
10
0
20
0
30
0
70
128
71
117
72
114
73
115
0
VERTEX
8
GIGN01
10
0
20
0
30
0
70
128
71
117
72
113
73
114
0
VERTEX
8
GIGN01
10
0
20
0
30
0
70
128
71
118
72
113
73
117
0
VERTEX
8
GIGN01
10
0
20
0
30
0
70
128
71
118
72
112
73
113
0
VERTEX
8
GIGN01
10
0
20
0
30
0
70
128
71
119
72
112
73
118
0
VERTEX
8
GIGN01
10
0
20
0
30
0
70
128
71
123
72
125
73
124
0
VERTEX
8
GIGN01
10
0
20
0
30
0
70
128
71
122
72
125
73
123
0
VERTEX
8
GIGN01
10
0
20
0
30
0
70
128
71
121
72
125
73
122
0
VERTEX
8
GIGN01
10
0
20
0
30
0
70
128
71
121
72
126
73
125
0
VERTEX
8
GIGN01
10
0
20
0
30
0
70
128
71
120
72
126
73
121
0
VERTEX
8
GIGN01
10
0
20
0
30
0
70
128
71
120
72
127
73
126
0
VERTEX
8
GIGN01
10
0
20
0
30
0
70
128
71
125
72
116
73
124
0
VERTEX
8
GIGN01
10
0
20
0
30
0
70
128
71
116
72
125
73
117
0
VERTEX
8
GIGN01
10
0
20
0
30
0
70
128
71
115
72
124
73
116
0
VERTEX
8
GIGN01
10
0
20
0
30
0
70
128
71
124
72
115
73
123
0
VERTEX
8
GIGN01
10
0
20
0
30
0
70
128
71
123
72
115
73
122
0
VERTEX
8
GIGN01
10
0
20
0
30
0
70
128
71
114
72
122
73
115
0
VERTEX
8
GIGN01
10
0
20
0
30
0
70
128
71
122
72
114
73
121
0
VERTEX
8
GIGN01
10
0
20
0
30
0
70
128
71
113
72
121
73
114
0
VERTEX
8
GIGN01
10
0
20
0
30
0
70
128
71
112
72
121
73
113
0
VERTEX
8
GIGN01
10
0
20
0
30
0
70
128
71
121
72
112
73
120
0
VERTEX
8
GIGN01
10
0
20
0
30
0
70
128
71
112
72
127
73
120
0
VERTEX
8
GIGN01
10
0
20
0
30
0
70
128
71
127
72
112
73
119
0
VERTEX
8
GIGN01
10
0
20
0
30
0
70
128
71
127
72
119
73
126
0
VERTEX
8
GIGN01
10
0
20
0
30
0
70
128
71
118
72
126
73
119
0
VERTEX
8
GIGN01
10
0
20
0
30
0
70
128
71
126
72
118
73
125
0
VERTEX
8
GIGN01
10
0
20
0
30
0
70
128
71
117
72
125
73
118
0
VERTEX
8
GIGN01
10
0
20
0
30
0
70
128
71
128
72
129
73
130
0
VERTEX
8
GIGN01
10
0
20
0
30
0
70
128
71
131
72
130
73
129
0
VERTEX
8
GIGN01
10
0
20
0
30
0
70
128
71
132
72
133
73
134
0
VERTEX
8
GIGN01
10
0
20
0
30
0
70
128
71
132
72
135
73
133
0
VERTEX
8
GIGN01
10
0
20
0
30
0
70
128
71
136
72
137
73
132
0
VERTEX
8
GIGN01
10
0
20
0
30
0
70
128
71
132
72
137
73
135
0
VERTEX
8
GIGN01
10
0
20
0
30
0
70
128
71
137
72
130
73
135
0
VERTEX
8
GIGN01
10
0
20
0
30
0
70
128
71
130
72
137
73
128
0
VERTEX
8
GIGN01
10
0
20
0
30
0
70
128
71
135
72
130
73
133
0
VERTEX
8
GIGN01
10
0
20
0
30
0
70
128
71
134
72
138
73
132
0
VERTEX
8
GIGN01
10
0
20
0
30
0
70
128
71
138
72
139
73
132
0
VERTEX
8
GIGN01
10
0
20
0
30
0
70
128
71
132
72
139
73
140
0
VERTEX
8
GIGN01
10
0
20
0
30
0
70
128
71
136
72
132
73
140
0
VERTEX
8
GIGN01
10
0
20
0
30
0
70
128
71
138
72
129
73
139
0
VERTEX
8
GIGN01
10
0
20
0
30
0
70
128
71
139
72
129
73
140
0
VERTEX
8
GIGN01
10
0
20
0
30
0
70
128
71
129
72
128
73
140
0
VERTEX
8
GIGN01
10
0
20
0
30
0
70
128
71
134
72
141
73
138
0
VERTEX
8
GIGN01
10
0
20
0
30
0
70
128
71
138
72
141
73
142
0
VERTEX
8
GIGN01
10
0
20
0
30
0
70
128
71
142
72
88
73
50
0
VERTEX
8
GIGN01
10
0
20
0
30
0
70
128
71
142
72
50
73
143
0
VERTEX
8
GIGN01
10
0
20
0
30
0
70
128
71
50
72
90
73
143
0
VERTEX
8
GIGN01
10
0
20
0
30
0
70
128
71
91
72
88
73
141
0
VERTEX
8
GIGN01
10
0
20
0
30
0
70
128
71
88
72
142
73
141
0
VERTEX
8
GIGN01
10
0
20
0
30
0
70
128
71
144
72
91
73
141
0
VERTEX
8
GIGN01
10
0
20
0
30
0
70
128
71
133
72
144
73
141
0
VERTEX
8
GIGN01
10
0
20
0
30
0
70
128
71
141
72
134
73
133
0
VERTEX
8
GIGN01
10
0
20
0
30
0
70
128
71
87
72
144
73
145
0
VERTEX
8
GIGN01
10
0
20
0
30
0
70
128
71
91
72
144
73
87
0
VERTEX
8
GIGN01
10
0
20
0
30
0
70
128
71
145
72
90
73
87
0
VERTEX
8
GIGN01
10
0
20
0
30
0
70
128
71
143
72
90
73
145
0
VERTEX
8
GIGN01
10
0
20
0
30
0
70
128
71
143
72
138
73
142
0
VERTEX
8
GIGN01
10
0
20
0
30
0
70
128
71
144
72
133
73
145
0
VERTEX
8
GIGN01
10
0
20
0
30
0
70
128
71
150
72
131
73
129
0
VERTEX
8
GIGN01
10
0
20
0
30
0
70
128
71
131
72
150
73
145
0
VERTEX
8
GIGN01
10
0
20
0
30
0
70
128
71
145
72
150
73
143
0
VERTEX
8
GIGN01
10
0
20
0
30
0
70
128
71
150
72
138
73
143
0
VERTEX
8
GIGN01
10
0
20
0
30
0
70
128
71
150
72
129
73
138
0
VERTEX
8
GIGN01
10
0
20
0
30
0
70
128
71
131
72
145
73
133
0
VERTEX
8
GIGN01
10
0
20
0
30
0
70
128
71
131
72
133
73
130
0
VERTEX
8
GIGN01
10
0
20
0
30
0
70
128
71
136
72
147
73
137
0
VERTEX
8
GIGN01
10
0
20
0
30
0
70
128
71
136
72
146
73
147
0
VERTEX
8
GIGN01
10
0
20
0
30
0
70
128
71
128
72
148
73
140
0
VERTEX
8
GIGN01
10
0
20
0
30
0
70
128
71
140
72
148
73
149
0
VERTEX
8
GIGN01
10
0
20
0
30
0
70
128
71
148
72
128
73
137
0
VERTEX
8
GIGN01
10
0
20
0
30
0
70
128
71
137
72
147
73
148
0
VERTEX
8
GIGN01
10
0
20
0
30
0
70
128
71
149
72
136
73
140
0
VERTEX
8
GIGN01
10
0
20
0
30
0
70
128
71
146
72
136
73
149
0
VERTEX
8
GIGN01
10
0
20
0
30
0
70
128
71
151
72
8
73
106
0
VERTEX
8
GIGN01
10
0
20
0
30
0
70
128
71
105
72
151
73
106
0
VERTEX
8
GIGN01
10
0
20
0
30
0
70
128
71
152
72
8
73
151
0
VERTEX
8
GIGN01
10
0
20
0
30
0
70
128
71
152
72
3
73
8
0
VERTEX
8
GIGN01
10
0
20
0
30
0
70
128
71
3
72
48
73
8
0
VERTEX
8
GIGN01
10
0
20
0
30
0
70
128
71
153
72
100
73
109
0
VERTEX
8
GIGN01
10
0
20
0
30
0
70
128
71
109
72
105
73
153
0
VERTEX
8
GIGN01
10
0
20
0
30
0
70
128
71
154
72
100
73
153
0
VERTEX
8
GIGN01
10
0
20
0
30
0
70
128
71
154
72
4
73
2
0
VERTEX
8
GIGN01
10
0
20
0
30
0
70
128
71
155
72
43
73
2
0
VERTEX
8
GIGN01
10
0
20
0
30
0
70
128
71
155
72
2
73
111
0
VERTEX
8
GIGN01
10
0
20
0
30
0
70
128
71
9
72
53
73
14
0
VERTEX
8
GIGN01
10
0
20
0
30
0
70
128
71
156
72
158
73
157
0
VERTEX
8
GIGN01
10
0
20
0
30
0
70
128
71
158
72
159
73
157
0
VERTEX
8
GIGN01
10
0
20
0
30
0
70
128
71
160
72
162
73
161
0
VERTEX
8
GIGN01
10
0
20
0
30
0
70
128
71
159
72
158
73
163
0
VERTEX
8
GIGN01
10
0
20
0
30
0
70
128
71
159
72
163
73
164
0
VERTEX
8
GIGN01
10
0
20
0
30
0
70
128
71
164
72
163
73
160
0
VERTEX
8
GIGN01
10
0
20
0
30
0
70
128
71
163
72
165
73
160
0
VERTEX
8
GIGN01
10
0
20
0
30
0
70
128
71
166
72
167
73
162
0
VERTEX
8
GIGN01
10
0
20
0
30
0
70
128
71
167
72
168
73
161
0
VERTEX
8
GIGN01
10
0
20
0
30
0
70
128
71
156
72
168
73
167
0
VERTEX
8
GIGN01
10
0
20
0
30
0
70
128
71
168
72
156
73
157
0
VERTEX
8
GIGN01
10
0
20
0
30
0
70
128
71
169
72
171
73
170
0
VERTEX
8
GIGN01
10
0
20
0
30
0
70
128
71
169
72
173
73
172
0
VERTEX
8
GIGN01
10
0
20
0
30
0
70
128
71
169
72
170
73
173
0
VERTEX
8
GIGN01
10
0
20
0
30
0
70
128
71
172
72
173
73
9
0
VERTEX
8
GIGN01
10
0
20
0
30
0
70
128
71
172
72
175
73
174
0
VERTEX
8
GIGN01
10
0
20
0
30
0
70
128
71
169
72
172
73
176
0
VERTEX
8
GIGN01
10
0
20
0
30
0
70
128
71
176
72
177
73
169
0
VERTEX
8
GIGN01
10
0
20
0
30
0
70
128
71
160
72
177
73
176
0
VERTEX
8
GIGN01
10
0
20
0
30
0
70
128
71
160
72
161
73
177
0
VERTEX
8
GIGN01
10
0
20
0
30
0
70
128
71
176
72
164
73
160
0
VERTEX
8
GIGN01
10
0
20
0
30
0
70
128
71
164
72
176
73
178
0
VERTEX
8
GIGN01
10
0
20
0
30
0
70
128
71
178
72
176
73
172
0
VERTEX
8
GIGN01
10
0
20
0
30
0
70
128
71
178
72
172
73
174
0
VERTEX
8
GIGN01
10
0
20
0
30
0
70
128
71
159
72
164
73
178
0
VERTEX
8
GIGN01
10
0
20
0
30
0
70
128
71
178
72
174
73
159
0
VERTEX
8
GIGN01
10
0
20
0
30
0
70
128
71
169
72
177
73
171
0
VERTEX
8
GIGN01
10
0
20
0
30
0
70
128
71
179
72
171
73
177
0
VERTEX
8
GIGN01
10
0
20
0
30
0
70
128
71
157
72
171
73
179
0
VERTEX
8
GIGN01
10
0
20
0
30
0
70
128
71
179
72
168
73
157
0
VERTEX
8
GIGN01
10
0
20
0
30
0
70
128
71
177
72
168
73
179
0
VERTEX
8
GIGN01
10
0
20
0
30
0
70
128
71
168
72
177
73
161
0
VERTEX
8
GIGN01
10
0
20
0
30
0
70
128
71
182
72
157
73
159
0
VERTEX
8
GIGN01
10
0
20
0
30
0
70
128
71
182
72
183
73
157
0
VERTEX
8
GIGN01
10
0
20
0
30
0
70
128
71
159
72
174
73
182
0
VERTEX
8
GIGN01
10
0
20
0
30
0
70
128
71
174
72
175
73
182
0
VERTEX
8
GIGN01
10
0
20
0
30
0
70
128
71
111
72
183
73
182
0
VERTEX
8
GIGN01
10
0
20
0
30
0
70
128
71
182
72
175
73
155
0
VERTEX
8
GIGN01
10
0
20
0
30
0
70
128
71
183
72
171
73
157
0
VERTEX
8
GIGN01
10
0
20
0
30
0
70
128
71
111
72
52
73
170
0
VERTEX
8
GIGN01
10
0
20
0
30
0
70
128
71
183
72
170
73
171
0
VERTEX
8
GIGN01
10
0
20
0
30
0
70
128
71
158
72
156
73
181
0
VERTEX
8
GIGN01
10
0
20
0
30
0
70
128
71
181
72
180
73
158
0
VERTEX
8
GIGN01
10
0
20
0
30
0
70
128
71
180
72
163
73
158
0
VERTEX
8
GIGN01
10
0
20
0
30
0
70
128
71
163
72
180
73
165
0
VERTEX
8
GIGN01
10
0
20
0
30
0
70
128
71
162
72
160
73
165
0
VERTEX
8
GIGN01
10
0
20
0
30
0
70
128
71
165
72
166
73
162
0
VERTEX
8
GIGN01
10
0
20
0
30
0
70
128
71
162
72
167
73
161
0
VERTEX
8
GIGN01
10
0
20
0
30
0
70
128
71
166
72
181
73
167
0
VERTEX
8
GIGN01
10
0
20
0
30
0
70
128
71
156
72
167
73
181
0
VERTEX
8
GIGN01
10
0
20
0
30
0
70
128
71
175
72
43
73
155
0
VERTEX
8
GIGN01
10
0
20
0
30
0
70
128
71
9
72
175
73
172
0
VERTEX
8
GIGN01
10
0
20
0
30
0
70
128
71
173
72
53
73
9
0
VERTEX
8
GIGN01
10
0
20
0
30
0
70
128
71
52
72
53
73
170
0
VERTEX
8
GIGN01
10
0
20
0
30
0
70
128
71
53
72
173
73
170
0
VERTEX
8
GIGN01
10
0
20
0
30
0
70
128
71
170
72
183
73
111
0
VERTEX
8
GIGN01
10
0
20
0
30
0
70
128
71
182
72
155
73
111
0
VERTEX
8
GIGN01
10
0
20
0
30
0
70
128
71
43
72
175
73
9
0
VERTEX
8
GIGN01
10
0
20
0
30
0
70
128
71
186
72
184
73
-191
0
VERTEX
8
GIGN01
10
0
20
0
30
0
70
128
71
186
72
188
73
7
0
VERTEX
8
GIGN01
10
0
20
0
30
0
70
128
71
187
72
19
73
-6
0
VERTEX
8
GIGN01
10
0
20
0
30
0
70
128
71
189
72
187
73
-5
0
VERTEX
8
GIGN01
10
0
20
0
30
0
70
128
71
5
72
-188
73
190
0
VERTEX
8
GIGN01
10
0
20
0
30
0
70
128
71
52
72
4
73
-51
0
VERTEX
8
GIGN01
10
0
20
0
30
0
70
128
71
14
72
184
73
18
0
VERTEX
8
GIGN01
10
0
20
0
30
0
70
128
71
48
72
55
73
185
0
VERTEX
8
GIGN01
10
0
20
0
30
0
70
128
71
55
72
12
73
185
0
VERTEX
8
GIGN01
10
0
20
0
30
0
70
128
71
-186
72
191
73
188
0
VERTEX
8
GIGN01
10
0
20
0
30
0
70
128
71
189
72
-185
73
187
0
VERTEX
8
GIGN01
10
0
20
0
30
0
70
128
71
185
72
-19
73
-187
0
VERTEX
8
GIGN01
10
0
20
0
30
0
70
128
71
190
72
-189
73
5
0
VERTEX
8
GIGN01
10
0
20
0
30
0
70
128
71
187
72
6
73
-5
0
VERTEX
8
GIGN01
10
0
20
0
30
0
70
128
71
-190
72
188
73
191
0
VERTEX
8
GIGN01
10
0
20
0
30
0
70
128
71
-5
72
-7
73
188
0
VERTEX
8
GIGN01
10
0
20
0
30
0
70
128
71
184
72
51
73
-191
0
VERTEX
8
GIGN01
10
0
20
0
30
0
70
128
71
185
72
189
73
-48
0
VERTEX
8
GIGN01
10
0
20
0
30
0
70
128
71
49
72
48
73
-189
0
VERTEX
8
GIGN01
10
0
20
0
30
0
70
128
71
189
72
190
73
-49
0
VERTEX
8
GIGN01
10
0
20
0
30
0
70
128
71
51
72
49
73
-190
0
VERTEX
8
GIGN01
10
0
20
0
30
0
70
128
71
190
72
191
73
-51
0
VERTEX
8
GIGN01
10
0
20
0
30
0
70
128
71
184
72
186
73
-18
0
VERTEX
8
GIGN01
10
0
20
0
30
0
70
128
71
7
72
6
73
-192
0
VERTEX
8
GIGN01
10
0
20
0
30
0
70
128
71
192
72
193
73
-7
0
VERTEX
8
GIGN01
10
0
20
0
30
0
70
128
71
50
72
30
73
194
0
VERTEX
8
GIGN01
10
0
20
0
30
0
70
128
71
194
72
196
73
50
0
VERTEX
8
GIGN01
10
0
20
0
30
0
70
128
71
195
72
50
73
196
0
VERTEX
8
GIGN01
10
0
20
0
30
0
70
128
71
50
72
195
73
31
0
VERTEX
8
GIGN01
10
0
20
0
30
0
70
128
71
-192
72
31
73
195
0
VERTEX
8
GIGN01
10
0
20
0
30
0
70
128
71
-31
72
192
73
6
0
VERTEX
8
GIGN01
10
0
20
0
30
0
70
128
71
30
72
7
73
-193
0
VERTEX
8
GIGN01
10
0
20
0
30
0
70
128
71
193
72
194
73
-30
0
VERTEX
8
GIGN01
10
0
20
0
30
0
70
128
71
198
72
200
73
199
0
VERTEX
8
GIGN01
10
0
20
0
30
0
70
128
71
201
72
203
73
202
0
VERTEX
8
GIGN01
10
0
20
0
30
0
70
128
71
204
72
198
73
199
0
VERTEX
8
GIGN01
10
0
20
0
30
0
70
128
71
202
72
203
73
205
0
VERTEX
8
GIGN01
10
0
20
0
30
0
70
128
71
209
72
211
73
210
0
VERTEX
8
GIGN01
10
0
20
0
30
0
70
128
71
211
72
209
73
212
0
VERTEX
8
GIGN01
10
0
20
0
30
0
70
128
71
211
72
212
73
238
0
VERTEX
8
GIGN01
10
0
20
0
30
0
70
128
71
211
72
213
73
214
0
VERTEX
8
GIGN01
10
0
20
0
30
0
70
128
71
211
72
214
73
215
0
VERTEX
8
GIGN01
10
0
20
0
30
0
70
128
71
211
72
215
73
210
0
VERTEX
8
GIGN01
10
0
20
0
30
0
70
128
71
216
72
210
73
217
0
VERTEX
8
GIGN01
10
0
20
0
30
0
70
128
71
210
72
216
73
209
0
VERTEX
8
GIGN01
10
0
20
0
30
0
70
128
71
212
72
216
73
218
0
VERTEX
8
GIGN01
10
0
20
0
30
0
70
128
71
216
72
212
73
209
0
VERTEX
8
GIGN01
10
0
20
0
30
0
70
128
71
213
72
239
73
219
0
VERTEX
8
GIGN01
10
0
20
0
30
0
70
128
71
218
72
238
73
212
0
VERTEX
8
GIGN01
10
0
20
0
30
0
70
128
71
213
72
219
73
220
0
VERTEX
8
GIGN01
10
0
20
0
30
0
70
128
71
220
72
214
73
213
0
VERTEX
8
GIGN01
10
0
20
0
30
0
70
128
71
215
72
220
73
221
0
VERTEX
8
GIGN01
10
0
20
0
30
0
70
128
71
220
72
215
73
214
0
VERTEX
8
GIGN01
10
0
20
0
30
0
70
128
71
210
72
221
73
217
0
VERTEX
8
GIGN01
10
0
20
0
30
0
70
128
71
221
72
210
73
215
0
VERTEX
8
GIGN01
10
0
20
0
30
0
70
128
71
200
72
217
73
222
0
VERTEX
8
GIGN01
10
0
20
0
30
0
70
128
71
217
72
200
73
216
0
VERTEX
8
GIGN01
10
0
20
0
30
0
70
128
71
218
72
200
73
198
0
VERTEX
8
GIGN01
10
0
20
0
30
0
70
128
71
200
72
218
73
216
0
VERTEX
8
GIGN01
10
0
20
0
30
0
70
128
71
239
72
240
73
219
0
VERTEX
8
GIGN01
10
0
20
0
30
0
70
128
71
198
72
239
73
218
0
VERTEX
8
GIGN01
10
0
20
0
30
0
70
128
71
219
72
223
73
203
0
VERTEX
8
GIGN01
10
0
20
0
30
0
70
128
71
203
72
220
73
219
0
VERTEX
8
GIGN01
10
0
20
0
30
0
70
128
71
221
72
203
73
201
0
VERTEX
8
GIGN01
10
0
20
0
30
0
70
128
71
203
72
221
73
220
0
VERTEX
8
GIGN01
10
0
20
0
30
0
70
128
71
217
72
201
73
222
0
VERTEX
8
GIGN01
10
0
20
0
30
0
70
128
71
201
72
217
73
221
0
VERTEX
8
GIGN01
10
0
20
0
30
0
70
128
71
223
72
241
73
224
0
VERTEX
8
GIGN01
10
0
20
0
30
0
70
128
71
241
72
240
73
198
0
VERTEX
8
GIGN01
10
0
20
0
30
0
70
128
71
223
72
224
73
203
0
VERTEX
8
GIGN01
10
0
20
0
30
0
70
128
71
205
72
203
73
224
0
VERTEX
8
GIGN01
10
0
20
0
30
0
70
128
71
226
72
228
73
225
0
VERTEX
8
GIGN01
10
0
20
0
30
0
70
128
71
228
72
226
73
227
0
VERTEX
8
GIGN01
10
0
20
0
30
0
70
128
71
228
72
206
73
229
0
VERTEX
8
GIGN01
10
0
20
0
30
0
70
128
71
206
72
228
73
227
0
VERTEX
8
GIGN01
10
0
20
0
30
0
70
128
71
206
72
230
73
229
0
VERTEX
8
GIGN01
10
0
20
0
30
0
70
128
71
230
72
206
73
207
0
VERTEX
8
GIGN01
10
0
20
0
30
0
70
128
71
207
72
231
73
230
0
VERTEX
8
GIGN01
10
0
20
0
30
0
70
128
71
231
72
207
73
208
0
VERTEX
8
GIGN01
10
0
20
0
30
0
70
128
71
226
72
225
73
235
0
VERTEX
8
GIGN01
10
0
20
0
30
0
70
128
71
235
72
234
73
226
0
VERTEX
8
GIGN01
10
0
20
0
30
0
70
128
71
235
72
236
73
232
0
VERTEX
8
GIGN01
10
0
20
0
30
0
70
128
71
232
72
234
73
235
0
VERTEX
8
GIGN01
10
0
20
0
30
0
70
128
71
232
72
236
73
237
0
VERTEX
8
GIGN01
10
0
20
0
30
0
70
128
71
237
72
233
73
232
0
VERTEX
8
GIGN01
10
0
20
0
30
0
70
128
71
233
72
237
73
231
0
VERTEX
8
GIGN01
10
0
20
0
30
0
70
128
71
231
72
208
73
233
0
VERTEX
8
GIGN01
10
0
20
0
30
0
70
128
71
218
72
239
73
238
0
VERTEX
8
GIGN01
10
0
20
0
30
0
70
128
71
211
72
238
73
213
0
VERTEX
8
GIGN01
10
0
20
0
30
0
70
128
71
239
72
213
73
238
0
VERTEX
8
GIGN01
10
0
20
0
30
0
70
128
71
198
72
240
73
239
0
VERTEX
8
GIGN01
10
0
20
0
30
0
70
128
71
223
72
219
73
240
0
VERTEX
8
GIGN01
10
0
20
0
30
0
70
128
71
241
72
223
73
240
0
VERTEX
8
GIGN01
10
0
20
0
30
0
70
128
71
204
72
241
73
198
0
VERTEX
8
GIGN01
10
0
20
0
30
0
70
128
71
22
72
242
73
23
0
VERTEX
8
GIGN01
10
0
20
0
30
0
70
128
71
22
72
243
73
242
0
VERTEX
8
GIGN01
10
0
20
0
30
0
70
128
71
22
72
244
73
243
0
VERTEX
8
GIGN01
10
0
20
0
30
0
70
128
71
21
72
244
73
22
0
VERTEX
8
GIGN01
10
0
20
0
30
0
70
128
71
21
72
245
73
244
0
VERTEX
8
GIGN01
10
0
20
0
30
0
70
128
71
20
72
245
73
21
0
VERTEX
8
GIGN01
10
0
20
0
30
0
70
128
71
245
72
20
73
25
0
VERTEX
8
GIGN01
10
0
20
0
30
0
70
128
71
25
72
246
73
245
0
VERTEX
8
GIGN01
10
0
20
0
30
0
70
128
71
25
72
247
73
246
0
VERTEX
8
GIGN01
10
0
20
0
30
0
70
128
71
24
72
247
73
25
0
VERTEX
8
GIGN01
10
0
20
0
30
0
70
128
71
23
72
247
73
24
0
VERTEX
8
GIGN01
10
0
20
0
30
0
70
128
71
247
72
23
73
242
0
VERTEX
8
GIGN01
10
0
20
0
30
0
70
128
71
248
72
249
73
250
0
VERTEX
8
GIGN01
10
0
20
0
30
0
70
128
71
251
72
252
73
253
0
VERTEX
8
GIGN01
10
0
20
0
30
0
70
128
71
249
72
256
73
250
0
VERTEX
8
GIGN01
10
0
20
0
30
0
70
128
71
257
72
251
73
253
0
VERTEX
8
GIGN01
10
0
20
0
30
0
70
128
71
262
72
263
73
264
0
VERTEX
8
GIGN01
10
0
20
0
30
0
70
128
71
263
72
262
73
265
0
VERTEX
8
GIGN01
10
0
20
0
30
0
70
128
71
266
72
257
73
256
0
VERTEX
8
GIGN01
10
0
20
0
30
0
70
128
71
266
72
256
73
267
0
VERTEX
8
GIGN01
10
0
20
0
30
0
70
128
71
256
72
268
73
267
0
VERTEX
8
GIGN01
10
0
20
0
30
0
70
128
71
249
72
268
73
256
0
VERTEX
8
GIGN01
10
0
20
0
30
0
70
128
71
265
72
269
73
270
0
VERTEX
8
GIGN01
10
0
20
0
30
0
70
128
71
271
72
263
73
272
0
VERTEX
8
GIGN01
10
0
20
0
30
0
70
128
71
266
72
273
73
257
0
VERTEX
8
GIGN01
10
0
20
0
30
0
70
128
71
251
72
257
73
273
0
VERTEX
8
GIGN01
10
0
20
0
30
0
70
128
71
243
72
261
73
252
0
VERTEX
8
GIGN01
10
0
20
0
30
0
70
128
71
248
72
260
73
246
0
VERTEX
8
GIGN01
10
0
20
0
30
0
70
128
71
265
72
274
73
263
0
VERTEX
8
GIGN01
10
0
20
0
30
0
70
128
71
270
72
274
73
265
0
VERTEX
8
GIGN01
10
0
20
0
30
0
70
128
71
274
72
270
73
272
0
VERTEX
8
GIGN01
10
0
20
0
30
0
70
128
71
274
72
272
73
263
0
VERTEX
8
GIGN01
10
0
20
0
30
0
70
128
71
261
72
243
73
244
0
VERTEX
8
GIGN01
10
0
20
0
30
0
70
128
71
260
72
245
73
246
0
VERTEX
8
GIGN01
10
0
20
0
30
0
70
128
71
275
72
262
73
264
0
VERTEX
8
GIGN01
10
0
20
0
30
0
70
128
71
264
72
276
73
275
0
VERTEX
8
GIGN01
10
0
20
0
30
0
70
128
71
276
72
266
73
275
0
VERTEX
8
GIGN01
10
0
20
0
30
0
70
128
71
267
72
275
73
266
0
VERTEX
8
GIGN01
10
0
20
0
30
0
70
128
71
277
72
273
73
278
0
VERTEX
8
GIGN01
10
0
20
0
30
0
70
128
71
277
72
251
73
273
0
VERTEX
8
GIGN01
10
0
20
0
30
0
70
128
71
277
72
271
73
252
0
VERTEX
8
GIGN01
10
0
20
0
30
0
70
128
71
251
72
277
73
252
0
VERTEX
8
GIGN01
10
0
20
0
30
0
70
128
71
249
72
279
73
268
0
VERTEX
8
GIGN01
10
0
20
0
30
0
70
128
71
279
72
249
73
248
0
VERTEX
8
GIGN01
10
0
20
0
30
0
70
128
71
269
72
279
73
248
0
VERTEX
8
GIGN01
10
0
20
0
30
0
70
128
71
269
72
265
73
262
0
VERTEX
8
GIGN01
10
0
20
0
30
0
70
128
71
275
72
279
73
262
0
VERTEX
8
GIGN01
10
0
20
0
30
0
70
128
71
279
72
269
73
262
0
VERTEX
8
GIGN01
10
0
20
0
30
0
70
128
71
263
72
271
73
264
0
VERTEX
8
GIGN01
10
0
20
0
30
0
70
128
71
271
72
277
73
264
0
VERTEX
8
GIGN01
10
0
20
0
30
0
70
128
71
264
72
277
73
276
0
VERTEX
8
GIGN01
10
0
20
0
30
0
70
128
71
272
72
242
73
243
0
VERTEX
8
GIGN01
10
0
20
0
30
0
70
128
71
242
72
272
73
247
0
VERTEX
8
GIGN01
10
0
20
0
30
0
70
128
71
247
72
272
73
270
0
VERTEX
8
GIGN01
10
0
20
0
30
0
70
128
71
270
72
246
73
247
0
VERTEX
8
GIGN01
10
0
20
0
30
0
70
128
71
280
72
271
73
272
0
VERTEX
8
GIGN01
10
0
20
0
30
0
70
128
71
243
72
280
73
272
0
VERTEX
8
GIGN01
10
0
20
0
30
0
70
128
71
280
72
243
73
252
0
VERTEX
8
GIGN01
10
0
20
0
30
0
70
128
71
271
72
280
73
252
0
VERTEX
8
GIGN01
10
0
20
0
30
0
70
128
71
269
72
281
73
270
0
VERTEX
8
GIGN01
10
0
20
0
30
0
70
128
71
281
72
269
73
248
0
VERTEX
8
GIGN01
10
0
20
0
30
0
70
128
71
246
72
281
73
248
0
VERTEX
8
GIGN01
10
0
20
0
30
0
70
128
71
281
72
246
73
270
0
VERTEX
8
GIGN01
10
0
20
0
30
0
70
128
71
255
72
256
73
257
0
VERTEX
8
GIGN01
10
0
20
0
30
0
70
128
71
254
72
256
73
255
0
VERTEX
8
GIGN01
10
0
20
0
30
0
70
128
71
259
72
255
73
257
0
VERTEX
8
GIGN01
10
0
20
0
30
0
70
128
71
253
72
259
73
257
0
VERTEX
8
GIGN01
10
0
20
0
30
0
70
128
71
254
72
258
73
256
0
VERTEX
8
GIGN01
10
0
20
0
30
0
70
128
71
258
72
250
73
256
0
VERTEX
8
GIGN01
10
0
20
0
30
0
70
128
71
273
72
266
73
276
0
VERTEX
8
GIGN01
10
0
20
0
30
0
70
128
71
276
72
277
73
278
0
VERTEX
8
GIGN01
10
0
20
0
30
0
70
128
71
276
72
278
73
273
0
VERTEX
8
GIGN01
10
0
20
0
30
0
70
128
71
279
72
282
73
268
0
VERTEX
8
GIGN01
10
0
20
0
30
0
70
128
71
282
72
279
73
275
0
VERTEX
8
GIGN01
10
0
20
0
30
0
70
128
71
275
72
267
73
268
0
VERTEX
8
GIGN01
10
0
20
0
30
0
70
128
71
275
72
268
73
282
0
VERTEX
8
GIGN01
10
0
20
0
30
0
70
128
71
224
72
241
73
245
0
VERTEX
8
GIGN01
10
0
20
0
30
0
70
128
71
241
72
244
73
245
0
VERTEX
8
GIGN01
10
0
20
0
30
0
70
128
71
204
72
244
73
241
0
VERTEX
8
GIGN01
10
0
20
0
30
0
70
128
71
261
72
199
73
252
0
VERTEX
8
GIGN01
10
0
20
0
30
0
70
128
71
261
72
244
73
204
0
VERTEX
8
GIGN01
10
0
20
0
30
0
70
128
71
204
72
199
73
261
0
VERTEX
8
GIGN01
10
0
20
0
30
0
70
128
71
200
72
252
73
199
0
VERTEX
8
GIGN01
10
0
20
0
30
0
70
128
71
200
72
253
73
252
0
VERTEX
8
GIGN01
10
0
20
0
30
0
70
128
71
200
72
259
73
253
0
VERTEX
8
GIGN01
10
0
20
0
30
0
70
128
71
200
72
255
73
259
0
VERTEX
8
GIGN01
10
0
20
0
30
0
70
128
71
255
72
222
73
254
0
VERTEX
8
GIGN01
10
0
20
0
30
0
70
128
71
255
72
200
73
222
0
VERTEX
8
GIGN01
10
0
20
0
30
0
70
128
71
201
72
254
73
222
0
VERTEX
8
GIGN01
10
0
20
0
30
0
70
128
71
254
72
201
73
258
0
VERTEX
8
GIGN01
10
0
20
0
30
0
70
128
71
250
72
258
73
201
0
VERTEX
8
GIGN01
10
0
20
0
30
0
70
128
71
202
72
260
73
248
0
VERTEX
8
GIGN01
10
0
20
0
30
0
70
128
71
248
72
250
73
201
0
VERTEX
8
GIGN01
10
0
20
0
30
0
70
128
71
201
72
202
73
248
0
VERTEX
8
GIGN01
10
0
20
0
30
0
70
128
71
205
72
260
73
202
0
VERTEX
8
GIGN01
10
0
20
0
30
0
70
128
71
205
72
245
73
260
0
VERTEX
8
GIGN01
10
0
20
0
30
0
70
128
71
205
72
224
73
245
0
VERTEX
8
GIGN01
10
0
20
0
30
0
70
128
71
283
72
285
73
284
0
VERTEX
8
GIGN01
10
0
20
0
30
0
70
128
71
284
72
285
73
286
0
VERTEX
8
GIGN01
10
0
20
0
30
0
70
128
71
287
72
289
73
288
0
VERTEX
8
GIGN01
10
0
20
0
30
0
70
128
71
286
72
290
73
284
0
VERTEX
8
GIGN01
10
0
20
0
30
0
70
128
71
286
72
291
73
290
0
VERTEX
8
GIGN01
10
0
20
0
30
0
70
128
71
291
72
287
73
290
0
VERTEX
8
GIGN01
10
0
20
0
30
0
70
128
71
290
72
287
73
292
0
VERTEX
8
GIGN01
10
0
20
0
30
0
70
128
71
293
72
288
73
294
0
VERTEX
8
GIGN01
10
0
20
0
30
0
70
128
71
294
72
289
73
295
0
VERTEX
8
GIGN01
10
0
20
0
30
0
70
128
71
283
72
294
73
295
0
VERTEX
8
GIGN01
10
0
20
0
30
0
70
128
71
295
72
285
73
283
0
VERTEX
8
GIGN01
10
0
20
0
30
0
70
128
71
296
72
298
73
297
0
VERTEX
8
GIGN01
10
0
20
0
30
0
70
128
71
297
72
298
73
299
0
VERTEX
8
GIGN01
10
0
20
0
30
0
70
128
71
300
72
302
73
301
0
VERTEX
8
GIGN01
10
0
20
0
30
0
70
128
71
300
72
303
73
302
0
VERTEX
8
GIGN01
10
0
20
0
30
0
70
128
71
301
72
297
73
300
0
VERTEX
8
GIGN01
10
0
20
0
30
0
70
128
71
299
72
300
73
297
0
VERTEX
8
GIGN01
10
0
20
0
30
0
70
128
71
304
72
298
73
303
0
VERTEX
8
GIGN01
10
0
20
0
30
0
70
128
71
303
72
298
73
302
0
VERTEX
8
GIGN01
10
0
20
0
30
0
70
128
71
302
72
298
73
296
0
VERTEX
8
GIGN01
10
0
20
0
30
0
70
128
71
305
72
307
73
306
0
VERTEX
8
GIGN01
10
0
20
0
30
0
70
128
71
305
72
306
73
308
0
VERTEX
8
GIGN01
10
0
20
0
30
0
70
128
71
306
72
309
73
308
0
VERTEX
8
GIGN01
10
0
20
0
30
0
70
128
71
309
72
306
73
310
0
VERTEX
8
GIGN01
10
0
20
0
30
0
70
128
71
307
72
310
73
306
0
VERTEX
8
GIGN01
10
0
20
0
30
0
70
128
71
311
72
310
73
307
0
VERTEX
8
GIGN01
10
0
20
0
30
0
70
128
71
305
72
311
73
307
0
VERTEX
8
GIGN01
10
0
20
0
30
0
70
128
71
312
72
311
73
305
0
VERTEX
8
GIGN01
10
0
20
0
30
0
70
128
71
308
72
309
73
305
0
VERTEX
8
GIGN01
10
0
20
0
30
0
70
128
71
305
72
309
73
312
0
VERTEX
8
GIGN01
10
0
20
0
30
0
70
128
71
313
72
315
73
314
0
VERTEX
8
GIGN01
10
0
20
0
30
0
70
128
71
313
72
317
73
316
0
VERTEX
8
GIGN01
10
0
20
0
30
0
70
128
71
313
72
316
73
315
0
VERTEX
8
GIGN01
10
0
20
0
30
0
70
128
71
317
72
11
73
316
0
VERTEX
8
GIGN01
10
0
20
0
30
0
70
128
71
317
72
319
73
318
0
VERTEX
8
GIGN01
10
0
20
0
30
0
70
128
71
313
72
320
73
317
0
VERTEX
8
GIGN01
10
0
20
0
30
0
70
128
71
320
72
313
73
321
0
VERTEX
8
GIGN01
10
0
20
0
30
0
70
128
71
287
72
320
73
321
0
VERTEX
8
GIGN01
10
0
20
0
30
0
70
128
71
287
72
321
73
289
0
VERTEX
8
GIGN01
10
0
20
0
30
0
70
128
71
320
72
287
73
291
0
VERTEX
8
GIGN01
10
0
20
0
30
0
70
128
71
291
72
322
73
320
0
VERTEX
8
GIGN01
10
0
20
0
30
0
70
128
71
322
72
317
73
320
0
VERTEX
8
GIGN01
10
0
20
0
30
0
70
128
71
322
72
319
73
317
0
VERTEX
8
GIGN01
10
0
20
0
30
0
70
128
71
286
72
322
73
291
0
VERTEX
8
GIGN01
10
0
20
0
30
0
70
128
71
322
72
286
73
319
0
VERTEX
8
GIGN01
10
0
20
0
30
0
70
128
71
313
72
314
73
321
0
VERTEX
8
GIGN01
10
0
20
0
30
0
70
128
71
323
72
321
73
314
0
VERTEX
8
GIGN01
10
0
20
0
30
0
70
128
71
285
72
323
73
314
0
VERTEX
8
GIGN01
10
0
20
0
30
0
70
128
71
323
72
285
73
295
0
VERTEX
8
GIGN01
10
0
20
0
30
0
70
128
71
321
72
323
73
295
0
VERTEX
8
GIGN01
10
0
20
0
30
0
70
128
71
295
72
289
73
321
0
VERTEX
8
GIGN01
10
0
20
0
30
0
70
128
71
300
72
292
73
303
0
VERTEX
8
GIGN01
10
0
20
0
30
0
70
128
71
303
72
292
73
293
0
VERTEX
8
GIGN01
10
0
20
0
30
0
70
128
71
303
72
293
73
304
0
VERTEX
8
GIGN01
10
0
20
0
30
0
70
128
71
299
72
292
73
300
0
VERTEX
8
GIGN01
10
0
20
0
30
0
70
128
71
292
72
299
73
324
0
VERTEX
8
GIGN01
10
0
20
0
30
0
70
128
71
298
72
324
73
299
0
VERTEX
8
GIGN01
10
0
20
0
30
0
70
128
71
325
72
309
73
310
0
VERTEX
8
GIGN01
10
0
20
0
30
0
70
128
71
310
72
293
73
325
0
VERTEX
8
GIGN01
10
0
20
0
30
0
70
128
71
304
72
293
73
310
0
VERTEX
8
GIGN01
10
0
20
0
30
0
70
128
71
326
72
297
73
301
0
VERTEX
8
GIGN01
10
0
20
0
30
0
70
128
71
297
72
326
73
327
0
VERTEX
8
GIGN01
10
0
20
0
30
0
70
128
71
297
72
327
73
296
0
VERTEX
8
GIGN01
10
0
20
0
30
0
70
128
71
296
72
327
73
328
0
VERTEX
8
GIGN01
10
0
20
0
30
0
70
128
71
326
72
301
73
302
0
VERTEX
8
GIGN01
10
0
20
0
30
0
70
128
71
326
72
302
73
329
0
VERTEX
8
GIGN01
10
0
20
0
30
0
70
128
71
296
72
329
73
302
0
VERTEX
8
GIGN01
10
0
20
0
30
0
70
128
71
329
72
296
73
328
0
VERTEX
8
GIGN01
10
0
20
0
30
0
70
128
71
329
72
328
73
327
0
VERTEX
8
GIGN01
10
0
20
0
30
0
70
128
71
327
72
326
73
329
0
VERTEX
8
GIGN01
10
0
20
0
30
0
70
128
71
311
72
304
73
310
0
VERTEX
8
GIGN01
10
0
20
0
30
0
70
128
71
311
72
298
73
304
0
VERTEX
8
GIGN01
10
0
20
0
30
0
70
128
71
298
72
311
73
312
0
VERTEX
8
GIGN01
10
0
20
0
30
0
70
128
71
309
72
325
73
312
0
VERTEX
8
GIGN01
10
0
20
0
30
0
70
128
71
324
72
298
73
312
0
VERTEX
8
GIGN01
10
0
20
0
30
0
70
128
71
312
72
325
73
324
0
VERTEX
8
GIGN01
10
0
20
0
30
0
70
128
71
330
72
286
73
285
0
VERTEX
8
GIGN01
10
0
20
0
30
0
70
128
71
330
72
285
73
331
0
VERTEX
8
GIGN01
10
0
20
0
30
0
70
128
71
286
72
330
73
319
0
VERTEX
8
GIGN01
10
0
20
0
30
0
70
128
71
319
72
330
73
318
0
VERTEX
8
GIGN01
10
0
20
0
30
0
70
128
71
54
72
330
73
331
0
VERTEX
8
GIGN01
10
0
20
0
30
0
70
128
71
330
72
110
73
318
0
VERTEX
8
GIGN01
10
0
20
0
30
0
70
128
71
331
72
285
73
314
0
VERTEX
8
GIGN01
10
0
20
0
30
0
70
128
71
54
72
315
73
55
0
VERTEX
8
GIGN01
10
0
20
0
30
0
70
128
71
331
72
314
73
315
0
VERTEX
8
GIGN01
10
0
20
0
30
0
70
128
71
284
72
325
73
283
0
VERTEX
8
GIGN01
10
0
20
0
30
0
70
128
71
325
72
284
73
324
0
VERTEX
8
GIGN01
10
0
20
0
30
0
70
128
71
324
72
284
73
290
0
VERTEX
8
GIGN01
10
0
20
0
30
0
70
128
71
290
72
292
73
324
0
VERTEX
8
GIGN01
10
0
20
0
30
0
70
128
71
288
72
292
73
287
0
VERTEX
8
GIGN01
10
0
20
0
30
0
70
128
71
292
72
288
73
293
0
VERTEX
8
GIGN01
10
0
20
0
30
0
70
128
71
288
72
289
73
294
0
VERTEX
8
GIGN01
10
0
20
0
30
0
70
128
71
293
72
294
73
325
0
VERTEX
8
GIGN01
10
0
20
0
30
0
70
128
71
283
72
325
73
294
0
VERTEX
8
GIGN01
10
0
20
0
30
0
70
128
71
318
72
110
73
42
0
VERTEX
8
GIGN01
10
0
20
0
30
0
70
128
71
11
72
317
73
318
0
VERTEX
8
GIGN01
10
0
20
0
30
0
70
128
71
316
72
11
73
56
0
VERTEX
8
GIGN01
10
0
20
0
30
0
70
128
71
55
72
315
73
56
0
VERTEX
8
GIGN01
10
0
20
0
30
0
70
128
71
56
72
315
73
316
0
VERTEX
8
GIGN01
10
0
20
0
30
0
70
128
71
315
72
54
73
331
0
VERTEX
8
GIGN01
10
0
20
0
30
0
70
128
71
330
72
54
73
110
0
VERTEX
8
GIGN01
10
0
20
0
30
0
70
128
71
42
72
11
73
318
0
VERTEX
8
GIGN01
10
0
20
0
30
0
70
128
71
332
72
333
73
227
0
VERTEX
8
GIGN01
10
0
20
0
30
0
70
128
71
227
72
226
73
332
0
VERTEX
8
GIGN01
10
0
20
0
30
0
70
128
71
333
72
334
73
206
0
VERTEX
8
GIGN01
10
0
20
0
30
0
70
128
71
206
72
227
73
333
0
VERTEX
8
GIGN01
10
0
20
0
30
0
70
128
71
334
72
335
73
207
0
VERTEX
8
GIGN01
10
0
20
0
30
0
70
128
71
207
72
206
73
334
0
VERTEX
8
GIGN01
10
0
20
0
30
0
70
128
71
207
72
336
73
208
0
VERTEX
8
GIGN01
10
0
20
0
30
0
70
128
71
336
72
207
73
335
0
VERTEX
8
GIGN01
10
0
20
0
30
0
70
128
71
337
72
332
73
226
0
VERTEX
8
GIGN01
10
0
20
0
30
0
70
128
71
226
72
234
73
337
0
VERTEX
8
GIGN01
10
0
20
0
30
0
70
128
71
338
72
337
73
234
0
VERTEX
8
GIGN01
10
0
20
0
30
0
70
128
71
234
72
232
73
338
0
VERTEX
8
GIGN01
10
0
20
0
30
0
70
128
71
339
72
338
73
232
0
VERTEX
8
GIGN01
10
0
20
0
30
0
70
128
71
232
72
233
73
339
0
VERTEX
8
GIGN01
10
0
20
0
30
0
70
128
71
336
72
339
73
233
0
VERTEX
8
GIGN01
10
0
20
0
30
0
70
128
71
233
72
208
73
336
0
VERTEX
8
GIGN01
10
0
20
0
30
0
70
128
71
332
72
335
73
334
0
VERTEX
8
GIGN01
10
0
20
0
30
0
70
128
71
334
72
333
73
332
0
VERTEX
8
GIGN01
10
0
20
0
30
0
70
128
71
336
72
335
73
332
0
VERTEX
8
GIGN01
10
0
20
0
30
0
70
128
71
332
72
337
73
338
0
VERTEX
8
GIGN01
10
0
20
0
30
0
70
128
71
332
72
339
73
336
0
VERTEX
8
GIGN01
10
0
20
0
30
0
70
128
71
332
72
338
73
339
0
VERTEX
8
GIGN01
10
0
20
0
30
0
70
128
71
340
72
342
73
341
0
VERTEX
8
GIGN01
10
0
20
0
30
0
70
128
71
343
72
342
73
340
0
VERTEX
8
GIGN01
10
0
20
0
30
0
70
128
71
344
72
346
73
345
0
VERTEX
8
GIGN01
10
0
20
0
30
0
70
128
71
345
72
346
73
347
0
VERTEX
8
GIGN01
10
0
20
0
30
0
70
128
71
343
72
348
73
342
0
VERTEX
8
GIGN01
10
0
20
0
30
0
70
128
71
342
72
348
73
349
0
VERTEX
8
GIGN01
10
0
20
0
30
0
70
128
71
350
72
351
73
348
0
VERTEX
8
GIGN01
10
0
20
0
30
0
70
128
71
352
72
354
73
353
0
VERTEX
8
GIGN01
10
0
20
0
30
0
70
128
71
346
72
354
73
347
0
VERTEX
8
GIGN01
10
0
20
0
30
0
70
128
71
342
72
349
73
352
0
VERTEX
8
GIGN01
10
0
20
0
30
0
70
128
71
345
72
348
73
344
0
VERTEX
8
GIGN01
10
0
20
0
30
0
70
128
71
348
72
345
73
349
0
VERTEX
8
GIGN01
10
0
20
0
30
0
70
128
71
347
72
354
73
352
0
VERTEX
8
GIGN01
10
0
20
0
30
0
70
128
71
348
72
346
73
344
0
VERTEX
8
GIGN01
10
0
20
0
30
0
70
128
71
351
72
346
73
348
0
VERTEX
8
GIGN01
10
0
20
0
30
0
70
128
71
354
72
346
73
351
0
VERTEX
8
GIGN01
10
0
20
0
30
0
70
128
71
353
72
354
73
351
0
VERTEX
8
GIGN01
10
0
20
0
30
0
70
128
71
355
72
341
73
342
0
VERTEX
8
GIGN01
10
0
20
0
30
0
70
128
71
341
72
355
73
356
0
VERTEX
8
GIGN01
10
0
20
0
30
0
70
128
71
356
72
340
73
341
0
VERTEX
8
GIGN01
10
0
20
0
30
0
70
128
71
350
72
340
73
356
0
VERTEX
8
GIGN01
10
0
20
0
30
0
70
128
71
350
72
343
73
340
0
VERTEX
8
GIGN01
10
0
20
0
30
0
70
128
71
349
72
347
73
352
0
VERTEX
8
GIGN01
10
0
20
0
30
0
70
128
71
347
72
349
73
345
0
VERTEX
8
GIGN01
10
0
20
0
30
0
70
128
71
355
72
352
73
353
0
VERTEX
8
GIGN01
10
0
20
0
30
0
70
128
71
355
72
342
73
352
0
VERTEX
8
GIGN01
10
0
20
0
30
0
70
128
71
343
72
350
73
348
0
VERTEX
8
GIGN01
10
0
20
0
30
0
70
128
71
351
72
350
73
353
0
VERTEX
8
GIGN01
10
0
20
0
30
0
70
128
71
146
72
356
73
147
0
VERTEX
8
GIGN01
10
0
20
0
30
0
70
128
71
356
72
355
73
147
0
VERTEX
8
GIGN01
10
0
20
0
30
0
70
128
71
147
72
355
73
148
0
VERTEX
8
GIGN01
10
0
20
0
30
0
70
128
71
353
72
148
73
355
0
VERTEX
8
GIGN01
10
0
20
0
30
0
70
128
71
148
72
353
73
350
0
VERTEX
8
GIGN01
10
0
20
0
30
0
70
128
71
148
72
350
73
149
0
VERTEX
8
GIGN01
10
0
20
0
30
0
70
128
71
356
72
149
73
350
0
VERTEX
8
GIGN01
10
0
20
0
30
0
70
128
71
356
72
146
73
149
0
VERTEX
8
GIGN01
10
0
20
0
30
0
70
128
71
357
72
359
73
358
0
VERTEX
8
GIGN01
10
0
20
0
30
0
70
128
71
360
72
357
73
358
0
VERTEX
8
GIGN01
10
0
20
0
30
0
70
128
71
361
72
363
73
362
0
VERTEX
8
GIGN01
10
0
20
0
30
0
70
128
71
363
72
364
73
362
0
VERTEX
8
GIGN01
10
0
20
0
30
0
70
128
71
360
72
358
73
365
0
VERTEX
8
GIGN01
10
0
20
0
30
0
70
128
71
358
72
366
73
365
0
VERTEX
8
GIGN01
10
0
20
0
30
0
70
128
71
367
72
365
73
368
0
VERTEX
8
GIGN01
10
0
20
0
30
0
70
128
71
369
72
371
73
370
0
VERTEX
8
GIGN01
10
0
20
0
30
0
70
128
71
362
72
364
73
370
0
VERTEX
8
GIGN01
10
0
20
0
30
0
70
128
71
358
72
369
73
366
0
VERTEX
8
GIGN01
10
0
20
0
30
0
70
128
71
363
72
361
73
365
0
VERTEX
8
GIGN01
10
0
20
0
30
0
70
128
71
365
72
366
73
363
0
VERTEX
8
GIGN01
10
0
20
0
30
0
70
128
71
364
72
369
73
370
0
VERTEX
8
GIGN01
10
0
20
0
30
0
70
128
71
365
72
361
73
362
0
VERTEX
8
GIGN01
10
0
20
0
30
0
70
128
71
368
72
365
73
362
0
VERTEX
8
GIGN01
10
0
20
0
30
0
70
128
71
370
72
368
73
362
0
VERTEX
8
GIGN01
10
0
20
0
30
0
70
128
71
371
72
368
73
370
0
VERTEX
8
GIGN01
10
0
20
0
30
0
70
128
71
372
72
358
73
359
0
VERTEX
8
GIGN01
10
0
20
0
30
0
70
128
71
359
72
373
73
372
0
VERTEX
8
GIGN01
10
0
20
0
30
0
70
128
71
373
72
359
73
357
0
VERTEX
8
GIGN01
10
0
20
0
30
0
70
128
71
367
72
373
73
357
0
VERTEX
8
GIGN01
10
0
20
0
30
0
70
128
71
367
72
357
73
360
0
VERTEX
8
GIGN01
10
0
20
0
30
0
70
128
71
366
72
369
73
364
0
VERTEX
8
GIGN01
10
0
20
0
30
0
70
128
71
364
72
363
73
366
0
VERTEX
8
GIGN01
10
0
20
0
30
0
70
128
71
372
72
371
73
369
0
VERTEX
8
GIGN01
10
0
20
0
30
0
70
128
71
372
72
369
73
358
0
VERTEX
8
GIGN01
10
0
20
0
30
0
70
128
71
360
72
365
73
367
0
VERTEX
8
GIGN01
10
0
20
0
30
0
70
128
71
368
72
371
73
367
0
VERTEX
8
GIGN01
10
0
20
0
30
0
70
128
71
85
72
84
73
373
0
VERTEX
8
GIGN01
10
0
20
0
30
0
70
128
71
373
72
84
73
372
0
VERTEX
8
GIGN01
10
0
20
0
30
0
70
128
71
84
72
83
73
372
0
VERTEX
8
GIGN01
10
0
20
0
30
0
70
128
71
371
72
372
73
83
0
VERTEX
8
GIGN01
10
0
20
0
30
0
70
128
71
83
72
367
73
371
0
VERTEX
8
GIGN01
10
0
20
0
30
0
70
128
71
83
72
82
73
367
0
VERTEX
8
GIGN01
10
0
20
0
30
0
70
128
71
373
72
367
73
82
0
VERTEX
8
GIGN01
10
0
20
0
30
0
70
128
71
373
72
82
73
85
0
VERTEX
8
GIGN01
10
0
20
0
30
0
70
128
71
374
72
376
73
375
0
VERTEX
8
GIGN01
10
0
20
0
30
0
70
128
71
376
72
377
73
375
0
VERTEX
8
GIGN01
10
0
20
0
30
0
70
128
71
378
72
380
73
379
0
VERTEX
8
GIGN01
10
0
20
0
30
0
70
128
71
378
72
379
73
381
0
VERTEX
8
GIGN01
10
0
20
0
30
0
70
128
71
380
72
378
73
376
0
VERTEX
8
GIGN01
10
0
20
0
30
0
70
128
71
377
72
376
73
378
0
VERTEX
8
GIGN01
10
0
20
0
30
0
70
128
71
382
72
381
73
375
0
VERTEX
8
GIGN01
10
0
20
0
30
0
70
128
71
381
72
379
73
375
0
VERTEX
8
GIGN01
10
0
20
0
30
0
70
128
71
379
72
374
73
375
0
VERTEX
8
GIGN01
10
0
20
0
30
0
70
128
71
383
72
385
73
384
0
VERTEX
8
GIGN01
10
0
20
0
30
0
70
128
71
383
72
386
73
385
0
VERTEX
8
GIGN01
10
0
20
0
30
0
70
128
71
385
72
386
73
387
0
VERTEX
8
GIGN01
10
0
20
0
30
0
70
128
71
387
72
388
73
385
0
VERTEX
8
GIGN01
10
0
20
0
30
0
70
128
71
384
72
385
73
388
0
VERTEX
8
GIGN01
10
0
20
0
30
0
70
128
71
389
72
384
73
388
0
VERTEX
8
GIGN01
10
0
20
0
30
0
70
128
71
383
72
384
73
389
0
VERTEX
8
GIGN01
10
0
20
0
30
0
70
128
71
390
72
383
73
389
0
VERTEX
8
GIGN01
10
0
20
0
30
0
70
128
71
386
72
383
73
387
0
VERTEX
8
GIGN01
10
0
20
0
30
0
70
128
71
383
72
390
73
387
0
VERTEX
8
GIGN01
10
0
20
0
30
0
70
128
71
378
72
381
73
165
0
VERTEX
8
GIGN01
10
0
20
0
30
0
70
128
71
381
72
166
73
165
0
VERTEX
8
GIGN01
10
0
20
0
30
0
70
128
71
381
72
382
73
166
0
VERTEX
8
GIGN01
10
0
20
0
30
0
70
128
71
377
72
378
73
165
0
VERTEX
8
GIGN01
10
0
20
0
30
0
70
128
71
165
72
180
73
377
0
VERTEX
8
GIGN01
10
0
20
0
30
0
70
128
71
375
72
377
73
180
0
VERTEX
8
GIGN01
10
0
20
0
30
0
70
128
71
181
72
388
73
387
0
VERTEX
8
GIGN01
10
0
20
0
30
0
70
128
71
388
72
181
73
166
0
VERTEX
8
GIGN01
10
0
20
0
30
0
70
128
71
382
72
388
73
166
0
VERTEX
8
GIGN01
10
0
20
0
30
0
70
128
71
391
72
380
73
376
0
VERTEX
8
GIGN01
10
0
20
0
30
0
70
128
71
376
72
392
73
391
0
VERTEX
8
GIGN01
10
0
20
0
30
0
70
128
71
376
72
374
73
392
0
VERTEX
8
GIGN01
10
0
20
0
30
0
70
128
71
374
72
393
73
392
0
VERTEX
8
GIGN01
10
0
20
0
30
0
70
128
71
391
72
379
73
380
0
VERTEX
8
GIGN01
10
0
20
0
30
0
70
128
71
391
72
394
73
379
0
VERTEX
8
GIGN01
10
0
20
0
30
0
70
128
71
374
72
379
73
394
0
VERTEX
8
GIGN01
10
0
20
0
30
0
70
128
71
394
72
393
73
374
0
VERTEX
8
GIGN01
10
0
20
0
30
0
70
128
71
394
72
392
73
393
0
VERTEX
8
GIGN01
10
0
20
0
30
0
70
128
71
392
72
394
73
391
0
VERTEX
8
GIGN01
10
0
20
0
30
0
70
128
71
389
72
388
73
382
0
VERTEX
8
GIGN01
10
0
20
0
30
0
70
128
71
389
72
382
73
375
0
VERTEX
8
GIGN01
10
0
20
0
30
0
70
128
71
375
72
390
73
389
0
VERTEX
8
GIGN01
10
0
20
0
30
0
70
128
71
387
72
390
73
181
0
VERTEX
8
GIGN01
10
0
20
0
30
0
70
128
71
180
72
390
73
375
0
VERTEX
8
GIGN01
10
0
20
0
30
0
70
128
71
390
72
180
73
181
0
SEQEND
8
GIGN01
0
ENDSEC
0
EOF
