version 1
nodes
  0 "Bip01"  -1
  1 "Bip01 Footsteps"   0
  2 "Bip01 Pelvis"   0
  3 "Bip01 Spine"   2
  4 "Bip01 Spine1"   3
  5 "Bip01 Spine2"   4
  6 "Bip01 Spine3"   5
  7 "Bip01 Neck"   6
  8 "Bip01 Head"   7
  9 "Dummy21"   8
 10 "Bip01 L Clavicle"   7
 11 "Bip01 L UpperArm"  10
 12 "Bip01 L Forearm"  11
 13 "Bip01 L Hand"  12
 14 "Bip01 L Finger0"  13
 15 "Bip01 L Finger01"  14
 16 "Dummy06"  15
 17 "Bip01 L Finger1"  13
 18 "Bip01 L Finger11"  17
 19 "Dummy03"  18
 20 "-- L knuckle"  17
 21 "-- L knuckle_end"  20
 22 "-- L Forearm twist"  12
 23 "-- L Forearm twist_end"  22
 24 "-- L wrist"  12
 25 "-- L wrist_end"  24
 26 "-- L Elbow"  11
 27 "--L Elbow_end"  26
 28 "-- L bicep twist"  11
 29 "-- L bicep twist_end"  28
 30 "-- L shoulder outside"  10
 31 "-- L shoulder outside_end"  30
 32 "-- L Shoulder inside"  10
 33 "-- L Shoulder inside_end"  32
 34 "Bip01 R Clavicle"   7
 35 "Bip01 R UpperArm"  34
 36 "Bip01 R Forearm"  35
 37 "Bip01 R Hand"  36
 38 "Bip01 R Finger0"  37
 39 "Bip01 R Finger01"  38
 40 "Dummy01"  39
 41 "Bip01 R Finger1"  37
 42 "Bip01 R Finger11"  41
 43 "Dummy02"  42
 44 "-- R knuckle"  41
 45 "Point06"  44
 46 "skin01"  37
 47 "-- R wrist"  36
 48 "-- R wrist_end"  47
 49 "-- R forearm twist"  36
 50 "-- R forearm twist_end"  49
 51 "-- R Elbow"  35
 52 "--R Elbow_end"  51
 53 "-- R bicep twist"  35
 54 "-- R bicep twist_end"  53
 55 "-- R Shoulder inside"  34
 56 "-- R Shoulder inside_end"  55
 57 "-- R shoulder outside"  34
 58 "-- R shoulder outside_end"  57
 59 "-- Neck smooth"   6
 60 "-- neck smooth end"  59
 61 "-- R Butt"   2
 62 "--R Butt_end"  61
 63 "-- L butt"   2
 64 "--L butt_end"  63
 65 "GIGN01"   2
 66 "Bip01 L Thigh"   2
 67 "Bip01 L Calf"  66
 68 "Bip01 L Foot"  67
 69 "Bip01 L Toe0"  68
 70 "Dummy16"  69
 71 "-- L ankle"  67
 72 "-- L ankleend"  71
 73 "-- L Knee"  66
 74 "--L Knee_end"  73
 75 "Bip01 R Thigh"   2
 76 "Bip01 R Calf"  75
 77 "Bip01 R Foot"  76
 78 "Bip01 R Toe0"  77
 79 "Dummy11"  78
 80 "-- R Ankle"  76
 81 "-- R ankleend"  80
 82 "-- R Knee"  75
 83 "--R Knee_end"  82
end
skeleton
time 0
  0 0.500000 13.522099 26.931471 -0.243067 0.535714 -2.432935
  1 13.773751 5.584523 -22.520975 -0.544290 0.221328 2.303921
  2 -2.276934 0.000003 -1.238185 -1.570795 -1.570451 0.000000
  3 1.796719 0.711823 -0.000042 0.012714 -0.327115 -0.134259
  4 4.119806 -0.003052 -0.000002 0.000689 0.062310 0.375266
  5 4.118888 -0.003266 -0.000028 0.008896 0.124409 0.088477
  6 4.117564 -0.003111 -0.000063 0.018761 0.069831 -0.321500
  7 4.119536 -0.003339 -0.000691 0.197944 -0.098871 0.253755
  8 4.443599 -0.000001 0.000000 0.632113 -0.020303 -0.539598
  9 9.024060 -0.000001 0.000000 0.000000 0.000000 0.000000
 10 0.171039 0.342614 1.690589 2.624813 -1.379008 0.243869
 11 6.384777 -0.000000 -0.000001 -0.689479 0.735528 -0.642995
 12 10.242682 -0.000000 -0.000001 0.000000 -0.000000 -1.460343
 13 11.375561 0.000000 0.000000 -0.741412 -0.692184 -0.454987
 14 0.728681 0.023431 -1.008292 0.125076 0.533138 0.208693
 15 2.136498 -0.000001 0.000001 0.000000 0.000000 -0.078540
 16 2.313138 -0.000001 -0.000001 0.000000 0.000000 0.000000
 17 3.115507 -0.886042 -0.021432 -0.595518 -0.185122 0.249070
 18 2.011151 0.000000 -0.000000 -0.000000 0.000000 0.231961
 19 2.141379 -0.000001 -0.000001 0.000000 0.000000 0.000000
 20 1.734171 0.000001 -0.000002 0.000000 0.000000 0.116653
 21 0.000006 -4.440592 0.000002 1.570544 -0.062990 -0.195737
 22 6.000000 0.000001 -0.000000 -0.987155 0.000000 0.000000
 23 0.000001 -4.440600 -0.000000 1.569944 -0.062987 0.004053
 24 11.375561 0.000001 0.000003 -1.223718 -0.388809 -0.131261
 25 -0.000000 -4.440605 -0.000000 1.570144 -0.062988 0.004040
 26 10.510131 -0.000000 -0.000002 0.000000 0.000000 -2.300968
 27 -0.000001 -1.748400 4.999999 -0.000000 0.004007 1.602291
 28 5.500000 -0.000000 -0.000001 0.204718 -0.000000 -0.000000
 29 -0.000003 -1.940598 5.000000 -0.044472 0.004003 -0.000180
 30 6.551491 -0.000000 -0.000001 -0.409292 0.469501 -0.386167
 31 0.000001 -1.940599 5.000000 -0.027189 -0.053376 0.005295
 32 6.551491 0.000000 -0.000001 -0.166479 0.243583 -0.154773
 33 -0.000001 -1.940599 4.999997 -0.066572 -0.152786 -0.110311
 34 -0.171034 -0.335541 -1.690590 -0.099438 1.378061 2.773965
 35 6.384777 0.000001 -0.000004 0.239694 -0.704290 -1.068029
 36 10.242682 0.000001 -0.000001 0.000000 0.000000 -1.664043
 37 11.375562 -0.000002 -0.000002 2.195111 -0.293091 0.347322
 38 0.728680 0.023431 1.008292 -2.027434 -0.416219 0.534151
 39 2.136497 -0.000001 -0.000000 -0.000000 -0.000000 1.282817
 40 2.313139 0.000000 -0.000000 0.000000 0.000000 3.141593
 41 3.115506 -0.886041 0.021431 0.518003 0.053583 0.680575
 42 2.011150 0.000002 0.000001 0.000000 -0.000000 2.082010
 43 2.141378 -0.000000 0.000001 0.000000 0.000000 3.141593
 44 1.734172 -0.000001 -0.000000 0.000000 0.000000 1.041748
 45 0.136315 -3.738191 2.525891 1.493698 2.759406 -1.474501
 46 3.401194 -0.082822 2.201396 1.059647 2.922362 1.414544
 47 11.389366 -0.000821 0.158779 1.889038 -0.127085 0.211202
 48 0.000001 -4.440599 0.000001 1.570144 -3.078602 0.004040
 49 6.000000 -0.000000 -0.000001 1.889038 0.000000 -0.000000
 50 0.000002 -4.440601 -0.000001 1.569944 -3.078603 0.004053
 51 10.510131 -0.000000 -0.000001 -0.000000 0.000000 -2.402818
 52 0.000000 -1.748399 -5.000002 3.141593 0.004007 -1.539299
 53 5.499998 -0.000000 -0.000001 0.021302 -0.000000 0.000000
 54 -0.000001 -0.000001 -5.000000 -0.044472 3.137589 -0.000177
 55 6.551491 -0.000000 -0.000003 -0.021302 -0.245040 -0.271120
 56 -1.266843 -1.937444 -4.950562 -0.066572 -2.988806 -0.110308
 57 6.551492 0.000000 -0.000002 -0.021302 -0.245040 -0.271120
 58 0.699370 -1.944208 -5.006848 -0.027189 -3.088217 0.005298
 59 4.226144 -0.003200 0.000001 0.102399 -0.046231 0.146505
 60 0.000001 5.000000 -0.000000 -0.153564 0.000087 2.718702
 61 0.000006 -0.000004 -3.713579 0.119535 -2.936655 -0.885276
 62 0.000003 0.000000 5.000000 3.053195 1.558589 -0.074929
 63 -0.000005 0.000006 3.713580 -0.311487 -2.845558 -0.582080
 64 0.000002 0.000000 -5.000000 -0.088728 1.558589 3.066333
 65 7.363603 1.646648 0.495664 -3.141593 -1.570796 0.000000
 66 -0.000005 0.000007 3.619082 -0.441735 -2.434423 -1.159240
 67 16.573921 -0.000000 0.000001 -0.000000 0.000000 -2.011748
 68 15.128181 -0.000000 -0.000000 0.026832 0.026147 -0.175154
 69 5.758666 4.244731 -0.000000 0.000000 -0.000000 2.033309
 70 3.177726 0.000001 0.000000 0.000000 0.000000 3.141593
 71 15.708952 0.000002 -0.000001 0.013957 0.013894 -0.093781
 72 0.275149 0.189215 -3.445208 3.130898 0.000409 -1.514604
 73 17.210192 -0.000001 0.000001 -0.000000 -0.000000 -2.319003
 74 0.000000 -0.000001 -5.000000 -0.079433 1.546568 -1.570857
 75 0.000007 -0.000003 -3.619079 0.260448 -2.945758 -1.468642
 76 16.573919 -0.000000 0.000001 0.000000 -0.000000 -1.562392
 77 15.128181 0.000000 0.000001 0.265624 -0.173430 0.666428
 78 5.758665 4.244731 0.000000 -0.000000 0.000000 1.483530
 79 4.003934 -0.000000 0.000000 0.000000 0.000000 0.000000
 80 15.708953 0.000000 0.000001 0.195074 -0.100553 0.460486
 81 0.273998 0.191090 3.439762 -3.130907 -0.000437 -1.508107
 82 17.210194 -0.000000 0.000000 -0.000000 -0.000000 -2.116793
 83 0.000001 0.000000 5.000000 -0.079311 1.595025 -1.570736
time 1
  0 0.500000 13.522099 26.931471 -0.243067 0.535714 -2.432935
  1 13.773751 5.584523 -22.520975 -0.544290 0.221328 2.303921
  2 -2.276934 0.000003 -1.238185 -1.570795 -1.570451 0.000000
  3 1.796719 0.711823 -0.000042 0.012714 -0.327115 -0.134259
  4 4.119806 -0.003052 -0.000002 0.000689 0.062310 0.375266
  5 4.118888 -0.003266 -0.000028 0.008896 0.124409 0.088477
  6 4.117564 -0.003111 -0.000063 0.018761 0.069831 -0.321500
  7 4.119536 -0.003339 -0.000691 0.197944 -0.098871 0.253755
  8 4.443599 -0.000001 0.000000 0.632113 -0.020303 -0.539598
  9 9.024060 -0.000001 0.000000 0.000000 0.000000 0.000000
 10 0.171039 0.342614 1.690589 2.624813 -1.379008 0.243869
 11 6.384777 -0.000000 -0.000001 -0.689479 0.735528 -0.642995
 12 10.242682 -0.000000 -0.000001 0.000000 -0.000000 -1.460343
 13 11.375561 0.000000 0.000000 -0.741412 -0.692184 -0.454987
 14 0.728681 0.023431 -1.008292 0.125076 0.533138 0.208693
 15 2.136498 -0.000001 0.000001 0.000000 0.000000 -0.078540
 16 2.313138 -0.000001 -0.000001 0.000000 0.000000 0.000000
 17 3.115507 -0.886042 -0.021432 -0.595518 -0.185122 0.249070
 18 2.011151 0.000000 -0.000000 -0.000000 0.000000 0.231961
 19 2.141379 -0.000001 -0.000001 0.000000 0.000000 0.000000
 20 1.734171 0.000001 -0.000002 0.000000 0.000000 0.116653
 21 0.000006 -4.440592 0.000002 1.570544 -0.062990 -0.195737
 22 6.000000 0.000001 -0.000000 -0.987155 0.000000 0.000000
 23 0.000001 -4.440600 -0.000000 1.569944 -0.062987 0.004053
 24 11.375561 0.000001 0.000003 -1.223718 -0.388809 -0.131261
 25 -0.000000 -4.440605 -0.000000 1.570144 -0.062988 0.004040
 26 10.510131 -0.000000 -0.000002 0.000000 0.000000 -2.300968
 27 -0.000001 -1.748400 4.999999 -0.000000 0.004007 1.602291
 28 5.500000 -0.000000 -0.000001 0.204718 -0.000000 -0.000000
 29 -0.000003 -1.940598 5.000000 -0.044472 0.004003 -0.000180
 30 6.551491 -0.000000 -0.000001 -0.409292 0.469501 -0.386167
 31 0.000001 -1.940599 5.000000 -0.027189 -0.053376 0.005295
 32 6.551491 0.000000 -0.000001 -0.166479 0.243583 -0.154773
 33 -0.000001 -1.940599 4.999997 -0.066572 -0.152786 -0.110311
 34 -0.171034 -0.335541 -1.690590 -0.099438 1.378061 2.773965
 35 6.384777 0.000001 -0.000004 0.239694 -0.704290 -1.068029
 36 10.242682 0.000001 -0.000001 0.000000 0.000000 -1.664043
 37 11.375562 -0.000002 -0.000002 2.195111 -0.293091 0.347322
 38 0.728680 0.023431 1.008292 -2.027434 -0.416219 0.534151
 39 2.136497 -0.000001 -0.000000 -0.000000 -0.000000 1.282817
 40 2.313139 0.000000 -0.000000 0.000000 0.000000 3.141593
 41 3.115506 -0.886041 0.021431 0.518003 0.053583 0.680575
 42 2.011150 0.000002 0.000001 0.000000 -0.000000 2.082010
 43 2.141378 -0.000000 0.000001 0.000000 0.000000 3.141593
 44 1.734172 -0.000001 -0.000000 0.000000 0.000000 1.041748
 45 0.136315 -3.738191 2.525891 1.493698 2.759406 -1.474501
 46 3.401194 -0.082822 2.201396 1.059647 2.922362 1.414544
 47 11.389366 -0.000821 0.158779 1.889038 -0.127085 0.211202
 48 0.000001 -4.440599 0.000001 1.570144 -3.078602 0.004040
 49 6.000000 -0.000000 -0.000001 1.889038 0.000000 -0.000000
 50 0.000002 -4.440601 -0.000001 1.569944 -3.078603 0.004053
 51 10.510131 -0.000000 -0.000001 -0.000000 0.000000 -2.402818
 52 0.000000 -1.748399 -5.000002 3.141593 0.004007 -1.539299
 53 5.499998 -0.000000 -0.000001 0.021302 -0.000000 0.000000
 54 -0.000001 -0.000001 -5.000000 -0.044472 3.137589 -0.000177
 55 6.551491 -0.000000 -0.000003 -0.021302 -0.245040 -0.271120
 56 -1.266843 -1.937444 -4.950562 -0.066572 -2.988806 -0.110308
 57 6.551492 0.000000 -0.000002 -0.021302 -0.245040 -0.271120
 58 0.699370 -1.944208 -5.006848 -0.027189 -3.088217 0.005298
 59 4.226144 -0.003200 0.000001 0.102399 -0.046231 0.146505
 60 0.000001 5.000000 -0.000000 -0.153564 0.000087 2.718702
 61 0.000006 -0.000004 -3.713579 0.119535 -2.936655 -0.885276
 62 0.000003 0.000000 5.000000 3.053195 1.558589 -0.074929
 63 -0.000005 0.000006 3.713580 -0.311487 -2.845558 -0.582080
 64 0.000002 0.000000 -5.000000 -0.088728 1.558589 3.066333
 65 7.363603 1.646648 0.495664 -3.141593 -1.570796 0.000000
 66 -0.000005 0.000007 3.619082 -0.441735 -2.434423 -1.159240
 67 16.573921 -0.000000 0.000001 -0.000000 0.000000 -2.011748
 68 15.128181 -0.000000 -0.000000 0.026832 0.026147 -0.175154
 69 5.758666 4.244731 -0.000000 0.000000 -0.000000 2.033309
 70 3.177726 0.000001 0.000000 0.000000 0.000000 3.141593
 71 15.708952 0.000002 -0.000001 0.013957 0.013894 -0.093781
 72 0.275149 0.189215 -3.445208 3.130898 0.000409 -1.514604
 73 17.210192 -0.000001 0.000001 -0.000000 -0.000000 -2.319003
 74 0.000000 -0.000001 -5.000000 -0.079433 1.546568 -1.570857
 75 0.000007 -0.000003 -3.619079 0.260448 -2.945758 -1.468642
 76 16.573919 -0.000000 0.000001 0.000000 -0.000000 -1.562392
 77 15.128181 0.000000 0.000001 0.265624 -0.173430 0.666428
 78 5.758665 4.244731 0.000000 -0.000000 0.000000 1.483530
 79 4.003934 -0.000000 0.000000 0.000000 0.000000 0.000000
 80 15.708953 0.000000 0.000001 0.195074 -0.100553 0.460486
 81 0.273998 0.191090 3.439762 -3.130907 -0.000437 -1.508107
 82 17.210194 -0.000000 0.000000 -0.000000 -0.000000 -2.116793
 83 0.000001 0.000000 5.000000 -0.079311 1.595025 -1.570736
end
