version 1
nodes
  0 "Bip01"  -1
  1 "Bip01 Footsteps"   0
  2 "Bip01 Pelvis"   0
  3 "Bip01 Spine"   2
  4 "Bip01 Spine1"   3
  5 "Bip01 Spine2"   4
  6 "Bip01 Spine3"   5
  7 "Bip01 Neck"   6
  8 "Bip01 Head"   7
  9 "Dummy21"   8
 10 "Bip01 L Clavicle"   7
 11 "Bip01 L UpperArm"  10
 12 "Bip01 L Forearm"  11
 13 "Bip01 L Hand"  12
 14 "Bip01 L Finger0"  13
 15 "Bip01 L Finger01"  14
 16 "Dummy06"  15
 17 "Bip01 L Finger1"  13
 18 "Bip01 L Finger11"  17
 19 "Dummy03"  18
 20 "-- L knuckle"  17
 21 "-- L knuckle_end"  20
 22 "-- L Forearm twist"  12
 23 "-- L Forearm twist_end"  22
 24 "-- L wrist"  12
 25 "-- L wrist_end"  24
 26 "-- L Elbow"  11
 27 "--L Elbow_end"  26
 28 "-- L bicep twist"  11
 29 "-- L bicep twist_end"  28
 30 "-- L shoulder outside"  10
 31 "-- L shoulder outside_end"  30
 32 "-- L Shoulder inside"  10
 33 "-- L Shoulder inside_end"  32
 34 "Bip01 R Clavicle"   7
 35 "Bip01 R UpperArm"  34
 36 "Bip01 R Forearm"  35
 37 "Bip01 R Hand"  36
 38 "Bip01 R Finger0"  37
 39 "Bip01 R Finger01"  38
 40 "Dummy01"  39
 41 "Bip01 R Finger1"  37
 42 "Bip01 R Finger11"  41
 43 "Dummy02"  42
 44 "-- R knuckle"  41
 45 "Point06"  44
 46 "flash"  37
 47 "Line02"  46
 48 "-- R wrist"  36
 49 "-- R wrist_end"  48
 50 "-- R forearm twist"  36
 51 "-- R forearm twist_end"  50
 52 "-- R Elbow"  35
 53 "--R Elbow_end"  52
 54 "-- R bicep twist"  35
 55 "-- R bicep twist_end"  54
 56 "-- R Shoulder inside"  34
 57 "-- R Shoulder inside_end"  56
 58 "-- R shoulder outside"  34
 59 "-- R shoulder outside_end"  58
 60 "-- Neck smooth"   6
 61 "-- neck smooth end"  60
 62 "-- R Butt"   2
 63 "--R Butt_end"  62
 64 "-- L butt"   2
 65 "--L butt_end"  64
 66 "GIGN01"   2
 67 "Bip01 L Thigh"   2
 68 "Bip01 L Calf"  67
 69 "Bip01 L Foot"  68
 70 "Bip01 L Toe0"  69
 71 "Dummy16"  70
 72 "-- L ankle"  68
 73 "-- L ankleend"  72
 74 "-- L Knee"  67
 75 "--L Knee_end"  74
 76 "Bip01 R Thigh"   2
 77 "Bip01 R Calf"  76
 78 "Bip01 R Foot"  77
 79 "Bip01 R Toe0"  78
 80 "Dummy11"  79
 81 "-- R Ankle"  77
 82 "-- R ankleend"  81
 83 "-- R Knee"  76
 84 "--R Knee_end"  83
end
skeleton
time 0
  0 -0.650000 0.000000 33.899605 -0.025849 0.174554 -1.569172
  1 5.685104 0.833236 -32.227173 -0.174512 -0.026131 1.569196
  2 -2.276935 0.000003 -1.238188 -1.570795 -1.570451 0.000000
  3 1.797455 0.714022 0.003088 -1.275795 0.175123 -0.231528
  4 4.118685 -0.003267 0.000282 -0.086486 -0.095222 0.032373
  5 4.118676 -0.003266 0.000282 -0.087264 -0.160119 0.038097
  6 4.118683 -0.003267 0.000282 -0.086486 -0.095229 0.032285
  7 4.119166 -0.001900 -0.002930 0.984651 0.105536 0.445739
  8 4.443598 0.000001 0.000000 -0.875726 -0.217479 -0.462356
  9 9.024063 -0.000000 0.000000 0.000000 0.000000 0.000000
 10 -0.182527 1.438998 0.953132 1.127090 -0.326945 1.527377
 11 6.384777 -0.000000 0.000001 -0.627109 0.825467 -1.187962
 12 10.242684 0.000001 -0.000001 -0.000000 -0.000000 -1.327060
 13 11.375561 -0.000001 0.000001 -2.929788 0.205804 0.353268
 14 0.728681 0.023432 -1.008293 1.202975 0.409398 0.881724
 15 2.136498 -0.000000 0.000000 0.000000 0.000000 -0.078540
 16 2.313138 -0.000000 0.000001 0.000000 0.000000 0.000000
 17 3.115507 -0.886042 -0.021430 -0.166499 0.000392 0.514872
 18 2.011149 -0.000003 0.000001 -0.000000 0.000000 1.322792
 19 2.141383 0.000000 -0.000000 0.000000 0.000000 0.000000
 20 1.734172 -0.000000 -0.000000 -0.000000 -0.000000 0.660693
 21 0.000006 -4.440594 0.000001 1.570544 -0.062990 -0.195737
 22 6.000000 -0.000000 0.000001 -2.640189 -0.000000 -0.000000
 23 0.000002 -4.440601 0.000001 1.569944 -0.062987 0.004053
 24 11.375561 -0.000001 0.000004 -2.254425 0.037166 0.236544
 25 -0.000002 -4.440602 -0.000000 1.570144 -0.062988 0.004040
 26 10.510131 -0.000001 -0.000001 0.000000 -0.000000 -2.234327
 27 -0.000000 -1.748402 4.999999 -0.000000 0.004007 1.602291
 28 5.500000 -0.000000 -0.000001 0.040978 0.000000 0.000000
 29 -0.000001 -1.940598 5.000000 -0.044472 0.004003 -0.000180
 30 6.551491 -0.000000 0.000001 -0.183745 0.630705 -0.657654
 31 0.000001 -1.940599 5.000002 -0.027189 -0.053376 0.005295
 32 6.551491 -0.000000 0.000001 -0.024454 0.302183 -0.269742
 33 0.000000 -1.940599 4.999995 -0.066572 -0.152786 -0.110311
 34 0.182530 -1.431922 -0.953131 -1.323569 2.657153 1.033898
 35 6.384777 0.000000 -0.000001 -1.076789 -0.259208 0.241098
 36 10.242682 0.000001 -0.000003 0.000000 -0.000000 -2.328647
 37 11.375562 0.000001 0.000002 2.073552 0.504184 -0.336335
 38 0.728680 0.023431 1.008289 -1.579583 -0.319038 0.212973
 39 2.136495 0.000003 0.000000 0.000000 0.000000 1.282817
 40 2.313138 0.000000 0.000000 0.000000 0.000000 3.141593
 41 3.115505 -0.886040 0.021430 0.420766 0.316066 0.167178
 42 2.011150 0.000002 0.000003 -0.000000 -0.000000 2.082010
 43 2.141378 -0.000001 -0.000002 0.000000 0.000000 3.141593
 44 1.734173 -0.000001 -0.000001 0.000000 0.000000 1.041748
 45 0.136315 -3.738191 2.525889 1.493698 2.759406 -1.474501
 46 29.831049 -1.859317 -2.180630 0.219518 -0.013465 1.468817
 47 -0.319473 8.644887 1.613178 -1.569415 -0.026309 0.036285
 48 11.389367 -0.000819 0.158783 1.831355 0.243384 -0.205197
 49 -0.000000 -4.440599 0.000001 1.570144 -3.078602 0.004040
 50 6.000000 -0.000000 0.000000 1.831355 0.000000 -0.000000
 51 0.000002 -4.440601 0.000000 1.569944 -3.078603 0.004053
 52 10.510133 -0.000001 -0.000001 0.000000 -0.000000 -2.735120
 53 -0.000002 -1.748402 -5.000002 -3.141593 0.004007 -1.539299
 54 5.500001 -0.000001 -0.000000 0.338596 -0.000000 -0.000000
 55 0.000001 0.000002 -5.000001 -0.044472 3.137589 -0.000177
 56 6.551491 0.000000 -0.000001 -0.338596 -0.167164 0.081283
 57 -1.266842 -1.937444 -4.950560 -0.066572 -2.988806 -0.110308
 58 6.551492 0.000000 -0.000001 -0.338596 -0.167164 0.081283
 59 0.699371 -1.944209 -5.006846 -0.027189 -3.088217 0.005298
 60 4.226146 -0.003201 0.000000 0.486288 0.116563 0.224150
 61 0.000002 5.000000 -0.000000 -0.153564 0.000087 2.718702
 62 0.000004 -0.000005 -3.713580 0.365818 2.880119 -0.191589
 63 0.000002 0.000000 5.000000 3.053196 1.558589 -0.074928
 64 -0.000007 0.000005 3.713580 -0.001619 -3.122277 -0.475127
 65 0.000002 -0.000001 -5.000000 -0.088726 1.558589 3.066334
 66 7.363602 1.646647 0.495663 3.141593 -1.570796 0.000000
 67 -0.000005 0.000006 3.619081 0.008255 -3.110080 -0.985231
 68 16.573919 -0.000000 0.000000 0.000000 -0.000000 -1.065827
 69 15.128181 0.000001 -0.000000 -0.102296 0.010178 0.114297
 70 5.758665 4.244730 0.000000 0.000000 0.000000 1.667687
 71 3.177725 0.000000 -0.000000 0.000000 0.000000 3.141593
 72 15.708953 0.000001 0.000000 -0.051525 0.003996 0.061523
 73 0.275148 0.189215 -3.445207 3.130898 0.000409 -1.514604
 74 17.210194 -0.000000 0.000000 0.000000 -0.000000 -1.893339
 75 -0.000000 0.000000 -5.000000 -0.079430 1.546568 -1.570855
 76 0.000002 -0.000003 -3.619081 0.577895 2.675801 -0.242118
 77 16.573921 -0.000001 -0.000002 -0.000000 -0.000000 -1.163030
 78 15.128181 0.000001 0.000001 0.089479 0.309197 0.659208
 79 5.758666 4.244730 -0.000001 -0.000000 -0.000000 1.815142
 80 4.003934 -0.000000 0.000001 0.000000 0.000000 0.000000
 81 15.708953 0.000001 0.000001 0.042277 0.226871 0.443133
 82 0.273998 0.191089 3.439763 -3.130907 -0.000437 -1.508107
 83 17.210194 -0.000001 -0.000002 0.000000 -0.000000 -1.937080
 84 -0.000000 -0.000001 5.000000 -0.079319 1.595025 -1.570742
time 1
  0 -0.650000 0.000000 33.899605 -0.025849 0.174554 -1.569172
  1 5.685104 0.833236 -32.227173 -0.174512 -0.026131 1.569196
  2 -2.276935 0.000003 -1.238188 -1.570795 -1.570451 0.000000
  3 1.797455 0.714022 0.003088 -1.275795 0.175123 -0.231528
  4 4.118685 -0.003267 0.000282 -0.086486 -0.095222 0.032373
  5 4.118676 -0.003266 0.000282 -0.087264 -0.160119 0.038097
  6 4.118683 -0.003267 0.000282 -0.086486 -0.095229 0.032285
  7 4.119166 -0.001900 -0.002930 0.984651 0.105536 0.445739
  8 4.443598 0.000001 0.000000 -0.875726 -0.217479 -0.462356
  9 9.024063 -0.000000 0.000000 0.000000 0.000000 0.000000
 10 -0.182527 1.438998 0.953132 1.127090 -0.326945 1.527377
 11 6.384777 -0.000000 0.000001 -0.627109 0.825467 -1.187962
 12 10.242684 0.000001 -0.000001 -0.000000 -0.000000 -1.327060
 13 11.375561 -0.000001 0.000001 -2.929788 0.205804 0.353268
 14 0.728681 0.023432 -1.008293 1.202975 0.409398 0.881724
 15 2.136498 -0.000000 0.000000 0.000000 0.000000 -0.078540
 16 2.313138 -0.000000 0.000001 0.000000 0.000000 0.000000
 17 3.115507 -0.886042 -0.021430 -0.166499 0.000392 0.514872
 18 2.011149 -0.000003 0.000001 -0.000000 0.000000 1.322792
 19 2.141383 0.000000 -0.000000 0.000000 0.000000 0.000000
 20 1.734172 -0.000000 -0.000000 -0.000000 -0.000000 0.660693
 21 0.000006 -4.440594 0.000001 1.570544 -0.062990 -0.195737
 22 6.000000 -0.000000 0.000001 -2.640189 -0.000000 -0.000000
 23 0.000002 -4.440601 0.000001 1.569944 -0.062987 0.004053
 24 11.375561 -0.000001 0.000004 -2.254425 0.037166 0.236544
 25 -0.000002 -4.440602 -0.000000 1.570144 -0.062988 0.004040
 26 10.510131 -0.000001 -0.000001 0.000000 -0.000000 -2.234327
 27 -0.000000 -1.748402 4.999999 -0.000000 0.004007 1.602291
 28 5.500000 -0.000000 -0.000001 0.040978 0.000000 0.000000
 29 -0.000001 -1.940598 5.000000 -0.044472 0.004003 -0.000180
 30 6.551491 -0.000000 0.000001 -0.183745 0.630705 -0.657654
 31 0.000001 -1.940599 5.000002 -0.027189 -0.053376 0.005295
 32 6.551491 -0.000000 0.000001 -0.024454 0.302183 -0.269742
 33 0.000000 -1.940599 4.999995 -0.066572 -0.152786 -0.110311
 34 0.182530 -1.431922 -0.953131 -1.323569 2.657153 1.033898
 35 6.384777 0.000000 -0.000001 -1.076789 -0.259208 0.241098
 36 10.242682 0.000001 -0.000003 0.000000 -0.000000 -2.328647
 37 11.375562 0.000001 0.000002 2.073552 0.504184 -0.336335
 38 0.728680 0.023431 1.008289 -1.579583 -0.319038 0.212973
 39 2.136495 0.000003 0.000000 0.000000 0.000000 1.282817
 40 2.313138 0.000000 0.000000 0.000000 0.000000 3.141593
 41 3.115505 -0.886040 0.021430 0.420766 0.316066 0.167178
 42 2.011150 0.000002 0.000003 -0.000000 -0.000000 2.082010
 43 2.141378 -0.000001 -0.000002 0.000000 0.000000 3.141593
 44 1.734173 -0.000001 -0.000001 0.000000 0.000000 1.041748
 45 0.136315 -3.738191 2.525889 1.493698 2.759406 -1.474501
 46 29.831049 -1.859317 -2.180630 0.219518 -0.013465 1.468817
 47 -0.319473 8.644887 1.613178 -1.569415 -0.026309 0.036285
 48 11.389367 -0.000819 0.158783 1.831355 0.243384 -0.205197
 49 -0.000000 -4.440599 0.000001 1.570144 -3.078602 0.004040
 50 6.000000 -0.000000 0.000000 1.831355 0.000000 -0.000000
 51 0.000002 -4.440601 0.000000 1.569944 -3.078603 0.004053
 52 10.510133 -0.000001 -0.000001 0.000000 -0.000000 -2.735120
 53 -0.000002 -1.748402 -5.000002 -3.141593 0.004007 -1.539299
 54 5.500001 -0.000001 -0.000000 0.338596 -0.000000 -0.000000
 55 0.000001 0.000002 -5.000001 -0.044472 3.137589 -0.000177
 56 6.551491 0.000000 -0.000001 -0.338596 -0.167164 0.081283
 57 -1.266842 -1.937444 -4.950560 -0.066572 -2.988806 -0.110308
 58 6.551492 0.000000 -0.000001 -0.338596 -0.167164 0.081283
 59 0.699371 -1.944209 -5.006846 -0.027189 -3.088217 0.005298
 60 4.226146 -0.003201 0.000000 0.486288 0.116563 0.224150
 61 0.000002 5.000000 -0.000000 -0.153564 0.000087 2.718702
 62 0.000004 -0.000005 -3.713580 0.365818 2.880119 -0.191589
 63 0.000002 0.000000 5.000000 3.053196 1.558589 -0.074928
 64 -0.000007 0.000005 3.713580 -0.001619 -3.122277 -0.475127
 65 0.000002 -0.000001 -5.000000 -0.088726 1.558589 3.066334
 66 7.363602 1.646647 0.495663 3.141593 -1.570796 0.000000
 67 -0.000005 0.000006 3.619081 0.008255 -3.110080 -0.985231
 68 16.573919 -0.000000 0.000000 0.000000 -0.000000 -1.065827
 69 15.128181 0.000001 -0.000000 -0.102296 0.010178 0.114297
 70 5.758665 4.244730 0.000000 0.000000 0.000000 1.667687
 71 3.177725 0.000000 -0.000000 0.000000 0.000000 3.141593
 72 15.708953 0.000001 0.000000 -0.051525 0.003996 0.061523
 73 0.275148 0.189215 -3.445207 3.130898 0.000409 -1.514604
 74 17.210194 -0.000000 0.000000 0.000000 -0.000000 -1.893339
 75 -0.000000 0.000000 -5.000000 -0.079430 1.546568 -1.570855
 76 0.000002 -0.000003 -3.619081 0.577895 2.675801 -0.242118
 77 16.573921 -0.000001 -0.000002 -0.000000 -0.000000 -1.163030
 78 15.128181 0.000001 0.000001 0.089479 0.309197 0.659208
 79 5.758666 4.244730 -0.000001 -0.000000 -0.000000 1.815142
 80 4.003934 -0.000000 0.000001 0.000000 0.000000 0.000000
 81 15.708953 0.000001 0.000001 0.042277 0.226871 0.443133
 82 0.273998 0.191089 3.439763 -3.130907 -0.000437 -1.508107
 83 17.210194 -0.000001 -0.000002 0.000000 -0.000000 -1.937080
 84 -0.000000 -0.000001 5.000000 -0.079319 1.595025 -1.570742
end
