version 1
nodes
  0 "Bip01"  -1
  1 "Bip01 Footsteps"   0
  2 "Bip01 Pelvis"   0
  3 "Bip01 Spine"   2
  4 "Bip01 Spine1"   3
  5 "Bip01 Spine2"   4
  6 "Bip01 Spine3"   5
  7 "Bip01 Neck"   6
  8 "Bip01 Head"   7
  9 "Dummy21"   8
 10 "Bip01 L Clavicle"   7
 11 "Bip01 L UpperArm"  10
 12 "Bip01 L Forearm"  11
 13 "Bip01 L Hand"  12
 14 "Bip01 L Finger0"  13
 15 "Bip01 L Finger01"  14
 16 "Dummy06"  15
 17 "Bip01 L Finger1"  13
 18 "Bip01 L Finger11"  17
 19 "Dummy03"  18
 20 "-- L knuckle"  17
 21 "-- L knuckle_end"  20
 22 "-- L Forearm twist"  12
 23 "-- L Forearm twist_end"  22
 24 "-- L wrist"  12
 25 "-- L wrist_end"  24
 26 "-- L Elbow"  11
 27 "--L Elbow_end"  26
 28 "-- L bicep twist"  11
 29 "-- L bicep twist_end"  28
 30 "-- L shoulder outside"  10
 31 "-- L shoulder outside_end"  30
 32 "-- L Shoulder inside"  10
 33 "-- L Shoulder inside_end"  32
 34 "Bip01 R Clavicle"   7
 35 "Bip01 R UpperArm"  34
 36 "Bip01 R Forearm"  35
 37 "Bip01 R Hand"  36
 38 "Bip01 R Finger0"  37
 39 "Bip01 R Finger01"  38
 40 "Dummy01"  39
 41 "Bip01 R Finger1"  37
 42 "Bip01 R Finger11"  41
 43 "Dummy02"  42
 44 "-- R knuckle"  41
 45 "Point06"  44
 46 "Line03"  37
 47 "-- R wrist"  36
 48 "-- R wrist_end"  47
 49 "-- R forearm twist"  36
 50 "-- R forearm twist_end"  49
 51 "-- R Elbow"  35
 52 "--R Elbow_end"  51
 53 "-- R bicep twist"  35
 54 "-- R bicep twist_end"  53
 55 "-- R Shoulder inside"  34
 56 "-- R Shoulder inside_end"  55
 57 "-- R shoulder outside"  34
 58 "-- R shoulder outside_end"  57
 59 "-- Neck smooth"   6
 60 "-- neck smooth end"  59
 61 "-- R Butt"   2
 62 "--R Butt_end"  61
 63 "-- L butt"   2
 64 "--L butt_end"  63
 65 "GIGN01"   2
 66 "Bip01 L Thigh"   2
 67 "Bip01 L Calf"  66
 68 "Bip01 L Foot"  67
 69 "Bip01 L Toe0"  68
 70 "Dummy16"  69
 71 "-- L ankle"  67
 72 "-- L ankleend"  71
 73 "-- L Knee"  66
 74 "--L Knee_end"  73
 75 "Bip01 R Thigh"   2
 76 "Bip01 R Calf"  75
 77 "Bip01 R Foot"  76
 78 "Bip01 R Toe0"  77
 79 "Dummy11"  78
 80 "-- R Ankle"  76
 81 "-- R ankleend"  80
 82 "-- R Knee"  75
 83 "--R Knee_end"  82
end
skeleton
time 0
  0 0.500000 13.522099 26.931471 -0.243067 0.535714 -2.432935
  1 13.773751 5.584523 -22.520975 -0.544290 0.221328 2.303921
  2 -2.276934 0.000003 -1.238185 -1.570795 -1.570451 0.000000
  3 1.796434 0.711887 -0.000311 0.097184 -0.233414 -0.241452
  4 4.120598 -0.002606 -0.000062 0.018615 0.010590 0.653227
  5 4.118063 -0.003236 0.000003 -0.001178 0.075504 -0.165661
  6 4.118084 -0.003233 -0.000151 0.046454 0.037194 -0.157059
  7 4.119224 -0.003311 -0.001083 0.344818 0.437812 0.336444
  8 4.443599 -0.000001 -0.000000 0.117891 -0.211055 0.442376
  9 9.024060 -0.000001 -0.000000 0.000000 0.000000 0.000000
 10 -0.734602 0.533996 1.476920 1.253630 -1.056711 1.427785
 11 6.384776 0.000001 0.000002 0.692925 2.010289 0.650584
 12 10.242681 -0.000000 -0.000000 0.000000 0.000000 -1.736549
 13 11.375561 0.000002 0.000000 3.113961 -0.322449 -0.686543
 14 0.728680 0.023431 -1.008292 0.867878 0.712365 -0.046112
 15 2.136497 0.000001 0.000000 0.000000 0.000000 -0.078540
 16 2.313139 -0.000000 -0.000000 0.000000 0.000000 0.000000
 17 3.115506 -0.886041 -0.021431 -0.611647 0.000152 0.191986
 18 2.011151 0.000001 -0.000000 0.000000 -0.000000 0.659566
 19 2.141380 -0.000001 0.000000 0.000000 0.000000 0.000000
 20 1.734173 0.000001 -0.000000 -0.000000 -0.000000 0.330185
 21 0.000006 -4.440594 -0.000000 1.570544 -0.062990 -0.195737
 22 6.000000 -0.000001 -0.000000 -2.878840 0.000000 -0.000000
 23 0.000001 -4.440600 0.000000 1.569944 -0.062987 0.004053
 24 11.375561 0.000001 0.000003 -2.388704 -0.005110 -0.421246
 25 -0.000001 -4.440605 0.000001 1.570144 -0.062988 0.004040
 26 10.510130 -0.000000 -0.000000 -0.000000 -0.000000 -2.439071
 27 0.000000 -1.748400 4.999999 0.000000 0.004007 1.602291
 28 5.499997 0.000000 -0.000001 0.124452 -0.000000 0.000000
 29 -0.000001 -1.940599 5.000000 -0.044472 0.004003 -0.000180
 30 6.551491 0.000001 0.000002 -1.413612 1.302211 -1.494101
 31 0.000002 -1.940598 5.000000 -0.027189 -0.053376 0.005295
 32 6.551491 0.000001 0.000002 -0.076196 0.526560 -0.122194
 33 -0.000001 -1.940599 4.999996 -0.066572 -0.152786 -0.110311
 34 0.734604 -0.526919 -1.476921 2.708770 0.710314 -0.684749
 35 6.384775 0.000000 -0.000001 -0.017498 -0.191613 -0.890359
 36 10.242682 0.000002 -0.000001 0.000000 0.000000 -2.410579
 37 11.375563 0.000003 0.000002 2.948563 0.225610 0.851409
 38 0.728682 0.023431 1.008292 -1.579583 -0.319038 0.212973
 39 2.136497 -0.000001 -0.000000 -0.000000 0.000000 1.282817
 40 2.313138 0.000000 0.000000 0.000000 0.000000 3.141593
 41 3.115505 -0.886041 0.021434 0.420766 0.316066 0.167178
 42 2.011152 -0.000001 -0.000002 -0.000000 0.000000 2.082010
 43 2.141380 0.000001 0.000001 0.000000 0.000000 3.141593
 44 1.734171 -0.000001 -0.000001 -0.000000 0.000000 1.041748
 45 0.136314 -3.738191 2.525891 1.493698 2.759406 -1.474501
 46 10.273804 -0.437102 1.198993 1.793563 0.004868 1.507198
 47 11.389366 -0.000819 0.158781 2.226854 0.265253 0.373662
 48 0.000001 -4.440599 0.000001 1.570144 -3.078602 0.004040
 49 6.000000 0.000000 -0.000000 2.226854 -0.000000 -0.000000
 50 0.000002 -4.440601 0.000001 1.569944 -3.078603 0.004053
 51 10.510132 0.000001 0.000000 -0.000000 -0.000000 -2.776086
 52 0.000001 -1.748402 -5.000001 -3.141593 0.004007 -1.539299
 53 5.500000 0.000001 -0.000001 0.022364 -0.000000 0.000000
 54 0.000000 -0.000000 -4.999999 -0.044472 3.137589 -0.000177
 55 6.551489 -0.000000 -0.000001 -0.022364 -0.061676 -0.272287
 56 -1.266844 -1.937444 -4.950558 -0.066572 -2.988806 -0.110308
 57 6.551492 0.000002 -0.000003 -0.022364 -0.061676 -0.272287
 58 0.699371 -1.944208 -5.006847 -0.027189 -3.088217 0.005298
 59 4.226145 -0.003200 0.000000 0.171353 0.260229 0.176064
 60 -0.000000 5.000000 -0.000000 -0.153564 0.000087 2.718702
 61 0.000006 -0.000006 -3.713579 0.119535 -2.936655 -0.885276
 62 0.000001 0.000000 5.000000 3.053195 1.558589 -0.074929
 63 -0.000005 0.000005 3.713580 -0.311487 -2.845558 -0.582080
 64 0.000001 0.000000 -5.000000 -0.088726 1.558589 3.066335
 65 7.363603 1.646646 0.495663 -3.141593 -1.570796 0.000000
 66 -0.000005 0.000005 3.619082 -0.441735 -2.434423 -1.159240
 67 16.573917 -0.000000 0.000001 -0.000000 -0.000000 -2.011748
 68 15.128181 0.000000 -0.000000 0.026832 0.026147 -0.175154
 69 5.758666 4.244731 0.000000 0.000000 -0.000000 2.033309
 70 3.177727 0.000000 0.000000 0.000000 0.000000 3.141593
 71 15.708951 0.000002 -0.000000 0.013957 0.013894 -0.093781
 72 0.275148 0.189215 -3.445208 3.130898 0.000409 -1.514604
 73 17.210192 -0.000001 0.000002 -0.000000 0.000000 -2.319003
 74 0.000000 -0.000001 -5.000000 -0.079433 1.546568 -1.570857
 75 0.000007 -0.000004 -3.619079 0.260448 -2.945758 -1.468642
 76 16.573919 -0.000000 0.000001 0.000000 0.000000 -1.562392
 77 15.128181 0.000000 0.000001 0.265624 -0.173430 0.666428
 78 5.758665 4.244731 0.000000 -0.000000 0.000000 1.483530
 79 4.003934 -0.000000 0.000000 0.000000 0.000000 0.000000
 80 15.708953 0.000000 0.000000 0.195074 -0.100553 0.460486
 81 0.273998 0.191090 3.439762 -3.130907 -0.000437 -1.508107
 82 17.210196 0.000000 0.000001 -0.000000 0.000000 -2.116793
 83 0.000000 -0.000001 5.000000 -0.079311 1.595025 -1.570737
time 1
  0 0.500000 13.522099 26.931471 -0.243067 0.535714 -2.432935
  1 13.773751 5.584523 -22.520975 -0.544290 0.221328 2.303921
  2 -2.276934 0.000003 -1.238185 -1.570795 -1.570451 0.000000
  3 1.796463 0.711881 -0.000317 0.099218 -0.239904 -0.234040
  4 4.120613 -0.002589 -0.000074 0.022446 0.004678 0.660914
  5 4.118088 -0.003240 -0.000011 0.003161 0.069743 -0.157839
  6 4.118109 -0.003238 -0.000165 0.050482 0.031070 -0.149535
  7 4.119342 -0.003305 -0.001031 0.324971 0.422046 0.356790
  8 4.443598 0.000001 -0.000000 0.171117 -0.229838 0.341523
  9 9.024059 -0.000000 -0.000000 0.000000 0.000000 0.000000
 10 -0.709771 0.508217 1.497948 1.281505 -1.083187 1.380679
 11 6.384776 0.000000 -0.000002 0.827167 2.014310 0.789389
 12 10.242682 -0.000000 -0.000000 -0.000000 -0.000000 -1.728542
 13 11.375561 -0.000000 0.000000 3.096377 -0.326143 -0.665133
 14 0.728682 0.023431 -1.008291 0.867878 0.712366 -0.046112
 15 2.136496 -0.000001 0.000000 -0.000000 0.000000 -0.078540
 16 2.313139 0.000001 -0.000000 0.000000 0.000000 0.000000
 17 3.115507 -0.886041 -0.021431 -0.611647 0.000152 0.191986
 18 2.011151 -0.000000 0.000002 -0.000000 0.000000 0.659566
 19 2.141380 -0.000000 -0.000000 0.000000 0.000000 0.000000
 20 1.734172 0.000001 0.000001 -0.000000 0.000000 0.330185
 21 0.000005 -4.440593 0.000001 1.570544 -0.062990 -0.195737
 22 6.000000 -0.000000 -0.000000 -2.892999 0.000000 0.000000
 23 0.000002 -4.440601 0.000000 1.569944 -0.062987 0.004053
 24 11.375561 0.000001 0.000003 -2.396395 -0.009349 -0.413880
 25 -0.000001 -4.440603 -0.000000 1.570144 -0.062988 0.004040
 26 10.510132 -0.000000 -0.000000 0.000000 0.000000 -2.435067
 27 0.000000 -1.748400 4.999999 -0.000000 0.004007 1.602290
 28 5.500000 0.000000 -0.000001 0.147951 -0.000000 -0.000000
 29 -0.000002 -1.940598 5.000000 -0.044472 0.004003 -0.000180
 30 6.551491 0.000000 -0.000003 -1.327759 1.258325 -1.403697
 31 -0.000002 -1.940598 5.000001 -0.027189 -0.053376 0.005295
 32 6.551491 0.000000 -0.000003 -0.092837 0.521048 -0.137760
 33 0.000000 -1.940598 4.999995 -0.066572 -0.152786 -0.110311
 34 0.709772 -0.501135 -1.497948 2.761330 0.749370 -0.659071
 35 6.384777 0.000001 -0.000003 0.005191 -0.196292 -0.877513
 36 10.242682 0.000000 0.000001 -0.000000 -0.000000 -2.410510
 37 11.375559 -0.000001 -0.000001 2.943232 0.232988 0.881041
 38 0.728680 0.023431 1.008293 -1.579583 -0.319038 0.212973
 39 2.136498 0.000002 -0.000001 0.000000 0.000000 1.282817
 40 2.313138 -0.000000 0.000000 0.000000 0.000000 3.141593
 41 3.115506 -0.886041 0.021431 0.420766 0.316066 0.167178
 42 2.011150 0.000000 0.000001 -0.000000 0.000000 2.082010
 43 2.141379 -0.000000 -0.000001 0.000000 0.000000 3.141593
 44 1.734172 -0.000001 0.000001 0.000000 0.000000 1.041748
 45 0.136315 -3.738193 2.525889 1.493698 2.759406 -1.474501
 46 10.273806 -0.437101 1.198990 1.793563 0.004868 1.507198
 47 11.389365 -0.000820 0.158781 2.221591 0.271874 0.385204
 48 -0.000001 -4.440600 0.000002 1.570144 -3.078602 0.004040
 49 5.999999 -0.000000 -0.000000 2.221591 -0.000000 0.000000
 50 0.000001 -4.440601 -0.000001 1.569944 -3.078603 0.004053
 51 10.510132 0.000002 0.000001 0.000000 -0.000000 -2.776051
 52 0.000001 -1.748399 -5.000002 -3.141593 0.004007 -1.539299
 53 5.500000 0.000001 0.000000 0.015102 -0.000000 -0.000000
 54 -0.000000 0.000000 -5.000000 -0.044472 3.137589 -0.000177
 55 6.551490 -0.000000 -0.000002 -0.015102 -0.066120 -0.270430
 56 -1.266843 -1.937444 -4.950559 -0.066572 -2.988806 -0.110308
 57 6.551490 -0.000000 -0.000001 -0.015102 -0.066120 -0.270430
 58 0.699370 -1.944209 -5.006845 -0.027189 -3.088217 0.005298
 59 4.226146 -0.003200 0.000000 0.160222 0.251143 0.190255
 60 0.000001 4.999999 -0.000000 -0.153564 0.000087 2.718702
 61 0.000006 -0.000006 -3.713579 0.119535 -2.936655 -0.885276
 62 0.000001 0.000000 5.000000 3.053195 1.558589 -0.074929
 63 -0.000005 0.000005 3.713580 -0.311487 -2.845558 -0.582080
 64 0.000001 0.000000 -5.000000 -0.088726 1.558589 3.066335
 65 7.363603 1.646646 0.495663 -3.141593 -1.570796 0.000000
 66 -0.000005 0.000005 3.619082 -0.441735 -2.434423 -1.159240
 67 16.573917 -0.000000 0.000001 -0.000000 -0.000000 -2.011748
 68 15.128181 0.000000 -0.000000 0.026832 0.026147 -0.175154
 69 5.758666 4.244731 0.000000 0.000000 -0.000000 2.033309
 70 3.177727 0.000000 0.000000 0.000000 0.000000 3.141593
 71 15.708951 0.000002 -0.000000 0.013957 0.013894 -0.093781
 72 0.275148 0.189215 -3.445208 3.130898 0.000409 -1.514604
 73 17.210192 -0.000001 0.000002 -0.000000 0.000000 -2.319003
 74 0.000000 -0.000001 -5.000000 -0.079433 1.546568 -1.570857
 75 0.000007 -0.000004 -3.619079 0.260448 -2.945758 -1.468642
 76 16.573919 -0.000000 0.000001 0.000000 0.000000 -1.562392
 77 15.128181 0.000000 0.000001 0.265624 -0.173430 0.666428
 78 5.758665 4.244731 0.000000 -0.000000 0.000000 1.483530
 79 4.003934 -0.000000 0.000000 0.000000 0.000000 0.000000
 80 15.708953 0.000000 0.000000 0.195074 -0.100553 0.460486
 81 0.273998 0.191090 3.439762 -3.130907 -0.000437 -1.508107
 82 17.210196 0.000000 0.000001 -0.000000 0.000000 -2.116793
 83 0.000000 -0.000001 5.000000 -0.079311 1.595025 -1.570737
time 2
  0 0.500000 13.522099 26.931471 -0.243067 0.535714 -2.432935
  1 13.773751 5.584523 -22.520975 -0.544290 0.221328 2.303921
  2 -2.276934 0.000003 -1.238185 -1.570795 -1.570451 0.000000
  3 1.796491 0.711876 -0.000323 0.101206 -0.246408 -0.226630
  4 4.120633 -0.002573 -0.000086 0.026230 -0.001263 0.668579
  5 4.118111 -0.003240 -0.000023 0.007453 0.063949 -0.150045
  6 4.118135 -0.003244 -0.000179 0.054464 0.024916 -0.142037
  7 4.119455 -0.003293 -0.000975 0.304901 0.406646 0.377327
  8 4.443600 0.000000 0.000000 0.224699 -0.241957 0.238992
  9 9.024061 -0.000003 -0.000000 0.000000 0.000000 0.000000
 10 -0.685345 0.481277 1.518021 1.313622 -1.108982 1.329464
 11 6.384776 0.000001 -0.000001 0.955759 2.026492 0.923079
 12 10.242683 0.000000 0.000000 0.000000 -0.000000 -1.718940
 13 11.375562 0.000001 0.000001 3.077804 -0.329044 -0.645385
 14 0.728680 0.023430 -1.008291 0.867878 0.712366 -0.046112
 15 2.136497 0.000001 0.000000 -0.000000 0.000000 -0.078540
 16 2.313139 -0.000000 0.000000 0.000000 0.000000 0.000000
 17 3.115506 -0.886042 -0.021431 -0.611647 0.000152 0.191986
 18 2.011150 -0.000001 0.000001 -0.000000 0.000000 0.659566
 19 2.141380 0.000001 -0.000001 0.000000 0.000000 0.000000
 20 1.734171 0.000001 0.000000 -0.000000 -0.000000 0.330185
 21 0.000005 -4.440593 -0.000000 1.570544 -0.062990 -0.195737
 22 6.000000 -0.000000 0.000000 -2.908274 -0.000000 -0.000000
 23 0.000001 -4.440600 0.000000 1.569944 -0.062987 0.004053
 24 11.375562 0.000002 0.000004 -2.404614 -0.012821 -0.407135
 25 -0.000001 -4.440602 0.000001 1.570144 -0.062988 0.004040
 26 10.510133 0.000000 -0.000000 0.000000 0.000000 -2.430267
 27 0.000000 -1.748402 4.999998 -0.000000 0.004007 1.602291
 28 5.500001 0.000000 -0.000000 0.169928 -0.000000 -0.000000
 29 -0.000001 -1.940599 5.000001 -0.044472 0.004003 -0.000180
 30 6.551490 0.000001 -0.000000 -1.256408 1.214527 -1.326857
 31 0.000002 -1.940598 5.000000 -0.027189 -0.053376 0.005295
 32 6.551490 0.000001 -0.000000 -0.108976 0.514542 -0.152026
 33 -0.000000 -1.940599 4.999995 -0.066572 -0.152786 -0.110311
 34 0.685350 -0.474200 -1.518020 2.818067 0.786595 -0.629254
 35 6.384775 -0.000002 0.000001 0.027889 -0.199299 -0.864708
 36 10.242682 -0.000001 0.000001 -0.000000 0.000000 -2.410440
 37 11.375560 -0.000004 -0.000002 2.938118 0.240516 0.910685
 38 0.728682 0.023430 1.008291 -1.579583 -0.319038 0.212973
 39 2.136498 0.000000 -0.000000 0.000000 0.000000 1.282817
 40 2.313136 0.000000 0.000000 0.000000 0.000000 3.141593
 41 3.115508 -0.886041 0.021430 0.420766 0.316066 0.167178
 42 2.011152 -0.000001 -0.000001 -0.000000 0.000000 2.082010
 43 2.141380 0.000002 0.000001 0.000000 0.000000 3.141593
 44 1.734172 -0.000001 -0.000001 0.000000 -0.000000 1.041748
 45 0.136314 -3.738193 2.525891 1.493698 2.759406 -1.474501
 46 10.273805 -0.437103 1.198991 1.793563 0.004868 1.507198
 47 11.389366 -0.000821 0.158780 2.216281 0.278580 0.396787
 48 -0.000000 -4.440598 -0.000001 1.570144 -3.078602 0.004040
 49 6.000000 -0.000001 -0.000001 2.216281 -0.000000 -0.000000
 50 0.000001 -4.440601 0.000001 1.569944 -3.078603 0.004053
 51 10.510132 -0.000001 0.000002 0.000000 0.000000 -2.776016
 52 0.000001 -1.748399 -5.000002 -3.141593 0.004007 -1.539299
 53 5.499999 0.000001 0.000000 0.007748 -0.000000 -0.000000
 54 0.000000 0.000001 -4.999998 -0.044472 3.137590 -0.000177
 55 6.551490 -0.000000 -0.000001 -0.007748 -0.069798 -0.268636
 56 -1.266843 -1.937442 -4.950559 -0.066572 -2.988806 -0.110308
 57 6.551491 -0.000001 -0.000001 -0.007748 -0.069798 -0.268636
 58 0.699370 -1.944209 -5.006845 -0.027189 -3.088217 0.005298
 59 4.226144 -0.003201 0.000000 0.148976 0.242198 0.204292
 60 0.000002 5.000000 -0.000000 -0.153564 0.000087 2.718701
 61 0.000006 -0.000006 -3.713579 0.119535 -2.936655 -0.885276
 62 0.000001 0.000000 5.000000 3.053195 1.558589 -0.074929
 63 -0.000005 0.000005 3.713580 -0.311487 -2.845558 -0.582080
 64 0.000001 0.000000 -5.000000 -0.088726 1.558589 3.066335
 65 7.363603 1.646646 0.495663 -3.141593 -1.570796 0.000000
 66 -0.000005 0.000005 3.619082 -0.441735 -2.434423 -1.159240
 67 16.573917 -0.000000 0.000001 -0.000000 -0.000000 -2.011748
 68 15.128181 0.000000 -0.000000 0.026832 0.026147 -0.175154
 69 5.758666 4.244731 0.000000 0.000000 -0.000000 2.033309
 70 3.177727 0.000000 0.000000 0.000000 0.000000 3.141593
 71 15.708951 0.000002 -0.000000 0.013957 0.013894 -0.093781
 72 0.275148 0.189215 -3.445208 3.130898 0.000409 -1.514604
 73 17.210192 -0.000001 0.000002 -0.000000 0.000000 -2.319003
 74 0.000000 -0.000001 -5.000000 -0.079433 1.546568 -1.570857
 75 0.000007 -0.000004 -3.619079 0.260448 -2.945758 -1.468642
 76 16.573919 -0.000000 0.000001 0.000000 0.000000 -1.562392
 77 15.128181 0.000000 0.000001 0.265624 -0.173430 0.666428
 78 5.758665 4.244731 0.000000 -0.000000 0.000000 1.483530
 79 4.003934 -0.000000 0.000000 0.000000 0.000000 0.000000
 80 15.708953 0.000000 0.000000 0.195074 -0.100553 0.460486
 81 0.273998 0.191090 3.439762 -3.130907 -0.000437 -1.508107
 82 17.210196 0.000000 0.000001 -0.000000 0.000000 -2.116793
 83 0.000000 -0.000001 5.000000 -0.079311 1.595025 -1.570737
time 3
  0 0.500000 13.522099 26.931471 -0.243067 0.535714 -2.432935
  1 13.773751 5.584523 -22.520975 -0.544290 0.221328 2.303921
  2 -2.276934 0.000003 -1.238185 -1.570795 -1.570451 0.000000
  3 1.796517 0.711872 -0.000328 0.103147 -0.252927 -0.219220
  4 4.120659 -0.002558 -0.000099 0.029970 -0.007232 0.676222
  5 4.118137 -0.003244 -0.000038 0.011699 0.058122 -0.142279
  6 4.118156 -0.003241 -0.000190 0.058399 0.018733 -0.134565
  7 4.119571 -0.003280 -0.000919 0.284607 0.391623 0.398055
  8 4.443598 0.000002 -0.000001 0.277750 -0.247370 0.135387
  9 9.024061 -0.000002 0.000000 0.000000 0.000000 0.000000
 10 -0.661361 0.453215 1.537112 1.350576 -1.133964 1.273533
 11 6.384777 -0.000001 -0.000001 1.074585 2.046085 1.047427
 12 10.242685 -0.000001 0.000000 -0.000000 0.000000 -1.707817
 13 11.375561 -0.000000 0.000000 3.058413 -0.331157 -0.627424
 14 0.728680 0.023431 -1.008292 0.867878 0.712365 -0.046112
 15 2.136497 -0.000001 0.000001 -0.000000 0.000000 -0.078540
 16 2.313139 0.000001 -0.000000 0.000000 0.000000 0.000000
 17 3.115506 -0.886041 -0.021432 -0.611647 0.000152 0.191986
 18 2.011152 -0.000000 -0.000001 0.000000 -0.000000 0.659566
 19 2.141379 -0.000000 0.000002 0.000000 0.000000 0.000000
 20 1.734173 0.000001 0.000000 -0.000000 0.000000 0.330185
 21 0.000005 -4.440594 -0.000000 1.570544 -0.062990 -0.195737
 22 6.000000 -0.000000 0.000000 -2.924544 -0.000000 -0.000000
 23 0.000002 -4.440602 0.000000 1.569944 -0.062987 0.004053
 24 11.375561 0.000000 0.000003 -2.413298 -0.015499 -0.401054
 25 -0.000001 -4.440604 0.000001 1.570144 -0.062988 0.004040
 26 10.510132 -0.000001 -0.000000 0.000000 0.000000 -2.424705
 27 0.000000 -1.748400 4.999998 0.000000 0.004007 1.602291
 28 5.500002 -0.000001 0.000000 0.190436 0.000000 0.000000
 29 -0.000002 -1.940599 5.000000 -0.044472 0.004003 -0.000180
 30 6.551492 -0.000001 -0.000002 -1.193436 1.170678 -1.257282
 31 -0.000001 -1.940599 5.000001 -0.027189 -0.053376 0.005295
 32 6.551492 -0.000001 -0.000002 -0.124644 0.506978 -0.164966
 33 0.000000 -1.940600 4.999997 -0.066572 -0.152786 -0.110311
 34 0.661363 -0.446136 -1.537113 2.879347 0.821737 -0.594967
 35 6.384776 -0.000001 0.000001 0.050522 -0.200635 -0.851878
 36 10.242682 -0.000000 0.000001 -0.000000 -0.000000 -2.410372
 37 11.375559 -0.000003 -0.000000 2.933226 0.248188 0.940346
 38 0.728680 0.023431 1.008293 -1.579583 -0.319038 0.212973
 39 2.136496 -0.000002 0.000000 -0.000000 0.000000 1.282817
 40 2.313140 -0.000000 0.000000 0.000000 0.000000 3.141593
 41 3.115507 -0.886041 0.021430 0.420766 0.316066 0.167178
 42 2.011149 0.000000 -0.000000 -0.000000 0.000000 2.082010
 43 2.141380 -0.000000 0.000000 0.000000 0.000000 3.141593
 44 1.734171 -0.000001 -0.000001 -0.000000 -0.000000 1.041748
 45 0.136315 -3.738194 2.525890 1.493698 2.759406 -1.474501
 46 10.273803 -0.437102 1.198991 1.793563 0.004868 1.507198
 47 11.389365 -0.000819 0.158783 2.210923 0.285383 0.408430
 48 0.000001 -4.440599 0.000000 1.570144 -3.078602 0.004040
 49 5.999999 0.000000 0.000001 2.210923 -0.000000 0.000000
 50 0.000003 -4.440601 -0.000001 1.569944 -3.078603 0.004053
 51 10.510132 0.000001 0.000001 -0.000000 0.000000 -2.775982
 52 0.000001 -1.748401 -5.000001 3.141593 0.004007 -1.539299
 53 5.500000 0.000003 -0.000001 0.000307 0.000000 -0.000000
 54 -0.000000 -0.000001 -5.000001 -0.044472 3.137589 -0.000177
 55 6.551490 -0.000001 0.000001 -0.000306 -0.072709 -0.266891
 56 -1.266843 -1.937443 -4.950560 -0.066572 -2.988806 -0.110308
 57 6.551490 -0.000001 0.000001 -0.000306 -0.072709 -0.266891
 58 0.699369 -1.944209 -5.006845 -0.027189 -3.088217 0.005298
 59 4.226146 -0.003202 -0.000001 0.137623 0.233396 0.218158
 60 0.000002 4.999999 -0.000000 -0.153565 0.000087 2.718702
 61 0.000006 -0.000006 -3.713579 0.119535 -2.936655 -0.885276
 62 0.000001 0.000000 5.000000 3.053195 1.558589 -0.074929
 63 -0.000005 0.000005 3.713580 -0.311487 -2.845558 -0.582080
 64 0.000001 0.000000 -5.000000 -0.088726 1.558589 3.066335
 65 7.363603 1.646646 0.495663 -3.141593 -1.570796 0.000000
 66 -0.000005 0.000005 3.619082 -0.441735 -2.434423 -1.159240
 67 16.573917 -0.000000 0.000001 -0.000000 -0.000000 -2.011748
 68 15.128181 0.000000 -0.000000 0.026832 0.026147 -0.175154
 69 5.758666 4.244731 0.000000 0.000000 -0.000000 2.033309
 70 3.177727 0.000000 0.000000 0.000000 0.000000 3.141593
 71 15.708951 0.000002 -0.000000 0.013957 0.013894 -0.093781
 72 0.275148 0.189215 -3.445208 3.130898 0.000409 -1.514604
 73 17.210192 -0.000001 0.000002 -0.000000 0.000000 -2.319003
 74 0.000000 -0.000001 -5.000000 -0.079433 1.546568 -1.570857
 75 0.000007 -0.000004 -3.619079 0.260448 -2.945758 -1.468642
 76 16.573919 -0.000000 0.000001 0.000000 0.000000 -1.562392
 77 15.128181 0.000000 0.000001 0.265624 -0.173430 0.666428
 78 5.758665 4.244731 0.000000 -0.000000 0.000000 1.483530
 79 4.003934 -0.000000 0.000000 0.000000 0.000000 0.000000
 80 15.708953 0.000000 0.000000 0.195074 -0.100553 0.460486
 81 0.273998 0.191090 3.439762 -3.130907 -0.000437 -1.508107
 82 17.210196 0.000000 0.000001 -0.000000 0.000000 -2.116793
 83 0.000000 -0.000001 5.000000 -0.079311 1.595025 -1.570737
time 4
  0 0.500000 13.522099 26.931471 -0.243067 0.535714 -2.432935
  1 13.773751 5.584523 -22.520975 -0.544290 0.221328 2.303921
  2 -2.276934 0.000003 -1.238185 -1.570795 -1.570451 0.000000
  3 1.796517 0.711872 -0.000328 0.103147 -0.252927 -0.219220
  4 4.120659 -0.002558 -0.000099 0.029970 -0.007232 0.676222
  5 4.118137 -0.003244 -0.000038 0.011699 0.058122 -0.142279
  6 4.118156 -0.003241 -0.000190 0.058399 0.018733 -0.134565
  7 4.119571 -0.003280 -0.000919 0.284607 0.391623 0.398055
  8 4.443598 0.000002 -0.000001 0.277750 -0.247370 0.135387
  9 9.024061 -0.000002 0.000000 0.000000 0.000000 0.000000
 10 -0.661361 0.453215 1.537112 1.350576 -1.133964 1.273533
 11 6.384777 -0.000001 -0.000001 1.065810 2.032961 1.046648
 12 10.242683 0.000000 -0.000000 0.000000 -0.000000 -1.705223
 13 11.375562 0.000001 0.000000 3.045962 -0.333463 -0.637530
 14 0.728681 0.023432 -1.008291 0.867878 0.712366 -0.046112
 15 2.136497 -0.000001 0.000000 -0.000000 0.000000 -0.078540
 16 2.313139 0.000000 -0.000000 0.000000 0.000000 0.000000
 17 3.115506 -0.886041 -0.021431 -0.611647 0.000152 0.191986
 18 2.011150 0.000000 0.000000 0.000000 -0.000000 0.659566
 19 2.141381 -0.000001 0.000001 0.000000 0.000000 0.000000
 20 1.734171 0.000001 0.000001 0.000000 -0.000000 0.330185
 21 0.000006 -4.440593 0.000001 1.570544 -0.062990 -0.195737
 22 6.000000 0.000001 -0.000000 -2.937375 0.000000 0.000000
 23 0.000002 -4.440602 0.000000 1.569944 -0.062987 0.004053
 24 11.375561 0.000000 0.000003 -2.420130 -0.012625 -0.406550
 25 -0.000001 -4.440604 0.000001 1.570144 -0.062988 0.004040
 26 10.510131 0.000000 -0.000001 -0.000000 -0.000000 -2.423408
 27 0.000001 -1.748401 4.999999 0.000000 0.004007 1.602291
 28 5.500001 0.000000 -0.000000 0.189774 -0.000000 -0.000000
 29 -0.000001 -1.940598 5.000000 -0.044472 0.004003 -0.000180
 30 6.551492 -0.000001 -0.000002 -1.179497 1.178981 -1.228134
 31 0.000002 -1.940599 5.000002 -0.027189 -0.053376 0.005295
 32 6.551492 -0.000001 -0.000002 -0.124994 0.508038 -0.158188
 33 0.000001 -1.940600 4.999997 -0.066572 -0.152786 -0.110311
 34 0.661363 -0.446136 -1.537113 2.916279 0.832049 -0.555108
 35 6.384778 0.000001 -0.000001 0.037718 -0.206660 -0.852897
 36 10.242682 -0.000000 -0.000001 0.000000 0.000000 -2.410302
 37 11.375561 0.000000 0.000001 2.928563 0.255997 0.970027
 38 0.728680 0.023431 1.008291 -1.579583 -0.319038 0.212973
 39 2.136497 0.000001 -0.000000 -0.000000 -0.000000 1.282817
 40 2.313138 0.000000 0.000000 0.000000 0.000000 3.141593
 41 3.115505 -0.886041 0.021431 0.420765 0.316066 0.167178
 42 2.011150 0.000000 0.000001 -0.000000 0.000000 2.082010
 43 2.141379 -0.000001 0.000001 0.000000 0.000000 3.141593
 44 1.734171 -0.000000 0.000001 0.000000 0.000000 1.041748
 45 0.136315 -3.738193 2.525890 1.493698 2.759406 -1.474501
 46 10.273805 -0.437102 1.198990 1.793563 0.004868 1.507198
 47 11.389366 -0.000818 0.158782 2.205515 0.292300 0.420152
 48 -0.000001 -4.440600 0.000001 1.570144 -3.078602 0.004040
 49 5.999999 -0.000001 -0.000000 2.205515 0.000000 0.000000
 50 0.000002 -4.440601 -0.000001 1.569944 -3.078603 0.004053
 51 10.510131 -0.000002 0.000000 -0.000000 0.000000 -2.775947
 52 0.000001 -1.748400 -5.000000 -3.141593 0.004007 -1.539299
 53 5.499999 -0.000000 -0.000001 0.004955 0.000000 0.000000
 54 0.000000 -0.000001 -5.000000 -0.044472 3.137589 -0.000177
 55 6.551490 -0.000001 0.000001 -0.004955 -0.073353 -0.266911
 56 -1.266844 -1.937443 -4.950560 -0.066572 -2.988806 -0.110308
 57 6.551491 -0.000001 0.000001 -0.004955 -0.073353 -0.266911
 58 0.699372 -1.944207 -5.006848 -0.027189 -3.088217 0.005298
 59 4.226146 -0.003202 -0.000001 0.137623 0.233396 0.218158
 60 0.000002 4.999999 -0.000000 -0.153565 0.000087 2.718702
 61 0.000006 -0.000006 -3.713579 0.119535 -2.936655 -0.885276
 62 0.000001 0.000000 5.000000 3.053195 1.558589 -0.074929
 63 -0.000005 0.000005 3.713580 -0.311487 -2.845558 -0.582080
 64 0.000001 0.000000 -5.000000 -0.088726 1.558589 3.066335
 65 7.363603 1.646646 0.495663 -3.141593 -1.570796 0.000000
 66 -0.000005 0.000005 3.619082 -0.441735 -2.434423 -1.159240
 67 16.573917 -0.000000 0.000001 -0.000000 -0.000000 -2.011748
 68 15.128181 0.000000 -0.000000 0.026832 0.026147 -0.175154
 69 5.758666 4.244731 0.000000 0.000000 -0.000000 2.033309
 70 3.177727 0.000000 0.000000 0.000000 0.000000 3.141593
 71 15.708951 0.000002 -0.000000 0.013957 0.013894 -0.093781
 72 0.275148 0.189215 -3.445208 3.130898 0.000409 -1.514604
 73 17.210192 -0.000001 0.000002 -0.000000 0.000000 -2.319003
 74 0.000000 -0.000001 -5.000000 -0.079433 1.546568 -1.570857
 75 0.000007 -0.000004 -3.619079 0.260448 -2.945758 -1.468642
 76 16.573919 -0.000000 0.000001 0.000000 0.000000 -1.562392
 77 15.128181 0.000000 0.000001 0.265624 -0.173430 0.666428
 78 5.758665 4.244731 0.000000 -0.000000 0.000000 1.483530
 79 4.003934 -0.000000 0.000000 0.000000 0.000000 0.000000
 80 15.708953 0.000000 0.000000 0.195074 -0.100553 0.460486
 81 0.273998 0.191090 3.439762 -3.130907 -0.000437 -1.508107
 82 17.210196 0.000000 0.000001 -0.000000 0.000000 -2.116793
 83 0.000000 -0.000001 5.000000 -0.079311 1.595025 -1.570737
time 5
  0 0.500000 13.522099 26.931471 -0.243067 0.535714 -2.432935
  1 13.773751 5.584523 -22.520975 -0.544290 0.221328 2.303921
  2 -2.276934 0.000003 -1.238185 -1.570795 -1.570451 0.000000
  3 1.796517 0.711872 -0.000328 0.103147 -0.252927 -0.219220
  4 4.120659 -0.002558 -0.000099 0.029970 -0.007232 0.676222
  5 4.118137 -0.003244 -0.000038 0.011699 0.058122 -0.142279
  6 4.118156 -0.003241 -0.000190 0.058399 0.018733 -0.134565
  7 4.119571 -0.003280 -0.000919 0.284607 0.391623 0.398055
  8 4.443598 0.000002 -0.000001 0.277750 -0.247370 0.135387
  9 9.024061 -0.000002 0.000000 0.000000 0.000000 0.000000
 10 -0.661361 0.453215 1.537112 1.350576 -1.133964 1.273533
 11 6.384777 -0.000001 -0.000001 1.056901 2.019687 1.045547
 12 10.242682 0.000000 -0.000000 0.000000 0.000000 -1.703025
 13 11.375562 -0.000000 0.000000 3.033613 -0.336027 -0.647465
 14 0.728681 0.023431 -1.008292 0.867878 0.712365 -0.046112
 15 2.136497 -0.000000 0.000000 -0.000000 0.000000 -0.078540
 16 2.313139 0.000001 -0.000000 0.000000 0.000000 0.000000
 17 3.115507 -0.886041 -0.021431 -0.611647 0.000152 0.191986
 18 2.011150 -0.000000 -0.000001 0.000000 -0.000000 0.659566
 19 2.141379 0.000000 0.000001 0.000000 0.000000 0.000000
 20 1.734172 0.000001 -0.000001 0.000000 0.000000 0.330185
 21 0.000006 -4.440592 0.000000 1.570544 -0.062990 -0.195737
 22 6.000000 -0.000001 -0.000000 -2.950196 0.000000 0.000000
 23 0.000002 -4.440601 0.000000 1.569944 -0.062987 0.004053
 24 11.375562 0.000000 0.000003 -2.426930 -0.009868 -0.412023
 25 -0.000001 -4.440603 0.000000 1.570144 -0.062988 0.004040
 26 10.510130 0.000000 -0.000000 0.000000 -0.000000 -2.422309
 27 -0.000001 -1.748400 4.999999 -0.000000 0.004007 1.602290
 28 5.500000 0.000000 -0.000000 0.188947 -0.000000 0.000000
 29 -0.000002 -1.940599 5.000001 -0.044472 0.004003 -0.000180
 30 6.551492 -0.000001 -0.000002 -1.163537 1.187180 -1.196974
 31 0.000000 -1.940599 5.000001 -0.027189 -0.053376 0.005295
 32 6.551492 -0.000001 -0.000002 -0.125248 0.508999 -0.151248
 33 -0.000000 -1.940599 4.999996 -0.066572 -0.152786 -0.110311
 34 0.661363 -0.446136 -1.537113 2.954129 0.841350 -0.514232
 35 6.384778 -0.000002 -0.000001 0.025165 -0.213007 -0.853859
 36 10.242682 0.000002 -0.000001 -0.000000 -0.000000 -2.410233
 37 11.375560 0.000001 0.000002 2.924131 0.263937 0.999731
 38 0.728681 0.023431 1.008292 -1.579583 -0.319038 0.212973
 39 2.136496 -0.000003 0.000000 -0.000000 -0.000000 1.282817
 40 2.313141 0.000000 -0.000000 0.000000 0.000000 3.141593
 41 3.115506 -0.886041 0.021432 0.420765 0.316066 0.167178
 42 2.011151 -0.000001 -0.000001 -0.000000 0.000000 2.082010
 43 2.141381 0.000001 0.000001 0.000000 0.000000 3.141593
 44 1.734171 -0.000001 0.000000 -0.000000 -0.000000 1.041748
 45 0.136314 -3.738194 2.525890 1.493698 2.759406 -1.474501
 46 10.273805 -0.437102 1.198992 1.793563 0.004868 1.507198
 47 11.389366 -0.000819 0.158783 2.200057 0.299345 0.431972
 48 0.000001 -4.440599 0.000001 1.570144 -3.078602 0.004040
 49 5.999999 -0.000001 0.000000 2.200057 0.000000 -0.000000
 50 0.000003 -4.440601 -0.000000 1.569944 -3.078603 0.004053
 51 10.510132 0.000000 0.000001 0.000000 -0.000000 -2.775913
 52 0.000001 -1.748400 -5.000000 3.141593 0.004007 -1.539299
 53 5.500000 0.000002 -0.000001 0.009541 0.000000 0.000000
 54 -0.000000 0.000002 -5.000000 -0.044472 3.137589 -0.000177
 55 6.551492 -0.000002 -0.000001 -0.009540 -0.074107 -0.266915
 56 -1.266843 -1.937443 -4.950560 -0.066572 -2.988806 -0.110308
 57 6.551492 -0.000001 -0.000001 -0.009540 -0.074107 -0.266915
 58 0.699372 -1.944208 -5.006847 -0.027189 -3.088217 0.005298
 59 4.226146 -0.003202 -0.000001 0.137623 0.233396 0.218158
 60 0.000002 4.999999 -0.000000 -0.153565 0.000087 2.718702
 61 0.000006 -0.000006 -3.713579 0.119535 -2.936655 -0.885276
 62 0.000001 0.000000 5.000000 3.053195 1.558589 -0.074929
 63 -0.000005 0.000005 3.713580 -0.311487 -2.845558 -0.582080
 64 0.000001 0.000000 -5.000000 -0.088726 1.558589 3.066335
 65 7.363603 1.646646 0.495663 -3.141593 -1.570796 0.000000
 66 -0.000005 0.000005 3.619082 -0.441735 -2.434423 -1.159240
 67 16.573917 -0.000000 0.000001 -0.000000 -0.000000 -2.011748
 68 15.128181 0.000000 -0.000000 0.026832 0.026147 -0.175154
 69 5.758666 4.244731 0.000000 0.000000 -0.000000 2.033309
 70 3.177727 0.000000 0.000000 0.000000 0.000000 3.141593
 71 15.708951 0.000002 -0.000000 0.013957 0.013894 -0.093781
 72 0.275148 0.189215 -3.445208 3.130898 0.000409 -1.514604
 73 17.210192 -0.000001 0.000002 -0.000000 0.000000 -2.319003
 74 0.000000 -0.000001 -5.000000 -0.079433 1.546568 -1.570857
 75 0.000007 -0.000004 -3.619079 0.260448 -2.945758 -1.468642
 76 16.573919 -0.000000 0.000001 0.000000 0.000000 -1.562392
 77 15.128181 0.000000 0.000001 0.265624 -0.173430 0.666428
 78 5.758665 4.244731 0.000000 -0.000000 0.000000 1.483530
 79 4.003934 -0.000000 0.000000 0.000000 0.000000 0.000000
 80 15.708953 0.000000 0.000000 0.195074 -0.100553 0.460486
 81 0.273998 0.191090 3.439762 -3.130907 -0.000437 -1.508107
 82 17.210196 0.000000 0.000001 -0.000000 0.000000 -2.116793
 83 0.000000 -0.000001 5.000000 -0.079311 1.595025 -1.570737
end
