version 1
nodes
  0 "Bip01"  -1
  1 "Bip01 Footsteps"   0
  2 "Bip01 Pelvis"   0
  3 "Bip01 Spine"   2
  4 "Bip01 Spine1"   3
  5 "Bip01 Spine2"   4
  6 "Bip01 Spine3"   5
  7 "Bip01 Neck"   6
  8 "Bip01 Head"   7
  9 "Dummy21"   8
 10 "Bip01 L Clavicle"   7
 11 "Bip01 L UpperArm"  10
 12 "Bip01 L Forearm"  11
 13 "Bip01 L Hand"  12
 14 "Bip01 L Finger0"  13
 15 "Bip01 L Finger01"  14
 16 "Dummy06"  15
 17 "Bip01 L Finger1"  13
 18 "Bip01 L Finger11"  17
 19 "Dummy03"  18
 20 "-- L knuckle"  17
 21 "-- L knuckle_end"  20
 22 "-- L Forearm twist"  12
 23 "-- L Forearm twist_end"  22
 24 "-- L wrist"  12
 25 "-- L wrist_end"  24
 26 "-- L Elbow"  11
 27 "--L Elbow_end"  26
 28 "-- L bicep twist"  11
 29 "-- L bicep twist_end"  28
 30 "-- L shoulder outside"  10
 31 "-- L shoulder outside_end"  30
 32 "-- L Shoulder inside"  10
 33 "-- L Shoulder inside_end"  32
 34 "Bip01 R Clavicle"   7
 35 "Bip01 R UpperArm"  34
 36 "Bip01 R Forearm"  35
 37 "Bip01 R Hand"  36
 38 "Bip01 R Finger0"  37
 39 "Bip01 R Finger01"  38
 40 "Dummy01"  39
 41 "Bip01 R Finger1"  37
 42 "Bip01 R Finger11"  41
 43 "Dummy02"  42
 44 "-- R knuckle"  41
 45 "Point06"  44
 46 "Line03"  37
 47 "-- R wrist"  36
 48 "-- R wrist_end"  47
 49 "-- R forearm twist"  36
 50 "-- R forearm twist_end"  49
 51 "-- R Elbow"  35
 52 "--R Elbow_end"  51
 53 "-- R bicep twist"  35
 54 "-- R bicep twist_end"  53
 55 "-- R Shoulder inside"  34
 56 "-- R Shoulder inside_end"  55
 57 "-- R shoulder outside"  34
 58 "-- R shoulder outside_end"  57
 59 "-- Neck smooth"   6
 60 "-- neck smooth end"  59
 61 "-- R Butt"   2
 62 "--R Butt_end"  61
 63 "-- L butt"   2
 64 "--L butt_end"  63
 65 "GIGN01"   2
 66 "Bip01 L Thigh"   2
 67 "Bip01 L Calf"  66
 68 "Bip01 L Foot"  67
 69 "Bip01 L Toe0"  68
 70 "Dummy16"  69
 71 "-- L ankle"  67
 72 "-- L ankleend"  71
 73 "-- L Knee"  66
 74 "--L Knee_end"  73
 75 "Bip01 R Thigh"   2
 76 "Bip01 R Calf"  75
 77 "Bip01 R Foot"  76
 78 "Bip01 R Toe0"  77
 79 "Dummy11"  78
 80 "-- R Ankle"  76
 81 "-- R ankleend"  80
 82 "-- R Knee"  75
 83 "--R Knee_end"  82
end
skeleton
time 0
  0 0.500000 13.522099 26.931471 -0.243067 0.535714 -2.432935
  1 13.773751 5.584523 -22.520975 -0.544290 0.221328 2.303921
  2 -2.276934 0.000003 -1.238185 -1.570795 -1.570451 0.000000
  3 1.796303 0.712091 -0.001075 0.336254 -0.128378 -0.319676
  4 4.120196 -0.002766 -0.000751 0.231217 0.039606 0.531782
  5 4.117630 -0.003059 -0.000658 0.202736 0.078451 -0.291364
  6 4.118650 -0.003168 -0.000842 0.259911 0.045269 0.027042
  7 4.119366 -0.003224 -0.001242 0.358641 0.027035 0.242781
  8 4.443598 0.000000 -0.000000 0.443581 -0.263310 0.431789
  9 9.024060 0.000000 0.000000 0.000000 0.000000 0.000000
 10 -0.046838 0.611499 1.621885 1.221361 -0.963035 1.698943
 11 6.384776 -0.000001 -0.000002 -0.576583 1.411188 0.204249
 12 10.242682 -0.000001 -0.000000 0.000000 -0.000000 -2.495228
 13 11.375562 -0.000000 0.000001 -3.010330 -0.280432 0.264955
 14 0.728680 0.023429 -1.008291 0.867878 0.712365 -0.046112
 15 2.136498 -0.000000 0.000000 0.000000 0.000000 -0.078540
 16 2.313140 0.000000 -0.000000 0.000000 0.000000 0.000000
 17 3.115506 -0.886042 -0.021430 -0.611647 0.000152 0.191986
 18 2.011152 0.000001 -0.000000 -0.000000 -0.000000 0.659566
 19 2.141379 -0.000000 -0.000000 0.000000 0.000000 0.000000
 20 1.734173 0.000002 0.000000 -0.000000 -0.000000 0.330185
 21 0.000005 -4.440592 -0.000000 1.570544 -0.062990 -0.195737
 22 6.000000 0.000000 0.000001 -2.696941 0.000000 0.000000
 23 0.000001 -4.440601 -0.000000 1.569944 -0.062987 0.004053
 24 11.375561 0.000001 0.000003 -2.271846 -0.210932 0.083699
 25 0.000001 -4.440604 -0.000001 1.570144 -0.062988 0.004040
 26 10.510132 -0.000000 -0.000001 -0.000000 -0.000000 -2.818411
 27 0.000000 -1.748401 5.000000 -0.000000 0.004007 1.602291
 28 5.499999 0.000000 0.000001 0.202138 0.000000 0.000000
 29 -0.000002 -1.940598 5.000001 -0.044472 0.004003 -0.000180
 30 6.551491 -0.000001 -0.000001 -0.353221 0.983211 0.251084
 31 -0.000001 -1.940598 5.000003 -0.027189 -0.053376 0.005295
 32 6.551491 -0.000001 -0.000001 -0.167657 0.411085 0.137673
 33 0.000000 -1.940600 4.999997 -0.066572 -0.152786 -0.110311
 34 0.046840 -0.604423 -1.621886 -2.853286 1.004096 0.042457
 35 6.384776 0.000001 -0.000001 -0.033335 0.243394 -0.822023
 36 10.242682 0.000000 -0.000001 -0.000000 0.000000 -2.323086
 37 11.375562 -0.000000 -0.000002 -3.108396 0.381568 0.683262
 38 0.728680 0.023431 1.008293 -1.579583 -0.319038 0.212973
 39 2.136496 0.000003 0.000000 -0.000000 -0.000000 1.282817
 40 2.313139 -0.000001 0.000000 0.000000 0.000000 3.141593
 41 3.115506 -0.886041 0.021431 0.420766 0.316066 0.167178
 42 2.011151 -0.000000 -0.000003 -0.000000 0.000000 2.082010
 43 2.141380 -0.000001 0.000001 0.000000 0.000000 3.141593
 44 1.734172 0.000000 -0.000000 -0.000000 0.000000 1.041748
 45 0.136315 -3.738193 2.525889 1.493698 2.759406 -1.474501
 46 10.273804 -0.437100 1.198991 1.793563 0.004868 1.507198
 47 11.389367 -0.000819 0.158779 2.317429 0.343902 0.247170
 48 0.000000 -4.440599 0.000001 1.570144 -3.078602 0.004040
 49 6.000000 -0.000000 -0.000002 2.317429 -0.000000 -0.000000
 50 0.000002 -4.440600 0.000000 1.569944 -3.078603 0.004053
 51 10.510131 0.000001 -0.000001 -0.000000 0.000000 -2.732339
 52 0.000000 -1.748399 -5.000001 -3.141593 0.004007 -1.539299
 53 5.500000 0.000000 -0.000001 -0.008679 -0.000000 -0.000000
 54 -0.000000 0.000000 -5.000000 -0.044472 3.137589 -0.000177
 55 6.551490 -0.000000 0.000000 0.008679 0.085244 -0.261970
 56 -1.266843 -1.937444 -4.950559 -0.066572 -2.988806 -0.110308
 57 6.551490 -0.000000 0.000000 0.008679 0.085244 -0.261970
 58 0.699371 -1.944208 -5.006846 -0.027189 -3.088217 0.005298
 59 4.226145 -0.003202 0.000000 0.198881 0.026730 0.150322
 60 -0.000000 5.000000 0.000001 -0.153564 0.000087 2.718702
 61 0.000006 -0.000006 -3.713579 0.119535 -2.936655 -0.885276
 62 0.000001 0.000000 5.000000 3.053195 1.558589 -0.074929
 63 -0.000005 0.000005 3.713580 -0.311487 -2.845558 -0.582080
 64 0.000001 0.000000 -5.000000 -0.088726 1.558589 3.066335
 65 7.363603 1.646646 0.495663 -3.141593 -1.570796 0.000000
 66 -0.000005 0.000005 3.619082 -0.441735 -2.434423 -1.159240
 67 16.573917 -0.000000 0.000001 -0.000000 -0.000000 -2.011748
 68 15.128181 0.000000 -0.000000 0.026832 0.026147 -0.175154
 69 5.758666 4.244731 0.000000 0.000000 -0.000000 2.033309
 70 3.177727 0.000000 0.000000 0.000000 0.000000 3.141593
 71 15.708951 0.000002 -0.000000 0.013957 0.013894 -0.093781
 72 0.275148 0.189215 -3.445208 3.130898 0.000409 -1.514604
 73 17.210192 -0.000001 0.000002 -0.000000 0.000000 -2.319003
 74 0.000000 -0.000001 -5.000000 -0.079433 1.546568 -1.570857
 75 0.000007 -0.000004 -3.619079 0.260448 -2.945758 -1.468642
 76 16.573919 -0.000000 0.000001 0.000000 0.000000 -1.562392
 77 15.128181 0.000000 0.000001 0.265624 -0.173430 0.666428
 78 5.758665 4.244731 0.000000 -0.000000 0.000000 1.483530
 79 4.003934 -0.000000 0.000000 0.000000 0.000000 0.000000
 80 15.708953 0.000000 0.000000 0.195074 -0.100553 0.460486
 81 0.273998 0.191090 3.439762 -3.130907 -0.000437 -1.508107
 82 17.210196 0.000000 0.000001 -0.000000 0.000000 -2.116793
 83 0.000000 -0.000001 5.000000 -0.079311 1.595025 -1.570737
time 1
  0 0.500000 13.522099 26.931471 -0.243067 0.535714 -2.432935
  1 13.773751 5.584523 -22.520975 -0.544290 0.221328 2.303921
  2 -2.276934 0.000003 -1.238185 -1.570795 -1.570451 0.000000
  3 1.796284 0.712101 -0.001085 0.340621 -0.145634 -0.332983
  4 4.120191 -0.002767 -0.000763 0.235252 0.044087 0.532086
  5 4.117627 -0.003057 -0.000671 0.207057 0.090669 -0.290166
  6 4.118646 -0.003166 -0.000856 0.264385 0.051842 0.027577
  7 4.119552 -0.003298 -0.000860 0.245998 -0.073640 0.262062
  8 4.443600 -0.000000 0.000000 0.579997 -0.208537 0.337378
  9 9.024060 0.000000 0.000002 0.000000 0.000000 0.000000
 10 0.127483 0.424351 1.676003 1.387162 -1.078407 1.508783
 11 6.384776 0.000002 0.000002 -0.826427 1.426449 -0.043194
 12 10.242684 -0.000000 -0.000001 0.000000 0.000000 -2.464320
 13 11.375564 -0.000003 0.000002 -3.116271 -0.242163 0.254979
 14 0.728682 0.023432 -1.008293 0.867878 0.712365 -0.046112
 15 2.136498 -0.000001 0.000001 -0.000000 -0.000000 -0.078540
 16 2.313138 -0.000000 0.000000 0.000000 0.000000 0.000000
 17 3.115507 -0.886040 -0.021432 -0.611647 0.000152 0.191986
 18 2.011154 0.000002 -0.000000 -0.000000 -0.000000 0.659566
 19 2.141380 -0.000000 -0.000000 0.000000 0.000000 0.000000
 20 1.734173 -0.000000 0.000000 0.000000 0.000000 0.330185
 21 0.000004 -4.440595 -0.000000 1.570544 -0.062990 -0.195737
 22 6.000000 -0.000000 -0.000000 -2.792477 -0.000000 -0.000000
 23 0.000001 -4.440601 -0.000001 1.569944 -0.062987 0.004053
 24 11.375561 0.000000 0.000002 -2.327819 -0.194667 0.082795
 25 -0.000002 -4.440604 0.000003 1.570144 -0.062988 0.004040
 26 10.510132 0.000000 -0.000001 -0.000000 0.000000 -2.802957
 27 -0.000001 -1.748400 4.999998 -0.000000 0.004007 1.602290
 28 5.499999 0.000000 0.000002 0.215237 -0.000000 -0.000000
 29 -0.000003 -1.940598 5.000000 -0.044472 0.004003 -0.000180
 30 6.551491 0.000001 0.000001 -0.397482 1.002092 0.209091
 31 -0.000000 -1.940598 5.000003 -0.027189 -0.053376 0.005295
 32 6.551491 0.000001 0.000001 -0.177164 0.416490 0.127816
 33 -0.000000 -1.940599 4.999996 -0.066572 -0.152786 -0.110311
 34 -0.127478 -0.417275 -1.676002 -2.562677 1.077930 0.248254
 35 6.384777 -0.000001 0.000003 -0.039388 0.233657 -0.819375
 36 10.242682 0.000000 0.000001 0.000000 0.000000 -2.303144
 37 11.375560 -0.000000 -0.000000 -3.104834 0.358695 0.679583
 38 0.728680 0.023431 1.008295 -1.579583 -0.319038 0.212973
 39 2.136497 0.000000 -0.000000 -0.000000 -0.000000 1.282817
 40 2.313138 0.000001 0.000000 0.000000 0.000000 3.141593
 41 3.115506 -0.886041 0.021434 0.420765 0.316066 0.167178
 42 2.011151 0.000001 0.000003 -0.000000 0.000000 2.082010
 43 2.141379 0.000000 -0.000002 0.000000 0.000000 3.141593
 44 1.734172 -0.000001 -0.000000 -0.000000 -0.000000 1.041748
 45 0.136316 -3.738192 2.525892 1.493698 2.759406 -1.474501
 46 10.273804 -0.437102 1.198995 1.793563 0.004868 1.507198
 47 11.389366 -0.000819 0.158782 2.323780 0.333547 0.251964
 48 0.000000 -4.440598 -0.000002 1.570144 -3.078602 0.004040
 49 6.000000 0.000000 0.000002 2.323780 0.000000 -0.000000
 50 0.000001 -4.440603 0.000000 1.569944 -3.078603 0.004053
 51 10.510131 0.000001 -0.000000 -0.000000 0.000000 -2.722368
 52 -0.000001 -1.748399 -5.000002 -3.141593 0.004007 -1.539299
 53 5.500000 0.000000 0.000002 -0.005844 0.000000 -0.000000
 54 0.000000 -0.000001 -4.999999 -0.044472 3.137589 -0.000177
 55 6.551490 -0.000001 0.000003 0.005844 0.082647 -0.261882
 56 -1.266843 -1.937443 -4.950557 -0.066572 -2.988806 -0.110308
 57 6.551491 -0.000001 0.000003 0.005844 0.082647 -0.261882
 58 0.699371 -1.944207 -5.006845 -0.027189 -3.088217 0.005298
 59 4.226147 -0.003202 0.000000 0.138504 -0.035201 0.165762
 60 0.000000 5.000001 0.000000 -0.153564 0.000087 2.718702
 61 0.000006 -0.000006 -3.713579 0.119535 -2.936655 -0.885276
 62 0.000001 0.000000 5.000000 3.053195 1.558589 -0.074929
 63 -0.000005 0.000005 3.713580 -0.311487 -2.845558 -0.582080
 64 0.000001 0.000000 -5.000000 -0.088726 1.558589 3.066335
 65 7.363603 1.646646 0.495663 -3.141593 -1.570796 0.000000
 66 -0.000005 0.000005 3.619082 -0.441735 -2.434423 -1.159240
 67 16.573917 -0.000000 0.000001 -0.000000 -0.000000 -2.011748
 68 15.128181 0.000000 -0.000000 0.026832 0.026147 -0.175154
 69 5.758666 4.244731 0.000000 0.000000 -0.000000 2.033309
 70 3.177727 0.000000 0.000000 0.000000 0.000000 3.141593
 71 15.708951 0.000002 -0.000000 0.013957 0.013894 -0.093781
 72 0.275148 0.189215 -3.445208 3.130898 0.000409 -1.514604
 73 17.210192 -0.000001 0.000002 -0.000000 0.000000 -2.319003
 74 0.000000 -0.000001 -5.000000 -0.079433 1.546568 -1.570857
 75 0.000007 -0.000004 -3.619079 0.260448 -2.945758 -1.468642
 76 16.573919 -0.000000 0.000001 0.000000 0.000000 -1.562392
 77 15.128181 0.000000 0.000001 0.265624 -0.173430 0.666428
 78 5.758665 4.244731 0.000000 -0.000000 0.000000 1.483530
 79 4.003934 -0.000000 0.000000 0.000000 0.000000 0.000000
 80 15.708953 0.000000 0.000000 0.195074 -0.100553 0.460486
 81 0.273998 0.191090 3.439762 -3.130907 -0.000437 -1.508107
 82 17.210196 0.000000 0.000001 -0.000000 0.000000 -2.116793
 83 0.000000 -0.000001 5.000000 -0.079311 1.595025 -1.570737
time 2
  0 0.500000 13.522099 26.931471 -0.243067 0.535714 -2.432935
  1 13.773751 5.584523 -22.520975 -0.544290 0.221328 2.303921
  2 -2.276934 0.000003 -1.238185 -1.570795 -1.570451 0.000000
  3 1.796266 0.712110 -0.001097 0.345231 -0.162831 -0.346403
  4 4.120189 -0.002764 -0.000777 0.239289 0.048566 0.532408
  5 4.117620 -0.003050 -0.000684 0.211398 0.102882 -0.288912
  6 4.118642 -0.003164 -0.000869 0.268865 0.058412 0.028142
  7 4.119689 -0.003335 -0.000452 0.129874 -0.171587 0.292986
  8 4.443598 -0.000001 0.000000 0.709184 -0.140273 0.254251
  9 9.024061 0.000000 0.000000 0.000000 0.000000 0.000000
 10 0.295858 0.224639 1.692899 1.645554 -1.170794 1.226630
 11 6.384777 0.000001 0.000001 -1.115051 1.431203 -0.327864
 12 10.242682 -0.000000 -0.000001 -0.000000 -0.000000 -2.433420
 13 11.375562 -0.000001 0.000002 3.060766 -0.203903 0.245930
 14 0.728681 0.023432 -1.008292 0.867878 0.712365 -0.046112
 15 2.136496 0.000000 0.000000 0.000000 0.000000 -0.078540
 16 2.313139 -0.000000 0.000000 0.000000 0.000000 0.000000
 17 3.115506 -0.886038 -0.021432 -0.611647 0.000152 0.191986
 18 2.011149 -0.000002 -0.000001 -0.000000 -0.000000 0.659566
 19 2.141380 0.000000 0.000000 0.000000 0.000000 0.000000
 20 1.734171 -0.000000 -0.000001 -0.000000 -0.000000 0.330185
 21 0.000006 -4.440592 0.000001 1.570544 -0.062990 -0.195737
 22 6.000000 0.000000 0.000001 -2.890799 0.000000 0.000000
 23 0.000001 -4.440600 -0.000001 1.569944 -0.062987 0.004053
 24 11.375561 0.000000 0.000004 -2.383909 -0.178392 0.083302
 25 -0.000000 -4.440603 0.000002 1.570144 -0.062988 0.004040
 26 10.510133 -0.000000 -0.000001 0.000000 0.000000 -2.787506
 27 0.000000 -1.748401 5.000000 -0.000000 0.004007 1.602291
 28 5.500000 0.000000 -0.000000 0.228599 -0.000000 -0.000000
 29 -0.000003 -1.940598 5.000000 -0.044472 0.004003 -0.000180
 30 6.551492 0.000001 -0.000000 -0.445264 1.019979 0.163993
 31 0.000002 -1.940599 5.000001 -0.027189 -0.053376 0.005295
 32 6.551492 0.000001 -0.000000 -0.186759 0.421508 0.117909
 33 0.000000 -1.940597 4.999997 -0.066572 -0.152786 -0.110311
 34 -0.295852 -0.217566 -1.692898 -2.212472 1.114050 0.513180
 35 6.384778 0.000001 0.000001 -0.045054 0.224151 -0.816237
 36 10.242682 0.000000 -0.000002 -0.000000 0.000000 -2.283201
 37 11.375562 -0.000001 0.000003 -3.101212 0.335834 0.675848
 38 0.728681 0.023431 1.008292 -1.579583 -0.319038 0.212973
 39 2.136497 -0.000002 0.000000 -0.000000 -0.000000 1.282817
 40 2.313138 -0.000000 0.000000 0.000000 0.000000 3.141593
 41 3.115507 -0.886041 0.021433 0.420766 0.316066 0.167178
 42 2.011150 0.000002 0.000004 -0.000000 0.000000 2.082010
 43 2.141378 0.000001 -0.000001 0.000000 0.000000 3.141593
 44 1.734172 -0.000001 0.000001 -0.000000 0.000000 1.041748
 45 0.136316 -3.738194 2.525889 1.493698 2.759406 -1.474501
 46 10.273806 -0.437100 1.198996 1.793563 0.004868 1.507198
 47 11.389367 -0.000819 0.158784 2.330006 0.323098 0.256680
 48 0.000000 -4.440599 -0.000001 1.570144 -3.078602 0.004040
 49 6.000000 -0.000000 0.000001 2.330006 0.000000 -0.000000
 50 0.000002 -4.440602 0.000002 1.569944 -3.078603 0.004053
 51 10.510131 0.000000 0.000001 -0.000000 0.000000 -2.712397
 52 0.000000 -1.748400 -5.000001 -3.141593 0.004007 -1.539299
 53 5.500000 -0.000000 -0.000003 -0.003133 -0.000000 -0.000000
 54 -0.000000 -0.000000 -4.999999 -0.044472 3.137589 -0.000177
 55 6.551492 0.000000 0.000002 0.003133 0.080086 -0.261718
 56 -1.266844 -1.937444 -4.950561 -0.066572 -2.988806 -0.110308
 57 6.551492 0.000001 0.000002 0.003133 0.080086 -0.261718
 58 0.699369 -1.944208 -5.006848 -0.027189 -3.088217 0.005298
 59 4.226147 -0.003202 0.000000 0.076897 -0.094960 0.183564
 60 0.000001 4.999999 0.000001 -0.153564 0.000087 2.718701
 61 0.000006 -0.000006 -3.713579 0.119535 -2.936655 -0.885276
 62 0.000001 0.000000 5.000000 3.053195 1.558589 -0.074929
 63 -0.000005 0.000005 3.713580 -0.311487 -2.845558 -0.582080
 64 0.000001 0.000000 -5.000000 -0.088726 1.558589 3.066335
 65 7.363603 1.646646 0.495663 -3.141593 -1.570796 0.000000
 66 -0.000005 0.000005 3.619082 -0.441735 -2.434423 -1.159240
 67 16.573917 -0.000000 0.000001 -0.000000 -0.000000 -2.011748
 68 15.128181 0.000000 -0.000000 0.026832 0.026147 -0.175154
 69 5.758666 4.244731 0.000000 0.000000 -0.000000 2.033309
 70 3.177727 0.000000 0.000000 0.000000 0.000000 3.141593
 71 15.708951 0.000002 -0.000000 0.013957 0.013894 -0.093781
 72 0.275148 0.189215 -3.445208 3.130898 0.000409 -1.514604
 73 17.210192 -0.000001 0.000002 -0.000000 0.000000 -2.319003
 74 0.000000 -0.000001 -5.000000 -0.079433 1.546568 -1.570857
 75 0.000007 -0.000004 -3.619079 0.260448 -2.945758 -1.468642
 76 16.573919 -0.000000 0.000001 0.000000 0.000000 -1.562392
 77 15.128181 0.000000 0.000001 0.265624 -0.173430 0.666428
 78 5.758665 4.244731 0.000000 -0.000000 0.000000 1.483530
 79 4.003934 -0.000000 0.000000 0.000000 0.000000 0.000000
 80 15.708953 0.000000 0.000000 0.195074 -0.100553 0.460486
 81 0.273998 0.191090 3.439762 -3.130907 -0.000437 -1.508107
 82 17.210196 0.000000 0.000001 -0.000000 0.000000 -2.116793
 83 0.000000 -0.000001 5.000000 -0.079311 1.595025 -1.570737
time 3
  0 0.500000 13.522099 26.931471 -0.243067 0.535714 -2.432935
  1 13.773751 5.584523 -22.520975 -0.544290 0.221328 2.303921
  2 -2.276934 0.000003 -1.238185 -1.570795 -1.570451 0.000000
  3 1.796248 0.712119 -0.001109 0.350089 -0.179965 -0.359944
  4 4.120184 -0.002762 -0.000789 0.243328 0.053044 0.532748
  5 4.117616 -0.003046 -0.000697 0.215760 0.115089 -0.287604
  6 4.118636 -0.003158 -0.000883 0.273350 0.064979 0.028737
  7 4.119780 -0.003341 -0.000027 0.008059 -0.265295 0.336212
  8 4.443599 0.000000 -0.000000 0.831358 -0.060713 0.183299
  9 9.024060 -0.000000 0.000003 0.000000 0.000000 0.000000
 10 0.454309 0.017010 1.672048 2.017623 -1.221123 0.831073
 11 6.384777 -0.000000 -0.000001 -1.401176 1.424255 -0.608594
 12 10.242682 -0.000000 -0.000000 0.000000 -0.000000 -2.402539
 13 11.375562 -0.000001 0.000001 2.954539 -0.165836 0.237860
 14 0.728680 0.023430 -1.008292 0.867878 0.712365 -0.046112
 15 2.136498 0.000000 -0.000002 0.000000 0.000000 -0.078540
 16 2.313139 -0.000001 0.000000 0.000000 0.000000 0.000000
 17 3.115506 -0.886042 -0.021432 -0.611647 0.000152 0.191986
 18 2.011152 0.000001 0.000000 -0.000000 -0.000000 0.659566
 19 2.141379 -0.000000 -0.000001 0.000000 0.000000 0.000000
 20 1.734173 0.000002 0.000000 0.000000 -0.000000 0.330185
 21 0.000005 -4.440594 0.000000 1.570544 -0.062990 -0.195737
 22 5.999999 0.000000 0.000000 -2.992043 -0.000000 -0.000000
 23 0.000002 -4.440600 -0.000001 1.569944 -0.062987 0.004053
 24 11.375560 -0.000000 0.000003 -2.439946 -0.162385 0.085435
 25 -0.000001 -4.440603 -0.000001 1.570144 -0.062988 0.004040
 26 10.510132 0.000000 -0.000001 -0.000000 -0.000000 -2.772066
 27 0.000001 -1.748401 5.000000 0.000000 0.004007 1.602291
 28 5.500000 -0.000000 -0.000001 0.242154 0.000000 -0.000000
 29 -0.000001 -1.940598 5.000002 -0.044472 0.004003 -0.000180
 30 6.551491 -0.000000 -0.000002 -0.496570 1.036704 0.115754
 31 -0.000001 -1.940598 5.000003 -0.027189 -0.053376 0.005295
 32 6.551491 -0.000000 -0.000002 -0.196383 0.426119 0.107993
 33 0.000000 -1.940598 4.999998 -0.066572 -0.152786 -0.110311
 34 -0.454308 -0.009930 -1.672049 -1.845718 1.104254 0.793157
 35 6.384776 0.000001 -0.000003 -0.050349 0.214897 -0.812632
 36 10.242682 0.000000 0.000002 -0.000000 0.000000 -2.263258
 37 11.375562 -0.000000 -0.000001 -3.097528 0.312986 0.672054
 38 0.728681 0.023431 1.008294 -1.579583 -0.319038 0.212973
 39 2.136497 0.000000 -0.000000 -0.000000 -0.000000 1.282817
 40 2.313138 -0.000001 0.000000 0.000000 0.000000 3.141593
 41 3.115507 -0.886041 0.021433 0.420765 0.316066 0.167178
 42 2.011151 0.000001 0.000001 -0.000000 0.000000 2.082010
 43 2.141379 -0.000000 0.000001 0.000000 0.000000 3.141593
 44 1.734172 -0.000002 -0.000000 0.000000 0.000000 1.041748
 45 0.136316 -3.738193 2.525891 1.493698 2.759406 -1.474501
 46 10.273805 -0.437101 1.198992 1.793563 0.004868 1.507198
 47 11.389367 -0.000820 0.158783 2.336107 0.312554 0.261322
 48 0.000001 -4.440600 0.000002 1.570144 -3.078602 0.004040
 49 6.000000 -0.000000 0.000002 2.336107 0.000000 0.000000
 50 0.000002 -4.440602 0.000000 1.569944 -3.078603 0.004053
 51 10.510131 0.000001 0.000001 -0.000000 -0.000000 -2.702425
 52 0.000000 -1.748399 -5.000000 -3.141593 0.004007 -1.539299
 53 5.500000 0.000001 -0.000001 -0.000546 0.000000 0.000000
 54 0.000000 -0.000001 -5.000000 -0.044472 3.137589 -0.000177
 55 6.551491 -0.000000 0.000000 0.000546 0.077565 -0.261481
 56 -1.266844 -1.937443 -4.950562 -0.066572 -2.988806 -0.110308
 57 6.551492 -0.000000 0.000000 0.000546 0.077565 -0.261481
 58 0.699371 -1.944208 -5.006848 -0.027189 -3.088217 0.005298
 59 4.226147 -0.003203 0.000001 0.013861 -0.151781 0.203741
 60 0.000001 5.000000 -0.000000 -0.153564 0.000087 2.718702
 61 0.000006 -0.000006 -3.713579 0.119535 -2.936655 -0.885276
 62 0.000001 0.000000 5.000000 3.053195 1.558589 -0.074929
 63 -0.000005 0.000005 3.713580 -0.311487 -2.845558 -0.582080
 64 0.000001 0.000000 -5.000000 -0.088726 1.558589 3.066335
 65 7.363603 1.646646 0.495663 -3.141593 -1.570796 0.000000
 66 -0.000005 0.000005 3.619082 -0.441735 -2.434423 -1.159240
 67 16.573917 -0.000000 0.000001 -0.000000 -0.000000 -2.011748
 68 15.128181 0.000000 -0.000000 0.026832 0.026147 -0.175154
 69 5.758666 4.244731 0.000000 0.000000 -0.000000 2.033309
 70 3.177727 0.000000 0.000000 0.000000 0.000000 3.141593
 71 15.708951 0.000002 -0.000000 0.013957 0.013894 -0.093781
 72 0.275148 0.189215 -3.445208 3.130898 0.000409 -1.514604
 73 17.210192 -0.000001 0.000002 -0.000000 0.000000 -2.319003
 74 0.000000 -0.000001 -5.000000 -0.079433 1.546568 -1.570857
 75 0.000007 -0.000004 -3.619079 0.260448 -2.945758 -1.468642
 76 16.573919 -0.000000 0.000001 0.000000 0.000000 -1.562392
 77 15.128181 0.000000 0.000001 0.265624 -0.173430 0.666428
 78 5.758665 4.244731 0.000000 -0.000000 0.000000 1.483530
 79 4.003934 -0.000000 0.000000 0.000000 0.000000 0.000000
 80 15.708953 0.000000 0.000000 0.195074 -0.100553 0.460486
 81 0.273998 0.191090 3.439762 -3.130907 -0.000437 -1.508107
 82 17.210196 0.000000 0.000001 -0.000000 0.000000 -2.116793
 83 0.000000 -0.000001 5.000000 -0.079311 1.595025 -1.570737
time 4
  0 0.500000 13.522099 26.931471 -0.243067 0.535714 -2.432935
  1 13.773751 5.584523 -22.520975 -0.544290 0.221328 2.303921
  2 -2.276934 0.000003 -1.238185 -1.570795 -1.570451 0.000000
  3 1.796248 0.712119 -0.001109 0.350089 -0.179965 -0.359944
  4 4.120184 -0.002762 -0.000789 0.243328 0.053044 0.532748
  5 4.117616 -0.003046 -0.000697 0.215760 0.115089 -0.287604
  6 4.118636 -0.003158 -0.000883 0.273350 0.064979 0.028737
  7 4.119809 -0.003303 0.000402 -0.121594 -0.353018 0.392627
  8 4.443599 -0.000001 0.000000 0.956358 0.025563 0.121333
  9 9.024060 0.000000 0.000003 0.000000 0.000000 0.000000
 10 0.599058 -0.193678 1.613865 2.434986 -1.211074 0.390199
 11 6.384777 -0.000000 -0.000001 -1.637976 1.412046 -0.821166
 12 10.242684 0.000000 -0.000002 -0.000000 0.000000 -2.384495
 13 11.375562 -0.000002 0.000001 2.842383 -0.122670 0.237442
 14 0.728682 0.023432 -1.008292 0.867878 0.712365 -0.046112
 15 2.136496 0.000001 0.000001 0.000000 0.000000 -0.078540
 16 2.313138 0.000000 0.000000 0.000000 0.000000 0.000000
 17 3.115506 -0.886042 -0.021431 -0.611647 0.000152 0.191986
 18 2.011150 -0.000001 -0.000000 -0.000000 -0.000000 0.659566
 19 2.141381 0.000000 0.000000 0.000000 0.000000 0.000000
 20 1.734170 -0.000001 0.000000 0.000000 0.000000 0.330185
 21 0.000006 -4.440593 0.000000 1.570544 -0.062990 -0.195737
 22 6.000000 -0.000001 0.000000 -3.102597 -0.000000 0.000000
 23 0.000000 -4.440601 0.000002 1.569944 -0.062987 0.004053
 24 11.375561 -0.000000 0.000003 -2.499026 -0.146430 0.094717
 25 -0.000001 -4.440603 -0.000001 1.570144 -0.062988 0.004040
 26 10.510133 0.000000 -0.000001 0.000000 -0.000000 -2.763044
 27 0.000001 -1.748400 4.999998 -0.000000 0.004007 1.602291
 28 5.500000 0.000001 0.000000 0.255240 -0.000000 0.000000
 29 -0.000000 -1.940598 4.999999 -0.044472 0.004003 -0.000180
 30 6.551491 -0.000000 -0.000002 -0.546273 1.052356 0.075081
 31 0.000000 -1.940598 5.000004 -0.027189 -0.053376 0.005295
 32 6.551491 -0.000000 -0.000002 -0.205684 0.429760 0.101111
 33 -0.000001 -1.940598 4.999998 -0.066572 -0.152786 -0.110311
 34 -0.599053 0.200753 -1.613866 -1.519163 1.052153 1.030419
 35 6.384777 -0.000000 -0.000002 -0.050536 0.208468 -0.815974
 36 10.242682 -0.000000 -0.000001 -0.000000 0.000000 -2.243315
 37 11.375562 0.000000 -0.000002 -3.093779 0.290152 0.668200
 38 0.728681 0.023431 1.008290 -1.579583 -0.319038 0.212973
 39 2.136497 -0.000001 -0.000000 -0.000000 0.000000 1.282817
 40 2.313139 0.000002 0.000000 0.000000 0.000000 3.141593
 41 3.115507 -0.886041 0.021431 0.420765 0.316066 0.167178
 42 2.011151 0.000000 0.000001 -0.000000 0.000000 2.082010
 43 2.141380 0.000000 0.000002 0.000000 0.000000 3.141593
 44 1.734172 0.000000 0.000003 0.000000 0.000000 1.041748
 45 0.136316 -3.738192 2.525891 1.493698 2.759406 -1.474501
 46 10.273805 -0.437101 1.198992 1.793563 0.004868 1.507198
 47 11.389367 -0.000819 0.158781 2.342084 0.301912 0.265888
 48 0.000001 -4.440600 0.000002 1.570144 -3.078602 0.004040
 49 6.000000 0.000000 -0.000003 2.342084 0.000000 -0.000000
 50 0.000002 -4.440602 0.000000 1.569944 -3.078603 0.004053
 51 10.510131 0.000000 -0.000001 -0.000000 -0.000000 -2.692454
 52 -0.000000 -1.748399 -5.000003 3.141593 0.004007 -1.539299
 53 5.500000 -0.000000 0.000001 -0.000022 0.000000 0.000000
 54 -0.000000 0.000000 -5.000003 -0.044472 3.137589 -0.000177
 55 6.551492 -0.000001 0.000000 0.000022 0.075446 -0.262075
 56 -1.266844 -1.937444 -4.950560 -0.066572 -2.988806 -0.110308
 57 6.551492 -0.000001 0.000000 0.000022 0.075446 -0.262075
 58 0.699370 -1.944208 -5.006848 -0.027189 -3.088217 0.005298
 59 4.226147 -0.003203 0.000001 -0.050837 -0.205255 0.226357
 60 0.000000 5.000000 -0.000000 -0.153564 0.000087 2.718702
 61 0.000006 -0.000006 -3.713579 0.119535 -2.936655 -0.885276
 62 0.000001 0.000000 5.000000 3.053195 1.558589 -0.074929
 63 -0.000005 0.000005 3.713580 -0.311487 -2.845558 -0.582080
 64 0.000001 0.000000 -5.000000 -0.088726 1.558589 3.066335
 65 7.363603 1.646646 0.495663 -3.141593 -1.570796 0.000000
 66 -0.000005 0.000005 3.619082 -0.441735 -2.434423 -1.159240
 67 16.573917 -0.000000 0.000001 -0.000000 -0.000000 -2.011748
 68 15.128181 0.000000 -0.000000 0.026832 0.026147 -0.175154
 69 5.758666 4.244731 0.000000 0.000000 -0.000000 2.033309
 70 3.177727 0.000000 0.000000 0.000000 0.000000 3.141593
 71 15.708951 0.000002 -0.000000 0.013957 0.013894 -0.093781
 72 0.275148 0.189215 -3.445208 3.130898 0.000409 -1.514604
 73 17.210192 -0.000001 0.000002 -0.000000 0.000000 -2.319003
 74 0.000000 -0.000001 -5.000000 -0.079433 1.546568 -1.570857
 75 0.000007 -0.000004 -3.619079 0.260448 -2.945758 -1.468642
 76 16.573919 -0.000000 0.000001 0.000000 0.000000 -1.562392
 77 15.128181 0.000000 0.000001 0.265624 -0.173430 0.666428
 78 5.758665 4.244731 0.000000 -0.000000 0.000000 1.483530
 79 4.003934 -0.000000 0.000000 0.000000 0.000000 0.000000
 80 15.708953 0.000000 0.000000 0.195074 -0.100553 0.460486
 81 0.273998 0.191090 3.439762 -3.130907 -0.000437 -1.508107
 82 17.210196 0.000000 0.000001 -0.000000 0.000000 -2.116793
 83 0.000000 -0.000001 5.000000 -0.079311 1.595025 -1.570737
time 5
  0 0.500000 13.522099 26.931471 -0.243067 0.535714 -2.432935
  1 13.773751 5.584523 -22.520975 -0.544290 0.221328 2.303921
  2 -2.276934 0.000003 -1.238185 -1.570795 -1.570451 0.000000
  3 1.796248 0.712119 -0.001109 0.350089 -0.179965 -0.359944
  4 4.120184 -0.002762 -0.000789 0.243328 0.053044 0.532748
  5 4.117616 -0.003046 -0.000697 0.215760 0.115089 -0.287604
  6 4.118636 -0.003158 -0.000883 0.273350 0.064979 0.028737
  7 4.119809 -0.003303 0.000402 -0.121594 -0.353018 0.392627
  8 4.443599 -0.000001 0.000000 0.956358 0.025563 0.121333
  9 9.024060 0.000000 0.000003 0.000000 0.000000 0.000000
 10 0.599058 -0.193678 1.613865 2.434986 -1.211074 0.390199
 11 6.384777 -0.000000 -0.000001 -1.833682 1.392496 -0.992234
 12 10.242681 0.000001 -0.000000 0.000000 -0.000000 -2.366612
 13 11.375561 0.000002 -0.000000 2.730929 -0.080324 0.238458
 14 0.728682 0.023433 -1.008292 0.867878 0.712365 -0.046112
 15 2.136497 -0.000001 0.000002 0.000000 0.000000 -0.078540
 16 2.313140 0.000000 -0.000000 0.000000 0.000000 0.000000
 17 3.115507 -0.886040 -0.021431 -0.611647 0.000152 0.191986
 18 2.011152 -0.000001 -0.000001 -0.000000 0.000000 0.659566
 19 2.141378 0.000000 0.000001 0.000000 0.000000 0.000000
 20 1.734173 -0.000000 0.000000 -0.000000 -0.000000 0.330185
 21 0.000005 -4.440595 -0.000001 1.570544 -0.062990 -0.195737
 22 6.000000 0.000001 -0.000000 3.066902 0.000000 -0.000000
 23 0.000001 -4.440601 0.000000 1.569944 -0.062987 0.004053
 24 11.375562 -0.000000 0.000004 -2.557430 -0.132082 0.106676
 25 -0.000000 -4.440602 -0.000001 1.570144 -0.062988 0.004040
 26 10.510128 0.000001 -0.000001 0.000000 0.000000 -2.754102
 27 0.000002 -1.748401 5.000000 -0.000000 0.004007 1.602291
 28 5.499999 0.000000 -0.000001 0.268584 0.000000 0.000000
 29 -0.000000 -1.940598 5.000001 -0.044472 0.004003 -0.000180
 30 6.551491 -0.000000 -0.000002 -0.599583 1.066312 0.030939
 31 0.000000 -1.940598 5.000002 -0.027189 -0.053376 0.005295
 32 6.551491 -0.000000 -0.000002 -0.215073 0.432883 0.094054
 33 0.000000 -1.940598 5.000000 -0.066572 -0.152786 -0.110311
 34 -0.599053 0.200753 -1.613866 -1.498188 1.032340 1.045313
 35 6.384776 -0.000000 -0.000001 -0.050458 0.202121 -0.819114
 36 10.242682 0.000000 -0.000001 0.000000 0.000000 -2.223372
 37 11.375562 0.000000 -0.000003 -3.089964 0.267331 0.664282
 38 0.728680 0.023431 1.008289 -1.579583 -0.319038 0.212973
 39 2.136498 -0.000000 -0.000000 -0.000000 -0.000000 1.282817
 40 2.313140 0.000001 0.000000 0.000000 0.000000 3.141593
 41 3.115507 -0.886041 0.021428 0.420766 0.316066 0.167178
 42 2.011151 -0.000000 0.000000 -0.000000 0.000000 2.082010
 43 2.141381 -0.000000 0.000002 0.000000 0.000000 3.141593
 44 1.734172 -0.000000 0.000002 0.000000 0.000000 1.041748
 45 0.136315 -3.738193 2.525889 1.493698 2.759406 -1.474501
 46 10.273805 -0.437101 1.198992 1.793563 0.004868 1.507198
 47 11.389366 -0.000819 0.158780 2.347938 0.291172 0.270381
 48 0.000000 -4.440598 0.000000 1.570144 -3.078602 0.004040
 49 6.000000 0.000000 -0.000000 2.347938 -0.000000 0.000000
 50 0.000002 -4.440602 -0.000001 1.569944 -3.078603 0.004053
 51 10.510131 0.000000 -0.000001 0.000000 -0.000000 -2.682482
 52 -0.000000 -1.748399 -5.000001 -3.141593 0.004007 -1.539299
 53 5.500000 0.000000 -0.000001 0.000419 0.000000 0.000000
 54 0.000000 -0.000000 -5.000003 -0.044472 3.137589 -0.000177
 55 6.551491 -0.000000 -0.000002 -0.000419 0.073331 -0.262635
 56 -1.266844 -1.937443 -4.950560 -0.066572 -2.988806 -0.110308
 57 6.551491 -0.000000 -0.000002 -0.000419 0.073331 -0.262635
 58 0.699370 -1.944209 -5.006846 -0.027189 -3.088217 0.005298
 59 4.226147 -0.003203 0.000001 -0.050837 -0.205255 0.226357
 60 0.000000 5.000000 -0.000000 -0.153564 0.000087 2.718702
 61 0.000006 -0.000006 -3.713579 0.119535 -2.936655 -0.885276
 62 0.000001 0.000000 5.000000 3.053195 1.558589 -0.074929
 63 -0.000005 0.000005 3.713580 -0.311487 -2.845558 -0.582080
 64 0.000001 0.000000 -5.000000 -0.088726 1.558589 3.066335
 65 7.363603 1.646646 0.495663 -3.141593 -1.570796 0.000000
 66 -0.000005 0.000005 3.619082 -0.441735 -2.434423 -1.159240
 67 16.573917 -0.000000 0.000001 -0.000000 -0.000000 -2.011748
 68 15.128181 0.000000 -0.000000 0.026832 0.026147 -0.175154
 69 5.758666 4.244731 0.000000 0.000000 -0.000000 2.033309
 70 3.177727 0.000000 0.000000 0.000000 0.000000 3.141593
 71 15.708951 0.000002 -0.000000 0.013957 0.013894 -0.093781
 72 0.275148 0.189215 -3.445208 3.130898 0.000409 -1.514604
 73 17.210192 -0.000001 0.000002 -0.000000 0.000000 -2.319003
 74 0.000000 -0.000001 -5.000000 -0.079433 1.546568 -1.570857
 75 0.000007 -0.000004 -3.619079 0.260448 -2.945758 -1.468642
 76 16.573919 -0.000000 0.000001 0.000000 0.000000 -1.562392
 77 15.128181 0.000000 0.000001 0.265624 -0.173430 0.666428
 78 5.758665 4.244731 0.000000 -0.000000 0.000000 1.483530
 79 4.003934 -0.000000 0.000000 0.000000 0.000000 0.000000
 80 15.708953 0.000000 0.000000 0.195074 -0.100553 0.460486
 81 0.273998 0.191090 3.439762 -3.130907 -0.000437 -1.508107
 82 17.210196 0.000000 0.000001 -0.000000 0.000000 -2.116793
 83 0.000000 -0.000001 5.000000 -0.079311 1.595025 -1.570737
end
