version 1
nodes
  0 "Bip01"  -1
  1 "Bip01 Footsteps"   0
  2 "Bip01 Pelvis"   0
  3 "Bip01 Spine"   2
  4 "Bip01 Spine1"   3
  5 "Bip01 Spine2"   4
  6 "Bip01 Spine3"   5
  7 "Bip01 Neck"   6
  8 "Bip01 Head"   7
  9 "Dummy21"   8
 10 "Bip01 L Clavicle"   7
 11 "Bip01 L UpperArm"  10
 12 "Bip01 L Forearm"  11
 13 "Bip01 L Hand"  12
 14 "Bip01 L Finger0"  13
 15 "Bip01 L Finger01"  14
 16 "Dummy06"  15
 17 "Bip01 L Finger1"  13
 18 "Bip01 L Finger11"  17
 19 "Dummy03"  18
 20 "-- L knuckle"  17
 21 "-- L knuckle_end"  20
 22 "-- L Forearm twist"  12
 23 "-- L Forearm twist_end"  22
 24 "-- L wrist"  12
 25 "-- L wrist_end"  24
 26 "-- L Elbow"  11
 27 "--L Elbow_end"  26
 28 "-- L bicep twist"  11
 29 "-- L bicep twist_end"  28
 30 "-- L shoulder outside"  10
 31 "-- L shoulder outside_end"  30
 32 "-- L Shoulder inside"  10
 33 "-- L Shoulder inside_end"  32
 34 "Bip01 R Clavicle"   7
 35 "Bip01 R UpperArm"  34
 36 "Bip01 R Forearm"  35
 37 "Bip01 R Hand"  36
 38 "Bip01 R Finger0"  37
 39 "Bip01 R Finger01"  38
 40 "Dummy01"  39
 41 "Bip01 R Finger1"  37
 42 "Bip01 R Finger11"  41
 43 "Dummy02"  42
 44 "-- R knuckle"  41
 45 "Point06"  44
 46 "Line03"  37
 47 "-- R wrist"  36
 48 "-- R wrist_end"  47
 49 "-- R forearm twist"  36
 50 "-- R forearm twist_end"  49
 51 "-- R Elbow"  35
 52 "--R Elbow_end"  51
 53 "-- R bicep twist"  35
 54 "-- R bicep twist_end"  53
 55 "-- R Shoulder inside"  34
 56 "-- R Shoulder inside_end"  55
 57 "-- R shoulder outside"  34
 58 "-- R shoulder outside_end"  57
 59 "-- Neck smooth"   6
 60 "-- neck smooth end"  59
 61 "-- R Butt"   2
 62 "--R Butt_end"  61
 63 "-- L butt"   2
 64 "--L butt_end"  63
 65 "GIGN01"   2
 66 "Bip01 L Thigh"   2
 67 "Bip01 L Calf"  66
 68 "Bip01 L Foot"  67
 69 "Bip01 L Toe0"  68
 70 "Dummy16"  69
 71 "-- L ankle"  67
 72 "-- L ankleend"  71
 73 "-- L Knee"  66
 74 "--L Knee_end"  73
 75 "Bip01 R Thigh"   2
 76 "Bip01 R Calf"  75
 77 "Bip01 R Foot"  76
 78 "Bip01 R Toe0"  77
 79 "Dummy11"  78
 80 "-- R Ankle"  76
 81 "-- R ankleend"  80
 82 "-- R Knee"  75
 83 "--R Knee_end"  82
end
skeleton
time 0
  0 0.500000 13.522099 26.931471 -0.243067 0.535714 -2.432935
  1 13.773751 5.584523 -22.520975 -0.544290 0.221328 2.303921
  2 -2.276934 0.000003 -1.238185 -1.570795 -1.570451 0.000000
  3 1.796414 0.712080 -0.001123 0.352908 -0.144146 -0.292105
  4 4.120222 -0.002744 -0.000783 0.241295 0.033447 0.541169
  5 4.117658 -0.003064 -0.000700 0.215949 0.084599 -0.280865
  6 4.118633 -0.002920 -0.001494 0.488242 -0.243073 -0.117026
  7 4.120058 -0.003195 0.000445 -0.126780 0.117034 0.412339
  8 4.443599 0.000001 -0.000000 0.428731 -0.256882 0.452473
  9 9.024061 -0.000001 0.000002 0.000000 0.000000 0.000000
 10 -0.202324 -0.214052 1.707055 0.380946 -1.399246 2.337096
 11 6.384776 0.000000 0.000001 -0.024344 1.153814 -0.460404
 12 10.242685 0.000000 -0.000001 0.000000 -0.000000 -1.961481
 13 11.375562 -0.000002 0.000000 2.246111 -1.101894 0.217797
 14 0.728681 0.023430 -1.008292 0.867878 0.712365 -0.046112
 15 2.136496 0.000000 0.000000 -0.000000 0.000000 -0.078540
 16 2.313140 -0.000001 0.000000 0.000000 0.000000 0.000000
 17 3.115507 -0.886041 -0.021431 -0.611647 0.000152 0.191986
 18 2.011151 0.000001 0.000002 0.000000 -0.000000 0.659566
 19 2.141380 -0.000000 -0.000001 0.000000 0.000000 0.000000
 20 1.734173 0.000001 0.000000 0.000000 -0.000000 0.330185
 21 0.000006 -4.440593 0.000002 1.570544 -0.062990 -0.195737
 22 6.000000 0.000001 -0.000000 2.744499 -0.000000 0.000000
 23 0.000001 -4.440600 0.000001 1.569944 -0.062987 0.004053
 24 11.375561 -0.000000 0.000003 -2.495137 -0.550025 -0.430110
 25 -0.000001 -4.440603 -0.000000 1.570144 -0.062988 0.004040
 26 10.510132 0.000001 -0.000000 0.000000 -0.000000 -2.551537
 27 -0.000000 -1.748400 4.999999 0.000000 0.004007 1.602290
 28 5.500000 0.000001 -0.000000 -0.104549 -0.000000 0.000000
 29 -0.000002 -1.940599 5.000001 -0.044472 0.004003 -0.000180
 30 6.551491 0.000000 0.000002 0.135157 0.767569 -0.317756
 31 -0.000001 -1.940599 5.000001 -0.027189 -0.053376 0.005295
 32 6.551491 0.000000 0.000002 0.091210 0.348742 -0.147824
 33 -0.000000 -1.940599 4.999996 -0.066572 -0.152786 -0.110311
 34 0.202328 0.221131 -1.707056 -2.934440 0.787753 -0.269105
 35 6.384776 0.000000 -0.000001 -0.108184 -0.335839 -0.651662
 36 10.242682 -0.000000 0.000002 -0.000000 0.000000 -2.469802
 37 11.375562 -0.000000 -0.000001 2.668836 0.132285 0.535550
 38 0.728679 0.023431 1.008293 -1.579583 -0.319038 0.212973
 39 2.136497 0.000002 -0.000000 -0.000000 0.000000 1.282817
 40 2.313138 -0.000000 0.000000 0.000000 0.000000 3.141593
 41 3.115506 -0.886041 0.021429 0.420766 0.316066 0.167178
 42 2.011152 -0.000000 -0.000000 0.000000 0.000000 2.082010
 43 2.141381 0.000000 0.000000 0.000000 0.000000 3.141593
 44 1.734174 -0.000001 -0.000000 -0.000000 0.000000 1.041748
 45 0.136315 -3.738193 2.525890 1.493698 2.759406 -1.474501
 46 10.273804 -0.437102 1.198990 1.793563 0.004868 1.507198
 47 11.389367 -0.000820 0.158780 2.109780 0.149570 0.262639
 48 0.000000 -4.440598 -0.000000 1.570144 -3.078602 0.004040
 49 6.000001 0.000000 0.000000 2.109780 0.000000 0.000000
 50 0.000001 -4.440602 0.000002 1.569944 -3.078603 0.004053
 51 10.510133 -0.000002 0.000003 0.000000 -0.000000 -2.805697
 52 0.000000 -1.748400 -5.000000 -3.141593 0.004007 -1.539299
 53 5.500000 0.000000 0.000000 0.052636 0.000000 0.000000
 54 -0.000001 0.000001 -5.000000 -0.044472 3.137589 -0.000177
 55 6.551489 -0.000000 0.000000 -0.052636 -0.109547 -0.236471
 56 -1.266843 -1.937444 -4.950559 -0.066572 -2.988806 -0.110308
 57 6.551491 0.000001 -0.000002 -0.052636 -0.109547 -0.236471
 58 0.699371 -1.944208 -5.006848 -0.027189 -3.088217 0.005298
 59 4.226145 -0.003200 -0.000000 -0.075086 0.060721 0.249507
 60 -0.000001 5.000001 -0.000000 -0.153565 0.000087 2.718702
 61 0.000006 -0.000006 -3.713579 0.119535 -2.936655 -0.885276
 62 0.000001 0.000000 5.000000 3.053195 1.558589 -0.074929
 63 -0.000005 0.000005 3.713580 -0.311487 -2.845558 -0.582080
 64 0.000001 0.000000 -5.000000 -0.088726 1.558589 3.066335
 65 7.363603 1.646646 0.495663 -3.141593 -1.570796 0.000000
 66 -0.000005 0.000005 3.619082 -0.441735 -2.434423 -1.159240
 67 16.573917 -0.000000 0.000001 -0.000000 -0.000000 -2.011748
 68 15.128181 0.000000 -0.000000 0.026832 0.026147 -0.175154
 69 5.758666 4.244731 0.000000 0.000000 -0.000000 2.033309
 70 3.177727 0.000000 0.000000 0.000000 0.000000 3.141593
 71 15.708951 0.000002 -0.000000 0.013957 0.013894 -0.093781
 72 0.275148 0.189215 -3.445208 3.130898 0.000409 -1.514604
 73 17.210192 -0.000001 0.000002 -0.000000 0.000000 -2.319003
 74 0.000000 -0.000001 -5.000000 -0.079433 1.546568 -1.570857
 75 0.000007 -0.000004 -3.619079 0.260448 -2.945758 -1.468642
 76 16.573919 -0.000000 0.000001 0.000000 0.000000 -1.562392
 77 15.128181 0.000000 0.000001 0.265624 -0.173430 0.666428
 78 5.758665 4.244731 0.000000 -0.000000 0.000000 1.483530
 79 4.003934 -0.000000 0.000000 0.000000 0.000000 0.000000
 80 15.708953 0.000000 0.000000 0.195074 -0.100553 0.460486
 81 0.273998 0.191090 3.439762 -3.130907 -0.000437 -1.508107
 82 17.210196 0.000000 0.000001 -0.000000 0.000000 -2.116793
 83 0.000000 -0.000001 5.000000 -0.079311 1.595025 -1.570737
time 1
  0 0.500000 13.522099 26.931471 -0.243067 0.535714 -2.432935
  1 13.773751 5.584523 -22.520975 -0.544290 0.221328 2.303921
  2 -2.276934 0.000003 -1.238185 -1.570795 -1.570451 0.000000
  3 1.796359 0.712092 -0.001118 0.351697 -0.156063 -0.314686
  4 4.120208 -0.002751 -0.000786 0.241991 0.039977 0.538358
  5 4.117646 -0.003058 -0.000699 0.215909 0.094763 -0.283108
  6 4.118614 -0.002920 -0.001494 0.487384 -0.236088 -0.118124
  7 4.120337 -0.003059 0.000415 -0.117678 0.092026 0.504784
  8 4.443597 0.000000 0.000000 0.463633 -0.213736 0.347553
  9 9.024061 -0.000000 0.000001 0.000000 0.000000 0.000000
 10 -0.159234 -0.199034 1.713455 0.560553 -1.421089 2.071561
 11 6.384776 0.000001 -0.000000 -0.041347 1.152912 -0.473043
 12 10.242684 0.000000 -0.000000 -0.000000 -0.000000 -1.919373
 13 11.375561 -0.000001 -0.000000 2.220793 -1.099085 0.220756
 14 0.728681 0.023429 -1.008293 0.867878 0.712365 -0.046112
 15 2.136497 -0.000001 0.000001 -0.000000 0.000000 -0.078540
 16 2.313139 0.000000 -0.000001 0.000000 0.000000 0.000000
 17 3.115506 -0.886041 -0.021431 -0.611647 0.000152 0.191986
 18 2.011151 0.000000 0.000001 0.000000 -0.000000 0.659566
 19 2.141380 0.000000 0.000001 0.000000 0.000000 0.000000
 20 1.734172 0.000001 -0.000000 0.000000 0.000000 0.330185
 21 0.000005 -4.440593 -0.000000 1.570544 -0.062990 -0.195737
 22 6.000000 0.000001 -0.000001 2.712318 -0.000000 0.000000
 23 0.000001 -4.440603 -0.000001 1.569944 -0.062987 0.004053
 24 11.375561 -0.000000 0.000003 -2.503482 -0.549828 -0.434847
 25 -0.000001 -4.440603 0.000000 1.570144 -0.062988 0.004040
 26 10.510134 -0.000001 -0.000001 0.000000 0.000000 -2.530483
 27 -0.000000 -1.748401 4.999998 -0.000000 0.004007 1.602291
 28 5.500002 0.000000 0.000000 -0.101531 0.000000 0.000000
 29 0.000001 -1.940598 5.000000 -0.044472 0.004003 -0.000180
 30 6.551491 -0.000000 -0.000002 0.128464 0.766524 -0.322136
 31 0.000001 -1.940598 5.000000 -0.027189 -0.053376 0.005295
 32 6.551491 -0.000000 -0.000002 0.088798 0.348524 -0.149054
 33 -0.000000 -1.940599 4.999996 -0.066572 -0.152786 -0.110311
 34 0.159234 0.206114 -1.713455 -2.782840 0.836075 -0.235758
 35 6.384777 0.000000 0.000000 -0.187985 -0.356032 -0.559894
 36 10.242682 -0.000001 0.000001 -0.000000 0.000000 -2.469802
 37 11.375561 -0.000000 -0.000001 2.669512 0.121919 0.540879
 38 0.728684 0.023431 1.008288 -1.579583 -0.319038 0.212973
 39 2.136497 -0.000001 0.000000 -0.000000 -0.000000 1.282817
 40 2.313139 0.000001 0.000000 0.000000 0.000000 3.141593
 41 3.115507 -0.886041 0.021431 0.420766 0.316066 0.167178
 42 2.011152 -0.000001 -0.000001 -0.000000 -0.000000 2.082010
 43 2.141379 0.000000 0.000001 0.000000 0.000000 3.141593
 44 1.734172 -0.000001 -0.000000 0.000000 0.000000 1.041748
 45 0.136315 -3.738193 2.525889 1.493698 2.759406 -1.474501
 46 10.273805 -0.437102 1.198992 1.793563 0.004868 1.507198
 47 11.389366 -0.000820 0.158781 2.110867 0.144961 0.267017
 48 0.000000 -4.440600 -0.000001 1.570144 -3.078602 0.004040
 49 6.000000 0.000001 0.000001 2.110866 -0.000000 -0.000000
 50 0.000002 -4.440601 -0.000000 1.569944 -3.078603 0.004053
 51 10.510132 -0.000002 0.000003 0.000000 -0.000000 -2.805697
 52 0.000001 -1.748398 -5.000001 -3.141593 0.004007 -1.539299
 53 5.500000 0.000000 -0.000001 0.073954 0.000000 -0.000000
 54 0.000000 -0.000001 -5.000000 -0.044472 3.137589 -0.000177
 55 6.551491 0.000001 -0.000001 -0.073954 -0.116835 -0.222158
 56 -1.266843 -1.937442 -4.950561 -0.066572 -2.988806 -0.110308
 57 6.551491 0.000001 -0.000001 -0.073954 -0.116835 -0.222158
 58 0.699370 -1.944207 -5.006847 -0.027189 -3.088217 0.005298
 59 4.226145 -0.003202 0.000000 -0.069999 0.044917 0.297643
 60 -0.000001 5.000001 -0.000001 -0.153564 0.000087 2.718702
 61 0.000006 -0.000006 -3.713579 0.119535 -2.936655 -0.885276
 62 0.000001 0.000000 5.000000 3.053195 1.558589 -0.074929
 63 -0.000005 0.000005 3.713580 -0.311487 -2.845558 -0.582080
 64 0.000001 0.000000 -5.000000 -0.088726 1.558589 3.066335
 65 7.363603 1.646646 0.495663 -3.141593 -1.570796 0.000000
 66 -0.000005 0.000005 3.619082 -0.441735 -2.434423 -1.159240
 67 16.573917 -0.000000 0.000001 -0.000000 -0.000000 -2.011748
 68 15.128181 0.000000 -0.000000 0.026832 0.026147 -0.175154
 69 5.758666 4.244731 0.000000 0.000000 -0.000000 2.033309
 70 3.177727 0.000000 0.000000 0.000000 0.000000 3.141593
 71 15.708951 0.000002 -0.000000 0.013957 0.013894 -0.093781
 72 0.275148 0.189215 -3.445208 3.130898 0.000409 -1.514604
 73 17.210192 -0.000001 0.000002 -0.000000 0.000000 -2.319003
 74 0.000000 -0.000001 -5.000000 -0.079433 1.546568 -1.570857
 75 0.000007 -0.000004 -3.619079 0.260448 -2.945758 -1.468642
 76 16.573919 -0.000000 0.000001 0.000000 0.000000 -1.562392
 77 15.128181 0.000000 0.000001 0.265624 -0.173430 0.666428
 78 5.758665 4.244731 0.000000 -0.000000 0.000000 1.483530
 79 4.003934 -0.000000 0.000000 0.000000 0.000000 0.000000
 80 15.708953 0.000000 0.000000 0.195074 -0.100553 0.460486
 81 0.273998 0.191090 3.439762 -3.130907 -0.000437 -1.508107
 82 17.210196 0.000000 0.000001 -0.000000 0.000000 -2.116793
 83 0.000000 -0.000001 5.000000 -0.079311 1.595025 -1.570737
time 2
  0 0.500000 13.522099 26.931471 -0.243067 0.535714 -2.432935
  1 13.773751 5.584523 -22.520975 -0.544290 0.221328 2.303921
  2 -2.276934 0.000003 -1.238185 -1.570795 -1.570451 0.000000
  3 1.796302 0.712105 -0.001113 0.350757 -0.168005 -0.337297
  4 4.120196 -0.002757 -0.000787 0.242669 0.046509 0.535551
  5 4.117631 -0.003052 -0.000698 0.215846 0.104926 -0.285355
  6 4.118603 -0.002921 -0.001494 0.486520 -0.229105 -0.119227
  7 4.120602 -0.002896 0.000392 -0.110979 0.066233 0.596816
  8 4.443598 0.000000 0.000000 0.493802 -0.167934 0.244974
  9 9.024061 -0.000000 -0.000001 0.000000 0.000000 0.000000
 10 -0.114682 -0.187944 1.718284 0.797716 -1.433727 1.748587
 11 6.384776 -0.000000 0.000001 -0.059518 1.149274 -0.483000
 12 10.242682 0.000001 -0.000001 -0.000000 0.000000 -1.876667
 13 11.375561 -0.000002 -0.000001 2.189296 -1.092084 0.227765
 14 0.728680 0.023432 -1.008292 0.867878 0.712365 -0.046112
 15 2.136497 -0.000000 0.000000 -0.000000 0.000000 -0.078540
 16 2.313139 -0.000001 -0.000000 0.000000 0.000000 0.000000
 17 3.115506 -0.886040 -0.021431 -0.611647 0.000152 0.191986
 18 2.011150 -0.000000 -0.000000 -0.000000 -0.000000 0.659566
 19 2.141378 0.000000 -0.000000 0.000000 0.000000 0.000000
 20 1.734172 0.000001 0.000000 0.000000 0.000000 0.330185
 21 0.000004 -4.440594 0.000001 1.570544 -0.062990 -0.195737
 22 6.000000 0.000000 -0.000001 2.670342 -0.000000 0.000000
 23 0.000001 -4.440599 0.000000 1.569944 -0.062987 0.004053
 24 11.375561 -0.000000 0.000001 -2.514830 -0.549411 -0.437854
 25 -0.000001 -4.440605 0.000001 1.570144 -0.062988 0.004040
 26 10.510129 0.000001 -0.000001 -0.000000 -0.000000 -2.509130
 27 0.000001 -1.748401 4.999999 0.000000 0.004007 1.602291
 28 5.500000 -0.000000 -0.000001 -0.097540 -0.000000 0.000000
 29 -0.000002 -1.940598 5.000000 -0.044472 0.004003 -0.000180
 30 6.551491 -0.000001 -0.000001 0.120208 0.763055 -0.325777
 31 0.000001 -1.940598 5.000002 -0.027189 -0.053376 0.005295
 32 6.551491 -0.000001 -0.000001 0.085577 0.347508 -0.149963
 33 0.000000 -1.940599 4.999996 -0.066572 -0.152786 -0.110311
 34 0.114684 0.195021 -1.718285 -2.620967 0.869498 -0.190577
 35 6.384774 -0.000000 0.000001 -0.266205 -0.369025 -0.463646
 36 10.242682 0.000001 0.000002 -0.000000 0.000000 -2.469802
 37 11.375561 0.000000 -0.000001 2.670131 0.111550 0.546195
 38 0.728681 0.023431 1.008291 -1.579583 -0.319038 0.212973
 39 2.136496 -0.000002 0.000000 0.000000 0.000000 1.282817
 40 2.313140 0.000000 -0.000000 0.000000 0.000000 3.141593
 41 3.115507 -0.886041 0.021429 0.420765 0.316066 0.167178
 42 2.011151 0.000001 -0.000000 -0.000000 -0.000000 2.082010
 43 2.141380 0.000001 0.000001 0.000000 0.000000 3.141593
 44 1.734175 -0.000001 -0.000002 0.000000 0.000000 1.041748
 45 0.136315 -3.738194 2.525890 1.493698 2.759406 -1.474501
 46 10.273805 -0.437101 1.198991 1.793563 0.004868 1.507198
 47 11.389366 -0.000819 0.158780 2.111924 0.140348 0.271368
 48 0.000000 -4.440600 0.000001 1.570144 -3.078602 0.004040
 49 6.000000 0.000002 -0.000000 2.111924 0.000000 -0.000000
 50 0.000002 -4.440601 0.000003 1.569944 -3.078603 0.004053
 51 10.510131 -0.000000 0.000004 0.000000 -0.000000 -2.805697
 52 0.000001 -1.748399 -5.000000 -3.141593 0.004007 -1.539299
 53 5.500000 0.000002 0.000000 0.094180 0.000000 -0.000000
 54 -0.000000 0.000000 -5.000001 -0.044472 3.137589 -0.000177
 55 6.551489 0.000000 -0.000001 -0.094180 -0.125295 -0.205332
 56 -1.266842 -1.937442 -4.950558 -0.066572 -2.988806 -0.110308
 57 6.551489 0.000000 -0.000001 -0.094180 -0.125295 -0.205332
 58 0.699371 -1.944206 -5.006849 -0.027189 -3.088217 0.005298
 59 4.226144 -0.003202 0.000001 -0.065725 0.029010 0.343598
 60 -0.000000 5.000001 0.000000 -0.153564 0.000087 2.718702
 61 0.000006 -0.000006 -3.713579 0.119535 -2.936655 -0.885276
 62 0.000001 0.000000 5.000000 3.053195 1.558589 -0.074929
 63 -0.000005 0.000005 3.713580 -0.311487 -2.845558 -0.582080
 64 0.000001 0.000000 -5.000000 -0.088726 1.558589 3.066335
 65 7.363603 1.646646 0.495663 -3.141593 -1.570796 0.000000
 66 -0.000005 0.000005 3.619082 -0.441735 -2.434423 -1.159240
 67 16.573917 -0.000000 0.000001 -0.000000 -0.000000 -2.011748
 68 15.128181 0.000000 -0.000000 0.026832 0.026147 -0.175154
 69 5.758666 4.244731 0.000000 0.000000 -0.000000 2.033309
 70 3.177727 0.000000 0.000000 0.000000 0.000000 3.141593
 71 15.708951 0.000002 -0.000000 0.013957 0.013894 -0.093781
 72 0.275148 0.189215 -3.445208 3.130898 0.000409 -1.514604
 73 17.210192 -0.000001 0.000002 -0.000000 0.000000 -2.319003
 74 0.000000 -0.000001 -5.000000 -0.079433 1.546568 -1.570857
 75 0.000007 -0.000004 -3.619079 0.260448 -2.945758 -1.468642
 76 16.573919 -0.000000 0.000001 0.000000 0.000000 -1.562392
 77 15.128181 0.000000 0.000001 0.265624 -0.173430 0.666428
 78 5.758665 4.244731 0.000000 -0.000000 0.000000 1.483530
 79 4.003934 -0.000000 0.000000 0.000000 0.000000 0.000000
 80 15.708953 0.000000 0.000000 0.195074 -0.100553 0.460486
 81 0.273998 0.191090 3.439762 -3.130907 -0.000437 -1.508107
 82 17.210196 0.000000 0.000001 -0.000000 0.000000 -2.116793
 83 0.000000 -0.000001 5.000000 -0.079311 1.595025 -1.570737
time 3
  0 0.500000 13.522099 26.931471 -0.243067 0.535714 -2.432935
  1 13.773751 5.584523 -22.520975 -0.544290 0.221328 2.303921
  2 -2.276934 0.000003 -1.238185 -1.570795 -1.570451 0.000000
  3 1.796248 0.712120 -0.001108 0.350089 -0.179965 -0.359944
  4 4.120183 -0.002763 -0.000789 0.243328 0.053044 0.532748
  5 4.117616 -0.003046 -0.000697 0.215760 0.115089 -0.287604
  6 4.118591 -0.002921 -0.001493 0.485650 -0.222122 -0.120333
  7 4.120853 -0.002708 0.000377 -0.106741 0.039874 0.688555
  8 4.443599 -0.000001 -0.000001 0.519296 -0.119956 0.144381
  9 9.024061 -0.000000 0.000002 0.000000 0.000000 0.000000
 10 -0.069075 -0.180921 1.721489 1.063540 -1.434435 1.396997
 11 6.384778 -0.000001 -0.000002 -0.076778 1.142977 -0.488665
 12 10.242683 -0.000001 0.000000 0.000000 -0.000000 -1.834031
 13 11.375561 -0.000000 -0.000000 2.153112 -1.081102 0.237535
 14 0.728680 0.023432 -1.008292 0.867878 0.712365 -0.046112
 15 2.136497 -0.000001 0.000000 -0.000000 0.000000 -0.078540
 16 2.313140 -0.000000 0.000001 0.000000 0.000000 0.000000
 17 3.115507 -0.886040 -0.021432 -0.611647 0.000152 0.191986
 18 2.011151 0.000000 0.000001 0.000000 -0.000000 0.659566
 19 2.141380 -0.000000 -0.000001 0.000000 0.000000 0.000000
 20 1.734172 0.000001 0.000001 -0.000000 -0.000000 0.330185
 21 0.000006 -4.440593 0.000000 1.570544 -0.062990 -0.195737
 22 6.000000 0.000001 -0.000000 2.619832 0.000000 0.000000
 23 0.000001 -4.440602 0.000000 1.569944 -0.062987 0.004053
 24 11.375561 0.000000 0.000003 -2.528881 -0.548681 -0.439341
 25 -0.000001 -4.440604 -0.000000 1.570144 -0.062988 0.004040
 26 10.510132 -0.000001 -0.000001 0.000000 -0.000000 -2.487812
 27 -0.000001 -1.748399 5.000000 0.000000 0.004007 1.602291
 28 5.500000 -0.000000 -0.000000 -0.092848 -0.000000 0.000000
 29 -0.000000 -1.940599 5.000000 -0.044472 0.004003 -0.000180
 30 6.551492 0.000000 -0.000001 0.111061 0.757203 -0.328134
 31 -0.000000 -1.940599 5.000001 -0.027189 -0.053376 0.005295
 32 6.551492 0.000000 -0.000001 0.081760 0.345684 -0.150395
 33 -0.000000 -1.940598 4.999998 -0.066572 -0.152786 -0.110311
 34 0.069076 0.187997 -1.721490 -2.453800 0.886676 -0.138773
 35 6.384777 0.000000 -0.000002 -0.341671 -0.374835 -0.363940
 36 10.242682 -0.000000 0.000001 -0.000000 0.000000 -2.469802
 37 11.375562 -0.000001 0.000000 2.670694 0.101179 0.551499
 38 0.728680 0.023431 1.008292 -1.579583 -0.319038 0.212973
 39 2.136496 -0.000003 0.000000 -0.000000 0.000000 1.282817
 40 2.313142 0.000000 -0.000000 0.000000 0.000000 3.141593
 41 3.115505 -0.886041 0.021433 0.420765 0.316066 0.167178
 42 2.011150 0.000001 0.000000 -0.000000 -0.000000 2.082010
 43 2.141380 0.000001 0.000001 0.000000 0.000000 3.141593
 44 1.734173 -0.000001 -0.000001 -0.000000 0.000000 1.041748
 45 0.136315 -3.738193 2.525891 1.493698 2.759406 -1.474501
 46 10.273803 -0.437102 1.198994 1.793563 0.004868 1.507198
 47 11.389366 -0.000820 0.158781 2.112952 0.135732 0.275692
 48 0.000000 -4.440599 0.000001 1.570144 -3.078602 0.004040
 49 6.000000 0.000000 0.000001 2.112952 0.000000 -0.000000
 50 0.000002 -4.440601 0.000000 1.569944 -3.078603 0.004053
 51 10.510132 -0.000001 0.000003 0.000000 -0.000000 -2.805697
 52 0.000000 -1.748399 -5.000001 -3.141593 0.004007 -1.539299
 53 5.500000 0.000001 -0.000000 0.113889 0.000000 0.000000
 54 -0.000001 -0.000000 -5.000001 -0.044472 3.137590 -0.000177
 55 6.551491 -0.000000 -0.000001 -0.113889 -0.135221 -0.184720
 56 -1.266843 -1.937443 -4.950560 -0.066572 -2.988806 -0.110308
 57 6.551491 -0.000000 -0.000001 -0.113889 -0.135221 -0.184720
 58 0.699371 -1.944206 -5.006849 -0.027189 -3.088217 0.005298
 59 4.226147 -0.003201 0.000000 -0.062233 0.012993 0.388071
 60 -0.000001 5.000000 -0.000000 -0.153564 0.000087 2.718702
 61 0.000006 -0.000006 -3.713579 0.119535 -2.936655 -0.885276
 62 0.000001 0.000000 5.000000 3.053195 1.558589 -0.074929
 63 -0.000005 0.000005 3.713580 -0.311487 -2.845558 -0.582080
 64 0.000001 0.000000 -5.000000 -0.088726 1.558589 3.066335
 65 7.363603 1.646646 0.495663 -3.141593 -1.570796 0.000000
 66 -0.000005 0.000005 3.619082 -0.441735 -2.434423 -1.159240
 67 16.573917 -0.000000 0.000001 -0.000000 -0.000000 -2.011748
 68 15.128181 0.000000 -0.000000 0.026832 0.026147 -0.175154
 69 5.758666 4.244731 0.000000 0.000000 -0.000000 2.033309
 70 3.177727 0.000000 0.000000 0.000000 0.000000 3.141593
 71 15.708951 0.000002 -0.000000 0.013957 0.013894 -0.093781
 72 0.275148 0.189215 -3.445208 3.130898 0.000409 -1.514604
 73 17.210192 -0.000001 0.000002 -0.000000 0.000000 -2.319003
 74 0.000000 -0.000001 -5.000000 -0.079433 1.546568 -1.570857
 75 0.000007 -0.000004 -3.619079 0.260448 -2.945758 -1.468642
 76 16.573919 -0.000000 0.000001 0.000000 0.000000 -1.562392
 77 15.128181 0.000000 0.000001 0.265624 -0.173430 0.666428
 78 5.758665 4.244731 0.000000 -0.000000 0.000000 1.483530
 79 4.003934 -0.000000 0.000000 0.000000 0.000000 0.000000
 80 15.708953 0.000000 0.000000 0.195074 -0.100553 0.460486
 81 0.273998 0.191090 3.439762 -3.130907 -0.000437 -1.508107
 82 17.210196 0.000000 0.000001 -0.000000 0.000000 -2.116793
 83 0.000000 -0.000001 5.000000 -0.079311 1.595025 -1.570737
time 4
  0 0.500000 13.522099 26.931471 -0.243067 0.535714 -2.432935
  1 13.773751 5.584523 -22.520975 -0.544290 0.221328 2.303921
  2 -2.276934 0.000003 -1.238185 -1.570795 -1.570451 0.000000
  3 1.796248 0.712120 -0.001108 0.350089 -0.179965 -0.359944
  4 4.120183 -0.002763 -0.000789 0.243328 0.053044 0.532748
  5 4.117616 -0.003046 -0.000697 0.215760 0.115089 -0.287604
  6 4.118591 -0.002921 -0.001493 0.485650 -0.222122 -0.120333
  7 4.120853 -0.002708 0.000377 -0.106741 0.039874 0.688555
  8 4.443599 -0.000001 -0.000001 0.519296 -0.119956 0.144381
  9 9.024061 -0.000000 0.000002 0.000000 0.000000 0.000000
 10 -0.069075 -0.180921 1.721489 1.063540 -1.434435 1.396997
 11 6.384778 -0.000001 -0.000002 -0.076778 1.142977 -0.488665
 12 10.242683 -0.000001 0.000000 0.000000 -0.000000 -1.834031
 13 11.375561 -0.000000 -0.000000 2.153112 -1.081102 0.237535
 14 0.728680 0.023432 -1.008292 0.867878 0.712365 -0.046112
 15 2.136497 -0.000001 0.000000 -0.000000 0.000000 -0.078540
 16 2.313140 -0.000000 0.000001 0.000000 0.000000 0.000000
 17 3.115507 -0.886040 -0.021432 -0.611647 0.000152 0.191986
 18 2.011151 0.000000 0.000001 0.000000 -0.000000 0.659566
 19 2.141380 -0.000000 -0.000001 0.000000 0.000000 0.000000
 20 1.734172 0.000001 0.000001 -0.000000 -0.000000 0.330185
 21 0.000006 -4.440593 0.000000 1.570544 -0.062990 -0.195737
 22 6.000000 0.000001 -0.000000 2.619832 0.000000 0.000000
 23 0.000001 -4.440602 0.000000 1.569944 -0.062987 0.004053
 24 11.375561 0.000000 0.000003 -2.528881 -0.548681 -0.439341
 25 -0.000001 -4.440604 -0.000000 1.570144 -0.062988 0.004040
 26 10.510132 -0.000001 -0.000001 0.000000 -0.000000 -2.487812
 27 -0.000001 -1.748399 5.000000 0.000000 0.004007 1.602291
 28 5.500000 -0.000000 -0.000000 -0.092848 -0.000000 0.000000
 29 -0.000000 -1.940599 5.000000 -0.044472 0.004003 -0.000180
 30 6.551492 0.000000 -0.000001 0.111061 0.757203 -0.328134
 31 -0.000000 -1.940599 5.000001 -0.027189 -0.053376 0.005295
 32 6.551492 0.000000 -0.000001 0.081760 0.345684 -0.150395
 33 -0.000000 -1.940598 4.999998 -0.066572 -0.152786 -0.110311
 34 0.069076 0.187997 -1.721490 -2.453800 0.886676 -0.138773
 35 6.384777 0.000000 -0.000002 -0.341671 -0.374835 -0.363940
 36 10.242682 -0.000000 0.000001 -0.000000 0.000000 -2.469802
 37 11.375562 -0.000001 0.000000 2.670694 0.101179 0.551499
 38 0.728680 0.023431 1.008292 -1.579583 -0.319038 0.212973
 39 2.136496 -0.000003 0.000000 -0.000000 0.000000 1.282817
 40 2.313142 0.000000 -0.000000 0.000000 0.000000 3.141593
 41 3.115505 -0.886041 0.021433 0.420765 0.316066 0.167178
 42 2.011150 0.000001 0.000000 -0.000000 -0.000000 2.082010
 43 2.141380 0.000001 0.000001 0.000000 0.000000 3.141593
 44 1.734173 -0.000001 -0.000001 -0.000000 0.000000 1.041748
 45 0.136315 -3.738193 2.525891 1.493698 2.759406 -1.474501
 46 10.273803 -0.437102 1.198994 1.793563 0.004868 1.507198
 47 11.389366 -0.000820 0.158781 2.112952 0.135732 0.275692
 48 0.000000 -4.440599 0.000001 1.570144 -3.078602 0.004040
 49 6.000000 0.000000 0.000001 2.112952 0.000000 -0.000000
 50 0.000002 -4.440601 0.000000 1.569944 -3.078603 0.004053
 51 10.510132 -0.000001 0.000003 0.000000 -0.000000 -2.805697
 52 0.000000 -1.748399 -5.000001 -3.141593 0.004007 -1.539299
 53 5.500000 0.000001 -0.000000 0.113889 0.000000 0.000000
 54 -0.000001 -0.000000 -5.000001 -0.044472 3.137590 -0.000177
 55 6.551491 -0.000000 -0.000001 -0.113889 -0.135221 -0.184720
 56 -1.266843 -1.937443 -4.950560 -0.066572 -2.988806 -0.110308
 57 6.551491 -0.000000 -0.000001 -0.113889 -0.135221 -0.184720
 58 0.699371 -1.944206 -5.006849 -0.027189 -3.088217 0.005298
 59 4.226147 -0.003201 0.000000 -0.062233 0.012993 0.388071
 60 -0.000001 5.000000 -0.000000 -0.153564 0.000087 2.718702
 61 0.000006 -0.000006 -3.713579 0.119535 -2.936655 -0.885276
 62 0.000001 0.000000 5.000000 3.053195 1.558589 -0.074929
 63 -0.000005 0.000005 3.713580 -0.311487 -2.845558 -0.582080
 64 0.000001 0.000000 -5.000000 -0.088726 1.558589 3.066335
 65 7.363603 1.646646 0.495663 -3.141593 -1.570796 0.000000
 66 -0.000005 0.000005 3.619082 -0.441735 -2.434423 -1.159240
 67 16.573917 -0.000000 0.000001 -0.000000 -0.000000 -2.011748
 68 15.128181 0.000000 -0.000000 0.026832 0.026147 -0.175154
 69 5.758666 4.244731 0.000000 0.000000 -0.000000 2.033309
 70 3.177727 0.000000 0.000000 0.000000 0.000000 3.141593
 71 15.708951 0.000002 -0.000000 0.013957 0.013894 -0.093781
 72 0.275148 0.189215 -3.445208 3.130898 0.000409 -1.514604
 73 17.210192 -0.000001 0.000002 -0.000000 0.000000 -2.319003
 74 0.000000 -0.000001 -5.000000 -0.079433 1.546568 -1.570857
 75 0.000007 -0.000004 -3.619079 0.260448 -2.945758 -1.468642
 76 16.573919 -0.000000 0.000001 0.000000 0.000000 -1.562392
 77 15.128181 0.000000 0.000001 0.265624 -0.173430 0.666428
 78 5.758665 4.244731 0.000000 -0.000000 0.000000 1.483530
 79 4.003934 -0.000000 0.000000 0.000000 0.000000 0.000000
 80 15.708953 0.000000 0.000000 0.195074 -0.100553 0.460486
 81 0.273998 0.191090 3.439762 -3.130907 -0.000437 -1.508107
 82 17.210196 0.000000 0.000001 -0.000000 0.000000 -2.116793
 83 0.000000 -0.000001 5.000000 -0.079311 1.595025 -1.570737
time 5
  0 0.500000 13.522099 26.931471 -0.243067 0.535714 -2.432935
  1 13.773751 5.584523 -22.520975 -0.544290 0.221328 2.303921
  2 -2.276934 0.000003 -1.238185 -1.570795 -1.570451 0.000000
  3 1.796248 0.712120 -0.001108 0.350089 -0.179965 -0.359944
  4 4.120183 -0.002763 -0.000789 0.243328 0.053044 0.532748
  5 4.117616 -0.003046 -0.000697 0.215760 0.115089 -0.287604
  6 4.118591 -0.002921 -0.001493 0.485650 -0.222122 -0.120333
  7 4.120853 -0.002708 0.000377 -0.106741 0.039874 0.688555
  8 4.443599 -0.000001 -0.000001 0.519296 -0.119956 0.144381
  9 9.024061 -0.000000 0.000002 0.000000 0.000000 0.000000
 10 -0.069075 -0.180921 1.721489 1.063540 -1.434435 1.396997
 11 6.384778 -0.000001 -0.000002 -0.076778 1.142977 -0.488665
 12 10.242683 -0.000001 0.000000 0.000000 -0.000000 -1.834031
 13 11.375561 -0.000000 -0.000000 2.153112 -1.081102 0.237535
 14 0.728680 0.023432 -1.008292 0.867878 0.712365 -0.046112
 15 2.136497 -0.000001 0.000000 -0.000000 0.000000 -0.078540
 16 2.313140 -0.000000 0.000001 0.000000 0.000000 0.000000
 17 3.115507 -0.886040 -0.021432 -0.611647 0.000152 0.191986
 18 2.011151 0.000000 0.000001 0.000000 -0.000000 0.659566
 19 2.141380 -0.000000 -0.000001 0.000000 0.000000 0.000000
 20 1.734172 0.000001 0.000001 -0.000000 -0.000000 0.330185
 21 0.000006 -4.440593 0.000000 1.570544 -0.062990 -0.195737
 22 6.000000 0.000001 -0.000000 2.619832 0.000000 0.000000
 23 0.000001 -4.440602 0.000000 1.569944 -0.062987 0.004053
 24 11.375561 0.000000 0.000003 -2.528881 -0.548681 -0.439341
 25 -0.000001 -4.440604 -0.000000 1.570144 -0.062988 0.004040
 26 10.510132 -0.000001 -0.000001 0.000000 -0.000000 -2.487812
 27 -0.000001 -1.748399 5.000000 0.000000 0.004007 1.602291
 28 5.500000 -0.000000 -0.000000 -0.092848 -0.000000 0.000000
 29 -0.000000 -1.940599 5.000000 -0.044472 0.004003 -0.000180
 30 6.551492 0.000000 -0.000001 0.111061 0.757203 -0.328134
 31 -0.000000 -1.940599 5.000001 -0.027189 -0.053376 0.005295
 32 6.551492 0.000000 -0.000001 0.081760 0.345684 -0.150395
 33 -0.000000 -1.940598 4.999998 -0.066572 -0.152786 -0.110311
 34 0.069076 0.187997 -1.721490 -2.453800 0.886676 -0.138773
 35 6.384777 0.000000 -0.000002 -0.341671 -0.374835 -0.363940
 36 10.242682 -0.000000 0.000001 -0.000000 0.000000 -2.469802
 37 11.375562 -0.000001 0.000000 2.670694 0.101179 0.551499
 38 0.728680 0.023431 1.008292 -1.579583 -0.319038 0.212973
 39 2.136496 -0.000003 0.000000 -0.000000 0.000000 1.282817
 40 2.313142 0.000000 -0.000000 0.000000 0.000000 3.141593
 41 3.115505 -0.886041 0.021433 0.420765 0.316066 0.167178
 42 2.011150 0.000001 0.000000 -0.000000 -0.000000 2.082010
 43 2.141380 0.000001 0.000001 0.000000 0.000000 3.141593
 44 1.734173 -0.000001 -0.000001 -0.000000 0.000000 1.041748
 45 0.136315 -3.738193 2.525891 1.493698 2.759406 -1.474501
 46 10.273803 -0.437102 1.198994 1.793563 0.004868 1.507198
 47 11.389366 -0.000820 0.158781 2.112952 0.135732 0.275692
 48 0.000000 -4.440599 0.000001 1.570144 -3.078602 0.004040
 49 6.000000 0.000000 0.000001 2.112952 0.000000 -0.000000
 50 0.000002 -4.440601 0.000000 1.569944 -3.078603 0.004053
 51 10.510132 -0.000001 0.000003 0.000000 -0.000000 -2.805697
 52 0.000000 -1.748399 -5.000001 -3.141593 0.004007 -1.539299
 53 5.500000 0.000001 -0.000000 0.113889 0.000000 0.000000
 54 -0.000001 -0.000000 -5.000001 -0.044472 3.137590 -0.000177
 55 6.551491 -0.000000 -0.000001 -0.113889 -0.135221 -0.184720
 56 -1.266843 -1.937443 -4.950560 -0.066572 -2.988806 -0.110308
 57 6.551491 -0.000000 -0.000001 -0.113889 -0.135221 -0.184720
 58 0.699371 -1.944206 -5.006849 -0.027189 -3.088217 0.005298
 59 4.226147 -0.003201 0.000000 -0.062233 0.012993 0.388071
 60 -0.000001 5.000000 -0.000000 -0.153564 0.000087 2.718702
 61 0.000006 -0.000006 -3.713579 0.119535 -2.936655 -0.885276
 62 0.000001 0.000000 5.000000 3.053195 1.558589 -0.074929
 63 -0.000005 0.000005 3.713580 -0.311487 -2.845558 -0.582080
 64 0.000001 0.000000 -5.000000 -0.088726 1.558589 3.066335
 65 7.363603 1.646646 0.495663 -3.141593 -1.570796 0.000000
 66 -0.000005 0.000005 3.619082 -0.441735 -2.434423 -1.159240
 67 16.573917 -0.000000 0.000001 -0.000000 -0.000000 -2.011748
 68 15.128181 0.000000 -0.000000 0.026832 0.026147 -0.175154
 69 5.758666 4.244731 0.000000 0.000000 -0.000000 2.033309
 70 3.177727 0.000000 0.000000 0.000000 0.000000 3.141593
 71 15.708951 0.000002 -0.000000 0.013957 0.013894 -0.093781
 72 0.275148 0.189215 -3.445208 3.130898 0.000409 -1.514604
 73 17.210192 -0.000001 0.000002 -0.000000 0.000000 -2.319003
 74 0.000000 -0.000001 -5.000000 -0.079433 1.546568 -1.570857
 75 0.000007 -0.000004 -3.619079 0.260448 -2.945758 -1.468642
 76 16.573919 -0.000000 0.000001 0.000000 0.000000 -1.562392
 77 15.128181 0.000000 0.000001 0.265624 -0.173430 0.666428
 78 5.758665 4.244731 0.000000 -0.000000 0.000000 1.483530
 79 4.003934 -0.000000 0.000000 0.000000 0.000000 0.000000
 80 15.708953 0.000000 0.000000 0.195074 -0.100553 0.460486
 81 0.273998 0.191090 3.439762 -3.130907 -0.000437 -1.508107
 82 17.210196 0.000000 0.000001 -0.000000 0.000000 -2.116793
 83 0.000000 -0.000001 5.000000 -0.079311 1.595025 -1.570737
end
