version 1
nodes
  0 "Bip01"  -1
  1 "Bip01 Footsteps"   0
  2 "Bip01 Pelvis"   0
  3 "Bip01 Spine"   2
  4 "Bip01 Spine1"   3
  5 "Bip01 Spine2"   4
  6 "Bip01 Spine3"   5
  7 "Bip01 Neck"   6
  8 "Bip01 Head"   7
  9 "Dummy21"   8
 10 "Bip01 L Clavicle"   7
 11 "Bip01 L UpperArm"  10
 12 "Bip01 L Forearm"  11
 13 "Bip01 L Hand"  12
 14 "Bip01 L Finger0"  13
 15 "Bip01 L Finger01"  14
 16 "Dummy06"  15
 17 "Bip01 L Finger1"  13
 18 "Bip01 L Finger11"  17
 19 "Dummy03"  18
 20 "-- L knuckle"  17
 21 "-- L knuckle_end"  20
 22 "-- L Forearm twist"  12
 23 "-- L Forearm twist_end"  22
 24 "-- L wrist"  12
 25 "-- L wrist_end"  24
 26 "-- L Elbow"  11
 27 "--L Elbow_end"  26
 28 "-- L bicep twist"  11
 29 "-- L bicep twist_end"  28
 30 "-- L shoulder outside"  10
 31 "-- L shoulder outside_end"  30
 32 "-- L Shoulder inside"  10
 33 "-- L Shoulder inside_end"  32
 34 "Bip01 R Clavicle"   7
 35 "Bip01 R UpperArm"  34
 36 "Bip01 R Forearm"  35
 37 "Bip01 R Hand"  36
 38 "Bip01 R Finger0"  37
 39 "Bip01 R Finger01"  38
 40 "Dummy01"  39
 41 "Bip01 R Finger1"  37
 42 "Bip01 R Finger11"  41
 43 "Dummy02"  42
 44 "-- R knuckle"  41
 45 "Point06"  44
 46 "Line03"  37
 47 "-- R wrist"  36
 48 "-- R wrist_end"  47
 49 "-- R forearm twist"  36
 50 "-- R forearm twist_end"  49
 51 "-- R Elbow"  35
 52 "--R Elbow_end"  51
 53 "-- R bicep twist"  35
 54 "-- R bicep twist_end"  53
 55 "-- R Shoulder inside"  34
 56 "-- R Shoulder inside_end"  55
 57 "-- R shoulder outside"  34
 58 "-- R shoulder outside_end"  57
 59 "-- Neck smooth"   6
 60 "-- neck smooth end"  59
 61 "-- R Butt"   2
 62 "--R Butt_end"  61
 63 "-- L butt"   2
 64 "--L butt_end"  63
 65 "GIGN01"   2
 66 "Bip01 L Thigh"   2
 67 "Bip01 L Calf"  66
 68 "Bip01 L Foot"  67
 69 "Bip01 L Toe0"  68
 70 "Dummy16"  69
 71 "-- L ankle"  67
 72 "-- L ankleend"  71
 73 "-- L Knee"  66
 74 "--L Knee_end"  73
 75 "Bip01 R Thigh"   2
 76 "Bip01 R Calf"  75
 77 "Bip01 R Foot"  76
 78 "Bip01 R Toe0"  77
 79 "Dummy11"  78
 80 "-- R Ankle"  76
 81 "-- R ankleend"  80
 82 "-- R Knee"  75
 83 "--R Knee_end"  82
end
skeleton
time 0
  0 0.500000 13.522099 26.931471 -0.243067 0.535714 -2.432935
  1 13.773751 5.584523 -22.520975 -0.544290 0.221328 2.303921
  2 -2.276934 0.000003 -1.238185 -1.570795 -1.570451 0.000000
  3 1.796311 0.711925 0.000381 -0.130692 -0.458101 -0.200619
  4 4.120609 -0.002513 0.000640 -0.197417 0.088399 0.656341
  5 4.118181 -0.003140 0.000851 -0.280350 0.347939 -0.232318
  6 4.120781 -0.002450 0.000058 -0.019208 0.427566 0.719074
  7 4.116091 -0.002227 -0.001116 0.392831 0.603070 -0.615072
  8 4.443601 -0.000000 0.000001 -0.227144 0.233958 0.502659
  9 9.024061 -0.000001 -0.000000 0.000000 0.000000 0.000000
 10 -0.982750 0.549824 1.318368 1.565086 -0.950767 2.237794
 11 6.384777 -0.000000 -0.000000 -1.287614 -0.188978 -1.645262
 12 10.242682 -0.000001 -0.000000 -0.000000 -0.000000 -1.364215
 13 11.375562 -0.000000 0.000001 2.875587 0.194978 0.020556
 14 0.728682 0.023431 -1.008293 0.867878 0.712365 -0.046112
 15 2.136499 0.000000 -0.000000 -0.000000 0.000000 -0.078540
 16 2.313139 -0.000001 -0.000000 0.000000 0.000000 0.000000
 17 3.115508 -0.886039 -0.021432 -0.611647 0.000152 0.191986
 18 2.011152 0.000002 0.000002 -0.000000 0.000000 1.218072
 19 2.141379 -0.000000 -0.000001 0.000000 0.000000 0.000000
 20 1.734170 0.000000 -0.000000 -0.000000 -0.000000 0.608208
 21 0.000005 -4.440594 -0.000001 1.570544 -0.062990 -0.195737
 22 6.000000 -0.000001 -0.000000 -3.065451 0.000000 -0.000000
 23 0.000003 -4.440600 -0.000000 1.569944 -0.062987 0.004053
 24 11.375561 -0.000001 0.000003 -2.483212 0.102005 0.075717
 25 0.000001 -4.440603 -0.000001 1.570144 -0.062988 0.004040
 26 10.510130 -0.000002 0.000000 -0.000000 0.000000 -2.252904
 27 -0.000001 -1.748400 4.999999 0.000000 0.004007 1.602291
 28 5.499999 -0.000002 -0.000000 0.416726 -0.000000 -0.000000
 29 -0.000001 -1.940598 5.000000 -0.044472 0.004003 -0.000180
 30 6.551491 0.000000 -0.000000 -0.930084 0.031673 -1.339238
 31 -0.000000 -1.940599 5.000001 -0.027189 -0.053376 0.005295
 32 6.551491 0.000000 -0.000000 -0.307221 0.149646 -0.445803
 33 0.000001 -1.940600 4.999997 -0.066572 -0.152786 -0.110311
 34 0.982753 -0.542747 -1.318367 1.647500 0.704678 -0.891053
 35 6.384776 0.000002 0.000000 0.211632 0.512277 -1.145337
 36 10.242681 -0.000000 -0.000002 0.000000 0.000000 -2.273884
 37 11.375562 0.000001 0.000002 -2.914026 0.556753 1.285762
 38 0.728680 0.023431 1.008295 -1.579583 -0.319038 0.212973
 39 2.136495 0.000002 -0.000000 0.000000 0.000000 1.282817
 40 2.313137 -0.000002 -0.000000 0.000000 0.000000 3.141593
 41 3.115506 -0.886041 0.021434 0.420766 0.316066 0.167178
 42 2.011150 -0.000000 0.000000 0.000000 0.000000 2.082010
 43 2.141379 -0.000000 0.000001 0.000000 0.000000 3.141593
 44 1.734172 -0.000002 0.000001 -0.000000 0.000000 1.041748
 45 0.136315 -3.738193 2.525889 1.493698 2.759406 -1.474501
 46 10.273804 -0.437100 1.198992 1.793563 0.004868 1.507198
 47 11.389367 -0.000819 0.158783 2.310732 0.555691 0.438533
 48 0.000000 -4.440598 -0.000000 1.570144 -3.078602 0.004040
 49 6.000000 0.000001 0.000002 2.310732 -0.000000 -0.000000
 50 0.000003 -4.440602 -0.000000 1.569944 -3.078603 0.004053
 51 10.510132 -0.000001 0.000000 0.000000 -0.000000 -2.707738
 52 0.000000 -1.748400 -5.000000 3.141593 0.004007 -1.539299
 53 5.499999 -0.000000 -0.000003 -0.130816 -0.000000 -0.000000
 54 -0.000000 0.000001 -4.999999 -0.044472 3.137589 -0.000177
 55 6.551490 0.000000 0.000002 0.130816 0.118795 -0.308096
 56 -1.266843 -1.937445 -4.950558 -0.066572 -2.988806 -0.110308
 57 6.551491 -0.000000 0.000002 0.130816 0.118795 -0.308096
 58 0.699370 -1.944208 -5.006847 -0.027189 -3.088217 0.005298
 59 4.226145 -0.003200 -0.000000 0.251758 0.307810 -0.358244
 60 -0.000001 5.000001 0.000000 -0.153564 0.000087 2.718702
 61 0.000006 -0.000006 -3.713579 0.119535 -2.936655 -0.885276
 62 0.000001 0.000000 5.000000 3.053195 1.558589 -0.074929
 63 -0.000005 0.000005 3.713580 -0.311487 -2.845558 -0.582080
 64 0.000001 0.000000 -5.000000 -0.088726 1.558589 3.066335
 65 7.363603 1.646646 0.495663 -3.141593 -1.570796 0.000000
 66 -0.000005 0.000005 3.619082 -0.441735 -2.434423 -1.159240
 67 16.573917 -0.000000 0.000001 -0.000000 -0.000000 -2.011748
 68 15.128181 0.000000 -0.000000 0.026832 0.026147 -0.175154
 69 5.758666 4.244731 0.000000 0.000000 -0.000000 2.033309
 70 3.177727 0.000000 0.000000 0.000000 0.000000 3.141593
 71 15.708951 0.000002 -0.000000 0.013957 0.013894 -0.093781
 72 0.275148 0.189215 -3.445208 3.130898 0.000409 -1.514604
 73 17.210192 -0.000001 0.000002 -0.000000 0.000000 -2.319003
 74 0.000000 -0.000001 -5.000000 -0.079433 1.546568 -1.570857
 75 0.000007 -0.000004 -3.619079 0.260448 -2.945758 -1.468642
 76 16.573919 -0.000000 0.000001 0.000000 0.000000 -1.562392
 77 15.128181 0.000000 0.000001 0.265624 -0.173430 0.666428
 78 5.758665 4.244731 0.000000 -0.000000 0.000000 1.483530
 79 4.003934 -0.000000 0.000000 0.000000 0.000000 0.000000
 80 15.708953 0.000000 0.000000 0.195074 -0.100553 0.460486
 81 0.273998 0.191090 3.439762 -3.130907 -0.000437 -1.508107
 82 17.210196 0.000000 0.000001 -0.000000 0.000000 -2.116793
 83 0.000000 -0.000001 5.000000 -0.079311 1.595025 -1.570737
time 1
  0 0.500000 13.522099 26.931471 -0.243067 0.535714 -2.432935
  1 13.773751 5.584523 -22.520975 -0.544290 0.221328 2.303921
  2 -2.276934 0.000003 -1.238185 -1.570795 -1.570451 0.000000
  3 1.796322 0.711919 0.000356 -0.121966 -0.458108 -0.200618
  4 4.120613 -0.002521 0.000611 -0.188690 0.088392 0.656343
  5 4.118169 -0.003144 0.000826 -0.271623 0.347932 -0.232316
  6 4.120774 -0.002456 0.000031 -0.010179 0.442115 0.719886
  7 4.116196 -0.002393 -0.000999 0.358797 0.635642 -0.569893
  8 4.443596 -0.000000 0.000000 -0.194094 0.162634 0.481126
  9 9.024063 -0.000002 0.000000 0.000000 0.000000 0.000000
 10 -1.028704 0.493142 1.305518 1.438805 -0.968117 2.318970
 11 6.384777 -0.000002 -0.000001 -1.286526 -0.219188 -1.664338
 12 10.242682 0.000002 -0.000001 0.000000 0.000000 -1.302849
 13 11.375560 0.000000 -0.000000 2.864142 0.181714 -0.035546
 14 0.728684 0.023433 -1.008292 0.867878 0.712365 -0.046112
 15 2.136495 -0.000005 0.000002 0.000000 0.000000 -0.078540
 16 2.313140 -0.000001 -0.000000 0.000000 0.000000 0.000000
 17 3.115507 -0.886041 -0.021431 -0.611647 0.000152 0.191986
 18 2.011149 -0.000001 -0.000000 -0.000000 0.000000 1.218072
 19 2.141381 0.000001 -0.000000 0.000000 0.000000 0.000000
 20 1.734172 -0.000000 -0.000000 -0.000000 0.000000 0.608208
 21 0.000005 -4.440593 0.000000 1.570544 -0.062990 -0.195737
 22 5.999999 -0.000002 -0.000001 -3.076925 0.000000 0.000000
 23 -0.000000 -4.440601 -0.000000 1.569944 -0.062987 0.004053
 24 11.375560 0.000001 0.000002 -2.488321 0.113236 0.039579
 25 -0.000001 -4.440602 -0.000000 1.570144 -0.062988 0.004040
 26 10.510130 0.000001 -0.000001 0.000000 0.000000 -2.222221
 27 0.000001 -1.748401 4.999999 0.000000 0.004007 1.602291
 28 5.500000 0.000001 -0.000001 0.416376 -0.000000 -0.000000
 29 -0.000003 -1.940599 5.000000 -0.044472 0.004003 -0.000180
 30 6.551491 -0.000001 -0.000001 -0.938417 0.009404 -1.378096
 31 0.000002 -1.940599 5.000002 -0.027189 -0.053376 0.005295
 32 6.551491 -0.000001 -0.000001 -0.304542 0.145186 -0.448341
 33 0.000000 -1.940598 4.999996 -0.066572 -0.152786 -0.110311
 34 1.028703 -0.486065 -1.305517 1.761410 0.748607 -0.813125
 35 6.384777 0.000001 -0.000001 0.249140 0.537064 -1.070616
 36 10.242682 0.000000 0.000001 0.000000 0.000000 -2.273884
 37 11.375562 0.000001 -0.000000 -2.915481 0.546551 1.282987
 38 0.728681 0.023431 1.008291 -1.579583 -0.319038 0.212973
 39 2.136496 -0.000000 0.000001 0.000000 -0.000000 1.282817
 40 2.313141 0.000001 -0.000001 0.000000 0.000000 3.141593
 41 3.115507 -0.886041 0.021429 0.420766 0.316066 0.167178
 42 2.011150 -0.000001 -0.000003 -0.000000 0.000000 2.082010
 43 2.141380 -0.000000 0.000003 0.000000 0.000000 3.141593
 44 1.734173 -0.000002 -0.000000 -0.000000 0.000000 1.041748
 45 0.136315 -3.738192 2.525889 1.493698 2.759406 -1.474501
 46 10.273803 -0.437100 1.198990 1.793563 0.004868 1.507198
 47 11.389367 -0.000818 0.158783 2.314240 0.551148 0.441539
 48 0.000000 -4.440599 0.000001 1.570144 -3.078602 0.004040
 49 6.000000 0.000001 0.000000 2.314240 -0.000000 0.000000
 50 0.000003 -4.440600 -0.000000 1.569944 -3.078603 0.004053
 51 10.510132 0.000000 0.000003 -0.000000 -0.000000 -2.707738
 52 0.000001 -1.748400 -5.000003 3.141593 0.004007 -1.539299
 53 5.499999 -0.000000 0.000000 -0.137044 -0.000000 0.000000
 54 0.000000 0.000002 -5.000002 -0.044472 3.137589 -0.000177
 55 6.551491 -0.000000 0.000001 0.137044 0.124905 -0.294331
 56 -1.266843 -1.937443 -4.950559 -0.066572 -2.988806 -0.110308
 57 6.551492 -0.000001 0.000001 0.137044 0.124905 -0.294331
 58 0.699370 -1.944207 -5.006847 -0.027189 -3.088217 0.005298
 59 4.226146 -0.003203 -0.000000 0.231988 0.331771 -0.333376
 60 -0.000001 5.000001 0.000000 -0.153564 0.000087 2.718702
 61 0.000006 -0.000006 -3.713579 0.119535 -2.936655 -0.885276
 62 0.000001 0.000000 5.000000 3.053195 1.558589 -0.074929
 63 -0.000005 0.000005 3.713580 -0.311487 -2.845558 -0.582080
 64 0.000001 0.000000 -5.000000 -0.088726 1.558589 3.066335
 65 7.363603 1.646646 0.495663 -3.141593 -1.570796 0.000000
 66 -0.000005 0.000005 3.619082 -0.441735 -2.434423 -1.159240
 67 16.573917 -0.000000 0.000001 -0.000000 -0.000000 -2.011748
 68 15.128181 0.000000 -0.000000 0.026832 0.026147 -0.175154
 69 5.758666 4.244731 0.000000 0.000000 -0.000000 2.033309
 70 3.177727 0.000000 0.000000 0.000000 0.000000 3.141593
 71 15.708951 0.000002 -0.000000 0.013957 0.013894 -0.093781
 72 0.275148 0.189215 -3.445208 3.130898 0.000409 -1.514604
 73 17.210192 -0.000001 0.000002 -0.000000 0.000000 -2.319003
 74 0.000000 -0.000001 -5.000000 -0.079433 1.546568 -1.570857
 75 0.000007 -0.000004 -3.619079 0.260448 -2.945758 -1.468642
 76 16.573919 -0.000000 0.000001 0.000000 0.000000 -1.562392
 77 15.128181 0.000000 0.000001 0.265624 -0.173430 0.666428
 78 5.758665 4.244731 0.000000 -0.000000 0.000000 1.483530
 79 4.003934 -0.000000 0.000000 0.000000 0.000000 0.000000
 80 15.708953 0.000000 0.000000 0.195074 -0.100553 0.460486
 81 0.273998 0.191090 3.439762 -3.130907 -0.000437 -1.508107
 82 17.210196 0.000000 0.000001 -0.000000 0.000000 -2.116793
 83 0.000000 -0.000001 5.000000 -0.079311 1.595025 -1.570737
time 2
  0 0.500000 13.522099 26.931471 -0.243067 0.535714 -2.432935
  1 13.773751 5.584523 -22.520975 -0.544290 0.221328 2.303921
  2 -2.276934 0.000003 -1.238185 -1.570795 -1.570451 0.000000
  3 1.796335 0.711913 0.000331 -0.113239 -0.458114 -0.200617
  4 4.120614 -0.002526 0.000584 -0.179964 0.088385 0.656344
  5 4.118156 -0.003147 0.000803 -0.262895 0.347925 -0.232314
  6 4.120771 -0.002464 0.000001 -0.001073 0.456657 0.720850
  7 4.116315 -0.002549 -0.000886 0.325671 0.669495 -0.524946
  8 4.443602 0.000000 0.000001 -0.159059 0.091780 0.457270
  9 9.024060 0.000001 0.000000 0.000000 0.000000 0.000000
 10 -1.075305 0.438240 1.287271 1.307453 -0.979393 2.405353
 11 6.384776 -0.000001 0.000000 -1.285379 -0.250678 -1.682991
 12 10.242682 0.000002 -0.000000 0.000000 0.000000 -1.239286
 13 11.375561 0.000002 0.000000 2.852121 0.168745 -0.092872
 14 0.728682 0.023430 -1.008292 0.867878 0.712365 -0.046112
 15 2.136497 0.000001 -0.000000 -0.000000 0.000000 -0.078540
 16 2.313138 -0.000002 0.000001 0.000000 0.000000 0.000000
 17 3.115509 -0.886041 -0.021430 -0.611647 0.000152 0.191986
 18 2.011150 0.000001 -0.000001 -0.000000 -0.000000 1.218072
 19 2.141378 0.000000 -0.000000 0.000000 0.000000 0.000000
 20 1.734169 0.000001 -0.000000 -0.000000 -0.000000 0.608208
 21 0.000006 -4.440594 -0.000000 1.570544 -0.062990 -0.195737
 22 6.000000 -0.000000 0.000000 -3.089385 -0.000000 0.000000
 23 -0.000001 -4.440602 -0.000001 1.569944 -0.062987 0.004053
 24 11.375560 0.000001 0.000002 -2.493799 0.125136 0.002614
 25 -0.000003 -4.440605 0.000002 1.570144 -0.062988 0.004040
 26 10.510131 0.000002 -0.000000 -0.000000 0.000000 -2.190439
 27 -0.000000 -1.748401 4.999999 0.000000 0.004007 1.602290
 28 5.500001 0.000002 -0.000000 0.416107 0.000000 -0.000000
 29 -0.000001 -1.940597 5.000000 -0.044472 0.004003 -0.000180
 30 6.551491 0.000000 0.000001 -0.946640 -0.014166 -1.414689
 31 -0.000000 -1.940598 5.000001 -0.027189 -0.053376 0.005295
 32 6.551491 0.000000 0.000001 -0.301953 0.140298 -0.449498
 33 0.000000 -1.940598 4.999996 -0.066572 -0.152786 -0.110311
 34 1.075310 -0.431163 -1.287272 1.886349 0.783221 -0.723028
 35 6.384776 -0.000001 0.000001 0.287537 0.558672 -0.993867
 36 10.242682 -0.000001 -0.000000 -0.000000 0.000000 -2.273884
 37 11.375562 -0.000000 -0.000003 -2.916893 0.536346 1.280246
 38 0.728681 0.023432 1.008293 -1.579583 -0.319038 0.212973
 39 2.136497 0.000000 -0.000000 0.000000 0.000000 1.282817
 40 2.313138 -0.000002 0.000000 0.000000 0.000000 3.141593
 41 3.115506 -0.886040 0.021430 0.420765 0.316066 0.167178
 42 2.011151 0.000000 0.000001 0.000000 0.000000 2.082010
 43 2.141379 0.000000 -0.000000 0.000000 0.000000 3.141593
 44 1.734172 -0.000000 0.000002 -0.000000 0.000000 1.041748
 45 0.136314 -3.738192 2.525888 1.493698 2.759406 -1.474501
 46 10.273803 -0.437100 1.198991 1.793563 0.004868 1.507198
 47 11.389367 -0.000818 0.158781 2.317712 0.546593 0.444511
 48 0.000001 -4.440599 -0.000001 1.570144 -3.078602 0.004040
 49 6.000001 0.000001 0.000001 2.317712 0.000000 -0.000000
 50 0.000003 -4.440599 -0.000001 1.569944 -3.078603 0.004053
 51 10.510133 0.000000 -0.000001 -0.000000 0.000000 -2.707738
 52 0.000000 -1.748400 -5.000004 -3.141593 0.004007 -1.539299
 53 5.500000 -0.000001 0.000000 -0.142579 -0.000000 -0.000000
 54 -0.000001 -0.000000 -5.000002 -0.044472 3.137589 -0.000177
 55 6.551491 0.000001 -0.000000 0.142579 0.131687 -0.281382
 56 -1.266843 -1.937444 -4.950561 -0.066572 -2.988806 -0.110308
 57 6.551491 0.000001 -0.000000 0.142579 0.131687 -0.281382
 58 0.699371 -1.944209 -5.006847 -0.027189 -3.088217 0.005298
 59 4.226145 -0.003201 0.000001 0.213166 0.355569 -0.308598
 60 -0.000002 5.000001 -0.000001 -0.153564 0.000087 2.718702
 61 0.000006 -0.000006 -3.713579 0.119535 -2.936655 -0.885276
 62 0.000001 0.000000 5.000000 3.053195 1.558589 -0.074929
 63 -0.000005 0.000005 3.713580 -0.311487 -2.845558 -0.582080
 64 0.000001 0.000000 -5.000000 -0.088726 1.558589 3.066335
 65 7.363603 1.646646 0.495663 -3.141593 -1.570796 0.000000
 66 -0.000005 0.000005 3.619082 -0.441735 -2.434423 -1.159240
 67 16.573917 -0.000000 0.000001 -0.000000 -0.000000 -2.011748
 68 15.128181 0.000000 -0.000000 0.026832 0.026147 -0.175154
 69 5.758666 4.244731 0.000000 0.000000 -0.000000 2.033309
 70 3.177727 0.000000 0.000000 0.000000 0.000000 3.141593
 71 15.708951 0.000002 -0.000000 0.013957 0.013894 -0.093781
 72 0.275148 0.189215 -3.445208 3.130898 0.000409 -1.514604
 73 17.210192 -0.000001 0.000002 -0.000000 0.000000 -2.319003
 74 0.000000 -0.000001 -5.000000 -0.079433 1.546568 -1.570857
 75 0.000007 -0.000004 -3.619079 0.260448 -2.945758 -1.468642
 76 16.573919 -0.000000 0.000001 0.000000 0.000000 -1.562392
 77 15.128181 0.000000 0.000001 0.265624 -0.173430 0.666428
 78 5.758665 4.244731 0.000000 -0.000000 0.000000 1.483530
 79 4.003934 -0.000000 0.000000 0.000000 0.000000 0.000000
 80 15.708953 0.000000 0.000000 0.195074 -0.100553 0.460486
 81 0.273998 0.191090 3.439762 -3.130907 -0.000437 -1.508107
 82 17.210196 0.000000 0.000001 -0.000000 0.000000 -2.116793
 83 0.000000 -0.000001 5.000000 -0.079311 1.595025 -1.570737
time 3
  0 0.500000 13.522099 26.931471 -0.243067 0.535714 -2.432935
  1 13.773751 5.584523 -22.520975 -0.544290 0.221328 2.303921
  2 -2.276934 0.000003 -1.238185 -1.570795 -1.570451 0.000000
  3 1.796346 0.711908 0.000305 -0.104513 -0.458121 -0.200616
  4 4.120615 -0.002530 0.000556 -0.171237 0.088377 0.656345
  5 4.118147 -0.003153 0.000775 -0.254168 0.347918 -0.232312
  6 4.120761 -0.002470 -0.000024 0.008115 0.471190 0.721969
  7 4.116449 -0.002695 -0.000777 0.293499 0.704568 -0.480189
  8 4.443600 -0.000001 0.000001 -0.121737 0.021548 0.430916
  9 9.024063 -0.000001 0.000001 0.000000 0.000000 0.000000
 10 -1.122286 0.385455 1.263697 1.172976 -0.984161 2.494931
 11 6.384776 -0.000000 0.000001 -1.284083 -0.283612 -1.701308
 12 10.242682 0.000001 -0.000000 0.000000 0.000000 -1.173264
 13 11.375559 0.000001 0.000000 2.839523 0.155994 -0.151479
 14 0.728679 0.023431 -1.008292 0.867878 0.712365 -0.046112
 15 2.136496 0.000001 -0.000000 -0.000000 0.000000 -0.078540
 16 2.313141 -0.000001 0.000001 0.000000 0.000000 0.000000
 17 3.115507 -0.886040 -0.021431 -0.611647 0.000152 0.191986
 18 2.011153 -0.000000 -0.000001 -0.000000 0.000000 1.218072
 19 2.141380 -0.000000 0.000001 0.000000 0.000000 0.000000
 20 1.734175 0.000001 0.000001 -0.000000 0.000000 0.608208
 21 0.000009 -4.440594 0.000000 1.570544 -0.062990 -0.195737
 22 6.000000 0.000000 -0.000000 -3.102813 0.000000 0.000000
 23 0.000001 -4.440602 0.000000 1.569944 -0.062987 0.004053
 24 11.375562 -0.000002 0.000002 -2.499636 0.137565 -0.034876
 25 -0.000002 -4.440603 -0.000001 1.570144 -0.062988 0.004040
 26 10.510132 0.000004 -0.000001 -0.000000 0.000000 -2.157428
 27 0.000002 -1.748401 4.999999 0.000000 0.004007 1.602291
 28 5.500000 0.000002 -0.000001 0.415903 -0.000000 0.000000
 29 -0.000002 -1.940598 5.000000 -0.044472 0.004003 -0.000180
 30 6.551490 0.000001 0.000001 -0.954758 -0.039141 -1.449172
 31 -0.000001 -1.940599 5.000002 -0.027189 -0.053376 0.005295
 32 6.551491 0.000001 0.000001 -0.299438 0.134991 -0.449363
 33 0.000001 -1.940600 4.999995 -0.066572 -0.152786 -0.110311
 34 1.122292 -0.378380 -1.263694 2.020861 0.806847 -0.622429
 35 6.384777 0.000002 -0.000000 0.326455 0.577087 -0.915394
 36 10.242680 -0.000001 0.000002 -0.000000 0.000000 -2.273884
 37 11.375560 0.000000 -0.000005 -2.918265 0.526137 1.277539
 38 0.728680 0.023431 1.008293 -1.579583 -0.319038 0.212973
 39 2.136496 0.000001 -0.000000 0.000000 0.000000 1.282817
 40 2.313140 -0.000002 -0.000000 0.000000 0.000000 3.141593
 41 3.115506 -0.886041 0.021431 0.420766 0.316066 0.167178
 42 2.011151 -0.000000 0.000000 0.000000 0.000000 2.082010
 43 2.141380 0.000000 0.000002 0.000000 0.000000 3.141593
 44 1.734173 -0.000001 0.000000 -0.000000 -0.000000 1.041748
 45 0.136315 -3.738193 2.525891 1.493698 2.759406 -1.474501
 46 10.273804 -0.437102 1.198994 1.793563 0.004868 1.507198
 47 11.389367 -0.000819 0.158780 2.321150 0.542026 0.447450
 48 0.000001 -4.440600 0.000000 1.570144 -3.078602 0.004040
 49 6.000000 -0.000000 -0.000004 2.321150 0.000000 0.000000
 50 0.000003 -4.440601 -0.000000 1.569944 -3.078603 0.004053
 51 10.510130 -0.000001 0.000002 0.000000 -0.000000 -2.707738
 52 0.000001 -1.748401 -5.000005 -3.141593 0.004007 -1.539299
 53 5.500000 0.000000 0.000000 -0.147552 -0.000000 -0.000000
 54 -0.000001 -0.000000 -5.000000 -0.044472 3.137590 -0.000177
 55 6.551491 0.000000 0.000002 0.147552 0.139120 -0.268844
 56 -1.266844 -1.937444 -4.950558 -0.066572 -2.988806 -0.110308
 57 6.551491 0.000000 0.000002 0.147552 0.139120 -0.268844
 58 0.699370 -1.944207 -5.006846 -0.027189 -3.088217 0.005298
 59 4.226147 -0.003202 -0.000000 0.195201 0.379101 -0.283813
 60 -0.000000 5.000002 0.000000 -0.153564 0.000087 2.718702
 61 0.000006 -0.000006 -3.713579 0.119535 -2.936655 -0.885276
 62 0.000001 0.000000 5.000000 3.053195 1.558589 -0.074929
 63 -0.000005 0.000005 3.713580 -0.311487 -2.845558 -0.582080
 64 0.000001 0.000000 -5.000000 -0.088726 1.558589 3.066335
 65 7.363603 1.646646 0.495663 -3.141593 -1.570796 0.000000
 66 -0.000005 0.000005 3.619082 -0.441735 -2.434423 -1.159240
 67 16.573917 -0.000000 0.000001 -0.000000 -0.000000 -2.011748
 68 15.128181 0.000000 -0.000000 0.026832 0.026147 -0.175154
 69 5.758666 4.244731 0.000000 0.000000 -0.000000 2.033309
 70 3.177727 0.000000 0.000000 0.000000 0.000000 3.141593
 71 15.708951 0.000002 -0.000000 0.013957 0.013894 -0.093781
 72 0.275148 0.189215 -3.445208 3.130898 0.000409 -1.514604
 73 17.210192 -0.000001 0.000002 -0.000000 0.000000 -2.319003
 74 0.000000 -0.000001 -5.000000 -0.079433 1.546568 -1.570857
 75 0.000007 -0.000004 -3.619079 0.260448 -2.945758 -1.468642
 76 16.573919 -0.000000 0.000001 0.000000 0.000000 -1.562392
 77 15.128181 0.000000 0.000001 0.265624 -0.173430 0.666428
 78 5.758665 4.244731 0.000000 -0.000000 0.000000 1.483530
 79 4.003934 -0.000000 0.000000 0.000000 0.000000 0.000000
 80 15.708953 0.000000 0.000000 0.195074 -0.100553 0.460486
 81 0.273998 0.191090 3.439762 -3.130907 -0.000437 -1.508107
 82 17.210196 0.000000 0.000001 -0.000000 0.000000 -2.116793
 83 0.000000 -0.000001 5.000000 -0.079311 1.595025 -1.570737
time 4
  0 0.500000 13.522099 26.931471 -0.243067 0.535714 -2.432935
  1 13.773751 5.584523 -22.520975 -0.544290 0.221328 2.303921
  2 -2.276934 0.000003 -1.238185 -1.570795 -1.570451 0.000000
  3 1.796346 0.711908 0.000305 -0.104513 -0.458121 -0.200616
  4 4.120615 -0.002530 0.000556 -0.171237 0.088377 0.656345
  5 4.118147 -0.003153 0.000775 -0.254168 0.347918 -0.232312
  6 4.120761 -0.002470 -0.000024 0.008115 0.471190 0.721969
  7 4.116449 -0.002695 -0.000777 0.293499 0.704568 -0.480189
  8 4.443600 -0.000001 0.000001 -0.121737 0.021548 0.430916
  9 9.024063 -0.000001 0.000001 0.000000 0.000000 0.000000
 10 -1.122286 0.385455 1.263697 1.172976 -0.984161 2.494931
 11 6.384776 -0.000000 0.000001 -1.288181 -0.290292 -1.698435
 12 10.242683 -0.000000 -0.000000 0.000000 0.000000 -1.144897
 13 11.375561 0.000001 -0.000000 2.827072 0.142506 -0.181674
 14 0.728681 0.023430 -1.008292 0.867878 0.712365 -0.046112
 15 2.136496 -0.000003 0.000001 0.000000 0.000000 -0.078540
 16 2.313137 0.000001 -0.000000 0.000000 0.000000 0.000000
 17 3.115509 -0.886041 -0.021432 -0.611647 0.000152 0.191986
 18 2.011150 0.000000 0.000000 -0.000000 0.000000 1.218072
 19 2.141378 0.000001 -0.000000 0.000000 0.000000 0.000000
 20 1.734171 0.000001 -0.000000 -0.000000 -0.000000 0.608208
 21 0.000007 -4.440594 0.000001 1.570544 -0.062990 -0.195737
 22 5.999999 0.000000 -0.000001 -3.116060 0.000000 -0.000000
 23 0.000002 -4.440599 -0.000001 1.569944 -0.062987 0.004053
 24 11.375561 0.000001 0.000002 -2.506186 0.140558 -0.056135
 25 -0.000001 -4.440604 -0.000001 1.570144 -0.062988 0.004040
 26 10.510131 -0.000001 -0.000000 0.000000 -0.000000 -2.143245
 27 -0.000000 -1.748401 4.999999 -0.000000 0.004007 1.602291
 28 5.500000 -0.000002 0.000000 0.418291 -0.000000 0.000000
 29 -0.000001 -1.940597 5.000000 -0.044472 0.004003 -0.000180
 30 6.551490 0.000001 0.000001 -0.958598 -0.045846 -1.445901
 31 0.000002 -1.940598 5.000000 -0.027189 -0.053376 0.005295
 32 6.551491 0.000001 0.000001 -0.301253 0.133274 -0.448320
 33 0.000001 -1.940600 4.999997 -0.066572 -0.152786 -0.110311
 34 1.122292 -0.378380 -1.263694 2.052345 0.824393 -0.572514
 35 6.384777 0.000002 -0.000000 0.349091 0.583766 -0.863570
 36 10.242682 0.000001 -0.000002 -0.000000 0.000000 -2.273884
 37 11.375561 0.000001 -0.000002 -2.919597 0.515925 1.274863
 38 0.728681 0.023431 1.008293 -1.579583 -0.319038 0.212973
 39 2.136497 -0.000002 -0.000001 -0.000000 0.000000 1.282817
 40 2.313139 0.000001 0.000001 0.000000 0.000000 3.141593
 41 3.115506 -0.886041 0.021431 0.420766 0.316066 0.167178
 42 2.011151 -0.000000 -0.000001 -0.000000 -0.000000 2.082010
 43 2.141379 0.000001 -0.000001 0.000000 0.000000 3.141593
 44 1.734172 -0.000000 -0.000000 0.000000 0.000000 1.041748
 45 0.136315 -3.738191 2.525891 1.493698 2.759406 -1.474501
 46 10.273802 -0.437102 1.198990 1.793563 0.004868 1.507198
 47 11.389365 -0.000819 0.158779 2.324554 0.537446 0.450356
 48 0.000000 -4.440597 0.000001 1.570144 -3.078602 0.004040
 49 5.999998 0.000000 -0.000003 2.324554 -0.000000 0.000000
 50 0.000004 -4.440601 -0.000000 1.569944 -3.078603 0.004053
 51 10.510131 0.000000 -0.000000 0.000000 -0.000000 -2.707738
 52 -0.000000 -1.748401 -5.000001 3.141593 0.004007 -1.539299
 53 5.500000 0.000001 -0.000002 -0.149521 -0.000000 0.000000
 54 -0.000001 0.000001 -5.000002 -0.044472 3.137590 -0.000177
 55 6.551491 -0.000000 0.000001 0.149521 0.143631 -0.260802
 56 -1.266843 -1.937444 -4.950559 -0.066572 -2.988806 -0.110308
 57 6.551492 -0.000000 0.000001 0.149521 0.143631 -0.260802
 58 0.699371 -1.944208 -5.006846 -0.027189 -3.088217 0.005298
 59 4.226147 -0.003202 -0.000000 0.195201 0.379101 -0.283813
 60 -0.000000 5.000002 0.000000 -0.153564 0.000087 2.718702
 61 0.000006 -0.000006 -3.713579 0.119535 -2.936655 -0.885276
 62 0.000001 0.000000 5.000000 3.053195 1.558589 -0.074929
 63 -0.000005 0.000005 3.713580 -0.311487 -2.845558 -0.582080
 64 0.000001 0.000000 -5.000000 -0.088726 1.558589 3.066335
 65 7.363603 1.646646 0.495663 -3.141593 -1.570796 0.000000
 66 -0.000005 0.000005 3.619082 -0.441735 -2.434423 -1.159240
 67 16.573917 -0.000000 0.000001 -0.000000 -0.000000 -2.011748
 68 15.128181 0.000000 -0.000000 0.026832 0.026147 -0.175154
 69 5.758666 4.244731 0.000000 0.000000 -0.000000 2.033309
 70 3.177727 0.000000 0.000000 0.000000 0.000000 3.141593
 71 15.708951 0.000002 -0.000000 0.013957 0.013894 -0.093781
 72 0.275148 0.189215 -3.445208 3.130898 0.000409 -1.514604
 73 17.210192 -0.000001 0.000002 -0.000000 0.000000 -2.319003
 74 0.000000 -0.000001 -5.000000 -0.079433 1.546568 -1.570857
 75 0.000007 -0.000004 -3.619079 0.260448 -2.945758 -1.468642
 76 16.573919 -0.000000 0.000001 0.000000 0.000000 -1.562392
 77 15.128181 0.000000 0.000001 0.265624 -0.173430 0.666428
 78 5.758665 4.244731 0.000000 -0.000000 0.000000 1.483530
 79 4.003934 -0.000000 0.000000 0.000000 0.000000 0.000000
 80 15.708953 0.000000 0.000000 0.195074 -0.100553 0.460486
 81 0.273998 0.191090 3.439762 -3.130907 -0.000437 -1.508107
 82 17.210196 0.000000 0.000001 -0.000000 0.000000 -2.116793
 83 0.000000 -0.000001 5.000000 -0.079311 1.595025 -1.570737
time 5
  0 0.500000 13.522099 26.931471 -0.243067 0.535714 -2.432935
  1 13.773751 5.584523 -22.520975 -0.544290 0.221328 2.303921
  2 -2.276934 0.000003 -1.238185 -1.570795 -1.570451 0.000000
  3 1.796346 0.711908 0.000305 -0.104513 -0.458121 -0.200616
  4 4.120615 -0.002530 0.000556 -0.171237 0.088377 0.656345
  5 4.118147 -0.003153 0.000775 -0.254168 0.347918 -0.232312
  6 4.120761 -0.002470 -0.000024 0.008115 0.471190 0.721969
  7 4.116449 -0.002695 -0.000777 0.293499 0.704568 -0.480189
  8 4.443600 -0.000001 0.000001 -0.121737 0.021548 0.430916
  9 9.024063 -0.000001 0.000001 0.000000 0.000000 0.000000
 10 -1.122286 0.385455 1.263697 1.172976 -0.984161 2.494931
 11 6.384776 -0.000000 0.000001 -1.292291 -0.297367 -1.695445
 12 10.242682 0.000002 -0.000000 0.000000 0.000000 -1.115548
 13 11.375561 0.000001 -0.000000 2.814386 0.129031 -0.212302
 14 0.728680 0.023431 -1.008291 0.867878 0.712365 -0.046112
 15 2.136494 0.000000 -0.000001 -0.000000 0.000000 -0.078540
 16 2.313141 0.000000 0.000000 0.000000 0.000000 0.000000
 17 3.115508 -0.886041 -0.021431 -0.611647 0.000152 0.191986
 18 2.011148 -0.000001 -0.000001 -0.000000 0.000000 1.218072
 19 2.141382 -0.000001 0.000001 0.000000 0.000000 0.000000
 20 1.734171 -0.000000 -0.000000 0.000000 0.000000 0.608208
 21 0.000008 -4.440594 0.000001 1.570544 -0.062990 -0.195737
 22 6.000000 -0.000002 -0.000001 -3.129685 -0.000000 -0.000000
 23 -0.000001 -4.440601 0.000000 1.569944 -0.062987 0.004053
 24 11.375560 0.000000 0.000002 -2.512891 0.143795 -0.077518
 25 -0.000002 -4.440603 -0.000000 1.570144 -0.062988 0.004040
 26 10.510130 0.000003 -0.000000 -0.000000 0.000000 -2.128570
 27 0.000002 -1.748400 5.000000 0.000000 0.004007 1.602291
 28 5.499999 0.000001 0.000000 0.420758 -0.000000 -0.000000
 29 -0.000001 -1.940597 5.000000 -0.044472 0.004003 -0.000180
 30 6.551490 0.000001 0.000001 -0.962508 -0.052972 -1.442377
 31 0.000001 -1.940599 5.000001 -0.027189 -0.053376 0.005295
 32 6.551491 0.000001 0.000001 -0.303134 0.131422 -0.447226
 33 0.000001 -1.940599 4.999998 -0.066572 -0.152786 -0.110311
 34 1.122292 -0.378380 -1.263694 2.086463 0.840897 -0.520773
 35 6.384776 0.000002 0.000001 0.370871 0.588724 -0.811680
 36 10.242681 0.000001 -0.000002 -0.000000 0.000000 -2.273884
 37 11.375560 0.000000 -0.000002 -2.920890 0.505711 1.272218
 38 0.728681 0.023431 1.008293 -1.579583 -0.319038 0.212973
 39 2.136498 -0.000002 -0.000001 0.000000 0.000000 1.282817
 40 2.313140 -0.000000 0.000002 0.000000 0.000000 3.141593
 41 3.115506 -0.886041 0.021433 0.420766 0.316066 0.167178
 42 2.011151 0.000001 0.000000 -0.000000 0.000000 2.082010
 43 2.141379 -0.000000 -0.000000 0.000000 0.000000 3.141593
 44 1.734173 -0.000001 -0.000002 0.000000 -0.000000 1.041748
 45 0.136315 -3.738191 2.525890 1.493698 2.759406 -1.474501
 46 10.273805 -0.437100 1.198993 1.793563 0.004868 1.507198
 47 11.389364 -0.000818 0.158780 2.327925 0.532855 0.453230
 48 0.000000 -4.440599 0.000002 1.570144 -3.078602 0.004040
 49 5.999998 -0.000000 -0.000003 2.327925 -0.000000 0.000000
 50 0.000003 -4.440600 -0.000001 1.569944 -3.078603 0.004053
 51 10.510129 -0.000000 0.000002 -0.000000 -0.000000 -2.707738
 52 -0.000001 -1.748400 -5.000001 3.141593 0.004007 -1.539299
 53 5.500000 0.000000 0.000001 -0.151216 0.000000 -0.000000
 54 -0.000001 0.000001 -5.000000 -0.044472 3.137590 -0.000177
 55 6.551490 0.000001 0.000002 0.151216 0.148275 -0.252821
 56 -1.266844 -1.937445 -4.950560 -0.066572 -2.988806 -0.110308
 57 6.551490 0.000001 0.000002 0.151216 0.148275 -0.252821
 58 0.699370 -1.944210 -5.006845 -0.027189 -3.088217 0.005298
 59 4.226147 -0.003202 -0.000000 0.195201 0.379101 -0.283813
 60 -0.000000 5.000002 0.000000 -0.153564 0.000087 2.718702
 61 0.000006 -0.000006 -3.713579 0.119535 -2.936655 -0.885276
 62 0.000001 0.000000 5.000000 3.053195 1.558589 -0.074929
 63 -0.000005 0.000005 3.713580 -0.311487 -2.845558 -0.582080
 64 0.000001 0.000000 -5.000000 -0.088726 1.558589 3.066335
 65 7.363603 1.646646 0.495663 -3.141593 -1.570796 0.000000
 66 -0.000005 0.000005 3.619082 -0.441735 -2.434423 -1.159240
 67 16.573917 -0.000000 0.000001 -0.000000 -0.000000 -2.011748
 68 15.128181 0.000000 -0.000000 0.026832 0.026147 -0.175154
 69 5.758666 4.244731 0.000000 0.000000 -0.000000 2.033309
 70 3.177727 0.000000 0.000000 0.000000 0.000000 3.141593
 71 15.708951 0.000002 -0.000000 0.013957 0.013894 -0.093781
 72 0.275148 0.189215 -3.445208 3.130898 0.000409 -1.514604
 73 17.210192 -0.000001 0.000002 -0.000000 0.000000 -2.319003
 74 0.000000 -0.000001 -5.000000 -0.079433 1.546568 -1.570857
 75 0.000007 -0.000004 -3.619079 0.260448 -2.945758 -1.468642
 76 16.573919 -0.000000 0.000001 0.000000 0.000000 -1.562392
 77 15.128181 0.000000 0.000001 0.265624 -0.173430 0.666428
 78 5.758665 4.244731 0.000000 -0.000000 0.000000 1.483530
 79 4.003934 -0.000000 0.000000 0.000000 0.000000 0.000000
 80 15.708953 0.000000 0.000000 0.195074 -0.100553 0.460486
 81 0.273998 0.191090 3.439762 -3.130907 -0.000437 -1.508107
 82 17.210196 0.000000 0.000001 -0.000000 0.000000 -2.116793
 83 0.000000 -0.000001 5.000000 -0.079311 1.595025 -1.570737
end
