version 1
nodes
  0 "Bip01"  -1
  1 "Bip01 Footsteps"   0
  2 "Bip01 Pelvis"   0
  3 "Bip01 Spine"   2
  4 "Bip01 Spine1"   3
  5 "Bip01 Spine2"   4
  6 "Bip01 Spine3"   5
  7 "Bip01 Neck"   6
  8 "Bip01 Head"   7
  9 "Dummy21"   8
 10 "Bip01 L Clavicle"   7
 11 "Bip01 L UpperArm"  10
 12 "Bip01 L Forearm"  11
 13 "Bip01 L Hand"  12
 14 "Bip01 L Finger0"  13
 15 "Bip01 L Finger01"  14
 16 "Dummy06"  15
 17 "Bip01 L Finger1"  13
 18 "Bip01 L Finger11"  17
 19 "Dummy03"  18
 20 "-- L knuckle"  17
 21 "-- L knuckle_end"  20
 22 "-- L Forearm twist"  12
 23 "-- L Forearm twist_end"  22
 24 "-- L wrist"  12
 25 "-- L wrist_end"  24
 26 "-- L Elbow"  11
 27 "--L Elbow_end"  26
 28 "-- L bicep twist"  11
 29 "-- L bicep twist_end"  28
 30 "-- L shoulder outside"  10
 31 "-- L shoulder outside_end"  30
 32 "-- L Shoulder inside"  10
 33 "-- L Shoulder inside_end"  32
 34 "Bip01 R Clavicle"   7
 35 "Bip01 R UpperArm"  34
 36 "Bip01 R Forearm"  35
 37 "Bip01 R Hand"  36
 38 "Bip01 R Finger0"  37
 39 "Bip01 R Finger01"  38
 40 "Dummy01"  39
 41 "Bip01 R Finger1"  37
 42 "Bip01 R Finger11"  41
 43 "Dummy02"  42
 44 "-- R knuckle"  41
 45 "Point06"  44
 46 "Line03"  37
 47 "-- R wrist"  36
 48 "-- R wrist_end"  47
 49 "-- R forearm twist"  36
 50 "-- R forearm twist_end"  49
 51 "-- R Elbow"  35
 52 "--R Elbow_end"  51
 53 "-- R bicep twist"  35
 54 "-- R bicep twist_end"  53
 55 "-- R Shoulder inside"  34
 56 "-- R Shoulder inside_end"  55
 57 "-- R shoulder outside"  34
 58 "-- R shoulder outside_end"  57
 59 "-- Neck smooth"   6
 60 "-- neck smooth end"  59
 61 "-- R Butt"   2
 62 "--R Butt_end"  61
 63 "-- L butt"   2
 64 "--L butt_end"  63
 65 "GIGN01"   2
 66 "Bip01 L Thigh"   2
 67 "Bip01 L Calf"  66
 68 "Bip01 L Foot"  67
 69 "Bip01 L Toe0"  68
 70 "Dummy16"  69
 71 "-- L ankle"  67
 72 "-- L ankleend"  71
 73 "-- L Knee"  66
 74 "--L Knee_end"  73
 75 "Bip01 R Thigh"   2
 76 "Bip01 R Calf"  75
 77 "Bip01 R Foot"  76
 78 "Bip01 R Toe0"  77
 79 "Dummy11"  78
 80 "-- R Ankle"  76
 81 "-- R ankleend"  80
 82 "-- R Knee"  75
 83 "--R Knee_end"  82
end
skeleton
time 0
  0 0.500000 13.522099 26.931471 -0.243067 0.535714 -2.432935
  1 13.773751 5.584523 -22.520975 -0.544290 0.221328 2.303921
  2 -2.276934 0.000003 -1.238185 -1.570795 -1.570451 0.000000
  3 1.796001 0.712084 0.000712 -0.228735 -0.287741 -0.299058
  4 4.120406 -0.002683 0.000559 -0.175386 0.208496 0.554928
  5 4.117921 -0.003095 0.000838 -0.290478 0.473668 -0.352731
  6 4.119967 -0.002956 0.000379 -0.127441 0.431936 0.379767
  7 4.117311 -0.002247 -0.002408 0.756227 -0.129426 -0.643058
  8 4.443599 0.000000 -0.000000 -0.677088 0.319051 -0.372168
  9 9.024063 -0.000001 0.000001 0.000000 0.000000 0.000000
 10 0.223639 1.182552 1.249894 -0.936492 -2.548784 -1.538393
 11 6.384776 -0.000001 -0.000000 -1.229777 -0.761175 -1.257459
 12 10.242682 -0.000001 0.000001 0.000000 -0.000000 -1.459658
 13 11.375563 -0.000001 -0.000000 2.767050 0.288535 0.355465
 14 0.728681 0.023430 -1.008290 0.867878 0.712366 -0.046112
 15 2.136497 -0.000001 -0.000000 -0.000000 -0.000000 -0.078540
 16 2.313139 0.000000 -0.000002 0.000000 0.000000 0.000000
 17 3.115507 -0.886042 -0.021429 -0.611647 0.000152 0.191986
 18 2.011149 0.000000 0.000001 0.000000 0.000000 1.218072
 19 2.141379 -0.000000 0.000000 0.000000 0.000000 0.000000
 20 1.734172 0.000001 -0.000000 -0.000000 -0.000000 0.608208
 21 0.000005 -4.440594 -0.000000 1.570544 -0.062990 -0.195737
 22 6.000002 -0.000001 0.000002 3.100578 -0.000000 -0.000000
 23 0.000003 -4.440600 0.000000 1.569944 -0.062987 0.004053
 24 11.375563 -0.000001 0.000006 -2.544116 0.034302 0.289060
 25 0.000000 -4.440604 -0.000001 1.570144 -0.062988 0.004040
 26 10.510130 0.000000 -0.000001 -0.000000 0.000000 -2.300625
 27 0.000001 -1.748402 4.999999 0.000000 0.004007 1.602291
 28 5.500000 -0.000002 0.000001 0.502801 -0.000000 0.000000
 29 -0.000002 -1.940599 5.000001 -0.044472 0.004003 -0.000180
 30 6.551490 -0.000001 0.000000 -1.002681 -0.486614 -0.926509
 31 0.000001 -1.940599 5.000003 -0.027189 -0.053376 0.005295
 32 6.551490 -0.000001 0.000000 -0.387392 -0.055615 -0.365011
 33 0.000000 -1.940599 4.999994 -0.066572 -0.152786 -0.110311
 34 -0.223636 -1.175475 -1.249894 1.050950 0.701244 -1.350354
 35 6.384776 -0.000000 -0.000000 0.828124 0.473133 -1.117040
 36 10.242682 0.000001 -0.000000 -0.000000 -0.000000 -2.181866
 37 11.375562 0.000001 -0.000002 2.713068 0.538168 0.932271
 38 0.728683 0.023430 1.008292 -1.579583 -0.319038 0.212973
 39 2.136496 0.000000 0.000000 -0.000000 0.000000 1.282817
 40 2.313139 0.000001 0.000000 0.000000 0.000000 3.141593
 41 3.115509 -0.886041 0.021431 0.420766 0.316066 0.167178
 42 2.011151 0.000000 0.000002 -0.000000 0.000000 2.082010
 43 2.141379 0.000000 0.000002 0.000000 0.000000 3.141593
 44 1.734171 -0.000001 -0.000002 -0.000000 0.000000 1.041748
 45 0.136315 -3.738190 2.525892 1.493698 2.759406 -1.474501
 46 10.273807 -0.437102 1.198991 1.793563 0.004868 1.507198
 47 11.389368 -0.000818 0.158781 2.043691 0.383758 0.351899
 48 -0.000001 -4.440599 0.000000 1.570144 -3.078602 0.004040
 49 6.000000 0.000000 0.000001 2.043691 -0.000000 -0.000000
 50 0.000002 -4.440602 0.000000 1.569944 -3.078603 0.004053
 51 10.510133 0.000001 -0.000000 0.000000 0.000000 -2.661730
 52 0.000001 -1.748399 -5.000001 -3.141593 0.004007 -1.539299
 53 5.500000 0.000000 -0.000001 -0.327636 0.000000 0.000000
 54 -0.000000 0.000000 -5.000002 -0.044472 3.137589 -0.000177
 55 6.551489 -0.000001 0.000001 0.327636 0.021021 -0.339571
 56 -1.266843 -1.937443 -4.950557 -0.066572 -2.988806 -0.110308
 57 6.551489 -0.000001 0.000001 0.327636 0.021021 -0.339571
 58 0.699370 -1.944207 -5.006844 -0.027189 -3.088217 0.005298
 59 4.226144 -0.003200 0.000000 0.409677 -0.133627 -0.354114
 60 0.000002 5.000000 -0.000000 -0.153564 0.000087 2.718702
 61 0.000006 -0.000006 -3.713579 0.119535 -2.936655 -0.885276
 62 0.000001 0.000000 5.000000 3.053195 1.558589 -0.074929
 63 -0.000005 0.000005 3.713580 -0.311487 -2.845558 -0.582080
 64 0.000001 0.000000 -5.000000 -0.088726 1.558589 3.066335
 65 7.363603 1.646646 0.495663 -3.141593 -1.570796 0.000000
 66 -0.000005 0.000005 3.619082 -0.441735 -2.434423 -1.159240
 67 16.573917 -0.000000 0.000001 -0.000000 -0.000000 -2.011748
 68 15.128181 0.000000 -0.000000 0.026832 0.026147 -0.175154
 69 5.758666 4.244731 0.000000 0.000000 -0.000000 2.033309
 70 3.177727 0.000000 0.000000 0.000000 0.000000 3.141593
 71 15.708951 0.000002 -0.000000 0.013957 0.013894 -0.093781
 72 0.275148 0.189215 -3.445208 3.130898 0.000409 -1.514604
 73 17.210192 -0.000001 0.000002 -0.000000 0.000000 -2.319003
 74 0.000000 -0.000001 -5.000000 -0.079433 1.546568 -1.570857
 75 0.000007 -0.000004 -3.619079 0.260448 -2.945758 -1.468642
 76 16.573919 -0.000000 0.000001 0.000000 0.000000 -1.562392
 77 15.128181 0.000000 0.000001 0.265624 -0.173430 0.666428
 78 5.758665 4.244731 0.000000 -0.000000 0.000000 1.483530
 79 4.003934 -0.000000 0.000000 0.000000 0.000000 0.000000
 80 15.708953 0.000000 0.000000 0.195074 -0.100553 0.460486
 81 0.273998 0.191090 3.439762 -3.130907 -0.000437 -1.508107
 82 17.210196 0.000000 0.000001 -0.000000 0.000000 -2.116793
 83 0.000000 -0.000001 5.000000 -0.079311 1.595025 -1.570737
time 1
  0 0.500000 13.522099 26.931471 -0.243067 0.535714 -2.432935
  1 13.773751 5.584523 -22.520975 -0.544290 0.221328 2.303921
  2 -2.276934 0.000003 -1.238185 -1.570795 -1.570451 0.000000
  3 1.796009 0.712081 0.000714 -0.227670 -0.260165 -0.302608
  4 4.120415 -0.002678 0.000558 -0.174397 0.199120 0.559636
  5 4.117928 -0.003100 0.000832 -0.287035 0.461251 -0.345201
  6 4.119979 -0.002953 0.000375 -0.126032 0.431006 0.383125
  7 4.117310 -0.002247 -0.002408 0.756226 -0.129426 -0.643058
  8 4.443597 0.000000 -0.000001 -0.674713 0.311490 -0.395639
  9 9.024060 -0.000001 0.000001 0.000000 0.000000 0.000000
 10 0.223633 1.182551 1.249894 -0.936492 -2.548784 -1.538393
 11 6.384776 0.000001 0.000000 -1.243097 -0.807501 -1.244532
 12 10.242681 0.000001 0.000000 -0.000000 -0.000000 -1.413990
 13 11.375561 -0.000001 0.000001 2.750059 0.291308 0.321943
 14 0.728680 0.023430 -1.008292 0.867878 0.712366 -0.046112
 15 2.136492 0.000000 0.000001 0.000000 0.000000 -0.078540
 16 2.313142 0.000000 -0.000001 0.000000 0.000000 0.000000
 17 3.115506 -0.886040 -0.021432 -0.611647 0.000152 0.191986
 18 2.011151 -0.000001 -0.000000 -0.000000 0.000000 1.218072
 19 2.141380 -0.000002 -0.000000 0.000000 0.000000 0.000000
 20 1.734174 0.000001 -0.000001 0.000000 -0.000000 0.608208
 21 0.000005 -4.440593 -0.000001 1.570544 -0.062990 -0.195737
 22 6.000001 -0.000000 0.000001 3.085868 0.000000 0.000000
 23 0.000002 -4.440602 -0.000001 1.569944 -0.062987 0.004053
 24 11.375563 -0.000000 0.000005 -2.550642 0.045587 0.275281
 25 -0.000002 -4.440602 0.000000 1.570144 -0.062988 0.004040
 26 10.510130 -0.000001 0.000001 0.000000 0.000000 -2.277792
 27 -0.000002 -1.748400 4.999996 0.000000 0.004007 1.602291
 28 5.499999 0.000000 0.000001 0.504201 0.000000 0.000000
 29 -0.000001 -1.940598 5.000001 -0.044472 0.004003 -0.000180
 30 6.551491 0.000000 -0.000002 -1.014273 -0.523775 -0.927733
 31 0.000001 -1.940598 5.000001 -0.027189 -0.053376 0.005295
 32 6.551491 0.000000 -0.000002 -0.386865 -0.064331 -0.363016
 33 0.000001 -1.940600 4.999993 -0.066572 -0.152786 -0.110311
 34 -0.223636 -1.175475 -1.249894 1.097260 0.742675 -1.284376
 35 6.384775 -0.000002 0.000004 0.905589 0.480034 -1.048048
 36 10.242682 -0.000000 0.000001 -0.000000 0.000000 -2.188562
 37 11.375559 0.000000 0.000002 2.734337 0.534449 0.958501
 38 0.728681 0.023432 1.008291 -1.579583 -0.319038 0.212973
 39 2.136499 -0.000000 -0.000002 0.000000 0.000000 1.282817
 40 2.313139 0.000002 0.000001 0.000000 0.000000 3.141593
 41 3.115508 -0.886039 0.021432 0.420766 0.316066 0.167178
 42 2.011152 0.000001 0.000000 -0.000000 0.000000 2.082010
 43 2.141378 -0.000001 0.000001 0.000000 0.000000 3.141593
 44 1.734174 -0.000001 0.000002 -0.000000 -0.000000 1.041748
 45 0.136315 -3.738191 2.525887 1.493698 2.759406 -1.474501
 46 10.273805 -0.437100 1.198992 1.793563 0.004868 1.507198
 47 11.389367 -0.000819 0.158783 2.051963 0.387695 0.362535
 48 -0.000002 -4.440597 0.000000 1.570144 -3.078602 0.004040
 49 6.000000 0.000001 0.000001 2.051963 -0.000000 0.000000
 50 0.000001 -4.440598 -0.000000 1.569944 -3.078603 0.004053
 51 10.510132 0.000000 0.000003 0.000000 -0.000000 -2.665077
 52 0.000001 -1.748399 -5.000001 -3.141593 0.004007 -1.539299
 53 5.499999 -0.000000 0.000002 -0.342281 0.000000 0.000000
 54 -0.000001 0.000000 -4.999998 -0.044472 3.137589 -0.000177
 55 6.551491 0.000001 0.000000 0.342281 0.019246 -0.328010
 56 -1.266842 -1.937443 -4.950561 -0.066572 -2.988806 -0.110308
 57 6.551491 0.000001 0.000001 0.342281 0.019246 -0.328010
 58 0.699372 -1.944208 -5.006847 -0.027189 -3.088217 0.005298
 59 4.226144 -0.003202 0.000000 0.409677 -0.133627 -0.354114
 60 0.000002 5.000000 0.000000 -0.153564 0.000087 2.718702
 61 0.000006 -0.000006 -3.713579 0.119535 -2.936655 -0.885276
 62 0.000001 0.000000 5.000000 3.053195 1.558589 -0.074929
 63 -0.000005 0.000005 3.713580 -0.311487 -2.845558 -0.582080
 64 0.000001 0.000000 -5.000000 -0.088726 1.558589 3.066335
 65 7.363603 1.646646 0.495663 -3.141593 -1.570796 0.000000
 66 -0.000005 0.000005 3.619082 -0.441735 -2.434423 -1.159240
 67 16.573917 -0.000000 0.000001 -0.000000 -0.000000 -2.011748
 68 15.128181 0.000000 -0.000000 0.026832 0.026147 -0.175154
 69 5.758666 4.244731 0.000000 0.000000 -0.000000 2.033309
 70 3.177727 0.000000 0.000000 0.000000 0.000000 3.141593
 71 15.708951 0.000002 -0.000000 0.013957 0.013894 -0.093781
 72 0.275148 0.189215 -3.445208 3.130898 0.000409 -1.514604
 73 17.210192 -0.000001 0.000002 -0.000000 0.000000 -2.319003
 74 0.000000 -0.000001 -5.000000 -0.079433 1.546568 -1.570857
 75 0.000007 -0.000004 -3.619079 0.260448 -2.945758 -1.468642
 76 16.573919 -0.000000 0.000001 0.000000 0.000000 -1.562392
 77 15.128181 0.000000 0.000001 0.265624 -0.173430 0.666428
 78 5.758665 4.244731 0.000000 -0.000000 0.000000 1.483530
 79 4.003934 -0.000000 0.000000 0.000000 0.000000 0.000000
 80 15.708953 0.000000 0.000000 0.195074 -0.100553 0.460486
 81 0.273998 0.191090 3.439762 -3.130907 -0.000437 -1.508107
 82 17.210196 0.000000 0.000001 -0.000000 0.000000 -2.116793
 83 0.000000 -0.000001 5.000000 -0.079311 1.595025 -1.570737
time 2
  0 0.500000 13.522099 26.931471 -0.243067 0.535714 -2.432935
  1 13.773751 5.584523 -22.520975 -0.544290 0.221328 2.303921
  2 -2.276934 0.000003 -1.238185 -1.570795 -1.570451 0.000000
  3 1.796019 0.712078 0.000716 -0.226712 -0.232586 -0.306104
  4 4.120421 -0.002674 0.000555 -0.173455 0.189739 0.564326
  5 4.117935 -0.003101 0.000829 -0.283717 0.448812 -0.337763
  6 4.119986 -0.002950 0.000371 -0.124627 0.430071 0.386481
  7 4.117315 -0.002250 -0.002407 0.756226 -0.129426 -0.643058
  8 4.443596 0.000000 0.000000 -0.672565 0.303650 -0.419126
  9 9.024060 -0.000000 0.000001 0.000000 0.000000 0.000000
 10 0.223634 1.182552 1.249894 -0.936492 -2.548784 -1.538393
 11 6.384776 -0.000000 0.000002 -1.257787 -0.851571 -1.230093
 12 10.242683 -0.000000 0.000000 0.000000 0.000000 -1.367985
 13 11.375559 -0.000001 -0.000001 2.732697 0.293703 0.285561
 14 0.728680 0.023429 -1.008292 0.867878 0.712366 -0.046112
 15 2.136499 0.000001 0.000000 -0.000000 0.000000 -0.078540
 16 2.313137 0.000001 -0.000000 0.000000 0.000000 0.000000
 17 3.115507 -0.886042 -0.021430 -0.611647 0.000152 0.191986
 18 2.011154 0.000002 -0.000001 -0.000000 0.000000 1.218072
 19 2.141376 0.000000 0.000002 0.000000 0.000000 0.000000
 20 1.734174 0.000002 -0.000001 -0.000000 0.000000 0.608208
 21 0.000005 -4.440593 0.000002 1.570544 -0.062990 -0.195737
 22 5.999997 -0.000001 0.000000 3.070656 0.000000 0.000000
 23 0.000001 -4.440603 0.000000 1.569944 -0.062987 0.004053
 24 11.375560 -0.000001 0.000004 -2.557188 0.058087 0.259806
 25 -0.000002 -4.440602 0.000001 1.570144 -0.062988 0.004040
 26 10.510131 -0.000001 -0.000000 0.000000 -0.000000 -2.254789
 27 0.000000 -1.748401 5.000000 0.000000 0.004007 1.602291
 28 5.500001 -0.000001 0.000002 0.505185 -0.000000 -0.000000
 29 -0.000002 -1.940597 4.999999 -0.044472 0.004003 -0.000180
 30 6.551491 -0.000000 0.000002 -1.025765 -0.559559 -0.927920
 31 0.000001 -1.940598 5.000000 -0.027189 -0.053376 0.005295
 32 6.551491 -0.000000 0.000002 -0.386001 -0.072366 -0.360684
 33 0.000000 -1.940599 4.999997 -0.066572 -0.152786 -0.110311
 34 -0.223638 -1.175475 -1.249894 1.150014 0.781429 -1.213058
 35 6.384776 0.000000 -0.000001 0.982183 0.479733 -0.975778
 36 10.242682 0.000001 -0.000001 -0.000000 0.000000 -2.195257
 37 11.375563 -0.000000 -0.000003 2.755436 0.530252 0.984572
 38 0.728680 0.023432 1.008292 -1.579583 -0.319038 0.212973
 39 2.136494 0.000000 -0.000001 0.000000 -0.000000 1.282817
 40 2.313139 -0.000001 0.000001 0.000000 0.000000 3.141593
 41 3.115505 -0.886040 0.021431 0.420766 0.316066 0.167178
 42 2.011152 0.000001 -0.000000 0.000000 -0.000000 2.082010
 43 2.141379 -0.000000 -0.000001 0.000000 0.000000 3.141593
 44 1.734173 -0.000001 -0.000000 -0.000000 -0.000000 1.041748
 45 0.136316 -3.738193 2.525891 1.493698 2.759406 -1.474501
 46 10.273804 -0.437100 1.198993 1.793563 0.004868 1.507198
 47 11.389366 -0.000820 0.158781 2.060307 0.391608 0.373283
 48 -0.000000 -4.440599 0.000001 1.570144 -3.078602 0.004040
 49 6.000000 -0.000000 -0.000002 2.060307 -0.000000 -0.000000
 50 0.000002 -4.440599 -0.000000 1.569944 -3.078603 0.004053
 51 10.510131 0.000000 0.000001 0.000000 -0.000000 -2.668425
 52 0.000001 -1.748399 -5.000002 -3.141593 0.004007 -1.539299
 53 5.500000 -0.000000 -0.000002 -0.355783 0.000000 0.000000
 54 -0.000001 0.000000 -5.000001 -0.044472 3.137589 -0.000177
 55 6.551490 0.000001 -0.000002 0.355783 0.016766 -0.316478
 56 -1.266843 -1.937443 -4.950561 -0.066572 -2.988806 -0.110308
 57 6.551490 0.000001 -0.000002 0.355783 0.016766 -0.316478
 58 0.699372 -1.944209 -5.006847 -0.027189 -3.088217 0.005298
 59 4.226149 -0.003202 0.000000 0.409677 -0.133627 -0.354114
 60 0.000003 5.000000 -0.000000 -0.153564 0.000087 2.718702
 61 0.000006 -0.000006 -3.713579 0.119535 -2.936655 -0.885276
 62 0.000001 0.000000 5.000000 3.053195 1.558589 -0.074929
 63 -0.000005 0.000005 3.713580 -0.311487 -2.845558 -0.582080
 64 0.000001 0.000000 -5.000000 -0.088726 1.558589 3.066335
 65 7.363603 1.646646 0.495663 -3.141593 -1.570796 0.000000
 66 -0.000005 0.000005 3.619082 -0.441735 -2.434423 -1.159240
 67 16.573917 -0.000000 0.000001 -0.000000 -0.000000 -2.011748
 68 15.128181 0.000000 -0.000000 0.026832 0.026147 -0.175154
 69 5.758666 4.244731 0.000000 0.000000 -0.000000 2.033309
 70 3.177727 0.000000 0.000000 0.000000 0.000000 3.141593
 71 15.708951 0.000002 -0.000000 0.013957 0.013894 -0.093781
 72 0.275148 0.189215 -3.445208 3.130898 0.000409 -1.514604
 73 17.210192 -0.000001 0.000002 -0.000000 0.000000 -2.319003
 74 0.000000 -0.000001 -5.000000 -0.079433 1.546568 -1.570857
 75 0.000007 -0.000004 -3.619079 0.260448 -2.945758 -1.468642
 76 16.573919 -0.000000 0.000001 0.000000 0.000000 -1.562392
 77 15.128181 0.000000 0.000001 0.265624 -0.173430 0.666428
 78 5.758665 4.244731 0.000000 -0.000000 0.000000 1.483530
 79 4.003934 -0.000000 0.000000 0.000000 0.000000 0.000000
 80 15.708953 0.000000 0.000000 0.195074 -0.100553 0.460486
 81 0.273998 0.191090 3.439762 -3.130907 -0.000437 -1.508107
 82 17.210196 0.000000 0.000001 -0.000000 0.000000 -2.116793
 83 0.000000 -0.000001 5.000000 -0.079311 1.595025 -1.570737
time 3
  0 0.500000 13.522099 26.931471 -0.243067 0.535714 -2.432935
  1 13.773751 5.584523 -22.520975 -0.544290 0.221328 2.303921
  2 -2.276934 0.000003 -1.238185 -1.570795 -1.570451 0.000000
  3 1.796027 0.712075 0.000717 -0.225859 -0.205004 -0.309552
  4 4.120432 -0.002669 0.000554 -0.172560 0.180354 0.568998
  5 4.117941 -0.003103 0.000825 -0.280521 0.436351 -0.330415
  6 4.119997 -0.002947 0.000368 -0.123225 0.429131 0.389835
  7 4.117309 -0.002246 -0.002409 0.756227 -0.129426 -0.643058
  8 4.443599 -0.000000 -0.000000 -0.670633 0.295524 -0.442614
  9 9.024061 -0.000001 0.000001 0.000000 0.000000 0.000000
 10 0.223640 1.182552 1.249895 -0.936492 -2.548784 -1.538393
 11 6.384776 -0.000003 -0.000001 -1.274049 -0.893434 -1.213904
 12 10.242682 0.000001 -0.000001 -0.000000 -0.000000 -1.321871
 13 11.375562 0.000000 -0.000001 2.714826 0.295643 0.246600
 14 0.728680 0.023432 -1.008293 0.867878 0.712366 -0.046112
 15 2.136498 0.000001 0.000000 -0.000000 -0.000000 -0.078540
 16 2.313136 -0.000000 -0.000000 0.000000 0.000000 0.000000
 17 3.115504 -0.886040 -0.021430 -0.611647 0.000152 0.191986
 18 2.011153 -0.000001 0.000001 -0.000000 0.000000 1.218072
 19 2.141382 -0.000001 0.000000 0.000000 0.000000 0.000000
 20 1.734174 0.000002 -0.000000 0.000000 0.000000 0.608208
 21 0.000008 -4.440594 0.000001 1.570544 -0.062990 -0.195737
 22 6.000000 -0.000001 -0.000001 3.054688 -0.000000 0.000000
 23 0.000002 -4.440601 -0.000000 1.569944 -0.062987 0.004053
 24 11.375564 -0.000000 0.000004 -2.563851 0.071725 0.242668
 25 -0.000001 -4.440604 -0.000000 1.570144 -0.062988 0.004040
 26 10.510131 -0.000001 -0.000001 -0.000000 0.000000 -2.231732
 27 -0.000001 -1.748402 4.999998 -0.000000 0.004007 1.602291
 28 5.500000 -0.000001 -0.000001 0.505840 -0.000000 -0.000000
 29 -0.000002 -1.940599 5.000000 -0.044472 0.004003 -0.000180
 30 6.551491 0.000000 0.000001 -1.037339 -0.594036 -0.927022
 31 0.000000 -1.940599 5.000001 -0.027189 -0.053376 0.005295
 32 6.551491 0.000000 0.000001 -0.384871 -0.079762 -0.358045
 33 0.000000 -1.940599 4.999998 -0.066572 -0.152786 -0.110311
 34 -0.223636 -1.175475 -1.249894 1.209612 0.817000 -1.135926
 35 6.384776 0.000003 -0.000000 1.056646 0.471978 -0.901522
 36 10.242682 -0.000000 0.000002 0.000000 0.000000 -2.201952
 37 11.375563 0.000000 0.000000 2.776347 0.525585 1.010468
 38 0.728680 0.023431 1.008292 -1.579583 -0.319038 0.212973
 39 2.136498 -0.000001 0.000001 -0.000000 0.000000 1.282817
 40 2.313139 0.000001 0.000001 0.000000 0.000000 3.141593
 41 3.115507 -0.886042 0.021432 0.420766 0.316066 0.167178
 42 2.011153 -0.000001 0.000001 0.000000 0.000000 2.082010
 43 2.141381 0.000001 -0.000001 0.000000 0.000000 3.141593
 44 1.734173 -0.000001 -0.000001 0.000000 0.000000 1.041748
 45 0.136315 -3.738193 2.525891 1.493698 2.759406 -1.474501
 46 10.273804 -0.437100 1.198994 1.793563 0.004868 1.507198
 47 11.389366 -0.000818 0.158783 2.068726 0.395503 0.384152
 48 0.000001 -4.440602 0.000001 1.570144 -3.078602 0.004040
 49 6.000000 -0.000000 0.000003 2.068726 -0.000000 -0.000000
 50 0.000001 -4.440600 0.000001 1.569944 -3.078603 0.004053
 51 10.510132 -0.000001 0.000001 0.000000 -0.000000 -2.671773
 52 -0.000000 -1.748399 -5.000003 -3.141593 0.004007 -1.539299
 53 5.499999 -0.000001 0.000001 -0.368205 -0.000000 -0.000000
 54 -0.000000 0.000001 -5.000000 -0.044472 3.137589 -0.000177
 55 6.551490 0.000000 0.000003 0.368205 0.013614 -0.304960
 56 -1.266843 -1.937444 -4.950558 -0.066572 -2.988806 -0.110308
 57 6.551491 0.000003 0.000000 0.368205 0.013614 -0.304960
 58 0.699369 -1.944209 -5.006847 -0.027189 -3.088217 0.005298
 59 4.226146 -0.003203 -0.000000 0.409677 -0.133627 -0.354114
 60 0.000001 5.000002 0.000000 -0.153564 0.000087 2.718702
 61 0.000006 -0.000006 -3.713579 0.119535 -2.936655 -0.885276
 62 0.000001 0.000000 5.000000 3.053195 1.558589 -0.074929
 63 -0.000005 0.000005 3.713580 -0.311487 -2.845558 -0.582080
 64 0.000001 0.000000 -5.000000 -0.088726 1.558589 3.066335
 65 7.363603 1.646646 0.495663 -3.141593 -1.570796 0.000000
 66 -0.000005 0.000005 3.619082 -0.441735 -2.434423 -1.159240
 67 16.573917 -0.000000 0.000001 -0.000000 -0.000000 -2.011748
 68 15.128181 0.000000 -0.000000 0.026832 0.026147 -0.175154
 69 5.758666 4.244731 0.000000 0.000000 -0.000000 2.033309
 70 3.177727 0.000000 0.000000 0.000000 0.000000 3.141593
 71 15.708951 0.000002 -0.000000 0.013957 0.013894 -0.093781
 72 0.275148 0.189215 -3.445208 3.130898 0.000409 -1.514604
 73 17.210192 -0.000001 0.000002 -0.000000 0.000000 -2.319003
 74 0.000000 -0.000001 -5.000000 -0.079433 1.546568 -1.570857
 75 0.000007 -0.000004 -3.619079 0.260448 -2.945758 -1.468642
 76 16.573919 -0.000000 0.000001 0.000000 0.000000 -1.562392
 77 15.128181 0.000000 0.000001 0.265624 -0.173430 0.666428
 78 5.758665 4.244731 0.000000 -0.000000 0.000000 1.483530
 79 4.003934 -0.000000 0.000000 0.000000 0.000000 0.000000
 80 15.708953 0.000000 0.000000 0.195074 -0.100553 0.460486
 81 0.273998 0.191090 3.439762 -3.130907 -0.000437 -1.508107
 82 17.210196 0.000000 0.000001 -0.000000 0.000000 -2.116793
 83 0.000000 -0.000001 5.000000 -0.079311 1.595025 -1.570737
time 4
  0 0.500000 13.522099 26.931471 -0.243067 0.535714 -2.432935
  1 13.773751 5.584523 -22.520975 -0.544290 0.221328 2.303921
  2 -2.276934 0.000003 -1.238185 -1.570795 -1.570451 0.000000
  3 1.796027 0.712075 0.000717 -0.225859 -0.205004 -0.309552
  4 4.120432 -0.002669 0.000554 -0.172560 0.180354 0.568998
  5 4.117941 -0.003103 0.000825 -0.280521 0.436351 -0.330415
  6 4.119997 -0.002947 0.000368 -0.123225 0.429131 0.389835
  7 4.117309 -0.002246 -0.002409 0.756227 -0.129426 -0.643058
  8 4.443599 -0.000000 -0.000000 -0.670633 0.295524 -0.442614
  9 9.024061 -0.000001 0.000001 0.000000 0.000000 0.000000
 10 0.223640 1.182552 1.249895 -0.936492 -2.548784 -1.538393
 11 6.384776 -0.000003 -0.000001 -1.298786 -0.892838 -1.194613
 12 10.242682 -0.000000 -0.000001 0.000000 0.000000 -1.303227
 13 11.375565 -0.000001 0.000001 2.698291 0.292542 0.217258
 14 0.728680 0.023431 -1.008294 0.867878 0.712365 -0.046112
 15 2.136494 -0.000001 0.000001 -0.000000 0.000000 -0.078540
 16 2.313140 -0.000000 -0.000000 0.000000 0.000000 0.000000
 17 3.115505 -0.886041 -0.021430 -0.611647 0.000152 0.191986
 18 2.011151 0.000000 0.000001 0.000000 0.000000 1.218072
 19 2.141377 -0.000002 -0.000001 0.000000 0.000000 0.000000
 20 1.734175 0.000001 0.000001 -0.000000 0.000000 0.608208
 21 0.000006 -4.440593 0.000000 1.570544 -0.062990 -0.195737
 22 6.000001 0.000001 0.000001 3.039005 -0.000000 -0.000000
 23 0.000000 -4.440599 0.000000 1.569944 -0.062987 0.004053
 24 11.375563 -0.000001 0.000004 -2.570717 0.079645 0.228312
 25 -0.000001 -4.440604 0.000002 1.570144 -0.062988 0.004040
 26 10.510130 -0.000001 -0.000002 0.000000 -0.000000 -2.222410
 27 0.000001 -1.748401 5.000000 0.000000 0.004007 1.602290
 28 5.500000 -0.000002 -0.000000 0.510507 -0.000000 -0.000000
 29 -0.000002 -1.940598 5.000000 -0.044472 0.004003 -0.000180
 30 6.551491 0.000000 0.000001 -1.051156 -0.591625 -0.915883
 31 0.000000 -1.940599 5.000001 -0.027189 -0.053376 0.005295
 32 6.551491 0.000000 0.000001 -0.388192 -0.078182 -0.355041
 33 0.000000 -1.940599 4.999999 -0.066572 -0.152786 -0.110311
 34 -0.223636 -1.175475 -1.249894 1.276305 0.848828 -1.052658
 35 6.384777 0.000001 -0.000001 1.100914 0.448841 -0.840778
 36 10.242682 -0.000000 -0.000002 0.000000 -0.000000 -2.208648
 37 11.375563 -0.000001 0.000002 2.797052 0.520453 1.036173
 38 0.728681 0.023432 1.008292 -1.579583 -0.319038 0.212973
 39 2.136497 0.000001 0.000001 -0.000000 0.000000 1.282817
 40 2.313139 0.000000 -0.000000 0.000000 0.000000 3.141593
 41 3.115504 -0.886040 0.021430 0.420765 0.316066 0.167178
 42 2.011149 -0.000000 0.000002 -0.000000 0.000000 2.082010
 43 2.141381 -0.000001 0.000000 0.000000 0.000000 3.141593
 44 1.734172 -0.000000 0.000002 -0.000000 -0.000000 1.041748
 45 0.136315 -3.738190 2.525889 1.493698 2.759406 -1.474501
 46 10.273804 -0.437099 1.198993 1.793563 0.004868 1.507198
 47 11.389365 -0.000820 0.158783 2.077223 0.399381 0.395149
 48 0.000002 -4.440600 0.000001 1.570144 -3.078602 0.004040
 49 6.000000 -0.000001 0.000002 2.077222 0.000000 -0.000000
 50 0.000001 -4.440602 0.000000 1.569944 -3.078603 0.004053
 51 10.510130 -0.000000 0.000000 0.000000 0.000000 -2.675120
 52 0.000001 -1.748399 -5.000002 3.141593 0.004007 -1.539299
 53 5.500000 0.000001 -0.000001 -0.373773 -0.000000 -0.000000
 54 -0.000001 -0.000000 -5.000000 -0.044472 3.137589 -0.000177
 55 6.551492 0.000000 -0.000001 0.373773 0.008658 -0.294647
 56 -1.266843 -1.937443 -4.950562 -0.066572 -2.988806 -0.110308
 57 6.551492 0.000000 -0.000001 0.373773 0.008658 -0.294647
 58 0.699370 -1.944208 -5.006848 -0.027189 -3.088217 0.005298
 59 4.226146 -0.003203 -0.000000 0.409677 -0.133627 -0.354114
 60 0.000001 5.000002 0.000000 -0.153564 0.000087 2.718702
 61 0.000006 -0.000006 -3.713579 0.119535 -2.936655 -0.885276
 62 0.000001 0.000000 5.000000 3.053195 1.558589 -0.074929
 63 -0.000005 0.000005 3.713580 -0.311487 -2.845558 -0.582080
 64 0.000001 0.000000 -5.000000 -0.088726 1.558589 3.066335
 65 7.363603 1.646646 0.495663 -3.141593 -1.570796 0.000000
 66 -0.000005 0.000005 3.619082 -0.441735 -2.434423 -1.159240
 67 16.573917 -0.000000 0.000001 -0.000000 -0.000000 -2.011748
 68 15.128181 0.000000 -0.000000 0.026832 0.026147 -0.175154
 69 5.758666 4.244731 0.000000 0.000000 -0.000000 2.033309
 70 3.177727 0.000000 0.000000 0.000000 0.000000 3.141593
 71 15.708951 0.000002 -0.000000 0.013957 0.013894 -0.093781
 72 0.275148 0.189215 -3.445208 3.130898 0.000409 -1.514604
 73 17.210192 -0.000001 0.000002 -0.000000 0.000000 -2.319003
 74 0.000000 -0.000001 -5.000000 -0.079433 1.546568 -1.570857
 75 0.000007 -0.000004 -3.619079 0.260448 -2.945758 -1.468642
 76 16.573919 -0.000000 0.000001 0.000000 0.000000 -1.562392
 77 15.128181 0.000000 0.000001 0.265624 -0.173430 0.666428
 78 5.758665 4.244731 0.000000 -0.000000 0.000000 1.483530
 79 4.003934 -0.000000 0.000000 0.000000 0.000000 0.000000
 80 15.708953 0.000000 0.000000 0.195074 -0.100553 0.460486
 81 0.273998 0.191090 3.439762 -3.130907 -0.000437 -1.508107
 82 17.210196 0.000000 0.000001 -0.000000 0.000000 -2.116793
 83 0.000000 -0.000001 5.000000 -0.079311 1.595025 -1.570737
time 5
  0 0.500000 13.522099 26.931471 -0.243067 0.535714 -2.432935
  1 13.773751 5.584523 -22.520975 -0.544290 0.221328 2.303921
  2 -2.276934 0.000003 -1.238185 -1.570795 -1.570451 0.000000
  3 1.796027 0.712075 0.000717 -0.225859 -0.205004 -0.309552
  4 4.120432 -0.002669 0.000554 -0.172560 0.180354 0.568998
  5 4.117941 -0.003103 0.000825 -0.280521 0.436351 -0.330415
  6 4.119997 -0.002947 0.000368 -0.123225 0.429131 0.389835
  7 4.117309 -0.002246 -0.002409 0.756227 -0.129426 -0.643058
  8 4.443599 -0.000000 -0.000000 -0.670633 0.295524 -0.442614
  9 9.024061 -0.000001 0.000001 0.000000 0.000000 0.000000
 10 0.223640 1.182552 1.249895 -0.936492 -2.548784 -1.538393
 11 6.384776 -0.000003 -0.000001 -1.298786 -0.892838 -1.194613
 12 10.242682 -0.000000 -0.000001 0.000000 0.000000 -1.303227
 13 11.375565 -0.000001 0.000001 2.698291 0.292542 0.217258
 14 0.728680 0.023431 -1.008294 0.867878 0.712365 -0.046112
 15 2.136494 -0.000001 0.000001 -0.000000 0.000000 -0.078540
 16 2.313140 -0.000000 -0.000000 0.000000 0.000000 0.000000
 17 3.115505 -0.886041 -0.021430 -0.611647 0.000152 0.191986
 18 2.011151 0.000000 0.000001 0.000000 0.000000 1.218072
 19 2.141377 -0.000002 -0.000001 0.000000 0.000000 0.000000
 20 1.734175 0.000001 0.000001 -0.000000 0.000000 0.608208
 21 0.000006 -4.440593 0.000000 1.570544 -0.062990 -0.195737
 22 6.000001 0.000001 0.000001 3.039005 -0.000000 -0.000000
 23 0.000000 -4.440599 0.000000 1.569944 -0.062987 0.004053
 24 11.375563 -0.000001 0.000004 -2.570717 0.079645 0.228312
 25 -0.000001 -4.440604 0.000002 1.570144 -0.062988 0.004040
 26 10.510130 -0.000001 -0.000002 0.000000 -0.000000 -2.222410
 27 0.000001 -1.748401 5.000000 0.000000 0.004007 1.602290
 28 5.500000 -0.000002 -0.000000 0.510507 -0.000000 -0.000000
 29 -0.000002 -1.940598 5.000000 -0.044472 0.004003 -0.000180
 30 6.551491 0.000000 0.000001 -1.051156 -0.591625 -0.915883
 31 0.000000 -1.940599 5.000001 -0.027189 -0.053376 0.005295
 32 6.551491 0.000000 0.000001 -0.388192 -0.078182 -0.355041
 33 0.000000 -1.940599 4.999999 -0.066572 -0.152786 -0.110311
 34 -0.223636 -1.175475 -1.249894 1.276305 0.848828 -1.052658
 35 6.384777 0.000001 -0.000001 1.100914 0.448841 -0.840778
 36 10.242682 -0.000000 -0.000002 0.000000 -0.000000 -2.208648
 37 11.375563 -0.000001 0.000002 2.797052 0.520453 1.036173
 38 0.728681 0.023432 1.008292 -1.579583 -0.319038 0.212973
 39 2.136497 0.000001 0.000001 -0.000000 0.000000 1.282817
 40 2.313139 0.000000 -0.000000 0.000000 0.000000 3.141593
 41 3.115504 -0.886040 0.021430 0.420765 0.316066 0.167178
 42 2.011149 -0.000000 0.000002 -0.000000 0.000000 2.082010
 43 2.141381 -0.000001 0.000000 0.000000 0.000000 3.141593
 44 1.734172 -0.000000 0.000002 -0.000000 -0.000000 1.041748
 45 0.136315 -3.738190 2.525889 1.493698 2.759406 -1.474501
 46 10.273804 -0.437099 1.198993 1.793563 0.004868 1.507198
 47 11.389365 -0.000820 0.158783 2.077223 0.399381 0.395149
 48 0.000002 -4.440600 0.000001 1.570144 -3.078602 0.004040
 49 6.000000 -0.000001 0.000002 2.077222 0.000000 -0.000000
 50 0.000001 -4.440602 0.000000 1.569944 -3.078603 0.004053
 51 10.510130 -0.000000 0.000000 0.000000 0.000000 -2.675120
 52 0.000001 -1.748399 -5.000002 3.141593 0.004007 -1.539299
 53 5.500000 0.000001 -0.000001 -0.373773 -0.000000 -0.000000
 54 -0.000001 -0.000000 -5.000000 -0.044472 3.137589 -0.000177
 55 6.551492 0.000000 -0.000001 0.373773 0.008658 -0.294647
 56 -1.266843 -1.937443 -4.950562 -0.066572 -2.988806 -0.110308
 57 6.551492 0.000000 -0.000001 0.373773 0.008658 -0.294647
 58 0.699370 -1.944208 -5.006848 -0.027189 -3.088217 0.005298
 59 4.226146 -0.003203 -0.000000 0.409677 -0.133627 -0.354114
 60 0.000001 5.000002 0.000000 -0.153564 0.000087 2.718702
 61 0.000006 -0.000006 -3.713579 0.119535 -2.936655 -0.885276
 62 0.000001 0.000000 5.000000 3.053195 1.558589 -0.074929
 63 -0.000005 0.000005 3.713580 -0.311487 -2.845558 -0.582080
 64 0.000001 0.000000 -5.000000 -0.088726 1.558589 3.066335
 65 7.363603 1.646646 0.495663 -3.141593 -1.570796 0.000000
 66 -0.000005 0.000005 3.619082 -0.441735 -2.434423 -1.159240
 67 16.573917 -0.000000 0.000001 -0.000000 -0.000000 -2.011748
 68 15.128181 0.000000 -0.000000 0.026832 0.026147 -0.175154
 69 5.758666 4.244731 0.000000 0.000000 -0.000000 2.033309
 70 3.177727 0.000000 0.000000 0.000000 0.000000 3.141593
 71 15.708951 0.000002 -0.000000 0.013957 0.013894 -0.093781
 72 0.275148 0.189215 -3.445208 3.130898 0.000409 -1.514604
 73 17.210192 -0.000001 0.000002 -0.000000 0.000000 -2.319003
 74 0.000000 -0.000001 -5.000000 -0.079433 1.546568 -1.570857
 75 0.000007 -0.000004 -3.619079 0.260448 -2.945758 -1.468642
 76 16.573919 -0.000000 0.000001 0.000000 0.000000 -1.562392
 77 15.128181 0.000000 0.000001 0.265624 -0.173430 0.666428
 78 5.758665 4.244731 0.000000 -0.000000 0.000000 1.483530
 79 4.003934 -0.000000 0.000000 0.000000 0.000000 0.000000
 80 15.708953 0.000000 0.000000 0.195074 -0.100553 0.460486
 81 0.273998 0.191090 3.439762 -3.130907 -0.000437 -1.508107
 82 17.210196 0.000000 0.000001 -0.000000 0.000000 -2.116793
 83 0.000000 -0.000001 5.000000 -0.079311 1.595025 -1.570737
end
