version 1
nodes
  0 "Bip01"  -1
  1 "Bip01 Footsteps"   0
  2 "Bip01 Pelvis"   0
  3 "Bip01 Spine"   2
  4 "Bip01 Spine1"   3
  5 "Bip01 Spine2"   4
  6 "Bip01 Spine3"   5
  7 "Bip01 Neck"   6
  8 "Bip01 Head"   7
  9 "Dummy21"   8
 10 "Bip01 L Clavicle"   7
 11 "Bip01 L UpperArm"  10
 12 "Bip01 L Forearm"  11
 13 "Bip01 L Hand"  12
 14 "Bip01 L Finger0"  13
 15 "Bip01 L Finger01"  14
 16 "Dummy06"  15
 17 "Bip01 L Finger1"  13
 18 "Bip01 L Finger11"  17
 19 "Dummy03"  18
 20 "-- L knuckle"  17
 21 "-- L knuckle_end"  20
 22 "-- L Forearm twist"  12
 23 "-- L Forearm twist_end"  22
 24 "-- L wrist"  12
 25 "-- L wrist_end"  24
 26 "-- L Elbow"  11
 27 "--L Elbow_end"  26
 28 "-- L bicep twist"  11
 29 "-- L bicep twist_end"  28
 30 "-- L shoulder outside"  10
 31 "-- L shoulder outside_end"  30
 32 "-- L Shoulder inside"  10
 33 "-- L Shoulder inside_end"  32
 34 "Bip01 R Clavicle"   7
 35 "Bip01 R UpperArm"  34
 36 "Bip01 R Forearm"  35
 37 "Bip01 R Hand"  36
 38 "Bip01 R Finger0"  37
 39 "Bip01 R Finger01"  38
 40 "Dummy01"  39
 41 "Bip01 R Finger1"  37
 42 "Bip01 R Finger11"  41
 43 "Dummy02"  42
 44 "-- R knuckle"  41
 45 "Point06"  44
 46 "Line03"  37
 47 "-- R wrist"  36
 48 "-- R wrist_end"  47
 49 "-- R forearm twist"  36
 50 "-- R forearm twist_end"  49
 51 "-- R Elbow"  35
 52 "--R Elbow_end"  51
 53 "-- R bicep twist"  35
 54 "-- R bicep twist_end"  53
 55 "-- R Shoulder inside"  34
 56 "-- R Shoulder inside_end"  55
 57 "-- R shoulder outside"  34
 58 "-- R shoulder outside_end"  57
 59 "-- Neck smooth"   6
 60 "-- neck smooth end"  59
 61 "-- R Butt"   2
 62 "--R Butt_end"  61
 63 "-- L butt"   2
 64 "--L butt_end"  63
 65 "GIGN01"   2
 66 "Bip01 L Thigh"   2
 67 "Bip01 L Calf"  66
 68 "Bip01 L Foot"  67
 69 "Bip01 L Toe0"  68
 70 "Dummy16"  69
 71 "-- L ankle"  67
 72 "-- L ankleend"  71
 73 "-- L Knee"  66
 74 "--L Knee_end"  73
 75 "Bip01 R Thigh"   2
 76 "Bip01 R Calf"  75
 77 "Bip01 R Foot"  76
 78 "Bip01 R Toe0"  77
 79 "Dummy11"  78
 80 "-- R Ankle"  76
 81 "-- R ankleend"  80
 82 "-- R Knee"  75
 83 "--R Knee_end"  82
end
skeleton
time 0
  0 0.500000 13.522099 26.931471 -0.243067 0.535714 -2.432935
  1 13.773751 5.584523 -22.520975 -0.544290 0.221328 2.303921
  2 -2.276934 0.000003 -1.238185 -1.570795 -1.570451 0.000000
  3 1.796409 0.711898 -0.000356 0.112586 -0.275191 -0.258086
  4 4.120567 -0.002628 -0.000099 0.029896 -0.041071 0.640281
  5 4.118023 -0.003227 -0.000034 0.010204 0.110850 -0.176721
  6 4.118047 -0.003229 -0.000193 0.059011 0.116584 -0.163810
  7 4.116597 -0.002092 -0.002028 0.633541 0.252193 -0.582313
  8 4.443602 0.000000 0.000001 -0.275915 0.476739 -0.142365
  9 9.024064 -0.000000 0.000001 0.000000 0.000000 0.000000
 10 -0.432354 0.996861 1.352292 -1.169760 -2.708332 -1.506236
 11 6.384777 -0.000001 0.000001 -1.606031 -0.407817 -1.211620
 12 10.242682 -0.000002 0.000000 0.000000 0.000000 -1.643575
 13 11.375563 -0.000000 0.000000 -3.080654 0.505523 0.015139
 14 0.728680 0.023431 -1.008292 0.867878 0.712366 -0.046112
 15 2.136500 0.000001 0.000000 -0.000000 0.000000 -0.078540
 16 2.313137 -0.000001 0.000000 0.000000 0.000000 0.000000
 17 3.115504 -0.886041 -0.021431 -0.611647 0.000152 0.191986
 18 2.011151 0.000000 -0.000000 0.000000 0.000000 0.659566
 19 2.141380 -0.000001 -0.000000 0.000000 0.000000 0.000000
 20 1.734171 0.000000 0.000001 -0.000000 -0.000000 0.330185
 21 0.000006 -4.440593 0.000002 1.570544 -0.062990 -0.195737
 22 6.000001 0.000000 -0.000000 -2.744183 -0.000000 -0.000000
 23 0.000004 -4.440601 -0.000000 1.569944 -0.062987 0.004053
 24 11.375563 0.000000 0.000004 -2.295349 0.261354 0.126218
 25 -0.000000 -4.440603 0.000001 1.570144 -0.062988 0.004040
 26 10.510131 -0.000001 -0.000000 0.000000 0.000000 -2.392584
 27 0.000000 -1.748402 4.999998 -0.000000 0.004007 1.602290
 28 5.500000 0.000002 -0.000000 0.595945 0.000000 -0.000000
 29 -0.000002 -1.940599 5.000002 -0.044472 0.004003 -0.000180
 30 6.551491 -0.000000 0.000001 -1.256730 -0.145101 -0.828368
 31 0.000000 -1.940598 5.000001 -0.027189 -0.053376 0.005295
 32 6.551491 -0.000000 0.000001 -0.454068 0.083127 -0.302806
 33 0.000001 -1.940599 4.999995 -0.066572 -0.152786 -0.110311
 34 0.432362 -0.989785 -1.352292 0.716245 1.258398 -1.806561
 35 6.384777 -0.000000 -0.000001 0.777419 0.606244 -0.792352
 36 10.242682 0.000000 0.000001 0.000000 -0.000000 -2.296044
 37 11.375561 0.000000 -0.000001 2.806308 0.538836 1.079918
 38 0.728679 0.023431 1.008291 -1.579583 -0.319038 0.212973
 39 2.136496 -0.000000 -0.000000 -0.000000 0.000000 1.282817
 40 2.313139 -0.000002 -0.000000 0.000000 0.000000 3.141593
 41 3.115506 -0.886041 0.021432 0.420765 0.316066 0.167178
 42 2.011152 0.000001 0.000002 -0.000000 -0.000000 2.082010
 43 2.141380 0.000001 -0.000003 0.000000 0.000000 3.141593
 44 1.734173 -0.000000 0.000001 0.000000 0.000000 1.041748
 45 0.136315 -3.738192 2.525891 1.493698 2.759406 -1.474501
 46 10.273802 -0.437101 1.198990 1.793563 0.004868 1.507198
 47 11.389366 -0.000819 0.158784 2.071973 0.414383 0.409567
 48 0.000001 -4.440600 0.000000 1.570144 -3.078602 0.004040
 49 6.000000 0.000000 0.000002 2.071973 0.000000 0.000000
 50 0.000001 -4.440599 -0.000001 1.569944 -3.078603 0.004053
 51 10.510132 -0.000000 0.000000 -0.000000 -0.000000 -2.718818
 52 -0.000001 -1.748398 -5.000002 -3.141593 0.004007 -1.539299
 53 5.500000 -0.000000 0.000001 -0.289808 0.000000 -0.000000
 54 0.000001 -0.000000 -5.000000 -0.044472 3.137589 -0.000177
 55 6.551491 -0.000000 0.000000 0.289808 0.079489 -0.279777
 56 -1.266844 -1.937442 -4.950562 -0.066572 -2.988806 -0.110308
 57 6.551492 -0.000000 -0.000000 0.289808 0.079489 -0.279777
 58 0.699370 -1.944208 -5.006846 -0.027189 -3.088217 0.005298
 59 4.226146 -0.003201 -0.000000 0.364505 0.092380 -0.351528
 60 -0.000000 5.000001 -0.000001 -0.153564 0.000087 2.718702
 61 0.000006 -0.000006 -3.713579 0.119535 -2.936655 -0.885276
 62 0.000001 0.000000 5.000000 3.053195 1.558589 -0.074929
 63 -0.000005 0.000005 3.713580 -0.311487 -2.845558 -0.582080
 64 0.000001 0.000000 -5.000000 -0.088726 1.558589 3.066335
 65 7.363603 1.646646 0.495663 -3.141593 -1.570796 0.000000
 66 -0.000005 0.000005 3.619082 -0.441735 -2.434423 -1.159240
 67 16.573917 -0.000000 0.000001 -0.000000 -0.000000 -2.011748
 68 15.128181 0.000000 -0.000000 0.026832 0.026147 -0.175154
 69 5.758666 4.244731 0.000000 0.000000 -0.000000 2.033309
 70 3.177727 0.000000 0.000000 0.000000 0.000000 3.141593
 71 15.708951 0.000002 -0.000000 0.013957 0.013894 -0.093781
 72 0.275148 0.189215 -3.445208 3.130898 0.000409 -1.514604
 73 17.210192 -0.000001 0.000002 -0.000000 0.000000 -2.319003
 74 0.000000 -0.000001 -5.000000 -0.079433 1.546568 -1.570857
 75 0.000007 -0.000004 -3.619079 0.260448 -2.945758 -1.468642
 76 16.573919 -0.000000 0.000001 0.000000 0.000000 -1.562392
 77 15.128181 0.000000 0.000001 0.265624 -0.173430 0.666428
 78 5.758665 4.244731 0.000000 -0.000000 0.000000 1.483530
 79 4.003934 -0.000000 0.000000 0.000000 0.000000 0.000000
 80 15.708953 0.000000 0.000000 0.195074 -0.100553 0.460486
 81 0.273998 0.191090 3.439762 -3.130907 -0.000437 -1.508107
 82 17.210196 0.000000 0.000001 -0.000000 0.000000 -2.116793
 83 0.000000 -0.000001 5.000000 -0.079311 1.595025 -1.570737
time 1
  0 0.500000 13.522099 26.931471 -0.243067 0.535714 -2.432935
  1 13.773751 5.584523 -22.520975 -0.544290 0.221328 2.303921
  2 -2.276934 0.000003 -1.238185 -1.570795 -1.570451 0.000000
  3 1.796402 0.711899 -0.000360 0.113160 -0.266192 -0.260065
  4 4.120558 -0.002631 -0.000098 0.030046 -0.029354 0.637721
  5 4.118015 -0.003227 -0.000032 0.009798 0.093427 -0.179820
  6 4.118035 -0.003224 -0.000190 0.058363 0.084812 -0.168612
  7 4.116664 -0.002395 -0.001737 0.529213 0.233340 -0.545504
  8 4.443600 -0.000000 -0.000000 -0.188327 0.503096 -0.193881
  9 9.024061 0.000000 0.000001 0.000000 0.000000 0.000000
 10 -0.400651 0.854600 1.455161 -1.180143 -2.595482 -1.541622
 11 6.384777 -0.000000 -0.000002 -1.585640 -0.439610 -1.227354
 12 10.242682 -0.000000 0.000000 0.000000 -0.000000 -1.558991
 13 11.375560 0.000000 0.000001 -3.097490 0.507430 -0.030708
 14 0.728679 0.023430 -1.008292 0.867878 0.712365 -0.046112
 15 2.136500 0.000000 0.000000 -0.000000 0.000000 -0.078540
 16 2.313139 -0.000001 0.000000 0.000000 0.000000 0.000000
 17 3.115504 -0.886041 -0.021431 -0.611647 0.000152 0.191986
 18 2.011151 -0.000000 -0.000000 0.000000 0.000000 0.659566
 19 2.141377 0.000001 -0.000002 0.000000 0.000000 0.000000
 20 1.734175 0.000001 -0.000002 0.000000 0.000000 0.330185
 21 0.000006 -4.440593 0.000002 1.570544 -0.062990 -0.195737
 22 6.000000 0.000000 0.000000 -2.756779 0.000000 -0.000000
 23 0.000003 -4.440601 -0.000000 1.569944 -0.062987 0.004053
 24 11.375564 -0.000000 0.000003 -2.299833 0.272592 0.103706
 25 -0.000001 -4.440604 0.000000 1.570144 -0.062988 0.004040
 26 10.510130 0.000001 -0.000000 0.000000 0.000000 -2.350292
 27 0.000000 -1.748402 4.999999 -0.000000 0.004007 1.602291
 28 5.500000 0.000002 0.000000 0.590156 0.000000 0.000000
 29 -0.000002 -1.940600 5.000000 -0.044472 0.004003 -0.000180
 30 6.551492 -0.000000 -0.000003 -1.241597 -0.175826 -0.842565
 31 0.000000 -1.940599 5.000001 -0.027189 -0.053376 0.005295
 32 6.551492 -0.000000 -0.000003 -0.449525 0.072830 -0.310608
 33 -0.000001 -1.940599 4.999997 -0.066572 -0.152786 -0.110311
 34 0.400654 -0.847523 -1.455161 0.736821 1.375874 -1.820648
 35 6.384777 -0.000000 0.000002 0.818605 0.565861 -0.782222
 36 10.242682 0.000001 0.000003 0.000000 0.000000 -2.286843
 37 11.375562 0.000001 -0.000005 2.806308 0.538836 1.079918
 38 0.728679 0.023431 1.008292 -1.579583 -0.319038 0.212973
 39 2.136497 0.000000 -0.000000 -0.000000 -0.000000 1.282817
 40 2.313139 -0.000001 -0.000000 0.000000 0.000000 3.141593
 41 3.115505 -0.886041 0.021432 0.420766 0.316066 0.167178
 42 2.011150 0.000000 0.000001 0.000000 0.000000 2.082010
 43 2.141379 -0.000001 0.000002 0.000000 0.000000 3.141593
 44 1.734172 -0.000001 0.000000 -0.000000 0.000000 1.041748
 45 0.136315 -3.738191 2.525890 1.493698 2.759406 -1.474501
 46 10.273803 -0.437101 1.198992 1.793563 0.004868 1.507198
 47 11.389366 -0.000819 0.158780 2.071973 0.414383 0.409568
 48 0.000000 -4.440599 -0.000000 1.570144 -3.078602 0.004040
 49 5.999999 -0.000000 -0.000001 2.071973 -0.000000 -0.000000
 50 0.000002 -4.440603 -0.000000 1.569944 -3.078603 0.004053
 51 10.510132 0.000000 0.000001 -0.000000 0.000000 -2.714218
 52 -0.000000 -1.748399 -5.000000 3.141593 0.004007 -1.539299
 53 5.500000 0.000000 0.000001 -0.299770 -0.000000 0.000000
 54 -0.000000 -0.000000 -4.999998 -0.044472 3.137589 -0.000177
 55 6.551491 -0.000000 0.000002 0.299770 0.064662 -0.280350
 56 -1.266843 -1.937444 -4.950559 -0.066572 -2.988806 -0.110308
 57 6.551491 -0.000000 0.000002 0.299770 0.064662 -0.280350
 58 0.699371 -1.944209 -5.006845 -0.027189 -3.088217 0.005298
 59 4.226146 -0.003201 0.000001 0.304300 0.093759 -0.328369
 60 -0.000002 5.000001 0.000000 -0.153564 0.000087 2.718702
 61 0.000006 -0.000006 -3.713579 0.119535 -2.936655 -0.885276
 62 0.000001 0.000000 5.000000 3.053195 1.558589 -0.074929
 63 -0.000005 0.000005 3.713580 -0.311487 -2.845558 -0.582080
 64 0.000001 0.000000 -5.000000 -0.088726 1.558589 3.066335
 65 7.363603 1.646646 0.495663 -3.141593 -1.570796 0.000000
 66 -0.000005 0.000005 3.619082 -0.441735 -2.434423 -1.159240
 67 16.573917 -0.000000 0.000001 -0.000000 -0.000000 -2.011748
 68 15.128181 0.000000 -0.000000 0.026832 0.026147 -0.175154
 69 5.758666 4.244731 0.000000 0.000000 -0.000000 2.033309
 70 3.177727 0.000000 0.000000 0.000000 0.000000 3.141593
 71 15.708951 0.000002 -0.000000 0.013957 0.013894 -0.093781
 72 0.275148 0.189215 -3.445208 3.130898 0.000409 -1.514604
 73 17.210192 -0.000001 0.000002 -0.000000 0.000000 -2.319003
 74 0.000000 -0.000001 -5.000000 -0.079433 1.546568 -1.570857
 75 0.000007 -0.000004 -3.619079 0.260448 -2.945758 -1.468642
 76 16.573919 -0.000000 0.000001 0.000000 0.000000 -1.562392
 77 15.128181 0.000000 0.000001 0.265624 -0.173430 0.666428
 78 5.758665 4.244731 0.000000 -0.000000 0.000000 1.483530
 79 4.003934 -0.000000 0.000000 0.000000 0.000000 0.000000
 80 15.708953 0.000000 0.000000 0.195074 -0.100553 0.460486
 81 0.273998 0.191090 3.439762 -3.130907 -0.000437 -1.508107
 82 17.210196 0.000000 0.000001 -0.000000 0.000000 -2.116793
 83 0.000000 -0.000001 5.000000 -0.079311 1.595025 -1.570737
time 2
  0 0.500000 13.522099 26.931471 -0.243067 0.535714 -2.432935
  1 13.773751 5.584523 -22.520975 -0.544290 0.221328 2.303921
  2 -2.276934 0.000003 -1.238185 -1.570795 -1.570451 0.000000
  3 1.796392 0.711902 -0.000361 0.113715 -0.257193 -0.262035
  4 4.120549 -0.002638 -0.000100 0.030166 -0.017636 0.635163
  5 4.118004 -0.003222 -0.000030 0.009447 0.076003 -0.182907
  6 4.118029 -0.003224 -0.000190 0.057869 0.053037 -0.173384
  7 4.116763 -0.002667 -0.001423 0.424581 0.218294 -0.506889
  8 4.443596 0.000001 0.000000 -0.102075 0.539660 -0.241182
  9 9.024062 0.000001 0.000001 0.000000 0.000000 0.000000
 10 -0.375245 0.700371 1.541407 1.955229 -0.659319 1.563097
 11 6.384776 -0.000000 0.000003 -1.565392 -0.473343 -1.243510
 12 10.242682 -0.000001 0.000000 -0.000000 0.000000 -1.471738
 13 11.375560 -0.000001 -0.000000 -3.115054 0.509751 -0.077057
 14 0.728680 0.023431 -1.008292 0.867878 0.712366 -0.046112
 15 2.136497 -0.000000 -0.000000 -0.000000 0.000000 -0.078540
 16 2.313138 -0.000001 -0.000000 0.000000 0.000000 0.000000
 17 3.115506 -0.886041 -0.021431 -0.611647 0.000152 0.191986
 18 2.011154 0.000001 -0.000000 0.000000 0.000000 0.659566
 19 2.141379 0.000000 -0.000000 0.000000 0.000000 0.000000
 20 1.734172 0.000000 0.000001 -0.000000 -0.000000 0.330185
 21 0.000008 -4.440594 0.000001 1.570544 -0.062990 -0.195737
 22 5.999999 -0.000000 0.000000 -2.770205 -0.000000 -0.000000
 23 0.000002 -4.440601 -0.000001 1.569944 -0.062987 0.004053
 24 11.375560 0.000000 0.000003 -2.304556 0.284105 0.081132
 25 -0.000001 -4.440603 -0.000000 1.570144 -0.062988 0.004040
 26 10.510131 -0.000001 0.000000 -0.000000 0.000000 -2.306665
 27 -0.000001 -1.748401 4.999999 -0.000000 0.004007 1.602290
 28 5.500000 0.000001 0.000000 0.584065 -0.000000 0.000000
 29 -0.000001 -1.940598 5.000001 -0.044472 0.004003 -0.000180
 30 6.551490 0.000000 0.000003 -1.226794 -0.208256 -0.858229
 31 0.000000 -1.940598 5.000000 -0.027189 -0.053376 0.005295
 32 6.551490 0.000000 0.000003 -0.444572 0.062211 -0.318350
 33 0.000000 -1.940599 4.999995 -0.066572 -0.152786 -0.110311
 34 0.375245 -0.693294 -1.541408 0.773918 1.492439 -1.820943
 35 6.384777 -0.000001 0.000001 0.858022 0.524955 -0.775135
 36 10.242682 0.000001 -0.000001 0.000000 -0.000000 -2.277641
 37 11.375562 0.000000 -0.000000 2.806308 0.538836 1.079918
 38 0.728680 0.023431 1.008290 -1.579583 -0.319038 0.212973
 39 2.136497 0.000001 -0.000000 -0.000000 0.000000 1.282817
 40 2.313139 -0.000001 0.000000 0.000000 0.000000 3.141593
 41 3.115508 -0.886041 0.021430 0.420766 0.316066 0.167178
 42 2.011151 0.000000 0.000002 -0.000000 0.000000 2.082010
 43 2.141380 0.000001 0.000001 0.000000 0.000000 3.141593
 44 1.734172 -0.000001 0.000000 -0.000000 -0.000000 1.041748
 45 0.136315 -3.738193 2.525890 1.493698 2.759406 -1.474501
 46 10.273806 -0.437101 1.198991 1.793563 0.004868 1.507198
 47 11.389367 -0.000819 0.158780 2.071973 0.414383 0.409567
 48 0.000000 -4.440598 0.000000 1.570144 -3.078602 0.004040
 49 6.000000 0.000001 -0.000002 2.071973 -0.000000 -0.000000
 50 0.000002 -4.440601 -0.000000 1.569944 -3.078603 0.004053
 51 10.510132 0.000001 0.000001 -0.000000 0.000000 -2.709617
 52 0.000000 -1.748399 -5.000000 3.141593 0.004007 -1.539299
 53 5.500000 0.000001 0.000001 -0.308937 -0.000000 0.000000
 54 -0.000001 -0.000000 -5.000000 -0.044472 3.137589 -0.000177
 55 6.551491 -0.000001 0.000001 0.308937 0.050474 -0.280519
 56 -1.266843 -1.937443 -4.950559 -0.066572 -2.988806 -0.110308
 57 6.551491 -0.000001 0.000001 0.308937 0.050474 -0.280519
 58 0.699370 -1.944208 -5.006846 -0.027189 -3.088217 0.005298
 59 4.226145 -0.003202 0.000000 0.244801 0.096125 -0.305323
 60 -0.000001 5.000002 -0.000000 -0.153564 0.000087 2.718702
 61 0.000006 -0.000006 -3.713579 0.119535 -2.936655 -0.885276
 62 0.000001 0.000000 5.000000 3.053195 1.558589 -0.074929
 63 -0.000005 0.000005 3.713580 -0.311487 -2.845558 -0.582080
 64 0.000001 0.000000 -5.000000 -0.088726 1.558589 3.066335
 65 7.363603 1.646646 0.495663 -3.141593 -1.570796 0.000000
 66 -0.000005 0.000005 3.619082 -0.441735 -2.434423 -1.159240
 67 16.573917 -0.000000 0.000001 -0.000000 -0.000000 -2.011748
 68 15.128181 0.000000 -0.000000 0.026832 0.026147 -0.175154
 69 5.758666 4.244731 0.000000 0.000000 -0.000000 2.033309
 70 3.177727 0.000000 0.000000 0.000000 0.000000 3.141593
 71 15.708951 0.000002 -0.000000 0.013957 0.013894 -0.093781
 72 0.275148 0.189215 -3.445208 3.130898 0.000409 -1.514604
 73 17.210192 -0.000001 0.000002 -0.000000 0.000000 -2.319003
 74 0.000000 -0.000001 -5.000000 -0.079433 1.546568 -1.570857
 75 0.000007 -0.000004 -3.619079 0.260448 -2.945758 -1.468642
 76 16.573919 -0.000000 0.000001 0.000000 0.000000 -1.562392
 77 15.128181 0.000000 0.000001 0.265624 -0.173430 0.666428
 78 5.758665 4.244731 0.000000 -0.000000 0.000000 1.483530
 79 4.003934 -0.000000 0.000000 0.000000 0.000000 0.000000
 80 15.708953 0.000000 0.000000 0.195074 -0.100553 0.460486
 81 0.273998 0.191090 3.439762 -3.130907 -0.000437 -1.508107
 82 17.210196 0.000000 0.000001 -0.000000 0.000000 -2.116793
 83 0.000000 -0.000001 5.000000 -0.079311 1.595025 -1.570737
time 3
  0 0.500000 13.522099 26.931471 -0.243067 0.535714 -2.432935
  1 13.773751 5.584523 -22.520975 -0.544290 0.221328 2.303921
  2 -2.276934 0.000003 -1.238185 -1.570795 -1.570451 0.000000
  3 1.796384 0.711905 -0.000364 0.114250 -0.248192 -0.263994
  4 4.120543 -0.002645 -0.000101 0.030256 -0.005918 0.632608
  5 4.117993 -0.003219 -0.000028 0.009150 0.058577 -0.185984
  6 4.118018 -0.003222 -0.000189 0.057527 0.021261 -0.178134
  7 4.116889 -0.002898 -0.001089 0.319616 0.207278 -0.466871
  8 4.443599 0.000000 -0.000000 -0.016890 0.585619 -0.282818
  9 9.024062 -0.000000 0.000000 0.000000 0.000000 0.000000
 10 -0.356586 0.536305 1.609760 1.954126 -0.772779 1.523314
 11 6.384777 0.000001 -0.000001 -1.545054 -0.509108 -1.260325
 12 10.242682 -0.000003 0.000000 -0.000000 -0.000000 -1.381426
 13 11.375560 -0.000000 0.000001 -3.133243 0.512441 -0.124183
 14 0.728682 0.023430 -1.008293 0.867878 0.712365 -0.046112
 15 2.136496 -0.000000 -0.000000 -0.000000 0.000000 -0.078540
 16 2.313139 -0.000001 -0.000000 0.000000 0.000000 0.000000
 17 3.115508 -0.886042 -0.021432 -0.611647 0.000152 0.191986
 18 2.011150 0.000000 0.000002 0.000000 0.000000 0.659566
 19 2.141376 0.000001 0.000002 0.000000 0.000000 0.000000
 20 1.734170 0.000001 0.000002 0.000000 -0.000000 0.330185
 21 0.000006 -4.440594 0.000001 1.570544 -0.062990 -0.195737
 22 6.000003 -0.000000 0.000001 -2.784325 0.000000 0.000000
 23 0.000002 -4.440600 0.000000 1.569944 -0.062987 0.004053
 24 11.375564 -0.000001 0.000004 -2.309428 0.295900 0.058426
 25 0.000001 -4.440605 -0.000000 1.570144 -0.062988 0.004040
 26 10.510130 -0.000002 -0.000001 -0.000000 0.000000 -2.261509
 27 -0.000000 -1.748402 4.999999 -0.000000 0.004007 1.602290
 28 5.500000 -0.000002 0.000000 0.577575 0.000000 0.000000
 29 -0.000001 -1.940598 5.000000 -0.044472 0.004003 -0.000180
 30 6.551491 0.000003 0.000001 -1.212105 -0.242507 -0.875564
 31 0.000001 -1.940599 5.000002 -0.027189 -0.053376 0.005295
 32 6.551491 0.000003 0.000001 -0.439132 0.051281 -0.326016
 33 -0.000000 -1.940599 4.999996 -0.066572 -0.152786 -0.110311
 34 0.356587 -0.529228 -1.609760 -2.451055 1.533405 1.196963
 35 6.384777 -0.000001 -0.000000 0.895973 0.483691 -0.770899
 36 10.242682 0.000000 0.000001 0.000000 -0.000000 -2.268440
 37 11.375562 0.000000 0.000000 2.806308 0.538836 1.079918
 38 0.728679 0.023431 1.008292 -1.579583 -0.319038 0.212973
 39 2.136493 0.000002 0.000000 -0.000000 0.000000 1.282817
 40 2.313139 -0.000002 0.000000 0.000000 0.000000 3.141593
 41 3.115505 -0.886041 0.021431 0.420766 0.316066 0.167178
 42 2.011150 -0.000001 -0.000002 -0.000000 0.000000 2.082010
 43 2.141380 0.000000 0.000002 0.000000 0.000000 3.141593
 44 1.734172 -0.000002 -0.000001 0.000000 -0.000000 1.041748
 45 0.136315 -3.738193 2.525891 1.493698 2.759406 -1.474501
 46 10.273805 -0.437102 1.198993 1.793563 0.004868 1.507198
 47 11.389366 -0.000818 0.158782 2.071973 0.414383 0.409567
 48 0.000002 -4.440599 0.000000 1.570144 -3.078602 0.004040
 49 5.999999 0.000000 0.000002 2.071973 -0.000000 -0.000000
 50 0.000001 -4.440601 -0.000001 1.569944 -3.078603 0.004053
 51 10.510132 0.000001 0.000004 -0.000000 -0.000000 -2.705016
 52 -0.000000 -1.748399 -5.000001 -3.141593 0.004007 -1.539299
 53 5.500000 0.000001 0.000003 -0.317410 0.000000 0.000000
 54 0.000000 -0.000000 -5.000002 -0.044472 3.137589 -0.000177
 55 6.551491 -0.000001 0.000000 0.317410 0.036811 -0.280285
 56 -1.266844 -1.937443 -4.950561 -0.066572 -2.988806 -0.110308
 57 6.551491 -0.000001 0.000000 0.317410 0.036811 -0.280285
 58 0.699370 -1.944206 -5.006849 -0.027189 -3.088217 0.005298
 59 4.226146 -0.003201 -0.000001 0.185746 0.099358 -0.282113
 60 0.000003 4.999999 -0.000000 -0.153564 0.000087 2.718702
 61 0.000006 -0.000006 -3.713579 0.119535 -2.936655 -0.885276
 62 0.000001 0.000000 5.000000 3.053195 1.558589 -0.074929
 63 -0.000005 0.000005 3.713580 -0.311487 -2.845558 -0.582080
 64 0.000001 0.000000 -5.000000 -0.088726 1.558589 3.066335
 65 7.363603 1.646646 0.495663 -3.141593 -1.570796 0.000000
 66 -0.000005 0.000005 3.619082 -0.441735 -2.434423 -1.159240
 67 16.573917 -0.000000 0.000001 -0.000000 -0.000000 -2.011748
 68 15.128181 0.000000 -0.000000 0.026832 0.026147 -0.175154
 69 5.758666 4.244731 0.000000 0.000000 -0.000000 2.033309
 70 3.177727 0.000000 0.000000 0.000000 0.000000 3.141593
 71 15.708951 0.000002 -0.000000 0.013957 0.013894 -0.093781
 72 0.275148 0.189215 -3.445208 3.130898 0.000409 -1.514604
 73 17.210192 -0.000001 0.000002 -0.000000 0.000000 -2.319003
 74 0.000000 -0.000001 -5.000000 -0.079433 1.546568 -1.570857
 75 0.000007 -0.000004 -3.619079 0.260448 -2.945758 -1.468642
 76 16.573919 -0.000000 0.000001 0.000000 0.000000 -1.562392
 77 15.128181 0.000000 0.000001 0.265624 -0.173430 0.666428
 78 5.758665 4.244731 0.000000 -0.000000 0.000000 1.483530
 79 4.003934 -0.000000 0.000000 0.000000 0.000000 0.000000
 80 15.708953 0.000000 0.000000 0.195074 -0.100553 0.460486
 81 0.273998 0.191090 3.439762 -3.130907 -0.000437 -1.508107
 82 17.210196 0.000000 0.000001 -0.000000 0.000000 -2.116793
 83 0.000000 -0.000001 5.000000 -0.079311 1.595025 -1.570737
time 4
  0 0.500000 13.522099 26.931471 -0.243067 0.535714 -2.432935
  1 13.773751 5.584523 -22.520975 -0.544290 0.221328 2.303921
  2 -2.276934 0.000003 -1.238185 -1.570795 -1.570451 0.000000
  3 1.796384 0.711905 -0.000364 0.114250 -0.248192 -0.263994
  4 4.120543 -0.002645 -0.000101 0.030256 -0.005918 0.632608
  5 4.117993 -0.003219 -0.000028 0.009150 0.058577 -0.185984
  6 4.118018 -0.003222 -0.000189 0.057527 0.021261 -0.178134
  7 4.117041 -0.003089 -0.000739 0.214339 0.200462 -0.425883
  8 4.443596 0.000000 -0.000000 0.097481 0.617800 -0.302870
  9 9.024062 -0.000000 0.000001 0.000000 0.000000 0.000000
 10 -0.345023 0.364707 1.659168 1.959936 -0.886336 1.478440
 11 6.384777 0.000001 -0.000001 -1.551452 -0.518845 -1.255467
 12 10.242682 -0.000000 0.000000 0.000000 -0.000000 -1.355643
 13 11.375556 0.000001 0.000001 3.136802 0.510527 -0.140726
 14 0.728681 0.023431 -1.008294 0.867878 0.712365 -0.046112
 15 2.136498 -0.000000 0.000000 -0.000000 0.000000 -0.078540
 16 2.313137 -0.000001 0.000000 0.000000 0.000000 0.000000
 17 3.115507 -0.886041 -0.021432 -0.611647 0.000152 0.191986
 18 2.011151 -0.000000 -0.000002 0.000000 -0.000000 0.659566
 19 2.141380 0.000001 0.000002 0.000000 0.000000 0.000000
 20 1.734174 0.000001 -0.000002 -0.000000 -0.000000 0.330185
 21 0.000005 -4.440594 0.000001 1.570544 -0.062990 -0.195737
 22 5.999999 -0.000000 0.000000 -2.795671 -0.000000 0.000000
 23 -0.000001 -4.440601 0.000000 1.569944 -0.062987 0.004053
 24 11.375560 -0.000000 0.000004 -2.314737 0.298843 0.050545
 25 0.000000 -4.440604 -0.000000 1.570144 -0.062988 0.004040
 26 10.510130 0.000002 -0.000000 0.000000 -0.000000 -2.248618
 27 0.000001 -1.748401 4.999999 -0.000000 0.004007 1.602291
 28 5.500000 0.000000 0.000000 0.579171 0.000000 0.000000
 29 -0.000002 -1.940600 5.000001 -0.044472 0.004003 -0.000180
 30 6.551491 0.000003 0.000001 -1.218394 -0.249389 -0.874547
 31 0.000001 -1.940599 5.000002 -0.027189 -0.053376 0.005295
 32 6.551491 0.000003 0.000001 -0.439845 0.049869 -0.325171
 33 -0.000001 -1.940599 4.999995 -0.066572 -0.152786 -0.110311
 34 0.345019 -0.357630 -1.659168 -2.377631 1.418940 1.226948
 35 6.384777 -0.000000 0.000000 0.907005 0.465447 -0.782110
 36 10.242682 0.000001 -0.000000 -0.000000 0.000000 -2.259238
 37 11.375563 0.000000 -0.000002 2.806308 0.538836 1.079918
 38 0.728682 0.023431 1.008293 -1.579583 -0.319038 0.212973
 39 2.136496 0.000001 0.000001 0.000000 -0.000000 1.282817
 40 2.313138 -0.000002 -0.000001 0.000000 0.000000 3.141593
 41 3.115508 -0.886041 0.021432 0.420766 0.316066 0.167178
 42 2.011151 0.000000 0.000002 -0.000000 0.000000 2.082010
 43 2.141380 0.000000 -0.000003 0.000000 0.000000 3.141593
 44 1.734171 -0.000001 -0.000001 0.000000 -0.000000 1.041748
 45 0.136316 -3.738194 2.525891 1.493698 2.759406 -1.474501
 46 10.273807 -0.437101 1.198994 1.793563 0.004868 1.507198
 47 11.389367 -0.000819 0.158779 2.071973 0.414383 0.409567
 48 0.000000 -4.440598 -0.000000 1.570144 -3.078602 0.004040
 49 6.000000 -0.000000 -0.000002 2.071973 -0.000000 -0.000000
 50 0.000002 -4.440600 -0.000000 1.569944 -3.078603 0.004053
 51 10.510131 0.000001 -0.000000 -0.000000 0.000000 -2.700416
 52 0.000000 -1.748398 -5.000002 -3.141593 0.004007 -1.539299
 53 5.500000 0.000001 -0.000002 -0.320607 0.000000 0.000000
 54 -0.000001 -0.000000 -4.999999 -0.044472 3.137589 -0.000177
 55 6.551491 0.000000 -0.000000 0.320607 0.030203 -0.281853
 56 -1.266844 -1.937443 -4.950560 -0.066572 -2.988806 -0.110308
 57 6.551492 0.000000 -0.000000 0.320607 0.030203 -0.281853
 58 0.699370 -1.944208 -5.006849 -0.027189 -3.088217 0.005298
 59 4.226146 -0.003201 -0.000001 0.126861 0.103450 -0.258431
 60 0.000002 4.999998 -0.000000 -0.153564 0.000087 2.718702
 61 0.000006 -0.000006 -3.713579 0.119535 -2.936655 -0.885276
 62 0.000001 0.000000 5.000000 3.053195 1.558589 -0.074929
 63 -0.000005 0.000005 3.713580 -0.311487 -2.845558 -0.582080
 64 0.000001 0.000000 -5.000000 -0.088726 1.558589 3.066335
 65 7.363603 1.646646 0.495663 -3.141593 -1.570796 0.000000
 66 -0.000005 0.000005 3.619082 -0.441735 -2.434423 -1.159240
 67 16.573917 -0.000000 0.000001 -0.000000 -0.000000 -2.011748
 68 15.128181 0.000000 -0.000000 0.026832 0.026147 -0.175154
 69 5.758666 4.244731 0.000000 0.000000 -0.000000 2.033309
 70 3.177727 0.000000 0.000000 0.000000 0.000000 3.141593
 71 15.708951 0.000002 -0.000000 0.013957 0.013894 -0.093781
 72 0.275148 0.189215 -3.445208 3.130898 0.000409 -1.514604
 73 17.210192 -0.000001 0.000002 -0.000000 0.000000 -2.319003
 74 0.000000 -0.000001 -5.000000 -0.079433 1.546568 -1.570857
 75 0.000007 -0.000004 -3.619079 0.260448 -2.945758 -1.468642
 76 16.573919 -0.000000 0.000001 0.000000 0.000000 -1.562392
 77 15.128181 0.000000 0.000001 0.265624 -0.173430 0.666428
 78 5.758665 4.244731 0.000000 -0.000000 0.000000 1.483530
 79 4.003934 -0.000000 0.000000 0.000000 0.000000 0.000000
 80 15.708953 0.000000 0.000000 0.195074 -0.100553 0.460486
 81 0.273998 0.191090 3.439762 -3.130907 -0.000437 -1.508107
 82 17.210196 0.000000 0.000001 -0.000000 0.000000 -2.116793
 83 0.000000 -0.000001 5.000000 -0.079311 1.595025 -1.570737
time 5
  0 0.500000 13.522099 26.931471 -0.243067 0.535714 -2.432935
  1 13.773751 5.584523 -22.520975 -0.544290 0.221328 2.303921
  2 -2.276934 0.000003 -1.238185 -1.570795 -1.570451 0.000000
  3 1.796384 0.711905 -0.000364 0.114250 -0.248192 -0.263994
  4 4.120543 -0.002645 -0.000101 0.030256 -0.005918 0.632608
  5 4.117993 -0.003219 -0.000028 0.009150 0.058577 -0.185984
  6 4.118018 -0.003222 -0.000189 0.057527 0.021261 -0.178134
  7 4.117216 -0.003233 -0.000378 0.108811 0.197956 -0.384377
  8 4.443596 0.000001 -0.000000 0.212912 0.657081 -0.317880
  9 9.024063 -0.000000 0.000001 0.000000 0.000000 0.000000
 10 -0.340764 0.188027 1.688835 1.976067 -0.999736 1.424740
 11 6.384777 0.000001 -0.000001 -1.557973 -0.528603 -1.250368
 12 10.242682 -0.000003 0.000000 0.000000 -0.000000 -1.329944
 13 11.375561 -0.000000 0.000001 3.123583 0.508614 -0.157158
 14 0.728679 0.023431 -1.008292 0.867878 0.712366 -0.046112
 15 2.136496 0.000000 -0.000000 -0.000000 0.000000 -0.078540
 16 2.313136 -0.000002 -0.000000 0.000000 0.000000 0.000000
 17 3.115506 -0.886041 -0.021432 -0.611647 0.000152 0.191986
 18 2.011147 -0.000001 0.000000 0.000000 -0.000000 0.659566
 19 2.141381 -0.000000 -0.000000 0.000000 0.000000 0.000000
 20 1.734170 0.000001 0.000000 0.000000 0.000000 0.330185
 21 0.000006 -4.440595 0.000001 1.570544 -0.062990 -0.195737
 22 6.000001 -0.000000 0.000001 -2.807157 -0.000000 0.000000
 23 0.000004 -4.440600 0.000000 1.569944 -0.062987 0.004053
 24 11.375561 -0.000000 0.000004 -2.320095 0.301800 0.042736
 25 0.000000 -4.440603 -0.000000 1.570144 -0.062988 0.004040
 26 10.510130 -0.000003 -0.000000 -0.000000 0.000000 -2.235768
 27 -0.000000 -1.748401 4.999999 -0.000000 0.004007 1.602290
 28 5.500000 -0.000001 0.000000 0.580735 0.000000 0.000000
 29 -0.000001 -1.940597 5.000000 -0.044472 0.004003 -0.000180
 30 6.551491 0.000003 0.000001 -1.224696 -0.256304 -0.873418
 31 0.000000 -1.940599 5.000002 -0.027189 -0.053376 0.005295
 32 6.551491 0.000003 0.000001 -0.440528 0.048452 -0.324297
 33 -0.000001 -1.940599 4.999998 -0.066572 -0.152786 -0.110311
 34 0.340764 -0.180949 -1.688835 -2.347140 1.305644 1.210615
 35 6.384777 0.000002 -0.000002 0.918462 0.447726 -0.793444
 36 10.242682 0.000000 0.000002 -0.000000 -0.000000 -2.250037
 37 11.375562 -0.000000 0.000002 2.806308 0.538836 1.079918
 38 0.728681 0.023431 1.008292 -1.579583 -0.319038 0.212973
 39 2.136497 0.000000 0.000000 -0.000000 -0.000000 1.282817
 40 2.313139 -0.000001 0.000001 0.000000 0.000000 3.141593
 41 3.115509 -0.886041 0.021433 0.420765 0.316066 0.167178
 42 2.011151 0.000000 0.000002 -0.000000 -0.000000 2.082010
 43 2.141380 -0.000001 0.000001 0.000000 0.000000 3.141593
 44 1.734171 -0.000001 -0.000001 -0.000000 -0.000000 1.041748
 45 0.136315 -3.738193 2.525891 1.493698 2.759406 -1.474501
 46 10.273807 -0.437102 1.198994 1.793563 0.004868 1.507198
 47 11.389367 -0.000820 0.158782 2.071973 0.414383 0.409567
 48 0.000002 -4.440599 0.000000 1.570144 -3.078602 0.004040
 49 6.000000 -0.000000 0.000002 2.071973 0.000000 0.000000
 50 0.000002 -4.440603 0.000000 1.569944 -3.078603 0.004053
 51 10.510131 -0.000000 0.000001 -0.000000 -0.000000 -2.695815
 52 0.000001 -1.748399 -5.000000 3.141593 0.004007 -1.539299
 53 5.500000 -0.000000 -0.000000 -0.323762 0.000000 -0.000000
 54 -0.000000 0.000000 -5.000000 -0.044472 3.137589 -0.000177
 55 6.551490 0.000002 0.000001 0.323762 0.023892 -0.283301
 56 -1.266844 -1.937444 -4.950559 -0.066572 -2.988806 -0.110308
 57 6.551491 0.000001 0.000001 0.323762 0.023892 -0.283301
 58 0.699370 -1.944208 -5.006845 -0.027189 -3.088217 0.005298
 59 4.226146 -0.003201 -0.000001 0.067908 0.108510 -0.233999
 60 0.000002 5.000000 -0.000001 -0.153564 0.000087 2.718702
 61 0.000006 -0.000006 -3.713579 0.119535 -2.936655 -0.885276
 62 0.000001 0.000000 5.000000 3.053195 1.558589 -0.074929
 63 -0.000005 0.000005 3.713580 -0.311487 -2.845558 -0.582080
 64 0.000001 0.000000 -5.000000 -0.088726 1.558589 3.066335
 65 7.363603 1.646646 0.495663 -3.141593 -1.570796 0.000000
 66 -0.000005 0.000005 3.619082 -0.441735 -2.434423 -1.159240
 67 16.573917 -0.000000 0.000001 -0.000000 -0.000000 -2.011748
 68 15.128181 0.000000 -0.000000 0.026832 0.026147 -0.175154
 69 5.758666 4.244731 0.000000 0.000000 -0.000000 2.033309
 70 3.177727 0.000000 0.000000 0.000000 0.000000 3.141593
 71 15.708951 0.000002 -0.000000 0.013957 0.013894 -0.093781
 72 0.275148 0.189215 -3.445208 3.130898 0.000409 -1.514604
 73 17.210192 -0.000001 0.000002 -0.000000 0.000000 -2.319003
 74 0.000000 -0.000001 -5.000000 -0.079433 1.546568 -1.570857
 75 0.000007 -0.000004 -3.619079 0.260448 -2.945758 -1.468642
 76 16.573919 -0.000000 0.000001 0.000000 0.000000 -1.562392
 77 15.128181 0.000000 0.000001 0.265624 -0.173430 0.666428
 78 5.758665 4.244731 0.000000 -0.000000 0.000000 1.483530
 79 4.003934 -0.000000 0.000000 0.000000 0.000000 0.000000
 80 15.708953 0.000000 0.000000 0.195074 -0.100553 0.460486
 81 0.273998 0.191090 3.439762 -3.130907 -0.000437 -1.508107
 82 17.210196 0.000000 0.000001 -0.000000 0.000000 -2.116793
 83 0.000000 -0.000001 5.000000 -0.079311 1.595025 -1.570737
end
