version 1
nodes
  0 "Bip01"  -1
  1 "Bip01 Footsteps"   0
  2 "Bip01 Pelvis"   0
  3 "Bip01 Spine"   2
  4 "Bip01 Spine1"   3
  5 "Bip01 Spine2"   4
  6 "Bip01 Spine3"   5
  7 "Bip01 Neck"   6
  8 "Bip01 Head"   7
  9 "Dummy21"   8
 10 "Bip01 L Clavicle"   7
 11 "Bip01 L UpperArm"  10
 12 "Bip01 L Forearm"  11
 13 "Bip01 L Hand"  12
 14 "Bip01 L Finger0"  13
 15 "Bip01 L Finger01"  14
 16 "Dummy06"  15
 17 "Bip01 L Finger1"  13
 18 "Bip01 L Finger11"  17
 19 "Dummy03"  18
 20 "-- L knuckle"  17
 21 "-- L knuckle_end"  20
 22 "-- L Forearm twist"  12
 23 "-- L Forearm twist_end"  22
 24 "-- L wrist"  12
 25 "-- L wrist_end"  24
 26 "-- L Elbow"  11
 27 "--L Elbow_end"  26
 28 "-- L bicep twist"  11
 29 "-- L bicep twist_end"  28
 30 "-- L shoulder outside"  10
 31 "-- L shoulder outside_end"  30
 32 "-- L Shoulder inside"  10
 33 "-- L Shoulder inside_end"  32
 34 "Bip01 R Clavicle"   7
 35 "Bip01 R UpperArm"  34
 36 "Bip01 R Forearm"  35
 37 "Bip01 R Hand"  36
 38 "Bip01 R Finger0"  37
 39 "Bip01 R Finger01"  38
 40 "Dummy01"  39
 41 "Bip01 R Finger1"  37
 42 "Bip01 R Finger11"  41
 43 "Dummy02"  42
 44 "-- R knuckle"  41
 45 "Point06"  44
 46 "Line03"  37
 47 "-- R wrist"  36
 48 "-- R wrist_end"  47
 49 "-- R forearm twist"  36
 50 "-- R forearm twist_end"  49
 51 "-- R Elbow"  35
 52 "--R Elbow_end"  51
 53 "-- R bicep twist"  35
 54 "-- R bicep twist_end"  53
 55 "-- R Shoulder inside"  34
 56 "-- R Shoulder inside_end"  55
 57 "-- R shoulder outside"  34
 58 "-- R shoulder outside_end"  57
 59 "-- Neck smooth"   6
 60 "-- neck smooth end"  59
 61 "-- R Butt"   2
 62 "--R Butt_end"  61
 63 "-- L butt"   2
 64 "--L butt_end"  63
 65 "GIGN01"   2
 66 "Bip01 L Thigh"   2
 67 "Bip01 L Calf"  66
 68 "Bip01 L Foot"  67
 69 "Bip01 L Toe0"  68
 70 "Dummy16"  69
 71 "-- L ankle"  67
 72 "-- L ankleend"  71
 73 "-- L Knee"  66
 74 "--L Knee_end"  73
 75 "Bip01 R Thigh"   2
 76 "Bip01 R Calf"  75
 77 "Bip01 R Foot"  76
 78 "Bip01 R Toe0"  77
 79 "Dummy11"  78
 80 "-- R Ankle"  76
 81 "-- R ankleend"  80
 82 "-- R Knee"  75
 83 "--R Knee_end"  82
end
skeleton
time 0
  0 -0.650000 0.000000 33.899605 -0.025849 0.174554 -1.569172
  1 5.816420 0.852483 -32.971565 -0.174512 -0.026131 1.569196
  2 -2.276935 0.000003 -1.238188 -1.570795 -1.570451 0.000000
  3 1.795463 0.712310 -0.000534 0.168284 0.255309 -0.502521
  4 4.119495 -0.003096 -0.000606 0.190413 0.214688 0.321446
  5 4.118568 -0.003223 -0.000606 0.186233 -0.036637 -0.018078
  6 4.118236 -0.003207 -0.000584 0.178723 -0.021074 -0.117398
  7 4.117419 -0.002764 -0.001863 0.632964 0.472575 -0.081950
  8 4.443597 0.000000 -0.000000 -0.054895 -0.191609 0.403450
  9 9.024059 0.000000 0.000000 0.000000 0.000000 0.000000
 10 -0.788701 0.916163 1.243938 1.100589 -0.393157 2.347237
 11 6.384776 0.000000 0.000004 -0.092565 0.521468 -0.107022
 12 10.242683 0.000002 -0.000002 0.000000 -0.000000 -1.210669
 13 11.375563 -0.000003 0.000001 2.196069 -0.119698 -0.351246
 14 0.728682 0.023432 -1.008293 1.105899 0.292115 0.601323
 15 2.136495 0.000000 0.000000 0.000000 -0.000000 -0.078540
 16 2.313140 0.000001 -0.000000 0.000000 0.000000 0.000000
 17 3.115507 -0.886042 -0.021432 -0.166499 0.000392 0.514872
 18 2.011153 -0.000000 -0.000001 0.000000 -0.000000 1.322792
 19 2.141381 0.000000 0.000001 0.000000 0.000000 0.000000
 20 1.734174 0.000001 -0.000001 0.000000 -0.000000 0.660693
 21 0.000005 -4.440593 0.000001 1.570544 -0.062990 -0.195737
 22 6.000000 -0.000001 -0.000001 2.447169 -0.000000 0.000000
 23 0.000001 -4.440602 0.000000 1.569944 -0.062987 0.004053
 24 11.375561 -0.000002 0.000002 -2.835958 0.150162 -0.266195
 25 -0.000001 -4.440603 -0.000002 1.570144 -0.062988 0.004040
 26 10.510131 0.000001 -0.000001 0.000000 0.000000 -2.176131
 27 0.000000 -1.748401 4.999998 -0.000000 0.004007 1.602291
 28 5.500000 0.000000 -0.000000 0.036088 -0.000000 -0.000000
 29 -0.000001 -1.940598 4.999998 -0.044472 0.004003 -0.000180
 30 6.551490 0.000001 0.000001 -0.073859 0.411201 -0.123594
 31 0.000001 -1.940598 5.000001 -0.027189 -0.053376 0.005295
 32 6.551490 0.000001 0.000001 -0.029274 0.205061 -0.056109
 33 0.000000 -1.940600 4.999999 -0.066572 -0.152786 -0.110311
 34 0.788700 -0.909090 -1.243939 1.160556 1.809432 -1.557462
 35 6.384778 0.000001 0.000003 -0.367138 -0.401002 0.034445
 36 10.242681 0.000000 -0.000001 0.000000 0.000000 -2.316972
 37 11.375560 -0.000001 0.000000 2.742324 0.168937 0.858684
 38 0.728680 0.023431 1.008291 -1.579583 -0.319038 0.212973
 39 2.136497 -0.000000 0.000000 -0.000000 0.000000 1.282817
 40 2.313138 0.000000 0.000000 0.000000 0.000000 3.141593
 41 3.115506 -0.886041 0.021429 0.420765 0.316066 0.167178
 42 2.011151 0.000001 0.000002 -0.000000 -0.000000 2.082010
 43 2.141379 -0.000000 0.000002 0.000000 0.000000 3.141593
 44 1.734172 -0.000001 -0.000000 0.000000 -0.000000 1.041748
 45 0.136315 -3.738192 2.525891 1.493698 2.759406 -1.474501
 46 10.273804 -0.437101 1.198990 1.793563 0.004868 1.507198
 47 11.389367 -0.000820 0.158781 2.131677 0.209891 0.398718
 48 -0.000000 -4.440598 -0.000001 1.570144 -3.078602 0.004040
 49 6.000000 -0.000000 0.000000 2.131677 0.000000 0.000000
 50 0.000002 -4.440600 0.000002 1.569944 -3.078603 0.004053
 51 10.510131 0.000001 0.000002 -0.000000 0.000000 -2.729282
 52 0.000001 -1.748400 -5.000001 3.141593 0.004007 -1.539299
 53 5.500000 0.000000 0.000001 0.136525 -0.000000 -0.000000
 54 0.000000 0.000000 -4.999997 -0.044472 3.137589 -0.000177
 55 6.551491 0.000001 0.000002 -0.136525 -0.186123 -0.018189
 56 -1.266843 -1.937444 -4.950561 -0.066572 -2.988806 -0.110308
 57 6.551492 0.000001 0.000002 -0.136525 -0.186123 -0.018189
 58 0.699371 -1.944208 -5.006845 -0.027189 -3.088217 0.005298
 59 4.226145 -0.003201 0.000000 0.311297 0.242410 -0.086087
 60 0.000003 5.000002 -0.000000 -0.153564 0.000087 2.718702
 61 0.000004 -0.000004 -3.713580 0.018865 -3.096651 -0.324845
 62 -0.000002 0.000000 5.000000 3.053198 1.558589 -0.074926
 63 -0.000007 0.000006 3.713580 -0.159276 -2.977491 -0.403653
 64 0.000001 -0.000000 -5.000000 -0.088724 1.558589 3.066337
 65 7.363602 1.646647 0.495663 3.141593 -1.570796 0.000000
 66 -0.000005 0.000007 3.619081 -0.217558 -2.796588 -0.810634
 67 16.573919 -0.000001 0.000000 0.000000 0.000000 -2.033247
 68 15.128181 0.000002 -0.000000 0.271612 0.009043 -0.097069
 69 5.758665 4.244730 0.000000 0.000000 -0.000000 1.842220
 70 3.177726 -0.000001 -0.000001 0.000000 0.000000 3.141593
 71 15.708953 0.000001 -0.000001 0.136460 0.001254 -0.052592
 72 0.275149 0.189214 -3.445208 3.130898 0.000409 -1.514604
 73 17.210194 -0.000002 0.000000 -0.000000 -0.000000 -2.328678
 74 -0.000000 0.000001 -4.999999 -0.079432 1.546568 -1.570855
 75 0.000002 -0.000003 -3.619081 0.034416 -3.071533 -0.493407
 76 16.573921 -0.000000 0.000000 0.000000 0.000000 -1.045581
 77 15.128181 0.000002 0.000000 0.002618 -0.051986 0.588317
 78 5.758665 4.244731 -0.000000 -0.000000 0.000000 1.815142
 79 4.003934 0.000000 0.000000 0.000000 0.000000 0.000000
 80 15.708955 0.000001 0.000000 0.004296 -0.037430 0.405337
 81 0.273998 0.191090 3.439762 -3.130907 -0.000437 -1.508107
 82 17.210194 0.000000 0.000000 -0.000000 -0.000000 -1.884228
 83 0.000000 -0.000001 5.000000 -0.079311 1.595025 -1.570737
time 1
  0 -0.650000 0.000000 33.899605 -0.025849 0.174554 -1.569172
  1 5.816420 0.852483 -32.971565 -0.174512 -0.026131 1.569196
  2 -2.276935 0.000003 -1.238188 -1.570795 -1.570451 0.000000
  3 1.795463 0.712310 -0.000534 0.168284 0.255309 -0.502521
  4 4.119495 -0.003096 -0.000606 0.190413 0.214688 0.321446
  5 4.118568 -0.003223 -0.000606 0.186233 -0.036637 -0.018078
  6 4.118236 -0.003207 -0.000584 0.178723 -0.021074 -0.117398
  7 4.117419 -0.002764 -0.001863 0.632964 0.472575 -0.081950
  8 4.443597 0.000000 -0.000000 -0.054895 -0.191609 0.403450
  9 9.024059 0.000000 0.000000 0.000000 0.000000 0.000000
 10 -0.788701 0.916163 1.243938 1.100589 -0.393157 2.347237
 11 6.384776 0.000000 0.000004 -0.092565 0.521468 -0.107022
 12 10.242683 0.000002 -0.000002 0.000000 -0.000000 -1.210669
 13 11.375563 -0.000003 0.000001 2.196069 -0.119698 -0.351246
 14 0.728682 0.023432 -1.008293 1.105899 0.292115 0.601323
 15 2.136495 0.000000 0.000000 0.000000 -0.000000 -0.078540
 16 2.313140 0.000001 -0.000000 0.000000 0.000000 0.000000
 17 3.115507 -0.886042 -0.021432 -0.166499 0.000392 0.514872
 18 2.011153 -0.000000 -0.000001 0.000000 -0.000000 1.322792
 19 2.141381 0.000000 0.000001 0.000000 0.000000 0.000000
 20 1.734174 0.000001 -0.000001 0.000000 -0.000000 0.660693
 21 0.000005 -4.440593 0.000001 1.570544 -0.062990 -0.195737
 22 6.000000 -0.000001 -0.000001 2.447169 -0.000000 0.000000
 23 0.000001 -4.440602 0.000000 1.569944 -0.062987 0.004053
 24 11.375561 -0.000002 0.000002 -2.835958 0.150162 -0.266195
 25 -0.000001 -4.440603 -0.000002 1.570144 -0.062988 0.004040
 26 10.510131 0.000001 -0.000001 0.000000 0.000000 -2.176131
 27 0.000000 -1.748401 4.999998 -0.000000 0.004007 1.602291
 28 5.500000 0.000000 -0.000000 0.036088 -0.000000 -0.000000
 29 -0.000001 -1.940598 4.999998 -0.044472 0.004003 -0.000180
 30 6.551490 0.000001 0.000001 -0.073859 0.411201 -0.123594
 31 0.000001 -1.940598 5.000001 -0.027189 -0.053376 0.005295
 32 6.551490 0.000001 0.000001 -0.029274 0.205061 -0.056109
 33 0.000000 -1.940600 4.999999 -0.066572 -0.152786 -0.110311
 34 0.788700 -0.909090 -1.243939 1.160556 1.809432 -1.557462
 35 6.384778 0.000001 0.000003 -0.367138 -0.401002 0.034445
 36 10.242681 0.000000 -0.000001 0.000000 0.000000 -2.316972
 37 11.375560 -0.000001 0.000000 2.742324 0.168937 0.858684
 38 0.728680 0.023431 1.008291 -1.579583 -0.319038 0.212973
 39 2.136497 -0.000000 0.000000 -0.000000 0.000000 1.282817
 40 2.313138 0.000000 0.000000 0.000000 0.000000 3.141593
 41 3.115506 -0.886041 0.021429 0.420765 0.316066 0.167178
 42 2.011151 0.000001 0.000002 -0.000000 -0.000000 2.082010
 43 2.141379 -0.000000 0.000002 0.000000 0.000000 3.141593
 44 1.734172 -0.000001 -0.000000 0.000000 -0.000000 1.041748
 45 0.136315 -3.738192 2.525891 1.493698 2.759406 -1.474501
 46 10.273804 -0.437101 1.198990 1.793563 0.004868 1.507198
 47 11.389367 -0.000820 0.158781 2.131677 0.209891 0.398718
 48 -0.000000 -4.440598 -0.000001 1.570144 -3.078602 0.004040
 49 6.000000 -0.000000 0.000000 2.131677 0.000000 0.000000
 50 0.000002 -4.440600 0.000002 1.569944 -3.078603 0.004053
 51 10.510131 0.000001 0.000002 -0.000000 0.000000 -2.729282
 52 0.000001 -1.748400 -5.000001 3.141593 0.004007 -1.539299
 53 5.500000 0.000000 0.000001 0.136525 -0.000000 -0.000000
 54 0.000000 0.000000 -4.999997 -0.044472 3.137589 -0.000177
 55 6.551491 0.000001 0.000002 -0.136525 -0.186123 -0.018189
 56 -1.266843 -1.937444 -4.950561 -0.066572 -2.988806 -0.110308
 57 6.551492 0.000001 0.000002 -0.136525 -0.186123 -0.018189
 58 0.699371 -1.944208 -5.006845 -0.027189 -3.088217 0.005298
 59 4.226145 -0.003201 0.000000 0.311297 0.242410 -0.086087
 60 0.000003 5.000002 -0.000000 -0.153564 0.000087 2.718702
 61 0.000004 -0.000004 -3.713580 0.018865 -3.096651 -0.324845
 62 -0.000002 0.000000 5.000000 3.053198 1.558589 -0.074926
 63 -0.000007 0.000006 3.713580 -0.159276 -2.977491 -0.403653
 64 0.000001 -0.000000 -5.000000 -0.088724 1.558589 3.066337
 65 7.363602 1.646647 0.495663 3.141593 -1.570796 0.000000
 66 -0.000005 0.000007 3.619081 -0.217558 -2.796588 -0.810634
 67 16.573919 -0.000001 0.000000 0.000000 0.000000 -2.033247
 68 15.128181 0.000002 -0.000000 0.271612 0.009043 -0.097069
 69 5.758665 4.244730 0.000000 0.000000 -0.000000 1.842220
 70 3.177726 -0.000001 -0.000001 0.000000 0.000000 3.141593
 71 15.708953 0.000001 -0.000001 0.136460 0.001254 -0.052592
 72 0.275149 0.189214 -3.445208 3.130898 0.000409 -1.514604
 73 17.210194 -0.000002 0.000000 -0.000000 -0.000000 -2.328678
 74 -0.000000 0.000001 -4.999999 -0.079432 1.546568 -1.570855
 75 0.000002 -0.000003 -3.619081 0.034416 -3.071533 -0.493407
 76 16.573921 -0.000000 0.000000 0.000000 0.000000 -1.045581
 77 15.128181 0.000002 0.000000 0.002618 -0.051986 0.588317
 78 5.758665 4.244731 -0.000000 -0.000000 0.000000 1.815142
 79 4.003934 0.000000 0.000000 0.000000 0.000000 0.000000
 80 15.708955 0.000001 0.000000 0.004296 -0.037430 0.405337
 81 0.273998 0.191090 3.439762 -3.130907 -0.000437 -1.508107
 82 17.210194 0.000000 0.000000 -0.000000 -0.000000 -1.884228
 83 0.000000 -0.000001 5.000000 -0.079311 1.595025 -1.570737
end
