version 1
nodes
  0 "Bip01"  -1
  1 "Bip01 Footsteps"   0
  2 "Bip01 Pelvis"   0
  3 "Bip01 Spine"   2
  4 "Bip01 Spine1"   3
  5 "Bip01 Spine2"   4
  6 "Bip01 Spine3"   5
  7 "Bip01 Neck"   6
  8 "Bip01 Head"   7
  9 "Dummy21"   8
 10 "Bip01 L Clavicle"   7
 11 "Bip01 L UpperArm"  10
 12 "Bip01 L Forearm"  11
 13 "Bip01 L Hand"  12
 14 "Bip01 L Finger0"  13
 15 "Bip01 L Finger01"  14
 16 "Dummy06"  15
 17 "Bip01 L Finger1"  13
 18 "Bip01 L Finger11"  17
 19 "Dummy03"  18
 20 "-- L knuckle"  17
 21 "-- L knuckle_end"  20
 22 "-- L Forearm twist"  12
 23 "-- L Forearm twist_end"  22
 24 "-- L wrist"  12
 25 "-- L wrist_end"  24
 26 "-- L Elbow"  11
 27 "--L Elbow_end"  26
 28 "-- L bicep twist"  11
 29 "-- L bicep twist_end"  28
 30 "-- L shoulder outside"  10
 31 "-- L shoulder outside_end"  30
 32 "-- L Shoulder inside"  10
 33 "-- L Shoulder inside_end"  32
 34 "Bip01 R Clavicle"   7
 35 "Bip01 R UpperArm"  34
 36 "Bip01 R Forearm"  35
 37 "Bip01 R Hand"  36
 38 "Bip01 R Finger0"  37
 39 "Bip01 R Finger01"  38
 40 "Dummy01"  39
 41 "Bip01 R Finger1"  37
 42 "Bip01 R Finger11"  41
 43 "Dummy02"  42
 44 "-- R knuckle"  41
 45 "Point06"  44
 46 "Line03"  37
 47 "-- R wrist"  36
 48 "-- R wrist_end"  47
 49 "-- R forearm twist"  36
 50 "-- R forearm twist_end"  49
 51 "-- R Elbow"  35
 52 "--R Elbow_end"  51
 53 "-- R bicep twist"  35
 54 "-- R bicep twist_end"  53
 55 "-- R Shoulder inside"  34
 56 "-- R Shoulder inside_end"  55
 57 "-- R shoulder outside"  34
 58 "-- R shoulder outside_end"  57
 59 "-- Neck smooth"   6
 60 "-- neck smooth end"  59
 61 "-- R Butt"   2
 62 "--R Butt_end"  61
 63 "-- L butt"   2
 64 "--L butt_end"  63
 65 "GIGN01"   2
 66 "Bip01 L Thigh"   2
 67 "Bip01 L Calf"  66
 68 "Bip01 L Foot"  67
 69 "Bip01 L Toe0"  68
 70 "Dummy16"  69
 71 "-- L ankle"  67
 72 "-- L ankleend"  71
 73 "-- L Knee"  66
 74 "--L Knee_end"  73
 75 "Bip01 R Thigh"   2
 76 "Bip01 R Calf"  75
 77 "Bip01 R Foot"  76
 78 "Bip01 R Toe0"  77
 79 "Dummy11"  78
 80 "-- R Ankle"  76
 81 "-- R ankleend"  80
 82 "-- R Knee"  75
 83 "--R Knee_end"  82
end
skeleton
time 0
  0 -0.650000 0.000000 33.899605 -0.025849 0.174554 -1.569172
  1 5.816420 0.852483 -32.971565 -0.174512 -0.026131 1.569196
  2 -2.276935 0.000003 -1.238188 -1.570795 -1.570451 0.000000
  3 1.795460 0.712326 0.000605 -0.190941 -0.219419 -0.506334
  4 4.119528 -0.003063 0.000721 -0.221959 0.061746 0.279848
  5 4.118599 -0.003198 0.000726 -0.223285 0.015462 -0.005027
  6 4.118253 -0.003176 0.000738 -0.226976 -0.023399 -0.103979
  7 4.116731 -0.002282 -0.001946 0.810162 0.707989 -0.088103
  8 4.443600 0.000000 -0.000001 -0.089670 -0.096460 0.161275
  9 9.024061 0.000002 -0.000000 0.000000 0.000000 0.000000
 10 -1.126798 0.957060 0.907435 1.154883 -0.322381 2.319523
 11 6.384776 0.000000 0.000001 -1.043303 0.945478 -0.512427
 12 10.242681 0.000001 -0.000000 -0.000000 0.000000 -1.378812
 13 11.375561 -0.000004 0.000001 -3.028106 0.519952 0.358185
 14 0.728681 0.023432 -1.008291 1.202975 0.409398 0.881725
 15 2.136497 -0.000000 -0.000000 0.000000 -0.000000 -0.078540
 16 2.313141 0.000000 -0.000001 0.000000 0.000000 0.000000
 17 3.115507 -0.886039 -0.021430 -0.166499 0.000392 0.514872
 18 2.011151 -0.000001 -0.000001 -0.000000 -0.000000 1.322792
 19 2.141379 0.000000 -0.000001 0.000000 0.000000 0.000000
 20 1.734174 0.000002 -0.000002 0.000000 0.000000 0.660693
 21 0.000006 -4.440594 0.000001 1.570544 -0.062990 -0.195737
 22 6.000000 -0.000002 0.000000 -2.722716 0.000000 0.000000
 23 -0.000000 -4.440602 0.000001 1.569944 -0.062987 0.004053
 24 11.375562 -0.000002 0.000004 -2.295945 0.191125 0.300568
 25 -0.000001 -4.440603 0.000001 1.570144 -0.062988 0.004040
 26 10.510130 0.000001 -0.000001 0.000000 -0.000000 -2.260202
 27 -0.000001 -1.748401 4.999999 -0.000000 0.004007 1.602291
 28 5.500000 0.000001 -0.000001 0.313934 0.000000 0.000000
 29 -0.000002 -1.940599 5.000001 -0.044472 0.004003 -0.000180
 30 6.551491 0.000001 0.000001 -0.637725 0.711995 -0.151739
 31 0.000000 -1.940599 5.000001 -0.027189 -0.053376 0.005295
 32 6.551491 0.000001 0.000001 -0.255062 0.332184 -0.004232
 33 0.000000 -1.940598 4.999994 -0.066572 -0.152786 -0.110311
 34 1.126800 -0.949986 -0.907436 1.359522 1.464397 -1.216176
 35 6.384775 0.000000 -0.000001 -0.161233 -0.211064 -0.226380
 36 10.242682 0.000000 -0.000001 -0.000000 0.000000 -2.286042
 37 11.375561 0.000000 -0.000001 2.718009 0.147105 0.675564
 38 0.728680 0.023431 1.008292 -1.579583 -0.319038 0.212973
 39 2.136497 -0.000001 -0.000001 0.000000 0.000000 1.282817
 40 2.313141 -0.000000 0.000000 0.000000 0.000000 3.141593
 41 3.115506 -0.886041 0.021435 0.420766 0.316066 0.167178
 42 2.011151 -0.000000 0.000001 -0.000000 0.000000 2.082010
 43 2.141380 -0.000000 0.000002 0.000000 0.000000 3.141593
 44 1.734172 -0.000001 -0.000001 -0.000000 0.000000 1.041748
 45 0.136315 -3.738193 2.525889 1.493698 2.759406 -1.474501
 46 10.273804 -0.437103 1.198993 1.793563 0.004868 1.507198
 47 11.389366 -0.000819 0.158779 2.129014 0.176702 0.322510
 48 0.000001 -4.440600 0.000003 1.570144 -3.078602 0.004040
 49 6.000000 0.000000 -0.000001 2.129014 -0.000000 0.000000
 50 0.000002 -4.440599 0.000001 1.569944 -3.078603 0.004053
 51 10.510131 0.000000 0.000001 -0.000000 -0.000000 -2.713817
 52 -0.000000 -1.748400 -5.000000 3.141593 0.004007 -1.539299
 53 5.500000 0.000000 0.000000 0.056276 -0.000000 -0.000000
 54 -0.000001 -0.000000 -5.000000 -0.044472 3.137589 -0.000177
 55 6.551490 0.000001 0.000000 -0.056276 -0.094347 -0.152198
 56 -1.266844 -1.937444 -4.950562 -0.066572 -2.988806 -0.110308
 57 6.551490 0.000001 -0.000000 -0.056276 -0.094347 -0.152198
 58 0.699370 -1.944208 -5.006847 -0.027189 -3.088217 0.005298
 59 4.226148 -0.003201 0.000000 0.382127 0.354511 -0.122466
 60 -0.000000 5.000000 0.000000 -0.153564 0.000087 2.718702
 61 0.000004 -0.000004 -3.713580 0.018865 -3.096651 -0.324845
 62 -0.000002 0.000000 5.000000 3.053198 1.558589 -0.074926
 63 -0.000007 0.000006 3.713580 -0.159276 -2.977491 -0.403653
 64 0.000001 -0.000000 -5.000000 -0.088724 1.558589 3.066337
 65 7.363602 1.646647 0.495663 3.141593 -1.570796 0.000000
 66 -0.000005 0.000007 3.619081 -0.217558 -2.796588 -0.810634
 67 16.573919 -0.000001 0.000000 0.000000 0.000000 -2.033247
 68 15.128181 0.000002 -0.000000 0.271612 0.009043 -0.097069
 69 5.758665 4.244730 0.000000 0.000000 -0.000000 1.842220
 70 3.177726 -0.000001 -0.000001 0.000000 0.000000 3.141593
 71 15.708953 0.000001 -0.000001 0.136460 0.001254 -0.052592
 72 0.275149 0.189214 -3.445208 3.130898 0.000409 -1.514604
 73 17.210194 -0.000002 0.000000 -0.000000 -0.000000 -2.328678
 74 -0.000000 0.000001 -4.999999 -0.079432 1.546568 -1.570855
 75 0.000002 -0.000003 -3.619081 0.034416 -3.071533 -0.493407
 76 16.573921 -0.000000 0.000000 0.000000 0.000000 -1.045581
 77 15.128181 0.000002 0.000000 0.002618 -0.051986 0.588317
 78 5.758665 4.244731 -0.000000 -0.000000 0.000000 1.815142
 79 4.003934 0.000000 0.000000 0.000000 0.000000 0.000000
 80 15.708955 0.000001 0.000000 0.004296 -0.037430 0.405337
 81 0.273998 0.191090 3.439762 -3.130907 -0.000437 -1.508107
 82 17.210194 0.000000 0.000000 -0.000000 -0.000000 -1.884228
 83 0.000000 -0.000001 5.000000 -0.079311 1.595025 -1.570737
time 1
  0 -0.650000 0.000000 33.899605 -0.025849 0.174554 -1.569172
  1 5.816420 0.852483 -32.971565 -0.174512 -0.026131 1.569196
  2 -2.276935 0.000003 -1.238188 -1.570795 -1.570451 0.000000
  3 1.795460 0.712326 0.000605 -0.190941 -0.219419 -0.506334
  4 4.119528 -0.003063 0.000721 -0.221959 0.061746 0.279848
  5 4.118599 -0.003198 0.000726 -0.223285 0.015462 -0.005027
  6 4.118253 -0.003176 0.000738 -0.226976 -0.023399 -0.103979
  7 4.116731 -0.002282 -0.001946 0.810162 0.707989 -0.088103
  8 4.443600 0.000000 -0.000001 -0.089670 -0.096460 0.161275
  9 9.024061 0.000002 -0.000000 0.000000 0.000000 0.000000
 10 -1.126798 0.957060 0.907435 1.154883 -0.322381 2.319523
 11 6.384776 0.000000 0.000001 -1.043303 0.945478 -0.512427
 12 10.242681 0.000001 -0.000000 -0.000000 0.000000 -1.378812
 13 11.375561 -0.000004 0.000001 -3.028106 0.519952 0.358185
 14 0.728681 0.023432 -1.008291 1.202975 0.409398 0.881725
 15 2.136497 -0.000000 -0.000000 0.000000 -0.000000 -0.078540
 16 2.313141 0.000000 -0.000001 0.000000 0.000000 0.000000
 17 3.115507 -0.886039 -0.021430 -0.166499 0.000392 0.514872
 18 2.011151 -0.000001 -0.000001 -0.000000 -0.000000 1.322792
 19 2.141379 0.000000 -0.000001 0.000000 0.000000 0.000000
 20 1.734174 0.000002 -0.000002 0.000000 0.000000 0.660693
 21 0.000006 -4.440594 0.000001 1.570544 -0.062990 -0.195737
 22 6.000000 -0.000002 0.000000 -2.722716 0.000000 0.000000
 23 -0.000000 -4.440602 0.000001 1.569944 -0.062987 0.004053
 24 11.375562 -0.000002 0.000004 -2.295945 0.191125 0.300568
 25 -0.000001 -4.440603 0.000001 1.570144 -0.062988 0.004040
 26 10.510130 0.000001 -0.000001 0.000000 -0.000000 -2.260202
 27 -0.000001 -1.748401 4.999999 -0.000000 0.004007 1.602291
 28 5.500000 0.000001 -0.000001 0.313934 0.000000 0.000000
 29 -0.000002 -1.940599 5.000001 -0.044472 0.004003 -0.000180
 30 6.551491 0.000001 0.000001 -0.637725 0.711995 -0.151739
 31 0.000000 -1.940599 5.000001 -0.027189 -0.053376 0.005295
 32 6.551491 0.000001 0.000001 -0.255062 0.332184 -0.004232
 33 0.000000 -1.940598 4.999994 -0.066572 -0.152786 -0.110311
 34 1.126800 -0.949986 -0.907436 1.359522 1.464397 -1.216176
 35 6.384775 0.000000 -0.000001 -0.161233 -0.211064 -0.226380
 36 10.242682 0.000000 -0.000001 -0.000000 0.000000 -2.286042
 37 11.375561 0.000000 -0.000001 2.718009 0.147105 0.675564
 38 0.728680 0.023431 1.008292 -1.579583 -0.319038 0.212973
 39 2.136497 -0.000001 -0.000001 0.000000 0.000000 1.282817
 40 2.313141 -0.000000 0.000000 0.000000 0.000000 3.141593
 41 3.115506 -0.886041 0.021435 0.420766 0.316066 0.167178
 42 2.011151 -0.000000 0.000001 -0.000000 0.000000 2.082010
 43 2.141380 -0.000000 0.000002 0.000000 0.000000 3.141593
 44 1.734172 -0.000001 -0.000001 -0.000000 0.000000 1.041748
 45 0.136315 -3.738193 2.525889 1.493698 2.759406 -1.474501
 46 10.273804 -0.437103 1.198993 1.793563 0.004868 1.507198
 47 11.389366 -0.000819 0.158779 2.129014 0.176702 0.322510
 48 0.000001 -4.440600 0.000003 1.570144 -3.078602 0.004040
 49 6.000000 0.000000 -0.000001 2.129014 -0.000000 0.000000
 50 0.000002 -4.440599 0.000001 1.569944 -3.078603 0.004053
 51 10.510131 0.000000 0.000001 -0.000000 -0.000000 -2.713817
 52 -0.000000 -1.748400 -5.000000 3.141593 0.004007 -1.539299
 53 5.500000 0.000000 0.000000 0.056276 -0.000000 -0.000000
 54 -0.000001 -0.000000 -5.000000 -0.044472 3.137589 -0.000177
 55 6.551490 0.000001 0.000000 -0.056276 -0.094347 -0.152198
 56 -1.266844 -1.937444 -4.950562 -0.066572 -2.988806 -0.110308
 57 6.551490 0.000001 -0.000000 -0.056276 -0.094347 -0.152198
 58 0.699370 -1.944208 -5.006847 -0.027189 -3.088217 0.005298
 59 4.226148 -0.003201 0.000000 0.382127 0.354511 -0.122466
 60 -0.000000 5.000000 0.000000 -0.153564 0.000087 2.718702
 61 0.000004 -0.000004 -3.713580 0.018865 -3.096651 -0.324845
 62 -0.000002 0.000000 5.000000 3.053198 1.558589 -0.074926
 63 -0.000007 0.000006 3.713580 -0.159276 -2.977491 -0.403653
 64 0.000001 -0.000000 -5.000000 -0.088724 1.558589 3.066337
 65 7.363602 1.646647 0.495663 3.141593 -1.570796 0.000000
 66 -0.000005 0.000007 3.619081 -0.217558 -2.796588 -0.810634
 67 16.573919 -0.000001 0.000000 0.000000 0.000000 -2.033247
 68 15.128181 0.000002 -0.000000 0.271612 0.009043 -0.097069
 69 5.758665 4.244730 0.000000 0.000000 -0.000000 1.842220
 70 3.177726 -0.000001 -0.000001 0.000000 0.000000 3.141593
 71 15.708953 0.000001 -0.000001 0.136460 0.001254 -0.052592
 72 0.275149 0.189214 -3.445208 3.130898 0.000409 -1.514604
 73 17.210194 -0.000002 0.000000 -0.000000 -0.000000 -2.328678
 74 -0.000000 0.000001 -4.999999 -0.079432 1.546568 -1.570855
 75 0.000002 -0.000003 -3.619081 0.034416 -3.071533 -0.493407
 76 16.573921 -0.000000 0.000000 0.000000 0.000000 -1.045581
 77 15.128181 0.000002 0.000000 0.002618 -0.051986 0.588317
 78 5.758665 4.244731 -0.000000 -0.000000 0.000000 1.815142
 79 4.003934 0.000000 0.000000 0.000000 0.000000 0.000000
 80 15.708955 0.000001 0.000000 0.004296 -0.037430 0.405337
 81 0.273998 0.191090 3.439762 -3.130907 -0.000437 -1.508107
 82 17.210194 0.000000 0.000000 -0.000000 -0.000000 -1.884228
 83 0.000000 -0.000001 5.000000 -0.079311 1.595025 -1.570737
end
