version 1
nodes
  0 "Bip01"  -1
  1 "Bip01 Footsteps"   0
  2 "Bip01 Pelvis"   0
  3 "Bip01 Spine"   2
  4 "Bip01 Spine1"   3
  5 "Bip01 Spine2"   4
  6 "Bip01 Spine3"   5
  7 "Bip01 Neck"   6
  8 "Bip01 Head"   7
  9 "Dummy21"   8
 10 "Bip01 L Clavicle"   7
 11 "Bip01 L UpperArm"  10
 12 "Bip01 L Forearm"  11
 13 "Bip01 L Hand"  12
 14 "Bip01 L Finger0"  13
 15 "Bip01 L Finger01"  14
 16 "Dummy06"  15
 17 "Bip01 L Finger1"  13
 18 "Bip01 L Finger11"  17
 19 "Dummy03"  18
 20 "-- L knuckle"  17
 21 "-- L knuckle_end"  20
 22 "-- L Forearm twist"  12
 23 "-- L Forearm twist_end"  22
 24 "-- L wrist"  12
 25 "-- L wrist_end"  24
 26 "-- L Elbow"  11
 27 "--L Elbow_end"  26
 28 "-- L bicep twist"  11
 29 "-- L bicep twist_end"  28
 30 "-- L shoulder outside"  10
 31 "-- L shoulder outside_end"  30
 32 "-- L Shoulder inside"  10
 33 "-- L Shoulder inside_end"  32
 34 "Bip01 R Clavicle"   7
 35 "Bip01 R UpperArm"  34
 36 "Bip01 R Forearm"  35
 37 "Bip01 R Hand"  36
 38 "Bip01 R Finger0"  37
 39 "Bip01 R Finger01"  38
 40 "Dummy01"  39
 41 "Bip01 R Finger1"  37
 42 "Bip01 R Finger11"  41
 43 "Dummy02"  42
 44 "-- R knuckle"  41
 45 "Point06"  44
 46 "Line03"  37
 47 "-- R wrist"  36
 48 "-- R wrist_end"  47
 49 "-- R forearm twist"  36
 50 "-- R forearm twist_end"  49
 51 "-- R Elbow"  35
 52 "--R Elbow_end"  51
 53 "-- R bicep twist"  35
 54 "-- R bicep twist_end"  53
 55 "-- R Shoulder inside"  34
 56 "-- R Shoulder inside_end"  55
 57 "-- R shoulder outside"  34
 58 "-- R shoulder outside_end"  57
 59 "-- Neck smooth"   6
 60 "-- neck smooth end"  59
 61 "-- R Butt"   2
 62 "--R Butt_end"  61
 63 "-- L butt"   2
 64 "--L butt_end"  63
 65 "GIGN01"   2
 66 "Bip01 L Thigh"   2
 67 "Bip01 L Calf"  66
 68 "Bip01 L Foot"  67
 69 "Bip01 L Toe0"  68
 70 "Dummy16"  69
 71 "-- L ankle"  67
 72 "-- L ankleend"  71
 73 "-- L Knee"  66
 74 "--L Knee_end"  73
 75 "Bip01 R Thigh"   2
 76 "Bip01 R Calf"  75
 77 "Bip01 R Foot"  76
 78 "Bip01 R Toe0"  77
 79 "Dummy11"  78
 80 "-- R Ankle"  76
 81 "-- R ankleend"  80
 82 "-- R Knee"  75
 83 "--R Knee_end"  82
end
skeleton
time 0
  0 -0.650000 0.000000 33.899605 -0.025849 0.174554 -1.569172
  1 5.816420 0.852483 -32.971565 -0.174512 -0.026131 1.569196
  2 -2.276935 0.000003 -1.238188 -1.570795 -1.570451 0.000000
  3 1.796164 0.712758 0.002102 -0.696789 0.021809 -0.416762
  4 4.118609 -0.003276 0.000149 -0.046070 -0.177445 0.009442
  5 4.118507 -0.003050 0.001203 -0.390336 -0.268863 0.078547
  6 4.118797 -0.003106 0.001035 -0.321933 -0.066866 0.084955
  7 4.117652 -0.003402 0.000200 -0.058924 0.294169 -0.288989
  8 4.443601 0.000000 0.000000 -0.206632 -0.046788 -0.207887
  9 9.024059 0.000001 -0.000000 0.000000 0.000000 0.000000
 10 -0.502388 -0.094122 1.655411 1.116925 -0.836733 2.201352
 11 6.384777 -0.000001 0.000003 -1.480059 0.696227 -1.201314
 12 10.242682 -0.000000 -0.000001 -0.000000 -0.000000 -0.708791
 13 11.375563 -0.000002 0.000000 -2.933805 0.569617 0.098695
 14 0.728681 0.023431 -1.008292 2.098333 -0.050480 0.642666
 15 2.136495 -0.000001 -0.000001 -0.000000 0.000000 -0.078540
 16 2.313140 -0.000001 -0.000001 0.000000 0.000000 0.000000
 17 3.115507 -0.886042 -0.021431 -0.162706 -0.035495 0.299633
 18 2.011153 0.000000 -0.000000 0.000000 -0.000000 1.104625
 19 2.141377 0.000000 0.000000 0.000000 0.000000 0.000000
 20 1.734174 0.000003 0.000001 -0.000000 0.000000 0.551513
 21 0.000007 -4.440593 0.000001 1.570544 -0.062990 -0.195737
 22 6.000000 -0.000003 0.000000 -2.617513 0.000000 -0.000000
 23 0.000002 -4.440599 0.000001 1.569944 -0.062987 0.004053
 24 11.375562 -0.000003 0.000003 -2.225259 0.275617 0.166105
 25 0.000000 -4.440604 0.000001 1.570144 -0.062988 0.004040
 26 10.510130 -0.000001 -0.000001 -0.000000 0.000000 -1.925192
 27 -0.000002 -1.748401 5.000000 -0.000000 0.004007 1.602290
 28 5.500000 0.000001 -0.000000 0.408741 -0.000000 -0.000000
 29 -0.000002 -1.940598 5.000001 -0.044472 0.004003 -0.000180
 30 6.551492 0.000000 -0.000000 -0.904810 0.628317 -0.551788
 31 0.000001 -1.940598 5.000002 -0.027189 -0.053376 0.005295
 32 6.551492 0.000000 -0.000000 -0.322153 0.326543 -0.149759
 33 0.000001 -1.940600 4.999996 -0.066572 -0.152786 -0.110311
 34 0.502396 0.101199 -1.655411 -0.836464 1.459399 2.617240
 35 6.384777 0.000001 0.000001 -0.189297 -0.487366 -0.116659
 36 10.242682 0.000001 0.000002 0.000000 0.000000 -2.262434
 37 11.375561 -0.000002 0.000001 2.473338 0.119828 0.611344
 38 0.728681 0.023431 1.008290 -1.579583 -0.319038 0.212973
 39 2.136497 -0.000000 -0.000001 0.000000 -0.000000 1.282817
 40 2.313142 0.000000 -0.000000 0.000000 0.000000 3.141593
 41 3.115506 -0.886040 0.021429 0.420766 0.316066 0.167178
 42 2.011151 -0.000001 -0.000001 -0.000000 0.000000 2.082010
 43 2.141380 -0.000000 -0.000000 0.000000 0.000000 3.141593
 44 1.734172 -0.000001 -0.000000 -0.000000 0.000000 1.041748
 45 0.136314 -3.738193 2.525889 1.493698 2.759406 -1.474501
 46 10.273803 -0.437101 1.198991 1.793563 0.004868 1.507198
 47 11.389365 -0.000820 0.158784 2.011755 0.133966 0.304962
 48 -0.000001 -4.440599 -0.000000 1.570144 -3.078602 0.004040
 49 6.000000 -0.000001 0.000001 2.011755 -0.000000 -0.000000
 50 0.000000 -4.440598 -0.000000 1.569944 -3.078603 0.004053
 51 10.510130 0.000000 -0.000000 0.000000 0.000000 -2.702014
 52 0.000001 -1.748400 -5.000002 -3.141593 0.004007 -1.539299
 53 5.499999 0.000000 -0.000000 0.075555 -0.000000 -0.000000
 54 0.000001 0.000001 -5.000000 -0.044472 3.137589 -0.000177
 55 6.551490 0.000001 0.000001 -0.075555 -0.199171 -0.094804
 56 -1.266844 -1.937443 -4.950559 -0.066572 -2.988806 -0.110308
 57 6.551491 0.000001 0.000000 -0.075555 -0.199171 -0.094804
 58 0.699370 -1.944208 -5.006847 -0.027189 -3.088217 0.005298
 59 4.226146 -0.003201 -0.000000 -0.020067 0.155254 -0.157317
 60 -0.000003 5.000000 0.000001 -0.153564 0.000087 2.718702
 61 0.000004 -0.000004 -3.713580 0.018865 -3.096651 -0.324845
 62 -0.000002 0.000000 5.000000 3.053198 1.558589 -0.074926
 63 -0.000007 0.000006 3.713580 -0.159276 -2.977491 -0.403653
 64 0.000001 -0.000000 -5.000000 -0.088724 1.558589 3.066337
 65 7.363602 1.646647 0.495663 3.141593 -1.570796 0.000000
 66 -0.000005 0.000007 3.619081 -0.217558 -2.796588 -0.810634
 67 16.573919 -0.000001 0.000000 0.000000 0.000000 -2.033247
 68 15.128181 0.000002 -0.000000 0.271612 0.009043 -0.097069
 69 5.758665 4.244730 0.000000 0.000000 -0.000000 1.842220
 70 3.177726 -0.000001 -0.000001 0.000000 0.000000 3.141593
 71 15.708953 0.000001 -0.000001 0.136460 0.001254 -0.052592
 72 0.275149 0.189214 -3.445208 3.130898 0.000409 -1.514604
 73 17.210194 -0.000002 0.000000 -0.000000 -0.000000 -2.328678
 74 -0.000000 0.000001 -4.999999 -0.079432 1.546568 -1.570855
 75 0.000002 -0.000003 -3.619081 0.034416 -3.071533 -0.493407
 76 16.573921 -0.000000 0.000000 0.000000 0.000000 -1.045581
 77 15.128181 0.000002 0.000000 0.002618 -0.051986 0.588317
 78 5.758665 4.244731 -0.000000 -0.000000 0.000000 1.815142
 79 4.003934 0.000000 0.000000 0.000000 0.000000 0.000000
 80 15.708955 0.000001 0.000000 0.004296 -0.037430 0.405337
 81 0.273998 0.191090 3.439762 -3.130907 -0.000437 -1.508107
 82 17.210194 0.000000 0.000000 -0.000000 -0.000000 -1.884228
 83 0.000000 -0.000001 5.000000 -0.079311 1.595025 -1.570737
time 1
  0 -0.650000 0.000000 33.899605 -0.025849 0.174554 -1.569172
  1 5.816420 0.852483 -32.971565 -0.174512 -0.026131 1.569196
  2 -2.276935 0.000003 -1.238188 -1.570795 -1.570451 0.000000
  3 1.796164 0.712758 0.002102 -0.696789 0.021809 -0.416762
  4 4.118609 -0.003276 0.000149 -0.046070 -0.177445 0.009442
  5 4.118507 -0.003050 0.001203 -0.390336 -0.268863 0.078547
  6 4.118797 -0.003106 0.001035 -0.321933 -0.066866 0.084955
  7 4.117652 -0.003402 0.000200 -0.058924 0.294169 -0.288989
  8 4.443601 0.000000 0.000000 -0.206632 -0.046788 -0.207887
  9 9.024059 0.000001 -0.000000 0.000000 0.000000 0.000000
 10 -0.502388 -0.094122 1.655411 1.116925 -0.836733 2.201352
 11 6.384777 -0.000001 0.000003 -1.480059 0.696227 -1.201314
 12 10.242682 -0.000000 -0.000001 -0.000000 -0.000000 -0.708791
 13 11.375563 -0.000002 0.000000 -2.933805 0.569617 0.098695
 14 0.728681 0.023431 -1.008292 2.098333 -0.050480 0.642666
 15 2.136495 -0.000001 -0.000001 -0.000000 0.000000 -0.078540
 16 2.313140 -0.000001 -0.000001 0.000000 0.000000 0.000000
 17 3.115507 -0.886042 -0.021431 -0.162706 -0.035495 0.299633
 18 2.011153 0.000000 -0.000000 0.000000 -0.000000 1.104625
 19 2.141377 0.000000 0.000000 0.000000 0.000000 0.000000
 20 1.734174 0.000003 0.000001 -0.000000 0.000000 0.551513
 21 0.000007 -4.440593 0.000001 1.570544 -0.062990 -0.195737
 22 6.000000 -0.000003 0.000000 -2.617513 0.000000 -0.000000
 23 0.000002 -4.440599 0.000001 1.569944 -0.062987 0.004053
 24 11.375562 -0.000003 0.000003 -2.225259 0.275617 0.166105
 25 0.000000 -4.440604 0.000001 1.570144 -0.062988 0.004040
 26 10.510130 -0.000001 -0.000001 -0.000000 0.000000 -1.925192
 27 -0.000002 -1.748401 5.000000 -0.000000 0.004007 1.602290
 28 5.500000 0.000001 -0.000000 0.408741 -0.000000 -0.000000
 29 -0.000002 -1.940598 5.000001 -0.044472 0.004003 -0.000180
 30 6.551492 0.000000 -0.000000 -0.904810 0.628317 -0.551788
 31 0.000001 -1.940598 5.000002 -0.027189 -0.053376 0.005295
 32 6.551492 0.000000 -0.000000 -0.322153 0.326543 -0.149759
 33 0.000001 -1.940600 4.999996 -0.066572 -0.152786 -0.110311
 34 0.502396 0.101199 -1.655411 -0.836464 1.459399 2.617240
 35 6.384777 0.000001 0.000001 -0.189297 -0.487366 -0.116659
 36 10.242682 0.000001 0.000002 0.000000 0.000000 -2.262434
 37 11.375561 -0.000002 0.000001 2.473338 0.119828 0.611344
 38 0.728681 0.023431 1.008290 -1.579583 -0.319038 0.212973
 39 2.136497 -0.000000 -0.000001 0.000000 -0.000000 1.282817
 40 2.313142 0.000000 -0.000000 0.000000 0.000000 3.141593
 41 3.115506 -0.886040 0.021429 0.420766 0.316066 0.167178
 42 2.011151 -0.000001 -0.000001 -0.000000 0.000000 2.082010
 43 2.141380 -0.000000 -0.000000 0.000000 0.000000 3.141593
 44 1.734172 -0.000001 -0.000000 -0.000000 0.000000 1.041748
 45 0.136314 -3.738193 2.525889 1.493698 2.759406 -1.474501
 46 10.273803 -0.437101 1.198991 1.793563 0.004868 1.507198
 47 11.389365 -0.000820 0.158784 2.011755 0.133966 0.304962
 48 -0.000001 -4.440599 -0.000000 1.570144 -3.078602 0.004040
 49 6.000000 -0.000001 0.000001 2.011755 -0.000000 -0.000000
 50 0.000000 -4.440598 -0.000000 1.569944 -3.078603 0.004053
 51 10.510130 0.000000 -0.000000 0.000000 0.000000 -2.702014
 52 0.000001 -1.748400 -5.000002 -3.141593 0.004007 -1.539299
 53 5.499999 0.000000 -0.000000 0.075555 -0.000000 -0.000000
 54 0.000001 0.000001 -5.000000 -0.044472 3.137589 -0.000177
 55 6.551490 0.000001 0.000001 -0.075555 -0.199171 -0.094804
 56 -1.266844 -1.937443 -4.950559 -0.066572 -2.988806 -0.110308
 57 6.551491 0.000001 0.000000 -0.075555 -0.199171 -0.094804
 58 0.699370 -1.944208 -5.006847 -0.027189 -3.088217 0.005298
 59 4.226146 -0.003201 -0.000000 -0.020067 0.155254 -0.157317
 60 -0.000003 5.000000 0.000001 -0.153564 0.000087 2.718702
 61 0.000004 -0.000004 -3.713580 0.018865 -3.096651 -0.324845
 62 -0.000002 0.000000 5.000000 3.053198 1.558589 -0.074926
 63 -0.000007 0.000006 3.713580 -0.159276 -2.977491 -0.403653
 64 0.000001 -0.000000 -5.000000 -0.088724 1.558589 3.066337
 65 7.363602 1.646647 0.495663 3.141593 -1.570796 0.000000
 66 -0.000005 0.000007 3.619081 -0.217558 -2.796588 -0.810634
 67 16.573919 -0.000001 0.000000 0.000000 0.000000 -2.033247
 68 15.128181 0.000002 -0.000000 0.271612 0.009043 -0.097069
 69 5.758665 4.244730 0.000000 0.000000 -0.000000 1.842220
 70 3.177726 -0.000001 -0.000001 0.000000 0.000000 3.141593
 71 15.708953 0.000001 -0.000001 0.136460 0.001254 -0.052592
 72 0.275149 0.189214 -3.445208 3.130898 0.000409 -1.514604
 73 17.210194 -0.000002 0.000000 -0.000000 -0.000000 -2.328678
 74 -0.000000 0.000001 -4.999999 -0.079432 1.546568 -1.570855
 75 0.000002 -0.000003 -3.619081 0.034416 -3.071533 -0.493407
 76 16.573921 -0.000000 0.000000 0.000000 0.000000 -1.045581
 77 15.128181 0.000002 0.000000 0.002618 -0.051986 0.588317
 78 5.758665 4.244731 -0.000000 -0.000000 0.000000 1.815142
 79 4.003934 0.000000 0.000000 0.000000 0.000000 0.000000
 80 15.708955 0.000001 0.000000 0.004296 -0.037430 0.405337
 81 0.273998 0.191090 3.439762 -3.130907 -0.000437 -1.508107
 82 17.210194 0.000000 0.000000 -0.000000 -0.000000 -1.884228
 83 0.000000 -0.000001 5.000000 -0.079311 1.595025 -1.570737
end
