version 1
nodes
  0 "Bip01"  -1
  1 "Bip01 Footsteps"   0
  2 "Bip01 Pelvis"   0
  3 "Bip01 Spine"   2
  4 "Bip01 Spine1"   3
  5 "Bip01 Spine2"   4
  6 "Bip01 Spine3"   5
  7 "Bip01 Neck"   6
  8 "Bip01 Head"   7
  9 "Dummy21"   8
 10 "Bip01 L Clavicle"   7
 11 "Bip01 L UpperArm"  10
 12 "Bip01 L Forearm"  11
 13 "Bip01 L Hand"  12
 14 "Bip01 L Finger0"  13
 15 "Bip01 L Finger01"  14
 16 "Dummy06"  15
 17 "Bip01 L Finger1"  13
 18 "Bip01 L Finger11"  17
 19 "Dummy03"  18
 20 "-- L knuckle"  17
 21 "-- L knuckle_end"  20
 22 "-- L Forearm twist"  12
 23 "-- L Forearm twist_end"  22
 24 "-- L wrist"  12
 25 "-- L wrist_end"  24
 26 "-- L Elbow"  11
 27 "--L Elbow_end"  26
 28 "-- L bicep twist"  11
 29 "-- L bicep twist_end"  28
 30 "-- L shoulder outside"  10
 31 "-- L shoulder outside_end"  30
 32 "-- L Shoulder inside"  10
 33 "-- L Shoulder inside_end"  32
 34 "Bip01 R Clavicle"   7
 35 "Bip01 R UpperArm"  34
 36 "Bip01 R Forearm"  35
 37 "Bip01 R Hand"  36
 38 "Bip01 R Finger0"  37
 39 "Bip01 R Finger01"  38
 40 "Dummy01"  39
 41 "Bip01 R Finger1"  37
 42 "Bip01 R Finger11"  41
 43 "Dummy02"  42
 44 "-- R knuckle"  41
 45 "Point06"  44
 46 "Line06"  37
 47 "-- R wrist"  36
 48 "-- R wrist_end"  47
 49 "-- R forearm twist"  36
 50 "-- R forearm twist_end"  49
 51 "-- R Elbow"  35
 52 "--R Elbow_end"  51
 53 "-- R bicep twist"  35
 54 "-- R bicep twist_end"  53
 55 "-- R Shoulder inside"  34
 56 "-- R Shoulder inside_end"  55
 57 "-- R shoulder outside"  34
 58 "-- R shoulder outside_end"  57
 59 "-- Neck smooth"   6
 60 "-- neck smooth end"  59
 61 "-- R Butt"   2
 62 "--R Butt_end"  61
 63 "-- L butt"   2
 64 "--L butt_end"  63
 65 "GIGN01"   2
 66 "Bip01 L Thigh"   2
 67 "Bip01 L Calf"  66
 68 "Bip01 L Foot"  67
 69 "Bip01 L Toe0"  68
 70 "Dummy16"  69
 71 "-- L ankle"  67
 72 "-- L ankleend"  71
 73 "-- L Knee"  66
 74 "--L Knee_end"  73
 75 "Bip01 R Thigh"   2
 76 "Bip01 R Calf"  75
 77 "Bip01 R Foot"  76
 78 "Bip01 R Toe0"  77
 79 "Dummy11"  78
 80 "-- R Ankle"  76
 81 "-- R ankleend"  80
 82 "-- R Knee"  75
 83 "--R Knee_end"  82
end
skeleton
time 0
  0 -0.650000 0.000000 33.899605 -0.025849 0.174554 -1.569172
  1 5.816421 0.852483 -32.971565 -0.174512 -0.026131 1.569196
  2 -2.276935 0.000003 -1.238189 -1.570795 -1.570451 0.000000
  3 1.797383 0.711808 0.000126 -0.039062 -0.047805 0.075427
  4 4.119894 -0.003014 0.000108 -0.033069 0.073080 0.402170
  5 4.118149 -0.003244 0.000091 -0.027735 -0.007649 -0.138124
  6 4.118444 -0.003269 0.000211 -0.064560 -0.067494 -0.044044
  7 4.118587 -0.003514 -0.000410 0.116454 0.038838 -0.000211
  8 4.443600 0.000001 0.000000 1.461770 0.263295 -0.060586
  9 9.024065 -0.000000 0.000001 0.000000 0.000000 0.000000
 10 -0.067276 0.204707 1.719688 -2.860404 -1.455918 -0.274267
 11 6.384778 -0.000002 -0.000002 -1.560987 0.730942 -0.426828
 12 10.242682 0.000001 -0.000001 -0.000000 -0.000000 -2.254385
 13 11.375562 0.000000 0.000001 2.914688 0.714148 0.637043
 14 0.728681 0.023433 -1.008293 1.100073 0.611404 0.551668
 15 2.136493 0.000000 0.000001 0.000000 -0.000000 -0.078540
 16 2.313140 0.000001 0.000001 0.000000 0.000000 0.000000
 17 3.115507 -0.886038 -0.021431 -0.454479 0.000392 0.514872
 18 2.011150 -0.000001 -0.000000 0.000000 0.000000 1.322792
 19 2.141377 0.000001 -0.000001 0.000000 0.000000 0.000000
 20 1.734172 0.000000 -0.000001 -0.000000 0.000000 0.660693
 21 0.000008 -4.440594 0.000000 1.570544 -0.062990 -0.195737
 22 5.999997 -0.000000 -0.000001 -3.066190 -0.000000 -0.000000
 23 0.000001 -4.440601 -0.000000 1.569944 -0.062987 0.004053
 24 11.375561 0.000000 0.000004 -2.470452 0.195350 0.501347
 25 -0.000002 -4.440603 -0.000000 1.570144 -0.062988 0.004040
 26 10.510128 0.000000 -0.000000 0.000000 -0.000000 -2.697989
 27 0.000002 -1.748401 4.999999 -0.000000 0.004007 1.602291
 28 5.500000 0.000002 -0.000001 0.477927 0.000000 0.000000
 29 -0.000003 -1.940599 5.000002 -0.044472 0.004003 -0.000180
 30 6.551492 -0.000001 -0.000002 -0.997598 0.625546 -0.236422
 31 0.000001 -1.940597 5.000001 -0.027189 -0.053376 0.005295
 32 6.551492 -0.000001 -0.000002 -0.382086 0.290340 -0.011124
 33 0.000000 -1.940599 4.999994 -0.066572 -0.152786 -0.110311
 34 0.067278 -0.197629 -1.719688 -1.614097 1.224731 1.542630
 35 6.384777 0.000002 -0.000002 0.038191 0.402979 -1.201782
 36 10.242682 0.000000 0.000001 -0.000000 -0.000000 -1.888393
 37 11.375561 -0.000001 0.000001 2.809756 0.404379 0.203373
 38 0.728680 0.023432 1.008289 -1.579583 -0.319038 0.212973
 39 2.136497 -0.000000 0.000001 0.000000 0.000000 1.282817
 40 2.313140 -0.000000 0.000001 0.000000 0.000000 3.141593
 41 3.115508 -0.886040 0.021432 0.420766 0.316066 0.167178
 42 2.011151 0.000000 -0.000002 0.000000 -0.000000 2.082010
 43 2.141380 0.000000 0.000002 0.000000 0.000000 3.141593
 44 1.734172 -0.000001 -0.000002 0.000000 -0.000000 1.041748
 45 0.136316 -3.738193 2.525889 1.493698 2.759406 -1.474501
 46 -2.193618 0.798258 4.032637 1.563844 0.186374 -0.074848
 47 11.389366 -0.000820 0.158781 2.164013 0.253989 0.034986
 48 0.000001 -4.440603 0.000000 1.570144 -3.078602 0.004040
 49 6.000000 -0.000001 0.000001 2.164013 -0.000000 -0.000000
 50 0.000002 -4.440600 -0.000001 1.569944 -3.078603 0.004053
 51 10.510132 0.000000 0.000003 -0.000000 -0.000000 -2.514993
 52 0.000001 -1.748399 -5.000000 3.141593 0.004007 -1.539299
 53 5.500000 0.000001 0.000003 -0.062716 -0.000000 0.000000
 54 -0.000000 0.000001 -4.999997 -0.044472 3.137589 -0.000177
 55 6.551491 -0.000000 0.000001 0.062716 0.121106 -0.315440
 56 -1.266843 -1.937444 -4.950560 -0.066572 -2.988806 -0.110308
 57 6.551492 -0.000000 0.000001 0.062716 0.121106 -0.315440
 58 0.699371 -1.944209 -5.006845 -0.027189 -3.088217 0.005298
 59 4.226149 -0.003202 -0.000000 0.065195 0.023040 -0.000839
 60 0.000000 5.000001 -0.000000 -0.153564 0.000087 2.718702
 61 0.000004 -0.000004 -3.713580 0.018865 -3.096651 -0.324845
 62 -0.000002 0.000000 5.000000 3.053198 1.558589 -0.074926
 63 -0.000007 0.000006 3.713580 -0.159276 -2.977491 -0.403653
 64 0.000001 -0.000000 -5.000000 -0.088726 1.558589 3.066335
 65 7.363602 1.646647 0.495663 3.141593 -1.570796 0.000000
 66 -0.000005 0.000007 3.619081 -0.217558 -2.796588 -0.810634
 67 16.573919 0.000000 0.000000 0.000000 0.000000 -2.033247
 68 15.128181 0.000002 -0.000000 0.271612 0.009043 -0.097069
 69 5.758665 4.244730 0.000000 0.000000 -0.000000 1.842220
 70 3.177726 -0.000002 -0.000001 0.000000 0.000000 3.141593
 71 15.708954 0.000001 -0.000001 0.136460 0.001254 -0.052592
 72 0.275148 0.189214 -3.445207 3.130898 0.000409 -1.514604
 73 17.210194 -0.000000 0.000000 0.000000 -0.000000 -2.328678
 74 0.000000 0.000001 -5.000000 -0.079433 1.546568 -1.570857
 75 0.000002 -0.000003 -3.619081 0.034416 -3.071533 -0.493407
 76 16.573921 -0.000000 -0.000000 0.000000 0.000000 -1.045581
 77 15.128182 0.000001 -0.000000 0.002618 -0.051986 0.588317
 78 5.758666 4.244731 0.000000 -0.000000 0.000000 1.815142
 79 4.003934 0.000000 -0.000000 0.000000 0.000000 0.000000
 80 15.708955 -0.000000 -0.000000 0.004296 -0.037430 0.405337
 81 0.273998 0.191090 3.439762 -3.130907 -0.000437 -1.508106
 82 17.210194 0.000001 -0.000000 -0.000000 -0.000000 -1.884228
 83 0.000000 -0.000001 5.000000 -0.079314 1.595025 -1.570739
time 1
  0 -0.650000 0.000000 33.899605 -0.025849 0.174554 -1.569172
  1 5.816421 0.852483 -32.971565 -0.174512 -0.026131 1.569196
  2 -2.276935 0.000003 -1.238189 -1.570795 -1.570451 0.000000
  3 1.797392 0.711806 0.000035 -0.011483 0.066884 0.075961
  4 4.119889 -0.003016 0.000025 -0.007651 0.027210 0.403268
  5 4.118147 -0.003249 0.000002 -0.000455 -0.062229 -0.139853
  6 4.118441 -0.003272 0.000121 -0.037064 -0.101303 -0.045557
  7 4.119050 -0.003494 -0.000337 0.096906 0.173564 0.143669
  8 4.443596 0.000001 -0.000000 1.471285 -0.129970 -0.134097
  9 9.024062 0.000000 -0.000001 0.000000 0.000000 0.000000
 10 -0.299232 0.168664 1.698681 -1.117025 -1.487604 -2.141228
 11 6.384778 0.000001 -0.000001 -1.422944 0.913004 -0.723566
 12 10.242684 0.000000 0.000001 -0.000000 -0.000000 -2.234685
 13 11.375563 -0.000001 0.000002 2.955983 0.438414 0.579627
 14 0.728680 0.023432 -1.008293 1.100072 0.611404 0.551668
 15 2.136498 0.000000 -0.000001 0.000000 0.000000 -0.078540
 16 2.313139 -0.000000 0.000001 0.000000 0.000000 0.000000
 17 3.115506 -0.886039 -0.021432 -0.454479 0.000392 0.514872
 18 2.011147 -0.000000 0.000001 0.000000 0.000000 1.322792
 19 2.141380 -0.000001 -0.000001 0.000000 0.000000 0.000000
 20 1.734170 -0.000001 0.000001 -0.000000 0.000000 0.660693
 21 0.000007 -4.440594 0.000000 1.570544 -0.062990 -0.195737
 22 6.000000 0.000000 0.000000 -3.017210 -0.000000 0.000000
 23 0.000001 -4.440600 -0.000000 1.569944 -0.062987 0.004053
 24 11.375562 -0.000000 0.000004 -2.459900 0.070507 0.411536
 25 -0.000002 -4.440603 -0.000001 1.570144 -0.062988 0.004040
 26 10.510131 0.000000 0.000001 0.000000 -0.000000 -2.688138
 27 0.000001 -1.748401 5.000000 -0.000000 0.004007 1.602291
 28 5.500002 0.000001 0.000000 0.386908 -0.000000 -0.000000
 29 -0.000004 -1.940598 5.000000 -0.044472 0.004003 -0.000180
 30 6.551492 -0.000000 -0.000003 -0.834752 0.743195 -0.265272
 31 0.000002 -1.940599 5.000000 -0.027189 -0.053376 0.005295
 32 6.551492 -0.000000 -0.000003 -0.309304 0.344986 -0.024140
 33 0.000000 -1.940599 4.999996 -0.066572 -0.152786 -0.110311
 34 0.299231 -0.161586 -1.698681 -1.976987 1.151618 1.076948
 35 6.384778 0.000002 -0.000003 0.103132 0.385013 -0.923896
 36 10.242683 -0.000001 -0.000003 0.000000 -0.000000 -2.013663
 37 11.375563 -0.000001 0.000002 2.820888 0.237786 0.189557
 38 0.728680 0.023431 1.008291 -1.579583 -0.319038 0.212973
 39 2.136497 -0.000004 0.000000 0.000000 0.000000 1.282817
 40 2.313142 0.000002 0.000001 0.000000 0.000000 3.141593
 41 3.115507 -0.886043 0.021434 0.420766 0.316066 0.167178
 42 2.011151 -0.000002 -0.000002 0.000000 0.000000 2.082010
 43 2.141381 -0.000001 -0.000001 0.000000 0.000000 3.141593
 44 1.734172 -0.000002 0.000001 0.000000 0.000000 1.041748
 45 0.136315 -3.738192 2.525891 1.493698 2.759406 -1.474501
 46 -2.193618 0.798257 4.032641 1.563844 0.186374 -0.074848
 47 11.389368 -0.000820 0.158784 2.184827 0.167740 0.061256
 48 0.000001 -4.440600 0.000001 1.570144 -3.078602 0.004040
 49 6.000001 -0.000000 0.000001 2.184827 0.000000 -0.000000
 50 0.000001 -4.440601 -0.000000 1.569944 -3.078603 0.004053
 51 10.510131 -0.000001 -0.000001 -0.000000 -0.000000 -2.577628
 52 0.000000 -1.748399 -5.000001 3.141593 0.004007 -1.539299
 53 5.500000 -0.000001 -0.000000 -0.066591 -0.000000 0.000000
 54 0.000001 -0.000000 -5.000000 -0.044472 3.137589 -0.000177
 55 6.551493 0.000001 0.000000 0.066591 0.113159 -0.271736
 56 -1.266844 -1.937443 -4.950560 -0.066572 -2.988806 -0.110308
 57 6.551493 0.000000 -0.000000 0.066591 0.113159 -0.271736
 58 0.699371 -1.944208 -5.006846 -0.027189 -3.088217 0.005298
 59 4.226144 -0.003200 0.000000 0.051720 0.103370 0.088548
 60 0.000000 5.000001 -0.000000 -0.153564 0.000087 2.718702
 61 0.000004 -0.000004 -3.713580 0.018865 -3.096651 -0.324845
 62 -0.000002 0.000000 5.000000 3.053198 1.558589 -0.074926
 63 -0.000007 0.000006 3.713580 -0.159276 -2.977491 -0.403653
 64 0.000001 -0.000000 -5.000000 -0.088726 1.558589 3.066335
 65 7.363602 1.646647 0.495663 3.141593 -1.570796 0.000000
 66 -0.000005 0.000007 3.619081 -0.217558 -2.796588 -0.810634
 67 16.573919 0.000000 0.000000 0.000000 0.000000 -2.033247
 68 15.128181 0.000002 -0.000000 0.271612 0.009043 -0.097069
 69 5.758665 4.244730 0.000000 0.000000 -0.000000 1.842220
 70 3.177726 -0.000002 -0.000001 0.000000 0.000000 3.141593
 71 15.708954 0.000001 -0.000001 0.136460 0.001254 -0.052592
 72 0.275148 0.189214 -3.445207 3.130898 0.000409 -1.514604
 73 17.210194 -0.000000 0.000000 0.000000 -0.000000 -2.328678
 74 0.000000 0.000001 -5.000000 -0.079433 1.546568 -1.570857
 75 0.000002 -0.000003 -3.619081 0.034416 -3.071533 -0.493407
 76 16.573921 -0.000000 -0.000000 0.000000 0.000000 -1.045581
 77 15.128182 0.000001 -0.000000 0.002618 -0.051986 0.588317
 78 5.758666 4.244731 0.000000 -0.000000 0.000000 1.815142
 79 4.003934 0.000000 -0.000000 0.000000 0.000000 0.000000
 80 15.708955 -0.000000 -0.000000 0.004296 -0.037430 0.405337
 81 0.273998 0.191090 3.439762 -3.130907 -0.000437 -1.508106
 82 17.210194 0.000001 -0.000000 -0.000000 -0.000000 -1.884228
 83 0.000000 -0.000001 5.000000 -0.079314 1.595025 -1.570739
time 2
  0 -0.650000 0.000000 33.899605 -0.025849 0.174554 -1.569172
  1 5.816421 0.852483 -32.971565 -0.174512 -0.026131 1.569196
  2 -2.276935 0.000003 -1.238189 -1.570795 -1.570451 0.000000
  3 1.797393 0.711806 -0.000056 0.016556 0.181513 0.079711
  4 4.119887 -0.003016 -0.000059 0.017712 -0.018672 0.403200
  5 4.118145 -0.003246 -0.000088 0.027053 -0.116742 -0.143088
  6 4.118444 -0.003276 0.000031 -0.009405 -0.135058 -0.048013
  7 4.119508 -0.003404 -0.000326 0.097188 0.310060 0.289730
  8 4.443599 -0.000000 0.000000 1.458282 -0.509632 -0.172404
  9 9.024061 0.000000 -0.000001 0.000000 0.000000 0.000000
 10 -0.528680 0.163651 1.642311 -0.651784 -1.347744 -2.730606
 11 6.384778 -0.000001 0.000000 -1.419383 1.053331 -1.083961
 12 10.242683 0.000001 -0.000001 0.000000 -0.000000 -2.127010
 13 11.375563 -0.000001 0.000001 2.999401 0.242803 0.465216
 14 0.728680 0.023432 -1.008292 1.100072 0.611404 0.551668
 15 2.136498 -0.000000 0.000000 -0.000000 -0.000000 -0.078540
 16 2.313138 -0.000000 0.000000 0.000000 0.000000 0.000000
 17 3.115505 -0.886040 -0.021432 -0.454479 0.000392 0.514872
 18 2.011153 0.000000 0.000000 0.000000 0.000000 1.322792
 19 2.141380 0.000001 0.000000 0.000000 0.000000 0.000000
 20 1.734172 0.000001 -0.000000 0.000000 -0.000000 0.660693
 21 0.000006 -4.440594 0.000000 1.570544 -0.062990 -0.195737
 22 5.999999 0.000001 -0.000000 -2.964601 0.000000 -0.000000
 23 0.000000 -4.440602 0.000001 1.569944 -0.062987 0.004053
 24 11.375562 -0.000000 0.000004 -2.434490 0.001596 0.313184
 25 -0.000000 -4.440603 -0.000001 1.570144 -0.062988 0.004040
 26 10.510130 -0.000000 -0.000002 0.000000 -0.000000 -2.634301
 27 0.000000 -1.748401 5.000000 0.000000 0.004007 1.602291
 28 5.499997 0.000000 -0.000001 0.321794 -0.000000 -0.000000
 29 -0.000002 -1.940598 5.000000 -0.044472 0.004003 -0.000180
 30 6.551492 -0.000000 0.000001 -0.744718 0.838087 -0.331860
 31 -0.000001 -1.940600 5.000002 -0.027189 -0.053376 0.005295
 32 6.551492 -0.000000 0.000001 -0.254660 0.387668 -0.047428
 33 0.000001 -1.940600 4.999995 -0.066572 -0.152786 -0.110311
 34 0.528681 -0.156574 -1.642310 -2.189001 1.032816 0.759971
 35 6.384778 0.000001 -0.000001 0.154170 0.339223 -0.654090
 36 10.242682 -0.000000 -0.000002 0.000000 0.000000 -2.138932
 37 11.375560 0.000001 -0.000001 2.834031 0.071363 0.174246
 38 0.728681 0.023432 1.008290 -1.579583 -0.319038 0.212973
 39 2.136497 0.000000 -0.000000 0.000000 0.000000 1.282817
 40 2.313140 -0.000001 -0.000000 0.000000 0.000000 3.141593
 41 3.115507 -0.886041 0.021430 0.420765 0.316066 0.167178
 42 2.011150 0.000001 0.000002 -0.000000 -0.000000 2.082010
 43 2.141378 -0.000000 -0.000004 0.000000 0.000000 3.141593
 44 1.734173 -0.000000 -0.000000 0.000000 0.000000 1.041748
 45 0.136314 -3.738193 2.525890 1.493698 2.759406 -1.474501
 46 -2.193618 0.798257 4.032639 1.563844 0.186374 -0.074848
 47 11.389366 -0.000819 0.158779 2.200419 0.074985 0.086236
 48 0.000000 -4.440599 -0.000001 1.570144 -3.078602 0.004040
 49 6.000000 -0.000001 -0.000002 2.200419 -0.000000 0.000000
 50 0.000002 -4.440603 -0.000001 1.569944 -3.078603 0.004053
 51 10.510133 -0.000001 -0.000000 -0.000000 0.000000 -2.640262
 52 -0.000000 -1.748399 -5.000000 -3.141593 0.004007 -1.539299
 53 5.500000 -0.000000 -0.000002 -0.066736 -0.000000 -0.000000
 54 0.000000 0.000000 -5.000000 -0.044472 3.137589 -0.000177
 55 6.551491 0.000002 -0.000003 0.066736 0.106729 -0.236920
 56 -1.266844 -1.937444 -4.950560 -0.066572 -2.988806 -0.110308
 57 6.551493 0.000001 -0.000003 0.066736 0.106729 -0.236920
 58 0.699370 -1.944208 -5.006848 -0.027189 -3.088217 0.005298
 59 4.226148 -0.003202 0.000000 0.043993 0.180891 0.171875
 60 0.000001 5.000001 -0.000000 -0.153564 0.000087 2.718702
 61 0.000004 -0.000004 -3.713580 0.018865 -3.096651 -0.324845
 62 -0.000002 0.000000 5.000000 3.053198 1.558589 -0.074926
 63 -0.000007 0.000006 3.713580 -0.159276 -2.977491 -0.403653
 64 0.000001 -0.000000 -5.000000 -0.088726 1.558589 3.066335
 65 7.363602 1.646647 0.495663 3.141593 -1.570796 0.000000
 66 -0.000005 0.000007 3.619081 -0.217558 -2.796588 -0.810634
 67 16.573919 0.000000 0.000000 0.000000 0.000000 -2.033247
 68 15.128181 0.000002 -0.000000 0.271612 0.009043 -0.097069
 69 5.758665 4.244730 0.000000 0.000000 -0.000000 1.842220
 70 3.177726 -0.000002 -0.000001 0.000000 0.000000 3.141593
 71 15.708954 0.000001 -0.000001 0.136460 0.001254 -0.052592
 72 0.275148 0.189214 -3.445207 3.130898 0.000409 -1.514604
 73 17.210194 -0.000000 0.000000 0.000000 -0.000000 -2.328678
 74 0.000000 0.000001 -5.000000 -0.079433 1.546568 -1.570857
 75 0.000002 -0.000003 -3.619081 0.034416 -3.071533 -0.493407
 76 16.573921 -0.000000 -0.000000 0.000000 0.000000 -1.045581
 77 15.128182 0.000001 -0.000000 0.002618 -0.051986 0.588317
 78 5.758666 4.244731 0.000000 -0.000000 0.000000 1.815142
 79 4.003934 0.000000 -0.000000 0.000000 0.000000 0.000000
 80 15.708955 -0.000000 -0.000000 0.004296 -0.037430 0.405337
 81 0.273998 0.191090 3.439762 -3.130907 -0.000437 -1.508106
 82 17.210194 0.000001 -0.000000 -0.000000 -0.000000 -1.884228
 83 0.000000 -0.000001 5.000000 -0.079314 1.595025 -1.570739
time 3
  0 -0.650000 0.000000 33.899605 -0.025849 0.174554 -1.569172
  1 5.816421 0.852483 -32.971565 -0.174512 -0.026131 1.569196
  2 -2.276935 0.000003 -1.238189 -1.570795 -1.570451 0.000000
  3 1.797384 0.711808 -0.000146 0.045837 0.295989 0.086919
  4 4.119890 -0.003011 -0.000142 0.043126 -0.064538 0.401967
  5 4.118154 -0.003245 -0.000177 0.054957 -0.171144 -0.147868
  6 4.118445 -0.003275 -0.000060 0.018481 -0.168731 -0.051427
  7 4.119948 -0.003252 -0.000381 0.119626 0.445357 0.444069
  8 4.443599 0.000002 0.000000 1.388303 -0.868376 -0.144346
  9 9.024062 0.000001 0.000001 0.000000 0.000000 0.000000
 10 -0.746423 0.190151 1.552529 -0.601982 -1.194807 -2.906689
 11 6.384777 0.000001 0.000002 -1.572767 1.144103 -1.506931
 12 10.242684 -0.000000 0.000000 0.000000 -0.000000 -1.970275
 13 11.375563 -0.000000 0.000000 3.020287 0.133324 0.330623
 14 0.728680 0.023428 -1.008293 1.100073 0.611404 0.551668
 15 2.136498 0.000000 -0.000001 0.000000 -0.000000 -0.078540
 16 2.313141 0.000002 -0.000001 0.000000 0.000000 0.000000
 17 3.115505 -0.886043 -0.021431 -0.454479 0.000392 0.514872
 18 2.011151 0.000000 0.000000 -0.000000 0.000000 1.322792
 19 2.141381 -0.000000 -0.000000 0.000000 0.000000 0.000000
 20 1.734172 0.000003 0.000000 -0.000000 -0.000000 0.660693
 21 0.000006 -4.440594 0.000001 1.570544 -0.062990 -0.195737
 22 6.000000 0.000001 0.000000 -2.937474 0.000000 0.000000
 23 0.000001 -4.440600 -0.000001 1.569944 -0.062987 0.004053
 24 11.375562 -0.000000 0.000004 -2.419983 -0.020243 0.220603
 25 -0.000000 -4.440603 0.000002 1.570144 -0.062988 0.004040
 26 10.510128 -0.000000 0.000000 -0.000000 -0.000000 -2.555934
 27 0.000001 -1.748400 4.999999 0.000000 0.004007 1.602291
 28 5.499999 0.000000 0.000000 0.231102 0.000000 0.000000
 29 -0.000004 -1.940598 5.000001 -0.044472 0.004003 -0.000180
 30 6.551492 0.000000 0.000001 -0.692698 0.976282 -0.566108
 31 -0.000002 -1.940598 5.000000 -0.027189 -0.053376 0.005295
 32 6.551492 0.000000 0.000001 -0.174411 0.445684 -0.115347
 33 -0.000001 -1.940598 4.999995 -0.066572 -0.152786 -0.110311
 34 0.746425 -0.183067 -1.552530 -2.299391 0.892588 0.540759
 35 6.384776 0.000001 -0.000002 0.180811 0.272517 -0.397048
 36 10.242683 -0.000001 0.000001 -0.000000 -0.000000 -2.264202
 37 11.375562 -0.000000 0.000001 2.849745 -0.094824 0.156719
 38 0.728680 0.023431 1.008294 -1.579583 -0.319038 0.212973
 39 2.136497 0.000003 0.000000 0.000000 0.000000 1.282817
 40 2.313138 0.000000 0.000000 0.000000 0.000000 3.141593
 41 3.115506 -0.886041 0.021434 0.420766 0.316066 0.167178
 42 2.011149 0.000001 -0.000001 0.000000 0.000000 2.082010
 43 2.141379 -0.000000 -0.000001 0.000000 0.000000 3.141593
 44 1.734172 -0.000001 -0.000002 0.000000 -0.000000 1.041748
 45 0.136313 -3.738191 2.525889 1.493698 2.759406 -1.474501
 46 -2.193618 0.798257 4.032640 1.563844 0.186374 -0.074848
 47 11.389367 -0.000819 0.158784 2.210646 -0.021116 0.108784
 48 -0.000000 -4.440599 -0.000001 1.570144 -3.078602 0.004040
 49 6.000000 0.000000 0.000001 2.210646 0.000000 0.000000
 50 0.000002 -4.440603 0.000000 1.569944 -3.078603 0.004053
 51 10.510134 -0.000001 0.000001 -0.000000 0.000000 -2.702898
 52 0.000001 -1.748400 -5.000000 3.141593 0.004007 -1.539299
 53 5.500000 -0.000000 0.000002 -0.064436 -0.000000 0.000000
 54 -0.000001 -0.000001 -4.999999 -0.044472 3.137589 -0.000177
 55 6.551492 -0.000001 -0.000001 0.064436 0.101147 -0.196590
 56 -1.266843 -1.937443 -4.950557 -0.066572 -2.988806 -0.110308
 57 6.551492 -0.000001 -0.000001 0.064436 0.101147 -0.196590
 58 0.699370 -1.944207 -5.006846 -0.027189 -3.088217 0.005298
 59 4.226146 -0.003202 -0.000000 0.040744 0.255672 0.249088
 60 0.000001 5.000001 -0.000001 -0.153564 0.000087 2.718702
 61 0.000004 -0.000004 -3.713580 0.018865 -3.096651 -0.324845
 62 -0.000002 0.000000 5.000000 3.053198 1.558589 -0.074926
 63 -0.000007 0.000006 3.713580 -0.159276 -2.977491 -0.403653
 64 0.000001 -0.000000 -5.000000 -0.088726 1.558589 3.066335
 65 7.363602 1.646647 0.495663 3.141593 -1.570796 0.000000
 66 -0.000005 0.000007 3.619081 -0.217558 -2.796588 -0.810634
 67 16.573919 0.000000 0.000000 0.000000 0.000000 -2.033247
 68 15.128181 0.000002 -0.000000 0.271612 0.009043 -0.097069
 69 5.758665 4.244730 0.000000 0.000000 -0.000000 1.842220
 70 3.177726 -0.000002 -0.000001 0.000000 0.000000 3.141593
 71 15.708954 0.000001 -0.000001 0.136460 0.001254 -0.052592
 72 0.275148 0.189214 -3.445207 3.130898 0.000409 -1.514604
 73 17.210194 -0.000000 0.000000 0.000000 -0.000000 -2.328678
 74 0.000000 0.000001 -5.000000 -0.079433 1.546568 -1.570857
 75 0.000002 -0.000003 -3.619081 0.034416 -3.071533 -0.493407
 76 16.573921 -0.000000 -0.000000 0.000000 0.000000 -1.045581
 77 15.128182 0.000001 -0.000000 0.002618 -0.051986 0.588317
 78 5.758666 4.244731 0.000000 -0.000000 0.000000 1.815142
 79 4.003934 0.000000 -0.000000 0.000000 0.000000 0.000000
 80 15.708955 -0.000000 -0.000000 0.004296 -0.037430 0.405337
 81 0.273998 0.191090 3.439762 -3.130907 -0.000437 -1.508106
 82 17.210194 0.000001 -0.000000 -0.000000 -0.000000 -1.884228
 83 0.000000 -0.000001 5.000000 -0.079314 1.595025 -1.570739
end
