version 1
nodes
  0 "Bip01"  -1
  1 "Bip01 Footsteps"   0
  2 "Bip01 Pelvis"   0
  3 "Bip01 Spine"   2
  4 "Bip01 Spine1"   3
  5 "Bip01 Spine2"   4
  6 "Bip01 Spine3"   5
  7 "Bip01 Neck"   6
  8 "Bip01 Head"   7
  9 "Dummy21"   8
 10 "Bip01 L Clavicle"   7
 11 "Bip01 L UpperArm"  10
 12 "Bip01 L Forearm"  11
 13 "Bip01 L Hand"  12
 14 "Bip01 L Finger0"  13
 15 "Bip01 L Finger01"  14
 16 "Dummy06"  15
 17 "Bip01 L Finger1"  13
 18 "Bip01 L Finger11"  17
 19 "Dummy03"  18
 20 "-- L knuckle"  17
 21 "-- L knuckle_end"  20
 22 "-- L Forearm twist"  12
 23 "-- L Forearm twist_end"  22
 24 "-- L wrist"  12
 25 "-- L wrist_end"  24
 26 "-- L Elbow"  11
 27 "--L Elbow_end"  26
 28 "-- L bicep twist"  11
 29 "-- L bicep twist_end"  28
 30 "-- L shoulder outside"  10
 31 "-- L shoulder outside_end"  30
 32 "-- L Shoulder inside"  10
 33 "-- L Shoulder inside_end"  32
 34 "Bip01 R Clavicle"   7
 35 "Bip01 R UpperArm"  34
 36 "Bip01 R Forearm"  35
 37 "Bip01 R Hand"  36
 38 "Bip01 R Finger0"  37
 39 "Bip01 R Finger01"  38
 40 "Dummy01"  39
 41 "Bip01 R Finger1"  37
 42 "Bip01 R Finger11"  41
 43 "Dummy02"  42
 44 "-- R knuckle"  41
 45 "Point06"  44
 46 "Line06"  37
 47 "-- R wrist"  36
 48 "-- R wrist_end"  47
 49 "-- R forearm twist"  36
 50 "-- R forearm twist_end"  49
 51 "-- R Elbow"  35
 52 "--R Elbow_end"  51
 53 "-- R bicep twist"  35
 54 "-- R bicep twist_end"  53
 55 "-- R Shoulder inside"  34
 56 "-- R Shoulder inside_end"  55
 57 "-- R shoulder outside"  34
 58 "-- R shoulder outside_end"  57
 59 "-- Neck smooth"   6
 60 "-- neck smooth end"  59
 61 "-- R Butt"   2
 62 "--R Butt_end"  61
 63 "-- L butt"   2
 64 "--L butt_end"  63
 65 "GIGN01"   2
 66 "Bip01 L Thigh"   2
 67 "Bip01 L Calf"  66
 68 "Bip01 L Foot"  67
 69 "Bip01 L Toe0"  68
 70 "Dummy16"  69
 71 "-- L ankle"  67
 72 "-- L ankleend"  71
 73 "-- L Knee"  66
 74 "--L Knee_end"  73
 75 "Bip01 R Thigh"   2
 76 "Bip01 R Calf"  75
 77 "Bip01 R Foot"  76
 78 "Bip01 R Toe0"  77
 79 "Dummy11"  78
 80 "-- R Ankle"  76
 81 "-- R ankleend"  80
 82 "-- R Knee"  75
 83 "--R Knee_end"  82
end
skeleton
time 0
  0 -0.650000 0.000000 33.899605 -0.025849 0.174554 -1.569172
  1 5.816421 0.852483 -32.971565 -0.174512 -0.026131 1.569196
  2 -2.276935 0.000003 -1.238189 -1.570795 -1.570451 0.000000
  3 1.796613 0.711849 -0.000256 0.078098 0.112491 -0.153828
  4 4.119709 -0.003076 -0.000252 0.077654 -0.153253 0.334630
  5 4.117961 -0.003203 -0.000288 0.087950 0.025471 -0.195713
  6 4.118259 -0.003150 -0.000848 0.263718 -0.126823 -0.142430
  7 4.119526 -0.000858 -0.003307 1.364471 -0.302253 -0.135754
  8 4.443596 0.000001 0.000000 -0.950144 0.425819 -0.858369
  9 9.024062 0.000001 0.000000 0.000000 0.000000 0.000000
 10 0.515781 1.622628 0.338886 1.711593 -0.496570 1.365903
 11 6.384776 -0.000000 0.000001 -1.339390 -0.062451 -1.627619
 12 10.242682 0.000003 -0.000001 0.000000 -0.000000 -1.520349
 13 11.375561 0.000001 0.000000 3.110308 0.259706 0.160260
 14 0.728681 0.023432 -1.008293 1.100073 0.611404 0.551668
 15 2.136497 0.000000 -0.000001 0.000000 -0.000000 -0.078540
 16 2.313141 -0.000000 0.000000 0.000000 0.000000 0.000000
 17 3.115506 -0.886041 -0.021431 -0.409121 -0.203764 0.077411
 18 2.011150 0.000001 0.000001 0.000000 0.000000 1.322792
 19 2.141380 -0.000000 0.000000 0.000000 0.000000 0.000000
 20 1.734175 0.000002 -0.000001 -0.000000 0.000000 0.660693
 21 0.000008 -4.440596 -0.000001 1.570544 -0.062990 -0.195737
 22 5.999997 0.000000 0.000000 -2.845321 0.000000 -0.000000
 23 0.000002 -4.440601 -0.000000 1.569944 -0.062987 0.004053
 24 11.375561 0.000001 0.000003 -2.367672 0.100099 0.158500
 25 -0.000003 -4.440603 0.000000 1.570144 -0.062988 0.004040
 26 10.510132 0.000003 -0.000001 0.000000 -0.000000 -2.330971
 27 0.000000 -1.748402 5.000000 0.000000 0.004007 1.602290
 28 5.500000 0.000001 -0.000001 0.413725 0.000000 0.000000
 29 -0.000002 -1.940601 5.000001 -0.044472 0.004003 -0.000180
 30 6.551490 0.000000 0.000002 -0.955171 0.159545 -1.304281
 31 -0.000000 -1.940598 5.000002 -0.027189 -0.053376 0.005295
 32 6.551490 0.000000 0.000002 -0.304820 0.196580 -0.433249
 33 -0.000000 -1.940599 4.999995 -0.066572 -0.152786 -0.110311
 34 -0.515783 -1.615549 -0.338885 1.299119 0.574229 -2.041379
 35 6.384776 0.000000 -0.000000 0.347296 -0.097241 -1.054630
 36 10.242682 0.000001 0.000001 -0.000000 -0.000000 -2.070276
 37 11.375562 -0.000000 -0.000002 2.486732 0.456688 0.247615
 38 0.728681 0.023430 1.008292 -1.579583 -0.319038 0.212973
 39 2.136497 0.000000 0.000000 -0.000000 0.000000 1.282817
 40 2.313139 0.000001 0.000000 0.000000 0.000000 3.141593
 41 3.115508 -0.886042 0.021432 0.420766 0.316066 0.167178
 42 2.011151 0.000001 -0.000002 0.000000 0.000000 2.082010
 43 2.141380 -0.000000 0.000000 0.000000 0.000000 3.141593
 44 1.734172 0.000000 -0.000003 -0.000000 0.000000 1.041748
 45 0.136315 -3.738193 2.525890 1.493698 2.759406 -1.474501
 46 -2.193617 0.798256 4.032640 1.563844 0.186374 -0.074848
 47 11.389367 -0.000820 0.158781 2.002363 0.272769 0.068093
 48 0.000000 -4.440600 0.000000 1.570144 -3.078602 0.004040
 49 6.000000 -0.000001 -0.000000 2.002363 0.000000 0.000000
 50 0.000001 -4.440603 0.000000 1.569944 -3.078603 0.004053
 51 10.510132 -0.000000 -0.000001 -0.000000 0.000000 -2.605934
 52 -0.000001 -1.748400 -5.000002 -3.141593 0.004007 -1.539299
 53 5.500000 0.000000 -0.000000 -0.102858 0.000000 -0.000000
 54 0.000000 -0.000000 -5.000001 -0.044472 3.137589 -0.000177
 55 6.551490 0.000001 0.000000 0.102858 -0.077026 -0.297800
 56 -1.266843 -1.937443 -4.950560 -0.066572 -2.988806 -0.110308
 57 6.551490 0.000000 0.000000 0.102858 -0.077026 -0.297800
 58 0.699371 -1.944208 -5.006848 -0.027189 -3.088217 0.005298
 59 4.226147 -0.003201 -0.000000 0.746683 -0.209856 -0.026720
 60 0.000000 5.000000 -0.000000 -0.153564 0.000087 2.718702
 61 0.000004 -0.000004 -3.713580 0.018865 -3.096651 -0.324845
 62 -0.000002 0.000000 5.000000 3.053198 1.558589 -0.074926
 63 -0.000007 0.000006 3.713580 -0.159276 -2.977491 -0.403653
 64 0.000001 -0.000000 -5.000000 -0.088726 1.558589 3.066335
 65 7.363602 1.646647 0.495663 3.141593 -1.570796 0.000000
 66 -0.000005 0.000007 3.619081 -0.217558 -2.796588 -0.810634
 67 16.573919 0.000000 0.000000 0.000000 0.000000 -2.033247
 68 15.128181 0.000002 -0.000000 0.271612 0.009043 -0.097069
 69 5.758665 4.244730 0.000000 0.000000 -0.000000 1.842220
 70 3.177726 -0.000002 -0.000001 0.000000 0.000000 3.141593
 71 15.708954 0.000001 -0.000001 0.136460 0.001254 -0.052592
 72 0.275148 0.189214 -3.445207 3.130898 0.000409 -1.514604
 73 17.210194 -0.000000 0.000000 0.000000 -0.000000 -2.328678
 74 0.000000 0.000001 -5.000000 -0.079433 1.546568 -1.570857
 75 0.000002 -0.000003 -3.619081 0.034416 -3.071533 -0.493407
 76 16.573921 -0.000000 -0.000000 0.000000 0.000000 -1.045581
 77 15.128182 0.000001 -0.000000 0.002618 -0.051986 0.588317
 78 5.758666 4.244731 0.000000 -0.000000 0.000000 1.815142
 79 4.003934 0.000000 -0.000000 0.000000 0.000000 0.000000
 80 15.708955 -0.000000 -0.000000 0.004296 -0.037430 0.405337
 81 0.273998 0.191090 3.439762 -3.130907 -0.000437 -1.508106
 82 17.210194 0.000001 -0.000000 -0.000000 -0.000000 -1.884228
 83 0.000000 -0.000001 5.000000 -0.079314 1.595025 -1.570739
time 1
  0 -0.650000 0.000000 33.899605 -0.025849 0.174554 -1.569172
  1 5.816421 0.852483 -32.971565 -0.174512 -0.026131 1.569196
  2 -2.276935 0.000003 -1.238189 -1.570795 -1.570451 0.000000
  3 1.796842 0.711815 -0.000170 0.052047 0.180135 -0.082006
  4 4.119771 -0.003059 -0.000185 0.057193 -0.168750 0.355021
  5 4.118022 -0.003220 -0.000221 0.067364 -0.016325 -0.179767
  6 4.118318 -0.003172 -0.000782 0.243649 -0.155304 -0.126972
  7 4.119281 -0.000839 -0.003371 1.335427 -0.202530 -0.019976
  8 4.443598 -0.000000 -0.000000 -0.692194 0.117968 -0.553710
  9 9.024061 0.000000 0.000001 0.000000 0.000000 0.000000
 10 0.348532 1.654045 0.395820 1.562927 -0.514007 1.510696
 11 6.384776 -0.000000 0.000002 -1.290954 -0.121910 -1.438463
 12 10.242682 0.000001 -0.000001 -0.000000 0.000000 -1.672001
 13 11.375562 -0.000000 0.000000 3.022667 0.236054 0.207221
 14 0.728682 0.023431 -1.008293 1.100072 0.611404 0.551668
 15 2.136502 0.000000 0.000003 0.000000 0.000000 -0.078540
 16 2.313138 0.000000 0.000001 0.000000 0.000000 0.000000
 17 3.115504 -0.886042 -0.021430 -0.409121 -0.203764 0.077411
 18 2.011157 0.000003 -0.000002 0.000000 0.000000 1.322792
 19 2.141377 0.000001 0.000002 0.000000 0.000000 0.000000
 20 1.734171 -0.000000 0.000001 -0.000000 0.000000 0.660693
 21 0.000004 -4.440595 0.000003 1.570544 -0.062990 -0.195737
 22 6.000001 -0.000001 -0.000000 -2.928164 -0.000000 0.000000
 23 0.000004 -4.440602 0.000000 1.569944 -0.062987 0.004053
 24 11.375561 -0.000000 0.000003 -2.413699 0.070754 0.183175
 25 -0.000001 -4.440605 0.000001 1.570144 -0.062988 0.004040
 26 10.510131 -0.000000 -0.000001 0.000000 -0.000000 -2.406797
 27 -0.000001 -1.748401 5.000000 0.000000 0.004007 1.602290
 28 5.500000 0.000002 -0.000001 0.455040 -0.000000 -0.000000
 29 -0.000002 -1.940600 5.000002 -0.044472 0.004003 -0.000180
 30 6.551491 -0.000000 0.000001 -0.908778 0.033708 -0.959332
 31 -0.000000 -1.940598 5.000000 -0.027189 -0.053376 0.005295
 32 6.551491 -0.000000 0.000001 -0.356348 0.120630 -0.374120
 33 0.000000 -1.940599 4.999995 -0.066572 -0.152786 -0.110311
 34 -0.348533 -1.646968 -0.395820 1.445942 0.624616 -1.885693
 35 6.384777 -0.000000 -0.000000 0.271090 -0.033957 -1.155749
 36 10.242682 0.000001 -0.000001 0.000000 0.000000 -2.006726
 37 11.375562 -0.000002 -0.000002 2.430193 0.578746 0.133676
 38 0.728680 0.023431 1.008291 -1.579583 -0.319038 0.212973
 39 2.136496 0.000001 0.000002 -0.000000 0.000000 1.282817
 40 2.313139 0.000000 -0.000002 0.000000 0.000000 3.141593
 41 3.115506 -0.886041 0.021431 0.420766 0.316066 0.167178
 42 2.011149 -0.000001 0.000002 0.000000 -0.000000 2.082010
 43 2.141380 0.000000 -0.000003 0.000000 0.000000 3.141593
 44 1.734171 -0.000001 0.000001 0.000000 -0.000000 1.041748
 45 0.136315 -3.738192 2.525893 1.493698 2.759406 -1.474501
 46 -2.193618 0.798257 4.032639 1.563844 0.186374 -0.074848
 47 11.389366 -0.000820 0.158779 1.970709 0.318712 -0.004712
 48 0.000001 -4.440602 0.000001 1.570144 -3.078602 0.004040
 49 6.000000 -0.000001 -0.000002 1.970709 0.000000 0.000000
 50 0.000001 -4.440601 0.000000 1.569944 -3.078603 0.004053
 51 10.510132 0.000001 -0.000000 0.000000 -0.000000 -2.574160
 52 -0.000000 -1.748399 -5.000001 3.141593 0.004007 -1.539299
 53 5.500000 0.000000 -0.000000 -0.090062 -0.000000 -0.000000
 54 0.000001 0.000000 -4.999999 -0.044472 3.137590 -0.000177
 55 6.551491 0.000000 -0.000001 0.090062 -0.056353 -0.315656
 56 -1.266843 -1.937444 -4.950557 -0.066572 -2.988806 -0.110308
 57 6.551491 -0.000000 -0.000001 0.090062 -0.056353 -0.315656
 58 0.699371 -1.944208 -5.006845 -0.027189 -3.088217 0.005298
 59 4.226148 -0.003202 0.000000 0.739238 -0.127148 0.025959
 60 0.000001 5.000001 -0.000001 -0.153564 0.000087 2.718702
 61 0.000004 -0.000004 -3.713580 0.018865 -3.096651 -0.324845
 62 -0.000002 0.000000 5.000000 3.053198 1.558589 -0.074926
 63 -0.000007 0.000006 3.713580 -0.159276 -2.977491 -0.403653
 64 0.000001 -0.000000 -5.000000 -0.088726 1.558589 3.066335
 65 7.363602 1.646647 0.495663 3.141593 -1.570796 0.000000
 66 -0.000005 0.000007 3.619081 -0.217558 -2.796588 -0.810634
 67 16.573919 0.000000 0.000000 0.000000 0.000000 -2.033247
 68 15.128181 0.000002 -0.000000 0.271612 0.009043 -0.097069
 69 5.758665 4.244730 0.000000 0.000000 -0.000000 1.842220
 70 3.177726 -0.000002 -0.000001 0.000000 0.000000 3.141593
 71 15.708954 0.000001 -0.000001 0.136460 0.001254 -0.052592
 72 0.275148 0.189214 -3.445207 3.130898 0.000409 -1.514604
 73 17.210194 -0.000000 0.000000 0.000000 -0.000000 -2.328678
 74 0.000000 0.000001 -5.000000 -0.079433 1.546568 -1.570857
 75 0.000002 -0.000003 -3.619081 0.034416 -3.071533 -0.493407
 76 16.573921 -0.000000 -0.000000 0.000000 0.000000 -1.045581
 77 15.128182 0.000001 -0.000000 0.002618 -0.051986 0.588317
 78 5.758666 4.244731 0.000000 -0.000000 0.000000 1.815142
 79 4.003934 0.000000 -0.000000 0.000000 0.000000 0.000000
 80 15.708955 -0.000000 -0.000000 0.004296 -0.037430 0.405337
 81 0.273998 0.191090 3.439762 -3.130907 -0.000437 -1.508106
 82 17.210194 0.000001 -0.000000 -0.000000 -0.000000 -1.884228
 83 0.000000 -0.000001 5.000000 -0.079314 1.595025 -1.570739
time 2
  0 -0.650000 0.000000 33.899605 -0.025849 0.174554 -1.569172
  1 5.816421 0.852483 -32.971565 -0.174512 -0.026131 1.569196
  2 -2.276935 0.000003 -1.238189 -1.570795 -1.570451 0.000000
  3 1.797081 0.711798 -0.000100 0.030677 0.249446 -0.010942
  4 4.119826 -0.003041 -0.000117 0.036360 -0.183828 0.375785
  5 4.118079 -0.003233 -0.000151 0.046082 -0.057778 -0.162938
  6 4.118379 -0.003194 -0.000713 0.223038 -0.183468 -0.110861
  7 4.119026 -0.000848 -0.003409 1.318552 -0.100318 0.090904
  8 4.443598 0.000000 0.000000 -0.555772 -0.263509 -0.345257
  9 9.024061 0.000000 -0.000000 0.000000 0.000000 0.000000
 10 0.173532 1.672989 0.430280 1.412495 -0.512379 1.657377
 11 6.384776 0.000000 0.000000 -1.280609 -0.171048 -1.244686
 12 10.242683 -0.000001 -0.000001 0.000000 0.000000 -1.816573
 13 11.375560 0.000001 -0.000000 2.932629 0.205576 0.235185
 14 0.728684 0.023432 -1.008292 1.100072 0.611404 0.551668
 15 2.136500 0.000000 0.000001 0.000000 0.000000 -0.078540
 16 2.313137 -0.000000 -0.000001 0.000000 0.000000 0.000000
 17 3.115508 -0.886041 -0.021431 -0.409121 -0.203764 0.077411
 18 2.011149 0.000000 0.000001 -0.000000 0.000000 1.322792
 19 2.141380 -0.000001 -0.000000 0.000000 0.000000 0.000000
 20 1.734171 0.000001 0.000000 -0.000000 0.000000 0.660693
 21 0.000008 -4.440595 0.000001 1.570544 -0.062990 -0.195737
 22 5.999997 0.000001 -0.000000 -3.014982 -0.000000 0.000000
 23 0.000001 -4.440601 0.000000 1.569944 -0.062987 0.004053
 24 11.375559 0.000001 0.000002 -2.460364 0.041023 0.194640
 25 0.000002 -4.440604 -0.000000 1.570144 -0.062988 0.004040
 26 10.510130 -0.000002 -0.000001 0.000000 0.000000 -2.479083
 27 -0.000001 -1.748401 4.999999 -0.000000 0.004007 1.602291
 28 5.500000 -0.000000 -0.000001 0.483242 -0.000000 0.000000
 29 -0.000002 -1.940600 5.000000 -0.044472 0.004003 -0.000180
 30 6.551491 0.000000 -0.000000 -0.932471 -0.016818 -0.794759
 31 -0.000001 -1.940598 5.000000 -0.027189 -0.053376 0.005295
 32 6.551491 0.000000 -0.000000 -0.384490 0.087162 -0.325434
 33 -0.000001 -1.940599 4.999996 -0.066572 -0.152786 -0.110311
 34 -0.173531 -1.665913 -0.430280 -1.536638 2.486794 1.423682
 35 6.384776 0.000000 -0.000001 0.183006 0.029079 -1.242637
 36 10.242681 -0.000000 -0.000001 0.000000 0.000000 -1.943177
 37 11.375560 0.000000 0.000001 2.350882 0.693852 0.000554
 38 0.728680 0.023432 1.008293 -1.579583 -0.319038 0.212973
 39 2.136499 0.000000 -0.000002 0.000000 0.000000 1.282817
 40 2.313139 0.000002 0.000000 0.000000 0.000000 3.141593
 41 3.115505 -0.886040 0.021432 0.420766 0.316066 0.167178
 42 2.011150 -0.000001 0.000000 0.000000 0.000000 2.082010
 43 2.141380 0.000000 0.000002 0.000000 0.000000 3.141593
 44 1.734171 -0.000001 -0.000000 0.000000 -0.000000 1.041748
 45 0.136315 -3.738190 2.525889 1.493698 2.759406 -1.474501
 46 -2.193621 0.798258 4.032640 1.563844 0.186374 -0.074848
 47 11.389367 -0.000819 0.158780 1.933989 0.358789 -0.076979
 48 0.000001 -4.440598 0.000000 1.570144 -3.078602 0.004040
 49 6.000000 -0.000000 -0.000001 1.933989 0.000000 0.000000
 50 0.000002 -4.440601 0.000000 1.569944 -3.078603 0.004053
 51 10.510132 0.000000 0.000001 0.000000 0.000000 -2.542385
 52 0.000000 -1.748399 -5.000000 -3.141593 0.004007 -1.539299
 53 5.500000 0.000000 -0.000000 -0.073080 -0.000000 -0.000000
 54 0.000000 0.000000 -5.000000 -0.044472 3.137589 -0.000177
 55 6.551491 0.000000 0.000000 0.073080 -0.028174 -0.333045
 56 -1.266844 -1.937443 -4.950560 -0.066572 -2.988806 -0.110308
 57 6.551491 0.000000 0.000000 0.073080 -0.028174 -0.333045
 58 0.699371 -1.944208 -5.006845 -0.027189 -3.088217 0.005298
 59 4.226149 -0.003202 0.000000 0.734426 -0.041537 0.078300
 60 -0.000001 5.000000 -0.000000 -0.153564 0.000087 2.718702
 61 0.000004 -0.000004 -3.713580 0.018865 -3.096651 -0.324845
 62 -0.000002 0.000000 5.000000 3.053198 1.558589 -0.074926
 63 -0.000007 0.000006 3.713580 -0.159276 -2.977491 -0.403653
 64 0.000001 -0.000000 -5.000000 -0.088726 1.558589 3.066335
 65 7.363602 1.646647 0.495663 3.141593 -1.570796 0.000000
 66 -0.000005 0.000007 3.619081 -0.217558 -2.796588 -0.810634
 67 16.573919 0.000000 0.000000 0.000000 0.000000 -2.033247
 68 15.128181 0.000002 -0.000000 0.271612 0.009043 -0.097069
 69 5.758665 4.244730 0.000000 0.000000 -0.000000 1.842220
 70 3.177726 -0.000002 -0.000001 0.000000 0.000000 3.141593
 71 15.708954 0.000001 -0.000001 0.136460 0.001254 -0.052592
 72 0.275148 0.189214 -3.445207 3.130898 0.000409 -1.514604
 73 17.210194 -0.000000 0.000000 0.000000 -0.000000 -2.328678
 74 0.000000 0.000001 -5.000000 -0.079433 1.546568 -1.570857
 75 0.000002 -0.000003 -3.619081 0.034416 -3.071533 -0.493407
 76 16.573921 -0.000000 -0.000000 0.000000 0.000000 -1.045581
 77 15.128182 0.000001 -0.000000 0.002618 -0.051986 0.588317
 78 5.758666 4.244731 0.000000 -0.000000 0.000000 1.815142
 79 4.003934 0.000000 -0.000000 0.000000 0.000000 0.000000
 80 15.708955 -0.000000 -0.000000 0.004296 -0.037430 0.405337
 81 0.273998 0.191090 3.439762 -3.130907 -0.000437 -1.508106
 82 17.210194 0.000001 -0.000000 -0.000000 -0.000000 -1.884228
 83 0.000000 -0.000001 5.000000 -0.079314 1.595025 -1.570739
time 3
  0 -0.650000 0.000000 33.899605 -0.025849 0.174554 -1.569172
  1 5.816421 0.852483 -32.971565 -0.174512 -0.026131 1.569196
  2 -2.276935 0.000003 -1.238189 -1.570795 -1.570451 0.000000
  3 1.797327 0.711801 -0.000046 0.014100 0.320064 0.060021
  4 4.119876 -0.003020 -0.000050 0.015152 -0.198473 0.396926
  5 4.118139 -0.003246 -0.000078 0.024032 -0.098857 -0.145172
  6 4.118438 -0.003211 -0.000643 0.201850 -0.211294 -0.094069
  7 4.118774 -0.000887 -0.003421 1.313142 0.003060 0.199318
  8 4.443596 0.000000 -0.000002 -0.512818 -0.678853 -0.172225
  9 9.024065 0.000000 -0.000000 0.000000 0.000000 0.000000
 10 -0.005307 1.679054 0.441519 1.265041 -0.491813 1.801165
 11 6.384777 0.000001 0.000003 -1.298534 -0.198115 -1.051783
 12 10.242681 -0.000003 -0.000000 0.000000 0.000000 -1.957068
 13 11.375562 -0.000000 -0.000000 2.848131 0.160483 0.247940
 14 0.728681 0.023431 -1.008293 1.100072 0.611404 0.551668
 15 2.136499 0.000000 0.000000 0.000000 0.000000 -0.078540
 16 2.313141 -0.000001 0.000000 0.000000 0.000000 0.000000
 17 3.115506 -0.886041 -0.021431 -0.409121 -0.203764 0.077411
 18 2.011150 0.000000 0.000000 -0.000000 0.000000 1.322792
 19 2.141380 0.000001 -0.000001 0.000000 0.000000 0.000000
 20 1.734170 -0.000000 -0.000000 -0.000000 -0.000000 0.660693
 21 0.000006 -4.440595 0.000001 1.570544 -0.062990 -0.195737
 22 6.000001 -0.000000 0.000000 -3.098567 -0.000000 -0.000000
 23 0.000002 -4.440601 0.000000 1.569944 -0.062987 0.004053
 24 11.375561 -0.000001 0.000002 -2.504014 0.006536 0.192090
 25 -0.000003 -4.440604 0.000001 1.570144 -0.062988 0.004040
 26 10.510132 -0.000001 -0.000001 -0.000000 0.000000 -2.549330
 27 0.000001 -1.748402 5.000000 -0.000000 0.004007 1.602291
 28 5.500000 -0.000002 -0.000000 0.499773 0.000000 0.000000
 29 -0.000001 -1.940598 4.999999 -0.044472 0.004003 -0.000180
 30 6.551492 -0.000000 0.000001 -0.954326 -0.030192 -0.703352
 31 -0.000000 -1.940599 5.000003 -0.027189 -0.053376 0.005295
 32 6.551492 -0.000000 0.000000 -0.399966 0.073945 -0.293650
 33 -0.000001 -1.940599 4.999999 -0.066572 -0.152786 -0.110311
 34 0.005302 -1.671977 -0.441525 1.770197 0.662808 -1.543888
 35 6.384777 -0.000001 0.000002 0.085653 0.090829 -1.315383
 36 10.242683 0.000001 0.000002 0.000000 0.000000 -1.879627
 37 11.375564 -0.000002 -0.000004 2.242055 0.798464 -0.159361
 38 0.728678 0.023431 1.008291 -1.579583 -0.319038 0.212973
 39 2.136498 -0.000001 -0.000002 -0.000000 0.000000 1.282817
 40 2.313139 0.000000 0.000001 0.000000 0.000000 3.141593
 41 3.115505 -0.886041 0.021431 0.420766 0.316066 0.167178
 42 2.011151 -0.000000 0.000002 -0.000000 0.000000 2.082010
 43 2.141379 -0.000000 -0.000002 0.000000 0.000000 3.141593
 44 1.734171 -0.000001 0.000002 -0.000000 0.000000 1.041748
 45 0.136315 -3.738196 2.525894 1.493698 2.759406 -1.474501
 46 -2.193621 0.798257 4.032638 1.563844 0.186374 -0.074848
 47 11.389366 -0.000820 0.158780 1.892918 0.393917 -0.148535
 48 0.000001 -4.440601 0.000001 1.570144 -3.078602 0.004040
 49 6.000000 -0.000001 -0.000004 1.892918 -0.000000 0.000000
 50 0.000001 -4.440605 0.000001 1.569944 -3.078603 0.004053
 51 10.510132 0.000001 0.000001 -0.000000 -0.000000 -2.510610
 52 -0.000001 -1.748400 -5.000002 3.141593 0.004007 -1.539299
 53 5.500000 0.000000 0.000002 -0.048501 -0.000000 0.000000
 54 -0.000000 0.000000 -4.999999 -0.044472 3.137590 -0.000177
 55 6.551491 -0.000001 0.000001 0.048501 0.009089 -0.350396
 56 -1.266844 -1.937443 -4.950560 -0.066572 -2.988806 -0.110308
 57 6.551491 -0.000001 0.000001 0.048501 0.009089 -0.350396
 58 0.699371 -1.944207 -5.006848 -0.027189 -3.088217 0.005298
 59 4.226148 -0.003202 0.000000 0.732143 0.043770 0.127935
 60 0.000002 5.000000 0.000000 -0.153564 0.000087 2.718702
 61 0.000004 -0.000004 -3.713580 0.018865 -3.096651 -0.324845
 62 -0.000002 0.000000 5.000000 3.053198 1.558589 -0.074926
 63 -0.000007 0.000006 3.713580 -0.159276 -2.977491 -0.403653
 64 0.000001 -0.000000 -5.000000 -0.088726 1.558589 3.066335
 65 7.363602 1.646647 0.495663 3.141593 -1.570796 0.000000
 66 -0.000005 0.000007 3.619081 -0.217558 -2.796588 -0.810634
 67 16.573919 0.000000 0.000000 0.000000 0.000000 -2.033247
 68 15.128181 0.000002 -0.000000 0.271612 0.009043 -0.097069
 69 5.758665 4.244730 0.000000 0.000000 -0.000000 1.842220
 70 3.177726 -0.000002 -0.000001 0.000000 0.000000 3.141593
 71 15.708954 0.000001 -0.000001 0.136460 0.001254 -0.052592
 72 0.275148 0.189214 -3.445207 3.130898 0.000409 -1.514604
 73 17.210194 -0.000000 0.000000 0.000000 -0.000000 -2.328678
 74 0.000000 0.000001 -5.000000 -0.079433 1.546568 -1.570857
 75 0.000002 -0.000003 -3.619081 0.034416 -3.071533 -0.493407
 76 16.573921 -0.000000 -0.000000 0.000000 0.000000 -1.045581
 77 15.128182 0.000001 -0.000000 0.002618 -0.051986 0.588317
 78 5.758666 4.244731 0.000000 -0.000000 0.000000 1.815142
 79 4.003934 0.000000 -0.000000 0.000000 0.000000 0.000000
 80 15.708955 -0.000000 -0.000000 0.004296 -0.037430 0.405337
 81 0.273998 0.191090 3.439762 -3.130907 -0.000437 -1.508106
 82 17.210194 0.000001 -0.000000 -0.000000 -0.000000 -1.884228
 83 0.000000 -0.000001 5.000000 -0.079314 1.595025 -1.570739
end
