version 1
nodes
  0 "Bip01"  -1
  1 "Bip01 Footsteps"   0
  2 "Bip01 Pelvis"   0
  3 "Bip01 Spine"   2
  4 "Bip01 Spine1"   3
  5 "Bip01 Spine2"   4
  6 "Bip01 Spine3"   5
  7 "Bip01 Neck"   6
  8 "Bip01 Head"   7
  9 "Dummy21"   8
 10 "Bip01 L Clavicle"   7
 11 "Bip01 L UpperArm"  10
 12 "Bip01 L Forearm"  11
 13 "Bip01 L Hand"  12
 14 "Bip01 L Finger0"  13
 15 "Bip01 L Finger01"  14
 16 "Dummy06"  15
 17 "Bip01 L Finger1"  13
 18 "Bip01 L Finger11"  17
 19 "Dummy03"  18
 20 "-- L knuckle"  17
 21 "-- L knuckle_end"  20
 22 "-- L Forearm twist"  12
 23 "-- L Forearm twist_end"  22
 24 "-- L wrist"  12
 25 "-- L wrist_end"  24
 26 "-- L Elbow"  11
 27 "--L Elbow_end"  26
 28 "-- L bicep twist"  11
 29 "-- L bicep twist_end"  28
 30 "-- L shoulder outside"  10
 31 "-- L shoulder outside_end"  30
 32 "-- L Shoulder inside"  10
 33 "-- L Shoulder inside_end"  32
 34 "Bip01 R Clavicle"   7
 35 "Bip01 R UpperArm"  34
 36 "Bip01 R Forearm"  35
 37 "Bip01 R Hand"  36
 38 "Bip01 R Finger0"  37
 39 "Bip01 R Finger01"  38
 40 "Dummy01"  39
 41 "Bip01 R Finger1"  37
 42 "Bip01 R Finger11"  41
 43 "Dummy02"  42
 44 "-- R knuckle"  41
 45 "Point06"  44
 46 "Line06"  37
 47 "-- R wrist"  36
 48 "-- R wrist_end"  47
 49 "-- R forearm twist"  36
 50 "-- R forearm twist_end"  49
 51 "-- R Elbow"  35
 52 "--R Elbow_end"  51
 53 "-- R bicep twist"  35
 54 "-- R bicep twist_end"  53
 55 "-- R Shoulder inside"  34
 56 "-- R Shoulder inside_end"  55
 57 "-- R shoulder outside"  34
 58 "-- R shoulder outside_end"  57
 59 "-- Neck smooth"   6
 60 "-- neck smooth end"  59
 61 "-- R Butt"   2
 62 "--R Butt_end"  61
 63 "-- L butt"   2
 64 "--L butt_end"  63
 65 "GIGN01"   2
 66 "Bip01 L Thigh"   2
 67 "Bip01 L Calf"  66
 68 "Bip01 L Foot"  67
 69 "Bip01 L Toe0"  68
 70 "Dummy16"  69
 71 "-- L ankle"  67
 72 "-- L ankleend"  71
 73 "-- L Knee"  66
 74 "--L Knee_end"  73
 75 "Bip01 R Thigh"   2
 76 "Bip01 R Calf"  75
 77 "Bip01 R Foot"  76
 78 "Bip01 R Toe0"  77
 79 "Dummy11"  78
 80 "-- R Ankle"  76
 81 "-- R ankleend"  80
 82 "-- R Knee"  75
 83 "--R Knee_end"  82
end
skeleton
time 0
  0 -0.650000 0.000000 33.899605 -0.025849 0.174554 -1.569172
  1 5.816421 0.852483 -32.971565 -0.174512 -0.026131 1.569196
  2 -2.276935 0.000003 -1.238189 -1.570795 -1.570451 0.000000
  3 1.796204 0.712078 0.000940 -0.300187 0.238885 -0.376101
  4 4.118678 -0.002949 0.001434 -0.455352 -0.113296 0.080642
  5 4.118495 -0.003237 0.000516 -0.160738 -0.183483 -0.002878
  6 4.120219 -0.002592 0.001195 -0.373614 0.064880 0.532242
  7 4.119572 -0.003381 -0.000401 0.128840 0.488528 0.339817
  8 4.443599 0.000001 -0.000000 -0.589635 -0.124364 0.162346
  9 9.024065 -0.000001 0.000000 0.000000 0.000000 0.000000
 10 -0.813212 0.200121 1.517352 0.395615 -1.022452 2.367755
 11 6.384776 0.000001 0.000000 -0.337071 0.106032 -1.826776
 12 10.242682 0.000000 -0.000000 -0.000000 -0.000000 -0.352879
 13 11.375563 0.000000 0.000000 2.621789 -0.200612 -0.133574
 14 0.728681 0.023430 -1.008291 2.203367 0.271737 1.394711
 15 2.136497 0.000000 0.000001 0.000000 0.000000 -0.078540
 16 2.313137 -0.000000 -0.000001 0.000000 0.000000 0.000000
 17 3.115508 -0.886040 -0.021431 -0.678293 0.032013 0.704269
 18 2.011153 -0.000001 -0.000001 -0.000000 0.000000 1.322792
 19 2.141381 -0.000001 0.000001 0.000000 0.000000 0.000000
 20 1.734174 0.000002 0.000001 0.000000 -0.000000 0.660693
 21 0.000008 -4.440593 0.000001 1.570544 -0.062990 -0.195737
 22 6.000000 0.000001 0.000000 2.957807 0.000000 0.000000
 23 0.000002 -4.440602 0.000001 1.569944 -0.062987 0.004053
 24 11.375561 0.000002 0.000001 -2.611552 -0.057221 -0.157596
 25 -0.000001 -4.440604 -0.000000 1.570144 -0.062988 0.004040
 26 10.510130 -0.000001 -0.000000 -0.000000 0.000000 -1.747236
 27 0.000000 -1.748401 4.999997 0.000000 0.004007 1.602290
 28 5.500000 0.000001 -0.000002 0.142445 0.000000 -0.000000
 29 -0.000002 -1.940600 5.000002 -0.044472 0.004003 -0.000180
 30 6.551491 0.000000 -0.000001 -0.345432 0.131649 -1.514459
 31 -0.000001 -1.940599 5.000002 -0.027189 -0.053376 0.005295
 32 6.551491 0.000000 -0.000002 -0.101553 0.099853 -0.526451
 33 -0.000002 -1.940598 4.999998 -0.066572 -0.152786 -0.110311
 34 0.813215 -0.193040 -1.517354 2.584944 0.766037 -0.954103
 35 6.384775 -0.000001 0.000002 0.146242 -0.594020 -0.826105
 36 10.242684 -0.000001 0.000000 0.000000 0.000000 -2.114374
 37 11.375564 -0.000001 -0.000000 2.955036 0.174889 0.584025
 38 0.728680 0.023431 1.008295 -1.579583 -0.319038 0.212973
 39 2.136496 0.000000 0.000001 0.000000 -0.000000 1.282817
 40 2.313140 -0.000000 0.000000 0.000000 0.000000 3.141593
 41 3.115507 -0.886041 0.021434 0.420766 0.316066 0.167178
 42 2.011150 -0.000001 -0.000002 0.000000 -0.000000 2.082010
 43 2.141379 0.000001 0.000001 0.000000 0.000000 3.141593
 44 1.734172 -0.000002 -0.000003 -0.000000 0.000000 1.041748
 45 0.136315 -3.738193 2.525893 1.493698 2.759406 -1.474501
 46 -2.193619 0.798257 4.032641 1.563844 0.186374 -0.074848
 47 11.389368 -0.000819 0.158783 2.246626 0.205228 0.267351
 48 -0.000000 -4.440601 0.000000 1.570144 -3.078602 0.004040
 49 6.000001 -0.000000 0.000000 2.246626 -0.000000 -0.000000
 50 0.000001 -4.440602 -0.000003 1.569944 -3.078603 0.004053
 51 10.510132 -0.000001 -0.000000 0.000000 0.000000 -2.627983
 52 -0.000001 -1.748400 -5.000003 3.141593 0.004007 -1.539299
 53 5.500000 -0.000001 -0.000000 0.015194 -0.000000 -0.000000
 54 -0.000000 0.000002 -5.000000 -0.044472 3.137589 -0.000177
 55 6.551490 -0.000000 -0.000000 -0.015194 -0.201409 -0.245691
 56 -1.266842 -1.937442 -4.950562 -0.066572 -2.988806 -0.110308
 57 6.551490 -0.000000 -0.000000 -0.015194 -0.201409 -0.245691
 58 0.699371 -1.944208 -5.006846 -0.027189 -3.088217 0.005298
 59 4.226146 -0.003202 -0.000000 0.049494 0.279518 0.189641
 60 0.000002 5.000000 -0.000000 -0.153564 0.000087 2.718702
 61 0.000004 -0.000004 -3.713580 0.018865 -3.096651 -0.324845
 62 -0.000002 0.000000 5.000000 3.053198 1.558589 -0.074926
 63 -0.000007 0.000006 3.713580 -0.159276 -2.977491 -0.403653
 64 0.000001 -0.000000 -5.000000 -0.088726 1.558589 3.066335
 65 7.363602 1.646647 0.495663 3.141593 -1.570796 0.000000
 66 -0.000005 0.000007 3.619081 -0.217558 -2.796588 -0.810634
 67 16.573919 0.000000 0.000000 0.000000 0.000000 -2.033247
 68 15.128181 0.000002 -0.000000 0.271612 0.009043 -0.097069
 69 5.758665 4.244730 0.000000 0.000000 -0.000000 1.842220
 70 3.177726 -0.000002 -0.000001 0.000000 0.000000 3.141593
 71 15.708954 0.000001 -0.000001 0.136460 0.001254 -0.052592
 72 0.275148 0.189214 -3.445207 3.130898 0.000409 -1.514604
 73 17.210194 -0.000000 0.000000 0.000000 -0.000000 -2.328678
 74 0.000000 0.000001 -5.000000 -0.079433 1.546568 -1.570857
 75 0.000002 -0.000003 -3.619081 0.034416 -3.071533 -0.493407
 76 16.573921 -0.000000 -0.000000 0.000000 0.000000 -1.045581
 77 15.128182 0.000001 -0.000000 0.002618 -0.051986 0.588317
 78 5.758666 4.244731 0.000000 -0.000000 0.000000 1.815142
 79 4.003934 0.000000 -0.000000 0.000000 0.000000 0.000000
 80 15.708955 -0.000000 -0.000000 0.004296 -0.037430 0.405337
 81 0.273998 0.191090 3.439762 -3.130907 -0.000437 -1.508106
 82 17.210194 0.000001 -0.000000 -0.000000 -0.000000 -1.884228
 83 0.000000 -0.000001 5.000000 -0.079314 1.595025 -1.570739
time 1
  0 -0.650000 0.000000 33.899605 -0.025849 0.174554 -1.569172
  1 5.816421 0.852483 -32.971565 -0.174512 -0.026131 1.569196
  2 -2.276935 0.000003 -1.238189 -1.570795 -1.570451 0.000000
  3 1.796084 0.712093 0.000854 -0.268952 0.188274 -0.392805
  4 4.118647 -0.002988 0.001351 -0.427007 -0.104379 0.062493
  5 4.118468 -0.003249 0.000425 -0.131774 -0.157747 -0.020286
  6 4.120192 -0.002638 0.001128 -0.351642 0.063014 0.519555
  7 4.119569 -0.003379 -0.000401 0.128840 0.488528 0.339817
  8 4.443597 -0.000000 0.000000 -0.519062 -0.138192 0.243570
  9 9.024061 0.000001 0.000000 0.000000 0.000000 0.000000
 10 -0.813214 0.200118 1.517354 0.395615 -1.022452 2.367755
 11 6.384776 0.000000 0.000001 -0.380494 0.196413 -1.767453
 12 10.242682 0.000001 -0.000001 -0.000000 -0.000000 -0.467067
 13 11.375563 0.000002 -0.000004 2.639186 -0.283136 -0.153314
 14 0.728681 0.023429 -1.008293 2.203367 0.271737 1.394711
 15 2.136497 0.000000 0.000001 -0.000000 0.000000 -0.078540
 16 2.313136 0.000000 -0.000000 0.000000 0.000000 0.000000
 17 3.115507 -0.886042 -0.021432 -0.678293 0.032013 0.704269
 18 2.011151 0.000001 0.000001 -0.000000 0.000000 1.322792
 19 2.141380 0.000000 -0.000001 0.000000 0.000000 0.000000
 20 1.734172 -0.000001 -0.000001 -0.000000 -0.000000 0.660693
 21 0.000005 -4.440594 -0.000001 1.570544 -0.062990 -0.195737
 22 5.999999 0.000000 -0.000001 2.979350 0.000000 -0.000000
 23 0.000001 -4.440601 -0.000001 1.569944 -0.062987 0.004053
 24 11.375561 0.000001 0.000001 -2.597294 -0.095497 -0.197435
 25 0.000001 -4.440604 -0.000000 1.570144 -0.062988 0.004040
 26 10.510131 0.000001 -0.000002 0.000000 0.000000 -1.804330
 27 -0.000000 -1.748400 4.999997 -0.000000 0.004007 1.602291
 28 5.500001 0.000002 -0.000002 0.146578 -0.000000 0.000000
 29 -0.000002 -1.940599 5.000001 -0.044472 0.004003 -0.000180
 30 6.551491 -0.000000 -0.000001 -0.380753 0.230990 -1.423622
 31 -0.000001 -1.940600 5.000003 -0.027189 -0.053376 0.005295
 32 6.551491 -0.000000 -0.000001 -0.103862 0.142968 -0.512028
 33 -0.000001 -1.940599 4.999997 -0.066572 -0.152786 -0.110311
 34 0.813215 -0.193044 -1.517352 2.584944 0.766037 -0.954103
 35 6.384778 0.000001 -0.000003 0.060673 -0.619755 -0.836694
 36 10.242684 -0.000000 0.000001 -0.000000 0.000000 -2.124914
 37 11.375562 -0.000003 -0.000000 2.849503 0.248795 0.619327
 38 0.728680 0.023431 1.008292 -1.579583 -0.319038 0.212973
 39 2.136497 -0.000002 0.000000 0.000000 -0.000000 1.282817
 40 2.313140 0.000001 0.000000 0.000000 0.000000 3.141593
 41 3.115507 -0.886041 0.021430 0.420765 0.316066 0.167178
 42 2.011149 0.000001 0.000001 0.000000 -0.000000 2.082010
 43 2.141378 -0.000001 0.000002 0.000000 0.000000 3.141593
 44 1.734172 -0.000000 0.000000 -0.000000 -0.000000 1.041748
 45 0.136315 -3.738193 2.525890 1.493698 2.759406 -1.474501
 46 -2.193619 0.798257 4.032641 1.563844 0.186374 -0.074848
 47 11.389367 -0.000820 0.158784 2.184538 0.234696 0.270401
 48 0.000001 -4.440599 -0.000002 1.570144 -3.078602 0.004040
 49 5.999999 -0.000002 -0.000000 2.184538 0.000000 0.000000
 50 0.000001 -4.440601 -0.000000 1.569944 -3.078603 0.004053
 51 10.510132 0.000001 -0.000001 -0.000000 0.000000 -2.633254
 52 -0.000000 -1.748400 -5.000002 -3.141593 0.004007 -1.539299
 53 5.500001 -0.000001 0.000000 0.039864 -0.000000 -0.000000
 54 -0.000000 0.000001 -4.999999 -0.044472 3.137590 -0.000177
 55 6.551492 0.000001 -0.000003 -0.039864 -0.205182 -0.246107
 56 -1.266844 -1.937443 -4.950559 -0.066572 -2.988806 -0.110308
 57 6.551492 0.000001 -0.000003 -0.039864 -0.205182 -0.246107
 58 0.699370 -1.944207 -5.006848 -0.027189 -3.088217 0.005298
 59 4.226144 -0.003200 -0.000000 0.049494 0.279518 0.189641
 60 -0.000001 5.000002 -0.000001 -0.153564 0.000087 2.718702
 61 0.000004 -0.000004 -3.713580 0.018865 -3.096651 -0.324845
 62 -0.000002 0.000000 5.000000 3.053198 1.558589 -0.074926
 63 -0.000007 0.000006 3.713580 -0.159276 -2.977491 -0.403653
 64 0.000001 -0.000000 -5.000000 -0.088726 1.558589 3.066335
 65 7.363602 1.646647 0.495663 3.141593 -1.570796 0.000000
 66 -0.000005 0.000007 3.619081 -0.217558 -2.796588 -0.810634
 67 16.573919 0.000000 0.000000 0.000000 0.000000 -2.033247
 68 15.128181 0.000002 -0.000000 0.271612 0.009043 -0.097069
 69 5.758665 4.244730 0.000000 0.000000 -0.000000 1.842220
 70 3.177726 -0.000002 -0.000001 0.000000 0.000000 3.141593
 71 15.708954 0.000001 -0.000001 0.136460 0.001254 -0.052592
 72 0.275148 0.189214 -3.445207 3.130898 0.000409 -1.514604
 73 17.210194 -0.000000 0.000000 0.000000 -0.000000 -2.328678
 74 0.000000 0.000001 -5.000000 -0.079433 1.546568 -1.570857
 75 0.000002 -0.000003 -3.619081 0.034416 -3.071533 -0.493407
 76 16.573921 -0.000000 -0.000000 0.000000 0.000000 -1.045581
 77 15.128182 0.000001 -0.000000 0.002618 -0.051986 0.588317
 78 5.758666 4.244731 0.000000 -0.000000 0.000000 1.815142
 79 4.003934 0.000000 -0.000000 0.000000 0.000000 0.000000
 80 15.708955 -0.000000 -0.000000 0.004296 -0.037430 0.405337
 81 0.273998 0.191090 3.439762 -3.130907 -0.000437 -1.508106
 82 17.210194 0.000001 -0.000000 -0.000000 -0.000000 -1.884228
 83 0.000000 -0.000001 5.000000 -0.079314 1.595025 -1.570739
time 2
  0 -0.650000 0.000000 33.899605 -0.025849 0.174554 -1.569172
  1 5.816421 0.852483 -32.971565 -0.174512 -0.026131 1.569196
  2 -2.276935 0.000003 -1.238189 -1.570795 -1.570451 0.000000
  3 1.795965 0.712112 0.000761 -0.237126 0.138202 -0.410959
  4 4.118621 -0.003024 0.001268 -0.398856 -0.094955 0.044621
  5 4.118439 -0.003258 0.000335 -0.103375 -0.131529 -0.036869
  6 4.120162 -0.002682 0.001059 -0.329650 0.061428 0.506831
  7 4.119572 -0.003381 -0.000401 0.128840 0.488528 0.339817
  8 4.443597 -0.000000 -0.000001 -0.442401 -0.139726 0.319237
  9 9.024062 -0.000001 -0.000001 0.000000 0.000000 0.000000
 10 -0.813214 0.200119 1.517353 0.395615 -1.022452 2.367755
 11 6.384778 -0.000001 -0.000001 -0.403833 0.279050 -1.716602
 12 10.242682 -0.000000 -0.000002 -0.000000 -0.000000 -0.567757
 13 11.375562 0.000002 0.000001 2.659025 -0.350788 -0.178383
 14 0.728681 0.023431 -1.008292 2.203367 0.271737 1.394711
 15 2.136497 -0.000000 0.000000 -0.000000 0.000000 -0.078540
 16 2.313138 -0.000000 0.000001 0.000000 0.000000 0.000000
 17 3.115506 -0.886043 -0.021431 -0.678293 0.032013 0.704269
 18 2.011151 -0.000001 -0.000001 -0.000000 0.000000 1.322792
 19 2.141381 0.000001 -0.000000 0.000000 0.000000 0.000000
 20 1.734174 0.000002 0.000000 -0.000000 0.000000 0.660693
 21 0.000006 -4.440595 -0.000001 1.570544 -0.062990 -0.195737
 22 6.000000 0.000001 0.000001 3.002735 0.000000 -0.000000
 23 0.000001 -4.440599 -0.000001 1.569944 -0.062987 0.004053
 24 11.375562 -0.000000 0.000005 -2.582360 -0.123153 -0.232010
 25 -0.000001 -4.440603 -0.000001 1.570144 -0.062988 0.004040
 26 10.510130 -0.000000 -0.000001 -0.000000 -0.000000 -1.854675
 27 -0.000001 -1.748400 4.999999 0.000000 0.004007 1.602291
 28 5.500000 0.000000 -0.000002 0.138844 0.000000 0.000000
 29 -0.000002 -1.940599 5.000000 -0.044472 0.004003 -0.000180
 30 6.551492 -0.000000 0.000001 -0.384591 0.320678 -1.324977
 31 0.000001 -1.940598 5.000002 -0.027189 -0.053376 0.005295
 32 6.551492 -0.000000 0.000001 -0.097669 0.179619 -0.490899
 33 0.000000 -1.940599 4.999999 -0.066572 -0.152786 -0.110311
 34 0.813211 -0.193040 -1.517355 2.584944 0.766037 -0.954103
 35 6.384778 0.000001 -0.000004 -0.018104 -0.662626 -0.845871
 36 10.242682 -0.000000 0.000001 0.000000 0.000000 -2.135455
 37 11.375563 -0.000000 0.000000 2.744395 0.325918 0.647017
 38 0.728680 0.023430 1.008295 -1.579583 -0.319038 0.212973
 39 2.136497 0.000001 0.000000 0.000000 -0.000000 1.282817
 40 2.313138 -0.000002 0.000001 0.000000 0.000000 3.141593
 41 3.115507 -0.886041 0.021432 0.420765 0.316066 0.167178
 42 2.011151 0.000000 -0.000001 0.000000 -0.000000 2.082010
 43 2.141381 0.000000 0.000000 0.000000 0.000000 3.141593
 44 1.734173 -0.000002 -0.000002 -0.000000 0.000000 1.041748
 45 0.136315 -3.738193 2.525892 1.493698 2.759406 -1.474501
 46 -2.193618 0.798256 4.032641 1.563844 0.186374 -0.074848
 47 11.389368 -0.000819 0.158783 2.121287 0.263371 0.271077
 48 -0.000000 -4.440598 -0.000000 1.570144 -3.078602 0.004040
 49 6.000000 -0.000002 -0.000001 2.121287 0.000000 0.000000
 50 0.000002 -4.440600 0.000001 1.569944 -3.078603 0.004053
 51 10.510130 0.000000 0.000000 -0.000000 0.000000 -2.638524
 52 -0.000000 -1.748401 -5.000002 -3.141593 0.004007 -1.539299
 53 5.499999 0.000000 -0.000002 0.063602 -0.000000 -0.000000
 54 -0.000001 0.000002 -5.000002 -0.044472 3.137590 -0.000177
 55 6.551492 0.000001 -0.000004 -0.063602 -0.212934 -0.245159
 56 -1.266843 -1.937444 -4.950560 -0.066572 -2.988806 -0.110308
 57 6.551492 0.000001 -0.000004 -0.063602 -0.212934 -0.245159
 58 0.699371 -1.944209 -5.006847 -0.027189 -3.088217 0.005298
 59 4.226145 -0.003202 -0.000000 0.049494 0.279518 0.189641
 60 0.000001 5.000001 -0.000000 -0.153564 0.000087 2.718701
 61 0.000004 -0.000004 -3.713580 0.018865 -3.096651 -0.324845
 62 -0.000002 0.000000 5.000000 3.053198 1.558589 -0.074926
 63 -0.000007 0.000006 3.713580 -0.159276 -2.977491 -0.403653
 64 0.000001 -0.000000 -5.000000 -0.088726 1.558589 3.066335
 65 7.363602 1.646647 0.495663 3.141593 -1.570796 0.000000
 66 -0.000005 0.000007 3.619081 -0.217558 -2.796588 -0.810634
 67 16.573919 0.000000 0.000000 0.000000 0.000000 -2.033247
 68 15.128181 0.000002 -0.000000 0.271612 0.009043 -0.097069
 69 5.758665 4.244730 0.000000 0.000000 -0.000000 1.842220
 70 3.177726 -0.000002 -0.000001 0.000000 0.000000 3.141593
 71 15.708954 0.000001 -0.000001 0.136460 0.001254 -0.052592
 72 0.275148 0.189214 -3.445207 3.130898 0.000409 -1.514604
 73 17.210194 -0.000000 0.000000 0.000000 -0.000000 -2.328678
 74 0.000000 0.000001 -5.000000 -0.079433 1.546568 -1.570857
 75 0.000002 -0.000003 -3.619081 0.034416 -3.071533 -0.493407
 76 16.573921 -0.000000 -0.000000 0.000000 0.000000 -1.045581
 77 15.128182 0.000001 -0.000000 0.002618 -0.051986 0.588317
 78 5.758666 4.244731 0.000000 -0.000000 0.000000 1.815142
 79 4.003934 0.000000 -0.000000 0.000000 0.000000 0.000000
 80 15.708955 -0.000000 -0.000000 0.004296 -0.037430 0.405337
 81 0.273998 0.191090 3.439762 -3.130907 -0.000437 -1.508106
 82 17.210194 0.000001 -0.000000 -0.000000 -0.000000 -1.884228
 83 0.000000 -0.000001 5.000000 -0.079314 1.595025 -1.570739
time 3
  0 -0.650000 0.000000 33.899605 -0.025849 0.174554 -1.569172
  1 5.816421 0.852483 -32.971565 -0.174512 -0.026131 1.569196
  2 -2.276935 0.000003 -1.238189 -1.570795 -1.570451 0.000000
  3 1.795854 0.712134 0.000661 -0.204573 0.088733 -0.430600
  4 4.118583 -0.003058 0.001184 -0.370903 -0.085037 0.027039
  5 4.118402 -0.003265 0.000246 -0.075506 -0.104860 -0.052646
  6 4.120139 -0.002724 0.000991 -0.307642 0.060121 0.494076
  7 4.119573 -0.003380 -0.000401 0.128840 0.488528 0.339817
  8 4.443598 -0.000000 0.000002 -0.358009 -0.130469 0.386580
  9 9.024061 -0.000002 -0.000000 0.000000 0.000000 0.000000
 10 -0.813213 0.200118 1.517355 0.395615 -1.022452 2.367755
 11 6.384777 0.000000 -0.000000 -0.408833 0.349984 -1.668565
 12 10.242682 0.000001 -0.000001 0.000000 -0.000000 -0.662142
 13 11.375562 -0.000001 -0.000003 2.679223 -0.403499 -0.203089
 14 0.728681 0.023428 -1.008293 2.203367 0.271737 1.394711
 15 2.136498 0.000000 -0.000001 -0.000000 0.000000 -0.078540
 16 2.313140 0.000000 -0.000001 0.000000 0.000000 0.000000
 17 3.115506 -0.886044 -0.021431 -0.678293 0.032013 0.704269
 18 2.011152 0.000002 0.000000 0.000000 0.000000 1.322792
 19 2.141380 -0.000001 -0.000000 0.000000 0.000000 0.000000
 20 1.734172 0.000001 -0.000000 0.000000 0.000000 0.660693
 21 0.000008 -4.440594 0.000000 1.570544 -0.062990 -0.195737
 22 6.000000 0.000000 -0.000003 3.025430 -0.000000 -0.000000
 23 0.000001 -4.440602 0.000001 1.569944 -0.062987 0.004053
 24 11.375562 -0.000001 0.000002 -2.568493 -0.142868 -0.259480
 25 -0.000001 -4.440603 0.000002 1.570144 -0.062988 0.004040
 26 10.510130 0.000001 -0.000002 0.000000 -0.000000 -1.901868
 27 0.000000 -1.748401 4.999997 -0.000000 0.004007 1.602290
 28 5.500000 0.000001 -0.000002 0.122432 0.000000 0.000000
 29 -0.000002 -1.940599 5.000001 -0.044472 0.004003 -0.000180
 30 6.551491 0.000000 -0.000001 -0.360917 0.390326 -1.222723
 31 -0.000001 -1.940599 5.000004 -0.027189 -0.053376 0.005295
 32 6.551491 0.000000 -0.000001 -0.085240 0.206173 -0.465612
 33 0.000001 -1.940599 4.999997 -0.066572 -0.152786 -0.110311
 34 0.813213 -0.193042 -1.517352 2.584944 0.766037 -0.954103
 35 6.384777 0.000000 -0.000001 -0.087912 -0.720897 -0.852874
 36 10.242682 -0.000001 0.000000 -0.000000 0.000000 -2.145995
 37 11.375561 -0.000000 -0.000000 2.638440 0.405407 0.666597
 38 0.728680 0.023431 1.008291 -1.579583 -0.319038 0.212973
 39 2.136497 0.000004 0.000000 -0.000000 -0.000000 1.282817
 40 2.313138 -0.000000 0.000001 0.000000 0.000000 3.141593
 41 3.115506 -0.886040 0.021431 0.420765 0.316066 0.167178
 42 2.011150 0.000001 0.000001 0.000000 0.000000 2.082010
 43 2.141378 -0.000001 0.000001 0.000000 0.000000 3.141593
 44 1.734173 -0.000002 -0.000002 0.000000 0.000000 1.041748
 45 0.136315 -3.738192 2.525892 1.493698 2.759406 -1.474501
 46 -2.193618 0.798257 4.032640 1.563844 0.186374 -0.074848
 47 11.389367 -0.000820 0.158781 2.056617 0.291307 0.269537
 48 -0.000001 -4.440601 0.000002 1.570144 -3.078602 0.004040
 49 5.999999 -0.000001 -0.000001 2.056617 0.000000 -0.000000
 50 0.000002 -4.440602 0.000004 1.569944 -3.078603 0.004053
 51 10.510131 -0.000001 0.000000 0.000000 0.000000 -2.643794
 52 -0.000001 -1.748398 -5.000001 3.141593 0.004007 -1.539299
 53 5.499999 0.000001 -0.000002 0.085614 0.000000 0.000000
 54 0.000000 0.000001 -5.000001 -0.044472 3.137589 -0.000177
 55 6.551489 -0.000000 0.000000 -0.085614 -0.224766 -0.242921
 56 -1.266844 -1.937445 -4.950558 -0.066572 -2.988806 -0.110308
 57 6.551490 -0.000000 0.000000 -0.085614 -0.224766 -0.242921
 58 0.699370 -1.944209 -5.006845 -0.027189 -3.088217 0.005298
 59 4.226148 -0.003202 0.000000 0.049494 0.279518 0.189641
 60 -0.000002 5.000001 0.000000 -0.153564 0.000087 2.718702
 61 0.000004 -0.000004 -3.713580 0.018865 -3.096651 -0.324845
 62 -0.000002 0.000000 5.000000 3.053198 1.558589 -0.074926
 63 -0.000007 0.000006 3.713580 -0.159276 -2.977491 -0.403653
 64 0.000001 -0.000000 -5.000000 -0.088726 1.558589 3.066335
 65 7.363602 1.646647 0.495663 3.141593 -1.570796 0.000000
 66 -0.000005 0.000007 3.619081 -0.217558 -2.796588 -0.810634
 67 16.573919 0.000000 0.000000 0.000000 0.000000 -2.033247
 68 15.128181 0.000002 -0.000000 0.271612 0.009043 -0.097069
 69 5.758665 4.244730 0.000000 0.000000 -0.000000 1.842220
 70 3.177726 -0.000002 -0.000001 0.000000 0.000000 3.141593
 71 15.708954 0.000001 -0.000001 0.136460 0.001254 -0.052592
 72 0.275148 0.189214 -3.445207 3.130898 0.000409 -1.514604
 73 17.210194 -0.000000 0.000000 0.000000 -0.000000 -2.328678
 74 0.000000 0.000001 -5.000000 -0.079433 1.546568 -1.570857
 75 0.000002 -0.000003 -3.619081 0.034416 -3.071533 -0.493407
 76 16.573921 -0.000000 -0.000000 0.000000 0.000000 -1.045581
 77 15.128182 0.000001 -0.000000 0.002618 -0.051986 0.588317
 78 5.758666 4.244731 0.000000 -0.000000 0.000000 1.815142
 79 4.003934 0.000000 -0.000000 0.000000 0.000000 0.000000
 80 15.708955 -0.000000 -0.000000 0.004296 -0.037430 0.405337
 81 0.273998 0.191090 3.439762 -3.130907 -0.000437 -1.508106
 82 17.210194 0.000001 -0.000000 -0.000000 -0.000000 -1.884228
 83 0.000000 -0.000001 5.000000 -0.079314 1.595025 -1.570739
end
