version 1
nodes
  0 "Bip01"  -1
  1 "Bip01 Footsteps"   0
  2 "Bip01 Pelvis"   0
  3 "Bip01 Spine"   2
  4 "Bip01 Spine1"   3
  5 "Bip01 Spine2"   4
  6 "Bip01 Spine3"   5
  7 "Bip01 Neck"   6
  8 "Bip01 Head"   7
  9 "Dummy21"   8
 10 "Bip01 L Clavicle"   7
 11 "Bip01 L UpperArm"  10
 12 "Bip01 L Forearm"  11
 13 "Bip01 L Hand"  12
 14 "Bip01 L Finger0"  13
 15 "Bip01 L Finger01"  14
 16 "Dummy06"  15
 17 "Bip01 L Finger1"  13
 18 "Bip01 L Finger11"  17
 19 "Dummy03"  18
 20 "-- L knuckle"  17
 21 "-- L knuckle_end"  20
 22 "-- L Forearm twist"  12
 23 "-- L Forearm twist_end"  22
 24 "-- L wrist"  12
 25 "-- L wrist_end"  24
 26 "-- L Elbow"  11
 27 "--L Elbow_end"  26
 28 "-- L bicep twist"  11
 29 "-- L bicep twist_end"  28
 30 "-- L shoulder outside"  10
 31 "-- L shoulder outside_end"  30
 32 "-- L Shoulder inside"  10
 33 "-- L Shoulder inside_end"  32
 34 "Bip01 R Clavicle"   7
 35 "Bip01 R UpperArm"  34
 36 "Bip01 R Forearm"  35
 37 "Bip01 R Hand"  36
 38 "Bip01 R Finger0"  37
 39 "Bip01 R Finger01"  38
 40 "Dummy01"  39
 41 "Bip01 R Finger1"  37
 42 "Bip01 R Finger11"  41
 43 "Dummy02"  42
 44 "-- R knuckle"  41
 45 "Point06"  44
 46 "Line06"  37
 47 "-- R wrist"  36
 48 "-- R wrist_end"  47
 49 "-- R forearm twist"  36
 50 "-- R forearm twist_end"  49
 51 "-- R Elbow"  35
 52 "--R Elbow_end"  51
 53 "-- R bicep twist"  35
 54 "-- R bicep twist_end"  53
 55 "-- R Shoulder inside"  34
 56 "-- R Shoulder inside_end"  55
 57 "-- R shoulder outside"  34
 58 "-- R shoulder outside_end"  57
 59 "-- Neck smooth"   6
 60 "-- neck smooth end"  59
 61 "-- R Butt"   2
 62 "--R Butt_end"  61
 63 "-- L butt"   2
 64 "--L butt_end"  63
 65 "GIGN01"   2
 66 "Bip01 L Thigh"   2
 67 "Bip01 L Calf"  66
 68 "Bip01 L Foot"  67
 69 "Bip01 L Toe0"  68
 70 "Dummy16"  69
 71 "-- L ankle"  67
 72 "-- L ankleend"  71
 73 "-- L Knee"  66
 74 "--L Knee_end"  73
 75 "Bip01 R Thigh"   2
 76 "Bip01 R Calf"  75
 77 "Bip01 R Foot"  76
 78 "Bip01 R Toe0"  77
 79 "Dummy11"  78
 80 "-- R Ankle"  76
 81 "-- R ankleend"  80
 82 "-- R Knee"  75
 83 "--R Knee_end"  82
end
skeleton
time 0
  0 -0.650000 0.000000 33.899605 -0.025849 0.174554 -1.569172
  1 5.816421 0.852483 -32.971565 -0.174512 -0.026131 1.569196
  2 -2.276935 0.000003 -1.238189 -1.570795 -1.570451 0.000000
  3 1.796778 0.712860 0.002388 -0.826389 0.134987 -0.307080
  4 4.118652 -0.003245 0.000474 -0.145738 -0.085750 0.028048
  5 4.118595 -0.003067 0.001163 -0.366400 -0.141744 0.049639
  6 4.118184 -0.002907 0.001460 -0.462372 -0.066882 -0.109134
  7 4.118629 -0.003470 -0.000695 0.288770 0.807049 0.219690
  8 4.443600 -0.000000 0.000001 0.522378 -0.617984 -0.565868
  9 9.024062 -0.000001 0.000000 0.000000 0.000000 0.000000
 10 -1.251454 0.344809 1.148788 0.742422 -0.365688 1.713812
 11 6.384777 0.000001 0.000001 -1.119559 0.301622 -0.824726
 12 10.242682 -0.000001 -0.000001 -0.000000 -0.000000 -1.421519
 13 11.375562 0.000001 0.000000 2.222106 -0.138133 -0.289812
 14 0.728676 0.023430 -1.008290 2.488416 -0.202092 0.839910
 15 2.136503 0.000002 0.000004 0.000000 -0.000000 -0.078540
 16 2.313135 -0.000001 -0.000002 0.000000 0.000000 0.000000
 17 3.115506 -0.886041 -0.021432 -0.159042 -0.049483 0.213416
 18 2.011151 0.000000 -0.000002 -0.000000 0.000000 1.322791
 19 2.141380 -0.000002 -0.000002 0.000000 0.000000 0.000000
 20 1.734173 0.000001 -0.000002 -0.000000 -0.000000 0.660693
 21 0.000006 -4.440594 -0.000000 1.570544 -0.062990 -0.195737
 22 6.000001 -0.000001 -0.000001 2.484403 -0.000000 -0.000000
 23 0.000001 -4.440601 -0.000000 1.569944 -0.062987 0.004053
 24 11.375565 -0.000001 0.000004 -2.820498 0.101135 -0.243980
 25 0.000001 -4.440603 -0.000001 1.570144 -0.062988 0.004040
 26 10.510131 -0.000000 -0.000001 0.000000 -0.000000 -2.281556
 27 0.000000 -1.748401 5.000000 0.000000 0.004007 1.602290
 28 5.500000 -0.000001 -0.000000 0.394879 -0.000000 0.000000
 29 -0.000002 -1.940599 5.000000 -0.044472 0.004003 -0.000180
 30 6.551491 0.000001 -0.000000 -0.751113 0.270811 -0.520076
 31 0.000000 -1.940598 5.000003 -0.027189 -0.053376 0.005295
 32 6.551491 0.000001 -0.000000 -0.321523 0.172578 -0.208381
 33 -0.000000 -1.940599 4.999995 -0.066572 -0.152786 -0.110311
 34 1.251461 -0.337731 -1.148785 2.810216 0.861426 -0.507959
 35 6.384778 -0.000000 -0.000002 -0.024488 0.004757 -0.726152
 36 10.242683 0.000001 0.000003 -0.000000 -0.000000 -2.120632
 37 11.375562 0.000000 -0.000004 2.520220 0.940513 0.630716
 38 0.728681 0.023430 1.008292 -1.579583 -0.319038 0.212973
 39 2.136497 -0.000000 -0.000001 0.000000 -0.000000 1.282817
 40 2.313138 0.000000 0.000001 0.000000 0.000000 3.141593
 41 3.115509 -0.886042 0.021432 0.420765 0.316066 0.167178
 42 2.011153 0.000000 0.000002 0.000000 -0.000000 2.082010
 43 2.141380 0.000001 -0.000002 0.000000 0.000000 3.141593
 44 1.734173 -0.000001 0.000002 -0.000000 -0.000000 1.041748
 45 0.136315 -3.738195 2.525892 1.493698 2.759406 -1.474501
 46 -2.193617 0.798256 4.032640 1.563844 0.186374 -0.074848
 47 11.389367 -0.000819 0.158781 1.901196 0.515813 0.134026
 48 -0.000001 -4.440600 -0.000000 1.570144 -3.078602 0.004040
 49 6.000000 0.000001 -0.000001 1.901196 0.000000 -0.000000
 50 0.000001 -4.440600 0.000000 1.569944 -3.078603 0.004053
 51 10.510133 0.000001 0.000003 0.000000 -0.000000 -2.631112
 52 -0.000001 -1.748400 -5.000001 -3.141593 0.004007 -1.539299
 53 5.500000 0.000000 0.000001 0.007860 0.000000 0.000000
 54 0.000001 -0.000000 -5.000001 -0.044472 3.137589 -0.000177
 55 6.551491 -0.000000 -0.000002 -0.007860 0.004025 -0.253370
 56 -1.266843 -1.937443 -4.950557 -0.066572 -2.988806 -0.110308
 57 6.551492 -0.000000 -0.000002 -0.007860 0.004025 -0.253370
 58 0.699371 -1.944208 -5.006846 -0.027189 -3.088217 0.005298
 59 4.226148 -0.003201 -0.000000 0.125311 0.450986 0.081537
 60 -0.000000 5.000000 -0.000000 -0.153564 0.000087 2.718702
 61 0.000004 -0.000004 -3.713580 0.018865 -3.096651 -0.324845
 62 -0.000002 0.000000 5.000000 3.053198 1.558589 -0.074926
 63 -0.000007 0.000006 3.713580 -0.159276 -2.977491 -0.403653
 64 0.000001 -0.000000 -5.000000 -0.088726 1.558589 3.066335
 65 7.363602 1.646647 0.495663 3.141593 -1.570796 0.000000
 66 -0.000005 0.000007 3.619081 -0.217558 -2.796588 -0.810634
 67 16.573919 0.000000 0.000000 0.000000 0.000000 -2.033247
 68 15.128181 0.000002 -0.000000 0.271612 0.009043 -0.097069
 69 5.758665 4.244730 0.000000 0.000000 -0.000000 1.842220
 70 3.177726 -0.000002 -0.000001 0.000000 0.000000 3.141593
 71 15.708954 0.000001 -0.000001 0.136460 0.001254 -0.052592
 72 0.275148 0.189214 -3.445207 3.130898 0.000409 -1.514604
 73 17.210194 -0.000000 0.000000 0.000000 -0.000000 -2.328678
 74 0.000000 0.000001 -5.000000 -0.079433 1.546568 -1.570857
 75 0.000002 -0.000003 -3.619081 0.034416 -3.071533 -0.493407
 76 16.573921 -0.000000 -0.000000 0.000000 0.000000 -1.045581
 77 15.128182 0.000001 -0.000000 0.002618 -0.051986 0.588317
 78 5.758666 4.244731 0.000000 -0.000000 0.000000 1.815142
 79 4.003934 0.000000 -0.000000 0.000000 0.000000 0.000000
 80 15.708955 -0.000000 -0.000000 0.004296 -0.037430 0.405337
 81 0.273998 0.191090 3.439762 -3.130907 -0.000437 -1.508106
 82 17.210194 0.000001 -0.000000 -0.000000 -0.000000 -1.884228
 83 0.000000 -0.000001 5.000000 -0.079314 1.595025 -1.570739
time 1
  0 -0.650000 0.000000 33.899605 -0.025849 0.174554 -1.569172
  1 5.816421 0.852483 -32.971565 -0.174512 -0.026131 1.569196
  2 -2.276935 0.000003 -1.238189 -1.570795 -1.570451 0.000000
  3 1.796778 0.712860 0.002388 -0.826389 0.134987 -0.307080
  4 4.118652 -0.003245 0.000474 -0.145738 -0.085750 0.028048
  5 4.118416 -0.003167 0.000829 -0.264927 -0.261826 0.010047
  6 4.118184 -0.002907 0.001459 -0.462372 -0.066882 -0.109134
  7 4.118634 -0.003469 -0.000696 0.288770 0.807049 0.219690
  8 4.443599 -0.000001 -0.000002 0.227748 -0.468703 -0.306842
  9 9.024062 0.000000 -0.000000 0.000000 0.000000 0.000000
 10 -1.251454 0.344808 1.148786 0.742423 -0.365688 1.713812
 11 6.384777 0.000001 0.000001 -1.142051 0.411896 -0.878182
 12 10.242682 0.000003 -0.000003 0.000000 0.000000 -1.321654
 13 11.375564 -0.000001 0.000000 2.210522 -0.198229 -0.433506
 14 0.728680 0.023431 -1.008291 2.488416 -0.202092 0.839910
 15 2.136496 -0.000000 0.000001 -0.000000 0.000000 -0.078540
 16 2.313140 0.000001 0.000001 0.000000 0.000000 0.000000
 17 3.115508 -0.886041 -0.021432 -0.159042 -0.049483 0.213416
 18 2.011145 0.000000 0.000001 -0.000000 -0.000000 1.322792
 19 2.141380 -0.000004 0.000000 0.000000 0.000000 0.000000
 20 1.734172 0.000001 -0.000001 -0.000000 -0.000000 0.660693
 21 0.000005 -4.440593 -0.000001 1.570544 -0.062990 -0.195737
 22 5.999999 -0.000000 -0.000000 2.457972 -0.000000 -0.000000
 23 -0.000000 -4.440600 -0.000000 1.569944 -0.062987 0.004053
 24 11.375562 0.000000 0.000004 -2.833018 0.145079 -0.345564
 25 -0.000001 -4.440602 0.000001 1.570144 -0.062988 0.004040
 26 10.510131 0.000002 -0.000003 0.000000 -0.000000 -2.231623
 27 0.000000 -1.748402 4.999999 -0.000000 0.004007 1.602291
 28 5.500000 0.000002 -0.000002 0.385946 -0.000000 0.000000
 29 -0.000003 -1.940600 5.000003 -0.044472 0.004003 -0.000180
 30 6.551491 0.000001 -0.000001 -0.747413 0.339256 -0.513102
 31 0.000000 -1.940599 5.000000 -0.027189 -0.053376 0.005295
 32 6.551491 0.000001 -0.000001 -0.313259 0.202242 -0.197343
 33 0.000000 -1.940599 4.999996 -0.066572 -0.152786 -0.110311
 34 1.251459 -0.337732 -1.148788 2.810216 0.861426 -0.507959
 35 6.384778 -0.000000 0.000001 -0.106719 -0.033994 -0.665325
 36 10.242682 0.000000 0.000000 -0.000000 -0.000000 -2.085720
 37 11.375560 -0.000001 -0.000000 2.462445 0.916909 0.569229
 38 0.728679 0.023431 1.008292 -1.579583 -0.319038 0.212973
 39 2.136499 -0.000000 0.000000 0.000000 0.000000 1.282817
 40 2.313139 -0.000003 -0.000000 0.000000 0.000000 3.141593
 41 3.115506 -0.886041 0.021431 0.420766 0.316066 0.167178
 42 2.011151 -0.000001 0.000002 0.000000 0.000000 2.082010
 43 2.141378 -0.000000 0.000002 0.000000 0.000000 3.141593
 44 1.734171 -0.000001 -0.000001 -0.000000 0.000000 1.041748
 45 0.136315 -3.738194 2.525890 1.493698 2.759406 -1.474501
 46 -2.193619 0.798257 4.032640 1.563844 0.186374 -0.074848
 47 11.389367 -0.000821 0.158781 1.890833 0.497675 0.122828
 48 0.000000 -4.440598 0.000000 1.570144 -3.078602 0.004040
 49 6.000000 -0.000001 -0.000001 1.890833 -0.000000 0.000000
 50 0.000001 -4.440603 0.000000 1.569944 -3.078603 0.004053
 51 10.510133 0.000001 0.000002 -0.000000 0.000000 -2.613656
 52 -0.000000 -1.748400 -5.000000 -3.141593 0.004007 -1.539299
 53 5.500000 0.000000 -0.000000 0.037335 0.000000 0.000000
 54 0.000000 -0.000000 -5.000002 -0.044472 3.137589 -0.000177
 55 6.551492 0.000000 0.000002 -0.037335 -0.002742 -0.245372
 56 -1.266844 -1.937444 -4.950562 -0.066572 -2.988806 -0.110308
 57 6.551492 0.000000 0.000002 -0.037335 -0.002742 -0.245372
 58 0.699370 -1.944208 -5.006847 -0.027189 -3.088217 0.005298
 59 4.226146 -0.003201 0.000000 0.125311 0.450986 0.081537
 60 0.000002 5.000001 0.000001 -0.153564 0.000087 2.718702
 61 0.000004 -0.000004 -3.713580 0.018865 -3.096651 -0.324845
 62 -0.000002 0.000000 5.000000 3.053198 1.558589 -0.074926
 63 -0.000007 0.000006 3.713580 -0.159276 -2.977491 -0.403653
 64 0.000001 -0.000000 -5.000000 -0.088726 1.558589 3.066335
 65 7.363602 1.646647 0.495663 3.141593 -1.570796 0.000000
 66 -0.000005 0.000007 3.619081 -0.217558 -2.796588 -0.810634
 67 16.573919 0.000000 0.000000 0.000000 0.000000 -2.033247
 68 15.128181 0.000002 -0.000000 0.271612 0.009043 -0.097069
 69 5.758665 4.244730 0.000000 0.000000 -0.000000 1.842220
 70 3.177726 -0.000002 -0.000001 0.000000 0.000000 3.141593
 71 15.708954 0.000001 -0.000001 0.136460 0.001254 -0.052592
 72 0.275148 0.189214 -3.445207 3.130898 0.000409 -1.514604
 73 17.210194 -0.000000 0.000000 0.000000 -0.000000 -2.328678
 74 0.000000 0.000001 -5.000000 -0.079433 1.546568 -1.570857
 75 0.000002 -0.000003 -3.619081 0.034416 -3.071533 -0.493407
 76 16.573921 -0.000000 -0.000000 0.000000 0.000000 -1.045581
 77 15.128182 0.000001 -0.000000 0.002618 -0.051986 0.588317
 78 5.758666 4.244731 0.000000 -0.000000 0.000000 1.815142
 79 4.003934 0.000000 -0.000000 0.000000 0.000000 0.000000
 80 15.708955 -0.000000 -0.000000 0.004296 -0.037430 0.405337
 81 0.273998 0.191090 3.439762 -3.130907 -0.000437 -1.508106
 82 17.210194 0.000001 -0.000000 -0.000000 -0.000000 -1.884228
 83 0.000000 -0.000001 5.000000 -0.079314 1.595025 -1.570739
time 2
  0 -0.650000 0.000000 33.899605 -0.025849 0.174554 -1.569172
  1 5.816421 0.852483 -32.971565 -0.174512 -0.026131 1.569196
  2 -2.276935 0.000003 -1.238189 -1.570795 -1.570451 0.000000
  3 1.796778 0.712860 0.002388 -0.826389 0.134987 -0.307080
  4 4.118652 -0.003245 0.000474 -0.145738 -0.085750 0.028048
  5 4.118279 -0.003229 0.000469 -0.154411 -0.377141 -0.043955
  6 4.118183 -0.002907 0.001460 -0.462372 -0.066882 -0.109134
  7 4.118633 -0.003469 -0.000696 0.288770 0.807049 0.219690
  8 4.443601 -0.000000 0.000000 0.001661 -0.255219 -0.144803
  9 9.024061 -0.000000 0.000001 0.000000 0.000000 0.000000
 10 -1.251456 0.344808 1.148786 0.742423 -0.365688 1.713812
 11 6.384778 -0.000001 0.000001 -1.161092 0.498245 -0.934767
 12 10.242681 0.000000 -0.000001 -0.000000 0.000000 -1.193965
 13 11.375560 -0.000000 -0.000002 2.191882 -0.265821 -0.576589
 14 0.728682 0.023431 -1.008291 2.488416 -0.202092 0.839910
 15 2.136499 0.000000 0.000002 -0.000000 0.000000 -0.078540
 16 2.313138 -0.000000 -0.000003 0.000000 0.000000 0.000000
 17 3.115509 -0.886041 -0.021431 -0.159042 -0.049483 0.213416
 18 2.011151 -0.000000 0.000000 -0.000000 -0.000000 1.322792
 19 2.141380 0.000003 0.000001 0.000000 0.000000 0.000000
 20 1.734172 0.000001 0.000001 0.000000 0.000000 0.660693
 21 0.000004 -4.440593 0.000002 1.570544 -0.062990 -0.195737
 22 5.999999 0.000000 -0.000002 2.414421 0.000000 0.000000
 23 0.000001 -4.440601 0.000001 1.569944 -0.062987 0.004053
 24 11.375563 -0.000000 0.000002 -2.852571 0.179486 -0.443919
 25 -0.000001 -4.440604 -0.000000 1.570144 -0.062988 0.004040
 26 10.510130 -0.000001 -0.000000 -0.000000 0.000000 -2.167779
 27 0.000001 -1.748400 5.000000 -0.000000 0.004007 1.602291
 28 5.500000 -0.000002 0.000001 0.374868 -0.000000 0.000000
 29 -0.000001 -1.940599 5.000001 -0.044472 0.004003 -0.000180
 30 6.551491 0.000000 -0.000001 -0.738243 0.392786 -0.512727
 31 0.000000 -1.940598 5.000000 -0.027189 -0.053376 0.005295
 32 6.551491 0.000000 -0.000001 -0.303358 0.225330 -0.191078
 33 0.000000 -1.940598 4.999997 -0.066572 -0.152786 -0.110311
 34 1.251460 -0.337731 -1.148786 2.810216 0.861426 -0.507959
 35 6.384778 0.000001 -0.000001 -0.191667 -0.074175 -0.605889
 36 10.242683 0.000001 -0.000001 -0.000000 0.000000 -2.050807
 37 11.375563 -0.000001 -0.000001 2.408859 0.891292 0.511902
 38 0.728682 0.023430 1.008292 -1.579583 -0.319038 0.212973
 39 2.136497 -0.000000 0.000002 0.000000 0.000000 1.282817
 40 2.313139 0.000001 0.000003 0.000000 0.000000 3.141593
 41 3.115509 -0.886042 0.021432 0.420766 0.316066 0.167178
 42 2.011151 0.000001 -0.000001 0.000000 -0.000000 2.082010
 43 2.141381 -0.000000 -0.000001 0.000000 0.000000 3.141593
 44 1.734174 -0.000001 0.000001 0.000000 0.000000 1.041748
 45 0.136315 -3.738193 2.525892 1.493698 2.759406 -1.474501
 46 -2.193617 0.798256 4.032640 1.563844 0.186374 -0.074848
 47 11.389368 -0.000819 0.158781 1.880827 0.479730 0.112074
 48 0.000001 -4.440601 0.000000 1.570144 -3.078602 0.004040
 49 6.000000 0.000001 -0.000001 1.880827 0.000000 -0.000000
 50 0.000002 -4.440600 -0.000000 1.569944 -3.078602 0.004053
 51 10.510132 0.000001 0.000000 -0.000000 0.000000 -2.596200
 52 0.000000 -1.748399 -5.000001 -3.141593 0.004007 -1.539299
 53 5.500000 0.000001 0.000000 0.066868 0.000000 0.000000
 54 0.000001 0.000000 -5.000002 -0.044472 3.137589 -0.000177
 55 6.551492 0.000001 -0.000001 -0.066868 -0.011519 -0.236939
 56 -1.266844 -1.937443 -4.950558 -0.066572 -2.988806 -0.110308
 57 6.551492 0.000001 -0.000001 -0.066868 -0.011519 -0.236939
 58 0.699370 -1.944208 -5.006845 -0.027189 -3.088217 0.005298
 59 4.226148 -0.003201 -0.000000 0.125311 0.450986 0.081537
 60 0.000000 5.000001 0.000001 -0.153564 0.000087 2.718702
 61 0.000004 -0.000004 -3.713580 0.018865 -3.096651 -0.324845
 62 -0.000002 0.000000 5.000000 3.053198 1.558589 -0.074926
 63 -0.000007 0.000006 3.713580 -0.159276 -2.977491 -0.403653
 64 0.000001 -0.000000 -5.000000 -0.088726 1.558589 3.066335
 65 7.363602 1.646647 0.495663 3.141593 -1.570796 0.000000
 66 -0.000005 0.000007 3.619081 -0.217558 -2.796588 -0.810634
 67 16.573919 0.000000 0.000000 0.000000 0.000000 -2.033247
 68 15.128181 0.000002 -0.000000 0.271612 0.009043 -0.097069
 69 5.758665 4.244730 0.000000 0.000000 -0.000000 1.842220
 70 3.177726 -0.000002 -0.000001 0.000000 0.000000 3.141593
 71 15.708954 0.000001 -0.000001 0.136460 0.001254 -0.052592
 72 0.275148 0.189214 -3.445207 3.130898 0.000409 -1.514604
 73 17.210194 -0.000000 0.000000 0.000000 -0.000000 -2.328678
 74 0.000000 0.000001 -5.000000 -0.079433 1.546568 -1.570857
 75 0.000002 -0.000003 -3.619081 0.034416 -3.071533 -0.493407
 76 16.573921 -0.000000 -0.000000 0.000000 0.000000 -1.045581
 77 15.128182 0.000001 -0.000000 0.002618 -0.051986 0.588317
 78 5.758666 4.244731 0.000000 -0.000000 0.000000 1.815142
 79 4.003934 0.000000 -0.000000 0.000000 0.000000 0.000000
 80 15.708955 -0.000000 -0.000000 0.004296 -0.037430 0.405337
 81 0.273998 0.191090 3.439762 -3.130907 -0.000437 -1.508106
 82 17.210194 0.000001 -0.000000 -0.000000 -0.000000 -1.884228
 83 0.000000 -0.000001 5.000000 -0.079314 1.595025 -1.570739
time 3
  0 -0.650000 0.000000 33.899605 -0.025849 0.174554 -1.569172
  1 5.816421 0.852483 -32.971565 -0.174512 -0.026131 1.569196
  2 -2.276935 0.000003 -1.238189 -1.570795 -1.570451 0.000000
  3 1.796778 0.712860 0.002388 -0.826389 0.134987 -0.307080
  4 4.118652 -0.003245 0.000474 -0.145738 -0.085750 0.028047
  5 4.118184 -0.003251 0.000090 -0.031205 -0.485710 -0.114807
  6 4.118187 -0.002907 0.001458 -0.462372 -0.066882 -0.109134
  7 4.118633 -0.003469 -0.000697 0.288770 0.807049 0.219690
  8 4.443598 -0.000001 -0.000001 -0.179761 -0.007416 -0.065987
  9 9.024060 -0.000001 -0.000001 0.000000 0.000000 0.000000
 10 -1.251458 0.344808 1.148785 0.742422 -0.365688 1.713812
 11 6.384778 -0.000001 0.000002 -1.178422 0.559168 -0.997992
 12 10.242682 -0.000003 0.000001 -0.000000 -0.000000 -1.034919
 13 11.375558 0.000001 -0.000000 2.168891 -0.340967 -0.719710
 14 0.728682 0.023431 -1.008294 2.488416 -0.202092 0.839910
 15 2.136497 0.000001 0.000002 -0.000000 0.000000 -0.078540
 16 2.313138 -0.000001 -0.000003 0.000000 0.000000 0.000000
 17 3.115506 -0.886040 -0.021431 -0.159042 -0.049483 0.213416
 18 2.011152 -0.000000 0.000000 -0.000000 -0.000000 1.322792
 19 2.141379 0.000002 -0.000000 0.000000 0.000000 0.000000
 20 1.734174 0.000000 -0.000000 0.000000 0.000000 0.660693
 21 0.000006 -4.440595 0.000002 1.570544 -0.062990 -0.195737
 22 6.000000 -0.000000 0.000001 2.356372 -0.000000 0.000000
 23 0.000003 -4.440600 0.000000 1.569944 -0.062987 0.004053
 24 11.375561 0.000001 0.000004 -2.877919 0.205829 -0.542714
 25 -0.000001 -4.440605 -0.000001 1.570144 -0.062988 0.004040
 26 10.510130 -0.000002 -0.000000 -0.000000 0.000000 -2.088256
 27 0.000002 -1.748401 5.000000 -0.000000 0.004007 1.602291
 28 5.500000 -0.000001 0.000000 0.362401 -0.000000 0.000000
 29 -0.000002 -1.940597 4.999998 -0.044472 0.004003 -0.000180
 30 6.551492 -0.000001 0.000002 -0.724848 0.430549 -0.523229
 31 0.000000 -1.940600 5.000003 -0.027189 -0.053376 0.005295
 32 6.551492 -0.000001 0.000002 -0.292388 0.241967 -0.191714
 33 -0.000001 -1.940599 4.999996 -0.066572 -0.152786 -0.110311
 34 1.251460 -0.337731 -1.148787 2.810216 0.861426 -0.507959
 35 6.384777 0.000001 -0.000001 -0.278770 -0.116015 -0.547135
 36 10.242682 0.000001 0.000000 0.000000 -0.000000 -2.015895
 37 11.375563 -0.000002 0.000002 2.359299 0.863883 0.458564
 38 0.728680 0.023431 1.008291 -1.579583 -0.319038 0.212973
 39 2.136499 -0.000000 -0.000001 0.000000 0.000000 1.282817
 40 2.313138 -0.000002 -0.000001 0.000000 0.000000 3.141593
 41 3.115508 -0.886042 0.021431 0.420766 0.316066 0.167178
 42 2.011149 0.000001 0.000002 0.000000 -0.000000 2.082010
 43 2.141382 0.000001 -0.000002 0.000000 0.000000 3.141593
 44 1.734171 -0.000000 0.000000 0.000000 -0.000000 1.041748
 45 0.136315 -3.738192 2.525891 1.493698 2.759406 -1.474501
 46 -2.193620 0.798258 4.032639 1.563844 0.186374 -0.074848
 47 11.389367 -0.000821 0.158782 1.871151 0.461944 0.101710
 48 -0.000001 -4.440600 0.000001 1.570144 -3.078602 0.004040
 49 6.000000 -0.000000 0.000001 1.871151 0.000000 -0.000000
 50 0.000001 -4.440603 0.000001 1.569944 -3.078603 0.004053
 51 10.510132 0.000001 0.000002 -0.000000 0.000000 -2.578744
 52 0.000001 -1.748400 -5.000001 -3.141593 0.004007 -1.539299
 53 5.500000 0.000000 -0.000001 0.095889 0.000000 -0.000000
 54 0.000001 -0.000000 -5.000000 -0.044472 3.137589 -0.000177
 55 6.551491 0.000000 -0.000004 -0.095889 -0.022313 -0.227763
 56 -1.266844 -1.937443 -4.950559 -0.066572 -2.988806 -0.110308
 57 6.551492 0.000000 -0.000004 -0.095889 -0.022313 -0.227763
 58 0.699372 -1.944208 -5.006848 -0.027189 -3.088217 0.005298
 59 4.226148 -0.003201 -0.000001 0.125311 0.450986 0.081537
 60 0.000001 5.000001 0.000000 -0.153564 0.000087 2.718702
 61 0.000004 -0.000004 -3.713580 0.018865 -3.096651 -0.324845
 62 -0.000002 0.000000 5.000000 3.053198 1.558589 -0.074926
 63 -0.000007 0.000006 3.713580 -0.159276 -2.977491 -0.403653
 64 0.000001 -0.000000 -5.000000 -0.088726 1.558589 3.066335
 65 7.363602 1.646647 0.495663 3.141593 -1.570796 0.000000
 66 -0.000005 0.000007 3.619081 -0.217558 -2.796588 -0.810634
 67 16.573919 0.000000 0.000000 0.000000 0.000000 -2.033247
 68 15.128181 0.000002 -0.000000 0.271612 0.009043 -0.097069
 69 5.758665 4.244730 0.000000 0.000000 -0.000000 1.842220
 70 3.177726 -0.000002 -0.000001 0.000000 0.000000 3.141593
 71 15.708954 0.000001 -0.000001 0.136460 0.001254 -0.052592
 72 0.275148 0.189214 -3.445207 3.130898 0.000409 -1.514604
 73 17.210194 -0.000000 0.000000 0.000000 -0.000000 -2.328678
 74 0.000000 0.000001 -5.000000 -0.079433 1.546568 -1.570857
 75 0.000002 -0.000003 -3.619081 0.034416 -3.071533 -0.493407
 76 16.573921 -0.000000 -0.000000 0.000000 0.000000 -1.045581
 77 15.128182 0.000001 -0.000000 0.002618 -0.051986 0.588317
 78 5.758666 4.244731 0.000000 -0.000000 0.000000 1.815142
 79 4.003934 0.000000 -0.000000 0.000000 0.000000 0.000000
 80 15.708955 -0.000000 -0.000000 0.004296 -0.037430 0.405337
 81 0.273998 0.191090 3.439762 -3.130907 -0.000437 -1.508106
 82 17.210194 0.000001 -0.000000 -0.000000 -0.000000 -1.884228
 83 0.000000 -0.000001 5.000000 -0.079314 1.595025 -1.570739
end
