version 1
nodes
  0 "Bip01"  -1
  1 "Bip01 Footsteps"   0
  2 "Bip01 Pelvis"   0
  3 "Bip01 Spine"   2
  4 "Bip01 Spine1"   3
  5 "Bip01 Spine2"   4
  6 "Bip01 Spine3"   5
  7 "Bip01 Neck"   6
  8 "Bip01 Head"   7
  9 "Dummy21"   8
 10 "Bip01 L Clavicle"   7
 11 "Bip01 L UpperArm"  10
 12 "Bip01 L Forearm"  11
 13 "Bip01 L Hand"  12
 14 "Bip01 L Finger0"  13
 15 "Bip01 L Finger01"  14
 16 "Dummy06"  15
 17 "Bip01 L Finger1"  13
 18 "Bip01 L Finger11"  17
 19 "Dummy03"  18
 20 "-- L knuckle"  17
 21 "-- L knuckle_end"  20
 22 "-- L Forearm twist"  12
 23 "-- L Forearm twist_end"  22
 24 "-- L wrist"  12
 25 "-- L wrist_end"  24
 26 "-- L Elbow"  11
 27 "--L Elbow_end"  26
 28 "-- L bicep twist"  11
 29 "-- L bicep twist_end"  28
 30 "-- L shoulder outside"  10
 31 "-- L shoulder outside_end"  30
 32 "-- L Shoulder inside"  10
 33 "-- L Shoulder inside_end"  32
 34 "Bip01 R Clavicle"   7
 35 "Bip01 R UpperArm"  34
 36 "Bip01 R Forearm"  35
 37 "Bip01 R Hand"  36
 38 "Bip01 R Finger0"  37
 39 "Bip01 R Finger01"  38
 40 "Dummy01"  39
 41 "Bip01 R Finger1"  37
 42 "Bip01 R Finger11"  41
 43 "Dummy02"  42
 44 "-- R knuckle"  41
 45 "Point06"  44
 46 "Beretta Elite"  37
 47 "-- R wrist"  36
 48 "-- R wrist_end"  47
 49 "-- R forearm twist"  36
 50 "-- R forearm twist_end"  49
 51 "-- R Elbow"  35
 52 "--R Elbow_end"  51
 53 "-- R bicep twist"  35
 54 "-- R bicep twist_end"  53
 55 "-- R Shoulder inside"  34
 56 "-- R Shoulder inside_end"  55
 57 "-- R shoulder outside"  34
 58 "-- R shoulder outside_end"  57
 59 "-- Neck smooth"   6
 60 "-- neck smooth end"  59
 61 "-- R Butt"   2
 62 "--R Butt_end"  61
 63 "-- L butt"   2
 64 "--L butt_end"  63
 65 "GIGN01"   2
 66 "Bip01 L Thigh"   2
 67 "Bip01 L Calf"  66
 68 "Bip01 L Foot"  67
 69 "Bip01 L Toe0"  68
 70 "Dummy16"  69
 71 "-- L ankle"  67
 72 "-- L ankleend"  71
 73 "-- L Knee"  66
 74 "--L Knee_end"  73
 75 "Bip01 R Thigh"   2
 76 "Bip01 R Calf"  75
 77 "Bip01 R Foot"  76
 78 "Bip01 R Toe0"  77
 79 "Dummy11"  78
 80 "-- R Ankle"  76
 81 "-- R ankleend"  80
 82 "-- R Knee"  75
 83 "--R Knee_end"  82
end
skeleton
time 0
  0 0.500000 13.522099 26.931471 -0.243067 0.535714 -2.432935
  1 13.773751 5.584523 -22.520975 -0.544290 0.221328 2.303921
  2 -2.276934 0.000003 -1.238185 -1.570795 -1.570451 0.000000
  3 1.796435 0.711886 -0.000289 0.095255 -0.400018 -0.256067
  4 4.119720 -0.003083 0.000057 -0.017231 0.076275 0.346458
  5 4.119398 -0.003162 -0.000337 0.103673 -0.095930 0.236462
  6 4.117630 -0.003135 0.000018 -0.006621 0.349428 -0.303827
  7 4.118195 -0.002686 -0.002264 0.694841 0.019306 -0.133757
  8 4.443602 -0.000001 0.000000 0.033897 -0.084711 0.070335
  9 9.024060 -0.000001 -0.000000 0.000000 0.000000 0.000000
 10 -0.033443 1.112724 1.330755 0.987950 -1.167968 2.331568
 11 6.384777 -0.000001 -0.000000 -1.193165 0.312877 -1.700641
 12 10.242682 0.000001 -0.000001 0.000000 0.000000 -1.964061
 13 11.375562 -0.000001 0.000000 -2.199362 0.108485 0.791026
 14 0.728681 0.023430 -1.008294 1.267227 0.796324 -0.150945
 15 2.136500 -0.000000 -0.000001 -0.000000 -0.000000 -0.078540
 16 2.313137 -0.000000 0.000001 0.000000 0.000000 0.000000
 17 3.115507 -0.886041 -0.021434 -0.328083 -0.231966 0.498583
 18 2.011151 0.000002 -0.000003 -0.000000 -0.000000 1.008632
 19 2.141378 0.000000 0.000001 0.000000 0.000000 0.000000
 20 1.734172 0.000002 -0.000002 -0.000000 -0.000000 0.503666
 21 0.000007 -4.440593 0.000002 1.570544 -0.062990 -0.195737
 22 6.000002 -0.000001 0.000000 -2.067664 0.000000 -0.000000
 23 0.000001 -4.440601 -0.000000 1.569944 -0.062987 0.004053
 24 11.375563 -0.000001 0.000003 -1.897922 -0.013500 0.408014
 25 -0.000002 -4.440604 0.000002 1.570144 -0.062988 0.004040
 26 10.510128 0.000001 -0.000001 -0.000000 0.000000 -2.552827
 27 0.000000 -1.748400 4.999999 -0.000000 0.004007 1.602291
 28 5.499997 -0.000000 -0.000001 0.275180 0.000000 0.000000
 29 -0.000001 -1.940598 5.000000 -0.044472 0.004003 -0.000180
 30 6.551493 -0.000002 -0.000001 -0.779418 0.502854 -1.305134
 31 -0.000001 -1.940599 5.000002 -0.027189 -0.053376 0.005295
 32 6.551493 -0.000002 -0.000001 -0.195581 0.298423 -0.422765
 33 -0.000002 -1.940598 4.999998 -0.066572 -0.152786 -0.110311
 34 0.033453 -1.105650 -1.330754 1.377891 0.945656 -1.643184
 35 6.384778 0.000002 -0.000002 0.191915 0.540102 -1.679917
 36 10.242682 0.000001 -0.000000 -0.000000 0.000000 -1.595470
 37 11.375561 -0.000001 0.000001 2.591563 0.378751 0.842310
 38 0.728679 0.023432 1.008291 -1.579583 -0.319038 0.212973
 39 2.136496 0.000001 0.000001 0.000000 0.000000 1.282817
 40 2.313139 -0.000002 -0.000001 0.000000 0.000000 3.141593
 41 3.115506 -0.886041 0.021430 0.420765 0.316066 0.167178
 42 2.011151 -0.000000 -0.000000 -0.000000 0.000000 2.082010
 43 2.141379 -0.000000 -0.000002 0.000000 0.000000 3.141593
 44 1.734172 -0.000001 -0.000002 -0.000000 -0.000000 1.041748
 45 0.136315 -3.738193 2.525889 1.493698 2.759406 -1.474501
 46 5.031114 -0.189688 1.849664 -2.967941 -0.035742 1.570790
 47 11.389366 -0.000820 0.158782 2.024352 0.287887 0.358658
 48 0.000000 -4.440599 -0.000000 1.570144 -3.078602 0.004040
 49 6.000000 -0.000000 -0.000002 2.024352 0.000000 -0.000000
 50 0.000002 -4.440603 0.000000 1.569944 -3.078603 0.004053
 51 10.510132 0.000001 0.000001 -0.000000 -0.000000 -2.368531
 52 0.000000 -1.748399 -5.000000 3.141593 0.004007 -1.539299
 53 5.500000 0.000001 0.000001 -0.173190 -0.000000 0.000000
 54 -0.000000 -0.000001 -4.999999 -0.044472 3.137589 -0.000177
 55 6.551492 0.000000 0.000000 0.173190 0.112599 -0.486300
 56 -1.266843 -1.937443 -4.950559 -0.066572 -2.988806 -0.110308
 57 6.551492 0.000000 0.000000 0.173190 0.112599 -0.486300
 58 0.699371 -1.944206 -5.006848 -0.027189 -3.088217 0.005298
 59 4.226146 -0.003202 0.000000 0.348293 -0.002819 -0.078203
 60 -0.000000 5.000001 0.000000 -0.153564 0.000087 2.718702
 61 0.000006 -0.000004 -3.713579 0.119535 -2.936655 -0.885276
 62 0.000003 0.000000 5.000000 3.053195 1.558589 -0.074929
 63 -0.000005 0.000006 3.713580 -0.311487 -2.845558 -0.582080
 64 0.000001 0.000000 -5.000000 -0.088726 1.558589 3.066335
 65 7.363603 1.646648 0.495664 -3.141593 -1.570796 0.000000
 66 -0.000005 0.000007 3.619082 -0.441735 -2.434423 -1.159240
 67 16.573917 -0.000000 0.000001 -0.000000 -0.000000 -2.011748
 68 15.128181 0.000000 -0.000000 0.026832 0.026147 -0.175154
 69 5.758666 4.244731 0.000000 0.000000 -0.000000 2.033309
 70 3.177727 0.000000 0.000000 0.000000 0.000000 3.141593
 71 15.708951 0.000002 -0.000000 0.013957 0.013894 -0.093781
 72 0.275148 0.189215 -3.445208 3.130898 0.000409 -1.514604
 73 17.210192 -0.000001 0.000002 -0.000000 0.000000 -2.319003
 74 0.000000 -0.000001 -5.000000 -0.079433 1.546568 -1.570857
 75 0.000007 -0.000003 -3.619079 0.260448 -2.945758 -1.468642
 76 16.573919 -0.000000 0.000001 0.000000 0.000000 -1.562392
 77 15.128181 0.000000 0.000001 0.265624 -0.173430 0.666428
 78 5.758665 4.244731 0.000000 -0.000000 0.000000 1.483530
 79 4.003934 -0.000000 0.000000 0.000000 0.000000 0.000000
 80 15.708953 0.000000 0.000000 0.195074 -0.100553 0.460486
 81 0.273998 0.191090 3.439762 -3.130907 -0.000437 -1.508107
 82 17.210194 -0.000000 0.000000 -0.000000 0.000000 -2.116793
 83 0.000000 0.000000 5.000000 -0.079311 1.595025 -1.570737
time 1
  0 0.500000 13.522099 26.931471 -0.243067 0.535714 -2.432935
  1 13.773751 5.584523 -22.520975 -0.544290 0.221328 2.303921
  2 -2.276934 0.000003 -1.238185 -1.570795 -1.570451 0.000000
  3 1.796445 0.711884 -0.000285 0.093894 -0.400324 -0.252573
  4 4.119731 -0.003081 0.000055 -0.016984 0.076330 0.349699
  5 4.119408 -0.003160 -0.000337 0.103363 -0.096264 0.239692
  6 4.117639 -0.003136 0.000016 -0.005444 0.349447 -0.300387
  7 4.118412 -0.002711 -0.002265 0.694829 -0.020084 -0.086642
  8 4.443599 -0.000001 0.000000 0.036831 -0.092908 -0.000602
  9 9.024062 -0.000000 -0.000000 0.000000 0.000000 0.000000
 10 0.034799 1.112692 1.330747 0.988121 -1.168019 2.270001
 11 6.384777 0.000000 0.000000 -1.222447 0.271832 -1.698795
 12 10.242680 -0.000000 -0.000001 -0.000000 0.000000 -1.825529
 13 11.375562 -0.000001 0.000000 -2.256574 0.184303 0.724585
 14 0.728680 0.023431 -1.008291 1.267228 0.796324 -0.150945
 15 2.136496 0.000000 0.000003 0.000000 -0.000000 -0.078540
 16 2.313138 -0.000000 0.000000 0.000000 0.000000 0.000000
 17 3.115505 -0.886041 -0.021429 -0.328083 -0.231966 0.498583
 18 2.011150 -0.000002 -0.000001 0.000000 -0.000000 1.008632
 19 2.141380 0.000000 -0.000002 0.000000 0.000000 0.000000
 20 1.734172 0.000000 -0.000002 -0.000000 0.000000 0.503666
 21 0.000006 -4.440593 0.000001 1.570544 -0.062990 -0.195737
 22 5.999999 0.000000 -0.000000 -2.113444 -0.000000 -0.000000
 23 0.000003 -4.440600 -0.000001 1.569944 -0.062987 0.004053
 24 11.375563 -0.000000 0.000003 -1.930832 0.024576 0.384656
 25 -0.000002 -4.440604 0.000001 1.570144 -0.062988 0.004040
 26 10.510129 -0.000001 -0.000001 -0.000000 -0.000000 -2.483561
 27 -0.000001 -1.748401 5.000000 -0.000000 0.004007 1.602290
 28 5.499999 -0.000000 -0.000001 0.292653 0.000000 0.000000
 29 0.000000 -1.940598 5.000000 -0.044472 0.004003 -0.000180
 30 6.551492 -0.000000 -0.000001 -0.811195 0.473274 -1.322988
 31 0.000001 -1.940598 5.000001 -0.027189 -0.053376 0.005295
 32 6.551492 -0.000000 -0.000001 -0.208595 0.291518 -0.426279
 33 0.000002 -1.940598 4.999995 -0.066572 -0.152786 -0.110311
 34 -0.034796 -1.105617 -1.330746 1.473577 1.012958 -1.588363
 35 6.384776 0.000000 -0.000001 0.230297 0.544525 -1.626557
 36 10.242682 0.000001 -0.000000 -0.000000 0.000000 -1.502444
 37 11.375561 -0.000001 -0.000002 2.596938 0.355786 0.857278
 38 0.728680 0.023431 1.008293 -1.579583 -0.319038 0.212973
 39 2.136496 0.000001 -0.000001 0.000000 0.000000 1.282817
 40 2.313139 -0.000000 0.000000 0.000000 0.000000 3.141593
 41 3.115506 -0.886041 0.021431 0.420766 0.316066 0.167178
 42 2.011150 0.000000 -0.000002 -0.000000 0.000000 2.082010
 43 2.141379 -0.000000 0.000002 0.000000 0.000000 3.141593
 44 1.734172 -0.000001 0.000000 -0.000000 -0.000000 1.041748
 45 0.136315 -3.738192 2.525891 1.493698 2.759406 -1.474501
 46 5.031114 -0.189688 1.849662 -2.967941 -0.035742 1.570790
 47 11.389365 -0.000820 0.158782 2.029809 0.279228 0.369680
 48 0.000001 -4.440599 -0.000001 1.570144 -3.078602 0.004040
 49 6.000000 -0.000000 -0.000002 2.029809 0.000000 -0.000000
 50 0.000002 -4.440601 -0.000001 1.569944 -3.078603 0.004053
 51 10.510130 0.000000 -0.000001 -0.000000 -0.000000 -2.322018
 52 0.000000 -1.748399 -5.000003 3.141593 0.004007 -1.539299
 53 5.499999 0.000000 0.000000 -0.190442 0.000000 -0.000000
 54 -0.000000 0.000000 -5.000001 -0.044472 3.137589 -0.000177
 55 6.551491 0.000000 -0.000001 0.190442 0.107937 -0.474676
 56 -1.266843 -1.937444 -4.950559 -0.066572 -2.988806 -0.110308
 57 6.551491 0.000000 -0.000001 0.190442 0.107937 -0.474676
 58 0.699370 -1.944207 -5.006848 -0.027189 -3.088217 0.005298
 59 4.226145 -0.003201 0.000001 0.348063 -0.019621 -0.047665
 60 -0.000001 5.000000 -0.000000 -0.153564 0.000087 2.718702
 61 0.000006 -0.000004 -3.713579 0.119535 -2.936655 -0.885276
 62 0.000003 0.000000 5.000000 3.053195 1.558589 -0.074929
 63 -0.000005 0.000006 3.713580 -0.311487 -2.845558 -0.582080
 64 0.000001 0.000000 -5.000000 -0.088726 1.558589 3.066335
 65 7.363603 1.646648 0.495664 -3.141593 -1.570796 0.000000
 66 -0.000005 0.000007 3.619082 -0.441735 -2.434423 -1.159240
 67 16.573917 -0.000000 0.000001 -0.000000 -0.000000 -2.011748
 68 15.128181 0.000000 -0.000000 0.026832 0.026147 -0.175154
 69 5.758666 4.244731 0.000000 0.000000 -0.000000 2.033309
 70 3.177727 0.000000 0.000000 0.000000 0.000000 3.141593
 71 15.708951 0.000002 -0.000000 0.013957 0.013894 -0.093781
 72 0.275148 0.189215 -3.445208 3.130898 0.000409 -1.514604
 73 17.210192 -0.000001 0.000002 -0.000000 0.000000 -2.319003
 74 0.000000 -0.000001 -5.000000 -0.079433 1.546568 -1.570857
 75 0.000007 -0.000003 -3.619079 0.260448 -2.945758 -1.468642
 76 16.573919 -0.000000 0.000001 0.000000 0.000000 -1.562392
 77 15.128181 0.000000 0.000001 0.265624 -0.173430 0.666428
 78 5.758665 4.244731 0.000000 -0.000000 0.000000 1.483530
 79 4.003934 -0.000000 0.000000 0.000000 0.000000 0.000000
 80 15.708953 0.000000 0.000000 0.195074 -0.100553 0.460486
 81 0.273998 0.191090 3.439762 -3.130907 -0.000437 -1.508107
 82 17.210194 -0.000000 0.000000 -0.000000 0.000000 -2.116793
 83 0.000000 0.000000 5.000000 -0.079311 1.595025 -1.570737
time 2
  0 0.500000 13.522099 26.931471 -0.243067 0.535714 -2.432935
  1 13.773751 5.584523 -22.520975 -0.544290 0.221328 2.303921
  2 -2.276934 0.000003 -1.238185 -1.570795 -1.570451 0.000000
  3 1.796454 0.711883 -0.000280 0.092532 -0.400624 -0.249078
  4 4.119740 -0.003078 0.000054 -0.016737 0.076385 0.352940
  5 4.119419 -0.003157 -0.000334 0.103052 -0.096597 0.242922
  6 4.117648 -0.003140 0.000011 -0.004266 0.349463 -0.296947
  7 4.118629 -0.002725 -0.002256 0.692954 -0.059429 -0.039452
  8 4.443597 -0.000001 0.000000 0.039841 -0.101086 -0.071564
  9 9.024062 0.000000 0.000000 0.000000 0.000000 0.000000
 10 0.102914 1.108465 1.330739 0.988291 -1.168071 2.208435
 11 6.384777 0.000000 0.000001 -1.245417 0.224739 -1.698405
 12 10.242682 0.000000 -0.000000 0.000000 -0.000000 -1.681109
 13 11.375563 -0.000000 0.000001 -2.312464 0.256213 0.654008
 14 0.728680 0.023431 -1.008292 1.267227 0.796324 -0.150945
 15 2.136498 -0.000000 0.000000 0.000000 -0.000000 -0.078540
 16 2.313137 -0.000000 0.000000 0.000000 0.000000 0.000000
 17 3.115506 -0.886042 -0.021430 -0.328083 -0.231966 0.498583
 18 2.011150 -0.000000 0.000000 0.000000 -0.000000 1.008632
 19 2.141378 0.000000 0.000000 0.000000 0.000000 0.000000
 20 1.734172 0.000001 -0.000001 -0.000000 -0.000000 0.503666
 21 0.000006 -4.440594 0.000000 1.570544 -0.062990 -0.195737
 22 6.000000 0.000001 0.000001 -2.156097 -0.000000 -0.000000
 23 0.000000 -4.440601 -0.000000 1.569944 -0.062987 0.004053
 24 11.375564 -0.000000 0.000004 -1.960565 0.062886 0.359274
 25 0.000000 -4.440602 -0.000001 1.570144 -0.062988 0.004040
 26 10.510130 0.000001 -0.000001 -0.000000 -0.000000 -2.411351
 27 0.000001 -1.748401 4.999999 -0.000000 0.004007 1.602291
 28 5.499998 -0.000001 -0.000000 0.310227 -0.000000 0.000000
 29 -0.000002 -1.940598 5.000000 -0.044472 0.004003 -0.000180
 30 6.551492 -0.000001 -0.000001 -0.841440 0.436890 -1.343281
 31 -0.000000 -1.940598 5.000000 -0.027189 -0.053376 0.005295
 32 6.551492 -0.000001 -0.000001 -0.221591 0.282154 -0.430714
 33 0.000002 -1.940598 4.999995 -0.066572 -0.152786 -0.110311
 34 -0.102912 -1.101389 -1.330739 1.598594 1.071960 -1.508934
 35 6.384776 -0.000001 0.000000 0.268249 0.542607 -1.573402
 36 10.242682 0.000001 0.000000 -0.000000 0.000000 -1.410507
 37 11.375562 0.000000 0.000001 2.601849 0.333020 0.871822
 38 0.728680 0.023431 1.008291 -1.579583 -0.319038 0.212973
 39 2.136497 0.000000 -0.000001 -0.000000 -0.000000 1.282817
 40 2.313139 -0.000002 -0.000001 0.000000 0.000000 3.141593
 41 3.115506 -0.886042 0.021433 0.420766 0.316066 0.167178
 42 2.011150 -0.000000 0.000003 -0.000000 0.000000 2.082010
 43 2.141379 -0.000000 -0.000001 0.000000 0.000000 3.141593
 44 1.734172 -0.000001 0.000003 0.000000 0.000000 1.041748
 45 0.136315 -3.738192 2.525889 1.493698 2.759406 -1.474501
 46 5.031114 -0.189688 1.849664 -2.967941 -0.035742 1.570790
 47 11.389367 -0.000820 0.158780 2.035073 0.270598 0.380434
 48 -0.000000 -4.440599 0.000003 1.570144 -3.078602 0.004040
 49 6.000000 -0.000000 -0.000001 2.035073 -0.000000 -0.000000
 50 0.000001 -4.440602 -0.000000 1.569944 -3.078603 0.004053
 51 10.510131 0.000000 0.000002 0.000000 -0.000000 -2.276050
 52 0.000000 -1.748399 -4.999998 3.141593 0.004007 -1.539299
 53 5.499999 -0.000000 -0.000001 -0.206193 0.000000 0.000000
 54 -0.000001 0.000000 -5.000001 -0.044472 3.137589 -0.000177
 55 6.551490 0.000000 -0.000001 0.206193 0.101125 -0.460720
 56 -1.266843 -1.937442 -4.950560 -0.066572 -2.988806 -0.110308
 57 6.551491 0.000000 -0.000001 0.206193 0.101125 -0.460720
 58 0.699370 -1.944207 -5.006846 -0.027189 -3.088217 0.005298
 59 4.226148 -0.003203 -0.000000 0.346972 -0.036445 -0.016744
 60 -0.000001 5.000001 -0.000000 -0.153564 0.000087 2.718702
 61 0.000006 -0.000004 -3.713579 0.119535 -2.936655 -0.885276
 62 0.000003 0.000000 5.000000 3.053195 1.558589 -0.074929
 63 -0.000005 0.000006 3.713580 -0.311487 -2.845558 -0.582080
 64 0.000001 0.000000 -5.000000 -0.088726 1.558589 3.066335
 65 7.363603 1.646648 0.495664 -3.141593 -1.570796 0.000000
 66 -0.000005 0.000007 3.619082 -0.441735 -2.434423 -1.159240
 67 16.573917 -0.000000 0.000001 -0.000000 -0.000000 -2.011748
 68 15.128181 0.000000 -0.000000 0.026832 0.026147 -0.175154
 69 5.758666 4.244731 0.000000 0.000000 -0.000000 2.033309
 70 3.177727 0.000000 0.000000 0.000000 0.000000 3.141593
 71 15.708951 0.000002 -0.000000 0.013957 0.013894 -0.093781
 72 0.275148 0.189215 -3.445208 3.130898 0.000409 -1.514604
 73 17.210192 -0.000001 0.000002 -0.000000 0.000000 -2.319003
 74 0.000000 -0.000001 -5.000000 -0.079433 1.546568 -1.570857
 75 0.000007 -0.000003 -3.619079 0.260448 -2.945758 -1.468642
 76 16.573919 -0.000000 0.000001 0.000000 0.000000 -1.562392
 77 15.128181 0.000000 0.000001 0.265624 -0.173430 0.666428
 78 5.758665 4.244731 0.000000 -0.000000 0.000000 1.483530
 79 4.003934 -0.000000 0.000000 0.000000 0.000000 0.000000
 80 15.708953 0.000000 0.000000 0.195074 -0.100553 0.460486
 81 0.273998 0.191090 3.439762 -3.130907 -0.000437 -1.508107
 82 17.210194 -0.000000 0.000000 -0.000000 0.000000 -2.116793
 83 0.000000 0.000000 5.000000 -0.079311 1.595025 -1.570737
time 3
  0 0.500000 13.522099 26.931471 -0.243067 0.535714 -2.432935
  1 13.773751 5.584523 -22.520975 -0.544290 0.221328 2.303921
  2 -2.276934 0.000003 -1.238185 -1.570795 -1.570451 0.000000
  3 1.796460 0.711881 -0.000277 0.091577 -0.400833 -0.246632
  4 4.119746 -0.003073 0.000055 -0.016564 0.076423 0.355209
  5 4.119430 -0.003159 -0.000336 0.102834 -0.096830 0.245183
  6 4.117654 -0.003139 0.000010 -0.003441 0.349472 -0.294539
  7 4.118784 -0.002730 -0.002246 0.690528 -0.086898 -0.006296
  8 4.443597 0.000000 -0.000000 0.041994 -0.106799 -0.121253
  9 9.024062 0.000000 -0.000000 0.000000 0.000000 0.000000
 10 0.150379 1.103017 1.330734 0.988411 -1.168107 2.165339
 11 6.384777 0.000001 0.000000 -1.257377 0.191909 -1.699036
 12 10.242681 0.000000 -0.000001 0.000000 0.000000 -1.588535
 13 11.375560 0.000000 0.000000 -2.346640 0.299392 0.607761
 14 0.728681 0.023432 -1.008292 1.267228 0.796324 -0.150945
 15 2.136496 0.000000 0.000000 0.000000 0.000000 -0.078540
 16 2.313139 0.000000 0.000001 0.000000 0.000000 0.000000
 17 3.115508 -0.886040 -0.021432 -0.328083 -0.231966 0.498583
 18 2.011150 -0.000000 0.000000 0.000000 -0.000000 1.008632
 19 2.141380 0.000000 -0.000000 0.000000 0.000000 0.000000
 20 1.734171 -0.000000 0.000001 0.000000 0.000000 0.503666
 21 0.000005 -4.440594 0.000002 1.570544 -0.062990 -0.195737
 22 6.000001 -0.000002 -0.000000 -2.181170 -0.000000 0.000000
 23 0.000001 -4.440601 -0.000001 1.569944 -0.062987 0.004053
 24 11.375564 -0.000002 0.000003 -1.977504 0.087144 0.342294
 25 -0.000000 -4.440604 0.000001 1.570144 -0.062988 0.004040
 26 10.510130 0.000001 -0.000001 -0.000000 0.000000 -2.365064
 27 -0.000000 -1.748401 4.999999 0.000000 0.004007 1.602291
 28 5.500000 0.000002 -0.000000 0.321303 -0.000000 0.000000
 29 -0.000002 -1.940599 5.000001 -0.044472 0.004003 -0.000180
 30 6.551491 -0.000001 -0.000002 -0.859850 0.410378 -1.357471
 31 0.000001 -1.940598 5.000002 -0.027189 -0.053376 0.005295
 32 6.551491 -0.000001 -0.000002 -0.229702 0.275000 -0.433821
 33 0.000000 -1.940600 4.999996 -0.066572 -0.152786 -0.110311
 34 -0.150382 -1.095938 -1.330736 1.693066 1.103077 -1.449850
 35 6.384778 0.000000 -0.000000 0.291062 0.539252 -1.541154
 36 10.242682 0.000000 -0.000001 -0.000000 0.000000 -1.353864
 37 11.375562 -0.000001 -0.000001 2.604682 0.318960 0.880668
 38 0.728680 0.023431 1.008292 -1.579583 -0.319038 0.212973
 39 2.136498 -0.000001 -0.000001 -0.000000 -0.000000 1.282817
 40 2.313139 -0.000000 -0.000000 0.000000 0.000000 3.141593
 41 3.115506 -0.886042 0.021432 0.420766 0.316066 0.167178
 42 2.011151 -0.000000 -0.000002 0.000000 0.000000 2.082010
 43 2.141380 -0.000000 -0.000002 0.000000 0.000000 3.141593
 44 1.734172 -0.000001 0.000001 -0.000000 0.000000 1.041748
 45 0.136315 -3.738193 2.525890 1.493698 2.759406 -1.474501
 46 5.031113 -0.189688 1.849661 -2.967941 -0.035742 1.570790
 47 11.389367 -0.000820 0.158781 2.038253 0.265248 0.386992
 48 0.000000 -4.440598 -0.000000 1.570144 -3.078602 0.004040
 49 6.000000 -0.000000 -0.000003 2.038253 -0.000000 -0.000000
 50 0.000001 -4.440600 -0.000001 1.569944 -3.078603 0.004053
 51 10.510133 -0.000000 0.000000 -0.000000 -0.000000 -2.247728
 52 0.000001 -1.748400 -5.000002 3.141593 0.004007 -1.539299
 53 5.500000 -0.000000 -0.000001 -0.214785 0.000000 0.000000
 54 -0.000000 -0.000000 -4.999999 -0.044472 3.137589 -0.000177
 55 6.551492 0.000001 -0.000000 0.214785 0.096156 -0.451085
 56 -1.266843 -1.937442 -4.950563 -0.066572 -2.988806 -0.110308
 57 6.551492 0.000000 -0.000000 0.214785 0.096156 -0.451085
 58 0.699371 -1.944209 -5.006849 -0.027189 -3.088217 0.005298
 59 4.226147 -0.003201 0.000000 0.345687 -0.048160 0.004991
 60 -0.000000 5.000001 -0.000000 -0.153564 0.000087 2.718702
 61 0.000006 -0.000004 -3.713579 0.119535 -2.936655 -0.885276
 62 0.000003 0.000000 5.000000 3.053195 1.558589 -0.074929
 63 -0.000005 0.000006 3.713580 -0.311487 -2.845558 -0.582080
 64 0.000001 0.000000 -5.000000 -0.088726 1.558589 3.066335
 65 7.363603 1.646648 0.495664 -3.141593 -1.570796 0.000000
 66 -0.000005 0.000007 3.619082 -0.441735 -2.434423 -1.159240
 67 16.573917 -0.000000 0.000001 -0.000000 -0.000000 -2.011748
 68 15.128181 0.000000 -0.000000 0.026832 0.026147 -0.175154
 69 5.758666 4.244731 0.000000 0.000000 -0.000000 2.033309
 70 3.177727 0.000000 0.000000 0.000000 0.000000 3.141593
 71 15.708951 0.000002 -0.000000 0.013957 0.013894 -0.093781
 72 0.275148 0.189215 -3.445208 3.130898 0.000409 -1.514604
 73 17.210192 -0.000001 0.000002 -0.000000 0.000000 -2.319003
 74 0.000000 -0.000001 -5.000000 -0.079433 1.546568 -1.570857
 75 0.000007 -0.000003 -3.619079 0.260448 -2.945758 -1.468642
 76 16.573919 -0.000000 0.000001 0.000000 0.000000 -1.562392
 77 15.128181 0.000000 0.000001 0.265624 -0.173430 0.666428
 78 5.758665 4.244731 0.000000 -0.000000 0.000000 1.483530
 79 4.003934 -0.000000 0.000000 0.000000 0.000000 0.000000
 80 15.708953 0.000000 0.000000 0.195074 -0.100553 0.460486
 81 0.273998 0.191090 3.439762 -3.130907 -0.000437 -1.508107
 82 17.210194 -0.000000 0.000000 -0.000000 0.000000 -2.116793
 83 0.000000 0.000000 5.000000 -0.079311 1.595025 -1.570737
time 4
  0 0.500000 13.522099 26.931471 -0.243067 0.535714 -2.432935
  1 13.773751 5.584523 -22.520975 -0.544290 0.221328 2.303921
  2 -2.276934 0.000003 -1.238185 -1.570795 -1.570451 0.000000
  3 1.796462 0.711880 -0.000277 0.091304 -0.400892 -0.245933
  4 4.119750 -0.003073 0.000053 -0.016515 0.076433 0.355857
  5 4.119431 -0.003156 -0.000334 0.102771 -0.096896 0.245829
  6 4.117656 -0.003137 0.000010 -0.003206 0.349474 -0.293851
  7 4.118824 -0.002729 -0.002241 0.689665 -0.094730 0.003204
  8 4.443600 -0.000002 0.000000 0.042616 -0.108429 -0.135452
  9 9.024062 -0.000001 -0.000000 0.000000 0.000000 0.000000
 10 0.163895 1.101085 1.330733 0.988445 -1.168117 2.153025
 11 6.384777 0.000002 0.000002 -1.260759 0.181156 -1.699398
 12 10.242682 0.000002 -0.000001 0.000000 0.000000 -1.558446
 13 11.375562 -0.000001 0.000000 -2.357412 0.312915 0.592632
 14 0.728681 0.023431 -1.008291 1.267228 0.796324 -0.150945
 15 2.136496 -0.000000 -0.000002 -0.000000 -0.000000 -0.078540
 16 2.313138 0.000000 0.000001 0.000000 0.000000 0.000000
 17 3.115506 -0.886041 -0.021431 -0.328083 -0.231966 0.498583
 18 2.011150 -0.000002 0.000000 0.000000 -0.000000 1.008632
 19 2.141380 0.000000 0.000001 0.000000 0.000000 0.000000
 20 1.734171 -0.000001 0.000001 -0.000000 0.000000 0.503666
 21 0.000004 -4.440595 0.000000 1.570544 -0.062990 -0.195737
 22 6.000001 -0.000002 -0.000000 -2.188916 0.000000 -0.000000
 23 0.000001 -4.440600 -0.000001 1.569944 -0.062987 0.004053
 24 11.375562 -0.000001 0.000003 -1.982639 0.094959 0.336675
 25 -0.000001 -4.440603 0.000000 1.570144 -0.062988 0.004040
 26 10.510130 0.000001 -0.000001 0.000000 0.000000 -2.350019
 27 0.000000 -1.748401 5.000000 0.000000 0.004007 1.602290
 28 5.500000 0.000001 -0.000001 0.324745 -0.000000 0.000000
 29 -0.000001 -1.940597 5.000000 -0.044472 0.004003 -0.000180
 30 6.551492 -0.000001 -0.000001 -0.865495 0.401523 -1.362149
 31 -0.000002 -1.940600 5.000002 -0.027189 -0.053376 0.005295
 32 6.551492 -0.000000 -0.000001 -0.232205 0.272570 -0.434822
 33 0.000001 -1.940601 4.999998 -0.066572 -0.152786 -0.110311
 34 -0.163893 -1.094010 -1.330733 1.725846 1.111881 -1.427287
 35 6.384777 -0.000002 0.000000 0.298272 0.537426 -1.530965
 36 10.242682 0.000000 0.000000 -0.000000 -0.000000 -1.335968
 37 11.375561 -0.000000 0.000001 2.605548 0.314513 0.883446
 38 0.728679 0.023431 1.008293 -1.579583 -0.319038 0.212973
 39 2.136496 0.000002 0.000001 -0.000000 -0.000000 1.282817
 40 2.313139 0.000001 0.000001 0.000000 0.000000 3.141593
 41 3.115505 -0.886041 0.021432 0.420766 0.316066 0.167178
 42 2.011150 -0.000000 -0.000001 0.000000 0.000000 2.082010
 43 2.141379 -0.000000 -0.000002 0.000000 0.000000 3.141593
 44 1.734172 -0.000001 -0.000000 -0.000000 0.000000 1.041748
 45 0.136315 -3.738193 2.525892 1.493698 2.759406 -1.474501
 46 5.031113 -0.189688 1.849664 -2.967941 -0.035742 1.570790
 47 11.389366 -0.000819 0.158783 2.039248 0.263552 0.389053
 48 -0.000001 -4.440597 0.000001 1.570144 -3.078602 0.004040
 49 5.999999 0.000000 0.000002 2.039248 0.000000 0.000000
 50 0.000002 -4.440603 0.000001 1.569944 -3.078603 0.004053
 51 10.510132 0.000000 0.000002 -0.000000 -0.000000 -2.238780
 52 0.000000 -1.748400 -5.000004 3.141593 0.004007 -1.539299
 53 5.500000 0.000000 0.000002 -0.217264 -0.000000 0.000000
 54 -0.000000 0.000000 -5.000002 -0.044472 3.137590 -0.000177
 55 6.551491 -0.000001 -0.000000 0.217264 0.094355 -0.447903
 56 -1.266844 -1.937444 -4.950562 -0.066572 -2.988806 -0.110308
 57 6.551492 -0.000001 -0.000000 0.217264 0.094355 -0.447903
 58 0.699370 -1.944209 -5.006850 -0.027189 -3.088217 0.005298
 59 4.226147 -0.003202 -0.000000 0.345241 -0.051490 0.011200
 60 0.000001 4.999999 -0.000000 -0.153564 0.000087 2.718702
 61 0.000006 -0.000004 -3.713579 0.119535 -2.936655 -0.885276
 62 0.000003 0.000000 5.000000 3.053195 1.558589 -0.074929
 63 -0.000005 0.000006 3.713580 -0.311487 -2.845558 -0.582080
 64 0.000001 0.000000 -5.000000 -0.088726 1.558589 3.066335
 65 7.363603 1.646648 0.495664 -3.141593 -1.570796 0.000000
 66 -0.000005 0.000007 3.619082 -0.441735 -2.434423 -1.159240
 67 16.573917 -0.000001 0.000001 -0.000000 -0.000000 -2.011748
 68 15.128180 0.000001 0.000001 0.026832 0.026147 -0.175154
 69 5.758666 4.244731 0.000000 0.000000 -0.000000 2.033309
 70 3.177727 0.000000 0.000000 0.000000 0.000000 3.141593
 71 15.708951 0.000002 0.000001 0.013957 0.013894 -0.093781
 72 0.275148 0.189215 -3.445208 3.130898 0.000409 -1.514604
 73 17.210192 -0.000002 0.000002 -0.000000 0.000000 -2.319003
 74 0.000000 -0.000001 -4.999999 -0.079433 1.546568 -1.570857
 75 0.000007 -0.000003 -3.619079 0.260448 -2.945758 -1.468642
 76 16.573919 -0.000000 0.000001 0.000000 0.000000 -1.562392
 77 15.128181 0.000000 0.000001 0.265624 -0.173430 0.666428
 78 5.758665 4.244731 0.000000 -0.000000 0.000000 1.483530
 79 4.003934 -0.000000 0.000000 0.000000 0.000000 0.000000
 80 15.708953 0.000000 0.000000 0.195074 -0.100553 0.460486
 81 0.273998 0.191090 3.439762 -3.130907 -0.000437 -1.508107
 82 17.210194 -0.000000 0.000000 -0.000000 0.000000 -2.116793
 83 0.000000 0.000000 5.000000 -0.079311 1.595025 -1.570737
time 5
  0 0.500000 13.522099 26.931471 -0.243067 0.535714 -2.432935
  1 13.773751 5.584523 -22.520975 -0.544290 0.221328 2.303921
  2 -2.276934 0.000003 -1.238185 -1.570795 -1.570451 0.000000
  3 1.796462 0.711879 -0.000278 0.091441 -0.400862 -0.246282
  4 4.119749 -0.003072 0.000055 -0.016539 0.076428 0.355533
  5 4.119427 -0.003155 -0.000335 0.102802 -0.096863 0.245506
  6 4.117656 -0.003141 0.000009 -0.003324 0.349473 -0.294195
  7 4.118804 -0.002730 -0.002244 0.690106 -0.090815 -0.001547
  8 4.443601 -0.000001 0.000001 0.042304 -0.107614 -0.128353
  9 9.024060 -0.000001 -0.000000 0.000000 0.000000 0.000000
 10 0.157143 1.102072 1.330734 0.988428 -1.168112 2.159182
 11 6.384777 -0.000001 -0.000001 -1.259087 0.186565 -1.699207
 12 10.242682 0.000002 -0.000000 -0.000000 0.000000 -1.573535
 13 11.375563 -0.000001 0.000000 -2.352027 0.306161 0.600228
 14 0.728681 0.023433 -1.008293 1.267228 0.796324 -0.150945
 15 2.136498 -0.000001 -0.000002 -0.000000 -0.000000 -0.078540
 16 2.313138 -0.000000 0.000000 0.000000 0.000000 0.000000
 17 3.115506 -0.886039 -0.021431 -0.328083 -0.231966 0.498583
 18 2.011151 -0.000000 0.000001 0.000000 -0.000000 1.008632
 19 2.141382 0.000000 -0.000001 0.000000 0.000000 0.000000
 20 1.734173 0.000002 0.000001 0.000000 -0.000000 0.503666
 21 0.000005 -4.440595 0.000002 1.570544 -0.062990 -0.195737
 22 6.000000 -0.000001 0.000000 -2.185053 0.000000 -0.000000
 23 0.000002 -4.440601 -0.000000 1.569944 -0.062987 0.004053
 24 11.375562 -0.000002 0.000003 -1.980085 0.091043 0.339501
 25 0.000001 -4.440604 0.000001 1.570144 -0.062988 0.004040
 26 10.510131 0.000002 -0.000001 0.000000 -0.000000 -2.357564
 27 0.000001 -1.748401 5.000000 -0.000000 0.004007 1.602291
 28 5.500001 0.000002 -0.000000 0.323025 -0.000000 -0.000000
 29 -0.000003 -1.940601 5.000000 -0.044472 0.004003 -0.000180
 30 6.551491 -0.000001 -0.000001 -0.862678 0.405987 -1.359794
 31 0.000002 -1.940599 5.000001 -0.027189 -0.053376 0.005295
 32 6.551491 -0.000001 -0.000001 -0.230955 0.273797 -0.434320
 33 0.000000 -1.940600 4.999996 -0.066572 -0.152786 -0.110311
 34 -0.157138 -1.094995 -1.330734 1.709279 1.107545 -1.438726
 35 6.384777 -0.000000 0.000001 0.294672 0.538369 -1.536054
 36 10.242682 0.000001 0.000001 -0.000000 0.000000 -1.344916
 37 11.375561 -0.000000 -0.000002 2.605117 0.316737 0.882058
 38 0.728679 0.023431 1.008290 -1.579583 -0.319038 0.212973
 39 2.136499 -0.000003 -0.000001 -0.000000 -0.000000 1.282817
 40 2.313140 0.000001 0.000001 0.000000 0.000000 3.141593
 41 3.115506 -0.886041 0.021430 0.420765 0.316066 0.167178
 42 2.011151 -0.000000 -0.000000 -0.000000 0.000000 2.082010
 43 2.141379 -0.000000 -0.000001 0.000000 0.000000 3.141593
 44 1.734172 -0.000001 0.000000 0.000000 -0.000000 1.041748
 45 0.136315 -3.738193 2.525892 1.493698 2.759406 -1.474501
 46 5.031115 -0.189688 1.849664 -2.967941 -0.035742 1.570790
 47 11.389367 -0.000820 0.158780 2.038751 0.264400 0.388023
 48 0.000001 -4.440598 0.000001 1.570144 -3.078602 0.004040
 49 6.000000 -0.000000 -0.000000 2.038751 0.000000 -0.000000
 50 0.000002 -4.440602 -0.000000 1.569944 -3.078603 0.004053
 51 10.510133 0.000001 0.000003 -0.000000 0.000000 -2.243254
 52 0.000001 -1.748400 -5.000001 3.141593 0.004007 -1.539299
 53 5.500000 0.000000 0.000004 -0.216040 0.000000 -0.000000
 54 -0.000000 -0.000000 -5.000001 -0.044472 3.137589 -0.000177
 55 6.551491 0.000001 -0.000000 0.216040 0.095265 -0.449501
 56 -1.266843 -1.937445 -4.950558 -0.066572 -2.988806 -0.110308
 57 6.551492 0.000001 -0.000001 0.216040 0.095265 -0.449501
 58 0.699371 -1.944209 -5.006846 -0.027189 -3.088217 0.005298
 59 4.226146 -0.003201 0.000000 0.345468 -0.049826 0.008096
 60 -0.000000 5.000000 0.000001 -0.153564 0.000087 2.718702
 61 0.000006 -0.000004 -3.713579 0.119535 -2.936655 -0.885276
 62 0.000003 0.000000 5.000000 3.053195 1.558589 -0.074929
 63 -0.000005 0.000006 3.713580 -0.311487 -2.845558 -0.582080
 64 0.000001 0.000000 -5.000000 -0.088726 1.558589 3.066335
 65 7.363603 1.646648 0.495664 -3.141593 -1.570796 0.000000
 66 -0.000005 0.000007 3.619082 -0.441735 -2.434423 -1.159240
 67 16.573917 -0.000001 0.000001 -0.000000 -0.000000 -2.011748
 68 15.128180 0.000001 0.000001 0.026832 0.026147 -0.175154
 69 5.758666 4.244731 0.000000 0.000000 -0.000000 2.033309
 70 3.177727 0.000000 0.000000 0.000000 0.000000 3.141593
 71 15.708951 0.000002 0.000001 0.013957 0.013894 -0.093781
 72 0.275148 0.189215 -3.445208 3.130898 0.000409 -1.514604
 73 17.210192 -0.000002 0.000002 -0.000000 0.000000 -2.319003
 74 0.000000 -0.000001 -4.999999 -0.079433 1.546568 -1.570857
 75 0.000007 -0.000003 -3.619079 0.260448 -2.945758 -1.468642
 76 16.573919 -0.000000 0.000001 0.000000 0.000000 -1.562392
 77 15.128181 0.000000 0.000001 0.265624 -0.173430 0.666428
 78 5.758665 4.244731 0.000000 -0.000000 0.000000 1.483530
 79 4.003934 -0.000000 0.000000 0.000000 0.000000 0.000000
 80 15.708953 0.000000 0.000000 0.195074 -0.100553 0.460486
 81 0.273998 0.191090 3.439762 -3.130907 -0.000437 -1.508107
 82 17.210194 -0.000000 0.000000 -0.000000 0.000000 -2.116793
 83 0.000000 0.000000 5.000000 -0.079311 1.595025 -1.570737
time 6
  0 0.500000 13.522099 26.931471 -0.243067 0.535714 -2.432935
  1 13.773751 5.584523 -22.520975 -0.544290 0.221328 2.303921
  2 -2.276934 0.000003 -1.238185 -1.570795 -1.570451 0.000000
  3 1.796460 0.711881 -0.000277 0.091577 -0.400833 -0.246632
  4 4.119746 -0.003073 0.000055 -0.016564 0.076423 0.355209
  5 4.119430 -0.003159 -0.000336 0.102834 -0.096830 0.245183
  6 4.117654 -0.003139 0.000010 -0.003441 0.349472 -0.294539
  7 4.118784 -0.002730 -0.002246 0.690528 -0.086898 -0.006296
  8 4.443597 0.000000 -0.000000 0.041994 -0.106799 -0.121253
  9 9.024062 0.000000 -0.000000 0.000000 0.000000 0.000000
 10 0.150379 1.103017 1.330734 0.988411 -1.168107 2.165339
 11 6.384777 0.000001 0.000000 -1.257377 0.191909 -1.699036
 12 10.242681 0.000001 -0.000001 -0.000000 0.000000 -1.588536
 13 11.375561 0.000000 -0.000000 -2.346640 0.299392 0.607761
 14 0.728681 0.023431 -1.008291 1.267228 0.796324 -0.150945
 15 2.136497 0.000000 -0.000002 -0.000000 0.000000 -0.078540
 16 2.313138 0.000000 0.000001 0.000000 0.000000 0.000000
 17 3.115507 -0.886040 -0.021431 -0.328083 -0.231966 0.498583
 18 2.011152 0.000000 0.000000 -0.000000 -0.000000 1.008632
 19 2.141379 0.000000 -0.000000 0.000000 0.000000 0.000000
 20 1.734173 0.000000 0.000001 -0.000000 0.000000 0.503666
 21 0.000005 -4.440594 0.000001 1.570544 -0.062990 -0.195737
 22 6.000000 0.000001 -0.000000 -2.181170 0.000000 0.000000
 23 0.000001 -4.440600 -0.000000 1.569944 -0.062987 0.004053
 24 11.375562 0.000001 0.000003 -1.977504 0.087144 0.342294
 25 -0.000000 -4.440603 0.000001 1.570144 -0.062988 0.004040
 26 10.510130 0.000002 -0.000001 -0.000000 0.000000 -2.365064
 27 -0.000001 -1.748401 5.000000 0.000000 0.004007 1.602291
 28 5.499999 0.000001 -0.000000 0.321303 -0.000000 -0.000000
 29 -0.000003 -1.940598 5.000000 -0.044472 0.004003 -0.000180
 30 6.551491 -0.000001 -0.000002 -0.859850 0.410378 -1.357470
 31 -0.000001 -1.940600 5.000002 -0.027189 -0.053376 0.005295
 32 6.551491 -0.000001 -0.000002 -0.229702 0.275001 -0.433821
 33 0.000001 -1.940599 4.999997 -0.066572 -0.152786 -0.110311
 34 -0.150382 -1.095938 -1.330736 1.693066 1.103077 -1.449850
 35 6.384778 0.000000 -0.000000 0.291062 0.539252 -1.541154
 36 10.242682 0.000000 -0.000001 -0.000000 0.000000 -1.353864
 37 11.375562 -0.000001 -0.000001 2.604682 0.318960 0.880668
 38 0.728680 0.023431 1.008292 -1.579583 -0.319038 0.212973
 39 2.136498 -0.000001 -0.000001 -0.000000 -0.000000 1.282817
 40 2.313139 -0.000000 -0.000000 0.000000 0.000000 3.141593
 41 3.115506 -0.886042 0.021432 0.420766 0.316066 0.167178
 42 2.011151 -0.000000 -0.000002 0.000000 0.000000 2.082010
 43 2.141380 -0.000000 -0.000002 0.000000 0.000000 3.141593
 44 1.734172 -0.000001 0.000001 -0.000000 0.000000 1.041748
 45 0.136315 -3.738193 2.525890 1.493698 2.759406 -1.474501
 46 5.031113 -0.189688 1.849661 -2.967941 -0.035742 1.570790
 47 11.389367 -0.000820 0.158781 2.038253 0.265248 0.386992
 48 0.000000 -4.440598 -0.000000 1.570144 -3.078602 0.004040
 49 6.000000 -0.000000 -0.000003 2.038253 -0.000000 -0.000000
 50 0.000001 -4.440600 -0.000001 1.569944 -3.078603 0.004053
 51 10.510133 -0.000000 0.000000 -0.000000 -0.000000 -2.247728
 52 0.000001 -1.748400 -5.000002 3.141593 0.004007 -1.539299
 53 5.500000 -0.000000 -0.000001 -0.214785 0.000000 0.000000
 54 -0.000000 -0.000000 -4.999999 -0.044472 3.137589 -0.000177
 55 6.551492 0.000001 -0.000000 0.214785 0.096156 -0.451085
 56 -1.266843 -1.937442 -4.950563 -0.066572 -2.988806 -0.110308
 57 6.551492 0.000000 -0.000000 0.214785 0.096156 -0.451085
 58 0.699371 -1.944209 -5.006849 -0.027189 -3.088217 0.005298
 59 4.226147 -0.003201 0.000000 0.345687 -0.048160 0.004991
 60 -0.000000 5.000001 -0.000000 -0.153564 0.000087 2.718702
 61 0.000006 -0.000004 -3.713579 0.119535 -2.936655 -0.885276
 62 0.000003 0.000000 5.000000 3.053195 1.558589 -0.074929
 63 -0.000005 0.000006 3.713580 -0.311487 -2.845558 -0.582080
 64 0.000001 0.000000 -5.000000 -0.088726 1.558589 3.066335
 65 7.363603 1.646648 0.495664 -3.141593 -1.570796 0.000000
 66 -0.000005 0.000007 3.619082 -0.441735 -2.434423 -1.159240
 67 16.573917 -0.000001 0.000001 -0.000000 -0.000000 -2.011748
 68 15.128180 0.000001 0.000001 0.026832 0.026147 -0.175154
 69 5.758666 4.244731 0.000000 0.000000 -0.000000 2.033309
 70 3.177727 0.000000 0.000000 0.000000 0.000000 3.141593
 71 15.708951 0.000002 0.000001 0.013957 0.013894 -0.093781
 72 0.275148 0.189215 -3.445208 3.130898 0.000409 -1.514604
 73 17.210192 -0.000002 0.000002 -0.000000 0.000000 -2.319003
 74 0.000000 -0.000001 -4.999999 -0.079433 1.546568 -1.570857
 75 0.000007 -0.000003 -3.619079 0.260448 -2.945758 -1.468642
 76 16.573919 -0.000000 0.000001 0.000000 0.000000 -1.562392
 77 15.128181 0.000000 0.000001 0.265624 -0.173430 0.666428
 78 5.758665 4.244731 0.000000 -0.000000 0.000000 1.483530
 79 4.003934 -0.000000 0.000000 0.000000 0.000000 0.000000
 80 15.708953 0.000000 0.000000 0.195074 -0.100553 0.460486
 81 0.273998 0.191090 3.439762 -3.130907 -0.000437 -1.508107
 82 17.210194 -0.000000 0.000000 -0.000000 0.000000 -2.116793
 83 0.000000 0.000000 5.000000 -0.079311 1.595025 -1.570737
end
