version 1
nodes
  0 "Bip01"  -1
  1 "Bip01 Footsteps"   0
  2 "Bip01 Pelvis"   0
  3 "Bip01 Spine"   2
  4 "Bip01 Spine1"   3
  5 "Bip01 Spine2"   4
  6 "Bip01 Spine3"   5
  7 "Bip01 Neck"   6
  8 "Bip01 Head"   7
  9 "Dummy21"   8
 10 "Bip01 L Clavicle"   7
 11 "Bip01 L UpperArm"  10
 12 "Bip01 L Forearm"  11
 13 "Bip01 L Hand"  12
 14 "Bip01 L Finger0"  13
 15 "Bip01 L Finger01"  14
 16 "Dummy06"  15
 17 "Bip01 L Finger1"  13
 18 "Bip01 L Finger11"  17
 19 "Dummy03"  18
 20 "-- L knuckle"  17
 21 "-- L knuckle_end"  20
 22 "-- L Forearm twist"  12
 23 "-- L Forearm twist_end"  22
 24 "-- L wrist"  12
 25 "-- L wrist_end"  24
 26 "-- L Elbow"  11
 27 "--L Elbow_end"  26
 28 "-- L bicep twist"  11
 29 "-- L bicep twist_end"  28
 30 "-- L shoulder outside"  10
 31 "-- L shoulder outside_end"  30
 32 "-- L Shoulder inside"  10
 33 "-- L Shoulder inside_end"  32
 34 "Bip01 R Clavicle"   7
 35 "Bip01 R UpperArm"  34
 36 "Bip01 R Forearm"  35
 37 "Bip01 R Hand"  36
 38 "Bip01 R Finger0"  37
 39 "Bip01 R Finger01"  38
 40 "Dummy01"  39
 41 "Bip01 R Finger1"  37
 42 "Bip01 R Finger11"  41
 43 "Dummy02"  42
 44 "-- R knuckle"  41
 45 "Point06"  44
 46 "Beretta Elite"  37
 47 "-- R wrist"  36
 48 "-- R wrist_end"  47
 49 "-- R forearm twist"  36
 50 "-- R forearm twist_end"  49
 51 "-- R Elbow"  35
 52 "--R Elbow_end"  51
 53 "-- R bicep twist"  35
 54 "-- R bicep twist_end"  53
 55 "-- R Shoulder inside"  34
 56 "-- R Shoulder inside_end"  55
 57 "-- R shoulder outside"  34
 58 "-- R shoulder outside_end"  57
 59 "-- Neck smooth"   6
 60 "-- neck smooth end"  59
 61 "-- R Butt"   2
 62 "--R Butt_end"  61
 63 "-- L butt"   2
 64 "--L butt_end"  63
 65 "GIGN01"   2
 66 "Bip01 L Thigh"   2
 67 "Bip01 L Calf"  66
 68 "Bip01 L Foot"  67
 69 "Bip01 L Toe0"  68
 70 "Dummy16"  69
 71 "-- L ankle"  67
 72 "-- L ankleend"  71
 73 "-- L Knee"  66
 74 "--L Knee_end"  73
 75 "Bip01 R Thigh"   2
 76 "Bip01 R Calf"  75
 77 "Bip01 R Foot"  76
 78 "Bip01 R Toe0"  77
 79 "Dummy11"  78
 80 "-- R Ankle"  76
 81 "-- R ankleend"  80
 82 "-- R Knee"  75
 83 "--R Knee_end"  82
end
skeleton
time 0
  0 0.500000 13.522099 26.931471 -0.243067 0.535714 -2.432935
  1 13.773751 5.584523 -22.520975 -0.544290 0.221328 2.303921
  2 -2.276934 0.000003 -1.238185 -1.570795 -1.570451 0.000000
  3 1.796892 0.711818 -0.000280 0.094535 -0.450937 -0.118347
  4 4.120100 -0.002916 -0.000152 0.046228 0.035623 0.475766
  5 4.119816 -0.003013 -0.000467 0.144524 -0.150476 0.361294
  6 4.117965 -0.003202 -0.000291 0.093081 0.305072 -0.168765
  7 4.118316 -0.002702 -0.002266 0.695065 -0.002462 -0.107720
  8 4.443598 -0.000000 0.000000 -0.191062 -0.332016 0.080613
  9 9.024059 0.000001 -0.000000 0.000000 0.000000 0.000000
 10 0.004269 1.113224 1.330751 0.988045 -1.167996 2.297544
 11 6.384776 -0.000002 -0.000000 -0.814891 0.266185 -1.504899
 12 10.242680 0.000000 -0.000001 -0.000000 0.000000 -1.429425
 13 11.375561 -0.000001 -0.000001 -1.764958 -0.030159 0.037556
 14 0.728680 0.023431 -1.008293 1.267228 0.796324 -0.150945
 15 2.136498 -0.000001 -0.000000 0.000000 -0.000000 -0.078540
 16 2.313138 0.000001 0.000000 0.000000 0.000000 0.000000
 17 3.115506 -0.886040 -0.021431 -0.328083 -0.231966 0.498583
 18 2.011151 -0.000001 0.000000 0.000000 0.000000 1.008632
 19 2.141380 0.000000 0.000000 0.000000 0.000000 0.000000
 20 1.734172 0.000000 0.000000 -0.000000 -0.000000 0.503666
 21 0.000005 -4.440595 -0.000000 1.570544 -0.062990 -0.195737
 22 6.000000 -0.000001 -0.000001 -1.716835 -0.000000 -0.000000
 23 0.000001 -4.440600 -0.000001 1.569944 -0.062987 0.004053
 24 11.375561 -0.000001 0.000002 -1.667972 -0.018090 0.021084
 25 -0.000001 -4.440602 0.000000 1.570144 -0.062988 0.004040
 26 10.510129 -0.000000 -0.000001 0.000000 0.000000 -2.285509
 27 -0.000000 -1.748400 4.999999 0.000000 0.004007 1.602290
 28 5.499997 -0.000000 -0.000001 0.218783 -0.000000 0.000000
 29 -0.000003 -1.940598 5.000000 -0.044472 0.004003 -0.000180
 30 6.551491 -0.000002 -0.000000 -0.500376 0.354381 -0.992325
 31 0.000002 -1.940599 5.000000 -0.027189 -0.053376 0.005295
 32 6.551491 -0.000002 -0.000000 -0.167730 0.210925 -0.398359
 33 -0.000000 -1.940598 4.999995 -0.066572 -0.152786 -0.110311
 34 -0.004266 -1.106150 -1.330750 1.633994 0.896536 -1.353172
 35 6.384777 0.000000 -0.000000 0.303072 0.206863 -1.539424
 36 10.242682 0.000000 -0.000001 0.000000 0.000000 -1.465713
 37 11.375560 0.000000 -0.000003 2.631160 0.356319 0.813654
 38 0.728681 0.023431 1.008293 -1.579583 -0.319038 0.212973
 39 2.136496 0.000001 0.000000 -0.000000 -0.000000 1.282817
 40 2.313138 -0.000001 0.000000 0.000000 0.000000 3.141593
 41 3.115506 -0.886041 0.021432 0.420766 0.316066 0.167178
 42 2.011151 0.000000 0.000000 -0.000000 0.000000 2.082010
 43 2.141379 -0.000000 -0.000000 0.000000 0.000000 3.141593
 44 1.734172 -0.000001 0.000000 0.000000 0.000000 1.041748
 45 0.136315 -3.738193 2.525891 1.493698 2.759406 -1.474501
 46 5.031114 -0.189688 1.849664 -2.967941 -0.035742 1.570790
 47 11.389366 -0.000820 0.158778 2.049908 0.279647 0.347353
 48 0.000001 -4.440599 0.000000 1.570144 -3.078602 0.004040
 49 6.000000 0.000001 -0.000002 2.049908 -0.000000 -0.000000
 50 0.000002 -4.440601 -0.000000 1.569944 -3.078603 0.004053
 51 10.510132 -0.000000 -0.000000 -0.000000 0.000000 -2.303653
 52 0.000000 -1.748400 -5.000001 3.141593 0.004007 -1.539299
 53 5.500000 -0.000000 -0.000001 -0.167882 0.000000 -0.000000
 54 -0.000001 -0.000000 -5.000000 -0.044472 3.137589 -0.000177
 55 6.551491 -0.000000 -0.000000 0.167882 -0.000481 -0.458364
 56 -1.266844 -1.937441 -4.950559 -0.066572 -2.988806 -0.110308
 57 6.551491 -0.000000 0.000000 0.167882 -0.000481 -0.458364
 58 0.699371 -1.944207 -5.006845 -0.027189 -3.088217 0.005298
 59 4.226145 -0.003202 -0.000000 0.348270 -0.012094 -0.061389
 60 0.000000 4.999999 -0.000000 -0.153564 0.000087 2.718702
 61 0.000006 -0.000004 -3.713579 0.119535 -2.936655 -0.885276
 62 0.000003 0.000000 5.000000 3.053195 1.558589 -0.074929
 63 -0.000005 0.000006 3.713580 -0.311487 -2.845558 -0.582080
 64 0.000001 0.000000 -5.000000 -0.088726 1.558589 3.066335
 65 7.363603 1.646648 0.495664 -3.141593 -1.570796 0.000000
 66 -0.000005 0.000007 3.619082 -0.441735 -2.434423 -1.159240
 67 16.573917 -0.000000 0.000001 -0.000000 -0.000000 -2.011748
 68 15.128181 0.000000 -0.000000 0.026832 0.026147 -0.175154
 69 5.758666 4.244731 0.000000 0.000000 -0.000000 2.033309
 70 3.177727 0.000000 0.000000 0.000000 0.000000 3.141593
 71 15.708951 0.000002 -0.000000 0.013957 0.013894 -0.093781
 72 0.275148 0.189215 -3.445208 3.130898 0.000409 -1.514604
 73 17.210192 -0.000001 0.000002 -0.000000 0.000000 -2.319003
 74 0.000000 -0.000001 -5.000000 -0.079433 1.546568 -1.570857
 75 0.000007 -0.000003 -3.619079 0.260448 -2.945758 -1.468642
 76 16.573919 -0.000000 0.000001 0.000000 0.000000 -1.562392
 77 15.128181 0.000000 0.000001 0.265624 -0.173430 0.666428
 78 5.758665 4.244731 0.000000 -0.000000 0.000000 1.483530
 79 4.003934 -0.000000 0.000000 0.000000 0.000000 0.000000
 80 15.708953 0.000000 0.000000 0.195074 -0.100553 0.460486
 81 0.273998 0.191090 3.439762 -3.130907 -0.000437 -1.508107
 82 17.210194 -0.000000 0.000000 -0.000000 0.000000 -2.116793
 83 0.000000 0.000000 5.000000 -0.079311 1.595025 -1.570737
time 1
  0 0.500000 13.522099 26.931471 -0.243067 0.535714 -2.432935
  1 13.773751 5.584523 -22.520975 -0.544290 0.221328 2.303921
  2 -2.276934 0.000003 -1.238185 -1.570795 -1.570451 0.000000
  3 1.796922 0.711814 -0.000267 0.089855 -0.451830 -0.107617
  4 4.120127 -0.002901 -0.000153 0.046571 0.035173 0.485458
  5 4.119845 -0.003000 -0.000462 0.143062 -0.151866 0.371001
  6 4.117993 -0.003206 -0.000299 0.096116 0.304156 -0.158646
  7 4.118489 -0.002717 -0.002263 0.694389 -0.033784 -0.070238
  8 4.443599 0.000001 -0.000001 -0.204138 -0.350600 0.058179
  9 9.024061 0.000000 0.000000 0.000000 0.000000 0.000000
 10 0.058528 1.111697 1.330744 0.988180 -1.168037 2.248580
 11 6.384777 0.000000 -0.000000 -0.832305 0.240694 -1.513262
 12 10.242685 -0.000000 -0.000001 0.000000 0.000000 -1.379377
 13 11.375561 -0.000001 -0.000000 -1.838718 -0.060758 0.090504
 14 0.728681 0.023431 -1.008291 1.267228 0.796324 -0.150945
 15 2.136497 0.000001 0.000000 0.000000 -0.000000 -0.078540
 16 2.313140 -0.000001 0.000000 0.000000 0.000000 0.000000
 17 3.115506 -0.886041 -0.021431 -0.328083 -0.231966 0.498583
 18 2.011151 -0.000001 0.000000 -0.000000 0.000000 1.008632
 19 2.141380 0.000001 -0.000000 0.000000 0.000000 0.000000
 20 1.734172 0.000001 -0.000001 -0.000000 0.000000 0.503666
 21 0.000006 -4.440594 0.000001 1.570544 -0.062990 -0.195737
 22 6.000000 0.000000 0.000000 -1.772397 0.000000 0.000000
 23 0.000002 -4.440601 -0.000000 1.569944 -0.062987 0.004053
 24 11.375561 -0.000000 0.000003 -1.704457 -0.037675 0.050244
 25 -0.000001 -4.440603 -0.000001 1.570144 -0.062988 0.004040
 26 10.510131 -0.000000 -0.000002 -0.000000 -0.000000 -2.260485
 27 0.000001 -1.748402 5.000000 -0.000000 0.004007 1.602290
 28 5.500000 0.000000 -0.000000 0.229765 -0.000000 -0.000000
 29 -0.000000 -1.940598 5.000000 -0.044472 0.004003 -0.000180
 30 6.551492 0.000003 0.000000 -0.519575 0.337186 -1.008759
 31 -0.000001 -1.940598 5.000001 -0.027189 -0.053376 0.005295
 32 6.551492 0.000003 0.000000 -0.176428 0.205887 -0.403659
 33 0.000000 -1.940600 4.999996 -0.066572 -0.152786 -0.110311
 34 -0.058525 -1.104622 -1.330744 1.653056 0.976184 -1.392316
 35 6.384777 0.000000 -0.000001 0.305569 0.257960 -1.487595
 36 10.242683 0.000001 0.000001 -0.000000 -0.000000 -1.421632
 37 11.375560 -0.000001 -0.000001 2.625804 0.202041 0.803239
 38 0.728681 0.023431 1.008293 -1.579583 -0.319038 0.212973
 39 2.136495 0.000000 0.000000 -0.000000 0.000000 1.282817
 40 2.313140 0.000000 0.000000 0.000000 0.000000 3.141593
 41 3.115507 -0.886041 0.021431 0.420765 0.316066 0.167178
 42 2.011150 -0.000000 0.000000 -0.000000 0.000000 2.082010
 43 2.141380 -0.000000 -0.000000 0.000000 0.000000 3.141593
 44 1.734171 -0.000001 -0.000000 -0.000000 0.000000 1.041748
 45 0.136315 -3.738192 2.525891 1.493698 2.759406 -1.474501
 46 5.031113 -0.189688 1.849663 -2.967941 -0.035742 1.570790
 47 11.389366 -0.000820 0.158781 2.071333 0.205708 0.372970
 48 -0.000000 -4.440599 0.000001 1.570144 -3.078602 0.004040
 49 5.999999 -0.000000 -0.000001 2.071333 -0.000000 -0.000000
 50 0.000001 -4.440601 -0.000002 1.569944 -3.078603 0.004053
 51 10.510133 0.000001 0.000002 0.000000 0.000000 -2.281613
 52 0.000000 -1.748399 -5.000001 -3.141593 0.004007 -1.539299
 53 5.500001 0.000001 0.000001 -0.178244 0.000000 -0.000000
 54 0.000000 -0.000001 -4.999999 -0.044472 3.137589 -0.000177
 55 6.551491 0.000001 -0.000001 0.178244 0.013895 -0.433851
 56 -1.266844 -1.937442 -4.950561 -0.066572 -2.988806 -0.110308
 57 6.551491 0.000001 -0.000000 0.178244 0.013895 -0.433851
 58 0.699370 -1.944207 -5.006847 -0.027189 -3.088217 0.005298
 59 4.226146 -0.003200 0.000000 0.347783 -0.025480 -0.036937
 60 -0.000000 5.000000 -0.000000 -0.153564 0.000087 2.718702
 61 0.000006 -0.000004 -3.713579 0.119535 -2.936655 -0.885276
 62 0.000003 0.000000 5.000000 3.053195 1.558589 -0.074929
 63 -0.000005 0.000006 3.713580 -0.311487 -2.845558 -0.582080
 64 0.000001 0.000000 -5.000000 -0.088726 1.558589 3.066335
 65 7.363603 1.646648 0.495664 -3.141593 -1.570796 0.000000
 66 -0.000005 0.000007 3.619082 -0.441735 -2.434423 -1.159240
 67 16.573917 -0.000000 0.000001 -0.000000 -0.000000 -2.011748
 68 15.128181 0.000000 -0.000000 0.026832 0.026147 -0.175154
 69 5.758666 4.244731 0.000000 0.000000 -0.000000 2.033309
 70 3.177727 0.000000 0.000000 0.000000 0.000000 3.141593
 71 15.708951 0.000002 -0.000000 0.013957 0.013894 -0.093781
 72 0.275148 0.189215 -3.445208 3.130898 0.000409 -1.514604
 73 17.210192 -0.000001 0.000002 -0.000000 0.000000 -2.319003
 74 0.000000 -0.000001 -5.000000 -0.079433 1.546568 -1.570857
 75 0.000007 -0.000003 -3.619079 0.260448 -2.945758 -1.468642
 76 16.573919 -0.000000 0.000001 0.000000 0.000000 -1.562392
 77 15.128181 0.000000 0.000001 0.265624 -0.173430 0.666428
 78 5.758665 4.244731 0.000000 -0.000000 0.000000 1.483530
 79 4.003934 -0.000000 0.000000 0.000000 0.000000 0.000000
 80 15.708953 0.000000 0.000000 0.195074 -0.100553 0.460486
 81 0.273998 0.191090 3.439762 -3.130907 -0.000437 -1.508107
 82 17.210194 -0.000000 0.000000 -0.000000 0.000000 -2.116793
 83 0.000000 0.000000 5.000000 -0.079311 1.595025 -1.570737
time 2
  0 0.500000 13.522099 26.931471 -0.243067 0.535714 -2.432935
  1 13.773751 5.584523 -22.520975 -0.544290 0.221328 2.303921
  2 -2.276934 0.000003 -1.238185 -1.570795 -1.570451 0.000000
  3 1.796951 0.711810 -0.000253 0.085162 -0.452678 -0.096878
  4 4.120155 -0.002885 -0.000155 0.046910 0.034720 0.495150
  5 4.119874 -0.002986 -0.000456 0.141586 -0.153241 0.380712
  6 4.118024 -0.003216 -0.000311 0.099140 0.303211 -0.148533
  7 4.118660 -0.002726 -0.002254 0.692532 -0.065058 -0.032676
  8 4.443599 -0.000001 0.000000 -0.219088 -0.368631 0.036205
  9 9.024061 0.000000 -0.000000 0.000000 0.000000 0.000000
 10 0.112650 1.107516 1.330738 0.988316 -1.168078 2.199614
 11 6.384777 0.000001 0.000000 -0.849399 0.216971 -1.519725
 12 10.242682 -0.000000 -0.000001 -0.000000 -0.000000 -1.339445
 13 11.375561 -0.000001 0.000000 -1.912876 -0.081549 0.152987
 14 0.728681 0.023431 -1.008291 1.267228 0.796324 -0.150945
 15 2.136497 -0.000001 -0.000000 0.000000 -0.000000 -0.078540
 16 2.313140 -0.000001 -0.000000 0.000000 0.000000 0.000000
 17 3.115505 -0.886040 -0.021430 -0.328083 -0.231966 0.498583
 18 2.011151 -0.000001 -0.000000 -0.000000 0.000000 1.008632
 19 2.141380 0.000000 -0.000000 0.000000 0.000000 0.000000
 20 1.734172 0.000001 0.000000 0.000000 -0.000000 0.503666
 21 0.000006 -4.440593 -0.000000 1.570544 -0.062990 -0.195737
 22 6.000000 -0.000000 0.000001 -1.828366 -0.000000 -0.000000
 23 0.000002 -4.440601 -0.000002 1.569944 -0.062987 0.004053
 24 11.375561 -0.000000 0.000004 -1.740816 -0.053049 0.084174
 25 -0.000001 -4.440603 -0.000001 1.570144 -0.062988 0.004040
 26 10.510130 -0.000001 -0.000002 0.000000 -0.000000 -2.240519
 27 0.000000 -1.748400 4.999999 -0.000000 0.004007 1.602290
 28 5.499998 -0.000000 -0.000001 0.240118 0.000000 -0.000000
 29 -0.000003 -1.940598 5.000000 -0.044472 0.004003 -0.000180
 30 6.551492 0.000000 -0.000000 -0.537330 0.320366 -1.022583
 31 -0.000000 -1.940597 5.000002 -0.027189 -0.053376 0.005295
 32 6.551492 0.000000 -0.000000 -0.184646 0.200914 -0.408076
 33 -0.000000 -1.940600 4.999996 -0.066572 -0.152786 -0.110311
 34 -0.112645 -1.100441 -1.330738 1.675994 1.054763 -1.427258
 35 6.384777 -0.000001 0.000001 0.304819 0.308771 -1.437593
 36 10.242682 -0.000000 0.000001 -0.000000 0.000000 -1.378068
 37 11.375560 -0.000001 -0.000001 2.622188 0.049744 0.793828
 38 0.728681 0.023431 1.008292 -1.579583 -0.319038 0.212973
 39 2.136496 0.000001 -0.000000 0.000000 0.000000 1.282817
 40 2.313141 -0.000000 -0.000000 0.000000 0.000000 3.141593
 41 3.115507 -0.886041 0.021431 0.420766 0.316066 0.167178
 42 2.011150 0.000000 -0.000000 -0.000000 0.000000 2.082010
 43 2.141379 -0.000001 0.000000 0.000000 0.000000 3.141593
 44 1.734172 -0.000001 -0.000000 0.000000 -0.000000 1.041748
 45 0.136315 -3.738193 2.525889 1.493698 2.759406 -1.474501
 46 5.031113 -0.189688 1.849662 -2.967941 -0.035742 1.570790
 47 11.389366 -0.000820 0.158780 2.089298 0.131531 0.394487
 48 0.000001 -4.440599 0.000001 1.570144 -3.078602 0.004040
 49 6.000000 0.000000 -0.000001 2.089298 0.000000 0.000000
 50 0.000003 -4.440601 -0.000002 1.569944 -3.078603 0.004053
 51 10.510132 -0.000000 0.000002 -0.000000 -0.000000 -2.259830
 52 0.000002 -1.748401 -5.000002 -3.141593 0.004007 -1.539299
 53 5.500000 -0.000000 0.000001 -0.184372 -0.000000 -0.000000
 54 0.000001 0.000000 -4.999999 -0.044472 3.137589 -0.000177
 55 6.551492 0.000000 0.000000 0.184372 0.027935 -0.411101
 56 -1.266843 -1.937444 -4.950560 -0.066572 -2.988806 -0.110308
 57 6.551492 0.000000 0.000000 0.184372 0.027935 -0.411101
 58 0.699371 -1.944208 -5.006847 -0.027189 -3.088217 0.005298
 59 4.226146 -0.003201 0.000000 0.346744 -0.038850 -0.012297
 60 0.000000 5.000002 -0.000000 -0.153564 0.000087 2.718702
 61 0.000006 -0.000004 -3.713579 0.119535 -2.936655 -0.885276
 62 0.000003 0.000000 5.000000 3.053195 1.558589 -0.074929
 63 -0.000005 0.000006 3.713580 -0.311487 -2.845558 -0.582080
 64 0.000001 0.000000 -5.000000 -0.088726 1.558589 3.066335
 65 7.363603 1.646648 0.495664 -3.141593 -1.570796 0.000000
 66 -0.000005 0.000007 3.619082 -0.441735 -2.434423 -1.159240
 67 16.573917 -0.000000 0.000001 -0.000000 -0.000000 -2.011748
 68 15.128181 0.000000 -0.000000 0.026832 0.026147 -0.175154
 69 5.758666 4.244731 0.000000 0.000000 -0.000000 2.033309
 70 3.177727 0.000000 0.000000 0.000000 0.000000 3.141593
 71 15.708951 0.000002 -0.000000 0.013957 0.013894 -0.093781
 72 0.275148 0.189215 -3.445208 3.130898 0.000409 -1.514604
 73 17.210192 -0.000001 0.000002 -0.000000 0.000000 -2.319003
 74 0.000000 -0.000001 -5.000000 -0.079433 1.546568 -1.570857
 75 0.000007 -0.000003 -3.619079 0.260448 -2.945758 -1.468642
 76 16.573919 -0.000000 0.000001 0.000000 0.000000 -1.562392
 77 15.128181 0.000000 0.000001 0.265624 -0.173430 0.666428
 78 5.758665 4.244731 0.000000 -0.000000 0.000000 1.483530
 79 4.003934 -0.000000 0.000000 0.000000 0.000000 0.000000
 80 15.708953 0.000000 0.000000 0.195074 -0.100553 0.460486
 81 0.273998 0.191090 3.439762 -3.130907 -0.000437 -1.508107
 82 17.210194 -0.000000 0.000000 -0.000000 0.000000 -2.116793
 83 0.000000 0.000000 5.000000 -0.079311 1.595025 -1.570737
time 3
  0 0.500000 13.522099 26.931471 -0.243067 0.535714 -2.432935
  1 13.773751 5.584523 -22.520975 -0.544290 0.221328 2.303921
  2 -2.276934 0.000003 -1.238185 -1.570795 -1.570451 0.000000
  3 1.796969 0.711810 -0.000243 0.081870 -0.453244 -0.089356
  4 4.120175 -0.002876 -0.000154 0.047144 0.034401 0.501934
  5 4.119895 -0.002980 -0.000454 0.140545 -0.154195 0.387512
  6 4.118044 -0.003219 -0.000317 0.101250 0.302532 -0.141458
  7 4.118781 -0.002729 -0.002246 0.690528 -0.086898 -0.006296
  8 4.443599 -0.000001 0.000001 -0.230663 -0.380861 0.021106
  9 9.024060 -0.000001 -0.000000 0.000000 0.000000 0.000000
 10 0.150382 1.103017 1.330735 0.988411 -1.168107 2.165339
 11 6.384776 0.000001 0.000000 -0.861759 0.200892 -1.522642
 12 10.242683 0.000000 -0.000001 -0.000000 -0.000000 -1.320744
 13 11.375562 -0.000001 -0.000001 -1.954606 -0.091139 0.193074
 14 0.728680 0.023431 -1.008292 1.267228 0.796324 -0.150945
 15 2.136496 0.000000 0.000000 -0.000000 -0.000000 -0.078540
 16 2.313140 -0.000001 0.000000 0.000000 0.000000 0.000000
 17 3.115507 -0.886041 -0.021431 -0.328083 -0.231966 0.498583
 18 2.011150 0.000001 -0.000001 -0.000000 0.000000 1.008632
 19 2.141379 -0.000001 0.000001 0.000000 0.000000 0.000000
 20 1.734172 0.000001 -0.000001 -0.000000 -0.000000 0.503666
 21 0.000006 -4.440593 -0.000000 1.570544 -0.062990 -0.195737
 22 5.999999 -0.000000 -0.000000 -1.859926 -0.000000 -0.000000
 23 0.000001 -4.440600 0.000001 1.569944 -0.062987 0.004053
 24 11.375560 0.000000 0.000002 -1.761114 -0.061193 0.105571
 25 -0.000001 -4.440603 -0.000001 1.570144 -0.062988 0.004040
 26 10.510133 -0.000000 -0.000002 0.000000 0.000000 -2.231168
 27 -0.000001 -1.748401 4.999999 -0.000000 0.004007 1.602290
 28 5.500002 -0.000000 -0.000001 0.247290 -0.000000 0.000000
 29 -0.000002 -1.940598 5.000000 -0.044472 0.004003 -0.000180
 30 6.551491 0.000003 0.000000 -0.549188 0.308306 -1.029992
 31 -0.000002 -1.940597 5.000001 -0.027189 -0.053376 0.005295
 32 6.551491 0.000003 0.000000 -0.190388 0.197269 -0.410486
 33 -0.000000 -1.940600 4.999995 -0.066572 -0.152786 -0.110311
 34 -0.150379 -1.095941 -1.330734 1.693066 1.103077 -1.449850
 35 6.384776 -0.000003 -0.000000 0.301957 0.343094 -1.407918
 36 10.242682 0.000001 0.000001 0.000000 -0.000000 -1.351228
 37 11.375562 -0.000001 0.000000 2.620797 -0.039062 0.785417
 38 0.728680 0.023431 1.008292 -1.579583 -0.319038 0.212973
 39 2.136496 -0.000001 -0.000000 0.000000 -0.000000 1.282817
 40 2.313139 -0.000001 -0.000000 0.000000 0.000000 3.141593
 41 3.115508 -0.886042 0.021431 0.420765 0.316066 0.167178
 42 2.011151 -0.000000 0.000000 -0.000000 -0.000000 2.082010
 43 2.141379 -0.000000 -0.000001 0.000000 0.000000 3.141593
 44 1.734172 -0.000001 -0.000000 0.000000 0.000000 1.041748
 45 0.136314 -3.738193 2.525890 1.493698 2.759406 -1.474501
 46 5.031114 -0.189688 1.849662 -2.967941 -0.035742 1.570790
 47 11.389367 -0.000821 0.158782 2.098534 0.087496 0.403971
 48 -0.000000 -4.440599 -0.000001 1.570144 -3.078602 0.004040
 49 6.000000 -0.000001 0.000000 2.098534 -0.000000 -0.000000
 50 0.000002 -4.440602 0.000001 1.569944 -3.078603 0.004053
 51 10.510132 0.000000 0.000002 0.000000 -0.000000 -2.246410
 52 0.000001 -1.748400 -5.000001 3.141593 0.004007 -1.539299
 53 5.500001 0.000000 0.000002 -0.186353 -0.000000 0.000000
 54 -0.000002 -0.000001 -5.000000 -0.044472 3.137589 -0.000177
 55 6.551490 -0.000002 -0.000000 0.186353 0.037708 -0.398421
 56 -1.266842 -1.937445 -4.950559 -0.066572 -2.988806 -0.110308
 57 6.551491 -0.000002 -0.000001 0.186353 0.037708 -0.398421
 58 0.699371 -1.944208 -5.006847 -0.027189 -3.088217 0.005298
 59 4.226146 -0.003202 -0.000001 0.345687 -0.048160 0.004991
 60 -0.000000 4.999999 -0.000000 -0.153564 0.000087 2.718702
 61 0.000006 -0.000004 -3.713579 0.119535 -2.936655 -0.885276
 62 0.000003 0.000000 5.000000 3.053195 1.558589 -0.074929
 63 -0.000005 0.000006 3.713580 -0.311487 -2.845558 -0.582080
 64 0.000001 0.000000 -5.000000 -0.088726 1.558589 3.066335
 65 7.363603 1.646648 0.495664 -3.141593 -1.570796 0.000000
 66 -0.000005 0.000007 3.619082 -0.441735 -2.434423 -1.159240
 67 16.573917 -0.000000 0.000001 -0.000000 -0.000000 -2.011748
 68 15.128181 0.000000 -0.000000 0.026832 0.026147 -0.175154
 69 5.758666 4.244731 0.000000 0.000000 -0.000000 2.033309
 70 3.177727 0.000000 0.000000 0.000000 0.000000 3.141593
 71 15.708951 0.000002 -0.000000 0.013957 0.013894 -0.093781
 72 0.275148 0.189215 -3.445208 3.130898 0.000409 -1.514604
 73 17.210192 -0.000001 0.000002 -0.000000 0.000000 -2.319003
 74 0.000000 -0.000001 -5.000000 -0.079433 1.546568 -1.570857
 75 0.000007 -0.000003 -3.619079 0.260448 -2.945758 -1.468642
 76 16.573919 -0.000000 0.000001 0.000000 0.000000 -1.562392
 77 15.128181 0.000000 0.000001 0.265624 -0.173430 0.666428
 78 5.758665 4.244731 0.000000 -0.000000 0.000000 1.483530
 79 4.003934 -0.000000 0.000000 0.000000 0.000000 0.000000
 80 15.708953 0.000000 0.000000 0.195074 -0.100553 0.460486
 81 0.273998 0.191090 3.439762 -3.130907 -0.000437 -1.508107
 82 17.210194 -0.000000 0.000000 -0.000000 0.000000 -2.116793
 83 0.000000 0.000000 5.000000 -0.079311 1.595025 -1.570737
time 4
  0 0.500000 13.522099 26.931471 -0.243067 0.535714 -2.432935
  1 13.773751 5.584523 -22.520975 -0.544290 0.221328 2.303921
  2 -2.276934 0.000003 -1.238185 -1.570795 -1.570451 0.000000
  3 1.796976 0.711808 -0.000241 0.080929 -0.453402 -0.087206
  4 4.120180 -0.002870 -0.000155 0.047210 0.034309 0.503872
  5 4.119900 -0.002976 -0.000453 0.140247 -0.154467 0.389455
  6 4.118051 -0.003217 -0.000318 0.101852 0.302336 -0.139437
  7 4.118815 -0.002731 -0.002243 0.689848 -0.093127 0.001259
  8 4.443598 0.000001 -0.000000 -0.234138 -0.384289 0.016836
  9 9.024060 -0.000000 0.000000 0.000000 0.000000 0.000000
 10 0.161132 1.101493 1.330734 0.988438 -1.168115 2.155545
 11 6.384776 0.000002 0.000001 -0.866972 0.193246 -1.523531
 12 10.242682 -0.000000 -0.000001 -0.000000 -0.000000 -1.314062
 13 11.375561 0.000001 -0.000001 -1.957959 -0.096102 0.198663
 14 0.728680 0.023431 -1.008294 1.267228 0.796324 -0.150945
 15 2.136498 -0.000001 -0.000000 0.000000 -0.000000 -0.078540
 16 2.313139 0.000000 -0.000000 0.000000 0.000000 0.000000
 17 3.115507 -0.886041 -0.021432 -0.328083 -0.231966 0.498583
 18 2.011151 0.000001 0.000001 -0.000000 -0.000000 1.008632
 19 2.141379 -0.000000 0.000001 0.000000 0.000000 0.000000
 20 1.734172 0.000001 0.000001 0.000000 -0.000000 0.503666
 21 0.000006 -4.440594 -0.000000 1.570544 -0.062990 -0.195737
 22 6.000000 0.000000 0.000000 -1.862438 -0.000000 0.000000
 23 0.000001 -4.440601 0.000000 1.569944 -0.062987 0.004053
 24 11.375562 0.000001 0.000002 -1.762620 -0.064286 0.108320
 25 -0.000001 -4.440603 0.000000 1.570144 -0.062988 0.004040
 26 10.510132 -0.000000 -0.000001 -0.000000 0.000000 -2.227827
 27 -0.000001 -1.748402 4.999999 -0.000000 0.004007 1.602290
 28 5.500002 -0.000000 -0.000001 0.250568 -0.000000 0.000000
 29 -0.000001 -1.940598 5.000000 -0.044472 0.004003 -0.000180
 30 6.551490 -0.000001 -0.000001 -0.554355 0.302302 -1.032776
 31 0.000000 -1.940598 5.000000 -0.027189 -0.053376 0.005295
 32 6.551490 -0.000001 -0.000001 -0.193037 0.195372 -0.411465
 33 0.000000 -1.940601 4.999996 -0.066572 -0.152786 -0.110311
 34 -0.161129 -1.094418 -1.330733 1.699080 1.118320 -1.455323
 35 6.384776 -0.000001 0.000000 0.300955 0.353124 -1.398605
 36 10.242682 0.000001 0.000001 0.000000 0.000000 -1.342747
 37 11.375560 -0.000002 -0.000000 2.620831 -0.054615 0.775604
 38 0.728681 0.023431 1.008291 -1.579583 -0.319038 0.212973
 39 2.136496 -0.000001 0.000000 -0.000000 -0.000000 1.282817
 40 2.313139 -0.000001 -0.000000 0.000000 0.000000 3.141593
 41 3.115506 -0.886041 0.021432 0.420766 0.316066 0.167178
 42 2.011152 -0.000001 -0.000001 0.000000 0.000000 2.082010
 43 2.141380 -0.000001 0.000001 0.000000 0.000000 3.141593
 44 1.734172 -0.000001 -0.000001 0.000000 -0.000000 1.041748
 45 0.136315 -3.738194 2.525890 1.493698 2.759406 -1.474501
 46 5.031114 -0.189688 1.849663 -2.967941 -0.035742 1.570790
 47 11.389366 -0.000820 0.158782 2.100144 0.078827 0.401832
 48 -0.000000 -4.440599 0.000000 1.570144 -3.078602 0.004040
 49 6.000000 -0.000001 0.000000 2.100144 0.000000 0.000000
 50 0.000002 -4.440601 0.000000 1.569944 -3.078603 0.004053
 51 10.510132 0.000001 0.000002 0.000000 0.000000 -2.242170
 52 0.000001 -1.748400 -5.000002 -3.141593 0.004007 -1.539299
 53 5.500000 0.000000 0.000001 -0.186572 0.000000 0.000000
 54 -0.000000 -0.000000 -5.000001 -0.044472 3.137589 -0.000177
 55 6.551491 0.000002 -0.000001 0.186572 0.040591 -0.394560
 56 -1.266843 -1.937445 -4.950559 -0.066572 -2.988806 -0.110308
 57 6.551491 0.000002 -0.000001 0.186572 0.040591 -0.394560
 58 0.699370 -1.944208 -5.006846 -0.027189 -3.088217 0.005298
 59 4.226145 -0.003202 -0.000000 0.345335 -0.050809 0.009929
 60 0.000000 5.000001 0.000000 -0.153564 0.000087 2.718702
 61 0.000006 -0.000004 -3.713579 0.119535 -2.936655 -0.885276
 62 0.000003 0.000000 5.000000 3.053195 1.558589 -0.074929
 63 -0.000005 0.000006 3.713580 -0.311487 -2.845558 -0.582080
 64 0.000001 0.000000 -5.000000 -0.088726 1.558589 3.066335
 65 7.363603 1.646648 0.495664 -3.141593 -1.570796 0.000000
 66 -0.000005 0.000007 3.619082 -0.441735 -2.434423 -1.159240
 67 16.573917 -0.000001 0.000001 -0.000000 -0.000000 -2.011748
 68 15.128180 0.000001 0.000001 0.026832 0.026147 -0.175154
 69 5.758666 4.244731 0.000000 0.000000 -0.000000 2.033309
 70 3.177727 0.000000 0.000000 0.000000 0.000000 3.141593
 71 15.708951 0.000002 0.000001 0.013957 0.013894 -0.093781
 72 0.275148 0.189215 -3.445208 3.130898 0.000409 -1.514604
 73 17.210192 -0.000002 0.000002 -0.000000 0.000000 -2.319003
 74 0.000000 -0.000001 -4.999999 -0.079433 1.546568 -1.570857
 75 0.000007 -0.000003 -3.619079 0.260448 -2.945758 -1.468642
 76 16.573919 -0.000000 0.000001 0.000000 0.000000 -1.562392
 77 15.128181 0.000000 0.000001 0.265624 -0.173430 0.666428
 78 5.758665 4.244731 0.000000 -0.000000 0.000000 1.483530
 79 4.003934 -0.000000 0.000000 0.000000 0.000000 0.000000
 80 15.708953 0.000000 0.000000 0.195074 -0.100553 0.460486
 81 0.273998 0.191090 3.439762 -3.130907 -0.000437 -1.508107
 82 17.210194 -0.000000 0.000000 -0.000000 0.000000 -2.116793
 83 0.000000 0.000000 5.000000 -0.079311 1.595025 -1.570737
time 5
  0 0.500000 13.522099 26.931471 -0.243067 0.535714 -2.432935
  1 13.773751 5.584523 -22.520975 -0.544290 0.221328 2.303921
  2 -2.276934 0.000003 -1.238185 -1.570795 -1.570451 0.000000
  3 1.796973 0.711808 -0.000242 0.081399 -0.453324 -0.088281
  4 4.120177 -0.002874 -0.000154 0.047177 0.034355 0.502903
  5 4.119898 -0.002980 -0.000454 0.140396 -0.154331 0.388483
  6 4.118048 -0.003215 -0.000316 0.101551 0.302434 -0.140447
  7 4.118798 -0.002731 -0.002245 0.690194 -0.090013 -0.002520
  8 4.443598 0.000000 0.000000 -0.232391 -0.382578 0.018969
  9 9.024061 0.000001 0.000000 0.000000 0.000000 0.000000
 10 0.155759 1.102268 1.330735 0.988424 -1.168111 2.160442
 11 6.384777 -0.000001 0.000000 -0.867771 0.190569 -1.523513
 12 10.242681 0.000000 -0.000000 -0.000000 0.000000 -1.314857
 13 11.375563 0.000001 -0.000001 -1.935250 -0.099126 0.179219
 14 0.728681 0.023431 -1.008291 1.267228 0.796324 -0.150945
 15 2.136497 -0.000000 0.000000 -0.000000 -0.000000 -0.078540
 16 2.313138 -0.000000 -0.000001 0.000000 0.000000 0.000000
 17 3.115507 -0.886041 -0.021431 -0.328083 -0.231966 0.498583
 18 2.011151 -0.000000 0.000000 -0.000000 0.000000 1.008632
 19 2.141379 0.000001 -0.000000 0.000000 0.000000 0.000000
 20 1.734172 0.000000 -0.000000 -0.000000 -0.000000 0.503666
 21 0.000006 -4.440594 -0.000000 1.570544 -0.062990 -0.195737
 22 6.000000 -0.000001 -0.000001 -1.845215 -0.000000 0.000000
 23 0.000001 -4.440600 -0.000001 1.569944 -0.062987 0.004053
 24 11.375562 -0.000001 0.000002 -1.751413 -0.064469 0.097624
 25 -0.000001 -4.440603 -0.000000 1.570144 -0.062988 0.004040
 26 10.510130 -0.000000 -0.000001 -0.000000 -0.000000 -2.228225
 27 0.000002 -1.748401 4.999998 -0.000000 0.004007 1.602290
 28 5.500000 -0.000000 -0.000000 0.251510 -0.000000 -0.000000
 29 -0.000001 -1.940598 5.000000 -0.044472 0.004003 -0.000180
 30 6.551492 0.000002 0.000001 -0.555587 0.300010 -1.033228
 31 0.000000 -1.940598 5.000001 -0.027189 -0.053376 0.005295
 32 6.551492 0.000002 0.000001 -0.193824 0.194559 -0.411727
 33 0.000000 -1.940598 4.999996 -0.066572 -0.152786 -0.110311
 34 -0.155756 -1.095188 -1.330735 1.696031 1.110700 -1.452628
 35 6.384777 0.000001 0.000000 0.301473 0.348110 -1.403252
 36 10.242682 0.000001 0.000001 -0.000000 -0.000000 -1.346987
 37 11.375561 -0.000001 -0.000001 2.621181 -0.020329 0.765333
 38 0.728681 0.023431 1.008293 -1.579583 -0.319038 0.212973
 39 2.136496 0.000000 0.000000 -0.000000 -0.000000 1.282817
 40 2.313138 -0.000000 -0.000000 0.000000 0.000000 3.141593
 41 3.115506 -0.886041 0.021432 0.420765 0.316066 0.167178
 42 2.011151 -0.000001 -0.000002 -0.000000 0.000000 2.082010
 43 2.141380 0.000000 0.000001 0.000000 0.000000 3.141593
 44 1.734172 -0.000001 -0.000001 0.000000 0.000000 1.041748
 45 0.136315 -3.738193 2.525890 1.493698 2.759406 -1.474501
 46 5.031113 -0.189687 1.849663 -2.967941 -0.035742 1.570790
 47 11.389366 -0.000820 0.158781 2.096809 0.094396 0.392434
 48 -0.000000 -4.440598 -0.000000 1.570144 -3.078602 0.004040
 49 6.000000 -0.000001 -0.000001 2.096809 -0.000000 -0.000000
 50 0.000001 -4.440601 -0.000001 1.569944 -3.078603 0.004053
 51 10.510132 0.000001 0.000001 -0.000000 -0.000000 -2.244290
 52 0.000000 -1.748400 -5.000001 3.141593 0.004007 -1.539299
 53 5.500001 0.000001 0.000001 -0.186482 0.000000 -0.000000
 54 0.000001 -0.000000 -4.999999 -0.044472 3.137589 -0.000177
 55 6.551491 0.000000 -0.000000 0.186482 0.039146 -0.396479
 56 -1.266843 -1.937443 -4.950559 -0.066572 -2.988806 -0.110308
 57 6.551492 0.000000 -0.000000 0.186482 0.039146 -0.396479
 58 0.699371 -1.944206 -5.006847 -0.027189 -3.088217 0.005298
 59 4.226145 -0.003200 -0.000000 0.345514 -0.049486 0.007461
 60 0.000000 5.000001 -0.000000 -0.153564 0.000087 2.718702
 61 0.000006 -0.000004 -3.713579 0.119535 -2.936655 -0.885276
 62 0.000003 0.000000 5.000000 3.053195 1.558589 -0.074929
 63 -0.000005 0.000006 3.713580 -0.311487 -2.845558 -0.582080
 64 0.000001 0.000000 -5.000000 -0.088726 1.558589 3.066335
 65 7.363603 1.646648 0.495664 -3.141593 -1.570796 0.000000
 66 -0.000005 0.000007 3.619082 -0.441735 -2.434423 -1.159240
 67 16.573917 -0.000001 0.000001 -0.000000 -0.000000 -2.011748
 68 15.128180 0.000001 0.000001 0.026832 0.026147 -0.175154
 69 5.758666 4.244731 0.000000 0.000000 -0.000000 2.033309
 70 3.177727 0.000000 0.000000 0.000000 0.000000 3.141593
 71 15.708951 0.000002 0.000001 0.013957 0.013894 -0.093781
 72 0.275148 0.189215 -3.445208 3.130898 0.000409 -1.514604
 73 17.210192 -0.000002 0.000002 -0.000000 0.000000 -2.319003
 74 0.000000 -0.000001 -4.999999 -0.079433 1.546568 -1.570857
 75 0.000007 -0.000003 -3.619079 0.260448 -2.945758 -1.468642
 76 16.573919 -0.000000 0.000001 0.000000 0.000000 -1.562392
 77 15.128181 0.000000 0.000001 0.265624 -0.173430 0.666428
 78 5.758665 4.244731 0.000000 -0.000000 0.000000 1.483530
 79 4.003934 -0.000000 0.000000 0.000000 0.000000 0.000000
 80 15.708953 0.000000 0.000000 0.195074 -0.100553 0.460486
 81 0.273998 0.191090 3.439762 -3.130907 -0.000437 -1.508107
 82 17.210194 -0.000000 0.000000 -0.000000 0.000000 -2.116793
 83 0.000000 0.000000 5.000000 -0.079311 1.595025 -1.570737
time 6
  0 0.500000 13.522099 26.931471 -0.243067 0.535714 -2.432935
  1 13.773751 5.584523 -22.520975 -0.544290 0.221328 2.303921
  2 -2.276934 0.000003 -1.238185 -1.570795 -1.570451 0.000000
  3 1.796969 0.711810 -0.000243 0.081870 -0.453244 -0.089356
  4 4.120175 -0.002876 -0.000154 0.047144 0.034401 0.501934
  5 4.119895 -0.002980 -0.000454 0.140545 -0.154195 0.387512
  6 4.118044 -0.003219 -0.000317 0.101250 0.302532 -0.141458
  7 4.118781 -0.002729 -0.002246 0.690528 -0.086898 -0.006296
  8 4.443599 -0.000001 0.000001 -0.230663 -0.380861 0.021106
  9 9.024060 -0.000001 -0.000000 0.000000 0.000000 0.000000
 10 0.150382 1.103017 1.330735 0.988411 -1.168107 2.165339
 11 6.384776 0.000001 0.000000 -0.868543 0.187977 -1.523448
 12 10.242680 -0.000000 -0.000001 -0.000000 0.000000 -1.316128
 13 11.375562 0.000001 -0.000000 -1.912474 -0.101602 0.160052
 14 0.728681 0.023431 -1.008291 1.267228 0.796324 -0.150945
 15 2.136496 -0.000001 -0.000001 -0.000000 -0.000000 -0.078540
 16 2.313140 -0.000000 0.000000 0.000000 0.000000 0.000000
 17 3.115506 -0.886041 -0.021431 -0.328083 -0.231966 0.498583
 18 2.011150 -0.000000 0.000000 -0.000000 0.000000 1.008632
 19 2.141379 -0.000001 0.000001 0.000000 0.000000 0.000000
 20 1.734172 0.000001 -0.000000 0.000000 -0.000000 0.503666
 21 0.000006 -4.440594 0.000000 1.570544 -0.062990 -0.195737
 22 6.000000 -0.000000 0.000000 -1.827970 0.000000 -0.000000
 23 0.000001 -4.440601 -0.000000 1.569944 -0.062987 0.004053
 24 11.375562 0.000001 0.000002 -1.740185 -0.064478 0.087051
 25 -0.000001 -4.440604 -0.000000 1.570144 -0.062988 0.004040
 26 10.510129 -0.000000 -0.000001 -0.000000 0.000000 -2.228860
 27 0.000001 -1.748401 4.999999 -0.000000 0.004007 1.602290
 28 5.499998 -0.000000 -0.000000 0.252423 0.000000 0.000000
 29 -0.000002 -1.940598 5.000000 -0.044472 0.004003 -0.000180
 30 6.551491 0.000003 0.000000 -0.556764 0.297773 -1.033594
 31 0.000001 -1.940599 5.000001 -0.027189 -0.053376 0.005295
 32 6.551491 0.000003 0.000000 -0.194588 0.193762 -0.411961
 33 -0.000001 -1.940598 4.999997 -0.066572 -0.152786 -0.110311
 34 -0.150379 -1.095941 -1.330734 1.693066 1.103077 -1.449850
 35 6.384776 -0.000003 -0.000000 0.301957 0.343094 -1.407918
 36 10.242682 0.000001 0.000001 0.000000 -0.000000 -1.351228
 37 11.375562 -0.000001 0.000000 2.621178 0.013959 0.755076
 38 0.728681 0.023431 1.008291 -1.579583 -0.319038 0.212973
 39 2.136496 0.000000 0.000000 -0.000000 -0.000000 1.282817
 40 2.313139 -0.000000 -0.000000 0.000000 0.000000 3.141593
 41 3.115507 -0.886041 0.021431 0.420766 0.316066 0.167178
 42 2.011149 -0.000001 0.000000 -0.000000 0.000000 2.082010
 43 2.141380 -0.000000 0.000000 0.000000 0.000000 3.141593
 44 1.734173 -0.000001 -0.000000 0.000000 0.000000 1.041748
 45 0.136314 -3.738193 2.525889 1.493698 2.759406 -1.474501
 46 5.031114 -0.189688 1.849661 -2.967941 -0.035742 1.570790
 47 11.389367 -0.000821 0.158782 2.093296 0.109950 0.382843
 48 -0.000000 -4.440599 0.000001 1.570144 -3.078602 0.004040
 49 6.000000 -0.000001 0.000000 2.093296 -0.000000 -0.000000
 50 0.000002 -4.440600 -0.000001 1.569944 -3.078603 0.004053
 51 10.510132 0.000000 0.000002 0.000000 -0.000000 -2.246410
 52 0.000001 -1.748400 -5.000001 3.141593 0.004007 -1.539299
 53 5.500001 0.000000 0.000002 -0.186353 -0.000000 0.000000
 54 -0.000002 -0.000001 -5.000000 -0.044472 3.137589 -0.000177
 55 6.551490 -0.000002 -0.000000 0.186353 0.037708 -0.398421
 56 -1.266842 -1.937445 -4.950559 -0.066572 -2.988806 -0.110308
 57 6.551491 -0.000002 -0.000001 0.186353 0.037708 -0.398421
 58 0.699371 -1.944208 -5.006847 -0.027189 -3.088217 0.005298
 59 4.226146 -0.003202 -0.000001 0.345687 -0.048160 0.004991
 60 -0.000000 4.999999 -0.000000 -0.153564 0.000087 2.718702
 61 0.000006 -0.000004 -3.713579 0.119535 -2.936655 -0.885276
 62 0.000003 0.000000 5.000000 3.053195 1.558589 -0.074929
 63 -0.000005 0.000006 3.713580 -0.311487 -2.845558 -0.582080
 64 0.000001 0.000000 -5.000000 -0.088726 1.558589 3.066335
 65 7.363603 1.646648 0.495664 -3.141593 -1.570796 0.000000
 66 -0.000005 0.000007 3.619082 -0.441735 -2.434423 -1.159240
 67 16.573917 -0.000001 0.000001 -0.000000 -0.000000 -2.011748
 68 15.128180 0.000001 0.000001 0.026832 0.026147 -0.175154
 69 5.758666 4.244731 0.000000 0.000000 -0.000000 2.033309
 70 3.177727 0.000000 0.000000 0.000000 0.000000 3.141593
 71 15.708951 0.000002 0.000001 0.013957 0.013894 -0.093781
 72 0.275148 0.189215 -3.445208 3.130898 0.000409 -1.514604
 73 17.210192 -0.000002 0.000002 -0.000000 0.000000 -2.319003
 74 0.000000 -0.000001 -4.999999 -0.079433 1.546568 -1.570857
 75 0.000007 -0.000003 -3.619079 0.260448 -2.945758 -1.468642
 76 16.573919 -0.000000 0.000001 0.000000 0.000000 -1.562392
 77 15.128181 0.000000 0.000001 0.265624 -0.173430 0.666428
 78 5.758665 4.244731 0.000000 -0.000000 0.000000 1.483530
 79 4.003934 -0.000000 0.000000 0.000000 0.000000 0.000000
 80 15.708953 0.000000 0.000000 0.195074 -0.100553 0.460486
 81 0.273998 0.191090 3.439762 -3.130907 -0.000437 -1.508107
 82 17.210194 -0.000000 0.000000 -0.000000 0.000000 -2.116793
 83 0.000000 0.000000 5.000000 -0.079311 1.595025 -1.570737
end
