version 1
nodes
  0 "Bip01"  -1
  1 "Bip01 Footsteps"   0
  2 "Bip01 Pelvis"   0
  3 "Bip01 Spine"   2
  4 "Bip01 Spine1"   3
  5 "Bip01 Spine2"   4
  6 "Bip01 Spine3"   5
  7 "Bip01 Neck"   6
  8 "Bip01 Head"   7
  9 "Dummy21"   8
 10 "Bip01 L Clavicle"   7
 11 "Bip01 L UpperArm"  10
 12 "Bip01 L Forearm"  11
 13 "Bip01 L Hand"  12
 14 "Bip01 L Finger0"  13
 15 "Bip01 L Finger01"  14
 16 "Dummy06"  15
 17 "Bip01 L Finger1"  13
 18 "Bip01 L Finger11"  17
 19 "Dummy03"  18
 20 "-- L knuckle"  17
 21 "-- L knuckle_end"  20
 22 "-- L Forearm twist"  12
 23 "-- L Forearm twist_end"  22
 24 "-- L wrist"  12
 25 "-- L wrist_end"  24
 26 "-- L Elbow"  11
 27 "--L Elbow_end"  26
 28 "-- L bicep twist"  11
 29 "-- L bicep twist_end"  28
 30 "-- L shoulder outside"  10
 31 "-- L shoulder outside_end"  30
 32 "-- L Shoulder inside"  10
 33 "-- L Shoulder inside_end"  32
 34 "Bip01 R Clavicle"   7
 35 "Bip01 R UpperArm"  34
 36 "Bip01 R Forearm"  35
 37 "Bip01 R Hand"  36
 38 "Bip01 R Finger0"  37
 39 "Bip01 R Finger01"  38
 40 "Dummy01"  39
 41 "Bip01 R Finger1"  37
 42 "Bip01 R Finger11"  41
 43 "Dummy02"  42
 44 "-- R knuckle"  41
 45 "Point06"  44
 46 "Beretta Elite"  37
 47 "-- R wrist"  36
 48 "-- R wrist_end"  47
 49 "-- R forearm twist"  36
 50 "-- R forearm twist_end"  49
 51 "-- R Elbow"  35
 52 "--R Elbow_end"  51
 53 "-- R bicep twist"  35
 54 "-- R bicep twist_end"  53
 55 "-- R Shoulder inside"  34
 56 "-- R Shoulder inside_end"  55
 57 "-- R shoulder outside"  34
 58 "-- R shoulder outside_end"  57
 59 "-- Neck smooth"   6
 60 "-- neck smooth end"  59
 61 "-- R Butt"   2
 62 "--R Butt_end"  61
 63 "-- L butt"   2
 64 "--L butt_end"  63
 65 "GIGN01"   2
 66 "Bip01 L Thigh"   2
 67 "Bip01 L Calf"  66
 68 "Bip01 L Foot"  67
 69 "Bip01 L Toe0"  68
 70 "Dummy16"  69
 71 "-- L ankle"  67
 72 "-- L ankleend"  71
 73 "-- L Knee"  66
 74 "--L Knee_end"  73
 75 "Bip01 R Thigh"   2
 76 "Bip01 R Calf"  75
 77 "Bip01 R Foot"  76
 78 "Bip01 R Toe0"  77
 79 "Dummy11"  78
 80 "-- R Ankle"  76
 81 "-- R ankleend"  80
 82 "-- R Knee"  75
 83 "--R Knee_end"  82
end
skeleton
time 0
  0 0.500000 13.522099 26.931471 -0.243067 0.535714 -2.432935
  1 13.773751 5.584523 -22.520975 -0.544290 0.221328 2.303921
  2 -2.276934 0.000003 -1.238185 -1.570795 -1.570451 0.000000
  3 1.796910 0.712509 -0.002030 0.700961 -0.287371 -0.326309
  4 4.119468 -0.003048 0.000850 -0.262989 0.090691 0.252530
  5 4.119934 -0.002983 0.000319 -0.097880 -0.039316 0.423135
  6 4.117750 -0.002689 -0.001668 0.562173 0.302317 -0.120555
  7 4.118010 -0.003232 -0.001313 0.380947 0.055705 -0.159098
  8 4.443599 -0.000000 0.000000 1.032142 -0.538031 0.102727
  9 9.024061 -0.000000 0.000001 0.000000 0.000000 0.000000
 10 -0.096470 0.646761 1.606012 0.091756 -1.272470 -3.061543
 11 6.384777 0.000002 0.000003 -1.493071 0.661494 -1.183997
 12 10.242682 0.000000 0.000000 -0.000000 -0.000000 -2.200689
 13 11.375562 -0.000000 -0.000000 -2.489629 0.165543 -0.315646
 14 0.728680 0.023431 -1.008292 1.267227 0.796324 -0.150945
 15 2.136497 0.000001 0.000000 0.000000 -0.000000 -0.078540
 16 2.313138 -0.000000 0.000001 0.000000 0.000000 0.000000
 17 3.115505 -0.886041 -0.021431 -0.328083 -0.231966 0.498583
 18 2.011151 -0.000001 -0.000001 0.000000 0.000000 1.008632
 19 2.141379 0.000000 -0.000001 0.000000 0.000000 0.000000
 20 1.734172 0.000001 0.000000 0.000000 0.000000 0.503666
 21 0.000006 -4.440596 -0.000002 1.570544 -0.062990 -0.195737
 22 6.000000 -0.000000 0.000000 -2.272769 0.000000 0.000000
 23 0.000002 -4.440600 -0.000000 1.569944 -0.062987 0.004053
 24 11.375563 -0.000001 0.000005 -2.023130 0.131551 -0.152685
 25 0.000001 -4.440605 -0.000002 1.570144 -0.062988 0.004040
 26 10.510131 0.000001 -0.000001 -0.000000 -0.000000 -2.671141
 27 0.000002 -1.748400 5.000000 0.000000 0.004007 1.602290
 28 5.499999 0.000000 0.000001 0.422253 0.000000 0.000000
 29 0.000001 -1.940599 5.000000 -0.044472 0.004003 -0.000180
 30 6.551491 0.000000 -0.000000 -0.927790 0.608985 -0.553632
 31 -0.000000 -1.940598 5.000001 -0.027189 -0.053376 0.005295
 32 6.551491 0.000000 -0.000000 -0.332962 0.319403 -0.150891
 33 -0.000001 -1.940598 4.999999 -0.066572 -0.152786 -0.110311
 34 0.096472 -0.639683 -1.606014 2.996249 1.322071 0.026909
 35 6.384777 -0.000001 -0.000000 0.011357 0.719616 -1.681696
 36 10.242682 -0.000001 -0.000002 0.000000 0.000000 -1.603530
 37 11.375559 0.000000 0.000002 2.999750 0.101042 0.361213
 38 0.728681 0.023431 1.008290 -1.579583 -0.319038 0.212973
 39 2.136495 -0.000001 0.000001 -0.000000 -0.000000 1.282817
 40 2.313139 -0.000000 -0.000000 0.000000 0.000000 3.141593
 41 3.115507 -0.886041 0.021430 0.420765 0.316066 0.167178
 42 2.011150 -0.000001 -0.000004 -0.000000 0.000000 2.082010
 43 2.141380 -0.000001 0.000001 0.000000 0.000000 3.141593
 44 1.734172 -0.000001 -0.000001 0.000000 0.000000 1.041748
 45 0.136314 -3.738193 2.525889 1.493698 2.759406 -1.474501
 46 5.031116 -0.189688 1.849664 -2.967941 -0.035742 1.570790
 47 11.389366 -0.000819 0.158782 2.279742 0.134906 0.177181
 48 0.000001 -4.440598 0.000001 1.570144 -3.078602 0.004040
 49 6.000000 0.000000 -0.000000 2.279742 -0.000000 0.000000
 50 0.000002 -4.440600 -0.000001 1.569944 -3.078603 0.004053
 51 10.510131 0.000000 0.000001 0.000000 -0.000000 -2.372561
 52 -0.000000 -1.748399 -5.000001 -3.141593 0.004007 -1.539299
 53 5.500000 0.000000 0.000001 -0.138733 -0.000000 0.000000
 54 0.000001 -0.000000 -5.000000 -0.044472 3.137589 -0.000177
 55 6.551491 -0.000001 0.000000 0.138733 0.186462 -0.467923
 56 -1.266844 -1.937444 -4.950561 -0.066572 -2.988806 -0.110308
 57 6.551491 -0.000001 0.000000 0.138733 0.186462 -0.467923
 58 0.699371 -1.944209 -5.006847 -0.027189 -3.088217 0.005298
 59 4.226144 -0.003200 -0.000000 0.193093 0.022158 -0.094443
 60 0.000001 5.000000 -0.000000 -0.153564 0.000087 2.718702
 61 0.000006 -0.000004 -3.713579 0.119535 -2.936655 -0.885276
 62 0.000003 0.000000 5.000000 3.053195 1.558589 -0.074929
 63 -0.000005 0.000006 3.713580 -0.311487 -2.845558 -0.582080
 64 0.000001 0.000000 -5.000000 -0.088726 1.558589 3.066335
 65 7.363603 1.646648 0.495664 -3.141593 -1.570796 0.000000
 66 -0.000005 0.000007 3.619082 -0.441735 -2.434423 -1.159240
 67 16.573917 -0.000000 0.000001 -0.000000 -0.000000 -2.011748
 68 15.128181 0.000000 -0.000000 0.026832 0.026147 -0.175154
 69 5.758666 4.244731 0.000000 0.000000 -0.000000 2.033309
 70 3.177727 0.000000 0.000000 0.000000 0.000000 3.141593
 71 15.708951 0.000002 -0.000000 0.013957 0.013894 -0.093781
 72 0.275148 0.189215 -3.445208 3.130898 0.000409 -1.514604
 73 17.210192 -0.000001 0.000002 -0.000000 0.000000 -2.319003
 74 0.000000 -0.000001 -5.000000 -0.079433 1.546568 -1.570857
 75 0.000007 -0.000003 -3.619079 0.260448 -2.945758 -1.468642
 76 16.573919 -0.000000 0.000001 0.000000 0.000000 -1.562392
 77 15.128181 0.000000 0.000001 0.265624 -0.173430 0.666428
 78 5.758665 4.244731 0.000000 -0.000000 0.000000 1.483530
 79 4.003934 -0.000000 0.000000 0.000000 0.000000 0.000000
 80 15.708953 0.000000 0.000000 0.195074 -0.100553 0.460486
 81 0.273998 0.191090 3.439762 -3.130907 -0.000437 -1.508107
 82 17.210194 -0.000000 0.000000 -0.000000 0.000000 -2.116793
 83 0.000000 0.000000 5.000000 -0.079311 1.595025 -1.570737
time 1
  0 0.500000 13.522099 26.931471 -0.243067 0.535714 -2.432935
  1 13.773751 5.584523 -22.520975 -0.544290 0.221328 2.303921
  2 -2.276934 0.000003 -1.238185 -1.570795 -1.570451 0.000000
  3 1.796910 0.712509 -0.002030 0.700961 -0.287371 -0.326309
  4 4.119468 -0.003048 0.000850 -0.262989 0.090691 0.252530
  5 4.119934 -0.002983 0.000319 -0.097880 -0.039316 0.423135
  6 4.117750 -0.002689 -0.001668 0.562173 0.302317 -0.120555
  7 4.118285 -0.003092 -0.001690 0.497958 0.008521 -0.097404
  8 4.443599 -0.000001 -0.000001 0.901826 -0.510434 0.092028
  9 9.024060 -0.000000 0.000001 0.000000 0.000000 0.000000
 10 -0.014762 0.831107 1.522244 0.488754 -1.271798 2.765786
 11 6.384777 0.000002 0.000003 -1.481850 0.729787 -1.198176
 12 10.242682 0.000001 0.000000 0.000000 -0.000000 -2.180592
 13 11.375563 0.000000 0.000001 -2.446690 0.118211 -0.380770
 14 0.728681 0.023430 -1.008293 1.267228 0.796324 -0.150945
 15 2.136497 -0.000000 0.000001 -0.000000 -0.000000 -0.078540
 16 2.313139 0.000000 0.000000 0.000000 0.000000 0.000000
 17 3.115507 -0.886041 -0.021432 -0.328083 -0.231966 0.498583
 18 2.011151 -0.000000 -0.000001 0.000000 -0.000000 1.008632
 19 2.141380 0.000001 0.000000 0.000000 0.000000 0.000000
 20 1.734172 0.000000 -0.000000 -0.000000 -0.000000 0.503666
 21 0.000006 -4.440594 0.000000 1.570544 -0.062990 -0.195737
 22 6.000000 0.000000 0.000001 -2.240216 -0.000000 -0.000000
 23 0.000001 -4.440602 -0.000000 1.569944 -0.062987 0.004053
 24 11.375560 0.000000 0.000004 -2.003197 0.110539 -0.194542
 25 0.000001 -4.440604 -0.000000 1.570144 -0.062988 0.004040
 26 10.510130 0.000001 -0.000001 -0.000000 0.000000 -2.661092
 27 -0.000000 -1.748400 4.999999 -0.000000 0.004007 1.602291
 28 5.500000 0.000001 -0.000000 0.402342 0.000000 0.000000
 29 -0.000003 -1.940598 5.000000 -0.044472 0.004003 -0.000180
 30 6.551491 0.000000 -0.000000 -0.897146 0.651108 -0.538129
 31 0.000000 -1.940598 5.000000 -0.027189 -0.053376 0.005295
 32 6.551491 0.000000 -0.000000 -0.316972 0.333957 -0.141215
 33 -0.000001 -1.940598 4.999995 -0.066572 -0.152786 -0.110311
 34 0.014766 -0.824032 -1.522246 2.946797 1.289231 -0.096247
 35 6.384778 -0.000001 0.000003 0.026668 0.685433 -1.615926
 36 10.242682 -0.000001 -0.000004 -0.000000 0.000000 -1.594400
 37 11.375561 0.000000 -0.000000 3.009096 0.034500 0.422494
 38 0.728681 0.023431 1.008295 -1.579583 -0.319038 0.212973
 39 2.136497 0.000000 0.000000 -0.000000 0.000000 1.282817
 40 2.313139 -0.000001 0.000000 0.000000 0.000000 3.141593
 41 3.115506 -0.886041 0.021431 0.420765 0.316066 0.167178
 42 2.011150 -0.000001 -0.000003 -0.000000 -0.000000 2.082010
 43 2.141380 -0.000000 0.000002 0.000000 0.000000 3.141593
 44 1.734172 -0.000001 -0.000001 0.000000 -0.000000 1.041748
 45 0.136316 -3.738194 2.525891 1.493698 2.759406 -1.474501
 46 5.031115 -0.189688 1.849665 -2.967941 -0.035742 1.570790
 47 11.389366 -0.000819 0.158782 2.288043 0.111595 0.222881
 48 0.000000 -4.440598 -0.000000 1.570144 -3.078602 0.004040
 49 6.000000 0.000000 0.000001 2.288043 0.000000 -0.000000
 50 0.000001 -4.440599 -0.000001 1.569944 -3.078603 0.004053
 51 10.510132 0.000000 -0.000000 0.000000 0.000000 -2.367996
 52 0.000000 -1.748401 -5.000000 3.141593 0.004007 -1.539299
 53 5.500000 -0.000000 -0.000003 -0.134885 0.000000 0.000000
 54 -0.000000 -0.000000 -4.999998 -0.044472 3.137589 -0.000177
 55 6.551491 0.000000 0.000001 0.134885 0.183289 -0.454991
 56 -1.266842 -1.937444 -4.950561 -0.066572 -2.988806 -0.110308
 57 6.551492 0.000000 0.000001 0.134885 0.183289 -0.454991
 58 0.699371 -1.944209 -5.006847 -0.027189 -3.088217 0.005298
 59 4.226144 -0.003200 -0.000000 0.251013 -0.001896 -0.056765
 60 -0.000002 5.000002 -0.000001 -0.153564 0.000087 2.718702
 61 0.000006 -0.000004 -3.713579 0.119535 -2.936655 -0.885276
 62 0.000003 0.000000 5.000000 3.053195 1.558589 -0.074929
 63 -0.000005 0.000006 3.713580 -0.311487 -2.845558 -0.582080
 64 0.000001 0.000000 -5.000000 -0.088726 1.558589 3.066335
 65 7.363603 1.646648 0.495664 -3.141593 -1.570796 0.000000
 66 -0.000005 0.000007 3.619082 -0.441735 -2.434423 -1.159240
 67 16.573917 -0.000001 0.000001 -0.000000 -0.000000 -2.011748
 68 15.128180 0.000001 0.000001 0.026832 0.026147 -0.175154
 69 5.758666 4.244731 0.000000 0.000000 -0.000000 2.033309
 70 3.177727 0.000000 0.000000 0.000000 0.000000 3.141593
 71 15.708951 0.000002 0.000001 0.013957 0.013894 -0.093781
 72 0.275148 0.189215 -3.445208 3.130898 0.000409 -1.514604
 73 17.210192 -0.000002 0.000002 -0.000000 0.000000 -2.319003
 74 0.000000 -0.000001 -4.999999 -0.079433 1.546568 -1.570857
 75 0.000007 -0.000003 -3.619079 0.260448 -2.945758 -1.468642
 76 16.573919 -0.000000 0.000001 0.000000 0.000000 -1.562392
 77 15.128181 0.000000 0.000001 0.265624 -0.173430 0.666428
 78 5.758665 4.244731 0.000000 -0.000000 0.000000 1.483530
 79 4.003934 -0.000000 0.000000 0.000000 0.000000 0.000000
 80 15.708953 0.000000 0.000000 0.195074 -0.100553 0.460486
 81 0.273998 0.191090 3.439762 -3.130907 -0.000437 -1.508107
 82 17.210194 -0.000000 0.000000 -0.000000 0.000000 -2.116793
 83 0.000000 0.000000 5.000000 -0.079311 1.595025 -1.570737
time 2
  0 0.500000 13.522099 26.931471 -0.243067 0.535714 -2.432935
  1 13.773751 5.584523 -22.520975 -0.544290 0.221328 2.303921
  2 -2.276934 0.000003 -1.238185 -1.570795 -1.570451 0.000000
  3 1.796910 0.712509 -0.002030 0.700961 -0.287371 -0.326309
  4 4.119468 -0.003048 0.000850 -0.262989 0.090691 0.252530
  5 4.119934 -0.002983 0.000319 -0.097880 -0.039316 0.423135
  6 4.117750 -0.002689 -0.001668 0.562173 0.302317 -0.120555
  7 4.118575 -0.002898 -0.002031 0.612133 -0.045493 -0.041607
  8 4.443600 -0.000000 -0.000000 0.772881 -0.484204 0.077613
  9 9.024063 0.000000 -0.000000 0.000000 0.000000 0.000000
 10 0.078799 0.998153 1.416633 0.822600 -1.222662 2.372872
 11 6.384777 0.000002 0.000003 -1.474907 0.788613 -1.211180
 12 10.242682 0.000001 0.000000 -0.000000 0.000000 -2.161813
 13 11.375561 -0.000000 0.000000 -2.408536 0.070721 -0.439299
 14 0.728682 0.023430 -1.008293 1.267228 0.796324 -0.150945
 15 2.136497 0.000000 0.000001 -0.000000 -0.000000 -0.078540
 16 2.313139 -0.000000 -0.000000 0.000000 0.000000 0.000000
 17 3.115508 -0.886041 -0.021432 -0.328083 -0.231966 0.498583
 18 2.011150 0.000001 0.000002 0.000000 0.000000 1.008632
 19 2.141380 -0.000000 -0.000003 0.000000 0.000000 0.000000
 20 1.734173 0.000002 -0.000000 -0.000000 0.000000 0.503666
 21 0.000006 -4.440594 -0.000001 1.570544 -0.062990 -0.195737
 22 6.000000 -0.000002 0.000001 -2.211699 0.000000 0.000000
 23 0.000002 -4.440601 -0.000001 1.569944 -0.062987 0.004053
 24 11.375563 -0.000002 0.000005 -1.986014 0.088870 -0.231022
 25 -0.000001 -4.440603 -0.000001 1.570144 -0.062988 0.004040
 26 10.510130 0.000001 0.000000 -0.000000 0.000000 -2.651703
 27 0.000002 -1.748401 4.999999 0.000000 0.004007 1.602291
 28 5.499999 0.000001 0.000001 0.385002 0.000000 0.000000
 29 -0.000001 -1.940598 5.000000 -0.044472 0.004003 -0.000180
 30 6.551491 0.000000 -0.000000 -0.871151 0.688115 -0.524154
 31 -0.000001 -1.940598 5.000003 -0.027189 -0.053376 0.005295
 32 6.551491 0.000000 -0.000000 -0.302963 0.346650 -0.132397
 33 -0.000000 -1.940600 4.999995 -0.066572 -0.152786 -0.110311
 34 -0.078798 -0.991075 -1.416636 2.906284 1.246687 -0.211655
 35 6.384777 -0.000001 0.000001 0.041293 0.642705 -1.554920
 36 10.242682 -0.000000 -0.000002 0.000000 0.000000 -1.585270
 37 11.375561 0.000000 -0.000002 3.014351 -0.032486 0.483146
 38 0.728681 0.023431 1.008293 -1.579583 -0.319038 0.212973
 39 2.136495 0.000003 0.000000 -0.000000 -0.000000 1.282817
 40 2.313138 0.000000 0.000000 0.000000 0.000000 3.141593
 41 3.115507 -0.886041 0.021433 0.420766 0.316066 0.167178
 42 2.011151 -0.000000 0.000000 -0.000000 0.000000 2.082010
 43 2.141380 -0.000001 0.000002 0.000000 0.000000 3.141593
 44 1.734173 -0.000001 0.000002 -0.000000 0.000000 1.041748
 45 0.136315 -3.738193 2.525890 1.493698 2.759406 -1.474501
 46 5.031114 -0.189688 1.849661 -2.967941 -0.035742 1.570790
 47 11.389367 -0.000820 0.158777 2.294331 0.087767 0.266755
 48 0.000000 -4.440598 0.000000 1.570144 -3.078602 0.004040
 49 6.000000 -0.000000 -0.000003 2.294331 -0.000000 -0.000000
 50 0.000002 -4.440601 0.000001 1.569944 -3.078603 0.004053
 51 10.510132 -0.000001 -0.000003 0.000000 -0.000000 -2.363431
 52 -0.000000 -1.748400 -5.000000 3.141593 0.004007 -1.539299
 53 5.500000 0.000000 -0.000001 -0.129309 0.000000 0.000000
 54 0.000001 -0.000000 -5.000000 -0.044472 3.137589 -0.000177
 55 6.551490 0.000001 -0.000001 0.129309 0.175827 -0.435759
 56 -1.266843 -1.937443 -4.950560 -0.066572 -2.988806 -0.110308
 57 6.551490 0.000001 -0.000001 0.129309 0.175827 -0.435759
 58 0.699370 -1.944207 -5.006848 -0.027189 -3.088217 0.005298
 59 4.226144 -0.003200 -0.000000 0.307304 -0.028420 -0.019915
 60 0.000000 5.000001 -0.000001 -0.153564 0.000087 2.718702
 61 0.000006 -0.000004 -3.713579 0.119535 -2.936655 -0.885276
 62 0.000003 0.000000 5.000000 3.053195 1.558589 -0.074929
 63 -0.000005 0.000006 3.713580 -0.311487 -2.845558 -0.582080
 64 0.000001 0.000000 -5.000000 -0.088726 1.558589 3.066335
 65 7.363603 1.646648 0.495664 -3.141593 -1.570796 0.000000
 66 -0.000005 0.000007 3.619082 -0.441735 -2.434423 -1.159240
 67 16.573917 -0.000001 0.000001 -0.000000 -0.000000 -2.011748
 68 15.128180 0.000001 0.000001 0.026832 0.026147 -0.175154
 69 5.758666 4.244731 0.000000 0.000000 -0.000000 2.033309
 70 3.177727 0.000000 0.000000 0.000000 0.000000 3.141593
 71 15.708951 0.000002 0.000001 0.013957 0.013894 -0.093781
 72 0.275148 0.189215 -3.445208 3.130898 0.000409 -1.514604
 73 17.210192 -0.000002 0.000002 -0.000000 0.000000 -2.319003
 74 0.000000 -0.000001 -4.999999 -0.079433 1.546568 -1.570857
 75 0.000007 -0.000003 -3.619079 0.260448 -2.945758 -1.468642
 76 16.573919 -0.000000 0.000001 0.000000 0.000000 -1.562392
 77 15.128181 0.000000 0.000001 0.265624 -0.173430 0.666428
 78 5.758665 4.244731 0.000000 -0.000000 0.000000 1.483530
 79 4.003934 -0.000000 0.000000 0.000000 0.000000 0.000000
 80 15.708953 0.000000 0.000000 0.195074 -0.100553 0.460486
 81 0.273998 0.191090 3.439762 -3.130907 -0.000437 -1.508107
 82 17.210194 -0.000000 0.000000 -0.000000 0.000000 -2.116793
 83 0.000000 0.000000 5.000000 -0.079311 1.595025 -1.570737
time 3
  0 0.500000 13.522099 26.931471 -0.243067 0.535714 -2.432935
  1 13.773751 5.584523 -22.520975 -0.544290 0.221328 2.303921
  2 -2.276934 0.000003 -1.238185 -1.570795 -1.570451 0.000000
  3 1.796910 0.712509 -0.002030 0.700961 -0.287371 -0.326309
  4 4.119468 -0.003048 0.000850 -0.262989 0.090691 0.252530
  5 4.119934 -0.002983 0.000319 -0.097880 -0.039316 0.423135
  6 4.117750 -0.002689 -0.001668 0.562173 0.302317 -0.120555
  7 4.118780 -0.002728 -0.002246 0.690528 -0.086898 -0.006296
  8 4.443598 -0.000000 0.000001 0.683265 -0.466886 0.065499
  9 9.024061 -0.000000 0.000000 0.000000 0.000000 0.000000
 10 0.150381 1.103016 1.330735 0.988410 -1.168107 2.165339
 11 6.384777 0.000002 0.000003 -1.472265 0.825143 -1.219525
 12 10.242681 0.000000 0.000001 0.000000 0.000000 -2.150928
 13 11.375562 -0.000002 0.000001 -2.384439 0.037123 -0.475533
 14 0.728682 0.023432 -1.008293 1.267228 0.796324 -0.150945
 15 2.136497 0.000000 0.000001 -0.000000 -0.000000 -0.078540
 16 2.313138 0.000000 -0.000000 0.000000 0.000000 0.000000
 17 3.115508 -0.886040 -0.021432 -0.328083 -0.231966 0.498583
 18 2.011150 -0.000001 -0.000000 0.000000 0.000000 1.008632
 19 2.141378 0.000000 -0.000000 0.000000 0.000000 0.000000
 20 1.734172 0.000000 -0.000000 -0.000000 -0.000000 0.503666
 21 0.000007 -4.440595 -0.000002 1.570544 -0.062990 -0.195737
 22 5.999999 0.000001 0.000000 -2.194081 -0.000000 -0.000000
 23 0.000002 -4.440601 0.000000 1.569944 -0.062987 0.004053
 24 11.375561 0.000000 0.000004 -1.975605 0.073270 -0.253116
 25 -0.000001 -4.440602 0.000001 1.570144 -0.062988 0.004040
 26 10.510131 0.000000 -0.000001 -0.000000 0.000000 -2.646261
 27 0.000001 -1.748401 5.000000 -0.000000 0.004007 1.602291
 28 5.499999 0.000001 0.000000 0.374229 0.000000 -0.000000
 29 -0.000001 -1.940599 4.999999 -0.044472 0.004003 -0.000180
 30 6.551491 0.000000 -0.000000 -0.855352 0.711612 -0.514917
 31 0.000001 -1.940599 5.000001 -0.027189 -0.053376 0.005295
 32 6.551491 0.000000 -0.000000 -0.294229 0.354625 -0.126549
 33 -0.000000 -1.940598 4.999999 -0.066572 -0.152786 -0.110311
 34 -0.150378 -1.095941 -1.330733 2.884214 1.211058 -0.286395
 35 6.384778 -0.000002 0.000003 0.050893 0.607972 -1.515586
 36 10.242682 0.000000 -0.000002 -0.000000 0.000000 -1.578878
 37 11.375561 -0.000000 0.000001 3.015612 -0.079508 0.525520
 38 0.728682 0.023431 1.008292 -1.579583 -0.319038 0.212973
 39 2.136495 0.000003 -0.000000 0.000000 0.000000 1.282817
 40 2.313139 -0.000000 0.000000 0.000000 0.000000 3.141593
 41 3.115508 -0.886041 0.021433 0.420765 0.316066 0.167178
 42 2.011151 -0.000001 -0.000003 -0.000000 -0.000000 2.082010
 43 2.141380 -0.000000 0.000002 0.000000 0.000000 3.141593
 44 1.734172 -0.000001 0.000000 -0.000000 -0.000000 1.041748
 45 0.136315 -3.738193 2.525892 1.493698 2.759406 -1.474501
 46 5.031115 -0.189688 1.849664 -2.967941 -0.035742 1.570790
 47 11.389367 -0.000820 0.158782 2.297633 0.070961 0.296418
 48 0.000001 -4.440599 0.000002 1.570144 -3.078602 0.004040
 49 6.000000 -0.000000 0.000001 2.297633 -0.000000 -0.000000
 50 0.000002 -4.440602 -0.000001 1.569944 -3.078603 0.004053
 51 10.510131 -0.000000 -0.000003 0.000000 -0.000000 -2.360235
 52 0.000000 -1.748399 -5.000001 -3.141593 0.004007 -1.539299
 53 5.500000 -0.000000 -0.000003 -0.124408 0.000000 -0.000000
 54 0.000000 -0.000000 -5.000003 -0.044472 3.137589 -0.000177
 55 6.551491 -0.000001 0.000002 0.124408 0.167622 -0.420432
 56 -1.266843 -1.937443 -4.950561 -0.066572 -2.988806 -0.110308
 57 6.551492 -0.000001 0.000002 0.124408 0.167622 -0.420432
 58 0.699370 -1.944207 -5.006847 -0.027189 -3.088217 0.005298
 59 4.226144 -0.003200 -0.000000 0.345687 -0.048160 0.004991
 60 0.000001 5.000000 0.000000 -0.153564 0.000087 2.718701
 61 0.000006 -0.000004 -3.713579 0.119535 -2.936655 -0.885276
 62 0.000003 0.000000 5.000000 3.053195 1.558589 -0.074929
 63 -0.000005 0.000006 3.713580 -0.311487 -2.845558 -0.582080
 64 0.000001 0.000000 -5.000000 -0.088726 1.558589 3.066335
 65 7.363603 1.646648 0.495664 -3.141593 -1.570796 0.000000
 66 -0.000005 0.000007 3.619082 -0.441735 -2.434423 -1.159240
 67 16.573917 -0.000001 0.000001 -0.000000 -0.000000 -2.011748
 68 15.128180 0.000001 0.000001 0.026832 0.026147 -0.175154
 69 5.758666 4.244731 0.000000 0.000000 -0.000000 2.033309
 70 3.177727 0.000000 0.000000 0.000000 0.000000 3.141593
 71 15.708951 0.000002 0.000001 0.013957 0.013894 -0.093781
 72 0.275148 0.189215 -3.445208 3.130898 0.000409 -1.514604
 73 17.210192 -0.000002 0.000002 -0.000000 0.000000 -2.319003
 74 0.000000 -0.000001 -4.999999 -0.079433 1.546568 -1.570857
 75 0.000007 -0.000003 -3.619079 0.260448 -2.945758 -1.468642
 76 16.573919 -0.000000 0.000001 0.000000 0.000000 -1.562392
 77 15.128181 0.000000 0.000001 0.265624 -0.173430 0.666428
 78 5.758665 4.244731 0.000000 -0.000000 0.000000 1.483530
 79 4.003934 -0.000000 0.000000 0.000000 0.000000 0.000000
 80 15.708953 0.000000 0.000000 0.195074 -0.100553 0.460486
 81 0.273998 0.191090 3.439762 -3.130907 -0.000437 -1.508107
 82 17.210194 -0.000000 0.000000 -0.000000 0.000000 -2.116793
 83 0.000000 0.000000 5.000000 -0.079311 1.595025 -1.570737
time 4
  0 0.500000 13.522099 26.931471 -0.243067 0.535714 -2.432935
  1 13.773751 5.584523 -22.520975 -0.544290 0.221328 2.303921
  2 -2.276934 0.000003 -1.238185 -1.570795 -1.570451 0.000000
  3 1.796910 0.712509 -0.002030 0.700961 -0.287371 -0.326309
  4 4.119468 -0.003048 0.000850 -0.262989 0.090691 0.252530
  5 4.119934 -0.002983 0.000319 -0.097880 -0.039316 0.423135
  6 4.117750 -0.002689 -0.001668 0.562173 0.302317 -0.120555
  7 4.118839 -0.002676 -0.002303 0.712721 -0.099222 0.003206
  8 4.443599 0.000000 0.000001 0.657741 -0.462119 0.061752
  9 9.024060 -0.000001 0.000000 0.000000 0.000000 0.000000
 10 0.171643 1.130980 1.304506 1.026481 -1.150453 2.115264
 11 6.384777 0.000002 0.000003 -1.471812 0.834991 -1.221788
 12 10.242683 0.000001 -0.000002 -0.000000 0.000000 -2.148308
 13 11.375564 -0.000002 0.000002 -2.377920 0.027451 -0.485103
 14 0.728679 0.023430 -1.008291 1.267228 0.796324 -0.150945
 15 2.136499 -0.000000 -0.000000 0.000000 -0.000000 -0.078540
 16 2.313140 -0.000000 0.000001 0.000000 0.000000 0.000000
 17 3.115506 -0.886041 -0.021431 -0.328083 -0.231966 0.498583
 18 2.011151 -0.000001 -0.000004 0.000000 0.000000 1.008632
 19 2.141380 -0.000001 0.000001 0.000000 0.000000 0.000000
 20 1.734173 0.000001 -0.000002 0.000000 0.000000 0.503666
 21 0.000005 -4.440593 0.000002 1.570544 -0.062990 -0.195737
 22 6.000000 0.000000 0.000001 -2.189384 0.000000 0.000000
 23 0.000001 -4.440602 0.000001 1.569944 -0.062987 0.004053
 24 11.375562 -0.000002 0.000004 -1.972864 0.068738 -0.258900
 25 -0.000000 -4.440603 -0.000002 1.570144 -0.062988 0.004040
 26 10.510132 0.000001 -0.000002 -0.000000 -0.000000 -2.644951
 27 -0.000000 -1.748400 5.000000 0.000000 0.004007 1.602291
 28 5.500000 0.000000 -0.000001 0.371336 0.000000 -0.000000
 29 -0.000003 -1.940598 5.000001 -0.044472 0.004003 -0.000180
 30 6.551491 0.000000 -0.000000 -0.851157 0.718029 -0.512314
 31 -0.000001 -1.940598 5.000004 -0.027189 -0.053376 0.005295
 32 6.551491 0.000000 -0.000000 -0.291880 0.356787 -0.124904
 33 -0.000000 -1.940598 4.999998 -0.066572 -0.152786 -0.110311
 34 -0.171638 -1.123904 -1.304504 2.878869 1.199997 -0.306779
 35 6.384776 -0.000002 0.000002 0.053531 0.597351 -1.504900
 36 10.242682 0.000000 -0.000003 -0.000000 0.000000 -1.577052
 37 11.375561 -0.000000 -0.000000 3.015606 -0.092948 0.537646
 38 0.728682 0.023431 1.008295 -1.579583 -0.319038 0.212973
 39 2.136496 -0.000000 0.000000 -0.000000 -0.000000 1.282817
 40 2.313138 0.000000 0.000001 0.000000 0.000000 3.141593
 41 3.115507 -0.886041 0.021433 0.420765 0.316066 0.167178
 42 2.011150 -0.000000 0.000001 -0.000000 0.000000 2.082010
 43 2.141378 -0.000001 -0.000000 0.000000 0.000000 3.141593
 44 1.734173 -0.000002 -0.000000 -0.000000 -0.000000 1.041748
 45 0.136316 -3.738192 2.525892 1.493698 2.759406 -1.474501
 46 5.031114 -0.189687 1.849663 -2.967941 -0.035742 1.570790
 47 11.389367 -0.000820 0.158779 2.298421 0.066154 0.304746
 48 0.000001 -4.440600 -0.000000 1.570144 -3.078602 0.004040
 49 6.000000 -0.000000 -0.000002 2.298421 -0.000000 0.000000
 50 0.000003 -4.440600 0.000000 1.569944 -3.078603 0.004053
 51 10.510132 0.000000 -0.000002 0.000000 0.000000 -2.359323
 52 0.000000 -1.748399 -5.000000 -3.141593 0.004007 -1.539299
 53 5.500000 0.000000 -0.000001 -0.122893 -0.000000 -0.000000
 54 0.000000 -0.000000 -5.000001 -0.044472 3.137589 -0.000177
 55 6.551490 -0.000001 -0.000000 0.122893 0.164833 -0.416065
 56 -1.266842 -1.937444 -4.950557 -0.066572 -2.988806 -0.110308
 57 6.551490 -0.000001 -0.000000 0.122893 0.164833 -0.416065
 58 0.699371 -1.944208 -5.006844 -0.027189 -3.088217 0.005298
 59 4.226144 -0.003200 -0.000000 0.356505 -0.053944 0.011940
 60 0.000001 4.999999 0.000001 -0.153564 0.000087 2.718702
 61 0.000006 -0.000004 -3.713579 0.119535 -2.936655 -0.885276
 62 0.000003 0.000000 5.000000 3.053195 1.558589 -0.074929
 63 -0.000005 0.000006 3.713580 -0.311487 -2.845558 -0.582080
 64 0.000001 0.000000 -5.000000 -0.088726 1.558589 3.066335
 65 7.363603 1.646648 0.495664 -3.141593 -1.570796 0.000000
 66 -0.000005 0.000007 3.619082 -0.441735 -2.434423 -1.159240
 67 16.573917 -0.000001 0.000001 -0.000000 -0.000000 -2.011748
 68 15.128180 0.000001 0.000001 0.026832 0.026147 -0.175154
 69 5.758666 4.244731 0.000000 0.000000 -0.000000 2.033309
 70 3.177727 0.000000 0.000000 0.000000 0.000000 3.141593
 71 15.708951 0.000002 0.000001 0.013957 0.013894 -0.093781
 72 0.275148 0.189215 -3.445208 3.130898 0.000409 -1.514604
 73 17.210192 -0.000002 0.000002 -0.000000 0.000000 -2.319003
 74 0.000000 -0.000001 -4.999999 -0.079433 1.546568 -1.570857
 75 0.000007 -0.000003 -3.619079 0.260448 -2.945758 -1.468642
 76 16.573919 -0.000000 0.000001 0.000000 0.000000 -1.562392
 77 15.128181 0.000000 0.000001 0.265624 -0.173430 0.666428
 78 5.758665 4.244731 0.000000 -0.000000 0.000000 1.483530
 79 4.003934 -0.000000 0.000000 0.000000 0.000000 0.000000
 80 15.708953 0.000000 0.000000 0.195074 -0.100553 0.460486
 81 0.273998 0.191090 3.439762 -3.130907 -0.000437 -1.508107
 82 17.210194 -0.000000 0.000000 -0.000000 0.000000 -2.116793
 83 0.000000 0.000000 5.000000 -0.079311 1.595025 -1.570737
time 5
  0 0.500000 13.522099 26.931471 -0.243067 0.535714 -2.432935
  1 13.773751 5.584523 -22.520975 -0.544290 0.221328 2.303921
  2 -2.276934 0.000003 -1.238185 -1.570795 -1.570451 0.000000
  3 1.796910 0.712509 -0.002030 0.700961 -0.287371 -0.326309
  4 4.119468 -0.003048 0.000850 -0.262989 0.090691 0.252530
  5 4.119934 -0.002983 0.000319 -0.097880 -0.039316 0.423135
  6 4.117750 -0.002689 -0.001668 0.562173 0.302317 -0.120555
  7 4.118809 -0.002702 -0.002274 0.701635 -0.093034 -0.001512
  8 4.443600 -0.000001 0.000001 0.670499 -0.464492 0.063641
  9 9.024061 0.000000 0.000000 0.000000 0.000000 0.000000
 10 0.160970 1.117113 1.317710 1.007913 -1.159376 2.139838
 11 6.384777 0.000002 0.000003 -1.472022 0.830097 -1.220663
 12 10.242682 0.000001 -0.000001 0.000000 0.000000 -2.149588
 13 11.375562 -0.000001 0.000003 -2.381160 0.032291 -0.480363
 14 0.728682 0.023430 -1.008293 1.267228 0.796324 -0.150945
 15 2.136500 0.000000 -0.000000 -0.000000 -0.000000 -0.078540
 16 2.313138 -0.000000 0.000000 0.000000 0.000000 0.000000
 17 3.115508 -0.886041 -0.021433 -0.328083 -0.231966 0.498583
 18 2.011150 0.000001 0.000002 -0.000000 0.000000 1.008632
 19 2.141379 0.000001 0.000002 0.000000 0.000000 0.000000
 20 1.734172 0.000001 0.000000 -0.000000 0.000000 0.503666
 21 0.000005 -4.440593 0.000001 1.570544 -0.062990 -0.195737
 22 6.000000 -0.000001 0.000002 -2.191714 0.000000 -0.000000
 23 0.000002 -4.440601 -0.000001 1.569944 -0.062987 0.004053
 24 11.375561 -0.000001 0.000005 -1.974221 0.071008 -0.256038
 25 -0.000002 -4.440603 -0.000001 1.570144 -0.062988 0.004040
 26 10.510128 -0.000000 -0.000000 -0.000000 0.000000 -2.645590
 27 0.000000 -1.748401 4.999999 0.000000 0.004007 1.602291
 28 5.499997 -0.000000 0.000001 0.372772 0.000000 -0.000000
 29 -0.000003 -1.940598 5.000000 -0.044472 0.004003 -0.000180
 30 6.551491 0.000000 -0.000000 -0.853238 0.714836 -0.513615
 31 -0.000001 -1.940598 5.000002 -0.027189 -0.053376 0.005295
 32 6.551491 0.000000 -0.000000 -0.293047 0.355712 -0.125726
 33 -0.000001 -1.940599 4.999997 -0.066572 -0.152786 -0.110311
 34 -0.160965 -1.110037 -1.317709 2.881489 1.205577 -0.296641
 35 6.384777 -0.000001 0.000003 0.052218 0.602700 -1.510211
 36 10.242681 -0.000001 -0.000003 0.000000 0.000000 -1.577965
 37 11.375557 -0.000000 0.000003 3.015630 -0.086228 0.531581
 38 0.728681 0.023431 1.008291 -1.579583 -0.319038 0.212973
 39 2.136496 0.000002 0.000000 -0.000000 0.000000 1.282817
 40 2.313138 -0.000001 0.000000 0.000000 0.000000 3.141593
 41 3.115507 -0.886041 0.021429 0.420765 0.316066 0.167178
 42 2.011151 0.000001 0.000001 -0.000000 0.000000 2.082010
 43 2.141380 -0.000000 0.000000 0.000000 0.000000 3.141593
 44 1.734172 0.000000 0.000001 0.000000 -0.000000 1.041748
 45 0.136315 -3.738192 2.525893 1.493698 2.759406 -1.474501
 46 5.031115 -0.189687 1.849661 -2.967941 -0.035742 1.570790
 47 11.389367 -0.000820 0.158781 2.298036 0.068558 0.300590
 48 0.000001 -4.440599 -0.000000 1.570144 -3.078602 0.004040
 49 6.000000 -0.000001 0.000000 2.298036 -0.000000 0.000000
 50 0.000002 -4.440603 0.000001 1.569944 -3.078603 0.004053
 51 10.510132 0.000000 -0.000001 -0.000000 0.000000 -2.359779
 52 -0.000002 -1.748399 -5.000000 3.141593 0.004007 -1.539299
 53 5.500000 -0.000000 -0.000002 -0.123656 -0.000000 -0.000000
 54 0.000001 -0.000000 -5.000000 -0.044472 3.137589 -0.000177
 55 6.551491 -0.000001 0.000002 0.123656 0.166251 -0.418241
 56 -1.266844 -1.937443 -4.950561 -0.066572 -2.988806 -0.110308
 57 6.551491 -0.000000 0.000002 0.123656 0.166251 -0.418241
 58 0.699371 -1.944208 -5.006849 -0.027189 -3.088217 0.005298
 59 4.226144 -0.003200 -0.000000 0.351104 -0.051045 0.008476
 60 -0.000001 5.000000 -0.000001 -0.153564 0.000087 2.718702
 61 0.000006 -0.000004 -3.713579 0.119535 -2.936655 -0.885276
 62 0.000003 0.000000 5.000000 3.053195 1.558589 -0.074929
 63 -0.000005 0.000006 3.713580 -0.311487 -2.845558 -0.582080
 64 0.000001 0.000000 -5.000000 -0.088726 1.558589 3.066335
 65 7.363603 1.646648 0.495664 -3.141593 -1.570796 0.000000
 66 -0.000005 0.000007 3.619082 -0.441735 -2.434423 -1.159240
 67 16.573917 -0.000001 0.000001 -0.000000 -0.000000 -2.011748
 68 15.128180 0.000001 0.000001 0.026832 0.026147 -0.175154
 69 5.758666 4.244731 0.000000 0.000000 -0.000000 2.033309
 70 3.177727 0.000000 0.000000 0.000000 0.000000 3.141593
 71 15.708951 0.000002 0.000001 0.013957 0.013894 -0.093781
 72 0.275148 0.189215 -3.445208 3.130898 0.000409 -1.514604
 73 17.210192 -0.000002 0.000002 -0.000000 0.000000 -2.319003
 74 0.000000 -0.000001 -4.999999 -0.079433 1.546568 -1.570857
 75 0.000007 -0.000003 -3.619079 0.260448 -2.945758 -1.468642
 76 16.573919 -0.000000 0.000001 0.000000 0.000000 -1.562392
 77 15.128181 0.000000 0.000001 0.265624 -0.173430 0.666428
 78 5.758665 4.244731 0.000000 -0.000000 0.000000 1.483530
 79 4.003934 -0.000000 0.000000 0.000000 0.000000 0.000000
 80 15.708953 0.000000 0.000000 0.195074 -0.100553 0.460486
 81 0.273998 0.191090 3.439762 -3.130907 -0.000437 -1.508107
 82 17.210194 -0.000000 0.000000 -0.000000 0.000000 -2.116793
 83 0.000000 0.000000 5.000000 -0.079311 1.595025 -1.570737
time 6
  0 0.500000 13.522099 26.931471 -0.243067 0.535714 -2.432935
  1 13.773751 5.584523 -22.520975 -0.544290 0.221328 2.303921
  2 -2.276934 0.000003 -1.238185 -1.570795 -1.570451 0.000000
  3 1.796910 0.712509 -0.002030 0.700961 -0.287371 -0.326309
  4 4.119468 -0.003048 0.000850 -0.262989 0.090691 0.252530
  5 4.119934 -0.002983 0.000319 -0.097880 -0.039316 0.423135
  6 4.117750 -0.002689 -0.001668 0.562173 0.302317 -0.120555
  7 4.118780 -0.002728 -0.002246 0.690528 -0.086898 -0.006296
  8 4.443598 -0.000000 0.000001 0.683265 -0.466886 0.065499
  9 9.024061 -0.000000 0.000000 0.000000 0.000000 0.000000
 10 0.150381 1.103016 1.330735 0.988410 -1.168107 2.165339
 11 6.384777 0.000002 0.000003 -1.472265 0.825143 -1.219525
 12 10.242683 0.000000 -0.000001 0.000000 0.000000 -2.150929
 13 11.375562 -0.000002 0.000001 -2.384439 0.037123 -0.475533
 14 0.728683 0.023430 -1.008294 1.267228 0.796324 -0.150945
 15 2.136499 0.000000 0.000000 0.000000 -0.000000 -0.078540
 16 2.313137 -0.000000 0.000000 0.000000 0.000000 0.000000
 17 3.115508 -0.886041 -0.021433 -0.328083 -0.231966 0.498583
 18 2.011150 -0.000000 0.000002 0.000000 0.000000 1.008632
 19 2.141380 -0.000000 0.000002 0.000000 0.000000 0.000000
 20 1.734172 0.000001 0.000002 -0.000000 0.000000 0.503666
 21 0.000006 -4.440594 0.000001 1.570544 -0.062990 -0.195737
 22 5.999999 0.000000 -0.000001 -2.194081 -0.000000 -0.000000
 23 0.000000 -4.440600 0.000001 1.569944 -0.062987 0.004053
 24 11.375561 -0.000001 0.000003 -1.975604 0.073270 -0.253117
 25 -0.000002 -4.440604 0.000002 1.570144 -0.062988 0.004040
 26 10.510132 0.000001 -0.000002 -0.000000 0.000000 -2.646261
 27 0.000002 -1.748401 5.000001 -0.000000 0.004007 1.602291
 28 5.500000 0.000000 0.000000 0.374229 0.000000 0.000000
 29 -0.000000 -1.940598 4.999999 -0.044472 0.004003 -0.000180
 30 6.551491 0.000000 -0.000000 -0.855352 0.711612 -0.514917
 31 0.000000 -1.940599 5.000000 -0.027189 -0.053376 0.005295
 32 6.551491 0.000000 -0.000000 -0.294229 0.354625 -0.126549
 33 -0.000000 -1.940598 4.999999 -0.066572 -0.152786 -0.110311
 34 -0.150378 -1.095941 -1.330733 2.884214 1.211058 -0.286395
 35 6.384778 -0.000002 0.000003 0.050893 0.607972 -1.515586
 36 10.242682 0.000000 -0.000002 -0.000000 0.000000 -1.578878
 37 11.375561 -0.000000 0.000001 3.015612 -0.079508 0.525520
 38 0.728682 0.023431 1.008292 -1.579583 -0.319038 0.212973
 39 2.136495 0.000003 -0.000000 0.000000 0.000000 1.282817
 40 2.313139 -0.000000 0.000000 0.000000 0.000000 3.141593
 41 3.115508 -0.886041 0.021433 0.420765 0.316066 0.167178
 42 2.011151 -0.000001 -0.000003 -0.000000 -0.000000 2.082010
 43 2.141380 -0.000000 0.000002 0.000000 0.000000 3.141593
 44 1.734172 -0.000001 0.000000 -0.000000 -0.000000 1.041748
 45 0.136315 -3.738193 2.525892 1.493698 2.759406 -1.474501
 46 5.031115 -0.189688 1.849664 -2.967941 -0.035742 1.570790
 47 11.389367 -0.000820 0.158782 2.297633 0.070961 0.296418
 48 0.000001 -4.440599 0.000002 1.570144 -3.078602 0.004040
 49 6.000000 -0.000000 0.000001 2.297633 -0.000000 -0.000000
 50 0.000002 -4.440602 -0.000001 1.569944 -3.078603 0.004053
 51 10.510131 -0.000000 -0.000003 0.000000 -0.000000 -2.360235
 52 0.000000 -1.748399 -5.000001 -3.141593 0.004007 -1.539299
 53 5.500000 -0.000000 -0.000003 -0.124408 0.000000 -0.000000
 54 0.000000 -0.000000 -5.000003 -0.044472 3.137589 -0.000177
 55 6.551491 -0.000001 0.000002 0.124408 0.167622 -0.420432
 56 -1.266843 -1.937443 -4.950561 -0.066572 -2.988806 -0.110308
 57 6.551492 -0.000001 0.000002 0.124408 0.167622 -0.420432
 58 0.699370 -1.944207 -5.006847 -0.027189 -3.088217 0.005298
 59 4.226144 -0.003200 -0.000000 0.345687 -0.048160 0.004991
 60 0.000001 5.000000 0.000000 -0.153564 0.000087 2.718701
 61 0.000006 -0.000004 -3.713579 0.119535 -2.936655 -0.885276
 62 0.000003 0.000000 5.000000 3.053195 1.558589 -0.074929
 63 -0.000005 0.000006 3.713580 -0.311487 -2.845558 -0.582080
 64 0.000001 0.000000 -5.000000 -0.088726 1.558589 3.066335
 65 7.363603 1.646648 0.495664 -3.141593 -1.570796 0.000000
 66 -0.000005 0.000007 3.619082 -0.441735 -2.434423 -1.159240
 67 16.573917 -0.000001 0.000001 -0.000000 -0.000000 -2.011748
 68 15.128180 0.000001 0.000001 0.026832 0.026147 -0.175154
 69 5.758666 4.244731 0.000000 0.000000 -0.000000 2.033309
 70 3.177727 0.000000 0.000000 0.000000 0.000000 3.141593
 71 15.708951 0.000002 0.000001 0.013957 0.013894 -0.093781
 72 0.275148 0.189215 -3.445208 3.130898 0.000409 -1.514604
 73 17.210192 -0.000002 0.000002 -0.000000 0.000000 -2.319003
 74 0.000000 -0.000001 -4.999999 -0.079433 1.546568 -1.570857
 75 0.000007 -0.000003 -3.619079 0.260448 -2.945758 -1.468642
 76 16.573919 -0.000000 0.000001 0.000000 0.000000 -1.562392
 77 15.128181 0.000000 0.000001 0.265624 -0.173430 0.666428
 78 5.758665 4.244731 0.000000 -0.000000 0.000000 1.483530
 79 4.003934 -0.000000 0.000000 0.000000 0.000000 0.000000
 80 15.708953 0.000000 0.000000 0.195074 -0.100553 0.460486
 81 0.273998 0.191090 3.439762 -3.130907 -0.000437 -1.508107
 82 17.210194 -0.000000 0.000000 -0.000000 0.000000 -2.116793
 83 0.000000 0.000000 5.000000 -0.079311 1.595025 -1.570737
end
