version 1
nodes
  0 "Bip01"  -1
  1 "Bip01 Footsteps"   0
  2 "Bip01 Pelvis"   0
  3 "Bip01 Spine"   2
  4 "Bip01 Spine1"   3
  5 "Bip01 Spine2"   4
  6 "Bip01 Spine3"   5
  7 "Bip01 Neck"   6
  8 "Bip01 Head"   7
  9 "Dummy21"   8
 10 "Bip01 L Clavicle"   7
 11 "Bip01 L UpperArm"  10
 12 "Bip01 L Forearm"  11
 13 "Bip01 L Hand"  12
 14 "Bip01 L Finger0"  13
 15 "Bip01 L Finger01"  14
 16 "Dummy06"  15
 17 "Bip01 L Finger1"  13
 18 "Bip01 L Finger11"  17
 19 "Dummy03"  18
 20 "-- L knuckle"  17
 21 "-- L knuckle_end"  20
 22 "-- L Forearm twist"  12
 23 "-- L Forearm twist_end"  22
 24 "-- L wrist"  12
 25 "-- L wrist_end"  24
 26 "-- L Elbow"  11
 27 "--L Elbow_end"  26
 28 "-- L bicep twist"  11
 29 "-- L bicep twist_end"  28
 30 "-- L shoulder outside"  10
 31 "-- L shoulder outside_end"  30
 32 "-- L Shoulder inside"  10
 33 "-- L Shoulder inside_end"  32
 34 "Bip01 R Clavicle"   7
 35 "Bip01 R UpperArm"  34
 36 "Bip01 R Forearm"  35
 37 "Bip01 R Hand"  36
 38 "Bip01 R Finger0"  37
 39 "Bip01 R Finger01"  38
 40 "Dummy01"  39
 41 "Bip01 R Finger1"  37
 42 "Bip01 R Finger11"  41
 43 "Dummy02"  42
 44 "-- R knuckle"  41
 45 "Point06"  44
 46 "Beretta Elite"  37
 47 "-- R wrist"  36
 48 "-- R wrist_end"  47
 49 "-- R forearm twist"  36
 50 "-- R forearm twist_end"  49
 51 "-- R Elbow"  35
 52 "--R Elbow_end"  51
 53 "-- R bicep twist"  35
 54 "-- R bicep twist_end"  53
 55 "-- R Shoulder inside"  34
 56 "-- R Shoulder inside_end"  55
 57 "-- R shoulder outside"  34
 58 "-- R shoulder outside_end"  57
 59 "-- Neck smooth"   6
 60 "-- neck smooth end"  59
 61 "-- R Butt"   2
 62 "--R Butt_end"  61
 63 "-- L butt"   2
 64 "--L butt_end"  63
 65 "GIGN01"   2
 66 "Bip01 L Thigh"   2
 67 "Bip01 L Calf"  66
 68 "Bip01 L Foot"  67
 69 "Bip01 L Toe0"  68
 70 "Dummy16"  69
 71 "-- L ankle"  67
 72 "-- L ankleend"  71
 73 "-- L Knee"  66
 74 "--L Knee_end"  73
 75 "Bip01 R Thigh"   2
 76 "Bip01 R Calf"  75
 77 "Bip01 R Foot"  76
 78 "Bip01 R Toe0"  77
 79 "Dummy11"  78
 80 "-- R Ankle"  76
 81 "-- R ankleend"  80
 82 "-- R Knee"  75
 83 "--R Knee_end"  82
end
skeleton
time 0
  0 0.500000 13.522099 26.931471 -0.243067 0.535714 -2.432935
  1 13.773751 5.584523 -22.520975 -0.544290 0.221328 2.303921
  2 -2.276934 0.000003 -1.238185 -1.570795 -1.570451 0.000000
  3 1.796893 0.712456 -0.001959 0.689061 -0.352524 -0.372966
  4 4.119490 -0.003016 0.000933 -0.288020 0.017339 0.281295
  5 4.119945 -0.002966 0.000408 -0.125744 -0.116365 0.439573
  6 4.117789 -0.002742 -0.001603 0.526289 0.231255 -0.155804
  7 4.118079 -0.003167 -0.001492 0.439919 0.142452 -0.097758
  8 4.443599 -0.000000 -0.000001 0.338075 -0.623532 0.915679
  9 9.024061 0.000001 0.000001 0.000000 0.000000 0.000000
 10 -0.245994 0.733968 1.551862 0.244914 -1.168143 3.056155
 11 6.384777 0.000001 0.000001 -1.182875 1.090594 -1.462995
 12 10.242684 0.000001 -0.000000 0.000000 -0.000000 -1.978470
 13 11.375562 -0.000000 -0.000000 -2.282257 0.104162 -0.738713
 14 0.728680 0.023431 -1.008292 1.267228 0.796324 -0.150945
 15 2.136497 -0.000000 0.000001 0.000000 -0.000000 -0.078540
 16 2.313138 0.000000 -0.000000 0.000000 0.000000 0.000000
 17 3.115507 -0.886041 -0.021432 -0.328083 -0.231966 0.498583
 18 2.011150 -0.000000 0.000000 -0.000000 -0.000000 1.008632
 19 2.141379 0.000001 0.000001 0.000000 0.000000 0.000000
 20 1.734172 0.000001 0.000000 -0.000000 0.000000 0.503666
 21 0.000007 -4.440593 -0.000000 1.570544 -0.062990 -0.195737
 22 6.000000 0.000000 -0.000000 -2.112875 -0.000000 -0.000000
 23 0.000001 -4.440601 0.000001 1.569944 -0.062987 0.004053
 24 11.375561 -0.000000 0.000003 -1.916299 0.120468 -0.368127
 25 -0.000001 -4.440603 0.000000 1.570144 -0.062988 0.004040
 26 10.510132 0.000000 -0.000000 0.000000 -0.000000 -2.560031
 27 0.000001 -1.748402 4.999999 -0.000000 0.004007 1.602291
 28 5.500003 -0.000000 -0.000000 0.061430 -0.000000 0.000000
 29 -0.000001 -1.940598 5.000001 -0.044472 0.004003 -0.000180
 30 6.551492 -0.000000 0.000000 -0.331603 0.894775 -0.713456
 31 0.000001 -1.940599 5.000000 -0.027189 -0.053376 0.005295
 32 6.551492 -0.000000 0.000000 -0.036529 0.408143 -0.231929
 33 0.000000 -1.940597 4.999996 -0.066572 -0.152786 -0.110311
 34 0.245997 -0.726889 -1.551866 3.094445 1.203715 0.103394
 35 6.384777 -0.000000 0.000000 -0.057935 0.445733 -1.359210
 36 10.242682 -0.000000 0.000001 -0.000000 -0.000000 -1.937860
 37 11.375561 0.000001 0.000002 3.025594 0.011064 0.952151
 38 0.728680 0.023431 1.008295 -1.579583 -0.319038 0.212973
 39 2.136496 0.000001 -0.000001 0.000000 -0.000000 1.282817
 40 2.313139 0.000000 0.000000 0.000000 0.000000 3.141593
 41 3.115507 -0.886041 0.021432 0.420766 0.316066 0.167178
 42 2.011151 -0.000000 -0.000001 0.000000 0.000000 2.082010
 43 2.141379 -0.000000 -0.000001 0.000000 0.000000 3.141593
 44 1.734172 -0.000001 -0.000000 0.000000 -0.000000 1.041748
 45 0.136315 -3.738193 2.525891 1.493698 2.759406 -1.474501
 46 5.031114 -0.189688 1.849665 -2.967941 -0.035742 1.570790
 47 11.389366 -0.000819 0.158784 2.294970 0.190337 0.463496
 48 0.000001 -4.440599 0.000000 1.570144 -3.078602 0.004040
 49 6.000000 0.000000 0.000002 2.294970 -0.000000 -0.000000
 50 0.000001 -4.440601 0.000000 1.569944 -3.078603 0.004053
 51 10.510132 0.000001 -0.000001 0.000000 0.000000 -2.539726
 52 0.000000 -1.748400 -5.000001 -3.141593 0.004007 -1.539299
 53 5.500002 0.000000 0.000002 -0.041655 0.000000 -0.000000
 54 0.000000 -0.000000 -4.999998 -0.044472 3.137589 -0.000177
 55 6.551491 -0.000001 0.000001 0.041655 0.155796 -0.350611
 56 -1.266844 -1.937443 -4.950559 -0.066572 -2.988806 -0.110308
 57 6.551491 -0.000001 0.000001 0.041655 0.155796 -0.350611
 58 0.699370 -1.944208 -5.006845 -0.027189 -3.088217 0.005298
 59 4.226146 -0.003203 -0.000000 0.222558 0.071367 -0.065264
 60 -0.000001 5.000001 -0.000001 -0.153564 0.000087 2.718702
 61 0.000006 -0.000004 -3.713579 0.119535 -2.936655 -0.885276
 62 0.000003 0.000000 5.000000 3.053195 1.558589 -0.074929
 63 -0.000005 0.000006 3.713580 -0.311487 -2.845558 -0.582080
 64 0.000001 0.000000 -5.000000 -0.088726 1.558589 3.066335
 65 7.363603 1.646648 0.495664 -3.141593 -1.570796 0.000000
 66 -0.000005 0.000007 3.619082 -0.441735 -2.434423 -1.159240
 67 16.573917 -0.000000 0.000001 -0.000000 -0.000000 -2.011748
 68 15.128181 0.000000 -0.000000 0.026832 0.026147 -0.175154
 69 5.758666 4.244731 0.000000 0.000000 -0.000000 2.033309
 70 3.177727 0.000000 0.000000 0.000000 0.000000 3.141593
 71 15.708951 0.000002 -0.000000 0.013957 0.013894 -0.093781
 72 0.275148 0.189215 -3.445208 3.130898 0.000409 -1.514604
 73 17.210192 -0.000001 0.000002 -0.000000 0.000000 -2.319003
 74 0.000000 -0.000001 -5.000000 -0.079433 1.546568 -1.570857
 75 0.000007 -0.000003 -3.619079 0.260448 -2.945758 -1.468642
 76 16.573919 -0.000000 0.000001 0.000000 0.000000 -1.562392
 77 15.128181 0.000000 0.000001 0.265624 -0.173430 0.666428
 78 5.758665 4.244731 0.000000 -0.000000 0.000000 1.483530
 79 4.003934 -0.000000 0.000000 0.000000 0.000000 0.000000
 80 15.708953 0.000000 0.000000 0.195074 -0.100553 0.460486
 81 0.273998 0.191090 3.439762 -3.130907 -0.000437 -1.508107
 82 17.210194 -0.000000 0.000000 -0.000000 0.000000 -2.116793
 83 0.000000 0.000000 5.000000 -0.079311 1.595025 -1.570737
time 1
  0 0.500000 13.522099 26.931471 -0.243067 0.535714 -2.432935
  1 13.773751 5.584523 -22.520975 -0.544290 0.221328 2.303921
  2 -2.276934 0.000003 -1.238185 -1.570795 -1.570451 0.000000
  3 1.796893 0.712456 -0.001959 0.689061 -0.352524 -0.372966
  4 4.119490 -0.003016 0.000933 -0.288020 0.017339 0.281295
  5 4.119945 -0.002966 0.000408 -0.125744 -0.116365 0.439573
  6 4.117789 -0.002742 -0.001603 0.526289 0.231255 -0.155804
  7 4.118320 -0.003031 -0.001802 0.535393 0.060320 -0.057034
  8 4.443600 -0.000001 0.000000 0.318508 -0.518996 0.851897
  9 9.024061 0.000001 0.000000 0.000000 0.000000 0.000000
 10 -0.104451 0.885923 1.487551 0.514328 -1.197981 2.732122
 11 6.384777 0.000001 0.000001 -1.163118 1.114858 -1.427885
 12 10.242681 0.000001 0.000001 -0.000000 0.000000 -1.921133
 13 11.375561 0.000000 -0.000001 -2.350666 0.027062 -0.730950
 14 0.728681 0.023430 -1.008292 1.267228 0.796324 -0.150945
 15 2.136497 -0.000000 0.000001 0.000000 -0.000000 -0.078540
 16 2.313139 0.000000 -0.000001 0.000000 0.000000 0.000000
 17 3.115507 -0.886041 -0.021431 -0.328083 -0.231966 0.498583
 18 2.011151 0.000000 -0.000002 -0.000000 0.000000 1.008632
 19 2.141379 0.000001 0.000001 0.000000 0.000000 0.000000
 20 1.734171 0.000000 -0.000000 -0.000000 0.000000 0.503666
 21 0.000006 -4.440593 0.000000 1.570544 -0.062990 -0.195737
 22 5.999999 -0.000001 -0.000001 -2.172545 0.000000 -0.000000
 23 0.000001 -4.440601 -0.000000 1.569944 -0.062987 0.004053
 24 11.375561 0.000000 0.000003 -1.958347 0.088469 -0.372233
 25 -0.000001 -4.440604 0.000001 1.570144 -0.062988 0.004040
 26 10.510131 0.000001 -0.000000 -0.000000 -0.000000 -2.531363
 27 0.000000 -1.748401 4.999998 0.000000 0.004007 1.602290
 28 5.500000 0.000000 0.000000 0.055458 -0.000000 0.000000
 29 -0.000002 -1.940598 5.000000 -0.044472 0.004003 -0.000180
 30 6.551492 -0.000000 0.000000 -0.307600 0.895037 -0.677883
 31 -0.000001 -1.940596 5.000002 -0.027189 -0.053376 0.005295
 32 6.551492 -0.000000 0.000000 -0.032445 0.407832 -0.222710
 33 -0.000000 -1.940598 4.999995 -0.066572 -0.152786 -0.110311
 34 0.104457 -0.878848 -1.487550 3.033697 1.212048 -0.022796
 35 6.384777 0.000001 -0.000001 -0.050837 0.397049 -1.326362
 36 10.242682 0.000001 -0.000002 0.000000 -0.000000 -1.884907
 37 11.375561 0.000001 -0.000001 3.077839 -0.086672 0.940651
 38 0.728680 0.023431 1.008291 -1.579583 -0.319038 0.212973
 39 2.136496 0.000002 0.000000 0.000000 0.000000 1.282817
 40 2.313140 -0.000001 0.000000 0.000000 0.000000 3.141593
 41 3.115506 -0.886040 0.021431 0.420765 0.316066 0.167178
 42 2.011150 -0.000000 -0.000000 0.000000 0.000000 2.082010
 43 2.141379 0.000000 -0.000001 0.000000 0.000000 3.141593
 44 1.734172 -0.000002 -0.000001 -0.000000 -0.000000 1.041748
 45 0.136316 -3.738193 2.525890 1.493698 2.759406 -1.474501
 46 5.031114 -0.189687 1.849662 -2.967941 -0.035742 1.570790
 47 11.389366 -0.000820 0.158780 2.334203 0.150103 0.478704
 48 0.000001 -4.440599 -0.000001 1.570144 -3.078602 0.004040
 49 6.000000 -0.000001 -0.000002 2.334203 0.000000 0.000000
 50 0.000001 -4.440602 -0.000001 1.569944 -3.078603 0.004053
 51 10.510131 0.000001 -0.000000 0.000000 0.000000 -2.513250
 52 -0.000001 -1.748399 -4.999999 -3.141593 0.004007 -1.539299
 53 5.499998 0.000001 -0.000003 -0.036631 -0.000000 0.000000
 54 0.000000 -0.000001 -5.000000 -0.044472 3.137590 -0.000177
 55 6.551491 -0.000000 -0.000000 0.036631 0.138720 -0.343269
 56 -1.266845 -1.937441 -4.950560 -0.066572 -2.988806 -0.110308
 57 6.551492 -0.000000 -0.000001 0.036631 0.138720 -0.343269
 58 0.699369 -1.944209 -5.006845 -0.027189 -3.088217 0.005298
 59 4.226146 -0.003203 -0.000000 0.269674 0.028703 -0.037595
 60 -0.000000 4.999999 0.000000 -0.153564 0.000087 2.718702
 61 0.000006 -0.000004 -3.713579 0.119535 -2.936655 -0.885276
 62 0.000003 0.000000 5.000000 3.053195 1.558589 -0.074929
 63 -0.000005 0.000006 3.713580 -0.311487 -2.845558 -0.582080
 64 0.000001 0.000000 -5.000000 -0.088726 1.558589 3.066335
 65 7.363603 1.646648 0.495664 -3.141593 -1.570796 0.000000
 66 -0.000005 0.000007 3.619082 -0.441735 -2.434423 -1.159240
 67 16.573917 -0.000000 0.000001 -0.000000 -0.000000 -2.011748
 68 15.128181 0.000000 -0.000000 0.026832 0.026147 -0.175154
 69 5.758666 4.244731 0.000000 0.000000 -0.000000 2.033309
 70 3.177727 0.000000 0.000000 0.000000 0.000000 3.141593
 71 15.708951 0.000002 -0.000000 0.013957 0.013894 -0.093781
 72 0.275148 0.189215 -3.445208 3.130898 0.000409 -1.514604
 73 17.210192 -0.000001 0.000002 -0.000000 0.000000 -2.319003
 74 0.000000 -0.000001 -5.000000 -0.079433 1.546568 -1.570857
 75 0.000007 -0.000003 -3.619079 0.260448 -2.945758 -1.468642
 76 16.573919 -0.000000 0.000001 0.000000 0.000000 -1.562392
 77 15.128181 0.000000 0.000001 0.265624 -0.173430 0.666428
 78 5.758665 4.244731 0.000000 -0.000000 0.000000 1.483530
 79 4.003934 -0.000000 0.000000 0.000000 0.000000 0.000000
 80 15.708953 0.000000 0.000000 0.195074 -0.100553 0.460486
 81 0.273998 0.191090 3.439762 -3.130907 -0.000437 -1.508107
 82 17.210194 -0.000000 0.000000 -0.000000 0.000000 -2.116793
 83 0.000000 0.000000 5.000000 -0.079311 1.595025 -1.570737
time 2
  0 0.500000 13.522099 26.931471 -0.243067 0.535714 -2.432935
  1 13.773751 5.584523 -22.520975 -0.544290 0.221328 2.303921
  2 -2.276934 0.000003 -1.238185 -1.570795 -1.570451 0.000000
  3 1.796893 0.712456 -0.001959 0.689061 -0.352524 -0.372966
  4 4.119490 -0.003016 0.000933 -0.288020 0.017339 0.281295
  5 4.119945 -0.002966 0.000408 -0.125744 -0.116365 0.439573
  6 4.117789 -0.002742 -0.001603 0.526289 0.231255 -0.155804
  7 4.118586 -0.002865 -0.002077 0.627449 -0.025318 -0.024416
  8 4.443598 -0.000001 -0.000001 0.292675 -0.415551 0.789163
  9 9.024061 0.000001 0.000001 0.000000 0.000000 0.000000
 10 0.043866 1.020455 1.402239 0.803798 -1.192561 2.388183
 11 6.384777 0.000001 0.000001 -1.138927 1.138580 -1.392249
 12 10.242682 -0.000001 -0.000001 -0.000000 0.000000 -1.872838
 13 11.375562 -0.000000 0.000000 -2.422888 -0.041660 -0.709893
 14 0.728680 0.023430 -1.008291 1.267228 0.796324 -0.150945
 15 2.136498 0.000000 -0.000001 0.000000 -0.000000 -0.078540
 16 2.313139 0.000000 0.000000 0.000000 0.000000 0.000000
 17 3.115507 -0.886040 -0.021431 -0.328083 -0.231966 0.498583
 18 2.011151 -0.000000 0.000000 -0.000000 0.000000 1.008632
 19 2.141379 0.000001 0.000001 0.000000 0.000000 0.000000
 20 1.734172 0.000001 -0.000000 -0.000000 0.000000 0.503666
 21 0.000005 -4.440594 -0.000000 1.570544 -0.062990 -0.195737
 22 6.000000 0.000001 0.000000 -2.233971 -0.000000 0.000000
 23 0.000002 -4.440600 0.000001 1.569944 -0.062987 0.004053
 24 11.375560 -0.000000 0.000002 -2.000696 0.059375 -0.370250
 25 -0.000001 -4.440604 0.000001 1.570144 -0.062988 0.004040
 26 10.510130 -0.000001 -0.000001 -0.000000 -0.000000 -2.507215
 27 0.000000 -1.748402 4.999999 0.000000 0.004007 1.602290
 28 5.500000 -0.000000 -0.000000 0.048592 -0.000000 0.000000
 29 -0.000001 -1.940598 5.000000 -0.044472 0.004003 -0.000180
 30 6.551492 -0.000000 0.000000 -0.282761 0.895684 -0.644174
 31 0.000002 -1.940599 5.000000 -0.027189 -0.053376 0.005295
 32 6.551492 -0.000000 0.000000 -0.027579 0.407555 -0.213935
 33 -0.000001 -1.940599 4.999996 -0.066572 -0.152786 -0.110311
 34 -0.043862 -1.013380 -1.402240 2.958666 1.212883 -0.165110
 35 6.384777 -0.000000 0.000001 -0.044210 0.344717 -1.297616
 36 10.242681 -0.000000 -0.000001 -0.000000 -0.000000 -1.832575
 37 11.375562 0.000001 0.000002 3.131269 -0.182528 0.924060
 38 0.728680 0.023431 1.008291 -1.579583 -0.319038 0.212973
 39 2.136497 0.000002 -0.000001 -0.000000 -0.000000 1.282817
 40 2.313137 0.000000 0.000001 0.000000 0.000000 3.141593
 41 3.115506 -0.886041 0.021430 0.420765 0.316066 0.167178
 42 2.011151 -0.000000 -0.000000 -0.000000 -0.000000 2.082010
 43 2.141380 -0.000000 0.000000 0.000000 0.000000 3.141593
 44 1.734172 -0.000001 -0.000000 -0.000000 -0.000000 1.041748
 45 0.136315 -3.738191 2.525890 1.493698 2.759406 -1.474501
 46 5.031114 -0.189687 1.849662 -2.967941 -0.035742 1.570790
 47 11.389367 -0.000820 0.158782 2.371525 0.109317 0.491987
 48 -0.000000 -4.440599 0.000001 1.570144 -3.078602 0.004040
 49 6.000000 -0.000001 -0.000001 2.371525 0.000000 0.000000
 50 0.000001 -4.440601 0.000002 1.569944 -3.078603 0.004053
 51 10.510131 -0.000000 0.000001 -0.000000 -0.000000 -2.487083
 52 -0.000000 -1.748400 -5.000002 3.141593 0.004007 -1.539299
 53 5.500000 0.000000 0.000000 -0.031170 -0.000000 0.000000
 54 0.000000 0.000001 -5.000000 -0.044472 3.137589 -0.000177
 55 6.551492 -0.000001 0.000002 0.031170 0.120533 -0.337629
 56 -1.266845 -1.937444 -4.950559 -0.066572 -2.988806 -0.110308
 57 6.551492 -0.000001 0.000002 0.031170 0.120533 -0.337629
 58 0.699369 -1.944207 -5.006847 -0.027189 -3.088217 0.005298
 59 4.226146 -0.003203 -0.000000 0.314999 -0.016007 -0.011765
 60 -0.000001 5.000002 -0.000000 -0.153564 0.000087 2.718702
 61 0.000006 -0.000004 -3.713579 0.119535 -2.936655 -0.885276
 62 0.000003 0.000000 5.000000 3.053195 1.558589 -0.074929
 63 -0.000005 0.000006 3.713580 -0.311487 -2.845558 -0.582080
 64 0.000001 0.000000 -5.000000 -0.088726 1.558589 3.066335
 65 7.363603 1.646648 0.495664 -3.141593 -1.570796 0.000000
 66 -0.000005 0.000007 3.619082 -0.441735 -2.434423 -1.159240
 67 16.573917 -0.000000 0.000001 -0.000000 -0.000000 -2.011748
 68 15.128181 0.000000 -0.000000 0.026832 0.026147 -0.175154
 69 5.758666 4.244731 0.000000 0.000000 -0.000000 2.033309
 70 3.177727 0.000000 0.000000 0.000000 0.000000 3.141593
 71 15.708951 0.000002 -0.000000 0.013957 0.013894 -0.093781
 72 0.275148 0.189215 -3.445208 3.130898 0.000409 -1.514604
 73 17.210192 -0.000001 0.000002 -0.000000 0.000000 -2.319003
 74 0.000000 -0.000001 -5.000000 -0.079433 1.546568 -1.570857
 75 0.000007 -0.000003 -3.619079 0.260448 -2.945758 -1.468642
 76 16.573919 -0.000000 0.000001 0.000000 0.000000 -1.562392
 77 15.128181 0.000000 0.000001 0.265624 -0.173430 0.666428
 78 5.758665 4.244731 0.000000 -0.000000 0.000000 1.483530
 79 4.003934 -0.000000 0.000000 0.000000 0.000000 0.000000
 80 15.708953 0.000000 0.000000 0.195074 -0.100553 0.460486
 81 0.273998 0.191090 3.439762 -3.130907 -0.000437 -1.508107
 82 17.210194 -0.000000 0.000000 -0.000000 0.000000 -2.116793
 83 0.000000 0.000000 5.000000 -0.079311 1.595025 -1.570737
time 3
  0 0.500000 13.522099 26.931471 -0.243067 0.535714 -2.432935
  1 13.773751 5.584523 -22.520975 -0.544290 0.221328 2.303921
  2 -2.276934 0.000003 -1.238185 -1.570795 -1.570451 0.000000
  3 1.796893 0.712456 -0.001959 0.689061 -0.352524 -0.372966
  4 4.119490 -0.003016 0.000933 -0.288020 0.017339 0.281295
  5 4.119945 -0.002966 0.000408 -0.125744 -0.116365 0.439573
  6 4.117789 -0.002742 -0.001603 0.526289 0.231255 -0.155804
  7 4.118781 -0.002728 -0.002246 0.690528 -0.086898 -0.006296
  8 4.443597 -0.000001 0.000000 0.271124 -0.344007 0.745113
  9 9.024061 0.000002 0.000001 0.000000 0.000000 0.000000
 10 0.150382 1.103015 1.330736 0.988411 -1.168107 2.165339
 11 6.384777 0.000001 0.000001 -1.121291 1.153683 -1.368872
 12 10.242683 -0.000001 -0.000000 0.000000 -0.000000 -1.847857
 13 11.375561 -0.000000 -0.000001 -2.470042 -0.079839 -0.690496
 14 0.728681 0.023431 -1.008293 1.267228 0.796324 -0.150945
 15 2.136498 -0.000000 -0.000001 0.000000 -0.000000 -0.078540
 16 2.313139 -0.000000 0.000001 0.000000 0.000000 0.000000
 17 3.115505 -0.886041 -0.021432 -0.328083 -0.231966 0.498583
 18 2.011150 -0.000001 0.000000 -0.000000 -0.000000 1.008632
 19 2.141381 0.000000 0.000000 0.000000 0.000000 0.000000
 20 1.734172 0.000001 -0.000001 0.000000 0.000000 0.503666
 21 0.000006 -4.440593 -0.000000 1.570544 -0.062990 -0.195737
 22 5.999999 0.000001 0.000000 -2.273239 -0.000000 -0.000000
 23 0.000001 -4.440601 -0.000000 1.569944 -0.062987 0.004053
 24 11.375561 0.000002 0.000002 -2.027211 0.042798 -0.366144
 25 -0.000001 -4.440603 0.000001 1.570144 -0.062988 0.004040
 26 10.510132 -0.000001 -0.000001 0.000000 -0.000000 -2.494725
 27 0.000001 -1.748401 5.000000 -0.000000 0.004007 1.602291
 28 5.500001 -0.000001 -0.000001 0.043727 0.000000 -0.000000
 29 0.000000 -1.940600 5.000000 -0.044472 0.004003 -0.000180
 30 6.551492 -0.000000 0.000000 -0.266354 0.896424 -0.623291
 31 0.000001 -1.940599 5.000001 -0.027189 -0.053376 0.005295
 32 6.551492 -0.000000 0.000000 -0.024057 0.407447 -0.208461
 33 -0.000000 -1.940598 4.999995 -0.066572 -0.152786 -0.110311
 34 -0.150379 -1.095940 -1.330734 2.884214 1.211058 -0.286395
 35 6.384777 0.000003 -0.000000 -0.040226 0.310514 -1.281816
 36 10.242682 -0.000001 0.000001 0.000000 -0.000000 -1.800332
 37 11.375562 -0.000000 -0.000000 -3.117651 -0.241089 0.911059
 38 0.728681 0.023431 1.008292 -1.579583 -0.319038 0.212973
 39 2.136496 -0.000001 0.000000 0.000000 0.000000 1.282817
 40 2.313139 -0.000000 0.000000 0.000000 0.000000 3.141593
 41 3.115507 -0.886041 0.021431 0.420766 0.316066 0.167178
 42 2.011151 -0.000001 -0.000001 -0.000000 0.000000 2.082010
 43 2.141381 0.000000 0.000001 0.000000 0.000000 3.141593
 44 1.734171 -0.000002 -0.000001 -0.000000 0.000000 1.041748
 45 0.136315 -3.738192 2.525889 1.493698 2.759406 -1.474501
 46 5.031114 -0.189687 1.849663 -2.967941 -0.035742 1.570790
 47 11.389367 -0.000819 0.158782 2.393830 0.083696 0.499372
 48 -0.000000 -4.440598 -0.000000 1.570144 -3.078602 0.004040
 49 6.000000 -0.000000 0.000000 2.393830 -0.000000 -0.000000
 50 0.000001 -4.440602 0.000001 1.569944 -3.078603 0.004053
 51 10.510130 -0.000000 -0.000001 -0.000000 0.000000 -2.470962
 52 0.000000 -1.748399 -5.000002 -3.141593 0.004007 -1.539299
 53 5.499998 -0.000000 -0.000002 -0.027612 0.000000 0.000000
 54 -0.000000 0.000000 -5.000001 -0.044472 3.137589 -0.000177
 55 6.551491 0.000001 0.000002 0.027612 0.108705 -0.334821
 56 -1.266845 -1.937442 -4.950561 -0.066572 -2.988806 -0.110308
 57 6.551492 0.000001 0.000002 0.027612 0.108705 -0.334821
 58 0.699369 -1.944207 -5.006847 -0.027189 -3.088217 0.005298
 59 4.226146 -0.003203 -0.000000 0.345687 -0.048160 0.004991
 60 -0.000001 4.999999 0.000001 -0.153564 0.000087 2.718702
 61 0.000006 -0.000004 -3.713579 0.119535 -2.936655 -0.885276
 62 0.000003 0.000000 5.000000 3.053195 1.558589 -0.074929
 63 -0.000005 0.000006 3.713580 -0.311487 -2.845558 -0.582080
 64 0.000001 0.000000 -5.000000 -0.088726 1.558589 3.066335
 65 7.363603 1.646648 0.495664 -3.141593 -1.570796 0.000000
 66 -0.000005 0.000007 3.619082 -0.441735 -2.434423 -1.159240
 67 16.573917 -0.000000 0.000001 -0.000000 -0.000000 -2.011748
 68 15.128181 0.000000 -0.000000 0.026832 0.026147 -0.175154
 69 5.758666 4.244731 0.000000 0.000000 -0.000000 2.033309
 70 3.177727 0.000000 0.000000 0.000000 0.000000 3.141593
 71 15.708951 0.000002 -0.000000 0.013957 0.013894 -0.093781
 72 0.275148 0.189215 -3.445208 3.130898 0.000409 -1.514604
 73 17.210192 -0.000001 0.000002 -0.000000 0.000000 -2.319003
 74 0.000000 -0.000001 -5.000000 -0.079433 1.546568 -1.570857
 75 0.000007 -0.000003 -3.619079 0.260448 -2.945758 -1.468642
 76 16.573919 -0.000000 0.000001 0.000000 0.000000 -1.562392
 77 15.128181 0.000000 0.000001 0.265624 -0.173430 0.666428
 78 5.758665 4.244731 0.000000 -0.000000 0.000000 1.483530
 79 4.003934 -0.000000 0.000000 0.000000 0.000000 0.000000
 80 15.708953 0.000000 0.000000 0.195074 -0.100553 0.460486
 81 0.273998 0.191090 3.439762 -3.130907 -0.000437 -1.508107
 82 17.210194 -0.000000 0.000000 -0.000000 0.000000 -2.116793
 83 0.000000 0.000000 5.000000 -0.079311 1.595025 -1.570737
time 4
  0 0.500000 13.522099 26.931471 -0.243067 0.535714 -2.432935
  1 13.773751 5.584523 -22.520975 -0.544290 0.221328 2.303921
  2 -2.276934 0.000003 -1.238185 -1.570795 -1.570451 0.000000
  3 1.796893 0.712456 -0.001959 0.689061 -0.352524 -0.372966
  4 4.119490 -0.003016 0.000933 -0.288020 0.017339 0.281295
  5 4.119945 -0.002966 0.000408 -0.125744 -0.116365 0.439573
  6 4.117789 -0.002742 -0.001603 0.526289 0.231255 -0.155804
  7 4.118840 -0.002689 -0.002290 0.708419 -0.104694 -0.001826
  8 4.443597 -0.000000 -0.000001 0.264454 -0.323722 0.732436
  9 9.024061 0.000001 -0.000001 0.000000 0.000000 0.000000
 10 0.181074 1.124730 1.308611 1.036078 -1.158394 2.106711
 11 6.384777 0.000001 0.000001 -1.115204 1.158586 -1.361128
 12 10.242683 -0.000001 0.000000 -0.000000 0.000000 -1.840779
 13 11.375561 0.000000 -0.000000 -2.485386 -0.091191 -0.683372
 14 0.728681 0.023431 -1.008291 1.267228 0.796324 -0.150945
 15 2.136498 0.000000 -0.000001 -0.000000 -0.000000 -0.078540
 16 2.313140 -0.000000 0.000000 0.000000 0.000000 0.000000
 17 3.115506 -0.886040 -0.021431 -0.328083 -0.231966 0.498583
 18 2.011151 -0.000000 -0.000000 0.000000 0.000000 1.008632
 19 2.141380 0.000000 -0.000001 0.000000 0.000000 0.000000
 20 1.734172 0.000000 -0.000001 -0.000000 0.000000 0.503666
 21 0.000006 -4.440593 0.000002 1.570544 -0.062990 -0.195737
 22 6.000000 0.000001 0.000000 -2.285888 -0.000000 0.000000
 23 0.000001 -4.440601 0.000001 1.569944 -0.062987 0.004053
 24 11.375562 0.000002 0.000003 -2.035656 0.037782 -0.364399
 25 -0.000001 -4.440603 0.000000 1.570144 -0.062988 0.004040
 26 10.510133 -0.000001 -0.000001 0.000000 -0.000000 -2.491186
 27 0.000000 -1.748400 5.000000 0.000000 0.004007 1.602291
 28 5.500000 0.000000 0.000000 0.042075 0.000000 0.000000
 29 -0.000002 -1.940597 5.000000 -0.044472 0.004003 -0.000180
 30 6.551492 -0.000000 0.000000 -0.260938 0.896718 -0.616587
 31 0.000003 -1.940599 5.000001 -0.027189 -0.053376 0.005295
 32 6.551492 -0.000000 0.000000 -0.022851 0.407425 -0.206697
 33 0.000001 -1.940598 4.999995 -0.066572 -0.152786 -0.110311
 34 -0.181075 -1.117651 -1.308613 2.866500 1.208840 -0.317794
 35 6.384777 0.000001 -0.000001 -0.038971 0.299411 -1.277133
 36 10.242682 -0.000000 0.000001 0.000000 -0.000000 -1.790145
 37 11.375560 -0.000000 0.000000 -3.106558 -0.259496 0.906481
 38 0.728681 0.023431 1.008291 -1.579583 -0.319038 0.212973
 39 2.136496 -0.000000 0.000000 -0.000000 0.000000 1.282817
 40 2.313140 -0.000001 0.000000 0.000000 0.000000 3.141593
 41 3.115506 -0.886040 0.021430 0.420765 0.316066 0.167178
 42 2.011151 0.000001 0.000000 0.000000 0.000000 2.082010
 43 2.141378 0.000000 -0.000000 0.000000 0.000000 3.141593
 44 1.734172 -0.000000 -0.000001 0.000000 0.000000 1.041748
 45 0.136316 -3.738193 2.525890 1.493698 2.759406 -1.474501
 46 5.031113 -0.189687 1.849662 -2.967941 -0.035742 1.570790
 47 11.389366 -0.000820 0.158781 2.400771 0.075524 0.501586
 48 0.000000 -4.440599 0.000002 1.570144 -3.078602 0.004040
 49 6.000000 0.000000 0.000001 2.400771 -0.000000 -0.000000
 50 0.000001 -4.440602 0.000001 1.569944 -3.078603 0.004053
 51 10.510133 0.000000 0.000001 0.000000 0.000000 -2.465869
 52 0.000000 -1.748401 -5.000003 -3.141593 0.004007 -1.539299
 53 5.500001 -0.000000 0.000002 -0.026464 -0.000000 -0.000000
 54 -0.000000 -0.000001 -4.999999 -0.044472 3.137589 -0.000177
 55 6.551491 0.000001 -0.000000 0.026464 0.104871 -0.334026
 56 -1.266844 -1.937442 -4.950561 -0.066572 -2.988806 -0.110308
 57 6.551492 0.000001 -0.000000 0.026464 0.104871 -0.334026
 58 0.699370 -1.944208 -5.006846 -0.027189 -3.088217 0.005298
 59 4.226146 -0.003203 -0.000000 0.354306 -0.057436 0.009559
 60 -0.000002 5.000002 -0.000000 -0.153564 0.000087 2.718701
 61 0.000006 -0.000004 -3.713579 0.119535 -2.936655 -0.885276
 62 0.000003 0.000000 5.000000 3.053195 1.558589 -0.074929
 63 -0.000005 0.000006 3.713580 -0.311487 -2.845558 -0.582080
 64 0.000001 0.000000 -5.000000 -0.088726 1.558589 3.066335
 65 7.363603 1.646648 0.495664 -3.141593 -1.570796 0.000000
 66 -0.000005 0.000007 3.619082 -0.441735 -2.434423 -1.159240
 67 16.573917 -0.000001 0.000001 -0.000000 -0.000000 -2.011748
 68 15.128180 0.000001 0.000001 0.026832 0.026147 -0.175154
 69 5.758666 4.244731 0.000000 0.000000 -0.000000 2.033309
 70 3.177727 0.000000 0.000000 0.000000 0.000000 3.141593
 71 15.708951 0.000002 0.000001 0.013957 0.013894 -0.093781
 72 0.275148 0.189215 -3.445208 3.130898 0.000409 -1.514604
 73 17.210192 -0.000002 0.000002 -0.000000 0.000000 -2.319003
 74 0.000000 -0.000001 -4.999999 -0.079433 1.546568 -1.570857
 75 0.000007 -0.000003 -3.619079 0.260448 -2.945758 -1.468642
 76 16.573919 -0.000000 0.000001 0.000000 0.000000 -1.562392
 77 15.128181 0.000000 0.000001 0.265624 -0.173430 0.666428
 78 5.758665 4.244731 0.000000 -0.000000 0.000000 1.483530
 79 4.003934 -0.000000 0.000000 0.000000 0.000000 0.000000
 80 15.708953 0.000000 0.000000 0.195074 -0.100553 0.460486
 81 0.273998 0.191090 3.439762 -3.130907 -0.000437 -1.508107
 82 17.210194 -0.000000 0.000000 -0.000000 0.000000 -2.116793
 83 0.000000 0.000000 5.000000 -0.079311 1.595025 -1.570737
time 5
  0 0.500000 13.522099 26.931471 -0.243067 0.535714 -2.432935
  1 13.773751 5.584523 -22.520975 -0.544290 0.221328 2.303921
  2 -2.276934 0.000003 -1.238185 -1.570795 -1.570451 0.000000
  3 1.796893 0.712456 -0.001959 0.689061 -0.352524 -0.372966
  4 4.119490 -0.003016 0.000933 -0.288020 0.017339 0.281295
  5 4.119945 -0.002966 0.000408 -0.125744 -0.116365 0.439573
  6 4.117789 -0.002742 -0.001603 0.526289 0.231255 -0.155804
  7 4.118811 -0.002710 -0.002268 0.699479 -0.095786 -0.004022
  8 4.443597 -0.000001 0.000001 0.267818 -0.333855 0.738782
  9 9.024060 0.000003 -0.000000 0.000000 0.000000 0.000000
 10 0.165717 1.113980 1.319765 1.012557 -1.163389 2.135715
 11 6.384777 0.000001 0.000001 -1.118281 1.156126 -1.365025
 12 10.242683 0.000000 -0.000000 0.000000 -0.000000 -1.844268
 13 11.375561 -0.000001 -0.000000 -2.477686 -0.085559 -0.686993
 14 0.728681 0.023431 -1.008292 1.267228 0.796324 -0.150945
 15 2.136495 -0.000000 0.000001 0.000000 0.000000 -0.078540
 16 2.313139 -0.000000 -0.000000 0.000000 0.000000 0.000000
 17 3.115507 -0.886040 -0.021432 -0.328083 -0.231966 0.498583
 18 2.011152 -0.000000 -0.000000 -0.000000 0.000000 1.008632
 19 2.141380 0.000000 0.000001 0.000000 0.000000 0.000000
 20 1.734173 0.000000 0.000000 -0.000000 0.000000 0.503666
 21 0.000005 -4.440593 0.000001 1.570544 -0.062990 -0.195737
 22 6.000000 0.000001 -0.000000 -2.279548 -0.000000 -0.000000
 23 0.000001 -4.440600 -0.000001 1.569944 -0.062987 0.004053
 24 11.375562 0.000001 0.000003 -2.031429 0.040276 -0.365298
 25 -0.000001 -4.440603 -0.000001 1.570144 -0.062988 0.004040
 26 10.510131 0.000001 -0.000001 0.000000 0.000000 -2.492930
 27 0.000000 -1.748402 4.999999 -0.000000 0.004007 1.602291
 28 5.500002 0.000000 0.000000 0.042908 0.000000 0.000000
 29 -0.000001 -1.940598 5.000000 -0.044472 0.004003 -0.000180
 30 6.551492 -0.000000 0.000000 -0.263661 0.896567 -0.619948
 31 0.000001 -1.940597 5.000001 -0.027189 -0.053376 0.005295
 32 6.551492 -0.000000 0.000000 -0.023460 0.407435 -0.207582
 33 0.000000 -1.940596 4.999997 -0.066572 -0.152786 -0.110311
 34 -0.165717 -1.106902 -1.319765 2.875360 1.210002 -0.302087
 35 6.384777 -0.000000 0.000001 -0.039599 0.304980 -1.279455
 36 10.242680 -0.000000 -0.000001 -0.000000 0.000000 -1.795238
 37 11.375561 0.000002 0.000001 -3.112122 -0.250299 0.908799
 38 0.728680 0.023432 1.008294 -1.579583 -0.319038 0.212973
 39 2.136497 -0.000000 0.000000 -0.000000 0.000000 1.282817
 40 2.313140 0.000001 0.000000 0.000000 0.000000 3.141593
 41 3.115507 -0.886041 0.021431 0.420765 0.316066 0.167178
 42 2.011152 -0.000001 0.000001 -0.000000 0.000000 2.082010
 43 2.141379 0.000001 0.000001 0.000000 0.000000 3.141593
 44 1.734173 -0.000001 0.000000 -0.000000 -0.000000 1.041748
 45 0.136315 -3.738193 2.525891 1.493698 2.759406 -1.474501
 46 5.031114 -0.189688 1.849664 -2.967941 -0.035742 1.570790
 47 11.389366 -0.000820 0.158780 2.397307 0.079615 0.500486
 48 -0.000000 -4.440601 0.000003 1.570144 -3.078602 0.004040
 49 6.000000 -0.000000 -0.000001 2.397307 0.000000 0.000000
 50 0.000002 -4.440602 0.000000 1.569944 -3.078603 0.004053
 51 10.510131 0.000000 -0.000001 -0.000000 -0.000000 -2.468415
 52 -0.000000 -1.748400 -5.000001 3.141593 0.004007 -1.539299
 53 5.500000 -0.000000 0.000001 -0.027039 0.000000 -0.000000
 54 -0.000000 0.000000 -5.000000 -0.044472 3.137590 -0.000177
 55 6.551491 -0.000001 0.000002 0.027039 0.106793 -0.334418
 56 -1.266844 -1.937443 -4.950560 -0.066572 -2.988806 -0.110308
 57 6.551492 -0.000001 0.000002 0.027039 0.106793 -0.334418
 58 0.699370 -1.944208 -5.006847 -0.027189 -3.088217 0.005298
 59 4.226146 -0.003203 -0.000000 0.350005 -0.052794 0.007288
 60 -0.000001 5.000001 0.000000 -0.153564 0.000087 2.718702
 61 0.000006 -0.000004 -3.713579 0.119535 -2.936655 -0.885276
 62 0.000003 0.000000 5.000000 3.053195 1.558589 -0.074929
 63 -0.000005 0.000006 3.713580 -0.311487 -2.845558 -0.582080
 64 0.000001 0.000000 -5.000000 -0.088726 1.558589 3.066335
 65 7.363603 1.646648 0.495664 -3.141593 -1.570796 0.000000
 66 -0.000005 0.000007 3.619082 -0.441735 -2.434423 -1.159240
 67 16.573917 -0.000001 0.000001 -0.000000 -0.000000 -2.011748
 68 15.128180 0.000001 0.000001 0.026832 0.026147 -0.175154
 69 5.758666 4.244731 0.000000 0.000000 -0.000000 2.033309
 70 3.177727 0.000000 0.000000 0.000000 0.000000 3.141593
 71 15.708951 0.000002 0.000001 0.013957 0.013894 -0.093781
 72 0.275148 0.189215 -3.445208 3.130898 0.000409 -1.514604
 73 17.210192 -0.000002 0.000002 -0.000000 0.000000 -2.319003
 74 0.000000 -0.000001 -4.999999 -0.079433 1.546568 -1.570857
 75 0.000007 -0.000003 -3.619079 0.260448 -2.945758 -1.468642
 76 16.573919 -0.000000 0.000001 0.000000 0.000000 -1.562392
 77 15.128181 0.000000 0.000001 0.265624 -0.173430 0.666428
 78 5.758665 4.244731 0.000000 -0.000000 0.000000 1.483530
 79 4.003934 -0.000000 0.000000 0.000000 0.000000 0.000000
 80 15.708953 0.000000 0.000000 0.195074 -0.100553 0.460486
 81 0.273998 0.191090 3.439762 -3.130907 -0.000437 -1.508107
 82 17.210194 -0.000000 0.000000 -0.000000 0.000000 -2.116793
 83 0.000000 0.000000 5.000000 -0.079311 1.595025 -1.570737
time 6
  0 0.500000 13.522099 26.931471 -0.243067 0.535714 -2.432935
  1 13.773751 5.584523 -22.520975 -0.544290 0.221328 2.303921
  2 -2.276934 0.000003 -1.238185 -1.570795 -1.570451 0.000000
  3 1.796893 0.712456 -0.001959 0.689061 -0.352524 -0.372966
  4 4.119490 -0.003016 0.000933 -0.288020 0.017339 0.281295
  5 4.119945 -0.002966 0.000408 -0.125744 -0.116365 0.439573
  6 4.117789 -0.002742 -0.001603 0.526289 0.231255 -0.155804
  7 4.118781 -0.002728 -0.002246 0.690528 -0.086898 -0.006296
  8 4.443597 -0.000001 0.000000 0.271124 -0.344007 0.745113
  9 9.024061 0.000002 0.000001 0.000000 0.000000 0.000000
 10 0.150382 1.103015 1.330736 0.988411 -1.168107 2.165339
 11 6.384777 0.000001 0.000001 -1.121291 1.153683 -1.368872
 12 10.242682 0.000000 -0.000001 0.000000 0.000000 -1.847857
 13 11.375561 -0.000002 -0.000000 -2.470041 -0.079839 -0.690496
 14 0.728681 0.023431 -1.008292 1.267228 0.796324 -0.150945
 15 2.136497 -0.000000 -0.000000 -0.000000 -0.000000 -0.078540
 16 2.313138 -0.000000 0.000001 0.000000 0.000000 0.000000
 17 3.115506 -0.886042 -0.021432 -0.328083 -0.231966 0.498583
 18 2.011151 -0.000000 0.000000 0.000000 -0.000000 1.008632
 19 2.141378 -0.000000 0.000001 0.000000 0.000000 0.000000
 20 1.734172 0.000000 0.000000 0.000000 -0.000000 0.503666
 21 0.000007 -4.440594 -0.000000 1.570544 -0.062990 -0.195737
 22 6.000000 -0.000001 -0.000000 -2.273239 0.000000 -0.000000
 23 0.000001 -4.440601 0.000002 1.569944 -0.062987 0.004053
 24 11.375562 -0.000001 0.000003 -2.027211 0.042798 -0.366144
 25 -0.000001 -4.440604 0.000000 1.570144 -0.062988 0.004040
 26 10.510130 0.000000 -0.000000 -0.000000 0.000000 -2.494725
 27 -0.000000 -1.748401 5.000000 -0.000000 0.004007 1.602291
 28 5.500000 -0.000001 -0.000000 0.043727 0.000000 -0.000000
 29 -0.000000 -1.940598 5.000000 -0.044472 0.004003 -0.000180
 30 6.551492 -0.000000 0.000000 -0.266354 0.896424 -0.623291
 31 0.000001 -1.940598 5.000001 -0.027189 -0.053376 0.005295
 32 6.551492 -0.000000 0.000000 -0.024057 0.407447 -0.208461
 33 0.000000 -1.940598 4.999996 -0.066572 -0.152786 -0.110311
 34 -0.150379 -1.095940 -1.330734 2.884214 1.211058 -0.286395
 35 6.384777 0.000003 -0.000000 -0.040226 0.310514 -1.281816
 36 10.242682 -0.000001 0.000001 0.000000 -0.000000 -1.800332
 37 11.375562 -0.000000 -0.000000 -3.117651 -0.241089 0.911059
 38 0.728681 0.023431 1.008292 -1.579583 -0.319038 0.212973
 39 2.136496 -0.000001 0.000000 0.000000 0.000000 1.282817
 40 2.313139 -0.000000 0.000000 0.000000 0.000000 3.141593
 41 3.115507 -0.886041 0.021431 0.420766 0.316066 0.167178
 42 2.011151 -0.000001 -0.000001 -0.000000 0.000000 2.082010
 43 2.141381 0.000000 0.000001 0.000000 0.000000 3.141593
 44 1.734171 -0.000002 -0.000001 -0.000000 0.000000 1.041748
 45 0.136315 -3.738192 2.525889 1.493698 2.759406 -1.474501
 46 5.031114 -0.189687 1.849663 -2.967941 -0.035742 1.570790
 47 11.389367 -0.000819 0.158782 2.393830 0.083696 0.499372
 48 -0.000000 -4.440598 -0.000000 1.570144 -3.078602 0.004040
 49 6.000000 -0.000000 0.000000 2.393830 -0.000000 -0.000000
 50 0.000001 -4.440602 0.000001 1.569944 -3.078603 0.004053
 51 10.510130 -0.000000 -0.000001 -0.000000 0.000000 -2.470962
 52 0.000000 -1.748399 -5.000002 -3.141593 0.004007 -1.539299
 53 5.499998 -0.000000 -0.000002 -0.027612 0.000000 0.000000
 54 -0.000000 0.000000 -5.000001 -0.044472 3.137589 -0.000177
 55 6.551491 0.000001 0.000002 0.027612 0.108705 -0.334821
 56 -1.266845 -1.937442 -4.950561 -0.066572 -2.988806 -0.110308
 57 6.551492 0.000001 0.000002 0.027612 0.108705 -0.334821
 58 0.699369 -1.944207 -5.006847 -0.027189 -3.088217 0.005298
 59 4.226146 -0.003203 -0.000000 0.345687 -0.048160 0.004991
 60 -0.000001 4.999999 0.000001 -0.153564 0.000087 2.718702
 61 0.000006 -0.000004 -3.713579 0.119535 -2.936655 -0.885276
 62 0.000003 0.000000 5.000000 3.053195 1.558589 -0.074929
 63 -0.000005 0.000006 3.713580 -0.311487 -2.845558 -0.582080
 64 0.000001 0.000000 -5.000000 -0.088726 1.558589 3.066335
 65 7.363603 1.646648 0.495664 -3.141593 -1.570796 0.000000
 66 -0.000005 0.000007 3.619082 -0.441735 -2.434423 -1.159240
 67 16.573917 -0.000001 0.000001 -0.000000 -0.000000 -2.011748
 68 15.128180 0.000001 0.000001 0.026832 0.026147 -0.175154
 69 5.758666 4.244731 0.000000 0.000000 -0.000000 2.033309
 70 3.177727 0.000000 0.000000 0.000000 0.000000 3.141593
 71 15.708951 0.000002 0.000001 0.013957 0.013894 -0.093781
 72 0.275148 0.189215 -3.445208 3.130898 0.000409 -1.514604
 73 17.210192 -0.000002 0.000002 -0.000000 0.000000 -2.319003
 74 0.000000 -0.000001 -4.999999 -0.079433 1.546568 -1.570857
 75 0.000007 -0.000003 -3.619079 0.260448 -2.945758 -1.468642
 76 16.573919 -0.000000 0.000001 0.000000 0.000000 -1.562392
 77 15.128181 0.000000 0.000001 0.265624 -0.173430 0.666428
 78 5.758665 4.244731 0.000000 -0.000000 0.000000 1.483530
 79 4.003934 -0.000000 0.000000 0.000000 0.000000 0.000000
 80 15.708953 0.000000 0.000000 0.195074 -0.100553 0.460486
 81 0.273998 0.191090 3.439762 -3.130907 -0.000437 -1.508107
 82 17.210194 -0.000000 0.000000 -0.000000 0.000000 -2.116793
 83 0.000000 0.000000 5.000000 -0.079311 1.595025 -1.570737
end
