version 1
nodes
  0 "Bip01"  -1
  1 "Bip01 Footsteps"   0
  2 "Bip01 Pelvis"   0
  3 "Bip01 Spine"   2
  4 "Bip01 Spine1"   3
  5 "Bip01 Spine2"   4
  6 "Bip01 Spine3"   5
  7 "Bip01 Neck"   6
  8 "Bip01 Head"   7
  9 "Dummy21"   8
 10 "Bip01 L Clavicle"   7
 11 "Bip01 L UpperArm"  10
 12 "Bip01 L Forearm"  11
 13 "Bip01 L Hand"  12
 14 "Bip01 L Finger0"  13
 15 "Bip01 L Finger01"  14
 16 "Dummy06"  15
 17 "Bip01 L Finger1"  13
 18 "Bip01 L Finger11"  17
 19 "Dummy03"  18
 20 "-- L knuckle"  17
 21 "-- L knuckle_end"  20
 22 "-- L Forearm twist"  12
 23 "-- L Forearm twist_end"  22
 24 "-- L wrist"  12
 25 "-- L wrist_end"  24
 26 "-- L Elbow"  11
 27 "--L Elbow_end"  26
 28 "-- L bicep twist"  11
 29 "-- L bicep twist_end"  28
 30 "-- L shoulder outside"  10
 31 "-- L shoulder outside_end"  30
 32 "-- L Shoulder inside"  10
 33 "-- L Shoulder inside_end"  32
 34 "Bip01 R Clavicle"   7
 35 "Bip01 R UpperArm"  34
 36 "Bip01 R Forearm"  35
 37 "Bip01 R Hand"  36
 38 "Bip01 R Finger0"  37
 39 "Bip01 R Finger01"  38
 40 "Dummy01"  39
 41 "Bip01 R Finger1"  37
 42 "Bip01 R Finger11"  41
 43 "Dummy02"  42
 44 "-- R knuckle"  41
 45 "Point06"  44
 46 "Beretta Elite"  37
 47 "-- R wrist"  36
 48 "-- R wrist_end"  47
 49 "-- R forearm twist"  36
 50 "-- R forearm twist_end"  49
 51 "-- R Elbow"  35
 52 "--R Elbow_end"  51
 53 "-- R bicep twist"  35
 54 "-- R bicep twist_end"  53
 55 "-- R Shoulder inside"  34
 56 "-- R Shoulder inside_end"  55
 57 "-- R shoulder outside"  34
 58 "-- R shoulder outside_end"  57
 59 "-- Neck smooth"   6
 60 "-- neck smooth end"  59
 61 "-- R Butt"   2
 62 "--R Butt_end"  61
 63 "-- L butt"   2
 64 "--L butt_end"  63
 65 "GIGN01"   2
 66 "Bip01 L Thigh"   2
 67 "Bip01 L Calf"  66
 68 "Bip01 L Foot"  67
 69 "Bip01 L Toe0"  68
 70 "Dummy16"  69
 71 "-- L ankle"  67
 72 "-- L ankleend"  71
 73 "-- L Knee"  66
 74 "--L Knee_end"  73
 75 "Bip01 R Thigh"   2
 76 "Bip01 R Calf"  75
 77 "Bip01 R Foot"  76
 78 "Bip01 R Toe0"  77
 79 "Dummy11"  78
 80 "-- R Ankle"  76
 81 "-- R ankleend"  80
 82 "-- R Knee"  75
 83 "--R Knee_end"  82
end
skeleton
time 0
  0 0.500000 13.522099 26.931471 -0.243067 0.535714 -2.432935
  1 13.773751 5.584523 -22.520975 -0.544290 0.221328 2.303921
  2 -2.276934 0.000003 -1.238185 -1.570795 -1.570451 0.000000
  3 1.796259 0.711922 0.000164 -0.053582 -0.331382 -0.256409
  4 4.119760 -0.003021 0.000541 -0.169180 0.213723 0.329551
  5 4.119952 -0.002961 0.000413 -0.125954 -0.012206 0.428834
  6 4.117748 -0.003156 0.000247 -0.080599 0.358470 -0.292859
  7 4.117508 -0.002672 -0.002044 0.634024 0.222074 -0.228400
  8 4.443597 0.000001 0.000000 -0.934320 0.234170 -0.217037
  9 9.024063 -0.000000 0.000001 0.000000 0.000000 0.000000
 10 -0.381636 1.004777 1.361689 1.805816 -0.828451 1.536668
 11 6.384776 -0.000000 -0.000001 -0.629806 0.116166 -1.718769
 12 10.242682 0.000001 0.000000 0.000000 0.000000 -1.035752
 13 11.375562 0.000002 -0.000000 -3.126513 0.311094 -0.424771
 14 0.728680 0.023432 -1.008292 1.267228 0.796324 -0.150945
 15 2.136495 -0.000000 0.000002 -0.000000 -0.000000 -0.078540
 16 2.313139 -0.000000 -0.000002 0.000000 0.000000 0.000000
 17 3.115505 -0.886041 -0.021430 -0.117597 -0.382555 -0.171683
 18 2.011151 -0.000002 0.000000 -0.000000 0.000000 0.354134
 19 2.141380 0.000001 0.000001 0.000000 0.000000 0.000000
 20 1.734173 0.000002 -0.000002 0.000000 -0.000000 0.177895
 21 0.000007 -4.440596 0.000002 1.570544 -0.062990 -0.195737
 22 5.999999 0.000001 -0.000001 -2.797668 -0.000000 0.000000
 23 0.000002 -4.440602 0.000001 1.569944 -0.062987 0.004053
 24 11.375561 -0.000001 0.000003 -2.318696 0.262870 -0.150879
 25 -0.000002 -4.440603 -0.000000 1.570144 -0.062988 0.004040
 26 10.510131 0.000002 -0.000001 -0.000000 0.000000 -2.088672
 27 -0.000001 -1.748401 4.999999 -0.000000 0.004007 1.602290
 28 5.500000 0.000002 -0.000001 0.223245 -0.000000 -0.000000
 29 -0.000002 -1.940597 5.000001 -0.044472 0.004003 -0.000180
 30 6.551491 0.000001 -0.000000 -0.529922 0.222858 -1.344916
 31 0.000000 -1.940598 5.000001 -0.027189 -0.053376 0.005295
 32 6.551491 0.000001 -0.000000 -0.164137 0.162483 -0.490418
 33 0.000000 -1.940598 4.999996 -0.066572 -0.152786 -0.110311
 34 0.381635 -0.997699 -1.361689 1.290490 0.947634 -1.623786
 35 6.384777 -0.000001 0.000003 1.149337 0.313530 -1.444000
 36 10.242682 -0.000001 -0.000002 -0.000000 -0.000000 -0.499543
 37 11.375561 0.000001 0.000002 2.033517 0.262134 0.178663
 38 0.728681 0.023430 1.008291 -1.579583 -0.319038 0.212973
 39 2.136495 0.000000 -0.000001 -0.000000 0.000000 1.282817
 40 2.313139 0.000001 0.000001 0.000000 0.000000 3.141593
 41 3.115506 -0.886042 0.021429 0.420766 0.316066 0.167178
 42 2.011152 -0.000001 0.000001 -0.000000 0.000000 2.082010
 43 2.141380 0.000001 0.000000 0.000000 0.000000 3.141593
 44 1.734173 -0.000002 -0.000001 -0.000000 -0.000000 1.041748
 45 0.136315 -3.738193 2.525892 1.493698 2.759406 -1.474501
 46 5.031115 -0.189688 1.849663 -2.967941 -0.035742 1.570790
 47 11.389366 -0.000820 0.158782 1.795749 0.154917 0.082284
 48 -0.000001 -4.440599 -0.000001 1.570144 -3.078602 0.004040
 49 5.999999 -0.000000 0.000001 1.795749 -0.000000 0.000000
 50 0.000002 -4.440601 0.000001 1.569944 -3.078603 0.004053
 51 10.510132 -0.000000 -0.000002 -0.000000 -0.000000 -1.820568
 52 0.000001 -1.748399 -4.999999 -3.141593 0.004007 -1.539299
 53 5.500000 -0.000001 -0.000002 -0.348808 0.000000 -0.000000
 54 -0.000001 -0.000002 -5.000000 -0.044472 3.137589 -0.000177
 55 6.551490 -0.000000 0.000000 0.348808 -0.049164 -0.398374
 56 -1.266844 -1.937443 -4.950562 -0.066572 -2.988806 -0.110308
 57 6.551491 -0.000000 0.000001 0.348808 -0.049164 -0.398374
 58 0.699370 -1.944208 -5.006849 -0.027189 -3.088217 0.005298
 59 4.226147 -0.003202 -0.000001 0.319576 0.098504 -0.145768
 60 -0.000000 5.000001 -0.000001 -0.153565 0.000087 2.718702
 61 0.000006 -0.000004 -3.713579 0.119535 -2.936655 -0.885276
 62 0.000003 0.000000 5.000000 3.053195 1.558589 -0.074929
 63 -0.000005 0.000006 3.713580 -0.311487 -2.845558 -0.582080
 64 0.000001 0.000000 -5.000000 -0.088726 1.558589 3.066335
 65 7.363603 1.646648 0.495664 -3.141593 -1.570796 0.000000
 66 -0.000005 0.000007 3.619082 -0.441735 -2.434423 -1.159240
 67 16.573917 -0.000000 0.000001 -0.000000 -0.000000 -2.011748
 68 15.128181 0.000000 -0.000000 0.026832 0.026147 -0.175154
 69 5.758666 4.244731 0.000000 0.000000 -0.000000 2.033309
 70 3.177727 0.000000 0.000000 0.000000 0.000000 3.141593
 71 15.708951 0.000002 -0.000000 0.013957 0.013894 -0.093781
 72 0.275148 0.189215 -3.445208 3.130898 0.000409 -1.514604
 73 17.210192 -0.000001 0.000002 -0.000000 0.000000 -2.319003
 74 0.000000 -0.000001 -5.000000 -0.079433 1.546568 -1.570857
 75 0.000007 -0.000003 -3.619079 0.260448 -2.945758 -1.468642
 76 16.573919 -0.000000 0.000001 0.000000 0.000000 -1.562392
 77 15.128181 0.000000 0.000001 0.265624 -0.173430 0.666428
 78 5.758665 4.244731 0.000000 -0.000000 0.000000 1.483530
 79 4.003934 -0.000000 0.000000 0.000000 0.000000 0.000000
 80 15.708953 0.000000 0.000000 0.195074 -0.100553 0.460486
 81 0.273998 0.191090 3.439762 -3.130907 -0.000437 -1.508107
 82 17.210194 -0.000000 0.000000 -0.000000 0.000000 -2.116793
 83 0.000000 0.000000 5.000000 -0.079311 1.595025 -1.570737
time 1
  0 0.500000 13.522099 26.931471 -0.243067 0.535714 -2.432935
  1 13.773751 5.584523 -22.520975 -0.544290 0.221328 2.303921
  2 -2.276934 0.000003 -1.238185 -1.570795 -1.570451 0.000000
  3 1.796283 0.711913 0.000118 -0.038434 -0.327950 -0.253231
  4 4.119762 -0.003030 0.000485 -0.152435 0.217476 0.332206
  5 4.119966 -0.002963 0.000360 -0.109806 -0.008568 0.431586
  6 4.117739 -0.003158 0.000193 -0.063324 0.361978 -0.289743
  7 4.117249 -0.002600 -0.001983 0.622061 0.277973 -0.285441
  8 4.443600 0.000001 -0.000001 -0.967491 0.195821 -0.154919
  9 9.024059 -0.000001 0.000001 0.000000 0.000000 0.000000
 10 -0.475468 0.974454 1.354095 -1.354560 -2.315448 -1.513535
 11 6.384777 -0.000000 0.000000 -0.628790 0.046430 -1.794616
 12 10.242681 0.000001 0.000000 -0.000000 -0.000000 -0.919022
 13 11.375559 0.000002 0.000000 -3.126513 0.311094 -0.424772
 14 0.728680 0.023430 -1.008293 1.267227 0.796324 -0.150945
 15 2.136496 -0.000001 -0.000000 0.000000 -0.000000 -0.078540
 16 2.313138 -0.000000 0.000001 0.000000 0.000000 0.000000
 17 3.115505 -0.886041 -0.021431 -0.117597 -0.382555 -0.171683
 18 2.011151 -0.000001 -0.000002 -0.000000 0.000000 0.354134
 19 2.141379 0.000002 -0.000002 0.000000 0.000000 0.000000
 20 1.734172 0.000000 0.000000 -0.000000 0.000000 0.177895
 21 0.000006 -4.440594 0.000001 1.570544 -0.062990 -0.195737
 22 6.000000 -0.000000 0.000002 -2.797668 0.000000 0.000000
 23 0.000003 -4.440601 -0.000001 1.569944 -0.062987 0.004053
 24 11.375560 0.000000 0.000004 -2.318696 0.262870 -0.150879
 25 -0.000002 -4.440603 0.000000 1.570144 -0.062988 0.004040
 26 10.510130 0.000001 -0.000001 -0.000000 -0.000000 -2.030307
 27 0.000001 -1.748401 5.000000 0.000000 0.004007 1.602291
 28 5.500000 0.000001 -0.000001 0.231876 -0.000000 -0.000000
 29 -0.000001 -1.940598 5.000001 -0.044472 0.004003 -0.000180
 30 6.551491 0.000001 0.000002 -0.543267 0.150666 -1.454372
 31 0.000001 -1.940599 5.000000 -0.027189 -0.053376 0.005295
 32 6.551491 0.000001 0.000002 -0.168649 0.137300 -0.505781
 33 -0.000000 -1.940599 4.999997 -0.066572 -0.152786 -0.110311
 34 0.475471 -0.967376 -1.354096 1.416585 1.107642 -1.375522
 35 6.384777 -0.000002 0.000001 1.284425 0.355114 -1.191489
 36 10.242682 0.000000 -0.000001 0.000000 0.000000 -0.487198
 37 11.375561 0.000002 0.000001 2.035423 0.226077 0.183272
 38 0.728681 0.023431 1.008292 -1.579583 -0.319038 0.212973
 39 2.136497 -0.000002 -0.000000 -0.000000 0.000000 1.282817
 40 2.313140 0.000002 -0.000000 0.000000 0.000000 3.141593
 41 3.115507 -0.886041 0.021432 0.420766 0.316066 0.167178
 42 2.011153 -0.000001 -0.000000 -0.000000 0.000000 2.082010
 43 2.141380 0.000000 0.000000 0.000000 0.000000 3.141593
 44 1.734174 -0.000002 -0.000001 0.000000 0.000000 1.041748
 45 0.136314 -3.738191 2.525892 1.493698 2.759406 -1.474501
 46 5.031115 -0.189687 1.849664 -2.967941 -0.035742 1.570790
 47 11.389366 -0.000819 0.158781 1.797830 0.136182 0.087953
 48 0.000002 -4.440599 -0.000001 1.570144 -3.078602 0.004040
 49 6.000000 0.000003 0.000001 1.797830 0.000000 0.000000
 50 0.000002 -4.440600 0.000000 1.569944 -3.078603 0.004053
 51 10.510132 0.000001 -0.000000 -0.000000 0.000000 -1.814395
 52 0.000000 -1.748400 -5.000000 3.141593 0.004007 -1.539299
 53 5.499999 -0.000000 -0.000001 -0.401754 -0.000000 -0.000000
 54 -0.000000 -0.000001 -5.000000 -0.044472 3.137589 -0.000177
 55 6.551491 0.000000 -0.000002 0.401754 -0.039886 -0.331652
 56 -1.266844 -1.937443 -4.950562 -0.066572 -2.988806 -0.110308
 57 6.551491 0.000000 -0.000002 0.401754 -0.039886 -0.331652
 58 0.699370 -1.944208 -5.006847 -0.027189 -3.088217 0.005298
 59 4.226145 -0.003201 -0.000001 0.315077 0.122504 -0.178338
 60 -0.000001 5.000000 -0.000001 -0.153564 0.000087 2.718702
 61 0.000006 -0.000004 -3.713579 0.119535 -2.936655 -0.885276
 62 0.000003 0.000000 5.000000 3.053195 1.558589 -0.074929
 63 -0.000005 0.000006 3.713580 -0.311487 -2.845558 -0.582080
 64 0.000001 0.000000 -5.000000 -0.088726 1.558589 3.066335
 65 7.363603 1.646648 0.495664 -3.141593 -1.570796 0.000000
 66 -0.000005 0.000007 3.619082 -0.441735 -2.434423 -1.159240
 67 16.573917 -0.000000 0.000001 -0.000000 -0.000000 -2.011748
 68 15.128181 0.000000 -0.000000 0.026832 0.026147 -0.175154
 69 5.758666 4.244731 0.000000 0.000000 -0.000000 2.033309
 70 3.177727 0.000000 0.000000 0.000000 0.000000 3.141593
 71 15.708951 0.000002 -0.000000 0.013957 0.013894 -0.093781
 72 0.275148 0.189215 -3.445208 3.130898 0.000409 -1.514604
 73 17.210192 -0.000001 0.000002 -0.000000 0.000000 -2.319003
 74 0.000000 -0.000001 -5.000000 -0.079433 1.546568 -1.570857
 75 0.000007 -0.000003 -3.619079 0.260448 -2.945758 -1.468642
 76 16.573919 -0.000000 0.000001 0.000000 0.000000 -1.562392
 77 15.128181 0.000000 0.000001 0.265624 -0.173430 0.666428
 78 5.758665 4.244731 0.000000 -0.000000 0.000000 1.483530
 79 4.003934 -0.000000 0.000000 0.000000 0.000000 0.000000
 80 15.708953 0.000000 0.000000 0.195074 -0.100553 0.460486
 81 0.273998 0.191090 3.439762 -3.130907 -0.000437 -1.508107
 82 17.210194 -0.000000 0.000000 -0.000000 0.000000 -2.116793
 83 0.000000 0.000000 5.000000 -0.079311 1.595025 -1.570737
time 2
  0 0.500000 13.522099 26.931471 -0.243067 0.535714 -2.432935
  1 13.773751 5.584523 -22.520975 -0.544290 0.221328 2.303921
  2 -2.276934 0.000003 -1.238185 -1.570795 -1.570451 0.000000
  3 1.796310 0.711905 0.000071 -0.023292 -0.324564 -0.250003
  4 4.119762 -0.003037 0.000433 -0.135667 0.221184 0.334927
  5 4.119978 -0.002963 0.000306 -0.093648 -0.004976 0.434397
  6 4.117728 -0.003158 0.000140 -0.046014 0.365435 -0.286558
  7 4.117000 -0.002513 -0.001906 0.606546 0.333090 -0.344204
  8 4.443601 -0.000000 -0.000000 -1.000317 0.157131 -0.092662
  9 9.024060 -0.000001 0.000000 0.000000 0.000000 0.000000
 10 -0.566532 0.936954 1.345396 -1.372865 -2.318911 -1.422534
 11 6.384776 0.000001 0.000001 -0.622340 -0.029123 -1.879170
 12 10.242683 0.000003 -0.000002 0.000000 0.000000 -0.784290
 13 11.375562 0.000001 0.000000 -3.126513 0.311094 -0.424772
 14 0.728681 0.023430 -1.008293 1.267228 0.796324 -0.150945
 15 2.136495 -0.000001 -0.000000 0.000000 -0.000000 -0.078540
 16 2.313141 -0.000000 0.000000 0.000000 0.000000 0.000000
 17 3.115507 -0.886042 -0.021430 -0.117598 -0.382555 -0.171683
 18 2.011149 -0.000001 -0.000001 0.000000 0.000000 0.354134
 19 2.141379 -0.000001 0.000000 0.000000 0.000000 0.000000
 20 1.734173 -0.000002 0.000001 0.000000 -0.000000 0.177895
 21 0.000006 -4.440593 0.000000 1.570544 -0.062990 -0.195737
 22 5.999999 0.000001 -0.000001 -2.797668 -0.000000 -0.000000
 23 0.000001 -4.440602 0.000001 1.569944 -0.062987 0.004053
 24 11.375561 0.000001 0.000002 -2.318696 0.262870 -0.150879
 25 -0.000001 -4.440603 0.000001 1.570144 -0.062988 0.004040
 26 10.510132 0.000003 -0.000002 -0.000000 -0.000000 -1.962941
 27 0.000003 -1.748402 5.000000 -0.000000 0.004007 1.602290
 28 5.500000 0.000001 0.000000 0.235239 -0.000000 0.000000
 29 -0.000001 -1.940599 5.000000 -0.044472 0.004003 -0.000180
 30 6.551490 0.000002 0.000003 -0.541359 0.076765 -1.548994
 31 0.000000 -1.940599 5.000000 -0.027189 -0.053376 0.005295
 32 6.551490 0.000002 0.000003 -0.169392 0.110729 -0.512772
 33 -0.000000 -1.940600 4.999996 -0.066572 -0.152786 -0.110311
 34 0.566540 -0.929878 -1.345396 1.693751 1.246510 -0.991430
 35 6.384776 0.000001 -0.000002 1.409670 0.346837 -0.936315
 36 10.242683 0.000001 0.000000 0.000000 -0.000000 -0.474996
 37 11.375560 0.000000 0.000000 2.037126 0.190435 0.187723
 38 0.728679 0.023431 1.008293 -1.579583 -0.319038 0.212973
 39 2.136496 -0.000001 -0.000001 -0.000000 -0.000000 1.282817
 40 2.313141 -0.000000 -0.000000 0.000000 0.000000 3.141593
 41 3.115504 -0.886041 0.021431 0.420766 0.316066 0.167178
 42 2.011151 -0.000000 -0.000000 -0.000000 0.000000 2.082010
 43 2.141381 -0.000000 0.000001 0.000000 0.000000 3.141593
 44 1.734171 -0.000002 -0.000001 0.000000 0.000000 1.041748
 45 0.136314 -3.738191 2.525890 1.493698 2.759406 -1.474501
 46 5.031112 -0.189687 1.849664 -2.967941 -0.035742 1.570790
 47 11.389365 -0.000820 0.158781 1.799731 0.117412 0.093436
 48 -0.000000 -4.440600 0.000002 1.570144 -3.078602 0.004040
 49 6.000000 -0.000000 -0.000001 1.799731 -0.000000 0.000000
 50 0.000002 -4.440601 -0.000000 1.569944 -3.078603 0.004053
 51 10.510130 0.000000 -0.000000 -0.000000 -0.000000 -1.808294
 52 -0.000002 -1.748399 -4.999999 3.141593 0.004007 -1.539299
 53 5.500000 0.000002 -0.000000 -0.430685 -0.000000 0.000000
 54 0.000000 0.000001 -5.000002 -0.044472 3.137589 -0.000177
 55 6.551490 -0.000001 0.000001 0.430685 -0.042633 -0.287949
 56 -1.266843 -1.937443 -4.950558 -0.066572 -2.988806 -0.110308
 57 6.551491 -0.000000 0.000001 0.430685 -0.042633 -0.287949
 58 0.699372 -1.944209 -5.006846 -0.027189 -3.088217 0.005298
 59 4.226148 -0.003203 -0.000001 0.309684 0.145767 -0.209816
 60 -0.000002 5.000001 -0.000001 -0.153564 0.000087 2.718702
 61 0.000006 -0.000004 -3.713579 0.119535 -2.936655 -0.885276
 62 0.000003 0.000000 5.000000 3.053195 1.558589 -0.074929
 63 -0.000005 0.000006 3.713580 -0.311487 -2.845558 -0.582080
 64 0.000001 0.000000 -5.000000 -0.088726 1.558589 3.066335
 65 7.363603 1.646648 0.495664 -3.141593 -1.570796 0.000000
 66 -0.000005 0.000007 3.619082 -0.441735 -2.434423 -1.159240
 67 16.573917 -0.000000 0.000001 -0.000000 -0.000000 -2.011748
 68 15.128181 0.000000 -0.000000 0.026832 0.026147 -0.175154
 69 5.758666 4.244731 0.000000 0.000000 -0.000000 2.033309
 70 3.177727 0.000000 0.000000 0.000000 0.000000 3.141593
 71 15.708951 0.000002 -0.000000 0.013957 0.013894 -0.093781
 72 0.275148 0.189215 -3.445208 3.130898 0.000409 -1.514604
 73 17.210192 -0.000001 0.000002 -0.000000 0.000000 -2.319003
 74 0.000000 -0.000001 -5.000000 -0.079433 1.546568 -1.570857
 75 0.000007 -0.000003 -3.619079 0.260448 -2.945758 -1.468642
 76 16.573919 -0.000000 0.000001 0.000000 0.000000 -1.562392
 77 15.128181 0.000000 0.000001 0.265624 -0.173430 0.666428
 78 5.758665 4.244731 0.000000 -0.000000 0.000000 1.483530
 79 4.003934 -0.000000 0.000000 0.000000 0.000000 0.000000
 80 15.708953 0.000000 0.000000 0.195074 -0.100553 0.460486
 81 0.273998 0.191090 3.439762 -3.130907 -0.000437 -1.508107
 82 17.210194 -0.000000 0.000000 -0.000000 0.000000 -2.116793
 83 0.000000 0.000000 5.000000 -0.079311 1.595025 -1.570737
time 3
  0 0.500000 13.522099 26.931471 -0.243067 0.535714 -2.432935
  1 13.773751 5.584523 -22.520975 -0.544290 0.221328 2.303921
  2 -2.276934 0.000003 -1.238185 -1.570795 -1.570451 0.000000
  3 1.796326 0.711900 0.000038 -0.012696 -0.322222 -0.247713
  4 4.119764 -0.003042 0.000396 -0.123914 0.223753 0.336872
  5 4.119985 -0.002965 0.000269 -0.082332 -0.002489 0.436399
  6 4.117723 -0.003157 0.000103 -0.033876 0.367824 -0.284288
  7 4.116831 -0.002445 -0.001843 0.593453 0.371091 -0.386590
  8 4.443598 -0.000000 0.000000 -1.023080 0.129865 -0.048972
  9 9.024061 -0.000001 0.000000 0.000000 0.000000 0.000000
 10 -0.628338 0.906563 1.338678 -1.385302 -2.322007 -1.359139
 11 6.384777 -0.000001 -0.000002 -0.613342 -0.086767 -1.946427
 12 10.242682 0.000000 0.000002 -0.000000 -0.000000 -0.673708
 13 11.375560 0.000002 0.000001 -3.126513 0.311094 -0.424772
 14 0.728682 0.023431 -1.008292 1.267228 0.796324 -0.150945
 15 2.136497 -0.000001 0.000000 0.000000 -0.000000 -0.078540
 16 2.313139 -0.000000 0.000001 0.000000 0.000000 0.000000
 17 3.115507 -0.886041 -0.021430 -0.117598 -0.382555 -0.171683
 18 2.011150 0.000001 0.000000 0.000000 0.000000 0.354134
 19 2.141379 -0.000000 -0.000000 0.000000 0.000000 0.000000
 20 1.734173 -0.000000 0.000000 -0.000000 0.000000 0.177895
 21 0.000005 -4.440594 -0.000001 1.570544 -0.062990 -0.195737
 22 6.000000 0.000000 0.000001 -2.797668 0.000000 0.000000
 23 0.000002 -4.440601 0.000001 1.569944 -0.062987 0.004053
 24 11.375561 0.000000 0.000004 -2.318696 0.262870 -0.150879
 25 -0.000000 -4.440604 0.000002 1.570144 -0.062988 0.004040
 26 10.510132 0.000002 0.000000 0.000000 -0.000000 -1.907650
 27 0.000003 -1.748401 5.000000 -0.000000 0.004007 1.602291
 28 5.500000 0.000001 0.000001 0.235497 -0.000000 -0.000000
 29 0.000000 -1.940598 4.999999 -0.044472 0.004003 -0.000180
 30 6.551491 0.000001 0.000002 -0.533905 0.025297 -1.608880
 31 -0.000002 -1.940599 5.000002 -0.027189 -0.053376 0.005295
 32 6.551491 0.000001 0.000002 -0.168439 0.092169 -0.513581
 33 0.000001 -1.940600 4.999994 -0.066572 -0.152786 -0.110311
 34 0.628339 -0.899486 -1.338678 2.008542 1.305873 -0.611166
 35 6.384777 0.000000 -0.000001 1.474271 0.322453 -0.778091
 36 10.242681 0.000000 0.000001 0.000000 0.000000 -0.467479
 37 11.375562 0.000001 -0.000000 2.038090 0.168472 0.190420
 38 0.728681 0.023431 1.008294 -1.579583 -0.319038 0.212973
 39 2.136498 -0.000001 -0.000001 -0.000000 0.000000 1.282817
 40 2.313138 0.000002 -0.000000 0.000000 0.000000 3.141593
 41 3.115505 -0.886041 0.021433 0.420766 0.316066 0.167178
 42 2.011150 0.000001 0.000003 -0.000000 0.000000 2.082010
 43 2.141378 0.000000 -0.000002 0.000000 0.000000 3.141593
 44 1.734172 -0.000001 -0.000001 -0.000000 0.000000 1.041748
 45 0.136316 -3.738193 2.525893 1.493698 2.759406 -1.474501
 46 5.031113 -0.189687 1.849665 -2.967941 -0.035742 1.570790
 47 11.389367 -0.000820 0.158782 1.800824 0.105732 0.096750
 48 0.000000 -4.440600 0.000002 1.570144 -3.078602 0.004040
 49 6.000000 -0.000000 -0.000000 1.800824 0.000000 0.000000
 50 -0.000000 -4.440600 -0.000000 1.569944 -3.078603 0.004053
 51 10.510130 -0.000001 0.000000 -0.000000 -0.000000 -1.804536
 52 -0.000001 -1.748400 -5.000001 -3.141593 0.004007 -1.539299
 53 5.499999 -0.000001 -0.000001 -0.442374 -0.000000 0.000000
 54 -0.000000 0.000000 -4.999998 -0.044472 3.137589 -0.000177
 55 6.551491 -0.000000 -0.000000 0.442374 -0.044090 -0.265474
 56 -1.266843 -1.937443 -4.950562 -0.066572 -2.988806 -0.110308
 57 6.551491 -0.000000 -0.000000 0.442374 -0.044090 -0.265474
 58 0.699370 -1.944208 -5.006848 -0.027189 -3.088217 0.005298
 59 4.226145 -0.003201 -0.000001 0.305428 0.161650 -0.231295
 60 -0.000000 5.000001 -0.000000 -0.153565 0.000087 2.718702
 61 0.000006 -0.000004 -3.713579 0.119535 -2.936655 -0.885276
 62 0.000003 0.000000 5.000000 3.053195 1.558589 -0.074929
 63 -0.000005 0.000006 3.713580 -0.311487 -2.845558 -0.582080
 64 0.000001 0.000000 -5.000000 -0.088726 1.558589 3.066335
 65 7.363603 1.646648 0.495664 -3.141593 -1.570796 0.000000
 66 -0.000005 0.000007 3.619082 -0.441735 -2.434423 -1.159240
 67 16.573917 -0.000000 0.000001 -0.000000 -0.000000 -2.011748
 68 15.128181 0.000000 -0.000000 0.026832 0.026147 -0.175154
 69 5.758666 4.244731 0.000000 0.000000 -0.000000 2.033309
 70 3.177727 0.000000 0.000000 0.000000 0.000000 3.141593
 71 15.708951 0.000002 -0.000000 0.013957 0.013894 -0.093781
 72 0.275148 0.189215 -3.445208 3.130898 0.000409 -1.514604
 73 17.210192 -0.000001 0.000002 -0.000000 0.000000 -2.319003
 74 0.000000 -0.000001 -5.000000 -0.079433 1.546568 -1.570857
 75 0.000007 -0.000003 -3.619079 0.260448 -2.945758 -1.468642
 76 16.573919 -0.000000 0.000001 0.000000 0.000000 -1.562392
 77 15.128181 0.000000 0.000001 0.265624 -0.173430 0.666428
 78 5.758665 4.244731 0.000000 -0.000000 0.000000 1.483530
 79 4.003934 -0.000000 0.000000 0.000000 0.000000 0.000000
 80 15.708953 0.000000 0.000000 0.195074 -0.100553 0.460486
 81 0.273998 0.191090 3.439762 -3.130907 -0.000437 -1.508107
 82 17.210194 -0.000000 0.000000 -0.000000 0.000000 -2.116793
 83 0.000000 0.000000 5.000000 -0.079311 1.595025 -1.570737
time 4
  0 0.500000 13.522099 26.931471 -0.243067 0.535714 -2.432935
  1 13.773751 5.584523 -22.520975 -0.544290 0.221328 2.303921
  2 -2.276934 0.000003 -1.238185 -1.570795 -1.570451 0.000000
  3 1.796334 0.711898 0.000028 -0.009669 -0.321557 -0.247055
  4 4.119763 -0.003045 0.000384 -0.120554 0.224483 0.337433
  5 4.119984 -0.002960 0.000263 -0.079098 -0.001782 0.436976
  6 4.117720 -0.003159 0.000092 -0.030405 0.368502 -0.283633
  7 4.116786 -0.002426 -0.001824 0.589361 0.381847 -0.398915
  8 4.443599 -0.000000 -0.000000 -1.029550 0.122049 -0.036469
  9 9.024063 -0.000001 0.000001 0.000000 0.000000 0.000000
 10 -0.645671 0.897268 1.336665 -1.388789 -2.322990 -1.341080
 11 6.384776 0.000001 0.000001 -0.609861 -0.104220 -1.967428
 12 10.242683 0.000002 -0.000002 0.000000 -0.000000 -0.638551
 13 11.375561 -0.000002 0.000002 -3.126513 0.311094 -0.424772
 14 0.728680 0.023432 -1.008292 1.267228 0.796324 -0.150945
 15 2.136496 -0.000000 -0.000000 -0.000000 0.000000 -0.078540
 16 2.313140 -0.000001 0.000001 0.000000 0.000000 0.000000
 17 3.115507 -0.886041 -0.021432 -0.117598 -0.382555 -0.171683
 18 2.011150 -0.000000 0.000000 0.000000 0.000000 0.354134
 19 2.141380 -0.000001 0.000000 0.000000 0.000000 0.000000
 20 1.734172 -0.000000 0.000002 -0.000000 -0.000000 0.177895
 21 0.000006 -4.440594 -0.000000 1.570544 -0.062990 -0.195737
 22 6.000000 -0.000000 0.000000 -2.797668 0.000000 -0.000000
 23 0.000001 -4.440601 0.000000 1.569944 -0.062987 0.004053
 24 11.375562 -0.000001 0.000004 -2.318696 0.262870 -0.150879
 25 -0.000002 -4.440604 0.000002 1.570144 -0.062988 0.004040
 26 10.510132 0.000001 -0.000001 0.000000 0.000000 -1.890072
 27 0.000001 -1.748401 5.000000 -0.000000 0.004007 1.602290
 28 5.500001 0.000001 -0.000001 0.235362 -0.000000 -0.000000
 29 -0.000001 -1.940598 5.000000 -0.044472 0.004003 -0.000180
 30 6.551490 -0.000001 -0.000003 -0.531132 0.010483 -1.625543
 31 -0.000000 -1.940599 5.000002 -0.027189 -0.053376 0.005295
 32 6.551490 -0.000001 -0.000003 -0.168013 0.086869 -0.513254
 33 -0.000000 -1.940599 4.999995 -0.066572 -0.152786 -0.110311
 34 0.645674 -0.890192 -1.336666 2.134668 1.317598 -0.467015
 35 6.384776 -0.000002 0.000002 1.491736 0.311199 -0.730380
 36 10.242682 0.000001 0.000000 0.000000 -0.000000 -0.465104
 37 11.375562 0.000001 0.000000 2.038381 0.161532 0.191266
 38 0.728680 0.023430 1.008294 -1.579583 -0.319038 0.212973
 39 2.136497 0.000002 -0.000001 -0.000000 0.000000 1.282817
 40 2.313139 -0.000001 -0.000001 0.000000 0.000000 3.141593
 41 3.115509 -0.886041 0.021431 0.420766 0.316066 0.167178
 42 2.011150 0.000000 -0.000001 -0.000000 -0.000000 2.082010
 43 2.141379 0.000001 -0.000003 0.000000 0.000000 3.141593
 44 1.734174 -0.000002 -0.000003 -0.000000 -0.000000 1.041748
 45 0.136314 -3.738192 2.525889 1.493698 2.759406 -1.474501
 46 5.031113 -0.189688 1.849664 -2.967941 -0.035742 1.570790
 47 11.389367 -0.000818 0.158782 1.801157 0.102024 0.097787
 48 -0.000000 -4.440599 -0.000001 1.570144 -3.078602 0.004040
 49 6.000000 -0.000001 0.000000 1.801157 0.000000 -0.000000
 50 0.000001 -4.440600 -0.000002 1.569944 -3.078603 0.004053
 51 10.510131 0.000002 0.000002 -0.000000 0.000000 -1.803348
 52 0.000000 -1.748401 -5.000002 3.141593 0.004007 -1.539299
 53 5.499999 -0.000000 -0.000000 -0.445351 -0.000000 0.000000
 54 -0.000001 -0.000001 -4.999999 -0.044472 3.137589 -0.000177
 55 6.551490 -0.000001 0.000001 0.445351 -0.044665 -0.258705
 56 -1.266844 -1.937443 -4.950561 -0.066572 -2.988806 -0.110308
 57 6.551490 -0.000002 0.000000 0.445351 -0.044665 -0.258705
 58 0.699371 -1.944209 -5.006847 -0.027189 -3.088217 0.005298
 59 4.226146 -0.003201 0.000000 0.304143 0.166133 -0.237361
 60 -0.000002 5.000001 -0.000001 -0.153564 0.000087 2.718702
 61 0.000006 -0.000004 -3.713579 0.119535 -2.936655 -0.885276
 62 0.000003 0.000000 5.000000 3.053195 1.558589 -0.074929
 63 -0.000005 0.000006 3.713580 -0.311487 -2.845558 -0.582080
 64 0.000001 0.000000 -5.000000 -0.088726 1.558589 3.066335
 65 7.363603 1.646648 0.495664 -3.141593 -1.570796 0.000000
 66 -0.000005 0.000007 3.619082 -0.441735 -2.434423 -1.159240
 67 16.573917 -0.000001 0.000001 -0.000000 -0.000000 -2.011748
 68 15.128180 0.000001 0.000001 0.026832 0.026147 -0.175154
 69 5.758666 4.244731 0.000000 0.000000 -0.000000 2.033309
 70 3.177727 0.000000 0.000000 0.000000 0.000000 3.141593
 71 15.708951 0.000002 0.000001 0.013957 0.013894 -0.093781
 72 0.275148 0.189215 -3.445208 3.130898 0.000409 -1.514604
 73 17.210192 -0.000002 0.000002 -0.000000 0.000000 -2.319003
 74 0.000000 -0.000001 -4.999999 -0.079433 1.546568 -1.570857
 75 0.000007 -0.000003 -3.619079 0.260448 -2.945758 -1.468642
 76 16.573919 -0.000000 0.000001 0.000000 0.000000 -1.562392
 77 15.128181 0.000000 0.000001 0.265624 -0.173430 0.666428
 78 5.758665 4.244731 0.000000 -0.000000 0.000000 1.483530
 79 4.003934 -0.000000 0.000000 0.000000 0.000000 0.000000
 80 15.708953 0.000000 0.000000 0.195074 -0.100553 0.460486
 81 0.273998 0.191090 3.439762 -3.130907 -0.000437 -1.508107
 82 17.210194 -0.000000 0.000000 -0.000000 0.000000 -2.116793
 83 0.000000 0.000000 5.000000 -0.079311 1.595025 -1.570737
time 5
  0 0.500000 13.522099 26.931471 -0.243067 0.535714 -2.432935
  1 13.773751 5.584523 -22.520975 -0.544290 0.221328 2.303921
  2 -2.276934 0.000003 -1.238185 -1.570795 -1.570451 0.000000
  3 1.796329 0.711900 0.000033 -0.011182 -0.321889 -0.247384
  4 4.119764 -0.003043 0.000390 -0.122234 0.224118 0.337152
  5 4.119986 -0.002963 0.000265 -0.080715 -0.002135 0.436687
  6 4.117721 -0.003158 0.000096 -0.032141 0.368163 -0.283961
  7 4.116806 -0.002435 -0.001834 0.591427 0.376475 -0.392740
  8 4.443602 -0.000001 -0.000001 -1.026317 0.125958 -0.042722
  9 9.024060 -0.000001 0.000001 0.000000 0.000000 0.000000
 10 -0.637020 0.901948 1.337677 -1.387049 -2.322493 -1.350107
 11 6.384776 0.000001 -0.000002 -0.611660 -0.095429 -1.956808
 12 10.242682 0.000002 0.000001 0.000000 0.000000 -0.656368
 13 11.375562 0.000000 0.000002 -3.126513 0.311094 -0.424772
 14 0.728681 0.023433 -1.008296 1.267228 0.796324 -0.150945
 15 2.136497 0.000000 0.000001 -0.000000 0.000000 -0.078540
 16 2.313140 -0.000000 0.000001 0.000000 0.000000 0.000000
 17 3.115506 -0.886041 -0.021433 -0.117598 -0.382555 -0.171683
 18 2.011151 -0.000001 0.000000 -0.000000 0.000000 0.354134
 19 2.141380 -0.000001 0.000001 0.000000 0.000000 0.000000
 20 1.734172 0.000001 0.000002 0.000000 0.000000 0.177895
 21 0.000006 -4.440594 0.000001 1.570544 -0.062990 -0.195737
 22 6.000000 -0.000000 0.000002 -2.797668 0.000000 -0.000000
 23 0.000002 -4.440602 -0.000000 1.569944 -0.062987 0.004053
 24 11.375561 0.000001 0.000004 -2.318696 0.262870 -0.150879
 25 0.000000 -4.440603 0.000000 1.570144 -0.062988 0.004040
 26 10.510129 0.000000 0.000001 -0.000000 0.000000 -1.898980
 27 0.000002 -1.748400 4.999998 -0.000000 0.004007 1.602290
 28 5.499999 0.000000 0.000001 0.235439 -0.000000 -0.000000
 29 -0.000001 -1.940598 5.000000 -0.044472 0.004003 -0.000180
 30 6.551491 0.000001 -0.000002 -0.532549 0.017905 -1.617220
 31 -0.000000 -1.940599 5.000000 -0.027189 -0.053376 0.005295
 32 6.551491 0.000001 -0.000002 -0.168234 0.089521 -0.513448
 33 -0.000001 -1.940599 4.999998 -0.066572 -0.152786 -0.110311
 34 0.637029 -0.894873 -1.337677 2.070129 1.312261 -0.540503
 35 6.384776 0.000001 -0.000002 1.483188 0.316983 -0.754163
 36 10.242682 -0.000000 0.000001 -0.000000 -0.000000 -0.466291
 37 11.375562 0.000001 0.000000 2.038236 0.165002 0.190844
 38 0.728682 0.023432 1.008293 -1.579583 -0.319038 0.212973
 39 2.136496 0.000001 -0.000000 -0.000000 -0.000000 1.282817
 40 2.313140 0.000001 0.000000 0.000000 0.000000 3.141593
 41 3.115506 -0.886041 0.021432 0.420766 0.316066 0.167178
 42 2.011155 -0.000001 0.000000 0.000000 0.000000 2.082010
 43 2.141380 0.000001 0.000000 0.000000 0.000000 3.141593
 44 1.734171 -0.000001 -0.000003 0.000000 -0.000000 1.041748
 45 0.136316 -3.738193 2.525892 1.493698 2.759406 -1.474501
 46 5.031114 -0.189687 1.849663 -2.967941 -0.035742 1.570790
 47 11.389367 -0.000821 0.158781 1.800991 0.103879 0.097269
 48 -0.000001 -4.440599 0.000001 1.570144 -3.078602 0.004040
 49 6.000000 0.000001 -0.000000 1.800991 -0.000000 -0.000000
 50 -0.000000 -4.440600 -0.000000 1.569944 -3.078603 0.004053
 51 10.510132 -0.000000 0.000002 0.000000 0.000000 -1.803942
 52 -0.000001 -1.748401 -5.000000 -3.141593 0.004007 -1.539299
 53 5.500000 -0.000001 0.000001 -0.443898 -0.000000 -0.000000
 54 -0.000000 -0.000001 -5.000000 -0.044472 3.137589 -0.000177
 55 6.551490 0.000001 -0.000001 0.443898 -0.044387 -0.262083
 56 -1.266842 -1.937443 -4.950559 -0.066572 -2.988806 -0.110308
 57 6.551492 0.000001 -0.000001 0.443898 -0.044387 -0.262083
 58 0.699371 -1.944207 -5.006846 -0.027189 -3.088217 0.005298
 59 4.226145 -0.003202 -0.000001 0.304789 0.163894 -0.234331
 60 0.000002 5.000000 -0.000000 -0.153564 0.000087 2.718702
 61 0.000006 -0.000004 -3.713579 0.119535 -2.936655 -0.885276
 62 0.000003 0.000000 5.000000 3.053195 1.558589 -0.074929
 63 -0.000005 0.000006 3.713580 -0.311487 -2.845558 -0.582080
 64 0.000001 0.000000 -5.000000 -0.088726 1.558589 3.066335
 65 7.363603 1.646648 0.495664 -3.141593 -1.570796 0.000000
 66 -0.000005 0.000007 3.619082 -0.441735 -2.434423 -1.159240
 67 16.573917 -0.000001 0.000001 -0.000000 -0.000000 -2.011748
 68 15.128180 0.000001 0.000001 0.026832 0.026147 -0.175154
 69 5.758666 4.244731 0.000000 0.000000 -0.000000 2.033309
 70 3.177727 0.000000 0.000000 0.000000 0.000000 3.141593
 71 15.708951 0.000002 0.000001 0.013957 0.013894 -0.093781
 72 0.275148 0.189215 -3.445208 3.130898 0.000409 -1.514604
 73 17.210192 -0.000002 0.000002 -0.000000 0.000000 -2.319003
 74 0.000000 -0.000001 -4.999999 -0.079433 1.546568 -1.570857
 75 0.000007 -0.000003 -3.619079 0.260448 -2.945758 -1.468642
 76 16.573919 -0.000000 0.000001 0.000000 0.000000 -1.562392
 77 15.128181 0.000000 0.000001 0.265624 -0.173430 0.666428
 78 5.758665 4.244731 0.000000 -0.000000 0.000000 1.483530
 79 4.003934 -0.000000 0.000000 0.000000 0.000000 0.000000
 80 15.708953 0.000000 0.000000 0.195074 -0.100553 0.460486
 81 0.273998 0.191090 3.439762 -3.130907 -0.000437 -1.508107
 82 17.210194 -0.000000 0.000000 -0.000000 0.000000 -2.116793
 83 0.000000 0.000000 5.000000 -0.079311 1.595025 -1.570737
time 6
  0 0.500000 13.522099 26.931471 -0.243067 0.535714 -2.432935
  1 13.773751 5.584523 -22.520975 -0.544290 0.221328 2.303921
  2 -2.276934 0.000003 -1.238185 -1.570795 -1.570451 0.000000
  3 1.796326 0.711900 0.000038 -0.012696 -0.322222 -0.247713
  4 4.119764 -0.003042 0.000396 -0.123914 0.223753 0.336872
  5 4.119985 -0.002965 0.000269 -0.082332 -0.002489 0.436399
  6 4.117723 -0.003157 0.000103 -0.033876 0.367824 -0.284288
  7 4.116831 -0.002445 -0.001843 0.593453 0.371091 -0.386590
  8 4.443598 -0.000000 0.000000 -1.023080 0.129865 -0.048972
  9 9.024061 -0.000001 0.000000 0.000000 0.000000 0.000000
 10 -0.628338 0.906563 1.338678 -1.385302 -2.322007 -1.359139
 11 6.384777 -0.000001 -0.000002 -0.613342 -0.086767 -1.946426
 12 10.242682 -0.000000 0.000002 0.000000 -0.000000 -0.673709
 13 11.375560 0.000004 -0.000001 -3.126513 0.311094 -0.424772
 14 0.728680 0.023433 -1.008291 1.267228 0.796324 -0.150945
 15 2.136497 -0.000001 0.000000 -0.000000 -0.000000 -0.078540
 16 2.313139 -0.000000 0.000001 0.000000 0.000000 0.000000
 17 3.115505 -0.886041 -0.021431 -0.117598 -0.382555 -0.171683
 18 2.011151 0.000000 -0.000001 0.000000 0.000000 0.354134
 19 2.141379 -0.000000 -0.000001 0.000000 0.000000 0.000000
 20 1.734172 -0.000001 -0.000001 0.000000 0.000000 0.177895
 21 0.000007 -4.440594 -0.000002 1.570544 -0.062990 -0.195737
 22 6.000000 0.000002 0.000000 -2.797668 0.000000 0.000000
 23 0.000000 -4.440601 0.000003 1.569944 -0.062987 0.004053
 24 11.375561 0.000003 0.000003 -2.318696 0.262870 -0.150879
 25 -0.000001 -4.440605 0.000002 1.570144 -0.062988 0.004040
 26 10.510132 0.000002 -0.000000 0.000000 -0.000000 -1.907651
 27 0.000001 -1.748400 5.000000 0.000000 0.004007 1.602290
 28 5.500001 0.000001 -0.000000 0.235497 0.000000 -0.000000
 29 -0.000001 -1.940598 4.999999 -0.044472 0.004003 -0.000180
 30 6.551491 0.000001 0.000002 -0.533905 0.025297 -1.608879
 31 -0.000001 -1.940599 5.000002 -0.027189 -0.053376 0.005295
 32 6.551491 0.000001 0.000002 -0.168439 0.092169 -0.513581
 33 0.000000 -1.940599 4.999993 -0.066572 -0.152786 -0.110311
 34 0.628339 -0.899486 -1.338678 2.008542 1.305873 -0.611166
 35 6.384777 0.000000 -0.000001 1.474271 0.322453 -0.778091
 36 10.242681 0.000000 0.000001 0.000000 0.000000 -0.467479
 37 11.375562 0.000001 -0.000000 2.038090 0.168472 0.190420
 38 0.728680 0.023431 1.008294 -1.579583 -0.319038 0.212973
 39 2.136498 -0.000000 -0.000000 -0.000000 0.000000 1.282817
 40 2.313139 0.000002 0.000001 0.000000 0.000000 3.141593
 41 3.115505 -0.886041 0.021432 0.420766 0.316066 0.167178
 42 2.011150 0.000001 0.000002 -0.000000 0.000000 2.082010
 43 2.141378 0.000001 -0.000003 0.000000 0.000000 3.141593
 44 1.734172 -0.000001 -0.000002 -0.000000 0.000000 1.041748
 45 0.136316 -3.738193 2.525892 1.493698 2.759406 -1.474501
 46 5.031113 -0.189687 1.849664 -2.967941 -0.035742 1.570790
 47 11.389367 -0.000820 0.158782 1.800824 0.105732 0.096750
 48 0.000000 -4.440598 0.000002 1.570144 -3.078602 0.004040
 49 6.000000 -0.000000 -0.000000 1.800824 0.000000 0.000000
 50 -0.000000 -4.440600 -0.000000 1.569944 -3.078603 0.004053
 51 10.510130 -0.000001 0.000000 -0.000000 -0.000000 -1.804536
 52 -0.000001 -1.748400 -5.000001 -3.141593 0.004007 -1.539299
 53 5.499999 -0.000001 -0.000001 -0.442374 -0.000000 0.000000
 54 -0.000000 0.000000 -4.999998 -0.044472 3.137589 -0.000177
 55 6.551491 -0.000000 -0.000000 0.442374 -0.044090 -0.265474
 56 -1.266843 -1.937443 -4.950562 -0.066572 -2.988806 -0.110308
 57 6.551491 -0.000000 -0.000000 0.442374 -0.044090 -0.265474
 58 0.699370 -1.944208 -5.006848 -0.027189 -3.088217 0.005298
 59 4.226145 -0.003201 -0.000001 0.305428 0.161650 -0.231295
 60 -0.000000 5.000001 -0.000000 -0.153565 0.000087 2.718702
 61 0.000006 -0.000004 -3.713579 0.119535 -2.936655 -0.885276
 62 0.000003 0.000000 5.000000 3.053195 1.558589 -0.074929
 63 -0.000005 0.000006 3.713580 -0.311487 -2.845558 -0.582080
 64 0.000001 0.000000 -5.000000 -0.088726 1.558589 3.066335
 65 7.363603 1.646648 0.495664 -3.141593 -1.570796 0.000000
 66 -0.000005 0.000007 3.619082 -0.441735 -2.434423 -1.159240
 67 16.573917 -0.000001 0.000001 -0.000000 -0.000000 -2.011748
 68 15.128180 0.000001 0.000001 0.026832 0.026147 -0.175154
 69 5.758666 4.244731 0.000000 0.000000 -0.000000 2.033309
 70 3.177727 0.000000 0.000000 0.000000 0.000000 3.141593
 71 15.708951 0.000002 0.000001 0.013957 0.013894 -0.093781
 72 0.275148 0.189215 -3.445208 3.130898 0.000409 -1.514604
 73 17.210192 -0.000002 0.000002 -0.000000 0.000000 -2.319003
 74 0.000000 -0.000001 -4.999999 -0.079433 1.546568 -1.570857
 75 0.000007 -0.000003 -3.619079 0.260448 -2.945758 -1.468642
 76 16.573919 -0.000000 0.000001 0.000000 0.000000 -1.562392
 77 15.128181 0.000000 0.000001 0.265624 -0.173430 0.666428
 78 5.758665 4.244731 0.000000 -0.000000 0.000000 1.483530
 79 4.003934 -0.000000 0.000000 0.000000 0.000000 0.000000
 80 15.708953 0.000000 0.000000 0.195074 -0.100553 0.460486
 81 0.273998 0.191090 3.439762 -3.130907 -0.000437 -1.508107
 82 17.210194 -0.000000 0.000000 -0.000000 0.000000 -2.116793
 83 0.000000 0.000000 5.000000 -0.079311 1.595025 -1.570737
end
