version 1
nodes
  0 "Bip01"  -1
  1 "Bip01 Footsteps"   0
  2 "Bip01 Pelvis"   0
  3 "Bip01 Spine"   2
  4 "Bip01 Spine1"   3
  5 "Bip01 Spine2"   4
  6 "Bip01 Spine3"   5
  7 "Bip01 Neck"   6
  8 "Bip01 Head"   7
  9 "Dummy21"   8
 10 "Bip01 L Clavicle"   7
 11 "Bip01 L UpperArm"  10
 12 "Bip01 L Forearm"  11
 13 "Bip01 L Hand"  12
 14 "Bip01 L Finger0"  13
 15 "Bip01 L Finger01"  14
 16 "Dummy06"  15
 17 "Bip01 L Finger1"  13
 18 "Bip01 L Finger11"  17
 19 "Dummy03"  18
 20 "-- L knuckle"  17
 21 "-- L knuckle_end"  20
 22 "-- L Forearm twist"  12
 23 "-- L Forearm twist_end"  22
 24 "-- L wrist"  12
 25 "-- L wrist_end"  24
 26 "-- L Elbow"  11
 27 "--L Elbow_end"  26
 28 "-- L bicep twist"  11
 29 "-- L bicep twist_end"  28
 30 "-- L shoulder outside"  10
 31 "-- L shoulder outside_end"  30
 32 "-- L Shoulder inside"  10
 33 "-- L Shoulder inside_end"  32
 34 "Bip01 R Clavicle"   7
 35 "Bip01 R UpperArm"  34
 36 "Bip01 R Forearm"  35
 37 "Bip01 R Hand"  36
 38 "Bip01 R Finger0"  37
 39 "Bip01 R Finger01"  38
 40 "Dummy01"  39
 41 "Bip01 R Finger1"  37
 42 "Bip01 R Finger11"  41
 43 "Dummy02"  42
 44 "-- R knuckle"  41
 45 "Point06"  44
 46 "Beretta Elite"  37
 47 "-- R wrist"  36
 48 "-- R wrist_end"  47
 49 "-- R forearm twist"  36
 50 "-- R forearm twist_end"  49
 51 "-- R Elbow"  35
 52 "--R Elbow_end"  51
 53 "-- R bicep twist"  35
 54 "-- R bicep twist_end"  53
 55 "-- R Shoulder inside"  34
 56 "-- R Shoulder inside_end"  55
 57 "-- R shoulder outside"  34
 58 "-- R shoulder outside_end"  57
 59 "-- Neck smooth"   6
 60 "-- neck smooth end"  59
 61 "-- R Butt"   2
 62 "--R Butt_end"  61
 63 "-- L butt"   2
 64 "--L butt_end"  63
 65 "GIGN01"   2
 66 "Bip01 L Thigh"   2
 67 "Bip01 L Calf"  66
 68 "Bip01 L Foot"  67
 69 "Bip01 L Toe0"  68
 70 "Dummy16"  69
 71 "-- L ankle"  67
 72 "-- L ankleend"  71
 73 "-- L Knee"  66
 74 "--L Knee_end"  73
 75 "Bip01 R Thigh"   2
 76 "Bip01 R Calf"  75
 77 "Bip01 R Foot"  76
 78 "Bip01 R Toe0"  77
 79 "Dummy11"  78
 80 "-- R Ankle"  76
 81 "-- R ankleend"  80
 82 "-- R Knee"  75
 83 "--R Knee_end"  82
end
skeleton
time 0
  0 0.500000 13.522099 26.931471 -0.243067 0.535714 -2.432935
  1 13.773751 5.584523 -22.520975 -0.544290 0.221328 2.303921
  2 -2.276934 0.000003 -1.238185 -1.570795 -1.570451 0.000000
  3 1.796240 0.711923 0.000038 -0.012679 -0.322432 -0.275314
  4 4.119905 -0.003005 0.000210 -0.065401 0.170548 0.396990
  5 4.120150 -0.002888 0.000123 -0.037322 -0.057713 0.493490
  6 4.117832 -0.003185 -0.000100 0.031785 0.309343 -0.227331
  7 4.118310 -0.003374 0.001028 -0.330709 0.463557 -0.238424
  8 4.443598 0.000000 -0.000000 0.012758 0.282634 0.254472
  9 9.024061 0.000000 0.000001 0.000000 0.000000 0.000000
 10 -0.774754 -0.499728 1.465878 0.490227 -1.287313 2.687371
 11 6.384776 0.000000 -0.000001 -0.352493 0.091078 -1.280468
 12 10.242682 0.000000 -0.000001 0.000000 0.000000 -1.133874
 13 11.375561 0.000001 -0.000001 -3.117786 0.311094 -0.424772
 14 0.728681 0.023433 -1.008294 1.267228 0.796324 -0.150945
 15 2.136498 -0.000000 0.000001 -0.000000 0.000000 -0.078540
 16 2.313138 0.000000 -0.000001 0.000000 0.000000 0.000000
 17 3.115507 -0.886041 -0.021433 -0.274677 -0.382555 -0.171683
 18 2.011150 0.000000 0.000001 0.000000 0.000000 0.354134
 19 2.141380 0.000001 -0.000001 0.000000 0.000000 0.000000
 20 1.734172 -0.000000 0.000001 -0.000000 0.000000 0.177895
 21 0.000006 -4.440595 0.000002 1.570544 -0.062990 -0.195737
 22 6.000000 0.000001 -0.000001 -2.789902 -0.000000 -0.000000
 23 0.000001 -4.440601 0.000001 1.569944 -0.062987 0.004053
 24 11.375562 0.000001 0.000003 -2.314492 0.262184 -0.151352
 25 0.000000 -4.440604 -0.000000 1.570144 -0.062988 0.004040
 26 10.510131 0.000001 -0.000002 0.000000 -0.000000 -2.137733
 27 0.000000 -1.748400 4.999998 0.000000 0.004007 1.602291
 28 5.500000 0.000001 -0.000002 0.135162 -0.000000 0.000000
 29 0.000000 -1.940598 5.000000 -0.044472 0.004003 -0.000180
 30 6.551489 0.000002 0.000001 -0.262231 0.144473 -0.744068
 31 -0.000000 -1.940598 5.000000 -0.027189 -0.053376 0.005295
 32 6.551489 0.000002 0.000001 -0.109363 0.091456 -0.343003
 33 -0.000001 -1.940598 4.999997 -0.066572 -0.152786 -0.110311
 34 0.774756 0.506805 -1.465878 -2.727958 1.191035 0.564848
 35 6.384775 -0.000001 -0.000001 0.365888 -0.297569 -0.747573
 36 10.242682 -0.000001 0.000000 0.000000 -0.000000 -2.042315
 37 11.375561 0.000001 0.000002 3.061199 0.171219 1.304138
 38 0.728683 0.023431 1.008290 -1.579583 -0.319038 0.212973
 39 2.136495 -0.000002 -0.000000 0.000000 0.000000 1.282817
 40 2.313141 -0.000001 -0.000000 0.000000 0.000000 3.141593
 41 3.115508 -0.886040 0.021429 0.420766 0.316066 0.167178
 42 2.011152 -0.000000 0.000002 0.000000 0.000000 2.082010
 43 2.141381 0.000001 -0.000001 0.000000 0.000000 3.141593
 44 1.734173 -0.000000 0.000003 -0.000000 0.000000 1.041748
 45 0.136315 -3.738192 2.525890 1.493698 2.759406 -1.474501
 46 5.031114 -0.189688 1.849662 -2.967941 -0.035742 1.570790
 47 11.389367 -0.000819 0.158781 2.275092 0.336368 0.595062
 48 0.000000 -4.440599 0.000001 1.570144 -3.078602 0.004040
 49 6.000000 -0.000001 -0.000001 2.275092 0.000000 0.000000
 50 0.000003 -4.440602 -0.000001 1.569944 -3.078603 0.004053
 51 10.510132 -0.000001 0.000002 0.000000 -0.000000 -2.591954
 52 0.000000 -1.748399 -5.000000 -3.141593 0.004007 -1.539299
 53 5.500000 -0.000000 0.000000 -0.092553 -0.000000 0.000000
 54 0.000000 0.000000 -5.000001 -0.044472 3.137589 -0.000177
 55 6.551489 0.000000 -0.000001 0.092553 -0.121055 -0.247066
 56 -1.266842 -1.937442 -4.950560 -0.066572 -2.988806 -0.110308
 57 6.551490 -0.000000 -0.000001 0.092553 -0.121055 -0.247066
 58 0.699372 -1.944209 -5.006845 -0.027189 -3.088217 0.005298
 59 4.226145 -0.003203 -0.000001 -0.150648 0.247680 -0.105131
 60 -0.000000 5.000000 -0.000000 -0.153564 0.000087 2.718702
 61 0.000006 -0.000004 -3.713579 0.119535 -2.936655 -0.885276
 62 0.000003 0.000000 5.000000 3.053195 1.558589 -0.074929
 63 -0.000005 0.000006 3.713580 -0.311487 -2.845558 -0.582080
 64 0.000001 0.000000 -5.000000 -0.088726 1.558589 3.066335
 65 7.363603 1.646648 0.495664 -3.141593 -1.570796 0.000000
 66 -0.000005 0.000007 3.619082 -0.441735 -2.434423 -1.159240
 67 16.573917 -0.000000 0.000001 -0.000000 -0.000000 -2.011748
 68 15.128181 0.000000 -0.000000 0.026832 0.026147 -0.175154
 69 5.758666 4.244731 0.000000 0.000000 -0.000000 2.033309
 70 3.177727 0.000000 0.000000 0.000000 0.000000 3.141593
 71 15.708951 0.000002 -0.000000 0.013957 0.013894 -0.093781
 72 0.275148 0.189215 -3.445208 3.130898 0.000409 -1.514604
 73 17.210192 -0.000001 0.000002 -0.000000 0.000000 -2.319003
 74 0.000000 -0.000001 -5.000000 -0.079433 1.546568 -1.570857
 75 0.000007 -0.000003 -3.619079 0.260448 -2.945758 -1.468642
 76 16.573919 -0.000000 0.000001 0.000000 0.000000 -1.562392
 77 15.128181 0.000000 0.000001 0.265624 -0.173430 0.666428
 78 5.758665 4.244731 0.000000 -0.000000 0.000000 1.483530
 79 4.003934 -0.000000 0.000000 0.000000 0.000000 0.000000
 80 15.708953 0.000000 0.000000 0.195074 -0.100553 0.460486
 81 0.273998 0.191090 3.439762 -3.130907 -0.000437 -1.508107
 82 17.210194 -0.000000 0.000000 -0.000000 0.000000 -2.116793
 83 0.000000 0.000000 5.000000 -0.079311 1.595025 -1.570737
time 1
  0 0.500000 13.522099 26.931471 -0.243067 0.535714 -2.432935
  1 13.773751 5.584523 -22.520975 -0.544290 0.221328 2.303921
  2 -2.276934 0.000003 -1.238185 -1.570795 -1.570451 0.000000
  3 1.796273 0.711914 0.000038 -0.012686 -0.322354 -0.265091
  4 4.119928 -0.002995 0.000196 -0.060499 0.171113 0.406813
  5 4.120179 -0.002874 0.000115 -0.034649 -0.057409 0.503197
  6 4.117860 -0.003194 -0.000121 0.038112 0.308959 -0.217160
  7 4.118310 -0.003371 0.001029 -0.330709 0.463557 -0.238424
  8 4.443598 -0.000001 0.000001 0.040447 0.290722 0.255770
  9 9.024062 -0.000003 0.000001 0.000000 0.000000 0.000000
 10 -0.774752 -0.499730 1.465878 0.490226 -1.287313 2.687371
 11 6.384776 0.000000 0.000001 -0.315147 0.106656 -1.239528
 12 10.242682 -0.000000 -0.000002 0.000000 0.000000 -1.151900
 13 11.375561 -0.000000 0.000001 -2.956182 0.311094 -0.424772
 14 0.728680 0.023431 -1.008291 1.267228 0.796324 -0.150945
 15 2.136497 -0.000001 -0.000000 -0.000000 -0.000000 -0.078540
 16 2.313139 -0.000000 -0.000000 0.000000 0.000000 0.000000
 17 3.115506 -0.886040 -0.021431 -0.274677 -0.382555 -0.171683
 18 2.011151 0.000000 0.000000 0.000000 0.000000 0.354134
 19 2.141380 0.000001 0.000000 0.000000 0.000000 0.000000
 20 1.734173 0.000000 -0.000000 -0.000000 -0.000000 0.177895
 21 0.000006 -4.440594 0.000000 1.570544 -0.062990 -0.195737
 22 6.000000 -0.000001 0.000001 -2.649015 -0.000000 0.000000
 23 0.000001 -4.440600 0.000000 1.569944 -0.062987 0.004053
 24 11.375560 0.000000 0.000002 -2.236488 0.249666 -0.159731
 25 -0.000001 -4.440603 0.000000 1.570144 -0.062988 0.004040
 26 10.510132 -0.000000 -0.000002 0.000000 -0.000000 -2.146746
 27 0.000000 -1.748402 4.999998 0.000000 0.004007 1.602291
 28 5.500000 -0.000001 0.000000 0.116079 0.000000 0.000000
 29 -0.000003 -1.940599 5.000001 -0.044472 0.004003 -0.000180
 30 6.551491 -0.000001 -0.000001 -0.226545 0.145919 -0.713567
 31 -0.000001 -1.940597 5.000001 -0.027189 -0.053376 0.005295
 32 6.551491 -0.000001 -0.000001 -0.093908 0.088632 -0.331967
 33 0.000001 -1.940599 4.999995 -0.066572 -0.152786 -0.110311
 34 0.774755 0.506805 -1.465878 -2.659130 1.184171 0.644518
 35 6.384775 -0.000001 0.000001 0.392687 -0.263143 -0.756425
 36 10.242682 -0.000000 0.000000 -0.000000 0.000000 -1.965376
 37 11.375561 -0.000000 -0.000001 3.047119 0.044255 1.258084
 38 0.728680 0.023431 1.008293 -1.579583 -0.319038 0.212973
 39 2.136498 0.000001 -0.000000 -0.000000 0.000000 1.282817
 40 2.313140 0.000000 0.000001 0.000000 0.000000 3.141593
 41 3.115508 -0.886041 0.021430 0.420765 0.316066 0.167178
 42 2.011149 -0.000000 0.000000 -0.000000 0.000000 2.082010
 43 2.141379 -0.000001 0.000001 0.000000 0.000000 3.141593
 44 1.734173 -0.000001 0.000001 0.000000 -0.000000 1.041748
 45 0.136315 -3.738194 2.525891 1.493698 2.759406 -1.474501
 46 5.031114 -0.189688 1.849661 -2.967941 -0.035742 1.570790
 47 11.389366 -0.000819 0.158781 2.296847 0.265421 0.600905
 48 -0.000000 -4.440598 0.000001 1.570144 -3.078602 0.004040
 49 6.000000 0.000000 0.000001 2.296847 0.000000 -0.000000
 50 0.000002 -4.440601 0.000002 1.569944 -3.078603 0.004053
 51 10.510131 0.000001 -0.000001 0.000000 0.000000 -2.553484
 52 0.000000 -1.748399 -4.999999 -3.141593 0.004007 -1.539299
 53 5.500000 0.000001 -0.000001 -0.104515 0.000000 -0.000000
 54 -0.000001 0.000001 -5.000000 -0.044472 3.137589 -0.000177
 55 6.551491 0.000000 0.000001 0.104515 -0.112745 -0.249251
 56 -1.266844 -1.937443 -4.950559 -0.066572 -2.988806 -0.110308
 57 6.551491 -0.000000 0.000000 0.104515 -0.112745 -0.249251
 58 0.699369 -1.944206 -5.006848 -0.027189 -3.088217 0.005298
 59 4.226146 -0.003201 0.000000 -0.150648 0.247680 -0.105131
 60 0.000000 5.000002 0.000000 -0.153564 0.000087 2.718701
 61 0.000006 -0.000004 -3.713579 0.119535 -2.936655 -0.885276
 62 0.000003 0.000000 5.000000 3.053195 1.558589 -0.074929
 63 -0.000005 0.000006 3.713580 -0.311487 -2.845558 -0.582080
 64 0.000001 0.000000 -5.000000 -0.088726 1.558589 3.066335
 65 7.363603 1.646648 0.495664 -3.141593 -1.570796 0.000000
 66 -0.000005 0.000007 3.619082 -0.441735 -2.434423 -1.159240
 67 16.573917 -0.000000 0.000001 -0.000000 -0.000000 -2.011748
 68 15.128181 0.000000 -0.000000 0.026832 0.026147 -0.175154
 69 5.758666 4.244731 0.000000 0.000000 -0.000000 2.033309
 70 3.177727 0.000000 0.000000 0.000000 0.000000 3.141593
 71 15.708951 0.000002 -0.000000 0.013957 0.013894 -0.093781
 72 0.275148 0.189215 -3.445208 3.130898 0.000409 -1.514604
 73 17.210192 -0.000001 0.000002 -0.000000 0.000000 -2.319003
 74 0.000000 -0.000001 -5.000000 -0.079433 1.546568 -1.570857
 75 0.000007 -0.000003 -3.619079 0.260448 -2.945758 -1.468642
 76 16.573919 -0.000000 0.000001 0.000000 0.000000 -1.562392
 77 15.128181 0.000000 0.000001 0.265624 -0.173430 0.666428
 78 5.758665 4.244731 0.000000 -0.000000 0.000000 1.483530
 79 4.003934 -0.000000 0.000000 0.000000 0.000000 0.000000
 80 15.708953 0.000000 0.000000 0.195074 -0.100553 0.460486
 81 0.273998 0.191090 3.439762 -3.130907 -0.000437 -1.508107
 82 17.210194 -0.000000 0.000000 -0.000000 0.000000 -2.116793
 83 0.000000 0.000000 5.000000 -0.079311 1.595025 -1.570737
time 2
  0 0.500000 13.522099 26.931471 -0.243067 0.535714 -2.432935
  1 13.773751 5.584523 -22.520975 -0.544290 0.221328 2.303921
  2 -2.276934 0.000003 -1.238185 -1.570795 -1.570451 0.000000
  3 1.796305 0.711906 0.000038 -0.012692 -0.322276 -0.254869
  4 4.119957 -0.002982 0.000178 -0.055591 0.171631 0.416639
  5 4.120206 -0.002859 0.000106 -0.031972 -0.057131 0.512906
  6 4.117886 -0.003199 -0.000139 0.044433 0.308515 -0.206993
  7 4.118309 -0.003371 0.001028 -0.330709 0.463557 -0.238424
  8 4.443600 -0.000000 0.000000 0.068494 0.297824 0.257279
  9 9.024061 -0.000001 0.000000 0.000000 0.000000 0.000000
 10 -0.774751 -0.499729 1.465878 0.490226 -1.287313 2.687371
 11 6.384775 0.000001 0.000002 -0.279165 0.119131 -1.202885
 12 10.242682 0.000001 0.000000 -0.000000 -0.000000 -1.157277
 13 11.375564 0.000001 0.000000 -2.794577 0.311094 -0.424772
 14 0.728681 0.023431 -1.008293 1.267228 0.796324 -0.150945
 15 2.136496 0.000000 0.000002 -0.000000 0.000000 -0.078540
 16 2.313141 -0.000000 0.000000 0.000000 0.000000 0.000000
 17 3.115507 -0.886041 -0.021430 -0.274677 -0.382555 -0.171683
 18 2.011150 0.000000 -0.000000 -0.000000 0.000000 0.354134
 19 2.141379 -0.000001 -0.000000 0.000000 0.000000 0.000000
 20 1.734172 -0.000000 -0.000000 -0.000000 0.000000 0.177895
 21 0.000006 -4.440593 0.000000 1.570544 -0.062990 -0.195737
 22 6.000000 0.000000 0.000000 -2.512842 -0.000000 -0.000000
 23 0.000002 -4.440601 0.000000 1.569944 -0.062987 0.004053
 24 11.375561 0.000001 0.000003 -2.158122 0.237404 -0.167812
 25 -0.000000 -4.440604 0.000001 1.570144 -0.062988 0.004040
 26 10.510130 0.000000 0.000000 -0.000000 -0.000000 -2.149435
 27 -0.000001 -1.748401 5.000000 0.000000 0.004007 1.602291
 28 5.499999 0.000000 0.000001 0.098764 -0.000000 0.000000
 29 -0.000003 -1.940599 5.000000 -0.044472 0.004003 -0.000180
 30 6.551489 0.000001 0.000002 -0.194437 0.145341 -0.689554
 31 -0.000000 -1.940598 5.000001 -0.027189 -0.053376 0.005295
 32 6.551489 0.000001 0.000002 -0.079798 0.085423 -0.323193
 33 0.000000 -1.940599 4.999996 -0.066572 -0.152786 -0.110311
 34 0.774757 0.506805 -1.465878 -2.594248 1.175453 0.720323
 35 6.384777 0.000000 -0.000000 0.417310 -0.226809 -0.764004
 36 10.242682 -0.000001 -0.000001 0.000000 -0.000000 -1.889339
 37 11.375561 0.000001 -0.000003 3.038945 -0.081186 1.214164
 38 0.728682 0.023431 1.008292 -1.579583 -0.319038 0.212973
 39 2.136498 0.000000 -0.000000 -0.000000 0.000000 1.282817
 40 2.313139 0.000000 -0.000000 0.000000 0.000000 3.141593
 41 3.115507 -0.886041 0.021433 0.420766 0.316066 0.167178
 42 2.011151 -0.000000 0.000000 -0.000000 0.000000 2.082010
 43 2.141380 -0.000000 0.000001 0.000000 0.000000 3.141593
 44 1.734172 -0.000001 0.000001 0.000000 0.000000 1.041748
 45 0.136316 -3.738193 2.525890 1.493698 2.759406 -1.474501
 46 5.031114 -0.189688 1.849663 -2.967941 -0.035742 1.570790
 47 11.389367 -0.000819 0.158781 2.315775 0.195414 0.604685
 48 0.000001 -4.440599 -0.000001 1.570144 -3.078602 0.004040
 49 6.000000 0.000000 -0.000001 2.315775 0.000000 -0.000000
 50 0.000002 -4.440602 -0.000000 1.569944 -3.078603 0.004053
 51 10.510131 -0.000001 -0.000000 -0.000000 0.000000 -2.515466
 52 -0.000000 -1.748400 -5.000002 -3.141593 0.004007 -1.539299
 53 5.500000 -0.000001 -0.000001 -0.116013 0.000000 0.000000
 54 -0.000000 0.000000 -5.000000 -0.044472 3.137589 -0.000177
 55 6.551490 0.000001 -0.000001 0.116013 -0.104042 -0.251303
 56 -1.266843 -1.937443 -4.950560 -0.066572 -2.988806 -0.110308
 57 6.551491 0.000001 -0.000000 0.116013 -0.104042 -0.251303
 58 0.699371 -1.944208 -5.006846 -0.027189 -3.088217 0.005298
 59 4.226145 -0.003202 -0.000001 -0.150648 0.247680 -0.105131
 60 0.000000 5.000001 -0.000000 -0.153564 0.000087 2.718702
 61 0.000006 -0.000004 -3.713579 0.119535 -2.936655 -0.885276
 62 0.000003 0.000000 5.000000 3.053195 1.558589 -0.074929
 63 -0.000005 0.000006 3.713580 -0.311487 -2.845558 -0.582080
 64 0.000001 0.000000 -5.000000 -0.088726 1.558589 3.066335
 65 7.363603 1.646648 0.495664 -3.141593 -1.570796 0.000000
 66 -0.000005 0.000007 3.619082 -0.441735 -2.434423 -1.159240
 67 16.573917 -0.000000 0.000001 -0.000000 -0.000000 -2.011748
 68 15.128181 0.000000 -0.000000 0.026832 0.026147 -0.175154
 69 5.758666 4.244731 0.000000 0.000000 -0.000000 2.033309
 70 3.177727 0.000000 0.000000 0.000000 0.000000 3.141593
 71 15.708951 0.000002 -0.000000 0.013957 0.013894 -0.093781
 72 0.275148 0.189215 -3.445208 3.130898 0.000409 -1.514604
 73 17.210192 -0.000001 0.000002 -0.000000 0.000000 -2.319003
 74 0.000000 -0.000001 -5.000000 -0.079433 1.546568 -1.570857
 75 0.000007 -0.000003 -3.619079 0.260448 -2.945758 -1.468642
 76 16.573919 -0.000000 0.000001 0.000000 0.000000 -1.562392
 77 15.128181 0.000000 0.000001 0.265624 -0.173430 0.666428
 78 5.758665 4.244731 0.000000 -0.000000 0.000000 1.483530
 79 4.003934 -0.000000 0.000000 0.000000 0.000000 0.000000
 80 15.708953 0.000000 0.000000 0.195074 -0.100553 0.460486
 81 0.273998 0.191090 3.439762 -3.130907 -0.000437 -1.508107
 82 17.210194 -0.000000 0.000000 -0.000000 0.000000 -2.116793
 83 0.000000 0.000000 5.000000 -0.079311 1.595025 -1.570737
time 3
  0 0.500000 13.522099 26.931471 -0.243067 0.535714 -2.432935
  1 13.773751 5.584523 -22.520975 -0.544290 0.221328 2.303921
  2 -2.276934 0.000003 -1.238185 -1.570795 -1.570451 0.000000
  3 1.796326 0.711900 0.000038 -0.012696 -0.322222 -0.247713
  4 4.119976 -0.002974 0.000169 -0.052153 0.171965 0.423519
  5 4.120228 -0.002850 0.000099 -0.030098 -0.056952 0.519702
  6 4.117904 -0.003201 -0.000152 0.048854 0.308167 -0.199879
  7 4.118313 -0.003375 0.001028 -0.330709 0.463557 -0.238424
  8 4.443599 0.000001 -0.000000 0.088314 0.302200 0.258433
  9 9.024062 -0.000002 0.000000 0.000000 0.000000 0.000000
 10 -0.774753 -0.499728 1.465878 0.490226 -1.287313 2.687371
 11 6.384776 0.000000 -0.000000 -0.255109 0.126182 -1.180064
 12 10.242683 -0.000000 -0.000001 0.000000 0.000000 -1.153576
 13 11.375560 -0.000000 -0.000000 -2.681454 0.311094 -0.424772
 14 0.728680 0.023431 -1.008291 1.267228 0.796324 -0.150945
 15 2.136496 0.000000 0.000002 0.000000 -0.000000 -0.078540
 16 2.313138 -0.000000 -0.000001 0.000000 0.000000 0.000000
 17 3.115506 -0.886041 -0.021430 -0.274677 -0.382555 -0.171683
 18 2.011151 -0.000000 0.000002 -0.000000 0.000000 0.354134
 19 2.141380 -0.000000 -0.000000 0.000000 0.000000 0.000000
 20 1.734172 0.000001 0.000001 0.000000 0.000000 0.177895
 21 0.000007 -4.440595 0.000001 1.570544 -0.062990 -0.195737
 22 6.000000 -0.000000 0.000000 -2.419776 0.000000 0.000000
 23 0.000001 -4.440601 -0.000001 1.569944 -0.062987 0.004053
 24 11.375561 -0.000000 0.000002 -2.103000 0.229012 -0.173535
 25 -0.000001 -4.440603 -0.000001 1.570144 -0.062988 0.004040
 26 10.510131 -0.000000 -0.000001 0.000000 0.000000 -2.147584
 27 0.000000 -1.748400 5.000000 -0.000000 0.004007 1.602291
 28 5.500000 -0.000000 -0.000001 0.087691 0.000000 0.000000
 29 -0.000002 -1.940598 5.000001 -0.044472 0.004003 -0.000180
 30 6.551491 0.000000 -0.000001 -0.174025 0.144126 -0.675900
 31 -0.000001 -1.940598 5.000000 -0.027189 -0.053376 0.005295
 32 6.551491 0.000000 -0.000001 -0.070740 0.083070 -0.318182
 33 -0.000002 -1.940598 4.999996 -0.066572 -0.152786 -0.110311
 34 0.774758 0.506805 -1.465878 -2.556028 1.169183 0.765378
 35 6.384777 -0.000002 0.000000 0.433898 -0.201259 -0.768975
 36 10.242682 -0.000000 -0.000001 0.000000 0.000000 -1.842491
 37 11.375562 0.000001 -0.000000 3.036827 -0.146224 1.185994
 38 0.728680 0.023431 1.008291 -1.579583 -0.319038 0.212973
 39 2.136496 0.000001 -0.000000 -0.000000 0.000000 1.282817
 40 2.313138 -0.000000 0.000000 0.000000 0.000000 3.141593
 41 3.115507 -0.886041 0.021431 0.420766 0.316066 0.167178
 42 2.011151 -0.000001 -0.000000 -0.000000 0.000000 2.082010
 43 2.141381 0.000000 0.000000 0.000000 0.000000 3.141593
 44 1.734172 -0.000001 -0.000001 -0.000000 0.000000 1.041748
 45 0.136316 -3.738192 2.525891 1.493698 2.759406 -1.474501
 46 5.031114 -0.189688 1.849661 -2.967941 -0.035742 1.570790
 47 11.389366 -0.000819 0.158780 2.324562 0.158005 0.603253
 48 -0.000001 -4.440599 0.000001 1.570144 -3.078602 0.004040
 49 5.999999 -0.000001 -0.000002 2.324562 -0.000000 -0.000000
 50 0.000001 -4.440602 -0.000001 1.569944 -3.078603 0.004053
 51 10.510131 -0.000001 -0.000001 -0.000000 0.000000 -2.492042
 52 0.000000 -1.748400 -5.000003 -3.141593 0.004007 -1.539299
 53 5.500000 -0.000001 -0.000001 -0.123826 -0.000000 -0.000000
 54 -0.000000 0.000001 -5.000000 -0.044472 3.137589 -0.000177
 55 6.551490 0.000000 -0.000001 0.123826 -0.098028 -0.252674
 56 -1.266842 -1.937441 -4.950559 -0.066572 -2.988806 -0.110308
 57 6.551491 0.000000 -0.000001 0.123826 -0.098028 -0.252674
 58 0.699371 -1.944209 -5.006845 -0.027189 -3.088217 0.005298
 59 4.226147 -0.003203 -0.000001 -0.150648 0.247680 -0.105131
 60 0.000000 5.000001 -0.000001 -0.153564 0.000087 2.718702
 61 0.000006 -0.000004 -3.713579 0.119535 -2.936655 -0.885276
 62 0.000003 0.000000 5.000000 3.053195 1.558589 -0.074929
 63 -0.000005 0.000006 3.713580 -0.311487 -2.845558 -0.582080
 64 0.000001 0.000000 -5.000000 -0.088726 1.558589 3.066335
 65 7.363603 1.646648 0.495664 -3.141593 -1.570796 0.000000
 66 -0.000005 0.000007 3.619082 -0.441735 -2.434423 -1.159240
 67 16.573917 -0.000000 0.000001 -0.000000 -0.000000 -2.011748
 68 15.128181 0.000000 -0.000000 0.026832 0.026147 -0.175154
 69 5.758666 4.244731 0.000000 0.000000 -0.000000 2.033309
 70 3.177727 0.000000 0.000000 0.000000 0.000000 3.141593
 71 15.708951 0.000002 -0.000000 0.013957 0.013894 -0.093781
 72 0.275148 0.189215 -3.445208 3.130898 0.000409 -1.514604
 73 17.210192 -0.000001 0.000002 -0.000000 0.000000 -2.319003
 74 0.000000 -0.000001 -5.000000 -0.079433 1.546568 -1.570857
 75 0.000007 -0.000003 -3.619079 0.260448 -2.945758 -1.468642
 76 16.573919 -0.000000 0.000001 0.000000 0.000000 -1.562392
 77 15.128181 0.000000 0.000001 0.265624 -0.173430 0.666428
 78 5.758665 4.244731 0.000000 -0.000000 0.000000 1.483530
 79 4.003934 -0.000000 0.000000 0.000000 0.000000 0.000000
 80 15.708953 0.000000 0.000000 0.195074 -0.100553 0.460486
 81 0.273998 0.191090 3.439762 -3.130907 -0.000437 -1.508107
 82 17.210194 -0.000000 0.000000 -0.000000 0.000000 -2.116793
 83 0.000000 0.000000 5.000000 -0.079311 1.595025 -1.570737
time 4
  0 0.500000 13.522099 26.931471 -0.243067 0.535714 -2.432935
  1 13.773751 5.584523 -22.520975 -0.544290 0.221328 2.303921
  2 -2.276934 0.000003 -1.238185 -1.570795 -1.570451 0.000000
  3 1.796334 0.711898 0.000038 -0.012697 -0.322206 -0.245669
  4 4.119982 -0.002972 0.000164 -0.051170 0.172056 0.425486
  5 4.120233 -0.002845 0.000097 -0.029562 -0.056903 0.521644
  6 4.117910 -0.003201 -0.000157 0.050117 0.308062 -0.197847
  7 4.118309 -0.003370 0.001029 -0.330709 0.463557 -0.238424
  8 4.443600 -0.000000 0.000000 0.094002 0.303359 0.258774
  9 9.024061 0.000001 0.000001 0.000000 0.000000 0.000000
 10 -0.774752 -0.499729 1.465878 0.490226 -1.287313 2.687371
 11 6.384776 0.000002 0.000001 -0.248440 0.127958 -1.174006
 12 10.242682 -0.000000 0.000000 -0.000000 -0.000000 -1.151385
 13 11.375562 0.000002 0.000001 -2.649133 0.311094 -0.424771
 14 0.728681 0.023432 -1.008293 1.267228 0.796324 -0.150945
 15 2.136496 -0.000001 0.000001 0.000000 -0.000000 -0.078540
 16 2.313138 -0.000000 -0.000000 0.000000 0.000000 0.000000
 17 3.115506 -0.886040 -0.021432 -0.274677 -0.382555 -0.171683
 18 2.011150 -0.000000 0.000000 -0.000000 0.000000 0.354134
 19 2.141379 -0.000001 0.000001 0.000000 0.000000 0.000000
 20 1.734172 0.000001 -0.000001 0.000000 -0.000000 0.177895
 21 0.000006 -4.440592 -0.000000 1.570544 -0.062990 -0.195737
 22 6.000000 0.000001 0.000000 -2.393480 0.000000 -0.000000
 23 0.000002 -4.440600 0.000000 1.569944 -0.062987 0.004053
 24 11.375560 0.000001 0.000004 -2.087209 0.226655 -0.175193
 25 -0.000000 -4.440604 0.000001 1.570144 -0.062988 0.004040
 26 10.510130 -0.000000 0.000000 0.000000 0.000000 -2.146489
 27 0.000001 -1.748400 5.000000 0.000000 0.004007 1.602290
 28 5.499999 -0.000000 0.000001 0.084685 -0.000000 -0.000000
 29 -0.000002 -1.940599 5.000002 -0.044472 0.004003 -0.000180
 30 6.551492 0.000001 -0.000001 -0.168498 0.143688 -0.672420
 31 0.000001 -1.940598 5.000001 -0.027189 -0.053376 0.005295
 32 6.551492 0.000001 -0.000001 -0.068277 0.082392 -0.316904
 33 0.000000 -1.940599 4.999995 -0.066572 -0.152786 -0.110311
 34 0.774759 0.506804 -1.465878 -2.544246 1.167067 0.779335
 35 6.384776 -0.000002 0.000000 0.438300 -0.193581 -0.770189
 36 10.242683 -0.000001 0.000002 -0.000000 -0.000000 -1.827689
 37 11.375562 -0.000000 -0.000000 3.036857 -0.136062 1.173839
 38 0.728680 0.023431 1.008291 -1.579583 -0.319038 0.212973
 39 2.136497 -0.000001 -0.000000 0.000000 0.000000 1.282817
 40 2.313138 -0.000001 0.000000 0.000000 0.000000 3.141593
 41 3.115506 -0.886041 0.021429 0.420766 0.316066 0.167178
 42 2.011149 -0.000001 0.000000 0.000000 0.000000 2.082010
 43 2.141380 -0.000001 0.000000 0.000000 0.000000 3.141593
 44 1.734172 -0.000001 0.000000 -0.000000 -0.000000 1.041748
 45 0.136317 -3.738194 2.525890 1.493698 2.759406 -1.474501
 46 5.031114 -0.189687 1.849660 -2.967941 -0.035742 1.570790
 47 11.389366 -0.000819 0.158782 2.322822 0.160628 0.595383
 48 -0.000000 -4.440600 0.000000 1.570144 -3.078602 0.004040
 49 6.000000 -0.000001 0.000001 2.322822 -0.000000 -0.000000
 50 0.000002 -4.440601 -0.000001 1.569944 -3.078603 0.004053
 51 10.510131 0.000000 0.000001 -0.000000 0.000000 -2.484641
 52 0.000001 -1.748399 -4.999999 3.141593 0.004007 -1.539299
 53 5.500000 -0.000001 0.000001 -0.125992 0.000000 0.000000
 54 0.000000 -0.000002 -4.999999 -0.044472 3.137589 -0.000177
 55 6.551490 -0.000001 0.000000 0.125992 -0.096205 -0.253052
 56 -1.266843 -1.937444 -4.950559 -0.066572 -2.988806 -0.110308
 57 6.551491 -0.000001 0.000001 0.125992 -0.096205 -0.253052
 58 0.699370 -1.944206 -5.006849 -0.027189 -3.088217 0.005298
 59 4.226145 -0.003200 0.000000 -0.150648 0.247680 -0.105131
 60 0.000000 5.000000 -0.000001 -0.153564 0.000087 2.718702
 61 0.000006 -0.000004 -3.713579 0.119535 -2.936655 -0.885276
 62 0.000003 0.000000 5.000000 3.053195 1.558589 -0.074929
 63 -0.000005 0.000006 3.713580 -0.311487 -2.845558 -0.582080
 64 0.000001 0.000000 -5.000000 -0.088726 1.558589 3.066335
 65 7.363603 1.646648 0.495664 -3.141593 -1.570796 0.000000
 66 -0.000005 0.000007 3.619082 -0.441735 -2.434423 -1.159240
 67 16.573917 -0.000001 0.000001 -0.000000 -0.000000 -2.011748
 68 15.128180 0.000001 0.000001 0.026832 0.026147 -0.175154
 69 5.758666 4.244731 0.000000 0.000000 -0.000000 2.033309
 70 3.177727 0.000000 0.000000 0.000000 0.000000 3.141593
 71 15.708951 0.000002 0.000001 0.013957 0.013894 -0.093781
 72 0.275148 0.189215 -3.445208 3.130898 0.000409 -1.514604
 73 17.210192 -0.000002 0.000002 -0.000000 0.000000 -2.319003
 74 0.000000 -0.000001 -4.999999 -0.079433 1.546568 -1.570857
 75 0.000007 -0.000003 -3.619079 0.260448 -2.945758 -1.468642
 76 16.573919 -0.000000 0.000001 0.000000 0.000000 -1.562392
 77 15.128181 0.000000 0.000001 0.265624 -0.173430 0.666428
 78 5.758665 4.244731 0.000000 -0.000000 0.000000 1.483530
 79 4.003934 -0.000000 0.000000 0.000000 0.000000 0.000000
 80 15.708953 0.000000 0.000000 0.195074 -0.100553 0.460486
 81 0.273998 0.191090 3.439762 -3.130907 -0.000437 -1.508107
 82 17.210194 -0.000000 0.000000 -0.000000 0.000000 -2.116793
 83 0.000000 0.000000 5.000000 -0.079311 1.595025 -1.570737
time 5
  0 0.500000 13.522099 26.931471 -0.243067 0.535714 -2.432935
  1 13.773751 5.584523 -22.520975 -0.544290 0.221328 2.303921
  2 -2.276934 0.000003 -1.238185 -1.570795 -1.570451 0.000000
  3 1.796332 0.711898 0.000038 -0.012696 -0.322214 -0.246691
  4 4.119977 -0.002973 0.000166 -0.051661 0.172010 0.424503
  5 4.120230 -0.002848 0.000097 -0.029830 -0.056928 0.520673
  6 4.117907 -0.003199 -0.000153 0.049485 0.308115 -0.198863
  7 4.118309 -0.003371 0.001028 -0.330709 0.463557 -0.238424
  8 4.443601 -0.000001 -0.000001 0.091157 0.302784 0.258603
  9 9.024061 -0.000002 0.000000 0.000000 0.000000 0.000000
 10 -0.774753 -0.499728 1.465878 0.490227 -1.287313 2.687371
 11 6.384775 0.000003 0.000001 -0.251762 0.127083 -1.177009
 12 10.242682 -0.000000 -0.000001 -0.000000 -0.000000 -1.152544
 13 11.375560 0.000002 -0.000001 -2.665294 0.311094 -0.424772
 14 0.728681 0.023430 -1.008292 1.267228 0.796324 -0.150945
 15 2.136497 -0.000001 -0.000000 0.000000 -0.000000 -0.078540
 16 2.313138 -0.000000 0.000000 0.000000 0.000000 0.000000
 17 3.115506 -0.886042 -0.021431 -0.274677 -0.382555 -0.171683
 18 2.011151 -0.000001 -0.000001 0.000000 0.000000 0.354134
 19 2.141380 -0.000000 0.000002 0.000000 0.000000 0.000000
 20 1.734172 0.000000 -0.000000 0.000000 -0.000000 0.177895
 21 0.000007 -4.440594 0.000001 1.570544 -0.062990 -0.195737
 22 6.000000 0.000001 -0.000000 -2.406613 -0.000000 0.000000
 23 0.000002 -4.440601 0.000000 1.569944 -0.062987 0.004053
 24 11.375563 0.000002 0.000003 -2.095106 0.227830 -0.174361
 25 -0.000001 -4.440603 0.000001 1.570144 -0.062988 0.004040
 26 10.510130 0.000000 -0.000001 0.000000 -0.000000 -2.147068
 27 0.000000 -1.748400 4.999998 -0.000000 0.004007 1.602290
 28 5.500000 0.000000 -0.000000 0.086179 0.000000 0.000000
 29 -0.000003 -1.940599 5.000002 -0.044472 0.004003 -0.000180
 30 6.551492 -0.000000 -0.000003 -0.171245 0.143911 -0.674138
 31 0.000001 -1.940600 5.000000 -0.027189 -0.053376 0.005295
 32 6.551492 -0.000000 -0.000003 -0.069501 0.082731 -0.317535
 33 -0.000000 -1.940600 4.999995 -0.066572 -0.152786 -0.110311
 34 0.774759 0.506804 -1.465878 -2.550119 1.168133 0.772374
 35 6.384776 -0.000003 0.000002 0.436110 -0.197429 -0.769588
 36 10.242682 -0.000000 0.000001 -0.000000 -0.000000 -1.835090
 37 11.375562 0.000001 0.000002 3.037415 -0.076041 1.173123
 38 0.728680 0.023431 1.008291 -1.579583 -0.319038 0.212973
 39 2.136498 -0.000001 -0.000001 0.000000 0.000000 1.282817
 40 2.313139 0.000001 0.000000 0.000000 0.000000 3.141593
 41 3.115507 -0.886041 0.021430 0.420766 0.316066 0.167178
 42 2.011149 -0.000000 0.000000 -0.000000 0.000000 2.082010
 43 2.141380 -0.000001 0.000001 0.000000 0.000000 3.141593
 44 1.734172 -0.000001 0.000001 0.000000 0.000000 1.041748
 45 0.136316 -3.738193 2.525889 1.493698 2.759406 -1.474501
 46 5.031114 -0.189688 1.849662 -2.967941 -0.035742 1.570790
 47 11.389367 -0.000818 0.158782 2.313803 0.189662 0.583369
 48 -0.000001 -4.440600 0.000001 1.570144 -3.078602 0.004040
 49 6.000000 -0.000000 0.000001 2.313803 0.000000 0.000000
 50 0.000002 -4.440601 -0.000002 1.569944 -3.078603 0.004053
 51 10.510133 -0.000001 0.000004 0.000000 0.000000 -2.488341
 52 -0.000000 -1.748400 -5.000001 -3.141593 0.004007 -1.539299
 53 5.500000 -0.000001 0.000002 -0.124912 0.000000 -0.000000
 54 -0.000001 0.000001 -5.000000 -0.044472 3.137590 -0.000177
 55 6.551490 0.000001 -0.000001 0.124912 -0.097119 -0.252864
 56 -1.266842 -1.937441 -4.950561 -0.066572 -2.988806 -0.110308
 57 6.551491 0.000001 -0.000001 0.124912 -0.097119 -0.252864
 58 0.699371 -1.944207 -5.006845 -0.027189 -3.088217 0.005298
 59 4.226145 -0.003201 -0.000001 -0.150648 0.247680 -0.105131
 60 0.000000 5.000000 -0.000001 -0.153564 0.000087 2.718702
 61 0.000006 -0.000004 -3.713579 0.119535 -2.936655 -0.885276
 62 0.000003 0.000000 5.000000 3.053195 1.558589 -0.074929
 63 -0.000005 0.000006 3.713580 -0.311487 -2.845558 -0.582080
 64 0.000001 0.000000 -5.000000 -0.088726 1.558589 3.066335
 65 7.363603 1.646648 0.495664 -3.141593 -1.570796 0.000000
 66 -0.000005 0.000007 3.619082 -0.441735 -2.434423 -1.159240
 67 16.573917 -0.000001 0.000001 -0.000000 -0.000000 -2.011748
 68 15.128180 0.000001 0.000001 0.026832 0.026147 -0.175154
 69 5.758666 4.244731 0.000000 0.000000 -0.000000 2.033309
 70 3.177727 0.000000 0.000000 0.000000 0.000000 3.141593
 71 15.708951 0.000002 0.000001 0.013957 0.013894 -0.093781
 72 0.275148 0.189215 -3.445208 3.130898 0.000409 -1.514604
 73 17.210192 -0.000002 0.000002 -0.000000 0.000000 -2.319003
 74 0.000000 -0.000001 -4.999999 -0.079433 1.546568 -1.570857
 75 0.000007 -0.000003 -3.619079 0.260448 -2.945758 -1.468642
 76 16.573919 -0.000000 0.000001 0.000000 0.000000 -1.562392
 77 15.128181 0.000000 0.000001 0.265624 -0.173430 0.666428
 78 5.758665 4.244731 0.000000 -0.000000 0.000000 1.483530
 79 4.003934 -0.000000 0.000000 0.000000 0.000000 0.000000
 80 15.708953 0.000000 0.000000 0.195074 -0.100553 0.460486
 81 0.273998 0.191090 3.439762 -3.130907 -0.000437 -1.508107
 82 17.210194 -0.000000 0.000000 -0.000000 0.000000 -2.116793
 83 0.000000 0.000000 5.000000 -0.079311 1.595025 -1.570737
time 6
  0 0.500000 13.522099 26.931471 -0.243067 0.535714 -2.432935
  1 13.773751 5.584523 -22.520975 -0.544290 0.221328 2.303921
  2 -2.276934 0.000003 -1.238185 -1.570795 -1.570451 0.000000
  3 1.796326 0.711900 0.000038 -0.012696 -0.322222 -0.247713
  4 4.119976 -0.002974 0.000169 -0.052153 0.171965 0.423519
  5 4.120228 -0.002850 0.000099 -0.030098 -0.056952 0.519702
  6 4.117904 -0.003201 -0.000152 0.048854 0.308167 -0.199879
  7 4.118313 -0.003375 0.001028 -0.330709 0.463557 -0.238424
  8 4.443599 0.000001 -0.000000 0.088314 0.302200 0.258433
  9 9.024062 -0.000002 0.000000 0.000000 0.000000 0.000000
 10 -0.774753 -0.499728 1.465878 0.490226 -1.287313 2.687371
 11 6.384776 0.000000 -0.000000 -0.255109 0.126182 -1.180064
 12 10.242683 -0.000000 -0.000001 0.000000 0.000000 -1.153576
 13 11.375560 -0.000000 -0.000000 -2.681454 0.311094 -0.424772
 14 0.728680 0.023431 -1.008291 1.267228 0.796324 -0.150945
 15 2.136496 0.000000 0.000002 0.000000 -0.000000 -0.078540
 16 2.313138 -0.000000 -0.000001 0.000000 0.000000 0.000000
 17 3.115506 -0.886041 -0.021430 -0.274677 -0.382555 -0.171683
 18 2.011151 -0.000000 0.000002 -0.000000 0.000000 0.354134
 19 2.141380 -0.000000 -0.000000 0.000000 0.000000 0.000000
 20 1.734172 0.000001 0.000001 0.000000 0.000000 0.177895
 21 0.000007 -4.440595 0.000001 1.570544 -0.062990 -0.195737
 22 6.000000 -0.000000 0.000000 -2.419776 0.000000 0.000000
 23 0.000001 -4.440601 -0.000001 1.569944 -0.062987 0.004053
 24 11.375561 -0.000000 0.000002 -2.103000 0.229012 -0.173535
 25 -0.000001 -4.440603 -0.000001 1.570144 -0.062988 0.004040
 26 10.510131 -0.000000 -0.000001 0.000000 0.000000 -2.147584
 27 0.000000 -1.748400 5.000000 -0.000000 0.004007 1.602291
 28 5.500000 -0.000000 -0.000001 0.087691 0.000000 0.000000
 29 -0.000002 -1.940598 5.000001 -0.044472 0.004003 -0.000180
 30 6.551491 0.000000 -0.000001 -0.174025 0.144126 -0.675900
 31 -0.000001 -1.940598 5.000000 -0.027189 -0.053376 0.005295
 32 6.551491 0.000000 -0.000001 -0.070740 0.083070 -0.318182
 33 -0.000002 -1.940598 4.999996 -0.066572 -0.152786 -0.110311
 34 0.774758 0.506805 -1.465878 -2.556028 1.169183 0.765378
 35 6.384777 -0.000002 0.000000 0.433898 -0.201259 -0.768975
 36 10.242682 -0.000000 -0.000001 0.000000 0.000000 -1.842491
 37 11.375562 0.000001 -0.000000 3.037927 -0.016021 1.172445
 38 0.728681 0.023431 1.008290 -1.579583 -0.319038 0.212973
 39 2.136497 0.000000 -0.000000 -0.000000 0.000000 1.282817
 40 2.313140 0.000000 0.000000 0.000000 0.000000 3.141593
 41 3.115508 -0.886040 0.021429 0.420766 0.316066 0.167178
 42 2.011150 -0.000001 -0.000000 -0.000000 0.000000 2.082010
 43 2.141379 -0.000000 -0.000001 0.000000 0.000000 3.141593
 44 1.734172 -0.000001 0.000000 0.000000 -0.000000 1.041748
 45 0.136316 -3.738193 2.525889 1.493698 2.759406 -1.474501
 46 5.031115 -0.189687 1.849661 -2.967941 -0.035742 1.570790
 47 11.389366 -0.000819 0.158780 2.304084 0.218376 0.570852
 48 0.000001 -4.440598 -0.000001 1.570144 -3.078602 0.004040
 49 5.999999 -0.000001 -0.000002 2.304084 -0.000000 0.000000
 50 0.000001 -4.440602 0.000000 1.569944 -3.078603 0.004053
 51 10.510131 -0.000001 -0.000001 -0.000000 0.000000 -2.492042
 52 0.000000 -1.748400 -5.000003 -3.141593 0.004007 -1.539299
 53 5.500000 -0.000001 -0.000001 -0.123826 -0.000000 -0.000000
 54 -0.000000 0.000001 -5.000000 -0.044472 3.137589 -0.000177
 55 6.551490 0.000000 -0.000001 0.123826 -0.098028 -0.252674
 56 -1.266842 -1.937441 -4.950559 -0.066572 -2.988806 -0.110308
 57 6.551491 0.000000 -0.000001 0.123826 -0.098028 -0.252674
 58 0.699371 -1.944209 -5.006845 -0.027189 -3.088217 0.005298
 59 4.226147 -0.003203 -0.000001 -0.150648 0.247680 -0.105131
 60 0.000000 5.000001 -0.000001 -0.153564 0.000087 2.718702
 61 0.000006 -0.000004 -3.713579 0.119535 -2.936655 -0.885276
 62 0.000003 0.000000 5.000000 3.053195 1.558589 -0.074929
 63 -0.000005 0.000006 3.713580 -0.311487 -2.845558 -0.582080
 64 0.000001 0.000000 -5.000000 -0.088726 1.558589 3.066335
 65 7.363603 1.646648 0.495664 -3.141593 -1.570796 0.000000
 66 -0.000005 0.000007 3.619082 -0.441735 -2.434423 -1.159240
 67 16.573917 -0.000001 0.000001 -0.000000 -0.000000 -2.011748
 68 15.128180 0.000001 0.000001 0.026832 0.026147 -0.175154
 69 5.758666 4.244731 0.000000 0.000000 -0.000000 2.033309
 70 3.177727 0.000000 0.000000 0.000000 0.000000 3.141593
 71 15.708951 0.000002 0.000001 0.013957 0.013894 -0.093781
 72 0.275148 0.189215 -3.445208 3.130898 0.000409 -1.514604
 73 17.210192 -0.000002 0.000002 -0.000000 0.000000 -2.319003
 74 0.000000 -0.000001 -4.999999 -0.079433 1.546568 -1.570857
 75 0.000007 -0.000003 -3.619079 0.260448 -2.945758 -1.468642
 76 16.573919 -0.000000 0.000001 0.000000 0.000000 -1.562392
 77 15.128181 0.000000 0.000001 0.265624 -0.173430 0.666428
 78 5.758665 4.244731 0.000000 -0.000000 0.000000 1.483530
 79 4.003934 -0.000000 0.000000 0.000000 0.000000 0.000000
 80 15.708953 0.000000 0.000000 0.195074 -0.100553 0.460486
 81 0.273998 0.191090 3.439762 -3.130907 -0.000437 -1.508107
 82 17.210194 -0.000000 0.000000 -0.000000 0.000000 -2.116793
 83 0.000000 0.000000 5.000000 -0.079311 1.595025 -1.570737
end
