version 1
nodes
  0 "Bip01"  -1
  1 "Bip01 Footsteps"   0
  2 "Bip01 Pelvis"   0
  3 "Bip01 Spine"   2
  4 "Bip01 Spine1"   3
  5 "Bip01 Spine2"   4
  6 "Bip01 Spine3"   5
  7 "Bip01 Neck"   6
  8 "Bip01 Head"   7
  9 "Dummy21"   8
 10 "Bip01 L Clavicle"   7
 11 "Bip01 L UpperArm"  10
 12 "Bip01 L Forearm"  11
 13 "Bip01 L Hand"  12
 14 "Bip01 L Finger0"  13
 15 "Bip01 L Finger01"  14
 16 "Dummy06"  15
 17 "Bip01 L Finger1"  13
 18 "Bip01 L Finger11"  17
 19 "Dummy03"  18
 20 "-- L knuckle"  17
 21 "-- L knuckle_end"  20
 22 "-- L Forearm twist"  12
 23 "-- L Forearm twist_end"  22
 24 "-- L wrist"  12
 25 "-- L wrist_end"  24
 26 "-- L Elbow"  11
 27 "--L Elbow_end"  26
 28 "-- L bicep twist"  11
 29 "-- L bicep twist_end"  28
 30 "-- L shoulder outside"  10
 31 "-- L shoulder outside_end"  30
 32 "-- L Shoulder inside"  10
 33 "-- L Shoulder inside_end"  32
 34 "Bip01 R Clavicle"   7
 35 "Bip01 R UpperArm"  34
 36 "Bip01 R Forearm"  35
 37 "Bip01 R Hand"  36
 38 "Bip01 R Finger0"  37
 39 "Bip01 R Finger01"  38
 40 "Dummy01"  39
 41 "Bip01 R Finger1"  37
 42 "Bip01 R Finger11"  41
 43 "Dummy02"  42
 44 "-- R knuckle"  41
 45 "Point06"  44
 46 "Beretta Elite"  37
 47 "-- R wrist"  36
 48 "-- R wrist_end"  47
 49 "-- R forearm twist"  36
 50 "-- R forearm twist_end"  49
 51 "-- R Elbow"  35
 52 "--R Elbow_end"  51
 53 "-- R bicep twist"  35
 54 "-- R bicep twist_end"  53
 55 "-- R Shoulder inside"  34
 56 "-- R Shoulder inside_end"  55
 57 "-- R shoulder outside"  34
 58 "-- R shoulder outside_end"  57
 59 "-- Neck smooth"   6
 60 "-- neck smooth end"  59
 61 "-- R Butt"   2
 62 "--R Butt_end"  61
 63 "-- L butt"   2
 64 "--L butt_end"  63
 65 "GIGN01"   2
 66 "Bip01 L Thigh"   2
 67 "Bip01 L Calf"  66
 68 "Bip01 L Foot"  67
 69 "Bip01 L Toe0"  68
 70 "Dummy16"  69
 71 "-- L ankle"  67
 72 "-- L ankleend"  71
 73 "-- L Knee"  66
 74 "--L Knee_end"  73
 75 "Bip01 R Thigh"   2
 76 "Bip01 R Calf"  75
 77 "Bip01 R Foot"  76
 78 "Bip01 R Toe0"  77
 79 "Dummy11"  78
 80 "-- R Ankle"  76
 81 "-- R ankleend"  80
 82 "-- R Knee"  75
 83 "--R Knee_end"  82
end
skeleton
time 0
  0 0.500000 13.522099 26.931471 -0.243067 0.535714 -2.432935
  1 13.773751 5.584523 -22.520975 -0.544290 0.221328 2.303921
  2 -2.276934 0.000003 -1.238185 -1.570795 -1.570451 0.000000
  3 1.796149 0.711951 0.000037 -0.012650 -0.392226 -0.303111
  4 4.119613 -0.003083 0.000488 -0.151303 0.147833 0.293347
  5 4.119820 -0.003029 0.000325 -0.099848 -0.076338 0.390104
  6 4.117314 -0.002953 0.000610 -0.204226 0.407251 -0.493431
  7 4.116651 -0.002365 -0.001763 0.585718 0.448476 -0.410249
  8 4.443596 -0.000000 0.000000 -1.169326 0.088288 0.086552
  9 9.024062 -0.000000 -0.000000 0.000000 0.000000 0.000000
 10 -0.751291 0.866657 1.301116 -1.457846 -2.337512 -1.245412
 11 6.384776 0.000000 -0.000002 -0.770872 0.046733 -2.085661
 12 10.242682 0.000000 0.000001 -0.000000 0.000000 -0.803286
 13 11.375560 0.000001 -0.000000 -3.126513 0.311094 -0.424771
 14 0.728680 0.023431 -1.008292 1.267228 0.796324 -0.150945
 15 2.136500 -0.000000 -0.000000 -0.000000 -0.000000 -0.078540
 16 2.313138 -0.000000 -0.000001 0.000000 0.000000 0.000000
 17 3.115506 -0.886041 -0.021430 -0.117597 -0.382555 -0.171683
 18 2.011151 -0.000001 0.000002 -0.000000 0.000000 0.354134
 19 2.141380 0.000001 0.000001 0.000000 0.000000 0.000000
 20 1.734173 -0.000001 0.000003 0.000000 -0.000000 0.177895
 21 0.000006 -4.440594 -0.000001 1.570544 -0.062990 -0.195737
 22 6.000000 -0.000000 0.000000 -2.797668 -0.000000 0.000000
 23 0.000001 -4.440601 -0.000001 1.569944 -0.062987 0.004053
 24 11.375562 -0.000000 0.000004 -2.318696 0.262870 -0.150879
 25 -0.000001 -4.440604 -0.000000 1.570144 -0.062988 0.004040
 26 10.510131 -0.000001 0.000002 0.000000 0.000000 -1.972440
 27 -0.000000 -1.748400 4.999999 -0.000000 0.004007 1.602290
 28 5.500000 -0.000000 0.000001 0.244278 -0.000000 -0.000000
 29 -0.000002 -1.940598 5.000001 -0.044472 0.004003 -0.000180
 30 6.551490 0.000000 -0.000002 -0.659399 0.181435 -1.706782
 31 -0.000001 -1.940601 5.000001 -0.027189 -0.053376 0.005295
 32 6.551490 0.000000 -0.000002 -0.165531 0.162222 -0.497269
 33 -0.000000 -1.940599 4.999999 -0.066572 -0.152786 -0.110311
 34 0.751292 -0.859581 -1.301116 1.714357 1.169008 -0.873610
 35 6.384777 -0.000001 -0.000004 1.421064 0.545316 -0.677262
 36 10.242682 0.000001 0.000001 0.000000 0.000000 -0.383810
 37 11.375562 -0.000002 0.000002 1.955431 0.193647 -0.133800
 38 0.728680 0.023431 1.008292 -1.579583 -0.319038 0.212973
 39 2.136499 -0.000001 -0.000001 0.000000 0.000000 1.282817
 40 2.313139 0.000001 0.000000 0.000000 0.000000 3.141593
 41 3.115507 -0.886041 0.021432 0.420765 0.316066 0.167178
 42 2.011151 0.000001 0.000000 -0.000000 0.000000 2.082010
 43 2.141378 -0.000001 -0.000000 0.000000 0.000000 3.141593
 44 1.734173 -0.000002 0.000000 -0.000000 0.000000 1.041748
 45 0.136316 -3.738194 2.525890 1.493698 2.759406 -1.474501
 46 5.031113 -0.189688 1.849663 -2.967941 -0.035742 1.570790
 47 11.389368 -0.000822 0.158781 1.764450 0.101144 -0.087046
 48 -0.000001 -4.440599 0.000000 1.570144 -3.078602 0.004040
 49 6.000001 -0.000002 0.000000 1.764450 -0.000000 -0.000000
 50 0.000003 -4.440602 0.000000 1.569944 -3.078603 0.004053
 51 10.510131 0.000001 0.000002 0.000000 0.000000 -1.762701
 52 -0.000000 -1.748399 -5.000000 -3.141593 0.004007 -1.539299
 53 5.500001 -0.000001 -0.000000 -0.432576 -0.000000 0.000000
 54 -0.000001 0.000001 -4.999999 -0.044472 3.137589 -0.000177
 55 6.551490 -0.000002 0.000000 0.432576 0.025731 -0.280931
 56 -1.266844 -1.937443 -4.950557 -0.066572 -2.988806 -0.110308
 57 6.551491 -0.000002 0.000000 0.432576 0.025731 -0.280931
 58 0.699370 -1.944208 -5.006844 -0.027189 -3.088217 0.005298
 59 4.226145 -0.003201 -0.000000 0.303873 0.199200 -0.244636
 60 -0.000001 5.000000 -0.000000 -0.153564 0.000087 2.718702
 61 0.000006 -0.000004 -3.713579 0.119535 -2.936655 -0.885276
 62 0.000003 0.000000 5.000000 3.053195 1.558589 -0.074929
 63 -0.000005 0.000006 3.713580 -0.311487 -2.845558 -0.582080
 64 0.000001 0.000000 -5.000000 -0.088726 1.558589 3.066335
 65 7.363603 1.646648 0.495664 -3.141593 -1.570796 0.000000
 66 -0.000005 0.000007 3.619082 -0.441735 -2.434423 -1.159240
 67 16.573917 -0.000000 0.000001 -0.000000 -0.000000 -2.011748
 68 15.128181 0.000000 -0.000000 0.026832 0.026147 -0.175154
 69 5.758666 4.244731 0.000000 0.000000 -0.000000 2.033309
 70 3.177727 0.000000 0.000000 0.000000 0.000000 3.141593
 71 15.708951 0.000002 -0.000000 0.013957 0.013894 -0.093781
 72 0.275148 0.189215 -3.445208 3.130898 0.000409 -1.514604
 73 17.210192 -0.000001 0.000002 -0.000000 0.000000 -2.319003
 74 0.000000 -0.000001 -5.000000 -0.079433 1.546568 -1.570857
 75 0.000007 -0.000003 -3.619079 0.260448 -2.945758 -1.468642
 76 16.573919 -0.000000 0.000001 0.000000 0.000000 -1.562392
 77 15.128181 0.000000 0.000001 0.265624 -0.173430 0.666428
 78 5.758665 4.244731 0.000000 -0.000000 0.000000 1.483530
 79 4.003934 -0.000000 0.000000 0.000000 0.000000 0.000000
 80 15.708953 0.000000 0.000000 0.195074 -0.100553 0.460486
 81 0.273998 0.191090 3.439762 -3.130907 -0.000437 -1.508107
 82 17.210194 -0.000000 0.000000 -0.000000 0.000000 -2.116793
 83 0.000000 0.000000 5.000000 -0.079311 1.595025 -1.570737
time 1
  0 0.500000 13.522099 26.931471 -0.243067 0.535714 -2.432935
  1 13.773751 5.584523 -22.520975 -0.544290 0.221328 2.303921
  2 -2.276934 0.000003 -1.238185 -1.570795 -1.570451 0.000000
  3 1.796159 0.711948 0.000017 -0.006160 -0.388999 -0.303175
  4 4.119609 -0.003088 0.000467 -0.144912 0.151020 0.292837
  5 4.119823 -0.003029 0.000306 -0.093356 -0.073129 0.389764
  6 4.117302 -0.002950 0.000594 -0.198050 0.410407 -0.494164
  7 4.116716 -0.002396 -0.001795 0.588844 0.419841 -0.401312
  8 4.443597 -0.000000 0.000000 -1.179317 0.079879 0.061345
  9 9.024064 -0.000000 0.000001 0.000000 0.000000 0.000000
 10 -0.706281 0.882311 1.315767 -1.431434 -2.331106 -1.287110
 11 6.384776 0.000001 0.000001 -0.769220 0.047521 -2.099852
 12 10.242682 0.000001 0.000001 -0.000000 0.000000 -0.793672
 13 11.375561 0.000001 0.000002 -3.126513 0.311094 -0.424772
 14 0.728681 0.023431 -1.008291 1.267227 0.796324 -0.150945
 15 2.136497 -0.000001 -0.000001 -0.000000 -0.000000 -0.078540
 16 2.313142 0.000000 -0.000001 0.000000 0.000000 0.000000
 17 3.115506 -0.886041 -0.021430 -0.117597 -0.382555 -0.171683
 18 2.011150 -0.000001 0.000003 -0.000000 0.000000 0.354134
 19 2.141380 0.000001 -0.000002 0.000000 0.000000 0.000000
 20 1.734173 0.000001 0.000000 -0.000000 0.000000 0.177895
 21 0.000007 -4.440594 -0.000001 1.570544 -0.062990 -0.195737
 22 5.999999 0.000001 0.000001 -2.797668 -0.000000 -0.000000
 23 0.000001 -4.440601 0.000001 1.569944 -0.062987 0.004053
 24 11.375560 0.000001 0.000003 -2.318696 0.262870 -0.150879
 25 -0.000003 -4.440603 0.000001 1.570144 -0.062988 0.004040
 26 10.510130 -0.000001 0.000002 0.000000 0.000000 -1.967633
 27 0.000001 -1.748400 4.999998 -0.000000 0.004007 1.602290
 28 5.500000 0.000001 0.000000 0.243147 -0.000000 0.000000
 29 -0.000002 -1.940598 5.000001 -0.044472 0.004003 -0.000180
 30 6.551490 0.000001 0.000001 -0.659467 0.181279 -1.716163
 31 0.000000 -1.940598 5.000000 -0.027189 -0.053376 0.005295
 32 6.551490 0.000001 0.000001 -0.164326 0.161901 -0.496820
 33 -0.000000 -1.940598 4.999997 -0.066572 -0.152786 -0.110311
 34 0.706284 -0.875234 -1.315767 1.798926 1.224563 -0.797769
 35 6.384775 -0.000001 0.000000 1.438639 0.457292 -0.597766
 36 10.242682 0.000001 0.000001 0.000000 0.000000 -0.479624
 37 11.375563 -0.000002 -0.000001 1.972318 0.153641 -0.036151
 38 0.728680 0.023432 1.008292 -1.579583 -0.319038 0.212973
 39 2.136498 -0.000001 -0.000001 -0.000000 0.000000 1.282817
 40 2.313139 0.000000 -0.000001 0.000000 0.000000 3.141593
 41 3.115505 -0.886039 0.021430 0.420766 0.316066 0.167178
 42 2.011152 -0.000001 0.000001 0.000000 0.000000 2.082010
 43 2.141379 -0.000001 0.000001 0.000000 0.000000 3.141593
 44 1.734171 -0.000002 -0.000001 -0.000000 -0.000000 1.041748
 45 0.136315 -3.738193 2.525889 1.493698 2.759406 -1.474501
 46 5.031111 -0.189688 1.849663 -2.967941 -0.035742 1.570790
 47 11.389365 -0.000820 0.158781 1.771599 0.084632 -0.030062
 48 0.000000 -4.440599 0.000000 1.570144 -3.078602 0.004040
 49 6.000001 -0.000001 -0.000002 1.771599 -0.000000 0.000000
 50 0.000003 -4.440601 -0.000001 1.569944 -3.078603 0.004053
 51 10.510130 0.000000 0.000002 0.000000 -0.000000 -1.810609
 52 0.000001 -1.748400 -5.000002 3.141593 0.004007 -1.539299
 53 5.499999 0.000000 0.000001 -0.434829 -0.000000 -0.000000
 54 0.000001 -0.000000 -5.000002 -0.044472 3.137589 -0.000177
 55 6.551490 0.000000 -0.000003 0.434829 0.010804 -0.263817
 56 -1.266843 -1.937443 -4.950560 -0.066572 -2.988806 -0.110308
 57 6.551491 -0.000000 -0.000003 0.434829 0.010804 -0.263817
 58 0.699370 -1.944208 -5.006846 -0.027189 -3.088217 0.005298
 59 4.226146 -0.003202 -0.000001 0.304521 0.185343 -0.239734
 60 0.000003 5.000000 -0.000001 -0.153564 0.000087 2.718702
 61 0.000006 -0.000004 -3.713579 0.119535 -2.936655 -0.885276
 62 0.000003 0.000000 5.000000 3.053195 1.558589 -0.074929
 63 -0.000005 0.000006 3.713580 -0.311487 -2.845558 -0.582080
 64 0.000001 0.000000 -5.000000 -0.088726 1.558589 3.066335
 65 7.363603 1.646648 0.495664 -3.141593 -1.570796 0.000000
 66 -0.000005 0.000007 3.619082 -0.441735 -2.434423 -1.159240
 67 16.573917 -0.000000 0.000001 -0.000000 -0.000000 -2.011748
 68 15.128181 0.000000 -0.000000 0.026832 0.026147 -0.175154
 69 5.758666 4.244731 0.000000 0.000000 -0.000000 2.033309
 70 3.177727 0.000000 0.000000 0.000000 0.000000 3.141593
 71 15.708951 0.000002 -0.000000 0.013957 0.013894 -0.093781
 72 0.275148 0.189215 -3.445208 3.130898 0.000409 -1.514604
 73 17.210192 -0.000001 0.000002 -0.000000 0.000000 -2.319003
 74 0.000000 -0.000001 -5.000000 -0.079433 1.546568 -1.570857
 75 0.000007 -0.000003 -3.619079 0.260448 -2.945758 -1.468642
 76 16.573919 -0.000000 0.000001 0.000000 0.000000 -1.562392
 77 15.128181 0.000000 0.000001 0.265624 -0.173430 0.666428
 78 5.758665 4.244731 0.000000 -0.000000 0.000000 1.483530
 79 4.003934 -0.000000 0.000000 0.000000 0.000000 0.000000
 80 15.708953 0.000000 0.000000 0.195074 -0.100553 0.460486
 81 0.273998 0.191090 3.439762 -3.130907 -0.000437 -1.508107
 82 17.210194 -0.000000 0.000000 -0.000000 0.000000 -2.116793
 83 0.000000 0.000000 5.000000 -0.079311 1.595025 -1.570737
time 2
  0 0.500000 13.522099 26.931471 -0.243067 0.535714 -2.432935
  1 13.773751 5.584523 -22.520975 -0.544290 0.221328 2.303921
  2 -2.276934 0.000003 -1.238185 -1.570795 -1.570451 0.000000
  3 1.796166 0.711946 -0.000002 0.000322 -0.385772 -0.303215
  4 4.119606 -0.003092 0.000446 -0.138520 0.154211 0.292348
  5 4.119827 -0.003030 0.000284 -0.086867 -0.069918 0.389445
  6 4.117295 -0.002951 0.000574 -0.191869 0.413568 -0.494876
  7 4.116783 -0.002425 -0.001824 0.591659 0.391175 -0.392585
  8 4.443598 -0.000001 0.000000 -1.189638 0.071449 0.036412
  9 9.024060 -0.000000 -0.000000 0.000000 0.000000 0.000000
 10 -0.660643 0.896939 1.329551 -1.404471 -2.325476 -1.329319
 11 6.384776 0.000001 0.000002 -0.767382 0.046857 -2.115231
 12 10.242682 0.000001 0.000002 -0.000000 0.000000 -0.780736
 13 11.375563 -0.000000 0.000001 -3.126513 0.311094 -0.424771
 14 0.728681 0.023431 -1.008293 1.267227 0.796324 -0.150945
 15 2.136500 -0.000000 -0.000001 -0.000000 -0.000000 -0.078540
 16 2.313139 -0.000000 0.000001 0.000000 0.000000 0.000000
 17 3.115507 -0.886041 -0.021432 -0.117597 -0.382555 -0.171683
 18 2.011150 -0.000000 -0.000002 -0.000000 -0.000000 0.354134
 19 2.141381 0.000001 0.000001 0.000000 0.000000 0.000000
 20 1.734172 0.000000 -0.000001 0.000000 0.000000 0.177895
 21 0.000005 -4.440594 0.000001 1.570544 -0.062990 -0.195737
 22 6.000000 -0.000002 0.000002 -2.797668 0.000000 0.000000
 23 0.000000 -4.440602 0.000001 1.569944 -0.062987 0.004053
 24 11.375561 0.000000 0.000002 -2.318696 0.262870 -0.150879
 25 -0.000000 -4.440603 0.000000 1.570144 -0.062988 0.004040
 26 10.510130 0.000001 0.000002 -0.000000 -0.000000 -1.961164
 27 0.000001 -1.748400 4.999998 0.000000 0.004007 1.602290
 28 5.500000 0.000002 0.000000 0.242117 -0.000000 0.000000
 29 -0.000001 -1.940598 5.000001 -0.044472 0.004003 -0.000180
 30 6.551491 0.000001 -0.000001 -0.659433 0.179961 -1.726325
 31 -0.000001 -1.940601 5.000002 -0.027189 -0.053376 0.005295
 32 6.551491 0.000001 -0.000001 -0.163192 0.161163 -0.496305
 33 -0.000001 -1.940598 4.999998 -0.066572 -0.152786 -0.110311
 34 0.660642 -0.889864 -1.329552 1.916366 1.275820 -0.692471
 35 6.384775 -0.000001 0.000003 1.450063 0.367875 -0.523920
 36 10.242682 0.000001 -0.000001 0.000000 0.000000 -0.573527
 37 11.375561 -0.000002 -0.000002 1.984984 0.112704 0.059151
 38 0.728682 0.023432 1.008293 -1.579583 -0.319038 0.212973
 39 2.136497 -0.000001 -0.000001 -0.000000 0.000000 1.282817
 40 2.313140 0.000000 -0.000000 0.000000 0.000000 3.141593
 41 3.115509 -0.886040 0.021432 0.420765 0.316066 0.167178
 42 2.011151 0.000001 0.000004 0.000000 -0.000000 2.082010
 43 2.141380 -0.000000 -0.000002 0.000000 0.000000 3.141593
 44 1.734173 -0.000001 0.000001 0.000000 0.000000 1.041748
 45 0.136315 -3.738193 2.525893 1.493698 2.759406 -1.474501
 46 5.031116 -0.189688 1.849663 -2.967941 -0.035742 1.570790
 47 11.389365 -0.000820 0.158781 1.777250 0.067108 0.027326
 48 0.000000 -4.440599 0.000000 1.570144 -3.078602 0.004040
 49 6.000001 -0.000001 -0.000002 1.777250 0.000000 -0.000000
 50 0.000002 -4.440600 -0.000002 1.569944 -3.078603 0.004053
 51 10.510131 0.000002 0.000001 0.000000 0.000000 -1.857560
 52 0.000000 -1.748401 -5.000000 3.141593 0.004007 -1.539299
 53 5.500000 0.000001 -0.000001 -0.435906 -0.000000 0.000000
 54 -0.000001 0.000001 -4.999997 -0.044472 3.137589 -0.000177
 55 6.551489 -0.000000 0.000002 0.435906 -0.004647 -0.245896
 56 -1.266844 -1.937443 -4.950561 -0.066572 -2.988806 -0.110308
 57 6.551490 0.000000 0.000002 0.435906 -0.004647 -0.245896
 58 0.699371 -1.944207 -5.006848 -0.027189 -3.088217 0.005298
 59 4.226144 -0.003201 -0.000001 0.305084 0.171428 -0.234788
 60 0.000001 5.000001 -0.000000 -0.153564 0.000087 2.718702
 61 0.000006 -0.000004 -3.713579 0.119535 -2.936655 -0.885276
 62 0.000003 0.000000 5.000000 3.053195 1.558589 -0.074929
 63 -0.000005 0.000006 3.713580 -0.311487 -2.845558 -0.582080
 64 0.000001 0.000000 -5.000000 -0.088726 1.558589 3.066335
 65 7.363603 1.646648 0.495664 -3.141593 -1.570796 0.000000
 66 -0.000005 0.000007 3.619082 -0.441735 -2.434423 -1.159240
 67 16.573917 -0.000000 0.000001 -0.000000 -0.000000 -2.011748
 68 15.128181 0.000000 -0.000000 0.026832 0.026147 -0.175154
 69 5.758666 4.244731 0.000000 0.000000 -0.000000 2.033309
 70 3.177727 0.000000 0.000000 0.000000 0.000000 3.141593
 71 15.708951 0.000002 -0.000000 0.013957 0.013894 -0.093781
 72 0.275148 0.189215 -3.445208 3.130898 0.000409 -1.514604
 73 17.210192 -0.000001 0.000002 -0.000000 0.000000 -2.319003
 74 0.000000 -0.000001 -5.000000 -0.079433 1.546568 -1.570857
 75 0.000007 -0.000003 -3.619079 0.260448 -2.945758 -1.468642
 76 16.573919 -0.000000 0.000001 0.000000 0.000000 -1.562392
 77 15.128181 0.000000 0.000001 0.265624 -0.173430 0.666428
 78 5.758665 4.244731 0.000000 -0.000000 0.000000 1.483530
 79 4.003934 -0.000000 0.000000 0.000000 0.000000 0.000000
 80 15.708953 0.000000 0.000000 0.195074 -0.100553 0.460486
 81 0.273998 0.191090 3.439762 -3.130907 -0.000437 -1.508107
 82 17.210194 -0.000000 0.000000 -0.000000 0.000000 -2.116793
 83 0.000000 0.000000 5.000000 -0.079311 1.595025 -1.570737
time 3
  0 0.500000 13.522099 26.931471 -0.243067 0.535714 -2.432935
  1 13.773751 5.584523 -22.520975 -0.544290 0.221328 2.303921
  2 -2.276934 0.000003 -1.238185 -1.570795 -1.570451 0.000000
  3 1.796171 0.711944 -0.000016 0.004854 -0.383513 -0.303230
  4 4.119605 -0.003093 0.000434 -0.134044 0.156445 0.292018
  5 4.119828 -0.003031 0.000269 -0.082326 -0.067670 0.389234
  6 4.117286 -0.002951 0.000562 -0.187538 0.415782 -0.495363
  7 4.116832 -0.002446 -0.001844 0.593453 0.371091 -0.386590
  8 4.443601 -0.000000 0.000000 -1.197058 0.065531 0.019130
  9 9.024062 -0.000000 0.000001 0.000000 0.000000 0.000000
 10 -0.628336 0.906563 1.338677 -1.385302 -2.322007 -1.359139
 11 6.384777 0.000000 0.000000 -0.766611 0.043893 -2.126346
 12 10.242682 -0.000000 0.000001 -0.000000 -0.000000 -0.774955
 13 11.375562 -0.000000 0.000000 -3.126513 0.311094 -0.424772
 14 0.728680 0.023431 -1.008293 1.267228 0.796324 -0.150945
 15 2.136497 0.000000 -0.000000 -0.000000 -0.000000 -0.078540
 16 2.313138 0.000000 0.000000 0.000000 0.000000 0.000000
 17 3.115505 -0.886041 -0.021431 -0.117597 -0.382555 -0.171683
 18 2.011150 -0.000000 0.000000 -0.000000 -0.000000 0.354134
 19 2.141380 0.000001 -0.000001 0.000000 0.000000 0.000000
 20 1.734172 0.000000 0.000000 0.000000 -0.000000 0.177895
 21 0.000006 -4.440593 -0.000001 1.570544 -0.062990 -0.195737
 22 6.000001 -0.000001 0.000000 -2.797668 -0.000000 0.000000
 23 0.000003 -4.440601 -0.000000 1.569944 -0.062987 0.004053
 24 11.375563 -0.000002 0.000004 -2.318696 0.262870 -0.150879
 25 -0.000001 -4.440604 0.000002 1.570144 -0.062988 0.004040
 26 10.510131 -0.000000 0.000001 -0.000000 -0.000000 -1.958274
 27 -0.000000 -1.748400 4.999999 -0.000000 0.004007 1.602291
 28 5.500000 0.000000 -0.000000 0.241833 -0.000000 0.000000
 29 -0.000002 -1.940600 5.000002 -0.044472 0.004003 -0.000180
 30 6.551491 0.000001 0.000000 -0.659805 0.177324 -1.733858
 31 0.000000 -1.940598 5.000002 -0.027189 -0.053376 0.005295
 32 6.551491 0.000001 0.000000 -0.162724 0.160151 -0.495852
 33 -0.000000 -1.940599 4.999996 -0.066572 -0.152786 -0.110311
 34 0.628343 -0.899486 -1.338677 2.008541 1.305873 -0.611166
 35 6.384777 -0.000001 0.000002 1.454633 0.325575 -0.478114
 36 10.242682 -0.000001 0.000000 0.000000 0.000000 -0.612870
 37 11.375561 -0.000001 -0.000000 1.990792 0.086957 0.117405
 38 0.728682 0.023431 1.008293 -1.579583 -0.319038 0.212973
 39 2.136496 -0.000002 0.000000 0.000000 0.000000 1.282817
 40 2.313139 0.000002 0.000000 0.000000 0.000000 3.141593
 41 3.115509 -0.886041 0.021432 0.420766 0.316066 0.167178
 42 2.011149 -0.000001 -0.000002 0.000000 0.000000 2.082010
 43 2.141379 -0.000000 -0.000001 0.000000 0.000000 3.141593
 44 1.734171 -0.000002 0.000000 0.000000 0.000000 1.041748
 45 0.136314 -3.738193 2.525891 1.493698 2.759406 -1.474501
 46 5.031116 -0.189689 1.849663 -2.967941 -0.035742 1.570790
 47 11.389366 -0.000822 0.158781 1.779966 0.055925 0.062514
 48 -0.000000 -4.440599 0.000000 1.570144 -3.078602 0.004040
 49 5.999999 0.000001 0.000001 1.779966 0.000000 0.000000
 50 0.000005 -4.440602 0.000000 1.569944 -3.078603 0.004053
 51 10.510129 0.000001 0.000003 0.000000 -0.000000 -1.877231
 52 -0.000001 -1.748402 -5.000000 -3.141593 0.004007 -1.539299
 53 5.499998 0.000000 0.000002 -0.436258 -0.000000 0.000000
 54 -0.000000 0.000000 -5.000000 -0.044472 3.137589 -0.000177
 55 6.551491 -0.000001 0.000001 0.436258 -0.010537 -0.235400
 56 -1.266843 -1.937443 -4.950559 -0.066572 -2.988806 -0.110308
 57 6.551492 -0.000000 0.000001 0.436258 -0.010537 -0.235400
 58 0.699371 -1.944208 -5.006845 -0.027189 -3.088217 0.005298
 59 4.226145 -0.003201 -0.000000 0.305428 0.161649 -0.231295
 60 0.000000 5.000001 -0.000001 -0.153564 0.000087 2.718702
 61 0.000006 -0.000004 -3.713579 0.119535 -2.936655 -0.885276
 62 0.000003 0.000000 5.000000 3.053195 1.558589 -0.074929
 63 -0.000005 0.000006 3.713580 -0.311487 -2.845558 -0.582080
 64 0.000001 0.000000 -5.000000 -0.088726 1.558589 3.066335
 65 7.363603 1.646648 0.495664 -3.141593 -1.570796 0.000000
 66 -0.000005 0.000007 3.619082 -0.441735 -2.434423 -1.159240
 67 16.573917 -0.000000 0.000001 -0.000000 -0.000000 -2.011748
 68 15.128181 0.000000 -0.000000 0.026832 0.026147 -0.175154
 69 5.758666 4.244731 0.000000 0.000000 -0.000000 2.033309
 70 3.177727 0.000000 0.000000 0.000000 0.000000 3.141593
 71 15.708951 0.000002 -0.000000 0.013957 0.013894 -0.093781
 72 0.275148 0.189215 -3.445208 3.130898 0.000409 -1.514604
 73 17.210192 -0.000001 0.000002 -0.000000 0.000000 -2.319003
 74 0.000000 -0.000001 -5.000000 -0.079433 1.546568 -1.570857
 75 0.000007 -0.000003 -3.619079 0.260448 -2.945758 -1.468642
 76 16.573919 -0.000000 0.000001 0.000000 0.000000 -1.562392
 77 15.128181 0.000000 0.000001 0.265624 -0.173430 0.666428
 78 5.758665 4.244731 0.000000 -0.000000 0.000000 1.483530
 79 4.003934 -0.000000 0.000000 0.000000 0.000000 0.000000
 80 15.708953 0.000000 0.000000 0.195074 -0.100553 0.460486
 81 0.273998 0.191090 3.439762 -3.130907 -0.000437 -1.508107
 82 17.210194 -0.000000 0.000000 -0.000000 0.000000 -2.116793
 83 0.000000 0.000000 5.000000 -0.079311 1.595025 -1.570737
time 4
  0 0.500000 13.522099 26.931471 -0.243067 0.535714 -2.432935
  1 13.773751 5.584523 -22.520975 -0.544290 0.221328 2.303921
  2 -2.276934 0.000003 -1.238185 -1.570795 -1.570451 0.000000
  3 1.796172 0.711944 -0.000020 0.006149 -0.382868 -0.303232
  4 4.119604 -0.003094 0.000429 -0.132765 0.157084 0.291925
  5 4.119827 -0.003032 0.000266 -0.081029 -0.067027 0.389175
  6 4.117285 -0.002952 0.000556 -0.186300 0.416415 -0.495500
  7 4.116849 -0.002453 -0.001850 0.593940 0.365350 -0.384893
  8 4.443598 -0.000000 -0.000000 -1.199207 0.063837 0.014220
  9 9.024058 -0.000001 -0.000000 0.000000 0.000000 0.000000
 10 -0.619060 0.909217 1.341205 -1.379784 -2.321088 -1.367698
 11 6.384776 0.000000 0.000002 -0.767864 0.039047 -2.128747
 12 10.242682 0.000002 -0.000002 0.000000 0.000000 -0.785550
 13 11.375560 0.000000 -0.000000 -3.126513 0.311094 -0.424772
 14 0.728680 0.023430 -1.008293 1.267228 0.796324 -0.150945
 15 2.136497 0.000000 -0.000001 0.000000 0.000000 -0.078540
 16 2.313137 -0.000000 0.000000 0.000000 0.000000 0.000000
 17 3.115506 -0.886041 -0.021432 -0.117597 -0.382555 -0.171683
 18 2.011151 0.000002 -0.000001 -0.000000 0.000000 0.354134
 19 2.141379 -0.000001 0.000000 0.000000 0.000000 0.000000
 20 1.734173 0.000001 0.000000 0.000000 -0.000000 0.177895
 21 0.000006 -4.440596 0.000001 1.570544 -0.062990 -0.195737
 22 6.000000 -0.000000 -0.000000 -2.797668 -0.000000 0.000000
 23 0.000003 -4.440601 -0.000001 1.569944 -0.062987 0.004053
 24 11.375561 0.000002 0.000001 -2.318696 0.262870 -0.150879
 25 -0.000000 -4.440604 0.000001 1.570144 -0.062988 0.004040
 26 10.510130 -0.000000 -0.000001 0.000000 -0.000000 -1.963572
 27 0.000000 -1.748401 4.999999 0.000000 0.004007 1.602290
 28 5.500000 0.000001 -0.000001 0.242647 0.000000 0.000000
 29 -0.000002 -1.940597 5.000000 -0.044472 0.004003 -0.000180
 30 6.551490 -0.000000 0.000001 -0.660975 0.174015 -1.735994
 31 0.000001 -1.940597 5.000000 -0.027189 -0.053376 0.005295
 32 6.551490 0.000000 0.000001 -0.163270 0.159231 -0.495607
 33 0.000000 -1.940599 4.999994 -0.066572 -0.152786 -0.110311
 34 0.619060 -0.902142 -1.341205 2.043063 1.314441 -0.579893
 35 6.384776 -0.000002 0.000001 1.457609 0.343605 -0.462911
 36 10.242682 0.000002 0.000001 0.000000 0.000000 -0.579360
 37 11.375564 -0.000001 -0.000001 1.992311 0.078757 0.135753
 38 0.728682 0.023431 1.008293 -1.579583 -0.319038 0.212973
 39 2.136496 0.000001 0.000001 0.000000 -0.000000 1.282817
 40 2.313139 -0.000002 0.000000 0.000000 0.000000 3.141593
 41 3.115508 -0.886040 0.021432 0.420766 0.316066 0.167178
 42 2.011153 0.000000 -0.000001 -0.000000 0.000000 2.082010
 43 2.141381 -0.000001 -0.000001 0.000000 0.000000 3.141593
 44 1.734173 -0.000001 -0.000001 0.000000 0.000000 1.041748
 45 0.136315 -3.738192 2.525893 1.493698 2.759406 -1.474501
 46 5.031116 -0.189688 1.849663 -2.967941 -0.035742 1.570790
 47 11.389369 -0.000820 0.158782 1.780703 0.052358 0.073528
 48 0.000002 -4.440598 0.000001 1.570144 -3.078602 0.004040
 49 6.000001 0.000000 -0.000000 1.780703 -0.000000 0.000000
 50 0.000000 -4.440601 -0.000001 1.569944 -3.078603 0.004053
 51 10.510131 0.000000 0.000001 -0.000000 0.000000 -1.860477
 52 -0.000001 -1.748401 -5.000000 -3.141593 0.004007 -1.539299
 53 5.500000 0.000001 0.000000 -0.436523 0.000000 -0.000000
 54 0.000000 -0.000001 -5.000002 -0.044472 3.137589 -0.000177
 55 6.551490 -0.000001 -0.000000 0.436523 -0.003389 -0.235522
 56 -1.266843 -1.937443 -4.950557 -0.066572 -2.988806 -0.110308
 57 6.551490 -0.000001 -0.000000 0.436523 -0.003389 -0.235522
 58 0.699371 -1.944207 -5.006843 -0.027189 -3.088217 0.005298
 59 4.226145 -0.003201 -0.000000 0.305518 0.158850 -0.230292
 60 -0.000001 5.000000 0.000000 -0.153564 0.000087 2.718702
 61 0.000006 -0.000004 -3.713579 0.119535 -2.936655 -0.885276
 62 0.000003 0.000000 5.000000 3.053195 1.558589 -0.074929
 63 -0.000005 0.000006 3.713580 -0.311487 -2.845558 -0.582080
 64 0.000001 0.000000 -5.000000 -0.088726 1.558589 3.066335
 65 7.363603 1.646648 0.495664 -3.141593 -1.570796 0.000000
 66 -0.000005 0.000007 3.619082 -0.441735 -2.434423 -1.159240
 67 16.573917 -0.000001 0.000001 -0.000000 -0.000000 -2.011748
 68 15.128180 0.000001 0.000001 0.026832 0.026147 -0.175154
 69 5.758666 4.244731 0.000000 0.000000 -0.000000 2.033309
 70 3.177727 0.000000 0.000000 0.000000 0.000000 3.141593
 71 15.708951 0.000002 0.000001 0.013957 0.013894 -0.093781
 72 0.275148 0.189215 -3.445208 3.130898 0.000409 -1.514604
 73 17.210192 -0.000002 0.000002 -0.000000 0.000000 -2.319003
 74 0.000000 -0.000001 -4.999999 -0.079433 1.546568 -1.570857
 75 0.000007 -0.000003 -3.619079 0.260448 -2.945758 -1.468642
 76 16.573919 -0.000000 0.000001 0.000000 0.000000 -1.562392
 77 15.128181 0.000000 0.000001 0.265624 -0.173430 0.666428
 78 5.758665 4.244731 0.000000 -0.000000 0.000000 1.483530
 79 4.003934 -0.000000 0.000000 0.000000 0.000000 0.000000
 80 15.708953 0.000000 0.000000 0.195074 -0.100553 0.460486
 81 0.273998 0.191090 3.439762 -3.130907 -0.000437 -1.508107
 82 17.210194 -0.000000 0.000000 -0.000000 0.000000 -2.116793
 83 0.000000 0.000000 5.000000 -0.079311 1.595025 -1.570737
time 5
  0 0.500000 13.522099 26.931471 -0.243067 0.535714 -2.432935
  1 13.773751 5.584523 -22.520975 -0.544290 0.221328 2.303921
  2 -2.276934 0.000003 -1.238185 -1.570795 -1.570451 0.000000
  3 1.796171 0.711945 -0.000018 0.005502 -0.383190 -0.303231
  4 4.119606 -0.003095 0.000430 -0.133405 0.156765 0.291971
  5 4.119826 -0.003031 0.000268 -0.081677 -0.067348 0.389205
  6 4.117288 -0.002952 0.000557 -0.186919 0.416099 -0.495431
  7 4.116840 -0.002449 -0.001845 0.593698 0.368221 -0.385741
  8 4.443599 0.000000 0.000000 -1.198131 0.064684 0.016674
  9 9.024064 0.000000 0.000001 0.000000 0.000000 0.000000
 10 -0.623700 0.907895 1.339945 -1.382545 -2.321543 -1.363416
 11 6.384775 0.000000 0.000003 -0.770420 0.032587 -2.126404
 12 10.242682 0.000001 0.000001 0.000000 0.000000 -0.804831
 13 11.375560 0.000003 -0.000002 -3.126513 0.311094 -0.424772
 14 0.728681 0.023432 -1.008292 1.267227 0.796324 -0.150945
 15 2.136496 -0.000000 0.000000 -0.000000 -0.000000 -0.078540
 16 2.313141 0.000000 -0.000000 0.000000 0.000000 0.000000
 17 3.115507 -0.886040 -0.021430 -0.117598 -0.382555 -0.171683
 18 2.011151 0.000001 -0.000001 0.000000 0.000000 0.354134
 19 2.141380 -0.000000 -0.000001 0.000000 0.000000 0.000000
 20 1.734173 0.000000 0.000001 0.000000 0.000000 0.177895
 21 0.000007 -4.440595 0.000002 1.570544 -0.062990 -0.195737
 22 6.000000 0.000000 0.000000 -2.797668 0.000000 0.000000
 23 -0.000000 -4.440602 0.000001 1.569944 -0.062987 0.004053
 24 11.375561 0.000001 0.000002 -2.318696 0.262870 -0.150879
 25 -0.000001 -4.440603 0.000002 1.570144 -0.062988 0.004040
 26 10.510130 -0.000000 0.000001 -0.000000 0.000000 -1.973212
 27 0.000001 -1.748401 5.000000 -0.000000 0.004007 1.602291
 28 5.500000 -0.000000 0.000001 0.244173 0.000000 0.000000
 29 -0.000001 -1.940596 4.999999 -0.044472 0.004003 -0.000180
 30 6.551490 -0.000000 0.000000 -0.662712 0.169930 -1.735294
 31 0.000000 -1.940598 5.000001 -0.027189 -0.053376 0.005295
 32 6.551490 -0.000000 0.000000 -0.164451 0.158249 -0.495464
 33 0.000000 -1.940598 4.999993 -0.066572 -0.152786 -0.110311
 34 0.623706 -0.900819 -1.339946 2.025509 1.310198 -0.595807
 35 6.384775 -0.000002 0.000001 1.460153 0.402176 -0.467438
 36 10.242682 0.000001 -0.000001 0.000000 0.000000 -0.498767
 37 11.375561 -0.000003 -0.000002 1.991571 0.082861 0.126582
 38 0.728683 0.023431 1.008293 -1.579583 -0.319038 0.212973
 39 2.136497 0.000000 0.000000 -0.000000 0.000000 1.282817
 40 2.313139 0.000002 0.000001 0.000000 0.000000 3.141593
 41 3.115508 -0.886041 0.021431 0.420766 0.316066 0.167178
 42 2.011148 -0.000000 0.000002 -0.000000 -0.000000 2.082010
 43 2.141379 -0.000002 0.000001 0.000000 0.000000 3.141593
 44 1.734170 -0.000002 -0.000000 0.000000 -0.000000 1.041748
 45 0.136314 -3.738193 2.525888 1.493698 2.759406 -1.474501
 46 5.031114 -0.189688 1.849662 -2.967941 -0.035742 1.570790
 47 11.389368 -0.000821 0.158779 1.780342 0.054143 0.068029
 48 -0.000000 -4.440599 0.000000 1.570144 -3.078602 0.004040
 49 6.000000 -0.000001 -0.000001 1.780342 -0.000000 -0.000000
 50 0.000001 -4.440600 -0.000001 1.569944 -3.078603 0.004053
 51 10.510130 0.000000 0.000000 -0.000000 0.000000 -1.820180
 52 0.000000 -1.748397 -5.000002 -3.141593 0.004007 -1.539299
 53 5.499998 0.000002 0.000000 -0.436624 -0.000000 0.000000
 54 0.000000 -0.000000 -5.000001 -0.044472 3.137589 -0.000177
 55 6.551490 -0.000001 -0.000001 0.436624 0.012028 -0.242506
 56 -1.266843 -1.937443 -4.950562 -0.066572 -2.988806 -0.110308
 57 6.551490 -0.000001 -0.000001 0.436624 0.012028 -0.242506
 58 0.699370 -1.944208 -5.006848 -0.027189 -3.088217 0.005298
 59 4.226149 -0.003202 -0.000000 0.305474 0.160250 -0.230793
 60 -0.000000 5.000001 -0.000001 -0.153564 0.000087 2.718701
 61 0.000006 -0.000004 -3.713579 0.119535 -2.936655 -0.885276
 62 0.000003 0.000000 5.000000 3.053195 1.558589 -0.074929
 63 -0.000005 0.000006 3.713580 -0.311487 -2.845558 -0.582080
 64 0.000001 0.000000 -5.000000 -0.088726 1.558589 3.066335
 65 7.363603 1.646648 0.495664 -3.141593 -1.570796 0.000000
 66 -0.000005 0.000007 3.619082 -0.441735 -2.434423 -1.159240
 67 16.573917 -0.000001 0.000001 -0.000000 -0.000000 -2.011748
 68 15.128180 0.000001 0.000001 0.026832 0.026147 -0.175154
 69 5.758666 4.244731 0.000000 0.000000 -0.000000 2.033309
 70 3.177727 0.000000 0.000000 0.000000 0.000000 3.141593
 71 15.708951 0.000002 0.000001 0.013957 0.013894 -0.093781
 72 0.275148 0.189215 -3.445208 3.130898 0.000409 -1.514604
 73 17.210192 -0.000002 0.000002 -0.000000 0.000000 -2.319003
 74 0.000000 -0.000001 -4.999999 -0.079433 1.546568 -1.570857
 75 0.000007 -0.000003 -3.619079 0.260448 -2.945758 -1.468642
 76 16.573919 -0.000000 0.000001 0.000000 0.000000 -1.562392
 77 15.128181 0.000000 0.000001 0.265624 -0.173430 0.666428
 78 5.758665 4.244731 0.000000 -0.000000 0.000000 1.483530
 79 4.003934 -0.000000 0.000000 0.000000 0.000000 0.000000
 80 15.708953 0.000000 0.000000 0.195074 -0.100553 0.460486
 81 0.273998 0.191090 3.439762 -3.130907 -0.000437 -1.508107
 82 17.210194 -0.000000 0.000000 -0.000000 0.000000 -2.116793
 83 0.000000 0.000000 5.000000 -0.079311 1.595025 -1.570737
time 6
  0 0.500000 13.522099 26.931471 -0.243067 0.535714 -2.432935
  1 13.773751 5.584523 -22.520975 -0.544290 0.221328 2.303921
  2 -2.276934 0.000003 -1.238185 -1.570795 -1.570451 0.000000
  3 1.796171 0.711944 -0.000016 0.004854 -0.383513 -0.303230
  4 4.119605 -0.003093 0.000434 -0.134044 0.156445 0.292018
  5 4.119828 -0.003031 0.000269 -0.082326 -0.067670 0.389234
  6 4.117286 -0.002951 0.000562 -0.187538 0.415782 -0.495363
  7 4.116832 -0.002446 -0.001844 0.593453 0.371091 -0.386590
  8 4.443601 -0.000000 0.000000 -1.197058 0.065531 0.019130
  9 9.024062 -0.000000 0.000001 0.000000 0.000000 0.000000
 10 -0.628336 0.906563 1.338677 -1.385302 -2.322007 -1.359139
 11 6.384777 0.000000 0.000000 -0.773018 0.025337 -2.124779
 12 10.242682 0.000001 0.000000 -0.000000 0.000000 -0.822302
 13 11.375559 -0.000001 0.000001 -3.126513 0.311094 -0.424772
 14 0.728680 0.023430 -1.008293 1.267227 0.796324 -0.150945
 15 2.136497 0.000000 -0.000001 0.000000 -0.000000 -0.078540
 16 2.313142 -0.000000 -0.000002 0.000000 0.000000 0.000000
 17 3.115505 -0.886040 -0.021432 -0.117597 -0.382555 -0.171683
 18 2.011150 0.000001 -0.000002 0.000000 -0.000000 0.354134
 19 2.141380 0.000000 -0.000002 0.000000 0.000000 0.000000
 20 1.734172 0.000002 -0.000002 -0.000000 0.000000 0.177895
 21 0.000005 -4.440595 -0.000000 1.570544 -0.062990 -0.195737
 22 5.999998 0.000000 0.000000 -2.797668 -0.000000 -0.000000
 23 0.000002 -4.440601 -0.000001 1.569944 -0.062987 0.004053
 24 11.375560 0.000001 0.000003 -2.318696 0.262870 -0.150879
 25 -0.000000 -4.440604 -0.000002 1.570144 -0.062988 0.004040
 26 10.510131 0.000002 -0.000001 0.000000 -0.000000 -1.981947
 27 0.000001 -1.748400 5.000000 -0.000000 0.004007 1.602290
 28 5.500000 0.000001 -0.000000 0.245772 -0.000000 0.000000
 29 -0.000001 -1.940596 4.999999 -0.044472 0.004003 -0.000180
 30 6.551491 0.000001 0.000000 -0.664528 0.165243 -1.735147
 31 -0.000000 -1.940598 5.000000 -0.027189 -0.053376 0.005295
 32 6.551491 0.000001 0.000000 -0.165671 0.157073 -0.495273
 33 -0.000000 -1.940599 4.999998 -0.066572 -0.152786 -0.110311
 34 0.628343 -0.899486 -1.338677 2.008541 1.305873 -0.611166
 35 6.384777 -0.000001 0.000002 1.462882 0.460722 -0.471812
 36 10.242681 0.000001 0.000001 0.000000 0.000000 -0.418173
 37 11.375563 -0.000002 0.000000 1.990792 0.086957 0.117405
 38 0.728678 0.023431 1.008292 -1.579583 -0.319038 0.212973
 39 2.136494 0.000001 -0.000000 -0.000000 0.000000 1.282817
 40 2.313140 -0.000002 0.000000 0.000000 0.000000 3.141593
 41 3.115504 -0.886041 0.021432 0.420766 0.316066 0.167178
 42 2.011150 -0.000001 -0.000000 0.000000 0.000000 2.082010
 43 2.141380 0.000001 0.000001 0.000000 0.000000 3.141593
 44 1.734171 -0.000001 0.000002 -0.000000 -0.000000 1.041748
 45 0.136314 -3.738194 2.525888 1.493698 2.759406 -1.474501
 46 5.031113 -0.189688 1.849665 -2.967941 -0.035742 1.570790
 47 11.389367 -0.000820 0.158781 1.779966 0.055925 0.062514
 48 0.000000 -4.440599 0.000000 1.570144 -3.078602 0.004040
 49 6.000000 -0.000001 -0.000001 1.779966 -0.000000 0.000000
 50 0.000003 -4.440601 -0.000000 1.569944 -3.078603 0.004053
 51 10.510130 0.000001 0.000001 -0.000000 -0.000000 -1.779883
 52 -0.000000 -1.748400 -5.000000 3.141593 0.004007 -1.539299
 53 5.499999 0.000001 0.000001 -0.436599 -0.000000 0.000000
 54 0.000001 -0.000001 -5.000001 -0.044472 3.137590 -0.000177
 55 6.551491 -0.000001 0.000001 0.436599 0.026790 -0.248921
 56 -1.266844 -1.937443 -4.950563 -0.066572 -2.988806 -0.110308
 57 6.551492 -0.000000 0.000001 0.436599 0.026790 -0.248921
 58 0.699370 -1.944208 -5.006849 -0.027189 -3.088217 0.005298
 59 4.226145 -0.003201 -0.000000 0.305428 0.161649 -0.231295
 60 0.000000 5.000001 -0.000001 -0.153564 0.000087 2.718702
 61 0.000006 -0.000004 -3.713579 0.119535 -2.936655 -0.885276
 62 0.000003 0.000000 5.000000 3.053195 1.558589 -0.074929
 63 -0.000005 0.000006 3.713580 -0.311487 -2.845558 -0.582080
 64 0.000001 0.000000 -5.000000 -0.088726 1.558589 3.066335
 65 7.363603 1.646648 0.495664 -3.141593 -1.570796 0.000000
 66 -0.000005 0.000007 3.619082 -0.441735 -2.434423 -1.159240
 67 16.573917 -0.000001 0.000001 -0.000000 -0.000000 -2.011748
 68 15.128180 0.000001 0.000001 0.026832 0.026147 -0.175154
 69 5.758666 4.244731 0.000000 0.000000 -0.000000 2.033309
 70 3.177727 0.000000 0.000000 0.000000 0.000000 3.141593
 71 15.708951 0.000002 0.000001 0.013957 0.013894 -0.093781
 72 0.275148 0.189215 -3.445208 3.130898 0.000409 -1.514604
 73 17.210192 -0.000002 0.000002 -0.000000 0.000000 -2.319003
 74 0.000000 -0.000001 -4.999999 -0.079433 1.546568 -1.570857
 75 0.000007 -0.000003 -3.619079 0.260448 -2.945758 -1.468642
 76 16.573919 -0.000000 0.000001 0.000000 0.000000 -1.562392
 77 15.128181 0.000000 0.000001 0.265624 -0.173430 0.666428
 78 5.758665 4.244731 0.000000 -0.000000 0.000000 1.483530
 79 4.003934 -0.000000 0.000000 0.000000 0.000000 0.000000
 80 15.708953 0.000000 0.000000 0.195074 -0.100553 0.460486
 81 0.273998 0.191090 3.439762 -3.130907 -0.000437 -1.508107
 82 17.210194 -0.000000 0.000000 -0.000000 0.000000 -2.116793
 83 0.000000 0.000000 5.000000 -0.079311 1.595025 -1.570737
end
