version 1
nodes
  0 "Bip01"  -1
  1 "Bip01 Footsteps"   0
  2 "Bip01 Pelvis"   0
  3 "Bip01 Spine"   2
  4 "Bip01 Spine1"   3
  5 "Bip01 Spine2"   4
  6 "Bip01 Spine3"   5
  7 "Bip01 Neck"   6
  8 "Bip01 Head"   7
  9 "Dummy21"   8
 10 "Bip01 L Clavicle"   7
 11 "Bip01 L UpperArm"  10
 12 "Bip01 L Forearm"  11
 13 "Bip01 L Hand"  12
 14 "Bip01 L Finger0"  13
 15 "Bip01 L Finger01"  14
 16 "Dummy06"  15
 17 "Bip01 L Finger1"  13
 18 "Bip01 L Finger11"  17
 19 "Dummy03"  18
 20 "-- L knuckle"  17
 21 "-- L knuckle_end"  20
 22 "-- L Forearm twist"  12
 23 "-- L Forearm twist_end"  22
 24 "-- L wrist"  12
 25 "-- L wrist_end"  24
 26 "-- L Elbow"  11
 27 "--L Elbow_end"  26
 28 "-- L bicep twist"  11
 29 "-- L bicep twist_end"  28
 30 "-- L shoulder outside"  10
 31 "-- L shoulder outside_end"  30
 32 "-- L Shoulder inside"  10
 33 "-- L Shoulder inside_end"  32
 34 "Bip01 R Clavicle"   7
 35 "Bip01 R UpperArm"  34
 36 "Bip01 R Forearm"  35
 37 "Bip01 R Hand"  36
 38 "Bip01 R Finger0"  37
 39 "Bip01 R Finger01"  38
 40 "Dummy01"  39
 41 "Bip01 R Finger1"  37
 42 "Bip01 R Finger11"  41
 43 "Dummy02"  42
 44 "-- R knuckle"  41
 45 "Point06"  44
 46 "Beretta Elite"  37
 47 "-- R wrist"  36
 48 "-- R wrist_end"  47
 49 "-- R forearm twist"  36
 50 "-- R forearm twist_end"  49
 51 "-- R Elbow"  35
 52 "--R Elbow_end"  51
 53 "-- R bicep twist"  35
 54 "-- R bicep twist_end"  53
 55 "-- R Shoulder inside"  34
 56 "-- R Shoulder inside_end"  55
 57 "-- R shoulder outside"  34
 58 "-- R shoulder outside_end"  57
 59 "-- Neck smooth"   6
 60 "-- neck smooth end"  59
 61 "-- R Butt"   2
 62 "--R Butt_end"  61
 63 "-- L butt"   2
 64 "--L butt_end"  63
 65 "GIGN01"   2
 66 "Bip01 L Thigh"   2
 67 "Bip01 L Calf"  66
 68 "Bip01 L Foot"  67
 69 "Bip01 L Toe0"  68
 70 "Dummy16"  69
 71 "-- L ankle"  67
 72 "-- L ankleend"  71
 73 "-- L Knee"  66
 74 "--L Knee_end"  73
 75 "Bip01 R Thigh"   2
 76 "Bip01 R Calf"  75
 77 "Bip01 R Foot"  76
 78 "Bip01 R Toe0"  77
 79 "Dummy11"  78
 80 "-- R Ankle"  76
 81 "-- R ankleend"  80
 82 "-- R Knee"  75
 83 "--R Knee_end"  82
end
skeleton
time 0
  0 0.500000 13.522099 26.931471 -0.243067 0.535714 -2.432935
  1 13.773751 5.584523 -22.520975 -0.544290 0.221328 2.303921
  2 -2.276934 0.000003 -1.238185 -1.570795 -1.570451 0.000000
  3 1.796411 0.711892 -0.000301 0.098572 -0.390488 -0.264563
  4 4.119693 -0.003092 0.000060 -0.017903 0.084847 0.337551
  5 4.119370 -0.003170 -0.000340 0.104428 -0.086345 0.228657
  6 4.117603 -0.003124 0.000030 -0.009825 0.358083 -0.313206
  7 4.117800 -0.002617 -0.002242 0.689956 0.091895 -0.221092
  8 4.443602 -0.000002 0.000001 0.074586 -0.053877 -0.396716
  9 9.024064 0.000001 0.000000 0.000000 0.000000 0.000000
 10 -0.158999 1.101763 1.330767 0.987629 -1.167870 2.445308
 11 6.384777 -0.000002 -0.000001 -0.790038 -0.250674 -1.410827
 12 10.242681 0.000000 -0.000000 -0.000000 0.000000 -2.024127
 13 11.375561 -0.000000 -0.000000 -2.724776 0.041345 0.754604
 14 0.728679 0.023430 -1.008293 1.267228 0.796324 -0.150945
 15 2.136498 -0.000000 -0.000001 -0.000000 -0.000000 -0.078540
 16 2.313140 -0.000000 0.000000 0.000000 0.000000 0.000000
 17 3.115505 -0.886041 -0.021432 -0.328083 -0.231966 0.498583
 18 2.011150 -0.000001 0.000001 0.000000 -0.000000 1.008632
 19 2.141379 -0.000000 0.000002 0.000000 0.000000 0.000000
 20 1.734172 0.000000 0.000001 -0.000000 -0.000000 0.503666
 21 0.000006 -4.440593 0.000001 1.570544 -0.062990 -0.195737
 22 6.000000 0.000000 -0.000000 -2.479773 -0.000000 -0.000000
 23 0.000001 -4.440600 0.000000 1.569944 -0.062987 0.004053
 24 11.375563 0.000001 0.000004 -2.150410 -0.093910 0.390475
 25 -0.000001 -4.440604 -0.000001 1.570144 -0.062988 0.004040
 26 10.510130 0.000001 -0.000001 0.000000 0.000000 -2.582860
 27 -0.000002 -1.748400 4.999999 -0.000000 0.004007 1.602291
 28 5.499999 0.000000 -0.000000 0.356300 -0.000000 -0.000000
 29 -0.000002 -1.940598 4.999999 -0.044472 0.004003 -0.000180
 30 6.551492 0.000000 0.000001 -0.658545 -0.099541 -0.948744
 31 -0.000000 -1.940598 5.000000 -0.027189 -0.053376 0.005295
 32 6.551492 0.000000 0.000001 -0.286085 0.034238 -0.402738
 33 0.000001 -1.940598 4.999993 -0.066572 -0.152786 -0.110311
 34 0.159006 -1.094688 -1.330767 1.332358 0.965613 -1.583522
 35 6.384777 0.000000 0.000000 0.393790 0.730291 -1.652004
 36 10.242681 0.000000 -0.000001 -0.000000 -0.000000 -1.692369
 37 11.375562 -0.000000 -0.000004 2.743883 0.562831 0.955742
 38 0.728681 0.023431 1.008292 -1.579583 -0.319038 0.212973
 39 2.136499 0.000000 -0.000000 -0.000000 -0.000000 1.282817
 40 2.313139 0.000001 0.000000 0.000000 0.000000 3.141593
 41 3.115507 -0.886041 0.021431 0.420766 0.316066 0.167178
 42 2.011149 -0.000000 -0.000001 -0.000000 0.000000 2.082010
 43 2.141380 -0.000001 -0.000001 0.000000 0.000000 3.141593
 44 1.734171 -0.000001 0.000001 0.000000 -0.000000 1.041748
 45 0.136314 -3.738194 2.525892 1.493698 2.759406 -1.474501
 46 5.031116 -0.189688 1.849663 -2.967941 -0.035742 1.570790
 47 11.389367 -0.000819 0.158780 2.050297 0.401305 0.352783
 48 -0.000001 -4.440599 0.000000 1.570144 -3.078602 0.004040
 49 6.000000 -0.000000 -0.000001 2.050297 -0.000000 -0.000000
 50 0.000001 -4.440599 -0.000000 1.569944 -3.078603 0.004053
 51 10.510131 0.000001 0.000000 -0.000000 0.000000 -2.416981
 52 -0.000000 -1.748399 -5.000002 3.141593 0.004007 -1.539299
 53 5.500000 -0.000000 -0.000003 -0.244750 -0.000000 -0.000000
 54 -0.000000 -0.000000 -4.999998 -0.044472 3.137589 -0.000177
 55 6.551491 0.000001 -0.000001 0.244750 0.123699 -0.452928
 56 -1.266844 -1.937442 -4.950559 -0.066572 -2.988806 -0.110308
 57 6.551492 0.000001 -0.000001 0.244750 0.123699 -0.452928
 58 0.699370 -1.944207 -5.006845 -0.027189 -3.088217 0.005298
 59 4.226144 -0.003202 0.000000 0.346625 0.027745 -0.132918
 60 -0.000001 5.000000 -0.000000 -0.153565 0.000087 2.718702
 61 0.000006 -0.000004 -3.713579 0.119535 -2.936655 -0.885276
 62 0.000003 0.000000 5.000000 3.053195 1.558589 -0.074929
 63 -0.000005 0.000006 3.713580 -0.311487 -2.845558 -0.582080
 64 0.000001 0.000000 -5.000000 -0.088726 1.558589 3.066335
 65 7.363603 1.646648 0.495664 -3.141593 -1.570796 0.000000
 66 -0.000005 0.000007 3.619082 -0.441735 -2.434423 -1.159240
 67 16.573917 -0.000000 0.000001 -0.000000 -0.000000 -2.011748
 68 15.128181 0.000000 -0.000000 0.026832 0.026147 -0.175154
 69 5.758666 4.244731 0.000000 0.000000 -0.000000 2.033309
 70 3.177727 0.000000 0.000000 0.000000 0.000000 3.141593
 71 15.708951 0.000002 -0.000000 0.013957 0.013894 -0.093781
 72 0.275148 0.189215 -3.445208 3.130898 0.000409 -1.514604
 73 17.210192 -0.000001 0.000002 -0.000000 0.000000 -2.319003
 74 0.000000 -0.000001 -5.000000 -0.079433 1.546568 -1.570857
 75 0.000007 -0.000003 -3.619079 0.260448 -2.945758 -1.468642
 76 16.573919 -0.000000 0.000001 0.000000 0.000000 -1.562392
 77 15.128181 0.000000 0.000001 0.265624 -0.173430 0.666428
 78 5.758665 4.244731 0.000000 -0.000000 0.000000 1.483530
 79 4.003934 -0.000000 0.000000 0.000000 0.000000 0.000000
 80 15.708953 0.000000 0.000000 0.195074 -0.100553 0.460486
 81 0.273998 0.191090 3.439762 -3.130907 -0.000437 -1.508107
 82 17.210194 -0.000000 0.000000 -0.000000 0.000000 -2.116793
 83 0.000000 0.000000 5.000000 -0.079311 1.595025 -1.570737
time 1
  0 0.500000 13.522099 26.931471 -0.243067 0.535714 -2.432935
  1 13.773751 5.584523 -22.520975 -0.544290 0.221328 2.303921
  2 -2.276934 0.000003 -1.238185 -1.570795 -1.570451 0.000000
  3 1.796399 0.711897 -0.000304 0.100045 -0.393384 -0.268390
  4 4.119685 -0.003098 0.000059 -0.018156 0.081557 0.334367
  5 4.119361 -0.003173 -0.000342 0.104752 -0.089222 0.225091
  6 4.117592 -0.003119 0.000035 -0.011005 0.354817 -0.316619
  7 4.118159 -0.002683 -0.002263 0.694667 0.025731 -0.141447
  8 4.443599 -0.000000 0.000001 0.061340 -0.041537 -0.498808
  9 9.024063 0.000000 0.000000 0.000000 0.000000 0.000000
 10 -0.044578 1.112333 1.330755 0.987922 -1.167959 2.341613
 11 6.384777 0.000000 0.000000 -0.767293 -0.266701 -1.438546
 12 10.242682 -0.000001 0.000000 0.000000 -0.000000 -1.912741
 13 11.375560 -0.000001 0.000001 -2.831629 0.016593 0.707883
 14 0.728682 0.023431 -1.008291 1.267228 0.796324 -0.150945
 15 2.136496 -0.000000 0.000000 -0.000000 -0.000000 -0.078540
 16 2.313138 -0.000000 0.000001 0.000000 0.000000 0.000000
 17 3.115507 -0.886042 -0.021429 -0.328083 -0.231966 0.498583
 18 2.011151 0.000000 -0.000000 -0.000000 0.000000 1.008632
 19 2.141378 0.000001 0.000000 0.000000 0.000000 0.000000
 20 1.734172 0.000000 -0.000000 0.000000 -0.000000 0.503666
 21 0.000006 -4.440594 0.000001 1.570544 -0.062990 -0.195737
 22 6.000000 0.000000 0.000001 -2.566926 -0.000000 0.000000
 23 0.000001 -4.440600 0.000001 1.569944 -0.062987 0.004053
 24 11.375562 0.000000 0.000005 -2.201637 -0.112212 0.365129
 25 -0.000000 -4.440603 -0.000001 1.570144 -0.062988 0.004040
 26 10.510132 0.000001 -0.000002 0.000000 -0.000000 -2.527167
 27 0.000001 -1.748400 5.000000 -0.000000 0.004007 1.602291
 28 5.500000 -0.000001 0.000000 0.352418 -0.000000 0.000000
 29 -0.000002 -1.940598 4.999999 -0.044472 0.004003 -0.000180
 30 6.551491 0.000002 0.000001 -0.651367 -0.117373 -0.982356
 31 0.000001 -1.940598 5.000001 -0.027189 -0.053376 0.005295
 32 6.551491 0.000002 0.000001 -0.282282 0.028604 -0.413191
 33 0.000000 -1.940599 4.999997 -0.066572 -0.152786 -0.110311
 34 0.044582 -1.105257 -1.330754 1.445022 1.027175 -1.550771
 35 6.384776 -0.000001 0.000001 0.503827 0.728017 -1.537513
 36 10.242682 0.000001 0.000003 0.000000 -0.000000 -1.639309
 37 11.375561 -0.000001 -0.000003 2.685855 0.470074 0.921250
 38 0.728681 0.023431 1.008293 -1.579583 -0.319038 0.212973
 39 2.136498 0.000000 -0.000001 -0.000000 -0.000000 1.282817
 40 2.313139 -0.000001 0.000001 0.000000 0.000000 3.141593
 41 3.115508 -0.886041 0.021433 0.420765 0.316066 0.167178
 42 2.011150 -0.000000 -0.000000 -0.000000 0.000000 2.082010
 43 2.141380 -0.000001 0.000001 0.000000 0.000000 3.141593
 44 1.734172 -0.000001 0.000000 0.000000 0.000000 1.041748
 45 0.136316 -3.738192 2.525891 1.493698 2.759406 -1.474501
 46 5.031115 -0.189688 1.849664 -2.967941 -0.035742 1.570790
 47 11.389367 -0.000820 0.158781 2.046282 0.348483 0.366352
 48 0.000001 -4.440601 0.000001 1.570144 -3.078602 0.004040
 49 6.000000 -0.000001 0.000000 2.046282 0.000000 -0.000000
 50 0.000001 -4.440601 0.000000 1.569944 -3.078603 0.004053
 51 10.510131 0.000001 0.000003 0.000000 -0.000000 -2.390451
 52 -0.000001 -1.748400 -5.000001 3.141593 0.004007 -1.539299
 53 5.500000 0.000000 0.000002 -0.276349 -0.000000 -0.000000
 54 0.000000 -0.000000 -5.000000 -0.044472 3.137589 -0.000177
 55 6.551490 0.000000 -0.000000 0.276349 0.111808 -0.433940
 56 -1.266843 -1.937444 -4.950561 -0.066572 -2.988806 -0.110308
 57 6.551491 0.000001 -0.000000 0.276349 0.111808 -0.433940
 58 0.699370 -1.944208 -5.006847 -0.027189 -3.088217 0.005298
 59 4.226146 -0.003203 0.000000 0.348252 -0.000089 -0.083133
 60 -0.000001 5.000000 -0.000000 -0.153564 0.000087 2.718702
 61 0.000006 -0.000004 -3.713579 0.119535 -2.936655 -0.885276
 62 0.000003 0.000000 5.000000 3.053195 1.558589 -0.074929
 63 -0.000005 0.000006 3.713580 -0.311487 -2.845558 -0.582080
 64 0.000001 0.000000 -5.000000 -0.088726 1.558589 3.066335
 65 7.363603 1.646648 0.495664 -3.141593 -1.570796 0.000000
 66 -0.000005 0.000007 3.619082 -0.441735 -2.434423 -1.159240
 67 16.573917 -0.000000 0.000001 -0.000000 -0.000000 -2.011748
 68 15.128181 0.000000 -0.000000 0.026832 0.026147 -0.175154
 69 5.758666 4.244731 0.000000 0.000000 -0.000000 2.033309
 70 3.177727 0.000000 0.000000 0.000000 0.000000 3.141593
 71 15.708951 0.000002 -0.000000 0.013957 0.013894 -0.093781
 72 0.275148 0.189215 -3.445208 3.130898 0.000409 -1.514604
 73 17.210192 -0.000001 0.000002 -0.000000 0.000000 -2.319003
 74 0.000000 -0.000001 -5.000000 -0.079433 1.546568 -1.570857
 75 0.000007 -0.000003 -3.619079 0.260448 -2.945758 -1.468642
 76 16.573919 -0.000000 0.000001 0.000000 0.000000 -1.562392
 77 15.128181 0.000000 0.000001 0.265624 -0.173430 0.666428
 78 5.758665 4.244731 0.000000 -0.000000 0.000000 1.483530
 79 4.003934 -0.000000 0.000000 0.000000 0.000000 0.000000
 80 15.708953 0.000000 0.000000 0.195074 -0.100553 0.460486
 81 0.273998 0.191090 3.439762 -3.130907 -0.000437 -1.508107
 82 17.210194 -0.000000 0.000000 -0.000000 0.000000 -2.116793
 83 0.000000 0.000000 5.000000 -0.079311 1.595025 -1.570737
time 2
  0 0.500000 13.522099 26.931471 -0.243067 0.535714 -2.432935
  1 13.773751 5.584523 -22.520975 -0.544290 0.221328 2.303921
  2 -2.276934 0.000003 -1.238185 -1.570795 -1.570451 0.000000
  3 1.796392 0.711897 -0.000309 0.101532 -0.396274 -0.272226
  4 4.119672 -0.003099 0.000061 -0.018399 0.078267 0.331184
  5 4.119350 -0.003175 -0.000342 0.105087 -0.092097 0.221524
  6 4.117582 -0.003116 0.000038 -0.012171 0.351548 -0.320023
  7 4.118526 -0.002720 -0.002262 0.694085 -0.040596 -0.062072
  8 4.443600 -0.000001 0.000001 0.048113 -0.029186 -0.601064
  9 9.024063 0.000001 0.000000 0.000000 0.000000 0.000000
 10 0.070324 1.111012 1.330743 0.988210 -1.168046 2.237922
 11 6.384776 0.000002 0.000001 -0.746681 -0.287348 -1.469719
 12 10.242682 -0.000001 0.000000 -0.000000 -0.000000 -1.800422
 13 11.375562 -0.000001 0.000001 -2.937960 0.001123 0.670895
 14 0.728682 0.023431 -1.008292 1.267228 0.796324 -0.150945
 15 2.136495 0.000000 0.000001 -0.000000 -0.000000 -0.078540
 16 2.313139 0.000000 -0.000001 0.000000 0.000000 0.000000
 17 3.115507 -0.886041 -0.021430 -0.328083 -0.231966 0.498583
 18 2.011149 -0.000002 0.000001 -0.000000 0.000000 1.008632
 19 2.141379 0.000001 0.000001 0.000000 0.000000 0.000000
 20 1.734173 0.000001 -0.000002 -0.000000 -0.000000 0.503666
 21 0.000005 -4.440594 0.000002 1.570544 -0.062990 -0.195737
 22 6.000001 -0.000000 0.000002 -2.656928 -0.000000 -0.000000
 23 0.000001 -4.440602 0.000000 1.569944 -0.062987 0.004053
 24 11.375560 0.000000 0.000004 -2.253818 -0.127315 0.345059
 25 0.000000 -4.440604 0.000001 1.570144 -0.062988 0.004040
 26 10.510130 -0.000002 0.000000 0.000000 0.000000 -2.471007
 27 0.000000 -1.748400 5.000000 0.000000 0.004007 1.602290
 28 5.499999 -0.000001 0.000001 0.349068 -0.000000 0.000000
 29 -0.000002 -1.940599 5.000001 -0.044472 0.004003 -0.000180
 30 6.551490 0.000001 -0.000000 -0.645237 -0.140671 -1.023411
 31 -0.000000 -1.940599 5.000004 -0.027189 -0.053376 0.005295
 32 6.551490 0.000001 -0.000000 -0.278666 0.021579 -0.424872
 33 0.000001 -1.940599 4.999999 -0.066572 -0.152786 -0.110311
 34 -0.070320 -1.103937 -1.330742 1.588151 1.078206 -1.492058
 35 6.384776 -0.000000 0.000000 0.611005 0.713141 -1.426649
 36 10.242682 0.000001 -0.000000 0.000000 0.000000 -1.586872
 37 11.375562 -0.000001 -0.000003 2.634267 0.376920 0.894290
 38 0.728678 0.023431 1.008291 -1.579583 -0.319038 0.212973
 39 2.136498 -0.000001 0.000000 0.000000 0.000000 1.282817
 40 2.313139 0.000000 0.000001 0.000000 0.000000 3.141593
 41 3.115505 -0.886041 0.021431 0.420765 0.316066 0.167178
 42 2.011150 -0.000000 -0.000002 -0.000000 -0.000000 2.082010
 43 2.141379 -0.000000 -0.000001 0.000000 0.000000 3.141593
 44 1.734172 -0.000001 -0.000002 -0.000000 -0.000000 1.041748
 45 0.136316 -3.738193 2.525892 1.493698 2.759406 -1.474501
 46 5.031113 -0.189688 1.849662 -2.967941 -0.035742 1.570790
 47 11.389367 -0.000820 0.158780 2.041539 0.296842 0.379319
 48 -0.000000 -4.440598 -0.000001 1.570144 -3.078602 0.004040
 49 6.000000 -0.000000 -0.000002 2.041539 0.000000 -0.000000
 50 0.000002 -4.440602 0.000000 1.569944 -3.078603 0.004053
 51 10.510131 -0.000000 -0.000002 -0.000000 -0.000000 -2.364232
 52 -0.000000 -1.748399 -5.000003 3.141593 0.004007 -1.539299
 53 5.499999 -0.000001 -0.000001 -0.303526 0.000000 0.000000
 54 0.000001 0.000000 -5.000000 -0.044472 3.137589 -0.000177
 55 6.551490 0.000001 -0.000000 0.303526 0.097298 -0.412446
 56 -1.266843 -1.937443 -4.950562 -0.066572 -2.988806 -0.110308
 57 6.551490 0.000001 -0.000000 0.303526 0.097298 -0.412446
 58 0.699370 -1.944208 -5.006849 -0.027189 -3.088217 0.005298
 59 4.226146 -0.003202 -0.000000 0.347604 -0.028394 -0.031586
 60 0.000003 4.999999 -0.000000 -0.153564 0.000087 2.718702
 61 0.000006 -0.000004 -3.713579 0.119535 -2.936655 -0.885276
 62 0.000003 0.000000 5.000000 3.053195 1.558589 -0.074929
 63 -0.000005 0.000006 3.713580 -0.311487 -2.845558 -0.582080
 64 0.000001 0.000000 -5.000000 -0.088726 1.558589 3.066335
 65 7.363603 1.646648 0.495664 -3.141593 -1.570796 0.000000
 66 -0.000005 0.000007 3.619082 -0.441735 -2.434423 -1.159240
 67 16.573917 -0.000000 0.000001 -0.000000 -0.000000 -2.011748
 68 15.128181 0.000000 -0.000000 0.026832 0.026147 -0.175154
 69 5.758666 4.244731 0.000000 0.000000 -0.000000 2.033309
 70 3.177727 0.000000 0.000000 0.000000 0.000000 3.141593
 71 15.708951 0.000002 -0.000000 0.013957 0.013894 -0.093781
 72 0.275148 0.189215 -3.445208 3.130898 0.000409 -1.514604
 73 17.210192 -0.000001 0.000002 -0.000000 0.000000 -2.319003
 74 0.000000 -0.000001 -5.000000 -0.079433 1.546568 -1.570857
 75 0.000007 -0.000003 -3.619079 0.260448 -2.945758 -1.468642
 76 16.573919 -0.000000 0.000001 0.000000 0.000000 -1.562392
 77 15.128181 0.000000 0.000001 0.265624 -0.173430 0.666428
 78 5.758665 4.244731 0.000000 -0.000000 0.000000 1.483530
 79 4.003934 -0.000000 0.000000 0.000000 0.000000 0.000000
 80 15.708953 0.000000 0.000000 0.195074 -0.100553 0.460486
 81 0.273998 0.191090 3.439762 -3.130907 -0.000437 -1.508107
 82 17.210194 -0.000000 0.000000 -0.000000 0.000000 -2.116793
 83 0.000000 0.000000 5.000000 -0.079311 1.595025 -1.570737
time 3
  0 0.500000 13.522099 26.931471 -0.243067 0.535714 -2.432935
  1 13.773751 5.584523 -22.520975 -0.544290 0.221328 2.303921
  2 -2.276934 0.000003 -1.238185 -1.570795 -1.570451 0.000000
  3 1.796384 0.711900 -0.000311 0.102581 -0.398294 -0.274916
  4 4.119668 -0.003104 0.000059 -0.018562 0.075963 0.328957
  5 4.119341 -0.003177 -0.000343 0.105327 -0.094110 0.219025
  6 4.117578 -0.003114 0.000041 -0.012979 0.349257 -0.322402
  7 4.118785 -0.002730 -0.002246 0.690528 -0.086898 -0.006296
  8 4.443601 -0.000002 -0.000000 0.038864 -0.020536 -0.672740
  9 9.024062 0.000001 0.000000 0.000000 0.000000 0.000000
 10 0.150382 1.103016 1.330734 0.988411 -1.168107 2.165339
 11 6.384777 0.000001 0.000001 -0.733675 -0.302834 -1.491630
 12 10.242681 -0.000000 -0.000002 0.000000 -0.000000 -1.728446
 13 11.375561 -0.000000 0.000001 -3.003742 -0.003065 0.651429
 14 0.728680 0.023432 -1.008293 1.267228 0.796324 -0.150945
 15 2.136497 -0.000000 -0.000001 0.000000 -0.000000 -0.078540
 16 2.313138 -0.000000 -0.000000 0.000000 0.000000 0.000000
 17 3.115506 -0.886039 -0.021433 -0.328083 -0.231966 0.498583
 18 2.011151 0.000001 -0.000000 -0.000000 0.000000 1.008632
 19 2.141378 0.000001 -0.000000 0.000000 0.000000 0.000000
 20 1.734172 0.000001 -0.000000 -0.000000 0.000000 0.503666
 21 0.000005 -4.440594 0.000000 1.570544 -0.062990 -0.195737
 22 6.000000 -0.000000 0.000001 -2.714102 0.000000 0.000000
 23 0.000002 -4.440601 -0.000000 1.569944 -0.062987 0.004053
 24 11.375563 0.000000 0.000005 -2.286601 -0.134466 0.335122
 25 -0.000001 -4.440603 0.000001 1.570144 -0.062988 0.004040
 26 10.510130 -0.000002 -0.000001 -0.000000 -0.000000 -2.435019
 27 0.000001 -1.748400 5.000000 -0.000000 0.004007 1.602290
 28 5.499999 -0.000002 -0.000000 0.346703 0.000000 0.000000
 29 -0.000002 -1.940598 5.000002 -0.044472 0.004003 -0.000180
 30 6.551491 0.000001 0.000001 -0.640829 -0.158368 -1.053827
 31 0.000001 -1.940600 5.000004 -0.027189 -0.053376 0.005295
 32 6.551491 0.000001 0.000000 -0.276047 0.016333 -0.432843
 33 -0.000000 -1.940599 4.999998 -0.066572 -0.152786 -0.110311
 34 -0.150379 -1.095940 -1.330735 1.693066 1.103077 -1.449850
 35 6.384778 -0.000000 -0.000002 0.676178 0.697027 -1.359905
 36 10.242682 -0.000000 -0.000001 0.000000 -0.000000 -1.554564
 37 11.375562 -0.000000 -0.000001 2.604682 0.318960 0.880668
 38 0.728680 0.023431 1.008292 -1.579583 -0.319038 0.212973
 39 2.136496 0.000001 0.000000 -0.000000 -0.000000 1.282817
 40 2.313138 -0.000001 0.000000 0.000000 0.000000 3.141593
 41 3.115507 -0.886041 0.021433 0.420766 0.316066 0.167178
 42 2.011150 0.000000 -0.000001 0.000000 0.000000 2.082010
 43 2.141380 -0.000000 -0.000000 0.000000 0.000000 3.141593
 44 1.734172 -0.000001 -0.000001 0.000000 0.000000 1.041748
 45 0.136316 -3.738192 2.525892 1.493698 2.759406 -1.474501
 46 5.031113 -0.189687 1.849662 -2.967941 -0.035742 1.570790
 47 11.389367 -0.000820 0.158779 2.038253 0.265248 0.386992
 48 0.000001 -4.440599 -0.000001 1.570144 -3.078602 0.004040
 49 6.000000 -0.000000 -0.000001 2.038253 0.000000 0.000000
 50 0.000002 -4.440601 0.000000 1.569944 -3.078603 0.004053
 51 10.510131 0.000000 0.000000 0.000000 -0.000000 -2.348078
 52 -0.000000 -1.748399 -5.000001 3.141593 0.004007 -1.539299
 53 5.500000 -0.000000 -0.000001 -0.317696 0.000000 0.000000
 54 -0.000000 0.000000 -4.999998 -0.044472 3.137589 -0.000177
 55 6.551492 -0.000001 -0.000002 0.317696 0.087144 -0.398677
 56 -1.266843 -1.937444 -4.950561 -0.066572 -2.988806 -0.110308
 57 6.551492 -0.000001 -0.000002 0.317696 0.087144 -0.398677
 58 0.699371 -1.944209 -5.006846 -0.027189 -3.088217 0.005298
 59 4.226147 -0.003201 -0.000000 0.345687 -0.048160 0.004991
 60 -0.000001 5.000001 -0.000001 -0.153564 0.000087 2.718702
 61 0.000006 -0.000004 -3.713579 0.119535 -2.936655 -0.885276
 62 0.000003 0.000000 5.000000 3.053195 1.558589 -0.074929
 63 -0.000005 0.000006 3.713580 -0.311487 -2.845558 -0.582080
 64 0.000001 0.000000 -5.000000 -0.088726 1.558589 3.066335
 65 7.363603 1.646648 0.495664 -3.141593 -1.570796 0.000000
 66 -0.000005 0.000007 3.619082 -0.441735 -2.434423 -1.159240
 67 16.573917 -0.000000 0.000001 -0.000000 -0.000000 -2.011748
 68 15.128181 0.000000 -0.000000 0.026832 0.026147 -0.175154
 69 5.758666 4.244731 0.000000 0.000000 -0.000000 2.033309
 70 3.177727 0.000000 0.000000 0.000000 0.000000 3.141593
 71 15.708951 0.000002 -0.000000 0.013957 0.013894 -0.093781
 72 0.275148 0.189215 -3.445208 3.130898 0.000409 -1.514604
 73 17.210192 -0.000001 0.000002 -0.000000 0.000000 -2.319003
 74 0.000000 -0.000001 -5.000000 -0.079433 1.546568 -1.570857
 75 0.000007 -0.000003 -3.619079 0.260448 -2.945758 -1.468642
 76 16.573919 -0.000000 0.000001 0.000000 0.000000 -1.562392
 77 15.128181 0.000000 0.000001 0.265624 -0.173430 0.666428
 78 5.758665 4.244731 0.000000 -0.000000 0.000000 1.483530
 79 4.003934 -0.000000 0.000000 0.000000 0.000000 0.000000
 80 15.708953 0.000000 0.000000 0.195074 -0.100553 0.460486
 81 0.273998 0.191090 3.439762 -3.130907 -0.000437 -1.508107
 82 17.210194 -0.000000 0.000000 -0.000000 0.000000 -2.116793
 83 0.000000 0.000000 5.000000 -0.079311 1.595025 -1.570737
time 4
  0 0.500000 13.522099 26.931471 -0.243067 0.535714 -2.432935
  1 13.773751 5.584523 -22.520975 -0.544290 0.221328 2.303921
  2 -2.276934 0.000003 -1.238185 -1.570795 -1.570451 0.000000
  3 1.796381 0.711901 -0.000313 0.102882 -0.398871 -0.275686
  4 4.119666 -0.003102 0.000060 -0.018608 0.075305 0.328321
  5 4.119341 -0.003176 -0.000343 0.105397 -0.094685 0.218311
  6 4.117576 -0.003115 0.000039 -0.013209 0.348602 -0.323081
  7 4.118853 -0.002729 -0.002238 0.689031 -0.100084 0.009712
  8 4.443598 -0.000000 0.000000 0.036223 -0.018063 -0.693234
  9 9.024063 0.000001 0.000000 0.000000 0.000000 0.000000
 10 0.173129 1.099666 1.330732 0.988468 -1.168124 2.144600
 11 6.384776 -0.000000 -0.000001 -0.729905 -0.307809 -1.498448
 12 10.242682 0.000001 -0.000000 0.000000 -0.000000 -1.706157
 13 11.375562 -0.000001 0.000002 -3.024481 -0.003862 0.646075
 14 0.728679 0.023431 -1.008292 1.267228 0.796324 -0.150945
 15 2.136496 -0.000000 0.000001 0.000000 -0.000000 -0.078540
 16 2.313138 -0.000000 -0.000001 0.000000 0.000000 0.000000
 17 3.115505 -0.886041 -0.021431 -0.328083 -0.231966 0.498583
 18 2.011149 -0.000000 -0.000002 0.000000 -0.000000 1.008632
 19 2.141379 -0.000000 -0.000002 0.000000 0.000000 0.000000
 20 1.734172 0.000001 -0.000002 -0.000000 -0.000000 0.503666
 21 0.000005 -4.440594 0.000002 1.570544 -0.062990 -0.195737
 22 6.000000 -0.000000 0.000001 -2.732352 0.000000 0.000000
 23 0.000002 -4.440601 -0.000001 1.569944 -0.062987 0.004053
 24 11.375561 -0.000000 0.000004 -2.296976 -0.136578 0.332450
 25 -0.000000 -4.440603 -0.000001 1.570144 -0.062988 0.004040
 26 10.510130 0.000000 -0.000000 -0.000000 -0.000000 -2.423875
 27 0.000002 -1.748400 5.000000 0.000000 0.004007 1.602291
 28 5.500000 0.000001 0.000000 0.345958 0.000000 -0.000000
 29 -0.000002 -1.940598 5.000001 -0.044472 0.004003 -0.000180
 30 6.551491 -0.000001 -0.000002 -0.639425 -0.164062 -1.063500
 31 -0.000001 -1.940601 5.000003 -0.027189 -0.053376 0.005295
 32 6.551491 -0.000001 -0.000002 -0.275215 0.014660 -0.435253
 33 -0.000002 -1.940599 4.999997 -0.066572 -0.152786 -0.110311
 34 -0.173127 -1.092590 -1.330732 1.728783 1.109689 -1.432072
 35 6.384776 0.000001 -0.000002 0.695879 0.691265 -1.339700
 36 10.242682 -0.000000 -0.000001 -0.000000 -0.000000 -1.544357
 37 11.375560 0.000000 0.000000 2.595623 0.300573 0.876792
 38 0.728680 0.023431 1.008292 -1.579583 -0.319038 0.212973
 39 2.136497 0.000002 0.000001 -0.000000 0.000000 1.282817
 40 2.313139 -0.000002 -0.000000 0.000000 0.000000 3.141593
 41 3.115506 -0.886040 0.021431 0.420766 0.316066 0.167178
 42 2.011150 0.000000 -0.000003 0.000000 -0.000000 2.082010
 43 2.141379 -0.000001 0.000001 0.000000 0.000000 3.141593
 44 1.734173 -0.000001 -0.000002 -0.000000 -0.000000 1.041748
 45 0.136315 -3.738192 2.525891 1.493698 2.759406 -1.474501
 46 5.031114 -0.189687 1.849663 -2.967941 -0.035742 1.570790
 47 11.389367 -0.000818 0.158780 2.037158 0.255295 0.389356
 48 0.000000 -4.440597 0.000000 1.570144 -3.078602 0.004040
 49 6.000000 0.000000 -0.000001 2.037158 0.000000 -0.000000
 50 0.000002 -4.440602 -0.000000 1.569944 -3.078603 0.004053
 51 10.510132 0.000000 0.000001 0.000000 0.000000 -2.342974
 52 -0.000000 -1.748400 -5.000000 -3.141593 0.004007 -1.539299
 53 5.500000 -0.000000 0.000000 -0.321633 -0.000000 0.000000
 54 -0.000000 -0.000001 -5.000002 -0.044472 3.137589 -0.000177
 55 6.551490 -0.000001 -0.000000 0.321632 0.083947 -0.394443
 56 -1.266843 -1.937444 -4.950562 -0.066572 -2.988806 -0.110308
 57 6.551490 -0.000001 -0.000000 0.321632 0.083947 -0.394443
 58 0.699371 -1.944208 -5.006850 -0.027189 -3.088217 0.005298
 59 4.226144 -0.003201 0.000000 0.344916 -0.053763 0.015445
 60 0.000000 5.000000 -0.000001 -0.153564 0.000087 2.718702
 61 0.000006 -0.000004 -3.713579 0.119535 -2.936655 -0.885276
 62 0.000003 0.000000 5.000000 3.053195 1.558589 -0.074929
 63 -0.000005 0.000006 3.713580 -0.311487 -2.845558 -0.582080
 64 0.000001 0.000000 -5.000000 -0.088726 1.558589 3.066335
 65 7.363603 1.646648 0.495664 -3.141593 -1.570796 0.000000
 66 -0.000005 0.000007 3.619082 -0.441735 -2.434423 -1.159240
 67 16.573917 -0.000001 0.000001 -0.000000 -0.000000 -2.011748
 68 15.128180 0.000001 0.000001 0.026832 0.026147 -0.175154
 69 5.758666 4.244731 0.000000 0.000000 -0.000000 2.033309
 70 3.177727 0.000000 0.000000 0.000000 0.000000 3.141593
 71 15.708951 0.000002 0.000001 0.013957 0.013894 -0.093781
 72 0.275148 0.189215 -3.445208 3.130898 0.000409 -1.514604
 73 17.210192 -0.000002 0.000002 -0.000000 0.000000 -2.319003
 74 0.000000 -0.000001 -4.999999 -0.079433 1.546568 -1.570857
 75 0.000007 -0.000003 -3.619079 0.260448 -2.945758 -1.468642
 76 16.573919 -0.000000 0.000001 0.000000 0.000000 -1.562392
 77 15.128181 0.000000 0.000001 0.265624 -0.173430 0.666428
 78 5.758665 4.244731 0.000000 -0.000000 0.000000 1.483530
 79 4.003934 -0.000000 0.000000 0.000000 0.000000 0.000000
 80 15.708953 0.000000 0.000000 0.195074 -0.100553 0.460486
 81 0.273998 0.191090 3.439762 -3.130907 -0.000437 -1.508107
 82 17.210194 -0.000000 0.000000 -0.000000 0.000000 -2.116793
 83 0.000000 0.000000 5.000000 -0.079311 1.595025 -1.570737
time 5
  0 0.500000 13.522099 26.931471 -0.243067 0.535714 -2.432935
  1 13.773751 5.584523 -22.520975 -0.544290 0.221328 2.303921
  2 -2.276934 0.000003 -1.238185 -1.570795 -1.570451 0.000000
  3 1.796384 0.711901 -0.000311 0.102731 -0.398583 -0.275301
  4 4.119665 -0.003103 0.000060 -0.018585 0.075634 0.328639
  5 4.119343 -0.003176 -0.000343 0.105362 -0.094397 0.218668
  6 4.117576 -0.003116 0.000041 -0.013094 0.348930 -0.322741
  7 4.118815 -0.002728 -0.002242 0.689806 -0.093494 0.001703
  8 4.443599 -0.000001 0.000000 0.037543 -0.019299 -0.682986
  9 9.024062 0.000001 0.000000 0.000000 0.000000 0.000000
 10 0.161766 1.101399 1.330734 0.988440 -1.168115 2.154969
 11 6.384776 -0.000003 -0.000002 -0.731786 -0.305305 -1.495027
 12 10.242682 0.000000 -0.000001 -0.000000 -0.000000 -1.717306
 13 11.375563 -0.000001 0.000003 -3.014113 -0.003507 0.648717
 14 0.728681 0.023432 -1.008292 1.267228 0.796324 -0.150945
 15 2.136497 -0.000000 0.000000 0.000000 -0.000000 -0.078540
 16 2.313139 -0.000000 0.000001 0.000000 0.000000 0.000000
 17 3.115506 -0.886041 -0.021430 -0.328083 -0.231966 0.498583
 18 2.011151 -0.000001 -0.000001 -0.000000 -0.000000 1.008632
 19 2.141380 -0.000001 -0.000002 0.000000 0.000000 0.000000
 20 1.734172 -0.000001 -0.000001 -0.000000 -0.000000 0.503666
 21 0.000007 -4.440594 -0.000001 1.570544 -0.062990 -0.195737
 22 6.000001 0.000000 0.000003 -2.723215 0.000000 0.000000
 23 -0.000000 -4.440600 -0.000000 1.569944 -0.062987 0.004053
 24 11.375562 0.000000 0.000005 -2.291786 -0.135539 0.333761
 25 -0.000003 -4.440603 0.000001 1.570144 -0.062988 0.004040
 26 10.510131 0.000002 -0.000002 0.000000 -0.000000 -2.429449
 27 0.000001 -1.748401 4.999998 -0.000000 0.004007 1.602291
 28 5.500000 0.000002 -0.000001 0.346334 0.000000 0.000000
 29 -0.000001 -1.940598 5.000000 -0.044472 0.004003 -0.000180
 30 6.551491 0.000001 0.000002 -0.640135 -0.161196 -1.058637
 31 -0.000001 -1.940598 5.000004 -0.027189 -0.053376 0.005295
 32 6.551491 0.000001 0.000002 -0.275635 0.015502 -0.434049
 33 -0.000001 -1.940599 4.999997 -0.066572 -0.152786 -0.110311
 34 -0.161762 -1.094323 -1.330733 1.710777 1.106462 -1.441090
 35 6.384776 0.000002 -0.000002 0.686061 0.694199 -1.349765
 36 10.242682 -0.000001 -0.000003 -0.000000 -0.000000 -1.549461
 37 11.375560 -0.000000 0.000001 2.600137 0.309771 0.878705
 38 0.728680 0.023431 1.008291 -1.579583 -0.319038 0.212973
 39 2.136496 -0.000001 0.000001 -0.000000 0.000000 1.282817
 40 2.313139 0.000003 0.000001 0.000000 0.000000 3.141593
 41 3.115508 -0.886042 0.021433 0.420766 0.316066 0.167178
 42 2.011150 0.000000 0.000003 -0.000000 0.000000 2.082010
 43 2.141379 0.000000 -0.000002 0.000000 0.000000 3.141593
 44 1.734172 -0.000001 0.000003 0.000000 0.000000 1.041748
 45 0.136315 -3.738192 2.525889 1.493698 2.759406 -1.474501
 46 5.031113 -0.189688 1.849662 -2.967941 -0.035742 1.570790
 47 11.389366 -0.000819 0.158782 2.037709 0.260270 0.388178
 48 -0.000001 -4.440598 -0.000001 1.570144 -3.078602 0.004040
 49 6.000000 0.000000 0.000001 2.037709 -0.000000 0.000000
 50 0.000001 -4.440601 -0.000000 1.569944 -3.078603 0.004053
 51 10.510132 -0.000001 -0.000001 0.000000 0.000000 -2.345526
 52 -0.000000 -1.748399 -5.000003 -3.141593 0.004007 -1.539299
 53 5.500000 -0.000000 -0.000001 -0.319692 -0.000000 0.000000
 54 -0.000000 -0.000001 -5.000000 -0.044472 3.137589 -0.000177
 55 6.551489 -0.000001 0.000002 0.319692 0.085549 -0.396555
 56 -1.266843 -1.937443 -4.950561 -0.066572 -2.988806 -0.110308
 57 6.551490 -0.000000 0.000002 0.319692 0.085549 -0.396555
 58 0.699371 -1.944207 -5.006847 -0.027189 -3.088217 0.005298
 59 4.226145 -0.003201 -0.000000 0.345314 -0.050965 0.010220
 60 0.000001 5.000000 -0.000001 -0.153564 0.000087 2.718702
 61 0.000006 -0.000004 -3.713579 0.119535 -2.936655 -0.885276
 62 0.000003 0.000000 5.000000 3.053195 1.558589 -0.074929
 63 -0.000005 0.000006 3.713580 -0.311487 -2.845558 -0.582080
 64 0.000001 0.000000 -5.000000 -0.088726 1.558589 3.066335
 65 7.363603 1.646648 0.495664 -3.141593 -1.570796 0.000000
 66 -0.000005 0.000007 3.619082 -0.441735 -2.434423 -1.159240
 67 16.573917 -0.000001 0.000001 -0.000000 -0.000000 -2.011748
 68 15.128180 0.000001 0.000001 0.026832 0.026147 -0.175154
 69 5.758666 4.244731 0.000000 0.000000 -0.000000 2.033309
 70 3.177727 0.000000 0.000000 0.000000 0.000000 3.141593
 71 15.708951 0.000002 0.000001 0.013957 0.013894 -0.093781
 72 0.275148 0.189215 -3.445208 3.130898 0.000409 -1.514604
 73 17.210192 -0.000002 0.000002 -0.000000 0.000000 -2.319003
 74 0.000000 -0.000001 -4.999999 -0.079433 1.546568 -1.570857
 75 0.000007 -0.000003 -3.619079 0.260448 -2.945758 -1.468642
 76 16.573919 -0.000000 0.000001 0.000000 0.000000 -1.562392
 77 15.128181 0.000000 0.000001 0.265624 -0.173430 0.666428
 78 5.758665 4.244731 0.000000 -0.000000 0.000000 1.483530
 79 4.003934 -0.000000 0.000000 0.000000 0.000000 0.000000
 80 15.708953 0.000000 0.000000 0.195074 -0.100553 0.460486
 81 0.273998 0.191090 3.439762 -3.130907 -0.000437 -1.508107
 82 17.210194 -0.000000 0.000000 -0.000000 0.000000 -2.116793
 83 0.000000 0.000000 5.000000 -0.079311 1.595025 -1.570737
time 6
  0 0.500000 13.522099 26.931471 -0.243067 0.535714 -2.432935
  1 13.773751 5.584523 -22.520975 -0.544290 0.221328 2.303921
  2 -2.276934 0.000003 -1.238185 -1.570795 -1.570451 0.000000
  3 1.796384 0.711900 -0.000311 0.102581 -0.398294 -0.274916
  4 4.119668 -0.003104 0.000059 -0.018562 0.075963 0.328957
  5 4.119341 -0.003177 -0.000343 0.105327 -0.094110 0.219025
  6 4.117578 -0.003114 0.000041 -0.012979 0.349257 -0.322402
  7 4.118785 -0.002730 -0.002246 0.690528 -0.086898 -0.006296
  8 4.443601 -0.000002 -0.000000 0.038864 -0.020536 -0.672740
  9 9.024062 0.000001 0.000000 0.000000 0.000000 0.000000
 10 0.150382 1.103016 1.330734 0.988411 -1.168107 2.165339
 11 6.384777 0.000001 0.000001 -0.733675 -0.302834 -1.491630
 12 10.242681 -0.000000 -0.000002 0.000000 -0.000000 -1.728447
 13 11.375561 0.000000 0.000000 -3.003742 -0.003065 0.651429
 14 0.728681 0.023431 -1.008292 1.267228 0.796324 -0.150945
 15 2.136496 -0.000000 -0.000000 -0.000000 0.000000 -0.078540
 16 2.313139 -0.000000 0.000001 0.000000 0.000000 0.000000
 17 3.115508 -0.886040 -0.021432 -0.328083 -0.231966 0.498583
 18 2.011152 0.000001 -0.000001 -0.000000 -0.000000 1.008632
 19 2.141379 0.000000 -0.000001 0.000000 0.000000 0.000000
 20 1.734173 0.000001 -0.000001 0.000000 0.000000 0.503666
 21 0.000006 -4.440594 -0.000000 1.570544 -0.062990 -0.195737
 22 6.000000 -0.000000 0.000001 -2.714102 0.000000 0.000000
 23 0.000001 -4.440601 -0.000000 1.569944 -0.062987 0.004053
 24 11.375563 -0.000000 0.000004 -2.286601 -0.134466 0.335122
 25 -0.000002 -4.440603 0.000001 1.570144 -0.062988 0.004040
 26 10.510130 -0.000002 -0.000001 0.000000 -0.000000 -2.435020
 27 -0.000001 -1.748401 4.999997 -0.000000 0.004007 1.602290
 28 5.499999 -0.000002 -0.000000 0.346703 0.000000 0.000000
 29 -0.000002 -1.940598 5.000002 -0.044472 0.004003 -0.000180
 30 6.551491 0.000001 0.000001 -0.640829 -0.158368 -1.053827
 31 0.000001 -1.940600 5.000004 -0.027189 -0.053376 0.005295
 32 6.551491 0.000001 0.000000 -0.276047 0.016333 -0.432843
 33 -0.000000 -1.940599 4.999998 -0.066572 -0.152786 -0.110311
 34 -0.150379 -1.095940 -1.330735 1.693066 1.103077 -1.449850
 35 6.384778 -0.000000 -0.000002 0.676178 0.697027 -1.359905
 36 10.242682 -0.000000 -0.000001 0.000000 -0.000000 -1.554564
 37 11.375562 -0.000000 -0.000001 2.604682 0.318960 0.880668
 38 0.728680 0.023431 1.008292 -1.579583 -0.319038 0.212973
 39 2.136496 0.000001 0.000000 -0.000000 -0.000000 1.282817
 40 2.313138 -0.000001 0.000000 0.000000 0.000000 3.141593
 41 3.115507 -0.886041 0.021433 0.420766 0.316066 0.167178
 42 2.011150 0.000000 -0.000001 0.000000 0.000000 2.082010
 43 2.141380 -0.000000 -0.000000 0.000000 0.000000 3.141593
 44 1.734172 -0.000001 -0.000001 0.000000 0.000000 1.041748
 45 0.136316 -3.738192 2.525892 1.493698 2.759406 -1.474501
 46 5.031113 -0.189687 1.849662 -2.967941 -0.035742 1.570790
 47 11.389367 -0.000820 0.158779 2.038253 0.265248 0.386992
 48 0.000001 -4.440599 -0.000001 1.570144 -3.078602 0.004040
 49 6.000000 -0.000000 -0.000001 2.038253 0.000000 0.000000
 50 0.000002 -4.440601 0.000000 1.569944 -3.078603 0.004053
 51 10.510131 0.000000 0.000000 0.000000 -0.000000 -2.348078
 52 -0.000000 -1.748399 -5.000001 3.141593 0.004007 -1.539299
 53 5.500000 -0.000000 -0.000001 -0.317696 0.000000 0.000000
 54 -0.000000 0.000000 -4.999998 -0.044472 3.137589 -0.000177
 55 6.551492 -0.000001 -0.000002 0.317696 0.087144 -0.398677
 56 -1.266843 -1.937444 -4.950561 -0.066572 -2.988806 -0.110308
 57 6.551492 -0.000001 -0.000002 0.317696 0.087144 -0.398677
 58 0.699371 -1.944209 -5.006846 -0.027189 -3.088217 0.005298
 59 4.226147 -0.003201 -0.000000 0.345687 -0.048160 0.004991
 60 -0.000001 5.000001 -0.000001 -0.153564 0.000087 2.718702
 61 0.000006 -0.000004 -3.713579 0.119535 -2.936655 -0.885276
 62 0.000003 0.000000 5.000000 3.053195 1.558589 -0.074929
 63 -0.000005 0.000006 3.713580 -0.311487 -2.845558 -0.582080
 64 0.000001 0.000000 -5.000000 -0.088726 1.558589 3.066335
 65 7.363603 1.646648 0.495664 -3.141593 -1.570796 0.000000
 66 -0.000005 0.000007 3.619082 -0.441735 -2.434423 -1.159240
 67 16.573917 -0.000001 0.000001 -0.000000 -0.000000 -2.011748
 68 15.128180 0.000001 0.000001 0.026832 0.026147 -0.175154
 69 5.758666 4.244731 0.000000 0.000000 -0.000000 2.033309
 70 3.177727 0.000000 0.000000 0.000000 0.000000 3.141593
 71 15.708951 0.000002 0.000001 0.013957 0.013894 -0.093781
 72 0.275148 0.189215 -3.445208 3.130898 0.000409 -1.514604
 73 17.210192 -0.000002 0.000002 -0.000000 0.000000 -2.319003
 74 0.000000 -0.000001 -4.999999 -0.079433 1.546568 -1.570857
 75 0.000007 -0.000003 -3.619079 0.260448 -2.945758 -1.468642
 76 16.573919 -0.000000 0.000001 0.000000 0.000000 -1.562392
 77 15.128181 0.000000 0.000001 0.265624 -0.173430 0.666428
 78 5.758665 4.244731 0.000000 -0.000000 0.000000 1.483530
 79 4.003934 -0.000000 0.000000 0.000000 0.000000 0.000000
 80 15.708953 0.000000 0.000000 0.195074 -0.100553 0.460486
 81 0.273998 0.191090 3.439762 -3.130907 -0.000437 -1.508107
 82 17.210194 -0.000000 0.000000 -0.000000 0.000000 -2.116793
 83 0.000000 0.000000 5.000000 -0.079311 1.595025 -1.570737
end
