version 1
nodes
  0 "Bip01"  -1
  1 "Bip01 Footsteps"   0
  2 "Bip01 Pelvis"   0
  3 "Bip01 Spine"   2
  4 "Bip01 Spine1"   3
  5 "Bip01 Spine2"   4
  6 "Bip01 Spine3"   5
  7 "Bip01 Neck"   6
  8 "Bip01 Head"   7
  9 "Dummy21"   8
 10 "Bip01 L Clavicle"   7
 11 "Bip01 L UpperArm"  10
 12 "Bip01 L Forearm"  11
 13 "Bip01 L Hand"  12
 14 "Bip01 L Finger0"  13
 15 "Bip01 L Finger01"  14
 16 "Dummy06"  15
 17 "Bip01 L Finger1"  13
 18 "Bip01 L Finger11"  17
 19 "Dummy03"  18
 20 "-- L knuckle"  17
 21 "-- L knuckle_end"  20
 22 "-- L Forearm twist"  12
 23 "-- L Forearm twist_end"  22
 24 "-- L wrist"  12
 25 "-- L wrist_end"  24
 26 "-- L Elbow"  11
 27 "--L Elbow_end"  26
 28 "-- L bicep twist"  11
 29 "-- L bicep twist_end"  28
 30 "-- L shoulder outside"  10
 31 "-- L shoulder outside_end"  30
 32 "-- L Shoulder inside"  10
 33 "-- L Shoulder inside_end"  32
 34 "Bip01 R Clavicle"   7
 35 "Bip01 R UpperArm"  34
 36 "Bip01 R Forearm"  35
 37 "Bip01 R Hand"  36
 38 "Bip01 R Finger0"  37
 39 "Bip01 R Finger01"  38
 40 "Dummy01"  39
 41 "Bip01 R Finger1"  37
 42 "Bip01 R Finger11"  41
 43 "Dummy02"  42
 44 "-- R knuckle"  41
 45 "Point06"  44
 46 "Line01"  37
 47 "-- R wrist"  36
 48 "-- R wrist_end"  47
 49 "-- R forearm twist"  36
 50 "-- R forearm twist_end"  49
 51 "-- R Elbow"  35
 52 "--R Elbow_end"  51
 53 "-- R bicep twist"  35
 54 "-- R bicep twist_end"  53
 55 "-- R Shoulder inside"  34
 56 "-- R Shoulder inside_end"  55
 57 "-- R shoulder outside"  34
 58 "-- R shoulder outside_end"  57
 59 "-- Neck smooth"   6
 60 "-- neck smooth end"  59
 61 "-- R Butt"   2
 62 "--R Butt_end"  61
 63 "-- L butt"   2
 64 "--L butt_end"  63
 65 "GIGN01"   2
 66 "Bip01 L Thigh"   2
 67 "Bip01 L Calf"  66
 68 "Bip01 L Foot"  67
 69 "Bip01 L Toe0"  68
 70 "Dummy16"  69
 71 "-- L ankle"  67
 72 "-- L ankleend"  71
 73 "-- L Knee"  66
 74 "--L Knee_end"  73
 75 "Bip01 R Thigh"   2
 76 "Bip01 R Calf"  75
 77 "Bip01 R Foot"  76
 78 "Bip01 R Toe0"  77
 79 "Dummy11"  78
 80 "-- R Ankle"  76
 81 "-- R ankleend"  80
 82 "-- R Knee"  75
 83 "--R Knee_end"  82
end
skeleton
time 0
  0 -0.650000 0.000000 33.899605 -0.025849 0.174554 -1.569172
  1 5.816420 0.852483 -32.971565 -0.174512 -0.026131 1.569196
  2 -2.276935 0.000003 -1.238188 -1.570795 -1.570451 0.000000
  3 1.796998 0.711836 0.000483 -0.150884 -0.173184 -0.016949
  4 4.119876 -0.002987 0.000482 -0.148130 0.076298 0.390347
  5 4.118963 -0.003225 0.000494 -0.151576 0.061324 0.101158
  6 4.118613 -0.003237 0.000516 -0.157547 0.018483 0.001258
  7 4.119050 -0.003500 -0.000285 0.081585 -0.166181 0.112945
  8 4.443600 0.000000 -0.000001 0.595380 0.221232 -0.250222
  9 9.024060 -0.000000 -0.000000 0.000000 0.000000 0.000000
 10 0.286623 0.142796 1.703167 1.979135 -1.169221 1.063144
 11 6.384776 -0.000001 0.000002 -1.273535 0.598498 -1.027893
 12 10.242685 0.000002 0.000000 0.000000 0.000000 -1.552819
 13 11.375563 -0.000002 -0.000001 -3.038720 0.603957 0.321484
 14 0.728681 0.023430 -1.008292 2.396606 0.246960 1.180207
 15 2.136496 -0.000000 -0.000001 -0.000000 -0.000000 -0.078540
 16 2.313139 0.000000 -0.000000 0.000000 0.000000 0.000000
 17 3.115507 -0.886041 -0.021431 -0.166499 0.000392 0.514872
 18 2.011147 -0.000002 -0.000000 -0.000000 -0.000000 1.322791
 19 2.141379 0.000000 -0.000001 0.000000 0.000000 0.000000
 20 1.734171 0.000001 -0.000001 -0.000000 0.000000 0.660693
 21 0.000007 -4.440593 0.000001 1.570544 -0.062990 -0.195737
 22 6.000000 -0.000000 0.000000 -2.726799 0.000000 -0.000000
 23 -0.000000 -4.440602 0.000000 1.569944 -0.062987 0.004053
 24 11.375561 0.000001 0.000002 -2.293169 0.239249 0.298575
 25 -0.000001 -4.440604 0.000002 1.570144 -0.062988 0.004040
 26 10.510133 0.000001 -0.000000 0.000000 0.000000 -2.347206
 27 -0.000000 -1.748399 4.999999 0.000000 0.004007 1.602291
 28 5.500002 0.000001 -0.000000 0.387292 0.000000 0.000000
 29 -0.000003 -1.940597 5.000000 -0.044472 0.004003 -0.000180
 30 6.551492 -0.000002 -0.000002 -0.791466 0.485541 -0.512656
 31 -0.000002 -1.940600 5.000001 -0.027189 -0.053376 0.005295
 32 6.551492 -0.000002 -0.000002 -0.310845 0.266112 -0.172255
 33 -0.000001 -1.940600 4.999997 -0.066572 -0.152786 -0.110311
 34 -0.286615 -0.135720 -1.703168 -0.958552 1.194752 2.039788
 35 6.384776 -0.000001 0.000001 -0.725665 -1.128711 0.374208
 36 10.242683 -0.000003 0.000001 0.000000 0.000000 -2.118938
 37 11.375560 0.000002 -0.000001 1.642142 0.221557 -0.135045
 38 0.728681 0.023431 1.008294 -1.579583 -0.319038 0.212973
 39 2.136497 -0.000002 -0.000000 -0.000000 0.000000 1.282817
 40 2.313140 -0.000000 -0.000000 0.000000 0.000000 3.141593
 41 3.115507 -0.886041 0.021431 0.708959 0.171755 0.347804
 42 2.011151 -0.000001 0.000002 0.000000 0.000000 2.082010
 43 2.141379 -0.000000 0.000001 0.000000 0.000000 3.141593
 44 1.734172 -0.000002 0.000001 -0.000000 0.000000 1.041748
 45 0.136316 -3.738192 2.525892 1.493698 2.759406 -1.474501
 46 5.613160 0.862367 3.157034 1.595152 -0.135386 0.061522
 47 11.389366 -0.000817 0.158781 1.609084 0.121562 -0.079414
 48 0.000000 -4.440598 -0.000001 1.570144 -3.078602 0.004040
 49 5.999999 0.000000 -0.000001 1.609084 0.000000 -0.000000
 50 0.000001 -4.440601 -0.000001 1.569944 -3.078603 0.004053
 51 10.510133 -0.000002 0.000001 -0.000000 0.000000 -2.630265
 52 -0.000000 -1.748399 -5.000000 3.141593 0.004007 -1.539299
 53 5.500002 -0.000003 -0.000000 0.180066 -0.000000 0.000000
 54 -0.000000 -0.000000 -4.999998 -0.044472 3.137589 -0.000177
 55 6.551490 0.000000 -0.000000 -0.180066 -0.355198 -0.032963
 56 -1.266844 -1.937443 -4.950561 -0.066572 -2.988806 -0.110308
 57 6.551491 -0.000000 -0.000001 -0.180066 -0.355198 -0.032963
 58 0.699369 -1.944208 -5.006847 -0.027189 -3.088217 0.005298
 59 4.226148 -0.003202 0.000000 0.043213 -0.087700 0.067412
 60 -0.000003 5.000002 0.000001 -0.153564 0.000087 2.718701
 61 0.000004 -0.000004 -3.713580 0.018865 -3.096651 -0.324845
 62 -0.000002 0.000000 5.000000 3.053198 1.558589 -0.074926
 63 -0.000007 0.000006 3.713580 -0.159276 -2.977491 -0.403653
 64 0.000001 -0.000000 -5.000000 -0.088724 1.558589 3.066337
 65 7.363602 1.646647 0.495663 3.141593 -1.570796 0.000000
 66 -0.000005 0.000007 3.619081 -0.217558 -2.796588 -0.810634
 67 16.573919 -0.000001 0.000000 0.000000 0.000000 -2.033247
 68 15.128181 0.000002 -0.000000 0.271612 0.009043 -0.097069
 69 5.758665 4.244730 0.000000 0.000000 -0.000000 1.842220
 70 3.177726 -0.000001 -0.000001 0.000000 0.000000 3.141593
 71 15.708953 0.000001 -0.000001 0.136460 0.001254 -0.052592
 72 0.275149 0.189214 -3.445208 3.130898 0.000409 -1.514604
 73 17.210194 -0.000002 0.000000 -0.000000 -0.000000 -2.328678
 74 -0.000000 0.000001 -4.999999 -0.079432 1.546568 -1.570855
 75 0.000002 -0.000003 -3.619081 0.034416 -3.071533 -0.493407
 76 16.573921 -0.000000 0.000000 0.000000 0.000000 -1.045581
 77 15.128181 0.000002 0.000000 0.002618 -0.051986 0.588317
 78 5.758665 4.244731 -0.000000 -0.000000 0.000000 1.815142
 79 4.003934 0.000000 0.000000 0.000000 0.000000 0.000000
 80 15.708955 0.000001 0.000000 0.004296 -0.037430 0.405337
 81 0.273998 0.191090 3.439762 -3.130907 -0.000437 -1.508107
 82 17.210194 0.000000 0.000000 -0.000000 -0.000000 -1.884228
 83 0.000000 -0.000001 5.000000 -0.079311 1.595025 -1.570737
time 1
  0 -0.650000 0.000000 33.899605 -0.025849 0.174554 -1.569172
  1 5.816420 0.852483 -32.971565 -0.174512 -0.026131 1.569196
  2 -2.276935 0.000003 -1.238188 -1.570795 -1.570451 0.000000
  3 1.796998 0.711836 0.000483 -0.150884 -0.173184 -0.016949
  4 4.119876 -0.002987 0.000482 -0.148130 0.076298 0.390347
  5 4.118963 -0.003225 0.000494 -0.151576 0.061324 0.101158
  6 4.118613 -0.003237 0.000516 -0.157547 0.018483 0.001258
  7 4.119050 -0.003500 -0.000285 0.081585 -0.166181 0.112945
  8 4.443600 0.000000 -0.000001 0.595380 0.221232 -0.250222
  9 9.024060 -0.000000 -0.000000 0.000000 0.000000 0.000000
 10 0.286623 0.142796 1.703167 1.979135 -1.169221 1.063144
 11 6.384776 -0.000001 0.000002 -1.273535 0.598498 -1.027893
 12 10.242685 0.000002 0.000000 0.000000 0.000000 -1.552819
 13 11.375563 -0.000002 -0.000001 -3.038720 0.603957 0.321484
 14 0.728681 0.023430 -1.008292 2.396606 0.246960 1.180207
 15 2.136496 -0.000000 -0.000001 -0.000000 -0.000000 -0.078540
 16 2.313139 0.000000 -0.000000 0.000000 0.000000 0.000000
 17 3.115507 -0.886041 -0.021431 -0.166499 0.000392 0.514872
 18 2.011147 -0.000002 -0.000000 -0.000000 -0.000000 1.322791
 19 2.141379 0.000000 -0.000001 0.000000 0.000000 0.000000
 20 1.734171 0.000001 -0.000001 -0.000000 0.000000 0.660693
 21 0.000007 -4.440593 0.000001 1.570544 -0.062990 -0.195737
 22 6.000000 -0.000000 0.000000 -2.726799 0.000000 -0.000000
 23 -0.000000 -4.440602 0.000000 1.569944 -0.062987 0.004053
 24 11.375561 0.000001 0.000002 -2.293169 0.239249 0.298575
 25 -0.000001 -4.440604 0.000002 1.570144 -0.062988 0.004040
 26 10.510133 0.000001 -0.000000 0.000000 0.000000 -2.347206
 27 -0.000000 -1.748399 4.999999 0.000000 0.004007 1.602291
 28 5.500002 0.000001 -0.000000 0.387292 0.000000 0.000000
 29 -0.000003 -1.940597 5.000000 -0.044472 0.004003 -0.000180
 30 6.551492 -0.000002 -0.000002 -0.791466 0.485541 -0.512656
 31 -0.000002 -1.940600 5.000001 -0.027189 -0.053376 0.005295
 32 6.551492 -0.000002 -0.000002 -0.310845 0.266112 -0.172255
 33 -0.000001 -1.940600 4.999997 -0.066572 -0.152786 -0.110311
 34 -0.286615 -0.135720 -1.703168 -0.958552 1.194752 2.039788
 35 6.384776 -0.000001 0.000001 -0.725665 -1.128711 0.374208
 36 10.242683 -0.000003 0.000001 0.000000 0.000000 -2.118938
 37 11.375560 0.000002 -0.000001 1.642142 0.221557 -0.135045
 38 0.728681 0.023431 1.008294 -1.579583 -0.319038 0.212973
 39 2.136497 -0.000002 -0.000000 -0.000000 0.000000 1.282817
 40 2.313140 -0.000000 -0.000000 0.000000 0.000000 3.141593
 41 3.115507 -0.886041 0.021431 0.708959 0.171755 0.347804
 42 2.011151 -0.000001 0.000002 0.000000 0.000000 2.082010
 43 2.141379 -0.000000 0.000001 0.000000 0.000000 3.141593
 44 1.734172 -0.000002 0.000001 -0.000000 0.000000 1.041748
 45 0.136316 -3.738192 2.525892 1.493698 2.759406 -1.474501
 46 5.613160 0.862367 3.157034 1.595152 -0.135386 0.061522
 47 11.389366 -0.000817 0.158781 1.609084 0.121562 -0.079414
 48 0.000000 -4.440598 -0.000001 1.570144 -3.078602 0.004040
 49 5.999999 0.000000 -0.000001 1.609084 0.000000 -0.000000
 50 0.000001 -4.440601 -0.000001 1.569944 -3.078603 0.004053
 51 10.510133 -0.000002 0.000001 -0.000000 0.000000 -2.630265
 52 -0.000000 -1.748399 -5.000000 3.141593 0.004007 -1.539299
 53 5.500002 -0.000003 -0.000000 0.180066 -0.000000 0.000000
 54 -0.000000 -0.000000 -4.999998 -0.044472 3.137589 -0.000177
 55 6.551490 0.000000 -0.000000 -0.180066 -0.355198 -0.032963
 56 -1.266844 -1.937443 -4.950561 -0.066572 -2.988806 -0.110308
 57 6.551491 -0.000000 -0.000001 -0.180066 -0.355198 -0.032963
 58 0.699369 -1.944208 -5.006847 -0.027189 -3.088217 0.005298
 59 4.226148 -0.003202 0.000000 0.043213 -0.087700 0.067412
 60 -0.000003 5.000002 0.000001 -0.153564 0.000087 2.718701
 61 0.000004 -0.000004 -3.713580 0.018865 -3.096651 -0.324845
 62 -0.000002 0.000000 5.000000 3.053198 1.558589 -0.074926
 63 -0.000007 0.000006 3.713580 -0.159276 -2.977491 -0.403653
 64 0.000001 -0.000000 -5.000000 -0.088724 1.558589 3.066337
 65 7.363602 1.646647 0.495663 3.141593 -1.570796 0.000000
 66 -0.000005 0.000007 3.619081 -0.217558 -2.796588 -0.810634
 67 16.573919 -0.000001 0.000000 0.000000 0.000000 -2.033247
 68 15.128181 0.000002 -0.000000 0.271612 0.009043 -0.097069
 69 5.758665 4.244730 0.000000 0.000000 -0.000000 1.842220
 70 3.177726 -0.000001 -0.000001 0.000000 0.000000 3.141593
 71 15.708953 0.000001 -0.000001 0.136460 0.001254 -0.052592
 72 0.275149 0.189214 -3.445208 3.130898 0.000409 -1.514604
 73 17.210194 -0.000002 0.000000 -0.000000 -0.000000 -2.328678
 74 -0.000000 0.000001 -4.999999 -0.079432 1.546568 -1.570855
 75 0.000002 -0.000003 -3.619081 0.034416 -3.071533 -0.493407
 76 16.573921 -0.000000 0.000000 0.000000 0.000000 -1.045581
 77 15.128181 0.000002 0.000000 0.002618 -0.051986 0.588317
 78 5.758665 4.244731 -0.000000 -0.000000 0.000000 1.815142
 79 4.003934 0.000000 0.000000 0.000000 0.000000 0.000000
 80 15.708955 0.000001 0.000000 0.004296 -0.037430 0.405337
 81 0.273998 0.191090 3.439762 -3.130907 -0.000437 -1.508107
 82 17.210194 0.000000 0.000000 -0.000000 -0.000000 -1.884228
 83 0.000000 -0.000001 5.000000 -0.079311 1.595025 -1.570737
end
