version 1
nodes
  0 "Bip01"  -1
  1 "Bip01 Footsteps"   0
  2 "Bip01 Pelvis"   0
  3 "Bip01 Spine"   2
  4 "Bip01 Spine1"   3
  5 "Bip01 Spine2"   4
  6 "Bip01 Spine3"   5
  7 "Bip01 Neck"   6
  8 "Bip01 Head"   7
  9 "Dummy21"   8
 10 "Bip01 L Clavicle"   7
 11 "Bip01 L UpperArm"  10
 12 "Bip01 L Forearm"  11
 13 "Bip01 L Hand"  12
 14 "Bip01 L Finger0"  13
 15 "Bip01 L Finger01"  14
 16 "Dummy06"  15
 17 "Bip01 L Finger1"  13
 18 "Bip01 L Finger11"  17
 19 "Dummy03"  18
 20 "-- L knuckle"  17
 21 "-- L knuckle_end"  20
 22 "-- L Forearm twist"  12
 23 "-- L Forearm twist_end"  22
 24 "-- L wrist"  12
 25 "-- L wrist_end"  24
 26 "-- L Elbow"  11
 27 "--L Elbow_end"  26
 28 "-- L bicep twist"  11
 29 "-- L bicep twist_end"  28
 30 "-- L shoulder outside"  10
 31 "-- L shoulder outside_end"  30
 32 "-- L Shoulder inside"  10
 33 "-- L Shoulder inside_end"  32
 34 "Bip01 R Clavicle"   7
 35 "Bip01 R UpperArm"  34
 36 "Bip01 R Forearm"  35
 37 "Bip01 R Hand"  36
 38 "Bip01 R Finger0"  37
 39 "Bip01 R Finger01"  38
 40 "Dummy01"  39
 41 "Bip01 R Finger1"  37
 42 "Bip01 R Finger11"  41
 43 "Dummy02"  42
 44 "-- R knuckle"  41
 45 "Point06"  44
 46 "Steyr Aug"  37
 47 "-- R wrist"  36
 48 "-- R wrist_end"  47
 49 "-- R forearm twist"  36
 50 "-- R forearm twist_end"  49
 51 "-- R Elbow"  35
 52 "--R Elbow_end"  51
 53 "-- R bicep twist"  35
 54 "-- R bicep twist_end"  53
 55 "-- R Shoulder inside"  34
 56 "-- R Shoulder inside_end"  55
 57 "-- R shoulder outside"  34
 58 "-- R shoulder outside_end"  57
 59 "-- Neck smooth"   6
 60 "-- neck smooth end"  59
 61 "-- R Butt"   2
 62 "--R Butt_end"  61
 63 "-- L butt"   2
 64 "--L butt_end"  63
 65 "GIGN01"   2
 66 "Bip01 L Thigh"   2
 67 "Bip01 L Calf"  66
 68 "Bip01 L Foot"  67
 69 "Bip01 L Toe0"  68
 70 "Dummy16"  69
 71 "-- L ankle"  67
 72 "-- L ankleend"  71
 73 "-- L Knee"  66
 74 "--L Knee_end"  73
 75 "Bip01 R Thigh"   2
 76 "Bip01 R Calf"  75
 77 "Bip01 R Foot"  76
 78 "Bip01 R Toe0"  77
 79 "Dummy11"  78
 80 "-- R Ankle"  76
 81 "-- R ankleend"  80
 82 "-- R Knee"  75
 83 "--R Knee_end"  82
end
skeleton
time 0
  0 -0.650000 0.000000 33.899605 -0.025849 0.174554 -1.569172
  1 5.893954 0.863846 -33.411083 -0.174512 -0.026131 1.569196
  2 -2.276935 0.000003 -1.238188 -1.570795 -1.570451 0.000000
  3 1.796593 0.711875 -0.000457 0.139368 0.072083 -0.159616
  4 4.119475 -0.003117 -0.000531 0.162804 -0.055385 0.263269
  5 4.118626 -0.003235 -0.000535 0.165192 -0.132992 -0.014882
  6 4.118386 -0.003156 -0.000866 0.275845 -0.249380 -0.139291
  7 4.120150 -0.003094 0.000739 -0.220103 0.299544 0.398533
  8 4.443599 0.000001 0.000000 1.036147 -0.092872 0.090322
  9 9.024060 -0.000000 0.000000 0.000000 0.000000 0.000000
 10 -0.511299 -0.357925 1.615623 -0.284468 -1.382437 2.968541
 11 6.384777 0.000001 0.000003 -1.001806 0.776741 -0.708211
 12 10.242683 0.000000 0.000001 -0.000000 0.000000 -1.760224
 13 11.375559 0.000000 -0.000000 -1.800251 -0.351962 0.897011
 14 0.728680 0.023431 -1.008291 1.051563 0.167831 0.364467
 15 2.136495 -0.000003 -0.000002 -0.000000 -0.000000 -0.078540
 16 2.313138 0.000001 0.000001 0.000000 0.000000 0.000000
 17 3.115505 -0.886041 -0.021430 -0.166499 0.000392 0.514872
 18 2.011151 -0.000000 0.000001 -0.000000 0.000000 1.322792
 19 2.141380 0.000001 -0.000001 0.000000 0.000000 0.000000
 20 1.734171 0.000001 -0.000002 -0.000000 0.000000 0.660693
 21 0.000005 -4.440594 0.000001 1.570544 -0.062990 -0.195737
 22 5.999998 0.000000 0.000000 -1.721365 0.000000 0.000000
 23 0.000002 -4.440601 -0.000000 1.569944 -0.062987 0.004053
 24 11.375561 -0.000002 0.000003 -1.646446 -0.204339 0.425321
 25 -0.000001 -4.440604 0.000000 1.570144 -0.062988 0.004040
 26 10.510132 0.000001 0.000000 -0.000000 0.000000 -2.450908
 27 -0.000002 -1.748400 4.999998 -0.000000 0.004007 1.602291
 28 5.500000 -0.000000 0.000001 0.316310 -0.000000 -0.000000
 29 -0.000000 -1.940598 4.999999 -0.044472 0.004003 -0.000180
 30 6.551492 0.000000 0.000000 -0.634826 0.562957 -0.329604
 31 0.000000 -1.940598 5.000003 -0.027189 -0.053376 0.005295
 32 6.551492 0.000000 0.000000 -0.256819 0.284767 -0.099438
 33 0.000000 -1.940599 4.999994 -0.066572 -0.152786 -0.110311
 34 0.511305 0.365003 -1.615623 -1.989100 0.765374 0.699307
 35 6.384776 0.000000 0.000002 0.292323 -0.484503 -1.141824
 36 10.242682 -0.000000 0.000000 -0.000000 -0.000000 -1.847000
 37 11.375561 0.000001 0.000002 2.669340 0.333147 0.676913
 38 0.728681 0.023432 1.008289 -1.579583 -0.319038 0.212973
 39 2.136496 -0.000003 -0.000000 -0.000000 -0.000000 1.282817
 40 2.313141 0.000003 0.000000 0.000000 0.000000 3.141593
 41 3.115506 -0.886040 0.021431 0.420765 0.316066 0.167178
 42 2.011151 -0.000000 -0.000001 -0.000000 0.000000 2.082010
 43 2.141380 -0.000000 -0.000001 0.000000 0.000000 3.141593
 44 1.734172 -0.000001 0.000000 0.000000 -0.000000 1.041748
 45 0.136314 -3.738192 2.525890 1.493698 2.759406 -1.474501
 46 2.392943 0.494656 0.382010 1.580188 0.187932 -0.064451
 47 11.389366 -0.000820 0.158783 2.081592 0.261411 0.287768
 48 -0.000001 -4.440600 0.000002 1.570144 -3.078602 0.004040
 49 6.000000 0.000000 0.000001 2.081592 0.000000 0.000000
 50 0.000001 -4.440601 -0.000000 1.569944 -3.078603 0.004053
 51 10.510132 -0.000001 0.000002 0.000000 -0.000000 -2.494296
 52 0.000001 -1.748401 -5.000004 -3.141593 0.004007 -1.539299
 53 5.500001 -0.000001 0.000001 -0.021969 0.000000 0.000000
 54 -0.000000 0.000000 -5.000000 -0.044472 3.137589 -0.000177
 55 6.551490 -0.000000 0.000003 0.021969 -0.190042 -0.297046
 56 -1.266843 -1.937444 -4.950558 -0.066572 -2.988806 -0.110308
 57 6.551490 -0.000000 0.000003 0.021969 -0.190042 -0.297046
 58 0.699371 -1.944208 -5.006846 -0.027189 -3.088217 0.005298
 59 4.226145 -0.003202 -0.000000 -0.000000 0.000000 0.000000
 60 -0.000003 5.000001 0.000001 -0.153564 0.000087 2.718702
 61 0.000004 -0.000004 -3.713580 0.290376 3.013277 -0.297962
 62 0.000001 0.000000 5.000000 3.053197 1.558589 -0.074927
 63 -0.000007 0.000006 3.713580 -0.034975 -3.082273 -0.437482
 64 0.000000 0.000000 -5.000000 -0.088725 1.558589 3.066336
 65 7.363602 1.646647 0.495663 3.141593 -1.570796 0.000000
 66 -0.000005 0.000007 3.619081 -0.028794 -3.033423 -0.895646
 67 16.573919 0.000000 0.000000 0.000000 -0.000000 -0.913148
 68 15.128182 0.000000 0.000000 -0.209286 0.003490 0.096454
 69 5.758665 4.244730 0.000000 0.000000 -0.000000 1.667687
 70 3.177725 0.000000 0.000000 0.000000 0.000000 3.141593
 71 15.708953 0.000001 0.000001 -0.105150 -0.000962 0.051995
 72 0.275148 0.189215 -3.445207 3.130898 0.000409 -1.514604
 73 17.210194 -0.000001 0.000000 0.000000 -0.000000 -1.824633
 74 0.000000 -0.000001 -4.999999 -0.079430 1.546568 -1.570856
 75 0.000002 -0.000003 -3.619081 0.419461 2.902290 -0.449810
 76 16.573923 -0.000001 -0.000000 -0.000000 -0.000000 -1.043723
 77 15.128181 -0.000000 -0.000001 0.097638 0.037747 0.499581
 78 5.758665 4.244730 0.000000 -0.000000 -0.000000 1.815142
 79 4.003934 0.000000 -0.000000 0.000000 0.000000 0.000000
 80 15.708954 0.000000 0.000000 0.065509 0.034128 0.347425
 81 0.273997 0.191089 3.439762 -3.130907 -0.000437 -1.508107
 82 17.210196 -0.000001 -0.000001 0.000000 0.000000 -1.883392
 83 0.000000 0.000001 5.000000 -0.079311 1.595025 -1.570736
time 1
  0 -0.650000 0.000000 33.899605 -0.025849 0.174554 -1.569172
  1 5.893954 0.863846 -33.411083 -0.174512 -0.026131 1.569196
  2 -2.276935 0.000003 -1.238188 -1.570795 -1.570451 0.000000
  3 1.796593 0.711875 -0.000457 0.139368 0.072083 -0.159616
  4 4.119475 -0.003117 -0.000531 0.162804 -0.055385 0.263269
  5 4.118626 -0.003235 -0.000535 0.165192 -0.132992 -0.014882
  6 4.118386 -0.003156 -0.000866 0.275845 -0.249380 -0.139291
  7 4.120150 -0.003094 0.000739 -0.220103 0.299544 0.398533
  8 4.443599 0.000001 0.000000 1.036147 -0.092872 0.090322
  9 9.024060 -0.000000 0.000000 0.000000 0.000000 0.000000
 10 -0.511299 -0.357925 1.615623 -0.284468 -1.382437 2.968541
 11 6.384777 0.000001 0.000003 -1.001806 0.776741 -0.708211
 12 10.242683 0.000000 0.000001 -0.000000 0.000000 -1.760224
 13 11.375559 0.000000 -0.000000 -1.800251 -0.351962 0.897011
 14 0.728680 0.023431 -1.008291 1.051563 0.167831 0.364467
 15 2.136495 -0.000003 -0.000002 -0.000000 -0.000000 -0.078540
 16 2.313138 0.000001 0.000001 0.000000 0.000000 0.000000
 17 3.115505 -0.886041 -0.021430 -0.166499 0.000392 0.514872
 18 2.011151 -0.000000 0.000001 -0.000000 0.000000 1.322792
 19 2.141380 0.000001 -0.000001 0.000000 0.000000 0.000000
 20 1.734171 0.000001 -0.000002 -0.000000 0.000000 0.660693
 21 0.000005 -4.440594 0.000001 1.570544 -0.062990 -0.195737
 22 5.999998 0.000000 0.000000 -1.721365 0.000000 0.000000
 23 0.000002 -4.440601 -0.000000 1.569944 -0.062987 0.004053
 24 11.375561 -0.000002 0.000003 -1.646446 -0.204339 0.425321
 25 -0.000001 -4.440604 0.000000 1.570144 -0.062988 0.004040
 26 10.510132 0.000001 0.000000 -0.000000 0.000000 -2.450908
 27 -0.000002 -1.748400 4.999998 -0.000000 0.004007 1.602291
 28 5.500000 -0.000000 0.000001 0.316310 -0.000000 -0.000000
 29 -0.000000 -1.940598 4.999999 -0.044472 0.004003 -0.000180
 30 6.551492 0.000000 0.000000 -0.634826 0.562957 -0.329604
 31 0.000000 -1.940598 5.000003 -0.027189 -0.053376 0.005295
 32 6.551492 0.000000 0.000000 -0.256819 0.284767 -0.099438
 33 0.000000 -1.940599 4.999994 -0.066572 -0.152786 -0.110311
 34 0.511305 0.365003 -1.615623 -1.989100 0.765374 0.699307
 35 6.384776 0.000000 0.000002 0.292323 -0.484503 -1.141824
 36 10.242682 -0.000000 0.000000 -0.000000 -0.000000 -1.847000
 37 11.375561 0.000001 0.000002 2.669340 0.333147 0.676913
 38 0.728681 0.023432 1.008289 -1.579583 -0.319038 0.212973
 39 2.136496 -0.000003 -0.000000 -0.000000 -0.000000 1.282817
 40 2.313141 0.000003 0.000000 0.000000 0.000000 3.141593
 41 3.115506 -0.886040 0.021431 0.420765 0.316066 0.167178
 42 2.011151 -0.000000 -0.000001 -0.000000 0.000000 2.082010
 43 2.141380 -0.000000 -0.000001 0.000000 0.000000 3.141593
 44 1.734172 -0.000001 0.000000 0.000000 -0.000000 1.041748
 45 0.136314 -3.738192 2.525890 1.493698 2.759406 -1.474501
 46 2.392943 0.494656 0.382010 1.580188 0.187932 -0.064451
 47 11.389366 -0.000820 0.158783 2.081592 0.261411 0.287768
 48 -0.000001 -4.440600 0.000002 1.570144 -3.078602 0.004040
 49 6.000000 0.000000 0.000001 2.081592 0.000000 0.000000
 50 0.000001 -4.440601 -0.000000 1.569944 -3.078603 0.004053
 51 10.510132 -0.000001 0.000002 0.000000 -0.000000 -2.494296
 52 0.000001 -1.748401 -5.000004 -3.141593 0.004007 -1.539299
 53 5.500001 -0.000001 0.000001 -0.021969 0.000000 0.000000
 54 -0.000000 0.000000 -5.000000 -0.044472 3.137589 -0.000177
 55 6.551490 -0.000000 0.000003 0.021969 -0.190042 -0.297046
 56 -1.266843 -1.937444 -4.950558 -0.066572 -2.988806 -0.110308
 57 6.551490 -0.000000 0.000003 0.021969 -0.190042 -0.297046
 58 0.699371 -1.944208 -5.006846 -0.027189 -3.088217 0.005298
 59 4.226145 -0.003202 -0.000000 -0.000000 0.000000 0.000000
 60 -0.000003 5.000001 0.000001 -0.153564 0.000087 2.718702
 61 0.000004 -0.000004 -3.713580 0.290376 3.013277 -0.297962
 62 0.000001 0.000000 5.000000 3.053197 1.558589 -0.074927
 63 -0.000007 0.000006 3.713580 -0.034975 -3.082273 -0.437482
 64 0.000000 0.000000 -5.000000 -0.088725 1.558589 3.066336
 65 7.363602 1.646647 0.495663 3.141593 -1.570796 0.000000
 66 -0.000005 0.000007 3.619081 -0.028794 -3.033423 -0.895646
 67 16.573919 0.000000 0.000000 0.000000 -0.000000 -0.913148
 68 15.128182 0.000000 0.000000 -0.209286 0.003490 0.096454
 69 5.758665 4.244730 0.000000 0.000000 -0.000000 1.667687
 70 3.177725 0.000000 0.000000 0.000000 0.000000 3.141593
 71 15.708953 0.000001 0.000001 -0.105150 -0.000962 0.051995
 72 0.275148 0.189215 -3.445207 3.130898 0.000409 -1.514604
 73 17.210194 -0.000001 0.000000 0.000000 -0.000000 -1.824633
 74 0.000000 -0.000001 -4.999999 -0.079430 1.546568 -1.570856
 75 0.000002 -0.000003 -3.619081 0.419461 2.902290 -0.449810
 76 16.573923 -0.000001 -0.000000 -0.000000 -0.000000 -1.043723
 77 15.128181 -0.000000 -0.000001 0.097638 0.037747 0.499581
 78 5.758665 4.244730 0.000000 -0.000000 -0.000000 1.815142
 79 4.003934 0.000000 -0.000000 0.000000 0.000000 0.000000
 80 15.708954 0.000000 0.000000 0.065509 0.034128 0.347425
 81 0.273997 0.191089 3.439762 -3.130907 -0.000437 -1.508107
 82 17.210196 -0.000001 -0.000001 0.000000 0.000000 -1.883392
 83 0.000000 0.000001 5.000000 -0.079311 1.595025 -1.570736
time 2
  0 -0.650000 0.000000 33.899605 -0.025849 0.174554 -1.569172
  1 5.893954 0.863846 -33.411083 -0.174512 -0.026131 1.569196
  2 -2.276935 0.000003 -1.238188 -1.570795 -1.570451 0.000000
  3 1.796593 0.711875 -0.000457 0.139368 0.072083 -0.159616
  4 4.119475 -0.003117 -0.000531 0.162804 -0.055385 0.263269
  5 4.118626 -0.003235 -0.000535 0.165192 -0.132992 -0.014882
  6 4.118386 -0.003156 -0.000866 0.275845 -0.249380 -0.139291
  7 4.120150 -0.003094 0.000739 -0.220103 0.299544 0.398533
  8 4.443599 0.000001 0.000000 1.036147 -0.092872 0.090322
  9 9.024060 -0.000000 0.000000 0.000000 0.000000 0.000000
 10 -0.511299 -0.357925 1.615623 -0.284468 -1.382437 2.968541
 11 6.384777 0.000001 0.000003 -1.001806 0.776741 -0.708211
 12 10.242683 0.000000 0.000001 -0.000000 0.000000 -1.760224
 13 11.375559 0.000000 -0.000000 -1.800251 -0.351962 0.897011
 14 0.728680 0.023431 -1.008291 1.051563 0.167831 0.364467
 15 2.136495 -0.000003 -0.000002 -0.000000 -0.000000 -0.078540
 16 2.313138 0.000001 0.000001 0.000000 0.000000 0.000000
 17 3.115505 -0.886041 -0.021430 -0.166499 0.000392 0.514872
 18 2.011151 -0.000000 0.000001 -0.000000 0.000000 1.322792
 19 2.141380 0.000001 -0.000001 0.000000 0.000000 0.000000
 20 1.734171 0.000001 -0.000002 -0.000000 0.000000 0.660693
 21 0.000005 -4.440594 0.000001 1.570544 -0.062990 -0.195737
 22 5.999998 0.000000 0.000000 -1.721365 0.000000 0.000000
 23 0.000002 -4.440601 -0.000000 1.569944 -0.062987 0.004053
 24 11.375561 -0.000002 0.000003 -1.646446 -0.204339 0.425321
 25 -0.000001 -4.440604 0.000000 1.570144 -0.062988 0.004040
 26 10.510132 0.000001 0.000000 -0.000000 0.000000 -2.450908
 27 -0.000002 -1.748400 4.999998 -0.000000 0.004007 1.602291
 28 5.500000 -0.000000 0.000001 0.316310 -0.000000 -0.000000
 29 -0.000000 -1.940598 4.999999 -0.044472 0.004003 -0.000180
 30 6.551492 0.000000 0.000000 -0.634826 0.562957 -0.329604
 31 0.000000 -1.940598 5.000003 -0.027189 -0.053376 0.005295
 32 6.551492 0.000000 0.000000 -0.256819 0.284767 -0.099438
 33 0.000000 -1.940599 4.999994 -0.066572 -0.152786 -0.110311
 34 0.511305 0.365003 -1.615623 -1.989100 0.765374 0.699307
 35 6.384776 0.000000 0.000002 0.292323 -0.484503 -1.141824
 36 10.242682 -0.000000 0.000000 -0.000000 -0.000000 -1.847000
 37 11.375561 0.000001 0.000002 2.669340 0.333147 0.676913
 38 0.728681 0.023432 1.008289 -1.579583 -0.319038 0.212973
 39 2.136496 -0.000003 -0.000000 -0.000000 -0.000000 1.282817
 40 2.313141 0.000003 0.000000 0.000000 0.000000 3.141593
 41 3.115506 -0.886040 0.021431 0.420765 0.316066 0.167178
 42 2.011151 -0.000000 -0.000001 -0.000000 0.000000 2.082010
 43 2.141380 -0.000000 -0.000001 0.000000 0.000000 3.141593
 44 1.734172 -0.000001 0.000000 0.000000 -0.000000 1.041748
 45 0.136314 -3.738192 2.525890 1.493698 2.759406 -1.474501
 46 2.392943 0.494656 0.382010 1.580188 0.187932 -0.064451
 47 11.389366 -0.000820 0.158783 2.081592 0.261411 0.287768
 48 -0.000001 -4.440600 0.000002 1.570144 -3.078602 0.004040
 49 6.000000 0.000000 0.000001 2.081592 0.000000 0.000000
 50 0.000001 -4.440601 -0.000000 1.569944 -3.078603 0.004053
 51 10.510132 -0.000001 0.000002 0.000000 -0.000000 -2.494296
 52 0.000001 -1.748401 -5.000004 -3.141593 0.004007 -1.539299
 53 5.500001 -0.000001 0.000001 -0.021969 0.000000 0.000000
 54 -0.000000 0.000000 -5.000000 -0.044472 3.137589 -0.000177
 55 6.551490 -0.000000 0.000003 0.021969 -0.190042 -0.297046
 56 -1.266843 -1.937444 -4.950558 -0.066572 -2.988806 -0.110308
 57 6.551490 -0.000000 0.000003 0.021969 -0.190042 -0.297046
 58 0.699371 -1.944208 -5.006846 -0.027189 -3.088217 0.005298
 59 4.226145 -0.003202 -0.000000 -0.000000 0.000000 0.000000
 60 -0.000003 5.000001 0.000001 -0.153564 0.000087 2.718702
 61 0.000004 -0.000004 -3.713580 0.290376 3.013277 -0.297962
 62 0.000001 0.000000 5.000000 3.053197 1.558589 -0.074927
 63 -0.000007 0.000006 3.713580 -0.034975 -3.082273 -0.437482
 64 0.000000 0.000000 -5.000000 -0.088725 1.558589 3.066336
 65 7.363602 1.646647 0.495663 3.141593 -1.570796 0.000000
 66 -0.000005 0.000007 3.619081 -0.028794 -3.033423 -0.895646
 67 16.573919 0.000000 0.000000 0.000000 -0.000000 -0.913148
 68 15.128182 0.000000 0.000000 -0.209286 0.003490 0.096454
 69 5.758665 4.244730 0.000000 0.000000 -0.000000 1.667687
 70 3.177725 0.000000 0.000000 0.000000 0.000000 3.141593
 71 15.708953 0.000001 0.000001 -0.105150 -0.000962 0.051995
 72 0.275148 0.189215 -3.445207 3.130898 0.000409 -1.514604
 73 17.210194 -0.000001 0.000000 0.000000 -0.000000 -1.824633
 74 0.000000 -0.000001 -4.999999 -0.079430 1.546568 -1.570856
 75 0.000002 -0.000003 -3.619081 0.419461 2.902290 -0.449810
 76 16.573923 -0.000001 -0.000000 -0.000000 -0.000000 -1.043723
 77 15.128181 -0.000000 -0.000001 0.097638 0.037747 0.499581
 78 5.758665 4.244730 0.000000 -0.000000 -0.000000 1.815142
 79 4.003934 0.000000 -0.000000 0.000000 0.000000 0.000000
 80 15.708954 0.000000 0.000000 0.065509 0.034128 0.347425
 81 0.273997 0.191089 3.439762 -3.130907 -0.000437 -1.508107
 82 17.210196 -0.000001 -0.000001 0.000000 0.000000 -1.883392
 83 0.000000 0.000001 5.000000 -0.079311 1.595025 -1.570736
end
