version 1
nodes
  0 "Bip01"  -1
  1 "Bip01 Footsteps"   0
  2 "Bip01 Pelvis"   0
  3 "Bip01 Spine"   2
  4 "Bip01 Spine1"   3
  5 "Bip01 Spine2"   4
  6 "Bip01 Spine3"   5
  7 "Bip01 Neck"   6
  8 "Bip01 Head"   7
  9 "Dummy21"   8
 10 "Bip01 L Clavicle"   7
 11 "Bip01 L UpperArm"  10
 12 "Bip01 L Forearm"  11
 13 "Bip01 L Hand"  12
 14 "Bip01 L Finger0"  13
 15 "Bip01 L Finger01"  14
 16 "Dummy06"  15
 17 "Bip01 L Finger1"  13
 18 "Bip01 L Finger11"  17
 19 "Dummy03"  18
 20 "-- L knuckle"  17
 21 "-- L knuckle_end"  20
 22 "-- L Forearm twist"  12
 23 "-- L Forearm twist_end"  22
 24 "-- L wrist"  12
 25 "-- L wrist_end"  24
 26 "-- L Elbow"  11
 27 "--L Elbow_end"  26
 28 "-- L bicep twist"  11
 29 "-- L bicep twist_end"  28
 30 "-- L shoulder outside"  10
 31 "-- L shoulder outside_end"  30
 32 "-- L Shoulder inside"  10
 33 "-- L Shoulder inside_end"  32
 34 "Bip01 R Clavicle"   7
 35 "Bip01 R UpperArm"  34
 36 "Bip01 R Forearm"  35
 37 "Bip01 R Hand"  36
 38 "Bip01 R Finger0"  37
 39 "Bip01 R Finger01"  38
 40 "Dummy01"  39
 41 "Bip01 R Finger1"  37
 42 "Bip01 R Finger11"  41
 43 "Dummy02"  42
 44 "-- R knuckle"  41
 45 "Point06"  44
 46 "Steyr Aug"  37
 47 "-- R wrist"  36
 48 "-- R wrist_end"  47
 49 "-- R forearm twist"  36
 50 "-- R forearm twist_end"  49
 51 "-- R Elbow"  35
 52 "--R Elbow_end"  51
 53 "-- R bicep twist"  35
 54 "-- R bicep twist_end"  53
 55 "-- R Shoulder inside"  34
 56 "-- R Shoulder inside_end"  55
 57 "-- R shoulder outside"  34
 58 "-- R shoulder outside_end"  57
 59 "-- Neck smooth"   6
 60 "-- neck smooth end"  59
 61 "-- R Butt"   2
 62 "--R Butt_end"  61
 63 "-- L butt"   2
 64 "--L butt_end"  63
 65 "GIGN01"   2
 66 "Bip01 L Thigh"   2
 67 "Bip01 L Calf"  66
 68 "Bip01 L Foot"  67
 69 "Bip01 L Toe0"  68
 70 "Dummy16"  69
 71 "-- L ankle"  67
 72 "-- L ankleend"  71
 73 "-- L Knee"  66
 74 "--L Knee_end"  73
 75 "Bip01 R Thigh"   2
 76 "Bip01 R Calf"  75
 77 "Bip01 R Foot"  76
 78 "Bip01 R Toe0"  77
 79 "Dummy11"  78
 80 "-- R Ankle"  76
 81 "-- R ankleend"  80
 82 "-- R Knee"  75
 83 "--R Knee_end"  82
end
skeleton
time 0
  0 -0.650000 0.000000 33.899605 -0.025849 0.174554 -1.569172
  1 5.990176 0.877949 -33.956539 -0.174512 -0.026131 1.569196
  2 -2.276935 0.000003 -1.238188 -1.570795 -1.570451 0.000000
  3 1.797023 0.711820 -0.000371 0.112944 0.057887 -0.029211
  4 4.119882 -0.002998 -0.000390 0.119633 -0.071539 0.393432
  5 4.119031 -0.003228 -0.000362 0.111830 -0.148793 0.116365
  6 4.118690 -0.003261 -0.000340 0.105035 -0.152258 0.010634
  7 4.120315 -0.003022 0.000683 -0.203874 0.310772 0.452177
  8 4.443599 0.000001 -0.000000 1.088570 -0.884854 -0.467943
  9 9.024060 -0.000000 -0.000000 0.000000 0.000000 0.000000
 10 -0.529855 -0.330473 1.615552 -0.284119 -1.382212 2.915817
 11 6.384777 -0.000000 -0.000000 -1.335675 0.966541 -0.985838
 12 10.242683 0.000000 0.000000 -0.000000 -0.000000 -1.580560
 13 11.375561 0.000002 -0.000002 -2.133151 -0.552082 0.552784
 14 0.728680 0.023431 -1.008292 1.051563 0.167831 0.364467
 15 2.136497 0.000001 -0.000001 0.000000 -0.000000 -0.078540
 16 2.313138 0.000002 0.000000 0.000000 0.000000 0.000000
 17 3.115506 -0.886041 -0.021429 -0.166499 0.000392 0.514872
 18 2.011151 0.000000 -0.000000 -0.000000 0.000000 1.322791
 19 2.141379 0.000000 -0.000001 0.000000 0.000000 0.000000
 20 1.734172 0.000000 0.000002 -0.000000 0.000000 0.660693
 21 0.000006 -4.440593 0.000000 1.570544 -0.062990 -0.195737
 22 6.000000 0.000001 -0.000000 -1.959744 0.000000 -0.000000
 23 0.000001 -4.440601 0.000001 1.569944 -0.062987 0.004053
 24 11.375562 0.000003 0.000002 -1.799589 -0.311485 0.231996
 25 -0.000002 -4.440603 0.000003 1.570144 -0.062988 0.004040
 26 10.510131 -0.000000 0.000000 -0.000000 -0.000000 -2.361076
 27 0.000002 -1.748403 4.999999 0.000000 0.004007 1.602291
 28 5.500002 -0.000000 0.000000 0.338433 -0.000000 -0.000000
 29 -0.000000 -1.940598 5.000000 -0.044472 0.004003 -0.000180
 30 6.551492 0.000001 0.000001 -0.748944 0.757686 -0.340085
 31 -0.000001 -1.940599 5.000002 -0.027189 -0.053376 0.005295
 32 6.551492 0.000001 0.000001 -0.269575 0.360123 -0.063068
 33 -0.000001 -1.940599 4.999999 -0.066572 -0.152786 -0.110311
 34 0.529859 0.337554 -1.615552 -1.930808 0.653612 0.707047
 35 6.384777 0.000001 -0.000002 -0.077339 -0.081317 -0.878286
 36 10.242682 0.000001 0.000002 0.000000 0.000000 -1.794459
 37 11.375562 0.000000 0.000003 2.648188 0.163225 0.555452
 38 0.728679 0.023432 1.008292 -1.579583 -0.319038 0.212973
 39 2.136496 -0.000001 -0.000000 -0.000000 0.000000 1.282817
 40 2.313141 -0.000001 0.000000 0.000000 0.000000 3.141593
 41 3.115507 -0.886041 0.021428 0.420766 0.316066 0.167178
 42 2.011150 -0.000001 -0.000002 -0.000000 -0.000000 2.082010
 43 2.141380 0.000000 0.000002 0.000000 0.000000 3.141593
 44 1.734171 -0.000000 -0.000001 0.000000 -0.000000 1.041748
 45 0.136314 -3.738192 2.525891 1.493698 2.759406 -1.474501
 46 2.392943 0.494656 0.382009 1.580188 0.187932 -0.064451
 47 11.389366 -0.000819 0.158785 2.096249 0.165418 0.266866
 48 0.000000 -4.440600 0.000001 1.570144 -3.078602 0.004040
 49 6.000000 0.000001 0.000002 2.096249 -0.000000 -0.000000
 50 0.000001 -4.440601 0.000002 1.569944 -3.078603 0.004053
 51 10.510133 0.000001 0.000003 0.000000 0.000000 -2.468026
 52 -0.000000 -1.748400 -5.000000 3.141593 0.004007 -1.539299
 53 5.500001 0.000001 0.000002 0.032707 0.000000 0.000000
 54 -0.000000 0.000001 -5.000002 -0.044472 3.137589 -0.000177
 55 6.551490 0.000001 -0.000001 -0.032707 -0.017516 -0.272545
 56 -1.266844 -1.937442 -4.950561 -0.066572 -2.988806 -0.110308
 57 6.551491 0.000001 -0.000002 -0.032707 -0.017516 -0.272545
 58 0.699371 -1.944208 -5.006847 -0.027189 -3.088217 0.005298
 59 4.226146 -0.003201 0.000000 -0.000000 -0.000000 0.000000
 60 -0.000000 5.000000 -0.000000 -0.153565 0.000087 2.718702
 61 0.000004 -0.000004 -3.713580 0.310708 3.061774 -0.299831
 62 -0.000001 0.000000 5.000000 3.053198 1.558589 -0.074926
 63 -0.000007 0.000006 3.713580 -0.039445 -3.109123 -0.424727
 64 0.000000 0.000000 -4.999999 -0.088726 1.558589 3.066335
 65 7.363602 1.646647 0.495663 3.141593 -1.570796 0.000000
 66 -0.000005 0.000007 3.619081 -0.050783 -3.077521 -0.864438
 67 16.573921 0.000000 -0.000000 0.000000 0.000000 -0.799835
 68 15.128183 0.000000 -0.000000 -0.226585 0.047160 0.015533
 69 5.758665 4.244730 0.000000 0.000000 -0.000000 1.667687
 70 3.177725 0.000000 0.000000 0.000000 0.000000 3.141593
 71 15.708953 0.000001 -0.000000 -0.113790 0.025857 0.009762
 72 0.275148 0.189215 -3.445207 3.130898 0.000409 -1.514604
 73 17.210194 -0.000001 -0.000000 0.000000 0.000000 -1.773642
 74 -0.000001 -0.000001 -5.000000 -0.079433 1.546568 -1.570859
 75 0.000002 -0.000003 -3.619081 0.457660 2.978585 -0.459616
 76 16.573919 -0.000001 -0.000000 0.000000 0.000000 -1.015615
 77 15.128180 0.000001 -0.000000 0.100180 -0.045661 0.495175
 78 5.758665 4.244730 0.000000 -0.000000 -0.000000 1.815142
 79 4.003934 0.000000 -0.000000 0.000000 0.000000 0.000000
 80 15.708955 0.000000 -0.000000 0.070498 -0.026577 0.345176
 81 0.273998 0.191090 3.439762 -3.130907 -0.000437 -1.508107
 82 17.210196 -0.000001 -0.000001 0.000000 -0.000000 -1.870744
 83 0.000000 -0.000001 5.000000 -0.079314 1.595025 -1.570739
time 1
  0 -0.650000 0.000000 33.899605 -0.025849 0.174554 -1.569172
  1 5.990176 0.877949 -33.956539 -0.174512 -0.026131 1.569196
  2 -2.276935 0.000003 -1.238188 -1.570795 -1.570451 0.000000
  3 1.797023 0.711820 -0.000371 0.112944 0.057887 -0.029211
  4 4.119882 -0.002998 -0.000390 0.119633 -0.071539 0.393432
  5 4.119031 -0.003228 -0.000362 0.111830 -0.148793 0.116365
  6 4.118690 -0.003261 -0.000340 0.105035 -0.152258 0.010634
  7 4.120315 -0.003022 0.000683 -0.203874 0.310772 0.452177
  8 4.443599 0.000001 -0.000000 1.088570 -0.884854 -0.467943
  9 9.024060 -0.000000 -0.000000 0.000000 0.000000 0.000000
 10 -0.529855 -0.330473 1.615552 -0.284119 -1.382212 2.915817
 11 6.384777 -0.000000 -0.000000 -1.335675 0.966541 -0.985838
 12 10.242683 0.000000 0.000000 -0.000000 -0.000000 -1.580560
 13 11.375561 0.000002 -0.000002 -2.133151 -0.552082 0.552784
 14 0.728680 0.023431 -1.008292 1.051563 0.167831 0.364467
 15 2.136497 0.000001 -0.000001 0.000000 -0.000000 -0.078540
 16 2.313138 0.000002 0.000000 0.000000 0.000000 0.000000
 17 3.115506 -0.886041 -0.021429 -0.166499 0.000392 0.514872
 18 2.011151 0.000000 -0.000000 -0.000000 0.000000 1.322791
 19 2.141379 0.000000 -0.000001 0.000000 0.000000 0.000000
 20 1.734172 0.000000 0.000002 -0.000000 0.000000 0.660693
 21 0.000006 -4.440593 0.000000 1.570544 -0.062990 -0.195737
 22 6.000000 0.000001 -0.000000 -1.959744 0.000000 -0.000000
 23 0.000001 -4.440601 0.000001 1.569944 -0.062987 0.004053
 24 11.375562 0.000003 0.000002 -1.799589 -0.311485 0.231996
 25 -0.000002 -4.440603 0.000003 1.570144 -0.062988 0.004040
 26 10.510131 -0.000000 0.000000 -0.000000 -0.000000 -2.361076
 27 0.000002 -1.748403 4.999999 0.000000 0.004007 1.602291
 28 5.500002 -0.000000 0.000000 0.338433 -0.000000 -0.000000
 29 -0.000000 -1.940598 5.000000 -0.044472 0.004003 -0.000180
 30 6.551492 0.000001 0.000001 -0.748944 0.757686 -0.340085
 31 -0.000001 -1.940599 5.000002 -0.027189 -0.053376 0.005295
 32 6.551492 0.000001 0.000001 -0.269575 0.360123 -0.063068
 33 -0.000001 -1.940599 4.999999 -0.066572 -0.152786 -0.110311
 34 0.529859 0.337554 -1.615552 -1.930808 0.653612 0.707047
 35 6.384777 0.000001 -0.000002 -0.077339 -0.081317 -0.878286
 36 10.242682 0.000001 0.000002 0.000000 0.000000 -1.794459
 37 11.375562 0.000000 0.000003 2.648188 0.163225 0.555452
 38 0.728679 0.023432 1.008292 -1.579583 -0.319038 0.212973
 39 2.136496 -0.000001 -0.000000 -0.000000 0.000000 1.282817
 40 2.313141 -0.000001 0.000000 0.000000 0.000000 3.141593
 41 3.115507 -0.886041 0.021428 0.420766 0.316066 0.167178
 42 2.011150 -0.000001 -0.000002 -0.000000 -0.000000 2.082010
 43 2.141380 0.000000 0.000002 0.000000 0.000000 3.141593
 44 1.734171 -0.000000 -0.000001 0.000000 -0.000000 1.041748
 45 0.136314 -3.738192 2.525891 1.493698 2.759406 -1.474501
 46 2.392943 0.494656 0.382009 1.580188 0.187932 -0.064451
 47 11.389366 -0.000819 0.158785 2.096249 0.165418 0.266866
 48 0.000000 -4.440600 0.000001 1.570144 -3.078602 0.004040
 49 6.000000 0.000001 0.000002 2.096249 -0.000000 -0.000000
 50 0.000001 -4.440601 0.000002 1.569944 -3.078603 0.004053
 51 10.510133 0.000001 0.000003 0.000000 0.000000 -2.468026
 52 -0.000000 -1.748400 -5.000000 3.141593 0.004007 -1.539299
 53 5.500001 0.000001 0.000002 0.032707 0.000000 0.000000
 54 -0.000000 0.000001 -5.000002 -0.044472 3.137589 -0.000177
 55 6.551490 0.000001 -0.000001 -0.032707 -0.017516 -0.272545
 56 -1.266844 -1.937442 -4.950561 -0.066572 -2.988806 -0.110308
 57 6.551491 0.000001 -0.000002 -0.032707 -0.017516 -0.272545
 58 0.699371 -1.944208 -5.006847 -0.027189 -3.088217 0.005298
 59 4.226146 -0.003201 0.000000 -0.000000 -0.000000 0.000000
 60 -0.000000 5.000000 -0.000000 -0.153565 0.000087 2.718702
 61 0.000004 -0.000004 -3.713580 0.310708 3.061774 -0.299831
 62 -0.000001 0.000000 5.000000 3.053198 1.558589 -0.074926
 63 -0.000007 0.000006 3.713580 -0.039445 -3.109123 -0.424727
 64 0.000000 0.000000 -4.999999 -0.088726 1.558589 3.066335
 65 7.363602 1.646647 0.495663 3.141593 -1.570796 0.000000
 66 -0.000005 0.000007 3.619081 -0.050783 -3.077521 -0.864438
 67 16.573921 0.000000 -0.000000 0.000000 0.000000 -0.799835
 68 15.128183 0.000000 -0.000000 -0.226585 0.047160 0.015533
 69 5.758665 4.244730 0.000000 0.000000 -0.000000 1.667687
 70 3.177725 0.000000 0.000000 0.000000 0.000000 3.141593
 71 15.708953 0.000001 -0.000000 -0.113790 0.025857 0.009762
 72 0.275148 0.189215 -3.445207 3.130898 0.000409 -1.514604
 73 17.210194 -0.000001 -0.000000 0.000000 0.000000 -1.773642
 74 -0.000001 -0.000001 -5.000000 -0.079433 1.546568 -1.570859
 75 0.000002 -0.000003 -3.619081 0.457660 2.978585 -0.459616
 76 16.573919 -0.000001 -0.000000 0.000000 0.000000 -1.015615
 77 15.128180 0.000001 -0.000000 0.100180 -0.045661 0.495175
 78 5.758665 4.244730 0.000000 -0.000000 -0.000000 1.815142
 79 4.003934 0.000000 -0.000000 0.000000 0.000000 0.000000
 80 15.708955 0.000000 -0.000000 0.070498 -0.026577 0.345176
 81 0.273998 0.191090 3.439762 -3.130907 -0.000437 -1.508107
 82 17.210196 -0.000001 -0.000001 0.000000 -0.000000 -1.870744
 83 0.000000 -0.000001 5.000000 -0.079314 1.595025 -1.570739
time 2
  0 -0.650000 0.000000 33.899605 -0.025849 0.174554 -1.569172
  1 5.990176 0.877949 -33.956539 -0.174512 -0.026131 1.569196
  2 -2.276935 0.000003 -1.238188 -1.570795 -1.570451 0.000000
  3 1.797023 0.711820 -0.000371 0.112944 0.057887 -0.029211
  4 4.119882 -0.002998 -0.000390 0.119633 -0.071539 0.393432
  5 4.119031 -0.003228 -0.000362 0.111830 -0.148793 0.116365
  6 4.118690 -0.003261 -0.000340 0.105035 -0.152258 0.010634
  7 4.120315 -0.003022 0.000683 -0.203874 0.310772 0.452177
  8 4.443599 0.000001 -0.000000 1.088570 -0.884854 -0.467943
  9 9.024060 -0.000000 -0.000000 0.000000 0.000000 0.000000
 10 -0.529855 -0.330473 1.615552 -0.284119 -1.382212 2.915817
 11 6.384777 -0.000000 -0.000000 -1.335675 0.966541 -0.985838
 12 10.242683 0.000000 0.000000 -0.000000 -0.000000 -1.580560
 13 11.375561 0.000002 -0.000002 -2.133151 -0.552082 0.552784
 14 0.728680 0.023431 -1.008292 1.051563 0.167831 0.364467
 15 2.136497 0.000001 -0.000001 0.000000 -0.000000 -0.078540
 16 2.313138 0.000002 0.000000 0.000000 0.000000 0.000000
 17 3.115506 -0.886041 -0.021429 -0.166499 0.000392 0.514872
 18 2.011151 0.000000 -0.000000 -0.000000 0.000000 1.322791
 19 2.141379 0.000000 -0.000001 0.000000 0.000000 0.000000
 20 1.734172 0.000000 0.000002 -0.000000 0.000000 0.660693
 21 0.000006 -4.440593 0.000000 1.570544 -0.062990 -0.195737
 22 6.000000 0.000001 -0.000000 -1.959744 0.000000 -0.000000
 23 0.000001 -4.440601 0.000001 1.569944 -0.062987 0.004053
 24 11.375562 0.000003 0.000002 -1.799589 -0.311485 0.231996
 25 -0.000002 -4.440603 0.000003 1.570144 -0.062988 0.004040
 26 10.510131 -0.000000 0.000000 -0.000000 -0.000000 -2.361076
 27 0.000002 -1.748403 4.999999 0.000000 0.004007 1.602291
 28 5.500002 -0.000000 0.000000 0.338433 -0.000000 -0.000000
 29 -0.000000 -1.940598 5.000000 -0.044472 0.004003 -0.000180
 30 6.551492 0.000001 0.000001 -0.748944 0.757686 -0.340085
 31 -0.000001 -1.940599 5.000002 -0.027189 -0.053376 0.005295
 32 6.551492 0.000001 0.000001 -0.269575 0.360123 -0.063068
 33 -0.000001 -1.940599 4.999999 -0.066572 -0.152786 -0.110311
 34 0.529859 0.337554 -1.615552 -1.930808 0.653612 0.707047
 35 6.384777 0.000001 -0.000002 -0.077339 -0.081317 -0.878286
 36 10.242682 0.000001 0.000002 0.000000 0.000000 -1.794459
 37 11.375562 0.000000 0.000003 2.648188 0.163225 0.555452
 38 0.728679 0.023432 1.008292 -1.579583 -0.319038 0.212973
 39 2.136496 -0.000001 -0.000000 -0.000000 0.000000 1.282817
 40 2.313141 -0.000001 0.000000 0.000000 0.000000 3.141593
 41 3.115507 -0.886041 0.021428 0.420766 0.316066 0.167178
 42 2.011150 -0.000001 -0.000002 -0.000000 -0.000000 2.082010
 43 2.141380 0.000000 0.000002 0.000000 0.000000 3.141593
 44 1.734171 -0.000000 -0.000001 0.000000 -0.000000 1.041748
 45 0.136314 -3.738192 2.525891 1.493698 2.759406 -1.474501
 46 2.392943 0.494656 0.382009 1.580188 0.187932 -0.064451
 47 11.389366 -0.000819 0.158785 2.096249 0.165418 0.266866
 48 0.000000 -4.440600 0.000001 1.570144 -3.078602 0.004040
 49 6.000000 0.000001 0.000002 2.096249 -0.000000 -0.000000
 50 0.000001 -4.440601 0.000002 1.569944 -3.078603 0.004053
 51 10.510133 0.000001 0.000003 0.000000 0.000000 -2.468026
 52 -0.000000 -1.748400 -5.000000 3.141593 0.004007 -1.539299
 53 5.500001 0.000001 0.000002 0.032707 0.000000 0.000000
 54 -0.000000 0.000001 -5.000002 -0.044472 3.137589 -0.000177
 55 6.551490 0.000001 -0.000001 -0.032707 -0.017516 -0.272545
 56 -1.266844 -1.937442 -4.950561 -0.066572 -2.988806 -0.110308
 57 6.551491 0.000001 -0.000002 -0.032707 -0.017516 -0.272545
 58 0.699371 -1.944208 -5.006847 -0.027189 -3.088217 0.005298
 59 4.226146 -0.003201 0.000000 -0.000000 -0.000000 0.000000
 60 -0.000000 5.000000 -0.000000 -0.153565 0.000087 2.718702
 61 0.000004 -0.000004 -3.713580 0.310708 3.061774 -0.299831
 62 -0.000001 0.000000 5.000000 3.053198 1.558589 -0.074926
 63 -0.000007 0.000006 3.713580 -0.039445 -3.109123 -0.424727
 64 0.000000 0.000000 -4.999999 -0.088726 1.558589 3.066335
 65 7.363602 1.646647 0.495663 3.141593 -1.570796 0.000000
 66 -0.000005 0.000007 3.619081 -0.050783 -3.077521 -0.864438
 67 16.573921 0.000000 -0.000000 0.000000 0.000000 -0.799835
 68 15.128183 0.000000 -0.000000 -0.226585 0.047160 0.015533
 69 5.758665 4.244730 0.000000 0.000000 -0.000000 1.667687
 70 3.177725 0.000000 0.000000 0.000000 0.000000 3.141593
 71 15.708953 0.000001 -0.000000 -0.113790 0.025857 0.009762
 72 0.275148 0.189215 -3.445207 3.130898 0.000409 -1.514604
 73 17.210194 -0.000001 -0.000000 0.000000 0.000000 -1.773642
 74 -0.000001 -0.000001 -5.000000 -0.079433 1.546568 -1.570859
 75 0.000002 -0.000003 -3.619081 0.457660 2.978585 -0.459616
 76 16.573919 -0.000001 -0.000000 0.000000 0.000000 -1.015615
 77 15.128180 0.000001 -0.000000 0.100180 -0.045661 0.495175
 78 5.758665 4.244730 0.000000 -0.000000 -0.000000 1.815142
 79 4.003934 0.000000 -0.000000 0.000000 0.000000 0.000000
 80 15.708955 0.000000 -0.000000 0.070498 -0.026577 0.345176
 81 0.273998 0.191090 3.439762 -3.130907 -0.000437 -1.508107
 82 17.210196 -0.000001 -0.000001 0.000000 -0.000000 -1.870744
 83 0.000000 -0.000001 5.000000 -0.079314 1.595025 -1.570739
end
