version 1
nodes
  0 "Bip01"  -1
  1 "Bip01 Footsteps"   0
  2 "Bip01 Pelvis"   0
  3 "Bip01 Spine"   2
  4 "Bip01 Spine1"   3
  5 "Bip01 Spine2"   4
  6 "Bip01 Spine3"   5
  7 "Bip01 Neck"   6
  8 "Bip01 Head"   7
  9 "Dummy21"   8
 10 "Bip01 L Clavicle"   7
 11 "Bip01 L UpperArm"  10
 12 "Bip01 L Forearm"  11
 13 "Bip01 L Hand"  12
 14 "Bip01 L Finger0"  13
 15 "Bip01 L Finger01"  14
 16 "Dummy06"  15
 17 "Bip01 L Finger1"  13
 18 "Bip01 L Finger11"  17
 19 "Dummy03"  18
 20 "-- L knuckle"  17
 21 "-- L knuckle_end"  20
 22 "-- L Forearm twist"  12
 23 "-- L Forearm twist_end"  22
 24 "-- L wrist"  12
 25 "-- L wrist_end"  24
 26 "-- L Elbow"  11
 27 "--L Elbow_end"  26
 28 "-- L bicep twist"  11
 29 "-- L bicep twist_end"  28
 30 "-- L shoulder outside"  10
 31 "-- L shoulder outside_end"  30
 32 "-- L Shoulder inside"  10
 33 "-- L Shoulder inside_end"  32
 34 "Bip01 R Clavicle"   7
 35 "Bip01 R UpperArm"  34
 36 "Bip01 R Forearm"  35
 37 "Bip01 R Hand"  36
 38 "Bip01 R Finger0"  37
 39 "Bip01 R Finger01"  38
 40 "Dummy01"  39
 41 "Bip01 R Finger1"  37
 42 "Bip01 R Finger11"  41
 43 "Dummy02"  42
 44 "-- R knuckle"  41
 45 "Point06"  44
 46 "Steyr Aug"  37
 47 "-- R wrist"  36
 48 "-- R wrist_end"  47
 49 "-- R forearm twist"  36
 50 "-- R forearm twist_end"  49
 51 "-- R Elbow"  35
 52 "--R Elbow_end"  51
 53 "-- R bicep twist"  35
 54 "-- R bicep twist_end"  53
 55 "-- R Shoulder inside"  34
 56 "-- R Shoulder inside_end"  55
 57 "-- R shoulder outside"  34
 58 "-- R shoulder outside_end"  57
 59 "-- Neck smooth"   6
 60 "-- neck smooth end"  59
 61 "-- R Butt"   2
 62 "--R Butt_end"  61
 63 "-- L butt"   2
 64 "--L butt_end"  63
 65 "GIGN01"   2
 66 "Bip01 L Thigh"   2
 67 "Bip01 L Calf"  66
 68 "Bip01 L Foot"  67
 69 "Bip01 L Toe0"  68
 70 "Dummy16"  69
 71 "-- L ankle"  67
 72 "-- L ankleend"  71
 73 "-- L Knee"  66
 74 "--L Knee_end"  73
 75 "Bip01 R Thigh"   2
 76 "Bip01 R Calf"  75
 77 "Bip01 R Foot"  76
 78 "Bip01 R Toe0"  77
 79 "Dummy11"  78
 80 "-- R Ankle"  76
 81 "-- R ankleend"  80
 82 "-- R Knee"  75
 83 "--R Knee_end"  82
end
skeleton
time 0
  0 -0.650000 0.000000 33.899605 -0.025849 0.174554 -1.569172
  1 5.886524 0.862757 -33.368965 -0.174512 -0.026131 1.569196
  2 -2.276935 0.000003 -1.238188 -1.570795 -1.570451 0.000000
  3 1.797090 0.711868 0.000680 -0.209942 0.058124 -0.029223
  4 4.119888 -0.002942 0.000662 -0.203410 0.032702 0.405908
  5 4.118985 -0.003184 0.000690 -0.212100 -0.044449 0.128033
  6 4.118639 -0.003203 0.000711 -0.218866 -0.047856 0.021596
  7 4.119046 -0.003498 -0.000284 0.081585 -0.166181 0.112945
  8 4.443599 0.000000 0.000001 0.691876 0.261498 -0.382541
  9 9.024058 -0.000000 -0.000000 0.000000 0.000000 0.000000
 10 0.286624 0.142794 1.703167 1.979135 -1.169221 1.063144
 11 6.384779 -0.000001 0.000001 -0.680183 0.256501 -0.397343
 12 10.242682 0.000000 -0.000001 -0.000000 -0.000000 -1.852854
 13 11.375562 -0.000000 0.000001 -2.307698 -0.323407 1.043650
 14 0.728680 0.023431 -1.008291 1.051563 0.167831 0.364467
 15 2.136496 -0.000001 -0.000002 -0.000000 -0.000000 -0.078540
 16 2.313139 0.000001 0.000001 0.000000 0.000000 0.000000
 17 3.115506 -0.886041 -0.021431 -0.166499 0.000392 0.514872
 18 2.011150 -0.000001 -0.000000 0.000000 -0.000000 1.322792
 19 2.141380 0.000001 -0.000002 0.000000 0.000000 0.000000
 20 1.734172 0.000001 -0.000001 0.000000 -0.000000 0.660693
 21 0.000006 -4.440595 0.000001 1.570544 -0.062990 -0.195737
 22 6.000000 -0.000001 -0.000001 -2.102838 -0.000000 -0.000000
 23 0.000002 -4.440599 -0.000001 1.569944 -0.062987 0.004053
 24 11.375562 0.000001 0.000003 -1.884259 -0.250141 0.477042
 25 0.000000 -4.440604 -0.000001 1.570144 -0.062988 0.004040
 26 10.510133 0.000000 -0.000002 -0.000000 0.000000 -2.497224
 27 0.000001 -1.748401 4.999999 0.000000 0.004007 1.602291
 28 5.500000 -0.000000 -0.000000 0.271174 0.000000 0.000000
 29 -0.000002 -1.940598 5.000001 -0.044472 0.004003 -0.000180
 30 6.551492 -0.000000 0.000002 -0.490575 0.225090 -0.367085
 31 -0.000000 -1.940600 5.000002 -0.027189 -0.053376 0.005295
 32 6.551492 -0.000000 0.000001 -0.225119 0.131343 -0.162163
 33 -0.000001 -1.940599 4.999996 -0.066572 -0.152786 -0.110311
 34 -0.286619 -0.135718 -1.703165 -0.172322 1.078012 2.848303
 35 6.384778 0.000001 -0.000003 -0.036712 0.051239 -1.340463
 36 10.242682 0.000000 -0.000000 -0.000000 0.000000 -1.755301
 37 11.375562 0.000001 0.000001 2.697062 0.324160 0.613670
 38 0.728682 0.023431 1.008290 -1.579583 -0.319038 0.212973
 39 2.136495 -0.000002 0.000001 -0.000000 0.000000 1.282817
 40 2.313140 -0.000001 -0.000000 0.000000 0.000000 3.141593
 41 3.115507 -0.886040 0.021430 0.420765 0.316066 0.167178
 42 2.011150 0.000001 0.000003 -0.000000 0.000000 2.082010
 43 2.141379 -0.000000 -0.000002 0.000000 0.000000 3.141593
 44 1.734173 -0.000001 0.000002 -0.000000 -0.000000 1.041748
 45 0.136316 -3.738193 2.525891 1.493698 2.759406 -1.474501
 46 2.392943 0.494656 0.382010 1.580188 0.187932 -0.064451
 47 11.389367 -0.000819 0.158780 2.100126 0.254494 0.259110
 48 0.000000 -4.440598 -0.000000 1.570144 -3.078602 0.004040
 49 6.000000 -0.000000 -0.000001 2.100126 -0.000000 -0.000000
 50 0.000002 -4.440603 -0.000000 1.569944 -3.078603 0.004053
 51 10.510131 -0.000000 0.000002 0.000000 0.000000 -2.448447
 52 0.000000 -1.748399 -4.999999 -3.141593 0.004007 -1.539299
 53 5.499999 0.000000 -0.000001 0.007518 0.000000 0.000000
 54 0.000001 -0.000000 -4.999999 -0.044472 3.137590 -0.000177
 55 6.551492 0.000001 -0.000003 -0.007518 0.025751 -0.356931
 56 -1.266844 -1.937443 -4.950559 -0.066572 -2.988806 -0.110308
 57 6.551492 0.000001 -0.000003 -0.007518 0.025751 -0.356931
 58 0.699370 -1.944207 -5.006847 -0.027189 -3.088217 0.005298
 59 4.226145 -0.003200 0.000001 -0.000000 -0.000000 0.000000
 60 -0.000002 5.000001 -0.000000 -0.153564 0.000087 2.718702
 61 0.000004 -0.000004 -3.713580 0.301333 3.030739 -0.215750
 62 0.000002 0.000000 5.000000 3.053197 1.558589 -0.074927
 63 -0.000007 0.000006 3.713580 -0.038851 -3.116086 -0.440696
 64 0.000002 -0.000000 -5.000000 -0.088724 1.558589 3.066337
 65 7.363602 1.646647 0.495663 3.141593 -1.570796 0.000000
 66 -0.000005 0.000007 3.619081 -0.053135 -3.089556 -0.903300
 67 16.573919 -0.000000 0.000000 0.000000 -0.000000 -0.526885
 68 15.128182 -0.000001 0.000000 -0.233498 0.060216 -0.295908
 69 5.758666 4.244731 0.000000 0.000000 -0.000000 1.667687
 70 3.177726 0.000000 -0.000000 0.000000 0.000000 3.141593
 71 15.708953 -0.000000 0.000000 -0.115581 0.043048 -0.155071
 72 0.275148 0.189215 -3.445207 3.130898 0.000409 -1.514604
 73 17.210192 -0.000000 0.000000 -0.000000 -0.000000 -1.650815
 74 -0.000001 -0.000000 -4.999999 -0.079430 1.546568 -1.570856
 75 0.000002 -0.000003 -3.619081 0.437207 2.937474 -0.310521
 76 16.573923 -0.000000 -0.000001 0.000000 -0.000000 -0.925519
 77 15.128183 0.000000 0.000001 0.097923 0.065407 0.519597
 78 5.758665 4.244731 -0.000000 -0.000000 -0.000000 1.815142
 79 4.003934 0.000000 -0.000000 0.000000 0.000000 0.000000
 80 15.708955 0.000001 0.000001 0.064550 0.054444 0.360195
 81 0.273998 0.191089 3.439762 -3.130907 -0.000437 -1.508106
 82 17.210194 -0.000000 -0.000001 -0.000000 0.000000 -1.830200
 83 0.000000 -0.000001 5.000000 -0.079314 1.595025 -1.570739
time 1
  0 -0.650000 0.000000 33.899605 -0.025849 0.174554 -1.569172
  1 5.886524 0.862757 -33.368965 -0.174512 -0.026131 1.569196
  2 -2.276935 0.000003 -1.238188 -1.570795 -1.570451 0.000000
  3 1.797090 0.711868 0.000680 -0.209942 0.058124 -0.029223
  4 4.119888 -0.002942 0.000662 -0.203410 0.032702 0.405908
  5 4.118985 -0.003184 0.000690 -0.212100 -0.044449 0.128033
  6 4.118639 -0.003203 0.000711 -0.218866 -0.047856 0.021596
  7 4.119046 -0.003498 -0.000284 0.081585 -0.166181 0.112945
  8 4.443599 0.000000 0.000001 0.691876 0.261498 -0.382541
  9 9.024058 -0.000000 -0.000000 0.000000 0.000000 0.000000
 10 0.286624 0.142794 1.703167 1.979135 -1.169221 1.063144
 11 6.384779 -0.000001 0.000001 -0.680183 0.256501 -0.397343
 12 10.242682 0.000000 -0.000001 -0.000000 -0.000000 -1.852854
 13 11.375562 -0.000000 0.000001 -2.307698 -0.323407 1.043650
 14 0.728680 0.023431 -1.008291 1.051563 0.167831 0.364467
 15 2.136496 -0.000001 -0.000002 -0.000000 -0.000000 -0.078540
 16 2.313139 0.000001 0.000001 0.000000 0.000000 0.000000
 17 3.115506 -0.886041 -0.021431 -0.166499 0.000392 0.514872
 18 2.011150 -0.000001 -0.000000 0.000000 -0.000000 1.322792
 19 2.141380 0.000001 -0.000002 0.000000 0.000000 0.000000
 20 1.734172 0.000001 -0.000001 0.000000 -0.000000 0.660693
 21 0.000006 -4.440595 0.000001 1.570544 -0.062990 -0.195737
 22 6.000000 -0.000001 -0.000001 -2.102838 -0.000000 -0.000000
 23 0.000002 -4.440599 -0.000001 1.569944 -0.062987 0.004053
 24 11.375562 0.000001 0.000003 -1.884259 -0.250141 0.477042
 25 0.000000 -4.440604 -0.000001 1.570144 -0.062988 0.004040
 26 10.510133 0.000000 -0.000002 -0.000000 0.000000 -2.497224
 27 0.000001 -1.748401 4.999999 0.000000 0.004007 1.602291
 28 5.500000 -0.000000 -0.000000 0.271174 0.000000 0.000000
 29 -0.000002 -1.940598 5.000001 -0.044472 0.004003 -0.000180
 30 6.551492 -0.000000 0.000002 -0.490575 0.225090 -0.367085
 31 -0.000000 -1.940600 5.000002 -0.027189 -0.053376 0.005295
 32 6.551492 -0.000000 0.000001 -0.225119 0.131343 -0.162163
 33 -0.000001 -1.940599 4.999996 -0.066572 -0.152786 -0.110311
 34 -0.286619 -0.135718 -1.703165 -0.172322 1.078012 2.848303
 35 6.384778 0.000001 -0.000003 -0.036712 0.051239 -1.340463
 36 10.242682 0.000000 -0.000000 -0.000000 0.000000 -1.755301
 37 11.375562 0.000001 0.000001 2.697062 0.324160 0.613670
 38 0.728682 0.023431 1.008290 -1.579583 -0.319038 0.212973
 39 2.136495 -0.000002 0.000001 -0.000000 0.000000 1.282817
 40 2.313140 -0.000001 -0.000000 0.000000 0.000000 3.141593
 41 3.115507 -0.886040 0.021430 0.420765 0.316066 0.167178
 42 2.011150 0.000001 0.000003 -0.000000 0.000000 2.082010
 43 2.141379 -0.000000 -0.000002 0.000000 0.000000 3.141593
 44 1.734173 -0.000001 0.000002 -0.000000 -0.000000 1.041748
 45 0.136316 -3.738193 2.525891 1.493698 2.759406 -1.474501
 46 2.392943 0.494656 0.382010 1.580188 0.187932 -0.064451
 47 11.389367 -0.000819 0.158780 2.100126 0.254494 0.259110
 48 0.000000 -4.440598 -0.000000 1.570144 -3.078602 0.004040
 49 6.000000 -0.000000 -0.000001 2.100126 -0.000000 -0.000000
 50 0.000002 -4.440603 -0.000000 1.569944 -3.078603 0.004053
 51 10.510131 -0.000000 0.000002 0.000000 0.000000 -2.448447
 52 0.000000 -1.748399 -4.999999 -3.141593 0.004007 -1.539299
 53 5.499999 0.000000 -0.000001 0.007518 0.000000 0.000000
 54 0.000001 -0.000000 -4.999999 -0.044472 3.137590 -0.000177
 55 6.551492 0.000001 -0.000003 -0.007518 0.025751 -0.356931
 56 -1.266844 -1.937443 -4.950559 -0.066572 -2.988806 -0.110308
 57 6.551492 0.000001 -0.000003 -0.007518 0.025751 -0.356931
 58 0.699370 -1.944207 -5.006847 -0.027189 -3.088217 0.005298
 59 4.226145 -0.003200 0.000001 -0.000000 -0.000000 0.000000
 60 -0.000002 5.000001 -0.000000 -0.153564 0.000087 2.718702
 61 0.000004 -0.000004 -3.713580 0.301333 3.030739 -0.215750
 62 0.000002 0.000000 5.000000 3.053197 1.558589 -0.074927
 63 -0.000007 0.000006 3.713580 -0.038851 -3.116086 -0.440696
 64 0.000002 -0.000000 -5.000000 -0.088724 1.558589 3.066337
 65 7.363602 1.646647 0.495663 3.141593 -1.570796 0.000000
 66 -0.000005 0.000007 3.619081 -0.053135 -3.089556 -0.903300
 67 16.573919 -0.000000 0.000000 0.000000 -0.000000 -0.526885
 68 15.128182 -0.000001 0.000000 -0.233498 0.060216 -0.295908
 69 5.758666 4.244731 0.000000 0.000000 -0.000000 1.667687
 70 3.177726 0.000000 -0.000000 0.000000 0.000000 3.141593
 71 15.708953 -0.000000 0.000000 -0.115581 0.043048 -0.155071
 72 0.275148 0.189215 -3.445207 3.130898 0.000409 -1.514604
 73 17.210192 -0.000000 0.000000 -0.000000 -0.000000 -1.650815
 74 -0.000001 -0.000000 -4.999999 -0.079430 1.546568 -1.570856
 75 0.000002 -0.000003 -3.619081 0.437207 2.937474 -0.310521
 76 16.573923 -0.000000 -0.000001 0.000000 -0.000000 -0.925519
 77 15.128183 0.000000 0.000001 0.097923 0.065407 0.519597
 78 5.758665 4.244731 -0.000000 -0.000000 -0.000000 1.815142
 79 4.003934 0.000000 -0.000000 0.000000 0.000000 0.000000
 80 15.708955 0.000001 0.000001 0.064550 0.054444 0.360195
 81 0.273998 0.191089 3.439762 -3.130907 -0.000437 -1.508106
 82 17.210194 -0.000000 -0.000001 -0.000000 0.000000 -1.830200
 83 0.000000 -0.000001 5.000000 -0.079314 1.595025 -1.570739
time 2
  0 -0.650000 0.000000 33.899605 -0.025849 0.174554 -1.569172
  1 5.886524 0.862757 -33.368965 -0.174512 -0.026131 1.569196
  2 -2.276935 0.000003 -1.238188 -1.570795 -1.570451 0.000000
  3 1.797090 0.711868 0.000680 -0.209942 0.058124 -0.029223
  4 4.119888 -0.002942 0.000662 -0.203410 0.032702 0.405908
  5 4.118985 -0.003184 0.000690 -0.212100 -0.044449 0.128033
  6 4.118639 -0.003203 0.000711 -0.218866 -0.047856 0.021596
  7 4.119046 -0.003498 -0.000284 0.081585 -0.166181 0.112945
  8 4.443599 0.000000 0.000001 0.691876 0.261498 -0.382541
  9 9.024058 -0.000000 -0.000000 0.000000 0.000000 0.000000
 10 0.286624 0.142794 1.703167 1.979135 -1.169221 1.063144
 11 6.384779 -0.000001 0.000001 -0.680183 0.256501 -0.397343
 12 10.242682 0.000000 -0.000001 -0.000000 -0.000000 -1.852854
 13 11.375562 -0.000000 0.000001 -2.307698 -0.323407 1.043650
 14 0.728680 0.023431 -1.008291 1.051563 0.167831 0.364467
 15 2.136496 -0.000001 -0.000002 -0.000000 -0.000000 -0.078540
 16 2.313139 0.000001 0.000001 0.000000 0.000000 0.000000
 17 3.115506 -0.886041 -0.021431 -0.166499 0.000392 0.514872
 18 2.011150 -0.000001 -0.000000 0.000000 -0.000000 1.322792
 19 2.141380 0.000001 -0.000002 0.000000 0.000000 0.000000
 20 1.734172 0.000001 -0.000001 0.000000 -0.000000 0.660693
 21 0.000006 -4.440595 0.000001 1.570544 -0.062990 -0.195737
 22 6.000000 -0.000001 -0.000001 -2.102838 -0.000000 -0.000000
 23 0.000002 -4.440599 -0.000001 1.569944 -0.062987 0.004053
 24 11.375562 0.000001 0.000003 -1.884259 -0.250141 0.477042
 25 0.000000 -4.440604 -0.000001 1.570144 -0.062988 0.004040
 26 10.510133 0.000000 -0.000002 -0.000000 0.000000 -2.497224
 27 0.000001 -1.748401 4.999999 0.000000 0.004007 1.602291
 28 5.500000 -0.000000 -0.000000 0.271174 0.000000 0.000000
 29 -0.000002 -1.940598 5.000001 -0.044472 0.004003 -0.000180
 30 6.551492 -0.000000 0.000002 -0.490575 0.225090 -0.367085
 31 -0.000000 -1.940600 5.000002 -0.027189 -0.053376 0.005295
 32 6.551492 -0.000000 0.000001 -0.225119 0.131343 -0.162163
 33 -0.000001 -1.940599 4.999996 -0.066572 -0.152786 -0.110311
 34 -0.286619 -0.135718 -1.703165 -0.172322 1.078012 2.848303
 35 6.384778 0.000001 -0.000003 -0.036712 0.051239 -1.340463
 36 10.242682 0.000000 -0.000000 -0.000000 0.000000 -1.755301
 37 11.375562 0.000001 0.000001 2.697062 0.324160 0.613670
 38 0.728682 0.023431 1.008290 -1.579583 -0.319038 0.212973
 39 2.136495 -0.000002 0.000001 -0.000000 0.000000 1.282817
 40 2.313140 -0.000001 -0.000000 0.000000 0.000000 3.141593
 41 3.115507 -0.886040 0.021430 0.420765 0.316066 0.167178
 42 2.011150 0.000001 0.000003 -0.000000 0.000000 2.082010
 43 2.141379 -0.000000 -0.000002 0.000000 0.000000 3.141593
 44 1.734173 -0.000001 0.000002 -0.000000 -0.000000 1.041748
 45 0.136316 -3.738193 2.525891 1.493698 2.759406 -1.474501
 46 2.392943 0.494656 0.382010 1.580188 0.187932 -0.064451
 47 11.389367 -0.000819 0.158780 2.100126 0.254494 0.259110
 48 0.000000 -4.440598 -0.000000 1.570144 -3.078602 0.004040
 49 6.000000 -0.000000 -0.000001 2.100126 -0.000000 -0.000000
 50 0.000002 -4.440603 -0.000000 1.569944 -3.078603 0.004053
 51 10.510131 -0.000000 0.000002 0.000000 0.000000 -2.448447
 52 0.000000 -1.748399 -4.999999 -3.141593 0.004007 -1.539299
 53 5.499999 0.000000 -0.000001 0.007518 0.000000 0.000000
 54 0.000001 -0.000000 -4.999999 -0.044472 3.137590 -0.000177
 55 6.551492 0.000001 -0.000003 -0.007518 0.025751 -0.356931
 56 -1.266844 -1.937443 -4.950559 -0.066572 -2.988806 -0.110308
 57 6.551492 0.000001 -0.000003 -0.007518 0.025751 -0.356931
 58 0.699370 -1.944207 -5.006847 -0.027189 -3.088217 0.005298
 59 4.226145 -0.003200 0.000001 -0.000000 -0.000000 0.000000
 60 -0.000002 5.000001 -0.000000 -0.153564 0.000087 2.718702
 61 0.000004 -0.000004 -3.713580 0.301333 3.030739 -0.215750
 62 0.000002 0.000000 5.000000 3.053197 1.558589 -0.074927
 63 -0.000007 0.000006 3.713580 -0.038851 -3.116086 -0.440696
 64 0.000002 -0.000000 -5.000000 -0.088724 1.558589 3.066337
 65 7.363602 1.646647 0.495663 3.141593 -1.570796 0.000000
 66 -0.000005 0.000007 3.619081 -0.053135 -3.089556 -0.903300
 67 16.573919 -0.000000 0.000000 0.000000 -0.000000 -0.526885
 68 15.128182 -0.000001 0.000000 -0.233498 0.060216 -0.295908
 69 5.758666 4.244731 0.000000 0.000000 -0.000000 1.667687
 70 3.177726 0.000000 -0.000000 0.000000 0.000000 3.141593
 71 15.708953 -0.000000 0.000000 -0.115581 0.043048 -0.155071
 72 0.275148 0.189215 -3.445207 3.130898 0.000409 -1.514604
 73 17.210192 -0.000000 0.000000 -0.000000 -0.000000 -1.650815
 74 -0.000001 -0.000000 -4.999999 -0.079430 1.546568 -1.570856
 75 0.000002 -0.000003 -3.619081 0.437207 2.937474 -0.310521
 76 16.573923 -0.000000 -0.000001 0.000000 -0.000000 -0.925519
 77 15.128183 0.000000 0.000001 0.097923 0.065407 0.519597
 78 5.758665 4.244731 -0.000000 -0.000000 -0.000000 1.815142
 79 4.003934 0.000000 -0.000000 0.000000 0.000000 0.000000
 80 15.708955 0.000001 0.000001 0.064550 0.054444 0.360195
 81 0.273998 0.191089 3.439762 -3.130907 -0.000437 -1.508106
 82 17.210194 -0.000000 -0.000001 -0.000000 0.000000 -1.830200
 83 0.000000 -0.000001 5.000000 -0.079314 1.595025 -1.570739
end
