version 1
nodes
  0 "Bip01"  -1
  1 "Bip01 Footsteps"   0
  2 "Bip01 Pelvis"   0
  3 "Bip01 Spine"   2
  4 "Bip01 Spine1"   3
  5 "Bip01 Spine2"   4
  6 "Bip01 Spine3"   5
  7 "Bip01 Neck"   6
  8 "Bip01 Head"   7
  9 "Dummy21"   8
 10 "Bip01 L Clavicle"   7
 11 "Bip01 L UpperArm"  10
 12 "Bip01 L Forearm"  11
 13 "Bip01 L Hand"  12
 14 "Bip01 L Finger0"  13
 15 "Bip01 L Finger01"  14
 16 "Dummy06"  15
 17 "Bip01 L Finger1"  13
 18 "Bip01 L Finger11"  17
 19 "Dummy03"  18
 20 "-- L knuckle"  17
 21 "-- L knuckle_end"  20
 22 "-- L Forearm twist"  12
 23 "-- L Forearm twist_end"  22
 24 "-- L wrist"  12
 25 "-- L wrist_end"  24
 26 "-- L Elbow"  11
 27 "--L Elbow_end"  26
 28 "-- L bicep twist"  11
 29 "-- L bicep twist_end"  28
 30 "-- L shoulder outside"  10
 31 "-- L shoulder outside_end"  30
 32 "-- L Shoulder inside"  10
 33 "-- L Shoulder inside_end"  32
 34 "Bip01 R Clavicle"   7
 35 "Bip01 R UpperArm"  34
 36 "Bip01 R Forearm"  35
 37 "Bip01 R Hand"  36
 38 "Bip01 R Finger0"  37
 39 "Bip01 R Finger01"  38
 40 "Dummy01"  39
 41 "Bip01 R Finger1"  37
 42 "Bip01 R Finger11"  41
 43 "Dummy02"  42
 44 "-- R knuckle"  41
 45 "Point06"  44
 46 "Steyr Aug"  37
 47 "-- R wrist"  36
 48 "-- R wrist_end"  47
 49 "-- R forearm twist"  36
 50 "-- R forearm twist_end"  49
 51 "-- R Elbow"  35
 52 "--R Elbow_end"  51
 53 "-- R bicep twist"  35
 54 "-- R bicep twist_end"  53
 55 "-- R Shoulder inside"  34
 56 "-- R Shoulder inside_end"  55
 57 "-- R shoulder outside"  34
 58 "-- R shoulder outside_end"  57
 59 "-- Neck smooth"   6
 60 "-- neck smooth end"  59
 61 "-- R Butt"   2
 62 "--R Butt_end"  61
 63 "-- L butt"   2
 64 "--L butt_end"  63
 65 "GIGN01"   2
 66 "Bip01 L Thigh"   2
 67 "Bip01 L Calf"  66
 68 "Bip01 L Foot"  67
 69 "Bip01 L Toe0"  68
 70 "Dummy16"  69
 71 "-- L ankle"  67
 72 "-- L ankleend"  71
 73 "-- L Knee"  66
 74 "--L Knee_end"  73
 75 "Bip01 R Thigh"   2
 76 "Bip01 R Calf"  75
 77 "Bip01 R Foot"  76
 78 "Bip01 R Toe0"  77
 79 "Dummy11"  78
 80 "-- R Ankle"  76
 81 "-- R ankleend"  80
 82 "-- R Knee"  75
 83 "--R Knee_end"  82
end
skeleton
time 0
  0 -0.650000 0.000000 33.899605 -0.025849 0.174554 -1.569172
  1 6.038406 0.885018 -34.229939 -0.174512 -0.026131 1.569196
  2 -2.276935 0.000003 -1.238188 -1.570795 -1.570451 0.000000
  3 1.796593 0.711875 -0.000457 0.139831 0.106650 -0.154740
  4 4.119473 -0.003117 -0.000531 0.162616 -0.020939 0.268927
  5 4.118627 -0.003236 -0.000535 0.164553 -0.098558 -0.009114
  6 4.118385 -0.003156 -0.000866 0.273630 -0.215782 -0.129559
  7 4.119625 -0.003258 0.000930 -0.279271 0.308451 0.216769
  8 4.443598 -0.000000 0.000000 1.297279 0.380779 -0.452559
  9 9.024061 0.000000 -0.000000 0.000000 0.000000 0.000000
 10 -0.526024 -0.451557 1.586980 -0.323320 -1.331488 -3.110790
 11 6.384777 -0.000000 -0.000002 -0.966199 0.084688 -0.694638
 12 10.242681 -0.000002 -0.000001 -0.000000 0.000000 -1.583462
 13 11.375562 0.000000 -0.000001 -2.068792 -0.342864 0.890126
 14 0.728680 0.023431 -1.008292 1.051563 0.167831 0.364467
 15 2.136496 -0.000000 -0.000000 -0.000000 0.000000 -0.078540
 16 2.313140 -0.000001 0.000000 0.000000 0.000000 0.000000
 17 3.115505 -0.886041 -0.021434 -0.166499 0.000392 0.514872
 18 2.011151 0.000000 -0.000000 0.000000 -0.000000 1.322792
 19 2.141380 -0.000002 0.000000 0.000000 0.000000 0.000000
 20 1.734172 0.000001 0.000000 0.000000 0.000000 0.660693
 21 0.000006 -4.440594 -0.000000 1.570544 -0.062990 -0.195737
 22 6.000003 0.000000 0.000000 -1.922676 -0.000000 -0.000000
 23 -0.000000 -4.440602 0.000001 1.569944 -0.062987 0.004053
 24 11.375565 -0.000001 0.000002 -1.775819 -0.225017 0.415216
 25 -0.000000 -4.440604 0.000001 1.570144 -0.062988 0.004040
 26 10.510130 -0.000000 -0.000002 0.000000 -0.000000 -2.362527
 27 0.000002 -1.748401 5.000000 -0.000000 0.004007 1.602291
 28 5.500000 -0.000002 -0.000000 0.364980 -0.000000 -0.000000
 29 -0.000001 -1.940599 5.000002 -0.044472 0.004003 -0.000180
 30 6.551491 0.000000 -0.000001 -0.665931 0.127427 -0.517406
 31 -0.000001 -1.940600 5.000002 -0.027189 -0.053376 0.005295
 32 6.551491 0.000000 -0.000001 -0.300317 0.102856 -0.228472
 33 -0.000000 -1.940600 4.999998 -0.066572 -0.152786 -0.110311
 34 0.526027 0.458633 -1.586980 -1.638865 0.759859 1.415544
 35 6.384776 -0.000000 -0.000002 0.324765 0.057586 -1.078220
 36 10.242682 0.000001 0.000001 0.000000 0.000000 -1.790218
 37 11.375560 0.000000 0.000001 2.404294 0.192820 0.553028
 38 0.728682 0.023431 1.008292 -1.579583 -0.319038 0.212973
 39 2.136500 -0.000002 -0.000002 -0.000000 0.000000 1.282817
 40 2.313140 -0.000000 0.000001 0.000000 0.000000 3.141593
 41 3.115508 -0.886040 0.021430 0.420765 0.316066 0.167178
 42 2.011152 0.000000 0.000002 -0.000000 0.000000 2.082010
 43 2.141380 0.000000 0.000002 0.000000 0.000000 3.141593
 44 1.734173 -0.000001 -0.000000 0.000000 -0.000000 1.041748
 45 0.136315 -3.738194 2.525890 1.493698 2.759406 -1.474501
 46 2.392943 0.494657 0.382011 1.580188 0.187932 -0.064451
 47 11.389367 -0.000820 0.158782 1.972444 0.159860 0.269067
 48 0.000001 -4.440598 0.000001 1.570144 -3.078602 0.004040
 49 6.000000 -0.000001 -0.000001 1.972444 0.000000 0.000000
 50 0.000003 -4.440599 0.000000 1.569944 -3.078603 0.004053
 51 10.510132 0.000001 -0.000001 -0.000000 -0.000000 -2.465905
 52 0.000000 -1.748399 -5.000002 3.141593 0.004007 -1.539299
 53 5.500000 0.000001 0.000001 -0.118390 -0.000000 -0.000000
 54 -0.000000 -0.000000 -5.000003 -0.044472 3.137589 -0.000177
 55 6.551490 -0.000000 0.000000 0.118390 -0.032232 -0.304027
 56 -1.266844 -1.937444 -4.950561 -0.066572 -2.988806 -0.110308
 57 6.551491 -0.000001 -0.000000 0.118390 -0.032232 -0.304027
 58 0.699370 -1.944208 -5.006849 -0.027189 -3.088217 0.005298
 59 4.226149 -0.003202 -0.000000 0.000000 -0.000000 0.000000
 60 -0.000002 5.000000 -0.000000 -0.153564 0.000087 2.718702
 61 0.000004 -0.000004 -3.713580 0.301049 3.038626 -0.264075
 62 0.000000 0.000000 5.000000 3.053199 1.558589 -0.074925
 63 -0.000007 0.000006 3.713580 -0.039417 -3.100919 -0.416392
 64 -0.000001 -0.000000 -5.000000 -0.088725 1.558589 3.066335
 65 7.363602 1.646647 0.495663 3.141593 -1.570796 0.000000
 66 -0.000005 0.000007 3.619081 -0.046817 -3.063322 -0.844011
 67 16.573919 0.000000 0.000000 -0.000000 0.000000 -0.720003
 68 15.128184 -0.000001 -0.000000 -0.219841 0.032523 -0.044371
 69 5.758665 4.244731 0.000000 0.000000 -0.000000 1.667687
 70 3.177726 0.000000 -0.000000 0.000000 0.000000 3.141593
 71 15.708954 0.000001 0.000000 -0.110213 0.019587 -0.022978
 72 0.275148 0.189215 -3.445207 3.130898 0.000409 -1.514604
 73 17.210192 -0.000000 0.000000 -0.000000 -0.000000 -1.737718
 74 0.000001 0.000000 -4.999999 -0.079433 1.546568 -1.570859
 75 0.000002 -0.000003 -3.619081 0.438414 2.945845 -0.393216
 76 16.573921 -0.000001 -0.000001 -0.000000 -0.000000 -0.981537
 77 15.128182 -0.000000 0.000002 0.099873 0.019965 0.505829
 78 5.758665 4.244731 -0.000000 -0.000000 -0.000000 1.815142
 79 4.003934 0.000000 -0.000000 0.000000 0.000000 0.000000
 80 15.708954 0.000001 0.000001 0.067782 0.021409 0.351757
 81 0.273998 0.191090 3.439762 -3.130907 -0.000437 -1.508107
 82 17.210194 -0.000001 -0.000000 0.000000 -0.000000 -1.855408
 83 0.000001 -0.000000 5.000000 -0.079314 1.595025 -1.570739
time 1
  0 -0.650000 0.000000 33.899605 -0.025849 0.174554 -1.569172
  1 6.038406 0.885018 -34.229939 -0.174512 -0.026131 1.569196
  2 -2.276935 0.000003 -1.238188 -1.570795 -1.570451 0.000000
  3 1.796593 0.711875 -0.000457 0.139831 0.106650 -0.154740
  4 4.119473 -0.003117 -0.000531 0.162616 -0.020939 0.268927
  5 4.118627 -0.003236 -0.000535 0.164553 -0.098558 -0.009114
  6 4.118385 -0.003156 -0.000866 0.273630 -0.215782 -0.129559
  7 4.119625 -0.003258 0.000930 -0.279271 0.308451 0.216769
  8 4.443598 -0.000000 0.000000 1.297279 0.380779 -0.452559
  9 9.024061 0.000000 -0.000000 0.000000 0.000000 0.000000
 10 -0.526024 -0.451557 1.586980 -0.323320 -1.331488 -3.110790
 11 6.384777 -0.000000 -0.000002 -0.966199 0.084688 -0.694638
 12 10.242681 -0.000002 -0.000001 -0.000000 0.000000 -1.583462
 13 11.375562 0.000000 -0.000001 -2.068792 -0.342864 0.890126
 14 0.728680 0.023431 -1.008292 1.051563 0.167831 0.364467
 15 2.136496 -0.000000 -0.000000 -0.000000 0.000000 -0.078540
 16 2.313140 -0.000001 0.000000 0.000000 0.000000 0.000000
 17 3.115505 -0.886041 -0.021434 -0.166499 0.000392 0.514872
 18 2.011151 0.000000 -0.000000 0.000000 -0.000000 1.322792
 19 2.141380 -0.000002 0.000000 0.000000 0.000000 0.000000
 20 1.734172 0.000001 0.000000 0.000000 0.000000 0.660693
 21 0.000006 -4.440594 -0.000000 1.570544 -0.062990 -0.195737
 22 6.000003 0.000000 0.000000 -1.922676 -0.000000 -0.000000
 23 -0.000000 -4.440602 0.000001 1.569944 -0.062987 0.004053
 24 11.375565 -0.000001 0.000002 -1.775819 -0.225017 0.415216
 25 -0.000000 -4.440604 0.000001 1.570144 -0.062988 0.004040
 26 10.510130 -0.000000 -0.000002 0.000000 -0.000000 -2.362527
 27 0.000002 -1.748401 5.000000 -0.000000 0.004007 1.602291
 28 5.500000 -0.000002 -0.000000 0.364980 -0.000000 -0.000000
 29 -0.000001 -1.940599 5.000002 -0.044472 0.004003 -0.000180
 30 6.551491 0.000000 -0.000001 -0.665931 0.127427 -0.517406
 31 -0.000001 -1.940600 5.000002 -0.027189 -0.053376 0.005295
 32 6.551491 0.000000 -0.000001 -0.300317 0.102856 -0.228472
 33 -0.000000 -1.940600 4.999998 -0.066572 -0.152786 -0.110311
 34 0.526027 0.458633 -1.586980 -1.638865 0.759859 1.415544
 35 6.384776 -0.000000 -0.000002 0.324765 0.057586 -1.078220
 36 10.242682 0.000001 0.000001 0.000000 0.000000 -1.790218
 37 11.375560 0.000000 0.000001 2.404294 0.192820 0.553028
 38 0.728682 0.023431 1.008292 -1.579583 -0.319038 0.212973
 39 2.136500 -0.000002 -0.000002 -0.000000 0.000000 1.282817
 40 2.313140 -0.000000 0.000001 0.000000 0.000000 3.141593
 41 3.115508 -0.886040 0.021430 0.420765 0.316066 0.167178
 42 2.011152 0.000000 0.000002 -0.000000 0.000000 2.082010
 43 2.141380 0.000000 0.000002 0.000000 0.000000 3.141593
 44 1.734173 -0.000001 -0.000000 0.000000 -0.000000 1.041748
 45 0.136315 -3.738194 2.525890 1.493698 2.759406 -1.474501
 46 2.392943 0.494657 0.382011 1.580188 0.187932 -0.064451
 47 11.389367 -0.000820 0.158782 1.972444 0.159860 0.269067
 48 0.000001 -4.440598 0.000001 1.570144 -3.078602 0.004040
 49 6.000000 -0.000001 -0.000001 1.972444 0.000000 0.000000
 50 0.000003 -4.440599 0.000000 1.569944 -3.078603 0.004053
 51 10.510132 0.000001 -0.000001 -0.000000 -0.000000 -2.465905
 52 0.000000 -1.748399 -5.000002 3.141593 0.004007 -1.539299
 53 5.500000 0.000001 0.000001 -0.118390 -0.000000 -0.000000
 54 -0.000000 -0.000000 -5.000003 -0.044472 3.137589 -0.000177
 55 6.551490 -0.000000 0.000000 0.118390 -0.032232 -0.304027
 56 -1.266844 -1.937444 -4.950561 -0.066572 -2.988806 -0.110308
 57 6.551491 -0.000001 -0.000000 0.118390 -0.032232 -0.304027
 58 0.699370 -1.944208 -5.006849 -0.027189 -3.088217 0.005298
 59 4.226149 -0.003202 -0.000000 0.000000 -0.000000 0.000000
 60 -0.000002 5.000000 -0.000000 -0.153564 0.000087 2.718702
 61 0.000004 -0.000004 -3.713580 0.301049 3.038626 -0.264075
 62 0.000000 0.000000 5.000000 3.053199 1.558589 -0.074925
 63 -0.000007 0.000006 3.713580 -0.039417 -3.100919 -0.416392
 64 -0.000001 -0.000000 -5.000000 -0.088725 1.558589 3.066335
 65 7.363602 1.646647 0.495663 3.141593 -1.570796 0.000000
 66 -0.000005 0.000007 3.619081 -0.046817 -3.063322 -0.844011
 67 16.573919 0.000000 0.000000 -0.000000 0.000000 -0.720003
 68 15.128184 -0.000001 -0.000000 -0.219841 0.032523 -0.044371
 69 5.758665 4.244731 0.000000 0.000000 -0.000000 1.667687
 70 3.177726 0.000000 -0.000000 0.000000 0.000000 3.141593
 71 15.708954 0.000001 0.000000 -0.110213 0.019587 -0.022978
 72 0.275148 0.189215 -3.445207 3.130898 0.000409 -1.514604
 73 17.210192 -0.000000 0.000000 -0.000000 -0.000000 -1.737718
 74 0.000001 0.000000 -4.999999 -0.079433 1.546568 -1.570859
 75 0.000002 -0.000003 -3.619081 0.438414 2.945845 -0.393216
 76 16.573921 -0.000001 -0.000001 -0.000000 -0.000000 -0.981537
 77 15.128182 -0.000000 0.000002 0.099873 0.019965 0.505829
 78 5.758665 4.244731 -0.000000 -0.000000 -0.000000 1.815142
 79 4.003934 0.000000 -0.000000 0.000000 0.000000 0.000000
 80 15.708954 0.000001 0.000001 0.067782 0.021409 0.351757
 81 0.273998 0.191090 3.439762 -3.130907 -0.000437 -1.508107
 82 17.210194 -0.000001 -0.000000 0.000000 -0.000000 -1.855408
 83 0.000001 -0.000000 5.000000 -0.079314 1.595025 -1.570739
time 2
  0 -0.650000 0.000000 33.899605 -0.025849 0.174554 -1.569172
  1 6.038406 0.885018 -34.229939 -0.174512 -0.026131 1.569196
  2 -2.276935 0.000003 -1.238188 -1.570795 -1.570451 0.000000
  3 1.796593 0.711875 -0.000457 0.139831 0.106650 -0.154740
  4 4.119473 -0.003117 -0.000531 0.162616 -0.020939 0.268927
  5 4.118627 -0.003236 -0.000535 0.164553 -0.098558 -0.009114
  6 4.118385 -0.003156 -0.000866 0.273630 -0.215782 -0.129559
  7 4.119625 -0.003258 0.000930 -0.279271 0.308451 0.216769
  8 4.443598 -0.000000 0.000000 1.297279 0.380779 -0.452559
  9 9.024061 0.000000 -0.000000 0.000000 0.000000 0.000000
 10 -0.526024 -0.451557 1.586980 -0.323320 -1.331488 -3.110790
 11 6.384777 -0.000000 -0.000002 -0.966199 0.084688 -0.694638
 12 10.242681 -0.000002 -0.000001 -0.000000 0.000000 -1.583462
 13 11.375562 0.000000 -0.000001 -2.068792 -0.342864 0.890126
 14 0.728680 0.023431 -1.008292 1.051563 0.167831 0.364467
 15 2.136496 -0.000000 -0.000000 -0.000000 0.000000 -0.078540
 16 2.313140 -0.000001 0.000000 0.000000 0.000000 0.000000
 17 3.115505 -0.886041 -0.021434 -0.166499 0.000392 0.514872
 18 2.011151 0.000000 -0.000000 0.000000 -0.000000 1.322792
 19 2.141380 -0.000002 0.000000 0.000000 0.000000 0.000000
 20 1.734172 0.000001 0.000000 0.000000 0.000000 0.660693
 21 0.000006 -4.440594 -0.000000 1.570544 -0.062990 -0.195737
 22 6.000003 0.000000 0.000000 -1.922676 -0.000000 -0.000000
 23 -0.000000 -4.440602 0.000001 1.569944 -0.062987 0.004053
 24 11.375565 -0.000001 0.000002 -1.775819 -0.225017 0.415216
 25 -0.000000 -4.440604 0.000001 1.570144 -0.062988 0.004040
 26 10.510130 -0.000000 -0.000002 0.000000 -0.000000 -2.362527
 27 0.000002 -1.748401 5.000000 -0.000000 0.004007 1.602291
 28 5.500000 -0.000002 -0.000000 0.364980 -0.000000 -0.000000
 29 -0.000001 -1.940599 5.000002 -0.044472 0.004003 -0.000180
 30 6.551491 0.000000 -0.000001 -0.665931 0.127427 -0.517406
 31 -0.000001 -1.940600 5.000002 -0.027189 -0.053376 0.005295
 32 6.551491 0.000000 -0.000001 -0.300317 0.102856 -0.228472
 33 -0.000000 -1.940600 4.999998 -0.066572 -0.152786 -0.110311
 34 0.526027 0.458633 -1.586980 -1.638865 0.759859 1.415544
 35 6.384776 -0.000000 -0.000002 0.324765 0.057586 -1.078220
 36 10.242682 0.000001 0.000001 0.000000 0.000000 -1.790218
 37 11.375560 0.000000 0.000001 2.404294 0.192820 0.553028
 38 0.728682 0.023431 1.008292 -1.579583 -0.319038 0.212973
 39 2.136500 -0.000002 -0.000002 -0.000000 0.000000 1.282817
 40 2.313140 -0.000000 0.000001 0.000000 0.000000 3.141593
 41 3.115508 -0.886040 0.021430 0.420765 0.316066 0.167178
 42 2.011152 0.000000 0.000002 -0.000000 0.000000 2.082010
 43 2.141380 0.000000 0.000002 0.000000 0.000000 3.141593
 44 1.734173 -0.000001 -0.000000 0.000000 -0.000000 1.041748
 45 0.136315 -3.738194 2.525890 1.493698 2.759406 -1.474501
 46 2.392943 0.494657 0.382011 1.580188 0.187932 -0.064451
 47 11.389367 -0.000820 0.158782 1.972444 0.159860 0.269067
 48 0.000001 -4.440598 0.000001 1.570144 -3.078602 0.004040
 49 6.000000 -0.000001 -0.000001 1.972444 0.000000 0.000000
 50 0.000003 -4.440599 0.000000 1.569944 -3.078603 0.004053
 51 10.510132 0.000001 -0.000001 -0.000000 -0.000000 -2.465905
 52 0.000000 -1.748399 -5.000002 3.141593 0.004007 -1.539299
 53 5.500000 0.000001 0.000001 -0.118390 -0.000000 -0.000000
 54 -0.000000 -0.000000 -5.000003 -0.044472 3.137589 -0.000177
 55 6.551490 -0.000000 0.000000 0.118390 -0.032232 -0.304027
 56 -1.266844 -1.937444 -4.950561 -0.066572 -2.988806 -0.110308
 57 6.551491 -0.000001 -0.000000 0.118390 -0.032232 -0.304027
 58 0.699370 -1.944208 -5.006849 -0.027189 -3.088217 0.005298
 59 4.226149 -0.003202 -0.000000 0.000000 -0.000000 0.000000
 60 -0.000002 5.000000 -0.000000 -0.153564 0.000087 2.718702
 61 0.000004 -0.000004 -3.713580 0.301049 3.038626 -0.264075
 62 0.000000 0.000000 5.000000 3.053199 1.558589 -0.074925
 63 -0.000007 0.000006 3.713580 -0.039417 -3.100919 -0.416392
 64 -0.000001 -0.000000 -5.000000 -0.088725 1.558589 3.066335
 65 7.363602 1.646647 0.495663 3.141593 -1.570796 0.000000
 66 -0.000005 0.000007 3.619081 -0.046817 -3.063322 -0.844011
 67 16.573919 0.000000 0.000000 -0.000000 0.000000 -0.720003
 68 15.128184 -0.000001 -0.000000 -0.219841 0.032523 -0.044371
 69 5.758665 4.244731 0.000000 0.000000 -0.000000 1.667687
 70 3.177726 0.000000 -0.000000 0.000000 0.000000 3.141593
 71 15.708954 0.000001 0.000000 -0.110213 0.019587 -0.022978
 72 0.275148 0.189215 -3.445207 3.130898 0.000409 -1.514604
 73 17.210192 -0.000000 0.000000 -0.000000 -0.000000 -1.737718
 74 0.000001 0.000000 -4.999999 -0.079433 1.546568 -1.570859
 75 0.000002 -0.000003 -3.619081 0.438414 2.945845 -0.393216
 76 16.573921 -0.000001 -0.000001 -0.000000 -0.000000 -0.981537
 77 15.128182 -0.000000 0.000002 0.099873 0.019965 0.505829
 78 5.758665 4.244731 -0.000000 -0.000000 -0.000000 1.815142
 79 4.003934 0.000000 -0.000000 0.000000 0.000000 0.000000
 80 15.708954 0.000001 0.000001 0.067782 0.021409 0.351757
 81 0.273998 0.191090 3.439762 -3.130907 -0.000437 -1.508107
 82 17.210194 -0.000001 -0.000000 0.000000 -0.000000 -1.855408
 83 0.000001 -0.000000 5.000000 -0.079314 1.595025 -1.570739
end
