version 1
nodes
  0 "Bip01"  -1
  1 "Bip01 Footsteps"   0
  2 "Bip01 Pelvis"   0
  3 "Bip01 Spine"   2
  4 "Bip01 Spine1"   3
  5 "Bip01 Spine2"   4
  6 "Bip01 Spine3"   5
  7 "Bip01 Neck"   6
  8 "Bip01 Head"   7
  9 "Dummy21"   8
 10 "Bip01 L Clavicle"   7
 11 "Bip01 L UpperArm"  10
 12 "Bip01 L Forearm"  11
 13 "Bip01 L Hand"  12
 14 "Bip01 L Finger0"  13
 15 "Bip01 L Finger01"  14
 16 "Dummy06"  15
 17 "Bip01 L Finger1"  13
 18 "Bip01 L Finger11"  17
 19 "Dummy03"  18
 20 "-- L knuckle"  17
 21 "-- L knuckle_end"  20
 22 "-- L Forearm twist"  12
 23 "-- L Forearm twist_end"  22
 24 "-- L wrist"  12
 25 "-- L wrist_end"  24
 26 "-- L Elbow"  11
 27 "--L Elbow_end"  26
 28 "-- L bicep twist"  11
 29 "-- L bicep twist_end"  28
 30 "-- L shoulder outside"  10
 31 "-- L shoulder outside_end"  30
 32 "-- L Shoulder inside"  10
 33 "-- L Shoulder inside_end"  32
 34 "Bip01 R Clavicle"   7
 35 "Bip01 R UpperArm"  34
 36 "Bip01 R Forearm"  35
 37 "Bip01 R Hand"  36
 38 "Bip01 R Finger0"  37
 39 "Bip01 R Finger01"  38
 40 "Dummy01"  39
 41 "Bip01 R Finger1"  37
 42 "Bip01 R Finger11"  41
 43 "Dummy02"  42
 44 "-- R knuckle"  41
 45 "Point06"  44
 46 "Steyr Aug"  37
 47 "-- R wrist"  36
 48 "-- R wrist_end"  47
 49 "-- R forearm twist"  36
 50 "-- R forearm twist_end"  49
 51 "-- R Elbow"  35
 52 "--R Elbow_end"  51
 53 "-- R bicep twist"  35
 54 "-- R bicep twist_end"  53
 55 "-- R Shoulder inside"  34
 56 "-- R Shoulder inside_end"  55
 57 "-- R shoulder outside"  34
 58 "-- R shoulder outside_end"  57
 59 "-- Neck smooth"   6
 60 "-- neck smooth end"  59
 61 "-- R Butt"   2
 62 "--R Butt_end"  61
 63 "-- L butt"   2
 64 "--L butt_end"  63
 65 "GIGN01"   2
 66 "Bip01 L Thigh"   2
 67 "Bip01 L Calf"  66
 68 "Bip01 L Foot"  67
 69 "Bip01 L Toe0"  68
 70 "Dummy16"  69
 71 "-- L ankle"  67
 72 "-- L ankleend"  71
 73 "-- L Knee"  66
 74 "--L Knee_end"  73
 75 "Bip01 R Thigh"   2
 76 "Bip01 R Calf"  75
 77 "Bip01 R Foot"  76
 78 "Bip01 R Toe0"  77
 79 "Dummy11"  78
 80 "-- R Ankle"  76
 81 "-- R ankleend"  80
 82 "-- R Knee"  75
 83 "--R Knee_end"  82
end
skeleton
time 0
  0 -0.650000 0.000000 33.899605 -0.025849 0.174554 -1.569172
  1 5.926847 0.868667 -33.597542 -0.174512 -0.026131 1.569196
  2 -2.276935 0.000003 -1.238188 -1.570795 -1.570451 0.000000
  3 1.796403 0.712163 0.001312 -0.416217 0.134741 -0.306904
  4 4.118536 -0.002804 0.001700 -0.547154 -0.085438 0.027934
  5 4.118592 -0.003066 0.001163 -0.366400 -0.141744 0.049639
  6 4.118556 -0.002916 0.001501 -0.477345 -0.085524 0.027882
  7 4.119231 -0.003470 -0.000290 0.085622 0.290581 0.203519
  8 4.443598 -0.000000 -0.000000 0.200840 -0.082994 0.406631
  9 9.024063 -0.000003 0.000000 0.000000 0.000000 0.000000
 10 -0.496440 0.145499 1.653999 0.757208 -1.150977 2.151091
 11 6.384777 0.000001 -0.000001 -0.981229 0.685791 -1.131695
 12 10.242681 0.000001 -0.000000 -0.000000 -0.000000 -1.072780
 13 11.375558 0.000003 -0.000001 -1.686562 0.553437 0.225449
 14 0.728681 0.023431 -1.008292 1.051563 0.167831 0.364467
 15 2.136497 0.000000 -0.000000 -0.000000 0.000000 -0.078540
 16 2.313140 -0.000000 0.000001 0.000000 0.000000 0.000000
 17 3.115506 -0.886039 -0.021430 -0.166499 0.000392 0.514872
 18 2.011151 0.000001 0.000001 0.000000 -0.000000 1.322792
 19 2.141379 0.000000 0.000001 0.000000 0.000000 0.000000
 20 1.734172 0.000001 0.000000 -0.000000 0.000000 0.660693
 21 0.000006 -4.440594 -0.000001 1.570544 -0.062990 -0.195737
 22 6.000000 0.000002 0.000000 -1.665472 -0.000000 -0.000000
 23 0.000001 -4.440601 -0.000001 1.569944 -0.062987 0.004053
 24 11.375561 0.000001 0.000004 -1.641891 0.285280 0.127455
 25 -0.000001 -4.440603 0.000002 1.570144 -0.062988 0.004040
 26 10.510132 0.000003 -0.000001 0.000000 -0.000000 -2.107187
 27 0.000001 -1.748401 4.999998 0.000000 0.004007 1.602290
 28 5.500000 0.000002 -0.000000 0.208521 0.000000 -0.000000
 29 -0.000002 -1.940598 5.000000 -0.044472 0.004003 -0.000180
 30 6.551491 0.000001 0.000002 -0.455098 0.488248 -0.614431
 31 -0.000000 -1.940599 5.000002 -0.027189 -0.053376 0.005295
 32 6.551491 0.000001 0.000002 -0.165107 0.259663 -0.247570
 33 -0.000001 -1.940599 4.999999 -0.066572 -0.152786 -0.110311
 34 0.496441 -0.138422 -1.654000 1.420318 1.224923 -2.029095
 35 6.384777 -0.000001 -0.000002 -0.341461 -0.096709 -1.296899
 36 10.242682 0.000001 -0.000002 -0.000000 0.000000 -1.683719
 37 11.375562 -0.000001 0.000005 3.063875 0.177488 0.646901
 38 0.728680 0.023432 1.008292 -1.579583 -0.319038 0.212973
 39 2.136497 -0.000002 -0.000000 -0.000000 -0.000000 1.282817
 40 2.313139 0.000002 -0.000000 0.000000 0.000000 3.141593
 41 3.115505 -0.886040 0.021432 0.420766 0.316066 0.167178
 42 2.011150 0.000000 0.000002 -0.000000 0.000000 2.082010
 43 2.141379 -0.000001 0.000001 0.000000 0.000000 3.141593
 44 1.734173 -0.000002 -0.000001 -0.000000 -0.000000 1.041748
 45 0.136315 -3.738193 2.525889 1.493698 2.759406 -1.474501
 46 2.392943 0.494656 0.382014 1.580188 0.187932 -0.064451
 47 11.389367 -0.000821 0.158782 2.298400 0.228824 0.291305
 48 0.000000 -4.440600 0.000000 1.570144 -3.078602 0.004040
 49 6.000000 -0.000001 0.000002 2.298401 0.000000 -0.000000
 50 0.000001 -4.440603 0.000001 1.569944 -3.078603 0.004053
 51 10.510131 0.000001 -0.000001 -0.000000 -0.000000 -2.412656
 52 0.000000 -1.748400 -5.000003 -3.141593 0.004007 -1.539299
 53 5.500000 0.000001 0.000001 0.143473 0.000000 -0.000000
 54 -0.000000 0.000000 -5.000000 -0.044472 3.137589 -0.000177
 55 6.551491 -0.000000 -0.000000 -0.143473 0.036526 -0.353128
 56 -1.266844 -1.937443 -4.950561 -0.066572 -2.988806 -0.110308
 57 6.551491 -0.000000 -0.000000 -0.143473 0.036526 -0.353128
 58 0.699370 -1.944208 -5.006848 -0.027189 -3.088217 0.005298
 59 4.226148 -0.003201 -0.000000 -0.000000 0.000000 0.000000
 60 0.000004 5.000000 -0.000000 -0.153564 0.000087 2.718702
 61 0.000004 -0.000005 -3.713580 0.301324 3.039450 -0.303574
 62 0.000001 0.000000 5.000000 3.053195 1.558589 -0.074929
 63 -0.000007 0.000005 3.713580 -0.036663 -3.091225 -0.431955
 64 0.000003 -0.000000 -5.000000 -0.088727 1.558589 3.066334
 65 7.287211 1.213879 0.493823 3.141593 -1.570796 0.000000
 66 -0.000005 0.000006 3.619081 -0.036612 -3.047925 -0.882096
 67 16.573919 0.000000 0.000000 0.000000 -0.000000 -0.890325
 68 15.128180 0.000001 0.000000 -0.215012 0.017855 0.087518
 69 5.758665 4.244730 0.000000 0.000000 -0.000000 1.667687
 70 3.177726 0.000000 -0.000000 0.000000 0.000000 3.141593
 71 15.708953 0.000001 0.000000 -0.108139 0.007263 0.047603
 72 0.275148 0.189215 -3.445208 3.130898 0.000409 -1.514604
 73 17.210194 0.000001 0.000001 -0.000000 0.000000 -1.814363
 74 -0.000001 0.000001 -4.999999 -0.079432 1.546568 -1.570855
 75 0.000002 -0.000003 -3.619081 0.440012 2.943080 -0.463251
 76 16.573923 -0.000001 -0.000000 -0.000000 -0.000000 -1.092118
 77 15.128180 0.000001 0.000001 0.099463 -0.010810 0.553068
 78 5.758665 4.244730 0.000000 -0.000000 -0.000000 1.815142
 79 4.003934 0.000000 -0.000000 0.000000 0.000000 0.000000
 80 15.708954 0.000000 0.000002 0.069078 -0.000348 0.382983
 81 0.273998 0.191090 3.439762 -3.130907 -0.000437 -1.508107
 82 17.210194 -0.000000 -0.000000 0.000000 0.000000 -1.905170
 83 0.000000 -0.000001 5.000000 -0.079311 1.595025 -1.570736
time 1
  0 -0.650000 0.000000 33.899605 -0.025849 0.174554 -1.569172
  1 5.926847 0.868667 -33.597542 -0.174512 -0.026131 1.569196
  2 -2.276935 0.000003 -1.238188 -1.570795 -1.570451 0.000000
  3 1.796403 0.712163 0.001312 -0.416217 0.134741 -0.306904
  4 4.118536 -0.002804 0.001700 -0.547154 -0.085438 0.027934
  5 4.118592 -0.003066 0.001163 -0.366400 -0.141744 0.049639
  6 4.118556 -0.002916 0.001501 -0.477345 -0.085524 0.027882
  7 4.119231 -0.003470 -0.000290 0.085622 0.290581 0.203519
  8 4.443598 -0.000000 -0.000000 0.200840 -0.082994 0.406631
  9 9.024063 -0.000003 0.000000 0.000000 0.000000 0.000000
 10 -0.496440 0.145499 1.653999 0.757208 -1.150977 2.151091
 11 6.384777 0.000001 -0.000001 -0.981229 0.685791 -1.131695
 12 10.242681 0.000001 -0.000000 -0.000000 -0.000000 -1.072780
 13 11.375558 0.000003 -0.000001 -1.686562 0.553437 0.225449
 14 0.728681 0.023431 -1.008292 1.051563 0.167831 0.364467
 15 2.136497 0.000000 -0.000000 -0.000000 0.000000 -0.078540
 16 2.313140 -0.000000 0.000001 0.000000 0.000000 0.000000
 17 3.115506 -0.886039 -0.021430 -0.166499 0.000392 0.514872
 18 2.011151 0.000001 0.000001 0.000000 -0.000000 1.322792
 19 2.141379 0.000000 0.000001 0.000000 0.000000 0.000000
 20 1.734172 0.000001 0.000000 -0.000000 0.000000 0.660693
 21 0.000006 -4.440594 -0.000001 1.570544 -0.062990 -0.195737
 22 6.000000 0.000002 0.000000 -1.665472 -0.000000 -0.000000
 23 0.000001 -4.440601 -0.000001 1.569944 -0.062987 0.004053
 24 11.375561 0.000001 0.000004 -1.641891 0.285280 0.127455
 25 -0.000001 -4.440603 0.000002 1.570144 -0.062988 0.004040
 26 10.510132 0.000003 -0.000001 0.000000 -0.000000 -2.107187
 27 0.000001 -1.748401 4.999998 0.000000 0.004007 1.602290
 28 5.500000 0.000002 -0.000000 0.208521 0.000000 -0.000000
 29 -0.000002 -1.940598 5.000000 -0.044472 0.004003 -0.000180
 30 6.551491 0.000001 0.000002 -0.455098 0.488248 -0.614431
 31 -0.000000 -1.940599 5.000002 -0.027189 -0.053376 0.005295
 32 6.551491 0.000001 0.000002 -0.165107 0.259663 -0.247570
 33 -0.000001 -1.940599 4.999999 -0.066572 -0.152786 -0.110311
 34 0.496441 -0.138422 -1.654000 1.420318 1.224923 -2.029095
 35 6.384777 -0.000001 -0.000002 -0.341461 -0.096709 -1.296899
 36 10.242682 0.000001 -0.000002 -0.000000 0.000000 -1.683719
 37 11.375562 -0.000001 0.000005 3.063875 0.177488 0.646901
 38 0.728680 0.023432 1.008292 -1.579583 -0.319038 0.212973
 39 2.136497 -0.000002 -0.000000 -0.000000 -0.000000 1.282817
 40 2.313139 0.000002 -0.000000 0.000000 0.000000 3.141593
 41 3.115505 -0.886040 0.021432 0.420766 0.316066 0.167178
 42 2.011150 0.000000 0.000002 -0.000000 0.000000 2.082010
 43 2.141379 -0.000001 0.000001 0.000000 0.000000 3.141593
 44 1.734173 -0.000002 -0.000001 -0.000000 -0.000000 1.041748
 45 0.136315 -3.738193 2.525889 1.493698 2.759406 -1.474501
 46 2.392943 0.494656 0.382014 1.580188 0.187932 -0.064451
 47 11.389367 -0.000821 0.158782 2.298400 0.228824 0.291305
 48 0.000000 -4.440600 0.000000 1.570144 -3.078602 0.004040
 49 6.000000 -0.000001 0.000002 2.298401 0.000000 -0.000000
 50 0.000001 -4.440603 0.000001 1.569944 -3.078603 0.004053
 51 10.510131 0.000001 -0.000001 -0.000000 -0.000000 -2.412656
 52 0.000000 -1.748400 -5.000003 -3.141593 0.004007 -1.539299
 53 5.500000 0.000001 0.000001 0.143473 0.000000 -0.000000
 54 -0.000000 0.000000 -5.000000 -0.044472 3.137589 -0.000177
 55 6.551491 -0.000000 -0.000000 -0.143473 0.036526 -0.353128
 56 -1.266844 -1.937443 -4.950561 -0.066572 -2.988806 -0.110308
 57 6.551491 -0.000000 -0.000000 -0.143473 0.036526 -0.353128
 58 0.699370 -1.944208 -5.006848 -0.027189 -3.088217 0.005298
 59 4.226148 -0.003201 -0.000000 -0.000000 0.000000 0.000000
 60 0.000004 5.000000 -0.000000 -0.153564 0.000087 2.718702
 61 0.000004 -0.000005 -3.713580 0.301324 3.039450 -0.303574
 62 0.000001 0.000000 5.000000 3.053195 1.558589 -0.074929
 63 -0.000007 0.000005 3.713580 -0.036663 -3.091225 -0.431955
 64 0.000003 -0.000000 -5.000000 -0.088727 1.558589 3.066334
 65 7.287211 1.213879 0.493823 3.141593 -1.570796 0.000000
 66 -0.000005 0.000006 3.619081 -0.036612 -3.047925 -0.882096
 67 16.573919 0.000000 0.000000 0.000000 -0.000000 -0.890325
 68 15.128180 0.000001 0.000000 -0.215012 0.017855 0.087518
 69 5.758665 4.244730 0.000000 0.000000 -0.000000 1.667687
 70 3.177726 0.000000 -0.000000 0.000000 0.000000 3.141593
 71 15.708953 0.000001 0.000000 -0.108139 0.007263 0.047603
 72 0.275148 0.189215 -3.445208 3.130898 0.000409 -1.514604
 73 17.210194 0.000001 0.000001 -0.000000 0.000000 -1.814363
 74 -0.000001 0.000001 -4.999999 -0.079432 1.546568 -1.570855
 75 0.000002 -0.000003 -3.619081 0.440012 2.943080 -0.463251
 76 16.573923 -0.000001 -0.000000 -0.000000 -0.000000 -1.092118
 77 15.128180 0.000001 0.000001 0.099463 -0.010810 0.553068
 78 5.758665 4.244730 0.000000 -0.000000 -0.000000 1.815142
 79 4.003934 0.000000 -0.000000 0.000000 0.000000 0.000000
 80 15.708954 0.000000 0.000002 0.069078 -0.000348 0.382983
 81 0.273998 0.191090 3.439762 -3.130907 -0.000437 -1.508107
 82 17.210194 -0.000000 -0.000000 0.000000 0.000000 -1.905170
 83 0.000000 -0.000001 5.000000 -0.079311 1.595025 -1.570736
time 2
  0 -0.650000 0.000000 33.899605 -0.025849 0.174554 -1.569172
  1 5.926847 0.868667 -33.597542 -0.174512 -0.026131 1.569196
  2 -2.276935 0.000003 -1.238188 -1.570795 -1.570451 0.000000
  3 1.796403 0.712163 0.001312 -0.416217 0.134741 -0.306904
  4 4.118536 -0.002804 0.001700 -0.547154 -0.085438 0.027934
  5 4.118592 -0.003066 0.001163 -0.366400 -0.141744 0.049639
  6 4.118556 -0.002916 0.001501 -0.477345 -0.085524 0.027882
  7 4.119231 -0.003470 -0.000290 0.085622 0.290581 0.203519
  8 4.443598 -0.000000 -0.000000 0.200840 -0.082994 0.406631
  9 9.024063 -0.000003 0.000000 0.000000 0.000000 0.000000
 10 -0.496440 0.145499 1.653999 0.757208 -1.150977 2.151091
 11 6.384777 0.000001 -0.000001 -0.981229 0.685791 -1.131695
 12 10.242681 0.000001 -0.000000 -0.000000 -0.000000 -1.072780
 13 11.375558 0.000003 -0.000001 -1.686562 0.553437 0.225449
 14 0.728681 0.023431 -1.008292 1.051563 0.167831 0.364467
 15 2.136497 0.000000 -0.000000 -0.000000 0.000000 -0.078540
 16 2.313140 -0.000000 0.000001 0.000000 0.000000 0.000000
 17 3.115506 -0.886039 -0.021430 -0.166499 0.000392 0.514872
 18 2.011151 0.000001 0.000001 0.000000 -0.000000 1.322792
 19 2.141379 0.000000 0.000001 0.000000 0.000000 0.000000
 20 1.734172 0.000001 0.000000 -0.000000 0.000000 0.660693
 21 0.000006 -4.440594 -0.000001 1.570544 -0.062990 -0.195737
 22 6.000000 0.000002 0.000000 -1.665472 -0.000000 -0.000000
 23 0.000001 -4.440601 -0.000001 1.569944 -0.062987 0.004053
 24 11.375561 0.000001 0.000004 -1.641891 0.285280 0.127455
 25 -0.000001 -4.440603 0.000002 1.570144 -0.062988 0.004040
 26 10.510132 0.000003 -0.000001 0.000000 -0.000000 -2.107187
 27 0.000001 -1.748401 4.999998 0.000000 0.004007 1.602290
 28 5.500000 0.000002 -0.000000 0.208521 0.000000 -0.000000
 29 -0.000002 -1.940598 5.000000 -0.044472 0.004003 -0.000180
 30 6.551491 0.000001 0.000002 -0.455098 0.488248 -0.614431
 31 -0.000000 -1.940599 5.000002 -0.027189 -0.053376 0.005295
 32 6.551491 0.000001 0.000002 -0.165107 0.259663 -0.247570
 33 -0.000001 -1.940599 4.999999 -0.066572 -0.152786 -0.110311
 34 0.496441 -0.138422 -1.654000 1.420318 1.224923 -2.029095
 35 6.384777 -0.000001 -0.000002 -0.341461 -0.096709 -1.296899
 36 10.242682 0.000001 -0.000002 -0.000000 0.000000 -1.683719
 37 11.375562 -0.000001 0.000005 3.063875 0.177488 0.646901
 38 0.728680 0.023432 1.008292 -1.579583 -0.319038 0.212973
 39 2.136497 -0.000002 -0.000000 -0.000000 -0.000000 1.282817
 40 2.313139 0.000002 -0.000000 0.000000 0.000000 3.141593
 41 3.115505 -0.886040 0.021432 0.420766 0.316066 0.167178
 42 2.011150 0.000000 0.000002 -0.000000 0.000000 2.082010
 43 2.141379 -0.000001 0.000001 0.000000 0.000000 3.141593
 44 1.734173 -0.000002 -0.000001 -0.000000 -0.000000 1.041748
 45 0.136315 -3.738193 2.525889 1.493698 2.759406 -1.474501
 46 2.392943 0.494656 0.382014 1.580188 0.187932 -0.064451
 47 11.389367 -0.000821 0.158782 2.298400 0.228824 0.291305
 48 0.000000 -4.440600 0.000000 1.570144 -3.078602 0.004040
 49 6.000000 -0.000001 0.000002 2.298401 0.000000 -0.000000
 50 0.000001 -4.440603 0.000001 1.569944 -3.078603 0.004053
 51 10.510131 0.000001 -0.000001 -0.000000 -0.000000 -2.412656
 52 0.000000 -1.748400 -5.000003 -3.141593 0.004007 -1.539299
 53 5.500000 0.000001 0.000001 0.143473 0.000000 -0.000000
 54 -0.000000 0.000000 -5.000000 -0.044472 3.137589 -0.000177
 55 6.551491 -0.000000 -0.000000 -0.143473 0.036526 -0.353128
 56 -1.266844 -1.937443 -4.950561 -0.066572 -2.988806 -0.110308
 57 6.551491 -0.000000 -0.000000 -0.143473 0.036526 -0.353128
 58 0.699370 -1.944208 -5.006848 -0.027189 -3.088217 0.005298
 59 4.226148 -0.003201 -0.000000 -0.000000 0.000000 0.000000
 60 0.000004 5.000000 -0.000000 -0.153564 0.000087 2.718702
 61 0.000004 -0.000005 -3.713580 0.301324 3.039450 -0.303574
 62 0.000001 0.000000 5.000000 3.053195 1.558589 -0.074929
 63 -0.000007 0.000005 3.713580 -0.036663 -3.091225 -0.431955
 64 0.000003 -0.000000 -5.000000 -0.088727 1.558589 3.066334
 65 7.287211 1.213879 0.493823 3.141593 -1.570796 0.000000
 66 -0.000005 0.000006 3.619081 -0.036612 -3.047925 -0.882096
 67 16.573919 0.000000 0.000000 0.000000 -0.000000 -0.890325
 68 15.128180 0.000001 0.000000 -0.215012 0.017855 0.087518
 69 5.758665 4.244730 0.000000 0.000000 -0.000000 1.667687
 70 3.177726 0.000000 -0.000000 0.000000 0.000000 3.141593
 71 15.708953 0.000001 0.000000 -0.108139 0.007263 0.047603
 72 0.275148 0.189215 -3.445208 3.130898 0.000409 -1.514604
 73 17.210194 0.000001 0.000001 -0.000000 0.000000 -1.814363
 74 -0.000001 0.000001 -4.999999 -0.079432 1.546568 -1.570855
 75 0.000002 -0.000003 -3.619081 0.440012 2.943080 -0.463251
 76 16.573923 -0.000001 -0.000000 -0.000000 -0.000000 -1.092118
 77 15.128180 0.000001 0.000001 0.099463 -0.010810 0.553068
 78 5.758665 4.244730 0.000000 -0.000000 -0.000000 1.815142
 79 4.003934 0.000000 -0.000000 0.000000 0.000000 0.000000
 80 15.708954 0.000000 0.000002 0.069078 -0.000348 0.382983
 81 0.273998 0.191090 3.439762 -3.130907 -0.000437 -1.508107
 82 17.210194 -0.000000 -0.000000 0.000000 0.000000 -1.905170
 83 0.000000 -0.000001 5.000000 -0.079311 1.595025 -1.570736
end
