version 1
nodes
  0 "Bip01"  -1
  1 "Bip01 Footsteps"   0
  2 "Bip01 Pelvis"   0
  3 "Bip01 Spine"   2
  4 "Bip01 Spine1"   3
  5 "Bip01 Spine2"   4
  6 "Bip01 Spine3"   5
  7 "Bip01 Neck"   6
  8 "Bip01 Head"   7
  9 "Dummy21"   8
 10 "Bip01 L Clavicle"   7
 11 "Bip01 L UpperArm"  10
 12 "Bip01 L Forearm"  11
 13 "Bip01 L Hand"  12
 14 "Bip01 L Finger0"  13
 15 "Bip01 L Finger01"  14
 16 "Dummy06"  15
 17 "Bip01 L Finger1"  13
 18 "Bip01 L Finger11"  17
 19 "Dummy03"  18
 20 "-- L knuckle"  17
 21 "-- L knuckle_end"  20
 22 "-- L Forearm twist"  12
 23 "-- L Forearm twist_end"  22
 24 "-- L wrist"  12
 25 "-- L wrist_end"  24
 26 "-- L Elbow"  11
 27 "--L Elbow_end"  26
 28 "-- L bicep twist"  11
 29 "-- L bicep twist_end"  28
 30 "-- L shoulder outside"  10
 31 "-- L shoulder outside_end"  30
 32 "-- L Shoulder inside"  10
 33 "-- L Shoulder inside_end"  32
 34 "Bip01 R Clavicle"   7
 35 "Bip01 R UpperArm"  34
 36 "Bip01 R Forearm"  35
 37 "Bip01 R Hand"  36
 38 "Bip01 R Finger0"  37
 39 "Bip01 R Finger01"  38
 40 "Dummy01"  39
 41 "Bip01 R Finger1"  37
 42 "Bip01 R Finger11"  41
 43 "Dummy02"  42
 44 "-- R knuckle"  41
 45 "Point06"  44
 46 "Steyr Aug"  37
 47 "-- R wrist"  36
 48 "-- R wrist_end"  47
 49 "-- R forearm twist"  36
 50 "-- R forearm twist_end"  49
 51 "-- R Elbow"  35
 52 "--R Elbow_end"  51
 53 "-- R bicep twist"  35
 54 "-- R bicep twist_end"  53
 55 "-- R Shoulder inside"  34
 56 "-- R Shoulder inside_end"  55
 57 "-- R shoulder outside"  34
 58 "-- R shoulder outside_end"  57
 59 "-- Neck smooth"   6
 60 "-- neck smooth end"  59
 61 "-- R Butt"   2
 62 "--R Butt_end"  61
 63 "-- L butt"   2
 64 "--L butt_end"  63
 65 "GIGN01"   2
 66 "Bip01 L Thigh"   2
 67 "Bip01 L Calf"  66
 68 "Bip01 L Foot"  67
 69 "Bip01 L Toe0"  68
 70 "Dummy16"  69
 71 "-- L ankle"  67
 72 "-- L ankleend"  71
 73 "-- L Knee"  66
 74 "--L Knee_end"  73
 75 "Bip01 R Thigh"   2
 76 "Bip01 R Calf"  75
 77 "Bip01 R Foot"  76
 78 "Bip01 R Toe0"  77
 79 "Dummy11"  78
 80 "-- R Ankle"  76
 81 "-- R ankleend"  80
 82 "-- R Knee"  75
 83 "--R Knee_end"  82
end
skeleton
time 0
  0 -0.650000 0.000000 33.899605 -0.025849 0.174554 -1.569172
  1 5.886526 0.862758 -33.368977 -0.174512 -0.026131 1.569196
  2 -2.276935 0.000003 -1.238188 -1.570795 -1.570451 0.000000
  3 1.795801 0.712362 0.001259 -0.396925 -0.099157 -0.417128
  4 4.118363 -0.002800 0.001692 -0.548948 -0.149861 0.005972
  5 4.118421 -0.003066 0.001147 -0.361669 -0.152204 -0.002885
  6 4.119295 -0.002841 0.001486 -0.470335 0.025927 0.225478
  7 4.119712 -0.003331 -0.000437 0.123919 0.041789 0.327304
  8 4.443600 0.000000 0.000000 0.290376 0.275067 -0.533317
  9 9.024062 0.000001 0.000001 0.000000 0.000000 0.000000
 10 -0.072384 0.217514 1.717934 1.359089 -1.188377 1.445977
 11 6.384777 -0.000000 0.000002 -0.822917 0.175297 -1.078210
 12 10.242682 0.000002 -0.000004 0.000000 0.000000 -1.283645
 13 11.375565 -0.000001 0.000000 -1.758793 0.015151 0.437250
 14 0.728683 0.023429 -1.008294 1.051563 0.167831 0.364467
 15 2.136496 0.000001 0.000000 0.000000 0.000000 -0.078540
 16 2.313140 -0.000001 0.000000 0.000000 0.000000 0.000000
 17 3.115509 -0.886043 -0.021432 -0.166499 0.000392 0.514872
 18 2.011150 0.000003 0.000002 -0.000000 0.000000 1.322792
 19 2.141380 0.000001 0.000003 0.000000 0.000000 0.000000
 20 1.734172 0.000002 0.000002 -0.000000 -0.000000 0.660693
 21 0.000005 -4.440596 -0.000001 1.570544 -0.062990 -0.195737
 22 6.000001 0.000000 -0.000001 -1.713243 -0.000000 -0.000000
 23 0.000002 -4.440602 -0.000000 1.569944 -0.062987 0.004053
 24 11.375563 -0.000000 0.000002 -1.665493 -0.003412 0.238066
 25 -0.000000 -4.440604 0.000000 1.570144 -0.062988 0.004040
 26 10.510131 0.000001 -0.000003 -0.000000 0.000000 -2.212619
 27 0.000001 -1.748401 5.000000 -0.000000 0.004007 1.602291
 28 5.500000 -0.000001 -0.000001 0.277406 0.000000 0.000000
 29 -0.000001 -1.940599 5.000002 -0.044472 0.004003 -0.000180
 30 6.551491 -0.000000 -0.000001 -0.521120 0.179892 -0.656374
 31 0.000000 -1.940599 5.000003 -0.027189 -0.053376 0.005295
 32 6.551491 -0.000000 -0.000001 -0.226456 0.126013 -0.291837
 33 0.000000 -1.940599 4.999995 -0.066572 -0.152786 -0.110311
 34 0.072391 -0.210437 -1.717933 0.463002 1.215445 -3.037723
 35 6.384776 0.000000 -0.000000 0.108175 0.055931 -1.154678
 36 10.242681 0.000002 0.000002 0.000000 -0.000000 -1.756077
 37 11.375563 0.000000 -0.000003 2.784615 0.239826 0.570670
 38 0.728680 0.023432 1.008290 -1.579583 -0.319038 0.212973
 39 2.136497 0.000000 -0.000001 0.000000 -0.000000 1.282817
 40 2.313139 -0.000000 -0.000000 0.000000 0.000000 3.141593
 41 3.115505 -0.886040 0.021429 0.420766 0.316066 0.167178
 42 2.011152 -0.000000 0.000002 -0.000000 0.000000 2.082010
 43 2.141379 0.000000 0.000002 0.000000 0.000000 3.141593
 44 1.734173 -0.000000 0.000002 -0.000000 -0.000000 1.041748
 45 0.136315 -3.738193 2.525889 1.493698 2.759406 -1.474501
 46 2.392941 0.494656 0.382011 1.580188 0.187932 -0.064451
 47 11.389367 -0.000819 0.158779 2.155545 0.217983 0.253151
 48 -0.000000 -4.440598 0.000001 1.570144 -3.078602 0.004040
 49 6.000000 0.000000 -0.000002 2.155545 0.000000 -0.000000
 50 0.000002 -4.440604 0.000001 1.569944 -3.078603 0.004053
 51 10.510132 0.000001 0.000001 0.000000 -0.000000 -2.448835
 52 -0.000001 -1.748399 -4.999999 3.141593 0.004007 -1.539299
 53 5.500000 0.000001 0.000001 -0.046196 -0.000000 0.000000
 54 0.000000 0.000000 -5.000000 -0.044472 3.137589 -0.000177
 55 6.551490 -0.000000 0.000000 0.046196 -0.002423 -0.313787
 56 -1.266844 -1.937444 -4.950561 -0.066572 -2.988806 -0.110308
 57 6.551490 -0.000000 0.000000 0.046196 -0.002423 -0.313787
 58 0.699370 -1.944208 -5.006845 -0.027189 -3.088217 0.005298
 59 4.226144 -0.003201 0.000000 -0.000000 0.000000 -0.000000
 60 0.000004 5.000000 -0.000000 -0.153564 0.000087 2.718702
 61 0.000004 -0.000005 -3.713580 0.303659 3.044669 -0.284310
 62 0.000002 0.000000 5.000000 3.053196 1.558589 -0.074928
 63 -0.000007 0.000005 3.713580 -0.036010 -3.093982 -0.449466
 64 0.000002 -0.000000 -5.000000 -0.088726 1.558589 3.066335
 65 7.287211 1.213879 0.493823 3.141593 -1.570796 0.000000
 66 -0.000005 0.000006 3.619081 -0.036244 -3.053490 -0.924469
 67 16.573919 0.000001 0.000000 -0.000000 -0.000000 -0.968732
 68 15.128185 0.000001 0.000000 -0.217857 0.025228 0.123896
 69 5.758665 4.244730 0.000000 0.000000 -0.000000 1.667687
 70 3.177726 0.000000 0.000000 0.000000 0.000000 3.141593
 71 15.708955 0.000001 0.000000 -0.109751 0.010182 0.067284
 72 0.275148 0.189215 -3.445207 3.130898 0.000409 -1.514604
 73 17.210194 0.000001 0.000000 0.000000 -0.000000 -1.849646
 74 -0.000001 0.000000 -5.000000 -0.079429 1.546568 -1.570852
 75 0.000002 -0.000003 -3.619081 0.443904 2.953294 -0.429503
 76 16.573921 -0.000000 -0.000001 -0.000000 0.000000 -1.001963
 77 15.128181 0.000001 -0.000001 0.099253 -0.005240 0.497220
 78 5.758665 4.244731 0.000000 -0.000000 -0.000000 1.815142
 79 4.003934 -0.000000 0.000000 0.000000 0.000000 0.000000
 80 15.708955 0.000000 -0.000001 0.068318 0.002882 0.346310
 81 0.273997 0.191090 3.439762 -3.130907 -0.000437 -1.508107
 82 17.210196 -0.000001 -0.000001 -0.000000 -0.000000 -1.864600
 83 0.000001 -0.000001 5.000000 -0.079311 1.595025 -1.570737
time 1
  0 -0.650000 0.000000 33.899605 -0.025849 0.174554 -1.569172
  1 5.886526 0.862758 -33.368977 -0.174512 -0.026131 1.569196
  2 -2.276935 0.000003 -1.238188 -1.570795 -1.570451 0.000000
  3 1.795801 0.712362 0.001259 -0.396925 -0.099157 -0.417128
  4 4.118363 -0.002800 0.001692 -0.548948 -0.149861 0.005972
  5 4.118421 -0.003066 0.001147 -0.361669 -0.152204 -0.002885
  6 4.119295 -0.002841 0.001486 -0.470335 0.025927 0.225478
  7 4.119712 -0.003331 -0.000437 0.123919 0.041789 0.327304
  8 4.443600 0.000000 0.000000 0.290376 0.275067 -0.533317
  9 9.024062 0.000001 0.000001 0.000000 0.000000 0.000000
 10 -0.072384 0.217514 1.717934 1.359089 -1.188377 1.445977
 11 6.384777 -0.000000 0.000002 -0.822917 0.175297 -1.078210
 12 10.242682 0.000002 -0.000004 0.000000 0.000000 -1.283645
 13 11.375565 -0.000001 0.000000 -1.758793 0.015151 0.437250
 14 0.728683 0.023429 -1.008294 1.051563 0.167831 0.364467
 15 2.136496 0.000001 0.000000 0.000000 0.000000 -0.078540
 16 2.313140 -0.000001 0.000000 0.000000 0.000000 0.000000
 17 3.115509 -0.886043 -0.021432 -0.166499 0.000392 0.514872
 18 2.011150 0.000003 0.000002 -0.000000 0.000000 1.322792
 19 2.141380 0.000001 0.000003 0.000000 0.000000 0.000000
 20 1.734172 0.000002 0.000002 -0.000000 -0.000000 0.660693
 21 0.000005 -4.440596 -0.000001 1.570544 -0.062990 -0.195737
 22 6.000001 0.000000 -0.000001 -1.713243 -0.000000 -0.000000
 23 0.000002 -4.440602 -0.000000 1.569944 -0.062987 0.004053
 24 11.375563 -0.000000 0.000002 -1.665493 -0.003412 0.238066
 25 -0.000000 -4.440604 0.000000 1.570144 -0.062988 0.004040
 26 10.510131 0.000001 -0.000003 -0.000000 0.000000 -2.212619
 27 0.000001 -1.748401 5.000000 -0.000000 0.004007 1.602291
 28 5.500000 -0.000001 -0.000001 0.277406 0.000000 0.000000
 29 -0.000001 -1.940599 5.000002 -0.044472 0.004003 -0.000180
 30 6.551491 -0.000000 -0.000001 -0.521120 0.179892 -0.656374
 31 0.000000 -1.940599 5.000003 -0.027189 -0.053376 0.005295
 32 6.551491 -0.000000 -0.000001 -0.226456 0.126013 -0.291837
 33 0.000000 -1.940599 4.999995 -0.066572 -0.152786 -0.110311
 34 0.072391 -0.210437 -1.717933 0.463002 1.215445 -3.037723
 35 6.384776 0.000000 -0.000000 0.108175 0.055931 -1.154678
 36 10.242681 0.000002 0.000002 0.000000 -0.000000 -1.756077
 37 11.375563 0.000000 -0.000003 2.784615 0.239826 0.570670
 38 0.728680 0.023432 1.008290 -1.579583 -0.319038 0.212973
 39 2.136497 0.000000 -0.000001 0.000000 -0.000000 1.282817
 40 2.313139 -0.000000 -0.000000 0.000000 0.000000 3.141593
 41 3.115505 -0.886040 0.021429 0.420766 0.316066 0.167178
 42 2.011152 -0.000000 0.000002 -0.000000 0.000000 2.082010
 43 2.141379 0.000000 0.000002 0.000000 0.000000 3.141593
 44 1.734173 -0.000000 0.000002 -0.000000 -0.000000 1.041748
 45 0.136315 -3.738193 2.525889 1.493698 2.759406 -1.474501
 46 2.392941 0.494656 0.382011 1.580188 0.187932 -0.064451
 47 11.389367 -0.000819 0.158779 2.155545 0.217983 0.253151
 48 -0.000000 -4.440598 0.000001 1.570144 -3.078602 0.004040
 49 6.000000 0.000000 -0.000002 2.155545 0.000000 -0.000000
 50 0.000002 -4.440604 0.000001 1.569944 -3.078603 0.004053
 51 10.510132 0.000001 0.000001 0.000000 -0.000000 -2.448835
 52 -0.000001 -1.748399 -4.999999 3.141593 0.004007 -1.539299
 53 5.500000 0.000001 0.000001 -0.046196 -0.000000 0.000000
 54 0.000000 0.000000 -5.000000 -0.044472 3.137589 -0.000177
 55 6.551490 -0.000000 0.000000 0.046196 -0.002423 -0.313787
 56 -1.266844 -1.937444 -4.950561 -0.066572 -2.988806 -0.110308
 57 6.551490 -0.000000 0.000000 0.046196 -0.002423 -0.313787
 58 0.699370 -1.944208 -5.006845 -0.027189 -3.088217 0.005298
 59 4.226144 -0.003201 0.000000 -0.000000 0.000000 -0.000000
 60 0.000004 5.000000 -0.000000 -0.153564 0.000087 2.718702
 61 0.000004 -0.000005 -3.713580 0.303659 3.044669 -0.284310
 62 0.000002 0.000000 5.000000 3.053196 1.558589 -0.074928
 63 -0.000007 0.000005 3.713580 -0.036010 -3.093982 -0.449466
 64 0.000002 -0.000000 -5.000000 -0.088726 1.558589 3.066335
 65 7.287211 1.213879 0.493823 3.141593 -1.570796 0.000000
 66 -0.000005 0.000006 3.619081 -0.036244 -3.053490 -0.924469
 67 16.573919 0.000001 0.000000 -0.000000 -0.000000 -0.968732
 68 15.128185 0.000001 0.000000 -0.217857 0.025228 0.123896
 69 5.758665 4.244730 0.000000 0.000000 -0.000000 1.667687
 70 3.177726 0.000000 0.000000 0.000000 0.000000 3.141593
 71 15.708955 0.000001 0.000000 -0.109751 0.010182 0.067284
 72 0.275148 0.189215 -3.445207 3.130898 0.000409 -1.514604
 73 17.210194 0.000001 0.000000 0.000000 -0.000000 -1.849646
 74 -0.000001 0.000000 -5.000000 -0.079429 1.546568 -1.570852
 75 0.000002 -0.000003 -3.619081 0.443904 2.953294 -0.429503
 76 16.573921 -0.000000 -0.000001 -0.000000 0.000000 -1.001963
 77 15.128181 0.000001 -0.000001 0.099253 -0.005240 0.497220
 78 5.758665 4.244731 0.000000 -0.000000 -0.000000 1.815142
 79 4.003934 -0.000000 0.000000 0.000000 0.000000 0.000000
 80 15.708955 0.000000 -0.000001 0.068318 0.002882 0.346310
 81 0.273997 0.191090 3.439762 -3.130907 -0.000437 -1.508107
 82 17.210196 -0.000001 -0.000001 -0.000000 -0.000000 -1.864600
 83 0.000001 -0.000001 5.000000 -0.079311 1.595025 -1.570737
time 2
  0 -0.650000 0.000000 33.899605 -0.025849 0.174554 -1.569172
  1 5.886526 0.862758 -33.368977 -0.174512 -0.026131 1.569196
  2 -2.276935 0.000003 -1.238188 -1.570795 -1.570451 0.000000
  3 1.795801 0.712362 0.001259 -0.396925 -0.099157 -0.417128
  4 4.118363 -0.002800 0.001692 -0.548948 -0.149861 0.005972
  5 4.118421 -0.003066 0.001147 -0.361669 -0.152204 -0.002885
  6 4.119295 -0.002841 0.001486 -0.470335 0.025927 0.225478
  7 4.119712 -0.003331 -0.000437 0.123919 0.041789 0.327304
  8 4.443600 0.000000 0.000000 0.290376 0.275067 -0.533317
  9 9.024062 0.000001 0.000001 0.000000 0.000000 0.000000
 10 -0.072384 0.217514 1.717934 1.359089 -1.188377 1.445977
 11 6.384777 -0.000000 0.000002 -0.822917 0.175297 -1.078210
 12 10.242682 0.000002 -0.000004 0.000000 0.000000 -1.283645
 13 11.375565 -0.000001 0.000000 -1.758793 0.015151 0.437250
 14 0.728683 0.023429 -1.008294 1.051563 0.167831 0.364467
 15 2.136496 0.000001 0.000000 0.000000 0.000000 -0.078540
 16 2.313140 -0.000001 0.000000 0.000000 0.000000 0.000000
 17 3.115509 -0.886043 -0.021432 -0.166499 0.000392 0.514872
 18 2.011150 0.000003 0.000002 -0.000000 0.000000 1.322792
 19 2.141380 0.000001 0.000003 0.000000 0.000000 0.000000
 20 1.734172 0.000002 0.000002 -0.000000 -0.000000 0.660693
 21 0.000005 -4.440596 -0.000001 1.570544 -0.062990 -0.195737
 22 6.000001 0.000000 -0.000001 -1.713243 -0.000000 -0.000000
 23 0.000002 -4.440602 -0.000000 1.569944 -0.062987 0.004053
 24 11.375563 -0.000000 0.000002 -1.665493 -0.003412 0.238066
 25 -0.000000 -4.440604 0.000000 1.570144 -0.062988 0.004040
 26 10.510131 0.000001 -0.000003 -0.000000 0.000000 -2.212619
 27 0.000001 -1.748401 5.000000 -0.000000 0.004007 1.602291
 28 5.500000 -0.000001 -0.000001 0.277406 0.000000 0.000000
 29 -0.000001 -1.940599 5.000002 -0.044472 0.004003 -0.000180
 30 6.551491 -0.000000 -0.000001 -0.521120 0.179892 -0.656374
 31 0.000000 -1.940599 5.000003 -0.027189 -0.053376 0.005295
 32 6.551491 -0.000000 -0.000001 -0.226456 0.126013 -0.291837
 33 0.000000 -1.940599 4.999995 -0.066572 -0.152786 -0.110311
 34 0.072391 -0.210437 -1.717933 0.463002 1.215445 -3.037723
 35 6.384776 0.000000 -0.000000 0.108175 0.055931 -1.154678
 36 10.242681 0.000002 0.000002 0.000000 -0.000000 -1.756077
 37 11.375563 0.000000 -0.000003 2.784615 0.239826 0.570670
 38 0.728680 0.023432 1.008290 -1.579583 -0.319038 0.212973
 39 2.136497 0.000000 -0.000001 0.000000 -0.000000 1.282817
 40 2.313139 -0.000000 -0.000000 0.000000 0.000000 3.141593
 41 3.115505 -0.886040 0.021429 0.420766 0.316066 0.167178
 42 2.011152 -0.000000 0.000002 -0.000000 0.000000 2.082010
 43 2.141379 0.000000 0.000002 0.000000 0.000000 3.141593
 44 1.734173 -0.000000 0.000002 -0.000000 -0.000000 1.041748
 45 0.136315 -3.738193 2.525889 1.493698 2.759406 -1.474501
 46 2.392941 0.494656 0.382011 1.580188 0.187932 -0.064451
 47 11.389367 -0.000819 0.158779 2.155545 0.217983 0.253151
 48 -0.000000 -4.440598 0.000001 1.570144 -3.078602 0.004040
 49 6.000000 0.000000 -0.000002 2.155545 0.000000 -0.000000
 50 0.000002 -4.440604 0.000001 1.569944 -3.078603 0.004053
 51 10.510132 0.000001 0.000001 0.000000 -0.000000 -2.448835
 52 -0.000001 -1.748399 -4.999999 3.141593 0.004007 -1.539299
 53 5.500000 0.000001 0.000001 -0.046196 -0.000000 0.000000
 54 0.000000 0.000000 -5.000000 -0.044472 3.137589 -0.000177
 55 6.551490 -0.000000 0.000000 0.046196 -0.002423 -0.313787
 56 -1.266844 -1.937444 -4.950561 -0.066572 -2.988806 -0.110308
 57 6.551490 -0.000000 0.000000 0.046196 -0.002423 -0.313787
 58 0.699370 -1.944208 -5.006845 -0.027189 -3.088217 0.005298
 59 4.226144 -0.003201 0.000000 -0.000000 0.000000 -0.000000
 60 0.000004 5.000000 -0.000000 -0.153564 0.000087 2.718702
 61 0.000004 -0.000005 -3.713580 0.303659 3.044669 -0.284310
 62 0.000002 0.000000 5.000000 3.053196 1.558589 -0.074928
 63 -0.000007 0.000005 3.713580 -0.036010 -3.093982 -0.449466
 64 0.000002 -0.000000 -5.000000 -0.088726 1.558589 3.066335
 65 7.287211 1.213879 0.493823 3.141593 -1.570796 0.000000
 66 -0.000005 0.000006 3.619081 -0.036244 -3.053490 -0.924469
 67 16.573919 0.000001 0.000000 -0.000000 -0.000000 -0.968732
 68 15.128185 0.000001 0.000000 -0.217857 0.025228 0.123896
 69 5.758665 4.244730 0.000000 0.000000 -0.000000 1.667687
 70 3.177726 0.000000 0.000000 0.000000 0.000000 3.141593
 71 15.708955 0.000001 0.000000 -0.109751 0.010182 0.067284
 72 0.275148 0.189215 -3.445207 3.130898 0.000409 -1.514604
 73 17.210194 0.000001 0.000000 0.000000 -0.000000 -1.849646
 74 -0.000001 0.000000 -5.000000 -0.079429 1.546568 -1.570852
 75 0.000002 -0.000003 -3.619081 0.443904 2.953294 -0.429503
 76 16.573921 -0.000000 -0.000001 -0.000000 0.000000 -1.001963
 77 15.128181 0.000001 -0.000001 0.099253 -0.005240 0.497220
 78 5.758665 4.244731 0.000000 -0.000000 -0.000000 1.815142
 79 4.003934 -0.000000 0.000000 0.000000 0.000000 0.000000
 80 15.708955 0.000000 -0.000001 0.068318 0.002882 0.346310
 81 0.273997 0.191090 3.439762 -3.130907 -0.000437 -1.508107
 82 17.210196 -0.000001 -0.000001 -0.000000 -0.000000 -1.864600
 83 0.000001 -0.000001 5.000000 -0.079311 1.595025 -1.570737
end
